<?xml version="1.0" encoding="utf-8" standalone="no"?>
<!DOCTYPE svg PUBLIC "-//W3C//DTD SVG 1.1//EN"
  "http://www.w3.org/Graphics/SVG/1.1/DTD/svg11.dtd">
<!-- Created with matplotlib (https://matplotlib.org/) -->
<svg height="345.6pt" version="1.1" viewBox="0 0 460.8 345.6" width="460.8pt" xmlns="http://www.w3.org/2000/svg" xmlns:xlink="http://www.w3.org/1999/xlink">
 <metadata>
  <rdf:RDF xmlns:cc="http://creativecommons.org/ns#" xmlns:dc="http://purl.org/dc/elements/1.1/" xmlns:rdf="http://www.w3.org/1999/02/22-rdf-syntax-ns#">
   <cc:Work>
    <dc:type rdf:resource="http://purl.org/dc/dcmitype/StillImage"/>
    <dc:date>2021-04-27T05:15:03.228820</dc:date>
    <dc:format>image/svg+xml</dc:format>
    <dc:creator>
     <cc:Agent>
      <dc:title>Matplotlib v3.3.4, https://matplotlib.org/</dc:title>
     </cc:Agent>
    </dc:creator>
   </cc:Work>
  </rdf:RDF>
 </metadata>
 <defs>
  <style type="text/css">*{stroke-linecap:butt;stroke-linejoin:round;}</style>
 </defs>
 <g id="figure_1">
  <g id="patch_1">
   <path d="M 0 345.6 
L 460.8 345.6 
L 460.8 0 
L 0 0 
z
" style="fill:#ffffff;"/>
  </g>
  <g id="axes_1">
   <g id="patch_2">
    <path d="M 57.6 298.944 
L 338.688 298.944 
L 338.688 27.648 
L 57.6 27.648 
z
" style="fill:#ffffff;"/>
   </g>
   <g id="line2d_1">
    <path d="M 29.53256 298.944 
L 29.53256 293.677139 
L 41.620548 293.677139 
L 41.620548 288.410278 
L 57.6 288.410278 
L 57.6 283.143418 
L 77.884514 283.143418 
L 77.884514 277.876557 
L 96.301313 277.876557 
L 96.301313 272.609696 
L 113.022974 272.609696 
L 113.022974 267.342835 
L 120.286695 267.342835 
L 120.286695 262.075974 
L 130.874681 262.075974 
L 130.874681 256.809114 
L 132.326708 256.809114 
L 132.326708 251.542253 
L 133.216421 251.542253 
L 133.216421 246.275392 
L 141.435758 246.275392 
L 141.435758 241.008531 
L 145.166911 241.008531 
L 145.166911 235.74167 
L 151.324836 235.74167 
L 151.324836 230.47481 
L 163.004009 230.47481 
L 163.004009 225.207949 
L 165.711185 225.207949 
L 165.711185 219.941088 
L 167.073257 219.941088 
L 167.073257 214.674227 
L 170.761767 214.674227 
L 170.761767 209.407366 
L 174.279146 209.407366 
L 174.279146 204.140506 
L 175.108535 204.140506 
L 175.108535 198.873645 
L 186.623108 198.873645 
L 186.623108 193.606784 
L 190.436243 193.606784 
L 190.436243 188.339923 
L 190.542309 188.339923 
L 190.542309 183.073062 
L 190.634166 183.073062 
L 190.634166 177.806202 
L 190.710346 177.806202 
L 190.710346 172.539341 
L 190.816443 172.539341 
L 190.816443 167.27248 
L 190.920228 167.27248 
L 190.920228 162.005619 
L 192.119742 162.005619 
L 192.119742 156.738758 
L 192.1804 156.738758 
L 192.1804 151.471897 
L 192.228466 151.471897 
L 192.228466 146.205037 
L 192.381085 146.205037 
L 192.381085 140.938176 
L 192.463772 140.938176 
L 192.463772 135.671315 
L 192.501921 135.671315 
L 192.501921 130.404454 
L 192.600718 130.404454 
L 192.600718 125.137593 
L 192.677847 125.137593 
L 192.677847 119.870733 
L 192.754635 119.870733 
L 192.754635 114.603872 
L 192.808636 114.603872 
L 192.808636 109.337011 
L 192.875903 109.337011 
L 192.875903 104.07015 
L 192.942911 104.07015 
L 192.942911 98.803289 
L 193.027421 98.803289 
L 193.027421 93.536429 
L 193.0555 93.536429 
L 193.0555 88.269568 
L 193.127706 88.269568 
L 193.127706 83.002707 
L 193.19815 83.002707 
L 193.19815 77.735846 
L 193.272687 77.735846 
L 193.272687 72.468985 
L 193.333831 72.468985 
L 193.333831 67.202125 
L 193.422256 67.202125 
L 193.422256 61.935264 
L 193.471348 61.935264 
L 193.471348 56.668403 
L 193.523178 56.668403 
L 193.523178 51.401542 
L 193.577721 51.401542 
L 193.577721 46.134681 
L 193.600635 46.134681 
L 193.600635 40.867821 
L 193.646374 40.867821 
L 193.646374 35.60096 
L 193.700533 35.60096 
L 193.700533 30.334099 
L 338.688 30.334099 
" style="fill:none;stroke:#f5deb3;stroke-linecap:square;stroke-width:4;"/>
   </g>
   <g id="line2d_2">
    <defs>
     <path d="M -0 7.778175 
L 7.778175 0 
L 0 -7.778175 
L -7.778175 -0 
z
" id="m3f5811de1e" style="stroke:#f5deb3;stroke-linejoin:miter;stroke-width:1.5;"/>
    </defs>
    <g>
     <use style="fill:#f5deb3;stroke:#f5deb3;stroke-linejoin:miter;stroke-width:1.5;" x="133.216421" xlink:href="#m3f5811de1e" y="246.275392"/>
     <use style="fill:#f5deb3;stroke:#f5deb3;stroke-linejoin:miter;stroke-width:1.5;" x="192.228466" xlink:href="#m3f5811de1e" y="146.205037"/>
     <use style="fill:#f5deb3;stroke:#f5deb3;stroke-linejoin:miter;stroke-width:1.5;" x="193.422256" xlink:href="#m3f5811de1e" y="67.202125"/>
     <use style="fill:#f5deb3;stroke:#f5deb3;stroke-linejoin:miter;stroke-width:1.5;" x="193.700533" xlink:href="#m3f5811de1e" y="30.334099"/>
     <use style="fill:#f5deb3;stroke:#f5deb3;stroke-linejoin:miter;stroke-width:1.5;" x="193.700533" xlink:href="#m3f5811de1e" y="30.334099"/>
     <use style="fill:#f5deb3;stroke:#f5deb3;stroke-linejoin:miter;stroke-width:1.5;" x="338.688" xlink:href="#m3f5811de1e" y="30.334099"/>
    </g>
   </g>
   <g id="line2d_3">
    <path style="fill:none;stroke:#f5deb3;stroke-linecap:square;stroke-width:4;"/>
    <g/>
   </g>
   <g id="line2d_4">
    <path d="M 338.688 30.334099 
L 369.60768 35.706297 
" style="fill:none;stroke:#f5deb3;stroke-linecap:square;stroke-width:4;"/>
    <g>
     <use style="fill:#f5deb3;stroke:#f5deb3;stroke-linejoin:miter;stroke-width:1.5;" x="338.688" xlink:href="#m3f5811de1e" y="30.334099"/>
     <use style="fill:#f5deb3;stroke:#f5deb3;stroke-linejoin:miter;stroke-width:1.5;" x="369.60768" xlink:href="#m3f5811de1e" y="35.706297"/>
    </g>
   </g>
   <g id="matplotlib.axis_1">
    <g id="xtick_1">
     <g id="line2d_5">
      <path clip-path="url(#p35747eb534)" d="M 57.6 298.944 
L 57.6 27.648 
" style="fill:none;stroke:#b0b0b0;stroke-linecap:square;stroke-width:0.8;"/>
     </g>
     <g id="line2d_6">
      <defs>
       <path d="M 0 0 
L 0 3.5 
" id="m94df716493" style="stroke:#000000;stroke-width:0.8;"/>
      </defs>
      <g>
       <use style="stroke:#000000;stroke-width:0.8;" x="57.6" xlink:href="#m94df716493" y="298.944"/>
      </g>
     </g>
     <g id="text_1">
      <!-- 0 -->
      <g transform="translate(51.2375 321.140875)scale(0.2 -0.2)">
       <defs>
        <path d="M 31.78125 66.40625 
Q 24.171875 66.40625 20.328125 58.90625 
Q 16.5 51.421875 16.5 36.375 
Q 16.5 21.390625 20.328125 13.890625 
Q 24.171875 6.390625 31.78125 6.390625 
Q 39.453125 6.390625 43.28125 13.890625 
Q 47.125 21.390625 47.125 36.375 
Q 47.125 51.421875 43.28125 58.90625 
Q 39.453125 66.40625 31.78125 66.40625 
z
M 31.78125 74.21875 
Q 44.046875 74.21875 50.515625 64.515625 
Q 56.984375 54.828125 56.984375 36.375 
Q 56.984375 17.96875 50.515625 8.265625 
Q 44.046875 -1.421875 31.78125 -1.421875 
Q 19.53125 -1.421875 13.0625 8.265625 
Q 6.59375 17.96875 6.59375 36.375 
Q 6.59375 54.828125 13.0625 64.515625 
Q 19.53125 74.21875 31.78125 74.21875 
z
" id="DejaVuSans-48"/>
       </defs>
       <use xlink:href="#DejaVuSans-48"/>
      </g>
     </g>
    </g>
    <g id="xtick_2">
     <g id="line2d_7">
      <path clip-path="url(#p35747eb534)" d="M 137.910857 298.944 
L 137.910857 27.648 
" style="fill:none;stroke:#b0b0b0;stroke-linecap:square;stroke-width:0.8;"/>
     </g>
     <g id="line2d_8">
      <g>
       <use style="stroke:#000000;stroke-width:0.8;" x="137.910857" xlink:href="#m94df716493" y="298.944"/>
      </g>
     </g>
     <g id="text_2">
      <!-- 2 -->
      <g transform="translate(131.548357 321.140875)scale(0.2 -0.2)">
       <defs>
        <path d="M 19.1875 8.296875 
L 53.609375 8.296875 
L 53.609375 0 
L 7.328125 0 
L 7.328125 8.296875 
Q 12.9375 14.109375 22.625 23.890625 
Q 32.328125 33.6875 34.8125 36.53125 
Q 39.546875 41.84375 41.421875 45.53125 
Q 43.3125 49.21875 43.3125 52.78125 
Q 43.3125 58.59375 39.234375 62.25 
Q 35.15625 65.921875 28.609375 65.921875 
Q 23.96875 65.921875 18.8125 64.3125 
Q 13.671875 62.703125 7.8125 59.421875 
L 7.8125 69.390625 
Q 13.765625 71.78125 18.9375 73 
Q 24.125 74.21875 28.421875 74.21875 
Q 39.75 74.21875 46.484375 68.546875 
Q 53.21875 62.890625 53.21875 53.421875 
Q 53.21875 48.921875 51.53125 44.890625 
Q 49.859375 40.875 45.40625 35.40625 
Q 44.1875 33.984375 37.640625 27.21875 
Q 31.109375 20.453125 19.1875 8.296875 
z
" id="DejaVuSans-50"/>
       </defs>
       <use xlink:href="#DejaVuSans-50"/>
      </g>
     </g>
    </g>
    <g id="xtick_3">
     <g id="line2d_9">
      <path clip-path="url(#p35747eb534)" d="M 218.221714 298.944 
L 218.221714 27.648 
" style="fill:none;stroke:#b0b0b0;stroke-linecap:square;stroke-width:0.8;"/>
     </g>
     <g id="line2d_10">
      <g>
       <use style="stroke:#000000;stroke-width:0.8;" x="218.221714" xlink:href="#m94df716493" y="298.944"/>
      </g>
     </g>
     <g id="text_3">
      <!-- 4 -->
      <g transform="translate(211.859214 321.140875)scale(0.2 -0.2)">
       <defs>
        <path d="M 37.796875 64.3125 
L 12.890625 25.390625 
L 37.796875 25.390625 
z
M 35.203125 72.90625 
L 47.609375 72.90625 
L 47.609375 25.390625 
L 58.015625 25.390625 
L 58.015625 17.1875 
L 47.609375 17.1875 
L 47.609375 0 
L 37.796875 0 
L 37.796875 17.1875 
L 4.890625 17.1875 
L 4.890625 26.703125 
z
" id="DejaVuSans-52"/>
       </defs>
       <use xlink:href="#DejaVuSans-52"/>
      </g>
     </g>
    </g>
    <g id="xtick_4">
     <g id="line2d_11">
      <path clip-path="url(#p35747eb534)" d="M 298.532571 298.944 
L 298.532571 27.648 
" style="fill:none;stroke:#b0b0b0;stroke-linecap:square;stroke-width:0.8;"/>
     </g>
     <g id="line2d_12">
      <g>
       <use style="stroke:#000000;stroke-width:0.8;" x="298.532571" xlink:href="#m94df716493" y="298.944"/>
      </g>
     </g>
     <g id="text_4">
      <!-- 6 -->
      <g transform="translate(292.170071 321.140875)scale(0.2 -0.2)">
       <defs>
        <path d="M 33.015625 40.375 
Q 26.375 40.375 22.484375 35.828125 
Q 18.609375 31.296875 18.609375 23.390625 
Q 18.609375 15.53125 22.484375 10.953125 
Q 26.375 6.390625 33.015625 6.390625 
Q 39.65625 6.390625 43.53125 10.953125 
Q 47.40625 15.53125 47.40625 23.390625 
Q 47.40625 31.296875 43.53125 35.828125 
Q 39.65625 40.375 33.015625 40.375 
z
M 52.59375 71.296875 
L 52.59375 62.3125 
Q 48.875 64.0625 45.09375 64.984375 
Q 41.3125 65.921875 37.59375 65.921875 
Q 27.828125 65.921875 22.671875 59.328125 
Q 17.53125 52.734375 16.796875 39.40625 
Q 19.671875 43.65625 24.015625 45.921875 
Q 28.375 48.1875 33.59375 48.1875 
Q 44.578125 48.1875 50.953125 41.515625 
Q 57.328125 34.859375 57.328125 23.390625 
Q 57.328125 12.15625 50.6875 5.359375 
Q 44.046875 -1.421875 33.015625 -1.421875 
Q 20.359375 -1.421875 13.671875 8.265625 
Q 6.984375 17.96875 6.984375 36.375 
Q 6.984375 53.65625 15.1875 63.9375 
Q 23.390625 74.21875 37.203125 74.21875 
Q 40.921875 74.21875 44.703125 73.484375 
Q 48.484375 72.75 52.59375 71.296875 
z
" id="DejaVuSans-54"/>
       </defs>
       <use xlink:href="#DejaVuSans-54"/>
      </g>
     </g>
    </g>
    <g id="xtick_5">
     <g id="line2d_13">
      <path clip-path="url(#p35747eb534)" d="M 97.755429 298.944 
L 97.755429 27.648 
" style="fill:none;stroke:#b0b0b0;stroke-linecap:square;stroke-width:0.8;"/>
     </g>
     <g id="line2d_14">
      <defs>
       <path d="M 0 0 
L 0 2 
" id="mbc193c2894" style="stroke:#000000;stroke-width:0.6;"/>
      </defs>
      <g>
       <use style="stroke:#000000;stroke-width:0.6;" x="97.755429" xlink:href="#mbc193c2894" y="298.944"/>
      </g>
     </g>
    </g>
    <g id="xtick_6">
     <g id="line2d_15">
      <path clip-path="url(#p35747eb534)" d="M 178.066286 298.944 
L 178.066286 27.648 
" style="fill:none;stroke:#b0b0b0;stroke-linecap:square;stroke-width:0.8;"/>
     </g>
     <g id="line2d_16">
      <g>
       <use style="stroke:#000000;stroke-width:0.6;" x="178.066286" xlink:href="#mbc193c2894" y="298.944"/>
      </g>
     </g>
    </g>
    <g id="xtick_7">
     <g id="line2d_17">
      <path clip-path="url(#p35747eb534)" d="M 258.377143 298.944 
L 258.377143 27.648 
" style="fill:none;stroke:#b0b0b0;stroke-linecap:square;stroke-width:0.8;"/>
     </g>
     <g id="line2d_18">
      <g>
       <use style="stroke:#000000;stroke-width:0.6;" x="258.377143" xlink:href="#mbc193c2894" y="298.944"/>
      </g>
     </g>
    </g>
    <g id="xtick_8">
     <g id="line2d_19">
      <path clip-path="url(#p35747eb534)" d="M 338.688 298.944 
L 338.688 27.648 
" style="fill:none;stroke:#b0b0b0;stroke-linecap:square;stroke-width:0.8;"/>
     </g>
     <g id="line2d_20">
      <g>
       <use style="stroke:#000000;stroke-width:0.6;" x="338.688" xlink:href="#mbc193c2894" y="298.944"/>
      </g>
     </g>
    </g>
    <g id="text_5">
     <!-- log10(# f-evals / dimension) -->
     <g transform="translate(77.764078 342.217594)scale(0.17 -0.17)">
      <defs>
       <path d="M 9.421875 75.984375 
L 18.40625 75.984375 
L 18.40625 0 
L 9.421875 0 
z
" id="DejaVuSans-108"/>
       <path d="M 30.609375 48.390625 
Q 23.390625 48.390625 19.1875 42.75 
Q 14.984375 37.109375 14.984375 27.296875 
Q 14.984375 17.484375 19.15625 11.84375 
Q 23.34375 6.203125 30.609375 6.203125 
Q 37.796875 6.203125 41.984375 11.859375 
Q 46.1875 17.53125 46.1875 27.296875 
Q 46.1875 37.015625 41.984375 42.703125 
Q 37.796875 48.390625 30.609375 48.390625 
z
M 30.609375 56 
Q 42.328125 56 49.015625 48.375 
Q 55.71875 40.765625 55.71875 27.296875 
Q 55.71875 13.875 49.015625 6.21875 
Q 42.328125 -1.421875 30.609375 -1.421875 
Q 18.84375 -1.421875 12.171875 6.21875 
Q 5.515625 13.875 5.515625 27.296875 
Q 5.515625 40.765625 12.171875 48.375 
Q 18.84375 56 30.609375 56 
z
" id="DejaVuSans-111"/>
       <path d="M 45.40625 27.984375 
Q 45.40625 37.75 41.375 43.109375 
Q 37.359375 48.484375 30.078125 48.484375 
Q 22.859375 48.484375 18.828125 43.109375 
Q 14.796875 37.75 14.796875 27.984375 
Q 14.796875 18.265625 18.828125 12.890625 
Q 22.859375 7.515625 30.078125 7.515625 
Q 37.359375 7.515625 41.375 12.890625 
Q 45.40625 18.265625 45.40625 27.984375 
z
M 54.390625 6.78125 
Q 54.390625 -7.171875 48.1875 -13.984375 
Q 42 -20.796875 29.203125 -20.796875 
Q 24.46875 -20.796875 20.265625 -20.09375 
Q 16.0625 -19.390625 12.109375 -17.921875 
L 12.109375 -9.1875 
Q 16.0625 -11.328125 19.921875 -12.34375 
Q 23.78125 -13.375 27.78125 -13.375 
Q 36.625 -13.375 41.015625 -8.765625 
Q 45.40625 -4.15625 45.40625 5.171875 
L 45.40625 9.625 
Q 42.625 4.78125 38.28125 2.390625 
Q 33.9375 0 27.875 0 
Q 17.828125 0 11.671875 7.65625 
Q 5.515625 15.328125 5.515625 27.984375 
Q 5.515625 40.671875 11.671875 48.328125 
Q 17.828125 56 27.875 56 
Q 33.9375 56 38.28125 53.609375 
Q 42.625 51.21875 45.40625 46.390625 
L 45.40625 54.6875 
L 54.390625 54.6875 
z
" id="DejaVuSans-103"/>
       <path d="M 12.40625 8.296875 
L 28.515625 8.296875 
L 28.515625 63.921875 
L 10.984375 60.40625 
L 10.984375 69.390625 
L 28.421875 72.90625 
L 38.28125 72.90625 
L 38.28125 8.296875 
L 54.390625 8.296875 
L 54.390625 0 
L 12.40625 0 
z
" id="DejaVuSans-49"/>
       <path d="M 31 75.875 
Q 24.46875 64.65625 21.28125 53.65625 
Q 18.109375 42.671875 18.109375 31.390625 
Q 18.109375 20.125 21.3125 9.0625 
Q 24.515625 -2 31 -13.1875 
L 23.1875 -13.1875 
Q 15.875 -1.703125 12.234375 9.375 
Q 8.59375 20.453125 8.59375 31.390625 
Q 8.59375 42.28125 12.203125 53.3125 
Q 15.828125 64.359375 23.1875 75.875 
z
" id="DejaVuSans-40"/>
       <path d="M 51.125 44 
L 36.921875 44 
L 32.8125 27.6875 
L 47.125 27.6875 
z
M 43.796875 71.78125 
L 38.71875 51.515625 
L 52.984375 51.515625 
L 58.109375 71.78125 
L 65.921875 71.78125 
L 60.890625 51.515625 
L 76.125 51.515625 
L 76.125 44 
L 58.984375 44 
L 54.984375 27.6875 
L 70.515625 27.6875 
L 70.515625 20.21875 
L 53.078125 20.21875 
L 48 0 
L 40.1875 0 
L 45.21875 20.21875 
L 30.90625 20.21875 
L 25.875 0 
L 18.015625 0 
L 23.09375 20.21875 
L 7.71875 20.21875 
L 7.71875 27.6875 
L 24.90625 27.6875 
L 29 44 
L 13.28125 44 
L 13.28125 51.515625 
L 30.90625 51.515625 
L 35.890625 71.78125 
z
" id="DejaVuSans-35"/>
       <path id="DejaVuSans-32"/>
       <path d="M 37.109375 75.984375 
L 37.109375 68.5 
L 28.515625 68.5 
Q 23.6875 68.5 21.796875 66.546875 
Q 19.921875 64.59375 19.921875 59.515625 
L 19.921875 54.6875 
L 34.71875 54.6875 
L 34.71875 47.703125 
L 19.921875 47.703125 
L 19.921875 0 
L 10.890625 0 
L 10.890625 47.703125 
L 2.296875 47.703125 
L 2.296875 54.6875 
L 10.890625 54.6875 
L 10.890625 58.5 
Q 10.890625 67.625 15.140625 71.796875 
Q 19.390625 75.984375 28.609375 75.984375 
z
" id="DejaVuSans-102"/>
       <path d="M 4.890625 31.390625 
L 31.203125 31.390625 
L 31.203125 23.390625 
L 4.890625 23.390625 
z
" id="DejaVuSans-45"/>
       <path d="M 56.203125 29.59375 
L 56.203125 25.203125 
L 14.890625 25.203125 
Q 15.484375 15.921875 20.484375 11.0625 
Q 25.484375 6.203125 34.421875 6.203125 
Q 39.59375 6.203125 44.453125 7.46875 
Q 49.3125 8.734375 54.109375 11.28125 
L 54.109375 2.78125 
Q 49.265625 0.734375 44.1875 -0.34375 
Q 39.109375 -1.421875 33.890625 -1.421875 
Q 20.796875 -1.421875 13.15625 6.1875 
Q 5.515625 13.8125 5.515625 26.8125 
Q 5.515625 40.234375 12.765625 48.109375 
Q 20.015625 56 32.328125 56 
Q 43.359375 56 49.78125 48.890625 
Q 56.203125 41.796875 56.203125 29.59375 
z
M 47.21875 32.234375 
Q 47.125 39.59375 43.09375 43.984375 
Q 39.0625 48.390625 32.421875 48.390625 
Q 24.90625 48.390625 20.390625 44.140625 
Q 15.875 39.890625 15.1875 32.171875 
z
" id="DejaVuSans-101"/>
       <path d="M 2.984375 54.6875 
L 12.5 54.6875 
L 29.59375 8.796875 
L 46.6875 54.6875 
L 56.203125 54.6875 
L 35.6875 0 
L 23.484375 0 
z
" id="DejaVuSans-118"/>
       <path d="M 34.28125 27.484375 
Q 23.390625 27.484375 19.1875 25 
Q 14.984375 22.515625 14.984375 16.5 
Q 14.984375 11.71875 18.140625 8.90625 
Q 21.296875 6.109375 26.703125 6.109375 
Q 34.1875 6.109375 38.703125 11.40625 
Q 43.21875 16.703125 43.21875 25.484375 
L 43.21875 27.484375 
z
M 52.203125 31.203125 
L 52.203125 0 
L 43.21875 0 
L 43.21875 8.296875 
Q 40.140625 3.328125 35.546875 0.953125 
Q 30.953125 -1.421875 24.3125 -1.421875 
Q 15.921875 -1.421875 10.953125 3.296875 
Q 6 8.015625 6 15.921875 
Q 6 25.140625 12.171875 29.828125 
Q 18.359375 34.515625 30.609375 34.515625 
L 43.21875 34.515625 
L 43.21875 35.40625 
Q 43.21875 41.609375 39.140625 45 
Q 35.0625 48.390625 27.6875 48.390625 
Q 23 48.390625 18.546875 47.265625 
Q 14.109375 46.140625 10.015625 43.890625 
L 10.015625 52.203125 
Q 14.9375 54.109375 19.578125 55.046875 
Q 24.21875 56 28.609375 56 
Q 40.484375 56 46.34375 49.84375 
Q 52.203125 43.703125 52.203125 31.203125 
z
" id="DejaVuSans-97"/>
       <path d="M 44.28125 53.078125 
L 44.28125 44.578125 
Q 40.484375 46.53125 36.375 47.5 
Q 32.28125 48.484375 27.875 48.484375 
Q 21.1875 48.484375 17.84375 46.4375 
Q 14.5 44.390625 14.5 40.28125 
Q 14.5 37.15625 16.890625 35.375 
Q 19.28125 33.59375 26.515625 31.984375 
L 29.59375 31.296875 
Q 39.15625 29.25 43.1875 25.515625 
Q 47.21875 21.78125 47.21875 15.09375 
Q 47.21875 7.46875 41.1875 3.015625 
Q 35.15625 -1.421875 24.609375 -1.421875 
Q 20.21875 -1.421875 15.453125 -0.5625 
Q 10.6875 0.296875 5.421875 2 
L 5.421875 11.28125 
Q 10.40625 8.6875 15.234375 7.390625 
Q 20.0625 6.109375 24.8125 6.109375 
Q 31.15625 6.109375 34.5625 8.28125 
Q 37.984375 10.453125 37.984375 14.40625 
Q 37.984375 18.0625 35.515625 20.015625 
Q 33.0625 21.96875 24.703125 23.78125 
L 21.578125 24.515625 
Q 13.234375 26.265625 9.515625 29.90625 
Q 5.8125 33.546875 5.8125 39.890625 
Q 5.8125 47.609375 11.28125 51.796875 
Q 16.75 56 26.8125 56 
Q 31.78125 56 36.171875 55.265625 
Q 40.578125 54.546875 44.28125 53.078125 
z
" id="DejaVuSans-115"/>
       <path d="M 25.390625 72.90625 
L 33.6875 72.90625 
L 8.296875 -9.28125 
L 0 -9.28125 
z
" id="DejaVuSans-47"/>
       <path d="M 45.40625 46.390625 
L 45.40625 75.984375 
L 54.390625 75.984375 
L 54.390625 0 
L 45.40625 0 
L 45.40625 8.203125 
Q 42.578125 3.328125 38.25 0.953125 
Q 33.9375 -1.421875 27.875 -1.421875 
Q 17.96875 -1.421875 11.734375 6.484375 
Q 5.515625 14.40625 5.515625 27.296875 
Q 5.515625 40.1875 11.734375 48.09375 
Q 17.96875 56 27.875 56 
Q 33.9375 56 38.25 53.625 
Q 42.578125 51.265625 45.40625 46.390625 
z
M 14.796875 27.296875 
Q 14.796875 17.390625 18.875 11.75 
Q 22.953125 6.109375 30.078125 6.109375 
Q 37.203125 6.109375 41.296875 11.75 
Q 45.40625 17.390625 45.40625 27.296875 
Q 45.40625 37.203125 41.296875 42.84375 
Q 37.203125 48.484375 30.078125 48.484375 
Q 22.953125 48.484375 18.875 42.84375 
Q 14.796875 37.203125 14.796875 27.296875 
z
" id="DejaVuSans-100"/>
       <path d="M 9.421875 54.6875 
L 18.40625 54.6875 
L 18.40625 0 
L 9.421875 0 
z
M 9.421875 75.984375 
L 18.40625 75.984375 
L 18.40625 64.59375 
L 9.421875 64.59375 
z
" id="DejaVuSans-105"/>
       <path d="M 52 44.1875 
Q 55.375 50.25 60.0625 53.125 
Q 64.75 56 71.09375 56 
Q 79.640625 56 84.28125 50.015625 
Q 88.921875 44.046875 88.921875 33.015625 
L 88.921875 0 
L 79.890625 0 
L 79.890625 32.71875 
Q 79.890625 40.578125 77.09375 44.375 
Q 74.3125 48.1875 68.609375 48.1875 
Q 61.625 48.1875 57.5625 43.546875 
Q 53.515625 38.921875 53.515625 30.90625 
L 53.515625 0 
L 44.484375 0 
L 44.484375 32.71875 
Q 44.484375 40.625 41.703125 44.40625 
Q 38.921875 48.1875 33.109375 48.1875 
Q 26.21875 48.1875 22.15625 43.53125 
Q 18.109375 38.875 18.109375 30.90625 
L 18.109375 0 
L 9.078125 0 
L 9.078125 54.6875 
L 18.109375 54.6875 
L 18.109375 46.1875 
Q 21.1875 51.21875 25.484375 53.609375 
Q 29.78125 56 35.6875 56 
Q 41.65625 56 45.828125 52.96875 
Q 50 49.953125 52 44.1875 
z
" id="DejaVuSans-109"/>
       <path d="M 54.890625 33.015625 
L 54.890625 0 
L 45.90625 0 
L 45.90625 32.71875 
Q 45.90625 40.484375 42.875 44.328125 
Q 39.84375 48.1875 33.796875 48.1875 
Q 26.515625 48.1875 22.3125 43.546875 
Q 18.109375 38.921875 18.109375 30.90625 
L 18.109375 0 
L 9.078125 0 
L 9.078125 54.6875 
L 18.109375 54.6875 
L 18.109375 46.1875 
Q 21.34375 51.125 25.703125 53.5625 
Q 30.078125 56 35.796875 56 
Q 45.21875 56 50.046875 50.171875 
Q 54.890625 44.34375 54.890625 33.015625 
z
" id="DejaVuSans-110"/>
       <path d="M 8.015625 75.875 
L 15.828125 75.875 
Q 23.140625 64.359375 26.78125 53.3125 
Q 30.421875 42.28125 30.421875 31.390625 
Q 30.421875 20.453125 26.78125 9.375 
Q 23.140625 -1.703125 15.828125 -13.1875 
L 8.015625 -13.1875 
Q 14.5 -2 17.703125 9.0625 
Q 20.90625 20.125 20.90625 31.390625 
Q 20.90625 42.671875 17.703125 53.65625 
Q 14.5 64.65625 8.015625 75.875 
z
" id="DejaVuSans-41"/>
      </defs>
      <use xlink:href="#DejaVuSans-108"/>
      <use x="27.783203" xlink:href="#DejaVuSans-111"/>
      <use x="88.964844" xlink:href="#DejaVuSans-103"/>
      <use x="152.441406" xlink:href="#DejaVuSans-49"/>
      <use x="216.064453" xlink:href="#DejaVuSans-48"/>
      <use x="279.6875" xlink:href="#DejaVuSans-40"/>
      <use x="318.701172" xlink:href="#DejaVuSans-35"/>
      <use x="402.490234" xlink:href="#DejaVuSans-32"/>
      <use x="434.277344" xlink:href="#DejaVuSans-102"/>
      <use x="463.982422" xlink:href="#DejaVuSans-45"/>
      <use x="500.066406" xlink:href="#DejaVuSans-101"/>
      <use x="561.589844" xlink:href="#DejaVuSans-118"/>
      <use x="620.769531" xlink:href="#DejaVuSans-97"/>
      <use x="682.048828" xlink:href="#DejaVuSans-108"/>
      <use x="709.832031" xlink:href="#DejaVuSans-115"/>
      <use x="761.931641" xlink:href="#DejaVuSans-32"/>
      <use x="793.71875" xlink:href="#DejaVuSans-47"/>
      <use x="827.410156" xlink:href="#DejaVuSans-32"/>
      <use x="859.197266" xlink:href="#DejaVuSans-100"/>
      <use x="922.673828" xlink:href="#DejaVuSans-105"/>
      <use x="950.457031" xlink:href="#DejaVuSans-109"/>
      <use x="1047.869141" xlink:href="#DejaVuSans-101"/>
      <use x="1109.392578" xlink:href="#DejaVuSans-110"/>
      <use x="1172.771484" xlink:href="#DejaVuSans-115"/>
      <use x="1224.871094" xlink:href="#DejaVuSans-105"/>
      <use x="1252.654297" xlink:href="#DejaVuSans-111"/>
      <use x="1313.835938" xlink:href="#DejaVuSans-110"/>
      <use x="1377.214844" xlink:href="#DejaVuSans-41"/>
     </g>
    </g>
   </g>
   <g id="matplotlib.axis_2">
    <g id="ytick_1">
     <g id="line2d_21">
      <path clip-path="url(#p35747eb534)" d="M 57.6 298.944 
L 338.688 298.944 
" style="fill:none;stroke:#b0b0b0;stroke-linecap:square;stroke-width:0.8;"/>
     </g>
     <g id="line2d_22">
      <defs>
       <path d="M 0 0 
L -3.5 0 
" id="m79cce10f1d" style="stroke:#000000;stroke-width:0.8;"/>
      </defs>
      <g>
       <use style="stroke:#000000;stroke-width:0.8;" x="57.6" xlink:href="#m79cce10f1d" y="298.944"/>
      </g>
     </g>
     <g id="text_6">
      <!-- 0.0 -->
      <g transform="translate(25.155 305.02275)scale(0.16 -0.16)">
       <defs>
        <path d="M 10.6875 12.40625 
L 21 12.40625 
L 21 0 
L 10.6875 0 
z
" id="DejaVuSans-46"/>
       </defs>
       <use xlink:href="#DejaVuSans-48"/>
       <use x="63.623047" xlink:href="#DejaVuSans-46"/>
       <use x="95.410156" xlink:href="#DejaVuSans-48"/>
      </g>
     </g>
    </g>
    <g id="ytick_2">
     <g id="line2d_23">
      <path clip-path="url(#p35747eb534)" d="M 57.6 245.22202 
L 338.688 245.22202 
" style="fill:none;stroke:#b0b0b0;stroke-linecap:square;stroke-width:0.8;"/>
     </g>
     <g id="line2d_24">
      <g>
       <use style="stroke:#000000;stroke-width:0.8;" x="57.6" xlink:href="#m79cce10f1d" y="245.22202"/>
      </g>
     </g>
     <g id="text_7">
      <!-- 0.2 -->
      <g transform="translate(25.155 251.30077)scale(0.16 -0.16)">
       <use xlink:href="#DejaVuSans-48"/>
       <use x="63.623047" xlink:href="#DejaVuSans-46"/>
       <use x="95.410156" xlink:href="#DejaVuSans-50"/>
      </g>
     </g>
    </g>
    <g id="ytick_3">
     <g id="line2d_25">
      <path clip-path="url(#p35747eb534)" d="M 57.6 191.50004 
L 338.688 191.50004 
" style="fill:none;stroke:#b0b0b0;stroke-linecap:square;stroke-width:0.8;"/>
     </g>
     <g id="line2d_26">
      <g>
       <use style="stroke:#000000;stroke-width:0.8;" x="57.6" xlink:href="#m79cce10f1d" y="191.50004"/>
      </g>
     </g>
     <g id="text_8">
      <!-- 0.4 -->
      <g transform="translate(25.155 197.57879)scale(0.16 -0.16)">
       <use xlink:href="#DejaVuSans-48"/>
       <use x="63.623047" xlink:href="#DejaVuSans-46"/>
       <use x="95.410156" xlink:href="#DejaVuSans-52"/>
      </g>
     </g>
    </g>
    <g id="ytick_4">
     <g id="line2d_27">
      <path clip-path="url(#p35747eb534)" d="M 57.6 137.778059 
L 338.688 137.778059 
" style="fill:none;stroke:#b0b0b0;stroke-linecap:square;stroke-width:0.8;"/>
     </g>
     <g id="line2d_28">
      <g>
       <use style="stroke:#000000;stroke-width:0.8;" x="57.6" xlink:href="#m79cce10f1d" y="137.778059"/>
      </g>
     </g>
     <g id="text_9">
      <!-- 0.6 -->
      <g transform="translate(25.155 143.856809)scale(0.16 -0.16)">
       <use xlink:href="#DejaVuSans-48"/>
       <use x="63.623047" xlink:href="#DejaVuSans-46"/>
       <use x="95.410156" xlink:href="#DejaVuSans-54"/>
      </g>
     </g>
    </g>
    <g id="ytick_5">
     <g id="line2d_29">
      <path clip-path="url(#p35747eb534)" d="M 57.6 84.056079 
L 338.688 84.056079 
" style="fill:none;stroke:#b0b0b0;stroke-linecap:square;stroke-width:0.8;"/>
     </g>
     <g id="line2d_30">
      <g>
       <use style="stroke:#000000;stroke-width:0.8;" x="57.6" xlink:href="#m79cce10f1d" y="84.056079"/>
      </g>
     </g>
     <g id="text_10">
      <!-- 0.8 -->
      <g transform="translate(25.155 90.134829)scale(0.16 -0.16)">
       <defs>
        <path d="M 31.78125 34.625 
Q 24.75 34.625 20.71875 30.859375 
Q 16.703125 27.09375 16.703125 20.515625 
Q 16.703125 13.921875 20.71875 10.15625 
Q 24.75 6.390625 31.78125 6.390625 
Q 38.8125 6.390625 42.859375 10.171875 
Q 46.921875 13.96875 46.921875 20.515625 
Q 46.921875 27.09375 42.890625 30.859375 
Q 38.875 34.625 31.78125 34.625 
z
M 21.921875 38.8125 
Q 15.578125 40.375 12.03125 44.71875 
Q 8.5 49.078125 8.5 55.328125 
Q 8.5 64.0625 14.71875 69.140625 
Q 20.953125 74.21875 31.78125 74.21875 
Q 42.671875 74.21875 48.875 69.140625 
Q 55.078125 64.0625 55.078125 55.328125 
Q 55.078125 49.078125 51.53125 44.71875 
Q 48 40.375 41.703125 38.8125 
Q 48.828125 37.15625 52.796875 32.3125 
Q 56.78125 27.484375 56.78125 20.515625 
Q 56.78125 9.90625 50.3125 4.234375 
Q 43.84375 -1.421875 31.78125 -1.421875 
Q 19.734375 -1.421875 13.25 4.234375 
Q 6.78125 9.90625 6.78125 20.515625 
Q 6.78125 27.484375 10.78125 32.3125 
Q 14.796875 37.15625 21.921875 38.8125 
z
M 18.3125 54.390625 
Q 18.3125 48.734375 21.84375 45.5625 
Q 25.390625 42.390625 31.78125 42.390625 
Q 38.140625 42.390625 41.71875 45.5625 
Q 45.3125 48.734375 45.3125 54.390625 
Q 45.3125 60.0625 41.71875 63.234375 
Q 38.140625 66.40625 31.78125 66.40625 
Q 25.390625 66.40625 21.84375 63.234375 
Q 18.3125 60.0625 18.3125 54.390625 
z
" id="DejaVuSans-56"/>
       </defs>
       <use xlink:href="#DejaVuSans-48"/>
       <use x="63.623047" xlink:href="#DejaVuSans-46"/>
       <use x="95.410156" xlink:href="#DejaVuSans-56"/>
      </g>
     </g>
    </g>
    <g id="ytick_6">
     <g id="line2d_31">
      <path clip-path="url(#p35747eb534)" d="M 57.6 30.334099 
L 338.688 30.334099 
" style="fill:none;stroke:#b0b0b0;stroke-linecap:square;stroke-width:0.8;"/>
     </g>
     <g id="line2d_32">
      <g>
       <use style="stroke:#000000;stroke-width:0.8;" x="57.6" xlink:href="#m79cce10f1d" y="30.334099"/>
      </g>
     </g>
     <g id="text_11">
      <!-- 1.0 -->
      <g transform="translate(25.155 36.412849)scale(0.16 -0.16)">
       <use xlink:href="#DejaVuSans-49"/>
       <use x="63.623047" xlink:href="#DejaVuSans-46"/>
       <use x="95.410156" xlink:href="#DejaVuSans-48"/>
      </g>
     </g>
    </g>
    <g id="text_12">
     <!-- Fraction of function,target pairs -->
     <g transform="translate(17.619531 297.681)rotate(-90)scale(0.17 -0.17)">
      <defs>
       <path d="M 9.8125 72.90625 
L 51.703125 72.90625 
L 51.703125 64.59375 
L 19.671875 64.59375 
L 19.671875 43.109375 
L 48.578125 43.109375 
L 48.578125 34.8125 
L 19.671875 34.8125 
L 19.671875 0 
L 9.8125 0 
z
" id="DejaVuSans-70"/>
       <path d="M 41.109375 46.296875 
Q 39.59375 47.171875 37.8125 47.578125 
Q 36.03125 48 33.890625 48 
Q 26.265625 48 22.1875 43.046875 
Q 18.109375 38.09375 18.109375 28.8125 
L 18.109375 0 
L 9.078125 0 
L 9.078125 54.6875 
L 18.109375 54.6875 
L 18.109375 46.1875 
Q 20.953125 51.171875 25.484375 53.578125 
Q 30.03125 56 36.53125 56 
Q 37.453125 56 38.578125 55.875 
Q 39.703125 55.765625 41.0625 55.515625 
z
" id="DejaVuSans-114"/>
       <path d="M 48.78125 52.59375 
L 48.78125 44.1875 
Q 44.96875 46.296875 41.140625 47.34375 
Q 37.3125 48.390625 33.40625 48.390625 
Q 24.65625 48.390625 19.8125 42.84375 
Q 14.984375 37.3125 14.984375 27.296875 
Q 14.984375 17.28125 19.8125 11.734375 
Q 24.65625 6.203125 33.40625 6.203125 
Q 37.3125 6.203125 41.140625 7.25 
Q 44.96875 8.296875 48.78125 10.40625 
L 48.78125 2.09375 
Q 45.015625 0.34375 40.984375 -0.53125 
Q 36.96875 -1.421875 32.421875 -1.421875 
Q 20.0625 -1.421875 12.78125 6.34375 
Q 5.515625 14.109375 5.515625 27.296875 
Q 5.515625 40.671875 12.859375 48.328125 
Q 20.21875 56 33.015625 56 
Q 37.15625 56 41.109375 55.140625 
Q 45.0625 54.296875 48.78125 52.59375 
z
" id="DejaVuSans-99"/>
       <path d="M 18.3125 70.21875 
L 18.3125 54.6875 
L 36.8125 54.6875 
L 36.8125 47.703125 
L 18.3125 47.703125 
L 18.3125 18.015625 
Q 18.3125 11.328125 20.140625 9.421875 
Q 21.96875 7.515625 27.59375 7.515625 
L 36.8125 7.515625 
L 36.8125 0 
L 27.59375 0 
Q 17.1875 0 13.234375 3.875 
Q 9.28125 7.765625 9.28125 18.015625 
L 9.28125 47.703125 
L 2.6875 47.703125 
L 2.6875 54.6875 
L 9.28125 54.6875 
L 9.28125 70.21875 
z
" id="DejaVuSans-116"/>
       <path d="M 8.5 21.578125 
L 8.5 54.6875 
L 17.484375 54.6875 
L 17.484375 21.921875 
Q 17.484375 14.15625 20.5 10.265625 
Q 23.53125 6.390625 29.59375 6.390625 
Q 36.859375 6.390625 41.078125 11.03125 
Q 45.3125 15.671875 45.3125 23.6875 
L 45.3125 54.6875 
L 54.296875 54.6875 
L 54.296875 0 
L 45.3125 0 
L 45.3125 8.40625 
Q 42.046875 3.421875 37.71875 1 
Q 33.40625 -1.421875 27.6875 -1.421875 
Q 18.265625 -1.421875 13.375 4.4375 
Q 8.5 10.296875 8.5 21.578125 
z
M 31.109375 56 
z
" id="DejaVuSans-117"/>
       <path d="M 11.71875 12.40625 
L 22.015625 12.40625 
L 22.015625 4 
L 14.015625 -11.625 
L 7.71875 -11.625 
L 11.71875 4 
z
" id="DejaVuSans-44"/>
       <path d="M 18.109375 8.203125 
L 18.109375 -20.796875 
L 9.078125 -20.796875 
L 9.078125 54.6875 
L 18.109375 54.6875 
L 18.109375 46.390625 
Q 20.953125 51.265625 25.265625 53.625 
Q 29.59375 56 35.59375 56 
Q 45.5625 56 51.78125 48.09375 
Q 58.015625 40.1875 58.015625 27.296875 
Q 58.015625 14.40625 51.78125 6.484375 
Q 45.5625 -1.421875 35.59375 -1.421875 
Q 29.59375 -1.421875 25.265625 0.953125 
Q 20.953125 3.328125 18.109375 8.203125 
z
M 48.6875 27.296875 
Q 48.6875 37.203125 44.609375 42.84375 
Q 40.53125 48.484375 33.40625 48.484375 
Q 26.265625 48.484375 22.1875 42.84375 
Q 18.109375 37.203125 18.109375 27.296875 
Q 18.109375 17.390625 22.1875 11.75 
Q 26.265625 6.109375 33.40625 6.109375 
Q 40.53125 6.109375 44.609375 11.75 
Q 48.6875 17.390625 48.6875 27.296875 
z
" id="DejaVuSans-112"/>
      </defs>
      <use xlink:href="#DejaVuSans-70"/>
      <use x="50.269531" xlink:href="#DejaVuSans-114"/>
      <use x="91.382812" xlink:href="#DejaVuSans-97"/>
      <use x="152.662109" xlink:href="#DejaVuSans-99"/>
      <use x="207.642578" xlink:href="#DejaVuSans-116"/>
      <use x="246.851562" xlink:href="#DejaVuSans-105"/>
      <use x="274.634766" xlink:href="#DejaVuSans-111"/>
      <use x="335.816406" xlink:href="#DejaVuSans-110"/>
      <use x="399.195312" xlink:href="#DejaVuSans-32"/>
      <use x="430.982422" xlink:href="#DejaVuSans-111"/>
      <use x="492.164062" xlink:href="#DejaVuSans-102"/>
      <use x="527.369141" xlink:href="#DejaVuSans-32"/>
      <use x="559.15625" xlink:href="#DejaVuSans-102"/>
      <use x="594.361328" xlink:href="#DejaVuSans-117"/>
      <use x="657.740234" xlink:href="#DejaVuSans-110"/>
      <use x="721.119141" xlink:href="#DejaVuSans-99"/>
      <use x="776.099609" xlink:href="#DejaVuSans-116"/>
      <use x="815.308594" xlink:href="#DejaVuSans-105"/>
      <use x="843.091797" xlink:href="#DejaVuSans-111"/>
      <use x="904.273438" xlink:href="#DejaVuSans-110"/>
      <use x="967.652344" xlink:href="#DejaVuSans-44"/>
      <use x="999.439453" xlink:href="#DejaVuSans-116"/>
      <use x="1038.648438" xlink:href="#DejaVuSans-97"/>
      <use x="1099.927734" xlink:href="#DejaVuSans-114"/>
      <use x="1139.291016" xlink:href="#DejaVuSans-103"/>
      <use x="1202.767578" xlink:href="#DejaVuSans-101"/>
      <use x="1264.291016" xlink:href="#DejaVuSans-116"/>
      <use x="1303.5" xlink:href="#DejaVuSans-32"/>
      <use x="1335.287109" xlink:href="#DejaVuSans-112"/>
      <use x="1398.763672" xlink:href="#DejaVuSans-97"/>
      <use x="1460.042969" xlink:href="#DejaVuSans-105"/>
      <use x="1487.826172" xlink:href="#DejaVuSans-114"/>
      <use x="1528.939453" xlink:href="#DejaVuSans-115"/>
     </g>
    </g>
   </g>
   <g id="line2d_33">
    <defs>
     <path d="M 0 1.5 
C 0.397805 1.5 0.77937 1.341951 1.06066 1.06066 
C 1.341951 0.77937 1.5 0.397805 1.5 0 
C 1.5 -0.397805 1.341951 -0.77937 1.06066 -1.06066 
C 0.77937 -1.341951 0.397805 -1.5 0 -1.5 
C -0.397805 -1.5 -0.77937 -1.341951 -1.06066 -1.06066 
C -1.341951 -0.77937 -1.5 -0.397805 -1.5 0 
C -1.5 0.397805 -1.341951 0.77937 -1.06066 1.06066 
C -0.77937 1.341951 -0.397805 1.5 0 1.5 
z
" id="m89316efdf4" style="stroke:#f5deb3;"/>
    </defs>
    <g>
     <use style="fill:#f5deb3;stroke:#f5deb3;" x="193.700533" xlink:href="#m89316efdf4" y="30.334099"/>
     <use style="fill:#f5deb3;stroke:#f5deb3;" x="193.700533" xlink:href="#m89316efdf4" y="30.334099"/>
    </g>
   </g>
   <g id="line2d_34">
    <defs>
     <path d="M 0 1.5 
C 0.397805 1.5 0.77937 1.341951 1.06066 1.06066 
C 1.341951 0.77937 1.5 0.397805 1.5 0 
C 1.5 -0.397805 1.341951 -0.77937 1.06066 -1.06066 
C 0.77937 -1.341951 0.397805 -1.5 0 -1.5 
C -0.397805 -1.5 -0.77937 -1.341951 -1.06066 -1.06066 
C -1.341951 -0.77937 -1.5 -0.397805 -1.5 0 
C -1.5 0.397805 -1.341951 0.77937 -1.06066 1.06066 
C -0.77937 1.341951 -0.397805 1.5 0 1.5 
z
" id="m04905f01d6" style="stroke:#000080;"/>
    </defs>
    <g>
     <use style="fill:#000080;stroke:#000080;" x="298.006839" xlink:href="#m04905f01d6" y="30.334099"/>
     <use style="fill:#000080;stroke:#000080;" x="298.006839" xlink:href="#m04905f01d6" y="30.334099"/>
    </g>
   </g>
   <g id="line2d_35">
    <path d="M 29.53256 298.944 
L 29.53256 291.570395 
L 41.620548 291.570395 
L 41.620548 289.463651 
L 48.691568 289.463651 
L 48.691568 286.303534 
L 53.708537 286.303534 
L 53.708537 285.250162 
L 60.779557 285.250162 
L 60.779557 284.723476 
L 65.796525 284.723476 
L 65.796525 283.143418 
L 67.850577 283.143418 
L 67.850577 282.616732 
L 72.867545 282.616732 
L 72.867545 282.090045 
L 85.66744 282.090045 
L 85.66744 281.563359 
L 88.255778 281.563359 
L 88.255778 281.036673 
L 88.846997 281.036673 
L 88.846997 280.509987 
L 91.535274 280.509987 
L 91.535274 279.983301 
L 95.918017 279.983301 
L 95.918017 279.456615 
L 96.676366 279.456615 
L 96.676366 278.929929 
L 98.43941 278.929929 
L 98.43941 278.403243 
L 98.771596 278.403243 
L 98.771596 277.876557 
L 100.040467 277.876557 
L 100.040467 277.349871 
L 108.389302 277.349871 
L 108.389302 276.823185 
L 108.577836 276.823185 
L 108.577836 275.769812 
L 109.131511 275.769812 
L 109.131511 275.243126 
L 112.877038 275.243126 
L 112.877038 274.71644 
L 116.202531 274.71644 
L 116.202531 273.136382 
L 116.443076 273.136382 
L 116.443076 272.609696 
L 118.148599 272.609696 
L 118.148599 272.08301 
L 119.602714 272.08301 
L 119.602714 271.556324 
L 119.996839 271.556324 
L 119.996839 271.029638 
L 120.190611 271.029638 
L 120.190611 270.502952 
L 121.036887 270.502952 
L 121.036887 269.976266 
L 121.667835 269.976266 
L 121.667835 269.449579 
L 124.669438 269.449579 
L 124.669438 268.922893 
L 126.439646 268.922893 
L 126.439646 268.396207 
L 127.229484 268.396207 
L 127.229484 267.869521 
L 127.985095 267.869521 
L 127.985095 267.342835 
L 128.590686 267.342835 
L 128.590686 266.816149 
L 130.127931 266.816149 
L 130.127931 266.289463 
L 131.030622 266.289463 
L 131.030622 265.762777 
L 131.888878 265.762777 
L 131.987128 264.709405 
L 132.374684 264.709405 
L 132.470242 263.656033 
L 132.80063 263.656033 
L 132.80063 263.129347 
L 133.032848 263.129347 
L 133.124876 262.075974 
L 133.533096 262.075974 
L 133.533096 261.549288 
L 133.711505 261.549288 
L 133.711505 261.022602 
L 134.321942 261.022602 
L 134.321942 260.495916 
L 134.828688 260.495916 
L 134.828688 259.442544 
L 135.240011 259.442544 
L 135.321124 257.3358 
L 135.482227 257.3358 
L 135.482227 256.809114 
L 135.602085 256.809114 
L 135.602085 256.282427 
L 136.034648 256.282427 
L 136.034648 255.229055 
L 136.150782 255.229055 
L 136.150782 254.702369 
L 136.380754 254.702369 
L 136.380754 254.175683 
L 137.451437 254.175683 
L 137.451437 253.648997 
L 137.594091 253.648997 
L 137.594091 253.122311 
L 137.770782 253.122311 
L 137.770782 252.595625 
L 138.493936 252.595625 
L 138.493936 252.068939 
L 138.628343 252.068939 
L 138.728473 251.015567 
L 139.477614 251.015567 
L 139.477614 250.488881 
L 139.980403 250.488881 
L 139.980403 249.962195 
L 140.134598 249.962195 
L 140.134598 248.908822 
L 140.317849 248.908822 
L 140.317849 247.85545 
L 140.738093 247.85545 
L 140.79731 246.802078 
L 141.549369 246.802078 
L 141.577657 245.748706 
L 141.746425 245.748706 
L 141.774395 244.695334 
L 142.351634 244.695334 
L 142.351634 244.168648 
L 142.831645 244.168648 
L 142.831645 243.115275 
L 143.47714 243.115275 
L 143.47714 242.588589 
L 143.628567 242.588589 
L 143.628567 242.061903 
L 143.803587 242.061903 
L 143.87806 241.008531 
L 143.952218 241.008531 
L 143.952218 240.481845 
L 144.629556 240.481845 
L 144.629556 239.428473 
L 145.02832 239.428473 
L 145.02832 238.901787 
L 145.258697 238.901787 
L 145.258697 238.375101 
L 145.440832 238.375101 
L 145.440832 237.848415 
L 145.688202 237.848415 
L 145.777292 236.795043 
L 146.019967 236.795043 
L 146.08557 235.214984 
L 146.237689 235.214984 
L 146.237689 234.688298 
L 146.538004 234.688298 
L 146.60169 233.634926 
L 146.937474 233.634926 
L 147.02042 231.528182 
L 147.590249 231.528182 
L 147.590249 230.47481 
L 147.70997 230.47481 
L 147.70997 229.948123 
L 147.907696 229.948123 
L 147.927346 228.368065 
L 148.1808 228.368065 
L 148.1808 227.841379 
L 148.525764 227.841379 
L 148.525764 227.314693 
L 148.938326 227.314693 
L 148.956849 226.261321 
L 149.085961 226.261321 
L 149.085961 225.734635 
L 149.214124 225.734635 
L 149.214124 225.207949 
L 150.463462 225.207949 
L 150.463462 224.681263 
L 150.749772 224.681263 
L 150.749772 224.154577 
L 151.324836 224.154577 
L 151.324836 223.101204 
L 152.130233 223.101204 
L 152.145659 222.047832 
L 152.466496 222.047832 
L 152.466496 220.99446 
L 153.337534 220.99446 
L 153.337534 220.467774 
L 154.262987 220.467774 
L 154.262987 219.941088 
L 155.076745 219.941088 
L 155.076745 219.414402 
L 155.322646 219.414402 
L 155.322646 218.887716 
L 155.82927 218.887716 
L 155.82927 218.36103 
L 156.027868 218.36103 
L 156.027868 217.834344 
L 162.68677 217.834344 
L 162.68677 217.307658 
L 218.289943 217.307658 
L 218.40042 213.620855 
L 218.421466 213.620855 
L 218.52906 200.453703 
L 218.535228 200.453703 
L 218.641103 192.553412 
L 218.64689 192.553412 
L 218.709748 188.866609 
L 230.379842 188.866609 
L 230.489272 176.752829 
L 230.506351 176.752829 
L 230.566944 168.852538 
L 237.439221 168.852538 
L 237.541007 157.265444 
L 242.439669 157.265444 
L 242.522371 143.571606 
L 246.321422 143.571606 
L 246.388415 134.091257 
L 249.517763 134.091257 
L 249.549269 126.717652 
L 252.203315 126.717652 
L 252.226557 121.450791 
L 254.525353 121.450791 
L 254.547957 116.710616 
L 256.568192 116.710616 
L 256.593246 109.337011 
L 258.407705 109.337011 
L 258.428235 103.543464 
L 260.069475 103.543464 
L 260.083587 96.169859 
L 261.582462 96.169859 
L 261.598301 90.902998 
L 262.976208 90.902998 
L 262.988796 85.636137 
L 264.267111 85.636137 
L 264.279522 82.476021 
L 265.474488 82.476021 
L 265.480686 79.315904 
L 266.593777 79.315904 
L 266.605488 74.049044 
L 267.647816 74.049044 
L 267.661031 69.835555 
L 268.645208 69.835555 
L 268.65678 67.728811 
L 269.587769 67.728811 
L 269.596478 64.568694 
L 270.481604 64.568694 
L 270.486394 61.935264 
L 271.336779 61.935264 
L 271.336779 61.408578 
L 272.142058 61.408578 
L 272.150055 59.301833 
L 272.916319 59.301833 
L 272.923651 57.721775 
L 273.661886 57.721775 
L 273.661945 56.668403 
L 274.369746 56.668403 
L 274.37344 54.561659 
L 275.053811 54.561659 
L 275.060016 52.454914 
L 275.711304 52.454914 
L 275.714505 50.874856 
L 276.347733 50.874856 
L 276.351242 48.241426 
L 276.956126 48.241426 
L 276.960188 45.081309 
L 277.54753 45.081309 
L 277.553756 44.027937 
L 278.119983 44.027937 
L 278.120433 42.974565 
L 278.673424 42.974565 
L 278.673424 42.447879 
L 279.729859 42.447879 
L 279.729859 41.921193 
L 280.234122 41.921193 
L 280.238683 40.867821 
L 281.206125 40.867821 
L 281.206125 40.341135 
L 282.123155 40.341135 
L 282.123155 39.814448 
L 283.41296 39.814448 
L 283.413939 38.761076 
L 283.825084 38.761076 
L 283.825571 37.707704 
L 284.615835 37.707704 
L 284.615835 37.181018 
L 285.000102 37.181018 
L 285.000602 35.60096 
L 286.102203 35.60096 
L 286.102203 35.074274 
L 286.451704 35.074274 
L 286.451704 34.547588 
L 286.799396 34.547588 
L 286.799396 34.020902 
L 287.468903 34.020902 
L 287.468903 33.494215 
L 288.73703 33.494215 
L 288.73703 32.967529 
L 289.918522 32.967529 
L 289.918522 32.440843 
L 292.319715 32.440843 
L 292.319715 31.914157 
L 292.568033 31.914157 
L 292.568033 31.387471 
L 295.908504 31.387471 
L 295.908504 30.860785 
L 298.006839 30.860785 
L 298.006839 30.334099 
L 338.688 30.334099 
L 338.688 30.334099 
" style="fill:none;stroke:#000080;stroke-linecap:square;stroke-width:1.5;"/>
   </g>
   <g id="line2d_36">
    <defs>
     <path d="M 0 6 
C 1.591219 6 3.117479 5.367802 4.242641 4.242641 
C 5.367802 3.117479 6 1.591219 6 0 
C 6 -1.591219 5.367802 -3.117479 4.242641 -4.242641 
C 3.117479 -5.367802 1.591219 -6 0 -6 
C -1.591219 -6 -3.117479 -5.367802 -4.242641 -4.242641 
C -5.367802 -3.117479 -6 -1.591219 -6 0 
C -6 1.591219 -5.367802 3.117479 -4.242641 4.242641 
C -3.117479 5.367802 -1.591219 6 0 6 
z
" id="me3fabbeb74" style="stroke:#000080;stroke-width:1.5;"/>
    </defs>
    <g>
     <use style="fill-opacity:0;stroke:#000080;stroke-width:1.5;" x="72.867545" xlink:href="#me3fabbeb74" y="282.090045"/>
     <use style="fill-opacity:0;stroke:#000080;stroke-width:1.5;" x="146.237689" xlink:href="#me3fabbeb74" y="234.688298"/>
     <use style="fill-opacity:0;stroke:#000080;stroke-width:1.5;" x="230.385052" xlink:href="#me3fabbeb74" y="188.339923"/>
     <use style="fill-opacity:0;stroke:#000080;stroke-width:1.5;" x="264.279522" xlink:href="#me3fabbeb74" y="82.476021"/>
     <use style="fill-opacity:0;stroke:#000080;stroke-width:1.5;" x="298.006839" xlink:href="#me3fabbeb74" y="30.334099"/>
     <use style="fill-opacity:0;stroke:#000080;stroke-width:1.5;" x="338.688" xlink:href="#me3fabbeb74" y="30.334099"/>
    </g>
   </g>
   <g id="line2d_37">
    <path style="fill:none;stroke:#000080;stroke-linecap:square;stroke-width:1.5;"/>
    <g/>
   </g>
   <g id="line2d_38">
    <path clip-path="url(#p35747eb534)" d="M 218.222412 217.307658 
" style="fill:none;stroke:#000080;stroke-linecap:square;stroke-width:1.5;"/>
    <defs>
     <path d="M -12 12 
L 12 -12 
M -12 -12 
L 12 12 
" id="mf603470ce8" style="stroke:#000080;"/>
    </defs>
    <g clip-path="url(#p35747eb534)">
     <use style="fill:#000080;stroke:#000080;" x="218.222412" xlink:href="#mf603470ce8" y="217.307658"/>
    </g>
   </g>
   <g id="line2d_39">
    <defs>
     <path d="M 0 1.5 
C 0.397805 1.5 0.77937 1.341951 1.06066 1.06066 
C 1.341951 0.77937 1.5 0.397805 1.5 0 
C 1.5 -0.397805 1.341951 -0.77937 1.06066 -1.06066 
C 0.77937 -1.341951 0.397805 -1.5 0 -1.5 
C -0.397805 -1.5 -0.77937 -1.341951 -1.06066 -1.06066 
C -1.341951 -0.77937 -1.5 -0.397805 -1.5 0 
C -1.5 0.397805 -1.341951 0.77937 -1.06066 1.06066 
C -0.77937 1.341951 -0.397805 1.5 0 1.5 
z
" id="m6eca45a389" style="stroke:#ff00ff;"/>
    </defs>
    <g>
     <use style="fill:#ff00ff;stroke:#ff00ff;" x="288.855767" xlink:href="#m6eca45a389" y="46.134681"/>
     <use style="fill:#ff00ff;stroke:#ff00ff;" x="288.855767" xlink:href="#m6eca45a389" y="46.134681"/>
    </g>
   </g>
   <g id="line2d_40">
    <path d="M 29.53256 298.944 
L 29.53256 292.623767 
L 41.620548 292.623767 
L 41.620548 288.410278 
L 48.691568 288.410278 
L 48.691568 287.883592 
L 53.708537 287.883592 
L 53.708537 286.303534 
L 57.6 286.303534 
L 57.6 285.250162 
L 60.779557 285.250162 
L 60.779557 283.143418 
L 67.850577 283.143418 
L 67.850577 282.616732 
L 69.687988 282.616732 
L 69.687988 281.563359 
L 72.867545 281.563359 
L 72.867545 280.509987 
L 76.759008 280.509987 
L 76.759008 279.983301 
L 79.938565 279.983301 
L 79.938565 278.403243 
L 84.213325 278.403243 
L 84.213325 277.876557 
L 86.351421 277.876557 
L 86.351421 277.349871 
L 89.418828 277.349871 
L 89.418828 276.823185 
L 91.029752 276.823185 
L 91.029752 276.296499 
L 93.863965 276.296499 
L 93.863965 275.769812 
L 97.755429 275.769812 
L 97.755429 274.189754 
L 100.934985 274.189754 
L 100.934985 273.663068 
L 107.811151 273.663068 
L 107.811151 273.136382 
L 111.023335 273.136382 
L 111.023335 272.609696 
L 118.148599 272.609696 
L 118.148599 271.556324 
L 119.89914 271.556324 
L 119.89914 271.029638 
L 122.865118 271.029638 
L 122.865118 270.502952 
L 124.669438 270.502952 
L 124.669438 269.976266 
L 125.961828 269.976266 
L 125.961828 269.449579 
L 128.107907 269.449579 
L 128.107907 268.922893 
L 130.45189 268.922893 
L 130.45189 268.396207 
L 131.082294 268.396207 
L 131.082294 267.869521 
L 131.287464 267.869521 
L 131.287464 267.342835 
L 132.753813 267.342835 
L 132.753813 266.289463 
L 133.307488 266.289463 
L 133.307488 265.762777 
L 133.443203 265.762777 
L 133.443203 265.236091 
L 134.106373 265.236091 
L 134.106373 264.709405 
L 139.509467 264.709405 
L 139.509467 264.182719 
L 142.539878 264.182719 
L 142.539878 263.656033 
L 143.066785 263.656033 
L 143.066785 263.129347 
L 144.245733 263.129347 
L 144.245733 262.60266 
L 144.700592 262.60266 
L 144.700592 262.075974 
L 145.843812 262.075974 
L 145.843812 261.549288 
L 146.216039 261.549288 
L 146.216039 261.022602 
L 146.495417 261.022602 
L 146.495417 260.495916 
L 147.041095 260.495916 
L 147.041095 259.96923 
L 149.341352 259.96923 
L 149.341352 258.915858 
L 150.899466 258.915858 
L 150.899466 258.389172 
L 152.840905 258.389172 
L 152.840905 257.862486 
L 154.614488 257.862486 
L 154.614488 257.3358 
L 157.9318 257.3358 
L 157.9318 256.282427 
L 159.242359 256.282427 
L 159.324282 255.229055 
L 160.200913 255.229055 
L 160.200913 254.702369 
L 160.858717 254.702369 
L 160.858717 254.175683 
L 161.627414 254.175683 
L 161.627414 253.648997 
L 161.858637 253.648997 
L 161.858637 252.595625 
L 162.737246 252.595625 
L 162.737246 252.068939 
L 163.637643 252.068939 
L 163.637643 251.542253 
L 163.812276 251.542253 
L 163.812276 251.015567 
L 164.047627 251.015567 
L 164.047627 250.488881 
L 164.264459 250.488881 
L 164.264459 249.962195 
L 164.425332 249.962195 
L 164.425332 249.435508 
L 164.645079 249.435508 
L 164.645079 248.908822 
L 166.65557 248.908822 
L 166.715855 247.85545 
L 167.525915 247.85545 
L 167.525915 247.328764 
L 167.854729 247.328764 
L 167.854729 246.802078 
L 168.77585 246.802078 
L 168.77585 246.275392 
L 169.400311 246.275392 
L 169.400311 245.748706 
L 169.599814 245.748706 
L 169.599814 245.22202 
L 171.03533 245.22202 
L 171.03533 244.695334 
L 171.781236 244.695334 
L 171.781236 244.168648 
L 171.935589 244.168648 
L 171.950454 243.115275 
L 173.063263 243.115275 
L 173.063263 242.588589 
L 174.065485 242.588589 
L 174.065485 242.061903 
L 174.498781 242.061903 
L 174.498781 241.535217 
L 174.925749 241.535217 
L 175.017382 240.481845 
L 175.581438 240.481845 
L 175.617599 239.428473 
L 176.09661 239.428473 
L 176.09661 238.901787 
L 176.482793 238.901787 
L 176.482793 238.375101 
L 176.661386 238.375101 
L 176.661386 237.848415 
L 177.32165 237.848415 
L 177.423274 236.795043 
L 177.855749 236.795043 
L 177.954316 235.74167 
L 178.153265 235.74167 
L 178.153265 235.214984 
L 178.534298 235.214984 
L 178.534298 234.688298 
L 179.889391 234.688298 
L 179.889391 234.161612 
L 180.095517 234.161612 
L 180.191499 233.10824 
L 180.558141 233.10824 
L 180.558141 232.581554 
L 180.777468 232.581554 
L 180.789406 231.001496 
L 181.117483 231.001496 
L 181.117483 230.47481 
L 181.465353 230.47481 
L 181.465353 229.421437 
L 181.716118 229.421437 
L 181.716118 228.894751 
L 181.831732 228.894751 
L 181.831732 228.368065 
L 182.770039 228.368065 
L 182.770039 227.841379 
L 183.43629 227.841379 
L 183.530881 226.788007 
L 185.100062 226.788007 
L 185.100062 226.261321 
L 186.102947 226.261321 
L 186.102947 225.734635 
L 187.022088 225.734635 
L 187.094982 224.154577 
L 187.465125 224.154577 
L 187.465125 223.101204 
L 188.35944 223.101204 
L 188.35944 222.574518 
L 188.777705 222.574518 
L 188.777705 222.047832 
L 189.653624 222.047832 
L 189.653624 221.521146 
L 189.968431 221.521146 
L 189.968431 220.99446 
L 190.183896 220.99446 
L 190.183896 219.414402 
L 190.317438 219.414402 
L 190.317438 218.887716 
L 190.607 218.887716 
L 190.607 218.36103 
L 190.829869 218.36103 
L 190.829869 217.834344 
L 191.296666 217.834344 
L 191.296666 217.307658 
L 191.639543 217.307658 
L 191.639543 216.780971 
L 191.859168 216.780971 
L 191.859168 216.254285 
L 192.324202 216.254285 
L 192.324202 215.727599 
L 192.754635 215.727599 
L 192.754635 215.200913 
L 193.031857 215.200913 
L 193.031857 214.674227 
L 194.037364 214.674227 
L 194.037364 214.147541 
L 194.311568 214.147541 
L 194.311568 213.620855 
L 194.45116 213.620855 
L 194.45116 213.094169 
L 195.634161 213.094169 
L 195.634161 212.567483 
L 195.945957 212.567483 
L 196.054465 211.514111 
L 196.865854 211.514111 
L 196.925095 210.460738 
L 197.040626 210.460738 
L 197.040626 209.934052 
L 197.297228 209.934052 
L 197.35387 208.88068 
L 197.473483 208.88068 
L 197.473483 208.353994 
L 197.809497 208.353994 
L 197.809497 206.773936 
L 199.00856 206.773936 
L 199.11112 205.720564 
L 199.264871 205.720564 
L 199.264871 204.140506 
L 200.198236 204.140506 
L 200.198236 203.613819 
L 200.538042 203.613819 
L 200.622448 202.560447 
L 202.009648 202.560447 
L 202.009648 202.033761 
L 203.668977 202.033761 
L 203.668977 201.507075 
L 206.900681 201.507075 
L 206.900681 200.980389 
L 209.195461 200.980389 
L 209.195461 200.453703 
L 210.984405 200.453703 
L 211.076595 199.400331 
L 212.081596 199.400331 
L 212.081596 198.873645 
L 213.022897 198.873645 
L 213.022897 198.346959 
L 215.978911 198.346959 
L 215.978911 197.820273 
L 216.574321 197.820273 
L 216.574321 197.293586 
L 216.733825 197.293586 
L 216.733825 196.7669 
L 217.600763 196.7669 
L 217.600763 195.713528 
L 217.956373 195.713528 
L 217.956373 195.186842 
L 219.048647 195.186842 
L 219.048647 194.660156 
L 219.539945 194.660156 
L 219.539945 194.13347 
L 219.713708 194.13347 
L 219.81746 192.553412 
L 219.86482 192.553412 
L 219.86482 192.026726 
L 220.125687 192.026726 
L 220.149749 190.446667 
L 220.367911 190.446667 
L 220.457732 188.339923 
L 220.654209 188.339923 
L 220.654209 187.813237 
L 220.927223 187.813237 
L 220.9809 186.233179 
L 221.114669 186.233179 
L 221.114669 185.706493 
L 221.416959 185.706493 
L 221.416959 185.179807 
L 221.596943 185.179807 
L 221.697248 184.126434 
L 221.782198 184.126434 
L 221.782198 183.599748 
L 221.915062 183.599748 
L 221.915062 182.546376 
L 222.063439 182.546376 
L 222.166669 181.493004 
L 222.442647 181.493004 
L 222.536311 179.38626 
L 222.728339 179.38626 
L 222.826914 177.279515 
L 222.854747 177.279515 
L 222.933722 176.226143 
L 223.250799 176.226143 
L 223.289444 174.119399 
L 223.529572 174.119399 
L 223.619382 173.066027 
L 223.788757 173.066027 
L 223.788757 172.012655 
L 224.260608 172.012655 
L 224.260608 171.485969 
L 227.100544 171.485969 
L 227.100544 170.959282 
L 227.903308 170.959282 
L 227.903308 169.90591 
L 229.581621 169.90591 
L 229.581621 169.379224 
L 229.956314 169.379224 
L 230.001991 167.799166 
L 230.177537 167.799166 
L 230.177537 167.27248 
L 230.882828 167.27248 
L 230.952216 166.219108 
L 231.102673 166.219108 
L 231.102673 165.692422 
L 231.463524 165.692422 
L 231.463524 164.63905 
L 231.635855 164.63905 
L 231.743807 159.898875 
L 231.887934 159.898875 
L 231.974539 155.1587 
L 232.018392 155.1587 
L 232.078846 154.105328 
L 232.253968 154.105328 
L 232.362824 153.051956 
L 232.393492 153.051956 
L 232.393492 152.52527 
L 232.662531 152.52527 
L 232.763875 149.891839 
L 232.82437 149.891839 
L 232.82437 148.838467 
L 232.990255 148.838467 
L 233.027004 147.258409 
L 233.164796 147.258409 
L 233.229524 145.678351 
L 233.314429 145.678351 
L 233.314429 145.151665 
L 233.450705 145.151665 
L 233.450705 144.624978 
L 233.589248 144.624978 
L 233.589248 144.098292 
L 233.735299 144.098292 
L 233.735299 143.571606 
L 234.858028 143.571606 
L 234.858028 143.04492 
L 235.285247 143.04492 
L 235.285247 142.518234 
L 235.564097 142.518234 
L 235.564097 141.991548 
L 236.664698 141.991548 
L 236.664698 141.464862 
L 237.107234 141.464862 
L 237.176186 139.358118 
L 237.764891 139.358118 
L 237.764891 138.831432 
L 238.213974 138.831432 
L 238.213974 138.304745 
L 238.349774 138.304745 
L 238.399303 136.724687 
L 238.508081 136.724687 
L 238.53487 135.671315 
L 238.650053 135.671315 
L 238.757497 134.091257 
L 238.797203 134.091257 
L 238.8614 132.511199 
L 238.930362 132.511199 
L 239.026156 130.404454 
L 239.096789 130.404454 
L 239.152334 128.824396 
L 239.222982 128.824396 
L 239.238457 127.771024 
L 239.335073 127.771024 
L 239.335073 127.244338 
L 239.634118 127.244338 
L 239.634118 126.717652 
L 242.000201 126.717652 
L 242.03745 125.137593 
L 242.244514 125.137593 
L 242.331733 124.084221 
L 242.981023 124.084221 
L 242.981023 123.557535 
L 243.111495 123.557535 
L 243.16715 121.977477 
L 243.225039 121.977477 
L 243.322227 118.290674 
L 243.470691 118.290674 
L 243.580461 116.18393 
L 243.613754 116.18393 
L 243.700311 111.443755 
L 243.789419 111.443755 
L 243.809213 109.337011 
L 243.911604 109.337011 
L 243.911604 108.810325 
L 244.038813 108.810325 
L 244.114443 107.756953 
L 246.549007 107.756953 
L 246.549007 106.703581 
L 246.907413 106.703581 
L 246.974276 105.123522 
L 247.041885 105.123522 
L 247.152771 102.490092 
L 247.192557 102.490092 
L 247.288467 100.383348 
L 247.741079 100.383348 
L 247.741079 99.856662 
L 249.204727 99.856662 
L 249.204727 99.329976 
L 249.424767 99.329976 
L 249.424767 98.803289 
L 249.959967 98.803289 
L 250.041498 97.223231 
L 250.078586 97.223231 
L 250.114922 96.169859 
L 250.191329 96.169859 
L 250.26607 94.589801 
L 250.310827 94.589801 
L 250.347844 93.009743 
L 250.422304 93.009743 
L 250.497269 91.429684 
L 250.579769 91.429684 
L 250.686889 90.376312 
L 251.502651 90.376312 
L 251.502651 89.849626 
L 251.930962 89.849626 
L 251.930962 89.32294 
L 252.069623 89.32294 
L 252.069623 88.796254 
L 252.578906 88.796254 
L 252.649092 87.216196 
L 252.712337 87.216196 
L 252.807016 85.109451 
L 252.878729 85.109451 
L 252.899083 83.529393 
L 253.021515 83.529393 
L 253.021515 83.002707 
L 253.729074 83.002707 
L 253.729074 81.949335 
L 254.972569 81.949335 
L 255.022062 80.895963 
L 255.121048 80.895963 
L 255.195423 78.789218 
L 255.262729 78.789218 
L 255.262729 78.262532 
L 256.449044 78.262532 
L 256.449044 77.735846 
L 257.074995 77.735846 
L 257.150485 76.155788 
L 258.723068 76.155788 
L 258.801706 75.102416 
L 258.887276 75.102416 
L 258.909922 74.049044 
L 259.084249 74.049044 
L 259.084249 73.522358 
L 259.983739 73.522358 
L 259.983739 72.995672 
L 260.344698 72.995672 
L 260.440307 71.415613 
L 260.478719 71.415613 
L 260.565878 70.362241 
L 261.864303 70.362241 
L 261.924654 68.782183 
L 261.990468 68.782183 
L 262.066201 66.148752 
L 262.147928 66.148752 
L 262.176423 65.09538 
L 262.905599 65.09538 
L 262.905599 64.568694 
L 263.19298 64.568694 
L 263.280088 62.988636 
L 263.342432 62.988636 
L 263.342432 62.46195 
L 264.517554 62.46195 
L 264.619971 60.355206 
L 264.70724 60.355206 
L 264.752961 59.301833 
L 265.7027 59.301833 
L 265.743145 57.195089 
L 266.804878 57.195089 
L 266.82889 55.615031 
L 267.946285 55.615031 
L 267.956921 54.561659 
L 268.845795 54.561659 
L 268.845795 54.034973 
L 269.859823 54.034973 
L 269.964571 52.9816 
L 270.805944 52.9816 
L 270.805944 52.454914 
L 271.519459 52.454914 
L 271.593814 51.401542 
L 272.348233 51.401542 
L 272.348233 50.874856 
L 272.840361 50.874856 
L 272.840361 50.34817 
L 273.858299 50.34817 
L 273.858299 49.821484 
L 275.857193 49.821484 
L 275.888745 48.768112 
L 278.859189 48.768112 
L 278.859189 48.241426 
L 280.429401 48.241426 
L 280.429401 47.71474 
L 282.295656 47.71474 
L 282.295656 47.188054 
L 286.891136 47.188054 
L 286.891136 46.661368 
L 288.855767 46.661368 
L 288.855767 46.134681 
L 338.688 46.134681 
L 338.688 46.134681 
" style="fill:none;stroke:#ff00ff;stroke-linecap:square;stroke-width:1.5;"/>
   </g>
   <g id="line2d_41">
    <defs>
     <path d="M -0 8.485281 
L 5.091169 0 
L 0 -8.485281 
L -5.091169 -0 
z
" id="m69339450a1" style="stroke:#ff00ff;stroke-linejoin:miter;stroke-width:1.5;"/>
    </defs>
    <g>
     <use style="fill-opacity:0;stroke:#ff00ff;stroke-linejoin:miter;stroke-width:1.5;" x="134.106373" xlink:href="#m69339450a1" y="264.709405"/>
     <use style="fill-opacity:0;stroke:#ff00ff;stroke-linejoin:miter;stroke-width:1.5;" x="215.978911" xlink:href="#m69339450a1" y="198.346959"/>
     <use style="fill-opacity:0;stroke:#ff00ff;stroke-linejoin:miter;stroke-width:1.5;" x="249.959967" xlink:href="#m69339450a1" y="98.803289"/>
     <use style="fill-opacity:0;stroke:#ff00ff;stroke-linejoin:miter;stroke-width:1.5;" x="288.855767" xlink:href="#m69339450a1" y="46.134681"/>
     <use style="fill-opacity:0;stroke:#ff00ff;stroke-linejoin:miter;stroke-width:1.5;" x="288.855767" xlink:href="#m69339450a1" y="46.134681"/>
     <use style="fill-opacity:0;stroke:#ff00ff;stroke-linejoin:miter;stroke-width:1.5;" x="338.688" xlink:href="#m69339450a1" y="46.134681"/>
    </g>
   </g>
   <g id="line2d_42">
    <path style="fill:none;stroke:#ff00ff;stroke-linecap:square;stroke-width:1.5;"/>
    <g/>
   </g>
   <g id="line2d_43">
    <path clip-path="url(#p35747eb534)" d="M 218.221714 195.186842 
" style="fill:none;stroke:#ff00ff;stroke-linecap:square;stroke-width:1.5;"/>
    <defs>
     <path d="M -12 12 
L 12 -12 
M -12 -12 
L 12 12 
" id="ma18f4b25d9" style="stroke:#ff00ff;"/>
    </defs>
    <g clip-path="url(#p35747eb534)">
     <use style="fill:#ff00ff;stroke:#ff00ff;" x="218.221714" xlink:href="#ma18f4b25d9" y="195.186842"/>
    </g>
   </g>
   <g id="line2d_44">
    <path d="M 338.688 46.134681 
L 369.60768 293.571802 
" style="fill:none;stroke:#ff00ff;stroke-linecap:square;stroke-width:1.5;"/>
    <g>
     <use style="fill-opacity:0;stroke:#ff00ff;stroke-linejoin:miter;stroke-width:1.5;" x="338.688" xlink:href="#m69339450a1" y="46.134681"/>
     <use style="fill-opacity:0;stroke:#ff00ff;stroke-linejoin:miter;stroke-width:1.5;" x="369.60768" xlink:href="#m69339450a1" y="293.571802"/>
    </g>
   </g>
   <g id="line2d_45">
    <path d="M 338.688 30.334099 
L 369.60768 164.63905 
" style="fill:none;stroke:#000080;stroke-linecap:square;stroke-width:1.5;"/>
    <g>
     <use style="fill-opacity:0;stroke:#000080;stroke-width:1.5;" x="338.688" xlink:href="#me3fabbeb74" y="30.334099"/>
     <use style="fill-opacity:0;stroke:#000080;stroke-width:1.5;" x="369.60768" xlink:href="#me3fabbeb74" y="164.63905"/>
    </g>
   </g>
   <g id="line2d_46">
    <path d="M 338.688 298.944 
L 338.688 30.334099 
" style="fill:none;stroke:#000000;stroke-linecap:square;stroke-width:1.5;"/>
   </g>
   <g id="patch_3">
    <path d="M 57.6 298.944 
L 57.6 27.648 
" style="fill:none;stroke:#000000;stroke-linecap:square;stroke-linejoin:miter;stroke-width:0.8;"/>
   </g>
   <g id="patch_4">
    <path d="M 338.688 298.944 
L 338.688 27.648 
" style="fill:none;stroke:#000000;stroke-linecap:square;stroke-linejoin:miter;stroke-width:0.8;"/>
   </g>
   <g id="patch_5">
    <path d="M 57.6 298.944 
L 338.688 298.944 
" style="fill:none;stroke:#000000;stroke-linecap:square;stroke-linejoin:miter;stroke-width:0.8;"/>
   </g>
   <g id="patch_6">
    <path d="M 57.6 27.648 
L 338.688 27.648 
" style="fill:none;stroke:#000000;stroke-linecap:square;stroke-linejoin:miter;stroke-width:0.8;"/>
   </g>
   <g id="text_13">
    <!-- PSO -->
    <g transform="translate(375.22944 298.262739)scale(0.17 -0.17)">
     <defs>
      <path d="M 19.671875 64.796875 
L 19.671875 37.40625 
L 32.078125 37.40625 
Q 38.96875 37.40625 42.71875 40.96875 
Q 46.484375 44.53125 46.484375 51.125 
Q 46.484375 57.671875 42.71875 61.234375 
Q 38.96875 64.796875 32.078125 64.796875 
z
M 9.8125 72.90625 
L 32.078125 72.90625 
Q 44.34375 72.90625 50.609375 67.359375 
Q 56.890625 61.8125 56.890625 51.125 
Q 56.890625 40.328125 50.609375 34.8125 
Q 44.34375 29.296875 32.078125 29.296875 
L 19.671875 29.296875 
L 19.671875 0 
L 9.8125 0 
z
" id="DejaVuSans-80"/>
      <path d="M 53.515625 70.515625 
L 53.515625 60.890625 
Q 47.90625 63.578125 42.921875 64.890625 
Q 37.9375 66.21875 33.296875 66.21875 
Q 25.25 66.21875 20.875 63.09375 
Q 16.5 59.96875 16.5 54.203125 
Q 16.5 49.359375 19.40625 46.890625 
Q 22.3125 44.4375 30.421875 42.921875 
L 36.375 41.703125 
Q 47.40625 39.59375 52.65625 34.296875 
Q 57.90625 29 57.90625 20.125 
Q 57.90625 9.515625 50.796875 4.046875 
Q 43.703125 -1.421875 29.984375 -1.421875 
Q 24.8125 -1.421875 18.96875 -0.25 
Q 13.140625 0.921875 6.890625 3.21875 
L 6.890625 13.375 
Q 12.890625 10.015625 18.65625 8.296875 
Q 24.421875 6.59375 29.984375 6.59375 
Q 38.421875 6.59375 43.015625 9.90625 
Q 47.609375 13.234375 47.609375 19.390625 
Q 47.609375 24.75 44.3125 27.78125 
Q 41.015625 30.8125 33.5 32.328125 
L 27.484375 33.5 
Q 16.453125 35.6875 11.515625 40.375 
Q 6.59375 45.0625 6.59375 53.421875 
Q 6.59375 63.09375 13.40625 68.65625 
Q 20.21875 74.21875 32.171875 74.21875 
Q 37.3125 74.21875 42.625 73.28125 
Q 47.953125 72.359375 53.515625 70.515625 
z
" id="DejaVuSans-83"/>
      <path d="M 39.40625 66.21875 
Q 28.65625 66.21875 22.328125 58.203125 
Q 16.015625 50.203125 16.015625 36.375 
Q 16.015625 22.609375 22.328125 14.59375 
Q 28.65625 6.59375 39.40625 6.59375 
Q 50.140625 6.59375 56.421875 14.59375 
Q 62.703125 22.609375 62.703125 36.375 
Q 62.703125 50.203125 56.421875 58.203125 
Q 50.140625 66.21875 39.40625 66.21875 
z
M 39.40625 74.21875 
Q 54.734375 74.21875 63.90625 63.9375 
Q 73.09375 53.65625 73.09375 36.375 
Q 73.09375 19.140625 63.90625 8.859375 
Q 54.734375 -1.421875 39.40625 -1.421875 
Q 24.03125 -1.421875 14.8125 8.828125 
Q 5.609375 19.09375 5.609375 36.375 
Q 5.609375 53.65625 14.8125 63.9375 
Q 24.03125 74.21875 39.40625 74.21875 
z
" id="DejaVuSans-79"/>
     </defs>
     <use xlink:href="#DejaVuSans-80"/>
     <use x="60.302734" xlink:href="#DejaVuSans-83"/>
     <use x="123.779297" xlink:href="#DejaVuSans-79"/>
    </g>
   </g>
   <g id="text_14">
    <!-- outputCMA -->
    <g transform="translate(375.22944 169.329987)scale(0.17 -0.17)">
     <defs>
      <path d="M 64.40625 67.28125 
L 64.40625 56.890625 
Q 59.421875 61.53125 53.78125 63.8125 
Q 48.140625 66.109375 41.796875 66.109375 
Q 29.296875 66.109375 22.65625 58.46875 
Q 16.015625 50.828125 16.015625 36.375 
Q 16.015625 21.96875 22.65625 14.328125 
Q 29.296875 6.6875 41.796875 6.6875 
Q 48.140625 6.6875 53.78125 8.984375 
Q 59.421875 11.28125 64.40625 15.921875 
L 64.40625 5.609375 
Q 59.234375 2.09375 53.4375 0.328125 
Q 47.65625 -1.421875 41.21875 -1.421875 
Q 24.65625 -1.421875 15.125 8.703125 
Q 5.609375 18.84375 5.609375 36.375 
Q 5.609375 53.953125 15.125 64.078125 
Q 24.65625 74.21875 41.21875 74.21875 
Q 47.75 74.21875 53.53125 72.484375 
Q 59.328125 70.75 64.40625 67.28125 
z
" id="DejaVuSans-67"/>
      <path d="M 9.8125 72.90625 
L 24.515625 72.90625 
L 43.109375 23.296875 
L 61.8125 72.90625 
L 76.515625 72.90625 
L 76.515625 0 
L 66.890625 0 
L 66.890625 64.015625 
L 48.09375 14.015625 
L 38.1875 14.015625 
L 19.390625 64.015625 
L 19.390625 0 
L 9.8125 0 
z
" id="DejaVuSans-77"/>
      <path d="M 34.1875 63.1875 
L 20.796875 26.90625 
L 47.609375 26.90625 
z
M 28.609375 72.90625 
L 39.796875 72.90625 
L 67.578125 0 
L 57.328125 0 
L 50.6875 18.703125 
L 17.828125 18.703125 
L 11.1875 0 
L 0.78125 0 
z
" id="DejaVuSans-65"/>
     </defs>
     <use xlink:href="#DejaVuSans-111"/>
     <use x="61.181641" xlink:href="#DejaVuSans-117"/>
     <use x="124.560547" xlink:href="#DejaVuSans-116"/>
     <use x="163.769531" xlink:href="#DejaVuSans-112"/>
     <use x="227.246094" xlink:href="#DejaVuSans-117"/>
     <use x="290.625" xlink:href="#DejaVuSans-116"/>
     <use x="329.833984" xlink:href="#DejaVuSans-67"/>
     <use x="399.658203" xlink:href="#DejaVuSans-77"/>
     <use x="485.9375" xlink:href="#DejaVuSans-65"/>
    </g>
   </g>
   <g id="text_15">
    <!-- best 2009 -->
    <g transform="translate(375.22944 40.397235)scale(0.17 -0.17)">
     <defs>
      <path d="M 48.6875 27.296875 
Q 48.6875 37.203125 44.609375 42.84375 
Q 40.53125 48.484375 33.40625 48.484375 
Q 26.265625 48.484375 22.1875 42.84375 
Q 18.109375 37.203125 18.109375 27.296875 
Q 18.109375 17.390625 22.1875 11.75 
Q 26.265625 6.109375 33.40625 6.109375 
Q 40.53125 6.109375 44.609375 11.75 
Q 48.6875 17.390625 48.6875 27.296875 
z
M 18.109375 46.390625 
Q 20.953125 51.265625 25.265625 53.625 
Q 29.59375 56 35.59375 56 
Q 45.5625 56 51.78125 48.09375 
Q 58.015625 40.1875 58.015625 27.296875 
Q 58.015625 14.40625 51.78125 6.484375 
Q 45.5625 -1.421875 35.59375 -1.421875 
Q 29.59375 -1.421875 25.265625 0.953125 
Q 20.953125 3.328125 18.109375 8.203125 
L 18.109375 0 
L 9.078125 0 
L 9.078125 75.984375 
L 18.109375 75.984375 
z
" id="DejaVuSans-98"/>
      <path d="M 10.984375 1.515625 
L 10.984375 10.5 
Q 14.703125 8.734375 18.5 7.8125 
Q 22.3125 6.890625 25.984375 6.890625 
Q 35.75 6.890625 40.890625 13.453125 
Q 46.046875 20.015625 46.78125 33.40625 
Q 43.953125 29.203125 39.59375 26.953125 
Q 35.25 24.703125 29.984375 24.703125 
Q 19.046875 24.703125 12.671875 31.3125 
Q 6.296875 37.9375 6.296875 49.421875 
Q 6.296875 60.640625 12.9375 67.421875 
Q 19.578125 74.21875 30.609375 74.21875 
Q 43.265625 74.21875 49.921875 64.515625 
Q 56.59375 54.828125 56.59375 36.375 
Q 56.59375 19.140625 48.40625 8.859375 
Q 40.234375 -1.421875 26.421875 -1.421875 
Q 22.703125 -1.421875 18.890625 -0.6875 
Q 15.09375 0.046875 10.984375 1.515625 
z
M 30.609375 32.421875 
Q 37.25 32.421875 41.125 36.953125 
Q 45.015625 41.5 45.015625 49.421875 
Q 45.015625 57.28125 41.125 61.84375 
Q 37.25 66.40625 30.609375 66.40625 
Q 23.96875 66.40625 20.09375 61.84375 
Q 16.21875 57.28125 16.21875 49.421875 
Q 16.21875 41.5 20.09375 36.953125 
Q 23.96875 32.421875 30.609375 32.421875 
z
" id="DejaVuSans-57"/>
     </defs>
     <use xlink:href="#DejaVuSans-98"/>
     <use x="63.476562" xlink:href="#DejaVuSans-101"/>
     <use x="125" xlink:href="#DejaVuSans-115"/>
     <use x="177.099609" xlink:href="#DejaVuSans-116"/>
     <use x="216.308594" xlink:href="#DejaVuSans-32"/>
     <use x="248.095703" xlink:href="#DejaVuSans-50"/>
     <use x="311.71875" xlink:href="#DejaVuSans-48"/>
     <use x="375.341797" xlink:href="#DejaVuSans-48"/>
     <use x="438.964844" xlink:href="#DejaVuSans-57"/>
    </g>
   </g>
   <g id="text_16">
    <!-- bbob f16, 5-D -->
    <g transform="translate(60.41088 38.111366)scale(0.102 -0.102)">
     <defs>
      <path d="M 10.796875 72.90625 
L 49.515625 72.90625 
L 49.515625 64.59375 
L 19.828125 64.59375 
L 19.828125 46.734375 
Q 21.96875 47.46875 24.109375 47.828125 
Q 26.265625 48.1875 28.421875 48.1875 
Q 40.625 48.1875 47.75 41.5 
Q 54.890625 34.8125 54.890625 23.390625 
Q 54.890625 11.625 47.5625 5.09375 
Q 40.234375 -1.421875 26.90625 -1.421875 
Q 22.3125 -1.421875 17.546875 -0.640625 
Q 12.796875 0.140625 7.71875 1.703125 
L 7.71875 11.625 
Q 12.109375 9.234375 16.796875 8.0625 
Q 21.484375 6.890625 26.703125 6.890625 
Q 35.15625 6.890625 40.078125 11.328125 
Q 45.015625 15.765625 45.015625 23.390625 
Q 45.015625 31 40.078125 35.4375 
Q 35.15625 39.890625 26.703125 39.890625 
Q 22.75 39.890625 18.8125 39.015625 
Q 14.890625 38.140625 10.796875 36.28125 
z
" id="DejaVuSans-53"/>
      <path d="M 19.671875 64.796875 
L 19.671875 8.109375 
L 31.59375 8.109375 
Q 46.6875 8.109375 53.6875 14.9375 
Q 60.6875 21.78125 60.6875 36.53125 
Q 60.6875 51.171875 53.6875 57.984375 
Q 46.6875 64.796875 31.59375 64.796875 
z
M 9.8125 72.90625 
L 30.078125 72.90625 
Q 51.265625 72.90625 61.171875 64.09375 
Q 71.09375 55.28125 71.09375 36.53125 
Q 71.09375 17.671875 61.125 8.828125 
Q 51.171875 0 30.078125 0 
L 9.8125 0 
z
" id="DejaVuSans-68"/>
     </defs>
     <use xlink:href="#DejaVuSans-98"/>
     <use x="63.476562" xlink:href="#DejaVuSans-98"/>
     <use x="126.953125" xlink:href="#DejaVuSans-111"/>
     <use x="188.134766" xlink:href="#DejaVuSans-98"/>
     <use x="251.611328" xlink:href="#DejaVuSans-32"/>
     <use x="283.398438" xlink:href="#DejaVuSans-102"/>
     <use x="318.603516" xlink:href="#DejaVuSans-49"/>
     <use x="382.226562" xlink:href="#DejaVuSans-54"/>
     <use x="445.849609" xlink:href="#DejaVuSans-44"/>
     <use x="477.636719" xlink:href="#DejaVuSans-32"/>
     <use x="509.423828" xlink:href="#DejaVuSans-53"/>
     <use x="573.046875" xlink:href="#DejaVuSans-45"/>
     <use x="609.130859" xlink:href="#DejaVuSans-68"/>
    </g>
    <!-- 51 targets: 100..1e-08 -->
    <g transform="translate(60.41088 49.533135)scale(0.102 -0.102)">
     <defs>
      <path d="M 11.71875 12.40625 
L 22.015625 12.40625 
L 22.015625 0 
L 11.71875 0 
z
M 11.71875 51.703125 
L 22.015625 51.703125 
L 22.015625 39.3125 
L 11.71875 39.3125 
z
" id="DejaVuSans-58"/>
     </defs>
     <use xlink:href="#DejaVuSans-53"/>
     <use x="63.623047" xlink:href="#DejaVuSans-49"/>
     <use x="127.246094" xlink:href="#DejaVuSans-32"/>
     <use x="159.033203" xlink:href="#DejaVuSans-116"/>
     <use x="198.242188" xlink:href="#DejaVuSans-97"/>
     <use x="259.521484" xlink:href="#DejaVuSans-114"/>
     <use x="298.884766" xlink:href="#DejaVuSans-103"/>
     <use x="362.361328" xlink:href="#DejaVuSans-101"/>
     <use x="423.884766" xlink:href="#DejaVuSans-116"/>
     <use x="463.09375" xlink:href="#DejaVuSans-115"/>
     <use x="515.193359" xlink:href="#DejaVuSans-58"/>
     <use x="548.884766" xlink:href="#DejaVuSans-32"/>
     <use x="580.671875" xlink:href="#DejaVuSans-49"/>
     <use x="644.294922" xlink:href="#DejaVuSans-48"/>
     <use x="707.917969" xlink:href="#DejaVuSans-48"/>
     <use x="771.541016" xlink:href="#DejaVuSans-46"/>
     <use x="803.328125" xlink:href="#DejaVuSans-46"/>
     <use x="835.115234" xlink:href="#DejaVuSans-49"/>
     <use x="898.738281" xlink:href="#DejaVuSans-101"/>
     <use x="960.261719" xlink:href="#DejaVuSans-45"/>
     <use x="996.345703" xlink:href="#DejaVuSans-48"/>
     <use x="1059.96875" xlink:href="#DejaVuSans-56"/>
    </g>
    <!-- 15 instances -->
    <g transform="translate(60.41088 60.954904)scale(0.102 -0.102)">
     <use xlink:href="#DejaVuSans-49"/>
     <use x="63.623047" xlink:href="#DejaVuSans-53"/>
     <use x="127.246094" xlink:href="#DejaVuSans-32"/>
     <use x="159.033203" xlink:href="#DejaVuSans-105"/>
     <use x="186.816406" xlink:href="#DejaVuSans-110"/>
     <use x="250.195312" xlink:href="#DejaVuSans-115"/>
     <use x="302.294922" xlink:href="#DejaVuSans-116"/>
     <use x="341.503906" xlink:href="#DejaVuSans-97"/>
     <use x="402.783203" xlink:href="#DejaVuSans-110"/>
     <use x="466.162109" xlink:href="#DejaVuSans-99"/>
     <use x="521.142578" xlink:href="#DejaVuSans-101"/>
     <use x="582.666016" xlink:href="#DejaVuSans-115"/>
    </g>
   </g>
   <g id="text_17">
    <!-- v2.4 -->
    <g style="fill:#808080;" transform="translate(187.233062 294.151352)scale(0.1 -0.1)">
     <use xlink:href="#DejaVuSans-118"/>
     <use x="59.179688" xlink:href="#DejaVuSans-50"/>
     <use x="122.802734" xlink:href="#DejaVuSans-46"/>
     <use x="154.589844" xlink:href="#DejaVuSans-52"/>
    </g>
   </g>
   <g id="text_18">
    <!-- 16 Weierstrass -->
    <g transform="translate(123.958062 21.648)scale(0.2 -0.2)">
     <defs>
      <path d="M 3.328125 72.90625 
L 13.28125 72.90625 
L 28.609375 11.28125 
L 43.890625 72.90625 
L 54.984375 72.90625 
L 70.3125 11.28125 
L 85.59375 72.90625 
L 95.609375 72.90625 
L 77.296875 0 
L 64.890625 0 
L 49.515625 63.28125 
L 33.984375 0 
L 21.578125 0 
z
" id="DejaVuSans-87"/>
     </defs>
     <use xlink:href="#DejaVuSans-49"/>
     <use x="63.623047" xlink:href="#DejaVuSans-54"/>
     <use x="127.246094" xlink:href="#DejaVuSans-32"/>
     <use x="159.033203" xlink:href="#DejaVuSans-87"/>
     <use x="252.035156" xlink:href="#DejaVuSans-101"/>
     <use x="313.558594" xlink:href="#DejaVuSans-105"/>
     <use x="341.341797" xlink:href="#DejaVuSans-101"/>
     <use x="402.865234" xlink:href="#DejaVuSans-114"/>
     <use x="443.978516" xlink:href="#DejaVuSans-115"/>
     <use x="496.078125" xlink:href="#DejaVuSans-116"/>
     <use x="535.287109" xlink:href="#DejaVuSans-114"/>
     <use x="576.400391" xlink:href="#DejaVuSans-97"/>
     <use x="637.679688" xlink:href="#DejaVuSans-115"/>
     <use x="689.779297" xlink:href="#DejaVuSans-115"/>
    </g>
   </g>
  </g>
 </g>
 <defs>
  <clipPath id="p35747eb534">
   <rect height="271.296" width="281.088" x="57.6" y="27.648"/>
  </clipPath>
 </defs>
</svg>
