<?xml version="1.0" encoding="utf-8" standalone="no"?>
<!DOCTYPE svg PUBLIC "-//W3C//DTD SVG 1.1//EN"
  "http://www.w3.org/Graphics/SVG/1.1/DTD/svg11.dtd">
<!-- Created with matplotlib (https://matplotlib.org/) -->
<svg height="345.6pt" version="1.1" viewBox="0 0 460.8 345.6" width="460.8pt" xmlns="http://www.w3.org/2000/svg" xmlns:xlink="http://www.w3.org/1999/xlink">
 <metadata>
  <rdf:RDF xmlns:cc="http://creativecommons.org/ns#" xmlns:dc="http://purl.org/dc/elements/1.1/" xmlns:rdf="http://www.w3.org/1999/02/22-rdf-syntax-ns#">
   <cc:Work>
    <dc:type rdf:resource="http://purl.org/dc/dcmitype/StillImage"/>
    <dc:date>2021-04-27T05:14:32.282839</dc:date>
    <dc:format>image/svg+xml</dc:format>
    <dc:creator>
     <cc:Agent>
      <dc:title>Matplotlib v3.3.4, https://matplotlib.org/</dc:title>
     </cc:Agent>
    </dc:creator>
   </cc:Work>
  </rdf:RDF>
 </metadata>
 <defs>
  <style type="text/css">*{stroke-linecap:butt;stroke-linejoin:round;}</style>
 </defs>
 <g id="figure_1">
  <g id="patch_1">
   <path d="M 0 345.6 
L 460.8 345.6 
L 460.8 0 
L 0 0 
z
" style="fill:#ffffff;"/>
  </g>
  <g id="axes_1">
   <g id="patch_2">
    <path d="M 57.6 298.944 
L 338.688 298.944 
L 338.688 27.648 
L 57.6 27.648 
z
" style="fill:#ffffff;"/>
   </g>
   <g id="line2d_1">
    <path d="M 114.418861 298.944 
L 114.418861 293.677139 
L 118.012672 293.677139 
L 118.012672 288.410278 
L 121.623516 288.410278 
L 121.623516 283.143418 
L 124.101333 283.143418 
L 124.101333 277.876557 
L 127.132689 277.876557 
L 127.132689 272.609696 
L 130.344571 272.609696 
L 130.344571 267.342835 
L 132.636218 267.342835 
L 132.636218 262.075974 
L 134.513701 262.075974 
L 134.513701 256.809114 
L 136.776048 256.809114 
L 136.776048 251.542253 
L 138.358484 251.542253 
L 138.358484 246.275392 
L 140.671233 246.275392 
L 140.671233 241.008531 
L 142.586623 241.008531 
L 142.586623 235.74167 
L 143.809805 235.74167 
L 143.809805 230.47481 
L 145.120836 230.47481 
L 145.120836 225.207949 
L 146.052799 225.207949 
L 146.052799 219.941088 
L 147.231185 219.941088 
L 147.231185 214.674227 
L 148.368502 214.674227 
L 148.368502 209.407366 
L 149.200437 209.407366 
L 149.200437 204.140506 
L 149.690956 204.140506 
L 149.690956 198.873645 
L 150.339914 198.873645 
L 150.339914 193.606784 
L 151.0766 193.606784 
L 151.0766 188.339923 
L 152.149514 188.339923 
L 152.149514 183.073062 
L 153.243677 183.073062 
L 153.243677 177.806202 
L 153.711515 177.806202 
L 153.711515 172.539341 
L 154.167129 172.539341 
L 154.167129 167.27248 
L 154.641235 167.27248 
L 154.641235 162.005619 
L 155.04413 162.005619 
L 155.04413 156.738758 
L 155.596784 156.738758 
L 155.596784 151.471897 
L 156.120189 151.471897 
L 156.120189 146.205037 
L 156.397275 146.205037 
L 156.397275 140.938176 
L 156.941506 140.938176 
L 156.941506 135.671315 
L 157.63607 135.671315 
L 157.63607 130.404454 
L 158.086033 130.404454 
L 158.086033 125.137593 
L 158.449648 125.137593 
L 158.449648 119.870733 
L 158.721434 119.870733 
L 158.721434 114.603872 
L 159.066985 114.603872 
L 159.066985 109.337011 
L 159.454056 109.337011 
L 159.454056 104.07015 
L 159.738201 104.07015 
L 159.738201 98.803289 
L 160.186333 98.803289 
L 160.186333 93.536429 
L 160.776661 93.536429 
L 160.776661 88.269568 
L 161.233571 88.269568 
L 161.233571 83.002707 
L 161.667653 83.002707 
L 161.667653 77.735846 
L 161.984076 77.735846 
L 161.984076 72.468985 
L 162.243086 72.468985 
L 162.243086 67.202125 
L 162.585379 67.202125 
L 162.585379 61.935264 
L 162.956374 61.935264 
L 162.956374 56.668403 
L 163.115337 56.668403 
L 163.115337 51.401542 
L 163.557683 51.401542 
L 163.557683 46.134681 
L 163.973442 46.134681 
L 163.973442 40.867821 
L 164.471025 40.867821 
L 164.471025 35.60096 
L 164.858371 35.60096 
L 164.858371 30.334099 
L 338.688 30.334099 
" style="fill:none;stroke:#f5deb3;stroke-linecap:square;stroke-width:4;"/>
   </g>
   <g id="line2d_2">
    <defs>
     <path d="M -0 7.778175 
L 7.778175 0 
L 0 -7.778175 
L -7.778175 -0 
z
" id="m313bfaea8b" style="stroke:#f5deb3;stroke-linejoin:miter;stroke-width:1.5;"/>
    </defs>
    <g>
     <use style="fill:#f5deb3;stroke:#f5deb3;stroke-linejoin:miter;stroke-width:1.5;" x="155.04413" xlink:href="#m313bfaea8b" y="156.738758"/>
     <use style="fill:#f5deb3;stroke:#f5deb3;stroke-linejoin:miter;stroke-width:1.5;" x="163.557683" xlink:href="#m313bfaea8b" y="46.134681"/>
     <use style="fill:#f5deb3;stroke:#f5deb3;stroke-linejoin:miter;stroke-width:1.5;" x="164.858371" xlink:href="#m313bfaea8b" y="30.334099"/>
     <use style="fill:#f5deb3;stroke:#f5deb3;stroke-linejoin:miter;stroke-width:1.5;" x="164.858371" xlink:href="#m313bfaea8b" y="30.334099"/>
     <use style="fill:#f5deb3;stroke:#f5deb3;stroke-linejoin:miter;stroke-width:1.5;" x="338.688" xlink:href="#m313bfaea8b" y="30.334099"/>
    </g>
   </g>
   <g id="line2d_3">
    <path style="fill:none;stroke:#f5deb3;stroke-linecap:square;stroke-width:4;"/>
    <g/>
   </g>
   <g id="line2d_4">
    <path d="M 338.688 30.334099 
L 369.60768 35.706297 
" style="fill:none;stroke:#f5deb3;stroke-linecap:square;stroke-width:4;"/>
    <g>
     <use style="fill:#f5deb3;stroke:#f5deb3;stroke-linejoin:miter;stroke-width:1.5;" x="338.688" xlink:href="#m313bfaea8b" y="30.334099"/>
     <use style="fill:#f5deb3;stroke:#f5deb3;stroke-linejoin:miter;stroke-width:1.5;" x="369.60768" xlink:href="#m313bfaea8b" y="35.706297"/>
    </g>
   </g>
   <g id="matplotlib.axis_1">
    <g id="xtick_1">
     <g id="line2d_5">
      <path clip-path="url(#p2fadb763d6)" d="M 57.6 298.944 
L 57.6 27.648 
" style="fill:none;stroke:#b0b0b0;stroke-linecap:square;stroke-width:0.8;"/>
     </g>
     <g id="line2d_6">
      <defs>
       <path d="M 0 0 
L 0 3.5 
" id="m1fc33b287d" style="stroke:#000000;stroke-width:0.8;"/>
      </defs>
      <g>
       <use style="stroke:#000000;stroke-width:0.8;" x="57.6" xlink:href="#m1fc33b287d" y="298.944"/>
      </g>
     </g>
     <g id="text_1">
      <!-- 0 -->
      <g transform="translate(51.2375 321.140875)scale(0.2 -0.2)">
       <defs>
        <path d="M 31.78125 66.40625 
Q 24.171875 66.40625 20.328125 58.90625 
Q 16.5 51.421875 16.5 36.375 
Q 16.5 21.390625 20.328125 13.890625 
Q 24.171875 6.390625 31.78125 6.390625 
Q 39.453125 6.390625 43.28125 13.890625 
Q 47.125 21.390625 47.125 36.375 
Q 47.125 51.421875 43.28125 58.90625 
Q 39.453125 66.40625 31.78125 66.40625 
z
M 31.78125 74.21875 
Q 44.046875 74.21875 50.515625 64.515625 
Q 56.984375 54.828125 56.984375 36.375 
Q 56.984375 17.96875 50.515625 8.265625 
Q 44.046875 -1.421875 31.78125 -1.421875 
Q 19.53125 -1.421875 13.0625 8.265625 
Q 6.59375 17.96875 6.59375 36.375 
Q 6.59375 54.828125 13.0625 64.515625 
Q 19.53125 74.21875 31.78125 74.21875 
z
" id="DejaVuSans-48"/>
       </defs>
       <use xlink:href="#DejaVuSans-48"/>
      </g>
     </g>
    </g>
    <g id="xtick_2">
     <g id="line2d_7">
      <path clip-path="url(#p2fadb763d6)" d="M 137.910857 298.944 
L 137.910857 27.648 
" style="fill:none;stroke:#b0b0b0;stroke-linecap:square;stroke-width:0.8;"/>
     </g>
     <g id="line2d_8">
      <g>
       <use style="stroke:#000000;stroke-width:0.8;" x="137.910857" xlink:href="#m1fc33b287d" y="298.944"/>
      </g>
     </g>
     <g id="text_2">
      <!-- 2 -->
      <g transform="translate(131.548357 321.140875)scale(0.2 -0.2)">
       <defs>
        <path d="M 19.1875 8.296875 
L 53.609375 8.296875 
L 53.609375 0 
L 7.328125 0 
L 7.328125 8.296875 
Q 12.9375 14.109375 22.625 23.890625 
Q 32.328125 33.6875 34.8125 36.53125 
Q 39.546875 41.84375 41.421875 45.53125 
Q 43.3125 49.21875 43.3125 52.78125 
Q 43.3125 58.59375 39.234375 62.25 
Q 35.15625 65.921875 28.609375 65.921875 
Q 23.96875 65.921875 18.8125 64.3125 
Q 13.671875 62.703125 7.8125 59.421875 
L 7.8125 69.390625 
Q 13.765625 71.78125 18.9375 73 
Q 24.125 74.21875 28.421875 74.21875 
Q 39.75 74.21875 46.484375 68.546875 
Q 53.21875 62.890625 53.21875 53.421875 
Q 53.21875 48.921875 51.53125 44.890625 
Q 49.859375 40.875 45.40625 35.40625 
Q 44.1875 33.984375 37.640625 27.21875 
Q 31.109375 20.453125 19.1875 8.296875 
z
" id="DejaVuSans-50"/>
       </defs>
       <use xlink:href="#DejaVuSans-50"/>
      </g>
     </g>
    </g>
    <g id="xtick_3">
     <g id="line2d_9">
      <path clip-path="url(#p2fadb763d6)" d="M 218.221714 298.944 
L 218.221714 27.648 
" style="fill:none;stroke:#b0b0b0;stroke-linecap:square;stroke-width:0.8;"/>
     </g>
     <g id="line2d_10">
      <g>
       <use style="stroke:#000000;stroke-width:0.8;" x="218.221714" xlink:href="#m1fc33b287d" y="298.944"/>
      </g>
     </g>
     <g id="text_3">
      <!-- 4 -->
      <g transform="translate(211.859214 321.140875)scale(0.2 -0.2)">
       <defs>
        <path d="M 37.796875 64.3125 
L 12.890625 25.390625 
L 37.796875 25.390625 
z
M 35.203125 72.90625 
L 47.609375 72.90625 
L 47.609375 25.390625 
L 58.015625 25.390625 
L 58.015625 17.1875 
L 47.609375 17.1875 
L 47.609375 0 
L 37.796875 0 
L 37.796875 17.1875 
L 4.890625 17.1875 
L 4.890625 26.703125 
z
" id="DejaVuSans-52"/>
       </defs>
       <use xlink:href="#DejaVuSans-52"/>
      </g>
     </g>
    </g>
    <g id="xtick_4">
     <g id="line2d_11">
      <path clip-path="url(#p2fadb763d6)" d="M 298.532571 298.944 
L 298.532571 27.648 
" style="fill:none;stroke:#b0b0b0;stroke-linecap:square;stroke-width:0.8;"/>
     </g>
     <g id="line2d_12">
      <g>
       <use style="stroke:#000000;stroke-width:0.8;" x="298.532571" xlink:href="#m1fc33b287d" y="298.944"/>
      </g>
     </g>
     <g id="text_4">
      <!-- 6 -->
      <g transform="translate(292.170071 321.140875)scale(0.2 -0.2)">
       <defs>
        <path d="M 33.015625 40.375 
Q 26.375 40.375 22.484375 35.828125 
Q 18.609375 31.296875 18.609375 23.390625 
Q 18.609375 15.53125 22.484375 10.953125 
Q 26.375 6.390625 33.015625 6.390625 
Q 39.65625 6.390625 43.53125 10.953125 
Q 47.40625 15.53125 47.40625 23.390625 
Q 47.40625 31.296875 43.53125 35.828125 
Q 39.65625 40.375 33.015625 40.375 
z
M 52.59375 71.296875 
L 52.59375 62.3125 
Q 48.875 64.0625 45.09375 64.984375 
Q 41.3125 65.921875 37.59375 65.921875 
Q 27.828125 65.921875 22.671875 59.328125 
Q 17.53125 52.734375 16.796875 39.40625 
Q 19.671875 43.65625 24.015625 45.921875 
Q 28.375 48.1875 33.59375 48.1875 
Q 44.578125 48.1875 50.953125 41.515625 
Q 57.328125 34.859375 57.328125 23.390625 
Q 57.328125 12.15625 50.6875 5.359375 
Q 44.046875 -1.421875 33.015625 -1.421875 
Q 20.359375 -1.421875 13.671875 8.265625 
Q 6.984375 17.96875 6.984375 36.375 
Q 6.984375 53.65625 15.1875 63.9375 
Q 23.390625 74.21875 37.203125 74.21875 
Q 40.921875 74.21875 44.703125 73.484375 
Q 48.484375 72.75 52.59375 71.296875 
z
" id="DejaVuSans-54"/>
       </defs>
       <use xlink:href="#DejaVuSans-54"/>
      </g>
     </g>
    </g>
    <g id="xtick_5">
     <g id="line2d_13">
      <path clip-path="url(#p2fadb763d6)" d="M 97.755429 298.944 
L 97.755429 27.648 
" style="fill:none;stroke:#b0b0b0;stroke-linecap:square;stroke-width:0.8;"/>
     </g>
     <g id="line2d_14">
      <defs>
       <path d="M 0 0 
L 0 2 
" id="m6070b70fe4" style="stroke:#000000;stroke-width:0.6;"/>
      </defs>
      <g>
       <use style="stroke:#000000;stroke-width:0.6;" x="97.755429" xlink:href="#m6070b70fe4" y="298.944"/>
      </g>
     </g>
    </g>
    <g id="xtick_6">
     <g id="line2d_15">
      <path clip-path="url(#p2fadb763d6)" d="M 178.066286 298.944 
L 178.066286 27.648 
" style="fill:none;stroke:#b0b0b0;stroke-linecap:square;stroke-width:0.8;"/>
     </g>
     <g id="line2d_16">
      <g>
       <use style="stroke:#000000;stroke-width:0.6;" x="178.066286" xlink:href="#m6070b70fe4" y="298.944"/>
      </g>
     </g>
    </g>
    <g id="xtick_7">
     <g id="line2d_17">
      <path clip-path="url(#p2fadb763d6)" d="M 258.377143 298.944 
L 258.377143 27.648 
" style="fill:none;stroke:#b0b0b0;stroke-linecap:square;stroke-width:0.8;"/>
     </g>
     <g id="line2d_18">
      <g>
       <use style="stroke:#000000;stroke-width:0.6;" x="258.377143" xlink:href="#m6070b70fe4" y="298.944"/>
      </g>
     </g>
    </g>
    <g id="xtick_8">
     <g id="line2d_19">
      <path clip-path="url(#p2fadb763d6)" d="M 338.688 298.944 
L 338.688 27.648 
" style="fill:none;stroke:#b0b0b0;stroke-linecap:square;stroke-width:0.8;"/>
     </g>
     <g id="line2d_20">
      <g>
       <use style="stroke:#000000;stroke-width:0.6;" x="338.688" xlink:href="#m6070b70fe4" y="298.944"/>
      </g>
     </g>
    </g>
    <g id="text_5">
     <!-- log10(# f-evals / dimension) -->
     <g transform="translate(77.764078 342.217594)scale(0.17 -0.17)">
      <defs>
       <path d="M 9.421875 75.984375 
L 18.40625 75.984375 
L 18.40625 0 
L 9.421875 0 
z
" id="DejaVuSans-108"/>
       <path d="M 30.609375 48.390625 
Q 23.390625 48.390625 19.1875 42.75 
Q 14.984375 37.109375 14.984375 27.296875 
Q 14.984375 17.484375 19.15625 11.84375 
Q 23.34375 6.203125 30.609375 6.203125 
Q 37.796875 6.203125 41.984375 11.859375 
Q 46.1875 17.53125 46.1875 27.296875 
Q 46.1875 37.015625 41.984375 42.703125 
Q 37.796875 48.390625 30.609375 48.390625 
z
M 30.609375 56 
Q 42.328125 56 49.015625 48.375 
Q 55.71875 40.765625 55.71875 27.296875 
Q 55.71875 13.875 49.015625 6.21875 
Q 42.328125 -1.421875 30.609375 -1.421875 
Q 18.84375 -1.421875 12.171875 6.21875 
Q 5.515625 13.875 5.515625 27.296875 
Q 5.515625 40.765625 12.171875 48.375 
Q 18.84375 56 30.609375 56 
z
" id="DejaVuSans-111"/>
       <path d="M 45.40625 27.984375 
Q 45.40625 37.75 41.375 43.109375 
Q 37.359375 48.484375 30.078125 48.484375 
Q 22.859375 48.484375 18.828125 43.109375 
Q 14.796875 37.75 14.796875 27.984375 
Q 14.796875 18.265625 18.828125 12.890625 
Q 22.859375 7.515625 30.078125 7.515625 
Q 37.359375 7.515625 41.375 12.890625 
Q 45.40625 18.265625 45.40625 27.984375 
z
M 54.390625 6.78125 
Q 54.390625 -7.171875 48.1875 -13.984375 
Q 42 -20.796875 29.203125 -20.796875 
Q 24.46875 -20.796875 20.265625 -20.09375 
Q 16.0625 -19.390625 12.109375 -17.921875 
L 12.109375 -9.1875 
Q 16.0625 -11.328125 19.921875 -12.34375 
Q 23.78125 -13.375 27.78125 -13.375 
Q 36.625 -13.375 41.015625 -8.765625 
Q 45.40625 -4.15625 45.40625 5.171875 
L 45.40625 9.625 
Q 42.625 4.78125 38.28125 2.390625 
Q 33.9375 0 27.875 0 
Q 17.828125 0 11.671875 7.65625 
Q 5.515625 15.328125 5.515625 27.984375 
Q 5.515625 40.671875 11.671875 48.328125 
Q 17.828125 56 27.875 56 
Q 33.9375 56 38.28125 53.609375 
Q 42.625 51.21875 45.40625 46.390625 
L 45.40625 54.6875 
L 54.390625 54.6875 
z
" id="DejaVuSans-103"/>
       <path d="M 12.40625 8.296875 
L 28.515625 8.296875 
L 28.515625 63.921875 
L 10.984375 60.40625 
L 10.984375 69.390625 
L 28.421875 72.90625 
L 38.28125 72.90625 
L 38.28125 8.296875 
L 54.390625 8.296875 
L 54.390625 0 
L 12.40625 0 
z
" id="DejaVuSans-49"/>
       <path d="M 31 75.875 
Q 24.46875 64.65625 21.28125 53.65625 
Q 18.109375 42.671875 18.109375 31.390625 
Q 18.109375 20.125 21.3125 9.0625 
Q 24.515625 -2 31 -13.1875 
L 23.1875 -13.1875 
Q 15.875 -1.703125 12.234375 9.375 
Q 8.59375 20.453125 8.59375 31.390625 
Q 8.59375 42.28125 12.203125 53.3125 
Q 15.828125 64.359375 23.1875 75.875 
z
" id="DejaVuSans-40"/>
       <path d="M 51.125 44 
L 36.921875 44 
L 32.8125 27.6875 
L 47.125 27.6875 
z
M 43.796875 71.78125 
L 38.71875 51.515625 
L 52.984375 51.515625 
L 58.109375 71.78125 
L 65.921875 71.78125 
L 60.890625 51.515625 
L 76.125 51.515625 
L 76.125 44 
L 58.984375 44 
L 54.984375 27.6875 
L 70.515625 27.6875 
L 70.515625 20.21875 
L 53.078125 20.21875 
L 48 0 
L 40.1875 0 
L 45.21875 20.21875 
L 30.90625 20.21875 
L 25.875 0 
L 18.015625 0 
L 23.09375 20.21875 
L 7.71875 20.21875 
L 7.71875 27.6875 
L 24.90625 27.6875 
L 29 44 
L 13.28125 44 
L 13.28125 51.515625 
L 30.90625 51.515625 
L 35.890625 71.78125 
z
" id="DejaVuSans-35"/>
       <path id="DejaVuSans-32"/>
       <path d="M 37.109375 75.984375 
L 37.109375 68.5 
L 28.515625 68.5 
Q 23.6875 68.5 21.796875 66.546875 
Q 19.921875 64.59375 19.921875 59.515625 
L 19.921875 54.6875 
L 34.71875 54.6875 
L 34.71875 47.703125 
L 19.921875 47.703125 
L 19.921875 0 
L 10.890625 0 
L 10.890625 47.703125 
L 2.296875 47.703125 
L 2.296875 54.6875 
L 10.890625 54.6875 
L 10.890625 58.5 
Q 10.890625 67.625 15.140625 71.796875 
Q 19.390625 75.984375 28.609375 75.984375 
z
" id="DejaVuSans-102"/>
       <path d="M 4.890625 31.390625 
L 31.203125 31.390625 
L 31.203125 23.390625 
L 4.890625 23.390625 
z
" id="DejaVuSans-45"/>
       <path d="M 56.203125 29.59375 
L 56.203125 25.203125 
L 14.890625 25.203125 
Q 15.484375 15.921875 20.484375 11.0625 
Q 25.484375 6.203125 34.421875 6.203125 
Q 39.59375 6.203125 44.453125 7.46875 
Q 49.3125 8.734375 54.109375 11.28125 
L 54.109375 2.78125 
Q 49.265625 0.734375 44.1875 -0.34375 
Q 39.109375 -1.421875 33.890625 -1.421875 
Q 20.796875 -1.421875 13.15625 6.1875 
Q 5.515625 13.8125 5.515625 26.8125 
Q 5.515625 40.234375 12.765625 48.109375 
Q 20.015625 56 32.328125 56 
Q 43.359375 56 49.78125 48.890625 
Q 56.203125 41.796875 56.203125 29.59375 
z
M 47.21875 32.234375 
Q 47.125 39.59375 43.09375 43.984375 
Q 39.0625 48.390625 32.421875 48.390625 
Q 24.90625 48.390625 20.390625 44.140625 
Q 15.875 39.890625 15.1875 32.171875 
z
" id="DejaVuSans-101"/>
       <path d="M 2.984375 54.6875 
L 12.5 54.6875 
L 29.59375 8.796875 
L 46.6875 54.6875 
L 56.203125 54.6875 
L 35.6875 0 
L 23.484375 0 
z
" id="DejaVuSans-118"/>
       <path d="M 34.28125 27.484375 
Q 23.390625 27.484375 19.1875 25 
Q 14.984375 22.515625 14.984375 16.5 
Q 14.984375 11.71875 18.140625 8.90625 
Q 21.296875 6.109375 26.703125 6.109375 
Q 34.1875 6.109375 38.703125 11.40625 
Q 43.21875 16.703125 43.21875 25.484375 
L 43.21875 27.484375 
z
M 52.203125 31.203125 
L 52.203125 0 
L 43.21875 0 
L 43.21875 8.296875 
Q 40.140625 3.328125 35.546875 0.953125 
Q 30.953125 -1.421875 24.3125 -1.421875 
Q 15.921875 -1.421875 10.953125 3.296875 
Q 6 8.015625 6 15.921875 
Q 6 25.140625 12.171875 29.828125 
Q 18.359375 34.515625 30.609375 34.515625 
L 43.21875 34.515625 
L 43.21875 35.40625 
Q 43.21875 41.609375 39.140625 45 
Q 35.0625 48.390625 27.6875 48.390625 
Q 23 48.390625 18.546875 47.265625 
Q 14.109375 46.140625 10.015625 43.890625 
L 10.015625 52.203125 
Q 14.9375 54.109375 19.578125 55.046875 
Q 24.21875 56 28.609375 56 
Q 40.484375 56 46.34375 49.84375 
Q 52.203125 43.703125 52.203125 31.203125 
z
" id="DejaVuSans-97"/>
       <path d="M 44.28125 53.078125 
L 44.28125 44.578125 
Q 40.484375 46.53125 36.375 47.5 
Q 32.28125 48.484375 27.875 48.484375 
Q 21.1875 48.484375 17.84375 46.4375 
Q 14.5 44.390625 14.5 40.28125 
Q 14.5 37.15625 16.890625 35.375 
Q 19.28125 33.59375 26.515625 31.984375 
L 29.59375 31.296875 
Q 39.15625 29.25 43.1875 25.515625 
Q 47.21875 21.78125 47.21875 15.09375 
Q 47.21875 7.46875 41.1875 3.015625 
Q 35.15625 -1.421875 24.609375 -1.421875 
Q 20.21875 -1.421875 15.453125 -0.5625 
Q 10.6875 0.296875 5.421875 2 
L 5.421875 11.28125 
Q 10.40625 8.6875 15.234375 7.390625 
Q 20.0625 6.109375 24.8125 6.109375 
Q 31.15625 6.109375 34.5625 8.28125 
Q 37.984375 10.453125 37.984375 14.40625 
Q 37.984375 18.0625 35.515625 20.015625 
Q 33.0625 21.96875 24.703125 23.78125 
L 21.578125 24.515625 
Q 13.234375 26.265625 9.515625 29.90625 
Q 5.8125 33.546875 5.8125 39.890625 
Q 5.8125 47.609375 11.28125 51.796875 
Q 16.75 56 26.8125 56 
Q 31.78125 56 36.171875 55.265625 
Q 40.578125 54.546875 44.28125 53.078125 
z
" id="DejaVuSans-115"/>
       <path d="M 25.390625 72.90625 
L 33.6875 72.90625 
L 8.296875 -9.28125 
L 0 -9.28125 
z
" id="DejaVuSans-47"/>
       <path d="M 45.40625 46.390625 
L 45.40625 75.984375 
L 54.390625 75.984375 
L 54.390625 0 
L 45.40625 0 
L 45.40625 8.203125 
Q 42.578125 3.328125 38.25 0.953125 
Q 33.9375 -1.421875 27.875 -1.421875 
Q 17.96875 -1.421875 11.734375 6.484375 
Q 5.515625 14.40625 5.515625 27.296875 
Q 5.515625 40.1875 11.734375 48.09375 
Q 17.96875 56 27.875 56 
Q 33.9375 56 38.25 53.625 
Q 42.578125 51.265625 45.40625 46.390625 
z
M 14.796875 27.296875 
Q 14.796875 17.390625 18.875 11.75 
Q 22.953125 6.109375 30.078125 6.109375 
Q 37.203125 6.109375 41.296875 11.75 
Q 45.40625 17.390625 45.40625 27.296875 
Q 45.40625 37.203125 41.296875 42.84375 
Q 37.203125 48.484375 30.078125 48.484375 
Q 22.953125 48.484375 18.875 42.84375 
Q 14.796875 37.203125 14.796875 27.296875 
z
" id="DejaVuSans-100"/>
       <path d="M 9.421875 54.6875 
L 18.40625 54.6875 
L 18.40625 0 
L 9.421875 0 
z
M 9.421875 75.984375 
L 18.40625 75.984375 
L 18.40625 64.59375 
L 9.421875 64.59375 
z
" id="DejaVuSans-105"/>
       <path d="M 52 44.1875 
Q 55.375 50.25 60.0625 53.125 
Q 64.75 56 71.09375 56 
Q 79.640625 56 84.28125 50.015625 
Q 88.921875 44.046875 88.921875 33.015625 
L 88.921875 0 
L 79.890625 0 
L 79.890625 32.71875 
Q 79.890625 40.578125 77.09375 44.375 
Q 74.3125 48.1875 68.609375 48.1875 
Q 61.625 48.1875 57.5625 43.546875 
Q 53.515625 38.921875 53.515625 30.90625 
L 53.515625 0 
L 44.484375 0 
L 44.484375 32.71875 
Q 44.484375 40.625 41.703125 44.40625 
Q 38.921875 48.1875 33.109375 48.1875 
Q 26.21875 48.1875 22.15625 43.53125 
Q 18.109375 38.875 18.109375 30.90625 
L 18.109375 0 
L 9.078125 0 
L 9.078125 54.6875 
L 18.109375 54.6875 
L 18.109375 46.1875 
Q 21.1875 51.21875 25.484375 53.609375 
Q 29.78125 56 35.6875 56 
Q 41.65625 56 45.828125 52.96875 
Q 50 49.953125 52 44.1875 
z
" id="DejaVuSans-109"/>
       <path d="M 54.890625 33.015625 
L 54.890625 0 
L 45.90625 0 
L 45.90625 32.71875 
Q 45.90625 40.484375 42.875 44.328125 
Q 39.84375 48.1875 33.796875 48.1875 
Q 26.515625 48.1875 22.3125 43.546875 
Q 18.109375 38.921875 18.109375 30.90625 
L 18.109375 0 
L 9.078125 0 
L 9.078125 54.6875 
L 18.109375 54.6875 
L 18.109375 46.1875 
Q 21.34375 51.125 25.703125 53.5625 
Q 30.078125 56 35.796875 56 
Q 45.21875 56 50.046875 50.171875 
Q 54.890625 44.34375 54.890625 33.015625 
z
" id="DejaVuSans-110"/>
       <path d="M 8.015625 75.875 
L 15.828125 75.875 
Q 23.140625 64.359375 26.78125 53.3125 
Q 30.421875 42.28125 30.421875 31.390625 
Q 30.421875 20.453125 26.78125 9.375 
Q 23.140625 -1.703125 15.828125 -13.1875 
L 8.015625 -13.1875 
Q 14.5 -2 17.703125 9.0625 
Q 20.90625 20.125 20.90625 31.390625 
Q 20.90625 42.671875 17.703125 53.65625 
Q 14.5 64.65625 8.015625 75.875 
z
" id="DejaVuSans-41"/>
      </defs>
      <use xlink:href="#DejaVuSans-108"/>
      <use x="27.783203" xlink:href="#DejaVuSans-111"/>
      <use x="88.964844" xlink:href="#DejaVuSans-103"/>
      <use x="152.441406" xlink:href="#DejaVuSans-49"/>
      <use x="216.064453" xlink:href="#DejaVuSans-48"/>
      <use x="279.6875" xlink:href="#DejaVuSans-40"/>
      <use x="318.701172" xlink:href="#DejaVuSans-35"/>
      <use x="402.490234" xlink:href="#DejaVuSans-32"/>
      <use x="434.277344" xlink:href="#DejaVuSans-102"/>
      <use x="463.982422" xlink:href="#DejaVuSans-45"/>
      <use x="500.066406" xlink:href="#DejaVuSans-101"/>
      <use x="561.589844" xlink:href="#DejaVuSans-118"/>
      <use x="620.769531" xlink:href="#DejaVuSans-97"/>
      <use x="682.048828" xlink:href="#DejaVuSans-108"/>
      <use x="709.832031" xlink:href="#DejaVuSans-115"/>
      <use x="761.931641" xlink:href="#DejaVuSans-32"/>
      <use x="793.71875" xlink:href="#DejaVuSans-47"/>
      <use x="827.410156" xlink:href="#DejaVuSans-32"/>
      <use x="859.197266" xlink:href="#DejaVuSans-100"/>
      <use x="922.673828" xlink:href="#DejaVuSans-105"/>
      <use x="950.457031" xlink:href="#DejaVuSans-109"/>
      <use x="1047.869141" xlink:href="#DejaVuSans-101"/>
      <use x="1109.392578" xlink:href="#DejaVuSans-110"/>
      <use x="1172.771484" xlink:href="#DejaVuSans-115"/>
      <use x="1224.871094" xlink:href="#DejaVuSans-105"/>
      <use x="1252.654297" xlink:href="#DejaVuSans-111"/>
      <use x="1313.835938" xlink:href="#DejaVuSans-110"/>
      <use x="1377.214844" xlink:href="#DejaVuSans-41"/>
     </g>
    </g>
   </g>
   <g id="matplotlib.axis_2">
    <g id="ytick_1">
     <g id="line2d_21">
      <path clip-path="url(#p2fadb763d6)" d="M 57.6 298.944 
L 338.688 298.944 
" style="fill:none;stroke:#b0b0b0;stroke-linecap:square;stroke-width:0.8;"/>
     </g>
     <g id="line2d_22">
      <defs>
       <path d="M 0 0 
L -3.5 0 
" id="m21ab4accb9" style="stroke:#000000;stroke-width:0.8;"/>
      </defs>
      <g>
       <use style="stroke:#000000;stroke-width:0.8;" x="57.6" xlink:href="#m21ab4accb9" y="298.944"/>
      </g>
     </g>
     <g id="text_6">
      <!-- 0.0 -->
      <g transform="translate(25.155 305.02275)scale(0.16 -0.16)">
       <defs>
        <path d="M 10.6875 12.40625 
L 21 12.40625 
L 21 0 
L 10.6875 0 
z
" id="DejaVuSans-46"/>
       </defs>
       <use xlink:href="#DejaVuSans-48"/>
       <use x="63.623047" xlink:href="#DejaVuSans-46"/>
       <use x="95.410156" xlink:href="#DejaVuSans-48"/>
      </g>
     </g>
    </g>
    <g id="ytick_2">
     <g id="line2d_23">
      <path clip-path="url(#p2fadb763d6)" d="M 57.6 245.22202 
L 338.688 245.22202 
" style="fill:none;stroke:#b0b0b0;stroke-linecap:square;stroke-width:0.8;"/>
     </g>
     <g id="line2d_24">
      <g>
       <use style="stroke:#000000;stroke-width:0.8;" x="57.6" xlink:href="#m21ab4accb9" y="245.22202"/>
      </g>
     </g>
     <g id="text_7">
      <!-- 0.2 -->
      <g transform="translate(25.155 251.30077)scale(0.16 -0.16)">
       <use xlink:href="#DejaVuSans-48"/>
       <use x="63.623047" xlink:href="#DejaVuSans-46"/>
       <use x="95.410156" xlink:href="#DejaVuSans-50"/>
      </g>
     </g>
    </g>
    <g id="ytick_3">
     <g id="line2d_25">
      <path clip-path="url(#p2fadb763d6)" d="M 57.6 191.50004 
L 338.688 191.50004 
" style="fill:none;stroke:#b0b0b0;stroke-linecap:square;stroke-width:0.8;"/>
     </g>
     <g id="line2d_26">
      <g>
       <use style="stroke:#000000;stroke-width:0.8;" x="57.6" xlink:href="#m21ab4accb9" y="191.50004"/>
      </g>
     </g>
     <g id="text_8">
      <!-- 0.4 -->
      <g transform="translate(25.155 197.57879)scale(0.16 -0.16)">
       <use xlink:href="#DejaVuSans-48"/>
       <use x="63.623047" xlink:href="#DejaVuSans-46"/>
       <use x="95.410156" xlink:href="#DejaVuSans-52"/>
      </g>
     </g>
    </g>
    <g id="ytick_4">
     <g id="line2d_27">
      <path clip-path="url(#p2fadb763d6)" d="M 57.6 137.778059 
L 338.688 137.778059 
" style="fill:none;stroke:#b0b0b0;stroke-linecap:square;stroke-width:0.8;"/>
     </g>
     <g id="line2d_28">
      <g>
       <use style="stroke:#000000;stroke-width:0.8;" x="57.6" xlink:href="#m21ab4accb9" y="137.778059"/>
      </g>
     </g>
     <g id="text_9">
      <!-- 0.6 -->
      <g transform="translate(25.155 143.856809)scale(0.16 -0.16)">
       <use xlink:href="#DejaVuSans-48"/>
       <use x="63.623047" xlink:href="#DejaVuSans-46"/>
       <use x="95.410156" xlink:href="#DejaVuSans-54"/>
      </g>
     </g>
    </g>
    <g id="ytick_5">
     <g id="line2d_29">
      <path clip-path="url(#p2fadb763d6)" d="M 57.6 84.056079 
L 338.688 84.056079 
" style="fill:none;stroke:#b0b0b0;stroke-linecap:square;stroke-width:0.8;"/>
     </g>
     <g id="line2d_30">
      <g>
       <use style="stroke:#000000;stroke-width:0.8;" x="57.6" xlink:href="#m21ab4accb9" y="84.056079"/>
      </g>
     </g>
     <g id="text_10">
      <!-- 0.8 -->
      <g transform="translate(25.155 90.134829)scale(0.16 -0.16)">
       <defs>
        <path d="M 31.78125 34.625 
Q 24.75 34.625 20.71875 30.859375 
Q 16.703125 27.09375 16.703125 20.515625 
Q 16.703125 13.921875 20.71875 10.15625 
Q 24.75 6.390625 31.78125 6.390625 
Q 38.8125 6.390625 42.859375 10.171875 
Q 46.921875 13.96875 46.921875 20.515625 
Q 46.921875 27.09375 42.890625 30.859375 
Q 38.875 34.625 31.78125 34.625 
z
M 21.921875 38.8125 
Q 15.578125 40.375 12.03125 44.71875 
Q 8.5 49.078125 8.5 55.328125 
Q 8.5 64.0625 14.71875 69.140625 
Q 20.953125 74.21875 31.78125 74.21875 
Q 42.671875 74.21875 48.875 69.140625 
Q 55.078125 64.0625 55.078125 55.328125 
Q 55.078125 49.078125 51.53125 44.71875 
Q 48 40.375 41.703125 38.8125 
Q 48.828125 37.15625 52.796875 32.3125 
Q 56.78125 27.484375 56.78125 20.515625 
Q 56.78125 9.90625 50.3125 4.234375 
Q 43.84375 -1.421875 31.78125 -1.421875 
Q 19.734375 -1.421875 13.25 4.234375 
Q 6.78125 9.90625 6.78125 20.515625 
Q 6.78125 27.484375 10.78125 32.3125 
Q 14.796875 37.15625 21.921875 38.8125 
z
M 18.3125 54.390625 
Q 18.3125 48.734375 21.84375 45.5625 
Q 25.390625 42.390625 31.78125 42.390625 
Q 38.140625 42.390625 41.71875 45.5625 
Q 45.3125 48.734375 45.3125 54.390625 
Q 45.3125 60.0625 41.71875 63.234375 
Q 38.140625 66.40625 31.78125 66.40625 
Q 25.390625 66.40625 21.84375 63.234375 
Q 18.3125 60.0625 18.3125 54.390625 
z
" id="DejaVuSans-56"/>
       </defs>
       <use xlink:href="#DejaVuSans-48"/>
       <use x="63.623047" xlink:href="#DejaVuSans-46"/>
       <use x="95.410156" xlink:href="#DejaVuSans-56"/>
      </g>
     </g>
    </g>
    <g id="ytick_6">
     <g id="line2d_31">
      <path clip-path="url(#p2fadb763d6)" d="M 57.6 30.334099 
L 338.688 30.334099 
" style="fill:none;stroke:#b0b0b0;stroke-linecap:square;stroke-width:0.8;"/>
     </g>
     <g id="line2d_32">
      <g>
       <use style="stroke:#000000;stroke-width:0.8;" x="57.6" xlink:href="#m21ab4accb9" y="30.334099"/>
      </g>
     </g>
     <g id="text_11">
      <!-- 1.0 -->
      <g transform="translate(25.155 36.412849)scale(0.16 -0.16)">
       <use xlink:href="#DejaVuSans-49"/>
       <use x="63.623047" xlink:href="#DejaVuSans-46"/>
       <use x="95.410156" xlink:href="#DejaVuSans-48"/>
      </g>
     </g>
    </g>
    <g id="text_12">
     <!-- Fraction of function,target pairs -->
     <g transform="translate(17.619531 297.681)rotate(-90)scale(0.17 -0.17)">
      <defs>
       <path d="M 9.8125 72.90625 
L 51.703125 72.90625 
L 51.703125 64.59375 
L 19.671875 64.59375 
L 19.671875 43.109375 
L 48.578125 43.109375 
L 48.578125 34.8125 
L 19.671875 34.8125 
L 19.671875 0 
L 9.8125 0 
z
" id="DejaVuSans-70"/>
       <path d="M 41.109375 46.296875 
Q 39.59375 47.171875 37.8125 47.578125 
Q 36.03125 48 33.890625 48 
Q 26.265625 48 22.1875 43.046875 
Q 18.109375 38.09375 18.109375 28.8125 
L 18.109375 0 
L 9.078125 0 
L 9.078125 54.6875 
L 18.109375 54.6875 
L 18.109375 46.1875 
Q 20.953125 51.171875 25.484375 53.578125 
Q 30.03125 56 36.53125 56 
Q 37.453125 56 38.578125 55.875 
Q 39.703125 55.765625 41.0625 55.515625 
z
" id="DejaVuSans-114"/>
       <path d="M 48.78125 52.59375 
L 48.78125 44.1875 
Q 44.96875 46.296875 41.140625 47.34375 
Q 37.3125 48.390625 33.40625 48.390625 
Q 24.65625 48.390625 19.8125 42.84375 
Q 14.984375 37.3125 14.984375 27.296875 
Q 14.984375 17.28125 19.8125 11.734375 
Q 24.65625 6.203125 33.40625 6.203125 
Q 37.3125 6.203125 41.140625 7.25 
Q 44.96875 8.296875 48.78125 10.40625 
L 48.78125 2.09375 
Q 45.015625 0.34375 40.984375 -0.53125 
Q 36.96875 -1.421875 32.421875 -1.421875 
Q 20.0625 -1.421875 12.78125 6.34375 
Q 5.515625 14.109375 5.515625 27.296875 
Q 5.515625 40.671875 12.859375 48.328125 
Q 20.21875 56 33.015625 56 
Q 37.15625 56 41.109375 55.140625 
Q 45.0625 54.296875 48.78125 52.59375 
z
" id="DejaVuSans-99"/>
       <path d="M 18.3125 70.21875 
L 18.3125 54.6875 
L 36.8125 54.6875 
L 36.8125 47.703125 
L 18.3125 47.703125 
L 18.3125 18.015625 
Q 18.3125 11.328125 20.140625 9.421875 
Q 21.96875 7.515625 27.59375 7.515625 
L 36.8125 7.515625 
L 36.8125 0 
L 27.59375 0 
Q 17.1875 0 13.234375 3.875 
Q 9.28125 7.765625 9.28125 18.015625 
L 9.28125 47.703125 
L 2.6875 47.703125 
L 2.6875 54.6875 
L 9.28125 54.6875 
L 9.28125 70.21875 
z
" id="DejaVuSans-116"/>
       <path d="M 8.5 21.578125 
L 8.5 54.6875 
L 17.484375 54.6875 
L 17.484375 21.921875 
Q 17.484375 14.15625 20.5 10.265625 
Q 23.53125 6.390625 29.59375 6.390625 
Q 36.859375 6.390625 41.078125 11.03125 
Q 45.3125 15.671875 45.3125 23.6875 
L 45.3125 54.6875 
L 54.296875 54.6875 
L 54.296875 0 
L 45.3125 0 
L 45.3125 8.40625 
Q 42.046875 3.421875 37.71875 1 
Q 33.40625 -1.421875 27.6875 -1.421875 
Q 18.265625 -1.421875 13.375 4.4375 
Q 8.5 10.296875 8.5 21.578125 
z
M 31.109375 56 
z
" id="DejaVuSans-117"/>
       <path d="M 11.71875 12.40625 
L 22.015625 12.40625 
L 22.015625 4 
L 14.015625 -11.625 
L 7.71875 -11.625 
L 11.71875 4 
z
" id="DejaVuSans-44"/>
       <path d="M 18.109375 8.203125 
L 18.109375 -20.796875 
L 9.078125 -20.796875 
L 9.078125 54.6875 
L 18.109375 54.6875 
L 18.109375 46.390625 
Q 20.953125 51.265625 25.265625 53.625 
Q 29.59375 56 35.59375 56 
Q 45.5625 56 51.78125 48.09375 
Q 58.015625 40.1875 58.015625 27.296875 
Q 58.015625 14.40625 51.78125 6.484375 
Q 45.5625 -1.421875 35.59375 -1.421875 
Q 29.59375 -1.421875 25.265625 0.953125 
Q 20.953125 3.328125 18.109375 8.203125 
z
M 48.6875 27.296875 
Q 48.6875 37.203125 44.609375 42.84375 
Q 40.53125 48.484375 33.40625 48.484375 
Q 26.265625 48.484375 22.1875 42.84375 
Q 18.109375 37.203125 18.109375 27.296875 
Q 18.109375 17.390625 22.1875 11.75 
Q 26.265625 6.109375 33.40625 6.109375 
Q 40.53125 6.109375 44.609375 11.75 
Q 48.6875 17.390625 48.6875 27.296875 
z
" id="DejaVuSans-112"/>
      </defs>
      <use xlink:href="#DejaVuSans-70"/>
      <use x="50.269531" xlink:href="#DejaVuSans-114"/>
      <use x="91.382812" xlink:href="#DejaVuSans-97"/>
      <use x="152.662109" xlink:href="#DejaVuSans-99"/>
      <use x="207.642578" xlink:href="#DejaVuSans-116"/>
      <use x="246.851562" xlink:href="#DejaVuSans-105"/>
      <use x="274.634766" xlink:href="#DejaVuSans-111"/>
      <use x="335.816406" xlink:href="#DejaVuSans-110"/>
      <use x="399.195312" xlink:href="#DejaVuSans-32"/>
      <use x="430.982422" xlink:href="#DejaVuSans-111"/>
      <use x="492.164062" xlink:href="#DejaVuSans-102"/>
      <use x="527.369141" xlink:href="#DejaVuSans-32"/>
      <use x="559.15625" xlink:href="#DejaVuSans-102"/>
      <use x="594.361328" xlink:href="#DejaVuSans-117"/>
      <use x="657.740234" xlink:href="#DejaVuSans-110"/>
      <use x="721.119141" xlink:href="#DejaVuSans-99"/>
      <use x="776.099609" xlink:href="#DejaVuSans-116"/>
      <use x="815.308594" xlink:href="#DejaVuSans-105"/>
      <use x="843.091797" xlink:href="#DejaVuSans-111"/>
      <use x="904.273438" xlink:href="#DejaVuSans-110"/>
      <use x="967.652344" xlink:href="#DejaVuSans-44"/>
      <use x="999.439453" xlink:href="#DejaVuSans-116"/>
      <use x="1038.648438" xlink:href="#DejaVuSans-97"/>
      <use x="1099.927734" xlink:href="#DejaVuSans-114"/>
      <use x="1139.291016" xlink:href="#DejaVuSans-103"/>
      <use x="1202.767578" xlink:href="#DejaVuSans-101"/>
      <use x="1264.291016" xlink:href="#DejaVuSans-116"/>
      <use x="1303.5" xlink:href="#DejaVuSans-32"/>
      <use x="1335.287109" xlink:href="#DejaVuSans-112"/>
      <use x="1398.763672" xlink:href="#DejaVuSans-97"/>
      <use x="1460.042969" xlink:href="#DejaVuSans-105"/>
      <use x="1487.826172" xlink:href="#DejaVuSans-114"/>
      <use x="1528.939453" xlink:href="#DejaVuSans-115"/>
     </g>
    </g>
   </g>
   <g id="line2d_33">
    <defs>
     <path d="M 0 1.5 
C 0.397805 1.5 0.77937 1.341951 1.06066 1.06066 
C 1.341951 0.77937 1.5 0.397805 1.5 0 
C 1.5 -0.397805 1.341951 -0.77937 1.06066 -1.06066 
C 0.77937 -1.341951 0.397805 -1.5 0 -1.5 
C -0.397805 -1.5 -0.77937 -1.341951 -1.06066 -1.06066 
C -1.341951 -0.77937 -1.5 -0.397805 -1.5 0 
C -1.5 0.397805 -1.341951 0.77937 -1.06066 1.06066 
C -0.77937 1.341951 -0.397805 1.5 0 1.5 
z
" id="m9d3762d692" style="stroke:#f5deb3;"/>
    </defs>
    <g>
     <use style="fill:#f5deb3;stroke:#f5deb3;" x="164.858371" xlink:href="#m9d3762d692" y="30.334099"/>
     <use style="fill:#f5deb3;stroke:#f5deb3;" x="164.858371" xlink:href="#m9d3762d692" y="30.334099"/>
    </g>
   </g>
   <g id="line2d_34">
    <defs>
     <path d="M 0 1.5 
C 0.397805 1.5 0.77937 1.341951 1.06066 1.06066 
C 1.341951 0.77937 1.5 0.397805 1.5 0 
C 1.5 -0.397805 1.341951 -0.77937 1.06066 -1.06066 
C 0.77937 -1.341951 0.397805 -1.5 0 -1.5 
C -0.397805 -1.5 -0.77937 -1.341951 -1.06066 -1.06066 
C -1.341951 -0.77937 -1.5 -0.397805 -1.5 0 
C -1.5 0.397805 -1.341951 0.77937 -1.06066 1.06066 
C -0.77937 1.341951 -0.397805 1.5 0 1.5 
z
" id="mf27e999c4d" style="stroke:#000080;"/>
    </defs>
    <g>
     <use style="fill:#000080;stroke:#000080;" x="170.536293" xlink:href="#mf27e999c4d" y="30.334099"/>
     <use style="fill:#000080;stroke:#000080;" x="170.536293" xlink:href="#mf27e999c4d" y="30.334099"/>
    </g>
   </g>
   <g id="line2d_35">
    <path d="M 121.105591 298.944 
L 121.105591 298.417314 
L 121.53454 298.417314 
L 121.53454 297.890628 
L 123.94666 297.890628 
L 123.94666 297.363942 
L 124.120571 297.363942 
L 124.120571 296.837256 
L 125.612332 296.837256 
L 125.612332 296.31057 
L 126.270496 296.31057 
L 126.270496 295.783884 
L 126.490073 295.783884 
L 126.490073 295.257197 
L 126.97016 295.257197 
L 126.97016 294.730511 
L 127.181154 294.730511 
L 127.245565 293.677139 
L 127.40556 293.677139 
L 127.40556 293.150453 
L 128.335875 293.150453 
L 128.335875 292.623767 
L 128.753602 292.623767 
L 128.753602 292.097081 
L 129.06046 292.097081 
L 129.06046 291.570395 
L 129.418863 291.570395 
L 129.418863 291.043709 
L 130.438511 291.043709 
L 130.465258 289.990337 
L 130.756803 289.990337 
L 130.756803 289.463651 
L 130.939826 289.463651 
L 131.043554 288.410278 
L 131.765283 288.410278 
L 131.839545 287.356906 
L 131.974877 287.356906 
L 131.974877 286.83022 
L 132.206187 286.83022 
L 132.266551 285.776848 
L 132.434469 285.776848 
L 132.434469 285.250162 
L 132.577122 285.250162 
L 132.577122 284.723476 
L 132.835661 284.723476 
L 132.882259 283.670104 
L 133.147807 283.670104 
L 133.147807 283.143418 
L 133.46572 283.143418 
L 133.46572 282.090045 
L 133.678192 282.090045 
L 133.678192 281.563359 
L 134.343353 281.563359 
L 134.343353 281.036673 
L 135.025276 281.036673 
L 135.025276 280.509987 
L 135.168726 280.509987 
L 135.168726 279.983301 
L 135.300881 279.983301 
L 135.411927 278.403243 
L 135.492247 278.403243 
L 135.552244 277.349871 
L 135.651784 277.349871 
L 135.651784 276.823185 
L 135.898175 276.823185 
L 135.907958 275.769812 
L 136.352172 275.769812 
L 136.352172 275.243126 
L 136.924311 275.243126 
L 136.96118 274.189754 
L 137.062172 274.189754 
L 137.107884 273.136382 
L 137.307607 273.136382 
L 137.307607 272.609696 
L 137.460387 272.609696 
L 137.460387 272.08301 
L 137.849713 272.08301 
L 137.867204 271.029638 
L 138.01518 271.029638 
L 138.01518 270.502952 
L 138.127497 270.502952 
L 138.127497 269.976266 
L 138.552866 269.976266 
L 138.552866 269.449579 
L 138.794909 269.449579 
L 138.869347 268.396207 
L 138.918797 268.396207 
L 139.000903 265.762777 
L 139.082624 265.762777 
L 139.131474 264.182719 
L 139.220677 264.182719 
L 139.220677 263.656033 
L 139.541262 263.656033 
L 139.541262 263.129347 
L 139.762215 263.129347 
L 139.762215 262.60266 
L 139.941641 262.60266 
L 139.941641 262.075974 
L 140.11924 262.075974 
L 140.11924 261.549288 
L 140.431411 261.549288 
L 140.431411 261.022602 
L 140.700981 261.022602 
L 140.782525 259.96923 
L 140.871049 259.96923 
L 140.871049 259.442544 
L 141.061324 259.442544 
L 141.133958 257.862486 
L 141.235139 257.862486 
L 141.235139 257.3358 
L 141.46423 257.3358 
L 141.485554 256.282427 
L 141.697369 256.282427 
L 141.704386 255.229055 
L 142.147664 255.229055 
L 142.243147 253.648997 
L 142.559927 253.648997 
L 142.559927 253.122311 
L 142.785553 253.122311 
L 142.877616 251.542253 
L 142.995272 251.542253 
L 142.995272 251.015567 
L 143.125078 251.015567 
L 143.196061 249.962195 
L 143.311596 249.962195 
L 143.311596 249.435508 
L 143.791143 249.435508 
L 143.816021 247.85545 
L 143.989178 247.85545 
L 143.989178 247.328764 
L 144.306265 247.328764 
L 144.306265 246.802078 
L 144.712404 246.802078 
L 144.765455 244.695334 
L 145.063071 244.695334 
L 145.172662 242.588589 
L 145.230066 242.588589 
L 145.230066 242.061903 
L 145.355693 242.061903 
L 145.355693 241.535217 
L 145.576196 241.535217 
L 145.581813 240.481845 
L 145.7495 240.481845 
L 145.799493 238.375101 
L 145.981585 238.375101 
L 146.06373 236.268356 
L 146.129168 236.268356 
L 146.129168 235.74167 
L 146.596391 235.74167 
L 146.654584 233.634926 
L 146.754644 233.634926 
L 146.843687 232.581554 
L 146.875005 232.581554 
L 146.937474 231.528182 
L 147.010073 231.528182 
L 147.010073 231.001496 
L 147.154371 231.001496 
L 147.154371 230.47481 
L 147.414169 230.47481 
L 147.484815 228.894751 
L 147.645223 228.894751 
L 147.71991 227.841379 
L 147.769524 227.841379 
L 147.833811 226.788007 
L 147.912611 226.788007 
L 147.912611 226.261321 
L 148.025265 226.261321 
L 148.025265 225.734635 
L 148.253233 225.734635 
L 148.253233 225.207949 
L 148.502028 225.207949 
L 148.506778 224.154577 
L 148.634538 224.154577 
L 148.634538 223.627891 
L 148.845415 223.627891 
L 148.87334 222.574518 
L 148.970728 222.574518 
L 149.053772 220.99446 
L 149.200437 220.99446 
L 149.200437 220.467774 
L 149.341352 220.467774 
L 149.391082 218.887716 
L 149.521512 218.887716 
L 149.597519 217.307658 
L 149.721991 217.307658 
L 149.83238 215.727599 
L 149.849978 215.727599 
L 149.911431 214.674227 
L 149.963932 214.674227 
L 149.963932 214.147541 
L 150.081486 214.147541 
L 150.081486 213.094169 
L 150.232701 213.094169 
L 150.232701 212.567483 
L 150.446473 212.567483 
L 150.535481 210.987425 
L 150.58614 210.987425 
L 150.657656 208.88068 
L 150.833094 208.88068 
L 150.833094 208.353994 
L 150.961462 208.353994 
L 151.0643 207.300622 
L 151.0766 207.300622 
L 151.146137 206.24725 
L 151.219462 206.24725 
L 151.308666 204.667192 
L 151.449647 204.667192 
L 151.513718 203.613819 
L 151.589498 203.613819 
L 151.589498 203.087133 
L 151.810952 203.087133 
L 151.877626 200.980389 
L 152.126375 200.980389 
L 152.214909 199.927017 
L 152.302996 199.927017 
L 152.302996 199.400331 
L 152.451351 199.400331 
L 152.451351 198.873645 
L 152.564618 198.873645 
L 152.654705 197.293586 
L 152.680893 197.293586 
L 152.785253 195.713528 
L 152.833495 195.713528 
L 152.833495 194.660156 
L 152.970072 194.660156 
L 152.970072 194.13347 
L 153.13475 194.13347 
L 153.174769 193.080098 
L 153.412975 193.080098 
L 153.463088 191.50004 
L 153.545105 191.50004 
L 153.545105 190.973354 
L 153.669178 190.973354 
L 153.697414 189.919981 
L 153.827414 189.919981 
L 153.827414 189.393295 
L 153.987696 189.393295 
L 154.025807 188.339923 
L 154.122443 188.339923 
L 154.208275 186.759865 
L 154.283459 186.759865 
L 154.371897 185.179807 
L 154.412564 185.179807 
L 154.517183 183.599748 
L 154.530637 183.599748 
L 154.564226 182.546376 
L 154.644576 182.546376 
L 154.744496 180.966318 
L 154.78099 180.966318 
L 154.8141 179.912946 
L 154.93278 179.912946 
L 155.017994 178.859574 
L 155.158017 178.859574 
L 155.158017 177.806202 
L 155.271165 177.806202 
L 155.332282 176.226143 
L 155.53024 176.226143 
L 155.587293 174.646085 
L 155.773004 174.646085 
L 155.854218 173.592713 
L 155.888465 173.592713 
L 155.981524 171.485969 
L 156.009346 171.485969 
L 156.024783 170.432596 
L 156.153918 170.432596 
L 156.153918 169.90591 
L 156.38821 169.90591 
L 156.451565 167.799166 
L 156.553655 167.799166 
L 156.553655 167.27248 
L 156.678946 167.27248 
L 156.741256 165.692422 
L 156.800392 165.692422 
L 156.897531 163.585677 
L 156.912202 163.585677 
L 156.976607 162.532305 
L 157.153952 162.532305 
L 157.171299 161.478933 
L 157.275019 161.478933 
L 157.326648 159.898875 
L 157.403807 159.898875 
L 157.44937 158.845503 
L 157.574059 158.845503 
L 157.63607 157.79213 
L 157.700665 157.79213 
L 157.700665 157.265444 
L 157.834707 157.265444 
L 157.876384 156.212072 
L 157.970486 156.212072 
L 158.075062 153.578642 
L 158.083291 153.578642 
L 158.146254 151.998584 
L 158.241633 151.998584 
L 158.257931 150.945211 
L 158.395856 150.945211 
L 158.492562 147.785095 
L 158.673779 147.785095 
L 158.753132 146.205037 
L 158.847883 146.205037 
L 158.847883 145.678351 
L 158.965601 145.678351 
L 159.035853 143.571606 
L 159.08253 143.571606 
L 159.08253 143.04492 
L 159.39565 143.04492 
L 159.499629 140.938176 
L 159.585388 140.938176 
L 159.673231 138.831432 
L 159.700748 138.831432 
L 159.770595 137.251373 
L 159.916863 137.251373 
L 160.025151 134.617943 
L 160.047219 134.617943 
L 160.157138 132.511199 
L 160.181471 132.511199 
L 160.268789 130.404454 
L 160.37011 130.404454 
L 160.461277 128.824396 
L 160.487579 128.824396 
L 160.594766 125.137593 
L 160.637457 125.137593 
L 160.637457 124.610907 
L 160.767258 124.610907 
L 160.832969 121.977477 
L 160.940389 121.977477 
L 161.033263 120.924105 
L 161.091058 120.924105 
L 161.148663 119.870733 
L 161.21983 119.870733 
L 161.327177 116.18393 
L 161.402155 116.18393 
L 161.424813 114.603872 
L 161.557895 114.603872 
L 161.589325 113.5505 
L 161.703344 113.5505 
L 161.7856 110.917069 
L 161.832113 110.917069 
L 161.88953 109.337011 
L 162.034438 109.337011 
L 162.034438 108.810325 
L 162.154281 108.810325 
L 162.247406 107.756953 
L 162.266835 107.756953 
L 162.355069 103.543464 
L 162.453536 103.543464 
L 162.56206 101.43672 
L 162.589615 101.43672 
L 162.693088 97.749917 
L 162.781292 97.749917 
L 162.879471 96.169859 
L 163.055638 96.169859 
L 163.127663 94.589801 
L 163.183022 94.589801 
L 163.293217 92.483056 
L 163.335883 92.483056 
L 163.398677 90.902998 
L 163.557683 90.902998 
L 163.557683 90.376312 
L 163.683455 90.376312 
L 163.770761 86.68951 
L 163.963658 86.68951 
L 163.992995 84.582765 
L 164.074879 84.582765 
L 164.140886 81.422649 
L 164.243282 81.422649 
L 164.339335 78.789218 
L 164.482429 78.789218 
L 164.577177 77.20916 
L 164.603615 77.20916 
L 164.701462 75.629102 
L 164.740822 75.629102 
L 164.843488 74.049044 
L 164.96035 74.049044 
L 164.993596 71.942299 
L 165.113126 71.942299 
L 165.222738 70.888927 
L 165.262757 70.888927 
L 165.31537 69.835555 
L 165.382267 69.835555 
L 165.477647 67.202125 
L 165.527827 67.202125 
L 165.629535 64.568694 
L 165.718267 64.568694 
L 165.797741 62.46195 
L 165.838222 62.46195 
L 165.932896 59.82852 
L 165.957358 59.82852 
L 166.046178 57.195089 
L 166.08782 57.195089 
L 166.146643 55.088345 
L 166.213873 55.088345 
L 166.284273 53.508287 
L 166.335605 53.508287 
L 166.335605 52.9816 
L 166.459886 52.9816 
L 166.551253 50.874856 
L 166.583288 50.874856 
L 166.679039 49.294798 
L 166.735904 49.294798 
L 166.735904 48.768112 
L 166.893817 48.768112 
L 166.946688 47.71474 
L 167.081444 47.71474 
L 167.125588 45.081309 
L 167.263834 45.081309 
L 167.338196 42.447879 
L 167.396171 42.447879 
L 167.460363 41.394507 
L 167.560988 41.394507 
L 167.588042 40.341135 
L 167.683191 40.341135 
L 167.683191 39.814448 
L 167.801403 39.814448 
L 167.886022 38.761076 
L 167.932855 38.761076 
L 167.995105 37.707704 
L 168.047843 37.707704 
L 168.091155 36.654332 
L 168.206643 36.654332 
L 168.257216 35.60096 
L 168.325944 35.60096 
L 168.398956 34.020902 
L 168.492813 34.020902 
L 168.55009 32.967529 
L 168.910505 32.967529 
L 168.939961 31.914157 
L 169.14477 31.914157 
L 169.14477 31.387471 
L 169.453259 31.387471 
L 169.453259 30.860785 
L 170.536293 30.860785 
L 170.536293 30.334099 
L 338.688 30.334099 
L 338.688 30.334099 
" style="fill:none;stroke:#000080;stroke-linecap:square;stroke-width:1.5;"/>
   </g>
   <g id="line2d_36">
    <defs>
     <path d="M 0 6 
C 1.591219 6 3.117479 5.367802 4.242641 4.242641 
C 5.367802 3.117479 6 1.591219 6 0 
C 6 -1.591219 5.367802 -3.117479 4.242641 -4.242641 
C 3.117479 -5.367802 1.591219 -6 0 -6 
C -1.591219 -6 -3.117479 -5.367802 -4.242641 -4.242641 
C -5.367802 -3.117479 -6 -1.591219 -6 0 
C -6 1.591219 -5.367802 3.117479 -4.242641 4.242641 
C -3.117479 5.367802 -1.591219 6 0 6 
z
" id="md6c2466057" style="stroke:#000080;stroke-width:1.5;"/>
    </defs>
    <g>
     <use style="fill-opacity:0;stroke:#000080;stroke-width:1.5;" x="152.654705" xlink:href="#md6c2466057" y="198.346959"/>
     <use style="fill-opacity:0;stroke:#000080;stroke-width:1.5;" x="170.536293" xlink:href="#md6c2466057" y="30.860785"/>
     <use style="fill-opacity:0;stroke:#000080;stroke-width:1.5;" x="170.536293" xlink:href="#md6c2466057" y="30.334099"/>
     <use style="fill-opacity:0;stroke:#000080;stroke-width:1.5;" x="170.536293" xlink:href="#md6c2466057" y="30.334099"/>
     <use style="fill-opacity:0;stroke:#000080;stroke-width:1.5;" x="338.688" xlink:href="#md6c2466057" y="30.334099"/>
    </g>
   </g>
   <g id="line2d_37">
    <path style="fill:none;stroke:#000080;stroke-linecap:square;stroke-width:1.5;"/>
    <g/>
   </g>
   <g id="line2d_38">
    <defs>
     <path d="M 0 1.5 
C 0.397805 1.5 0.77937 1.341951 1.06066 1.06066 
C 1.341951 0.77937 1.5 0.397805 1.5 0 
C 1.5 -0.397805 1.341951 -0.77937 1.06066 -1.06066 
C 0.77937 -1.341951 0.397805 -1.5 0 -1.5 
C -0.397805 -1.5 -0.77937 -1.341951 -1.06066 -1.06066 
C -1.341951 -0.77937 -1.5 -0.397805 -1.5 0 
C -1.5 0.397805 -1.341951 0.77937 -1.06066 1.06066 
C -0.77937 1.341951 -0.397805 1.5 0 1.5 
z
" id="mc15e24096f" style="stroke:#ff00ff;"/>
    </defs>
    <g>
     <use style="fill:#ff00ff;stroke:#ff00ff;" x="292.955927" xlink:href="#mc15e24096f" y="167.27248"/>
     <use style="fill:#ff00ff;stroke:#ff00ff;" x="292.955927" xlink:href="#mc15e24096f" y="167.27248"/>
    </g>
   </g>
   <g id="line2d_39">
    <path d="M 126.219429 298.944 
L 126.219429 298.417314 
L 144.540353 298.417314 
L 144.540353 297.890628 
L 152.788969 297.890628 
L 152.788969 297.363942 
L 153.090987 297.363942 
L 153.090987 296.837256 
L 153.430889 296.837256 
L 153.430889 296.31057 
L 156.138594 296.31057 
L 156.138594 295.783884 
L 156.577589 295.783884 
L 156.577589 295.257197 
L 160.071705 295.257197 
L 160.071705 294.730511 
L 160.186333 294.730511 
L 160.186333 294.203825 
L 161.240437 294.203825 
L 161.240437 293.677139 
L 161.640838 293.677139 
L 161.640838 293.150453 
L 162.309932 293.150453 
L 162.309932 292.623767 
L 162.462072 292.623767 
L 162.462072 292.097081 
L 164.362309 292.097081 
L 164.362309 291.570395 
L 168.766934 291.570395 
L 168.766934 291.043709 
L 170.993522 291.043709 
L 170.993522 290.517023 
L 171.718608 290.517023 
L 171.718608 289.990337 
L 172.135207 289.990337 
L 172.14623 288.936964 
L 172.42198 288.936964 
L 172.42198 288.410278 
L 172.68869 288.410278 
L 172.68869 287.883592 
L 174.275895 287.883592 
L 174.275895 287.356906 
L 174.984116 287.356906 
L 174.984116 286.83022 
L 175.358815 286.83022 
L 175.358815 286.303534 
L 176.583714 286.303534 
L 176.583714 285.776848 
L 177.786773 285.776848 
L 177.786773 285.250162 
L 179.125997 285.250162 
L 179.125997 284.723476 
L 180.695918 284.723476 
L 180.695918 284.19679 
L 181.197818 284.19679 
L 181.197818 283.670104 
L 183.037634 283.670104 
L 183.037634 283.143418 
L 184.560514 283.143418 
L 184.560514 282.616732 
L 188.057717 282.616732 
L 188.057717 282.090045 
L 188.90884 282.090045 
L 188.90884 281.563359 
L 189.255166 281.563359 
L 189.255166 281.036673 
L 189.594748 281.036673 
L 189.594748 280.509987 
L 190.847894 280.509987 
L 190.847894 279.983301 
L 192.45384 279.983301 
L 192.45384 279.456615 
L 192.851269 279.456615 
L 192.851269 278.929929 
L 193.105634 278.929929 
L 193.105634 278.403243 
L 194.60012 278.403243 
L 194.60012 277.876557 
L 195.392726 277.876557 
L 195.392726 277.349871 
L 197.60878 277.349871 
L 197.60878 276.823185 
L 198.891134 276.823185 
L 198.979409 275.769812 
L 199.333259 275.769812 
L 199.333259 275.243126 
L 200.081177 275.243126 
L 200.081177 274.71644 
L 200.682386 274.71644 
L 200.682386 274.189754 
L 202.54481 274.189754 
L 202.54481 273.663068 
L 203.175355 273.663068 
L 203.175355 273.136382 
L 203.624126 273.136382 
L 203.624126 272.609696 
L 204.998731 272.609696 
L 204.998731 272.08301 
L 205.932012 272.08301 
L 205.932012 271.556324 
L 206.558391 271.556324 
L 206.558391 271.029638 
L 207.129152 271.029638 
L 207.129152 270.502952 
L 210.463703 270.502952 
L 210.463703 269.976266 
L 211.218402 269.976266 
L 211.218402 269.449579 
L 211.688598 269.449579 
L 211.688598 268.922893 
L 212.094735 268.922893 
L 212.094735 268.396207 
L 212.670922 268.396207 
L 212.698831 266.816149 
L 212.932556 266.816149 
L 212.932556 266.289463 
L 213.213115 266.289463 
L 213.213115 265.762777 
L 213.389435 265.762777 
L 213.389435 265.236091 
L 213.765322 265.236091 
L 213.788724 264.182719 
L 214.386294 264.182719 
L 214.386294 263.656033 
L 214.959965 263.656033 
L 214.959965 263.129347 
L 215.340454 263.129347 
L 215.340454 262.60266 
L 215.74511 262.60266 
L 215.74511 262.075974 
L 215.907964 262.075974 
L 215.982976 261.022602 
L 216.274283 261.022602 
L 216.281983 259.96923 
L 216.429296 259.96923 
L 216.433161 258.915858 
L 216.631632 258.915858 
L 216.631632 258.389172 
L 216.81861 258.389172 
L 216.81861 257.862486 
L 216.980775 257.862486 
L 217.040314 256.282427 
L 217.219105 256.282427 
L 217.219105 255.755741 
L 217.742409 255.755741 
L 217.802534 254.702369 
L 218.506685 254.702369 
L 218.506685 254.175683 
L 219.331981 254.175683 
L 219.439892 252.068939 
L 219.571366 252.068939 
L 219.679335 251.015567 
L 219.909836 251.015567 
L 220.014398 249.435508 
L 220.139987 249.435508 
L 220.139987 248.908822 
L 221.199778 248.908822 
L 221.199778 248.382136 
L 221.59996 248.382136 
L 221.672726 247.328764 
L 221.967827 247.328764 
L 221.967827 246.802078 
L 222.291607 246.802078 
L 222.391027 245.748706 
L 222.886407 245.748706 
L 222.886407 245.22202 
L 223.217896 245.22202 
L 223.217896 244.695334 
L 224.361279 244.695334 
L 224.361279 243.641962 
L 224.495664 243.641962 
L 224.495664 243.115275 
L 225.056584 243.115275 
L 225.056584 242.588589 
L 225.630895 242.588589 
L 225.630895 241.535217 
L 226.741557 241.535217 
L 226.755567 240.481845 
L 227.587561 240.481845 
L 227.587561 239.955159 
L 227.765178 239.955159 
L 227.864878 238.375101 
L 227.921867 238.375101 
L 227.921867 237.321729 
L 228.060403 237.321729 
L 228.060403 236.268356 
L 228.328211 236.268356 
L 228.328211 235.74167 
L 229.026486 235.74167 
L 229.026486 235.214984 
L 229.191172 235.214984 
L 229.226233 234.161612 
L 229.438345 234.161612 
L 229.438345 233.10824 
L 229.622258 233.10824 
L 229.622258 232.581554 
L 230.836781 232.581554 
L 230.836781 232.054868 
L 230.986262 232.054868 
L 230.986262 231.528182 
L 231.147359 231.528182 
L 231.147359 231.001496 
L 231.862227 231.001496 
L 231.862227 230.47481 
L 232.235005 230.47481 
L 232.283154 229.421437 
L 232.42623 229.421437 
L 232.42623 228.894751 
L 233.036888 228.894751 
L 233.036888 228.368065 
L 234.05986 228.368065 
L 234.05986 227.314693 
L 234.410915 227.314693 
L 234.410915 226.788007 
L 235.157444 226.788007 
L 235.157444 226.261321 
L 235.343623 226.261321 
L 235.343623 225.734635 
L 235.462711 225.734635 
L 235.462711 225.207949 
L 235.825693 225.207949 
L 235.825693 224.154577 
L 236.017987 224.154577 
L 236.017987 223.627891 
L 236.193567 223.627891 
L 236.193567 223.101204 
L 236.359787 223.101204 
L 236.359787 222.574518 
L 236.535821 222.574518 
L 236.535821 222.047832 
L 236.80348 222.047832 
L 236.804682 220.99446 
L 236.976809 220.99446 
L 236.976809 220.467774 
L 237.197846 220.467774 
L 237.197846 219.414402 
L 237.718485 219.414402 
L 237.802637 218.36103 
L 237.947968 218.36103 
L 237.947968 217.834344 
L 238.252669 217.834344 
L 238.252669 217.307658 
L 239.67588 217.307658 
L 239.67588 216.780971 
L 240.040326 216.780971 
L 240.040326 216.254285 
L 240.219077 216.254285 
L 240.219077 215.200913 
L 240.704717 215.200913 
L 240.704717 214.674227 
L 240.946372 214.674227 
L 241.055764 213.094169 
L 241.16672 213.094169 
L 241.24461 211.514111 
L 241.767883 211.514111 
L 241.847392 210.460738 
L 241.967454 210.460738 
L 241.967454 209.934052 
L 242.095636 209.934052 
L 242.10373 208.88068 
L 242.279094 208.88068 
L 242.279094 208.353994 
L 243.019182 208.353994 
L 243.019182 207.827308 
L 244.329219 207.827308 
L 244.373381 206.773936 
L 244.499442 206.773936 
L 244.499442 206.24725 
L 244.953112 206.24725 
L 244.953112 204.667192 
L 245.395958 204.667192 
L 245.494488 202.560447 
L 245.86381 202.560447 
L 245.918085 200.453703 
L 246.054383 200.453703 
L 246.054383 199.927017 
L 246.543697 199.927017 
L 246.543697 199.400331 
L 247.067421 199.400331 
L 247.105522 198.346959 
L 247.431693 198.346959 
L 247.431693 197.820273 
L 248.046949 197.820273 
L 248.046949 197.293586 
L 248.585663 197.293586 
L 248.585663 196.240214 
L 248.809029 196.240214 
L 248.809029 195.713528 
L 249.114982 195.713528 
L 249.183069 194.13347 
L 249.273289 194.13347 
L 249.273289 193.606784 
L 249.971125 193.606784 
L 249.971125 193.080098 
L 250.94557 193.080098 
L 250.94557 192.553412 
L 251.844661 192.553412 
L 251.844661 192.026726 
L 253.142575 192.026726 
L 253.142575 191.50004 
L 253.82762 191.50004 
L 253.918668 189.919981 
L 253.993273 189.919981 
L 253.993273 189.393295 
L 254.43383 189.393295 
L 254.43383 188.866609 
L 254.744618 188.866609 
L 254.744618 188.339923 
L 255.478171 188.339923 
L 255.531128 187.286551 
L 255.956028 187.286551 
L 255.956028 186.759865 
L 256.076561 186.759865 
L 256.076561 186.233179 
L 256.349824 186.233179 
L 256.349824 185.706493 
L 257.984336 185.706493 
L 257.984336 185.179807 
L 258.20632 185.179807 
L 258.20632 184.653121 
L 258.808215 184.653121 
L 258.808215 184.126434 
L 258.957767 184.126434 
L 258.957767 183.599748 
L 259.194468 183.599748 
L 259.194468 183.073062 
L 259.989598 183.073062 
L 259.989598 182.546376 
L 260.805769 182.546376 
L 260.805769 182.01969 
L 261.180747 182.01969 
L 261.201391 180.966318 
L 261.380732 180.966318 
L 261.380732 180.439632 
L 261.978521 180.439632 
L 261.978521 179.912946 
L 262.159423 179.912946 
L 262.159423 179.38626 
L 262.605844 179.38626 
L 262.633245 177.806202 
L 264.819012 177.806202 
L 264.819012 177.279515 
L 265.10029 177.279515 
L 265.10029 176.752829 
L 266.307867 176.752829 
L 266.329203 175.699457 
L 267.427206 175.699457 
L 267.427206 175.172771 
L 268.266746 175.172771 
L 268.266746 174.646085 
L 270.140593 174.646085 
L 270.140593 174.119399 
L 270.269834 174.119399 
L 270.269834 173.592713 
L 275.024638 173.592713 
L 275.024638 173.066027 
L 275.458923 173.066027 
L 275.458923 172.539341 
L 276.790348 172.539341 
L 276.790348 172.012655 
L 278.608454 172.012655 
L 278.608454 171.485969 
L 279.597495 171.485969 
L 279.597495 170.959282 
L 280.591289 170.959282 
L 280.591289 170.432596 
L 283.693776 170.432596 
L 283.693776 169.90591 
L 284.068492 169.90591 
L 284.176584 168.852538 
L 285.228157 168.852538 
L 285.228157 168.325852 
L 287.028926 168.325852 
L 287.028926 167.799166 
L 292.955927 167.799166 
L 292.955927 167.27248 
L 338.688 167.27248 
L 338.688 167.27248 
" style="fill:none;stroke:#ff00ff;stroke-linecap:square;stroke-width:1.5;"/>
   </g>
   <g id="line2d_40">
    <defs>
     <path d="M -0 8.485281 
L 5.091169 0 
L 0 -8.485281 
L -5.091169 -0 
z
" id="m547b085d64" style="stroke:#ff00ff;stroke-linejoin:miter;stroke-width:1.5;"/>
    </defs>
    <g>
     <use style="fill-opacity:0;stroke:#ff00ff;stroke-linejoin:miter;stroke-width:1.5;" x="181.197818" xlink:href="#m547b085d64" y="283.670104"/>
     <use style="fill-opacity:0;stroke:#ff00ff;stroke-linejoin:miter;stroke-width:1.5;" x="237.802637" xlink:href="#m547b085d64" y="218.887716"/>
     <use style="fill-opacity:0;stroke:#ff00ff;stroke-linejoin:miter;stroke-width:1.5;" x="292.955927" xlink:href="#m547b085d64" y="167.799166"/>
     <use style="fill-opacity:0;stroke:#ff00ff;stroke-linejoin:miter;stroke-width:1.5;" x="292.955927" xlink:href="#m547b085d64" y="167.27248"/>
     <use style="fill-opacity:0;stroke:#ff00ff;stroke-linejoin:miter;stroke-width:1.5;" x="338.688" xlink:href="#m547b085d64" y="167.27248"/>
    </g>
   </g>
   <g id="line2d_41">
    <path style="fill:none;stroke:#ff00ff;stroke-linecap:square;stroke-width:1.5;"/>
    <g/>
   </g>
   <g id="line2d_42">
    <path clip-path="url(#p2fadb763d6)" d="M 218.221714 254.702369 
" style="fill:none;stroke:#ff00ff;stroke-linecap:square;stroke-width:1.5;"/>
    <defs>
     <path d="M -12 12 
L 12 -12 
M -12 -12 
L 12 12 
" id="m6e2ec4df3d" style="stroke:#ff00ff;"/>
    </defs>
    <g clip-path="url(#p2fadb763d6)">
     <use style="fill:#ff00ff;stroke:#ff00ff;" x="218.221714" xlink:href="#m6e2ec4df3d" y="254.702369"/>
    </g>
   </g>
   <g id="line2d_43">
    <path d="M 338.688 167.27248 
L 369.60768 293.571802 
" style="fill:none;stroke:#ff00ff;stroke-linecap:square;stroke-width:1.5;"/>
    <g>
     <use style="fill-opacity:0;stroke:#ff00ff;stroke-linejoin:miter;stroke-width:1.5;" x="338.688" xlink:href="#m547b085d64" y="167.27248"/>
     <use style="fill-opacity:0;stroke:#ff00ff;stroke-linejoin:miter;stroke-width:1.5;" x="369.60768" xlink:href="#m547b085d64" y="293.571802"/>
    </g>
   </g>
   <g id="line2d_44">
    <path d="M 338.688 30.334099 
L 369.60768 164.63905 
" style="fill:none;stroke:#000080;stroke-linecap:square;stroke-width:1.5;"/>
    <g>
     <use style="fill-opacity:0;stroke:#000080;stroke-width:1.5;" x="338.688" xlink:href="#md6c2466057" y="30.334099"/>
     <use style="fill-opacity:0;stroke:#000080;stroke-width:1.5;" x="369.60768" xlink:href="#md6c2466057" y="164.63905"/>
    </g>
   </g>
   <g id="line2d_45">
    <path d="M 338.688 298.944 
L 338.688 30.334099 
" style="fill:none;stroke:#000000;stroke-linecap:square;stroke-width:1.5;"/>
   </g>
   <g id="patch_3">
    <path d="M 57.6 298.944 
L 57.6 27.648 
" style="fill:none;stroke:#000000;stroke-linecap:square;stroke-linejoin:miter;stroke-width:0.8;"/>
   </g>
   <g id="patch_4">
    <path d="M 338.688 298.944 
L 338.688 27.648 
" style="fill:none;stroke:#000000;stroke-linecap:square;stroke-linejoin:miter;stroke-width:0.8;"/>
   </g>
   <g id="patch_5">
    <path d="M 57.6 298.944 
L 338.688 298.944 
" style="fill:none;stroke:#000000;stroke-linecap:square;stroke-linejoin:miter;stroke-width:0.8;"/>
   </g>
   <g id="patch_6">
    <path d="M 57.6 27.648 
L 338.688 27.648 
" style="fill:none;stroke:#000000;stroke-linecap:square;stroke-linejoin:miter;stroke-width:0.8;"/>
   </g>
   <g id="text_13">
    <!-- PSO -->
    <g transform="translate(375.22944 298.262739)scale(0.17 -0.17)">
     <defs>
      <path d="M 19.671875 64.796875 
L 19.671875 37.40625 
L 32.078125 37.40625 
Q 38.96875 37.40625 42.71875 40.96875 
Q 46.484375 44.53125 46.484375 51.125 
Q 46.484375 57.671875 42.71875 61.234375 
Q 38.96875 64.796875 32.078125 64.796875 
z
M 9.8125 72.90625 
L 32.078125 72.90625 
Q 44.34375 72.90625 50.609375 67.359375 
Q 56.890625 61.8125 56.890625 51.125 
Q 56.890625 40.328125 50.609375 34.8125 
Q 44.34375 29.296875 32.078125 29.296875 
L 19.671875 29.296875 
L 19.671875 0 
L 9.8125 0 
z
" id="DejaVuSans-80"/>
      <path d="M 53.515625 70.515625 
L 53.515625 60.890625 
Q 47.90625 63.578125 42.921875 64.890625 
Q 37.9375 66.21875 33.296875 66.21875 
Q 25.25 66.21875 20.875 63.09375 
Q 16.5 59.96875 16.5 54.203125 
Q 16.5 49.359375 19.40625 46.890625 
Q 22.3125 44.4375 30.421875 42.921875 
L 36.375 41.703125 
Q 47.40625 39.59375 52.65625 34.296875 
Q 57.90625 29 57.90625 20.125 
Q 57.90625 9.515625 50.796875 4.046875 
Q 43.703125 -1.421875 29.984375 -1.421875 
Q 24.8125 -1.421875 18.96875 -0.25 
Q 13.140625 0.921875 6.890625 3.21875 
L 6.890625 13.375 
Q 12.890625 10.015625 18.65625 8.296875 
Q 24.421875 6.59375 29.984375 6.59375 
Q 38.421875 6.59375 43.015625 9.90625 
Q 47.609375 13.234375 47.609375 19.390625 
Q 47.609375 24.75 44.3125 27.78125 
Q 41.015625 30.8125 33.5 32.328125 
L 27.484375 33.5 
Q 16.453125 35.6875 11.515625 40.375 
Q 6.59375 45.0625 6.59375 53.421875 
Q 6.59375 63.09375 13.40625 68.65625 
Q 20.21875 74.21875 32.171875 74.21875 
Q 37.3125 74.21875 42.625 73.28125 
Q 47.953125 72.359375 53.515625 70.515625 
z
" id="DejaVuSans-83"/>
      <path d="M 39.40625 66.21875 
Q 28.65625 66.21875 22.328125 58.203125 
Q 16.015625 50.203125 16.015625 36.375 
Q 16.015625 22.609375 22.328125 14.59375 
Q 28.65625 6.59375 39.40625 6.59375 
Q 50.140625 6.59375 56.421875 14.59375 
Q 62.703125 22.609375 62.703125 36.375 
Q 62.703125 50.203125 56.421875 58.203125 
Q 50.140625 66.21875 39.40625 66.21875 
z
M 39.40625 74.21875 
Q 54.734375 74.21875 63.90625 63.9375 
Q 73.09375 53.65625 73.09375 36.375 
Q 73.09375 19.140625 63.90625 8.859375 
Q 54.734375 -1.421875 39.40625 -1.421875 
Q 24.03125 -1.421875 14.8125 8.828125 
Q 5.609375 19.09375 5.609375 36.375 
Q 5.609375 53.65625 14.8125 63.9375 
Q 24.03125 74.21875 39.40625 74.21875 
z
" id="DejaVuSans-79"/>
     </defs>
     <use xlink:href="#DejaVuSans-80"/>
     <use x="60.302734" xlink:href="#DejaVuSans-83"/>
     <use x="123.779297" xlink:href="#DejaVuSans-79"/>
    </g>
   </g>
   <g id="text_14">
    <!-- outputCMA -->
    <g transform="translate(375.22944 169.329987)scale(0.17 -0.17)">
     <defs>
      <path d="M 64.40625 67.28125 
L 64.40625 56.890625 
Q 59.421875 61.53125 53.78125 63.8125 
Q 48.140625 66.109375 41.796875 66.109375 
Q 29.296875 66.109375 22.65625 58.46875 
Q 16.015625 50.828125 16.015625 36.375 
Q 16.015625 21.96875 22.65625 14.328125 
Q 29.296875 6.6875 41.796875 6.6875 
Q 48.140625 6.6875 53.78125 8.984375 
Q 59.421875 11.28125 64.40625 15.921875 
L 64.40625 5.609375 
Q 59.234375 2.09375 53.4375 0.328125 
Q 47.65625 -1.421875 41.21875 -1.421875 
Q 24.65625 -1.421875 15.125 8.703125 
Q 5.609375 18.84375 5.609375 36.375 
Q 5.609375 53.953125 15.125 64.078125 
Q 24.65625 74.21875 41.21875 74.21875 
Q 47.75 74.21875 53.53125 72.484375 
Q 59.328125 70.75 64.40625 67.28125 
z
" id="DejaVuSans-67"/>
      <path d="M 9.8125 72.90625 
L 24.515625 72.90625 
L 43.109375 23.296875 
L 61.8125 72.90625 
L 76.515625 72.90625 
L 76.515625 0 
L 66.890625 0 
L 66.890625 64.015625 
L 48.09375 14.015625 
L 38.1875 14.015625 
L 19.390625 64.015625 
L 19.390625 0 
L 9.8125 0 
z
" id="DejaVuSans-77"/>
      <path d="M 34.1875 63.1875 
L 20.796875 26.90625 
L 47.609375 26.90625 
z
M 28.609375 72.90625 
L 39.796875 72.90625 
L 67.578125 0 
L 57.328125 0 
L 50.6875 18.703125 
L 17.828125 18.703125 
L 11.1875 0 
L 0.78125 0 
z
" id="DejaVuSans-65"/>
     </defs>
     <use xlink:href="#DejaVuSans-111"/>
     <use x="61.181641" xlink:href="#DejaVuSans-117"/>
     <use x="124.560547" xlink:href="#DejaVuSans-116"/>
     <use x="163.769531" xlink:href="#DejaVuSans-112"/>
     <use x="227.246094" xlink:href="#DejaVuSans-117"/>
     <use x="290.625" xlink:href="#DejaVuSans-116"/>
     <use x="329.833984" xlink:href="#DejaVuSans-67"/>
     <use x="399.658203" xlink:href="#DejaVuSans-77"/>
     <use x="485.9375" xlink:href="#DejaVuSans-65"/>
    </g>
   </g>
   <g id="text_15">
    <!-- best 2009 -->
    <g transform="translate(375.22944 40.397235)scale(0.17 -0.17)">
     <defs>
      <path d="M 48.6875 27.296875 
Q 48.6875 37.203125 44.609375 42.84375 
Q 40.53125 48.484375 33.40625 48.484375 
Q 26.265625 48.484375 22.1875 42.84375 
Q 18.109375 37.203125 18.109375 27.296875 
Q 18.109375 17.390625 22.1875 11.75 
Q 26.265625 6.109375 33.40625 6.109375 
Q 40.53125 6.109375 44.609375 11.75 
Q 48.6875 17.390625 48.6875 27.296875 
z
M 18.109375 46.390625 
Q 20.953125 51.265625 25.265625 53.625 
Q 29.59375 56 35.59375 56 
Q 45.5625 56 51.78125 48.09375 
Q 58.015625 40.1875 58.015625 27.296875 
Q 58.015625 14.40625 51.78125 6.484375 
Q 45.5625 -1.421875 35.59375 -1.421875 
Q 29.59375 -1.421875 25.265625 0.953125 
Q 20.953125 3.328125 18.109375 8.203125 
L 18.109375 0 
L 9.078125 0 
L 9.078125 75.984375 
L 18.109375 75.984375 
z
" id="DejaVuSans-98"/>
      <path d="M 10.984375 1.515625 
L 10.984375 10.5 
Q 14.703125 8.734375 18.5 7.8125 
Q 22.3125 6.890625 25.984375 6.890625 
Q 35.75 6.890625 40.890625 13.453125 
Q 46.046875 20.015625 46.78125 33.40625 
Q 43.953125 29.203125 39.59375 26.953125 
Q 35.25 24.703125 29.984375 24.703125 
Q 19.046875 24.703125 12.671875 31.3125 
Q 6.296875 37.9375 6.296875 49.421875 
Q 6.296875 60.640625 12.9375 67.421875 
Q 19.578125 74.21875 30.609375 74.21875 
Q 43.265625 74.21875 49.921875 64.515625 
Q 56.59375 54.828125 56.59375 36.375 
Q 56.59375 19.140625 48.40625 8.859375 
Q 40.234375 -1.421875 26.421875 -1.421875 
Q 22.703125 -1.421875 18.890625 -0.6875 
Q 15.09375 0.046875 10.984375 1.515625 
z
M 30.609375 32.421875 
Q 37.25 32.421875 41.125 36.953125 
Q 45.015625 41.5 45.015625 49.421875 
Q 45.015625 57.28125 41.125 61.84375 
Q 37.25 66.40625 30.609375 66.40625 
Q 23.96875 66.40625 20.09375 61.84375 
Q 16.21875 57.28125 16.21875 49.421875 
Q 16.21875 41.5 20.09375 36.953125 
Q 23.96875 32.421875 30.609375 32.421875 
z
" id="DejaVuSans-57"/>
     </defs>
     <use xlink:href="#DejaVuSans-98"/>
     <use x="63.476562" xlink:href="#DejaVuSans-101"/>
     <use x="125" xlink:href="#DejaVuSans-115"/>
     <use x="177.099609" xlink:href="#DejaVuSans-116"/>
     <use x="216.308594" xlink:href="#DejaVuSans-32"/>
     <use x="248.095703" xlink:href="#DejaVuSans-50"/>
     <use x="311.71875" xlink:href="#DejaVuSans-48"/>
     <use x="375.341797" xlink:href="#DejaVuSans-48"/>
     <use x="438.964844" xlink:href="#DejaVuSans-57"/>
    </g>
   </g>
   <g id="text_16">
    <!-- bbob f6, 20-D -->
    <g transform="translate(60.41088 38.111366)scale(0.102 -0.102)">
     <defs>
      <path d="M 19.671875 64.796875 
L 19.671875 8.109375 
L 31.59375 8.109375 
Q 46.6875 8.109375 53.6875 14.9375 
Q 60.6875 21.78125 60.6875 36.53125 
Q 60.6875 51.171875 53.6875 57.984375 
Q 46.6875 64.796875 31.59375 64.796875 
z
M 9.8125 72.90625 
L 30.078125 72.90625 
Q 51.265625 72.90625 61.171875 64.09375 
Q 71.09375 55.28125 71.09375 36.53125 
Q 71.09375 17.671875 61.125 8.828125 
Q 51.171875 0 30.078125 0 
L 9.8125 0 
z
" id="DejaVuSans-68"/>
     </defs>
     <use xlink:href="#DejaVuSans-98"/>
     <use x="63.476562" xlink:href="#DejaVuSans-98"/>
     <use x="126.953125" xlink:href="#DejaVuSans-111"/>
     <use x="188.134766" xlink:href="#DejaVuSans-98"/>
     <use x="251.611328" xlink:href="#DejaVuSans-32"/>
     <use x="283.398438" xlink:href="#DejaVuSans-102"/>
     <use x="318.603516" xlink:href="#DejaVuSans-54"/>
     <use x="382.226562" xlink:href="#DejaVuSans-44"/>
     <use x="414.013672" xlink:href="#DejaVuSans-32"/>
     <use x="445.800781" xlink:href="#DejaVuSans-50"/>
     <use x="509.423828" xlink:href="#DejaVuSans-48"/>
     <use x="573.046875" xlink:href="#DejaVuSans-45"/>
     <use x="609.130859" xlink:href="#DejaVuSans-68"/>
    </g>
    <!-- 51 targets: 100..1e-08 -->
    <g transform="translate(60.41088 49.533135)scale(0.102 -0.102)">
     <defs>
      <path d="M 10.796875 72.90625 
L 49.515625 72.90625 
L 49.515625 64.59375 
L 19.828125 64.59375 
L 19.828125 46.734375 
Q 21.96875 47.46875 24.109375 47.828125 
Q 26.265625 48.1875 28.421875 48.1875 
Q 40.625 48.1875 47.75 41.5 
Q 54.890625 34.8125 54.890625 23.390625 
Q 54.890625 11.625 47.5625 5.09375 
Q 40.234375 -1.421875 26.90625 -1.421875 
Q 22.3125 -1.421875 17.546875 -0.640625 
Q 12.796875 0.140625 7.71875 1.703125 
L 7.71875 11.625 
Q 12.109375 9.234375 16.796875 8.0625 
Q 21.484375 6.890625 26.703125 6.890625 
Q 35.15625 6.890625 40.078125 11.328125 
Q 45.015625 15.765625 45.015625 23.390625 
Q 45.015625 31 40.078125 35.4375 
Q 35.15625 39.890625 26.703125 39.890625 
Q 22.75 39.890625 18.8125 39.015625 
Q 14.890625 38.140625 10.796875 36.28125 
z
" id="DejaVuSans-53"/>
      <path d="M 11.71875 12.40625 
L 22.015625 12.40625 
L 22.015625 0 
L 11.71875 0 
z
M 11.71875 51.703125 
L 22.015625 51.703125 
L 22.015625 39.3125 
L 11.71875 39.3125 
z
" id="DejaVuSans-58"/>
     </defs>
     <use xlink:href="#DejaVuSans-53"/>
     <use x="63.623047" xlink:href="#DejaVuSans-49"/>
     <use x="127.246094" xlink:href="#DejaVuSans-32"/>
     <use x="159.033203" xlink:href="#DejaVuSans-116"/>
     <use x="198.242188" xlink:href="#DejaVuSans-97"/>
     <use x="259.521484" xlink:href="#DejaVuSans-114"/>
     <use x="298.884766" xlink:href="#DejaVuSans-103"/>
     <use x="362.361328" xlink:href="#DejaVuSans-101"/>
     <use x="423.884766" xlink:href="#DejaVuSans-116"/>
     <use x="463.09375" xlink:href="#DejaVuSans-115"/>
     <use x="515.193359" xlink:href="#DejaVuSans-58"/>
     <use x="548.884766" xlink:href="#DejaVuSans-32"/>
     <use x="580.671875" xlink:href="#DejaVuSans-49"/>
     <use x="644.294922" xlink:href="#DejaVuSans-48"/>
     <use x="707.917969" xlink:href="#DejaVuSans-48"/>
     <use x="771.541016" xlink:href="#DejaVuSans-46"/>
     <use x="803.328125" xlink:href="#DejaVuSans-46"/>
     <use x="835.115234" xlink:href="#DejaVuSans-49"/>
     <use x="898.738281" xlink:href="#DejaVuSans-101"/>
     <use x="960.261719" xlink:href="#DejaVuSans-45"/>
     <use x="996.345703" xlink:href="#DejaVuSans-48"/>
     <use x="1059.96875" xlink:href="#DejaVuSans-56"/>
    </g>
    <!-- 15 instances -->
    <g transform="translate(60.41088 60.954904)scale(0.102 -0.102)">
     <use xlink:href="#DejaVuSans-49"/>
     <use x="63.623047" xlink:href="#DejaVuSans-53"/>
     <use x="127.246094" xlink:href="#DejaVuSans-32"/>
     <use x="159.033203" xlink:href="#DejaVuSans-105"/>
     <use x="186.816406" xlink:href="#DejaVuSans-110"/>
     <use x="250.195312" xlink:href="#DejaVuSans-115"/>
     <use x="302.294922" xlink:href="#DejaVuSans-116"/>
     <use x="341.503906" xlink:href="#DejaVuSans-97"/>
     <use x="402.783203" xlink:href="#DejaVuSans-110"/>
     <use x="466.162109" xlink:href="#DejaVuSans-99"/>
     <use x="521.142578" xlink:href="#DejaVuSans-101"/>
     <use x="582.666016" xlink:href="#DejaVuSans-115"/>
    </g>
   </g>
   <g id="text_17">
    <!-- v2.4 -->
    <g style="fill:#808080;" transform="translate(187.233062 294.151352)scale(0.1 -0.1)">
     <use xlink:href="#DejaVuSans-118"/>
     <use x="59.179688" xlink:href="#DejaVuSans-50"/>
     <use x="122.802734" xlink:href="#DejaVuSans-46"/>
     <use x="154.589844" xlink:href="#DejaVuSans-52"/>
    </g>
   </g>
   <g id="text_18">
    <!-- 6 Attractive sector -->
    <g transform="translate(105.40025 21.648)scale(0.2 -0.2)">
     <use xlink:href="#DejaVuSans-54"/>
     <use x="63.623047" xlink:href="#DejaVuSans-32"/>
     <use x="95.410156" xlink:href="#DejaVuSans-65"/>
     <use x="162.068359" xlink:href="#DejaVuSans-116"/>
     <use x="201.277344" xlink:href="#DejaVuSans-116"/>
     <use x="240.486328" xlink:href="#DejaVuSans-114"/>
     <use x="281.599609" xlink:href="#DejaVuSans-97"/>
     <use x="342.878906" xlink:href="#DejaVuSans-99"/>
     <use x="397.859375" xlink:href="#DejaVuSans-116"/>
     <use x="437.068359" xlink:href="#DejaVuSans-105"/>
     <use x="464.851562" xlink:href="#DejaVuSans-118"/>
     <use x="524.03125" xlink:href="#DejaVuSans-101"/>
     <use x="585.554688" xlink:href="#DejaVuSans-32"/>
     <use x="617.341797" xlink:href="#DejaVuSans-115"/>
     <use x="669.441406" xlink:href="#DejaVuSans-101"/>
     <use x="730.964844" xlink:href="#DejaVuSans-99"/>
     <use x="785.945312" xlink:href="#DejaVuSans-116"/>
     <use x="825.154297" xlink:href="#DejaVuSans-111"/>
     <use x="886.335938" xlink:href="#DejaVuSans-114"/>
    </g>
   </g>
  </g>
 </g>
 <defs>
  <clipPath id="p2fadb763d6">
   <rect height="271.296" width="281.088" x="57.6" y="27.648"/>
  </clipPath>
 </defs>
</svg>
