<?xml version="1.0" encoding="utf-8" standalone="no"?>
<!DOCTYPE svg PUBLIC "-//W3C//DTD SVG 1.1//EN"
  "http://www.w3.org/Graphics/SVG/1.1/DTD/svg11.dtd">
<!-- Created with matplotlib (https://matplotlib.org/) -->
<svg height="345.6pt" version="1.1" viewBox="0 0 460.8 345.6" width="460.8pt" xmlns="http://www.w3.org/2000/svg" xmlns:xlink="http://www.w3.org/1999/xlink">
 <metadata>
  <rdf:RDF xmlns:cc="http://creativecommons.org/ns#" xmlns:dc="http://purl.org/dc/elements/1.1/" xmlns:rdf="http://www.w3.org/1999/02/22-rdf-syntax-ns#">
   <cc:Work>
    <dc:type rdf:resource="http://purl.org/dc/dcmitype/StillImage"/>
    <dc:date>2021-04-27T05:15:02.650409</dc:date>
    <dc:format>image/svg+xml</dc:format>
    <dc:creator>
     <cc:Agent>
      <dc:title>Matplotlib v3.3.4, https://matplotlib.org/</dc:title>
     </cc:Agent>
    </dc:creator>
   </cc:Work>
  </rdf:RDF>
 </metadata>
 <defs>
  <style type="text/css">*{stroke-linecap:butt;stroke-linejoin:round;}</style>
 </defs>
 <g id="figure_1">
  <g id="patch_1">
   <path d="M 0 345.6 
L 460.8 345.6 
L 460.8 0 
L 0 0 
z
" style="fill:#ffffff;"/>
  </g>
  <g id="axes_1">
   <g id="patch_2">
    <path d="M 57.6 298.944 
L 338.688 298.944 
L 338.688 27.648 
L 57.6 27.648 
z
" style="fill:#ffffff;"/>
   </g>
   <g id="line2d_1">
    <path d="M 38.440992 298.944 
L 38.440992 293.677139 
L 50.52898 293.677139 
L 50.52898 288.410278 
L 57.6 288.410278 
L 57.6 283.143418 
L 74.704957 283.143418 
L 74.704957 277.876557 
L 78.59642 277.876557 
L 78.59642 272.609696 
L 103.203018 272.609696 
L 103.203018 267.342835 
L 110.694282 267.342835 
L 110.694282 262.075974 
L 121.785469 262.075974 
L 121.785469 256.809114 
L 131.523818 256.809114 
L 131.523818 251.542253 
L 134.236034 251.542253 
L 134.236034 246.275392 
L 138.981779 246.275392 
L 138.981779 241.008531 
L 142.306513 241.008531 
L 142.306513 235.74167 
L 144.629556 235.74167 
L 144.629556 230.47481 
L 146.107383 230.47481 
L 146.107383 225.207949 
L 148.193699 225.207949 
L 148.193699 219.941088 
L 149.467659 219.941088 
L 149.467659 214.674227 
L 151.421542 214.674227 
L 151.421542 209.407366 
L 151.76636 209.407366 
L 151.76636 204.140506 
L 152.078714 204.140506 
L 152.078714 198.873645 
L 152.983548 198.873645 
L 152.983548 193.606784 
L 154.77436 193.606784 
L 154.77436 188.339923 
L 163.225959 188.339923 
L 163.225959 183.073062 
L 163.841212 183.073062 
L 163.841212 177.806202 
L 164.308016 177.806202 
L 164.308016 172.539341 
L 165.157053 172.539341 
L 165.157053 167.27248 
L 169.767149 167.27248 
L 169.767149 162.005619 
L 170.237885 162.005619 
L 170.237885 156.738758 
L 170.5984 156.738758 
L 170.5984 151.471897 
L 171.177424 151.471897 
L 171.177424 146.205037 
L 171.687629 146.205037 
L 171.687629 140.938176 
L 172.337411 140.938176 
L 172.337411 135.671315 
L 178.643741 135.671315 
L 178.643741 130.404454 
L 178.889448 130.404454 
L 178.889448 125.137593 
L 178.961385 125.137593 
L 178.961385 119.870733 
L 179.093418 119.870733 
L 179.093418 114.603872 
L 179.213577 114.603872 
L 179.213577 109.337011 
L 179.370713 109.337011 
L 179.370713 104.07015 
L 179.429948 104.07015 
L 179.429948 98.803289 
L 179.494339 98.803289 
L 179.494339 93.536429 
L 179.627729 93.536429 
L 179.627729 88.269568 
L 179.69669 88.269568 
L 179.69669 83.002707 
L 179.812776 83.002707 
L 179.812776 77.735846 
L 179.849552 77.735846 
L 179.849552 72.468985 
L 179.881012 72.468985 
L 179.881012 67.202125 
L 179.907185 67.202125 
L 179.907185 61.935264 
L 180.047846 61.935264 
L 180.047846 56.668403 
L 180.115169 56.668403 
L 180.115169 51.401542 
L 180.202817 51.401542 
L 180.202817 46.134681 
L 180.264422 46.134681 
L 180.264422 40.867821 
L 180.32581 40.867821 
L 180.32581 35.60096 
L 180.386982 35.60096 
L 180.386982 30.334099 
L 338.688 30.334099 
" style="fill:none;stroke:#f5deb3;stroke-linecap:square;stroke-width:4;"/>
   </g>
   <g id="line2d_2">
    <defs>
     <path d="M -0 7.778175 
L 7.778175 0 
L 0 -7.778175 
L -7.778175 -0 
z
" id="ma3deeb31fb" style="stroke:#f5deb3;stroke-linejoin:miter;stroke-width:1.5;"/>
    </defs>
    <g>
     <use style="fill:#f5deb3;stroke:#f5deb3;stroke-linejoin:miter;stroke-width:1.5;" x="149.467659" xlink:href="#ma3deeb31fb" y="214.674227"/>
     <use style="fill:#f5deb3;stroke:#f5deb3;stroke-linejoin:miter;stroke-width:1.5;" x="179.093418" xlink:href="#ma3deeb31fb" y="119.870733"/>
     <use style="fill:#f5deb3;stroke:#f5deb3;stroke-linejoin:miter;stroke-width:1.5;" x="180.386982" xlink:href="#ma3deeb31fb" y="35.60096"/>
     <use style="fill:#f5deb3;stroke:#f5deb3;stroke-linejoin:miter;stroke-width:1.5;" x="180.386982" xlink:href="#ma3deeb31fb" y="30.334099"/>
     <use style="fill:#f5deb3;stroke:#f5deb3;stroke-linejoin:miter;stroke-width:1.5;" x="180.386982" xlink:href="#ma3deeb31fb" y="30.334099"/>
     <use style="fill:#f5deb3;stroke:#f5deb3;stroke-linejoin:miter;stroke-width:1.5;" x="338.688" xlink:href="#ma3deeb31fb" y="30.334099"/>
    </g>
   </g>
   <g id="line2d_3">
    <path style="fill:none;stroke:#f5deb3;stroke-linecap:square;stroke-width:4;"/>
    <g/>
   </g>
   <g id="line2d_4">
    <path d="M 338.688 30.334099 
L 369.60768 35.706297 
" style="fill:none;stroke:#f5deb3;stroke-linecap:square;stroke-width:4;"/>
    <g>
     <use style="fill:#f5deb3;stroke:#f5deb3;stroke-linejoin:miter;stroke-width:1.5;" x="338.688" xlink:href="#ma3deeb31fb" y="30.334099"/>
     <use style="fill:#f5deb3;stroke:#f5deb3;stroke-linejoin:miter;stroke-width:1.5;" x="369.60768" xlink:href="#ma3deeb31fb" y="35.706297"/>
    </g>
   </g>
   <g id="matplotlib.axis_1">
    <g id="xtick_1">
     <g id="line2d_5">
      <path clip-path="url(#pe9ad6de59c)" d="M 57.6 298.944 
L 57.6 27.648 
" style="fill:none;stroke:#b0b0b0;stroke-linecap:square;stroke-width:0.8;"/>
     </g>
     <g id="line2d_6">
      <defs>
       <path d="M 0 0 
L 0 3.5 
" id="mdf21399b2b" style="stroke:#000000;stroke-width:0.8;"/>
      </defs>
      <g>
       <use style="stroke:#000000;stroke-width:0.8;" x="57.6" xlink:href="#mdf21399b2b" y="298.944"/>
      </g>
     </g>
     <g id="text_1">
      <!-- 0 -->
      <g transform="translate(51.2375 321.140875)scale(0.2 -0.2)">
       <defs>
        <path d="M 31.78125 66.40625 
Q 24.171875 66.40625 20.328125 58.90625 
Q 16.5 51.421875 16.5 36.375 
Q 16.5 21.390625 20.328125 13.890625 
Q 24.171875 6.390625 31.78125 6.390625 
Q 39.453125 6.390625 43.28125 13.890625 
Q 47.125 21.390625 47.125 36.375 
Q 47.125 51.421875 43.28125 58.90625 
Q 39.453125 66.40625 31.78125 66.40625 
z
M 31.78125 74.21875 
Q 44.046875 74.21875 50.515625 64.515625 
Q 56.984375 54.828125 56.984375 36.375 
Q 56.984375 17.96875 50.515625 8.265625 
Q 44.046875 -1.421875 31.78125 -1.421875 
Q 19.53125 -1.421875 13.0625 8.265625 
Q 6.59375 17.96875 6.59375 36.375 
Q 6.59375 54.828125 13.0625 64.515625 
Q 19.53125 74.21875 31.78125 74.21875 
z
" id="DejaVuSans-48"/>
       </defs>
       <use xlink:href="#DejaVuSans-48"/>
      </g>
     </g>
    </g>
    <g id="xtick_2">
     <g id="line2d_7">
      <path clip-path="url(#pe9ad6de59c)" d="M 137.910857 298.944 
L 137.910857 27.648 
" style="fill:none;stroke:#b0b0b0;stroke-linecap:square;stroke-width:0.8;"/>
     </g>
     <g id="line2d_8">
      <g>
       <use style="stroke:#000000;stroke-width:0.8;" x="137.910857" xlink:href="#mdf21399b2b" y="298.944"/>
      </g>
     </g>
     <g id="text_2">
      <!-- 2 -->
      <g transform="translate(131.548357 321.140875)scale(0.2 -0.2)">
       <defs>
        <path d="M 19.1875 8.296875 
L 53.609375 8.296875 
L 53.609375 0 
L 7.328125 0 
L 7.328125 8.296875 
Q 12.9375 14.109375 22.625 23.890625 
Q 32.328125 33.6875 34.8125 36.53125 
Q 39.546875 41.84375 41.421875 45.53125 
Q 43.3125 49.21875 43.3125 52.78125 
Q 43.3125 58.59375 39.234375 62.25 
Q 35.15625 65.921875 28.609375 65.921875 
Q 23.96875 65.921875 18.8125 64.3125 
Q 13.671875 62.703125 7.8125 59.421875 
L 7.8125 69.390625 
Q 13.765625 71.78125 18.9375 73 
Q 24.125 74.21875 28.421875 74.21875 
Q 39.75 74.21875 46.484375 68.546875 
Q 53.21875 62.890625 53.21875 53.421875 
Q 53.21875 48.921875 51.53125 44.890625 
Q 49.859375 40.875 45.40625 35.40625 
Q 44.1875 33.984375 37.640625 27.21875 
Q 31.109375 20.453125 19.1875 8.296875 
z
" id="DejaVuSans-50"/>
       </defs>
       <use xlink:href="#DejaVuSans-50"/>
      </g>
     </g>
    </g>
    <g id="xtick_3">
     <g id="line2d_9">
      <path clip-path="url(#pe9ad6de59c)" d="M 218.221714 298.944 
L 218.221714 27.648 
" style="fill:none;stroke:#b0b0b0;stroke-linecap:square;stroke-width:0.8;"/>
     </g>
     <g id="line2d_10">
      <g>
       <use style="stroke:#000000;stroke-width:0.8;" x="218.221714" xlink:href="#mdf21399b2b" y="298.944"/>
      </g>
     </g>
     <g id="text_3">
      <!-- 4 -->
      <g transform="translate(211.859214 321.140875)scale(0.2 -0.2)">
       <defs>
        <path d="M 37.796875 64.3125 
L 12.890625 25.390625 
L 37.796875 25.390625 
z
M 35.203125 72.90625 
L 47.609375 72.90625 
L 47.609375 25.390625 
L 58.015625 25.390625 
L 58.015625 17.1875 
L 47.609375 17.1875 
L 47.609375 0 
L 37.796875 0 
L 37.796875 17.1875 
L 4.890625 17.1875 
L 4.890625 26.703125 
z
" id="DejaVuSans-52"/>
       </defs>
       <use xlink:href="#DejaVuSans-52"/>
      </g>
     </g>
    </g>
    <g id="xtick_4">
     <g id="line2d_11">
      <path clip-path="url(#pe9ad6de59c)" d="M 298.532571 298.944 
L 298.532571 27.648 
" style="fill:none;stroke:#b0b0b0;stroke-linecap:square;stroke-width:0.8;"/>
     </g>
     <g id="line2d_12">
      <g>
       <use style="stroke:#000000;stroke-width:0.8;" x="298.532571" xlink:href="#mdf21399b2b" y="298.944"/>
      </g>
     </g>
     <g id="text_4">
      <!-- 6 -->
      <g transform="translate(292.170071 321.140875)scale(0.2 -0.2)">
       <defs>
        <path d="M 33.015625 40.375 
Q 26.375 40.375 22.484375 35.828125 
Q 18.609375 31.296875 18.609375 23.390625 
Q 18.609375 15.53125 22.484375 10.953125 
Q 26.375 6.390625 33.015625 6.390625 
Q 39.65625 6.390625 43.53125 10.953125 
Q 47.40625 15.53125 47.40625 23.390625 
Q 47.40625 31.296875 43.53125 35.828125 
Q 39.65625 40.375 33.015625 40.375 
z
M 52.59375 71.296875 
L 52.59375 62.3125 
Q 48.875 64.0625 45.09375 64.984375 
Q 41.3125 65.921875 37.59375 65.921875 
Q 27.828125 65.921875 22.671875 59.328125 
Q 17.53125 52.734375 16.796875 39.40625 
Q 19.671875 43.65625 24.015625 45.921875 
Q 28.375 48.1875 33.59375 48.1875 
Q 44.578125 48.1875 50.953125 41.515625 
Q 57.328125 34.859375 57.328125 23.390625 
Q 57.328125 12.15625 50.6875 5.359375 
Q 44.046875 -1.421875 33.015625 -1.421875 
Q 20.359375 -1.421875 13.671875 8.265625 
Q 6.984375 17.96875 6.984375 36.375 
Q 6.984375 53.65625 15.1875 63.9375 
Q 23.390625 74.21875 37.203125 74.21875 
Q 40.921875 74.21875 44.703125 73.484375 
Q 48.484375 72.75 52.59375 71.296875 
z
" id="DejaVuSans-54"/>
       </defs>
       <use xlink:href="#DejaVuSans-54"/>
      </g>
     </g>
    </g>
    <g id="xtick_5">
     <g id="line2d_13">
      <path clip-path="url(#pe9ad6de59c)" d="M 97.755429 298.944 
L 97.755429 27.648 
" style="fill:none;stroke:#b0b0b0;stroke-linecap:square;stroke-width:0.8;"/>
     </g>
     <g id="line2d_14">
      <defs>
       <path d="M 0 0 
L 0 2 
" id="m1b86180684" style="stroke:#000000;stroke-width:0.6;"/>
      </defs>
      <g>
       <use style="stroke:#000000;stroke-width:0.6;" x="97.755429" xlink:href="#m1b86180684" y="298.944"/>
      </g>
     </g>
    </g>
    <g id="xtick_6">
     <g id="line2d_15">
      <path clip-path="url(#pe9ad6de59c)" d="M 178.066286 298.944 
L 178.066286 27.648 
" style="fill:none;stroke:#b0b0b0;stroke-linecap:square;stroke-width:0.8;"/>
     </g>
     <g id="line2d_16">
      <g>
       <use style="stroke:#000000;stroke-width:0.6;" x="178.066286" xlink:href="#m1b86180684" y="298.944"/>
      </g>
     </g>
    </g>
    <g id="xtick_7">
     <g id="line2d_17">
      <path clip-path="url(#pe9ad6de59c)" d="M 258.377143 298.944 
L 258.377143 27.648 
" style="fill:none;stroke:#b0b0b0;stroke-linecap:square;stroke-width:0.8;"/>
     </g>
     <g id="line2d_18">
      <g>
       <use style="stroke:#000000;stroke-width:0.6;" x="258.377143" xlink:href="#m1b86180684" y="298.944"/>
      </g>
     </g>
    </g>
    <g id="xtick_8">
     <g id="line2d_19">
      <path clip-path="url(#pe9ad6de59c)" d="M 338.688 298.944 
L 338.688 27.648 
" style="fill:none;stroke:#b0b0b0;stroke-linecap:square;stroke-width:0.8;"/>
     </g>
     <g id="line2d_20">
      <g>
       <use style="stroke:#000000;stroke-width:0.6;" x="338.688" xlink:href="#m1b86180684" y="298.944"/>
      </g>
     </g>
    </g>
    <g id="text_5">
     <!-- log10(# f-evals / dimension) -->
     <g transform="translate(77.764078 342.217594)scale(0.17 -0.17)">
      <defs>
       <path d="M 9.421875 75.984375 
L 18.40625 75.984375 
L 18.40625 0 
L 9.421875 0 
z
" id="DejaVuSans-108"/>
       <path d="M 30.609375 48.390625 
Q 23.390625 48.390625 19.1875 42.75 
Q 14.984375 37.109375 14.984375 27.296875 
Q 14.984375 17.484375 19.15625 11.84375 
Q 23.34375 6.203125 30.609375 6.203125 
Q 37.796875 6.203125 41.984375 11.859375 
Q 46.1875 17.53125 46.1875 27.296875 
Q 46.1875 37.015625 41.984375 42.703125 
Q 37.796875 48.390625 30.609375 48.390625 
z
M 30.609375 56 
Q 42.328125 56 49.015625 48.375 
Q 55.71875 40.765625 55.71875 27.296875 
Q 55.71875 13.875 49.015625 6.21875 
Q 42.328125 -1.421875 30.609375 -1.421875 
Q 18.84375 -1.421875 12.171875 6.21875 
Q 5.515625 13.875 5.515625 27.296875 
Q 5.515625 40.765625 12.171875 48.375 
Q 18.84375 56 30.609375 56 
z
" id="DejaVuSans-111"/>
       <path d="M 45.40625 27.984375 
Q 45.40625 37.75 41.375 43.109375 
Q 37.359375 48.484375 30.078125 48.484375 
Q 22.859375 48.484375 18.828125 43.109375 
Q 14.796875 37.75 14.796875 27.984375 
Q 14.796875 18.265625 18.828125 12.890625 
Q 22.859375 7.515625 30.078125 7.515625 
Q 37.359375 7.515625 41.375 12.890625 
Q 45.40625 18.265625 45.40625 27.984375 
z
M 54.390625 6.78125 
Q 54.390625 -7.171875 48.1875 -13.984375 
Q 42 -20.796875 29.203125 -20.796875 
Q 24.46875 -20.796875 20.265625 -20.09375 
Q 16.0625 -19.390625 12.109375 -17.921875 
L 12.109375 -9.1875 
Q 16.0625 -11.328125 19.921875 -12.34375 
Q 23.78125 -13.375 27.78125 -13.375 
Q 36.625 -13.375 41.015625 -8.765625 
Q 45.40625 -4.15625 45.40625 5.171875 
L 45.40625 9.625 
Q 42.625 4.78125 38.28125 2.390625 
Q 33.9375 0 27.875 0 
Q 17.828125 0 11.671875 7.65625 
Q 5.515625 15.328125 5.515625 27.984375 
Q 5.515625 40.671875 11.671875 48.328125 
Q 17.828125 56 27.875 56 
Q 33.9375 56 38.28125 53.609375 
Q 42.625 51.21875 45.40625 46.390625 
L 45.40625 54.6875 
L 54.390625 54.6875 
z
" id="DejaVuSans-103"/>
       <path d="M 12.40625 8.296875 
L 28.515625 8.296875 
L 28.515625 63.921875 
L 10.984375 60.40625 
L 10.984375 69.390625 
L 28.421875 72.90625 
L 38.28125 72.90625 
L 38.28125 8.296875 
L 54.390625 8.296875 
L 54.390625 0 
L 12.40625 0 
z
" id="DejaVuSans-49"/>
       <path d="M 31 75.875 
Q 24.46875 64.65625 21.28125 53.65625 
Q 18.109375 42.671875 18.109375 31.390625 
Q 18.109375 20.125 21.3125 9.0625 
Q 24.515625 -2 31 -13.1875 
L 23.1875 -13.1875 
Q 15.875 -1.703125 12.234375 9.375 
Q 8.59375 20.453125 8.59375 31.390625 
Q 8.59375 42.28125 12.203125 53.3125 
Q 15.828125 64.359375 23.1875 75.875 
z
" id="DejaVuSans-40"/>
       <path d="M 51.125 44 
L 36.921875 44 
L 32.8125 27.6875 
L 47.125 27.6875 
z
M 43.796875 71.78125 
L 38.71875 51.515625 
L 52.984375 51.515625 
L 58.109375 71.78125 
L 65.921875 71.78125 
L 60.890625 51.515625 
L 76.125 51.515625 
L 76.125 44 
L 58.984375 44 
L 54.984375 27.6875 
L 70.515625 27.6875 
L 70.515625 20.21875 
L 53.078125 20.21875 
L 48 0 
L 40.1875 0 
L 45.21875 20.21875 
L 30.90625 20.21875 
L 25.875 0 
L 18.015625 0 
L 23.09375 20.21875 
L 7.71875 20.21875 
L 7.71875 27.6875 
L 24.90625 27.6875 
L 29 44 
L 13.28125 44 
L 13.28125 51.515625 
L 30.90625 51.515625 
L 35.890625 71.78125 
z
" id="DejaVuSans-35"/>
       <path id="DejaVuSans-32"/>
       <path d="M 37.109375 75.984375 
L 37.109375 68.5 
L 28.515625 68.5 
Q 23.6875 68.5 21.796875 66.546875 
Q 19.921875 64.59375 19.921875 59.515625 
L 19.921875 54.6875 
L 34.71875 54.6875 
L 34.71875 47.703125 
L 19.921875 47.703125 
L 19.921875 0 
L 10.890625 0 
L 10.890625 47.703125 
L 2.296875 47.703125 
L 2.296875 54.6875 
L 10.890625 54.6875 
L 10.890625 58.5 
Q 10.890625 67.625 15.140625 71.796875 
Q 19.390625 75.984375 28.609375 75.984375 
z
" id="DejaVuSans-102"/>
       <path d="M 4.890625 31.390625 
L 31.203125 31.390625 
L 31.203125 23.390625 
L 4.890625 23.390625 
z
" id="DejaVuSans-45"/>
       <path d="M 56.203125 29.59375 
L 56.203125 25.203125 
L 14.890625 25.203125 
Q 15.484375 15.921875 20.484375 11.0625 
Q 25.484375 6.203125 34.421875 6.203125 
Q 39.59375 6.203125 44.453125 7.46875 
Q 49.3125 8.734375 54.109375 11.28125 
L 54.109375 2.78125 
Q 49.265625 0.734375 44.1875 -0.34375 
Q 39.109375 -1.421875 33.890625 -1.421875 
Q 20.796875 -1.421875 13.15625 6.1875 
Q 5.515625 13.8125 5.515625 26.8125 
Q 5.515625 40.234375 12.765625 48.109375 
Q 20.015625 56 32.328125 56 
Q 43.359375 56 49.78125 48.890625 
Q 56.203125 41.796875 56.203125 29.59375 
z
M 47.21875 32.234375 
Q 47.125 39.59375 43.09375 43.984375 
Q 39.0625 48.390625 32.421875 48.390625 
Q 24.90625 48.390625 20.390625 44.140625 
Q 15.875 39.890625 15.1875 32.171875 
z
" id="DejaVuSans-101"/>
       <path d="M 2.984375 54.6875 
L 12.5 54.6875 
L 29.59375 8.796875 
L 46.6875 54.6875 
L 56.203125 54.6875 
L 35.6875 0 
L 23.484375 0 
z
" id="DejaVuSans-118"/>
       <path d="M 34.28125 27.484375 
Q 23.390625 27.484375 19.1875 25 
Q 14.984375 22.515625 14.984375 16.5 
Q 14.984375 11.71875 18.140625 8.90625 
Q 21.296875 6.109375 26.703125 6.109375 
Q 34.1875 6.109375 38.703125 11.40625 
Q 43.21875 16.703125 43.21875 25.484375 
L 43.21875 27.484375 
z
M 52.203125 31.203125 
L 52.203125 0 
L 43.21875 0 
L 43.21875 8.296875 
Q 40.140625 3.328125 35.546875 0.953125 
Q 30.953125 -1.421875 24.3125 -1.421875 
Q 15.921875 -1.421875 10.953125 3.296875 
Q 6 8.015625 6 15.921875 
Q 6 25.140625 12.171875 29.828125 
Q 18.359375 34.515625 30.609375 34.515625 
L 43.21875 34.515625 
L 43.21875 35.40625 
Q 43.21875 41.609375 39.140625 45 
Q 35.0625 48.390625 27.6875 48.390625 
Q 23 48.390625 18.546875 47.265625 
Q 14.109375 46.140625 10.015625 43.890625 
L 10.015625 52.203125 
Q 14.9375 54.109375 19.578125 55.046875 
Q 24.21875 56 28.609375 56 
Q 40.484375 56 46.34375 49.84375 
Q 52.203125 43.703125 52.203125 31.203125 
z
" id="DejaVuSans-97"/>
       <path d="M 44.28125 53.078125 
L 44.28125 44.578125 
Q 40.484375 46.53125 36.375 47.5 
Q 32.28125 48.484375 27.875 48.484375 
Q 21.1875 48.484375 17.84375 46.4375 
Q 14.5 44.390625 14.5 40.28125 
Q 14.5 37.15625 16.890625 35.375 
Q 19.28125 33.59375 26.515625 31.984375 
L 29.59375 31.296875 
Q 39.15625 29.25 43.1875 25.515625 
Q 47.21875 21.78125 47.21875 15.09375 
Q 47.21875 7.46875 41.1875 3.015625 
Q 35.15625 -1.421875 24.609375 -1.421875 
Q 20.21875 -1.421875 15.453125 -0.5625 
Q 10.6875 0.296875 5.421875 2 
L 5.421875 11.28125 
Q 10.40625 8.6875 15.234375 7.390625 
Q 20.0625 6.109375 24.8125 6.109375 
Q 31.15625 6.109375 34.5625 8.28125 
Q 37.984375 10.453125 37.984375 14.40625 
Q 37.984375 18.0625 35.515625 20.015625 
Q 33.0625 21.96875 24.703125 23.78125 
L 21.578125 24.515625 
Q 13.234375 26.265625 9.515625 29.90625 
Q 5.8125 33.546875 5.8125 39.890625 
Q 5.8125 47.609375 11.28125 51.796875 
Q 16.75 56 26.8125 56 
Q 31.78125 56 36.171875 55.265625 
Q 40.578125 54.546875 44.28125 53.078125 
z
" id="DejaVuSans-115"/>
       <path d="M 25.390625 72.90625 
L 33.6875 72.90625 
L 8.296875 -9.28125 
L 0 -9.28125 
z
" id="DejaVuSans-47"/>
       <path d="M 45.40625 46.390625 
L 45.40625 75.984375 
L 54.390625 75.984375 
L 54.390625 0 
L 45.40625 0 
L 45.40625 8.203125 
Q 42.578125 3.328125 38.25 0.953125 
Q 33.9375 -1.421875 27.875 -1.421875 
Q 17.96875 -1.421875 11.734375 6.484375 
Q 5.515625 14.40625 5.515625 27.296875 
Q 5.515625 40.1875 11.734375 48.09375 
Q 17.96875 56 27.875 56 
Q 33.9375 56 38.25 53.625 
Q 42.578125 51.265625 45.40625 46.390625 
z
M 14.796875 27.296875 
Q 14.796875 17.390625 18.875 11.75 
Q 22.953125 6.109375 30.078125 6.109375 
Q 37.203125 6.109375 41.296875 11.75 
Q 45.40625 17.390625 45.40625 27.296875 
Q 45.40625 37.203125 41.296875 42.84375 
Q 37.203125 48.484375 30.078125 48.484375 
Q 22.953125 48.484375 18.875 42.84375 
Q 14.796875 37.203125 14.796875 27.296875 
z
" id="DejaVuSans-100"/>
       <path d="M 9.421875 54.6875 
L 18.40625 54.6875 
L 18.40625 0 
L 9.421875 0 
z
M 9.421875 75.984375 
L 18.40625 75.984375 
L 18.40625 64.59375 
L 9.421875 64.59375 
z
" id="DejaVuSans-105"/>
       <path d="M 52 44.1875 
Q 55.375 50.25 60.0625 53.125 
Q 64.75 56 71.09375 56 
Q 79.640625 56 84.28125 50.015625 
Q 88.921875 44.046875 88.921875 33.015625 
L 88.921875 0 
L 79.890625 0 
L 79.890625 32.71875 
Q 79.890625 40.578125 77.09375 44.375 
Q 74.3125 48.1875 68.609375 48.1875 
Q 61.625 48.1875 57.5625 43.546875 
Q 53.515625 38.921875 53.515625 30.90625 
L 53.515625 0 
L 44.484375 0 
L 44.484375 32.71875 
Q 44.484375 40.625 41.703125 44.40625 
Q 38.921875 48.1875 33.109375 48.1875 
Q 26.21875 48.1875 22.15625 43.53125 
Q 18.109375 38.875 18.109375 30.90625 
L 18.109375 0 
L 9.078125 0 
L 9.078125 54.6875 
L 18.109375 54.6875 
L 18.109375 46.1875 
Q 21.1875 51.21875 25.484375 53.609375 
Q 29.78125 56 35.6875 56 
Q 41.65625 56 45.828125 52.96875 
Q 50 49.953125 52 44.1875 
z
" id="DejaVuSans-109"/>
       <path d="M 54.890625 33.015625 
L 54.890625 0 
L 45.90625 0 
L 45.90625 32.71875 
Q 45.90625 40.484375 42.875 44.328125 
Q 39.84375 48.1875 33.796875 48.1875 
Q 26.515625 48.1875 22.3125 43.546875 
Q 18.109375 38.921875 18.109375 30.90625 
L 18.109375 0 
L 9.078125 0 
L 9.078125 54.6875 
L 18.109375 54.6875 
L 18.109375 46.1875 
Q 21.34375 51.125 25.703125 53.5625 
Q 30.078125 56 35.796875 56 
Q 45.21875 56 50.046875 50.171875 
Q 54.890625 44.34375 54.890625 33.015625 
z
" id="DejaVuSans-110"/>
       <path d="M 8.015625 75.875 
L 15.828125 75.875 
Q 23.140625 64.359375 26.78125 53.3125 
Q 30.421875 42.28125 30.421875 31.390625 
Q 30.421875 20.453125 26.78125 9.375 
Q 23.140625 -1.703125 15.828125 -13.1875 
L 8.015625 -13.1875 
Q 14.5 -2 17.703125 9.0625 
Q 20.90625 20.125 20.90625 31.390625 
Q 20.90625 42.671875 17.703125 53.65625 
Q 14.5 64.65625 8.015625 75.875 
z
" id="DejaVuSans-41"/>
      </defs>
      <use xlink:href="#DejaVuSans-108"/>
      <use x="27.783203" xlink:href="#DejaVuSans-111"/>
      <use x="88.964844" xlink:href="#DejaVuSans-103"/>
      <use x="152.441406" xlink:href="#DejaVuSans-49"/>
      <use x="216.064453" xlink:href="#DejaVuSans-48"/>
      <use x="279.6875" xlink:href="#DejaVuSans-40"/>
      <use x="318.701172" xlink:href="#DejaVuSans-35"/>
      <use x="402.490234" xlink:href="#DejaVuSans-32"/>
      <use x="434.277344" xlink:href="#DejaVuSans-102"/>
      <use x="463.982422" xlink:href="#DejaVuSans-45"/>
      <use x="500.066406" xlink:href="#DejaVuSans-101"/>
      <use x="561.589844" xlink:href="#DejaVuSans-118"/>
      <use x="620.769531" xlink:href="#DejaVuSans-97"/>
      <use x="682.048828" xlink:href="#DejaVuSans-108"/>
      <use x="709.832031" xlink:href="#DejaVuSans-115"/>
      <use x="761.931641" xlink:href="#DejaVuSans-32"/>
      <use x="793.71875" xlink:href="#DejaVuSans-47"/>
      <use x="827.410156" xlink:href="#DejaVuSans-32"/>
      <use x="859.197266" xlink:href="#DejaVuSans-100"/>
      <use x="922.673828" xlink:href="#DejaVuSans-105"/>
      <use x="950.457031" xlink:href="#DejaVuSans-109"/>
      <use x="1047.869141" xlink:href="#DejaVuSans-101"/>
      <use x="1109.392578" xlink:href="#DejaVuSans-110"/>
      <use x="1172.771484" xlink:href="#DejaVuSans-115"/>
      <use x="1224.871094" xlink:href="#DejaVuSans-105"/>
      <use x="1252.654297" xlink:href="#DejaVuSans-111"/>
      <use x="1313.835938" xlink:href="#DejaVuSans-110"/>
      <use x="1377.214844" xlink:href="#DejaVuSans-41"/>
     </g>
    </g>
   </g>
   <g id="matplotlib.axis_2">
    <g id="ytick_1">
     <g id="line2d_21">
      <path clip-path="url(#pe9ad6de59c)" d="M 57.6 298.944 
L 338.688 298.944 
" style="fill:none;stroke:#b0b0b0;stroke-linecap:square;stroke-width:0.8;"/>
     </g>
     <g id="line2d_22">
      <defs>
       <path d="M 0 0 
L -3.5 0 
" id="m1fe5ebbe3d" style="stroke:#000000;stroke-width:0.8;"/>
      </defs>
      <g>
       <use style="stroke:#000000;stroke-width:0.8;" x="57.6" xlink:href="#m1fe5ebbe3d" y="298.944"/>
      </g>
     </g>
     <g id="text_6">
      <!-- 0.0 -->
      <g transform="translate(25.155 305.02275)scale(0.16 -0.16)">
       <defs>
        <path d="M 10.6875 12.40625 
L 21 12.40625 
L 21 0 
L 10.6875 0 
z
" id="DejaVuSans-46"/>
       </defs>
       <use xlink:href="#DejaVuSans-48"/>
       <use x="63.623047" xlink:href="#DejaVuSans-46"/>
       <use x="95.410156" xlink:href="#DejaVuSans-48"/>
      </g>
     </g>
    </g>
    <g id="ytick_2">
     <g id="line2d_23">
      <path clip-path="url(#pe9ad6de59c)" d="M 57.6 245.22202 
L 338.688 245.22202 
" style="fill:none;stroke:#b0b0b0;stroke-linecap:square;stroke-width:0.8;"/>
     </g>
     <g id="line2d_24">
      <g>
       <use style="stroke:#000000;stroke-width:0.8;" x="57.6" xlink:href="#m1fe5ebbe3d" y="245.22202"/>
      </g>
     </g>
     <g id="text_7">
      <!-- 0.2 -->
      <g transform="translate(25.155 251.30077)scale(0.16 -0.16)">
       <use xlink:href="#DejaVuSans-48"/>
       <use x="63.623047" xlink:href="#DejaVuSans-46"/>
       <use x="95.410156" xlink:href="#DejaVuSans-50"/>
      </g>
     </g>
    </g>
    <g id="ytick_3">
     <g id="line2d_25">
      <path clip-path="url(#pe9ad6de59c)" d="M 57.6 191.50004 
L 338.688 191.50004 
" style="fill:none;stroke:#b0b0b0;stroke-linecap:square;stroke-width:0.8;"/>
     </g>
     <g id="line2d_26">
      <g>
       <use style="stroke:#000000;stroke-width:0.8;" x="57.6" xlink:href="#m1fe5ebbe3d" y="191.50004"/>
      </g>
     </g>
     <g id="text_8">
      <!-- 0.4 -->
      <g transform="translate(25.155 197.57879)scale(0.16 -0.16)">
       <use xlink:href="#DejaVuSans-48"/>
       <use x="63.623047" xlink:href="#DejaVuSans-46"/>
       <use x="95.410156" xlink:href="#DejaVuSans-52"/>
      </g>
     </g>
    </g>
    <g id="ytick_4">
     <g id="line2d_27">
      <path clip-path="url(#pe9ad6de59c)" d="M 57.6 137.778059 
L 338.688 137.778059 
" style="fill:none;stroke:#b0b0b0;stroke-linecap:square;stroke-width:0.8;"/>
     </g>
     <g id="line2d_28">
      <g>
       <use style="stroke:#000000;stroke-width:0.8;" x="57.6" xlink:href="#m1fe5ebbe3d" y="137.778059"/>
      </g>
     </g>
     <g id="text_9">
      <!-- 0.6 -->
      <g transform="translate(25.155 143.856809)scale(0.16 -0.16)">
       <use xlink:href="#DejaVuSans-48"/>
       <use x="63.623047" xlink:href="#DejaVuSans-46"/>
       <use x="95.410156" xlink:href="#DejaVuSans-54"/>
      </g>
     </g>
    </g>
    <g id="ytick_5">
     <g id="line2d_29">
      <path clip-path="url(#pe9ad6de59c)" d="M 57.6 84.056079 
L 338.688 84.056079 
" style="fill:none;stroke:#b0b0b0;stroke-linecap:square;stroke-width:0.8;"/>
     </g>
     <g id="line2d_30">
      <g>
       <use style="stroke:#000000;stroke-width:0.8;" x="57.6" xlink:href="#m1fe5ebbe3d" y="84.056079"/>
      </g>
     </g>
     <g id="text_10">
      <!-- 0.8 -->
      <g transform="translate(25.155 90.134829)scale(0.16 -0.16)">
       <defs>
        <path d="M 31.78125 34.625 
Q 24.75 34.625 20.71875 30.859375 
Q 16.703125 27.09375 16.703125 20.515625 
Q 16.703125 13.921875 20.71875 10.15625 
Q 24.75 6.390625 31.78125 6.390625 
Q 38.8125 6.390625 42.859375 10.171875 
Q 46.921875 13.96875 46.921875 20.515625 
Q 46.921875 27.09375 42.890625 30.859375 
Q 38.875 34.625 31.78125 34.625 
z
M 21.921875 38.8125 
Q 15.578125 40.375 12.03125 44.71875 
Q 8.5 49.078125 8.5 55.328125 
Q 8.5 64.0625 14.71875 69.140625 
Q 20.953125 74.21875 31.78125 74.21875 
Q 42.671875 74.21875 48.875 69.140625 
Q 55.078125 64.0625 55.078125 55.328125 
Q 55.078125 49.078125 51.53125 44.71875 
Q 48 40.375 41.703125 38.8125 
Q 48.828125 37.15625 52.796875 32.3125 
Q 56.78125 27.484375 56.78125 20.515625 
Q 56.78125 9.90625 50.3125 4.234375 
Q 43.84375 -1.421875 31.78125 -1.421875 
Q 19.734375 -1.421875 13.25 4.234375 
Q 6.78125 9.90625 6.78125 20.515625 
Q 6.78125 27.484375 10.78125 32.3125 
Q 14.796875 37.15625 21.921875 38.8125 
z
M 18.3125 54.390625 
Q 18.3125 48.734375 21.84375 45.5625 
Q 25.390625 42.390625 31.78125 42.390625 
Q 38.140625 42.390625 41.71875 45.5625 
Q 45.3125 48.734375 45.3125 54.390625 
Q 45.3125 60.0625 41.71875 63.234375 
Q 38.140625 66.40625 31.78125 66.40625 
Q 25.390625 66.40625 21.84375 63.234375 
Q 18.3125 60.0625 18.3125 54.390625 
z
" id="DejaVuSans-56"/>
       </defs>
       <use xlink:href="#DejaVuSans-48"/>
       <use x="63.623047" xlink:href="#DejaVuSans-46"/>
       <use x="95.410156" xlink:href="#DejaVuSans-56"/>
      </g>
     </g>
    </g>
    <g id="ytick_6">
     <g id="line2d_31">
      <path clip-path="url(#pe9ad6de59c)" d="M 57.6 30.334099 
L 338.688 30.334099 
" style="fill:none;stroke:#b0b0b0;stroke-linecap:square;stroke-width:0.8;"/>
     </g>
     <g id="line2d_32">
      <g>
       <use style="stroke:#000000;stroke-width:0.8;" x="57.6" xlink:href="#m1fe5ebbe3d" y="30.334099"/>
      </g>
     </g>
     <g id="text_11">
      <!-- 1.0 -->
      <g transform="translate(25.155 36.412849)scale(0.16 -0.16)">
       <use xlink:href="#DejaVuSans-49"/>
       <use x="63.623047" xlink:href="#DejaVuSans-46"/>
       <use x="95.410156" xlink:href="#DejaVuSans-48"/>
      </g>
     </g>
    </g>
    <g id="text_12">
     <!-- Fraction of function,target pairs -->
     <g transform="translate(17.619531 297.681)rotate(-90)scale(0.17 -0.17)">
      <defs>
       <path d="M 9.8125 72.90625 
L 51.703125 72.90625 
L 51.703125 64.59375 
L 19.671875 64.59375 
L 19.671875 43.109375 
L 48.578125 43.109375 
L 48.578125 34.8125 
L 19.671875 34.8125 
L 19.671875 0 
L 9.8125 0 
z
" id="DejaVuSans-70"/>
       <path d="M 41.109375 46.296875 
Q 39.59375 47.171875 37.8125 47.578125 
Q 36.03125 48 33.890625 48 
Q 26.265625 48 22.1875 43.046875 
Q 18.109375 38.09375 18.109375 28.8125 
L 18.109375 0 
L 9.078125 0 
L 9.078125 54.6875 
L 18.109375 54.6875 
L 18.109375 46.1875 
Q 20.953125 51.171875 25.484375 53.578125 
Q 30.03125 56 36.53125 56 
Q 37.453125 56 38.578125 55.875 
Q 39.703125 55.765625 41.0625 55.515625 
z
" id="DejaVuSans-114"/>
       <path d="M 48.78125 52.59375 
L 48.78125 44.1875 
Q 44.96875 46.296875 41.140625 47.34375 
Q 37.3125 48.390625 33.40625 48.390625 
Q 24.65625 48.390625 19.8125 42.84375 
Q 14.984375 37.3125 14.984375 27.296875 
Q 14.984375 17.28125 19.8125 11.734375 
Q 24.65625 6.203125 33.40625 6.203125 
Q 37.3125 6.203125 41.140625 7.25 
Q 44.96875 8.296875 48.78125 10.40625 
L 48.78125 2.09375 
Q 45.015625 0.34375 40.984375 -0.53125 
Q 36.96875 -1.421875 32.421875 -1.421875 
Q 20.0625 -1.421875 12.78125 6.34375 
Q 5.515625 14.109375 5.515625 27.296875 
Q 5.515625 40.671875 12.859375 48.328125 
Q 20.21875 56 33.015625 56 
Q 37.15625 56 41.109375 55.140625 
Q 45.0625 54.296875 48.78125 52.59375 
z
" id="DejaVuSans-99"/>
       <path d="M 18.3125 70.21875 
L 18.3125 54.6875 
L 36.8125 54.6875 
L 36.8125 47.703125 
L 18.3125 47.703125 
L 18.3125 18.015625 
Q 18.3125 11.328125 20.140625 9.421875 
Q 21.96875 7.515625 27.59375 7.515625 
L 36.8125 7.515625 
L 36.8125 0 
L 27.59375 0 
Q 17.1875 0 13.234375 3.875 
Q 9.28125 7.765625 9.28125 18.015625 
L 9.28125 47.703125 
L 2.6875 47.703125 
L 2.6875 54.6875 
L 9.28125 54.6875 
L 9.28125 70.21875 
z
" id="DejaVuSans-116"/>
       <path d="M 8.5 21.578125 
L 8.5 54.6875 
L 17.484375 54.6875 
L 17.484375 21.921875 
Q 17.484375 14.15625 20.5 10.265625 
Q 23.53125 6.390625 29.59375 6.390625 
Q 36.859375 6.390625 41.078125 11.03125 
Q 45.3125 15.671875 45.3125 23.6875 
L 45.3125 54.6875 
L 54.296875 54.6875 
L 54.296875 0 
L 45.3125 0 
L 45.3125 8.40625 
Q 42.046875 3.421875 37.71875 1 
Q 33.40625 -1.421875 27.6875 -1.421875 
Q 18.265625 -1.421875 13.375 4.4375 
Q 8.5 10.296875 8.5 21.578125 
z
M 31.109375 56 
z
" id="DejaVuSans-117"/>
       <path d="M 11.71875 12.40625 
L 22.015625 12.40625 
L 22.015625 4 
L 14.015625 -11.625 
L 7.71875 -11.625 
L 11.71875 4 
z
" id="DejaVuSans-44"/>
       <path d="M 18.109375 8.203125 
L 18.109375 -20.796875 
L 9.078125 -20.796875 
L 9.078125 54.6875 
L 18.109375 54.6875 
L 18.109375 46.390625 
Q 20.953125 51.265625 25.265625 53.625 
Q 29.59375 56 35.59375 56 
Q 45.5625 56 51.78125 48.09375 
Q 58.015625 40.1875 58.015625 27.296875 
Q 58.015625 14.40625 51.78125 6.484375 
Q 45.5625 -1.421875 35.59375 -1.421875 
Q 29.59375 -1.421875 25.265625 0.953125 
Q 20.953125 3.328125 18.109375 8.203125 
z
M 48.6875 27.296875 
Q 48.6875 37.203125 44.609375 42.84375 
Q 40.53125 48.484375 33.40625 48.484375 
Q 26.265625 48.484375 22.1875 42.84375 
Q 18.109375 37.203125 18.109375 27.296875 
Q 18.109375 17.390625 22.1875 11.75 
Q 26.265625 6.109375 33.40625 6.109375 
Q 40.53125 6.109375 44.609375 11.75 
Q 48.6875 17.390625 48.6875 27.296875 
z
" id="DejaVuSans-112"/>
      </defs>
      <use xlink:href="#DejaVuSans-70"/>
      <use x="50.269531" xlink:href="#DejaVuSans-114"/>
      <use x="91.382812" xlink:href="#DejaVuSans-97"/>
      <use x="152.662109" xlink:href="#DejaVuSans-99"/>
      <use x="207.642578" xlink:href="#DejaVuSans-116"/>
      <use x="246.851562" xlink:href="#DejaVuSans-105"/>
      <use x="274.634766" xlink:href="#DejaVuSans-111"/>
      <use x="335.816406" xlink:href="#DejaVuSans-110"/>
      <use x="399.195312" xlink:href="#DejaVuSans-32"/>
      <use x="430.982422" xlink:href="#DejaVuSans-111"/>
      <use x="492.164062" xlink:href="#DejaVuSans-102"/>
      <use x="527.369141" xlink:href="#DejaVuSans-32"/>
      <use x="559.15625" xlink:href="#DejaVuSans-102"/>
      <use x="594.361328" xlink:href="#DejaVuSans-117"/>
      <use x="657.740234" xlink:href="#DejaVuSans-110"/>
      <use x="721.119141" xlink:href="#DejaVuSans-99"/>
      <use x="776.099609" xlink:href="#DejaVuSans-116"/>
      <use x="815.308594" xlink:href="#DejaVuSans-105"/>
      <use x="843.091797" xlink:href="#DejaVuSans-111"/>
      <use x="904.273438" xlink:href="#DejaVuSans-110"/>
      <use x="967.652344" xlink:href="#DejaVuSans-44"/>
      <use x="999.439453" xlink:href="#DejaVuSans-116"/>
      <use x="1038.648438" xlink:href="#DejaVuSans-97"/>
      <use x="1099.927734" xlink:href="#DejaVuSans-114"/>
      <use x="1139.291016" xlink:href="#DejaVuSans-103"/>
      <use x="1202.767578" xlink:href="#DejaVuSans-101"/>
      <use x="1264.291016" xlink:href="#DejaVuSans-116"/>
      <use x="1303.5" xlink:href="#DejaVuSans-32"/>
      <use x="1335.287109" xlink:href="#DejaVuSans-112"/>
      <use x="1398.763672" xlink:href="#DejaVuSans-97"/>
      <use x="1460.042969" xlink:href="#DejaVuSans-105"/>
      <use x="1487.826172" xlink:href="#DejaVuSans-114"/>
      <use x="1528.939453" xlink:href="#DejaVuSans-115"/>
     </g>
    </g>
   </g>
   <g id="line2d_33">
    <defs>
     <path d="M 0 1.5 
C 0.397805 1.5 0.77937 1.341951 1.06066 1.06066 
C 1.341951 0.77937 1.5 0.397805 1.5 0 
C 1.5 -0.397805 1.341951 -0.77937 1.06066 -1.06066 
C 0.77937 -1.341951 0.397805 -1.5 0 -1.5 
C -0.397805 -1.5 -0.77937 -1.341951 -1.06066 -1.06066 
C -1.341951 -0.77937 -1.5 -0.397805 -1.5 0 
C -1.5 0.397805 -1.341951 0.77937 -1.06066 1.06066 
C -0.77937 1.341951 -0.397805 1.5 0 1.5 
z
" id="m8235be58ba" style="stroke:#f5deb3;"/>
    </defs>
    <g>
     <use style="fill:#f5deb3;stroke:#f5deb3;" x="180.386982" xlink:href="#m8235be58ba" y="30.334099"/>
     <use style="fill:#f5deb3;stroke:#f5deb3;" x="180.386982" xlink:href="#m8235be58ba" y="30.334099"/>
    </g>
   </g>
   <g id="line2d_34">
    <defs>
     <path d="M 0 1.5 
C 0.397805 1.5 0.77937 1.341951 1.06066 1.06066 
C 1.341951 0.77937 1.5 0.397805 1.5 0 
C 1.5 -0.397805 1.341951 -0.77937 1.06066 -1.06066 
C 0.77937 -1.341951 0.397805 -1.5 0 -1.5 
C -0.397805 -1.5 -0.77937 -1.341951 -1.06066 -1.06066 
C -1.341951 -0.77937 -1.5 -0.397805 -1.5 0 
C -1.5 0.397805 -1.341951 0.77937 -1.06066 1.06066 
C -0.77937 1.341951 -0.397805 1.5 0 1.5 
z
" id="mfad45e798c" style="stroke:#000080;"/>
    </defs>
    <g>
     <use style="fill:#000080;stroke:#000080;" x="266.601912" xlink:href="#mfad45e798c" y="30.334099"/>
     <use style="fill:#000080;stroke:#000080;" x="266.601912" xlink:href="#mfad45e798c" y="30.334099"/>
    </g>
   </g>
   <g id="line2d_35">
    <path d="M 38.440992 298.944 
L 38.440992 288.936964 
L 50.52898 288.936964 
L 50.52898 287.883592 
L 57.6 287.883592 
L 57.6 286.83022 
L 66.508432 286.83022 
L 66.508432 286.303534 
L 72.376266 286.303534 
L 72.376266 285.250162 
L 74.704957 285.250162 
L 74.704957 284.723476 
L 76.759008 284.723476 
L 76.759008 284.19679 
L 78.59642 284.19679 
L 78.59642 283.670104 
L 80.258561 283.670104 
L 80.258561 282.090045 
L 81.775977 282.090045 
L 81.775977 281.563359 
L 84.464254 281.563359 
L 84.464254 281.036673 
L 85.66744 281.036673 
L 85.66744 279.456615 
L 87.850195 279.456615 
L 87.850195 278.403243 
L 89.78989 278.403243 
L 89.78989 277.876557 
L 94.575872 277.876557 
L 94.575872 276.823185 
L 95.259853 276.823185 
L 95.259853 276.296499 
L 95.918017 276.296499 
L 95.918017 274.71644 
L 97.16421 274.71644 
L 97.16421 274.189754 
L 97.755429 274.189754 
L 97.755429 273.663068 
L 99.41757 273.663068 
L 99.41757 273.136382 
L 100.934985 273.136382 
L 100.934985 271.029638 
L 107.347841 271.029638 
L 107.347841 269.976266 
L 108.948899 269.976266 
L 108.948899 269.449579 
L 113.73488 269.449579 
L 113.73488 268.922893 
L 115.291007 268.922893 
L 115.291007 268.396207 
L 117.107138 268.396207 
L 117.107138 267.869521 
L 117.672786 267.869521 
L 117.672786 267.342835 
L 118.399528 267.342835 
L 118.399528 266.816149 
L 119.097192 266.816149 
L 119.097192 265.762777 
L 122.219665 265.762777 
L 122.219665 265.236091 
L 124.114161 265.236091 
L 124.114161 264.709405 
L 127.378995 264.709405 
L 127.378995 264.182719 
L 128.209594 264.182719 
L 128.209594 263.656033 
L 128.709321 263.656033 
L 128.709321 263.129347 
L 128.905271 263.129347 
L 128.905271 262.60266 
L 129.945319 262.60266 
L 129.945319 262.075974 
L 131.099484 262.075974 
L 131.099484 261.549288 
L 131.439773 261.549288 
L 131.439773 261.022602 
L 132.342714 261.022602 
L 132.342714 260.495916 
L 133.04822 260.495916 
L 133.04822 259.96923 
L 133.873458 259.96923 
L 133.946579 258.915858 
L 135.943785 258.915858 
L 135.943785 257.862486 
L 136.393441 257.862486 
L 136.393441 257.3358 
L 136.769843 257.3358 
L 136.769843 256.809114 
L 138.141844 256.809114 
L 138.141844 256.282427 
L 138.482688 256.282427 
L 138.482688 255.755741 
L 138.872098 255.755741 
L 138.872098 255.229055 
L 139.145019 255.229055 
L 139.145019 254.175683 
L 139.520072 254.175683 
L 139.520072 253.122311 
L 139.783113 253.122311 
L 139.783113 252.595625 
L 139.939053 252.595625 
L 139.939053 252.068939 
L 140.549236 252.068939 
L 140.64889 250.488881 
L 140.747977 250.488881 
L 140.747977 249.962195 
L 140.993259 249.962195 
L 141.041904 248.908822 
L 141.426256 248.908822 
L 141.426256 248.382136 
L 142.619936 248.382136 
L 142.708461 247.328764 
L 143.058132 247.328764 
L 143.058132 246.802078 
L 143.31586 246.802078 
L 143.31586 246.275392 
L 143.611807 246.275392 
L 143.653678 245.22202 
L 144.350522 245.22202 
L 144.350522 244.695334 
L 144.787023 244.695334 
L 144.787023 244.168648 
L 144.981877 244.168648 
L 144.981877 241.535217 
L 145.365173 241.535217 
L 145.365173 241.008531 
L 145.478539 241.008531 
L 145.478539 240.481845 
L 145.665858 240.481845 
L 145.665858 239.955159 
L 146.431341 239.955159 
L 146.431341 239.428473 
L 146.573414 239.428473 
L 146.679213 234.161612 
L 146.854132 234.161612 
L 146.854132 233.634926 
L 147.570215 233.634926 
L 147.570215 233.10824 
L 147.96658 233.10824 
L 148.031773 231.528182 
L 148.322166 231.528182 
L 148.417899 229.421437 
L 148.76449 229.421437 
L 148.76449 228.368065 
L 149.012299 228.368065 
L 149.012299 227.314693 
L 149.226281 227.314693 
L 149.226281 226.261321 
L 149.527485 226.261321 
L 149.527485 225.207949 
L 149.705742 225.207949 
L 149.705742 224.154577 
L 149.911431 224.154577 
L 149.911431 223.101204 
L 150.027887 223.101204 
L 150.027887 222.574518 
L 150.31567 222.574518 
L 150.344189 221.521146 
L 150.542526 221.521146 
L 150.542526 218.887716 
L 150.766468 218.887716 
L 150.766468 218.36103 
L 150.932558 218.36103 
L 151.042412 214.147541 
L 151.634543 214.147541 
L 151.634543 213.620855 
L 151.949246 213.620855 
L 151.949246 212.040797 
L 152.181601 212.040797 
L 152.181601 211.514111 
L 152.410901 211.514111 
L 152.410901 210.460738 
L 152.662192 210.460738 
L 152.662192 209.934052 
L 152.885298 209.934052 
L 152.885298 209.407366 
L 153.008024 209.407366 
L 153.105587 205.193878 
L 153.129893 205.193878 
L 153.202607 202.033761 
L 153.936752 202.033761 
L 154.029268 200.453703 
L 154.303908 200.453703 
L 154.303908 199.400331 
L 154.840544 199.400331 
L 154.840544 196.240214 
L 155.189341 196.240214 
L 155.189341 195.713528 
L 155.339773 195.713528 
L 155.339773 195.186842 
L 155.783437 195.186842 
L 155.783437 193.606784 
L 155.949527 193.606784 
L 155.949527 192.553412 
L 156.43851 192.553412 
L 156.43851 192.026726 
L 156.875011 192.026726 
L 156.875011 190.973354 
L 157.396202 190.973354 
L 157.396202 190.446667 
L 157.566527 190.446667 
L 157.566527 186.759865 
L 157.697862 186.759865 
L 157.697862 186.233179 
L 157.976006 186.233179 
L 157.976006 184.653121 
L 158.122556 184.653121 
L 158.122556 183.599748 
L 158.429943 183.599748 
L 158.429943 181.493004 
L 218.282066 181.493004 
L 218.384878 175.699457 
L 218.417673 175.699457 
L 218.509973 165.165736 
L 218.536826 165.165736 
L 218.640422 146.205037 
L 218.651201 146.205037 
L 218.758068 132.511199 
L 218.765395 132.511199 
L 218.78229 129.351082 
L 230.371792 129.351082 
L 230.479776 119.870733 
L 230.484093 119.870733 
L 230.589383 97.749917 
L 237.424846 97.749917 
L 237.535438 80.369277 
L 237.544846 80.369277 
L 237.571316 77.20916 
L 242.457608 77.20916 
L 242.541984 64.042008 
L 246.339423 64.042008 
L 246.403644 55.088345 
L 249.523655 55.088345 
L 249.565232 48.241426 
L 252.200863 48.241426 
L 252.237769 44.554623 
L 254.522699 44.554623 
L 254.558988 41.921193 
L 256.577024 41.921193 
L 256.594868 39.287762 
L 258.416801 39.287762 
L 258.436568 37.181018 
L 260.067428 37.181018 
L 260.093209 34.547588 
L 261.593767 34.547588 
L 261.599519 32.967529 
L 262.987297 32.967529 
L 262.992696 31.387471 
L 266.598211 31.387471 
L 266.601912 30.334099 
L 338.688 30.334099 
L 338.688 30.334099 
" style="fill:none;stroke:#000080;stroke-linecap:square;stroke-width:1.5;"/>
   </g>
   <g id="line2d_36">
    <defs>
     <path d="M 0 6 
C 1.591219 6 3.117479 5.367802 4.242641 4.242641 
C 5.367802 3.117479 6 1.591219 6 0 
C 6 -1.591219 5.367802 -3.117479 4.242641 -4.242641 
C 3.117479 -5.367802 1.591219 -6 0 -6 
C -1.591219 -6 -3.117479 -5.367802 -4.242641 -4.242641 
C -5.367802 -3.117479 -6 -1.591219 -6 0 
C -6 1.591219 -5.367802 3.117479 -4.242641 4.242641 
C -3.117479 5.367802 -1.591219 6 0 6 
z
" id="m0694490eaa" style="stroke:#000080;stroke-width:1.5;"/>
    </defs>
    <g>
     <use style="fill-opacity:0;stroke:#000080;stroke-width:1.5;" x="149.527485" xlink:href="#m0694490eaa" y="226.261321"/>
     <use style="fill-opacity:0;stroke:#000080;stroke-width:1.5;" x="158.429943" xlink:href="#m0694490eaa" y="181.493004"/>
     <use style="fill-opacity:0;stroke:#000080;stroke-width:1.5;" x="249.546626" xlink:href="#m0694490eaa" y="50.874856"/>
     <use style="fill-opacity:0;stroke:#000080;stroke-width:1.5;" x="266.601912" xlink:href="#m0694490eaa" y="30.334099"/>
     <use style="fill-opacity:0;stroke:#000080;stroke-width:1.5;" x="338.688" xlink:href="#m0694490eaa" y="30.334099"/>
    </g>
   </g>
   <g id="line2d_37">
    <path style="fill:none;stroke:#000080;stroke-linecap:square;stroke-width:1.5;"/>
    <g/>
   </g>
   <g id="line2d_38">
    <path clip-path="url(#pe9ad6de59c)" d="M 218.224039 181.493004 
" style="fill:none;stroke:#000080;stroke-linecap:square;stroke-width:1.5;"/>
    <defs>
     <path d="M -12 12 
L 12 -12 
M -12 -12 
L 12 12 
" id="m86ac88f965" style="stroke:#000080;"/>
    </defs>
    <g clip-path="url(#pe9ad6de59c)">
     <use style="fill:#000080;stroke:#000080;" x="218.224039" xlink:href="#m86ac88f965" y="181.493004"/>
    </g>
   </g>
   <g id="line2d_39">
    <defs>
     <path d="M 0 1.5 
C 0.397805 1.5 0.77937 1.341951 1.06066 1.06066 
C 1.341951 0.77937 1.5 0.397805 1.5 0 
C 1.5 -0.397805 1.341951 -0.77937 1.06066 -1.06066 
C 0.77937 -1.341951 0.397805 -1.5 0 -1.5 
C -0.397805 -1.5 -0.77937 -1.341951 -1.06066 -1.06066 
C -1.341951 -0.77937 -1.5 -0.397805 -1.5 0 
C -1.5 0.397805 -1.341951 0.77937 -1.06066 1.06066 
C -0.77937 1.341951 -0.397805 1.5 0 1.5 
z
" id="m98f89b4e8d" style="stroke:#ff00ff;"/>
    </defs>
    <g>
     <use style="fill:#ff00ff;stroke:#ff00ff;" x="250.333596" xlink:href="#m98f89b4e8d" y="30.334099"/>
     <use style="fill:#ff00ff;stroke:#ff00ff;" x="250.333596" xlink:href="#m98f89b4e8d" y="30.334099"/>
    </g>
   </g>
   <g id="line2d_40">
    <path d="M 38.440992 298.944 
L 38.440992 291.570395 
L 50.52898 291.570395 
L 50.52898 290.517023 
L 57.6 290.517023 
L 57.6 288.936964 
L 62.616969 288.936964 
L 62.616969 285.776848 
L 66.508432 285.776848 
L 66.508432 283.143418 
L 69.687988 283.143418 
L 69.687988 281.036673 
L 72.376266 281.036673 
L 72.376266 279.983301 
L 78.59642 279.983301 
L 78.59642 279.456615 
L 80.258561 279.456615 
L 80.258561 278.929929 
L 81.775977 278.929929 
L 81.775977 278.403243 
L 83.171864 278.403243 
L 83.171864 277.349871 
L 84.464254 277.349871 
L 84.464254 276.823185 
L 85.66744 276.823185 
L 85.66744 275.769812 
L 86.792945 275.769812 
L 86.792945 275.243126 
L 87.850195 275.243126 
L 87.850195 273.663068 
L 89.78989 273.663068 
L 89.78989 272.609696 
L 90.684409 272.609696 
L 90.684409 272.08301 
L 91.535274 272.08301 
L 91.535274 271.556324 
L 96.552242 271.556324 
L 96.552242 271.029638 
L 97.755429 271.029638 
L 97.755429 269.976266 
L 99.41757 269.976266 
L 99.41757 268.922893 
L 104.434538 268.922893 
L 104.434538 268.396207 
L 114.193835 268.396207 
L 114.193835 267.342835 
L 114.418861 267.342835 
L 114.418861 266.289463 
L 115.711251 266.289463 
L 115.711251 265.762777 
L 115.917635 265.762777 
L 115.917635 264.709405 
L 116.522527 264.709405 
L 116.522527 264.182719 
L 119.931767 264.182719 
L 119.931767 263.656033 
L 122.219665 263.656033 
L 122.219665 263.129347 
L 126.3947 263.129347 
L 126.3947 262.60266 
L 129.480244 262.60266 
L 129.480244 262.075974 
L 130.30865 262.075974 
L 130.30865 260.495916 
L 132.971225 260.495916 
L 132.971225 258.915858 
L 133.277185 258.915858 
L 133.277185 258.389172 
L 134.236034 258.389172 
L 134.236034 257.862486 
L 134.450015 257.862486 
L 134.450015 255.229055 
L 137.319638 255.229055 
L 137.319638 254.175683 
L 137.968891 254.175683 
L 137.968891 253.648997 
L 138.761723 253.648997 
L 138.761723 252.595625 
L 141.138789 252.595625 
L 141.138789 252.068939 
L 141.615302 252.068939 
L 141.615302 251.542253 
L 142.575505 251.542253 
L 142.575505 250.488881 
L 142.708461 250.488881 
L 142.708461 249.435508 
L 142.971369 249.435508 
L 142.971369 247.328764 
L 143.485587 247.328764 
L 143.485587 246.802078 
L 146.749392 246.802078 
L 146.749392 246.275392 
L 149.557321 246.275392 
L 149.557321 245.748706 
L 150.172372 245.748706 
L 150.172372 245.22202 
L 150.31567 245.22202 
L 150.31567 244.695334 
L 151.015013 244.695334 
L 151.015013 238.901787 
L 151.975216 238.901787 
L 151.975216 238.375101 
L 152.309362 238.375101 
L 152.309362 237.848415 
L 152.934492 237.848415 
L 152.934492 237.321729 
L 153.323128 237.321729 
L 153.323128 236.268356 
L 153.466662 236.268356 
L 153.466662 234.688298 
L 155.425155 234.688298 
L 155.425155 234.161612 
L 155.699795 234.161612 
L 155.699795 233.634926 
L 156.378132 233.634926 
L 156.378132 232.581554 
L 157.339055 232.581554 
L 157.339055 232.054868 
L 157.528821 232.054868 
L 157.58535 231.001496 
L 158.554957 231.001496 
L 158.554957 230.47481 
L 160.070889 230.47481 
L 160.070889 229.948123 
L 160.632719 229.948123 
L 160.632719 229.421437 
L 160.899212 229.421437 
L 160.899212 228.894751 
L 161.450455 228.894751 
L 161.450455 227.841379 
L 161.630398 227.841379 
L 161.630398 226.788007 
L 161.999419 226.788007 
L 161.999419 225.207949 
L 162.360793 225.207949 
L 162.360793 224.154577 
L 163.253165 224.154577 
L 163.253165 222.574518 
L 164.076176 222.574518 
L 164.076176 222.047832 
L 165.290595 222.047832 
L 165.290595 220.99446 
L 165.411116 220.99446 
L 165.411116 220.467774 
L 166.595075 220.467774 
L 166.595075 219.414402 
L 166.729224 219.414402 
L 166.729224 218.887716 
L 167.125588 218.887716 
L 167.125588 217.834344 
L 167.341959 217.834344 
L 167.449146 216.254285 
L 168.765944 216.254285 
L 168.765944 214.147541 
L 168.884444 214.147541 
L 168.884444 213.620855 
L 169.17722 213.620855 
L 169.17722 213.094169 
L 169.53167 213.094169 
L 169.53167 212.567483 
L 169.841835 212.567483 
L 169.841835 212.040797 
L 171.220515 212.040797 
L 171.220515 211.514111 
L 171.586775 211.514111 
L 171.586775 210.987425 
L 172.442055 210.987425 
L 172.442055 210.460738 
L 172.893608 210.460738 
L 172.893608 209.407366 
L 173.118935 209.407366 
L 173.118935 208.88068 
L 173.598631 208.88068 
L 173.598631 208.353994 
L 174.441627 208.353994 
L 174.441627 207.827308 
L 174.66913 207.827308 
L 174.66913 206.773936 
L 174.997985 206.773936 
L 175.025688 204.667192 
L 177.055116 204.667192 
L 177.055116 203.613819 
L 177.450996 203.613819 
L 177.450996 202.033761 
L 177.630722 202.033761 
L 177.630722 200.453703 
L 178.783772 200.453703 
L 178.817212 198.873645 
L 178.966907 198.873645 
L 179.033027 196.7669 
L 179.749552 196.7669 
L 179.828547 195.713528 
L 180.295143 195.713528 
L 180.381893 193.080098 
L 180.498578 193.080098 
L 180.584324 190.973354 
L 180.848977 190.973354 
L 180.848977 190.446667 
L 181.538866 190.446667 
L 181.538866 189.393295 
L 182.348626 189.393295 
L 182.348626 188.866609 
L 182.650671 188.866609 
L 182.650671 188.339923 
L 183.152872 188.339923 
L 183.152872 186.759865 
L 183.368654 186.759865 
L 183.385802 185.179807 
L 183.921659 185.179807 
L 183.921659 184.653121 
L 184.078845 184.653121 
L 184.078845 184.126434 
L 184.214209 184.126434 
L 184.295739 182.546376 
L 185.059625 182.546376 
L 185.059625 182.01969 
L 185.199202 182.01969 
L 185.253182 180.966318 
L 185.414125 180.966318 
L 185.414125 180.439632 
L 185.558472 180.439632 
L 185.558472 179.912946 
L 186.14616 179.912946 
L 186.14616 179.38626 
L 186.55107 179.38626 
L 186.55107 178.332888 
L 186.936309 178.332888 
L 186.936309 177.279515 
L 187.182743 177.279515 
L 187.217174 176.226143 
L 187.547673 176.226143 
L 187.547673 175.699457 
L 187.692203 175.699457 
L 187.692203 175.172771 
L 187.87865 175.172771 
L 187.924952 173.066027 
L 188.252153 173.066027 
L 188.252153 172.539341 
L 188.448772 172.539341 
L 188.448772 172.012655 
L 188.690678 172.012655 
L 188.794681 170.432596 
L 188.863673 170.432596 
L 188.863673 169.90591 
L 189.112277 169.90591 
L 189.112277 169.379224 
L 189.247514 169.379224 
L 189.351301 166.219108 
L 189.593097 166.219108 
L 189.656017 163.585677 
L 189.807884 163.585677 
L 189.807884 163.058991 
L 190.014199 163.058991 
L 190.066859 161.478933 
L 190.255708 161.478933 
L 190.255708 160.425561 
L 190.894061 160.425561 
L 190.921897 159.372189 
L 191.148492 159.372189 
L 191.225197 157.265444 
L 191.277055 157.265444 
L 191.277055 156.738758 
L 191.391144 156.738758 
L 191.391144 154.105328 
L 191.900765 154.105328 
L 191.992558 153.051956 
L 192.205742 153.051956 
L 192.205742 151.998584 
L 192.342158 151.998584 
L 192.342158 151.471897 
L 192.541 151.471897 
L 192.553669 150.418525 
L 192.845042 150.418525 
L 192.922092 148.311781 
L 193.114466 148.311781 
L 193.219618 146.731723 
L 193.372542 146.731723 
L 193.478556 143.04492 
L 193.614942 143.04492 
L 193.695789 141.464862 
L 193.952479 141.464862 
L 194.043412 139.884804 
L 194.085222 139.884804 
L 194.119987 138.304745 
L 194.39336 138.304745 
L 194.429792 137.251373 
L 194.540892 137.251373 
L 194.570249 135.671315 
L 194.65578 135.671315 
L 194.662515 134.617943 
L 194.794436 134.617943 
L 194.845594 131.984513 
L 195.081637 131.984513 
L 195.081637 131.457826 
L 195.699421 131.457826 
L 195.699421 130.93114 
L 195.922169 130.93114 
L 196.003413 129.351082 
L 196.127669 129.351082 
L 196.127669 128.824396 
L 196.436518 128.824396 
L 196.436518 127.244338 
L 197.034358 127.244338 
L 197.034358 126.190966 
L 197.444804 126.190966 
L 197.517365 121.450791 
L 197.892499 121.450791 
L 197.892499 120.397419 
L 198.24329 120.397419 
L 198.348983 118.817361 
L 198.368956 118.817361 
L 198.472088 117.237302 
L 198.509931 117.237302 
L 198.509931 116.710616 
L 198.694362 116.710616 
L 198.694362 115.657244 
L 198.845107 115.657244 
L 198.845107 113.5505 
L 199.080136 113.5505 
L 199.080136 113.023814 
L 199.234506 113.023814 
L 199.234506 111.443755 
L 199.459266 111.443755 
L 199.459266 110.917069 
L 199.62891 110.917069 
L 199.62891 110.390383 
L 199.79692 110.390383 
L 199.79692 109.863697 
L 200.12652 109.863697 
L 200.12652 109.337011 
L 200.380613 109.337011 
L 200.416151 107.230267 
L 200.613515 107.230267 
L 200.613515 106.703581 
L 200.794465 106.703581 
L 200.876384 105.123522 
L 201.425588 105.123522 
L 201.425588 104.596836 
L 201.553049 104.596836 
L 201.553049 104.07015 
L 201.952114 104.07015 
L 201.952114 103.543464 
L 202.151926 103.543464 
L 202.151926 103.016778 
L 203.106963 103.016778 
L 203.159437 100.910034 
L 203.304983 100.910034 
L 203.304983 100.383348 
L 203.469653 100.383348 
L 203.469653 99.856662 
L 204.041266 99.856662 
L 204.041266 99.329976 
L 204.571862 99.329976 
L 204.571862 98.803289 
L 204.684665 98.803289 
L 204.684665 98.276603 
L 204.89313 98.276603 
L 204.89313 97.749917 
L 205.239208 97.749917 
L 205.239208 97.223231 
L 205.407281 97.223231 
L 205.407281 96.696545 
L 206.553001 96.696545 
L 206.553001 94.589801 
L 207.246147 94.589801 
L 207.246147 94.063115 
L 209.367454 94.063115 
L 209.367454 93.536429 
L 210.612315 93.536429 
L 210.612315 92.483056 
L 217.819496 92.483056 
L 217.819496 91.95637 
L 218.058183 91.95637 
L 218.058183 91.429684 
L 218.587563 91.429684 
L 218.587563 90.376312 
L 219.277323 90.376312 
L 219.357571 89.32294 
L 219.626185 89.32294 
L 219.62833 87.742882 
L 219.844705 87.742882 
L 219.844705 86.68951 
L 220.155993 86.68951 
L 220.229717 85.636137 
L 220.319632 85.636137 
L 220.412674 84.582765 
L 220.438289 84.582765 
L 220.524591 83.529393 
L 220.667148 83.529393 
L 220.667148 83.002707 
L 220.993004 83.002707 
L 221.042029 81.949335 
L 221.255823 81.949335 
L 221.308987 80.369277 
L 221.526769 80.369277 
L 221.593493 78.262532 
L 221.704771 78.262532 
L 221.785515 76.682474 
L 221.951055 76.682474 
L 222.034874 74.049044 
L 222.097824 74.049044 
L 222.190668 71.942299 
L 222.219349 71.942299 
L 222.325338 69.308869 
L 222.456697 69.308869 
L 222.550376 67.202125 
L 222.569414 67.202125 
L 222.569414 66.675439 
L 222.753281 66.675439 
L 222.857421 63.515322 
L 222.864995 63.515322 
L 222.864995 62.988636 
L 223.04182 62.988636 
L 223.102123 60.355206 
L 223.184537 60.355206 
L 223.281792 58.775147 
L 223.338671 58.775147 
L 223.338671 57.721775 
L 223.68801 57.721775 
L 223.68801 57.195089 
L 223.860089 57.195089 
L 223.860089 56.668403 
L 224.063785 56.668403 
L 224.063785 56.141717 
L 224.201299 56.141717 
L 224.201299 55.615031 
L 224.356557 55.615031 
L 224.356557 55.088345 
L 225.433616 55.088345 
L 225.433616 54.034973 
L 225.671481 54.034973 
L 225.671481 53.508287 
L 230.109753 53.508287 
L 230.109753 52.9816 
L 230.954233 52.9816 
L 230.954233 52.454914 
L 231.273419 52.454914 
L 231.273419 51.928228 
L 231.673365 51.928228 
L 231.776811 50.874856 
L 231.940637 50.874856 
L 231.981089 49.821484 
L 232.071964 49.821484 
L 232.168639 47.188054 
L 232.301637 47.188054 
L 232.368146 45.081309 
L 232.419471 45.081309 
L 232.46705 44.027937 
L 232.584285 44.027937 
L 232.618691 42.974565 
L 232.722264 42.974565 
L 232.785425 40.867821 
L 233.153984 40.867821 
L 233.153984 40.341135 
L 233.636387 40.341135 
L 233.645511 39.287762 
L 237.247678 39.287762 
L 237.247678 38.761076 
L 238.714433 38.761076 
L 238.806455 37.707704 
L 239.163639 37.707704 
L 239.219878 36.127646 
L 239.275589 36.127646 
L 239.362283 35.074274 
L 239.667461 35.074274 
L 239.667461 34.547588 
L 239.854259 34.547588 
L 239.854259 34.020902 
L 240.129517 34.020902 
L 240.129517 33.494215 
L 243.422083 33.494215 
L 243.455899 32.440843 
L 243.733242 32.440843 
L 243.733242 31.914157 
L 244.051639 31.914157 
L 244.051639 31.387471 
L 244.284952 31.387471 
L 244.284952 30.860785 
L 250.333596 30.860785 
L 250.333596 30.334099 
L 338.688 30.334099 
L 338.688 30.334099 
" style="fill:none;stroke:#ff00ff;stroke-linecap:square;stroke-width:1.5;"/>
   </g>
   <g id="line2d_41">
    <defs>
     <path d="M -0 8.485281 
L 5.091169 0 
L 0 -8.485281 
L -5.091169 -0 
z
" id="m17fe6fea8b" style="stroke:#ff00ff;stroke-linejoin:miter;stroke-width:1.5;"/>
    </defs>
    <g>
     <use style="fill-opacity:0;stroke:#ff00ff;stroke-linejoin:miter;stroke-width:1.5;" x="114.193835" xlink:href="#m17fe6fea8b" y="268.396207"/>
     <use style="fill-opacity:0;stroke:#ff00ff;stroke-linejoin:miter;stroke-width:1.5;" x="183.921659" xlink:href="#m17fe6fea8b" y="185.179807"/>
     <use style="fill-opacity:0;stroke:#ff00ff;stroke-linejoin:miter;stroke-width:1.5;" x="222.034874" xlink:href="#m17fe6fea8b" y="75.102416"/>
     <use style="fill-opacity:0;stroke:#ff00ff;stroke-linejoin:miter;stroke-width:1.5;" x="250.333596" xlink:href="#m17fe6fea8b" y="30.334099"/>
     <use style="fill-opacity:0;stroke:#ff00ff;stroke-linejoin:miter;stroke-width:1.5;" x="250.333596" xlink:href="#m17fe6fea8b" y="30.334099"/>
     <use style="fill-opacity:0;stroke:#ff00ff;stroke-linejoin:miter;stroke-width:1.5;" x="338.688" xlink:href="#m17fe6fea8b" y="30.334099"/>
    </g>
   </g>
   <g id="line2d_42">
    <path style="fill:none;stroke:#ff00ff;stroke-linecap:square;stroke-width:1.5;"/>
    <g/>
   </g>
   <g id="line2d_43">
    <path clip-path="url(#pe9ad6de59c)" d="M 218.221714 91.429684 
" style="fill:none;stroke:#ff00ff;stroke-linecap:square;stroke-width:1.5;"/>
    <defs>
     <path d="M -12 12 
L 12 -12 
M -12 -12 
L 12 12 
" id="m427017f145" style="stroke:#ff00ff;"/>
    </defs>
    <g clip-path="url(#pe9ad6de59c)">
     <use style="fill:#ff00ff;stroke:#ff00ff;" x="218.221714" xlink:href="#m427017f145" y="91.429684"/>
    </g>
   </g>
   <g id="line2d_44">
    <path d="M 338.688 30.334099 
L 369.60768 293.571802 
" style="fill:none;stroke:#000080;stroke-linecap:square;stroke-width:1.5;"/>
    <g>
     <use style="fill-opacity:0;stroke:#000080;stroke-width:1.5;" x="338.688" xlink:href="#m0694490eaa" y="30.334099"/>
     <use style="fill-opacity:0;stroke:#000080;stroke-width:1.5;" x="369.60768" xlink:href="#m0694490eaa" y="293.571802"/>
    </g>
   </g>
   <g id="line2d_45">
    <path d="M 338.688 30.334099 
L 369.60768 164.63905 
" style="fill:none;stroke:#ff00ff;stroke-linecap:square;stroke-width:1.5;"/>
    <g>
     <use style="fill-opacity:0;stroke:#ff00ff;stroke-linejoin:miter;stroke-width:1.5;" x="338.688" xlink:href="#m17fe6fea8b" y="30.334099"/>
     <use style="fill-opacity:0;stroke:#ff00ff;stroke-linejoin:miter;stroke-width:1.5;" x="369.60768" xlink:href="#m17fe6fea8b" y="164.63905"/>
    </g>
   </g>
   <g id="line2d_46">
    <path d="M 338.688 298.944 
L 338.688 30.334099 
" style="fill:none;stroke:#000000;stroke-linecap:square;stroke-width:1.5;"/>
   </g>
   <g id="patch_3">
    <path d="M 57.6 298.944 
L 57.6 27.648 
" style="fill:none;stroke:#000000;stroke-linecap:square;stroke-linejoin:miter;stroke-width:0.8;"/>
   </g>
   <g id="patch_4">
    <path d="M 338.688 298.944 
L 338.688 27.648 
" style="fill:none;stroke:#000000;stroke-linecap:square;stroke-linejoin:miter;stroke-width:0.8;"/>
   </g>
   <g id="patch_5">
    <path d="M 57.6 298.944 
L 338.688 298.944 
" style="fill:none;stroke:#000000;stroke-linecap:square;stroke-linejoin:miter;stroke-width:0.8;"/>
   </g>
   <g id="patch_6">
    <path d="M 57.6 27.648 
L 338.688 27.648 
" style="fill:none;stroke:#000000;stroke-linecap:square;stroke-linejoin:miter;stroke-width:0.8;"/>
   </g>
   <g id="text_13">
    <!-- outputCMA -->
    <g transform="translate(375.22944 298.262739)scale(0.17 -0.17)">
     <defs>
      <path d="M 64.40625 67.28125 
L 64.40625 56.890625 
Q 59.421875 61.53125 53.78125 63.8125 
Q 48.140625 66.109375 41.796875 66.109375 
Q 29.296875 66.109375 22.65625 58.46875 
Q 16.015625 50.828125 16.015625 36.375 
Q 16.015625 21.96875 22.65625 14.328125 
Q 29.296875 6.6875 41.796875 6.6875 
Q 48.140625 6.6875 53.78125 8.984375 
Q 59.421875 11.28125 64.40625 15.921875 
L 64.40625 5.609375 
Q 59.234375 2.09375 53.4375 0.328125 
Q 47.65625 -1.421875 41.21875 -1.421875 
Q 24.65625 -1.421875 15.125 8.703125 
Q 5.609375 18.84375 5.609375 36.375 
Q 5.609375 53.953125 15.125 64.078125 
Q 24.65625 74.21875 41.21875 74.21875 
Q 47.75 74.21875 53.53125 72.484375 
Q 59.328125 70.75 64.40625 67.28125 
z
" id="DejaVuSans-67"/>
      <path d="M 9.8125 72.90625 
L 24.515625 72.90625 
L 43.109375 23.296875 
L 61.8125 72.90625 
L 76.515625 72.90625 
L 76.515625 0 
L 66.890625 0 
L 66.890625 64.015625 
L 48.09375 14.015625 
L 38.1875 14.015625 
L 19.390625 64.015625 
L 19.390625 0 
L 9.8125 0 
z
" id="DejaVuSans-77"/>
      <path d="M 34.1875 63.1875 
L 20.796875 26.90625 
L 47.609375 26.90625 
z
M 28.609375 72.90625 
L 39.796875 72.90625 
L 67.578125 0 
L 57.328125 0 
L 50.6875 18.703125 
L 17.828125 18.703125 
L 11.1875 0 
L 0.78125 0 
z
" id="DejaVuSans-65"/>
     </defs>
     <use xlink:href="#DejaVuSans-111"/>
     <use x="61.181641" xlink:href="#DejaVuSans-117"/>
     <use x="124.560547" xlink:href="#DejaVuSans-116"/>
     <use x="163.769531" xlink:href="#DejaVuSans-112"/>
     <use x="227.246094" xlink:href="#DejaVuSans-117"/>
     <use x="290.625" xlink:href="#DejaVuSans-116"/>
     <use x="329.833984" xlink:href="#DejaVuSans-67"/>
     <use x="399.658203" xlink:href="#DejaVuSans-77"/>
     <use x="485.9375" xlink:href="#DejaVuSans-65"/>
    </g>
   </g>
   <g id="text_14">
    <!-- PSO -->
    <g transform="translate(375.22944 169.329987)scale(0.17 -0.17)">
     <defs>
      <path d="M 19.671875 64.796875 
L 19.671875 37.40625 
L 32.078125 37.40625 
Q 38.96875 37.40625 42.71875 40.96875 
Q 46.484375 44.53125 46.484375 51.125 
Q 46.484375 57.671875 42.71875 61.234375 
Q 38.96875 64.796875 32.078125 64.796875 
z
M 9.8125 72.90625 
L 32.078125 72.90625 
Q 44.34375 72.90625 50.609375 67.359375 
Q 56.890625 61.8125 56.890625 51.125 
Q 56.890625 40.328125 50.609375 34.8125 
Q 44.34375 29.296875 32.078125 29.296875 
L 19.671875 29.296875 
L 19.671875 0 
L 9.8125 0 
z
" id="DejaVuSans-80"/>
      <path d="M 53.515625 70.515625 
L 53.515625 60.890625 
Q 47.90625 63.578125 42.921875 64.890625 
Q 37.9375 66.21875 33.296875 66.21875 
Q 25.25 66.21875 20.875 63.09375 
Q 16.5 59.96875 16.5 54.203125 
Q 16.5 49.359375 19.40625 46.890625 
Q 22.3125 44.4375 30.421875 42.921875 
L 36.375 41.703125 
Q 47.40625 39.59375 52.65625 34.296875 
Q 57.90625 29 57.90625 20.125 
Q 57.90625 9.515625 50.796875 4.046875 
Q 43.703125 -1.421875 29.984375 -1.421875 
Q 24.8125 -1.421875 18.96875 -0.25 
Q 13.140625 0.921875 6.890625 3.21875 
L 6.890625 13.375 
Q 12.890625 10.015625 18.65625 8.296875 
Q 24.421875 6.59375 29.984375 6.59375 
Q 38.421875 6.59375 43.015625 9.90625 
Q 47.609375 13.234375 47.609375 19.390625 
Q 47.609375 24.75 44.3125 27.78125 
Q 41.015625 30.8125 33.5 32.328125 
L 27.484375 33.5 
Q 16.453125 35.6875 11.515625 40.375 
Q 6.59375 45.0625 6.59375 53.421875 
Q 6.59375 63.09375 13.40625 68.65625 
Q 20.21875 74.21875 32.171875 74.21875 
Q 37.3125 74.21875 42.625 73.28125 
Q 47.953125 72.359375 53.515625 70.515625 
z
" id="DejaVuSans-83"/>
      <path d="M 39.40625 66.21875 
Q 28.65625 66.21875 22.328125 58.203125 
Q 16.015625 50.203125 16.015625 36.375 
Q 16.015625 22.609375 22.328125 14.59375 
Q 28.65625 6.59375 39.40625 6.59375 
Q 50.140625 6.59375 56.421875 14.59375 
Q 62.703125 22.609375 62.703125 36.375 
Q 62.703125 50.203125 56.421875 58.203125 
Q 50.140625 66.21875 39.40625 66.21875 
z
M 39.40625 74.21875 
Q 54.734375 74.21875 63.90625 63.9375 
Q 73.09375 53.65625 73.09375 36.375 
Q 73.09375 19.140625 63.90625 8.859375 
Q 54.734375 -1.421875 39.40625 -1.421875 
Q 24.03125 -1.421875 14.8125 8.828125 
Q 5.609375 19.09375 5.609375 36.375 
Q 5.609375 53.65625 14.8125 63.9375 
Q 24.03125 74.21875 39.40625 74.21875 
z
" id="DejaVuSans-79"/>
     </defs>
     <use xlink:href="#DejaVuSans-80"/>
     <use x="60.302734" xlink:href="#DejaVuSans-83"/>
     <use x="123.779297" xlink:href="#DejaVuSans-79"/>
    </g>
   </g>
   <g id="text_15">
    <!-- best 2009 -->
    <g transform="translate(375.22944 40.397235)scale(0.17 -0.17)">
     <defs>
      <path d="M 48.6875 27.296875 
Q 48.6875 37.203125 44.609375 42.84375 
Q 40.53125 48.484375 33.40625 48.484375 
Q 26.265625 48.484375 22.1875 42.84375 
Q 18.109375 37.203125 18.109375 27.296875 
Q 18.109375 17.390625 22.1875 11.75 
Q 26.265625 6.109375 33.40625 6.109375 
Q 40.53125 6.109375 44.609375 11.75 
Q 48.6875 17.390625 48.6875 27.296875 
z
M 18.109375 46.390625 
Q 20.953125 51.265625 25.265625 53.625 
Q 29.59375 56 35.59375 56 
Q 45.5625 56 51.78125 48.09375 
Q 58.015625 40.1875 58.015625 27.296875 
Q 58.015625 14.40625 51.78125 6.484375 
Q 45.5625 -1.421875 35.59375 -1.421875 
Q 29.59375 -1.421875 25.265625 0.953125 
Q 20.953125 3.328125 18.109375 8.203125 
L 18.109375 0 
L 9.078125 0 
L 9.078125 75.984375 
L 18.109375 75.984375 
z
" id="DejaVuSans-98"/>
      <path d="M 10.984375 1.515625 
L 10.984375 10.5 
Q 14.703125 8.734375 18.5 7.8125 
Q 22.3125 6.890625 25.984375 6.890625 
Q 35.75 6.890625 40.890625 13.453125 
Q 46.046875 20.015625 46.78125 33.40625 
Q 43.953125 29.203125 39.59375 26.953125 
Q 35.25 24.703125 29.984375 24.703125 
Q 19.046875 24.703125 12.671875 31.3125 
Q 6.296875 37.9375 6.296875 49.421875 
Q 6.296875 60.640625 12.9375 67.421875 
Q 19.578125 74.21875 30.609375 74.21875 
Q 43.265625 74.21875 49.921875 64.515625 
Q 56.59375 54.828125 56.59375 36.375 
Q 56.59375 19.140625 48.40625 8.859375 
Q 40.234375 -1.421875 26.421875 -1.421875 
Q 22.703125 -1.421875 18.890625 -0.6875 
Q 15.09375 0.046875 10.984375 1.515625 
z
M 30.609375 32.421875 
Q 37.25 32.421875 41.125 36.953125 
Q 45.015625 41.5 45.015625 49.421875 
Q 45.015625 57.28125 41.125 61.84375 
Q 37.25 66.40625 30.609375 66.40625 
Q 23.96875 66.40625 20.09375 61.84375 
Q 16.21875 57.28125 16.21875 49.421875 
Q 16.21875 41.5 20.09375 36.953125 
Q 23.96875 32.421875 30.609375 32.421875 
z
" id="DejaVuSans-57"/>
     </defs>
     <use xlink:href="#DejaVuSans-98"/>
     <use x="63.476562" xlink:href="#DejaVuSans-101"/>
     <use x="125" xlink:href="#DejaVuSans-115"/>
     <use x="177.099609" xlink:href="#DejaVuSans-116"/>
     <use x="216.308594" xlink:href="#DejaVuSans-32"/>
     <use x="248.095703" xlink:href="#DejaVuSans-50"/>
     <use x="311.71875" xlink:href="#DejaVuSans-48"/>
     <use x="375.341797" xlink:href="#DejaVuSans-48"/>
     <use x="438.964844" xlink:href="#DejaVuSans-57"/>
    </g>
   </g>
   <g id="text_16">
    <!-- bbob f16, 3-D -->
    <g transform="translate(60.41088 38.111366)scale(0.102 -0.102)">
     <defs>
      <path d="M 40.578125 39.3125 
Q 47.65625 37.796875 51.625 33 
Q 55.609375 28.21875 55.609375 21.1875 
Q 55.609375 10.40625 48.1875 4.484375 
Q 40.765625 -1.421875 27.09375 -1.421875 
Q 22.515625 -1.421875 17.65625 -0.515625 
Q 12.796875 0.390625 7.625 2.203125 
L 7.625 11.71875 
Q 11.71875 9.328125 16.59375 8.109375 
Q 21.484375 6.890625 26.8125 6.890625 
Q 36.078125 6.890625 40.9375 10.546875 
Q 45.796875 14.203125 45.796875 21.1875 
Q 45.796875 27.640625 41.28125 31.265625 
Q 36.765625 34.90625 28.71875 34.90625 
L 20.21875 34.90625 
L 20.21875 43.015625 
L 29.109375 43.015625 
Q 36.375 43.015625 40.234375 45.921875 
Q 44.09375 48.828125 44.09375 54.296875 
Q 44.09375 59.90625 40.109375 62.90625 
Q 36.140625 65.921875 28.71875 65.921875 
Q 24.65625 65.921875 20.015625 65.03125 
Q 15.375 64.15625 9.8125 62.3125 
L 9.8125 71.09375 
Q 15.4375 72.65625 20.34375 73.4375 
Q 25.25 74.21875 29.59375 74.21875 
Q 40.828125 74.21875 47.359375 69.109375 
Q 53.90625 64.015625 53.90625 55.328125 
Q 53.90625 49.265625 50.4375 45.09375 
Q 46.96875 40.921875 40.578125 39.3125 
z
" id="DejaVuSans-51"/>
      <path d="M 19.671875 64.796875 
L 19.671875 8.109375 
L 31.59375 8.109375 
Q 46.6875 8.109375 53.6875 14.9375 
Q 60.6875 21.78125 60.6875 36.53125 
Q 60.6875 51.171875 53.6875 57.984375 
Q 46.6875 64.796875 31.59375 64.796875 
z
M 9.8125 72.90625 
L 30.078125 72.90625 
Q 51.265625 72.90625 61.171875 64.09375 
Q 71.09375 55.28125 71.09375 36.53125 
Q 71.09375 17.671875 61.125 8.828125 
Q 51.171875 0 30.078125 0 
L 9.8125 0 
z
" id="DejaVuSans-68"/>
     </defs>
     <use xlink:href="#DejaVuSans-98"/>
     <use x="63.476562" xlink:href="#DejaVuSans-98"/>
     <use x="126.953125" xlink:href="#DejaVuSans-111"/>
     <use x="188.134766" xlink:href="#DejaVuSans-98"/>
     <use x="251.611328" xlink:href="#DejaVuSans-32"/>
     <use x="283.398438" xlink:href="#DejaVuSans-102"/>
     <use x="318.603516" xlink:href="#DejaVuSans-49"/>
     <use x="382.226562" xlink:href="#DejaVuSans-54"/>
     <use x="445.849609" xlink:href="#DejaVuSans-44"/>
     <use x="477.636719" xlink:href="#DejaVuSans-32"/>
     <use x="509.423828" xlink:href="#DejaVuSans-51"/>
     <use x="573.046875" xlink:href="#DejaVuSans-45"/>
     <use x="609.130859" xlink:href="#DejaVuSans-68"/>
    </g>
    <!-- 51 targets: 100..1e-08 -->
    <g transform="translate(60.41088 49.533135)scale(0.102 -0.102)">
     <defs>
      <path d="M 10.796875 72.90625 
L 49.515625 72.90625 
L 49.515625 64.59375 
L 19.828125 64.59375 
L 19.828125 46.734375 
Q 21.96875 47.46875 24.109375 47.828125 
Q 26.265625 48.1875 28.421875 48.1875 
Q 40.625 48.1875 47.75 41.5 
Q 54.890625 34.8125 54.890625 23.390625 
Q 54.890625 11.625 47.5625 5.09375 
Q 40.234375 -1.421875 26.90625 -1.421875 
Q 22.3125 -1.421875 17.546875 -0.640625 
Q 12.796875 0.140625 7.71875 1.703125 
L 7.71875 11.625 
Q 12.109375 9.234375 16.796875 8.0625 
Q 21.484375 6.890625 26.703125 6.890625 
Q 35.15625 6.890625 40.078125 11.328125 
Q 45.015625 15.765625 45.015625 23.390625 
Q 45.015625 31 40.078125 35.4375 
Q 35.15625 39.890625 26.703125 39.890625 
Q 22.75 39.890625 18.8125 39.015625 
Q 14.890625 38.140625 10.796875 36.28125 
z
" id="DejaVuSans-53"/>
      <path d="M 11.71875 12.40625 
L 22.015625 12.40625 
L 22.015625 0 
L 11.71875 0 
z
M 11.71875 51.703125 
L 22.015625 51.703125 
L 22.015625 39.3125 
L 11.71875 39.3125 
z
" id="DejaVuSans-58"/>
     </defs>
     <use xlink:href="#DejaVuSans-53"/>
     <use x="63.623047" xlink:href="#DejaVuSans-49"/>
     <use x="127.246094" xlink:href="#DejaVuSans-32"/>
     <use x="159.033203" xlink:href="#DejaVuSans-116"/>
     <use x="198.242188" xlink:href="#DejaVuSans-97"/>
     <use x="259.521484" xlink:href="#DejaVuSans-114"/>
     <use x="298.884766" xlink:href="#DejaVuSans-103"/>
     <use x="362.361328" xlink:href="#DejaVuSans-101"/>
     <use x="423.884766" xlink:href="#DejaVuSans-116"/>
     <use x="463.09375" xlink:href="#DejaVuSans-115"/>
     <use x="515.193359" xlink:href="#DejaVuSans-58"/>
     <use x="548.884766" xlink:href="#DejaVuSans-32"/>
     <use x="580.671875" xlink:href="#DejaVuSans-49"/>
     <use x="644.294922" xlink:href="#DejaVuSans-48"/>
     <use x="707.917969" xlink:href="#DejaVuSans-48"/>
     <use x="771.541016" xlink:href="#DejaVuSans-46"/>
     <use x="803.328125" xlink:href="#DejaVuSans-46"/>
     <use x="835.115234" xlink:href="#DejaVuSans-49"/>
     <use x="898.738281" xlink:href="#DejaVuSans-101"/>
     <use x="960.261719" xlink:href="#DejaVuSans-45"/>
     <use x="996.345703" xlink:href="#DejaVuSans-48"/>
     <use x="1059.96875" xlink:href="#DejaVuSans-56"/>
    </g>
    <!-- 15 instances -->
    <g transform="translate(60.41088 60.954904)scale(0.102 -0.102)">
     <use xlink:href="#DejaVuSans-49"/>
     <use x="63.623047" xlink:href="#DejaVuSans-53"/>
     <use x="127.246094" xlink:href="#DejaVuSans-32"/>
     <use x="159.033203" xlink:href="#DejaVuSans-105"/>
     <use x="186.816406" xlink:href="#DejaVuSans-110"/>
     <use x="250.195312" xlink:href="#DejaVuSans-115"/>
     <use x="302.294922" xlink:href="#DejaVuSans-116"/>
     <use x="341.503906" xlink:href="#DejaVuSans-97"/>
     <use x="402.783203" xlink:href="#DejaVuSans-110"/>
     <use x="466.162109" xlink:href="#DejaVuSans-99"/>
     <use x="521.142578" xlink:href="#DejaVuSans-101"/>
     <use x="582.666016" xlink:href="#DejaVuSans-115"/>
    </g>
   </g>
   <g id="text_17">
    <!-- v2.4 -->
    <g style="fill:#808080;" transform="translate(187.233062 294.151352)scale(0.1 -0.1)">
     <use xlink:href="#DejaVuSans-118"/>
     <use x="59.179688" xlink:href="#DejaVuSans-50"/>
     <use x="122.802734" xlink:href="#DejaVuSans-46"/>
     <use x="154.589844" xlink:href="#DejaVuSans-52"/>
    </g>
   </g>
   <g id="text_18">
    <!-- 16 Weierstrass -->
    <g transform="translate(123.958062 21.648)scale(0.2 -0.2)">
     <defs>
      <path d="M 3.328125 72.90625 
L 13.28125 72.90625 
L 28.609375 11.28125 
L 43.890625 72.90625 
L 54.984375 72.90625 
L 70.3125 11.28125 
L 85.59375 72.90625 
L 95.609375 72.90625 
L 77.296875 0 
L 64.890625 0 
L 49.515625 63.28125 
L 33.984375 0 
L 21.578125 0 
z
" id="DejaVuSans-87"/>
     </defs>
     <use xlink:href="#DejaVuSans-49"/>
     <use x="63.623047" xlink:href="#DejaVuSans-54"/>
     <use x="127.246094" xlink:href="#DejaVuSans-32"/>
     <use x="159.033203" xlink:href="#DejaVuSans-87"/>
     <use x="252.035156" xlink:href="#DejaVuSans-101"/>
     <use x="313.558594" xlink:href="#DejaVuSans-105"/>
     <use x="341.341797" xlink:href="#DejaVuSans-101"/>
     <use x="402.865234" xlink:href="#DejaVuSans-114"/>
     <use x="443.978516" xlink:href="#DejaVuSans-115"/>
     <use x="496.078125" xlink:href="#DejaVuSans-116"/>
     <use x="535.287109" xlink:href="#DejaVuSans-114"/>
     <use x="576.400391" xlink:href="#DejaVuSans-97"/>
     <use x="637.679688" xlink:href="#DejaVuSans-115"/>
     <use x="689.779297" xlink:href="#DejaVuSans-115"/>
    </g>
   </g>
  </g>
 </g>
 <defs>
  <clipPath id="pe9ad6de59c">
   <rect height="271.296" width="281.088" x="57.6" y="27.648"/>
  </clipPath>
 </defs>
</svg>
