<?xml version="1.0" encoding="utf-8" standalone="no"?>
<!DOCTYPE svg PUBLIC "-//W3C//DTD SVG 1.1//EN"
  "http://www.w3.org/Graphics/SVG/1.1/DTD/svg11.dtd">
<!-- Created with matplotlib (https://matplotlib.org/) -->
<svg height="345.6pt" version="1.1" viewBox="0 0 460.8 345.6" width="460.8pt" xmlns="http://www.w3.org/2000/svg" xmlns:xlink="http://www.w3.org/1999/xlink">
 <metadata>
  <rdf:RDF xmlns:cc="http://creativecommons.org/ns#" xmlns:dc="http://purl.org/dc/elements/1.1/" xmlns:rdf="http://www.w3.org/1999/02/22-rdf-syntax-ns#">
   <cc:Work>
    <dc:type rdf:resource="http://purl.org/dc/dcmitype/StillImage"/>
    <dc:date>2021-04-27T05:15:09.709120</dc:date>
    <dc:format>image/svg+xml</dc:format>
    <dc:creator>
     <cc:Agent>
      <dc:title>Matplotlib v3.3.4, https://matplotlib.org/</dc:title>
     </cc:Agent>
    </dc:creator>
   </cc:Work>
  </rdf:RDF>
 </metadata>
 <defs>
  <style type="text/css">*{stroke-linecap:butt;stroke-linejoin:round;}</style>
 </defs>
 <g id="figure_1">
  <g id="patch_1">
   <path d="M 0 345.6 
L 460.8 345.6 
L 460.8 0 
L 0 0 
z
" style="fill:#ffffff;"/>
  </g>
  <g id="axes_1">
   <g id="patch_2">
    <path d="M 57.6 298.944 
L 338.688 298.944 
L 338.688 27.648 
L 57.6 27.648 
z
" style="fill:#ffffff;"/>
   </g>
   <g id="line2d_1">
    <path d="M 38.440992 298.944 
L 38.440992 293.677139 
L 50.52898 293.677139 
L 50.52898 288.410278 
L 66.508432 288.410278 
L 66.508432 283.143418 
L 83.171864 283.143418 
L 83.171864 277.876557 
L 95.259853 277.876557 
L 95.259853 272.609696 
L 102.772397 272.609696 
L 102.772397 267.342835 
L 108.640231 267.342835 
L 108.640231 262.075974 
L 112.026172 262.075974 
L 112.026172 256.809114 
L 116.121606 256.809114 
L 116.121606 251.542253 
L 121.638301 251.542253 
L 121.638301 246.275392 
L 125.23165 246.275392 
L 125.23165 241.008531 
L 129.385722 241.008531 
L 129.385722 235.74167 
L 146.819289 235.74167 
L 146.819289 230.47481 
L 153.537988 230.47481 
L 153.537988 225.207949 
L 155.720743 225.207949 
L 155.720743 219.941088 
L 163.33453 219.941088 
L 163.33453 214.674227 
L 164.076176 214.674227 
L 164.076176 209.407366 
L 167.59811 209.407366 
L 167.59811 204.140506 
L 168.77585 204.140506 
L 168.77585 198.873645 
L 176.912855 198.873645 
L 176.912855 193.606784 
L 178.547874 193.606784 
L 178.547874 188.339923 
L 179.521099 188.339923 
L 179.521099 183.073062 
L 179.901953 183.073062 
L 179.901953 177.806202 
L 180.140994 177.806202 
L 180.140994 172.539341 
L 180.407326 172.539341 
L 180.407326 167.27248 
L 180.868789 167.27248 
L 180.868789 162.005619 
L 181.657549 162.005619 
L 181.657549 156.738758 
L 181.775431 156.738758 
L 181.775431 151.471897 
L 182.031998 151.471897 
L 182.031998 146.205037 
L 182.384967 146.205037 
L 182.384967 140.938176 
L 182.832957 140.938176 
L 182.832957 135.671315 
L 183.243826 135.671315 
L 183.243826 130.404454 
L 183.338605 130.404454 
L 183.338605 125.137593 
L 183.725263 125.137593 
L 183.725263 119.870733 
L 184.733501 119.870733 
L 184.733501 114.603872 
L 186.036086 114.603872 
L 186.036086 109.337011 
L 187.316641 109.337011 
L 187.316641 104.07015 
L 187.469872 104.07015 
L 187.469872 98.803289 
L 187.631848 98.803289 
L 187.631848 93.536429 
L 187.732324 93.536429 
L 187.732324 88.269568 
L 187.762355 88.269568 
L 187.762355 83.002707 
L 187.974425 83.002707 
L 187.974425 77.735846 
L 188.278065 77.735846 
L 188.278065 72.468985 
L 188.416691 72.468985 
L 188.416691 67.202125 
L 188.573327 67.202125 
L 188.573327 61.935264 
L 188.72226 61.935264 
L 188.72226 56.668403 
L 188.841751 56.668403 
L 188.841751 51.401542 
L 188.926157 51.401542 
L 188.926157 46.134681 
L 189.062839 46.134681 
L 189.062839 40.867821 
L 189.161575 40.867821 
L 189.161575 35.60096 
L 189.247514 35.60096 
L 189.247514 30.334099 
L 338.688 30.334099 
" style="fill:none;stroke:#f5deb3;stroke-linecap:square;stroke-width:4;"/>
   </g>
   <g id="line2d_2">
    <defs>
     <path d="M -0 7.778175 
L 7.778175 0 
L 0 -7.778175 
L -7.778175 -0 
z
" id="mb0cea73dca" style="stroke:#f5deb3;stroke-linejoin:miter;stroke-width:1.5;"/>
    </defs>
    <g>
     <use style="fill:#f5deb3;stroke:#f5deb3;stroke-linejoin:miter;stroke-width:1.5;" x="125.23165" xlink:href="#mb0cea73dca" y="246.275392"/>
     <use style="fill:#f5deb3;stroke:#f5deb3;stroke-linejoin:miter;stroke-width:1.5;" x="180.407326" xlink:href="#mb0cea73dca" y="172.539341"/>
     <use style="fill:#f5deb3;stroke:#f5deb3;stroke-linejoin:miter;stroke-width:1.5;" x="188.278065" xlink:href="#mb0cea73dca" y="72.468985"/>
     <use style="fill:#f5deb3;stroke:#f5deb3;stroke-linejoin:miter;stroke-width:1.5;" x="189.247514" xlink:href="#mb0cea73dca" y="30.334099"/>
     <use style="fill:#f5deb3;stroke:#f5deb3;stroke-linejoin:miter;stroke-width:1.5;" x="189.247514" xlink:href="#mb0cea73dca" y="30.334099"/>
     <use style="fill:#f5deb3;stroke:#f5deb3;stroke-linejoin:miter;stroke-width:1.5;" x="338.688" xlink:href="#mb0cea73dca" y="30.334099"/>
    </g>
   </g>
   <g id="line2d_3">
    <path style="fill:none;stroke:#f5deb3;stroke-linecap:square;stroke-width:4;"/>
    <g/>
   </g>
   <g id="line2d_4">
    <path d="M 338.688 30.334099 
L 369.60768 35.706297 
" style="fill:none;stroke:#f5deb3;stroke-linecap:square;stroke-width:4;"/>
    <g>
     <use style="fill:#f5deb3;stroke:#f5deb3;stroke-linejoin:miter;stroke-width:1.5;" x="338.688" xlink:href="#mb0cea73dca" y="30.334099"/>
     <use style="fill:#f5deb3;stroke:#f5deb3;stroke-linejoin:miter;stroke-width:1.5;" x="369.60768" xlink:href="#mb0cea73dca" y="35.706297"/>
    </g>
   </g>
   <g id="matplotlib.axis_1">
    <g id="xtick_1">
     <g id="line2d_5">
      <path clip-path="url(#pac8666cab8)" d="M 57.6 298.944 
L 57.6 27.648 
" style="fill:none;stroke:#b0b0b0;stroke-linecap:square;stroke-width:0.8;"/>
     </g>
     <g id="line2d_6">
      <defs>
       <path d="M 0 0 
L 0 3.5 
" id="m3183a17990" style="stroke:#000000;stroke-width:0.8;"/>
      </defs>
      <g>
       <use style="stroke:#000000;stroke-width:0.8;" x="57.6" xlink:href="#m3183a17990" y="298.944"/>
      </g>
     </g>
     <g id="text_1">
      <!-- 0 -->
      <g transform="translate(51.2375 321.140875)scale(0.2 -0.2)">
       <defs>
        <path d="M 31.78125 66.40625 
Q 24.171875 66.40625 20.328125 58.90625 
Q 16.5 51.421875 16.5 36.375 
Q 16.5 21.390625 20.328125 13.890625 
Q 24.171875 6.390625 31.78125 6.390625 
Q 39.453125 6.390625 43.28125 13.890625 
Q 47.125 21.390625 47.125 36.375 
Q 47.125 51.421875 43.28125 58.90625 
Q 39.453125 66.40625 31.78125 66.40625 
z
M 31.78125 74.21875 
Q 44.046875 74.21875 50.515625 64.515625 
Q 56.984375 54.828125 56.984375 36.375 
Q 56.984375 17.96875 50.515625 8.265625 
Q 44.046875 -1.421875 31.78125 -1.421875 
Q 19.53125 -1.421875 13.0625 8.265625 
Q 6.59375 17.96875 6.59375 36.375 
Q 6.59375 54.828125 13.0625 64.515625 
Q 19.53125 74.21875 31.78125 74.21875 
z
" id="DejaVuSans-48"/>
       </defs>
       <use xlink:href="#DejaVuSans-48"/>
      </g>
     </g>
    </g>
    <g id="xtick_2">
     <g id="line2d_7">
      <path clip-path="url(#pac8666cab8)" d="M 137.910857 298.944 
L 137.910857 27.648 
" style="fill:none;stroke:#b0b0b0;stroke-linecap:square;stroke-width:0.8;"/>
     </g>
     <g id="line2d_8">
      <g>
       <use style="stroke:#000000;stroke-width:0.8;" x="137.910857" xlink:href="#m3183a17990" y="298.944"/>
      </g>
     </g>
     <g id="text_2">
      <!-- 2 -->
      <g transform="translate(131.548357 321.140875)scale(0.2 -0.2)">
       <defs>
        <path d="M 19.1875 8.296875 
L 53.609375 8.296875 
L 53.609375 0 
L 7.328125 0 
L 7.328125 8.296875 
Q 12.9375 14.109375 22.625 23.890625 
Q 32.328125 33.6875 34.8125 36.53125 
Q 39.546875 41.84375 41.421875 45.53125 
Q 43.3125 49.21875 43.3125 52.78125 
Q 43.3125 58.59375 39.234375 62.25 
Q 35.15625 65.921875 28.609375 65.921875 
Q 23.96875 65.921875 18.8125 64.3125 
Q 13.671875 62.703125 7.8125 59.421875 
L 7.8125 69.390625 
Q 13.765625 71.78125 18.9375 73 
Q 24.125 74.21875 28.421875 74.21875 
Q 39.75 74.21875 46.484375 68.546875 
Q 53.21875 62.890625 53.21875 53.421875 
Q 53.21875 48.921875 51.53125 44.890625 
Q 49.859375 40.875 45.40625 35.40625 
Q 44.1875 33.984375 37.640625 27.21875 
Q 31.109375 20.453125 19.1875 8.296875 
z
" id="DejaVuSans-50"/>
       </defs>
       <use xlink:href="#DejaVuSans-50"/>
      </g>
     </g>
    </g>
    <g id="xtick_3">
     <g id="line2d_9">
      <path clip-path="url(#pac8666cab8)" d="M 218.221714 298.944 
L 218.221714 27.648 
" style="fill:none;stroke:#b0b0b0;stroke-linecap:square;stroke-width:0.8;"/>
     </g>
     <g id="line2d_10">
      <g>
       <use style="stroke:#000000;stroke-width:0.8;" x="218.221714" xlink:href="#m3183a17990" y="298.944"/>
      </g>
     </g>
     <g id="text_3">
      <!-- 4 -->
      <g transform="translate(211.859214 321.140875)scale(0.2 -0.2)">
       <defs>
        <path d="M 37.796875 64.3125 
L 12.890625 25.390625 
L 37.796875 25.390625 
z
M 35.203125 72.90625 
L 47.609375 72.90625 
L 47.609375 25.390625 
L 58.015625 25.390625 
L 58.015625 17.1875 
L 47.609375 17.1875 
L 47.609375 0 
L 37.796875 0 
L 37.796875 17.1875 
L 4.890625 17.1875 
L 4.890625 26.703125 
z
" id="DejaVuSans-52"/>
       </defs>
       <use xlink:href="#DejaVuSans-52"/>
      </g>
     </g>
    </g>
    <g id="xtick_4">
     <g id="line2d_11">
      <path clip-path="url(#pac8666cab8)" d="M 298.532571 298.944 
L 298.532571 27.648 
" style="fill:none;stroke:#b0b0b0;stroke-linecap:square;stroke-width:0.8;"/>
     </g>
     <g id="line2d_12">
      <g>
       <use style="stroke:#000000;stroke-width:0.8;" x="298.532571" xlink:href="#m3183a17990" y="298.944"/>
      </g>
     </g>
     <g id="text_4">
      <!-- 6 -->
      <g transform="translate(292.170071 321.140875)scale(0.2 -0.2)">
       <defs>
        <path d="M 33.015625 40.375 
Q 26.375 40.375 22.484375 35.828125 
Q 18.609375 31.296875 18.609375 23.390625 
Q 18.609375 15.53125 22.484375 10.953125 
Q 26.375 6.390625 33.015625 6.390625 
Q 39.65625 6.390625 43.53125 10.953125 
Q 47.40625 15.53125 47.40625 23.390625 
Q 47.40625 31.296875 43.53125 35.828125 
Q 39.65625 40.375 33.015625 40.375 
z
M 52.59375 71.296875 
L 52.59375 62.3125 
Q 48.875 64.0625 45.09375 64.984375 
Q 41.3125 65.921875 37.59375 65.921875 
Q 27.828125 65.921875 22.671875 59.328125 
Q 17.53125 52.734375 16.796875 39.40625 
Q 19.671875 43.65625 24.015625 45.921875 
Q 28.375 48.1875 33.59375 48.1875 
Q 44.578125 48.1875 50.953125 41.515625 
Q 57.328125 34.859375 57.328125 23.390625 
Q 57.328125 12.15625 50.6875 5.359375 
Q 44.046875 -1.421875 33.015625 -1.421875 
Q 20.359375 -1.421875 13.671875 8.265625 
Q 6.984375 17.96875 6.984375 36.375 
Q 6.984375 53.65625 15.1875 63.9375 
Q 23.390625 74.21875 37.203125 74.21875 
Q 40.921875 74.21875 44.703125 73.484375 
Q 48.484375 72.75 52.59375 71.296875 
z
" id="DejaVuSans-54"/>
       </defs>
       <use xlink:href="#DejaVuSans-54"/>
      </g>
     </g>
    </g>
    <g id="xtick_5">
     <g id="line2d_13">
      <path clip-path="url(#pac8666cab8)" d="M 97.755429 298.944 
L 97.755429 27.648 
" style="fill:none;stroke:#b0b0b0;stroke-linecap:square;stroke-width:0.8;"/>
     </g>
     <g id="line2d_14">
      <defs>
       <path d="M 0 0 
L 0 2 
" id="ma4efca15b7" style="stroke:#000000;stroke-width:0.6;"/>
      </defs>
      <g>
       <use style="stroke:#000000;stroke-width:0.6;" x="97.755429" xlink:href="#ma4efca15b7" y="298.944"/>
      </g>
     </g>
    </g>
    <g id="xtick_6">
     <g id="line2d_15">
      <path clip-path="url(#pac8666cab8)" d="M 178.066286 298.944 
L 178.066286 27.648 
" style="fill:none;stroke:#b0b0b0;stroke-linecap:square;stroke-width:0.8;"/>
     </g>
     <g id="line2d_16">
      <g>
       <use style="stroke:#000000;stroke-width:0.6;" x="178.066286" xlink:href="#ma4efca15b7" y="298.944"/>
      </g>
     </g>
    </g>
    <g id="xtick_7">
     <g id="line2d_17">
      <path clip-path="url(#pac8666cab8)" d="M 258.377143 298.944 
L 258.377143 27.648 
" style="fill:none;stroke:#b0b0b0;stroke-linecap:square;stroke-width:0.8;"/>
     </g>
     <g id="line2d_18">
      <g>
       <use style="stroke:#000000;stroke-width:0.6;" x="258.377143" xlink:href="#ma4efca15b7" y="298.944"/>
      </g>
     </g>
    </g>
    <g id="xtick_8">
     <g id="line2d_19">
      <path clip-path="url(#pac8666cab8)" d="M 338.688 298.944 
L 338.688 27.648 
" style="fill:none;stroke:#b0b0b0;stroke-linecap:square;stroke-width:0.8;"/>
     </g>
     <g id="line2d_20">
      <g>
       <use style="stroke:#000000;stroke-width:0.6;" x="338.688" xlink:href="#ma4efca15b7" y="298.944"/>
      </g>
     </g>
    </g>
    <g id="text_5">
     <!-- log10(# f-evals / dimension) -->
     <g transform="translate(77.764078 342.217594)scale(0.17 -0.17)">
      <defs>
       <path d="M 9.421875 75.984375 
L 18.40625 75.984375 
L 18.40625 0 
L 9.421875 0 
z
" id="DejaVuSans-108"/>
       <path d="M 30.609375 48.390625 
Q 23.390625 48.390625 19.1875 42.75 
Q 14.984375 37.109375 14.984375 27.296875 
Q 14.984375 17.484375 19.15625 11.84375 
Q 23.34375 6.203125 30.609375 6.203125 
Q 37.796875 6.203125 41.984375 11.859375 
Q 46.1875 17.53125 46.1875 27.296875 
Q 46.1875 37.015625 41.984375 42.703125 
Q 37.796875 48.390625 30.609375 48.390625 
z
M 30.609375 56 
Q 42.328125 56 49.015625 48.375 
Q 55.71875 40.765625 55.71875 27.296875 
Q 55.71875 13.875 49.015625 6.21875 
Q 42.328125 -1.421875 30.609375 -1.421875 
Q 18.84375 -1.421875 12.171875 6.21875 
Q 5.515625 13.875 5.515625 27.296875 
Q 5.515625 40.765625 12.171875 48.375 
Q 18.84375 56 30.609375 56 
z
" id="DejaVuSans-111"/>
       <path d="M 45.40625 27.984375 
Q 45.40625 37.75 41.375 43.109375 
Q 37.359375 48.484375 30.078125 48.484375 
Q 22.859375 48.484375 18.828125 43.109375 
Q 14.796875 37.75 14.796875 27.984375 
Q 14.796875 18.265625 18.828125 12.890625 
Q 22.859375 7.515625 30.078125 7.515625 
Q 37.359375 7.515625 41.375 12.890625 
Q 45.40625 18.265625 45.40625 27.984375 
z
M 54.390625 6.78125 
Q 54.390625 -7.171875 48.1875 -13.984375 
Q 42 -20.796875 29.203125 -20.796875 
Q 24.46875 -20.796875 20.265625 -20.09375 
Q 16.0625 -19.390625 12.109375 -17.921875 
L 12.109375 -9.1875 
Q 16.0625 -11.328125 19.921875 -12.34375 
Q 23.78125 -13.375 27.78125 -13.375 
Q 36.625 -13.375 41.015625 -8.765625 
Q 45.40625 -4.15625 45.40625 5.171875 
L 45.40625 9.625 
Q 42.625 4.78125 38.28125 2.390625 
Q 33.9375 0 27.875 0 
Q 17.828125 0 11.671875 7.65625 
Q 5.515625 15.328125 5.515625 27.984375 
Q 5.515625 40.671875 11.671875 48.328125 
Q 17.828125 56 27.875 56 
Q 33.9375 56 38.28125 53.609375 
Q 42.625 51.21875 45.40625 46.390625 
L 45.40625 54.6875 
L 54.390625 54.6875 
z
" id="DejaVuSans-103"/>
       <path d="M 12.40625 8.296875 
L 28.515625 8.296875 
L 28.515625 63.921875 
L 10.984375 60.40625 
L 10.984375 69.390625 
L 28.421875 72.90625 
L 38.28125 72.90625 
L 38.28125 8.296875 
L 54.390625 8.296875 
L 54.390625 0 
L 12.40625 0 
z
" id="DejaVuSans-49"/>
       <path d="M 31 75.875 
Q 24.46875 64.65625 21.28125 53.65625 
Q 18.109375 42.671875 18.109375 31.390625 
Q 18.109375 20.125 21.3125 9.0625 
Q 24.515625 -2 31 -13.1875 
L 23.1875 -13.1875 
Q 15.875 -1.703125 12.234375 9.375 
Q 8.59375 20.453125 8.59375 31.390625 
Q 8.59375 42.28125 12.203125 53.3125 
Q 15.828125 64.359375 23.1875 75.875 
z
" id="DejaVuSans-40"/>
       <path d="M 51.125 44 
L 36.921875 44 
L 32.8125 27.6875 
L 47.125 27.6875 
z
M 43.796875 71.78125 
L 38.71875 51.515625 
L 52.984375 51.515625 
L 58.109375 71.78125 
L 65.921875 71.78125 
L 60.890625 51.515625 
L 76.125 51.515625 
L 76.125 44 
L 58.984375 44 
L 54.984375 27.6875 
L 70.515625 27.6875 
L 70.515625 20.21875 
L 53.078125 20.21875 
L 48 0 
L 40.1875 0 
L 45.21875 20.21875 
L 30.90625 20.21875 
L 25.875 0 
L 18.015625 0 
L 23.09375 20.21875 
L 7.71875 20.21875 
L 7.71875 27.6875 
L 24.90625 27.6875 
L 29 44 
L 13.28125 44 
L 13.28125 51.515625 
L 30.90625 51.515625 
L 35.890625 71.78125 
z
" id="DejaVuSans-35"/>
       <path id="DejaVuSans-32"/>
       <path d="M 37.109375 75.984375 
L 37.109375 68.5 
L 28.515625 68.5 
Q 23.6875 68.5 21.796875 66.546875 
Q 19.921875 64.59375 19.921875 59.515625 
L 19.921875 54.6875 
L 34.71875 54.6875 
L 34.71875 47.703125 
L 19.921875 47.703125 
L 19.921875 0 
L 10.890625 0 
L 10.890625 47.703125 
L 2.296875 47.703125 
L 2.296875 54.6875 
L 10.890625 54.6875 
L 10.890625 58.5 
Q 10.890625 67.625 15.140625 71.796875 
Q 19.390625 75.984375 28.609375 75.984375 
z
" id="DejaVuSans-102"/>
       <path d="M 4.890625 31.390625 
L 31.203125 31.390625 
L 31.203125 23.390625 
L 4.890625 23.390625 
z
" id="DejaVuSans-45"/>
       <path d="M 56.203125 29.59375 
L 56.203125 25.203125 
L 14.890625 25.203125 
Q 15.484375 15.921875 20.484375 11.0625 
Q 25.484375 6.203125 34.421875 6.203125 
Q 39.59375 6.203125 44.453125 7.46875 
Q 49.3125 8.734375 54.109375 11.28125 
L 54.109375 2.78125 
Q 49.265625 0.734375 44.1875 -0.34375 
Q 39.109375 -1.421875 33.890625 -1.421875 
Q 20.796875 -1.421875 13.15625 6.1875 
Q 5.515625 13.8125 5.515625 26.8125 
Q 5.515625 40.234375 12.765625 48.109375 
Q 20.015625 56 32.328125 56 
Q 43.359375 56 49.78125 48.890625 
Q 56.203125 41.796875 56.203125 29.59375 
z
M 47.21875 32.234375 
Q 47.125 39.59375 43.09375 43.984375 
Q 39.0625 48.390625 32.421875 48.390625 
Q 24.90625 48.390625 20.390625 44.140625 
Q 15.875 39.890625 15.1875 32.171875 
z
" id="DejaVuSans-101"/>
       <path d="M 2.984375 54.6875 
L 12.5 54.6875 
L 29.59375 8.796875 
L 46.6875 54.6875 
L 56.203125 54.6875 
L 35.6875 0 
L 23.484375 0 
z
" id="DejaVuSans-118"/>
       <path d="M 34.28125 27.484375 
Q 23.390625 27.484375 19.1875 25 
Q 14.984375 22.515625 14.984375 16.5 
Q 14.984375 11.71875 18.140625 8.90625 
Q 21.296875 6.109375 26.703125 6.109375 
Q 34.1875 6.109375 38.703125 11.40625 
Q 43.21875 16.703125 43.21875 25.484375 
L 43.21875 27.484375 
z
M 52.203125 31.203125 
L 52.203125 0 
L 43.21875 0 
L 43.21875 8.296875 
Q 40.140625 3.328125 35.546875 0.953125 
Q 30.953125 -1.421875 24.3125 -1.421875 
Q 15.921875 -1.421875 10.953125 3.296875 
Q 6 8.015625 6 15.921875 
Q 6 25.140625 12.171875 29.828125 
Q 18.359375 34.515625 30.609375 34.515625 
L 43.21875 34.515625 
L 43.21875 35.40625 
Q 43.21875 41.609375 39.140625 45 
Q 35.0625 48.390625 27.6875 48.390625 
Q 23 48.390625 18.546875 47.265625 
Q 14.109375 46.140625 10.015625 43.890625 
L 10.015625 52.203125 
Q 14.9375 54.109375 19.578125 55.046875 
Q 24.21875 56 28.609375 56 
Q 40.484375 56 46.34375 49.84375 
Q 52.203125 43.703125 52.203125 31.203125 
z
" id="DejaVuSans-97"/>
       <path d="M 44.28125 53.078125 
L 44.28125 44.578125 
Q 40.484375 46.53125 36.375 47.5 
Q 32.28125 48.484375 27.875 48.484375 
Q 21.1875 48.484375 17.84375 46.4375 
Q 14.5 44.390625 14.5 40.28125 
Q 14.5 37.15625 16.890625 35.375 
Q 19.28125 33.59375 26.515625 31.984375 
L 29.59375 31.296875 
Q 39.15625 29.25 43.1875 25.515625 
Q 47.21875 21.78125 47.21875 15.09375 
Q 47.21875 7.46875 41.1875 3.015625 
Q 35.15625 -1.421875 24.609375 -1.421875 
Q 20.21875 -1.421875 15.453125 -0.5625 
Q 10.6875 0.296875 5.421875 2 
L 5.421875 11.28125 
Q 10.40625 8.6875 15.234375 7.390625 
Q 20.0625 6.109375 24.8125 6.109375 
Q 31.15625 6.109375 34.5625 8.28125 
Q 37.984375 10.453125 37.984375 14.40625 
Q 37.984375 18.0625 35.515625 20.015625 
Q 33.0625 21.96875 24.703125 23.78125 
L 21.578125 24.515625 
Q 13.234375 26.265625 9.515625 29.90625 
Q 5.8125 33.546875 5.8125 39.890625 
Q 5.8125 47.609375 11.28125 51.796875 
Q 16.75 56 26.8125 56 
Q 31.78125 56 36.171875 55.265625 
Q 40.578125 54.546875 44.28125 53.078125 
z
" id="DejaVuSans-115"/>
       <path d="M 25.390625 72.90625 
L 33.6875 72.90625 
L 8.296875 -9.28125 
L 0 -9.28125 
z
" id="DejaVuSans-47"/>
       <path d="M 45.40625 46.390625 
L 45.40625 75.984375 
L 54.390625 75.984375 
L 54.390625 0 
L 45.40625 0 
L 45.40625 8.203125 
Q 42.578125 3.328125 38.25 0.953125 
Q 33.9375 -1.421875 27.875 -1.421875 
Q 17.96875 -1.421875 11.734375 6.484375 
Q 5.515625 14.40625 5.515625 27.296875 
Q 5.515625 40.1875 11.734375 48.09375 
Q 17.96875 56 27.875 56 
Q 33.9375 56 38.25 53.625 
Q 42.578125 51.265625 45.40625 46.390625 
z
M 14.796875 27.296875 
Q 14.796875 17.390625 18.875 11.75 
Q 22.953125 6.109375 30.078125 6.109375 
Q 37.203125 6.109375 41.296875 11.75 
Q 45.40625 17.390625 45.40625 27.296875 
Q 45.40625 37.203125 41.296875 42.84375 
Q 37.203125 48.484375 30.078125 48.484375 
Q 22.953125 48.484375 18.875 42.84375 
Q 14.796875 37.203125 14.796875 27.296875 
z
" id="DejaVuSans-100"/>
       <path d="M 9.421875 54.6875 
L 18.40625 54.6875 
L 18.40625 0 
L 9.421875 0 
z
M 9.421875 75.984375 
L 18.40625 75.984375 
L 18.40625 64.59375 
L 9.421875 64.59375 
z
" id="DejaVuSans-105"/>
       <path d="M 52 44.1875 
Q 55.375 50.25 60.0625 53.125 
Q 64.75 56 71.09375 56 
Q 79.640625 56 84.28125 50.015625 
Q 88.921875 44.046875 88.921875 33.015625 
L 88.921875 0 
L 79.890625 0 
L 79.890625 32.71875 
Q 79.890625 40.578125 77.09375 44.375 
Q 74.3125 48.1875 68.609375 48.1875 
Q 61.625 48.1875 57.5625 43.546875 
Q 53.515625 38.921875 53.515625 30.90625 
L 53.515625 0 
L 44.484375 0 
L 44.484375 32.71875 
Q 44.484375 40.625 41.703125 44.40625 
Q 38.921875 48.1875 33.109375 48.1875 
Q 26.21875 48.1875 22.15625 43.53125 
Q 18.109375 38.875 18.109375 30.90625 
L 18.109375 0 
L 9.078125 0 
L 9.078125 54.6875 
L 18.109375 54.6875 
L 18.109375 46.1875 
Q 21.1875 51.21875 25.484375 53.609375 
Q 29.78125 56 35.6875 56 
Q 41.65625 56 45.828125 52.96875 
Q 50 49.953125 52 44.1875 
z
" id="DejaVuSans-109"/>
       <path d="M 54.890625 33.015625 
L 54.890625 0 
L 45.90625 0 
L 45.90625 32.71875 
Q 45.90625 40.484375 42.875 44.328125 
Q 39.84375 48.1875 33.796875 48.1875 
Q 26.515625 48.1875 22.3125 43.546875 
Q 18.109375 38.921875 18.109375 30.90625 
L 18.109375 0 
L 9.078125 0 
L 9.078125 54.6875 
L 18.109375 54.6875 
L 18.109375 46.1875 
Q 21.34375 51.125 25.703125 53.5625 
Q 30.078125 56 35.796875 56 
Q 45.21875 56 50.046875 50.171875 
Q 54.890625 44.34375 54.890625 33.015625 
z
" id="DejaVuSans-110"/>
       <path d="M 8.015625 75.875 
L 15.828125 75.875 
Q 23.140625 64.359375 26.78125 53.3125 
Q 30.421875 42.28125 30.421875 31.390625 
Q 30.421875 20.453125 26.78125 9.375 
Q 23.140625 -1.703125 15.828125 -13.1875 
L 8.015625 -13.1875 
Q 14.5 -2 17.703125 9.0625 
Q 20.90625 20.125 20.90625 31.390625 
Q 20.90625 42.671875 17.703125 53.65625 
Q 14.5 64.65625 8.015625 75.875 
z
" id="DejaVuSans-41"/>
      </defs>
      <use xlink:href="#DejaVuSans-108"/>
      <use x="27.783203" xlink:href="#DejaVuSans-111"/>
      <use x="88.964844" xlink:href="#DejaVuSans-103"/>
      <use x="152.441406" xlink:href="#DejaVuSans-49"/>
      <use x="216.064453" xlink:href="#DejaVuSans-48"/>
      <use x="279.6875" xlink:href="#DejaVuSans-40"/>
      <use x="318.701172" xlink:href="#DejaVuSans-35"/>
      <use x="402.490234" xlink:href="#DejaVuSans-32"/>
      <use x="434.277344" xlink:href="#DejaVuSans-102"/>
      <use x="463.982422" xlink:href="#DejaVuSans-45"/>
      <use x="500.066406" xlink:href="#DejaVuSans-101"/>
      <use x="561.589844" xlink:href="#DejaVuSans-118"/>
      <use x="620.769531" xlink:href="#DejaVuSans-97"/>
      <use x="682.048828" xlink:href="#DejaVuSans-108"/>
      <use x="709.832031" xlink:href="#DejaVuSans-115"/>
      <use x="761.931641" xlink:href="#DejaVuSans-32"/>
      <use x="793.71875" xlink:href="#DejaVuSans-47"/>
      <use x="827.410156" xlink:href="#DejaVuSans-32"/>
      <use x="859.197266" xlink:href="#DejaVuSans-100"/>
      <use x="922.673828" xlink:href="#DejaVuSans-105"/>
      <use x="950.457031" xlink:href="#DejaVuSans-109"/>
      <use x="1047.869141" xlink:href="#DejaVuSans-101"/>
      <use x="1109.392578" xlink:href="#DejaVuSans-110"/>
      <use x="1172.771484" xlink:href="#DejaVuSans-115"/>
      <use x="1224.871094" xlink:href="#DejaVuSans-105"/>
      <use x="1252.654297" xlink:href="#DejaVuSans-111"/>
      <use x="1313.835938" xlink:href="#DejaVuSans-110"/>
      <use x="1377.214844" xlink:href="#DejaVuSans-41"/>
     </g>
    </g>
   </g>
   <g id="matplotlib.axis_2">
    <g id="ytick_1">
     <g id="line2d_21">
      <path clip-path="url(#pac8666cab8)" d="M 57.6 298.944 
L 338.688 298.944 
" style="fill:none;stroke:#b0b0b0;stroke-linecap:square;stroke-width:0.8;"/>
     </g>
     <g id="line2d_22">
      <defs>
       <path d="M 0 0 
L -3.5 0 
" id="mbea48ca038" style="stroke:#000000;stroke-width:0.8;"/>
      </defs>
      <g>
       <use style="stroke:#000000;stroke-width:0.8;" x="57.6" xlink:href="#mbea48ca038" y="298.944"/>
      </g>
     </g>
     <g id="text_6">
      <!-- 0.0 -->
      <g transform="translate(25.155 305.02275)scale(0.16 -0.16)">
       <defs>
        <path d="M 10.6875 12.40625 
L 21 12.40625 
L 21 0 
L 10.6875 0 
z
" id="DejaVuSans-46"/>
       </defs>
       <use xlink:href="#DejaVuSans-48"/>
       <use x="63.623047" xlink:href="#DejaVuSans-46"/>
       <use x="95.410156" xlink:href="#DejaVuSans-48"/>
      </g>
     </g>
    </g>
    <g id="ytick_2">
     <g id="line2d_23">
      <path clip-path="url(#pac8666cab8)" d="M 57.6 245.22202 
L 338.688 245.22202 
" style="fill:none;stroke:#b0b0b0;stroke-linecap:square;stroke-width:0.8;"/>
     </g>
     <g id="line2d_24">
      <g>
       <use style="stroke:#000000;stroke-width:0.8;" x="57.6" xlink:href="#mbea48ca038" y="245.22202"/>
      </g>
     </g>
     <g id="text_7">
      <!-- 0.2 -->
      <g transform="translate(25.155 251.30077)scale(0.16 -0.16)">
       <use xlink:href="#DejaVuSans-48"/>
       <use x="63.623047" xlink:href="#DejaVuSans-46"/>
       <use x="95.410156" xlink:href="#DejaVuSans-50"/>
      </g>
     </g>
    </g>
    <g id="ytick_3">
     <g id="line2d_25">
      <path clip-path="url(#pac8666cab8)" d="M 57.6 191.50004 
L 338.688 191.50004 
" style="fill:none;stroke:#b0b0b0;stroke-linecap:square;stroke-width:0.8;"/>
     </g>
     <g id="line2d_26">
      <g>
       <use style="stroke:#000000;stroke-width:0.8;" x="57.6" xlink:href="#mbea48ca038" y="191.50004"/>
      </g>
     </g>
     <g id="text_8">
      <!-- 0.4 -->
      <g transform="translate(25.155 197.57879)scale(0.16 -0.16)">
       <use xlink:href="#DejaVuSans-48"/>
       <use x="63.623047" xlink:href="#DejaVuSans-46"/>
       <use x="95.410156" xlink:href="#DejaVuSans-52"/>
      </g>
     </g>
    </g>
    <g id="ytick_4">
     <g id="line2d_27">
      <path clip-path="url(#pac8666cab8)" d="M 57.6 137.778059 
L 338.688 137.778059 
" style="fill:none;stroke:#b0b0b0;stroke-linecap:square;stroke-width:0.8;"/>
     </g>
     <g id="line2d_28">
      <g>
       <use style="stroke:#000000;stroke-width:0.8;" x="57.6" xlink:href="#mbea48ca038" y="137.778059"/>
      </g>
     </g>
     <g id="text_9">
      <!-- 0.6 -->
      <g transform="translate(25.155 143.856809)scale(0.16 -0.16)">
       <use xlink:href="#DejaVuSans-48"/>
       <use x="63.623047" xlink:href="#DejaVuSans-46"/>
       <use x="95.410156" xlink:href="#DejaVuSans-54"/>
      </g>
     </g>
    </g>
    <g id="ytick_5">
     <g id="line2d_29">
      <path clip-path="url(#pac8666cab8)" d="M 57.6 84.056079 
L 338.688 84.056079 
" style="fill:none;stroke:#b0b0b0;stroke-linecap:square;stroke-width:0.8;"/>
     </g>
     <g id="line2d_30">
      <g>
       <use style="stroke:#000000;stroke-width:0.8;" x="57.6" xlink:href="#mbea48ca038" y="84.056079"/>
      </g>
     </g>
     <g id="text_10">
      <!-- 0.8 -->
      <g transform="translate(25.155 90.134829)scale(0.16 -0.16)">
       <defs>
        <path d="M 31.78125 34.625 
Q 24.75 34.625 20.71875 30.859375 
Q 16.703125 27.09375 16.703125 20.515625 
Q 16.703125 13.921875 20.71875 10.15625 
Q 24.75 6.390625 31.78125 6.390625 
Q 38.8125 6.390625 42.859375 10.171875 
Q 46.921875 13.96875 46.921875 20.515625 
Q 46.921875 27.09375 42.890625 30.859375 
Q 38.875 34.625 31.78125 34.625 
z
M 21.921875 38.8125 
Q 15.578125 40.375 12.03125 44.71875 
Q 8.5 49.078125 8.5 55.328125 
Q 8.5 64.0625 14.71875 69.140625 
Q 20.953125 74.21875 31.78125 74.21875 
Q 42.671875 74.21875 48.875 69.140625 
Q 55.078125 64.0625 55.078125 55.328125 
Q 55.078125 49.078125 51.53125 44.71875 
Q 48 40.375 41.703125 38.8125 
Q 48.828125 37.15625 52.796875 32.3125 
Q 56.78125 27.484375 56.78125 20.515625 
Q 56.78125 9.90625 50.3125 4.234375 
Q 43.84375 -1.421875 31.78125 -1.421875 
Q 19.734375 -1.421875 13.25 4.234375 
Q 6.78125 9.90625 6.78125 20.515625 
Q 6.78125 27.484375 10.78125 32.3125 
Q 14.796875 37.15625 21.921875 38.8125 
z
M 18.3125 54.390625 
Q 18.3125 48.734375 21.84375 45.5625 
Q 25.390625 42.390625 31.78125 42.390625 
Q 38.140625 42.390625 41.71875 45.5625 
Q 45.3125 48.734375 45.3125 54.390625 
Q 45.3125 60.0625 41.71875 63.234375 
Q 38.140625 66.40625 31.78125 66.40625 
Q 25.390625 66.40625 21.84375 63.234375 
Q 18.3125 60.0625 18.3125 54.390625 
z
" id="DejaVuSans-56"/>
       </defs>
       <use xlink:href="#DejaVuSans-48"/>
       <use x="63.623047" xlink:href="#DejaVuSans-46"/>
       <use x="95.410156" xlink:href="#DejaVuSans-56"/>
      </g>
     </g>
    </g>
    <g id="ytick_6">
     <g id="line2d_31">
      <path clip-path="url(#pac8666cab8)" d="M 57.6 30.334099 
L 338.688 30.334099 
" style="fill:none;stroke:#b0b0b0;stroke-linecap:square;stroke-width:0.8;"/>
     </g>
     <g id="line2d_32">
      <g>
       <use style="stroke:#000000;stroke-width:0.8;" x="57.6" xlink:href="#mbea48ca038" y="30.334099"/>
      </g>
     </g>
     <g id="text_11">
      <!-- 1.0 -->
      <g transform="translate(25.155 36.412849)scale(0.16 -0.16)">
       <use xlink:href="#DejaVuSans-49"/>
       <use x="63.623047" xlink:href="#DejaVuSans-46"/>
       <use x="95.410156" xlink:href="#DejaVuSans-48"/>
      </g>
     </g>
    </g>
    <g id="text_12">
     <!-- Fraction of function,target pairs -->
     <g transform="translate(17.619531 297.681)rotate(-90)scale(0.17 -0.17)">
      <defs>
       <path d="M 9.8125 72.90625 
L 51.703125 72.90625 
L 51.703125 64.59375 
L 19.671875 64.59375 
L 19.671875 43.109375 
L 48.578125 43.109375 
L 48.578125 34.8125 
L 19.671875 34.8125 
L 19.671875 0 
L 9.8125 0 
z
" id="DejaVuSans-70"/>
       <path d="M 41.109375 46.296875 
Q 39.59375 47.171875 37.8125 47.578125 
Q 36.03125 48 33.890625 48 
Q 26.265625 48 22.1875 43.046875 
Q 18.109375 38.09375 18.109375 28.8125 
L 18.109375 0 
L 9.078125 0 
L 9.078125 54.6875 
L 18.109375 54.6875 
L 18.109375 46.1875 
Q 20.953125 51.171875 25.484375 53.578125 
Q 30.03125 56 36.53125 56 
Q 37.453125 56 38.578125 55.875 
Q 39.703125 55.765625 41.0625 55.515625 
z
" id="DejaVuSans-114"/>
       <path d="M 48.78125 52.59375 
L 48.78125 44.1875 
Q 44.96875 46.296875 41.140625 47.34375 
Q 37.3125 48.390625 33.40625 48.390625 
Q 24.65625 48.390625 19.8125 42.84375 
Q 14.984375 37.3125 14.984375 27.296875 
Q 14.984375 17.28125 19.8125 11.734375 
Q 24.65625 6.203125 33.40625 6.203125 
Q 37.3125 6.203125 41.140625 7.25 
Q 44.96875 8.296875 48.78125 10.40625 
L 48.78125 2.09375 
Q 45.015625 0.34375 40.984375 -0.53125 
Q 36.96875 -1.421875 32.421875 -1.421875 
Q 20.0625 -1.421875 12.78125 6.34375 
Q 5.515625 14.109375 5.515625 27.296875 
Q 5.515625 40.671875 12.859375 48.328125 
Q 20.21875 56 33.015625 56 
Q 37.15625 56 41.109375 55.140625 
Q 45.0625 54.296875 48.78125 52.59375 
z
" id="DejaVuSans-99"/>
       <path d="M 18.3125 70.21875 
L 18.3125 54.6875 
L 36.8125 54.6875 
L 36.8125 47.703125 
L 18.3125 47.703125 
L 18.3125 18.015625 
Q 18.3125 11.328125 20.140625 9.421875 
Q 21.96875 7.515625 27.59375 7.515625 
L 36.8125 7.515625 
L 36.8125 0 
L 27.59375 0 
Q 17.1875 0 13.234375 3.875 
Q 9.28125 7.765625 9.28125 18.015625 
L 9.28125 47.703125 
L 2.6875 47.703125 
L 2.6875 54.6875 
L 9.28125 54.6875 
L 9.28125 70.21875 
z
" id="DejaVuSans-116"/>
       <path d="M 8.5 21.578125 
L 8.5 54.6875 
L 17.484375 54.6875 
L 17.484375 21.921875 
Q 17.484375 14.15625 20.5 10.265625 
Q 23.53125 6.390625 29.59375 6.390625 
Q 36.859375 6.390625 41.078125 11.03125 
Q 45.3125 15.671875 45.3125 23.6875 
L 45.3125 54.6875 
L 54.296875 54.6875 
L 54.296875 0 
L 45.3125 0 
L 45.3125 8.40625 
Q 42.046875 3.421875 37.71875 1 
Q 33.40625 -1.421875 27.6875 -1.421875 
Q 18.265625 -1.421875 13.375 4.4375 
Q 8.5 10.296875 8.5 21.578125 
z
M 31.109375 56 
z
" id="DejaVuSans-117"/>
       <path d="M 11.71875 12.40625 
L 22.015625 12.40625 
L 22.015625 4 
L 14.015625 -11.625 
L 7.71875 -11.625 
L 11.71875 4 
z
" id="DejaVuSans-44"/>
       <path d="M 18.109375 8.203125 
L 18.109375 -20.796875 
L 9.078125 -20.796875 
L 9.078125 54.6875 
L 18.109375 54.6875 
L 18.109375 46.390625 
Q 20.953125 51.265625 25.265625 53.625 
Q 29.59375 56 35.59375 56 
Q 45.5625 56 51.78125 48.09375 
Q 58.015625 40.1875 58.015625 27.296875 
Q 58.015625 14.40625 51.78125 6.484375 
Q 45.5625 -1.421875 35.59375 -1.421875 
Q 29.59375 -1.421875 25.265625 0.953125 
Q 20.953125 3.328125 18.109375 8.203125 
z
M 48.6875 27.296875 
Q 48.6875 37.203125 44.609375 42.84375 
Q 40.53125 48.484375 33.40625 48.484375 
Q 26.265625 48.484375 22.1875 42.84375 
Q 18.109375 37.203125 18.109375 27.296875 
Q 18.109375 17.390625 22.1875 11.75 
Q 26.265625 6.109375 33.40625 6.109375 
Q 40.53125 6.109375 44.609375 11.75 
Q 48.6875 17.390625 48.6875 27.296875 
z
" id="DejaVuSans-112"/>
      </defs>
      <use xlink:href="#DejaVuSans-70"/>
      <use x="50.269531" xlink:href="#DejaVuSans-114"/>
      <use x="91.382812" xlink:href="#DejaVuSans-97"/>
      <use x="152.662109" xlink:href="#DejaVuSans-99"/>
      <use x="207.642578" xlink:href="#DejaVuSans-116"/>
      <use x="246.851562" xlink:href="#DejaVuSans-105"/>
      <use x="274.634766" xlink:href="#DejaVuSans-111"/>
      <use x="335.816406" xlink:href="#DejaVuSans-110"/>
      <use x="399.195312" xlink:href="#DejaVuSans-32"/>
      <use x="430.982422" xlink:href="#DejaVuSans-111"/>
      <use x="492.164062" xlink:href="#DejaVuSans-102"/>
      <use x="527.369141" xlink:href="#DejaVuSans-32"/>
      <use x="559.15625" xlink:href="#DejaVuSans-102"/>
      <use x="594.361328" xlink:href="#DejaVuSans-117"/>
      <use x="657.740234" xlink:href="#DejaVuSans-110"/>
      <use x="721.119141" xlink:href="#DejaVuSans-99"/>
      <use x="776.099609" xlink:href="#DejaVuSans-116"/>
      <use x="815.308594" xlink:href="#DejaVuSans-105"/>
      <use x="843.091797" xlink:href="#DejaVuSans-111"/>
      <use x="904.273438" xlink:href="#DejaVuSans-110"/>
      <use x="967.652344" xlink:href="#DejaVuSans-44"/>
      <use x="999.439453" xlink:href="#DejaVuSans-116"/>
      <use x="1038.648438" xlink:href="#DejaVuSans-97"/>
      <use x="1099.927734" xlink:href="#DejaVuSans-114"/>
      <use x="1139.291016" xlink:href="#DejaVuSans-103"/>
      <use x="1202.767578" xlink:href="#DejaVuSans-101"/>
      <use x="1264.291016" xlink:href="#DejaVuSans-116"/>
      <use x="1303.5" xlink:href="#DejaVuSans-32"/>
      <use x="1335.287109" xlink:href="#DejaVuSans-112"/>
      <use x="1398.763672" xlink:href="#DejaVuSans-97"/>
      <use x="1460.042969" xlink:href="#DejaVuSans-105"/>
      <use x="1487.826172" xlink:href="#DejaVuSans-114"/>
      <use x="1528.939453" xlink:href="#DejaVuSans-115"/>
     </g>
    </g>
   </g>
   <g id="line2d_33">
    <defs>
     <path d="M 0 1.5 
C 0.397805 1.5 0.77937 1.341951 1.06066 1.06066 
C 1.341951 0.77937 1.5 0.397805 1.5 0 
C 1.5 -0.397805 1.341951 -0.77937 1.06066 -1.06066 
C 0.77937 -1.341951 0.397805 -1.5 0 -1.5 
C -0.397805 -1.5 -0.77937 -1.341951 -1.06066 -1.06066 
C -1.341951 -0.77937 -1.5 -0.397805 -1.5 0 
C -1.5 0.397805 -1.341951 0.77937 -1.06066 1.06066 
C -0.77937 1.341951 -0.397805 1.5 0 1.5 
z
" id="mbec3d32225" style="stroke:#f5deb3;"/>
    </defs>
    <g>
     <use style="fill:#f5deb3;stroke:#f5deb3;" x="189.247514" xlink:href="#mbec3d32225" y="30.334099"/>
     <use style="fill:#f5deb3;stroke:#f5deb3;" x="189.247514" xlink:href="#mbec3d32225" y="30.334099"/>
    </g>
   </g>
   <g id="line2d_34">
    <defs>
     <path d="M 0 1.5 
C 0.397805 1.5 0.77937 1.341951 1.06066 1.06066 
C 1.341951 0.77937 1.5 0.397805 1.5 0 
C 1.5 -0.397805 1.341951 -0.77937 1.06066 -1.06066 
C 0.77937 -1.341951 0.397805 -1.5 0 -1.5 
C -0.397805 -1.5 -0.77937 -1.341951 -1.06066 -1.06066 
C -1.341951 -0.77937 -1.5 -0.397805 -1.5 0 
C -1.5 0.397805 -1.341951 0.77937 -1.06066 1.06066 
C -0.77937 1.341951 -0.397805 1.5 0 1.5 
z
" id="ma12d3bbe56" style="stroke:#000080;"/>
    </defs>
    <g>
     <use style="fill:#000080;stroke:#000080;" x="291.028476" xlink:href="#ma12d3bbe56" y="146.205037"/>
     <use style="fill:#000080;stroke:#000080;" x="291.028476" xlink:href="#ma12d3bbe56" y="146.205037"/>
    </g>
   </g>
   <g id="line2d_35">
    <path d="M 38.440992 298.944 
L 38.440992 298.417314 
L 50.52898 298.417314 
L 50.52898 295.257197 
L 72.376266 295.257197 
L 72.376266 294.203825 
L 74.704957 294.203825 
L 74.704957 292.623767 
L 76.759008 292.623767 
L 76.759008 291.043709 
L 78.59642 291.043709 
L 78.59642 289.990337 
L 87.850195 289.990337 
L 87.850195 288.936964 
L 88.846997 288.936964 
L 88.846997 286.303534 
L 91.535274 286.303534 
L 91.535274 285.776848 
L 95.259853 285.776848 
L 95.259853 285.250162 
L 95.918017 285.250162 
L 95.918017 284.19679 
L 98.32726 284.19679 
L 98.32726 282.090045 
L 98.880934 282.090045 
L 98.880934 280.509987 
L 102.330873 280.509987 
L 102.330873 278.929929 
L 103.203018 278.929929 
L 103.203018 278.403243 
L 103.623262 278.403243 
L 103.623262 277.876557 
L 104.434538 277.876557 
L 104.434538 277.349871 
L 106.66386 277.349871 
L 106.66386 276.823185 
L 107.009204 276.823185 
L 107.009204 274.71644 
L 107.347841 274.71644 
L 107.347841 273.663068 
L 108.640231 273.663068 
L 108.640231 270.502952 
L 109.843417 270.502952 
L 109.843417 269.976266 
L 110.131676 269.976266 
L 110.131676 269.449579 
L 110.415248 269.449579 
L 110.415248 268.922893 
L 111.767808 268.922893 
L 111.767808 267.342835 
L 113.73488 267.342835 
L 113.73488 266.816149 
L 114.193835 266.816149 
L 114.193835 265.762777 
L 114.641021 265.762777 
L 114.641021 265.236091 
L 115.291007 265.236091 
L 115.291007 264.709405 
L 116.522527 264.709405 
L 116.522527 263.129347 
L 116.914437 263.129347 
L 116.914437 262.60266 
L 118.220662 262.60266 
L 118.220662 262.075974 
L 119.43583 262.075974 
L 119.43583 261.022602 
L 121.340187 261.022602 
L 121.340187 260.495916 
L 121.489881 260.495916 
L 121.489881 259.96923 
L 122.503236 259.96923 
L 122.503236 258.915858 
L 123.855796 258.915858 
L 123.855796 258.389172 
L 123.985457 258.389172 
L 123.985457 257.3358 
L 125.351508 257.3358 
L 125.351508 255.755741 
L 125.938745 255.755741 
L 125.938745 255.229055 
L 126.053856 255.229055 
L 126.053856 253.648997 
L 126.281824 253.648997 
L 126.281824 253.122311 
L 128.610515 253.122311 
L 128.610515 252.068939 
L 129.002426 252.068939 
L 129.002426 251.015567 
L 129.385722 251.015567 
L 129.385722 250.488881 
L 129.945319 250.488881 
L 129.945319 249.962195 
L 130.218525 249.962195 
L 130.218525 249.435508 
L 131.099484 249.435508 
L 131.099484 247.328764 
L 131.77355 247.328764 
L 131.856005 246.275392 
L 132.422528 246.275392 
L 132.422528 245.22202 
L 132.581068 245.22202 
L 132.659801 243.641962 
L 132.893889 243.641962 
L 132.893889 243.115275 
L 134.164119 243.115275 
L 134.164119 242.588589 
L 134.307653 242.588589 
L 134.307653 242.061903 
L 134.870259 242.061903 
L 134.870259 241.535217 
L 135.00812 241.535217 
L 135.00812 241.008531 
L 135.482227 241.008531 
L 135.482227 240.481845 
L 136.202149 240.481845 
L 136.266147 238.901787 
L 136.456742 238.901787 
L 136.456742 237.848415 
L 136.582658 237.848415 
L 136.582658 237.321729 
L 137.198951 237.321729 
L 137.198951 236.268356 
L 137.558536 236.268356 
L 137.558536 235.74167 
L 138.026733 235.74167 
L 138.026733 235.214984 
L 138.141844 235.214984 
L 138.141844 234.688298 
L 138.426341 234.688298 
L 138.426341 234.161612 
L 138.706272 234.161612 
L 138.706272 233.634926 
L 138.872098 233.634926 
L 138.872098 233.10824 
L 139.413734 233.10824 
L 139.413734 232.581554 
L 139.783113 232.581554 
L 139.783113 232.054868 
L 140.297583 232.054868 
L 140.297583 231.528182 
L 140.64889 231.528182 
L 140.64889 231.001496 
L 140.79731 231.001496 
L 140.79731 230.47481 
L 141.090414 230.47481 
L 141.187031 229.421437 
L 141.235139 229.421437 
L 141.235139 228.368065 
L 141.426256 228.368065 
L 141.426256 227.314693 
L 143.31586 227.314693 
L 143.31586 226.788007 
L 144.06695 226.788007 
L 144.06695 226.261321 
L 145.174578 226.261321 
L 145.212864 225.207949 
L 146.107383 225.207949 
L 146.107383 224.681263 
L 147.334773 224.681263 
L 147.334773 224.154577 
L 148.129109 224.154577 
L 148.129109 223.627891 
L 148.417899 223.627891 
L 148.417899 223.101204 
L 148.76449 223.101204 
L 148.76449 222.574518 
L 149.012299 222.574518 
L 149.012299 222.047832 
L 149.134896 222.047832 
L 149.134896 221.521146 
L 149.467659 221.521146 
L 149.467659 220.467774 
L 150.904986 220.467774 
L 150.932558 218.36103 
L 151.818809 218.36103 
L 151.818809 217.834344 
L 152.334802 217.834344 
L 152.334802 217.307658 
L 154.796449 217.307658 
L 154.796449 216.780971 
L 155.804285 216.780971 
L 155.804285 216.254285 
L 156.337763 216.254285 
L 156.337763 215.200913 
L 158.889829 215.200913 
L 158.889829 214.674227 
L 161.450455 214.674227 
L 161.450455 214.147541 
L 218.249595 214.147541 
L 218.357213 209.934052 
L 218.381998 209.934052 
L 218.488232 204.140506 
L 218.501967 204.140506 
L 218.606337 199.400331 
L 218.61657 199.400331 
L 218.720259 196.240214 
L 218.735505 196.240214 
L 218.772718 194.660156 
L 230.377873 194.660156 
L 230.481215 187.286551 
L 230.493586 187.286551 
L 230.506811 185.706493 
L 237.45285 185.706493 
L 237.549261 180.966318 
L 237.57534 180.966318 
L 237.57534 180.439632 
L 242.43268 180.439632 
L 242.524103 173.592713 
L 242.56762 173.592713 
L 242.56762 173.066027 
L 246.329683 173.066027 
L 246.402489 166.745794 
L 249.517956 166.745794 
L 249.562919 164.112363 
L 252.182298 164.112363 
L 252.222636 158.845503 
L 254.533427 158.845503 
L 254.550738 157.265444 
L 258.422484 157.265444 
L 258.422484 156.738758 
L 260.075288 156.738758 
L 260.075288 156.212072 
L 261.589658 156.212072 
L 261.600195 154.632014 
L 262.993633 154.632014 
L 262.993633 154.105328 
L 264.271821 154.105328 
L 264.287568 151.998584 
L 265.473064 151.998584 
L 265.473064 151.471897 
L 266.599336 151.471897 
L 266.602891 150.418525 
L 267.656101 150.418525 
L 267.656101 149.891839 
L 269.597089 149.891839 
L 269.597089 149.365153 
L 270.485959 149.365153 
L 270.485959 148.838467 
L 275.061066 148.838467 
L 275.061066 148.311781 
L 277.551085 148.311781 
L 277.551085 147.785095 
L 279.732869 147.785095 
L 279.732869 147.258409 
L 286.800057 147.258409 
L 286.800057 146.731723 
L 291.028476 146.731723 
L 291.028476 146.205037 
L 338.688 146.205037 
L 338.688 146.205037 
" style="fill:none;stroke:#000080;stroke-linecap:square;stroke-width:1.5;"/>
   </g>
   <g id="line2d_36">
    <defs>
     <path d="M 0 6 
C 1.591219 6 3.117479 5.367802 4.242641 4.242641 
C 5.367802 3.117479 6 1.591219 6 0 
C 6 -1.591219 5.367802 -3.117479 4.242641 -4.242641 
C 3.117479 -5.367802 1.591219 -6 0 -6 
C -1.591219 -6 -3.117479 -5.367802 -4.242641 -4.242641 
C -5.367802 -3.117479 -6 -1.591219 -6 0 
C -6 1.591219 -5.367802 3.117479 -4.242641 4.242641 
C -3.117479 5.367802 -1.591219 6 0 6 
z
" id="mc951af6bfc" style="stroke:#000080;stroke-width:1.5;"/>
    </defs>
    <g>
     <use style="fill-opacity:0;stroke:#000080;stroke-width:1.5;" x="126.281824" xlink:href="#mc951af6bfc" y="253.648997"/>
     <use style="fill-opacity:0;stroke:#000080;stroke-width:1.5;" x="161.450455" xlink:href="#mc951af6bfc" y="214.674227"/>
     <use style="fill-opacity:0;stroke:#000080;stroke-width:1.5;" x="249.562919" xlink:href="#mc951af6bfc" y="164.63905"/>
     <use style="fill-opacity:0;stroke:#000080;stroke-width:1.5;" x="291.028476" xlink:href="#mc951af6bfc" y="146.205037"/>
     <use style="fill-opacity:0;stroke:#000080;stroke-width:1.5;" x="291.028476" xlink:href="#mc951af6bfc" y="146.205037"/>
     <use style="fill-opacity:0;stroke:#000080;stroke-width:1.5;" x="338.688" xlink:href="#mc951af6bfc" y="146.205037"/>
    </g>
   </g>
   <g id="line2d_37">
    <path style="fill:none;stroke:#000080;stroke-linecap:square;stroke-width:1.5;"/>
    <g/>
   </g>
   <g id="line2d_38">
    <path clip-path="url(#pac8666cab8)" d="M 218.224621 214.147541 
" style="fill:none;stroke:#000080;stroke-linecap:square;stroke-width:1.5;"/>
    <defs>
     <path d="M -12 12 
L 12 -12 
M -12 -12 
L 12 12 
" id="m5b22a3cbc2" style="stroke:#000080;"/>
    </defs>
    <g clip-path="url(#pac8666cab8)">
     <use style="fill:#000080;stroke:#000080;" x="218.224621" xlink:href="#m5b22a3cbc2" y="214.147541"/>
    </g>
   </g>
   <g id="line2d_39">
    <defs>
     <path d="M 0 1.5 
C 0.397805 1.5 0.77937 1.341951 1.06066 1.06066 
C 1.341951 0.77937 1.5 0.397805 1.5 0 
C 1.5 -0.397805 1.341951 -0.77937 1.06066 -1.06066 
C 0.77937 -1.341951 0.397805 -1.5 0 -1.5 
C -0.397805 -1.5 -0.77937 -1.341951 -1.06066 -1.06066 
C -1.341951 -0.77937 -1.5 -0.397805 -1.5 0 
C -1.5 0.397805 -1.341951 0.77937 -1.06066 1.06066 
C -0.77937 1.341951 -0.397805 1.5 0 1.5 
z
" id="mf953359893" style="stroke:#ff00ff;"/>
    </defs>
    <g>
     <use style="fill:#ff00ff;stroke:#ff00ff;" x="293.453346" xlink:href="#mf953359893" y="30.334099"/>
     <use style="fill:#ff00ff;stroke:#ff00ff;" x="293.453346" xlink:href="#mf953359893" y="30.334099"/>
    </g>
   </g>
   <g id="line2d_40">
    <path d="M 38.440992 298.944 
L 38.440992 295.783884 
L 50.52898 295.783884 
L 50.52898 291.570395 
L 57.6 291.570395 
L 57.6 288.936964 
L 62.616969 288.936964 
L 62.616969 287.883592 
L 69.687988 287.883592 
L 69.687988 286.83022 
L 72.376266 286.83022 
L 72.376266 285.776848 
L 74.704957 285.776848 
L 74.704957 285.250162 
L 76.759008 285.250162 
L 76.759008 284.723476 
L 80.258561 284.723476 
L 80.258561 283.670104 
L 81.775977 283.670104 
L 81.775977 283.143418 
L 85.66744 283.143418 
L 85.66744 281.563359 
L 86.792945 281.563359 
L 86.792945 281.036673 
L 87.850195 281.036673 
L 87.850195 279.983301 
L 89.78989 279.983301 
L 89.78989 279.456615 
L 91.535274 279.456615 
L 91.535274 278.929929 
L 92.34655 278.929929 
L 92.34655 278.403243 
L 95.918017 278.403243 
L 95.918017 277.876557 
L 98.32726 277.876557 
L 98.32726 276.823185 
L 100.443706 276.823185 
L 100.443706 275.769812 
L 100.934985 275.769812 
L 100.934985 275.243126 
L 108.640231 275.243126 
L 108.640231 274.71644 
L 109.252198 274.71644 
L 109.252198 273.663068 
L 109.550313 273.663068 
L 109.550313 272.609696 
L 110.415248 272.609696 
L 110.415248 272.08301 
L 112.280765 272.08301 
L 112.280765 271.556324 
L 114.193835 271.556324 
L 114.193835 269.449579 
L 114.860386 269.449579 
L 114.860386 268.396207 
L 117.107138 268.396207 
L 117.107138 267.342835 
L 118.039942 267.342835 
L 118.039942 265.762777 
L 119.267333 265.762777 
L 119.267333 265.236091 
L 125.23165 265.236091 
L 125.23165 264.182719 
L 126.053856 264.182719 
L 126.053856 263.656033 
L 126.839037 263.656033 
L 126.839037 263.129347 
L 127.165014 263.129347 
L 127.165014 262.60266 
L 128.310692 262.60266 
L 128.310692 261.549288 
L 129.099042 261.549288 
L 129.099042 261.022602 
L 130.036864 261.022602 
L 130.036864 260.495916 
L 130.576266 260.495916 
L 130.576266 259.96923 
L 135.280614 259.96923 
L 135.280614 258.915858 
L 135.615352 258.915858 
L 135.615352 258.389172 
L 135.747468 258.389172 
L 135.747468 257.862486 
L 136.393441 257.862486 
L 136.393441 257.3358 
L 136.645276 257.3358 
L 136.707671 256.282427 
L 136.893527 256.282427 
L 136.893527 255.229055 
L 143.058132 255.229055 
L 143.058132 254.702369 
L 143.187472 254.702369 
L 143.187472 254.175683 
L 143.527762 254.175683 
L 143.527762 253.122311 
L 146.359869 253.122311 
L 146.359869 252.595625 
L 146.679213 252.595625 
L 146.679213 252.068939 
L 146.888907 252.068939 
L 146.888907 251.542253 
L 147.603592 251.542253 
L 147.670154 249.962195 
L 149.676158 249.962195 
L 149.676158 249.435508 
L 150.114722 249.435508 
L 150.114722 248.908822 
L 152.130233 248.908822 
L 152.130233 248.382136 
L 152.637225 248.382136 
L 152.637225 247.328764 
L 153.959927 247.328764 
L 154.05232 246.275392 
L 154.281186 246.275392 
L 154.303908 244.695334 
L 155.510121 244.695334 
L 155.510121 243.641962 
L 156.093569 243.641962 
L 156.175347 242.588589 
L 157.976006 242.588589 
L 157.976006 242.061903 
L 158.889829 242.061903 
L 158.889829 241.535217 
L 160.200913 241.535217 
L 160.200913 241.008531 
L 164.179597 241.008531 
L 164.179597 240.481845 
L 164.384616 240.481845 
L 164.384616 239.955159 
L 164.960967 239.955159 
L 164.973287 238.901787 
L 165.205733 238.901787 
L 165.205733 238.375101 
L 166.784816 238.375101 
L 166.840232 237.321729 
L 167.201624 237.321729 
L 167.201624 236.795043 
L 168.253135 236.795043 
L 168.253135 236.268356 
L 168.646632 236.268356 
L 168.646632 235.74167 
L 169.138466 235.74167 
L 169.138466 234.688298 
L 170.319654 234.688298 
L 170.319654 234.161612 
L 172.215882 234.161612 
L 172.215882 233.10824 
L 172.409924 233.10824 
L 172.409924 232.581554 
L 173.172891 232.581554 
L 173.172891 232.054868 
L 173.402258 232.054868 
L 173.402258 231.528182 
L 174.963293 231.528182 
L 174.963293 231.001496 
L 175.6777 231.001496 
L 175.6777 230.47481 
L 176.919065 230.47481 
L 176.981038 228.894751 
L 177.618798 228.894751 
L 177.708032 227.841379 
L 177.885142 227.841379 
L 177.885142 227.314693 
L 179.126271 227.314693 
L 179.126271 226.788007 
L 179.917643 226.788007 
L 179.917643 226.261321 
L 180.878686 226.261321 
L 180.878686 225.734635 
L 181.328001 225.734635 
L 181.328001 225.207949 
L 181.845779 225.207949 
L 181.845779 224.681263 
L 182.078244 224.681263 
L 182.078244 224.154577 
L 182.220831 224.154577 
L 182.220831 223.627891 
L 183.411492 223.627891 
L 183.411492 223.101204 
L 184.34853 223.101204 
L 184.34853 222.574518 
L 184.638052 222.574518 
L 184.721598 221.521146 
L 185.954922 221.521146 
L 185.954922 220.467774 
L 186.500968 220.467774 
L 186.500968 219.941088 
L 186.855725 219.941088 
L 186.855725 219.414402 
L 187.374687 219.414402 
L 187.374687 218.887716 
L 187.782346 218.887716 
L 187.782346 218.36103 
L 188.512757 218.36103 
L 188.512757 217.834344 
L 189.259756 217.834344 
L 189.259756 217.307658 
L 190.345059 217.307658 
L 190.345059 216.780971 
L 190.771052 216.780971 
L 190.771052 216.254285 
L 191.84018 216.254285 
L 191.84018 215.727599 
L 192.864959 215.727599 
L 192.864959 215.200913 
L 193.849315 215.200913 
L 193.849315 214.674227 
L 195.569934 214.674227 
L 195.569934 214.147541 
L 196.666118 214.147541 
L 196.666118 213.620855 
L 199.652529 213.620855 
L 199.652529 213.094169 
L 205.35873 213.094169 
L 205.35873 212.567483 
L 206.076664 212.567483 
L 206.076664 212.040797 
L 206.272685 212.040797 
L 206.272685 211.514111 
L 207.483405 211.514111 
L 207.483405 210.987425 
L 208.467648 210.987425 
L 208.467648 208.88068 
L 208.751105 208.88068 
L 208.751105 208.353994 
L 211.903291 208.353994 
L 211.903291 207.827308 
L 212.069523 207.827308 
L 212.069523 207.300622 
L 212.798561 207.300622 
L 212.798561 206.773936 
L 213.314461 206.773936 
L 213.314461 206.24725 
L 213.619859 206.24725 
L 213.619859 205.720564 
L 215.345734 205.720564 
L 215.345734 204.667192 
L 216.441693 204.667192 
L 216.441693 204.140506 
L 218.62282 204.140506 
L 218.661974 202.560447 
L 218.841858 202.560447 
L 218.841858 202.033761 
L 219.114605 202.033761 
L 219.114605 201.507075 
L 219.426063 201.507075 
L 219.439079 200.453703 
L 219.843646 200.453703 
L 219.843646 199.927017 
L 220.26336 199.927017 
L 220.289195 197.293586 
L 220.605398 197.293586 
L 220.605398 196.240214 
L 220.767907 196.240214 
L 220.767907 195.713528 
L 220.893042 195.713528 
L 220.967695 194.13347 
L 221.042029 194.13347 
L 221.042029 193.606784 
L 221.159326 193.606784 
L 221.159326 193.080098 
L 221.433214 193.080098 
L 221.433214 192.553412 
L 221.693818 192.553412 
L 221.765127 191.50004 
L 222.42886 191.50004 
L 222.42886 190.973354 
L 223.388019 190.973354 
L 223.388019 189.919981 
L 225.339177 189.919981 
L 225.339177 188.866609 
L 225.568028 188.866609 
L 225.568028 188.339923 
L 226.105912 188.339923 
L 226.209541 186.759865 
L 226.382234 186.759865 
L 226.382234 186.233179 
L 227.407309 186.233179 
L 227.503507 184.653121 
L 227.533865 184.653121 
L 227.588648 183.599748 
L 227.808089 183.599748 
L 227.846293 181.493004 
L 228.028117 181.493004 
L 228.028117 180.439632 
L 228.160128 180.439632 
L 228.160128 179.912946 
L 228.930932 179.912946 
L 228.930932 178.332888 
L 229.442393 178.332888 
L 229.442393 177.806202 
L 231.053946 177.806202 
L 231.143674 176.752829 
L 231.216947 176.752829 
L 231.216947 176.226143 
L 231.330531 176.226143 
L 231.387731 174.646085 
L 231.536551 174.646085 
L 231.536551 174.119399 
L 231.669601 174.119399 
L 231.669601 173.592713 
L 231.892394 173.592713 
L 231.892394 173.066027 
L 232.028825 173.066027 
L 232.132023 172.012655 
L 232.222116 172.012655 
L 232.222116 171.485969 
L 232.342039 171.485969 
L 232.342039 170.959282 
L 232.51117 170.959282 
L 232.51117 170.432596 
L 232.675123 170.432596 
L 232.675123 169.379224 
L 233.083472 169.379224 
L 233.083472 168.325852 
L 234.479588 168.325852 
L 234.479588 167.799166 
L 234.693608 167.799166 
L 234.693608 166.219108 
L 234.862998 166.219108 
L 234.862998 164.63905 
L 235.560957 164.63905 
L 235.614645 162.532305 
L 235.777697 162.532305 
L 235.777697 162.005619 
L 236.473758 162.005619 
L 236.473758 160.425561 
L 236.807335 160.425561 
L 236.807335 159.372189 
L 237.723217 159.372189 
L 237.725686 158.318817 
L 237.990766 158.318817 
L 237.990766 157.79213 
L 238.271404 157.79213 
L 238.344898 156.212072 
L 238.451645 156.212072 
L 238.545422 154.105328 
L 238.616509 154.105328 
L 238.688566 153.051956 
L 240.06086 153.051956 
L 240.06086 152.52527 
L 240.268325 152.52527 
L 240.268325 151.471897 
L 240.422158 151.471897 
L 240.467833 149.365153 
L 240.840119 149.365153 
L 240.840119 148.838467 
L 241.006805 148.838467 
L 241.090181 147.258409 
L 241.191702 147.258409 
L 241.209447 145.678351 
L 241.473624 145.678351 
L 241.473624 145.151665 
L 241.721928 145.151665 
L 241.721928 143.04492 
L 241.969428 143.04492 
L 241.969428 142.518234 
L 243.021902 142.518234 
L 243.06993 140.938176 
L 243.146669 140.938176 
L 243.173795 139.884804 
L 243.443448 139.884804 
L 243.548384 138.304745 
L 243.620476 138.304745 
L 243.620476 137.778059 
L 244.280908 137.778059 
L 244.280908 137.251373 
L 244.762731 137.251373 
L 244.762731 136.198001 
L 245.054425 136.198001 
L 245.054425 135.671315 
L 245.195491 135.671315 
L 245.231229 134.091257 
L 245.331127 134.091257 
L 245.338495 133.037885 
L 245.553859 133.037885 
L 245.553859 131.984513 
L 245.750655 131.984513 
L 245.750655 131.457826 
L 246.704684 131.457826 
L 246.704684 130.93114 
L 246.829003 130.93114 
L 246.917599 128.824396 
L 247.041083 128.824396 
L 247.041083 127.771024 
L 247.946116 127.771024 
L 247.946116 127.244338 
L 248.176858 127.244338 
L 248.176858 126.717652 
L 248.445937 126.717652 
L 248.553886 125.66428 
L 248.562155 125.66428 
L 248.608019 124.084221 
L 248.685611 124.084221 
L 248.781211 123.030849 
L 249.021124 123.030849 
L 249.021124 121.977477 
L 249.887324 121.977477 
L 249.887324 121.450791 
L 250.097548 121.450791 
L 250.12976 119.870733 
L 250.746507 119.870733 
L 250.746507 119.344047 
L 250.97221 119.344047 
L 251.080488 116.710616 
L 251.375828 116.710616 
L 251.483275 114.603872 
L 251.534987 114.603872 
L 251.534987 114.077186 
L 251.77405 114.077186 
L 251.77405 113.023814 
L 252.588906 113.023814 
L 252.665699 111.970441 
L 252.762219 111.970441 
L 252.762219 111.443755 
L 253.356376 111.443755 
L 253.453476 110.390383 
L 253.525872 110.390383 
L 253.547432 108.810325 
L 253.804099 108.810325 
L 253.810219 107.230267 
L 254.029766 107.230267 
L 254.029766 106.703581 
L 254.983801 106.703581 
L 254.987684 105.650209 
L 255.498283 105.650209 
L 255.498283 105.123522 
L 255.625281 105.123522 
L 255.689215 101.963406 
L 255.864589 101.963406 
L 255.953991 100.383348 
L 256.021591 100.383348 
L 256.021591 99.856662 
L 256.24262 99.856662 
L 256.350689 98.803289 
L 257.556326 98.803289 
L 257.630627 96.169859 
L 257.838883 96.169859 
L 257.944083 93.536429 
L 258.109972 93.536429 
L 258.109972 93.009743 
L 258.672033 93.009743 
L 258.672033 92.483056 
L 259.346524 92.483056 
L 259.346524 91.95637 
L 259.708897 91.95637 
L 259.708897 91.429684 
L 259.884766 91.429684 
L 259.884766 90.902998 
L 260.747841 90.902998 
L 260.747841 90.376312 
L 260.922733 90.376312 
L 260.960519 88.269568 
L 261.109312 88.269568 
L 261.196567 85.636137 
L 261.415111 85.636137 
L 261.415111 85.109451 
L 261.855248 85.109451 
L 261.89297 83.529393 
L 262.207298 83.529393 
L 262.238258 82.476021 
L 262.324647 82.476021 
L 262.381202 81.422649 
L 262.540024 81.422649 
L 262.549179 80.369277 
L 262.747435 80.369277 
L 262.82193 79.315904 
L 263.22835 79.315904 
L 263.22835 78.789218 
L 263.608641 78.789218 
L 263.715031 76.682474 
L 263.813968 76.682474 
L 263.881297 75.102416 
L 263.985916 75.102416 
L 263.985916 74.049044 
L 264.905266 74.049044 
L 264.905266 73.522358 
L 265.087971 73.522358 
L 265.108966 71.942299 
L 265.593887 71.942299 
L 265.593887 71.415613 
L 266.100367 71.415613 
L 266.197122 69.835555 
L 266.239208 69.835555 
L 266.304268 68.782183 
L 266.467584 68.782183 
L 266.467584 67.728811 
L 266.826477 67.728811 
L 266.826477 67.202125 
L 267.152776 67.202125 
L 267.152776 66.675439 
L 267.358527 66.675439 
L 267.417854 65.622066 
L 267.474255 65.622066 
L 267.474255 65.09538 
L 267.842187 65.09538 
L 267.842187 64.568694 
L 268.479797 64.568694 
L 268.479797 64.042008 
L 268.890071 64.042008 
L 268.890071 63.515322 
L 269.172903 63.515322 
L 269.172903 61.935264 
L 269.286872 61.935264 
L 269.289391 60.881892 
L 270.087523 60.881892 
L 270.095867 59.82852 
L 270.230513 59.82852 
L 270.230513 59.301833 
L 270.656175 59.301833 
L 270.66609 58.248461 
L 271.06737 58.248461 
L 271.122318 56.668403 
L 271.758956 56.668403 
L 271.791903 55.615031 
L 271.884666 55.615031 
L 271.884666 55.088345 
L 272.725728 55.088345 
L 272.725728 54.561659 
L 273.307363 54.561659 
L 273.330585 53.508287 
L 273.420442 53.508287 
L 273.420442 52.9816 
L 274.032889 52.9816 
L 274.032889 51.928228 
L 274.153869 51.928228 
L 274.153869 51.401542 
L 275.375394 51.401542 
L 275.436283 49.821484 
L 275.525252 49.821484 
L 275.635953 48.768112 
L 275.808541 48.768112 
L 275.808541 48.241426 
L 276.064082 48.241426 
L 276.064082 47.188054 
L 276.441952 47.188054 
L 276.441952 46.661368 
L 277.108235 46.661368 
L 277.108235 46.134681 
L 277.336339 46.134681 
L 277.382319 45.081309 
L 277.870644 45.081309 
L 277.870644 44.554623 
L 278.409277 44.554623 
L 278.500528 41.921193 
L 278.975431 41.921193 
L 278.975431 41.394507 
L 279.497776 41.394507 
L 279.497776 40.867821 
L 279.6127 40.867821 
L 279.6127 40.341135 
L 280.506936 40.341135 
L 280.506936 39.814448 
L 281.46088 39.814448 
L 281.46088 39.287762 
L 281.923206 39.287762 
L 281.923206 38.761076 
L 282.418918 38.761076 
L 282.418918 38.23439 
L 282.811349 38.23439 
L 282.852825 37.181018 
L 284.048382 37.181018 
L 284.09438 36.127646 
L 285.238245 36.127646 
L 285.25238 35.074274 
L 285.986142 35.074274 
L 285.986142 34.547588 
L 287.319216 34.547588 
L 287.319216 34.020902 
L 287.647825 34.020902 
L 287.647825 33.494215 
L 288.903633 33.494215 
L 288.903633 32.967529 
L 289.814417 32.967529 
L 289.814417 32.440843 
L 290.347269 32.440843 
L 290.347269 31.914157 
L 290.66663 31.914157 
L 290.66663 31.387471 
L 292.994857 31.387471 
L 292.994857 30.860785 
L 293.453346 30.860785 
L 293.453346 30.334099 
L 338.688 30.334099 
L 338.688 30.334099 
" style="fill:none;stroke:#ff00ff;stroke-linecap:square;stroke-width:1.5;"/>
   </g>
   <g id="line2d_41">
    <defs>
     <path d="M -0 8.485281 
L 5.091169 0 
L 0 -8.485281 
L -5.091169 -0 
z
" id="m1537913756" style="stroke:#ff00ff;stroke-linejoin:miter;stroke-width:1.5;"/>
    </defs>
    <g>
     <use style="fill-opacity:0;stroke:#ff00ff;stroke-linejoin:miter;stroke-width:1.5;" x="114.193835" xlink:href="#m1537913756" y="271.556324"/>
     <use style="fill-opacity:0;stroke:#ff00ff;stroke-linejoin:miter;stroke-width:1.5;" x="196.666118" xlink:href="#m1537913756" y="213.620855"/>
     <use style="fill-opacity:0;stroke:#ff00ff;stroke-linejoin:miter;stroke-width:1.5;" x="236.807335" xlink:href="#m1537913756" y="159.372189"/>
     <use style="fill-opacity:0;stroke:#ff00ff;stroke-linejoin:miter;stroke-width:1.5;" x="284.09438" xlink:href="#m1537913756" y="36.654332"/>
     <use style="fill-opacity:0;stroke:#ff00ff;stroke-linejoin:miter;stroke-width:1.5;" x="293.453346" xlink:href="#m1537913756" y="30.334099"/>
     <use style="fill-opacity:0;stroke:#ff00ff;stroke-linejoin:miter;stroke-width:1.5;" x="338.688" xlink:href="#m1537913756" y="30.334099"/>
    </g>
   </g>
   <g id="line2d_42">
    <path style="fill:none;stroke:#ff00ff;stroke-linecap:square;stroke-width:1.5;"/>
    <g/>
   </g>
   <g id="line2d_43">
    <path clip-path="url(#pac8666cab8)" d="M 218.221714 204.140506 
" style="fill:none;stroke:#ff00ff;stroke-linecap:square;stroke-width:1.5;"/>
    <defs>
     <path d="M -12 12 
L 12 -12 
M -12 -12 
L 12 12 
" id="m6c309ec0a4" style="stroke:#ff00ff;"/>
    </defs>
    <g clip-path="url(#pac8666cab8)">
     <use style="fill:#ff00ff;stroke:#ff00ff;" x="218.221714" xlink:href="#m6c309ec0a4" y="204.140506"/>
    </g>
   </g>
   <g id="line2d_44">
    <path d="M 338.688 146.205037 
L 369.60768 293.571802 
" style="fill:none;stroke:#000080;stroke-linecap:square;stroke-width:1.5;"/>
    <g>
     <use style="fill-opacity:0;stroke:#000080;stroke-width:1.5;" x="338.688" xlink:href="#mc951af6bfc" y="146.205037"/>
     <use style="fill-opacity:0;stroke:#000080;stroke-width:1.5;" x="369.60768" xlink:href="#mc951af6bfc" y="293.571802"/>
    </g>
   </g>
   <g id="line2d_45">
    <path d="M 338.688 30.334099 
L 369.60768 164.63905 
" style="fill:none;stroke:#ff00ff;stroke-linecap:square;stroke-width:1.5;"/>
    <g>
     <use style="fill-opacity:0;stroke:#ff00ff;stroke-linejoin:miter;stroke-width:1.5;" x="338.688" xlink:href="#m1537913756" y="30.334099"/>
     <use style="fill-opacity:0;stroke:#ff00ff;stroke-linejoin:miter;stroke-width:1.5;" x="369.60768" xlink:href="#m1537913756" y="164.63905"/>
    </g>
   </g>
   <g id="line2d_46">
    <path d="M 338.688 298.944 
L 338.688 30.334099 
" style="fill:none;stroke:#000000;stroke-linecap:square;stroke-width:1.5;"/>
   </g>
   <g id="patch_3">
    <path d="M 57.6 298.944 
L 57.6 27.648 
" style="fill:none;stroke:#000000;stroke-linecap:square;stroke-linejoin:miter;stroke-width:0.8;"/>
   </g>
   <g id="patch_4">
    <path d="M 338.688 298.944 
L 338.688 27.648 
" style="fill:none;stroke:#000000;stroke-linecap:square;stroke-linejoin:miter;stroke-width:0.8;"/>
   </g>
   <g id="patch_5">
    <path d="M 57.6 298.944 
L 338.688 298.944 
" style="fill:none;stroke:#000000;stroke-linecap:square;stroke-linejoin:miter;stroke-width:0.8;"/>
   </g>
   <g id="patch_6">
    <path d="M 57.6 27.648 
L 338.688 27.648 
" style="fill:none;stroke:#000000;stroke-linecap:square;stroke-linejoin:miter;stroke-width:0.8;"/>
   </g>
   <g id="text_13">
    <!-- outputCMA -->
    <g transform="translate(375.22944 298.262739)scale(0.17 -0.17)">
     <defs>
      <path d="M 64.40625 67.28125 
L 64.40625 56.890625 
Q 59.421875 61.53125 53.78125 63.8125 
Q 48.140625 66.109375 41.796875 66.109375 
Q 29.296875 66.109375 22.65625 58.46875 
Q 16.015625 50.828125 16.015625 36.375 
Q 16.015625 21.96875 22.65625 14.328125 
Q 29.296875 6.6875 41.796875 6.6875 
Q 48.140625 6.6875 53.78125 8.984375 
Q 59.421875 11.28125 64.40625 15.921875 
L 64.40625 5.609375 
Q 59.234375 2.09375 53.4375 0.328125 
Q 47.65625 -1.421875 41.21875 -1.421875 
Q 24.65625 -1.421875 15.125 8.703125 
Q 5.609375 18.84375 5.609375 36.375 
Q 5.609375 53.953125 15.125 64.078125 
Q 24.65625 74.21875 41.21875 74.21875 
Q 47.75 74.21875 53.53125 72.484375 
Q 59.328125 70.75 64.40625 67.28125 
z
" id="DejaVuSans-67"/>
      <path d="M 9.8125 72.90625 
L 24.515625 72.90625 
L 43.109375 23.296875 
L 61.8125 72.90625 
L 76.515625 72.90625 
L 76.515625 0 
L 66.890625 0 
L 66.890625 64.015625 
L 48.09375 14.015625 
L 38.1875 14.015625 
L 19.390625 64.015625 
L 19.390625 0 
L 9.8125 0 
z
" id="DejaVuSans-77"/>
      <path d="M 34.1875 63.1875 
L 20.796875 26.90625 
L 47.609375 26.90625 
z
M 28.609375 72.90625 
L 39.796875 72.90625 
L 67.578125 0 
L 57.328125 0 
L 50.6875 18.703125 
L 17.828125 18.703125 
L 11.1875 0 
L 0.78125 0 
z
" id="DejaVuSans-65"/>
     </defs>
     <use xlink:href="#DejaVuSans-111"/>
     <use x="61.181641" xlink:href="#DejaVuSans-117"/>
     <use x="124.560547" xlink:href="#DejaVuSans-116"/>
     <use x="163.769531" xlink:href="#DejaVuSans-112"/>
     <use x="227.246094" xlink:href="#DejaVuSans-117"/>
     <use x="290.625" xlink:href="#DejaVuSans-116"/>
     <use x="329.833984" xlink:href="#DejaVuSans-67"/>
     <use x="399.658203" xlink:href="#DejaVuSans-77"/>
     <use x="485.9375" xlink:href="#DejaVuSans-65"/>
    </g>
   </g>
   <g id="text_14">
    <!-- PSO -->
    <g transform="translate(375.22944 169.329987)scale(0.17 -0.17)">
     <defs>
      <path d="M 19.671875 64.796875 
L 19.671875 37.40625 
L 32.078125 37.40625 
Q 38.96875 37.40625 42.71875 40.96875 
Q 46.484375 44.53125 46.484375 51.125 
Q 46.484375 57.671875 42.71875 61.234375 
Q 38.96875 64.796875 32.078125 64.796875 
z
M 9.8125 72.90625 
L 32.078125 72.90625 
Q 44.34375 72.90625 50.609375 67.359375 
Q 56.890625 61.8125 56.890625 51.125 
Q 56.890625 40.328125 50.609375 34.8125 
Q 44.34375 29.296875 32.078125 29.296875 
L 19.671875 29.296875 
L 19.671875 0 
L 9.8125 0 
z
" id="DejaVuSans-80"/>
      <path d="M 53.515625 70.515625 
L 53.515625 60.890625 
Q 47.90625 63.578125 42.921875 64.890625 
Q 37.9375 66.21875 33.296875 66.21875 
Q 25.25 66.21875 20.875 63.09375 
Q 16.5 59.96875 16.5 54.203125 
Q 16.5 49.359375 19.40625 46.890625 
Q 22.3125 44.4375 30.421875 42.921875 
L 36.375 41.703125 
Q 47.40625 39.59375 52.65625 34.296875 
Q 57.90625 29 57.90625 20.125 
Q 57.90625 9.515625 50.796875 4.046875 
Q 43.703125 -1.421875 29.984375 -1.421875 
Q 24.8125 -1.421875 18.96875 -0.25 
Q 13.140625 0.921875 6.890625 3.21875 
L 6.890625 13.375 
Q 12.890625 10.015625 18.65625 8.296875 
Q 24.421875 6.59375 29.984375 6.59375 
Q 38.421875 6.59375 43.015625 9.90625 
Q 47.609375 13.234375 47.609375 19.390625 
Q 47.609375 24.75 44.3125 27.78125 
Q 41.015625 30.8125 33.5 32.328125 
L 27.484375 33.5 
Q 16.453125 35.6875 11.515625 40.375 
Q 6.59375 45.0625 6.59375 53.421875 
Q 6.59375 63.09375 13.40625 68.65625 
Q 20.21875 74.21875 32.171875 74.21875 
Q 37.3125 74.21875 42.625 73.28125 
Q 47.953125 72.359375 53.515625 70.515625 
z
" id="DejaVuSans-83"/>
      <path d="M 39.40625 66.21875 
Q 28.65625 66.21875 22.328125 58.203125 
Q 16.015625 50.203125 16.015625 36.375 
Q 16.015625 22.609375 22.328125 14.59375 
Q 28.65625 6.59375 39.40625 6.59375 
Q 50.140625 6.59375 56.421875 14.59375 
Q 62.703125 22.609375 62.703125 36.375 
Q 62.703125 50.203125 56.421875 58.203125 
Q 50.140625 66.21875 39.40625 66.21875 
z
M 39.40625 74.21875 
Q 54.734375 74.21875 63.90625 63.9375 
Q 73.09375 53.65625 73.09375 36.375 
Q 73.09375 19.140625 63.90625 8.859375 
Q 54.734375 -1.421875 39.40625 -1.421875 
Q 24.03125 -1.421875 14.8125 8.828125 
Q 5.609375 19.09375 5.609375 36.375 
Q 5.609375 53.65625 14.8125 63.9375 
Q 24.03125 74.21875 39.40625 74.21875 
z
" id="DejaVuSans-79"/>
     </defs>
     <use xlink:href="#DejaVuSans-80"/>
     <use x="60.302734" xlink:href="#DejaVuSans-83"/>
     <use x="123.779297" xlink:href="#DejaVuSans-79"/>
    </g>
   </g>
   <g id="text_15">
    <!-- best 2009 -->
    <g transform="translate(375.22944 40.397235)scale(0.17 -0.17)">
     <defs>
      <path d="M 48.6875 27.296875 
Q 48.6875 37.203125 44.609375 42.84375 
Q 40.53125 48.484375 33.40625 48.484375 
Q 26.265625 48.484375 22.1875 42.84375 
Q 18.109375 37.203125 18.109375 27.296875 
Q 18.109375 17.390625 22.1875 11.75 
Q 26.265625 6.109375 33.40625 6.109375 
Q 40.53125 6.109375 44.609375 11.75 
Q 48.6875 17.390625 48.6875 27.296875 
z
M 18.109375 46.390625 
Q 20.953125 51.265625 25.265625 53.625 
Q 29.59375 56 35.59375 56 
Q 45.5625 56 51.78125 48.09375 
Q 58.015625 40.1875 58.015625 27.296875 
Q 58.015625 14.40625 51.78125 6.484375 
Q 45.5625 -1.421875 35.59375 -1.421875 
Q 29.59375 -1.421875 25.265625 0.953125 
Q 20.953125 3.328125 18.109375 8.203125 
L 18.109375 0 
L 9.078125 0 
L 9.078125 75.984375 
L 18.109375 75.984375 
z
" id="DejaVuSans-98"/>
      <path d="M 10.984375 1.515625 
L 10.984375 10.5 
Q 14.703125 8.734375 18.5 7.8125 
Q 22.3125 6.890625 25.984375 6.890625 
Q 35.75 6.890625 40.890625 13.453125 
Q 46.046875 20.015625 46.78125 33.40625 
Q 43.953125 29.203125 39.59375 26.953125 
Q 35.25 24.703125 29.984375 24.703125 
Q 19.046875 24.703125 12.671875 31.3125 
Q 6.296875 37.9375 6.296875 49.421875 
Q 6.296875 60.640625 12.9375 67.421875 
Q 19.578125 74.21875 30.609375 74.21875 
Q 43.265625 74.21875 49.921875 64.515625 
Q 56.59375 54.828125 56.59375 36.375 
Q 56.59375 19.140625 48.40625 8.859375 
Q 40.234375 -1.421875 26.421875 -1.421875 
Q 22.703125 -1.421875 18.890625 -0.6875 
Q 15.09375 0.046875 10.984375 1.515625 
z
M 30.609375 32.421875 
Q 37.25 32.421875 41.125 36.953125 
Q 45.015625 41.5 45.015625 49.421875 
Q 45.015625 57.28125 41.125 61.84375 
Q 37.25 66.40625 30.609375 66.40625 
Q 23.96875 66.40625 20.09375 61.84375 
Q 16.21875 57.28125 16.21875 49.421875 
Q 16.21875 41.5 20.09375 36.953125 
Q 23.96875 32.421875 30.609375 32.421875 
z
" id="DejaVuSans-57"/>
     </defs>
     <use xlink:href="#DejaVuSans-98"/>
     <use x="63.476562" xlink:href="#DejaVuSans-101"/>
     <use x="125" xlink:href="#DejaVuSans-115"/>
     <use x="177.099609" xlink:href="#DejaVuSans-116"/>
     <use x="216.308594" xlink:href="#DejaVuSans-32"/>
     <use x="248.095703" xlink:href="#DejaVuSans-50"/>
     <use x="311.71875" xlink:href="#DejaVuSans-48"/>
     <use x="375.341797" xlink:href="#DejaVuSans-48"/>
     <use x="438.964844" xlink:href="#DejaVuSans-57"/>
    </g>
   </g>
   <g id="text_16">
    <!-- bbob f18, 3-D -->
    <g transform="translate(60.41088 38.111366)scale(0.102 -0.102)">
     <defs>
      <path d="M 40.578125 39.3125 
Q 47.65625 37.796875 51.625 33 
Q 55.609375 28.21875 55.609375 21.1875 
Q 55.609375 10.40625 48.1875 4.484375 
Q 40.765625 -1.421875 27.09375 -1.421875 
Q 22.515625 -1.421875 17.65625 -0.515625 
Q 12.796875 0.390625 7.625 2.203125 
L 7.625 11.71875 
Q 11.71875 9.328125 16.59375 8.109375 
Q 21.484375 6.890625 26.8125 6.890625 
Q 36.078125 6.890625 40.9375 10.546875 
Q 45.796875 14.203125 45.796875 21.1875 
Q 45.796875 27.640625 41.28125 31.265625 
Q 36.765625 34.90625 28.71875 34.90625 
L 20.21875 34.90625 
L 20.21875 43.015625 
L 29.109375 43.015625 
Q 36.375 43.015625 40.234375 45.921875 
Q 44.09375 48.828125 44.09375 54.296875 
Q 44.09375 59.90625 40.109375 62.90625 
Q 36.140625 65.921875 28.71875 65.921875 
Q 24.65625 65.921875 20.015625 65.03125 
Q 15.375 64.15625 9.8125 62.3125 
L 9.8125 71.09375 
Q 15.4375 72.65625 20.34375 73.4375 
Q 25.25 74.21875 29.59375 74.21875 
Q 40.828125 74.21875 47.359375 69.109375 
Q 53.90625 64.015625 53.90625 55.328125 
Q 53.90625 49.265625 50.4375 45.09375 
Q 46.96875 40.921875 40.578125 39.3125 
z
" id="DejaVuSans-51"/>
      <path d="M 19.671875 64.796875 
L 19.671875 8.109375 
L 31.59375 8.109375 
Q 46.6875 8.109375 53.6875 14.9375 
Q 60.6875 21.78125 60.6875 36.53125 
Q 60.6875 51.171875 53.6875 57.984375 
Q 46.6875 64.796875 31.59375 64.796875 
z
M 9.8125 72.90625 
L 30.078125 72.90625 
Q 51.265625 72.90625 61.171875 64.09375 
Q 71.09375 55.28125 71.09375 36.53125 
Q 71.09375 17.671875 61.125 8.828125 
Q 51.171875 0 30.078125 0 
L 9.8125 0 
z
" id="DejaVuSans-68"/>
     </defs>
     <use xlink:href="#DejaVuSans-98"/>
     <use x="63.476562" xlink:href="#DejaVuSans-98"/>
     <use x="126.953125" xlink:href="#DejaVuSans-111"/>
     <use x="188.134766" xlink:href="#DejaVuSans-98"/>
     <use x="251.611328" xlink:href="#DejaVuSans-32"/>
     <use x="283.398438" xlink:href="#DejaVuSans-102"/>
     <use x="318.603516" xlink:href="#DejaVuSans-49"/>
     <use x="382.226562" xlink:href="#DejaVuSans-56"/>
     <use x="445.849609" xlink:href="#DejaVuSans-44"/>
     <use x="477.636719" xlink:href="#DejaVuSans-32"/>
     <use x="509.423828" xlink:href="#DejaVuSans-51"/>
     <use x="573.046875" xlink:href="#DejaVuSans-45"/>
     <use x="609.130859" xlink:href="#DejaVuSans-68"/>
    </g>
    <!-- 51 targets: 100..1e-08 -->
    <g transform="translate(60.41088 49.533135)scale(0.102 -0.102)">
     <defs>
      <path d="M 10.796875 72.90625 
L 49.515625 72.90625 
L 49.515625 64.59375 
L 19.828125 64.59375 
L 19.828125 46.734375 
Q 21.96875 47.46875 24.109375 47.828125 
Q 26.265625 48.1875 28.421875 48.1875 
Q 40.625 48.1875 47.75 41.5 
Q 54.890625 34.8125 54.890625 23.390625 
Q 54.890625 11.625 47.5625 5.09375 
Q 40.234375 -1.421875 26.90625 -1.421875 
Q 22.3125 -1.421875 17.546875 -0.640625 
Q 12.796875 0.140625 7.71875 1.703125 
L 7.71875 11.625 
Q 12.109375 9.234375 16.796875 8.0625 
Q 21.484375 6.890625 26.703125 6.890625 
Q 35.15625 6.890625 40.078125 11.328125 
Q 45.015625 15.765625 45.015625 23.390625 
Q 45.015625 31 40.078125 35.4375 
Q 35.15625 39.890625 26.703125 39.890625 
Q 22.75 39.890625 18.8125 39.015625 
Q 14.890625 38.140625 10.796875 36.28125 
z
" id="DejaVuSans-53"/>
      <path d="M 11.71875 12.40625 
L 22.015625 12.40625 
L 22.015625 0 
L 11.71875 0 
z
M 11.71875 51.703125 
L 22.015625 51.703125 
L 22.015625 39.3125 
L 11.71875 39.3125 
z
" id="DejaVuSans-58"/>
     </defs>
     <use xlink:href="#DejaVuSans-53"/>
     <use x="63.623047" xlink:href="#DejaVuSans-49"/>
     <use x="127.246094" xlink:href="#DejaVuSans-32"/>
     <use x="159.033203" xlink:href="#DejaVuSans-116"/>
     <use x="198.242188" xlink:href="#DejaVuSans-97"/>
     <use x="259.521484" xlink:href="#DejaVuSans-114"/>
     <use x="298.884766" xlink:href="#DejaVuSans-103"/>
     <use x="362.361328" xlink:href="#DejaVuSans-101"/>
     <use x="423.884766" xlink:href="#DejaVuSans-116"/>
     <use x="463.09375" xlink:href="#DejaVuSans-115"/>
     <use x="515.193359" xlink:href="#DejaVuSans-58"/>
     <use x="548.884766" xlink:href="#DejaVuSans-32"/>
     <use x="580.671875" xlink:href="#DejaVuSans-49"/>
     <use x="644.294922" xlink:href="#DejaVuSans-48"/>
     <use x="707.917969" xlink:href="#DejaVuSans-48"/>
     <use x="771.541016" xlink:href="#DejaVuSans-46"/>
     <use x="803.328125" xlink:href="#DejaVuSans-46"/>
     <use x="835.115234" xlink:href="#DejaVuSans-49"/>
     <use x="898.738281" xlink:href="#DejaVuSans-101"/>
     <use x="960.261719" xlink:href="#DejaVuSans-45"/>
     <use x="996.345703" xlink:href="#DejaVuSans-48"/>
     <use x="1059.96875" xlink:href="#DejaVuSans-56"/>
    </g>
    <!-- 15 instances -->
    <g transform="translate(60.41088 60.954904)scale(0.102 -0.102)">
     <use xlink:href="#DejaVuSans-49"/>
     <use x="63.623047" xlink:href="#DejaVuSans-53"/>
     <use x="127.246094" xlink:href="#DejaVuSans-32"/>
     <use x="159.033203" xlink:href="#DejaVuSans-105"/>
     <use x="186.816406" xlink:href="#DejaVuSans-110"/>
     <use x="250.195312" xlink:href="#DejaVuSans-115"/>
     <use x="302.294922" xlink:href="#DejaVuSans-116"/>
     <use x="341.503906" xlink:href="#DejaVuSans-97"/>
     <use x="402.783203" xlink:href="#DejaVuSans-110"/>
     <use x="466.162109" xlink:href="#DejaVuSans-99"/>
     <use x="521.142578" xlink:href="#DejaVuSans-101"/>
     <use x="582.666016" xlink:href="#DejaVuSans-115"/>
    </g>
   </g>
   <g id="text_17">
    <!-- v2.4 -->
    <g style="fill:#808080;" transform="translate(187.233062 294.151352)scale(0.1 -0.1)">
     <use xlink:href="#DejaVuSans-118"/>
     <use x="59.179688" xlink:href="#DejaVuSans-50"/>
     <use x="122.802734" xlink:href="#DejaVuSans-46"/>
     <use x="154.589844" xlink:href="#DejaVuSans-52"/>
    </g>
   </g>
   <g id="text_18">
    <!-- 18 Schaffer F7, condition 1000 -->
    <g transform="translate(44.111187 21.648)scale(0.2 -0.2)">
     <defs>
      <path d="M 54.890625 33.015625 
L 54.890625 0 
L 45.90625 0 
L 45.90625 32.71875 
Q 45.90625 40.484375 42.875 44.328125 
Q 39.84375 48.1875 33.796875 48.1875 
Q 26.515625 48.1875 22.3125 43.546875 
Q 18.109375 38.921875 18.109375 30.90625 
L 18.109375 0 
L 9.078125 0 
L 9.078125 75.984375 
L 18.109375 75.984375 
L 18.109375 46.1875 
Q 21.34375 51.125 25.703125 53.5625 
Q 30.078125 56 35.796875 56 
Q 45.21875 56 50.046875 50.171875 
Q 54.890625 44.34375 54.890625 33.015625 
z
" id="DejaVuSans-104"/>
      <path d="M 8.203125 72.90625 
L 55.078125 72.90625 
L 55.078125 68.703125 
L 28.609375 0 
L 18.3125 0 
L 43.21875 64.59375 
L 8.203125 64.59375 
z
" id="DejaVuSans-55"/>
     </defs>
     <use xlink:href="#DejaVuSans-49"/>
     <use x="63.623047" xlink:href="#DejaVuSans-56"/>
     <use x="127.246094" xlink:href="#DejaVuSans-32"/>
     <use x="159.033203" xlink:href="#DejaVuSans-83"/>
     <use x="222.509766" xlink:href="#DejaVuSans-99"/>
     <use x="277.490234" xlink:href="#DejaVuSans-104"/>
     <use x="340.869141" xlink:href="#DejaVuSans-97"/>
     <use x="402.148438" xlink:href="#DejaVuSans-102"/>
     <use x="437.353516" xlink:href="#DejaVuSans-102"/>
     <use x="472.558594" xlink:href="#DejaVuSans-101"/>
     <use x="534.082031" xlink:href="#DejaVuSans-114"/>
     <use x="575.195312" xlink:href="#DejaVuSans-32"/>
     <use x="606.982422" xlink:href="#DejaVuSans-70"/>
     <use x="664.501953" xlink:href="#DejaVuSans-55"/>
     <use x="728.125" xlink:href="#DejaVuSans-44"/>
     <use x="759.912109" xlink:href="#DejaVuSans-32"/>
     <use x="791.699219" xlink:href="#DejaVuSans-99"/>
     <use x="846.679688" xlink:href="#DejaVuSans-111"/>
     <use x="907.861328" xlink:href="#DejaVuSans-110"/>
     <use x="971.240234" xlink:href="#DejaVuSans-100"/>
     <use x="1034.716797" xlink:href="#DejaVuSans-105"/>
     <use x="1062.5" xlink:href="#DejaVuSans-116"/>
     <use x="1101.708984" xlink:href="#DejaVuSans-105"/>
     <use x="1129.492188" xlink:href="#DejaVuSans-111"/>
     <use x="1190.673828" xlink:href="#DejaVuSans-110"/>
     <use x="1254.052734" xlink:href="#DejaVuSans-32"/>
     <use x="1285.839844" xlink:href="#DejaVuSans-49"/>
     <use x="1349.462891" xlink:href="#DejaVuSans-48"/>
     <use x="1413.085938" xlink:href="#DejaVuSans-48"/>
     <use x="1476.708984" xlink:href="#DejaVuSans-48"/>
    </g>
   </g>
  </g>
 </g>
 <defs>
  <clipPath id="pac8666cab8">
   <rect height="271.296" width="281.088" x="57.6" y="27.648"/>
  </clipPath>
 </defs>
</svg>
