<?xml version="1.0" encoding="utf-8" standalone="no"?>
<!DOCTYPE svg PUBLIC "-//W3C//DTD SVG 1.1//EN"
  "http://www.w3.org/Graphics/SVG/1.1/DTD/svg11.dtd">
<!-- Created with matplotlib (https://matplotlib.org/) -->
<svg height="345.6pt" version="1.1" viewBox="0 0 460.8 345.6" width="460.8pt" xmlns="http://www.w3.org/2000/svg" xmlns:xlink="http://www.w3.org/1999/xlink">
 <metadata>
  <rdf:RDF xmlns:cc="http://creativecommons.org/ns#" xmlns:dc="http://purl.org/dc/elements/1.1/" xmlns:rdf="http://www.w3.org/1999/02/22-rdf-syntax-ns#">
   <cc:Work>
    <dc:type rdf:resource="http://purl.org/dc/dcmitype/StillImage"/>
    <dc:date>2021-05-01T17:08:45.583641</dc:date>
    <dc:format>image/svg+xml</dc:format>
    <dc:creator>
     <cc:Agent>
      <dc:title>Matplotlib v3.3.2, https://matplotlib.org/</dc:title>
     </cc:Agent>
    </dc:creator>
   </cc:Work>
  </rdf:RDF>
 </metadata>
 <defs>
  <style type="text/css">*{stroke-linecap:butt;stroke-linejoin:round;}</style>
 </defs>
 <g id="figure_1">
  <g id="patch_1">
   <path d="M 0 345.6 
L 460.8 345.6 
L 460.8 0 
L 0 0 
z
" style="fill:#ffffff;"/>
  </g>
  <g id="axes_1">
   <g id="patch_2">
    <path d="M 34.16 291.28 
L 453.192 291.28 
L 453.192 3 
L 34.16 3 
z
" style="fill:#ffffff;"/>
   </g>
   <g id="matplotlib.axis_1">
    <g id="xtick_1">
     <g id="line2d_1">
      <path clip-path="url(#p11d37c24ce)" d="M 172.210151 291.28 
L 172.210151 3 
" style="fill:none;stroke:#b0b0b0;stroke-linecap:square;stroke-width:0.8;"/>
     </g>
     <g id="line2d_2">
      <defs>
       <path d="M 0 0 
L 0 3.5 
" id="m7e46e9c745" style="stroke:#000000;stroke-width:0.8;"/>
      </defs>
      <g>
       <use style="stroke:#000000;stroke-width:0.8;" x="172.210151" xlink:href="#m7e46e9c745" y="291.28"/>
      </g>
     </g>
     <g id="text_1">
      <!-- -1 -->
      <g transform="translate(162.239838 313.476875)scale(0.2 -0.2)">
       <defs>
        <path d="M 4.890625 31.390625 
L 31.203125 31.390625 
L 31.203125 23.390625 
L 4.890625 23.390625 
z
" id="DejaVuSans-45"/>
        <path d="M 12.40625 8.296875 
L 28.515625 8.296875 
L 28.515625 63.921875 
L 10.984375 60.40625 
L 10.984375 69.390625 
L 28.421875 72.90625 
L 38.28125 72.90625 
L 38.28125 8.296875 
L 54.390625 8.296875 
L 54.390625 0 
L 12.40625 0 
z
" id="DejaVuSans-49"/>
       </defs>
       <use xlink:href="#DejaVuSans-45"/>
       <use x="36.083984" xlink:href="#DejaVuSans-49"/>
      </g>
     </g>
    </g>
    <g id="xtick_2">
     <g id="line2d_3">
      <path clip-path="url(#p11d37c24ce)" d="M 315.141849 291.28 
L 315.141849 3 
" style="fill:none;stroke:#b0b0b0;stroke-linecap:square;stroke-width:0.8;"/>
     </g>
     <g id="line2d_4">
      <g>
       <use style="stroke:#000000;stroke-width:0.8;" x="315.141849" xlink:href="#m7e46e9c745" y="291.28"/>
      </g>
     </g>
     <g id="text_2">
      <!-- 1 -->
      <g transform="translate(308.779349 313.476875)scale(0.2 -0.2)">
       <use xlink:href="#DejaVuSans-49"/>
      </g>
     </g>
    </g>
    <g id="xtick_3">
     <g id="line2d_5">
      <defs>
       <path d="M 0 0 
L 0 2 
" id="mbfc31d2f52" style="stroke:#000000;stroke-width:0.6;"/>
      </defs>
      <g>
       <use style="stroke:#000000;stroke-width:0.6;" x="50.791817" xlink:href="#mbfc31d2f52" y="291.28"/>
      </g>
     </g>
    </g>
    <g id="xtick_4">
     <g id="line2d_6">
      <g>
       <use style="stroke:#000000;stroke-width:0.6;" x="63.376328" xlink:href="#mbfc31d2f52" y="291.28"/>
      </g>
     </g>
    </g>
    <g id="xtick_5">
     <g id="line2d_7">
      <g>
       <use style="stroke:#000000;stroke-width:0.6;" x="72.305181" xlink:href="#mbfc31d2f52" y="291.28"/>
      </g>
     </g>
    </g>
    <g id="xtick_6">
     <g id="line2d_8">
      <g>
       <use style="stroke:#000000;stroke-width:0.6;" x="79.230938" xlink:href="#mbfc31d2f52" y="291.28"/>
      </g>
     </g>
    </g>
    <g id="xtick_7">
     <g id="line2d_9">
      <g>
       <use style="stroke:#000000;stroke-width:0.6;" x="84.889693" xlink:href="#mbfc31d2f52" y="291.28"/>
      </g>
     </g>
    </g>
    <g id="xtick_8">
     <g id="line2d_10">
      <g>
       <use style="stroke:#000000;stroke-width:0.6;" x="89.674102" xlink:href="#mbfc31d2f52" y="291.28"/>
      </g>
     </g>
    </g>
    <g id="xtick_9">
     <g id="line2d_11">
      <g>
       <use style="stroke:#000000;stroke-width:0.6;" x="93.818545" xlink:href="#mbfc31d2f52" y="291.28"/>
      </g>
     </g>
    </g>
    <g id="xtick_10">
     <g id="line2d_12">
      <g>
       <use style="stroke:#000000;stroke-width:0.6;" x="97.474204" xlink:href="#mbfc31d2f52" y="291.28"/>
      </g>
     </g>
    </g>
    <g id="xtick_11">
     <g id="line2d_13">
      <g>
       <use style="stroke:#000000;stroke-width:0.6;" x="122.257666" xlink:href="#mbfc31d2f52" y="291.28"/>
      </g>
     </g>
    </g>
    <g id="xtick_12">
     <g id="line2d_14">
      <g>
       <use style="stroke:#000000;stroke-width:0.6;" x="134.842177" xlink:href="#mbfc31d2f52" y="291.28"/>
      </g>
     </g>
    </g>
    <g id="xtick_13">
     <g id="line2d_15">
      <g>
       <use style="stroke:#000000;stroke-width:0.6;" x="143.77103" xlink:href="#mbfc31d2f52" y="291.28"/>
      </g>
     </g>
    </g>
    <g id="xtick_14">
     <g id="line2d_16">
      <g>
       <use style="stroke:#000000;stroke-width:0.6;" x="150.696787" xlink:href="#mbfc31d2f52" y="291.28"/>
      </g>
     </g>
    </g>
    <g id="xtick_15">
     <g id="line2d_17">
      <g>
       <use style="stroke:#000000;stroke-width:0.6;" x="156.355542" xlink:href="#mbfc31d2f52" y="291.28"/>
      </g>
     </g>
    </g>
    <g id="xtick_16">
     <g id="line2d_18">
      <g>
       <use style="stroke:#000000;stroke-width:0.6;" x="161.139951" xlink:href="#mbfc31d2f52" y="291.28"/>
      </g>
     </g>
    </g>
    <g id="xtick_17">
     <g id="line2d_19">
      <g>
       <use style="stroke:#000000;stroke-width:0.6;" x="165.284395" xlink:href="#mbfc31d2f52" y="291.28"/>
      </g>
     </g>
    </g>
    <g id="xtick_18">
     <g id="line2d_20">
      <g>
       <use style="stroke:#000000;stroke-width:0.6;" x="168.940053" xlink:href="#mbfc31d2f52" y="291.28"/>
      </g>
     </g>
    </g>
    <g id="xtick_19">
     <g id="line2d_21">
      <g>
       <use style="stroke:#000000;stroke-width:0.6;" x="193.723515" xlink:href="#mbfc31d2f52" y="291.28"/>
      </g>
     </g>
    </g>
    <g id="xtick_20">
     <g id="line2d_22">
      <g>
       <use style="stroke:#000000;stroke-width:0.6;" x="206.308026" xlink:href="#mbfc31d2f52" y="291.28"/>
      </g>
     </g>
    </g>
    <g id="xtick_21">
     <g id="line2d_23">
      <g>
       <use style="stroke:#000000;stroke-width:0.6;" x="215.236879" xlink:href="#mbfc31d2f52" y="291.28"/>
      </g>
     </g>
    </g>
    <g id="xtick_22">
     <g id="line2d_24">
      <g>
       <use style="stroke:#000000;stroke-width:0.6;" x="222.162636" xlink:href="#mbfc31d2f52" y="291.28"/>
      </g>
     </g>
    </g>
    <g id="xtick_23">
     <g id="line2d_25">
      <g>
       <use style="stroke:#000000;stroke-width:0.6;" x="227.821391" xlink:href="#mbfc31d2f52" y="291.28"/>
      </g>
     </g>
    </g>
    <g id="xtick_24">
     <g id="line2d_26">
      <g>
       <use style="stroke:#000000;stroke-width:0.6;" x="232.6058" xlink:href="#mbfc31d2f52" y="291.28"/>
      </g>
     </g>
    </g>
    <g id="xtick_25">
     <g id="line2d_27">
      <g>
       <use style="stroke:#000000;stroke-width:0.6;" x="236.750244" xlink:href="#mbfc31d2f52" y="291.28"/>
      </g>
     </g>
    </g>
    <g id="xtick_26">
     <g id="line2d_28">
      <g>
       <use style="stroke:#000000;stroke-width:0.6;" x="240.405902" xlink:href="#mbfc31d2f52" y="291.28"/>
      </g>
     </g>
    </g>
    <g id="xtick_27">
     <g id="line2d_29">
      <g>
       <use style="stroke:#000000;stroke-width:0.6;" x="265.189364" xlink:href="#mbfc31d2f52" y="291.28"/>
      </g>
     </g>
    </g>
    <g id="xtick_28">
     <g id="line2d_30">
      <g>
       <use style="stroke:#000000;stroke-width:0.6;" x="277.773876" xlink:href="#mbfc31d2f52" y="291.28"/>
      </g>
     </g>
    </g>
    <g id="xtick_29">
     <g id="line2d_31">
      <g>
       <use style="stroke:#000000;stroke-width:0.6;" x="286.702728" xlink:href="#mbfc31d2f52" y="291.28"/>
      </g>
     </g>
    </g>
    <g id="xtick_30">
     <g id="line2d_32">
      <g>
       <use style="stroke:#000000;stroke-width:0.6;" x="293.628485" xlink:href="#mbfc31d2f52" y="291.28"/>
      </g>
     </g>
    </g>
    <g id="xtick_31">
     <g id="line2d_33">
      <g>
       <use style="stroke:#000000;stroke-width:0.6;" x="299.28724" xlink:href="#mbfc31d2f52" y="291.28"/>
      </g>
     </g>
    </g>
    <g id="xtick_32">
     <g id="line2d_34">
      <g>
       <use style="stroke:#000000;stroke-width:0.6;" x="304.071649" xlink:href="#mbfc31d2f52" y="291.28"/>
      </g>
     </g>
    </g>
    <g id="xtick_33">
     <g id="line2d_35">
      <g>
       <use style="stroke:#000000;stroke-width:0.6;" x="308.216093" xlink:href="#mbfc31d2f52" y="291.28"/>
      </g>
     </g>
    </g>
    <g id="xtick_34">
     <g id="line2d_36">
      <g>
       <use style="stroke:#000000;stroke-width:0.6;" x="311.871751" xlink:href="#mbfc31d2f52" y="291.28"/>
      </g>
     </g>
    </g>
    <g id="xtick_35">
     <g id="line2d_37">
      <g>
       <use style="stroke:#000000;stroke-width:0.6;" x="336.655213" xlink:href="#mbfc31d2f52" y="291.28"/>
      </g>
     </g>
    </g>
    <g id="xtick_36">
     <g id="line2d_38">
      <g>
       <use style="stroke:#000000;stroke-width:0.6;" x="349.239725" xlink:href="#mbfc31d2f52" y="291.28"/>
      </g>
     </g>
    </g>
    <g id="xtick_37">
     <g id="line2d_39">
      <g>
       <use style="stroke:#000000;stroke-width:0.6;" x="358.168578" xlink:href="#mbfc31d2f52" y="291.28"/>
      </g>
     </g>
    </g>
    <g id="xtick_38">
     <g id="line2d_40">
      <g>
       <use style="stroke:#000000;stroke-width:0.6;" x="365.094334" xlink:href="#mbfc31d2f52" y="291.28"/>
      </g>
     </g>
    </g>
    <g id="xtick_39">
     <g id="line2d_41">
      <g>
       <use style="stroke:#000000;stroke-width:0.6;" x="370.753089" xlink:href="#mbfc31d2f52" y="291.28"/>
      </g>
     </g>
    </g>
    <g id="xtick_40">
     <g id="line2d_42">
      <g>
       <use style="stroke:#000000;stroke-width:0.6;" x="375.537498" xlink:href="#mbfc31d2f52" y="291.28"/>
      </g>
     </g>
    </g>
    <g id="xtick_41">
     <g id="line2d_43">
      <g>
       <use style="stroke:#000000;stroke-width:0.6;" x="379.681942" xlink:href="#mbfc31d2f52" y="291.28"/>
      </g>
     </g>
    </g>
    <g id="xtick_42">
     <g id="line2d_44">
      <g>
       <use style="stroke:#000000;stroke-width:0.6;" x="383.3376" xlink:href="#mbfc31d2f52" y="291.28"/>
      </g>
     </g>
    </g>
    <g id="xtick_43">
     <g id="line2d_45">
      <g>
       <use style="stroke:#000000;stroke-width:0.6;" x="408.121062" xlink:href="#mbfc31d2f52" y="291.28"/>
      </g>
     </g>
    </g>
    <g id="xtick_44">
     <g id="line2d_46">
      <g>
       <use style="stroke:#000000;stroke-width:0.6;" x="420.705574" xlink:href="#mbfc31d2f52" y="291.28"/>
      </g>
     </g>
    </g>
    <g id="xtick_45">
     <g id="line2d_47">
      <g>
       <use style="stroke:#000000;stroke-width:0.6;" x="429.634427" xlink:href="#mbfc31d2f52" y="291.28"/>
      </g>
     </g>
    </g>
    <g id="xtick_46">
     <g id="line2d_48">
      <g>
       <use style="stroke:#000000;stroke-width:0.6;" x="436.560183" xlink:href="#mbfc31d2f52" y="291.28"/>
      </g>
     </g>
    </g>
    <g id="xtick_47">
     <g id="line2d_49">
      <g>
       <use style="stroke:#000000;stroke-width:0.6;" x="442.218938" xlink:href="#mbfc31d2f52" y="291.28"/>
      </g>
     </g>
    </g>
    <g id="xtick_48">
     <g id="line2d_50">
      <g>
       <use style="stroke:#000000;stroke-width:0.6;" x="447.003347" xlink:href="#mbfc31d2f52" y="291.28"/>
      </g>
     </g>
    </g>
    <g id="xtick_49">
     <g id="line2d_51">
      <g>
       <use style="stroke:#000000;stroke-width:0.6;" x="451.147791" xlink:href="#mbfc31d2f52" y="291.28"/>
      </g>
     </g>
    </g>
    <g id="text_3">
     <!-- log10 of FEvals ratio -->
     <g transform="translate(141.371312 336.833125)scale(0.2 -0.2)">
      <defs>
       <path d="M 9.421875 75.984375 
L 18.40625 75.984375 
L 18.40625 0 
L 9.421875 0 
z
" id="DejaVuSans-108"/>
       <path d="M 30.609375 48.390625 
Q 23.390625 48.390625 19.1875 42.75 
Q 14.984375 37.109375 14.984375 27.296875 
Q 14.984375 17.484375 19.15625 11.84375 
Q 23.34375 6.203125 30.609375 6.203125 
Q 37.796875 6.203125 41.984375 11.859375 
Q 46.1875 17.53125 46.1875 27.296875 
Q 46.1875 37.015625 41.984375 42.703125 
Q 37.796875 48.390625 30.609375 48.390625 
z
M 30.609375 56 
Q 42.328125 56 49.015625 48.375 
Q 55.71875 40.765625 55.71875 27.296875 
Q 55.71875 13.875 49.015625 6.21875 
Q 42.328125 -1.421875 30.609375 -1.421875 
Q 18.84375 -1.421875 12.171875 6.21875 
Q 5.515625 13.875 5.515625 27.296875 
Q 5.515625 40.765625 12.171875 48.375 
Q 18.84375 56 30.609375 56 
z
" id="DejaVuSans-111"/>
       <path d="M 45.40625 27.984375 
Q 45.40625 37.75 41.375 43.109375 
Q 37.359375 48.484375 30.078125 48.484375 
Q 22.859375 48.484375 18.828125 43.109375 
Q 14.796875 37.75 14.796875 27.984375 
Q 14.796875 18.265625 18.828125 12.890625 
Q 22.859375 7.515625 30.078125 7.515625 
Q 37.359375 7.515625 41.375 12.890625 
Q 45.40625 18.265625 45.40625 27.984375 
z
M 54.390625 6.78125 
Q 54.390625 -7.171875 48.1875 -13.984375 
Q 42 -20.796875 29.203125 -20.796875 
Q 24.46875 -20.796875 20.265625 -20.09375 
Q 16.0625 -19.390625 12.109375 -17.921875 
L 12.109375 -9.1875 
Q 16.0625 -11.328125 19.921875 -12.34375 
Q 23.78125 -13.375 27.78125 -13.375 
Q 36.625 -13.375 41.015625 -8.765625 
Q 45.40625 -4.15625 45.40625 5.171875 
L 45.40625 9.625 
Q 42.625 4.78125 38.28125 2.390625 
Q 33.9375 0 27.875 0 
Q 17.828125 0 11.671875 7.65625 
Q 5.515625 15.328125 5.515625 27.984375 
Q 5.515625 40.671875 11.671875 48.328125 
Q 17.828125 56 27.875 56 
Q 33.9375 56 38.28125 53.609375 
Q 42.625 51.21875 45.40625 46.390625 
L 45.40625 54.6875 
L 54.390625 54.6875 
z
" id="DejaVuSans-103"/>
       <path d="M 31.78125 66.40625 
Q 24.171875 66.40625 20.328125 58.90625 
Q 16.5 51.421875 16.5 36.375 
Q 16.5 21.390625 20.328125 13.890625 
Q 24.171875 6.390625 31.78125 6.390625 
Q 39.453125 6.390625 43.28125 13.890625 
Q 47.125 21.390625 47.125 36.375 
Q 47.125 51.421875 43.28125 58.90625 
Q 39.453125 66.40625 31.78125 66.40625 
z
M 31.78125 74.21875 
Q 44.046875 74.21875 50.515625 64.515625 
Q 56.984375 54.828125 56.984375 36.375 
Q 56.984375 17.96875 50.515625 8.265625 
Q 44.046875 -1.421875 31.78125 -1.421875 
Q 19.53125 -1.421875 13.0625 8.265625 
Q 6.59375 17.96875 6.59375 36.375 
Q 6.59375 54.828125 13.0625 64.515625 
Q 19.53125 74.21875 31.78125 74.21875 
z
" id="DejaVuSans-48"/>
       <path id="DejaVuSans-32"/>
       <path d="M 37.109375 75.984375 
L 37.109375 68.5 
L 28.515625 68.5 
Q 23.6875 68.5 21.796875 66.546875 
Q 19.921875 64.59375 19.921875 59.515625 
L 19.921875 54.6875 
L 34.71875 54.6875 
L 34.71875 47.703125 
L 19.921875 47.703125 
L 19.921875 0 
L 10.890625 0 
L 10.890625 47.703125 
L 2.296875 47.703125 
L 2.296875 54.6875 
L 10.890625 54.6875 
L 10.890625 58.5 
Q 10.890625 67.625 15.140625 71.796875 
Q 19.390625 75.984375 28.609375 75.984375 
z
" id="DejaVuSans-102"/>
       <path d="M 9.8125 72.90625 
L 51.703125 72.90625 
L 51.703125 64.59375 
L 19.671875 64.59375 
L 19.671875 43.109375 
L 48.578125 43.109375 
L 48.578125 34.8125 
L 19.671875 34.8125 
L 19.671875 0 
L 9.8125 0 
z
" id="DejaVuSans-70"/>
       <path d="M 9.8125 72.90625 
L 55.90625 72.90625 
L 55.90625 64.59375 
L 19.671875 64.59375 
L 19.671875 43.015625 
L 54.390625 43.015625 
L 54.390625 34.71875 
L 19.671875 34.71875 
L 19.671875 8.296875 
L 56.78125 8.296875 
L 56.78125 0 
L 9.8125 0 
z
" id="DejaVuSans-69"/>
       <path d="M 2.984375 54.6875 
L 12.5 54.6875 
L 29.59375 8.796875 
L 46.6875 54.6875 
L 56.203125 54.6875 
L 35.6875 0 
L 23.484375 0 
z
" id="DejaVuSans-118"/>
       <path d="M 34.28125 27.484375 
Q 23.390625 27.484375 19.1875 25 
Q 14.984375 22.515625 14.984375 16.5 
Q 14.984375 11.71875 18.140625 8.90625 
Q 21.296875 6.109375 26.703125 6.109375 
Q 34.1875 6.109375 38.703125 11.40625 
Q 43.21875 16.703125 43.21875 25.484375 
L 43.21875 27.484375 
z
M 52.203125 31.203125 
L 52.203125 0 
L 43.21875 0 
L 43.21875 8.296875 
Q 40.140625 3.328125 35.546875 0.953125 
Q 30.953125 -1.421875 24.3125 -1.421875 
Q 15.921875 -1.421875 10.953125 3.296875 
Q 6 8.015625 6 15.921875 
Q 6 25.140625 12.171875 29.828125 
Q 18.359375 34.515625 30.609375 34.515625 
L 43.21875 34.515625 
L 43.21875 35.40625 
Q 43.21875 41.609375 39.140625 45 
Q 35.0625 48.390625 27.6875 48.390625 
Q 23 48.390625 18.546875 47.265625 
Q 14.109375 46.140625 10.015625 43.890625 
L 10.015625 52.203125 
Q 14.9375 54.109375 19.578125 55.046875 
Q 24.21875 56 28.609375 56 
Q 40.484375 56 46.34375 49.84375 
Q 52.203125 43.703125 52.203125 31.203125 
z
" id="DejaVuSans-97"/>
       <path d="M 44.28125 53.078125 
L 44.28125 44.578125 
Q 40.484375 46.53125 36.375 47.5 
Q 32.28125 48.484375 27.875 48.484375 
Q 21.1875 48.484375 17.84375 46.4375 
Q 14.5 44.390625 14.5 40.28125 
Q 14.5 37.15625 16.890625 35.375 
Q 19.28125 33.59375 26.515625 31.984375 
L 29.59375 31.296875 
Q 39.15625 29.25 43.1875 25.515625 
Q 47.21875 21.78125 47.21875 15.09375 
Q 47.21875 7.46875 41.1875 3.015625 
Q 35.15625 -1.421875 24.609375 -1.421875 
Q 20.21875 -1.421875 15.453125 -0.5625 
Q 10.6875 0.296875 5.421875 2 
L 5.421875 11.28125 
Q 10.40625 8.6875 15.234375 7.390625 
Q 20.0625 6.109375 24.8125 6.109375 
Q 31.15625 6.109375 34.5625 8.28125 
Q 37.984375 10.453125 37.984375 14.40625 
Q 37.984375 18.0625 35.515625 20.015625 
Q 33.0625 21.96875 24.703125 23.78125 
L 21.578125 24.515625 
Q 13.234375 26.265625 9.515625 29.90625 
Q 5.8125 33.546875 5.8125 39.890625 
Q 5.8125 47.609375 11.28125 51.796875 
Q 16.75 56 26.8125 56 
Q 31.78125 56 36.171875 55.265625 
Q 40.578125 54.546875 44.28125 53.078125 
z
" id="DejaVuSans-115"/>
       <path d="M 41.109375 46.296875 
Q 39.59375 47.171875 37.8125 47.578125 
Q 36.03125 48 33.890625 48 
Q 26.265625 48 22.1875 43.046875 
Q 18.109375 38.09375 18.109375 28.8125 
L 18.109375 0 
L 9.078125 0 
L 9.078125 54.6875 
L 18.109375 54.6875 
L 18.109375 46.1875 
Q 20.953125 51.171875 25.484375 53.578125 
Q 30.03125 56 36.53125 56 
Q 37.453125 56 38.578125 55.875 
Q 39.703125 55.765625 41.0625 55.515625 
z
" id="DejaVuSans-114"/>
       <path d="M 18.3125 70.21875 
L 18.3125 54.6875 
L 36.8125 54.6875 
L 36.8125 47.703125 
L 18.3125 47.703125 
L 18.3125 18.015625 
Q 18.3125 11.328125 20.140625 9.421875 
Q 21.96875 7.515625 27.59375 7.515625 
L 36.8125 7.515625 
L 36.8125 0 
L 27.59375 0 
Q 17.1875 0 13.234375 3.875 
Q 9.28125 7.765625 9.28125 18.015625 
L 9.28125 47.703125 
L 2.6875 47.703125 
L 2.6875 54.6875 
L 9.28125 54.6875 
L 9.28125 70.21875 
z
" id="DejaVuSans-116"/>
       <path d="M 9.421875 54.6875 
L 18.40625 54.6875 
L 18.40625 0 
L 9.421875 0 
z
M 9.421875 75.984375 
L 18.40625 75.984375 
L 18.40625 64.59375 
L 9.421875 64.59375 
z
" id="DejaVuSans-105"/>
      </defs>
      <use xlink:href="#DejaVuSans-108"/>
      <use x="27.783203" xlink:href="#DejaVuSans-111"/>
      <use x="88.964844" xlink:href="#DejaVuSans-103"/>
      <use x="152.441406" xlink:href="#DejaVuSans-49"/>
      <use x="216.064453" xlink:href="#DejaVuSans-48"/>
      <use x="279.6875" xlink:href="#DejaVuSans-32"/>
      <use x="311.474609" xlink:href="#DejaVuSans-111"/>
      <use x="372.65625" xlink:href="#DejaVuSans-102"/>
      <use x="407.861328" xlink:href="#DejaVuSans-32"/>
      <use x="439.648438" xlink:href="#DejaVuSans-70"/>
      <use x="497.167969" xlink:href="#DejaVuSans-69"/>
      <use x="560.351562" xlink:href="#DejaVuSans-118"/>
      <use x="619.53125" xlink:href="#DejaVuSans-97"/>
      <use x="680.810547" xlink:href="#DejaVuSans-108"/>
      <use x="708.59375" xlink:href="#DejaVuSans-115"/>
      <use x="760.693359" xlink:href="#DejaVuSans-32"/>
      <use x="792.480469" xlink:href="#DejaVuSans-114"/>
      <use x="833.59375" xlink:href="#DejaVuSans-97"/>
      <use x="894.873047" xlink:href="#DejaVuSans-116"/>
      <use x="934.082031" xlink:href="#DejaVuSans-105"/>
      <use x="961.865234" xlink:href="#DejaVuSans-111"/>
     </g>
    </g>
   </g>
   <g id="matplotlib.axis_2">
    <g id="ytick_1">
     <g id="line2d_52">
      <path clip-path="url(#p11d37c24ce)" d="M 34.16 288.453725 
L 453.192 288.453725 
" style="fill:none;stroke:#b0b0b0;stroke-linecap:square;stroke-width:0.8;"/>
     </g>
     <g id="line2d_53">
      <defs>
       <path d="M 0 0 
L -3.5 0 
" id="m96103745a4" style="stroke:#000000;stroke-width:0.8;"/>
      </defs>
      <g>
       <use style="stroke:#000000;stroke-width:0.8;" x="34.16" xlink:href="#m96103745a4" y="288.453725"/>
      </g>
     </g>
    </g>
    <g id="ytick_2">
     <g id="line2d_54">
      <path clip-path="url(#p11d37c24ce)" d="M 34.16 217.796863 
L 453.192 217.796863 
" style="fill:none;stroke:#b0b0b0;stroke-linecap:square;stroke-width:0.8;"/>
     </g>
     <g id="line2d_55">
      <g>
       <use style="stroke:#000000;stroke-width:0.8;" x="34.16" xlink:href="#m96103745a4" y="217.796863"/>
      </g>
     </g>
    </g>
    <g id="ytick_3">
     <g id="line2d_56">
      <path clip-path="url(#p11d37c24ce)" d="M 34.16 147.14 
L 453.192 147.14 
" style="fill:none;stroke:#b0b0b0;stroke-linecap:square;stroke-width:0.8;"/>
     </g>
     <g id="line2d_57">
      <g>
       <use style="stroke:#000000;stroke-width:0.8;" x="34.16" xlink:href="#m96103745a4" y="147.14"/>
      </g>
     </g>
    </g>
    <g id="ytick_4">
     <g id="line2d_58">
      <path clip-path="url(#p11d37c24ce)" d="M 34.16 76.483137 
L 453.192 76.483137 
" style="fill:none;stroke:#b0b0b0;stroke-linecap:square;stroke-width:0.8;"/>
     </g>
     <g id="line2d_59">
      <g>
       <use style="stroke:#000000;stroke-width:0.8;" x="34.16" xlink:href="#m96103745a4" y="76.483137"/>
      </g>
     </g>
    </g>
    <g id="ytick_5">
     <g id="line2d_60">
      <path clip-path="url(#p11d37c24ce)" d="M 34.16 5.826275 
L 453.192 5.826275 
" style="fill:none;stroke:#b0b0b0;stroke-linecap:square;stroke-width:0.8;"/>
     </g>
     <g id="line2d_61">
      <g>
       <use style="stroke:#000000;stroke-width:0.8;" x="34.16" xlink:href="#m96103745a4" y="5.826275"/>
      </g>
     </g>
    </g>
    <g id="text_4">
     <!-- proportion of trials -->
     <g transform="translate(19.000625 240.14625)rotate(-90)scale(0.2 -0.2)">
      <defs>
       <path d="M 18.109375 8.203125 
L 18.109375 -20.796875 
L 9.078125 -20.796875 
L 9.078125 54.6875 
L 18.109375 54.6875 
L 18.109375 46.390625 
Q 20.953125 51.265625 25.265625 53.625 
Q 29.59375 56 35.59375 56 
Q 45.5625 56 51.78125 48.09375 
Q 58.015625 40.1875 58.015625 27.296875 
Q 58.015625 14.40625 51.78125 6.484375 
Q 45.5625 -1.421875 35.59375 -1.421875 
Q 29.59375 -1.421875 25.265625 0.953125 
Q 20.953125 3.328125 18.109375 8.203125 
z
M 48.6875 27.296875 
Q 48.6875 37.203125 44.609375 42.84375 
Q 40.53125 48.484375 33.40625 48.484375 
Q 26.265625 48.484375 22.1875 42.84375 
Q 18.109375 37.203125 18.109375 27.296875 
Q 18.109375 17.390625 22.1875 11.75 
Q 26.265625 6.109375 33.40625 6.109375 
Q 40.53125 6.109375 44.609375 11.75 
Q 48.6875 17.390625 48.6875 27.296875 
z
" id="DejaVuSans-112"/>
       <path d="M 54.890625 33.015625 
L 54.890625 0 
L 45.90625 0 
L 45.90625 32.71875 
Q 45.90625 40.484375 42.875 44.328125 
Q 39.84375 48.1875 33.796875 48.1875 
Q 26.515625 48.1875 22.3125 43.546875 
Q 18.109375 38.921875 18.109375 30.90625 
L 18.109375 0 
L 9.078125 0 
L 9.078125 54.6875 
L 18.109375 54.6875 
L 18.109375 46.1875 
Q 21.34375 51.125 25.703125 53.5625 
Q 30.078125 56 35.796875 56 
Q 45.21875 56 50.046875 50.171875 
Q 54.890625 44.34375 54.890625 33.015625 
z
" id="DejaVuSans-110"/>
      </defs>
      <use xlink:href="#DejaVuSans-112"/>
      <use x="63.476562" xlink:href="#DejaVuSans-114"/>
      <use x="102.339844" xlink:href="#DejaVuSans-111"/>
      <use x="163.521484" xlink:href="#DejaVuSans-112"/>
      <use x="226.998047" xlink:href="#DejaVuSans-111"/>
      <use x="288.179688" xlink:href="#DejaVuSans-114"/>
      <use x="329.292969" xlink:href="#DejaVuSans-116"/>
      <use x="368.501953" xlink:href="#DejaVuSans-105"/>
      <use x="396.285156" xlink:href="#DejaVuSans-111"/>
      <use x="457.466797" xlink:href="#DejaVuSans-110"/>
      <use x="520.845703" xlink:href="#DejaVuSans-32"/>
      <use x="552.632812" xlink:href="#DejaVuSans-111"/>
      <use x="613.814453" xlink:href="#DejaVuSans-102"/>
      <use x="649.019531" xlink:href="#DejaVuSans-32"/>
      <use x="680.806641" xlink:href="#DejaVuSans-116"/>
      <use x="720.015625" xlink:href="#DejaVuSans-114"/>
      <use x="761.128906" xlink:href="#DejaVuSans-105"/>
      <use x="788.912109" xlink:href="#DejaVuSans-97"/>
      <use x="850.191406" xlink:href="#DejaVuSans-108"/>
      <use x="877.974609" xlink:href="#DejaVuSans-115"/>
     </g>
    </g>
   </g>
   <g id="line2d_62">
    <path clip-path="url(#p11d37c24ce)" d="M 34.16 288.453725 
L 71.177539 288.453725 
L 71.177539 288.202501 
L 75.683585 288.202501 
L 75.683585 287.951277 
L 79.617607 287.951277 
L 79.617607 287.700052 
L 80.494155 287.700052 
L 80.494155 287.448828 
L 81.765308 287.448828 
L 81.765308 287.197603 
L 83.83683 287.197603 
L 83.83683 286.946379 
L 84.34527 286.946379 
L 84.34527 286.695155 
L 85.293389 286.695155 
L 85.293389 286.44393 
L 86.246354 286.44393 
L 86.246354 286.192706 
L 97.759098 286.192706 
L 97.759098 285.941481 
L 98.430379 285.941481 
L 98.430379 285.690257 
L 100.38305 285.690257 
L 100.38305 285.439033 
L 104.762128 285.439033 
L 104.762128 285.187808 
L 107.459839 285.187808 
L 107.459839 284.936584 
L 113.218876 284.936584 
L 113.218876 284.685359 
L 113.714718 284.685359 
L 113.714718 284.434135 
L 114.434582 284.434135 
L 114.434582 284.182911 
L 114.685474 284.182911 
L 114.685474 283.931686 
L 119.48007 283.931686 
L 119.48007 283.680462 
L 120.061191 283.680462 
L 120.061191 283.429237 
L 121.078721 283.429237 
L 121.078721 283.178013 
L 121.643047 283.178013 
L 121.643047 282.675564 
L 122.459038 282.675564 
L 122.459038 282.42434 
L 123.911336 282.42434 
L 123.911336 282.173115 
L 125.071326 282.173115 
L 125.071326 281.921891 
L 128.828634 281.921891 
L 128.828634 281.670667 
L 130.099787 281.670667 
L 130.099787 281.419442 
L 132.171309 281.419442 
L 132.171309 281.168218 
L 132.679749 281.168218 
L 132.679749 280.916993 
L 133.033672 280.916993 
L 133.033672 280.665769 
L 133.329349 280.665769 
L 133.329349 280.414545 
L 133.627868 280.414545 
L 133.634203 279.912096 
L 134.224315 279.912096 
L 134.224315 279.660871 
L 134.562524 279.660871 
L 134.600502 279.158423 
L 135.976465 279.158423 
L 135.976465 278.907198 
L 136.672024 278.907198 
L 136.672024 278.655974 
L 137.09457 278.655974 
L 137.180464 277.902301 
L 137.247618 277.902301 
L 137.247618 277.651076 
L 137.698693 277.651076 
L 137.698693 277.399852 
L 138.128584 277.399852 
L 138.140249 276.897403 
L 138.263156 276.897403 
L 138.263156 276.646179 
L 139.31914 276.646179 
L 139.31914 276.394954 
L 139.53431 276.394954 
L 139.53431 276.14373 
L 139.82758 276.14373 
L 139.82758 275.892505 
L 140.775699 275.892505 
L 140.775699 275.641281 
L 141.605832 275.641281 
L 141.605832 275.390057 
L 142.07427 275.390057 
L 142.114271 274.887608 
L 142.553728 274.887608 
L 142.553728 274.636383 
L 143.062391 274.636383 
L 143.062391 274.385159 
L 146.093577 274.385159 
L 146.093577 274.133935 
L 148.703018 274.133935 
L 148.728581 273.631486 
L 149.289595 273.631486 
L 149.289595 273.380261 
L 149.999734 273.380261 
L 149.999734 273.129037 
L 150.594292 273.129037 
L 150.696787 272.626588 
L 151.802555 272.626588 
L 151.856026 272.124139 
L 151.916788 272.124139 
L 151.916788 271.872915 
L 152.071257 271.872915 
L 152.071257 271.621691 
L 152.579696 271.621691 
L 152.579696 271.370466 
L 153.096607 271.370466 
L 153.187941 270.868017 
L 153.241408 270.868017 
L 153.241408 270.616793 
L 153.463839 270.616793 
L 153.527816 270.114344 
L 153.966885 270.114344 
L 153.966885 268.858222 
L 154.224577 268.858222 
L 154.224577 268.606998 
L 155.259463 268.606998 
L 155.259463 268.355773 
L 155.49573 268.355773 
L 155.5281 267.853325 
L 155.767903 267.853325 
L 155.767903 267.6021 
L 156.716022 267.6021 
L 156.716022 267.350876 
L 157.057186 267.350876 
L 157.057186 267.099651 
L 157.429164 267.099651 
L 157.429164 266.848427 
L 157.567252 266.848427 
L 157.597322 266.345978 
L 158.075691 266.345978 
L 158.075691 266.094754 
L 158.507976 266.094754 
L 158.507976 265.843529 
L 159.011021 265.843529 
L 159.023811 265.089856 
L 159.62564 265.089856 
L 159.656796 264.587407 
L 159.747593 264.587407 
L 159.747593 264.336183 
L 159.942118 264.336183 
L 159.942118 264.084959 
L 160.244438 264.084959 
L 160.244438 263.833734 
L 160.887043 263.833734 
L 160.927949 263.331285 
L 161.213271 263.331285 
L 161.213271 263.080061 
L 161.766987 263.080061 
L 161.766987 262.828837 
L 162.049198 262.828837 
L 162.101323 262.326388 
L 162.439299 262.326388 
L 162.531129 261.823939 
L 162.839714 261.823939 
L 162.839714 261.572715 
L 162.999472 261.572715 
L 162.999472 261.32149 
L 163.284793 261.32149 
L 163.284793 261.070266 
L 163.507911 261.070266 
L 163.507911 260.819041 
L 163.622638 260.819041 
L 163.622638 260.567817 
L 163.793233 260.567817 
L 163.793233 260.316593 
L 164.067092 260.316593 
L 164.067092 258.809246 
L 164.456031 258.809246 
L 164.456031 258.558022 
L 164.741353 258.558022 
L 164.79173 258.055573 
L 165.948712 258.055573 
L 165.993524 257.553124 
L 166.549913 257.553124 
L 166.651034 256.799451 
L 167.814549 256.799451 
L 167.814549 256.548227 
L 168.128684 256.548227 
L 168.128684 256.297002 
L 169.181731 256.297002 
L 169.197029 255.794553 
L 169.4132 255.794553 
L 169.4132 255.543329 
L 169.916503 255.543329 
L 169.916503 255.292105 
L 170.244381 255.292105 
L 170.244381 255.04088 
L 170.401646 255.04088 
L 170.401646 254.789656 
L 170.735409 254.789656 
L 170.735409 254.538431 
L 170.992849 254.538431 
L 171.092487 254.035983 
L 171.48372 254.035983 
L 171.48952 253.533534 
L 172.006562 253.533534 
L 172.062705 253.031085 
L 172.210151 253.031085 
L 172.315264 251.02129 
L 172.934788 251.02129 
L 172.996554 250.518841 
L 173.095583 250.518841 
L 173.095583 250.267617 
L 173.31592 250.267617 
L 173.31592 250.016392 
L 173.913916 250.016392 
L 173.913916 249.765168 
L 174.078084 249.765168 
L 174.078084 249.513943 
L 174.462544 249.513943 
L 174.462544 249.011495 
L 174.586524 249.011495 
L 174.685834 248.257821 
L 174.96238 248.257821 
L 174.96238 248.006597 
L 175.079171 248.006597 
L 175.079171 247.755373 
L 175.480249 247.755373 
L 175.534644 245.996802 
L 175.67554 245.996802 
L 175.67554 245.745577 
L 176.184761 245.745577 
L 176.184761 245.494353 
L 176.350325 245.494353 
L 176.350325 245.243129 
L 176.561031 245.243129 
L 176.651604 244.74068 
L 176.688931 244.74068 
L 176.688931 244.489455 
L 176.921739 244.489455 
L 176.921739 244.238231 
L 177.142138 244.238231 
L 177.249071 243.484558 
L 177.376241 243.484558 
L 177.376241 243.233333 
L 177.60163 243.233333 
L 177.60163 242.982109 
L 178.421847 242.982109 
L 178.49255 242.47966 
L 178.691453 242.47966 
L 178.691453 242.228436 
L 178.847723 242.228436 
L 178.942528 241.474763 
L 179.135907 241.474763 
L 179.135907 240.972314 
L 179.379338 240.972314 
L 179.379338 240.721089 
L 179.878406 240.721089 
L 179.878406 240.469865 
L 180.420755 240.469865 
L 180.524385 239.716192 
L 181.139004 239.716192 
L 181.194977 237.957621 
L 181.691908 237.957621 
L 181.753622 237.455172 
L 181.949145 237.455172 
L 181.949145 237.203948 
L 182.558794 237.203948 
L 182.630333 236.450275 
L 182.763052 236.450275 
L 182.763052 236.19905 
L 182.897003 236.19905 
L 182.897003 235.947826 
L 183.069928 235.947826 
L 183.069928 235.696601 
L 183.280351 235.696601 
L 183.280351 234.189255 
L 183.57736 234.189255 
L 183.57736 233.938031 
L 183.76343 233.938031 
L 183.847749 233.435582 
L 183.885384 233.435582 
L 183.952664 232.681908 
L 184.210091 232.681908 
L 184.27187 232.17946 
L 184.794662 232.17946 
L 184.794662 231.928235 
L 184.915702 231.928235 
L 185.026655 231.425786 
L 185.137352 231.425786 
L 185.21999 230.923338 
L 185.580457 230.923338 
L 185.580457 230.672113 
L 185.880336 230.672113 
L 185.919271 229.91844 
L 186.033173 229.91844 
L 186.033173 229.667216 
L 186.368 229.667216 
L 186.42771 229.164767 
L 186.797759 229.164767 
L 186.797759 228.913542 
L 187.05951 228.913542 
L 187.05951 228.662318 
L 187.266844 228.662318 
L 187.37583 228.159869 
L 187.397719 228.159869 
L 187.44514 227.65742 
L 187.714496 227.65742 
L 187.807188 226.903747 
L 188.000352 226.903747 
L 188.06476 224.642728 
L 188.256942 224.642728 
L 188.256942 224.391503 
L 188.620003 224.391503 
L 188.620003 224.140279 
L 188.991313 224.140279 
L 188.991313 223.889054 
L 189.313148 223.889054 
L 189.313148 223.63783 
L 189.519154 223.63783 
L 189.519154 223.386606 
L 189.698676 223.386606 
L 189.785147 222.632932 
L 189.838799 222.632932 
L 189.838799 222.130484 
L 190.044834 222.130484 
L 190.086503 221.628035 
L 190.386382 221.628035 
L 190.386382 221.37681 
L 190.533888 221.37681 
L 190.533888 221.125586 
L 190.875478 221.125586 
L 190.902703 220.623137 
L 191.003871 220.623137 
L 191.003871 220.371913 
L 191.31041 220.371913 
L 191.334858 219.115791 
L 191.52704 219.115791 
L 191.52704 218.864566 
L 191.772891 218.864566 
L 191.772891 218.613342 
L 191.91501 218.613342 
L 191.993317 218.110893 
L 192.084205 218.110893 
L 192.084205 217.859669 
L 192.249175 217.859669 
L 192.344115 217.105996 
L 192.409574 217.105996 
L 192.506213 215.849874 
L 192.828149 215.849874 
L 192.87736 215.347425 
L 193.108897 215.347425 
L 193.210491 213.840078 
L 193.267077 213.840078 
L 193.267077 213.588854 
L 193.530136 213.588854 
L 193.530136 213.33763 
L 193.723515 213.33763 
L 193.723515 211.07661 
L 194.03545 211.07661 
L 194.03545 210.825386 
L 194.320403 210.825386 
L 194.320403 210.574161 
L 194.809143 210.574161 
L 194.809143 210.322937 
L 194.940817 210.322937 
L 195.003382 209.820488 
L 195.411756 209.820488 
L 195.467695 209.318039 
L 195.564015 209.318039 
L 195.564015 208.81559 
L 195.677552 208.81559 
L 195.706912 208.313142 
L 195.864862 208.313142 
L 195.975908 207.05702 
L 196.183196 207.05702 
L 196.183196 206.805795 
L 196.537175 206.805795 
L 196.537175 206.554571 
L 196.993613 206.554571 
L 197.073916 205.800898 
L 197.511529 205.800898 
L 197.608232 205.298449 
L 197.624074 205.298449 
L 197.685698 204.796 
L 198.036183 204.796 
L 198.036183 204.042327 
L 198.229562 204.042327 
L 198.229562 203.791102 
L 198.367959 203.791102 
L 198.367959 203.539878 
L 198.642711 203.539878 
L 198.642711 203.288654 
L 198.928033 203.288654 
L 198.928033 203.037429 
L 199.157362 203.037429 
L 199.227471 202.283756 
L 199.347145 202.283756 
L 199.38227 201.781307 
L 199.61804 201.781307 
L 199.61804 200.77641 
L 199.834599 200.77641 
L 199.904938 200.022736 
L 200.190505 200.022736 
L 200.241363 199.520288 
L 200.3917 199.520288 
L 200.421892 199.017839 
L 200.526685 199.017839 
L 200.526685 198.766614 
L 200.649272 198.766614 
L 200.649272 197.259268 
L 200.94915 197.259268 
L 200.94915 197.008044 
L 201.138057 197.008044 
L 201.229423 196.505595 
L 201.251955 196.505595 
L 201.251955 196.25437 
L 201.385367 196.25437 
L 201.385367 196.003146 
L 201.847769 196.003146 
L 201.882701 195.249473 
L 201.970204 195.249473 
L 201.970204 194.998248 
L 202.124789 194.998248 
L 202.178508 194.244575 
L 202.335659 194.244575 
L 202.394796 193.742126 
L 202.458742 193.742126 
L 202.458742 193.490902 
L 202.652368 193.490902 
L 202.700525 192.988453 
L 202.796951 192.988453 
L 202.811943 192.486004 
L 202.949377 192.486004 
L 203.046318 191.229882 
L 203.733517 191.229882 
L 203.835371 190.727434 
L 203.919369 190.727434 
L 203.955973 189.97376 
L 204.282382 189.97376 
L 204.282382 189.471312 
L 204.499521 189.471312 
L 204.569078 188.968863 
L 204.688728 188.968863 
L 204.771905 187.963965 
L 205.290321 187.963965 
L 205.290321 187.461516 
L 205.461208 187.461516 
L 205.461208 187.210292 
L 205.644103 187.210292 
L 205.693408 186.205394 
L 205.891413 186.205394 
L 205.985157 185.451721 
L 206.020413 185.451721 
L 206.020413 185.200497 
L 206.308026 185.200497 
L 206.361585 184.698048 
L 206.619961 184.698048 
L 206.619961 184.446824 
L 206.796812 184.446824 
L 206.900843 183.441926 
L 207.043065 183.441926 
L 207.130573 182.185804 
L 207.338336 182.185804 
L 207.338336 181.93458 
L 207.667538 181.93458 
L 207.710661 181.180906 
L 207.954737 181.180906 
L 208.048888 180.427233 
L 208.091935 180.427233 
L 208.091935 180.176009 
L 208.292946 180.176009 
L 208.384238 179.422336 
L 208.560419 179.422336 
L 208.623058 178.166214 
L 208.79233 178.166214 
L 208.79233 177.914989 
L 209.121327 177.914989 
L 209.121327 177.663765 
L 209.377884 177.663765 
L 209.377884 177.41254 
L 209.548495 177.41254 
L 209.625028 175.653969 
L 209.721324 175.653969 
L 209.721324 175.402745 
L 210.471344 175.402745 
L 210.546793 174.900296 
L 210.795426 174.900296 
L 210.795426 174.649072 
L 210.912161 174.649072 
L 211.008664 173.895399 
L 211.092436 173.895399 
L 211.092436 173.141725 
L 211.302858 173.141725 
L 211.319976 172.639277 
L 211.429115 172.639277 
L 211.459744 172.136828 
L 211.719472 172.136828 
L 211.719472 171.634379 
L 211.988194 171.634379 
L 211.988194 171.383155 
L 212.113184 171.383155 
L 212.202551 170.629481 
L 212.445136 170.629481 
L 212.518758 169.875808 
L 212.638456 169.875808 
L 212.638456 169.624584 
L 212.848222 169.624584 
L 212.848222 168.619686 
L 212.971231 168.619686 
L 212.971231 168.368462 
L 213.129104 168.368462 
L 213.133176 167.866013 
L 213.316439 167.866013 
L 213.386957 167.363564 
L 213.570051 167.363564 
L 213.672279 166.358667 
L 213.725166 166.358667 
L 213.725166 166.107442 
L 214.010488 166.107442 
L 214.100615 165.102545 
L 214.296285 165.102545 
L 214.362534 163.846423 
L 214.519684 163.846423 
L 214.519684 163.595198 
L 214.904136 163.595198 
L 214.995968 163.092749 
L 215.069562 163.092749 
L 215.156368 161.585403 
L 215.236879 161.585403 
L 215.236879 159.324383 
L 215.661638 159.324383 
L 215.673007 158.57071 
L 215.797159 158.57071 
L 215.797159 158.319486 
L 216.206872 158.319486 
L 216.206872 158.068261 
L 216.356435 158.068261 
L 216.356435 157.817037 
L 216.472355 157.817037 
L 216.503881 156.812139 
L 216.671198 156.812139 
L 216.671198 156.560915 
L 216.861335 156.560915 
L 216.948639 156.058466 
L 216.998329 156.058466 
L 216.998329 155.807242 
L 217.146657 155.807242 
L 217.239976 154.802344 
L 217.524021 154.802344 
L 217.528893 154.299895 
L 218.137796 154.299895 
L 218.231312 153.797447 
L 218.265065 153.797447 
L 218.265065 153.546222 
L 218.43369 153.546222 
L 218.506977 153.043773 
L 218.710501 153.043773 
L 218.710501 152.792549 
L 219.40667 152.792549 
L 219.40667 152.541325 
L 219.627576 152.541325 
L 219.733905 151.787651 
L 219.846922 151.787651 
L 219.846922 151.285203 
L 220.021289 151.285203 
L 220.090453 150.280305 
L 220.373988 150.280305 
L 220.373988 150.029081 
L 220.55413 150.029081 
L 220.55413 149.777856 
L 220.712228 149.777856 
L 220.782976 149.024183 
L 220.976355 149.024183 
L 221.005322 148.521734 
L 221.383418 148.521734 
L 221.383418 148.27051 
L 221.56251 148.27051 
L 221.56251 148.019285 
L 221.746022 148.019285 
L 221.824659 147.516837 
L 221.862757 147.516837 
L 221.865627 147.014388 
L 222.014203 147.014388 
L 222.014203 146.763163 
L 222.162636 146.763163 
L 222.162636 139.477656 
L 222.364833 139.477656 
L 222.460595 138.723983 
L 222.494588 138.723983 
L 222.494588 138.221534 
L 222.735647 138.221534 
L 222.735647 137.970309 
L 222.929026 137.970309 
L 223.020017 137.467861 
L 223.161162 137.467861 
L 223.161162 137.216636 
L 223.2752 137.216636 
L 223.278659 136.714187 
L 223.549144 136.714187 
L 223.549144 136.462963 
L 223.754637 136.462963 
L 223.853798 135.70929 
L 224.025428 135.70929 
L 224.025428 135.458065 
L 224.165732 135.458065 
L 224.165732 135.206841 
L 224.46557 135.206841 
L 224.515066 134.704392 
L 224.646939 134.704392 
L 224.646939 134.453168 
L 224.803779 134.453168 
L 224.863227 133.699495 
L 224.960676 133.699495 
L 224.960676 133.44827 
L 225.300379 133.44827 
L 225.368341 132.694597 
L 225.432734 132.694597 
L 225.491239 131.438475 
L 225.586448 131.438475 
L 225.586448 131.187251 
L 225.793112 131.187251 
L 225.793112 130.936026 
L 225.911359 130.936026 
L 225.911359 130.684802 
L 226.053943 130.684802 
L 226.053943 130.433577 
L 226.307079 130.433577 
L 226.307079 130.182353 
L 226.480311 130.182353 
L 226.480311 129.931129 
L 226.685126 129.931129 
L 226.685126 129.679904 
L 226.947045 129.679904 
L 226.947045 128.926231 
L 227.099562 128.926231 
L 227.099562 128.423782 
L 227.363658 128.423782 
L 227.43583 127.921333 
L 227.611679 127.921333 
L 227.611679 127.670109 
L 227.821391 127.670109 
L 227.921673 127.16766 
L 227.939948 127.16766 
L 227.939948 126.916436 
L 228.390897 126.916436 
L 228.452236 126.162763 
L 228.737558 126.162763 
L 228.809332 125.409089 
L 228.868056 125.409089 
L 228.868056 125.157865 
L 229.017233 125.157865 
L 229.088392 124.152967 
L 229.147541 124.152967 
L 229.171048 123.650519 
L 229.308181 123.650519 
L 229.388271 122.143172 
L 229.552137 122.143172 
L 229.552137 121.640723 
L 229.741831 121.640723 
L 229.812436 120.635826 
L 230.005815 120.635826 
L 230.005815 120.384601 
L 230.164936 120.384601 
L 230.164936 119.882153 
L 230.343568 119.882153 
L 230.343568 119.630928 
L 230.716185 119.630928 
L 230.77478 119.128479 
L 230.99495 119.128479 
L 231.091489 114.60644 
L 231.237546 114.60644 
L 231.30399 113.852767 
L 231.744928 113.852767 
L 231.744928 113.350318 
L 231.897696 113.350318 
L 231.941877 110.838074 
L 232.143699 110.838074 
L 232.143699 110.335625 
L 232.28371 110.335625 
L 232.28371 110.084401 
L 232.461403 110.084401 
L 232.461403 109.833176 
L 232.576807 109.833176 
L 232.6058 108.577054 
L 233.755458 108.577054 
L 233.755458 108.32583 
L 234.049652 108.32583 
L 234.150916 107.823381 
L 234.489125 107.823381 
L 234.505611 107.320932 
L 234.747147 107.320932 
L 234.747147 105.813586 
L 234.945469 105.813586 
L 234.945469 105.562362 
L 235.15181 105.562362 
L 235.15181 105.311137 
L 235.298444 105.311137 
L 235.298444 104.808688 
L 235.509771 104.808688 
L 235.597535 104.055015 
L 235.764852 104.055015 
L 235.875898 103.552566 
L 236.002323 103.552566 
L 236.005085 103.050118 
L 236.228597 103.050118 
L 236.339149 101.793996 
L 236.606219 101.793996 
L 236.644965 100.537874 
L 236.750244 100.537874 
L 236.750244 100.286649 
L 237.038072 100.286649 
L 237.038072 100.035425 
L 237.161834 100.035425 
L 237.231451 99.532976 
L 237.420357 99.532976 
L 237.420357 99.281752 
L 237.625294 99.281752 
L 237.667667 98.779303 
L 237.816356 98.779303 
L 237.816356 98.276854 
L 237.969824 98.276854 
L 237.969824 98.02563 
L 238.342245 98.02563 
L 238.342245 97.774405 
L 238.548343 97.774405 
L 238.614133 97.271956 
L 238.677096 97.271956 
L 238.677096 97.020732 
L 239.011658 97.020732 
L 239.024627 96.518283 
L 239.366902 96.518283 
L 239.366902 95.513386 
L 239.530849 95.513386 
L 239.530849 95.262161 
L 239.708407 95.262161 
L 239.781134 94.508488 
L 240.000642 94.508488 
L 240.000642 94.257264 
L 240.286757 94.257264 
L 240.286757 93.754815 
L 240.476926 93.754815 
L 240.476926 93.50359 
L 241.268808 93.50359 
L 241.352929 93.001142 
L 242.097281 93.001142 
L 242.097281 92.749917 
L 242.504645 92.749917 
L 242.504645 92.498693 
L 242.735406 92.498693 
L 242.735406 92.247468 
L 242.848292 92.247468 
L 242.945679 91.74502 
L 243.022561 91.74502 
L 243.079112 91.242571 
L 243.179394 91.242571 
L 243.179394 90.991346 
L 243.676 90.991346 
L 243.735175 87.474205 
L 243.874612 87.474205 
L 243.978805 86.720532 
L 244.645992 86.720532 
L 244.72821 85.966858 
L 244.811635 85.966858 
L 244.905358 85.46441 
L 245.005014 85.46441 
L 245.005014 85.213185 
L 245.333826 85.213185 
L 245.333826 84.961961 
L 245.893888 84.961961 
L 245.893888 83.957063 
L 246.263934 83.957063 
L 246.263934 83.705839 
L 246.424452 83.705839 
L 246.521095 81.947268 
L 246.731307 81.947268 
L 246.731307 81.444819 
L 247.530525 81.444819 
L 247.530525 81.193595 
L 248.028329 81.193595 
L 248.028329 80.691146 
L 248.838149 80.691146 
L 248.838149 80.439922 
L 249.216195 80.439922 
L 249.216195 80.188697 
L 249.574426 80.188697 
L 249.574426 79.937473 
L 250.08011 79.937473 
L 250.120549 79.435024 
L 250.273317 79.435024 
L 250.304747 78.932575 
L 250.508969 78.932575 
L 250.601756 77.174004 
L 250.733549 77.174004 
L 250.750379 76.420331 
L 251.237353 76.420331 
L 251.237353 75.917882 
L 251.372036 75.917882 
L 251.372036 75.666658 
L 251.759808 75.666658 
L 251.782627 75.164209 
L 251.961268 75.164209 
L 251.975818 74.66176 
L 252.170759 74.66176 
L 252.170759 73.656863 
L 252.419555 73.656863 
L 252.419555 73.405638 
L 252.832233 73.405638 
L 252.832233 73.154414 
L 253.460535 73.154414 
L 253.55992 72.149516 
L 253.758786 72.149516 
L 253.758786 71.898292 
L 253.871854 71.898292 
L 253.938467 71.395843 
L 254.119164 71.395843 
L 254.213359 69.637272 
L 254.68867 69.637272 
L 254.68867 68.38115 
L 256.260511 68.38115 
L 256.260511 68.129926 
L 256.641341 68.129926 
L 256.641341 67.878702 
L 257.061516 67.878702 
L 257.157839 67.376253 
L 257.330867 67.376253 
L 257.330867 67.125028 
L 257.98807 67.125028 
L 258.07831 66.62258 
L 258.167269 66.62258 
L 258.263608 65.868906 
L 258.396261 65.868906 
L 258.47942 65.366458 
L 258.662379 65.366458 
L 258.662379 64.864009 
L 258.817629 64.864009 
L 258.817629 64.612784 
L 259.530609 64.612784 
L 259.530609 63.356662 
L 260.810676 63.356662 
L 260.810676 62.854214 
L 261.044921 62.854214 
L 261.044921 60.593194 
L 261.533706 60.593194 
L 261.533706 60.341969 
L 261.758451 60.341969 
L 261.758451 60.090745 
L 261.953799 60.090745 
L 261.953799 59.839521 
L 262.375704 59.839521 
L 262.375704 59.588296 
L 263.468977 59.588296 
L 263.468977 59.337072 
L 263.711122 59.337072 
L 263.71813 58.834623 
L 264.39553 58.834623 
L 264.39553 58.583399 
L 264.900644 58.583399 
L 264.900644 57.578501 
L 265.189364 57.578501 
L 265.189364 55.317481 
L 265.719928 55.317481 
L 265.719928 54.815033 
L 266.604988 54.815033 
L 266.604988 54.563808 
L 267.192461 54.563808 
L 267.192461 54.312584 
L 267.373789 54.312584 
L 267.373789 54.061359 
L 268.027228 54.061359 
L 268.027228 53.558911 
L 269.199738 53.558911 
L 269.199738 52.554013 
L 269.333808 52.554013 
L 269.333808 52.302789 
L 269.477167 52.302789 
L 269.477167 52.051564 
L 269.973773 52.051564 
L 269.973773 50.544218 
L 270.787911 50.544218 
L 270.787911 50.292993 
L 270.943766 50.292993 
L 270.943766 50.041769 
L 272.115121 50.041769 
L 272.115121 48.785647 
L 273.003457 48.785647 
L 273.012448 48.283198 
L 273.5447 48.283198 
L 273.5447 48.031974 
L 274.118217 48.031974 
L 274.118217 47.278301 
L 274.624545 47.278301 
L 274.624545 47.027076 
L 276.111132 47.027076 
L 276.111132 46.775852 
L 276.227217 46.775852 
L 276.227217 46.524627 
L 276.546948 46.524627 
L 276.546948 46.273403 
L 276.880656 46.273403 
L 276.880656 45.770954 
L 277.773876 45.770954 
L 277.773876 45.51973 
L 278.013546 45.51973 
L 278.013546 45.268505 
L 278.717329 45.268505 
L 278.717329 45.017281 
L 279.776972 45.017281 
L 279.776972 44.766057 
L 280.169628 44.766057 
L 280.169628 44.514832 
L 280.456501 44.514832 
L 280.456501 44.263608 
L 281.10994 44.263608 
L 281.10994 43.761159 
L 281.964253 43.761159 
L 281.964253 43.509935 
L 282.558285 43.509935 
L 282.558285 42.756261 
L 283.013607 42.756261 
L 283.013607 42.253813 
L 283.44897 42.253813 
L 283.477973 41.751364 
L 285.78711 41.751364 
L 285.78711 41.500139 
L 286.702728 41.500139 
L 286.702728 41.248915 
L 286.863961 41.248915 
L 286.863961 40.997691 
L 287.239409 40.997691 
L 287.239409 40.746466 
L 287.517401 40.746466 
L 287.517401 40.244017 
L 287.707257 40.244017 
L 287.707257 39.992793 
L 288.384696 39.992793 
L 288.384696 39.741569 
L 291.867035 39.741569 
L 291.867035 39.23912 
L 292.971476 39.23912 
L 292.971476 38.987895 
L 293.347785 38.987895 
L 293.347785 38.736671 
L 293.628485 38.736671 
L 293.628485 37.480549 
L 294.114718 37.480549 
L 294.114718 37.229325 
L 294.456193 37.229325 
L 294.456193 36.9781 
L 295.631581 36.9781 
L 295.631581 36.726876 
L 296.096319 36.726876 
L 296.096319 36.224427 
L 296.941132 36.224427 
L 296.941132 35.973203 
L 299.391919 35.973203 
L 299.391919 35.721978 
L 299.631539 35.721978 
L 299.631539 35.470754 
L 300.137628 35.470754 
L 300.137628 35.219529 
L 301.290336 35.219529 
L 301.290336 34.968305 
L 302.503779 34.968305 
L 302.503779 34.465856 
L 302.942898 34.465856 
L 302.991892 33.460959 
L 304.071649 33.460959 
L 304.071649 32.456061 
L 304.221951 32.456061 
L 304.221951 32.204837 
L 305.608459 32.204837 
L 305.706668 31.702388 
L 305.832658 31.702388 
L 305.832658 31.451163 
L 306.084743 31.451163 
L 306.084743 31.199939 
L 306.212996 31.199939 
L 306.212996 30.446266 
L 307.093177 30.446266 
L 307.093177 30.195041 
L 307.569461 30.195041 
L 307.569461 29.943817 
L 308.216093 29.943817 
L 308.216093 28.938919 
L 310.097713 28.938919 
L 310.097713 28.185246 
L 310.642394 28.185246 
L 310.700396 27.682797 
L 311.871751 27.682797 
L 311.871751 27.431573 
L 312.028902 27.431573 
L 312.06513 26.929124 
L 312.505186 26.929124 
L 312.505186 26.6779 
L 312.722139 26.6779 
L 312.722139 25.170553 
L 313.356469 25.170553 
L 313.356469 24.919329 
L 313.549848 24.919329 
L 313.549848 24.668105 
L 313.999115 24.668105 
L 313.999115 24.41688 
L 317.144946 24.41688 
L 317.144946 23.914431 
L 317.386482 23.914431 
L 317.386482 23.160758 
L 317.569086 23.160758 
L 317.569086 22.909534 
L 318.292194 22.909534 
L 318.292194 22.658309 
L 318.485573 22.658309 
L 318.485573 22.407085 
L 319.053803 22.407085 
L 319.053803 22.155861 
L 319.479672 22.155861 
L 319.479672 21.904636 
L 320.147165 21.904636 
L 320.147165 21.150963 
L 320.964389 21.150963 
L 320.964389 20.899739 
L 321.637568 20.899739 
L 321.637568 20.648514 
L 322.646997 20.648514 
L 322.646997 20.39729 
L 322.884422 20.39729 
L 322.884422 20.146065 
L 323.989529 20.146065 
L 323.989529 19.894841 
L 324.837092 19.894841 
L 324.837092 19.643617 
L 325.138427 19.643617 
L 325.138427 19.392392 
L 325.249589 19.392392 
L 325.249589 19.141168 
L 325.900115 19.141168 
L 325.900115 18.889943 
L 326.623144 18.889943 
L 326.67415 17.633821 
L 327.112382 17.633821 
L 327.204714 16.628924 
L 327.948706 16.628924 
L 327.948706 16.377699 
L 328.875259 16.377699 
L 328.875259 16.126475 
L 329.729457 16.126475 
L 329.729457 15.875251 
L 331.55887 15.875251 
L 331.55887 15.624026 
L 331.913882 15.624026 
L 331.913882 15.372802 
L 332.89939 15.372802 
L 332.951021 14.367904 
L 333.092769 14.367904 
L 333.092769 14.11668 
L 335.468933 14.11668 
L 335.468933 13.363007 
L 337.492177 13.363007 
L 337.492177 13.111782 
L 337.672918 13.111782 
L 337.672918 12.860558 
L 338.596724 12.860558 
L 338.596724 12.609333 
L 339.139517 12.609333 
L 339.139517 12.358109 
L 340.507311 12.358109 
L 340.507311 12.106885 
L 345.680906 12.106885 
L 345.777445 11.101987 
L 346.166066 11.101987 
L 346.166066 10.850763 
L 346.91308 10.850763 
L 346.91308 10.599538 
L 347.262163 10.599538 
L 347.262163 10.348314 
L 348.365379 10.348314 
L 348.365379 10.097089 
L 351.242821 10.097089 
L 351.34369 9.594641 
L 351.997129 9.594641 
L 351.997129 9.092192 
L 352.197888 9.092192 
L 352.197888 8.840967 
L 352.847226 8.840967 
L 352.847226 8.589743 
L 354.331944 8.589743 
L 354.331944 8.338519 
L 358.594446 8.338519 
L 358.594446 8.087294 
L 359.267669 8.087294 
L 359.267669 7.83607 
L 366.805084 7.83607 
L 366.805084 7.584845 
L 366.983508 7.584845 
L 366.983508 7.082397 
L 373.874865 7.082397 
L 373.874865 6.831172 
L 413.973196 6.831172 
L 413.973196 6.579948 
L 415.457914 6.579948 
L 415.457914 6.328723 
L 420.393639 6.328723 
L 420.393639 6.077499 
L 435.000835 6.077499 
L 435.000835 5.826275 
L 453.192 5.826275 
L 453.192 5.826275 
" style="fill:none;stroke:#000000;stroke-linecap:square;stroke-width:3;"/>
   </g>
   <g id="line2d_63">
    <path clip-path="url(#p11d37c24ce)" style="fill:none;stroke:#000000;stroke-linecap:square;stroke-width:3;"/>
   </g>
   <g id="line2d_64">
    <path clip-path="url(#p11d37c24ce)" d="M 34.16 159.342578 
L 144.246532 159.342578 
L 144.246532 158.948946 
L 152.543894 158.948946 
L 152.543894 158.555315 
L 153.311994 158.555315 
L 153.311994 158.161683 
L 153.909914 158.161683 
L 153.909914 157.768052 
L 160.116504 157.768052 
L 160.116504 157.37442 
L 160.884604 157.37442 
L 160.884604 156.980789 
L 161.482524 156.980789 
L 161.482524 156.587157 
L 165.030677 156.587157 
L 165.030677 156.193526 
L 166.416873 156.193526 
L 166.416873 155.799894 
L 166.818028 155.799894 
L 166.818028 155.406262 
L 167.184972 155.406262 
L 167.184972 155.012631 
L 167.586127 155.012631 
L 167.599608 154.225368 
L 167.782892 154.225368 
L 167.782892 153.831736 
L 168.184047 153.831736 
L 168.184047 153.438105 
L 172.603287 153.438105 
L 172.603287 153.044473 
L 175.172218 153.044473 
L 175.172218 152.650842 
L 175.952265 152.650842 
L 175.952265 152.25721 
L 176.720364 152.25721 
L 176.720364 151.863579 
L 177.318284 151.863579 
L 177.318284 151.469947 
L 178.903656 151.469947 
L 178.903656 151.076315 
L 179.304811 151.076315 
L 179.304811 150.682684 
L 181.472586 150.682684 
L 181.472586 150.289052 
L 181.648605 150.289052 
L 181.648605 149.895421 
L 181.873741 149.895421 
L 181.873741 149.501789 
L 183.162114 149.501789 
L 183.162114 149.108158 
L 184.445533 149.108158 
L 184.445533 148.714526 
L 187.381308 148.714526 
L 187.381308 148.320895 
L 188.439048 148.320895 
L 188.439048 147.927263 
L 189.97126 147.927263 
L 189.97126 147.533632 
L 190.549064 147.533632 
L 190.549064 147.14 
L 191.007978 147.14 
L 191.007978 146.746368 
L 192.946851 146.746368 
L 192.946851 146.352737 
L 194.808422 146.352737 
L 194.809643 145.565474 
L 195.935162 145.565474 
L 196.009044 144.778211 
L 197.134372 144.778211 
L 197.134372 144.384579 
L 197.524631 144.384579 
L 197.524631 143.990948 
L 197.771179 143.990948 
L 197.771179 143.597316 
L 198.539279 143.597316 
L 198.539279 143.203685 
L 199.137199 143.203685 
L 199.137199 142.810053 
L 202.41918 142.810053 
L 202.41918 142.416421 
L 204.894192 142.416421 
L 204.894192 142.02279 
L 205.261466 142.02279 
L 205.261466 141.629158 
L 206.029566 141.629158 
L 206.029566 141.235527 
L 206.473013 141.235527 
L 206.473013 140.841895 
L 206.627486 140.841895 
L 206.627486 140.448264 
L 209.583828 140.448264 
L 209.583828 140.054632 
L 210.257962 140.054632 
L 210.257962 139.661001 
L 212.826893 139.661001 
L 212.826893 139.267369 
L 217.748249 139.267369 
L 217.748249 138.873738 
L 220.31718 138.873738 
L 220.31718 138.480106 
L 224.118383 138.480106 
L 224.118383 138.086474 
L 224.268893 138.086474 
L 224.268893 137.692843 
L 225.290943 137.692843 
L 225.290943 137.299211 
L 226.729619 137.299211 
L 226.729619 136.90558 
L 227.365516 136.90558 
L 227.365516 136.511948 
L 227.497719 136.511948 
L 227.497719 136.118317 
L 228.095639 136.118317 
L 228.095639 135.724685 
L 228.945455 135.724685 
L 228.945455 135.331054 
L 238.029792 135.331054 
L 238.029792 134.937422 
L 239.216402 134.937422 
L 239.216402 134.54379 
L 241.785332 134.54379 
L 241.785332 134.150159 
L 243.401832 134.150159 
L 243.401832 133.756527 
L 244.901067 133.756527 
L 244.955548 132.575633 
L 245.408978 132.575633 
L 245.408978 132.182001 
L 245.669167 132.182001 
L 245.669167 131.78837 
L 246.267087 131.78837 
L 246.267087 131.394738 
L 246.586937 131.394738 
L 246.672014 130.607475 
L 246.922486 130.607475 
L 246.922486 130.213843 
L 249.134535 130.213843 
L 249.134535 129.820212 
L 249.782829 129.820212 
L 249.782829 129.42658 
L 250.249736 129.42658 
L 250.349453 128.639317 
L 251.117553 128.639317 
L 251.141681 127.852054 
L 251.715473 127.852054 
L 251.763244 127.064791 
L 252.0171 127.064791 
L 252.0171 126.67116 
L 252.19774 126.67116 
L 252.19774 126.277528 
L 252.775544 126.277528 
L 252.785199 125.490265 
L 253.274955 125.490265 
L 253.383119 124.703002 
L 255.173331 124.703002 
L 255.173331 124.30937 
L 255.308556 124.30937 
L 255.308556 123.915739 
L 255.886359 123.915739 
L 255.982439 123.128476 
L 256.398689 123.128476 
L 256.398689 122.734844 
L 256.561648 122.734844 
L 256.561648 122.341213 
L 257.036123 122.341213 
L 257.036123 121.947581 
L 257.166789 121.947581 
L 257.166789 121.553949 
L 257.38785 121.553949 
L 257.38785 121.160318 
L 257.762271 121.160318 
L 257.764709 120.373055 
L 258.161642 120.373055 
L 258.161642 119.979423 
L 258.284146 119.979423 
L 258.284146 119.585792 
L 258.568794 119.585792 
L 258.568794 119.19216 
L 259.277857 119.19216 
L 259.360852 118.404897 
L 259.769417 118.404897 
L 259.769417 118.011265 
L 259.956781 118.011265 
L 259.956781 117.617634 
L 260.146939 117.617634 
L 260.146939 117.224002 
L 261.272458 117.224002 
L 261.285003 116.436739 
L 262.471668 116.436739 
L 262.471668 116.043108 
L 262.836236 116.043108 
L 262.836236 115.649476 
L 263.409552 115.649476 
L 263.409552 115.255845 
L 264.503883 115.255845 
L 264.610175 114.468582 
L 264.64566 114.468582 
L 264.64566 114.07495 
L 265.405167 114.07495 
L 265.489944 113.287687 
L 266.125761 113.287687 
L 266.125761 112.894055 
L 267.072813 112.894055 
L 267.120672 112.106792 
L 267.564517 112.106792 
L 267.564517 111.713161 
L 267.756476 111.713161 
L 267.756476 111.319529 
L 268.001465 111.319529 
L 268.001465 110.925898 
L 268.885473 110.925898 
L 268.885473 110.532266 
L 269.144456 110.532266 
L 269.144456 110.138635 
L 270.231488 110.138635 
L 270.231488 109.745003 
L 271.01567 109.745003 
L 271.01567 109.351371 
L 271.454403 109.351371 
L 271.454403 108.95774 
L 271.593474 108.95774 
L 271.593474 108.564108 
L 273.090243 108.564108 
L 273.090243 108.170477 
L 273.668047 108.170477 
L 273.668047 107.776845 
L 273.991261 107.776845 
L 273.991261 107.383214 
L 274.188017 107.383214 
L 274.188017 106.989582 
L 274.670183 106.989582 
L 274.670183 106.595951 
L 275.247987 106.595951 
L 275.247987 106.202319 
L 275.854054 106.202319 
L 275.854054 105.808688 
L 276.065834 105.808688 
L 276.065834 105.415056 
L 276.979573 105.415056 
L 276.979573 105.021424 
L 277.645774 105.021424 
L 277.645774 104.627793 
L 277.928627 104.627793 
L 277.928627 104.234161 
L 278.178782 104.234161 
L 278.228793 103.446898 
L 279.054146 103.446898 
L 279.054146 103.053267 
L 279.329193 103.053267 
L 279.329193 102.659635 
L 279.451127 102.659635 
L 279.508566 101.872372 
L 280.253355 101.872372 
L 280.253355 101.478741 
L 280.634085 101.478741 
L 280.634085 101.085109 
L 280.842701 101.085109 
L 280.842701 100.691477 
L 280.964635 100.691477 
L 280.964635 100.297846 
L 281.833295 100.297846 
L 281.833295 99.904214 
L 283.46359 99.904214 
L 283.46359 99.510583 
L 283.632272 99.510583 
L 283.632272 99.116951 
L 283.754519 99.116951 
L 283.754519 98.72332 
L 284.332323 98.72332 
L 284.332323 98.329688 
L 285.061896 98.329688 
L 285.154549 97.542425 
L 285.18383 97.542425 
L 285.18383 97.148793 
L 285.538163 97.148793 
L 285.538163 96.755162 
L 285.87161 96.755162 
L 285.938603 95.967899 
L 286.495373 95.967899 
L 286.495373 95.574267 
L 286.73011 95.574267 
L 286.785938 94.787004 
L 287.118103 94.787004 
L 287.118103 94.393373 
L 287.424834 94.393373 
L 287.424834 93.999741 
L 287.75703 93.999741 
L 287.75703 93.60611 
L 287.878756 93.60611 
L 287.878756 93.212478 
L 288.013176 93.212478 
L 288.013176 92.818846 
L 288.592903 92.818846 
L 288.592903 92.425215 
L 288.938342 92.425215 
L 288.938342 92.031583 
L 289.593115 92.031583 
L 289.606189 91.24432 
L 289.718422 91.24432 
L 289.718422 90.850689 
L 290.601451 90.850689 
L 290.680276 90.063426 
L 290.917631 90.063426 
L 290.917631 89.669794 
L 291.25808 89.669794 
L 291.25808 89.276163 
L 292.311664 89.276163 
L 292.311664 88.882531 
L 292.489009 88.882531 
L 292.489009 88.488899 
L 292.610943 88.488899 
L 292.719514 87.701636 
L 292.889468 87.701636 
L 292.889468 87.308005 
L 293.157537 87.308005 
L 293.157537 86.914373 
L 293.473956 86.914373 
L 293.473956 86.520742 
L 293.655867 86.520742 
L 293.689632 85.733479 
L 293.811566 85.733479 
L 293.811566 85.339847 
L 295.10837 85.339847 
L 295.205218 84.552584 
L 295.287255 84.552584 
L 295.327152 83.765321 
L 295.518659 83.765321 
L 295.518659 83.371689 
L 296.202439 83.371689 
L 296.202439 82.978058 
L 296.621879 82.978058 
L 296.644178 82.190795 
L 297.150048 82.190795 
L 297.150048 81.797163 
L 297.843388 81.797163 
L 297.843388 81.403532 
L 298.275567 81.403532 
L 298.275567 81.0099 
L 298.677452 81.0099 
L 298.677452 80.616269 
L 298.999682 80.616269 
L 298.999682 80.222637 
L 299.474777 80.222637 
L 299.577486 79.435374 
L 300.58465 79.435374 
L 300.58465 79.041742 
L 300.752979 79.041742 
L 300.841073 78.254479 
L 301.785273 78.254479 
L 301.785273 77.860848 
L 301.975273 77.860848 
L 301.975273 77.467216 
L 303.128196 77.467216 
L 303.128196 77.073585 
L 303.300859 77.073585 
L 303.300859 76.679953 
L 303.838066 76.679953 
L 303.838066 76.286321 
L 304.759585 76.286321 
L 304.759585 75.89269 
L 304.963585 75.89269 
L 304.963585 75.499058 
L 305.313304 75.499058 
L 305.313304 75.105427 
L 305.603208 75.105427 
L 305.603208 74.711795 
L 306.162794 74.711795 
L 306.162794 74.318164 
L 307.234597 74.318164 
L 307.234597 73.924532 
L 307.387877 73.924532 
L 307.387877 73.530901 
L 308.200466 73.530901 
L 308.268187 72.743638 
L 308.967816 72.743638 
L 308.967816 72.350006 
L 309.468809 72.350006 
L 309.468809 71.956374 
L 310.984396 71.956374 
L 310.984396 71.562743 
L 311.447602 71.562743 
L 311.447602 71.169111 
L 313.1578 71.169111 
L 313.1578 70.77548 
L 313.726192 70.77548 
L 313.726192 70.381848 
L 313.922615 70.381848 
L 313.922615 69.988217 
L 314.303996 69.988217 
L 314.387018 69.200954 
L 314.671309 69.200954 
L 314.671309 68.807322 
L 316.701783 68.807322 
L 316.701783 68.413691 
L 318.052152 68.413691 
L 318.052152 68.020059 
L 318.564576 68.020059 
L 318.564576 67.626427 
L 318.890503 67.626427 
L 318.890503 67.232796 
L 319.690094 67.232796 
L 319.690094 66.839164 
L 319.881267 66.839164 
L 319.912744 66.051901 
L 320.113462 66.051901 
L 320.113462 65.65827 
L 320.490548 65.65827 
L 320.490548 65.264638 
L 320.889304 65.264638 
L 320.889304 64.871007 
L 321.394776 64.871007 
L 321.394776 64.477375 
L 321.798971 64.477375 
L 321.798971 64.083744 
L 321.920905 64.083744 
L 321.920905 63.690112 
L 322.888335 63.690112 
L 322.888335 63.29648 
L 323.831273 63.29648 
L 323.831273 62.902849 
L 324.454478 62.902849 
L 324.454478 62.509217 
L 324.751127 62.509217 
L 324.751127 62.115586 
L 324.977909 62.115586 
L 324.977909 61.721954 
L 325.61397 61.721954 
L 325.722027 60.934691 
L 325.876646 60.934691 
L 325.967987 60.147428 
L 326.174112 60.147428 
L 326.174112 59.753796 
L 326.317617 59.753796 
L 326.317617 59.360165 
L 326.609298 59.360165 
L 326.609298 58.966533 
L 327.075856 58.966533 
L 327.075856 58.572902 
L 327.518239 58.572902 
L 327.518239 58.17927 
L 327.890771 58.17927 
L 327.956031 57.392007 
L 328.649125 57.392007 
L 328.649125 56.998376 
L 329.033826 56.998376 
L 329.033826 56.604744 
L 329.357 56.604744 
L 329.404279 55.817481 
L 329.894612 55.817481 
L 329.934804 55.030218 
L 330.187181 55.030218 
L 330.187181 54.636586 
L 330.800452 54.636586 
L 330.800452 54.242955 
L 332.332591 54.242955 
L 332.360664 53.455692 
L 333.041084 53.455692 
L 333.041084 53.06206 
L 333.297316 53.06206 
L 333.297316 52.668429 
L 333.481757 52.668429 
L 333.481757 52.274797 
L 333.623474 52.274797 
L 333.623474 51.881166 
L 334.059561 51.881166 
L 334.059561 51.487534 
L 334.195383 51.487534 
L 334.241706 50.700271 
L 334.835676 50.700271 
L 334.835676 50.306639 
L 335.320902 50.306639 
L 335.320902 49.913008 
L 335.757293 49.913008 
L 335.757293 49.519376 
L 336.326178 49.519376 
L 336.326178 49.125745 
L 336.457348 49.125745 
L 336.520112 48.338482 
L 336.903982 48.338482 
L 336.903982 47.94485 
L 337.578148 47.94485 
L 337.614295 47.157587 
L 337.828947 47.157587 
L 337.828947 46.763955 
L 338.320141 46.763955 
L 338.320141 46.370324 
L 338.814917 46.370324 
L 338.814917 45.976692 
L 339.301769 45.976692 
L 339.342455 45.189429 
L 339.44566 45.189429 
L 339.44566 44.795798 
L 340.330504 44.795798 
L 340.330504 44.402166 
L 340.644869 44.402166 
L 340.644869 44.008535 
L 341.050587 44.008535 
L 341.050587 43.614903 
L 341.164562 43.614903 
L 341.164562 43.221272 
L 341.80492 43.221272 
L 341.80492 42.82764 
L 342.25121 42.82764 
L 342.29008 42.040377 
L 343.48929 42.040377 
L 343.56165 41.253114 
L 343.766796 41.253114 
L 343.766796 40.859482 
L 344.279932 40.859482 
L 344.279932 40.465851 
L 345.929677 40.465851 
L 345.929677 40.072219 
L 348.023825 40.072219 
L 348.023825 39.678588 
L 348.324379 39.678588 
L 348.40469 38.497693 
L 348.774098 38.497693 
L 348.774098 38.104061 
L 350.988763 38.104061 
L 350.988763 37.71043 
L 351.249111 37.71043 
L 351.249111 37.316798 
L 352.189386 37.316798 
L 352.189386 36.923167 
L 353.704972 36.923167 
L 353.704972 36.529535 
L 354.210377 36.529535 
L 354.210377 36.135904 
L 355.627578 36.135904 
L 355.627578 35.742272 
L 360.511261 35.742272 
L 360.511261 35.348641 
L 362.02477 35.348641 
L 362.02477 34.955009 
L 362.351045 34.955009 
L 362.351045 34.561377 
L 363.654633 34.561377 
L 363.654633 34.167746 
L 366.243964 34.167746 
L 366.243964 33.774114 
L 366.924256 33.774114 
L 366.924256 33.380483 
L 367.684862 33.380483 
L 367.779391 32.199588 
L 370.360549 32.199588 
L 370.360549 31.805957 
L 370.623811 31.805957 
L 370.623811 31.412325 
L 373.293427 31.412325 
L 373.293427 30.625062 
L 373.671078 30.625062 
L 373.671078 30.23143 
L 374.8717 30.23143 
L 374.8717 29.837799 
L 376.387287 29.837799 
L 376.387287 29.444167 
L 380.298725 29.444167 
L 380.298725 29.050536 
L 402.981039 29.050536 
L 402.981039 28.656904 
L 453.192 28.656904 
L 453.192 28.656904 
" style="fill:none;stroke:#00bfbf;stroke-linecap:square;stroke-width:3;"/>
   </g>
   <g id="line2d_65">
    <path clip-path="url(#p11d37c24ce)" style="fill:none;stroke:#00bfbf;stroke-linecap:square;stroke-width:3;"/>
   </g>
   <g id="line2d_66">
    <path clip-path="url(#p11d37c24ce)" d="M 34.16 138.11104 
L 150.166373 138.11104 
L 150.166373 137.691088 
L 167.255158 137.691088 
L 167.28203 136.851185 
L 167.760646 136.851185 
L 167.760646 136.431233 
L 169.530135 136.431233 
L 169.530135 136.011282 
L 173.816117 136.011282 
L 173.816117 135.59133 
L 178.18888 135.59133 
L 178.18888 135.171378 
L 178.523023 135.171378 
L 178.523023 134.751427 
L 179.413473 134.751427 
L 179.413473 134.331475 
L 180.249924 134.331475 
L 180.249924 133.911523 
L 182.27365 133.911523 
L 182.27365 133.491572 
L 183.585013 133.491572 
L 183.585013 133.07162 
L 184.224869 133.07162 
L 184.224869 132.651669 
L 185.587259 132.651669 
L 185.587259 132.231717 
L 185.943069 132.231717 
L 185.943069 131.811765 
L 189.823198 131.811765 
L 189.823198 131.391814 
L 194.988328 131.391814 
L 195.065004 130.55191 
L 200.783716 130.55191 
L 200.783716 130.131959 
L 202.745674 130.131959 
L 202.745674 129.712007 
L 205.964407 129.712007 
L 205.991279 128.872104 
L 206.469896 128.872104 
L 206.469896 128.452152 
L 208.239384 128.452152 
L 208.239384 128.032201 
L 209.376015 128.032201 
L 209.402887 127.192297 
L 209.881503 127.192297 
L 209.881503 126.772346 
L 211.650992 126.772346 
L 211.650992 126.352394 
L 212.669085 126.352394 
L 212.695957 125.512491 
L 213.174573 125.512491 
L 213.174573 125.092539 
L 214.944062 125.092539 
L 214.944062 124.672587 
L 218.49937 124.672587 
L 218.49937 124.252636 
L 219.689196 124.252636 
L 219.689196 123.832684 
L 222.01014 123.832684 
L 222.01014 123.412733 
L 222.934119 123.412733 
L 222.934119 122.992781 
L 224.433461 122.992781 
L 224.433461 122.572829 
L 226.345726 122.572829 
L 226.395419 121.732926 
L 228.806224 121.732926 
L 228.806224 121.312974 
L 229.140366 121.312974 
L 229.140366 120.893023 
L 229.638796 120.893023 
L 229.638796 120.473071 
L 230.030817 120.473071 
L 230.030817 120.053119 
L 230.274586 120.053119 
L 230.274586 119.633168 
L 230.768181 119.633168 
L 230.867268 118.793265 
L 231.102324 118.793265 
L 231.102324 118.373313 
L 231.992774 118.373313 
L 231.992774 117.953361 
L 232.829225 117.953361 
L 232.890994 117.113458 
L 233.697578 117.113458 
L 233.774253 116.273555 
L 234.202357 116.273555 
L 234.202357 115.853603 
L 234.852951 115.853603 
L 234.852951 115.433651 
L 236.164315 115.433651 
L 236.204603 114.593748 
L 236.560413 114.593748 
L 236.560413 114.173797 
L 237.109185 114.173797 
L 237.185861 113.333893 
L 237.268539 113.333893 
L 237.268539 112.913942 
L 238.166561 112.913942 
L 238.166561 112.49399 
L 238.52237 112.49399 
L 238.52237 112.074038 
L 239.2703 112.074038 
L 239.2703 111.654087 
L 240.402255 111.654087 
L 240.478931 110.394232 
L 240.788042 110.394232 
L 240.814914 109.554329 
L 241.293531 109.554329 
L 241.350724 108.294474 
L 241.82934 108.294474 
L 241.82934 107.874522 
L 242.149115 107.874522 
L 242.149115 107.45457 
L 242.402499 107.45457 
L 242.402499 107.034619 
L 243.063019 107.034619 
L 243.063019 106.614667 
L 243.338941 106.614667 
L 243.338941 106.194715 
L 243.598829 106.194715 
L 243.598829 105.774764 
L 245.659884 105.774764 
L 245.659884 105.354812 
L 245.865699 105.354812 
L 245.865699 104.934861 
L 246.521878 104.934861 
L 246.521878 104.514909 
L 246.85602 104.514909 
L 246.85602 104.094957 
L 247.711704 104.094957 
L 247.746471 103.255054 
L 248.045846 103.255054 
L 248.045846 102.835102 
L 248.266023 102.835102 
L 248.292895 101.995199 
L 248.582921 101.995199 
L 248.582921 101.575248 
L 248.771512 101.575248 
L 248.771512 101.155296 
L 248.936297 101.155296 
L 248.936297 100.735344 
L 249.772747 100.735344 
L 249.772747 100.315393 
L 250.032647 100.315393 
L 250.032647 99.895441 
L 250.36679 99.895441 
L 250.36679 99.475489 
L 250.541 99.475489 
L 250.606648 98.635586 
L 251.25724 98.635586 
L 251.25724 98.215634 
L 251.796474 98.215634 
L 251.796474 97.795683 
L 251.918011 97.795683 
L 251.918011 97.375731 
L 252.093691 97.375731 
L 252.093691 96.95578 
L 253.107837 96.95578 
L 253.107837 96.535828 
L 253.920257 96.535828 
L 253.92433 95.695925 
L 254.117417 95.695925 
L 254.117417 95.275973 
L 254.276067 95.275973 
L 254.276067 94.856021 
L 255.110083 94.856021 
L 255.110083 94.43607 
L 255.42878 94.43607 
L 255.465893 93.596166 
L 256.60332 93.596166 
L 256.630192 92.756263 
L 257.108809 92.756263 
L 257.108809 92.336312 
L 257.431026 92.336312 
L 257.431026 91.91636 
L 257.757754 91.91636 
L 257.786836 91.076457 
L 258.156196 91.076457 
L 258.156196 90.656505 
L 258.293563 90.656505 
L 258.297093 89.816602 
L 258.631235 89.816602 
L 258.631235 89.39665 
L 258.878297 89.39665 
L 258.878297 88.976698 
L 259.346022 88.976698 
L 259.346022 88.556747 
L 259.521686 88.556747 
L 259.521686 88.136795 
L 260.102502 88.136795 
L 260.102502 87.716844 
L 260.358137 87.716844 
L 260.358137 87.296892 
L 260.918284 87.296892 
L 260.918284 86.87694 
L 261.666965 86.87694 
L 261.666965 86.456989 
L 262.381863 86.456989 
L 262.381863 86.037037 
L 262.920045 86.037037 
L 262.920045 85.617085 
L 263.693226 85.617085 
L 263.693226 85.197134 
L 265.235735 85.197134 
L 265.291047 84.35723 
L 265.625189 84.35723 
L 265.695472 83.517327 
L 266.051282 83.517327 
L 266.088933 82.677424 
L 266.51564 82.677424 
L 266.51564 82.257472 
L 267.292808 82.257472 
L 267.352091 81.417569 
L 267.62695 81.417569 
L 267.62695 80.997617 
L 268.517401 80.997617 
L 268.597888 79.737762 
L 269.057022 79.737762 
L 269.133698 78.897859 
L 269.353851 78.897859 
L 269.375817 78.057956 
L 269.515443 78.057956 
L 269.515443 77.638004 
L 269.931411 77.638004 
L 269.931411 77.218053 
L 270.68718 77.218053 
L 270.68718 76.798101 
L 271.377578 76.798101 
L 271.377578 76.378149 
L 272.688941 76.378149 
L 272.689426 75.538246 
L 273.045236 75.538246 
L 273.045236 75.118294 
L 273.573032 75.118294 
L 273.573032 74.698343 
L 273.888206 74.698343 
L 273.931149 73.438488 
L 274.222349 73.438488 
L 274.222349 73.018536 
L 274.409766 73.018536 
L 274.409766 72.598585 
L 274.691187 72.598585 
L 274.691187 72.178633 
L 275.046997 72.178633 
L 275.112799 71.33873 
L 275.472544 71.33873 
L 275.472544 70.918778 
L 275.94925 70.918778 
L 275.999194 70.078875 
L 276.075869 70.078875 
L 276.179254 69.238972 
L 276.925365 69.238972 
L 276.925365 68.81902 
L 277.972976 68.81902 
L 277.972976 68.399068 
L 278.927126 68.399068 
L 278.927126 67.979117 
L 279.284339 67.979117 
L 279.284339 67.559165 
L 279.620108 67.559165 
L 279.620108 67.139213 
L 280.549858 67.139213 
L 280.57673 66.29931 
L 281.055347 66.29931 
L 281.055347 65.879358 
L 281.286585 65.879358 
L 281.286585 65.459407 
L 281.642395 65.459407 
L 281.642395 65.039455 
L 282.41078 65.039455 
L 282.41078 64.619504 
L 282.824836 64.619504 
L 282.824836 64.199552 
L 283.752247 64.199552 
L 283.752247 63.7796 
L 284.336491 63.7796 
L 284.413166 62.939697 
L 285.146756 62.939697 
L 285.173628 62.099794 
L 285.522524 62.099794 
L 285.522524 61.679842 
L 285.652244 61.679842 
L 285.652244 61.25989 
L 287.421733 61.25989 
L 287.421733 60.839939 
L 288.125009 60.839939 
L 288.125009 60.419987 
L 288.459152 60.419987 
L 288.549305 59.580084 
L 288.576177 59.580084 
L 288.576177 59.160132 
L 289.054794 59.160132 
L 289.054794 58.740181 
L 289.349603 58.740181 
L 289.349603 58.320229 
L 289.738677 58.320229 
L 289.738677 57.900277 
L 290.186053 57.900277 
L 290.186053 57.480326 
L 290.824282 57.480326 
L 290.873989 56.640422 
L 292.209779 56.640422 
L 292.209779 56.220471 
L 293.521143 56.220471 
L 293.521143 55.800519 
L 294.11144 55.800519 
L 294.11144 55.380568 
L 294.445583 55.380568 
L 294.445583 54.960616 
L 295.336033 54.960616 
L 295.336033 54.540664 
L 295.523389 54.540664 
L 295.523389 54.120713 
L 295.879198 54.120713 
L 295.879198 53.700761 
L 296.172484 53.700761 
L 296.172484 53.280809 
L 296.818868 53.280809 
L 296.818868 52.860858 
L 297.51957 52.860858 
L 297.51957 52.440906 
L 298.19621 52.440906 
L 298.19621 52.020954 
L 298.478441 52.020954 
L 298.505313 51.181051 
L 298.98393 51.181051 
L 298.98393 50.7611 
L 299.122289 50.7611 
L 299.122289 50.341148 
L 299.507573 50.341148 
L 299.507573 49.921196 
L 299.759327 49.921196 
L 299.759327 49.501245 
L 300.753418 49.501245 
L 300.753418 49.081293 
L 301.509819 49.081293 
L 301.509819 48.661341 
L 301.637447 48.661341 
L 301.714123 47.821438 
L 301.865629 47.821438 
L 301.865629 47.401486 
L 302.116467 47.401486 
L 302.116467 46.981535 
L 303.269853 46.981535 
L 303.269853 46.561583 
L 303.495051 46.561583 
L 303.495051 46.141632 
L 303.829194 46.141632 
L 303.829194 45.72168 
L 304.719644 45.72168 
L 304.719644 45.301728 
L 305.519016 45.301728 
L 305.556095 44.461825 
L 305.745758 44.461825 
L 305.745758 44.041873 
L 306.060525 44.041873 
L 306.060525 43.621922 
L 307.579821 43.621922 
L 307.642615 42.782018 
L 307.976758 42.782018 
L 307.976758 42.362067 
L 308.283029 42.362067 
L 308.359705 41.522164 
L 308.867209 41.522164 
L 308.891184 40.68226 
L 309.703659 40.68226 
L 309.703659 40.262309 
L 310.433287 40.262309 
L 310.433287 39.842357 
L 310.76743 39.842357 
L 310.76743 39.422405 
L 310.893431 39.422405 
L 310.893431 39.002454 
L 311.24924 39.002454 
L 311.24924 38.582502 
L 311.657881 38.582502 
L 311.727385 37.742599 
L 312.494331 37.742599 
L 312.494331 37.322647 
L 312.879926 37.322647 
L 312.956602 36.482744 
L 313.038749 36.482744 
L 313.038749 36.062792 
L 314.518057 36.062792 
L 314.518057 35.642841 
L 315.040995 35.642841 
L 315.129369 34.802937 
L 315.396805 34.802937 
L 315.448153 33.963034 
L 315.829421 33.963034 
L 315.829421 33.543082 
L 316.132383 33.543082 
L 316.132383 33.123131 
L 316.282475 33.123131 
L 316.359151 32.283228 
L 317.831667 32.283228 
L 317.831667 31.863276 
L 318.187477 31.863276 
L 318.187477 31.443324 
L 319.276933 31.443324 
L 319.276933 31.023373 
L 320.924586 31.023373 
L 320.951458 30.183469 
L 321.430074 30.183469 
L 321.430074 29.763518 
L 321.719646 29.763518 
L 321.719646 29.343566 
L 322.067605 29.343566 
L 322.067605 28.923614 
L 323.199563 28.923614 
L 323.199563 28.503663 
L 324.44214 28.503663 
L 324.44214 27.66376 
L 326.211612 27.66376 
L 326.288287 26.823856 
L 337.894297 26.823856 
L 337.894297 26.403905 
L 343.755654 26.403905 
L 343.755654 25.564001 
L 348.657756 25.564001 
L 348.734432 24.724098 
L 349.342917 24.724098 
L 349.342917 23.884195 
L 453.192 23.884195 
L 453.192 23.884195 
" style="fill:none;stroke:#bf00bf;stroke-linecap:square;stroke-width:3;"/>
   </g>
   <g id="line2d_67">
    <path clip-path="url(#p11d37c24ce)" style="fill:none;stroke:#bf00bf;stroke-linecap:square;stroke-width:3;"/>
   </g>
   <g id="line2d_68">
    <path clip-path="url(#p11d37c24ce)" d="M 34.16 138.11104 
L 137.635438 138.11104 
L 137.635438 137.691088 
L 147.55418 137.691088 
L 147.55418 137.271137 
L 158.171761 137.271137 
L 158.171761 136.851185 
L 158.282934 136.851185 
L 158.282934 136.431233 
L 162.448185 136.431233 
L 162.448185 136.011282 
L 167.341092 136.011282 
L 167.341092 135.59133 
L 169.797763 135.59133 
L 169.797763 135.171378 
L 173.562349 135.171378 
L 173.562349 134.751427 
L 174.100362 134.751427 
L 174.100362 134.331475 
L 174.26411 134.331475 
L 174.345665 133.491572 
L 174.589882 133.491572 
L 174.589882 133.07162 
L 175.119347 133.07162 
L 175.119347 132.651669 
L 176.233483 132.651669 
L 176.233483 132.231717 
L 176.783825 132.231717 
L 176.783825 131.811765 
L 177.960519 131.811765 
L 177.960519 131.391814 
L 178.208515 131.391814 
L 178.208515 130.971862 
L 179.685253 130.971862 
L 179.716505 130.131959 
L 181.321041 130.131959 
L 181.321041 129.712007 
L 184.019105 129.712007 
L 184.019105 129.292055 
L 184.508624 129.292055 
L 184.550296 128.452152 
L 188.338218 128.452152 
L 188.338218 128.032201 
L 190.334086 128.032201 
L 190.334086 127.612249 
L 194.61051 127.612249 
L 194.636686 126.772346 
L 195.126205 126.772346 
L 195.126205 126.352394 
L 196.473027 126.352394 
L 196.473027 125.932442 
L 198.757221 125.932442 
L 198.757221 125.512491 
L 198.91311 125.512491 
L 198.91311 125.092539 
L 199.402629 125.092539 
L 199.503416 124.252636 
L 202.018235 124.252636 
L 202.018235 123.832684 
L 202.379303 123.832684 
L 202.379303 123.412733 
L 203.806016 123.412733 
L 203.806016 122.992781 
L 204.295536 122.992781 
L 204.295536 122.572829 
L 209.332443 122.572829 
L 209.332443 122.152878 
L 210.37084 122.152878 
L 210.37084 121.732926 
L 211.752442 121.732926 
L 211.752442 121.312974 
L 211.936977 121.312974 
L 211.936977 120.893023 
L 212.298045 120.893023 
L 212.298045 120.473071 
L 212.454203 120.473071 
L 212.535758 119.633168 
L 213.178111 119.633168 
L 213.178111 119.213216 
L 213.30944 119.213216 
L 213.30944 118.793265 
L 214.036635 118.793265 
L 214.036635 118.373313 
L 214.423576 118.373313 
L 214.423576 117.953361 
L 214.67344 117.953361 
L 214.738396 117.113458 
L 214.819951 117.113458 
L 214.819951 116.693506 
L 214.973918 116.693506 
L 214.973918 116.273555 
L 215.162959 116.273555 
L 215.200356 115.433651 
L 215.593633 115.433651 
L 215.593633 115.0137 
L 216.150612 115.0137 
L 216.150612 114.593748 
L 216.707769 114.593748 
L 216.71262 113.753845 
L 216.852338 113.753845 
L 216.852338 113.333893 
L 217.258111 113.333893 
L 217.258111 112.913942 
L 217.700335 112.913942 
L 217.700335 112.49399 
L 217.875346 112.49399 
L 217.875346 112.074038 
L 218.434805 112.074038 
L 218.434805 111.654087 
L 219.251185 111.654087 
L 219.251185 111.234135 
L 219.511134 111.234135 
L 219.511134 110.814183 
L 220.159539 110.814183 
L 220.159539 110.394232 
L 221.01522 110.394232 
L 221.01522 109.97428 
L 221.50474 109.97428 
L 221.50474 109.554329 
L 221.795327 109.554329 
L 221.795327 109.134377 
L 222.554558 109.134377 
L 222.554558 108.714425 
L 222.915626 108.714425 
L 222.915626 108.294474 
L 224.889868 108.294474 
L 224.889868 107.874522 
L 226.528311 107.874522 
L 226.528311 107.45457 
L 226.830982 107.45457 
L 226.830982 107.034619 
L 227.19205 107.034619 
L 227.19205 106.614667 
L 227.619077 106.614667 
L 227.619077 106.194715 
L 228.457526 106.194715 
L 228.457526 105.774764 
L 228.812504 105.774764 
L 228.812504 105.354812 
L 229.159287 105.354812 
L 229.240841 104.514909 
L 229.868766 104.514909 
L 229.868766 104.094957 
L 230.014523 104.094957 
L 230.014523 103.675006 
L 230.479771 103.675006 
L 230.479771 103.255054 
L 231.128659 103.255054 
L 231.181532 102.415151 
L 231.263086 102.415151 
L 231.263086 101.995199 
L 231.679001 101.995199 
L 231.723889 101.155296 
L 231.914805 101.155296 
L 231.914805 100.735344 
L 232.036768 100.735344 
L 232.131752 99.475489 
L 232.833513 99.475489 
L 232.915068 98.215634 
L 233.110225 98.215634 
L 233.150904 97.375731 
L 233.68875 97.375731 
L 233.701246 96.535828 
L 234.14519 96.535828 
L 234.14519 96.115876 
L 234.564743 96.115876 
L 234.580429 95.275973 
L 234.802886 95.275973 
L 234.87794 94.43607 
L 235.353228 94.43607 
L 235.353228 94.016118 
L 236.216217 94.016118 
L 236.216217 93.596166 
L 236.529922 93.596166 
L 236.602674 92.756263 
L 238.236658 92.756263 
L 238.254656 91.496408 
L 239.038096 91.496408 
L 239.038096 91.076457 
L 239.737469 91.076457 
L 239.737469 90.656505 
L 239.890444 90.656505 
L 239.890444 90.236553 
L 240.169283 90.236553 
L 240.169283 89.816602 
L 240.871044 89.816602 
L 240.952598 88.976698 
L 241.198771 88.976698 
L 241.198771 88.556747 
L 241.726281 88.556747 
L 241.726281 88.136795 
L 242.513082 88.136795 
L 242.591312 87.296892 
L 242.840417 87.296892 
L 242.840417 86.87694 
L 242.95238 86.87694 
L 242.95238 86.456989 
L 243.233394 86.456989 
L 243.233394 86.037037 
L 243.390759 86.037037 
L 243.390759 85.617085 
L 244.483485 85.617085 
L 244.567453 84.777182 
L 245.255639 84.777182 
L 245.255639 84.35723 
L 245.803777 84.35723 
L 245.803777 83.937279 
L 246.292187 83.937279 
L 246.292187 83.517327 
L 246.907621 83.517327 
L 246.907621 83.097376 
L 247.19422 83.097376 
L 247.19422 82.677424 
L 247.405989 82.677424 
L 247.405989 82.257472 
L 247.895981 82.257472 
L 247.977536 80.997617 
L 248.38964 80.997617 
L 248.38964 80.577666 
L 248.751218 80.577666 
L 248.751218 80.157714 
L 248.933093 80.157714 
L 248.933093 79.737762 
L 249.091401 79.737762 
L 249.172955 78.477908 
L 249.294161 78.477908 
L 249.294161 78.057956 
L 249.865354 78.057956 
L 249.946637 76.798101 
L 250.415696 76.798101 
L 250.415696 76.378149 
L 251.060773 76.378149 
L 251.117513 75.538246 
L 251.59239 75.538246 
L 251.611115 74.698343 
L 252.78781 74.698343 
L 252.78781 74.278391 
L 253.317124 74.278391 
L 253.317124 73.85844 
L 253.618016 73.85844 
L 253.618016 73.438488 
L 254.512544 73.438488 
L 254.512544 73.018536 
L 254.945151 73.018536 
L 255.016884 71.758681 
L 255.101066 71.758681 
L 255.101066 71.33873 
L 255.718645 71.33873 
L 255.800199 70.078875 
L 256.148331 70.078875 
L 256.2473 69.238972 
L 256.573881 69.238972 
L 256.573881 68.81902 
L 257.688017 68.81902 
L 257.688017 68.399068 
L 258.238359 68.399068 
L 258.273412 67.559165 
L 259.025613 67.559165 
L 259.06586 66.719262 
L 259.37749 66.719262 
L 259.415053 65.879358 
L 259.582711 65.879358 
L 259.582711 65.459407 
L 261.139787 65.459407 
L 261.139787 65.039455 
L 261.735094 65.039455 
L 261.735094 64.619504 
L 261.970089 64.619504 
L 261.970089 64.199552 
L 262.775575 64.199552 
L 262.775575 63.7796 
L 263.165508 63.7796 
L 263.165508 63.359649 
L 264.270397 63.359649 
L 264.270397 62.939697 
L 264.615193 62.939697 
L 264.615193 62.519745 
L 266.011518 62.519745 
L 266.011518 62.099794 
L 266.3401 62.099794 
L 266.3401 61.679842 
L 268.860469 61.679842 
L 268.944355 60.419987 
L 269.599192 60.419987 
L 269.683441 59.160132 
L 269.792752 59.160132 
L 269.792752 58.740181 
L 270.454428 58.740181 
L 270.454428 58.320229 
L 270.616524 58.320229 
L 270.616524 57.900277 
L 270.904425 57.900277 
L 270.904425 57.480326 
L 271.568564 57.480326 
L 271.568564 57.060374 
L 272.118906 57.060374 
L 272.118906 56.640422 
L 272.905921 56.640422 
L 272.905921 56.220471 
L 273.295601 56.220471 
L 273.295601 55.800519 
L 273.959865 55.800519 
L 273.959865 55.380568 
L 274.862126 55.380568 
L 274.862126 54.960616 
L 275.020335 54.960616 
L 275.020335 54.540664 
L 275.13782 54.540664 
L 275.13782 54.120713 
L 275.509431 54.120713 
L 275.563887 53.280809 
L 275.645442 53.280809 
L 275.676697 52.440906 
L 276.419124 52.440906 
L 276.419124 52.020954 
L 276.656122 52.020954 
L 276.656122 51.601003 
L 277.53326 51.601003 
L 277.53326 51.181051 
L 278.083602 51.181051 
L 278.083602 50.7611 
L 278.852771 50.7611 
L 278.852771 50.341148 
L 279.260296 50.341148 
L 279.260296 49.921196 
L 279.561936 49.921196 
L 279.561936 49.501245 
L 280.98503 49.501245 
L 280.98503 49.081293 
L 281.425788 49.081293 
L 281.479601 48.24139 
L 281.771848 48.24139 
L 281.771848 47.821438 
L 282.620818 47.821438 
L 282.620818 47.401486 
L 283.673299 47.401486 
L 283.673299 46.981535 
L 283.83836 46.981535 
L 283.83836 46.561583 
L 284.139884 46.561583 
L 284.139884 46.141632 
L 284.841645 46.141632 
L 284.9232 45.301728 
L 285.696882 45.301728 
L 285.696882 44.881777 
L 286.376854 44.881777 
L 286.376854 44.461825 
L 286.811018 44.461825 
L 286.811018 44.041873 
L 287.36136 44.041873 
L 287.36136 43.621922 
L 288.113629 43.621922 
L 288.185336 42.782018 
L 288.538054 42.782018 
L 288.538054 42.362067 
L 288.731266 42.362067 
L 288.731266 41.942115 
L 288.887097 41.942115 
L 288.968651 41.102212 
L 289.393281 41.102212 
L 289.393281 40.68226 
L 289.637995 40.68226 
L 289.742333 39.422405 
L 290.262788 39.422405 
L 290.262788 39.002454 
L 290.856469 39.002454 
L 290.956112 38.16255 
L 291.34453 38.16255 
L 291.406811 37.322647 
L 291.657873 37.322647 
L 291.739427 36.482744 
L 291.898576 36.482744 
L 291.898576 36.062792 
L 292.513109 36.062792 
L 292.583505 35.222889 
L 292.718635 35.222889 
L 292.718635 34.802937 
L 293.627245 34.802937 
L 293.627245 34.382986 
L 294.177587 34.382986 
L 294.177587 33.963034 
L 294.308239 33.963034 
L 294.308239 33.543082 
L 295.354281 33.543082 
L 295.354281 33.123131 
L 295.944027 33.123131 
L 295.944027 32.703179 
L 296.061975 32.703179 
L 296.061975 32.283228 
L 297.079015 32.283228 
L 297.079015 31.863276 
L 298.714803 31.863276 
L 298.714803 31.443324 
L 298.915753 31.443324 
L 298.915753 31.023373 
L 299.59869 31.023373 
L 299.59869 30.603421 
L 301.962112 30.603421 
L 301.962112 30.183469 
L 302.961204 30.183469 
L 302.961204 29.763518 
L 305.73198 29.763518 
L 305.73198 29.343566 
L 305.94047 29.343566 
L 305.94047 28.923614 
L 306.238535 28.923614 
L 306.238535 28.503663 
L 308.628905 28.503663 
L 308.628905 28.083711 
L 310.641458 28.083711 
L 310.641458 27.243808 
L 311.131442 27.243808 
L 311.131442 26.823856 
L 314.207615 26.823856 
L 314.207615 26.403905 
L 321.998865 26.403905 
L 321.998865 25.983953 
L 328.340646 25.983953 
L 328.340646 25.564001 
L 329.877082 25.564001 
L 329.877082 24.724098 
L 335.455791 24.724098 
L 335.455791 23.884195 
L 453.192 23.884195 
L 453.192 23.884195 
" style="fill:none;stroke:#ff0000;stroke-linecap:square;stroke-width:3;"/>
   </g>
   <g id="line2d_69">
    <path clip-path="url(#p11d37c24ce)" style="fill:none;stroke:#ff0000;stroke-linecap:square;stroke-width:3;"/>
   </g>
   <g id="line2d_70">
    <path clip-path="url(#p11d37c24ce)" d="M 243.676 291.28 
L 243.676 3 
" style="fill:none;stroke:#000000;stroke-linecap:square;stroke-width:1.5;"/>
   </g>
   <g id="line2d_71">
    <path clip-path="url(#p11d37c24ce)" d="M 34.16 147.14 
L 453.192 147.14 
" style="fill:none;stroke:#000000;stroke-dasharray:2,3.3;stroke-dashoffset:0;stroke-width:2;"/>
   </g>
   <g id="patch_3">
    <path d="M 34.16 291.28 
L 34.16 3 
" style="fill:none;stroke:#000000;stroke-linecap:square;stroke-linejoin:miter;stroke-width:0.8;"/>
   </g>
   <g id="patch_4">
    <path d="M 453.192 291.28 
L 453.192 3 
" style="fill:none;stroke:#000000;stroke-linecap:square;stroke-linejoin:miter;stroke-width:0.8;"/>
   </g>
   <g id="patch_5">
    <path d="M 34.16 291.28 
L 453.192 291.28 
" style="fill:none;stroke:#000000;stroke-linecap:square;stroke-linejoin:miter;stroke-width:0.8;"/>
   </g>
   <g id="patch_6">
    <path d="M 34.16 3 
L 453.192 3 
" style="fill:none;stroke:#000000;stroke-linecap:square;stroke-linejoin:miter;stroke-width:0.8;"/>
   </g>
   <g id="text_5">
    <!-- f20-f24,5-D -->
    <g transform="translate(330.91761 285.5144)scale(0.2 -0.2)">
     <defs>
      <path d="M 19.1875 8.296875 
L 53.609375 8.296875 
L 53.609375 0 
L 7.328125 0 
L 7.328125 8.296875 
Q 12.9375 14.109375 22.625 23.890625 
Q 32.328125 33.6875 34.8125 36.53125 
Q 39.546875 41.84375 41.421875 45.53125 
Q 43.3125 49.21875 43.3125 52.78125 
Q 43.3125 58.59375 39.234375 62.25 
Q 35.15625 65.921875 28.609375 65.921875 
Q 23.96875 65.921875 18.8125 64.3125 
Q 13.671875 62.703125 7.8125 59.421875 
L 7.8125 69.390625 
Q 13.765625 71.78125 18.9375 73 
Q 24.125 74.21875 28.421875 74.21875 
Q 39.75 74.21875 46.484375 68.546875 
Q 53.21875 62.890625 53.21875 53.421875 
Q 53.21875 48.921875 51.53125 44.890625 
Q 49.859375 40.875 45.40625 35.40625 
Q 44.1875 33.984375 37.640625 27.21875 
Q 31.109375 20.453125 19.1875 8.296875 
z
" id="DejaVuSans-50"/>
      <path d="M 37.796875 64.3125 
L 12.890625 25.390625 
L 37.796875 25.390625 
z
M 35.203125 72.90625 
L 47.609375 72.90625 
L 47.609375 25.390625 
L 58.015625 25.390625 
L 58.015625 17.1875 
L 47.609375 17.1875 
L 47.609375 0 
L 37.796875 0 
L 37.796875 17.1875 
L 4.890625 17.1875 
L 4.890625 26.703125 
z
" id="DejaVuSans-52"/>
      <path d="M 11.71875 12.40625 
L 22.015625 12.40625 
L 22.015625 4 
L 14.015625 -11.625 
L 7.71875 -11.625 
L 11.71875 4 
z
" id="DejaVuSans-44"/>
      <path d="M 10.796875 72.90625 
L 49.515625 72.90625 
L 49.515625 64.59375 
L 19.828125 64.59375 
L 19.828125 46.734375 
Q 21.96875 47.46875 24.109375 47.828125 
Q 26.265625 48.1875 28.421875 48.1875 
Q 40.625 48.1875 47.75 41.5 
Q 54.890625 34.8125 54.890625 23.390625 
Q 54.890625 11.625 47.5625 5.09375 
Q 40.234375 -1.421875 26.90625 -1.421875 
Q 22.3125 -1.421875 17.546875 -0.640625 
Q 12.796875 0.140625 7.71875 1.703125 
L 7.71875 11.625 
Q 12.109375 9.234375 16.796875 8.0625 
Q 21.484375 6.890625 26.703125 6.890625 
Q 35.15625 6.890625 40.078125 11.328125 
Q 45.015625 15.765625 45.015625 23.390625 
Q 45.015625 31 40.078125 35.4375 
Q 35.15625 39.890625 26.703125 39.890625 
Q 22.75 39.890625 18.8125 39.015625 
Q 14.890625 38.140625 10.796875 36.28125 
z
" id="DejaVuSans-53"/>
      <path d="M 19.671875 64.796875 
L 19.671875 8.109375 
L 31.59375 8.109375 
Q 46.6875 8.109375 53.6875 14.9375 
Q 60.6875 21.78125 60.6875 36.53125 
Q 60.6875 51.171875 53.6875 57.984375 
Q 46.6875 64.796875 31.59375 64.796875 
z
M 9.8125 72.90625 
L 30.078125 72.90625 
Q 51.265625 72.90625 61.171875 64.09375 
Q 71.09375 55.28125 71.09375 36.53125 
Q 71.09375 17.671875 61.125 8.828125 
Q 51.171875 0 30.078125 0 
L 9.8125 0 
z
" id="DejaVuSans-68"/>
     </defs>
     <use xlink:href="#DejaVuSans-102"/>
     <use x="35.205078" xlink:href="#DejaVuSans-50"/>
     <use x="98.828125" xlink:href="#DejaVuSans-48"/>
     <use x="162.451172" xlink:href="#DejaVuSans-45"/>
     <use x="198.535156" xlink:href="#DejaVuSans-102"/>
     <use x="233.740234" xlink:href="#DejaVuSans-50"/>
     <use x="297.363281" xlink:href="#DejaVuSans-52"/>
     <use x="360.986328" xlink:href="#DejaVuSans-44"/>
     <use x="392.773438" xlink:href="#DejaVuSans-53"/>
     <use x="456.396484" xlink:href="#DejaVuSans-45"/>
     <use x="492.480469" xlink:href="#DejaVuSans-68"/>
    </g>
   </g>
   <g id="text_6">
    <!-- v2.4 -->
    <g style="fill:#808080;" transform="translate(232.765062 286.317512)scale(0.1 -0.1)">
     <defs>
      <path d="M 10.6875 12.40625 
L 21 12.40625 
L 21 0 
L 10.6875 0 
z
" id="DejaVuSans-46"/>
     </defs>
     <use xlink:href="#DejaVuSans-118"/>
     <use x="59.179688" xlink:href="#DejaVuSans-50"/>
     <use x="122.802734" xlink:href="#DejaVuSans-46"/>
     <use x="154.589844" xlink:href="#DejaVuSans-52"/>
    </g>
   </g>
   <g id="legend_1">
    <g id="patch_7">
     <path d="M 309.970125 281.28 
L 439.192 281.28 
Q 443.192 281.28 443.192 277.28 
L 443.192 161.855 
Q 443.192 157.855 439.192 157.855 
L 309.970125 157.855 
Q 305.970125 157.855 305.970125 161.855 
L 305.970125 277.28 
Q 305.970125 281.28 309.970125 281.28 
z
" style="fill:#ffffff;opacity:0.2;stroke:#cccccc;stroke-linejoin:miter;"/>
    </g>
    <g id="line2d_72">
     <path d="M 313.970125 174.051875 
L 353.970125 174.051875 
" style="fill:none;stroke:#000000;stroke-linecap:square;stroke-width:3;"/>
    </g>
    <g id="line2d_73"/>
    <g id="text_7">
     <!-- 1: 5/5 -->
     <g transform="translate(369.970125 181.051875)scale(0.2 -0.2)">
      <defs>
       <path d="M 11.71875 12.40625 
L 22.015625 12.40625 
L 22.015625 0 
L 11.71875 0 
z
M 11.71875 51.703125 
L 22.015625 51.703125 
L 22.015625 39.3125 
L 11.71875 39.3125 
z
" id="DejaVuSans-58"/>
       <path d="M 25.390625 72.90625 
L 33.6875 72.90625 
L 8.296875 -9.28125 
L 0 -9.28125 
z
" id="DejaVuSans-47"/>
      </defs>
      <use xlink:href="#DejaVuSans-49"/>
      <use x="63.623047" xlink:href="#DejaVuSans-58"/>
      <use x="97.314453" xlink:href="#DejaVuSans-32"/>
      <use x="129.101562" xlink:href="#DejaVuSans-53"/>
      <use x="192.724609" xlink:href="#DejaVuSans-47"/>
      <use x="226.416016" xlink:href="#DejaVuSans-53"/>
     </g>
    </g>
    <g id="line2d_74">
     <path d="M 313.970125 203.408125 
L 353.970125 203.408125 
" style="fill:none;stroke:#00bfbf;stroke-linecap:square;stroke-width:3;"/>
    </g>
    <g id="line2d_75"/>
    <g id="text_8">
     <!-- -1: 4/4 -->
     <g transform="translate(369.970125 210.408125)scale(0.2 -0.2)">
      <use xlink:href="#DejaVuSans-45"/>
      <use x="36.083984" xlink:href="#DejaVuSans-49"/>
      <use x="99.707031" xlink:href="#DejaVuSans-58"/>
      <use x="133.398438" xlink:href="#DejaVuSans-32"/>
      <use x="165.185547" xlink:href="#DejaVuSans-52"/>
      <use x="228.808594" xlink:href="#DejaVuSans-47"/>
      <use x="262.5" xlink:href="#DejaVuSans-52"/>
     </g>
    </g>
    <g id="line2d_76">
     <path d="M 313.970125 232.764375 
L 353.970125 232.764375 
" style="fill:none;stroke:#bf00bf;stroke-linecap:square;stroke-width:3;"/>
    </g>
    <g id="line2d_77"/>
    <g id="text_9">
     <!-- -4: 4/3 -->
     <g transform="translate(369.970125 239.764375)scale(0.2 -0.2)">
      <defs>
       <path d="M 40.578125 39.3125 
Q 47.65625 37.796875 51.625 33 
Q 55.609375 28.21875 55.609375 21.1875 
Q 55.609375 10.40625 48.1875 4.484375 
Q 40.765625 -1.421875 27.09375 -1.421875 
Q 22.515625 -1.421875 17.65625 -0.515625 
Q 12.796875 0.390625 7.625 2.203125 
L 7.625 11.71875 
Q 11.71875 9.328125 16.59375 8.109375 
Q 21.484375 6.890625 26.8125 6.890625 
Q 36.078125 6.890625 40.9375 10.546875 
Q 45.796875 14.203125 45.796875 21.1875 
Q 45.796875 27.640625 41.28125 31.265625 
Q 36.765625 34.90625 28.71875 34.90625 
L 20.21875 34.90625 
L 20.21875 43.015625 
L 29.109375 43.015625 
Q 36.375 43.015625 40.234375 45.921875 
Q 44.09375 48.828125 44.09375 54.296875 
Q 44.09375 59.90625 40.109375 62.90625 
Q 36.140625 65.921875 28.71875 65.921875 
Q 24.65625 65.921875 20.015625 65.03125 
Q 15.375 64.15625 9.8125 62.3125 
L 9.8125 71.09375 
Q 15.4375 72.65625 20.34375 73.4375 
Q 25.25 74.21875 29.59375 74.21875 
Q 40.828125 74.21875 47.359375 69.109375 
Q 53.90625 64.015625 53.90625 55.328125 
Q 53.90625 49.265625 50.4375 45.09375 
Q 46.96875 40.921875 40.578125 39.3125 
z
" id="DejaVuSans-51"/>
      </defs>
      <use xlink:href="#DejaVuSans-45"/>
      <use x="36.083984" xlink:href="#DejaVuSans-52"/>
      <use x="99.707031" xlink:href="#DejaVuSans-58"/>
      <use x="133.398438" xlink:href="#DejaVuSans-32"/>
      <use x="165.185547" xlink:href="#DejaVuSans-52"/>
      <use x="228.808594" xlink:href="#DejaVuSans-47"/>
      <use x="262.5" xlink:href="#DejaVuSans-51"/>
     </g>
    </g>
    <g id="line2d_78">
     <path d="M 313.970125 262.120625 
L 353.970125 262.120625 
" style="fill:none;stroke:#ff0000;stroke-linecap:square;stroke-width:3;"/>
    </g>
    <g id="line2d_79"/>
    <g id="text_10">
     <!-- -8: 4/3 -->
     <g transform="translate(369.970125 269.120625)scale(0.2 -0.2)">
      <defs>
       <path d="M 31.78125 34.625 
Q 24.75 34.625 20.71875 30.859375 
Q 16.703125 27.09375 16.703125 20.515625 
Q 16.703125 13.921875 20.71875 10.15625 
Q 24.75 6.390625 31.78125 6.390625 
Q 38.8125 6.390625 42.859375 10.171875 
Q 46.921875 13.96875 46.921875 20.515625 
Q 46.921875 27.09375 42.890625 30.859375 
Q 38.875 34.625 31.78125 34.625 
z
M 21.921875 38.8125 
Q 15.578125 40.375 12.03125 44.71875 
Q 8.5 49.078125 8.5 55.328125 
Q 8.5 64.0625 14.71875 69.140625 
Q 20.953125 74.21875 31.78125 74.21875 
Q 42.671875 74.21875 48.875 69.140625 
Q 55.078125 64.0625 55.078125 55.328125 
Q 55.078125 49.078125 51.53125 44.71875 
Q 48 40.375 41.703125 38.8125 
Q 48.828125 37.15625 52.796875 32.3125 
Q 56.78125 27.484375 56.78125 20.515625 
Q 56.78125 9.90625 50.3125 4.234375 
Q 43.84375 -1.421875 31.78125 -1.421875 
Q 19.734375 -1.421875 13.25 4.234375 
Q 6.78125 9.90625 6.78125 20.515625 
Q 6.78125 27.484375 10.78125 32.3125 
Q 14.796875 37.15625 21.921875 38.8125 
z
M 18.3125 54.390625 
Q 18.3125 48.734375 21.84375 45.5625 
Q 25.390625 42.390625 31.78125 42.390625 
Q 38.140625 42.390625 41.71875 45.5625 
Q 45.3125 48.734375 45.3125 54.390625 
Q 45.3125 60.0625 41.71875 63.234375 
Q 38.140625 66.40625 31.78125 66.40625 
Q 25.390625 66.40625 21.84375 63.234375 
Q 18.3125 60.0625 18.3125 54.390625 
z
" id="DejaVuSans-56"/>
      </defs>
      <use xlink:href="#DejaVuSans-45"/>
      <use x="36.083984" xlink:href="#DejaVuSans-56"/>
      <use x="99.707031" xlink:href="#DejaVuSans-58"/>
      <use x="133.398438" xlink:href="#DejaVuSans-32"/>
      <use x="165.185547" xlink:href="#DejaVuSans-52"/>
      <use x="228.808594" xlink:href="#DejaVuSans-47"/>
      <use x="262.5" xlink:href="#DejaVuSans-51"/>
     </g>
    </g>
   </g>
  </g>
 </g>
 <defs>
  <clipPath id="p11d37c24ce">
   <rect height="288.28" width="419.032" x="34.16" y="3"/>
  </clipPath>
 </defs>
</svg>
