<?xml version="1.0" encoding="utf-8" standalone="no"?>
<!DOCTYPE svg PUBLIC "-//W3C//DTD SVG 1.1//EN"
  "http://www.w3.org/Graphics/SVG/1.1/DTD/svg11.dtd">
<!-- Created with matplotlib (https://matplotlib.org/) -->
<svg height="345.6pt" version="1.1" viewBox="0 0 460.8 345.6" width="460.8pt" xmlns="http://www.w3.org/2000/svg" xmlns:xlink="http://www.w3.org/1999/xlink">
 <metadata>
  <rdf:RDF xmlns:cc="http://creativecommons.org/ns#" xmlns:dc="http://purl.org/dc/elements/1.1/" xmlns:rdf="http://www.w3.org/1999/02/22-rdf-syntax-ns#">
   <cc:Work>
    <dc:type rdf:resource="http://purl.org/dc/dcmitype/StillImage"/>
    <dc:date>2021-05-01T17:08:45.877140</dc:date>
    <dc:format>image/svg+xml</dc:format>
    <dc:creator>
     <cc:Agent>
      <dc:title>Matplotlib v3.3.2, https://matplotlib.org/</dc:title>
     </cc:Agent>
    </dc:creator>
   </cc:Work>
  </rdf:RDF>
 </metadata>
 <defs>
  <style type="text/css">*{stroke-linecap:butt;stroke-linejoin:round;}</style>
 </defs>
 <g id="figure_1">
  <g id="patch_1">
   <path d="M 0 345.6 
L 460.8 345.6 
L 460.8 0 
L 0 0 
z
" style="fill:#ffffff;"/>
  </g>
  <g id="axes_1">
   <g id="patch_2">
    <path d="M 34.16 291.28 
L 453.192 291.28 
L 453.192 3 
L 34.16 3 
z
" style="fill:#ffffff;"/>
   </g>
   <g id="matplotlib.axis_1">
    <g id="xtick_1">
     <g id="line2d_1">
      <path clip-path="url(#p1a656205b3)" d="M 165.834182 291.28 
L 165.834182 3 
" style="fill:none;stroke:#b0b0b0;stroke-linecap:square;stroke-width:0.8;"/>
     </g>
     <g id="line2d_2">
      <defs>
       <path d="M 0 0 
L 0 3.5 
" id="m860376aefc" style="stroke:#000000;stroke-width:0.8;"/>
      </defs>
      <g>
       <use style="stroke:#000000;stroke-width:0.8;" x="165.834182" xlink:href="#m860376aefc" y="291.28"/>
      </g>
     </g>
     <g id="text_1">
      <!-- -1 -->
      <g transform="translate(155.86387 313.476875)scale(0.2 -0.2)">
       <defs>
        <path d="M 4.890625 31.390625 
L 31.203125 31.390625 
L 31.203125 23.390625 
L 4.890625 23.390625 
z
" id="DejaVuSans-45"/>
        <path d="M 12.40625 8.296875 
L 28.515625 8.296875 
L 28.515625 63.921875 
L 10.984375 60.40625 
L 10.984375 69.390625 
L 28.421875 72.90625 
L 38.28125 72.90625 
L 38.28125 8.296875 
L 54.390625 8.296875 
L 54.390625 0 
L 12.40625 0 
z
" id="DejaVuSans-49"/>
       </defs>
       <use xlink:href="#DejaVuSans-45"/>
       <use x="36.083984" xlink:href="#DejaVuSans-49"/>
      </g>
     </g>
    </g>
    <g id="xtick_2">
     <g id="line2d_3">
      <path clip-path="url(#p1a656205b3)" d="M 321.517818 291.28 
L 321.517818 3 
" style="fill:none;stroke:#b0b0b0;stroke-linecap:square;stroke-width:0.8;"/>
     </g>
     <g id="line2d_4">
      <g>
       <use style="stroke:#000000;stroke-width:0.8;" x="321.517818" xlink:href="#m860376aefc" y="291.28"/>
      </g>
     </g>
     <g id="text_2">
      <!-- 1 -->
      <g transform="translate(315.155318 313.476875)scale(0.2 -0.2)">
       <use xlink:href="#DejaVuSans-49"/>
      </g>
     </g>
    </g>
    <g id="xtick_3">
     <g id="line2d_5">
      <defs>
       <path d="M 0 0 
L 0 2 
" id="md7d774bd60" style="stroke:#000000;stroke-width:0.6;"/>
      </defs>
      <g>
       <use style="stroke:#000000;stroke-width:0.6;" x="47.290533" xlink:href="#md7d774bd60" y="291.28"/>
      </g>
     </g>
    </g>
    <g id="xtick_4">
     <g id="line2d_6">
      <g>
       <use style="stroke:#000000;stroke-width:0.6;" x="57.015991" xlink:href="#md7d774bd60" y="291.28"/>
      </g>
     </g>
    </g>
    <g id="xtick_5">
     <g id="line2d_7">
      <g>
       <use style="stroke:#000000;stroke-width:0.6;" x="64.559643" xlink:href="#md7d774bd60" y="291.28"/>
      </g>
     </g>
    </g>
    <g id="xtick_6">
     <g id="line2d_8">
      <g>
       <use style="stroke:#000000;stroke-width:0.6;" x="70.723255" xlink:href="#md7d774bd60" y="291.28"/>
      </g>
     </g>
    </g>
    <g id="xtick_7">
     <g id="line2d_9">
      <g>
       <use style="stroke:#000000;stroke-width:0.6;" x="75.934514" xlink:href="#md7d774bd60" y="291.28"/>
      </g>
     </g>
    </g>
    <g id="xtick_8">
     <g id="line2d_10">
      <g>
       <use style="stroke:#000000;stroke-width:0.6;" x="80.448713" xlink:href="#md7d774bd60" y="291.28"/>
      </g>
     </g>
    </g>
    <g id="xtick_9">
     <g id="line2d_11">
      <g>
       <use style="stroke:#000000;stroke-width:0.6;" x="84.430518" xlink:href="#md7d774bd60" y="291.28"/>
      </g>
     </g>
    </g>
    <g id="xtick_10">
     <g id="line2d_12">
      <g>
       <use style="stroke:#000000;stroke-width:0.6;" x="111.425087" xlink:href="#md7d774bd60" y="291.28"/>
      </g>
     </g>
    </g>
    <g id="xtick_11">
     <g id="line2d_13">
      <g>
       <use style="stroke:#000000;stroke-width:0.6;" x="125.13235" xlink:href="#md7d774bd60" y="291.28"/>
      </g>
     </g>
    </g>
    <g id="xtick_12">
     <g id="line2d_14">
      <g>
       <use style="stroke:#000000;stroke-width:0.6;" x="134.857809" xlink:href="#md7d774bd60" y="291.28"/>
      </g>
     </g>
    </g>
    <g id="xtick_13">
     <g id="line2d_15">
      <g>
       <use style="stroke:#000000;stroke-width:0.6;" x="142.40146" xlink:href="#md7d774bd60" y="291.28"/>
      </g>
     </g>
    </g>
    <g id="xtick_14">
     <g id="line2d_16">
      <g>
       <use style="stroke:#000000;stroke-width:0.6;" x="148.565072" xlink:href="#md7d774bd60" y="291.28"/>
      </g>
     </g>
    </g>
    <g id="xtick_15">
     <g id="line2d_17">
      <g>
       <use style="stroke:#000000;stroke-width:0.6;" x="153.776332" xlink:href="#md7d774bd60" y="291.28"/>
      </g>
     </g>
    </g>
    <g id="xtick_16">
     <g id="line2d_18">
      <g>
       <use style="stroke:#000000;stroke-width:0.6;" x="158.290531" xlink:href="#md7d774bd60" y="291.28"/>
      </g>
     </g>
    </g>
    <g id="xtick_17">
     <g id="line2d_19">
      <g>
       <use style="stroke:#000000;stroke-width:0.6;" x="162.272336" xlink:href="#md7d774bd60" y="291.28"/>
      </g>
     </g>
    </g>
    <g id="xtick_18">
     <g id="line2d_20">
      <g>
       <use style="stroke:#000000;stroke-width:0.6;" x="189.266904" xlink:href="#md7d774bd60" y="291.28"/>
      </g>
     </g>
    </g>
    <g id="xtick_19">
     <g id="line2d_21">
      <g>
       <use style="stroke:#000000;stroke-width:0.6;" x="202.974168" xlink:href="#md7d774bd60" y="291.28"/>
      </g>
     </g>
    </g>
    <g id="xtick_20">
     <g id="line2d_22">
      <g>
       <use style="stroke:#000000;stroke-width:0.6;" x="212.699626" xlink:href="#md7d774bd60" y="291.28"/>
      </g>
     </g>
    </g>
    <g id="xtick_21">
     <g id="line2d_23">
      <g>
       <use style="stroke:#000000;stroke-width:0.6;" x="220.243278" xlink:href="#md7d774bd60" y="291.28"/>
      </g>
     </g>
    </g>
    <g id="xtick_22">
     <g id="line2d_24">
      <g>
       <use style="stroke:#000000;stroke-width:0.6;" x="226.40689" xlink:href="#md7d774bd60" y="291.28"/>
      </g>
     </g>
    </g>
    <g id="xtick_23">
     <g id="line2d_25">
      <g>
       <use style="stroke:#000000;stroke-width:0.6;" x="231.61815" xlink:href="#md7d774bd60" y="291.28"/>
      </g>
     </g>
    </g>
    <g id="xtick_24">
     <g id="line2d_26">
      <g>
       <use style="stroke:#000000;stroke-width:0.6;" x="236.132348" xlink:href="#md7d774bd60" y="291.28"/>
      </g>
     </g>
    </g>
    <g id="xtick_25">
     <g id="line2d_27">
      <g>
       <use style="stroke:#000000;stroke-width:0.6;" x="240.114154" xlink:href="#md7d774bd60" y="291.28"/>
      </g>
     </g>
    </g>
    <g id="xtick_26">
     <g id="line2d_28">
      <g>
       <use style="stroke:#000000;stroke-width:0.6;" x="267.108722" xlink:href="#md7d774bd60" y="291.28"/>
      </g>
     </g>
    </g>
    <g id="xtick_27">
     <g id="line2d_29">
      <g>
       <use style="stroke:#000000;stroke-width:0.6;" x="280.815986" xlink:href="#md7d774bd60" y="291.28"/>
      </g>
     </g>
    </g>
    <g id="xtick_28">
     <g id="line2d_30">
      <g>
       <use style="stroke:#000000;stroke-width:0.6;" x="290.541444" xlink:href="#md7d774bd60" y="291.28"/>
      </g>
     </g>
    </g>
    <g id="xtick_29">
     <g id="line2d_31">
      <g>
       <use style="stroke:#000000;stroke-width:0.6;" x="298.085096" xlink:href="#md7d774bd60" y="291.28"/>
      </g>
     </g>
    </g>
    <g id="xtick_30">
     <g id="line2d_32">
      <g>
       <use style="stroke:#000000;stroke-width:0.6;" x="304.248708" xlink:href="#md7d774bd60" y="291.28"/>
      </g>
     </g>
    </g>
    <g id="xtick_31">
     <g id="line2d_33">
      <g>
       <use style="stroke:#000000;stroke-width:0.6;" x="309.459968" xlink:href="#md7d774bd60" y="291.28"/>
      </g>
     </g>
    </g>
    <g id="xtick_32">
     <g id="line2d_34">
      <g>
       <use style="stroke:#000000;stroke-width:0.6;" x="313.974166" xlink:href="#md7d774bd60" y="291.28"/>
      </g>
     </g>
    </g>
    <g id="xtick_33">
     <g id="line2d_35">
      <g>
       <use style="stroke:#000000;stroke-width:0.6;" x="317.955971" xlink:href="#md7d774bd60" y="291.28"/>
      </g>
     </g>
    </g>
    <g id="xtick_34">
     <g id="line2d_36">
      <g>
       <use style="stroke:#000000;stroke-width:0.6;" x="344.95054" xlink:href="#md7d774bd60" y="291.28"/>
      </g>
     </g>
    </g>
    <g id="xtick_35">
     <g id="line2d_37">
      <g>
       <use style="stroke:#000000;stroke-width:0.6;" x="358.657803" xlink:href="#md7d774bd60" y="291.28"/>
      </g>
     </g>
    </g>
    <g id="xtick_36">
     <g id="line2d_38">
      <g>
       <use style="stroke:#000000;stroke-width:0.6;" x="368.383262" xlink:href="#md7d774bd60" y="291.28"/>
      </g>
     </g>
    </g>
    <g id="xtick_37">
     <g id="line2d_39">
      <g>
       <use style="stroke:#000000;stroke-width:0.6;" x="375.926913" xlink:href="#md7d774bd60" y="291.28"/>
      </g>
     </g>
    </g>
    <g id="xtick_38">
     <g id="line2d_40">
      <g>
       <use style="stroke:#000000;stroke-width:0.6;" x="382.090525" xlink:href="#md7d774bd60" y="291.28"/>
      </g>
     </g>
    </g>
    <g id="xtick_39">
     <g id="line2d_41">
      <g>
       <use style="stroke:#000000;stroke-width:0.6;" x="387.301785" xlink:href="#md7d774bd60" y="291.28"/>
      </g>
     </g>
    </g>
    <g id="xtick_40">
     <g id="line2d_42">
      <g>
       <use style="stroke:#000000;stroke-width:0.6;" x="391.815984" xlink:href="#md7d774bd60" y="291.28"/>
      </g>
     </g>
    </g>
    <g id="xtick_41">
     <g id="line2d_43">
      <g>
       <use style="stroke:#000000;stroke-width:0.6;" x="395.797789" xlink:href="#md7d774bd60" y="291.28"/>
      </g>
     </g>
    </g>
    <g id="xtick_42">
     <g id="line2d_44">
      <g>
       <use style="stroke:#000000;stroke-width:0.6;" x="422.792357" xlink:href="#md7d774bd60" y="291.28"/>
      </g>
     </g>
    </g>
    <g id="xtick_43">
     <g id="line2d_45">
      <g>
       <use style="stroke:#000000;stroke-width:0.6;" x="436.499621" xlink:href="#md7d774bd60" y="291.28"/>
      </g>
     </g>
    </g>
    <g id="xtick_44">
     <g id="line2d_46">
      <g>
       <use style="stroke:#000000;stroke-width:0.6;" x="446.22508" xlink:href="#md7d774bd60" y="291.28"/>
      </g>
     </g>
    </g>
    <g id="text_3">
     <!-- log10 of FEvals ratio -->
     <g transform="translate(141.371312 336.833125)scale(0.2 -0.2)">
      <defs>
       <path d="M 9.421875 75.984375 
L 18.40625 75.984375 
L 18.40625 0 
L 9.421875 0 
z
" id="DejaVuSans-108"/>
       <path d="M 30.609375 48.390625 
Q 23.390625 48.390625 19.1875 42.75 
Q 14.984375 37.109375 14.984375 27.296875 
Q 14.984375 17.484375 19.15625 11.84375 
Q 23.34375 6.203125 30.609375 6.203125 
Q 37.796875 6.203125 41.984375 11.859375 
Q 46.1875 17.53125 46.1875 27.296875 
Q 46.1875 37.015625 41.984375 42.703125 
Q 37.796875 48.390625 30.609375 48.390625 
z
M 30.609375 56 
Q 42.328125 56 49.015625 48.375 
Q 55.71875 40.765625 55.71875 27.296875 
Q 55.71875 13.875 49.015625 6.21875 
Q 42.328125 -1.421875 30.609375 -1.421875 
Q 18.84375 -1.421875 12.171875 6.21875 
Q 5.515625 13.875 5.515625 27.296875 
Q 5.515625 40.765625 12.171875 48.375 
Q 18.84375 56 30.609375 56 
z
" id="DejaVuSans-111"/>
       <path d="M 45.40625 27.984375 
Q 45.40625 37.75 41.375 43.109375 
Q 37.359375 48.484375 30.078125 48.484375 
Q 22.859375 48.484375 18.828125 43.109375 
Q 14.796875 37.75 14.796875 27.984375 
Q 14.796875 18.265625 18.828125 12.890625 
Q 22.859375 7.515625 30.078125 7.515625 
Q 37.359375 7.515625 41.375 12.890625 
Q 45.40625 18.265625 45.40625 27.984375 
z
M 54.390625 6.78125 
Q 54.390625 -7.171875 48.1875 -13.984375 
Q 42 -20.796875 29.203125 -20.796875 
Q 24.46875 -20.796875 20.265625 -20.09375 
Q 16.0625 -19.390625 12.109375 -17.921875 
L 12.109375 -9.1875 
Q 16.0625 -11.328125 19.921875 -12.34375 
Q 23.78125 -13.375 27.78125 -13.375 
Q 36.625 -13.375 41.015625 -8.765625 
Q 45.40625 -4.15625 45.40625 5.171875 
L 45.40625 9.625 
Q 42.625 4.78125 38.28125 2.390625 
Q 33.9375 0 27.875 0 
Q 17.828125 0 11.671875 7.65625 
Q 5.515625 15.328125 5.515625 27.984375 
Q 5.515625 40.671875 11.671875 48.328125 
Q 17.828125 56 27.875 56 
Q 33.9375 56 38.28125 53.609375 
Q 42.625 51.21875 45.40625 46.390625 
L 45.40625 54.6875 
L 54.390625 54.6875 
z
" id="DejaVuSans-103"/>
       <path d="M 31.78125 66.40625 
Q 24.171875 66.40625 20.328125 58.90625 
Q 16.5 51.421875 16.5 36.375 
Q 16.5 21.390625 20.328125 13.890625 
Q 24.171875 6.390625 31.78125 6.390625 
Q 39.453125 6.390625 43.28125 13.890625 
Q 47.125 21.390625 47.125 36.375 
Q 47.125 51.421875 43.28125 58.90625 
Q 39.453125 66.40625 31.78125 66.40625 
z
M 31.78125 74.21875 
Q 44.046875 74.21875 50.515625 64.515625 
Q 56.984375 54.828125 56.984375 36.375 
Q 56.984375 17.96875 50.515625 8.265625 
Q 44.046875 -1.421875 31.78125 -1.421875 
Q 19.53125 -1.421875 13.0625 8.265625 
Q 6.59375 17.96875 6.59375 36.375 
Q 6.59375 54.828125 13.0625 64.515625 
Q 19.53125 74.21875 31.78125 74.21875 
z
" id="DejaVuSans-48"/>
       <path id="DejaVuSans-32"/>
       <path d="M 37.109375 75.984375 
L 37.109375 68.5 
L 28.515625 68.5 
Q 23.6875 68.5 21.796875 66.546875 
Q 19.921875 64.59375 19.921875 59.515625 
L 19.921875 54.6875 
L 34.71875 54.6875 
L 34.71875 47.703125 
L 19.921875 47.703125 
L 19.921875 0 
L 10.890625 0 
L 10.890625 47.703125 
L 2.296875 47.703125 
L 2.296875 54.6875 
L 10.890625 54.6875 
L 10.890625 58.5 
Q 10.890625 67.625 15.140625 71.796875 
Q 19.390625 75.984375 28.609375 75.984375 
z
" id="DejaVuSans-102"/>
       <path d="M 9.8125 72.90625 
L 51.703125 72.90625 
L 51.703125 64.59375 
L 19.671875 64.59375 
L 19.671875 43.109375 
L 48.578125 43.109375 
L 48.578125 34.8125 
L 19.671875 34.8125 
L 19.671875 0 
L 9.8125 0 
z
" id="DejaVuSans-70"/>
       <path d="M 9.8125 72.90625 
L 55.90625 72.90625 
L 55.90625 64.59375 
L 19.671875 64.59375 
L 19.671875 43.015625 
L 54.390625 43.015625 
L 54.390625 34.71875 
L 19.671875 34.71875 
L 19.671875 8.296875 
L 56.78125 8.296875 
L 56.78125 0 
L 9.8125 0 
z
" id="DejaVuSans-69"/>
       <path d="M 2.984375 54.6875 
L 12.5 54.6875 
L 29.59375 8.796875 
L 46.6875 54.6875 
L 56.203125 54.6875 
L 35.6875 0 
L 23.484375 0 
z
" id="DejaVuSans-118"/>
       <path d="M 34.28125 27.484375 
Q 23.390625 27.484375 19.1875 25 
Q 14.984375 22.515625 14.984375 16.5 
Q 14.984375 11.71875 18.140625 8.90625 
Q 21.296875 6.109375 26.703125 6.109375 
Q 34.1875 6.109375 38.703125 11.40625 
Q 43.21875 16.703125 43.21875 25.484375 
L 43.21875 27.484375 
z
M 52.203125 31.203125 
L 52.203125 0 
L 43.21875 0 
L 43.21875 8.296875 
Q 40.140625 3.328125 35.546875 0.953125 
Q 30.953125 -1.421875 24.3125 -1.421875 
Q 15.921875 -1.421875 10.953125 3.296875 
Q 6 8.015625 6 15.921875 
Q 6 25.140625 12.171875 29.828125 
Q 18.359375 34.515625 30.609375 34.515625 
L 43.21875 34.515625 
L 43.21875 35.40625 
Q 43.21875 41.609375 39.140625 45 
Q 35.0625 48.390625 27.6875 48.390625 
Q 23 48.390625 18.546875 47.265625 
Q 14.109375 46.140625 10.015625 43.890625 
L 10.015625 52.203125 
Q 14.9375 54.109375 19.578125 55.046875 
Q 24.21875 56 28.609375 56 
Q 40.484375 56 46.34375 49.84375 
Q 52.203125 43.703125 52.203125 31.203125 
z
" id="DejaVuSans-97"/>
       <path d="M 44.28125 53.078125 
L 44.28125 44.578125 
Q 40.484375 46.53125 36.375 47.5 
Q 32.28125 48.484375 27.875 48.484375 
Q 21.1875 48.484375 17.84375 46.4375 
Q 14.5 44.390625 14.5 40.28125 
Q 14.5 37.15625 16.890625 35.375 
Q 19.28125 33.59375 26.515625 31.984375 
L 29.59375 31.296875 
Q 39.15625 29.25 43.1875 25.515625 
Q 47.21875 21.78125 47.21875 15.09375 
Q 47.21875 7.46875 41.1875 3.015625 
Q 35.15625 -1.421875 24.609375 -1.421875 
Q 20.21875 -1.421875 15.453125 -0.5625 
Q 10.6875 0.296875 5.421875 2 
L 5.421875 11.28125 
Q 10.40625 8.6875 15.234375 7.390625 
Q 20.0625 6.109375 24.8125 6.109375 
Q 31.15625 6.109375 34.5625 8.28125 
Q 37.984375 10.453125 37.984375 14.40625 
Q 37.984375 18.0625 35.515625 20.015625 
Q 33.0625 21.96875 24.703125 23.78125 
L 21.578125 24.515625 
Q 13.234375 26.265625 9.515625 29.90625 
Q 5.8125 33.546875 5.8125 39.890625 
Q 5.8125 47.609375 11.28125 51.796875 
Q 16.75 56 26.8125 56 
Q 31.78125 56 36.171875 55.265625 
Q 40.578125 54.546875 44.28125 53.078125 
z
" id="DejaVuSans-115"/>
       <path d="M 41.109375 46.296875 
Q 39.59375 47.171875 37.8125 47.578125 
Q 36.03125 48 33.890625 48 
Q 26.265625 48 22.1875 43.046875 
Q 18.109375 38.09375 18.109375 28.8125 
L 18.109375 0 
L 9.078125 0 
L 9.078125 54.6875 
L 18.109375 54.6875 
L 18.109375 46.1875 
Q 20.953125 51.171875 25.484375 53.578125 
Q 30.03125 56 36.53125 56 
Q 37.453125 56 38.578125 55.875 
Q 39.703125 55.765625 41.0625 55.515625 
z
" id="DejaVuSans-114"/>
       <path d="M 18.3125 70.21875 
L 18.3125 54.6875 
L 36.8125 54.6875 
L 36.8125 47.703125 
L 18.3125 47.703125 
L 18.3125 18.015625 
Q 18.3125 11.328125 20.140625 9.421875 
Q 21.96875 7.515625 27.59375 7.515625 
L 36.8125 7.515625 
L 36.8125 0 
L 27.59375 0 
Q 17.1875 0 13.234375 3.875 
Q 9.28125 7.765625 9.28125 18.015625 
L 9.28125 47.703125 
L 2.6875 47.703125 
L 2.6875 54.6875 
L 9.28125 54.6875 
L 9.28125 70.21875 
z
" id="DejaVuSans-116"/>
       <path d="M 9.421875 54.6875 
L 18.40625 54.6875 
L 18.40625 0 
L 9.421875 0 
z
M 9.421875 75.984375 
L 18.40625 75.984375 
L 18.40625 64.59375 
L 9.421875 64.59375 
z
" id="DejaVuSans-105"/>
      </defs>
      <use xlink:href="#DejaVuSans-108"/>
      <use x="27.783203" xlink:href="#DejaVuSans-111"/>
      <use x="88.964844" xlink:href="#DejaVuSans-103"/>
      <use x="152.441406" xlink:href="#DejaVuSans-49"/>
      <use x="216.064453" xlink:href="#DejaVuSans-48"/>
      <use x="279.6875" xlink:href="#DejaVuSans-32"/>
      <use x="311.474609" xlink:href="#DejaVuSans-111"/>
      <use x="372.65625" xlink:href="#DejaVuSans-102"/>
      <use x="407.861328" xlink:href="#DejaVuSans-32"/>
      <use x="439.648438" xlink:href="#DejaVuSans-70"/>
      <use x="497.167969" xlink:href="#DejaVuSans-69"/>
      <use x="560.351562" xlink:href="#DejaVuSans-118"/>
      <use x="619.53125" xlink:href="#DejaVuSans-97"/>
      <use x="680.810547" xlink:href="#DejaVuSans-108"/>
      <use x="708.59375" xlink:href="#DejaVuSans-115"/>
      <use x="760.693359" xlink:href="#DejaVuSans-32"/>
      <use x="792.480469" xlink:href="#DejaVuSans-114"/>
      <use x="833.59375" xlink:href="#DejaVuSans-97"/>
      <use x="894.873047" xlink:href="#DejaVuSans-116"/>
      <use x="934.082031" xlink:href="#DejaVuSans-105"/>
      <use x="961.865234" xlink:href="#DejaVuSans-111"/>
     </g>
    </g>
   </g>
   <g id="matplotlib.axis_2">
    <g id="ytick_1">
     <g id="line2d_47">
      <path clip-path="url(#p1a656205b3)" d="M 34.16 288.453725 
L 453.192 288.453725 
" style="fill:none;stroke:#b0b0b0;stroke-linecap:square;stroke-width:0.8;"/>
     </g>
     <g id="line2d_48">
      <defs>
       <path d="M 0 0 
L -3.5 0 
" id="md57f03a69f" style="stroke:#000000;stroke-width:0.8;"/>
      </defs>
      <g>
       <use style="stroke:#000000;stroke-width:0.8;" x="34.16" xlink:href="#md57f03a69f" y="288.453725"/>
      </g>
     </g>
    </g>
    <g id="ytick_2">
     <g id="line2d_49">
      <path clip-path="url(#p1a656205b3)" d="M 34.16 217.796863 
L 453.192 217.796863 
" style="fill:none;stroke:#b0b0b0;stroke-linecap:square;stroke-width:0.8;"/>
     </g>
     <g id="line2d_50">
      <g>
       <use style="stroke:#000000;stroke-width:0.8;" x="34.16" xlink:href="#md57f03a69f" y="217.796863"/>
      </g>
     </g>
    </g>
    <g id="ytick_3">
     <g id="line2d_51">
      <path clip-path="url(#p1a656205b3)" d="M 34.16 147.14 
L 453.192 147.14 
" style="fill:none;stroke:#b0b0b0;stroke-linecap:square;stroke-width:0.8;"/>
     </g>
     <g id="line2d_52">
      <g>
       <use style="stroke:#000000;stroke-width:0.8;" x="34.16" xlink:href="#md57f03a69f" y="147.14"/>
      </g>
     </g>
    </g>
    <g id="ytick_4">
     <g id="line2d_53">
      <path clip-path="url(#p1a656205b3)" d="M 34.16 76.483137 
L 453.192 76.483137 
" style="fill:none;stroke:#b0b0b0;stroke-linecap:square;stroke-width:0.8;"/>
     </g>
     <g id="line2d_54">
      <g>
       <use style="stroke:#000000;stroke-width:0.8;" x="34.16" xlink:href="#md57f03a69f" y="76.483137"/>
      </g>
     </g>
    </g>
    <g id="ytick_5">
     <g id="line2d_55">
      <path clip-path="url(#p1a656205b3)" d="M 34.16 5.826275 
L 453.192 5.826275 
" style="fill:none;stroke:#b0b0b0;stroke-linecap:square;stroke-width:0.8;"/>
     </g>
     <g id="line2d_56">
      <g>
       <use style="stroke:#000000;stroke-width:0.8;" x="34.16" xlink:href="#md57f03a69f" y="5.826275"/>
      </g>
     </g>
    </g>
    <g id="text_4">
     <!-- proportion of trials -->
     <g transform="translate(19.000625 240.14625)rotate(-90)scale(0.2 -0.2)">
      <defs>
       <path d="M 18.109375 8.203125 
L 18.109375 -20.796875 
L 9.078125 -20.796875 
L 9.078125 54.6875 
L 18.109375 54.6875 
L 18.109375 46.390625 
Q 20.953125 51.265625 25.265625 53.625 
Q 29.59375 56 35.59375 56 
Q 45.5625 56 51.78125 48.09375 
Q 58.015625 40.1875 58.015625 27.296875 
Q 58.015625 14.40625 51.78125 6.484375 
Q 45.5625 -1.421875 35.59375 -1.421875 
Q 29.59375 -1.421875 25.265625 0.953125 
Q 20.953125 3.328125 18.109375 8.203125 
z
M 48.6875 27.296875 
Q 48.6875 37.203125 44.609375 42.84375 
Q 40.53125 48.484375 33.40625 48.484375 
Q 26.265625 48.484375 22.1875 42.84375 
Q 18.109375 37.203125 18.109375 27.296875 
Q 18.109375 17.390625 22.1875 11.75 
Q 26.265625 6.109375 33.40625 6.109375 
Q 40.53125 6.109375 44.609375 11.75 
Q 48.6875 17.390625 48.6875 27.296875 
z
" id="DejaVuSans-112"/>
       <path d="M 54.890625 33.015625 
L 54.890625 0 
L 45.90625 0 
L 45.90625 32.71875 
Q 45.90625 40.484375 42.875 44.328125 
Q 39.84375 48.1875 33.796875 48.1875 
Q 26.515625 48.1875 22.3125 43.546875 
Q 18.109375 38.921875 18.109375 30.90625 
L 18.109375 0 
L 9.078125 0 
L 9.078125 54.6875 
L 18.109375 54.6875 
L 18.109375 46.1875 
Q 21.34375 51.125 25.703125 53.5625 
Q 30.078125 56 35.796875 56 
Q 45.21875 56 50.046875 50.171875 
Q 54.890625 44.34375 54.890625 33.015625 
z
" id="DejaVuSans-110"/>
      </defs>
      <use xlink:href="#DejaVuSans-112"/>
      <use x="63.476562" xlink:href="#DejaVuSans-114"/>
      <use x="102.339844" xlink:href="#DejaVuSans-111"/>
      <use x="163.521484" xlink:href="#DejaVuSans-112"/>
      <use x="226.998047" xlink:href="#DejaVuSans-111"/>
      <use x="288.179688" xlink:href="#DejaVuSans-114"/>
      <use x="329.292969" xlink:href="#DejaVuSans-116"/>
      <use x="368.501953" xlink:href="#DejaVuSans-105"/>
      <use x="396.285156" xlink:href="#DejaVuSans-111"/>
      <use x="457.466797" xlink:href="#DejaVuSans-110"/>
      <use x="520.845703" xlink:href="#DejaVuSans-32"/>
      <use x="552.632812" xlink:href="#DejaVuSans-111"/>
      <use x="613.814453" xlink:href="#DejaVuSans-102"/>
      <use x="649.019531" xlink:href="#DejaVuSans-32"/>
      <use x="680.806641" xlink:href="#DejaVuSans-116"/>
      <use x="720.015625" xlink:href="#DejaVuSans-114"/>
      <use x="761.128906" xlink:href="#DejaVuSans-105"/>
      <use x="788.912109" xlink:href="#DejaVuSans-97"/>
      <use x="850.191406" xlink:href="#DejaVuSans-108"/>
      <use x="877.974609" xlink:href="#DejaVuSans-115"/>
     </g>
    </g>
   </g>
   <g id="line2d_57">
    <path clip-path="url(#p1a656205b3)" d="M 34.16 288.453725 
L 105.100874 288.453725 
L 105.100874 288.202501 
L 108.211663 288.202501 
L 108.211663 287.951277 
L 109.519251 287.951277 
L 109.610743 287.448828 
L 111.906568 287.448828 
L 111.906568 287.197603 
L 113.596878 287.197603 
L 113.596878 286.946379 
L 116.823858 286.946379 
L 116.823858 286.695155 
L 120.723549 286.695155 
L 120.723549 286.44393 
L 122.765303 286.44393 
L 122.765303 286.192706 
L 127.062097 286.192706 
L 127.062097 285.941481 
L 131.460564 285.941481 
L 131.460564 285.690257 
L 131.72365 285.690257 
L 131.72365 285.439033 
L 131.976054 285.439033 
L 131.976054 285.187808 
L 132.796955 285.187808 
L 132.796955 284.936584 
L 134.033866 284.936584 
L 134.033866 284.685359 
L 135.763464 284.685359 
L 135.763464 284.434135 
L 136.591844 284.434135 
L 136.591844 284.182911 
L 136.710671 284.182911 
L 136.710671 283.680462 
L 137.259263 283.680462 
L 137.259263 283.429237 
L 138.046101 283.429237 
L 138.099214 282.926789 
L 139.956568 282.926789 
L 139.956568 282.675564 
L 140.219653 282.675564 
L 140.219653 282.42434 
L 141.292959 282.42434 
L 141.292959 282.173115 
L 141.803104 282.173115 
L 141.803104 281.921891 
L 142.40146 281.921891 
L 142.40146 281.670667 
L 144.418337 281.670667 
L 144.418337 281.419442 
L 145.316277 281.419442 
L 145.32395 280.916993 
L 145.755267 280.916993 
L 145.755267 280.665769 
L 145.963306 280.665769 
L 145.963306 280.414545 
L 146.436129 280.414545 
L 146.436129 279.912096 
L 146.595218 279.912096 
L 146.631538 279.409647 
L 146.72303 279.409647 
L 146.72303 279.158423 
L 149.018855 279.158423 
L 149.018855 278.907198 
L 150.299107 278.907198 
L 150.299107 278.655974 
L 151.966318 278.655974 
L 151.966318 278.404749 
L 152.886642 278.404749 
L 152.886642 277.902301 
L 153.592435 277.902301 
L 153.592435 277.651076 
L 153.936145 277.651076 
L 153.936145 277.399852 
L 154.45931 277.399852 
L 154.56925 276.897403 
L 156.262739 276.897403 
L 156.262739 276.646179 
L 156.964625 276.646179 
L 156.964625 276.394954 
L 157.229369 276.394954 
L 157.229369 276.14373 
L 157.835836 276.14373 
L 157.835836 275.892505 
L 158.536957 275.892505 
L 158.628449 275.390057 
L 159.87759 275.390057 
L 159.87759 275.138832 
L 160.024566 275.138832 
L 160.024566 274.887608 
L 160.143393 274.887608 
L 160.143393 274.636383 
L 160.462322 274.636383 
L 160.462322 274.385159 
L 160.579047 274.385159 
L 160.579047 274.133935 
L 160.924274 274.133935 
L 160.924274 273.88271 
L 161.109352 273.88271 
L 161.109352 273.129037 
L 161.478823 273.129037 
L 161.478823 272.877813 
L 161.597282 272.877813 
L 161.672977 272.375364 
L 162.6121 272.375364 
L 162.672755 271.621691 
L 162.90487 271.621691 
L 162.996362 270.868017 
L 163.072057 270.868017 
L 163.168268 270.365569 
L 163.980343 270.365569 
L 164.071835 269.86312 
L 164.174384 269.86312 
L 164.174384 269.611895 
L 164.444128 269.611895 
L 164.444128 269.360671 
L 164.626687 269.360671 
L 164.626687 269.109447 
L 165.292186 269.109447 
L 165.367881 268.606998 
L 165.587489 268.606998 
L 165.587489 268.355773 
L 165.834182 268.355773 
L 165.841564 267.6021 
L 165.988197 267.6021 
L 165.988197 267.350876 
L 166.259424 267.350876 
L 166.36766 266.848427 
L 166.895077 266.848427 
L 166.986569 266.345978 
L 167.184476 266.345978 
L 167.236238 265.843529 
L 167.633437 265.843529 
L 167.633437 265.592305 
L 168.221499 265.592305 
L 168.221499 265.341081 
L 168.477494 265.341081 
L 168.583556 264.587407 
L 168.847797 264.587407 
L 168.941025 263.833734 
L 169.032517 263.833734 
L 169.088341 263.331285 
L 169.282394 263.331285 
L 169.282394 263.080061 
L 169.605356 263.080061 
L 169.605356 262.828837 
L 169.741256 262.828837 
L 169.785081 262.326388 
L 169.868851 262.326388 
L 169.876573 261.823939 
L 170.209477 261.823939 
L 170.285172 261.32149 
L 170.486648 261.32149 
L 170.486648 261.070266 
L 170.87938 261.070266 
L 170.968697 260.567817 
L 171.146153 260.567817 
L 171.146153 260.316593 
L 171.28495 260.316593 
L 171.328341 259.814144 
L 171.675967 259.814144 
L 171.78301 259.311695 
L 171.939052 259.311695 
L 172.035298 258.809246 
L 172.172398 258.809246 
L 172.172398 258.558022 
L 172.337559 258.558022 
L 172.337559 258.055573 
L 172.806447 258.055573 
L 172.875751 257.553124 
L 173.012357 257.553124 
L 173.012357 257.3019 
L 173.246035 257.3019 
L 173.246035 257.050675 
L 173.681279 257.050675 
L 173.776341 256.548227 
L 174.109168 256.548227 
L 174.199684 255.794553 
L 174.392823 255.794553 
L 174.392823 255.543329 
L 174.749871 255.543329 
L 174.749871 255.292105 
L 175.184641 255.292105 
L 175.184641 255.04088 
L 175.452489 255.04088 
L 175.452489 254.538431 
L 175.700411 254.538431 
L 175.796671 253.784758 
L 176.079804 253.784758 
L 176.150922 253.282309 
L 176.226617 253.282309 
L 176.319364 252.528636 
L 176.429303 252.528636 
L 176.437775 251.272514 
L 177.089688 251.272514 
L 177.089688 251.02129 
L 177.226395 251.02129 
L 177.293676 250.518841 
L 177.474666 250.518841 
L 177.474666 250.267617 
L 177.892032 250.267617 
L 177.892032 249.513943 
L 178.087728 249.513943 
L 178.122793 248.509046 
L 178.314616 248.509046 
L 178.314616 248.257821 
L 178.501171 248.257821 
L 178.501171 248.006597 
L 178.655186 248.006597 
L 178.655186 247.755373 
L 178.943089 247.755373 
L 178.982652 247.252924 
L 179.695461 247.252924 
L 179.696362 246.750475 
L 180.141129 246.750475 
L 180.145323 246.248026 
L 180.397347 246.248026 
L 180.447716 245.494353 
L 180.523411 245.494353 
L 180.523411 245.243129 
L 180.888488 245.243129 
L 180.99376 244.489455 
L 181.275481 244.489455 
L 181.275481 244.238231 
L 181.491689 244.238231 
L 181.600544 243.233333 
L 181.738116 243.233333 
L 181.738116 242.982109 
L 181.962731 242.982109 
L 182.018506 242.47966 
L 182.187077 242.47966 
L 182.247392 241.474763 
L 182.4391 241.474763 
L 182.4391 240.972314 
L 182.729738 240.972314 
L 182.799277 240.469865 
L 182.890769 240.469865 
L 182.969406 239.716192 
L 183.005018 239.716192 
L 183.051572 238.962519 
L 183.635685 238.962519 
L 183.635685 238.711294 
L 184.315116 238.711294 
L 184.315116 238.46007 
L 184.437924 238.46007 
L 184.542074 237.957621 
L 184.752706 237.957621 
L 184.781171 237.455172 
L 185.186594 237.455172 
L 185.186594 237.203948 
L 185.361673 237.203948 
L 185.437368 236.701499 
L 185.473435 236.701499 
L 185.50678 236.19905 
L 185.622704 236.19905 
L 185.714196 235.696601 
L 186.03491 235.696601 
L 186.044822 235.194153 
L 186.178709 235.194153 
L 186.178709 234.942928 
L 186.437146 234.942928 
L 186.486741 233.938031 
L 186.90471 233.938031 
L 186.961038 233.435582 
L 187.085098 233.435582 
L 187.085098 233.184357 
L 187.327928 233.184357 
L 187.419485 232.430684 
L 187.439093 232.430684 
L 187.49518 231.677011 
L 187.694236 231.677011 
L 187.694236 231.174562 
L 187.848251 231.174562 
L 187.848251 230.672113 
L 188.010021 230.672113 
L 188.010021 230.420889 
L 188.494958 230.420889 
L 188.494958 230.169664 
L 188.893351 230.169664 
L 188.946463 229.415991 
L 189.149083 229.415991 
L 189.224778 228.662318 
L 189.266904 228.662318 
L 189.35188 227.65742 
L 189.527958 227.65742 
L 189.527958 227.406196 
L 189.791043 227.406196 
L 189.791043 227.154972 
L 190.081553 227.154972 
L 190.136567 226.150074 
L 190.224556 226.150074 
L 190.224556 225.89885 
L 190.721162 225.89885 
L 190.803818 225.396401 
L 190.864348 225.396401 
L 190.948867 224.893952 
L 191.066903 224.893952 
L 191.066903 224.642728 
L 191.316397 224.642728 
L 191.409692 223.889054 
L 191.830057 223.889054 
L 191.830057 223.63783 
L 192.140208 223.63783 
L 192.241885 222.884157 
L 192.36245 222.884157 
L 192.439503 222.381708 
L 192.728465 222.381708 
L 192.828751 221.628035 
L 192.927311 221.628035 
L 193.006679 221.125586 
L 193.139291 221.125586 
L 193.24871 220.120688 
L 193.301573 220.120688 
L 193.301573 219.61824 
L 193.436043 219.61824 
L 193.45564 219.115791 
L 193.747091 219.115791 
L 193.838583 218.613342 
L 193.980309 218.613342 
L 194.003575 218.110893 
L 194.267532 218.110893 
L 194.299696 217.608444 
L 194.6665 217.608444 
L 194.736277 216.854771 
L 195.076521 216.854771 
L 195.185238 216.352322 
L 195.287897 216.352322 
L 195.379389 215.598649 
L 195.669995 215.598649 
L 195.770281 214.593752 
L 196.029295 214.593752 
L 196.134408 213.840078 
L 196.146364 213.840078 
L 196.166607 213.33763 
L 196.602517 213.33763 
L 196.67667 212.332732 
L 196.810556 212.332732 
L 196.827003 211.327834 
L 197.180027 211.327834 
L 197.180027 211.07661 
L 197.442467 211.07661 
L 197.442467 210.825386 
L 197.675214 210.825386 
L 197.675214 210.574161 
L 197.803956 210.574161 
L 197.879651 210.071712 
L 198.157214 210.071712 
L 198.157214 209.820488 
L 198.544591 209.820488 
L 198.544591 209.569264 
L 198.868756 209.569264 
L 198.879429 209.066815 
L 198.992363 209.066815 
L 198.992363 208.564366 
L 199.11119 208.564366 
L 199.11119 207.810693 
L 199.31587 207.810693 
L 199.31587 207.559468 
L 199.752086 207.559468 
L 199.752086 207.05702 
L 199.870497 207.05702 
L 199.870497 206.805795 
L 199.998848 206.805795 
L 199.998848 206.554571 
L 200.194005 206.554571 
L 200.215026 206.052122 
L 200.342123 206.052122 
L 200.342123 205.800898 
L 200.641776 205.800898 
L 200.641776 205.549673 
L 200.955283 205.549673 
L 201.051698 204.544776 
L 201.146357 204.544776 
L 201.146357 204.293551 
L 201.324754 204.293551 
L 201.4015 203.539878 
L 201.535386 203.539878 
L 201.555515 202.53498 
L 201.648262 202.53498 
L 201.648262 202.283756 
L 201.794163 202.283756 
L 201.794163 202.032532 
L 201.944624 202.032532 
L 201.998919 201.530083 
L 202.326105 201.530083 
L 202.326105 201.278858 
L 202.592504 201.278858 
L 202.592504 201.027634 
L 202.974168 201.027634 
L 202.974168 200.525185 
L 203.128183 200.525185 
L 203.165551 200.022736 
L 203.302919 200.022736 
L 203.39941 199.269063 
L 203.460598 199.269063 
L 203.460598 198.51539 
L 203.788816 198.51539 
L 203.840111 198.012941 
L 204.0307 198.012941 
L 204.0307 197.761717 
L 204.354207 197.761717 
L 204.439685 197.008044 
L 204.684167 197.008044 
L 204.684167 196.756819 
L 204.95139 196.756819 
L 204.996408 196.25437 
L 205.14596 196.25437 
L 205.25608 195.751922 
L 205.30656 195.751922 
L 205.416499 195.249473 
L 205.792989 195.249473 
L 205.879561 194.747024 
L 205.960084 194.747024 
L 206.069713 194.244575 
L 206.492195 194.244575 
L 206.536014 192.737229 
L 206.993144 192.737229 
L 207.008837 192.23478 
L 207.109989 192.23478 
L 207.109989 191.983556 
L 207.313892 191.983556 
L 207.327766 191.481107 
L 207.811874 191.481107 
L 207.811874 190.978658 
L 208.079507 190.978658 
L 208.079507 190.727434 
L 208.322422 190.727434 
L 208.373764 190.224985 
L 208.533949 190.224985 
L 208.585507 189.722536 
L 209.04349 189.722536 
L 209.147585 188.968863 
L 209.312716 188.968863 
L 209.312716 188.717638 
L 209.477545 188.717638 
L 209.477545 187.712741 
L 209.639685 187.712741 
L 209.658812 187.210292 
L 209.843021 187.210292 
L 209.843021 186.959068 
L 210.024289 186.959068 
L 210.033712 186.456619 
L 210.137319 186.456619 
L 210.137319 186.205394 
L 210.317188 186.205394 
L 210.386021 185.702946 
L 210.571184 185.702946 
L 210.599497 185.200497 
L 210.70205 185.200497 
L 210.793566 184.698048 
L 210.916326 184.698048 
L 210.916326 184.446824 
L 211.289938 184.446824 
L 211.309572 183.944375 
L 211.426296 183.944375 
L 211.426296 183.69315 
L 211.798072 183.69315 
L 211.866917 183.190702 
L 211.956601 183.190702 
L 211.956601 182.437028 
L 212.18349 182.437028 
L 212.18349 180.929682 
L 212.699626 180.929682 
L 212.699626 180.176009 
L 212.830743 180.176009 
L 212.830743 179.924784 
L 213.124868 179.924784 
L 213.124868 179.67356 
L 213.25233 179.67356 
L 213.360356 179.171111 
L 213.649007 179.171111 
L 213.649007 178.668662 
L 213.784413 178.668662 
L 213.784413 178.417438 
L 214.101682 178.417438 
L 214.12112 177.914989 
L 214.433661 177.914989 
L 214.433661 177.663765 
L 214.567852 177.663765 
L 214.625821 176.910092 
L 214.688804 176.910092 
L 214.721867 176.156418 
L 214.961071 176.156418 
L 215.032018 174.900296 
L 215.262779 174.900296 
L 215.287161 173.895399 
L 215.473937 173.895399 
L 215.473937 173.644174 
L 215.641157 173.644174 
L 215.641157 173.39295 
L 215.795172 173.39295 
L 215.795172 172.639277 
L 216.098551 172.639277 
L 216.203894 172.136828 
L 216.261473 172.136828 
L 216.319311 170.629481 
L 216.394936 170.629481 
L 216.394936 170.378257 
L 216.681432 170.378257 
L 216.681432 170.127033 
L 216.802385 170.127033 
L 216.835447 169.624584 
L 216.955168 169.624584 
L 217.021196 168.870911 
L 217.167861 168.870911 
L 217.167861 168.619686 
L 217.37175 168.619686 
L 217.37175 168.368462 
L 217.607689 168.368462 
L 217.698363 167.866013 
L 217.7447 167.866013 
L 217.7447 167.614789 
L 217.865504 167.614789 
L 217.865504 167.363564 
L 218.028473 167.363564 
L 218.028473 167.11234 
L 218.261706 167.11234 
L 218.261706 166.861115 
L 218.664961 166.861115 
L 218.664961 166.609891 
L 218.783788 166.609891 
L 218.783788 166.358667 
L 218.917372 166.358667 
L 218.917372 166.107442 
L 219.06524 166.107442 
L 219.088155 165.353769 
L 219.176746 165.353769 
L 219.176746 165.102545 
L 219.35124 165.102545 
L 219.35124 164.85132 
L 219.702366 164.85132 
L 219.802512 164.348871 
L 219.991305 164.348871 
L 219.991305 164.097647 
L 220.111479 164.097647 
L 220.111479 163.846423 
L 220.243278 163.846423 
L 220.243278 163.092749 
L 220.424545 163.092749 
L 220.52179 162.339076 
L 220.635618 162.339076 
L 220.641785 161.585403 
L 220.775671 161.585403 
L 220.775671 161.334179 
L 221.053004 161.334179 
L 221.053004 161.082954 
L 221.165924 161.082954 
L 221.252495 160.078057 
L 221.53211 160.078057 
L 221.540116 159.575608 
L 221.815946 159.575608 
L 221.815946 159.324383 
L 222.029685 159.324383 
L 222.029685 159.073159 
L 222.233416 159.073159 
L 222.309111 158.319486 
L 222.425085 158.319486 
L 222.425085 158.068261 
L 222.613421 158.068261 
L 222.698985 157.565813 
L 222.825164 157.565813 
L 222.825164 157.314588 
L 223.062099 157.314588 
L 223.113412 156.812139 
L 223.184808 156.812139 
L 223.184808 155.304793 
L 223.308889 155.304793 
L 223.381548 154.55112 
L 223.48354 154.55112 
L 223.48354 154.299895 
L 223.653696 154.299895 
L 223.697973 153.797447 
L 223.911853 153.797447 
L 223.947168 153.294998 
L 224.090226 153.294998 
L 224.15912 152.792549 
L 224.556845 152.792549 
L 224.650325 152.2901 
L 224.674787 152.2901 
L 224.757477 150.029081 
L 224.886854 150.029081 
L 224.988237 149.275407 
L 225.012619 149.275407 
L 225.012619 148.772959 
L 225.298388 148.772959 
L 225.401425 148.019285 
L 225.420916 148.019285 
L 225.52063 147.265612 
L 225.59712 147.265612 
L 225.627139 146.763163 
L 225.726804 146.763163 
L 225.783715 146.260715 
L 225.890754 146.260715 
L 225.890754 145.758266 
L 226.044769 145.758266 
L 226.044769 145.255817 
L 226.223624 145.255817 
L 226.223624 145.004593 
L 226.368276 145.004593 
L 226.40689 144.502144 
L 226.49639 144.502144 
L 226.49639 144.250919 
L 227.066897 144.250919 
L 227.142592 143.748471 
L 227.320629 143.748471 
L 227.429188 143.246022 
L 227.753932 143.246022 
L 227.828384 142.492349 
L 228.142371 142.492349 
L 228.142371 142.241124 
L 228.269571 142.241124 
L 228.35861 141.236227 
L 228.42913 141.236227 
L 228.42913 140.985002 
L 228.554042 140.985002 
L 228.646177 139.980105 
L 228.668335 139.980105 
L 228.668335 139.72888 
L 228.790698 139.72888 
L 228.828176 139.226431 
L 229.014095 139.226431 
L 229.113628 138.723983 
L 229.411124 138.723983 
L 229.502436 137.970309 
L 229.695 137.970309 
L 229.756784 137.467861 
L 229.829901 137.467861 
L 229.829901 137.216636 
L 229.968736 137.216636 
L 229.968736 136.211739 
L 230.100023 136.211739 
L 230.186983 135.70929 
L 230.334213 135.70929 
L 230.334213 135.458065 
L 230.50113 135.458065 
L 230.542711 134.955617 
L 230.630328 134.955617 
L 230.684584 134.453168 
L 231.00811 134.453168 
L 231.057105 133.197046 
L 231.214889 133.197046 
L 231.214889 132.945821 
L 231.407518 132.945821 
L 231.50565 131.689699 
L 231.636936 131.689699 
L 231.636936 131.438475 
L 231.768735 131.438475 
L 231.768735 131.187251 
L 232.167242 131.187251 
L 232.170853 130.684802 
L 232.301128 130.684802 
L 232.372224 129.931129 
L 232.447793 129.931129 
L 232.447793 129.679904 
L 232.654091 129.679904 
L 232.654091 129.42868 
L 232.84204 129.42868 
L 232.910267 128.423782 
L 233.103052 128.423782 
L 233.103052 128.172558 
L 233.590897 128.172558 
L 233.687456 127.670109 
L 233.771198 127.670109 
L 233.771198 127.418885 
L 233.947109 127.418885 
L 233.950542 126.413987 
L 234.147663 126.413987 
L 234.163495 125.660314 
L 234.282304 125.660314 
L 234.290306 124.906641 
L 234.732224 124.906641 
L 234.806442 124.152967 
L 234.959759 124.152967 
L 235.028957 123.14807 
L 235.179996 123.14807 
L 235.179996 122.896845 
L 235.355159 122.896845 
L 235.355159 122.645621 
L 235.509174 122.645621 
L 235.608947 122.143172 
L 235.684577 122.143172 
L 235.684577 121.891948 
L 235.93972 121.891948 
L 235.93972 121.640723 
L 236.093735 121.640723 
L 236.132348 121.138275 
L 236.315581 121.138275 
L 236.315581 120.88705 
L 236.532427 120.88705 
L 236.532427 120.635826 
L 236.892072 120.635826 
L 236.930874 120.133377 
L 237.046087 120.133377 
L 237.046087 119.882153 
L 237.193959 119.882153 
L 237.304349 119.379704 
L 237.417025 119.379704 
L 237.417025 119.128479 
L 237.552372 119.128479 
L 237.552372 118.877255 
L 237.742475 118.877255 
L 237.831317 118.374806 
L 237.971209 118.374806 
L 237.971209 118.123582 
L 238.144299 118.123582 
L 238.216458 117.621133 
L 238.267264 117.621133 
L 238.327036 117.118684 
L 238.46474 117.118684 
L 238.46474 116.616235 
L 238.695501 116.616235 
L 238.701149 116.113786 
L 239.227894 116.113786 
L 239.279389 115.611338 
L 239.486155 115.611338 
L 239.593909 115.108889 
L 239.694195 115.108889 
L 239.752033 114.103991 
L 239.862439 114.103991 
L 239.862439 113.852767 
L 240.326106 113.852767 
L 240.326106 113.601542 
L 240.489673 113.601542 
L 240.489673 113.350318 
L 240.857179 113.350318 
L 240.857179 113.099094 
L 241.074234 113.099094 
L 241.170686 111.842972 
L 241.207292 111.842972 
L 241.207292 111.591747 
L 241.343608 111.591747 
L 241.343608 111.340523 
L 241.657115 111.340523 
L 241.657115 110.838074 
L 241.848189 110.838074 
L 241.848189 110.58685 
L 242.026586 110.58685 
L 242.127823 110.084401 
L 242.327423 110.084401 
L 242.327423 109.833176 
L 242.497962 109.833176 
L 242.535439 109.330728 
L 242.729573 109.330728 
L 242.729573 109.079503 
L 242.861352 109.079503 
L 242.911984 108.577054 
L 243.569523 108.577054 
L 243.676 104.808688 
L 243.864336 104.808688 
L 243.864336 104.557464 
L 244.029996 104.557464 
L 244.029996 104.30624 
L 244.270847 104.30624 
L 244.319948 103.803791 
L 244.403045 103.803791 
L 244.403045 103.552566 
L 244.855408 103.552566 
L 244.95125 103.050118 
L 245.315324 103.050118 
L 245.315324 102.798893 
L 245.80776 102.798893 
L 245.857807 102.04522 
L 246.008392 102.04522 
L 246.008392 101.542771 
L 246.961305 101.542771 
L 246.961305 101.291547 
L 247.273413 101.291547 
L 247.348505 100.789098 
L 247.543787 100.789098 
L 247.543787 100.286649 
L 248.138751 100.286649 
L 248.190199 99.030527 
L 248.464676 99.030527 
L 248.464676 98.779303 
L 248.736943 98.779303 
L 248.736943 98.528078 
L 248.864364 98.528078 
L 248.864364 98.276854 
L 249.216437 98.276854 
L 249.216437 98.02563 
L 249.784732 98.02563 
L 249.839612 97.271956 
L 250.239691 97.271956 
L 250.239691 97.020732 
L 250.753351 97.020732 
L 250.753351 96.769508 
L 251.12152 96.769508 
L 251.12152 96.518283 
L 251.433616 96.518283 
L 251.433616 96.267059 
L 251.667423 96.267059 
L 251.706081 95.010937 
L 251.861852 95.010937 
L 251.861852 94.759712 
L 252.011404 94.759712 
L 252.011404 94.508488 
L 252.172004 94.508488 
L 252.172004 94.006039 
L 252.658433 94.006039 
L 252.658433 93.754815 
L 252.935158 93.754815 
L 252.935158 93.50359 
L 253.075638 93.50359 
L 253.075638 93.252366 
L 253.401458 93.252366 
L 253.401458 91.996244 
L 253.592996 91.996244 
L 253.592996 91.74502 
L 253.975433 91.74502 
L 253.999815 91.242571 
L 254.193211 91.242571 
L 254.193211 90.991346 
L 254.616443 90.991346 
L 254.616443 90.740122 
L 255.373785 90.740122 
L 255.373785 90.488898 
L 255.63687 90.488898 
L 255.63687 90.237673 
L 256.263138 90.237673 
L 256.342989 89.484 
L 256.710175 89.484 
L 256.710175 89.232776 
L 257.017787 89.232776 
L 257.017787 88.981551 
L 257.383264 88.981551 
L 257.436628 88.227878 
L 257.803944 88.227878 
L 257.909119 87.725429 
L 258.007397 87.725429 
L 258.114239 87.22298 
L 258.70917 87.22298 
L 258.70917 86.971756 
L 259.449925 86.971756 
L 259.449925 86.720532 
L 259.56507 86.720532 
L 259.56507 85.966858 
L 259.692883 85.966858 
L 259.692883 85.46441 
L 259.98503 85.46441 
L 259.98503 85.213185 
L 260.45868 85.213185 
L 260.523185 84.710736 
L 260.78627 84.710736 
L 260.78627 84.459512 
L 261.055769 84.459512 
L 261.154437 83.957063 
L 261.172484 83.957063 
L 261.172484 83.705839 
L 261.859576 83.705839 
L 261.859576 83.454614 
L 262.012435 83.454614 
L 262.012435 83.20339 
L 262.152605 83.20339 
L 262.152605 82.449717 
L 262.660616 82.449717 
L 262.660616 82.198492 
L 263.126917 82.198492 
L 263.184755 80.691146 
L 263.277502 80.691146 
L 263.336244 80.188697 
L 264.191007 80.188697 
L 264.191007 79.937473 
L 264.454093 79.937473 
L 264.454093 79.686248 
L 264.603408 79.686248 
L 264.603408 78.932575 
L 265.374687 78.932575 
L 265.374687 78.178902 
L 265.527398 78.178902 
L 265.527398 77.927678 
L 265.716324 77.927678 
L 265.716324 77.676453 
L 265.930684 77.676453 
L 265.930684 77.425229 
L 266.321884 77.425229 
L 266.321884 77.174004 
L 266.579662 77.174004 
L 266.579662 76.92278 
L 267.108722 76.92278 
L 267.161835 74.410536 
L 267.384693 74.410536 
L 267.384693 74.159312 
L 268.936533 74.159312 
L 268.936533 72.651965 
L 269.441114 72.651965 
L 269.441114 72.400741 
L 269.876527 72.400741 
L 269.876527 72.149516 
L 269.989706 72.149516 
L 270.050252 71.647068 
L 270.531733 71.647068 
L 270.531733 71.395843 
L 270.829657 71.395843 
L 270.865724 70.893394 
L 271.340021 70.893394 
L 271.340021 70.64217 
L 271.622921 70.64217 
L 271.622921 69.637272 
L 272.649159 69.637272 
L 272.71354 69.134824 
L 273.23372 69.134824 
L 273.272334 68.632375 
L 273.672413 68.632375 
L 273.672413 68.38115 
L 274.186073 68.38115 
L 274.186073 68.129926 
L 274.533547 68.129926 
L 274.533547 67.878702 
L 274.869778 67.878702 
L 274.869778 67.627477 
L 275.025927 67.627477 
L 275.025927 67.376253 
L 275.395399 67.376253 
L 275.395399 67.125028 
L 275.604726 67.125028 
L 275.604726 66.62258 
L 275.879539 66.62258 
L 275.956958 66.120131 
L 276.145638 66.120131 
L 276.145638 65.868906 
L 276.530983 65.868906 
L 276.530983 65.617682 
L 276.83418 65.617682 
L 276.83418 64.110336 
L 277.432537 64.110336 
L 277.503633 62.10054 
L 278.693749 62.10054 
L 278.693749 61.849316 
L 280.815986 61.849316 
L 280.815986 60.844418 
L 281.028939 60.844418 
L 281.028939 60.593194 
L 281.559011 60.593194 
L 281.559011 60.341969 
L 281.825203 60.341969 
L 281.825203 60.090745 
L 282.643797 60.090745 
L 282.643797 59.337072 
L 283.521931 59.337072 
L 283.521931 55.568706 
L 283.891402 55.568706 
L 283.891402 55.317481 
L 284.696761 55.317481 
L 284.696761 55.066257 
L 285.022573 55.066257 
L 285.047285 54.563808 
L 285.330184 54.563808 
L 285.330184 54.061359 
L 286.027246 54.061359 
L 286.027246 52.805237 
L 286.710224 52.805237 
L 286.710224 52.554013 
L 288.269367 52.554013 
L 288.359637 51.046667 
L 288.609131 51.046667 
L 288.680078 50.292993 
L 289.973258 50.292993 
L 289.973258 50.041769 
L 290.171973 50.041769 
L 290.171973 49.790545 
L 290.541444 49.790545 
L 290.541444 47.780749 
L 291.210897 47.780749 
L 291.210897 47.529525 
L 292.590937 47.529525 
L 292.590937 46.273403 
L 293.24739 46.273403 
L 293.24739 46.022179 
L 293.664242 46.022179 
L 293.763526 45.51973 
L 293.839795 45.51973 
L 293.839795 45.268505 
L 294.399869 45.268505 
L 294.399869 45.017281 
L 294.523249 45.017281 
L 294.523249 42.253813 
L 296.351061 42.253813 
L 296.351061 40.244017 
L 297.105135 40.244017 
L 297.105135 39.741569 
L 297.539821 39.741569 
L 297.539821 39.490344 
L 299.411002 39.490344 
L 299.411002 39.23912 
L 299.549269 39.23912 
L 299.549269 38.987895 
L 299.963705 38.987895 
L 299.963705 38.736671 
L 300.266902 38.736671 
L 300.266902 37.731773 
L 300.45844 37.731773 
L 300.45844 37.480549 
L 300.686862 37.480549 
L 300.686862 36.9781 
L 302.316395 36.9781 
L 302.316395 36.726876 
L 302.809926 36.726876 
L 302.868668 35.219529 
L 303.217091 35.219529 
L 303.217091 34.968305 
L 303.680522 34.968305 
L 303.680522 34.717081 
L 304.248708 34.717081 
L 304.248708 33.712183 
L 304.429975 33.712183 
L 304.429975 33.460959 
L 305.628747 33.460959 
L 305.628747 32.204837 
L 306.076519 32.204837 
L 306.112086 30.446266 
L 307.242368 30.446266 
L 307.242368 29.943817 
L 307.371505 29.943817 
L 307.47079 29.441368 
L 311.032636 29.441368 
L 311.032636 28.938919 
L 312.041853 28.938919 
L 312.1128 28.436471 
L 313.70043 28.436471 
L 313.70043 28.185246 
L 313.974166 28.185246 
L 313.974166 26.929124 
L 315.738372 26.929124 
L 315.738372 26.426675 
L 316.023659 26.426675 
L 316.023659 26.175451 
L 316.84747 26.175451 
L 316.84747 25.924227 
L 318.205465 25.924227 
L 318.205465 25.673002 
L 318.882229 25.673002 
L 318.882229 24.41688 
L 319.029277 24.41688 
L 319.029277 24.165656 
L 319.52864 24.165656 
L 319.52864 23.663207 
L 320.949632 23.663207 
L 320.949632 23.411983 
L 322.272694 23.411983 
L 322.272694 23.160758 
L 322.807587 23.160758 
L 322.807587 22.909534 
L 324.554997 22.909534 
L 324.554997 22.658309 
L 324.7399 22.658309 
L 324.7399 22.407085 
L 325.749117 22.407085 
L 325.749117 21.653412 
L 328.971199 21.653412 
L 328.971199 21.402187 
L 329.704397 21.402187 
L 329.704397 21.150963 
L 330.387375 21.150963 
L 330.387375 20.39729 
L 331.031324 20.39729 
L 331.031324 19.141168 
L 331.912729 19.141168 
L 331.912729 18.889943 
L 332.078041 18.889943 
L 332.078041 18.638719 
L 332.89269 18.638719 
L 332.89269 18.387495 
L 333.372219 18.387495 
L 333.372219 18.13627 
L 334.656895 18.13627 
L 334.656895 17.885046 
L 335.225081 17.885046 
L 335.225081 17.382597 
L 337.406888 17.382597 
L 337.406888 16.126475 
L 338.241653 16.126475 
L 338.241653 15.875251 
L 338.447163 15.875251 
L 338.447163 15.624026 
L 339.456381 15.624026 
L 339.456381 15.372802 
L 340.650306 15.372802 
L 340.715605 14.870353 
L 341.388694 14.870353 
L 341.388694 14.11668 
L 343.216505 14.11668 
L 343.216505 12.358109 
L 343.5705 12.358109 
L 343.5705 12.106885 
L 344.382354 12.106885 
L 344.382354 11.604436 
L 345.865005 11.604436 
L 345.865005 11.353211 
L 346.813918 11.353211 
L 346.813918 11.101987 
L 348.172622 11.101987 
L 348.172622 10.599538 
L 349.532828 10.599538 
L 349.532828 10.348314 
L 349.67537 10.348314 
L 349.67537 10.097089 
L 351.114152 10.097089 
L 351.114152 9.594641 
L 352.494191 9.594641 
L 352.494191 9.343416 
L 359.093217 9.343416 
L 359.093217 9.092192 
L 362.889103 9.092192 
L 362.889103 8.589743 
L 364.242617 8.589743 
L 364.242617 8.338519 
L 365.256829 8.338519 
L 365.256829 8.087294 
L 365.747673 8.087294 
L 365.747673 7.83607 
L 367.910439 7.83607 
L 367.910439 7.584845 
L 370.406229 7.584845 
L 370.406229 7.333621 
L 374.074051 7.333621 
L 374.074051 7.082397 
L 377.896768 7.082397 
L 377.896768 6.831172 
L 381.522339 6.831172 
L 381.522339 6.328723 
L 385.312607 6.328723 
L 385.312607 5.826275 
L 453.192 5.826275 
L 453.192 5.826275 
" style="fill:none;stroke:#000000;stroke-linecap:square;stroke-width:3;"/>
   </g>
   <g id="line2d_58">
    <path clip-path="url(#p1a656205b3)" style="fill:none;stroke:#000000;stroke-linecap:square;stroke-width:3;"/>
   </g>
   <g id="line2d_59">
    <path clip-path="url(#p1a656205b3)" d="M 34.16 151.872996 
L 50.881553 151.872996 
L 50.881553 151.602539 
L 59.012176 151.602539 
L 59.012176 151.332082 
L 79.003767 151.332082 
L 79.003767 151.061625 
L 80.867763 151.061625 
L 80.867763 150.791168 
L 81.734638 150.791168 
L 81.734638 150.520711 
L 81.917539 150.520711 
L 81.917539 150.250254 
L 83.75175 150.250254 
L 83.75175 149.979797 
L 87.13439 149.979797 
L 87.198217 149.438884 
L 95.258005 149.438884 
L 95.258005 149.168427 
L 104.507584 149.168427 
L 104.507584 148.89797 
L 107.562163 148.89797 
L 107.562163 148.627513 
L 110.159168 148.627513 
L 110.159168 148.357056 
L 110.791681 148.357056 
L 110.791681 148.086599 
L 111.325877 148.086599 
L 111.325877 147.816142 
L 114.02052 147.816142 
L 114.02052 147.545685 
L 115.692786 147.545685 
L 115.692786 147.275228 
L 118.289791 147.275228 
L 118.289791 147.004772 
L 118.922304 147.004772 
L 118.922304 146.734315 
L 119.69142 146.734315 
L 119.69142 146.463858 
L 120.558295 146.463858 
L 120.558295 146.193401 
L 120.741197 146.193401 
L 120.741197 145.922944 
L 120.960655 145.922944 
L 120.960655 145.652487 
L 122.115778 145.652487 
L 122.151144 145.111573 
L 122.575408 145.111573 
L 122.575408 144.841116 
L 124.232006 144.841116 
L 124.232006 144.57066 
L 124.962542 144.57066 
L 124.962542 144.300203 
L 126.021874 144.300203 
L 126.068453 143.759289 
L 127.063953 143.759289 
L 127.063953 143.488832 
L 127.439165 143.488832 
L 127.439165 143.218375 
L 127.588092 143.218375 
L 127.588092 142.947918 
L 129.847994 142.947918 
L 129.847994 142.677461 
L 130.299752 142.677461 
L 130.299752 142.407004 
L 130.719154 142.407004 
L 130.719154 142.136548 
L 132.629798 142.136548 
L 132.629798 141.866091 
L 132.748196 141.866091 
L 132.798086 141.325177 
L 133.751704 141.325177 
L 133.751704 141.05472 
L 134.081662 141.05472 
L 134.081662 140.784263 
L 137.978618 140.784263 
L 137.978618 140.513806 
L 138.849777 140.513806 
L 138.849777 140.243349 
L 140.024939 140.243349 
L 140.024939 139.972892 
L 140.638446 139.972892 
L 140.638446 139.702436 
L 140.878819 139.702436 
L 140.92871 139.161522 
L 141.666276 139.161522 
L 141.666276 138.891065 
L 142.533151 138.891065 
L 142.533151 138.620608 
L 142.716053 138.620608 
L 142.716053 138.350151 
L 143.301276 138.350151 
L 143.38416 137.809237 
L 144.550264 137.809237 
L 144.550264 137.53878 
L 144.975872 137.53878 
L 145.035486 136.997867 
L 147.73427 136.997867 
L 147.73427 136.72741 
L 147.99673 136.72741 
L 147.99673 136.456953 
L 148.431886 136.456953 
L 148.431886 136.186496 
L 148.769069 136.186496 
L 148.769069 135.916039 
L 149.64397 135.916039 
L 149.64397 135.645582 
L 149.879513 135.645582 
L 149.879513 135.375125 
L 150.149534 135.375125 
L 150.149534 135.104668 
L 150.494434 135.104668 
L 150.494434 134.834211 
L 151.361309 134.834211 
L 151.361309 134.563755 
L 151.544211 134.563755 
L 151.544211 134.293298 
L 151.676837 134.293298 
L 151.676837 134.022841 
L 153.095858 134.022841 
L 153.166109 133.481927 
L 153.378421 133.481927 
L 153.378421 133.21147 
L 154.659108 133.21147 
L 154.659108 132.941013 
L 155.51563 132.941013 
L 155.51563 132.670556 
L 155.871192 132.670556 
L 155.871192 132.400099 
L 156.056518 132.400099 
L 156.056518 132.129643 
L 156.523123 132.129643 
L 156.523123 131.859186 
L 156.824888 131.859186 
L 156.824888 131.588729 
L 157.90406 131.588729 
L 157.90406 131.318272 
L 160.200628 131.318272 
L 160.200628 131.047815 
L 160.73458 131.047815 
L 160.73458 130.777358 
L 161.188194 130.777358 
L 161.226481 130.236444 
L 161.946664 130.236444 
L 161.946664 129.965987 
L 162.781861 129.965987 
L 162.781861 129.695531 
L 163.785199 129.695531 
L 163.785199 129.425074 
L 163.919048 129.425074 
L 163.979531 128.88416 
L 164.417712 128.88416 
L 164.417712 128.613703 
L 164.653746 128.613703 
L 164.653746 128.343246 
L 164.884676 128.343246 
L 164.884676 128.072789 
L 165.35646 128.072789 
L 165.35646 127.802332 
L 166.42785 127.802332 
L 166.42785 127.531875 
L 166.568544 127.531875 
L 166.568544 127.261419 
L 167.293407 127.261419 
L 167.293407 126.990962 
L 167.646552 126.990962 
L 167.646552 126.720505 
L 167.768622 126.720505 
L 167.768622 126.450048 
L 168.147153 126.450048 
L 168.147153 126.179591 
L 168.44853 126.179591 
L 168.543141 125.638677 
L 168.601411 125.638677 
L 168.601411 125.36822 
L 168.923745 125.36822 
L 168.923745 125.097763 
L 169.194888 125.097763 
L 169.194888 124.827307 
L 169.698264 124.827307 
L 169.698264 124.55685 
L 170.406972 124.55685 
L 170.406972 124.286393 
L 170.564757 124.286393 
L 170.654555 123.745479 
L 171.039972 123.745479 
L 171.039972 123.475022 
L 171.265679 123.475022 
L 171.295293 122.934108 
L 171.770508 122.934108 
L 171.866639 121.852281 
L 172.113693 121.852281 
L 172.132554 121.04091 
L 172.315456 121.04091 
L 172.401204 120.229539 
L 172.439839 120.229539 
L 172.545027 119.418169 
L 172.65957 119.418169 
L 172.65957 119.147712 
L 172.842472 119.147712 
L 172.87642 118.606798 
L 173.105546 118.606798 
L 173.105546 118.336341 
L 173.268816 118.336341 
L 173.268816 118.065884 
L 173.396704 118.065884 
L 173.396704 117.795427 
L 173.650939 117.795427 
L 173.741346 117.254514 
L 173.771916 117.254514 
L 173.87192 116.7136 
L 173.899506 116.7136 
L 173.920843 116.172686 
L 174.069517 116.172686 
L 174.149667 115.361315 
L 174.247132 115.361315 
L 174.328895 114.820402 
L 174.396058 114.820402 
L 174.396058 114.549945 
L 174.646439 114.549945 
L 174.676683 114.009031 
L 174.896469 114.009031 
L 174.896469 113.738574 
L 175.021651 113.738574 
L 175.021651 113.468117 
L 175.170577 113.468117 
L 175.170577 113.19766 
L 175.385044 113.19766 
L 175.484018 112.656746 
L 175.79631 112.656746 
L 175.856484 112.115833 
L 176.11558 112.115833 
L 176.11558 111.845376 
L 176.438727 111.845376 
L 176.438727 111.574919 
L 176.632503 111.574919 
L 176.632503 111.304462 
L 177.012696 111.304462 
L 177.107719 110.763548 
L 177.125202 110.763548 
L 177.221491 110.222634 
L 177.593849 110.222634 
L 177.600245 109.411264 
L 177.743232 109.411264 
L 177.775752 108.87035 
L 177.882238 108.87035 
L 177.882238 108.599893 
L 178.123149 108.599893 
L 178.216991 108.058979 
L 178.255544 108.058979 
L 178.330781 107.518065 
L 178.592203 107.518065 
L 178.642627 106.977152 
L 178.74113 106.977152 
L 178.849143 106.165781 
L 179.370138 106.165781 
L 179.436692 105.35441 
L 179.710077 105.35441 
L 179.710077 105.083953 
L 179.844643 105.083953 
L 179.844643 104.813497 
L 180.084455 104.813497 
L 180.084455 104.54304 
L 180.219855 104.54304 
L 180.219855 104.272583 
L 180.368782 104.272583 
L 180.440613 103.461212 
L 180.525261 103.461212 
L 180.559671 102.920298 
L 180.65974 102.920298 
L 180.65974 102.649841 
L 180.807405 102.649841 
L 180.842997 102.108928 
L 180.952548 102.108928 
L 180.96363 101.297557 
L 181.334189 101.297557 
L 181.341567 100.756643 
L 181.45279 100.756643 
L 181.546524 99.945273 
L 182.055081 99.945273 
L 182.128093 99.133902 
L 182.20014 99.133902 
L 182.257431 98.322531 
L 182.391344 98.322531 
L 182.423297 97.781617 
L 182.542024 97.781617 
L 182.641488 97.240704 
L 182.917236 97.240704 
L 182.917236 96.970247 
L 183.066163 96.970247 
L 183.080442 96.429333 
L 183.363342 96.429333 
L 183.474025 95.617962 
L 183.50522 95.617962 
L 183.50522 95.347505 
L 183.637844 95.347505 
L 183.667992 94.806592 
L 183.988563 94.806592 
L 184.087949 94.265678 
L 184.106206 94.265678 
L 184.106206 93.995221 
L 184.225555 93.995221 
L 184.225555 93.724764 
L 184.345185 93.724764 
L 184.358842 93.18385 
L 184.477935 93.18385 
L 184.477935 92.913393 
L 184.717305 92.913393 
L 184.734054 92.37248 
L 184.882981 92.37248 
L 184.904742 91.831566 
L 185.143686 91.831566 
L 185.143686 91.561109 
L 185.473435 91.561109 
L 185.473435 91.290652 
L 185.655921 91.290652 
L 185.655921 91.020195 
L 185.777823 91.020195 
L 185.848647 90.479281 
L 185.929975 90.479281 
L 185.997574 89.938368 
L 186.110625 89.938368 
L 186.182937 89.397454 
L 186.374227 89.397454 
L 186.424117 88.85654 
L 186.532394 88.85654 
L 186.532394 88.586083 
L 186.750172 88.586083 
L 186.750172 88.315626 
L 187.085098 88.315626 
L 187.119943 87.774712 
L 187.259914 87.774712 
L 187.265748 87.233799 
L 187.594641 87.233799 
L 187.672021 86.692885 
L 187.99045 86.692885 
L 187.99045 86.422428 
L 188.703171 86.422428 
L 188.709234 85.881514 
L 189.096361 85.881514 
L 189.201325 85.3406 
L 189.229775 85.3406 
L 189.229775 85.070144 
L 189.381976 85.070144 
L 189.381976 84.799687 
L 189.716911 84.799687 
L 189.716911 84.52923 
L 189.931861 84.52923 
L 189.931861 84.258773 
L 190.091861 84.258773 
L 190.192127 83.447402 
L 190.467073 83.447402 
L 190.467073 83.176945 
L 190.616 83.176945 
L 190.616 82.906488 
L 190.966646 82.906488 
L 191.046593 82.095118 
L 191.218423 82.095118 
L 191.308624 81.283747 
L 191.783839 81.283747 
L 191.783839 81.01329 
L 192.033272 81.01329 
L 192.033272 80.742833 
L 192.161186 80.742833 
L 192.213923 79.931463 
L 192.299333 79.931463 
L 192.408484 79.390549 
L 192.451215 79.390549 
L 192.558358 78.308721 
L 192.589135 78.308721 
L 192.611739 77.767807 
L 192.738062 77.767807 
L 192.738062 77.497351 
L 193.32766 77.497351 
L 193.32766 77.226894 
L 193.75859 77.226894 
L 193.75859 76.956437 
L 194.264477 76.956437 
L 194.264477 76.68598 
L 194.468575 76.68598 
L 194.537198 75.874609 
L 195.269071 75.874609 
L 195.273963 75.333695 
L 195.449722 75.333695 
L 195.449722 75.063239 
L 195.731809 75.063239 
L 195.791457 74.522325 
L 196.12891 74.522325 
L 196.16485 73.981411 
L 196.705549 73.981411 
L 196.779612 73.17004 
L 197.756563 73.17004 
L 197.756563 72.899583 
L 198.344112 72.899583 
L 198.344112 72.629127 
L 198.661517 72.629127 
L 198.721023 72.088213 
L 198.862231 72.088213 
L 198.901674 71.547299 
L 199.302554 71.547299 
L 199.302554 71.276842 
L 199.935067 71.276842 
L 199.935067 71.006385 
L 200.43895 71.006385 
L 200.453943 70.465471 
L 200.679049 70.465471 
L 200.679049 70.195015 
L 201.22776 70.195015 
L 201.22776 69.924558 
L 201.557136 69.924558 
L 201.605518 69.383644 
L 201.723794 69.383644 
L 201.793642 68.84273 
L 202.250809 68.84273 
L 202.270761 68.301816 
L 202.742705 68.301816 
L 202.742705 68.031359 
L 203.007873 68.031359 
L 203.007873 67.760903 
L 203.163906 67.760903 
L 203.163906 67.490446 
L 203.385355 67.490446 
L 203.385355 67.219989 
L 204.09979 67.219989 
L 204.09979 66.949532 
L 204.315248 66.949532 
L 204.414881 66.408618 
L 206.412068 66.408618 
L 206.412068 66.138161 
L 206.551591 66.138161 
L 206.551591 65.867704 
L 206.721889 65.867704 
L 206.721889 65.597247 
L 207.011885 65.597247 
L 207.011885 65.326791 
L 207.550906 65.326791 
L 207.644398 64.785877 
L 207.763676 64.785877 
L 207.763676 64.51542 
L 208.00378 64.51542 
L 208.00378 64.244963 
L 208.233866 64.244963 
L 208.233866 63.974506 
L 208.353479 63.974506 
L 208.353479 63.704049 
L 208.469073 63.704049 
L 208.53413 63.163135 
L 209.681157 63.163135 
L 209.681157 62.892678 
L 209.796543 62.892678 
L 209.796543 62.622222 
L 209.945192 62.622222 
L 209.945192 62.351765 
L 210.125842 62.351765 
L 210.149154 61.810851 
L 210.250307 61.810851 
L 210.250307 61.540394 
L 210.678027 61.540394 
L 210.678027 61.269937 
L 210.873238 61.269937 
L 210.873238 60.99948 
L 211.714024 60.99948 
L 211.799681 60.458566 
L 212.19624 60.458566 
L 212.19624 60.18811 
L 212.904845 60.18811 
L 212.927947 59.647196 
L 213.079498 59.647196 
L 213.079498 59.376739 
L 214.619967 59.376739 
L 214.619967 59.106282 
L 214.793245 59.106282 
L 214.793245 58.835825 
L 215.425758 58.835825 
L 215.425758 58.565368 
L 218.320334 58.565368 
L 218.320334 58.294911 
L 218.654598 58.294911 
L 218.654598 58.024454 
L 218.99138 58.024454 
L 218.99138 57.753998 
L 219.506185 57.753998 
L 219.506185 57.483541 
L 219.86254 57.483541 
L 219.86254 57.213084 
L 219.997903 57.213084 
L 219.997903 56.942627 
L 220.237815 56.942627 
L 220.237815 56.67217 
L 221.891582 56.67217 
L 221.941472 56.131256 
L 223.580374 56.131256 
L 223.580374 55.860799 
L 224.287537 55.860799 
L 224.287537 55.590342 
L 224.717562 55.590342 
L 224.717562 55.319886 
L 225.499621 55.319886 
L 225.499621 55.049429 
L 226.700712 55.049429 
L 226.700712 54.778972 
L 227.532488 54.778972 
L 227.571871 54.238058 
L 227.695548 54.238058 
L 227.695548 53.967601 
L 228.997346 53.967601 
L 228.997346 53.697144 
L 229.600913 53.697144 
L 229.650804 53.15623 
L 229.781832 53.15623 
L 229.786157 52.615317 
L 231.12299 52.615317 
L 231.12299 52.34486 
L 231.594351 52.34486 
L 231.594351 52.074403 
L 232.226864 52.074403 
L 232.226864 51.803946 
L 232.383162 51.803946 
L 232.408532 51.263032 
L 233.015674 51.263032 
L 233.125508 50.722118 
L 233.5325 50.722118 
L 233.545719 50.181205 
L 233.699193 50.181205 
L 233.699193 49.910748 
L 234.178872 49.910748 
L 234.226209 49.369834 
L 234.482071 49.369834 
L 234.482071 49.099377 
L 234.879701 49.099377 
L 234.879701 48.82892 
L 235.353231 48.82892 
L 235.455703 48.288006 
L 236.056279 48.288006 
L 236.056279 48.017549 
L 236.244514 48.017549 
L 236.244514 47.747093 
L 236.594824 47.747093 
L 236.594824 47.476636 
L 237.382273 47.476636 
L 237.491163 46.665265 
L 238.808704 46.665265 
L 238.808704 46.394808 
L 240.209266 46.394808 
L 240.27743 45.853894 
L 240.380793 45.853894 
L 240.380793 45.583437 
L 240.801326 45.583437 
L 240.804446 45.042524 
L 241.276542 45.042524 
L 241.276542 44.772067 
L 241.405708 44.772067 
L 241.405708 44.50161 
L 241.888203 44.50161 
L 241.888203 44.231153 
L 242.038221 44.231153 
L 242.051061 43.690239 
L 242.239244 43.690239 
L 242.239244 43.419782 
L 242.685285 43.419782 
L 242.685285 43.149325 
L 243.707859 43.149325 
L 243.775081 42.608412 
L 243.897369 42.608412 
L 243.897369 42.337955 
L 245.267061 42.337955 
L 245.272523 41.797041 
L 245.422981 41.797041 
L 245.422981 41.526584 
L 245.621613 41.526584 
L 245.666509 40.98567 
L 245.930236 40.98567 
L 245.930236 40.715213 
L 246.787503 40.715213 
L 246.787503 40.444757 
L 247.249265 40.444757 
L 247.249265 40.1743 
L 247.836815 40.1743 
L 247.836815 39.903843 
L 249.669563 39.903843 
L 249.669563 39.633386 
L 249.946646 39.633386 
L 249.948575 39.092472 
L 250.267145 39.092472 
L 250.353318 38.551558 
L 251.283177 38.551558 
L 251.283177 38.281101 
L 251.763464 38.281101 
L 251.763464 38.010645 
L 251.884237 38.010645 
L 251.884237 37.740188 
L 252.071988 37.740188 
L 252.154337 37.199274 
L 252.878057 37.199274 
L 252.943147 36.65836 
L 253.097846 36.65836 
L 253.179777 36.117446 
L 253.375841 36.117446 
L 253.375841 35.846989 
L 253.706793 35.846989 
L 253.706793 35.576533 
L 254.183379 35.576533 
L 254.233269 35.035619 
L 254.316965 35.035619 
L 254.316965 34.765162 
L 254.454027 34.765162 
L 254.454027 34.494705 
L 254.843981 34.494705 
L 254.843981 34.224248 
L 254.97219 34.224248 
L 255.02208 33.683334 
L 257.496483 33.683334 
L 257.496483 33.412877 
L 257.729935 33.412877 
L 257.729935 33.14242 
L 259.437894 33.14242 
L 259.437894 32.871964 
L 259.618545 32.871964 
L 259.68985 32.33105 
L 259.821504 32.33105 
L 259.821504 32.060593 
L 260.827037 32.060593 
L 260.827037 31.790136 
L 261.094535 31.790136 
L 261.1572 31.249222 
L 261.926004 31.249222 
L 261.965694 30.708308 
L 262.073629 30.708308 
L 262.073629 30.437852 
L 262.355649 30.437852 
L 262.355649 30.167395 
L 262.862439 30.167395 
L 262.862439 29.896938 
L 263.212903 29.896938 
L 263.255665 29.356024 
L 263.994736 29.356024 
L 264.044627 28.81511 
L 264.392852 28.81511 
L 264.479104 28.274196 
L 265.00612 28.274196 
L 265.00612 28.00374 
L 266.194227 28.00374 
L 266.194227 27.733283 
L 266.330654 27.733283 
L 266.330654 27.462826 
L 266.470669 27.462826 
L 266.470669 27.192369 
L 266.721243 27.192369 
L 266.80587 26.651455 
L 267.153068 26.651455 
L 267.259479 26.110541 
L 267.580389 26.110541 
L 267.580389 25.840084 
L 270.922234 25.840084 
L 270.989177 25.299171 
L 271.150941 25.299171 
L 271.183807 24.758257 
L 271.884986 24.758257 
L 271.884986 24.4878 
L 272.704299 24.4878 
L 272.778593 23.946886 
L 273.366142 23.946886 
L 273.366142 23.676429 
L 274.531041 23.676429 
L 274.554992 23.135516 
L 275.319851 23.135516 
L 275.319851 22.865059 
L 275.475974 22.865059 
L 275.475974 22.594602 
L 276.270115 22.594602 
L 276.282026 22.053688 
L 277.292792 22.053688 
L 277.292792 21.783231 
L 277.958306 21.783231 
L 277.958306 21.512774 
L 278.407385 21.512774 
L 278.407385 21.242317 
L 278.703594 21.242317 
L 278.747117 20.701404 
L 279.865251 20.701404 
L 279.865251 20.430947 
L 280.340467 20.430947 
L 280.340467 20.16049 
L 281.114986 20.16049 
L 281.114986 19.890033 
L 282.697249 19.890033 
L 282.697249 19.619576 
L 283.025811 19.619576 
L 283.025811 19.349119 
L 283.224265 19.349119 
L 283.224265 19.078662 
L 284.342398 19.078662 
L 284.342398 18.808205 
L 284.685538 18.808205 
L 284.685538 18.537748 
L 284.967222 18.537748 
L 284.967222 18.267291 
L 285.147873 18.267291 
L 285.147873 17.996835 
L 286.31319 17.996835 
L 286.31319 17.726378 
L 286.90074 17.726378 
L 286.90074 17.455921 
L 287.769664 17.455921 
L 287.769664 17.185464 
L 289.010571 17.185464 
L 289.039481 16.64455 
L 289.207322 16.64455 
L 289.207322 16.374093 
L 290.827389 16.374093 
L 290.827389 16.103636 
L 291.941982 16.103636 
L 291.955052 15.562723 
L 292.482068 15.562723 
L 292.482068 15.292266 
L 292.773137 15.292266 
L 292.773137 15.021809 
L 295.266704 15.021809 
L 295.266704 14.751352 
L 295.5047 14.751352 
L 295.5047 14.480895 
L 296.29351 14.480895 
L 296.29351 14.210438 
L 296.560408 14.210438 
L 296.560408 13.939981 
L 298.465125 13.939981 
L 298.501819 13.399067 
L 298.68247 13.399067 
L 298.68247 13.128611 
L 301.342175 13.128611 
L 301.342175 12.858154 
L 302.03094 12.858154 
L 302.03094 12.587697 
L 305.316057 12.587697 
L 305.316057 12.31724 
L 305.964055 12.31724 
L 305.964055 12.046783 
L 307.599014 12.046783 
L 307.599014 11.776326 
L 309.802483 11.776326 
L 309.802483 11.505869 
L 311.26215 11.505869 
L 311.26215 11.235412 
L 313.706374 11.235412 
L 313.706374 10.964955 
L 317.892744 10.964955 
L 317.892744 10.694499 
L 321.450593 10.694499 
L 321.450593 10.424042 
L 324.112816 10.424042 
L 324.112816 10.153585 
L 331.846726 10.153585 
L 331.846726 9.883128 
L 333.154101 9.883128 
L 333.154101 9.612671 
L 347.159187 9.612671 
L 347.159187 9.342214 
L 349.076668 9.342214 
L 349.076668 9.071757 
L 364.895132 9.071757 
L 364.895132 8.8013 
L 383.29288 8.8013 
L 383.29288 8.530843 
L 453.192 8.530843 
L 453.192 8.530843 
" style="fill:none;stroke:#00bfbf;stroke-linecap:square;stroke-width:3;"/>
   </g>
   <g id="line2d_60">
    <path clip-path="url(#p1a656205b3)" style="fill:none;stroke:#00bfbf;stroke-linecap:square;stroke-width:3;"/>
   </g>
   <g id="line2d_61">
    <path clip-path="url(#p1a656205b3)" d="M 34.16 55.996828 
L 58.216871 55.996828 
L 58.216871 55.662358 
L 76.224265 55.662358 
L 76.224265 55.327887 
L 78.729579 55.327887 
L 78.729579 54.993417 
L 82.781304 54.993417 
L 82.781304 54.658947 
L 105.422459 54.658947 
L 105.422459 54.324476 
L 123.651755 54.324476 
L 123.651755 53.990006 
L 125.005906 53.990006 
L 125.005906 53.655535 
L 132.56009 53.655535 
L 132.56009 53.321065 
L 132.954444 53.321065 
L 132.954444 52.986595 
L 133.699154 52.986595 
L 133.699154 52.652124 
L 136.14052 52.652124 
L 136.14052 52.317654 
L 148.269649 52.317654 
L 148.269649 51.983184 
L 148.555292 51.983184 
L 148.555292 51.648713 
L 153.56504 51.648713 
L 153.56504 51.314243 
L 158.123608 51.314243 
L 158.123608 50.979773 
L 158.589649 50.979773 
L 158.589649 50.645302 
L 159.341037 50.645302 
L 159.341037 50.310832 
L 160.1832 50.310832 
L 160.1832 49.976362 
L 160.628922 49.976362 
L 160.628922 49.641891 
L 163.062202 49.641891 
L 163.062202 49.307421 
L 163.335514 49.307421 
L 163.335514 48.97295 
L 164.680648 48.97295 
L 164.680648 48.63848 
L 165.567516 48.63848 
L 165.567516 48.30401 
L 166.860382 48.30401 
L 166.943249 47.635069 
L 167.019278 47.635069 
L 167.019278 47.300599 
L 168.105803 47.300599 
L 168.105803 46.966128 
L 169.411736 46.966128 
L 169.448564 46.297188 
L 169.524592 46.297188 
L 169.619242 45.628247 
L 171.876374 45.628247 
L 171.91705 44.959306 
L 173.500289 44.959306 
L 173.576317 44.290365 
L 175.968775 44.290365 
L 175.968775 43.955895 
L 176.89275 43.955895 
L 176.89275 43.621425 
L 178.855207 43.621425 
L 178.855207 43.286954 
L 187.398661 43.286954 
L 187.398661 42.952484 
L 188.196631 42.952484 
L 188.196631 42.618014 
L 189.474861 42.618014 
L 189.474861 42.283543 
L 189.632525 42.283543 
L 189.632525 41.949073 
L 193.005006 41.949073 
L 193.005006 41.614603 
L 194.117412 41.614603 
L 194.117412 41.280132 
L 200.547049 41.280132 
L 200.547049 40.945662 
L 200.770628 40.945662 
L 200.831033 40.276721 
L 203.224889 40.276721 
L 203.224889 39.942251 
L 204.893645 39.942251 
L 204.893645 39.60778 
L 205.795238 39.60778 
L 205.795238 39.27331 
L 210.356508 39.27331 
L 210.356508 38.93884 
L 214.853787 38.93884 
L 214.853787 38.604369 
L 218.039863 38.604369 
L 218.039863 38.269899 
L 218.999924 38.269899 
L 218.999924 37.935429 
L 219.792381 37.935429 
L 219.792381 37.600958 
L 220.354075 37.600958 
L 220.354075 37.266488 
L 222.978457 37.266488 
L 222.978457 36.932018 
L 223.673428 36.932018 
L 223.749457 36.263077 
L 224.024533 36.263077 
L 224.024533 35.928607 
L 225.378684 35.928607 
L 225.378684 35.594136 
L 226.141915 35.594136 
L 226.141915 35.259666 
L 226.859504 35.259666 
L 226.935532 34.590725 
L 227.90826 34.590725 
L 227.90826 34.256255 
L 229.047323 34.256255 
L 229.047323 33.921784 
L 229.32799 33.921784 
L 229.32799 33.587314 
L 229.837971 33.587314 
L 229.837971 33.252844 
L 230.454635 33.252844 
L 230.454635 32.918373 
L 232.932869 32.918373 
L 232.932869 32.583903 
L 234.071932 32.583903 
L 234.071932 32.249433 
L 235.393229 32.249433 
L 235.393229 31.914962 
L 239.274277 31.914962 
L 239.350305 31.246022 
L 241.742763 31.246022 
L 241.742763 30.911551 
L 243.617818 30.911551 
L 243.617818 30.577081 
L 245.234858 30.577081 
L 245.234858 30.242611 
L 246.845542 30.242611 
L 246.845542 29.90814 
L 248.506621 29.90814 
L 248.506621 29.57367 
L 248.642427 29.57367 
L 248.642427 29.239199 
L 248.759725 29.239199 
L 248.759725 28.904729 
L 250.173452 28.904729 
L 250.173452 28.570259 
L 253.698319 28.570259 
L 253.775717 27.901318 
L 254.054499 27.901318 
L 254.130527 27.232377 
L 254.689207 27.232377 
L 254.689207 26.897907 
L 255.531369 26.897907 
L 255.531369 26.563437 
L 256.386201 26.563437 
L 256.386201 26.228966 
L 256.522985 26.228966 
L 256.522985 25.894496 
L 257.579366 25.894496 
L 257.655395 25.225555 
L 258.714311 25.225555 
L 258.792093 24.556614 
L 259.713816 24.556614 
L 259.713816 24.222144 
L 260.047853 24.222144 
L 260.047853 23.887674 
L 260.555978 23.887674 
L 260.555978 23.553203 
L 262.595358 23.553203 
L 262.671386 22.884263 
L 263.453972 22.884263 
L 263.453972 22.549792 
L 263.658979 22.549792 
L 263.730687 21.880852 
L 265.063844 21.880852 
L 265.063844 21.546381 
L 267.611734 21.546381 
L 267.687762 20.877441 
L 268.478582 20.877441 
L 268.478582 20.54297 
L 270.08022 20.54297 
L 270.095974 19.874029 
L 274.203376 19.874029 
L 274.203376 19.539559 
L 274.904349 19.539559 
L 274.904349 19.205089 
L 275.034568 19.205089 
L 275.034568 18.870618 
L 278.915616 18.870618 
L 278.991644 18.201678 
L 279.227985 18.201678 
L 279.227985 17.867207 
L 279.842943 17.867207 
L 279.842943 17.532737 
L 281.384102 17.532737 
L 281.384102 17.198267 
L 282.446393 17.198267 
L 282.446393 16.863796 
L 282.730376 16.863796 
L 282.746831 16.194856 
L 283.72399 16.194856 
L 283.800019 15.525915 
L 284.823031 15.525915 
L 284.823031 15.191444 
L 284.980694 15.191444 
L 284.980694 14.856974 
L 285.124232 14.856974 
L 285.124232 14.522504 
L 286.192477 14.522504 
L 286.192477 14.188033 
L 287.384987 14.188033 
L 287.384987 13.853563 
L 287.66897 13.853563 
L 287.77144 13.184622 
L 289.465582 13.184622 
L 289.465582 12.850152 
L 289.84764 12.850152 
L 289.84764 12.515682 
L 290.005304 12.515682 
L 290.062826 11.846741 
L 291.266034 11.846741 
L 291.342062 11.1778 
L 291.550017 11.1778 
L 291.626045 10.508859 
L 293.73452 10.508859 
L 293.73452 10.174389 
L 293.943873 10.174389 
L 294.019901 9.170978 
L 294.490191 9.170978 
L 294.490191 8.836508 
L 296.412359 8.836508 
L 296.412359 8.502037 
L 304.018469 8.502037 
L 304.018469 8.167567 
L 310.113435 8.167567 
L 310.113435 7.833097 
L 314.28358 7.833097 
L 314.28358 7.498626 
L 453.192 7.498626 
L 453.192 7.498626 
" style="fill:none;stroke:#bf00bf;stroke-linecap:square;stroke-width:3;"/>
   </g>
   <g id="line2d_62">
    <path clip-path="url(#p1a656205b3)" style="fill:none;stroke:#bf00bf;stroke-linecap:square;stroke-width:3;"/>
   </g>
   <g id="line2d_63">
    <path clip-path="url(#p1a656205b3)" d="M 34.16 13.011718 
L 198.530281 13.011718 
L 198.530281 12.532689 
L 203.972837 12.532689 
L 203.972837 12.053659 
L 223.076403 12.053659 
L 223.076403 11.574629 
L 239.837309 11.574629 
L 239.837309 11.0956 
L 241.432015 11.0956 
L 241.432015 10.61657 
L 249.259599 10.61657 
L 249.259599 10.137541 
L 256.52043 10.137541 
L 256.52043 9.658511 
L 296.716435 9.658511 
L 296.716435 9.179482 
L 302.811743 9.179482 
L 302.811743 8.700452 
L 306.977014 8.700452 
L 306.977014 8.221422 
L 453.192 8.221422 
" style="fill:none;stroke:#ff0000;stroke-linecap:square;stroke-width:3;"/>
   </g>
   <g id="line2d_64">
    <path clip-path="url(#p1a656205b3)" style="fill:none;stroke:#ff0000;stroke-linecap:square;stroke-width:3;"/>
   </g>
   <g id="line2d_65">
    <path clip-path="url(#p1a656205b3)" d="M 243.676 291.28 
L 243.676 3 
" style="fill:none;stroke:#000000;stroke-linecap:square;stroke-width:1.5;"/>
   </g>
   <g id="line2d_66">
    <path clip-path="url(#p1a656205b3)" d="M 34.16 147.14 
L 453.192 147.14 
" style="fill:none;stroke:#000000;stroke-dasharray:2,3.3;stroke-dashoffset:0;stroke-width:2;"/>
   </g>
   <g id="patch_3">
    <path d="M 34.16 291.28 
L 34.16 3 
" style="fill:none;stroke:#000000;stroke-linecap:square;stroke-linejoin:miter;stroke-width:0.8;"/>
   </g>
   <g id="patch_4">
    <path d="M 453.192 291.28 
L 453.192 3 
" style="fill:none;stroke:#000000;stroke-linecap:square;stroke-linejoin:miter;stroke-width:0.8;"/>
   </g>
   <g id="patch_5">
    <path d="M 34.16 291.28 
L 453.192 291.28 
" style="fill:none;stroke:#000000;stroke-linecap:square;stroke-linejoin:miter;stroke-width:0.8;"/>
   </g>
   <g id="patch_6">
    <path d="M 34.16 3 
L 453.192 3 
" style="fill:none;stroke:#000000;stroke-linecap:square;stroke-linejoin:miter;stroke-width:0.8;"/>
   </g>
   <g id="text_5">
    <!-- f15-f19,5-D -->
    <g transform="translate(330.91761 285.5144)scale(0.2 -0.2)">
     <defs>
      <path d="M 10.796875 72.90625 
L 49.515625 72.90625 
L 49.515625 64.59375 
L 19.828125 64.59375 
L 19.828125 46.734375 
Q 21.96875 47.46875 24.109375 47.828125 
Q 26.265625 48.1875 28.421875 48.1875 
Q 40.625 48.1875 47.75 41.5 
Q 54.890625 34.8125 54.890625 23.390625 
Q 54.890625 11.625 47.5625 5.09375 
Q 40.234375 -1.421875 26.90625 -1.421875 
Q 22.3125 -1.421875 17.546875 -0.640625 
Q 12.796875 0.140625 7.71875 1.703125 
L 7.71875 11.625 
Q 12.109375 9.234375 16.796875 8.0625 
Q 21.484375 6.890625 26.703125 6.890625 
Q 35.15625 6.890625 40.078125 11.328125 
Q 45.015625 15.765625 45.015625 23.390625 
Q 45.015625 31 40.078125 35.4375 
Q 35.15625 39.890625 26.703125 39.890625 
Q 22.75 39.890625 18.8125 39.015625 
Q 14.890625 38.140625 10.796875 36.28125 
z
" id="DejaVuSans-53"/>
      <path d="M 10.984375 1.515625 
L 10.984375 10.5 
Q 14.703125 8.734375 18.5 7.8125 
Q 22.3125 6.890625 25.984375 6.890625 
Q 35.75 6.890625 40.890625 13.453125 
Q 46.046875 20.015625 46.78125 33.40625 
Q 43.953125 29.203125 39.59375 26.953125 
Q 35.25 24.703125 29.984375 24.703125 
Q 19.046875 24.703125 12.671875 31.3125 
Q 6.296875 37.9375 6.296875 49.421875 
Q 6.296875 60.640625 12.9375 67.421875 
Q 19.578125 74.21875 30.609375 74.21875 
Q 43.265625 74.21875 49.921875 64.515625 
Q 56.59375 54.828125 56.59375 36.375 
Q 56.59375 19.140625 48.40625 8.859375 
Q 40.234375 -1.421875 26.421875 -1.421875 
Q 22.703125 -1.421875 18.890625 -0.6875 
Q 15.09375 0.046875 10.984375 1.515625 
z
M 30.609375 32.421875 
Q 37.25 32.421875 41.125 36.953125 
Q 45.015625 41.5 45.015625 49.421875 
Q 45.015625 57.28125 41.125 61.84375 
Q 37.25 66.40625 30.609375 66.40625 
Q 23.96875 66.40625 20.09375 61.84375 
Q 16.21875 57.28125 16.21875 49.421875 
Q 16.21875 41.5 20.09375 36.953125 
Q 23.96875 32.421875 30.609375 32.421875 
z
" id="DejaVuSans-57"/>
      <path d="M 11.71875 12.40625 
L 22.015625 12.40625 
L 22.015625 4 
L 14.015625 -11.625 
L 7.71875 -11.625 
L 11.71875 4 
z
" id="DejaVuSans-44"/>
      <path d="M 19.671875 64.796875 
L 19.671875 8.109375 
L 31.59375 8.109375 
Q 46.6875 8.109375 53.6875 14.9375 
Q 60.6875 21.78125 60.6875 36.53125 
Q 60.6875 51.171875 53.6875 57.984375 
Q 46.6875 64.796875 31.59375 64.796875 
z
M 9.8125 72.90625 
L 30.078125 72.90625 
Q 51.265625 72.90625 61.171875 64.09375 
Q 71.09375 55.28125 71.09375 36.53125 
Q 71.09375 17.671875 61.125 8.828125 
Q 51.171875 0 30.078125 0 
L 9.8125 0 
z
" id="DejaVuSans-68"/>
     </defs>
     <use xlink:href="#DejaVuSans-102"/>
     <use x="35.205078" xlink:href="#DejaVuSans-49"/>
     <use x="98.828125" xlink:href="#DejaVuSans-53"/>
     <use x="162.451172" xlink:href="#DejaVuSans-45"/>
     <use x="198.535156" xlink:href="#DejaVuSans-102"/>
     <use x="233.740234" xlink:href="#DejaVuSans-49"/>
     <use x="297.363281" xlink:href="#DejaVuSans-57"/>
     <use x="360.986328" xlink:href="#DejaVuSans-44"/>
     <use x="392.773438" xlink:href="#DejaVuSans-53"/>
     <use x="456.396484" xlink:href="#DejaVuSans-45"/>
     <use x="492.480469" xlink:href="#DejaVuSans-68"/>
    </g>
   </g>
   <g id="text_6">
    <!-- v2.4 -->
    <g style="fill:#808080;" transform="translate(232.765062 286.317512)scale(0.1 -0.1)">
     <defs>
      <path d="M 19.1875 8.296875 
L 53.609375 8.296875 
L 53.609375 0 
L 7.328125 0 
L 7.328125 8.296875 
Q 12.9375 14.109375 22.625 23.890625 
Q 32.328125 33.6875 34.8125 36.53125 
Q 39.546875 41.84375 41.421875 45.53125 
Q 43.3125 49.21875 43.3125 52.78125 
Q 43.3125 58.59375 39.234375 62.25 
Q 35.15625 65.921875 28.609375 65.921875 
Q 23.96875 65.921875 18.8125 64.3125 
Q 13.671875 62.703125 7.8125 59.421875 
L 7.8125 69.390625 
Q 13.765625 71.78125 18.9375 73 
Q 24.125 74.21875 28.421875 74.21875 
Q 39.75 74.21875 46.484375 68.546875 
Q 53.21875 62.890625 53.21875 53.421875 
Q 53.21875 48.921875 51.53125 44.890625 
Q 49.859375 40.875 45.40625 35.40625 
Q 44.1875 33.984375 37.640625 27.21875 
Q 31.109375 20.453125 19.1875 8.296875 
z
" id="DejaVuSans-50"/>
      <path d="M 10.6875 12.40625 
L 21 12.40625 
L 21 0 
L 10.6875 0 
z
" id="DejaVuSans-46"/>
      <path d="M 37.796875 64.3125 
L 12.890625 25.390625 
L 37.796875 25.390625 
z
M 35.203125 72.90625 
L 47.609375 72.90625 
L 47.609375 25.390625 
L 58.015625 25.390625 
L 58.015625 17.1875 
L 47.609375 17.1875 
L 47.609375 0 
L 37.796875 0 
L 37.796875 17.1875 
L 4.890625 17.1875 
L 4.890625 26.703125 
z
" id="DejaVuSans-52"/>
     </defs>
     <use xlink:href="#DejaVuSans-118"/>
     <use x="59.179688" xlink:href="#DejaVuSans-50"/>
     <use x="122.802734" xlink:href="#DejaVuSans-46"/>
     <use x="154.589844" xlink:href="#DejaVuSans-52"/>
    </g>
   </g>
   <g id="legend_1">
    <g id="patch_7">
     <path d="M 309.970125 281.28 
L 439.192 281.28 
Q 443.192 281.28 443.192 277.28 
L 443.192 161.855 
Q 443.192 157.855 439.192 157.855 
L 309.970125 157.855 
Q 305.970125 157.855 305.970125 161.855 
L 305.970125 277.28 
Q 305.970125 281.28 309.970125 281.28 
z
" style="fill:#ffffff;opacity:0.2;stroke:#cccccc;stroke-linejoin:miter;"/>
    </g>
    <g id="line2d_67">
     <path d="M 313.970125 174.051875 
L 353.970125 174.051875 
" style="fill:none;stroke:#000000;stroke-linecap:square;stroke-width:3;"/>
    </g>
    <g id="line2d_68"/>
    <g id="text_7">
     <!-- 1: 5/5 -->
     <g transform="translate(369.970125 181.051875)scale(0.2 -0.2)">
      <defs>
       <path d="M 11.71875 12.40625 
L 22.015625 12.40625 
L 22.015625 0 
L 11.71875 0 
z
M 11.71875 51.703125 
L 22.015625 51.703125 
L 22.015625 39.3125 
L 11.71875 39.3125 
z
" id="DejaVuSans-58"/>
       <path d="M 25.390625 72.90625 
L 33.6875 72.90625 
L 8.296875 -9.28125 
L 0 -9.28125 
z
" id="DejaVuSans-47"/>
      </defs>
      <use xlink:href="#DejaVuSans-49"/>
      <use x="63.623047" xlink:href="#DejaVuSans-58"/>
      <use x="97.314453" xlink:href="#DejaVuSans-32"/>
      <use x="129.101562" xlink:href="#DejaVuSans-53"/>
      <use x="192.724609" xlink:href="#DejaVuSans-47"/>
      <use x="226.416016" xlink:href="#DejaVuSans-53"/>
     </g>
    </g>
    <g id="line2d_69">
     <path d="M 313.970125 203.408125 
L 353.970125 203.408125 
" style="fill:none;stroke:#00bfbf;stroke-linecap:square;stroke-width:3;"/>
    </g>
    <g id="line2d_70"/>
    <g id="text_8">
     <!-- -1: 5/5 -->
     <g transform="translate(369.970125 210.408125)scale(0.2 -0.2)">
      <use xlink:href="#DejaVuSans-45"/>
      <use x="36.083984" xlink:href="#DejaVuSans-49"/>
      <use x="99.707031" xlink:href="#DejaVuSans-58"/>
      <use x="133.398438" xlink:href="#DejaVuSans-32"/>
      <use x="165.185547" xlink:href="#DejaVuSans-53"/>
      <use x="228.808594" xlink:href="#DejaVuSans-47"/>
      <use x="262.5" xlink:href="#DejaVuSans-53"/>
     </g>
    </g>
    <g id="line2d_71">
     <path d="M 313.970125 232.764375 
L 353.970125 232.764375 
" style="fill:none;stroke:#bf00bf;stroke-linecap:square;stroke-width:3;"/>
    </g>
    <g id="line2d_72"/>
    <g id="text_9">
     <!-- -4: 5/3 -->
     <g transform="translate(369.970125 239.764375)scale(0.2 -0.2)">
      <defs>
       <path d="M 40.578125 39.3125 
Q 47.65625 37.796875 51.625 33 
Q 55.609375 28.21875 55.609375 21.1875 
Q 55.609375 10.40625 48.1875 4.484375 
Q 40.765625 -1.421875 27.09375 -1.421875 
Q 22.515625 -1.421875 17.65625 -0.515625 
Q 12.796875 0.390625 7.625 2.203125 
L 7.625 11.71875 
Q 11.71875 9.328125 16.59375 8.109375 
Q 21.484375 6.890625 26.8125 6.890625 
Q 36.078125 6.890625 40.9375 10.546875 
Q 45.796875 14.203125 45.796875 21.1875 
Q 45.796875 27.640625 41.28125 31.265625 
Q 36.765625 34.90625 28.71875 34.90625 
L 20.21875 34.90625 
L 20.21875 43.015625 
L 29.109375 43.015625 
Q 36.375 43.015625 40.234375 45.921875 
Q 44.09375 48.828125 44.09375 54.296875 
Q 44.09375 59.90625 40.109375 62.90625 
Q 36.140625 65.921875 28.71875 65.921875 
Q 24.65625 65.921875 20.015625 65.03125 
Q 15.375 64.15625 9.8125 62.3125 
L 9.8125 71.09375 
Q 15.4375 72.65625 20.34375 73.4375 
Q 25.25 74.21875 29.59375 74.21875 
Q 40.828125 74.21875 47.359375 69.109375 
Q 53.90625 64.015625 53.90625 55.328125 
Q 53.90625 49.265625 50.4375 45.09375 
Q 46.96875 40.921875 40.578125 39.3125 
z
" id="DejaVuSans-51"/>
      </defs>
      <use xlink:href="#DejaVuSans-45"/>
      <use x="36.083984" xlink:href="#DejaVuSans-52"/>
      <use x="99.707031" xlink:href="#DejaVuSans-58"/>
      <use x="133.398438" xlink:href="#DejaVuSans-32"/>
      <use x="165.185547" xlink:href="#DejaVuSans-53"/>
      <use x="228.808594" xlink:href="#DejaVuSans-47"/>
      <use x="262.5" xlink:href="#DejaVuSans-51"/>
     </g>
    </g>
    <g id="line2d_73">
     <path d="M 313.970125 262.120625 
L 353.970125 262.120625 
" style="fill:none;stroke:#ff0000;stroke-linecap:square;stroke-width:3;"/>
    </g>
    <g id="line2d_74"/>
    <g id="text_10">
     <!-- -8: 5/1 -->
     <g transform="translate(369.970125 269.120625)scale(0.2 -0.2)">
      <defs>
       <path d="M 31.78125 34.625 
Q 24.75 34.625 20.71875 30.859375 
Q 16.703125 27.09375 16.703125 20.515625 
Q 16.703125 13.921875 20.71875 10.15625 
Q 24.75 6.390625 31.78125 6.390625 
Q 38.8125 6.390625 42.859375 10.171875 
Q 46.921875 13.96875 46.921875 20.515625 
Q 46.921875 27.09375 42.890625 30.859375 
Q 38.875 34.625 31.78125 34.625 
z
M 21.921875 38.8125 
Q 15.578125 40.375 12.03125 44.71875 
Q 8.5 49.078125 8.5 55.328125 
Q 8.5 64.0625 14.71875 69.140625 
Q 20.953125 74.21875 31.78125 74.21875 
Q 42.671875 74.21875 48.875 69.140625 
Q 55.078125 64.0625 55.078125 55.328125 
Q 55.078125 49.078125 51.53125 44.71875 
Q 48 40.375 41.703125 38.8125 
Q 48.828125 37.15625 52.796875 32.3125 
Q 56.78125 27.484375 56.78125 20.515625 
Q 56.78125 9.90625 50.3125 4.234375 
Q 43.84375 -1.421875 31.78125 -1.421875 
Q 19.734375 -1.421875 13.25 4.234375 
Q 6.78125 9.90625 6.78125 20.515625 
Q 6.78125 27.484375 10.78125 32.3125 
Q 14.796875 37.15625 21.921875 38.8125 
z
M 18.3125 54.390625 
Q 18.3125 48.734375 21.84375 45.5625 
Q 25.390625 42.390625 31.78125 42.390625 
Q 38.140625 42.390625 41.71875 45.5625 
Q 45.3125 48.734375 45.3125 54.390625 
Q 45.3125 60.0625 41.71875 63.234375 
Q 38.140625 66.40625 31.78125 66.40625 
Q 25.390625 66.40625 21.84375 63.234375 
Q 18.3125 60.0625 18.3125 54.390625 
z
" id="DejaVuSans-56"/>
      </defs>
      <use xlink:href="#DejaVuSans-45"/>
      <use x="36.083984" xlink:href="#DejaVuSans-56"/>
      <use x="99.707031" xlink:href="#DejaVuSans-58"/>
      <use x="133.398438" xlink:href="#DejaVuSans-32"/>
      <use x="165.185547" xlink:href="#DejaVuSans-53"/>
      <use x="228.808594" xlink:href="#DejaVuSans-47"/>
      <use x="262.5" xlink:href="#DejaVuSans-49"/>
     </g>
    </g>
   </g>
  </g>
 </g>
 <defs>
  <clipPath id="p1a656205b3">
   <rect height="288.28" width="419.032" x="34.16" y="3"/>
  </clipPath>
 </defs>
</svg>
