<?xml version="1.0" encoding="utf-8" standalone="no"?>
<!DOCTYPE svg PUBLIC "-//W3C//DTD SVG 1.1//EN"
  "http://www.w3.org/Graphics/SVG/1.1/DTD/svg11.dtd">
<!-- Created with matplotlib (https://matplotlib.org/) -->
<svg height="345.6pt" version="1.1" viewBox="0 0 460.8 345.6" width="460.8pt" xmlns="http://www.w3.org/2000/svg" xmlns:xlink="http://www.w3.org/1999/xlink">
 <metadata>
  <rdf:RDF xmlns:cc="http://creativecommons.org/ns#" xmlns:dc="http://purl.org/dc/elements/1.1/" xmlns:rdf="http://www.w3.org/1999/02/22-rdf-syntax-ns#">
   <cc:Work>
    <dc:type rdf:resource="http://purl.org/dc/dcmitype/StillImage"/>
    <dc:date>2021-05-01T17:08:48.622348</dc:date>
    <dc:format>image/svg+xml</dc:format>
    <dc:creator>
     <cc:Agent>
      <dc:title>Matplotlib v3.3.2, https://matplotlib.org/</dc:title>
     </cc:Agent>
    </dc:creator>
   </cc:Work>
  </rdf:RDF>
 </metadata>
 <defs>
  <style type="text/css">*{stroke-linecap:butt;stroke-linejoin:round;}</style>
 </defs>
 <g id="figure_1">
  <g id="patch_1">
   <path d="M 0 345.6 
L 460.8 345.6 
L 460.8 0 
L 0 0 
z
" style="fill:#ffffff;"/>
  </g>
  <g id="axes_1">
   <g id="patch_2">
    <path d="M 34.16 291.28 
L 453.192 291.28 
L 453.192 3 
L 34.16 3 
z
" style="fill:#ffffff;"/>
   </g>
   <g id="matplotlib.axis_1">
    <g id="xtick_1">
     <g id="line2d_1">
      <path clip-path="url(#p2abfcd80bd)" d="M 62.522006 291.28 
L 62.522006 3 
" style="fill:none;stroke:#b0b0b0;stroke-linecap:square;stroke-width:0.8;"/>
     </g>
     <g id="line2d_2">
      <defs>
       <path d="M 0 0 
L 0 3.5 
" id="m4e02218182" style="stroke:#000000;stroke-width:0.8;"/>
      </defs>
      <g>
       <use style="stroke:#000000;stroke-width:0.8;" x="62.522006" xlink:href="#m4e02218182" y="291.28"/>
      </g>
     </g>
     <g id="text_1">
      <!-- -1 -->
      <g transform="translate(52.551693 313.476875)scale(0.2 -0.2)">
       <defs>
        <path d="M 4.890625 31.390625 
L 31.203125 31.390625 
L 31.203125 23.390625 
L 4.890625 23.390625 
z
" id="DejaVuSans-45"/>
        <path d="M 12.40625 8.296875 
L 28.515625 8.296875 
L 28.515625 63.921875 
L 10.984375 60.40625 
L 10.984375 69.390625 
L 28.421875 72.90625 
L 38.28125 72.90625 
L 38.28125 8.296875 
L 54.390625 8.296875 
L 54.390625 0 
L 12.40625 0 
z
" id="DejaVuSans-49"/>
       </defs>
       <use xlink:href="#DejaVuSans-45"/>
       <use x="36.083984" xlink:href="#DejaVuSans-49"/>
      </g>
     </g>
    </g>
    <g id="xtick_2">
     <g id="line2d_3">
      <path clip-path="url(#p2abfcd80bd)" d="M 243.676 291.28 
L 243.676 3 
" style="fill:none;stroke:#b0b0b0;stroke-linecap:square;stroke-width:0.8;"/>
     </g>
     <g id="line2d_4">
      <g>
       <use style="stroke:#000000;stroke-width:0.8;" x="243.676" xlink:href="#m4e02218182" y="291.28"/>
      </g>
     </g>
     <g id="text_2">
      <!-- 0 -->
      <g transform="translate(237.3135 313.476875)scale(0.2 -0.2)">
       <defs>
        <path d="M 31.78125 66.40625 
Q 24.171875 66.40625 20.328125 58.90625 
Q 16.5 51.421875 16.5 36.375 
Q 16.5 21.390625 20.328125 13.890625 
Q 24.171875 6.390625 31.78125 6.390625 
Q 39.453125 6.390625 43.28125 13.890625 
Q 47.125 21.390625 47.125 36.375 
Q 47.125 51.421875 43.28125 58.90625 
Q 39.453125 66.40625 31.78125 66.40625 
z
M 31.78125 74.21875 
Q 44.046875 74.21875 50.515625 64.515625 
Q 56.984375 54.828125 56.984375 36.375 
Q 56.984375 17.96875 50.515625 8.265625 
Q 44.046875 -1.421875 31.78125 -1.421875 
Q 19.53125 -1.421875 13.0625 8.265625 
Q 6.59375 17.96875 6.59375 36.375 
Q 6.59375 54.828125 13.0625 64.515625 
Q 19.53125 74.21875 31.78125 74.21875 
z
" id="DejaVuSans-48"/>
       </defs>
       <use xlink:href="#DejaVuSans-48"/>
      </g>
     </g>
    </g>
    <g id="xtick_3">
     <g id="line2d_5">
      <path clip-path="url(#p2abfcd80bd)" d="M 424.829994 291.28 
L 424.829994 3 
" style="fill:none;stroke:#b0b0b0;stroke-linecap:square;stroke-width:0.8;"/>
     </g>
     <g id="line2d_6">
      <g>
       <use style="stroke:#000000;stroke-width:0.8;" x="424.829994" xlink:href="#m4e02218182" y="291.28"/>
      </g>
     </g>
     <g id="text_3">
      <!-- 1 -->
      <g transform="translate(418.467494 313.476875)scale(0.2 -0.2)">
       <use xlink:href="#DejaVuSans-49"/>
      </g>
     </g>
    </g>
    <g id="xtick_4">
     <g id="line2d_7">
      <defs>
       <path d="M 0 0 
L 0 2 
" id="mfc12d373ea" style="stroke:#000000;stroke-width:0.6;"/>
      </defs>
      <g>
       <use style="stroke:#000000;stroke-width:0.6;" x="34.460897" xlink:href="#mfc12d373ea" y="291.28"/>
      </g>
     </g>
    </g>
    <g id="xtick_5">
     <g id="line2d_8">
      <g>
       <use style="stroke:#000000;stroke-width:0.6;" x="44.96637" xlink:href="#mfc12d373ea" y="291.28"/>
      </g>
     </g>
    </g>
    <g id="xtick_6">
     <g id="line2d_9">
      <g>
       <use style="stroke:#000000;stroke-width:0.6;" x="54.232854" xlink:href="#mfc12d373ea" y="291.28"/>
      </g>
     </g>
    </g>
    <g id="xtick_7">
     <g id="line2d_10">
      <g>
       <use style="stroke:#000000;stroke-width:0.6;" x="117.054792" xlink:href="#mfc12d373ea" y="291.28"/>
      </g>
     </g>
    </g>
    <g id="xtick_8">
     <g id="line2d_11">
      <g>
       <use style="stroke:#000000;stroke-width:0.6;" x="148.954427" xlink:href="#mfc12d373ea" y="291.28"/>
      </g>
     </g>
    </g>
    <g id="xtick_9">
     <g id="line2d_12">
      <g>
       <use style="stroke:#000000;stroke-width:0.6;" x="171.587578" xlink:href="#mfc12d373ea" y="291.28"/>
      </g>
     </g>
    </g>
    <g id="xtick_10">
     <g id="line2d_13">
      <g>
       <use style="stroke:#000000;stroke-width:0.6;" x="189.143214" xlink:href="#mfc12d373ea" y="291.28"/>
      </g>
     </g>
    </g>
    <g id="xtick_11">
     <g id="line2d_14">
      <g>
       <use style="stroke:#000000;stroke-width:0.6;" x="203.487213" xlink:href="#mfc12d373ea" y="291.28"/>
      </g>
     </g>
    </g>
    <g id="xtick_12">
     <g id="line2d_15">
      <g>
       <use style="stroke:#000000;stroke-width:0.6;" x="215.614891" xlink:href="#mfc12d373ea" y="291.28"/>
      </g>
     </g>
    </g>
    <g id="xtick_13">
     <g id="line2d_16">
      <g>
       <use style="stroke:#000000;stroke-width:0.6;" x="226.120364" xlink:href="#mfc12d373ea" y="291.28"/>
      </g>
     </g>
    </g>
    <g id="xtick_14">
     <g id="line2d_17">
      <g>
       <use style="stroke:#000000;stroke-width:0.6;" x="235.386848" xlink:href="#mfc12d373ea" y="291.28"/>
      </g>
     </g>
    </g>
    <g id="xtick_15">
     <g id="line2d_18">
      <g>
       <use style="stroke:#000000;stroke-width:0.6;" x="298.208786" xlink:href="#mfc12d373ea" y="291.28"/>
      </g>
     </g>
    </g>
    <g id="xtick_16">
     <g id="line2d_19">
      <g>
       <use style="stroke:#000000;stroke-width:0.6;" x="330.108421" xlink:href="#mfc12d373ea" y="291.28"/>
      </g>
     </g>
    </g>
    <g id="xtick_17">
     <g id="line2d_20">
      <g>
       <use style="stroke:#000000;stroke-width:0.6;" x="352.741572" xlink:href="#mfc12d373ea" y="291.28"/>
      </g>
     </g>
    </g>
    <g id="xtick_18">
     <g id="line2d_21">
      <g>
       <use style="stroke:#000000;stroke-width:0.6;" x="370.297208" xlink:href="#mfc12d373ea" y="291.28"/>
      </g>
     </g>
    </g>
    <g id="xtick_19">
     <g id="line2d_22">
      <g>
       <use style="stroke:#000000;stroke-width:0.6;" x="384.641207" xlink:href="#mfc12d373ea" y="291.28"/>
      </g>
     </g>
    </g>
    <g id="xtick_20">
     <g id="line2d_23">
      <g>
       <use style="stroke:#000000;stroke-width:0.6;" x="396.768885" xlink:href="#mfc12d373ea" y="291.28"/>
      </g>
     </g>
    </g>
    <g id="xtick_21">
     <g id="line2d_24">
      <g>
       <use style="stroke:#000000;stroke-width:0.6;" x="407.274358" xlink:href="#mfc12d373ea" y="291.28"/>
      </g>
     </g>
    </g>
    <g id="xtick_22">
     <g id="line2d_25">
      <g>
       <use style="stroke:#000000;stroke-width:0.6;" x="416.540842" xlink:href="#mfc12d373ea" y="291.28"/>
      </g>
     </g>
    </g>
    <g id="text_4">
     <!-- log10 of FEvals ratio -->
     <g transform="translate(141.371312 336.833125)scale(0.2 -0.2)">
      <defs>
       <path d="M 9.421875 75.984375 
L 18.40625 75.984375 
L 18.40625 0 
L 9.421875 0 
z
" id="DejaVuSans-108"/>
       <path d="M 30.609375 48.390625 
Q 23.390625 48.390625 19.1875 42.75 
Q 14.984375 37.109375 14.984375 27.296875 
Q 14.984375 17.484375 19.15625 11.84375 
Q 23.34375 6.203125 30.609375 6.203125 
Q 37.796875 6.203125 41.984375 11.859375 
Q 46.1875 17.53125 46.1875 27.296875 
Q 46.1875 37.015625 41.984375 42.703125 
Q 37.796875 48.390625 30.609375 48.390625 
z
M 30.609375 56 
Q 42.328125 56 49.015625 48.375 
Q 55.71875 40.765625 55.71875 27.296875 
Q 55.71875 13.875 49.015625 6.21875 
Q 42.328125 -1.421875 30.609375 -1.421875 
Q 18.84375 -1.421875 12.171875 6.21875 
Q 5.515625 13.875 5.515625 27.296875 
Q 5.515625 40.765625 12.171875 48.375 
Q 18.84375 56 30.609375 56 
z
" id="DejaVuSans-111"/>
       <path d="M 45.40625 27.984375 
Q 45.40625 37.75 41.375 43.109375 
Q 37.359375 48.484375 30.078125 48.484375 
Q 22.859375 48.484375 18.828125 43.109375 
Q 14.796875 37.75 14.796875 27.984375 
Q 14.796875 18.265625 18.828125 12.890625 
Q 22.859375 7.515625 30.078125 7.515625 
Q 37.359375 7.515625 41.375 12.890625 
Q 45.40625 18.265625 45.40625 27.984375 
z
M 54.390625 6.78125 
Q 54.390625 -7.171875 48.1875 -13.984375 
Q 42 -20.796875 29.203125 -20.796875 
Q 24.46875 -20.796875 20.265625 -20.09375 
Q 16.0625 -19.390625 12.109375 -17.921875 
L 12.109375 -9.1875 
Q 16.0625 -11.328125 19.921875 -12.34375 
Q 23.78125 -13.375 27.78125 -13.375 
Q 36.625 -13.375 41.015625 -8.765625 
Q 45.40625 -4.15625 45.40625 5.171875 
L 45.40625 9.625 
Q 42.625 4.78125 38.28125 2.390625 
Q 33.9375 0 27.875 0 
Q 17.828125 0 11.671875 7.65625 
Q 5.515625 15.328125 5.515625 27.984375 
Q 5.515625 40.671875 11.671875 48.328125 
Q 17.828125 56 27.875 56 
Q 33.9375 56 38.28125 53.609375 
Q 42.625 51.21875 45.40625 46.390625 
L 45.40625 54.6875 
L 54.390625 54.6875 
z
" id="DejaVuSans-103"/>
       <path id="DejaVuSans-32"/>
       <path d="M 37.109375 75.984375 
L 37.109375 68.5 
L 28.515625 68.5 
Q 23.6875 68.5 21.796875 66.546875 
Q 19.921875 64.59375 19.921875 59.515625 
L 19.921875 54.6875 
L 34.71875 54.6875 
L 34.71875 47.703125 
L 19.921875 47.703125 
L 19.921875 0 
L 10.890625 0 
L 10.890625 47.703125 
L 2.296875 47.703125 
L 2.296875 54.6875 
L 10.890625 54.6875 
L 10.890625 58.5 
Q 10.890625 67.625 15.140625 71.796875 
Q 19.390625 75.984375 28.609375 75.984375 
z
" id="DejaVuSans-102"/>
       <path d="M 9.8125 72.90625 
L 51.703125 72.90625 
L 51.703125 64.59375 
L 19.671875 64.59375 
L 19.671875 43.109375 
L 48.578125 43.109375 
L 48.578125 34.8125 
L 19.671875 34.8125 
L 19.671875 0 
L 9.8125 0 
z
" id="DejaVuSans-70"/>
       <path d="M 9.8125 72.90625 
L 55.90625 72.90625 
L 55.90625 64.59375 
L 19.671875 64.59375 
L 19.671875 43.015625 
L 54.390625 43.015625 
L 54.390625 34.71875 
L 19.671875 34.71875 
L 19.671875 8.296875 
L 56.78125 8.296875 
L 56.78125 0 
L 9.8125 0 
z
" id="DejaVuSans-69"/>
       <path d="M 2.984375 54.6875 
L 12.5 54.6875 
L 29.59375 8.796875 
L 46.6875 54.6875 
L 56.203125 54.6875 
L 35.6875 0 
L 23.484375 0 
z
" id="DejaVuSans-118"/>
       <path d="M 34.28125 27.484375 
Q 23.390625 27.484375 19.1875 25 
Q 14.984375 22.515625 14.984375 16.5 
Q 14.984375 11.71875 18.140625 8.90625 
Q 21.296875 6.109375 26.703125 6.109375 
Q 34.1875 6.109375 38.703125 11.40625 
Q 43.21875 16.703125 43.21875 25.484375 
L 43.21875 27.484375 
z
M 52.203125 31.203125 
L 52.203125 0 
L 43.21875 0 
L 43.21875 8.296875 
Q 40.140625 3.328125 35.546875 0.953125 
Q 30.953125 -1.421875 24.3125 -1.421875 
Q 15.921875 -1.421875 10.953125 3.296875 
Q 6 8.015625 6 15.921875 
Q 6 25.140625 12.171875 29.828125 
Q 18.359375 34.515625 30.609375 34.515625 
L 43.21875 34.515625 
L 43.21875 35.40625 
Q 43.21875 41.609375 39.140625 45 
Q 35.0625 48.390625 27.6875 48.390625 
Q 23 48.390625 18.546875 47.265625 
Q 14.109375 46.140625 10.015625 43.890625 
L 10.015625 52.203125 
Q 14.9375 54.109375 19.578125 55.046875 
Q 24.21875 56 28.609375 56 
Q 40.484375 56 46.34375 49.84375 
Q 52.203125 43.703125 52.203125 31.203125 
z
" id="DejaVuSans-97"/>
       <path d="M 44.28125 53.078125 
L 44.28125 44.578125 
Q 40.484375 46.53125 36.375 47.5 
Q 32.28125 48.484375 27.875 48.484375 
Q 21.1875 48.484375 17.84375 46.4375 
Q 14.5 44.390625 14.5 40.28125 
Q 14.5 37.15625 16.890625 35.375 
Q 19.28125 33.59375 26.515625 31.984375 
L 29.59375 31.296875 
Q 39.15625 29.25 43.1875 25.515625 
Q 47.21875 21.78125 47.21875 15.09375 
Q 47.21875 7.46875 41.1875 3.015625 
Q 35.15625 -1.421875 24.609375 -1.421875 
Q 20.21875 -1.421875 15.453125 -0.5625 
Q 10.6875 0.296875 5.421875 2 
L 5.421875 11.28125 
Q 10.40625 8.6875 15.234375 7.390625 
Q 20.0625 6.109375 24.8125 6.109375 
Q 31.15625 6.109375 34.5625 8.28125 
Q 37.984375 10.453125 37.984375 14.40625 
Q 37.984375 18.0625 35.515625 20.015625 
Q 33.0625 21.96875 24.703125 23.78125 
L 21.578125 24.515625 
Q 13.234375 26.265625 9.515625 29.90625 
Q 5.8125 33.546875 5.8125 39.890625 
Q 5.8125 47.609375 11.28125 51.796875 
Q 16.75 56 26.8125 56 
Q 31.78125 56 36.171875 55.265625 
Q 40.578125 54.546875 44.28125 53.078125 
z
" id="DejaVuSans-115"/>
       <path d="M 41.109375 46.296875 
Q 39.59375 47.171875 37.8125 47.578125 
Q 36.03125 48 33.890625 48 
Q 26.265625 48 22.1875 43.046875 
Q 18.109375 38.09375 18.109375 28.8125 
L 18.109375 0 
L 9.078125 0 
L 9.078125 54.6875 
L 18.109375 54.6875 
L 18.109375 46.1875 
Q 20.953125 51.171875 25.484375 53.578125 
Q 30.03125 56 36.53125 56 
Q 37.453125 56 38.578125 55.875 
Q 39.703125 55.765625 41.0625 55.515625 
z
" id="DejaVuSans-114"/>
       <path d="M 18.3125 70.21875 
L 18.3125 54.6875 
L 36.8125 54.6875 
L 36.8125 47.703125 
L 18.3125 47.703125 
L 18.3125 18.015625 
Q 18.3125 11.328125 20.140625 9.421875 
Q 21.96875 7.515625 27.59375 7.515625 
L 36.8125 7.515625 
L 36.8125 0 
L 27.59375 0 
Q 17.1875 0 13.234375 3.875 
Q 9.28125 7.765625 9.28125 18.015625 
L 9.28125 47.703125 
L 2.6875 47.703125 
L 2.6875 54.6875 
L 9.28125 54.6875 
L 9.28125 70.21875 
z
" id="DejaVuSans-116"/>
       <path d="M 9.421875 54.6875 
L 18.40625 54.6875 
L 18.40625 0 
L 9.421875 0 
z
M 9.421875 75.984375 
L 18.40625 75.984375 
L 18.40625 64.59375 
L 9.421875 64.59375 
z
" id="DejaVuSans-105"/>
      </defs>
      <use xlink:href="#DejaVuSans-108"/>
      <use x="27.783203" xlink:href="#DejaVuSans-111"/>
      <use x="88.964844" xlink:href="#DejaVuSans-103"/>
      <use x="152.441406" xlink:href="#DejaVuSans-49"/>
      <use x="216.064453" xlink:href="#DejaVuSans-48"/>
      <use x="279.6875" xlink:href="#DejaVuSans-32"/>
      <use x="311.474609" xlink:href="#DejaVuSans-111"/>
      <use x="372.65625" xlink:href="#DejaVuSans-102"/>
      <use x="407.861328" xlink:href="#DejaVuSans-32"/>
      <use x="439.648438" xlink:href="#DejaVuSans-70"/>
      <use x="497.167969" xlink:href="#DejaVuSans-69"/>
      <use x="560.351562" xlink:href="#DejaVuSans-118"/>
      <use x="619.53125" xlink:href="#DejaVuSans-97"/>
      <use x="680.810547" xlink:href="#DejaVuSans-108"/>
      <use x="708.59375" xlink:href="#DejaVuSans-115"/>
      <use x="760.693359" xlink:href="#DejaVuSans-32"/>
      <use x="792.480469" xlink:href="#DejaVuSans-114"/>
      <use x="833.59375" xlink:href="#DejaVuSans-97"/>
      <use x="894.873047" xlink:href="#DejaVuSans-116"/>
      <use x="934.082031" xlink:href="#DejaVuSans-105"/>
      <use x="961.865234" xlink:href="#DejaVuSans-111"/>
     </g>
    </g>
   </g>
   <g id="matplotlib.axis_2">
    <g id="ytick_1">
     <g id="line2d_26">
      <path clip-path="url(#p2abfcd80bd)" d="M 34.16 288.453725 
L 453.192 288.453725 
" style="fill:none;stroke:#b0b0b0;stroke-linecap:square;stroke-width:0.8;"/>
     </g>
     <g id="line2d_27">
      <defs>
       <path d="M 0 0 
L -3.5 0 
" id="me734466b8b" style="stroke:#000000;stroke-width:0.8;"/>
      </defs>
      <g>
       <use style="stroke:#000000;stroke-width:0.8;" x="34.16" xlink:href="#me734466b8b" y="288.453725"/>
      </g>
     </g>
    </g>
    <g id="ytick_2">
     <g id="line2d_28">
      <path clip-path="url(#p2abfcd80bd)" d="M 34.16 217.796863 
L 453.192 217.796863 
" style="fill:none;stroke:#b0b0b0;stroke-linecap:square;stroke-width:0.8;"/>
     </g>
     <g id="line2d_29">
      <g>
       <use style="stroke:#000000;stroke-width:0.8;" x="34.16" xlink:href="#me734466b8b" y="217.796863"/>
      </g>
     </g>
    </g>
    <g id="ytick_3">
     <g id="line2d_30">
      <path clip-path="url(#p2abfcd80bd)" d="M 34.16 147.14 
L 453.192 147.14 
" style="fill:none;stroke:#b0b0b0;stroke-linecap:square;stroke-width:0.8;"/>
     </g>
     <g id="line2d_31">
      <g>
       <use style="stroke:#000000;stroke-width:0.8;" x="34.16" xlink:href="#me734466b8b" y="147.14"/>
      </g>
     </g>
    </g>
    <g id="ytick_4">
     <g id="line2d_32">
      <path clip-path="url(#p2abfcd80bd)" d="M 34.16 76.483137 
L 453.192 76.483137 
" style="fill:none;stroke:#b0b0b0;stroke-linecap:square;stroke-width:0.8;"/>
     </g>
     <g id="line2d_33">
      <g>
       <use style="stroke:#000000;stroke-width:0.8;" x="34.16" xlink:href="#me734466b8b" y="76.483137"/>
      </g>
     </g>
    </g>
    <g id="ytick_5">
     <g id="line2d_34">
      <path clip-path="url(#p2abfcd80bd)" d="M 34.16 5.826275 
L 453.192 5.826275 
" style="fill:none;stroke:#b0b0b0;stroke-linecap:square;stroke-width:0.8;"/>
     </g>
     <g id="line2d_35">
      <g>
       <use style="stroke:#000000;stroke-width:0.8;" x="34.16" xlink:href="#me734466b8b" y="5.826275"/>
      </g>
     </g>
    </g>
    <g id="text_5">
     <!-- proportion of trials -->
     <g transform="translate(19.000625 240.14625)rotate(-90)scale(0.2 -0.2)">
      <defs>
       <path d="M 18.109375 8.203125 
L 18.109375 -20.796875 
L 9.078125 -20.796875 
L 9.078125 54.6875 
L 18.109375 54.6875 
L 18.109375 46.390625 
Q 20.953125 51.265625 25.265625 53.625 
Q 29.59375 56 35.59375 56 
Q 45.5625 56 51.78125 48.09375 
Q 58.015625 40.1875 58.015625 27.296875 
Q 58.015625 14.40625 51.78125 6.484375 
Q 45.5625 -1.421875 35.59375 -1.421875 
Q 29.59375 -1.421875 25.265625 0.953125 
Q 20.953125 3.328125 18.109375 8.203125 
z
M 48.6875 27.296875 
Q 48.6875 37.203125 44.609375 42.84375 
Q 40.53125 48.484375 33.40625 48.484375 
Q 26.265625 48.484375 22.1875 42.84375 
Q 18.109375 37.203125 18.109375 27.296875 
Q 18.109375 17.390625 22.1875 11.75 
Q 26.265625 6.109375 33.40625 6.109375 
Q 40.53125 6.109375 44.609375 11.75 
Q 48.6875 17.390625 48.6875 27.296875 
z
" id="DejaVuSans-112"/>
       <path d="M 54.890625 33.015625 
L 54.890625 0 
L 45.90625 0 
L 45.90625 32.71875 
Q 45.90625 40.484375 42.875 44.328125 
Q 39.84375 48.1875 33.796875 48.1875 
Q 26.515625 48.1875 22.3125 43.546875 
Q 18.109375 38.921875 18.109375 30.90625 
L 18.109375 0 
L 9.078125 0 
L 9.078125 54.6875 
L 18.109375 54.6875 
L 18.109375 46.1875 
Q 21.34375 51.125 25.703125 53.5625 
Q 30.078125 56 35.796875 56 
Q 45.21875 56 50.046875 50.171875 
Q 54.890625 44.34375 54.890625 33.015625 
z
" id="DejaVuSans-110"/>
      </defs>
      <use xlink:href="#DejaVuSans-112"/>
      <use x="63.476562" xlink:href="#DejaVuSans-114"/>
      <use x="102.339844" xlink:href="#DejaVuSans-111"/>
      <use x="163.521484" xlink:href="#DejaVuSans-112"/>
      <use x="226.998047" xlink:href="#DejaVuSans-111"/>
      <use x="288.179688" xlink:href="#DejaVuSans-114"/>
      <use x="329.292969" xlink:href="#DejaVuSans-116"/>
      <use x="368.501953" xlink:href="#DejaVuSans-105"/>
      <use x="396.285156" xlink:href="#DejaVuSans-111"/>
      <use x="457.466797" xlink:href="#DejaVuSans-110"/>
      <use x="520.845703" xlink:href="#DejaVuSans-32"/>
      <use x="552.632812" xlink:href="#DejaVuSans-111"/>
      <use x="613.814453" xlink:href="#DejaVuSans-102"/>
      <use x="649.019531" xlink:href="#DejaVuSans-32"/>
      <use x="680.806641" xlink:href="#DejaVuSans-116"/>
      <use x="720.015625" xlink:href="#DejaVuSans-114"/>
      <use x="761.128906" xlink:href="#DejaVuSans-105"/>
      <use x="788.912109" xlink:href="#DejaVuSans-97"/>
      <use x="850.191406" xlink:href="#DejaVuSans-108"/>
      <use x="877.974609" xlink:href="#DejaVuSans-115"/>
     </g>
    </g>
   </g>
   <g id="line2d_36">
    <path clip-path="url(#p2abfcd80bd)" d="M 34.16 186.343163 
L 75.849831 186.343163 
L 75.849831 185.978482 
L 83.348282 185.978482 
L 83.348282 185.613801 
L 88.184888 185.613801 
L 88.184888 185.249121 
L 89.920181 185.249121 
L 89.920181 184.88444 
L 92.083181 184.88444 
L 92.083181 184.51976 
L 92.349422 184.51976 
L 92.349422 184.155079 
L 92.526956 184.155079 
L 92.526956 183.790398 
L 94.022219 183.790398 
L 94.022219 183.425718 
L 95.683338 183.425718 
L 95.683338 183.061037 
L 95.98518 183.061037 
L 95.98518 182.696357 
L 96.993837 182.696357 
L 96.993837 182.331676 
L 97.703554 182.331676 
L 97.741933 181.602315 
L 99.028521 181.602315 
L 99.028521 181.237634 
L 100.025407 181.237634 
L 100.025407 180.872954 
L 102.255238 180.872954 
L 102.255238 180.508273 
L 102.55531 180.508273 
L 102.55531 180.143593 
L 104.401124 180.143593 
L 104.418238 179.414231 
L 104.684479 179.414231 
L 104.684479 179.049551 
L 105.533146 179.049551 
L 105.533146 178.68487 
L 106.526972 178.68487 
L 106.597306 177.955509 
L 106.861356 177.955509 
L 106.861356 177.590829 
L 107.034329 177.590829 
L 107.034329 177.226148 
L 108.021763 177.226148 
L 108.021763 176.861467 
L 108.320237 176.861467 
L 108.320237 176.496787 
L 108.618803 176.496787 
L 108.618803 176.132106 
L 108.760306 176.132106 
L 108.760306 175.767426 
L 109.026547 175.767426 
L 109.026547 175.402745 
L 109.328894 175.402745 
L 109.328894 175.038065 
L 110.07699 175.038065 
L 110.151698 173.944023 
L 110.534541 173.944023 
L 110.534541 173.579342 
L 111.304059 173.579342 
L 111.304059 173.214662 
L 112.416149 173.214662 
L 112.416149 172.849981 
L 112.662305 172.849981 
L 112.662305 172.4853 
L 112.793285 172.4853 
L 112.793285 172.12062 
L 113.098871 172.12062 
L 113.098871 171.755939 
L 113.670962 171.755939 
L 113.780241 171.026578 
L 113.844773 171.026578 
L 113.844773 170.661898 
L 114.359806 170.661898 
L 114.419058 169.932536 
L 114.53278 169.932536 
L 114.538552 169.203175 
L 114.890367 169.203175 
L 114.988986 168.473814 
L 115.261871 168.473814 
L 115.261871 168.109133 
L 115.520213 168.109133 
L 115.528112 167.379772 
L 116.532038 167.379772 
L 116.532038 167.015092 
L 116.73618 167.015092 
L 116.73618 166.650411 
L 117.47551 166.650411 
L 117.47551 166.285731 
L 117.868202 166.285731 
L 117.868202 165.92105 
L 118.802509 165.92105 
L 118.802509 165.556369 
L 119.16387 165.556369 
L 119.232435 164.827008 
L 119.546003 164.827008 
L 119.546003 164.462328 
L 120.172527 164.462328 
L 120.224233 163.732966 
L 120.920623 163.732966 
L 120.95386 162.638925 
L 121.078249 162.638925 
L 121.104679 161.909564 
L 121.278691 161.909564 
L 121.278691 161.544883 
L 122.037002 161.544883 
L 122.092112 160.815522 
L 122.210271 160.815522 
L 122.210271 160.450841 
L 122.452461 160.450841 
L 122.452461 160.086161 
L 123.094705 160.086161 
L 123.094705 159.72148 
L 123.267679 159.72148 
L 123.360946 158.992119 
L 123.530357 158.992119 
L 123.53392 158.262758 
L 124.030488 158.262758 
L 124.030488 157.898077 
L 124.255113 157.898077 
L 124.255113 157.533397 
L 124.495697 157.533397 
L 124.521354 156.804035 
L 124.751206 156.804035 
L 124.751206 156.439355 
L 125.295928 156.439355 
L 125.396306 155.345313 
L 125.734 155.345313 
L 125.734 154.980633 
L 126.17983 154.980633 
L 126.17983 154.615952 
L 126.794529 154.615952 
L 126.794529 154.251271 
L 126.996704 154.251271 
L 126.996704 153.886591 
L 127.169678 153.886591 
L 127.169678 153.52191 
L 127.537409 153.52191 
L 127.579814 152.792549 
L 127.80365 152.792549 
L 127.85059 152.063188 
L 128.005361 152.063188 
L 128.011121 151.333827 
L 128.157111 151.333827 
L 128.178335 150.604466 
L 128.608901 150.604466 
L 128.711836 149.875104 
L 128.753457 149.875104 
L 128.753457 149.510424 
L 128.926431 149.510424 
L 128.926431 149.145743 
L 129.077641 149.145743 
L 129.165768 148.051701 
L 129.686723 148.051701 
L 129.686723 147.687021 
L 129.913864 147.687021 
L 130.01359 146.95766 
L 130.279832 146.95766 
L 130.279832 146.592979 
L 130.521898 146.592979 
L 130.602387 145.863618 
L 130.771902 145.863618 
L 130.771902 145.498937 
L 131.038143 145.498937 
L 131.038143 145.134257 
L 131.439407 145.134257 
L 131.439407 144.769576 
L 131.797493 144.769576 
L 131.819509 144.040215 
L 132.110357 144.040215 
L 132.110357 143.675534 
L 132.448065 143.675534 
L 132.448065 143.310854 
L 132.765388 143.310854 
L 132.765388 142.946173 
L 133.031629 142.946173 
L 133.031629 142.581493 
L 133.196161 142.581493 
L 133.296094 141.852132 
L 133.566835 141.852132 
L 133.566835 141.487451 
L 133.739808 141.487451 
L 133.739808 141.12277 
L 133.915589 141.12277 
L 133.915589 140.75809 
L 134.20173 140.75809 
L 134.20173 140.393409 
L 134.6739 140.393409 
L 134.727242 139.664048 
L 134.924246 139.664048 
L 134.924246 139.299367 
L 135.412648 139.299367 
L 135.519158 138.205326 
L 135.585622 138.205326 
L 135.682557 136.746603 
L 136.430654 136.746603 
L 136.430654 136.381923 
L 136.54467 136.381923 
L 136.573055 135.652562 
L 136.667386 135.652562 
L 136.717644 134.923201 
L 137.023463 134.923201 
L 137.023463 134.55852 
L 137.185174 134.55852 
L 137.185174 134.193839 
L 137.676043 134.193839 
L 137.705077 133.464478 
L 137.856424 133.464478 
L 137.856424 133.099798 
L 138.009538 133.099798 
L 138.009538 132.735117 
L 138.42414 132.735117 
L 138.42414 132.370436 
L 139.630327 132.370436 
L 139.630327 132.005756 
L 139.803301 132.005756 
L 139.855351 130.911714 
L 140.48572 130.911714 
L 140.48572 130.547034 
L 140.790735 130.547034 
L 140.790735 130.182353 
L 140.987373 130.182353 
L 140.987373 129.817672 
L 141.128929 129.817672 
L 141.128929 129.452992 
L 141.244031 129.452992 
L 141.301902 128.723631 
L 141.525785 128.723631 
L 141.537758 127.994269 
L 141.70018 127.994269 
L 141.70018 127.629589 
L 141.908629 127.629589 
L 141.908629 127.264908 
L 142.08147 127.264908 
L 142.08147 126.900228 
L 142.289336 126.900228 
L 142.331533 126.170867 
L 143.089844 126.170867 
L 143.089844 125.806186 
L 143.237517 125.806186 
L 143.237517 125.441505 
L 143.427674 125.441505 
L 143.463555 124.712144 
L 143.600647 124.712144 
L 143.600647 124.347464 
L 143.757073 124.347464 
L 143.757073 123.982783 
L 144.073031 123.982783 
L 144.167373 123.253422 
L 144.221866 123.253422 
L 144.244471 122.524061 
L 144.510712 122.524061 
L 144.588081 121.7947 
L 144.856297 121.7947 
L 144.856297 121.430019 
L 145.029271 121.430019 
L 145.08333 120.700658 
L 145.571632 120.700658 
L 145.571632 120.335977 
L 145.920073 120.335977 
L 146.016704 119.606616 
L 146.186314 119.606616 
L 146.215352 118.877255 
L 146.363074 118.877255 
L 146.363074 118.512574 
L 146.549212 118.512574 
L 146.549212 118.147894 
L 147.307524 118.147894 
L 147.307524 117.783213 
L 147.870377 117.783213 
L 147.870377 117.418533 
L 148.047814 117.418533 
L 148.146469 116.689171 
L 148.272079 116.689171 
L 148.272079 116.324491 
L 148.806125 116.324491 
L 148.849598 115.59513 
L 149.155126 115.59513 
L 149.155126 115.230449 
L 149.299001 115.230449 
L 149.30101 114.501088 
L 149.822072 114.501088 
L 149.903222 113.771727 
L 150.346559 113.771727 
L 150.43508 113.042366 
L 150.701321 113.042366 
L 150.799611 112.313004 
L 150.830729 112.313004 
L 150.92009 111.583643 
L 151.10487 111.583643 
L 151.10487 111.218963 
L 151.578825 111.218963 
L 151.59832 110.489602 
L 151.775182 110.489602 
L 151.775182 110.124921 
L 152.533494 110.124921 
L 152.533494 109.76024 
L 153.098356 109.76024 
L 153.098356 109.39556 
L 153.985902 109.39556 
L 153.985902 109.030879 
L 154.337078 109.030879 
L 154.368746 108.301518 
L 154.52698 108.301518 
L 154.52698 107.936837 
L 154.7166 107.936837 
L 154.7166 107.572157 
L 154.875641 107.572157 
L 154.904445 106.842796 
L 155.345735 106.842796 
L 155.345735 106.478115 
L 155.869784 106.478115 
L 155.869784 106.113435 
L 156.093831 106.113435 
L 156.093831 105.748754 
L 156.392202 105.748754 
L 156.392202 105.384073 
L 156.562413 105.384073 
L 156.62749 104.654712 
L 157.694435 104.654712 
L 157.694435 104.290032 
L 158.238016 104.290032 
L 158.238016 103.925351 
L 158.823191 103.925351 
L 158.823191 103.56067 
L 159.370038 103.56067 
L 159.370038 103.19599 
L 160.780093 103.19599 
L 160.780093 102.831309 
L 160.907209 102.831309 
L 160.907209 102.466629 
L 161.309715 102.466629 
L 161.309715 102.101948 
L 162.278694 102.101948 
L 162.374091 101.372587 
L 162.455695 101.372587 
L 162.455695 101.007906 
L 162.753022 101.007906 
L 162.753022 100.643226 
L 163.193597 100.643226 
L 163.193597 100.278545 
L 163.380208 100.278545 
L 163.484444 99.549184 
L 163.885044 99.549184 
L 163.954296 98.819823 
L 164.058438 98.819823 
L 164.058438 98.455142 
L 164.577439 98.455142 
L 164.577439 98.090462 
L 164.993686 98.090462 
L 164.993686 97.725781 
L 165.167168 97.725781 
L 165.167168 97.361101 
L 165.515285 97.361101 
L 165.515285 96.99642 
L 166.006062 96.99642 
L 166.006062 96.631739 
L 166.253041 96.631739 
L 166.253041 96.267059 
L 166.893245 96.267059 
L 166.970702 95.537698 
L 167.364562 95.537698 
L 167.364562 95.173017 
L 167.681665 95.173017 
L 167.681665 94.808336 
L 168.329901 94.808336 
L 168.329901 94.443656 
L 168.469303 94.443656 
L 168.469303 94.078975 
L 168.675021 94.078975 
L 168.675021 93.714295 
L 168.848503 93.714295 
L 168.94599 92.984934 
L 169.19662 92.984934 
L 169.19662 92.620253 
L 170.768048 92.620253 
L 170.768048 92.255572 
L 171.108991 92.255572 
L 171.220064 91.526211 
L 171.375232 91.526211 
L 171.375232 91.161531 
L 172.196671 91.161531 
L 172.196671 90.79685 
L 175.010989 90.79685 
L 175.010989 90.43217 
L 175.653714 90.43217 
L 175.653714 90.067489 
L 175.944562 90.067489 
L 176.019647 89.338128 
L 176.767743 89.338128 
L 176.767743 88.973447 
L 179.353363 88.973447 
L 179.353363 88.608767 
L 181.123165 88.608767 
L 181.123165 88.244086 
L 181.296647 88.244086 
L 181.296647 87.879405 
L 181.506008 87.879405 
L 181.58112 87.150044 
L 181.644764 87.150044 
L 181.679491 86.420683 
L 182.027607 86.420683 
L 182.027607 86.056003 
L 183.151644 86.056003 
L 183.151644 85.691322 
L 183.426933 85.691322 
L 183.426933 85.326641 
L 183.680181 85.326641 
L 183.764752 84.59728 
L 183.938235 84.59728 
L 183.938235 84.2326 
L 184.286351 84.2326 
L 184.286351 83.867919 
L 184.558955 83.867919 
L 184.558955 83.503238 
L 185.013592 83.503238 
L 185.013592 83.138558 
L 185.960454 83.138558 
L 185.960454 82.773877 
L 186.133936 82.773877 
L 186.133936 82.409197 
L 186.482052 82.409197 
L 186.482052 82.044516 
L 187.644613 82.044516 
L 187.644613 81.679836 
L 188.446978 81.679836 
L 188.446978 81.315155 
L 188.62046 81.315155 
L 188.694927 80.585794 
L 188.968576 80.585794 
L 188.971667 79.856433 
L 189.143214 79.856433 
L 189.143214 79.491752 
L 190.51747 79.491752 
L 190.51747 79.127071 
L 190.690953 79.127071 
L 190.690953 78.762391 
L 191.039069 78.762391 
L 191.133398 78.03303 
L 191.1957 78.03303 
L 191.287635 77.303669 
L 191.369183 77.303669 
L 191.441959 76.574307 
L 191.717299 76.574307 
L 191.717299 76.209627 
L 192.848027 76.209627 
L 192.870583 75.480266 
L 194.334047 75.480266 
L 194.334047 75.115585 
L 194.501824 75.115585 
L 194.501824 74.750904 
L 194.675307 74.750904 
L 194.675307 74.386224 
L 195.023423 74.386224 
L 195.023423 74.021543 
L 195.467164 74.021543 
L 195.467164 73.656863 
L 195.640646 73.656863 
L 195.640646 73.292182 
L 195.988763 73.292182 
L 195.988763 72.927502 
L 196.953422 72.927502 
L 196.953422 72.562821 
L 198.606943 72.562821 
L 198.606943 72.19814 
L 199.12362 72.19814 
L 199.12362 71.83346 
L 199.26939 71.83346 
L 199.26939 71.468779 
L 199.953853 71.468779 
L 199.953853 71.104099 
L 200.252006 71.104099 
L 200.252006 70.739418 
L 200.752228 70.739418 
L 200.829781 70.010057 
L 201.064703 70.010057 
L 201.143071 69.280696 
L 201.525914 69.280696 
L 201.525914 68.916015 
L 202.315802 68.916015 
L 202.315802 68.551335 
L 202.790977 68.551335 
L 202.790977 68.186654 
L 202.964459 68.186654 
L 202.964459 67.821973 
L 203.081824 67.821973 
L 203.081824 67.457293 
L 203.255307 67.457293 
L 203.312575 66.727932 
L 203.603423 66.727932 
L 203.603423 66.363251 
L 203.784658 66.363251 
L 203.784658 65.998571 
L 204.317217 65.998571 
L 204.317217 65.63389 
L 204.527502 65.63389 
L 204.527502 65.269209 
L 204.770289 65.269209 
L 204.770289 64.904529 
L 205.980359 64.904529 
L 205.980359 64.539848 
L 206.292588 64.539848 
L 206.292588 64.175168 
L 206.490625 64.175168 
L 206.588697 63.445806 
L 206.664107 63.445806 
L 206.664107 63.081126 
L 207.012224 63.081126 
L 207.105374 62.351765 
L 207.935608 62.351765 
L 207.935608 61.987084 
L 208.23376 61.987084 
L 208.23376 61.622404 
L 208.466883 61.622404 
L 208.466883 61.257723 
L 208.733982 61.257723 
L 208.733982 60.893042 
L 209.046457 60.893042 
L 209.046457 60.528362 
L 210.537376 60.528362 
L 210.537376 60.163681 
L 210.817444 60.163681 
L 210.817444 59.799001 
L 210.990926 59.799001 
L 210.990926 59.43432 
L 211.215606 59.43432 
L 211.215606 59.069639 
L 211.339042 59.069639 
L 211.339042 58.704959 
L 212.298971 58.704959 
L 212.298971 58.340278 
L 212.509256 58.340278 
L 212.509256 57.975598 
L 212.752044 57.975598 
L 212.752044 57.610917 
L 214.274342 57.610917 
L 214.274342 57.246237 
L 214.52173 57.246237 
L 214.52173 56.881556 
L 215.48707 56.881556 
L 215.48707 56.516875 
L 220.616155 56.516875 
L 220.616155 56.152195 
L 222.810882 56.152195 
L 222.810882 55.787514 
L 223.10173 55.787514 
L 223.10173 55.422834 
L 225.010017 55.422834 
L 225.010017 55.058153 
L 226.436179 55.058153 
L 226.510531 54.328792 
L 227.816572 54.328792 
L 227.816572 53.964111 
L 228.322058 53.964111 
L 228.322058 53.599431 
L 228.626916 53.599431 
L 228.626916 53.23475 
L 228.752146 53.23475 
L 228.752146 52.87007 
L 230.312538 52.87007 
L 230.312538 52.505389 
L 230.830041 52.505389 
L 230.837349 51.776028 
L 231.798558 51.776028 
L 231.798558 51.411347 
L 233.146009 51.411347 
L 233.163276 50.681986 
L 233.636596 50.681986 
L 233.636596 50.317306 
L 234.142082 50.317306 
L 234.142082 49.952625 
L 234.44694 49.952625 
L 234.44694 49.587944 
L 234.7064 49.587944 
L 234.7064 49.223264 
L 235.952564 49.223264 
L 235.952564 48.858583 
L 236.071454 48.858583 
L 236.071454 48.493903 
L 236.192421 48.493903 
L 236.192421 48.129222 
L 236.45805 48.129222 
L 236.45805 47.764541 
L 236.588131 47.764541 
L 236.588131 47.399861 
L 236.762908 47.399861 
L 236.762908 47.03518 
L 237.418364 47.03518 
L 237.512955 46.305819 
L 237.716517 46.305819 
L 237.716517 45.941139 
L 238.018441 45.941139 
L 238.018441 45.576458 
L 238.216739 45.576458 
L 238.323299 44.847097 
L 238.529214 44.847097 
L 238.529214 44.482416 
L 238.983299 44.482416 
L 238.998975 43.753055 
L 239.504462 43.753055 
L 239.504462 43.388374 
L 239.80932 43.388374 
L 239.80932 43.023694 
L 240.465316 43.023694 
L 240.465316 42.659013 
L 240.981993 42.659013 
L 240.981993 42.294333 
L 241.299267 42.294333 
L 241.318598 41.564972 
L 241.781728 41.564972 
L 241.812227 40.83561 
L 241.992013 40.83561 
L 241.992013 40.47093 
L 242.110379 40.47093 
L 242.110379 40.106249 
L 242.234801 40.106249 
L 242.234801 39.741569 
L 242.610601 39.741569 
L 242.610601 39.376888 
L 242.859659 39.376888 
L 242.923076 38.647527 
L 243.271871 38.647527 
L 243.271871 38.282846 
L 243.757099 38.282846 
L 243.788548 37.188805 
L 244.082215 37.188805 
L 244.082215 36.824124 
L 244.294034 36.824124 
L 244.345679 36.094763 
L 244.598892 36.094763 
L 244.618782 35.365402 
L 244.916934 35.365402 
L 244.916934 35.000721 
L 245.124268 35.000721 
L 245.124268 34.63604 
L 245.417156 34.63604 
L 245.429126 33.541999 
L 245.727278 33.541999 
L 245.729631 32.812638 
L 245.839721 32.812638 
L 245.922642 32.083276 
L 246.17559 32.083276 
L 246.235117 30.989235 
L 246.385875 30.989235 
L 246.385875 30.624554 
L 246.539975 30.624554 
L 246.628663 29.895193 
L 247.138622 29.895193 
L 247.138622 29.530512 
L 248.150961 29.530512 
L 248.150961 29.165832 
L 248.618575 29.165832 
L 248.618575 28.801151 
L 248.982145 28.801151 
L 248.982145 28.436471 
L 249.135252 28.436471 
L 249.19243 27.707109 
L 249.435218 27.707109 
L 249.487631 26.613068 
L 249.697916 26.613068 
L 249.792489 25.883707 
L 249.940704 25.883707 
L 250.002774 24.789665 
L 250.245562 24.789665 
L 250.263638 24.060304 
L 250.76386 24.060304 
L 250.76386 23.695623 
L 250.957516 23.695623 
L 251.014981 22.966262 
L 251.076335 22.966262 
L 251.076335 22.601581 
L 251.463002 22.601581 
L 251.463002 22.236901 
L 251.76786 22.236901 
L 251.76786 21.87222 
L 252.501002 21.87222 
L 252.54854 21.142859 
L 254.328849 21.142859 
L 254.328849 20.778178 
L 254.539134 20.778178 
L 254.539134 20.413498 
L 254.781921 20.413498 
L 254.781921 20.048817 
L 256.30422 20.048817 
L 256.30422 19.684137 
L 256.773897 19.684137 
L 256.773897 19.319456 
L 257.290574 19.319456 
L 257.290574 18.954775 
L 258.120808 18.954775 
L 258.120808 18.590095 
L 258.41896 18.590095 
L 258.41896 18.225414 
L 258.678529 18.225414 
L 258.678529 17.860734 
L 258.919182 17.860734 
L 258.919182 17.496053 
L 259.231657 17.496053 
L 259.231657 17.131373 
L 262.484171 17.131373 
L 262.484171 16.766692 
L 262.694456 16.766692 
L 262.694456 16.402011 
L 262.937244 16.402011 
L 262.937244 16.037331 
L 264.459542 16.037331 
L 264.459542 15.67265 
L 266.200684 15.67265 
L 266.200684 15.30797 
L 276.207061 15.30797 
L 276.207061 14.943289 
L 453.192 14.943289 
L 453.192 14.943289 
" style="fill:none;stroke:#000000;stroke-linecap:square;stroke-width:3;"/>
   </g>
   <g id="line2d_37">
    <path clip-path="url(#p2abfcd80bd)" style="fill:none;stroke:#000000;stroke-linecap:square;stroke-width:3;"/>
   </g>
   <g id="line2d_38">
    <path clip-path="url(#p2abfcd80bd)" d="M 34.16 187.963965 
L 65.079091 187.963965 
L 65.079091 187.545258 
L 66.905044 187.545258 
L 66.953549 186.707843 
L 68.779502 186.707843 
L 68.779502 186.289136 
L 69.164453 186.289136 
L 69.164453 185.870428 
L 69.919127 185.870428 
L 69.919127 185.451721 
L 70.10667 185.451721 
L 70.10667 185.033014 
L 70.293767 185.033014 
L 70.293767 184.614306 
L 70.573581 184.614306 
L 70.573581 184.195599 
L 70.990406 184.195599 
L 70.990406 183.776892 
L 71.745081 183.776892 
L 71.745081 183.358184 
L 71.932623 183.358184 
L 71.932623 182.939477 
L 72.11972 182.939477 
L 72.11972 182.52077 
L 72.399534 182.52077 
L 72.399534 182.102062 
L 72.561041 182.102062 
L 72.561041 181.683355 
L 72.720002 181.683355 
L 72.776969 180.84594 
L 73.855946 180.84594 
L 73.945196 180.008526 
L 74.435499 180.008526 
L 74.435499 179.589818 
L 74.594459 179.589818 
L 74.602922 178.752404 
L 74.83961 178.752404 
L 74.83961 178.333696 
L 75.359602 178.333696 
L 75.359602 177.914989 
L 75.681899 177.914989 
L 75.77115 177.077574 
L 76.646403 177.077574 
L 76.714068 176.24016 
L 76.805364 176.24016 
L 76.805364 175.821452 
L 77.185555 175.821452 
L 77.185555 175.402745 
L 77.401077 175.402745 
L 77.463315 174.146623 
L 77.519929 174.146623 
L 77.58862 172.890501 
L 77.747581 172.890501 
L 77.775717 172.053086 
L 77.934678 172.053086 
L 77.935543 171.215672 
L 78.05553 171.215672 
L 78.11434 170.378257 
L 78.214491 170.378257 
L 78.264139 169.540842 
L 78.924972 169.540842 
L 78.924972 169.122135 
L 79.260599 169.122135 
L 79.345882 167.866013 
L 79.679646 167.866013 
L 79.679646 167.447306 
L 79.810001 167.447306 
L 79.867189 166.609891 
L 79.940293 166.609891 
L 79.95294 165.772476 
L 80.054286 165.772476 
L 80.138596 164.935062 
L 80.258919 164.935062 
L 80.3341 164.097647 
L 80.417879 164.097647 
L 80.417879 163.67894 
L 81.337896 163.67894 
L 81.427146 162.841525 
L 81.496857 162.841525 
L 81.586107 161.585403 
L 81.827398 161.585403 
L 81.827398 161.166696 
L 82.020905 161.166696 
L 82.07462 160.329281 
L 82.303351 160.329281 
L 82.349501 159.491866 
L 82.490894 159.491866 
L 82.537488 158.654452 
L 82.677991 158.654452 
L 82.775579 157.817037 
L 82.841552 157.817037 
L 82.841552 157.39833 
L 82.957805 157.39833 
L 83.000512 156.142208 
L 83.104175 156.142208 
L 83.150219 155.304793 
L 83.291718 155.304793 
L 83.291718 154.886086 
L 83.429422 154.886086 
L 83.478815 153.629964 
L 83.616465 153.629964 
L 83.705715 152.792549 
L 83.758628 152.792549 
L 83.758628 152.373842 
L 83.949078 152.373842 
L 84.038302 151.536427 
L 84.505556 151.536427 
L 84.505556 151.11772 
L 84.792977 151.11772 
L 84.792977 150.699012 
L 84.916595 150.699012 
L 85.001879 149.44289 
L 85.075556 149.44289 
L 85.167616 147.349354 
L 85.255376 147.349354 
L 85.255376 146.930646 
L 85.44743 146.930646 
L 85.44743 146.511939 
L 85.59629 146.511939 
L 85.633421 145.674524 
L 85.755251 145.674524 
L 85.755251 145.255817 
L 85.962016 145.255817 
L 85.962016 144.83711 
L 86.159982 144.83711 
L 86.24017 143.999695 
L 86.32942 143.999695 
L 86.380014 143.16228 
L 86.712398 143.16228 
L 86.801648 142.324866 
L 86.914656 142.324866 
L 86.914656 141.906158 
L 87.040994 141.906158 
L 87.130244 140.650036 
L 87.195164 140.650036 
L 87.289296 139.393914 
L 87.32813 139.393914 
L 87.32813 138.975207 
L 87.569109 138.975207 
L 87.650818 138.137792 
L 87.743826 138.137792 
L 87.743826 137.719085 
L 87.874859 137.719085 
L 87.874859 137.300378 
L 88.216054 137.300378 
L 88.216054 136.88167 
L 88.544649 136.88167 
L 88.590918 136.044256 
L 88.729795 136.044256 
L 88.819046 135.206841 
L 88.917841 135.206841 
L 88.917841 134.788134 
L 89.202588 134.788134 
L 89.202588 134.369426 
L 89.345592 134.369426 
L 89.345592 133.950719 
L 89.533135 133.950719 
L 89.533135 133.532012 
L 89.720232 133.532012 
L 89.818869 132.27589 
L 89.904153 132.27589 
L 90.000046 131.438475 
L 90.233451 131.438475 
L 90.291097 130.60106 
L 90.376381 130.60106 
L 90.376381 130.182353 
L 90.498564 130.182353 
L 90.498564 129.763646 
L 90.619693 129.763646 
L 90.704977 128.926231 
L 90.792299 128.926231 
L 90.851475 128.088816 
L 90.911372 128.088816 
L 90.970792 126.832694 
L 91.070333 126.832694 
L 91.070333 126.413987 
L 91.299388 126.413987 
L 91.299388 125.99528 
L 91.413493 125.99528 
L 91.413493 125.576572 
L 92.168167 125.576572 
L 92.203434 124.739158 
L 92.308495 124.739158 
L 92.393778 123.064328 
L 92.542806 123.064328 
L 92.542806 122.645621 
L 92.82262 122.645621 
L 92.82262 122.226914 
L 92.988189 122.226914 
L 93.003203 121.389499 
L 93.189941 121.389499 
L 93.282411 120.552084 
L 93.371661 120.552084 
L 93.371661 120.133377 
L 93.757877 120.133377 
L 93.757877 119.71467 
L 93.94542 119.71467 
L 93.94542 119.295962 
L 94.132517 119.295962 
L 94.132517 118.877255 
L 94.412331 118.877255 
L 94.515458 117.621133 
L 94.786067 117.621133 
L 94.786067 117.202426 
L 95.026008 117.202426 
L 95.109869 116.365011 
L 95.813646 116.365011 
L 95.813646 115.946304 
L 96.104985 115.946304 
L 96.194236 115.108889 
L 96.285874 115.108889 
L 96.285874 114.690182 
L 96.61447 114.690182 
L 96.615719 113.852767 
L 96.861111 113.852767 
L 96.946394 113.015352 
L 97.154257 113.015352 
L 97.154257 112.596645 
L 97.540805 112.596645 
L 97.608641 111.75923 
L 97.694696 111.75923 
L 97.783946 110.921816 
L 98.303272 110.921816 
L 98.303272 110.503108 
L 99.028715 110.503108 
L 99.028715 110.084401 
L 99.198352 110.084401 
L 99.198352 109.665694 
L 99.683685 109.665694 
L 99.768968 108.828279 
L 100.36338 108.828279 
L 100.424951 107.15345 
L 101.23962 107.15345 
L 101.273396 106.316035 
L 101.358679 106.316035 
L 101.358679 105.897328 
L 101.95309 105.897328 
L 101.994294 105.059913 
L 102.181837 105.059913 
L 102.181837 104.641206 
L 102.343033 104.641206 
L 102.368933 103.803791 
L 102.648747 103.803791 
L 102.648747 103.385084 
L 102.855887 103.385084 
L 102.855887 102.966376 
L 104.852135 102.966376 
L 104.852135 102.547669 
L 105.440842 102.547669 
L 105.440842 102.128962 
L 105.678462 102.128962 
L 105.678462 101.710254 
L 105.931112 101.710254 
L 106.020363 100.87284 
L 106.6466 100.87284 
L 106.6466 100.454132 
L 107.268172 100.454132 
L 107.268172 100.035425 
L 107.434768 100.035425 
L 107.434768 99.616718 
L 109.509812 99.616718 
L 109.595095 98.779303 
L 110.189507 98.779303 
L 110.189507 98.360595 
L 111.854881 98.360595 
L 111.854881 97.104473 
L 112.134363 97.104473 
L 112.134363 96.685766 
L 112.966902 96.685766 
L 112.966902 96.267059 
L 115.504589 96.267059 
L 115.504589 95.848351 
L 115.680074 95.848351 
L 115.680074 95.429644 
L 118.560315 95.429644 
L 118.560315 94.592229 
L 126.385312 94.592229 
L 126.385312 94.173522 
L 127.540607 94.173522 
L 127.540607 93.754815 
L 135.916253 93.754815 
L 135.916253 92.9174 
L 136.163527 92.9174 
L 136.163527 92.079985 
L 137.835231 92.079985 
L 137.835231 91.661278 
L 138.082505 91.661278 
L 138.082505 91.242571 
L 140.93304 91.242571 
L 140.93304 90.823863 
L 141.180313 90.823863 
L 141.180313 90.405156 
L 142.138798 90.405156 
L 142.138798 89.986449 
L 142.386072 89.986449 
L 142.386072 89.567741 
L 147.347079 89.567741 
L 147.347079 88.311619 
L 147.594352 88.311619 
L 147.626561 86.63679 
L 147.873835 86.63679 
L 147.873835 86.218083 
L 148.4591 86.218083 
L 148.4591 85.799375 
L 148.706373 85.799375 
L 148.706373 85.380668 
L 151.172271 85.380668 
L 151.172271 84.961961 
L 151.419545 84.961961 
L 151.419545 84.543253 
L 154.052513 84.543253 
L 154.052513 83.705839 
L 154.299787 83.705839 
L 154.299787 82.868424 
L 160.32492 82.868424 
L 160.32492 82.031009 
L 161.87751 82.031009 
L 161.87751 81.612302 
L 162.124783 81.612302 
L 162.124783 81.193595 
L 162.243897 81.193595 
L 162.243897 80.774887 
L 163.032805 80.774887 
L 163.032805 80.35618 
L 163.280078 80.35618 
L 163.280078 79.937473 
L 165.066459 79.937473 
L 165.066459 79.100058 
L 165.341706 79.100058 
L 165.424884 77.843936 
L 166.547464 77.843936 
L 166.547464 77.425229 
L 166.985437 77.425229 
L 166.985437 77.006521 
L 167.343862 77.006521 
L 167.343862 76.587814 
L 170.083246 76.587814 
L 170.083246 76.169107 
L 170.441671 76.169107 
L 170.441671 75.750399 
L 171.289004 75.750399 
L 171.289004 75.331692 
L 171.647429 75.331692 
L 171.755745 73.656863 
L 172.035227 73.656863 
L 172.035227 73.238155 
L 172.867766 73.238155 
L 172.867766 72.819448 
L 175.580938 72.819448 
L 175.580938 72.400741 
L 176.497285 72.400741 
L 176.497285 71.144619 
L 176.776767 71.144619 
L 176.85571 69.469789 
L 177.135192 69.469789 
L 177.135192 69.051082 
L 177.609306 69.051082 
L 177.609306 68.632375 
L 177.967731 68.632375 
L 177.967731 68.213667 
L 178.46118 68.213667 
L 178.46118 67.376253 
L 180.322477 67.376253 
L 180.322477 66.957545 
L 180.680903 66.957545 
L 180.680903 66.538838 
L 183.202719 66.538838 
L 183.202719 65.701423 
L 183.561144 65.701423 
L 183.561144 64.864009 
L 186.126074 64.864009 
L 186.126074 64.026594 
L 186.286176 64.026594 
L 186.368248 63.189179 
L 187.441471 63.189179 
L 187.441471 62.770472 
L 187.898688 62.770472 
L 187.898688 62.351765 
L 188.045052 62.351765 
L 188.045052 61.933057 
L 189.729117 61.933057 
L 189.729117 61.51435 
L 190.001555 61.51435 
L 190.001555 61.095643 
L 191.027716 61.095643 
L 191.027716 60.676935 
L 191.142861 60.676935 
L 191.142861 60.258228 
L 191.386141 60.258228 
L 191.386141 59.839521 
L 192.183011 59.839521 
L 192.183011 59.420813 
L 192.348619 59.420813 
L 192.348619 59.002106 
L 192.541436 59.002106 
L 192.541436 58.583399 
L 193.112197 58.583399 
L 193.112197 58.164691 
L 195.580796 58.164691 
L 195.580796 57.745984 
L 195.97391 57.745984 
L 195.97391 57.327277 
L 196.462557 57.327277 
L 196.513573 56.489862 
L 196.661797 56.489862 
L 196.661797 56.071155 
L 197.5569 56.071155 
L 197.5569 54.815033 
L 197.682479 54.815033 
L 197.682479 54.396325 
L 197.836382 54.396325 
L 197.836382 53.977618 
L 198.486884 53.977618 
L 198.486884 53.558911 
L 198.668921 53.558911 
L 198.668921 53.140203 
L 199.032092 53.140203 
L 199.032092 52.721496 
L 199.738377 52.721496 
L 199.738377 52.302789 
L 200.680594 52.302789 
L 200.680594 51.884081 
L 201.382093 51.884081 
L 201.382093 51.465374 
L 204.262334 51.465374 
L 204.262334 50.627959 
L 212.087331 50.627959 
L 212.087331 50.209252 
L 213.242626 50.209252 
L 213.242626 49.790545 
L 221.51899 49.790545 
L 221.51899 49.371837 
L 223.049431 49.371837 
L 223.049431 48.95313 
L 223.334706 48.95313 
L 223.334706 48.534423 
L 224.865147 48.534423 
L 224.879859 47.697008 
L 225.152298 47.697008 
L 225.152298 47.278301 
L 225.590485 47.278301 
L 225.590485 46.859593 
L 225.951761 46.859593 
L 225.951761 46.440886 
L 226.695575 46.440886 
L 226.695575 46.022179 
L 226.968014 46.022179 
L 226.968014 45.603471 
L 227.120925 45.603471 
L 227.120925 45.184764 
L 227.405112 45.184764 
L 227.482202 44.347349 
L 228.26294 44.347349 
L 228.315349 43.509935 
L 228.423898 43.509935 
L 228.423898 43.091227 
L 228.935553 43.091227 
L 228.951353 42.253813 
L 229.223792 42.253813 
L 229.31263 41.416398 
L 229.585069 41.416398 
L 229.585069 40.997691 
L 229.845789 40.997691 
L 229.954338 40.160276 
L 230.078656 40.160276 
L 230.078656 39.741569 
L 230.731539 39.741569 
L 230.765981 38.904154 
L 231.03842 38.904154 
L 231.124653 38.066739 
L 231.613299 38.066739 
L 231.676217 36.810617 
L 231.784766 36.810617 
L 231.812539 35.973203 
L 231.948656 35.973203 
L 232.057205 35.135788 
L 232.334434 35.135788 
L 232.334434 34.717081 
L 232.547255 34.717081 
L 232.547255 34.298373 
L 232.695711 34.298373 
L 232.695711 33.879666 
L 232.833221 33.879666 
L 232.940369 33.042251 
L 233.429015 33.042251 
L 233.480032 32.204837 
L 233.628255 32.204837 
L 233.637626 31.367422 
L 234.149061 31.367422 
L 234.182835 30.530007 
L 234.648937 30.530007 
L 234.648937 30.1113 
L 234.803033 30.1113 
L 234.889119 29.273885 
L 235.059298 29.273885 
L 235.167847 28.017763 
L 235.196147 28.017763 
L 235.196147 27.599056 
L 235.453342 27.599056 
L 235.557424 26.761641 
L 235.684794 26.761641 
L 235.73581 25.924227 
L 235.831336 25.924227 
L 235.884034 25.086812 
L 235.998551 25.086812 
L 236.097087 23.83069 
L 236.24531 23.83069 
L 236.24531 23.411983 
L 236.61766 23.411983 
L 236.704835 22.574568 
L 236.904716 22.574568 
L 237.010775 21.737153 
L 237.265993 21.737153 
L 237.265993 21.318446 
L 237.499421 21.318446 
L 237.550438 20.062324 
L 237.636446 20.062324 
L 237.70912 18.387495 
L 237.921011 18.387495 
L 238.02956 17.55008 
L 238.070397 17.55008 
L 238.070397 17.131373 
L 238.254329 17.131373 
L 238.254329 16.712665 
L 238.409658 16.712665 
L 238.518207 15.456543 
L 238.569223 15.456543 
L 238.615606 14.200421 
L 238.717447 14.200421 
L 238.719343 13.363007 
L 238.960613 13.363007 
L 238.960613 12.944299 
L 239.32189 12.944299 
L 239.32189 12.525592 
L 239.523748 12.525592 
L 239.62958 11.688177 
L 239.738129 11.688177 
L 239.738129 11.26947 
L 239.90283 11.26947 
L 239.90283 10.850763 
L 240.068957 10.850763 
L 240.068957 10.432055 
L 240.264107 10.432055 
L 240.264107 10.013348 
L 240.433984 10.013348 
L 240.542533 9.175933 
L 240.775241 9.175933 
L 240.775241 8.757226 
L 240.979193 8.757226 
L 241.087742 7.919811 
L 241.685477 7.919811 
L 241.794026 6.663689 
L 242.627694 6.663689 
L 242.736243 5.826275 
L 453.192 5.826275 
L 453.192 5.826275 
" style="fill:none;stroke:#00bfbf;stroke-linecap:square;stroke-width:3;"/>
   </g>
   <g id="line2d_39">
    <path clip-path="url(#p2abfcd80bd)" style="fill:none;stroke:#00bfbf;stroke-linecap:square;stroke-width:3;"/>
   </g>
   <g id="line2d_40">
    <path clip-path="url(#p2abfcd80bd)" d="M 34.16 187.963965 
L 45.686051 187.963965 
L 45.686051 187.545258 
L 46.183361 187.545258 
L 46.183361 187.12655 
L 47.559334 187.12655 
L 47.559334 186.707843 
L 48.959525 186.707843 
L 49.055177 185.870428 
L 49.150714 185.870428 
L 49.150714 185.451721 
L 51.455832 185.451721 
L 51.455832 185.033014 
L 52.971051 185.033014 
L 52.971051 184.195599 
L 53.097147 184.195599 
L 53.097147 183.776892 
L 53.594457 183.776892 
L 53.594457 183.358184 
L 54.144641 183.358184 
L 54.189431 182.52077 
L 54.97043 182.52077 
L 54.97043 182.102062 
L 55.212633 182.102062 
L 55.212633 181.683355 
L 56.370621 181.683355 
L 56.466274 180.427233 
L 56.56181 180.427233 
L 56.56181 180.008526 
L 56.96102 180.008526 
L 56.96102 179.589818 
L 58.866929 179.589818 
L 58.866929 179.171111 
L 59.345268 179.171111 
L 59.345268 178.752404 
L 59.906897 178.752404 
L 59.906897 178.333696 
L 60.382148 178.333696 
L 60.404207 177.077574 
L 61.555737 177.077574 
L 61.600528 176.24016 
L 61.78018 176.24016 
L 61.78018 175.821452 
L 62.623729 175.821452 
L 62.623729 175.402745 
L 63.180371 175.402745 
L 63.276023 174.56533 
L 63.299103 174.56533 
L 63.37156 173.727916 
L 63.647521 173.727916 
L 63.647521 173.309208 
L 63.796413 173.309208 
L 63.808141 172.471794 
L 64.144831 172.471794 
L 64.144831 172.053086 
L 64.372116 172.053086 
L 64.372116 171.634379 
L 64.768836 171.634379 
L 64.768836 171.215672 
L 65.172386 171.215672 
L 65.266146 170.378257 
L 65.520804 170.378257 
L 65.615247 169.540842 
L 65.676678 169.540842 
L 65.676678 169.122135 
L 66.112557 169.122135 
L 66.112557 168.703428 
L 66.572577 168.703428 
L 66.66823 167.447306 
L 66.756365 167.447306 
L 66.844188 166.191184 
L 66.920995 166.191184 
L 67.016648 165.353769 
L 67.112184 165.353769 
L 67.191898 164.097647 
L 67.341498 164.097647 
L 67.341498 163.67894 
L 67.48853 163.67894 
L 67.537684 162.841525 
L 68.034994 162.841525 
L 68.137963 161.585403 
L 68.226618 161.585403 
L 68.233499 160.747988 
L 68.365487 160.747988 
L 68.410277 159.910574 
L 68.717471 159.910574 
L 68.723928 159.073159 
L 68.888721 159.073159 
L 68.984374 158.235744 
L 69.068885 158.235744 
L 69.07991 157.39833 
L 69.410967 157.39833 
L 69.433479 156.142208 
L 70.099901 156.142208 
L 70.117662 155.304793 
L 70.213315 155.304793 
L 70.308851 154.467378 
L 70.528963 154.467378 
L 70.617891 152.373842 
L 70.728054 152.373842 
L 70.811158 151.536427 
L 70.90681 151.536427 
L 71.002347 149.861598 
L 71.026273 149.861598 
L 71.026273 149.44289 
L 71.181866 149.44289 
L 71.225364 148.605476 
L 71.385028 148.605476 
L 71.385028 148.186768 
L 71.500092 148.186768 
L 71.595745 147.349354 
L 71.691281 147.349354 
L 71.757693 146.093232 
L 71.802484 146.093232 
L 71.802484 145.674524 
L 72.053837 145.674524 
L 72.150902 143.999695 
L 72.228449 143.999695 
L 72.228449 143.580988 
L 72.402246 143.580988 
L 72.402246 143.16228 
L 72.601338 143.16228 
L 72.61397 142.324866 
L 72.825685 142.324866 
L 72.900248 141.068744 
L 73.174103 141.068744 
L 73.272216 139.812622 
L 73.307465 139.812622 
L 73.307465 139.393914 
L 73.566114 139.393914 
L 73.604422 138.5565 
L 73.802438 138.5565 
L 73.89809 137.300378 
L 73.993626 137.300378 
L 74.097181 134.788134 
L 74.118628 134.788134 
L 74.192718 133.113304 
L 74.295418 133.113304 
L 74.358515 131.857182 
L 74.574072 131.857182 
L 74.574072 131.438475 
L 74.822685 131.438475 
L 74.92249 130.182353 
L 75.004613 130.182353 
L 75.100266 129.344938 
L 75.141829 129.344938 
L 75.195802 128.507524 
L 75.302779 128.507524 
L 75.347569 127.670109 
L 75.47983 127.670109 
L 75.511619 126.413987 
L 75.678579 126.413987 
L 75.678579 125.99528 
L 75.996274 125.99528 
L 76.043805 124.739158 
L 76.298745 124.739158 
L 76.37077 123.483036 
L 76.497836 123.483036 
L 76.497836 123.064328 
L 76.685208 123.064328 
L 76.729999 122.226914 
L 76.890216 122.226914 
L 76.958321 121.389499 
L 77.064266 121.389499 
L 77.174422 120.133377 
L 77.269959 120.133377 
L 77.306739 119.295962 
L 77.50092 119.295962 
L 77.555182 118.458548 
L 77.7532 118.458548 
L 77.813964 117.202426 
L 78.013055 117.202426 
L 78.119157 115.946304 
L 78.248678 115.946304 
L 78.248678 115.527596 
L 78.428053 115.527596 
L 78.428053 115.108889 
L 78.812653 115.108889 
L 78.812653 114.690182 
L 78.937612 114.690182 
L 79.032344 112.596645 
L 79.186645 112.596645 
L 79.274464 111.340523 
L 79.501587 111.340523 
L 79.575077 110.503108 
L 80.055545 110.503108 
L 80.055545 110.084401 
L 80.189729 110.084401 
L 80.254637 108.828279 
L 80.503406 108.828279 
L 80.503406 108.409572 
L 81.090297 108.409572 
L 81.196901 107.15345 
L 81.239957 107.15345 
L 81.257721 106.316035 
L 81.439049 106.316035 
L 81.439049 105.897328 
L 81.803932 105.897328 
L 81.885836 105.059913 
L 82.003024 105.059913 
L 82.003024 104.641206 
L 82.263886 104.641206 
L 82.308676 103.803791 
L 82.442133 103.803791 
L 82.442133 103.385084 
L 83.006108 103.385084 
L 83.006108 102.966376 
L 83.331878 102.966376 
L 83.331878 102.547669 
L 84.188181 102.547669 
L 84.188181 102.128962 
L 84.387272 102.128962 
L 84.387272 101.710254 
L 84.51629 101.710254 
L 84.51629 101.291547 
L 85.080265 101.291547 
L 85.080265 100.87284 
L 85.390356 100.87284 
L 85.390356 100.454132 
L 87.464513 100.454132 
L 87.464513 100.035425 
L 100.424056 100.035425 
L 100.424056 99.19801 
L 102.343033 99.19801 
L 102.343033 98.779303 
L 105.440842 98.779303 
L 105.440842 98.360595 
L 106.6466 98.360595 
L 106.6466 97.941888 
L 111.854881 97.941888 
L 111.854881 96.685766 
L 112.134363 96.685766 
L 112.134363 96.267059 
L 112.966902 96.267059 
L 112.966902 95.848351 
L 115.680074 95.848351 
L 115.680074 95.429644 
L 118.560315 95.429644 
L 118.560315 94.592229 
L 126.385312 94.592229 
L 126.385312 94.173522 
L 127.540607 94.173522 
L 127.569516 92.9174 
L 129.488493 92.9174 
L 129.488493 92.498693 
L 132.140453 92.498693 
L 132.140453 91.661278 
L 132.586302 91.661278 
L 132.586302 91.242571 
L 133.79206 91.242571 
L 133.79206 90.823863 
L 134.059431 90.823863 
L 134.059431 90.405156 
L 137.15724 90.405156 
L 137.15724 89.986449 
L 138.362998 89.986449 
L 138.362998 89.567741 
L 139.000341 89.567741 
L 139.000341 88.311619 
L 139.279823 88.311619 
L 139.279823 87.892912 
L 140.112362 87.892912 
L 140.112362 87.474205 
L 142.825534 87.474205 
L 142.825534 87.055497 
L 143.571279 87.055497 
L 143.571279 85.799375 
L 143.850761 85.799375 
L 143.850761 85.380668 
L 144.6833 85.380668 
L 144.6833 84.961961 
L 145.705775 84.961961 
L 145.705775 84.124546 
L 147.396471 84.124546 
L 147.396471 83.705839 
L 148.857358 83.705839 
L 148.857358 82.868424 
L 150.276713 82.868424 
L 150.276713 82.031009 
L 150.776336 82.031009 
L 150.776336 81.612302 
L 151.621604 81.612302 
L 151.621604 80.774887 
L 153.530772 80.774887 
L 153.540581 79.937473 
L 153.874145 79.937473 
L 153.874145 79.518765 
L 154.174526 79.518765 
L 154.174526 78.681351 
L 154.686067 78.681351 
L 154.686067 78.262643 
L 155.079903 78.262643 
L 155.079903 77.843936 
L 156.093504 77.843936 
L 156.093504 77.425229 
L 156.63839 77.425229 
L 156.63839 77.006521 
L 157.844148 77.006521 
L 157.844148 76.587814 
L 158.101709 76.587814 
L 158.101709 76.169107 
L 159.191313 76.169107 
L 159.257005 75.331692 
L 160.288184 75.331692 
L 160.397071 73.656863 
L 160.567666 73.656863 
L 160.567666 73.238155 
L 161.400205 73.238155 
L 161.400205 72.819448 
L 163.052429 72.819448 
L 163.052429 71.563326 
L 163.331911 71.563326 
L 163.331911 71.144619 
L 164.113376 71.144619 
L 164.16445 70.307204 
L 165.605352 70.307204 
L 165.605352 69.051082 
L 165.884834 69.051082 
L 165.884834 68.632375 
L 166.146671 68.632375 
L 166.146671 67.79496 
L 166.717373 67.79496 
L 166.717373 67.376253 
L 166.877622 67.376253 
L 166.877622 66.957545 
L 166.993618 66.957545 
L 166.993618 66.120131 
L 168.065649 66.120131 
L 168.065649 65.701423 
L 169.430545 65.701423 
L 169.430545 65.282716 
L 169.757863 65.282716 
L 169.757863 64.445301 
L 171.163457 64.445301 
L 171.163457 64.026594 
L 172.310786 64.026594 
L 172.369216 62.770472 
L 174.818614 62.770472 
L 174.818614 62.351765 
L 175.973909 62.351765 
L 175.973909 61.933057 
L 177.577496 61.933057 
L 177.58286 60.258228 
L 177.856979 60.258228 
L 177.856979 59.839521 
L 178.278656 59.839521 
L 178.278656 59.420813 
L 178.425374 59.420813 
L 178.452021 58.583399 
L 178.689517 58.583399 
L 178.738155 57.745984 
L 178.991887 57.745984 
L 179.071227 56.908569 
L 179.242856 56.908569 
L 179.242856 56.489862 
L 179.716191 56.489862 
L 179.716191 56.071155 
L 180.135783 56.071155 
L 180.135783 55.652447 
L 180.485829 55.652447 
L 180.559354 54.815033 
L 181.26515 54.815033 
L 181.291078 53.977618 
L 181.402689 53.977618 
L 181.500439 52.721496 
L 182.265592 52.721496 
L 182.265592 52.302789 
L 183.416225 52.302789 
L 183.416225 51.884081 
L 184.138278 51.884081 
L 184.138278 51.465374 
L 184.282931 51.465374 
L 184.282931 50.627959 
L 192.107927 50.627959 
L 192.107927 50.209252 
L 193.263222 50.209252 
L 193.263222 49.790545 
L 199.957624 49.790545 
L 199.957624 49.371837 
L 200.104342 49.371837 
L 200.130989 48.534423 
L 200.670855 48.534423 
L 200.750195 47.697008 
L 200.921824 47.697008 
L 200.921824 47.278301 
L 201.395159 47.278301 
L 201.395159 46.859593 
L 202.164797 46.859593 
L 202.238322 46.022179 
L 202.944118 46.022179 
L 202.944118 45.603471 
L 203.119601 45.603471 
L 203.179407 44.347349 
L 203.266319 44.347349 
L 203.292965 43.509935 
L 203.832832 43.509935 
L 203.912172 42.67252 
L 203.944561 42.67252 
L 203.944561 42.253813 
L 204.083801 42.253813 
L 204.083801 41.835105 
L 204.557136 41.835105 
L 204.557136 41.416398 
L 205.095194 41.416398 
L 205.095194 40.997691 
L 205.326773 40.997691 
L 205.400299 40.160276 
L 205.817247 40.160276 
L 205.817247 39.741569 
L 206.013186 39.741569 
L 206.106094 38.904154 
L 206.159904 38.904154 
L 206.186551 38.066739 
L 206.31575 38.066739 
L 206.341383 37.229325 
L 206.726417 37.229325 
L 206.805757 36.39191 
L 206.977386 36.39191 
L 206.977386 35.973203 
L 207.106537 35.973203 
L 207.20781 35.135788 
L 207.354528 35.135788 
L 207.450721 33.879666 
L 207.921041 33.879666 
L 208.000381 33.042251 
L 208.172009 33.042251 
L 208.25717 31.786129 
L 208.293884 31.786129 
L 208.293884 31.367422 
L 208.645344 31.367422 
L 208.705657 30.530007 
L 208.852375 30.530007 
L 208.879022 29.692593 
L 208.979223 29.692593 
L 208.999679 28.855178 
L 209.209335 28.855178 
L 209.234969 28.017763 
L 209.321499 28.017763 
L 209.418888 26.761641 
L 209.468217 26.761641 
L 209.498228 25.086812 
L 209.669857 25.086812 
L 209.669857 24.668105 
L 210.000122 24.668105 
L 210.034731 23.83069 
L 210.11407 23.83069 
L 210.194303 22.574568 
L 210.285699 22.574568 
L 210.285699 22.155861 
L 210.403958 22.155861 
L 210.429592 21.318446 
L 210.759034 21.318446 
L 210.759034 20.899739 
L 210.91283 20.899739 
L 210.986355 20.062324 
L 211.150755 20.062324 
L 211.26036 18.806202 
L 211.407078 18.806202 
L 211.433725 17.968787 
L 211.528672 17.968787 
L 211.602197 17.131373 
L 211.692151 17.131373 
L 211.692151 16.712665 
L 211.872808 16.712665 
L 211.973592 15.037836 
L 212.052931 15.037836 
L 212.052931 14.619129 
L 212.22456 14.619129 
L 212.307993 13.781714 
L 212.345379 13.781714 
L 212.345379 13.363007 
L 212.517648 13.363007 
L 212.543282 12.525592 
L 212.692593 12.525592 
L 212.697895 11.688177 
L 213.067432 11.688177 
L 213.067432 11.26947 
L 213.308436 11.26947 
L 213.308436 10.850763 
L 213.467533 10.850763 
L 213.541058 10.013348 
L 213.843226 10.013348 
L 213.843226 9.594641 
L 214.246854 9.594641 
L 214.246854 9.175933 
L 214.456509 9.175933 
L 214.565279 7.501104 
L 215.181122 7.501104 
L 215.247297 6.663689 
L 216.39793 6.663689 
L 216.39793 6.244982 
L 217.119983 6.244982 
L 217.119983 5.826275 
L 453.192 5.826275 
L 453.192 5.826275 
" style="fill:none;stroke:#bf00bf;stroke-linecap:square;stroke-width:3;"/>
   </g>
   <g id="line2d_41">
    <path clip-path="url(#p2abfcd80bd)" style="fill:none;stroke:#bf00bf;stroke-linecap:square;stroke-width:3;"/>
   </g>
   <g id="line2d_42">
    <path clip-path="url(#p2abfcd80bd)" d="M 34.16 187.963965 
L 47.295323 187.963965 
L 47.295323 187.545258 
L 48.281895 187.545258 
L 48.281895 187.12655 
L 50.279617 187.12655 
L 50.279617 186.707843 
L 50.499485 186.707843 
L 50.499485 186.289136 
L 51.345101 186.289136 
L 51.345101 185.870428 
L 51.486056 185.870428 
L 51.486056 185.451721 
L 51.774909 185.451721 
L 51.774909 185.033014 
L 52.761481 185.033014 
L 52.761481 184.614306 
L 53.23242 184.614306 
L 53.23242 184.195599 
L 53.483778 184.195599 
L 53.545365 183.358184 
L 53.63573 183.358184 
L 53.63573 182.939477 
L 54.218992 182.939477 
L 54.218992 182.52077 
L 54.549262 182.52077 
L 54.622302 181.683355 
L 54.759203 181.683355 
L 54.805098 180.84594 
L 55.278798 180.84594 
L 55.372595 180.008526 
L 55.761806 180.008526 
L 55.824687 178.752404 
L 56.216714 178.752404 
L 56.293742 177.496282 
L 56.620024 177.496282 
L 56.620024 177.077574 
L 56.734649 177.077574 
L 56.749526 175.821452 
L 57.277984 175.821452 
L 57.282198 174.984038 
L 57.685508 174.984038 
L 57.789392 173.727916 
L 58.024951 173.727916 
L 58.024951 173.309208 
L 58.48296 173.309208 
L 58.576756 172.053086 
L 58.644972 172.053086 
L 58.7461 171.215672 
L 58.854876 171.215672 
L 58.854876 170.796964 
L 59.165488 170.796964 
L 59.275707 169.95955 
L 59.342871 169.95955 
L 59.416585 169.122135 
L 59.482462 169.122135 
L 59.523623 167.866013 
L 59.631544 167.866013 
L 59.718942 166.609891 
L 59.758384 166.609891 
L 59.852181 165.353769 
L 59.885772 165.353769 
L 59.885772 164.935062 
L 60.12939 164.935062 
L 60.12939 164.516354 
L 60.329443 164.516354 
L 60.34119 163.67894 
L 60.535287 163.67894 
L 60.617327 162.841525 
L 60.649474 162.841525 
L 60.649474 162.422818 
L 60.773328 162.422818 
L 60.784426 161.585403 
L 60.95635 161.585403 
L 61.05514 160.747988 
L 61.215895 160.747988 
L 61.309692 159.910574 
L 61.521345 159.910574 
L 61.629266 158.654452 
L 61.634131 158.654452 
L 61.713002 157.817037 
L 61.942922 157.817037 
L 62.011848 156.979622 
L 62.230838 156.979622 
L 62.327165 156.142208 
L 62.369649 156.142208 
L 62.369649 155.7235 
L 62.541455 155.7235 
L 62.647196 153.211256 
L 62.69475 153.211256 
L 62.788573 152.373842 
L 62.88237 152.373842 
L 62.98469 151.536427 
L 63.333552 151.536427 
L 63.392649 150.699012 
L 63.490345 150.699012 
L 63.490345 150.280305 
L 63.645074 150.280305 
L 63.745281 148.605476 
L 63.803517 148.605476 
L 63.896171 146.930646 
L 63.940644 146.930646 
L 63.940644 146.511939 
L 64.274888 146.511939 
L 64.368685 145.674524 
L 64.608976 145.674524 
L 64.718124 144.418402 
L 64.760224 144.418402 
L 64.811921 143.16228 
L 64.895014 143.16228 
L 64.895014 142.743573 
L 65.006128 142.743573 
L 65.102585 141.068744 
L 65.289831 141.068744 
L 65.353682 140.231329 
L 65.505895 140.231329 
L 65.592913 139.393914 
L 65.683908 139.393914 
L 65.756993 138.137792 
L 65.912944 138.137792 
L 65.912944 137.719085 
L 66.066487 137.719085 
L 66.066487 137.300378 
L 66.469798 137.300378 
L 66.554424 135.625548 
L 66.614324 135.625548 
L 66.722244 133.532012 
L 66.875695 133.532012 
L 66.957734 132.27589 
L 67.206392 132.27589 
L 67.206392 131.857182 
L 67.326347 131.857182 
L 67.420143 131.019768 
L 67.53547 131.019768 
L 67.646378 128.926231 
L 67.740174 128.926231 
L 67.740174 128.507524 
L 67.883068 128.507524 
L 67.969931 127.251402 
L 68.045062 127.251402 
L 68.127102 126.413987 
L 68.161577 126.413987 
L 68.161577 125.99528 
L 68.34129 125.99528 
L 68.412675 125.157865 
L 68.595873 125.157865 
L 68.661321 123.901743 
L 68.855911 123.901743 
L 68.939825 123.064328 
L 69.00177 123.064328 
L 69.08381 121.808206 
L 69.12548 121.808206 
L 69.12548 121.389499 
L 69.427442 121.389499 
L 69.531377 120.552084 
L 69.568716 120.552084 
L 69.617606 119.295962 
L 69.711403 119.295962 
L 69.711403 118.877255 
L 69.830752 118.877255 
L 69.830752 118.458548 
L 69.954769 118.458548 
L 70.056652 117.202426 
L 70.407216 117.202426 
L 70.515137 116.365011 
L 70.632549 116.365011 
L 70.658314 115.527596 
L 70.766235 115.527596 
L 70.766235 115.108889 
L 71.00012 115.108889 
L 71.00012 114.690182 
L 71.213036 114.690182 
L 71.213036 114.271474 
L 71.371119 114.271474 
L 71.47904 113.015352 
L 71.533067 113.015352 
L 71.533067 112.596645 
L 71.777016 112.596645 
L 71.884937 110.921816 
L 71.956828 110.921816 
L 71.966976 110.084401 
L 72.176939 110.084401 
L 72.176939 109.665694 
L 72.486434 109.665694 
L 72.582836 108.409572 
L 72.664875 108.409572 
L 72.664875 107.990864 
L 72.826515 107.990864 
L 72.92967 106.734742 
L 72.984906 106.734742 
L 73.077613 105.897328 
L 73.504296 105.897328 
L 73.504296 105.47862 
L 73.755393 105.47862 
L 73.790418 104.641206 
L 74.196315 104.641206 
L 74.278354 103.803791 
L 74.468198 103.803791 
L 74.468198 103.385084 
L 74.732073 103.385084 
L 74.839994 102.547669 
L 74.874095 102.547669 
L 74.956134 101.710254 
L 75.537893 101.710254 
L 75.537893 101.291547 
L 75.857924 101.291547 
L 75.857924 100.87284 
L 77.151372 100.87284 
L 77.151372 100.454132 
L 77.829152 100.454132 
L 77.829152 100.035425 
L 100.424056 100.035425 
L 100.424056 99.19801 
L 102.343033 99.19801 
L 102.343033 98.779303 
L 105.440842 98.779303 
L 105.440842 98.360595 
L 106.6466 98.360595 
L 106.6466 97.941888 
L 111.854881 97.941888 
L 111.854881 96.685766 
L 112.134363 96.685766 
L 112.134363 96.267059 
L 112.966902 96.267059 
L 112.966902 95.848351 
L 115.680074 95.848351 
L 115.680074 95.429644 
L 118.560315 95.429644 
L 118.560315 94.592229 
L 126.385312 94.592229 
L 126.385312 94.173522 
L 127.540607 94.173522 
L 127.569516 92.9174 
L 129.488493 92.9174 
L 129.488493 92.498693 
L 132.140453 92.498693 
L 132.140453 91.661278 
L 132.586302 91.661278 
L 132.586302 91.242571 
L 133.79206 91.242571 
L 133.79206 90.823863 
L 134.059431 90.823863 
L 134.059431 90.405156 
L 137.15724 90.405156 
L 137.15724 89.986449 
L 138.362998 89.986449 
L 138.362998 89.567741 
L 139.000341 89.567741 
L 139.000341 88.311619 
L 139.279823 88.311619 
L 139.279823 87.892912 
L 140.112362 87.892912 
L 140.112362 87.474205 
L 142.825534 87.474205 
L 142.825534 87.055497 
L 143.571279 87.055497 
L 143.571279 85.799375 
L 143.850761 85.799375 
L 143.850761 85.380668 
L 144.6833 85.380668 
L 144.6833 84.961961 
L 145.705775 84.961961 
L 145.705775 84.124546 
L 147.396471 84.124546 
L 147.396471 83.705839 
L 148.857358 83.705839 
L 148.857358 82.868424 
L 150.276713 82.868424 
L 150.276713 82.031009 
L 150.776336 82.031009 
L 150.776336 81.612302 
L 151.621604 81.612302 
L 151.621604 80.774887 
L 153.530772 80.774887 
L 153.540581 79.937473 
L 153.874145 79.937473 
L 153.874145 79.518765 
L 154.174526 79.518765 
L 154.174526 78.681351 
L 154.686067 78.681351 
L 154.686067 78.262643 
L 155.079903 78.262643 
L 155.079903 77.843936 
L 156.093504 77.843936 
L 156.093504 77.425229 
L 156.63839 77.425229 
L 156.63839 77.006521 
L 157.844148 77.006521 
L 157.844148 76.587814 
L 158.101709 76.587814 
L 158.101709 76.169107 
L 159.191313 76.169107 
L 159.257005 75.331692 
L 160.288184 75.331692 
L 160.397071 73.656863 
L 160.567666 73.656863 
L 160.567666 73.238155 
L 160.885896 73.238155 
L 160.885896 72.819448 
L 161.095727 72.819448 
L 161.095727 72.400741 
L 161.388554 72.400741 
L 161.400205 71.563326 
L 161.734357 71.563326 
L 161.734357 71.144619 
L 162.148978 71.144619 
L 162.148978 70.725911 
L 162.618996 70.725911 
L 162.647766 69.888497 
L 163.052429 69.888497 
L 163.052429 68.632375 
L 163.331911 68.632375 
L 163.331911 68.213667 
L 163.53444 68.213667 
L 163.53444 67.79496 
L 164.072988 67.79496 
L 164.16445 66.538838 
L 164.579812 66.538838 
L 164.579812 66.120131 
L 164.716017 66.120131 
L 164.784031 65.282716 
L 165.202819 65.282716 
L 165.202819 64.864009 
L 165.605352 64.864009 
L 165.605352 63.607887 
L 165.884834 63.607887 
L 165.884834 63.189179 
L 166.146671 63.189179 
L 166.146671 62.351765 
L 166.406808 62.351765 
L 166.406808 61.933057 
L 166.717373 61.933057 
L 166.717373 61.51435 
L 166.877622 61.51435 
L 166.877622 61.095643 
L 166.993618 61.095643 
L 167.093276 59.839521 
L 168.065649 59.839521 
L 168.065649 59.420813 
L 169.430545 59.420813 
L 169.430545 59.002106 
L 169.757863 59.002106 
L 169.757863 58.164691 
L 171.163457 58.164691 
L 171.163457 57.745984 
L 172.310786 57.745984 
L 172.369216 56.489862 
L 174.818614 56.489862 
L 174.818614 56.071155 
L 175.973909 56.071155 
L 175.973909 55.652447 
L 177.46103 55.652447 
L 177.46103 55.23374 
L 177.577496 55.23374 
L 177.670862 53.140203 
L 177.856979 53.140203 
L 177.963689 51.884081 
L 178.119501 51.884081 
L 178.119501 51.465374 
L 178.309492 51.465374 
L 178.412328 50.627959 
L 178.689517 50.627959 
L 178.758131 48.95313 
L 179.172752 48.95313 
L 179.2229 47.697008 
L 179.64277 47.697008 
L 179.671539 46.859593 
L 180.109575 46.859593 
L 180.171438 45.603471 
L 180.381269 45.603471 
L 180.381269 45.184764 
L 180.558214 45.184764 
L 180.648123 44.347349 
L 180.674096 44.347349 
L 180.674096 43.928642 
L 181.019899 43.928642 
L 181.096762 43.091227 
L 181.154947 43.091227 
L 181.154947 42.67252 
L 181.291078 42.67252 
L 181.359166 41.416398 
L 181.402689 41.416398 
L 181.43452 40.160276 
L 181.603586 40.160276 
L 181.634096 39.322861 
L 181.739791 39.322861 
L 181.807805 38.066739 
L 181.904538 38.066739 
L 181.933308 36.810617 
L 182.226593 36.810617 
L 182.272726 35.973203 
L 182.687347 35.973203 
L 182.687347 35.554495 
L 182.819982 35.554495 
L 182.819982 35.135788 
L 182.939717 35.135788 
L 182.981942 34.298373 
L 183.149549 34.298373 
L 183.186135 33.042251 
L 183.35853 33.042251 
L 183.442376 31.786129 
L 183.66841 31.786129 
L 183.66841 31.367422 
L 183.788179 31.367422 
L 183.865354 30.530007 
L 184.001559 30.530007 
L 184.072809 29.273885 
L 184.117049 29.273885 
L 184.2028 28.436471 
L 184.282931 28.436471 
L 184.282931 27.599056 
L 184.488361 27.599056 
L 184.488361 27.180349 
L 184.611357 27.180349 
L 184.701587 25.924227 
L 185.118181 25.924227 
L 185.118181 25.505519 
L 185.254386 25.505519 
L 185.3224 24.668105 
L 185.381166 24.668105 
L 185.381166 24.249397 
L 185.588262 24.249397 
L 185.69235 22.993275 
L 185.741188 22.993275 
L 185.741188 22.574568 
L 185.883824 22.574568 
L 185.883824 22.155861 
L 186.12681 22.155861 
L 186.229627 21.318446 
L 186.378818 21.318446 
L 186.378818 20.899739 
L 186.633634 20.899739 
L 186.644248 20.062324 
L 186.769839 20.062324 
L 186.837853 19.224909 
L 186.945177 19.224909 
L 186.945177 18.806202 
L 187.114266 18.806202 
L 187.143035 17.968787 
L 187.256641 17.968787 
L 187.256641 17.55008 
L 187.49237 17.55008 
L 187.49237 17.131373 
L 187.631645 17.131373 
L 187.702201 16.293958 
L 187.995028 16.293958 
L 188.02971 15.456543 
L 188.340831 15.456543 
L 188.340831 15.037836 
L 188.46063 15.037836 
L 188.568258 14.200421 
L 188.755452 14.200421 
L 188.755452 13.781714 
L 189.075082 13.781714 
L 189.147097 12.944299 
L 189.211287 12.944299 
L 189.279301 11.26947 
L 189.698089 11.26947 
L 189.698089 10.850763 
L 190.140915 10.850763 
L 190.140915 10.432055 
L 190.679462 10.432055 
L 190.679462 10.013348 
L 190.902078 10.013348 
L 190.902078 9.594641 
L 191.186286 9.594641 
L 191.186286 9.175933 
L 191.322491 9.175933 
L 191.390505 8.338519 
L 191.588545 8.338519 
L 191.588545 7.919811 
L 191.809293 7.919811 
L 191.809293 7.501104 
L 192.107927 7.501104 
L 192.107927 7.082397 
L 193.013282 7.082397 
L 193.013282 6.663689 
L 193.263222 6.663689 
L 193.263222 6.244982 
L 193.69975 6.244982 
L 193.69975 5.826275 
L 453.192 5.826275 
L 453.192 5.826275 
" style="fill:none;stroke:#ff0000;stroke-linecap:square;stroke-width:3;"/>
   </g>
   <g id="line2d_43">
    <path clip-path="url(#p2abfcd80bd)" style="fill:none;stroke:#ff0000;stroke-linecap:square;stroke-width:3;"/>
   </g>
   <g id="line2d_44">
    <path clip-path="url(#p2abfcd80bd)" d="M 243.676 291.28 
L 243.676 3 
" style="fill:none;stroke:#000000;stroke-linecap:square;stroke-width:1.5;"/>
   </g>
   <g id="line2d_45">
    <path clip-path="url(#p2abfcd80bd)" d="M 34.16 147.14 
L 453.192 147.14 
" style="fill:none;stroke:#000000;stroke-dasharray:2,3.3;stroke-dashoffset:0;stroke-width:2;"/>
   </g>
   <g id="patch_3">
    <path d="M 34.16 291.28 
L 34.16 3 
" style="fill:none;stroke:#000000;stroke-linecap:square;stroke-linejoin:miter;stroke-width:0.8;"/>
   </g>
   <g id="patch_4">
    <path d="M 453.192 291.28 
L 453.192 3 
" style="fill:none;stroke:#000000;stroke-linecap:square;stroke-linejoin:miter;stroke-width:0.8;"/>
   </g>
   <g id="patch_5">
    <path d="M 34.16 291.28 
L 453.192 291.28 
" style="fill:none;stroke:#000000;stroke-linecap:square;stroke-linejoin:miter;stroke-width:0.8;"/>
   </g>
   <g id="patch_6">
    <path d="M 34.16 3 
L 453.192 3 
" style="fill:none;stroke:#000000;stroke-linecap:square;stroke-linejoin:miter;stroke-width:0.8;"/>
   </g>
   <g id="text_6">
    <!-- f1-f5,20-D -->
    <g transform="translate(343.64261 285.5144)scale(0.2 -0.2)">
     <defs>
      <path d="M 10.796875 72.90625 
L 49.515625 72.90625 
L 49.515625 64.59375 
L 19.828125 64.59375 
L 19.828125 46.734375 
Q 21.96875 47.46875 24.109375 47.828125 
Q 26.265625 48.1875 28.421875 48.1875 
Q 40.625 48.1875 47.75 41.5 
Q 54.890625 34.8125 54.890625 23.390625 
Q 54.890625 11.625 47.5625 5.09375 
Q 40.234375 -1.421875 26.90625 -1.421875 
Q 22.3125 -1.421875 17.546875 -0.640625 
Q 12.796875 0.140625 7.71875 1.703125 
L 7.71875 11.625 
Q 12.109375 9.234375 16.796875 8.0625 
Q 21.484375 6.890625 26.703125 6.890625 
Q 35.15625 6.890625 40.078125 11.328125 
Q 45.015625 15.765625 45.015625 23.390625 
Q 45.015625 31 40.078125 35.4375 
Q 35.15625 39.890625 26.703125 39.890625 
Q 22.75 39.890625 18.8125 39.015625 
Q 14.890625 38.140625 10.796875 36.28125 
z
" id="DejaVuSans-53"/>
      <path d="M 11.71875 12.40625 
L 22.015625 12.40625 
L 22.015625 4 
L 14.015625 -11.625 
L 7.71875 -11.625 
L 11.71875 4 
z
" id="DejaVuSans-44"/>
      <path d="M 19.1875 8.296875 
L 53.609375 8.296875 
L 53.609375 0 
L 7.328125 0 
L 7.328125 8.296875 
Q 12.9375 14.109375 22.625 23.890625 
Q 32.328125 33.6875 34.8125 36.53125 
Q 39.546875 41.84375 41.421875 45.53125 
Q 43.3125 49.21875 43.3125 52.78125 
Q 43.3125 58.59375 39.234375 62.25 
Q 35.15625 65.921875 28.609375 65.921875 
Q 23.96875 65.921875 18.8125 64.3125 
Q 13.671875 62.703125 7.8125 59.421875 
L 7.8125 69.390625 
Q 13.765625 71.78125 18.9375 73 
Q 24.125 74.21875 28.421875 74.21875 
Q 39.75 74.21875 46.484375 68.546875 
Q 53.21875 62.890625 53.21875 53.421875 
Q 53.21875 48.921875 51.53125 44.890625 
Q 49.859375 40.875 45.40625 35.40625 
Q 44.1875 33.984375 37.640625 27.21875 
Q 31.109375 20.453125 19.1875 8.296875 
z
" id="DejaVuSans-50"/>
      <path d="M 19.671875 64.796875 
L 19.671875 8.109375 
L 31.59375 8.109375 
Q 46.6875 8.109375 53.6875 14.9375 
Q 60.6875 21.78125 60.6875 36.53125 
Q 60.6875 51.171875 53.6875 57.984375 
Q 46.6875 64.796875 31.59375 64.796875 
z
M 9.8125 72.90625 
L 30.078125 72.90625 
Q 51.265625 72.90625 61.171875 64.09375 
Q 71.09375 55.28125 71.09375 36.53125 
Q 71.09375 17.671875 61.125 8.828125 
Q 51.171875 0 30.078125 0 
L 9.8125 0 
z
" id="DejaVuSans-68"/>
     </defs>
     <use xlink:href="#DejaVuSans-102"/>
     <use x="35.205078" xlink:href="#DejaVuSans-49"/>
     <use x="98.828125" xlink:href="#DejaVuSans-45"/>
     <use x="134.912109" xlink:href="#DejaVuSans-102"/>
     <use x="170.117188" xlink:href="#DejaVuSans-53"/>
     <use x="233.740234" xlink:href="#DejaVuSans-44"/>
     <use x="265.527344" xlink:href="#DejaVuSans-50"/>
     <use x="329.150391" xlink:href="#DejaVuSans-48"/>
     <use x="392.773438" xlink:href="#DejaVuSans-45"/>
     <use x="428.857422" xlink:href="#DejaVuSans-68"/>
    </g>
   </g>
   <g id="text_7">
    <!-- v2.4 -->
    <g style="fill:#808080;" transform="translate(232.765062 286.317512)scale(0.1 -0.1)">
     <defs>
      <path d="M 10.6875 12.40625 
L 21 12.40625 
L 21 0 
L 10.6875 0 
z
" id="DejaVuSans-46"/>
      <path d="M 37.796875 64.3125 
L 12.890625 25.390625 
L 37.796875 25.390625 
z
M 35.203125 72.90625 
L 47.609375 72.90625 
L 47.609375 25.390625 
L 58.015625 25.390625 
L 58.015625 17.1875 
L 47.609375 17.1875 
L 47.609375 0 
L 37.796875 0 
L 37.796875 17.1875 
L 4.890625 17.1875 
L 4.890625 26.703125 
z
" id="DejaVuSans-52"/>
     </defs>
     <use xlink:href="#DejaVuSans-118"/>
     <use x="59.179688" xlink:href="#DejaVuSans-50"/>
     <use x="122.802734" xlink:href="#DejaVuSans-46"/>
     <use x="154.589844" xlink:href="#DejaVuSans-52"/>
    </g>
   </g>
   <g id="legend_1">
    <g id="patch_7">
     <path d="M 309.970125 281.28 
L 439.192 281.28 
Q 443.192 281.28 443.192 277.28 
L 443.192 161.855 
Q 443.192 157.855 439.192 157.855 
L 309.970125 157.855 
Q 305.970125 157.855 305.970125 161.855 
L 305.970125 277.28 
Q 305.970125 281.28 309.970125 281.28 
z
" style="fill:#ffffff;opacity:0.2;stroke:#cccccc;stroke-linejoin:miter;"/>
    </g>
    <g id="line2d_46">
     <path d="M 313.970125 174.051875 
L 353.970125 174.051875 
" style="fill:none;stroke:#000000;stroke-linecap:square;stroke-width:3;"/>
    </g>
    <g id="line2d_47"/>
    <g id="text_8">
     <!-- 1: 4/5 -->
     <g transform="translate(369.970125 181.051875)scale(0.2 -0.2)">
      <defs>
       <path d="M 11.71875 12.40625 
L 22.015625 12.40625 
L 22.015625 0 
L 11.71875 0 
z
M 11.71875 51.703125 
L 22.015625 51.703125 
L 22.015625 39.3125 
L 11.71875 39.3125 
z
" id="DejaVuSans-58"/>
       <path d="M 25.390625 72.90625 
L 33.6875 72.90625 
L 8.296875 -9.28125 
L 0 -9.28125 
z
" id="DejaVuSans-47"/>
      </defs>
      <use xlink:href="#DejaVuSans-49"/>
      <use x="63.623047" xlink:href="#DejaVuSans-58"/>
      <use x="97.314453" xlink:href="#DejaVuSans-32"/>
      <use x="129.101562" xlink:href="#DejaVuSans-52"/>
      <use x="192.724609" xlink:href="#DejaVuSans-47"/>
      <use x="226.416016" xlink:href="#DejaVuSans-53"/>
     </g>
    </g>
    <g id="line2d_48">
     <path d="M 313.970125 203.408125 
L 353.970125 203.408125 
" style="fill:none;stroke:#00bfbf;stroke-linecap:square;stroke-width:3;"/>
    </g>
    <g id="line2d_49"/>
    <g id="text_9">
     <!-- -1: 3/3 -->
     <g transform="translate(369.970125 210.408125)scale(0.2 -0.2)">
      <defs>
       <path d="M 40.578125 39.3125 
Q 47.65625 37.796875 51.625 33 
Q 55.609375 28.21875 55.609375 21.1875 
Q 55.609375 10.40625 48.1875 4.484375 
Q 40.765625 -1.421875 27.09375 -1.421875 
Q 22.515625 -1.421875 17.65625 -0.515625 
Q 12.796875 0.390625 7.625 2.203125 
L 7.625 11.71875 
Q 11.71875 9.328125 16.59375 8.109375 
Q 21.484375 6.890625 26.8125 6.890625 
Q 36.078125 6.890625 40.9375 10.546875 
Q 45.796875 14.203125 45.796875 21.1875 
Q 45.796875 27.640625 41.28125 31.265625 
Q 36.765625 34.90625 28.71875 34.90625 
L 20.21875 34.90625 
L 20.21875 43.015625 
L 29.109375 43.015625 
Q 36.375 43.015625 40.234375 45.921875 
Q 44.09375 48.828125 44.09375 54.296875 
Q 44.09375 59.90625 40.109375 62.90625 
Q 36.140625 65.921875 28.71875 65.921875 
Q 24.65625 65.921875 20.015625 65.03125 
Q 15.375 64.15625 9.8125 62.3125 
L 9.8125 71.09375 
Q 15.4375 72.65625 20.34375 73.4375 
Q 25.25 74.21875 29.59375 74.21875 
Q 40.828125 74.21875 47.359375 69.109375 
Q 53.90625 64.015625 53.90625 55.328125 
Q 53.90625 49.265625 50.4375 45.09375 
Q 46.96875 40.921875 40.578125 39.3125 
z
" id="DejaVuSans-51"/>
      </defs>
      <use xlink:href="#DejaVuSans-45"/>
      <use x="36.083984" xlink:href="#DejaVuSans-49"/>
      <use x="99.707031" xlink:href="#DejaVuSans-58"/>
      <use x="133.398438" xlink:href="#DejaVuSans-32"/>
      <use x="165.185547" xlink:href="#DejaVuSans-51"/>
      <use x="228.808594" xlink:href="#DejaVuSans-47"/>
      <use x="262.5" xlink:href="#DejaVuSans-51"/>
     </g>
    </g>
    <g id="line2d_50">
     <path d="M 313.970125 232.764375 
L 353.970125 232.764375 
" style="fill:none;stroke:#bf00bf;stroke-linecap:square;stroke-width:3;"/>
    </g>
    <g id="line2d_51"/>
    <g id="text_10">
     <!-- -4: 3/3 -->
     <g transform="translate(369.970125 239.764375)scale(0.2 -0.2)">
      <use xlink:href="#DejaVuSans-45"/>
      <use x="36.083984" xlink:href="#DejaVuSans-52"/>
      <use x="99.707031" xlink:href="#DejaVuSans-58"/>
      <use x="133.398438" xlink:href="#DejaVuSans-32"/>
      <use x="165.185547" xlink:href="#DejaVuSans-51"/>
      <use x="228.808594" xlink:href="#DejaVuSans-47"/>
      <use x="262.5" xlink:href="#DejaVuSans-51"/>
     </g>
    </g>
    <g id="line2d_52">
     <path d="M 313.970125 262.120625 
L 353.970125 262.120625 
" style="fill:none;stroke:#ff0000;stroke-linecap:square;stroke-width:3;"/>
    </g>
    <g id="line2d_53"/>
    <g id="text_11">
     <!-- -8: 3/3 -->
     <g transform="translate(369.970125 269.120625)scale(0.2 -0.2)">
      <defs>
       <path d="M 31.78125 34.625 
Q 24.75 34.625 20.71875 30.859375 
Q 16.703125 27.09375 16.703125 20.515625 
Q 16.703125 13.921875 20.71875 10.15625 
Q 24.75 6.390625 31.78125 6.390625 
Q 38.8125 6.390625 42.859375 10.171875 
Q 46.921875 13.96875 46.921875 20.515625 
Q 46.921875 27.09375 42.890625 30.859375 
Q 38.875 34.625 31.78125 34.625 
z
M 21.921875 38.8125 
Q 15.578125 40.375 12.03125 44.71875 
Q 8.5 49.078125 8.5 55.328125 
Q 8.5 64.0625 14.71875 69.140625 
Q 20.953125 74.21875 31.78125 74.21875 
Q 42.671875 74.21875 48.875 69.140625 
Q 55.078125 64.0625 55.078125 55.328125 
Q 55.078125 49.078125 51.53125 44.71875 
Q 48 40.375 41.703125 38.8125 
Q 48.828125 37.15625 52.796875 32.3125 
Q 56.78125 27.484375 56.78125 20.515625 
Q 56.78125 9.90625 50.3125 4.234375 
Q 43.84375 -1.421875 31.78125 -1.421875 
Q 19.734375 -1.421875 13.25 4.234375 
Q 6.78125 9.90625 6.78125 20.515625 
Q 6.78125 27.484375 10.78125 32.3125 
Q 14.796875 37.15625 21.921875 38.8125 
z
M 18.3125 54.390625 
Q 18.3125 48.734375 21.84375 45.5625 
Q 25.390625 42.390625 31.78125 42.390625 
Q 38.140625 42.390625 41.71875 45.5625 
Q 45.3125 48.734375 45.3125 54.390625 
Q 45.3125 60.0625 41.71875 63.234375 
Q 38.140625 66.40625 31.78125 66.40625 
Q 25.390625 66.40625 21.84375 63.234375 
Q 18.3125 60.0625 18.3125 54.390625 
z
" id="DejaVuSans-56"/>
      </defs>
      <use xlink:href="#DejaVuSans-45"/>
      <use x="36.083984" xlink:href="#DejaVuSans-56"/>
      <use x="99.707031" xlink:href="#DejaVuSans-58"/>
      <use x="133.398438" xlink:href="#DejaVuSans-32"/>
      <use x="165.185547" xlink:href="#DejaVuSans-51"/>
      <use x="228.808594" xlink:href="#DejaVuSans-47"/>
      <use x="262.5" xlink:href="#DejaVuSans-51"/>
     </g>
    </g>
   </g>
  </g>
 </g>
 <defs>
  <clipPath id="p2abfcd80bd">
   <rect height="288.28" width="419.032" x="34.16" y="3"/>
  </clipPath>
 </defs>
</svg>
