<?xml version="1.0" encoding="utf-8" standalone="no"?>
<!DOCTYPE svg PUBLIC "-//W3C//DTD SVG 1.1//EN"
  "http://www.w3.org/Graphics/SVG/1.1/DTD/svg11.dtd">
<!-- Created with matplotlib (https://matplotlib.org/) -->
<svg height="345.6pt" version="1.1" viewBox="0 0 460.8 345.6" width="460.8pt" xmlns="http://www.w3.org/2000/svg" xmlns:xlink="http://www.w3.org/1999/xlink">
 <metadata>
  <rdf:RDF xmlns:cc="http://creativecommons.org/ns#" xmlns:dc="http://purl.org/dc/elements/1.1/" xmlns:rdf="http://www.w3.org/1999/02/22-rdf-syntax-ns#">
   <cc:Work>
    <dc:type rdf:resource="http://purl.org/dc/dcmitype/StillImage"/>
    <dc:date>2021-05-01T17:09:02.589270</dc:date>
    <dc:format>image/svg+xml</dc:format>
    <dc:creator>
     <cc:Agent>
      <dc:title>Matplotlib v3.3.2, https://matplotlib.org/</dc:title>
     </cc:Agent>
    </dc:creator>
   </cc:Work>
  </rdf:RDF>
 </metadata>
 <defs>
  <style type="text/css">*{stroke-linecap:butt;stroke-linejoin:round;}</style>
 </defs>
 <g id="figure_1">
  <g id="patch_1">
   <path d="M 0 345.6 
L 460.8 345.6 
L 460.8 0 
L 0 0 
z
" style="fill:#ffffff;"/>
  </g>
  <g id="axes_1">
   <g id="patch_2">
    <path d="M 57.6 298.944 
L 338.688 298.944 
L 338.688 3.456 
L 57.6 3.456 
z
" style="fill:#ffffff;"/>
   </g>
   <g id="line2d_1">
    <path d="M 36.60358 298.944 
L 36.60358 297.796697 
L 60.779557 297.796697 
L 60.779557 296.649393 
L 68.328395 296.649393 
L 68.328395 295.50209 
L 69.246464 295.50209 
L 69.246464 294.354786 
L 70.11861 294.354786 
L 70.11861 238.136918 
L 70.538854 238.136918 
L 70.538854 235.842311 
L 70.949209 235.842311 
L 70.949209 181.91905 
L 101.992235 181.91905 
L 101.992235 180.771746 
L 107.364602 180.771746 
L 107.364602 179.624443 
L 107.663568 179.624443 
L 107.663568 178.477139 
L 108.948899 178.477139 
L 109.040444 176.182532 
L 109.086037 176.182532 
L 109.176867 167.004105 
L 109.222105 167.004105 
L 109.31223 154.383767 
L 109.357119 154.383767 
L 109.446552 136.026912 
L 109.491096 136.026912 
L 109.535528 123.406574 
L 109.624052 123.406574 
L 109.624052 122.259271 
L 110.016944 122.259271 
L 110.016944 121.111967 
L 110.358901 121.111967 
L 110.358901 119.964664 
L 120.712642 119.964664 
L 120.712642 118.817361 
L 137.262416 118.817361 
L 137.262416 117.670057 
L 141.774395 117.670057 
L 141.774395 116.522754 
L 145.418169 116.522754 
L 145.418169 115.37545 
L 146.522046 115.37545 
L 146.522046 114.228147 
L 148.780082 114.228147 
L 148.780082 113.080843 
L 150.159417 113.080843 
L 150.159417 111.93354 
L 152.892686 111.93354 
L 152.892686 110.786236 
L 154.119001 110.786236 
L 154.119001 109.638933 
L 158.599388 109.638933 
L 158.599388 108.49163 
L 159.966168 108.49163 
L 159.966168 107.344326 
L 161.093366 107.344326 
L 161.093366 106.197023 
L 161.224411 106.197023 
L 161.320345 48.831851 
L 161.336283 48.831851 
L 161.420284 33.916906 
L 161.456484 33.916906 
L 161.56688 20.149265 
L 161.569126 20.149265 
L 161.571372 17.854658 
L 196.553307 17.854658 
L 196.554213 15.560051 
L 212.133226 15.560051 
L 212.133721 6.381624 
L 338.688 6.381624 
L 338.688 6.381624 
" style="fill:none;stroke:#f5deb3;stroke-linecap:square;stroke-width:4;"/>
   </g>
   <g id="line2d_2">
    <defs>
     <path d="M -0 7.778175 
L 7.778175 0 
L 0 -7.778175 
L -7.778175 -0 
z
" id="mf8b95c2dde" style="stroke:#f5deb3;stroke-linejoin:miter;stroke-width:1.5;"/>
    </defs>
    <g>
     <use style="fill:#f5deb3;stroke:#f5deb3;stroke-linejoin:miter;stroke-width:1.5;" x="70.949209" xlink:href="#mf8b95c2dde" y="181.91905"/>
     <use style="fill:#f5deb3;stroke:#f5deb3;stroke-linejoin:miter;stroke-width:1.5;" x="161.233571" xlink:href="#mf8b95c2dde" y="102.755112"/>
     <use style="fill:#f5deb3;stroke:#f5deb3;stroke-linejoin:miter;stroke-width:1.5;" x="161.571372" xlink:href="#mf8b95c2dde" y="19.001962"/>
     <use style="fill:#f5deb3;stroke:#f5deb3;stroke-linejoin:miter;stroke-width:1.5;" x="212.133721" xlink:href="#mf8b95c2dde" y="6.381624"/>
     <use style="fill:#f5deb3;stroke:#f5deb3;stroke-linejoin:miter;stroke-width:1.5;" x="212.133721" xlink:href="#mf8b95c2dde" y="6.381624"/>
     <use style="fill:#f5deb3;stroke:#f5deb3;stroke-linejoin:miter;stroke-width:1.5;" x="338.688" xlink:href="#mf8b95c2dde" y="6.381624"/>
    </g>
   </g>
   <g id="line2d_3">
    <path style="fill:none;stroke:#f5deb3;stroke-linecap:square;stroke-width:4;"/>
    <g/>
   </g>
   <g id="line2d_4">
    <path d="M 338.688 6.381624 
L 369.60768 12.232871 
" style="fill:none;stroke:#f5deb3;stroke-linecap:square;stroke-width:4;"/>
    <g>
     <use style="fill:#f5deb3;stroke:#f5deb3;stroke-linejoin:miter;stroke-width:1.5;" x="338.688" xlink:href="#mf8b95c2dde" y="6.381624"/>
     <use style="fill:#f5deb3;stroke:#f5deb3;stroke-linejoin:miter;stroke-width:1.5;" x="369.60768" xlink:href="#mf8b95c2dde" y="12.232871"/>
    </g>
   </g>
   <g id="matplotlib.axis_1">
    <g id="xtick_1">
     <g id="line2d_5">
      <path clip-path="url(#p12b7c87211)" d="M 57.6 298.944 
L 57.6 3.456 
" style="fill:none;stroke:#b0b0b0;stroke-linecap:square;stroke-width:0.8;"/>
     </g>
     <g id="line2d_6">
      <defs>
       <path d="M 0 0 
L 0 3.5 
" id="m147b67edee" style="stroke:#000000;stroke-width:0.8;"/>
      </defs>
      <g>
       <use style="stroke:#000000;stroke-width:0.8;" x="57.6" xlink:href="#m147b67edee" y="298.944"/>
      </g>
     </g>
     <g id="text_1">
      <!-- 0 -->
      <g transform="translate(51.2375 321.140875)scale(0.2 -0.2)">
       <defs>
        <path d="M 31.78125 66.40625 
Q 24.171875 66.40625 20.328125 58.90625 
Q 16.5 51.421875 16.5 36.375 
Q 16.5 21.390625 20.328125 13.890625 
Q 24.171875 6.390625 31.78125 6.390625 
Q 39.453125 6.390625 43.28125 13.890625 
Q 47.125 21.390625 47.125 36.375 
Q 47.125 51.421875 43.28125 58.90625 
Q 39.453125 66.40625 31.78125 66.40625 
z
M 31.78125 74.21875 
Q 44.046875 74.21875 50.515625 64.515625 
Q 56.984375 54.828125 56.984375 36.375 
Q 56.984375 17.96875 50.515625 8.265625 
Q 44.046875 -1.421875 31.78125 -1.421875 
Q 19.53125 -1.421875 13.0625 8.265625 
Q 6.59375 17.96875 6.59375 36.375 
Q 6.59375 54.828125 13.0625 64.515625 
Q 19.53125 74.21875 31.78125 74.21875 
z
" id="DejaVuSans-48"/>
       </defs>
       <use xlink:href="#DejaVuSans-48"/>
      </g>
     </g>
    </g>
    <g id="xtick_2">
     <g id="line2d_7">
      <path clip-path="url(#p12b7c87211)" d="M 137.910857 298.944 
L 137.910857 3.456 
" style="fill:none;stroke:#b0b0b0;stroke-linecap:square;stroke-width:0.8;"/>
     </g>
     <g id="line2d_8">
      <g>
       <use style="stroke:#000000;stroke-width:0.8;" x="137.910857" xlink:href="#m147b67edee" y="298.944"/>
      </g>
     </g>
     <g id="text_2">
      <!-- 2 -->
      <g transform="translate(131.548357 321.140875)scale(0.2 -0.2)">
       <defs>
        <path d="M 19.1875 8.296875 
L 53.609375 8.296875 
L 53.609375 0 
L 7.328125 0 
L 7.328125 8.296875 
Q 12.9375 14.109375 22.625 23.890625 
Q 32.328125 33.6875 34.8125 36.53125 
Q 39.546875 41.84375 41.421875 45.53125 
Q 43.3125 49.21875 43.3125 52.78125 
Q 43.3125 58.59375 39.234375 62.25 
Q 35.15625 65.921875 28.609375 65.921875 
Q 23.96875 65.921875 18.8125 64.3125 
Q 13.671875 62.703125 7.8125 59.421875 
L 7.8125 69.390625 
Q 13.765625 71.78125 18.9375 73 
Q 24.125 74.21875 28.421875 74.21875 
Q 39.75 74.21875 46.484375 68.546875 
Q 53.21875 62.890625 53.21875 53.421875 
Q 53.21875 48.921875 51.53125 44.890625 
Q 49.859375 40.875 45.40625 35.40625 
Q 44.1875 33.984375 37.640625 27.21875 
Q 31.109375 20.453125 19.1875 8.296875 
z
" id="DejaVuSans-50"/>
       </defs>
       <use xlink:href="#DejaVuSans-50"/>
      </g>
     </g>
    </g>
    <g id="xtick_3">
     <g id="line2d_9">
      <path clip-path="url(#p12b7c87211)" d="M 218.221714 298.944 
L 218.221714 3.456 
" style="fill:none;stroke:#b0b0b0;stroke-linecap:square;stroke-width:0.8;"/>
     </g>
     <g id="line2d_10">
      <g>
       <use style="stroke:#000000;stroke-width:0.8;" x="218.221714" xlink:href="#m147b67edee" y="298.944"/>
      </g>
     </g>
     <g id="text_3">
      <!-- 4 -->
      <g transform="translate(211.859214 321.140875)scale(0.2 -0.2)">
       <defs>
        <path d="M 37.796875 64.3125 
L 12.890625 25.390625 
L 37.796875 25.390625 
z
M 35.203125 72.90625 
L 47.609375 72.90625 
L 47.609375 25.390625 
L 58.015625 25.390625 
L 58.015625 17.1875 
L 47.609375 17.1875 
L 47.609375 0 
L 37.796875 0 
L 37.796875 17.1875 
L 4.890625 17.1875 
L 4.890625 26.703125 
z
" id="DejaVuSans-52"/>
       </defs>
       <use xlink:href="#DejaVuSans-52"/>
      </g>
     </g>
    </g>
    <g id="xtick_4">
     <g id="line2d_11">
      <path clip-path="url(#p12b7c87211)" d="M 298.532571 298.944 
L 298.532571 3.456 
" style="fill:none;stroke:#b0b0b0;stroke-linecap:square;stroke-width:0.8;"/>
     </g>
     <g id="line2d_12">
      <g>
       <use style="stroke:#000000;stroke-width:0.8;" x="298.532571" xlink:href="#m147b67edee" y="298.944"/>
      </g>
     </g>
     <g id="text_4">
      <!-- 6 -->
      <g transform="translate(292.170071 321.140875)scale(0.2 -0.2)">
       <defs>
        <path d="M 33.015625 40.375 
Q 26.375 40.375 22.484375 35.828125 
Q 18.609375 31.296875 18.609375 23.390625 
Q 18.609375 15.53125 22.484375 10.953125 
Q 26.375 6.390625 33.015625 6.390625 
Q 39.65625 6.390625 43.53125 10.953125 
Q 47.40625 15.53125 47.40625 23.390625 
Q 47.40625 31.296875 43.53125 35.828125 
Q 39.65625 40.375 33.015625 40.375 
z
M 52.59375 71.296875 
L 52.59375 62.3125 
Q 48.875 64.0625 45.09375 64.984375 
Q 41.3125 65.921875 37.59375 65.921875 
Q 27.828125 65.921875 22.671875 59.328125 
Q 17.53125 52.734375 16.796875 39.40625 
Q 19.671875 43.65625 24.015625 45.921875 
Q 28.375 48.1875 33.59375 48.1875 
Q 44.578125 48.1875 50.953125 41.515625 
Q 57.328125 34.859375 57.328125 23.390625 
Q 57.328125 12.15625 50.6875 5.359375 
Q 44.046875 -1.421875 33.015625 -1.421875 
Q 20.359375 -1.421875 13.671875 8.265625 
Q 6.984375 17.96875 6.984375 36.375 
Q 6.984375 53.65625 15.1875 63.9375 
Q 23.390625 74.21875 37.203125 74.21875 
Q 40.921875 74.21875 44.703125 73.484375 
Q 48.484375 72.75 52.59375 71.296875 
z
" id="DejaVuSans-54"/>
       </defs>
       <use xlink:href="#DejaVuSans-54"/>
      </g>
     </g>
    </g>
    <g id="xtick_5">
     <g id="line2d_13">
      <path clip-path="url(#p12b7c87211)" d="M 97.755429 298.944 
L 97.755429 3.456 
" style="fill:none;stroke:#b0b0b0;stroke-linecap:square;stroke-width:0.8;"/>
     </g>
     <g id="line2d_14">
      <defs>
       <path d="M 0 0 
L 0 2 
" id="mb0cd40587e" style="stroke:#000000;stroke-width:0.6;"/>
      </defs>
      <g>
       <use style="stroke:#000000;stroke-width:0.6;" x="97.755429" xlink:href="#mb0cd40587e" y="298.944"/>
      </g>
     </g>
    </g>
    <g id="xtick_6">
     <g id="line2d_15">
      <path clip-path="url(#p12b7c87211)" d="M 178.066286 298.944 
L 178.066286 3.456 
" style="fill:none;stroke:#b0b0b0;stroke-linecap:square;stroke-width:0.8;"/>
     </g>
     <g id="line2d_16">
      <g>
       <use style="stroke:#000000;stroke-width:0.6;" x="178.066286" xlink:href="#mb0cd40587e" y="298.944"/>
      </g>
     </g>
    </g>
    <g id="xtick_7">
     <g id="line2d_17">
      <path clip-path="url(#p12b7c87211)" d="M 258.377143 298.944 
L 258.377143 3.456 
" style="fill:none;stroke:#b0b0b0;stroke-linecap:square;stroke-width:0.8;"/>
     </g>
     <g id="line2d_18">
      <g>
       <use style="stroke:#000000;stroke-width:0.6;" x="258.377143" xlink:href="#mb0cd40587e" y="298.944"/>
      </g>
     </g>
    </g>
    <g id="xtick_8">
     <g id="line2d_19">
      <path clip-path="url(#p12b7c87211)" d="M 338.688 298.944 
L 338.688 3.456 
" style="fill:none;stroke:#b0b0b0;stroke-linecap:square;stroke-width:0.8;"/>
     </g>
     <g id="line2d_20">
      <g>
       <use style="stroke:#000000;stroke-width:0.6;" x="338.688" xlink:href="#mb0cd40587e" y="298.944"/>
      </g>
     </g>
    </g>
    <g id="text_5">
     <!-- log10(# f-evals / dimension) -->
     <g transform="translate(77.764078 342.217594)scale(0.17 -0.17)">
      <defs>
       <path d="M 9.421875 75.984375 
L 18.40625 75.984375 
L 18.40625 0 
L 9.421875 0 
z
" id="DejaVuSans-108"/>
       <path d="M 30.609375 48.390625 
Q 23.390625 48.390625 19.1875 42.75 
Q 14.984375 37.109375 14.984375 27.296875 
Q 14.984375 17.484375 19.15625 11.84375 
Q 23.34375 6.203125 30.609375 6.203125 
Q 37.796875 6.203125 41.984375 11.859375 
Q 46.1875 17.53125 46.1875 27.296875 
Q 46.1875 37.015625 41.984375 42.703125 
Q 37.796875 48.390625 30.609375 48.390625 
z
M 30.609375 56 
Q 42.328125 56 49.015625 48.375 
Q 55.71875 40.765625 55.71875 27.296875 
Q 55.71875 13.875 49.015625 6.21875 
Q 42.328125 -1.421875 30.609375 -1.421875 
Q 18.84375 -1.421875 12.171875 6.21875 
Q 5.515625 13.875 5.515625 27.296875 
Q 5.515625 40.765625 12.171875 48.375 
Q 18.84375 56 30.609375 56 
z
" id="DejaVuSans-111"/>
       <path d="M 45.40625 27.984375 
Q 45.40625 37.75 41.375 43.109375 
Q 37.359375 48.484375 30.078125 48.484375 
Q 22.859375 48.484375 18.828125 43.109375 
Q 14.796875 37.75 14.796875 27.984375 
Q 14.796875 18.265625 18.828125 12.890625 
Q 22.859375 7.515625 30.078125 7.515625 
Q 37.359375 7.515625 41.375 12.890625 
Q 45.40625 18.265625 45.40625 27.984375 
z
M 54.390625 6.78125 
Q 54.390625 -7.171875 48.1875 -13.984375 
Q 42 -20.796875 29.203125 -20.796875 
Q 24.46875 -20.796875 20.265625 -20.09375 
Q 16.0625 -19.390625 12.109375 -17.921875 
L 12.109375 -9.1875 
Q 16.0625 -11.328125 19.921875 -12.34375 
Q 23.78125 -13.375 27.78125 -13.375 
Q 36.625 -13.375 41.015625 -8.765625 
Q 45.40625 -4.15625 45.40625 5.171875 
L 45.40625 9.625 
Q 42.625 4.78125 38.28125 2.390625 
Q 33.9375 0 27.875 0 
Q 17.828125 0 11.671875 7.65625 
Q 5.515625 15.328125 5.515625 27.984375 
Q 5.515625 40.671875 11.671875 48.328125 
Q 17.828125 56 27.875 56 
Q 33.9375 56 38.28125 53.609375 
Q 42.625 51.21875 45.40625 46.390625 
L 45.40625 54.6875 
L 54.390625 54.6875 
z
" id="DejaVuSans-103"/>
       <path d="M 12.40625 8.296875 
L 28.515625 8.296875 
L 28.515625 63.921875 
L 10.984375 60.40625 
L 10.984375 69.390625 
L 28.421875 72.90625 
L 38.28125 72.90625 
L 38.28125 8.296875 
L 54.390625 8.296875 
L 54.390625 0 
L 12.40625 0 
z
" id="DejaVuSans-49"/>
       <path d="M 31 75.875 
Q 24.46875 64.65625 21.28125 53.65625 
Q 18.109375 42.671875 18.109375 31.390625 
Q 18.109375 20.125 21.3125 9.0625 
Q 24.515625 -2 31 -13.1875 
L 23.1875 -13.1875 
Q 15.875 -1.703125 12.234375 9.375 
Q 8.59375 20.453125 8.59375 31.390625 
Q 8.59375 42.28125 12.203125 53.3125 
Q 15.828125 64.359375 23.1875 75.875 
z
" id="DejaVuSans-40"/>
       <path d="M 51.125 44 
L 36.921875 44 
L 32.8125 27.6875 
L 47.125 27.6875 
z
M 43.796875 71.78125 
L 38.71875 51.515625 
L 52.984375 51.515625 
L 58.109375 71.78125 
L 65.921875 71.78125 
L 60.890625 51.515625 
L 76.125 51.515625 
L 76.125 44 
L 58.984375 44 
L 54.984375 27.6875 
L 70.515625 27.6875 
L 70.515625 20.21875 
L 53.078125 20.21875 
L 48 0 
L 40.1875 0 
L 45.21875 20.21875 
L 30.90625 20.21875 
L 25.875 0 
L 18.015625 0 
L 23.09375 20.21875 
L 7.71875 20.21875 
L 7.71875 27.6875 
L 24.90625 27.6875 
L 29 44 
L 13.28125 44 
L 13.28125 51.515625 
L 30.90625 51.515625 
L 35.890625 71.78125 
z
" id="DejaVuSans-35"/>
       <path id="DejaVuSans-32"/>
       <path d="M 37.109375 75.984375 
L 37.109375 68.5 
L 28.515625 68.5 
Q 23.6875 68.5 21.796875 66.546875 
Q 19.921875 64.59375 19.921875 59.515625 
L 19.921875 54.6875 
L 34.71875 54.6875 
L 34.71875 47.703125 
L 19.921875 47.703125 
L 19.921875 0 
L 10.890625 0 
L 10.890625 47.703125 
L 2.296875 47.703125 
L 2.296875 54.6875 
L 10.890625 54.6875 
L 10.890625 58.5 
Q 10.890625 67.625 15.140625 71.796875 
Q 19.390625 75.984375 28.609375 75.984375 
z
" id="DejaVuSans-102"/>
       <path d="M 4.890625 31.390625 
L 31.203125 31.390625 
L 31.203125 23.390625 
L 4.890625 23.390625 
z
" id="DejaVuSans-45"/>
       <path d="M 56.203125 29.59375 
L 56.203125 25.203125 
L 14.890625 25.203125 
Q 15.484375 15.921875 20.484375 11.0625 
Q 25.484375 6.203125 34.421875 6.203125 
Q 39.59375 6.203125 44.453125 7.46875 
Q 49.3125 8.734375 54.109375 11.28125 
L 54.109375 2.78125 
Q 49.265625 0.734375 44.1875 -0.34375 
Q 39.109375 -1.421875 33.890625 -1.421875 
Q 20.796875 -1.421875 13.15625 6.1875 
Q 5.515625 13.8125 5.515625 26.8125 
Q 5.515625 40.234375 12.765625 48.109375 
Q 20.015625 56 32.328125 56 
Q 43.359375 56 49.78125 48.890625 
Q 56.203125 41.796875 56.203125 29.59375 
z
M 47.21875 32.234375 
Q 47.125 39.59375 43.09375 43.984375 
Q 39.0625 48.390625 32.421875 48.390625 
Q 24.90625 48.390625 20.390625 44.140625 
Q 15.875 39.890625 15.1875 32.171875 
z
" id="DejaVuSans-101"/>
       <path d="M 2.984375 54.6875 
L 12.5 54.6875 
L 29.59375 8.796875 
L 46.6875 54.6875 
L 56.203125 54.6875 
L 35.6875 0 
L 23.484375 0 
z
" id="DejaVuSans-118"/>
       <path d="M 34.28125 27.484375 
Q 23.390625 27.484375 19.1875 25 
Q 14.984375 22.515625 14.984375 16.5 
Q 14.984375 11.71875 18.140625 8.90625 
Q 21.296875 6.109375 26.703125 6.109375 
Q 34.1875 6.109375 38.703125 11.40625 
Q 43.21875 16.703125 43.21875 25.484375 
L 43.21875 27.484375 
z
M 52.203125 31.203125 
L 52.203125 0 
L 43.21875 0 
L 43.21875 8.296875 
Q 40.140625 3.328125 35.546875 0.953125 
Q 30.953125 -1.421875 24.3125 -1.421875 
Q 15.921875 -1.421875 10.953125 3.296875 
Q 6 8.015625 6 15.921875 
Q 6 25.140625 12.171875 29.828125 
Q 18.359375 34.515625 30.609375 34.515625 
L 43.21875 34.515625 
L 43.21875 35.40625 
Q 43.21875 41.609375 39.140625 45 
Q 35.0625 48.390625 27.6875 48.390625 
Q 23 48.390625 18.546875 47.265625 
Q 14.109375 46.140625 10.015625 43.890625 
L 10.015625 52.203125 
Q 14.9375 54.109375 19.578125 55.046875 
Q 24.21875 56 28.609375 56 
Q 40.484375 56 46.34375 49.84375 
Q 52.203125 43.703125 52.203125 31.203125 
z
" id="DejaVuSans-97"/>
       <path d="M 44.28125 53.078125 
L 44.28125 44.578125 
Q 40.484375 46.53125 36.375 47.5 
Q 32.28125 48.484375 27.875 48.484375 
Q 21.1875 48.484375 17.84375 46.4375 
Q 14.5 44.390625 14.5 40.28125 
Q 14.5 37.15625 16.890625 35.375 
Q 19.28125 33.59375 26.515625 31.984375 
L 29.59375 31.296875 
Q 39.15625 29.25 43.1875 25.515625 
Q 47.21875 21.78125 47.21875 15.09375 
Q 47.21875 7.46875 41.1875 3.015625 
Q 35.15625 -1.421875 24.609375 -1.421875 
Q 20.21875 -1.421875 15.453125 -0.5625 
Q 10.6875 0.296875 5.421875 2 
L 5.421875 11.28125 
Q 10.40625 8.6875 15.234375 7.390625 
Q 20.0625 6.109375 24.8125 6.109375 
Q 31.15625 6.109375 34.5625 8.28125 
Q 37.984375 10.453125 37.984375 14.40625 
Q 37.984375 18.0625 35.515625 20.015625 
Q 33.0625 21.96875 24.703125 23.78125 
L 21.578125 24.515625 
Q 13.234375 26.265625 9.515625 29.90625 
Q 5.8125 33.546875 5.8125 39.890625 
Q 5.8125 47.609375 11.28125 51.796875 
Q 16.75 56 26.8125 56 
Q 31.78125 56 36.171875 55.265625 
Q 40.578125 54.546875 44.28125 53.078125 
z
" id="DejaVuSans-115"/>
       <path d="M 25.390625 72.90625 
L 33.6875 72.90625 
L 8.296875 -9.28125 
L 0 -9.28125 
z
" id="DejaVuSans-47"/>
       <path d="M 45.40625 46.390625 
L 45.40625 75.984375 
L 54.390625 75.984375 
L 54.390625 0 
L 45.40625 0 
L 45.40625 8.203125 
Q 42.578125 3.328125 38.25 0.953125 
Q 33.9375 -1.421875 27.875 -1.421875 
Q 17.96875 -1.421875 11.734375 6.484375 
Q 5.515625 14.40625 5.515625 27.296875 
Q 5.515625 40.1875 11.734375 48.09375 
Q 17.96875 56 27.875 56 
Q 33.9375 56 38.25 53.625 
Q 42.578125 51.265625 45.40625 46.390625 
z
M 14.796875 27.296875 
Q 14.796875 17.390625 18.875 11.75 
Q 22.953125 6.109375 30.078125 6.109375 
Q 37.203125 6.109375 41.296875 11.75 
Q 45.40625 17.390625 45.40625 27.296875 
Q 45.40625 37.203125 41.296875 42.84375 
Q 37.203125 48.484375 30.078125 48.484375 
Q 22.953125 48.484375 18.875 42.84375 
Q 14.796875 37.203125 14.796875 27.296875 
z
" id="DejaVuSans-100"/>
       <path d="M 9.421875 54.6875 
L 18.40625 54.6875 
L 18.40625 0 
L 9.421875 0 
z
M 9.421875 75.984375 
L 18.40625 75.984375 
L 18.40625 64.59375 
L 9.421875 64.59375 
z
" id="DejaVuSans-105"/>
       <path d="M 52 44.1875 
Q 55.375 50.25 60.0625 53.125 
Q 64.75 56 71.09375 56 
Q 79.640625 56 84.28125 50.015625 
Q 88.921875 44.046875 88.921875 33.015625 
L 88.921875 0 
L 79.890625 0 
L 79.890625 32.71875 
Q 79.890625 40.578125 77.09375 44.375 
Q 74.3125 48.1875 68.609375 48.1875 
Q 61.625 48.1875 57.5625 43.546875 
Q 53.515625 38.921875 53.515625 30.90625 
L 53.515625 0 
L 44.484375 0 
L 44.484375 32.71875 
Q 44.484375 40.625 41.703125 44.40625 
Q 38.921875 48.1875 33.109375 48.1875 
Q 26.21875 48.1875 22.15625 43.53125 
Q 18.109375 38.875 18.109375 30.90625 
L 18.109375 0 
L 9.078125 0 
L 9.078125 54.6875 
L 18.109375 54.6875 
L 18.109375 46.1875 
Q 21.1875 51.21875 25.484375 53.609375 
Q 29.78125 56 35.6875 56 
Q 41.65625 56 45.828125 52.96875 
Q 50 49.953125 52 44.1875 
z
" id="DejaVuSans-109"/>
       <path d="M 54.890625 33.015625 
L 54.890625 0 
L 45.90625 0 
L 45.90625 32.71875 
Q 45.90625 40.484375 42.875 44.328125 
Q 39.84375 48.1875 33.796875 48.1875 
Q 26.515625 48.1875 22.3125 43.546875 
Q 18.109375 38.921875 18.109375 30.90625 
L 18.109375 0 
L 9.078125 0 
L 9.078125 54.6875 
L 18.109375 54.6875 
L 18.109375 46.1875 
Q 21.34375 51.125 25.703125 53.5625 
Q 30.078125 56 35.796875 56 
Q 45.21875 56 50.046875 50.171875 
Q 54.890625 44.34375 54.890625 33.015625 
z
" id="DejaVuSans-110"/>
       <path d="M 8.015625 75.875 
L 15.828125 75.875 
Q 23.140625 64.359375 26.78125 53.3125 
Q 30.421875 42.28125 30.421875 31.390625 
Q 30.421875 20.453125 26.78125 9.375 
Q 23.140625 -1.703125 15.828125 -13.1875 
L 8.015625 -13.1875 
Q 14.5 -2 17.703125 9.0625 
Q 20.90625 20.125 20.90625 31.390625 
Q 20.90625 42.671875 17.703125 53.65625 
Q 14.5 64.65625 8.015625 75.875 
z
" id="DejaVuSans-41"/>
      </defs>
      <use xlink:href="#DejaVuSans-108"/>
      <use x="27.783203" xlink:href="#DejaVuSans-111"/>
      <use x="88.964844" xlink:href="#DejaVuSans-103"/>
      <use x="152.441406" xlink:href="#DejaVuSans-49"/>
      <use x="216.064453" xlink:href="#DejaVuSans-48"/>
      <use x="279.6875" xlink:href="#DejaVuSans-40"/>
      <use x="318.701172" xlink:href="#DejaVuSans-35"/>
      <use x="402.490234" xlink:href="#DejaVuSans-32"/>
      <use x="434.277344" xlink:href="#DejaVuSans-102"/>
      <use x="463.982422" xlink:href="#DejaVuSans-45"/>
      <use x="500.066406" xlink:href="#DejaVuSans-101"/>
      <use x="561.589844" xlink:href="#DejaVuSans-118"/>
      <use x="620.769531" xlink:href="#DejaVuSans-97"/>
      <use x="682.048828" xlink:href="#DejaVuSans-108"/>
      <use x="709.832031" xlink:href="#DejaVuSans-115"/>
      <use x="761.931641" xlink:href="#DejaVuSans-32"/>
      <use x="793.71875" xlink:href="#DejaVuSans-47"/>
      <use x="827.410156" xlink:href="#DejaVuSans-32"/>
      <use x="859.197266" xlink:href="#DejaVuSans-100"/>
      <use x="922.673828" xlink:href="#DejaVuSans-105"/>
      <use x="950.457031" xlink:href="#DejaVuSans-109"/>
      <use x="1047.869141" xlink:href="#DejaVuSans-101"/>
      <use x="1109.392578" xlink:href="#DejaVuSans-110"/>
      <use x="1172.771484" xlink:href="#DejaVuSans-115"/>
      <use x="1224.871094" xlink:href="#DejaVuSans-105"/>
      <use x="1252.654297" xlink:href="#DejaVuSans-111"/>
      <use x="1313.835938" xlink:href="#DejaVuSans-110"/>
      <use x="1377.214844" xlink:href="#DejaVuSans-41"/>
     </g>
    </g>
   </g>
   <g id="matplotlib.axis_2">
    <g id="ytick_1">
     <g id="line2d_21">
      <path clip-path="url(#p12b7c87211)" d="M 57.6 298.944 
L 338.688 298.944 
" style="fill:none;stroke:#b0b0b0;stroke-linecap:square;stroke-width:0.8;"/>
     </g>
     <g id="line2d_22">
      <defs>
       <path d="M 0 0 
L -3.5 0 
" id="mf78aabe3e9" style="stroke:#000000;stroke-width:0.8;"/>
      </defs>
      <g>
       <use style="stroke:#000000;stroke-width:0.8;" x="57.6" xlink:href="#mf78aabe3e9" y="298.944"/>
      </g>
     </g>
     <g id="text_6">
      <!-- 0.0 -->
      <g transform="translate(25.155 305.02275)scale(0.16 -0.16)">
       <defs>
        <path d="M 10.6875 12.40625 
L 21 12.40625 
L 21 0 
L 10.6875 0 
z
" id="DejaVuSans-46"/>
       </defs>
       <use xlink:href="#DejaVuSans-48"/>
       <use x="63.623047" xlink:href="#DejaVuSans-46"/>
       <use x="95.410156" xlink:href="#DejaVuSans-48"/>
      </g>
     </g>
    </g>
    <g id="ytick_2">
     <g id="line2d_23">
      <path clip-path="url(#p12b7c87211)" d="M 57.6 240.431525 
L 338.688 240.431525 
" style="fill:none;stroke:#b0b0b0;stroke-linecap:square;stroke-width:0.8;"/>
     </g>
     <g id="line2d_24">
      <g>
       <use style="stroke:#000000;stroke-width:0.8;" x="57.6" xlink:href="#mf78aabe3e9" y="240.431525"/>
      </g>
     </g>
     <g id="text_7">
      <!-- 0.2 -->
      <g transform="translate(25.155 246.510275)scale(0.16 -0.16)">
       <use xlink:href="#DejaVuSans-48"/>
       <use x="63.623047" xlink:href="#DejaVuSans-46"/>
       <use x="95.410156" xlink:href="#DejaVuSans-50"/>
      </g>
     </g>
    </g>
    <g id="ytick_3">
     <g id="line2d_25">
      <path clip-path="url(#p12b7c87211)" d="M 57.6 181.91905 
L 338.688 181.91905 
" style="fill:none;stroke:#b0b0b0;stroke-linecap:square;stroke-width:0.8;"/>
     </g>
     <g id="line2d_26">
      <g>
       <use style="stroke:#000000;stroke-width:0.8;" x="57.6" xlink:href="#mf78aabe3e9" y="181.91905"/>
      </g>
     </g>
     <g id="text_8">
      <!-- 0.4 -->
      <g transform="translate(25.155 187.9978)scale(0.16 -0.16)">
       <use xlink:href="#DejaVuSans-48"/>
       <use x="63.623047" xlink:href="#DejaVuSans-46"/>
       <use x="95.410156" xlink:href="#DejaVuSans-52"/>
      </g>
     </g>
    </g>
    <g id="ytick_4">
     <g id="line2d_27">
      <path clip-path="url(#p12b7c87211)" d="M 57.6 123.406574 
L 338.688 123.406574 
" style="fill:none;stroke:#b0b0b0;stroke-linecap:square;stroke-width:0.8;"/>
     </g>
     <g id="line2d_28">
      <g>
       <use style="stroke:#000000;stroke-width:0.8;" x="57.6" xlink:href="#mf78aabe3e9" y="123.406574"/>
      </g>
     </g>
     <g id="text_9">
      <!-- 0.6 -->
      <g transform="translate(25.155 129.485324)scale(0.16 -0.16)">
       <use xlink:href="#DejaVuSans-48"/>
       <use x="63.623047" xlink:href="#DejaVuSans-46"/>
       <use x="95.410156" xlink:href="#DejaVuSans-54"/>
      </g>
     </g>
    </g>
    <g id="ytick_5">
     <g id="line2d_29">
      <path clip-path="url(#p12b7c87211)" d="M 57.6 64.894099 
L 338.688 64.894099 
" style="fill:none;stroke:#b0b0b0;stroke-linecap:square;stroke-width:0.8;"/>
     </g>
     <g id="line2d_30">
      <g>
       <use style="stroke:#000000;stroke-width:0.8;" x="57.6" xlink:href="#mf78aabe3e9" y="64.894099"/>
      </g>
     </g>
     <g id="text_10">
      <!-- 0.8 -->
      <g transform="translate(25.155 70.972849)scale(0.16 -0.16)">
       <defs>
        <path d="M 31.78125 34.625 
Q 24.75 34.625 20.71875 30.859375 
Q 16.703125 27.09375 16.703125 20.515625 
Q 16.703125 13.921875 20.71875 10.15625 
Q 24.75 6.390625 31.78125 6.390625 
Q 38.8125 6.390625 42.859375 10.171875 
Q 46.921875 13.96875 46.921875 20.515625 
Q 46.921875 27.09375 42.890625 30.859375 
Q 38.875 34.625 31.78125 34.625 
z
M 21.921875 38.8125 
Q 15.578125 40.375 12.03125 44.71875 
Q 8.5 49.078125 8.5 55.328125 
Q 8.5 64.0625 14.71875 69.140625 
Q 20.953125 74.21875 31.78125 74.21875 
Q 42.671875 74.21875 48.875 69.140625 
Q 55.078125 64.0625 55.078125 55.328125 
Q 55.078125 49.078125 51.53125 44.71875 
Q 48 40.375 41.703125 38.8125 
Q 48.828125 37.15625 52.796875 32.3125 
Q 56.78125 27.484375 56.78125 20.515625 
Q 56.78125 9.90625 50.3125 4.234375 
Q 43.84375 -1.421875 31.78125 -1.421875 
Q 19.734375 -1.421875 13.25 4.234375 
Q 6.78125 9.90625 6.78125 20.515625 
Q 6.78125 27.484375 10.78125 32.3125 
Q 14.796875 37.15625 21.921875 38.8125 
z
M 18.3125 54.390625 
Q 18.3125 48.734375 21.84375 45.5625 
Q 25.390625 42.390625 31.78125 42.390625 
Q 38.140625 42.390625 41.71875 45.5625 
Q 45.3125 48.734375 45.3125 54.390625 
Q 45.3125 60.0625 41.71875 63.234375 
Q 38.140625 66.40625 31.78125 66.40625 
Q 25.390625 66.40625 21.84375 63.234375 
Q 18.3125 60.0625 18.3125 54.390625 
z
" id="DejaVuSans-56"/>
       </defs>
       <use xlink:href="#DejaVuSans-48"/>
       <use x="63.623047" xlink:href="#DejaVuSans-46"/>
       <use x="95.410156" xlink:href="#DejaVuSans-56"/>
      </g>
     </g>
    </g>
    <g id="ytick_6">
     <g id="line2d_31">
      <path clip-path="url(#p12b7c87211)" d="M 57.6 6.381624 
L 338.688 6.381624 
" style="fill:none;stroke:#b0b0b0;stroke-linecap:square;stroke-width:0.8;"/>
     </g>
     <g id="line2d_32">
      <g>
       <use style="stroke:#000000;stroke-width:0.8;" x="57.6" xlink:href="#mf78aabe3e9" y="6.381624"/>
      </g>
     </g>
     <g id="text_11">
      <!-- 1.0 -->
      <g transform="translate(25.155 12.460374)scale(0.16 -0.16)">
       <use xlink:href="#DejaVuSans-49"/>
       <use x="63.623047" xlink:href="#DejaVuSans-46"/>
       <use x="95.410156" xlink:href="#DejaVuSans-48"/>
      </g>
     </g>
    </g>
    <g id="text_12">
     <!-- Fraction of function,target pairs -->
     <g transform="translate(17.619531 285.585)rotate(-90)scale(0.17 -0.17)">
      <defs>
       <path d="M 9.8125 72.90625 
L 51.703125 72.90625 
L 51.703125 64.59375 
L 19.671875 64.59375 
L 19.671875 43.109375 
L 48.578125 43.109375 
L 48.578125 34.8125 
L 19.671875 34.8125 
L 19.671875 0 
L 9.8125 0 
z
" id="DejaVuSans-70"/>
       <path d="M 41.109375 46.296875 
Q 39.59375 47.171875 37.8125 47.578125 
Q 36.03125 48 33.890625 48 
Q 26.265625 48 22.1875 43.046875 
Q 18.109375 38.09375 18.109375 28.8125 
L 18.109375 0 
L 9.078125 0 
L 9.078125 54.6875 
L 18.109375 54.6875 
L 18.109375 46.1875 
Q 20.953125 51.171875 25.484375 53.578125 
Q 30.03125 56 36.53125 56 
Q 37.453125 56 38.578125 55.875 
Q 39.703125 55.765625 41.0625 55.515625 
z
" id="DejaVuSans-114"/>
       <path d="M 48.78125 52.59375 
L 48.78125 44.1875 
Q 44.96875 46.296875 41.140625 47.34375 
Q 37.3125 48.390625 33.40625 48.390625 
Q 24.65625 48.390625 19.8125 42.84375 
Q 14.984375 37.3125 14.984375 27.296875 
Q 14.984375 17.28125 19.8125 11.734375 
Q 24.65625 6.203125 33.40625 6.203125 
Q 37.3125 6.203125 41.140625 7.25 
Q 44.96875 8.296875 48.78125 10.40625 
L 48.78125 2.09375 
Q 45.015625 0.34375 40.984375 -0.53125 
Q 36.96875 -1.421875 32.421875 -1.421875 
Q 20.0625 -1.421875 12.78125 6.34375 
Q 5.515625 14.109375 5.515625 27.296875 
Q 5.515625 40.671875 12.859375 48.328125 
Q 20.21875 56 33.015625 56 
Q 37.15625 56 41.109375 55.140625 
Q 45.0625 54.296875 48.78125 52.59375 
z
" id="DejaVuSans-99"/>
       <path d="M 18.3125 70.21875 
L 18.3125 54.6875 
L 36.8125 54.6875 
L 36.8125 47.703125 
L 18.3125 47.703125 
L 18.3125 18.015625 
Q 18.3125 11.328125 20.140625 9.421875 
Q 21.96875 7.515625 27.59375 7.515625 
L 36.8125 7.515625 
L 36.8125 0 
L 27.59375 0 
Q 17.1875 0 13.234375 3.875 
Q 9.28125 7.765625 9.28125 18.015625 
L 9.28125 47.703125 
L 2.6875 47.703125 
L 2.6875 54.6875 
L 9.28125 54.6875 
L 9.28125 70.21875 
z
" id="DejaVuSans-116"/>
       <path d="M 8.5 21.578125 
L 8.5 54.6875 
L 17.484375 54.6875 
L 17.484375 21.921875 
Q 17.484375 14.15625 20.5 10.265625 
Q 23.53125 6.390625 29.59375 6.390625 
Q 36.859375 6.390625 41.078125 11.03125 
Q 45.3125 15.671875 45.3125 23.6875 
L 45.3125 54.6875 
L 54.296875 54.6875 
L 54.296875 0 
L 45.3125 0 
L 45.3125 8.40625 
Q 42.046875 3.421875 37.71875 1 
Q 33.40625 -1.421875 27.6875 -1.421875 
Q 18.265625 -1.421875 13.375 4.4375 
Q 8.5 10.296875 8.5 21.578125 
z
M 31.109375 56 
z
" id="DejaVuSans-117"/>
       <path d="M 11.71875 12.40625 
L 22.015625 12.40625 
L 22.015625 4 
L 14.015625 -11.625 
L 7.71875 -11.625 
L 11.71875 4 
z
" id="DejaVuSans-44"/>
       <path d="M 18.109375 8.203125 
L 18.109375 -20.796875 
L 9.078125 -20.796875 
L 9.078125 54.6875 
L 18.109375 54.6875 
L 18.109375 46.390625 
Q 20.953125 51.265625 25.265625 53.625 
Q 29.59375 56 35.59375 56 
Q 45.5625 56 51.78125 48.09375 
Q 58.015625 40.1875 58.015625 27.296875 
Q 58.015625 14.40625 51.78125 6.484375 
Q 45.5625 -1.421875 35.59375 -1.421875 
Q 29.59375 -1.421875 25.265625 0.953125 
Q 20.953125 3.328125 18.109375 8.203125 
z
M 48.6875 27.296875 
Q 48.6875 37.203125 44.609375 42.84375 
Q 40.53125 48.484375 33.40625 48.484375 
Q 26.265625 48.484375 22.1875 42.84375 
Q 18.109375 37.203125 18.109375 27.296875 
Q 18.109375 17.390625 22.1875 11.75 
Q 26.265625 6.109375 33.40625 6.109375 
Q 40.53125 6.109375 44.609375 11.75 
Q 48.6875 17.390625 48.6875 27.296875 
z
" id="DejaVuSans-112"/>
      </defs>
      <use xlink:href="#DejaVuSans-70"/>
      <use x="50.269531" xlink:href="#DejaVuSans-114"/>
      <use x="91.382812" xlink:href="#DejaVuSans-97"/>
      <use x="152.662109" xlink:href="#DejaVuSans-99"/>
      <use x="207.642578" xlink:href="#DejaVuSans-116"/>
      <use x="246.851562" xlink:href="#DejaVuSans-105"/>
      <use x="274.634766" xlink:href="#DejaVuSans-111"/>
      <use x="335.816406" xlink:href="#DejaVuSans-110"/>
      <use x="399.195312" xlink:href="#DejaVuSans-32"/>
      <use x="430.982422" xlink:href="#DejaVuSans-111"/>
      <use x="492.164062" xlink:href="#DejaVuSans-102"/>
      <use x="527.369141" xlink:href="#DejaVuSans-32"/>
      <use x="559.15625" xlink:href="#DejaVuSans-102"/>
      <use x="594.361328" xlink:href="#DejaVuSans-117"/>
      <use x="657.740234" xlink:href="#DejaVuSans-110"/>
      <use x="721.119141" xlink:href="#DejaVuSans-99"/>
      <use x="776.099609" xlink:href="#DejaVuSans-116"/>
      <use x="815.308594" xlink:href="#DejaVuSans-105"/>
      <use x="843.091797" xlink:href="#DejaVuSans-111"/>
      <use x="904.273438" xlink:href="#DejaVuSans-110"/>
      <use x="967.652344" xlink:href="#DejaVuSans-44"/>
      <use x="999.439453" xlink:href="#DejaVuSans-116"/>
      <use x="1038.648438" xlink:href="#DejaVuSans-97"/>
      <use x="1099.927734" xlink:href="#DejaVuSans-114"/>
      <use x="1139.291016" xlink:href="#DejaVuSans-103"/>
      <use x="1202.767578" xlink:href="#DejaVuSans-101"/>
      <use x="1264.291016" xlink:href="#DejaVuSans-116"/>
      <use x="1303.5" xlink:href="#DejaVuSans-32"/>
      <use x="1335.287109" xlink:href="#DejaVuSans-112"/>
      <use x="1398.763672" xlink:href="#DejaVuSans-97"/>
      <use x="1460.042969" xlink:href="#DejaVuSans-105"/>
      <use x="1487.826172" xlink:href="#DejaVuSans-114"/>
      <use x="1528.939453" xlink:href="#DejaVuSans-115"/>
     </g>
    </g>
   </g>
   <g id="line2d_33">
    <defs>
     <path d="M 0 1.5 
C 0.397805 1.5 0.77937 1.341951 1.06066 1.06066 
C 1.341951 0.77937 1.5 0.397805 1.5 0 
C 1.5 -0.397805 1.341951 -0.77937 1.06066 -1.06066 
C 0.77937 -1.341951 0.397805 -1.5 0 -1.5 
C -0.397805 -1.5 -0.77937 -1.341951 -1.06066 -1.06066 
C -1.341951 -0.77937 -1.5 -0.397805 -1.5 0 
C -1.5 0.397805 -1.341951 0.77937 -1.06066 1.06066 
C -0.77937 1.341951 -0.397805 1.5 0 1.5 
z
" id="m0e389f8bad" style="stroke:#f5deb3;"/>
    </defs>
    <g>
     <use style="fill:#f5deb3;stroke:#f5deb3;" x="212.133721" xlink:href="#m0e389f8bad" y="6.381624"/>
     <use style="fill:#f5deb3;stroke:#f5deb3;" x="212.133721" xlink:href="#m0e389f8bad" y="6.381624"/>
    </g>
   </g>
   <g id="line2d_34">
    <defs>
     <path d="M 0 1.5 
C 0.397805 1.5 0.77937 1.341951 1.06066 1.06066 
C 1.341951 0.77937 1.5 0.397805 1.5 0 
C 1.5 -0.397805 1.341951 -0.77937 1.06066 -1.06066 
C 0.77937 -1.341951 0.397805 -1.5 0 -1.5 
C -0.397805 -1.5 -0.77937 -1.341951 -1.06066 -1.06066 
C -1.341951 -0.77937 -1.5 -0.397805 -1.5 0 
C -1.5 0.397805 -1.341951 0.77937 -1.06066 1.06066 
C -0.77937 1.341951 -0.397805 1.5 0 1.5 
z
" id="m7f6971c9d2" style="stroke:#000080;"/>
    </defs>
    <g>
     <use style="fill:#000080;stroke:#000080;" x="290.993037" xlink:href="#m7f6971c9d2" y="110.786236"/>
     <use style="fill:#000080;stroke:#000080;" x="290.993037" xlink:href="#m7f6971c9d2" y="110.786236"/>
    </g>
   </g>
   <g id="line2d_35">
    <path d="M 57.6 298.944 
L 57.6 298.82927 
L 58.450865 298.82927 
L 58.450865 298.714539 
L 63.467834 298.714539 
L 63.467834 298.599809 
L 65.796525 298.599809 
L 65.796525 298.370348 
L 66.333161 298.370348 
L 66.333161 298.255618 
L 66.853775 298.255618 
L 66.853775 298.140888 
L 72.500389 298.140888 
L 72.500389 298.026157 
L 72.867545 298.026157 
L 72.867545 297.911427 
L 73.579452 297.911427 
L 73.579452 297.796697 
L 75.86449 297.796697 
L 75.86449 297.681966 
L 78.421149 297.681966 
L 78.421149 297.567236 
L 80.179111 297.567236 
L 80.179111 297.452506 
L 80.881459 297.452506 
L 80.881459 297.337775 
L 81.109427 297.337775 
L 81.109427 297.223045 
L 81.775977 297.223045 
L 81.775977 296.993584 
L 82.417986 296.993584 
L 82.417986 296.878854 
L 83.037197 296.878854 
L 83.037197 296.534663 
L 84.02273 296.534663 
L 84.02273 296.419932 
L 84.401859 296.419932 
L 84.401859 296.075741 
L 84.772922 296.075741 
L 84.772922 295.961011 
L 85.315119 295.961011 
L 85.315119 295.846281 
L 85.492169 295.846281 
L 85.492169 295.73155 
L 85.66744 295.73155 
L 85.66744 295.61682 
L 87.487404 295.61682 
L 87.487404 295.50209 
L 87.952479 295.50209 
L 87.952479 295.387359 
L 89.135256 295.387359 
L 89.135256 295.157899 
L 89.418828 295.157899 
L 89.418828 294.928438 
L 89.558903 294.928438 
L 89.558903 294.813708 
L 89.697862 294.813708 
L 89.697862 294.584247 
L 89.972502 294.584247 
L 89.972502 294.469517 
L 91.029752 294.469517 
L 91.029752 294.354786 
L 91.284345 294.354786 
L 91.284345 294.125326 
L 91.535274 294.125326 
L 91.535274 294.010595 
L 91.905025 294.010595 
L 91.905025 293.895865 
L 92.026554 293.895865 
L 92.026554 293.666404 
L 92.386139 293.666404 
L 92.386139 293.551674 
L 92.854336 293.551674 
L 92.854336 293.436944 
L 93.083804 293.436944 
L 93.083804 293.207483 
L 93.754628 293.207483 
L 93.754628 292.748561 
L 94.610715 292.748561 
L 94.610715 292.40437 
L 94.921215 292.40437 
L 95.023499 292.17491 
L 95.426737 292.17491 
L 95.426737 292.060179 
L 95.723163 292.060179 
L 95.820862 291.830719 
L 95.918017 291.830719 
L 95.918017 291.601258 
L 96.395835 291.601258 
L 96.395835 291.257067 
L 96.583356 291.257067 
L 96.583356 291.027606 
L 96.86091 291.027606 
L 96.952455 290.798146 
L 97.134116 290.798146 
L 97.224242 290.568685 
L 97.668013 290.568685 
L 97.755429 290.339224 
L 97.842408 290.339224 
L 97.842408 290.224494 
L 98.18605 290.224494 
L 98.270913 289.995033 
L 98.355365 289.995033 
L 98.43941 289.306651 
L 98.771596 289.306651 
L 98.771596 289.191921 
L 99.016649 289.191921 
L 99.016649 289.07719 
L 99.258306 289.07719 
L 99.338119 288.503539 
L 99.496659 288.503539 
L 99.496659 288.388808 
L 99.80948 288.388808 
L 99.886816 288.044617 
L 99.963811 288.044617 
L 100.040467 287.700426 
L 100.192776 287.700426 
L 100.268435 287.012044 
L 100.343767 287.012044 
L 100.418775 286.782584 
L 100.567829 286.782584 
L 100.641881 286.438393 
L 100.715621 286.438393 
L 100.789049 285.979471 
L 100.934985 285.979471 
L 100.934985 285.75001 
L 101.151625 285.75001 
L 101.151625 279.210381 
L 101.365607 279.210381 
L 101.436355 278.98092 
L 101.576995 278.98092 
L 101.646892 275.42428 
L 101.71651 275.42428 
L 101.71651 274.965358 
L 102.196206 274.965358 
L 102.263669 271.523448 
L 102.530943 271.523448 
L 102.597126 268.99938 
L 102.859376 268.99938 
L 102.859376 268.88465 
L 102.989037 268.88465 
L 102.989037 268.310998 
L 103.117741 268.310998 
L 103.117741 268.081538 
L 103.309033 268.081538 
L 103.309033 267.966807 
L 103.685435 267.966807 
L 103.747386 255.231739 
L 103.809118 255.231739 
L 103.809118 255.002278 
L 103.93193 255.002278 
L 103.93193 251.330907 
L 104.053884 251.330907 
L 104.053884 251.216177 
L 104.23523 251.216177 
L 104.23523 250.986716 
L 104.533344 250.986716 
L 104.592361 247.544806 
L 105.114708 247.544806 
L 105.171792 241.234637 
L 105.22869 241.234637 
L 105.22869 241.119907 
L 105.398279 241.119907 
L 105.398279 240.890446 
L 105.621863 240.890446 
L 105.621863 240.775716 
L 105.787689 240.775716 
L 105.787689 240.660985 
L 106.006367 240.660985 
L 106.006367 240.316794 
L 106.222336 240.316794 
L 106.329326 240.087334 
L 106.854645 240.087334 
L 106.906317 236.874884 
L 107.162405 236.874884 
L 107.162405 233.547704 
L 108.198707 233.547704 
L 108.198707 233.318243 
L 108.902946 233.318243 
L 108.902946 232.974052 
L 109.040444 232.974052 
L 109.040444 232.859322 
L 109.357119 232.859322 
L 109.401893 232.629861 
L 110.274038 232.629861 
L 110.274038 232.515131 
L 110.818406 232.515131 
L 110.818406 232.28567 
L 111.780817 232.28567 
L 111.819788 231.253097 
L 111.897469 231.253097 
L 111.897469 231.138367 
L 112.204777 231.138367 
L 112.204777 231.023637 
L 112.72987 231.023637 
L 112.766778 230.679446 
L 113.27546 230.679446 
L 113.382559 230.220524 
L 113.489005 230.220524 
L 113.489005 230.105794 
L 113.839203 230.105794 
L 113.942906 229.761603 
L 114.045996 229.761603 
L 114.045996 229.646872 
L 114.552496 229.646872 
L 114.585746 229.417412 
L 115.460322 229.417412 
L 115.523393 229.073221 
L 115.742365 229.073221 
L 115.742365 228.95849 
L 115.989297 228.95849 
L 115.989297 228.84376 
L 116.232781 228.84376 
L 116.323218 228.614299 
L 116.35326 228.614299 
L 116.35326 228.499569 
L 116.972471 228.499569 
L 116.972471 228.384839 
L 117.116718 228.384839 
L 117.145424 227.925917 
L 117.542433 227.925917 
L 117.542433 227.696457 
L 117.737599 227.696457 
L 117.84815 227.237535 
L 117.875678 227.237535 
L 117.875678 227.122805 
L 118.497128 227.122805 
L 118.497128 226.893344 
L 118.890808 226.893344 
L 118.968488 226.663884 
L 119.071527 226.663884 
L 119.071527 225.975501 
L 119.527814 225.975501 
L 119.527814 225.860771 
L 119.89914 225.860771 
L 119.89914 225.63131 
L 120.045484 225.63131 
L 120.045484 225.51658 
L 120.262724 225.51658 
L 120.33454 225.287119 
L 120.852343 225.287119 
L 120.944859 224.942928 
L 121.013926 224.942928 
L 121.059819 224.713468 
L 121.377731 224.713468 
L 121.377731 224.598737 
L 121.556827 224.598737 
L 121.667835 224.025086 
L 121.77814 224.025086 
L 121.887753 223.680895 
L 122.083336 223.680895 
L 122.104932 223.451434 
L 122.615387 223.451434 
L 122.615387 223.336704 
L 122.782271 223.336704 
L 122.885768 223.107243 
L 123.172336 223.107243 
L 123.172336 222.992513 
L 123.374182 222.992513 
L 123.414272 222.763052 
L 123.533993 222.763052 
L 123.613353 222.533591 
L 123.927229 222.533591 
L 123.94666 222.30413 
L 124.330801 222.30413 
L 124.425528 221.615748 
L 124.482119 221.615748 
L 124.557288 221.271557 
L 124.836322 221.271557 
L 124.891598 220.927366 
L 125.019895 220.927366 
L 125.074593 220.697906 
L 125.219619 220.697906 
L 125.219619 220.583175 
L 125.434921 220.583175 
L 125.434921 220.468445 
L 125.682793 220.468445 
L 125.787955 220.124254 
L 125.805421 220.124254 
L 125.892487 219.894793 
L 126.270496 219.894793 
L 126.270496 219.665333 
L 126.405947 219.665333 
L 126.439646 219.321142 
L 126.623836 219.321142 
L 126.72349 218.97695 
L 126.756581 218.97695 
L 126.756581 218.74749 
L 126.87191 218.74749 
L 126.937471 218.518029 
L 127.132689 218.518029 
L 127.148859 218.059108 
L 127.373678 218.059108 
L 127.373678 217.944377 
L 127.54831 217.944377 
L 127.658536 217.600186 
L 127.799239 217.600186 
L 127.845889 217.370726 
L 128.123198 217.370726 
L 128.229861 217.141265 
L 128.245045 217.141265 
L 128.350967 216.911804 
L 128.366047 216.911804 
L 128.45625 216.682344 
L 128.709321 216.682344 
L 128.783061 216.223422 
L 128.973336 216.223422 
L 128.987887 215.879231 
L 129.089405 215.879231 
L 129.089405 215.764501 
L 129.262072 215.764501 
L 129.347769 215.42031 
L 129.47553 215.42031 
L 129.47553 215.190849 
L 129.630422 215.190849 
L 129.714332 214.846658 
L 129.79784 214.846658 
L 129.79784 214.731928 
L 129.936138 214.731928 
L 129.936138 214.158276 
L 130.059675 214.158276 
L 130.08701 213.928815 
L 130.371462 213.928815 
L 130.45189 213.469894 
L 130.545255 213.469894 
L 130.65135 212.896242 
L 130.835477 212.896242 
L 130.939826 212.322591 
L 131.01768 212.322591 
L 131.120948 211.863669 
L 131.414481 211.863669 
L 131.414481 211.748939 
L 131.678241 211.748939 
L 131.752875 211.519478 
L 131.925787 211.519478 
L 132.023829 210.945826 
L 132.181982 210.945826 
L 132.206187 210.716366 
L 132.326708 210.716366 
L 132.410579 210.372175 
L 132.577122 210.372175 
L 132.683351 209.798523 
L 132.858975 209.798523 
L 132.963507 209.110141 
L 133.067415 209.110141 
L 133.170708 208.307029 
L 133.205004 208.307029 
L 133.205004 207.733377 
L 133.431933 207.733377 
L 133.46572 207.389186 
L 133.600213 207.389186 
L 133.622529 207.159725 
L 133.722595 207.159725 
L 133.766885 206.815534 
L 133.877121 206.815534 
L 133.953874 206.356613 
L 134.03029 206.356613 
L 134.062938 206.127152 
L 134.246796 206.127152 
L 134.332651 205.32404 
L 134.492498 205.32404 
L 134.534878 204.520927 
L 134.640379 204.520927 
L 134.640379 204.406197 
L 134.891008 204.406197 
L 134.891008 204.291467 
L 135.025276 204.291467 
L 135.127861 203.488354 
L 135.240011 203.488354 
L 135.260324 202.914702 
L 135.381712 202.914702 
L 135.381712 202.455781 
L 135.631921 202.455781 
L 135.651784 202.22632 
L 135.800036 202.22632 
L 135.878591 201.99686 
L 135.97629 201.99686 
L 136.044356 201.537938 
L 136.121821 201.537938 
L 136.218171 200.849556 
L 136.266147 200.849556 
L 136.352172 200.275904 
L 136.437776 200.275904 
L 136.437776 200.046444 
L 136.570107 200.046444 
L 136.65465 199.702253 
L 136.79465 199.702253 
L 136.79465 199.128601 
L 136.905847 199.128601 
L 136.905847 199.013871 
L 137.089613 199.013871 
L 137.189866 198.66968 
L 137.226179 198.66968 
L 137.298578 198.096028 
L 137.460387 198.096028 
L 137.460387 197.981298 
L 137.594091 197.981298 
L 137.594091 197.866567 
L 137.753193 197.866567 
L 137.823442 197.292916 
L 137.954401 197.292916 
L 138.00651 196.948725 
L 138.118883 196.948725 
L 138.196257 196.604533 
L 138.27329 196.604533 
L 138.383962 196.030882 
L 138.426341 196.030882 
L 138.460171 195.801421 
L 138.552866 195.801421 
L 138.628343 194.998309 
L 138.745106 194.998309 
L 138.836303 194.539387 
L 138.869347 194.539387 
L 138.976312 193.736275 
L 139.02546 193.736275 
L 139.123342 193.162623 
L 139.172077 193.162623 
L 139.277207 192.818432 
L 139.413734 192.818432 
L 139.477614 192.01532 
L 139.604677 192.01532 
L 139.636299 191.785859 
L 139.730821 191.785859 
L 139.840453 191.097477 
L 139.910568 191.097477 
L 140.00362 190.294365 
L 140.04996 190.294365 
L 140.12692 189.720713 
L 140.234098 189.720713 
L 140.340621 189.147061 
L 140.393639 189.147061 
L 140.469102 188.68814 
L 140.506711 188.68814 
L 140.53674 188.343949 
L 140.678675 188.343949 
L 140.745506 188.114488 
L 140.841591 188.114488 
L 140.841591 187.655567 
L 140.959126 187.655567 
L 141.068601 187.081915 
L 141.075875 187.081915 
L 141.119455 186.508263 
L 141.19907 186.508263 
L 141.19907 186.393533 
L 141.371524 186.393533 
L 141.435758 185.590421 
L 141.535208 185.590421 
L 141.620002 185.246229 
L 141.732423 185.246229 
L 141.830201 184.787308 
L 141.885829 184.787308 
L 141.982752 184.443117 
L 142.037896 184.443117 
L 142.147664 183.754735 
L 142.154501 183.754735 
L 142.154501 183.640005 
L 142.317805 183.640005 
L 142.42583 182.951623 
L 142.526499 182.951623 
L 142.553247 182.607432 
L 142.639893 182.607432 
L 142.726112 181.91905 
L 142.752555 181.91905 
L 142.83822 181.689589 
L 142.864493 181.689589 
L 142.949611 181.230667 
L 142.975718 181.230667 
L 143.079756 180.427555 
L 143.125078 180.427555 
L 143.176731 179.968634 
L 143.311596 179.968634 
L 143.388196 179.739173 
L 143.47714 179.739173 
L 143.534079 179.509712 
L 143.590833 179.509712 
L 143.647403 179.050791 
L 143.791143 179.050791 
L 143.896629 178.59187 
L 143.970708 178.59187 
L 144.013775 178.247679 
L 144.330419 178.247679 
L 144.360565 177.788757 
L 144.474645 177.788757 
L 144.498568 177.559296 
L 144.653267 177.559296 
L 144.724207 177.215105 
L 144.876926 177.215105 
L 144.876926 177.100375 
L 145.010918 177.100375 
L 145.010918 176.985645 
L 145.161158 176.985645 
L 145.161158 176.870914 
L 145.338615 176.870914 
L 145.338615 176.756184 
L 146.058265 176.756184 
L 146.058265 176.641454 
L 147.092675 176.641454 
L 147.092675 176.526723 
L 148.728576 176.526723 
L 148.728576 176.411993 
L 163.50953 176.411993 
L 163.50953 176.297263 
L 163.889114 176.297263 
L 163.889114 176.182532 
L 164.195057 176.182532 
L 164.195057 176.067802 
L 164.607388 176.067802 
L 164.607388 175.953072 
L 164.731458 175.953072 
L 164.731458 175.838341 
L 164.912217 175.838341 
L 164.912217 175.723611 
L 165.349755 175.723611 
L 165.385876 175.26469 
L 165.509923 175.26469 
L 165.604609 175.035229 
L 165.932896 175.035229 
L 166.016622 174.805768 
L 166.112065 174.805768 
L 166.158729 174.461577 
L 166.268843 174.461577 
L 166.294551 174.232116 
L 166.536059 174.232116 
L 166.536059 174.117386 
L 166.840785 174.117386 
L 166.842445 173.887925 
L 166.981298 173.887925 
L 167.055232 173.543734 
L 167.211917 173.543734 
L 167.211917 173.429004 
L 167.399386 173.429004 
L 167.399386 173.314274 
L 167.708477 173.314274 
L 167.793547 172.970083 
L 168.306117 172.970083 
L 168.32137 172.740622 
L 168.476198 172.740622 
L 168.525997 172.396431 
L 168.676039 172.396431 
L 168.77585 171.822779 
L 168.847006 171.822779 
L 168.950259 171.478588 
L 168.967898 171.478588 
L 168.967898 171.363858 
L 169.141861 171.363858 
L 169.202847 171.134397 
L 169.468969 171.134397 
L 169.474679 170.904937 
L 169.62813 170.904937 
L 169.729685 170.675476 
L 169.750768 170.675476 
L 169.798463 170.446015 
L 169.878129 170.446015 
L 169.883706 170.216554 
L 170.017022 170.216554 
L 170.081921 169.987094 
L 170.190466 169.987094 
L 170.190466 169.872363 
L 170.344562 169.872363 
L 170.440691 169.528172 
L 170.601968 169.528172 
L 170.670062 169.183981 
L 170.727268 169.183981 
L 170.825279 168.954521 
L 170.850355 168.954521 
L 170.939808 168.61033 
L 171.049679 168.61033 
L 171.123841 168.266139 
L 171.189931 168.266139 
L 171.189931 168.036678 
L 171.357271 168.036678 
L 171.428864 167.692487 
L 171.660792 167.692487 
L 171.76998 167.233566 
L 172.091045 167.233566 
L 172.196359 166.889374 
L 172.385786 166.889374 
L 172.484538 166.659914 
L 172.503742 166.659914 
L 172.503742 166.545183 
L 172.630434 166.545183 
L 172.704113 166.086262 
L 172.788107 166.086262 
L 172.898691 165.627341 
L 172.911586 165.627341 
L 172.981755 164.938959 
L 173.078358 164.938959 
L 173.17443 164.480037 
L 173.195195 164.480037 
L 173.297506 163.906386 
L 173.358148 163.906386 
L 173.41175 163.676925 
L 173.532037 163.676925 
L 173.579469 163.332734 
L 173.696368 163.332734 
L 173.740004 163.103273 
L 173.815827 163.103273 
L 173.839177 162.873812 
L 173.984132 162.873812 
L 174.088503 162.644352 
L 174.121333 162.644352 
L 174.207491 162.414891 
L 174.307293 162.414891 
L 174.308374 162.18543 
L 174.430173 162.18543 
L 174.53512 161.726509 
L 174.586293 161.726509 
L 174.691365 160.923397 
L 174.764225 160.923397 
L 174.869281 160.349745 
L 174.875564 160.349745 
L 174.972667 159.661363 
L 174.993479 159.661363 
L 175.099234 158.74352 
L 175.115766 158.74352 
L 175.223864 157.137295 
L 175.233098 157.137295 
L 175.324155 156.334183 
L 175.353722 156.334183 
L 175.459347 155.072149 
L 175.471494 155.072149 
L 175.579427 153.465924 
L 175.59149 153.465924 
L 175.700684 152.08916 
L 175.711665 152.08916 
L 175.812174 150.253475 
L 175.828044 150.253475 
L 175.93577 148.417789 
L 175.941681 148.417789 
L 176.045773 146.582104 
L 176.056539 146.582104 
L 176.137564 144.172766 
L 176.191048 144.172766 
L 176.299457 142.222351 
L 176.303316 142.222351 
L 176.408155 139.927744 
L 176.420617 139.927744 
L 176.531422 137.403676 
L 176.533326 137.403676 
L 176.642473 135.33853 
L 176.651932 135.33853 
L 176.759402 133.158653 
L 176.775372 133.158653 
L 176.882086 131.093507 
L 176.897943 131.093507 
L 177.007619 127.651597 
L 177.013177 127.651597 
L 177.093575 125.815911 
L 177.134095 125.815911 
L 177.241386 123.521305 
L 177.262399 123.521305 
L 177.373443 122.02981 
L 177.408792 122.02981 
L 177.509911 120.423585 
L 177.530604 120.423585 
L 177.633702 119.391012 
L 177.656927 119.391012 
L 177.76372 118.5879 
L 177.778797 118.5879 
L 177.871627 117.899518 
L 177.891015 117.899518 
L 177.973612 117.555327 
L 178.018262 117.555327 
L 178.06803 117.325866 
L 178.138509 117.325866 
L 178.138509 117.211136 
L 178.284648 117.211136 
L 178.290675 116.981675 
L 181.934714 116.981675 
L 181.934714 116.866945 
L 182.065539 116.866945 
L 182.065539 116.752214 
L 182.252411 116.752214 
L 182.252411 116.637484 
L 183.040913 116.637484 
L 183.040913 116.522754 
L 183.244906 116.522754 
L 183.244906 116.408023 
L 183.418978 116.408023 
L 183.418978 116.293293 
L 185.732748 116.293293 
L 185.732748 116.178563 
L 185.883777 116.178563 
L 185.883777 116.063832 
L 186.236087 116.063832 
L 186.236087 115.949102 
L 186.439035 115.949102 
L 186.515476 115.719641 
L 190.125912 115.719641 
L 190.125912 115.604911 
L 193.616729 115.604911 
L 193.616729 115.490181 
L 196.715669 115.490181 
L 196.715669 115.37545 
L 197.757702 115.37545 
L 197.757702 115.26072 
L 197.894177 115.26072 
L 197.894177 115.14599 
L 200.453226 115.14599 
L 200.453226 115.031259 
L 205.284308 115.031259 
L 205.284308 114.916529 
L 209.171303 114.916529 
L 209.171303 114.801798 
L 209.367261 114.801798 
L 209.367261 114.687068 
L 209.699612 114.687068 
L 209.699612 114.572338 
L 212.807286 114.572338 
L 212.807286 114.457607 
L 215.028061 114.457607 
L 215.028061 114.342877 
L 215.472847 114.342877 
L 215.472847 114.228147 
L 221.18117 114.228147 
L 221.18117 114.113416 
L 222.41312 114.113416 
L 222.41312 113.998686 
L 223.499962 113.998686 
L 223.499962 113.883956 
L 225.447488 113.883956 
L 225.447488 113.769225 
L 227.455525 113.769225 
L 227.455525 113.654495 
L 231.184261 113.654495 
L 231.184261 113.539765 
L 236.120798 113.539765 
L 236.120798 113.425034 
L 238.701971 113.425034 
L 238.75978 113.195574 
L 240.892891 113.195574 
L 240.892891 113.080843 
L 242.340856 113.080843 
L 242.357535 112.851383 
L 245.933951 112.851383 
L 245.933951 112.736652 
L 249.039792 112.736652 
L 249.039792 112.621922 
L 255.015708 112.621922 
L 255.015708 112.507192 
L 255.563383 112.507192 
L 255.563383 112.392461 
L 256.270543 112.392461 
L 256.270543 112.163001 
L 257.272023 112.163001 
L 257.272023 112.04827 
L 258.200463 112.04827 
L 258.200481 111.81881 
L 262.927873 111.81881 
L 262.927873 111.704079 
L 265.80694 111.704079 
L 265.80694 111.589349 
L 269.115014 111.589349 
L 269.115033 111.359888 
L 270.734955 111.359888 
L 270.734955 111.245158 
L 274.572807 111.245158 
L 274.572807 111.130427 
L 279.714264 111.130427 
L 279.714264 111.015697 
L 283.806896 111.015697 
L 283.806896 110.900967 
L 290.993037 110.900967 
L 290.993037 110.786236 
L 338.688 110.786236 
L 338.688 110.786236 
" style="fill:none;stroke:#000080;stroke-linecap:square;stroke-width:1.5;"/>
   </g>
   <g id="line2d_36">
    <defs>
     <path d="M 0 6 
C 1.591219 6 3.117479 5.367802 4.242641 4.242641 
C 5.367802 3.117479 6 1.591219 6 0 
C 6 -1.591219 5.367802 -3.117479 4.242641 -4.242641 
C 3.117479 -5.367802 1.591219 -6 0 -6 
C -1.591219 -6 -3.117479 -5.367802 -4.242641 -4.242641 
C -5.367802 -3.117479 -6 -1.591219 -6 0 
C -6 1.591219 -5.367802 3.117479 -4.242641 4.242641 
C -3.117479 5.367802 -1.591219 6 0 6 
z
" id="m2ca0d662ad" style="stroke:#000080;stroke-width:1.5;"/>
    </defs>
    <g>
     <use style="fill-opacity:0;stroke:#000080;stroke-width:1.5;" x="148.728576" xlink:href="#m2ca0d662ad" y="176.411993"/>
     <use style="fill-opacity:0;stroke:#000080;stroke-width:1.5;" x="200.453226" xlink:href="#m2ca0d662ad" y="115.14599"/>
     <use style="fill-opacity:0;stroke:#000080;stroke-width:1.5;" x="290.993037" xlink:href="#m2ca0d662ad" y="110.786236"/>
     <use style="fill-opacity:0;stroke:#000080;stroke-width:1.5;" x="290.993037" xlink:href="#m2ca0d662ad" y="110.786236"/>
     <use style="fill-opacity:0;stroke:#000080;stroke-width:1.5;" x="338.688" xlink:href="#m2ca0d662ad" y="110.786236"/>
    </g>
   </g>
   <g id="line2d_37">
    <path style="fill:none;stroke:#000080;stroke-linecap:square;stroke-width:1.5;"/>
    <g/>
   </g>
   <g id="line2d_38">
    <path clip-path="url(#p12b7c87211)" d="M 246.289224 112.736652 
" style="fill:none;stroke:#000080;stroke-linecap:square;stroke-width:1.5;"/>
    <defs>
     <path d="M -12 12 
L 12 -12 
M -12 -12 
L 12 12 
" id="m9152b16413" style="stroke:#000080;"/>
    </defs>
    <g clip-path="url(#p12b7c87211)">
     <use style="fill:#000080;stroke:#000080;" x="246.289224" xlink:href="#m9152b16413" y="112.736652"/>
    </g>
   </g>
   <g id="line2d_39">
    <defs>
     <path d="M 0 1.5 
C 0.397805 1.5 0.77937 1.341951 1.06066 1.06066 
C 1.341951 0.77937 1.5 0.397805 1.5 0 
C 1.5 -0.397805 1.341951 -0.77937 1.06066 -1.06066 
C 0.77937 -1.341951 0.397805 -1.5 0 -1.5 
C -0.397805 -1.5 -0.77937 -1.341951 -1.06066 -1.06066 
C -1.341951 -0.77937 -1.5 -0.397805 -1.5 0 
C -1.5 0.397805 -1.341951 0.77937 -1.06066 1.06066 
C -0.77937 1.341951 -0.397805 1.5 0 1.5 
z
" id="mf087df2eff" style="stroke:#ff00ff;"/>
    </defs>
    <g>
     <use style="fill:#ff00ff;stroke:#ff00ff;" x="321.116654" xlink:href="#mf087df2eff" y="109.638933"/>
     <use style="fill:#ff00ff;stroke:#ff00ff;" x="321.116654" xlink:href="#mf087df2eff" y="109.638933"/>
    </g>
   </g>
   <g id="line2d_40">
    <path d="M 81.556612 298.944 
L 81.556612 298.82927 
L 81.992617 298.82927 
L 81.992617 298.714539 
L 83.037197 298.714539 
L 83.037197 298.599809 
L 84.02273 298.599809 
L 84.02273 298.485079 
L 84.772922 298.485079 
L 84.772922 298.370348 
L 86.518305 298.370348 
L 86.518305 298.255618 
L 86.847358 298.255618 
L 86.847358 298.140888 
L 89.277618 298.140888 
L 89.277618 298.026157 
L 91.410261 298.026157 
L 91.410261 297.911427 
L 92.854336 297.911427 
L 92.854336 297.796697 
L 92.969447 297.796697 
L 92.969447 297.681966 
L 93.197415 297.681966 
L 93.197415 297.567236 
L 93.754628 297.567236 
L 93.754628 297.337775 
L 94.294587 297.337775 
L 94.294587 297.223045 
L 94.505975 297.223045 
L 94.610715 296.993584 
L 95.526106 296.993584 
L 95.526106 296.878854 
L 95.820862 296.878854 
L 95.820862 296.764123 
L 96.206276 296.764123 
L 96.206276 296.649393 
L 97.842408 296.649393 
L 97.928955 296.419932 
L 98.523051 296.419932 
L 98.606294 296.190472 
L 99.178125 296.190472 
L 99.178125 296.075741 
L 99.80948 296.075741 
L 99.886816 295.73155 
L 100.715621 295.73155 
L 100.715621 295.61682 
L 100.934985 295.61682 
L 100.934985 295.50209 
L 101.785851 295.50209 
L 101.785851 295.387359 
L 101.923711 295.387359 
L 101.923711 295.043168 
L 102.12848 295.043168 
L 102.12848 294.928438 
L 102.330873 294.928438 
L 102.330873 294.813708 
L 102.464508 294.813708 
L 102.530943 294.469517 
L 103.053508 294.469517 
L 103.053508 294.354786 
L 103.623262 294.354786 
L 103.623262 294.240056 
L 104.414709 294.240056 
L 104.414709 294.125326 
L 105.057436 294.125326 
L 105.057436 294.010595 
L 105.22869 294.010595 
L 105.285403 293.781135 
L 105.566235 293.781135 
L 105.566235 293.666404 
L 105.732589 293.666404 
L 105.732589 293.551674 
L 106.435663 293.551674 
L 106.48859 293.322213 
L 107.614095 293.322213 
L 107.614095 292.863292 
L 107.762095 292.863292 
L 107.860069 292.519101 
L 108.341848 292.519101 
L 108.341848 292.40437 
L 108.856871 292.40437 
L 108.948899 292.17491 
L 109.71213 292.17491 
L 109.799764 291.945449 
L 109.886961 291.945449 
L 109.930396 291.371797 
L 110.103064 291.371797 
L 110.103064 291.142337 
L 110.316522 291.142337 
L 110.358901 290.912876 
L 110.982542 290.912876 
L 110.982542 290.798146 
L 111.386247 290.798146 
L 111.386247 290.683415 
L 111.780817 290.683415 
L 111.780817 290.568685 
L 111.936179 290.568685 
L 112.013345 290.224494 
L 112.431755 290.224494 
L 112.431755 290.109764 
L 113.873839 290.109764 
L 113.977337 289.191921 
L 114.182507 289.191921 
L 114.182507 289.07719 
L 114.519183 289.07719 
L 114.552496 288.84773 
L 114.783921 288.84773 
L 114.783921 288.732999 
L 114.914798 288.732999 
L 114.914798 288.618269 
L 115.648856 288.618269 
L 115.648856 288.503539 
L 115.773423 288.503539 
L 115.773423 288.388808 
L 116.050487 288.388808 
L 116.141872 288.159348 
L 116.35326 288.159348 
L 116.35326 287.929887 
L 116.827022 287.929887 
L 116.827022 287.815157 
L 116.943478 287.815157 
L 117.030313 287.356235 
L 117.202696 287.356235 
L 117.202696 287.012044 
L 117.316679 287.012044 
L 117.40168 286.667853 
L 117.429921 286.667853 
L 117.429921 286.553123 
L 117.598418 286.553123 
L 117.598418 286.438393 
L 118.148599 286.438393 
L 118.229649 286.094202 
L 118.337133 286.094202 
L 118.337133 283.455404 
L 118.576578 283.455404 
L 118.576578 283.225943 
L 119.62761 283.225943 
L 119.702083 282.537561 
L 119.751557 282.537561 
L 119.751557 282.3081 
L 119.923616 282.3081 
L 119.948058 282.078639 
L 120.045484 282.078639 
L 120.045484 281.849179 
L 120.262724 281.849179 
L 120.262724 281.390257 
L 120.453579 281.390257 
L 120.453579 281.275527 
L 120.829137 281.275527 
L 120.829137 281.046066 
L 120.990934 281.046066 
L 120.990934 278.177808 
L 121.556827 278.177808 
L 121.556827 276.915774 
L 121.887753 276.915774 
L 121.996681 275.65374 
L 122.148045 275.65374 
L 122.169562 274.047515 
L 122.552391 274.047515 
L 122.552391 273.932785 
L 123.868806 273.932785 
L 123.927229 273.703324 
L 124.004823 273.703324 
L 124.004823 273.588594 
L 124.946698 273.588594 
L 125.038147 273.129673 
L 125.110962 273.129673 
L 125.201556 272.670751 
L 125.523852 272.670751 
L 125.523852 272.556021 
L 125.822869 272.556021 
L 125.909848 269.343571 
L 126.573795 269.343571 
L 126.573795 269.228841 
L 126.822577 269.228841 
L 126.888323 267.163695 
L 127.197279 267.163695 
L 127.197279 267.048964 
L 127.783662 267.048964 
L 127.783662 266.934234 
L 127.923363 266.934234 
L 127.923363 266.819504 
L 128.827155 266.819504 
L 128.827155 266.704773 
L 129.118302 266.704773 
L 129.118302 266.590043 
L 130.277159 266.590043 
L 130.277159 266.475313 
L 130.465258 266.475313 
L 130.465258 266.360582 
L 130.717333 266.360582 
L 130.717333 266.245852 
L 131.004728 266.245852 
L 131.004728 266.131122 
L 131.223607 266.131122 
L 131.26195 265.901661 
L 132.314693 265.901661 
L 132.314693 265.6722 
L 132.5297 265.6722 
L 132.612604 265.328009 
L 132.905511 265.328009 
L 132.998212 262.918672 
L 133.067415 262.918672 
L 133.067415 262.803942 
L 134.37542 262.803942 
L 134.439378 262.574481 
L 134.650895 262.574481 
L 134.650895 262.459751 
L 136.720123 262.459751 
L 136.738785 262.23029 
L 137.089613 262.23029 
L 137.089613 262.11556 
L 137.442482 262.11556 
L 137.442482 261.886099 
L 137.638431 261.886099 
L 137.638431 261.771369 
L 137.753193 261.771369 
L 137.753193 261.656638 
L 138.136107 261.656638 
L 138.136107 261.541908 
L 138.753416 261.541908 
L 138.836303 261.312447 
L 139.000903 261.312447 
L 139.000903 261.197717 
L 139.349619 261.197717 
L 139.349619 261.082987 
L 139.762215 261.082987 
L 139.762215 260.968256 
L 140.671233 260.968256 
L 140.671233 260.853526 
L 141.191848 260.853526 
L 141.191848 260.738796 
L 141.400102 260.738796 
L 141.400102 260.624065 
L 142.398886 260.624065 
L 142.398886 260.509335 
L 142.686372 260.509335 
L 142.686372 260.394605 
L 142.988757 260.394605 
L 143.099194 260.050414 
L 143.666219 260.050414 
L 143.666219 259.935683 
L 143.853271 259.935683 
L 143.853271 259.820953 
L 144.197155 259.820953 
L 144.197155 259.706222 
L 144.46866 259.706222 
L 144.570138 259.476762 
L 144.865226 259.476762 
L 144.865226 259.362031 
L 145.491717 259.362031 
L 145.491717 259.247301 
L 145.96511 259.247301 
L 146.041862 259.01784 
L 146.156362 259.01784 
L 146.156362 258.90311 
L 146.47942 258.90311 
L 146.47942 258.78838 
L 146.591092 258.78838 
L 146.591092 258.673649 
L 146.78088 258.673649 
L 146.78088 258.558919 
L 147.02042 258.558919 
L 147.051423 258.329458 
L 147.307662 258.329458 
L 147.307662 258.214728 
L 148.064279 258.214728 
L 148.064279 258.099998 
L 148.243592 258.099998 
L 148.243592 257.985267 
L 148.478259 257.985267 
L 148.478259 257.755807 
L 148.812779 257.755807 
L 148.836097 257.526346 
L 148.970728 257.526346 
L 148.970728 257.411616 
L 149.18674 257.411616 
L 149.18674 257.296885 
L 149.314167 257.296885 
L 149.314167 257.182155 
L 149.779481 257.182155 
L 149.779481 257.067425 
L 150.18963 257.067425 
L 150.18963 256.952694 
L 150.305678 256.952694 
L 150.305678 256.837964 
L 150.820621 256.837964 
L 150.853863 256.608503 
L 151.039674 256.608503 
L 151.080698 256.379043 
L 151.154299 256.379043 
L 151.195055 256.149582 
L 151.361164 256.149582 
L 151.401439 255.920121 
L 151.573572 255.920121 
L 151.63719 255.69066 
L 152.515626 255.69066 
L 152.515626 255.57593 
L 152.91852 255.57593 
L 152.91852 255.4612 
L 153.236437 255.4612 
L 153.236437 255.346469 
L 153.48809 255.346469 
L 153.513057 255.117009 
L 153.809903 255.117009 
L 153.879842 254.887548 
L 154.125885 254.887548 
L 154.146519 254.658087 
L 154.327734 254.658087 
L 154.327734 254.543357 
L 155.154773 254.543357 
L 155.225994 254.313896 
L 155.415571 254.313896 
L 155.415571 254.199166 
L 155.561959 254.199166 
L 155.574631 253.969705 
L 155.685117 253.969705 
L 155.685117 253.854975 
L 155.972241 253.854975 
L 156.034038 253.625514 
L 156.196751 253.625514 
L 156.196751 253.510784 
L 156.427457 253.510784 
L 156.478647 253.281323 
L 156.571609 253.281323 
L 156.571609 253.166593 
L 156.770849 253.166593 
L 156.770849 253.051863 
L 156.941506 253.051863 
L 156.941506 252.937132 
L 157.142378 252.937132 
L 157.188629 252.707672 
L 157.318054 252.707672 
L 157.335239 252.478211 
L 157.489141 252.478211 
L 157.540141 252.24875 
L 157.753847 252.24875 
L 157.781772 252.019289 
L 157.959442 252.019289 
L 157.959442 251.904559 
L 158.241633 251.904559 
L 158.33379 251.445638 
L 158.406628 251.445638 
L 158.511304 251.216177 
L 158.739932 251.216177 
L 158.842632 250.986716 
L 159.092886 250.986716 
L 159.092886 250.871986 
L 159.479389 250.871986 
L 159.479389 250.757256 
L 159.934136 250.757256 
L 159.934136 250.642525 
L 160.34363 250.642525 
L 160.346039 250.413065 
L 160.48519 250.413065 
L 160.48519 250.298334 
L 160.720169 250.298334 
L 160.783709 249.954143 
L 160.851699 249.954143 
L 160.851699 249.839413 
L 160.977598 249.839413 
L 160.977598 249.724683 
L 161.155563 249.724683 
L 161.263305 249.265761 
L 161.33173 249.265761 
L 161.397621 248.92157 
L 161.497119 248.92157 
L 161.575862 248.462649 
L 161.654251 248.462649 
L 161.763407 248.003727 
L 161.792252 248.003727 
L 161.84317 247.774267 
L 162.045367 247.774267 
L 162.080293 247.430076 
L 162.309932 247.430076 
L 162.312084 247.200615 
L 162.655149 247.200615 
L 162.756137 246.971154 
L 162.806412 246.971154 
L 162.873221 246.741694 
L 162.966741 246.741694 
L 163.024679 246.512233 
L 163.278972 246.512233 
L 163.313547 246.282772 
L 163.48138 246.282772 
L 163.48138 246.168042 
L 163.593711 246.168042 
L 163.665543 245.938581 
L 163.719224 245.938581 
L 163.719224 245.823851 
L 164.020333 245.823851 
L 164.080713 245.47966 
L 164.354654 245.47966 
L 164.459613 245.135469 
L 164.493826 245.135469 
L 164.579067 244.906008 
L 164.622474 244.906008 
L 164.622474 244.791278 
L 164.841627 244.791278 
L 164.91963 244.447087 
L 165.100293 244.447087 
L 165.164364 244.102896 
L 165.300872 244.102896 
L 165.300872 243.988165 
L 165.466876 243.988165 
L 165.552863 243.643974 
L 165.588567 243.643974 
L 165.641985 243.414514 
L 165.730653 243.414514 
L 165.83998 242.955592 
L 165.88387 242.955592 
L 165.88387 242.840862 
L 166.032275 242.840862 
L 166.091286 242.381941 
L 166.284273 242.381941 
L 166.284273 242.26721 
L 166.40041 242.26721 
L 166.507321 242.03775 
L 166.514087 242.03775 
L 166.596758 241.578828 
L 166.633748 241.578828 
L 166.737574 241.119907 
L 166.770935 241.119907 
L 166.842445 240.775716 
L 166.943389 240.775716 
L 167.04047 240.546255 
L 167.058511 240.546255 
L 167.058511 240.431525 
L 167.27679 240.431525 
L 167.27679 240.316794 
L 167.409028 240.316794 
L 167.428296 239.972603 
L 167.562581 239.972603 
L 167.591222 239.743143 
L 167.684773 239.743143 
L 167.788832 239.284221 
L 167.832791 239.284221 
L 167.921939 238.94003 
L 167.982673 238.94003 
L 167.982673 238.8253 
L 168.132819 238.8253 
L 168.198967 238.366379 
L 168.450489 238.366379 
L 168.470152 238.136918 
L 168.595176 238.136918 
L 168.625169 237.907457 
L 168.735696 237.907457 
L 168.844047 237.563266 
L 168.866228 237.563266 
L 168.95908 237.104345 
L 169.016314 237.104345 
L 169.048517 236.874884 
L 169.169476 236.874884 
L 169.169476 236.760154 
L 169.344326 236.760154 
L 169.443254 236.301232 
L 169.46183 236.301232 
L 169.550152 235.61285 
L 169.592728 235.61285 
L 169.618225 235.38339 
L 169.709984 235.38339 
L 169.816664 234.809738 
L 169.861387 234.809738 
L 169.96021 234.350817 
L 169.978243 234.350817 
L 170.02532 234.006626 
L 170.277909 234.006626 
L 170.318747 233.662434 
L 170.398784 233.662434 
L 170.505381 233.203513 
L 170.51345 233.203513 
L 170.51345 233.088783 
L 170.655397 233.088783 
L 170.755138 232.515131 
L 170.802812 232.515131 
L 170.850355 232.17094 
L 170.920115 232.17094 
L 170.96996 231.941479 
L 171.047071 231.941479 
L 171.13163 231.597288 
L 171.174403 231.597288 
L 171.27895 231.253097 
L 171.421208 231.253097 
L 171.489997 231.023637 
L 171.536974 231.023637 
L 171.601519 230.679446 
L 171.753708 230.679446 
L 171.846131 230.220524 
L 171.880975 230.220524 
L 171.944262 229.761603 
L 172.018424 229.761603 
L 172.12908 229.187951 
L 172.195138 229.187951 
L 172.247561 228.84376 
L 172.332566 228.84376 
L 172.431619 228.270108 
L 172.510938 228.270108 
L 172.592284 228.040648 
L 172.626861 228.040648 
L 172.670877 227.466996 
L 172.901036 227.466996 
L 172.973583 227.008075 
L 173.014404 227.008075 
L 173.076037 226.778614 
L 173.199806 226.778614 
L 173.272271 226.319692 
L 173.31698 226.319692 
L 173.424271 225.975501 
L 173.511669 225.975501 
L 173.560286 225.746041 
L 173.635768 225.746041 
L 173.672827 225.172389 
L 173.750059 225.172389 
L 173.838066 224.598737 
L 173.873588 224.598737 
L 173.895753 224.369277 
L 174.053416 224.369277 
L 174.156284 224.025086 
L 174.252038 224.025086 
L 174.338634 223.336704 
L 174.382848 223.336704 
L 174.382848 223.221973 
L 174.544726 223.221973 
L 174.639439 222.763052 
L 174.730473 222.763052 
L 174.793704 222.1894 
L 174.847271 222.1894 
L 174.923661 221.845209 
L 174.976831 221.845209 
L 174.987238 221.501018 
L 175.1137 221.501018 
L 175.149812 221.271557 
L 175.329256 221.271557 
L 175.391374 220.927366 
L 175.448206 220.927366 
L 175.527057 220.238984 
L 175.58747 220.238984 
L 175.686697 219.780063 
L 175.765475 219.780063 
L 175.765475 219.665333 
L 175.913094 219.665333 
L 176.011471 219.321142 
L 176.134642 219.321142 
L 176.242433 218.97695 
L 176.253078 218.97695 
L 176.332234 218.632759 
L 176.417742 218.632759 
L 176.462729 218.059108 
L 176.570418 218.059108 
L 176.615961 217.829647 
L 176.682166 217.829647 
L 176.778188 217.255995 
L 176.800705 217.255995 
L 176.880219 216.682344 
L 176.960301 216.682344 
L 177.034468 216.223422 
L 177.151563 216.223422 
L 177.247784 215.764501 
L 177.297974 215.764501 
L 177.402453 215.190849 
L 177.474766 215.190849 
L 177.558456 214.731928 
L 177.603284 214.731928 
L 177.665852 214.158276 
L 177.733529 214.158276 
L 177.755734 213.928815 
L 177.846921 213.928815 
L 177.903342 213.125703 
L 177.979747 213.125703 
L 178.051456 212.781512 
L 178.218216 212.781512 
L 178.323355 211.9784 
L 178.432988 211.9784 
L 178.53939 211.519478 
L 178.56483 211.519478 
L 178.642617 210.831096 
L 178.694843 210.831096 
L 178.773727 210.257444 
L 178.807187 210.257444 
L 178.807187 210.142714 
L 178.966907 210.142714 
L 179.047046 208.88068 
L 179.09972 208.88068 
L 179.198874 208.307029 
L 179.216026 208.307029 
L 179.29178 207.848107 
L 179.356682 207.848107 
L 179.45278 207.389186 
L 179.53473 207.389186 
L 179.636231 206.815534 
L 179.650569 206.815534 
L 179.717325 206.471343 
L 179.793307 206.471343 
L 179.890962 206.012422 
L 179.932536 206.012422 
L 180.014607 205.43877 
L 180.120337 205.43877 
L 180.22466 204.635658 
L 180.241602 204.635658 
L 180.339082 203.717815 
L 180.365087 203.717815 
L 180.447434 203.258893 
L 180.532422 203.258893 
L 180.588349 202.914702 
L 180.659885 202.914702 
L 180.751324 202.685242 
L 180.815494 202.685242 
L 180.878686 202.341051 
L 180.927596 202.341051 
L 180.927596 202.22632 
L 181.09331 202.22632 
L 181.167919 201.767399 
L 181.23494 201.767399 
L 181.329929 201.308478 
L 181.360997 201.308478 
L 181.397052 201.079017 
L 181.506921 201.079017 
L 181.59546 200.390635 
L 181.648084 200.390635 
L 181.660151 200.161174 
L 181.75921 200.161174 
L 181.866127 199.358062 
L 181.882949 199.358062 
L 181.988415 199.013871 
L 182.059991 199.013871 
L 182.132657 198.210758 
L 182.194013 198.210758 
L 182.292147 197.178185 
L 182.323597 197.178185 
L 182.404696 196.948725 
L 182.485419 196.948725 
L 182.589333 196.489803 
L 182.603456 196.489803 
L 182.708675 195.45723 
L 182.718695 195.45723 
L 182.826543 194.998309 
L 182.87757 194.998309 
L 182.981812 194.539387 
L 182.989704 194.539387 
L 183.100467 193.965736 
L 183.117445 193.965736 
L 183.17804 193.506814 
L 183.237129 193.506814 
L 183.322486 193.047893 
L 183.397153 193.047893 
L 183.447181 192.703702 
L 183.518766 192.703702 
L 183.594505 192.13005 
L 183.645871 192.13005 
L 183.743743 191.671129 
L 183.784624 191.671129 
L 183.784624 191.556398 
L 184.026056 191.556398 
L 184.127984 191.097477 
L 184.15445 191.097477 
L 184.264802 190.638556 
L 184.304481 190.638556 
L 184.407224 190.409095 
L 184.42116 190.409095 
L 184.487658 189.720713 
L 184.615705 189.720713 
L 184.696378 189.147061 
L 184.831783 189.147061 
L 184.927357 188.229218 
L 184.953813 188.229218 
L 185.041709 187.999758 
L 185.066825 187.999758 
L 185.13905 187.770297 
L 185.230068 187.770297 
L 185.298741 187.426106 
L 185.472388 187.426106 
L 185.539547 186.967185 
L 185.605884 186.967185 
L 185.685493 186.508263 
L 185.755205 186.508263 
L 185.8626 186.278803 
L 185.973217 186.278803 
L 186.065507 185.47569 
L 186.280242 185.47569 
L 186.362258 185.131499 
L 186.427702 185.131499 
L 186.427702 185.016769 
L 186.544994 185.016769 
L 186.646048 184.672578 
L 186.688647 184.672578 
L 186.74652 184.098926 
L 186.860641 184.098926 
L 186.860641 183.984196 
L 186.983435 183.984196 
L 187.054928 183.525274 
L 187.270237 183.525274 
L 187.353881 183.066353 
L 187.435088 183.066353 
L 187.508816 182.377971 
L 187.764188 182.377971 
L 187.780182 182.14851 
L 187.933372 182.14851 
L 187.957126 181.91905 
L 188.079338 181.91905 
L 188.097498 181.689589 
L 188.19387 181.689589 
L 188.257176 181.460128 
L 188.337197 181.460128 
L 188.418778 181.115937 
L 188.485592 181.115937 
L 188.586529 180.771746 
L 188.650329 180.771746 
L 188.758351 180.312825 
L 188.780064 180.312825 
L 188.871809 180.083364 
L 188.900878 180.083364 
L 188.955136 179.624443 
L 189.060828 179.624443 
L 189.128931 179.394982 
L 189.19723 179.394982 
L 189.26618 178.936061 
L 189.36864 178.936061 
L 189.380038 178.7066 
L 189.508095 178.7066 
L 189.614995 178.362409 
L 189.644649 178.362409 
L 189.752056 177.903487 
L 189.774349 177.903487 
L 189.863239 177.559296 
L 189.890703 177.559296 
L 189.890703 177.444566 
L 190.004967 177.444566 
L 190.108436 177.100375 
L 190.116739 177.100375 
L 190.120671 176.870914 
L 190.316142 176.870914 
L 190.419075 176.297263 
L 190.577238 176.297263 
L 190.577238 176.182532 
L 190.693024 176.182532 
L 190.79124 175.838341 
L 190.892668 175.838341 
L 190.892668 175.723611 
L 191.014687 175.723611 
L 191.014687 175.608881 
L 191.184832 175.608881 
L 191.273784 175.26469 
L 191.399264 175.26469 
L 191.494805 175.035229 
L 191.592233 175.035229 
L 191.653151 174.805768 
L 191.757657 174.805768 
L 191.757657 174.691038 
L 192.560127 174.691038 
L 192.581004 174.461577 
L 192.831087 174.461577 
L 192.831087 174.346847 
L 193.44682 174.346847 
L 193.44682 174.232116 
L 193.684517 174.232116 
L 193.684517 174.117386 
L 194.914199 174.117386 
L 194.914199 174.002656 
L 195.065195 174.002656 
L 195.065195 173.887925 
L 199.140573 173.887925 
L 199.140573 173.773195 
L 210.806424 173.773195 
L 210.806424 173.658465 
L 236.793052 173.658465 
L 236.793052 173.543734 
L 246.295292 173.543734 
L 246.355124 159.546632 
L 246.411739 159.546632 
L 246.521444 157.022565 
L 246.523801 157.022565 
L 246.634207 153.236464 
L 246.638806 153.236464 
L 246.749151 149.106171 
L 246.751104 149.106171 
L 246.857317 145.664261 
L 246.870597 145.664261 
L 246.979389 141.87816 
L 246.98197 141.87816 
L 247.033231 141.304508 
L 247.182371 141.304508 
L 247.189941 141.075047 
L 258.380683 141.075047 
L 258.478978 132.355541 
L 258.499477 132.355541 
L 258.610525 129.028361 
L 258.616013 129.028361 
L 258.725675 126.045372 
L 258.751852 126.045372 
L 258.806939 125.701181 
L 265.451209 125.701181 
L 265.545377 120.538316 
L 265.562364 120.538316 
L 265.673017 119.046821 
L 265.69043 119.046821 
L 265.7075 118.817361 
L 270.467281 118.817361 
L 270.563633 116.522754 
L 270.581121 116.522754 
L 270.677357 115.949102 
L 270.694727 115.949102 
L 270.75467 115.719641 
L 272.82694 115.719641 
L 272.82694 115.604911 
L 274.358349 115.604911 
L 274.460099 113.883956 
L 274.472923 113.883956 
L 274.542635 113.425034 
L 277.539066 113.425034 
L 277.647826 113.080843 
L 277.651043 113.080843 
L 277.72971 112.851383 
L 279.145679 112.851383 
L 279.145679 112.736652 
L 280.226927 112.736652 
L 280.28528 112.277731 
L 281.61292 112.277731 
L 281.61292 112.163001 
L 282.622221 112.163001 
L 282.622221 112.04827 
L 284.608049 112.04827 
L 284.655614 111.589349 
L 285.696522 111.589349 
L 285.696522 111.474619 
L 286.560976 111.474619 
L 286.560976 111.359888 
L 289.648494 111.359888 
L 289.654361 111.130427 
L 291.047925 111.130427 
L 291.065452 110.900967 
L 291.781382 110.900967 
L 291.781382 110.786236 
L 293.554978 110.786236 
L 293.554978 110.671506 
L 299.858657 110.671506 
L 299.858657 110.556776 
L 300.211203 110.556776 
L 300.211203 110.442045 
L 301.02062 110.442045 
L 301.02062 110.327315 
L 302.128649 110.327315 
L 302.128649 110.212585 
L 303.12197 110.212585 
L 303.12197 110.097854 
L 304.758029 110.097854 
L 304.758029 109.983124 
L 309.532273 109.983124 
L 309.532273 109.868394 
L 313.065796 109.868394 
L 313.065796 109.753663 
L 321.116654 109.753663 
L 321.116654 109.638933 
L 338.688 109.638933 
L 338.688 109.638933 
" style="fill:none;stroke:#ff00ff;stroke-linecap:square;stroke-width:1.5;"/>
   </g>
   <g id="line2d_41">
    <defs>
     <path d="M -0 8.485281 
L 5.091169 0 
L 0 -8.485281 
L -5.091169 -0 
z
" id="m95e56c8251" style="stroke:#ff00ff;stroke-linejoin:miter;stroke-width:1.5;"/>
    </defs>
    <g>
     <use style="fill-opacity:0;stroke:#ff00ff;stroke-linejoin:miter;stroke-width:1.5;" x="120.829137" xlink:href="#m95e56c8251" y="281.046066"/>
     <use style="fill-opacity:0;stroke:#ff00ff;stroke-linejoin:miter;stroke-width:1.5;" x="199.140573" xlink:href="#m95e56c8251" y="173.887925"/>
     <use style="fill-opacity:0;stroke:#ff00ff;stroke-linejoin:miter;stroke-width:1.5;" x="258.806939" xlink:href="#m95e56c8251" y="125.815911"/>
     <use style="fill-opacity:0;stroke:#ff00ff;stroke-linejoin:miter;stroke-width:1.5;" x="321.116654" xlink:href="#m95e56c8251" y="109.638933"/>
     <use style="fill-opacity:0;stroke:#ff00ff;stroke-linejoin:miter;stroke-width:1.5;" x="338.688" xlink:href="#m95e56c8251" y="109.638933"/>
    </g>
   </g>
   <g id="line2d_42">
    <path style="fill:none;stroke:#ff00ff;stroke-linecap:square;stroke-width:1.5;"/>
    <g/>
   </g>
   <g id="line2d_43">
    <path clip-path="url(#p12b7c87211)" d="M 246.289154 173.543734 
" style="fill:none;stroke:#ff00ff;stroke-linecap:square;stroke-width:1.5;"/>
    <defs>
     <path d="M -12 12 
L 12 -12 
M -12 -12 
L 12 12 
" id="m9de3e20294" style="stroke:#ff00ff;"/>
    </defs>
    <g clip-path="url(#p12b7c87211)">
     <use style="fill:#ff00ff;stroke:#ff00ff;" x="246.289154" xlink:href="#m9de3e20294" y="173.543734"/>
    </g>
   </g>
   <g id="line2d_44">
    <path d="M 338.688 110.786236 
L 369.60768 293.092752 
" style="fill:none;stroke:#000080;stroke-linecap:square;stroke-width:1.5;"/>
    <g>
     <use style="fill-opacity:0;stroke:#000080;stroke-width:1.5;" x="338.688" xlink:href="#m2ca0d662ad" y="110.786236"/>
     <use style="fill-opacity:0;stroke:#000080;stroke-width:1.5;" x="369.60768" xlink:href="#m2ca0d662ad" y="293.092752"/>
    </g>
   </g>
   <g id="line2d_45">
    <path d="M 338.688 109.638933 
L 369.60768 152.662812 
" style="fill:none;stroke:#ff00ff;stroke-linecap:square;stroke-width:1.5;"/>
    <g>
     <use style="fill-opacity:0;stroke:#ff00ff;stroke-linejoin:miter;stroke-width:1.5;" x="338.688" xlink:href="#m95e56c8251" y="109.638933"/>
     <use style="fill-opacity:0;stroke:#ff00ff;stroke-linejoin:miter;stroke-width:1.5;" x="369.60768" xlink:href="#m95e56c8251" y="152.662812"/>
    </g>
   </g>
   <g id="line2d_46">
    <path d="M 338.688 298.944 
L 338.688 6.381624 
" style="fill:none;stroke:#000000;stroke-linecap:square;stroke-width:1.5;"/>
   </g>
   <g id="patch_3">
    <path d="M 57.6 298.944 
L 57.6 3.456 
" style="fill:none;stroke:#000000;stroke-linecap:square;stroke-linejoin:miter;stroke-width:0.8;"/>
   </g>
   <g id="patch_4">
    <path d="M 338.688 298.944 
L 338.688 3.456 
" style="fill:none;stroke:#000000;stroke-linecap:square;stroke-linejoin:miter;stroke-width:0.8;"/>
   </g>
   <g id="patch_5">
    <path d="M 57.6 298.944 
L 338.688 298.944 
" style="fill:none;stroke:#000000;stroke-linecap:square;stroke-linejoin:miter;stroke-width:0.8;"/>
   </g>
   <g id="patch_6">
    <path d="M 57.6 3.456 
L 338.688 3.456 
" style="fill:none;stroke:#000000;stroke-linecap:square;stroke-linejoin:miter;stroke-width:0.8;"/>
   </g>
   <g id="text_13">
    <!-- BIPOP-CMA -->
    <g transform="translate(375.22944 297.78369)scale(0.17 -0.17)">
     <defs>
      <path d="M 19.671875 34.8125 
L 19.671875 8.109375 
L 35.5 8.109375 
Q 43.453125 8.109375 47.28125 11.40625 
Q 51.125 14.703125 51.125 21.484375 
Q 51.125 28.328125 47.28125 31.5625 
Q 43.453125 34.8125 35.5 34.8125 
z
M 19.671875 64.796875 
L 19.671875 42.828125 
L 34.28125 42.828125 
Q 41.5 42.828125 45.03125 45.53125 
Q 48.578125 48.25 48.578125 53.8125 
Q 48.578125 59.328125 45.03125 62.0625 
Q 41.5 64.796875 34.28125 64.796875 
z
M 9.8125 72.90625 
L 35.015625 72.90625 
Q 46.296875 72.90625 52.390625 68.21875 
Q 58.5 63.53125 58.5 54.890625 
Q 58.5 48.1875 55.375 44.234375 
Q 52.25 40.28125 46.1875 39.3125 
Q 53.46875 37.75 57.5 32.78125 
Q 61.53125 27.828125 61.53125 20.40625 
Q 61.53125 10.640625 54.890625 5.3125 
Q 48.25 0 35.984375 0 
L 9.8125 0 
z
" id="DejaVuSans-66"/>
      <path d="M 9.8125 72.90625 
L 19.671875 72.90625 
L 19.671875 0 
L 9.8125 0 
z
" id="DejaVuSans-73"/>
      <path d="M 19.671875 64.796875 
L 19.671875 37.40625 
L 32.078125 37.40625 
Q 38.96875 37.40625 42.71875 40.96875 
Q 46.484375 44.53125 46.484375 51.125 
Q 46.484375 57.671875 42.71875 61.234375 
Q 38.96875 64.796875 32.078125 64.796875 
z
M 9.8125 72.90625 
L 32.078125 72.90625 
Q 44.34375 72.90625 50.609375 67.359375 
Q 56.890625 61.8125 56.890625 51.125 
Q 56.890625 40.328125 50.609375 34.8125 
Q 44.34375 29.296875 32.078125 29.296875 
L 19.671875 29.296875 
L 19.671875 0 
L 9.8125 0 
z
" id="DejaVuSans-80"/>
      <path d="M 39.40625 66.21875 
Q 28.65625 66.21875 22.328125 58.203125 
Q 16.015625 50.203125 16.015625 36.375 
Q 16.015625 22.609375 22.328125 14.59375 
Q 28.65625 6.59375 39.40625 6.59375 
Q 50.140625 6.59375 56.421875 14.59375 
Q 62.703125 22.609375 62.703125 36.375 
Q 62.703125 50.203125 56.421875 58.203125 
Q 50.140625 66.21875 39.40625 66.21875 
z
M 39.40625 74.21875 
Q 54.734375 74.21875 63.90625 63.9375 
Q 73.09375 53.65625 73.09375 36.375 
Q 73.09375 19.140625 63.90625 8.859375 
Q 54.734375 -1.421875 39.40625 -1.421875 
Q 24.03125 -1.421875 14.8125 8.828125 
Q 5.609375 19.09375 5.609375 36.375 
Q 5.609375 53.65625 14.8125 63.9375 
Q 24.03125 74.21875 39.40625 74.21875 
z
" id="DejaVuSans-79"/>
      <path d="M 64.40625 67.28125 
L 64.40625 56.890625 
Q 59.421875 61.53125 53.78125 63.8125 
Q 48.140625 66.109375 41.796875 66.109375 
Q 29.296875 66.109375 22.65625 58.46875 
Q 16.015625 50.828125 16.015625 36.375 
Q 16.015625 21.96875 22.65625 14.328125 
Q 29.296875 6.6875 41.796875 6.6875 
Q 48.140625 6.6875 53.78125 8.984375 
Q 59.421875 11.28125 64.40625 15.921875 
L 64.40625 5.609375 
Q 59.234375 2.09375 53.4375 0.328125 
Q 47.65625 -1.421875 41.21875 -1.421875 
Q 24.65625 -1.421875 15.125 8.703125 
Q 5.609375 18.84375 5.609375 36.375 
Q 5.609375 53.953125 15.125 64.078125 
Q 24.65625 74.21875 41.21875 74.21875 
Q 47.75 74.21875 53.53125 72.484375 
Q 59.328125 70.75 64.40625 67.28125 
z
" id="DejaVuSans-67"/>
      <path d="M 9.8125 72.90625 
L 24.515625 72.90625 
L 43.109375 23.296875 
L 61.8125 72.90625 
L 76.515625 72.90625 
L 76.515625 0 
L 66.890625 0 
L 66.890625 64.015625 
L 48.09375 14.015625 
L 38.1875 14.015625 
L 19.390625 64.015625 
L 19.390625 0 
L 9.8125 0 
z
" id="DejaVuSans-77"/>
      <path d="M 34.1875 63.1875 
L 20.796875 26.90625 
L 47.609375 26.90625 
z
M 28.609375 72.90625 
L 39.796875 72.90625 
L 67.578125 0 
L 57.328125 0 
L 50.6875 18.703125 
L 17.828125 18.703125 
L 11.1875 0 
L 0.78125 0 
z
" id="DejaVuSans-65"/>
     </defs>
     <use xlink:href="#DejaVuSans-66"/>
     <use x="68.603516" xlink:href="#DejaVuSans-73"/>
     <use x="98.095703" xlink:href="#DejaVuSans-80"/>
     <use x="158.398438" xlink:href="#DejaVuSans-79"/>
     <use x="237.109375" xlink:href="#DejaVuSans-80"/>
     <use x="295.162109" xlink:href="#DejaVuSans-45"/>
     <use x="331.246094" xlink:href="#DejaVuSans-67"/>
     <use x="401.070312" xlink:href="#DejaVuSans-77"/>
     <use x="487.349609" xlink:href="#DejaVuSans-65"/>
    </g>
   </g>
   <g id="text_14">
    <!-- PSO -->
    <g transform="translate(375.22944 157.353749)scale(0.17 -0.17)">
     <defs>
      <path d="M 53.515625 70.515625 
L 53.515625 60.890625 
Q 47.90625 63.578125 42.921875 64.890625 
Q 37.9375 66.21875 33.296875 66.21875 
Q 25.25 66.21875 20.875 63.09375 
Q 16.5 59.96875 16.5 54.203125 
Q 16.5 49.359375 19.40625 46.890625 
Q 22.3125 44.4375 30.421875 42.921875 
L 36.375 41.703125 
Q 47.40625 39.59375 52.65625 34.296875 
Q 57.90625 29 57.90625 20.125 
Q 57.90625 9.515625 50.796875 4.046875 
Q 43.703125 -1.421875 29.984375 -1.421875 
Q 24.8125 -1.421875 18.96875 -0.25 
Q 13.140625 0.921875 6.890625 3.21875 
L 6.890625 13.375 
Q 12.890625 10.015625 18.65625 8.296875 
Q 24.421875 6.59375 29.984375 6.59375 
Q 38.421875 6.59375 43.015625 9.90625 
Q 47.609375 13.234375 47.609375 19.390625 
Q 47.609375 24.75 44.3125 27.78125 
Q 41.015625 30.8125 33.5 32.328125 
L 27.484375 33.5 
Q 16.453125 35.6875 11.515625 40.375 
Q 6.59375 45.0625 6.59375 53.421875 
Q 6.59375 63.09375 13.40625 68.65625 
Q 20.21875 74.21875 32.171875 74.21875 
Q 37.3125 74.21875 42.625 73.28125 
Q 47.953125 72.359375 53.515625 70.515625 
z
" id="DejaVuSans-83"/>
     </defs>
     <use xlink:href="#DejaVuSans-80"/>
     <use x="60.302734" xlink:href="#DejaVuSans-83"/>
     <use x="123.779297" xlink:href="#DejaVuSans-79"/>
    </g>
   </g>
   <g id="text_15">
    <!-- best 2009 -->
    <g transform="translate(375.22944 16.923809)scale(0.17 -0.17)">
     <defs>
      <path d="M 48.6875 27.296875 
Q 48.6875 37.203125 44.609375 42.84375 
Q 40.53125 48.484375 33.40625 48.484375 
Q 26.265625 48.484375 22.1875 42.84375 
Q 18.109375 37.203125 18.109375 27.296875 
Q 18.109375 17.390625 22.1875 11.75 
Q 26.265625 6.109375 33.40625 6.109375 
Q 40.53125 6.109375 44.609375 11.75 
Q 48.6875 17.390625 48.6875 27.296875 
z
M 18.109375 46.390625 
Q 20.953125 51.265625 25.265625 53.625 
Q 29.59375 56 35.59375 56 
Q 45.5625 56 51.78125 48.09375 
Q 58.015625 40.1875 58.015625 27.296875 
Q 58.015625 14.40625 51.78125 6.484375 
Q 45.5625 -1.421875 35.59375 -1.421875 
Q 29.59375 -1.421875 25.265625 0.953125 
Q 20.953125 3.328125 18.109375 8.203125 
L 18.109375 0 
L 9.078125 0 
L 9.078125 75.984375 
L 18.109375 75.984375 
z
" id="DejaVuSans-98"/>
      <path d="M 10.984375 1.515625 
L 10.984375 10.5 
Q 14.703125 8.734375 18.5 7.8125 
Q 22.3125 6.890625 25.984375 6.890625 
Q 35.75 6.890625 40.890625 13.453125 
Q 46.046875 20.015625 46.78125 33.40625 
Q 43.953125 29.203125 39.59375 26.953125 
Q 35.25 24.703125 29.984375 24.703125 
Q 19.046875 24.703125 12.671875 31.3125 
Q 6.296875 37.9375 6.296875 49.421875 
Q 6.296875 60.640625 12.9375 67.421875 
Q 19.578125 74.21875 30.609375 74.21875 
Q 43.265625 74.21875 49.921875 64.515625 
Q 56.59375 54.828125 56.59375 36.375 
Q 56.59375 19.140625 48.40625 8.859375 
Q 40.234375 -1.421875 26.421875 -1.421875 
Q 22.703125 -1.421875 18.890625 -0.6875 
Q 15.09375 0.046875 10.984375 1.515625 
z
M 30.609375 32.421875 
Q 37.25 32.421875 41.125 36.953125 
Q 45.015625 41.5 45.015625 49.421875 
Q 45.015625 57.28125 41.125 61.84375 
Q 37.25 66.40625 30.609375 66.40625 
Q 23.96875 66.40625 20.09375 61.84375 
Q 16.21875 57.28125 16.21875 49.421875 
Q 16.21875 41.5 20.09375 36.953125 
Q 23.96875 32.421875 30.609375 32.421875 
z
" id="DejaVuSans-57"/>
     </defs>
     <use xlink:href="#DejaVuSans-98"/>
     <use x="63.476562" xlink:href="#DejaVuSans-101"/>
     <use x="125" xlink:href="#DejaVuSans-115"/>
     <use x="177.099609" xlink:href="#DejaVuSans-116"/>
     <use x="216.308594" xlink:href="#DejaVuSans-32"/>
     <use x="248.095703" xlink:href="#DejaVuSans-50"/>
     <use x="311.71875" xlink:href="#DejaVuSans-48"/>
     <use x="375.341797" xlink:href="#DejaVuSans-48"/>
     <use x="438.964844" xlink:href="#DejaVuSans-57"/>
    </g>
   </g>
   <g id="text_16">
    <!-- bbob f1-f5, 20-D -->
    <g transform="translate(60.41088 14.161286)scale(0.102 -0.102)">
     <defs>
      <path d="M 10.796875 72.90625 
L 49.515625 72.90625 
L 49.515625 64.59375 
L 19.828125 64.59375 
L 19.828125 46.734375 
Q 21.96875 47.46875 24.109375 47.828125 
Q 26.265625 48.1875 28.421875 48.1875 
Q 40.625 48.1875 47.75 41.5 
Q 54.890625 34.8125 54.890625 23.390625 
Q 54.890625 11.625 47.5625 5.09375 
Q 40.234375 -1.421875 26.90625 -1.421875 
Q 22.3125 -1.421875 17.546875 -0.640625 
Q 12.796875 0.140625 7.71875 1.703125 
L 7.71875 11.625 
Q 12.109375 9.234375 16.796875 8.0625 
Q 21.484375 6.890625 26.703125 6.890625 
Q 35.15625 6.890625 40.078125 11.328125 
Q 45.015625 15.765625 45.015625 23.390625 
Q 45.015625 31 40.078125 35.4375 
Q 35.15625 39.890625 26.703125 39.890625 
Q 22.75 39.890625 18.8125 39.015625 
Q 14.890625 38.140625 10.796875 36.28125 
z
" id="DejaVuSans-53"/>
      <path d="M 19.671875 64.796875 
L 19.671875 8.109375 
L 31.59375 8.109375 
Q 46.6875 8.109375 53.6875 14.9375 
Q 60.6875 21.78125 60.6875 36.53125 
Q 60.6875 51.171875 53.6875 57.984375 
Q 46.6875 64.796875 31.59375 64.796875 
z
M 9.8125 72.90625 
L 30.078125 72.90625 
Q 51.265625 72.90625 61.171875 64.09375 
Q 71.09375 55.28125 71.09375 36.53125 
Q 71.09375 17.671875 61.125 8.828125 
Q 51.171875 0 30.078125 0 
L 9.8125 0 
z
" id="DejaVuSans-68"/>
     </defs>
     <use xlink:href="#DejaVuSans-98"/>
     <use x="63.476562" xlink:href="#DejaVuSans-98"/>
     <use x="126.953125" xlink:href="#DejaVuSans-111"/>
     <use x="188.134766" xlink:href="#DejaVuSans-98"/>
     <use x="251.611328" xlink:href="#DejaVuSans-32"/>
     <use x="283.398438" xlink:href="#DejaVuSans-102"/>
     <use x="318.603516" xlink:href="#DejaVuSans-49"/>
     <use x="382.226562" xlink:href="#DejaVuSans-45"/>
     <use x="418.310547" xlink:href="#DejaVuSans-102"/>
     <use x="453.515625" xlink:href="#DejaVuSans-53"/>
     <use x="517.138672" xlink:href="#DejaVuSans-44"/>
     <use x="548.925781" xlink:href="#DejaVuSans-32"/>
     <use x="580.712891" xlink:href="#DejaVuSans-50"/>
     <use x="644.335938" xlink:href="#DejaVuSans-48"/>
     <use x="707.958984" xlink:href="#DejaVuSans-45"/>
     <use x="744.042969" xlink:href="#DejaVuSans-68"/>
    </g>
    <!-- 51 targets: 100..1e-08 -->
    <g transform="translate(60.41088 25.583055)scale(0.102 -0.102)">
     <defs>
      <path d="M 11.71875 12.40625 
L 22.015625 12.40625 
L 22.015625 0 
L 11.71875 0 
z
M 11.71875 51.703125 
L 22.015625 51.703125 
L 22.015625 39.3125 
L 11.71875 39.3125 
z
" id="DejaVuSans-58"/>
     </defs>
     <use xlink:href="#DejaVuSans-53"/>
     <use x="63.623047" xlink:href="#DejaVuSans-49"/>
     <use x="127.246094" xlink:href="#DejaVuSans-32"/>
     <use x="159.033203" xlink:href="#DejaVuSans-116"/>
     <use x="198.242188" xlink:href="#DejaVuSans-97"/>
     <use x="259.521484" xlink:href="#DejaVuSans-114"/>
     <use x="298.884766" xlink:href="#DejaVuSans-103"/>
     <use x="362.361328" xlink:href="#DejaVuSans-101"/>
     <use x="423.884766" xlink:href="#DejaVuSans-116"/>
     <use x="463.09375" xlink:href="#DejaVuSans-115"/>
     <use x="515.193359" xlink:href="#DejaVuSans-58"/>
     <use x="548.884766" xlink:href="#DejaVuSans-32"/>
     <use x="580.671875" xlink:href="#DejaVuSans-49"/>
     <use x="644.294922" xlink:href="#DejaVuSans-48"/>
     <use x="707.917969" xlink:href="#DejaVuSans-48"/>
     <use x="771.541016" xlink:href="#DejaVuSans-46"/>
     <use x="803.328125" xlink:href="#DejaVuSans-46"/>
     <use x="835.115234" xlink:href="#DejaVuSans-49"/>
     <use x="898.738281" xlink:href="#DejaVuSans-101"/>
     <use x="960.261719" xlink:href="#DejaVuSans-45"/>
     <use x="996.345703" xlink:href="#DejaVuSans-48"/>
     <use x="1059.96875" xlink:href="#DejaVuSans-56"/>
    </g>
    <!-- 15 instances -->
    <g transform="translate(60.41088 37.004824)scale(0.102 -0.102)">
     <use xlink:href="#DejaVuSans-49"/>
     <use x="63.623047" xlink:href="#DejaVuSans-53"/>
     <use x="127.246094" xlink:href="#DejaVuSans-32"/>
     <use x="159.033203" xlink:href="#DejaVuSans-105"/>
     <use x="186.816406" xlink:href="#DejaVuSans-110"/>
     <use x="250.195312" xlink:href="#DejaVuSans-115"/>
     <use x="302.294922" xlink:href="#DejaVuSans-116"/>
     <use x="341.503906" xlink:href="#DejaVuSans-97"/>
     <use x="402.783203" xlink:href="#DejaVuSans-110"/>
     <use x="466.162109" xlink:href="#DejaVuSans-99"/>
     <use x="521.142578" xlink:href="#DejaVuSans-101"/>
     <use x="582.666016" xlink:href="#DejaVuSans-115"/>
    </g>
   </g>
   <g id="text_17">
    <!-- v2.4 -->
    <g style="fill:#808080;" transform="translate(187.233062 293.909432)scale(0.1 -0.1)">
     <use xlink:href="#DejaVuSans-118"/>
     <use x="59.179688" xlink:href="#DejaVuSans-50"/>
     <use x="122.802734" xlink:href="#DejaVuSans-46"/>
     <use x="154.589844" xlink:href="#DejaVuSans-52"/>
    </g>
   </g>
  </g>
 </g>
 <defs>
  <clipPath id="p12b7c87211">
   <rect height="295.488" width="281.088" x="57.6" y="3.456"/>
  </clipPath>
 </defs>
</svg>
