<?xml version="1.0" encoding="utf-8" standalone="no"?>
<!DOCTYPE svg PUBLIC "-//W3C//DTD SVG 1.1//EN"
  "http://www.w3.org/Graphics/SVG/1.1/DTD/svg11.dtd">
<!-- Created with matplotlib (https://matplotlib.org/) -->
<svg height="345.6pt" version="1.1" viewBox="0 0 460.8 345.6" width="460.8pt" xmlns="http://www.w3.org/2000/svg" xmlns:xlink="http://www.w3.org/1999/xlink">
 <metadata>
  <rdf:RDF xmlns:cc="http://creativecommons.org/ns#" xmlns:dc="http://purl.org/dc/elements/1.1/" xmlns:rdf="http://www.w3.org/1999/02/22-rdf-syntax-ns#">
   <cc:Work>
    <dc:type rdf:resource="http://purl.org/dc/dcmitype/StillImage"/>
    <dc:date>2021-05-01T17:09:02.779682</dc:date>
    <dc:format>image/svg+xml</dc:format>
    <dc:creator>
     <cc:Agent>
      <dc:title>Matplotlib v3.3.2, https://matplotlib.org/</dc:title>
     </cc:Agent>
    </dc:creator>
   </cc:Work>
  </rdf:RDF>
 </metadata>
 <defs>
  <style type="text/css">*{stroke-linecap:butt;stroke-linejoin:round;}</style>
 </defs>
 <g id="figure_1">
  <g id="patch_1">
   <path d="M 0 345.6 
L 460.8 345.6 
L 460.8 0 
L 0 0 
z
" style="fill:#ffffff;"/>
  </g>
  <g id="axes_1">
   <g id="patch_2">
    <path d="M 57.6 298.944 
L 338.688 298.944 
L 338.688 3.456 
L 57.6 3.456 
z
" style="fill:#ffffff;"/>
   </g>
   <g id="line2d_1">
    <path d="M 70.329998 298.944 
L 70.329998 240.431525 
L 70.745238 240.431525 
L 70.745238 239.284221 
L 70.949209 239.284221 
L 70.949209 238.136918 
L 71.35013 238.136918 
L 71.35013 236.989614 
L 71.547186 236.989614 
L 71.547186 235.842311 
L 72.125336 235.842311 
L 72.125336 234.695008 
L 73.227131 234.695008 
L 73.227131 233.547704 
L 73.579452 233.547704 
L 73.579452 232.400401 
L 74.263433 232.400401 
L 74.263433 231.253097 
L 75.241593 231.253097 
L 75.241593 230.105794 
L 75.399415 230.105794 
L 75.399415 228.95849 
L 76.16779 228.95849 
L 76.16779 227.811187 
L 76.317484 227.811187 
L 76.317484 225.51658 
L 76.465904 225.51658 
L 76.465904 224.369277 
L 76.613072 224.369277 
L 76.613072 223.221973 
L 76.759008 223.221973 
L 76.759008 218.632759 
L 76.903734 218.632759 
L 76.903734 181.91905 
L 108.294265 181.91905 
L 108.294265 180.771746 
L 109.690152 180.771746 
L 109.799764 164.709498 
L 109.821604 164.709498 
L 109.930396 127.995788 
L 110.081574 127.995788 
L 110.081574 126.848485 
L 110.464402 126.848485 
L 110.464402 125.701181 
L 112.242812 125.701181 
L 112.242812 124.553878 
L 114.368483 124.553878 
L 114.368483 123.406574 
L 116.739166 123.406574 
L 116.739166 122.259271 
L 143.044063 122.259271 
L 143.044063 121.111967 
L 145.921099 121.111967 
L 145.921099 119.964664 
L 148.015498 119.964664 
L 148.015498 118.817361 
L 150.546047 118.817361 
L 150.546047 117.670057 
L 152.212989 117.670057 
L 152.212989 116.522754 
L 155.117428 116.522754 
L 155.117428 115.37545 
L 156.222706 115.37545 
L 156.222706 114.228147 
L 159.326836 114.228147 
L 159.326836 113.080843 
L 161.137157 113.080843 
L 161.137157 111.93354 
L 161.562388 111.93354 
L 161.673235 87.840168 
L 161.689969 87.840168 
L 161.793361 22.443872 
L 161.805549 22.443872 
L 161.812194 16.707355 
L 196.594642 16.707355 
L 196.595094 14.412748 
L 212.15102 14.412748 
L 212.151082 10.970838 
L 225.744553 10.970838 
L 225.746224 6.381624 
L 338.688 6.381624 
L 338.688 6.381624 
" style="fill:none;stroke:#f5deb3;stroke-linecap:square;stroke-width:4;"/>
   </g>
   <g id="line2d_2">
    <defs>
     <path d="M -0 7.778175 
L 7.778175 0 
L 0 -7.778175 
L -7.778175 -0 
z
" id="me3a3e69f92" style="stroke:#f5deb3;stroke-linejoin:miter;stroke-width:1.5;"/>
    </defs>
    <g>
     <use style="fill:#f5deb3;stroke:#f5deb3;stroke-linejoin:miter;stroke-width:1.5;" x="76.903734" xlink:href="#me3a3e69f92" y="218.632759"/>
     <use style="fill:#f5deb3;stroke:#f5deb3;stroke-linejoin:miter;stroke-width:1.5;" x="161.633008" xlink:href="#me3a3e69f92" y="105.049719"/>
     <use style="fill:#f5deb3;stroke:#f5deb3;stroke-linejoin:miter;stroke-width:1.5;" x="225.746224" xlink:href="#me3a3e69f92" y="7.528927"/>
     <use style="fill:#f5deb3;stroke:#f5deb3;stroke-linejoin:miter;stroke-width:1.5;" x="225.746224" xlink:href="#me3a3e69f92" y="6.381624"/>
     <use style="fill:#f5deb3;stroke:#f5deb3;stroke-linejoin:miter;stroke-width:1.5;" x="338.688" xlink:href="#me3a3e69f92" y="6.381624"/>
    </g>
   </g>
   <g id="line2d_3">
    <path style="fill:none;stroke:#f5deb3;stroke-linecap:square;stroke-width:4;"/>
    <g/>
   </g>
   <g id="line2d_4">
    <path d="M 338.688 6.381624 
L 369.60768 12.232871 
" style="fill:none;stroke:#f5deb3;stroke-linecap:square;stroke-width:4;"/>
    <g>
     <use style="fill:#f5deb3;stroke:#f5deb3;stroke-linejoin:miter;stroke-width:1.5;" x="338.688" xlink:href="#me3a3e69f92" y="6.381624"/>
     <use style="fill:#f5deb3;stroke:#f5deb3;stroke-linejoin:miter;stroke-width:1.5;" x="369.60768" xlink:href="#me3a3e69f92" y="12.232871"/>
    </g>
   </g>
   <g id="matplotlib.axis_1">
    <g id="xtick_1">
     <g id="line2d_5">
      <path clip-path="url(#p1c2bfa16e9)" d="M 57.6 298.944 
L 57.6 3.456 
" style="fill:none;stroke:#b0b0b0;stroke-linecap:square;stroke-width:0.8;"/>
     </g>
     <g id="line2d_6">
      <defs>
       <path d="M 0 0 
L 0 3.5 
" id="ma72f059ad1" style="stroke:#000000;stroke-width:0.8;"/>
      </defs>
      <g>
       <use style="stroke:#000000;stroke-width:0.8;" x="57.6" xlink:href="#ma72f059ad1" y="298.944"/>
      </g>
     </g>
     <g id="text_1">
      <!-- 0 -->
      <g transform="translate(51.2375 321.140875)scale(0.2 -0.2)">
       <defs>
        <path d="M 31.78125 66.40625 
Q 24.171875 66.40625 20.328125 58.90625 
Q 16.5 51.421875 16.5 36.375 
Q 16.5 21.390625 20.328125 13.890625 
Q 24.171875 6.390625 31.78125 6.390625 
Q 39.453125 6.390625 43.28125 13.890625 
Q 47.125 21.390625 47.125 36.375 
Q 47.125 51.421875 43.28125 58.90625 
Q 39.453125 66.40625 31.78125 66.40625 
z
M 31.78125 74.21875 
Q 44.046875 74.21875 50.515625 64.515625 
Q 56.984375 54.828125 56.984375 36.375 
Q 56.984375 17.96875 50.515625 8.265625 
Q 44.046875 -1.421875 31.78125 -1.421875 
Q 19.53125 -1.421875 13.0625 8.265625 
Q 6.59375 17.96875 6.59375 36.375 
Q 6.59375 54.828125 13.0625 64.515625 
Q 19.53125 74.21875 31.78125 74.21875 
z
" id="DejaVuSans-48"/>
       </defs>
       <use xlink:href="#DejaVuSans-48"/>
      </g>
     </g>
    </g>
    <g id="xtick_2">
     <g id="line2d_7">
      <path clip-path="url(#p1c2bfa16e9)" d="M 137.910857 298.944 
L 137.910857 3.456 
" style="fill:none;stroke:#b0b0b0;stroke-linecap:square;stroke-width:0.8;"/>
     </g>
     <g id="line2d_8">
      <g>
       <use style="stroke:#000000;stroke-width:0.8;" x="137.910857" xlink:href="#ma72f059ad1" y="298.944"/>
      </g>
     </g>
     <g id="text_2">
      <!-- 2 -->
      <g transform="translate(131.548357 321.140875)scale(0.2 -0.2)">
       <defs>
        <path d="M 19.1875 8.296875 
L 53.609375 8.296875 
L 53.609375 0 
L 7.328125 0 
L 7.328125 8.296875 
Q 12.9375 14.109375 22.625 23.890625 
Q 32.328125 33.6875 34.8125 36.53125 
Q 39.546875 41.84375 41.421875 45.53125 
Q 43.3125 49.21875 43.3125 52.78125 
Q 43.3125 58.59375 39.234375 62.25 
Q 35.15625 65.921875 28.609375 65.921875 
Q 23.96875 65.921875 18.8125 64.3125 
Q 13.671875 62.703125 7.8125 59.421875 
L 7.8125 69.390625 
Q 13.765625 71.78125 18.9375 73 
Q 24.125 74.21875 28.421875 74.21875 
Q 39.75 74.21875 46.484375 68.546875 
Q 53.21875 62.890625 53.21875 53.421875 
Q 53.21875 48.921875 51.53125 44.890625 
Q 49.859375 40.875 45.40625 35.40625 
Q 44.1875 33.984375 37.640625 27.21875 
Q 31.109375 20.453125 19.1875 8.296875 
z
" id="DejaVuSans-50"/>
       </defs>
       <use xlink:href="#DejaVuSans-50"/>
      </g>
     </g>
    </g>
    <g id="xtick_3">
     <g id="line2d_9">
      <path clip-path="url(#p1c2bfa16e9)" d="M 218.221714 298.944 
L 218.221714 3.456 
" style="fill:none;stroke:#b0b0b0;stroke-linecap:square;stroke-width:0.8;"/>
     </g>
     <g id="line2d_10">
      <g>
       <use style="stroke:#000000;stroke-width:0.8;" x="218.221714" xlink:href="#ma72f059ad1" y="298.944"/>
      </g>
     </g>
     <g id="text_3">
      <!-- 4 -->
      <g transform="translate(211.859214 321.140875)scale(0.2 -0.2)">
       <defs>
        <path d="M 37.796875 64.3125 
L 12.890625 25.390625 
L 37.796875 25.390625 
z
M 35.203125 72.90625 
L 47.609375 72.90625 
L 47.609375 25.390625 
L 58.015625 25.390625 
L 58.015625 17.1875 
L 47.609375 17.1875 
L 47.609375 0 
L 37.796875 0 
L 37.796875 17.1875 
L 4.890625 17.1875 
L 4.890625 26.703125 
z
" id="DejaVuSans-52"/>
       </defs>
       <use xlink:href="#DejaVuSans-52"/>
      </g>
     </g>
    </g>
    <g id="xtick_4">
     <g id="line2d_11">
      <path clip-path="url(#p1c2bfa16e9)" d="M 298.532571 298.944 
L 298.532571 3.456 
" style="fill:none;stroke:#b0b0b0;stroke-linecap:square;stroke-width:0.8;"/>
     </g>
     <g id="line2d_12">
      <g>
       <use style="stroke:#000000;stroke-width:0.8;" x="298.532571" xlink:href="#ma72f059ad1" y="298.944"/>
      </g>
     </g>
     <g id="text_4">
      <!-- 6 -->
      <g transform="translate(292.170071 321.140875)scale(0.2 -0.2)">
       <defs>
        <path d="M 33.015625 40.375 
Q 26.375 40.375 22.484375 35.828125 
Q 18.609375 31.296875 18.609375 23.390625 
Q 18.609375 15.53125 22.484375 10.953125 
Q 26.375 6.390625 33.015625 6.390625 
Q 39.65625 6.390625 43.53125 10.953125 
Q 47.40625 15.53125 47.40625 23.390625 
Q 47.40625 31.296875 43.53125 35.828125 
Q 39.65625 40.375 33.015625 40.375 
z
M 52.59375 71.296875 
L 52.59375 62.3125 
Q 48.875 64.0625 45.09375 64.984375 
Q 41.3125 65.921875 37.59375 65.921875 
Q 27.828125 65.921875 22.671875 59.328125 
Q 17.53125 52.734375 16.796875 39.40625 
Q 19.671875 43.65625 24.015625 45.921875 
Q 28.375 48.1875 33.59375 48.1875 
Q 44.578125 48.1875 50.953125 41.515625 
Q 57.328125 34.859375 57.328125 23.390625 
Q 57.328125 12.15625 50.6875 5.359375 
Q 44.046875 -1.421875 33.015625 -1.421875 
Q 20.359375 -1.421875 13.671875 8.265625 
Q 6.984375 17.96875 6.984375 36.375 
Q 6.984375 53.65625 15.1875 63.9375 
Q 23.390625 74.21875 37.203125 74.21875 
Q 40.921875 74.21875 44.703125 73.484375 
Q 48.484375 72.75 52.59375 71.296875 
z
" id="DejaVuSans-54"/>
       </defs>
       <use xlink:href="#DejaVuSans-54"/>
      </g>
     </g>
    </g>
    <g id="xtick_5">
     <g id="line2d_13">
      <path clip-path="url(#p1c2bfa16e9)" d="M 97.755429 298.944 
L 97.755429 3.456 
" style="fill:none;stroke:#b0b0b0;stroke-linecap:square;stroke-width:0.8;"/>
     </g>
     <g id="line2d_14">
      <defs>
       <path d="M 0 0 
L 0 2 
" id="m4632e0c88e" style="stroke:#000000;stroke-width:0.6;"/>
      </defs>
      <g>
       <use style="stroke:#000000;stroke-width:0.6;" x="97.755429" xlink:href="#m4632e0c88e" y="298.944"/>
      </g>
     </g>
    </g>
    <g id="xtick_6">
     <g id="line2d_15">
      <path clip-path="url(#p1c2bfa16e9)" d="M 178.066286 298.944 
L 178.066286 3.456 
" style="fill:none;stroke:#b0b0b0;stroke-linecap:square;stroke-width:0.8;"/>
     </g>
     <g id="line2d_16">
      <g>
       <use style="stroke:#000000;stroke-width:0.6;" x="178.066286" xlink:href="#m4632e0c88e" y="298.944"/>
      </g>
     </g>
    </g>
    <g id="xtick_7">
     <g id="line2d_17">
      <path clip-path="url(#p1c2bfa16e9)" d="M 258.377143 298.944 
L 258.377143 3.456 
" style="fill:none;stroke:#b0b0b0;stroke-linecap:square;stroke-width:0.8;"/>
     </g>
     <g id="line2d_18">
      <g>
       <use style="stroke:#000000;stroke-width:0.6;" x="258.377143" xlink:href="#m4632e0c88e" y="298.944"/>
      </g>
     </g>
    </g>
    <g id="xtick_8">
     <g id="line2d_19">
      <path clip-path="url(#p1c2bfa16e9)" d="M 338.688 298.944 
L 338.688 3.456 
" style="fill:none;stroke:#b0b0b0;stroke-linecap:square;stroke-width:0.8;"/>
     </g>
     <g id="line2d_20">
      <g>
       <use style="stroke:#000000;stroke-width:0.6;" x="338.688" xlink:href="#m4632e0c88e" y="298.944"/>
      </g>
     </g>
    </g>
    <g id="text_5">
     <!-- log10(# f-evals / dimension) -->
     <g transform="translate(77.764078 342.217594)scale(0.17 -0.17)">
      <defs>
       <path d="M 9.421875 75.984375 
L 18.40625 75.984375 
L 18.40625 0 
L 9.421875 0 
z
" id="DejaVuSans-108"/>
       <path d="M 30.609375 48.390625 
Q 23.390625 48.390625 19.1875 42.75 
Q 14.984375 37.109375 14.984375 27.296875 
Q 14.984375 17.484375 19.15625 11.84375 
Q 23.34375 6.203125 30.609375 6.203125 
Q 37.796875 6.203125 41.984375 11.859375 
Q 46.1875 17.53125 46.1875 27.296875 
Q 46.1875 37.015625 41.984375 42.703125 
Q 37.796875 48.390625 30.609375 48.390625 
z
M 30.609375 56 
Q 42.328125 56 49.015625 48.375 
Q 55.71875 40.765625 55.71875 27.296875 
Q 55.71875 13.875 49.015625 6.21875 
Q 42.328125 -1.421875 30.609375 -1.421875 
Q 18.84375 -1.421875 12.171875 6.21875 
Q 5.515625 13.875 5.515625 27.296875 
Q 5.515625 40.765625 12.171875 48.375 
Q 18.84375 56 30.609375 56 
z
" id="DejaVuSans-111"/>
       <path d="M 45.40625 27.984375 
Q 45.40625 37.75 41.375 43.109375 
Q 37.359375 48.484375 30.078125 48.484375 
Q 22.859375 48.484375 18.828125 43.109375 
Q 14.796875 37.75 14.796875 27.984375 
Q 14.796875 18.265625 18.828125 12.890625 
Q 22.859375 7.515625 30.078125 7.515625 
Q 37.359375 7.515625 41.375 12.890625 
Q 45.40625 18.265625 45.40625 27.984375 
z
M 54.390625 6.78125 
Q 54.390625 -7.171875 48.1875 -13.984375 
Q 42 -20.796875 29.203125 -20.796875 
Q 24.46875 -20.796875 20.265625 -20.09375 
Q 16.0625 -19.390625 12.109375 -17.921875 
L 12.109375 -9.1875 
Q 16.0625 -11.328125 19.921875 -12.34375 
Q 23.78125 -13.375 27.78125 -13.375 
Q 36.625 -13.375 41.015625 -8.765625 
Q 45.40625 -4.15625 45.40625 5.171875 
L 45.40625 9.625 
Q 42.625 4.78125 38.28125 2.390625 
Q 33.9375 0 27.875 0 
Q 17.828125 0 11.671875 7.65625 
Q 5.515625 15.328125 5.515625 27.984375 
Q 5.515625 40.671875 11.671875 48.328125 
Q 17.828125 56 27.875 56 
Q 33.9375 56 38.28125 53.609375 
Q 42.625 51.21875 45.40625 46.390625 
L 45.40625 54.6875 
L 54.390625 54.6875 
z
" id="DejaVuSans-103"/>
       <path d="M 12.40625 8.296875 
L 28.515625 8.296875 
L 28.515625 63.921875 
L 10.984375 60.40625 
L 10.984375 69.390625 
L 28.421875 72.90625 
L 38.28125 72.90625 
L 38.28125 8.296875 
L 54.390625 8.296875 
L 54.390625 0 
L 12.40625 0 
z
" id="DejaVuSans-49"/>
       <path d="M 31 75.875 
Q 24.46875 64.65625 21.28125 53.65625 
Q 18.109375 42.671875 18.109375 31.390625 
Q 18.109375 20.125 21.3125 9.0625 
Q 24.515625 -2 31 -13.1875 
L 23.1875 -13.1875 
Q 15.875 -1.703125 12.234375 9.375 
Q 8.59375 20.453125 8.59375 31.390625 
Q 8.59375 42.28125 12.203125 53.3125 
Q 15.828125 64.359375 23.1875 75.875 
z
" id="DejaVuSans-40"/>
       <path d="M 51.125 44 
L 36.921875 44 
L 32.8125 27.6875 
L 47.125 27.6875 
z
M 43.796875 71.78125 
L 38.71875 51.515625 
L 52.984375 51.515625 
L 58.109375 71.78125 
L 65.921875 71.78125 
L 60.890625 51.515625 
L 76.125 51.515625 
L 76.125 44 
L 58.984375 44 
L 54.984375 27.6875 
L 70.515625 27.6875 
L 70.515625 20.21875 
L 53.078125 20.21875 
L 48 0 
L 40.1875 0 
L 45.21875 20.21875 
L 30.90625 20.21875 
L 25.875 0 
L 18.015625 0 
L 23.09375 20.21875 
L 7.71875 20.21875 
L 7.71875 27.6875 
L 24.90625 27.6875 
L 29 44 
L 13.28125 44 
L 13.28125 51.515625 
L 30.90625 51.515625 
L 35.890625 71.78125 
z
" id="DejaVuSans-35"/>
       <path id="DejaVuSans-32"/>
       <path d="M 37.109375 75.984375 
L 37.109375 68.5 
L 28.515625 68.5 
Q 23.6875 68.5 21.796875 66.546875 
Q 19.921875 64.59375 19.921875 59.515625 
L 19.921875 54.6875 
L 34.71875 54.6875 
L 34.71875 47.703125 
L 19.921875 47.703125 
L 19.921875 0 
L 10.890625 0 
L 10.890625 47.703125 
L 2.296875 47.703125 
L 2.296875 54.6875 
L 10.890625 54.6875 
L 10.890625 58.5 
Q 10.890625 67.625 15.140625 71.796875 
Q 19.390625 75.984375 28.609375 75.984375 
z
" id="DejaVuSans-102"/>
       <path d="M 4.890625 31.390625 
L 31.203125 31.390625 
L 31.203125 23.390625 
L 4.890625 23.390625 
z
" id="DejaVuSans-45"/>
       <path d="M 56.203125 29.59375 
L 56.203125 25.203125 
L 14.890625 25.203125 
Q 15.484375 15.921875 20.484375 11.0625 
Q 25.484375 6.203125 34.421875 6.203125 
Q 39.59375 6.203125 44.453125 7.46875 
Q 49.3125 8.734375 54.109375 11.28125 
L 54.109375 2.78125 
Q 49.265625 0.734375 44.1875 -0.34375 
Q 39.109375 -1.421875 33.890625 -1.421875 
Q 20.796875 -1.421875 13.15625 6.1875 
Q 5.515625 13.8125 5.515625 26.8125 
Q 5.515625 40.234375 12.765625 48.109375 
Q 20.015625 56 32.328125 56 
Q 43.359375 56 49.78125 48.890625 
Q 56.203125 41.796875 56.203125 29.59375 
z
M 47.21875 32.234375 
Q 47.125 39.59375 43.09375 43.984375 
Q 39.0625 48.390625 32.421875 48.390625 
Q 24.90625 48.390625 20.390625 44.140625 
Q 15.875 39.890625 15.1875 32.171875 
z
" id="DejaVuSans-101"/>
       <path d="M 2.984375 54.6875 
L 12.5 54.6875 
L 29.59375 8.796875 
L 46.6875 54.6875 
L 56.203125 54.6875 
L 35.6875 0 
L 23.484375 0 
z
" id="DejaVuSans-118"/>
       <path d="M 34.28125 27.484375 
Q 23.390625 27.484375 19.1875 25 
Q 14.984375 22.515625 14.984375 16.5 
Q 14.984375 11.71875 18.140625 8.90625 
Q 21.296875 6.109375 26.703125 6.109375 
Q 34.1875 6.109375 38.703125 11.40625 
Q 43.21875 16.703125 43.21875 25.484375 
L 43.21875 27.484375 
z
M 52.203125 31.203125 
L 52.203125 0 
L 43.21875 0 
L 43.21875 8.296875 
Q 40.140625 3.328125 35.546875 0.953125 
Q 30.953125 -1.421875 24.3125 -1.421875 
Q 15.921875 -1.421875 10.953125 3.296875 
Q 6 8.015625 6 15.921875 
Q 6 25.140625 12.171875 29.828125 
Q 18.359375 34.515625 30.609375 34.515625 
L 43.21875 34.515625 
L 43.21875 35.40625 
Q 43.21875 41.609375 39.140625 45 
Q 35.0625 48.390625 27.6875 48.390625 
Q 23 48.390625 18.546875 47.265625 
Q 14.109375 46.140625 10.015625 43.890625 
L 10.015625 52.203125 
Q 14.9375 54.109375 19.578125 55.046875 
Q 24.21875 56 28.609375 56 
Q 40.484375 56 46.34375 49.84375 
Q 52.203125 43.703125 52.203125 31.203125 
z
" id="DejaVuSans-97"/>
       <path d="M 44.28125 53.078125 
L 44.28125 44.578125 
Q 40.484375 46.53125 36.375 47.5 
Q 32.28125 48.484375 27.875 48.484375 
Q 21.1875 48.484375 17.84375 46.4375 
Q 14.5 44.390625 14.5 40.28125 
Q 14.5 37.15625 16.890625 35.375 
Q 19.28125 33.59375 26.515625 31.984375 
L 29.59375 31.296875 
Q 39.15625 29.25 43.1875 25.515625 
Q 47.21875 21.78125 47.21875 15.09375 
Q 47.21875 7.46875 41.1875 3.015625 
Q 35.15625 -1.421875 24.609375 -1.421875 
Q 20.21875 -1.421875 15.453125 -0.5625 
Q 10.6875 0.296875 5.421875 2 
L 5.421875 11.28125 
Q 10.40625 8.6875 15.234375 7.390625 
Q 20.0625 6.109375 24.8125 6.109375 
Q 31.15625 6.109375 34.5625 8.28125 
Q 37.984375 10.453125 37.984375 14.40625 
Q 37.984375 18.0625 35.515625 20.015625 
Q 33.0625 21.96875 24.703125 23.78125 
L 21.578125 24.515625 
Q 13.234375 26.265625 9.515625 29.90625 
Q 5.8125 33.546875 5.8125 39.890625 
Q 5.8125 47.609375 11.28125 51.796875 
Q 16.75 56 26.8125 56 
Q 31.78125 56 36.171875 55.265625 
Q 40.578125 54.546875 44.28125 53.078125 
z
" id="DejaVuSans-115"/>
       <path d="M 25.390625 72.90625 
L 33.6875 72.90625 
L 8.296875 -9.28125 
L 0 -9.28125 
z
" id="DejaVuSans-47"/>
       <path d="M 45.40625 46.390625 
L 45.40625 75.984375 
L 54.390625 75.984375 
L 54.390625 0 
L 45.40625 0 
L 45.40625 8.203125 
Q 42.578125 3.328125 38.25 0.953125 
Q 33.9375 -1.421875 27.875 -1.421875 
Q 17.96875 -1.421875 11.734375 6.484375 
Q 5.515625 14.40625 5.515625 27.296875 
Q 5.515625 40.1875 11.734375 48.09375 
Q 17.96875 56 27.875 56 
Q 33.9375 56 38.25 53.625 
Q 42.578125 51.265625 45.40625 46.390625 
z
M 14.796875 27.296875 
Q 14.796875 17.390625 18.875 11.75 
Q 22.953125 6.109375 30.078125 6.109375 
Q 37.203125 6.109375 41.296875 11.75 
Q 45.40625 17.390625 45.40625 27.296875 
Q 45.40625 37.203125 41.296875 42.84375 
Q 37.203125 48.484375 30.078125 48.484375 
Q 22.953125 48.484375 18.875 42.84375 
Q 14.796875 37.203125 14.796875 27.296875 
z
" id="DejaVuSans-100"/>
       <path d="M 9.421875 54.6875 
L 18.40625 54.6875 
L 18.40625 0 
L 9.421875 0 
z
M 9.421875 75.984375 
L 18.40625 75.984375 
L 18.40625 64.59375 
L 9.421875 64.59375 
z
" id="DejaVuSans-105"/>
       <path d="M 52 44.1875 
Q 55.375 50.25 60.0625 53.125 
Q 64.75 56 71.09375 56 
Q 79.640625 56 84.28125 50.015625 
Q 88.921875 44.046875 88.921875 33.015625 
L 88.921875 0 
L 79.890625 0 
L 79.890625 32.71875 
Q 79.890625 40.578125 77.09375 44.375 
Q 74.3125 48.1875 68.609375 48.1875 
Q 61.625 48.1875 57.5625 43.546875 
Q 53.515625 38.921875 53.515625 30.90625 
L 53.515625 0 
L 44.484375 0 
L 44.484375 32.71875 
Q 44.484375 40.625 41.703125 44.40625 
Q 38.921875 48.1875 33.109375 48.1875 
Q 26.21875 48.1875 22.15625 43.53125 
Q 18.109375 38.875 18.109375 30.90625 
L 18.109375 0 
L 9.078125 0 
L 9.078125 54.6875 
L 18.109375 54.6875 
L 18.109375 46.1875 
Q 21.1875 51.21875 25.484375 53.609375 
Q 29.78125 56 35.6875 56 
Q 41.65625 56 45.828125 52.96875 
Q 50 49.953125 52 44.1875 
z
" id="DejaVuSans-109"/>
       <path d="M 54.890625 33.015625 
L 54.890625 0 
L 45.90625 0 
L 45.90625 32.71875 
Q 45.90625 40.484375 42.875 44.328125 
Q 39.84375 48.1875 33.796875 48.1875 
Q 26.515625 48.1875 22.3125 43.546875 
Q 18.109375 38.921875 18.109375 30.90625 
L 18.109375 0 
L 9.078125 0 
L 9.078125 54.6875 
L 18.109375 54.6875 
L 18.109375 46.1875 
Q 21.34375 51.125 25.703125 53.5625 
Q 30.078125 56 35.796875 56 
Q 45.21875 56 50.046875 50.171875 
Q 54.890625 44.34375 54.890625 33.015625 
z
" id="DejaVuSans-110"/>
       <path d="M 8.015625 75.875 
L 15.828125 75.875 
Q 23.140625 64.359375 26.78125 53.3125 
Q 30.421875 42.28125 30.421875 31.390625 
Q 30.421875 20.453125 26.78125 9.375 
Q 23.140625 -1.703125 15.828125 -13.1875 
L 8.015625 -13.1875 
Q 14.5 -2 17.703125 9.0625 
Q 20.90625 20.125 20.90625 31.390625 
Q 20.90625 42.671875 17.703125 53.65625 
Q 14.5 64.65625 8.015625 75.875 
z
" id="DejaVuSans-41"/>
      </defs>
      <use xlink:href="#DejaVuSans-108"/>
      <use x="27.783203" xlink:href="#DejaVuSans-111"/>
      <use x="88.964844" xlink:href="#DejaVuSans-103"/>
      <use x="152.441406" xlink:href="#DejaVuSans-49"/>
      <use x="216.064453" xlink:href="#DejaVuSans-48"/>
      <use x="279.6875" xlink:href="#DejaVuSans-40"/>
      <use x="318.701172" xlink:href="#DejaVuSans-35"/>
      <use x="402.490234" xlink:href="#DejaVuSans-32"/>
      <use x="434.277344" xlink:href="#DejaVuSans-102"/>
      <use x="463.982422" xlink:href="#DejaVuSans-45"/>
      <use x="500.066406" xlink:href="#DejaVuSans-101"/>
      <use x="561.589844" xlink:href="#DejaVuSans-118"/>
      <use x="620.769531" xlink:href="#DejaVuSans-97"/>
      <use x="682.048828" xlink:href="#DejaVuSans-108"/>
      <use x="709.832031" xlink:href="#DejaVuSans-115"/>
      <use x="761.931641" xlink:href="#DejaVuSans-32"/>
      <use x="793.71875" xlink:href="#DejaVuSans-47"/>
      <use x="827.410156" xlink:href="#DejaVuSans-32"/>
      <use x="859.197266" xlink:href="#DejaVuSans-100"/>
      <use x="922.673828" xlink:href="#DejaVuSans-105"/>
      <use x="950.457031" xlink:href="#DejaVuSans-109"/>
      <use x="1047.869141" xlink:href="#DejaVuSans-101"/>
      <use x="1109.392578" xlink:href="#DejaVuSans-110"/>
      <use x="1172.771484" xlink:href="#DejaVuSans-115"/>
      <use x="1224.871094" xlink:href="#DejaVuSans-105"/>
      <use x="1252.654297" xlink:href="#DejaVuSans-111"/>
      <use x="1313.835938" xlink:href="#DejaVuSans-110"/>
      <use x="1377.214844" xlink:href="#DejaVuSans-41"/>
     </g>
    </g>
   </g>
   <g id="matplotlib.axis_2">
    <g id="ytick_1">
     <g id="line2d_21">
      <path clip-path="url(#p1c2bfa16e9)" d="M 57.6 298.944 
L 338.688 298.944 
" style="fill:none;stroke:#b0b0b0;stroke-linecap:square;stroke-width:0.8;"/>
     </g>
     <g id="line2d_22">
      <defs>
       <path d="M 0 0 
L -3.5 0 
" id="md30b5a2797" style="stroke:#000000;stroke-width:0.8;"/>
      </defs>
      <g>
       <use style="stroke:#000000;stroke-width:0.8;" x="57.6" xlink:href="#md30b5a2797" y="298.944"/>
      </g>
     </g>
     <g id="text_6">
      <!-- 0.0 -->
      <g transform="translate(25.155 305.02275)scale(0.16 -0.16)">
       <defs>
        <path d="M 10.6875 12.40625 
L 21 12.40625 
L 21 0 
L 10.6875 0 
z
" id="DejaVuSans-46"/>
       </defs>
       <use xlink:href="#DejaVuSans-48"/>
       <use x="63.623047" xlink:href="#DejaVuSans-46"/>
       <use x="95.410156" xlink:href="#DejaVuSans-48"/>
      </g>
     </g>
    </g>
    <g id="ytick_2">
     <g id="line2d_23">
      <path clip-path="url(#p1c2bfa16e9)" d="M 57.6 240.431525 
L 338.688 240.431525 
" style="fill:none;stroke:#b0b0b0;stroke-linecap:square;stroke-width:0.8;"/>
     </g>
     <g id="line2d_24">
      <g>
       <use style="stroke:#000000;stroke-width:0.8;" x="57.6" xlink:href="#md30b5a2797" y="240.431525"/>
      </g>
     </g>
     <g id="text_7">
      <!-- 0.2 -->
      <g transform="translate(25.155 246.510275)scale(0.16 -0.16)">
       <use xlink:href="#DejaVuSans-48"/>
       <use x="63.623047" xlink:href="#DejaVuSans-46"/>
       <use x="95.410156" xlink:href="#DejaVuSans-50"/>
      </g>
     </g>
    </g>
    <g id="ytick_3">
     <g id="line2d_25">
      <path clip-path="url(#p1c2bfa16e9)" d="M 57.6 181.91905 
L 338.688 181.91905 
" style="fill:none;stroke:#b0b0b0;stroke-linecap:square;stroke-width:0.8;"/>
     </g>
     <g id="line2d_26">
      <g>
       <use style="stroke:#000000;stroke-width:0.8;" x="57.6" xlink:href="#md30b5a2797" y="181.91905"/>
      </g>
     </g>
     <g id="text_8">
      <!-- 0.4 -->
      <g transform="translate(25.155 187.9978)scale(0.16 -0.16)">
       <use xlink:href="#DejaVuSans-48"/>
       <use x="63.623047" xlink:href="#DejaVuSans-46"/>
       <use x="95.410156" xlink:href="#DejaVuSans-52"/>
      </g>
     </g>
    </g>
    <g id="ytick_4">
     <g id="line2d_27">
      <path clip-path="url(#p1c2bfa16e9)" d="M 57.6 123.406574 
L 338.688 123.406574 
" style="fill:none;stroke:#b0b0b0;stroke-linecap:square;stroke-width:0.8;"/>
     </g>
     <g id="line2d_28">
      <g>
       <use style="stroke:#000000;stroke-width:0.8;" x="57.6" xlink:href="#md30b5a2797" y="123.406574"/>
      </g>
     </g>
     <g id="text_9">
      <!-- 0.6 -->
      <g transform="translate(25.155 129.485324)scale(0.16 -0.16)">
       <use xlink:href="#DejaVuSans-48"/>
       <use x="63.623047" xlink:href="#DejaVuSans-46"/>
       <use x="95.410156" xlink:href="#DejaVuSans-54"/>
      </g>
     </g>
    </g>
    <g id="ytick_5">
     <g id="line2d_29">
      <path clip-path="url(#p1c2bfa16e9)" d="M 57.6 64.894099 
L 338.688 64.894099 
" style="fill:none;stroke:#b0b0b0;stroke-linecap:square;stroke-width:0.8;"/>
     </g>
     <g id="line2d_30">
      <g>
       <use style="stroke:#000000;stroke-width:0.8;" x="57.6" xlink:href="#md30b5a2797" y="64.894099"/>
      </g>
     </g>
     <g id="text_10">
      <!-- 0.8 -->
      <g transform="translate(25.155 70.972849)scale(0.16 -0.16)">
       <defs>
        <path d="M 31.78125 34.625 
Q 24.75 34.625 20.71875 30.859375 
Q 16.703125 27.09375 16.703125 20.515625 
Q 16.703125 13.921875 20.71875 10.15625 
Q 24.75 6.390625 31.78125 6.390625 
Q 38.8125 6.390625 42.859375 10.171875 
Q 46.921875 13.96875 46.921875 20.515625 
Q 46.921875 27.09375 42.890625 30.859375 
Q 38.875 34.625 31.78125 34.625 
z
M 21.921875 38.8125 
Q 15.578125 40.375 12.03125 44.71875 
Q 8.5 49.078125 8.5 55.328125 
Q 8.5 64.0625 14.71875 69.140625 
Q 20.953125 74.21875 31.78125 74.21875 
Q 42.671875 74.21875 48.875 69.140625 
Q 55.078125 64.0625 55.078125 55.328125 
Q 55.078125 49.078125 51.53125 44.71875 
Q 48 40.375 41.703125 38.8125 
Q 48.828125 37.15625 52.796875 32.3125 
Q 56.78125 27.484375 56.78125 20.515625 
Q 56.78125 9.90625 50.3125 4.234375 
Q 43.84375 -1.421875 31.78125 -1.421875 
Q 19.734375 -1.421875 13.25 4.234375 
Q 6.78125 9.90625 6.78125 20.515625 
Q 6.78125 27.484375 10.78125 32.3125 
Q 14.796875 37.15625 21.921875 38.8125 
z
M 18.3125 54.390625 
Q 18.3125 48.734375 21.84375 45.5625 
Q 25.390625 42.390625 31.78125 42.390625 
Q 38.140625 42.390625 41.71875 45.5625 
Q 45.3125 48.734375 45.3125 54.390625 
Q 45.3125 60.0625 41.71875 63.234375 
Q 38.140625 66.40625 31.78125 66.40625 
Q 25.390625 66.40625 21.84375 63.234375 
Q 18.3125 60.0625 18.3125 54.390625 
z
" id="DejaVuSans-56"/>
       </defs>
       <use xlink:href="#DejaVuSans-48"/>
       <use x="63.623047" xlink:href="#DejaVuSans-46"/>
       <use x="95.410156" xlink:href="#DejaVuSans-56"/>
      </g>
     </g>
    </g>
    <g id="ytick_6">
     <g id="line2d_31">
      <path clip-path="url(#p1c2bfa16e9)" d="M 57.6 6.381624 
L 338.688 6.381624 
" style="fill:none;stroke:#b0b0b0;stroke-linecap:square;stroke-width:0.8;"/>
     </g>
     <g id="line2d_32">
      <g>
       <use style="stroke:#000000;stroke-width:0.8;" x="57.6" xlink:href="#md30b5a2797" y="6.381624"/>
      </g>
     </g>
     <g id="text_11">
      <!-- 1.0 -->
      <g transform="translate(25.155 12.460374)scale(0.16 -0.16)">
       <use xlink:href="#DejaVuSans-49"/>
       <use x="63.623047" xlink:href="#DejaVuSans-46"/>
       <use x="95.410156" xlink:href="#DejaVuSans-48"/>
      </g>
     </g>
    </g>
    <g id="text_12">
     <!-- Fraction of function,target pairs -->
     <g transform="translate(17.619531 285.585)rotate(-90)scale(0.17 -0.17)">
      <defs>
       <path d="M 9.8125 72.90625 
L 51.703125 72.90625 
L 51.703125 64.59375 
L 19.671875 64.59375 
L 19.671875 43.109375 
L 48.578125 43.109375 
L 48.578125 34.8125 
L 19.671875 34.8125 
L 19.671875 0 
L 9.8125 0 
z
" id="DejaVuSans-70"/>
       <path d="M 41.109375 46.296875 
Q 39.59375 47.171875 37.8125 47.578125 
Q 36.03125 48 33.890625 48 
Q 26.265625 48 22.1875 43.046875 
Q 18.109375 38.09375 18.109375 28.8125 
L 18.109375 0 
L 9.078125 0 
L 9.078125 54.6875 
L 18.109375 54.6875 
L 18.109375 46.1875 
Q 20.953125 51.171875 25.484375 53.578125 
Q 30.03125 56 36.53125 56 
Q 37.453125 56 38.578125 55.875 
Q 39.703125 55.765625 41.0625 55.515625 
z
" id="DejaVuSans-114"/>
       <path d="M 48.78125 52.59375 
L 48.78125 44.1875 
Q 44.96875 46.296875 41.140625 47.34375 
Q 37.3125 48.390625 33.40625 48.390625 
Q 24.65625 48.390625 19.8125 42.84375 
Q 14.984375 37.3125 14.984375 27.296875 
Q 14.984375 17.28125 19.8125 11.734375 
Q 24.65625 6.203125 33.40625 6.203125 
Q 37.3125 6.203125 41.140625 7.25 
Q 44.96875 8.296875 48.78125 10.40625 
L 48.78125 2.09375 
Q 45.015625 0.34375 40.984375 -0.53125 
Q 36.96875 -1.421875 32.421875 -1.421875 
Q 20.0625 -1.421875 12.78125 6.34375 
Q 5.515625 14.109375 5.515625 27.296875 
Q 5.515625 40.671875 12.859375 48.328125 
Q 20.21875 56 33.015625 56 
Q 37.15625 56 41.109375 55.140625 
Q 45.0625 54.296875 48.78125 52.59375 
z
" id="DejaVuSans-99"/>
       <path d="M 18.3125 70.21875 
L 18.3125 54.6875 
L 36.8125 54.6875 
L 36.8125 47.703125 
L 18.3125 47.703125 
L 18.3125 18.015625 
Q 18.3125 11.328125 20.140625 9.421875 
Q 21.96875 7.515625 27.59375 7.515625 
L 36.8125 7.515625 
L 36.8125 0 
L 27.59375 0 
Q 17.1875 0 13.234375 3.875 
Q 9.28125 7.765625 9.28125 18.015625 
L 9.28125 47.703125 
L 2.6875 47.703125 
L 2.6875 54.6875 
L 9.28125 54.6875 
L 9.28125 70.21875 
z
" id="DejaVuSans-116"/>
       <path d="M 8.5 21.578125 
L 8.5 54.6875 
L 17.484375 54.6875 
L 17.484375 21.921875 
Q 17.484375 14.15625 20.5 10.265625 
Q 23.53125 6.390625 29.59375 6.390625 
Q 36.859375 6.390625 41.078125 11.03125 
Q 45.3125 15.671875 45.3125 23.6875 
L 45.3125 54.6875 
L 54.296875 54.6875 
L 54.296875 0 
L 45.3125 0 
L 45.3125 8.40625 
Q 42.046875 3.421875 37.71875 1 
Q 33.40625 -1.421875 27.6875 -1.421875 
Q 18.265625 -1.421875 13.375 4.4375 
Q 8.5 10.296875 8.5 21.578125 
z
M 31.109375 56 
z
" id="DejaVuSans-117"/>
       <path d="M 11.71875 12.40625 
L 22.015625 12.40625 
L 22.015625 4 
L 14.015625 -11.625 
L 7.71875 -11.625 
L 11.71875 4 
z
" id="DejaVuSans-44"/>
       <path d="M 18.109375 8.203125 
L 18.109375 -20.796875 
L 9.078125 -20.796875 
L 9.078125 54.6875 
L 18.109375 54.6875 
L 18.109375 46.390625 
Q 20.953125 51.265625 25.265625 53.625 
Q 29.59375 56 35.59375 56 
Q 45.5625 56 51.78125 48.09375 
Q 58.015625 40.1875 58.015625 27.296875 
Q 58.015625 14.40625 51.78125 6.484375 
Q 45.5625 -1.421875 35.59375 -1.421875 
Q 29.59375 -1.421875 25.265625 0.953125 
Q 20.953125 3.328125 18.109375 8.203125 
z
M 48.6875 27.296875 
Q 48.6875 37.203125 44.609375 42.84375 
Q 40.53125 48.484375 33.40625 48.484375 
Q 26.265625 48.484375 22.1875 42.84375 
Q 18.109375 37.203125 18.109375 27.296875 
Q 18.109375 17.390625 22.1875 11.75 
Q 26.265625 6.109375 33.40625 6.109375 
Q 40.53125 6.109375 44.609375 11.75 
Q 48.6875 17.390625 48.6875 27.296875 
z
" id="DejaVuSans-112"/>
      </defs>
      <use xlink:href="#DejaVuSans-70"/>
      <use x="50.269531" xlink:href="#DejaVuSans-114"/>
      <use x="91.382812" xlink:href="#DejaVuSans-97"/>
      <use x="152.662109" xlink:href="#DejaVuSans-99"/>
      <use x="207.642578" xlink:href="#DejaVuSans-116"/>
      <use x="246.851562" xlink:href="#DejaVuSans-105"/>
      <use x="274.634766" xlink:href="#DejaVuSans-111"/>
      <use x="335.816406" xlink:href="#DejaVuSans-110"/>
      <use x="399.195312" xlink:href="#DejaVuSans-32"/>
      <use x="430.982422" xlink:href="#DejaVuSans-111"/>
      <use x="492.164062" xlink:href="#DejaVuSans-102"/>
      <use x="527.369141" xlink:href="#DejaVuSans-32"/>
      <use x="559.15625" xlink:href="#DejaVuSans-102"/>
      <use x="594.361328" xlink:href="#DejaVuSans-117"/>
      <use x="657.740234" xlink:href="#DejaVuSans-110"/>
      <use x="721.119141" xlink:href="#DejaVuSans-99"/>
      <use x="776.099609" xlink:href="#DejaVuSans-116"/>
      <use x="815.308594" xlink:href="#DejaVuSans-105"/>
      <use x="843.091797" xlink:href="#DejaVuSans-111"/>
      <use x="904.273438" xlink:href="#DejaVuSans-110"/>
      <use x="967.652344" xlink:href="#DejaVuSans-44"/>
      <use x="999.439453" xlink:href="#DejaVuSans-116"/>
      <use x="1038.648438" xlink:href="#DejaVuSans-97"/>
      <use x="1099.927734" xlink:href="#DejaVuSans-114"/>
      <use x="1139.291016" xlink:href="#DejaVuSans-103"/>
      <use x="1202.767578" xlink:href="#DejaVuSans-101"/>
      <use x="1264.291016" xlink:href="#DejaVuSans-116"/>
      <use x="1303.5" xlink:href="#DejaVuSans-32"/>
      <use x="1335.287109" xlink:href="#DejaVuSans-112"/>
      <use x="1398.763672" xlink:href="#DejaVuSans-97"/>
      <use x="1460.042969" xlink:href="#DejaVuSans-105"/>
      <use x="1487.826172" xlink:href="#DejaVuSans-114"/>
      <use x="1528.939453" xlink:href="#DejaVuSans-115"/>
     </g>
    </g>
   </g>
   <g id="line2d_33">
    <defs>
     <path d="M 0 1.5 
C 0.397805 1.5 0.77937 1.341951 1.06066 1.06066 
C 1.341951 0.77937 1.5 0.397805 1.5 0 
C 1.5 -0.397805 1.341951 -0.77937 1.06066 -1.06066 
C 0.77937 -1.341951 0.397805 -1.5 0 -1.5 
C -0.397805 -1.5 -0.77937 -1.341951 -1.06066 -1.06066 
C -1.341951 -0.77937 -1.5 -0.397805 -1.5 0 
C -1.5 0.397805 -1.341951 0.77937 -1.06066 1.06066 
C -0.77937 1.341951 -0.397805 1.5 0 1.5 
z
" id="me2434aa20d" style="stroke:#f5deb3;"/>
    </defs>
    <g>
     <use style="fill:#f5deb3;stroke:#f5deb3;" x="225.746224" xlink:href="#me2434aa20d" y="6.381624"/>
     <use style="fill:#f5deb3;stroke:#f5deb3;" x="225.746224" xlink:href="#me2434aa20d" y="6.381624"/>
    </g>
   </g>
   <g id="line2d_34">
    <defs>
     <path d="M 0 1.5 
C 0.397805 1.5 0.77937 1.341951 1.06066 1.06066 
C 1.341951 0.77937 1.5 0.397805 1.5 0 
C 1.5 -0.397805 1.341951 -0.77937 1.06066 -1.06066 
C 0.77937 -1.341951 0.397805 -1.5 0 -1.5 
C -0.397805 -1.5 -0.77937 -1.341951 -1.06066 -1.06066 
C -1.341951 -0.77937 -1.5 -0.397805 -1.5 0 
C -1.5 0.397805 -1.341951 0.77937 -1.06066 1.06066 
C -0.77937 1.341951 -0.397805 1.5 0 1.5 
z
" id="mda68175427" style="stroke:#000080;"/>
    </defs>
    <g>
     <use style="fill:#000080;stroke:#000080;" x="272.040068" xlink:href="#mda68175427" y="117.670057"/>
     <use style="fill:#000080;stroke:#000080;" x="272.040068" xlink:href="#mda68175427" y="117.670057"/>
    </g>
   </g>
   <g id="line2d_35">
    <path d="M 83.830028 298.944 
L 83.830028 298.82927 
L 84.307847 298.82927 
L 84.307847 298.714539 
L 86.683608 298.714539 
L 86.683608 298.370348 
L 87.643811 298.370348 
L 87.643811 298.140888 
L 88.479841 298.140888 
L 88.479841 298.026157 
L 88.991722 298.026157 
L 88.991722 297.796697 
L 89.628521 297.796697 
L 89.628521 297.681966 
L 89.835723 297.681966 
L 89.835723 297.567236 
L 89.972502 297.567236 
L 89.972502 297.452506 
L 90.175681 297.452506 
L 90.175681 297.337775 
L 91.905025 297.337775 
L 91.965895 297.108315 
L 92.026554 297.108315 
L 92.026554 296.993584 
L 92.207273 296.993584 
L 92.207273 296.878854 
L 92.504372 296.878854 
L 92.504372 296.764123 
L 92.680232 296.764123 
L 92.680232 296.649393 
L 93.083804 296.649393 
L 93.083804 296.419932 
L 93.422441 296.419932 
L 93.422441 296.305202 
L 93.754628 296.305202 
L 93.809382 296.075741 
L 94.026697 296.075741 
L 94.134347 295.73155 
L 94.505975 295.73155 
L 94.505975 295.387359 
L 94.662851 295.387359 
L 94.662851 295.272629 
L 95.226283 295.272629 
L 95.326798 295.043168 
L 95.376839 295.043168 
L 95.376839 294.928438 
L 95.526106 294.928438 
L 95.57558 294.698977 
L 95.674107 294.698977 
L 95.772081 294.354786 
L 95.966392 294.354786 
L 95.966392 294.240056 
L 96.158563 294.240056 
L 96.158563 294.125326 
L 96.348638 294.125326 
L 96.348638 294.010595 
L 96.536665 294.010595 
L 96.536665 293.895865 
L 96.722686 293.895865 
L 96.768882 293.436944 
L 96.952455 293.436944 
L 97.043522 293.207483 
L 97.403108 293.207483 
L 97.403108 293.092752 
L 97.536064 293.092752 
L 97.624141 292.633831 
L 97.755429 292.633831 
L 97.755429 292.519101 
L 97.972068 292.519101 
L 98.057976 292.28964 
L 98.100772 292.28964 
L 98.18605 292.060179 
L 98.397438 292.060179 
L 98.43941 291.715988 
L 98.606294 291.715988 
L 98.647767 291.486528 
L 98.730417 291.486528 
L 98.812678 290.568685 
L 99.016649 290.568685 
L 99.097574 290.339224 
L 99.178125 290.339224 
L 99.178125 290.224494 
L 99.338119 290.224494 
L 99.37789 289.995033 
L 99.457159 289.995033 
L 99.457159 289.880303 
L 99.614626 289.880303 
L 99.653771 289.650842 
L 99.80948 289.650842 
L 99.80948 285.979471 
L 99.963811 285.979471 
L 100.002181 285.63528 
L 100.078669 285.63528 
L 100.116788 285.405819 
L 100.192776 285.405819 
L 100.268435 285.061628 
L 100.381311 285.061628 
L 100.381311 284.946898 
L 100.530685 284.946898 
L 100.530685 284.717437 
L 100.641881 284.717437 
L 100.752373 280.931336 
L 100.934985 280.931336 
L 101.043642 278.292538 
L 101.258944 278.292538 
L 101.294571 274.735897 
L 101.471621 274.735897 
L 101.541941 268.88465 
L 101.681735 268.88465 
L 101.681735 265.328009 
L 101.820418 265.328009 
L 101.820418 261.886099 
L 102.060491 261.886099 
L 102.094519 258.558919 
L 102.196206 258.558919 
L 102.297303 255.920121 
L 102.431195 255.920121 
L 102.431195 255.805391 
L 102.761494 255.805391 
L 102.859376 255.346469 
L 102.956712 255.346469 
L 103.021302 254.887548 
L 103.117741 254.887548 
L 103.117741 254.313896 
L 103.870632 254.313896 
L 103.870632 254.199166 
L 104.084239 254.199166 
L 104.17499 250.642525 
L 104.355088 250.642525 
L 104.355088 247.085885 
L 104.592361 247.085885 
L 104.651178 246.741694 
L 104.971174 246.741694 
L 104.971174 246.626963 
L 105.171792 246.626963 
L 105.22869 236.071772 
L 105.842616 236.071772 
L 105.897371 235.727581 
L 106.195485 235.727581 
L 106.249145 235.49812 
L 106.906317 235.49812 
L 106.906317 235.268659 
L 107.589306 235.268659 
L 107.589306 235.153929 
L 107.90885 235.153929 
L 107.90885 235.039199 
L 108.436627 235.039199 
L 108.436627 234.924468 
L 108.554381 234.924468 
L 108.624653 234.350817 
L 108.717912 234.350817 
L 108.717912 234.236086 
L 109.1995 234.236086 
L 109.1995 234.121356 
L 109.601963 234.121356 
L 109.601963 233.891895 
L 109.777897 233.891895 
L 109.865203 233.662434 
L 110.231452 233.662434 
L 110.231452 233.547704 
L 111.104637 233.547704 
L 111.165366 233.203513 
L 111.525364 233.203513 
L 111.525364 233.088783 
L 111.663381 233.088783 
L 111.663381 232.974052 
L 111.974805 232.974052 
L 111.974805 232.859322 
L 112.412953 232.859322 
L 112.412953 232.744592 
L 112.637255 232.744592 
L 112.637255 232.629861 
L 112.986604 232.629861 
L 113.077387 232.400401 
L 113.167699 232.400401 
L 113.27546 232.17094 
L 113.311233 232.17094 
L 113.329092 231.941479 
L 113.55961 231.941479 
L 113.55961 231.826749 
L 114.045996 231.826749 
L 114.114385 231.253097 
L 114.267288 231.253097 
L 114.267288 231.138367 
L 114.435622 231.138367 
L 114.435622 231.023637 
L 115.285689 231.023637 
L 115.301637 230.794176 
L 115.444518 230.794176 
L 115.444518 230.679446 
L 115.633223 230.679446 
L 115.633223 230.564715 
L 115.819907 230.564715 
L 115.881694 230.105794 
L 116.065751 230.105794 
L 116.065751 229.991063 
L 116.278058 229.991063 
L 116.278058 229.876333 
L 116.487812 229.876333 
L 116.487812 229.761603 
L 116.783149 229.761603 
L 116.783149 229.646872 
L 116.899898 229.646872 
L 116.972471 229.417412 
L 117.188396 229.417412 
L 117.274023 229.073221 
L 117.612386 229.073221 
L 117.612386 228.95849 
L 117.94431 228.95849 
L 118.039942 228.72903 
L 118.417314 228.72903 
L 118.417314 228.614299 
L 118.576578 228.614299 
L 118.642511 227.811187 
L 118.734401 227.811187 
L 118.81278 227.466996 
L 119.007199 227.466996 
L 119.007199 227.237535 
L 119.199476 227.237535 
L 119.199476 227.122805 
L 119.414856 227.122805 
L 119.414856 227.008075 
L 119.640044 227.008075 
L 119.640044 226.893344 
L 119.850084 226.893344 
L 119.850084 226.778614 
L 119.984656 226.778614 
L 119.984656 226.549153 
L 120.322591 226.549153 
L 120.358413 226.319692 
L 120.489134 226.319692 
L 120.560025 226.090232 
L 120.654101 226.090232 
L 120.747672 225.860771 
L 121.02541 225.860771 
L 121.02541 225.746041 
L 121.310093 225.746041 
L 121.310093 225.63131 
L 121.433896 225.63131 
L 121.501057 225.287119 
L 121.767141 225.287119 
L 121.767141 225.172389 
L 121.953191 225.172389 
L 122.061712 224.713468 
L 122.457469 224.713468 
L 122.489167 224.484007 
L 122.657258 224.484007 
L 122.709455 224.254546 
L 122.823744 224.254546 
L 122.823744 224.139816 
L 123.141856 224.139816 
L 123.141856 223.795625 
L 123.333999 223.795625 
L 123.42428 223.336704 
L 123.533993 223.336704 
L 123.533993 223.221973 
L 123.731719 223.221973 
L 123.731719 223.107243 
L 123.917505 223.107243 
L 124.004823 222.877782 
L 124.340297 222.877782 
L 124.425528 222.418861 
L 124.482119 222.418861 
L 124.585393 222.07467 
L 124.622796 222.07467 
L 124.622796 221.959939 
L 124.799375 221.959939 
L 124.863982 221.730479 
L 125.074593 221.730479 
L 125.156318 221.386288 
L 125.273694 221.386288 
L 125.300669 221.156827 
L 125.434921 221.156827 
L 125.434921 220.927366 
L 125.779216 220.927366 
L 125.840299 220.697906 
L 126.030894 220.697906 
L 126.065325 220.238984 
L 126.185301 220.238984 
L 126.185301 220.124254 
L 126.329885 220.124254 
L 126.414378 219.780063 
L 126.540355 219.780063 
L 126.598834 219.550602 
L 126.70692 219.550602 
L 126.740043 219.206411 
L 127.019078 219.206411 
L 127.116504 218.97695 
L 127.189218 218.97695 
L 127.285701 218.288568 
L 127.40556 218.288568 
L 127.508774 217.944377 
L 127.54041 217.944377 
L 127.54041 217.829647 
L 127.689902 217.829647 
L 127.775868 217.600186 
L 127.931091 217.600186 
L 127.931091 217.485456 
L 128.054283 217.485456 
L 128.161367 217.141265 
L 128.267797 217.141265 
L 128.267797 217.026535 
L 128.471239 217.026535 
L 128.538529 216.682344 
L 128.664928 216.682344 
L 128.664928 216.452883 
L 128.797771 216.452883 
L 128.805122 216.223422 
L 128.995158 216.223422 
L 129.002426 215.993962 
L 129.233413 215.993962 
L 129.29783 215.649771 
L 129.354892 215.649771 
L 129.447219 215.42031 
L 129.47553 215.42031 
L 129.47553 215.305579 
L 129.693392 215.305579 
L 129.763094 214.846658 
L 129.804781 214.846658 
L 129.887858 214.617197 
L 129.929249 214.617197 
L 130.011737 214.043546 
L 130.059675 214.043546 
L 130.127931 213.814085 
L 130.310898 213.814085 
L 130.418423 213.584624 
L 130.458575 213.584624 
L 130.458575 213.469894 
L 130.585116 213.469894 
L 130.671171 213.125703 
L 130.802739 213.125703 
L 130.89425 212.896242 
L 130.959322 212.896242 
L 131.06939 212.437321 
L 131.140242 212.437321 
L 131.191591 212.09313 
L 131.287464 212.09313 
L 131.338382 211.748939 
L 131.622056 211.748939 
L 131.684473 211.175287 
L 131.771483 211.175287 
L 131.771483 211.060557 
L 131.931931 211.060557 
L 131.956484 210.716366 
L 132.048254 210.716366 
L 132.048254 210.601635 
L 132.206187 210.601635 
L 132.212233 210.372175 
L 132.404602 210.372175 
L 132.505941 209.913253 
L 132.565279 209.913253 
L 132.659801 209.683793 
L 132.677467 209.683793 
L 132.777237 209.454332 
L 132.853149 209.454332 
L 132.92293 209.110141 
L 133.067415 209.110141 
L 133.084673 208.76595 
L 133.187865 208.76595 
L 133.27908 208.421759 
L 133.347181 208.421759 
L 133.398082 208.077568 
L 133.476967 208.077568 
L 133.538699 207.618646 
L 133.59463 207.618646 
L 133.667073 207.044995 
L 133.755823 207.044995 
L 133.827601 206.815534 
L 133.871626 206.815534 
L 133.953874 206.586073 
L 134.068373 206.586073 
L 134.138879 206.127152 
L 134.316585 206.127152 
L 134.402098 205.5535 
L 134.439378 205.5535 
L 134.540169 205.209309 
L 134.582433 205.209309 
L 134.650895 204.979849 
L 134.740018 204.979849 
L 134.797444 204.750388 
L 134.901373 204.750388 
L 134.978916 204.406197 
L 135.025276 204.406197 
L 135.025276 204.291467 
L 135.22476 204.291467 
L 135.331236 203.603084 
L 135.406895 203.603084 
L 135.517271 203.258893 
L 135.52727 203.258893 
L 135.621981 202.914702 
L 135.666666 202.914702 
L 135.750758 202.570511 
L 135.873692 202.570511 
L 135.898175 202.341051 
L 135.990898 202.341051 
L 136.078289 201.882129 
L 136.174879 201.882129 
L 136.261355 201.308478 
L 136.342635 201.308478 
L 136.375993 200.849556 
L 136.485152 200.849556 
L 136.565398 200.275904 
L 136.61243 200.275904 
L 136.649964 199.931713 
L 136.748108 199.931713 
L 136.827156 199.128601 
L 137.034686 199.128601 
L 137.075898 198.66968 
L 137.167132 198.66968 
L 137.26694 198.325489 
L 137.316631 198.325489 
L 137.424559 197.866567 
L 137.464861 197.866567 
L 137.518451 197.522376 
L 137.580766 197.522376 
L 137.691492 197.178185 
L 137.73999 197.178185 
L 137.832203 196.604533 
L 137.862833 196.604533 
L 137.958749 195.916151 
L 137.997836 195.916151 
L 138.036836 195.686691 
L 138.200546 195.686691 
L 138.27329 194.998309 
L 138.405164 194.998309 
L 138.405164 194.883578 
L 138.523426 194.883578 
L 138.582257 194.539387 
L 138.649251 194.539387 
L 138.711825 194.195196 
L 138.778323 194.195196 
L 138.815618 193.736275 
L 138.889968 193.736275 
L 138.97221 193.162623 
L 139.017278 193.162623 
L 139.029549 192.933162 
L 139.159906 192.933162 
L 139.159906 192.818432 
L 139.281238 192.818432 
L 139.36968 192.474241 
L 139.409734 192.474241 
L 139.437717 191.900589 
L 139.569034 191.900589 
L 139.596763 191.441668 
L 139.746525 191.441668 
L 139.785723 190.982747 
L 139.933878 190.982747 
L 140.042245 190.409095 
L 140.09233 190.409095 
L 140.180592 189.950174 
L 140.211187 189.950174 
L 140.302652 189.605983 
L 140.348205 189.605983 
L 140.412536 189.032331 
L 140.510467 189.032331 
L 140.619053 188.68814 
L 140.712123 188.68814 
L 140.801004 187.999758 
L 140.915143 187.999758 
L 140.915143 187.885027 
L 141.043119 187.885027 
L 141.119455 187.311376 
L 141.170161 187.311376 
L 141.245945 186.737724 
L 141.285511 186.737724 
L 141.328571 186.393533 
L 141.400102 186.393533 
L 141.496206 185.819881 
L 141.54229 185.819881 
L 141.634094 185.016769 
L 141.683328 185.016769 
L 141.788363 184.557847 
L 141.798832 184.557847 
L 141.896239 184.328387 
L 141.91011 184.328387 
L 142.013792 183.754735 
L 142.048216 183.754735 
L 142.106582 183.410544 
L 142.171584 183.410544 
L 142.256745 182.836892 
L 142.361771 182.836892 
L 142.361771 182.722162 
L 142.53319 182.722162 
L 142.599956 182.03378 
L 142.646541 182.03378 
L 142.646541 181.91905 
L 142.792145 181.91905 
L 142.831645 181.460128 
L 142.933275 181.460128 
L 143.011551 181.115937 
L 143.066785 181.115937 
L 143.163832 180.886476 
L 143.179954 180.886476 
L 143.179954 180.771746 
L 143.327582 180.771746 
L 143.327582 180.657016 
L 143.454946 180.657016 
L 143.530921 180.427555 
L 145.841045 180.427555 
L 145.841045 180.312825 
L 167.890711 180.312825 
L 167.890711 180.198094 
L 168.247266 180.198094 
L 168.247266 180.083364 
L 174.960689 180.083364 
L 174.960689 179.968634 
L 175.389849 179.968634 
L 175.389849 179.853903 
L 176.000186 179.853903 
L 176.003621 179.624443 
L 176.184736 179.624443 
L 176.275317 179.394982 
L 176.687829 179.394982 
L 176.696792 179.165521 
L 176.938455 179.165521 
L 177.008545 178.936061 
L 177.056194 178.936061 
L 177.152941 178.7066 
L 177.17865 178.7066 
L 177.17865 178.59187 
L 177.339386 178.59187 
L 177.339386 178.477139 
L 177.493249 178.477139 
L 177.54768 178.132948 
L 177.607761 178.132948 
L 177.647552 177.903487 
L 177.838089 177.903487 
L 177.838089 177.788757 
L 178.31648 177.788757 
L 178.397518 177.559296 
L 178.497758 177.559296 
L 178.589387 177.215105 
L 178.664958 177.215105 
L 178.771634 176.985645 
L 178.946607 176.985645 
L 178.946607 176.870914 
L 179.096432 176.870914 
L 179.148138 176.641454 
L 179.263309 176.641454 
L 179.369634 176.411993 
L 179.445933 176.411993 
L 179.540741 176.067802 
L 179.567963 176.067802 
L 179.599934 175.723611 
L 179.918035 175.723611 
L 179.918035 175.608881 
L 180.157888 175.608881 
L 180.208088 175.26469 
L 180.41317 175.26469 
L 180.445532 174.920499 
L 180.549068 174.920499 
L 180.634693 174.576308 
L 180.673031 174.576308 
L 180.761039 174.232116 
L 180.800964 174.232116 
L 180.800964 174.117386 
L 180.930186 174.117386 
L 181.040821 173.887925 
L 181.07791 173.887925 
L 181.156967 173.658465 
L 181.203647 173.658465 
L 181.264725 173.314274 
L 181.399573 173.314274 
L 181.495822 172.855352 
L 181.652699 172.855352 
L 181.752506 172.511161 
L 181.788819 172.511161 
L 181.874189 172.281701 
L 181.93646 172.281701 
L 182.037091 171.822779 
L 182.069351 171.822779 
L 182.170944 171.478588 
L 182.302408 171.478588 
L 182.302408 171.363858 
L 182.422705 171.363858 
L 182.514159 170.790206 
L 182.570149 170.790206 
L 182.653799 170.446015 
L 182.706002 170.446015 
L 182.809611 169.757633 
L 182.841137 169.757633 
L 182.92515 169.413442 
L 182.959762 169.413442 
L 182.959762 169.298712 
L 183.09916 169.298712 
L 183.148746 168.83979 
L 183.278566 168.83979 
L 183.342149 168.380869 
L 183.419299 168.380869 
L 183.48972 168.036678 
L 183.551266 168.036678 
L 183.646821 167.577757 
L 183.703398 167.577757 
L 183.754759 167.118835 
L 183.879849 167.118835 
L 183.893276 166.774644 
L 184.002807 166.774644 
L 184.002807 166.659914 
L 184.2486 166.659914 
L 184.2486 166.545183 
L 184.363222 166.545183 
L 184.422674 166.086262 
L 184.526231 166.086262 
L 184.534056 165.856801 
L 184.644431 165.856801 
L 184.74163 165.168419 
L 184.771634 165.168419 
L 184.859565 164.594768 
L 184.892904 164.594768 
L 184.978468 164.135846 
L 185.026506 164.135846 
L 185.137596 163.332734 
L 185.17911 163.332734 
L 185.276265 162.759082 
L 185.302197 162.759082 
L 185.302197 162.644352 
L 185.423278 162.644352 
L 185.492905 162.0707 
L 185.576999 162.0707 
L 185.663228 161.382318 
L 185.706324 161.382318 
L 185.810384 160.349745 
L 185.81933 160.349745 
L 185.926054 159.661363 
L 185.94549 159.661363 
L 186.053377 159.087711 
L 186.056962 159.087711 
L 186.151006 158.284599 
L 186.191546 158.284599 
L 186.293303 157.825677 
L 186.307442 157.825677 
L 186.409068 157.252026 
L 186.420683 157.252026 
L 186.496666 156.907835 
L 186.579279 156.907835 
L 186.671354 156.334183 
L 186.710969 156.334183 
L 186.813445 155.53107 
L 186.868802 155.53107 
L 186.978989 154.498497 
L 187.012955 154.498497 
L 187.106149 153.695385 
L 187.133648 153.695385 
L 187.24218 152.433351 
L 187.251966 152.433351 
L 187.361814 150.827126 
L 187.37588 150.827126 
L 187.474279 149.335632 
L 187.488254 149.335632 
L 187.590822 148.188328 
L 187.601676 148.188328 
L 187.71261 146.008452 
L 187.718877 146.008452 
L 187.828074 143.484384 
L 187.83181 143.484384 
L 187.936838 140.386665 
L 187.950448 140.386665 
L 188.061159 137.403676 
L 188.063371 137.403676 
L 188.169461 134.535418 
L 188.175566 134.535418 
L 188.281949 132.01135 
L 188.288015 132.01135 
L 188.384309 128.7989 
L 188.409866 128.7989 
L 188.509085 125.815911 
L 188.526324 125.815911 
L 188.634401 123.750765 
L 188.648903 123.750765 
L 188.75528 121.91508 
L 188.771806 121.91508 
L 188.872512 120.882507 
L 188.909777 120.882507 
L 188.909777 120.767776 
L 191.563102 120.767776 
L 191.606079 120.538316 
L 193.970937 120.538316 
L 193.970937 120.423585 
L 196.612564 120.423585 
L 196.612564 120.308855 
L 197.240111 120.308855 
L 197.240111 120.194125 
L 199.450698 120.194125 
L 199.450698 120.079394 
L 207.194668 120.079394 
L 207.194668 119.964664 
L 210.937333 119.964664 
L 210.937333 119.849934 
L 211.691261 119.849934 
L 211.691261 119.735203 
L 214.345341 119.735203 
L 214.345341 119.620473 
L 220.531059 119.620473 
L 220.531059 119.505743 
L 235.752916 119.505743 
L 235.752916 119.391012 
L 235.901141 119.391012 
L 235.901141 119.276282 
L 236.400942 119.276282 
L 236.400942 119.161552 
L 238.639172 119.161552 
L 238.639172 119.046821 
L 239.084286 119.046821 
L 239.084286 118.932091 
L 239.693161 118.932091 
L 239.693161 118.817361 
L 245.028008 118.817361 
L 245.028008 118.70263 
L 246.624485 118.70263 
L 246.624485 118.5879 
L 253.945479 118.5879 
L 253.94549 118.358439 
L 255.389178 118.358439 
L 255.389178 118.243709 
L 256.488039 118.243709 
L 256.488039 118.128978 
L 263.360791 118.128978 
L 263.360798 117.899518 
L 268.914518 117.899518 
L 268.914518 117.784787 
L 272.040068 117.784787 
L 272.040068 117.670057 
L 338.688 117.670057 
L 338.688 117.670057 
" style="fill:none;stroke:#000080;stroke-linecap:square;stroke-width:1.5;"/>
   </g>
   <g id="line2d_36">
    <defs>
     <path d="M 0 6 
C 1.591219 6 3.117479 5.367802 4.242641 4.242641 
C 5.367802 3.117479 6 1.591219 6 0 
C 6 -1.591219 5.367802 -3.117479 4.242641 -4.242641 
C 3.117479 -5.367802 1.591219 -6 0 -6 
C -1.591219 -6 -3.117479 -5.367802 -4.242641 -4.242641 
C -5.367802 -3.117479 -6 -1.591219 -6 0 
C -6 1.591219 -5.367802 3.117479 -4.242641 4.242641 
C -3.117479 5.367802 -1.591219 6 0 6 
z
" id="me753f0162e" style="stroke:#000080;stroke-width:1.5;"/>
    </defs>
    <g>
     <use style="fill-opacity:0;stroke:#000080;stroke-width:1.5;" x="117.274023" xlink:href="#me753f0162e" y="229.302681"/>
     <use style="fill-opacity:0;stroke:#000080;stroke-width:1.5;" x="145.841045" xlink:href="#me753f0162e" y="180.312825"/>
     <use style="fill-opacity:0;stroke:#000080;stroke-width:1.5;" x="236.400942" xlink:href="#me753f0162e" y="119.276282"/>
     <use style="fill-opacity:0;stroke:#000080;stroke-width:1.5;" x="272.040068" xlink:href="#me753f0162e" y="117.670057"/>
     <use style="fill-opacity:0;stroke:#000080;stroke-width:1.5;" x="338.688" xlink:href="#me753f0162e" y="117.670057"/>
    </g>
   </g>
   <g id="line2d_37">
    <path style="fill:none;stroke:#000080;stroke-linecap:square;stroke-width:1.5;"/>
    <g/>
   </g>
   <g id="line2d_38">
    <path clip-path="url(#p1c2bfa16e9)" d="M 246.289233 118.70263 
" style="fill:none;stroke:#000080;stroke-linecap:square;stroke-width:1.5;"/>
    <defs>
     <path d="M -12 12 
L 12 -12 
M -12 -12 
L 12 12 
" id="m51e64c6ff2" style="stroke:#000080;"/>
    </defs>
    <g clip-path="url(#p1c2bfa16e9)">
     <use style="fill:#000080;stroke:#000080;" x="246.289233" xlink:href="#m51e64c6ff2" y="118.70263"/>
    </g>
   </g>
   <g id="line2d_39">
    <defs>
     <path d="M 0 1.5 
C 0.397805 1.5 0.77937 1.341951 1.06066 1.06066 
C 1.341951 0.77937 1.5 0.397805 1.5 0 
C 1.5 -0.397805 1.341951 -0.77937 1.06066 -1.06066 
C 0.77937 -1.341951 0.397805 -1.5 0 -1.5 
C -0.397805 -1.5 -0.77937 -1.341951 -1.06066 -1.06066 
C -1.341951 -0.77937 -1.5 -0.397805 -1.5 0 
C -1.5 0.397805 -1.341951 0.77937 -1.06066 1.06066 
C -0.77937 1.341951 -0.397805 1.5 0 1.5 
z
" id="mae9f1f8034" style="stroke:#ff00ff;"/>
    </defs>
    <g>
     <use style="fill:#ff00ff;stroke:#ff00ff;" x="322.267142" xlink:href="#mae9f1f8034" y="170.446015"/>
     <use style="fill:#ff00ff;stroke:#ff00ff;" x="322.267142" xlink:href="#mae9f1f8034" y="170.446015"/>
    </g>
   </g>
   <g id="line2d_40">
    <path d="M 102.695933 298.944 
L 102.695933 298.82927 
L 103.529587 298.82927 
L 103.529587 298.714539 
L 104.942325 298.714539 
L 104.942325 298.599809 
L 105.313691 298.599809 
L 105.398279 298.370348 
L 105.566235 298.370348 
L 105.566235 298.255618 
L 106.249145 298.255618 
L 106.275913 298.026157 
L 106.462146 298.026157 
L 106.462146 297.911427 
L 106.620207 297.911427 
L 106.620207 297.796697 
L 107.712901 297.796697 
L 107.762095 297.567236 
L 108.741149 297.567236 
L 108.741149 297.452506 
L 108.856871 297.452506 
L 108.925937 297.223045 
L 109.24468 297.223045 
L 109.334689 296.993584 
L 109.886961 296.993584 
L 109.886961 296.878854 
L 111.165366 296.878854 
L 111.165366 296.764123 
L 111.702614 296.764123 
L 111.702614 296.649393 
L 111.916835 296.649393 
L 111.916835 296.534663 
L 112.968391 296.534663 
L 112.968391 296.419932 
L 113.311233 296.419932 
L 113.311233 296.305202 
L 113.873839 296.305202 
L 113.908407 296.075741 
L 114.535848 296.075741 
L 114.552496 295.846281 
L 114.701622 295.846281 
L 114.701622 295.73155 
L 115.077025 295.73155 
L 115.077025 295.61682 
L 116.59175 295.61682 
L 116.59175 295.50209 
L 116.957981 295.50209 
L 116.957981 295.387359 
L 117.458117 295.387359 
L 117.458117 295.272629 
L 117.930605 295.272629 
L 117.930605 295.157899 
L 118.323734 295.157899 
L 118.323734 295.043168 
L 119.097192 295.043168 
L 119.097192 294.928438 
L 119.2631 294.928438 
L 119.2631 294.813708 
L 119.45259 294.813708 
L 119.45259 294.698977 
L 120.700949 294.698977 
L 120.700949 294.584247 
L 121.105591 294.584247 
L 121.105591 294.469517 
L 121.678897 294.469517 
L 121.678897 294.354786 
L 122.906394 294.354786 
L 122.906394 294.240056 
L 124.033832 294.240056 
L 124.033832 294.125326 
L 125.065488 294.125326 
L 125.065488 294.010595 
L 125.192518 294.010595 
L 125.237662 293.781135 
L 125.309651 293.781135 
L 125.309651 293.666404 
L 126.598834 293.666404 
L 126.598834 293.551674 
L 128.092603 293.551674 
L 128.092603 293.436944 
L 128.657518 293.436944 
L 128.657518 293.322213 
L 129.03872 293.322213 
L 129.03872 293.207483 
L 129.376241 293.207483 
L 129.376241 293.092752 
L 129.651437 293.092752 
L 129.651437 292.978022 
L 130.531948 292.978022 
L 130.531948 292.863292 
L 130.822389 292.863292 
L 130.822389 292.748561 
L 131.204405 292.748561 
L 131.204405 292.633831 
L 131.597027 292.633831 
L 131.597027 292.519101 
L 132.653908 292.519101 
L 132.653908 292.40437 
L 132.969296 292.40437 
L 132.969296 292.28964 
L 133.205004 292.28964 
L 133.205004 292.17491 
L 133.755823 292.17491 
L 133.755823 292.060179 
L 134.745246 292.060179 
L 134.745246 291.945449 
L 136.2853 291.945449 
L 136.2853 291.830719 
L 137.845337 291.830719 
L 137.845337 291.715988 
L 138.200546 291.715988 
L 138.200546 291.601258 
L 138.358484 291.601258 
L 138.439035 291.371797 
L 138.774175 291.371797 
L 138.774175 291.257067 
L 139.013186 291.257067 
L 139.013186 291.142337 
L 139.176133 291.142337 
L 139.176133 291.027606 
L 139.453687 291.027606 
L 139.453687 290.912876 
L 140.40498 290.912876 
L 140.40498 290.798146 
L 140.521732 290.798146 
L 140.521732 290.683415 
L 141.563518 290.683415 
L 141.563518 290.568685 
L 141.861513 290.568685 
L 141.861513 290.453955 
L 142.519806 290.453955 
L 142.519806 290.339224 
L 143.086237 290.339224 
L 143.086237 290.224494 
L 143.899722 290.224494 
L 143.899722 290.109764 
L 144.053672 290.109764 
L 144.114873 289.880303 
L 144.441699 289.880303 
L 144.441699 289.765573 
L 145.094866 289.765573 
L 145.094866 289.650842 
L 145.403989 289.650842 
L 145.403989 289.536112 
L 145.995303 289.536112 
L 145.995303 289.421381 
L 147.092675 289.421381 
L 147.092675 289.306651 
L 148.471122 289.306651 
L 148.490147 289.07719 
L 149.336824 289.07719 
L 149.336824 288.96246 
L 149.788308 288.96246 
L 149.788308 288.84773 
L 149.933325 288.84773 
L 149.933325 288.732999 
L 150.157257 288.732999 
L 150.157257 288.618269 
L 150.588248 288.618269 
L 150.588248 288.503539 
L 150.816462 288.503539 
L 150.816462 288.388808 
L 151.294505 288.388808 
L 151.294505 288.274078 
L 151.56361 288.274078 
L 151.56361 288.159348 
L 151.787359 288.159348 
L 151.787359 288.044617 
L 151.92649 288.044617 
L 151.92649 287.929887 
L 152.41533 287.929887 
L 152.41533 287.815157 
L 152.5665 287.815157 
L 152.5665 287.700426 
L 152.840905 287.700426 
L 152.840905 287.585696 
L 153.767805 287.585696 
L 153.767805 287.470966 
L 154.759434 287.470966 
L 154.759434 287.356235 
L 155.151529 287.356235 
L 155.151529 287.241505 
L 155.361158 287.241505 
L 155.361158 287.126775 
L 155.955208 287.126775 
L 155.955208 287.012044 
L 156.14166 287.012044 
L 156.14166 286.897314 
L 156.450059 286.897314 
L 156.553655 286.553123 
L 156.708645 286.553123 
L 156.708645 286.438393 
L 157.0902 286.438393 
L 157.0902 286.323662 
L 157.422332 286.323662 
L 157.422332 286.208932 
L 157.67261 286.208932 
L 157.723077 285.864741 
L 157.934566 285.864741 
L 157.955298 285.63528 
L 158.543386 285.63528 
L 158.543386 285.52055 
L 158.813727 285.52055 
L 158.813727 285.405819 
L 158.946037 285.405819 
L 159.02936 285.061628 
L 159.381655 285.061628 
L 159.381655 284.946898 
L 159.775573 284.946898 
L 159.775573 284.832168 
L 159.888449 284.832168 
L 159.888449 284.717437 
L 160.309871 284.717437 
L 160.309871 284.602707 
L 160.681225 284.602707 
L 160.790755 284.029055 
L 160.962491 284.029055 
L 160.985727 283.799595 
L 161.33742 283.799595 
L 161.33742 283.684864 
L 161.546656 283.684864 
L 161.546656 283.570134 
L 161.848695 283.570134 
L 161.848695 283.455404 
L 162.316387 283.455404 
L 162.316387 283.340673 
L 162.487656 283.340673 
L 162.487656 283.225943 
L 162.861757 283.225943 
L 162.890924 282.996482 
L 163.187116 282.996482 
L 163.242288 282.767022 
L 163.461244 282.767022 
L 163.461244 282.652291 
L 163.788565 282.652291 
L 163.863539 282.422831 
L 163.93329 282.422831 
L 163.93329 282.3081 
L 164.365179 282.3081 
L 164.45771 281.963909 
L 164.63378 281.963909 
L 164.701462 281.734448 
L 164.885315 281.734448 
L 164.885315 281.619718 
L 165.224559 281.619718 
L 165.333476 281.275527 
L 165.454301 281.275527 
L 165.454301 281.160797 
L 165.712956 281.160797 
L 165.778348 280.816606 
L 165.832947 280.816606 
L 165.88124 280.472415 
L 166.507321 280.472415 
L 166.507321 280.357684 
L 166.652214 280.357684 
L 166.652214 280.242954 
L 167.086355 280.242954 
L 167.148434 279.898763 
L 167.232216 279.898763 
L 167.232216 279.784033 
L 167.375258 279.784033 
L 167.427494 279.554572 
L 167.714793 279.554572 
L 167.725051 279.325111 
L 167.916478 279.325111 
L 167.936752 279.095651 
L 168.054037 279.095651 
L 168.083429 278.75146 
L 168.173614 278.75146 
L 168.240374 278.521999 
L 168.476198 278.521999 
L 168.534283 278.177808 
L 168.715584 278.177808 
L 168.778078 277.833617 
L 168.871399 277.833617 
L 168.942168 277.604156 
L 169.000923 277.604156 
L 169.000923 277.489426 
L 169.133859 277.489426 
L 169.199223 277.145235 
L 169.246279 277.145235 
L 169.335697 276.801044 
L 169.36947 276.801044 
L 169.459688 276.571583 
L 169.630251 276.571583 
L 169.630251 276.456853 
L 169.815265 276.456853 
L 169.815265 276.342122 
L 169.968535 276.342122 
L 169.987253 276.112662 
L 170.200052 276.112662 
L 170.200052 275.997931 
L 170.423805 275.997931 
L 170.47913 275.768471 
L 170.54502 275.768471 
L 170.63271 275.42428 
L 170.860903 275.42428 
L 170.923399 275.080089 
L 171.0575 275.080089 
L 171.165339 274.735897 
L 171.231272 274.735897 
L 171.284097 274.391706 
L 171.432054 274.391706 
L 171.451814 274.047515 
L 171.547748 274.047515 
L 171.632442 273.703324 
L 171.726763 273.703324 
L 171.829307 273.244403 
L 171.845508 273.244403 
L 171.937448 273.014942 
L 171.994356 273.014942 
L 172.01349 272.785482 
L 172.133369 272.785482 
L 172.133369 272.670751 
L 172.437038 272.670751 
L 172.523523 272.441291 
L 172.548667 272.441291 
L 172.647099 272.21183 
L 172.679786 272.21183 
L 172.763306 271.752909 
L 172.8058 271.752909 
L 172.896932 271.408718 
L 172.995171 271.408718 
L 173.016733 271.179257 
L 173.116619 271.179257 
L 173.117777 270.949796 
L 173.307818 270.949796 
L 173.375273 270.490875 
L 173.47767 270.490875 
L 173.572701 270.031953 
L 173.712605 270.031953 
L 173.712605 269.917223 
L 173.936684 269.917223 
L 173.971455 269.573032 
L 174.057257 269.573032 
L 174.057257 269.458302 
L 174.262886 269.458302 
L 174.298096 269.228841 
L 174.376385 269.228841 
L 174.457006 268.310998 
L 174.750521 268.310998 
L 174.764751 268.081538 
L 174.903811 268.081538 
L 174.991399 267.852077 
L 175.175045 267.852077 
L 175.198701 267.507886 
L 175.3165 267.507886 
L 175.412707 267.163695 
L 175.446686 267.163695 
L 175.507378 266.934234 
L 175.641664 266.934234 
L 175.661193 266.590043 
L 175.770449 266.590043 
L 175.842908 266.245852 
L 176.141459 266.245852 
L 176.235655 265.901661 
L 176.273384 265.901661 
L 176.380324 265.55747 
L 176.401441 265.55747 
L 176.460339 265.328009 
L 176.618804 265.328009 
L 176.687357 264.983818 
L 176.744829 264.983818 
L 176.744829 264.869088 
L 176.882086 264.869088 
L 176.951938 264.524897 
L 177.027528 264.524897 
L 177.060814 264.295436 
L 177.232698 264.295436 
L 177.342568 264.065976 
L 177.43051 264.065976 
L 177.52116 263.607054 
L 177.561597 263.607054 
L 177.670758 263.148133 
L 177.795189 263.148133 
L 177.901581 262.34502 
L 177.959142 262.34502 
L 177.997702 262.000829 
L 178.146756 262.000829 
L 178.228585 261.541908 
L 178.276896 261.541908 
L 178.342247 261.197717 
L 178.457305 261.197717 
L 178.468385 260.968256 
L 178.605458 260.968256 
L 178.712497 260.624065 
L 178.78419 260.624065 
L 178.848922 260.279874 
L 178.895962 260.279874 
L 178.895962 260.165144 
L 179.096021 260.165144 
L 179.13092 259.935683 
L 179.213985 259.935683 
L 179.280804 259.706222 
L 179.3421 259.706222 
L 179.368015 259.362031 
L 179.520296 259.362031 
L 179.570763 258.78838 
L 179.650569 258.78838 
L 179.738729 258.444189 
L 179.813039 258.444189 
L 179.914506 258.214728 
L 179.952894 258.214728 
L 180.030585 257.870537 
L 180.070661 257.870537 
L 180.166394 257.526346 
L 180.278509 257.526346 
L 180.365469 257.067425 
L 180.400208 257.067425 
L 180.502117 256.723234 
L 180.511593 256.723234 
L 180.580802 256.149582 
L 180.712783 256.149582 
L 180.729632 255.805391 
L 180.842286 255.805391 
L 180.892039 255.57593 
L 180.959757 255.57593 
L 181.005862 255.231739 
L 181.143085 255.231739 
L 181.177405 254.887548 
L 181.29301 254.887548 
L 181.400654 254.543357 
L 181.406414 254.543357 
L 181.406414 254.428627 
L 181.549104 254.428627 
L 181.655893 254.084436 
L 181.722836 254.084436 
L 181.819783 253.396054 
L 181.87454 253.396054 
L 181.922835 252.937132 
L 182.116074 252.937132 
L 182.213271 252.36348 
L 182.243492 252.36348 
L 182.292147 251.904559 
L 182.366579 251.904559 
L 182.473572 251.445638 
L 182.619246 251.445638 
L 182.72704 251.101447 
L 182.734047 251.101447 
L 182.79233 250.298334 
L 182.876909 250.298334 
L 182.954822 249.724683 
L 183.077913 249.724683 
L 183.160144 249.265761 
L 183.195918 249.265761 
L 183.298925 248.692109 
L 183.324421 248.692109 
L 183.39908 248.347918 
L 183.440775 248.347918 
L 183.546491 247.774267 
L 183.615133 247.774267 
L 183.707815 247.544806 
L 183.795928 247.544806 
L 183.895461 246.856424 
L 183.937545 246.856424 
L 184.044942 246.512233 
L 184.087593 246.512233 
L 184.162136 245.938581 
L 184.269385 245.938581 
L 184.332811 245.59439 
L 184.422372 245.59439 
L 184.51509 244.676547 
L 184.606119 244.676547 
L 184.635759 244.447087 
L 184.738953 244.447087 
L 184.848635 243.643974 
L 184.85543 243.643974 
L 184.950287 242.955592 
L 184.967319 242.955592 
L 185.071785 242.381941 
L 185.12393 242.381941 
L 185.234404 241.808289 
L 185.28693 241.808289 
L 185.33815 241.578828 
L 185.408403 241.578828 
L 185.515957 240.775716 
L 185.5404 240.775716 
L 185.5404 240.660985 
L 185.679577 240.660985 
L 185.790237 240.202064 
L 185.817374 240.202064 
L 185.885726 239.743143 
L 185.944657 239.743143 
L 185.953812 239.398952 
L 186.06909 239.398952 
L 186.163342 238.94003 
L 186.180325 238.94003 
L 186.272073 238.595839 
L 186.324285 238.595839 
L 186.430671 238.022188 
L 186.463565 238.022188 
L 186.540972 237.677997 
L 186.592653 237.677997 
L 186.700609 237.104345 
L 186.716015 237.104345 
L 186.751025 236.874884 
L 186.890632 236.874884 
L 186.985003 236.186502 
L 187.042946 236.186502 
L 187.092643 235.842311 
L 187.173521 235.842311 
L 187.259431 235.49812 
L 187.377158 235.49812 
L 187.457748 235.268659 
L 187.514904 235.268659 
L 187.618323 234.809738 
L 187.643516 234.809738 
L 187.693542 234.350817 
L 187.790919 234.350817 
L 187.790919 234.236086 
L 188.048619 234.236086 
L 188.135474 233.777165 
L 188.184599 233.777165 
L 188.184599 233.662434 
L 188.313471 233.662434 
L 188.393716 233.318243 
L 188.567678 233.318243 
L 188.636066 233.088783 
L 188.848565 233.088783 
L 188.93551 232.859322 
L 189.099545 232.859322 
L 189.176261 232.515131 
L 189.568166 232.515131 
L 189.638363 232.28567 
L 189.736433 232.28567 
L 189.736433 232.17094 
L 189.872103 232.17094 
L 189.957852 231.941479 
L 190.042304 231.941479 
L 190.120016 231.712019 
L 190.15798 231.712019 
L 190.237349 231.367828 
L 190.273759 231.367828 
L 190.273759 231.253097 
L 190.512436 231.253097 
L 190.512436 231.138367 
L 190.648793 231.138367 
L 190.662773 230.908906 
L 190.871132 230.908906 
L 190.977506 230.449985 
L 191.291357 230.449985 
L 191.291357 230.335255 
L 191.461263 230.335255 
L 191.461263 230.220524 
L 191.617307 230.220524 
L 191.688921 229.646872 
L 191.730992 229.646872 
L 191.730992 229.532142 
L 191.985428 229.532142 
L 192.088553 229.302681 
L 192.221497 229.302681 
L 192.221497 229.187951 
L 192.33844 229.187951 
L 192.408308 228.95849 
L 192.550629 228.95849 
L 192.612461 228.614299 
L 192.842676 228.614299 
L 192.915581 228.384839 
L 193.137446 228.384839 
L 193.214071 228.155378 
L 193.402544 228.155378 
L 193.477655 227.925917 
L 193.597057 227.925917 
L 193.597057 227.811187 
L 193.761439 227.811187 
L 193.782875 227.581726 
L 193.971638 227.581726 
L 193.971638 227.466996 
L 194.166521 227.466996 
L 194.166521 227.352266 
L 194.424218 227.352266 
L 194.424218 227.237535 
L 194.579498 227.237535 
L 194.579498 227.122805 
L 194.699005 227.122805 
L 194.699005 227.008075 
L 194.821869 227.008075 
L 194.821869 226.778614 
L 195.46136 226.778614 
L 195.468916 226.549153 
L 196.35386 226.549153 
L 196.430537 226.204962 
L 201.215417 226.204962 
L 201.215417 226.090232 
L 246.2949 226.090232 
L 246.397169 224.369277 
L 246.417591 224.369277 
L 246.498231 223.566164 
L 246.531602 223.566164 
L 246.632403 221.501018 
L 246.644446 221.501018 
L 246.744785 218.632759 
L 246.758491 218.632759 
L 246.858718 216.911804 
L 246.872123 216.911804 
L 246.977746 215.190849 
L 246.990474 215.190849 
L 247.097824 212.437321 
L 247.133001 212.437321 
L 247.210895 211.634209 
L 247.258923 211.634209 
L 247.258923 211.519478 
L 258.382596 211.519478 
L 258.477812 211.175287 
L 258.499827 211.175287 
L 258.606446 208.65122 
L 258.616495 208.65122 
L 258.722559 205.43877 
L 258.730183 205.43877 
L 258.827115 203.029433 
L 265.451235 203.029433 
L 265.562263 202.341051 
L 265.563331 202.341051 
L 265.671565 198.78441 
L 265.679291 198.78441 
L 265.749431 195.916151 
L 270.467095 195.916151 
L 270.575755 194.424657 
L 270.579497 194.424657 
L 270.676302 190.638556 
L 274.358432 190.638556 
L 274.468148 189.147061 
L 274.474758 189.147061 
L 274.527538 187.196645 
L 277.603361 187.196645 
L 277.681878 184.787308 
L 280.273524 184.787308 
L 280.342274 182.722162 
L 282.608028 182.722162 
L 282.662529 181.574858 
L 284.645369 181.574858 
L 284.702974 179.739173 
L 286.445417 179.739173 
L 286.510209 178.362409 
L 288.13663 178.362409 
L 288.182092 177.329836 
L 289.625049 177.329836 
L 289.688249 176.526723 
L 291.020736 176.526723 
L 291.0971 175.723611 
L 292.355193 175.723611 
L 292.370694 175.26469 
L 293.516217 175.26469 
L 293.582125 174.576308 
L 294.67346 174.576308 
L 294.683954 174.117386 
L 295.736677 174.117386 
L 295.741322 173.658465 
L 296.695766 173.658465 
L 296.735528 173.084813 
L 297.659038 173.084813 
L 297.668829 172.855352 
L 298.55729 172.855352 
L 298.575465 172.625892 
L 299.383956 172.625892 
L 299.42341 172.396431 
L 300.226543 172.396431 
L 300.226543 172.281701 
L 301.004032 172.281701 
L 301.004032 172.16697 
L 301.741308 172.16697 
L 301.741308 171.93751 
L 302.424403 171.93751 
L 302.424403 171.822779 
L 303.132485 171.822779 
L 303.132485 171.708049 
L 304.421837 171.708049 
L 304.421837 171.593319 
L 305.603899 171.593319 
L 305.626939 171.249128 
L 306.191764 171.249128 
L 306.191764 171.134397 
L 307.283919 171.134397 
L 307.283919 171.019667 
L 310.179272 171.019667 
L 310.179272 170.904937 
L 311.488105 170.904937 
L 311.488105 170.790206 
L 312.674816 170.790206 
L 312.674816 170.675476 
L 314.871104 170.675476 
L 314.871104 170.560745 
L 322.267142 170.560745 
L 322.267142 170.446015 
L 338.688 170.446015 
L 338.688 170.446015 
" style="fill:none;stroke:#ff00ff;stroke-linecap:square;stroke-width:1.5;"/>
   </g>
   <g id="line2d_41">
    <defs>
     <path d="M -0 8.485281 
L 5.091169 0 
L 0 -8.485281 
L -5.091169 -0 
z
" id="m2cd23bef10" style="stroke:#ff00ff;stroke-linejoin:miter;stroke-width:1.5;"/>
    </defs>
    <g>
     <use style="fill-opacity:0;stroke:#ff00ff;stroke-linejoin:miter;stroke-width:1.5;" x="185.49205" xlink:href="#m2cd23bef10" y="241.005176"/>
     <use style="fill-opacity:0;stroke:#ff00ff;stroke-linejoin:miter;stroke-width:1.5;" x="247.258923" xlink:href="#m2cd23bef10" y="211.519478"/>
     <use style="fill-opacity:0;stroke:#ff00ff;stroke-linejoin:miter;stroke-width:1.5;" x="322.267142" xlink:href="#m2cd23bef10" y="170.560745"/>
     <use style="fill-opacity:0;stroke:#ff00ff;stroke-linejoin:miter;stroke-width:1.5;" x="322.267142" xlink:href="#m2cd23bef10" y="170.446015"/>
     <use style="fill-opacity:0;stroke:#ff00ff;stroke-linejoin:miter;stroke-width:1.5;" x="338.688" xlink:href="#m2cd23bef10" y="170.446015"/>
    </g>
   </g>
   <g id="line2d_42">
    <path style="fill:none;stroke:#ff00ff;stroke-linecap:square;stroke-width:1.5;"/>
    <g/>
   </g>
   <g id="line2d_43">
    <path clip-path="url(#p1c2bfa16e9)" d="M 246.289154 226.090232 
" style="fill:none;stroke:#ff00ff;stroke-linecap:square;stroke-width:1.5;"/>
    <defs>
     <path d="M -12 12 
L 12 -12 
M -12 -12 
L 12 12 
" id="m12d4320984" style="stroke:#ff00ff;"/>
    </defs>
    <g clip-path="url(#p1c2bfa16e9)">
     <use style="fill:#ff00ff;stroke:#ff00ff;" x="246.289154" xlink:href="#m12d4320984" y="226.090232"/>
    </g>
   </g>
   <g id="line2d_44">
    <path d="M 338.688 170.446015 
L 369.60768 293.092752 
" style="fill:none;stroke:#ff00ff;stroke-linecap:square;stroke-width:1.5;"/>
    <g>
     <use style="fill-opacity:0;stroke:#ff00ff;stroke-linejoin:miter;stroke-width:1.5;" x="338.688" xlink:href="#m2cd23bef10" y="170.446015"/>
     <use style="fill-opacity:0;stroke:#ff00ff;stroke-linejoin:miter;stroke-width:1.5;" x="369.60768" xlink:href="#m2cd23bef10" y="293.092752"/>
    </g>
   </g>
   <g id="line2d_45">
    <path d="M 338.688 117.670057 
L 369.60768 152.662812 
" style="fill:none;stroke:#000080;stroke-linecap:square;stroke-width:1.5;"/>
    <g>
     <use style="fill-opacity:0;stroke:#000080;stroke-width:1.5;" x="338.688" xlink:href="#me753f0162e" y="117.670057"/>
     <use style="fill-opacity:0;stroke:#000080;stroke-width:1.5;" x="369.60768" xlink:href="#me753f0162e" y="152.662812"/>
    </g>
   </g>
   <g id="line2d_46">
    <path d="M 338.688 298.944 
L 338.688 6.381624 
" style="fill:none;stroke:#000000;stroke-linecap:square;stroke-width:1.5;"/>
   </g>
   <g id="patch_3">
    <path d="M 57.6 298.944 
L 57.6 3.456 
" style="fill:none;stroke:#000000;stroke-linecap:square;stroke-linejoin:miter;stroke-width:0.8;"/>
   </g>
   <g id="patch_4">
    <path d="M 338.688 298.944 
L 338.688 3.456 
" style="fill:none;stroke:#000000;stroke-linecap:square;stroke-linejoin:miter;stroke-width:0.8;"/>
   </g>
   <g id="patch_5">
    <path d="M 57.6 298.944 
L 338.688 298.944 
" style="fill:none;stroke:#000000;stroke-linecap:square;stroke-linejoin:miter;stroke-width:0.8;"/>
   </g>
   <g id="patch_6">
    <path d="M 57.6 3.456 
L 338.688 3.456 
" style="fill:none;stroke:#000000;stroke-linecap:square;stroke-linejoin:miter;stroke-width:0.8;"/>
   </g>
   <g id="text_13">
    <!-- PSO -->
    <g transform="translate(375.22944 297.78369)scale(0.17 -0.17)">
     <defs>
      <path d="M 19.671875 64.796875 
L 19.671875 37.40625 
L 32.078125 37.40625 
Q 38.96875 37.40625 42.71875 40.96875 
Q 46.484375 44.53125 46.484375 51.125 
Q 46.484375 57.671875 42.71875 61.234375 
Q 38.96875 64.796875 32.078125 64.796875 
z
M 9.8125 72.90625 
L 32.078125 72.90625 
Q 44.34375 72.90625 50.609375 67.359375 
Q 56.890625 61.8125 56.890625 51.125 
Q 56.890625 40.328125 50.609375 34.8125 
Q 44.34375 29.296875 32.078125 29.296875 
L 19.671875 29.296875 
L 19.671875 0 
L 9.8125 0 
z
" id="DejaVuSans-80"/>
      <path d="M 53.515625 70.515625 
L 53.515625 60.890625 
Q 47.90625 63.578125 42.921875 64.890625 
Q 37.9375 66.21875 33.296875 66.21875 
Q 25.25 66.21875 20.875 63.09375 
Q 16.5 59.96875 16.5 54.203125 
Q 16.5 49.359375 19.40625 46.890625 
Q 22.3125 44.4375 30.421875 42.921875 
L 36.375 41.703125 
Q 47.40625 39.59375 52.65625 34.296875 
Q 57.90625 29 57.90625 20.125 
Q 57.90625 9.515625 50.796875 4.046875 
Q 43.703125 -1.421875 29.984375 -1.421875 
Q 24.8125 -1.421875 18.96875 -0.25 
Q 13.140625 0.921875 6.890625 3.21875 
L 6.890625 13.375 
Q 12.890625 10.015625 18.65625 8.296875 
Q 24.421875 6.59375 29.984375 6.59375 
Q 38.421875 6.59375 43.015625 9.90625 
Q 47.609375 13.234375 47.609375 19.390625 
Q 47.609375 24.75 44.3125 27.78125 
Q 41.015625 30.8125 33.5 32.328125 
L 27.484375 33.5 
Q 16.453125 35.6875 11.515625 40.375 
Q 6.59375 45.0625 6.59375 53.421875 
Q 6.59375 63.09375 13.40625 68.65625 
Q 20.21875 74.21875 32.171875 74.21875 
Q 37.3125 74.21875 42.625 73.28125 
Q 47.953125 72.359375 53.515625 70.515625 
z
" id="DejaVuSans-83"/>
      <path d="M 39.40625 66.21875 
Q 28.65625 66.21875 22.328125 58.203125 
Q 16.015625 50.203125 16.015625 36.375 
Q 16.015625 22.609375 22.328125 14.59375 
Q 28.65625 6.59375 39.40625 6.59375 
Q 50.140625 6.59375 56.421875 14.59375 
Q 62.703125 22.609375 62.703125 36.375 
Q 62.703125 50.203125 56.421875 58.203125 
Q 50.140625 66.21875 39.40625 66.21875 
z
M 39.40625 74.21875 
Q 54.734375 74.21875 63.90625 63.9375 
Q 73.09375 53.65625 73.09375 36.375 
Q 73.09375 19.140625 63.90625 8.859375 
Q 54.734375 -1.421875 39.40625 -1.421875 
Q 24.03125 -1.421875 14.8125 8.828125 
Q 5.609375 19.09375 5.609375 36.375 
Q 5.609375 53.65625 14.8125 63.9375 
Q 24.03125 74.21875 39.40625 74.21875 
z
" id="DejaVuSans-79"/>
     </defs>
     <use xlink:href="#DejaVuSans-80"/>
     <use x="60.302734" xlink:href="#DejaVuSans-83"/>
     <use x="123.779297" xlink:href="#DejaVuSans-79"/>
    </g>
   </g>
   <g id="text_14">
    <!-- BIPOP-CMA -->
    <g transform="translate(375.22944 157.353749)scale(0.17 -0.17)">
     <defs>
      <path d="M 19.671875 34.8125 
L 19.671875 8.109375 
L 35.5 8.109375 
Q 43.453125 8.109375 47.28125 11.40625 
Q 51.125 14.703125 51.125 21.484375 
Q 51.125 28.328125 47.28125 31.5625 
Q 43.453125 34.8125 35.5 34.8125 
z
M 19.671875 64.796875 
L 19.671875 42.828125 
L 34.28125 42.828125 
Q 41.5 42.828125 45.03125 45.53125 
Q 48.578125 48.25 48.578125 53.8125 
Q 48.578125 59.328125 45.03125 62.0625 
Q 41.5 64.796875 34.28125 64.796875 
z
M 9.8125 72.90625 
L 35.015625 72.90625 
Q 46.296875 72.90625 52.390625 68.21875 
Q 58.5 63.53125 58.5 54.890625 
Q 58.5 48.1875 55.375 44.234375 
Q 52.25 40.28125 46.1875 39.3125 
Q 53.46875 37.75 57.5 32.78125 
Q 61.53125 27.828125 61.53125 20.40625 
Q 61.53125 10.640625 54.890625 5.3125 
Q 48.25 0 35.984375 0 
L 9.8125 0 
z
" id="DejaVuSans-66"/>
      <path d="M 9.8125 72.90625 
L 19.671875 72.90625 
L 19.671875 0 
L 9.8125 0 
z
" id="DejaVuSans-73"/>
      <path d="M 64.40625 67.28125 
L 64.40625 56.890625 
Q 59.421875 61.53125 53.78125 63.8125 
Q 48.140625 66.109375 41.796875 66.109375 
Q 29.296875 66.109375 22.65625 58.46875 
Q 16.015625 50.828125 16.015625 36.375 
Q 16.015625 21.96875 22.65625 14.328125 
Q 29.296875 6.6875 41.796875 6.6875 
Q 48.140625 6.6875 53.78125 8.984375 
Q 59.421875 11.28125 64.40625 15.921875 
L 64.40625 5.609375 
Q 59.234375 2.09375 53.4375 0.328125 
Q 47.65625 -1.421875 41.21875 -1.421875 
Q 24.65625 -1.421875 15.125 8.703125 
Q 5.609375 18.84375 5.609375 36.375 
Q 5.609375 53.953125 15.125 64.078125 
Q 24.65625 74.21875 41.21875 74.21875 
Q 47.75 74.21875 53.53125 72.484375 
Q 59.328125 70.75 64.40625 67.28125 
z
" id="DejaVuSans-67"/>
      <path d="M 9.8125 72.90625 
L 24.515625 72.90625 
L 43.109375 23.296875 
L 61.8125 72.90625 
L 76.515625 72.90625 
L 76.515625 0 
L 66.890625 0 
L 66.890625 64.015625 
L 48.09375 14.015625 
L 38.1875 14.015625 
L 19.390625 64.015625 
L 19.390625 0 
L 9.8125 0 
z
" id="DejaVuSans-77"/>
      <path d="M 34.1875 63.1875 
L 20.796875 26.90625 
L 47.609375 26.90625 
z
M 28.609375 72.90625 
L 39.796875 72.90625 
L 67.578125 0 
L 57.328125 0 
L 50.6875 18.703125 
L 17.828125 18.703125 
L 11.1875 0 
L 0.78125 0 
z
" id="DejaVuSans-65"/>
     </defs>
     <use xlink:href="#DejaVuSans-66"/>
     <use x="68.603516" xlink:href="#DejaVuSans-73"/>
     <use x="98.095703" xlink:href="#DejaVuSans-80"/>
     <use x="158.398438" xlink:href="#DejaVuSans-79"/>
     <use x="237.109375" xlink:href="#DejaVuSans-80"/>
     <use x="295.162109" xlink:href="#DejaVuSans-45"/>
     <use x="331.246094" xlink:href="#DejaVuSans-67"/>
     <use x="401.070312" xlink:href="#DejaVuSans-77"/>
     <use x="487.349609" xlink:href="#DejaVuSans-65"/>
    </g>
   </g>
   <g id="text_15">
    <!-- best 2009 -->
    <g transform="translate(375.22944 16.923809)scale(0.17 -0.17)">
     <defs>
      <path d="M 48.6875 27.296875 
Q 48.6875 37.203125 44.609375 42.84375 
Q 40.53125 48.484375 33.40625 48.484375 
Q 26.265625 48.484375 22.1875 42.84375 
Q 18.109375 37.203125 18.109375 27.296875 
Q 18.109375 17.390625 22.1875 11.75 
Q 26.265625 6.109375 33.40625 6.109375 
Q 40.53125 6.109375 44.609375 11.75 
Q 48.6875 17.390625 48.6875 27.296875 
z
M 18.109375 46.390625 
Q 20.953125 51.265625 25.265625 53.625 
Q 29.59375 56 35.59375 56 
Q 45.5625 56 51.78125 48.09375 
Q 58.015625 40.1875 58.015625 27.296875 
Q 58.015625 14.40625 51.78125 6.484375 
Q 45.5625 -1.421875 35.59375 -1.421875 
Q 29.59375 -1.421875 25.265625 0.953125 
Q 20.953125 3.328125 18.109375 8.203125 
L 18.109375 0 
L 9.078125 0 
L 9.078125 75.984375 
L 18.109375 75.984375 
z
" id="DejaVuSans-98"/>
      <path d="M 10.984375 1.515625 
L 10.984375 10.5 
Q 14.703125 8.734375 18.5 7.8125 
Q 22.3125 6.890625 25.984375 6.890625 
Q 35.75 6.890625 40.890625 13.453125 
Q 46.046875 20.015625 46.78125 33.40625 
Q 43.953125 29.203125 39.59375 26.953125 
Q 35.25 24.703125 29.984375 24.703125 
Q 19.046875 24.703125 12.671875 31.3125 
Q 6.296875 37.9375 6.296875 49.421875 
Q 6.296875 60.640625 12.9375 67.421875 
Q 19.578125 74.21875 30.609375 74.21875 
Q 43.265625 74.21875 49.921875 64.515625 
Q 56.59375 54.828125 56.59375 36.375 
Q 56.59375 19.140625 48.40625 8.859375 
Q 40.234375 -1.421875 26.421875 -1.421875 
Q 22.703125 -1.421875 18.890625 -0.6875 
Q 15.09375 0.046875 10.984375 1.515625 
z
M 30.609375 32.421875 
Q 37.25 32.421875 41.125 36.953125 
Q 45.015625 41.5 45.015625 49.421875 
Q 45.015625 57.28125 41.125 61.84375 
Q 37.25 66.40625 30.609375 66.40625 
Q 23.96875 66.40625 20.09375 61.84375 
Q 16.21875 57.28125 16.21875 49.421875 
Q 16.21875 41.5 20.09375 36.953125 
Q 23.96875 32.421875 30.609375 32.421875 
z
" id="DejaVuSans-57"/>
     </defs>
     <use xlink:href="#DejaVuSans-98"/>
     <use x="63.476562" xlink:href="#DejaVuSans-101"/>
     <use x="125" xlink:href="#DejaVuSans-115"/>
     <use x="177.099609" xlink:href="#DejaVuSans-116"/>
     <use x="216.308594" xlink:href="#DejaVuSans-32"/>
     <use x="248.095703" xlink:href="#DejaVuSans-50"/>
     <use x="311.71875" xlink:href="#DejaVuSans-48"/>
     <use x="375.341797" xlink:href="#DejaVuSans-48"/>
     <use x="438.964844" xlink:href="#DejaVuSans-57"/>
    </g>
   </g>
   <g id="text_16">
    <!-- bbob f1-f5, 40-D -->
    <g transform="translate(60.41088 14.161286)scale(0.102 -0.102)">
     <defs>
      <path d="M 10.796875 72.90625 
L 49.515625 72.90625 
L 49.515625 64.59375 
L 19.828125 64.59375 
L 19.828125 46.734375 
Q 21.96875 47.46875 24.109375 47.828125 
Q 26.265625 48.1875 28.421875 48.1875 
Q 40.625 48.1875 47.75 41.5 
Q 54.890625 34.8125 54.890625 23.390625 
Q 54.890625 11.625 47.5625 5.09375 
Q 40.234375 -1.421875 26.90625 -1.421875 
Q 22.3125 -1.421875 17.546875 -0.640625 
Q 12.796875 0.140625 7.71875 1.703125 
L 7.71875 11.625 
Q 12.109375 9.234375 16.796875 8.0625 
Q 21.484375 6.890625 26.703125 6.890625 
Q 35.15625 6.890625 40.078125 11.328125 
Q 45.015625 15.765625 45.015625 23.390625 
Q 45.015625 31 40.078125 35.4375 
Q 35.15625 39.890625 26.703125 39.890625 
Q 22.75 39.890625 18.8125 39.015625 
Q 14.890625 38.140625 10.796875 36.28125 
z
" id="DejaVuSans-53"/>
      <path d="M 19.671875 64.796875 
L 19.671875 8.109375 
L 31.59375 8.109375 
Q 46.6875 8.109375 53.6875 14.9375 
Q 60.6875 21.78125 60.6875 36.53125 
Q 60.6875 51.171875 53.6875 57.984375 
Q 46.6875 64.796875 31.59375 64.796875 
z
M 9.8125 72.90625 
L 30.078125 72.90625 
Q 51.265625 72.90625 61.171875 64.09375 
Q 71.09375 55.28125 71.09375 36.53125 
Q 71.09375 17.671875 61.125 8.828125 
Q 51.171875 0 30.078125 0 
L 9.8125 0 
z
" id="DejaVuSans-68"/>
     </defs>
     <use xlink:href="#DejaVuSans-98"/>
     <use x="63.476562" xlink:href="#DejaVuSans-98"/>
     <use x="126.953125" xlink:href="#DejaVuSans-111"/>
     <use x="188.134766" xlink:href="#DejaVuSans-98"/>
     <use x="251.611328" xlink:href="#DejaVuSans-32"/>
     <use x="283.398438" xlink:href="#DejaVuSans-102"/>
     <use x="318.603516" xlink:href="#DejaVuSans-49"/>
     <use x="382.226562" xlink:href="#DejaVuSans-45"/>
     <use x="418.310547" xlink:href="#DejaVuSans-102"/>
     <use x="453.515625" xlink:href="#DejaVuSans-53"/>
     <use x="517.138672" xlink:href="#DejaVuSans-44"/>
     <use x="548.925781" xlink:href="#DejaVuSans-32"/>
     <use x="580.712891" xlink:href="#DejaVuSans-52"/>
     <use x="644.335938" xlink:href="#DejaVuSans-48"/>
     <use x="707.958984" xlink:href="#DejaVuSans-45"/>
     <use x="744.042969" xlink:href="#DejaVuSans-68"/>
    </g>
    <!-- 51 targets: 100..1e-08 -->
    <g transform="translate(60.41088 25.583055)scale(0.102 -0.102)">
     <defs>
      <path d="M 11.71875 12.40625 
L 22.015625 12.40625 
L 22.015625 0 
L 11.71875 0 
z
M 11.71875 51.703125 
L 22.015625 51.703125 
L 22.015625 39.3125 
L 11.71875 39.3125 
z
" id="DejaVuSans-58"/>
     </defs>
     <use xlink:href="#DejaVuSans-53"/>
     <use x="63.623047" xlink:href="#DejaVuSans-49"/>
     <use x="127.246094" xlink:href="#DejaVuSans-32"/>
     <use x="159.033203" xlink:href="#DejaVuSans-116"/>
     <use x="198.242188" xlink:href="#DejaVuSans-97"/>
     <use x="259.521484" xlink:href="#DejaVuSans-114"/>
     <use x="298.884766" xlink:href="#DejaVuSans-103"/>
     <use x="362.361328" xlink:href="#DejaVuSans-101"/>
     <use x="423.884766" xlink:href="#DejaVuSans-116"/>
     <use x="463.09375" xlink:href="#DejaVuSans-115"/>
     <use x="515.193359" xlink:href="#DejaVuSans-58"/>
     <use x="548.884766" xlink:href="#DejaVuSans-32"/>
     <use x="580.671875" xlink:href="#DejaVuSans-49"/>
     <use x="644.294922" xlink:href="#DejaVuSans-48"/>
     <use x="707.917969" xlink:href="#DejaVuSans-48"/>
     <use x="771.541016" xlink:href="#DejaVuSans-46"/>
     <use x="803.328125" xlink:href="#DejaVuSans-46"/>
     <use x="835.115234" xlink:href="#DejaVuSans-49"/>
     <use x="898.738281" xlink:href="#DejaVuSans-101"/>
     <use x="960.261719" xlink:href="#DejaVuSans-45"/>
     <use x="996.345703" xlink:href="#DejaVuSans-48"/>
     <use x="1059.96875" xlink:href="#DejaVuSans-56"/>
    </g>
    <!-- 15 instances -->
    <g transform="translate(60.41088 37.004824)scale(0.102 -0.102)">
     <use xlink:href="#DejaVuSans-49"/>
     <use x="63.623047" xlink:href="#DejaVuSans-53"/>
     <use x="127.246094" xlink:href="#DejaVuSans-32"/>
     <use x="159.033203" xlink:href="#DejaVuSans-105"/>
     <use x="186.816406" xlink:href="#DejaVuSans-110"/>
     <use x="250.195312" xlink:href="#DejaVuSans-115"/>
     <use x="302.294922" xlink:href="#DejaVuSans-116"/>
     <use x="341.503906" xlink:href="#DejaVuSans-97"/>
     <use x="402.783203" xlink:href="#DejaVuSans-110"/>
     <use x="466.162109" xlink:href="#DejaVuSans-99"/>
     <use x="521.142578" xlink:href="#DejaVuSans-101"/>
     <use x="582.666016" xlink:href="#DejaVuSans-115"/>
    </g>
   </g>
   <g id="text_17">
    <!-- v2.4 -->
    <g style="fill:#808080;" transform="translate(187.233062 293.909432)scale(0.1 -0.1)">
     <use xlink:href="#DejaVuSans-118"/>
     <use x="59.179688" xlink:href="#DejaVuSans-50"/>
     <use x="122.802734" xlink:href="#DejaVuSans-46"/>
     <use x="154.589844" xlink:href="#DejaVuSans-52"/>
    </g>
   </g>
  </g>
 </g>
 <defs>
  <clipPath id="p1c2bfa16e9">
   <rect height="295.488" width="281.088" x="57.6" y="3.456"/>
  </clipPath>
 </defs>
</svg>
