<?xml version="1.0" encoding="utf-8" standalone="no"?>
<!DOCTYPE svg PUBLIC "-//W3C//DTD SVG 1.1//EN"
  "http://www.w3.org/Graphics/SVG/1.1/DTD/svg11.dtd">
<!-- Created with matplotlib (https://matplotlib.org/) -->
<svg height="345.6pt" version="1.1" viewBox="0 0 460.8 345.6" width="460.8pt" xmlns="http://www.w3.org/2000/svg" xmlns:xlink="http://www.w3.org/1999/xlink">
 <metadata>
  <rdf:RDF xmlns:cc="http://creativecommons.org/ns#" xmlns:dc="http://purl.org/dc/elements/1.1/" xmlns:rdf="http://www.w3.org/1999/02/22-rdf-syntax-ns#">
   <cc:Work>
    <dc:type rdf:resource="http://purl.org/dc/dcmitype/StillImage"/>
    <dc:date>2021-05-01T17:09:00.290437</dc:date>
    <dc:format>image/svg+xml</dc:format>
    <dc:creator>
     <cc:Agent>
      <dc:title>Matplotlib v3.3.2, https://matplotlib.org/</dc:title>
     </cc:Agent>
    </dc:creator>
   </cc:Work>
  </rdf:RDF>
 </metadata>
 <defs>
  <style type="text/css">*{stroke-linecap:butt;stroke-linejoin:round;}</style>
 </defs>
 <g id="figure_1">
  <g id="patch_1">
   <path d="M 0 345.6 
L 460.8 345.6 
L 460.8 0 
L 0 0 
z
" style="fill:#ffffff;"/>
  </g>
  <g id="axes_1">
   <g id="patch_2">
    <path d="M 57.6 298.944 
L 338.688 298.944 
L 338.688 3.456 
L 57.6 3.456 
z
" style="fill:#ffffff;"/>
   </g>
   <g id="line2d_1">
    <path d="M 5.356583 298.944 
L 5.356583 278.292538 
L 24.515591 278.292538 
L 24.515591 275.997931 
L 39.291857 275.997931 
L 39.291857 273.703324 
L 47.174153 273.703324 
L 47.174153 272.556021 
L 62.175444 272.556021 
L 62.175444 271.408718 
L 77.609874 271.408718 
L 77.609874 270.261414 
L 88.255778 270.261414 
L 88.255778 269.114111 
L 89.835723 269.114111 
L 89.835723 267.966807 
L 101.785851 267.966807 
L 101.785851 266.819504 
L 105.114708 266.819504 
L 105.114708 265.6722 
L 111.104637 265.6722 
L 111.104637 264.524897 
L 112.58145 264.524897 
L 112.58145 263.377593 
L 115.077025 263.377593 
L 115.077025 262.23029 
L 117.202696 262.23029 
L 117.202696 261.082987 
L 117.514373 261.082987 
L 117.514373 259.935683 
L 122.761498 259.935683 
L 122.761498 258.78838 
L 122.885768 258.78838 
L 122.885768 257.641076 
L 126.338353 257.641076 
L 126.338353 256.493773 
L 127.325746 256.493773 
L 127.325746 255.346469 
L 130.65135 255.346469 
L 130.65135 254.199166 
L 131.490249 254.199166 
L 131.490249 253.051863 
L 132.577122 253.051863 
L 132.577122 251.904559 
L 134.776584 251.904559 
L 134.776584 250.757256 
L 136.237377 250.757256 
L 136.237377 249.609952 
L 139.285267 249.609952 
L 139.285267 248.462649 
L 142.317805 248.462649 
L 142.317805 247.315345 
L 144.432703 247.315345 
L 144.432703 246.168042 
L 148.549469 246.168042 
L 148.549469 245.020738 
L 148.686322 245.020738 
L 148.686322 243.873435 
L 149.876341 243.873435 
L 149.876341 242.726132 
L 150.020631 242.726132 
L 150.020631 241.578828 
L 154.671277 241.578828 
L 154.671277 240.431525 
L 156.080243 240.431525 
L 156.080243 239.284221 
L 158.009087 239.284221 
L 158.009087 238.136918 
L 158.143521 238.136918 
L 158.143521 236.989614 
L 158.70027 236.989614 
L 158.705563 234.695008 
L 160.408554 234.695008 
L 160.408554 233.547704 
L 160.706018 233.547704 
L 160.706018 232.400401 
L 162.162965 232.400401 
L 162.162965 231.253097 
L 164.954803 231.253097 
L 164.954803 230.105794 
L 167.343034 230.105794 
L 167.343034 228.95849 
L 169.506047 228.95849 
L 169.506047 227.811187 
L 175.519995 227.811187 
L 175.519995 226.663884 
L 175.776416 226.663884 
L 175.776416 225.51658 
L 176.40336 225.51658 
L 176.40336 224.369277 
L 177.67923 224.369277 
L 177.67923 223.221973 
L 178.516462 223.221973 
L 178.516462 222.07467 
L 179.348583 222.07467 
L 179.348583 220.927366 
L 179.83984 220.927366 
L 179.83984 219.780063 
L 180.640336 219.780063 
L 180.640336 218.632759 
L 181.997465 218.632759 
L 181.997465 217.485456 
L 182.180244 217.485456 
L 182.180244 216.338153 
L 183.118098 216.338153 
L 183.118098 215.190849 
L 183.31797 215.190849 
L 183.31797 214.043546 
L 183.470223 214.043546 
L 183.470223 212.896242 
L 184.27641 212.896242 
L 184.27641 211.748939 
L 185.355668 211.748939 
L 185.355668 210.601635 
L 185.526477 210.601635 
L 185.573597 208.307029 
L 186.362258 208.307029 
L 186.362258 207.159725 
L 186.82796 207.159725 
L 186.82796 206.012422 
L 187.489524 206.012422 
L 187.489524 204.865118 
L 188.535416 204.865118 
L 188.535416 203.717815 
L 189.152035 203.717815 
L 189.152035 202.570511 
L 191.764814 202.570511 
L 191.764814 201.423208 
L 192.062389 201.423208 
L 192.062389 200.275904 
L 192.689537 200.275904 
L 192.779407 197.981298 
L 194.586262 197.981298 
L 194.662178 195.686691 
L 195.517548 195.686691 
L 195.517548 194.539387 
L 195.646893 194.539387 
L 195.646893 193.392084 
L 195.90368 193.392084 
L 195.90368 192.24478 
L 196.111566 192.24478 
L 196.111566 191.097477 
L 196.300767 191.097477 
L 196.300767 189.950174 
L 197.168816 189.950174 
L 197.168816 188.80287 
L 197.547541 188.80287 
L 197.547541 187.655567 
L 198.508401 187.655567 
L 198.508401 186.508263 
L 198.855169 186.508263 
L 198.885057 184.213656 
L 198.98046 184.213656 
L 198.98046 183.066353 
L 199.297163 183.066353 
L 199.297163 181.91905 
L 199.621143 181.91905 
L 199.621143 180.771746 
L 199.842674 180.771746 
L 199.842674 179.624443 
L 200.162415 179.624443 
L 200.162415 178.477139 
L 200.423733 178.477139 
L 200.423733 177.329836 
L 201.579109 177.329836 
L 201.579109 176.182532 
L 201.700285 176.182532 
L 201.700285 175.035229 
L 201.932376 175.035229 
L 201.932376 173.887925 
L 202.12349 173.887925 
L 202.12349 172.740622 
L 202.344852 172.740622 
L 202.344852 171.593319 
L 203.250203 171.593319 
L 203.250203 170.446015 
L 203.923418 170.446015 
L 203.975995 168.151408 
L 204.641658 168.151408 
L 204.740164 165.856801 
L 204.851823 165.856801 
L 204.960907 163.562195 
L 205.074688 163.562195 
L 205.161937 161.267588 
L 206.053846 161.267588 
L 206.053846 160.120284 
L 206.227298 160.120284 
L 206.227298 158.972981 
L 206.867606 158.972981 
L 206.867606 157.825677 
L 207.531974 157.825677 
L 207.531974 156.678374 
L 207.914053 156.678374 
L 207.914053 155.53107 
L 208.107761 155.53107 
L 208.107761 154.383767 
L 208.40591 154.383767 
L 208.40591 153.236464 
L 210.163179 153.236464 
L 210.163179 152.08916 
L 210.619193 152.08916 
L 210.619193 150.941857 
L 210.790141 150.941857 
L 210.790141 149.794553 
L 210.908577 149.794553 
L 211.006311 147.499946 
L 211.080141 147.499946 
L 211.173655 145.20534 
L 211.291859 145.20534 
L 211.291859 144.058036 
L 211.458554 144.058036 
L 211.458554 142.910733 
L 211.721414 142.910733 
L 211.721414 141.763429 
L 211.910013 141.763429 
L 211.910013 140.616126 
L 212.154107 140.616126 
L 212.154107 139.468822 
L 212.37314 139.468822 
L 212.37314 138.321519 
L 212.487752 138.321519 
L 212.487752 137.174215 
L 212.670562 137.174215 
L 212.670562 136.026912 
L 212.796578 136.026912 
L 212.79753 133.732305 
L 212.936925 133.732305 
L 213.030884 130.290395 
L 213.136833 130.290395 
L 213.22926 127.995788 
L 213.325472 127.995788 
L 213.325472 126.848485 
L 215.922694 126.848485 
L 215.922694 125.701181 
L 216.681994 125.701181 
L 216.681994 124.553878 
L 217.137085 124.553878 
L 217.236552 121.111967 
L 217.278758 121.111967 
L 217.347377 118.817361 
L 217.801372 118.817361 
L 217.887002 115.37545 
L 217.943531 115.37545 
L 218.026262 111.93354 
L 218.067569 111.93354 
L 218.119746 109.638933 
L 219.634684 109.638933 
L 219.741303 105.049719 
L 219.781855 105.049719 
L 219.891701 100.460506 
L 219.9221 100.460506 
L 220.030677 95.871292 
L 220.056911 95.871292 
L 220.056911 94.723988 
L 221.994607 94.723988 
L 221.994607 93.576685 
L 223.933015 93.576685 
L 224.029966 90.134775 
L 225.901486 90.134775 
L 226.005812 86.692864 
L 226.049339 86.692864 
L 226.138339 83.250954 
L 226.175238 83.250954 
L 226.274044 79.809044 
L 226.322114 79.809044 
L 226.414206 76.367133 
L 226.457108 76.367133 
L 226.564928 70.630616 
L 226.578002 70.630616 
L 226.578002 69.483313 
L 227.639364 69.483313 
L 227.653637 63.746796 
L 228.643036 63.746796 
L 228.649271 61.452189 
L 232.304671 61.452189 
L 232.382888 58.010278 
L 232.421016 58.010278 
L 232.525958 53.421065 
L 232.558947 53.421065 
L 232.639849 49.979154 
L 232.678714 49.979154 
L 232.779435 45.389941 
L 232.81293 45.389941 
L 232.892553 41.94803 
L 273.210485 41.94803 
L 273.210485 40.800727 
L 273.999006 40.800727 
L 273.999006 39.653423 
L 275.136672 39.653423 
L 275.136672 38.50612 
L 276.093797 38.50612 
L 276.093797 37.358817 
L 278.065209 37.358817 
L 278.169788 35.06421 
L 279.300091 35.06421 
L 279.404407 25.885782 
L 279.416665 25.885782 
L 279.515885 15.560051 
L 279.529546 15.560051 
L 279.609605 6.381624 
L 338.688 6.381624 
L 338.688 6.381624 
" style="fill:none;stroke:#f5deb3;stroke-linecap:square;stroke-width:4;"/>
   </g>
   <g id="line2d_2">
    <defs>
     <path d="M -0 7.778175 
L 7.778175 0 
L 0 -7.778175 
L -7.778175 -0 
z
" id="mb85e2d63c5" style="stroke:#f5deb3;stroke-linejoin:miter;stroke-width:1.5;"/>
    </defs>
    <g>
     <use style="fill:#f5deb3;stroke:#f5deb3;stroke-linejoin:miter;stroke-width:1.5;" x="154.671277" xlink:href="#mb85e2d63c5" y="240.431525"/>
     <use style="fill:#f5deb3;stroke:#f5deb3;stroke-linejoin:miter;stroke-width:1.5;" x="210.908577" xlink:href="#mb85e2d63c5" y="148.64725"/>
     <use style="fill:#f5deb3;stroke:#f5deb3;stroke-linejoin:miter;stroke-width:1.5;" x="232.892553" xlink:href="#mb85e2d63c5" y="43.095334"/>
     <use style="fill:#f5deb3;stroke:#f5deb3;stroke-linejoin:miter;stroke-width:1.5;" x="279.609605" xlink:href="#mb85e2d63c5" y="6.381624"/>
     <use style="fill:#f5deb3;stroke:#f5deb3;stroke-linejoin:miter;stroke-width:1.5;" x="279.609605" xlink:href="#mb85e2d63c5" y="6.381624"/>
     <use style="fill:#f5deb3;stroke:#f5deb3;stroke-linejoin:miter;stroke-width:1.5;" x="338.688" xlink:href="#mb85e2d63c5" y="6.381624"/>
    </g>
   </g>
   <g id="line2d_3">
    <path style="fill:none;stroke:#f5deb3;stroke-linecap:square;stroke-width:4;"/>
    <g/>
   </g>
   <g id="line2d_4">
    <path d="M 338.688 6.381624 
L 369.60768 12.232871 
" style="fill:none;stroke:#f5deb3;stroke-linecap:square;stroke-width:4;"/>
    <g>
     <use style="fill:#f5deb3;stroke:#f5deb3;stroke-linejoin:miter;stroke-width:1.5;" x="338.688" xlink:href="#mb85e2d63c5" y="6.381624"/>
     <use style="fill:#f5deb3;stroke:#f5deb3;stroke-linejoin:miter;stroke-width:1.5;" x="369.60768" xlink:href="#mb85e2d63c5" y="12.232871"/>
    </g>
   </g>
   <g id="matplotlib.axis_1">
    <g id="xtick_1">
     <g id="line2d_5">
      <path clip-path="url(#p808183391e)" d="M 57.6 298.944 
L 57.6 3.456 
" style="fill:none;stroke:#b0b0b0;stroke-linecap:square;stroke-width:0.8;"/>
     </g>
     <g id="line2d_6">
      <defs>
       <path d="M 0 0 
L 0 3.5 
" id="m0332ab6124" style="stroke:#000000;stroke-width:0.8;"/>
      </defs>
      <g>
       <use style="stroke:#000000;stroke-width:0.8;" x="57.6" xlink:href="#m0332ab6124" y="298.944"/>
      </g>
     </g>
     <g id="text_1">
      <!-- 0 -->
      <g transform="translate(51.2375 321.140875)scale(0.2 -0.2)">
       <defs>
        <path d="M 31.78125 66.40625 
Q 24.171875 66.40625 20.328125 58.90625 
Q 16.5 51.421875 16.5 36.375 
Q 16.5 21.390625 20.328125 13.890625 
Q 24.171875 6.390625 31.78125 6.390625 
Q 39.453125 6.390625 43.28125 13.890625 
Q 47.125 21.390625 47.125 36.375 
Q 47.125 51.421875 43.28125 58.90625 
Q 39.453125 66.40625 31.78125 66.40625 
z
M 31.78125 74.21875 
Q 44.046875 74.21875 50.515625 64.515625 
Q 56.984375 54.828125 56.984375 36.375 
Q 56.984375 17.96875 50.515625 8.265625 
Q 44.046875 -1.421875 31.78125 -1.421875 
Q 19.53125 -1.421875 13.0625 8.265625 
Q 6.59375 17.96875 6.59375 36.375 
Q 6.59375 54.828125 13.0625 64.515625 
Q 19.53125 74.21875 31.78125 74.21875 
z
" id="DejaVuSans-48"/>
       </defs>
       <use xlink:href="#DejaVuSans-48"/>
      </g>
     </g>
    </g>
    <g id="xtick_2">
     <g id="line2d_7">
      <path clip-path="url(#p808183391e)" d="M 137.910857 298.944 
L 137.910857 3.456 
" style="fill:none;stroke:#b0b0b0;stroke-linecap:square;stroke-width:0.8;"/>
     </g>
     <g id="line2d_8">
      <g>
       <use style="stroke:#000000;stroke-width:0.8;" x="137.910857" xlink:href="#m0332ab6124" y="298.944"/>
      </g>
     </g>
     <g id="text_2">
      <!-- 2 -->
      <g transform="translate(131.548357 321.140875)scale(0.2 -0.2)">
       <defs>
        <path d="M 19.1875 8.296875 
L 53.609375 8.296875 
L 53.609375 0 
L 7.328125 0 
L 7.328125 8.296875 
Q 12.9375 14.109375 22.625 23.890625 
Q 32.328125 33.6875 34.8125 36.53125 
Q 39.546875 41.84375 41.421875 45.53125 
Q 43.3125 49.21875 43.3125 52.78125 
Q 43.3125 58.59375 39.234375 62.25 
Q 35.15625 65.921875 28.609375 65.921875 
Q 23.96875 65.921875 18.8125 64.3125 
Q 13.671875 62.703125 7.8125 59.421875 
L 7.8125 69.390625 
Q 13.765625 71.78125 18.9375 73 
Q 24.125 74.21875 28.421875 74.21875 
Q 39.75 74.21875 46.484375 68.546875 
Q 53.21875 62.890625 53.21875 53.421875 
Q 53.21875 48.921875 51.53125 44.890625 
Q 49.859375 40.875 45.40625 35.40625 
Q 44.1875 33.984375 37.640625 27.21875 
Q 31.109375 20.453125 19.1875 8.296875 
z
" id="DejaVuSans-50"/>
       </defs>
       <use xlink:href="#DejaVuSans-50"/>
      </g>
     </g>
    </g>
    <g id="xtick_3">
     <g id="line2d_9">
      <path clip-path="url(#p808183391e)" d="M 218.221714 298.944 
L 218.221714 3.456 
" style="fill:none;stroke:#b0b0b0;stroke-linecap:square;stroke-width:0.8;"/>
     </g>
     <g id="line2d_10">
      <g>
       <use style="stroke:#000000;stroke-width:0.8;" x="218.221714" xlink:href="#m0332ab6124" y="298.944"/>
      </g>
     </g>
     <g id="text_3">
      <!-- 4 -->
      <g transform="translate(211.859214 321.140875)scale(0.2 -0.2)">
       <defs>
        <path d="M 37.796875 64.3125 
L 12.890625 25.390625 
L 37.796875 25.390625 
z
M 35.203125 72.90625 
L 47.609375 72.90625 
L 47.609375 25.390625 
L 58.015625 25.390625 
L 58.015625 17.1875 
L 47.609375 17.1875 
L 47.609375 0 
L 37.796875 0 
L 37.796875 17.1875 
L 4.890625 17.1875 
L 4.890625 26.703125 
z
" id="DejaVuSans-52"/>
       </defs>
       <use xlink:href="#DejaVuSans-52"/>
      </g>
     </g>
    </g>
    <g id="xtick_4">
     <g id="line2d_11">
      <path clip-path="url(#p808183391e)" d="M 298.532571 298.944 
L 298.532571 3.456 
" style="fill:none;stroke:#b0b0b0;stroke-linecap:square;stroke-width:0.8;"/>
     </g>
     <g id="line2d_12">
      <g>
       <use style="stroke:#000000;stroke-width:0.8;" x="298.532571" xlink:href="#m0332ab6124" y="298.944"/>
      </g>
     </g>
     <g id="text_4">
      <!-- 6 -->
      <g transform="translate(292.170071 321.140875)scale(0.2 -0.2)">
       <defs>
        <path d="M 33.015625 40.375 
Q 26.375 40.375 22.484375 35.828125 
Q 18.609375 31.296875 18.609375 23.390625 
Q 18.609375 15.53125 22.484375 10.953125 
Q 26.375 6.390625 33.015625 6.390625 
Q 39.65625 6.390625 43.53125 10.953125 
Q 47.40625 15.53125 47.40625 23.390625 
Q 47.40625 31.296875 43.53125 35.828125 
Q 39.65625 40.375 33.015625 40.375 
z
M 52.59375 71.296875 
L 52.59375 62.3125 
Q 48.875 64.0625 45.09375 64.984375 
Q 41.3125 65.921875 37.59375 65.921875 
Q 27.828125 65.921875 22.671875 59.328125 
Q 17.53125 52.734375 16.796875 39.40625 
Q 19.671875 43.65625 24.015625 45.921875 
Q 28.375 48.1875 33.59375 48.1875 
Q 44.578125 48.1875 50.953125 41.515625 
Q 57.328125 34.859375 57.328125 23.390625 
Q 57.328125 12.15625 50.6875 5.359375 
Q 44.046875 -1.421875 33.015625 -1.421875 
Q 20.359375 -1.421875 13.671875 8.265625 
Q 6.984375 17.96875 6.984375 36.375 
Q 6.984375 53.65625 15.1875 63.9375 
Q 23.390625 74.21875 37.203125 74.21875 
Q 40.921875 74.21875 44.703125 73.484375 
Q 48.484375 72.75 52.59375 71.296875 
z
" id="DejaVuSans-54"/>
       </defs>
       <use xlink:href="#DejaVuSans-54"/>
      </g>
     </g>
    </g>
    <g id="xtick_5">
     <g id="line2d_13">
      <path clip-path="url(#p808183391e)" d="M 97.755429 298.944 
L 97.755429 3.456 
" style="fill:none;stroke:#b0b0b0;stroke-linecap:square;stroke-width:0.8;"/>
     </g>
     <g id="line2d_14">
      <defs>
       <path d="M 0 0 
L 0 2 
" id="m38e29ab1fb" style="stroke:#000000;stroke-width:0.6;"/>
      </defs>
      <g>
       <use style="stroke:#000000;stroke-width:0.6;" x="97.755429" xlink:href="#m38e29ab1fb" y="298.944"/>
      </g>
     </g>
    </g>
    <g id="xtick_6">
     <g id="line2d_15">
      <path clip-path="url(#p808183391e)" d="M 178.066286 298.944 
L 178.066286 3.456 
" style="fill:none;stroke:#b0b0b0;stroke-linecap:square;stroke-width:0.8;"/>
     </g>
     <g id="line2d_16">
      <g>
       <use style="stroke:#000000;stroke-width:0.6;" x="178.066286" xlink:href="#m38e29ab1fb" y="298.944"/>
      </g>
     </g>
    </g>
    <g id="xtick_7">
     <g id="line2d_17">
      <path clip-path="url(#p808183391e)" d="M 258.377143 298.944 
L 258.377143 3.456 
" style="fill:none;stroke:#b0b0b0;stroke-linecap:square;stroke-width:0.8;"/>
     </g>
     <g id="line2d_18">
      <g>
       <use style="stroke:#000000;stroke-width:0.6;" x="258.377143" xlink:href="#m38e29ab1fb" y="298.944"/>
      </g>
     </g>
    </g>
    <g id="xtick_8">
     <g id="line2d_19">
      <path clip-path="url(#p808183391e)" d="M 338.688 298.944 
L 338.688 3.456 
" style="fill:none;stroke:#b0b0b0;stroke-linecap:square;stroke-width:0.8;"/>
     </g>
     <g id="line2d_20">
      <g>
       <use style="stroke:#000000;stroke-width:0.6;" x="338.688" xlink:href="#m38e29ab1fb" y="298.944"/>
      </g>
     </g>
    </g>
    <g id="text_5">
     <!-- log10(# f-evals / dimension) -->
     <g transform="translate(77.764078 342.217594)scale(0.17 -0.17)">
      <defs>
       <path d="M 9.421875 75.984375 
L 18.40625 75.984375 
L 18.40625 0 
L 9.421875 0 
z
" id="DejaVuSans-108"/>
       <path d="M 30.609375 48.390625 
Q 23.390625 48.390625 19.1875 42.75 
Q 14.984375 37.109375 14.984375 27.296875 
Q 14.984375 17.484375 19.15625 11.84375 
Q 23.34375 6.203125 30.609375 6.203125 
Q 37.796875 6.203125 41.984375 11.859375 
Q 46.1875 17.53125 46.1875 27.296875 
Q 46.1875 37.015625 41.984375 42.703125 
Q 37.796875 48.390625 30.609375 48.390625 
z
M 30.609375 56 
Q 42.328125 56 49.015625 48.375 
Q 55.71875 40.765625 55.71875 27.296875 
Q 55.71875 13.875 49.015625 6.21875 
Q 42.328125 -1.421875 30.609375 -1.421875 
Q 18.84375 -1.421875 12.171875 6.21875 
Q 5.515625 13.875 5.515625 27.296875 
Q 5.515625 40.765625 12.171875 48.375 
Q 18.84375 56 30.609375 56 
z
" id="DejaVuSans-111"/>
       <path d="M 45.40625 27.984375 
Q 45.40625 37.75 41.375 43.109375 
Q 37.359375 48.484375 30.078125 48.484375 
Q 22.859375 48.484375 18.828125 43.109375 
Q 14.796875 37.75 14.796875 27.984375 
Q 14.796875 18.265625 18.828125 12.890625 
Q 22.859375 7.515625 30.078125 7.515625 
Q 37.359375 7.515625 41.375 12.890625 
Q 45.40625 18.265625 45.40625 27.984375 
z
M 54.390625 6.78125 
Q 54.390625 -7.171875 48.1875 -13.984375 
Q 42 -20.796875 29.203125 -20.796875 
Q 24.46875 -20.796875 20.265625 -20.09375 
Q 16.0625 -19.390625 12.109375 -17.921875 
L 12.109375 -9.1875 
Q 16.0625 -11.328125 19.921875 -12.34375 
Q 23.78125 -13.375 27.78125 -13.375 
Q 36.625 -13.375 41.015625 -8.765625 
Q 45.40625 -4.15625 45.40625 5.171875 
L 45.40625 9.625 
Q 42.625 4.78125 38.28125 2.390625 
Q 33.9375 0 27.875 0 
Q 17.828125 0 11.671875 7.65625 
Q 5.515625 15.328125 5.515625 27.984375 
Q 5.515625 40.671875 11.671875 48.328125 
Q 17.828125 56 27.875 56 
Q 33.9375 56 38.28125 53.609375 
Q 42.625 51.21875 45.40625 46.390625 
L 45.40625 54.6875 
L 54.390625 54.6875 
z
" id="DejaVuSans-103"/>
       <path d="M 12.40625 8.296875 
L 28.515625 8.296875 
L 28.515625 63.921875 
L 10.984375 60.40625 
L 10.984375 69.390625 
L 28.421875 72.90625 
L 38.28125 72.90625 
L 38.28125 8.296875 
L 54.390625 8.296875 
L 54.390625 0 
L 12.40625 0 
z
" id="DejaVuSans-49"/>
       <path d="M 31 75.875 
Q 24.46875 64.65625 21.28125 53.65625 
Q 18.109375 42.671875 18.109375 31.390625 
Q 18.109375 20.125 21.3125 9.0625 
Q 24.515625 -2 31 -13.1875 
L 23.1875 -13.1875 
Q 15.875 -1.703125 12.234375 9.375 
Q 8.59375 20.453125 8.59375 31.390625 
Q 8.59375 42.28125 12.203125 53.3125 
Q 15.828125 64.359375 23.1875 75.875 
z
" id="DejaVuSans-40"/>
       <path d="M 51.125 44 
L 36.921875 44 
L 32.8125 27.6875 
L 47.125 27.6875 
z
M 43.796875 71.78125 
L 38.71875 51.515625 
L 52.984375 51.515625 
L 58.109375 71.78125 
L 65.921875 71.78125 
L 60.890625 51.515625 
L 76.125 51.515625 
L 76.125 44 
L 58.984375 44 
L 54.984375 27.6875 
L 70.515625 27.6875 
L 70.515625 20.21875 
L 53.078125 20.21875 
L 48 0 
L 40.1875 0 
L 45.21875 20.21875 
L 30.90625 20.21875 
L 25.875 0 
L 18.015625 0 
L 23.09375 20.21875 
L 7.71875 20.21875 
L 7.71875 27.6875 
L 24.90625 27.6875 
L 29 44 
L 13.28125 44 
L 13.28125 51.515625 
L 30.90625 51.515625 
L 35.890625 71.78125 
z
" id="DejaVuSans-35"/>
       <path id="DejaVuSans-32"/>
       <path d="M 37.109375 75.984375 
L 37.109375 68.5 
L 28.515625 68.5 
Q 23.6875 68.5 21.796875 66.546875 
Q 19.921875 64.59375 19.921875 59.515625 
L 19.921875 54.6875 
L 34.71875 54.6875 
L 34.71875 47.703125 
L 19.921875 47.703125 
L 19.921875 0 
L 10.890625 0 
L 10.890625 47.703125 
L 2.296875 47.703125 
L 2.296875 54.6875 
L 10.890625 54.6875 
L 10.890625 58.5 
Q 10.890625 67.625 15.140625 71.796875 
Q 19.390625 75.984375 28.609375 75.984375 
z
" id="DejaVuSans-102"/>
       <path d="M 4.890625 31.390625 
L 31.203125 31.390625 
L 31.203125 23.390625 
L 4.890625 23.390625 
z
" id="DejaVuSans-45"/>
       <path d="M 56.203125 29.59375 
L 56.203125 25.203125 
L 14.890625 25.203125 
Q 15.484375 15.921875 20.484375 11.0625 
Q 25.484375 6.203125 34.421875 6.203125 
Q 39.59375 6.203125 44.453125 7.46875 
Q 49.3125 8.734375 54.109375 11.28125 
L 54.109375 2.78125 
Q 49.265625 0.734375 44.1875 -0.34375 
Q 39.109375 -1.421875 33.890625 -1.421875 
Q 20.796875 -1.421875 13.15625 6.1875 
Q 5.515625 13.8125 5.515625 26.8125 
Q 5.515625 40.234375 12.765625 48.109375 
Q 20.015625 56 32.328125 56 
Q 43.359375 56 49.78125 48.890625 
Q 56.203125 41.796875 56.203125 29.59375 
z
M 47.21875 32.234375 
Q 47.125 39.59375 43.09375 43.984375 
Q 39.0625 48.390625 32.421875 48.390625 
Q 24.90625 48.390625 20.390625 44.140625 
Q 15.875 39.890625 15.1875 32.171875 
z
" id="DejaVuSans-101"/>
       <path d="M 2.984375 54.6875 
L 12.5 54.6875 
L 29.59375 8.796875 
L 46.6875 54.6875 
L 56.203125 54.6875 
L 35.6875 0 
L 23.484375 0 
z
" id="DejaVuSans-118"/>
       <path d="M 34.28125 27.484375 
Q 23.390625 27.484375 19.1875 25 
Q 14.984375 22.515625 14.984375 16.5 
Q 14.984375 11.71875 18.140625 8.90625 
Q 21.296875 6.109375 26.703125 6.109375 
Q 34.1875 6.109375 38.703125 11.40625 
Q 43.21875 16.703125 43.21875 25.484375 
L 43.21875 27.484375 
z
M 52.203125 31.203125 
L 52.203125 0 
L 43.21875 0 
L 43.21875 8.296875 
Q 40.140625 3.328125 35.546875 0.953125 
Q 30.953125 -1.421875 24.3125 -1.421875 
Q 15.921875 -1.421875 10.953125 3.296875 
Q 6 8.015625 6 15.921875 
Q 6 25.140625 12.171875 29.828125 
Q 18.359375 34.515625 30.609375 34.515625 
L 43.21875 34.515625 
L 43.21875 35.40625 
Q 43.21875 41.609375 39.140625 45 
Q 35.0625 48.390625 27.6875 48.390625 
Q 23 48.390625 18.546875 47.265625 
Q 14.109375 46.140625 10.015625 43.890625 
L 10.015625 52.203125 
Q 14.9375 54.109375 19.578125 55.046875 
Q 24.21875 56 28.609375 56 
Q 40.484375 56 46.34375 49.84375 
Q 52.203125 43.703125 52.203125 31.203125 
z
" id="DejaVuSans-97"/>
       <path d="M 44.28125 53.078125 
L 44.28125 44.578125 
Q 40.484375 46.53125 36.375 47.5 
Q 32.28125 48.484375 27.875 48.484375 
Q 21.1875 48.484375 17.84375 46.4375 
Q 14.5 44.390625 14.5 40.28125 
Q 14.5 37.15625 16.890625 35.375 
Q 19.28125 33.59375 26.515625 31.984375 
L 29.59375 31.296875 
Q 39.15625 29.25 43.1875 25.515625 
Q 47.21875 21.78125 47.21875 15.09375 
Q 47.21875 7.46875 41.1875 3.015625 
Q 35.15625 -1.421875 24.609375 -1.421875 
Q 20.21875 -1.421875 15.453125 -0.5625 
Q 10.6875 0.296875 5.421875 2 
L 5.421875 11.28125 
Q 10.40625 8.6875 15.234375 7.390625 
Q 20.0625 6.109375 24.8125 6.109375 
Q 31.15625 6.109375 34.5625 8.28125 
Q 37.984375 10.453125 37.984375 14.40625 
Q 37.984375 18.0625 35.515625 20.015625 
Q 33.0625 21.96875 24.703125 23.78125 
L 21.578125 24.515625 
Q 13.234375 26.265625 9.515625 29.90625 
Q 5.8125 33.546875 5.8125 39.890625 
Q 5.8125 47.609375 11.28125 51.796875 
Q 16.75 56 26.8125 56 
Q 31.78125 56 36.171875 55.265625 
Q 40.578125 54.546875 44.28125 53.078125 
z
" id="DejaVuSans-115"/>
       <path d="M 25.390625 72.90625 
L 33.6875 72.90625 
L 8.296875 -9.28125 
L 0 -9.28125 
z
" id="DejaVuSans-47"/>
       <path d="M 45.40625 46.390625 
L 45.40625 75.984375 
L 54.390625 75.984375 
L 54.390625 0 
L 45.40625 0 
L 45.40625 8.203125 
Q 42.578125 3.328125 38.25 0.953125 
Q 33.9375 -1.421875 27.875 -1.421875 
Q 17.96875 -1.421875 11.734375 6.484375 
Q 5.515625 14.40625 5.515625 27.296875 
Q 5.515625 40.1875 11.734375 48.09375 
Q 17.96875 56 27.875 56 
Q 33.9375 56 38.25 53.625 
Q 42.578125 51.265625 45.40625 46.390625 
z
M 14.796875 27.296875 
Q 14.796875 17.390625 18.875 11.75 
Q 22.953125 6.109375 30.078125 6.109375 
Q 37.203125 6.109375 41.296875 11.75 
Q 45.40625 17.390625 45.40625 27.296875 
Q 45.40625 37.203125 41.296875 42.84375 
Q 37.203125 48.484375 30.078125 48.484375 
Q 22.953125 48.484375 18.875 42.84375 
Q 14.796875 37.203125 14.796875 27.296875 
z
" id="DejaVuSans-100"/>
       <path d="M 9.421875 54.6875 
L 18.40625 54.6875 
L 18.40625 0 
L 9.421875 0 
z
M 9.421875 75.984375 
L 18.40625 75.984375 
L 18.40625 64.59375 
L 9.421875 64.59375 
z
" id="DejaVuSans-105"/>
       <path d="M 52 44.1875 
Q 55.375 50.25 60.0625 53.125 
Q 64.75 56 71.09375 56 
Q 79.640625 56 84.28125 50.015625 
Q 88.921875 44.046875 88.921875 33.015625 
L 88.921875 0 
L 79.890625 0 
L 79.890625 32.71875 
Q 79.890625 40.578125 77.09375 44.375 
Q 74.3125 48.1875 68.609375 48.1875 
Q 61.625 48.1875 57.5625 43.546875 
Q 53.515625 38.921875 53.515625 30.90625 
L 53.515625 0 
L 44.484375 0 
L 44.484375 32.71875 
Q 44.484375 40.625 41.703125 44.40625 
Q 38.921875 48.1875 33.109375 48.1875 
Q 26.21875 48.1875 22.15625 43.53125 
Q 18.109375 38.875 18.109375 30.90625 
L 18.109375 0 
L 9.078125 0 
L 9.078125 54.6875 
L 18.109375 54.6875 
L 18.109375 46.1875 
Q 21.1875 51.21875 25.484375 53.609375 
Q 29.78125 56 35.6875 56 
Q 41.65625 56 45.828125 52.96875 
Q 50 49.953125 52 44.1875 
z
" id="DejaVuSans-109"/>
       <path d="M 54.890625 33.015625 
L 54.890625 0 
L 45.90625 0 
L 45.90625 32.71875 
Q 45.90625 40.484375 42.875 44.328125 
Q 39.84375 48.1875 33.796875 48.1875 
Q 26.515625 48.1875 22.3125 43.546875 
Q 18.109375 38.921875 18.109375 30.90625 
L 18.109375 0 
L 9.078125 0 
L 9.078125 54.6875 
L 18.109375 54.6875 
L 18.109375 46.1875 
Q 21.34375 51.125 25.703125 53.5625 
Q 30.078125 56 35.796875 56 
Q 45.21875 56 50.046875 50.171875 
Q 54.890625 44.34375 54.890625 33.015625 
z
" id="DejaVuSans-110"/>
       <path d="M 8.015625 75.875 
L 15.828125 75.875 
Q 23.140625 64.359375 26.78125 53.3125 
Q 30.421875 42.28125 30.421875 31.390625 
Q 30.421875 20.453125 26.78125 9.375 
Q 23.140625 -1.703125 15.828125 -13.1875 
L 8.015625 -13.1875 
Q 14.5 -2 17.703125 9.0625 
Q 20.90625 20.125 20.90625 31.390625 
Q 20.90625 42.671875 17.703125 53.65625 
Q 14.5 64.65625 8.015625 75.875 
z
" id="DejaVuSans-41"/>
      </defs>
      <use xlink:href="#DejaVuSans-108"/>
      <use x="27.783203" xlink:href="#DejaVuSans-111"/>
      <use x="88.964844" xlink:href="#DejaVuSans-103"/>
      <use x="152.441406" xlink:href="#DejaVuSans-49"/>
      <use x="216.064453" xlink:href="#DejaVuSans-48"/>
      <use x="279.6875" xlink:href="#DejaVuSans-40"/>
      <use x="318.701172" xlink:href="#DejaVuSans-35"/>
      <use x="402.490234" xlink:href="#DejaVuSans-32"/>
      <use x="434.277344" xlink:href="#DejaVuSans-102"/>
      <use x="463.982422" xlink:href="#DejaVuSans-45"/>
      <use x="500.066406" xlink:href="#DejaVuSans-101"/>
      <use x="561.589844" xlink:href="#DejaVuSans-118"/>
      <use x="620.769531" xlink:href="#DejaVuSans-97"/>
      <use x="682.048828" xlink:href="#DejaVuSans-108"/>
      <use x="709.832031" xlink:href="#DejaVuSans-115"/>
      <use x="761.931641" xlink:href="#DejaVuSans-32"/>
      <use x="793.71875" xlink:href="#DejaVuSans-47"/>
      <use x="827.410156" xlink:href="#DejaVuSans-32"/>
      <use x="859.197266" xlink:href="#DejaVuSans-100"/>
      <use x="922.673828" xlink:href="#DejaVuSans-105"/>
      <use x="950.457031" xlink:href="#DejaVuSans-109"/>
      <use x="1047.869141" xlink:href="#DejaVuSans-101"/>
      <use x="1109.392578" xlink:href="#DejaVuSans-110"/>
      <use x="1172.771484" xlink:href="#DejaVuSans-115"/>
      <use x="1224.871094" xlink:href="#DejaVuSans-105"/>
      <use x="1252.654297" xlink:href="#DejaVuSans-111"/>
      <use x="1313.835938" xlink:href="#DejaVuSans-110"/>
      <use x="1377.214844" xlink:href="#DejaVuSans-41"/>
     </g>
    </g>
   </g>
   <g id="matplotlib.axis_2">
    <g id="ytick_1">
     <g id="line2d_21">
      <path clip-path="url(#p808183391e)" d="M 57.6 298.944 
L 338.688 298.944 
" style="fill:none;stroke:#b0b0b0;stroke-linecap:square;stroke-width:0.8;"/>
     </g>
     <g id="line2d_22">
      <defs>
       <path d="M 0 0 
L -3.5 0 
" id="md8c37fab44" style="stroke:#000000;stroke-width:0.8;"/>
      </defs>
      <g>
       <use style="stroke:#000000;stroke-width:0.8;" x="57.6" xlink:href="#md8c37fab44" y="298.944"/>
      </g>
     </g>
     <g id="text_6">
      <!-- 0.0 -->
      <g transform="translate(25.155 305.02275)scale(0.16 -0.16)">
       <defs>
        <path d="M 10.6875 12.40625 
L 21 12.40625 
L 21 0 
L 10.6875 0 
z
" id="DejaVuSans-46"/>
       </defs>
       <use xlink:href="#DejaVuSans-48"/>
       <use x="63.623047" xlink:href="#DejaVuSans-46"/>
       <use x="95.410156" xlink:href="#DejaVuSans-48"/>
      </g>
     </g>
    </g>
    <g id="ytick_2">
     <g id="line2d_23">
      <path clip-path="url(#p808183391e)" d="M 57.6 240.431525 
L 338.688 240.431525 
" style="fill:none;stroke:#b0b0b0;stroke-linecap:square;stroke-width:0.8;"/>
     </g>
     <g id="line2d_24">
      <g>
       <use style="stroke:#000000;stroke-width:0.8;" x="57.6" xlink:href="#md8c37fab44" y="240.431525"/>
      </g>
     </g>
     <g id="text_7">
      <!-- 0.2 -->
      <g transform="translate(25.155 246.510275)scale(0.16 -0.16)">
       <use xlink:href="#DejaVuSans-48"/>
       <use x="63.623047" xlink:href="#DejaVuSans-46"/>
       <use x="95.410156" xlink:href="#DejaVuSans-50"/>
      </g>
     </g>
    </g>
    <g id="ytick_3">
     <g id="line2d_25">
      <path clip-path="url(#p808183391e)" d="M 57.6 181.91905 
L 338.688 181.91905 
" style="fill:none;stroke:#b0b0b0;stroke-linecap:square;stroke-width:0.8;"/>
     </g>
     <g id="line2d_26">
      <g>
       <use style="stroke:#000000;stroke-width:0.8;" x="57.6" xlink:href="#md8c37fab44" y="181.91905"/>
      </g>
     </g>
     <g id="text_8">
      <!-- 0.4 -->
      <g transform="translate(25.155 187.9978)scale(0.16 -0.16)">
       <use xlink:href="#DejaVuSans-48"/>
       <use x="63.623047" xlink:href="#DejaVuSans-46"/>
       <use x="95.410156" xlink:href="#DejaVuSans-52"/>
      </g>
     </g>
    </g>
    <g id="ytick_4">
     <g id="line2d_27">
      <path clip-path="url(#p808183391e)" d="M 57.6 123.406574 
L 338.688 123.406574 
" style="fill:none;stroke:#b0b0b0;stroke-linecap:square;stroke-width:0.8;"/>
     </g>
     <g id="line2d_28">
      <g>
       <use style="stroke:#000000;stroke-width:0.8;" x="57.6" xlink:href="#md8c37fab44" y="123.406574"/>
      </g>
     </g>
     <g id="text_9">
      <!-- 0.6 -->
      <g transform="translate(25.155 129.485324)scale(0.16 -0.16)">
       <use xlink:href="#DejaVuSans-48"/>
       <use x="63.623047" xlink:href="#DejaVuSans-46"/>
       <use x="95.410156" xlink:href="#DejaVuSans-54"/>
      </g>
     </g>
    </g>
    <g id="ytick_5">
     <g id="line2d_29">
      <path clip-path="url(#p808183391e)" d="M 57.6 64.894099 
L 338.688 64.894099 
" style="fill:none;stroke:#b0b0b0;stroke-linecap:square;stroke-width:0.8;"/>
     </g>
     <g id="line2d_30">
      <g>
       <use style="stroke:#000000;stroke-width:0.8;" x="57.6" xlink:href="#md8c37fab44" y="64.894099"/>
      </g>
     </g>
     <g id="text_10">
      <!-- 0.8 -->
      <g transform="translate(25.155 70.972849)scale(0.16 -0.16)">
       <defs>
        <path d="M 31.78125 34.625 
Q 24.75 34.625 20.71875 30.859375 
Q 16.703125 27.09375 16.703125 20.515625 
Q 16.703125 13.921875 20.71875 10.15625 
Q 24.75 6.390625 31.78125 6.390625 
Q 38.8125 6.390625 42.859375 10.171875 
Q 46.921875 13.96875 46.921875 20.515625 
Q 46.921875 27.09375 42.890625 30.859375 
Q 38.875 34.625 31.78125 34.625 
z
M 21.921875 38.8125 
Q 15.578125 40.375 12.03125 44.71875 
Q 8.5 49.078125 8.5 55.328125 
Q 8.5 64.0625 14.71875 69.140625 
Q 20.953125 74.21875 31.78125 74.21875 
Q 42.671875 74.21875 48.875 69.140625 
Q 55.078125 64.0625 55.078125 55.328125 
Q 55.078125 49.078125 51.53125 44.71875 
Q 48 40.375 41.703125 38.8125 
Q 48.828125 37.15625 52.796875 32.3125 
Q 56.78125 27.484375 56.78125 20.515625 
Q 56.78125 9.90625 50.3125 4.234375 
Q 43.84375 -1.421875 31.78125 -1.421875 
Q 19.734375 -1.421875 13.25 4.234375 
Q 6.78125 9.90625 6.78125 20.515625 
Q 6.78125 27.484375 10.78125 32.3125 
Q 14.796875 37.15625 21.921875 38.8125 
z
M 18.3125 54.390625 
Q 18.3125 48.734375 21.84375 45.5625 
Q 25.390625 42.390625 31.78125 42.390625 
Q 38.140625 42.390625 41.71875 45.5625 
Q 45.3125 48.734375 45.3125 54.390625 
Q 45.3125 60.0625 41.71875 63.234375 
Q 38.140625 66.40625 31.78125 66.40625 
Q 25.390625 66.40625 21.84375 63.234375 
Q 18.3125 60.0625 18.3125 54.390625 
z
" id="DejaVuSans-56"/>
       </defs>
       <use xlink:href="#DejaVuSans-48"/>
       <use x="63.623047" xlink:href="#DejaVuSans-46"/>
       <use x="95.410156" xlink:href="#DejaVuSans-56"/>
      </g>
     </g>
    </g>
    <g id="ytick_6">
     <g id="line2d_31">
      <path clip-path="url(#p808183391e)" d="M 57.6 6.381624 
L 338.688 6.381624 
" style="fill:none;stroke:#b0b0b0;stroke-linecap:square;stroke-width:0.8;"/>
     </g>
     <g id="line2d_32">
      <g>
       <use style="stroke:#000000;stroke-width:0.8;" x="57.6" xlink:href="#md8c37fab44" y="6.381624"/>
      </g>
     </g>
     <g id="text_11">
      <!-- 1.0 -->
      <g transform="translate(25.155 12.460374)scale(0.16 -0.16)">
       <use xlink:href="#DejaVuSans-49"/>
       <use x="63.623047" xlink:href="#DejaVuSans-46"/>
       <use x="95.410156" xlink:href="#DejaVuSans-48"/>
      </g>
     </g>
    </g>
    <g id="text_12">
     <!-- Fraction of function,target pairs -->
     <g transform="translate(17.619531 285.585)rotate(-90)scale(0.17 -0.17)">
      <defs>
       <path d="M 9.8125 72.90625 
L 51.703125 72.90625 
L 51.703125 64.59375 
L 19.671875 64.59375 
L 19.671875 43.109375 
L 48.578125 43.109375 
L 48.578125 34.8125 
L 19.671875 34.8125 
L 19.671875 0 
L 9.8125 0 
z
" id="DejaVuSans-70"/>
       <path d="M 41.109375 46.296875 
Q 39.59375 47.171875 37.8125 47.578125 
Q 36.03125 48 33.890625 48 
Q 26.265625 48 22.1875 43.046875 
Q 18.109375 38.09375 18.109375 28.8125 
L 18.109375 0 
L 9.078125 0 
L 9.078125 54.6875 
L 18.109375 54.6875 
L 18.109375 46.1875 
Q 20.953125 51.171875 25.484375 53.578125 
Q 30.03125 56 36.53125 56 
Q 37.453125 56 38.578125 55.875 
Q 39.703125 55.765625 41.0625 55.515625 
z
" id="DejaVuSans-114"/>
       <path d="M 48.78125 52.59375 
L 48.78125 44.1875 
Q 44.96875 46.296875 41.140625 47.34375 
Q 37.3125 48.390625 33.40625 48.390625 
Q 24.65625 48.390625 19.8125 42.84375 
Q 14.984375 37.3125 14.984375 27.296875 
Q 14.984375 17.28125 19.8125 11.734375 
Q 24.65625 6.203125 33.40625 6.203125 
Q 37.3125 6.203125 41.140625 7.25 
Q 44.96875 8.296875 48.78125 10.40625 
L 48.78125 2.09375 
Q 45.015625 0.34375 40.984375 -0.53125 
Q 36.96875 -1.421875 32.421875 -1.421875 
Q 20.0625 -1.421875 12.78125 6.34375 
Q 5.515625 14.109375 5.515625 27.296875 
Q 5.515625 40.671875 12.859375 48.328125 
Q 20.21875 56 33.015625 56 
Q 37.15625 56 41.109375 55.140625 
Q 45.0625 54.296875 48.78125 52.59375 
z
" id="DejaVuSans-99"/>
       <path d="M 18.3125 70.21875 
L 18.3125 54.6875 
L 36.8125 54.6875 
L 36.8125 47.703125 
L 18.3125 47.703125 
L 18.3125 18.015625 
Q 18.3125 11.328125 20.140625 9.421875 
Q 21.96875 7.515625 27.59375 7.515625 
L 36.8125 7.515625 
L 36.8125 0 
L 27.59375 0 
Q 17.1875 0 13.234375 3.875 
Q 9.28125 7.765625 9.28125 18.015625 
L 9.28125 47.703125 
L 2.6875 47.703125 
L 2.6875 54.6875 
L 9.28125 54.6875 
L 9.28125 70.21875 
z
" id="DejaVuSans-116"/>
       <path d="M 8.5 21.578125 
L 8.5 54.6875 
L 17.484375 54.6875 
L 17.484375 21.921875 
Q 17.484375 14.15625 20.5 10.265625 
Q 23.53125 6.390625 29.59375 6.390625 
Q 36.859375 6.390625 41.078125 11.03125 
Q 45.3125 15.671875 45.3125 23.6875 
L 45.3125 54.6875 
L 54.296875 54.6875 
L 54.296875 0 
L 45.3125 0 
L 45.3125 8.40625 
Q 42.046875 3.421875 37.71875 1 
Q 33.40625 -1.421875 27.6875 -1.421875 
Q 18.265625 -1.421875 13.375 4.4375 
Q 8.5 10.296875 8.5 21.578125 
z
M 31.109375 56 
z
" id="DejaVuSans-117"/>
       <path d="M 11.71875 12.40625 
L 22.015625 12.40625 
L 22.015625 4 
L 14.015625 -11.625 
L 7.71875 -11.625 
L 11.71875 4 
z
" id="DejaVuSans-44"/>
       <path d="M 18.109375 8.203125 
L 18.109375 -20.796875 
L 9.078125 -20.796875 
L 9.078125 54.6875 
L 18.109375 54.6875 
L 18.109375 46.390625 
Q 20.953125 51.265625 25.265625 53.625 
Q 29.59375 56 35.59375 56 
Q 45.5625 56 51.78125 48.09375 
Q 58.015625 40.1875 58.015625 27.296875 
Q 58.015625 14.40625 51.78125 6.484375 
Q 45.5625 -1.421875 35.59375 -1.421875 
Q 29.59375 -1.421875 25.265625 0.953125 
Q 20.953125 3.328125 18.109375 8.203125 
z
M 48.6875 27.296875 
Q 48.6875 37.203125 44.609375 42.84375 
Q 40.53125 48.484375 33.40625 48.484375 
Q 26.265625 48.484375 22.1875 42.84375 
Q 18.109375 37.203125 18.109375 27.296875 
Q 18.109375 17.390625 22.1875 11.75 
Q 26.265625 6.109375 33.40625 6.109375 
Q 40.53125 6.109375 44.609375 11.75 
Q 48.6875 17.390625 48.6875 27.296875 
z
" id="DejaVuSans-112"/>
      </defs>
      <use xlink:href="#DejaVuSans-70"/>
      <use x="50.269531" xlink:href="#DejaVuSans-114"/>
      <use x="91.382812" xlink:href="#DejaVuSans-97"/>
      <use x="152.662109" xlink:href="#DejaVuSans-99"/>
      <use x="207.642578" xlink:href="#DejaVuSans-116"/>
      <use x="246.851562" xlink:href="#DejaVuSans-105"/>
      <use x="274.634766" xlink:href="#DejaVuSans-111"/>
      <use x="335.816406" xlink:href="#DejaVuSans-110"/>
      <use x="399.195312" xlink:href="#DejaVuSans-32"/>
      <use x="430.982422" xlink:href="#DejaVuSans-111"/>
      <use x="492.164062" xlink:href="#DejaVuSans-102"/>
      <use x="527.369141" xlink:href="#DejaVuSans-32"/>
      <use x="559.15625" xlink:href="#DejaVuSans-102"/>
      <use x="594.361328" xlink:href="#DejaVuSans-117"/>
      <use x="657.740234" xlink:href="#DejaVuSans-110"/>
      <use x="721.119141" xlink:href="#DejaVuSans-99"/>
      <use x="776.099609" xlink:href="#DejaVuSans-116"/>
      <use x="815.308594" xlink:href="#DejaVuSans-105"/>
      <use x="843.091797" xlink:href="#DejaVuSans-111"/>
      <use x="904.273438" xlink:href="#DejaVuSans-110"/>
      <use x="967.652344" xlink:href="#DejaVuSans-44"/>
      <use x="999.439453" xlink:href="#DejaVuSans-116"/>
      <use x="1038.648438" xlink:href="#DejaVuSans-97"/>
      <use x="1099.927734" xlink:href="#DejaVuSans-114"/>
      <use x="1139.291016" xlink:href="#DejaVuSans-103"/>
      <use x="1202.767578" xlink:href="#DejaVuSans-101"/>
      <use x="1264.291016" xlink:href="#DejaVuSans-116"/>
      <use x="1303.5" xlink:href="#DejaVuSans-32"/>
      <use x="1335.287109" xlink:href="#DejaVuSans-112"/>
      <use x="1398.763672" xlink:href="#DejaVuSans-97"/>
      <use x="1460.042969" xlink:href="#DejaVuSans-105"/>
      <use x="1487.826172" xlink:href="#DejaVuSans-114"/>
      <use x="1528.939453" xlink:href="#DejaVuSans-115"/>
     </g>
    </g>
   </g>
   <g id="line2d_33">
    <defs>
     <path d="M 0 1.5 
C 0.397805 1.5 0.77937 1.341951 1.06066 1.06066 
C 1.341951 0.77937 1.5 0.397805 1.5 0 
C 1.5 -0.397805 1.341951 -0.77937 1.06066 -1.06066 
C 0.77937 -1.341951 0.397805 -1.5 0 -1.5 
C -0.397805 -1.5 -0.77937 -1.341951 -1.06066 -1.06066 
C -1.341951 -0.77937 -1.5 -0.397805 -1.5 0 
C -1.5 0.397805 -1.341951 0.77937 -1.06066 1.06066 
C -0.77937 1.341951 -0.397805 1.5 0 1.5 
z
" id="m181b7e796c" style="stroke:#f5deb3;"/>
    </defs>
    <g>
     <use style="fill:#f5deb3;stroke:#f5deb3;" x="279.609605" xlink:href="#m181b7e796c" y="6.381624"/>
     <use style="fill:#f5deb3;stroke:#f5deb3;" x="279.609605" xlink:href="#m181b7e796c" y="6.381624"/>
    </g>
   </g>
   <g id="line2d_34">
    <defs>
     <path d="M 0 1.5 
C 0.397805 1.5 0.77937 1.341951 1.06066 1.06066 
C 1.341951 0.77937 1.5 0.397805 1.5 0 
C 1.5 -0.397805 1.341951 -0.77937 1.06066 -1.06066 
C 0.77937 -1.341951 0.397805 -1.5 0 -1.5 
C -0.397805 -1.5 -0.77937 -1.341951 -1.06066 -1.06066 
C -1.341951 -0.77937 -1.5 -0.397805 -1.5 0 
C -1.5 0.397805 -1.341951 0.77937 -1.06066 1.06066 
C -0.77937 1.341951 -0.397805 1.5 0 1.5 
z
" id="m08078254d8" style="stroke:#000080;"/>
    </defs>
    <g>
     <use style="fill:#000080;stroke:#000080;" x="309.463035" xlink:href="#m08078254d8" y="200.275904"/>
     <use style="fill:#000080;stroke:#000080;" x="309.463035" xlink:href="#m08078254d8" y="200.275904"/>
    </g>
   </g>
   <g id="line2d_35">
    <path d="M 5.356583 298.944 
L 5.356583 290.453955 
L 17.444571 290.453955 
L 17.444571 289.765573 
L 24.515591 289.765573 
L 24.515591 289.421381 
L 29.53256 289.421381 
L 29.53256 289.191921 
L 36.60358 289.191921 
L 36.60358 288.96246 
L 39.291857 288.96246 
L 39.291857 288.732999 
L 41.620548 288.732999 
L 41.620548 288.618269 
L 43.6746 288.618269 
L 43.6746 288.274078 
L 45.512012 288.274078 
L 45.512012 288.159348 
L 48.691568 288.159348 
L 48.691568 288.044617 
L 50.087456 288.044617 
L 50.087456 287.929887 
L 51.379845 287.929887 
L 51.379845 287.470966 
L 53.708537 287.470966 
L 53.708537 287.356235 
L 55.762588 287.356235 
L 55.762588 287.012044 
L 59.262141 287.012044 
L 59.262141 286.897314 
L 60.779557 286.897314 
L 60.779557 286.667853 
L 62.833608 286.667853 
L 62.833608 286.553123 
L 64.079801 286.553123 
L 64.079801 286.438393 
L 64.67102 286.438393 
L 64.67102 286.323662 
L 65.242851 286.323662 
L 65.242851 286.208932 
L 65.796525 286.208932 
L 65.796525 285.979471 
L 66.853775 285.979471 
L 66.853775 285.75001 
L 68.328395 285.75001 
L 68.328395 285.63528 
L 69.246464 285.63528 
L 69.246464 285.405819 
L 69.687988 285.405819 
L 69.687988 285.176359 
L 70.11861 285.176359 
L 70.11861 284.946898 
L 70.538854 284.946898 
L 70.538854 284.602707 
L 70.949209 284.602707 
L 70.949209 284.373246 
L 71.74204 284.373246 
L 71.74204 284.258516 
L 72.867545 284.258516 
L 72.867545 284.143786 
L 73.924795 284.143786 
L 73.924795 283.799595 
L 75.555822 283.799595 
L 75.555822 283.684864 
L 77.330839 283.684864 
L 77.330839 283.455404 
L 77.609874 283.455404 
L 77.609874 283.340673 
L 79.938565 283.340673 
L 79.938565 283.225943 
L 80.179111 283.225943 
L 80.179111 282.996482 
L 80.416384 282.996482 
L 80.416384 282.881752 
L 80.650472 282.881752 
L 80.650472 282.652291 
L 81.556612 282.652291 
L 81.556612 282.537561 
L 81.775977 282.537561 
L 81.775977 282.422831 
L 83.037197 282.422831 
L 83.037197 282.3081 
L 83.438118 282.3081 
L 83.438118 282.19337 
L 83.830028 282.19337 
L 83.830028 281.963909 
L 84.401859 281.963909 
L 84.401859 281.849179 
L 84.772922 281.849179 
L 84.772922 281.734448 
L 85.136253 281.734448 
L 85.136253 281.619718 
L 86.683608 281.619718 
L 86.683608 281.504988 
L 87.329581 281.504988 
L 87.329581 281.390257 
L 87.643811 281.390257 
L 87.643811 281.160797 
L 87.952479 281.160797 
L 87.952479 280.816606 
L 88.701061 280.816606 
L 88.701061 280.587145 
L 89.277618 280.587145 
L 89.277618 280.472415 
L 91.535274 280.472415 
L 91.535274 280.357684 
L 92.026554 280.357684 
L 92.026554 280.242954 
L 93.533875 280.242954 
L 93.533875 280.128224 
L 93.754628 280.128224 
L 93.754628 280.013493 
L 94.080605 280.013493 
L 94.187924 279.784033 
L 94.818328 279.784033 
L 94.818328 279.669302 
L 95.820862 279.669302 
L 95.918017 279.439842 
L 96.676366 279.439842 
L 96.676366 279.325111 
L 96.952455 279.325111 
L 96.952455 279.210381 
L 97.224242 279.210381 
L 97.224242 279.095651 
L 97.580158 279.095651 
L 97.580158 278.98092 
L 98.355365 278.98092 
L 98.43941 278.75146 
L 99.258306 278.75146 
L 99.338119 278.521999 
L 100.268435 278.521999 
L 100.343767 278.177808 
L 100.715621 278.177808 
L 100.789049 277.833617 
L 102.263669 277.833617 
L 102.263669 277.718886 
L 102.989037 277.718886 
L 102.989037 277.604156 
L 103.181738 277.604156 
L 103.181738 277.489426 
L 103.685435 277.489426 
L 103.685435 277.374695 
L 103.870632 277.374695 
L 103.870632 277.259965 
L 104.533344 277.259965 
L 104.533344 277.145235 
L 105.621863 277.145235 
L 105.621863 277.030504 
L 105.787689 277.030504 
L 105.897371 276.801044 
L 106.48859 276.801044 
L 106.541356 276.571583 
L 107.009204 276.571583 
L 107.009204 276.456853 
L 107.213174 276.456853 
L 107.263796 276.227392 
L 107.860069 276.227392 
L 107.90885 275.997931 
L 108.294265 275.997931 
L 108.294265 275.883201 
L 108.530893 275.883201 
L 108.530893 275.768471 
L 108.902946 275.768471 
L 108.902946 275.65374 
L 109.668146 275.65374 
L 109.756002 275.309549 
L 110.443353 275.309549 
L 110.443353 275.194819 
L 110.652711 275.194819 
L 110.652711 275.080089 
L 111.465878 275.080089 
L 111.465878 274.965358 
L 111.780817 274.965358 
L 111.819788 274.506437 
L 111.897469 274.506437 
L 111.897469 274.391706 
L 112.39413 274.391706 
L 112.431755 274.162246 
L 113.095487 274.162246 
L 113.095487 273.932785 
L 113.594805 273.932785 
L 113.594805 273.703324 
L 113.942906 273.703324 
L 114.045996 273.473864 
L 115.742365 273.473864 
L 115.742365 273.244403 
L 115.958621 273.244403 
L 115.958621 273.129673 
L 116.38325 273.129673 
L 116.38325 273.014942 
L 116.59175 273.014942 
L 116.59175 272.900212 
L 116.827022 272.900212 
L 116.827022 272.785482 
L 117.001416 272.785482 
L 117.087964 272.556021 
L 117.116718 272.556021 
L 117.116718 272.441291 
L 117.288253 272.441291 
L 117.345058 272.21183 
L 117.737599 272.21183 
L 117.737599 271.982369 
L 118.012672 271.982369 
L 118.012672 271.867639 
L 118.681952 271.867639 
L 118.681952 271.752909 
L 118.838828 271.752909 
L 118.838828 271.638178 
L 119.020084 271.638178 
L 119.020084 271.523448 
L 119.250393 271.523448 
L 119.250393 271.408718 
L 119.850084 271.408718 
L 119.89914 271.179257 
L 120.453579 271.179257 
L 120.453579 271.064526 
L 120.8059 271.064526 
L 120.8059 270.949796 
L 121.013926 270.949796 
L 121.105591 270.605605 
L 121.467509 270.605605 
L 121.556827 270.261414 
L 121.667835 270.261414 
L 121.689952 270.031953 
L 121.84399 270.031953 
L 121.84399 269.917223 
L 122.083336 269.917223 
L 122.191052 269.687762 
L 122.40451 269.687762 
L 122.40451 269.458302 
L 122.699028 269.458302 
L 122.699028 269.343571 
L 123.111324 269.343571 
L 123.172336 269.114111 
L 123.253355 269.114111 
L 123.253355 268.99938 
L 123.414272 268.99938 
L 123.414272 268.88465 
L 123.533993 268.88465 
L 123.533993 268.76992 
L 123.927229 268.76992 
L 123.927229 268.655189 
L 124.235556 268.655189 
L 124.254646 268.425729 
L 124.406624 268.425729 
L 124.406624 268.310998 
L 124.538526 268.310998 
L 124.538526 268.196268 
L 124.799375 268.196268 
L 124.836322 267.966807 
L 124.92835 267.966807 
L 124.92835 267.852077 
L 125.092787 267.852077 
L 125.183475 267.622616 
L 125.434921 267.622616 
L 125.488334 267.393156 
L 125.735454 267.393156 
L 125.735454 267.278425 
L 125.857712 267.278425 
L 125.892487 267.048964 
L 126.048118 267.048964 
L 126.048118 266.934234 
L 126.202373 266.934234 
L 126.270496 266.475313 
L 126.338353 266.475313 
L 126.338353 266.360582 
L 126.607172 266.360582 
L 126.623836 266.131122 
L 126.72349 266.131122 
L 126.78961 265.901661 
L 126.97016 265.901661 
L 126.97016 265.786931 
L 127.116504 265.786931 
L 127.181154 265.44274 
L 127.325746 265.44274 
L 127.325746 265.328009 
L 127.469149 265.328009 
L 127.469149 265.213279 
L 127.907896 265.213279 
L 127.907896 265.098549 
L 128.245045 265.098549 
L 128.245045 264.983818 
L 128.5758 264.983818 
L 128.5758 264.869088 
L 128.812469 264.869088 
L 128.812469 264.639627 
L 129.190335 264.639627 
L 129.204706 264.410167 
L 129.333516 264.410167 
L 129.39046 264.065976 
L 129.574256 264.065976 
L 129.574256 263.951245 
L 129.853291 263.951245 
L 129.853291 263.836515 
L 130.004878 263.836515 
L 130.073348 263.607054 
L 130.371462 263.607054 
L 130.371462 263.492324 
L 130.756803 263.492324 
L 130.756803 263.262863 
L 130.874681 263.262863 
L 130.913797 262.918672 
L 131.146669 262.918672 
L 131.159516 262.689211 
L 131.376473 262.689211 
L 131.376473 262.574481 
L 131.540579 262.574481 
L 131.540579 262.459751 
L 131.678241 262.459751 
L 131.678241 262.34502 
L 131.987128 262.34502 
L 132.036046 262.11556 
L 132.266551 262.11556 
L 132.290639 261.886099 
L 132.517825 261.886099 
L 132.577122 261.656638 
L 132.67158 261.656638 
L 132.67158 261.541908 
L 133.067415 261.541908 
L 133.147807 261.197717 
L 133.284766 261.197717 
L 133.33018 260.853526 
L 133.476967 260.853526 
L 133.49944 260.624065 
L 133.589045 260.624065 
L 133.589045 260.509335 
L 133.899085 260.509335 
L 133.986665 260.165144 
L 134.182126 260.165144 
L 134.182126 260.050414 
L 134.439378 260.050414 
L 134.503103 259.820953 
L 134.577155 259.820953 
L 134.577155 259.706222 
L 134.703375 259.706222 
L 134.703375 259.591492 
L 134.849486 259.591492 
L 134.849486 259.476762 
L 134.973757 259.476762 
L 135.056115 259.01784 
L 135.086899 259.01784 
L 135.117629 258.78838 
L 135.351444 258.78838 
L 135.39179 258.444189 
L 135.621981 258.444189 
L 135.621981 258.329458 
L 135.819708 258.329458 
L 135.839358 258.099998 
L 135.97629 258.099998 
L 135.97629 257.985267 
L 136.102487 257.985267 
L 136.13148 257.755807 
L 136.266147 257.755807 
L 136.342635 257.526346 
L 136.513517 257.526346 
L 136.541835 257.296885 
L 136.79465 257.296885 
L 136.79465 257.182155 
L 136.924311 257.182155 
L 136.924311 257.067425 
L 137.053015 257.067425 
L 137.126135 256.723234 
L 137.352682 256.723234 
L 137.460387 256.493773 
L 137.478274 256.493773 
L 137.549637 256.264312 
L 137.664982 256.264312 
L 137.770782 255.920121 
L 137.814676 255.920121 
L 137.814676 255.805391 
L 137.954401 255.805391 
L 138.023846 255.4612 
L 138.127497 255.4612 
L 138.127497 255.346469 
L 138.27329 255.346469 
L 138.341479 255.002278 
L 138.443265 255.002278 
L 138.443265 254.887548 
L 138.761723 254.887548 
L 138.794909 254.428627 
L 139.017278 254.428627 
L 139.02546 254.199166 
L 139.163964 254.199166 
L 139.163964 254.084436 
L 139.397728 254.084436 
L 139.469642 253.740245 
L 139.572998 253.740245 
L 139.580923 253.510784 
L 139.691499 253.510784 
L 139.69937 253.281323 
L 139.817018 253.281323 
L 139.910568 252.937132 
L 139.980403 252.937132 
L 140.042245 252.478211 
L 140.295048 252.478211 
L 140.355786 252.24875 
L 140.446497 252.24875 
L 140.491677 251.904559 
L 140.604116 251.904559 
L 140.656341 251.675098 
L 140.738093 251.675098 
L 140.789919 251.445638 
L 140.871049 251.445638 
L 140.88576 251.101447 
L 141.032186 251.101447 
L 141.119455 250.757256 
L 141.177393 250.757256 
L 141.177393 250.642525 
L 141.299876 250.642525 
L 141.371524 250.298334 
L 141.435758 250.298334 
L 141.435758 250.183604 
L 141.549369 250.183604 
L 141.549369 250.068874 
L 141.878885 250.068874 
L 141.982752 249.839413 
L 142.209106 249.839413 
L 142.209106 249.724683 
L 142.351634 249.724683 
L 142.365148 249.495222 
L 142.712875 249.495222 
L 142.805321 249.265761 
L 142.89728 249.265761 
L 142.89728 249.151031 
L 143.125078 249.151031 
L 143.125078 249.036301 
L 143.285988 249.036301 
L 143.285988 248.92157 
L 143.791143 248.92157 
L 143.87806 248.347918 
L 143.927534 248.347918 
L 143.989178 248.118458 
L 144.044473 248.118458 
L 144.142344 247.544806 
L 144.197155 247.544806 
L 144.282077 247.315345 
L 144.360565 247.315345 
L 144.462672 246.971154 
L 144.540353 246.971154 
L 144.540353 246.856424 
L 144.65919 246.856424 
L 144.706499 246.512233 
L 145.536823 246.512233 
L 145.542453 246.282772 
L 145.799493 246.282772 
L 145.810583 246.053312 
L 146.069192 246.053312 
L 146.09648 245.823851 
L 147.144103 245.823851 
L 147.226074 245.59439 
L 147.555175 245.59439 
L 147.665171 245.36493 
L 147.675136 245.36493 
L 147.70997 245.020738 
L 147.927346 245.020738 
L 148.035027 244.676547 
L 148.156589 244.676547 
L 148.262868 244.332356 
L 148.425853 244.332356 
L 148.53525 243.988165 
L 148.639252 243.988165 
L 148.639252 243.873435 
L 149.030744 243.873435 
L 149.030744 243.758705 
L 149.223242 243.758705 
L 149.223242 243.643974 
L 149.476646 243.643974 
L 149.476646 243.529244 
L 149.677639 243.529244 
L 149.677639 243.414514 
L 149.933325 243.414514 
L 149.998846 243.185053 
L 150.059777 243.185053 
L 150.059777 243.070323 
L 150.202563 243.070323 
L 150.202563 242.955592 
L 150.594569 242.955592 
L 150.594569 242.840862 
L 151.219462 242.840862 
L 151.219462 242.726132 
L 151.541675 242.726132 
L 151.541675 242.611401 
L 153.991164 242.611401 
L 153.991164 242.496671 
L 154.667942 242.496671 
L 154.667942 242.381941 
L 157.616363 242.381941 
L 157.616363 242.26721 
L 161.413488 242.26721 
L 161.413488 242.15248 
L 165.993986 242.15248 
L 166.020101 241.923019 
L 166.215594 241.923019 
L 166.215594 241.808289 
L 166.986237 241.808289 
L 166.986237 241.693559 
L 168.283211 241.693559 
L 168.283211 241.578828 
L 169.0792 241.578828 
L 169.0792 241.464098 
L 169.883706 241.464098 
L 169.883706 241.349368 
L 170.12047 241.349368 
L 170.12047 241.234637 
L 170.392016 241.234637 
L 170.392016 241.119907 
L 170.684714 241.119907 
L 170.684714 241.005176 
L 171.166634 241.005176 
L 171.182169 240.775716 
L 171.547114 240.775716 
L 171.581295 240.431525 
L 171.662051 240.431525 
L 171.752455 240.202064 
L 171.867295 240.202064 
L 171.867295 240.087334 
L 172.287687 240.087334 
L 172.32772 239.743143 
L 172.420775 239.743143 
L 172.447271 239.513682 
L 172.571983 239.513682 
L 172.604215 239.284221 
L 172.713597 239.284221 
L 172.713597 239.169491 
L 172.857598 239.169491 
L 172.950214 238.481109 
L 173.170967 238.481109 
L 173.244701 238.022188 
L 173.343293 238.022188 
L 173.449287 237.677997 
L 173.469727 237.677997 
L 173.563673 237.448536 
L 173.79913 237.448536 
L 173.860276 237.219075 
L 174.024856 237.219075 
L 174.025955 236.989614 
L 174.390386 236.989614 
L 174.438764 236.760154 
L 174.719912 236.760154 
L 174.802118 236.530693 
L 174.856707 236.530693 
L 174.856707 236.415963 
L 174.993479 236.415963 
L 175.046437 235.957041 
L 175.196131 235.957041 
L 175.251553 235.61285 
L 175.600532 235.61285 
L 175.701682 235.38339 
L 175.786356 235.38339 
L 175.786356 235.268659 
L 176.390886 235.268659 
L 176.442643 234.924468 
L 176.549504 234.924468 
L 176.549504 234.809738 
L 176.869016 234.809738 
L 176.977016 234.465547 
L 178.358547 234.465547 
L 178.358547 234.350817 
L 178.630802 234.350817 
L 178.725096 234.121356 
L 179.218475 234.121356 
L 179.260052 233.891895 
L 179.816983 233.891895 
L 179.908231 233.662434 
L 180.103277 233.662434 
L 180.103277 233.547704 
L 180.233133 233.547704 
L 180.318403 233.203513 
L 180.670402 233.203513 
L 180.670402 233.088783 
L 180.798355 233.088783 
L 180.899453 232.859322 
L 183.11614 232.859322 
L 183.11614 232.744592 
L 183.262392 232.744592 
L 183.339894 232.400401 
L 183.583705 232.400401 
L 183.583705 232.28567 
L 183.701505 232.28567 
L 183.701505 232.17094 
L 183.903574 232.17094 
L 183.98698 231.826749 
L 184.035347 231.826749 
L 184.143992 231.597288 
L 184.28923 231.597288 
L 184.391457 231.138367 
L 184.514186 231.138367 
L 184.607917 230.564715 
L 184.664153 230.564715 
L 184.730328 230.220524 
L 184.851294 230.220524 
L 184.851294 230.105794 
L 184.998988 230.105794 
L 184.998988 229.991063 
L 185.147766 229.991063 
L 185.160543 229.761603 
L 185.653919 229.761603 
L 185.702947 229.532142 
L 186.723712 229.532142 
L 186.723712 229.417412 
L 187.153078 229.417412 
L 187.153078 229.302681 
L 187.455458 229.302681 
L 187.455458 229.187951 
L 187.626641 229.187951 
L 187.626641 229.073221 
L 188.170926 229.073221 
L 188.170926 228.95849 
L 188.694945 228.95849 
L 188.71579 228.72903 
L 188.854438 228.72903 
L 188.854438 228.614299 
L 189.003638 228.614299 
L 189.003638 228.499569 
L 190.032209 228.499569 
L 190.058093 228.270108 
L 190.445678 228.270108 
L 190.445678 228.155378 
L 190.597651 228.155378 
L 190.597651 228.040648 
L 190.723855 228.040648 
L 190.723855 227.925917 
L 191.119778 227.925917 
L 191.119778 227.811187 
L 191.39358 227.811187 
L 191.400482 227.581726 
L 191.568128 227.581726 
L 191.568128 227.466996 
L 191.742936 227.466996 
L 191.800157 227.237535 
L 192.327281 227.237535 
L 192.327281 227.122805 
L 193.176534 227.122805 
L 193.240573 226.893344 
L 193.333104 226.893344 
L 193.410323 226.549153 
L 193.508797 226.549153 
L 193.580587 226.204962 
L 193.726129 226.204962 
L 193.726129 226.090232 
L 193.999287 226.090232 
L 193.999287 225.975501 
L 194.146593 225.975501 
L 194.252729 225.746041 
L 194.344514 225.746041 
L 194.344514 225.63131 
L 194.815696 225.63131 
L 194.815696 225.51658 
L 195.850926 225.51658 
L 195.850926 225.40185 
L 196.06037 225.40185 
L 196.14283 225.172389 
L 196.449387 225.172389 
L 196.449387 225.057659 
L 196.601271 225.057659 
L 196.601271 224.942928 
L 196.875049 224.942928 
L 196.875049 224.828198 
L 197.002986 224.828198 
L 197.002986 224.713468 
L 197.210464 224.713468 
L 197.210464 224.598737 
L 197.344923 224.598737 
L 197.353293 224.369277 
L 197.681701 224.369277 
L 197.681701 224.254546 
L 198.998848 224.254546 
L 199.042377 224.025086 
L 199.672749 224.025086 
L 199.672749 223.910355 
L 199.874663 223.910355 
L 199.874663 223.795625 
L 200.313297 223.795625 
L 200.313297 223.680895 
L 200.429055 223.680895 
L 200.447187 223.451434 
L 200.577898 223.451434 
L 200.577898 223.336704 
L 201.335349 223.336704 
L 201.335349 223.221973 
L 202.80108 223.221973 
L 202.80108 223.107243 
L 203.480147 223.107243 
L 203.572293 222.877782 
L 203.998874 222.877782 
L 203.998874 222.763052 
L 204.143147 222.763052 
L 204.143147 222.648321 
L 204.277508 222.648321 
L 204.316648 222.418861 
L 204.526154 222.418861 
L 204.562641 222.1894 
L 204.799378 222.1894 
L 204.799378 222.07467 
L 204.943552 222.07467 
L 204.943552 221.959939 
L 207.540181 221.959939 
L 207.606658 221.615748 
L 207.66985 221.615748 
L 207.66985 221.501018 
L 207.805693 221.501018 
L 207.805693 221.386288 
L 208.202962 221.386288 
L 208.306579 221.156827 
L 208.543604 221.156827 
L 208.543604 221.042097 
L 208.950578 221.042097 
L 209.010274 220.812636 
L 210.090638 220.812636 
L 210.166501 220.468445 
L 210.213766 220.468445 
L 210.213766 220.353715 
L 210.537151 220.353715 
L 210.641428 219.780063 
L 210.691319 219.780063 
L 210.700582 219.550602 
L 210.820159 219.550602 
L 210.891062 219.206411 
L 212.117518 219.206411 
L 212.21943 218.97695 
L 213.586412 218.97695 
L 213.666758 218.74749 
L 214.651963 218.74749 
L 214.651963 218.632759 
L 214.872276 218.632759 
L 214.959754 218.403299 
L 214.990426 218.403299 
L 215.073764 218.059108 
L 215.153482 218.059108 
L 215.179663 217.829647 
L 215.279867 217.829647 
L 215.390681 217.600186 
L 215.782557 217.600186 
L 215.782557 217.485456 
L 216.186999 217.485456 
L 216.222728 217.255995 
L 217.004447 217.255995 
L 217.012953 217.026535 
L 217.475168 217.026535 
L 217.577074 216.797074 
L 217.640024 216.797074 
L 217.640024 216.682344 
L 218.13833 216.682344 
L 218.13833 216.567613 
L 218.346394 216.567613 
L 218.346394 216.452883 
L 218.903012 216.452883 
L 218.903012 216.338153 
L 220.902939 216.338153 
L 220.902939 216.223422 
L 221.411586 216.223422 
L 221.454742 215.993962 
L 221.912734 215.993962 
L 222.011104 215.764501 
L 222.235312 215.764501 
L 222.235312 215.649771 
L 222.688833 215.649771 
L 222.688833 215.53504 
L 222.928796 215.53504 
L 222.928796 215.42031 
L 224.354287 215.42031 
L 224.422186 214.961388 
L 224.777721 214.961388 
L 224.777721 214.846658 
L 225.16941 214.846658 
L 225.16941 214.731928 
L 225.527794 214.731928 
L 225.527794 214.617197 
L 226.012173 214.617197 
L 226.058466 214.387737 
L 226.21228 214.387737 
L 226.21228 214.273006 
L 226.543299 214.273006 
L 226.650159 213.814085 
L 226.684006 213.814085 
L 226.684006 213.699355 
L 227.064398 213.699355 
L 227.106203 213.355164 
L 227.205669 213.355164 
L 227.243498 213.125703 
L 227.990227 213.125703 
L 228.050828 212.781512 
L 228.524482 212.781512 
L 228.524482 212.666782 
L 228.763838 212.666782 
L 228.763838 212.552051 
L 229.098698 212.552051 
L 229.098698 212.437321 
L 229.485854 212.437321 
L 229.580303 212.20786 
L 229.74027 212.20786 
L 229.84406 211.9784 
L 230.317679 211.9784 
L 230.317679 211.863669 
L 231.603095 211.863669 
L 231.649183 211.404748 
L 233.083025 211.404748 
L 233.083025 211.290017 
L 233.415824 211.290017 
L 233.415824 211.175287 
L 233.778877 211.175287 
L 233.804693 210.945826 
L 234.883135 210.945826 
L 234.883135 210.831096 
L 235.689509 210.831096 
L 235.689509 210.716366 
L 236.695198 210.716366 
L 236.756428 210.372175 
L 236.821227 210.372175 
L 236.821227 210.257444 
L 237.13638 210.257444 
L 237.13638 210.142714 
L 237.31599 210.142714 
L 237.330105 209.913253 
L 239.090044 209.913253 
L 239.090044 209.798523 
L 241.247824 209.798523 
L 241.247824 209.683793 
L 241.533253 209.683793 
L 241.533253 209.569062 
L 242.138103 209.569062 
L 242.138103 209.454332 
L 243.018992 209.454332 
L 243.031441 209.224871 
L 243.245588 209.224871 
L 243.245588 209.110141 
L 244.169335 209.110141 
L 244.180163 208.88068 
L 244.4405 208.88068 
L 244.4405 208.76595 
L 244.660305 208.76595 
L 244.660305 208.65122 
L 245.378346 208.65122 
L 245.378346 208.536489 
L 245.509047 208.536489 
L 245.509047 208.421759 
L 246.100561 208.421759 
L 246.100561 208.307029 
L 246.281357 208.307029 
L 246.281357 208.192298 
L 246.645813 208.192298 
L 246.687112 207.962838 
L 246.820209 207.962838 
L 246.820209 207.848107 
L 248.452243 207.848107 
L 248.452243 207.733377 
L 250.160306 207.733377 
L 250.242077 207.389186 
L 250.659071 207.389186 
L 250.659071 207.274455 
L 251.167713 207.274455 
L 251.195785 206.930264 
L 251.300193 206.930264 
L 251.300193 206.815534 
L 251.449143 206.815534 
L 251.449143 206.700804 
L 251.951809 206.700804 
L 251.951809 206.586073 
L 252.543244 206.586073 
L 252.550455 206.356613 
L 254.102257 206.356613 
L 254.102257 206.241882 
L 254.238113 206.241882 
L 254.238113 206.127152 
L 254.394496 206.127152 
L 254.466737 205.897691 
L 255.146547 205.897691 
L 255.146547 205.782961 
L 256.160836 205.782961 
L 256.160836 205.668231 
L 257.581746 205.668231 
L 257.581746 205.5535 
L 258.37328 205.5535 
L 258.37328 205.43877 
L 260.444978 205.43877 
L 260.465442 205.209309 
L 261.191065 205.209309 
L 261.191065 205.094579 
L 261.779869 205.094579 
L 261.783111 204.865118 
L 262.896584 204.865118 
L 262.896584 204.750388 
L 264.491616 204.750388 
L 264.491616 204.635658 
L 264.769934 204.635658 
L 264.773221 204.406197 
L 265.192044 204.406197 
L 265.192044 204.291467 
L 265.385572 204.291467 
L 265.445657 203.947275 
L 265.747717 203.947275 
L 265.747717 203.832545 
L 268.535796 203.832545 
L 268.535796 203.717815 
L 269.392246 203.717815 
L 269.392246 203.603084 
L 269.958975 203.603084 
L 269.958975 203.488354 
L 270.463261 203.488354 
L 270.463261 203.373624 
L 270.651573 203.373624 
L 270.651573 203.258893 
L 271.819778 203.258893 
L 271.930357 203.029433 
L 273.95288 203.029433 
L 273.954815 202.799972 
L 275.799839 202.799972 
L 275.801708 202.570511 
L 277.202011 202.570511 
L 277.202011 202.455781 
L 277.686594 202.455781 
L 277.686594 202.341051 
L 278.452043 202.341051 
L 278.452043 202.22632 
L 281.268791 202.22632 
L 281.268791 202.11159 
L 282.303192 202.11159 
L 282.303192 201.99686 
L 282.666104 201.99686 
L 282.666104 201.882129 
L 283.470332 201.882129 
L 283.470332 201.767399 
L 284.138518 201.767399 
L 284.138518 201.652669 
L 284.70763 201.652669 
L 284.70763 201.537938 
L 285.34605 201.537938 
L 285.34605 201.423208 
L 287.182161 201.423208 
L 287.182164 201.193747 
L 288.10611 201.193747 
L 288.10611 201.079017 
L 288.713569 201.079017 
L 288.713569 200.964287 
L 290.240979 200.964287 
L 290.24099 200.734826 
L 290.696959 200.734826 
L 290.696962 200.505365 
L 300.533933 200.505365 
L 300.533933 200.390635 
L 309.463035 200.390635 
L 309.463035 200.275904 
L 338.688 200.275904 
L 338.688 200.275904 
" style="fill:none;stroke:#000080;stroke-linecap:square;stroke-width:1.5;"/>
   </g>
   <g id="line2d_36">
    <defs>
     <path d="M 0 6 
C 1.591219 6 3.117479 5.367802 4.242641 4.242641 
C 5.367802 3.117479 6 1.591219 6 0 
C 6 -1.591219 5.367802 -3.117479 4.242641 -4.242641 
C 3.117479 -5.367802 1.591219 -6 0 -6 
C -1.591219 -6 -3.117479 -5.367802 -4.242641 -4.242641 
C -5.367802 -3.117479 -6 -1.591219 -6 0 
C -6 1.591219 -5.367802 3.117479 -4.242641 4.242641 
C -3.117479 5.367802 -1.591219 6 0 6 
z
" id="m43de9186ad" style="stroke:#000080;stroke-width:1.5;"/>
    </defs>
    <g>
     <use style="fill-opacity:0;stroke:#000080;stroke-width:1.5;" x="87.952479" xlink:href="#m43de9186ad" y="281.160797"/>
     <use style="fill-opacity:0;stroke:#000080;stroke-width:1.5;" x="169.883706" xlink:href="#m43de9186ad" y="241.464098"/>
     <use style="fill-opacity:0;stroke:#000080;stroke-width:1.5;" x="235.689509" xlink:href="#m43de9186ad" y="210.831096"/>
     <use style="fill-opacity:0;stroke:#000080;stroke-width:1.5;" x="309.463035" xlink:href="#m43de9186ad" y="200.390635"/>
     <use style="fill-opacity:0;stroke:#000080;stroke-width:1.5;" x="309.463035" xlink:href="#m43de9186ad" y="200.275904"/>
     <use style="fill-opacity:0;stroke:#000080;stroke-width:1.5;" x="338.688" xlink:href="#m43de9186ad" y="200.275904"/>
    </g>
   </g>
   <g id="line2d_37">
    <path style="fill:none;stroke:#000080;stroke-linecap:square;stroke-width:1.5;"/>
    <g/>
   </g>
   <g id="line2d_38">
    <path clip-path="url(#p808183391e)" d="M 246.289294 208.192298 
" style="fill:none;stroke:#000080;stroke-linecap:square;stroke-width:1.5;"/>
    <defs>
     <path d="M -12 12 
L 12 -12 
M -12 -12 
L 12 12 
" id="mdef04248d0" style="stroke:#000080;"/>
    </defs>
    <g clip-path="url(#p808183391e)">
     <use style="fill:#000080;stroke:#000080;" x="246.289294" xlink:href="#mdef04248d0" y="208.192298"/>
    </g>
   </g>
   <g id="line2d_39">
    <defs>
     <path d="M 0 1.5 
C 0.397805 1.5 0.77937 1.341951 1.06066 1.06066 
C 1.341951 0.77937 1.5 0.397805 1.5 0 
C 1.5 -0.397805 1.341951 -0.77937 1.06066 -1.06066 
C 0.77937 -1.341951 0.397805 -1.5 0 -1.5 
C -0.397805 -1.5 -0.77937 -1.341951 -1.06066 -1.06066 
C -1.341951 -0.77937 -1.5 -0.397805 -1.5 0 
C -1.5 0.397805 -1.341951 0.77937 -1.06066 1.06066 
C -0.77937 1.341951 -0.397805 1.5 0 1.5 
z
" id="m98649088a8" style="stroke:#ff00ff;"/>
    </defs>
    <g>
     <use style="fill:#ff00ff;stroke:#ff00ff;" x="314.80511" xlink:href="#m98649088a8" y="248.462649"/>
     <use style="fill:#ff00ff;stroke:#ff00ff;" x="314.80511" xlink:href="#m98649088a8" y="248.462649"/>
    </g>
   </g>
   <g id="line2d_40">
    <path d="M 5.356583 298.944 
L 5.356583 293.781135 
L 17.444571 293.781135 
L 17.444571 289.995033 
L 24.515591 289.995033 
L 24.515591 289.07719 
L 29.53256 289.07719 
L 29.53256 287.470966 
L 36.60358 287.470966 
L 36.60358 287.126775 
L 41.620548 287.126775 
L 41.620548 287.012044 
L 43.6746 287.012044 
L 43.6746 286.897314 
L 45.512012 286.897314 
L 45.512012 286.667853 
L 48.691568 286.667853 
L 48.691568 286.553123 
L 51.379845 286.553123 
L 51.379845 286.438393 
L 52.583031 286.438393 
L 52.583031 286.208932 
L 59.262141 286.208932 
L 59.262141 285.979471 
L 60.037348 285.979471 
L 60.037348 285.75001 
L 63.467834 285.75001 
L 63.467834 285.63528 
L 64.079801 285.63528 
L 64.079801 285.52055 
L 70.11861 285.52055 
L 70.11861 285.405819 
L 70.538854 285.405819 
L 70.538854 285.291089 
L 71.35013 285.291089 
L 71.35013 285.176359 
L 72.500389 285.176359 
L 72.500389 284.946898 
L 74.263433 284.946898 
L 74.263433 284.832168 
L 74.595619 284.832168 
L 74.595619 284.373246 
L 74.921597 284.373246 
L 74.921597 284.258516 
L 75.555822 284.258516 
L 75.555822 283.914325 
L 77.330839 283.914325 
L 77.330839 283.799595 
L 78.683399 283.799595 
L 78.683399 283.684864 
L 80.179111 283.684864 
L 80.179111 283.570134 
L 82.626842 283.570134 
L 82.626842 283.455404 
L 86.351421 283.455404 
L 86.351421 283.340673 
L 86.683608 283.340673 
L 86.683608 283.225943 
L 87.170317 283.225943 
L 87.170317 283.111213 
L 87.329581 283.111213 
L 87.329581 282.881752 
L 87.487404 282.881752 
L 87.487404 282.767022 
L 87.643811 282.767022 
L 87.643811 282.652291 
L 87.798828 282.652291 
L 87.798828 282.537561 
L 88.701061 282.537561 
L 88.701061 282.422831 
L 89.697862 282.422831 
L 89.697862 282.19337 
L 90.901048 282.19337 
L 90.901048 281.849179 
L 91.157513 281.849179 
L 91.157513 281.734448 
L 92.969447 281.734448 
L 92.969447 281.390257 
L 93.310291 281.390257 
L 93.310291 281.275527 
L 93.422441 281.275527 
L 93.422441 281.160797 
L 93.754628 281.160797 
L 93.754628 281.046066 
L 94.294587 281.046066 
L 94.294587 280.931336 
L 95.125186 280.931336 
L 95.125186 280.816606 
L 95.624913 280.816606 
L 95.624913 280.701875 
L 97.224242 280.701875 
L 97.224242 280.472415 
L 97.928955 280.472415 
L 97.928955 280.242954 
L 98.100772 280.242954 
L 98.100772 280.128224 
L 98.270913 280.128224 
L 98.355365 279.898763 
L 99.653771 279.898763 
L 99.653771 279.669302 
L 101.646892 279.669302 
L 101.646892 279.554572 
L 101.785851 279.554572 
L 101.785851 279.439842 
L 102.989037 279.439842 
L 102.989037 279.325111 
L 103.435405 279.325111 
L 103.435405 279.210381 
L 103.809118 279.210381 
L 103.809118 279.095651 
L 103.993014 279.095651 
L 103.993014 278.98092 
L 107.009204 278.98092 
L 107.009204 278.86619 
L 108.577836 278.86619 
L 108.577836 278.75146 
L 109.222105 278.75146 
L 109.222105 278.636729 
L 111.266113 278.636729 
L 111.266113 278.521999 
L 111.545148 278.521999 
L 111.624059 278.292538 
L 111.663381 278.292538 
L 111.663381 278.177808 
L 111.974805 278.177808 
L 111.974805 278.063077 
L 112.128456 278.063077 
L 112.128456 277.948347 
L 112.318635 277.948347 
L 112.318635 277.833617 
L 112.877038 277.833617 
L 112.877038 277.718886 
L 113.382559 277.718886 
L 113.382559 277.604156 
L 114.418861 277.604156 
L 114.418861 277.489426 
L 114.882171 277.489426 
L 114.882171 277.374695 
L 115.33349 277.374695 
L 115.33349 277.259965 
L 116.232781 277.259965 
L 116.232781 277.145235 
L 116.768501 277.145235 
L 116.768501 277.030504 
L 116.972471 277.030504 
L 116.972471 276.915774 
L 117.458117 276.915774 
L 117.458117 276.801044 
L 117.84815 276.801044 
L 117.84815 276.686313 
L 117.985359 276.686313 
L 117.985359 276.571583 
L 118.256582 276.571583 
L 118.256582 276.456853 
L 118.681952 276.456853 
L 118.734401 276.227392 
L 120.500969 276.227392 
L 120.500969 276.112662 
L 122.573415 276.112662 
L 122.573415 275.997931 
L 123.050097 275.997931 
L 123.050097 275.883201 
L 123.192626 275.883201 
L 123.192626 275.768471 
L 125.665205 275.768471 
L 125.665205 275.65374 
L 126.756581 275.65374 
L 126.756581 275.53901 
L 126.904721 275.53901 
L 126.937471 275.194819 
L 128.107907 275.194819 
L 128.107907 275.080089 
L 128.531065 275.080089 
L 128.531065 274.965358 
L 128.650105 274.965358 
L 128.753602 274.735897 
L 128.856489 274.735897 
L 128.856489 274.621167 
L 130.236587 274.621167 
L 130.236587 274.506437 
L 131.26195 274.506437 
L 131.26195 274.391706 
L 132.422528 274.391706 
L 132.48215 274.162246 
L 132.624415 274.162246 
L 132.624415 274.047515 
L 132.951923 274.047515 
L 132.951923 273.818055 
L 134.870259 273.818055 
L 134.870259 273.703324 
L 135.542259 273.703324 
L 135.542259 273.588594 
L 136.034648 273.588594 
L 136.034648 273.473864 
L 136.551264 273.473864 
L 136.579521 273.244403 
L 137.52291 273.244403 
L 137.52291 273.129673 
L 137.709143 273.129673 
L 137.709143 273.014942 
L 138.786618 273.014942 
L 138.786618 272.900212 
L 141.809295 272.900212 
L 141.823235 272.670751 
L 142.168169 272.670751 
L 142.168169 272.556021 
L 142.805321 272.556021 
L 142.805321 272.441291 
L 143.053804 272.441291 
L 143.086237 272.21183 
L 143.791143 272.21183 
L 143.791143 272.0971 
L 144.087359 272.0971 
L 144.087359 271.982369 
L 144.330419 271.982369 
L 144.330419 271.867639 
L 144.611752 271.867639 
L 144.611752 271.752909 
L 145.275853 271.752909 
L 145.275853 271.638178 
L 146.38313 271.638178 
L 146.38313 271.523448 
L 147.434383 271.523448 
L 147.434383 271.408718 
L 148.449693 271.408718 
L 148.449693 271.293987 
L 148.752007 271.293987 
L 148.752007 271.179257 
L 148.896577 271.179257 
L 148.896577 271.064526 
L 149.937701 271.064526 
L 150.024985 270.720335 
L 151.080698 270.720335 
L 151.080698 270.605605 
L 151.239776 270.605605 
L 151.239776 270.490875 
L 151.585518 270.490875 
L 151.680793 270.261414 
L 152.635976 270.261414 
L 152.635976 270.146684 
L 152.922207 270.146684 
L 152.922207 270.031953 
L 153.477379 270.031953 
L 153.56999 269.802493 
L 153.623196 269.802493 
L 153.623196 269.687762 
L 153.844908 269.687762 
L 153.844908 269.573032 
L 154.412564 269.573032 
L 154.412564 269.458302 
L 154.533999 269.458302 
L 154.533999 269.343571 
L 154.975439 269.343571 
L 154.975439 269.228841 
L 155.206599 269.228841 
L 155.206599 269.114111 
L 156.138594 269.114111 
L 156.138594 268.99938 
L 156.373091 268.99938 
L 156.373091 268.88465 
L 156.770849 268.88465 
L 156.856386 268.655189 
L 157.075678 268.655189 
L 157.075678 268.540459 
L 157.309456 268.540459 
L 157.309456 268.425729 
L 157.58535 268.425729 
L 157.58535 268.310998 
L 157.697862 268.310998 
L 157.697862 268.196268 
L 158.578075 268.196268 
L 158.578075 268.081538 
L 158.742573 268.081538 
L 158.742573 267.966807 
L 159.560209 267.966807 
L 159.560209 267.852077 
L 160.152267 267.852077 
L 160.152267 267.737347 
L 160.434936 267.737347 
L 160.434936 267.622616 
L 160.762555 267.622616 
L 160.762555 267.507886 
L 160.956678 267.507886 
L 160.956678 267.393156 
L 161.222121 267.393156 
L 161.222121 267.278425 
L 161.627414 267.278425 
L 161.698887 267.048964 
L 162.082474 267.048964 
L 162.082474 266.934234 
L 162.532336 266.934234 
L 162.532336 266.819504 
L 163.113282 266.819504 
L 163.129716 266.475313 
L 164.387164 266.475313 
L 164.387164 266.360582 
L 164.80436 266.360582 
L 164.80436 266.245852 
L 164.923336 266.245852 
L 164.923336 266.131122 
L 165.219096 266.131122 
L 165.219096 266.016391 
L 165.751867 266.016391 
L 165.751867 265.901661 
L 167.61029 265.901661 
L 167.71795 265.44274 
L 167.724262 265.44274 
L 167.724262 265.328009 
L 167.860992 265.328009 
L 167.860992 265.213279 
L 168.038548 265.213279 
L 168.08961 264.983818 
L 168.527503 264.983818 
L 168.527503 264.869088 
L 168.848485 264.869088 
L 168.848485 264.754358 
L 169.09671 264.754358 
L 169.09671 264.639627 
L 170.058475 264.639627 
L 170.058475 264.524897 
L 170.310587 264.524897 
L 170.310587 264.410167 
L 170.585907 264.410167 
L 170.662064 264.065976 
L 171.127736 264.065976 
L 171.206738 263.836515 
L 171.535706 263.836515 
L 171.535706 263.721785 
L 172.001148 263.721785 
L 172.079986 263.492324 
L 172.218321 263.492324 
L 172.218321 263.377593 
L 172.613754 263.377593 
L 172.613754 263.262863 
L 172.971247 263.262863 
L 172.971247 263.148133 
L 173.573829 263.148133 
L 173.573829 263.033402 
L 173.831397 263.033402 
L 173.852505 262.803942 
L 174.018258 262.803942 
L 174.018258 262.689211 
L 174.487009 262.689211 
L 174.487009 262.574481 
L 175.186877 262.574481 
L 175.186877 262.459751 
L 175.562324 262.459751 
L 175.562324 262.34502 
L 176.525708 262.34502 
L 176.525708 262.23029 
L 176.74718 262.23029 
L 176.775372 262.000829 
L 176.919375 262.000829 
L 176.990933 261.771369 
L 177.996389 261.771369 
L 177.996389 261.656638 
L 178.61729 261.656638 
L 178.61729 261.541908 
L 178.796319 261.541908 
L 178.796319 261.427178 
L 179.17107 261.427178 
L 179.17107 261.312447 
L 179.449558 261.312447 
L 179.449558 261.197717 
L 180.623024 261.197717 
L 180.674908 260.968256 
L 181.167189 260.968256 
L 181.250202 260.738796 
L 181.841566 260.738796 
L 181.841566 260.624065 
L 182.084247 260.624065 
L 182.084247 260.509335 
L 183.928513 260.509335 
L 183.928513 260.394605 
L 184.215843 260.394605 
L 184.215843 260.279874 
L 184.667737 260.279874 
L 184.7214 260.050414 
L 185.726567 260.050414 
L 185.726567 259.935683 
L 186.057789 259.935683 
L 186.162794 259.706222 
L 187.282577 259.706222 
L 187.282577 259.591492 
L 187.801151 259.591492 
L 187.801151 259.476762 
L 188.318316 259.476762 
L 188.318316 259.362031 
L 188.888693 259.362031 
L 188.971007 259.132571 
L 190.168656 259.132571 
L 190.168656 259.01784 
L 191.304831 259.01784 
L 191.304831 258.90311 
L 191.699498 258.90311 
L 191.699498 258.78838 
L 192.110001 258.78838 
L 192.110001 258.673649 
L 193.010404 258.673649 
L 193.010404 258.558919 
L 196.639787 258.558919 
L 196.639787 258.444189 
L 198.764931 258.444189 
L 198.764931 258.329458 
L 200.04363 258.329458 
L 200.04363 258.214728 
L 204.849759 258.214728 
L 204.849759 258.099998 
L 206.845018 258.099998 
L 206.845018 257.985267 
L 207.245056 257.985267 
L 207.245056 257.870537 
L 208.987782 257.870537 
L 209.095095 257.641076 
L 216.738573 257.641076 
L 216.738573 257.526346 
L 217.03014 257.526346 
L 217.03014 257.411616 
L 219.697852 257.411616 
L 219.697852 257.296885 
L 225.078019 257.296885 
L 225.078019 257.182155 
L 237.316253 257.182155 
L 237.316253 257.067425 
L 239.954271 257.067425 
L 239.954271 256.952694 
L 240.469773 256.952694 
L 240.469773 256.837964 
L 243.161225 256.837964 
L 243.174782 256.608503 
L 243.425845 256.608503 
L 243.425845 256.493773 
L 244.763448 256.493773 
L 244.763448 256.379043 
L 246.431694 256.379043 
L 246.527362 255.69066 
L 246.570934 255.69066 
L 246.575052 255.4612 
L 246.77059 255.4612 
L 246.77059 255.346469 
L 246.888265 255.346469 
L 246.888265 255.231739 
L 247.007544 255.231739 
L 247.007544 255.117009 
L 248.055303 255.117009 
L 248.055303 255.002278 
L 249.723575 255.002278 
L 249.723575 254.772818 
L 257.004187 254.772818 
L 257.004187 254.658087 
L 258.490339 254.658087 
L 258.511413 254.199166 
L 259.375047 254.199166 
L 259.375047 254.084436 
L 264.470558 254.084436 
L 264.537771 253.740245 
L 264.954278 253.740245 
L 264.954278 253.625514 
L 265.526087 253.625514 
L 265.527928 253.396054 
L 265.679339 253.396054 
L 265.679339 253.281323 
L 266.119736 253.281323 
L 266.119736 253.166593 
L 269.737114 253.166593 
L 269.737114 253.051863 
L 270.513189 253.051863 
L 270.526883 252.822402 
L 273.820312 252.822402 
L 273.820312 252.707672 
L 274.061945 252.707672 
L 274.061945 252.592941 
L 274.453951 252.592941 
L 274.50499 251.904559 
L 277.054199 251.904559 
L 277.054199 251.789829 
L 277.290957 251.789829 
L 277.290957 251.675098 
L 277.581023 251.675098 
L 277.617319 251.445638 
L 280.014474 251.445638 
L 280.014474 251.330907 
L 280.258658 251.330907 
L 280.258658 251.216177 
L 282.19291 251.216177 
L 282.19291 250.986716 
L 282.597992 250.986716 
L 282.597992 250.871986 
L 284.637099 250.871986 
L 284.637099 250.757256 
L 286.178503 250.757256 
L 286.178503 250.642525 
L 286.467281 250.642525 
L 286.467281 250.527795 
L 287.863111 250.527795 
L 287.863111 250.413065 
L 288.13937 250.413065 
L 288.13937 250.298334 
L 289.501974 250.298334 
L 289.501974 250.183604 
L 290.799241 250.183604 
L 290.799241 250.068874 
L 292.107494 250.068874 
L 292.121294 249.724683 
L 294.461933 249.724683 
L 294.461933 249.495222 
L 295.736478 249.495222 
L 295.736478 249.380492 
L 296.54669 249.380492 
L 296.54669 249.265761 
L 297.674759 249.265761 
L 297.674759 249.151031 
L 298.399006 249.151031 
L 298.399006 249.036301 
L 299.396269 249.036301 
L 299.396269 248.92157 
L 302.317264 248.92157 
L 302.317264 248.80684 
L 303.117238 248.80684 
L 303.117238 248.692109 
L 310.553905 248.692109 
L 310.553905 248.577379 
L 314.80511 248.577379 
L 314.80511 248.462649 
L 338.688 248.462649 
L 338.688 248.462649 
" style="fill:none;stroke:#ff00ff;stroke-linecap:square;stroke-width:1.5;"/>
   </g>
   <g id="line2d_41">
    <defs>
     <path d="M -0 8.485281 
L 5.091169 0 
L 0 -8.485281 
L -5.091169 -0 
z
" id="mc6ecc12c23" style="stroke:#ff00ff;stroke-linejoin:miter;stroke-width:1.5;"/>
    </defs>
    <g>
     <use style="fill-opacity:0;stroke:#ff00ff;stroke-linejoin:miter;stroke-width:1.5;" x="103.435405" xlink:href="#mc6ecc12c23" y="279.210381"/>
     <use style="fill-opacity:0;stroke:#ff00ff;stroke-linejoin:miter;stroke-width:1.5;" x="174.018258" xlink:href="#mc6ecc12c23" y="262.689211"/>
     <use style="fill-opacity:0;stroke:#ff00ff;stroke-linejoin:miter;stroke-width:1.5;" x="249.723575" xlink:href="#mc6ecc12c23" y="255.002278"/>
     <use style="fill-opacity:0;stroke:#ff00ff;stroke-linejoin:miter;stroke-width:1.5;" x="314.80511" xlink:href="#mc6ecc12c23" y="248.577379"/>
     <use style="fill-opacity:0;stroke:#ff00ff;stroke-linejoin:miter;stroke-width:1.5;" x="314.80511" xlink:href="#mc6ecc12c23" y="248.462649"/>
     <use style="fill-opacity:0;stroke:#ff00ff;stroke-linejoin:miter;stroke-width:1.5;" x="338.688" xlink:href="#mc6ecc12c23" y="248.462649"/>
    </g>
   </g>
   <g id="line2d_42">
    <path style="fill:none;stroke:#ff00ff;stroke-linecap:square;stroke-width:1.5;"/>
    <g/>
   </g>
   <g id="line2d_43">
    <path clip-path="url(#p808183391e)" d="M 246.289154 256.379043 
" style="fill:none;stroke:#ff00ff;stroke-linecap:square;stroke-width:1.5;"/>
    <defs>
     <path d="M -12 12 
L 12 -12 
M -12 -12 
L 12 12 
" id="md330713c51" style="stroke:#ff00ff;"/>
    </defs>
    <g clip-path="url(#p808183391e)">
     <use style="fill:#ff00ff;stroke:#ff00ff;" x="246.289154" xlink:href="#md330713c51" y="256.379043"/>
    </g>
   </g>
   <g id="line2d_44">
    <path d="M 338.688 248.462649 
L 369.60768 293.092752 
" style="fill:none;stroke:#ff00ff;stroke-linecap:square;stroke-width:1.5;"/>
    <g>
     <use style="fill-opacity:0;stroke:#ff00ff;stroke-linejoin:miter;stroke-width:1.5;" x="338.688" xlink:href="#mc6ecc12c23" y="248.462649"/>
     <use style="fill-opacity:0;stroke:#ff00ff;stroke-linejoin:miter;stroke-width:1.5;" x="369.60768" xlink:href="#mc6ecc12c23" y="293.092752"/>
    </g>
   </g>
   <g id="line2d_45">
    <path d="M 338.688 200.275904 
L 369.60768 152.662812 
" style="fill:none;stroke:#000080;stroke-linecap:square;stroke-width:1.5;"/>
    <g>
     <use style="fill-opacity:0;stroke:#000080;stroke-width:1.5;" x="338.688" xlink:href="#m43de9186ad" y="200.275904"/>
     <use style="fill-opacity:0;stroke:#000080;stroke-width:1.5;" x="369.60768" xlink:href="#m43de9186ad" y="152.662812"/>
    </g>
   </g>
   <g id="line2d_46">
    <path d="M 338.688 298.944 
L 338.688 6.381624 
" style="fill:none;stroke:#000000;stroke-linecap:square;stroke-width:1.5;"/>
   </g>
   <g id="patch_3">
    <path d="M 57.6 298.944 
L 57.6 3.456 
" style="fill:none;stroke:#000000;stroke-linecap:square;stroke-linejoin:miter;stroke-width:0.8;"/>
   </g>
   <g id="patch_4">
    <path d="M 338.688 298.944 
L 338.688 3.456 
" style="fill:none;stroke:#000000;stroke-linecap:square;stroke-linejoin:miter;stroke-width:0.8;"/>
   </g>
   <g id="patch_5">
    <path d="M 57.6 298.944 
L 338.688 298.944 
" style="fill:none;stroke:#000000;stroke-linecap:square;stroke-linejoin:miter;stroke-width:0.8;"/>
   </g>
   <g id="patch_6">
    <path d="M 57.6 3.456 
L 338.688 3.456 
" style="fill:none;stroke:#000000;stroke-linecap:square;stroke-linejoin:miter;stroke-width:0.8;"/>
   </g>
   <g id="text_13">
    <!-- PSO -->
    <g transform="translate(375.22944 297.78369)scale(0.17 -0.17)">
     <defs>
      <path d="M 19.671875 64.796875 
L 19.671875 37.40625 
L 32.078125 37.40625 
Q 38.96875 37.40625 42.71875 40.96875 
Q 46.484375 44.53125 46.484375 51.125 
Q 46.484375 57.671875 42.71875 61.234375 
Q 38.96875 64.796875 32.078125 64.796875 
z
M 9.8125 72.90625 
L 32.078125 72.90625 
Q 44.34375 72.90625 50.609375 67.359375 
Q 56.890625 61.8125 56.890625 51.125 
Q 56.890625 40.328125 50.609375 34.8125 
Q 44.34375 29.296875 32.078125 29.296875 
L 19.671875 29.296875 
L 19.671875 0 
L 9.8125 0 
z
" id="DejaVuSans-80"/>
      <path d="M 53.515625 70.515625 
L 53.515625 60.890625 
Q 47.90625 63.578125 42.921875 64.890625 
Q 37.9375 66.21875 33.296875 66.21875 
Q 25.25 66.21875 20.875 63.09375 
Q 16.5 59.96875 16.5 54.203125 
Q 16.5 49.359375 19.40625 46.890625 
Q 22.3125 44.4375 30.421875 42.921875 
L 36.375 41.703125 
Q 47.40625 39.59375 52.65625 34.296875 
Q 57.90625 29 57.90625 20.125 
Q 57.90625 9.515625 50.796875 4.046875 
Q 43.703125 -1.421875 29.984375 -1.421875 
Q 24.8125 -1.421875 18.96875 -0.25 
Q 13.140625 0.921875 6.890625 3.21875 
L 6.890625 13.375 
Q 12.890625 10.015625 18.65625 8.296875 
Q 24.421875 6.59375 29.984375 6.59375 
Q 38.421875 6.59375 43.015625 9.90625 
Q 47.609375 13.234375 47.609375 19.390625 
Q 47.609375 24.75 44.3125 27.78125 
Q 41.015625 30.8125 33.5 32.328125 
L 27.484375 33.5 
Q 16.453125 35.6875 11.515625 40.375 
Q 6.59375 45.0625 6.59375 53.421875 
Q 6.59375 63.09375 13.40625 68.65625 
Q 20.21875 74.21875 32.171875 74.21875 
Q 37.3125 74.21875 42.625 73.28125 
Q 47.953125 72.359375 53.515625 70.515625 
z
" id="DejaVuSans-83"/>
      <path d="M 39.40625 66.21875 
Q 28.65625 66.21875 22.328125 58.203125 
Q 16.015625 50.203125 16.015625 36.375 
Q 16.015625 22.609375 22.328125 14.59375 
Q 28.65625 6.59375 39.40625 6.59375 
Q 50.140625 6.59375 56.421875 14.59375 
Q 62.703125 22.609375 62.703125 36.375 
Q 62.703125 50.203125 56.421875 58.203125 
Q 50.140625 66.21875 39.40625 66.21875 
z
M 39.40625 74.21875 
Q 54.734375 74.21875 63.90625 63.9375 
Q 73.09375 53.65625 73.09375 36.375 
Q 73.09375 19.140625 63.90625 8.859375 
Q 54.734375 -1.421875 39.40625 -1.421875 
Q 24.03125 -1.421875 14.8125 8.828125 
Q 5.609375 19.09375 5.609375 36.375 
Q 5.609375 53.65625 14.8125 63.9375 
Q 24.03125 74.21875 39.40625 74.21875 
z
" id="DejaVuSans-79"/>
     </defs>
     <use xlink:href="#DejaVuSans-80"/>
     <use x="60.302734" xlink:href="#DejaVuSans-83"/>
     <use x="123.779297" xlink:href="#DejaVuSans-79"/>
    </g>
   </g>
   <g id="text_14">
    <!-- BIPOP-CMA -->
    <g transform="translate(375.22944 157.353749)scale(0.17 -0.17)">
     <defs>
      <path d="M 19.671875 34.8125 
L 19.671875 8.109375 
L 35.5 8.109375 
Q 43.453125 8.109375 47.28125 11.40625 
Q 51.125 14.703125 51.125 21.484375 
Q 51.125 28.328125 47.28125 31.5625 
Q 43.453125 34.8125 35.5 34.8125 
z
M 19.671875 64.796875 
L 19.671875 42.828125 
L 34.28125 42.828125 
Q 41.5 42.828125 45.03125 45.53125 
Q 48.578125 48.25 48.578125 53.8125 
Q 48.578125 59.328125 45.03125 62.0625 
Q 41.5 64.796875 34.28125 64.796875 
z
M 9.8125 72.90625 
L 35.015625 72.90625 
Q 46.296875 72.90625 52.390625 68.21875 
Q 58.5 63.53125 58.5 54.890625 
Q 58.5 48.1875 55.375 44.234375 
Q 52.25 40.28125 46.1875 39.3125 
Q 53.46875 37.75 57.5 32.78125 
Q 61.53125 27.828125 61.53125 20.40625 
Q 61.53125 10.640625 54.890625 5.3125 
Q 48.25 0 35.984375 0 
L 9.8125 0 
z
" id="DejaVuSans-66"/>
      <path d="M 9.8125 72.90625 
L 19.671875 72.90625 
L 19.671875 0 
L 9.8125 0 
z
" id="DejaVuSans-73"/>
      <path d="M 64.40625 67.28125 
L 64.40625 56.890625 
Q 59.421875 61.53125 53.78125 63.8125 
Q 48.140625 66.109375 41.796875 66.109375 
Q 29.296875 66.109375 22.65625 58.46875 
Q 16.015625 50.828125 16.015625 36.375 
Q 16.015625 21.96875 22.65625 14.328125 
Q 29.296875 6.6875 41.796875 6.6875 
Q 48.140625 6.6875 53.78125 8.984375 
Q 59.421875 11.28125 64.40625 15.921875 
L 64.40625 5.609375 
Q 59.234375 2.09375 53.4375 0.328125 
Q 47.65625 -1.421875 41.21875 -1.421875 
Q 24.65625 -1.421875 15.125 8.703125 
Q 5.609375 18.84375 5.609375 36.375 
Q 5.609375 53.953125 15.125 64.078125 
Q 24.65625 74.21875 41.21875 74.21875 
Q 47.75 74.21875 53.53125 72.484375 
Q 59.328125 70.75 64.40625 67.28125 
z
" id="DejaVuSans-67"/>
      <path d="M 9.8125 72.90625 
L 24.515625 72.90625 
L 43.109375 23.296875 
L 61.8125 72.90625 
L 76.515625 72.90625 
L 76.515625 0 
L 66.890625 0 
L 66.890625 64.015625 
L 48.09375 14.015625 
L 38.1875 14.015625 
L 19.390625 64.015625 
L 19.390625 0 
L 9.8125 0 
z
" id="DejaVuSans-77"/>
      <path d="M 34.1875 63.1875 
L 20.796875 26.90625 
L 47.609375 26.90625 
z
M 28.609375 72.90625 
L 39.796875 72.90625 
L 67.578125 0 
L 57.328125 0 
L 50.6875 18.703125 
L 17.828125 18.703125 
L 11.1875 0 
L 0.78125 0 
z
" id="DejaVuSans-65"/>
     </defs>
     <use xlink:href="#DejaVuSans-66"/>
     <use x="68.603516" xlink:href="#DejaVuSans-73"/>
     <use x="98.095703" xlink:href="#DejaVuSans-80"/>
     <use x="158.398438" xlink:href="#DejaVuSans-79"/>
     <use x="237.109375" xlink:href="#DejaVuSans-80"/>
     <use x="295.162109" xlink:href="#DejaVuSans-45"/>
     <use x="331.246094" xlink:href="#DejaVuSans-67"/>
     <use x="401.070312" xlink:href="#DejaVuSans-77"/>
     <use x="487.349609" xlink:href="#DejaVuSans-65"/>
    </g>
   </g>
   <g id="text_15">
    <!-- best 2009 -->
    <g transform="translate(375.22944 16.923809)scale(0.17 -0.17)">
     <defs>
      <path d="M 48.6875 27.296875 
Q 48.6875 37.203125 44.609375 42.84375 
Q 40.53125 48.484375 33.40625 48.484375 
Q 26.265625 48.484375 22.1875 42.84375 
Q 18.109375 37.203125 18.109375 27.296875 
Q 18.109375 17.390625 22.1875 11.75 
Q 26.265625 6.109375 33.40625 6.109375 
Q 40.53125 6.109375 44.609375 11.75 
Q 48.6875 17.390625 48.6875 27.296875 
z
M 18.109375 46.390625 
Q 20.953125 51.265625 25.265625 53.625 
Q 29.59375 56 35.59375 56 
Q 45.5625 56 51.78125 48.09375 
Q 58.015625 40.1875 58.015625 27.296875 
Q 58.015625 14.40625 51.78125 6.484375 
Q 45.5625 -1.421875 35.59375 -1.421875 
Q 29.59375 -1.421875 25.265625 0.953125 
Q 20.953125 3.328125 18.109375 8.203125 
L 18.109375 0 
L 9.078125 0 
L 9.078125 75.984375 
L 18.109375 75.984375 
z
" id="DejaVuSans-98"/>
      <path d="M 10.984375 1.515625 
L 10.984375 10.5 
Q 14.703125 8.734375 18.5 7.8125 
Q 22.3125 6.890625 25.984375 6.890625 
Q 35.75 6.890625 40.890625 13.453125 
Q 46.046875 20.015625 46.78125 33.40625 
Q 43.953125 29.203125 39.59375 26.953125 
Q 35.25 24.703125 29.984375 24.703125 
Q 19.046875 24.703125 12.671875 31.3125 
Q 6.296875 37.9375 6.296875 49.421875 
Q 6.296875 60.640625 12.9375 67.421875 
Q 19.578125 74.21875 30.609375 74.21875 
Q 43.265625 74.21875 49.921875 64.515625 
Q 56.59375 54.828125 56.59375 36.375 
Q 56.59375 19.140625 48.40625 8.859375 
Q 40.234375 -1.421875 26.421875 -1.421875 
Q 22.703125 -1.421875 18.890625 -0.6875 
Q 15.09375 0.046875 10.984375 1.515625 
z
M 30.609375 32.421875 
Q 37.25 32.421875 41.125 36.953125 
Q 45.015625 41.5 45.015625 49.421875 
Q 45.015625 57.28125 41.125 61.84375 
Q 37.25 66.40625 30.609375 66.40625 
Q 23.96875 66.40625 20.09375 61.84375 
Q 16.21875 57.28125 16.21875 49.421875 
Q 16.21875 41.5 20.09375 36.953125 
Q 23.96875 32.421875 30.609375 32.421875 
z
" id="DejaVuSans-57"/>
     </defs>
     <use xlink:href="#DejaVuSans-98"/>
     <use x="63.476562" xlink:href="#DejaVuSans-101"/>
     <use x="125" xlink:href="#DejaVuSans-115"/>
     <use x="177.099609" xlink:href="#DejaVuSans-116"/>
     <use x="216.308594" xlink:href="#DejaVuSans-32"/>
     <use x="248.095703" xlink:href="#DejaVuSans-50"/>
     <use x="311.71875" xlink:href="#DejaVuSans-48"/>
     <use x="375.341797" xlink:href="#DejaVuSans-48"/>
     <use x="438.964844" xlink:href="#DejaVuSans-57"/>
    </g>
   </g>
   <g id="text_16">
    <!-- bbob f15-f19, 20-D -->
    <g transform="translate(60.41088 14.161286)scale(0.102 -0.102)">
     <defs>
      <path d="M 10.796875 72.90625 
L 49.515625 72.90625 
L 49.515625 64.59375 
L 19.828125 64.59375 
L 19.828125 46.734375 
Q 21.96875 47.46875 24.109375 47.828125 
Q 26.265625 48.1875 28.421875 48.1875 
Q 40.625 48.1875 47.75 41.5 
Q 54.890625 34.8125 54.890625 23.390625 
Q 54.890625 11.625 47.5625 5.09375 
Q 40.234375 -1.421875 26.90625 -1.421875 
Q 22.3125 -1.421875 17.546875 -0.640625 
Q 12.796875 0.140625 7.71875 1.703125 
L 7.71875 11.625 
Q 12.109375 9.234375 16.796875 8.0625 
Q 21.484375 6.890625 26.703125 6.890625 
Q 35.15625 6.890625 40.078125 11.328125 
Q 45.015625 15.765625 45.015625 23.390625 
Q 45.015625 31 40.078125 35.4375 
Q 35.15625 39.890625 26.703125 39.890625 
Q 22.75 39.890625 18.8125 39.015625 
Q 14.890625 38.140625 10.796875 36.28125 
z
" id="DejaVuSans-53"/>
      <path d="M 19.671875 64.796875 
L 19.671875 8.109375 
L 31.59375 8.109375 
Q 46.6875 8.109375 53.6875 14.9375 
Q 60.6875 21.78125 60.6875 36.53125 
Q 60.6875 51.171875 53.6875 57.984375 
Q 46.6875 64.796875 31.59375 64.796875 
z
M 9.8125 72.90625 
L 30.078125 72.90625 
Q 51.265625 72.90625 61.171875 64.09375 
Q 71.09375 55.28125 71.09375 36.53125 
Q 71.09375 17.671875 61.125 8.828125 
Q 51.171875 0 30.078125 0 
L 9.8125 0 
z
" id="DejaVuSans-68"/>
     </defs>
     <use xlink:href="#DejaVuSans-98"/>
     <use x="63.476562" xlink:href="#DejaVuSans-98"/>
     <use x="126.953125" xlink:href="#DejaVuSans-111"/>
     <use x="188.134766" xlink:href="#DejaVuSans-98"/>
     <use x="251.611328" xlink:href="#DejaVuSans-32"/>
     <use x="283.398438" xlink:href="#DejaVuSans-102"/>
     <use x="318.603516" xlink:href="#DejaVuSans-49"/>
     <use x="382.226562" xlink:href="#DejaVuSans-53"/>
     <use x="445.849609" xlink:href="#DejaVuSans-45"/>
     <use x="481.933594" xlink:href="#DejaVuSans-102"/>
     <use x="517.138672" xlink:href="#DejaVuSans-49"/>
     <use x="580.761719" xlink:href="#DejaVuSans-57"/>
     <use x="644.384766" xlink:href="#DejaVuSans-44"/>
     <use x="676.171875" xlink:href="#DejaVuSans-32"/>
     <use x="707.958984" xlink:href="#DejaVuSans-50"/>
     <use x="771.582031" xlink:href="#DejaVuSans-48"/>
     <use x="835.205078" xlink:href="#DejaVuSans-45"/>
     <use x="871.289062" xlink:href="#DejaVuSans-68"/>
    </g>
    <!-- 51 targets: 100..1e-08 -->
    <g transform="translate(60.41088 25.583055)scale(0.102 -0.102)">
     <defs>
      <path d="M 11.71875 12.40625 
L 22.015625 12.40625 
L 22.015625 0 
L 11.71875 0 
z
M 11.71875 51.703125 
L 22.015625 51.703125 
L 22.015625 39.3125 
L 11.71875 39.3125 
z
" id="DejaVuSans-58"/>
     </defs>
     <use xlink:href="#DejaVuSans-53"/>
     <use x="63.623047" xlink:href="#DejaVuSans-49"/>
     <use x="127.246094" xlink:href="#DejaVuSans-32"/>
     <use x="159.033203" xlink:href="#DejaVuSans-116"/>
     <use x="198.242188" xlink:href="#DejaVuSans-97"/>
     <use x="259.521484" xlink:href="#DejaVuSans-114"/>
     <use x="298.884766" xlink:href="#DejaVuSans-103"/>
     <use x="362.361328" xlink:href="#DejaVuSans-101"/>
     <use x="423.884766" xlink:href="#DejaVuSans-116"/>
     <use x="463.09375" xlink:href="#DejaVuSans-115"/>
     <use x="515.193359" xlink:href="#DejaVuSans-58"/>
     <use x="548.884766" xlink:href="#DejaVuSans-32"/>
     <use x="580.671875" xlink:href="#DejaVuSans-49"/>
     <use x="644.294922" xlink:href="#DejaVuSans-48"/>
     <use x="707.917969" xlink:href="#DejaVuSans-48"/>
     <use x="771.541016" xlink:href="#DejaVuSans-46"/>
     <use x="803.328125" xlink:href="#DejaVuSans-46"/>
     <use x="835.115234" xlink:href="#DejaVuSans-49"/>
     <use x="898.738281" xlink:href="#DejaVuSans-101"/>
     <use x="960.261719" xlink:href="#DejaVuSans-45"/>
     <use x="996.345703" xlink:href="#DejaVuSans-48"/>
     <use x="1059.96875" xlink:href="#DejaVuSans-56"/>
    </g>
    <!-- 15 instances -->
    <g transform="translate(60.41088 37.004824)scale(0.102 -0.102)">
     <use xlink:href="#DejaVuSans-49"/>
     <use x="63.623047" xlink:href="#DejaVuSans-53"/>
     <use x="127.246094" xlink:href="#DejaVuSans-32"/>
     <use x="159.033203" xlink:href="#DejaVuSans-105"/>
     <use x="186.816406" xlink:href="#DejaVuSans-110"/>
     <use x="250.195312" xlink:href="#DejaVuSans-115"/>
     <use x="302.294922" xlink:href="#DejaVuSans-116"/>
     <use x="341.503906" xlink:href="#DejaVuSans-97"/>
     <use x="402.783203" xlink:href="#DejaVuSans-110"/>
     <use x="466.162109" xlink:href="#DejaVuSans-99"/>
     <use x="521.142578" xlink:href="#DejaVuSans-101"/>
     <use x="582.666016" xlink:href="#DejaVuSans-115"/>
    </g>
   </g>
   <g id="text_17">
    <!-- v2.4 -->
    <g style="fill:#808080;" transform="translate(187.233062 293.909432)scale(0.1 -0.1)">
     <use xlink:href="#DejaVuSans-118"/>
     <use x="59.179688" xlink:href="#DejaVuSans-50"/>
     <use x="122.802734" xlink:href="#DejaVuSans-46"/>
     <use x="154.589844" xlink:href="#DejaVuSans-52"/>
    </g>
   </g>
  </g>
 </g>
 <defs>
  <clipPath id="p808183391e">
   <rect height="295.488" width="281.088" x="57.6" y="3.456"/>
  </clipPath>
 </defs>
</svg>
