<?xml version="1.0" encoding="utf-8" standalone="no"?>
<!DOCTYPE svg PUBLIC "-//W3C//DTD SVG 1.1//EN"
  "http://www.w3.org/Graphics/SVG/1.1/DTD/svg11.dtd">
<!-- Created with matplotlib (https://matplotlib.org/) -->
<svg height="345.6pt" version="1.1" viewBox="0 0 460.8 345.6" width="460.8pt" xmlns="http://www.w3.org/2000/svg" xmlns:xlink="http://www.w3.org/1999/xlink">
 <metadata>
  <rdf:RDF xmlns:cc="http://creativecommons.org/ns#" xmlns:dc="http://purl.org/dc/elements/1.1/" xmlns:rdf="http://www.w3.org/1999/02/22-rdf-syntax-ns#">
   <cc:Work>
    <dc:type rdf:resource="http://purl.org/dc/dcmitype/StillImage"/>
    <dc:date>2021-05-01T17:08:59.278356</dc:date>
    <dc:format>image/svg+xml</dc:format>
    <dc:creator>
     <cc:Agent>
      <dc:title>Matplotlib v3.3.2, https://matplotlib.org/</dc:title>
     </cc:Agent>
    </dc:creator>
   </cc:Work>
  </rdf:RDF>
 </metadata>
 <defs>
  <style type="text/css">*{stroke-linecap:butt;stroke-linejoin:round;}</style>
 </defs>
 <g id="figure_1">
  <g id="patch_1">
   <path d="M 0 345.6 
L 460.8 345.6 
L 460.8 0 
L 0 0 
z
" style="fill:#ffffff;"/>
  </g>
  <g id="axes_1">
   <g id="patch_2">
    <path d="M 57.6 298.944 
L 338.688 298.944 
L 338.688 3.456 
L 57.6 3.456 
z
" style="fill:#ffffff;"/>
   </g>
   <g id="line2d_1">
    <path d="M -1 290.912876 
L 27.203868 290.912876 
L 27.203868 289.765573 
L 66.853775 289.765573 
L 66.853775 288.618269 
L 81.775977 288.618269 
L 81.775977 286.323662 
L 83.138295 286.323662 
L 83.138295 285.176359 
L 84.213325 285.176359 
L 84.213325 284.029055 
L 85.315119 284.029055 
L 85.315119 282.881752 
L 86.012784 282.881752 
L 86.012784 281.734448 
L 86.601153 281.734448 
L 86.601153 280.587145 
L 87.487404 280.587145 
L 87.487404 279.439842 
L 88.180446 279.439842 
L 88.180446 277.145235 
L 90.965519 277.145235 
L 90.965519 275.997931 
L 92.267099 275.997931 
L 92.267099 274.850628 
L 93.026719 274.850628 
L 93.026719 273.703324 
L 96.86091 273.703324 
L 96.86091 272.556021 
L 102.162376 272.556021 
L 102.162376 271.408718 
L 104.913428 271.408718 
L 104.913428 270.261414 
L 107.187808 270.261414 
L 107.187808 269.114111 
L 109.491096 269.114111 
L 109.491096 267.966807 
L 114.485807 267.966807 
L 114.485807 266.819504 
L 119.502775 266.819504 
L 119.502775 265.6722 
L 129.623411 265.6722 
L 129.623411 264.524897 
L 129.78395 264.524897 
L 129.78395 263.377593 
L 132.470242 263.377593 
L 132.470242 262.23029 
L 133.409373 262.23029 
L 133.409373 261.082987 
L 136.813232 261.082987 
L 136.813232 259.935683 
L 143.722546 259.935683 
L 143.722546 258.78838 
L 149.931137 258.78838 
L 149.931137 257.641076 
L 150.501627 257.641076 
L 150.501627 256.493773 
L 154.185999 256.493773 
L 154.185999 255.346469 
L 155.656773 255.346469 
L 155.656773 254.199166 
L 156.960528 254.199166 
L 156.960528 253.051863 
L 166.948338 253.051863 
L 166.948338 251.904559 
L 172.29133 251.904559 
L 172.29133 250.757256 
L 173.56988 250.757256 
L 173.56988 249.609952 
L 175.93577 249.609952 
L 175.956448 247.315345 
L 176.597948 247.315345 
L 176.597948 246.168042 
L 177.479727 246.168042 
L 177.479727 245.020738 
L 177.626103 245.020738 
L 177.626103 243.873435 
L 189.133785 243.873435 
L 189.133785 242.726132 
L 192.807513 242.726132 
L 192.807513 241.578828 
L 194.132716 241.578828 
L 194.236694 227.811187 
L 194.258243 227.811187 
L 194.365758 215.190849 
L 194.372948 215.190849 
L 194.46785 200.275904 
L 194.487584 200.275904 
L 194.520878 195.686691 
L 195.029135 195.686691 
L 195.029135 194.539387 
L 198.80241 194.539387 
L 198.80241 193.392084 
L 201.983339 193.392084 
L 201.983339 192.24478 
L 207.742993 192.24478 
L 207.742993 191.097477 
L 208.98608 191.097477 
L 208.98608 189.950174 
L 220.991057 189.950174 
L 220.991057 188.80287 
L 226.637355 188.80287 
L 226.739256 161.267588 
L 226.751852 161.267588 
L 226.818635 144.058036 
L 226.977927 144.058036 
L 226.977927 142.910733 
L 230.164287 142.910733 
L 230.194485 140.616126 
L 232.417771 140.616126 
L 232.417771 139.468822 
L 233.929679 139.468822 
L 233.929679 138.321519 
L 236.30081 138.321519 
L 236.30081 137.174215 
L 236.48856 137.174215 
L 236.48856 136.026912 
L 238.488126 136.026912 
L 238.488126 134.879609 
L 239.078617 134.879609 
L 239.078617 133.732305 
L 239.549752 133.732305 
L 239.549752 132.585002 
L 245.816587 132.585002 
L 245.816587 131.437698 
L 248.54118 131.437698 
L 248.54118 130.290395 
L 254.146845 130.290395 
L 254.146845 129.143091 
L 254.265156 129.143091 
L 254.265156 127.995788 
L 254.403599 127.995788 
L 254.460571 125.701181 
L 254.565847 125.701181 
L 254.651208 123.406574 
L 254.713915 123.406574 
L 254.797047 121.111967 
L 254.861414 121.111967 
L 254.931352 118.817361 
L 254.982281 118.817361 
L 255.055735 116.522754 
L 255.135776 116.522754 
L 255.237525 113.080843 
L 255.289708 113.080843 
L 255.338777 110.786236 
L 255.415647 110.786236 
L 255.487081 108.49163 
L 255.550324 108.49163 
L 255.609232 106.197023 
L 255.683629 106.197023 
L 255.683629 105.049719 
L 262.350854 105.049719 
L 262.350854 103.902416 
L 264.991202 103.902416 
L 264.991202 102.755112 
L 272.980217 102.755112 
L 272.980217 101.607809 
L 281.16681 101.607809 
L 281.16681 100.460506 
L 299.174853 100.460506 
L 299.174853 99.313202 
L 299.767469 99.313202 
L 299.767469 98.165899 
L 303.129647 98.165899 
L 303.129647 97.018595 
L 307.244286 97.018595 
L 307.244286 95.871292 
L 314.189555 95.871292 
L 314.195299 92.429381 
L 321.553106 92.429381 
L 321.557412 88.987471 
L 322.833938 88.987471 
L 322.833938 87.840168 
L 333.680273 87.840168 
L 333.698792 46.537244 
L 338.688 46.537244 
L 338.688 46.537244 
" style="fill:none;stroke:#f5deb3;stroke-linecap:square;stroke-width:4;"/>
   </g>
   <g id="line2d_2">
    <defs>
     <path d="M -0 7.778175 
L 7.778175 0 
L 0 -7.778175 
L -7.778175 -0 
z
" id="md188200594" style="stroke:#f5deb3;stroke-linejoin:miter;stroke-width:1.5;"/>
    </defs>
    <g>
     <use style="fill:#f5deb3;stroke:#f5deb3;stroke-linejoin:miter;stroke-width:1.5;" x="136.813232" xlink:href="#md188200594" y="261.082987"/>
     <use style="fill:#f5deb3;stroke:#f5deb3;stroke-linejoin:miter;stroke-width:1.5;" x="201.983339" xlink:href="#md188200594" y="193.392084"/>
     <use style="fill:#f5deb3;stroke:#f5deb3;stroke-linejoin:miter;stroke-width:1.5;" x="254.146845" xlink:href="#md188200594" y="129.143091"/>
     <use style="fill:#f5deb3;stroke:#f5deb3;stroke-linejoin:miter;stroke-width:1.5;" x="333.684416" xlink:href="#md188200594" y="79.809044"/>
     <use style="fill:#f5deb3;stroke:#f5deb3;stroke-linejoin:miter;stroke-width:1.5;" x="333.698792" xlink:href="#md188200594" y="46.537244"/>
     <use style="fill:#f5deb3;stroke:#f5deb3;stroke-linejoin:miter;stroke-width:1.5;" x="338.688" xlink:href="#md188200594" y="46.537244"/>
    </g>
   </g>
   <g id="line2d_3">
    <path style="fill:none;stroke:#f5deb3;stroke-linecap:square;stroke-width:4;"/>
    <g/>
   </g>
   <g id="line2d_4">
    <path d="M 338.688 46.537244 
L 369.60768 12.232871 
" style="fill:none;stroke:#f5deb3;stroke-linecap:square;stroke-width:4;"/>
    <g>
     <use style="fill:#f5deb3;stroke:#f5deb3;stroke-linejoin:miter;stroke-width:1.5;" x="338.688" xlink:href="#md188200594" y="46.537244"/>
     <use style="fill:#f5deb3;stroke:#f5deb3;stroke-linejoin:miter;stroke-width:1.5;" x="369.60768" xlink:href="#md188200594" y="12.232871"/>
    </g>
   </g>
   <g id="matplotlib.axis_1">
    <g id="xtick_1">
     <g id="line2d_5">
      <path clip-path="url(#p2ee52d1383)" d="M 57.6 298.944 
L 57.6 3.456 
" style="fill:none;stroke:#b0b0b0;stroke-linecap:square;stroke-width:0.8;"/>
     </g>
     <g id="line2d_6">
      <defs>
       <path d="M 0 0 
L 0 3.5 
" id="m64f087a8af" style="stroke:#000000;stroke-width:0.8;"/>
      </defs>
      <g>
       <use style="stroke:#000000;stroke-width:0.8;" x="57.6" xlink:href="#m64f087a8af" y="298.944"/>
      </g>
     </g>
     <g id="text_1">
      <!-- 0 -->
      <g transform="translate(51.2375 321.140875)scale(0.2 -0.2)">
       <defs>
        <path d="M 31.78125 66.40625 
Q 24.171875 66.40625 20.328125 58.90625 
Q 16.5 51.421875 16.5 36.375 
Q 16.5 21.390625 20.328125 13.890625 
Q 24.171875 6.390625 31.78125 6.390625 
Q 39.453125 6.390625 43.28125 13.890625 
Q 47.125 21.390625 47.125 36.375 
Q 47.125 51.421875 43.28125 58.90625 
Q 39.453125 66.40625 31.78125 66.40625 
z
M 31.78125 74.21875 
Q 44.046875 74.21875 50.515625 64.515625 
Q 56.984375 54.828125 56.984375 36.375 
Q 56.984375 17.96875 50.515625 8.265625 
Q 44.046875 -1.421875 31.78125 -1.421875 
Q 19.53125 -1.421875 13.0625 8.265625 
Q 6.59375 17.96875 6.59375 36.375 
Q 6.59375 54.828125 13.0625 64.515625 
Q 19.53125 74.21875 31.78125 74.21875 
z
" id="DejaVuSans-48"/>
       </defs>
       <use xlink:href="#DejaVuSans-48"/>
      </g>
     </g>
    </g>
    <g id="xtick_2">
     <g id="line2d_7">
      <path clip-path="url(#p2ee52d1383)" d="M 137.910857 298.944 
L 137.910857 3.456 
" style="fill:none;stroke:#b0b0b0;stroke-linecap:square;stroke-width:0.8;"/>
     </g>
     <g id="line2d_8">
      <g>
       <use style="stroke:#000000;stroke-width:0.8;" x="137.910857" xlink:href="#m64f087a8af" y="298.944"/>
      </g>
     </g>
     <g id="text_2">
      <!-- 2 -->
      <g transform="translate(131.548357 321.140875)scale(0.2 -0.2)">
       <defs>
        <path d="M 19.1875 8.296875 
L 53.609375 8.296875 
L 53.609375 0 
L 7.328125 0 
L 7.328125 8.296875 
Q 12.9375 14.109375 22.625 23.890625 
Q 32.328125 33.6875 34.8125 36.53125 
Q 39.546875 41.84375 41.421875 45.53125 
Q 43.3125 49.21875 43.3125 52.78125 
Q 43.3125 58.59375 39.234375 62.25 
Q 35.15625 65.921875 28.609375 65.921875 
Q 23.96875 65.921875 18.8125 64.3125 
Q 13.671875 62.703125 7.8125 59.421875 
L 7.8125 69.390625 
Q 13.765625 71.78125 18.9375 73 
Q 24.125 74.21875 28.421875 74.21875 
Q 39.75 74.21875 46.484375 68.546875 
Q 53.21875 62.890625 53.21875 53.421875 
Q 53.21875 48.921875 51.53125 44.890625 
Q 49.859375 40.875 45.40625 35.40625 
Q 44.1875 33.984375 37.640625 27.21875 
Q 31.109375 20.453125 19.1875 8.296875 
z
" id="DejaVuSans-50"/>
       </defs>
       <use xlink:href="#DejaVuSans-50"/>
      </g>
     </g>
    </g>
    <g id="xtick_3">
     <g id="line2d_9">
      <path clip-path="url(#p2ee52d1383)" d="M 218.221714 298.944 
L 218.221714 3.456 
" style="fill:none;stroke:#b0b0b0;stroke-linecap:square;stroke-width:0.8;"/>
     </g>
     <g id="line2d_10">
      <g>
       <use style="stroke:#000000;stroke-width:0.8;" x="218.221714" xlink:href="#m64f087a8af" y="298.944"/>
      </g>
     </g>
     <g id="text_3">
      <!-- 4 -->
      <g transform="translate(211.859214 321.140875)scale(0.2 -0.2)">
       <defs>
        <path d="M 37.796875 64.3125 
L 12.890625 25.390625 
L 37.796875 25.390625 
z
M 35.203125 72.90625 
L 47.609375 72.90625 
L 47.609375 25.390625 
L 58.015625 25.390625 
L 58.015625 17.1875 
L 47.609375 17.1875 
L 47.609375 0 
L 37.796875 0 
L 37.796875 17.1875 
L 4.890625 17.1875 
L 4.890625 26.703125 
z
" id="DejaVuSans-52"/>
       </defs>
       <use xlink:href="#DejaVuSans-52"/>
      </g>
     </g>
    </g>
    <g id="xtick_4">
     <g id="line2d_11">
      <path clip-path="url(#p2ee52d1383)" d="M 298.532571 298.944 
L 298.532571 3.456 
" style="fill:none;stroke:#b0b0b0;stroke-linecap:square;stroke-width:0.8;"/>
     </g>
     <g id="line2d_12">
      <g>
       <use style="stroke:#000000;stroke-width:0.8;" x="298.532571" xlink:href="#m64f087a8af" y="298.944"/>
      </g>
     </g>
     <g id="text_4">
      <!-- 6 -->
      <g transform="translate(292.170071 321.140875)scale(0.2 -0.2)">
       <defs>
        <path d="M 33.015625 40.375 
Q 26.375 40.375 22.484375 35.828125 
Q 18.609375 31.296875 18.609375 23.390625 
Q 18.609375 15.53125 22.484375 10.953125 
Q 26.375 6.390625 33.015625 6.390625 
Q 39.65625 6.390625 43.53125 10.953125 
Q 47.40625 15.53125 47.40625 23.390625 
Q 47.40625 31.296875 43.53125 35.828125 
Q 39.65625 40.375 33.015625 40.375 
z
M 52.59375 71.296875 
L 52.59375 62.3125 
Q 48.875 64.0625 45.09375 64.984375 
Q 41.3125 65.921875 37.59375 65.921875 
Q 27.828125 65.921875 22.671875 59.328125 
Q 17.53125 52.734375 16.796875 39.40625 
Q 19.671875 43.65625 24.015625 45.921875 
Q 28.375 48.1875 33.59375 48.1875 
Q 44.578125 48.1875 50.953125 41.515625 
Q 57.328125 34.859375 57.328125 23.390625 
Q 57.328125 12.15625 50.6875 5.359375 
Q 44.046875 -1.421875 33.015625 -1.421875 
Q 20.359375 -1.421875 13.671875 8.265625 
Q 6.984375 17.96875 6.984375 36.375 
Q 6.984375 53.65625 15.1875 63.9375 
Q 23.390625 74.21875 37.203125 74.21875 
Q 40.921875 74.21875 44.703125 73.484375 
Q 48.484375 72.75 52.59375 71.296875 
z
" id="DejaVuSans-54"/>
       </defs>
       <use xlink:href="#DejaVuSans-54"/>
      </g>
     </g>
    </g>
    <g id="xtick_5">
     <g id="line2d_13">
      <path clip-path="url(#p2ee52d1383)" d="M 97.755429 298.944 
L 97.755429 3.456 
" style="fill:none;stroke:#b0b0b0;stroke-linecap:square;stroke-width:0.8;"/>
     </g>
     <g id="line2d_14">
      <defs>
       <path d="M 0 0 
L 0 2 
" id="m5bef1cdbbb" style="stroke:#000000;stroke-width:0.6;"/>
      </defs>
      <g>
       <use style="stroke:#000000;stroke-width:0.6;" x="97.755429" xlink:href="#m5bef1cdbbb" y="298.944"/>
      </g>
     </g>
    </g>
    <g id="xtick_6">
     <g id="line2d_15">
      <path clip-path="url(#p2ee52d1383)" d="M 178.066286 298.944 
L 178.066286 3.456 
" style="fill:none;stroke:#b0b0b0;stroke-linecap:square;stroke-width:0.8;"/>
     </g>
     <g id="line2d_16">
      <g>
       <use style="stroke:#000000;stroke-width:0.6;" x="178.066286" xlink:href="#m5bef1cdbbb" y="298.944"/>
      </g>
     </g>
    </g>
    <g id="xtick_7">
     <g id="line2d_17">
      <path clip-path="url(#p2ee52d1383)" d="M 258.377143 298.944 
L 258.377143 3.456 
" style="fill:none;stroke:#b0b0b0;stroke-linecap:square;stroke-width:0.8;"/>
     </g>
     <g id="line2d_18">
      <g>
       <use style="stroke:#000000;stroke-width:0.6;" x="258.377143" xlink:href="#m5bef1cdbbb" y="298.944"/>
      </g>
     </g>
    </g>
    <g id="xtick_8">
     <g id="line2d_19">
      <path clip-path="url(#p2ee52d1383)" d="M 338.688 298.944 
L 338.688 3.456 
" style="fill:none;stroke:#b0b0b0;stroke-linecap:square;stroke-width:0.8;"/>
     </g>
     <g id="line2d_20">
      <g>
       <use style="stroke:#000000;stroke-width:0.6;" x="338.688" xlink:href="#m5bef1cdbbb" y="298.944"/>
      </g>
     </g>
    </g>
    <g id="text_5">
     <!-- log10(# f-evals / dimension) -->
     <g transform="translate(77.764078 342.217594)scale(0.17 -0.17)">
      <defs>
       <path d="M 9.421875 75.984375 
L 18.40625 75.984375 
L 18.40625 0 
L 9.421875 0 
z
" id="DejaVuSans-108"/>
       <path d="M 30.609375 48.390625 
Q 23.390625 48.390625 19.1875 42.75 
Q 14.984375 37.109375 14.984375 27.296875 
Q 14.984375 17.484375 19.15625 11.84375 
Q 23.34375 6.203125 30.609375 6.203125 
Q 37.796875 6.203125 41.984375 11.859375 
Q 46.1875 17.53125 46.1875 27.296875 
Q 46.1875 37.015625 41.984375 42.703125 
Q 37.796875 48.390625 30.609375 48.390625 
z
M 30.609375 56 
Q 42.328125 56 49.015625 48.375 
Q 55.71875 40.765625 55.71875 27.296875 
Q 55.71875 13.875 49.015625 6.21875 
Q 42.328125 -1.421875 30.609375 -1.421875 
Q 18.84375 -1.421875 12.171875 6.21875 
Q 5.515625 13.875 5.515625 27.296875 
Q 5.515625 40.765625 12.171875 48.375 
Q 18.84375 56 30.609375 56 
z
" id="DejaVuSans-111"/>
       <path d="M 45.40625 27.984375 
Q 45.40625 37.75 41.375 43.109375 
Q 37.359375 48.484375 30.078125 48.484375 
Q 22.859375 48.484375 18.828125 43.109375 
Q 14.796875 37.75 14.796875 27.984375 
Q 14.796875 18.265625 18.828125 12.890625 
Q 22.859375 7.515625 30.078125 7.515625 
Q 37.359375 7.515625 41.375 12.890625 
Q 45.40625 18.265625 45.40625 27.984375 
z
M 54.390625 6.78125 
Q 54.390625 -7.171875 48.1875 -13.984375 
Q 42 -20.796875 29.203125 -20.796875 
Q 24.46875 -20.796875 20.265625 -20.09375 
Q 16.0625 -19.390625 12.109375 -17.921875 
L 12.109375 -9.1875 
Q 16.0625 -11.328125 19.921875 -12.34375 
Q 23.78125 -13.375 27.78125 -13.375 
Q 36.625 -13.375 41.015625 -8.765625 
Q 45.40625 -4.15625 45.40625 5.171875 
L 45.40625 9.625 
Q 42.625 4.78125 38.28125 2.390625 
Q 33.9375 0 27.875 0 
Q 17.828125 0 11.671875 7.65625 
Q 5.515625 15.328125 5.515625 27.984375 
Q 5.515625 40.671875 11.671875 48.328125 
Q 17.828125 56 27.875 56 
Q 33.9375 56 38.28125 53.609375 
Q 42.625 51.21875 45.40625 46.390625 
L 45.40625 54.6875 
L 54.390625 54.6875 
z
" id="DejaVuSans-103"/>
       <path d="M 12.40625 8.296875 
L 28.515625 8.296875 
L 28.515625 63.921875 
L 10.984375 60.40625 
L 10.984375 69.390625 
L 28.421875 72.90625 
L 38.28125 72.90625 
L 38.28125 8.296875 
L 54.390625 8.296875 
L 54.390625 0 
L 12.40625 0 
z
" id="DejaVuSans-49"/>
       <path d="M 31 75.875 
Q 24.46875 64.65625 21.28125 53.65625 
Q 18.109375 42.671875 18.109375 31.390625 
Q 18.109375 20.125 21.3125 9.0625 
Q 24.515625 -2 31 -13.1875 
L 23.1875 -13.1875 
Q 15.875 -1.703125 12.234375 9.375 
Q 8.59375 20.453125 8.59375 31.390625 
Q 8.59375 42.28125 12.203125 53.3125 
Q 15.828125 64.359375 23.1875 75.875 
z
" id="DejaVuSans-40"/>
       <path d="M 51.125 44 
L 36.921875 44 
L 32.8125 27.6875 
L 47.125 27.6875 
z
M 43.796875 71.78125 
L 38.71875 51.515625 
L 52.984375 51.515625 
L 58.109375 71.78125 
L 65.921875 71.78125 
L 60.890625 51.515625 
L 76.125 51.515625 
L 76.125 44 
L 58.984375 44 
L 54.984375 27.6875 
L 70.515625 27.6875 
L 70.515625 20.21875 
L 53.078125 20.21875 
L 48 0 
L 40.1875 0 
L 45.21875 20.21875 
L 30.90625 20.21875 
L 25.875 0 
L 18.015625 0 
L 23.09375 20.21875 
L 7.71875 20.21875 
L 7.71875 27.6875 
L 24.90625 27.6875 
L 29 44 
L 13.28125 44 
L 13.28125 51.515625 
L 30.90625 51.515625 
L 35.890625 71.78125 
z
" id="DejaVuSans-35"/>
       <path id="DejaVuSans-32"/>
       <path d="M 37.109375 75.984375 
L 37.109375 68.5 
L 28.515625 68.5 
Q 23.6875 68.5 21.796875 66.546875 
Q 19.921875 64.59375 19.921875 59.515625 
L 19.921875 54.6875 
L 34.71875 54.6875 
L 34.71875 47.703125 
L 19.921875 47.703125 
L 19.921875 0 
L 10.890625 0 
L 10.890625 47.703125 
L 2.296875 47.703125 
L 2.296875 54.6875 
L 10.890625 54.6875 
L 10.890625 58.5 
Q 10.890625 67.625 15.140625 71.796875 
Q 19.390625 75.984375 28.609375 75.984375 
z
" id="DejaVuSans-102"/>
       <path d="M 4.890625 31.390625 
L 31.203125 31.390625 
L 31.203125 23.390625 
L 4.890625 23.390625 
z
" id="DejaVuSans-45"/>
       <path d="M 56.203125 29.59375 
L 56.203125 25.203125 
L 14.890625 25.203125 
Q 15.484375 15.921875 20.484375 11.0625 
Q 25.484375 6.203125 34.421875 6.203125 
Q 39.59375 6.203125 44.453125 7.46875 
Q 49.3125 8.734375 54.109375 11.28125 
L 54.109375 2.78125 
Q 49.265625 0.734375 44.1875 -0.34375 
Q 39.109375 -1.421875 33.890625 -1.421875 
Q 20.796875 -1.421875 13.15625 6.1875 
Q 5.515625 13.8125 5.515625 26.8125 
Q 5.515625 40.234375 12.765625 48.109375 
Q 20.015625 56 32.328125 56 
Q 43.359375 56 49.78125 48.890625 
Q 56.203125 41.796875 56.203125 29.59375 
z
M 47.21875 32.234375 
Q 47.125 39.59375 43.09375 43.984375 
Q 39.0625 48.390625 32.421875 48.390625 
Q 24.90625 48.390625 20.390625 44.140625 
Q 15.875 39.890625 15.1875 32.171875 
z
" id="DejaVuSans-101"/>
       <path d="M 2.984375 54.6875 
L 12.5 54.6875 
L 29.59375 8.796875 
L 46.6875 54.6875 
L 56.203125 54.6875 
L 35.6875 0 
L 23.484375 0 
z
" id="DejaVuSans-118"/>
       <path d="M 34.28125 27.484375 
Q 23.390625 27.484375 19.1875 25 
Q 14.984375 22.515625 14.984375 16.5 
Q 14.984375 11.71875 18.140625 8.90625 
Q 21.296875 6.109375 26.703125 6.109375 
Q 34.1875 6.109375 38.703125 11.40625 
Q 43.21875 16.703125 43.21875 25.484375 
L 43.21875 27.484375 
z
M 52.203125 31.203125 
L 52.203125 0 
L 43.21875 0 
L 43.21875 8.296875 
Q 40.140625 3.328125 35.546875 0.953125 
Q 30.953125 -1.421875 24.3125 -1.421875 
Q 15.921875 -1.421875 10.953125 3.296875 
Q 6 8.015625 6 15.921875 
Q 6 25.140625 12.171875 29.828125 
Q 18.359375 34.515625 30.609375 34.515625 
L 43.21875 34.515625 
L 43.21875 35.40625 
Q 43.21875 41.609375 39.140625 45 
Q 35.0625 48.390625 27.6875 48.390625 
Q 23 48.390625 18.546875 47.265625 
Q 14.109375 46.140625 10.015625 43.890625 
L 10.015625 52.203125 
Q 14.9375 54.109375 19.578125 55.046875 
Q 24.21875 56 28.609375 56 
Q 40.484375 56 46.34375 49.84375 
Q 52.203125 43.703125 52.203125 31.203125 
z
" id="DejaVuSans-97"/>
       <path d="M 44.28125 53.078125 
L 44.28125 44.578125 
Q 40.484375 46.53125 36.375 47.5 
Q 32.28125 48.484375 27.875 48.484375 
Q 21.1875 48.484375 17.84375 46.4375 
Q 14.5 44.390625 14.5 40.28125 
Q 14.5 37.15625 16.890625 35.375 
Q 19.28125 33.59375 26.515625 31.984375 
L 29.59375 31.296875 
Q 39.15625 29.25 43.1875 25.515625 
Q 47.21875 21.78125 47.21875 15.09375 
Q 47.21875 7.46875 41.1875 3.015625 
Q 35.15625 -1.421875 24.609375 -1.421875 
Q 20.21875 -1.421875 15.453125 -0.5625 
Q 10.6875 0.296875 5.421875 2 
L 5.421875 11.28125 
Q 10.40625 8.6875 15.234375 7.390625 
Q 20.0625 6.109375 24.8125 6.109375 
Q 31.15625 6.109375 34.5625 8.28125 
Q 37.984375 10.453125 37.984375 14.40625 
Q 37.984375 18.0625 35.515625 20.015625 
Q 33.0625 21.96875 24.703125 23.78125 
L 21.578125 24.515625 
Q 13.234375 26.265625 9.515625 29.90625 
Q 5.8125 33.546875 5.8125 39.890625 
Q 5.8125 47.609375 11.28125 51.796875 
Q 16.75 56 26.8125 56 
Q 31.78125 56 36.171875 55.265625 
Q 40.578125 54.546875 44.28125 53.078125 
z
" id="DejaVuSans-115"/>
       <path d="M 25.390625 72.90625 
L 33.6875 72.90625 
L 8.296875 -9.28125 
L 0 -9.28125 
z
" id="DejaVuSans-47"/>
       <path d="M 45.40625 46.390625 
L 45.40625 75.984375 
L 54.390625 75.984375 
L 54.390625 0 
L 45.40625 0 
L 45.40625 8.203125 
Q 42.578125 3.328125 38.25 0.953125 
Q 33.9375 -1.421875 27.875 -1.421875 
Q 17.96875 -1.421875 11.734375 6.484375 
Q 5.515625 14.40625 5.515625 27.296875 
Q 5.515625 40.1875 11.734375 48.09375 
Q 17.96875 56 27.875 56 
Q 33.9375 56 38.25 53.625 
Q 42.578125 51.265625 45.40625 46.390625 
z
M 14.796875 27.296875 
Q 14.796875 17.390625 18.875 11.75 
Q 22.953125 6.109375 30.078125 6.109375 
Q 37.203125 6.109375 41.296875 11.75 
Q 45.40625 17.390625 45.40625 27.296875 
Q 45.40625 37.203125 41.296875 42.84375 
Q 37.203125 48.484375 30.078125 48.484375 
Q 22.953125 48.484375 18.875 42.84375 
Q 14.796875 37.203125 14.796875 27.296875 
z
" id="DejaVuSans-100"/>
       <path d="M 9.421875 54.6875 
L 18.40625 54.6875 
L 18.40625 0 
L 9.421875 0 
z
M 9.421875 75.984375 
L 18.40625 75.984375 
L 18.40625 64.59375 
L 9.421875 64.59375 
z
" id="DejaVuSans-105"/>
       <path d="M 52 44.1875 
Q 55.375 50.25 60.0625 53.125 
Q 64.75 56 71.09375 56 
Q 79.640625 56 84.28125 50.015625 
Q 88.921875 44.046875 88.921875 33.015625 
L 88.921875 0 
L 79.890625 0 
L 79.890625 32.71875 
Q 79.890625 40.578125 77.09375 44.375 
Q 74.3125 48.1875 68.609375 48.1875 
Q 61.625 48.1875 57.5625 43.546875 
Q 53.515625 38.921875 53.515625 30.90625 
L 53.515625 0 
L 44.484375 0 
L 44.484375 32.71875 
Q 44.484375 40.625 41.703125 44.40625 
Q 38.921875 48.1875 33.109375 48.1875 
Q 26.21875 48.1875 22.15625 43.53125 
Q 18.109375 38.875 18.109375 30.90625 
L 18.109375 0 
L 9.078125 0 
L 9.078125 54.6875 
L 18.109375 54.6875 
L 18.109375 46.1875 
Q 21.1875 51.21875 25.484375 53.609375 
Q 29.78125 56 35.6875 56 
Q 41.65625 56 45.828125 52.96875 
Q 50 49.953125 52 44.1875 
z
" id="DejaVuSans-109"/>
       <path d="M 54.890625 33.015625 
L 54.890625 0 
L 45.90625 0 
L 45.90625 32.71875 
Q 45.90625 40.484375 42.875 44.328125 
Q 39.84375 48.1875 33.796875 48.1875 
Q 26.515625 48.1875 22.3125 43.546875 
Q 18.109375 38.921875 18.109375 30.90625 
L 18.109375 0 
L 9.078125 0 
L 9.078125 54.6875 
L 18.109375 54.6875 
L 18.109375 46.1875 
Q 21.34375 51.125 25.703125 53.5625 
Q 30.078125 56 35.796875 56 
Q 45.21875 56 50.046875 50.171875 
Q 54.890625 44.34375 54.890625 33.015625 
z
" id="DejaVuSans-110"/>
       <path d="M 8.015625 75.875 
L 15.828125 75.875 
Q 23.140625 64.359375 26.78125 53.3125 
Q 30.421875 42.28125 30.421875 31.390625 
Q 30.421875 20.453125 26.78125 9.375 
Q 23.140625 -1.703125 15.828125 -13.1875 
L 8.015625 -13.1875 
Q 14.5 -2 17.703125 9.0625 
Q 20.90625 20.125 20.90625 31.390625 
Q 20.90625 42.671875 17.703125 53.65625 
Q 14.5 64.65625 8.015625 75.875 
z
" id="DejaVuSans-41"/>
      </defs>
      <use xlink:href="#DejaVuSans-108"/>
      <use x="27.783203" xlink:href="#DejaVuSans-111"/>
      <use x="88.964844" xlink:href="#DejaVuSans-103"/>
      <use x="152.441406" xlink:href="#DejaVuSans-49"/>
      <use x="216.064453" xlink:href="#DejaVuSans-48"/>
      <use x="279.6875" xlink:href="#DejaVuSans-40"/>
      <use x="318.701172" xlink:href="#DejaVuSans-35"/>
      <use x="402.490234" xlink:href="#DejaVuSans-32"/>
      <use x="434.277344" xlink:href="#DejaVuSans-102"/>
      <use x="463.982422" xlink:href="#DejaVuSans-45"/>
      <use x="500.066406" xlink:href="#DejaVuSans-101"/>
      <use x="561.589844" xlink:href="#DejaVuSans-118"/>
      <use x="620.769531" xlink:href="#DejaVuSans-97"/>
      <use x="682.048828" xlink:href="#DejaVuSans-108"/>
      <use x="709.832031" xlink:href="#DejaVuSans-115"/>
      <use x="761.931641" xlink:href="#DejaVuSans-32"/>
      <use x="793.71875" xlink:href="#DejaVuSans-47"/>
      <use x="827.410156" xlink:href="#DejaVuSans-32"/>
      <use x="859.197266" xlink:href="#DejaVuSans-100"/>
      <use x="922.673828" xlink:href="#DejaVuSans-105"/>
      <use x="950.457031" xlink:href="#DejaVuSans-109"/>
      <use x="1047.869141" xlink:href="#DejaVuSans-101"/>
      <use x="1109.392578" xlink:href="#DejaVuSans-110"/>
      <use x="1172.771484" xlink:href="#DejaVuSans-115"/>
      <use x="1224.871094" xlink:href="#DejaVuSans-105"/>
      <use x="1252.654297" xlink:href="#DejaVuSans-111"/>
      <use x="1313.835938" xlink:href="#DejaVuSans-110"/>
      <use x="1377.214844" xlink:href="#DejaVuSans-41"/>
     </g>
    </g>
   </g>
   <g id="matplotlib.axis_2">
    <g id="ytick_1">
     <g id="line2d_21">
      <path clip-path="url(#p2ee52d1383)" d="M 57.6 298.944 
L 338.688 298.944 
" style="fill:none;stroke:#b0b0b0;stroke-linecap:square;stroke-width:0.8;"/>
     </g>
     <g id="line2d_22">
      <defs>
       <path d="M 0 0 
L -3.5 0 
" id="m9505e2159e" style="stroke:#000000;stroke-width:0.8;"/>
      </defs>
      <g>
       <use style="stroke:#000000;stroke-width:0.8;" x="57.6" xlink:href="#m9505e2159e" y="298.944"/>
      </g>
     </g>
     <g id="text_6">
      <!-- 0.0 -->
      <g transform="translate(25.155 305.02275)scale(0.16 -0.16)">
       <defs>
        <path d="M 10.6875 12.40625 
L 21 12.40625 
L 21 0 
L 10.6875 0 
z
" id="DejaVuSans-46"/>
       </defs>
       <use xlink:href="#DejaVuSans-48"/>
       <use x="63.623047" xlink:href="#DejaVuSans-46"/>
       <use x="95.410156" xlink:href="#DejaVuSans-48"/>
      </g>
     </g>
    </g>
    <g id="ytick_2">
     <g id="line2d_23">
      <path clip-path="url(#p2ee52d1383)" d="M 57.6 240.431525 
L 338.688 240.431525 
" style="fill:none;stroke:#b0b0b0;stroke-linecap:square;stroke-width:0.8;"/>
     </g>
     <g id="line2d_24">
      <g>
       <use style="stroke:#000000;stroke-width:0.8;" x="57.6" xlink:href="#m9505e2159e" y="240.431525"/>
      </g>
     </g>
     <g id="text_7">
      <!-- 0.2 -->
      <g transform="translate(25.155 246.510275)scale(0.16 -0.16)">
       <use xlink:href="#DejaVuSans-48"/>
       <use x="63.623047" xlink:href="#DejaVuSans-46"/>
       <use x="95.410156" xlink:href="#DejaVuSans-50"/>
      </g>
     </g>
    </g>
    <g id="ytick_3">
     <g id="line2d_25">
      <path clip-path="url(#p2ee52d1383)" d="M 57.6 181.91905 
L 338.688 181.91905 
" style="fill:none;stroke:#b0b0b0;stroke-linecap:square;stroke-width:0.8;"/>
     </g>
     <g id="line2d_26">
      <g>
       <use style="stroke:#000000;stroke-width:0.8;" x="57.6" xlink:href="#m9505e2159e" y="181.91905"/>
      </g>
     </g>
     <g id="text_8">
      <!-- 0.4 -->
      <g transform="translate(25.155 187.9978)scale(0.16 -0.16)">
       <use xlink:href="#DejaVuSans-48"/>
       <use x="63.623047" xlink:href="#DejaVuSans-46"/>
       <use x="95.410156" xlink:href="#DejaVuSans-52"/>
      </g>
     </g>
    </g>
    <g id="ytick_4">
     <g id="line2d_27">
      <path clip-path="url(#p2ee52d1383)" d="M 57.6 123.406574 
L 338.688 123.406574 
" style="fill:none;stroke:#b0b0b0;stroke-linecap:square;stroke-width:0.8;"/>
     </g>
     <g id="line2d_28">
      <g>
       <use style="stroke:#000000;stroke-width:0.8;" x="57.6" xlink:href="#m9505e2159e" y="123.406574"/>
      </g>
     </g>
     <g id="text_9">
      <!-- 0.6 -->
      <g transform="translate(25.155 129.485324)scale(0.16 -0.16)">
       <use xlink:href="#DejaVuSans-48"/>
       <use x="63.623047" xlink:href="#DejaVuSans-46"/>
       <use x="95.410156" xlink:href="#DejaVuSans-54"/>
      </g>
     </g>
    </g>
    <g id="ytick_5">
     <g id="line2d_29">
      <path clip-path="url(#p2ee52d1383)" d="M 57.6 64.894099 
L 338.688 64.894099 
" style="fill:none;stroke:#b0b0b0;stroke-linecap:square;stroke-width:0.8;"/>
     </g>
     <g id="line2d_30">
      <g>
       <use style="stroke:#000000;stroke-width:0.8;" x="57.6" xlink:href="#m9505e2159e" y="64.894099"/>
      </g>
     </g>
     <g id="text_10">
      <!-- 0.8 -->
      <g transform="translate(25.155 70.972849)scale(0.16 -0.16)">
       <defs>
        <path d="M 31.78125 34.625 
Q 24.75 34.625 20.71875 30.859375 
Q 16.703125 27.09375 16.703125 20.515625 
Q 16.703125 13.921875 20.71875 10.15625 
Q 24.75 6.390625 31.78125 6.390625 
Q 38.8125 6.390625 42.859375 10.171875 
Q 46.921875 13.96875 46.921875 20.515625 
Q 46.921875 27.09375 42.890625 30.859375 
Q 38.875 34.625 31.78125 34.625 
z
M 21.921875 38.8125 
Q 15.578125 40.375 12.03125 44.71875 
Q 8.5 49.078125 8.5 55.328125 
Q 8.5 64.0625 14.71875 69.140625 
Q 20.953125 74.21875 31.78125 74.21875 
Q 42.671875 74.21875 48.875 69.140625 
Q 55.078125 64.0625 55.078125 55.328125 
Q 55.078125 49.078125 51.53125 44.71875 
Q 48 40.375 41.703125 38.8125 
Q 48.828125 37.15625 52.796875 32.3125 
Q 56.78125 27.484375 56.78125 20.515625 
Q 56.78125 9.90625 50.3125 4.234375 
Q 43.84375 -1.421875 31.78125 -1.421875 
Q 19.734375 -1.421875 13.25 4.234375 
Q 6.78125 9.90625 6.78125 20.515625 
Q 6.78125 27.484375 10.78125 32.3125 
Q 14.796875 37.15625 21.921875 38.8125 
z
M 18.3125 54.390625 
Q 18.3125 48.734375 21.84375 45.5625 
Q 25.390625 42.390625 31.78125 42.390625 
Q 38.140625 42.390625 41.71875 45.5625 
Q 45.3125 48.734375 45.3125 54.390625 
Q 45.3125 60.0625 41.71875 63.234375 
Q 38.140625 66.40625 31.78125 66.40625 
Q 25.390625 66.40625 21.84375 63.234375 
Q 18.3125 60.0625 18.3125 54.390625 
z
" id="DejaVuSans-56"/>
       </defs>
       <use xlink:href="#DejaVuSans-48"/>
       <use x="63.623047" xlink:href="#DejaVuSans-46"/>
       <use x="95.410156" xlink:href="#DejaVuSans-56"/>
      </g>
     </g>
    </g>
    <g id="ytick_6">
     <g id="line2d_31">
      <path clip-path="url(#p2ee52d1383)" d="M 57.6 6.381624 
L 338.688 6.381624 
" style="fill:none;stroke:#b0b0b0;stroke-linecap:square;stroke-width:0.8;"/>
     </g>
     <g id="line2d_32">
      <g>
       <use style="stroke:#000000;stroke-width:0.8;" x="57.6" xlink:href="#m9505e2159e" y="6.381624"/>
      </g>
     </g>
     <g id="text_11">
      <!-- 1.0 -->
      <g transform="translate(25.155 12.460374)scale(0.16 -0.16)">
       <use xlink:href="#DejaVuSans-49"/>
       <use x="63.623047" xlink:href="#DejaVuSans-46"/>
       <use x="95.410156" xlink:href="#DejaVuSans-48"/>
      </g>
     </g>
    </g>
    <g id="text_12">
     <!-- Fraction of function,target pairs -->
     <g transform="translate(17.619531 285.585)rotate(-90)scale(0.17 -0.17)">
      <defs>
       <path d="M 9.8125 72.90625 
L 51.703125 72.90625 
L 51.703125 64.59375 
L 19.671875 64.59375 
L 19.671875 43.109375 
L 48.578125 43.109375 
L 48.578125 34.8125 
L 19.671875 34.8125 
L 19.671875 0 
L 9.8125 0 
z
" id="DejaVuSans-70"/>
       <path d="M 41.109375 46.296875 
Q 39.59375 47.171875 37.8125 47.578125 
Q 36.03125 48 33.890625 48 
Q 26.265625 48 22.1875 43.046875 
Q 18.109375 38.09375 18.109375 28.8125 
L 18.109375 0 
L 9.078125 0 
L 9.078125 54.6875 
L 18.109375 54.6875 
L 18.109375 46.1875 
Q 20.953125 51.171875 25.484375 53.578125 
Q 30.03125 56 36.53125 56 
Q 37.453125 56 38.578125 55.875 
Q 39.703125 55.765625 41.0625 55.515625 
z
" id="DejaVuSans-114"/>
       <path d="M 48.78125 52.59375 
L 48.78125 44.1875 
Q 44.96875 46.296875 41.140625 47.34375 
Q 37.3125 48.390625 33.40625 48.390625 
Q 24.65625 48.390625 19.8125 42.84375 
Q 14.984375 37.3125 14.984375 27.296875 
Q 14.984375 17.28125 19.8125 11.734375 
Q 24.65625 6.203125 33.40625 6.203125 
Q 37.3125 6.203125 41.140625 7.25 
Q 44.96875 8.296875 48.78125 10.40625 
L 48.78125 2.09375 
Q 45.015625 0.34375 40.984375 -0.53125 
Q 36.96875 -1.421875 32.421875 -1.421875 
Q 20.0625 -1.421875 12.78125 6.34375 
Q 5.515625 14.109375 5.515625 27.296875 
Q 5.515625 40.671875 12.859375 48.328125 
Q 20.21875 56 33.015625 56 
Q 37.15625 56 41.109375 55.140625 
Q 45.0625 54.296875 48.78125 52.59375 
z
" id="DejaVuSans-99"/>
       <path d="M 18.3125 70.21875 
L 18.3125 54.6875 
L 36.8125 54.6875 
L 36.8125 47.703125 
L 18.3125 47.703125 
L 18.3125 18.015625 
Q 18.3125 11.328125 20.140625 9.421875 
Q 21.96875 7.515625 27.59375 7.515625 
L 36.8125 7.515625 
L 36.8125 0 
L 27.59375 0 
Q 17.1875 0 13.234375 3.875 
Q 9.28125 7.765625 9.28125 18.015625 
L 9.28125 47.703125 
L 2.6875 47.703125 
L 2.6875 54.6875 
L 9.28125 54.6875 
L 9.28125 70.21875 
z
" id="DejaVuSans-116"/>
       <path d="M 8.5 21.578125 
L 8.5 54.6875 
L 17.484375 54.6875 
L 17.484375 21.921875 
Q 17.484375 14.15625 20.5 10.265625 
Q 23.53125 6.390625 29.59375 6.390625 
Q 36.859375 6.390625 41.078125 11.03125 
Q 45.3125 15.671875 45.3125 23.6875 
L 45.3125 54.6875 
L 54.296875 54.6875 
L 54.296875 0 
L 45.3125 0 
L 45.3125 8.40625 
Q 42.046875 3.421875 37.71875 1 
Q 33.40625 -1.421875 27.6875 -1.421875 
Q 18.265625 -1.421875 13.375 4.4375 
Q 8.5 10.296875 8.5 21.578125 
z
M 31.109375 56 
z
" id="DejaVuSans-117"/>
       <path d="M 11.71875 12.40625 
L 22.015625 12.40625 
L 22.015625 4 
L 14.015625 -11.625 
L 7.71875 -11.625 
L 11.71875 4 
z
" id="DejaVuSans-44"/>
       <path d="M 18.109375 8.203125 
L 18.109375 -20.796875 
L 9.078125 -20.796875 
L 9.078125 54.6875 
L 18.109375 54.6875 
L 18.109375 46.390625 
Q 20.953125 51.265625 25.265625 53.625 
Q 29.59375 56 35.59375 56 
Q 45.5625 56 51.78125 48.09375 
Q 58.015625 40.1875 58.015625 27.296875 
Q 58.015625 14.40625 51.78125 6.484375 
Q 45.5625 -1.421875 35.59375 -1.421875 
Q 29.59375 -1.421875 25.265625 0.953125 
Q 20.953125 3.328125 18.109375 8.203125 
z
M 48.6875 27.296875 
Q 48.6875 37.203125 44.609375 42.84375 
Q 40.53125 48.484375 33.40625 48.484375 
Q 26.265625 48.484375 22.1875 42.84375 
Q 18.109375 37.203125 18.109375 27.296875 
Q 18.109375 17.390625 22.1875 11.75 
Q 26.265625 6.109375 33.40625 6.109375 
Q 40.53125 6.109375 44.609375 11.75 
Q 48.6875 17.390625 48.6875 27.296875 
z
" id="DejaVuSans-112"/>
      </defs>
      <use xlink:href="#DejaVuSans-70"/>
      <use x="50.269531" xlink:href="#DejaVuSans-114"/>
      <use x="91.382812" xlink:href="#DejaVuSans-97"/>
      <use x="152.662109" xlink:href="#DejaVuSans-99"/>
      <use x="207.642578" xlink:href="#DejaVuSans-116"/>
      <use x="246.851562" xlink:href="#DejaVuSans-105"/>
      <use x="274.634766" xlink:href="#DejaVuSans-111"/>
      <use x="335.816406" xlink:href="#DejaVuSans-110"/>
      <use x="399.195312" xlink:href="#DejaVuSans-32"/>
      <use x="430.982422" xlink:href="#DejaVuSans-111"/>
      <use x="492.164062" xlink:href="#DejaVuSans-102"/>
      <use x="527.369141" xlink:href="#DejaVuSans-32"/>
      <use x="559.15625" xlink:href="#DejaVuSans-102"/>
      <use x="594.361328" xlink:href="#DejaVuSans-117"/>
      <use x="657.740234" xlink:href="#DejaVuSans-110"/>
      <use x="721.119141" xlink:href="#DejaVuSans-99"/>
      <use x="776.099609" xlink:href="#DejaVuSans-116"/>
      <use x="815.308594" xlink:href="#DejaVuSans-105"/>
      <use x="843.091797" xlink:href="#DejaVuSans-111"/>
      <use x="904.273438" xlink:href="#DejaVuSans-110"/>
      <use x="967.652344" xlink:href="#DejaVuSans-44"/>
      <use x="999.439453" xlink:href="#DejaVuSans-116"/>
      <use x="1038.648438" xlink:href="#DejaVuSans-97"/>
      <use x="1099.927734" xlink:href="#DejaVuSans-114"/>
      <use x="1139.291016" xlink:href="#DejaVuSans-103"/>
      <use x="1202.767578" xlink:href="#DejaVuSans-101"/>
      <use x="1264.291016" xlink:href="#DejaVuSans-116"/>
      <use x="1303.5" xlink:href="#DejaVuSans-32"/>
      <use x="1335.287109" xlink:href="#DejaVuSans-112"/>
      <use x="1398.763672" xlink:href="#DejaVuSans-97"/>
      <use x="1460.042969" xlink:href="#DejaVuSans-105"/>
      <use x="1487.826172" xlink:href="#DejaVuSans-114"/>
      <use x="1528.939453" xlink:href="#DejaVuSans-115"/>
     </g>
    </g>
   </g>
   <g id="line2d_33">
    <defs>
     <path d="M 0 1.5 
C 0.397805 1.5 0.77937 1.341951 1.06066 1.06066 
C 1.341951 0.77937 1.5 0.397805 1.5 0 
C 1.5 -0.397805 1.341951 -0.77937 1.06066 -1.06066 
C 0.77937 -1.341951 0.397805 -1.5 0 -1.5 
C -0.397805 -1.5 -0.77937 -1.341951 -1.06066 -1.06066 
C -1.341951 -0.77937 -1.5 -0.397805 -1.5 0 
C -1.5 0.397805 -1.341951 0.77937 -1.06066 1.06066 
C -0.77937 1.341951 -0.397805 1.5 0 1.5 
z
" id="ma4001307a6" style="stroke:#f5deb3;"/>
    </defs>
    <g>
     <use style="fill:#f5deb3;stroke:#f5deb3;" x="333.698792" xlink:href="#ma4001307a6" y="46.537244"/>
     <use style="fill:#f5deb3;stroke:#f5deb3;" x="333.698792" xlink:href="#ma4001307a6" y="46.537244"/>
    </g>
   </g>
   <g id="line2d_34">
    <defs>
     <path d="M 0 1.5 
C 0.397805 1.5 0.77937 1.341951 1.06066 1.06066 
C 1.341951 0.77937 1.5 0.397805 1.5 0 
C 1.5 -0.397805 1.341951 -0.77937 1.06066 -1.06066 
C 0.77937 -1.341951 0.397805 -1.5 0 -1.5 
C -0.397805 -1.5 -0.77937 -1.341951 -1.06066 -1.06066 
C -1.341951 -0.77937 -1.5 -0.397805 -1.5 0 
C -1.5 0.397805 -1.341951 0.77937 -1.06066 1.06066 
C -0.77937 1.341951 -0.397805 1.5 0 1.5 
z
" id="mcd16d87247" style="stroke:#000080;"/>
    </defs>
    <g>
     <use style="fill:#000080;stroke:#000080;" x="300.878239" xlink:href="#mcd16d87247" y="202.570511"/>
     <use style="fill:#000080;stroke:#000080;" x="300.878239" xlink:href="#mcd16d87247" y="202.570511"/>
    </g>
   </g>
   <g id="line2d_35">
    <path d="M -1 290.683415 
L 5.356583 290.683415 
L 5.356583 290.568685 
L 12.427603 290.568685 
L 12.427603 290.453955 
L 24.515591 290.453955 
L 24.515591 290.339224 
L 49.403475 290.339224 
L 49.403475 290.224494 
L 50.74562 290.224494 
L 50.74562 290.109764 
L 56.240407 290.109764 
L 56.240407 289.995033 
L 64.377916 289.995033 
L 64.377916 289.880303 
L 69.687988 289.880303 
L 69.687988 289.765573 
L 81.445886 289.765573 
L 81.445886 289.650842 
L 86.435063 289.650842 
L 86.435063 289.536112 
L 87.643811 289.536112 
L 87.643811 289.421381 
L 90.040492 289.421381 
L 90.040492 289.306651 
L 92.911987 289.306651 
L 92.911987 289.191921 
L 93.083804 289.191921 
L 93.083804 289.07719 
L 94.134347 289.07719 
L 94.134347 288.96246 
L 97.403108 288.96246 
L 97.403108 288.84773 
L 97.536064 288.84773 
L 97.536064 288.732999 
L 97.711776 288.732999 
L 97.711776 288.618269 
L 98.18605 288.618269 
L 98.270913 288.388808 
L 98.689141 288.388808 
L 98.689141 287.929887 
L 98.853664 287.929887 
L 98.853664 287.815157 
L 99.80948 287.815157 
L 99.80948 287.700426 
L 100.493461 287.700426 
L 100.493461 287.585696 
L 100.641881 287.585696 
L 100.715621 287.356235 
L 100.789049 287.356235 
L 100.789049 287.241505 
L 100.934985 287.241505 
L 101.043642 286.897314 
L 101.576995 286.897314 
L 101.576995 286.782584 
L 102.162376 286.782584 
L 102.162376 286.553123 
L 102.564066 286.553123 
L 102.66306 286.323662 
L 102.728744 286.323662 
L 102.728744 286.208932 
L 102.989037 286.208932 
L 102.989037 285.979471 
L 103.309033 285.979471 
L 103.309033 285.864741 
L 103.870632 285.864741 
L 103.901308 285.63528 
L 104.084239 285.63528 
L 104.084239 285.52055 
L 104.355088 285.52055 
L 104.355088 285.405819 
L 104.533344 285.405819 
L 104.533344 285.291089 
L 104.942325 285.291089 
L 104.971174 284.717437 
L 105.171792 284.717437 
L 105.22869 284.487977 
L 105.313691 284.487977 
L 105.341933 284.143786 
L 105.48246 284.143786 
L 105.48246 284.029055 
L 105.924684 284.029055 
L 105.924684 283.914325 
L 106.222336 283.914325 
L 106.329326 283.455404 
L 106.462146 283.455404 
L 106.48859 283.111213 
L 106.724791 283.111213 
L 106.724791 282.996482 
L 106.906317 282.996482 
L 106.906317 282.881752 
L 107.78664 282.881752 
L 107.78664 282.422831 
L 108.054381 282.422831 
L 108.054381 282.3081 
L 108.365591 282.3081 
L 108.365591 282.19337 
L 108.554381 282.19337 
L 108.648015 281.734448 
L 108.764355 281.734448 
L 108.764355 281.619718 
L 108.902946 281.619718 
L 108.994731 281.275527 
L 109.131511 281.275527 
L 109.222105 280.701875 
L 109.267226 280.701875 
L 109.31223 280.472415 
L 109.468838 280.472415 
L 109.513326 280.128224 
L 109.601963 280.128224 
L 109.601963 279.554572 
L 109.756002 279.554572 
L 109.865203 278.407268 
L 109.908692 278.407268 
L 109.930396 278.063077 
L 110.103064 278.063077 
L 110.210119 277.718886 
L 110.337724 277.718886 
L 110.337724 277.604156 
L 110.464402 277.604156 
L 110.485426 277.259965 
L 110.652711 277.259965 
L 110.735755 276.915774 
L 110.921172 276.915774 
L 111.023335 276.686313 
L 111.104637 276.686313 
L 111.145147 276.227392 
L 111.225884 276.227392 
L 111.225884 275.65374 
L 111.346294 275.65374 
L 111.426108 274.965358 
L 111.465878 274.965358 
L 111.525364 274.621167 
L 111.604364 274.621167 
L 111.663381 274.047515 
L 111.819788 274.047515 
L 111.858671 273.818055 
L 111.955503 273.818055 
L 112.051799 273.244403 
L 112.128456 273.244403 
L 112.185728 272.900212 
L 112.450537 272.900212 
L 112.450537 272.785482 
L 112.618673 272.785482 
L 112.637255 272.441291 
L 112.748334 272.441291 
L 112.803609 271.867639 
L 112.931907 271.867639 
L 112.968391 271.523448 
L 113.113568 271.523448 
L 113.113568 271.293987 
L 113.400346 271.293987 
L 113.506683 271.064526 
L 113.577216 271.064526 
L 113.577216 270.949796 
L 113.717432 270.949796 
L 113.821859 270.605605 
L 114.045996 270.605605 
L 114.114385 270.261414 
L 114.267288 270.261414 
L 114.368483 270.031953 
L 114.435622 270.031953 
L 114.435622 269.802493 
L 114.552496 269.802493 
L 114.652055 269.458302 
L 114.701622 269.458302 
L 114.701622 269.343571 
L 114.816733 269.343571 
L 114.865834 268.99938 
L 114.996101 268.99938 
L 115.093165 268.655189 
L 115.10929 268.655189 
L 115.10929 268.540459 
L 115.285689 268.540459 
L 115.301637 268.196268 
L 115.412868 268.196268 
L 115.412868 267.966807 
L 115.617575 267.966807 
L 115.711251 267.507886 
L 115.850828 267.507886 
L 115.958621 267.048964 
L 116.126675 267.048964 
L 116.187386 266.819504 
L 116.247887 266.819504 
L 116.247887 266.704773 
L 116.768501 266.704773 
L 116.783149 266.475313 
L 117.514373 266.475313 
L 117.598418 266.245852 
L 117.94431 266.245852 
L 117.94431 266.131122 
L 118.270033 266.131122 
L 118.270033 266.016391 
L 118.470564 266.016391 
L 118.470564 265.786931 
L 118.589785 265.786931 
L 118.642511 265.55747 
L 118.968488 265.55747 
L 118.968488 265.44274 
L 119.62761 265.44274 
L 119.640044 265.213279 
L 119.813201 265.213279 
L 119.862361 264.983818 
L 120.130288 264.983818 
L 120.166507 264.754358 
L 120.560025 264.754358 
L 120.654101 264.524897 
L 120.677541 264.524897 
L 120.759333 264.295436 
L 121.002434 264.295436 
L 121.002434 264.180706 
L 121.310093 264.180706 
L 121.310093 264.065976 
L 121.545687 264.065976 
L 121.545687 263.951245 
L 121.833033 263.951245 
L 121.898676 263.721785 
L 123.692353 263.721785 
L 123.761186 263.492324 
L 124.57603 263.492324 
L 124.57603 263.377593 
L 125.165375 263.377593 
L 125.165375 263.148133 
L 126.065325 263.148133 
L 126.065325 263.033402 
L 126.346817 263.033402 
L 126.346817 262.803942 
L 126.847261 262.803942 
L 126.847261 262.574481 
L 127.2536 262.574481 
L 127.2536 262.459751 
L 127.508774 262.459751 
L 127.508774 262.34502 
L 128.411207 262.34502 
L 128.411207 262.23029 
L 128.538529 262.23029 
L 128.538529 262.000829 
L 129.00969 262.000829 
L 129.00969 261.886099 
L 129.47553 261.886099 
L 129.47553 261.771369 
L 129.804781 261.771369 
L 129.87404 261.427178 
L 130.418423 261.427178 
L 130.418423 261.197717 
L 130.551905 261.197717 
L 130.551905 261.082987 
L 130.946327 261.082987 
L 131.037089 260.853526 
L 131.075843 260.853526 
L 131.075843 260.738796 
L 131.191591 260.738796 
L 131.191591 260.624065 
L 131.408152 260.624065 
L 131.408152 260.509335 
L 131.571961 260.509335 
L 131.571961 260.279874 
L 132.072645 260.279874 
L 132.072645 260.165144 
L 132.230358 260.165144 
L 132.230358 260.050414 
L 132.410579 260.050414 
L 132.410579 259.820953 
L 133.187865 259.820953 
L 133.250627 259.591492 
L 133.538699 259.591492 
L 133.538699 259.476762 
L 133.805547 259.476762 
L 133.805547 259.362031 
L 134.338003 259.362031 
L 134.359394 259.132571 
L 134.497802 259.132571 
L 134.497802 259.01784 
L 134.854682 259.01784 
L 134.854682 258.90311 
L 135.168726 258.90311 
L 135.168726 258.78838 
L 135.300881 258.78838 
L 135.300881 258.673649 
L 135.706289 258.673649 
L 135.706289 258.558919 
L 136.508792 258.558919 
L 136.607732 258.214728 
L 136.757427 258.214728 
L 136.757427 258.099998 
L 137.189866 258.099998 
L 137.189866 257.985267 
L 137.402129 257.985267 
L 137.482742 257.755807 
L 137.616275 257.755807 
L 137.625141 257.411616 
L 139.111136 257.411616 
L 139.111136 257.296885 
L 139.36968 257.296885 
L 139.36968 257.182155 
L 139.781807 257.182155 
L 139.781807 257.067425 
L 140.786222 257.067425 
L 140.786222 256.952694 
L 140.944478 256.952694 
L 140.944478 256.837964 
L 141.238742 256.837964 
L 141.238742 256.723234 
L 152.827935 256.723234 
L 152.827935 256.608503 
L 153.065409 256.608503 
L 153.065409 256.493773 
L 153.198374 256.493773 
L 153.270803 256.264312 
L 153.702703 256.264312 
L 153.741441 256.034851 
L 153.848404 256.034851 
L 153.956452 255.805391 
L 153.991164 255.805391 
L 154.063835 255.57593 
L 154.120722 255.57593 
L 154.120722 255.4612 
L 154.233943 255.4612 
L 154.344733 255.002278 
L 154.400713 255.002278 
L 154.419333 254.772818 
L 154.657932 254.772818 
L 154.719569 254.543357 
L 154.819061 254.543357 
L 154.868596 254.084436 
L 155.001639 254.084436 
L 155.109299 253.510784 
L 155.19042 253.510784 
L 155.19042 253.396054 
L 155.373976 253.396054 
L 155.442713 253.051863 
L 155.634696 253.051863 
L 155.677248 252.822402 
L 155.765175 252.822402 
L 155.804285 252.478211 
L 156.057156 252.478211 
L 156.160043 252.13402 
L 156.242527 252.13402 
L 156.259282 251.904559 
L 156.462102 251.904559 
L 156.570113 251.216177 
L 156.583568 251.216177 
L 156.583568 251.101447 
L 156.782672 251.101447 
L 156.812195 250.757256 
L 156.92686 250.757256 
L 156.979529 250.527795 
L 157.052418 250.527795 
L 157.072772 250.183604 
L 157.188629 250.183604 
L 157.26065 249.609952 
L 157.310889 249.609952 
L 157.366699 249.265761 
L 157.463584 249.265761 
L 157.574059 248.92157 
L 157.57547 248.92157 
L 157.664184 248.577379 
L 157.686643 248.577379 
L 157.707672 248.233188 
L 157.806866 248.233188 
L 157.829142 248.003727 
L 157.930417 248.003727 
L 157.999445 247.544806 
L 158.042106 247.544806 
L 158.150352 246.626963 
L 158.181741 246.626963 
L 158.286417 246.397503 
L 158.34595 246.397503 
L 158.434871 245.709121 
L 158.464411 245.709121 
L 158.491222 245.47966 
L 158.600719 245.47966 
L 158.664497 245.250199 
L 158.741252 245.250199 
L 158.771596 244.906008 
L 158.85969 244.906008 
L 158.93951 244.561817 
L 159.012467 244.561817 
L 159.108409 244.217626 
L 159.243642 244.217626 
L 159.243642 244.102896 
L 159.361277 244.102896 
L 159.400737 243.758705 
L 159.502158 243.758705 
L 159.502158 243.643974 
L 159.640655 243.643974 
L 159.658204 243.414514 
L 159.801686 243.414514 
L 159.877318 243.185053 
L 160.030058 243.185053 
L 160.030058 243.070323 
L 160.176607 243.070323 
L 160.245789 242.840862 
L 160.389343 242.840862 
L 160.389343 242.726132 
L 160.624424 242.726132 
L 160.624424 242.611401 
L 160.77901 242.611401 
L 160.77901 242.496671 
L 160.91243 242.496671 
L 160.91243 242.381941 
L 161.074895 242.381941 
L 161.14061 242.15248 
L 163.677486 242.15248 
L 163.677486 242.03775 
L 164.56678 242.03775 
L 164.649784 241.693559 
L 164.723964 241.693559 
L 164.723964 241.578828 
L 164.835111 241.578828 
L 164.908508 241.349368 
L 165.000053 241.349368 
L 165.053463 240.775716 
L 165.214541 240.775716 
L 165.281825 240.316794 
L 165.328951 240.316794 
L 165.430922 239.628412 
L 165.454301 239.628412 
L 165.501859 239.284221 
L 165.644651 239.284221 
L 165.715611 239.054761 
L 165.760698 239.054761 
L 165.847888 238.8253 
L 165.875978 238.8253 
L 165.875978 238.71057 
L 166.023581 238.71057 
L 166.124175 237.677997 
L 166.223333 237.677997 
L 166.328769 237.219075 
L 166.345853 237.219075 
L 166.444611 236.645423 
L 166.512396 236.645423 
L 166.600124 236.071772 
L 166.629549 236.071772 
L 166.67485 235.727581 
L 166.782596 235.727581 
L 166.886369 235.268659 
L 166.908703 235.268659 
L 166.929358 235.039199 
L 167.033085 235.039199 
L 167.132935 234.350817 
L 167.165548 234.350817 
L 167.213542 233.891895 
L 167.292161 233.891895 
L 167.389739 233.432974 
L 167.423481 233.432974 
L 167.465968 233.088783 
L 167.566561 233.088783 
L 167.62061 232.744592 
L 167.683982 232.744592 
L 167.788046 232.17094 
L 167.803759 232.17094 
L 167.803759 232.05621 
L 167.925838 232.05621 
L 167.961673 231.826749 
L 168.141294 231.826749 
L 168.182838 231.597288 
L 168.270983 231.597288 
L 168.270983 231.482558 
L 168.427772 231.482558 
L 168.427772 231.367828 
L 170.918145 231.367828 
L 170.918145 231.253097 
L 171.202214 231.253097 
L 171.221591 231.023637 
L 171.350865 231.023637 
L 171.389908 230.794176 
L 172.625074 230.794176 
L 172.625074 230.679446 
L 175.574902 230.679446 
L 175.586968 230.449985 
L 175.763485 230.449985 
L 175.861718 230.220524 
L 177.018271 230.220524 
L 177.118911 229.761603 
L 177.156616 229.761603 
L 177.156616 229.646872 
L 177.302985 229.646872 
L 177.365276 229.417412 
L 180.008757 229.417412 
L 180.008757 229.302681 
L 180.13041 229.302681 
L 180.221193 228.84376 
L 180.319553 228.84376 
L 180.319553 228.72903 
L 180.446673 228.72903 
L 180.546043 228.155378 
L 180.562298 228.155378 
L 180.645977 227.696457 
L 180.692918 227.696457 
L 180.788661 227.237535 
L 180.950891 227.237535 
L 181.041923 226.893344 
L 181.127363 226.893344 
L 181.233122 226.319692 
L 181.246933 226.319692 
L 181.280686 226.090232 
L 181.370018 226.090232 
L 181.370018 225.975501 
L 181.982495 225.975501 
L 181.982495 225.860771 
L 182.15888 225.860771 
L 182.15888 225.746041 
L 184.610314 225.746041 
L 184.701444 225.172389 
L 184.743413 225.172389 
L 184.819947 224.828198 
L 184.873735 224.828198 
L 184.975242 224.484007 
L 184.993128 224.484007 
L 185.102975 224.025086 
L 185.107051 224.025086 
L 185.193891 223.566164 
L 185.23845 223.566164 
L 185.341023 222.877782 
L 185.367146 222.877782 
L 185.456128 222.533591 
L 185.508276 222.533591 
L 185.508276 222.418861 
L 185.721508 222.418861 
L 185.721508 222.30413 
L 186.072671 222.30413 
L 186.072671 222.1894 
L 186.434989 222.1894 
L 186.434989 222.07467 
L 187.779432 222.07467 
L 187.848239 221.730479 
L 187.948222 221.730479 
L 188.058455 221.156827 
L 188.077619 221.156827 
L 188.180693 220.238984 
L 188.229447 220.238984 
L 188.327275 219.780063 
L 188.347113 219.780063 
L 188.426963 219.435872 
L 188.483193 219.435872 
L 188.560275 219.091681 
L 188.619172 219.091681 
L 188.698026 218.86222 
L 188.73732 218.86222 
L 188.826467 218.288568 
L 188.862421 218.288568 
L 188.969608 217.485456 
L 188.979404 217.485456 
L 189.072661 217.026535 
L 189.094912 217.026535 
L 189.176722 216.567613 
L 189.306733 216.567613 
L 189.39234 216.108692 
L 189.44759 216.108692 
L 189.45576 215.764501 
L 191.632535 215.764501 
L 191.632535 215.649771 
L 197.044151 215.649771 
L 197.103083 215.42031 
L 197.602381 215.42031 
L 197.602381 215.305579 
L 197.986658 215.305579 
L 198.084462 214.846658 
L 199.346261 214.846658 
L 199.346261 214.731928 
L 200.987812 214.731928 
L 200.987812 214.617197 
L 202.853042 214.617197 
L 202.853042 214.502467 
L 203.933115 214.502467 
L 204.042183 213.240433 
L 204.056628 213.240433 
L 204.150964 212.322591 
L 204.175371 212.322591 
L 204.236628 211.519478 
L 211.398439 211.519478 
L 211.505268 211.175287 
L 212.204476 211.175287 
L 212.204476 211.060557 
L 213.036226 211.060557 
L 213.036226 210.945826 
L 214.834727 210.945826 
L 214.866147 210.716366 
L 216.308957 210.716366 
L 216.308957 210.601635 
L 216.704457 210.601635 
L 216.704457 210.486905 
L 217.583768 210.486905 
L 217.583768 210.372175 
L 218.307826 210.372175 
L 218.307826 210.257444 
L 220.490989 210.257444 
L 220.490989 210.142714 
L 220.88854 210.142714 
L 220.997082 207.733377 
L 221.000949 207.733377 
L 221.070403 207.044995 
L 222.153903 207.044995 
L 222.153903 206.930264 
L 229.566227 206.930264 
L 229.566227 206.815534 
L 231.484853 206.815534 
L 231.488582 206.586073 
L 231.83842 206.586073 
L 231.863663 206.356613 
L 232.600554 206.356613 
L 232.600554 206.241882 
L 233.414164 206.241882 
L 233.420986 206.012422 
L 235.599543 206.012422 
L 235.599543 205.897691 
L 239.57522 205.897691 
L 239.57522 205.782961 
L 241.257984 205.782961 
L 241.257984 205.668231 
L 242.627879 205.668231 
L 242.627879 205.5535 
L 244.045935 205.5535 
L 244.045935 205.43877 
L 246.298813 205.43877 
L 246.298813 205.32404 
L 247.350228 205.32404 
L 247.350269 205.094579 
L 255.146846 205.094579 
L 255.146846 204.979849 
L 257.291637 204.979849 
L 257.291637 204.865118 
L 258.381445 204.865118 
L 258.381445 204.750388 
L 258.543356 204.750388 
L 258.543356 204.635658 
L 258.917198 204.635658 
L 258.917198 204.520927 
L 261.960078 204.520927 
L 261.960078 204.406197 
L 262.115401 204.406197 
L 262.115401 204.291467 
L 263.362426 204.291467 
L 263.362449 204.062006 
L 264.732081 204.062006 
L 264.732081 203.947275 
L 269.930848 203.947275 
L 269.930866 203.717815 
L 273.683295 203.717815 
L 273.683295 203.603084 
L 276.792165 203.603084 
L 276.792165 203.488354 
L 279.58865 203.488354 
L 279.58865 203.373624 
L 279.921181 203.373624 
L 279.921181 203.258893 
L 283.939323 203.258893 
L 283.939323 203.144163 
L 284.371777 203.144163 
L 284.371777 203.029433 
L 286.232891 203.029433 
L 286.232891 202.914702 
L 290.560423 202.914702 
L 290.560423 202.799972 
L 292.161486 202.799972 
L 292.161486 202.685242 
L 300.878239 202.685242 
L 300.878239 202.570511 
L 338.688 202.570511 
L 338.688 202.570511 
" style="fill:none;stroke:#000080;stroke-linecap:square;stroke-width:1.5;"/>
   </g>
   <g id="line2d_36">
    <defs>
     <path d="M 0 6 
C 1.591219 6 3.117479 5.367802 4.242641 4.242641 
C 5.367802 3.117479 6 1.591219 6 0 
C 6 -1.591219 5.367802 -3.117479 4.242641 -4.242641 
C 3.117479 -5.367802 1.591219 -6 0 -6 
C -1.591219 -6 -3.117479 -5.367802 -4.242641 -4.242641 
C -5.367802 -3.117479 -6 -1.591219 -6 0 
C -6 1.591219 -5.367802 3.117479 -4.242641 4.242641 
C -3.117479 5.367802 -1.591219 6 0 6 
z
" id="m6f7a5cb45f" style="stroke:#000080;stroke-width:1.5;"/>
    </defs>
    <g>
     <use style="fill-opacity:0;stroke:#000080;stroke-width:1.5;" x="109.513326" xlink:href="#m6f7a5cb45f" y="280.128224"/>
     <use style="fill-opacity:0;stroke:#000080;stroke-width:1.5;" x="161.14061" xlink:href="#m6f7a5cb45f" y="242.26721"/>
     <use style="fill-opacity:0;stroke:#000080;stroke-width:1.5;" x="232.600554" xlink:href="#m6f7a5cb45f" y="206.241882"/>
     <use style="fill-opacity:0;stroke:#000080;stroke-width:1.5;" x="300.878239" xlink:href="#m6f7a5cb45f" y="202.570511"/>
     <use style="fill-opacity:0;stroke:#000080;stroke-width:1.5;" x="300.878239" xlink:href="#m6f7a5cb45f" y="202.570511"/>
     <use style="fill-opacity:0;stroke:#000080;stroke-width:1.5;" x="338.688" xlink:href="#m6f7a5cb45f" y="202.570511"/>
    </g>
   </g>
   <g id="line2d_37">
    <path style="fill:none;stroke:#000080;stroke-linecap:square;stroke-width:1.5;"/>
    <g/>
   </g>
   <g id="line2d_38">
    <path clip-path="url(#p2ee52d1383)" d="M 246.289242 205.43877 
" style="fill:none;stroke:#000080;stroke-linecap:square;stroke-width:1.5;"/>
    <defs>
     <path d="M -12 12 
L 12 -12 
M -12 -12 
L 12 12 
" id="me550919032" style="stroke:#000080;"/>
    </defs>
    <g clip-path="url(#p2ee52d1383)">
     <use style="fill:#000080;stroke:#000080;" x="246.289242" xlink:href="#me550919032" y="205.43877"/>
    </g>
   </g>
   <g id="line2d_39">
    <defs>
     <path d="M 0 1.5 
C 0.397805 1.5 0.77937 1.341951 1.06066 1.06066 
C 1.341951 0.77937 1.5 0.397805 1.5 0 
C 1.5 -0.397805 1.341951 -0.77937 1.06066 -1.06066 
C 0.77937 -1.341951 0.397805 -1.5 0 -1.5 
C -0.397805 -1.5 -0.77937 -1.341951 -1.06066 -1.06066 
C -1.341951 -0.77937 -1.5 -0.397805 -1.5 0 
C -1.5 0.397805 -1.341951 0.77937 -1.06066 1.06066 
C -0.77937 1.341951 -0.397805 1.5 0 1.5 
z
" id="m201443957c" style="stroke:#ff00ff;"/>
    </defs>
    <g>
     <use style="fill:#ff00ff;stroke:#ff00ff;" x="331.720339" xlink:href="#m201443957c" y="204.865118"/>
     <use style="fill:#ff00ff;stroke:#ff00ff;" x="331.720339" xlink:href="#m201443957c" y="204.865118"/>
    </g>
   </g>
   <g id="line2d_40">
    <path d="M -1 291.257067 
L 5.356583 291.257067 
L 5.356583 290.568685 
L 12.427603 290.568685 
L 12.427603 290.224494 
L 21.336035 290.224494 
L 21.336035 290.109764 
L 24.515591 290.109764 
L 24.515591 289.995033 
L 27.203868 289.995033 
L 27.203868 289.880303 
L 33.424023 289.880303 
L 33.424023 289.765573 
L 39.291857 289.765573 
L 39.291857 289.650842 
L 49.403475 289.650842 
L 49.403475 289.536112 
L 51.991813 289.536112 
L 51.991813 289.421381 
L 55.271309 289.421381 
L 55.271309 289.306651 
L 77.747734 289.306651 
L 77.747734 289.191921 
L 80.416384 289.191921 
L 80.416384 289.07719 
L 86.518305 289.07719 
L 86.518305 288.96246 
L 92.445356 288.96246 
L 92.445356 288.84773 
L 97.711776 288.84773 
L 97.711776 288.732999 
L 102.695933 288.732999 
L 102.695933 288.618269 
L 103.870632 288.618269 
L 103.870632 288.503539 
L 104.503761 288.503539 
L 104.503761 288.388808 
L 105.649611 288.388808 
L 105.649611 288.274078 
L 106.195485 288.274078 
L 106.195485 288.159348 
L 106.776849 288.159348 
L 106.776849 288.044617 
L 107.688252 288.044617 
L 107.688252 287.929887 
L 107.884477 287.929887 
L 107.884477 287.815157 
L 108.006005 287.815157 
L 108.03021 287.585696 
L 109.040444 287.585696 
L 109.086037 287.241505 
L 109.668146 287.241505 
L 109.668146 287.126775 
L 109.865203 287.126775 
L 109.865203 287.012044 
L 110.274038 287.012044 
L 110.274038 286.897314 
L 111.485729 286.897314 
L 111.485729 286.782584 
L 111.604364 286.782584 
L 111.604364 286.667853 
L 111.83924 286.667853 
L 111.83924 286.553123 
L 113.85653 286.553123 
L 113.85653 286.438393 
L 114.452366 286.438393 
L 114.452366 286.323662 
L 114.800335 286.323662 
L 114.800335 286.208932 
L 115.10929 286.208932 
L 115.173642 285.979471 
L 115.221751 285.979471 
L 115.221751 285.864741 
L 115.460322 285.864741 
L 115.460322 285.75001 
L 115.804426 285.75001 
L 115.804426 285.63528 
L 116.885347 285.63528 
L 116.885347 285.52055 
L 118.337133 285.52055 
L 118.337133 285.405819 
L 118.563361 285.405819 
L 118.563361 285.291089 
L 118.890808 285.291089 
L 118.968488 285.061628 
L 119.020084 285.061628 
L 119.020084 284.946898 
L 119.960266 284.946898 
L 119.960266 284.832168 
L 120.618882 284.832168 
L 120.677541 284.602707 
L 120.863934 284.602707 
L 120.863934 284.487977 
L 121.08272 284.487977 
L 121.08272 284.373246 
L 121.590203 284.373246 
L 121.590203 284.258516 
L 122.255364 284.258516 
L 122.255364 284.143786 
L 122.699028 284.143786 
L 122.699028 284.029055 
L 123.019403 284.029055 
L 123.019403 283.914325 
L 123.533993 283.914325 
L 123.533993 283.799595 
L 123.712047 283.799595 
L 123.712047 283.684864 
L 124.406624 283.684864 
L 124.406624 283.570134 
L 124.863982 283.570134 
L 124.863982 283.455404 
L 125.996395 283.455404 
L 126.099688 283.225943 
L 126.590491 283.225943 
L 126.590491 283.111213 
L 126.731768 283.111213 
L 126.731768 282.996482 
L 127.317744 282.996482 
L 127.317744 282.881752 
L 127.508774 282.881752 
L 127.508774 282.767022 
L 128.657518 282.767022 
L 128.657518 282.652291 
L 128.944197 282.652291 
L 128.973336 282.422831 
L 129.096633 282.422831 
L 129.096633 282.3081 
L 129.404667 282.3081 
L 129.404667 282.19337 
L 130.032298 282.19337 
L 130.032298 282.078639 
L 130.887729 282.078639 
L 130.887729 281.963909 
L 131.672008 281.963909 
L 131.672008 281.849179 
L 131.962617 281.849179 
L 132.017718 281.619718 
L 132.917126 281.619718 
L 132.980868 281.390257 
L 133.392433 281.390257 
L 133.392433 281.275527 
L 133.533096 281.275527 
L 133.533096 281.160797 
L 133.975741 281.160797 
L 133.975741 281.046066 
L 134.608796 281.046066 
L 134.608796 280.931336 
L 134.859876 280.931336 
L 134.859876 280.816606 
L 135.411927 280.816606 
L 135.411927 280.701875 
L 135.64682 280.701875 
L 135.735948 280.472415 
L 135.868791 280.472415 
L 135.868791 280.357684 
L 136.395027 280.357684 
L 136.452002 280.128224 
L 136.570107 280.128224 
L 136.570107 280.013493 
L 136.910465 280.013493 
L 136.938146 279.669302 
L 137.375175 279.669302 
L 137.375175 279.554572 
L 137.928288 279.554572 
L 137.928288 279.439842 
L 138.498152 279.439842 
L 138.578062 279.095651 
L 138.67848 279.095651 
L 138.70766 278.636729 
L 138.922911 278.636729 
L 138.922911 278.292538 
L 139.037725 278.292538 
L 139.037725 278.177808 
L 139.192344 278.177808 
L 139.220677 277.948347 
L 139.305403 277.948347 
L 139.305403 277.833617 
L 139.545232 277.833617 
L 139.640247 277.604156 
L 140.00362 277.604156 
L 140.00362 277.489426 
L 140.660065 277.489426 
L 140.697265 277.259965 
L 141.321401 277.259965 
L 141.421504 276.915774 
L 141.460673 276.915774 
L 141.460673 276.686313 
L 141.648175 276.686313 
L 141.648175 276.571583 
L 141.906643 276.571583 
L 141.920506 276.342122 
L 142.32796 276.342122 
L 142.32796 276.227392 
L 142.482947 276.227392 
L 142.493007 275.883201 
L 142.683056 275.883201 
L 142.772361 275.42428 
L 142.851361 275.42428 
L 142.851361 275.309549 
L 143.212153 275.309549 
L 143.212153 275.194819 
L 143.825341 275.194819 
L 143.825341 274.735897 
L 144.178904 274.735897 
L 144.224497 274.506437 
L 144.375618 274.506437 
L 144.414696 274.162246 
L 145.435169 274.162246 
L 145.435169 274.047515 
L 145.976095 274.047515 
L 145.976095 273.932785 
L 146.407252 273.932785 
L 146.407252 273.818055 
L 146.69415 273.818055 
L 146.69415 273.703324 
L 146.841074 273.703324 
L 146.872398 273.473864 
L 147.033345 273.473864 
L 147.033345 273.359133 
L 147.317833 273.359133 
L 147.363533 273.129673 
L 147.48985 273.129673 
L 147.48985 273.014942 
L 147.739772 273.014942 
L 147.846147 272.441291 
L 147.875718 272.441291 
L 147.986163 272.0971 
L 148.100776 272.0971 
L 148.100776 271.752909 
L 148.332562 271.752909 
L 148.421081 271.408718 
L 148.61095 271.408718 
L 148.69807 271.064526 
L 148.740295 271.064526 
L 148.740295 270.949796 
L 149.102033 270.949796 
L 149.179887 270.720335 
L 149.271037 270.720335 
L 149.271037 270.605605 
L 149.595289 270.605605 
L 149.595289 270.490875 
L 149.741913 270.490875 
L 149.816968 269.917223 
L 150.03804 269.917223 
L 150.124824 269.458302 
L 150.282101 269.458302 
L 150.282101 269.343571 
L 150.54816 269.343571 
L 150.611414 269.114111 
L 150.728879 269.114111 
L 150.728879 268.99938 
L 151.160418 268.99938 
L 151.160418 268.88465 
L 151.355114 268.88465 
L 151.441622 268.655189 
L 152.000501 268.655189 
L 152.000501 268.540459 
L 152.262837 268.540459 
L 152.262837 268.425729 
L 153.125642 268.425729 
L 153.125642 268.310998 
L 153.380683 268.310998 
L 153.380683 268.196268 
L 153.970345 268.196268 
L 153.970345 268.081538 
L 154.168845 268.081538 
L 154.168845 267.966807 
L 154.517183 267.966807 
L 154.517183 267.852077 
L 155.666226 267.852077 
L 155.666226 267.737347 
L 155.885354 267.737347 
L 155.885354 267.622616 
L 157.101808 267.622616 
L 157.101808 267.507886 
L 157.920731 267.507886 
L 157.920731 267.393156 
L 158.033857 267.393156 
L 158.099738 267.163695 
L 158.3446 267.163695 
L 158.3446 267.048964 
L 158.696299 267.048964 
L 158.696299 266.934234 
L 159.08253 266.934234 
L 159.109701 266.704773 
L 159.531207 266.704773 
L 159.531207 266.590043 
L 160.180255 266.590043 
L 160.180255 266.475313 
L 160.292966 266.475313 
L 160.292966 266.360582 
L 160.530533 266.360582 
L 160.530533 266.245852 
L 163.195301 266.245852 
L 163.195301 266.131122 
L 163.922502 266.131122 
L 163.922502 266.016391 
L 164.049575 266.016391 
L 164.049575 265.901661 
L 164.261573 265.901661 
L 164.261573 265.786931 
L 164.476728 265.786931 
L 164.476728 265.6722 
L 164.860231 265.6722 
L 164.925189 265.44274 
L 165.322615 265.44274 
L 165.322615 265.328009 
L 165.615296 265.328009 
L 165.615296 265.213279 
L 166.603489 265.213279 
L 166.700803 264.983818 
L 168.480731 264.983818 
L 168.480731 264.869088 
L 168.829244 264.869088 
L 168.829244 264.754358 
L 169.09671 264.754358 
L 169.09671 264.639627 
L 169.343607 264.639627 
L 169.343607 264.524897 
L 170.29017 264.524897 
L 170.29017 264.410167 
L 170.426508 264.410167 
L 170.426508 264.295436 
L 170.816031 264.295436 
L 170.816031 264.180706 
L 172.068306 264.180706 
L 172.068306 264.065976 
L 172.655425 264.065976 
L 172.655425 263.951245 
L 172.953136 263.951245 
L 172.953136 263.836515 
L 173.259066 263.836515 
L 173.259066 263.721785 
L 173.65543 263.721785 
L 173.65543 263.607054 
L 175.296581 263.607054 
L 175.328746 263.377593 
L 177.098184 263.377593 
L 177.098184 263.262863 
L 178.134601 263.262863 
L 178.134601 263.148133 
L 178.997105 263.148133 
L 178.997105 263.033402 
L 179.319799 263.033402 
L 179.319799 262.918672 
L 179.70066 262.918672 
L 179.70066 262.803942 
L 182.765045 262.803942 
L 182.765045 262.689211 
L 183.454225 262.689211 
L 183.454225 262.574481 
L 188.507887 262.574481 
L 188.507887 262.459751 
L 202.195222 262.459751 
L 202.195222 262.34502 
L 204.124566 262.34502 
L 204.124566 262.23029 
L 206.897677 262.23029 
L 207.003349 262.000829 
L 207.222051 262.000829 
L 207.229505 261.771369 
L 207.447833 261.771369 
L 207.447833 261.656638 
L 207.829919 261.656638 
L 207.829919 261.541908 
L 207.983515 261.541908 
L 207.983515 261.427178 
L 208.103945 261.427178 
L 208.103945 261.312447 
L 208.322507 261.312447 
L 208.322507 261.197717 
L 208.515635 261.197717 
L 208.515635 261.082987 
L 208.774678 261.082987 
L 208.774678 260.968256 
L 208.954584 260.968256 
L 208.954584 260.853526 
L 209.083319 260.853526 
L 209.109069 260.624065 
L 209.772804 260.624065 
L 209.772804 260.509335 
L 210.153349 260.509335 
L 210.153349 260.394605 
L 210.325886 260.394605 
L 210.325886 260.279874 
L 210.601317 260.279874 
L 210.601317 260.165144 
L 210.719563 260.165144 
L 210.719563 260.050414 
L 211.063849 260.050414 
L 211.063849 259.935683 
L 211.431612 259.935683 
L 211.538814 259.706222 
L 219.111525 259.706222 
L 219.111525 259.591492 
L 229.883688 259.591492 
L 229.883688 259.476762 
L 239.782283 259.476762 
L 239.782283 259.362031 
L 245.542362 259.362031 
L 245.542362 259.247301 
L 246.300338 259.247301 
L 246.406197 256.493773 
L 246.444593 256.493773 
L 246.496456 256.149582 
L 246.659963 256.149582 
L 246.659963 255.920121 
L 248.096277 255.920121 
L 248.181787 254.887548 
L 248.208607 254.887548 
L 248.315343 254.428627 
L 248.376874 254.428627 
L 248.478828 253.854975 
L 250.637244 253.854975 
L 250.637244 253.625514 
L 258.385939 253.625514 
L 258.494055 251.101447 
L 258.50455 251.101447 
L 258.613063 250.068874 
L 259.268926 250.068874 
L 259.373203 249.036301 
L 259.380375 249.036301 
L 259.468815 248.347918 
L 259.506324 248.347918 
L 259.506324 248.233188 
L 265.463517 248.233188 
L 265.564492 247.085885 
L 265.574921 247.085885 
L 265.643722 246.741694 
L 266.047015 246.741694 
L 266.150043 245.135469 
L 266.183483 245.135469 
L 266.218558 244.332356 
L 267.021093 244.332356 
L 267.021093 244.217626 
L 270.476361 244.217626 
L 270.58349 242.381941 
L 270.916723 242.381941 
L 271.02322 241.005176 
L 271.034168 241.005176 
L 271.034168 240.890446 
L 274.363808 240.890446 
L 274.403454 240.546255 
L 274.719413 240.546255 
L 274.822903 239.169491 
L 277.54827 239.169491 
L 277.615146 238.94003 
L 277.837208 238.94003 
L 277.910188 236.874884 
L 280.230846 236.874884 
L 280.278866 236.071772 
L 280.482794 236.071772 
L 280.558774 234.006626 
L 282.558735 234.006626 
L 282.596834 233.318243 
L 282.780377 233.318243 
L 282.813143 232.17094 
L 284.624983 232.17094 
L 284.637239 231.712019 
L 284.809082 231.712019 
L 284.869364 230.908906 
L 285.147399 230.908906 
L 285.147399 230.794176 
L 286.460189 230.794176 
L 286.492023 230.220524 
L 286.62584 230.220524 
L 286.680733 228.614299 
L 288.110808 228.614299 
L 288.138527 228.040648 
L 288.271581 228.040648 
L 288.32023 226.663884 
L 289.632285 226.663884 
L 289.651614 226.204962 
L 289.776233 226.204962 
L 289.821153 224.942928 
L 291.036061 224.942928 
L 291.046941 224.713468 
L 291.17126 224.713468 
L 291.198578 224.139816 
L 292.459318 224.139816 
L 292.480391 223.451434 
L 293.526292 223.451434 
L 293.538931 223.221973 
L 293.638967 223.221973 
L 293.661391 222.418861 
L 294.657085 222.418861 
L 294.761881 222.07467 
L 294.769714 222.07467 
L 294.782314 221.615748 
L 294.947043 221.615748 
L 294.947043 221.501018 
L 295.713396 221.501018 
L 295.82429 220.697906 
L 295.830394 220.697906 
L 295.833929 220.468445 
L 296.796702 220.468445 
L 296.824296 219.780063 
L 297.651508 219.780063 
L 297.745621 218.97695 
L 297.762742 218.97695 
L 297.762742 218.86222 
L 297.896038 218.86222 
L 297.896038 218.74749 
L 298.536208 218.74749 
L 298.632244 217.944377 
L 298.651046 217.944377 
L 298.651046 217.829647 
L 298.777747 217.829647 
L 298.777747 217.714917 
L 299.393506 217.714917 
L 299.491125 216.567613 
L 299.617015 216.567613 
L 299.617015 216.338153 
L 300.205373 216.338153 
L 300.280592 215.879231 
L 300.979113 215.879231 
L 301.070225 214.961388 
L 301.720815 214.961388 
L 301.801424 214.387737 
L 302.496764 214.387737 
L 302.506451 214.043546 
L 303.180392 214.043546 
L 303.188437 213.814085 
L 303.777197 213.814085 
L 303.852377 213.355164 
L 305.020461 213.355164 
L 305.089894 212.781512 
L 305.610541 212.781512 
L 305.682664 211.863669 
L 306.18367 211.863669 
L 306.24143 211.290017 
L 306.789058 211.290017 
L 306.803238 210.945826 
L 307.321031 210.945826 
L 307.326877 210.601635 
L 307.796048 210.601635 
L 307.842787 210.372175 
L 308.302573 210.372175 
L 308.358401 210.142714 
L 308.789023 210.142714 
L 308.833846 209.798523 
L 309.266682 209.798523 
L 309.325107 209.339602 
L 309.775813 209.339602 
L 309.775813 209.224871 
L 310.185979 209.224871 
L 310.185979 209.110141 
L 310.305197 209.110141 
L 310.305197 208.995411 
L 310.666924 208.995411 
L 310.676797 208.76595 
L 311.095564 208.76595 
L 311.103191 208.421759 
L 311.478509 208.421759 
L 311.520169 208.077568 
L 312.289462 208.077568 
L 312.32752 207.733377 
L 312.679824 207.733377 
L 312.722004 207.159725 
L 313.103409 207.159725 
L 313.107152 206.815534 
L 313.476525 206.815534 
L 313.476525 206.700804 
L 313.806989 206.700804 
L 313.806989 206.586073 
L 314.19923 206.586073 
L 314.205812 206.241882 
L 314.55103 206.241882 
L 314.555888 206.012422 
L 315.23122 206.012422 
L 315.23122 205.897691 
L 315.889393 205.897691 
L 315.889393 205.782961 
L 316.178429 205.782961 
L 316.178429 205.668231 
L 316.801813 205.668231 
L 316.832099 205.43877 
L 317.134416 205.43877 
L 317.134416 205.32404 
L 318.298031 205.32404 
L 318.298031 205.209309 
L 319.384437 205.209309 
L 319.384437 205.094579 
L 322.95022 205.094579 
L 322.95022 204.979849 
L 331.720339 204.979849 
L 331.720339 204.865118 
L 338.688 204.865118 
L 338.688 204.865118 
" style="fill:none;stroke:#ff00ff;stroke-linecap:square;stroke-width:1.5;"/>
   </g>
   <g id="line2d_41">
    <defs>
     <path d="M -0 8.485281 
L 5.091169 0 
L 0 -8.485281 
L -5.091169 -0 
z
" id="mb39279df75" style="stroke:#ff00ff;stroke-linejoin:miter;stroke-width:1.5;"/>
    </defs>
    <g>
     <use style="fill-opacity:0;stroke:#ff00ff;stroke-linejoin:miter;stroke-width:1.5;" x="77.747734" xlink:href="#mb39279df75" y="289.191921"/>
     <use style="fill-opacity:0;stroke:#ff00ff;stroke-linejoin:miter;stroke-width:1.5;" x="169.343607" xlink:href="#mb39279df75" y="264.639627"/>
     <use style="fill-opacity:0;stroke:#ff00ff;stroke-linejoin:miter;stroke-width:1.5;" x="248.478828" xlink:href="#mb39279df75" y="253.969705"/>
     <use style="fill-opacity:0;stroke:#ff00ff;stroke-linejoin:miter;stroke-width:1.5;" x="311.520169" xlink:href="#mb39279df75" y="208.077568"/>
     <use style="fill-opacity:0;stroke:#ff00ff;stroke-linejoin:miter;stroke-width:1.5;" x="331.720339" xlink:href="#mb39279df75" y="204.865118"/>
     <use style="fill-opacity:0;stroke:#ff00ff;stroke-linejoin:miter;stroke-width:1.5;" x="338.688" xlink:href="#mb39279df75" y="204.865118"/>
    </g>
   </g>
   <g id="line2d_42">
    <path style="fill:none;stroke:#ff00ff;stroke-linecap:square;stroke-width:1.5;"/>
    <g/>
   </g>
   <g id="line2d_43">
    <path clip-path="url(#p2ee52d1383)" d="M 246.289154 259.247301 
" style="fill:none;stroke:#ff00ff;stroke-linecap:square;stroke-width:1.5;"/>
    <defs>
     <path d="M -12 12 
L 12 -12 
M -12 -12 
L 12 12 
" id="m538fe45996" style="stroke:#ff00ff;"/>
    </defs>
    <g clip-path="url(#p2ee52d1383)">
     <use style="fill:#ff00ff;stroke:#ff00ff;" x="246.289154" xlink:href="#m538fe45996" y="259.247301"/>
    </g>
   </g>
   <g id="line2d_44">
    <path d="M 338.688 204.865118 
L 369.60768 293.092752 
" style="fill:none;stroke:#ff00ff;stroke-linecap:square;stroke-width:1.5;"/>
    <g>
     <use style="fill-opacity:0;stroke:#ff00ff;stroke-linejoin:miter;stroke-width:1.5;" x="338.688" xlink:href="#mb39279df75" y="204.865118"/>
     <use style="fill-opacity:0;stroke:#ff00ff;stroke-linejoin:miter;stroke-width:1.5;" x="369.60768" xlink:href="#mb39279df75" y="293.092752"/>
    </g>
   </g>
   <g id="line2d_45">
    <path d="M 338.688 202.570511 
L 369.60768 152.662812 
" style="fill:none;stroke:#000080;stroke-linecap:square;stroke-width:1.5;"/>
    <g>
     <use style="fill-opacity:0;stroke:#000080;stroke-width:1.5;" x="338.688" xlink:href="#m6f7a5cb45f" y="202.570511"/>
     <use style="fill-opacity:0;stroke:#000080;stroke-width:1.5;" x="369.60768" xlink:href="#m6f7a5cb45f" y="152.662812"/>
    </g>
   </g>
   <g id="line2d_46">
    <path d="M 338.688 298.944 
L 338.688 6.381624 
" style="fill:none;stroke:#000000;stroke-linecap:square;stroke-width:1.5;"/>
   </g>
   <g id="patch_3">
    <path d="M 57.6 298.944 
L 57.6 3.456 
" style="fill:none;stroke:#000000;stroke-linecap:square;stroke-linejoin:miter;stroke-width:0.8;"/>
   </g>
   <g id="patch_4">
    <path d="M 338.688 298.944 
L 338.688 3.456 
" style="fill:none;stroke:#000000;stroke-linecap:square;stroke-linejoin:miter;stroke-width:0.8;"/>
   </g>
   <g id="patch_5">
    <path d="M 57.6 298.944 
L 338.688 298.944 
" style="fill:none;stroke:#000000;stroke-linecap:square;stroke-linejoin:miter;stroke-width:0.8;"/>
   </g>
   <g id="patch_6">
    <path d="M 57.6 3.456 
L 338.688 3.456 
" style="fill:none;stroke:#000000;stroke-linecap:square;stroke-linejoin:miter;stroke-width:0.8;"/>
   </g>
   <g id="text_13">
    <!-- PSO -->
    <g transform="translate(375.22944 297.78369)scale(0.17 -0.17)">
     <defs>
      <path d="M 19.671875 64.796875 
L 19.671875 37.40625 
L 32.078125 37.40625 
Q 38.96875 37.40625 42.71875 40.96875 
Q 46.484375 44.53125 46.484375 51.125 
Q 46.484375 57.671875 42.71875 61.234375 
Q 38.96875 64.796875 32.078125 64.796875 
z
M 9.8125 72.90625 
L 32.078125 72.90625 
Q 44.34375 72.90625 50.609375 67.359375 
Q 56.890625 61.8125 56.890625 51.125 
Q 56.890625 40.328125 50.609375 34.8125 
Q 44.34375 29.296875 32.078125 29.296875 
L 19.671875 29.296875 
L 19.671875 0 
L 9.8125 0 
z
" id="DejaVuSans-80"/>
      <path d="M 53.515625 70.515625 
L 53.515625 60.890625 
Q 47.90625 63.578125 42.921875 64.890625 
Q 37.9375 66.21875 33.296875 66.21875 
Q 25.25 66.21875 20.875 63.09375 
Q 16.5 59.96875 16.5 54.203125 
Q 16.5 49.359375 19.40625 46.890625 
Q 22.3125 44.4375 30.421875 42.921875 
L 36.375 41.703125 
Q 47.40625 39.59375 52.65625 34.296875 
Q 57.90625 29 57.90625 20.125 
Q 57.90625 9.515625 50.796875 4.046875 
Q 43.703125 -1.421875 29.984375 -1.421875 
Q 24.8125 -1.421875 18.96875 -0.25 
Q 13.140625 0.921875 6.890625 3.21875 
L 6.890625 13.375 
Q 12.890625 10.015625 18.65625 8.296875 
Q 24.421875 6.59375 29.984375 6.59375 
Q 38.421875 6.59375 43.015625 9.90625 
Q 47.609375 13.234375 47.609375 19.390625 
Q 47.609375 24.75 44.3125 27.78125 
Q 41.015625 30.8125 33.5 32.328125 
L 27.484375 33.5 
Q 16.453125 35.6875 11.515625 40.375 
Q 6.59375 45.0625 6.59375 53.421875 
Q 6.59375 63.09375 13.40625 68.65625 
Q 20.21875 74.21875 32.171875 74.21875 
Q 37.3125 74.21875 42.625 73.28125 
Q 47.953125 72.359375 53.515625 70.515625 
z
" id="DejaVuSans-83"/>
      <path d="M 39.40625 66.21875 
Q 28.65625 66.21875 22.328125 58.203125 
Q 16.015625 50.203125 16.015625 36.375 
Q 16.015625 22.609375 22.328125 14.59375 
Q 28.65625 6.59375 39.40625 6.59375 
Q 50.140625 6.59375 56.421875 14.59375 
Q 62.703125 22.609375 62.703125 36.375 
Q 62.703125 50.203125 56.421875 58.203125 
Q 50.140625 66.21875 39.40625 66.21875 
z
M 39.40625 74.21875 
Q 54.734375 74.21875 63.90625 63.9375 
Q 73.09375 53.65625 73.09375 36.375 
Q 73.09375 19.140625 63.90625 8.859375 
Q 54.734375 -1.421875 39.40625 -1.421875 
Q 24.03125 -1.421875 14.8125 8.828125 
Q 5.609375 19.09375 5.609375 36.375 
Q 5.609375 53.65625 14.8125 63.9375 
Q 24.03125 74.21875 39.40625 74.21875 
z
" id="DejaVuSans-79"/>
     </defs>
     <use xlink:href="#DejaVuSans-80"/>
     <use x="60.302734" xlink:href="#DejaVuSans-83"/>
     <use x="123.779297" xlink:href="#DejaVuSans-79"/>
    </g>
   </g>
   <g id="text_14">
    <!-- BIPOP-CMA -->
    <g transform="translate(375.22944 157.353749)scale(0.17 -0.17)">
     <defs>
      <path d="M 19.671875 34.8125 
L 19.671875 8.109375 
L 35.5 8.109375 
Q 43.453125 8.109375 47.28125 11.40625 
Q 51.125 14.703125 51.125 21.484375 
Q 51.125 28.328125 47.28125 31.5625 
Q 43.453125 34.8125 35.5 34.8125 
z
M 19.671875 64.796875 
L 19.671875 42.828125 
L 34.28125 42.828125 
Q 41.5 42.828125 45.03125 45.53125 
Q 48.578125 48.25 48.578125 53.8125 
Q 48.578125 59.328125 45.03125 62.0625 
Q 41.5 64.796875 34.28125 64.796875 
z
M 9.8125 72.90625 
L 35.015625 72.90625 
Q 46.296875 72.90625 52.390625 68.21875 
Q 58.5 63.53125 58.5 54.890625 
Q 58.5 48.1875 55.375 44.234375 
Q 52.25 40.28125 46.1875 39.3125 
Q 53.46875 37.75 57.5 32.78125 
Q 61.53125 27.828125 61.53125 20.40625 
Q 61.53125 10.640625 54.890625 5.3125 
Q 48.25 0 35.984375 0 
L 9.8125 0 
z
" id="DejaVuSans-66"/>
      <path d="M 9.8125 72.90625 
L 19.671875 72.90625 
L 19.671875 0 
L 9.8125 0 
z
" id="DejaVuSans-73"/>
      <path d="M 64.40625 67.28125 
L 64.40625 56.890625 
Q 59.421875 61.53125 53.78125 63.8125 
Q 48.140625 66.109375 41.796875 66.109375 
Q 29.296875 66.109375 22.65625 58.46875 
Q 16.015625 50.828125 16.015625 36.375 
Q 16.015625 21.96875 22.65625 14.328125 
Q 29.296875 6.6875 41.796875 6.6875 
Q 48.140625 6.6875 53.78125 8.984375 
Q 59.421875 11.28125 64.40625 15.921875 
L 64.40625 5.609375 
Q 59.234375 2.09375 53.4375 0.328125 
Q 47.65625 -1.421875 41.21875 -1.421875 
Q 24.65625 -1.421875 15.125 8.703125 
Q 5.609375 18.84375 5.609375 36.375 
Q 5.609375 53.953125 15.125 64.078125 
Q 24.65625 74.21875 41.21875 74.21875 
Q 47.75 74.21875 53.53125 72.484375 
Q 59.328125 70.75 64.40625 67.28125 
z
" id="DejaVuSans-67"/>
      <path d="M 9.8125 72.90625 
L 24.515625 72.90625 
L 43.109375 23.296875 
L 61.8125 72.90625 
L 76.515625 72.90625 
L 76.515625 0 
L 66.890625 0 
L 66.890625 64.015625 
L 48.09375 14.015625 
L 38.1875 14.015625 
L 19.390625 64.015625 
L 19.390625 0 
L 9.8125 0 
z
" id="DejaVuSans-77"/>
      <path d="M 34.1875 63.1875 
L 20.796875 26.90625 
L 47.609375 26.90625 
z
M 28.609375 72.90625 
L 39.796875 72.90625 
L 67.578125 0 
L 57.328125 0 
L 50.6875 18.703125 
L 17.828125 18.703125 
L 11.1875 0 
L 0.78125 0 
z
" id="DejaVuSans-65"/>
     </defs>
     <use xlink:href="#DejaVuSans-66"/>
     <use x="68.603516" xlink:href="#DejaVuSans-73"/>
     <use x="98.095703" xlink:href="#DejaVuSans-80"/>
     <use x="158.398438" xlink:href="#DejaVuSans-79"/>
     <use x="237.109375" xlink:href="#DejaVuSans-80"/>
     <use x="295.162109" xlink:href="#DejaVuSans-45"/>
     <use x="331.246094" xlink:href="#DejaVuSans-67"/>
     <use x="401.070312" xlink:href="#DejaVuSans-77"/>
     <use x="487.349609" xlink:href="#DejaVuSans-65"/>
    </g>
   </g>
   <g id="text_15">
    <!-- best 2009 -->
    <g transform="translate(375.22944 16.923809)scale(0.17 -0.17)">
     <defs>
      <path d="M 48.6875 27.296875 
Q 48.6875 37.203125 44.609375 42.84375 
Q 40.53125 48.484375 33.40625 48.484375 
Q 26.265625 48.484375 22.1875 42.84375 
Q 18.109375 37.203125 18.109375 27.296875 
Q 18.109375 17.390625 22.1875 11.75 
Q 26.265625 6.109375 33.40625 6.109375 
Q 40.53125 6.109375 44.609375 11.75 
Q 48.6875 17.390625 48.6875 27.296875 
z
M 18.109375 46.390625 
Q 20.953125 51.265625 25.265625 53.625 
Q 29.59375 56 35.59375 56 
Q 45.5625 56 51.78125 48.09375 
Q 58.015625 40.1875 58.015625 27.296875 
Q 58.015625 14.40625 51.78125 6.484375 
Q 45.5625 -1.421875 35.59375 -1.421875 
Q 29.59375 -1.421875 25.265625 0.953125 
Q 20.953125 3.328125 18.109375 8.203125 
L 18.109375 0 
L 9.078125 0 
L 9.078125 75.984375 
L 18.109375 75.984375 
z
" id="DejaVuSans-98"/>
      <path d="M 10.984375 1.515625 
L 10.984375 10.5 
Q 14.703125 8.734375 18.5 7.8125 
Q 22.3125 6.890625 25.984375 6.890625 
Q 35.75 6.890625 40.890625 13.453125 
Q 46.046875 20.015625 46.78125 33.40625 
Q 43.953125 29.203125 39.59375 26.953125 
Q 35.25 24.703125 29.984375 24.703125 
Q 19.046875 24.703125 12.671875 31.3125 
Q 6.296875 37.9375 6.296875 49.421875 
Q 6.296875 60.640625 12.9375 67.421875 
Q 19.578125 74.21875 30.609375 74.21875 
Q 43.265625 74.21875 49.921875 64.515625 
Q 56.59375 54.828125 56.59375 36.375 
Q 56.59375 19.140625 48.40625 8.859375 
Q 40.234375 -1.421875 26.421875 -1.421875 
Q 22.703125 -1.421875 18.890625 -0.6875 
Q 15.09375 0.046875 10.984375 1.515625 
z
M 30.609375 32.421875 
Q 37.25 32.421875 41.125 36.953125 
Q 45.015625 41.5 45.015625 49.421875 
Q 45.015625 57.28125 41.125 61.84375 
Q 37.25 66.40625 30.609375 66.40625 
Q 23.96875 66.40625 20.09375 61.84375 
Q 16.21875 57.28125 16.21875 49.421875 
Q 16.21875 41.5 20.09375 36.953125 
Q 23.96875 32.421875 30.609375 32.421875 
z
" id="DejaVuSans-57"/>
     </defs>
     <use xlink:href="#DejaVuSans-98"/>
     <use x="63.476562" xlink:href="#DejaVuSans-101"/>
     <use x="125" xlink:href="#DejaVuSans-115"/>
     <use x="177.099609" xlink:href="#DejaVuSans-116"/>
     <use x="216.308594" xlink:href="#DejaVuSans-32"/>
     <use x="248.095703" xlink:href="#DejaVuSans-50"/>
     <use x="311.71875" xlink:href="#DejaVuSans-48"/>
     <use x="375.341797" xlink:href="#DejaVuSans-48"/>
     <use x="438.964844" xlink:href="#DejaVuSans-57"/>
    </g>
   </g>
   <g id="text_16">
    <!-- bbob f20-f24, 40-D -->
    <g transform="translate(60.41088 14.161286)scale(0.102 -0.102)">
     <defs>
      <path d="M 19.671875 64.796875 
L 19.671875 8.109375 
L 31.59375 8.109375 
Q 46.6875 8.109375 53.6875 14.9375 
Q 60.6875 21.78125 60.6875 36.53125 
Q 60.6875 51.171875 53.6875 57.984375 
Q 46.6875 64.796875 31.59375 64.796875 
z
M 9.8125 72.90625 
L 30.078125 72.90625 
Q 51.265625 72.90625 61.171875 64.09375 
Q 71.09375 55.28125 71.09375 36.53125 
Q 71.09375 17.671875 61.125 8.828125 
Q 51.171875 0 30.078125 0 
L 9.8125 0 
z
" id="DejaVuSans-68"/>
     </defs>
     <use xlink:href="#DejaVuSans-98"/>
     <use x="63.476562" xlink:href="#DejaVuSans-98"/>
     <use x="126.953125" xlink:href="#DejaVuSans-111"/>
     <use x="188.134766" xlink:href="#DejaVuSans-98"/>
     <use x="251.611328" xlink:href="#DejaVuSans-32"/>
     <use x="283.398438" xlink:href="#DejaVuSans-102"/>
     <use x="318.603516" xlink:href="#DejaVuSans-50"/>
     <use x="382.226562" xlink:href="#DejaVuSans-48"/>
     <use x="445.849609" xlink:href="#DejaVuSans-45"/>
     <use x="481.933594" xlink:href="#DejaVuSans-102"/>
     <use x="517.138672" xlink:href="#DejaVuSans-50"/>
     <use x="580.761719" xlink:href="#DejaVuSans-52"/>
     <use x="644.384766" xlink:href="#DejaVuSans-44"/>
     <use x="676.171875" xlink:href="#DejaVuSans-32"/>
     <use x="707.958984" xlink:href="#DejaVuSans-52"/>
     <use x="771.582031" xlink:href="#DejaVuSans-48"/>
     <use x="835.205078" xlink:href="#DejaVuSans-45"/>
     <use x="871.289062" xlink:href="#DejaVuSans-68"/>
    </g>
    <!-- 51 targets: 100..1e-08 -->
    <g transform="translate(60.41088 25.583055)scale(0.102 -0.102)">
     <defs>
      <path d="M 10.796875 72.90625 
L 49.515625 72.90625 
L 49.515625 64.59375 
L 19.828125 64.59375 
L 19.828125 46.734375 
Q 21.96875 47.46875 24.109375 47.828125 
Q 26.265625 48.1875 28.421875 48.1875 
Q 40.625 48.1875 47.75 41.5 
Q 54.890625 34.8125 54.890625 23.390625 
Q 54.890625 11.625 47.5625 5.09375 
Q 40.234375 -1.421875 26.90625 -1.421875 
Q 22.3125 -1.421875 17.546875 -0.640625 
Q 12.796875 0.140625 7.71875 1.703125 
L 7.71875 11.625 
Q 12.109375 9.234375 16.796875 8.0625 
Q 21.484375 6.890625 26.703125 6.890625 
Q 35.15625 6.890625 40.078125 11.328125 
Q 45.015625 15.765625 45.015625 23.390625 
Q 45.015625 31 40.078125 35.4375 
Q 35.15625 39.890625 26.703125 39.890625 
Q 22.75 39.890625 18.8125 39.015625 
Q 14.890625 38.140625 10.796875 36.28125 
z
" id="DejaVuSans-53"/>
      <path d="M 11.71875 12.40625 
L 22.015625 12.40625 
L 22.015625 0 
L 11.71875 0 
z
M 11.71875 51.703125 
L 22.015625 51.703125 
L 22.015625 39.3125 
L 11.71875 39.3125 
z
" id="DejaVuSans-58"/>
     </defs>
     <use xlink:href="#DejaVuSans-53"/>
     <use x="63.623047" xlink:href="#DejaVuSans-49"/>
     <use x="127.246094" xlink:href="#DejaVuSans-32"/>
     <use x="159.033203" xlink:href="#DejaVuSans-116"/>
     <use x="198.242188" xlink:href="#DejaVuSans-97"/>
     <use x="259.521484" xlink:href="#DejaVuSans-114"/>
     <use x="298.884766" xlink:href="#DejaVuSans-103"/>
     <use x="362.361328" xlink:href="#DejaVuSans-101"/>
     <use x="423.884766" xlink:href="#DejaVuSans-116"/>
     <use x="463.09375" xlink:href="#DejaVuSans-115"/>
     <use x="515.193359" xlink:href="#DejaVuSans-58"/>
     <use x="548.884766" xlink:href="#DejaVuSans-32"/>
     <use x="580.671875" xlink:href="#DejaVuSans-49"/>
     <use x="644.294922" xlink:href="#DejaVuSans-48"/>
     <use x="707.917969" xlink:href="#DejaVuSans-48"/>
     <use x="771.541016" xlink:href="#DejaVuSans-46"/>
     <use x="803.328125" xlink:href="#DejaVuSans-46"/>
     <use x="835.115234" xlink:href="#DejaVuSans-49"/>
     <use x="898.738281" xlink:href="#DejaVuSans-101"/>
     <use x="960.261719" xlink:href="#DejaVuSans-45"/>
     <use x="996.345703" xlink:href="#DejaVuSans-48"/>
     <use x="1059.96875" xlink:href="#DejaVuSans-56"/>
    </g>
    <!-- 15 instances -->
    <g transform="translate(60.41088 37.004824)scale(0.102 -0.102)">
     <use xlink:href="#DejaVuSans-49"/>
     <use x="63.623047" xlink:href="#DejaVuSans-53"/>
     <use x="127.246094" xlink:href="#DejaVuSans-32"/>
     <use x="159.033203" xlink:href="#DejaVuSans-105"/>
     <use x="186.816406" xlink:href="#DejaVuSans-110"/>
     <use x="250.195312" xlink:href="#DejaVuSans-115"/>
     <use x="302.294922" xlink:href="#DejaVuSans-116"/>
     <use x="341.503906" xlink:href="#DejaVuSans-97"/>
     <use x="402.783203" xlink:href="#DejaVuSans-110"/>
     <use x="466.162109" xlink:href="#DejaVuSans-99"/>
     <use x="521.142578" xlink:href="#DejaVuSans-101"/>
     <use x="582.666016" xlink:href="#DejaVuSans-115"/>
    </g>
   </g>
   <g id="text_17">
    <!-- v2.4 -->
    <g style="fill:#808080;" transform="translate(187.233062 293.909432)scale(0.1 -0.1)">
     <use xlink:href="#DejaVuSans-118"/>
     <use x="59.179688" xlink:href="#DejaVuSans-50"/>
     <use x="122.802734" xlink:href="#DejaVuSans-46"/>
     <use x="154.589844" xlink:href="#DejaVuSans-52"/>
    </g>
   </g>
  </g>
 </g>
 <defs>
  <clipPath id="p2ee52d1383">
   <rect height="295.488" width="281.088" x="57.6" y="3.456"/>
  </clipPath>
 </defs>
</svg>
