<?xml version="1.0" encoding="utf-8" standalone="no"?>
<!DOCTYPE svg PUBLIC "-//W3C//DTD SVG 1.1//EN"
  "http://www.w3.org/Graphics/SVG/1.1/DTD/svg11.dtd">
<!-- Created with matplotlib (https://matplotlib.org/) -->
<svg height="345.6pt" version="1.1" viewBox="0 0 460.8 345.6" width="460.8pt" xmlns="http://www.w3.org/2000/svg" xmlns:xlink="http://www.w3.org/1999/xlink">
 <metadata>
  <rdf:RDF xmlns:cc="http://creativecommons.org/ns#" xmlns:dc="http://purl.org/dc/elements/1.1/" xmlns:rdf="http://www.w3.org/1999/02/22-rdf-syntax-ns#">
   <cc:Work>
    <dc:type rdf:resource="http://purl.org/dc/dcmitype/StillImage"/>
    <dc:date>2021-05-01T17:09:00.648704</dc:date>
    <dc:format>image/svg+xml</dc:format>
    <dc:creator>
     <cc:Agent>
      <dc:title>Matplotlib v3.3.2, https://matplotlib.org/</dc:title>
     </cc:Agent>
    </dc:creator>
   </cc:Work>
  </rdf:RDF>
 </metadata>
 <defs>
  <style type="text/css">*{stroke-linecap:butt;stroke-linejoin:round;}</style>
 </defs>
 <g id="figure_1">
  <g id="patch_1">
   <path d="M 0 345.6 
L 460.8 345.6 
L 460.8 0 
L 0 0 
z
" style="fill:#ffffff;"/>
  </g>
  <g id="axes_1">
   <g id="patch_2">
    <path d="M 57.6 298.944 
L 338.688 298.944 
L 338.688 3.456 
L 57.6 3.456 
z
" style="fill:#ffffff;"/>
   </g>
   <g id="line2d_1">
    <path d="M 45.512012 298.944 
L 45.512012 290.339224 
L 57.6 290.339224 
L 57.6 283.168578 
L 64.67102 283.168578 
L 64.67102 275.997931 
L 73.579452 275.997931 
L 73.579452 265.959026 
L 76.759008 265.959026 
L 76.759008 264.524897 
L 79.447285 264.524897 
L 79.447285 263.090768 
L 85.66744 263.090768 
L 85.66744 261.656638 
L 88.846997 261.656638 
L 88.846997 255.920121 
L 90.242884 255.920121 
L 90.242884 253.051863 
L 91.535274 253.051863 
L 91.535274 250.183604 
L 92.73846 250.183604 
L 92.73846 247.315345 
L 93.863965 247.315345 
L 93.863965 245.881216 
L 94.921215 245.881216 
L 94.921215 244.447087 
L 95.918017 244.447087 
L 95.918017 238.71057 
L 96.86091 238.71057 
L 96.86091 235.842311 
L 97.755429 235.842311 
L 97.755429 232.974052 
L 98.606294 232.974052 
L 98.606294 228.671665 
L 100.192776 228.671665 
L 100.192776 227.237535 
L 102.989037 227.237535 
L 102.989037 224.369277 
L 104.826449 224.369277 
L 104.826449 222.935147 
L 105.398279 222.935147 
L 105.398279 221.501018 
L 105.951954 221.501018 
L 105.951954 220.066889 
L 107.514726 220.066889 
L 107.514726 217.19863 
L 108.483824 217.19863 
L 108.483824 215.764501 
L 108.948899 215.764501 
L 108.948899 212.896242 
L 109.401893 212.896242 
L 109.401893 211.462113 
L 110.274038 211.462113 
L 110.274038 208.593854 
L 110.694282 208.593854 
L 110.694282 207.159725 
L 111.104637 207.159725 
L 111.104637 204.291467 
L 111.505558 204.291467 
L 111.505558 198.554949 
L 111.897469 198.554949 
L 111.897469 197.12082 
L 112.280765 197.12082 
L 112.280765 191.384303 
L 112.655818 191.384303 
L 112.655818 187.081915 
L 113.382559 187.081915 
L 113.382559 185.647786 
L 113.73488 185.647786 
L 113.73488 182.779527 
L 114.418861 182.779527 
L 114.418861 181.345398 
L 115.077025 181.345398 
L 115.077025 179.911268 
L 116.621333 179.911268 
L 116.621333 178.477139 
L 116.914437 178.477139 
L 116.914437 177.04301 
L 117.202696 177.04301 
L 117.202696 175.608881 
L 117.765302 175.608881 
L 117.765302 174.174751 
L 118.310324 174.174751 
L 118.310324 172.740622 
L 118.576578 172.740622 
L 118.576578 171.306493 
L 118.838828 171.306493 
L 118.838828 169.872363 
L 119.097192 169.872363 
L 119.097192 168.438234 
L 119.351785 168.438234 
L 119.351785 167.004105 
L 120.093994 167.004105 
L 120.093994 164.135846 
L 120.33454 164.135846 
L 120.33454 161.267588 
L 121.036887 161.267588 
L 121.036887 159.833458 
L 121.264855 159.833458 
L 121.264855 156.9652 
L 121.489881 156.9652 
L 121.489881 154.096941 
L 121.931406 154.096941 
L 121.931406 146.926295 
L 122.148045 146.926295 
L 122.148045 141.189778 
L 122.362027 141.189778 
L 122.362027 138.321519 
L 122.782271 138.321519 
L 122.782271 136.88739 
L 122.988655 136.88739 
L 122.988655 135.45326 
L 123.192626 135.45326 
L 123.192626 131.150872 
L 123.593547 131.150872 
L 123.593547 129.716743 
L 123.790603 129.716743 
L 123.790603 122.546097 
L 123.985457 122.546097 
L 123.985457 118.243709 
L 124.178158 118.243709 
L 124.178158 115.37545 
L 124.368753 115.37545 
L 124.368753 108.204804 
L 124.557288 108.204804 
L 124.557288 103.902416 
L 124.743806 103.902416 
L 124.743806 96.731769 
L 124.92835 96.731769 
L 124.92835 93.863511 
L 125.110962 93.863511 
L 125.110962 90.995252 
L 125.470548 90.995252 
L 125.470548 89.561123 
L 125.822869 89.561123 
L 125.822869 86.692864 
L 126.338353 86.692864 
L 126.338353 83.824606 
L 126.839037 83.824606 
L 126.839037 80.956347 
L 127.002787 80.956347 
L 127.002787 78.088089 
L 127.48501 78.088089 
L 127.48501 75.21983 
L 127.799239 75.21983 
L 127.799239 69.483313 
L 128.107907 69.483313 
L 128.107907 65.180925 
L 128.411207 65.180925 
L 128.411207 63.746796 
L 128.709321 63.746796 
L 128.709321 62.312666 
L 129.147151 62.312666 
L 129.147151 60.878537 
L 129.574256 60.878537 
L 129.574256 59.444408 
L 129.714332 59.444408 
L 129.714332 58.010278 
L 129.853291 58.010278 
L 129.853291 56.576149 
L 130.398313 56.576149 
L 130.398313 55.14202 
L 130.796184 55.14202 
L 130.796184 53.707891 
L 131.185181 53.707891 
L 131.185181 52.273761 
L 136.831795 52.273761 
L 136.831795 50.839632 
L 137.289545 50.839632 
L 137.289545 49.405503 
L 138.426341 49.405503 
L 138.426341 47.971373 
L 139.172077 47.971373 
L 139.172077 46.537244 
L 139.333553 46.537244 
L 139.333553 19.288787 
L 139.8092 19.288787 
L 139.8092 17.854658 
L 140.272217 17.854658 
L 140.272217 16.420529 
L 140.723258 16.420529 
L 140.723258 14.9864 
L 141.162927 14.9864 
L 141.162927 13.55227 
L 141.307054 13.55227 
L 141.307054 12.118141 
L 141.80232 12.118141 
L 141.80232 10.684012 
L 142.010346 10.684012 
L 142.010346 9.249882 
L 142.215919 9.249882 
L 142.215919 7.815753 
L 142.351634 7.815753 
L 142.351634 6.381624 
L 338.688 6.381624 
L 338.688 6.381624 
" style="fill:none;stroke:#f5deb3;stroke-linecap:square;stroke-width:4;"/>
   </g>
   <g id="line2d_2">
    <defs>
     <path d="M -0 7.778175 
L 7.778175 0 
L 0 -7.778175 
L -7.778175 -0 
z
" id="me2a138dc46" style="stroke:#f5deb3;stroke-linejoin:miter;stroke-width:1.5;"/>
    </defs>
    <g>
     <use style="fill:#f5deb3;stroke:#f5deb3;stroke-linejoin:miter;stroke-width:1.5;" x="100.192776" xlink:href="#me2a138dc46" y="228.671665"/>
     <use style="fill:#f5deb3;stroke:#f5deb3;stroke-linejoin:miter;stroke-width:1.5;" x="124.368753" xlink:href="#me2a138dc46" y="115.37545"/>
     <use style="fill:#f5deb3;stroke:#f5deb3;stroke-linejoin:miter;stroke-width:1.5;" x="142.351634" xlink:href="#me2a138dc46" y="7.815753"/>
     <use style="fill:#f5deb3;stroke:#f5deb3;stroke-linejoin:miter;stroke-width:1.5;" x="142.351634" xlink:href="#me2a138dc46" y="6.381624"/>
     <use style="fill:#f5deb3;stroke:#f5deb3;stroke-linejoin:miter;stroke-width:1.5;" x="142.351634" xlink:href="#me2a138dc46" y="6.381624"/>
     <use style="fill:#f5deb3;stroke:#f5deb3;stroke-linejoin:miter;stroke-width:1.5;" x="338.688" xlink:href="#me2a138dc46" y="6.381624"/>
    </g>
   </g>
   <g id="line2d_3">
    <path style="fill:none;stroke:#f5deb3;stroke-linecap:square;stroke-width:4;"/>
    <g/>
   </g>
   <g id="line2d_4">
    <path d="M 338.688 6.381624 
L 369.60768 12.232871 
" style="fill:none;stroke:#f5deb3;stroke-linecap:square;stroke-width:4;"/>
    <g>
     <use style="fill:#f5deb3;stroke:#f5deb3;stroke-linejoin:miter;stroke-width:1.5;" x="338.688" xlink:href="#me2a138dc46" y="6.381624"/>
     <use style="fill:#f5deb3;stroke:#f5deb3;stroke-linejoin:miter;stroke-width:1.5;" x="369.60768" xlink:href="#me2a138dc46" y="12.232871"/>
    </g>
   </g>
   <g id="matplotlib.axis_1">
    <g id="xtick_1">
     <g id="line2d_5">
      <path clip-path="url(#p412e928738)" d="M 57.6 298.944 
L 57.6 3.456 
" style="fill:none;stroke:#b0b0b0;stroke-linecap:square;stroke-width:0.8;"/>
     </g>
     <g id="line2d_6">
      <defs>
       <path d="M 0 0 
L 0 3.5 
" id="m5f152bd262" style="stroke:#000000;stroke-width:0.8;"/>
      </defs>
      <g>
       <use style="stroke:#000000;stroke-width:0.8;" x="57.6" xlink:href="#m5f152bd262" y="298.944"/>
      </g>
     </g>
     <g id="text_1">
      <!-- 0 -->
      <g transform="translate(51.2375 321.140875)scale(0.2 -0.2)">
       <defs>
        <path d="M 31.78125 66.40625 
Q 24.171875 66.40625 20.328125 58.90625 
Q 16.5 51.421875 16.5 36.375 
Q 16.5 21.390625 20.328125 13.890625 
Q 24.171875 6.390625 31.78125 6.390625 
Q 39.453125 6.390625 43.28125 13.890625 
Q 47.125 21.390625 47.125 36.375 
Q 47.125 51.421875 43.28125 58.90625 
Q 39.453125 66.40625 31.78125 66.40625 
z
M 31.78125 74.21875 
Q 44.046875 74.21875 50.515625 64.515625 
Q 56.984375 54.828125 56.984375 36.375 
Q 56.984375 17.96875 50.515625 8.265625 
Q 44.046875 -1.421875 31.78125 -1.421875 
Q 19.53125 -1.421875 13.0625 8.265625 
Q 6.59375 17.96875 6.59375 36.375 
Q 6.59375 54.828125 13.0625 64.515625 
Q 19.53125 74.21875 31.78125 74.21875 
z
" id="DejaVuSans-48"/>
       </defs>
       <use xlink:href="#DejaVuSans-48"/>
      </g>
     </g>
    </g>
    <g id="xtick_2">
     <g id="line2d_7">
      <path clip-path="url(#p412e928738)" d="M 137.910857 298.944 
L 137.910857 3.456 
" style="fill:none;stroke:#b0b0b0;stroke-linecap:square;stroke-width:0.8;"/>
     </g>
     <g id="line2d_8">
      <g>
       <use style="stroke:#000000;stroke-width:0.8;" x="137.910857" xlink:href="#m5f152bd262" y="298.944"/>
      </g>
     </g>
     <g id="text_2">
      <!-- 2 -->
      <g transform="translate(131.548357 321.140875)scale(0.2 -0.2)">
       <defs>
        <path d="M 19.1875 8.296875 
L 53.609375 8.296875 
L 53.609375 0 
L 7.328125 0 
L 7.328125 8.296875 
Q 12.9375 14.109375 22.625 23.890625 
Q 32.328125 33.6875 34.8125 36.53125 
Q 39.546875 41.84375 41.421875 45.53125 
Q 43.3125 49.21875 43.3125 52.78125 
Q 43.3125 58.59375 39.234375 62.25 
Q 35.15625 65.921875 28.609375 65.921875 
Q 23.96875 65.921875 18.8125 64.3125 
Q 13.671875 62.703125 7.8125 59.421875 
L 7.8125 69.390625 
Q 13.765625 71.78125 18.9375 73 
Q 24.125 74.21875 28.421875 74.21875 
Q 39.75 74.21875 46.484375 68.546875 
Q 53.21875 62.890625 53.21875 53.421875 
Q 53.21875 48.921875 51.53125 44.890625 
Q 49.859375 40.875 45.40625 35.40625 
Q 44.1875 33.984375 37.640625 27.21875 
Q 31.109375 20.453125 19.1875 8.296875 
z
" id="DejaVuSans-50"/>
       </defs>
       <use xlink:href="#DejaVuSans-50"/>
      </g>
     </g>
    </g>
    <g id="xtick_3">
     <g id="line2d_9">
      <path clip-path="url(#p412e928738)" d="M 218.221714 298.944 
L 218.221714 3.456 
" style="fill:none;stroke:#b0b0b0;stroke-linecap:square;stroke-width:0.8;"/>
     </g>
     <g id="line2d_10">
      <g>
       <use style="stroke:#000000;stroke-width:0.8;" x="218.221714" xlink:href="#m5f152bd262" y="298.944"/>
      </g>
     </g>
     <g id="text_3">
      <!-- 4 -->
      <g transform="translate(211.859214 321.140875)scale(0.2 -0.2)">
       <defs>
        <path d="M 37.796875 64.3125 
L 12.890625 25.390625 
L 37.796875 25.390625 
z
M 35.203125 72.90625 
L 47.609375 72.90625 
L 47.609375 25.390625 
L 58.015625 25.390625 
L 58.015625 17.1875 
L 47.609375 17.1875 
L 47.609375 0 
L 37.796875 0 
L 37.796875 17.1875 
L 4.890625 17.1875 
L 4.890625 26.703125 
z
" id="DejaVuSans-52"/>
       </defs>
       <use xlink:href="#DejaVuSans-52"/>
      </g>
     </g>
    </g>
    <g id="xtick_4">
     <g id="line2d_11">
      <path clip-path="url(#p412e928738)" d="M 298.532571 298.944 
L 298.532571 3.456 
" style="fill:none;stroke:#b0b0b0;stroke-linecap:square;stroke-width:0.8;"/>
     </g>
     <g id="line2d_12">
      <g>
       <use style="stroke:#000000;stroke-width:0.8;" x="298.532571" xlink:href="#m5f152bd262" y="298.944"/>
      </g>
     </g>
     <g id="text_4">
      <!-- 6 -->
      <g transform="translate(292.170071 321.140875)scale(0.2 -0.2)">
       <defs>
        <path d="M 33.015625 40.375 
Q 26.375 40.375 22.484375 35.828125 
Q 18.609375 31.296875 18.609375 23.390625 
Q 18.609375 15.53125 22.484375 10.953125 
Q 26.375 6.390625 33.015625 6.390625 
Q 39.65625 6.390625 43.53125 10.953125 
Q 47.40625 15.53125 47.40625 23.390625 
Q 47.40625 31.296875 43.53125 35.828125 
Q 39.65625 40.375 33.015625 40.375 
z
M 52.59375 71.296875 
L 52.59375 62.3125 
Q 48.875 64.0625 45.09375 64.984375 
Q 41.3125 65.921875 37.59375 65.921875 
Q 27.828125 65.921875 22.671875 59.328125 
Q 17.53125 52.734375 16.796875 39.40625 
Q 19.671875 43.65625 24.015625 45.921875 
Q 28.375 48.1875 33.59375 48.1875 
Q 44.578125 48.1875 50.953125 41.515625 
Q 57.328125 34.859375 57.328125 23.390625 
Q 57.328125 12.15625 50.6875 5.359375 
Q 44.046875 -1.421875 33.015625 -1.421875 
Q 20.359375 -1.421875 13.671875 8.265625 
Q 6.984375 17.96875 6.984375 36.375 
Q 6.984375 53.65625 15.1875 63.9375 
Q 23.390625 74.21875 37.203125 74.21875 
Q 40.921875 74.21875 44.703125 73.484375 
Q 48.484375 72.75 52.59375 71.296875 
z
" id="DejaVuSans-54"/>
       </defs>
       <use xlink:href="#DejaVuSans-54"/>
      </g>
     </g>
    </g>
    <g id="xtick_5">
     <g id="line2d_13">
      <path clip-path="url(#p412e928738)" d="M 97.755429 298.944 
L 97.755429 3.456 
" style="fill:none;stroke:#b0b0b0;stroke-linecap:square;stroke-width:0.8;"/>
     </g>
     <g id="line2d_14">
      <defs>
       <path d="M 0 0 
L 0 2 
" id="m9f14a04ba4" style="stroke:#000000;stroke-width:0.6;"/>
      </defs>
      <g>
       <use style="stroke:#000000;stroke-width:0.6;" x="97.755429" xlink:href="#m9f14a04ba4" y="298.944"/>
      </g>
     </g>
    </g>
    <g id="xtick_6">
     <g id="line2d_15">
      <path clip-path="url(#p412e928738)" d="M 178.066286 298.944 
L 178.066286 3.456 
" style="fill:none;stroke:#b0b0b0;stroke-linecap:square;stroke-width:0.8;"/>
     </g>
     <g id="line2d_16">
      <g>
       <use style="stroke:#000000;stroke-width:0.6;" x="178.066286" xlink:href="#m9f14a04ba4" y="298.944"/>
      </g>
     </g>
    </g>
    <g id="xtick_7">
     <g id="line2d_17">
      <path clip-path="url(#p412e928738)" d="M 258.377143 298.944 
L 258.377143 3.456 
" style="fill:none;stroke:#b0b0b0;stroke-linecap:square;stroke-width:0.8;"/>
     </g>
     <g id="line2d_18">
      <g>
       <use style="stroke:#000000;stroke-width:0.6;" x="258.377143" xlink:href="#m9f14a04ba4" y="298.944"/>
      </g>
     </g>
    </g>
    <g id="xtick_8">
     <g id="line2d_19">
      <path clip-path="url(#p412e928738)" d="M 338.688 298.944 
L 338.688 3.456 
" style="fill:none;stroke:#b0b0b0;stroke-linecap:square;stroke-width:0.8;"/>
     </g>
     <g id="line2d_20">
      <g>
       <use style="stroke:#000000;stroke-width:0.6;" x="338.688" xlink:href="#m9f14a04ba4" y="298.944"/>
      </g>
     </g>
    </g>
    <g id="text_5">
     <!-- log10(# f-evals / dimension) -->
     <g transform="translate(77.764078 342.217594)scale(0.17 -0.17)">
      <defs>
       <path d="M 9.421875 75.984375 
L 18.40625 75.984375 
L 18.40625 0 
L 9.421875 0 
z
" id="DejaVuSans-108"/>
       <path d="M 30.609375 48.390625 
Q 23.390625 48.390625 19.1875 42.75 
Q 14.984375 37.109375 14.984375 27.296875 
Q 14.984375 17.484375 19.15625 11.84375 
Q 23.34375 6.203125 30.609375 6.203125 
Q 37.796875 6.203125 41.984375 11.859375 
Q 46.1875 17.53125 46.1875 27.296875 
Q 46.1875 37.015625 41.984375 42.703125 
Q 37.796875 48.390625 30.609375 48.390625 
z
M 30.609375 56 
Q 42.328125 56 49.015625 48.375 
Q 55.71875 40.765625 55.71875 27.296875 
Q 55.71875 13.875 49.015625 6.21875 
Q 42.328125 -1.421875 30.609375 -1.421875 
Q 18.84375 -1.421875 12.171875 6.21875 
Q 5.515625 13.875 5.515625 27.296875 
Q 5.515625 40.765625 12.171875 48.375 
Q 18.84375 56 30.609375 56 
z
" id="DejaVuSans-111"/>
       <path d="M 45.40625 27.984375 
Q 45.40625 37.75 41.375 43.109375 
Q 37.359375 48.484375 30.078125 48.484375 
Q 22.859375 48.484375 18.828125 43.109375 
Q 14.796875 37.75 14.796875 27.984375 
Q 14.796875 18.265625 18.828125 12.890625 
Q 22.859375 7.515625 30.078125 7.515625 
Q 37.359375 7.515625 41.375 12.890625 
Q 45.40625 18.265625 45.40625 27.984375 
z
M 54.390625 6.78125 
Q 54.390625 -7.171875 48.1875 -13.984375 
Q 42 -20.796875 29.203125 -20.796875 
Q 24.46875 -20.796875 20.265625 -20.09375 
Q 16.0625 -19.390625 12.109375 -17.921875 
L 12.109375 -9.1875 
Q 16.0625 -11.328125 19.921875 -12.34375 
Q 23.78125 -13.375 27.78125 -13.375 
Q 36.625 -13.375 41.015625 -8.765625 
Q 45.40625 -4.15625 45.40625 5.171875 
L 45.40625 9.625 
Q 42.625 4.78125 38.28125 2.390625 
Q 33.9375 0 27.875 0 
Q 17.828125 0 11.671875 7.65625 
Q 5.515625 15.328125 5.515625 27.984375 
Q 5.515625 40.671875 11.671875 48.328125 
Q 17.828125 56 27.875 56 
Q 33.9375 56 38.28125 53.609375 
Q 42.625 51.21875 45.40625 46.390625 
L 45.40625 54.6875 
L 54.390625 54.6875 
z
" id="DejaVuSans-103"/>
       <path d="M 12.40625 8.296875 
L 28.515625 8.296875 
L 28.515625 63.921875 
L 10.984375 60.40625 
L 10.984375 69.390625 
L 28.421875 72.90625 
L 38.28125 72.90625 
L 38.28125 8.296875 
L 54.390625 8.296875 
L 54.390625 0 
L 12.40625 0 
z
" id="DejaVuSans-49"/>
       <path d="M 31 75.875 
Q 24.46875 64.65625 21.28125 53.65625 
Q 18.109375 42.671875 18.109375 31.390625 
Q 18.109375 20.125 21.3125 9.0625 
Q 24.515625 -2 31 -13.1875 
L 23.1875 -13.1875 
Q 15.875 -1.703125 12.234375 9.375 
Q 8.59375 20.453125 8.59375 31.390625 
Q 8.59375 42.28125 12.203125 53.3125 
Q 15.828125 64.359375 23.1875 75.875 
z
" id="DejaVuSans-40"/>
       <path d="M 51.125 44 
L 36.921875 44 
L 32.8125 27.6875 
L 47.125 27.6875 
z
M 43.796875 71.78125 
L 38.71875 51.515625 
L 52.984375 51.515625 
L 58.109375 71.78125 
L 65.921875 71.78125 
L 60.890625 51.515625 
L 76.125 51.515625 
L 76.125 44 
L 58.984375 44 
L 54.984375 27.6875 
L 70.515625 27.6875 
L 70.515625 20.21875 
L 53.078125 20.21875 
L 48 0 
L 40.1875 0 
L 45.21875 20.21875 
L 30.90625 20.21875 
L 25.875 0 
L 18.015625 0 
L 23.09375 20.21875 
L 7.71875 20.21875 
L 7.71875 27.6875 
L 24.90625 27.6875 
L 29 44 
L 13.28125 44 
L 13.28125 51.515625 
L 30.90625 51.515625 
L 35.890625 71.78125 
z
" id="DejaVuSans-35"/>
       <path id="DejaVuSans-32"/>
       <path d="M 37.109375 75.984375 
L 37.109375 68.5 
L 28.515625 68.5 
Q 23.6875 68.5 21.796875 66.546875 
Q 19.921875 64.59375 19.921875 59.515625 
L 19.921875 54.6875 
L 34.71875 54.6875 
L 34.71875 47.703125 
L 19.921875 47.703125 
L 19.921875 0 
L 10.890625 0 
L 10.890625 47.703125 
L 2.296875 47.703125 
L 2.296875 54.6875 
L 10.890625 54.6875 
L 10.890625 58.5 
Q 10.890625 67.625 15.140625 71.796875 
Q 19.390625 75.984375 28.609375 75.984375 
z
" id="DejaVuSans-102"/>
       <path d="M 4.890625 31.390625 
L 31.203125 31.390625 
L 31.203125 23.390625 
L 4.890625 23.390625 
z
" id="DejaVuSans-45"/>
       <path d="M 56.203125 29.59375 
L 56.203125 25.203125 
L 14.890625 25.203125 
Q 15.484375 15.921875 20.484375 11.0625 
Q 25.484375 6.203125 34.421875 6.203125 
Q 39.59375 6.203125 44.453125 7.46875 
Q 49.3125 8.734375 54.109375 11.28125 
L 54.109375 2.78125 
Q 49.265625 0.734375 44.1875 -0.34375 
Q 39.109375 -1.421875 33.890625 -1.421875 
Q 20.796875 -1.421875 13.15625 6.1875 
Q 5.515625 13.8125 5.515625 26.8125 
Q 5.515625 40.234375 12.765625 48.109375 
Q 20.015625 56 32.328125 56 
Q 43.359375 56 49.78125 48.890625 
Q 56.203125 41.796875 56.203125 29.59375 
z
M 47.21875 32.234375 
Q 47.125 39.59375 43.09375 43.984375 
Q 39.0625 48.390625 32.421875 48.390625 
Q 24.90625 48.390625 20.390625 44.140625 
Q 15.875 39.890625 15.1875 32.171875 
z
" id="DejaVuSans-101"/>
       <path d="M 2.984375 54.6875 
L 12.5 54.6875 
L 29.59375 8.796875 
L 46.6875 54.6875 
L 56.203125 54.6875 
L 35.6875 0 
L 23.484375 0 
z
" id="DejaVuSans-118"/>
       <path d="M 34.28125 27.484375 
Q 23.390625 27.484375 19.1875 25 
Q 14.984375 22.515625 14.984375 16.5 
Q 14.984375 11.71875 18.140625 8.90625 
Q 21.296875 6.109375 26.703125 6.109375 
Q 34.1875 6.109375 38.703125 11.40625 
Q 43.21875 16.703125 43.21875 25.484375 
L 43.21875 27.484375 
z
M 52.203125 31.203125 
L 52.203125 0 
L 43.21875 0 
L 43.21875 8.296875 
Q 40.140625 3.328125 35.546875 0.953125 
Q 30.953125 -1.421875 24.3125 -1.421875 
Q 15.921875 -1.421875 10.953125 3.296875 
Q 6 8.015625 6 15.921875 
Q 6 25.140625 12.171875 29.828125 
Q 18.359375 34.515625 30.609375 34.515625 
L 43.21875 34.515625 
L 43.21875 35.40625 
Q 43.21875 41.609375 39.140625 45 
Q 35.0625 48.390625 27.6875 48.390625 
Q 23 48.390625 18.546875 47.265625 
Q 14.109375 46.140625 10.015625 43.890625 
L 10.015625 52.203125 
Q 14.9375 54.109375 19.578125 55.046875 
Q 24.21875 56 28.609375 56 
Q 40.484375 56 46.34375 49.84375 
Q 52.203125 43.703125 52.203125 31.203125 
z
" id="DejaVuSans-97"/>
       <path d="M 44.28125 53.078125 
L 44.28125 44.578125 
Q 40.484375 46.53125 36.375 47.5 
Q 32.28125 48.484375 27.875 48.484375 
Q 21.1875 48.484375 17.84375 46.4375 
Q 14.5 44.390625 14.5 40.28125 
Q 14.5 37.15625 16.890625 35.375 
Q 19.28125 33.59375 26.515625 31.984375 
L 29.59375 31.296875 
Q 39.15625 29.25 43.1875 25.515625 
Q 47.21875 21.78125 47.21875 15.09375 
Q 47.21875 7.46875 41.1875 3.015625 
Q 35.15625 -1.421875 24.609375 -1.421875 
Q 20.21875 -1.421875 15.453125 -0.5625 
Q 10.6875 0.296875 5.421875 2 
L 5.421875 11.28125 
Q 10.40625 8.6875 15.234375 7.390625 
Q 20.0625 6.109375 24.8125 6.109375 
Q 31.15625 6.109375 34.5625 8.28125 
Q 37.984375 10.453125 37.984375 14.40625 
Q 37.984375 18.0625 35.515625 20.015625 
Q 33.0625 21.96875 24.703125 23.78125 
L 21.578125 24.515625 
Q 13.234375 26.265625 9.515625 29.90625 
Q 5.8125 33.546875 5.8125 39.890625 
Q 5.8125 47.609375 11.28125 51.796875 
Q 16.75 56 26.8125 56 
Q 31.78125 56 36.171875 55.265625 
Q 40.578125 54.546875 44.28125 53.078125 
z
" id="DejaVuSans-115"/>
       <path d="M 25.390625 72.90625 
L 33.6875 72.90625 
L 8.296875 -9.28125 
L 0 -9.28125 
z
" id="DejaVuSans-47"/>
       <path d="M 45.40625 46.390625 
L 45.40625 75.984375 
L 54.390625 75.984375 
L 54.390625 0 
L 45.40625 0 
L 45.40625 8.203125 
Q 42.578125 3.328125 38.25 0.953125 
Q 33.9375 -1.421875 27.875 -1.421875 
Q 17.96875 -1.421875 11.734375 6.484375 
Q 5.515625 14.40625 5.515625 27.296875 
Q 5.515625 40.1875 11.734375 48.09375 
Q 17.96875 56 27.875 56 
Q 33.9375 56 38.25 53.625 
Q 42.578125 51.265625 45.40625 46.390625 
z
M 14.796875 27.296875 
Q 14.796875 17.390625 18.875 11.75 
Q 22.953125 6.109375 30.078125 6.109375 
Q 37.203125 6.109375 41.296875 11.75 
Q 45.40625 17.390625 45.40625 27.296875 
Q 45.40625 37.203125 41.296875 42.84375 
Q 37.203125 48.484375 30.078125 48.484375 
Q 22.953125 48.484375 18.875 42.84375 
Q 14.796875 37.203125 14.796875 27.296875 
z
" id="DejaVuSans-100"/>
       <path d="M 9.421875 54.6875 
L 18.40625 54.6875 
L 18.40625 0 
L 9.421875 0 
z
M 9.421875 75.984375 
L 18.40625 75.984375 
L 18.40625 64.59375 
L 9.421875 64.59375 
z
" id="DejaVuSans-105"/>
       <path d="M 52 44.1875 
Q 55.375 50.25 60.0625 53.125 
Q 64.75 56 71.09375 56 
Q 79.640625 56 84.28125 50.015625 
Q 88.921875 44.046875 88.921875 33.015625 
L 88.921875 0 
L 79.890625 0 
L 79.890625 32.71875 
Q 79.890625 40.578125 77.09375 44.375 
Q 74.3125 48.1875 68.609375 48.1875 
Q 61.625 48.1875 57.5625 43.546875 
Q 53.515625 38.921875 53.515625 30.90625 
L 53.515625 0 
L 44.484375 0 
L 44.484375 32.71875 
Q 44.484375 40.625 41.703125 44.40625 
Q 38.921875 48.1875 33.109375 48.1875 
Q 26.21875 48.1875 22.15625 43.53125 
Q 18.109375 38.875 18.109375 30.90625 
L 18.109375 0 
L 9.078125 0 
L 9.078125 54.6875 
L 18.109375 54.6875 
L 18.109375 46.1875 
Q 21.1875 51.21875 25.484375 53.609375 
Q 29.78125 56 35.6875 56 
Q 41.65625 56 45.828125 52.96875 
Q 50 49.953125 52 44.1875 
z
" id="DejaVuSans-109"/>
       <path d="M 54.890625 33.015625 
L 54.890625 0 
L 45.90625 0 
L 45.90625 32.71875 
Q 45.90625 40.484375 42.875 44.328125 
Q 39.84375 48.1875 33.796875 48.1875 
Q 26.515625 48.1875 22.3125 43.546875 
Q 18.109375 38.921875 18.109375 30.90625 
L 18.109375 0 
L 9.078125 0 
L 9.078125 54.6875 
L 18.109375 54.6875 
L 18.109375 46.1875 
Q 21.34375 51.125 25.703125 53.5625 
Q 30.078125 56 35.796875 56 
Q 45.21875 56 50.046875 50.171875 
Q 54.890625 44.34375 54.890625 33.015625 
z
" id="DejaVuSans-110"/>
       <path d="M 8.015625 75.875 
L 15.828125 75.875 
Q 23.140625 64.359375 26.78125 53.3125 
Q 30.421875 42.28125 30.421875 31.390625 
Q 30.421875 20.453125 26.78125 9.375 
Q 23.140625 -1.703125 15.828125 -13.1875 
L 8.015625 -13.1875 
Q 14.5 -2 17.703125 9.0625 
Q 20.90625 20.125 20.90625 31.390625 
Q 20.90625 42.671875 17.703125 53.65625 
Q 14.5 64.65625 8.015625 75.875 
z
" id="DejaVuSans-41"/>
      </defs>
      <use xlink:href="#DejaVuSans-108"/>
      <use x="27.783203" xlink:href="#DejaVuSans-111"/>
      <use x="88.964844" xlink:href="#DejaVuSans-103"/>
      <use x="152.441406" xlink:href="#DejaVuSans-49"/>
      <use x="216.064453" xlink:href="#DejaVuSans-48"/>
      <use x="279.6875" xlink:href="#DejaVuSans-40"/>
      <use x="318.701172" xlink:href="#DejaVuSans-35"/>
      <use x="402.490234" xlink:href="#DejaVuSans-32"/>
      <use x="434.277344" xlink:href="#DejaVuSans-102"/>
      <use x="463.982422" xlink:href="#DejaVuSans-45"/>
      <use x="500.066406" xlink:href="#DejaVuSans-101"/>
      <use x="561.589844" xlink:href="#DejaVuSans-118"/>
      <use x="620.769531" xlink:href="#DejaVuSans-97"/>
      <use x="682.048828" xlink:href="#DejaVuSans-108"/>
      <use x="709.832031" xlink:href="#DejaVuSans-115"/>
      <use x="761.931641" xlink:href="#DejaVuSans-32"/>
      <use x="793.71875" xlink:href="#DejaVuSans-47"/>
      <use x="827.410156" xlink:href="#DejaVuSans-32"/>
      <use x="859.197266" xlink:href="#DejaVuSans-100"/>
      <use x="922.673828" xlink:href="#DejaVuSans-105"/>
      <use x="950.457031" xlink:href="#DejaVuSans-109"/>
      <use x="1047.869141" xlink:href="#DejaVuSans-101"/>
      <use x="1109.392578" xlink:href="#DejaVuSans-110"/>
      <use x="1172.771484" xlink:href="#DejaVuSans-115"/>
      <use x="1224.871094" xlink:href="#DejaVuSans-105"/>
      <use x="1252.654297" xlink:href="#DejaVuSans-111"/>
      <use x="1313.835938" xlink:href="#DejaVuSans-110"/>
      <use x="1377.214844" xlink:href="#DejaVuSans-41"/>
     </g>
    </g>
   </g>
   <g id="matplotlib.axis_2">
    <g id="ytick_1">
     <g id="line2d_21">
      <path clip-path="url(#p412e928738)" d="M 57.6 298.944 
L 338.688 298.944 
" style="fill:none;stroke:#b0b0b0;stroke-linecap:square;stroke-width:0.8;"/>
     </g>
     <g id="line2d_22">
      <defs>
       <path d="M 0 0 
L -3.5 0 
" id="mdf8acbb9f4" style="stroke:#000000;stroke-width:0.8;"/>
      </defs>
      <g>
       <use style="stroke:#000000;stroke-width:0.8;" x="57.6" xlink:href="#mdf8acbb9f4" y="298.944"/>
      </g>
     </g>
     <g id="text_6">
      <!-- 0.0 -->
      <g transform="translate(25.155 305.02275)scale(0.16 -0.16)">
       <defs>
        <path d="M 10.6875 12.40625 
L 21 12.40625 
L 21 0 
L 10.6875 0 
z
" id="DejaVuSans-46"/>
       </defs>
       <use xlink:href="#DejaVuSans-48"/>
       <use x="63.623047" xlink:href="#DejaVuSans-46"/>
       <use x="95.410156" xlink:href="#DejaVuSans-48"/>
      </g>
     </g>
    </g>
    <g id="ytick_2">
     <g id="line2d_23">
      <path clip-path="url(#p412e928738)" d="M 57.6 240.431525 
L 338.688 240.431525 
" style="fill:none;stroke:#b0b0b0;stroke-linecap:square;stroke-width:0.8;"/>
     </g>
     <g id="line2d_24">
      <g>
       <use style="stroke:#000000;stroke-width:0.8;" x="57.6" xlink:href="#mdf8acbb9f4" y="240.431525"/>
      </g>
     </g>
     <g id="text_7">
      <!-- 0.2 -->
      <g transform="translate(25.155 246.510275)scale(0.16 -0.16)">
       <use xlink:href="#DejaVuSans-48"/>
       <use x="63.623047" xlink:href="#DejaVuSans-46"/>
       <use x="95.410156" xlink:href="#DejaVuSans-50"/>
      </g>
     </g>
    </g>
    <g id="ytick_3">
     <g id="line2d_25">
      <path clip-path="url(#p412e928738)" d="M 57.6 181.91905 
L 338.688 181.91905 
" style="fill:none;stroke:#b0b0b0;stroke-linecap:square;stroke-width:0.8;"/>
     </g>
     <g id="line2d_26">
      <g>
       <use style="stroke:#000000;stroke-width:0.8;" x="57.6" xlink:href="#mdf8acbb9f4" y="181.91905"/>
      </g>
     </g>
     <g id="text_8">
      <!-- 0.4 -->
      <g transform="translate(25.155 187.9978)scale(0.16 -0.16)">
       <use xlink:href="#DejaVuSans-48"/>
       <use x="63.623047" xlink:href="#DejaVuSans-46"/>
       <use x="95.410156" xlink:href="#DejaVuSans-52"/>
      </g>
     </g>
    </g>
    <g id="ytick_4">
     <g id="line2d_27">
      <path clip-path="url(#p412e928738)" d="M 57.6 123.406574 
L 338.688 123.406574 
" style="fill:none;stroke:#b0b0b0;stroke-linecap:square;stroke-width:0.8;"/>
     </g>
     <g id="line2d_28">
      <g>
       <use style="stroke:#000000;stroke-width:0.8;" x="57.6" xlink:href="#mdf8acbb9f4" y="123.406574"/>
      </g>
     </g>
     <g id="text_9">
      <!-- 0.6 -->
      <g transform="translate(25.155 129.485324)scale(0.16 -0.16)">
       <use xlink:href="#DejaVuSans-48"/>
       <use x="63.623047" xlink:href="#DejaVuSans-46"/>
       <use x="95.410156" xlink:href="#DejaVuSans-54"/>
      </g>
     </g>
    </g>
    <g id="ytick_5">
     <g id="line2d_29">
      <path clip-path="url(#p412e928738)" d="M 57.6 64.894099 
L 338.688 64.894099 
" style="fill:none;stroke:#b0b0b0;stroke-linecap:square;stroke-width:0.8;"/>
     </g>
     <g id="line2d_30">
      <g>
       <use style="stroke:#000000;stroke-width:0.8;" x="57.6" xlink:href="#mdf8acbb9f4" y="64.894099"/>
      </g>
     </g>
     <g id="text_10">
      <!-- 0.8 -->
      <g transform="translate(25.155 70.972849)scale(0.16 -0.16)">
       <defs>
        <path d="M 31.78125 34.625 
Q 24.75 34.625 20.71875 30.859375 
Q 16.703125 27.09375 16.703125 20.515625 
Q 16.703125 13.921875 20.71875 10.15625 
Q 24.75 6.390625 31.78125 6.390625 
Q 38.8125 6.390625 42.859375 10.171875 
Q 46.921875 13.96875 46.921875 20.515625 
Q 46.921875 27.09375 42.890625 30.859375 
Q 38.875 34.625 31.78125 34.625 
z
M 21.921875 38.8125 
Q 15.578125 40.375 12.03125 44.71875 
Q 8.5 49.078125 8.5 55.328125 
Q 8.5 64.0625 14.71875 69.140625 
Q 20.953125 74.21875 31.78125 74.21875 
Q 42.671875 74.21875 48.875 69.140625 
Q 55.078125 64.0625 55.078125 55.328125 
Q 55.078125 49.078125 51.53125 44.71875 
Q 48 40.375 41.703125 38.8125 
Q 48.828125 37.15625 52.796875 32.3125 
Q 56.78125 27.484375 56.78125 20.515625 
Q 56.78125 9.90625 50.3125 4.234375 
Q 43.84375 -1.421875 31.78125 -1.421875 
Q 19.734375 -1.421875 13.25 4.234375 
Q 6.78125 9.90625 6.78125 20.515625 
Q 6.78125 27.484375 10.78125 32.3125 
Q 14.796875 37.15625 21.921875 38.8125 
z
M 18.3125 54.390625 
Q 18.3125 48.734375 21.84375 45.5625 
Q 25.390625 42.390625 31.78125 42.390625 
Q 38.140625 42.390625 41.71875 45.5625 
Q 45.3125 48.734375 45.3125 54.390625 
Q 45.3125 60.0625 41.71875 63.234375 
Q 38.140625 66.40625 31.78125 66.40625 
Q 25.390625 66.40625 21.84375 63.234375 
Q 18.3125 60.0625 18.3125 54.390625 
z
" id="DejaVuSans-56"/>
       </defs>
       <use xlink:href="#DejaVuSans-48"/>
       <use x="63.623047" xlink:href="#DejaVuSans-46"/>
       <use x="95.410156" xlink:href="#DejaVuSans-56"/>
      </g>
     </g>
    </g>
    <g id="ytick_6">
     <g id="line2d_31">
      <path clip-path="url(#p412e928738)" d="M 57.6 6.381624 
L 338.688 6.381624 
" style="fill:none;stroke:#b0b0b0;stroke-linecap:square;stroke-width:0.8;"/>
     </g>
     <g id="line2d_32">
      <g>
       <use style="stroke:#000000;stroke-width:0.8;" x="57.6" xlink:href="#mdf8acbb9f4" y="6.381624"/>
      </g>
     </g>
     <g id="text_11">
      <!-- 1.0 -->
      <g transform="translate(25.155 12.460374)scale(0.16 -0.16)">
       <use xlink:href="#DejaVuSans-49"/>
       <use x="63.623047" xlink:href="#DejaVuSans-46"/>
       <use x="95.410156" xlink:href="#DejaVuSans-48"/>
      </g>
     </g>
    </g>
    <g id="text_12">
     <!-- Fraction of function,target pairs -->
     <g transform="translate(17.619531 285.585)rotate(-90)scale(0.17 -0.17)">
      <defs>
       <path d="M 9.8125 72.90625 
L 51.703125 72.90625 
L 51.703125 64.59375 
L 19.671875 64.59375 
L 19.671875 43.109375 
L 48.578125 43.109375 
L 48.578125 34.8125 
L 19.671875 34.8125 
L 19.671875 0 
L 9.8125 0 
z
" id="DejaVuSans-70"/>
       <path d="M 41.109375 46.296875 
Q 39.59375 47.171875 37.8125 47.578125 
Q 36.03125 48 33.890625 48 
Q 26.265625 48 22.1875 43.046875 
Q 18.109375 38.09375 18.109375 28.8125 
L 18.109375 0 
L 9.078125 0 
L 9.078125 54.6875 
L 18.109375 54.6875 
L 18.109375 46.1875 
Q 20.953125 51.171875 25.484375 53.578125 
Q 30.03125 56 36.53125 56 
Q 37.453125 56 38.578125 55.875 
Q 39.703125 55.765625 41.0625 55.515625 
z
" id="DejaVuSans-114"/>
       <path d="M 48.78125 52.59375 
L 48.78125 44.1875 
Q 44.96875 46.296875 41.140625 47.34375 
Q 37.3125 48.390625 33.40625 48.390625 
Q 24.65625 48.390625 19.8125 42.84375 
Q 14.984375 37.3125 14.984375 27.296875 
Q 14.984375 17.28125 19.8125 11.734375 
Q 24.65625 6.203125 33.40625 6.203125 
Q 37.3125 6.203125 41.140625 7.25 
Q 44.96875 8.296875 48.78125 10.40625 
L 48.78125 2.09375 
Q 45.015625 0.34375 40.984375 -0.53125 
Q 36.96875 -1.421875 32.421875 -1.421875 
Q 20.0625 -1.421875 12.78125 6.34375 
Q 5.515625 14.109375 5.515625 27.296875 
Q 5.515625 40.671875 12.859375 48.328125 
Q 20.21875 56 33.015625 56 
Q 37.15625 56 41.109375 55.140625 
Q 45.0625 54.296875 48.78125 52.59375 
z
" id="DejaVuSans-99"/>
       <path d="M 18.3125 70.21875 
L 18.3125 54.6875 
L 36.8125 54.6875 
L 36.8125 47.703125 
L 18.3125 47.703125 
L 18.3125 18.015625 
Q 18.3125 11.328125 20.140625 9.421875 
Q 21.96875 7.515625 27.59375 7.515625 
L 36.8125 7.515625 
L 36.8125 0 
L 27.59375 0 
Q 17.1875 0 13.234375 3.875 
Q 9.28125 7.765625 9.28125 18.015625 
L 9.28125 47.703125 
L 2.6875 47.703125 
L 2.6875 54.6875 
L 9.28125 54.6875 
L 9.28125 70.21875 
z
" id="DejaVuSans-116"/>
       <path d="M 8.5 21.578125 
L 8.5 54.6875 
L 17.484375 54.6875 
L 17.484375 21.921875 
Q 17.484375 14.15625 20.5 10.265625 
Q 23.53125 6.390625 29.59375 6.390625 
Q 36.859375 6.390625 41.078125 11.03125 
Q 45.3125 15.671875 45.3125 23.6875 
L 45.3125 54.6875 
L 54.296875 54.6875 
L 54.296875 0 
L 45.3125 0 
L 45.3125 8.40625 
Q 42.046875 3.421875 37.71875 1 
Q 33.40625 -1.421875 27.6875 -1.421875 
Q 18.265625 -1.421875 13.375 4.4375 
Q 8.5 10.296875 8.5 21.578125 
z
M 31.109375 56 
z
" id="DejaVuSans-117"/>
       <path d="M 11.71875 12.40625 
L 22.015625 12.40625 
L 22.015625 4 
L 14.015625 -11.625 
L 7.71875 -11.625 
L 11.71875 4 
z
" id="DejaVuSans-44"/>
       <path d="M 18.109375 8.203125 
L 18.109375 -20.796875 
L 9.078125 -20.796875 
L 9.078125 54.6875 
L 18.109375 54.6875 
L 18.109375 46.390625 
Q 20.953125 51.265625 25.265625 53.625 
Q 29.59375 56 35.59375 56 
Q 45.5625 56 51.78125 48.09375 
Q 58.015625 40.1875 58.015625 27.296875 
Q 58.015625 14.40625 51.78125 6.484375 
Q 45.5625 -1.421875 35.59375 -1.421875 
Q 29.59375 -1.421875 25.265625 0.953125 
Q 20.953125 3.328125 18.109375 8.203125 
z
M 48.6875 27.296875 
Q 48.6875 37.203125 44.609375 42.84375 
Q 40.53125 48.484375 33.40625 48.484375 
Q 26.265625 48.484375 22.1875 42.84375 
Q 18.109375 37.203125 18.109375 27.296875 
Q 18.109375 17.390625 22.1875 11.75 
Q 26.265625 6.109375 33.40625 6.109375 
Q 40.53125 6.109375 44.609375 11.75 
Q 48.6875 17.390625 48.6875 27.296875 
z
" id="DejaVuSans-112"/>
      </defs>
      <use xlink:href="#DejaVuSans-70"/>
      <use x="50.269531" xlink:href="#DejaVuSans-114"/>
      <use x="91.382812" xlink:href="#DejaVuSans-97"/>
      <use x="152.662109" xlink:href="#DejaVuSans-99"/>
      <use x="207.642578" xlink:href="#DejaVuSans-116"/>
      <use x="246.851562" xlink:href="#DejaVuSans-105"/>
      <use x="274.634766" xlink:href="#DejaVuSans-111"/>
      <use x="335.816406" xlink:href="#DejaVuSans-110"/>
      <use x="399.195312" xlink:href="#DejaVuSans-32"/>
      <use x="430.982422" xlink:href="#DejaVuSans-111"/>
      <use x="492.164062" xlink:href="#DejaVuSans-102"/>
      <use x="527.369141" xlink:href="#DejaVuSans-32"/>
      <use x="559.15625" xlink:href="#DejaVuSans-102"/>
      <use x="594.361328" xlink:href="#DejaVuSans-117"/>
      <use x="657.740234" xlink:href="#DejaVuSans-110"/>
      <use x="721.119141" xlink:href="#DejaVuSans-99"/>
      <use x="776.099609" xlink:href="#DejaVuSans-116"/>
      <use x="815.308594" xlink:href="#DejaVuSans-105"/>
      <use x="843.091797" xlink:href="#DejaVuSans-111"/>
      <use x="904.273438" xlink:href="#DejaVuSans-110"/>
      <use x="967.652344" xlink:href="#DejaVuSans-44"/>
      <use x="999.439453" xlink:href="#DejaVuSans-116"/>
      <use x="1038.648438" xlink:href="#DejaVuSans-97"/>
      <use x="1099.927734" xlink:href="#DejaVuSans-114"/>
      <use x="1139.291016" xlink:href="#DejaVuSans-103"/>
      <use x="1202.767578" xlink:href="#DejaVuSans-101"/>
      <use x="1264.291016" xlink:href="#DejaVuSans-116"/>
      <use x="1303.5" xlink:href="#DejaVuSans-32"/>
      <use x="1335.287109" xlink:href="#DejaVuSans-112"/>
      <use x="1398.763672" xlink:href="#DejaVuSans-97"/>
      <use x="1460.042969" xlink:href="#DejaVuSans-105"/>
      <use x="1487.826172" xlink:href="#DejaVuSans-114"/>
      <use x="1528.939453" xlink:href="#DejaVuSans-115"/>
     </g>
    </g>
   </g>
   <g id="line2d_33">
    <defs>
     <path d="M 0 1.5 
C 0.397805 1.5 0.77937 1.341951 1.06066 1.06066 
C 1.341951 0.77937 1.5 0.397805 1.5 0 
C 1.5 -0.397805 1.341951 -0.77937 1.06066 -1.06066 
C 0.77937 -1.341951 0.397805 -1.5 0 -1.5 
C -0.397805 -1.5 -0.77937 -1.341951 -1.06066 -1.06066 
C -1.341951 -0.77937 -1.5 -0.397805 -1.5 0 
C -1.5 0.397805 -1.341951 0.77937 -1.06066 1.06066 
C -0.77937 1.341951 -0.397805 1.5 0 1.5 
z
" id="m3dcf14e3d5" style="stroke:#f5deb3;"/>
    </defs>
    <g>
     <use style="fill:#f5deb3;stroke:#f5deb3;" x="142.351634" xlink:href="#m3dcf14e3d5" y="6.381624"/>
     <use style="fill:#f5deb3;stroke:#f5deb3;" x="142.351634" xlink:href="#m3dcf14e3d5" y="6.381624"/>
    </g>
   </g>
   <g id="line2d_34">
    <defs>
     <path d="M 0 1.5 
C 0.397805 1.5 0.77937 1.341951 1.06066 1.06066 
C 1.341951 0.77937 1.5 0.397805 1.5 0 
C 1.5 -0.397805 1.341951 -0.77937 1.06066 -1.06066 
C 0.77937 -1.341951 0.397805 -1.5 0 -1.5 
C -0.397805 -1.5 -0.77937 -1.341951 -1.06066 -1.06066 
C -1.341951 -0.77937 -1.5 -0.397805 -1.5 0 
C -1.5 0.397805 -1.341951 0.77937 -1.06066 1.06066 
C -0.77937 1.341951 -0.397805 1.5 0 1.5 
z
" id="mb6db2ee21c" style="stroke:#000080;"/>
    </defs>
    <g>
     <use style="fill:#000080;stroke:#000080;" x="177.345294" xlink:href="#mb6db2ee21c" y="6.381624"/>
     <use style="fill:#000080;stroke:#000080;" x="177.345294" xlink:href="#mb6db2ee21c" y="6.381624"/>
    </g>
   </g>
   <g id="line2d_35">
    <path d="M 45.512012 298.944 
L 45.512012 294.928438 
L 57.6 294.928438 
L 57.6 293.06407 
L 64.67102 293.06407 
L 64.67102 292.060179 
L 69.687988 292.060179 
L 69.687988 291.343115 
L 73.579452 291.343115 
L 73.579452 287.901204 
L 76.759008 287.901204 
L 76.759008 286.467075 
L 79.447285 286.467075 
L 79.447285 285.606598 
L 81.775977 285.606598 
L 81.775977 285.319772 
L 83.830028 285.319772 
L 83.830028 281.877861 
L 85.66744 281.877861 
L 85.66744 280.873971 
L 87.329581 280.873971 
L 87.329581 278.86619 
L 88.846997 278.86619 
L 88.846997 278.292538 
L 90.242884 278.292538 
L 90.242884 277.575474 
L 91.535274 277.575474 
L 91.535274 276.42817 
L 92.73846 276.42817 
L 92.73846 274.850628 
L 93.863965 274.850628 
L 93.863965 273.129673 
L 94.921215 273.129673 
L 94.921215 272.98626 
L 95.918017 272.98626 
L 95.918017 272.842847 
L 96.86091 272.842847 
L 96.86091 272.269195 
L 97.755429 272.269195 
L 97.755429 271.695543 
L 98.606294 271.695543 
L 98.606294 270.261414 
L 99.41757 270.261414 
L 99.41757 268.683872 
L 100.192776 268.683872 
L 100.192776 268.540459 
L 100.934985 268.540459 
L 100.934985 266.102439 
L 101.646892 266.102439 
L 101.646892 264.66831 
L 102.330873 264.66831 
L 102.330873 263.377593 
L 102.989037 263.377593 
L 102.989037 262.086877 
L 103.623262 262.086877 
L 103.623262 261.943464 
L 104.23523 261.943464 
L 104.23523 261.082987 
L 104.826449 261.082987 
L 104.826449 260.365922 
L 105.398279 260.365922 
L 105.398279 258.78838 
L 105.951954 258.78838 
L 105.951954 255.920121 
L 107.514726 255.920121 
L 107.514726 255.633295 
L 108.483824 255.633295 
L 108.483824 254.916231 
L 108.948899 254.916231 
L 108.948899 252.621624 
L 109.401893 252.621624 
L 109.401893 251.904559 
L 109.843417 251.904559 
L 109.843417 251.044082 
L 110.274038 251.044082 
L 110.274038 250.47043 
L 110.694282 250.47043 
L 110.694282 249.609952 
L 111.104637 249.609952 
L 111.104637 249.466539 
L 111.505558 249.466539 
L 111.505558 248.319236 
L 111.897469 248.319236 
L 111.897469 247.458758 
L 112.280765 247.458758 
L 112.280765 246.598281 
L 112.655818 246.598281 
L 112.655818 246.168042 
L 113.022974 246.168042 
L 113.022974 245.737803 
L 113.382559 245.737803 
L 113.382559 245.164151 
L 114.418861 245.164151 
L 114.418861 244.733913 
L 115.077025 244.733913 
L 115.077025 244.447087 
L 115.397021 244.447087 
L 115.397021 243.730022 
L 115.711251 243.730022 
L 115.711251 243.15637 
L 116.019919 243.15637 
L 116.019919 242.582719 
L 116.323218 242.582719 
L 116.323218 242.439306 
L 116.621333 242.439306 
L 116.621333 242.15248 
L 116.914437 242.15248 
L 116.914437 241.722241 
L 117.202696 241.722241 
L 117.202696 240.718351 
L 117.486268 240.718351 
L 117.486268 240.001286 
L 118.039942 240.001286 
L 118.039942 239.571047 
L 118.310324 239.571047 
L 118.310324 239.284221 
L 118.576578 239.284221 
L 118.576578 238.280331 
L 118.838828 238.280331 
L 118.838828 236.846202 
L 119.097192 236.846202 
L 119.097192 236.415963 
L 119.850084 236.415963 
L 119.850084 236.27255 
L 120.093994 236.27255 
L 120.093994 235.985724 
L 120.571812 235.985724 
L 120.571812 234.981833 
L 120.8059 234.981833 
L 120.8059 234.551595 
L 121.264855 234.551595 
L 121.264855 231.109684 
L 121.489881 231.109684 
L 121.489881 230.966271 
L 121.712041 230.966271 
L 121.712041 230.105794 
L 122.148045 230.105794 
L 122.148045 229.245316 
L 122.362027 229.245316 
L 122.362027 226.090232 
L 122.573415 226.090232 
L 122.573415 225.373167 
L 122.782271 225.373167 
L 122.782271 225.086341 
L 122.988655 225.086341 
L 122.988655 224.799515 
L 123.192626 224.799515 
L 123.192626 224.51269 
L 123.394238 224.51269 
L 123.394238 224.369277 
L 123.593547 224.369277 
L 123.593547 223.652212 
L 123.985457 223.652212 
L 123.985457 222.504909 
L 124.178158 222.504909 
L 124.178158 220.783953 
L 124.368753 220.783953 
L 124.368753 218.632759 
L 124.557288 218.632759 
L 124.557288 218.345934 
L 124.743806 218.345934 
L 124.743806 218.202521 
L 125.110962 218.202521 
L 125.110962 217.915695 
L 125.291682 217.915695 
L 125.291682 217.772282 
L 125.996395 217.772282 
L 125.996395 217.342043 
L 126.168212 217.342043 
L 126.168212 217.055217 
L 126.338353 217.055217 
L 126.338353 216.481566 
L 126.50685 216.481566 
L 126.50685 216.19474 
L 126.673734 216.19474 
L 126.673734 215.477675 
L 126.839037 215.477675 
L 126.839037 213.613307 
L 127.165014 213.613307 
L 127.165014 213.469894 
L 127.48501 213.469894 
L 127.48501 213.183068 
L 127.642832 213.183068 
L 127.642832 213.039655 
L 128.260216 213.039655 
L 128.260216 212.466003 
L 128.560901 212.466003 
L 128.560901 210.888461 
L 128.709321 210.888461 
L 128.709321 208.450441 
L 129.147151 208.450441 
L 129.147151 208.163616 
L 129.290685 208.163616 
L 129.290685 207.446551 
L 129.433047 207.446551 
L 129.433047 207.159725 
L 129.574256 207.159725 
L 129.574256 206.872899 
L 129.714332 206.872899 
L 129.714332 206.44266 
L 129.991152 206.44266 
L 129.991152 206.155835 
L 130.127931 206.155835 
L 130.127931 205.295357 
L 130.263646 205.295357 
L 130.263646 203.00075 
L 130.398313 203.00075 
L 130.398313 202.427098 
L 130.531948 202.427098 
L 130.531948 200.275904 
L 130.664567 200.275904 
L 130.664567 200.132492 
L 130.926816 200.132492 
L 130.926816 199.702253 
L 131.056477 199.702253 
L 131.056477 198.985188 
L 131.185181 198.985188 
L 131.185181 198.841775 
L 131.690703 198.841775 
L 131.690703 198.698362 
L 132.181982 198.698362 
L 132.181982 195.973517 
L 132.30267 195.973517 
L 132.30267 194.6828 
L 132.422528 194.6828 
L 132.422528 191.671129 
L 132.541568 191.671129 
L 132.541568 190.523825 
L 132.777237 190.523825 
L 132.777237 190.236999 
L 133.009765 190.236999 
L 133.009765 189.663348 
L 133.239232 189.663348 
L 133.239232 189.233109 
L 133.689303 189.233109 
L 133.689303 188.372631 
L 133.910056 188.372631 
L 134.019394 187.942393 
L 134.12805 187.942393 
L 134.12805 187.79898 
L 134.450015 187.79898 
L 134.55603 184.930721 
L 134.661403 184.930721 
L 134.766144 183.640005 
L 134.870259 183.640005 
L 134.870259 183.496592 
L 135.076644 183.496592 
L 135.178927 182.636114 
L 135.280614 182.636114 
L 135.381712 182.062462 
L 135.482227 182.062462 
L 135.482227 181.91905 
L 135.780341 181.91905 
L 135.878591 181.058572 
L 136.170062 181.058572 
L 136.266147 180.628333 
L 136.456742 180.628333 
L 136.551264 179.767856 
L 136.645276 179.767856 
L 136.738785 179.48103 
L 136.831795 179.48103 
L 136.924311 179.194204 
L 137.016339 179.194204 
L 137.107884 178.0469 
L 137.289545 178.0469 
L 137.289545 177.903487 
L 137.469333 177.903487 
L 137.558536 176.756184 
L 137.647286 176.756184 
L 137.647286 176.469358 
L 137.823442 176.469358 
L 137.910857 175.322055 
L 137.997836 175.322055 
L 138.084384 170.876254 
L 138.256201 170.876254 
L 138.256201 169.442125 
L 138.426341 169.442125 
L 138.426341 168.868473 
L 138.761723 168.868473 
L 138.761723 168.438234 
L 139.009092 168.438234 
L 139.009092 168.151408 
L 139.172077 168.151408 
L 139.253002 167.434344 
L 139.333553 167.434344 
L 139.413734 166.717279 
L 139.493548 166.717279 
L 139.493548 165.713388 
L 139.730821 165.713388 
L 139.8092 164.996324 
L 139.887228 164.996324 
L 139.887228 164.135846 
L 140.042245 164.135846 
L 140.042245 163.992433 
L 140.195896 163.992433 
L 140.195896 163.705607 
L 140.348205 163.705607 
L 140.423864 163.418782 
L 140.723258 163.418782 
L 140.723258 162.701717 
L 140.871049 162.701717 
L 140.944478 162.271478 
L 141.017599 162.271478 
L 141.090414 161.984652 
L 141.307054 161.984652 
L 141.307054 161.697826 
L 141.45 161.697826 
L 141.521035 160.263697 
L 141.591783 160.263697 
L 141.662245 159.690045 
L 141.80232 159.690045 
L 141.80232 159.259807 
L 142.147664 159.259807 
L 142.215919 158.542742 
L 142.351634 158.542742 
L 142.419098 157.108613 
L 142.553247 157.108613 
L 142.619936 156.534961 
L 142.752555 156.534961 
L 142.818488 155.961309 
L 142.949611 155.961309 
L 143.014805 155.100832 
L 143.079756 155.100832 
L 143.144465 154.383767 
L 143.208936 154.383767 
L 143.208936 154.240354 
L 143.337167 154.240354 
L 143.40093 153.379877 
L 143.464461 153.379877 
L 143.527762 152.519399 
L 143.716296 152.519399 
L 143.716296 152.232573 
L 143.840863 152.232573 
L 143.840863 152.08916 
L 144.026061 152.08916 
L 144.026061 151.08527 
L 144.330419 151.08527 
L 144.390658 150.798444 
L 144.45069 150.798444 
L 144.45069 150.224792 
L 144.570138 150.224792 
L 144.570138 150.081379 
L 144.806606 150.081379 
L 144.806606 149.65114 
L 145.039911 149.65114 
L 145.097753 149.077489 
L 145.155404 149.077489 
L 145.212864 148.217011 
L 145.327221 148.217011 
L 145.384119 147.786772 
L 145.440832 147.786772 
L 145.497361 146.065817 
L 145.553708 146.065817 
L 145.553708 145.922404 
L 145.832743 145.922404 
L 145.943118 144.918514 
L 146.107383 144.918514 
L 146.216039 143.197559 
L 146.270114 143.197559 
L 146.377764 142.480494 
L 146.431341 142.480494 
L 146.538004 139.181997 
L 146.591092 139.181997 
L 146.644018 138.464932 
L 146.749392 138.464932 
L 146.801841 137.317628 
L 146.906268 137.317628 
L 147.010073 137.030803 
L 147.061745 137.030803 
L 147.164632 135.740086 
L 147.266916 135.740086 
L 147.266916 135.45326 
L 147.419225 135.45326 
L 147.52003 134.44937 
L 147.570215 134.44937 
L 147.670154 133.158653 
L 147.818997 133.158653 
L 147.86833 132.154763 
L 147.96658 132.154763 
L 148.064279 131.294285 
L 148.161434 131.294285 
L 148.258051 128.426027 
L 148.306159 128.426027 
L 148.40198 126.705072 
L 148.54473 126.705072 
L 148.639252 126.274833 
L 148.686322 126.274833 
L 148.780082 124.267052 
L 148.826773 124.267052 
L 148.87334 121.111967 
L 148.966103 121.111967 
L 149.058374 120.394903 
L 149.104327 120.394903 
L 149.195872 117.956883 
L 149.241465 117.956883 
L 149.332295 117.096405 
L 149.377533 117.096405 
L 149.467659 115.949102 
L 149.512548 115.949102 
L 149.60198 113.511082 
L 149.646525 113.511082 
L 149.690956 112.93743 
L 149.823575 112.93743 
L 149.911431 111.073062 
L 149.955193 111.073062 
L 150.042389 109.925759 
L 150.085825 109.925759 
L 150.129152 108.921868 
L 150.215485 108.921868 
L 150.301393 107.917978 
L 150.47195 107.917978 
L 150.556607 104.906306 
L 150.640855 104.906306 
L 150.724698 103.185351 
L 150.766468 103.185351 
L 150.849711 102.181461 
L 150.973835 102.181461 
L 151.056095 101.320983 
L 151.097081 101.320983 
L 151.178764 100.030267 
L 151.260066 100.030267 
L 151.340991 98.882963 
L 151.421542 98.882963 
L 151.501723 96.301531 
L 151.541675 96.301531 
L 151.541675 95.584466 
L 151.660987 95.584466 
L 151.740076 93.003033 
L 151.779487 93.003033 
L 151.858043 91.85573 
L 151.897188 91.85573 
L 151.975216 88.987471 
L 152.0141 88.987471 
L 152.091608 88.126994 
L 152.130233 88.126994 
L 152.207228 87.123103 
L 152.283884 87.123103 
L 152.283884 86.97969 
L 152.398241 86.97969 
L 152.436193 86.119213 
L 152.511852 86.119213 
L 152.587184 85.688974 
L 152.624728 85.688974 
L 152.699575 84.398257 
L 152.736878 84.398257 
L 152.811246 83.681193 
L 152.848312 83.681193 
L 152.959038 81.529999 
L 153.032466 81.529999 
L 153.142033 78.518327 
L 153.178403 78.518327 
L 153.250915 75.650069 
L 153.323128 75.650069 
L 153.430889 73.642288 
L 153.573542 73.642288 
L 153.679772 72.494984 
L 153.715038 72.494984 
L 153.785358 71.491094 
L 153.925152 71.491094 
L 153.959927 70.487203 
L 154.063835 70.487203 
L 154.167129 66.184815 
L 154.201424 66.184815 
L 154.303908 63.746796 
L 154.371897 63.746796 
L 154.439623 62.886318 
L 154.54072 62.886318 
L 154.641235 62.169253 
L 154.674612 62.169253 
L 154.77436 60.448298 
L 154.807483 60.448298 
L 154.906477 59.300995 
L 154.972161 59.300995 
L 155.0376 58.440517 
L 155.135299 58.440517 
L 155.135299 58.010278 
L 155.264719 58.010278 
L 155.329071 54.998607 
L 155.425155 54.998607 
L 155.520713 54.138129 
L 155.584129 54.138129 
L 155.678822 53.134239 
L 155.83551 53.134239 
L 155.86668 50.983045 
L 156.114049 50.983045 
L 156.205916 50.696219 
L 156.236431 50.696219 
L 156.327657 49.548916 
L 156.357959 49.548916 
L 156.448553 46.967483 
L 156.508689 46.967483 
L 156.508689 46.107005 
L 156.628341 46.107005 
L 156.717545 44.529463 
L 156.747178 44.529463 
L 156.835778 42.951921 
L 156.953214 42.951921 
L 157.040776 41.230966 
L 157.069866 41.230966 
L 157.156845 40.513901 
L 157.243392 40.513901 
L 157.243392 40.370488 
L 157.358125 40.370488 
L 157.443681 39.653423 
L 157.500487 39.653423 
L 157.58535 38.792946 
L 157.697862 38.792946 
L 157.781772 37.645642 
L 157.809652 37.645642 
L 157.809652 36.641752 
L 157.976006 36.641752 
L 158.086033 33.773493 
L 158.168101 33.773493 
L 158.168101 31.765712 
L 158.304027 31.765712 
L 158.412011 31.335474 
L 158.465753 31.335474 
L 158.572743 29.471105 
L 158.599388 29.471105 
L 158.705563 28.467215 
L 158.732007 28.467215 
L 158.784773 28.036976 
L 158.889829 28.036976 
L 158.994256 26.316021 
L 159.226956 26.316021 
L 159.32939 25.455543 
L 159.431225 25.455543 
L 159.456591 25.025305 
L 159.608019 25.025305 
L 159.608019 24.451653 
L 159.783038 24.451653 
L 159.807898 24.164827 
L 159.956318 24.164827 
L 159.956318 24.021414 
L 160.103486 24.021414 
L 160.200913 23.591175 
L 160.225184 23.591175 
L 160.297798 22.874111 
L 160.442124 22.874111 
L 160.442124 22.587285 
L 160.727241 22.587285 
L 160.774311 21.87022 
L 160.961329 21.87022 
L 160.961329 20.86633 
L 161.283861 20.86633 
L 161.283861 20.722917 
L 161.442917 20.722917 
L 161.465522 20.292678 
L 161.555647 20.292678 
L 161.64531 19.862439 
L 161.734513 19.862439 
L 161.734513 19.575613 
L 162.086834 19.575613 
L 162.152109 19.001962 
L 162.728843 19.001962 
L 162.791763 18.571723 
L 162.916926 18.571723 
L 162.979172 18.284897 
L 163.061823 18.284897 
L 163.061823 18.141484 
L 163.225959 18.141484 
L 163.266752 17.854658 
L 163.348054 17.854658 
L 163.388564 17.281006 
L 163.469301 17.281006 
L 163.569701 16.420529 
L 164.486229 16.420529 
L 164.562052 15.560051 
L 165.175324 15.560051 
L 165.211808 13.839096 
L 165.55465 13.839096 
L 165.55465 13.695683 
L 165.995728 13.695683 
L 165.995728 13.408857 
L 166.442913 13.408857 
L 166.442913 13.265444 
L 166.7626 13.265444 
L 166.7626 13.122031 
L 167.125588 13.122031 
L 167.125588 12.835206 
L 167.703739 12.835206 
L 167.813965 12.54838 
L 168.445948 12.54838 
L 168.445948 10.253773 
L 168.656606 10.253773 
L 168.656606 9.823534 
L 169.259288 9.823534 
L 169.259288 9.536708 
L 170.228776 9.536708 
L 170.228776 9.249882 
L 170.499999 9.249882 
L 170.499999 7.385514 
L 170.833202 7.385514 
L 170.833202 7.242101 
L 176.073165 7.242101 
L 176.073165 6.811863 
L 177.01503 6.811863 
L 177.01503 6.66845 
L 177.14421 6.66845 
L 177.14421 6.525037 
L 177.345294 6.525037 
L 177.345294 6.381624 
L 338.688 6.381624 
L 338.688 6.381624 
" style="fill:none;stroke:#000080;stroke-linecap:square;stroke-width:1.5;"/>
   </g>
   <g id="line2d_36">
    <defs>
     <path d="M 0 6 
C 1.591219 6 3.117479 5.367802 4.242641 4.242641 
C 5.367802 3.117479 6 1.591219 6 0 
C 6 -1.591219 5.367802 -3.117479 4.242641 -4.242641 
C 3.117479 -5.367802 1.591219 -6 0 -6 
C -1.591219 -6 -3.117479 -5.367802 -4.242641 -4.242641 
C -5.367802 -3.117479 -6 -1.591219 -6 0 
C -6 1.591219 -5.367802 3.117479 -4.242641 4.242641 
C -3.117479 5.367802 -1.591219 6 0 6 
z
" id="m82e39b2b73" style="stroke:#000080;stroke-width:1.5;"/>
    </defs>
    <g>
     <use style="fill-opacity:0;stroke:#000080;stroke-width:1.5;" x="124.557288" xlink:href="#m82e39b2b73" y="218.632759"/>
     <use style="fill-opacity:0;stroke:#000080;stroke-width:1.5;" x="158.168101" xlink:href="#m82e39b2b73" y="33.773493"/>
     <use style="fill-opacity:0;stroke:#000080;stroke-width:1.5;" x="177.345294" xlink:href="#m82e39b2b73" y="6.525037"/>
     <use style="fill-opacity:0;stroke:#000080;stroke-width:1.5;" x="177.345294" xlink:href="#m82e39b2b73" y="6.381624"/>
     <use style="fill-opacity:0;stroke:#000080;stroke-width:1.5;" x="177.345294" xlink:href="#m82e39b2b73" y="6.381624"/>
     <use style="fill-opacity:0;stroke:#000080;stroke-width:1.5;" x="338.688" xlink:href="#m82e39b2b73" y="6.381624"/>
    </g>
   </g>
   <g id="line2d_37">
    <path style="fill:none;stroke:#000080;stroke-linecap:square;stroke-width:1.5;"/>
    <g/>
   </g>
   <g id="line2d_38">
    <defs>
     <path d="M 0 1.5 
C 0.397805 1.5 0.77937 1.341951 1.06066 1.06066 
C 1.341951 0.77937 1.5 0.397805 1.5 0 
C 1.5 -0.397805 1.341951 -0.77937 1.06066 -1.06066 
C 0.77937 -1.341951 0.397805 -1.5 0 -1.5 
C -0.397805 -1.5 -0.77937 -1.341951 -1.06066 -1.06066 
C -1.341951 -0.77937 -1.5 -0.397805 -1.5 0 
C -1.5 0.397805 -1.341951 0.77937 -1.06066 1.06066 
C -0.77937 1.341951 -0.397805 1.5 0 1.5 
z
" id="mbe0c249836" style="stroke:#ff00ff;"/>
    </defs>
    <g>
     <use style="fill:#ff00ff;stroke:#ff00ff;" x="213.420811" xlink:href="#mbe0c249836" y="6.381624"/>
     <use style="fill:#ff00ff;stroke:#ff00ff;" x="213.420811" xlink:href="#mbe0c249836" y="6.381624"/>
    </g>
   </g>
   <g id="line2d_39">
    <path d="M 45.512012 298.944 
L 45.512012 297.509871 
L 57.6 297.509871 
L 57.6 292.920657 
L 64.67102 292.920657 
L 64.67102 291.629941 
L 69.687988 291.629941 
L 69.687988 278.149125 
L 73.579452 278.149125 
L 73.579452 277.718886 
L 76.759008 277.718886 
L 76.759008 271.838956 
L 79.447285 271.838956 
L 79.447285 269.114111 
L 81.775977 269.114111 
L 81.775977 267.823394 
L 83.830028 267.823394 
L 83.830028 267.10633 
L 85.66744 267.10633 
L 85.66744 266.102439 
L 87.329581 266.102439 
L 87.329581 265.528787 
L 88.846997 265.528787 
L 88.846997 264.381484 
L 90.242884 264.381484 
L 90.242884 263.521006 
L 92.73846 263.521006 
L 92.73846 262.803942 
L 93.863965 262.803942 
L 93.863965 262.086877 
L 94.921215 262.086877 
L 94.921215 261.656638 
L 96.86091 261.656638 
L 96.86091 261.082987 
L 97.755429 261.082987 
L 97.755429 260.652748 
L 99.41757 260.652748 
L 99.41757 259.075206 
L 100.192776 259.075206 
L 100.192776 258.931793 
L 100.934985 258.931793 
L 100.934985 258.358141 
L 102.330873 258.358141 
L 102.330873 258.071315 
L 102.989037 258.071315 
L 102.989037 257.784489 
L 104.23523 257.784489 
L 104.23523 257.35425 
L 104.826449 257.35425 
L 104.826449 256.924012 
L 106.48859 256.924012 
L 106.48859 255.776708 
L 107.514726 255.776708 
L 107.514726 255.203056 
L 108.006005 255.203056 
L 108.006005 254.916231 
L 108.483824 254.916231 
L 108.483824 254.772818 
L 108.948899 254.772818 
L 108.948899 254.629405 
L 111.104637 254.629405 
L 111.104637 254.485992 
L 111.505558 254.485992 
L 111.505558 253.625514 
L 112.280765 253.625514 
L 112.280765 253.195275 
L 112.655818 253.195275 
L 112.655818 252.478211 
L 113.022974 252.478211 
L 113.022974 251.761146 
L 113.382559 251.761146 
L 113.382559 250.900669 
L 114.418861 250.900669 
L 114.418861 249.609952 
L 114.751048 249.609952 
L 114.751048 248.892888 
L 116.019919 248.892888 
L 116.019919 247.888997 
L 116.323218 247.888997 
L 116.323218 247.315345 
L 116.621333 247.315345 
L 116.621333 246.598281 
L 117.202696 246.598281 
L 117.202696 246.311455 
L 117.486268 246.311455 
L 117.486268 245.59439 
L 117.765302 245.59439 
L 117.765302 245.307564 
L 118.310324 245.307564 
L 118.310324 245.020738 
L 118.576578 245.020738 
L 118.576578 244.447087 
L 118.838828 244.447087 
L 118.838828 243.15637 
L 119.097192 243.15637 
L 119.097192 242.582719 
L 119.850084 242.582719 
L 119.850084 242.15248 
L 120.33454 242.15248 
L 120.33454 242.009067 
L 121.264855 242.009067 
L 121.264855 241.865654 
L 121.712041 241.865654 
L 121.712041 241.292002 
L 124.92835 241.292002 
L 124.92835 241.005176 
L 125.996395 241.005176 
L 125.996395 240.861764 
L 126.338353 240.861764 
L 126.338353 239.140808 
L 126.673734 239.140808 
L 126.673734 238.136918 
L 127.48501 238.136918 
L 127.48501 237.993505 
L 127.642832 237.993505 
L 127.642832 237.850092 
L 127.799239 237.850092 
L 127.799239 237.27644 
L 128.260216 237.27644 
L 128.260216 237.133027 
L 128.560901 237.133027 
L 128.560901 236.989614 
L 128.709321 236.989614 
L 128.709321 236.702789 
L 128.856489 236.702789 
L 128.856489 235.555485 
L 129.290685 235.555485 
L 129.290685 235.125246 
L 129.433047 235.125246 
L 129.433047 234.264769 
L 129.574256 234.264769 
L 129.574256 233.83453 
L 129.714332 233.83453 
L 129.714332 233.691117 
L 129.853291 233.691117 
L 129.853291 233.404291 
L 129.991152 233.404291 
L 129.991152 231.970162 
L 130.127931 231.970162 
L 130.127931 231.253097 
L 130.531948 231.253097 
L 130.531948 231.109684 
L 131.185181 231.109684 
L 131.185181 230.39262 
L 133.009765 230.39262 
L 133.009765 229.818968 
L 133.57787 229.818968 
L 133.57787 229.675555 
L 133.689303 229.675555 
L 133.800029 229.101903 
L 134.55603 229.101903 
L 134.55603 228.815077 
L 135.076644 228.815077 
L 135.178927 227.667774 
L 136.266147 227.667774 
L 136.266147 227.094122 
L 136.456742 227.094122 
L 136.551264 225.659993 
L 137.107884 225.659993 
L 137.107884 225.229754 
L 137.735587 225.229754 
L 137.735587 224.51269 
L 137.910857 224.51269 
L 137.910857 224.082451 
L 138.341479 224.082451 
L 138.341479 223.795625 
L 140.11924 223.795625 
L 140.195896 223.365386 
L 140.272217 223.365386 
L 140.348205 222.504909 
L 140.423864 222.504909 
L 140.423864 221.787844 
L 140.723258 221.787844 
L 140.79731 218.345934 
L 141.307054 218.345934 
L 141.307054 218.202521 
L 141.521035 218.202521 
L 141.521035 217.342043 
L 142.010346 217.342043 
L 142.010346 217.19863 
L 142.215919 217.19863 
L 142.215919 216.624978 
L 142.419098 216.624978 
L 142.419098 216.19474 
L 142.752555 216.19474 
L 142.752555 215.764501 
L 143.079756 215.764501 
L 143.079756 215.477675 
L 143.273169 215.477675 
L 143.337167 214.473785 
L 143.778691 214.473785 
L 143.778691 214.330372 
L 143.964547 214.330372 
L 143.964547 214.186959 
L 144.269971 214.186959 
L 144.269971 214.043546 
L 144.510517 214.043546 
L 144.510517 213.900133 
L 144.747789 213.900133 
L 144.806606 213.183068 
L 145.039911 213.183068 
L 145.097753 210.458222 
L 145.212864 210.458222 
L 145.270136 210.171397 
L 146.431341 210.171397 
L 146.431341 209.884571 
L 146.801841 209.884571 
L 146.906268 208.020203 
L 147.769524 208.020203 
L 147.769524 207.733377 
L 147.96658 207.733377 
L 148.015498 207.446551 
L 148.354135 207.446551 
L 148.354135 207.303138 
L 148.919783 207.303138 
L 148.919783 207.159725 
L 149.15016 207.159725 
L 149.15016 206.872899 
L 149.467659 206.872899 
L 149.557321 206.155835 
L 149.60198 206.155835 
L 149.60198 205.295357 
L 149.779481 205.295357 
L 149.779481 204.865118 
L 149.955193 204.865118 
L 149.998846 204.434879 
L 150.172372 204.434879 
L 150.172372 204.004641 
L 150.51433 204.004641 
L 150.51433 203.717815 
L 151.219462 203.717815 
L 151.219462 203.144163 
L 151.936246 203.144163 
L 151.936246 202.713924 
L 152.130233 202.713924 
L 152.130233 202.570511 
L 152.436193 202.570511 
L 152.436193 202.427098 
L 152.811246 202.427098 
L 152.885298 201.279795 
L 152.995791 201.279795 
L 152.995791 200.706143 
L 153.537988 200.706143 
L 153.537988 200.275904 
L 153.715038 200.275904 
L 153.820412 199.415427 
L 154.029268 199.415427 
L 154.029268 199.272014 
L 154.235652 199.272014 
L 154.303908 198.698362 
L 154.873541 198.698362 
L 154.873541 198.554949 
L 155.264719 198.554949 
L 155.264719 198.268123 
L 155.678822 198.268123 
L 155.773004 197.837885 
L 156.052535 197.837885 
L 156.052535 196.977407 
L 156.478647 196.977407 
L 156.478647 196.833994 
L 156.687861 196.833994 
L 156.687861 196.260342 
L 156.806295 196.260342 
L 156.835778 195.686691 
L 156.98245 195.686691 
L 157.011638 194.539387 
L 157.214591 194.539387 
L 157.300853 193.965736 
L 157.329512 193.965736 
L 157.415209 190.236999 
L 157.613546 190.236999 
L 157.613546 190.093586 
L 157.725877 190.093586 
L 157.725877 189.950174 
L 157.94839 189.950174 
L 157.94839 188.229218 
L 158.168101 188.229218 
L 158.168101 187.79898 
L 158.331086 187.79898 
L 158.438903 187.368741 
L 158.51933 187.368741 
L 158.625992 184.787308 
L 158.83738 184.787308 
L 158.915995 183.926831 
L 159.226956 183.926831 
L 159.252621 183.209766 
L 160.054568 183.209766 
L 160.103486 182.492701 
L 160.176607 182.492701 
L 160.176607 182.349288 
L 160.297798 182.349288 
L 160.346039 179.767856 
L 160.418152 179.767856 
L 160.418152 179.48103 
L 160.609008 179.48103 
L 160.680044 178.620552 
L 160.774311 178.620552 
L 160.86807 178.0469 
L 160.914762 178.0469 
L 161.007772 177.473249 
L 161.077205 177.473249 
L 161.12334 176.039119 
L 161.329454 176.039119 
L 161.397621 174.891816 
L 161.555647 174.891816 
L 161.622937 174.318164 
L 161.823263 174.318164 
L 161.823263 172.597209 
L 161.955547 172.597209 
L 161.955547 172.453796 
L 162.453536 172.453796 
L 162.453536 172.16697 
L 162.707819 172.16697 
L 162.707819 172.023557 
L 163.103002 172.023557 
L 163.103002 171.880144 
L 163.388564 171.880144 
L 163.388564 171.736732 
L 163.629664 171.736732 
L 163.649606 169.011886 
L 163.748975 169.011886 
L 163.768781 168.151408 
L 164.256762 168.151408 
L 164.295217 167.577757 
L 164.693955 167.577757 
L 164.693955 167.434344 
L 164.880672 167.434344 
L 164.973287 166.573866 
L 165.393091 166.573866 
L 165.393091 166.430453 
L 165.55465 166.430453 
L 165.625977 163.705607 
L 165.679281 163.705607 
L 165.679281 163.562195 
L 166.391896 163.562195 
L 166.493781 162.128065 
L 166.862349 162.128065 
L 166.862349 161.841239 
L 167.0929 161.841239 
L 167.125588 161.554414 
L 167.320442 161.554414 
L 167.320442 161.267588 
L 167.735303 161.267588 
L 167.735303 160.980762 
L 168.01684 160.980762 
L 168.109685 160.40711 
L 168.71633 160.40711 
L 168.71633 158.255916 
L 168.997257 158.255916 
L 168.997257 158.112503 
L 169.244833 158.112503 
L 169.316986 157.825677 
L 169.488944 157.825677 
L 169.588476 156.248135 
L 169.602648 156.248135 
L 169.673338 155.961309 
L 169.855803 155.961309 
L 169.897641 154.814006 
L 169.967148 154.814006 
L 170.050192 152.662812 
L 170.201421 152.662812 
L 170.28336 152.232573 
L 170.324185 152.232573 
L 170.40555 148.790663 
L 170.51345 148.790663 
L 170.526891 146.352643 
L 170.647393 146.352643 
L 170.647393 145.922404 
L 170.938496 145.922404 
L 171.043158 145.061927 
L 171.18605 145.061927 
L 171.18605 144.918514 
L 171.519214 144.918514 
L 171.569909 144.344862 
L 171.846131 144.344862 
L 171.846131 144.201449 
L 171.970255 144.201449 
L 171.970255 143.914623 
L 172.130306 143.914623 
L 172.154799 143.197559 
L 172.470121 143.197559 
L 172.470121 143.054146 
L 172.768032 143.054146 
L 172.791647 142.337081 
L 172.967743 142.337081 
L 173.072554 138.178106 
L 173.118935 138.178106 
L 173.118935 137.747867 
L 173.428822 137.747867 
L 173.440194 137.174215 
L 173.733298 137.174215 
L 173.766803 136.457151 
L 173.922314 136.457151 
L 174.03255 135.45326 
L 174.054514 135.45326 
L 174.16392 134.44937 
L 174.196608 134.44937 
L 174.240098 133.588892 
L 174.326753 133.588892 
L 174.326753 133.302066 
L 174.498781 133.302066 
L 174.509477 130.720634 
L 174.679722 130.720634 
L 174.679722 130.433808 
L 174.932012 130.433808 
L 175.025688 129.860156 
L 175.242328 129.860156 
L 175.303734 128.999679 
L 175.537141 128.999679 
L 175.537141 128.856266 
L 175.717652 128.856266 
L 175.757513 128.426027 
L 175.886437 128.426027 
L 175.886437 128.282614 
L 176.03402 128.282614 
L 176.03402 127.852375 
L 176.151193 127.852375 
L 176.24824 126.991897 
L 176.354372 126.991897 
L 176.450298 126.13142 
L 176.763161 126.13142 
L 176.800705 123.6934 
L 176.996497 123.6934 
L 177.07051 123.406574 
L 177.235899 123.406574 
L 177.31801 122.546097 
L 177.463036 122.546097 
L 177.463036 122.402684 
L 177.597911 122.402684 
L 177.678338 121.542206 
L 177.855749 121.542206 
L 177.891015 120.394903 
L 178.013889 120.394903 
L 178.013889 120.25149 
L 178.325932 120.25149 
L 178.377401 119.964664 
L 178.471368 119.964664 
L 178.547874 119.104186 
L 178.750267 119.104186 
L 178.750267 118.817361 
L 178.867253 118.817361 
L 178.867253 118.673948 
L 179.303155 118.673948 
L 179.303155 118.530535 
L 179.545147 118.530535 
L 179.569163 118.100296 
L 179.656938 118.100296 
L 179.744273 116.952992 
L 179.831174 116.952992 
L 179.839052 116.235928 
L 179.972447 116.235928 
L 180.065997 115.518863 
L 180.197673 115.518863 
L 180.2977 114.228147 
L 180.313038 114.228147 
L 180.366615 113.511082 
L 180.450477 113.511082 
L 180.549068 112.794017 
L 180.714656 112.794017 
L 180.796864 111.216475 
L 180.856409 111.216475 
L 180.893522 110.499411 
L 181.019118 110.499411 
L 181.121875 109.208694 
L 181.136505 109.208694 
L 181.245843 108.49163 
L 181.404974 108.49163 
L 181.512647 107.487739 
L 181.619658 107.487739 
L 181.648084 106.627262 
L 181.880847 106.627262 
L 181.880847 106.483849 
L 182.213959 106.483849 
L 182.26201 105.910197 
L 182.493539 105.910197 
L 182.507063 105.479958 
L 182.708675 105.479958 
L 182.808614 105.049719 
L 182.88154 105.049719 
L 182.954163 104.332655 
L 183.176739 104.332655 
L 183.176739 104.189242 
L 183.312807 104.189242 
L 183.390086 103.041938 
L 183.498982 103.041938 
L 183.498982 102.898525 
L 183.632568 102.898525 
L 183.708446 101.751222 
L 183.846704 101.751222 
L 183.921659 101.464396 
L 184.119975 101.464396 
L 184.206035 100.890744 
L 184.328244 100.890744 
L 184.328244 100.747331 
L 184.443556 100.747331 
L 184.540072 100.317093 
L 184.570125 100.317093 
L 184.582131 99.743441 
L 184.713659 99.743441 
L 184.808696 99.313202 
L 184.979642 99.313202 
L 185.055732 98.309312 
L 185.148928 98.309312 
L 185.19534 97.592247 
L 185.471247 97.592247 
L 185.471247 97.305421 
L 185.584933 97.305421 
L 185.65279 96.731769 
L 185.832462 96.731769 
L 185.832462 96.588356 
L 185.960468 96.588356 
L 186.043446 96.014705 
L 186.126032 96.014705 
L 186.126032 95.727879 
L 186.484833 95.727879 
L 186.490213 95.29764 
L 186.688115 95.29764 
L 186.75182 94.29375 
L 186.831126 94.29375 
L 186.920572 94.006924 
L 186.957269 94.006924 
L 187.061696 93.433272 
L 187.113676 93.433272 
L 187.18102 92.572794 
L 187.371278 92.572794 
L 187.478346 91.425491 
L 187.559482 91.425491 
L 187.604956 90.4216 
L 187.700569 90.4216 
L 187.785676 89.704536 
L 187.855453 89.704536 
L 187.855453 89.561123 
L 187.979365 89.561123 
L 188.082775 89.274297 
L 188.102403 89.274297 
L 188.195334 88.557232 
L 188.287773 88.557232 
L 188.316863 86.549451 
L 188.427926 86.549451 
L 188.451977 86.119213 
L 188.566961 86.119213 
L 188.676448 84.971909 
L 188.700159 84.971909 
L 188.808815 83.250954 
L 188.902752 83.250954 
L 188.902752 82.964128 
L 189.093754 82.964128 
L 189.172341 82.390476 
L 189.232199 82.390476 
L 189.305589 81.243173 
L 189.487724 81.243173 
L 189.514881 80.09587 
L 189.784149 80.09587 
L 189.895129 78.948566 
L 189.903977 78.948566 
L 189.99661 78.088089 
L 190.018593 78.088089 
L 190.128096 76.940785 
L 190.14119 76.940785 
L 190.219549 75.936895 
L 190.262931 75.936895 
L 190.3623 75.363243 
L 190.482512 75.363243 
L 190.482512 74.933004 
L 190.610398 74.933004 
L 190.627379 74.646178 
L 190.766843 74.646178 
L 190.859203 73.212049 
L 191.030035 73.212049 
L 191.108637 72.78181 
L 191.456004 72.78181 
L 191.472181 72.351571 
L 191.576971 72.351571 
L 191.605076 70.917442 
L 191.721031 70.917442 
L 191.788649 70.056964 
L 191.84018 70.056964 
L 191.907338 68.766248 
L 192.036969 68.766248 
L 192.036969 68.479422 
L 192.20445 68.479422 
L 192.304942 67.188706 
L 192.347285 67.188706 
L 192.389525 65.467751 
L 192.56886 65.467751 
L 192.663505 64.750686 
L 192.704987 64.750686 
L 192.704987 64.607273 
L 192.858737 64.607273 
L 192.899758 64.177034 
L 192.988923 64.177034 
L 193.022243 63.029731 
L 193.15856 63.029731 
L 193.206204 61.882427 
L 193.322928 61.882427 
L 193.424425 60.448298 
L 193.438876 60.448298 
L 193.536112 58.727343 
L 193.597057 58.727343 
L 193.664921 58.297104 
L 193.937277 58.297104 
L 194.03178 57.58004 
L 194.0771 57.58004 
L 194.188156 57.006388 
L 194.322557 57.006388 
L 194.322557 56.719562 
L 194.449115 56.719562 
L 194.55106 56.432736 
L 194.591671 56.432736 
L 194.591671 55.859084 
L 194.709584 55.859084 
L 194.806684 55.285433 
L 194.843373 55.285433 
L 194.843373 55.14202 
L 194.995972 55.14202 
L 195.042151 54.711781 
L 195.17996 54.711781 
L 195.271231 53.134239 
L 195.426593 53.134239 
L 195.506966 52.130348 
L 195.657072 52.130348 
L 195.726893 51.413284 
L 195.853128 51.413284 
L 195.962839 50.26598 
L 195.981577 50.26598 
L 196.08428 49.405503 
L 196.099789 49.405503 
L 196.180211 48.114786 
L 196.324656 48.114786 
L 196.349123 47.397722 
L 196.501273 47.397722 
L 196.597957 47.110896 
L 196.616026 47.110896 
L 196.709083 46.393831 
L 196.744973 46.393831 
L 196.84626 45.246528 
L 196.858138 45.246528 
L 196.961723 43.955811 
L 197.011815 43.955811 
L 197.096935 42.521682 
L 197.1408 42.521682 
L 197.245628 41.517791 
L 197.43332 41.517791 
L 197.530698 41.087553 
L 197.965081 41.087553 
L 198.059543 40.227075 
L 198.161761 40.227075 
L 198.161761 40.083662 
L 198.282544 40.083662 
L 198.380748 39.653423 
L 198.407929 39.653423 
L 198.470284 39.223185 
L 198.529721 39.223185 
L 198.613131 38.075881 
L 198.669408 38.075881 
L 198.770784 36.641752 
L 198.797364 36.641752 
L 198.853051 36.354926 
L 198.942836 36.354926 
L 199.02954 35.637861 
L 199.118422 35.637861 
L 199.214636 35.06421 
L 199.263837 35.06421 
L 199.374678 34.203732 
L 199.425992 34.203732 
L 199.530718 33.056429 
L 199.680325 33.056429 
L 199.755907 32.62619 
L 199.866172 32.62619 
L 199.931002 32.052538 
L 199.990632 32.052538 
L 200.022846 31.765712 
L 200.109284 31.765712 
L 200.207547 30.618409 
L 200.222239 30.618409 
L 200.268682 29.901344 
L 200.341762 29.901344 
L 200.414537 29.040867 
L 200.460471 29.040867 
L 200.539965 28.467215 
L 200.875598 28.467215 
L 200.969649 28.036976 
L 201.088832 28.036976 
L 201.088832 27.893563 
L 201.246487 27.893563 
L 201.343155 27.606737 
L 201.372967 27.606737 
L 201.468938 26.316021 
L 201.557584 26.316021 
L 201.571182 24.595066 
L 201.690838 24.595066 
L 201.760447 24.164827 
L 201.834243 24.164827 
L 201.936592 22.730698 
L 201.958762 22.730698 
L 201.967623 22.443872 
L 202.075798 22.443872 
L 202.075798 22.300459 
L 202.255337 22.300459 
L 202.255337 22.157046 
L 202.512645 22.157046 
L 202.538382 21.583394 
L 202.638823 21.583394 
L 202.725972 21.009743 
L 203.101431 21.009743 
L 203.134601 20.292678 
L 203.379345 20.292678 
L 203.452714 20.005852 
L 203.562191 20.005852 
L 203.562191 19.862439 
L 203.74514 19.862439 
L 203.767125 19.4322 
L 203.92421 19.4322 
L 204.009121 19.001962 
L 204.111254 19.001962 
L 204.175761 18.571723 
L 204.317616 18.571723 
L 204.323421 18.141484 
L 204.441039 18.141484 
L 204.441039 17.998071 
L 204.559779 17.998071 
L 204.668233 16.994181 
L 204.700449 16.994181 
L 204.700449 16.850768 
L 204.935522 16.850768 
L 204.935522 16.707355 
L 205.09358 16.707355 
L 205.174839 16.420529 
L 205.220841 16.420529 
L 205.220841 16.133703 
L 205.418186 16.133703 
L 205.432716 15.560051 
L 205.629486 15.560051 
L 205.73686 14.9864 
L 205.75291 14.9864 
L 205.816959 14.412748 
L 205.995408 14.412748 
L 206.06558 13.982509 
L 206.130238 13.982509 
L 206.17553 13.695683 
L 206.317609 13.695683 
L 206.348643 13.408857 
L 206.974623 13.408857 
L 207.065785 13.122031 
L 207.182767 13.122031 
L 207.27285 12.691793 
L 207.493624 12.691793 
L 207.553207 11.401076 
L 207.654193 11.401076 
L 207.6957 10.970838 
L 208.106982 10.970838 
L 208.183126 10.397186 
L 208.414175 10.397186 
L 208.414175 10.11036 
L 208.601376 10.11036 
L 208.601376 9.680121 
L 208.834455 9.680121 
L 208.891125 9.393295 
L 209.313283 9.393295 
L 209.356826 8.963056 
L 209.637241 8.963056 
L 209.637241 8.819644 
L 209.811827 8.819644 
L 209.811827 8.676231 
L 209.987479 8.676231 
L 210.083687 7.815753 
L 210.110086 7.815753 
L 210.193189 7.385514 
L 210.306128 7.385514 
L 210.306128 7.242101 
L 210.784132 7.242101 
L 210.784132 7.098688 
L 211.041357 7.098688 
L 211.061088 6.811863 
L 211.26888 6.811863 
L 211.270179 6.525037 
L 213.420811 6.525037 
L 213.420811 6.381624 
L 338.688 6.381624 
L 338.688 6.381624 
" style="fill:none;stroke:#ff00ff;stroke-linecap:square;stroke-width:1.5;"/>
   </g>
   <g id="line2d_40">
    <defs>
     <path d="M -0 8.485281 
L 5.091169 0 
L 0 -8.485281 
L -5.091169 -0 
z
" id="ma8270215bf" style="stroke:#ff00ff;stroke-linejoin:miter;stroke-width:1.5;"/>
    </defs>
    <g>
     <use style="fill-opacity:0;stroke:#ff00ff;stroke-linejoin:miter;stroke-width:1.5;" x="134.55603" xlink:href="#ma8270215bf" y="228.815077"/>
     <use style="fill-opacity:0;stroke:#ff00ff;stroke-linejoin:miter;stroke-width:1.5;" x="170.647393" xlink:href="#ma8270215bf" y="145.922404"/>
     <use style="fill-opacity:0;stroke:#ff00ff;stroke-linejoin:miter;stroke-width:1.5;" x="213.420811" xlink:href="#ma8270215bf" y="6.525037"/>
     <use style="fill-opacity:0;stroke:#ff00ff;stroke-linejoin:miter;stroke-width:1.5;" x="213.420811" xlink:href="#ma8270215bf" y="6.381624"/>
     <use style="fill-opacity:0;stroke:#ff00ff;stroke-linejoin:miter;stroke-width:1.5;" x="213.420811" xlink:href="#ma8270215bf" y="6.381624"/>
     <use style="fill-opacity:0;stroke:#ff00ff;stroke-linejoin:miter;stroke-width:1.5;" x="338.688" xlink:href="#ma8270215bf" y="6.381624"/>
    </g>
   </g>
   <g id="line2d_41">
    <path style="fill:none;stroke:#ff00ff;stroke-linecap:square;stroke-width:1.5;"/>
    <g/>
   </g>
   <g id="line2d_42">
    <path d="M 338.688 6.381624 
L 369.60768 293.092752 
" style="fill:none;stroke:#ff00ff;stroke-linecap:square;stroke-width:1.5;"/>
    <g>
     <use style="fill-opacity:0;stroke:#ff00ff;stroke-linejoin:miter;stroke-width:1.5;" x="338.688" xlink:href="#ma8270215bf" y="6.381624"/>
     <use style="fill-opacity:0;stroke:#ff00ff;stroke-linejoin:miter;stroke-width:1.5;" x="369.60768" xlink:href="#ma8270215bf" y="293.092752"/>
    </g>
   </g>
   <g id="line2d_43">
    <path d="M 338.688 6.381624 
L 369.60768 152.662812 
" style="fill:none;stroke:#000080;stroke-linecap:square;stroke-width:1.5;"/>
    <g>
     <use style="fill-opacity:0;stroke:#000080;stroke-width:1.5;" x="338.688" xlink:href="#m82e39b2b73" y="6.381624"/>
     <use style="fill-opacity:0;stroke:#000080;stroke-width:1.5;" x="369.60768" xlink:href="#m82e39b2b73" y="152.662812"/>
    </g>
   </g>
   <g id="line2d_44">
    <path d="M 338.688 298.944 
L 338.688 6.381624 
" style="fill:none;stroke:#000000;stroke-linecap:square;stroke-width:1.5;"/>
   </g>
   <g id="patch_3">
    <path d="M 57.6 298.944 
L 57.6 3.456 
" style="fill:none;stroke:#000000;stroke-linecap:square;stroke-linejoin:miter;stroke-width:0.8;"/>
   </g>
   <g id="patch_4">
    <path d="M 338.688 298.944 
L 338.688 3.456 
" style="fill:none;stroke:#000000;stroke-linecap:square;stroke-linejoin:miter;stroke-width:0.8;"/>
   </g>
   <g id="patch_5">
    <path d="M 57.6 298.944 
L 338.688 298.944 
" style="fill:none;stroke:#000000;stroke-linecap:square;stroke-linejoin:miter;stroke-width:0.8;"/>
   </g>
   <g id="patch_6">
    <path d="M 57.6 3.456 
L 338.688 3.456 
" style="fill:none;stroke:#000000;stroke-linecap:square;stroke-linejoin:miter;stroke-width:0.8;"/>
   </g>
   <g id="text_13">
    <!-- PSO -->
    <g transform="translate(375.22944 297.78369)scale(0.17 -0.17)">
     <defs>
      <path d="M 19.671875 64.796875 
L 19.671875 37.40625 
L 32.078125 37.40625 
Q 38.96875 37.40625 42.71875 40.96875 
Q 46.484375 44.53125 46.484375 51.125 
Q 46.484375 57.671875 42.71875 61.234375 
Q 38.96875 64.796875 32.078125 64.796875 
z
M 9.8125 72.90625 
L 32.078125 72.90625 
Q 44.34375 72.90625 50.609375 67.359375 
Q 56.890625 61.8125 56.890625 51.125 
Q 56.890625 40.328125 50.609375 34.8125 
Q 44.34375 29.296875 32.078125 29.296875 
L 19.671875 29.296875 
L 19.671875 0 
L 9.8125 0 
z
" id="DejaVuSans-80"/>
      <path d="M 53.515625 70.515625 
L 53.515625 60.890625 
Q 47.90625 63.578125 42.921875 64.890625 
Q 37.9375 66.21875 33.296875 66.21875 
Q 25.25 66.21875 20.875 63.09375 
Q 16.5 59.96875 16.5 54.203125 
Q 16.5 49.359375 19.40625 46.890625 
Q 22.3125 44.4375 30.421875 42.921875 
L 36.375 41.703125 
Q 47.40625 39.59375 52.65625 34.296875 
Q 57.90625 29 57.90625 20.125 
Q 57.90625 9.515625 50.796875 4.046875 
Q 43.703125 -1.421875 29.984375 -1.421875 
Q 24.8125 -1.421875 18.96875 -0.25 
Q 13.140625 0.921875 6.890625 3.21875 
L 6.890625 13.375 
Q 12.890625 10.015625 18.65625 8.296875 
Q 24.421875 6.59375 29.984375 6.59375 
Q 38.421875 6.59375 43.015625 9.90625 
Q 47.609375 13.234375 47.609375 19.390625 
Q 47.609375 24.75 44.3125 27.78125 
Q 41.015625 30.8125 33.5 32.328125 
L 27.484375 33.5 
Q 16.453125 35.6875 11.515625 40.375 
Q 6.59375 45.0625 6.59375 53.421875 
Q 6.59375 63.09375 13.40625 68.65625 
Q 20.21875 74.21875 32.171875 74.21875 
Q 37.3125 74.21875 42.625 73.28125 
Q 47.953125 72.359375 53.515625 70.515625 
z
" id="DejaVuSans-83"/>
      <path d="M 39.40625 66.21875 
Q 28.65625 66.21875 22.328125 58.203125 
Q 16.015625 50.203125 16.015625 36.375 
Q 16.015625 22.609375 22.328125 14.59375 
Q 28.65625 6.59375 39.40625 6.59375 
Q 50.140625 6.59375 56.421875 14.59375 
Q 62.703125 22.609375 62.703125 36.375 
Q 62.703125 50.203125 56.421875 58.203125 
Q 50.140625 66.21875 39.40625 66.21875 
z
M 39.40625 74.21875 
Q 54.734375 74.21875 63.90625 63.9375 
Q 73.09375 53.65625 73.09375 36.375 
Q 73.09375 19.140625 63.90625 8.859375 
Q 54.734375 -1.421875 39.40625 -1.421875 
Q 24.03125 -1.421875 14.8125 8.828125 
Q 5.609375 19.09375 5.609375 36.375 
Q 5.609375 53.65625 14.8125 63.9375 
Q 24.03125 74.21875 39.40625 74.21875 
z
" id="DejaVuSans-79"/>
     </defs>
     <use xlink:href="#DejaVuSans-80"/>
     <use x="60.302734" xlink:href="#DejaVuSans-83"/>
     <use x="123.779297" xlink:href="#DejaVuSans-79"/>
    </g>
   </g>
   <g id="text_14">
    <!-- BIPOP-CMA -->
    <g transform="translate(375.22944 157.353749)scale(0.17 -0.17)">
     <defs>
      <path d="M 19.671875 34.8125 
L 19.671875 8.109375 
L 35.5 8.109375 
Q 43.453125 8.109375 47.28125 11.40625 
Q 51.125 14.703125 51.125 21.484375 
Q 51.125 28.328125 47.28125 31.5625 
Q 43.453125 34.8125 35.5 34.8125 
z
M 19.671875 64.796875 
L 19.671875 42.828125 
L 34.28125 42.828125 
Q 41.5 42.828125 45.03125 45.53125 
Q 48.578125 48.25 48.578125 53.8125 
Q 48.578125 59.328125 45.03125 62.0625 
Q 41.5 64.796875 34.28125 64.796875 
z
M 9.8125 72.90625 
L 35.015625 72.90625 
Q 46.296875 72.90625 52.390625 68.21875 
Q 58.5 63.53125 58.5 54.890625 
Q 58.5 48.1875 55.375 44.234375 
Q 52.25 40.28125 46.1875 39.3125 
Q 53.46875 37.75 57.5 32.78125 
Q 61.53125 27.828125 61.53125 20.40625 
Q 61.53125 10.640625 54.890625 5.3125 
Q 48.25 0 35.984375 0 
L 9.8125 0 
z
" id="DejaVuSans-66"/>
      <path d="M 9.8125 72.90625 
L 19.671875 72.90625 
L 19.671875 0 
L 9.8125 0 
z
" id="DejaVuSans-73"/>
      <path d="M 64.40625 67.28125 
L 64.40625 56.890625 
Q 59.421875 61.53125 53.78125 63.8125 
Q 48.140625 66.109375 41.796875 66.109375 
Q 29.296875 66.109375 22.65625 58.46875 
Q 16.015625 50.828125 16.015625 36.375 
Q 16.015625 21.96875 22.65625 14.328125 
Q 29.296875 6.6875 41.796875 6.6875 
Q 48.140625 6.6875 53.78125 8.984375 
Q 59.421875 11.28125 64.40625 15.921875 
L 64.40625 5.609375 
Q 59.234375 2.09375 53.4375 0.328125 
Q 47.65625 -1.421875 41.21875 -1.421875 
Q 24.65625 -1.421875 15.125 8.703125 
Q 5.609375 18.84375 5.609375 36.375 
Q 5.609375 53.953125 15.125 64.078125 
Q 24.65625 74.21875 41.21875 74.21875 
Q 47.75 74.21875 53.53125 72.484375 
Q 59.328125 70.75 64.40625 67.28125 
z
" id="DejaVuSans-67"/>
      <path d="M 9.8125 72.90625 
L 24.515625 72.90625 
L 43.109375 23.296875 
L 61.8125 72.90625 
L 76.515625 72.90625 
L 76.515625 0 
L 66.890625 0 
L 66.890625 64.015625 
L 48.09375 14.015625 
L 38.1875 14.015625 
L 19.390625 64.015625 
L 19.390625 0 
L 9.8125 0 
z
" id="DejaVuSans-77"/>
      <path d="M 34.1875 63.1875 
L 20.796875 26.90625 
L 47.609375 26.90625 
z
M 28.609375 72.90625 
L 39.796875 72.90625 
L 67.578125 0 
L 57.328125 0 
L 50.6875 18.703125 
L 17.828125 18.703125 
L 11.1875 0 
L 0.78125 0 
z
" id="DejaVuSans-65"/>
     </defs>
     <use xlink:href="#DejaVuSans-66"/>
     <use x="68.603516" xlink:href="#DejaVuSans-73"/>
     <use x="98.095703" xlink:href="#DejaVuSans-80"/>
     <use x="158.398438" xlink:href="#DejaVuSans-79"/>
     <use x="237.109375" xlink:href="#DejaVuSans-80"/>
     <use x="295.162109" xlink:href="#DejaVuSans-45"/>
     <use x="331.246094" xlink:href="#DejaVuSans-67"/>
     <use x="401.070312" xlink:href="#DejaVuSans-77"/>
     <use x="487.349609" xlink:href="#DejaVuSans-65"/>
    </g>
   </g>
   <g id="text_15">
    <!-- best 2009 -->
    <g transform="translate(375.22944 16.923809)scale(0.17 -0.17)">
     <defs>
      <path d="M 48.6875 27.296875 
Q 48.6875 37.203125 44.609375 42.84375 
Q 40.53125 48.484375 33.40625 48.484375 
Q 26.265625 48.484375 22.1875 42.84375 
Q 18.109375 37.203125 18.109375 27.296875 
Q 18.109375 17.390625 22.1875 11.75 
Q 26.265625 6.109375 33.40625 6.109375 
Q 40.53125 6.109375 44.609375 11.75 
Q 48.6875 17.390625 48.6875 27.296875 
z
M 18.109375 46.390625 
Q 20.953125 51.265625 25.265625 53.625 
Q 29.59375 56 35.59375 56 
Q 45.5625 56 51.78125 48.09375 
Q 58.015625 40.1875 58.015625 27.296875 
Q 58.015625 14.40625 51.78125 6.484375 
Q 45.5625 -1.421875 35.59375 -1.421875 
Q 29.59375 -1.421875 25.265625 0.953125 
Q 20.953125 3.328125 18.109375 8.203125 
L 18.109375 0 
L 9.078125 0 
L 9.078125 75.984375 
L 18.109375 75.984375 
z
" id="DejaVuSans-98"/>
      <path d="M 10.984375 1.515625 
L 10.984375 10.5 
Q 14.703125 8.734375 18.5 7.8125 
Q 22.3125 6.890625 25.984375 6.890625 
Q 35.75 6.890625 40.890625 13.453125 
Q 46.046875 20.015625 46.78125 33.40625 
Q 43.953125 29.203125 39.59375 26.953125 
Q 35.25 24.703125 29.984375 24.703125 
Q 19.046875 24.703125 12.671875 31.3125 
Q 6.296875 37.9375 6.296875 49.421875 
Q 6.296875 60.640625 12.9375 67.421875 
Q 19.578125 74.21875 30.609375 74.21875 
Q 43.265625 74.21875 49.921875 64.515625 
Q 56.59375 54.828125 56.59375 36.375 
Q 56.59375 19.140625 48.40625 8.859375 
Q 40.234375 -1.421875 26.421875 -1.421875 
Q 22.703125 -1.421875 18.890625 -0.6875 
Q 15.09375 0.046875 10.984375 1.515625 
z
M 30.609375 32.421875 
Q 37.25 32.421875 41.125 36.953125 
Q 45.015625 41.5 45.015625 49.421875 
Q 45.015625 57.28125 41.125 61.84375 
Q 37.25 66.40625 30.609375 66.40625 
Q 23.96875 66.40625 20.09375 61.84375 
Q 16.21875 57.28125 16.21875 49.421875 
Q 16.21875 41.5 20.09375 36.953125 
Q 23.96875 32.421875 30.609375 32.421875 
z
" id="DejaVuSans-57"/>
     </defs>
     <use xlink:href="#DejaVuSans-98"/>
     <use x="63.476562" xlink:href="#DejaVuSans-101"/>
     <use x="125" xlink:href="#DejaVuSans-115"/>
     <use x="177.099609" xlink:href="#DejaVuSans-116"/>
     <use x="216.308594" xlink:href="#DejaVuSans-32"/>
     <use x="248.095703" xlink:href="#DejaVuSans-50"/>
     <use x="311.71875" xlink:href="#DejaVuSans-48"/>
     <use x="375.341797" xlink:href="#DejaVuSans-48"/>
     <use x="438.964844" xlink:href="#DejaVuSans-57"/>
    </g>
   </g>
   <g id="text_16">
    <!-- bbob f6-f9, 2-D -->
    <g transform="translate(60.41088 14.161286)scale(0.102 -0.102)">
     <defs>
      <path d="M 19.671875 64.796875 
L 19.671875 8.109375 
L 31.59375 8.109375 
Q 46.6875 8.109375 53.6875 14.9375 
Q 60.6875 21.78125 60.6875 36.53125 
Q 60.6875 51.171875 53.6875 57.984375 
Q 46.6875 64.796875 31.59375 64.796875 
z
M 9.8125 72.90625 
L 30.078125 72.90625 
Q 51.265625 72.90625 61.171875 64.09375 
Q 71.09375 55.28125 71.09375 36.53125 
Q 71.09375 17.671875 61.125 8.828125 
Q 51.171875 0 30.078125 0 
L 9.8125 0 
z
" id="DejaVuSans-68"/>
     </defs>
     <use xlink:href="#DejaVuSans-98"/>
     <use x="63.476562" xlink:href="#DejaVuSans-98"/>
     <use x="126.953125" xlink:href="#DejaVuSans-111"/>
     <use x="188.134766" xlink:href="#DejaVuSans-98"/>
     <use x="251.611328" xlink:href="#DejaVuSans-32"/>
     <use x="283.398438" xlink:href="#DejaVuSans-102"/>
     <use x="318.603516" xlink:href="#DejaVuSans-54"/>
     <use x="382.226562" xlink:href="#DejaVuSans-45"/>
     <use x="418.310547" xlink:href="#DejaVuSans-102"/>
     <use x="453.515625" xlink:href="#DejaVuSans-57"/>
     <use x="517.138672" xlink:href="#DejaVuSans-44"/>
     <use x="548.925781" xlink:href="#DejaVuSans-32"/>
     <use x="580.712891" xlink:href="#DejaVuSans-50"/>
     <use x="644.335938" xlink:href="#DejaVuSans-45"/>
     <use x="680.419922" xlink:href="#DejaVuSans-68"/>
    </g>
    <!-- 51 targets: 100..1e-08 -->
    <g transform="translate(60.41088 25.583055)scale(0.102 -0.102)">
     <defs>
      <path d="M 10.796875 72.90625 
L 49.515625 72.90625 
L 49.515625 64.59375 
L 19.828125 64.59375 
L 19.828125 46.734375 
Q 21.96875 47.46875 24.109375 47.828125 
Q 26.265625 48.1875 28.421875 48.1875 
Q 40.625 48.1875 47.75 41.5 
Q 54.890625 34.8125 54.890625 23.390625 
Q 54.890625 11.625 47.5625 5.09375 
Q 40.234375 -1.421875 26.90625 -1.421875 
Q 22.3125 -1.421875 17.546875 -0.640625 
Q 12.796875 0.140625 7.71875 1.703125 
L 7.71875 11.625 
Q 12.109375 9.234375 16.796875 8.0625 
Q 21.484375 6.890625 26.703125 6.890625 
Q 35.15625 6.890625 40.078125 11.328125 
Q 45.015625 15.765625 45.015625 23.390625 
Q 45.015625 31 40.078125 35.4375 
Q 35.15625 39.890625 26.703125 39.890625 
Q 22.75 39.890625 18.8125 39.015625 
Q 14.890625 38.140625 10.796875 36.28125 
z
" id="DejaVuSans-53"/>
      <path d="M 11.71875 12.40625 
L 22.015625 12.40625 
L 22.015625 0 
L 11.71875 0 
z
M 11.71875 51.703125 
L 22.015625 51.703125 
L 22.015625 39.3125 
L 11.71875 39.3125 
z
" id="DejaVuSans-58"/>
     </defs>
     <use xlink:href="#DejaVuSans-53"/>
     <use x="63.623047" xlink:href="#DejaVuSans-49"/>
     <use x="127.246094" xlink:href="#DejaVuSans-32"/>
     <use x="159.033203" xlink:href="#DejaVuSans-116"/>
     <use x="198.242188" xlink:href="#DejaVuSans-97"/>
     <use x="259.521484" xlink:href="#DejaVuSans-114"/>
     <use x="298.884766" xlink:href="#DejaVuSans-103"/>
     <use x="362.361328" xlink:href="#DejaVuSans-101"/>
     <use x="423.884766" xlink:href="#DejaVuSans-116"/>
     <use x="463.09375" xlink:href="#DejaVuSans-115"/>
     <use x="515.193359" xlink:href="#DejaVuSans-58"/>
     <use x="548.884766" xlink:href="#DejaVuSans-32"/>
     <use x="580.671875" xlink:href="#DejaVuSans-49"/>
     <use x="644.294922" xlink:href="#DejaVuSans-48"/>
     <use x="707.917969" xlink:href="#DejaVuSans-48"/>
     <use x="771.541016" xlink:href="#DejaVuSans-46"/>
     <use x="803.328125" xlink:href="#DejaVuSans-46"/>
     <use x="835.115234" xlink:href="#DejaVuSans-49"/>
     <use x="898.738281" xlink:href="#DejaVuSans-101"/>
     <use x="960.261719" xlink:href="#DejaVuSans-45"/>
     <use x="996.345703" xlink:href="#DejaVuSans-48"/>
     <use x="1059.96875" xlink:href="#DejaVuSans-56"/>
    </g>
    <!-- 15 instances -->
    <g transform="translate(60.41088 37.004824)scale(0.102 -0.102)">
     <use xlink:href="#DejaVuSans-49"/>
     <use x="63.623047" xlink:href="#DejaVuSans-53"/>
     <use x="127.246094" xlink:href="#DejaVuSans-32"/>
     <use x="159.033203" xlink:href="#DejaVuSans-105"/>
     <use x="186.816406" xlink:href="#DejaVuSans-110"/>
     <use x="250.195312" xlink:href="#DejaVuSans-115"/>
     <use x="302.294922" xlink:href="#DejaVuSans-116"/>
     <use x="341.503906" xlink:href="#DejaVuSans-97"/>
     <use x="402.783203" xlink:href="#DejaVuSans-110"/>
     <use x="466.162109" xlink:href="#DejaVuSans-99"/>
     <use x="521.142578" xlink:href="#DejaVuSans-101"/>
     <use x="582.666016" xlink:href="#DejaVuSans-115"/>
    </g>
   </g>
   <g id="text_17">
    <!-- v2.4 -->
    <g style="fill:#808080;" transform="translate(187.233062 293.909432)scale(0.1 -0.1)">
     <use xlink:href="#DejaVuSans-118"/>
     <use x="59.179688" xlink:href="#DejaVuSans-50"/>
     <use x="122.802734" xlink:href="#DejaVuSans-46"/>
     <use x="154.589844" xlink:href="#DejaVuSans-52"/>
    </g>
   </g>
  </g>
 </g>
 <defs>
  <clipPath id="p412e928738">
   <rect height="295.488" width="281.088" x="57.6" y="3.456"/>
  </clipPath>
 </defs>
</svg>
