<?xml version="1.0" encoding="utf-8" standalone="no"?>
<!DOCTYPE svg PUBLIC "-//W3C//DTD SVG 1.1//EN"
  "http://www.w3.org/Graphics/SVG/1.1/DTD/svg11.dtd">
<!-- Created with matplotlib (https://matplotlib.org/) -->
<svg height="345.6pt" version="1.1" viewBox="0 0 460.8 345.6" width="460.8pt" xmlns="http://www.w3.org/2000/svg" xmlns:xlink="http://www.w3.org/1999/xlink">
 <metadata>
  <rdf:RDF xmlns:cc="http://creativecommons.org/ns#" xmlns:dc="http://purl.org/dc/elements/1.1/" xmlns:rdf="http://www.w3.org/1999/02/22-rdf-syntax-ns#">
   <cc:Work>
    <dc:type rdf:resource="http://purl.org/dc/dcmitype/StillImage"/>
    <dc:date>2021-05-01T17:09:16.653753</dc:date>
    <dc:format>image/svg+xml</dc:format>
    <dc:creator>
     <cc:Agent>
      <dc:title>Matplotlib v3.3.2, https://matplotlib.org/</dc:title>
     </cc:Agent>
    </dc:creator>
   </cc:Work>
  </rdf:RDF>
 </metadata>
 <defs>
  <style type="text/css">*{stroke-linecap:butt;stroke-linejoin:round;}</style>
 </defs>
 <g id="figure_1">
  <g id="patch_1">
   <path d="M 0 345.6 
L 460.8 345.6 
L 460.8 0 
L 0 0 
z
" style="fill:#ffffff;"/>
  </g>
  <g id="axes_1">
   <g id="patch_2">
    <path d="M 57.6 298.944 
L 338.688 298.944 
L 338.688 27.648 
L 57.6 27.648 
z
" style="fill:#ffffff;"/>
   </g>
   <g id="line2d_1">
    <path d="M 5.356583 298.944 
L 5.356583 288.410278 
L 24.515591 288.410278 
L 24.515591 283.143418 
L 52.583031 283.143418 
L 52.583031 277.876557 
L 70.538854 277.876557 
L 70.538854 272.609696 
L 80.650472 272.609696 
L 80.650472 267.342835 
L 88.104788 267.342835 
L 88.104788 262.075974 
L 94.294587 262.075974 
L 94.294587 256.809114 
L 97.134116 256.809114 
L 97.134116 251.542253 
L 99.338119 251.542253 
L 99.338119 246.275392 
L 100.86217 246.275392 
L 100.86217 241.008531 
L 101.923711 241.008531 
L 101.923711 235.74167 
L 102.794183 235.74167 
L 102.794183 230.47481 
L 103.498249 230.47481 
L 103.498249 225.207949 
L 104.355088 225.207949 
L 104.355088 219.941088 
L 105.057436 219.941088 
L 105.057436 214.674227 
L 106.168594 214.674227 
L 106.168594 209.407366 
L 107.614095 209.407366 
L 107.614095 204.140506 
L 109.176867 204.140506 
L 109.176867 198.873645 
L 110.443353 198.873645 
L 110.443353 193.606784 
L 111.936179 193.606784 
L 111.936179 188.339923 
L 113.699967 188.339923 
L 113.699967 183.073062 
L 116.621333 183.073062 
L 116.621333 177.806202 
L 119.377041 177.806202 
L 119.377041 172.539341 
L 121.974949 172.539341 
L 121.974949 167.27248 
L 124.594752 167.27248 
L 124.594752 162.005619 
L 127.579875 162.005619 
L 127.579875 156.738758 
L 128.531065 156.738758 
L 128.531065 151.471897 
L 129.262072 151.471897 
L 129.262072 146.205037 
L 130.032298 146.205037 
L 130.032298 140.938176 
L 130.809292 140.938176 
L 130.809292 135.671315 
L 131.52801 135.671315 
L 131.52801 130.404454 
L 132.362702 130.404454 
L 132.362702 125.137593 
L 133.22783 125.137593 
L 133.22783 119.870733 
L 133.83311 119.870733 
L 133.83311 114.603872 
L 134.534878 114.603872 
L 134.534878 109.337011 
L 135.432042 109.337011 
L 135.432042 104.07015 
L 150.064121 104.07015 
L 150.064121 98.803289 
L 169.224577 98.803289 
L 169.224577 93.536429 
L 170.402844 93.536429 
L 170.402844 88.269568 
L 171.031415 88.269568 
L 171.031415 83.002707 
L 171.659533 83.002707 
L 171.659533 77.735846 
L 172.175591 77.735846 
L 172.175591 72.468985 
L 172.719523 72.468985 
L 172.719523 67.202125 
L 173.289481 67.202125 
L 173.289481 61.935264 
L 173.801357 61.935264 
L 173.801357 56.668403 
L 174.263971 56.668403 
L 174.263971 51.401542 
L 174.819983 51.401542 
L 174.819983 46.134681 
L 175.211544 46.134681 
L 175.211544 40.867821 
L 175.660692 40.867821 
L 175.660692 35.60096 
L 176.102467 35.60096 
L 176.102467 30.334099 
L 338.688 30.334099 
" style="fill:none;stroke:#f5deb3;stroke-linecap:square;stroke-width:4;"/>
   </g>
   <g id="line2d_2">
    <defs>
     <path d="M -0 7.778175 
L 7.778175 0 
L 0 -7.778175 
L -7.778175 -0 
z
" id="m7338d7117e" style="stroke:#f5deb3;stroke-linejoin:miter;stroke-width:1.5;"/>
    </defs>
    <g>
     <use style="fill:#f5deb3;stroke:#f5deb3;stroke-linejoin:miter;stroke-width:1.5;" x="88.104788" xlink:href="#m7338d7117e" y="262.075974"/>
     <use style="fill:#f5deb3;stroke:#f5deb3;stroke-linejoin:miter;stroke-width:1.5;" x="119.377041" xlink:href="#m7338d7117e" y="177.806202"/>
     <use style="fill:#f5deb3;stroke:#f5deb3;stroke-linejoin:miter;stroke-width:1.5;" x="172.175591" xlink:href="#m7338d7117e" y="77.735846"/>
     <use style="fill:#f5deb3;stroke:#f5deb3;stroke-linejoin:miter;stroke-width:1.5;" x="176.102467" xlink:href="#m7338d7117e" y="30.334099"/>
     <use style="fill:#f5deb3;stroke:#f5deb3;stroke-linejoin:miter;stroke-width:1.5;" x="176.102467" xlink:href="#m7338d7117e" y="30.334099"/>
     <use style="fill:#f5deb3;stroke:#f5deb3;stroke-linejoin:miter;stroke-width:1.5;" x="338.688" xlink:href="#m7338d7117e" y="30.334099"/>
    </g>
   </g>
   <g id="line2d_3">
    <path style="fill:none;stroke:#f5deb3;stroke-linecap:square;stroke-width:4;"/>
    <g/>
   </g>
   <g id="line2d_4">
    <path d="M 338.688 30.334099 
L 369.60768 35.706297 
" style="fill:none;stroke:#f5deb3;stroke-linecap:square;stroke-width:4;"/>
    <g>
     <use style="fill:#f5deb3;stroke:#f5deb3;stroke-linejoin:miter;stroke-width:1.5;" x="338.688" xlink:href="#m7338d7117e" y="30.334099"/>
     <use style="fill:#f5deb3;stroke:#f5deb3;stroke-linejoin:miter;stroke-width:1.5;" x="369.60768" xlink:href="#m7338d7117e" y="35.706297"/>
    </g>
   </g>
   <g id="matplotlib.axis_1">
    <g id="xtick_1">
     <g id="line2d_5">
      <path clip-path="url(#p124c2bc987)" d="M 57.6 298.944 
L 57.6 27.648 
" style="fill:none;stroke:#b0b0b0;stroke-linecap:square;stroke-width:0.8;"/>
     </g>
     <g id="line2d_6">
      <defs>
       <path d="M 0 0 
L 0 3.5 
" id="mab9c18765e" style="stroke:#000000;stroke-width:0.8;"/>
      </defs>
      <g>
       <use style="stroke:#000000;stroke-width:0.8;" x="57.6" xlink:href="#mab9c18765e" y="298.944"/>
      </g>
     </g>
     <g id="text_1">
      <!-- 0 -->
      <g transform="translate(51.2375 321.140875)scale(0.2 -0.2)">
       <defs>
        <path d="M 31.78125 66.40625 
Q 24.171875 66.40625 20.328125 58.90625 
Q 16.5 51.421875 16.5 36.375 
Q 16.5 21.390625 20.328125 13.890625 
Q 24.171875 6.390625 31.78125 6.390625 
Q 39.453125 6.390625 43.28125 13.890625 
Q 47.125 21.390625 47.125 36.375 
Q 47.125 51.421875 43.28125 58.90625 
Q 39.453125 66.40625 31.78125 66.40625 
z
M 31.78125 74.21875 
Q 44.046875 74.21875 50.515625 64.515625 
Q 56.984375 54.828125 56.984375 36.375 
Q 56.984375 17.96875 50.515625 8.265625 
Q 44.046875 -1.421875 31.78125 -1.421875 
Q 19.53125 -1.421875 13.0625 8.265625 
Q 6.59375 17.96875 6.59375 36.375 
Q 6.59375 54.828125 13.0625 64.515625 
Q 19.53125 74.21875 31.78125 74.21875 
z
" id="DejaVuSans-48"/>
       </defs>
       <use xlink:href="#DejaVuSans-48"/>
      </g>
     </g>
    </g>
    <g id="xtick_2">
     <g id="line2d_7">
      <path clip-path="url(#p124c2bc987)" d="M 137.910857 298.944 
L 137.910857 27.648 
" style="fill:none;stroke:#b0b0b0;stroke-linecap:square;stroke-width:0.8;"/>
     </g>
     <g id="line2d_8">
      <g>
       <use style="stroke:#000000;stroke-width:0.8;" x="137.910857" xlink:href="#mab9c18765e" y="298.944"/>
      </g>
     </g>
     <g id="text_2">
      <!-- 2 -->
      <g transform="translate(131.548357 321.140875)scale(0.2 -0.2)">
       <defs>
        <path d="M 19.1875 8.296875 
L 53.609375 8.296875 
L 53.609375 0 
L 7.328125 0 
L 7.328125 8.296875 
Q 12.9375 14.109375 22.625 23.890625 
Q 32.328125 33.6875 34.8125 36.53125 
Q 39.546875 41.84375 41.421875 45.53125 
Q 43.3125 49.21875 43.3125 52.78125 
Q 43.3125 58.59375 39.234375 62.25 
Q 35.15625 65.921875 28.609375 65.921875 
Q 23.96875 65.921875 18.8125 64.3125 
Q 13.671875 62.703125 7.8125 59.421875 
L 7.8125 69.390625 
Q 13.765625 71.78125 18.9375 73 
Q 24.125 74.21875 28.421875 74.21875 
Q 39.75 74.21875 46.484375 68.546875 
Q 53.21875 62.890625 53.21875 53.421875 
Q 53.21875 48.921875 51.53125 44.890625 
Q 49.859375 40.875 45.40625 35.40625 
Q 44.1875 33.984375 37.640625 27.21875 
Q 31.109375 20.453125 19.1875 8.296875 
z
" id="DejaVuSans-50"/>
       </defs>
       <use xlink:href="#DejaVuSans-50"/>
      </g>
     </g>
    </g>
    <g id="xtick_3">
     <g id="line2d_9">
      <path clip-path="url(#p124c2bc987)" d="M 218.221714 298.944 
L 218.221714 27.648 
" style="fill:none;stroke:#b0b0b0;stroke-linecap:square;stroke-width:0.8;"/>
     </g>
     <g id="line2d_10">
      <g>
       <use style="stroke:#000000;stroke-width:0.8;" x="218.221714" xlink:href="#mab9c18765e" y="298.944"/>
      </g>
     </g>
     <g id="text_3">
      <!-- 4 -->
      <g transform="translate(211.859214 321.140875)scale(0.2 -0.2)">
       <defs>
        <path d="M 37.796875 64.3125 
L 12.890625 25.390625 
L 37.796875 25.390625 
z
M 35.203125 72.90625 
L 47.609375 72.90625 
L 47.609375 25.390625 
L 58.015625 25.390625 
L 58.015625 17.1875 
L 47.609375 17.1875 
L 47.609375 0 
L 37.796875 0 
L 37.796875 17.1875 
L 4.890625 17.1875 
L 4.890625 26.703125 
z
" id="DejaVuSans-52"/>
       </defs>
       <use xlink:href="#DejaVuSans-52"/>
      </g>
     </g>
    </g>
    <g id="xtick_4">
     <g id="line2d_11">
      <path clip-path="url(#p124c2bc987)" d="M 298.532571 298.944 
L 298.532571 27.648 
" style="fill:none;stroke:#b0b0b0;stroke-linecap:square;stroke-width:0.8;"/>
     </g>
     <g id="line2d_12">
      <g>
       <use style="stroke:#000000;stroke-width:0.8;" x="298.532571" xlink:href="#mab9c18765e" y="298.944"/>
      </g>
     </g>
     <g id="text_4">
      <!-- 6 -->
      <g transform="translate(292.170071 321.140875)scale(0.2 -0.2)">
       <defs>
        <path d="M 33.015625 40.375 
Q 26.375 40.375 22.484375 35.828125 
Q 18.609375 31.296875 18.609375 23.390625 
Q 18.609375 15.53125 22.484375 10.953125 
Q 26.375 6.390625 33.015625 6.390625 
Q 39.65625 6.390625 43.53125 10.953125 
Q 47.40625 15.53125 47.40625 23.390625 
Q 47.40625 31.296875 43.53125 35.828125 
Q 39.65625 40.375 33.015625 40.375 
z
M 52.59375 71.296875 
L 52.59375 62.3125 
Q 48.875 64.0625 45.09375 64.984375 
Q 41.3125 65.921875 37.59375 65.921875 
Q 27.828125 65.921875 22.671875 59.328125 
Q 17.53125 52.734375 16.796875 39.40625 
Q 19.671875 43.65625 24.015625 45.921875 
Q 28.375 48.1875 33.59375 48.1875 
Q 44.578125 48.1875 50.953125 41.515625 
Q 57.328125 34.859375 57.328125 23.390625 
Q 57.328125 12.15625 50.6875 5.359375 
Q 44.046875 -1.421875 33.015625 -1.421875 
Q 20.359375 -1.421875 13.671875 8.265625 
Q 6.984375 17.96875 6.984375 36.375 
Q 6.984375 53.65625 15.1875 63.9375 
Q 23.390625 74.21875 37.203125 74.21875 
Q 40.921875 74.21875 44.703125 73.484375 
Q 48.484375 72.75 52.59375 71.296875 
z
" id="DejaVuSans-54"/>
       </defs>
       <use xlink:href="#DejaVuSans-54"/>
      </g>
     </g>
    </g>
    <g id="xtick_5">
     <g id="line2d_13">
      <path clip-path="url(#p124c2bc987)" d="M 97.755429 298.944 
L 97.755429 27.648 
" style="fill:none;stroke:#b0b0b0;stroke-linecap:square;stroke-width:0.8;"/>
     </g>
     <g id="line2d_14">
      <defs>
       <path d="M 0 0 
L 0 2 
" id="m18548975c8" style="stroke:#000000;stroke-width:0.6;"/>
      </defs>
      <g>
       <use style="stroke:#000000;stroke-width:0.6;" x="97.755429" xlink:href="#m18548975c8" y="298.944"/>
      </g>
     </g>
    </g>
    <g id="xtick_6">
     <g id="line2d_15">
      <path clip-path="url(#p124c2bc987)" d="M 178.066286 298.944 
L 178.066286 27.648 
" style="fill:none;stroke:#b0b0b0;stroke-linecap:square;stroke-width:0.8;"/>
     </g>
     <g id="line2d_16">
      <g>
       <use style="stroke:#000000;stroke-width:0.6;" x="178.066286" xlink:href="#m18548975c8" y="298.944"/>
      </g>
     </g>
    </g>
    <g id="xtick_7">
     <g id="line2d_17">
      <path clip-path="url(#p124c2bc987)" d="M 258.377143 298.944 
L 258.377143 27.648 
" style="fill:none;stroke:#b0b0b0;stroke-linecap:square;stroke-width:0.8;"/>
     </g>
     <g id="line2d_18">
      <g>
       <use style="stroke:#000000;stroke-width:0.6;" x="258.377143" xlink:href="#m18548975c8" y="298.944"/>
      </g>
     </g>
    </g>
    <g id="xtick_8">
     <g id="line2d_19">
      <path clip-path="url(#p124c2bc987)" d="M 338.688 298.944 
L 338.688 27.648 
" style="fill:none;stroke:#b0b0b0;stroke-linecap:square;stroke-width:0.8;"/>
     </g>
     <g id="line2d_20">
      <g>
       <use style="stroke:#000000;stroke-width:0.6;" x="338.688" xlink:href="#m18548975c8" y="298.944"/>
      </g>
     </g>
    </g>
    <g id="text_5">
     <!-- log10(# f-evals / dimension) -->
     <g transform="translate(77.764078 342.217594)scale(0.17 -0.17)">
      <defs>
       <path d="M 9.421875 75.984375 
L 18.40625 75.984375 
L 18.40625 0 
L 9.421875 0 
z
" id="DejaVuSans-108"/>
       <path d="M 30.609375 48.390625 
Q 23.390625 48.390625 19.1875 42.75 
Q 14.984375 37.109375 14.984375 27.296875 
Q 14.984375 17.484375 19.15625 11.84375 
Q 23.34375 6.203125 30.609375 6.203125 
Q 37.796875 6.203125 41.984375 11.859375 
Q 46.1875 17.53125 46.1875 27.296875 
Q 46.1875 37.015625 41.984375 42.703125 
Q 37.796875 48.390625 30.609375 48.390625 
z
M 30.609375 56 
Q 42.328125 56 49.015625 48.375 
Q 55.71875 40.765625 55.71875 27.296875 
Q 55.71875 13.875 49.015625 6.21875 
Q 42.328125 -1.421875 30.609375 -1.421875 
Q 18.84375 -1.421875 12.171875 6.21875 
Q 5.515625 13.875 5.515625 27.296875 
Q 5.515625 40.765625 12.171875 48.375 
Q 18.84375 56 30.609375 56 
z
" id="DejaVuSans-111"/>
       <path d="M 45.40625 27.984375 
Q 45.40625 37.75 41.375 43.109375 
Q 37.359375 48.484375 30.078125 48.484375 
Q 22.859375 48.484375 18.828125 43.109375 
Q 14.796875 37.75 14.796875 27.984375 
Q 14.796875 18.265625 18.828125 12.890625 
Q 22.859375 7.515625 30.078125 7.515625 
Q 37.359375 7.515625 41.375 12.890625 
Q 45.40625 18.265625 45.40625 27.984375 
z
M 54.390625 6.78125 
Q 54.390625 -7.171875 48.1875 -13.984375 
Q 42 -20.796875 29.203125 -20.796875 
Q 24.46875 -20.796875 20.265625 -20.09375 
Q 16.0625 -19.390625 12.109375 -17.921875 
L 12.109375 -9.1875 
Q 16.0625 -11.328125 19.921875 -12.34375 
Q 23.78125 -13.375 27.78125 -13.375 
Q 36.625 -13.375 41.015625 -8.765625 
Q 45.40625 -4.15625 45.40625 5.171875 
L 45.40625 9.625 
Q 42.625 4.78125 38.28125 2.390625 
Q 33.9375 0 27.875 0 
Q 17.828125 0 11.671875 7.65625 
Q 5.515625 15.328125 5.515625 27.984375 
Q 5.515625 40.671875 11.671875 48.328125 
Q 17.828125 56 27.875 56 
Q 33.9375 56 38.28125 53.609375 
Q 42.625 51.21875 45.40625 46.390625 
L 45.40625 54.6875 
L 54.390625 54.6875 
z
" id="DejaVuSans-103"/>
       <path d="M 12.40625 8.296875 
L 28.515625 8.296875 
L 28.515625 63.921875 
L 10.984375 60.40625 
L 10.984375 69.390625 
L 28.421875 72.90625 
L 38.28125 72.90625 
L 38.28125 8.296875 
L 54.390625 8.296875 
L 54.390625 0 
L 12.40625 0 
z
" id="DejaVuSans-49"/>
       <path d="M 31 75.875 
Q 24.46875 64.65625 21.28125 53.65625 
Q 18.109375 42.671875 18.109375 31.390625 
Q 18.109375 20.125 21.3125 9.0625 
Q 24.515625 -2 31 -13.1875 
L 23.1875 -13.1875 
Q 15.875 -1.703125 12.234375 9.375 
Q 8.59375 20.453125 8.59375 31.390625 
Q 8.59375 42.28125 12.203125 53.3125 
Q 15.828125 64.359375 23.1875 75.875 
z
" id="DejaVuSans-40"/>
       <path d="M 51.125 44 
L 36.921875 44 
L 32.8125 27.6875 
L 47.125 27.6875 
z
M 43.796875 71.78125 
L 38.71875 51.515625 
L 52.984375 51.515625 
L 58.109375 71.78125 
L 65.921875 71.78125 
L 60.890625 51.515625 
L 76.125 51.515625 
L 76.125 44 
L 58.984375 44 
L 54.984375 27.6875 
L 70.515625 27.6875 
L 70.515625 20.21875 
L 53.078125 20.21875 
L 48 0 
L 40.1875 0 
L 45.21875 20.21875 
L 30.90625 20.21875 
L 25.875 0 
L 18.015625 0 
L 23.09375 20.21875 
L 7.71875 20.21875 
L 7.71875 27.6875 
L 24.90625 27.6875 
L 29 44 
L 13.28125 44 
L 13.28125 51.515625 
L 30.90625 51.515625 
L 35.890625 71.78125 
z
" id="DejaVuSans-35"/>
       <path id="DejaVuSans-32"/>
       <path d="M 37.109375 75.984375 
L 37.109375 68.5 
L 28.515625 68.5 
Q 23.6875 68.5 21.796875 66.546875 
Q 19.921875 64.59375 19.921875 59.515625 
L 19.921875 54.6875 
L 34.71875 54.6875 
L 34.71875 47.703125 
L 19.921875 47.703125 
L 19.921875 0 
L 10.890625 0 
L 10.890625 47.703125 
L 2.296875 47.703125 
L 2.296875 54.6875 
L 10.890625 54.6875 
L 10.890625 58.5 
Q 10.890625 67.625 15.140625 71.796875 
Q 19.390625 75.984375 28.609375 75.984375 
z
" id="DejaVuSans-102"/>
       <path d="M 4.890625 31.390625 
L 31.203125 31.390625 
L 31.203125 23.390625 
L 4.890625 23.390625 
z
" id="DejaVuSans-45"/>
       <path d="M 56.203125 29.59375 
L 56.203125 25.203125 
L 14.890625 25.203125 
Q 15.484375 15.921875 20.484375 11.0625 
Q 25.484375 6.203125 34.421875 6.203125 
Q 39.59375 6.203125 44.453125 7.46875 
Q 49.3125 8.734375 54.109375 11.28125 
L 54.109375 2.78125 
Q 49.265625 0.734375 44.1875 -0.34375 
Q 39.109375 -1.421875 33.890625 -1.421875 
Q 20.796875 -1.421875 13.15625 6.1875 
Q 5.515625 13.8125 5.515625 26.8125 
Q 5.515625 40.234375 12.765625 48.109375 
Q 20.015625 56 32.328125 56 
Q 43.359375 56 49.78125 48.890625 
Q 56.203125 41.796875 56.203125 29.59375 
z
M 47.21875 32.234375 
Q 47.125 39.59375 43.09375 43.984375 
Q 39.0625 48.390625 32.421875 48.390625 
Q 24.90625 48.390625 20.390625 44.140625 
Q 15.875 39.890625 15.1875 32.171875 
z
" id="DejaVuSans-101"/>
       <path d="M 2.984375 54.6875 
L 12.5 54.6875 
L 29.59375 8.796875 
L 46.6875 54.6875 
L 56.203125 54.6875 
L 35.6875 0 
L 23.484375 0 
z
" id="DejaVuSans-118"/>
       <path d="M 34.28125 27.484375 
Q 23.390625 27.484375 19.1875 25 
Q 14.984375 22.515625 14.984375 16.5 
Q 14.984375 11.71875 18.140625 8.90625 
Q 21.296875 6.109375 26.703125 6.109375 
Q 34.1875 6.109375 38.703125 11.40625 
Q 43.21875 16.703125 43.21875 25.484375 
L 43.21875 27.484375 
z
M 52.203125 31.203125 
L 52.203125 0 
L 43.21875 0 
L 43.21875 8.296875 
Q 40.140625 3.328125 35.546875 0.953125 
Q 30.953125 -1.421875 24.3125 -1.421875 
Q 15.921875 -1.421875 10.953125 3.296875 
Q 6 8.015625 6 15.921875 
Q 6 25.140625 12.171875 29.828125 
Q 18.359375 34.515625 30.609375 34.515625 
L 43.21875 34.515625 
L 43.21875 35.40625 
Q 43.21875 41.609375 39.140625 45 
Q 35.0625 48.390625 27.6875 48.390625 
Q 23 48.390625 18.546875 47.265625 
Q 14.109375 46.140625 10.015625 43.890625 
L 10.015625 52.203125 
Q 14.9375 54.109375 19.578125 55.046875 
Q 24.21875 56 28.609375 56 
Q 40.484375 56 46.34375 49.84375 
Q 52.203125 43.703125 52.203125 31.203125 
z
" id="DejaVuSans-97"/>
       <path d="M 44.28125 53.078125 
L 44.28125 44.578125 
Q 40.484375 46.53125 36.375 47.5 
Q 32.28125 48.484375 27.875 48.484375 
Q 21.1875 48.484375 17.84375 46.4375 
Q 14.5 44.390625 14.5 40.28125 
Q 14.5 37.15625 16.890625 35.375 
Q 19.28125 33.59375 26.515625 31.984375 
L 29.59375 31.296875 
Q 39.15625 29.25 43.1875 25.515625 
Q 47.21875 21.78125 47.21875 15.09375 
Q 47.21875 7.46875 41.1875 3.015625 
Q 35.15625 -1.421875 24.609375 -1.421875 
Q 20.21875 -1.421875 15.453125 -0.5625 
Q 10.6875 0.296875 5.421875 2 
L 5.421875 11.28125 
Q 10.40625 8.6875 15.234375 7.390625 
Q 20.0625 6.109375 24.8125 6.109375 
Q 31.15625 6.109375 34.5625 8.28125 
Q 37.984375 10.453125 37.984375 14.40625 
Q 37.984375 18.0625 35.515625 20.015625 
Q 33.0625 21.96875 24.703125 23.78125 
L 21.578125 24.515625 
Q 13.234375 26.265625 9.515625 29.90625 
Q 5.8125 33.546875 5.8125 39.890625 
Q 5.8125 47.609375 11.28125 51.796875 
Q 16.75 56 26.8125 56 
Q 31.78125 56 36.171875 55.265625 
Q 40.578125 54.546875 44.28125 53.078125 
z
" id="DejaVuSans-115"/>
       <path d="M 25.390625 72.90625 
L 33.6875 72.90625 
L 8.296875 -9.28125 
L 0 -9.28125 
z
" id="DejaVuSans-47"/>
       <path d="M 45.40625 46.390625 
L 45.40625 75.984375 
L 54.390625 75.984375 
L 54.390625 0 
L 45.40625 0 
L 45.40625 8.203125 
Q 42.578125 3.328125 38.25 0.953125 
Q 33.9375 -1.421875 27.875 -1.421875 
Q 17.96875 -1.421875 11.734375 6.484375 
Q 5.515625 14.40625 5.515625 27.296875 
Q 5.515625 40.1875 11.734375 48.09375 
Q 17.96875 56 27.875 56 
Q 33.9375 56 38.25 53.625 
Q 42.578125 51.265625 45.40625 46.390625 
z
M 14.796875 27.296875 
Q 14.796875 17.390625 18.875 11.75 
Q 22.953125 6.109375 30.078125 6.109375 
Q 37.203125 6.109375 41.296875 11.75 
Q 45.40625 17.390625 45.40625 27.296875 
Q 45.40625 37.203125 41.296875 42.84375 
Q 37.203125 48.484375 30.078125 48.484375 
Q 22.953125 48.484375 18.875 42.84375 
Q 14.796875 37.203125 14.796875 27.296875 
z
" id="DejaVuSans-100"/>
       <path d="M 9.421875 54.6875 
L 18.40625 54.6875 
L 18.40625 0 
L 9.421875 0 
z
M 9.421875 75.984375 
L 18.40625 75.984375 
L 18.40625 64.59375 
L 9.421875 64.59375 
z
" id="DejaVuSans-105"/>
       <path d="M 52 44.1875 
Q 55.375 50.25 60.0625 53.125 
Q 64.75 56 71.09375 56 
Q 79.640625 56 84.28125 50.015625 
Q 88.921875 44.046875 88.921875 33.015625 
L 88.921875 0 
L 79.890625 0 
L 79.890625 32.71875 
Q 79.890625 40.578125 77.09375 44.375 
Q 74.3125 48.1875 68.609375 48.1875 
Q 61.625 48.1875 57.5625 43.546875 
Q 53.515625 38.921875 53.515625 30.90625 
L 53.515625 0 
L 44.484375 0 
L 44.484375 32.71875 
Q 44.484375 40.625 41.703125 44.40625 
Q 38.921875 48.1875 33.109375 48.1875 
Q 26.21875 48.1875 22.15625 43.53125 
Q 18.109375 38.875 18.109375 30.90625 
L 18.109375 0 
L 9.078125 0 
L 9.078125 54.6875 
L 18.109375 54.6875 
L 18.109375 46.1875 
Q 21.1875 51.21875 25.484375 53.609375 
Q 29.78125 56 35.6875 56 
Q 41.65625 56 45.828125 52.96875 
Q 50 49.953125 52 44.1875 
z
" id="DejaVuSans-109"/>
       <path d="M 54.890625 33.015625 
L 54.890625 0 
L 45.90625 0 
L 45.90625 32.71875 
Q 45.90625 40.484375 42.875 44.328125 
Q 39.84375 48.1875 33.796875 48.1875 
Q 26.515625 48.1875 22.3125 43.546875 
Q 18.109375 38.921875 18.109375 30.90625 
L 18.109375 0 
L 9.078125 0 
L 9.078125 54.6875 
L 18.109375 54.6875 
L 18.109375 46.1875 
Q 21.34375 51.125 25.703125 53.5625 
Q 30.078125 56 35.796875 56 
Q 45.21875 56 50.046875 50.171875 
Q 54.890625 44.34375 54.890625 33.015625 
z
" id="DejaVuSans-110"/>
       <path d="M 8.015625 75.875 
L 15.828125 75.875 
Q 23.140625 64.359375 26.78125 53.3125 
Q 30.421875 42.28125 30.421875 31.390625 
Q 30.421875 20.453125 26.78125 9.375 
Q 23.140625 -1.703125 15.828125 -13.1875 
L 8.015625 -13.1875 
Q 14.5 -2 17.703125 9.0625 
Q 20.90625 20.125 20.90625 31.390625 
Q 20.90625 42.671875 17.703125 53.65625 
Q 14.5 64.65625 8.015625 75.875 
z
" id="DejaVuSans-41"/>
      </defs>
      <use xlink:href="#DejaVuSans-108"/>
      <use x="27.783203" xlink:href="#DejaVuSans-111"/>
      <use x="88.964844" xlink:href="#DejaVuSans-103"/>
      <use x="152.441406" xlink:href="#DejaVuSans-49"/>
      <use x="216.064453" xlink:href="#DejaVuSans-48"/>
      <use x="279.6875" xlink:href="#DejaVuSans-40"/>
      <use x="318.701172" xlink:href="#DejaVuSans-35"/>
      <use x="402.490234" xlink:href="#DejaVuSans-32"/>
      <use x="434.277344" xlink:href="#DejaVuSans-102"/>
      <use x="463.982422" xlink:href="#DejaVuSans-45"/>
      <use x="500.066406" xlink:href="#DejaVuSans-101"/>
      <use x="561.589844" xlink:href="#DejaVuSans-118"/>
      <use x="620.769531" xlink:href="#DejaVuSans-97"/>
      <use x="682.048828" xlink:href="#DejaVuSans-108"/>
      <use x="709.832031" xlink:href="#DejaVuSans-115"/>
      <use x="761.931641" xlink:href="#DejaVuSans-32"/>
      <use x="793.71875" xlink:href="#DejaVuSans-47"/>
      <use x="827.410156" xlink:href="#DejaVuSans-32"/>
      <use x="859.197266" xlink:href="#DejaVuSans-100"/>
      <use x="922.673828" xlink:href="#DejaVuSans-105"/>
      <use x="950.457031" xlink:href="#DejaVuSans-109"/>
      <use x="1047.869141" xlink:href="#DejaVuSans-101"/>
      <use x="1109.392578" xlink:href="#DejaVuSans-110"/>
      <use x="1172.771484" xlink:href="#DejaVuSans-115"/>
      <use x="1224.871094" xlink:href="#DejaVuSans-105"/>
      <use x="1252.654297" xlink:href="#DejaVuSans-111"/>
      <use x="1313.835938" xlink:href="#DejaVuSans-110"/>
      <use x="1377.214844" xlink:href="#DejaVuSans-41"/>
     </g>
    </g>
   </g>
   <g id="matplotlib.axis_2">
    <g id="ytick_1">
     <g id="line2d_21">
      <path clip-path="url(#p124c2bc987)" d="M 57.6 298.944 
L 338.688 298.944 
" style="fill:none;stroke:#b0b0b0;stroke-linecap:square;stroke-width:0.8;"/>
     </g>
     <g id="line2d_22">
      <defs>
       <path d="M 0 0 
L -3.5 0 
" id="mf3779a56b2" style="stroke:#000000;stroke-width:0.8;"/>
      </defs>
      <g>
       <use style="stroke:#000000;stroke-width:0.8;" x="57.6" xlink:href="#mf3779a56b2" y="298.944"/>
      </g>
     </g>
     <g id="text_6">
      <!-- 0.0 -->
      <g transform="translate(25.155 305.02275)scale(0.16 -0.16)">
       <defs>
        <path d="M 10.6875 12.40625 
L 21 12.40625 
L 21 0 
L 10.6875 0 
z
" id="DejaVuSans-46"/>
       </defs>
       <use xlink:href="#DejaVuSans-48"/>
       <use x="63.623047" xlink:href="#DejaVuSans-46"/>
       <use x="95.410156" xlink:href="#DejaVuSans-48"/>
      </g>
     </g>
    </g>
    <g id="ytick_2">
     <g id="line2d_23">
      <path clip-path="url(#p124c2bc987)" d="M 57.6 245.22202 
L 338.688 245.22202 
" style="fill:none;stroke:#b0b0b0;stroke-linecap:square;stroke-width:0.8;"/>
     </g>
     <g id="line2d_24">
      <g>
       <use style="stroke:#000000;stroke-width:0.8;" x="57.6" xlink:href="#mf3779a56b2" y="245.22202"/>
      </g>
     </g>
     <g id="text_7">
      <!-- 0.2 -->
      <g transform="translate(25.155 251.30077)scale(0.16 -0.16)">
       <use xlink:href="#DejaVuSans-48"/>
       <use x="63.623047" xlink:href="#DejaVuSans-46"/>
       <use x="95.410156" xlink:href="#DejaVuSans-50"/>
      </g>
     </g>
    </g>
    <g id="ytick_3">
     <g id="line2d_25">
      <path clip-path="url(#p124c2bc987)" d="M 57.6 191.50004 
L 338.688 191.50004 
" style="fill:none;stroke:#b0b0b0;stroke-linecap:square;stroke-width:0.8;"/>
     </g>
     <g id="line2d_26">
      <g>
       <use style="stroke:#000000;stroke-width:0.8;" x="57.6" xlink:href="#mf3779a56b2" y="191.50004"/>
      </g>
     </g>
     <g id="text_8">
      <!-- 0.4 -->
      <g transform="translate(25.155 197.57879)scale(0.16 -0.16)">
       <use xlink:href="#DejaVuSans-48"/>
       <use x="63.623047" xlink:href="#DejaVuSans-46"/>
       <use x="95.410156" xlink:href="#DejaVuSans-52"/>
      </g>
     </g>
    </g>
    <g id="ytick_4">
     <g id="line2d_27">
      <path clip-path="url(#p124c2bc987)" d="M 57.6 137.778059 
L 338.688 137.778059 
" style="fill:none;stroke:#b0b0b0;stroke-linecap:square;stroke-width:0.8;"/>
     </g>
     <g id="line2d_28">
      <g>
       <use style="stroke:#000000;stroke-width:0.8;" x="57.6" xlink:href="#mf3779a56b2" y="137.778059"/>
      </g>
     </g>
     <g id="text_9">
      <!-- 0.6 -->
      <g transform="translate(25.155 143.856809)scale(0.16 -0.16)">
       <use xlink:href="#DejaVuSans-48"/>
       <use x="63.623047" xlink:href="#DejaVuSans-46"/>
       <use x="95.410156" xlink:href="#DejaVuSans-54"/>
      </g>
     </g>
    </g>
    <g id="ytick_5">
     <g id="line2d_29">
      <path clip-path="url(#p124c2bc987)" d="M 57.6 84.056079 
L 338.688 84.056079 
" style="fill:none;stroke:#b0b0b0;stroke-linecap:square;stroke-width:0.8;"/>
     </g>
     <g id="line2d_30">
      <g>
       <use style="stroke:#000000;stroke-width:0.8;" x="57.6" xlink:href="#mf3779a56b2" y="84.056079"/>
      </g>
     </g>
     <g id="text_10">
      <!-- 0.8 -->
      <g transform="translate(25.155 90.134829)scale(0.16 -0.16)">
       <defs>
        <path d="M 31.78125 34.625 
Q 24.75 34.625 20.71875 30.859375 
Q 16.703125 27.09375 16.703125 20.515625 
Q 16.703125 13.921875 20.71875 10.15625 
Q 24.75 6.390625 31.78125 6.390625 
Q 38.8125 6.390625 42.859375 10.171875 
Q 46.921875 13.96875 46.921875 20.515625 
Q 46.921875 27.09375 42.890625 30.859375 
Q 38.875 34.625 31.78125 34.625 
z
M 21.921875 38.8125 
Q 15.578125 40.375 12.03125 44.71875 
Q 8.5 49.078125 8.5 55.328125 
Q 8.5 64.0625 14.71875 69.140625 
Q 20.953125 74.21875 31.78125 74.21875 
Q 42.671875 74.21875 48.875 69.140625 
Q 55.078125 64.0625 55.078125 55.328125 
Q 55.078125 49.078125 51.53125 44.71875 
Q 48 40.375 41.703125 38.8125 
Q 48.828125 37.15625 52.796875 32.3125 
Q 56.78125 27.484375 56.78125 20.515625 
Q 56.78125 9.90625 50.3125 4.234375 
Q 43.84375 -1.421875 31.78125 -1.421875 
Q 19.734375 -1.421875 13.25 4.234375 
Q 6.78125 9.90625 6.78125 20.515625 
Q 6.78125 27.484375 10.78125 32.3125 
Q 14.796875 37.15625 21.921875 38.8125 
z
M 18.3125 54.390625 
Q 18.3125 48.734375 21.84375 45.5625 
Q 25.390625 42.390625 31.78125 42.390625 
Q 38.140625 42.390625 41.71875 45.5625 
Q 45.3125 48.734375 45.3125 54.390625 
Q 45.3125 60.0625 41.71875 63.234375 
Q 38.140625 66.40625 31.78125 66.40625 
Q 25.390625 66.40625 21.84375 63.234375 
Q 18.3125 60.0625 18.3125 54.390625 
z
" id="DejaVuSans-56"/>
       </defs>
       <use xlink:href="#DejaVuSans-48"/>
       <use x="63.623047" xlink:href="#DejaVuSans-46"/>
       <use x="95.410156" xlink:href="#DejaVuSans-56"/>
      </g>
     </g>
    </g>
    <g id="ytick_6">
     <g id="line2d_31">
      <path clip-path="url(#p124c2bc987)" d="M 57.6 30.334099 
L 338.688 30.334099 
" style="fill:none;stroke:#b0b0b0;stroke-linecap:square;stroke-width:0.8;"/>
     </g>
     <g id="line2d_32">
      <g>
       <use style="stroke:#000000;stroke-width:0.8;" x="57.6" xlink:href="#mf3779a56b2" y="30.334099"/>
      </g>
     </g>
     <g id="text_11">
      <!-- 1.0 -->
      <g transform="translate(25.155 36.412849)scale(0.16 -0.16)">
       <use xlink:href="#DejaVuSans-49"/>
       <use x="63.623047" xlink:href="#DejaVuSans-46"/>
       <use x="95.410156" xlink:href="#DejaVuSans-48"/>
      </g>
     </g>
    </g>
    <g id="text_12">
     <!-- Fraction of function,target pairs -->
     <g transform="translate(17.619531 297.681)rotate(-90)scale(0.17 -0.17)">
      <defs>
       <path d="M 9.8125 72.90625 
L 51.703125 72.90625 
L 51.703125 64.59375 
L 19.671875 64.59375 
L 19.671875 43.109375 
L 48.578125 43.109375 
L 48.578125 34.8125 
L 19.671875 34.8125 
L 19.671875 0 
L 9.8125 0 
z
" id="DejaVuSans-70"/>
       <path d="M 41.109375 46.296875 
Q 39.59375 47.171875 37.8125 47.578125 
Q 36.03125 48 33.890625 48 
Q 26.265625 48 22.1875 43.046875 
Q 18.109375 38.09375 18.109375 28.8125 
L 18.109375 0 
L 9.078125 0 
L 9.078125 54.6875 
L 18.109375 54.6875 
L 18.109375 46.1875 
Q 20.953125 51.171875 25.484375 53.578125 
Q 30.03125 56 36.53125 56 
Q 37.453125 56 38.578125 55.875 
Q 39.703125 55.765625 41.0625 55.515625 
z
" id="DejaVuSans-114"/>
       <path d="M 48.78125 52.59375 
L 48.78125 44.1875 
Q 44.96875 46.296875 41.140625 47.34375 
Q 37.3125 48.390625 33.40625 48.390625 
Q 24.65625 48.390625 19.8125 42.84375 
Q 14.984375 37.3125 14.984375 27.296875 
Q 14.984375 17.28125 19.8125 11.734375 
Q 24.65625 6.203125 33.40625 6.203125 
Q 37.3125 6.203125 41.140625 7.25 
Q 44.96875 8.296875 48.78125 10.40625 
L 48.78125 2.09375 
Q 45.015625 0.34375 40.984375 -0.53125 
Q 36.96875 -1.421875 32.421875 -1.421875 
Q 20.0625 -1.421875 12.78125 6.34375 
Q 5.515625 14.109375 5.515625 27.296875 
Q 5.515625 40.671875 12.859375 48.328125 
Q 20.21875 56 33.015625 56 
Q 37.15625 56 41.109375 55.140625 
Q 45.0625 54.296875 48.78125 52.59375 
z
" id="DejaVuSans-99"/>
       <path d="M 18.3125 70.21875 
L 18.3125 54.6875 
L 36.8125 54.6875 
L 36.8125 47.703125 
L 18.3125 47.703125 
L 18.3125 18.015625 
Q 18.3125 11.328125 20.140625 9.421875 
Q 21.96875 7.515625 27.59375 7.515625 
L 36.8125 7.515625 
L 36.8125 0 
L 27.59375 0 
Q 17.1875 0 13.234375 3.875 
Q 9.28125 7.765625 9.28125 18.015625 
L 9.28125 47.703125 
L 2.6875 47.703125 
L 2.6875 54.6875 
L 9.28125 54.6875 
L 9.28125 70.21875 
z
" id="DejaVuSans-116"/>
       <path d="M 8.5 21.578125 
L 8.5 54.6875 
L 17.484375 54.6875 
L 17.484375 21.921875 
Q 17.484375 14.15625 20.5 10.265625 
Q 23.53125 6.390625 29.59375 6.390625 
Q 36.859375 6.390625 41.078125 11.03125 
Q 45.3125 15.671875 45.3125 23.6875 
L 45.3125 54.6875 
L 54.296875 54.6875 
L 54.296875 0 
L 45.3125 0 
L 45.3125 8.40625 
Q 42.046875 3.421875 37.71875 1 
Q 33.40625 -1.421875 27.6875 -1.421875 
Q 18.265625 -1.421875 13.375 4.4375 
Q 8.5 10.296875 8.5 21.578125 
z
M 31.109375 56 
z
" id="DejaVuSans-117"/>
       <path d="M 11.71875 12.40625 
L 22.015625 12.40625 
L 22.015625 4 
L 14.015625 -11.625 
L 7.71875 -11.625 
L 11.71875 4 
z
" id="DejaVuSans-44"/>
       <path d="M 18.109375 8.203125 
L 18.109375 -20.796875 
L 9.078125 -20.796875 
L 9.078125 54.6875 
L 18.109375 54.6875 
L 18.109375 46.390625 
Q 20.953125 51.265625 25.265625 53.625 
Q 29.59375 56 35.59375 56 
Q 45.5625 56 51.78125 48.09375 
Q 58.015625 40.1875 58.015625 27.296875 
Q 58.015625 14.40625 51.78125 6.484375 
Q 45.5625 -1.421875 35.59375 -1.421875 
Q 29.59375 -1.421875 25.265625 0.953125 
Q 20.953125 3.328125 18.109375 8.203125 
z
M 48.6875 27.296875 
Q 48.6875 37.203125 44.609375 42.84375 
Q 40.53125 48.484375 33.40625 48.484375 
Q 26.265625 48.484375 22.1875 42.84375 
Q 18.109375 37.203125 18.109375 27.296875 
Q 18.109375 17.390625 22.1875 11.75 
Q 26.265625 6.109375 33.40625 6.109375 
Q 40.53125 6.109375 44.609375 11.75 
Q 48.6875 17.390625 48.6875 27.296875 
z
" id="DejaVuSans-112"/>
      </defs>
      <use xlink:href="#DejaVuSans-70"/>
      <use x="50.269531" xlink:href="#DejaVuSans-114"/>
      <use x="91.382812" xlink:href="#DejaVuSans-97"/>
      <use x="152.662109" xlink:href="#DejaVuSans-99"/>
      <use x="207.642578" xlink:href="#DejaVuSans-116"/>
      <use x="246.851562" xlink:href="#DejaVuSans-105"/>
      <use x="274.634766" xlink:href="#DejaVuSans-111"/>
      <use x="335.816406" xlink:href="#DejaVuSans-110"/>
      <use x="399.195312" xlink:href="#DejaVuSans-32"/>
      <use x="430.982422" xlink:href="#DejaVuSans-111"/>
      <use x="492.164062" xlink:href="#DejaVuSans-102"/>
      <use x="527.369141" xlink:href="#DejaVuSans-32"/>
      <use x="559.15625" xlink:href="#DejaVuSans-102"/>
      <use x="594.361328" xlink:href="#DejaVuSans-117"/>
      <use x="657.740234" xlink:href="#DejaVuSans-110"/>
      <use x="721.119141" xlink:href="#DejaVuSans-99"/>
      <use x="776.099609" xlink:href="#DejaVuSans-116"/>
      <use x="815.308594" xlink:href="#DejaVuSans-105"/>
      <use x="843.091797" xlink:href="#DejaVuSans-111"/>
      <use x="904.273438" xlink:href="#DejaVuSans-110"/>
      <use x="967.652344" xlink:href="#DejaVuSans-44"/>
      <use x="999.439453" xlink:href="#DejaVuSans-116"/>
      <use x="1038.648438" xlink:href="#DejaVuSans-97"/>
      <use x="1099.927734" xlink:href="#DejaVuSans-114"/>
      <use x="1139.291016" xlink:href="#DejaVuSans-103"/>
      <use x="1202.767578" xlink:href="#DejaVuSans-101"/>
      <use x="1264.291016" xlink:href="#DejaVuSans-116"/>
      <use x="1303.5" xlink:href="#DejaVuSans-32"/>
      <use x="1335.287109" xlink:href="#DejaVuSans-112"/>
      <use x="1398.763672" xlink:href="#DejaVuSans-97"/>
      <use x="1460.042969" xlink:href="#DejaVuSans-105"/>
      <use x="1487.826172" xlink:href="#DejaVuSans-114"/>
      <use x="1528.939453" xlink:href="#DejaVuSans-115"/>
     </g>
    </g>
   </g>
   <g id="line2d_33">
    <defs>
     <path d="M 0 1.5 
C 0.397805 1.5 0.77937 1.341951 1.06066 1.06066 
C 1.341951 0.77937 1.5 0.397805 1.5 0 
C 1.5 -0.397805 1.341951 -0.77937 1.06066 -1.06066 
C 0.77937 -1.341951 0.397805 -1.5 0 -1.5 
C -0.397805 -1.5 -0.77937 -1.341951 -1.06066 -1.06066 
C -1.341951 -0.77937 -1.5 -0.397805 -1.5 0 
C -1.5 0.397805 -1.341951 0.77937 -1.06066 1.06066 
C -0.77937 1.341951 -0.397805 1.5 0 1.5 
z
" id="m7b6650c0b5" style="stroke:#f5deb3;"/>
    </defs>
    <g>
     <use style="fill:#f5deb3;stroke:#f5deb3;" x="176.102467" xlink:href="#m7b6650c0b5" y="30.334099"/>
     <use style="fill:#f5deb3;stroke:#f5deb3;" x="176.102467" xlink:href="#m7b6650c0b5" y="30.334099"/>
    </g>
   </g>
   <g id="line2d_34">
    <defs>
     <path d="M 0 1.5 
C 0.397805 1.5 0.77937 1.341951 1.06066 1.06066 
C 1.341951 0.77937 1.5 0.397805 1.5 0 
C 1.5 -0.397805 1.341951 -0.77937 1.06066 -1.06066 
C 0.77937 -1.341951 0.397805 -1.5 0 -1.5 
C -0.397805 -1.5 -0.77937 -1.341951 -1.06066 -1.06066 
C -1.341951 -0.77937 -1.5 -0.397805 -1.5 0 
C -1.5 0.397805 -1.341951 0.77937 -1.06066 1.06066 
C -0.77937 1.341951 -0.397805 1.5 0 1.5 
z
" id="md8f21a61bd" style="stroke:#000080;"/>
    </defs>
    <g>
     <use style="fill:#000080;stroke:#000080;" x="182.775365" xlink:href="#md8f21a61bd" y="30.334099"/>
     <use style="fill:#000080;stroke:#000080;" x="182.775365" xlink:href="#md8f21a61bd" y="30.334099"/>
    </g>
   </g>
   <g id="line2d_35">
    <path d="M 5.356583 298.944 
L 5.356583 293.677139 
L 24.515591 293.677139 
L 24.515591 293.150453 
L 39.291857 293.150453 
L 39.291857 292.623767 
L 45.512012 292.623767 
L 45.512012 292.097081 
L 51.379845 292.097081 
L 51.379845 291.570395 
L 55.762588 291.570395 
L 55.762588 291.043709 
L 56.705482 291.043709 
L 56.705482 290.517023 
L 59.262141 290.517023 
L 59.262141 289.990337 
L 60.779557 289.990337 
L 60.779557 289.463651 
L 61.491463 289.463651 
L 61.491463 288.936964 
L 62.175444 288.936964 
L 62.175444 288.410278 
L 63.467834 288.410278 
L 63.467834 287.883592 
L 65.242851 287.883592 
L 65.242851 287.356906 
L 68.79347 287.356906 
L 68.79347 286.83022 
L 70.538854 286.83022 
L 70.538854 286.303534 
L 72.867545 286.303534 
L 72.867545 285.776848 
L 74.263433 285.776848 
L 74.263433 285.250162 
L 74.921597 285.250162 
L 74.921597 284.19679 
L 77.330839 284.19679 
L 77.330839 283.670104 
L 78.154896 283.670104 
L 78.154896 283.143418 
L 78.421149 283.143418 
L 78.421149 282.616732 
L 78.683399 282.616732 
L 78.683399 282.090045 
L 81.109427 282.090045 
L 81.109427 281.563359 
L 81.992617 281.563359 
L 81.992617 281.036673 
L 82.417986 281.036673 
L 82.417986 280.509987 
L 85.492169 280.509987 
L 85.492169 279.983301 
L 86.182924 279.983301 
L 86.182924 279.456615 
L 87.798828 279.456615 
L 87.798828 278.929929 
L 88.701061 278.929929 
L 88.701061 278.403243 
L 91.284345 278.403243 
L 91.284345 277.876557 
L 92.504372 277.876557 
L 92.504372 277.349871 
L 93.533875 277.349871 
L 93.533875 276.823185 
L 93.754628 276.823185 
L 93.754628 276.296499 
L 94.080605 276.296499 
L 94.080605 275.769812 
L 94.610715 275.769812 
L 94.610715 274.71644 
L 96.395835 274.71644 
L 96.395835 274.189754 
L 96.676366 274.189754 
L 96.676366 273.663068 
L 97.313904 273.663068 
L 97.313904 273.136382 
L 97.580158 273.136382 
L 97.580158 272.609696 
L 98.771596 272.609696 
L 98.771596 272.08301 
L 99.258306 272.08301 
L 99.258306 271.556324 
L 102.196206 271.556324 
L 102.196206 271.029638 
L 103.309033 271.029638 
L 103.309033 270.502952 
L 104.533344 270.502952 
L 104.533344 269.976266 
L 105.057436 269.976266 
L 105.057436 269.449579 
L 105.398279 269.449579 
L 105.398279 268.922893 
L 105.566235 268.922893 
L 105.566235 268.396207 
L 105.787689 268.396207 
L 105.897371 266.816149 
L 107.514726 266.816149 
L 107.514726 266.289463 
L 107.90885 266.289463 
L 107.90885 265.236091 
L 108.530893 265.236091 
L 108.577836 264.182719 
L 108.764355 264.182719 
L 108.810674 263.129347 
L 109.401893 263.129347 
L 109.401893 262.60266 
L 109.973724 262.60266 
L 109.973724 262.075974 
L 110.694282 262.075974 
L 110.694282 261.549288 
L 111.819788 261.549288 
L 111.897469 259.96923 
L 112.051799 259.96923 
L 112.051799 259.442544 
L 112.204777 259.442544 
L 112.204777 258.915858 
L 112.39413 258.915858 
L 112.39413 258.389172 
L 112.58145 258.389172 
L 112.655818 257.3358 
L 112.766778 257.3358 
L 112.766778 256.809114 
L 113.769724 256.809114 
L 113.769724 256.282427 
L 113.977337 256.282427 
L 113.977337 255.755741 
L 114.114385 255.755741 
L 114.182507 254.702369 
L 114.618932 254.702369 
L 114.618932 254.175683 
L 115.141496 254.175683 
L 115.141496 253.122311 
L 115.523393 253.122311 
L 115.523393 252.595625 
L 115.989297 252.595625 
L 115.989297 252.068939 
L 116.232781 252.068939 
L 116.262979 251.015567 
L 116.35326 251.015567 
L 116.413189 249.962195 
L 116.650866 249.962195 
L 116.739166 248.382136 
L 116.914437 248.382136 
L 117.001416 247.328764 
L 117.737599 247.328764 
L 117.737599 246.802078 
L 117.875678 246.802078 
L 117.985359 245.748706 
L 118.012672 245.748706 
L 118.012672 244.168648 
L 118.148599 244.168648 
L 118.256582 243.115275 
L 118.838828 243.115275 
L 118.91674 242.061903 
L 119.071527 242.061903 
L 119.071527 240.481845 
L 119.351785 240.481845 
L 119.351785 239.955159 
L 119.602714 239.955159 
L 119.602714 239.428473 
L 119.948058 239.428473 
L 120.045484 237.848415 
L 120.142369 237.848415 
L 120.142369 237.321729 
L 120.262724 237.321729 
L 120.262724 236.795043 
L 120.47729 236.795043 
L 120.47729 236.268356 
L 120.689249 236.268356 
L 120.736003 235.214984 
L 121.013926 235.214984 
L 121.013926 234.688298 
L 121.196777 234.688298 
L 121.196777 234.161612 
L 121.467509 234.161612 
L 121.512225 233.10824 
L 121.77814 233.10824 
L 121.887753 232.054868 
L 122.40451 232.054868 
L 122.40451 231.528182 
L 122.657258 231.528182 
L 122.657258 231.001496 
L 122.885768 231.001496 
L 122.885768 230.47481 
L 123.029641 230.47481 
L 123.07053 229.421437 
L 123.333999 229.421437 
L 123.354102 228.368065 
L 123.533993 228.368065 
L 123.533993 227.841379 
L 123.94666 227.841379 
L 123.94666 226.261321 
L 124.120571 226.261321 
L 124.216444 225.207949 
L 124.406624 225.207949 
L 124.425528 223.627891 
L 124.557288 223.627891 
L 124.557288 222.574518 
L 124.836322 222.574518 
L 124.836322 222.047832 
L 125.074593 222.047832 
L 125.092787 220.99446 
L 125.735454 220.99446 
L 125.805421 219.941088 
L 126.219429 219.941088 
L 126.219429 219.414402 
L 126.78961 219.414402 
L 126.839037 218.36103 
L 127.132689 218.36103 
L 127.148859 216.780971 
L 127.245565 216.780971 
L 127.245565 216.254285 
L 127.595635 216.254285 
L 127.595635 215.727599 
L 127.752464 215.727599 
L 127.752464 214.674227 
L 128.245045 214.674227 
L 128.245045 214.147541 
L 128.797771 214.147541 
L 128.797771 213.620855 
L 128.973336 213.620855 
L 129.045969 212.567483 
L 129.118302 212.567483 
L 129.175952 211.514111 
L 129.347769 211.514111 
L 129.39046 210.460738 
L 129.47553 210.460738 
L 129.47553 209.934052 
L 129.756136 209.934052 
L 129.811719 208.353994 
L 130.209487 208.353994 
L 130.209487 207.827308 
L 130.465258 207.827308 
L 130.558552 206.773936 
L 131.287464 206.773936 
L 131.338382 205.193878 
L 131.401821 205.193878 
L 131.427132 203.613819 
L 131.728032 203.613819 
L 131.728032 203.087133 
L 132.060454 203.087133 
L 132.060454 202.560447 
L 132.206187 202.560447 
L 132.206187 202.033761 
L 132.5297 202.033761 
L 132.553427 200.980389 
L 132.951923 200.980389 
L 132.951923 200.453703 
L 133.488207 200.453703 
L 133.488207 199.927017 
L 133.622529 199.927017 
L 133.722595 198.346959 
L 134.257551 198.346959 
L 134.257551 197.820273 
L 134.492498 197.820273 
L 134.492498 197.293586 
L 134.818279 197.293586 
L 134.922085 196.240214 
L 135.189123 196.240214 
L 135.229845 194.660156 
L 135.612036 194.660156 
L 135.612036 194.13347 
L 135.731008 194.13347 
L 135.731008 193.606784 
L 136.179695 193.606784 
L 136.237377 192.553412 
L 136.456742 192.553412 
L 136.456742 192.026726 
L 136.570107 192.026726 
L 136.570107 191.50004 
L 136.757427 191.50004 
L 136.79465 190.446667 
L 136.896607 190.446667 
L 136.896607 189.919981 
L 137.107884 189.919981 
L 137.107884 189.393295 
L 137.325651 189.393295 
L 137.325651 188.866609 
L 137.928288 188.866609 
L 137.928288 188.339923 
L 138.196257 188.339923 
L 138.196257 187.813237 
L 138.569667 187.813237 
L 138.569667 187.286551 
L 138.803195 187.286551 
L 138.861092 185.706493 
L 139.017278 185.706493 
L 139.017278 185.179807 
L 139.147727 185.179807 
L 139.147727 184.653121 
L 139.707238 184.653121 
L 139.77789 183.073062 
L 139.832645 183.073062 
L 139.832645 182.546376 
L 140.378508 182.546376 
L 140.378508 182.01969 
L 140.819464 182.01969 
L 140.826843 180.966318 
L 140.981076 180.966318 
L 140.995694 179.912946 
L 141.328571 179.912946 
L 141.328571 179.38626 
L 141.506851 179.38626 
L 141.506851 178.859574 
L 141.858037 178.859574 
L 141.858037 178.332888 
L 142.499711 178.332888 
L 142.499711 177.806202 
L 142.739338 177.806202 
L 142.739338 177.279515 
L 142.884173 177.279515 
L 142.884173 176.752829 
L 143.343554 176.752829 
L 143.343554 176.226143 
L 143.722546 176.226143 
L 143.722546 175.699457 
L 144.050606 175.699457 
L 144.050606 175.172771 
L 144.35454 175.172771 
L 144.360565 174.119399 
L 144.647343 174.119399 
L 144.647343 173.592713 
L 145.178411 173.592713 
L 145.178411 173.066027 
L 145.503004 173.066027 
L 145.559333 172.012655 
L 145.649082 172.012655 
L 145.649082 171.485969 
L 145.805039 171.485969 
L 145.805039 170.959282 
L 146.08557 170.959282 
L 146.08557 170.432596 
L 146.226867 170.432596 
L 146.226867 169.90591 
L 146.415286 169.90591 
L 146.463409 168.852538 
L 146.932277 168.852538 
L 146.932277 168.325852 
L 147.33308 168.325852 
L 147.33308 167.799166 
L 147.454573 167.799166 
L 147.52003 166.745794 
L 147.625253 166.745794 
L 147.625253 166.219108 
L 147.932255 166.219108 
L 147.946974 165.165736 
L 148.044783 165.165736 
L 148.044783 164.63905 
L 148.54473 164.63905 
L 148.54473 164.112363 
L 148.780082 164.112363 
L 148.780082 163.585677 
L 149.15016 163.585677 
L 149.18674 162.532305 
L 149.327765 162.532305 
L 149.413639 160.952247 
L 149.7397 160.952247 
L 149.827978 159.898875 
L 149.889508 159.898875 
L 149.889508 159.372189 
L 150.365548 159.372189 
L 150.365548 158.845503 
L 150.632448 158.845503 
L 150.724698 157.79213 
L 151.0643 157.79213 
L 151.0643 157.265444 
L 151.581536 157.265444 
L 151.581536 156.738758 
L 151.779487 156.738758 
L 151.779487 156.212072 
L 152.080004 156.212072 
L 152.080004 155.685386 
L 152.417227 155.685386 
L 152.417227 155.1587 
L 152.632227 155.1587 
L 152.632227 154.632014 
L 152.874211 154.632014 
L 152.925894 153.578642 
L 153.065409 153.578642 
L 153.065409 153.051956 
L 153.203816 153.051956 
L 153.243677 151.998584 
L 153.427307 151.998584 
L 153.427307 151.471897 
L 154.570936 151.471897 
L 154.614488 150.418525 
L 154.807483 150.418525 
L 154.906477 149.365153 
L 155.021263 149.365153 
L 155.047394 148.311781 
L 155.209833 148.311781 
L 155.24214 147.258409 
L 155.488919 147.258409 
L 155.488919 146.731723 
L 155.907117 146.731723 
L 156.012434 144.098292 
L 156.150854 144.098292 
L 156.150854 143.571606 
L 156.637282 143.571606 
L 156.637282 143.04492 
L 156.868152 143.04492 
L 156.868152 142.518234 
L 157.231877 142.518234 
L 157.272146 141.464862 
L 157.54297 141.464862 
L 157.60791 140.41149 
L 157.94839 140.41149 
L 158.058592 138.831432 
L 158.094258 138.831432 
L 158.179014 136.198001 
L 158.430839 136.198001 
L 158.487203 135.144629 
L 158.921223 135.144629 
L 158.93951 134.091257 
L 159.298723 134.091257 
L 159.311507 133.037885 
L 159.522371 133.037885 
L 159.522371 132.511199 
L 159.663214 132.511199 
L 159.663214 131.984513 
L 159.805414 131.984513 
L 159.879792 130.93114 
L 160.020244 130.93114 
L 160.105929 129.877768 
L 160.48519 129.877768 
L 160.48519 129.351082 
L 160.91243 129.351082 
L 160.984566 127.244338 
L 161.035578 127.244338 
L 161.139459 126.190966 
L 161.787817 126.190966 
L 161.85201 124.610907 
L 161.97969 124.610907 
L 162.060656 123.030849 
L 162.234442 123.030849 
L 162.234442 122.504163 
L 162.547205 122.504163 
L 162.547205 121.977477 
L 162.726742 121.977477 
L 162.823138 120.397419 
L 162.873221 120.397419 
L 162.939775 118.817361 
L 163.384517 118.817361 
L 163.384517 118.290674 
L 163.617688 118.290674 
L 163.617688 117.763988 
L 163.9617 117.763988 
L 163.9617 117.237302 
L 164.220151 117.237302 
L 164.220151 116.710616 
L 164.599841 116.710616 
L 164.663893 115.130558 
L 164.793164 115.130558 
L 164.793164 114.603872 
L 164.921483 114.603872 
L 164.971439 113.5505 
L 165.369631 113.5505 
L 165.46508 111.443755 
L 165.806549 111.443755 
L 165.806549 110.917069 
L 165.974809 110.917069 
L 165.974809 110.390383 
L 166.146643 110.390383 
L 166.251684 109.337011 
L 166.306535 109.337011 
L 166.350975 108.283639 
L 166.437818 108.283639 
L 166.437818 107.756953 
L 166.606854 107.756953 
L 166.638786 106.703581 
L 166.824179 106.703581 
L 166.908703 105.650209 
L 167.065066 105.650209 
L 167.171249 104.596836 
L 167.399386 104.596836 
L 167.399386 104.07015 
L 167.600758 104.07015 
L 167.600758 103.543464 
L 167.915698 103.543464 
L 167.915698 103.016778 
L 168.063324 103.016778 
L 168.063324 102.490092 
L 168.46864 102.490092 
L 168.483753 101.43672 
L 168.586168 101.43672 
L 168.650622 100.383348 
L 169.047054 100.383348 
L 169.153494 98.803289 
L 169.192698 98.803289 
L 169.192698 98.276603 
L 169.438965 98.276603 
L 169.494647 96.696545 
L 169.653574 96.696545 
L 169.670516 95.643173 
L 169.811066 95.643173 
L 169.811066 95.116487 
L 169.931039 95.116487 
L 169.931039 94.589801 
L 170.048811 94.589801 
L 170.15619 93.536429 
L 170.435289 93.536429 
L 170.435289 93.009743 
L 170.720626 93.009743 
L 170.792229 90.902998 
L 170.850355 90.902998 
L 170.896454 89.849626 
L 171.013132 89.849626 
L 171.049679 88.269568 
L 171.519214 88.269568 
L 171.568644 87.216196 
L 171.894644 87.216196 
L 171.894644 86.68951 
L 172.097185 86.68951 
L 172.103323 85.109451 
L 172.303468 85.109451 
L 172.389409 83.529393 
L 172.44366 83.529393 
L 172.44366 83.002707 
L 172.570788 83.002707 
L 172.593478 81.949335 
L 172.786927 81.949335 
L 172.786927 81.422649 
L 172.958396 81.422649 
L 172.958396 80.895963 
L 173.08184 80.895963 
L 173.150173 79.842591 
L 173.212481 79.842591 
L 173.260789 78.262532 
L 173.347865 78.262532 
L 173.445878 77.20916 
L 173.476535 77.20916 
L 173.511669 76.155788 
L 173.630147 76.155788 
L 173.630147 75.629102 
L 173.772381 75.629102 
L 173.880241 74.57573 
L 173.964285 74.57573 
L 173.964285 74.049044 
L 174.138817 74.049044 
L 174.241183 72.468985 
L 174.367763 72.468985 
L 174.367763 71.942299 
L 174.53512 71.942299 
L 174.547927 70.888927 
L 174.701943 70.888927 
L 174.811578 69.308869 
L 174.81368 69.308869 
L 174.905902 67.728811 
L 174.936186 67.728811 
L 174.936186 67.202125 
L 175.058874 67.202125 
L 175.058874 66.148752 
L 175.30169 66.148752 
L 175.381206 65.09538 
L 175.485654 65.09538 
L 175.521004 64.042008 
L 175.62763 64.042008 
L 175.62763 63.515322 
L 175.790331 63.515322 
L 175.839936 61.408578 
L 175.951527 61.408578 
L 176.054582 60.355206 
L 176.218213 60.355206 
L 176.22306 59.301833 
L 176.431155 59.301833 
L 176.431155 58.775147 
L 176.582764 58.775147 
L 176.689716 57.195089 
L 176.723652 57.195089 
L 176.827874 55.615031 
L 176.839104 55.615031 
L 176.930546 54.034973 
L 176.952867 54.034973 
L 177.021511 52.9816 
L 177.180944 52.9816 
L 177.283388 50.874856 
L 177.338932 50.874856 
L 177.338932 50.34817 
L 177.576401 50.34817 
L 177.662282 48.241426 
L 177.752183 48.241426 
L 177.788545 46.661368 
L 178.024381 46.661368 
L 178.036614 45.607995 
L 178.148926 45.607995 
L 178.148926 45.081309 
L 178.355974 45.081309 
L 178.355974 44.554623 
L 178.492653 44.554623 
L 178.515612 42.974565 
L 178.609684 42.974565 
L 178.682222 41.394507 
L 178.882238 41.394507 
L 178.882238 40.867821 
L 179.087389 40.867821 
L 179.1301 39.814448 
L 179.217658 39.814448 
L 179.23316 38.23439 
L 179.43989 38.23439 
L 179.43989 37.707704 
L 179.592346 37.707704 
L 179.592346 37.181018 
L 179.722877 37.181018 
L 179.758523 36.127646 
L 179.879178 36.127646 
L 179.879178 35.60096 
L 180.151313 35.60096 
L 180.151313 35.074274 
L 180.282349 35.074274 
L 180.282349 34.020902 
L 181.096242 34.020902 
L 181.096242 33.494215 
L 181.244389 33.494215 
L 181.264725 32.440843 
L 181.433752 32.440843 
L 181.433752 31.914157 
L 182.030146 31.914157 
L 182.122294 30.860785 
L 182.775365 30.860785 
L 182.775365 30.334099 
L 338.688 30.334099 
L 338.688 30.334099 
" style="fill:none;stroke:#000080;stroke-linecap:square;stroke-width:1.5;"/>
   </g>
   <g id="line2d_36">
    <defs>
     <path d="M 0 6 
C 1.591219 6 3.117479 5.367802 4.242641 4.242641 
C 5.367802 3.117479 6 1.591219 6 0 
C 6 -1.591219 5.367802 -3.117479 4.242641 -4.242641 
C 3.117479 -5.367802 1.591219 -6 0 -6 
C -1.591219 -6 -3.117479 -5.367802 -4.242641 -4.242641 
C -5.367802 -3.117479 -6 -1.591219 -6 0 
C -6 1.591219 -5.367802 3.117479 -4.242641 4.242641 
C -3.117479 5.367802 -1.591219 6 0 6 
z
" id="mfdd32fd4db" style="stroke:#000080;stroke-width:1.5;"/>
    </defs>
    <g>
     <use style="fill-opacity:0;stroke:#000080;stroke-width:1.5;" x="112.204777" xlink:href="#mfdd32fd4db" y="258.915858"/>
     <use style="fill-opacity:0;stroke:#000080;stroke-width:1.5;" x="161.97969" xlink:href="#mfdd32fd4db" y="124.610907"/>
     <use style="fill-opacity:0;stroke:#000080;stroke-width:1.5;" x="182.775365" xlink:href="#mfdd32fd4db" y="30.860785"/>
     <use style="fill-opacity:0;stroke:#000080;stroke-width:1.5;" x="182.775365" xlink:href="#mfdd32fd4db" y="30.334099"/>
     <use style="fill-opacity:0;stroke:#000080;stroke-width:1.5;" x="182.775365" xlink:href="#mfdd32fd4db" y="30.334099"/>
     <use style="fill-opacity:0;stroke:#000080;stroke-width:1.5;" x="338.688" xlink:href="#mfdd32fd4db" y="30.334099"/>
    </g>
   </g>
   <g id="line2d_37">
    <path style="fill:none;stroke:#000080;stroke-linecap:square;stroke-width:1.5;"/>
    <g/>
   </g>
   <g id="line2d_38">
    <defs>
     <path d="M 0 1.5 
C 0.397805 1.5 0.77937 1.341951 1.06066 1.06066 
C 1.341951 0.77937 1.5 0.397805 1.5 0 
C 1.5 -0.397805 1.341951 -0.77937 1.06066 -1.06066 
C 0.77937 -1.341951 0.397805 -1.5 0 -1.5 
C -0.397805 -1.5 -0.77937 -1.341951 -1.06066 -1.06066 
C -1.341951 -0.77937 -1.5 -0.397805 -1.5 0 
C -1.5 0.397805 -1.341951 0.77937 -1.06066 1.06066 
C -0.77937 1.341951 -0.397805 1.5 0 1.5 
z
" id="m1c6db62e88" style="stroke:#ff00ff;"/>
    </defs>
    <g>
     <use style="fill:#ff00ff;stroke:#ff00ff;" x="306.723528" xlink:href="#m1c6db62e88" y="130.404454"/>
     <use style="fill:#ff00ff;stroke:#ff00ff;" x="306.723528" xlink:href="#m1c6db62e88" y="130.404454"/>
    </g>
   </g>
   <g id="line2d_39">
    <path d="M 5.356583 298.944 
L 5.356583 297.890628 
L 17.444571 297.890628 
L 17.444571 296.837256 
L 29.53256 296.837256 
L 29.53256 295.783884 
L 36.60358 295.783884 
L 36.60358 295.257197 
L 41.620548 295.257197 
L 41.620548 294.730511 
L 43.6746 294.730511 
L 43.6746 294.203825 
L 52.583031 294.203825 
L 52.583031 292.623767 
L 53.708537 292.623767 
L 53.708537 291.570395 
L 59.262141 291.570395 
L 59.262141 290.517023 
L 60.037348 290.517023 
L 60.037348 289.990337 
L 61.491463 289.990337 
L 61.491463 288.936964 
L 64.079801 288.936964 
L 64.079801 288.410278 
L 75.241593 288.410278 
L 75.241593 286.83022 
L 77.330839 286.83022 
L 77.330839 286.303534 
L 77.884514 286.303534 
L 77.884514 285.776848 
L 78.683399 285.776848 
L 78.683399 285.250162 
L 79.196356 285.250162 
L 79.196356 284.723476 
L 82.417986 284.723476 
L 82.417986 284.19679 
L 84.02273 284.19679 
L 84.02273 283.670104 
L 88.104788 283.670104 
L 88.104788 283.143418 
L 92.854336 283.143418 
L 92.854336 282.616732 
L 92.969447 282.616732 
L 92.969447 282.090045 
L 93.310291 282.090045 
L 93.310291 281.563359 
L 93.422441 281.563359 
L 93.422441 281.036673 
L 94.187924 281.036673 
L 94.187924 280.509987 
L 94.714831 280.509987 
L 94.714831 279.456615 
L 95.326798 279.456615 
L 95.326798 278.929929 
L 99.731799 278.929929 
L 99.731799 278.403243 
L 101.71651 278.403243 
L 101.71651 277.876557 
L 105.22869 277.876557 
L 105.22869 277.349871 
L 105.951954 277.349871 
L 105.951954 276.823185 
L 106.222336 276.823185 
L 106.222336 276.296499 
L 108.102622 276.296499 
L 108.102622 275.769812 
L 108.294265 275.769812 
L 108.294265 275.243126 
L 110.485426 275.243126 
L 110.527398 273.136382 
L 110.652711 273.136382 
L 110.652711 272.609696 
L 111.974805 272.609696 
L 111.974805 272.08301 
L 112.39413 272.08301 
L 112.39413 271.556324 
L 112.877038 271.556324 
L 112.877038 271.029638 
L 113.908407 271.029638 
L 113.908407 270.502952 
L 114.045996 270.502952 
L 114.045996 269.976266 
L 114.585746 269.976266 
L 114.585746 269.449579 
L 117.231262 269.449579 
L 117.231262 268.922893 
L 118.602981 268.922893 
L 118.602981 268.396207 
L 119.577783 268.396207 
L 119.577783 267.869521 
L 122.276749 267.869521 
L 122.276749 267.342835 
L 123.533993 267.342835 
L 123.533993 266.816149 
L 124.613453 266.816149 
L 124.613453 266.289463 
L 124.725244 266.289463 
L 124.762349 265.236091 
L 125.237662 265.236091 
L 125.237662 264.709405 
L 125.909848 264.709405 
L 125.909848 264.182719 
L 126.338353 264.182719 
L 126.338353 263.656033 
L 127.341738 263.656033 
L 127.341738 263.129347 
L 128.168991 263.129347 
L 128.168991 262.60266 
L 130.331109 262.60266 
L 130.331109 262.075974 
L 130.465258 262.075974 
L 130.465258 261.549288 
L 131.565689 261.549288 
L 131.565689 261.022602 
L 132.266551 261.022602 
L 132.266551 260.495916 
L 134.481887 260.495916 
L 134.481887 259.96923 
L 134.703375 259.96923 
L 134.703375 259.442544 
L 134.870259 259.442544 
L 134.870259 258.915858 
L 135.086899 258.915858 
L 135.086899 258.389172 
L 136.313991 258.389172 
L 136.313991 257.862486 
L 136.541835 257.862486 
L 136.541835 257.3358 
L 136.729457 257.3358 
L 136.729457 256.809114 
L 137.117012 256.809114 
L 137.117012 256.282427 
L 137.673823 256.282427 
L 137.673823 255.755741 
L 138.093015 255.755741 
L 138.127497 254.702369 
L 138.770025 254.702369 
L 138.770025 254.175683 
L 138.910565 254.175683 
L 138.910565 253.648997 
L 139.049982 253.648997 
L 139.049982 253.122311 
L 139.325515 253.122311 
L 139.341588 252.068939 
L 140.340621 252.068939 
L 140.340621 251.542253 
L 140.596643 251.542253 
L 140.596643 251.015567 
L 140.915143 251.015567 
L 140.915143 250.488881 
L 142.256745 250.488881 
L 142.256745 249.962195 
L 142.772361 249.962195 
L 142.83822 248.908822 
L 143.138005 248.908822 
L 143.138005 248.382136 
L 145.832743 248.382136 
L 145.832743 247.85545 
L 145.987073 247.85545 
L 145.987073 247.328764 
L 146.248504 247.328764 
L 146.248504 246.802078 
L 146.559258 246.802078 
L 146.559258 246.275392 
L 146.744138 246.275392 
L 146.744138 245.748706 
L 147.251611 245.748706 
L 147.307662 244.695334 
L 147.368603 244.695334 
L 147.368603 244.168648 
L 147.590249 244.168648 
L 147.590249 243.641962 
L 147.744734 243.641962 
L 147.744734 243.115275 
L 147.946974 243.115275 
L 147.946974 242.588589 
L 148.349344 242.588589 
L 148.449693 241.535217 
L 148.933692 241.535217 
L 148.956849 240.481845 
L 149.141003 240.481845 
L 149.141003 239.955159 
L 149.42716 239.955159 
L 149.42716 239.428473 
L 150.068464 239.428473 
L 150.068464 238.901787 
L 150.249899 238.901787 
L 150.249899 238.375101 
L 150.416702 238.375101 
L 150.442223 237.321729 
L 150.531253 237.321729 
L 150.594569 236.268356 
L 150.907745 236.268356 
L 150.907745 235.74167 
L 151.345027 235.74167 
L 151.373256 234.688298 
L 151.861961 234.688298 
L 151.861961 234.161612 
L 152.424816 234.161612 
L 152.504301 233.10824 
L 152.788969 233.10824 
L 152.788969 232.581554 
L 152.922207 232.581554 
L 152.922207 232.054868 
L 153.065409 232.054868 
L 153.065409 231.528182 
L 154.098334 231.528182 
L 154.098334 230.47481 
L 154.426099 230.47481 
L 154.426099 229.948123 
L 154.741174 229.948123 
L 154.741174 229.421437 
L 154.959044 229.421437 
L 154.978716 228.368065 
L 155.222763 228.368065 
L 155.222763 227.841379 
L 155.691409 227.841379 
L 155.691409 227.314693 
L 156.150854 227.314693 
L 156.150854 226.788007 
L 156.541675 226.788007 
L 156.541675 226.261321 
L 157.064052 226.261321 
L 157.064052 225.734635 
L 157.280763 225.734635 
L 157.380981 224.681263 
L 157.582528 224.681263 
L 157.582528 224.154577 
L 157.703468 224.154577 
L 157.709073 223.101204 
L 158.159911 223.101204 
L 158.159911 222.574518 
L 158.524678 222.574518 
L 158.524678 222.047832 
L 158.858379 222.047832 
L 158.965601 220.467774 
L 159.592935 220.467774 
L 159.592935 219.941088 
L 159.797958 219.941088 
L 159.797958 219.414402 
L 160.658763 219.414402 
L 160.658763 218.887716 
L 161.187726 218.887716 
L 161.187726 218.36103 
L 161.710028 218.36103 
L 161.710028 217.834344 
L 161.920369 217.834344 
L 161.920369 217.307658 
L 162.251725 217.307658 
L 162.251725 216.780971 
L 162.455671 216.780971 
L 162.455671 216.254285 
L 162.695193 216.254285 
L 162.695193 215.727599 
L 163.268789 215.727599 
L 163.36427 214.674227 
L 163.794496 214.674227 
L 163.845811 213.620855 
L 164.518494 213.620855 
L 164.518494 213.094169 
L 164.774488 213.094169 
L 164.832318 212.040797 
L 165.169845 212.040797 
L 165.169845 211.514111 
L 165.309935 211.514111 
L 165.309935 210.987425 
L 165.561796 210.987425 
L 165.561796 210.460738 
L 165.735959 210.460738 
L 165.735959 209.934052 
L 166.10341 209.934052 
L 166.10341 209.407366 
L 166.398707 209.407366 
L 166.398707 208.88068 
L 166.956584 208.88068 
L 167.017483 207.300622 
L 167.119055 207.300622 
L 167.119055 206.773936 
L 167.592812 206.773936 
L 167.592812 206.24725 
L 168.058681 206.24725 
L 168.058681 205.720564 
L 168.34118 205.720564 
L 168.34118 205.193878 
L 168.734207 205.193878 
L 168.833686 204.140506 
L 169.063135 204.140506 
L 169.063135 203.087133 
L 169.381669 203.087133 
L 169.381669 202.560447 
L 169.524556 202.560447 
L 169.524556 202.033761 
L 169.943547 202.033761 
L 170.046049 200.980389 
L 170.17128 200.980389 
L 170.17128 200.453703 
L 170.389308 200.453703 
L 170.409609 199.400331 
L 170.659398 199.400331 
L 170.659398 198.873645 
L 170.951613 198.873645 
L 170.951613 198.346959 
L 171.31366 198.346959 
L 171.318797 197.293586 
L 171.83367 197.293586 
L 171.83367 196.7669 
L 172.008554 196.7669 
L 172.118046 195.713528 
L 172.147455 195.713528 
L 172.147455 195.186842 
L 172.367661 195.186842 
L 172.36887 194.13347 
L 172.788107 194.13347 
L 172.788107 193.606784 
L 173.08184 193.606784 
L 173.08184 193.080098 
L 174.255293 193.080098 
L 174.274811 192.026726 
L 174.367763 192.026726 
L 174.388233 190.973354 
L 174.605444 190.973354 
L 174.605444 190.446667 
L 175.028802 190.446667 
L 175.028802 189.919981 
L 175.306798 189.919981 
L 175.306798 189.393295 
L 175.714659 189.393295 
L 175.714659 188.866609 
L 176.134642 188.866609 
L 176.23856 187.813237 
L 176.585612 187.813237 
L 176.585612 187.286551 
L 176.707635 187.286551 
L 176.707635 186.759865 
L 177.135934 186.759865 
L 177.135934 186.233179 
L 177.332567 186.233179 
L 177.332567 185.706493 
L 177.497303 185.706493 
L 177.583574 184.653121 
L 177.693489 184.653121 
L 177.693489 184.126434 
L 177.902461 184.126434 
L 177.902461 183.599748 
L 178.177541 183.599748 
L 178.177541 183.073062 
L 178.91466 183.073062 
L 178.91466 182.546376 
L 179.044573 182.546376 
L 179.044573 182.01969 
L 179.310464 182.01969 
L 179.310464 181.493004 
L 179.601931 181.493004 
L 179.692719 180.439632 
L 179.748233 180.439632 
L 179.748233 179.912946 
L 179.909016 179.912946 
L 179.909016 179.38626 
L 180.455039 179.38626 
L 180.455039 178.859574 
L 181.633167 178.859574 
L 181.633167 178.332888 
L 182.774699 178.332888 
L 182.774699 177.806202 
L 183.359859 177.806202 
L 183.359859 177.279515 
L 183.473421 177.279515 
L 183.473421 176.752829 
L 183.940347 176.752829 
L 183.940347 176.226143 
L 184.206648 176.226143 
L 184.226871 175.172771 
L 184.368386 175.172771 
L 184.368386 174.646085 
L 184.720804 174.646085 
L 184.720804 174.119399 
L 184.922061 174.119399 
L 184.922061 173.592713 
L 185.459838 173.592713 
L 185.459838 173.066027 
L 186.68386 173.066027 
L 186.68386 172.539341 
L 187.154631 172.539341 
L 187.154631 172.012655 
L 187.769188 172.012655 
L 187.861421 170.959282 
L 188.028684 170.959282 
L 188.028684 170.432596 
L 189.192163 170.432596 
L 189.192163 169.90591 
L 189.694407 169.90591 
L 189.694407 169.379224 
L 190.582343 169.379224 
L 190.582343 168.852538 
L 192.163702 168.852538 
L 192.163702 168.325852 
L 193.600635 168.325852 
L 193.600635 167.799166 
L 194.334225 167.799166 
L 194.334225 167.27248 
L 194.605525 167.27248 
L 194.605525 166.745794 
L 195.082951 166.745794 
L 195.189762 165.692422 
L 195.199885 165.692422 
L 195.199885 165.165736 
L 195.541573 165.165736 
L 195.541573 164.63905 
L 195.780023 164.63905 
L 195.780023 164.112363 
L 195.983138 164.112363 
L 195.983138 163.585677 
L 196.409838 163.585677 
L 196.409838 163.058991 
L 198.841663 163.058991 
L 198.841663 162.532305 
L 199.188425 162.532305 
L 199.188425 162.005619 
L 199.750376 162.005619 
L 199.750376 161.478933 
L 201.106523 161.478933 
L 201.106523 160.952247 
L 202.219359 160.952247 
L 202.219359 160.425561 
L 202.779955 160.425561 
L 202.779955 159.898875 
L 203.290072 159.898875 
L 203.290072 159.372189 
L 203.82356 159.372189 
L 203.82356 158.845503 
L 204.237503 158.845503 
L 204.237503 158.318817 
L 207.417157 158.318817 
L 207.502816 157.265444 
L 208.004519 157.265444 
L 208.029722 156.212072 
L 208.287477 156.212072 
L 208.287477 155.685386 
L 209.497166 155.685386 
L 209.497166 155.1587 
L 210.270397 155.1587 
L 210.270397 154.632014 
L 210.84946 154.632014 
L 210.955066 153.578642 
L 212.086927 153.578642 
L 212.086927 153.051956 
L 215.410465 153.051956 
L 215.410465 152.52527 
L 217.609255 152.52527 
L 217.609255 151.998584 
L 217.792259 151.998584 
L 217.792259 151.471897 
L 218.056746 151.471897 
L 218.056746 150.945211 
L 219.18235 150.945211 
L 219.18235 150.418525 
L 220.042542 150.418525 
L 220.042542 149.891839 
L 220.637211 149.891839 
L 220.687245 148.838467 
L 220.818845 148.838467 
L 220.818845 148.311781 
L 221.026173 148.311781 
L 221.026173 147.785095 
L 221.93093 147.785095 
L 221.93093 147.258409 
L 226.460424 147.258409 
L 226.460424 146.731723 
L 226.860235 146.731723 
L 226.860235 146.205037 
L 227.473284 146.205037 
L 227.473284 145.678351 
L 228.156215 145.678351 
L 228.26597 144.624978 
L 230.409605 144.624978 
L 230.409605 144.098292 
L 230.60012 144.098292 
L 230.60012 143.571606 
L 233.757495 143.571606 
L 233.815037 142.518234 
L 237.060582 142.518234 
L 237.060582 141.991548 
L 237.967286 141.991548 
L 237.967286 141.464862 
L 238.525319 141.464862 
L 238.59093 139.884804 
L 240.373873 139.884804 
L 240.413757 138.831432 
L 242.588217 138.831432 
L 242.588217 138.304745 
L 243.750793 138.304745 
L 243.750793 137.778059 
L 245.120122 137.778059 
L 245.120122 137.251373 
L 246.110078 137.251373 
L 246.110078 136.724687 
L 253.232412 136.724687 
L 253.232412 135.671315 
L 254.828939 135.671315 
L 254.828939 135.144629 
L 257.802421 135.144629 
L 257.802421 134.617943 
L 258.287835 134.617943 
L 258.287835 134.091257 
L 264.407153 134.091257 
L 264.407153 133.564571 
L 265.388675 133.564571 
L 265.388675 133.037885 
L 277.346674 133.037885 
L 277.346674 132.511199 
L 282.411205 132.511199 
L 282.411205 131.984513 
L 292.299687 131.984513 
L 292.299687 131.457826 
L 298.475944 131.457826 
L 298.475944 130.93114 
L 306.723528 130.93114 
L 306.723528 130.404454 
L 338.688 130.404454 
L 338.688 130.404454 
" style="fill:none;stroke:#ff00ff;stroke-linecap:square;stroke-width:1.5;"/>
   </g>
   <g id="line2d_40">
    <defs>
     <path d="M -0 8.485281 
L 5.091169 0 
L 0 -8.485281 
L -5.091169 -0 
z
" id="m9ff9b659a7" style="stroke:#ff00ff;stroke-linejoin:miter;stroke-width:1.5;"/>
    </defs>
    <g>
     <use style="fill-opacity:0;stroke:#ff00ff;stroke-linejoin:miter;stroke-width:1.5;" x="123.533993" xlink:href="#m9ff9b659a7" y="267.342835"/>
     <use style="fill-opacity:0;stroke:#ff00ff;stroke-linejoin:miter;stroke-width:1.5;" x="183.940347" xlink:href="#m9ff9b659a7" y="176.226143"/>
     <use style="fill-opacity:0;stroke:#ff00ff;stroke-linejoin:miter;stroke-width:1.5;" x="246.110078" xlink:href="#m9ff9b659a7" y="136.724687"/>
     <use style="fill-opacity:0;stroke:#ff00ff;stroke-linejoin:miter;stroke-width:1.5;" x="306.723528" xlink:href="#m9ff9b659a7" y="130.404454"/>
     <use style="fill-opacity:0;stroke:#ff00ff;stroke-linejoin:miter;stroke-width:1.5;" x="306.723528" xlink:href="#m9ff9b659a7" y="130.404454"/>
     <use style="fill-opacity:0;stroke:#ff00ff;stroke-linejoin:miter;stroke-width:1.5;" x="338.688" xlink:href="#m9ff9b659a7" y="130.404454"/>
    </g>
   </g>
   <g id="line2d_41">
    <path style="fill:none;stroke:#ff00ff;stroke-linecap:square;stroke-width:1.5;"/>
    <g/>
   </g>
   <g id="line2d_42">
    <path clip-path="url(#p124c2bc987)" d="M 246.289154 136.724687 
" style="fill:none;stroke:#ff00ff;stroke-linecap:square;stroke-width:1.5;"/>
    <defs>
     <path d="M -12 12 
L 12 -12 
M -12 -12 
L 12 12 
" id="m5d00c1f4bb" style="stroke:#ff00ff;"/>
    </defs>
    <g clip-path="url(#p124c2bc987)">
     <use style="fill:#ff00ff;stroke:#ff00ff;" x="246.289154" xlink:href="#m5d00c1f4bb" y="136.724687"/>
    </g>
   </g>
   <g id="line2d_43">
    <path d="M 338.688 130.404454 
L 369.60768 293.571802 
" style="fill:none;stroke:#ff00ff;stroke-linecap:square;stroke-width:1.5;"/>
    <g>
     <use style="fill-opacity:0;stroke:#ff00ff;stroke-linejoin:miter;stroke-width:1.5;" x="338.688" xlink:href="#m9ff9b659a7" y="130.404454"/>
     <use style="fill-opacity:0;stroke:#ff00ff;stroke-linejoin:miter;stroke-width:1.5;" x="369.60768" xlink:href="#m9ff9b659a7" y="293.571802"/>
    </g>
   </g>
   <g id="line2d_44">
    <path d="M 338.688 30.334099 
L 369.60768 164.63905 
" style="fill:none;stroke:#000080;stroke-linecap:square;stroke-width:1.5;"/>
    <g>
     <use style="fill-opacity:0;stroke:#000080;stroke-width:1.5;" x="338.688" xlink:href="#mfdd32fd4db" y="30.334099"/>
     <use style="fill-opacity:0;stroke:#000080;stroke-width:1.5;" x="369.60768" xlink:href="#mfdd32fd4db" y="164.63905"/>
    </g>
   </g>
   <g id="line2d_45">
    <path d="M 338.688 298.944 
L 338.688 30.334099 
" style="fill:none;stroke:#000000;stroke-linecap:square;stroke-width:1.5;"/>
   </g>
   <g id="patch_3">
    <path d="M 57.6 298.944 
L 57.6 27.648 
" style="fill:none;stroke:#000000;stroke-linecap:square;stroke-linejoin:miter;stroke-width:0.8;"/>
   </g>
   <g id="patch_4">
    <path d="M 338.688 298.944 
L 338.688 27.648 
" style="fill:none;stroke:#000000;stroke-linecap:square;stroke-linejoin:miter;stroke-width:0.8;"/>
   </g>
   <g id="patch_5">
    <path d="M 57.6 298.944 
L 338.688 298.944 
" style="fill:none;stroke:#000000;stroke-linecap:square;stroke-linejoin:miter;stroke-width:0.8;"/>
   </g>
   <g id="patch_6">
    <path d="M 57.6 27.648 
L 338.688 27.648 
" style="fill:none;stroke:#000000;stroke-linecap:square;stroke-linejoin:miter;stroke-width:0.8;"/>
   </g>
   <g id="text_13">
    <!-- PSO -->
    <g transform="translate(375.22944 298.262739)scale(0.17 -0.17)">
     <defs>
      <path d="M 19.671875 64.796875 
L 19.671875 37.40625 
L 32.078125 37.40625 
Q 38.96875 37.40625 42.71875 40.96875 
Q 46.484375 44.53125 46.484375 51.125 
Q 46.484375 57.671875 42.71875 61.234375 
Q 38.96875 64.796875 32.078125 64.796875 
z
M 9.8125 72.90625 
L 32.078125 72.90625 
Q 44.34375 72.90625 50.609375 67.359375 
Q 56.890625 61.8125 56.890625 51.125 
Q 56.890625 40.328125 50.609375 34.8125 
Q 44.34375 29.296875 32.078125 29.296875 
L 19.671875 29.296875 
L 19.671875 0 
L 9.8125 0 
z
" id="DejaVuSans-80"/>
      <path d="M 53.515625 70.515625 
L 53.515625 60.890625 
Q 47.90625 63.578125 42.921875 64.890625 
Q 37.9375 66.21875 33.296875 66.21875 
Q 25.25 66.21875 20.875 63.09375 
Q 16.5 59.96875 16.5 54.203125 
Q 16.5 49.359375 19.40625 46.890625 
Q 22.3125 44.4375 30.421875 42.921875 
L 36.375 41.703125 
Q 47.40625 39.59375 52.65625 34.296875 
Q 57.90625 29 57.90625 20.125 
Q 57.90625 9.515625 50.796875 4.046875 
Q 43.703125 -1.421875 29.984375 -1.421875 
Q 24.8125 -1.421875 18.96875 -0.25 
Q 13.140625 0.921875 6.890625 3.21875 
L 6.890625 13.375 
Q 12.890625 10.015625 18.65625 8.296875 
Q 24.421875 6.59375 29.984375 6.59375 
Q 38.421875 6.59375 43.015625 9.90625 
Q 47.609375 13.234375 47.609375 19.390625 
Q 47.609375 24.75 44.3125 27.78125 
Q 41.015625 30.8125 33.5 32.328125 
L 27.484375 33.5 
Q 16.453125 35.6875 11.515625 40.375 
Q 6.59375 45.0625 6.59375 53.421875 
Q 6.59375 63.09375 13.40625 68.65625 
Q 20.21875 74.21875 32.171875 74.21875 
Q 37.3125 74.21875 42.625 73.28125 
Q 47.953125 72.359375 53.515625 70.515625 
z
" id="DejaVuSans-83"/>
      <path d="M 39.40625 66.21875 
Q 28.65625 66.21875 22.328125 58.203125 
Q 16.015625 50.203125 16.015625 36.375 
Q 16.015625 22.609375 22.328125 14.59375 
Q 28.65625 6.59375 39.40625 6.59375 
Q 50.140625 6.59375 56.421875 14.59375 
Q 62.703125 22.609375 62.703125 36.375 
Q 62.703125 50.203125 56.421875 58.203125 
Q 50.140625 66.21875 39.40625 66.21875 
z
M 39.40625 74.21875 
Q 54.734375 74.21875 63.90625 63.9375 
Q 73.09375 53.65625 73.09375 36.375 
Q 73.09375 19.140625 63.90625 8.859375 
Q 54.734375 -1.421875 39.40625 -1.421875 
Q 24.03125 -1.421875 14.8125 8.828125 
Q 5.609375 19.09375 5.609375 36.375 
Q 5.609375 53.65625 14.8125 63.9375 
Q 24.03125 74.21875 39.40625 74.21875 
z
" id="DejaVuSans-79"/>
     </defs>
     <use xlink:href="#DejaVuSans-80"/>
     <use x="60.302734" xlink:href="#DejaVuSans-83"/>
     <use x="123.779297" xlink:href="#DejaVuSans-79"/>
    </g>
   </g>
   <g id="text_14">
    <!-- BIPOP-CMA -->
    <g transform="translate(375.22944 169.329987)scale(0.17 -0.17)">
     <defs>
      <path d="M 19.671875 34.8125 
L 19.671875 8.109375 
L 35.5 8.109375 
Q 43.453125 8.109375 47.28125 11.40625 
Q 51.125 14.703125 51.125 21.484375 
Q 51.125 28.328125 47.28125 31.5625 
Q 43.453125 34.8125 35.5 34.8125 
z
M 19.671875 64.796875 
L 19.671875 42.828125 
L 34.28125 42.828125 
Q 41.5 42.828125 45.03125 45.53125 
Q 48.578125 48.25 48.578125 53.8125 
Q 48.578125 59.328125 45.03125 62.0625 
Q 41.5 64.796875 34.28125 64.796875 
z
M 9.8125 72.90625 
L 35.015625 72.90625 
Q 46.296875 72.90625 52.390625 68.21875 
Q 58.5 63.53125 58.5 54.890625 
Q 58.5 48.1875 55.375 44.234375 
Q 52.25 40.28125 46.1875 39.3125 
Q 53.46875 37.75 57.5 32.78125 
Q 61.53125 27.828125 61.53125 20.40625 
Q 61.53125 10.640625 54.890625 5.3125 
Q 48.25 0 35.984375 0 
L 9.8125 0 
z
" id="DejaVuSans-66"/>
      <path d="M 9.8125 72.90625 
L 19.671875 72.90625 
L 19.671875 0 
L 9.8125 0 
z
" id="DejaVuSans-73"/>
      <path d="M 64.40625 67.28125 
L 64.40625 56.890625 
Q 59.421875 61.53125 53.78125 63.8125 
Q 48.140625 66.109375 41.796875 66.109375 
Q 29.296875 66.109375 22.65625 58.46875 
Q 16.015625 50.828125 16.015625 36.375 
Q 16.015625 21.96875 22.65625 14.328125 
Q 29.296875 6.6875 41.796875 6.6875 
Q 48.140625 6.6875 53.78125 8.984375 
Q 59.421875 11.28125 64.40625 15.921875 
L 64.40625 5.609375 
Q 59.234375 2.09375 53.4375 0.328125 
Q 47.65625 -1.421875 41.21875 -1.421875 
Q 24.65625 -1.421875 15.125 8.703125 
Q 5.609375 18.84375 5.609375 36.375 
Q 5.609375 53.953125 15.125 64.078125 
Q 24.65625 74.21875 41.21875 74.21875 
Q 47.75 74.21875 53.53125 72.484375 
Q 59.328125 70.75 64.40625 67.28125 
z
" id="DejaVuSans-67"/>
      <path d="M 9.8125 72.90625 
L 24.515625 72.90625 
L 43.109375 23.296875 
L 61.8125 72.90625 
L 76.515625 72.90625 
L 76.515625 0 
L 66.890625 0 
L 66.890625 64.015625 
L 48.09375 14.015625 
L 38.1875 14.015625 
L 19.390625 64.015625 
L 19.390625 0 
L 9.8125 0 
z
" id="DejaVuSans-77"/>
      <path d="M 34.1875 63.1875 
L 20.796875 26.90625 
L 47.609375 26.90625 
z
M 28.609375 72.90625 
L 39.796875 72.90625 
L 67.578125 0 
L 57.328125 0 
L 50.6875 18.703125 
L 17.828125 18.703125 
L 11.1875 0 
L 0.78125 0 
z
" id="DejaVuSans-65"/>
     </defs>
     <use xlink:href="#DejaVuSans-66"/>
     <use x="68.603516" xlink:href="#DejaVuSans-73"/>
     <use x="98.095703" xlink:href="#DejaVuSans-80"/>
     <use x="158.398438" xlink:href="#DejaVuSans-79"/>
     <use x="237.109375" xlink:href="#DejaVuSans-80"/>
     <use x="295.162109" xlink:href="#DejaVuSans-45"/>
     <use x="331.246094" xlink:href="#DejaVuSans-67"/>
     <use x="401.070312" xlink:href="#DejaVuSans-77"/>
     <use x="487.349609" xlink:href="#DejaVuSans-65"/>
    </g>
   </g>
   <g id="text_15">
    <!-- best 2009 -->
    <g transform="translate(375.22944 40.397235)scale(0.17 -0.17)">
     <defs>
      <path d="M 48.6875 27.296875 
Q 48.6875 37.203125 44.609375 42.84375 
Q 40.53125 48.484375 33.40625 48.484375 
Q 26.265625 48.484375 22.1875 42.84375 
Q 18.109375 37.203125 18.109375 27.296875 
Q 18.109375 17.390625 22.1875 11.75 
Q 26.265625 6.109375 33.40625 6.109375 
Q 40.53125 6.109375 44.609375 11.75 
Q 48.6875 17.390625 48.6875 27.296875 
z
M 18.109375 46.390625 
Q 20.953125 51.265625 25.265625 53.625 
Q 29.59375 56 35.59375 56 
Q 45.5625 56 51.78125 48.09375 
Q 58.015625 40.1875 58.015625 27.296875 
Q 58.015625 14.40625 51.78125 6.484375 
Q 45.5625 -1.421875 35.59375 -1.421875 
Q 29.59375 -1.421875 25.265625 0.953125 
Q 20.953125 3.328125 18.109375 8.203125 
L 18.109375 0 
L 9.078125 0 
L 9.078125 75.984375 
L 18.109375 75.984375 
z
" id="DejaVuSans-98"/>
      <path d="M 10.984375 1.515625 
L 10.984375 10.5 
Q 14.703125 8.734375 18.5 7.8125 
Q 22.3125 6.890625 25.984375 6.890625 
Q 35.75 6.890625 40.890625 13.453125 
Q 46.046875 20.015625 46.78125 33.40625 
Q 43.953125 29.203125 39.59375 26.953125 
Q 35.25 24.703125 29.984375 24.703125 
Q 19.046875 24.703125 12.671875 31.3125 
Q 6.296875 37.9375 6.296875 49.421875 
Q 6.296875 60.640625 12.9375 67.421875 
Q 19.578125 74.21875 30.609375 74.21875 
Q 43.265625 74.21875 49.921875 64.515625 
Q 56.59375 54.828125 56.59375 36.375 
Q 56.59375 19.140625 48.40625 8.859375 
Q 40.234375 -1.421875 26.421875 -1.421875 
Q 22.703125 -1.421875 18.890625 -0.6875 
Q 15.09375 0.046875 10.984375 1.515625 
z
M 30.609375 32.421875 
Q 37.25 32.421875 41.125 36.953125 
Q 45.015625 41.5 45.015625 49.421875 
Q 45.015625 57.28125 41.125 61.84375 
Q 37.25 66.40625 30.609375 66.40625 
Q 23.96875 66.40625 20.09375 61.84375 
Q 16.21875 57.28125 16.21875 49.421875 
Q 16.21875 41.5 20.09375 36.953125 
Q 23.96875 32.421875 30.609375 32.421875 
z
" id="DejaVuSans-57"/>
     </defs>
     <use xlink:href="#DejaVuSans-98"/>
     <use x="63.476562" xlink:href="#DejaVuSans-101"/>
     <use x="125" xlink:href="#DejaVuSans-115"/>
     <use x="177.099609" xlink:href="#DejaVuSans-116"/>
     <use x="216.308594" xlink:href="#DejaVuSans-32"/>
     <use x="248.095703" xlink:href="#DejaVuSans-50"/>
     <use x="311.71875" xlink:href="#DejaVuSans-48"/>
     <use x="375.341797" xlink:href="#DejaVuSans-48"/>
     <use x="438.964844" xlink:href="#DejaVuSans-57"/>
    </g>
   </g>
   <g id="text_16">
    <!-- bbob f14, 20-D -->
    <g transform="translate(60.41088 38.111366)scale(0.102 -0.102)">
     <defs>
      <path d="M 19.671875 64.796875 
L 19.671875 8.109375 
L 31.59375 8.109375 
Q 46.6875 8.109375 53.6875 14.9375 
Q 60.6875 21.78125 60.6875 36.53125 
Q 60.6875 51.171875 53.6875 57.984375 
Q 46.6875 64.796875 31.59375 64.796875 
z
M 9.8125 72.90625 
L 30.078125 72.90625 
Q 51.265625 72.90625 61.171875 64.09375 
Q 71.09375 55.28125 71.09375 36.53125 
Q 71.09375 17.671875 61.125 8.828125 
Q 51.171875 0 30.078125 0 
L 9.8125 0 
z
" id="DejaVuSans-68"/>
     </defs>
     <use xlink:href="#DejaVuSans-98"/>
     <use x="63.476562" xlink:href="#DejaVuSans-98"/>
     <use x="126.953125" xlink:href="#DejaVuSans-111"/>
     <use x="188.134766" xlink:href="#DejaVuSans-98"/>
     <use x="251.611328" xlink:href="#DejaVuSans-32"/>
     <use x="283.398438" xlink:href="#DejaVuSans-102"/>
     <use x="318.603516" xlink:href="#DejaVuSans-49"/>
     <use x="382.226562" xlink:href="#DejaVuSans-52"/>
     <use x="445.849609" xlink:href="#DejaVuSans-44"/>
     <use x="477.636719" xlink:href="#DejaVuSans-32"/>
     <use x="509.423828" xlink:href="#DejaVuSans-50"/>
     <use x="573.046875" xlink:href="#DejaVuSans-48"/>
     <use x="636.669922" xlink:href="#DejaVuSans-45"/>
     <use x="672.753906" xlink:href="#DejaVuSans-68"/>
    </g>
    <!-- 51 targets: 100..1e-08 -->
    <g transform="translate(60.41088 49.533135)scale(0.102 -0.102)">
     <defs>
      <path d="M 10.796875 72.90625 
L 49.515625 72.90625 
L 49.515625 64.59375 
L 19.828125 64.59375 
L 19.828125 46.734375 
Q 21.96875 47.46875 24.109375 47.828125 
Q 26.265625 48.1875 28.421875 48.1875 
Q 40.625 48.1875 47.75 41.5 
Q 54.890625 34.8125 54.890625 23.390625 
Q 54.890625 11.625 47.5625 5.09375 
Q 40.234375 -1.421875 26.90625 -1.421875 
Q 22.3125 -1.421875 17.546875 -0.640625 
Q 12.796875 0.140625 7.71875 1.703125 
L 7.71875 11.625 
Q 12.109375 9.234375 16.796875 8.0625 
Q 21.484375 6.890625 26.703125 6.890625 
Q 35.15625 6.890625 40.078125 11.328125 
Q 45.015625 15.765625 45.015625 23.390625 
Q 45.015625 31 40.078125 35.4375 
Q 35.15625 39.890625 26.703125 39.890625 
Q 22.75 39.890625 18.8125 39.015625 
Q 14.890625 38.140625 10.796875 36.28125 
z
" id="DejaVuSans-53"/>
      <path d="M 11.71875 12.40625 
L 22.015625 12.40625 
L 22.015625 0 
L 11.71875 0 
z
M 11.71875 51.703125 
L 22.015625 51.703125 
L 22.015625 39.3125 
L 11.71875 39.3125 
z
" id="DejaVuSans-58"/>
     </defs>
     <use xlink:href="#DejaVuSans-53"/>
     <use x="63.623047" xlink:href="#DejaVuSans-49"/>
     <use x="127.246094" xlink:href="#DejaVuSans-32"/>
     <use x="159.033203" xlink:href="#DejaVuSans-116"/>
     <use x="198.242188" xlink:href="#DejaVuSans-97"/>
     <use x="259.521484" xlink:href="#DejaVuSans-114"/>
     <use x="298.884766" xlink:href="#DejaVuSans-103"/>
     <use x="362.361328" xlink:href="#DejaVuSans-101"/>
     <use x="423.884766" xlink:href="#DejaVuSans-116"/>
     <use x="463.09375" xlink:href="#DejaVuSans-115"/>
     <use x="515.193359" xlink:href="#DejaVuSans-58"/>
     <use x="548.884766" xlink:href="#DejaVuSans-32"/>
     <use x="580.671875" xlink:href="#DejaVuSans-49"/>
     <use x="644.294922" xlink:href="#DejaVuSans-48"/>
     <use x="707.917969" xlink:href="#DejaVuSans-48"/>
     <use x="771.541016" xlink:href="#DejaVuSans-46"/>
     <use x="803.328125" xlink:href="#DejaVuSans-46"/>
     <use x="835.115234" xlink:href="#DejaVuSans-49"/>
     <use x="898.738281" xlink:href="#DejaVuSans-101"/>
     <use x="960.261719" xlink:href="#DejaVuSans-45"/>
     <use x="996.345703" xlink:href="#DejaVuSans-48"/>
     <use x="1059.96875" xlink:href="#DejaVuSans-56"/>
    </g>
    <!-- 15 instances -->
    <g transform="translate(60.41088 60.954904)scale(0.102 -0.102)">
     <use xlink:href="#DejaVuSans-49"/>
     <use x="63.623047" xlink:href="#DejaVuSans-53"/>
     <use x="127.246094" xlink:href="#DejaVuSans-32"/>
     <use x="159.033203" xlink:href="#DejaVuSans-105"/>
     <use x="186.816406" xlink:href="#DejaVuSans-110"/>
     <use x="250.195312" xlink:href="#DejaVuSans-115"/>
     <use x="302.294922" xlink:href="#DejaVuSans-116"/>
     <use x="341.503906" xlink:href="#DejaVuSans-97"/>
     <use x="402.783203" xlink:href="#DejaVuSans-110"/>
     <use x="466.162109" xlink:href="#DejaVuSans-99"/>
     <use x="521.142578" xlink:href="#DejaVuSans-101"/>
     <use x="582.666016" xlink:href="#DejaVuSans-115"/>
    </g>
   </g>
   <g id="text_17">
    <!-- v2.4 -->
    <g style="fill:#808080;" transform="translate(187.233062 294.151352)scale(0.1 -0.1)">
     <use xlink:href="#DejaVuSans-118"/>
     <use x="59.179688" xlink:href="#DejaVuSans-50"/>
     <use x="122.802734" xlink:href="#DejaVuSans-46"/>
     <use x="154.589844" xlink:href="#DejaVuSans-52"/>
    </g>
   </g>
   <g id="text_18">
    <!-- 14 Sum of different powers -->
    <g transform="translate(61.904937 21.648)scale(0.2 -0.2)">
     <defs>
      <path d="M 4.203125 54.6875 
L 13.1875 54.6875 
L 24.421875 12.015625 
L 35.59375 54.6875 
L 46.1875 54.6875 
L 57.421875 12.015625 
L 68.609375 54.6875 
L 77.59375 54.6875 
L 63.28125 0 
L 52.6875 0 
L 40.921875 44.828125 
L 29.109375 0 
L 18.5 0 
z
" id="DejaVuSans-119"/>
     </defs>
     <use xlink:href="#DejaVuSans-49"/>
     <use x="63.623047" xlink:href="#DejaVuSans-52"/>
     <use x="127.246094" xlink:href="#DejaVuSans-32"/>
     <use x="159.033203" xlink:href="#DejaVuSans-83"/>
     <use x="222.509766" xlink:href="#DejaVuSans-117"/>
     <use x="285.888672" xlink:href="#DejaVuSans-109"/>
     <use x="383.300781" xlink:href="#DejaVuSans-32"/>
     <use x="415.087891" xlink:href="#DejaVuSans-111"/>
     <use x="476.269531" xlink:href="#DejaVuSans-102"/>
     <use x="511.474609" xlink:href="#DejaVuSans-32"/>
     <use x="543.261719" xlink:href="#DejaVuSans-100"/>
     <use x="606.738281" xlink:href="#DejaVuSans-105"/>
     <use x="634.521484" xlink:href="#DejaVuSans-102"/>
     <use x="669.726562" xlink:href="#DejaVuSans-102"/>
     <use x="704.931641" xlink:href="#DejaVuSans-101"/>
     <use x="766.455078" xlink:href="#DejaVuSans-114"/>
     <use x="805.318359" xlink:href="#DejaVuSans-101"/>
     <use x="866.841797" xlink:href="#DejaVuSans-110"/>
     <use x="930.220703" xlink:href="#DejaVuSans-116"/>
     <use x="969.429688" xlink:href="#DejaVuSans-32"/>
     <use x="1001.216797" xlink:href="#DejaVuSans-112"/>
     <use x="1064.693359" xlink:href="#DejaVuSans-111"/>
     <use x="1125.875" xlink:href="#DejaVuSans-119"/>
     <use x="1207.662109" xlink:href="#DejaVuSans-101"/>
     <use x="1269.185547" xlink:href="#DejaVuSans-114"/>
     <use x="1310.298828" xlink:href="#DejaVuSans-115"/>
    </g>
   </g>
  </g>
 </g>
 <defs>
  <clipPath id="p124c2bc987">
   <rect height="271.296" width="281.088" x="57.6" y="27.648"/>
  </clipPath>
 </defs>
</svg>
