<?xml version="1.0" encoding="utf-8" standalone="no"?>
<!DOCTYPE svg PUBLIC "-//W3C//DTD SVG 1.1//EN"
  "http://www.w3.org/Graphics/SVG/1.1/DTD/svg11.dtd">
<!-- Created with matplotlib (https://matplotlib.org/) -->
<svg height="345.6pt" version="1.1" viewBox="0 0 460.8 345.6" width="460.8pt" xmlns="http://www.w3.org/2000/svg" xmlns:xlink="http://www.w3.org/1999/xlink">
 <metadata>
  <rdf:RDF xmlns:cc="http://creativecommons.org/ns#" xmlns:dc="http://purl.org/dc/elements/1.1/" xmlns:rdf="http://www.w3.org/1999/02/22-rdf-syntax-ns#">
   <cc:Work>
    <dc:type rdf:resource="http://purl.org/dc/dcmitype/StillImage"/>
    <dc:date>2021-05-01T17:09:19.110804</dc:date>
    <dc:format>image/svg+xml</dc:format>
    <dc:creator>
     <cc:Agent>
      <dc:title>Matplotlib v3.3.2, https://matplotlib.org/</dc:title>
     </cc:Agent>
    </dc:creator>
   </cc:Work>
  </rdf:RDF>
 </metadata>
 <defs>
  <style type="text/css">*{stroke-linecap:butt;stroke-linejoin:round;}</style>
 </defs>
 <g id="figure_1">
  <g id="patch_1">
   <path d="M 0 345.6 
L 460.8 345.6 
L 460.8 0 
L 0 0 
z
" style="fill:#ffffff;"/>
  </g>
  <g id="axes_1">
   <g id="patch_2">
    <path d="M 57.6 298.944 
L 338.688 298.944 
L 338.688 27.648 
L 57.6 27.648 
z
" style="fill:#ffffff;"/>
   </g>
   <g id="line2d_1">
    <path d="M 29.53256 298.944 
L 29.53256 283.143418 
L 41.620548 283.143418 
L 41.620548 272.609696 
L 57.6 272.609696 
L 57.6 267.342835 
L 86.351421 267.342835 
L 86.351421 262.075974 
L 100.040467 262.075974 
L 100.040467 256.809114 
L 111.505558 256.809114 
L 111.505558 251.542253 
L 118.148599 251.542253 
L 118.148599 246.275392 
L 123.192626 246.275392 
L 123.192626 241.008531 
L 134.534878 241.008531 
L 134.534878 235.74167 
L 137.415591 235.74167 
L 137.415591 230.47481 
L 141.061324 230.47481 
L 141.061324 225.207949 
L 147.061745 225.207949 
L 147.061745 219.941088 
L 148.142046 219.941088 
L 148.142046 214.674227 
L 153.061751 214.674227 
L 153.061751 209.407366 
L 158.053098 209.407366 
L 158.053098 204.140506 
L 162.466339 204.140506 
L 162.466339 198.873645 
L 163.02881 198.873645 
L 163.02881 193.606784 
L 168.330516 193.606784 
L 168.330516 188.339923 
L 168.72825 188.339923 
L 168.72825 183.073062 
L 170.526891 183.073062 
L 170.526891 177.806202 
L 171.222237 177.806202 
L 171.222237 172.539341 
L 172.356777 172.539341 
L 172.356777 167.27248 
L 172.668501 167.27248 
L 172.668501 162.005619 
L 173.072554 162.005619 
L 173.072554 156.738758 
L 174.283479 156.738758 
L 174.283479 151.471897 
L 175.521004 151.471897 
L 175.521004 146.205037 
L 176.998351 146.205037 
L 176.998351 140.938176 
L 177.339841 140.938176 
L 177.339841 135.671315 
L 178.642617 135.671315 
L 178.642617 130.404454 
L 180.182234 130.404454 
L 180.182234 125.137593 
L 181.338605 125.137593 
L 181.338605 119.870733 
L 181.840161 119.870733 
L 181.840161 114.603872 
L 182.237315 114.603872 
L 182.237315 109.337011 
L 184.471359 109.337011 
L 184.471359 104.07015 
L 184.622891 104.07015 
L 184.622891 98.803289 
L 184.70651 98.803289 
L 184.70651 93.536429 
L 184.86547 93.536429 
L 184.86547 88.269568 
L 184.983161 88.269568 
L 184.983161 83.002707 
L 185.211555 83.002707 
L 185.211555 77.735846 
L 185.489487 77.735846 
L 185.489487 72.468985 
L 185.774272 72.468985 
L 185.774272 67.202125 
L 185.934942 67.202125 
L 185.934942 61.935264 
L 186.11834 61.935264 
L 186.11834 56.668403 
L 186.328086 56.668403 
L 186.328086 51.401542 
L 186.444969 51.401542 
L 186.444969 46.134681 
L 186.571785 46.134681 
L 186.571785 40.867821 
L 186.682796 40.867821 
L 186.682796 35.60096 
L 186.810013 35.60096 
L 186.810013 30.334099 
L 338.688 30.334099 
" style="fill:none;stroke:#f5deb3;stroke-linecap:square;stroke-width:4;"/>
   </g>
   <g id="line2d_2">
    <defs>
     <path d="M -0 7.778175 
L 7.778175 0 
L 0 -7.778175 
L -7.778175 -0 
z
" id="md50d0c471c" style="stroke:#f5deb3;stroke-linejoin:miter;stroke-width:1.5;"/>
    </defs>
    <g>
     <use style="fill:#f5deb3;stroke:#f5deb3;stroke-linejoin:miter;stroke-width:1.5;" x="148.142046" xlink:href="#md50d0c471c" y="214.674227"/>
     <use style="fill:#f5deb3;stroke:#f5deb3;stroke-linejoin:miter;stroke-width:1.5;" x="182.237315" xlink:href="#md50d0c471c" y="114.603872"/>
     <use style="fill:#f5deb3;stroke:#f5deb3;stroke-linejoin:miter;stroke-width:1.5;" x="186.810013" xlink:href="#md50d0c471c" y="35.60096"/>
     <use style="fill:#f5deb3;stroke:#f5deb3;stroke-linejoin:miter;stroke-width:1.5;" x="186.810013" xlink:href="#md50d0c471c" y="30.334099"/>
     <use style="fill:#f5deb3;stroke:#f5deb3;stroke-linejoin:miter;stroke-width:1.5;" x="338.688" xlink:href="#md50d0c471c" y="30.334099"/>
    </g>
   </g>
   <g id="line2d_3">
    <path style="fill:none;stroke:#f5deb3;stroke-linecap:square;stroke-width:4;"/>
    <g/>
   </g>
   <g id="line2d_4">
    <path d="M 338.688 30.334099 
L 369.60768 35.706297 
" style="fill:none;stroke:#f5deb3;stroke-linecap:square;stroke-width:4;"/>
    <g>
     <use style="fill:#f5deb3;stroke:#f5deb3;stroke-linejoin:miter;stroke-width:1.5;" x="338.688" xlink:href="#md50d0c471c" y="30.334099"/>
     <use style="fill:#f5deb3;stroke:#f5deb3;stroke-linejoin:miter;stroke-width:1.5;" x="369.60768" xlink:href="#md50d0c471c" y="35.706297"/>
    </g>
   </g>
   <g id="matplotlib.axis_1">
    <g id="xtick_1">
     <g id="line2d_5">
      <path clip-path="url(#p36889aaa20)" d="M 57.6 298.944 
L 57.6 27.648 
" style="fill:none;stroke:#b0b0b0;stroke-linecap:square;stroke-width:0.8;"/>
     </g>
     <g id="line2d_6">
      <defs>
       <path d="M 0 0 
L 0 3.5 
" id="mf827056c0a" style="stroke:#000000;stroke-width:0.8;"/>
      </defs>
      <g>
       <use style="stroke:#000000;stroke-width:0.8;" x="57.6" xlink:href="#mf827056c0a" y="298.944"/>
      </g>
     </g>
     <g id="text_1">
      <!-- 0 -->
      <g transform="translate(51.2375 321.140875)scale(0.2 -0.2)">
       <defs>
        <path d="M 31.78125 66.40625 
Q 24.171875 66.40625 20.328125 58.90625 
Q 16.5 51.421875 16.5 36.375 
Q 16.5 21.390625 20.328125 13.890625 
Q 24.171875 6.390625 31.78125 6.390625 
Q 39.453125 6.390625 43.28125 13.890625 
Q 47.125 21.390625 47.125 36.375 
Q 47.125 51.421875 43.28125 58.90625 
Q 39.453125 66.40625 31.78125 66.40625 
z
M 31.78125 74.21875 
Q 44.046875 74.21875 50.515625 64.515625 
Q 56.984375 54.828125 56.984375 36.375 
Q 56.984375 17.96875 50.515625 8.265625 
Q 44.046875 -1.421875 31.78125 -1.421875 
Q 19.53125 -1.421875 13.0625 8.265625 
Q 6.59375 17.96875 6.59375 36.375 
Q 6.59375 54.828125 13.0625 64.515625 
Q 19.53125 74.21875 31.78125 74.21875 
z
" id="DejaVuSans-48"/>
       </defs>
       <use xlink:href="#DejaVuSans-48"/>
      </g>
     </g>
    </g>
    <g id="xtick_2">
     <g id="line2d_7">
      <path clip-path="url(#p36889aaa20)" d="M 137.910857 298.944 
L 137.910857 27.648 
" style="fill:none;stroke:#b0b0b0;stroke-linecap:square;stroke-width:0.8;"/>
     </g>
     <g id="line2d_8">
      <g>
       <use style="stroke:#000000;stroke-width:0.8;" x="137.910857" xlink:href="#mf827056c0a" y="298.944"/>
      </g>
     </g>
     <g id="text_2">
      <!-- 2 -->
      <g transform="translate(131.548357 321.140875)scale(0.2 -0.2)">
       <defs>
        <path d="M 19.1875 8.296875 
L 53.609375 8.296875 
L 53.609375 0 
L 7.328125 0 
L 7.328125 8.296875 
Q 12.9375 14.109375 22.625 23.890625 
Q 32.328125 33.6875 34.8125 36.53125 
Q 39.546875 41.84375 41.421875 45.53125 
Q 43.3125 49.21875 43.3125 52.78125 
Q 43.3125 58.59375 39.234375 62.25 
Q 35.15625 65.921875 28.609375 65.921875 
Q 23.96875 65.921875 18.8125 64.3125 
Q 13.671875 62.703125 7.8125 59.421875 
L 7.8125 69.390625 
Q 13.765625 71.78125 18.9375 73 
Q 24.125 74.21875 28.421875 74.21875 
Q 39.75 74.21875 46.484375 68.546875 
Q 53.21875 62.890625 53.21875 53.421875 
Q 53.21875 48.921875 51.53125 44.890625 
Q 49.859375 40.875 45.40625 35.40625 
Q 44.1875 33.984375 37.640625 27.21875 
Q 31.109375 20.453125 19.1875 8.296875 
z
" id="DejaVuSans-50"/>
       </defs>
       <use xlink:href="#DejaVuSans-50"/>
      </g>
     </g>
    </g>
    <g id="xtick_3">
     <g id="line2d_9">
      <path clip-path="url(#p36889aaa20)" d="M 218.221714 298.944 
L 218.221714 27.648 
" style="fill:none;stroke:#b0b0b0;stroke-linecap:square;stroke-width:0.8;"/>
     </g>
     <g id="line2d_10">
      <g>
       <use style="stroke:#000000;stroke-width:0.8;" x="218.221714" xlink:href="#mf827056c0a" y="298.944"/>
      </g>
     </g>
     <g id="text_3">
      <!-- 4 -->
      <g transform="translate(211.859214 321.140875)scale(0.2 -0.2)">
       <defs>
        <path d="M 37.796875 64.3125 
L 12.890625 25.390625 
L 37.796875 25.390625 
z
M 35.203125 72.90625 
L 47.609375 72.90625 
L 47.609375 25.390625 
L 58.015625 25.390625 
L 58.015625 17.1875 
L 47.609375 17.1875 
L 47.609375 0 
L 37.796875 0 
L 37.796875 17.1875 
L 4.890625 17.1875 
L 4.890625 26.703125 
z
" id="DejaVuSans-52"/>
       </defs>
       <use xlink:href="#DejaVuSans-52"/>
      </g>
     </g>
    </g>
    <g id="xtick_4">
     <g id="line2d_11">
      <path clip-path="url(#p36889aaa20)" d="M 298.532571 298.944 
L 298.532571 27.648 
" style="fill:none;stroke:#b0b0b0;stroke-linecap:square;stroke-width:0.8;"/>
     </g>
     <g id="line2d_12">
      <g>
       <use style="stroke:#000000;stroke-width:0.8;" x="298.532571" xlink:href="#mf827056c0a" y="298.944"/>
      </g>
     </g>
     <g id="text_4">
      <!-- 6 -->
      <g transform="translate(292.170071 321.140875)scale(0.2 -0.2)">
       <defs>
        <path d="M 33.015625 40.375 
Q 26.375 40.375 22.484375 35.828125 
Q 18.609375 31.296875 18.609375 23.390625 
Q 18.609375 15.53125 22.484375 10.953125 
Q 26.375 6.390625 33.015625 6.390625 
Q 39.65625 6.390625 43.53125 10.953125 
Q 47.40625 15.53125 47.40625 23.390625 
Q 47.40625 31.296875 43.53125 35.828125 
Q 39.65625 40.375 33.015625 40.375 
z
M 52.59375 71.296875 
L 52.59375 62.3125 
Q 48.875 64.0625 45.09375 64.984375 
Q 41.3125 65.921875 37.59375 65.921875 
Q 27.828125 65.921875 22.671875 59.328125 
Q 17.53125 52.734375 16.796875 39.40625 
Q 19.671875 43.65625 24.015625 45.921875 
Q 28.375 48.1875 33.59375 48.1875 
Q 44.578125 48.1875 50.953125 41.515625 
Q 57.328125 34.859375 57.328125 23.390625 
Q 57.328125 12.15625 50.6875 5.359375 
Q 44.046875 -1.421875 33.015625 -1.421875 
Q 20.359375 -1.421875 13.671875 8.265625 
Q 6.984375 17.96875 6.984375 36.375 
Q 6.984375 53.65625 15.1875 63.9375 
Q 23.390625 74.21875 37.203125 74.21875 
Q 40.921875 74.21875 44.703125 73.484375 
Q 48.484375 72.75 52.59375 71.296875 
z
" id="DejaVuSans-54"/>
       </defs>
       <use xlink:href="#DejaVuSans-54"/>
      </g>
     </g>
    </g>
    <g id="xtick_5">
     <g id="line2d_13">
      <path clip-path="url(#p36889aaa20)" d="M 97.755429 298.944 
L 97.755429 27.648 
" style="fill:none;stroke:#b0b0b0;stroke-linecap:square;stroke-width:0.8;"/>
     </g>
     <g id="line2d_14">
      <defs>
       <path d="M 0 0 
L 0 2 
" id="m8cb606c2e7" style="stroke:#000000;stroke-width:0.6;"/>
      </defs>
      <g>
       <use style="stroke:#000000;stroke-width:0.6;" x="97.755429" xlink:href="#m8cb606c2e7" y="298.944"/>
      </g>
     </g>
    </g>
    <g id="xtick_6">
     <g id="line2d_15">
      <path clip-path="url(#p36889aaa20)" d="M 178.066286 298.944 
L 178.066286 27.648 
" style="fill:none;stroke:#b0b0b0;stroke-linecap:square;stroke-width:0.8;"/>
     </g>
     <g id="line2d_16">
      <g>
       <use style="stroke:#000000;stroke-width:0.6;" x="178.066286" xlink:href="#m8cb606c2e7" y="298.944"/>
      </g>
     </g>
    </g>
    <g id="xtick_7">
     <g id="line2d_17">
      <path clip-path="url(#p36889aaa20)" d="M 258.377143 298.944 
L 258.377143 27.648 
" style="fill:none;stroke:#b0b0b0;stroke-linecap:square;stroke-width:0.8;"/>
     </g>
     <g id="line2d_18">
      <g>
       <use style="stroke:#000000;stroke-width:0.6;" x="258.377143" xlink:href="#m8cb606c2e7" y="298.944"/>
      </g>
     </g>
    </g>
    <g id="xtick_8">
     <g id="line2d_19">
      <path clip-path="url(#p36889aaa20)" d="M 338.688 298.944 
L 338.688 27.648 
" style="fill:none;stroke:#b0b0b0;stroke-linecap:square;stroke-width:0.8;"/>
     </g>
     <g id="line2d_20">
      <g>
       <use style="stroke:#000000;stroke-width:0.6;" x="338.688" xlink:href="#m8cb606c2e7" y="298.944"/>
      </g>
     </g>
    </g>
    <g id="text_5">
     <!-- log10(# f-evals / dimension) -->
     <g transform="translate(77.764078 342.217594)scale(0.17 -0.17)">
      <defs>
       <path d="M 9.421875 75.984375 
L 18.40625 75.984375 
L 18.40625 0 
L 9.421875 0 
z
" id="DejaVuSans-108"/>
       <path d="M 30.609375 48.390625 
Q 23.390625 48.390625 19.1875 42.75 
Q 14.984375 37.109375 14.984375 27.296875 
Q 14.984375 17.484375 19.15625 11.84375 
Q 23.34375 6.203125 30.609375 6.203125 
Q 37.796875 6.203125 41.984375 11.859375 
Q 46.1875 17.53125 46.1875 27.296875 
Q 46.1875 37.015625 41.984375 42.703125 
Q 37.796875 48.390625 30.609375 48.390625 
z
M 30.609375 56 
Q 42.328125 56 49.015625 48.375 
Q 55.71875 40.765625 55.71875 27.296875 
Q 55.71875 13.875 49.015625 6.21875 
Q 42.328125 -1.421875 30.609375 -1.421875 
Q 18.84375 -1.421875 12.171875 6.21875 
Q 5.515625 13.875 5.515625 27.296875 
Q 5.515625 40.765625 12.171875 48.375 
Q 18.84375 56 30.609375 56 
z
" id="DejaVuSans-111"/>
       <path d="M 45.40625 27.984375 
Q 45.40625 37.75 41.375 43.109375 
Q 37.359375 48.484375 30.078125 48.484375 
Q 22.859375 48.484375 18.828125 43.109375 
Q 14.796875 37.75 14.796875 27.984375 
Q 14.796875 18.265625 18.828125 12.890625 
Q 22.859375 7.515625 30.078125 7.515625 
Q 37.359375 7.515625 41.375 12.890625 
Q 45.40625 18.265625 45.40625 27.984375 
z
M 54.390625 6.78125 
Q 54.390625 -7.171875 48.1875 -13.984375 
Q 42 -20.796875 29.203125 -20.796875 
Q 24.46875 -20.796875 20.265625 -20.09375 
Q 16.0625 -19.390625 12.109375 -17.921875 
L 12.109375 -9.1875 
Q 16.0625 -11.328125 19.921875 -12.34375 
Q 23.78125 -13.375 27.78125 -13.375 
Q 36.625 -13.375 41.015625 -8.765625 
Q 45.40625 -4.15625 45.40625 5.171875 
L 45.40625 9.625 
Q 42.625 4.78125 38.28125 2.390625 
Q 33.9375 0 27.875 0 
Q 17.828125 0 11.671875 7.65625 
Q 5.515625 15.328125 5.515625 27.984375 
Q 5.515625 40.671875 11.671875 48.328125 
Q 17.828125 56 27.875 56 
Q 33.9375 56 38.28125 53.609375 
Q 42.625 51.21875 45.40625 46.390625 
L 45.40625 54.6875 
L 54.390625 54.6875 
z
" id="DejaVuSans-103"/>
       <path d="M 12.40625 8.296875 
L 28.515625 8.296875 
L 28.515625 63.921875 
L 10.984375 60.40625 
L 10.984375 69.390625 
L 28.421875 72.90625 
L 38.28125 72.90625 
L 38.28125 8.296875 
L 54.390625 8.296875 
L 54.390625 0 
L 12.40625 0 
z
" id="DejaVuSans-49"/>
       <path d="M 31 75.875 
Q 24.46875 64.65625 21.28125 53.65625 
Q 18.109375 42.671875 18.109375 31.390625 
Q 18.109375 20.125 21.3125 9.0625 
Q 24.515625 -2 31 -13.1875 
L 23.1875 -13.1875 
Q 15.875 -1.703125 12.234375 9.375 
Q 8.59375 20.453125 8.59375 31.390625 
Q 8.59375 42.28125 12.203125 53.3125 
Q 15.828125 64.359375 23.1875 75.875 
z
" id="DejaVuSans-40"/>
       <path d="M 51.125 44 
L 36.921875 44 
L 32.8125 27.6875 
L 47.125 27.6875 
z
M 43.796875 71.78125 
L 38.71875 51.515625 
L 52.984375 51.515625 
L 58.109375 71.78125 
L 65.921875 71.78125 
L 60.890625 51.515625 
L 76.125 51.515625 
L 76.125 44 
L 58.984375 44 
L 54.984375 27.6875 
L 70.515625 27.6875 
L 70.515625 20.21875 
L 53.078125 20.21875 
L 48 0 
L 40.1875 0 
L 45.21875 20.21875 
L 30.90625 20.21875 
L 25.875 0 
L 18.015625 0 
L 23.09375 20.21875 
L 7.71875 20.21875 
L 7.71875 27.6875 
L 24.90625 27.6875 
L 29 44 
L 13.28125 44 
L 13.28125 51.515625 
L 30.90625 51.515625 
L 35.890625 71.78125 
z
" id="DejaVuSans-35"/>
       <path id="DejaVuSans-32"/>
       <path d="M 37.109375 75.984375 
L 37.109375 68.5 
L 28.515625 68.5 
Q 23.6875 68.5 21.796875 66.546875 
Q 19.921875 64.59375 19.921875 59.515625 
L 19.921875 54.6875 
L 34.71875 54.6875 
L 34.71875 47.703125 
L 19.921875 47.703125 
L 19.921875 0 
L 10.890625 0 
L 10.890625 47.703125 
L 2.296875 47.703125 
L 2.296875 54.6875 
L 10.890625 54.6875 
L 10.890625 58.5 
Q 10.890625 67.625 15.140625 71.796875 
Q 19.390625 75.984375 28.609375 75.984375 
z
" id="DejaVuSans-102"/>
       <path d="M 4.890625 31.390625 
L 31.203125 31.390625 
L 31.203125 23.390625 
L 4.890625 23.390625 
z
" id="DejaVuSans-45"/>
       <path d="M 56.203125 29.59375 
L 56.203125 25.203125 
L 14.890625 25.203125 
Q 15.484375 15.921875 20.484375 11.0625 
Q 25.484375 6.203125 34.421875 6.203125 
Q 39.59375 6.203125 44.453125 7.46875 
Q 49.3125 8.734375 54.109375 11.28125 
L 54.109375 2.78125 
Q 49.265625 0.734375 44.1875 -0.34375 
Q 39.109375 -1.421875 33.890625 -1.421875 
Q 20.796875 -1.421875 13.15625 6.1875 
Q 5.515625 13.8125 5.515625 26.8125 
Q 5.515625 40.234375 12.765625 48.109375 
Q 20.015625 56 32.328125 56 
Q 43.359375 56 49.78125 48.890625 
Q 56.203125 41.796875 56.203125 29.59375 
z
M 47.21875 32.234375 
Q 47.125 39.59375 43.09375 43.984375 
Q 39.0625 48.390625 32.421875 48.390625 
Q 24.90625 48.390625 20.390625 44.140625 
Q 15.875 39.890625 15.1875 32.171875 
z
" id="DejaVuSans-101"/>
       <path d="M 2.984375 54.6875 
L 12.5 54.6875 
L 29.59375 8.796875 
L 46.6875 54.6875 
L 56.203125 54.6875 
L 35.6875 0 
L 23.484375 0 
z
" id="DejaVuSans-118"/>
       <path d="M 34.28125 27.484375 
Q 23.390625 27.484375 19.1875 25 
Q 14.984375 22.515625 14.984375 16.5 
Q 14.984375 11.71875 18.140625 8.90625 
Q 21.296875 6.109375 26.703125 6.109375 
Q 34.1875 6.109375 38.703125 11.40625 
Q 43.21875 16.703125 43.21875 25.484375 
L 43.21875 27.484375 
z
M 52.203125 31.203125 
L 52.203125 0 
L 43.21875 0 
L 43.21875 8.296875 
Q 40.140625 3.328125 35.546875 0.953125 
Q 30.953125 -1.421875 24.3125 -1.421875 
Q 15.921875 -1.421875 10.953125 3.296875 
Q 6 8.015625 6 15.921875 
Q 6 25.140625 12.171875 29.828125 
Q 18.359375 34.515625 30.609375 34.515625 
L 43.21875 34.515625 
L 43.21875 35.40625 
Q 43.21875 41.609375 39.140625 45 
Q 35.0625 48.390625 27.6875 48.390625 
Q 23 48.390625 18.546875 47.265625 
Q 14.109375 46.140625 10.015625 43.890625 
L 10.015625 52.203125 
Q 14.9375 54.109375 19.578125 55.046875 
Q 24.21875 56 28.609375 56 
Q 40.484375 56 46.34375 49.84375 
Q 52.203125 43.703125 52.203125 31.203125 
z
" id="DejaVuSans-97"/>
       <path d="M 44.28125 53.078125 
L 44.28125 44.578125 
Q 40.484375 46.53125 36.375 47.5 
Q 32.28125 48.484375 27.875 48.484375 
Q 21.1875 48.484375 17.84375 46.4375 
Q 14.5 44.390625 14.5 40.28125 
Q 14.5 37.15625 16.890625 35.375 
Q 19.28125 33.59375 26.515625 31.984375 
L 29.59375 31.296875 
Q 39.15625 29.25 43.1875 25.515625 
Q 47.21875 21.78125 47.21875 15.09375 
Q 47.21875 7.46875 41.1875 3.015625 
Q 35.15625 -1.421875 24.609375 -1.421875 
Q 20.21875 -1.421875 15.453125 -0.5625 
Q 10.6875 0.296875 5.421875 2 
L 5.421875 11.28125 
Q 10.40625 8.6875 15.234375 7.390625 
Q 20.0625 6.109375 24.8125 6.109375 
Q 31.15625 6.109375 34.5625 8.28125 
Q 37.984375 10.453125 37.984375 14.40625 
Q 37.984375 18.0625 35.515625 20.015625 
Q 33.0625 21.96875 24.703125 23.78125 
L 21.578125 24.515625 
Q 13.234375 26.265625 9.515625 29.90625 
Q 5.8125 33.546875 5.8125 39.890625 
Q 5.8125 47.609375 11.28125 51.796875 
Q 16.75 56 26.8125 56 
Q 31.78125 56 36.171875 55.265625 
Q 40.578125 54.546875 44.28125 53.078125 
z
" id="DejaVuSans-115"/>
       <path d="M 25.390625 72.90625 
L 33.6875 72.90625 
L 8.296875 -9.28125 
L 0 -9.28125 
z
" id="DejaVuSans-47"/>
       <path d="M 45.40625 46.390625 
L 45.40625 75.984375 
L 54.390625 75.984375 
L 54.390625 0 
L 45.40625 0 
L 45.40625 8.203125 
Q 42.578125 3.328125 38.25 0.953125 
Q 33.9375 -1.421875 27.875 -1.421875 
Q 17.96875 -1.421875 11.734375 6.484375 
Q 5.515625 14.40625 5.515625 27.296875 
Q 5.515625 40.1875 11.734375 48.09375 
Q 17.96875 56 27.875 56 
Q 33.9375 56 38.25 53.625 
Q 42.578125 51.265625 45.40625 46.390625 
z
M 14.796875 27.296875 
Q 14.796875 17.390625 18.875 11.75 
Q 22.953125 6.109375 30.078125 6.109375 
Q 37.203125 6.109375 41.296875 11.75 
Q 45.40625 17.390625 45.40625 27.296875 
Q 45.40625 37.203125 41.296875 42.84375 
Q 37.203125 48.484375 30.078125 48.484375 
Q 22.953125 48.484375 18.875 42.84375 
Q 14.796875 37.203125 14.796875 27.296875 
z
" id="DejaVuSans-100"/>
       <path d="M 9.421875 54.6875 
L 18.40625 54.6875 
L 18.40625 0 
L 9.421875 0 
z
M 9.421875 75.984375 
L 18.40625 75.984375 
L 18.40625 64.59375 
L 9.421875 64.59375 
z
" id="DejaVuSans-105"/>
       <path d="M 52 44.1875 
Q 55.375 50.25 60.0625 53.125 
Q 64.75 56 71.09375 56 
Q 79.640625 56 84.28125 50.015625 
Q 88.921875 44.046875 88.921875 33.015625 
L 88.921875 0 
L 79.890625 0 
L 79.890625 32.71875 
Q 79.890625 40.578125 77.09375 44.375 
Q 74.3125 48.1875 68.609375 48.1875 
Q 61.625 48.1875 57.5625 43.546875 
Q 53.515625 38.921875 53.515625 30.90625 
L 53.515625 0 
L 44.484375 0 
L 44.484375 32.71875 
Q 44.484375 40.625 41.703125 44.40625 
Q 38.921875 48.1875 33.109375 48.1875 
Q 26.21875 48.1875 22.15625 43.53125 
Q 18.109375 38.875 18.109375 30.90625 
L 18.109375 0 
L 9.078125 0 
L 9.078125 54.6875 
L 18.109375 54.6875 
L 18.109375 46.1875 
Q 21.1875 51.21875 25.484375 53.609375 
Q 29.78125 56 35.6875 56 
Q 41.65625 56 45.828125 52.96875 
Q 50 49.953125 52 44.1875 
z
" id="DejaVuSans-109"/>
       <path d="M 54.890625 33.015625 
L 54.890625 0 
L 45.90625 0 
L 45.90625 32.71875 
Q 45.90625 40.484375 42.875 44.328125 
Q 39.84375 48.1875 33.796875 48.1875 
Q 26.515625 48.1875 22.3125 43.546875 
Q 18.109375 38.921875 18.109375 30.90625 
L 18.109375 0 
L 9.078125 0 
L 9.078125 54.6875 
L 18.109375 54.6875 
L 18.109375 46.1875 
Q 21.34375 51.125 25.703125 53.5625 
Q 30.078125 56 35.796875 56 
Q 45.21875 56 50.046875 50.171875 
Q 54.890625 44.34375 54.890625 33.015625 
z
" id="DejaVuSans-110"/>
       <path d="M 8.015625 75.875 
L 15.828125 75.875 
Q 23.140625 64.359375 26.78125 53.3125 
Q 30.421875 42.28125 30.421875 31.390625 
Q 30.421875 20.453125 26.78125 9.375 
Q 23.140625 -1.703125 15.828125 -13.1875 
L 8.015625 -13.1875 
Q 14.5 -2 17.703125 9.0625 
Q 20.90625 20.125 20.90625 31.390625 
Q 20.90625 42.671875 17.703125 53.65625 
Q 14.5 64.65625 8.015625 75.875 
z
" id="DejaVuSans-41"/>
      </defs>
      <use xlink:href="#DejaVuSans-108"/>
      <use x="27.783203" xlink:href="#DejaVuSans-111"/>
      <use x="88.964844" xlink:href="#DejaVuSans-103"/>
      <use x="152.441406" xlink:href="#DejaVuSans-49"/>
      <use x="216.064453" xlink:href="#DejaVuSans-48"/>
      <use x="279.6875" xlink:href="#DejaVuSans-40"/>
      <use x="318.701172" xlink:href="#DejaVuSans-35"/>
      <use x="402.490234" xlink:href="#DejaVuSans-32"/>
      <use x="434.277344" xlink:href="#DejaVuSans-102"/>
      <use x="463.982422" xlink:href="#DejaVuSans-45"/>
      <use x="500.066406" xlink:href="#DejaVuSans-101"/>
      <use x="561.589844" xlink:href="#DejaVuSans-118"/>
      <use x="620.769531" xlink:href="#DejaVuSans-97"/>
      <use x="682.048828" xlink:href="#DejaVuSans-108"/>
      <use x="709.832031" xlink:href="#DejaVuSans-115"/>
      <use x="761.931641" xlink:href="#DejaVuSans-32"/>
      <use x="793.71875" xlink:href="#DejaVuSans-47"/>
      <use x="827.410156" xlink:href="#DejaVuSans-32"/>
      <use x="859.197266" xlink:href="#DejaVuSans-100"/>
      <use x="922.673828" xlink:href="#DejaVuSans-105"/>
      <use x="950.457031" xlink:href="#DejaVuSans-109"/>
      <use x="1047.869141" xlink:href="#DejaVuSans-101"/>
      <use x="1109.392578" xlink:href="#DejaVuSans-110"/>
      <use x="1172.771484" xlink:href="#DejaVuSans-115"/>
      <use x="1224.871094" xlink:href="#DejaVuSans-105"/>
      <use x="1252.654297" xlink:href="#DejaVuSans-111"/>
      <use x="1313.835938" xlink:href="#DejaVuSans-110"/>
      <use x="1377.214844" xlink:href="#DejaVuSans-41"/>
     </g>
    </g>
   </g>
   <g id="matplotlib.axis_2">
    <g id="ytick_1">
     <g id="line2d_21">
      <path clip-path="url(#p36889aaa20)" d="M 57.6 298.944 
L 338.688 298.944 
" style="fill:none;stroke:#b0b0b0;stroke-linecap:square;stroke-width:0.8;"/>
     </g>
     <g id="line2d_22">
      <defs>
       <path d="M 0 0 
L -3.5 0 
" id="m9f534a4cf7" style="stroke:#000000;stroke-width:0.8;"/>
      </defs>
      <g>
       <use style="stroke:#000000;stroke-width:0.8;" x="57.6" xlink:href="#m9f534a4cf7" y="298.944"/>
      </g>
     </g>
     <g id="text_6">
      <!-- 0.0 -->
      <g transform="translate(25.155 305.02275)scale(0.16 -0.16)">
       <defs>
        <path d="M 10.6875 12.40625 
L 21 12.40625 
L 21 0 
L 10.6875 0 
z
" id="DejaVuSans-46"/>
       </defs>
       <use xlink:href="#DejaVuSans-48"/>
       <use x="63.623047" xlink:href="#DejaVuSans-46"/>
       <use x="95.410156" xlink:href="#DejaVuSans-48"/>
      </g>
     </g>
    </g>
    <g id="ytick_2">
     <g id="line2d_23">
      <path clip-path="url(#p36889aaa20)" d="M 57.6 245.22202 
L 338.688 245.22202 
" style="fill:none;stroke:#b0b0b0;stroke-linecap:square;stroke-width:0.8;"/>
     </g>
     <g id="line2d_24">
      <g>
       <use style="stroke:#000000;stroke-width:0.8;" x="57.6" xlink:href="#m9f534a4cf7" y="245.22202"/>
      </g>
     </g>
     <g id="text_7">
      <!-- 0.2 -->
      <g transform="translate(25.155 251.30077)scale(0.16 -0.16)">
       <use xlink:href="#DejaVuSans-48"/>
       <use x="63.623047" xlink:href="#DejaVuSans-46"/>
       <use x="95.410156" xlink:href="#DejaVuSans-50"/>
      </g>
     </g>
    </g>
    <g id="ytick_3">
     <g id="line2d_25">
      <path clip-path="url(#p36889aaa20)" d="M 57.6 191.50004 
L 338.688 191.50004 
" style="fill:none;stroke:#b0b0b0;stroke-linecap:square;stroke-width:0.8;"/>
     </g>
     <g id="line2d_26">
      <g>
       <use style="stroke:#000000;stroke-width:0.8;" x="57.6" xlink:href="#m9f534a4cf7" y="191.50004"/>
      </g>
     </g>
     <g id="text_8">
      <!-- 0.4 -->
      <g transform="translate(25.155 197.57879)scale(0.16 -0.16)">
       <use xlink:href="#DejaVuSans-48"/>
       <use x="63.623047" xlink:href="#DejaVuSans-46"/>
       <use x="95.410156" xlink:href="#DejaVuSans-52"/>
      </g>
     </g>
    </g>
    <g id="ytick_4">
     <g id="line2d_27">
      <path clip-path="url(#p36889aaa20)" d="M 57.6 137.778059 
L 338.688 137.778059 
" style="fill:none;stroke:#b0b0b0;stroke-linecap:square;stroke-width:0.8;"/>
     </g>
     <g id="line2d_28">
      <g>
       <use style="stroke:#000000;stroke-width:0.8;" x="57.6" xlink:href="#m9f534a4cf7" y="137.778059"/>
      </g>
     </g>
     <g id="text_9">
      <!-- 0.6 -->
      <g transform="translate(25.155 143.856809)scale(0.16 -0.16)">
       <use xlink:href="#DejaVuSans-48"/>
       <use x="63.623047" xlink:href="#DejaVuSans-46"/>
       <use x="95.410156" xlink:href="#DejaVuSans-54"/>
      </g>
     </g>
    </g>
    <g id="ytick_5">
     <g id="line2d_29">
      <path clip-path="url(#p36889aaa20)" d="M 57.6 84.056079 
L 338.688 84.056079 
" style="fill:none;stroke:#b0b0b0;stroke-linecap:square;stroke-width:0.8;"/>
     </g>
     <g id="line2d_30">
      <g>
       <use style="stroke:#000000;stroke-width:0.8;" x="57.6" xlink:href="#m9f534a4cf7" y="84.056079"/>
      </g>
     </g>
     <g id="text_10">
      <!-- 0.8 -->
      <g transform="translate(25.155 90.134829)scale(0.16 -0.16)">
       <defs>
        <path d="M 31.78125 34.625 
Q 24.75 34.625 20.71875 30.859375 
Q 16.703125 27.09375 16.703125 20.515625 
Q 16.703125 13.921875 20.71875 10.15625 
Q 24.75 6.390625 31.78125 6.390625 
Q 38.8125 6.390625 42.859375 10.171875 
Q 46.921875 13.96875 46.921875 20.515625 
Q 46.921875 27.09375 42.890625 30.859375 
Q 38.875 34.625 31.78125 34.625 
z
M 21.921875 38.8125 
Q 15.578125 40.375 12.03125 44.71875 
Q 8.5 49.078125 8.5 55.328125 
Q 8.5 64.0625 14.71875 69.140625 
Q 20.953125 74.21875 31.78125 74.21875 
Q 42.671875 74.21875 48.875 69.140625 
Q 55.078125 64.0625 55.078125 55.328125 
Q 55.078125 49.078125 51.53125 44.71875 
Q 48 40.375 41.703125 38.8125 
Q 48.828125 37.15625 52.796875 32.3125 
Q 56.78125 27.484375 56.78125 20.515625 
Q 56.78125 9.90625 50.3125 4.234375 
Q 43.84375 -1.421875 31.78125 -1.421875 
Q 19.734375 -1.421875 13.25 4.234375 
Q 6.78125 9.90625 6.78125 20.515625 
Q 6.78125 27.484375 10.78125 32.3125 
Q 14.796875 37.15625 21.921875 38.8125 
z
M 18.3125 54.390625 
Q 18.3125 48.734375 21.84375 45.5625 
Q 25.390625 42.390625 31.78125 42.390625 
Q 38.140625 42.390625 41.71875 45.5625 
Q 45.3125 48.734375 45.3125 54.390625 
Q 45.3125 60.0625 41.71875 63.234375 
Q 38.140625 66.40625 31.78125 66.40625 
Q 25.390625 66.40625 21.84375 63.234375 
Q 18.3125 60.0625 18.3125 54.390625 
z
" id="DejaVuSans-56"/>
       </defs>
       <use xlink:href="#DejaVuSans-48"/>
       <use x="63.623047" xlink:href="#DejaVuSans-46"/>
       <use x="95.410156" xlink:href="#DejaVuSans-56"/>
      </g>
     </g>
    </g>
    <g id="ytick_6">
     <g id="line2d_31">
      <path clip-path="url(#p36889aaa20)" d="M 57.6 30.334099 
L 338.688 30.334099 
" style="fill:none;stroke:#b0b0b0;stroke-linecap:square;stroke-width:0.8;"/>
     </g>
     <g id="line2d_32">
      <g>
       <use style="stroke:#000000;stroke-width:0.8;" x="57.6" xlink:href="#m9f534a4cf7" y="30.334099"/>
      </g>
     </g>
     <g id="text_11">
      <!-- 1.0 -->
      <g transform="translate(25.155 36.412849)scale(0.16 -0.16)">
       <use xlink:href="#DejaVuSans-49"/>
       <use x="63.623047" xlink:href="#DejaVuSans-46"/>
       <use x="95.410156" xlink:href="#DejaVuSans-48"/>
      </g>
     </g>
    </g>
    <g id="text_12">
     <!-- Fraction of function,target pairs -->
     <g transform="translate(17.619531 297.681)rotate(-90)scale(0.17 -0.17)">
      <defs>
       <path d="M 9.8125 72.90625 
L 51.703125 72.90625 
L 51.703125 64.59375 
L 19.671875 64.59375 
L 19.671875 43.109375 
L 48.578125 43.109375 
L 48.578125 34.8125 
L 19.671875 34.8125 
L 19.671875 0 
L 9.8125 0 
z
" id="DejaVuSans-70"/>
       <path d="M 41.109375 46.296875 
Q 39.59375 47.171875 37.8125 47.578125 
Q 36.03125 48 33.890625 48 
Q 26.265625 48 22.1875 43.046875 
Q 18.109375 38.09375 18.109375 28.8125 
L 18.109375 0 
L 9.078125 0 
L 9.078125 54.6875 
L 18.109375 54.6875 
L 18.109375 46.1875 
Q 20.953125 51.171875 25.484375 53.578125 
Q 30.03125 56 36.53125 56 
Q 37.453125 56 38.578125 55.875 
Q 39.703125 55.765625 41.0625 55.515625 
z
" id="DejaVuSans-114"/>
       <path d="M 48.78125 52.59375 
L 48.78125 44.1875 
Q 44.96875 46.296875 41.140625 47.34375 
Q 37.3125 48.390625 33.40625 48.390625 
Q 24.65625 48.390625 19.8125 42.84375 
Q 14.984375 37.3125 14.984375 27.296875 
Q 14.984375 17.28125 19.8125 11.734375 
Q 24.65625 6.203125 33.40625 6.203125 
Q 37.3125 6.203125 41.140625 7.25 
Q 44.96875 8.296875 48.78125 10.40625 
L 48.78125 2.09375 
Q 45.015625 0.34375 40.984375 -0.53125 
Q 36.96875 -1.421875 32.421875 -1.421875 
Q 20.0625 -1.421875 12.78125 6.34375 
Q 5.515625 14.109375 5.515625 27.296875 
Q 5.515625 40.671875 12.859375 48.328125 
Q 20.21875 56 33.015625 56 
Q 37.15625 56 41.109375 55.140625 
Q 45.0625 54.296875 48.78125 52.59375 
z
" id="DejaVuSans-99"/>
       <path d="M 18.3125 70.21875 
L 18.3125 54.6875 
L 36.8125 54.6875 
L 36.8125 47.703125 
L 18.3125 47.703125 
L 18.3125 18.015625 
Q 18.3125 11.328125 20.140625 9.421875 
Q 21.96875 7.515625 27.59375 7.515625 
L 36.8125 7.515625 
L 36.8125 0 
L 27.59375 0 
Q 17.1875 0 13.234375 3.875 
Q 9.28125 7.765625 9.28125 18.015625 
L 9.28125 47.703125 
L 2.6875 47.703125 
L 2.6875 54.6875 
L 9.28125 54.6875 
L 9.28125 70.21875 
z
" id="DejaVuSans-116"/>
       <path d="M 8.5 21.578125 
L 8.5 54.6875 
L 17.484375 54.6875 
L 17.484375 21.921875 
Q 17.484375 14.15625 20.5 10.265625 
Q 23.53125 6.390625 29.59375 6.390625 
Q 36.859375 6.390625 41.078125 11.03125 
Q 45.3125 15.671875 45.3125 23.6875 
L 45.3125 54.6875 
L 54.296875 54.6875 
L 54.296875 0 
L 45.3125 0 
L 45.3125 8.40625 
Q 42.046875 3.421875 37.71875 1 
Q 33.40625 -1.421875 27.6875 -1.421875 
Q 18.265625 -1.421875 13.375 4.4375 
Q 8.5 10.296875 8.5 21.578125 
z
M 31.109375 56 
z
" id="DejaVuSans-117"/>
       <path d="M 11.71875 12.40625 
L 22.015625 12.40625 
L 22.015625 4 
L 14.015625 -11.625 
L 7.71875 -11.625 
L 11.71875 4 
z
" id="DejaVuSans-44"/>
       <path d="M 18.109375 8.203125 
L 18.109375 -20.796875 
L 9.078125 -20.796875 
L 9.078125 54.6875 
L 18.109375 54.6875 
L 18.109375 46.390625 
Q 20.953125 51.265625 25.265625 53.625 
Q 29.59375 56 35.59375 56 
Q 45.5625 56 51.78125 48.09375 
Q 58.015625 40.1875 58.015625 27.296875 
Q 58.015625 14.40625 51.78125 6.484375 
Q 45.5625 -1.421875 35.59375 -1.421875 
Q 29.59375 -1.421875 25.265625 0.953125 
Q 20.953125 3.328125 18.109375 8.203125 
z
M 48.6875 27.296875 
Q 48.6875 37.203125 44.609375 42.84375 
Q 40.53125 48.484375 33.40625 48.484375 
Q 26.265625 48.484375 22.1875 42.84375 
Q 18.109375 37.203125 18.109375 27.296875 
Q 18.109375 17.390625 22.1875 11.75 
Q 26.265625 6.109375 33.40625 6.109375 
Q 40.53125 6.109375 44.609375 11.75 
Q 48.6875 17.390625 48.6875 27.296875 
z
" id="DejaVuSans-112"/>
      </defs>
      <use xlink:href="#DejaVuSans-70"/>
      <use x="50.269531" xlink:href="#DejaVuSans-114"/>
      <use x="91.382812" xlink:href="#DejaVuSans-97"/>
      <use x="152.662109" xlink:href="#DejaVuSans-99"/>
      <use x="207.642578" xlink:href="#DejaVuSans-116"/>
      <use x="246.851562" xlink:href="#DejaVuSans-105"/>
      <use x="274.634766" xlink:href="#DejaVuSans-111"/>
      <use x="335.816406" xlink:href="#DejaVuSans-110"/>
      <use x="399.195312" xlink:href="#DejaVuSans-32"/>
      <use x="430.982422" xlink:href="#DejaVuSans-111"/>
      <use x="492.164062" xlink:href="#DejaVuSans-102"/>
      <use x="527.369141" xlink:href="#DejaVuSans-32"/>
      <use x="559.15625" xlink:href="#DejaVuSans-102"/>
      <use x="594.361328" xlink:href="#DejaVuSans-117"/>
      <use x="657.740234" xlink:href="#DejaVuSans-110"/>
      <use x="721.119141" xlink:href="#DejaVuSans-99"/>
      <use x="776.099609" xlink:href="#DejaVuSans-116"/>
      <use x="815.308594" xlink:href="#DejaVuSans-105"/>
      <use x="843.091797" xlink:href="#DejaVuSans-111"/>
      <use x="904.273438" xlink:href="#DejaVuSans-110"/>
      <use x="967.652344" xlink:href="#DejaVuSans-44"/>
      <use x="999.439453" xlink:href="#DejaVuSans-116"/>
      <use x="1038.648438" xlink:href="#DejaVuSans-97"/>
      <use x="1099.927734" xlink:href="#DejaVuSans-114"/>
      <use x="1139.291016" xlink:href="#DejaVuSans-103"/>
      <use x="1202.767578" xlink:href="#DejaVuSans-101"/>
      <use x="1264.291016" xlink:href="#DejaVuSans-116"/>
      <use x="1303.5" xlink:href="#DejaVuSans-32"/>
      <use x="1335.287109" xlink:href="#DejaVuSans-112"/>
      <use x="1398.763672" xlink:href="#DejaVuSans-97"/>
      <use x="1460.042969" xlink:href="#DejaVuSans-105"/>
      <use x="1487.826172" xlink:href="#DejaVuSans-114"/>
      <use x="1528.939453" xlink:href="#DejaVuSans-115"/>
     </g>
    </g>
   </g>
   <g id="line2d_33">
    <defs>
     <path d="M 0 1.5 
C 0.397805 1.5 0.77937 1.341951 1.06066 1.06066 
C 1.341951 0.77937 1.5 0.397805 1.5 0 
C 1.5 -0.397805 1.341951 -0.77937 1.06066 -1.06066 
C 0.77937 -1.341951 0.397805 -1.5 0 -1.5 
C -0.397805 -1.5 -0.77937 -1.341951 -1.06066 -1.06066 
C -1.341951 -0.77937 -1.5 -0.397805 -1.5 0 
C -1.5 0.397805 -1.341951 0.77937 -1.06066 1.06066 
C -0.77937 1.341951 -0.397805 1.5 0 1.5 
z
" id="med52784297" style="stroke:#f5deb3;"/>
    </defs>
    <g>
     <use style="fill:#f5deb3;stroke:#f5deb3;" x="186.810013" xlink:href="#med52784297" y="30.334099"/>
     <use style="fill:#f5deb3;stroke:#f5deb3;" x="186.810013" xlink:href="#med52784297" y="30.334099"/>
    </g>
   </g>
   <g id="line2d_34">
    <defs>
     <path d="M 0 1.5 
C 0.397805 1.5 0.77937 1.341951 1.06066 1.06066 
C 1.341951 0.77937 1.5 0.397805 1.5 0 
C 1.5 -0.397805 1.341951 -0.77937 1.06066 -1.06066 
C 0.77937 -1.341951 0.397805 -1.5 0 -1.5 
C -0.397805 -1.5 -0.77937 -1.341951 -1.06066 -1.06066 
C -1.341951 -0.77937 -1.5 -0.397805 -1.5 0 
C -1.5 0.397805 -1.341951 0.77937 -1.06066 1.06066 
C -0.77937 1.341951 -0.397805 1.5 0 1.5 
z
" id="m0568b8fcda" style="stroke:#000080;"/>
    </defs>
    <g>
     <use style="fill:#000080;stroke:#000080;" x="272.494487" xlink:href="#m0568b8fcda" y="30.334099"/>
     <use style="fill:#000080;stroke:#000080;" x="272.494487" xlink:href="#m0568b8fcda" y="30.334099"/>
    </g>
   </g>
   <g id="line2d_35">
    <path d="M 29.53256 298.944 
L 29.53256 281.563359 
L 41.620548 281.563359 
L 41.620548 281.036673 
L 48.691568 281.036673 
L 48.691568 277.876557 
L 53.708537 277.876557 
L 53.708537 274.189754 
L 57.6 274.189754 
L 57.6 273.663068 
L 60.779557 273.663068 
L 60.779557 272.08301 
L 63.467834 272.08301 
L 63.467834 271.556324 
L 65.796525 271.556324 
L 65.796525 271.029638 
L 67.850577 271.029638 
L 67.850577 270.502952 
L 69.687988 270.502952 
L 69.687988 269.976266 
L 72.867545 269.976266 
L 72.867545 269.449579 
L 76.759008 269.449579 
L 76.759008 268.922893 
L 79.938565 268.922893 
L 79.938565 268.396207 
L 80.881459 268.396207 
L 80.881459 267.342835 
L 84.955534 267.342835 
L 84.955534 266.816149 
L 86.351421 266.816149 
L 86.351421 266.289463 
L 91.029752 266.289463 
L 91.029752 265.762777 
L 91.535274 265.762777 
L 91.535274 265.236091 
L 92.504372 265.236091 
L 92.504372 264.709405 
L 93.863965 264.709405 
L 93.863965 264.182719 
L 96.676366 264.182719 
L 96.676366 263.656033 
L 98.43941 263.656033 
L 98.43941 263.129347 
L 98.771596 263.129347 
L 98.771596 262.60266 
L 100.641881 262.60266 
L 100.641881 262.075974 
L 101.506816 262.075974 
L 101.506816 261.549288 
L 101.785851 261.549288 
L 101.785851 261.022602 
L 103.372333 261.022602 
L 103.372333 260.495916 
L 103.623262 260.495916 
L 103.623262 259.96923 
L 105.057436 259.96923 
L 105.057436 259.442544 
L 105.951954 259.442544 
L 105.951954 258.915858 
L 106.168594 258.915858 
L 106.168594 258.389172 
L 107.009204 258.389172 
L 107.009204 257.862486 
L 108.764355 257.862486 
L 108.764355 257.3358 
L 108.948899 257.3358 
L 108.948899 256.809114 
L 113.167699 256.809114 
L 113.167699 255.755741 
L 114.685115 255.755741 
L 114.685115 254.702369 
L 116.202531 254.702369 
L 116.202531 254.175683 
L 116.323218 254.175683 
L 116.323218 253.648997 
L 118.039942 253.648997 
L 118.039942 252.595625 
L 118.890808 252.595625 
L 118.890808 251.542253 
L 119.199476 251.542253 
L 119.199476 249.962195 
L 119.40226 249.962195 
L 119.40226 249.435508 
L 119.602714 249.435508 
L 119.602714 248.908822 
L 119.89914 248.908822 
L 119.89914 247.85545 
L 120.093994 247.85545 
L 120.093994 246.802078 
L 120.382253 246.802078 
L 120.382253 246.275392 
L 121.400219 246.275392 
L 121.400219 245.748706 
L 121.667835 245.748706 
L 121.667835 244.168648 
L 123.672636 244.168648 
L 123.672636 242.061903 
L 124.891598 242.061903 
L 124.891598 241.535217 
L 125.255688 241.535217 
L 125.255688 241.008531 
L 125.682793 241.008531 
L 125.682793 240.481845 
L 127.035353 240.481845 
L 127.035353 238.901787 
L 128.046609 238.901787 
L 128.046609 238.375101 
L 128.290519 238.375101 
L 128.350967 236.268356 
L 128.590686 236.268356 
L 128.590686 235.214984 
L 128.768338 235.214984 
L 128.768338 234.688298 
L 130.978796 234.688298 
L 130.978796 234.161612 
L 131.133813 234.161612 
L 131.133813 233.634926 
L 131.640805 233.634926 
L 131.640805 233.10824 
L 131.839545 233.10824 
L 131.938072 232.054868 
L 132.084827 232.054868 
L 132.084827 231.001496 
L 132.565279 231.001496 
L 132.565279 230.47481 
L 132.847322 230.47481 
L 132.847322 229.948123 
L 133.124876 229.948123 
L 133.170708 228.368065 
L 133.443203 228.368065 
L 133.443203 227.841379 
L 133.711505 227.841379 
L 133.711505 227.314693 
L 134.534878 227.314693 
L 134.534878 226.261321 
L 134.911732 226.261321 
L 134.911732 225.734635 
L 135.199312 225.734635 
L 135.199312 225.207949 
L 135.321124 225.207949 
L 135.321124 224.681263 
L 135.522271 224.681263 
L 135.522271 223.627891 
L 135.995765 223.627891 
L 135.995765 223.101204 
L 136.150782 223.101204 
L 136.189322 221.521146 
L 136.266147 221.521146 
L 136.304433 219.941088 
L 137.664982 219.941088 
L 137.664982 219.414402 
L 137.945701 219.414402 
L 137.945701 218.36103 
L 139.123342 218.36103 
L 139.123342 216.780971 
L 139.69937 216.780971 
L 139.69937 216.254285 
L 139.856059 216.254285 
L 139.856059 215.727599 
L 140.195896 215.727599 
L 140.195896 214.674227 
L 140.738093 214.674227 
L 140.738093 214.147541 
L 141.090414 214.147541 
L 141.090414 213.620855 
L 141.321401 213.620855 
L 141.321401 213.094169 
L 141.521035 213.094169 
L 141.521035 212.567483 
L 141.858037 212.567483 
L 141.941279 210.987425 
L 142.673105 210.987425 
L 142.673105 210.460738 
L 142.805321 210.460738 
L 142.884173 208.88068 
L 142.962669 208.88068 
L 142.962669 208.353994 
L 143.40093 208.353994 
L 143.40093 207.827308 
L 144.172816 207.827308 
L 144.172816 207.300622 
L 144.414696 207.300622 
L 144.510517 206.24725 
L 144.53439 206.24725 
L 144.629556 204.667192 
L 144.93531 204.667192 
L 144.93531 204.140506 
L 145.166911 204.140506 
L 145.235796 202.560447 
L 145.598655 202.560447 
L 145.598655 202.033761 
L 145.732804 202.033761 
L 145.799493 200.980389 
L 145.865929 200.980389 
L 145.865929 200.453703 
L 146.431341 200.453703 
L 146.538004 199.400331 
L 146.60169 199.400331 
L 146.60169 198.873645 
L 147.061745 198.873645 
L 147.061745 198.346959 
L 147.348313 198.346959 
L 147.348313 197.820273 
L 147.670154 197.820273 
L 147.670154 196.240214 
L 148.122637 196.240214 
L 148.122637 195.713528 
L 148.506778 195.713528 
L 148.525764 194.660156 
L 148.714503 194.660156 
L 148.714503 194.13347 
L 148.993835 194.13347 
L 148.993835 193.606784 
L 149.177602 193.606784 
L 149.268764 192.553412 
L 149.449671 192.553412 
L 149.449671 192.026726 
L 149.575199 192.026726 
L 149.575199 191.50004 
L 150.275665 191.50004 
L 150.327083 190.446667 
L 151.260066 190.446667 
L 151.276281 189.393295 
L 151.581536 189.393295 
L 151.660987 187.813237 
L 151.912822 187.813237 
L 151.912822 187.286551 
L 152.617226 187.286551 
L 152.617226 186.759865 
L 152.855715 186.759865 
L 152.855715 186.233179 
L 153.149313 186.233179 
L 153.149313 185.706493 
L 154.180855 185.706493 
L 154.180855 185.179807 
L 154.412564 185.179807 
L 154.412564 184.653121 
L 155.577798 184.653121 
L 155.577798 183.599748 
L 156.502685 183.599748 
L 156.502685 183.073062 
L 160.8961 183.073062 
L 160.8961 182.546376 
L 161.06334 182.546376 
L 161.06334 182.01969 
L 161.600536 182.01969 
L 161.600536 181.493004 
L 169.964373 181.493004 
L 170.014255 179.38626 
L 170.494616 179.38626 
L 170.494616 178.859574 
L 170.767069 178.859574 
L 170.867492 177.279515 
L 171.716099 177.279515 
L 171.811218 176.226143 
L 172.098413 176.226143 
L 172.098413 175.699457 
L 172.230511 175.699457 
L 172.230511 175.172771 
L 172.380955 175.172771 
L 172.48694 173.592713 
L 172.69225 173.592713 
L 172.69225 172.539341 
L 172.862299 172.539341 
L 172.899863 170.959282 
L 173.100398 170.959282 
L 173.100398 170.432596 
L 173.822502 170.432596 
L 173.822502 169.90591 
L 174.078642 169.90591 
L 174.15301 168.852538 
L 174.395768 168.852538 
L 174.395768 168.325852 
L 174.795808 168.325852 
L 174.795808 167.799166 
L 181.820486 167.799166 
L 181.840161 166.745794 
L 182.151983 166.745794 
L 182.151983 166.219108 
L 182.384967 166.219108 
L 182.384967 165.692422 
L 182.786012 165.692422 
L 182.825879 164.63905 
L 183.133755 164.63905 
L 183.188444 163.585677 
L 183.30506 163.585677 
L 183.30506 163.058991 
L 183.426033 163.058991 
L 183.426033 162.532305 
L 183.716016 162.532305 
L 183.766397 161.478933 
L 183.856717 161.478933 
L 183.936611 159.898875 
L 183.97145 159.898875 
L 184.028534 158.845503 
L 184.15199 158.845503 
L 184.15199 158.318817 
L 184.398736 158.318817 
L 184.46411 157.265444 
L 185.048722 157.265444 
L 185.116366 155.685386 
L 185.197657 155.685386 
L 185.197657 155.1587 
L 185.883777 155.1587 
L 185.883777 154.632014 
L 186.160053 154.632014 
L 186.160053 154.105328 
L 186.414741 154.105328 
L 186.414741 153.578642 
L 190.024744 153.578642 
L 190.101878 152.52527 
L 190.225629 152.52527 
L 190.225629 151.998584 
L 190.43281 151.998584 
L 190.46025 150.945211 
L 190.596801 150.945211 
L 190.596801 150.418525 
L 190.772735 150.418525 
L 190.772735 149.891839 
L 190.918559 149.891839 
L 190.918559 149.365153 
L 191.172087 149.365153 
L 191.172087 148.838467 
L 195.621419 148.838467 
L 195.621419 147.785095 
L 196.248587 147.785095 
L 196.346678 146.731723 
L 196.526705 146.731723 
L 196.564178 145.678351 
L 196.721653 145.678351 
L 196.721653 145.151665 
L 197.07584 145.151665 
L 197.07584 144.624978 
L 197.874586 144.624978 
L 197.886903 143.571606 
L 198.057326 143.571606 
L 198.057326 143.04492 
L 199.520528 143.04492 
L 199.571416 141.991548 
L 199.658598 141.991548 
L 199.714126 140.938176 
L 199.779522 140.938176 
L 199.875662 138.304745 
L 199.929508 138.304745 
L 200.027797 137.251373 
L 200.181561 137.251373 
L 200.181561 136.724687 
L 202.09955 136.724687 
L 202.180243 135.144629 
L 202.312749 135.144629 
L 202.369107 133.037885 
L 202.463208 133.037885 
L 202.573923 130.93114 
L 202.779744 130.93114 
L 202.799179 129.877768 
L 203.117194 129.877768 
L 203.117194 129.351082 
L 204.925806 129.351082 
L 204.925806 128.824396 
L 205.050952 128.824396 
L 205.124281 127.771024 
L 205.400734 127.771024 
L 205.400734 127.244338 
L 208.988227 127.244338 
L 209.069176 125.66428 
L 209.104511 125.66428 
L 209.104511 125.137593 
L 209.233461 125.137593 
L 209.322 123.557535 
L 210.593419 123.557535 
L 210.69199 122.504163 
L 210.755791 122.504163 
L 210.814026 121.450791 
L 210.882165 121.450791 
L 210.888009 119.344047 
L 211.073442 119.344047 
L 211.130104 118.290674 
L 213.354774 118.290674 
L 213.382876 116.710616 
L 214.636226 116.710616 
L 214.637083 115.657244 
L 215.662705 115.657244 
L 215.662705 115.130558 
L 216.867399 115.130558 
L 216.867399 114.603872 
L 217.183419 114.603872 
L 217.183419 114.077186 
L 218.612478 114.077186 
L 218.722632 111.443755 
L 218.748708 111.443755 
L 218.846906 108.810325 
L 218.890933 108.810325 
L 218.916089 106.703581 
L 223.964033 106.703581 
L 224.068359 102.490092 
L 225.18053 102.490092 
L 225.18053 101.963406 
L 228.030369 101.963406 
L 228.044077 100.383348 
L 228.600867 100.383348 
L 228.600867 99.856662 
L 229.352843 99.856662 
L 229.352843 99.329976 
L 229.851357 99.329976 
L 229.959695 92.483056 
L 230.777375 92.483056 
L 230.854116 87.216196 
L 233.975796 87.216196 
L 234.049554 82.476021 
L 234.520913 82.476021 
L 234.598408 78.789218 
L 235.597354 78.789218 
L 235.632989 77.735846 
L 239.379501 77.735846 
L 239.412127 76.682474 
L 240.233447 76.682474 
L 240.277321 75.102416 
L 240.403691 75.102416 
L 240.40809 74.049044 
L 241.524179 74.049044 
L 241.624094 66.675439 
L 242.014469 66.675439 
L 242.036827 64.568694 
L 244.264019 64.568694 
L 244.271148 63.515322 
L 245.065303 63.515322 
L 245.103125 57.721775 
L 249.553666 57.721775 
L 249.584068 55.088345 
L 250.573277 55.088345 
L 250.585222 54.034973 
L 252.292487 54.034973 
L 252.314573 51.928228 
L 253.295133 51.928228 
L 253.295133 51.401542 
L 253.473833 51.401542 
L 253.493781 49.294798 
L 256.161608 49.294798 
L 256.175464 47.188054 
L 257.406792 47.188054 
L 257.406792 46.661368 
L 257.777395 46.661368 
L 257.789772 45.081309 
L 258.636308 45.081309 
L 258.636308 44.554623 
L 259.096135 44.554623 
L 259.096135 44.027937 
L 260.101637 44.027937 
L 260.103753 42.447879 
L 260.647122 42.447879 
L 260.654623 41.394507 
L 261.490392 41.394507 
L 261.497538 40.341135 
L 262.224016 40.341135 
L 262.229666 39.287762 
L 262.349004 39.287762 
L 262.349004 38.761076 
L 264.009635 38.761076 
L 264.023064 36.654332 
L 265.056768 36.654332 
L 265.062094 35.074274 
L 266.618364 35.074274 
L 266.618364 34.547588 
L 267.002609 34.547588 
L 267.002609 34.020902 
L 267.693812 34.020902 
L 267.693812 33.494215 
L 268.104861 33.494215 
L 268.104861 32.967529 
L 268.983376 32.967529 
L 268.983376 32.440843 
L 269.393711 32.440843 
L 269.40804 30.860785 
L 272.494487 30.860785 
L 272.494487 30.334099 
L 338.688 30.334099 
L 338.688 30.334099 
" style="fill:none;stroke:#000080;stroke-linecap:square;stroke-width:1.5;"/>
   </g>
   <g id="line2d_36">
    <defs>
     <path d="M 0 6 
C 1.591219 6 3.117479 5.367802 4.242641 4.242641 
C 5.367802 3.117479 6 1.591219 6 0 
C 6 -1.591219 5.367802 -3.117479 4.242641 -4.242641 
C 3.117479 -5.367802 1.591219 -6 0 -6 
C -1.591219 -6 -3.117479 -5.367802 -4.242641 -4.242641 
C -5.367802 -3.117479 -6 -1.591219 -6 0 
C -6 1.591219 -5.367802 3.117479 -4.242641 4.242641 
C -3.117479 5.367802 -1.591219 6 0 6 
z
" id="m87f9e50096" style="stroke:#000080;stroke-width:1.5;"/>
    </defs>
    <g>
     <use style="fill-opacity:0;stroke:#000080;stroke-width:1.5;" x="137.664982" xlink:href="#m87f9e50096" y="219.941088"/>
     <use style="fill-opacity:0;stroke:#000080;stroke-width:1.5;" x="202.09955" xlink:href="#m87f9e50096" y="136.724687"/>
     <use style="fill-opacity:0;stroke:#000080;stroke-width:1.5;" x="252.30835" xlink:href="#m87f9e50096" y="52.9816"/>
     <use style="fill-opacity:0;stroke:#000080;stroke-width:1.5;" x="272.494487" xlink:href="#m87f9e50096" y="30.334099"/>
     <use style="fill-opacity:0;stroke:#000080;stroke-width:1.5;" x="272.494487" xlink:href="#m87f9e50096" y="30.334099"/>
     <use style="fill-opacity:0;stroke:#000080;stroke-width:1.5;" x="338.688" xlink:href="#m87f9e50096" y="30.334099"/>
    </g>
   </g>
   <g id="line2d_37">
    <path style="fill:none;stroke:#000080;stroke-linecap:square;stroke-width:1.5;"/>
    <g/>
   </g>
   <g id="line2d_38">
    <path clip-path="url(#p36889aaa20)" d="M 246.289573 57.721775 
" style="fill:none;stroke:#000080;stroke-linecap:square;stroke-width:1.5;"/>
    <defs>
     <path d="M -12 12 
L 12 -12 
M -12 -12 
L 12 12 
" id="mbbfd92b1d1" style="stroke:#000080;"/>
    </defs>
    <g clip-path="url(#p36889aaa20)">
     <use style="fill:#000080;stroke:#000080;" x="246.289573" xlink:href="#mbbfd92b1d1" y="57.721775"/>
    </g>
   </g>
   <g id="line2d_39">
    <defs>
     <path d="M 0 1.5 
C 0.397805 1.5 0.77937 1.341951 1.06066 1.06066 
C 1.341951 0.77937 1.5 0.397805 1.5 0 
C 1.5 -0.397805 1.341951 -0.77937 1.06066 -1.06066 
C 0.77937 -1.341951 0.397805 -1.5 0 -1.5 
C -0.397805 -1.5 -0.77937 -1.341951 -1.06066 -1.06066 
C -1.341951 -0.77937 -1.5 -0.397805 -1.5 0 
C -1.5 0.397805 -1.341951 0.77937 -1.06066 1.06066 
C -0.77937 1.341951 -0.397805 1.5 0 1.5 
z
" id="mdb582f9123" style="stroke:#ff00ff;"/>
    </defs>
    <g>
     <use style="fill:#ff00ff;stroke:#ff00ff;" x="296.750981" xlink:href="#mdb582f9123" y="93.536429"/>
     <use style="fill:#ff00ff;stroke:#ff00ff;" x="296.750981" xlink:href="#mdb582f9123" y="93.536429"/>
    </g>
   </g>
   <g id="line2d_40">
    <path d="M 29.53256 298.944 
L 29.53256 279.983301 
L 41.620548 279.983301 
L 41.620548 277.876557 
L 48.691568 277.876557 
L 48.691568 275.769812 
L 53.708537 275.769812 
L 53.708537 273.663068 
L 60.779557 273.663068 
L 60.779557 272.08301 
L 63.467834 272.08301 
L 63.467834 269.449579 
L 67.850577 269.449579 
L 67.850577 268.922893 
L 69.687988 268.922893 
L 69.687988 268.396207 
L 71.35013 268.396207 
L 71.35013 267.869521 
L 76.759008 267.869521 
L 76.759008 267.342835 
L 88.255778 267.342835 
L 88.255778 266.289463 
L 92.504372 266.289463 
L 92.504372 265.762777 
L 95.526106 265.762777 
L 95.526106 265.236091 
L 97.403108 265.236091 
L 97.403108 264.182719 
L 98.43941 264.182719 
L 98.43941 263.656033 
L 100.641881 263.656033 
L 100.641881 263.129347 
L 103.870632 263.129347 
L 103.870632 262.60266 
L 106.168594 262.60266 
L 106.168594 262.075974 
L 110.016944 262.075974 
L 110.016944 261.549288 
L 110.188761 261.549288 
L 110.188761 261.022602 
L 111.346294 261.022602 
L 111.346294 260.495916 
L 112.58145 260.495916 
L 112.58145 259.96923 
L 116.914437 259.96923 
L 116.914437 258.915858 
L 117.373392 258.915858 
L 117.373392 258.389172 
L 118.681952 258.389172 
L 118.681952 257.862486 
L 118.994305 257.862486 
L 118.994305 257.3358 
L 120.190611 257.3358 
L 120.286695 256.282427 
L 122.104932 256.282427 
L 122.104932 255.755741 
L 123.192626 255.755741 
L 123.192626 255.229055 
L 124.965026 255.229055 
L 124.965026 254.702369 
L 125.822869 254.702369 
L 125.822869 254.175683 
L 128.107907 254.175683 
L 128.107907 253.648997 
L 129.233413 253.648997 
L 129.233413 253.122311 
L 129.404667 253.122311 
L 129.404667 252.595625 
L 130.127931 252.595625 
L 130.236587 249.962195 
L 131.185181 249.962195 
L 131.236397 248.382136 
L 131.839545 248.382136 
L 131.839545 247.328764 
L 133.800029 247.328764 
L 133.800029 246.802078 
L 134.236034 246.802078 
L 134.236034 245.748706 
L 134.534878 245.748706 
L 134.534878 245.22202 
L 134.870259 245.22202 
L 134.870259 244.695334 
L 136.266147 244.695334 
L 136.266147 244.168648 
L 136.607732 244.168648 
L 136.607732 243.641962 
L 136.86886 243.641962 
L 136.86886 243.115275 
L 138.01518 243.115275 
L 138.01518 242.588589 
L 141.061324 242.588589 
L 141.061324 242.061903 
L 142.188649 242.061903 
L 142.188649 241.535217 
L 143.678752 241.535217 
L 143.75376 240.481845 
L 146.452726 240.481845 
L 146.452726 239.955159 
L 146.854132 239.955159 
L 146.854132 239.428473 
L 147.041095 239.428473 
L 147.041095 238.901787 
L 147.246507 238.901787 
L 147.246507 238.375101 
L 147.4697 238.375101 
L 147.4697 237.848415 
L 147.670154 237.848415 
L 147.729844 236.795043 
L 150.716332 236.795043 
L 150.716332 236.268356 
L 150.866312 236.268356 
L 150.866312 235.74167 
L 151.276281 235.74167 
L 151.276281 235.214984 
L 154.084543 235.214984 
L 154.084543 234.688298 
L 154.985269 234.688298 
L 155.050658 233.634926 
L 155.641006 233.634926 
L 155.641006 233.10824 
L 156.199806 233.10824 
L 156.260804 232.054868 
L 156.622378 232.054868 
L 156.622378 231.528182 
L 158.064083 231.528182 
L 158.129851 230.47481 
L 158.238915 230.47481 
L 158.238915 229.421437 
L 158.625992 229.421437 
L 158.647247 228.368065 
L 159.466728 228.368065 
L 159.466728 227.314693 
L 161.247301 227.314693 
L 161.247301 226.788007 
L 161.374928 226.788007 
L 161.374928 226.261321 
L 162.542958 226.261321 
L 162.636148 225.207949 
L 163.637643 225.207949 
L 163.637643 224.681263 
L 164.171861 224.681263 
L 164.171861 224.154577 
L 165.215452 224.154577 
L 165.215452 223.627891 
L 166.020101 223.627891 
L 166.047915 222.574518 
L 167.532297 222.574518 
L 167.532297 222.047832 
L 167.954668 222.047832 
L 168.01684 220.99446 
L 168.620674 220.99446 
L 168.620674 220.467774 
L 169.314106 220.467774 
L 169.377364 218.887716 
L 169.463258 218.887716 
L 169.463258 218.36103 
L 169.763406 218.36103 
L 169.763406 217.307658 
L 169.914348 217.307658 
L 169.914348 216.780971 
L 170.063995 216.780971 
L 170.069512 215.727599 
L 171.113451 215.727599 
L 171.113451 215.200913 
L 171.35599 215.200913 
L 171.35599 214.674227 
L 171.49381 214.674227 
L 171.49381 214.147541 
L 171.605309 214.147541 
L 171.605309 213.620855 
L 172.004852 213.620855 
L 172.004852 213.094169 
L 172.371288 213.094169 
L 172.371288 212.567483 
L 172.734918 212.567483 
L 172.734918 212.040797 
L 172.866999 212.040797 
L 172.866999 211.514111 
L 173.358148 211.514111 
L 173.358148 210.987425 
L 174.003955 210.987425 
L 174.003955 210.460738 
L 174.532984 210.460738 
L 174.532984 209.934052 
L 175.256675 209.934052 
L 175.256675 209.407366 
L 175.589481 209.407366 
L 175.653684 207.827308 
L 175.781387 207.827308 
L 175.781387 207.300622 
L 175.939711 207.300622 
L 175.939711 206.773936 
L 176.337049 206.773936 
L 176.429239 205.720564 
L 176.853131 205.720564 
L 176.935199 204.667192 
L 177.448587 204.667192 
L 177.448587 204.140506 
L 177.806255 204.140506 
L 177.901581 203.087133 
L 178.111569 203.087133 
L 178.111569 202.560447 
L 178.236359 202.560447 
L 178.236359 202.033761 
L 178.790465 202.033761 
L 178.790465 201.507075 
L 179.125177 201.507075 
L 179.125177 200.980389 
L 179.308028 200.980389 
L 179.308028 200.453703 
L 179.575561 200.453703 
L 179.610712 199.400331 
L 179.983387 199.400331 
L 179.983387 198.873645 
L 180.663642 198.873645 
L 180.663642 198.346959 
L 181.044129 198.346959 
L 181.044129 197.820273 
L 181.193446 197.820273 
L 181.193446 197.293586 
L 182.770039 197.293586 
L 182.770039 196.7669 
L 183.02386 196.7669 
L 183.02386 196.240214 
L 183.348913 196.240214 
L 183.426033 195.186842 
L 183.889218 195.186842 
L 183.889218 194.660156 
L 184.286789 194.660156 
L 184.286789 194.13347 
L 184.403587 194.13347 
L 184.473775 193.080098 
L 184.620496 193.080098 
L 184.620496 192.553412 
L 184.966732 192.553412 
L 184.966732 192.026726 
L 185.414125 192.026726 
L 185.414125 191.50004 
L 185.62794 191.50004 
L 185.62794 190.973354 
L 185.801153 190.973354 
L 185.897139 189.919981 
L 186.475144 189.919981 
L 186.475144 189.393295 
L 187.078347 189.393295 
L 187.078347 188.866609 
L 187.262519 188.866609 
L 187.262519 188.339923 
L 187.701573 188.339923 
L 187.701573 187.813237 
L 187.903139 187.813237 
L 187.92297 186.759865 
L 188.250856 186.759865 
L 188.340099 185.179807 
L 188.595589 185.179807 
L 188.595589 184.126434 
L 188.954202 184.126434 
L 189.054792 182.546376 
L 189.32023 182.546376 
L 189.32023 182.01969 
L 190.230839 182.01969 
L 190.230839 181.493004 
L 190.943578 181.493004 
L 190.963568 180.439632 
L 191.549625 180.439632 
L 191.549625 179.912946 
L 191.949082 179.912946 
L 191.949082 179.38626 
L 192.090114 179.38626 
L 192.185058 178.332888 
L 192.401027 178.332888 
L 192.401027 177.806202 
L 192.584038 177.806202 
L 192.664261 176.752829 
L 192.70348 176.752829 
L 192.70348 176.226143 
L 193.209863 176.226143 
L 193.209863 175.699457 
L 193.613511 175.699457 
L 193.613511 174.646085 
L 193.76587 174.646085 
L 193.76587 174.119399 
L 194.042947 174.119399 
L 194.042947 173.592713 
L 194.456611 173.592713 
L 194.456611 172.539341 
L 194.962912 172.539341 
L 194.962912 172.012655 
L 195.660888 172.012655 
L 195.740823 170.959282 
L 196.151178 170.959282 
L 196.151178 170.432596 
L 196.546056 170.432596 
L 196.546056 169.90591 
L 197.225294 169.90591 
L 197.279852 168.325852 
L 197.556955 168.325852 
L 197.556955 167.799166 
L 197.879066 167.799166 
L 197.879066 167.27248 
L 198.717502 167.27248 
L 198.717502 166.745794 
L 199.278312 166.745794 
L 199.308258 165.692422 
L 199.862674 165.692422 
L 199.862674 164.63905 
L 200.602343 164.63905 
L 200.602343 164.112363 
L 201.122337 164.112363 
L 201.129774 163.058991 
L 201.818616 163.058991 
L 201.818616 162.532305 
L 202.298848 162.532305 
L 202.298848 162.005619 
L 233.040132 162.005619 
L 233.040132 161.478933 
L 233.357826 161.478933 
L 233.357826 160.952247 
L 237.325411 160.952247 
L 237.325411 160.425561 
L 238.31168 160.425561 
L 238.31168 159.898875 
L 238.446724 159.898875 
L 238.446724 159.372189 
L 239.501716 159.372189 
L 239.501716 158.845503 
L 243.34999 158.845503 
L 243.34999 158.318817 
L 246.500833 158.318817 
L 246.611504 155.1587 
L 246.61301 155.1587 
L 246.70071 153.051956 
L 246.746569 153.051956 
L 246.845091 148.838467 
L 246.884911 148.838467 
L 246.945882 145.678351 
L 247.045693 145.678351 
L 247.139887 143.04492 
L 247.159806 143.04492 
L 247.224586 140.938176 
L 247.306902 140.938176 
L 247.393284 139.358118 
L 247.465747 139.358118 
L 247.551283 134.617943 
L 247.600269 134.617943 
L 247.635497 133.564571 
L 247.830132 133.564571 
L 247.830132 133.037885 
L 252.981687 133.037885 
L 252.981687 131.984513 
L 253.222396 131.984513 
L 253.222396 131.457826 
L 254.464958 131.457826 
L 254.464958 130.93114 
L 255.311572 130.93114 
L 255.311572 130.404454 
L 256.829439 130.404454 
L 256.829439 129.877768 
L 256.969407 129.877768 
L 256.969407 129.351082 
L 258.496368 129.351082 
L 258.60735 126.190966 
L 258.634281 126.190966 
L 258.738311 120.924105 
L 258.787847 120.924105 
L 258.894219 118.817361 
L 258.902377 118.817361 
L 258.97536 116.710616 
L 259.019354 116.710616 
L 259.019354 116.18393 
L 265.614574 116.18393 
L 265.714635 114.077186 
L 265.73187 114.077186 
L 265.794578 112.497128 
L 265.849246 112.497128 
L 265.87892 111.443755 
L 268.99962 111.443755 
L 268.99962 110.917069 
L 270.538501 110.917069 
L 270.538501 110.390383 
L 270.653035 110.390383 
L 270.725586 108.283639 
L 270.789193 108.283639 
L 270.829374 107.230267 
L 274.459836 107.230267 
L 274.565268 102.490092 
L 277.660791 102.490092 
L 277.703081 100.383348 
L 277.779823 100.383348 
L 277.779823 99.856662 
L 279.796063 99.856662 
L 279.796063 99.329976 
L 280.376116 99.329976 
L 280.423245 98.276603 
L 281.74517 98.276603 
L 281.74517 97.749917 
L 282.211695 97.749917 
L 282.211695 97.223231 
L 282.673904 97.223231 
L 282.673904 96.696545 
L 288.217028 96.696545 
L 288.225313 95.643173 
L 289.712785 95.643173 
L 289.712785 95.116487 
L 292.386997 95.116487 
L 292.388426 94.063115 
L 296.750981 94.063115 
L 296.750981 93.536429 
L 338.688 93.536429 
L 338.688 93.536429 
" style="fill:none;stroke:#ff00ff;stroke-linecap:square;stroke-width:1.5;"/>
   </g>
   <g id="line2d_41">
    <defs>
     <path d="M -0 8.485281 
L 5.091169 0 
L 0 -8.485281 
L -5.091169 -0 
z
" id="m02f1188ebd" style="stroke:#ff00ff;stroke-linejoin:miter;stroke-width:1.5;"/>
    </defs>
    <g>
     <use style="fill-opacity:0;stroke:#ff00ff;stroke-linejoin:miter;stroke-width:1.5;" x="71.35013" xlink:href="#m02f1188ebd" y="267.869521"/>
     <use style="fill-opacity:0;stroke:#ff00ff;stroke-linejoin:miter;stroke-width:1.5;" x="154.084543" xlink:href="#m02f1188ebd" y="234.688298"/>
     <use style="fill-opacity:0;stroke:#ff00ff;stroke-linejoin:miter;stroke-width:1.5;" x="233.357826" xlink:href="#m02f1188ebd" y="161.478933"/>
     <use style="fill-opacity:0;stroke:#ff00ff;stroke-linejoin:miter;stroke-width:1.5;" x="282.673904" xlink:href="#m02f1188ebd" y="96.696545"/>
     <use style="fill-opacity:0;stroke:#ff00ff;stroke-linejoin:miter;stroke-width:1.5;" x="296.750981" xlink:href="#m02f1188ebd" y="93.536429"/>
     <use style="fill-opacity:0;stroke:#ff00ff;stroke-linejoin:miter;stroke-width:1.5;" x="338.688" xlink:href="#m02f1188ebd" y="93.536429"/>
    </g>
   </g>
   <g id="line2d_42">
    <path style="fill:none;stroke:#ff00ff;stroke-linecap:square;stroke-width:1.5;"/>
    <g/>
   </g>
   <g id="line2d_43">
    <path clip-path="url(#p36889aaa20)" d="M 246.289154 158.318817 
" style="fill:none;stroke:#ff00ff;stroke-linecap:square;stroke-width:1.5;"/>
    <defs>
     <path d="M -12 12 
L 12 -12 
M -12 -12 
L 12 12 
" id="ma735806f0b" style="stroke:#ff00ff;"/>
    </defs>
    <g clip-path="url(#p36889aaa20)">
     <use style="fill:#ff00ff;stroke:#ff00ff;" x="246.289154" xlink:href="#ma735806f0b" y="158.318817"/>
    </g>
   </g>
   <g id="line2d_44">
    <path d="M 338.688 93.536429 
L 369.60768 293.571802 
" style="fill:none;stroke:#ff00ff;stroke-linecap:square;stroke-width:1.5;"/>
    <g>
     <use style="fill-opacity:0;stroke:#ff00ff;stroke-linejoin:miter;stroke-width:1.5;" x="338.688" xlink:href="#m02f1188ebd" y="93.536429"/>
     <use style="fill-opacity:0;stroke:#ff00ff;stroke-linejoin:miter;stroke-width:1.5;" x="369.60768" xlink:href="#m02f1188ebd" y="293.571802"/>
    </g>
   </g>
   <g id="line2d_45">
    <path d="M 338.688 30.334099 
L 369.60768 164.63905 
" style="fill:none;stroke:#000080;stroke-linecap:square;stroke-width:1.5;"/>
    <g>
     <use style="fill-opacity:0;stroke:#000080;stroke-width:1.5;" x="338.688" xlink:href="#m87f9e50096" y="30.334099"/>
     <use style="fill-opacity:0;stroke:#000080;stroke-width:1.5;" x="369.60768" xlink:href="#m87f9e50096" y="164.63905"/>
    </g>
   </g>
   <g id="line2d_46">
    <path d="M 338.688 298.944 
L 338.688 30.334099 
" style="fill:none;stroke:#000000;stroke-linecap:square;stroke-width:1.5;"/>
   </g>
   <g id="patch_3">
    <path d="M 57.6 298.944 
L 57.6 27.648 
" style="fill:none;stroke:#000000;stroke-linecap:square;stroke-linejoin:miter;stroke-width:0.8;"/>
   </g>
   <g id="patch_4">
    <path d="M 338.688 298.944 
L 338.688 27.648 
" style="fill:none;stroke:#000000;stroke-linecap:square;stroke-linejoin:miter;stroke-width:0.8;"/>
   </g>
   <g id="patch_5">
    <path d="M 57.6 298.944 
L 338.688 298.944 
" style="fill:none;stroke:#000000;stroke-linecap:square;stroke-linejoin:miter;stroke-width:0.8;"/>
   </g>
   <g id="patch_6">
    <path d="M 57.6 27.648 
L 338.688 27.648 
" style="fill:none;stroke:#000000;stroke-linecap:square;stroke-linejoin:miter;stroke-width:0.8;"/>
   </g>
   <g id="text_13">
    <!-- PSO -->
    <g transform="translate(375.22944 298.262739)scale(0.17 -0.17)">
     <defs>
      <path d="M 19.671875 64.796875 
L 19.671875 37.40625 
L 32.078125 37.40625 
Q 38.96875 37.40625 42.71875 40.96875 
Q 46.484375 44.53125 46.484375 51.125 
Q 46.484375 57.671875 42.71875 61.234375 
Q 38.96875 64.796875 32.078125 64.796875 
z
M 9.8125 72.90625 
L 32.078125 72.90625 
Q 44.34375 72.90625 50.609375 67.359375 
Q 56.890625 61.8125 56.890625 51.125 
Q 56.890625 40.328125 50.609375 34.8125 
Q 44.34375 29.296875 32.078125 29.296875 
L 19.671875 29.296875 
L 19.671875 0 
L 9.8125 0 
z
" id="DejaVuSans-80"/>
      <path d="M 53.515625 70.515625 
L 53.515625 60.890625 
Q 47.90625 63.578125 42.921875 64.890625 
Q 37.9375 66.21875 33.296875 66.21875 
Q 25.25 66.21875 20.875 63.09375 
Q 16.5 59.96875 16.5 54.203125 
Q 16.5 49.359375 19.40625 46.890625 
Q 22.3125 44.4375 30.421875 42.921875 
L 36.375 41.703125 
Q 47.40625 39.59375 52.65625 34.296875 
Q 57.90625 29 57.90625 20.125 
Q 57.90625 9.515625 50.796875 4.046875 
Q 43.703125 -1.421875 29.984375 -1.421875 
Q 24.8125 -1.421875 18.96875 -0.25 
Q 13.140625 0.921875 6.890625 3.21875 
L 6.890625 13.375 
Q 12.890625 10.015625 18.65625 8.296875 
Q 24.421875 6.59375 29.984375 6.59375 
Q 38.421875 6.59375 43.015625 9.90625 
Q 47.609375 13.234375 47.609375 19.390625 
Q 47.609375 24.75 44.3125 27.78125 
Q 41.015625 30.8125 33.5 32.328125 
L 27.484375 33.5 
Q 16.453125 35.6875 11.515625 40.375 
Q 6.59375 45.0625 6.59375 53.421875 
Q 6.59375 63.09375 13.40625 68.65625 
Q 20.21875 74.21875 32.171875 74.21875 
Q 37.3125 74.21875 42.625 73.28125 
Q 47.953125 72.359375 53.515625 70.515625 
z
" id="DejaVuSans-83"/>
      <path d="M 39.40625 66.21875 
Q 28.65625 66.21875 22.328125 58.203125 
Q 16.015625 50.203125 16.015625 36.375 
Q 16.015625 22.609375 22.328125 14.59375 
Q 28.65625 6.59375 39.40625 6.59375 
Q 50.140625 6.59375 56.421875 14.59375 
Q 62.703125 22.609375 62.703125 36.375 
Q 62.703125 50.203125 56.421875 58.203125 
Q 50.140625 66.21875 39.40625 66.21875 
z
M 39.40625 74.21875 
Q 54.734375 74.21875 63.90625 63.9375 
Q 73.09375 53.65625 73.09375 36.375 
Q 73.09375 19.140625 63.90625 8.859375 
Q 54.734375 -1.421875 39.40625 -1.421875 
Q 24.03125 -1.421875 14.8125 8.828125 
Q 5.609375 19.09375 5.609375 36.375 
Q 5.609375 53.65625 14.8125 63.9375 
Q 24.03125 74.21875 39.40625 74.21875 
z
" id="DejaVuSans-79"/>
     </defs>
     <use xlink:href="#DejaVuSans-80"/>
     <use x="60.302734" xlink:href="#DejaVuSans-83"/>
     <use x="123.779297" xlink:href="#DejaVuSans-79"/>
    </g>
   </g>
   <g id="text_14">
    <!-- BIPOP-CMA -->
    <g transform="translate(375.22944 169.329987)scale(0.17 -0.17)">
     <defs>
      <path d="M 19.671875 34.8125 
L 19.671875 8.109375 
L 35.5 8.109375 
Q 43.453125 8.109375 47.28125 11.40625 
Q 51.125 14.703125 51.125 21.484375 
Q 51.125 28.328125 47.28125 31.5625 
Q 43.453125 34.8125 35.5 34.8125 
z
M 19.671875 64.796875 
L 19.671875 42.828125 
L 34.28125 42.828125 
Q 41.5 42.828125 45.03125 45.53125 
Q 48.578125 48.25 48.578125 53.8125 
Q 48.578125 59.328125 45.03125 62.0625 
Q 41.5 64.796875 34.28125 64.796875 
z
M 9.8125 72.90625 
L 35.015625 72.90625 
Q 46.296875 72.90625 52.390625 68.21875 
Q 58.5 63.53125 58.5 54.890625 
Q 58.5 48.1875 55.375 44.234375 
Q 52.25 40.28125 46.1875 39.3125 
Q 53.46875 37.75 57.5 32.78125 
Q 61.53125 27.828125 61.53125 20.40625 
Q 61.53125 10.640625 54.890625 5.3125 
Q 48.25 0 35.984375 0 
L 9.8125 0 
z
" id="DejaVuSans-66"/>
      <path d="M 9.8125 72.90625 
L 19.671875 72.90625 
L 19.671875 0 
L 9.8125 0 
z
" id="DejaVuSans-73"/>
      <path d="M 64.40625 67.28125 
L 64.40625 56.890625 
Q 59.421875 61.53125 53.78125 63.8125 
Q 48.140625 66.109375 41.796875 66.109375 
Q 29.296875 66.109375 22.65625 58.46875 
Q 16.015625 50.828125 16.015625 36.375 
Q 16.015625 21.96875 22.65625 14.328125 
Q 29.296875 6.6875 41.796875 6.6875 
Q 48.140625 6.6875 53.78125 8.984375 
Q 59.421875 11.28125 64.40625 15.921875 
L 64.40625 5.609375 
Q 59.234375 2.09375 53.4375 0.328125 
Q 47.65625 -1.421875 41.21875 -1.421875 
Q 24.65625 -1.421875 15.125 8.703125 
Q 5.609375 18.84375 5.609375 36.375 
Q 5.609375 53.953125 15.125 64.078125 
Q 24.65625 74.21875 41.21875 74.21875 
Q 47.75 74.21875 53.53125 72.484375 
Q 59.328125 70.75 64.40625 67.28125 
z
" id="DejaVuSans-67"/>
      <path d="M 9.8125 72.90625 
L 24.515625 72.90625 
L 43.109375 23.296875 
L 61.8125 72.90625 
L 76.515625 72.90625 
L 76.515625 0 
L 66.890625 0 
L 66.890625 64.015625 
L 48.09375 14.015625 
L 38.1875 14.015625 
L 19.390625 64.015625 
L 19.390625 0 
L 9.8125 0 
z
" id="DejaVuSans-77"/>
      <path d="M 34.1875 63.1875 
L 20.796875 26.90625 
L 47.609375 26.90625 
z
M 28.609375 72.90625 
L 39.796875 72.90625 
L 67.578125 0 
L 57.328125 0 
L 50.6875 18.703125 
L 17.828125 18.703125 
L 11.1875 0 
L 0.78125 0 
z
" id="DejaVuSans-65"/>
     </defs>
     <use xlink:href="#DejaVuSans-66"/>
     <use x="68.603516" xlink:href="#DejaVuSans-73"/>
     <use x="98.095703" xlink:href="#DejaVuSans-80"/>
     <use x="158.398438" xlink:href="#DejaVuSans-79"/>
     <use x="237.109375" xlink:href="#DejaVuSans-80"/>
     <use x="295.162109" xlink:href="#DejaVuSans-45"/>
     <use x="331.246094" xlink:href="#DejaVuSans-67"/>
     <use x="401.070312" xlink:href="#DejaVuSans-77"/>
     <use x="487.349609" xlink:href="#DejaVuSans-65"/>
    </g>
   </g>
   <g id="text_15">
    <!-- best 2009 -->
    <g transform="translate(375.22944 40.397235)scale(0.17 -0.17)">
     <defs>
      <path d="M 48.6875 27.296875 
Q 48.6875 37.203125 44.609375 42.84375 
Q 40.53125 48.484375 33.40625 48.484375 
Q 26.265625 48.484375 22.1875 42.84375 
Q 18.109375 37.203125 18.109375 27.296875 
Q 18.109375 17.390625 22.1875 11.75 
Q 26.265625 6.109375 33.40625 6.109375 
Q 40.53125 6.109375 44.609375 11.75 
Q 48.6875 17.390625 48.6875 27.296875 
z
M 18.109375 46.390625 
Q 20.953125 51.265625 25.265625 53.625 
Q 29.59375 56 35.59375 56 
Q 45.5625 56 51.78125 48.09375 
Q 58.015625 40.1875 58.015625 27.296875 
Q 58.015625 14.40625 51.78125 6.484375 
Q 45.5625 -1.421875 35.59375 -1.421875 
Q 29.59375 -1.421875 25.265625 0.953125 
Q 20.953125 3.328125 18.109375 8.203125 
L 18.109375 0 
L 9.078125 0 
L 9.078125 75.984375 
L 18.109375 75.984375 
z
" id="DejaVuSans-98"/>
      <path d="M 10.984375 1.515625 
L 10.984375 10.5 
Q 14.703125 8.734375 18.5 7.8125 
Q 22.3125 6.890625 25.984375 6.890625 
Q 35.75 6.890625 40.890625 13.453125 
Q 46.046875 20.015625 46.78125 33.40625 
Q 43.953125 29.203125 39.59375 26.953125 
Q 35.25 24.703125 29.984375 24.703125 
Q 19.046875 24.703125 12.671875 31.3125 
Q 6.296875 37.9375 6.296875 49.421875 
Q 6.296875 60.640625 12.9375 67.421875 
Q 19.578125 74.21875 30.609375 74.21875 
Q 43.265625 74.21875 49.921875 64.515625 
Q 56.59375 54.828125 56.59375 36.375 
Q 56.59375 19.140625 48.40625 8.859375 
Q 40.234375 -1.421875 26.421875 -1.421875 
Q 22.703125 -1.421875 18.890625 -0.6875 
Q 15.09375 0.046875 10.984375 1.515625 
z
M 30.609375 32.421875 
Q 37.25 32.421875 41.125 36.953125 
Q 45.015625 41.5 45.015625 49.421875 
Q 45.015625 57.28125 41.125 61.84375 
Q 37.25 66.40625 30.609375 66.40625 
Q 23.96875 66.40625 20.09375 61.84375 
Q 16.21875 57.28125 16.21875 49.421875 
Q 16.21875 41.5 20.09375 36.953125 
Q 23.96875 32.421875 30.609375 32.421875 
z
" id="DejaVuSans-57"/>
     </defs>
     <use xlink:href="#DejaVuSans-98"/>
     <use x="63.476562" xlink:href="#DejaVuSans-101"/>
     <use x="125" xlink:href="#DejaVuSans-115"/>
     <use x="177.099609" xlink:href="#DejaVuSans-116"/>
     <use x="216.308594" xlink:href="#DejaVuSans-32"/>
     <use x="248.095703" xlink:href="#DejaVuSans-50"/>
     <use x="311.71875" xlink:href="#DejaVuSans-48"/>
     <use x="375.341797" xlink:href="#DejaVuSans-48"/>
     <use x="438.964844" xlink:href="#DejaVuSans-57"/>
    </g>
   </g>
   <g id="text_16">
    <!-- bbob f17, 5-D -->
    <g transform="translate(60.41088 38.111366)scale(0.102 -0.102)">
     <defs>
      <path d="M 8.203125 72.90625 
L 55.078125 72.90625 
L 55.078125 68.703125 
L 28.609375 0 
L 18.3125 0 
L 43.21875 64.59375 
L 8.203125 64.59375 
z
" id="DejaVuSans-55"/>
      <path d="M 10.796875 72.90625 
L 49.515625 72.90625 
L 49.515625 64.59375 
L 19.828125 64.59375 
L 19.828125 46.734375 
Q 21.96875 47.46875 24.109375 47.828125 
Q 26.265625 48.1875 28.421875 48.1875 
Q 40.625 48.1875 47.75 41.5 
Q 54.890625 34.8125 54.890625 23.390625 
Q 54.890625 11.625 47.5625 5.09375 
Q 40.234375 -1.421875 26.90625 -1.421875 
Q 22.3125 -1.421875 17.546875 -0.640625 
Q 12.796875 0.140625 7.71875 1.703125 
L 7.71875 11.625 
Q 12.109375 9.234375 16.796875 8.0625 
Q 21.484375 6.890625 26.703125 6.890625 
Q 35.15625 6.890625 40.078125 11.328125 
Q 45.015625 15.765625 45.015625 23.390625 
Q 45.015625 31 40.078125 35.4375 
Q 35.15625 39.890625 26.703125 39.890625 
Q 22.75 39.890625 18.8125 39.015625 
Q 14.890625 38.140625 10.796875 36.28125 
z
" id="DejaVuSans-53"/>
      <path d="M 19.671875 64.796875 
L 19.671875 8.109375 
L 31.59375 8.109375 
Q 46.6875 8.109375 53.6875 14.9375 
Q 60.6875 21.78125 60.6875 36.53125 
Q 60.6875 51.171875 53.6875 57.984375 
Q 46.6875 64.796875 31.59375 64.796875 
z
M 9.8125 72.90625 
L 30.078125 72.90625 
Q 51.265625 72.90625 61.171875 64.09375 
Q 71.09375 55.28125 71.09375 36.53125 
Q 71.09375 17.671875 61.125 8.828125 
Q 51.171875 0 30.078125 0 
L 9.8125 0 
z
" id="DejaVuSans-68"/>
     </defs>
     <use xlink:href="#DejaVuSans-98"/>
     <use x="63.476562" xlink:href="#DejaVuSans-98"/>
     <use x="126.953125" xlink:href="#DejaVuSans-111"/>
     <use x="188.134766" xlink:href="#DejaVuSans-98"/>
     <use x="251.611328" xlink:href="#DejaVuSans-32"/>
     <use x="283.398438" xlink:href="#DejaVuSans-102"/>
     <use x="318.603516" xlink:href="#DejaVuSans-49"/>
     <use x="382.226562" xlink:href="#DejaVuSans-55"/>
     <use x="445.849609" xlink:href="#DejaVuSans-44"/>
     <use x="477.636719" xlink:href="#DejaVuSans-32"/>
     <use x="509.423828" xlink:href="#DejaVuSans-53"/>
     <use x="573.046875" xlink:href="#DejaVuSans-45"/>
     <use x="609.130859" xlink:href="#DejaVuSans-68"/>
    </g>
    <!-- 51 targets: 100..1e-08 -->
    <g transform="translate(60.41088 49.533135)scale(0.102 -0.102)">
     <defs>
      <path d="M 11.71875 12.40625 
L 22.015625 12.40625 
L 22.015625 0 
L 11.71875 0 
z
M 11.71875 51.703125 
L 22.015625 51.703125 
L 22.015625 39.3125 
L 11.71875 39.3125 
z
" id="DejaVuSans-58"/>
     </defs>
     <use xlink:href="#DejaVuSans-53"/>
     <use x="63.623047" xlink:href="#DejaVuSans-49"/>
     <use x="127.246094" xlink:href="#DejaVuSans-32"/>
     <use x="159.033203" xlink:href="#DejaVuSans-116"/>
     <use x="198.242188" xlink:href="#DejaVuSans-97"/>
     <use x="259.521484" xlink:href="#DejaVuSans-114"/>
     <use x="298.884766" xlink:href="#DejaVuSans-103"/>
     <use x="362.361328" xlink:href="#DejaVuSans-101"/>
     <use x="423.884766" xlink:href="#DejaVuSans-116"/>
     <use x="463.09375" xlink:href="#DejaVuSans-115"/>
     <use x="515.193359" xlink:href="#DejaVuSans-58"/>
     <use x="548.884766" xlink:href="#DejaVuSans-32"/>
     <use x="580.671875" xlink:href="#DejaVuSans-49"/>
     <use x="644.294922" xlink:href="#DejaVuSans-48"/>
     <use x="707.917969" xlink:href="#DejaVuSans-48"/>
     <use x="771.541016" xlink:href="#DejaVuSans-46"/>
     <use x="803.328125" xlink:href="#DejaVuSans-46"/>
     <use x="835.115234" xlink:href="#DejaVuSans-49"/>
     <use x="898.738281" xlink:href="#DejaVuSans-101"/>
     <use x="960.261719" xlink:href="#DejaVuSans-45"/>
     <use x="996.345703" xlink:href="#DejaVuSans-48"/>
     <use x="1059.96875" xlink:href="#DejaVuSans-56"/>
    </g>
    <!-- 15 instances -->
    <g transform="translate(60.41088 60.954904)scale(0.102 -0.102)">
     <use xlink:href="#DejaVuSans-49"/>
     <use x="63.623047" xlink:href="#DejaVuSans-53"/>
     <use x="127.246094" xlink:href="#DejaVuSans-32"/>
     <use x="159.033203" xlink:href="#DejaVuSans-105"/>
     <use x="186.816406" xlink:href="#DejaVuSans-110"/>
     <use x="250.195312" xlink:href="#DejaVuSans-115"/>
     <use x="302.294922" xlink:href="#DejaVuSans-116"/>
     <use x="341.503906" xlink:href="#DejaVuSans-97"/>
     <use x="402.783203" xlink:href="#DejaVuSans-110"/>
     <use x="466.162109" xlink:href="#DejaVuSans-99"/>
     <use x="521.142578" xlink:href="#DejaVuSans-101"/>
     <use x="582.666016" xlink:href="#DejaVuSans-115"/>
    </g>
   </g>
   <g id="text_17">
    <!-- v2.4 -->
    <g style="fill:#808080;" transform="translate(187.233062 294.151352)scale(0.1 -0.1)">
     <use xlink:href="#DejaVuSans-118"/>
     <use x="59.179688" xlink:href="#DejaVuSans-50"/>
     <use x="122.802734" xlink:href="#DejaVuSans-46"/>
     <use x="154.589844" xlink:href="#DejaVuSans-52"/>
    </g>
   </g>
   <g id="text_18">
    <!-- 17 Schaffer F7, condition 10 -->
    <g transform="translate(56.836187 21.648)scale(0.2 -0.2)">
     <defs>
      <path d="M 54.890625 33.015625 
L 54.890625 0 
L 45.90625 0 
L 45.90625 32.71875 
Q 45.90625 40.484375 42.875 44.328125 
Q 39.84375 48.1875 33.796875 48.1875 
Q 26.515625 48.1875 22.3125 43.546875 
Q 18.109375 38.921875 18.109375 30.90625 
L 18.109375 0 
L 9.078125 0 
L 9.078125 75.984375 
L 18.109375 75.984375 
L 18.109375 46.1875 
Q 21.34375 51.125 25.703125 53.5625 
Q 30.078125 56 35.796875 56 
Q 45.21875 56 50.046875 50.171875 
Q 54.890625 44.34375 54.890625 33.015625 
z
" id="DejaVuSans-104"/>
     </defs>
     <use xlink:href="#DejaVuSans-49"/>
     <use x="63.623047" xlink:href="#DejaVuSans-55"/>
     <use x="127.246094" xlink:href="#DejaVuSans-32"/>
     <use x="159.033203" xlink:href="#DejaVuSans-83"/>
     <use x="222.509766" xlink:href="#DejaVuSans-99"/>
     <use x="277.490234" xlink:href="#DejaVuSans-104"/>
     <use x="340.869141" xlink:href="#DejaVuSans-97"/>
     <use x="402.148438" xlink:href="#DejaVuSans-102"/>
     <use x="437.353516" xlink:href="#DejaVuSans-102"/>
     <use x="472.558594" xlink:href="#DejaVuSans-101"/>
     <use x="534.082031" xlink:href="#DejaVuSans-114"/>
     <use x="575.195312" xlink:href="#DejaVuSans-32"/>
     <use x="606.982422" xlink:href="#DejaVuSans-70"/>
     <use x="664.501953" xlink:href="#DejaVuSans-55"/>
     <use x="728.125" xlink:href="#DejaVuSans-44"/>
     <use x="759.912109" xlink:href="#DejaVuSans-32"/>
     <use x="791.699219" xlink:href="#DejaVuSans-99"/>
     <use x="846.679688" xlink:href="#DejaVuSans-111"/>
     <use x="907.861328" xlink:href="#DejaVuSans-110"/>
     <use x="971.240234" xlink:href="#DejaVuSans-100"/>
     <use x="1034.716797" xlink:href="#DejaVuSans-105"/>
     <use x="1062.5" xlink:href="#DejaVuSans-116"/>
     <use x="1101.708984" xlink:href="#DejaVuSans-105"/>
     <use x="1129.492188" xlink:href="#DejaVuSans-111"/>
     <use x="1190.673828" xlink:href="#DejaVuSans-110"/>
     <use x="1254.052734" xlink:href="#DejaVuSans-32"/>
     <use x="1285.839844" xlink:href="#DejaVuSans-49"/>
     <use x="1349.462891" xlink:href="#DejaVuSans-48"/>
    </g>
   </g>
  </g>
 </g>
 <defs>
  <clipPath id="p36889aaa20">
   <rect height="271.296" width="281.088" x="57.6" y="27.648"/>
  </clipPath>
 </defs>
</svg>
