<?xml version="1.0" encoding="utf-8" standalone="no"?>
<!DOCTYPE svg PUBLIC "-//W3C//DTD SVG 1.1//EN"
  "http://www.w3.org/Graphics/SVG/1.1/DTD/svg11.dtd">
<!-- Created with matplotlib (https://matplotlib.org/) -->
<svg height="345.6pt" version="1.1" viewBox="0 0 460.8 345.6" width="460.8pt" xmlns="http://www.w3.org/2000/svg" xmlns:xlink="http://www.w3.org/1999/xlink">
 <metadata>
  <rdf:RDF xmlns:cc="http://creativecommons.org/ns#" xmlns:dc="http://purl.org/dc/elements/1.1/" xmlns:rdf="http://www.w3.org/1999/02/22-rdf-syntax-ns#">
   <cc:Work>
    <dc:type rdf:resource="http://purl.org/dc/dcmitype/StillImage"/>
    <dc:date>2021-05-01T17:09:11.764261</dc:date>
    <dc:format>image/svg+xml</dc:format>
    <dc:creator>
     <cc:Agent>
      <dc:title>Matplotlib v3.3.2, https://matplotlib.org/</dc:title>
     </cc:Agent>
    </dc:creator>
   </cc:Work>
  </rdf:RDF>
 </metadata>
 <defs>
  <style type="text/css">*{stroke-linecap:butt;stroke-linejoin:round;}</style>
 </defs>
 <g id="figure_1">
  <g id="patch_1">
   <path d="M 0 345.6 
L 460.8 345.6 
L 460.8 0 
L 0 0 
z
" style="fill:#ffffff;"/>
  </g>
  <g id="axes_1">
   <g id="patch_2">
    <path d="M 57.6 298.944 
L 338.688 298.944 
L 338.688 27.648 
L 57.6 27.648 
z
" style="fill:#ffffff;"/>
   </g>
   <g id="line2d_1">
    <path d="M 29.53256 298.944 
L 29.53256 283.143418 
L 81.775977 283.143418 
L 81.775977 277.876557 
L 86.351421 277.876557 
L 86.351421 272.609696 
L 91.535274 272.609696 
L 91.535274 267.342835 
L 97.043522 267.342835 
L 97.043522 262.075974 
L 101.506816 262.075974 
L 101.506816 256.809114 
L 103.870632 256.809114 
L 103.870632 251.542253 
L 111.023335 251.542253 
L 111.023335 246.275392 
L 114.0117 246.275392 
L 114.0117 241.008531 
L 118.470564 241.008531 
L 118.470564 235.74167 
L 119.996839 235.74167 
L 119.996839 230.47481 
L 121.310093 230.47481 
L 121.310093 225.207949 
L 122.782271 225.207949 
L 122.782271 219.941088 
L 123.111324 219.941088 
L 123.111324 214.674227 
L 123.829748 214.674227 
L 123.829748 209.407366 
L 124.743806 209.407366 
L 124.743806 204.140506 
L 125.038147 204.140506 
L 125.038147 198.873645 
L 126.236468 198.873645 
L 126.236468 193.606784 
L 126.70692 193.606784 
L 126.70692 188.339923 
L 127.229484 188.339923 
L 127.229484 183.073062 
L 127.611382 183.073062 
L 127.611382 172.539341 
L 128.590686 172.539341 
L 128.590686 167.27248 
L 129.002426 167.27248 
L 129.002426 162.005619 
L 129.233413 162.005619 
L 129.233413 156.738758 
L 130.182344 156.738758 
L 130.182344 140.938176 
L 130.344571 140.938176 
L 130.344571 125.137593 
L 130.398313 125.137593 
L 130.398313 119.870733 
L 130.505303 119.870733 
L 130.505303 114.603872 
L 130.926816 114.603872 
L 130.926816 109.337011 
L 131.082294 109.337011 
L 131.082294 104.07015 
L 131.185181 104.07015 
L 131.185181 98.803289 
L 131.389151 98.803289 
L 131.389151 93.536429 
L 131.439773 93.536429 
L 131.439773 88.269568 
L 131.938072 88.269568 
L 131.938072 83.002707 
L 131.987128 83.002707 
L 131.987128 72.468985 
L 132.181982 72.468985 
L 132.181982 67.202125 
L 132.470242 67.202125 
L 132.470242 61.935264 
L 132.612604 61.935264 
L 132.612604 56.668403 
L 132.80063 56.668403 
L 132.80063 30.334099 
L 338.688 30.334099 
" style="fill:none;stroke:#f5deb3;stroke-linecap:square;stroke-width:4;"/>
   </g>
   <g id="line2d_2">
    <defs>
     <path d="M -0 7.778175 
L 7.778175 0 
L 0 -7.778175 
L -7.778175 -0 
z
" id="m0fe402e5c3" style="stroke:#f5deb3;stroke-linejoin:miter;stroke-width:1.5;"/>
    </defs>
    <g>
     <use style="fill:#f5deb3;stroke:#f5deb3;stroke-linejoin:miter;stroke-width:1.5;" x="125.038147" xlink:href="#m0fe402e5c3" y="198.873645"/>
     <use style="fill:#f5deb3;stroke:#f5deb3;stroke-linejoin:miter;stroke-width:1.5;" x="131.439773" xlink:href="#m0fe402e5c3" y="93.536429"/>
     <use style="fill:#f5deb3;stroke:#f5deb3;stroke-linejoin:miter;stroke-width:1.5;" x="132.80063" xlink:href="#m0fe402e5c3" y="56.668403"/>
     <use style="fill:#f5deb3;stroke:#f5deb3;stroke-linejoin:miter;stroke-width:1.5;" x="132.80063" xlink:href="#m0fe402e5c3" y="30.334099"/>
     <use style="fill:#f5deb3;stroke:#f5deb3;stroke-linejoin:miter;stroke-width:1.5;" x="132.80063" xlink:href="#m0fe402e5c3" y="30.334099"/>
     <use style="fill:#f5deb3;stroke:#f5deb3;stroke-linejoin:miter;stroke-width:1.5;" x="338.688" xlink:href="#m0fe402e5c3" y="30.334099"/>
    </g>
   </g>
   <g id="line2d_3">
    <path style="fill:none;stroke:#f5deb3;stroke-linecap:square;stroke-width:4;"/>
    <g/>
   </g>
   <g id="line2d_4">
    <path d="M 338.688 30.334099 
L 369.60768 35.706297 
" style="fill:none;stroke:#f5deb3;stroke-linecap:square;stroke-width:4;"/>
    <g>
     <use style="fill:#f5deb3;stroke:#f5deb3;stroke-linejoin:miter;stroke-width:1.5;" x="338.688" xlink:href="#m0fe402e5c3" y="30.334099"/>
     <use style="fill:#f5deb3;stroke:#f5deb3;stroke-linejoin:miter;stroke-width:1.5;" x="369.60768" xlink:href="#m0fe402e5c3" y="35.706297"/>
    </g>
   </g>
   <g id="matplotlib.axis_1">
    <g id="xtick_1">
     <g id="line2d_5">
      <path clip-path="url(#p14f06736bb)" d="M 57.6 298.944 
L 57.6 27.648 
" style="fill:none;stroke:#b0b0b0;stroke-linecap:square;stroke-width:0.8;"/>
     </g>
     <g id="line2d_6">
      <defs>
       <path d="M 0 0 
L 0 3.5 
" id="mff68fd7300" style="stroke:#000000;stroke-width:0.8;"/>
      </defs>
      <g>
       <use style="stroke:#000000;stroke-width:0.8;" x="57.6" xlink:href="#mff68fd7300" y="298.944"/>
      </g>
     </g>
     <g id="text_1">
      <!-- 0 -->
      <g transform="translate(51.2375 321.140875)scale(0.2 -0.2)">
       <defs>
        <path d="M 31.78125 66.40625 
Q 24.171875 66.40625 20.328125 58.90625 
Q 16.5 51.421875 16.5 36.375 
Q 16.5 21.390625 20.328125 13.890625 
Q 24.171875 6.390625 31.78125 6.390625 
Q 39.453125 6.390625 43.28125 13.890625 
Q 47.125 21.390625 47.125 36.375 
Q 47.125 51.421875 43.28125 58.90625 
Q 39.453125 66.40625 31.78125 66.40625 
z
M 31.78125 74.21875 
Q 44.046875 74.21875 50.515625 64.515625 
Q 56.984375 54.828125 56.984375 36.375 
Q 56.984375 17.96875 50.515625 8.265625 
Q 44.046875 -1.421875 31.78125 -1.421875 
Q 19.53125 -1.421875 13.0625 8.265625 
Q 6.59375 17.96875 6.59375 36.375 
Q 6.59375 54.828125 13.0625 64.515625 
Q 19.53125 74.21875 31.78125 74.21875 
z
" id="DejaVuSans-48"/>
       </defs>
       <use xlink:href="#DejaVuSans-48"/>
      </g>
     </g>
    </g>
    <g id="xtick_2">
     <g id="line2d_7">
      <path clip-path="url(#p14f06736bb)" d="M 137.910857 298.944 
L 137.910857 27.648 
" style="fill:none;stroke:#b0b0b0;stroke-linecap:square;stroke-width:0.8;"/>
     </g>
     <g id="line2d_8">
      <g>
       <use style="stroke:#000000;stroke-width:0.8;" x="137.910857" xlink:href="#mff68fd7300" y="298.944"/>
      </g>
     </g>
     <g id="text_2">
      <!-- 2 -->
      <g transform="translate(131.548357 321.140875)scale(0.2 -0.2)">
       <defs>
        <path d="M 19.1875 8.296875 
L 53.609375 8.296875 
L 53.609375 0 
L 7.328125 0 
L 7.328125 8.296875 
Q 12.9375 14.109375 22.625 23.890625 
Q 32.328125 33.6875 34.8125 36.53125 
Q 39.546875 41.84375 41.421875 45.53125 
Q 43.3125 49.21875 43.3125 52.78125 
Q 43.3125 58.59375 39.234375 62.25 
Q 35.15625 65.921875 28.609375 65.921875 
Q 23.96875 65.921875 18.8125 64.3125 
Q 13.671875 62.703125 7.8125 59.421875 
L 7.8125 69.390625 
Q 13.765625 71.78125 18.9375 73 
Q 24.125 74.21875 28.421875 74.21875 
Q 39.75 74.21875 46.484375 68.546875 
Q 53.21875 62.890625 53.21875 53.421875 
Q 53.21875 48.921875 51.53125 44.890625 
Q 49.859375 40.875 45.40625 35.40625 
Q 44.1875 33.984375 37.640625 27.21875 
Q 31.109375 20.453125 19.1875 8.296875 
z
" id="DejaVuSans-50"/>
       </defs>
       <use xlink:href="#DejaVuSans-50"/>
      </g>
     </g>
    </g>
    <g id="xtick_3">
     <g id="line2d_9">
      <path clip-path="url(#p14f06736bb)" d="M 218.221714 298.944 
L 218.221714 27.648 
" style="fill:none;stroke:#b0b0b0;stroke-linecap:square;stroke-width:0.8;"/>
     </g>
     <g id="line2d_10">
      <g>
       <use style="stroke:#000000;stroke-width:0.8;" x="218.221714" xlink:href="#mff68fd7300" y="298.944"/>
      </g>
     </g>
     <g id="text_3">
      <!-- 4 -->
      <g transform="translate(211.859214 321.140875)scale(0.2 -0.2)">
       <defs>
        <path d="M 37.796875 64.3125 
L 12.890625 25.390625 
L 37.796875 25.390625 
z
M 35.203125 72.90625 
L 47.609375 72.90625 
L 47.609375 25.390625 
L 58.015625 25.390625 
L 58.015625 17.1875 
L 47.609375 17.1875 
L 47.609375 0 
L 37.796875 0 
L 37.796875 17.1875 
L 4.890625 17.1875 
L 4.890625 26.703125 
z
" id="DejaVuSans-52"/>
       </defs>
       <use xlink:href="#DejaVuSans-52"/>
      </g>
     </g>
    </g>
    <g id="xtick_4">
     <g id="line2d_11">
      <path clip-path="url(#p14f06736bb)" d="M 298.532571 298.944 
L 298.532571 27.648 
" style="fill:none;stroke:#b0b0b0;stroke-linecap:square;stroke-width:0.8;"/>
     </g>
     <g id="line2d_12">
      <g>
       <use style="stroke:#000000;stroke-width:0.8;" x="298.532571" xlink:href="#mff68fd7300" y="298.944"/>
      </g>
     </g>
     <g id="text_4">
      <!-- 6 -->
      <g transform="translate(292.170071 321.140875)scale(0.2 -0.2)">
       <defs>
        <path d="M 33.015625 40.375 
Q 26.375 40.375 22.484375 35.828125 
Q 18.609375 31.296875 18.609375 23.390625 
Q 18.609375 15.53125 22.484375 10.953125 
Q 26.375 6.390625 33.015625 6.390625 
Q 39.65625 6.390625 43.53125 10.953125 
Q 47.40625 15.53125 47.40625 23.390625 
Q 47.40625 31.296875 43.53125 35.828125 
Q 39.65625 40.375 33.015625 40.375 
z
M 52.59375 71.296875 
L 52.59375 62.3125 
Q 48.875 64.0625 45.09375 64.984375 
Q 41.3125 65.921875 37.59375 65.921875 
Q 27.828125 65.921875 22.671875 59.328125 
Q 17.53125 52.734375 16.796875 39.40625 
Q 19.671875 43.65625 24.015625 45.921875 
Q 28.375 48.1875 33.59375 48.1875 
Q 44.578125 48.1875 50.953125 41.515625 
Q 57.328125 34.859375 57.328125 23.390625 
Q 57.328125 12.15625 50.6875 5.359375 
Q 44.046875 -1.421875 33.015625 -1.421875 
Q 20.359375 -1.421875 13.671875 8.265625 
Q 6.984375 17.96875 6.984375 36.375 
Q 6.984375 53.65625 15.1875 63.9375 
Q 23.390625 74.21875 37.203125 74.21875 
Q 40.921875 74.21875 44.703125 73.484375 
Q 48.484375 72.75 52.59375 71.296875 
z
" id="DejaVuSans-54"/>
       </defs>
       <use xlink:href="#DejaVuSans-54"/>
      </g>
     </g>
    </g>
    <g id="xtick_5">
     <g id="line2d_13">
      <path clip-path="url(#p14f06736bb)" d="M 97.755429 298.944 
L 97.755429 27.648 
" style="fill:none;stroke:#b0b0b0;stroke-linecap:square;stroke-width:0.8;"/>
     </g>
     <g id="line2d_14">
      <defs>
       <path d="M 0 0 
L 0 2 
" id="ma745d7aa32" style="stroke:#000000;stroke-width:0.6;"/>
      </defs>
      <g>
       <use style="stroke:#000000;stroke-width:0.6;" x="97.755429" xlink:href="#ma745d7aa32" y="298.944"/>
      </g>
     </g>
    </g>
    <g id="xtick_6">
     <g id="line2d_15">
      <path clip-path="url(#p14f06736bb)" d="M 178.066286 298.944 
L 178.066286 27.648 
" style="fill:none;stroke:#b0b0b0;stroke-linecap:square;stroke-width:0.8;"/>
     </g>
     <g id="line2d_16">
      <g>
       <use style="stroke:#000000;stroke-width:0.6;" x="178.066286" xlink:href="#ma745d7aa32" y="298.944"/>
      </g>
     </g>
    </g>
    <g id="xtick_7">
     <g id="line2d_17">
      <path clip-path="url(#p14f06736bb)" d="M 258.377143 298.944 
L 258.377143 27.648 
" style="fill:none;stroke:#b0b0b0;stroke-linecap:square;stroke-width:0.8;"/>
     </g>
     <g id="line2d_18">
      <g>
       <use style="stroke:#000000;stroke-width:0.6;" x="258.377143" xlink:href="#ma745d7aa32" y="298.944"/>
      </g>
     </g>
    </g>
    <g id="xtick_8">
     <g id="line2d_19">
      <path clip-path="url(#p14f06736bb)" d="M 338.688 298.944 
L 338.688 27.648 
" style="fill:none;stroke:#b0b0b0;stroke-linecap:square;stroke-width:0.8;"/>
     </g>
     <g id="line2d_20">
      <g>
       <use style="stroke:#000000;stroke-width:0.6;" x="338.688" xlink:href="#ma745d7aa32" y="298.944"/>
      </g>
     </g>
    </g>
    <g id="text_5">
     <!-- log10(# f-evals / dimension) -->
     <g transform="translate(77.764078 342.217594)scale(0.17 -0.17)">
      <defs>
       <path d="M 9.421875 75.984375 
L 18.40625 75.984375 
L 18.40625 0 
L 9.421875 0 
z
" id="DejaVuSans-108"/>
       <path d="M 30.609375 48.390625 
Q 23.390625 48.390625 19.1875 42.75 
Q 14.984375 37.109375 14.984375 27.296875 
Q 14.984375 17.484375 19.15625 11.84375 
Q 23.34375 6.203125 30.609375 6.203125 
Q 37.796875 6.203125 41.984375 11.859375 
Q 46.1875 17.53125 46.1875 27.296875 
Q 46.1875 37.015625 41.984375 42.703125 
Q 37.796875 48.390625 30.609375 48.390625 
z
M 30.609375 56 
Q 42.328125 56 49.015625 48.375 
Q 55.71875 40.765625 55.71875 27.296875 
Q 55.71875 13.875 49.015625 6.21875 
Q 42.328125 -1.421875 30.609375 -1.421875 
Q 18.84375 -1.421875 12.171875 6.21875 
Q 5.515625 13.875 5.515625 27.296875 
Q 5.515625 40.765625 12.171875 48.375 
Q 18.84375 56 30.609375 56 
z
" id="DejaVuSans-111"/>
       <path d="M 45.40625 27.984375 
Q 45.40625 37.75 41.375 43.109375 
Q 37.359375 48.484375 30.078125 48.484375 
Q 22.859375 48.484375 18.828125 43.109375 
Q 14.796875 37.75 14.796875 27.984375 
Q 14.796875 18.265625 18.828125 12.890625 
Q 22.859375 7.515625 30.078125 7.515625 
Q 37.359375 7.515625 41.375 12.890625 
Q 45.40625 18.265625 45.40625 27.984375 
z
M 54.390625 6.78125 
Q 54.390625 -7.171875 48.1875 -13.984375 
Q 42 -20.796875 29.203125 -20.796875 
Q 24.46875 -20.796875 20.265625 -20.09375 
Q 16.0625 -19.390625 12.109375 -17.921875 
L 12.109375 -9.1875 
Q 16.0625 -11.328125 19.921875 -12.34375 
Q 23.78125 -13.375 27.78125 -13.375 
Q 36.625 -13.375 41.015625 -8.765625 
Q 45.40625 -4.15625 45.40625 5.171875 
L 45.40625 9.625 
Q 42.625 4.78125 38.28125 2.390625 
Q 33.9375 0 27.875 0 
Q 17.828125 0 11.671875 7.65625 
Q 5.515625 15.328125 5.515625 27.984375 
Q 5.515625 40.671875 11.671875 48.328125 
Q 17.828125 56 27.875 56 
Q 33.9375 56 38.28125 53.609375 
Q 42.625 51.21875 45.40625 46.390625 
L 45.40625 54.6875 
L 54.390625 54.6875 
z
" id="DejaVuSans-103"/>
       <path d="M 12.40625 8.296875 
L 28.515625 8.296875 
L 28.515625 63.921875 
L 10.984375 60.40625 
L 10.984375 69.390625 
L 28.421875 72.90625 
L 38.28125 72.90625 
L 38.28125 8.296875 
L 54.390625 8.296875 
L 54.390625 0 
L 12.40625 0 
z
" id="DejaVuSans-49"/>
       <path d="M 31 75.875 
Q 24.46875 64.65625 21.28125 53.65625 
Q 18.109375 42.671875 18.109375 31.390625 
Q 18.109375 20.125 21.3125 9.0625 
Q 24.515625 -2 31 -13.1875 
L 23.1875 -13.1875 
Q 15.875 -1.703125 12.234375 9.375 
Q 8.59375 20.453125 8.59375 31.390625 
Q 8.59375 42.28125 12.203125 53.3125 
Q 15.828125 64.359375 23.1875 75.875 
z
" id="DejaVuSans-40"/>
       <path d="M 51.125 44 
L 36.921875 44 
L 32.8125 27.6875 
L 47.125 27.6875 
z
M 43.796875 71.78125 
L 38.71875 51.515625 
L 52.984375 51.515625 
L 58.109375 71.78125 
L 65.921875 71.78125 
L 60.890625 51.515625 
L 76.125 51.515625 
L 76.125 44 
L 58.984375 44 
L 54.984375 27.6875 
L 70.515625 27.6875 
L 70.515625 20.21875 
L 53.078125 20.21875 
L 48 0 
L 40.1875 0 
L 45.21875 20.21875 
L 30.90625 20.21875 
L 25.875 0 
L 18.015625 0 
L 23.09375 20.21875 
L 7.71875 20.21875 
L 7.71875 27.6875 
L 24.90625 27.6875 
L 29 44 
L 13.28125 44 
L 13.28125 51.515625 
L 30.90625 51.515625 
L 35.890625 71.78125 
z
" id="DejaVuSans-35"/>
       <path id="DejaVuSans-32"/>
       <path d="M 37.109375 75.984375 
L 37.109375 68.5 
L 28.515625 68.5 
Q 23.6875 68.5 21.796875 66.546875 
Q 19.921875 64.59375 19.921875 59.515625 
L 19.921875 54.6875 
L 34.71875 54.6875 
L 34.71875 47.703125 
L 19.921875 47.703125 
L 19.921875 0 
L 10.890625 0 
L 10.890625 47.703125 
L 2.296875 47.703125 
L 2.296875 54.6875 
L 10.890625 54.6875 
L 10.890625 58.5 
Q 10.890625 67.625 15.140625 71.796875 
Q 19.390625 75.984375 28.609375 75.984375 
z
" id="DejaVuSans-102"/>
       <path d="M 4.890625 31.390625 
L 31.203125 31.390625 
L 31.203125 23.390625 
L 4.890625 23.390625 
z
" id="DejaVuSans-45"/>
       <path d="M 56.203125 29.59375 
L 56.203125 25.203125 
L 14.890625 25.203125 
Q 15.484375 15.921875 20.484375 11.0625 
Q 25.484375 6.203125 34.421875 6.203125 
Q 39.59375 6.203125 44.453125 7.46875 
Q 49.3125 8.734375 54.109375 11.28125 
L 54.109375 2.78125 
Q 49.265625 0.734375 44.1875 -0.34375 
Q 39.109375 -1.421875 33.890625 -1.421875 
Q 20.796875 -1.421875 13.15625 6.1875 
Q 5.515625 13.8125 5.515625 26.8125 
Q 5.515625 40.234375 12.765625 48.109375 
Q 20.015625 56 32.328125 56 
Q 43.359375 56 49.78125 48.890625 
Q 56.203125 41.796875 56.203125 29.59375 
z
M 47.21875 32.234375 
Q 47.125 39.59375 43.09375 43.984375 
Q 39.0625 48.390625 32.421875 48.390625 
Q 24.90625 48.390625 20.390625 44.140625 
Q 15.875 39.890625 15.1875 32.171875 
z
" id="DejaVuSans-101"/>
       <path d="M 2.984375 54.6875 
L 12.5 54.6875 
L 29.59375 8.796875 
L 46.6875 54.6875 
L 56.203125 54.6875 
L 35.6875 0 
L 23.484375 0 
z
" id="DejaVuSans-118"/>
       <path d="M 34.28125 27.484375 
Q 23.390625 27.484375 19.1875 25 
Q 14.984375 22.515625 14.984375 16.5 
Q 14.984375 11.71875 18.140625 8.90625 
Q 21.296875 6.109375 26.703125 6.109375 
Q 34.1875 6.109375 38.703125 11.40625 
Q 43.21875 16.703125 43.21875 25.484375 
L 43.21875 27.484375 
z
M 52.203125 31.203125 
L 52.203125 0 
L 43.21875 0 
L 43.21875 8.296875 
Q 40.140625 3.328125 35.546875 0.953125 
Q 30.953125 -1.421875 24.3125 -1.421875 
Q 15.921875 -1.421875 10.953125 3.296875 
Q 6 8.015625 6 15.921875 
Q 6 25.140625 12.171875 29.828125 
Q 18.359375 34.515625 30.609375 34.515625 
L 43.21875 34.515625 
L 43.21875 35.40625 
Q 43.21875 41.609375 39.140625 45 
Q 35.0625 48.390625 27.6875 48.390625 
Q 23 48.390625 18.546875 47.265625 
Q 14.109375 46.140625 10.015625 43.890625 
L 10.015625 52.203125 
Q 14.9375 54.109375 19.578125 55.046875 
Q 24.21875 56 28.609375 56 
Q 40.484375 56 46.34375 49.84375 
Q 52.203125 43.703125 52.203125 31.203125 
z
" id="DejaVuSans-97"/>
       <path d="M 44.28125 53.078125 
L 44.28125 44.578125 
Q 40.484375 46.53125 36.375 47.5 
Q 32.28125 48.484375 27.875 48.484375 
Q 21.1875 48.484375 17.84375 46.4375 
Q 14.5 44.390625 14.5 40.28125 
Q 14.5 37.15625 16.890625 35.375 
Q 19.28125 33.59375 26.515625 31.984375 
L 29.59375 31.296875 
Q 39.15625 29.25 43.1875 25.515625 
Q 47.21875 21.78125 47.21875 15.09375 
Q 47.21875 7.46875 41.1875 3.015625 
Q 35.15625 -1.421875 24.609375 -1.421875 
Q 20.21875 -1.421875 15.453125 -0.5625 
Q 10.6875 0.296875 5.421875 2 
L 5.421875 11.28125 
Q 10.40625 8.6875 15.234375 7.390625 
Q 20.0625 6.109375 24.8125 6.109375 
Q 31.15625 6.109375 34.5625 8.28125 
Q 37.984375 10.453125 37.984375 14.40625 
Q 37.984375 18.0625 35.515625 20.015625 
Q 33.0625 21.96875 24.703125 23.78125 
L 21.578125 24.515625 
Q 13.234375 26.265625 9.515625 29.90625 
Q 5.8125 33.546875 5.8125 39.890625 
Q 5.8125 47.609375 11.28125 51.796875 
Q 16.75 56 26.8125 56 
Q 31.78125 56 36.171875 55.265625 
Q 40.578125 54.546875 44.28125 53.078125 
z
" id="DejaVuSans-115"/>
       <path d="M 25.390625 72.90625 
L 33.6875 72.90625 
L 8.296875 -9.28125 
L 0 -9.28125 
z
" id="DejaVuSans-47"/>
       <path d="M 45.40625 46.390625 
L 45.40625 75.984375 
L 54.390625 75.984375 
L 54.390625 0 
L 45.40625 0 
L 45.40625 8.203125 
Q 42.578125 3.328125 38.25 0.953125 
Q 33.9375 -1.421875 27.875 -1.421875 
Q 17.96875 -1.421875 11.734375 6.484375 
Q 5.515625 14.40625 5.515625 27.296875 
Q 5.515625 40.1875 11.734375 48.09375 
Q 17.96875 56 27.875 56 
Q 33.9375 56 38.25 53.625 
Q 42.578125 51.265625 45.40625 46.390625 
z
M 14.796875 27.296875 
Q 14.796875 17.390625 18.875 11.75 
Q 22.953125 6.109375 30.078125 6.109375 
Q 37.203125 6.109375 41.296875 11.75 
Q 45.40625 17.390625 45.40625 27.296875 
Q 45.40625 37.203125 41.296875 42.84375 
Q 37.203125 48.484375 30.078125 48.484375 
Q 22.953125 48.484375 18.875 42.84375 
Q 14.796875 37.203125 14.796875 27.296875 
z
" id="DejaVuSans-100"/>
       <path d="M 9.421875 54.6875 
L 18.40625 54.6875 
L 18.40625 0 
L 9.421875 0 
z
M 9.421875 75.984375 
L 18.40625 75.984375 
L 18.40625 64.59375 
L 9.421875 64.59375 
z
" id="DejaVuSans-105"/>
       <path d="M 52 44.1875 
Q 55.375 50.25 60.0625 53.125 
Q 64.75 56 71.09375 56 
Q 79.640625 56 84.28125 50.015625 
Q 88.921875 44.046875 88.921875 33.015625 
L 88.921875 0 
L 79.890625 0 
L 79.890625 32.71875 
Q 79.890625 40.578125 77.09375 44.375 
Q 74.3125 48.1875 68.609375 48.1875 
Q 61.625 48.1875 57.5625 43.546875 
Q 53.515625 38.921875 53.515625 30.90625 
L 53.515625 0 
L 44.484375 0 
L 44.484375 32.71875 
Q 44.484375 40.625 41.703125 44.40625 
Q 38.921875 48.1875 33.109375 48.1875 
Q 26.21875 48.1875 22.15625 43.53125 
Q 18.109375 38.875 18.109375 30.90625 
L 18.109375 0 
L 9.078125 0 
L 9.078125 54.6875 
L 18.109375 54.6875 
L 18.109375 46.1875 
Q 21.1875 51.21875 25.484375 53.609375 
Q 29.78125 56 35.6875 56 
Q 41.65625 56 45.828125 52.96875 
Q 50 49.953125 52 44.1875 
z
" id="DejaVuSans-109"/>
       <path d="M 54.890625 33.015625 
L 54.890625 0 
L 45.90625 0 
L 45.90625 32.71875 
Q 45.90625 40.484375 42.875 44.328125 
Q 39.84375 48.1875 33.796875 48.1875 
Q 26.515625 48.1875 22.3125 43.546875 
Q 18.109375 38.921875 18.109375 30.90625 
L 18.109375 0 
L 9.078125 0 
L 9.078125 54.6875 
L 18.109375 54.6875 
L 18.109375 46.1875 
Q 21.34375 51.125 25.703125 53.5625 
Q 30.078125 56 35.796875 56 
Q 45.21875 56 50.046875 50.171875 
Q 54.890625 44.34375 54.890625 33.015625 
z
" id="DejaVuSans-110"/>
       <path d="M 8.015625 75.875 
L 15.828125 75.875 
Q 23.140625 64.359375 26.78125 53.3125 
Q 30.421875 42.28125 30.421875 31.390625 
Q 30.421875 20.453125 26.78125 9.375 
Q 23.140625 -1.703125 15.828125 -13.1875 
L 8.015625 -13.1875 
Q 14.5 -2 17.703125 9.0625 
Q 20.90625 20.125 20.90625 31.390625 
Q 20.90625 42.671875 17.703125 53.65625 
Q 14.5 64.65625 8.015625 75.875 
z
" id="DejaVuSans-41"/>
      </defs>
      <use xlink:href="#DejaVuSans-108"/>
      <use x="27.783203" xlink:href="#DejaVuSans-111"/>
      <use x="88.964844" xlink:href="#DejaVuSans-103"/>
      <use x="152.441406" xlink:href="#DejaVuSans-49"/>
      <use x="216.064453" xlink:href="#DejaVuSans-48"/>
      <use x="279.6875" xlink:href="#DejaVuSans-40"/>
      <use x="318.701172" xlink:href="#DejaVuSans-35"/>
      <use x="402.490234" xlink:href="#DejaVuSans-32"/>
      <use x="434.277344" xlink:href="#DejaVuSans-102"/>
      <use x="463.982422" xlink:href="#DejaVuSans-45"/>
      <use x="500.066406" xlink:href="#DejaVuSans-101"/>
      <use x="561.589844" xlink:href="#DejaVuSans-118"/>
      <use x="620.769531" xlink:href="#DejaVuSans-97"/>
      <use x="682.048828" xlink:href="#DejaVuSans-108"/>
      <use x="709.832031" xlink:href="#DejaVuSans-115"/>
      <use x="761.931641" xlink:href="#DejaVuSans-32"/>
      <use x="793.71875" xlink:href="#DejaVuSans-47"/>
      <use x="827.410156" xlink:href="#DejaVuSans-32"/>
      <use x="859.197266" xlink:href="#DejaVuSans-100"/>
      <use x="922.673828" xlink:href="#DejaVuSans-105"/>
      <use x="950.457031" xlink:href="#DejaVuSans-109"/>
      <use x="1047.869141" xlink:href="#DejaVuSans-101"/>
      <use x="1109.392578" xlink:href="#DejaVuSans-110"/>
      <use x="1172.771484" xlink:href="#DejaVuSans-115"/>
      <use x="1224.871094" xlink:href="#DejaVuSans-105"/>
      <use x="1252.654297" xlink:href="#DejaVuSans-111"/>
      <use x="1313.835938" xlink:href="#DejaVuSans-110"/>
      <use x="1377.214844" xlink:href="#DejaVuSans-41"/>
     </g>
    </g>
   </g>
   <g id="matplotlib.axis_2">
    <g id="ytick_1">
     <g id="line2d_21">
      <path clip-path="url(#p14f06736bb)" d="M 57.6 298.944 
L 338.688 298.944 
" style="fill:none;stroke:#b0b0b0;stroke-linecap:square;stroke-width:0.8;"/>
     </g>
     <g id="line2d_22">
      <defs>
       <path d="M 0 0 
L -3.5 0 
" id="m050bb7184b" style="stroke:#000000;stroke-width:0.8;"/>
      </defs>
      <g>
       <use style="stroke:#000000;stroke-width:0.8;" x="57.6" xlink:href="#m050bb7184b" y="298.944"/>
      </g>
     </g>
     <g id="text_6">
      <!-- 0.0 -->
      <g transform="translate(25.155 305.02275)scale(0.16 -0.16)">
       <defs>
        <path d="M 10.6875 12.40625 
L 21 12.40625 
L 21 0 
L 10.6875 0 
z
" id="DejaVuSans-46"/>
       </defs>
       <use xlink:href="#DejaVuSans-48"/>
       <use x="63.623047" xlink:href="#DejaVuSans-46"/>
       <use x="95.410156" xlink:href="#DejaVuSans-48"/>
      </g>
     </g>
    </g>
    <g id="ytick_2">
     <g id="line2d_23">
      <path clip-path="url(#p14f06736bb)" d="M 57.6 245.22202 
L 338.688 245.22202 
" style="fill:none;stroke:#b0b0b0;stroke-linecap:square;stroke-width:0.8;"/>
     </g>
     <g id="line2d_24">
      <g>
       <use style="stroke:#000000;stroke-width:0.8;" x="57.6" xlink:href="#m050bb7184b" y="245.22202"/>
      </g>
     </g>
     <g id="text_7">
      <!-- 0.2 -->
      <g transform="translate(25.155 251.30077)scale(0.16 -0.16)">
       <use xlink:href="#DejaVuSans-48"/>
       <use x="63.623047" xlink:href="#DejaVuSans-46"/>
       <use x="95.410156" xlink:href="#DejaVuSans-50"/>
      </g>
     </g>
    </g>
    <g id="ytick_3">
     <g id="line2d_25">
      <path clip-path="url(#p14f06736bb)" d="M 57.6 191.50004 
L 338.688 191.50004 
" style="fill:none;stroke:#b0b0b0;stroke-linecap:square;stroke-width:0.8;"/>
     </g>
     <g id="line2d_26">
      <g>
       <use style="stroke:#000000;stroke-width:0.8;" x="57.6" xlink:href="#m050bb7184b" y="191.50004"/>
      </g>
     </g>
     <g id="text_8">
      <!-- 0.4 -->
      <g transform="translate(25.155 197.57879)scale(0.16 -0.16)">
       <use xlink:href="#DejaVuSans-48"/>
       <use x="63.623047" xlink:href="#DejaVuSans-46"/>
       <use x="95.410156" xlink:href="#DejaVuSans-52"/>
      </g>
     </g>
    </g>
    <g id="ytick_4">
     <g id="line2d_27">
      <path clip-path="url(#p14f06736bb)" d="M 57.6 137.778059 
L 338.688 137.778059 
" style="fill:none;stroke:#b0b0b0;stroke-linecap:square;stroke-width:0.8;"/>
     </g>
     <g id="line2d_28">
      <g>
       <use style="stroke:#000000;stroke-width:0.8;" x="57.6" xlink:href="#m050bb7184b" y="137.778059"/>
      </g>
     </g>
     <g id="text_9">
      <!-- 0.6 -->
      <g transform="translate(25.155 143.856809)scale(0.16 -0.16)">
       <use xlink:href="#DejaVuSans-48"/>
       <use x="63.623047" xlink:href="#DejaVuSans-46"/>
       <use x="95.410156" xlink:href="#DejaVuSans-54"/>
      </g>
     </g>
    </g>
    <g id="ytick_5">
     <g id="line2d_29">
      <path clip-path="url(#p14f06736bb)" d="M 57.6 84.056079 
L 338.688 84.056079 
" style="fill:none;stroke:#b0b0b0;stroke-linecap:square;stroke-width:0.8;"/>
     </g>
     <g id="line2d_30">
      <g>
       <use style="stroke:#000000;stroke-width:0.8;" x="57.6" xlink:href="#m050bb7184b" y="84.056079"/>
      </g>
     </g>
     <g id="text_10">
      <!-- 0.8 -->
      <g transform="translate(25.155 90.134829)scale(0.16 -0.16)">
       <defs>
        <path d="M 31.78125 34.625 
Q 24.75 34.625 20.71875 30.859375 
Q 16.703125 27.09375 16.703125 20.515625 
Q 16.703125 13.921875 20.71875 10.15625 
Q 24.75 6.390625 31.78125 6.390625 
Q 38.8125 6.390625 42.859375 10.171875 
Q 46.921875 13.96875 46.921875 20.515625 
Q 46.921875 27.09375 42.890625 30.859375 
Q 38.875 34.625 31.78125 34.625 
z
M 21.921875 38.8125 
Q 15.578125 40.375 12.03125 44.71875 
Q 8.5 49.078125 8.5 55.328125 
Q 8.5 64.0625 14.71875 69.140625 
Q 20.953125 74.21875 31.78125 74.21875 
Q 42.671875 74.21875 48.875 69.140625 
Q 55.078125 64.0625 55.078125 55.328125 
Q 55.078125 49.078125 51.53125 44.71875 
Q 48 40.375 41.703125 38.8125 
Q 48.828125 37.15625 52.796875 32.3125 
Q 56.78125 27.484375 56.78125 20.515625 
Q 56.78125 9.90625 50.3125 4.234375 
Q 43.84375 -1.421875 31.78125 -1.421875 
Q 19.734375 -1.421875 13.25 4.234375 
Q 6.78125 9.90625 6.78125 20.515625 
Q 6.78125 27.484375 10.78125 32.3125 
Q 14.796875 37.15625 21.921875 38.8125 
z
M 18.3125 54.390625 
Q 18.3125 48.734375 21.84375 45.5625 
Q 25.390625 42.390625 31.78125 42.390625 
Q 38.140625 42.390625 41.71875 45.5625 
Q 45.3125 48.734375 45.3125 54.390625 
Q 45.3125 60.0625 41.71875 63.234375 
Q 38.140625 66.40625 31.78125 66.40625 
Q 25.390625 66.40625 21.84375 63.234375 
Q 18.3125 60.0625 18.3125 54.390625 
z
" id="DejaVuSans-56"/>
       </defs>
       <use xlink:href="#DejaVuSans-48"/>
       <use x="63.623047" xlink:href="#DejaVuSans-46"/>
       <use x="95.410156" xlink:href="#DejaVuSans-56"/>
      </g>
     </g>
    </g>
    <g id="ytick_6">
     <g id="line2d_31">
      <path clip-path="url(#p14f06736bb)" d="M 57.6 30.334099 
L 338.688 30.334099 
" style="fill:none;stroke:#b0b0b0;stroke-linecap:square;stroke-width:0.8;"/>
     </g>
     <g id="line2d_32">
      <g>
       <use style="stroke:#000000;stroke-width:0.8;" x="57.6" xlink:href="#m050bb7184b" y="30.334099"/>
      </g>
     </g>
     <g id="text_11">
      <!-- 1.0 -->
      <g transform="translate(25.155 36.412849)scale(0.16 -0.16)">
       <use xlink:href="#DejaVuSans-49"/>
       <use x="63.623047" xlink:href="#DejaVuSans-46"/>
       <use x="95.410156" xlink:href="#DejaVuSans-48"/>
      </g>
     </g>
    </g>
    <g id="text_12">
     <!-- Fraction of function,target pairs -->
     <g transform="translate(17.619531 297.681)rotate(-90)scale(0.17 -0.17)">
      <defs>
       <path d="M 9.8125 72.90625 
L 51.703125 72.90625 
L 51.703125 64.59375 
L 19.671875 64.59375 
L 19.671875 43.109375 
L 48.578125 43.109375 
L 48.578125 34.8125 
L 19.671875 34.8125 
L 19.671875 0 
L 9.8125 0 
z
" id="DejaVuSans-70"/>
       <path d="M 41.109375 46.296875 
Q 39.59375 47.171875 37.8125 47.578125 
Q 36.03125 48 33.890625 48 
Q 26.265625 48 22.1875 43.046875 
Q 18.109375 38.09375 18.109375 28.8125 
L 18.109375 0 
L 9.078125 0 
L 9.078125 54.6875 
L 18.109375 54.6875 
L 18.109375 46.1875 
Q 20.953125 51.171875 25.484375 53.578125 
Q 30.03125 56 36.53125 56 
Q 37.453125 56 38.578125 55.875 
Q 39.703125 55.765625 41.0625 55.515625 
z
" id="DejaVuSans-114"/>
       <path d="M 48.78125 52.59375 
L 48.78125 44.1875 
Q 44.96875 46.296875 41.140625 47.34375 
Q 37.3125 48.390625 33.40625 48.390625 
Q 24.65625 48.390625 19.8125 42.84375 
Q 14.984375 37.3125 14.984375 27.296875 
Q 14.984375 17.28125 19.8125 11.734375 
Q 24.65625 6.203125 33.40625 6.203125 
Q 37.3125 6.203125 41.140625 7.25 
Q 44.96875 8.296875 48.78125 10.40625 
L 48.78125 2.09375 
Q 45.015625 0.34375 40.984375 -0.53125 
Q 36.96875 -1.421875 32.421875 -1.421875 
Q 20.0625 -1.421875 12.78125 6.34375 
Q 5.515625 14.109375 5.515625 27.296875 
Q 5.515625 40.671875 12.859375 48.328125 
Q 20.21875 56 33.015625 56 
Q 37.15625 56 41.109375 55.140625 
Q 45.0625 54.296875 48.78125 52.59375 
z
" id="DejaVuSans-99"/>
       <path d="M 18.3125 70.21875 
L 18.3125 54.6875 
L 36.8125 54.6875 
L 36.8125 47.703125 
L 18.3125 47.703125 
L 18.3125 18.015625 
Q 18.3125 11.328125 20.140625 9.421875 
Q 21.96875 7.515625 27.59375 7.515625 
L 36.8125 7.515625 
L 36.8125 0 
L 27.59375 0 
Q 17.1875 0 13.234375 3.875 
Q 9.28125 7.765625 9.28125 18.015625 
L 9.28125 47.703125 
L 2.6875 47.703125 
L 2.6875 54.6875 
L 9.28125 54.6875 
L 9.28125 70.21875 
z
" id="DejaVuSans-116"/>
       <path d="M 8.5 21.578125 
L 8.5 54.6875 
L 17.484375 54.6875 
L 17.484375 21.921875 
Q 17.484375 14.15625 20.5 10.265625 
Q 23.53125 6.390625 29.59375 6.390625 
Q 36.859375 6.390625 41.078125 11.03125 
Q 45.3125 15.671875 45.3125 23.6875 
L 45.3125 54.6875 
L 54.296875 54.6875 
L 54.296875 0 
L 45.3125 0 
L 45.3125 8.40625 
Q 42.046875 3.421875 37.71875 1 
Q 33.40625 -1.421875 27.6875 -1.421875 
Q 18.265625 -1.421875 13.375 4.4375 
Q 8.5 10.296875 8.5 21.578125 
z
M 31.109375 56 
z
" id="DejaVuSans-117"/>
       <path d="M 11.71875 12.40625 
L 22.015625 12.40625 
L 22.015625 4 
L 14.015625 -11.625 
L 7.71875 -11.625 
L 11.71875 4 
z
" id="DejaVuSans-44"/>
       <path d="M 18.109375 8.203125 
L 18.109375 -20.796875 
L 9.078125 -20.796875 
L 9.078125 54.6875 
L 18.109375 54.6875 
L 18.109375 46.390625 
Q 20.953125 51.265625 25.265625 53.625 
Q 29.59375 56 35.59375 56 
Q 45.5625 56 51.78125 48.09375 
Q 58.015625 40.1875 58.015625 27.296875 
Q 58.015625 14.40625 51.78125 6.484375 
Q 45.5625 -1.421875 35.59375 -1.421875 
Q 29.59375 -1.421875 25.265625 0.953125 
Q 20.953125 3.328125 18.109375 8.203125 
z
M 48.6875 27.296875 
Q 48.6875 37.203125 44.609375 42.84375 
Q 40.53125 48.484375 33.40625 48.484375 
Q 26.265625 48.484375 22.1875 42.84375 
Q 18.109375 37.203125 18.109375 27.296875 
Q 18.109375 17.390625 22.1875 11.75 
Q 26.265625 6.109375 33.40625 6.109375 
Q 40.53125 6.109375 44.609375 11.75 
Q 48.6875 17.390625 48.6875 27.296875 
z
" id="DejaVuSans-112"/>
      </defs>
      <use xlink:href="#DejaVuSans-70"/>
      <use x="50.269531" xlink:href="#DejaVuSans-114"/>
      <use x="91.382812" xlink:href="#DejaVuSans-97"/>
      <use x="152.662109" xlink:href="#DejaVuSans-99"/>
      <use x="207.642578" xlink:href="#DejaVuSans-116"/>
      <use x="246.851562" xlink:href="#DejaVuSans-105"/>
      <use x="274.634766" xlink:href="#DejaVuSans-111"/>
      <use x="335.816406" xlink:href="#DejaVuSans-110"/>
      <use x="399.195312" xlink:href="#DejaVuSans-32"/>
      <use x="430.982422" xlink:href="#DejaVuSans-111"/>
      <use x="492.164062" xlink:href="#DejaVuSans-102"/>
      <use x="527.369141" xlink:href="#DejaVuSans-32"/>
      <use x="559.15625" xlink:href="#DejaVuSans-102"/>
      <use x="594.361328" xlink:href="#DejaVuSans-117"/>
      <use x="657.740234" xlink:href="#DejaVuSans-110"/>
      <use x="721.119141" xlink:href="#DejaVuSans-99"/>
      <use x="776.099609" xlink:href="#DejaVuSans-116"/>
      <use x="815.308594" xlink:href="#DejaVuSans-105"/>
      <use x="843.091797" xlink:href="#DejaVuSans-111"/>
      <use x="904.273438" xlink:href="#DejaVuSans-110"/>
      <use x="967.652344" xlink:href="#DejaVuSans-44"/>
      <use x="999.439453" xlink:href="#DejaVuSans-116"/>
      <use x="1038.648438" xlink:href="#DejaVuSans-97"/>
      <use x="1099.927734" xlink:href="#DejaVuSans-114"/>
      <use x="1139.291016" xlink:href="#DejaVuSans-103"/>
      <use x="1202.767578" xlink:href="#DejaVuSans-101"/>
      <use x="1264.291016" xlink:href="#DejaVuSans-116"/>
      <use x="1303.5" xlink:href="#DejaVuSans-32"/>
      <use x="1335.287109" xlink:href="#DejaVuSans-112"/>
      <use x="1398.763672" xlink:href="#DejaVuSans-97"/>
      <use x="1460.042969" xlink:href="#DejaVuSans-105"/>
      <use x="1487.826172" xlink:href="#DejaVuSans-114"/>
      <use x="1528.939453" xlink:href="#DejaVuSans-115"/>
     </g>
    </g>
   </g>
   <g id="line2d_33">
    <defs>
     <path d="M 0 1.5 
C 0.397805 1.5 0.77937 1.341951 1.06066 1.06066 
C 1.341951 0.77937 1.5 0.397805 1.5 0 
C 1.5 -0.397805 1.341951 -0.77937 1.06066 -1.06066 
C 0.77937 -1.341951 0.397805 -1.5 0 -1.5 
C -0.397805 -1.5 -0.77937 -1.341951 -1.06066 -1.06066 
C -1.341951 -0.77937 -1.5 -0.397805 -1.5 0 
C -1.5 0.397805 -1.341951 0.77937 -1.06066 1.06066 
C -0.77937 1.341951 -0.397805 1.5 0 1.5 
z
" id="m67178a6415" style="stroke:#f5deb3;"/>
    </defs>
    <g>
     <use style="fill:#f5deb3;stroke:#f5deb3;" x="132.80063" xlink:href="#m67178a6415" y="30.334099"/>
     <use style="fill:#f5deb3;stroke:#f5deb3;" x="132.80063" xlink:href="#m67178a6415" y="30.334099"/>
    </g>
   </g>
   <g id="line2d_34">
    <defs>
     <path d="M 0 1.5 
C 0.397805 1.5 0.77937 1.341951 1.06066 1.06066 
C 1.341951 0.77937 1.5 0.397805 1.5 0 
C 1.5 -0.397805 1.341951 -0.77937 1.06066 -1.06066 
C 0.77937 -1.341951 0.397805 -1.5 0 -1.5 
C -0.397805 -1.5 -0.77937 -1.341951 -1.06066 -1.06066 
C -1.341951 -0.77937 -1.5 -0.397805 -1.5 0 
C -1.5 0.397805 -1.341951 0.77937 -1.06066 1.06066 
C -0.77937 1.341951 -0.397805 1.5 0 1.5 
z
" id="mde0ddbbcda" style="stroke:#000080;"/>
    </defs>
    <g>
     <use style="fill:#000080;stroke:#000080;" x="167.898523" xlink:href="#mde0ddbbcda" y="30.334099"/>
     <use style="fill:#000080;stroke:#000080;" x="167.898523" xlink:href="#mde0ddbbcda" y="30.334099"/>
    </g>
   </g>
   <g id="line2d_35">
    <path d="M 100.641881 298.944 
L 100.641881 298.417314 
L 101.785851 298.417314 
L 101.785851 296.837256 
L 103.117741 296.837256 
L 103.117741 296.31057 
L 103.870632 296.31057 
L 103.870632 295.257197 
L 105.285403 295.257197 
L 105.285403 294.730511 
L 105.732589 294.730511 
L 105.732589 294.203825 
L 108.577836 294.203825 
L 108.577836 293.677139 
L 108.764355 293.677139 
L 108.764355 293.150453 
L 110.188761 293.150453 
L 110.188761 292.623767 
L 111.023335 292.623767 
L 111.023335 292.097081 
L 112.128456 292.097081 
L 112.128456 291.570395 
L 112.431755 291.570395 
L 112.431755 289.990337 
L 112.877038 289.990337 
L 112.877038 288.936964 
L 114.0117 288.936964 
L 114.0117 287.883592 
L 114.418861 287.883592 
L 114.418861 282.616732 
L 115.205729 282.616732 
L 115.205729 281.563359 
L 116.914437 281.563359 
L 116.914437 280.509987 
L 118.039942 280.509987 
L 118.039942 279.456615 
L 118.786692 279.456615 
L 118.786692 278.403243 
L 119.40226 278.403243 
L 119.40226 277.349871 
L 120.759333 277.349871 
L 120.759333 276.296499 
L 121.310093 276.296499 
L 121.310093 275.769812 
L 121.489881 275.769812 
L 121.489881 275.243126 
L 121.931406 275.243126 
L 121.931406 274.71644 
L 122.362027 274.71644 
L 122.362027 273.663068 
L 123.029641 273.663068 
L 123.029641 271.556324 
L 124.292765 271.556324 
L 124.368753 269.976266 
L 124.743806 269.976266 
L 124.743806 269.449579 
L 125.541584 269.449579 
L 125.541584 268.922893 
L 126.372183 268.922893 
L 126.372183 268.396207 
L 126.573795 268.396207 
L 126.573795 267.869521 
L 126.773103 267.869521 
L 126.773103 267.342835 
L 127.421479 267.342835 
L 127.421479 266.816149 
L 127.736845 266.816149 
L 127.736845 266.289463 
L 127.985095 266.289463 
L 128.046609 264.709405 
L 128.350967 264.709405 
L 128.350967 264.182719 
L 128.590686 264.182719 
L 128.590686 262.60266 
L 131.439773 262.60266 
L 131.439773 262.075974 
L 132.374684 262.075974 
L 132.374684 261.549288 
L 132.659801 261.549288 
L 132.659801 260.495916 
L 133.216421 260.495916 
L 133.262014 259.442544 
L 133.352844 259.442544 
L 133.352844 258.915858 
L 135.321124 258.915858 
L 135.321124 258.389172 
L 135.956794 258.389172 
L 135.956794 257.862486 
L 136.150782 257.862486 
L 136.150782 257.3358 
L 137.770782 257.3358 
L 137.770782 256.809114 
L 138.392446 256.809114 
L 138.392446 255.755741 
L 138.69516 255.755741 
L 138.69516 255.229055 
L 139.220677 255.229055 
L 139.220677 254.702369 
L 139.445704 254.702369 
L 139.445704 253.648997 
L 139.69937 253.648997 
L 139.69937 253.122311 
L 140.499195 253.122311 
L 140.499195 252.595625 
L 141.032186 252.595625 
L 141.032186 252.068939 
L 141.858037 252.068939 
L 141.858037 251.542253 
L 142.324576 251.542253 
L 142.324576 251.015567 
L 143.014805 251.015567 
L 143.066785 249.962195 
L 143.40093 249.962195 
L 143.40093 249.435508 
L 143.75376 249.435508 
L 143.75376 248.908822 
L 144.342484 248.908822 
L 144.390658 247.85545 
L 144.582038 247.85545 
L 144.582038 247.328764 
L 144.724207 247.328764 
L 144.818346 246.275392 
L 144.91198 246.275392 
L 144.91198 245.748706 
L 146.06373 245.748706 
L 146.06373 245.22202 
L 146.665144 245.22202 
L 146.686244 244.168648 
L 146.875005 244.168648 
L 146.875005 243.641962 
L 147.205618 243.641962 
L 147.205618 243.115275 
L 147.449528 243.115275 
L 147.4697 242.061903 
L 147.670154 242.061903 
L 147.670154 241.535217 
L 148.1808 241.535217 
L 148.1808 241.008531 
L 148.506778 241.008531 
L 148.506778 240.481845 
L 148.993835 240.481845 
L 148.993835 239.955159 
L 149.232356 239.955159 
L 149.305096 238.901787 
L 149.539426 238.901787 
L 149.610898 237.848415 
L 149.788308 237.848415 
L 149.788308 237.321729 
L 150.412445 237.321729 
L 150.412445 236.268356 
L 150.816462 236.268356 
L 150.882897 235.214984 
L 151.080698 235.214984 
L 151.146137 234.161612 
L 151.260066 234.161612 
L 151.260066 233.634926 
L 151.549655 233.634926 
L 151.549655 233.10824 
L 151.897188 233.10824 
L 151.944047 232.054868 
L 152.068392 232.054868 
L 152.068392 231.528182 
L 152.191856 231.528182 
L 152.237931 230.47481 
L 152.344968 230.47481 
L 152.344968 229.948123 
L 152.781537 229.948123 
L 152.781537 229.421437 
L 152.900071 229.421437 
L 152.973748 228.368065 
L 153.207444 228.368065 
L 153.207444 227.841379 
L 153.495227 227.841379 
L 153.566437 225.734635 
L 153.665645 225.734635 
L 153.665645 225.207949 
L 153.778339 225.207949 
L 153.806399 224.154577 
L 153.973817 224.154577 
L 153.973817 223.101204 
L 154.180855 223.101204 
L 154.290278 220.467774 
L 154.46664 220.467774 
L 154.57429 218.36103 
L 154.627867 218.36103 
L 154.667942 217.307658 
L 154.761093 217.307658 
L 154.761093 216.780971 
L 154.906477 216.780971 
L 154.93278 215.200913 
L 155.0376 215.200913 
L 155.0376 214.674227 
L 155.322646 214.674227 
L 155.373976 213.620855 
L 155.437927 213.620855 
L 155.539762 210.460738 
L 155.603109 210.460738 
L 155.666226 208.353994 
L 155.891575 208.353994 
L 155.966049 206.24725 
L 156.040206 206.24725 
L 156.150854 204.667192 
L 156.187581 204.667192 
L 156.297301 203.087133 
L 156.30945 203.087133 
L 156.418408 202.033761 
L 156.502685 202.033761 
L 156.526689 200.980389 
L 156.670026 200.980389 
L 156.753099 199.400331 
L 157.011638 199.400331 
L 157.104709 196.7669 
L 157.243392 196.7669 
L 157.346685 193.606784 
L 157.380981 193.606784 
L 157.380981 193.080098 
L 157.517493 193.080098 
L 157.61918 191.50004 
L 157.697862 191.50004 
L 157.787352 187.813237 
L 157.854169 187.813237 
L 157.964965 185.706493 
L 158.031107 185.706493 
L 158.118907 183.073062 
L 158.228039 183.073062 
L 158.260646 181.493004 
L 158.379686 181.493004 
L 158.487203 179.912946 
L 158.51933 179.912946 
L 158.562073 178.332888 
L 158.647247 178.332888 
L 158.753132 175.699457 
L 158.774233 175.699457 
L 158.83738 174.119399 
L 158.889829 174.119399 
L 158.994256 171.485969 
L 159.004665 171.485969 
L 159.098062 170.432596 
L 159.129083 170.432596 
L 159.221818 167.799166 
L 159.314063 167.799166 
L 159.314063 167.27248 
L 159.507213 167.27248 
L 159.567767 163.585677 
L 159.797958 163.585677 
L 159.887213 160.952247 
L 159.985851 160.952247 
L 160.064363 157.79213 
L 160.142522 157.79213 
L 160.200913 155.1587 
L 160.31711 155.1587 
L 160.394148 152.52527 
L 160.489968 152.52527 
L 160.594766 146.731723 
L 160.651664 146.731723 
L 160.717812 145.151665 
L 160.802491 145.151665 
L 160.886762 143.04492 
L 160.961329 143.04492 
L 161.06334 138.304745 
L 161.100288 138.304745 
L 161.164758 136.198001 
L 161.21983 136.198001 
L 161.311231 132.511199 
L 161.347658 132.511199 
L 161.447441 126.190966 
L 161.492608 126.190966 
L 161.582595 123.557535 
L 161.618459 123.557535 
L 161.681046 119.870733 
L 161.787817 119.870733 
L 161.876297 118.817361 
L 161.937967 118.817361 
L 161.990653 115.657244 
L 162.060656 115.657244 
L 162.112973 111.443755 
L 162.199823 111.443755 
L 162.29486 109.863697 
L 162.491916 109.863697 
L 162.602318 104.07015 
L 162.661478 104.07015 
L 162.762429 99.856662 
L 162.821048 99.856662 
L 162.912768 98.276603 
L 162.9377 98.276603 
L 163.020547 94.063115 
L 163.078306 94.063115 
L 163.127663 92.483056 
L 163.217788 92.483056 
L 163.323704 90.902998 
L 163.331824 90.902998 
L 163.388564 89.849626 
L 163.453184 89.849626 
L 163.517565 85.109451 
L 163.66156 85.109451 
L 163.7569 82.476021 
L 163.835954 82.476021 
L 163.851722 80.895963 
L 163.992995 80.895963 
L 164.078769 73.522358 
L 164.109855 73.522358 
L 164.195057 71.415613 
L 164.310575 71.415613 
L 164.417705 68.782183 
L 164.432956 68.782183 
L 164.516598 65.09538 
L 164.652607 65.09538 
L 164.757663 61.408578 
L 164.787563 61.408578 
L 164.884386 60.355206 
L 164.906654 60.355206 
L 165.00282 54.034973 
L 165.047026 54.034973 
L 165.09112 52.454914 
L 165.164364 52.454914 
L 165.222738 50.34817 
L 165.309935 50.34817 
L 165.396698 46.134681 
L 165.461488 46.134681 
L 165.461488 45.607995 
L 165.753633 45.607995 
L 165.831189 43.501251 
L 165.97132 43.501251 
L 166.047915 41.394507 
L 166.158729 41.394507 
L 166.24825 39.287762 
L 166.493781 39.287762 
L 166.561376 38.23439 
L 166.608536 38.23439 
L 166.702476 36.654332 
L 166.81587 36.654332 
L 166.88223 35.60096 
L 167.06015 35.60096 
L 167.06015 35.074274 
L 167.236273 35.074274 
L 167.249248 34.020902 
L 167.429901 34.020902 
L 167.429901 31.914157 
L 167.785687 31.914157 
L 167.785687 30.860785 
L 167.898523 30.860785 
L 167.898523 30.334099 
L 338.688 30.334099 
L 338.688 30.334099 
" style="fill:none;stroke:#000080;stroke-linecap:square;stroke-width:1.5;"/>
   </g>
   <g id="line2d_36">
    <defs>
     <path d="M 0 6 
C 1.591219 6 3.117479 5.367802 4.242641 4.242641 
C 5.367802 3.117479 6 1.591219 6 0 
C 6 -1.591219 5.367802 -3.117479 4.242641 -4.242641 
C 3.117479 -5.367802 1.591219 -6 0 -6 
C -1.591219 -6 -3.117479 -5.367802 -4.242641 -4.242641 
C -5.367802 -3.117479 -6 -1.591219 -6 0 
C -6 1.591219 -5.367802 3.117479 -4.242641 4.242641 
C -3.117479 5.367802 -1.591219 6 0 6 
z
" id="m1308f3d476" style="stroke:#000080;stroke-width:1.5;"/>
    </defs>
    <g>
     <use style="fill-opacity:0;stroke:#000080;stroke-width:1.5;" x="161.672119" xlink:href="#m1308f3d476" y="121.977477"/>
     <use style="fill-opacity:0;stroke:#000080;stroke-width:1.5;" x="167.898523" xlink:href="#m1308f3d476" y="30.860785"/>
     <use style="fill-opacity:0;stroke:#000080;stroke-width:1.5;" x="167.898523" xlink:href="#m1308f3d476" y="30.334099"/>
     <use style="fill-opacity:0;stroke:#000080;stroke-width:1.5;" x="167.898523" xlink:href="#m1308f3d476" y="30.334099"/>
     <use style="fill-opacity:0;stroke:#000080;stroke-width:1.5;" x="338.688" xlink:href="#m1308f3d476" y="30.334099"/>
    </g>
   </g>
   <g id="line2d_37">
    <path style="fill:none;stroke:#000080;stroke-linecap:square;stroke-width:1.5;"/>
    <g/>
   </g>
   <g id="line2d_38">
    <defs>
     <path d="M 0 1.5 
C 0.397805 1.5 0.77937 1.341951 1.06066 1.06066 
C 1.341951 0.77937 1.5 0.397805 1.5 0 
C 1.5 -0.397805 1.341951 -0.77937 1.06066 -1.06066 
C 0.77937 -1.341951 0.397805 -1.5 0 -1.5 
C -0.397805 -1.5 -0.77937 -1.341951 -1.06066 -1.06066 
C -1.341951 -0.77937 -1.5 -0.397805 -1.5 0 
C -1.5 0.397805 -1.341951 0.77937 -1.06066 1.06066 
C -0.77937 1.341951 -0.397805 1.5 0 1.5 
z
" id="m5ca04ccac3" style="stroke:#ff00ff;"/>
    </defs>
    <g>
     <use style="fill:#ff00ff;stroke:#ff00ff;" x="323.675145" xlink:href="#m5ca04ccac3" y="30.334099"/>
     <use style="fill:#ff00ff;stroke:#ff00ff;" x="323.675145" xlink:href="#m5ca04ccac3" y="30.334099"/>
    </g>
   </g>
   <g id="line2d_39">
    <path d="M 126.304457 298.944 
L 126.304457 297.890628 
L 129.002426 297.890628 
L 129.002426 296.837256 
L 131.590764 296.837256 
L 131.590764 296.31057 
L 133.032848 296.31057 
L 133.032848 295.257197 
L 133.844123 295.257197 
L 133.844123 294.730511 
L 134.745246 294.730511 
L 134.745246 293.150453 
L 135.641855 293.150453 
L 135.641855 292.623767 
L 136.150782 292.623767 
L 136.150782 292.097081 
L 137.162581 292.097081 
L 137.162581 291.570395 
L 139.155847 291.570395 
L 139.155847 289.990337 
L 141.061324 289.990337 
L 141.061324 289.463651 
L 141.492656 289.463651 
L 141.492656 288.936964 
L 141.80232 288.936964 
L 141.858037 286.83022 
L 142.619936 286.83022 
L 142.619936 286.303534 
L 142.857929 286.303534 
L 142.857929 285.776848 
L 143.60342 285.776848 
L 143.60342 285.250162 
L 144.124035 285.250162 
L 144.148442 284.19679 
L 145.166911 284.19679 
L 145.166911 283.670104 
L 145.821666 283.670104 
L 145.821666 283.143418 
L 146.107383 283.143418 
L 146.150926 282.090045 
L 146.302479 282.090045 
L 146.302479 281.036673 
L 147.205618 281.036673 
L 147.205618 278.929929 
L 147.388869 278.929929 
L 147.388869 278.403243 
L 147.590249 278.403243 
L 147.590249 277.876557 
L 148.449693 277.876557 
L 148.449693 276.823185 
L 149.177602 276.823185 
L 149.177602 276.296499 
L 150.91602 276.296499 
L 150.91602 275.243126 
L 151.292481 275.243126 
L 151.292481 274.71644 
L 151.533692 274.71644 
L 151.533692 274.189754 
L 151.692666 274.189754 
L 151.771612 272.08301 
L 151.850203 272.08301 
L 151.850203 271.556324 
L 152.191856 271.556324 
L 152.191856 269.976266 
L 152.781537 269.976266 
L 152.840905 268.922893 
L 153.722083 268.922893 
L 153.722083 268.396207 
L 154.507086 268.396207 
L 154.507086 267.869521 
L 154.800864 267.869521 
L 154.800864 267.342835 
L 155.28405 267.342835 
L 155.28405 266.816149 
L 155.577798 266.816149 
L 155.577798 266.289463 
L 156.550661 266.289463 
L 156.550661 265.762777 
L 156.800392 265.762777 
L 156.800392 265.236091 
L 157.506157 265.236091 
L 157.506157 264.709405 
L 157.675417 264.709405 
L 157.675417 264.182719 
L 157.798506 264.182719 
L 157.798506 263.656033 
L 158.347301 263.656033 
L 158.444276 262.60266 
L 158.879352 262.60266 
L 158.921223 261.549288 
L 159.897102 261.549288 
L 159.897102 261.022602 
L 160.924085 261.022602 
L 160.924085 259.96923 
L 162.644595 259.96923 
L 162.644595 259.442544 
L 162.854457 259.442544 
L 162.854457 258.915858 
L 163.764822 258.915858 
L 163.764822 258.389172 
L 165.367825 258.389172 
L 165.367825 257.862486 
L 167.973343 257.862486 
L 167.973343 257.3358 
L 168.300012 257.3358 
L 168.300012 256.809114 
L 168.95908 256.809114 
L 168.95908 256.282427 
L 169.565775 256.282427 
L 169.565775 255.755741 
L 170.14658 255.755741 
L 170.14658 255.229055 
L 170.634045 255.229055 
L 170.634045 254.702369 
L 171.925672 254.702369 
L 172.004852 253.648997 
L 172.284043 253.648997 
L 172.284043 253.122311 
L 172.852895 253.122311 
L 172.852895 252.595625 
L 173.742239 252.595625 
L 173.822502 251.542253 
L 173.920102 251.542253 
L 173.920102 251.015567 
L 174.274811 251.015567 
L 174.274811 250.488881 
L 174.774759 250.488881 
L 174.774759 249.962195 
L 175.617599 249.962195 
L 175.701682 248.908822 
L 175.96727 248.908822 
L 175.96727 248.382136 
L 176.759402 248.382136 
L 176.759402 247.85545 
L 177.079739 247.85545 
L 177.079739 247.328764 
L 177.628338 247.328764 
L 177.628338 246.802078 
L 180.62453 246.802078 
L 180.62453 246.275392 
L 181.648084 246.275392 
L 181.648084 245.748706 
L 181.988415 245.748706 
L 181.988415 245.22202 
L 182.275715 245.22202 
L 182.275715 244.695334 
L 182.976549 244.695334 
L 182.976549 244.168648 
L 183.814124 244.168648 
L 183.906693 243.115275 
L 184.502736 243.115275 
L 184.56532 242.061903 
L 184.794473 242.061903 
L 184.794473 241.535217 
L 186.442811 241.535217 
L 186.442811 241.008531 
L 186.678539 241.008531 
L 186.678539 240.481845 
L 188.490389 240.481845 
L 188.499979 239.428473 
L 188.851149 239.428473 
L 188.851149 238.901787 
L 189.904861 238.901787 
L 189.904861 238.375101 
L 192.044795 238.375101 
L 192.044795 237.848415 
L 192.365729 237.848415 
L 192.365729 237.321729 
L 193.255177 237.321729 
L 193.326563 236.268356 
L 193.866238 236.268356 
L 193.866238 235.74167 
L 194.367813 235.74167 
L 194.425242 234.688298 
L 194.860691 234.688298 
L 194.860691 234.161612 
L 197.74755 234.161612 
L 197.74755 233.634926 
L 198.366052 233.634926 
L 198.366052 233.10824 
L 199.585638 233.10824 
L 199.607964 232.054868 
L 199.861674 232.054868 
L 199.861674 231.528182 
L 200.055496 231.528182 
L 200.055496 231.001496 
L 201.805209 231.001496 
L 201.805209 230.47481 
L 201.995503 230.47481 
L 201.995503 229.948123 
L 202.748432 229.948123 
L 202.748432 229.421437 
L 204.740919 229.421437 
L 204.77187 228.368065 
L 204.932533 228.368065 
L 204.932533 227.841379 
L 205.062824 227.841379 
L 205.062824 227.314693 
L 205.902701 227.314693 
L 205.902701 226.788007 
L 207.533262 226.788007 
L 207.533262 226.261321 
L 208.000759 226.261321 
L 208.065195 225.207949 
L 209.735395 225.207949 
L 209.735395 224.681263 
L 210.243138 224.681263 
L 210.243138 224.154577 
L 210.808158 224.154577 
L 210.808158 223.627891 
L 211.033985 223.627891 
L 211.124341 222.574518 
L 212.574516 222.574518 
L 212.574516 222.047832 
L 213.747299 222.047832 
L 213.747299 221.521146 
L 213.864116 221.521146 
L 213.864116 220.99446 
L 214.601492 220.99446 
L 214.601492 220.467774 
L 214.731925 220.467774 
L 214.731925 219.941088 
L 215.561028 219.941088 
L 215.599986 218.887716 
L 216.124666 218.887716 
L 216.124666 218.36103 
L 217.071265 218.36103 
L 217.137827 217.307658 
L 217.665699 217.307658 
L 217.665699 216.780971 
L 218.015413 216.780971 
L 218.015413 216.254285 
L 218.128339 216.254285 
L 218.128339 215.727599 
L 218.288553 215.727599 
L 218.288553 215.200913 
L 219.655337 215.200913 
L 219.655337 214.674227 
L 219.784008 214.674227 
L 219.784008 214.147541 
L 220.331791 214.147541 
L 220.331791 213.620855 
L 220.679977 213.620855 
L 220.679977 213.094169 
L 221.028474 213.094169 
L 221.028474 212.567483 
L 222.234134 212.567483 
L 222.234134 212.040797 
L 223.61759 212.040797 
L 223.61759 211.514111 
L 223.859584 211.514111 
L 223.859584 210.987425 
L 224.232214 210.987425 
L 224.288709 209.934052 
L 224.915245 209.934052 
L 224.915245 209.407366 
L 225.448986 209.407366 
L 225.448986 208.88068 
L 225.683156 208.88068 
L 225.683156 208.353994 
L 226.168163 208.353994 
L 226.168163 207.827308 
L 226.434146 207.827308 
L 226.434146 207.300622 
L 226.687978 207.300622 
L 226.687978 206.773936 
L 228.300739 206.773936 
L 228.300739 206.24725 
L 228.523371 206.24725 
L 228.606444 205.193878 
L 228.809274 205.193878 
L 228.809274 204.667192 
L 229.362052 204.667192 
L 229.362052 204.140506 
L 229.487728 204.140506 
L 229.487728 203.613819 
L 229.752248 203.613819 
L 229.784987 202.560447 
L 229.904807 202.560447 
L 229.904807 202.033761 
L 230.507041 202.033761 
L 230.507041 201.507075 
L 231.036391 201.507075 
L 231.036391 200.980389 
L 231.77029 200.980389 
L 231.784238 199.927017 
L 232.096642 199.927017 
L 232.096642 199.400331 
L 232.388075 199.400331 
L 232.388075 198.873645 
L 232.50994 198.873645 
L 232.50994 198.346959 
L 232.891274 198.346959 
L 232.891274 197.820273 
L 233.398193 197.820273 
L 233.398193 197.293586 
L 233.778805 197.293586 
L 233.778805 196.7669 
L 233.913358 196.7669 
L 233.913358 196.240214 
L 234.268421 196.240214 
L 234.268421 195.713528 
L 234.515433 195.713528 
L 234.515433 195.186842 
L 234.804876 195.186842 
L 234.804876 194.660156 
L 235.047646 194.660156 
L 235.115163 193.080098 
L 235.938609 193.080098 
L 235.938609 192.553412 
L 236.155724 192.553412 
L 236.252737 191.50004 
L 236.894425 191.50004 
L 236.898609 190.446667 
L 237.340217 190.446667 
L 237.340217 189.919981 
L 237.452193 189.919981 
L 237.452193 189.393295 
L 237.852809 189.393295 
L 237.852809 188.866609 
L 238.023965 188.866609 
L 238.048039 187.813237 
L 238.367911 187.813237 
L 238.367911 187.286551 
L 238.743417 187.286551 
L 238.743417 186.759865 
L 238.949393 186.759865 
L 238.949393 186.233179 
L 239.168816 186.233179 
L 239.168816 185.706493 
L 239.429916 185.706493 
L 239.429916 185.179807 
L 239.632279 185.179807 
L 239.632279 184.653121 
L 239.783258 184.653121 
L 239.783258 184.126434 
L 240.602664 184.126434 
L 240.602664 183.599748 
L 241.682242 183.599748 
L 241.741646 182.546376 
L 241.815821 182.546376 
L 241.826456 181.493004 
L 242.139077 181.493004 
L 242.139077 180.966318 
L 243.110909 180.966318 
L 243.199991 179.38626 
L 243.278012 179.38626 
L 243.278012 178.859574 
L 243.915681 178.859574 
L 243.915681 178.332888 
L 244.537179 178.332888 
L 244.537179 177.806202 
L 244.846788 177.806202 
L 244.846788 177.279515 
L 245.310357 177.279515 
L 245.310357 176.752829 
L 245.782402 176.752829 
L 245.782402 176.226143 
L 245.962227 176.226143 
L 245.962227 175.699457 
L 246.379257 175.699457 
L 246.487251 174.646085 
L 246.532712 174.646085 
L 246.615681 172.539341 
L 246.688442 172.539341 
L 246.794748 171.485969 
L 247.038344 171.485969 
L 247.038344 170.959282 
L 247.237407 170.959282 
L 247.237407 170.432596 
L 247.449242 170.432596 
L 247.465682 169.379224 
L 247.702912 169.379224 
L 247.702912 168.852538 
L 247.851384 168.852538 
L 247.930419 167.799166 
L 248.45822 167.799166 
L 248.504665 166.745794 
L 248.786874 166.745794 
L 248.813934 165.165736 
L 248.915157 165.165736 
L 248.915157 164.63905 
L 249.052508 164.63905 
L 249.058222 163.585677 
L 249.224251 163.585677 
L 249.224251 163.058991 
L 249.739007 163.058991 
L 249.739007 162.532305 
L 249.903245 162.532305 
L 249.903245 162.005619 
L 250.492062 162.005619 
L 250.54417 160.425561 
L 250.625525 160.425561 
L 250.625525 159.898875 
L 250.778208 159.898875 
L 250.778208 158.845503 
L 251.070874 158.845503 
L 251.070874 158.318817 
L 251.34175 158.318817 
L 251.34175 157.79213 
L 251.459194 157.79213 
L 251.459194 157.265444 
L 252.526252 157.265444 
L 252.591158 155.685386 
L 252.934383 155.685386 
L 252.934383 155.1587 
L 253.220521 155.1587 
L 253.287709 153.578642 
L 253.423445 153.578642 
L 253.465561 152.52527 
L 253.646924 152.52527 
L 253.646924 151.998584 
L 253.796693 151.998584 
L 253.796693 150.945211 
L 253.958762 150.945211 
L 254.036328 149.891839 
L 254.431928 149.891839 
L 254.512516 147.785095 
L 254.664213 147.785095 
L 254.664213 147.258409 
L 255.009247 147.258409 
L 255.009247 146.731723 
L 255.425838 146.731723 
L 255.425838 146.205037 
L 255.596069 146.205037 
L 255.596069 145.678351 
L 255.764655 145.678351 
L 255.843602 144.098292 
L 256.58428 144.098292 
L 256.58428 143.571606 
L 256.860323 143.571606 
L 256.860323 143.04492 
L 257.012119 143.04492 
L 257.012119 142.518234 
L 257.89461 142.518234 
L 257.898518 141.464862 
L 258.125607 141.464862 
L 258.125607 140.938176 
L 258.520427 140.938176 
L 258.520427 140.41149 
L 259.501002 140.41149 
L 259.501002 139.884804 
L 259.722033 139.884804 
L 259.739525 138.831432 
L 260.030816 138.831432 
L 260.030816 138.304745 
L 260.31395 138.304745 
L 260.31395 137.251373 
L 260.679765 137.251373 
L 260.679765 136.724687 
L 260.865914 136.724687 
L 260.865914 136.198001 
L 261.153053 136.198001 
L 261.153053 135.671315 
L 261.589745 135.671315 
L 261.589745 134.617943 
L 261.773052 134.617943 
L 261.811277 133.564571 
L 262.211423 133.564571 
L 262.211423 133.037885 
L 262.331914 133.037885 
L 262.441221 131.457826 
L 262.677436 131.457826 
L 262.677436 130.93114 
L 262.841562 130.93114 
L 262.929095 128.824396 
L 262.969106 128.824396 
L 262.969106 128.29771 
L 263.103147 128.29771 
L 263.18541 126.717652 
L 263.537118 126.717652 
L 263.537118 126.190966 
L 264.251602 126.190966 
L 264.273628 125.137593 
L 264.452067 125.137593 
L 264.452067 124.610907 
L 264.734319 124.610907 
L 264.734319 124.084221 
L 265.280876 124.084221 
L 265.349153 123.030849 
L 266.01385 123.030849 
L 266.01385 122.504163 
L 266.148569 122.504163 
L 266.148569 121.977477 
L 266.713298 121.977477 
L 266.762965 120.924105 
L 266.94338 120.924105 
L 266.964495 119.870733 
L 267.191729 119.870733 
L 267.299834 118.817361 
L 267.57 118.817361 
L 267.654251 117.763988 
L 267.783916 117.763988 
L 267.783916 117.237302 
L 268.095614 117.237302 
L 268.095614 116.710616 
L 268.223974 116.710616 
L 268.267528 115.657244 
L 268.672539 115.657244 
L 268.672539 115.130558 
L 268.938759 115.130558 
L 268.938759 114.603872 
L 269.591729 114.603872 
L 269.591729 114.077186 
L 269.901355 114.077186 
L 269.901355 113.5505 
L 271.311562 113.5505 
L 271.311562 113.023814 
L 271.614561 113.023814 
L 271.614561 112.497128 
L 272.067098 112.497128 
L 272.067098 111.970441 
L 272.266593 111.970441 
L 272.266593 111.443755 
L 272.378404 111.443755 
L 272.487438 108.810325 
L 272.615291 108.810325 
L 272.615291 108.283639 
L 272.839813 108.283639 
L 272.839813 107.230267 
L 272.987738 107.230267 
L 273.086378 105.650209 
L 273.931804 105.650209 
L 273.931804 105.123522 
L 274.166718 105.123522 
L 274.166718 104.07015 
L 274.907058 104.07015 
L 274.907058 103.543464 
L 275.351612 103.543464 
L 275.423506 102.490092 
L 275.491013 102.490092 
L 275.491013 101.963406 
L 275.812344 101.963406 
L 275.837571 100.910034 
L 275.947247 100.910034 
L 276.04754 99.856662 
L 276.281506 99.856662 
L 276.281506 99.329976 
L 276.40303 99.329976 
L 276.484167 98.276603 
L 277.09291 98.276603 
L 277.09291 97.749917 
L 277.378065 97.749917 
L 277.452709 96.169859 
L 278.629321 96.169859 
L 278.629321 95.643173 
L 278.757559 95.643173 
L 278.778868 94.063115 
L 278.956415 94.063115 
L 279.033748 92.483056 
L 279.185277 92.483056 
L 279.185277 91.95637 
L 279.721635 91.95637 
L 279.721635 91.429684 
L 280.9409 91.429684 
L 280.99311 90.376312 
L 281.10559 90.376312 
L 281.204251 87.742882 
L 281.2765 87.742882 
L 281.294945 86.68951 
L 281.408574 86.68951 
L 281.485343 85.636137 
L 281.564959 85.636137 
L 281.655407 83.529393 
L 281.710255 83.529393 
L 281.77014 81.949335 
L 281.935765 81.949335 
L 281.935765 81.422649 
L 282.490575 81.422649 
L 282.490575 80.895963 
L 283.270731 80.895963 
L 283.379354 78.262532 
L 283.780849 78.262532 
L 283.885057 77.20916 
L 284.191908 77.20916 
L 284.191908 76.682474 
L 284.50194 76.682474 
L 284.50194 76.155788 
L 285.445409 76.155788 
L 285.445409 75.629102 
L 285.619719 75.629102 
L 285.658584 74.57573 
L 286.986196 74.57573 
L 286.986196 74.049044 
L 287.187643 74.049044 
L 287.200787 72.995672 
L 287.458461 72.995672 
L 287.518147 71.415613 
L 287.903817 71.415613 
L 287.903817 70.888927 
L 288.706421 70.888927 
L 288.706421 70.362241 
L 288.971626 70.362241 
L 288.971626 69.835555 
L 289.085376 69.835555 
L 289.085376 69.308869 
L 290.179289 69.308869 
L 290.285497 67.728811 
L 290.370706 67.728811 
L 290.370706 66.675439 
L 291.476919 66.675439 
L 291.476919 66.148752 
L 291.835779 66.148752 
L 291.835779 65.622066 
L 292.0466 65.622066 
L 292.0466 65.09538 
L 292.809209 65.09538 
L 292.809209 64.042008 
L 292.995559 64.042008 
L 292.995559 63.515322 
L 293.912263 63.515322 
L 293.912263 62.988636 
L 294.130158 62.988636 
L 294.130158 62.46195 
L 294.501864 62.46195 
L 294.501864 61.935264 
L 294.981583 61.935264 
L 294.981583 61.408578 
L 295.117565 61.408578 
L 295.117565 60.355206 
L 295.265775 60.355206 
L 295.351045 58.775147 
L 296.088744 58.775147 
L 296.167788 56.141717 
L 296.262874 56.141717 
L 296.262874 55.615031 
L 297.017749 55.615031 
L 297.017749 55.088345 
L 297.165262 55.088345 
L 297.165262 54.561659 
L 297.299723 54.561659 
L 297.299723 53.508287 
L 297.951953 53.508287 
L 297.951953 52.9816 
L 298.867777 52.9816 
L 298.970926 51.928228 
L 299.244574 51.928228 
L 299.244574 51.401542 
L 299.801165 51.401542 
L 299.824604 49.294798 
L 300.0363 49.294798 
L 300.0363 48.768112 
L 300.15174 48.768112 
L 300.15174 48.241426 
L 301.30274 48.241426 
L 301.373164 46.661368 
L 301.991912 46.661368 
L 302.078184 45.607995 
L 302.141763 45.607995 
L 302.141763 45.081309 
L 302.836685 45.081309 
L 302.852984 43.501251 
L 304.063217 43.501251 
L 304.063217 42.974565 
L 304.296362 42.974565 
L 304.296362 42.447879 
L 304.608468 42.447879 
L 304.608468 41.921193 
L 305.253971 41.921193 
L 305.253971 41.394507 
L 305.382781 41.394507 
L 305.382781 40.867821 
L 305.786005 40.867821 
L 305.88717 38.761076 
L 307.03127 38.761076 
L 307.03127 38.23439 
L 307.467932 38.23439 
L 307.467932 37.707704 
L 307.982632 37.707704 
L 307.992625 36.654332 
L 308.55145 36.654332 
L 308.55145 36.127646 
L 310.417973 36.127646 
L 310.417973 35.60096 
L 311.319184 35.60096 
L 311.319184 35.074274 
L 311.693404 35.074274 
L 311.693404 34.547588 
L 312.045085 34.547588 
L 312.045085 34.020902 
L 312.43457 34.020902 
L 312.43457 33.494215 
L 312.881879 33.494215 
L 312.881879 32.967529 
L 313.232868 32.967529 
L 313.232868 32.440843 
L 313.648134 32.440843 
L 313.648134 31.914157 
L 314.029291 31.914157 
L 314.029291 31.387471 
L 316.046425 31.387471 
L 316.046425 30.860785 
L 323.675145 30.860785 
L 323.675145 30.334099 
L 338.688 30.334099 
L 338.688 30.334099 
" style="fill:none;stroke:#ff00ff;stroke-linecap:square;stroke-width:1.5;"/>
   </g>
   <g id="line2d_40">
    <defs>
     <path d="M -0 8.485281 
L 5.091169 0 
L 0 -8.485281 
L -5.091169 -0 
z
" id="m27d2ce403c" style="stroke:#ff00ff;stroke-linejoin:miter;stroke-width:1.5;"/>
    </defs>
    <g>
     <use style="fill-opacity:0;stroke:#ff00ff;stroke-linejoin:miter;stroke-width:1.5;" x="198.366052" xlink:href="#m27d2ce403c" y="233.10824"/>
     <use style="fill-opacity:0;stroke:#ff00ff;stroke-linejoin:miter;stroke-width:1.5;" x="252.591158" xlink:href="#m27d2ce403c" y="156.212072"/>
     <use style="fill-opacity:0;stroke:#ff00ff;stroke-linejoin:miter;stroke-width:1.5;" x="296.088744" xlink:href="#m27d2ce403c" y="58.775147"/>
     <use style="fill-opacity:0;stroke:#ff00ff;stroke-linejoin:miter;stroke-width:1.5;" x="323.675145" xlink:href="#m27d2ce403c" y="30.334099"/>
     <use style="fill-opacity:0;stroke:#ff00ff;stroke-linejoin:miter;stroke-width:1.5;" x="338.688" xlink:href="#m27d2ce403c" y="30.334099"/>
    </g>
   </g>
   <g id="line2d_41">
    <path style="fill:none;stroke:#ff00ff;stroke-linecap:square;stroke-width:1.5;"/>
    <g/>
   </g>
   <g id="line2d_42">
    <path clip-path="url(#p14f06736bb)" d="M 246.289154 175.699457 
" style="fill:none;stroke:#ff00ff;stroke-linecap:square;stroke-width:1.5;"/>
    <defs>
     <path d="M -12 12 
L 12 -12 
M -12 -12 
L 12 12 
" id="mfa758e0843" style="stroke:#ff00ff;"/>
    </defs>
    <g clip-path="url(#p14f06736bb)">
     <use style="fill:#ff00ff;stroke:#ff00ff;" x="246.289154" xlink:href="#mfa758e0843" y="175.699457"/>
    </g>
   </g>
   <g id="line2d_43">
    <path d="M 338.688 30.334099 
L 369.60768 293.571802 
" style="fill:none;stroke:#ff00ff;stroke-linecap:square;stroke-width:1.5;"/>
    <g>
     <use style="fill-opacity:0;stroke:#ff00ff;stroke-linejoin:miter;stroke-width:1.5;" x="338.688" xlink:href="#m27d2ce403c" y="30.334099"/>
     <use style="fill-opacity:0;stroke:#ff00ff;stroke-linejoin:miter;stroke-width:1.5;" x="369.60768" xlink:href="#m27d2ce403c" y="293.571802"/>
    </g>
   </g>
   <g id="line2d_44">
    <path d="M 338.688 30.334099 
L 369.60768 164.63905 
" style="fill:none;stroke:#000080;stroke-linecap:square;stroke-width:1.5;"/>
    <g>
     <use style="fill-opacity:0;stroke:#000080;stroke-width:1.5;" x="338.688" xlink:href="#m1308f3d476" y="30.334099"/>
     <use style="fill-opacity:0;stroke:#000080;stroke-width:1.5;" x="369.60768" xlink:href="#m1308f3d476" y="164.63905"/>
    </g>
   </g>
   <g id="line2d_45">
    <path d="M 338.688 298.944 
L 338.688 30.334099 
" style="fill:none;stroke:#000000;stroke-linecap:square;stroke-width:1.5;"/>
   </g>
   <g id="patch_3">
    <path d="M 57.6 298.944 
L 57.6 27.648 
" style="fill:none;stroke:#000000;stroke-linecap:square;stroke-linejoin:miter;stroke-width:0.8;"/>
   </g>
   <g id="patch_4">
    <path d="M 338.688 298.944 
L 338.688 27.648 
" style="fill:none;stroke:#000000;stroke-linecap:square;stroke-linejoin:miter;stroke-width:0.8;"/>
   </g>
   <g id="patch_5">
    <path d="M 57.6 298.944 
L 338.688 298.944 
" style="fill:none;stroke:#000000;stroke-linecap:square;stroke-linejoin:miter;stroke-width:0.8;"/>
   </g>
   <g id="patch_6">
    <path d="M 57.6 27.648 
L 338.688 27.648 
" style="fill:none;stroke:#000000;stroke-linecap:square;stroke-linejoin:miter;stroke-width:0.8;"/>
   </g>
   <g id="text_13">
    <!-- PSO -->
    <g transform="translate(375.22944 298.262739)scale(0.17 -0.17)">
     <defs>
      <path d="M 19.671875 64.796875 
L 19.671875 37.40625 
L 32.078125 37.40625 
Q 38.96875 37.40625 42.71875 40.96875 
Q 46.484375 44.53125 46.484375 51.125 
Q 46.484375 57.671875 42.71875 61.234375 
Q 38.96875 64.796875 32.078125 64.796875 
z
M 9.8125 72.90625 
L 32.078125 72.90625 
Q 44.34375 72.90625 50.609375 67.359375 
Q 56.890625 61.8125 56.890625 51.125 
Q 56.890625 40.328125 50.609375 34.8125 
Q 44.34375 29.296875 32.078125 29.296875 
L 19.671875 29.296875 
L 19.671875 0 
L 9.8125 0 
z
" id="DejaVuSans-80"/>
      <path d="M 53.515625 70.515625 
L 53.515625 60.890625 
Q 47.90625 63.578125 42.921875 64.890625 
Q 37.9375 66.21875 33.296875 66.21875 
Q 25.25 66.21875 20.875 63.09375 
Q 16.5 59.96875 16.5 54.203125 
Q 16.5 49.359375 19.40625 46.890625 
Q 22.3125 44.4375 30.421875 42.921875 
L 36.375 41.703125 
Q 47.40625 39.59375 52.65625 34.296875 
Q 57.90625 29 57.90625 20.125 
Q 57.90625 9.515625 50.796875 4.046875 
Q 43.703125 -1.421875 29.984375 -1.421875 
Q 24.8125 -1.421875 18.96875 -0.25 
Q 13.140625 0.921875 6.890625 3.21875 
L 6.890625 13.375 
Q 12.890625 10.015625 18.65625 8.296875 
Q 24.421875 6.59375 29.984375 6.59375 
Q 38.421875 6.59375 43.015625 9.90625 
Q 47.609375 13.234375 47.609375 19.390625 
Q 47.609375 24.75 44.3125 27.78125 
Q 41.015625 30.8125 33.5 32.328125 
L 27.484375 33.5 
Q 16.453125 35.6875 11.515625 40.375 
Q 6.59375 45.0625 6.59375 53.421875 
Q 6.59375 63.09375 13.40625 68.65625 
Q 20.21875 74.21875 32.171875 74.21875 
Q 37.3125 74.21875 42.625 73.28125 
Q 47.953125 72.359375 53.515625 70.515625 
z
" id="DejaVuSans-83"/>
      <path d="M 39.40625 66.21875 
Q 28.65625 66.21875 22.328125 58.203125 
Q 16.015625 50.203125 16.015625 36.375 
Q 16.015625 22.609375 22.328125 14.59375 
Q 28.65625 6.59375 39.40625 6.59375 
Q 50.140625 6.59375 56.421875 14.59375 
Q 62.703125 22.609375 62.703125 36.375 
Q 62.703125 50.203125 56.421875 58.203125 
Q 50.140625 66.21875 39.40625 66.21875 
z
M 39.40625 74.21875 
Q 54.734375 74.21875 63.90625 63.9375 
Q 73.09375 53.65625 73.09375 36.375 
Q 73.09375 19.140625 63.90625 8.859375 
Q 54.734375 -1.421875 39.40625 -1.421875 
Q 24.03125 -1.421875 14.8125 8.828125 
Q 5.609375 19.09375 5.609375 36.375 
Q 5.609375 53.65625 14.8125 63.9375 
Q 24.03125 74.21875 39.40625 74.21875 
z
" id="DejaVuSans-79"/>
     </defs>
     <use xlink:href="#DejaVuSans-80"/>
     <use x="60.302734" xlink:href="#DejaVuSans-83"/>
     <use x="123.779297" xlink:href="#DejaVuSans-79"/>
    </g>
   </g>
   <g id="text_14">
    <!-- BIPOP-CMA -->
    <g transform="translate(375.22944 169.329987)scale(0.17 -0.17)">
     <defs>
      <path d="M 19.671875 34.8125 
L 19.671875 8.109375 
L 35.5 8.109375 
Q 43.453125 8.109375 47.28125 11.40625 
Q 51.125 14.703125 51.125 21.484375 
Q 51.125 28.328125 47.28125 31.5625 
Q 43.453125 34.8125 35.5 34.8125 
z
M 19.671875 64.796875 
L 19.671875 42.828125 
L 34.28125 42.828125 
Q 41.5 42.828125 45.03125 45.53125 
Q 48.578125 48.25 48.578125 53.8125 
Q 48.578125 59.328125 45.03125 62.0625 
Q 41.5 64.796875 34.28125 64.796875 
z
M 9.8125 72.90625 
L 35.015625 72.90625 
Q 46.296875 72.90625 52.390625 68.21875 
Q 58.5 63.53125 58.5 54.890625 
Q 58.5 48.1875 55.375 44.234375 
Q 52.25 40.28125 46.1875 39.3125 
Q 53.46875 37.75 57.5 32.78125 
Q 61.53125 27.828125 61.53125 20.40625 
Q 61.53125 10.640625 54.890625 5.3125 
Q 48.25 0 35.984375 0 
L 9.8125 0 
z
" id="DejaVuSans-66"/>
      <path d="M 9.8125 72.90625 
L 19.671875 72.90625 
L 19.671875 0 
L 9.8125 0 
z
" id="DejaVuSans-73"/>
      <path d="M 64.40625 67.28125 
L 64.40625 56.890625 
Q 59.421875 61.53125 53.78125 63.8125 
Q 48.140625 66.109375 41.796875 66.109375 
Q 29.296875 66.109375 22.65625 58.46875 
Q 16.015625 50.828125 16.015625 36.375 
Q 16.015625 21.96875 22.65625 14.328125 
Q 29.296875 6.6875 41.796875 6.6875 
Q 48.140625 6.6875 53.78125 8.984375 
Q 59.421875 11.28125 64.40625 15.921875 
L 64.40625 5.609375 
Q 59.234375 2.09375 53.4375 0.328125 
Q 47.65625 -1.421875 41.21875 -1.421875 
Q 24.65625 -1.421875 15.125 8.703125 
Q 5.609375 18.84375 5.609375 36.375 
Q 5.609375 53.953125 15.125 64.078125 
Q 24.65625 74.21875 41.21875 74.21875 
Q 47.75 74.21875 53.53125 72.484375 
Q 59.328125 70.75 64.40625 67.28125 
z
" id="DejaVuSans-67"/>
      <path d="M 9.8125 72.90625 
L 24.515625 72.90625 
L 43.109375 23.296875 
L 61.8125 72.90625 
L 76.515625 72.90625 
L 76.515625 0 
L 66.890625 0 
L 66.890625 64.015625 
L 48.09375 14.015625 
L 38.1875 14.015625 
L 19.390625 64.015625 
L 19.390625 0 
L 9.8125 0 
z
" id="DejaVuSans-77"/>
      <path d="M 34.1875 63.1875 
L 20.796875 26.90625 
L 47.609375 26.90625 
z
M 28.609375 72.90625 
L 39.796875 72.90625 
L 67.578125 0 
L 57.328125 0 
L 50.6875 18.703125 
L 17.828125 18.703125 
L 11.1875 0 
L 0.78125 0 
z
" id="DejaVuSans-65"/>
     </defs>
     <use xlink:href="#DejaVuSans-66"/>
     <use x="68.603516" xlink:href="#DejaVuSans-73"/>
     <use x="98.095703" xlink:href="#DejaVuSans-80"/>
     <use x="158.398438" xlink:href="#DejaVuSans-79"/>
     <use x="237.109375" xlink:href="#DejaVuSans-80"/>
     <use x="295.162109" xlink:href="#DejaVuSans-45"/>
     <use x="331.246094" xlink:href="#DejaVuSans-67"/>
     <use x="401.070312" xlink:href="#DejaVuSans-77"/>
     <use x="487.349609" xlink:href="#DejaVuSans-65"/>
    </g>
   </g>
   <g id="text_15">
    <!-- best 2009 -->
    <g transform="translate(375.22944 40.397235)scale(0.17 -0.17)">
     <defs>
      <path d="M 48.6875 27.296875 
Q 48.6875 37.203125 44.609375 42.84375 
Q 40.53125 48.484375 33.40625 48.484375 
Q 26.265625 48.484375 22.1875 42.84375 
Q 18.109375 37.203125 18.109375 27.296875 
Q 18.109375 17.390625 22.1875 11.75 
Q 26.265625 6.109375 33.40625 6.109375 
Q 40.53125 6.109375 44.609375 11.75 
Q 48.6875 17.390625 48.6875 27.296875 
z
M 18.109375 46.390625 
Q 20.953125 51.265625 25.265625 53.625 
Q 29.59375 56 35.59375 56 
Q 45.5625 56 51.78125 48.09375 
Q 58.015625 40.1875 58.015625 27.296875 
Q 58.015625 14.40625 51.78125 6.484375 
Q 45.5625 -1.421875 35.59375 -1.421875 
Q 29.59375 -1.421875 25.265625 0.953125 
Q 20.953125 3.328125 18.109375 8.203125 
L 18.109375 0 
L 9.078125 0 
L 9.078125 75.984375 
L 18.109375 75.984375 
z
" id="DejaVuSans-98"/>
      <path d="M 10.984375 1.515625 
L 10.984375 10.5 
Q 14.703125 8.734375 18.5 7.8125 
Q 22.3125 6.890625 25.984375 6.890625 
Q 35.75 6.890625 40.890625 13.453125 
Q 46.046875 20.015625 46.78125 33.40625 
Q 43.953125 29.203125 39.59375 26.953125 
Q 35.25 24.703125 29.984375 24.703125 
Q 19.046875 24.703125 12.671875 31.3125 
Q 6.296875 37.9375 6.296875 49.421875 
Q 6.296875 60.640625 12.9375 67.421875 
Q 19.578125 74.21875 30.609375 74.21875 
Q 43.265625 74.21875 49.921875 64.515625 
Q 56.59375 54.828125 56.59375 36.375 
Q 56.59375 19.140625 48.40625 8.859375 
Q 40.234375 -1.421875 26.421875 -1.421875 
Q 22.703125 -1.421875 18.890625 -0.6875 
Q 15.09375 0.046875 10.984375 1.515625 
z
M 30.609375 32.421875 
Q 37.25 32.421875 41.125 36.953125 
Q 45.015625 41.5 45.015625 49.421875 
Q 45.015625 57.28125 41.125 61.84375 
Q 37.25 66.40625 30.609375 66.40625 
Q 23.96875 66.40625 20.09375 61.84375 
Q 16.21875 57.28125 16.21875 49.421875 
Q 16.21875 41.5 20.09375 36.953125 
Q 23.96875 32.421875 30.609375 32.421875 
z
" id="DejaVuSans-57"/>
     </defs>
     <use xlink:href="#DejaVuSans-98"/>
     <use x="63.476562" xlink:href="#DejaVuSans-101"/>
     <use x="125" xlink:href="#DejaVuSans-115"/>
     <use x="177.099609" xlink:href="#DejaVuSans-116"/>
     <use x="216.308594" xlink:href="#DejaVuSans-32"/>
     <use x="248.095703" xlink:href="#DejaVuSans-50"/>
     <use x="311.71875" xlink:href="#DejaVuSans-48"/>
     <use x="375.341797" xlink:href="#DejaVuSans-48"/>
     <use x="438.964844" xlink:href="#DejaVuSans-57"/>
    </g>
   </g>
   <g id="text_16">
    <!-- bbob f9, 5-D -->
    <g transform="translate(60.41088 38.111366)scale(0.102 -0.102)">
     <defs>
      <path d="M 10.796875 72.90625 
L 49.515625 72.90625 
L 49.515625 64.59375 
L 19.828125 64.59375 
L 19.828125 46.734375 
Q 21.96875 47.46875 24.109375 47.828125 
Q 26.265625 48.1875 28.421875 48.1875 
Q 40.625 48.1875 47.75 41.5 
Q 54.890625 34.8125 54.890625 23.390625 
Q 54.890625 11.625 47.5625 5.09375 
Q 40.234375 -1.421875 26.90625 -1.421875 
Q 22.3125 -1.421875 17.546875 -0.640625 
Q 12.796875 0.140625 7.71875 1.703125 
L 7.71875 11.625 
Q 12.109375 9.234375 16.796875 8.0625 
Q 21.484375 6.890625 26.703125 6.890625 
Q 35.15625 6.890625 40.078125 11.328125 
Q 45.015625 15.765625 45.015625 23.390625 
Q 45.015625 31 40.078125 35.4375 
Q 35.15625 39.890625 26.703125 39.890625 
Q 22.75 39.890625 18.8125 39.015625 
Q 14.890625 38.140625 10.796875 36.28125 
z
" id="DejaVuSans-53"/>
      <path d="M 19.671875 64.796875 
L 19.671875 8.109375 
L 31.59375 8.109375 
Q 46.6875 8.109375 53.6875 14.9375 
Q 60.6875 21.78125 60.6875 36.53125 
Q 60.6875 51.171875 53.6875 57.984375 
Q 46.6875 64.796875 31.59375 64.796875 
z
M 9.8125 72.90625 
L 30.078125 72.90625 
Q 51.265625 72.90625 61.171875 64.09375 
Q 71.09375 55.28125 71.09375 36.53125 
Q 71.09375 17.671875 61.125 8.828125 
Q 51.171875 0 30.078125 0 
L 9.8125 0 
z
" id="DejaVuSans-68"/>
     </defs>
     <use xlink:href="#DejaVuSans-98"/>
     <use x="63.476562" xlink:href="#DejaVuSans-98"/>
     <use x="126.953125" xlink:href="#DejaVuSans-111"/>
     <use x="188.134766" xlink:href="#DejaVuSans-98"/>
     <use x="251.611328" xlink:href="#DejaVuSans-32"/>
     <use x="283.398438" xlink:href="#DejaVuSans-102"/>
     <use x="318.603516" xlink:href="#DejaVuSans-57"/>
     <use x="382.226562" xlink:href="#DejaVuSans-44"/>
     <use x="414.013672" xlink:href="#DejaVuSans-32"/>
     <use x="445.800781" xlink:href="#DejaVuSans-53"/>
     <use x="509.423828" xlink:href="#DejaVuSans-45"/>
     <use x="545.507812" xlink:href="#DejaVuSans-68"/>
    </g>
    <!-- 51 targets: 100..1e-08 -->
    <g transform="translate(60.41088 49.533135)scale(0.102 -0.102)">
     <defs>
      <path d="M 11.71875 12.40625 
L 22.015625 12.40625 
L 22.015625 0 
L 11.71875 0 
z
M 11.71875 51.703125 
L 22.015625 51.703125 
L 22.015625 39.3125 
L 11.71875 39.3125 
z
" id="DejaVuSans-58"/>
     </defs>
     <use xlink:href="#DejaVuSans-53"/>
     <use x="63.623047" xlink:href="#DejaVuSans-49"/>
     <use x="127.246094" xlink:href="#DejaVuSans-32"/>
     <use x="159.033203" xlink:href="#DejaVuSans-116"/>
     <use x="198.242188" xlink:href="#DejaVuSans-97"/>
     <use x="259.521484" xlink:href="#DejaVuSans-114"/>
     <use x="298.884766" xlink:href="#DejaVuSans-103"/>
     <use x="362.361328" xlink:href="#DejaVuSans-101"/>
     <use x="423.884766" xlink:href="#DejaVuSans-116"/>
     <use x="463.09375" xlink:href="#DejaVuSans-115"/>
     <use x="515.193359" xlink:href="#DejaVuSans-58"/>
     <use x="548.884766" xlink:href="#DejaVuSans-32"/>
     <use x="580.671875" xlink:href="#DejaVuSans-49"/>
     <use x="644.294922" xlink:href="#DejaVuSans-48"/>
     <use x="707.917969" xlink:href="#DejaVuSans-48"/>
     <use x="771.541016" xlink:href="#DejaVuSans-46"/>
     <use x="803.328125" xlink:href="#DejaVuSans-46"/>
     <use x="835.115234" xlink:href="#DejaVuSans-49"/>
     <use x="898.738281" xlink:href="#DejaVuSans-101"/>
     <use x="960.261719" xlink:href="#DejaVuSans-45"/>
     <use x="996.345703" xlink:href="#DejaVuSans-48"/>
     <use x="1059.96875" xlink:href="#DejaVuSans-56"/>
    </g>
    <!-- 15 instances -->
    <g transform="translate(60.41088 60.954904)scale(0.102 -0.102)">
     <use xlink:href="#DejaVuSans-49"/>
     <use x="63.623047" xlink:href="#DejaVuSans-53"/>
     <use x="127.246094" xlink:href="#DejaVuSans-32"/>
     <use x="159.033203" xlink:href="#DejaVuSans-105"/>
     <use x="186.816406" xlink:href="#DejaVuSans-110"/>
     <use x="250.195312" xlink:href="#DejaVuSans-115"/>
     <use x="302.294922" xlink:href="#DejaVuSans-116"/>
     <use x="341.503906" xlink:href="#DejaVuSans-97"/>
     <use x="402.783203" xlink:href="#DejaVuSans-110"/>
     <use x="466.162109" xlink:href="#DejaVuSans-99"/>
     <use x="521.142578" xlink:href="#DejaVuSans-101"/>
     <use x="582.666016" xlink:href="#DejaVuSans-115"/>
    </g>
   </g>
   <g id="text_17">
    <!-- v2.4 -->
    <g style="fill:#808080;" transform="translate(187.233062 294.151352)scale(0.1 -0.1)">
     <use xlink:href="#DejaVuSans-118"/>
     <use x="59.179688" xlink:href="#DejaVuSans-50"/>
     <use x="122.802734" xlink:href="#DejaVuSans-46"/>
     <use x="154.589844" xlink:href="#DejaVuSans-52"/>
    </g>
   </g>
   <g id="text_18">
    <!-- 9 Rosenbrock rotated -->
    <g transform="translate(90.990875 21.648)scale(0.2 -0.2)">
     <defs>
      <path d="M 44.390625 34.1875 
Q 47.5625 33.109375 50.5625 29.59375 
Q 53.5625 26.078125 56.59375 19.921875 
L 66.609375 0 
L 56 0 
L 46.6875 18.703125 
Q 43.0625 26.03125 39.671875 28.421875 
Q 36.28125 30.8125 30.421875 30.8125 
L 19.671875 30.8125 
L 19.671875 0 
L 9.8125 0 
L 9.8125 72.90625 
L 32.078125 72.90625 
Q 44.578125 72.90625 50.734375 67.671875 
Q 56.890625 62.453125 56.890625 51.90625 
Q 56.890625 45.015625 53.6875 40.46875 
Q 50.484375 35.9375 44.390625 34.1875 
z
M 19.671875 64.796875 
L 19.671875 38.921875 
L 32.078125 38.921875 
Q 39.203125 38.921875 42.84375 42.21875 
Q 46.484375 45.515625 46.484375 51.90625 
Q 46.484375 58.296875 42.84375 61.546875 
Q 39.203125 64.796875 32.078125 64.796875 
z
" id="DejaVuSans-82"/>
      <path d="M 9.078125 75.984375 
L 18.109375 75.984375 
L 18.109375 31.109375 
L 44.921875 54.6875 
L 56.390625 54.6875 
L 27.390625 29.109375 
L 57.625 0 
L 45.90625 0 
L 18.109375 26.703125 
L 18.109375 0 
L 9.078125 0 
z
" id="DejaVuSans-107"/>
     </defs>
     <use xlink:href="#DejaVuSans-57"/>
     <use x="63.623047" xlink:href="#DejaVuSans-32"/>
     <use x="95.410156" xlink:href="#DejaVuSans-82"/>
     <use x="160.392578" xlink:href="#DejaVuSans-111"/>
     <use x="221.574219" xlink:href="#DejaVuSans-115"/>
     <use x="273.673828" xlink:href="#DejaVuSans-101"/>
     <use x="335.197266" xlink:href="#DejaVuSans-110"/>
     <use x="398.576172" xlink:href="#DejaVuSans-98"/>
     <use x="462.052734" xlink:href="#DejaVuSans-114"/>
     <use x="500.916016" xlink:href="#DejaVuSans-111"/>
     <use x="562.097656" xlink:href="#DejaVuSans-99"/>
     <use x="617.078125" xlink:href="#DejaVuSans-107"/>
     <use x="674.988281" xlink:href="#DejaVuSans-32"/>
     <use x="706.775391" xlink:href="#DejaVuSans-114"/>
     <use x="745.638672" xlink:href="#DejaVuSans-111"/>
     <use x="806.820312" xlink:href="#DejaVuSans-116"/>
     <use x="846.029297" xlink:href="#DejaVuSans-97"/>
     <use x="907.308594" xlink:href="#DejaVuSans-116"/>
     <use x="946.517578" xlink:href="#DejaVuSans-101"/>
     <use x="1008.041016" xlink:href="#DejaVuSans-100"/>
    </g>
   </g>
  </g>
 </g>
 <defs>
  <clipPath id="p14f06736bb">
   <rect height="271.296" width="281.088" x="57.6" y="27.648"/>
  </clipPath>
 </defs>
</svg>
