<?xml version="1.0" encoding="utf-8" standalone="no"?>
<!DOCTYPE svg PUBLIC "-//W3C//DTD SVG 1.1//EN"
  "http://www.w3.org/Graphics/SVG/1.1/DTD/svg11.dtd">
<!-- Created with matplotlib (https://matplotlib.org/) -->
<svg height="345.6pt" version="1.1" viewBox="0 0 460.8 345.6" width="460.8pt" xmlns="http://www.w3.org/2000/svg" xmlns:xlink="http://www.w3.org/1999/xlink">
 <metadata>
  <rdf:RDF xmlns:cc="http://creativecommons.org/ns#" xmlns:dc="http://purl.org/dc/elements/1.1/" xmlns:rdf="http://www.w3.org/1999/02/22-rdf-syntax-ns#">
   <cc:Work>
    <dc:type rdf:resource="http://purl.org/dc/dcmitype/StillImage"/>
    <dc:date>2021-05-01T17:09:16.479951</dc:date>
    <dc:format>image/svg+xml</dc:format>
    <dc:creator>
     <cc:Agent>
      <dc:title>Matplotlib v3.3.2, https://matplotlib.org/</dc:title>
     </cc:Agent>
    </dc:creator>
   </cc:Work>
  </rdf:RDF>
 </metadata>
 <defs>
  <style type="text/css">*{stroke-linecap:butt;stroke-linejoin:round;}</style>
 </defs>
 <g id="figure_1">
  <g id="patch_1">
   <path d="M 0 345.6 
L 460.8 345.6 
L 460.8 0 
L 0 0 
z
" style="fill:#ffffff;"/>
  </g>
  <g id="axes_1">
   <g id="patch_2">
    <path d="M 57.6 298.944 
L 338.688 298.944 
L 338.688 27.648 
L 57.6 27.648 
z
" style="fill:#ffffff;"/>
   </g>
   <g id="line2d_1">
    <path d="M 17.444571 298.944 
L 17.444571 293.677139 
L 41.620548 293.677139 
L 41.620548 288.410278 
L 53.708537 288.410278 
L 53.708537 283.143418 
L 59.262141 283.143418 
L 59.262141 277.876557 
L 74.921597 277.876557 
L 74.921597 272.609696 
L 80.416384 272.609696 
L 80.416384 267.342835 
L 86.351421 267.342835 
L 86.351421 262.075974 
L 89.972502 262.075974 
L 89.972502 256.809114 
L 93.197415 256.809114 
L 93.197415 251.542253 
L 95.326798 251.542253 
L 95.326798 246.275392 
L 97.403108 246.275392 
L 97.403108 241.008531 
L 98.935347 241.008531 
L 98.935347 235.74167 
L 100.040467 235.74167 
L 100.040467 230.47481 
L 100.934985 230.47481 
L 100.934985 225.207949 
L 101.923711 225.207949 
L 101.923711 219.941088 
L 102.728744 219.941088 
L 102.728744 214.674227 
L 103.747386 214.674227 
L 103.747386 209.407366 
L 105.057436 209.407366 
L 105.057436 204.140506 
L 106.48859 204.140506 
L 106.48859 198.873645 
L 108.102622 198.873645 
L 108.102622 193.606784 
L 110.274038 193.606784 
L 110.274038 188.339923 
L 112.58145 188.339923 
L 112.58145 183.073062 
L 114.148479 183.073062 
L 114.148479 177.806202 
L 116.739166 177.806202 
L 116.739166 172.539341 
L 119.148409 172.539341 
L 119.148409 167.27248 
L 121.579085 167.27248 
L 121.579085 162.005619 
L 122.531342 162.005619 
L 122.531342 156.738758 
L 123.474235 156.738758 
L 123.474235 151.471897 
L 124.254646 151.471897 
L 124.254646 146.205037 
L 125.147256 146.205037 
L 125.147256 140.938176 
L 125.996395 140.938176 
L 125.996395 135.671315 
L 126.904721 135.671315 
L 126.904721 130.404454 
L 127.642832 130.404454 
L 127.642832 125.137593 
L 128.290519 125.137593 
L 128.290519 119.870733 
L 129.204706 119.870733 
L 129.204706 114.603872 
L 131.363785 114.603872 
L 131.363785 109.337011 
L 133.689303 109.337011 
L 133.689303 104.07015 
L 148.122637 104.07015 
L 148.122637 98.803289 
L 159.633129 98.803289 
L 159.633129 93.536429 
L 160.292966 93.536429 
L 160.292966 88.269568 
L 160.769609 88.269568 
L 160.769609 83.002707 
L 161.361298 83.002707 
L 161.361298 77.735846 
L 161.827689 77.735846 
L 161.827689 72.468985 
L 162.29486 72.468985 
L 162.29486 67.202125 
L 162.875305 67.202125 
L 162.875305 61.935264 
L 163.368321 61.935264 
L 163.368321 56.668403 
L 163.89108 56.668403 
L 163.89108 51.401542 
L 164.390984 51.401542 
L 164.390984 46.134681 
L 164.880672 46.134681 
L 164.880672 40.867821 
L 165.371436 40.867821 
L 165.371436 35.60096 
L 165.859305 35.60096 
L 165.859305 30.334099 
L 338.688 30.334099 
" style="fill:none;stroke:#f5deb3;stroke-linecap:square;stroke-width:4;"/>
   </g>
   <g id="line2d_2">
    <defs>
     <path d="M -0 7.778175 
L 7.778175 0 
L 0 -7.778175 
L -7.778175 -0 
z
" id="m74d29a84ad" style="stroke:#f5deb3;stroke-linejoin:miter;stroke-width:1.5;"/>
    </defs>
    <g>
     <use style="fill:#f5deb3;stroke:#f5deb3;stroke-linejoin:miter;stroke-width:1.5;" x="98.935347" xlink:href="#m74d29a84ad" y="235.74167"/>
     <use style="fill:#f5deb3;stroke:#f5deb3;stroke-linejoin:miter;stroke-width:1.5;" x="133.689303" xlink:href="#m74d29a84ad" y="104.07015"/>
     <use style="fill:#f5deb3;stroke:#f5deb3;stroke-linejoin:miter;stroke-width:1.5;" x="165.859305" xlink:href="#m74d29a84ad" y="35.60096"/>
     <use style="fill:#f5deb3;stroke:#f5deb3;stroke-linejoin:miter;stroke-width:1.5;" x="165.859305" xlink:href="#m74d29a84ad" y="30.334099"/>
     <use style="fill:#f5deb3;stroke:#f5deb3;stroke-linejoin:miter;stroke-width:1.5;" x="165.859305" xlink:href="#m74d29a84ad" y="30.334099"/>
     <use style="fill:#f5deb3;stroke:#f5deb3;stroke-linejoin:miter;stroke-width:1.5;" x="338.688" xlink:href="#m74d29a84ad" y="30.334099"/>
    </g>
   </g>
   <g id="line2d_3">
    <path style="fill:none;stroke:#f5deb3;stroke-linecap:square;stroke-width:4;"/>
    <g/>
   </g>
   <g id="line2d_4">
    <path d="M 338.688 30.334099 
L 369.60768 35.706297 
" style="fill:none;stroke:#f5deb3;stroke-linecap:square;stroke-width:4;"/>
    <g>
     <use style="fill:#f5deb3;stroke:#f5deb3;stroke-linejoin:miter;stroke-width:1.5;" x="338.688" xlink:href="#m74d29a84ad" y="30.334099"/>
     <use style="fill:#f5deb3;stroke:#f5deb3;stroke-linejoin:miter;stroke-width:1.5;" x="369.60768" xlink:href="#m74d29a84ad" y="35.706297"/>
    </g>
   </g>
   <g id="matplotlib.axis_1">
    <g id="xtick_1">
     <g id="line2d_5">
      <path clip-path="url(#p5a31afc601)" d="M 57.6 298.944 
L 57.6 27.648 
" style="fill:none;stroke:#b0b0b0;stroke-linecap:square;stroke-width:0.8;"/>
     </g>
     <g id="line2d_6">
      <defs>
       <path d="M 0 0 
L 0 3.5 
" id="m7560383dc9" style="stroke:#000000;stroke-width:0.8;"/>
      </defs>
      <g>
       <use style="stroke:#000000;stroke-width:0.8;" x="57.6" xlink:href="#m7560383dc9" y="298.944"/>
      </g>
     </g>
     <g id="text_1">
      <!-- 0 -->
      <g transform="translate(51.2375 321.140875)scale(0.2 -0.2)">
       <defs>
        <path d="M 31.78125 66.40625 
Q 24.171875 66.40625 20.328125 58.90625 
Q 16.5 51.421875 16.5 36.375 
Q 16.5 21.390625 20.328125 13.890625 
Q 24.171875 6.390625 31.78125 6.390625 
Q 39.453125 6.390625 43.28125 13.890625 
Q 47.125 21.390625 47.125 36.375 
Q 47.125 51.421875 43.28125 58.90625 
Q 39.453125 66.40625 31.78125 66.40625 
z
M 31.78125 74.21875 
Q 44.046875 74.21875 50.515625 64.515625 
Q 56.984375 54.828125 56.984375 36.375 
Q 56.984375 17.96875 50.515625 8.265625 
Q 44.046875 -1.421875 31.78125 -1.421875 
Q 19.53125 -1.421875 13.0625 8.265625 
Q 6.59375 17.96875 6.59375 36.375 
Q 6.59375 54.828125 13.0625 64.515625 
Q 19.53125 74.21875 31.78125 74.21875 
z
" id="DejaVuSans-48"/>
       </defs>
       <use xlink:href="#DejaVuSans-48"/>
      </g>
     </g>
    </g>
    <g id="xtick_2">
     <g id="line2d_7">
      <path clip-path="url(#p5a31afc601)" d="M 137.910857 298.944 
L 137.910857 27.648 
" style="fill:none;stroke:#b0b0b0;stroke-linecap:square;stroke-width:0.8;"/>
     </g>
     <g id="line2d_8">
      <g>
       <use style="stroke:#000000;stroke-width:0.8;" x="137.910857" xlink:href="#m7560383dc9" y="298.944"/>
      </g>
     </g>
     <g id="text_2">
      <!-- 2 -->
      <g transform="translate(131.548357 321.140875)scale(0.2 -0.2)">
       <defs>
        <path d="M 19.1875 8.296875 
L 53.609375 8.296875 
L 53.609375 0 
L 7.328125 0 
L 7.328125 8.296875 
Q 12.9375 14.109375 22.625 23.890625 
Q 32.328125 33.6875 34.8125 36.53125 
Q 39.546875 41.84375 41.421875 45.53125 
Q 43.3125 49.21875 43.3125 52.78125 
Q 43.3125 58.59375 39.234375 62.25 
Q 35.15625 65.921875 28.609375 65.921875 
Q 23.96875 65.921875 18.8125 64.3125 
Q 13.671875 62.703125 7.8125 59.421875 
L 7.8125 69.390625 
Q 13.765625 71.78125 18.9375 73 
Q 24.125 74.21875 28.421875 74.21875 
Q 39.75 74.21875 46.484375 68.546875 
Q 53.21875 62.890625 53.21875 53.421875 
Q 53.21875 48.921875 51.53125 44.890625 
Q 49.859375 40.875 45.40625 35.40625 
Q 44.1875 33.984375 37.640625 27.21875 
Q 31.109375 20.453125 19.1875 8.296875 
z
" id="DejaVuSans-50"/>
       </defs>
       <use xlink:href="#DejaVuSans-50"/>
      </g>
     </g>
    </g>
    <g id="xtick_3">
     <g id="line2d_9">
      <path clip-path="url(#p5a31afc601)" d="M 218.221714 298.944 
L 218.221714 27.648 
" style="fill:none;stroke:#b0b0b0;stroke-linecap:square;stroke-width:0.8;"/>
     </g>
     <g id="line2d_10">
      <g>
       <use style="stroke:#000000;stroke-width:0.8;" x="218.221714" xlink:href="#m7560383dc9" y="298.944"/>
      </g>
     </g>
     <g id="text_3">
      <!-- 4 -->
      <g transform="translate(211.859214 321.140875)scale(0.2 -0.2)">
       <defs>
        <path d="M 37.796875 64.3125 
L 12.890625 25.390625 
L 37.796875 25.390625 
z
M 35.203125 72.90625 
L 47.609375 72.90625 
L 47.609375 25.390625 
L 58.015625 25.390625 
L 58.015625 17.1875 
L 47.609375 17.1875 
L 47.609375 0 
L 37.796875 0 
L 37.796875 17.1875 
L 4.890625 17.1875 
L 4.890625 26.703125 
z
" id="DejaVuSans-52"/>
       </defs>
       <use xlink:href="#DejaVuSans-52"/>
      </g>
     </g>
    </g>
    <g id="xtick_4">
     <g id="line2d_11">
      <path clip-path="url(#p5a31afc601)" d="M 298.532571 298.944 
L 298.532571 27.648 
" style="fill:none;stroke:#b0b0b0;stroke-linecap:square;stroke-width:0.8;"/>
     </g>
     <g id="line2d_12">
      <g>
       <use style="stroke:#000000;stroke-width:0.8;" x="298.532571" xlink:href="#m7560383dc9" y="298.944"/>
      </g>
     </g>
     <g id="text_4">
      <!-- 6 -->
      <g transform="translate(292.170071 321.140875)scale(0.2 -0.2)">
       <defs>
        <path d="M 33.015625 40.375 
Q 26.375 40.375 22.484375 35.828125 
Q 18.609375 31.296875 18.609375 23.390625 
Q 18.609375 15.53125 22.484375 10.953125 
Q 26.375 6.390625 33.015625 6.390625 
Q 39.65625 6.390625 43.53125 10.953125 
Q 47.40625 15.53125 47.40625 23.390625 
Q 47.40625 31.296875 43.53125 35.828125 
Q 39.65625 40.375 33.015625 40.375 
z
M 52.59375 71.296875 
L 52.59375 62.3125 
Q 48.875 64.0625 45.09375 64.984375 
Q 41.3125 65.921875 37.59375 65.921875 
Q 27.828125 65.921875 22.671875 59.328125 
Q 17.53125 52.734375 16.796875 39.40625 
Q 19.671875 43.65625 24.015625 45.921875 
Q 28.375 48.1875 33.59375 48.1875 
Q 44.578125 48.1875 50.953125 41.515625 
Q 57.328125 34.859375 57.328125 23.390625 
Q 57.328125 12.15625 50.6875 5.359375 
Q 44.046875 -1.421875 33.015625 -1.421875 
Q 20.359375 -1.421875 13.671875 8.265625 
Q 6.984375 17.96875 6.984375 36.375 
Q 6.984375 53.65625 15.1875 63.9375 
Q 23.390625 74.21875 37.203125 74.21875 
Q 40.921875 74.21875 44.703125 73.484375 
Q 48.484375 72.75 52.59375 71.296875 
z
" id="DejaVuSans-54"/>
       </defs>
       <use xlink:href="#DejaVuSans-54"/>
      </g>
     </g>
    </g>
    <g id="xtick_5">
     <g id="line2d_13">
      <path clip-path="url(#p5a31afc601)" d="M 97.755429 298.944 
L 97.755429 27.648 
" style="fill:none;stroke:#b0b0b0;stroke-linecap:square;stroke-width:0.8;"/>
     </g>
     <g id="line2d_14">
      <defs>
       <path d="M 0 0 
L 0 2 
" id="m7f928b2b98" style="stroke:#000000;stroke-width:0.6;"/>
      </defs>
      <g>
       <use style="stroke:#000000;stroke-width:0.6;" x="97.755429" xlink:href="#m7f928b2b98" y="298.944"/>
      </g>
     </g>
    </g>
    <g id="xtick_6">
     <g id="line2d_15">
      <path clip-path="url(#p5a31afc601)" d="M 178.066286 298.944 
L 178.066286 27.648 
" style="fill:none;stroke:#b0b0b0;stroke-linecap:square;stroke-width:0.8;"/>
     </g>
     <g id="line2d_16">
      <g>
       <use style="stroke:#000000;stroke-width:0.6;" x="178.066286" xlink:href="#m7f928b2b98" y="298.944"/>
      </g>
     </g>
    </g>
    <g id="xtick_7">
     <g id="line2d_17">
      <path clip-path="url(#p5a31afc601)" d="M 258.377143 298.944 
L 258.377143 27.648 
" style="fill:none;stroke:#b0b0b0;stroke-linecap:square;stroke-width:0.8;"/>
     </g>
     <g id="line2d_18">
      <g>
       <use style="stroke:#000000;stroke-width:0.6;" x="258.377143" xlink:href="#m7f928b2b98" y="298.944"/>
      </g>
     </g>
    </g>
    <g id="xtick_8">
     <g id="line2d_19">
      <path clip-path="url(#p5a31afc601)" d="M 338.688 298.944 
L 338.688 27.648 
" style="fill:none;stroke:#b0b0b0;stroke-linecap:square;stroke-width:0.8;"/>
     </g>
     <g id="line2d_20">
      <g>
       <use style="stroke:#000000;stroke-width:0.6;" x="338.688" xlink:href="#m7f928b2b98" y="298.944"/>
      </g>
     </g>
    </g>
    <g id="text_5">
     <!-- log10(# f-evals / dimension) -->
     <g transform="translate(77.764078 342.217594)scale(0.17 -0.17)">
      <defs>
       <path d="M 9.421875 75.984375 
L 18.40625 75.984375 
L 18.40625 0 
L 9.421875 0 
z
" id="DejaVuSans-108"/>
       <path d="M 30.609375 48.390625 
Q 23.390625 48.390625 19.1875 42.75 
Q 14.984375 37.109375 14.984375 27.296875 
Q 14.984375 17.484375 19.15625 11.84375 
Q 23.34375 6.203125 30.609375 6.203125 
Q 37.796875 6.203125 41.984375 11.859375 
Q 46.1875 17.53125 46.1875 27.296875 
Q 46.1875 37.015625 41.984375 42.703125 
Q 37.796875 48.390625 30.609375 48.390625 
z
M 30.609375 56 
Q 42.328125 56 49.015625 48.375 
Q 55.71875 40.765625 55.71875 27.296875 
Q 55.71875 13.875 49.015625 6.21875 
Q 42.328125 -1.421875 30.609375 -1.421875 
Q 18.84375 -1.421875 12.171875 6.21875 
Q 5.515625 13.875 5.515625 27.296875 
Q 5.515625 40.765625 12.171875 48.375 
Q 18.84375 56 30.609375 56 
z
" id="DejaVuSans-111"/>
       <path d="M 45.40625 27.984375 
Q 45.40625 37.75 41.375 43.109375 
Q 37.359375 48.484375 30.078125 48.484375 
Q 22.859375 48.484375 18.828125 43.109375 
Q 14.796875 37.75 14.796875 27.984375 
Q 14.796875 18.265625 18.828125 12.890625 
Q 22.859375 7.515625 30.078125 7.515625 
Q 37.359375 7.515625 41.375 12.890625 
Q 45.40625 18.265625 45.40625 27.984375 
z
M 54.390625 6.78125 
Q 54.390625 -7.171875 48.1875 -13.984375 
Q 42 -20.796875 29.203125 -20.796875 
Q 24.46875 -20.796875 20.265625 -20.09375 
Q 16.0625 -19.390625 12.109375 -17.921875 
L 12.109375 -9.1875 
Q 16.0625 -11.328125 19.921875 -12.34375 
Q 23.78125 -13.375 27.78125 -13.375 
Q 36.625 -13.375 41.015625 -8.765625 
Q 45.40625 -4.15625 45.40625 5.171875 
L 45.40625 9.625 
Q 42.625 4.78125 38.28125 2.390625 
Q 33.9375 0 27.875 0 
Q 17.828125 0 11.671875 7.65625 
Q 5.515625 15.328125 5.515625 27.984375 
Q 5.515625 40.671875 11.671875 48.328125 
Q 17.828125 56 27.875 56 
Q 33.9375 56 38.28125 53.609375 
Q 42.625 51.21875 45.40625 46.390625 
L 45.40625 54.6875 
L 54.390625 54.6875 
z
" id="DejaVuSans-103"/>
       <path d="M 12.40625 8.296875 
L 28.515625 8.296875 
L 28.515625 63.921875 
L 10.984375 60.40625 
L 10.984375 69.390625 
L 28.421875 72.90625 
L 38.28125 72.90625 
L 38.28125 8.296875 
L 54.390625 8.296875 
L 54.390625 0 
L 12.40625 0 
z
" id="DejaVuSans-49"/>
       <path d="M 31 75.875 
Q 24.46875 64.65625 21.28125 53.65625 
Q 18.109375 42.671875 18.109375 31.390625 
Q 18.109375 20.125 21.3125 9.0625 
Q 24.515625 -2 31 -13.1875 
L 23.1875 -13.1875 
Q 15.875 -1.703125 12.234375 9.375 
Q 8.59375 20.453125 8.59375 31.390625 
Q 8.59375 42.28125 12.203125 53.3125 
Q 15.828125 64.359375 23.1875 75.875 
z
" id="DejaVuSans-40"/>
       <path d="M 51.125 44 
L 36.921875 44 
L 32.8125 27.6875 
L 47.125 27.6875 
z
M 43.796875 71.78125 
L 38.71875 51.515625 
L 52.984375 51.515625 
L 58.109375 71.78125 
L 65.921875 71.78125 
L 60.890625 51.515625 
L 76.125 51.515625 
L 76.125 44 
L 58.984375 44 
L 54.984375 27.6875 
L 70.515625 27.6875 
L 70.515625 20.21875 
L 53.078125 20.21875 
L 48 0 
L 40.1875 0 
L 45.21875 20.21875 
L 30.90625 20.21875 
L 25.875 0 
L 18.015625 0 
L 23.09375 20.21875 
L 7.71875 20.21875 
L 7.71875 27.6875 
L 24.90625 27.6875 
L 29 44 
L 13.28125 44 
L 13.28125 51.515625 
L 30.90625 51.515625 
L 35.890625 71.78125 
z
" id="DejaVuSans-35"/>
       <path id="DejaVuSans-32"/>
       <path d="M 37.109375 75.984375 
L 37.109375 68.5 
L 28.515625 68.5 
Q 23.6875 68.5 21.796875 66.546875 
Q 19.921875 64.59375 19.921875 59.515625 
L 19.921875 54.6875 
L 34.71875 54.6875 
L 34.71875 47.703125 
L 19.921875 47.703125 
L 19.921875 0 
L 10.890625 0 
L 10.890625 47.703125 
L 2.296875 47.703125 
L 2.296875 54.6875 
L 10.890625 54.6875 
L 10.890625 58.5 
Q 10.890625 67.625 15.140625 71.796875 
Q 19.390625 75.984375 28.609375 75.984375 
z
" id="DejaVuSans-102"/>
       <path d="M 4.890625 31.390625 
L 31.203125 31.390625 
L 31.203125 23.390625 
L 4.890625 23.390625 
z
" id="DejaVuSans-45"/>
       <path d="M 56.203125 29.59375 
L 56.203125 25.203125 
L 14.890625 25.203125 
Q 15.484375 15.921875 20.484375 11.0625 
Q 25.484375 6.203125 34.421875 6.203125 
Q 39.59375 6.203125 44.453125 7.46875 
Q 49.3125 8.734375 54.109375 11.28125 
L 54.109375 2.78125 
Q 49.265625 0.734375 44.1875 -0.34375 
Q 39.109375 -1.421875 33.890625 -1.421875 
Q 20.796875 -1.421875 13.15625 6.1875 
Q 5.515625 13.8125 5.515625 26.8125 
Q 5.515625 40.234375 12.765625 48.109375 
Q 20.015625 56 32.328125 56 
Q 43.359375 56 49.78125 48.890625 
Q 56.203125 41.796875 56.203125 29.59375 
z
M 47.21875 32.234375 
Q 47.125 39.59375 43.09375 43.984375 
Q 39.0625 48.390625 32.421875 48.390625 
Q 24.90625 48.390625 20.390625 44.140625 
Q 15.875 39.890625 15.1875 32.171875 
z
" id="DejaVuSans-101"/>
       <path d="M 2.984375 54.6875 
L 12.5 54.6875 
L 29.59375 8.796875 
L 46.6875 54.6875 
L 56.203125 54.6875 
L 35.6875 0 
L 23.484375 0 
z
" id="DejaVuSans-118"/>
       <path d="M 34.28125 27.484375 
Q 23.390625 27.484375 19.1875 25 
Q 14.984375 22.515625 14.984375 16.5 
Q 14.984375 11.71875 18.140625 8.90625 
Q 21.296875 6.109375 26.703125 6.109375 
Q 34.1875 6.109375 38.703125 11.40625 
Q 43.21875 16.703125 43.21875 25.484375 
L 43.21875 27.484375 
z
M 52.203125 31.203125 
L 52.203125 0 
L 43.21875 0 
L 43.21875 8.296875 
Q 40.140625 3.328125 35.546875 0.953125 
Q 30.953125 -1.421875 24.3125 -1.421875 
Q 15.921875 -1.421875 10.953125 3.296875 
Q 6 8.015625 6 15.921875 
Q 6 25.140625 12.171875 29.828125 
Q 18.359375 34.515625 30.609375 34.515625 
L 43.21875 34.515625 
L 43.21875 35.40625 
Q 43.21875 41.609375 39.140625 45 
Q 35.0625 48.390625 27.6875 48.390625 
Q 23 48.390625 18.546875 47.265625 
Q 14.109375 46.140625 10.015625 43.890625 
L 10.015625 52.203125 
Q 14.9375 54.109375 19.578125 55.046875 
Q 24.21875 56 28.609375 56 
Q 40.484375 56 46.34375 49.84375 
Q 52.203125 43.703125 52.203125 31.203125 
z
" id="DejaVuSans-97"/>
       <path d="M 44.28125 53.078125 
L 44.28125 44.578125 
Q 40.484375 46.53125 36.375 47.5 
Q 32.28125 48.484375 27.875 48.484375 
Q 21.1875 48.484375 17.84375 46.4375 
Q 14.5 44.390625 14.5 40.28125 
Q 14.5 37.15625 16.890625 35.375 
Q 19.28125 33.59375 26.515625 31.984375 
L 29.59375 31.296875 
Q 39.15625 29.25 43.1875 25.515625 
Q 47.21875 21.78125 47.21875 15.09375 
Q 47.21875 7.46875 41.1875 3.015625 
Q 35.15625 -1.421875 24.609375 -1.421875 
Q 20.21875 -1.421875 15.453125 -0.5625 
Q 10.6875 0.296875 5.421875 2 
L 5.421875 11.28125 
Q 10.40625 8.6875 15.234375 7.390625 
Q 20.0625 6.109375 24.8125 6.109375 
Q 31.15625 6.109375 34.5625 8.28125 
Q 37.984375 10.453125 37.984375 14.40625 
Q 37.984375 18.0625 35.515625 20.015625 
Q 33.0625 21.96875 24.703125 23.78125 
L 21.578125 24.515625 
Q 13.234375 26.265625 9.515625 29.90625 
Q 5.8125 33.546875 5.8125 39.890625 
Q 5.8125 47.609375 11.28125 51.796875 
Q 16.75 56 26.8125 56 
Q 31.78125 56 36.171875 55.265625 
Q 40.578125 54.546875 44.28125 53.078125 
z
" id="DejaVuSans-115"/>
       <path d="M 25.390625 72.90625 
L 33.6875 72.90625 
L 8.296875 -9.28125 
L 0 -9.28125 
z
" id="DejaVuSans-47"/>
       <path d="M 45.40625 46.390625 
L 45.40625 75.984375 
L 54.390625 75.984375 
L 54.390625 0 
L 45.40625 0 
L 45.40625 8.203125 
Q 42.578125 3.328125 38.25 0.953125 
Q 33.9375 -1.421875 27.875 -1.421875 
Q 17.96875 -1.421875 11.734375 6.484375 
Q 5.515625 14.40625 5.515625 27.296875 
Q 5.515625 40.1875 11.734375 48.09375 
Q 17.96875 56 27.875 56 
Q 33.9375 56 38.25 53.625 
Q 42.578125 51.265625 45.40625 46.390625 
z
M 14.796875 27.296875 
Q 14.796875 17.390625 18.875 11.75 
Q 22.953125 6.109375 30.078125 6.109375 
Q 37.203125 6.109375 41.296875 11.75 
Q 45.40625 17.390625 45.40625 27.296875 
Q 45.40625 37.203125 41.296875 42.84375 
Q 37.203125 48.484375 30.078125 48.484375 
Q 22.953125 48.484375 18.875 42.84375 
Q 14.796875 37.203125 14.796875 27.296875 
z
" id="DejaVuSans-100"/>
       <path d="M 9.421875 54.6875 
L 18.40625 54.6875 
L 18.40625 0 
L 9.421875 0 
z
M 9.421875 75.984375 
L 18.40625 75.984375 
L 18.40625 64.59375 
L 9.421875 64.59375 
z
" id="DejaVuSans-105"/>
       <path d="M 52 44.1875 
Q 55.375 50.25 60.0625 53.125 
Q 64.75 56 71.09375 56 
Q 79.640625 56 84.28125 50.015625 
Q 88.921875 44.046875 88.921875 33.015625 
L 88.921875 0 
L 79.890625 0 
L 79.890625 32.71875 
Q 79.890625 40.578125 77.09375 44.375 
Q 74.3125 48.1875 68.609375 48.1875 
Q 61.625 48.1875 57.5625 43.546875 
Q 53.515625 38.921875 53.515625 30.90625 
L 53.515625 0 
L 44.484375 0 
L 44.484375 32.71875 
Q 44.484375 40.625 41.703125 44.40625 
Q 38.921875 48.1875 33.109375 48.1875 
Q 26.21875 48.1875 22.15625 43.53125 
Q 18.109375 38.875 18.109375 30.90625 
L 18.109375 0 
L 9.078125 0 
L 9.078125 54.6875 
L 18.109375 54.6875 
L 18.109375 46.1875 
Q 21.1875 51.21875 25.484375 53.609375 
Q 29.78125 56 35.6875 56 
Q 41.65625 56 45.828125 52.96875 
Q 50 49.953125 52 44.1875 
z
" id="DejaVuSans-109"/>
       <path d="M 54.890625 33.015625 
L 54.890625 0 
L 45.90625 0 
L 45.90625 32.71875 
Q 45.90625 40.484375 42.875 44.328125 
Q 39.84375 48.1875 33.796875 48.1875 
Q 26.515625 48.1875 22.3125 43.546875 
Q 18.109375 38.921875 18.109375 30.90625 
L 18.109375 0 
L 9.078125 0 
L 9.078125 54.6875 
L 18.109375 54.6875 
L 18.109375 46.1875 
Q 21.34375 51.125 25.703125 53.5625 
Q 30.078125 56 35.796875 56 
Q 45.21875 56 50.046875 50.171875 
Q 54.890625 44.34375 54.890625 33.015625 
z
" id="DejaVuSans-110"/>
       <path d="M 8.015625 75.875 
L 15.828125 75.875 
Q 23.140625 64.359375 26.78125 53.3125 
Q 30.421875 42.28125 30.421875 31.390625 
Q 30.421875 20.453125 26.78125 9.375 
Q 23.140625 -1.703125 15.828125 -13.1875 
L 8.015625 -13.1875 
Q 14.5 -2 17.703125 9.0625 
Q 20.90625 20.125 20.90625 31.390625 
Q 20.90625 42.671875 17.703125 53.65625 
Q 14.5 64.65625 8.015625 75.875 
z
" id="DejaVuSans-41"/>
      </defs>
      <use xlink:href="#DejaVuSans-108"/>
      <use x="27.783203" xlink:href="#DejaVuSans-111"/>
      <use x="88.964844" xlink:href="#DejaVuSans-103"/>
      <use x="152.441406" xlink:href="#DejaVuSans-49"/>
      <use x="216.064453" xlink:href="#DejaVuSans-48"/>
      <use x="279.6875" xlink:href="#DejaVuSans-40"/>
      <use x="318.701172" xlink:href="#DejaVuSans-35"/>
      <use x="402.490234" xlink:href="#DejaVuSans-32"/>
      <use x="434.277344" xlink:href="#DejaVuSans-102"/>
      <use x="463.982422" xlink:href="#DejaVuSans-45"/>
      <use x="500.066406" xlink:href="#DejaVuSans-101"/>
      <use x="561.589844" xlink:href="#DejaVuSans-118"/>
      <use x="620.769531" xlink:href="#DejaVuSans-97"/>
      <use x="682.048828" xlink:href="#DejaVuSans-108"/>
      <use x="709.832031" xlink:href="#DejaVuSans-115"/>
      <use x="761.931641" xlink:href="#DejaVuSans-32"/>
      <use x="793.71875" xlink:href="#DejaVuSans-47"/>
      <use x="827.410156" xlink:href="#DejaVuSans-32"/>
      <use x="859.197266" xlink:href="#DejaVuSans-100"/>
      <use x="922.673828" xlink:href="#DejaVuSans-105"/>
      <use x="950.457031" xlink:href="#DejaVuSans-109"/>
      <use x="1047.869141" xlink:href="#DejaVuSans-101"/>
      <use x="1109.392578" xlink:href="#DejaVuSans-110"/>
      <use x="1172.771484" xlink:href="#DejaVuSans-115"/>
      <use x="1224.871094" xlink:href="#DejaVuSans-105"/>
      <use x="1252.654297" xlink:href="#DejaVuSans-111"/>
      <use x="1313.835938" xlink:href="#DejaVuSans-110"/>
      <use x="1377.214844" xlink:href="#DejaVuSans-41"/>
     </g>
    </g>
   </g>
   <g id="matplotlib.axis_2">
    <g id="ytick_1">
     <g id="line2d_21">
      <path clip-path="url(#p5a31afc601)" d="M 57.6 298.944 
L 338.688 298.944 
" style="fill:none;stroke:#b0b0b0;stroke-linecap:square;stroke-width:0.8;"/>
     </g>
     <g id="line2d_22">
      <defs>
       <path d="M 0 0 
L -3.5 0 
" id="md2783371c3" style="stroke:#000000;stroke-width:0.8;"/>
      </defs>
      <g>
       <use style="stroke:#000000;stroke-width:0.8;" x="57.6" xlink:href="#md2783371c3" y="298.944"/>
      </g>
     </g>
     <g id="text_6">
      <!-- 0.0 -->
      <g transform="translate(25.155 305.02275)scale(0.16 -0.16)">
       <defs>
        <path d="M 10.6875 12.40625 
L 21 12.40625 
L 21 0 
L 10.6875 0 
z
" id="DejaVuSans-46"/>
       </defs>
       <use xlink:href="#DejaVuSans-48"/>
       <use x="63.623047" xlink:href="#DejaVuSans-46"/>
       <use x="95.410156" xlink:href="#DejaVuSans-48"/>
      </g>
     </g>
    </g>
    <g id="ytick_2">
     <g id="line2d_23">
      <path clip-path="url(#p5a31afc601)" d="M 57.6 245.22202 
L 338.688 245.22202 
" style="fill:none;stroke:#b0b0b0;stroke-linecap:square;stroke-width:0.8;"/>
     </g>
     <g id="line2d_24">
      <g>
       <use style="stroke:#000000;stroke-width:0.8;" x="57.6" xlink:href="#md2783371c3" y="245.22202"/>
      </g>
     </g>
     <g id="text_7">
      <!-- 0.2 -->
      <g transform="translate(25.155 251.30077)scale(0.16 -0.16)">
       <use xlink:href="#DejaVuSans-48"/>
       <use x="63.623047" xlink:href="#DejaVuSans-46"/>
       <use x="95.410156" xlink:href="#DejaVuSans-50"/>
      </g>
     </g>
    </g>
    <g id="ytick_3">
     <g id="line2d_25">
      <path clip-path="url(#p5a31afc601)" d="M 57.6 191.50004 
L 338.688 191.50004 
" style="fill:none;stroke:#b0b0b0;stroke-linecap:square;stroke-width:0.8;"/>
     </g>
     <g id="line2d_26">
      <g>
       <use style="stroke:#000000;stroke-width:0.8;" x="57.6" xlink:href="#md2783371c3" y="191.50004"/>
      </g>
     </g>
     <g id="text_8">
      <!-- 0.4 -->
      <g transform="translate(25.155 197.57879)scale(0.16 -0.16)">
       <use xlink:href="#DejaVuSans-48"/>
       <use x="63.623047" xlink:href="#DejaVuSans-46"/>
       <use x="95.410156" xlink:href="#DejaVuSans-52"/>
      </g>
     </g>
    </g>
    <g id="ytick_4">
     <g id="line2d_27">
      <path clip-path="url(#p5a31afc601)" d="M 57.6 137.778059 
L 338.688 137.778059 
" style="fill:none;stroke:#b0b0b0;stroke-linecap:square;stroke-width:0.8;"/>
     </g>
     <g id="line2d_28">
      <g>
       <use style="stroke:#000000;stroke-width:0.8;" x="57.6" xlink:href="#md2783371c3" y="137.778059"/>
      </g>
     </g>
     <g id="text_9">
      <!-- 0.6 -->
      <g transform="translate(25.155 143.856809)scale(0.16 -0.16)">
       <use xlink:href="#DejaVuSans-48"/>
       <use x="63.623047" xlink:href="#DejaVuSans-46"/>
       <use x="95.410156" xlink:href="#DejaVuSans-54"/>
      </g>
     </g>
    </g>
    <g id="ytick_5">
     <g id="line2d_29">
      <path clip-path="url(#p5a31afc601)" d="M 57.6 84.056079 
L 338.688 84.056079 
" style="fill:none;stroke:#b0b0b0;stroke-linecap:square;stroke-width:0.8;"/>
     </g>
     <g id="line2d_30">
      <g>
       <use style="stroke:#000000;stroke-width:0.8;" x="57.6" xlink:href="#md2783371c3" y="84.056079"/>
      </g>
     </g>
     <g id="text_10">
      <!-- 0.8 -->
      <g transform="translate(25.155 90.134829)scale(0.16 -0.16)">
       <defs>
        <path d="M 31.78125 34.625 
Q 24.75 34.625 20.71875 30.859375 
Q 16.703125 27.09375 16.703125 20.515625 
Q 16.703125 13.921875 20.71875 10.15625 
Q 24.75 6.390625 31.78125 6.390625 
Q 38.8125 6.390625 42.859375 10.171875 
Q 46.921875 13.96875 46.921875 20.515625 
Q 46.921875 27.09375 42.890625 30.859375 
Q 38.875 34.625 31.78125 34.625 
z
M 21.921875 38.8125 
Q 15.578125 40.375 12.03125 44.71875 
Q 8.5 49.078125 8.5 55.328125 
Q 8.5 64.0625 14.71875 69.140625 
Q 20.953125 74.21875 31.78125 74.21875 
Q 42.671875 74.21875 48.875 69.140625 
Q 55.078125 64.0625 55.078125 55.328125 
Q 55.078125 49.078125 51.53125 44.71875 
Q 48 40.375 41.703125 38.8125 
Q 48.828125 37.15625 52.796875 32.3125 
Q 56.78125 27.484375 56.78125 20.515625 
Q 56.78125 9.90625 50.3125 4.234375 
Q 43.84375 -1.421875 31.78125 -1.421875 
Q 19.734375 -1.421875 13.25 4.234375 
Q 6.78125 9.90625 6.78125 20.515625 
Q 6.78125 27.484375 10.78125 32.3125 
Q 14.796875 37.15625 21.921875 38.8125 
z
M 18.3125 54.390625 
Q 18.3125 48.734375 21.84375 45.5625 
Q 25.390625 42.390625 31.78125 42.390625 
Q 38.140625 42.390625 41.71875 45.5625 
Q 45.3125 48.734375 45.3125 54.390625 
Q 45.3125 60.0625 41.71875 63.234375 
Q 38.140625 66.40625 31.78125 66.40625 
Q 25.390625 66.40625 21.84375 63.234375 
Q 18.3125 60.0625 18.3125 54.390625 
z
" id="DejaVuSans-56"/>
       </defs>
       <use xlink:href="#DejaVuSans-48"/>
       <use x="63.623047" xlink:href="#DejaVuSans-46"/>
       <use x="95.410156" xlink:href="#DejaVuSans-56"/>
      </g>
     </g>
    </g>
    <g id="ytick_6">
     <g id="line2d_31">
      <path clip-path="url(#p5a31afc601)" d="M 57.6 30.334099 
L 338.688 30.334099 
" style="fill:none;stroke:#b0b0b0;stroke-linecap:square;stroke-width:0.8;"/>
     </g>
     <g id="line2d_32">
      <g>
       <use style="stroke:#000000;stroke-width:0.8;" x="57.6" xlink:href="#md2783371c3" y="30.334099"/>
      </g>
     </g>
     <g id="text_11">
      <!-- 1.0 -->
      <g transform="translate(25.155 36.412849)scale(0.16 -0.16)">
       <use xlink:href="#DejaVuSans-49"/>
       <use x="63.623047" xlink:href="#DejaVuSans-46"/>
       <use x="95.410156" xlink:href="#DejaVuSans-48"/>
      </g>
     </g>
    </g>
    <g id="text_12">
     <!-- Fraction of function,target pairs -->
     <g transform="translate(17.619531 297.681)rotate(-90)scale(0.17 -0.17)">
      <defs>
       <path d="M 9.8125 72.90625 
L 51.703125 72.90625 
L 51.703125 64.59375 
L 19.671875 64.59375 
L 19.671875 43.109375 
L 48.578125 43.109375 
L 48.578125 34.8125 
L 19.671875 34.8125 
L 19.671875 0 
L 9.8125 0 
z
" id="DejaVuSans-70"/>
       <path d="M 41.109375 46.296875 
Q 39.59375 47.171875 37.8125 47.578125 
Q 36.03125 48 33.890625 48 
Q 26.265625 48 22.1875 43.046875 
Q 18.109375 38.09375 18.109375 28.8125 
L 18.109375 0 
L 9.078125 0 
L 9.078125 54.6875 
L 18.109375 54.6875 
L 18.109375 46.1875 
Q 20.953125 51.171875 25.484375 53.578125 
Q 30.03125 56 36.53125 56 
Q 37.453125 56 38.578125 55.875 
Q 39.703125 55.765625 41.0625 55.515625 
z
" id="DejaVuSans-114"/>
       <path d="M 48.78125 52.59375 
L 48.78125 44.1875 
Q 44.96875 46.296875 41.140625 47.34375 
Q 37.3125 48.390625 33.40625 48.390625 
Q 24.65625 48.390625 19.8125 42.84375 
Q 14.984375 37.3125 14.984375 27.296875 
Q 14.984375 17.28125 19.8125 11.734375 
Q 24.65625 6.203125 33.40625 6.203125 
Q 37.3125 6.203125 41.140625 7.25 
Q 44.96875 8.296875 48.78125 10.40625 
L 48.78125 2.09375 
Q 45.015625 0.34375 40.984375 -0.53125 
Q 36.96875 -1.421875 32.421875 -1.421875 
Q 20.0625 -1.421875 12.78125 6.34375 
Q 5.515625 14.109375 5.515625 27.296875 
Q 5.515625 40.671875 12.859375 48.328125 
Q 20.21875 56 33.015625 56 
Q 37.15625 56 41.109375 55.140625 
Q 45.0625 54.296875 48.78125 52.59375 
z
" id="DejaVuSans-99"/>
       <path d="M 18.3125 70.21875 
L 18.3125 54.6875 
L 36.8125 54.6875 
L 36.8125 47.703125 
L 18.3125 47.703125 
L 18.3125 18.015625 
Q 18.3125 11.328125 20.140625 9.421875 
Q 21.96875 7.515625 27.59375 7.515625 
L 36.8125 7.515625 
L 36.8125 0 
L 27.59375 0 
Q 17.1875 0 13.234375 3.875 
Q 9.28125 7.765625 9.28125 18.015625 
L 9.28125 47.703125 
L 2.6875 47.703125 
L 2.6875 54.6875 
L 9.28125 54.6875 
L 9.28125 70.21875 
z
" id="DejaVuSans-116"/>
       <path d="M 8.5 21.578125 
L 8.5 54.6875 
L 17.484375 54.6875 
L 17.484375 21.921875 
Q 17.484375 14.15625 20.5 10.265625 
Q 23.53125 6.390625 29.59375 6.390625 
Q 36.859375 6.390625 41.078125 11.03125 
Q 45.3125 15.671875 45.3125 23.6875 
L 45.3125 54.6875 
L 54.296875 54.6875 
L 54.296875 0 
L 45.3125 0 
L 45.3125 8.40625 
Q 42.046875 3.421875 37.71875 1 
Q 33.40625 -1.421875 27.6875 -1.421875 
Q 18.265625 -1.421875 13.375 4.4375 
Q 8.5 10.296875 8.5 21.578125 
z
M 31.109375 56 
z
" id="DejaVuSans-117"/>
       <path d="M 11.71875 12.40625 
L 22.015625 12.40625 
L 22.015625 4 
L 14.015625 -11.625 
L 7.71875 -11.625 
L 11.71875 4 
z
" id="DejaVuSans-44"/>
       <path d="M 18.109375 8.203125 
L 18.109375 -20.796875 
L 9.078125 -20.796875 
L 9.078125 54.6875 
L 18.109375 54.6875 
L 18.109375 46.390625 
Q 20.953125 51.265625 25.265625 53.625 
Q 29.59375 56 35.59375 56 
Q 45.5625 56 51.78125 48.09375 
Q 58.015625 40.1875 58.015625 27.296875 
Q 58.015625 14.40625 51.78125 6.484375 
Q 45.5625 -1.421875 35.59375 -1.421875 
Q 29.59375 -1.421875 25.265625 0.953125 
Q 20.953125 3.328125 18.109375 8.203125 
z
M 48.6875 27.296875 
Q 48.6875 37.203125 44.609375 42.84375 
Q 40.53125 48.484375 33.40625 48.484375 
Q 26.265625 48.484375 22.1875 42.84375 
Q 18.109375 37.203125 18.109375 27.296875 
Q 18.109375 17.390625 22.1875 11.75 
Q 26.265625 6.109375 33.40625 6.109375 
Q 40.53125 6.109375 44.609375 11.75 
Q 48.6875 17.390625 48.6875 27.296875 
z
" id="DejaVuSans-112"/>
      </defs>
      <use xlink:href="#DejaVuSans-70"/>
      <use x="50.269531" xlink:href="#DejaVuSans-114"/>
      <use x="91.382812" xlink:href="#DejaVuSans-97"/>
      <use x="152.662109" xlink:href="#DejaVuSans-99"/>
      <use x="207.642578" xlink:href="#DejaVuSans-116"/>
      <use x="246.851562" xlink:href="#DejaVuSans-105"/>
      <use x="274.634766" xlink:href="#DejaVuSans-111"/>
      <use x="335.816406" xlink:href="#DejaVuSans-110"/>
      <use x="399.195312" xlink:href="#DejaVuSans-32"/>
      <use x="430.982422" xlink:href="#DejaVuSans-111"/>
      <use x="492.164062" xlink:href="#DejaVuSans-102"/>
      <use x="527.369141" xlink:href="#DejaVuSans-32"/>
      <use x="559.15625" xlink:href="#DejaVuSans-102"/>
      <use x="594.361328" xlink:href="#DejaVuSans-117"/>
      <use x="657.740234" xlink:href="#DejaVuSans-110"/>
      <use x="721.119141" xlink:href="#DejaVuSans-99"/>
      <use x="776.099609" xlink:href="#DejaVuSans-116"/>
      <use x="815.308594" xlink:href="#DejaVuSans-105"/>
      <use x="843.091797" xlink:href="#DejaVuSans-111"/>
      <use x="904.273438" xlink:href="#DejaVuSans-110"/>
      <use x="967.652344" xlink:href="#DejaVuSans-44"/>
      <use x="999.439453" xlink:href="#DejaVuSans-116"/>
      <use x="1038.648438" xlink:href="#DejaVuSans-97"/>
      <use x="1099.927734" xlink:href="#DejaVuSans-114"/>
      <use x="1139.291016" xlink:href="#DejaVuSans-103"/>
      <use x="1202.767578" xlink:href="#DejaVuSans-101"/>
      <use x="1264.291016" xlink:href="#DejaVuSans-116"/>
      <use x="1303.5" xlink:href="#DejaVuSans-32"/>
      <use x="1335.287109" xlink:href="#DejaVuSans-112"/>
      <use x="1398.763672" xlink:href="#DejaVuSans-97"/>
      <use x="1460.042969" xlink:href="#DejaVuSans-105"/>
      <use x="1487.826172" xlink:href="#DejaVuSans-114"/>
      <use x="1528.939453" xlink:href="#DejaVuSans-115"/>
     </g>
    </g>
   </g>
   <g id="line2d_33">
    <defs>
     <path d="M 0 1.5 
C 0.397805 1.5 0.77937 1.341951 1.06066 1.06066 
C 1.341951 0.77937 1.5 0.397805 1.5 0 
C 1.5 -0.397805 1.341951 -0.77937 1.06066 -1.06066 
C 0.77937 -1.341951 0.397805 -1.5 0 -1.5 
C -0.397805 -1.5 -0.77937 -1.341951 -1.06066 -1.06066 
C -1.341951 -0.77937 -1.5 -0.397805 -1.5 0 
C -1.5 0.397805 -1.341951 0.77937 -1.06066 1.06066 
C -0.77937 1.341951 -0.397805 1.5 0 1.5 
z
" id="m59648ae50a" style="stroke:#f5deb3;"/>
    </defs>
    <g>
     <use style="fill:#f5deb3;stroke:#f5deb3;" x="165.859305" xlink:href="#m59648ae50a" y="30.334099"/>
     <use style="fill:#f5deb3;stroke:#f5deb3;" x="165.859305" xlink:href="#m59648ae50a" y="30.334099"/>
    </g>
   </g>
   <g id="line2d_34">
    <defs>
     <path d="M 0 1.5 
C 0.397805 1.5 0.77937 1.341951 1.06066 1.06066 
C 1.341951 0.77937 1.5 0.397805 1.5 0 
C 1.5 -0.397805 1.341951 -0.77937 1.06066 -1.06066 
C 0.77937 -1.341951 0.397805 -1.5 0 -1.5 
C -0.397805 -1.5 -0.77937 -1.341951 -1.06066 -1.06066 
C -1.341951 -0.77937 -1.5 -0.397805 -1.5 0 
C -1.5 0.397805 -1.341951 0.77937 -1.06066 1.06066 
C -0.77937 1.341951 -0.397805 1.5 0 1.5 
z
" id="m1553c44cdf" style="stroke:#000080;"/>
    </defs>
    <g>
     <use style="fill:#000080;stroke:#000080;" x="173.238952" xlink:href="#m1553c44cdf" y="30.334099"/>
     <use style="fill:#000080;stroke:#000080;" x="173.238952" xlink:href="#m1553c44cdf" y="30.334099"/>
    </g>
   </g>
   <g id="line2d_35">
    <path d="M 17.444571 298.944 
L 17.444571 289.990337 
L 29.53256 289.990337 
L 29.53256 288.936964 
L 36.60358 288.936964 
L 36.60358 287.356906 
L 45.512012 287.356906 
L 45.512012 286.303534 
L 55.762588 286.303534 
L 55.762588 285.250162 
L 57.6 285.250162 
L 57.6 284.723476 
L 59.262141 284.723476 
L 59.262141 284.19679 
L 60.779557 284.19679 
L 60.779557 282.616732 
L 62.175444 282.616732 
L 62.175444 282.090045 
L 63.467834 282.090045 
L 63.467834 281.036673 
L 64.67102 281.036673 
L 64.67102 280.509987 
L 65.796525 280.509987 
L 65.796525 278.929929 
L 66.853775 278.929929 
L 66.853775 278.403243 
L 68.79347 278.403243 
L 68.79347 277.876557 
L 71.35013 277.876557 
L 71.35013 276.296499 
L 74.921597 276.296499 
L 74.921597 275.769812 
L 75.555822 275.769812 
L 75.555822 275.243126 
L 77.330839 275.243126 
L 77.330839 274.71644 
L 77.884514 274.71644 
L 77.884514 273.663068 
L 79.938565 273.663068 
L 79.938565 273.136382 
L 82.206598 273.136382 
L 82.206598 272.609696 
L 82.626842 272.609696 
L 82.626842 272.08301 
L 86.012784 272.08301 
L 86.012784 271.029638 
L 89.972502 271.029638 
L 89.972502 270.502952 
L 91.284345 270.502952 
L 91.284345 269.976266 
L 91.782644 269.976266 
L 91.782644 269.449579 
L 93.863965 269.449579 
L 93.863965 268.922893 
L 94.505975 268.922893 
L 94.505975 268.396207 
L 95.326798 268.396207 
L 95.326798 267.869521 
L 97.928955 267.869521 
L 97.928955 267.342835 
L 98.771596 267.342835 
L 98.771596 266.816149 
L 99.575392 266.816149 
L 99.575392 265.236091 
L 100.192776 265.236091 
L 100.192776 264.709405 
L 100.343767 264.709405 
L 100.343767 263.129347 
L 101.079711 263.129347 
L 101.079711 262.60266 
L 102.859376 262.60266 
L 102.859376 261.549288 
L 105.171792 261.549288 
L 105.171792 261.022602 
L 105.621863 261.022602 
L 105.621863 260.495916 
L 106.382575 260.495916 
L 106.382575 259.96923 
L 106.698704 259.96923 
L 106.698704 259.442544 
L 107.009204 259.442544 
L 107.009204 258.915858 
L 108.856871 258.915858 
L 108.856871 257.862486 
L 109.040444 257.862486 
L 109.040444 257.3358 
L 110.61104 257.3358 
L 110.61104 256.809114 
L 110.77713 256.809114 
L 110.77713 256.282427 
L 111.74176 256.282427 
L 111.819788 254.702369 
L 111.897469 254.702369 
L 111.897469 253.648997 
L 113.311233 253.648997 
L 113.382559 252.595625 
L 113.453595 252.595625 
L 113.524343 251.015567 
L 114.284194 251.015567 
L 114.284194 250.488881 
L 114.618932 250.488881 
L 114.618932 249.435508 
L 114.751048 249.435508 
L 114.751048 248.382136 
L 115.205729 248.382136 
L 115.205729 247.328764 
L 115.33349 247.328764 
L 115.33349 246.802078 
L 115.523393 246.802078 
L 115.523393 246.275392 
L 115.648856 246.275392 
L 115.648856 245.748706 
L 116.502698 245.748706 
L 116.502698 244.695334 
L 116.739166 244.695334 
L 116.739166 243.641962 
L 117.145424 243.641962 
L 117.202696 241.535217 
L 117.486268 241.535217 
L 117.486268 241.008531 
L 117.765302 241.008531 
L 117.820578 239.955159 
L 118.310324 239.955159 
L 118.310324 237.848415 
L 118.681952 237.848415 
L 118.681952 235.214984 
L 119.045825 235.214984 
L 119.045825 234.688298 
L 119.552816 234.688298 
L 119.552816 234.161612 
L 119.702083 234.161612 
L 119.702083 233.10824 
L 120.382253 233.10824 
L 120.47729 232.054868 
L 120.524615 232.054868 
L 120.524615 231.528182 
L 121.264855 231.528182 
L 121.264855 231.001496 
L 121.400219 231.001496 
L 121.445108 229.948123 
L 121.53454 229.948123 
L 121.53454 228.894751 
L 121.712041 228.894751 
L 121.712041 228.368065 
L 122.018385 228.368065 
L 122.018385 227.314693 
L 122.947573 227.314693 
L 122.947573 226.261321 
L 123.07053 226.261321 
L 123.07053 225.207949 
L 123.354102 225.207949 
L 123.394238 223.627891 
L 123.514096 223.627891 
L 123.514096 223.101204 
L 123.633136 223.101204 
L 123.633136 222.574518 
L 123.868806 222.574518 
L 123.94666 220.99446 
L 123.985457 220.99446 
L 123.985457 220.467774 
L 124.743806 220.467774 
L 124.854767 219.414402 
L 124.891598 219.414402 
L 124.92835 218.36103 
L 125.255688 218.36103 
L 125.291682 217.307658 
L 125.647598 217.307658 
L 125.647598 216.780971 
L 125.787955 216.780971 
L 125.787955 216.254285 
L 126.202373 216.254285 
L 126.202373 215.200913 
L 127.132689 215.200913 
L 127.132689 214.674227 
L 127.453273 214.674227 
L 127.48501 213.620855 
L 127.954256 213.620855 
L 127.985095 212.567483 
L 128.350967 212.567483 
L 128.350967 212.040797 
L 128.531065 212.040797 
L 128.560901 210.987425 
L 128.650105 210.987425 
L 128.709321 209.934052 
L 128.91501 209.934052 
L 128.91501 208.353994 
L 129.51791 208.353994 
L 129.51791 207.827308 
L 129.658437 207.827308 
L 129.742212 206.773936 
L 129.88095 206.773936 
L 129.963666 205.720564 
L 130.018593 205.720564 
L 130.018593 204.667192 
L 130.425122 204.667192 
L 130.478617 203.613819 
L 130.585116 203.613819 
L 130.664567 202.560447 
L 130.76994 202.560447 
L 130.76994 202.033761 
L 130.978796 202.033761 
L 130.978796 201.507075 
L 131.540579 201.507075 
L 131.540579 200.980389 
L 131.888878 200.980389 
L 131.888878 200.453703 
L 132.060454 200.453703 
L 132.060454 199.400331 
L 132.181982 199.400331 
L 132.206187 198.346959 
L 132.326708 198.346959 
L 132.350712 197.293586 
L 132.612604 197.293586 
L 132.70687 196.240214 
L 132.753813 196.240214 
L 132.753813 195.713528 
L 132.940331 195.713528 
L 132.940331 195.186842 
L 133.0559 195.186842 
L 133.101914 193.606784 
L 133.420657 193.606784 
L 133.420657 193.080098 
L 133.622529 193.080098 
L 133.622529 192.553412 
L 133.755823 192.553412 
L 133.844123 191.50004 
L 133.997581 191.50004 
L 133.997581 190.973354 
L 134.870259 190.973354 
L 134.870259 190.446667 
L 134.994383 190.446667 
L 135.035562 188.866609 
L 135.361539 188.866609 
L 135.361539 188.339923 
L 135.661706 188.339923 
L 135.661706 187.813237 
L 135.819708 187.813237 
L 135.917737 186.759865 
L 136.304433 186.759865 
L 136.361705 185.706493 
L 136.418789 185.706493 
L 136.418789 185.179807 
L 137.162581 185.179807 
L 137.162581 184.653121 
L 137.433523 184.653121 
L 137.433523 184.126434 
L 137.735587 184.126434 
L 137.735587 183.599748 
L 137.875944 183.599748 
L 137.875944 183.073062 
L 138.153314 183.073062 
L 138.153314 182.546376 
L 138.324456 182.546376 
L 138.341479 181.493004 
L 138.477062 181.493004 
L 138.477062 180.439632 
L 138.728473 180.439632 
L 138.728473 179.912946 
L 139.317473 179.912946 
L 139.317473 179.38626 
L 139.429726 179.38626 
L 139.429726 178.859574 
L 139.995884 178.859574 
L 140.103868 177.806202 
L 140.149942 177.806202 
L 140.149942 177.279515 
L 140.484155 177.279515 
L 140.529237 176.226143 
L 140.738093 176.226143 
L 140.738093 175.699457 
L 140.973763 175.699457 
L 141.017599 174.119399 
L 141.119455 174.119399 
L 141.119455 173.066027 
L 142.133981 173.066027 
L 142.133981 172.012655 
L 142.405626 172.012655 
L 142.432559 170.959282 
L 142.962669 170.959282 
L 142.962669 170.432596 
L 143.337167 170.432596 
L 143.337167 169.90591 
L 143.578237 169.90591 
L 143.578237 169.379224 
L 144.294175 169.379224 
L 144.294175 168.852538 
L 144.700592 168.852538 
L 144.806606 167.799166 
L 144.818346 167.799166 
L 144.841802 166.219108 
L 145.120836 166.219108 
L 145.120836 165.692422 
L 145.281568 165.692422 
L 145.361382 164.63905 
L 145.418169 164.63905 
L 145.418169 164.112363 
L 146.030918 164.112363 
L 146.08557 162.532305 
L 146.226867 162.532305 
L 146.334784 161.478933 
L 146.559258 161.478933 
L 146.569876 160.425561 
L 146.675697 160.425561 
L 146.675697 159.898875 
L 146.978997 159.898875 
L 146.978997 158.318817 
L 147.56019 158.318817 
L 147.56019 157.265444 
L 147.749695 157.265444 
L 147.749695 156.212072 
L 148.151743 156.212072 
L 148.151743 155.685386 
L 148.373289 155.685386 
L 148.373289 155.1587 
L 148.705114 155.1587 
L 148.705114 154.632014 
L 149.085961 154.632014 
L 149.085961 154.105328 
L 149.268764 154.105328 
L 149.268764 153.578642 
L 149.65542 153.578642 
L 149.673197 152.52527 
L 150.068464 152.52527 
L 150.120495 151.471897 
L 150.18963 151.471897 
L 150.18963 150.945211 
L 150.51433 150.945211 
L 150.598782 149.891839 
L 150.766468 149.891839 
L 150.766468 149.365153 
L 150.965587 149.365153 
L 151.031458 147.258409 
L 151.154299 147.258409 
L 151.154299 146.731723 
L 151.292481 146.731723 
L 151.292481 146.205037 
L 151.61336 146.205037 
L 151.684751 145.151665 
L 152.245598 145.151665 
L 152.245598 144.624978 
L 152.511852 144.624978 
L 152.579665 143.04492 
L 152.796398 143.04492 
L 152.892686 141.464862 
L 153.098289 141.464862 
L 153.13475 140.41149 
L 153.279836 140.41149 
L 153.31592 139.358118 
L 153.438049 139.358118 
L 153.438049 138.831432 
L 153.552218 138.831432 
L 153.644434 137.251373 
L 154.015422 137.251373 
L 154.112115 135.671315 
L 154.56087 135.671315 
L 154.56087 135.144629 
L 154.71458 135.144629 
L 154.8141 133.564571 
L 155.070227 133.564571 
L 155.070227 133.037885 
L 155.463441 133.037885 
L 155.520713 131.984513 
L 155.641006 131.984513 
L 155.653621 130.93114 
L 155.785523 130.93114 
L 155.891575 129.351082 
L 155.959855 129.351082 
L 155.959855 128.824396 
L 156.107908 128.824396 
L 156.156981 127.771024 
L 156.291223 127.771024 
L 156.30945 126.717652 
L 156.430472 126.717652 
L 156.436501 125.66428 
L 156.664077 125.66428 
L 156.747178 124.084221 
L 156.835778 124.084221 
L 156.835778 123.557535 
L 157.116308 123.557535 
L 157.168409 122.504163 
L 157.323784 122.504163 
L 157.340963 121.450791 
L 157.596634 121.450791 
L 157.647321 120.397419 
L 157.992555 120.397419 
L 158.064083 118.817361 
L 158.113432 118.817361 
L 158.20082 117.763988 
L 158.379686 117.763988 
L 158.481843 116.18393 
L 158.631308 116.18393 
L 158.657864 115.130558 
L 158.821615 115.130558 
L 158.821615 114.603872 
L 159.004665 114.603872 
L 159.108409 113.5505 
L 159.211539 113.5505 
L 159.308951 112.497128 
L 159.486982 112.497128 
L 159.486982 111.443755 
L 159.733212 111.443755 
L 159.733212 110.917069 
L 159.852557 110.917069 
L 159.931669 109.863697 
L 160.049669 109.863697 
L 160.137647 108.283639 
L 160.307457 108.283639 
L 160.307457 107.756953 
L 160.494745 107.756953 
L 160.494745 107.230267 
L 160.684769 107.230267 
L 160.703658 106.176895 
L 160.956678 106.176895 
L 160.989209 105.123522 
L 161.127947 105.123522 
L 161.238149 104.07015 
L 161.506136 104.07015 
L 161.578106 103.016778 
L 161.698887 103.016778 
L 161.698887 102.490092 
L 162.051921 102.490092 
L 162.126028 100.383348 
L 162.182487 100.383348 
L 162.290551 97.749917 
L 162.316387 97.749917 
L 162.389382 96.696545 
L 162.427903 96.696545 
L 162.470604 95.643173 
L 162.606551 95.643173 
L 162.669913 94.589801 
L 163.111226 94.589801 
L 163.185069 92.483056 
L 163.250446 92.483056 
L 163.250446 91.95637 
L 163.477355 91.95637 
L 163.477355 91.429684 
L 163.613694 91.429684 
L 163.677486 89.849626 
L 163.741046 89.849626 
L 163.804376 87.742882 
L 163.930348 87.742882 
L 163.930348 87.216196 
L 164.22208 87.216196 
L 164.22208 86.68951 
L 164.364222 86.68951 
L 164.394804 85.109451 
L 164.50142 85.109451 
L 164.50142 84.582765 
L 164.667654 84.582765 
L 164.77262 83.002707 
L 164.783829 83.002707 
L 164.783829 82.476021 
L 164.991751 82.476021 
L 165.09479 79.842591 
L 165.22638 79.842591 
L 165.22638 79.315904 
L 165.414719 79.315904 
L 165.515296 77.735846 
L 165.565368 77.735846 
L 165.565368 77.20916 
L 165.845252 77.20916 
L 165.845252 76.682474 
L 165.957358 76.682474 
L 166.061806 75.102416 
L 166.096483 75.102416 
L 166.099947 74.049044 
L 166.224193 74.049044 
L 166.224193 73.522358 
L 166.415723 73.522358 
L 166.493781 70.888927 
L 166.527611 70.888927 
L 166.632069 69.308869 
L 166.668984 69.308869 
L 166.769268 68.255497 
L 166.981298 68.255497 
L 166.981298 67.728811 
L 167.167992 67.728811 
L 167.249248 66.148752 
L 167.349484 66.148752 
L 167.349484 65.622066 
L 167.497166 65.622066 
L 167.532297 64.568694 
L 167.627751 64.568694 
L 167.697419 63.515322 
L 167.760513 63.515322 
L 167.835927 62.46195 
L 167.929737 62.46195 
L 167.96712 61.408578 
L 168.050941 61.408578 
L 168.050941 60.881892 
L 168.22045 60.881892 
L 168.300012 59.82852 
L 168.530517 59.82852 
L 168.60568 57.721775 
L 168.671556 57.721775 
L 168.72825 56.141717 
L 168.790698 56.141717 
L 168.85588 54.561659 
L 168.926712 54.561659 
L 168.991389 53.508287 
L 169.090875 53.508287 
L 169.201398 51.928228 
L 169.506047 51.928228 
L 169.588476 50.874856 
L 169.61964 50.874856 
L 169.6253 49.821484 
L 169.740933 49.821484 
L 169.811066 48.768112 
L 169.894855 48.768112 
L 169.919913 47.71474 
L 170.168537 47.71474 
L 170.264275 46.134681 
L 170.335056 46.134681 
L 170.335056 45.607995 
L 170.505381 45.607995 
L 170.58055 44.554623 
L 170.679387 44.554623 
L 170.767069 42.974565 
L 170.985671 42.974565 
L 170.985671 42.447879 
L 171.134225 42.447879 
L 171.134225 41.921193 
L 171.399496 41.921193 
L 171.440343 40.867821 
L 171.638115 40.867821 
L 171.738674 39.814448 
L 171.928152 39.814448 
L 171.938067 38.761076 
L 172.179258 38.761076 
L 172.276753 36.654332 
L 172.366452 36.654332 
L 172.450881 34.547588 
L 172.575567 34.547588 
L 172.575567 34.020902 
L 172.751483 34.020902 
L 172.810515 32.967529 
L 172.927984 32.967529 
L 173.03536 31.387471 
L 173.236652 31.387471 
L 173.238952 30.334099 
L 338.688 30.334099 
L 338.688 30.334099 
" style="fill:none;stroke:#000080;stroke-linecap:square;stroke-width:1.5;"/>
   </g>
   <g id="line2d_36">
    <defs>
     <path d="M 0 6 
C 1.591219 6 3.117479 5.367802 4.242641 4.242641 
C 5.367802 3.117479 6 1.591219 6 0 
C 6 -1.591219 5.367802 -3.117479 4.242641 -4.242641 
C 3.117479 -5.367802 1.591219 -6 0 -6 
C -1.591219 -6 -3.117479 -5.367802 -4.242641 -4.242641 
C -5.367802 -3.117479 -6 -1.591219 -6 0 
C -6 1.591219 -5.367802 3.117479 -4.242641 4.242641 
C -3.117479 5.367802 -1.591219 6 0 6 
z
" id="m7985c9dc20" style="stroke:#000080;stroke-width:1.5;"/>
    </defs>
    <g>
     <use style="fill-opacity:0;stroke:#000080;stroke-width:1.5;" x="128.560901" xlink:href="#m7985c9dc20" y="210.987425"/>
     <use style="fill-opacity:0;stroke:#000080;stroke-width:1.5;" x="164.394804" xlink:href="#m7985c9dc20" y="85.109451"/>
     <use style="fill-opacity:0;stroke:#000080;stroke-width:1.5;" x="173.238952" xlink:href="#m7985c9dc20" y="30.334099"/>
     <use style="fill-opacity:0;stroke:#000080;stroke-width:1.5;" x="173.238952" xlink:href="#m7985c9dc20" y="30.334099"/>
     <use style="fill-opacity:0;stroke:#000080;stroke-width:1.5;" x="338.688" xlink:href="#m7985c9dc20" y="30.334099"/>
    </g>
   </g>
   <g id="line2d_37">
    <path style="fill:none;stroke:#000080;stroke-linecap:square;stroke-width:1.5;"/>
    <g/>
   </g>
   <g id="line2d_38">
    <defs>
     <path d="M 0 1.5 
C 0.397805 1.5 0.77937 1.341951 1.06066 1.06066 
C 1.341951 0.77937 1.5 0.397805 1.5 0 
C 1.5 -0.397805 1.341951 -0.77937 1.06066 -1.06066 
C 0.77937 -1.341951 0.397805 -1.5 0 -1.5 
C -0.397805 -1.5 -0.77937 -1.341951 -1.06066 -1.06066 
C -1.341951 -0.77937 -1.5 -0.397805 -1.5 0 
C -1.5 0.397805 -1.341951 0.77937 -1.06066 1.06066 
C -0.77937 1.341951 -0.397805 1.5 0 1.5 
z
" id="m32fb312ecc" style="stroke:#ff00ff;"/>
    </defs>
    <g>
     <use style="fill:#ff00ff;stroke:#ff00ff;" x="305.743748" xlink:href="#m32fb312ecc" y="109.337011"/>
     <use style="fill:#ff00ff;stroke:#ff00ff;" x="305.743748" xlink:href="#m32fb312ecc" y="109.337011"/>
    </g>
   </g>
   <g id="line2d_39">
    <path d="M 17.444571 298.944 
L 17.444571 294.203825 
L 29.53256 294.203825 
L 29.53256 290.517023 
L 36.60358 290.517023 
L 36.60358 285.776848 
L 41.620548 285.776848 
L 41.620548 284.723476 
L 51.379845 284.723476 
L 51.379845 282.616732 
L 59.262141 282.616732 
L 59.262141 281.563359 
L 63.467834 281.563359 
L 63.467834 281.036673 
L 64.67102 281.036673 
L 64.67102 280.509987 
L 66.853775 280.509987 
L 66.853775 279.983301 
L 67.850577 279.983301 
L 67.850577 279.456615 
L 68.79347 279.456615 
L 68.79347 278.929929 
L 74.921597 278.929929 
L 74.921597 278.403243 
L 76.16779 278.403243 
L 76.16779 277.876557 
L 82.206598 277.876557 
L 82.206598 277.349871 
L 86.351421 277.349871 
L 86.351421 276.823185 
L 86.683608 276.823185 
L 86.683608 276.296499 
L 87.329581 276.296499 
L 87.329581 275.769812 
L 87.952479 275.769812 
L 87.952479 274.71644 
L 89.972502 274.71644 
L 89.972502 274.189754 
L 93.197415 274.189754 
L 93.197415 273.136382 
L 93.644601 273.136382 
L 93.644601 272.609696 
L 94.921215 272.609696 
L 94.921215 272.08301 
L 95.326798 272.08301 
L 95.326798 271.556324 
L 95.723163 271.556324 
L 95.723163 270.502952 
L 102.196206 270.502952 
L 102.196206 269.976266 
L 103.498249 269.976266 
L 103.498249 269.449579 
L 104.23523 269.449579 
L 104.23523 268.922893 
L 105.285403 268.922893 
L 105.285403 268.396207 
L 106.168594 268.396207 
L 106.168594 267.869521 
L 108.483824 267.869521 
L 108.483824 267.342835 
L 109.31223 267.342835 
L 109.31223 266.816149 
L 110.274038 266.816149 
L 110.274038 266.289463 
L 111.505558 266.289463 
L 111.505558 265.762777 
L 111.74176 265.762777 
L 111.74176 265.236091 
L 112.950158 265.236091 
L 112.950158 264.709405 
L 113.167699 264.709405 
L 113.167699 264.182719 
L 113.382559 264.182719 
L 113.382559 263.656033 
L 115.586238 263.656033 
L 115.586238 263.129347 
L 116.141872 263.129347 
L 116.141872 262.60266 
L 118.256582 262.60266 
L 118.310324 261.549288 
L 119.702083 261.549288 
L 119.702083 261.022602 
L 120.33454 261.022602 
L 120.33454 260.495916 
L 121.310093 260.495916 
L 121.400219 259.442544 
L 122.104932 259.442544 
L 122.104932 258.915858 
L 122.362027 258.915858 
L 122.362027 258.389172 
L 123.94666 258.389172 
L 123.94666 257.862486 
L 124.216444 257.862486 
L 124.216444 256.809114 
L 124.854767 256.809114 
L 124.854767 255.755741 
L 125.110962 255.755741 
L 125.110962 255.229055 
L 125.752972 255.229055 
L 125.752972 254.702369 
L 126.338353 254.702369 
L 126.338353 254.175683 
L 127.705564 254.175683 
L 127.705564 253.648997 
L 128.015879 253.648997 
L 128.015879 253.122311 
L 130.127931 253.122311 
L 130.127931 252.595625 
L 131.030622 252.595625 
L 131.030622 252.068939 
L 132.30267 252.068939 
L 132.30267 251.015567 
L 132.494049 251.015567 
L 132.494049 250.488881 
L 132.963507 250.488881 
L 132.963507 249.962195 
L 133.375477 249.962195 
L 133.443203 248.908822 
L 133.888106 248.908822 
L 133.888106 248.382136 
L 136.380754 248.382136 
L 136.380754 247.85545 
L 136.5324 247.85545 
L 136.570107 246.802078 
L 137.361683 246.802078 
L 137.361683 245.748706 
L 138.811478 245.748706 
L 138.811478 245.22202 
L 139.285267 245.22202 
L 139.285267 244.695334 
L 139.793552 244.695334 
L 139.8092 243.641962 
L 140.057671 243.641962 
L 140.057671 243.115275 
L 140.499195 243.115275 
L 140.499195 242.588589 
L 140.79731 242.588589 
L 140.79731 242.061903 
L 141.435758 242.061903 
L 141.435758 241.535217 
L 141.774395 241.535217 
L 141.774395 241.008531 
L 142.065403 241.008531 
L 142.065403 240.481845 
L 142.351634 240.481845 
L 142.351634 239.955159 
L 143.170282 239.955159 
L 143.170282 239.428473 
L 144.001481 239.428473 
L 144.001481 238.901787 
L 144.747789 238.901787 
L 144.747789 238.375101 
L 144.981877 238.375101 
L 144.981877 237.848415 
L 145.178411 237.848415 
L 145.178411 237.321729 
L 145.315819 237.321729 
L 145.315819 236.795043 
L 145.643486 236.795043 
L 145.665858 235.74167 
L 146.150926 235.74167 
L 146.150926 235.214984 
L 146.270114 235.214984 
L 146.302479 233.634926 
L 146.431341 233.634926 
L 146.431341 233.10824 
L 146.875005 233.10824 
L 146.875005 232.581554 
L 147.429332 232.581554 
L 147.429332 232.054868 
L 147.690073 232.054868 
L 147.690073 231.528182 
L 148.1808 231.528182 
L 148.1808 231.001496 
L 148.45922 231.001496 
L 148.554206 229.421437 
L 148.891932 229.421437 
L 148.910504 228.368065 
L 149.259669 228.368065 
L 149.259669 227.841379 
L 149.744125 227.841379 
L 149.744125 227.314693 
L 150.007563 227.314693 
L 150.094499 226.261321 
L 151.260066 226.261321 
L 151.260066 225.734635 
L 151.740076 225.734635 
L 151.740076 225.207949 
L 151.920633 225.207949 
L 151.920633 224.681263 
L 152.083873 224.681263 
L 152.083873 224.154577 
L 152.314453 224.154577 
L 152.314453 223.627891 
L 153.221946 223.627891 
L 153.243677 222.574518 
L 153.387864 222.574518 
L 153.387864 222.047832 
L 153.820412 222.047832 
L 153.820412 221.521146 
L 153.952977 221.521146 
L 153.952977 220.99446 
L 154.146519 220.99446 
L 154.146519 220.467774 
L 154.794242 220.467774 
L 154.794242 219.414402 
L 154.926208 219.414402 
L 154.93278 218.36103 
L 155.354745 218.36103 
L 155.386785 217.307658 
L 155.747938 217.307658 
L 155.747938 216.780971 
L 155.996986 216.780971 
L 155.996986 216.254285 
L 156.279062 216.254285 
L 156.357959 215.200913 
L 156.616413 215.200913 
L 156.616413 214.674227 
L 156.953214 214.674227 
L 156.959066 213.620855 
L 157.63607 213.620855 
L 157.63607 213.094169 
L 157.837488 213.094169 
L 157.837488 212.567483 
L 158.905533 212.567483 
L 158.905533 212.040797 
L 159.334496 212.040797 
L 159.334496 211.514111 
L 160.025151 211.514111 
L 160.025151 210.987425 
L 160.341221 210.987425 
L 160.341221 210.460738 
L 160.537682 210.460738 
L 160.537682 209.934052 
L 160.656397 209.934052 
L 160.750792 208.353994 
L 160.993852 208.353994 
L 160.993852 207.827308 
L 161.173949 207.827308 
L 161.173949 207.300622 
L 161.311231 207.300622 
L 161.329454 206.24725 
L 161.524156 206.24725 
L 161.524156 205.720564 
L 161.876297 205.720564 
L 161.876297 204.667192 
L 162.564181 204.667192 
L 162.564181 204.140506 
L 163.061823 204.140506 
L 163.061823 203.613819 
L 163.225959 203.613819 
L 163.225959 203.087133 
L 163.525596 203.087133 
L 163.565696 200.980389 
L 163.713267 200.980389 
L 163.713267 200.453703 
L 163.883215 200.453703 
L 163.883215 199.927017 
L 164.094319 199.927017 
L 164.15638 198.873645 
L 164.546914 198.873645 
L 164.546914 198.346959 
L 165.251852 198.346959 
L 165.251852 197.820273 
L 165.848767 197.820273 
L 165.848767 197.293586 
L 166.006178 197.293586 
L 166.006178 196.7669 
L 166.179429 196.7669 
L 166.179429 196.240214 
L 166.442913 196.240214 
L 166.442913 195.713528 
L 166.722541 195.713528 
L 166.722541 195.186842 
L 167.381695 195.186842 
L 167.381695 194.660156 
L 167.509949 194.660156 
L 167.545055 193.606784 
L 167.835927 193.606784 
L 167.835927 193.080098 
L 168.032349 193.080098 
L 168.032349 192.553412 
L 168.229649 192.553412 
L 168.229649 192.026726 
L 168.701418 192.026726 
L 168.701418 191.50004 
L 169.09671 191.50004 
L 169.09671 190.973354 
L 169.316986 190.973354 
L 169.316986 190.446667 
L 169.571453 190.446667 
L 169.571453 189.919981 
L 169.87534 189.919981 
L 169.897641 188.339923 
L 170.499999 188.339923 
L 170.58055 187.286551 
L 170.631374 187.286551 
L 170.703344 186.233179 
L 171.663309 186.233179 
L 171.69852 185.179807 
L 171.856094 185.179807 
L 171.947978 184.126434 
L 172.167033 184.126434 
L 172.189032 183.073062 
L 172.649478 183.073062 
L 172.649478 182.546376 
L 173.374132 182.546376 
L 173.399219 181.493004 
L 173.744474 181.493004 
L 173.853616 180.439632 
L 173.911252 180.439632 
L 173.911252 179.912946 
L 174.034747 179.912946 
L 174.096169 178.859574 
L 174.479513 178.859574 
L 174.479513 178.332888 
L 174.787391 178.332888 
L 174.787391 177.806202 
L 175.305777 177.806202 
L 175.326195 176.752829 
L 175.510911 176.752829 
L 175.619605 175.699457 
L 175.910134 175.699457 
L 175.994786 174.646085 
L 176.240496 174.646085 
L 176.240496 174.119399 
L 176.638688 174.119399 
L 176.638688 173.592713 
L 177.199282 173.592713 
L 177.199282 173.066027 
L 178.139377 173.066027 
L 178.155 172.012655 
L 178.512213 172.012655 
L 178.512213 171.485969 
L 178.659481 171.485969 
L 178.659481 170.959282 
L 179.414889 170.959282 
L 179.414889 170.432596 
L 179.599535 170.432596 
L 179.636231 169.379224 
L 179.892533 169.379224 
L 179.892533 168.852538 
L 180.219266 168.852538 
L 180.219266 168.325852 
L 181.221119 168.325852 
L 181.221119 167.799166 
L 181.578358 167.799166 
L 181.578358 167.27248 
L 181.781069 167.27248 
L 181.795157 166.219108 
L 182.349535 166.219108 
L 182.349535 165.692422 
L 182.525979 165.692422 
L 182.525979 165.165736 
L 183.662959 165.165736 
L 183.662959 164.63905 
L 185.055732 164.63905 
L 185.055732 164.112363 
L 185.278571 164.112363 
L 185.278571 163.585677 
L 185.483789 163.585677 
L 185.556581 162.532305 
L 185.787717 162.532305 
L 185.787717 162.005619 
L 186.420143 162.005619 
L 186.420143 161.478933 
L 186.75288 161.478933 
L 186.804731 160.425561 
L 187.123016 160.425561 
L 187.123016 159.898875 
L 187.275894 159.898875 
L 187.28412 158.845503 
L 187.573642 158.845503 
L 187.573642 158.318817 
L 188.161154 158.318817 
L 188.161154 157.79213 
L 189.268015 157.79213 
L 189.268015 157.265444 
L 189.693064 157.265444 
L 189.693064 156.738758 
L 189.93226 156.738758 
L 189.93226 156.212072 
L 190.118487 156.212072 
L 190.118487 155.685386 
L 191.174555 155.685386 
L 191.174555 155.1587 
L 191.326041 155.1587 
L 191.358623 154.105328 
L 191.539158 154.105328 
L 191.539158 153.578642 
L 191.976594 153.578642 
L 191.976594 153.051956 
L 194.32599 153.051956 
L 194.32599 152.52527 
L 194.72301 152.52527 
L 194.72301 151.998584 
L 195.092151 151.998584 
L 195.092151 151.471897 
L 195.431748 151.471897 
L 195.530686 150.418525 
L 197.515269 150.418525 
L 197.515269 149.891839 
L 197.81568 149.891839 
L 197.81568 149.365153 
L 198.378571 149.365153 
L 198.378571 148.838467 
L 200.090058 148.838467 
L 200.161924 147.785095 
L 200.702161 147.785095 
L 200.702161 147.258409 
L 201.236791 147.258409 
L 201.236791 146.731723 
L 201.533081 146.731723 
L 201.576618 145.678351 
L 203.387104 145.678351 
L 203.387104 145.151665 
L 203.648476 145.151665 
L 203.648476 144.624978 
L 205.066904 144.624978 
L 205.066904 144.098292 
L 205.383993 144.098292 
L 205.383993 143.571606 
L 205.992244 143.571606 
L 205.992244 143.04492 
L 206.111389 143.04492 
L 206.111389 142.518234 
L 206.718153 142.518234 
L 206.718153 141.991548 
L 209.379137 141.991548 
L 209.379137 141.464862 
L 210.339593 141.464862 
L 210.339593 140.938176 
L 211.118576 140.938176 
L 211.118576 140.41149 
L 211.320508 140.41149 
L 211.320508 139.884804 
L 211.805138 139.884804 
L 211.805138 139.358118 
L 211.923156 139.358118 
L 211.923156 138.831432 
L 212.955569 138.831432 
L 212.955569 138.304745 
L 215.195021 138.304745 
L 215.195021 137.778059 
L 215.638656 137.778059 
L 215.638656 137.251373 
L 215.797493 137.251373 
L 215.797493 136.724687 
L 218.121149 136.724687 
L 218.121149 136.198001 
L 219.46232 136.198001 
L 219.46232 135.671315 
L 220.441463 135.671315 
L 220.47046 134.617943 
L 221.035599 134.617943 
L 221.035599 134.091257 
L 221.551472 134.091257 
L 221.551472 133.564571 
L 222.638005 133.564571 
L 222.638005 133.037885 
L 223.920316 133.037885 
L 223.920316 132.511199 
L 227.71916 132.511199 
L 227.825962 130.93114 
L 229.419131 130.93114 
L 229.419131 130.404454 
L 230.085304 130.404454 
L 230.085304 129.877768 
L 230.337148 129.877768 
L 230.379929 128.824396 
L 230.516953 128.824396 
L 230.616021 127.771024 
L 231.596536 127.771024 
L 231.596536 127.244338 
L 232.063791 127.244338 
L 232.063791 126.717652 
L 232.570018 126.717652 
L 232.570018 126.190966 
L 236.282788 126.190966 
L 236.282788 125.66428 
L 236.474636 125.66428 
L 236.474636 125.137593 
L 237.764322 125.137593 
L 237.764322 124.610907 
L 238.365878 124.610907 
L 238.365878 124.084221 
L 239.068475 124.084221 
L 239.068475 123.557535 
L 239.616843 123.557535 
L 239.616843 123.030849 
L 240.125362 123.030849 
L 240.156871 121.977477 
L 241.842982 121.977477 
L 241.842982 121.450791 
L 244.639231 121.450791 
L 244.639231 120.924105 
L 245.743651 120.924105 
L 245.743651 120.397419 
L 250.069714 120.397419 
L 250.069714 119.870733 
L 255.56616 119.870733 
L 255.579166 118.817361 
L 256.295369 118.817361 
L 256.295369 118.290674 
L 263.18492 118.290674 
L 263.18492 117.763988 
L 273.034178 117.763988 
L 273.034178 117.237302 
L 275.181118 117.237302 
L 275.181118 116.18393 
L 278.225933 116.18393 
L 278.225933 115.657244 
L 283.072997 115.657244 
L 283.072997 115.130558 
L 283.884907 115.130558 
L 283.884907 114.603872 
L 285.795906 114.603872 
L 285.795906 114.077186 
L 289.085266 114.077186 
L 289.085266 113.5505 
L 296.928132 113.5505 
L 296.928132 113.023814 
L 299.902847 113.023814 
L 299.902847 112.497128 
L 301.152509 112.497128 
L 301.152509 111.970441 
L 301.444772 111.970441 
L 301.444772 111.443755 
L 301.887148 111.443755 
L 301.887148 110.917069 
L 302.167452 110.917069 
L 302.167452 110.390383 
L 303.528733 110.390383 
L 303.528733 109.863697 
L 305.743748 109.863697 
L 305.743748 109.337011 
L 338.688 109.337011 
L 338.688 109.337011 
" style="fill:none;stroke:#ff00ff;stroke-linecap:square;stroke-width:1.5;"/>
   </g>
   <g id="line2d_40">
    <defs>
     <path d="M -0 8.485281 
L 5.091169 0 
L 0 -8.485281 
L -5.091169 -0 
z
" id="m42c4c3875d" style="stroke:#ff00ff;stroke-linejoin:miter;stroke-width:1.5;"/>
    </defs>
    <g>
     <use style="fill-opacity:0;stroke:#ff00ff;stroke-linejoin:miter;stroke-width:1.5;" x="106.168594" xlink:href="#m42c4c3875d" y="267.869521"/>
     <use style="fill-opacity:0;stroke:#ff00ff;stroke-linejoin:miter;stroke-width:1.5;" x="156.959066" xlink:href="#m42c4c3875d" y="214.147541"/>
     <use style="fill-opacity:0;stroke:#ff00ff;stroke-linejoin:miter;stroke-width:1.5;" x="209.379137" xlink:href="#m42c4c3875d" y="141.464862"/>
     <use style="fill-opacity:0;stroke:#ff00ff;stroke-linejoin:miter;stroke-width:1.5;" x="305.743748" xlink:href="#m42c4c3875d" y="109.863697"/>
     <use style="fill-opacity:0;stroke:#ff00ff;stroke-linejoin:miter;stroke-width:1.5;" x="305.743748" xlink:href="#m42c4c3875d" y="109.337011"/>
     <use style="fill-opacity:0;stroke:#ff00ff;stroke-linejoin:miter;stroke-width:1.5;" x="338.688" xlink:href="#m42c4c3875d" y="109.337011"/>
    </g>
   </g>
   <g id="line2d_41">
    <path style="fill:none;stroke:#ff00ff;stroke-linecap:square;stroke-width:1.5;"/>
    <g/>
   </g>
   <g id="line2d_42">
    <path clip-path="url(#p5a31afc601)" d="M 246.289154 120.397419 
" style="fill:none;stroke:#ff00ff;stroke-linecap:square;stroke-width:1.5;"/>
    <defs>
     <path d="M -12 12 
L 12 -12 
M -12 -12 
L 12 12 
" id="m00f840460b" style="stroke:#ff00ff;"/>
    </defs>
    <g clip-path="url(#p5a31afc601)">
     <use style="fill:#ff00ff;stroke:#ff00ff;" x="246.289154" xlink:href="#m00f840460b" y="120.397419"/>
    </g>
   </g>
   <g id="line2d_43">
    <path d="M 338.688 109.337011 
L 369.60768 293.571802 
" style="fill:none;stroke:#ff00ff;stroke-linecap:square;stroke-width:1.5;"/>
    <g>
     <use style="fill-opacity:0;stroke:#ff00ff;stroke-linejoin:miter;stroke-width:1.5;" x="338.688" xlink:href="#m42c4c3875d" y="109.337011"/>
     <use style="fill-opacity:0;stroke:#ff00ff;stroke-linejoin:miter;stroke-width:1.5;" x="369.60768" xlink:href="#m42c4c3875d" y="293.571802"/>
    </g>
   </g>
   <g id="line2d_44">
    <path d="M 338.688 30.334099 
L 369.60768 164.63905 
" style="fill:none;stroke:#000080;stroke-linecap:square;stroke-width:1.5;"/>
    <g>
     <use style="fill-opacity:0;stroke:#000080;stroke-width:1.5;" x="338.688" xlink:href="#m7985c9dc20" y="30.334099"/>
     <use style="fill-opacity:0;stroke:#000080;stroke-width:1.5;" x="369.60768" xlink:href="#m7985c9dc20" y="164.63905"/>
    </g>
   </g>
   <g id="line2d_45">
    <path d="M 338.688 298.944 
L 338.688 30.334099 
" style="fill:none;stroke:#000000;stroke-linecap:square;stroke-width:1.5;"/>
   </g>
   <g id="patch_3">
    <path d="M 57.6 298.944 
L 57.6 27.648 
" style="fill:none;stroke:#000000;stroke-linecap:square;stroke-linejoin:miter;stroke-width:0.8;"/>
   </g>
   <g id="patch_4">
    <path d="M 338.688 298.944 
L 338.688 27.648 
" style="fill:none;stroke:#000000;stroke-linecap:square;stroke-linejoin:miter;stroke-width:0.8;"/>
   </g>
   <g id="patch_5">
    <path d="M 57.6 298.944 
L 338.688 298.944 
" style="fill:none;stroke:#000000;stroke-linecap:square;stroke-linejoin:miter;stroke-width:0.8;"/>
   </g>
   <g id="patch_6">
    <path d="M 57.6 27.648 
L 338.688 27.648 
" style="fill:none;stroke:#000000;stroke-linecap:square;stroke-linejoin:miter;stroke-width:0.8;"/>
   </g>
   <g id="text_13">
    <!-- PSO -->
    <g transform="translate(375.22944 298.262739)scale(0.17 -0.17)">
     <defs>
      <path d="M 19.671875 64.796875 
L 19.671875 37.40625 
L 32.078125 37.40625 
Q 38.96875 37.40625 42.71875 40.96875 
Q 46.484375 44.53125 46.484375 51.125 
Q 46.484375 57.671875 42.71875 61.234375 
Q 38.96875 64.796875 32.078125 64.796875 
z
M 9.8125 72.90625 
L 32.078125 72.90625 
Q 44.34375 72.90625 50.609375 67.359375 
Q 56.890625 61.8125 56.890625 51.125 
Q 56.890625 40.328125 50.609375 34.8125 
Q 44.34375 29.296875 32.078125 29.296875 
L 19.671875 29.296875 
L 19.671875 0 
L 9.8125 0 
z
" id="DejaVuSans-80"/>
      <path d="M 53.515625 70.515625 
L 53.515625 60.890625 
Q 47.90625 63.578125 42.921875 64.890625 
Q 37.9375 66.21875 33.296875 66.21875 
Q 25.25 66.21875 20.875 63.09375 
Q 16.5 59.96875 16.5 54.203125 
Q 16.5 49.359375 19.40625 46.890625 
Q 22.3125 44.4375 30.421875 42.921875 
L 36.375 41.703125 
Q 47.40625 39.59375 52.65625 34.296875 
Q 57.90625 29 57.90625 20.125 
Q 57.90625 9.515625 50.796875 4.046875 
Q 43.703125 -1.421875 29.984375 -1.421875 
Q 24.8125 -1.421875 18.96875 -0.25 
Q 13.140625 0.921875 6.890625 3.21875 
L 6.890625 13.375 
Q 12.890625 10.015625 18.65625 8.296875 
Q 24.421875 6.59375 29.984375 6.59375 
Q 38.421875 6.59375 43.015625 9.90625 
Q 47.609375 13.234375 47.609375 19.390625 
Q 47.609375 24.75 44.3125 27.78125 
Q 41.015625 30.8125 33.5 32.328125 
L 27.484375 33.5 
Q 16.453125 35.6875 11.515625 40.375 
Q 6.59375 45.0625 6.59375 53.421875 
Q 6.59375 63.09375 13.40625 68.65625 
Q 20.21875 74.21875 32.171875 74.21875 
Q 37.3125 74.21875 42.625 73.28125 
Q 47.953125 72.359375 53.515625 70.515625 
z
" id="DejaVuSans-83"/>
      <path d="M 39.40625 66.21875 
Q 28.65625 66.21875 22.328125 58.203125 
Q 16.015625 50.203125 16.015625 36.375 
Q 16.015625 22.609375 22.328125 14.59375 
Q 28.65625 6.59375 39.40625 6.59375 
Q 50.140625 6.59375 56.421875 14.59375 
Q 62.703125 22.609375 62.703125 36.375 
Q 62.703125 50.203125 56.421875 58.203125 
Q 50.140625 66.21875 39.40625 66.21875 
z
M 39.40625 74.21875 
Q 54.734375 74.21875 63.90625 63.9375 
Q 73.09375 53.65625 73.09375 36.375 
Q 73.09375 19.140625 63.90625 8.859375 
Q 54.734375 -1.421875 39.40625 -1.421875 
Q 24.03125 -1.421875 14.8125 8.828125 
Q 5.609375 19.09375 5.609375 36.375 
Q 5.609375 53.65625 14.8125 63.9375 
Q 24.03125 74.21875 39.40625 74.21875 
z
" id="DejaVuSans-79"/>
     </defs>
     <use xlink:href="#DejaVuSans-80"/>
     <use x="60.302734" xlink:href="#DejaVuSans-83"/>
     <use x="123.779297" xlink:href="#DejaVuSans-79"/>
    </g>
   </g>
   <g id="text_14">
    <!-- BIPOP-CMA -->
    <g transform="translate(375.22944 169.329987)scale(0.17 -0.17)">
     <defs>
      <path d="M 19.671875 34.8125 
L 19.671875 8.109375 
L 35.5 8.109375 
Q 43.453125 8.109375 47.28125 11.40625 
Q 51.125 14.703125 51.125 21.484375 
Q 51.125 28.328125 47.28125 31.5625 
Q 43.453125 34.8125 35.5 34.8125 
z
M 19.671875 64.796875 
L 19.671875 42.828125 
L 34.28125 42.828125 
Q 41.5 42.828125 45.03125 45.53125 
Q 48.578125 48.25 48.578125 53.8125 
Q 48.578125 59.328125 45.03125 62.0625 
Q 41.5 64.796875 34.28125 64.796875 
z
M 9.8125 72.90625 
L 35.015625 72.90625 
Q 46.296875 72.90625 52.390625 68.21875 
Q 58.5 63.53125 58.5 54.890625 
Q 58.5 48.1875 55.375 44.234375 
Q 52.25 40.28125 46.1875 39.3125 
Q 53.46875 37.75 57.5 32.78125 
Q 61.53125 27.828125 61.53125 20.40625 
Q 61.53125 10.640625 54.890625 5.3125 
Q 48.25 0 35.984375 0 
L 9.8125 0 
z
" id="DejaVuSans-66"/>
      <path d="M 9.8125 72.90625 
L 19.671875 72.90625 
L 19.671875 0 
L 9.8125 0 
z
" id="DejaVuSans-73"/>
      <path d="M 64.40625 67.28125 
L 64.40625 56.890625 
Q 59.421875 61.53125 53.78125 63.8125 
Q 48.140625 66.109375 41.796875 66.109375 
Q 29.296875 66.109375 22.65625 58.46875 
Q 16.015625 50.828125 16.015625 36.375 
Q 16.015625 21.96875 22.65625 14.328125 
Q 29.296875 6.6875 41.796875 6.6875 
Q 48.140625 6.6875 53.78125 8.984375 
Q 59.421875 11.28125 64.40625 15.921875 
L 64.40625 5.609375 
Q 59.234375 2.09375 53.4375 0.328125 
Q 47.65625 -1.421875 41.21875 -1.421875 
Q 24.65625 -1.421875 15.125 8.703125 
Q 5.609375 18.84375 5.609375 36.375 
Q 5.609375 53.953125 15.125 64.078125 
Q 24.65625 74.21875 41.21875 74.21875 
Q 47.75 74.21875 53.53125 72.484375 
Q 59.328125 70.75 64.40625 67.28125 
z
" id="DejaVuSans-67"/>
      <path d="M 9.8125 72.90625 
L 24.515625 72.90625 
L 43.109375 23.296875 
L 61.8125 72.90625 
L 76.515625 72.90625 
L 76.515625 0 
L 66.890625 0 
L 66.890625 64.015625 
L 48.09375 14.015625 
L 38.1875 14.015625 
L 19.390625 64.015625 
L 19.390625 0 
L 9.8125 0 
z
" id="DejaVuSans-77"/>
      <path d="M 34.1875 63.1875 
L 20.796875 26.90625 
L 47.609375 26.90625 
z
M 28.609375 72.90625 
L 39.796875 72.90625 
L 67.578125 0 
L 57.328125 0 
L 50.6875 18.703125 
L 17.828125 18.703125 
L 11.1875 0 
L 0.78125 0 
z
" id="DejaVuSans-65"/>
     </defs>
     <use xlink:href="#DejaVuSans-66"/>
     <use x="68.603516" xlink:href="#DejaVuSans-73"/>
     <use x="98.095703" xlink:href="#DejaVuSans-80"/>
     <use x="158.398438" xlink:href="#DejaVuSans-79"/>
     <use x="237.109375" xlink:href="#DejaVuSans-80"/>
     <use x="295.162109" xlink:href="#DejaVuSans-45"/>
     <use x="331.246094" xlink:href="#DejaVuSans-67"/>
     <use x="401.070312" xlink:href="#DejaVuSans-77"/>
     <use x="487.349609" xlink:href="#DejaVuSans-65"/>
    </g>
   </g>
   <g id="text_15">
    <!-- best 2009 -->
    <g transform="translate(375.22944 40.397235)scale(0.17 -0.17)">
     <defs>
      <path d="M 48.6875 27.296875 
Q 48.6875 37.203125 44.609375 42.84375 
Q 40.53125 48.484375 33.40625 48.484375 
Q 26.265625 48.484375 22.1875 42.84375 
Q 18.109375 37.203125 18.109375 27.296875 
Q 18.109375 17.390625 22.1875 11.75 
Q 26.265625 6.109375 33.40625 6.109375 
Q 40.53125 6.109375 44.609375 11.75 
Q 48.6875 17.390625 48.6875 27.296875 
z
M 18.109375 46.390625 
Q 20.953125 51.265625 25.265625 53.625 
Q 29.59375 56 35.59375 56 
Q 45.5625 56 51.78125 48.09375 
Q 58.015625 40.1875 58.015625 27.296875 
Q 58.015625 14.40625 51.78125 6.484375 
Q 45.5625 -1.421875 35.59375 -1.421875 
Q 29.59375 -1.421875 25.265625 0.953125 
Q 20.953125 3.328125 18.109375 8.203125 
L 18.109375 0 
L 9.078125 0 
L 9.078125 75.984375 
L 18.109375 75.984375 
z
" id="DejaVuSans-98"/>
      <path d="M 10.984375 1.515625 
L 10.984375 10.5 
Q 14.703125 8.734375 18.5 7.8125 
Q 22.3125 6.890625 25.984375 6.890625 
Q 35.75 6.890625 40.890625 13.453125 
Q 46.046875 20.015625 46.78125 33.40625 
Q 43.953125 29.203125 39.59375 26.953125 
Q 35.25 24.703125 29.984375 24.703125 
Q 19.046875 24.703125 12.671875 31.3125 
Q 6.296875 37.9375 6.296875 49.421875 
Q 6.296875 60.640625 12.9375 67.421875 
Q 19.578125 74.21875 30.609375 74.21875 
Q 43.265625 74.21875 49.921875 64.515625 
Q 56.59375 54.828125 56.59375 36.375 
Q 56.59375 19.140625 48.40625 8.859375 
Q 40.234375 -1.421875 26.421875 -1.421875 
Q 22.703125 -1.421875 18.890625 -0.6875 
Q 15.09375 0.046875 10.984375 1.515625 
z
M 30.609375 32.421875 
Q 37.25 32.421875 41.125 36.953125 
Q 45.015625 41.5 45.015625 49.421875 
Q 45.015625 57.28125 41.125 61.84375 
Q 37.25 66.40625 30.609375 66.40625 
Q 23.96875 66.40625 20.09375 61.84375 
Q 16.21875 57.28125 16.21875 49.421875 
Q 16.21875 41.5 20.09375 36.953125 
Q 23.96875 32.421875 30.609375 32.421875 
z
" id="DejaVuSans-57"/>
     </defs>
     <use xlink:href="#DejaVuSans-98"/>
     <use x="63.476562" xlink:href="#DejaVuSans-101"/>
     <use x="125" xlink:href="#DejaVuSans-115"/>
     <use x="177.099609" xlink:href="#DejaVuSans-116"/>
     <use x="216.308594" xlink:href="#DejaVuSans-32"/>
     <use x="248.095703" xlink:href="#DejaVuSans-50"/>
     <use x="311.71875" xlink:href="#DejaVuSans-48"/>
     <use x="375.341797" xlink:href="#DejaVuSans-48"/>
     <use x="438.964844" xlink:href="#DejaVuSans-57"/>
    </g>
   </g>
   <g id="text_16">
    <!-- bbob f14, 10-D -->
    <g transform="translate(60.41088 38.111366)scale(0.102 -0.102)">
     <defs>
      <path d="M 19.671875 64.796875 
L 19.671875 8.109375 
L 31.59375 8.109375 
Q 46.6875 8.109375 53.6875 14.9375 
Q 60.6875 21.78125 60.6875 36.53125 
Q 60.6875 51.171875 53.6875 57.984375 
Q 46.6875 64.796875 31.59375 64.796875 
z
M 9.8125 72.90625 
L 30.078125 72.90625 
Q 51.265625 72.90625 61.171875 64.09375 
Q 71.09375 55.28125 71.09375 36.53125 
Q 71.09375 17.671875 61.125 8.828125 
Q 51.171875 0 30.078125 0 
L 9.8125 0 
z
" id="DejaVuSans-68"/>
     </defs>
     <use xlink:href="#DejaVuSans-98"/>
     <use x="63.476562" xlink:href="#DejaVuSans-98"/>
     <use x="126.953125" xlink:href="#DejaVuSans-111"/>
     <use x="188.134766" xlink:href="#DejaVuSans-98"/>
     <use x="251.611328" xlink:href="#DejaVuSans-32"/>
     <use x="283.398438" xlink:href="#DejaVuSans-102"/>
     <use x="318.603516" xlink:href="#DejaVuSans-49"/>
     <use x="382.226562" xlink:href="#DejaVuSans-52"/>
     <use x="445.849609" xlink:href="#DejaVuSans-44"/>
     <use x="477.636719" xlink:href="#DejaVuSans-32"/>
     <use x="509.423828" xlink:href="#DejaVuSans-49"/>
     <use x="573.046875" xlink:href="#DejaVuSans-48"/>
     <use x="636.669922" xlink:href="#DejaVuSans-45"/>
     <use x="672.753906" xlink:href="#DejaVuSans-68"/>
    </g>
    <!-- 51 targets: 100..1e-08 -->
    <g transform="translate(60.41088 49.533135)scale(0.102 -0.102)">
     <defs>
      <path d="M 10.796875 72.90625 
L 49.515625 72.90625 
L 49.515625 64.59375 
L 19.828125 64.59375 
L 19.828125 46.734375 
Q 21.96875 47.46875 24.109375 47.828125 
Q 26.265625 48.1875 28.421875 48.1875 
Q 40.625 48.1875 47.75 41.5 
Q 54.890625 34.8125 54.890625 23.390625 
Q 54.890625 11.625 47.5625 5.09375 
Q 40.234375 -1.421875 26.90625 -1.421875 
Q 22.3125 -1.421875 17.546875 -0.640625 
Q 12.796875 0.140625 7.71875 1.703125 
L 7.71875 11.625 
Q 12.109375 9.234375 16.796875 8.0625 
Q 21.484375 6.890625 26.703125 6.890625 
Q 35.15625 6.890625 40.078125 11.328125 
Q 45.015625 15.765625 45.015625 23.390625 
Q 45.015625 31 40.078125 35.4375 
Q 35.15625 39.890625 26.703125 39.890625 
Q 22.75 39.890625 18.8125 39.015625 
Q 14.890625 38.140625 10.796875 36.28125 
z
" id="DejaVuSans-53"/>
      <path d="M 11.71875 12.40625 
L 22.015625 12.40625 
L 22.015625 0 
L 11.71875 0 
z
M 11.71875 51.703125 
L 22.015625 51.703125 
L 22.015625 39.3125 
L 11.71875 39.3125 
z
" id="DejaVuSans-58"/>
     </defs>
     <use xlink:href="#DejaVuSans-53"/>
     <use x="63.623047" xlink:href="#DejaVuSans-49"/>
     <use x="127.246094" xlink:href="#DejaVuSans-32"/>
     <use x="159.033203" xlink:href="#DejaVuSans-116"/>
     <use x="198.242188" xlink:href="#DejaVuSans-97"/>
     <use x="259.521484" xlink:href="#DejaVuSans-114"/>
     <use x="298.884766" xlink:href="#DejaVuSans-103"/>
     <use x="362.361328" xlink:href="#DejaVuSans-101"/>
     <use x="423.884766" xlink:href="#DejaVuSans-116"/>
     <use x="463.09375" xlink:href="#DejaVuSans-115"/>
     <use x="515.193359" xlink:href="#DejaVuSans-58"/>
     <use x="548.884766" xlink:href="#DejaVuSans-32"/>
     <use x="580.671875" xlink:href="#DejaVuSans-49"/>
     <use x="644.294922" xlink:href="#DejaVuSans-48"/>
     <use x="707.917969" xlink:href="#DejaVuSans-48"/>
     <use x="771.541016" xlink:href="#DejaVuSans-46"/>
     <use x="803.328125" xlink:href="#DejaVuSans-46"/>
     <use x="835.115234" xlink:href="#DejaVuSans-49"/>
     <use x="898.738281" xlink:href="#DejaVuSans-101"/>
     <use x="960.261719" xlink:href="#DejaVuSans-45"/>
     <use x="996.345703" xlink:href="#DejaVuSans-48"/>
     <use x="1059.96875" xlink:href="#DejaVuSans-56"/>
    </g>
    <!-- 15 instances -->
    <g transform="translate(60.41088 60.954904)scale(0.102 -0.102)">
     <use xlink:href="#DejaVuSans-49"/>
     <use x="63.623047" xlink:href="#DejaVuSans-53"/>
     <use x="127.246094" xlink:href="#DejaVuSans-32"/>
     <use x="159.033203" xlink:href="#DejaVuSans-105"/>
     <use x="186.816406" xlink:href="#DejaVuSans-110"/>
     <use x="250.195312" xlink:href="#DejaVuSans-115"/>
     <use x="302.294922" xlink:href="#DejaVuSans-116"/>
     <use x="341.503906" xlink:href="#DejaVuSans-97"/>
     <use x="402.783203" xlink:href="#DejaVuSans-110"/>
     <use x="466.162109" xlink:href="#DejaVuSans-99"/>
     <use x="521.142578" xlink:href="#DejaVuSans-101"/>
     <use x="582.666016" xlink:href="#DejaVuSans-115"/>
    </g>
   </g>
   <g id="text_17">
    <!-- v2.4 -->
    <g style="fill:#808080;" transform="translate(187.233062 294.151352)scale(0.1 -0.1)">
     <use xlink:href="#DejaVuSans-118"/>
     <use x="59.179688" xlink:href="#DejaVuSans-50"/>
     <use x="122.802734" xlink:href="#DejaVuSans-46"/>
     <use x="154.589844" xlink:href="#DejaVuSans-52"/>
    </g>
   </g>
   <g id="text_18">
    <!-- 14 Sum of different powers -->
    <g transform="translate(61.904937 21.648)scale(0.2 -0.2)">
     <defs>
      <path d="M 4.203125 54.6875 
L 13.1875 54.6875 
L 24.421875 12.015625 
L 35.59375 54.6875 
L 46.1875 54.6875 
L 57.421875 12.015625 
L 68.609375 54.6875 
L 77.59375 54.6875 
L 63.28125 0 
L 52.6875 0 
L 40.921875 44.828125 
L 29.109375 0 
L 18.5 0 
z
" id="DejaVuSans-119"/>
     </defs>
     <use xlink:href="#DejaVuSans-49"/>
     <use x="63.623047" xlink:href="#DejaVuSans-52"/>
     <use x="127.246094" xlink:href="#DejaVuSans-32"/>
     <use x="159.033203" xlink:href="#DejaVuSans-83"/>
     <use x="222.509766" xlink:href="#DejaVuSans-117"/>
     <use x="285.888672" xlink:href="#DejaVuSans-109"/>
     <use x="383.300781" xlink:href="#DejaVuSans-32"/>
     <use x="415.087891" xlink:href="#DejaVuSans-111"/>
     <use x="476.269531" xlink:href="#DejaVuSans-102"/>
     <use x="511.474609" xlink:href="#DejaVuSans-32"/>
     <use x="543.261719" xlink:href="#DejaVuSans-100"/>
     <use x="606.738281" xlink:href="#DejaVuSans-105"/>
     <use x="634.521484" xlink:href="#DejaVuSans-102"/>
     <use x="669.726562" xlink:href="#DejaVuSans-102"/>
     <use x="704.931641" xlink:href="#DejaVuSans-101"/>
     <use x="766.455078" xlink:href="#DejaVuSans-114"/>
     <use x="805.318359" xlink:href="#DejaVuSans-101"/>
     <use x="866.841797" xlink:href="#DejaVuSans-110"/>
     <use x="930.220703" xlink:href="#DejaVuSans-116"/>
     <use x="969.429688" xlink:href="#DejaVuSans-32"/>
     <use x="1001.216797" xlink:href="#DejaVuSans-112"/>
     <use x="1064.693359" xlink:href="#DejaVuSans-111"/>
     <use x="1125.875" xlink:href="#DejaVuSans-119"/>
     <use x="1207.662109" xlink:href="#DejaVuSans-101"/>
     <use x="1269.185547" xlink:href="#DejaVuSans-114"/>
     <use x="1310.298828" xlink:href="#DejaVuSans-115"/>
    </g>
   </g>
  </g>
 </g>
 <defs>
  <clipPath id="p5a31afc601">
   <rect height="271.296" width="281.088" x="57.6" y="27.648"/>
  </clipPath>
 </defs>
</svg>
