<?xml version="1.0" encoding="utf-8" standalone="no"?>
<!DOCTYPE svg PUBLIC "-//W3C//DTD SVG 1.1//EN"
  "http://www.w3.org/Graphics/SVG/1.1/DTD/svg11.dtd">
<!-- Created with matplotlib (https://matplotlib.org/) -->
<svg height="345.6pt" version="1.1" viewBox="0 0 460.8 345.6" width="460.8pt" xmlns="http://www.w3.org/2000/svg" xmlns:xlink="http://www.w3.org/1999/xlink">
 <metadata>
  <rdf:RDF xmlns:cc="http://creativecommons.org/ns#" xmlns:dc="http://purl.org/dc/elements/1.1/" xmlns:rdf="http://www.w3.org/1999/02/22-rdf-syntax-ns#">
   <cc:Work>
    <dc:type rdf:resource="http://purl.org/dc/dcmitype/StillImage"/>
    <dc:date>2021-04-27T05:13:13.175108</dc:date>
    <dc:format>image/svg+xml</dc:format>
    <dc:creator>
     <cc:Agent>
      <dc:title>Matplotlib v3.3.4, https://matplotlib.org/</dc:title>
     </cc:Agent>
    </dc:creator>
   </cc:Work>
  </rdf:RDF>
 </metadata>
 <defs>
  <style type="text/css">*{stroke-linecap:butt;stroke-linejoin:round;}</style>
 </defs>
 <g id="figure_1">
  <g id="patch_1">
   <path d="M 0 345.6 
L 460.8 345.6 
L 460.8 0 
L 0 0 
z
" style="fill:#ffffff;"/>
  </g>
  <g id="axes_1">
   <g id="patch_2">
    <path d="M 34.16 291.28 
L 453.192 291.28 
L 453.192 3 
L 34.16 3 
z
" style="fill:#ffffff;"/>
   </g>
   <g id="matplotlib.axis_1">
    <g id="xtick_1">
     <g id="line2d_1">
      <path clip-path="url(#p7014bb999d)" d="M 61.731191 291.28 
L 61.731191 3 
" style="fill:none;stroke:#b0b0b0;stroke-linecap:square;stroke-width:0.8;"/>
     </g>
     <g id="line2d_2">
      <defs>
       <path d="M 0 0 
L 0 3.5 
" id="m08cd290d6a" style="stroke:#000000;stroke-width:0.8;"/>
      </defs>
      <g>
       <use style="stroke:#000000;stroke-width:0.8;" x="61.731191" xlink:href="#m08cd290d6a" y="291.28"/>
      </g>
     </g>
     <g id="text_1">
      <!-- -1 -->
      <g transform="translate(51.760879 313.476875)scale(0.2 -0.2)">
       <defs>
        <path d="M 4.890625 31.390625 
L 31.203125 31.390625 
L 31.203125 23.390625 
L 4.890625 23.390625 
z
" id="DejaVuSans-45"/>
        <path d="M 12.40625 8.296875 
L 28.515625 8.296875 
L 28.515625 63.921875 
L 10.984375 60.40625 
L 10.984375 69.390625 
L 28.421875 72.90625 
L 38.28125 72.90625 
L 38.28125 8.296875 
L 54.390625 8.296875 
L 54.390625 0 
L 12.40625 0 
z
" id="DejaVuSans-49"/>
       </defs>
       <use xlink:href="#DejaVuSans-45"/>
       <use x="36.083984" xlink:href="#DejaVuSans-49"/>
      </g>
     </g>
    </g>
    <g id="xtick_2">
     <g id="line2d_3">
      <path clip-path="url(#p7014bb999d)" d="M 243.676 291.28 
L 243.676 3 
" style="fill:none;stroke:#b0b0b0;stroke-linecap:square;stroke-width:0.8;"/>
     </g>
     <g id="line2d_4">
      <g>
       <use style="stroke:#000000;stroke-width:0.8;" x="243.676" xlink:href="#m08cd290d6a" y="291.28"/>
      </g>
     </g>
     <g id="text_2">
      <!-- 0 -->
      <g transform="translate(237.3135 313.476875)scale(0.2 -0.2)">
       <defs>
        <path d="M 31.78125 66.40625 
Q 24.171875 66.40625 20.328125 58.90625 
Q 16.5 51.421875 16.5 36.375 
Q 16.5 21.390625 20.328125 13.890625 
Q 24.171875 6.390625 31.78125 6.390625 
Q 39.453125 6.390625 43.28125 13.890625 
Q 47.125 21.390625 47.125 36.375 
Q 47.125 51.421875 43.28125 58.90625 
Q 39.453125 66.40625 31.78125 66.40625 
z
M 31.78125 74.21875 
Q 44.046875 74.21875 50.515625 64.515625 
Q 56.984375 54.828125 56.984375 36.375 
Q 56.984375 17.96875 50.515625 8.265625 
Q 44.046875 -1.421875 31.78125 -1.421875 
Q 19.53125 -1.421875 13.0625 8.265625 
Q 6.59375 17.96875 6.59375 36.375 
Q 6.59375 54.828125 13.0625 64.515625 
Q 19.53125 74.21875 31.78125 74.21875 
z
" id="DejaVuSans-48"/>
       </defs>
       <use xlink:href="#DejaVuSans-48"/>
      </g>
     </g>
    </g>
    <g id="xtick_3">
     <g id="line2d_5">
      <path clip-path="url(#p7014bb999d)" d="M 425.620809 291.28 
L 425.620809 3 
" style="fill:none;stroke:#b0b0b0;stroke-linecap:square;stroke-width:0.8;"/>
     </g>
     <g id="line2d_6">
      <g>
       <use style="stroke:#000000;stroke-width:0.8;" x="425.620809" xlink:href="#m08cd290d6a" y="291.28"/>
      </g>
     </g>
     <g id="text_3">
      <!-- 1 -->
      <g transform="translate(419.258309 313.476875)scale(0.2 -0.2)">
       <use xlink:href="#DejaVuSans-49"/>
      </g>
     </g>
    </g>
    <g id="xtick_4">
     <g id="line2d_7">
      <defs>
       <path d="M 0 0 
L 0 2 
" id="md6c488e5d7" style="stroke:#000000;stroke-width:0.6;"/>
      </defs>
      <g>
       <use style="stroke:#000000;stroke-width:0.6;" x="44.098917" xlink:href="#md6c488e5d7" y="291.28"/>
      </g>
     </g>
    </g>
    <g id="xtick_5">
     <g id="line2d_8">
      <g>
       <use style="stroke:#000000;stroke-width:0.6;" x="53.405853" xlink:href="#md6c488e5d7" y="291.28"/>
      </g>
     </g>
    </g>
    <g id="xtick_6">
     <g id="line2d_9">
      <g>
       <use style="stroke:#000000;stroke-width:0.6;" x="116.502036" xlink:href="#md6c488e5d7" y="291.28"/>
      </g>
     </g>
    </g>
    <g id="xtick_7">
     <g id="line2d_10">
      <g>
       <use style="stroke:#000000;stroke-width:0.6;" x="148.540927" xlink:href="#md6c488e5d7" y="291.28"/>
      </g>
     </g>
    </g>
    <g id="xtick_8">
     <g id="line2d_11">
      <g>
       <use style="stroke:#000000;stroke-width:0.6;" x="171.272881" xlink:href="#md6c488e5d7" y="291.28"/>
      </g>
     </g>
    </g>
    <g id="xtick_9">
     <g id="line2d_12">
      <g>
       <use style="stroke:#000000;stroke-width:0.6;" x="188.905155" xlink:href="#md6c488e5d7" y="291.28"/>
      </g>
     </g>
    </g>
    <g id="xtick_10">
     <g id="line2d_13">
      <g>
       <use style="stroke:#000000;stroke-width:0.6;" x="203.311772" xlink:href="#md6c488e5d7" y="291.28"/>
      </g>
     </g>
    </g>
    <g id="xtick_11">
     <g id="line2d_14">
      <g>
       <use style="stroke:#000000;stroke-width:0.6;" x="215.492392" xlink:href="#md6c488e5d7" y="291.28"/>
      </g>
     </g>
    </g>
    <g id="xtick_12">
     <g id="line2d_15">
      <g>
       <use style="stroke:#000000;stroke-width:0.6;" x="226.043726" xlink:href="#md6c488e5d7" y="291.28"/>
      </g>
     </g>
    </g>
    <g id="xtick_13">
     <g id="line2d_16">
      <g>
       <use style="stroke:#000000;stroke-width:0.6;" x="235.350662" xlink:href="#md6c488e5d7" y="291.28"/>
      </g>
     </g>
    </g>
    <g id="xtick_14">
     <g id="line2d_17">
      <g>
       <use style="stroke:#000000;stroke-width:0.6;" x="298.446845" xlink:href="#md6c488e5d7" y="291.28"/>
      </g>
     </g>
    </g>
    <g id="xtick_15">
     <g id="line2d_18">
      <g>
       <use style="stroke:#000000;stroke-width:0.6;" x="330.485735" xlink:href="#md6c488e5d7" y="291.28"/>
      </g>
     </g>
    </g>
    <g id="xtick_16">
     <g id="line2d_19">
      <g>
       <use style="stroke:#000000;stroke-width:0.6;" x="353.21769" xlink:href="#md6c488e5d7" y="291.28"/>
      </g>
     </g>
    </g>
    <g id="xtick_17">
     <g id="line2d_20">
      <g>
       <use style="stroke:#000000;stroke-width:0.6;" x="370.849964" xlink:href="#md6c488e5d7" y="291.28"/>
      </g>
     </g>
    </g>
    <g id="xtick_18">
     <g id="line2d_21">
      <g>
       <use style="stroke:#000000;stroke-width:0.6;" x="385.256581" xlink:href="#md6c488e5d7" y="291.28"/>
      </g>
     </g>
    </g>
    <g id="xtick_19">
     <g id="line2d_22">
      <g>
       <use style="stroke:#000000;stroke-width:0.6;" x="397.437201" xlink:href="#md6c488e5d7" y="291.28"/>
      </g>
     </g>
    </g>
    <g id="xtick_20">
     <g id="line2d_23">
      <g>
       <use style="stroke:#000000;stroke-width:0.6;" x="407.988535" xlink:href="#md6c488e5d7" y="291.28"/>
      </g>
     </g>
    </g>
    <g id="xtick_21">
     <g id="line2d_24">
      <g>
       <use style="stroke:#000000;stroke-width:0.6;" x="417.295471" xlink:href="#md6c488e5d7" y="291.28"/>
      </g>
     </g>
    </g>
    <g id="text_4">
     <!-- log10 of FEvals ratio -->
     <g transform="translate(141.371312 336.833125)scale(0.2 -0.2)">
      <defs>
       <path d="M 9.421875 75.984375 
L 18.40625 75.984375 
L 18.40625 0 
L 9.421875 0 
z
" id="DejaVuSans-108"/>
       <path d="M 30.609375 48.390625 
Q 23.390625 48.390625 19.1875 42.75 
Q 14.984375 37.109375 14.984375 27.296875 
Q 14.984375 17.484375 19.15625 11.84375 
Q 23.34375 6.203125 30.609375 6.203125 
Q 37.796875 6.203125 41.984375 11.859375 
Q 46.1875 17.53125 46.1875 27.296875 
Q 46.1875 37.015625 41.984375 42.703125 
Q 37.796875 48.390625 30.609375 48.390625 
z
M 30.609375 56 
Q 42.328125 56 49.015625 48.375 
Q 55.71875 40.765625 55.71875 27.296875 
Q 55.71875 13.875 49.015625 6.21875 
Q 42.328125 -1.421875 30.609375 -1.421875 
Q 18.84375 -1.421875 12.171875 6.21875 
Q 5.515625 13.875 5.515625 27.296875 
Q 5.515625 40.765625 12.171875 48.375 
Q 18.84375 56 30.609375 56 
z
" id="DejaVuSans-111"/>
       <path d="M 45.40625 27.984375 
Q 45.40625 37.75 41.375 43.109375 
Q 37.359375 48.484375 30.078125 48.484375 
Q 22.859375 48.484375 18.828125 43.109375 
Q 14.796875 37.75 14.796875 27.984375 
Q 14.796875 18.265625 18.828125 12.890625 
Q 22.859375 7.515625 30.078125 7.515625 
Q 37.359375 7.515625 41.375 12.890625 
Q 45.40625 18.265625 45.40625 27.984375 
z
M 54.390625 6.78125 
Q 54.390625 -7.171875 48.1875 -13.984375 
Q 42 -20.796875 29.203125 -20.796875 
Q 24.46875 -20.796875 20.265625 -20.09375 
Q 16.0625 -19.390625 12.109375 -17.921875 
L 12.109375 -9.1875 
Q 16.0625 -11.328125 19.921875 -12.34375 
Q 23.78125 -13.375 27.78125 -13.375 
Q 36.625 -13.375 41.015625 -8.765625 
Q 45.40625 -4.15625 45.40625 5.171875 
L 45.40625 9.625 
Q 42.625 4.78125 38.28125 2.390625 
Q 33.9375 0 27.875 0 
Q 17.828125 0 11.671875 7.65625 
Q 5.515625 15.328125 5.515625 27.984375 
Q 5.515625 40.671875 11.671875 48.328125 
Q 17.828125 56 27.875 56 
Q 33.9375 56 38.28125 53.609375 
Q 42.625 51.21875 45.40625 46.390625 
L 45.40625 54.6875 
L 54.390625 54.6875 
z
" id="DejaVuSans-103"/>
       <path id="DejaVuSans-32"/>
       <path d="M 37.109375 75.984375 
L 37.109375 68.5 
L 28.515625 68.5 
Q 23.6875 68.5 21.796875 66.546875 
Q 19.921875 64.59375 19.921875 59.515625 
L 19.921875 54.6875 
L 34.71875 54.6875 
L 34.71875 47.703125 
L 19.921875 47.703125 
L 19.921875 0 
L 10.890625 0 
L 10.890625 47.703125 
L 2.296875 47.703125 
L 2.296875 54.6875 
L 10.890625 54.6875 
L 10.890625 58.5 
Q 10.890625 67.625 15.140625 71.796875 
Q 19.390625 75.984375 28.609375 75.984375 
z
" id="DejaVuSans-102"/>
       <path d="M 9.8125 72.90625 
L 51.703125 72.90625 
L 51.703125 64.59375 
L 19.671875 64.59375 
L 19.671875 43.109375 
L 48.578125 43.109375 
L 48.578125 34.8125 
L 19.671875 34.8125 
L 19.671875 0 
L 9.8125 0 
z
" id="DejaVuSans-70"/>
       <path d="M 9.8125 72.90625 
L 55.90625 72.90625 
L 55.90625 64.59375 
L 19.671875 64.59375 
L 19.671875 43.015625 
L 54.390625 43.015625 
L 54.390625 34.71875 
L 19.671875 34.71875 
L 19.671875 8.296875 
L 56.78125 8.296875 
L 56.78125 0 
L 9.8125 0 
z
" id="DejaVuSans-69"/>
       <path d="M 2.984375 54.6875 
L 12.5 54.6875 
L 29.59375 8.796875 
L 46.6875 54.6875 
L 56.203125 54.6875 
L 35.6875 0 
L 23.484375 0 
z
" id="DejaVuSans-118"/>
       <path d="M 34.28125 27.484375 
Q 23.390625 27.484375 19.1875 25 
Q 14.984375 22.515625 14.984375 16.5 
Q 14.984375 11.71875 18.140625 8.90625 
Q 21.296875 6.109375 26.703125 6.109375 
Q 34.1875 6.109375 38.703125 11.40625 
Q 43.21875 16.703125 43.21875 25.484375 
L 43.21875 27.484375 
z
M 52.203125 31.203125 
L 52.203125 0 
L 43.21875 0 
L 43.21875 8.296875 
Q 40.140625 3.328125 35.546875 0.953125 
Q 30.953125 -1.421875 24.3125 -1.421875 
Q 15.921875 -1.421875 10.953125 3.296875 
Q 6 8.015625 6 15.921875 
Q 6 25.140625 12.171875 29.828125 
Q 18.359375 34.515625 30.609375 34.515625 
L 43.21875 34.515625 
L 43.21875 35.40625 
Q 43.21875 41.609375 39.140625 45 
Q 35.0625 48.390625 27.6875 48.390625 
Q 23 48.390625 18.546875 47.265625 
Q 14.109375 46.140625 10.015625 43.890625 
L 10.015625 52.203125 
Q 14.9375 54.109375 19.578125 55.046875 
Q 24.21875 56 28.609375 56 
Q 40.484375 56 46.34375 49.84375 
Q 52.203125 43.703125 52.203125 31.203125 
z
" id="DejaVuSans-97"/>
       <path d="M 44.28125 53.078125 
L 44.28125 44.578125 
Q 40.484375 46.53125 36.375 47.5 
Q 32.28125 48.484375 27.875 48.484375 
Q 21.1875 48.484375 17.84375 46.4375 
Q 14.5 44.390625 14.5 40.28125 
Q 14.5 37.15625 16.890625 35.375 
Q 19.28125 33.59375 26.515625 31.984375 
L 29.59375 31.296875 
Q 39.15625 29.25 43.1875 25.515625 
Q 47.21875 21.78125 47.21875 15.09375 
Q 47.21875 7.46875 41.1875 3.015625 
Q 35.15625 -1.421875 24.609375 -1.421875 
Q 20.21875 -1.421875 15.453125 -0.5625 
Q 10.6875 0.296875 5.421875 2 
L 5.421875 11.28125 
Q 10.40625 8.6875 15.234375 7.390625 
Q 20.0625 6.109375 24.8125 6.109375 
Q 31.15625 6.109375 34.5625 8.28125 
Q 37.984375 10.453125 37.984375 14.40625 
Q 37.984375 18.0625 35.515625 20.015625 
Q 33.0625 21.96875 24.703125 23.78125 
L 21.578125 24.515625 
Q 13.234375 26.265625 9.515625 29.90625 
Q 5.8125 33.546875 5.8125 39.890625 
Q 5.8125 47.609375 11.28125 51.796875 
Q 16.75 56 26.8125 56 
Q 31.78125 56 36.171875 55.265625 
Q 40.578125 54.546875 44.28125 53.078125 
z
" id="DejaVuSans-115"/>
       <path d="M 41.109375 46.296875 
Q 39.59375 47.171875 37.8125 47.578125 
Q 36.03125 48 33.890625 48 
Q 26.265625 48 22.1875 43.046875 
Q 18.109375 38.09375 18.109375 28.8125 
L 18.109375 0 
L 9.078125 0 
L 9.078125 54.6875 
L 18.109375 54.6875 
L 18.109375 46.1875 
Q 20.953125 51.171875 25.484375 53.578125 
Q 30.03125 56 36.53125 56 
Q 37.453125 56 38.578125 55.875 
Q 39.703125 55.765625 41.0625 55.515625 
z
" id="DejaVuSans-114"/>
       <path d="M 18.3125 70.21875 
L 18.3125 54.6875 
L 36.8125 54.6875 
L 36.8125 47.703125 
L 18.3125 47.703125 
L 18.3125 18.015625 
Q 18.3125 11.328125 20.140625 9.421875 
Q 21.96875 7.515625 27.59375 7.515625 
L 36.8125 7.515625 
L 36.8125 0 
L 27.59375 0 
Q 17.1875 0 13.234375 3.875 
Q 9.28125 7.765625 9.28125 18.015625 
L 9.28125 47.703125 
L 2.6875 47.703125 
L 2.6875 54.6875 
L 9.28125 54.6875 
L 9.28125 70.21875 
z
" id="DejaVuSans-116"/>
       <path d="M 9.421875 54.6875 
L 18.40625 54.6875 
L 18.40625 0 
L 9.421875 0 
z
M 9.421875 75.984375 
L 18.40625 75.984375 
L 18.40625 64.59375 
L 9.421875 64.59375 
z
" id="DejaVuSans-105"/>
      </defs>
      <use xlink:href="#DejaVuSans-108"/>
      <use x="27.783203" xlink:href="#DejaVuSans-111"/>
      <use x="88.964844" xlink:href="#DejaVuSans-103"/>
      <use x="152.441406" xlink:href="#DejaVuSans-49"/>
      <use x="216.064453" xlink:href="#DejaVuSans-48"/>
      <use x="279.6875" xlink:href="#DejaVuSans-32"/>
      <use x="311.474609" xlink:href="#DejaVuSans-111"/>
      <use x="372.65625" xlink:href="#DejaVuSans-102"/>
      <use x="407.861328" xlink:href="#DejaVuSans-32"/>
      <use x="439.648438" xlink:href="#DejaVuSans-70"/>
      <use x="497.167969" xlink:href="#DejaVuSans-69"/>
      <use x="560.351562" xlink:href="#DejaVuSans-118"/>
      <use x="619.53125" xlink:href="#DejaVuSans-97"/>
      <use x="680.810547" xlink:href="#DejaVuSans-108"/>
      <use x="708.59375" xlink:href="#DejaVuSans-115"/>
      <use x="760.693359" xlink:href="#DejaVuSans-32"/>
      <use x="792.480469" xlink:href="#DejaVuSans-114"/>
      <use x="833.59375" xlink:href="#DejaVuSans-97"/>
      <use x="894.873047" xlink:href="#DejaVuSans-116"/>
      <use x="934.082031" xlink:href="#DejaVuSans-105"/>
      <use x="961.865234" xlink:href="#DejaVuSans-111"/>
     </g>
    </g>
   </g>
   <g id="matplotlib.axis_2">
    <g id="ytick_1">
     <g id="line2d_25">
      <path clip-path="url(#p7014bb999d)" d="M 34.16 288.453725 
L 453.192 288.453725 
" style="fill:none;stroke:#b0b0b0;stroke-linecap:square;stroke-width:0.8;"/>
     </g>
     <g id="line2d_26">
      <defs>
       <path d="M 0 0 
L -3.5 0 
" id="m40e83c1584" style="stroke:#000000;stroke-width:0.8;"/>
      </defs>
      <g>
       <use style="stroke:#000000;stroke-width:0.8;" x="34.16" xlink:href="#m40e83c1584" y="288.453725"/>
      </g>
     </g>
    </g>
    <g id="ytick_2">
     <g id="line2d_27">
      <path clip-path="url(#p7014bb999d)" d="M 34.16 217.796863 
L 453.192 217.796863 
" style="fill:none;stroke:#b0b0b0;stroke-linecap:square;stroke-width:0.8;"/>
     </g>
     <g id="line2d_28">
      <g>
       <use style="stroke:#000000;stroke-width:0.8;" x="34.16" xlink:href="#m40e83c1584" y="217.796863"/>
      </g>
     </g>
    </g>
    <g id="ytick_3">
     <g id="line2d_29">
      <path clip-path="url(#p7014bb999d)" d="M 34.16 147.14 
L 453.192 147.14 
" style="fill:none;stroke:#b0b0b0;stroke-linecap:square;stroke-width:0.8;"/>
     </g>
     <g id="line2d_30">
      <g>
       <use style="stroke:#000000;stroke-width:0.8;" x="34.16" xlink:href="#m40e83c1584" y="147.14"/>
      </g>
     </g>
    </g>
    <g id="ytick_4">
     <g id="line2d_31">
      <path clip-path="url(#p7014bb999d)" d="M 34.16 76.483137 
L 453.192 76.483137 
" style="fill:none;stroke:#b0b0b0;stroke-linecap:square;stroke-width:0.8;"/>
     </g>
     <g id="line2d_32">
      <g>
       <use style="stroke:#000000;stroke-width:0.8;" x="34.16" xlink:href="#m40e83c1584" y="76.483137"/>
      </g>
     </g>
    </g>
    <g id="ytick_5">
     <g id="line2d_33">
      <path clip-path="url(#p7014bb999d)" d="M 34.16 5.826275 
L 453.192 5.826275 
" style="fill:none;stroke:#b0b0b0;stroke-linecap:square;stroke-width:0.8;"/>
     </g>
     <g id="line2d_34">
      <g>
       <use style="stroke:#000000;stroke-width:0.8;" x="34.16" xlink:href="#m40e83c1584" y="5.826275"/>
      </g>
     </g>
    </g>
    <g id="text_5">
     <!-- proportion of trials -->
     <g transform="translate(19.000625 240.14625)rotate(-90)scale(0.2 -0.2)">
      <defs>
       <path d="M 18.109375 8.203125 
L 18.109375 -20.796875 
L 9.078125 -20.796875 
L 9.078125 54.6875 
L 18.109375 54.6875 
L 18.109375 46.390625 
Q 20.953125 51.265625 25.265625 53.625 
Q 29.59375 56 35.59375 56 
Q 45.5625 56 51.78125 48.09375 
Q 58.015625 40.1875 58.015625 27.296875 
Q 58.015625 14.40625 51.78125 6.484375 
Q 45.5625 -1.421875 35.59375 -1.421875 
Q 29.59375 -1.421875 25.265625 0.953125 
Q 20.953125 3.328125 18.109375 8.203125 
z
M 48.6875 27.296875 
Q 48.6875 37.203125 44.609375 42.84375 
Q 40.53125 48.484375 33.40625 48.484375 
Q 26.265625 48.484375 22.1875 42.84375 
Q 18.109375 37.203125 18.109375 27.296875 
Q 18.109375 17.390625 22.1875 11.75 
Q 26.265625 6.109375 33.40625 6.109375 
Q 40.53125 6.109375 44.609375 11.75 
Q 48.6875 17.390625 48.6875 27.296875 
z
" id="DejaVuSans-112"/>
       <path d="M 54.890625 33.015625 
L 54.890625 0 
L 45.90625 0 
L 45.90625 32.71875 
Q 45.90625 40.484375 42.875 44.328125 
Q 39.84375 48.1875 33.796875 48.1875 
Q 26.515625 48.1875 22.3125 43.546875 
Q 18.109375 38.921875 18.109375 30.90625 
L 18.109375 0 
L 9.078125 0 
L 9.078125 54.6875 
L 18.109375 54.6875 
L 18.109375 46.1875 
Q 21.34375 51.125 25.703125 53.5625 
Q 30.078125 56 35.796875 56 
Q 45.21875 56 50.046875 50.171875 
Q 54.890625 44.34375 54.890625 33.015625 
z
" id="DejaVuSans-110"/>
      </defs>
      <use xlink:href="#DejaVuSans-112"/>
      <use x="63.476562" xlink:href="#DejaVuSans-114"/>
      <use x="102.339844" xlink:href="#DejaVuSans-111"/>
      <use x="163.521484" xlink:href="#DejaVuSans-112"/>
      <use x="226.998047" xlink:href="#DejaVuSans-111"/>
      <use x="288.179688" xlink:href="#DejaVuSans-114"/>
      <use x="329.292969" xlink:href="#DejaVuSans-116"/>
      <use x="368.501953" xlink:href="#DejaVuSans-105"/>
      <use x="396.285156" xlink:href="#DejaVuSans-111"/>
      <use x="457.466797" xlink:href="#DejaVuSans-110"/>
      <use x="520.845703" xlink:href="#DejaVuSans-32"/>
      <use x="552.632812" xlink:href="#DejaVuSans-111"/>
      <use x="613.814453" xlink:href="#DejaVuSans-102"/>
      <use x="649.019531" xlink:href="#DejaVuSans-32"/>
      <use x="680.806641" xlink:href="#DejaVuSans-116"/>
      <use x="720.015625" xlink:href="#DejaVuSans-114"/>
      <use x="761.128906" xlink:href="#DejaVuSans-105"/>
      <use x="788.912109" xlink:href="#DejaVuSans-97"/>
      <use x="850.191406" xlink:href="#DejaVuSans-108"/>
      <use x="877.974609" xlink:href="#DejaVuSans-115"/>
     </g>
    </g>
   </g>
   <g id="line2d_35">
    <path clip-path="url(#p7014bb999d)" d="M 34.16 202.436675 
L 96.855207 202.436675 
L 96.855207 202.02707 
L 97.104868 202.02707 
L 97.104868 201.617465 
L 97.601836 201.617465 
L 97.601836 201.20786 
L 98.095698 201.20786 
L 98.095698 200.798255 
L 99.317015 200.798255 
L 99.317015 200.38865 
L 101.029039 200.38865 
L 101.029039 199.979045 
L 103.1476 199.979045 
L 103.1476 199.56944 
L 104.930093 199.56944 
L 104.930093 199.159835 
L 106.715878 199.159835 
L 106.715878 198.75023 
L 107.375278 198.75023 
L 107.375278 198.340625 
L 108.029221 198.340625 
L 108.029221 197.93102 
L 109.244112 197.93102 
L 109.244112 197.521415 
L 109.493773 197.521415 
L 109.493773 197.11181 
L 109.990741 197.11181 
L 109.990741 196.702205 
L 110.484603 196.702205 
L 110.484603 196.2926 
L 110.802053 196.2926 
L 110.802053 195.882995 
L 111.095765 195.882995 
L 111.095765 195.47339 
L 111.220137 195.47339 
L 111.220137 195.063785 
L 111.705919 195.063785 
L 111.705919 194.65418 
L 111.843144 194.65418 
L 111.843144 194.244575 
L 113.332262 194.244575 
L 113.332262 193.83497 
L 113.605135 193.83497 
L 113.605135 193.425365 
L 113.854796 193.425365 
L 113.854796 193.01576 
L 114.063912 193.01576 
L 114.063912 192.606155 
L 114.351764 192.606155 
L 114.427212 191.786945 
L 114.845626 191.786945 
L 114.845626 191.37734 
L 115.863936 191.37734 
L 115.863936 190.967735 
L 116.066943 190.967735 
L 116.066943 190.55813 
L 116.572619 190.55813 
L 116.572619 190.148525 
L 117.318998 190.148525 
L 117.318998 189.73892 
L 118.008651 189.73892 
L 118.008651 189.329315 
L 119.004123 189.329315 
L 119.104783 188.1005 
L 119.764183 188.1005 
L 119.764183 187.690895 
L 120.135082 187.690895 
L 120.135082 187.28129 
L 120.360682 187.28129 
L 120.418125 186.052475 
L 120.881711 186.052475 
L 120.881711 185.64287 
L 121.375573 185.64287 
L 121.375573 185.233265 
L 121.680021 185.233265 
L 121.680021 184.82366 
L 122.59689 184.82366 
L 122.59689 184.414055 
L 123.190958 184.414055 
L 123.190958 184.00445 
L 123.465806 184.00445 
L 123.465806 183.594845 
L 123.609042 183.594845 
L 123.653559 182.775635 
L 123.905475 182.775635 
L 123.905475 182.36603 
L 124.125206 182.36603 
L 124.232049 181.54682 
L 124.779148 181.54682 
L 124.779148 181.137215 
L 125.565369 181.137215 
L 125.565369 180.72761 
L 126.353119 180.72761 
L 126.353119 180.318005 
L 127.551981 180.318005 
L 127.551981 179.9084 
L 127.970065 179.9084 
L 128.044557 178.679585 
L 128.175839 178.679585 
L 128.251771 177.45077 
L 128.4255 177.45077 
L 128.4255 177.041165 
L 128.593072 177.041165 
L 128.593072 176.63156 
L 128.748739 176.63156 
L 128.748739 176.221955 
L 128.922468 176.221955 
L 128.922468 175.81235 
L 129.167583 175.81235 
L 129.242601 174.99314 
L 129.41633 174.99314 
L 129.417244 174.17393 
L 129.914212 174.17393 
L 129.995753 173.35472 
L 130.397556 173.35472 
L 130.463918 172.125905 
L 130.637646 172.125905 
L 130.655153 171.306695 
L 131.309096 171.306695 
L 131.309096 170.89709 
L 131.629391 170.89709 
L 131.629391 170.487485 
L 132.464208 170.487485 
L 132.540087 169.668275 
L 132.713869 169.668275 
L 132.713869 169.25867 
L 133.210837 169.25867 
L 133.210837 168.849065 
L 133.704698 168.849065 
L 133.704698 168.43946 
L 134.081928 168.43946 
L 134.081928 168.029855 
L 134.500012 168.029855 
L 134.500012 167.62025 
L 134.658649 167.62025 
L 134.758579 166.80104 
L 134.926015 166.80104 
L 134.951199 165.98183 
L 135.123019 165.98183 
L 135.20086 165.16262 
L 135.697828 165.16262 
L 135.712821 164.34341 
L 135.962482 164.34341 
L 135.962482 163.933805 
L 136.076996 163.933805 
L 136.076996 163.5242 
L 136.19169 163.5242 
L 136.29438 162.295385 
L 136.45945 162.295385 
L 136.45945 161.88578 
L 136.953311 161.88578 
L 136.953311 161.476175 
L 137.242469 161.476175 
L 137.242469 161.06657 
L 137.413007 161.06657 
L 137.413007 160.656965 
L 137.715009 160.656965 
L 137.715009 160.24736 
L 137.862781 160.24736 
L 137.96467 159.42815 
L 138.03651 159.42815 
L 138.03651 159.018545 
L 138.174628 159.018545 
L 138.174628 158.60894 
L 138.328487 158.60894 
L 138.328487 158.199335 
L 138.461638 158.199335 
L 138.522181 157.380125 
L 138.69591 157.380125 
L 138.742024 156.560915 
L 138.9555 156.560915 
L 139.028254 155.741705 
L 139.176124 155.741705 
L 139.176124 155.3321 
L 139.349852 155.3321 
L 139.349852 154.922495 
L 139.687654 154.922495 
L 139.687654 154.51289 
L 140.176817 154.51289 
L 140.176817 154.103285 
L 140.341596 154.103285 
L 140.341596 153.69368 
L 140.539094 153.69368 
L 140.539094 153.284075 
L 140.655403 153.284075 
L 140.655403 152.87447 
L 141.288526 152.87447 
L 141.288526 152.464865 
L 141.948956 152.464865 
L 141.948956 152.05526 
L 142.122685 152.05526 
L 142.122685 151.645655 
L 142.324879 151.645655 
L 142.36704 150.826445 
L 142.540769 150.826445 
L 142.606814 150.007235 
L 142.984278 150.007235 
L 143.026085 148.77842 
L 143.103047 148.77842 
L 143.163776 147.549605 
L 143.532513 147.549605 
L 143.638221 146.730395 
L 143.787706 146.730395 
L 143.787706 146.32079 
L 144.15552 146.32079 
L 144.15552 145.911185 
L 144.81187 145.911185 
L 144.843311 145.091975 
L 145.054598 145.091975 
L 145.054598 144.68237 
L 145.47127 144.68237 
L 145.574961 143.453555 
L 145.789895 143.453555 
L 145.789895 143.04395 
L 145.938261 143.04395 
L 145.938261 142.634345 
L 146.125213 142.634345 
L 146.232891 141.815135 
L 146.411054 141.815135 
L 146.411054 141.40553 
L 146.829138 141.40553 
L 146.886834 140.58632 
L 147.17316 140.58632 
L 147.18535 139.76711 
L 147.374985 139.76711 
L 147.452144 138.9479 
L 147.57568 138.9479 
L 147.57568 138.538295 
L 148.083668 138.538295 
L 148.083668 138.12869 
L 148.23508 138.12869 
L 148.23508 137.719085 
L 148.889022 137.719085 
L 148.898045 136.899875 
L 149.155554 136.899875 
L 149.244203 136.080665 
L 149.316129 136.080665 
L 149.329283 135.261455 
L 149.493864 135.261455 
L 149.493864 134.85185 
L 149.632994 134.85185 
L 149.659667 134.03264 
L 149.939136 134.03264 
L 149.990832 133.21343 
L 150.077751 133.21343 
L 150.077751 132.803825 
L 150.321027 132.803825 
L 150.321027 132.39422 
L 150.484694 132.39422 
L 150.515171 131.165405 
L 150.700757 131.165405 
L 150.700757 130.7558 
L 150.92712 130.7558 
L 150.92712 130.346195 
L 151.176781 130.346195 
L 151.176781 129.93659 
L 151.661855 129.93659 
L 151.706011 128.707775 
L 151.87173 128.707775 
L 151.87173 128.29817 
L 152.079939 128.29817 
L 152.167611 127.47896 
L 152.702946 127.47896 
L 152.702946 127.069355 
L 153.388928 127.069355 
L 153.388928 126.65975 
L 153.617652 126.65975 
L 153.617652 126.250145 
L 155.052378 126.250145 
L 155.121325 125.430935 
L 155.164608 125.430935 
L 155.226107 124.611725 
L 155.461837 124.611725 
L 155.461837 124.20212 
L 155.711498 124.20212 
L 155.711498 123.792515 
L 156.104643 123.792515 
L 156.208466 122.973305 
L 156.217851 122.973305 
L 156.217851 122.5637 
L 156.702327 122.5637 
L 156.702327 122.154095 
L 156.866265 122.154095 
L 156.866265 121.74449 
L 157.076418 121.74449 
L 157.076418 121.334885 
L 157.319089 121.334885 
L 157.357822 120.515675 
L 157.500022 120.515675 
L 157.500022 120.10607 
L 157.673751 120.10607 
L 157.673751 119.696465 
L 157.923644 119.696465 
L 157.923644 119.28686 
L 158.089472 119.28686 
L 158.089472 118.877255 
L 158.452772 118.877255 
L 158.452772 118.46765 
L 158.665495 118.46765 
L 158.665495 118.058045 
L 158.868453 118.058045 
L 158.868453 117.64844 
L 159.002006 117.64844 
L 159.104874 116.82923 
L 159.514475 116.82923 
L 159.555606 116.01002 
L 159.764274 116.01002 
L 159.764274 115.600415 
L 159.889496 115.600415 
L 159.889496 115.19081 
L 160.418216 115.19081 
L 160.418216 114.781205 
L 160.598179 114.781205 
L 160.598179 114.3716 
L 160.787791 114.3716 
L 160.787791 113.961995 
L 161.447191 113.961995 
L 161.447191 113.55239 
L 161.96212 113.55239 
L 162.001467 112.73318 
L 162.101134 112.73318 
L 162.101134 112.323575 
L 162.763088 112.323575 
L 162.763088 111.91397 
L 163.029682 111.91397 
L 163.029682 111.09476 
L 163.191049 111.09476 
L 163.191049 110.685155 
L 163.536722 110.685155 
L 163.609133 109.865945 
L 164.23214 109.865945 
L 164.23214 109.45634 
L 164.386241 109.45634 
L 164.449111 108.63713 
L 164.765277 108.63713 
L 164.873967 107.81792 
L 165.210733 107.81792 
L 165.29205 106.99871 
L 165.322508 106.99871 
L 165.322508 106.589105 
L 165.915057 106.589105 
L 165.981907 105.769895 
L 166.63585 105.769895 
L 166.63585 105.36029 
L 167.212921 105.36029 
L 167.212921 104.950685 
L 167.679119 104.950685 
L 167.679119 104.54108 
L 169.408683 104.54108 
L 169.408683 104.131475 
L 169.590929 104.131475 
L 169.590929 103.72187 
L 169.826767 103.72187 
L 169.839536 102.90266 
L 170.397647 102.90266 
L 170.449773 102.08345 
L 172.070117 102.08345 
L 172.080564 101.26424 
L 172.310327 101.26424 
L 172.310327 100.854635 
L 172.484566 100.854635 
L 172.484566 100.44503 
L 172.834202 100.44503 
L 172.834202 100.035425 
L 174.428889 100.035425 
L 174.428889 99.62582 
L 174.603128 99.62582 
L 174.603128 99.216215 
L 174.952764 99.216215 
L 174.952764 98.80661 
L 176.225999 98.80661 
L 176.294471 97.9874 
L 176.47566 97.9874 
L 176.47566 97.577795 
L 176.615281 97.577795 
L 176.615281 97.16819 
L 176.972627 97.16819 
L 176.972627 96.758585 
L 177.466489 96.758585 
L 177.466489 96.34898 
L 177.977388 96.34898 
L 177.977388 95.939375 
L 178.687806 95.939375 
L 178.742115 95.120165 
L 180.425032 95.120165 
L 180.425032 94.71056 
L 182.354047 94.71056 
L 182.377053 93.89135 
L 182.512104 93.89135 
L 182.551293 93.07214 
L 182.900929 93.07214 
L 182.900929 92.662535 
L 184.300884 92.662535 
L 184.300884 92.25293 
L 184.61355 92.25293 
L 184.61355 91.843325 
L 184.78779 91.843325 
L 184.78779 91.43372 
L 184.959749 91.43372 
L 184.959749 91.024115 
L 185.137426 91.024115 
L 185.137426 90.61451 
L 185.3452 90.61451 
L 185.3452 90.204905 
L 185.51944 90.204905 
L 185.51944 89.7953 
L 185.7085 89.7953 
L 185.7085 89.385695 
L 185.869076 89.385695 
L 185.88274 88.566485 
L 186.086669 88.566485 
L 186.086669 88.15688 
L 186.232376 88.15688 
L 186.232376 87.747275 
L 186.746069 87.747275 
L 186.746069 87.33767 
L 187.051134 87.33767 
L 187.145224 86.51846 
L 187.319464 86.51846 
L 187.400012 85.69925 
L 187.6691 85.69925 
L 187.6691 85.289645 
L 187.853907 85.289645 
L 187.853907 84.88004 
L 188.028147 84.88004 
L 188.028147 84.470435 
L 188.377783 84.470435 
L 188.377783 84.06083 
L 190.172845 84.06083 
L 190.172845 83.651225 
L 190.285411 83.651225 
L 190.285411 82.832015 
L 190.45965 82.832015 
L 190.472227 81.6032 
L 190.590928 81.6032 
L 190.590928 81.193595 
L 190.809286 81.193595 
L 190.809286 80.374385 
L 191.213935 80.374385 
L 191.213935 79.96478 
L 191.64197 79.96478 
L 191.64197 79.555175 
L 191.816209 79.555175 
L 191.816209 79.14557 
L 192.165845 79.14557 
L 192.165845 78.735965 
L 192.417628 78.735965 
L 192.417628 78.32636 
L 193.598835 78.32636 
L 193.598835 77.916755 
L 194.53619 77.916755 
L 194.53619 77.50715 
L 194.716626 77.50715 
L 194.716626 77.097545 
L 194.934847 77.097545 
L 194.934847 76.68794 
L 195.067732 76.68794 
L 195.109087 75.86873 
L 195.458723 75.86873 
L 195.458723 75.459125 
L 196.447076 75.459125 
L 196.447076 75.04952 
L 196.846657 75.04952 
L 196.846657 74.639915 
L 197.020897 74.639915 
L 197.020897 74.23031 
L 197.349866 74.23031 
L 197.379442 73.001495 
L 197.936012 73.001495 
L 197.936012 72.59189 
L 198.488826 72.59189 
L 198.488826 72.182285 
L 199.184361 72.182285 
L 199.184361 71.77268 
L 199.325845 71.77268 
L 199.325845 71.363075 
L 199.500085 71.363075 
L 199.500085 70.95347 
L 199.849721 70.95347 
L 199.849721 70.543865 
L 200.942464 70.543865 
L 200.942464 70.13426 
L 201.615434 70.13426 
L 201.615434 69.724655 
L 202.484354 69.724655 
L 202.484354 69.31505 
L 202.733224 69.31505 
L 202.733224 68.905445 
L 203.276266 68.905445 
L 203.276266 68.49584 
L 204.463674 68.49584 
L 204.463674 68.086235 
L 204.639174 68.086235 
L 204.720852 67.267025 
L 205.366464 67.267025 
L 205.452502 66.447815 
L 205.72391 66.447815 
L 205.815802 65.628605 
L 205.95261 65.628605 
L 205.95261 65.219 
L 206.459773 65.219 
L 206.459773 64.809395 
L 207.200959 64.809395 
L 207.252525 63.990185 
L 207.448044 63.990185 
L 207.448044 63.58058 
L 207.961208 63.58058 
L 207.961208 63.170975 
L 208.7503 63.170975 
L 208.7503 62.76137 
L 208.959062 62.76137 
L 208.959062 62.351765 
L 209.609775 62.351765 
L 209.609775 61.94216 
L 209.784015 61.94216 
L 209.784015 61.532555 
L 209.897014 61.532555 
L 209.897014 61.12295 
L 210.133651 61.12295 
L 210.133651 60.713345 
L 210.392712 60.713345 
L 210.392712 59.894135 
L 211.170029 59.894135 
L 211.170029 59.48453 
L 211.749271 59.48453 
L 211.749271 59.074925 
L 212.655772 59.074925 
L 212.655772 58.66532 
L 214.476372 58.66532 
L 214.476372 58.255715 
L 215.042148 58.255715 
L 215.042148 57.84611 
L 215.464642 57.84611 
L 215.464642 57.436505 
L 216.766898 57.436505 
L 216.766898 57.0269 
L 216.953958 57.0269 
L 216.953958 56.617295 
L 217.913612 56.617295 
L 217.913612 56.20769 
L 219.186627 56.20769 
L 219.186627 55.798085 
L 219.433146 55.798085 
L 219.433146 55.38848 
L 224.679194 55.38848 
L 224.679194 54.978875 
L 228.100287 54.978875 
L 228.100287 54.56927 
L 229.092237 54.56927 
L 229.092237 54.159665 
L 229.717076 54.159665 
L 229.717076 53.75006 
L 231.226895 53.75006 
L 231.226895 53.340455 
L 231.911044 53.340455 
L 231.911044 52.93085 
L 232.344686 52.93085 
L 232.418736 52.11164 
L 232.513331 52.11164 
L 232.513331 51.702035 
L 232.724925 51.702035 
L 232.724925 51.29243 
L 234.075136 51.29243 
L 234.075136 50.882825 
L 234.977925 50.882825 
L 234.977925 50.47322 
L 235.332137 50.47322 
L 235.332137 50.063615 
L 235.564072 50.063615 
L 235.639939 49.244405 
L 235.83983 49.244405 
L 235.83983 48.8348 
L 236.146019 48.8348 
L 236.146019 48.425195 
L 236.757729 48.425195 
L 236.81242 47.605985 
L 237.281088 47.605985 
L 237.281088 47.19638 
L 238.458745 47.19638 
L 238.488179 46.37717 
L 238.570524 46.37717 
L 238.570524 45.967565 
L 238.966438 45.967565 
L 238.966438 45.55796 
L 239.272627 45.55796 
L 239.272627 45.148355 
L 239.390969 45.148355 
L 239.390969 44.73875 
L 239.576536 44.73875 
L 239.576536 44.329145 
L 239.977115 44.329145 
L 240.084229 43.509935 
L 240.390417 43.509935 
L 240.390417 43.10033 
L 240.702182 43.10033 
L 240.702182 42.690725 
L 241.225464 42.690725 
L 241.306986 41.871515 
L 241.814679 41.871515 
L 241.814679 41.46191 
L 242.120867 41.46191 
L 242.209775 40.6427 
L 242.267234 40.6427 
L 242.267234 40.233095 
L 242.717468 40.233095 
L 242.795922 39.413885 
L 242.983567 39.413885 
L 243.023657 38.594675 
L 243.303615 38.594675 
L 243.303615 38.18507 
L 243.609803 38.18507 
L 243.609803 37.775465 
L 243.82879 37.775465 
L 243.82879 37.36586 
L 244.04427 37.36586 
L 244.087833 36.54665 
L 244.551963 36.54665 
L 244.551963 36.137045 
L 244.858152 36.137045 
L 244.94658 35.317835 
L 245.076104 35.317835 
L 245.076104 34.90823 
L 245.472012 34.90823 
L 245.472012 34.498625 
L 245.802374 34.498625 
L 245.802374 34.08902 
L 246.310067 34.08902 
L 246.37836 33.26981 
L 246.616255 33.26981 
L 246.680277 32.040995 
L 247.525074 32.040995 
L 247.57982 31.221785 
L 248.165966 31.221785 
L 248.165966 30.81218 
L 248.500877 30.81218 
L 248.500877 30.402575 
L 248.798089 30.402575 
L 248.893106 29.583365 
L 249.414315 29.583365 
L 249.499084 28.35455 
L 250.006777 28.35455 
L 250.006777 27.944945 
L 250.312965 27.944945 
L 250.312965 27.53534 
L 250.791403 27.53534 
L 250.791403 27.125735 
L 251.172418 27.125735 
L 251.172418 26.71613 
L 251.319683 26.71613 
L 251.319683 26.306525 
L 251.827376 26.306525 
L 251.938117 25.487315 
L 252.019714 25.487315 
L 252.019714 25.07771 
L 252.133565 25.07771 
L 252.133565 24.668105 
L 252.307954 24.668105 
L 252.307954 24.2585 
L 252.815646 24.2585 
L 252.815646 23.848895 
L 253.121835 23.848895 
L 253.211132 22.62008 
L 253.61021 22.62008 
L 253.61021 22.210475 
L 254.117902 22.210475 
L 254.117902 21.80087 
L 254.424091 21.80087 
L 254.424091 21.391265 
L 254.756924 21.391265 
L 254.867954 20.572055 
L 254.869128 20.572055 
L 254.869128 20.16245 
L 255.264616 20.16245 
L 255.264616 19.752845 
L 255.570805 19.752845 
L 255.570805 19.34324 
L 255.770744 19.34324 
L 255.770744 18.933635 
L 256.029939 18.933635 
L 256.029939 18.52403 
L 256.35689 18.52403 
L 256.35689 18.114425 
L 256.537631 18.114425 
L 256.537631 17.70482 
L 256.689728 17.70482 
L 256.689728 17.295215 
L 256.84382 17.295215 
L 256.84382 16.88561 
L 257.605239 16.88561 
L 257.677998 16.0664 
L 258.980254 16.0664 
L 258.980254 15.656795 
L 259.363342 15.656795 
L 259.363342 15.24719 
L 260.126968 15.24719 
L 260.126968 14.837585 
L 261.399983 14.837585 
L 261.399983 14.42798 
L 263.060052 14.42798 
L 263.060052 14.018375 
L 264.880652 14.018375 
L 264.880652 13.60877 
L 265.868922 13.60877 
L 265.868922 13.199165 
L 267.171178 13.199165 
L 267.171178 12.78956 
L 268.317892 12.78956 
L 268.317892 12.379955 
L 269.590907 12.379955 
L 269.590907 11.97035 
L 453.192 11.97035 
L 453.192 11.97035 
" style="fill:none;stroke:#000000;stroke-linecap:square;stroke-width:3;"/>
   </g>
   <g id="line2d_36">
    <path clip-path="url(#p7014bb999d)" style="fill:none;stroke:#000000;stroke-linecap:square;stroke-width:3;"/>
   </g>
   <g id="line2d_37">
    <path clip-path="url(#p7014bb999d)" d="M 34.16 187.963965 
L 66.279934 187.963965 
L 66.279934 187.545258 
L 68.113859 187.545258 
L 68.113859 187.12655 
L 68.307376 187.12655 
L 68.402636 185.870428 
L 69.536879 185.870428 
L 69.536879 185.451721 
L 69.817915 185.451721 
L 69.817915 185.033014 
L 70.141301 185.033014 
L 70.23656 183.776892 
L 70.839909 183.776892 
L 70.839909 183.358184 
L 71.370804 183.358184 
L 71.370804 182.939477 
L 71.651839 182.939477 
L 71.651839 182.52077 
L 71.848853 182.52077 
L 71.848853 181.683355 
L 72.673833 181.683355 
L 72.673833 181.264648 
L 73.682777 181.264648 
L 73.682777 180.427233 
L 73.794546 180.427233 
L 73.794546 180.008526 
L 73.954201 180.008526 
L 73.954201 179.589818 
L 74.800619 179.589818 
L 74.800619 179.171111 
L 75.821988 179.171111 
L 75.917247 177.914989 
L 75.93382 177.914989 
L 75.981643 177.077574 
L 76.076902 177.077574 
L 76.083062 175.821452 
L 76.634543 175.821452 
L 76.634543 175.402745 
L 77.051491 175.402745 
L 77.136285 174.56533 
L 77.211146 174.56533 
L 77.211146 174.146623 
L 77.332526 174.146623 
L 77.332526 173.727916 
L 77.492181 173.727916 
L 77.492181 173.309208 
L 77.767744 173.309208 
L 77.767744 172.890501 
L 78.110504 172.890501 
L 78.205763 171.634379 
L 78.35452 171.634379 
L 78.35452 171.215672 
L 78.514175 171.215672 
L 78.514175 170.796964 
L 78.655902 170.796964 
L 78.718221 169.95955 
L 78.970209 169.95955 
L 78.970209 169.540842 
L 79.19251 169.540842 
L 79.19251 169.122135 
L 79.340007 169.122135 
L 79.363465 167.866013 
L 79.52254 167.866013 
L 79.621042 166.191184 
L 80.489826 166.191184 
L 80.489826 165.772476 
L 80.643036 165.772476 
L 80.745663 164.935062 
L 80.840922 164.935062 
L 80.840922 164.097647 
L 81.218714 164.097647 
L 81.315212 162.422818 
L 81.549982 162.422818 
L 81.651981 160.329281 
L 81.975166 160.329281 
L 81.975166 159.910574 
L 82.256201 159.910574 
L 82.315231 159.073159 
L 82.449455 159.073159 
L 82.474885 158.235744 
L 82.73049 158.235744 
L 82.779485 157.39833 
L 83.0469 157.39833 
L 83.06052 156.560915 
L 83.246156 156.560915 
L 83.349656 154.467378 
L 83.448432 154.467378 
L 83.448432 154.048671 
L 83.608086 154.048671 
L 83.608086 153.629964 
L 83.752485 153.629964 
L 83.752485 153.211256 
L 84.082515 153.211256 
L 84.082515 152.792549 
L 84.28714 152.792549 
L 84.28714 151.955134 
L 84.475659 151.955134 
L 84.475659 151.536427 
L 84.603746 151.536427 
L 84.650897 150.699012 
L 84.756694 150.699012 
L 84.810552 149.024183 
L 84.880824 149.024183 
L 84.880824 148.605476 
L 85.091459 148.605476 
L 85.091459 147.768061 
L 85.377098 147.768061 
L 85.472357 146.511939 
L 85.736948 146.511939 
L 85.791204 145.255817 
L 86.170513 145.255817 
L 86.170513 144.83711 
L 86.330168 144.83711 
L 86.330168 144.418402 
L 86.606601 144.418402 
L 86.606601 143.999695 
L 86.787633 143.999695 
L 86.887636 142.743573 
L 86.939413 142.743573 
L 86.939413 142.324866 
L 87.206682 142.324866 
L 87.238905 141.487451 
L 87.713195 141.487451 
L 87.818646 140.650036 
L 87.90963 140.650036 
L 87.913906 139.393914 
L 88.043225 139.393914 
L 88.043225 138.975207 
L 88.372106 138.975207 
L 88.459029 138.137792 
L 88.6261 138.137792 
L 88.6261 137.719085 
L 88.846396 137.719085 
L 88.918575 136.462963 
L 89.040607 136.462963 
L 89.048149 135.625548 
L 89.176426 135.625548 
L 89.176426 135.206841 
L 89.329184 135.206841 
L 89.329184 134.788134 
L 89.574572 134.788134 
L 89.574572 134.369426 
L 89.739399 134.369426 
L 89.739399 133.950719 
L 90.048861 133.950719 
L 90.048861 133.532012 
L 90.222751 133.532012 
L 90.222751 133.113304 
L 90.351179 133.113304 
L 90.378891 132.27589 
L 90.561511 132.27589 
L 90.653542 131.438475 
L 90.721166 131.438475 
L 90.748802 130.182353 
L 90.8726 130.182353 
L 90.8726 129.763646 
L 91.094188 129.763646 
L 91.094188 129.344938 
L 91.360123 129.344938 
L 91.360123 128.507524 
L 91.568478 128.507524 
L 91.568478 128.088816 
L 91.87034 128.088816 
L 91.898508 126.832694 
L 92.075065 126.832694 
L 92.16408 125.99528 
L 92.250193 125.99528 
L 92.345452 124.739158 
L 92.850027 124.739158 
L 92.850027 124.32045 
L 93.003541 124.32045 
L 93.003541 123.901743 
L 93.186075 123.901743 
L 93.186075 123.483036 
L 93.479696 123.483036 
L 93.479696 123.064328 
L 93.594682 123.064328 
L 93.594682 122.645621 
L 93.760731 122.645621 
L 93.760731 122.226914 
L 94.195019 122.226914 
L 94.206007 120.970792 
L 94.311889 120.970792 
L 94.311889 120.552084 
L 94.721294 120.552084 
L 94.782725 119.71467 
L 94.880949 119.71467 
L 94.880949 119.295962 
L 95.44509 119.295962 
L 95.485186 118.03984 
L 95.725623 118.03984 
L 95.79167 116.783718 
L 95.959475 116.783718 
L 95.959475 116.365011 
L 96.138281 116.365011 
L 96.138281 115.946304 
L 96.289505 115.946304 
L 96.289505 115.527596 
L 96.647555 115.527596 
L 96.647555 115.108889 
L 97.00981 115.108889 
L 97.00981 114.690182 
L 97.146785 114.690182 
L 97.146785 114.271474 
L 97.823156 114.271474 
L 97.823156 113.852767 
L 97.985679 113.852767 
L 97.985679 113.43406 
L 98.167172 113.43406 
L 98.167172 113.015352 
L 98.279986 113.015352 
L 98.279986 112.596645 
L 98.495123 112.596645 
L 98.495123 112.177938 
L 98.743435 112.177938 
L 98.743435 111.75923 
L 99.482451 111.75923 
L 99.482451 111.340523 
L 99.644969 111.340523 
L 99.644969 110.921816 
L 99.876636 110.921816 
L 99.876636 110.503108 
L 100.116621 110.503108 
L 100.119258 109.665694 
L 100.449288 109.665694 
L 100.522564 108.828279 
L 100.617824 108.828279 
L 100.617824 107.990864 
L 101.002068 107.990864 
L 101.079102 107.15345 
L 101.752068 107.15345 
L 101.752068 106.734742 
L 102.033103 106.734742 
L 102.033103 106.316035 
L 102.145462 106.316035 
L 102.145462 105.897328 
L 102.558169 105.897328 
L 102.598718 105.059913 
L 103.055097 105.059913 
L 103.055097 104.641206 
L 104.064041 104.641206 
L 104.064041 103.803791 
L 104.276404 103.803791 
L 104.276404 103.385084 
L 104.531709 103.385084 
L 104.531709 102.966376 
L 105.393065 102.966376 
L 105.393065 102.547669 
L 106.717952 102.547669 
L 106.717952 102.128962 
L 106.989716 102.128962 
L 107.015807 101.291547 
L 107.24115 101.291547 
L 107.24115 100.87284 
L 108.149008 100.87284 
L 108.149008 100.454132 
L 109.351473 100.454132 
L 109.351473 100.035425 
L 109.552848 100.035425 
L 109.573943 99.19801 
L 109.860758 99.19801 
L 109.860758 98.779303 
L 110.146537 98.779303 
L 110.146537 98.360595 
L 110.715011 98.360595 
L 110.715011 97.941888 
L 110.87109 97.941888 
L 110.87109 97.523181 
L 111.149499 97.523181 
L 111.149499 97.104473 
L 111.279425 97.104473 
L 111.279425 96.685766 
L 112.396301 96.685766 
L 112.396301 96.267059 
L 115.262088 96.267059 
L 115.262088 95.848351 
L 115.38872 95.848351 
L 115.38872 95.429644 
L 119.040349 95.429644 
L 119.040349 95.010937 
L 119.421871 95.010937 
L 119.421871 94.592229 
L 120.804771 94.592229 
L 120.804771 94.173522 
L 123.016918 94.173522 
L 123.016918 93.754815 
L 131.101278 93.754815 
L 131.101278 93.336107 
L 131.349631 93.336107 
L 131.349631 92.9174 
L 131.785418 92.9174 
L 131.785418 92.498693 
L 132.033771 92.498693 
L 132.033771 92.079985 
L 133.470292 92.079985 
L 133.470292 91.661278 
L 133.718646 91.661278 
L 133.718646 91.242571 
L 140.178845 91.242571 
L 140.178845 90.823863 
L 140.427198 90.823863 
L 140.427198 90.405156 
L 142.888286 90.405156 
L 142.888286 89.986449 
L 143.136639 89.986449 
L 143.136639 89.567741 
L 145.221079 89.567741 
L 145.221079 89.149034 
L 145.469432 89.149034 
L 145.507895 88.311619 
L 145.756248 88.311619 
L 145.793673 87.474205 
L 146.042026 87.474205 
L 146.042026 87.055497 
L 146.362148 87.055497 
L 146.362148 86.63679 
L 146.610501 86.63679 
L 146.610501 86.218083 
L 146.926562 86.218083 
L 146.926562 85.799375 
L 147.174915 85.799375 
L 147.174915 85.380668 
L 148.043437 85.380668 
L 148.043437 84.961961 
L 148.29179 84.961961 
L 148.29179 84.543253 
L 151.035856 84.543253 
L 151.035856 84.124546 
L 151.28421 84.124546 
L 151.28421 83.705839 
L 154.687486 83.705839 
L 154.687486 83.287131 
L 154.935839 83.287131 
L 154.935839 82.868424 
L 155.616499 82.868424 
L 155.616499 82.449717 
L 156.300638 82.449717 
L 156.300638 82.031009 
L 156.451908 82.031009 
L 156.451908 81.612302 
L 156.700261 81.612302 
L 156.700261 81.193595 
L 157.985513 81.193595 
L 157.985513 80.774887 
L 158.664054 80.774887 
L 158.664054 80.35618 
L 158.912407 80.35618 
L 158.912407 79.937473 
L 160.378737 79.937473 
L 160.378737 79.518765 
L 160.738727 79.518765 
L 160.738727 79.100058 
L 161.062877 79.100058 
L 161.062877 78.681351 
L 161.422867 78.681351 
L 161.422867 78.262643 
L 162.747751 78.262643 
L 162.747751 77.843936 
L 163.107741 77.843936 
L 163.107741 77.425229 
L 164.694066 77.425229 
L 164.694066 77.006521 
L 167.403507 77.006521 
L 167.403507 76.587814 
L 169.456304 76.587814 
L 169.456304 76.169107 
L 169.7363 76.169107 
L 169.816294 75.331692 
L 170.023116 75.331692 
L 170.023116 74.912985 
L 170.308894 74.912985 
L 170.308894 74.494277 
L 170.877368 74.494277 
L 170.877368 74.07557 
L 171.441782 74.07557 
L 171.441782 73.656863 
L 172.165745 73.656863 
L 172.165745 73.238155 
L 172.525735 73.238155 
L 172.558658 72.400741 
L 174.498538 72.400741 
L 174.498538 71.982033 
L 174.785354 71.982033 
L 174.858528 71.144619 
L 175.071132 71.144619 
L 175.145344 70.307204 
L 175.431122 70.307204 
L 175.431122 69.888497 
L 175.551077 69.888497 
L 175.639607 69.051082 
L 175.999597 69.051082 
L 175.999597 68.632375 
L 176.204021 68.632375 
L 176.204021 68.213667 
L 176.564011 68.213667 
L 176.564011 67.79496 
L 177.320896 67.79496 
L 177.320896 67.376253 
L 177.680886 67.376253 
L 177.680886 66.957545 
L 179.202706 66.957545 
L 179.202706 66.538838 
L 180.313316 66.538838 
L 180.313316 66.120131 
L 180.673305 66.120131 
L 180.673305 65.701423 
L 180.967129 65.701423 
L 180.967129 65.282716 
L 181.530287 65.282716 
L 181.530287 64.864009 
L 182.214426 64.864009 
L 182.214426 64.445301 
L 183.179275 64.445301 
L 183.179275 64.026594 
L 183.899301 64.026594 
L 183.964945 63.189179 
L 184.324935 63.189179 
L 184.324935 62.770472 
L 185.729367 62.770472 
L 185.729367 62.351765 
L 186.089357 62.351765 
L 186.089357 61.933057 
L 187.941513 61.933057 
L 187.941513 61.51435 
L 188.301503 61.51435 
L 188.301503 61.095643 
L 188.420406 61.095643 
L 188.420406 60.676935 
L 188.963943 60.676935 
L 188.963943 60.258228 
L 190.356873 60.258228 
L 190.356873 59.839521 
L 190.607853 59.839521 
L 190.607853 59.420813 
L 193.317295 59.420813 
L 193.317295 59.002106 
L 195.384975 59.002106 
L 195.384975 58.583399 
L 195.650088 58.583399 
L 195.650088 58.164691 
L 195.936903 58.164691 
L 195.936903 57.745984 
L 196.130541 57.745984 
L 196.222682 56.908569 
L 196.363549 56.908569 
L 196.363549 56.489862 
L 196.609789 56.489862 
L 196.609789 56.071155 
L 196.791156 56.071155 
L 196.791156 55.652447 
L 197.334748 55.652447 
L 197.35557 54.815033 
L 197.550486 54.815033 
L 197.550486 54.396325 
L 197.761066 54.396325 
L 197.761066 53.977618 
L 198.239644 53.977618 
L 198.239644 53.558911 
L 198.472446 53.558911 
L 198.472446 53.140203 
L 199.156757 53.140203 
L 199.156757 52.721496 
L 200.554705 52.721496 
L 200.554705 52.302789 
L 201.464865 52.302789 
L 201.464865 51.884081 
L 203.039413 51.884081 
L 203.039413 51.465374 
L 204.33304 51.465374 
L 204.33304 51.046667 
L 205.116494 51.046667 
L 205.116494 50.627959 
L 206.880916 50.627959 
L 206.880916 50.209252 
L 209.093063 50.209252 
L 209.093063 49.790545 
L 223.724597 49.790545 
L 223.724597 49.371837 
L 224.268133 49.371837 
L 224.268133 48.95313 
L 225.548239 48.95313 
L 225.548239 48.534423 
L 225.661064 48.534423 
L 225.661064 48.115715 
L 226.091776 48.115715 
L 226.091776 47.697008 
L 227.484706 47.697008 
L 227.484706 47.278301 
L 227.813865 47.278301 
L 227.813865 46.859593 
L 228.176719 46.859593 
L 228.176719 46.440886 
L 228.357402 46.440886 
L 228.357402 46.022179 
L 228.720256 46.022179 
L 228.720256 45.603471 
L 229.636414 45.603471 
L 229.636414 45.184764 
L 229.750332 45.184764 
L 229.750332 44.766057 
L 230.113186 44.766057 
L 230.179951 43.928642 
L 230.550624 43.928642 
L 230.659647 43.091227 
L 230.689166 43.091227 
L 230.689166 42.67252 
L 231.094161 42.67252 
L 231.203184 41.835105 
L 231.434731 41.835105 
L 231.434731 41.416398 
L 231.572881 41.416398 
L 231.667739 40.578983 
L 231.91398 40.578983 
L 231.91398 40.160276 
L 232.487091 40.160276 
L 232.596114 38.904154 
L 232.638938 38.904154 
L 232.638938 38.485447 
L 232.854677 38.485447 
L 232.854677 38.066739 
L 233.065256 38.066739 
L 233.065256 37.648032 
L 233.258373 37.648032 
L 233.258373 37.229325 
L 233.491381 37.229325 
L 233.543835 36.39191 
L 233.737622 36.39191 
L 233.737622 35.973203 
L 234.460947 35.973203 
L 234.462581 35.135788 
L 234.678319 35.135788 
L 234.778434 34.298373 
L 234.888899 34.298373 
L 234.888899 33.879666 
L 235.141288 33.879666 
L 235.141288 33.460959 
L 235.367477 33.460959 
L 235.367477 33.042251 
L 235.523999 33.042251 
L 235.523999 32.623544 
L 235.757007 32.623544 
L 235.858896 31.786129 
L 235.886853 31.786129 
L 235.886853 31.367422 
L 236.003248 31.367422 
L 236.003248 30.948715 
L 236.119861 30.948715 
L 236.119861 30.530007 
L 236.28459 30.530007 
L 236.366102 29.692593 
L 236.600983 29.692593 
L 236.600983 29.273885 
L 236.728207 29.273885 
L 236.728207 28.855178 
L 236.943945 28.855178 
L 236.943945 28.436471 
L 237.09106 28.436471 
L 237.154525 27.599056 
L 237.306799 27.599056 
L 237.346548 26.761641 
L 237.515193 26.761641 
L 237.624216 25.086812 
L 237.633103 25.086812 
L 237.682538 24.249397 
L 237.825797 24.249397 
L 237.825797 23.83069 
L 237.995957 23.83069 
L 237.995957 23.411983 
L 238.260758 23.411983 
L 238.369781 22.155861 
L 238.493766 22.155861 
L 238.602789 20.481031 
L 238.740007 20.481031 
L 238.84903 19.224909 
L 238.91307 19.224909 
L 238.977074 18.387495 
L 239.455652 18.387495 
L 239.464966 17.55008 
L 239.573989 17.55008 
L 239.680704 16.293958 
L 239.789727 16.293958 
L 239.891284 15.456543 
L 239.948164 15.456543 
L 240.000307 14.619129 
L 240.167246 14.619129 
L 240.167246 14.200421 
L 240.311018 14.200421 
L 240.372765 12.944299 
L 240.478885 12.944299 
L 240.478885 12.525592 
L 241.286975 12.525592 
L 241.395998 11.688177 
L 241.460873 11.688177 
L 241.460873 11.26947 
L 241.770713 11.26947 
L 241.770713 10.850763 
L 242.432872 10.850763 
L 242.432872 10.432055 
L 242.684923 10.432055 
L 242.795726 9.175933 
L 243.726499 9.175933 
L 243.726499 8.757226 
L 244.089352 8.757226 
L 244.089352 8.338519 
L 244.255421 8.338519 
L 244.255421 7.919811 
L 245.169631 7.919811 
L 245.278654 7.082397 
L 245.549048 7.082397 
L 245.549048 6.663689 
L 246.463258 6.663689 
L 246.572281 5.826275 
L 453.192 5.826275 
L 453.192 5.826275 
" style="fill:none;stroke:#00bfbf;stroke-linecap:square;stroke-width:3;"/>
   </g>
   <g id="line2d_38">
    <path clip-path="url(#p7014bb999d)" style="fill:none;stroke:#00bfbf;stroke-linecap:square;stroke-width:3;"/>
   </g>
   <g id="line2d_39">
    <path clip-path="url(#p7014bb999d)" d="M 34.16 187.963965 
L 45.370996 187.963965 
L 45.370996 187.545258 
L 46.163159 187.545258 
L 46.163159 187.12655 
L 47.385231 187.12655 
L 47.385231 186.289136 
L 48.349461 186.289136 
L 48.349461 185.870428 
L 50.523528 185.870428 
L 50.523528 185.033014 
L 50.802742 185.033014 
L 50.802742 184.614306 
L 51.81817 184.614306 
L 51.81817 183.776892 
L 52.138543 183.776892 
L 52.138543 183.358184 
L 52.814445 183.358184 
L 52.814445 182.939477 
L 53.606608 182.939477 
L 53.606608 182.52077 
L 53.989369 182.52077 
L 54.033974 181.683355 
L 54.38991 181.683355 
L 54.38991 181.264648 
L 54.82868 181.264648 
L 54.82868 180.427233 
L 55.79291 180.427233 
L 55.79291 180.008526 
L 56.923583 180.008526 
L 56.923583 179.589818 
L 57.966977 179.589818 
L 57.966977 178.752404 
L 58.246191 178.752404 
L 58.246191 178.333696 
L 59.261619 178.333696 
L 59.261619 177.496282 
L 59.581992 177.496282 
L 59.653922 176.658867 
L 60.446085 176.658867 
L 60.446085 176.24016 
L 61.432818 176.24016 
L 61.477423 175.402745 
L 61.668157 175.402745 
L 61.668157 174.56533 
L 61.833359 174.56533 
L 61.833359 174.146623 
L 62.632387 174.146623 
L 62.632387 173.727916 
L 63.060936 173.727916 
L 63.060936 173.309208 
L 63.410876 173.309208 
L 63.410876 172.890501 
L 63.8531 172.890501 
L 63.8531 172.471794 
L 64.203039 172.471794 
L 64.203039 172.053086 
L 64.367032 172.053086 
L 64.367032 171.634379 
L 64.537085 171.634379 
L 64.537085 171.215672 
L 64.806454 171.215672 
L 64.806454 170.378257 
L 65.075172 170.378257 
L 65.085668 169.122135 
L 65.329248 169.122135 
L 65.425111 167.447306 
L 66.039402 167.447306 
L 66.101096 166.191184 
L 66.179354 166.191184 
L 66.179354 165.772476 
L 66.389341 165.772476 
L 66.421469 164.935062 
L 66.551321 164.935062 
L 66.621497 163.67894 
L 67.31802 163.67894 
L 67.413661 162.00411 
L 67.51555 162.00411 
L 67.51555 161.585403 
L 68.009962 161.585403 
L 68.110184 160.747988 
L 68.213469 160.747988 
L 68.3169 159.073159 
L 68.365656 159.073159 
L 68.365656 158.654452 
L 68.492683 158.654452 
L 68.563408 157.39833 
L 68.635733 157.39833 
L 68.672836 156.142208 
L 68.802125 156.142208 
L 68.842622 155.304793 
L 69.332256 155.304793 
L 69.332256 154.467378 
L 69.508111 154.467378 
L 69.599963 153.211256 
L 69.689617 153.211256 
L 69.689617 152.373842 
L 69.828484 152.373842 
L 69.85805 151.11772 
L 69.968832 151.11772 
L 70.024198 149.861598 
L 70.178423 149.861598 
L 70.178423 149.44289 
L 70.296486 149.44289 
L 70.322358 148.605476 
L 70.522318 148.605476 
L 70.539723 147.349354 
L 70.818938 147.349354 
L 70.818938 146.930646 
L 70.984259 146.930646 
L 70.988427 145.674524 
L 71.114521 145.674524 
L 71.206509 144.83711 
L 71.304632 144.83711 
L 71.314482 143.999695 
L 71.529782 143.999695 
L 71.529782 143.580988 
L 71.67931 143.580988 
L 71.77403 141.906158 
L 71.834365 141.906158 
L 71.834365 141.068744 
L 72.029249 141.068744 
L 72.07985 139.393914 
L 72.154738 139.393914 
L 72.154738 138.975207 
L 72.321945 138.975207 
L 72.42979 137.300378 
L 72.470553 137.300378 
L 72.536554 135.625548 
L 72.749767 135.625548 
L 72.749767 135.206841 
L 73.068672 135.206841 
L 73.162494 133.113304 
L 73.200063 133.113304 
L 73.300823 132.27589 
L 73.389045 132.27589 
L 73.441709 131.438475 
L 73.500784 131.438475 
L 73.555999 129.763646 
L 73.612993 129.763646 
L 73.612993 129.344938 
L 73.765195 129.344938 
L 73.765195 128.507524 
L 74.005564 128.507524 
L 74.085568 127.251402 
L 74.405156 127.251402 
L 74.508247 125.157865 
L 74.613524 125.157865 
L 74.613524 124.739158 
L 74.777509 124.739158 
L 74.777509 124.32045 
L 74.963463 124.32045 
L 74.963463 123.901743 
L 75.239871 123.901743 
L 75.284475 123.064328 
L 75.47489 123.064328 
L 75.47489 122.226914 
L 75.627229 122.226914 
L 75.674851 120.133377 
L 75.754105 120.133377 
L 75.754105 119.71467 
L 75.936394 119.71467 
L 75.980998 118.458548 
L 76.089672 118.458548 
L 76.089672 118.03984 
L 76.336934 118.03984 
L 76.336934 117.621133 
L 76.591458 117.621133 
L 76.682314 115.527596 
L 76.769532 115.527596 
L 76.769532 114.690182 
L 76.939778 114.690182 
L 77.028876 112.596645 
L 77.089905 112.596645 
L 77.089905 112.177938 
L 77.289866 112.177938 
L 77.289866 111.75923 
L 77.976956 111.75923 
L 77.976956 110.921816 
L 78.174085 110.921816 
L 78.174085 110.503108 
L 78.297329 110.503108 
L 78.297329 110.084401 
L 78.765525 110.084401 
L 78.870608 108.828279 
L 78.940731 108.828279 
L 79.04474 107.572157 
L 79.140692 107.572157 
L 79.185297 106.734742 
L 79.341272 106.734742 
L 79.341272 106.316035 
L 79.541232 106.316035 
L 79.562549 105.47862 
L 80.060167 105.47862 
L 80.148155 104.222498 
L 80.19276 104.222498 
L 80.19276 103.803791 
L 80.38054 103.803791 
L 80.38054 103.385084 
L 80.548696 103.385084 
L 80.548696 102.966376 
L 81.874945 102.966376 
L 81.874945 102.547669 
L 82.074906 102.547669 
L 82.074906 102.128962 
L 82.231366 102.128962 
L 82.275971 101.291547 
L 82.631907 101.291547 
L 82.631907 100.87284 
L 83.082369 100.87284 
L 83.082369 100.454132 
L 85.16558 100.454132 
L 85.16558 100.035425 
L 95.454142 100.035425 
L 95.454142 99.616718 
L 96.138281 99.616718 
L 96.138281 99.19801 
L 97.823156 99.19801 
L 97.823156 98.779303 
L 104.531709 98.779303 
L 104.531709 98.360595 
L 107.24115 98.360595 
L 107.24115 97.941888 
L 109.860758 97.941888 
L 109.860758 97.523181 
L 110.146537 97.523181 
L 110.146537 97.104473 
L 110.715011 97.104473 
L 110.715011 96.685766 
L 111.279425 96.685766 
L 111.279425 96.267059 
L 112.396301 96.267059 
L 112.396301 95.848351 
L 113.770555 95.848351 
L 113.770555 95.429644 
L 115.38872 95.429644 
L 115.38872 95.010937 
L 119.040349 95.010937 
L 119.040349 94.592229 
L 120.804771 94.592229 
L 120.804771 94.173522 
L 122.718103 94.173522 
L 122.718103 93.754815 
L 123.016918 93.754815 
L 123.016918 93.336107 
L 123.402243 93.336107 
L 123.402243 92.9174 
L 125.087118 92.9174 
L 125.087118 92.498693 
L 127.308995 92.498693 
L 127.308995 92.079985 
L 127.993135 92.079985 
L 127.993135 91.661278 
L 129.678009 91.661278 
L 129.678009 91.242571 
L 131.79567 91.242571 
L 131.79567 90.823863 
L 134.505111 90.823863 
L 134.505111 90.405156 
L 136.386562 90.405156 
L 136.386562 89.986449 
L 137.12472 89.986449 
L 137.12472 89.567741 
L 137.410498 89.567741 
L 137.410498 89.149034 
L 137.978973 89.149034 
L 137.978973 88.730327 
L 138.543387 88.730327 
L 138.543387 88.311619 
L 139.096003 88.311619 
L 139.096003 87.892912 
L 139.660263 87.892912 
L 139.660263 87.474205 
L 141.034517 87.474205 
L 141.034517 87.055497 
L 141.715612 87.055497 
L 141.715612 86.63679 
L 142.00139 86.63679 
L 142.00139 86.218083 
L 142.569865 86.218083 
L 142.652682 85.380668 
L 143.134279 85.380668 
L 143.134279 84.961961 
L 144.098876 84.961961 
L 144.098876 84.543253 
L 144.251154 84.543253 
L 144.251154 84.124546 
L 144.783016 84.124546 
L 144.783016 83.705839 
L 145.625408 83.705839 
L 145.625408 83.287131 
L 146.304311 83.287131 
L 146.304311 82.868424 
L 146.467891 82.868424 
L 146.467891 82.449717 
L 146.875189 82.449717 
L 146.875189 82.031009 
L 147.243573 82.031009 
L 147.243573 81.612302 
L 147.559329 81.612302 
L 147.559329 81.193595 
L 148.068733 81.193595 
L 148.068733 80.774887 
L 149.244203 80.774887 
L 149.244203 80.35618 
L 149.439256 80.35618 
L 149.439256 79.937473 
L 150.123396 79.937473 
L 150.123396 79.518765 
L 150.28088 79.518765 
L 150.28088 79.100058 
L 150.895203 79.100058 
L 150.895203 78.681351 
L 151.808271 78.681351 
L 151.808271 78.262643 
L 152.659625 78.262643 
L 152.659625 77.843936 
L 153.176443 77.843936 
L 153.176443 77.425229 
L 154.871771 77.425229 
L 154.871771 77.006521 
L 155.885884 77.006521 
L 155.952756 76.169107 
L 158.505493 76.169107 
L 158.516823 75.331692 
L 158.662197 75.331692 
L 158.662197 74.912985 
L 158.791271 74.912985 
L 158.791271 74.494277 
L 159.359746 74.494277 
L 159.359746 74.07557 
L 159.92416 74.07557 
L 159.92416 73.656863 
L 161.041036 73.656863 
L 161.041036 73.238155 
L 161.226264 73.238155 
L 161.281806 72.400741 
L 161.463665 72.400741 
L 161.567584 71.563326 
L 162.136059 71.563326 
L 162.147804 70.725911 
L 162.41529 70.725911 
L 162.41529 70.307204 
L 162.700473 70.307204 
L 162.700473 69.888497 
L 163.817348 69.888497 
L 163.845873 68.632375 
L 164.033455 68.632375 
L 164.131652 67.79496 
L 164.700126 67.79496 
L 164.700126 67.376253 
L 165.191602 67.376253 
L 165.26454 66.538838 
L 166.381416 66.538838 
L 166.381416 66.120131 
L 166.809767 66.120131 
L 166.809767 65.701423 
L 167.685084 65.701423 
L 167.75567 64.864009 
L 169.373835 64.864009 
L 169.449506 64.026594 
L 170.461396 64.026594 
L 170.541231 63.189179 
L 171.661653 63.189179 
L 171.661653 62.770472 
L 172.225819 62.770472 
L 172.225819 62.351765 
L 173.025464 62.351765 
L 173.025464 61.933057 
L 173.250672 61.933057 
L 173.250672 61.51435 
L 174.437965 61.51435 
L 174.437965 61.095643 
L 174.789886 61.095643 
L 174.789886 60.676935 
L 175.870281 60.676935 
L 175.873222 59.839521 
L 176.15606 59.839521 
L 176.15606 59.420813 
L 176.724534 59.420813 
L 176.724534 59.002106 
L 177.002033 59.002106 
L 177.002033 58.583399 
L 177.288948 58.583399 
L 177.288948 58.164691 
L 178.405824 58.164691 
L 178.405824 57.745984 
L 178.66964 57.745984 
L 178.691794 56.908569 
L 178.7892 56.908569 
L 178.7892 56.489862 
L 178.988064 56.489862 
L 178.988064 56.071155 
L 179.621088 56.071155 
L 179.621088 55.652447 
L 179.780078 55.652447 
L 179.780078 55.23374 
L 179.94879 55.23374 
L 179.966229 54.396325 
L 180.166505 54.396325 
L 180.166505 53.977618 
L 180.405302 53.977618 
L 180.405302 53.558911 
L 180.798823 53.558911 
L 180.798823 53.140203 
L 181.398243 53.140203 
L 181.398243 52.721496 
L 181.89122 52.721496 
L 181.89122 52.302789 
L 182.783845 52.302789 
L 182.783845 51.884081 
L 185.027484 51.884081 
L 185.049872 51.046667 
L 186.594245 51.046667 
L 186.594245 50.627959 
L 186.814294 50.627959 
L 186.814294 50.209252 
L 189.026441 50.209252 
L 189.026441 49.790545 
L 197.646828 49.790545 
L 197.646828 49.371837 
L 200.443246 49.371837 
L 200.465401 48.534423 
L 200.562806 48.534423 
L 200.562806 48.115715 
L 200.76167 48.115715 
L 200.822608 47.278301 
L 201.394694 47.278301 
L 201.394694 46.859593 
L 201.722396 46.859593 
L 201.739835 46.022179 
L 201.940111 46.022179 
L 201.940111 45.603471 
L 202.178908 45.603471 
L 202.178908 45.184764 
L 202.572429 45.184764 
L 202.572429 44.766057 
L 203.619026 44.766057 
L 203.728825 43.091227 
L 203.738586 43.091227 
L 203.738586 42.67252 
L 203.93745 42.67252 
L 203.93745 42.253813 
L 204.557451 42.253813 
L 204.570474 41.416398 
L 204.898176 41.416398 
L 204.928664 40.160276 
L 205.115891 40.160276 
L 205.115891 39.741569 
L 205.354688 39.741569 
L 205.354688 39.322861 
L 205.748209 39.322861 
L 205.748209 38.904154 
L 206.43305 38.904154 
L 206.525243 38.066739 
L 206.547397 38.066739 
L 206.644802 37.229325 
L 206.80109 37.229325 
L 206.843667 35.973203 
L 207.051581 35.973203 
L 207.051581 35.554495 
L 207.47669 35.554495 
L 207.47669 35.135788 
L 207.725082 35.135788 
L 207.821832 33.042251 
L 207.844641 33.042251 
L 207.844641 32.623544 
L 208.022108 32.623544 
L 208.043506 31.786129 
L 208.260904 31.786129 
L 208.367851 30.948715 
L 208.654426 30.948715 
L 208.676529 30.1113 
L 208.998906 30.1113 
L 209.021671 28.855178 
L 209.221947 28.855178 
L 209.251622 27.599056 
L 209.349027 27.599056 
L 209.349027 27.180349 
L 209.460743 27.180349 
L 209.547892 26.342934 
L 209.746823 26.342934 
L 209.854265 25.086812 
L 209.870153 25.086812 
L 209.97687 23.83069 
L 210.166423 23.83069 
L 210.180915 22.993275 
L 210.508618 22.993275 
L 210.526057 22.155861 
L 210.639448 22.155861 
L 210.726333 21.318446 
L 210.799446 21.318446 
L 210.799446 20.899739 
L 210.946662 20.899739 
L 210.965129 20.062324 
L 211.127148 20.062324 
L 211.144588 19.224909 
L 211.344864 19.224909 
L 211.358651 18.387495 
L 211.543631 18.387495 
L 211.58366 17.55008 
L 211.795324 17.55008 
L 211.839287 16.293958 
L 211.914883 16.293958 
L 211.977182 15.456543 
L 212.113747 15.456543 
L 212.113747 15.037836 
L 212.451048 15.037836 
L 212.451048 14.619129 
L 212.746771 14.619129 
L 212.746771 14.200421 
L 212.883087 14.200421 
L 212.883087 13.781714 
L 213.069579 13.781714 
L 213.091913 12.525592 
L 213.292189 12.525592 
L 213.343673 11.688177 
L 213.530985 11.688177 
L 213.530985 11.26947 
L 213.924506 11.26947 
L 213.962204 10.432055 
L 214.082925 10.432055 
L 214.082925 10.013348 
L 214.449848 10.013348 
L 214.449848 9.594641 
L 215.016904 9.594641 
L 215.016904 9.175933 
L 215.587312 9.175933 
L 215.649686 8.338519 
L 215.909529 8.338519 
L 215.909529 7.919811 
L 216.205842 7.919811 
L 216.205842 7.501104 
L 217.154072 7.501104 
L 217.154072 7.082397 
L 217.772603 7.082397 
L 217.772603 6.663689 
L 218.153167 6.663689 
L 218.153167 6.244982 
L 219.719928 6.244982 
L 219.719928 5.826275 
L 453.192 5.826275 
L 453.192 5.826275 
" style="fill:none;stroke:#bf00bf;stroke-linecap:square;stroke-width:3;"/>
   </g>
   <g id="line2d_40">
    <path clip-path="url(#p7014bb999d)" style="fill:none;stroke:#bf00bf;stroke-linecap:square;stroke-width:3;"/>
   </g>
   <g id="line2d_41">
    <path clip-path="url(#p7014bb999d)" d="M 34.16 187.963965 
L 50.818889 187.963965 
L 50.818889 187.545258 
L 51.232131 187.545258 
L 51.232131 187.12655 
L 51.760287 187.12655 
L 51.809767 186.289136 
L 51.906372 186.289136 
L 51.906372 185.870428 
L 52.22301 185.870428 
L 52.22301 185.451721 
L 52.632776 185.451721 
L 52.632776 185.033014 
L 52.751165 185.033014 
L 52.751165 184.614306 
L 52.89725 184.614306 
L 52.89725 184.195599 
L 53.623654 184.195599 
L 53.623654 183.776892 
L 53.816211 183.776892 
L 53.816211 183.358184 
L 54.179382 183.358184 
L 54.229453 182.52077 
L 54.405956 182.52077 
L 54.405956 182.102062 
L 54.757608 182.102062 
L 54.757608 181.683355 
L 54.886346 181.683355 
L 54.903694 180.84594 
L 55.170261 180.84594 
L 55.170261 180.427233 
L 55.299588 180.427233 
L 55.396835 179.589818 
L 55.630097 179.589818 
L 55.66847 178.752404 
L 55.827743 178.752404 
L 55.827743 178.333696 
L 55.973829 178.333696 
L 55.973829 177.914989 
L 56.636666 177.914989 
L 56.700232 176.658867 
L 57.075349 176.658867 
L 57.176704 174.56533 
L 57.348294 174.56533 
L 57.403278 173.727916 
L 57.509457 173.727916 
L 57.509457 173.309208 
L 57.627544 173.309208 
L 57.627544 172.890501 
L 58.037612 172.890501 
L 58.066227 171.215672 
L 58.183698 171.215672 
L 58.246839 170.378257 
L 58.339173 170.378257 
L 58.339173 169.95955 
L 58.473413 169.95955 
L 58.473413 169.540842 
L 58.665791 169.540842 
L 58.665791 169.122135 
L 58.837215 169.122135 
L 58.931422 167.028598 
L 59.250458 167.028598 
L 59.344664 166.191184 
L 59.633987 166.191184 
L 59.735926 165.353769 
L 59.778613 165.353769 
L 59.872819 163.67894 
L 59.903929 163.67894 
L 59.924698 162.841525 
L 60.018905 162.841525 
L 60.07267 161.166696 
L 60.269832 161.166696 
L 60.345616 160.329281 
L 60.456708 160.329281 
L 60.456708 159.910574 
L 60.651102 159.910574 
L 60.745308 158.235744 
L 60.797987 158.235744 
L 60.797987 157.817037 
L 60.944073 157.817037 
L 60.944073 157.39833 
L 61.142806 157.39833 
L 61.142806 156.142208 
L 61.415751 156.142208 
L 61.415751 155.7235 
L 61.670476 155.7235 
L 61.670476 155.304793 
L 61.856928 155.304793 
L 61.945796 154.048671 
L 62.197709 154.048671 
L 62.291915 153.211256 
L 62.424283 153.211256 
L 62.518489 152.373842 
L 62.740872 152.373842 
L 62.740872 151.955134 
L 62.913992 151.955134 
L 62.993066 150.280305 
L 63.154114 150.280305 
L 63.217083 149.44289 
L 63.352675 149.44289 
L 63.443657 147.349354 
L 63.62562 147.349354 
L 63.708982 145.674524 
L 63.781002 145.674524 
L 63.828355 144.83711 
L 63.934463 144.83711 
L 63.934463 144.418402 
L 64.080549 144.418402 
L 64.122225 143.16228 
L 64.199049 143.16228 
L 64.199049 142.743573 
L 64.529894 142.743573 
L 64.612291 141.487451 
L 64.65038 141.487451 
L 64.749198 139.812622 
L 64.796466 139.812622 
L 64.806952 138.975207 
L 65.058049 138.975207 
L 65.140446 136.462963 
L 65.187882 136.462963 
L 65.286532 133.950719 
L 65.366621 133.950719 
L 65.460827 133.113304 
L 65.522869 133.113304 
L 65.522869 132.694597 
L 65.674366 132.694597 
L 65.674366 132.27589 
L 65.930538 132.27589 
L 66.012936 131.438475 
L 66.101366 131.438475 
L 66.113049 129.763646 
L 66.32794 129.763646 
L 66.385995 128.507524 
L 66.580133 128.507524 
L 66.580133 128.088816 
L 66.877933 128.088816 
L 66.972139 126.832694 
L 67.025584 126.832694 
L 67.084609 125.576572 
L 67.29605 125.576572 
L 67.29605 125.157865 
L 67.477145 125.157865 
L 67.559542 123.901743 
L 67.590453 123.901743 
L 67.590453 123.483036 
L 67.703719 123.483036 
L 67.786116 122.645621 
L 67.842647 122.645621 
L 67.950751 121.389499 
L 68.026006 121.389499 
L 68.026006 120.970792 
L 68.172092 120.970792 
L 68.172092 120.552084 
L 68.558563 120.552084 
L 68.558649 119.71467 
L 68.810842 119.71467 
L 68.898495 118.877255 
L 68.966232 118.877255 
L 69.04863 116.783718 
L 69.249526 116.783718 
L 69.270277 115.108889 
L 69.522471 115.108889 
L 69.526759 114.271474 
L 69.934428 114.271474 
L 70.016825 112.177938 
L 70.238388 112.177938 
L 70.238388 111.75923 
L 70.373111 111.75923 
L 70.455509 108.828279 
L 70.646057 108.828279 
L 70.728454 107.572157 
L 70.78159 107.572157 
L 70.835034 106.734742 
L 71.033783 106.734742 
L 71.087228 105.897328 
L 71.7497 105.897328 
L 71.803144 105.059913 
L 71.93419 105.059913 
L 71.93419 104.641206 
L 72.157369 104.641206 
L 72.239766 103.385084 
L 72.293211 103.385084 
L 72.293211 102.966376 
L 72.902385 102.966376 
L 72.902385 102.547669 
L 73.341069 102.547669 
L 73.341069 101.291547 
L 73.614014 101.291547 
L 73.614014 100.87284 
L 75.125326 100.87284 
L 75.178771 100.035425 
L 95.454142 100.035425 
L 95.454142 99.616718 
L 96.138281 99.616718 
L 96.138281 99.19801 
L 97.823156 99.19801 
L 97.823156 98.779303 
L 104.531709 98.779303 
L 104.531709 98.360595 
L 107.24115 98.360595 
L 107.24115 97.941888 
L 109.860758 97.941888 
L 109.860758 97.523181 
L 110.146537 97.523181 
L 110.146537 97.104473 
L 110.715011 97.104473 
L 110.715011 96.685766 
L 111.279425 96.685766 
L 111.279425 96.267059 
L 112.396301 96.267059 
L 112.396301 95.848351 
L 113.770555 95.848351 
L 113.770555 95.429644 
L 115.38872 95.429644 
L 115.38872 95.010937 
L 119.040349 95.010937 
L 119.040349 94.592229 
L 120.804771 94.592229 
L 120.804771 94.173522 
L 122.718103 94.173522 
L 122.718103 93.754815 
L 123.016918 93.754815 
L 123.016918 93.336107 
L 123.402243 93.336107 
L 123.402243 92.9174 
L 125.087118 92.9174 
L 125.087118 92.498693 
L 127.308995 92.498693 
L 127.308995 92.079985 
L 127.993135 92.079985 
L 127.993135 91.661278 
L 129.678009 91.661278 
L 129.678009 91.242571 
L 131.79567 91.242571 
L 131.79567 90.823863 
L 134.505111 90.823863 
L 134.505111 90.405156 
L 136.386562 90.405156 
L 136.386562 89.986449 
L 137.12472 89.986449 
L 137.12472 89.567741 
L 137.410498 89.567741 
L 137.410498 89.149034 
L 137.978973 89.149034 
L 137.978973 88.730327 
L 138.543387 88.730327 
L 138.543387 88.311619 
L 139.096003 88.311619 
L 139.096003 87.892912 
L 139.660263 87.892912 
L 139.660263 87.474205 
L 141.034517 87.474205 
L 141.034517 87.055497 
L 141.715612 87.055497 
L 141.715612 86.63679 
L 142.00139 86.63679 
L 142.00139 86.218083 
L 142.569865 86.218083 
L 142.652682 85.380668 
L 143.134279 85.380668 
L 143.134279 84.961961 
L 144.098876 84.961961 
L 144.098876 84.543253 
L 144.251154 84.543253 
L 144.251154 84.124546 
L 144.783016 84.124546 
L 144.783016 83.705839 
L 145.625408 83.705839 
L 145.625408 83.287131 
L 146.304311 83.287131 
L 146.304311 82.868424 
L 146.467891 82.868424 
L 146.467891 82.449717 
L 146.875189 82.449717 
L 146.875189 82.031009 
L 147.243573 82.031009 
L 147.243573 81.612302 
L 147.559329 81.612302 
L 147.559329 81.193595 
L 148.068733 81.193595 
L 148.068733 80.774887 
L 149.244203 80.774887 
L 149.244203 80.35618 
L 149.439256 80.35618 
L 149.439256 79.937473 
L 150.123396 79.937473 
L 150.123396 79.518765 
L 150.28088 79.518765 
L 150.28088 79.100058 
L 150.895203 79.100058 
L 150.895203 78.681351 
L 151.808271 78.681351 
L 151.808271 78.262643 
L 152.659625 78.262643 
L 152.659625 77.843936 
L 153.176443 77.843936 
L 153.176443 77.425229 
L 154.871771 77.425229 
L 154.871771 77.006521 
L 155.885884 77.006521 
L 155.952756 76.169107 
L 158.505493 76.169107 
L 158.516823 75.331692 
L 158.662197 75.331692 
L 158.662197 74.912985 
L 158.791271 74.912985 
L 158.791271 74.494277 
L 159.0505 74.494277 
L 159.0505 74.07557 
L 159.359746 74.07557 
L 159.359746 73.656863 
L 159.92416 73.656863 
L 159.92416 73.238155 
L 161.041036 73.238155 
L 161.041036 72.819448 
L 161.226264 72.819448 
L 161.281806 71.982033 
L 161.393346 71.982033 
L 161.463665 71.144619 
L 161.551815 71.144619 
L 161.567584 70.307204 
L 161.838752 70.307204 
L 161.838752 69.888497 
L 162.004616 69.888497 
L 162.004616 69.469789 
L 162.136059 69.469789 
L 162.147804 68.632375 
L 162.41529 68.632375 
L 162.475427 67.79496 
L 162.700473 67.79496 
L 162.763138 66.957545 
L 162.996645 66.957545 
L 163.017096 66.120131 
L 163.575382 66.120131 
L 163.575382 65.701423 
L 163.817348 65.701423 
L 163.887441 64.026594 
L 164.033455 64.026594 
L 164.131652 63.189179 
L 164.700126 63.189179 
L 164.700126 62.770472 
L 164.87623 62.770472 
L 164.87623 62.351765 
L 165.191602 62.351765 
L 165.26454 61.51435 
L 165.655283 61.51435 
L 165.655283 61.095643 
L 166.381416 61.095643 
L 166.381416 60.676935 
L 166.809767 60.676935 
L 166.809767 60.258228 
L 167.380567 60.258228 
L 167.380567 59.839521 
L 167.685084 59.839521 
L 167.75567 59.002106 
L 169.053832 59.002106 
L 169.053832 58.583399 
L 169.373835 58.583399 
L 169.449506 57.745984 
L 170.461396 57.745984 
L 170.541231 56.908569 
L 171.661653 56.908569 
L 171.661653 56.489862 
L 172.225819 56.489862 
L 172.225819 56.071155 
L 173.025464 56.071155 
L 173.025464 55.652447 
L 173.250672 55.652447 
L 173.250672 55.23374 
L 174.437965 55.23374 
L 174.437965 54.815033 
L 174.789886 54.815033 
L 174.789886 54.396325 
L 175.697992 54.396325 
L 175.697992 53.977618 
L 175.870281 53.977618 
L 175.870281 53.558911 
L 176.148589 53.558911 
L 176.15606 52.721496 
L 176.724534 52.721496 
L 176.724534 52.302789 
L 177.002033 52.302789 
L 177.002033 51.884081 
L 177.288948 51.884081 
L 177.288948 51.465374 
L 178.040839 51.465374 
L 178.040839 51.046667 
L 178.199308 51.046667 
L 178.199308 50.627959 
L 178.405824 50.627959 
L 178.491436 48.95313 
L 178.649905 48.95313 
L 178.652108 48.115715 
L 178.936841 48.115715 
L 178.936841 47.697008 
L 179.102706 47.697008 
L 179.12292 46.859593 
L 179.41063 46.859593 
L 179.41063 46.440886 
L 179.573517 46.440886 
L 179.678527 44.766057 
L 179.780078 44.766057 
L 179.861228 43.928642 
L 180.094735 43.928642 
L 180.115185 43.091227 
L 180.222875 43.091227 
L 180.222875 42.67252 
L 180.534933 42.67252 
L 180.534933 42.253813 
L 180.673472 42.253813 
L 180.763078 41.416398 
L 180.921547 41.416398 
L 180.985531 40.578983 
L 181.200596 40.578983 
L 181.208483 39.741569 
L 181.374347 39.741569 
L 181.398243 38.904154 
L 181.523722 38.904154 
L 181.523722 38.485447 
L 181.845159 38.485447 
L 181.845159 38.066739 
L 181.974319 38.066739 
L 182.021374 37.229325 
L 182.13287 37.229325 
L 182.179843 36.39191 
L 182.302775 36.39191 
L 182.386827 35.135788 
L 182.46678 35.135788 
L 182.46678 34.717081 
L 182.632644 34.717081 
L 182.632644 34.298373 
L 182.753373 34.298373 
L 182.753373 33.879666 
L 182.945114 33.879666 
L 182.945114 33.460959 
L 183.103455 33.460959 
L 183.103455 33.042251 
L 183.257173 33.042251 
L 183.257173 32.623544 
L 183.391166 32.623544 
L 183.391166 32.204837 
L 183.543442 32.204837 
L 183.652702 30.530007 
L 183.701911 30.530007 
L 183.701911 30.1113 
L 183.988848 30.1113 
L 184.02806 29.273885 
L 184.154712 29.273885 
L 184.245961 28.017763 
L 184.478657 28.017763 
L 184.515469 27.180349 
L 184.625523 27.180349 
L 184.625523 26.761641 
L 184.913234 26.761641 
L 184.913234 26.342934 
L 185.025014 26.342934 
L 185.049872 25.505519 
L 185.146742 25.505519 
L 185.167192 24.668105 
L 185.504257 24.668105 
L 185.504257 24.249397 
L 185.701324 24.249397 
L 185.773122 22.993275 
L 185.995548 22.993275 
L 186.037537 22.155861 
L 186.151921 22.155861 
L 186.154017 21.318446 
L 186.283311 21.318446 
L 186.283311 20.899739 
L 186.440954 20.899739 
L 186.440954 20.481031 
L 186.606818 20.481031 
L 186.606818 20.062324 
L 186.750299 20.062324 
L 186.814294 19.224909 
L 187.026326 19.224909 
L 187.077629 18.387495 
L 187.36534 18.387495 
L 187.36534 17.968787 
L 187.598848 17.968787 
L 187.619298 17.131373 
L 187.805379 17.131373 
L 187.805379 16.712665 
L 188.008595 16.712665 
L 188.115969 15.875251 
L 188.177585 15.875251 
L 188.274438 15.037836 
L 188.423563 15.037836 
L 188.489643 14.200421 
L 188.561374 14.200421 
L 188.561374 13.781714 
L 188.727239 13.781714 
L 188.727239 13.363007 
L 189.026441 13.363007 
L 189.026441 12.944299 
L 189.19805 12.944299 
L 189.19805 12.525592 
L 189.478432 12.525592 
L 189.530663 11.26947 
L 189.681859 11.26947 
L 189.739718 10.013348 
L 190.257485 10.013348 
L 190.298005 9.175933 
L 190.610064 9.175933 
L 190.610064 8.757226 
L 191.203928 8.757226 
L 191.203928 8.338519 
L 191.598852 8.338519 
L 191.598852 7.919811 
L 191.982769 7.919811 
L 191.982769 7.501104 
L 192.377906 7.501104 
L 192.377906 7.082397 
L 193.656034 7.082397 
L 193.656034 6.663689 
L 194.10319 6.663689 
L 194.10319 6.244982 
L 195.776454 6.244982 
L 195.776454 5.826275 
L 453.192 5.826275 
L 453.192 5.826275 
" style="fill:none;stroke:#ff0000;stroke-linecap:square;stroke-width:3;"/>
   </g>
   <g id="line2d_42">
    <path clip-path="url(#p7014bb999d)" style="fill:none;stroke:#ff0000;stroke-linecap:square;stroke-width:3;"/>
   </g>
   <g id="line2d_43">
    <path clip-path="url(#p7014bb999d)" d="M 243.676 291.28 
L 243.676 3 
" style="fill:none;stroke:#000000;stroke-linecap:square;stroke-width:1.5;"/>
   </g>
   <g id="line2d_44">
    <path clip-path="url(#p7014bb999d)" d="M 34.16 147.14 
L 453.192 147.14 
" style="fill:none;stroke:#000000;stroke-dasharray:2,3.3;stroke-dashoffset:0;stroke-width:2;"/>
   </g>
   <g id="patch_3">
    <path d="M 34.16 291.28 
L 34.16 3 
" style="fill:none;stroke:#000000;stroke-linecap:square;stroke-linejoin:miter;stroke-width:0.8;"/>
   </g>
   <g id="patch_4">
    <path d="M 453.192 291.28 
L 453.192 3 
" style="fill:none;stroke:#000000;stroke-linecap:square;stroke-linejoin:miter;stroke-width:0.8;"/>
   </g>
   <g id="patch_5">
    <path d="M 34.16 291.28 
L 453.192 291.28 
" style="fill:none;stroke:#000000;stroke-linecap:square;stroke-linejoin:miter;stroke-width:0.8;"/>
   </g>
   <g id="patch_6">
    <path d="M 34.16 3 
L 453.192 3 
" style="fill:none;stroke:#000000;stroke-linecap:square;stroke-linejoin:miter;stroke-width:0.8;"/>
   </g>
   <g id="text_6">
    <!-- f1-f5,20-D -->
    <g transform="translate(343.64261 285.5144)scale(0.2 -0.2)">
     <defs>
      <path d="M 10.796875 72.90625 
L 49.515625 72.90625 
L 49.515625 64.59375 
L 19.828125 64.59375 
L 19.828125 46.734375 
Q 21.96875 47.46875 24.109375 47.828125 
Q 26.265625 48.1875 28.421875 48.1875 
Q 40.625 48.1875 47.75 41.5 
Q 54.890625 34.8125 54.890625 23.390625 
Q 54.890625 11.625 47.5625 5.09375 
Q 40.234375 -1.421875 26.90625 -1.421875 
Q 22.3125 -1.421875 17.546875 -0.640625 
Q 12.796875 0.140625 7.71875 1.703125 
L 7.71875 11.625 
Q 12.109375 9.234375 16.796875 8.0625 
Q 21.484375 6.890625 26.703125 6.890625 
Q 35.15625 6.890625 40.078125 11.328125 
Q 45.015625 15.765625 45.015625 23.390625 
Q 45.015625 31 40.078125 35.4375 
Q 35.15625 39.890625 26.703125 39.890625 
Q 22.75 39.890625 18.8125 39.015625 
Q 14.890625 38.140625 10.796875 36.28125 
z
" id="DejaVuSans-53"/>
      <path d="M 11.71875 12.40625 
L 22.015625 12.40625 
L 22.015625 4 
L 14.015625 -11.625 
L 7.71875 -11.625 
L 11.71875 4 
z
" id="DejaVuSans-44"/>
      <path d="M 19.1875 8.296875 
L 53.609375 8.296875 
L 53.609375 0 
L 7.328125 0 
L 7.328125 8.296875 
Q 12.9375 14.109375 22.625 23.890625 
Q 32.328125 33.6875 34.8125 36.53125 
Q 39.546875 41.84375 41.421875 45.53125 
Q 43.3125 49.21875 43.3125 52.78125 
Q 43.3125 58.59375 39.234375 62.25 
Q 35.15625 65.921875 28.609375 65.921875 
Q 23.96875 65.921875 18.8125 64.3125 
Q 13.671875 62.703125 7.8125 59.421875 
L 7.8125 69.390625 
Q 13.765625 71.78125 18.9375 73 
Q 24.125 74.21875 28.421875 74.21875 
Q 39.75 74.21875 46.484375 68.546875 
Q 53.21875 62.890625 53.21875 53.421875 
Q 53.21875 48.921875 51.53125 44.890625 
Q 49.859375 40.875 45.40625 35.40625 
Q 44.1875 33.984375 37.640625 27.21875 
Q 31.109375 20.453125 19.1875 8.296875 
z
" id="DejaVuSans-50"/>
      <path d="M 19.671875 64.796875 
L 19.671875 8.109375 
L 31.59375 8.109375 
Q 46.6875 8.109375 53.6875 14.9375 
Q 60.6875 21.78125 60.6875 36.53125 
Q 60.6875 51.171875 53.6875 57.984375 
Q 46.6875 64.796875 31.59375 64.796875 
z
M 9.8125 72.90625 
L 30.078125 72.90625 
Q 51.265625 72.90625 61.171875 64.09375 
Q 71.09375 55.28125 71.09375 36.53125 
Q 71.09375 17.671875 61.125 8.828125 
Q 51.171875 0 30.078125 0 
L 9.8125 0 
z
" id="DejaVuSans-68"/>
     </defs>
     <use xlink:href="#DejaVuSans-102"/>
     <use x="35.205078" xlink:href="#DejaVuSans-49"/>
     <use x="98.828125" xlink:href="#DejaVuSans-45"/>
     <use x="134.912109" xlink:href="#DejaVuSans-102"/>
     <use x="170.117188" xlink:href="#DejaVuSans-53"/>
     <use x="233.740234" xlink:href="#DejaVuSans-44"/>
     <use x="265.527344" xlink:href="#DejaVuSans-50"/>
     <use x="329.150391" xlink:href="#DejaVuSans-48"/>
     <use x="392.773438" xlink:href="#DejaVuSans-45"/>
     <use x="428.857422" xlink:href="#DejaVuSans-68"/>
    </g>
   </g>
   <g id="text_7">
    <!-- v2.4 -->
    <g style="fill:#808080;" transform="translate(232.765062 286.317512)scale(0.1 -0.1)">
     <defs>
      <path d="M 10.6875 12.40625 
L 21 12.40625 
L 21 0 
L 10.6875 0 
z
" id="DejaVuSans-46"/>
      <path d="M 37.796875 64.3125 
L 12.890625 25.390625 
L 37.796875 25.390625 
z
M 35.203125 72.90625 
L 47.609375 72.90625 
L 47.609375 25.390625 
L 58.015625 25.390625 
L 58.015625 17.1875 
L 47.609375 17.1875 
L 47.609375 0 
L 37.796875 0 
L 37.796875 17.1875 
L 4.890625 17.1875 
L 4.890625 26.703125 
z
" id="DejaVuSans-52"/>
     </defs>
     <use xlink:href="#DejaVuSans-118"/>
     <use x="59.179688" xlink:href="#DejaVuSans-50"/>
     <use x="122.802734" xlink:href="#DejaVuSans-46"/>
     <use x="154.589844" xlink:href="#DejaVuSans-52"/>
    </g>
   </g>
   <g id="legend_1">
    <g id="patch_7">
     <path d="M 309.970125 136.425 
L 439.192 136.425 
Q 443.192 136.425 443.192 132.425 
L 443.192 17 
Q 443.192 13 439.192 13 
L 309.970125 13 
Q 305.970125 13 305.970125 17 
L 305.970125 132.425 
Q 305.970125 136.425 309.970125 136.425 
z
" style="fill:#ffffff;opacity:0.2;stroke:#cccccc;stroke-linejoin:miter;"/>
    </g>
    <g id="line2d_45">
     <path d="M 313.970125 29.196875 
L 353.970125 29.196875 
" style="fill:none;stroke:#000000;stroke-linecap:square;stroke-width:3;"/>
    </g>
    <g id="line2d_46"/>
    <g id="text_8">
     <!-- 1: 3/4 -->
     <g transform="translate(369.970125 36.196875)scale(0.2 -0.2)">
      <defs>
       <path d="M 11.71875 12.40625 
L 22.015625 12.40625 
L 22.015625 0 
L 11.71875 0 
z
M 11.71875 51.703125 
L 22.015625 51.703125 
L 22.015625 39.3125 
L 11.71875 39.3125 
z
" id="DejaVuSans-58"/>
       <path d="M 40.578125 39.3125 
Q 47.65625 37.796875 51.625 33 
Q 55.609375 28.21875 55.609375 21.1875 
Q 55.609375 10.40625 48.1875 4.484375 
Q 40.765625 -1.421875 27.09375 -1.421875 
Q 22.515625 -1.421875 17.65625 -0.515625 
Q 12.796875 0.390625 7.625 2.203125 
L 7.625 11.71875 
Q 11.71875 9.328125 16.59375 8.109375 
Q 21.484375 6.890625 26.8125 6.890625 
Q 36.078125 6.890625 40.9375 10.546875 
Q 45.796875 14.203125 45.796875 21.1875 
Q 45.796875 27.640625 41.28125 31.265625 
Q 36.765625 34.90625 28.71875 34.90625 
L 20.21875 34.90625 
L 20.21875 43.015625 
L 29.109375 43.015625 
Q 36.375 43.015625 40.234375 45.921875 
Q 44.09375 48.828125 44.09375 54.296875 
Q 44.09375 59.90625 40.109375 62.90625 
Q 36.140625 65.921875 28.71875 65.921875 
Q 24.65625 65.921875 20.015625 65.03125 
Q 15.375 64.15625 9.8125 62.3125 
L 9.8125 71.09375 
Q 15.4375 72.65625 20.34375 73.4375 
Q 25.25 74.21875 29.59375 74.21875 
Q 40.828125 74.21875 47.359375 69.109375 
Q 53.90625 64.015625 53.90625 55.328125 
Q 53.90625 49.265625 50.4375 45.09375 
Q 46.96875 40.921875 40.578125 39.3125 
z
" id="DejaVuSans-51"/>
       <path d="M 25.390625 72.90625 
L 33.6875 72.90625 
L 8.296875 -9.28125 
L 0 -9.28125 
z
" id="DejaVuSans-47"/>
      </defs>
      <use xlink:href="#DejaVuSans-49"/>
      <use x="63.623047" xlink:href="#DejaVuSans-58"/>
      <use x="97.314453" xlink:href="#DejaVuSans-32"/>
      <use x="129.101562" xlink:href="#DejaVuSans-51"/>
      <use x="192.724609" xlink:href="#DejaVuSans-47"/>
      <use x="226.416016" xlink:href="#DejaVuSans-52"/>
     </g>
    </g>
    <g id="line2d_47">
     <path d="M 313.970125 58.553125 
L 353.970125 58.553125 
" style="fill:none;stroke:#00bfbf;stroke-linecap:square;stroke-width:3;"/>
    </g>
    <g id="line2d_48"/>
    <g id="text_9">
     <!-- -1: 3/3 -->
     <g transform="translate(369.970125 65.553125)scale(0.2 -0.2)">
      <use xlink:href="#DejaVuSans-45"/>
      <use x="36.083984" xlink:href="#DejaVuSans-49"/>
      <use x="99.707031" xlink:href="#DejaVuSans-58"/>
      <use x="133.398438" xlink:href="#DejaVuSans-32"/>
      <use x="165.185547" xlink:href="#DejaVuSans-51"/>
      <use x="228.808594" xlink:href="#DejaVuSans-47"/>
      <use x="262.5" xlink:href="#DejaVuSans-51"/>
     </g>
    </g>
    <g id="line2d_49">
     <path d="M 313.970125 87.909375 
L 353.970125 87.909375 
" style="fill:none;stroke:#bf00bf;stroke-linecap:square;stroke-width:3;"/>
    </g>
    <g id="line2d_50"/>
    <g id="text_10">
     <!-- -4: 3/3 -->
     <g transform="translate(369.970125 94.909375)scale(0.2 -0.2)">
      <use xlink:href="#DejaVuSans-45"/>
      <use x="36.083984" xlink:href="#DejaVuSans-52"/>
      <use x="99.707031" xlink:href="#DejaVuSans-58"/>
      <use x="133.398438" xlink:href="#DejaVuSans-32"/>
      <use x="165.185547" xlink:href="#DejaVuSans-51"/>
      <use x="228.808594" xlink:href="#DejaVuSans-47"/>
      <use x="262.5" xlink:href="#DejaVuSans-51"/>
     </g>
    </g>
    <g id="line2d_51">
     <path d="M 313.970125 117.265625 
L 353.970125 117.265625 
" style="fill:none;stroke:#ff0000;stroke-linecap:square;stroke-width:3;"/>
    </g>
    <g id="line2d_52"/>
    <g id="text_11">
     <!-- -8: 3/3 -->
     <g transform="translate(369.970125 124.265625)scale(0.2 -0.2)">
      <defs>
       <path d="M 31.78125 34.625 
Q 24.75 34.625 20.71875 30.859375 
Q 16.703125 27.09375 16.703125 20.515625 
Q 16.703125 13.921875 20.71875 10.15625 
Q 24.75 6.390625 31.78125 6.390625 
Q 38.8125 6.390625 42.859375 10.171875 
Q 46.921875 13.96875 46.921875 20.515625 
Q 46.921875 27.09375 42.890625 30.859375 
Q 38.875 34.625 31.78125 34.625 
z
M 21.921875 38.8125 
Q 15.578125 40.375 12.03125 44.71875 
Q 8.5 49.078125 8.5 55.328125 
Q 8.5 64.0625 14.71875 69.140625 
Q 20.953125 74.21875 31.78125 74.21875 
Q 42.671875 74.21875 48.875 69.140625 
Q 55.078125 64.0625 55.078125 55.328125 
Q 55.078125 49.078125 51.53125 44.71875 
Q 48 40.375 41.703125 38.8125 
Q 48.828125 37.15625 52.796875 32.3125 
Q 56.78125 27.484375 56.78125 20.515625 
Q 56.78125 9.90625 50.3125 4.234375 
Q 43.84375 -1.421875 31.78125 -1.421875 
Q 19.734375 -1.421875 13.25 4.234375 
Q 6.78125 9.90625 6.78125 20.515625 
Q 6.78125 27.484375 10.78125 32.3125 
Q 14.796875 37.15625 21.921875 38.8125 
z
M 18.3125 54.390625 
Q 18.3125 48.734375 21.84375 45.5625 
Q 25.390625 42.390625 31.78125 42.390625 
Q 38.140625 42.390625 41.71875 45.5625 
Q 45.3125 48.734375 45.3125 54.390625 
Q 45.3125 60.0625 41.71875 63.234375 
Q 38.140625 66.40625 31.78125 66.40625 
Q 25.390625 66.40625 21.84375 63.234375 
Q 18.3125 60.0625 18.3125 54.390625 
z
" id="DejaVuSans-56"/>
      </defs>
      <use xlink:href="#DejaVuSans-45"/>
      <use x="36.083984" xlink:href="#DejaVuSans-56"/>
      <use x="99.707031" xlink:href="#DejaVuSans-58"/>
      <use x="133.398438" xlink:href="#DejaVuSans-32"/>
      <use x="165.185547" xlink:href="#DejaVuSans-51"/>
      <use x="228.808594" xlink:href="#DejaVuSans-47"/>
      <use x="262.5" xlink:href="#DejaVuSans-51"/>
     </g>
    </g>
   </g>
  </g>
 </g>
 <defs>
  <clipPath id="p7014bb999d">
   <rect height="288.28" width="419.032" x="34.16" y="3"/>
  </clipPath>
 </defs>
</svg>
