<?xml version="1.0" encoding="utf-8" standalone="no"?>
<!DOCTYPE svg PUBLIC "-//W3C//DTD SVG 1.1//EN"
  "http://www.w3.org/Graphics/SVG/1.1/DTD/svg11.dtd">
<!-- Created with matplotlib (https://matplotlib.org/) -->
<svg height="345.6pt" version="1.1" viewBox="0 0 460.8 345.6" width="460.8pt" xmlns="http://www.w3.org/2000/svg" xmlns:xlink="http://www.w3.org/1999/xlink">
 <metadata>
  <rdf:RDF xmlns:cc="http://creativecommons.org/ns#" xmlns:dc="http://purl.org/dc/elements/1.1/" xmlns:rdf="http://www.w3.org/1999/02/22-rdf-syntax-ns#">
   <cc:Work>
    <dc:type rdf:resource="http://purl.org/dc/dcmitype/StillImage"/>
    <dc:date>2021-04-27T05:13:01.414484</dc:date>
    <dc:format>image/svg+xml</dc:format>
    <dc:creator>
     <cc:Agent>
      <dc:title>Matplotlib v3.3.4, https://matplotlib.org/</dc:title>
     </cc:Agent>
    </dc:creator>
   </cc:Work>
  </rdf:RDF>
 </metadata>
 <defs>
  <style type="text/css">*{stroke-linecap:butt;stroke-linejoin:round;}</style>
 </defs>
 <g id="figure_1">
  <g id="patch_1">
   <path d="M 0 345.6 
L 460.8 345.6 
L 460.8 0 
L 0 0 
z
" style="fill:#ffffff;"/>
  </g>
  <g id="axes_1">
   <g id="patch_2">
    <path d="M 34.16 291.28 
L 453.192 291.28 
L 453.192 3 
L 34.16 3 
z
" style="fill:#ffffff;"/>
   </g>
   <g id="matplotlib.axis_1">
    <g id="xtick_1">
     <g id="line2d_1">
      <path clip-path="url(#p9b0839a27e)" d="M 149.536732 291.28 
L 149.536732 3 
" style="fill:none;stroke:#b0b0b0;stroke-linecap:square;stroke-width:0.8;"/>
     </g>
     <g id="line2d_2">
      <defs>
       <path d="M 0 0 
L 0 3.5 
" id="m99cbaa88ae" style="stroke:#000000;stroke-width:0.8;"/>
      </defs>
      <g>
       <use style="stroke:#000000;stroke-width:0.8;" x="149.536732" xlink:href="#m99cbaa88ae" y="291.28"/>
      </g>
     </g>
     <g id="text_1">
      <!-- -1 -->
      <g transform="translate(139.566419 313.476875)scale(0.2 -0.2)">
       <defs>
        <path d="M 4.890625 31.390625 
L 31.203125 31.390625 
L 31.203125 23.390625 
L 4.890625 23.390625 
z
" id="DejaVuSans-45"/>
        <path d="M 12.40625 8.296875 
L 28.515625 8.296875 
L 28.515625 63.921875 
L 10.984375 60.40625 
L 10.984375 69.390625 
L 28.421875 72.90625 
L 38.28125 72.90625 
L 38.28125 8.296875 
L 54.390625 8.296875 
L 54.390625 0 
L 12.40625 0 
z
" id="DejaVuSans-49"/>
       </defs>
       <use xlink:href="#DejaVuSans-45"/>
       <use x="36.083984" xlink:href="#DejaVuSans-49"/>
      </g>
     </g>
    </g>
    <g id="xtick_2">
     <g id="line2d_3">
      <path clip-path="url(#p9b0839a27e)" d="M 337.815268 291.28 
L 337.815268 3 
" style="fill:none;stroke:#b0b0b0;stroke-linecap:square;stroke-width:0.8;"/>
     </g>
     <g id="line2d_4">
      <g>
       <use style="stroke:#000000;stroke-width:0.8;" x="337.815268" xlink:href="#m99cbaa88ae" y="291.28"/>
      </g>
     </g>
     <g id="text_2">
      <!-- 1 -->
      <g transform="translate(331.452768 313.476875)scale(0.2 -0.2)">
       <use xlink:href="#DejaVuSans-49"/>
      </g>
     </g>
    </g>
    <g id="xtick_3">
     <g id="line2d_5">
      <defs>
       <path d="M 0 0 
L 0 2 
" id="mbe44999340" style="stroke:#000000;stroke-width:0.6;"/>
      </defs>
      <g>
       <use style="stroke:#000000;stroke-width:0.6;" x="34.512785" xlink:href="#mbe44999340" y="291.28"/>
      </g>
     </g>
    </g>
    <g id="xtick_4">
     <g id="line2d_6">
      <g>
       <use style="stroke:#000000;stroke-width:0.6;" x="40.815107" xlink:href="#mbe44999340" y="291.28"/>
      </g>
     </g>
    </g>
    <g id="xtick_5">
     <g id="line2d_7">
      <g>
       <use style="stroke:#000000;stroke-width:0.6;" x="46.274426" xlink:href="#mbe44999340" y="291.28"/>
      </g>
     </g>
    </g>
    <g id="xtick_6">
     <g id="line2d_8">
      <g>
       <use style="stroke:#000000;stroke-width:0.6;" x="51.089887" xlink:href="#mbe44999340" y="291.28"/>
      </g>
     </g>
    </g>
    <g id="xtick_7">
     <g id="line2d_9">
      <g>
       <use style="stroke:#000000;stroke-width:0.6;" x="83.736207" xlink:href="#mbe44999340" y="291.28"/>
      </g>
     </g>
    </g>
    <g id="xtick_8">
     <g id="line2d_10">
      <g>
       <use style="stroke:#000000;stroke-width:0.6;" x="100.31331" xlink:href="#mbe44999340" y="291.28"/>
      </g>
     </g>
    </g>
    <g id="xtick_9">
     <g id="line2d_11">
      <g>
       <use style="stroke:#000000;stroke-width:0.6;" x="112.074951" xlink:href="#mbe44999340" y="291.28"/>
      </g>
     </g>
    </g>
    <g id="xtick_10">
     <g id="line2d_12">
      <g>
       <use style="stroke:#000000;stroke-width:0.6;" x="121.197988" xlink:href="#mbe44999340" y="291.28"/>
      </g>
     </g>
    </g>
    <g id="xtick_11">
     <g id="line2d_13">
      <g>
       <use style="stroke:#000000;stroke-width:0.6;" x="128.652053" xlink:href="#mbe44999340" y="291.28"/>
      </g>
     </g>
    </g>
    <g id="xtick_12">
     <g id="line2d_14">
      <g>
       <use style="stroke:#000000;stroke-width:0.6;" x="134.954375" xlink:href="#mbe44999340" y="291.28"/>
      </g>
     </g>
    </g>
    <g id="xtick_13">
     <g id="line2d_15">
      <g>
       <use style="stroke:#000000;stroke-width:0.6;" x="140.413694" xlink:href="#mbe44999340" y="291.28"/>
      </g>
     </g>
    </g>
    <g id="xtick_14">
     <g id="line2d_16">
      <g>
       <use style="stroke:#000000;stroke-width:0.6;" x="145.229155" xlink:href="#mbe44999340" y="291.28"/>
      </g>
     </g>
    </g>
    <g id="xtick_15">
     <g id="line2d_17">
      <g>
       <use style="stroke:#000000;stroke-width:0.6;" x="177.875475" xlink:href="#mbe44999340" y="291.28"/>
      </g>
     </g>
    </g>
    <g id="xtick_16">
     <g id="line2d_18">
      <g>
       <use style="stroke:#000000;stroke-width:0.6;" x="194.452578" xlink:href="#mbe44999340" y="291.28"/>
      </g>
     </g>
    </g>
    <g id="xtick_17">
     <g id="line2d_19">
      <g>
       <use style="stroke:#000000;stroke-width:0.6;" x="206.214219" xlink:href="#mbe44999340" y="291.28"/>
      </g>
     </g>
    </g>
    <g id="xtick_18">
     <g id="line2d_20">
      <g>
       <use style="stroke:#000000;stroke-width:0.6;" x="215.337257" xlink:href="#mbe44999340" y="291.28"/>
      </g>
     </g>
    </g>
    <g id="xtick_19">
     <g id="line2d_21">
      <g>
       <use style="stroke:#000000;stroke-width:0.6;" x="222.791321" xlink:href="#mbe44999340" y="291.28"/>
      </g>
     </g>
    </g>
    <g id="xtick_20">
     <g id="line2d_22">
      <g>
       <use style="stroke:#000000;stroke-width:0.6;" x="229.093643" xlink:href="#mbe44999340" y="291.28"/>
      </g>
     </g>
    </g>
    <g id="xtick_21">
     <g id="line2d_23">
      <g>
       <use style="stroke:#000000;stroke-width:0.6;" x="234.552962" xlink:href="#mbe44999340" y="291.28"/>
      </g>
     </g>
    </g>
    <g id="xtick_22">
     <g id="line2d_24">
      <g>
       <use style="stroke:#000000;stroke-width:0.6;" x="239.368423" xlink:href="#mbe44999340" y="291.28"/>
      </g>
     </g>
    </g>
    <g id="xtick_23">
     <g id="line2d_25">
      <g>
       <use style="stroke:#000000;stroke-width:0.6;" x="272.014743" xlink:href="#mbe44999340" y="291.28"/>
      </g>
     </g>
    </g>
    <g id="xtick_24">
     <g id="line2d_26">
      <g>
       <use style="stroke:#000000;stroke-width:0.6;" x="288.591846" xlink:href="#mbe44999340" y="291.28"/>
      </g>
     </g>
    </g>
    <g id="xtick_25">
     <g id="line2d_27">
      <g>
       <use style="stroke:#000000;stroke-width:0.6;" x="300.353487" xlink:href="#mbe44999340" y="291.28"/>
      </g>
     </g>
    </g>
    <g id="xtick_26">
     <g id="line2d_28">
      <g>
       <use style="stroke:#000000;stroke-width:0.6;" x="309.476525" xlink:href="#mbe44999340" y="291.28"/>
      </g>
     </g>
    </g>
    <g id="xtick_27">
     <g id="line2d_29">
      <g>
       <use style="stroke:#000000;stroke-width:0.6;" x="316.930589" xlink:href="#mbe44999340" y="291.28"/>
      </g>
     </g>
    </g>
    <g id="xtick_28">
     <g id="line2d_30">
      <g>
       <use style="stroke:#000000;stroke-width:0.6;" x="323.232911" xlink:href="#mbe44999340" y="291.28"/>
      </g>
     </g>
    </g>
    <g id="xtick_29">
     <g id="line2d_31">
      <g>
       <use style="stroke:#000000;stroke-width:0.6;" x="328.69223" xlink:href="#mbe44999340" y="291.28"/>
      </g>
     </g>
    </g>
    <g id="xtick_30">
     <g id="line2d_32">
      <g>
       <use style="stroke:#000000;stroke-width:0.6;" x="333.507691" xlink:href="#mbe44999340" y="291.28"/>
      </g>
     </g>
    </g>
    <g id="xtick_31">
     <g id="line2d_33">
      <g>
       <use style="stroke:#000000;stroke-width:0.6;" x="366.154012" xlink:href="#mbe44999340" y="291.28"/>
      </g>
     </g>
    </g>
    <g id="xtick_32">
     <g id="line2d_34">
      <g>
       <use style="stroke:#000000;stroke-width:0.6;" x="382.731114" xlink:href="#mbe44999340" y="291.28"/>
      </g>
     </g>
    </g>
    <g id="xtick_33">
     <g id="line2d_35">
      <g>
       <use style="stroke:#000000;stroke-width:0.6;" x="394.492755" xlink:href="#mbe44999340" y="291.28"/>
      </g>
     </g>
    </g>
    <g id="xtick_34">
     <g id="line2d_36">
      <g>
       <use style="stroke:#000000;stroke-width:0.6;" x="403.615793" xlink:href="#mbe44999340" y="291.28"/>
      </g>
     </g>
    </g>
    <g id="xtick_35">
     <g id="line2d_37">
      <g>
       <use style="stroke:#000000;stroke-width:0.6;" x="411.069857" xlink:href="#mbe44999340" y="291.28"/>
      </g>
     </g>
    </g>
    <g id="xtick_36">
     <g id="line2d_38">
      <g>
       <use style="stroke:#000000;stroke-width:0.6;" x="417.372179" xlink:href="#mbe44999340" y="291.28"/>
      </g>
     </g>
    </g>
    <g id="xtick_37">
     <g id="line2d_39">
      <g>
       <use style="stroke:#000000;stroke-width:0.6;" x="422.831498" xlink:href="#mbe44999340" y="291.28"/>
      </g>
     </g>
    </g>
    <g id="xtick_38">
     <g id="line2d_40">
      <g>
       <use style="stroke:#000000;stroke-width:0.6;" x="427.646959" xlink:href="#mbe44999340" y="291.28"/>
      </g>
     </g>
    </g>
    <g id="text_3">
     <!-- log10 of FEvals ratio -->
     <g transform="translate(141.371312 336.833125)scale(0.2 -0.2)">
      <defs>
       <path d="M 9.421875 75.984375 
L 18.40625 75.984375 
L 18.40625 0 
L 9.421875 0 
z
" id="DejaVuSans-108"/>
       <path d="M 30.609375 48.390625 
Q 23.390625 48.390625 19.1875 42.75 
Q 14.984375 37.109375 14.984375 27.296875 
Q 14.984375 17.484375 19.15625 11.84375 
Q 23.34375 6.203125 30.609375 6.203125 
Q 37.796875 6.203125 41.984375 11.859375 
Q 46.1875 17.53125 46.1875 27.296875 
Q 46.1875 37.015625 41.984375 42.703125 
Q 37.796875 48.390625 30.609375 48.390625 
z
M 30.609375 56 
Q 42.328125 56 49.015625 48.375 
Q 55.71875 40.765625 55.71875 27.296875 
Q 55.71875 13.875 49.015625 6.21875 
Q 42.328125 -1.421875 30.609375 -1.421875 
Q 18.84375 -1.421875 12.171875 6.21875 
Q 5.515625 13.875 5.515625 27.296875 
Q 5.515625 40.765625 12.171875 48.375 
Q 18.84375 56 30.609375 56 
z
" id="DejaVuSans-111"/>
       <path d="M 45.40625 27.984375 
Q 45.40625 37.75 41.375 43.109375 
Q 37.359375 48.484375 30.078125 48.484375 
Q 22.859375 48.484375 18.828125 43.109375 
Q 14.796875 37.75 14.796875 27.984375 
Q 14.796875 18.265625 18.828125 12.890625 
Q 22.859375 7.515625 30.078125 7.515625 
Q 37.359375 7.515625 41.375 12.890625 
Q 45.40625 18.265625 45.40625 27.984375 
z
M 54.390625 6.78125 
Q 54.390625 -7.171875 48.1875 -13.984375 
Q 42 -20.796875 29.203125 -20.796875 
Q 24.46875 -20.796875 20.265625 -20.09375 
Q 16.0625 -19.390625 12.109375 -17.921875 
L 12.109375 -9.1875 
Q 16.0625 -11.328125 19.921875 -12.34375 
Q 23.78125 -13.375 27.78125 -13.375 
Q 36.625 -13.375 41.015625 -8.765625 
Q 45.40625 -4.15625 45.40625 5.171875 
L 45.40625 9.625 
Q 42.625 4.78125 38.28125 2.390625 
Q 33.9375 0 27.875 0 
Q 17.828125 0 11.671875 7.65625 
Q 5.515625 15.328125 5.515625 27.984375 
Q 5.515625 40.671875 11.671875 48.328125 
Q 17.828125 56 27.875 56 
Q 33.9375 56 38.28125 53.609375 
Q 42.625 51.21875 45.40625 46.390625 
L 45.40625 54.6875 
L 54.390625 54.6875 
z
" id="DejaVuSans-103"/>
       <path d="M 31.78125 66.40625 
Q 24.171875 66.40625 20.328125 58.90625 
Q 16.5 51.421875 16.5 36.375 
Q 16.5 21.390625 20.328125 13.890625 
Q 24.171875 6.390625 31.78125 6.390625 
Q 39.453125 6.390625 43.28125 13.890625 
Q 47.125 21.390625 47.125 36.375 
Q 47.125 51.421875 43.28125 58.90625 
Q 39.453125 66.40625 31.78125 66.40625 
z
M 31.78125 74.21875 
Q 44.046875 74.21875 50.515625 64.515625 
Q 56.984375 54.828125 56.984375 36.375 
Q 56.984375 17.96875 50.515625 8.265625 
Q 44.046875 -1.421875 31.78125 -1.421875 
Q 19.53125 -1.421875 13.0625 8.265625 
Q 6.59375 17.96875 6.59375 36.375 
Q 6.59375 54.828125 13.0625 64.515625 
Q 19.53125 74.21875 31.78125 74.21875 
z
" id="DejaVuSans-48"/>
       <path id="DejaVuSans-32"/>
       <path d="M 37.109375 75.984375 
L 37.109375 68.5 
L 28.515625 68.5 
Q 23.6875 68.5 21.796875 66.546875 
Q 19.921875 64.59375 19.921875 59.515625 
L 19.921875 54.6875 
L 34.71875 54.6875 
L 34.71875 47.703125 
L 19.921875 47.703125 
L 19.921875 0 
L 10.890625 0 
L 10.890625 47.703125 
L 2.296875 47.703125 
L 2.296875 54.6875 
L 10.890625 54.6875 
L 10.890625 58.5 
Q 10.890625 67.625 15.140625 71.796875 
Q 19.390625 75.984375 28.609375 75.984375 
z
" id="DejaVuSans-102"/>
       <path d="M 9.8125 72.90625 
L 51.703125 72.90625 
L 51.703125 64.59375 
L 19.671875 64.59375 
L 19.671875 43.109375 
L 48.578125 43.109375 
L 48.578125 34.8125 
L 19.671875 34.8125 
L 19.671875 0 
L 9.8125 0 
z
" id="DejaVuSans-70"/>
       <path d="M 9.8125 72.90625 
L 55.90625 72.90625 
L 55.90625 64.59375 
L 19.671875 64.59375 
L 19.671875 43.015625 
L 54.390625 43.015625 
L 54.390625 34.71875 
L 19.671875 34.71875 
L 19.671875 8.296875 
L 56.78125 8.296875 
L 56.78125 0 
L 9.8125 0 
z
" id="DejaVuSans-69"/>
       <path d="M 2.984375 54.6875 
L 12.5 54.6875 
L 29.59375 8.796875 
L 46.6875 54.6875 
L 56.203125 54.6875 
L 35.6875 0 
L 23.484375 0 
z
" id="DejaVuSans-118"/>
       <path d="M 34.28125 27.484375 
Q 23.390625 27.484375 19.1875 25 
Q 14.984375 22.515625 14.984375 16.5 
Q 14.984375 11.71875 18.140625 8.90625 
Q 21.296875 6.109375 26.703125 6.109375 
Q 34.1875 6.109375 38.703125 11.40625 
Q 43.21875 16.703125 43.21875 25.484375 
L 43.21875 27.484375 
z
M 52.203125 31.203125 
L 52.203125 0 
L 43.21875 0 
L 43.21875 8.296875 
Q 40.140625 3.328125 35.546875 0.953125 
Q 30.953125 -1.421875 24.3125 -1.421875 
Q 15.921875 -1.421875 10.953125 3.296875 
Q 6 8.015625 6 15.921875 
Q 6 25.140625 12.171875 29.828125 
Q 18.359375 34.515625 30.609375 34.515625 
L 43.21875 34.515625 
L 43.21875 35.40625 
Q 43.21875 41.609375 39.140625 45 
Q 35.0625 48.390625 27.6875 48.390625 
Q 23 48.390625 18.546875 47.265625 
Q 14.109375 46.140625 10.015625 43.890625 
L 10.015625 52.203125 
Q 14.9375 54.109375 19.578125 55.046875 
Q 24.21875 56 28.609375 56 
Q 40.484375 56 46.34375 49.84375 
Q 52.203125 43.703125 52.203125 31.203125 
z
" id="DejaVuSans-97"/>
       <path d="M 44.28125 53.078125 
L 44.28125 44.578125 
Q 40.484375 46.53125 36.375 47.5 
Q 32.28125 48.484375 27.875 48.484375 
Q 21.1875 48.484375 17.84375 46.4375 
Q 14.5 44.390625 14.5 40.28125 
Q 14.5 37.15625 16.890625 35.375 
Q 19.28125 33.59375 26.515625 31.984375 
L 29.59375 31.296875 
Q 39.15625 29.25 43.1875 25.515625 
Q 47.21875 21.78125 47.21875 15.09375 
Q 47.21875 7.46875 41.1875 3.015625 
Q 35.15625 -1.421875 24.609375 -1.421875 
Q 20.21875 -1.421875 15.453125 -0.5625 
Q 10.6875 0.296875 5.421875 2 
L 5.421875 11.28125 
Q 10.40625 8.6875 15.234375 7.390625 
Q 20.0625 6.109375 24.8125 6.109375 
Q 31.15625 6.109375 34.5625 8.28125 
Q 37.984375 10.453125 37.984375 14.40625 
Q 37.984375 18.0625 35.515625 20.015625 
Q 33.0625 21.96875 24.703125 23.78125 
L 21.578125 24.515625 
Q 13.234375 26.265625 9.515625 29.90625 
Q 5.8125 33.546875 5.8125 39.890625 
Q 5.8125 47.609375 11.28125 51.796875 
Q 16.75 56 26.8125 56 
Q 31.78125 56 36.171875 55.265625 
Q 40.578125 54.546875 44.28125 53.078125 
z
" id="DejaVuSans-115"/>
       <path d="M 41.109375 46.296875 
Q 39.59375 47.171875 37.8125 47.578125 
Q 36.03125 48 33.890625 48 
Q 26.265625 48 22.1875 43.046875 
Q 18.109375 38.09375 18.109375 28.8125 
L 18.109375 0 
L 9.078125 0 
L 9.078125 54.6875 
L 18.109375 54.6875 
L 18.109375 46.1875 
Q 20.953125 51.171875 25.484375 53.578125 
Q 30.03125 56 36.53125 56 
Q 37.453125 56 38.578125 55.875 
Q 39.703125 55.765625 41.0625 55.515625 
z
" id="DejaVuSans-114"/>
       <path d="M 18.3125 70.21875 
L 18.3125 54.6875 
L 36.8125 54.6875 
L 36.8125 47.703125 
L 18.3125 47.703125 
L 18.3125 18.015625 
Q 18.3125 11.328125 20.140625 9.421875 
Q 21.96875 7.515625 27.59375 7.515625 
L 36.8125 7.515625 
L 36.8125 0 
L 27.59375 0 
Q 17.1875 0 13.234375 3.875 
Q 9.28125 7.765625 9.28125 18.015625 
L 9.28125 47.703125 
L 2.6875 47.703125 
L 2.6875 54.6875 
L 9.28125 54.6875 
L 9.28125 70.21875 
z
" id="DejaVuSans-116"/>
       <path d="M 9.421875 54.6875 
L 18.40625 54.6875 
L 18.40625 0 
L 9.421875 0 
z
M 9.421875 75.984375 
L 18.40625 75.984375 
L 18.40625 64.59375 
L 9.421875 64.59375 
z
" id="DejaVuSans-105"/>
      </defs>
      <use xlink:href="#DejaVuSans-108"/>
      <use x="27.783203" xlink:href="#DejaVuSans-111"/>
      <use x="88.964844" xlink:href="#DejaVuSans-103"/>
      <use x="152.441406" xlink:href="#DejaVuSans-49"/>
      <use x="216.064453" xlink:href="#DejaVuSans-48"/>
      <use x="279.6875" xlink:href="#DejaVuSans-32"/>
      <use x="311.474609" xlink:href="#DejaVuSans-111"/>
      <use x="372.65625" xlink:href="#DejaVuSans-102"/>
      <use x="407.861328" xlink:href="#DejaVuSans-32"/>
      <use x="439.648438" xlink:href="#DejaVuSans-70"/>
      <use x="497.167969" xlink:href="#DejaVuSans-69"/>
      <use x="560.351562" xlink:href="#DejaVuSans-118"/>
      <use x="619.53125" xlink:href="#DejaVuSans-97"/>
      <use x="680.810547" xlink:href="#DejaVuSans-108"/>
      <use x="708.59375" xlink:href="#DejaVuSans-115"/>
      <use x="760.693359" xlink:href="#DejaVuSans-32"/>
      <use x="792.480469" xlink:href="#DejaVuSans-114"/>
      <use x="833.59375" xlink:href="#DejaVuSans-97"/>
      <use x="894.873047" xlink:href="#DejaVuSans-116"/>
      <use x="934.082031" xlink:href="#DejaVuSans-105"/>
      <use x="961.865234" xlink:href="#DejaVuSans-111"/>
     </g>
    </g>
   </g>
   <g id="matplotlib.axis_2">
    <g id="ytick_1">
     <g id="line2d_41">
      <path clip-path="url(#p9b0839a27e)" d="M 34.16 288.453725 
L 453.192 288.453725 
" style="fill:none;stroke:#b0b0b0;stroke-linecap:square;stroke-width:0.8;"/>
     </g>
     <g id="line2d_42">
      <defs>
       <path d="M 0 0 
L -3.5 0 
" id="m8ffe4cfc65" style="stroke:#000000;stroke-width:0.8;"/>
      </defs>
      <g>
       <use style="stroke:#000000;stroke-width:0.8;" x="34.16" xlink:href="#m8ffe4cfc65" y="288.453725"/>
      </g>
     </g>
    </g>
    <g id="ytick_2">
     <g id="line2d_43">
      <path clip-path="url(#p9b0839a27e)" d="M 34.16 217.796863 
L 453.192 217.796863 
" style="fill:none;stroke:#b0b0b0;stroke-linecap:square;stroke-width:0.8;"/>
     </g>
     <g id="line2d_44">
      <g>
       <use style="stroke:#000000;stroke-width:0.8;" x="34.16" xlink:href="#m8ffe4cfc65" y="217.796863"/>
      </g>
     </g>
    </g>
    <g id="ytick_3">
     <g id="line2d_45">
      <path clip-path="url(#p9b0839a27e)" d="M 34.16 147.14 
L 453.192 147.14 
" style="fill:none;stroke:#b0b0b0;stroke-linecap:square;stroke-width:0.8;"/>
     </g>
     <g id="line2d_46">
      <g>
       <use style="stroke:#000000;stroke-width:0.8;" x="34.16" xlink:href="#m8ffe4cfc65" y="147.14"/>
      </g>
     </g>
    </g>
    <g id="ytick_4">
     <g id="line2d_47">
      <path clip-path="url(#p9b0839a27e)" d="M 34.16 76.483137 
L 453.192 76.483137 
" style="fill:none;stroke:#b0b0b0;stroke-linecap:square;stroke-width:0.8;"/>
     </g>
     <g id="line2d_48">
      <g>
       <use style="stroke:#000000;stroke-width:0.8;" x="34.16" xlink:href="#m8ffe4cfc65" y="76.483137"/>
      </g>
     </g>
    </g>
    <g id="ytick_5">
     <g id="line2d_49">
      <path clip-path="url(#p9b0839a27e)" d="M 34.16 5.826275 
L 453.192 5.826275 
" style="fill:none;stroke:#b0b0b0;stroke-linecap:square;stroke-width:0.8;"/>
     </g>
     <g id="line2d_50">
      <g>
       <use style="stroke:#000000;stroke-width:0.8;" x="34.16" xlink:href="#m8ffe4cfc65" y="5.826275"/>
      </g>
     </g>
    </g>
    <g id="text_4">
     <!-- proportion of trials -->
     <g transform="translate(19.000625 240.14625)rotate(-90)scale(0.2 -0.2)">
      <defs>
       <path d="M 18.109375 8.203125 
L 18.109375 -20.796875 
L 9.078125 -20.796875 
L 9.078125 54.6875 
L 18.109375 54.6875 
L 18.109375 46.390625 
Q 20.953125 51.265625 25.265625 53.625 
Q 29.59375 56 35.59375 56 
Q 45.5625 56 51.78125 48.09375 
Q 58.015625 40.1875 58.015625 27.296875 
Q 58.015625 14.40625 51.78125 6.484375 
Q 45.5625 -1.421875 35.59375 -1.421875 
Q 29.59375 -1.421875 25.265625 0.953125 
Q 20.953125 3.328125 18.109375 8.203125 
z
M 48.6875 27.296875 
Q 48.6875 37.203125 44.609375 42.84375 
Q 40.53125 48.484375 33.40625 48.484375 
Q 26.265625 48.484375 22.1875 42.84375 
Q 18.109375 37.203125 18.109375 27.296875 
Q 18.109375 17.390625 22.1875 11.75 
Q 26.265625 6.109375 33.40625 6.109375 
Q 40.53125 6.109375 44.609375 11.75 
Q 48.6875 17.390625 48.6875 27.296875 
z
" id="DejaVuSans-112"/>
       <path d="M 54.890625 33.015625 
L 54.890625 0 
L 45.90625 0 
L 45.90625 32.71875 
Q 45.90625 40.484375 42.875 44.328125 
Q 39.84375 48.1875 33.796875 48.1875 
Q 26.515625 48.1875 22.3125 43.546875 
Q 18.109375 38.921875 18.109375 30.90625 
L 18.109375 0 
L 9.078125 0 
L 9.078125 54.6875 
L 18.109375 54.6875 
L 18.109375 46.1875 
Q 21.34375 51.125 25.703125 53.5625 
Q 30.078125 56 35.796875 56 
Q 45.21875 56 50.046875 50.171875 
Q 54.890625 44.34375 54.890625 33.015625 
z
" id="DejaVuSans-110"/>
      </defs>
      <use xlink:href="#DejaVuSans-112"/>
      <use x="63.476562" xlink:href="#DejaVuSans-114"/>
      <use x="102.339844" xlink:href="#DejaVuSans-111"/>
      <use x="163.521484" xlink:href="#DejaVuSans-112"/>
      <use x="226.998047" xlink:href="#DejaVuSans-111"/>
      <use x="288.179688" xlink:href="#DejaVuSans-114"/>
      <use x="329.292969" xlink:href="#DejaVuSans-116"/>
      <use x="368.501953" xlink:href="#DejaVuSans-105"/>
      <use x="396.285156" xlink:href="#DejaVuSans-111"/>
      <use x="457.466797" xlink:href="#DejaVuSans-110"/>
      <use x="520.845703" xlink:href="#DejaVuSans-32"/>
      <use x="552.632812" xlink:href="#DejaVuSans-111"/>
      <use x="613.814453" xlink:href="#DejaVuSans-102"/>
      <use x="649.019531" xlink:href="#DejaVuSans-32"/>
      <use x="680.806641" xlink:href="#DejaVuSans-116"/>
      <use x="720.015625" xlink:href="#DejaVuSans-114"/>
      <use x="761.128906" xlink:href="#DejaVuSans-105"/>
      <use x="788.912109" xlink:href="#DejaVuSans-97"/>
      <use x="850.191406" xlink:href="#DejaVuSans-108"/>
      <use x="877.974609" xlink:href="#DejaVuSans-115"/>
     </g>
    </g>
   </g>
   <g id="line2d_51">
    <path clip-path="url(#p9b0839a27e)" d="M 34.16 228.159869 
L 52.140269 228.159869 
L 52.140269 227.908645 
L 54.89155 227.908645 
L 54.89155 227.65742 
L 56.00862 227.65742 
L 56.00862 227.406196 
L 56.420284 227.406196 
L 56.420284 227.154972 
L 79.491641 227.154972 
L 79.491641 226.903747 
L 81.051444 226.903747 
L 81.051444 226.652523 
L 81.182413 226.652523 
L 81.269493 226.150074 
L 82.242922 226.150074 
L 82.242922 225.89885 
L 83.169023 225.89885 
L 83.169023 225.647625 
L 83.359992 225.647625 
L 83.359992 225.396401 
L 83.771656 225.396401 
L 83.802726 224.893952 
L 83.933695 224.893952 
L 84.020775 224.391503 
L 84.919795 224.391503 
L 84.919795 224.140279 
L 85.050764 224.140279 
L 85.137845 223.63783 
L 85.331459 223.63783 
L 85.331459 223.386606 
L 85.462428 223.386606 
L 85.549508 222.884157 
L 91.116774 222.884157 
L 91.116774 222.632932 
L 92.527871 222.632932 
L 92.527871 222.381708 
L 93.868055 222.381708 
L 93.868055 222.130484 
L 94.39977 222.130484 
L 94.39977 221.879259 
L 94.985125 221.879259 
L 94.985125 221.628035 
L 95.279153 221.628035 
L 95.279153 221.37681 
L 95.396789 221.37681 
L 95.396789 221.125586 
L 96.20269 221.125586 
L 96.20269 220.874362 
L 96.396223 220.874362 
L 96.396223 220.623137 
L 96.778533 220.623137 
L 96.807886 219.61824 
L 96.939916 219.61824 
L 96.939916 219.367015 
L 97.102437 219.367015 
L 97.205154 218.613342 
L 97.515758 218.613342 
L 97.522223 217.608444 
L 97.67828 217.608444 
L 97.67828 216.854771 
L 97.94238 216.854771 
L 97.94238 216.603547 
L 98.104901 216.603547 
L 98.104901 216.352322 
L 98.259449 216.352322 
L 98.268121 215.849874 
L 98.421971 215.849874 
L 98.421971 215.598649 
L 98.679785 215.598649 
L 98.679785 215.347425 
L 98.820756 215.347425 
L 98.820756 215.0962 
L 99.074784 215.0962 
L 99.074784 214.844976 
L 99.605936 214.844976 
L 99.605936 214.593752 
L 99.855146 214.593752 
L 99.855146 214.342527 
L 100.564598 214.342527 
L 100.564598 214.091303 
L 101.301823 214.091303 
L 101.301823 213.840078 
L 101.464345 213.840078 
L 101.572038 213.33763 
L 101.784153 213.33763 
L 101.826065 212.835181 
L 102.357217 212.835181 
L 102.357217 212.583956 
L 102.474766 212.583956 
L 102.521379 212.081508 
L 102.606427 212.081508 
L 102.689108 211.327834 
L 102.845328 211.327834 
L 102.943135 210.825386 
L 103.040468 210.825386 
L 103.100771 210.322937 
L 103.354798 210.322937 
L 103.354798 210.071712 
L 103.474287 210.071712 
L 103.582554 209.569264 
L 103.723497 209.569264 
L 103.745076 209.066815 
L 103.885951 209.066815 
L 103.885951 208.81559 
L 104.135161 208.81559 
L 104.135161 208.564366 
L 104.790057 208.564366 
L 104.790057 208.313142 
L 105.226048 208.313142 
L 105.226048 208.061917 
L 105.412623 208.061917 
L 105.412623 207.810693 
L 105.791749 207.810693 
L 105.791749 207.559468 
L 106.149848 207.559468 
L 106.149848 207.308244 
L 106.31237 207.308244 
L 106.343117 206.805795 
L 106.754781 206.805795 
L 106.754781 206.554571 
L 106.908819 206.554571 
L 106.908819 206.303346 
L 107.320483 206.303346 
L 107.320483 206.052122 
L 107.444552 206.052122 
L 107.541339 205.549673 
L 108.181778 205.549673 
L 108.181778 205.298449 
L 108.344299 205.298449 
L 108.344299 205.047224 
L 108.658409 205.047224 
L 108.658409 204.796 
L 109.070072 204.796 
L 109.169651 204.293551 
L 109.906877 204.293551 
L 109.906877 204.042327 
L 110.069398 204.042327 
L 110.069398 203.791102 
L 110.520395 203.791102 
L 110.520395 203.539878 
L 112.080198 203.539878 
L 112.080198 203.288654 
L 112.211167 203.288654 
L 112.298248 202.786205 
L 112.683025 202.786205 
L 112.683025 202.53498 
L 113.211594 202.53498 
L 113.211594 202.283756 
L 113.420251 202.283756 
L 113.420251 202.032532 
L 113.569502 202.032532 
L 113.582772 201.278858 
L 114.306728 201.278858 
L 114.306728 200.77641 
L 114.469249 200.77641 
L 114.469249 200.273961 
L 122.145528 200.273961 
L 122.145528 200.022736 
L 123.556626 200.022736 
L 123.556626 199.771512 
L 124.385381 199.771512 
L 124.385381 198.766614 
L 125.428524 198.766614 
L 125.428524 198.51539 
L 127.307532 198.51539 
L 127.307532 198.264166 
L 129.53408 198.264166 
L 129.53408 198.012941 
L 129.849511 198.012941 
L 129.849511 197.761717 
L 130.103538 197.761717 
L 130.103538 197.510492 
L 130.533045 197.510492 
L 130.63469 197.008044 
L 130.8839 197.008044 
L 130.8839 196.756819 
L 133.50352 196.756819 
L 133.50352 196.505595 
L 134.069222 196.505595 
L 134.172588 196.003146 
L 135.818812 196.003146 
L 135.818812 195.751922 
L 136.815974 195.751922 
L 136.815974 195.500697 
L 137.267206 195.500697 
L 137.276062 194.244575 
L 137.391817 194.244575 
L 137.391817 193.490902 
L 137.818438 193.490902 
L 137.818438 193.239678 
L 138.135508 193.239678 
L 138.135508 192.988453 
L 138.73984 192.988453 
L 138.73984 192.737229 
L 139.021963 192.737229 
L 139.021963 192.486004 
L 140.413694 192.486004 
L 140.413694 191.481107 
L 140.562966 191.481107 
L 140.562966 191.229882 
L 140.962483 191.229882 
L 140.966388 190.727434 
L 141.177882 190.727434 
L 141.248511 190.224985 
L 141.367891 190.224985 
L 141.465981 189.722536 
L 141.965353 189.722536 
L 142.011749 189.220087 
L 142.12277 189.220087 
L 142.12277 188.968863 
L 142.247476 188.968863 
L 142.340819 188.21519 
L 142.397437 188.21519 
L 142.397437 187.963965 
L 143.458613 187.963965 
L 143.458613 187.712741 
L 143.822682 187.712741 
L 143.822682 186.707843 
L 144.048819 186.707843 
L 144.048819 186.456619 
L 144.390007 186.456619 
L 144.390007 186.205394 
L 144.76423 186.205394 
L 144.76423 185.95417 
L 145.604896 185.95417 
L 145.65983 184.446824 
L 145.887019 184.446824 
L 145.887019 184.195599 
L 146.025907 184.195599 
L 146.025907 183.944375 
L 146.235672 183.944375 
L 146.281442 182.688253 
L 146.662294 182.688253 
L 146.662294 182.437028 
L 146.872905 182.437028 
L 146.979363 181.93458 
L 147.108429 181.93458 
L 147.108429 181.683355 
L 147.274332 181.683355 
L 147.382718 181.180906 
L 147.486794 181.180906 
L 147.486794 180.929682 
L 147.95935 180.929682 
L 148.062637 179.67356 
L 148.083119 179.67356 
L 148.083119 179.422336 
L 148.489258 179.422336 
L 148.489258 179.171111 
L 148.70837 179.171111 
L 148.806328 178.668662 
L 148.990493 178.668662 
L 148.990493 178.417438 
L 149.127264 178.417438 
L 149.127264 178.166214 
L 149.334977 178.166214 
L 149.334977 177.914989 
L 149.782935 177.914989 
L 149.782935 177.663765 
L 150.021737 177.663765 
L 150.021737 177.41254 
L 150.309668 177.41254 
L 150.333941 176.910092 
L 150.680968 176.910092 
L 150.680968 176.658867 
L 150.913875 176.658867 
L 150.913875 176.407643 
L 151.07327 176.407643 
L 151.07327 176.156418 
L 151.241293 176.156418 
L 151.308632 175.653969 
L 151.848702 175.653969 
L 151.848702 175.402745 
L 152.061142 175.402745 
L 152.061142 175.151521 
L 152.1881 175.151521 
L 152.29756 174.397847 
L 152.302468 174.397847 
L 152.302468 174.146623 
L 152.615582 174.146623 
L 152.615582 173.895399 
L 152.789642 173.895399 
L 152.856275 173.141725 
L 153.068257 173.141725 
L 153.082322 172.639277 
L 153.296309 172.639277 
L 153.296309 172.388052 
L 153.444057 172.388052 
L 153.444057 172.136828 
L 153.599197 172.136828 
L 153.599197 171.885603 
L 153.72618 171.885603 
L 153.797791 171.383155 
L 153.844309 171.383155 
L 153.876088 170.880706 
L 153.973485 170.880706 
L 154.017349 170.378257 
L 154.129432 170.378257 
L 154.182786 169.624584 
L 154.371519 169.624584 
L 154.371519 169.373359 
L 154.524108 169.373359 
L 154.524108 169.122135 
L 154.718045 169.122135 
L 154.718045 168.870911 
L 154.869762 168.870911 
L 154.948175 168.368462 
L 155.031464 168.368462 
L 155.082824 167.866013 
L 155.471096 167.866013 
L 155.5649 167.11234 
L 155.822315 167.11234 
L 155.913832 166.107442 
L 155.974721 166.107442 
L 156.081788 165.604993 
L 156.104438 165.604993 
L 156.104438 165.353769 
L 156.480194 165.353769 
L 156.480194 165.102545 
L 156.696727 165.102545 
L 156.696727 164.85132 
L 156.901692 164.85132 
L 156.990796 164.097647 
L 157.076959 164.097647 
L 157.09604 163.595198 
L 157.431043 163.595198 
L 157.431043 163.343974 
L 157.566639 163.343974 
L 157.566639 163.092749 
L 157.943558 163.092749 
L 158.05165 162.339076 
L 158.109178 162.339076 
L 158.180856 161.585403 
L 158.274116 161.585403 
L 158.348347 161.082954 
L 158.613252 161.082954 
L 158.626791 160.580505 
L 158.728656 160.580505 
L 158.753036 160.078057 
L 158.86315 160.078057 
L 158.92419 159.073159 
L 159.108952 159.073159 
L 159.204715 158.068261 
L 159.272971 158.068261 
L 159.350811 157.565813 
L 159.667881 157.565813 
L 159.721331 157.063364 
L 159.892082 157.063364 
L 159.892082 156.812139 
L 160.146109 156.812139 
L 160.146109 156.560915 
L 160.257825 156.560915 
L 160.291161 156.058466 
L 160.380362 156.058466 
L 160.453755 155.053569 
L 160.559572 155.053569 
L 160.632591 154.55112 
L 160.677261 154.55112 
L 160.677261 154.299895 
L 160.790182 154.299895 
L 160.841695 153.797447 
L 160.926472 153.797447 
L 160.986788 153.043773 
L 161.131294 153.043773 
L 161.168788 152.541325 
L 161.381645 152.541325 
L 161.479105 152.038876 
L 161.572366 152.038876 
L 161.583101 151.536427 
L 161.812646 151.536427 
L 161.812646 151.285203 
L 162.05827 151.285203 
L 162.143479 150.531529 
L 162.182501 150.531529 
L 162.266091 149.526632 
L 162.468091 149.526632 
L 162.468091 149.275407 
L 162.710255 149.275407 
L 162.787337 148.521734 
L 162.824806 148.521734 
L 162.859139 148.019285 
L 162.996317 148.019285 
L 163.089577 147.014388 
L 163.493449 147.014388 
L 163.58778 146.260715 
L 163.68104 146.260715 
L 163.775572 145.507041 
L 163.858104 145.507041 
L 163.967129 144.753368 
L 164.111794 144.753368 
L 164.190904 144.250919 
L 164.285038 144.250919 
L 164.285038 143.999695 
L 164.409049 143.999695 
L 164.409049 143.748471 
L 164.674226 143.748471 
L 164.767486 142.994797 
L 164.853606 142.994797 
L 164.853606 142.492349 
L 164.990985 142.492349 
L 164.990985 142.241124 
L 165.165595 142.241124 
L 165.251687 141.738675 
L 165.408014 141.738675 
L 165.408014 141.487451 
L 165.534452 141.487451 
L 165.534452 141.236227 
L 165.802249 141.236227 
L 165.868551 139.980105 
L 166.357919 139.980105 
L 166.463772 139.226431 
L 166.745895 139.226431 
L 166.745895 138.975207 
L 166.916635 138.975207 
L 167.001778 138.221534 
L 167.051663 138.221534 
L 167.051663 137.970309 
L 167.480158 137.970309 
L 167.560493 136.965412 
L 167.643126 136.965412 
L 167.72169 136.462963 
L 168.297533 136.462963 
L 168.297533 135.70929 
L 168.443491 135.70929 
L 168.443491 135.458065 
L 168.65397 135.458065 
L 168.729572 134.704392 
L 168.778404 134.704392 
L 168.802429 134.201943 
L 168.92816 134.201943 
L 168.92816 133.950719 
L 169.041224 133.950719 
L 169.047557 133.44827 
L 169.229813 133.44827 
L 169.229813 132.694597 
L 169.380036 132.694597 
L 169.422263 132.192148 
L 169.590209 132.192148 
L 169.656435 131.689699 
L 169.902851 131.689699 
L 169.973504 130.684802 
L 170.599246 130.684802 
L 170.601122 130.182353 
L 170.999353 130.182353 
L 170.999353 129.931129 
L 171.315308 129.931129 
L 171.401558 129.42868 
L 171.575196 129.42868 
L 171.575196 128.675007 
L 171.690133 128.675007 
L 171.80052 127.921333 
L 171.862038 127.921333 
L 171.972256 127.418885 
L 172.001817 127.418885 
L 172.083598 126.916436 
L 172.121549 126.916436 
L 172.151031 126.413987 
L 172.318887 126.413987 
L 172.318887 126.162763 
L 172.836729 126.162763 
L 172.836729 125.911538 
L 172.977503 125.911538 
L 173.015878 125.409089 
L 173.303153 125.409089 
L 173.303153 125.157865 
L 174.117292 125.157865 
L 174.117292 124.906641 
L 174.235434 124.906641 
L 174.235434 124.655416 
L 174.364328 124.655416 
L 174.364328 124.404192 
L 174.676007 124.404192 
L 174.69295 123.901743 
L 174.828682 123.901743 
L 174.832361 123.399294 
L 175.296609 123.399294 
L 175.361261 122.645621 
L 175.715159 122.645621 
L 175.807052 121.891948 
L 176.24286 121.891948 
L 176.24286 121.640723 
L 176.537777 121.640723 
L 176.580816 121.138275 
L 176.886718 121.138275 
L 176.931623 120.635826 
L 176.999112 120.635826 
L 177.05117 120.133377 
L 177.609885 120.133377 
L 177.715067 119.128479 
L 177.863903 119.128479 
L 177.875475 114.857664 
L 178.625039 114.857664 
L 178.625039 114.60644 
L 178.963552 114.60644 
L 178.963552 114.355216 
L 179.264976 114.355216 
L 179.264976 114.103991 
L 179.471655 114.103991 
L 179.471655 113.852767 
L 179.875799 113.852767 
L 179.895833 113.350318 
L 180.021493 113.350318 
L 180.058722 112.847869 
L 180.157922 112.847869 
L 180.209286 112.34542 
L 180.580208 112.34542 
L 180.688651 111.591747 
L 181.033412 111.591747 
L 181.033412 111.340523 
L 181.620931 111.340523 
L 181.620931 111.089298 
L 182.241215 111.089298 
L 182.241215 110.838074 
L 182.441977 110.838074 
L 182.452323 110.335625 
L 182.833865 110.335625 
L 182.833865 110.084401 
L 183.067436 110.084401 
L 183.115988 109.581952 
L 183.553857 109.581952 
L 183.61896 109.079503 
L 183.698516 109.079503 
L 183.698516 108.828279 
L 183.83598 108.828279 
L 183.83598 108.577054 
L 183.966314 108.577054 
L 184.002233 108.074606 
L 184.202025 108.074606 
L 184.202025 107.823381 
L 184.541777 107.823381 
L 184.541777 107.572157 
L 185.088502 107.572157 
L 185.184778 106.567259 
L 185.247853 106.567259 
L 185.247853 106.316035 
L 185.386201 106.316035 
L 185.449712 105.813586 
L 185.806568 105.813586 
L 185.806568 105.562362 
L 186.020783 105.562362 
L 186.020783 105.059913 
L 186.93611 105.059913 
L 186.93611 104.808688 
L 187.479688 104.808688 
L 187.479688 104.557464 
L 187.668338 104.557464 
L 187.668338 104.30624 
L 188.142845 104.30624 
L 188.244387 103.552566 
L 188.356524 103.552566 
L 188.371252 102.296444 
L 188.845321 102.296444 
L 188.862836 101.793996 
L 188.984174 101.793996 
L 188.984174 101.542771 
L 189.219078 101.542771 
L 189.219078 101.291547 
L 189.551063 101.291547 
L 189.615254 100.789098 
L 189.774641 100.789098 
L 189.774641 100.537874 
L 189.906433 100.537874 
L 189.906433 100.286649 
L 190.95685 100.286649 
L 190.95685 100.035425 
L 191.202454 100.035425 
L 191.202454 99.7842 
L 191.366449 99.7842 
L 191.366449 99.532976 
L 191.922446 99.532976 
L 191.922446 99.281752 
L 192.177145 99.281752 
L 192.177145 99.030527 
L 192.674725 99.030527 
L 192.723959 98.528078 
L 192.897137 98.528078 
L 192.897137 98.276854 
L 193.13378 98.276854 
L 193.13378 98.02563 
L 193.305805 98.02563 
L 193.305805 97.774405 
L 193.433519 97.774405 
L 193.433519 97.523181 
L 193.582884 97.523181 
L 193.582884 97.271956 
L 193.992234 97.271956 
L 193.992234 97.020732 
L 194.217038 97.020732 
L 194.28799 96.267059 
L 194.452578 96.267059 
L 194.452578 95.262161 
L 194.848118 95.262161 
L 194.848118 95.010937 
L 195.057001 95.010937 
L 195.132794 94.508488 
L 195.339915 94.508488 
L 195.433175 93.754815 
L 195.4678 93.754815 
L 195.4678 93.50359 
L 195.854004 93.50359 
L 195.854004 93.252366 
L 196.030327 93.252366 
L 196.030327 93.001142 
L 196.391586 93.001142 
L 196.391586 92.749917 
L 196.599313 92.749917 
L 196.599313 92.498693 
L 196.950301 92.498693 
L 197.030987 91.996244 
L 197.111577 91.996244 
L 197.166356 91.493795 
L 197.576177 91.493795 
L 197.670292 90.740122 
L 197.781522 90.740122 
L 197.797436 90.237673 
L 197.978541 90.237673 
L 197.978541 89.735224 
L 198.145847 89.735224 
L 198.207257 89.232776 
L 198.760154 89.232776 
L 198.812071 87.976654 
L 199.158352 87.976654 
L 199.158352 87.725429 
L 199.395261 87.725429 
L 199.395261 87.474205 
L 199.520853 87.474205 
L 199.548632 86.469307 
L 199.782312 86.469307 
L 199.875572 85.966858 
L 199.958452 85.966858 
L 199.989054 85.46441 
L 200.413392 85.46441 
L 200.506652 84.961961 
L 200.700664 84.961961 
L 200.709045 83.957063 
L 201.76855 83.957063 
L 201.76855 83.705839 
L 201.882873 83.705839 
L 201.882873 83.454614 
L 202.037681 83.454614 
L 202.037681 83.20339 
L 202.164587 83.20339 
L 202.257847 82.700941 
L 202.470172 82.700941 
L 202.470172 82.198492 
L 202.588244 82.198492 
L 202.668761 81.696044 
L 202.879992 81.696044 
L 202.879992 81.193595 
L 203.219324 81.193595 
L 203.31846 80.691146 
L 203.649983 80.691146 
L 203.649983 80.439922 
L 203.837658 80.439922 
L 203.837658 80.188697 
L 204.059803 80.188697 
L 204.059803 79.937473 
L 204.419957 79.937473 
L 204.468738 79.435024 
L 204.726617 79.435024 
L 204.726617 79.1838 
L 204.97052 79.1838 
L 204.97052 78.932575 
L 205.086127 78.932575 
L 205.179387 77.927678 
L 205.446608 77.927678 
L 205.446608 77.676453 
L 206.219933 77.676453 
L 206.276526 76.92278 
L 206.359198 76.92278 
L 206.359198 76.671556 
L 206.996518 76.671556 
L 206.996518 76.420331 
L 207.341497 76.420331 
L 207.341497 75.917882 
L 207.89206 75.917882 
L 207.89206 75.415434 
L 208.357111 75.415434 
L 208.357111 75.164209 
L 208.521308 75.164209 
L 208.521308 74.912985 
L 208.932954 74.912985 
L 208.932954 74.159312 
L 209.071871 74.159312 
L 209.141473 73.405638 
L 209.359575 73.405638 
L 209.359575 73.154414 
L 209.676645 73.154414 
L 209.676645 72.90319 
L 209.866612 72.90319 
L 209.866612 72.651965 
L 210.321284 72.651965 
L 210.321284 72.400741 
L 210.442455 72.400741 
L 210.442455 71.647068 
L 210.869076 71.647068 
L 210.869076 71.395843 
L 211.186146 71.395843 
L 211.186146 71.144619 
L 212.719019 71.144619 
L 212.719019 70.893394 
L 213.938574 70.893394 
L 214.002173 70.390946 
L 214.21478 70.390946 
L 214.22852 69.637272 
L 214.999749 69.637272 
L 214.999749 69.386048 
L 215.337257 69.386048 
L 215.448075 65.868906 
L 216.427566 65.868906 
L 216.509251 65.366458 
L 217.567044 65.366458 
L 217.567044 65.115233 
L 219.076545 65.115233 
L 219.076545 64.864009 
L 219.598973 64.864009 
L 219.598973 64.612784 
L 219.918911 64.612784 
L 219.918911 64.36156 
L 220.131518 64.36156 
L 220.131518 64.110336 
L 220.519394 64.110336 
L 220.519394 63.859111 
L 221.108474 63.859111 
L 221.108474 63.607887 
L 221.324072 63.607887 
L 221.324072 63.356662 
L 222.421326 63.356662 
L 222.421326 63.105438 
L 222.833573 63.105438 
L 222.833573 62.854214 
L 223.609462 62.854214 
L 223.609462 62.602989 
L 223.822069 62.602989 
L 223.822069 62.351765 
L 224.837446 62.351765 
L 224.837446 62.10054 
L 225.151775 62.10054 
L 225.151775 61.849316 
L 225.364382 61.849316 
L 225.364382 61.598092 
L 225.723923 61.598092 
L 225.723923 61.095643 
L 226.333984 61.095643 
L 226.346947 60.593194 
L 226.54659 60.593194 
L 226.54659 60.341969 
L 227.098898 60.341969 
L 227.098898 59.085847 
L 227.233424 59.085847 
L 227.233424 58.583399 
L 227.647687 58.583399 
L 227.647687 58.332174 
L 228.002857 58.332174 
L 228.101093 57.829725 
L 228.3137 57.829725 
L 228.3137 57.578501 
L 228.510914 57.578501 
L 228.5787 56.573603 
L 228.723521 56.573603 
L 228.723521 56.322379 
L 229.005321 56.322379 
L 229.005321 56.071155 
L 229.251193 56.071155 
L 229.322391 55.317481 
L 230.245386 55.317481 
L 230.245386 55.066257 
L 230.717049 55.066257 
L 230.810309 54.563808 
L 230.929655 54.563808 
L 231.022915 54.061359 
L 231.914359 54.061359 
L 231.914359 53.307686 
L 232.281035 53.307686 
L 232.364765 52.805237 
L 232.455879 52.805237 
L 232.455879 52.554013 
L 232.972418 52.554013 
L 232.972418 52.302789 
L 233.185025 52.302789 
L 233.185025 52.051564 
L 233.40122 52.051564 
L 233.40122 51.80034 
L 233.522981 51.80034 
L 233.58432 51.297891 
L 233.654373 51.297891 
L 233.735588 50.795442 
L 234.645495 50.795442 
L 234.645495 50.544218 
L 234.772395 50.544218 
L 234.772395 50.292993 
L 234.985001 50.292993 
L 234.985001 50.041769 
L 235.303152 50.041769 
L 235.303152 49.790545 
L 235.471746 49.790545 
L 235.471746 49.53932 
L 235.864866 49.53932 
L 235.864866 49.288096 
L 236.547707 49.288096 
L 236.547707 49.036871 
L 236.85926 49.036871 
L 236.85926 48.785647 
L 237.21279 48.785647 
L 237.21279 48.534423 
L 237.682239 48.534423 
L 237.682239 48.283198 
L 238.449639 48.283198 
L 238.449639 48.031974 
L 239.244719 48.031974 
L 239.244719 47.780749 
L 239.956695 47.780749 
L 239.956695 47.529525 
L 240.529512 47.529525 
L 240.529512 47.278301 
L 240.969818 47.278301 
L 240.969818 47.027076 
L 241.774068 47.027076 
L 241.858627 46.524627 
L 242.133018 46.524627 
L 242.133018 46.273403 
L 242.775998 46.273403 
L 242.775998 46.022179 
L 243.676 46.022179 
L 243.676 45.268505 
L 244.483192 45.268505 
L 244.483192 45.017281 
L 245.162861 45.017281 
L 245.162861 44.766057 
L 245.279506 44.766057 
L 245.369669 44.012383 
L 246.466549 44.012383 
L 246.466549 43.761159 
L 246.863392 43.761159 
L 246.863392 43.509935 
L 247.084987 43.509935 
L 247.084987 43.25871 
L 248.008862 43.25871 
L 248.008862 43.007486 
L 248.309349 43.007486 
L 248.309349 42.756261 
L 248.688494 42.756261 
L 248.688494 42.505037 
L 248.902361 42.505037 
L 248.902361 42.253813 
L 249.191071 42.253813 
L 249.191071 42.002588 
L 250.505867 42.002588 
L 250.505867 41.751364 
L 250.95818 41.751364 
L 250.95818 41.500139 
L 251.368001 41.500139 
L 251.368001 41.248915 
L 251.678854 41.248915 
L 251.718336 40.746466 
L 253.535709 40.746466 
L 253.574136 40.244017 
L 253.667396 40.244017 
L 253.667396 39.992793 
L 255.829505 39.992793 
L 255.829505 39.741569 
L 256.380068 39.741569 
L 256.380068 39.490344 
L 257.629482 39.490344 
L 257.629482 39.23912 
L 259.745218 39.23912 
L 259.745218 38.987895 
L 262.891706 38.987895 
L 262.891706 38.736671 
L 264.116281 38.736671 
L 264.116281 38.485447 
L 264.560679 38.485447 
L 264.560679 38.234222 
L 266.300693 38.234222 
L 266.300693 37.982998 
L 267.707167 37.982998 
L 267.707167 36.726876 
L 268.118066 36.726876 
L 268.118066 36.475651 
L 269.91766 36.475651 
L 269.91766 35.470754 
L 271.116154 35.470754 
L 271.116154 35.219529 
L 272.014743 35.219529 
L 272.014743 34.214632 
L 272.933527 34.214632 
L 272.933527 33.963407 
L 274.009489 33.963407 
L 274.009489 32.95851 
L 275.911421 32.95851 
L 275.911421 31.953612 
L 276.998107 31.953612 
L 276.998107 31.702388 
L 280.144595 31.702388 
L 280.144595 31.451163 
L 281.137781 31.451163 
L 281.137781 30.446266 
L 282.741287 30.446266 
L 282.741287 29.441368 
L 283.553582 29.441368 
L 283.553582 29.190144 
L 285.370955 29.190144 
L 285.370955 28.938919 
L 285.77113 28.938919 
L 285.77113 27.934022 
L 288.591846 27.934022 
L 288.591846 27.431573 
L 290.802339 27.431573 
L 290.802339 27.180349 
L 294.894167 27.180349 
L 294.894167 26.929124 
L 296.796099 26.929124 
L 296.796099 26.6779 
L 300.353487 26.6779 
L 300.353487 25.673002 
L 302.02246 25.673002 
L 302.02246 25.421778 
L 303.625966 25.421778 
L 303.625966 25.170553 
L 305.168948 25.170553 
L 305.168948 23.411983 
L 306.655809 23.411983 
L 306.655809 23.160758 
L 307.379441 23.160758 
L 307.379441 22.407085 
L 311.47127 22.407085 
L 311.47127 21.653412 
L 313.373202 21.653412 
L 313.373202 20.899739 
L 316.930589 20.899739 
L 316.930589 20.648514 
L 317.606376 20.648514 
L 317.606376 19.643617 
L 318.599562 19.643617 
L 318.599562 18.889943 
L 319.141082 18.889943 
L 319.141082 18.638719 
L 320.203068 18.638719 
L 320.203068 17.885046 
L 321.238166 17.885046 
L 321.238166 17.633821 
L 323.232911 17.633821 
L 323.232911 16.628924 
L 325.134843 16.628924 
L 325.134843 16.377699 
L 326.053627 16.377699 
L 326.053627 16.126475 
L 330.361204 16.126475 
L 330.361204 15.875251 
L 331.96471 15.875251 
L 331.96471 15.624026 
L 334.994552 15.624026 
L 334.994552 15.372802 
L 337.815268 15.372802 
L 337.815268 14.619129 
L 338.491055 14.619129 
L 338.491055 14.367904 
L 342.630729 14.367904 
L 342.630729 13.614231 
L 345.706601 13.614231 
L 345.706601 13.363007 
L 346.282443 13.363007 
L 346.282443 12.609333 
L 346.709065 12.609333 
L 346.709065 12.358109 
L 347.026134 12.358109 
L 347.026134 12.106885 
L 349.576909 12.106885 
L 349.576909 11.85566 
L 350.068508 11.85566 
L 350.068508 11.604436 
L 351.288064 11.604436 
L 351.288064 11.353211 
L 352.349239 11.353211 
L 352.349239 11.101987 
L 354.39237 11.101987 
L 354.39237 10.850763 
L 354.916533 10.850763 
L 354.916533 10.599538 
L 355.068157 10.599538 
L 355.068157 9.845865 
L 356.948463 9.845865 
L 356.948463 9.594641 
L 358.673562 9.594641 
L 358.673562 9.343416 
L 361.846435 9.343416 
L 361.846435 9.092192 
L 362.186936 9.092192 
L 362.186936 8.840967 
L 363.073413 8.840967 
L 363.073413 8.338519 
L 364.056928 8.338519 
L 364.056928 8.087294 
L 366.829798 8.087294 
L 366.829798 7.83607 
L 368.148757 7.83607 
L 368.148757 7.584845 
L 370.050689 7.584845 
L 370.050689 7.333621 
L 375.277049 7.333621 
L 375.277049 7.082397 
L 376.880555 7.082397 
L 376.880555 6.831172 
L 379.910398 6.831172 
L 379.910398 6.579948 
L 394.492755 6.579948 
L 394.492755 6.328723 
L 399.308216 6.328723 
L 399.308216 6.077499 
L 411.745644 6.077499 
L 411.745644 5.826275 
L 453.192 5.826275 
L 453.192 5.826275 
" style="fill:none;stroke:#000000;stroke-linecap:square;stroke-width:3;"/>
   </g>
   <g id="line2d_52">
    <path clip-path="url(#p9b0839a27e)" style="fill:none;stroke:#000000;stroke-linecap:square;stroke-width:3;"/>
   </g>
   <g id="line2d_53">
    <path clip-path="url(#p9b0839a27e)" d="M 34.16 69.888497 
L 101.849053 69.888497 
L 101.849053 69.637272 
L 102.006907 69.637272 
L 102.006907 69.386048 
L 102.554646 69.386048 
L 102.554646 69.134824 
L 103.578083 69.134824 
L 103.578083 68.883599 
L 104.477771 68.883599 
L 104.477771 68.632375 
L 105.647362 68.632375 
L 105.647362 68.38115 
L 105.862983 68.38115 
L 105.862983 68.129926 
L 106.737671 68.129926 
L 106.737671 67.878702 
L 106.877765 67.878702 
L 106.877765 67.627477 
L 107.133364 67.627477 
L 107.133364 67.376253 
L 107.867968 67.376253 
L 107.867968 67.125028 
L 108.500093 67.125028 
L 108.567245 66.62258 
L 110.382673 66.62258 
L 110.382673 66.371355 
L 111.894741 66.371355 
L 111.894741 66.120131 
L 147.077389 66.120131 
L 147.077389 65.868906 
L 154.074643 65.868906 
L 154.074643 65.617682 
L 154.701194 65.617682 
L 154.701194 65.366458 
L 161.262048 65.366458 
L 161.262048 65.115233 
L 161.457235 65.115233 
L 161.457235 64.864009 
L 161.626762 64.864009 
L 161.698447 64.36156 
L 162.921123 64.36156 
L 162.921123 64.110336 
L 163.963636 64.110336 
L 163.963636 63.859111 
L 164.374936 63.859111 
L 164.374936 63.607887 
L 164.553081 63.607887 
L 164.553081 63.356662 
L 165.60595 63.356662 
L 165.60595 62.854214 
L 166.648813 62.854214 
L 166.648813 62.602989 
L 167.136097 62.602989 
L 167.136097 62.351765 
L 167.274923 62.351765 
L 167.274923 62.10054 
L 168.259301 62.10054 
L 168.259301 61.849316 
L 168.771682 61.849316 
L 168.771682 61.598092 
L 169.478406 61.598092 
L 169.478406 61.346867 
L 169.722519 61.346867 
L 169.722519 61.095643 
L 170.104653 61.095643 
L 170.104653 60.844418 
L 170.544928 60.844418 
L 170.544928 60.593194 
L 170.804583 60.593194 
L 170.804583 60.341969 
L 170.960889 60.341969 
L 170.960889 60.090745 
L 171.807447 60.090745 
L 171.807447 59.839521 
L 171.99874 59.839521 
L 171.99874 59.588296 
L 172.176885 59.588296 
L 172.176885 59.337072 
L 172.548044 59.337072 
L 172.548044 59.085847 
L 172.902837 59.085847 
L 172.902837 58.834623 
L 173.229755 58.834623 
L 173.229755 58.332174 
L 173.48697 58.332174 
L 173.48697 58.08095 
L 173.646067 58.08095 
L 173.747159 57.327277 
L 174.272176 57.327277 
L 174.272176 57.076052 
L 174.759902 57.076052 
L 174.759902 56.824828 
L 175.262129 56.824828 
L 175.262129 56.322379 
L 176.395487 56.322379 
L 176.47566 55.81993 
L 177.101907 55.81993 
L 177.105782 55.317481 
L 177.346324 55.317481 
L 177.346324 55.066257 
L 177.464116 55.066257 
L 177.464116 54.815033 
L 178.203864 54.815033 
L 178.203864 54.563808 
L 178.428388 54.563808 
L 178.428388 54.312584 
L 178.559595 54.312584 
L 178.559595 54.061359 
L 178.737739 54.061359 
L 178.737739 53.810135 
L 179.092685 53.810135 
L 179.092685 53.558911 
L 179.407788 53.558911 
L 179.407788 53.307686 
L 179.790609 53.307686 
L 179.900091 52.302789 
L 180.679788 52.302789 
L 180.679788 52.051564 
L 181.261182 52.051564 
L 181.370964 51.297891 
L 181.439327 51.297891 
L 181.439327 51.046667 
L 182.126166 51.046667 
L 182.126166 50.795442 
L 182.492197 50.795442 
L 182.492548 50.041769 
L 182.756472 50.041769 
L 182.756472 49.790545 
L 182.956341 49.790545 
L 182.956341 49.53932 
L 183.118657 49.53932 
L 183.118657 49.288096 
L 183.412744 49.288096 
L 183.412744 49.036871 
L 183.879734 49.036871 
L 183.94636 48.283198 
L 184.022344 48.283198 
L 184.124505 47.780749 
L 184.57247 47.780749 
L 184.57247 47.529525 
L 184.750614 47.529525 
L 184.750614 47.278301 
L 184.989242 47.278301 
L 184.989242 47.027076 
L 185.177374 47.027076 
L 185.201118 46.022179 
L 185.322141 46.022179 
L 185.322141 45.770954 
L 185.657929 45.770954 
L 185.657929 45.51973 
L 185.803484 45.51973 
L 185.803484 45.017281 
L 185.948387 45.017281 
L 185.948387 44.766057 
L 186.089939 44.766057 
L 186.089939 44.514832 
L 186.608766 44.514832 
L 186.707521 44.012383 
L 186.775953 44.012383 
L 186.775953 43.761159 
L 186.954098 43.761159 
L 186.954098 43.509935 
L 187.333631 43.509935 
L 187.4022 43.007486 
L 187.580345 43.007486 
L 187.69083 42.505037 
L 187.931818 42.505037 
L 188.006967 41.751364 
L 188.343106 41.751364 
L 188.343106 41.500139 
L 188.633214 41.500139 
L 188.633214 40.997691 
L 188.746571 40.997691 
L 188.746571 40.746466 
L 188.969216 40.746466 
L 188.969216 40.495242 
L 189.197037 40.495242 
L 189.293943 39.741569 
L 189.526269 39.741569 
L 189.537115 39.23912 
L 189.920053 39.23912 
L 189.920053 38.987895 
L 190.163361 38.987895 
L 190.200384 38.485447 
L 190.376007 38.485447 
L 190.409997 37.480549 
L 190.633406 37.480549 
L 190.633406 37.229325 
L 190.980082 37.229325 
L 191.002117 36.726876 
L 191.158226 36.726876 
L 191.172699 36.224427 
L 191.431398 36.224427 
L 191.503539 35.470754 
L 191.798946 35.470754 
L 191.798946 35.219529 
L 192.123537 35.219529 
L 192.211096 34.465856 
L 192.749783 34.465856 
L 192.811943 33.963407 
L 192.961545 33.963407 
L 192.961545 33.712183 
L 193.2056 33.712183 
L 193.2056 33.460959 
L 193.318584 33.460959 
L 193.318584 33.209734 
L 193.741243 33.209734 
L 193.831847 32.707285 
L 193.944693 32.707285 
L 194.047598 32.204837 
L 194.59713 32.204837 
L 194.59713 31.953612 
L 194.749625 31.953612 
L 194.749625 31.702388 
L 194.93642 31.702388 
L 194.93642 31.451163 
L 195.376828 31.451163 
L 195.376828 31.199939 
L 195.501411 31.199939 
L 195.547967 30.69749 
L 195.679556 30.69749 
L 195.679556 30.446266 
L 196.148177 30.446266 
L 196.236556 29.943817 
L 196.327665 29.943817 
L 196.390232 29.441368 
L 196.568377 29.441368 
L 196.630031 28.938919 
L 196.732425 28.938919 
L 196.774423 28.185246 
L 196.941131 28.185246 
L 196.941131 27.934022 
L 197.409729 27.934022 
L 197.41957 27.431573 
L 197.621246 27.431573 
L 197.723891 26.6779 
L 198.064393 26.6779 
L 198.064393 26.426675 
L 198.262572 26.426675 
L 198.262572 26.175451 
L 199.151393 26.175451 
L 199.256478 25.673002 
L 199.372798 25.673002 
L 199.372798 25.421778 
L 199.572607 25.421778 
L 199.642719 24.919329 
L 199.898157 24.919329 
L 199.898157 24.668105 
L 200.352305 24.668105 
L 200.352305 24.41688 
L 200.71029 24.41688 
L 200.786978 23.663207 
L 200.848994 23.663207 
L 200.888435 23.160758 
L 201.67833 23.160758 
L 201.737815 22.658309 
L 201.931058 22.658309 
L 201.941304 21.904636 
L 202.074386 21.904636 
L 202.074386 21.653412 
L 202.327896 21.653412 
L 202.327896 21.402187 
L 202.819879 21.402187 
L 202.819879 21.150963 
L 202.954006 21.150963 
L 202.954006 20.899739 
L 203.451158 20.899739 
L 203.471452 20.39729 
L 204.077268 20.39729 
L 204.077268 20.146065 
L 204.759563 20.146065 
L 204.759563 19.894841 
L 204.873634 19.894841 
L 204.873634 19.643617 
L 205.083036 19.643617 
L 205.157489 18.889943 
L 205.385673 18.889943 
L 205.385673 18.638719 
L 205.762456 18.638719 
L 205.783736 18.13627 
L 206.057874 18.13627 
L 206.057874 17.885046 
L 206.280751 17.885046 
L 206.280751 17.633821 
L 206.536849 17.633821 
L 206.536849 17.382597 
L 206.714994 17.382597 
L 206.714994 17.131373 
L 206.906998 17.131373 
L 206.906998 16.880148 
L 207.139938 16.880148 
L 207.139938 16.628924 
L 207.589156 16.628924 
L 207.589156 16.377699 
L 207.767863 16.377699 
L 207.767863 15.875251 
L 208.215403 15.875251 
L 208.215403 15.624026 
L 208.58192 15.624026 
L 208.675583 15.121577 
L 208.951474 15.121577 
L 208.951474 14.870353 
L 209.29801 14.870353 
L 209.361618 14.367904 
L 209.705182 14.367904 
L 209.705182 14.11668 
L 210.082514 14.11668 
L 210.082514 13.865455 
L 210.48488 13.865455 
L 210.48488 13.614231 
L 210.933595 13.614231 
L 211.013587 13.111782 
L 211.793285 13.111782 
L 211.884432 12.609333 
L 212.966496 12.609333 
L 212.966496 12.358109 
L 213.882947 12.358109 
L 213.882947 12.106885 
L 214.771768 12.106885 
L 214.771768 11.85566 
L 215.006209 11.85566 
L 215.006209 11.604436 
L 215.89503 11.604436 
L 215.909072 11.101987 
L 216.314614 11.101987 
L 216.314614 10.850763 
L 217.203435 10.850763 
L 217.203435 10.599538 
L 217.522064 10.599538 
L 217.522064 10.348314 
L 218.975876 10.348314 
L 218.975876 10.097089 
L 219.091827 10.097089 
L 219.154021 9.594641 
L 220.20689 9.594641 
L 220.215089 8.840967 
L 221.523493 8.840967 
L 221.523493 8.589743 
L 221.737038 8.589743 
L 221.737038 8.338519 
L 223.372622 8.338519 
L 223.372622 8.087294 
L 224.32346 8.087294 
L 224.32346 7.83607 
L 224.918385 7.83607 
L 224.918385 7.584845 
L 225.405523 7.584845 
L 225.405523 7.333621 
L 226.041647 7.333621 
L 226.041647 7.082397 
L 227.350052 7.082397 
L 227.350052 6.831172 
L 228.3481 6.831172 
L 228.3481 6.579948 
L 237.357412 6.579948 
L 237.357412 6.328723 
L 238.480674 6.328723 
L 238.480674 6.077499 
L 239.789079 6.077499 
L 239.789079 5.826275 
L 453.192 5.826275 
L 453.192 5.826275 
" style="fill:none;stroke:#00bfbf;stroke-linecap:square;stroke-width:3;"/>
   </g>
   <g id="line2d_54">
    <path clip-path="url(#p9b0839a27e)" style="fill:none;stroke:#00bfbf;stroke-linecap:square;stroke-width:3;"/>
   </g>
   <g id="line2d_55">
    <path clip-path="url(#p9b0839a27e)" d="M 34.16 62.351765 
L 98.827727 62.351765 
L 98.827727 62.10054 
L 107.94259 62.10054 
L 107.94259 61.849316 
L 109.828711 61.849316 
L 109.828711 61.598092 
L 112.044817 61.598092 
L 112.044817 61.346867 
L 115.467583 61.346867 
L 115.467583 61.095643 
L 115.842098 61.095643 
L 115.842098 60.844418 
L 115.966177 60.844418 
L 115.966177 60.593194 
L 116.139024 60.593194 
L 116.139024 60.341969 
L 117.862477 60.341969 
L 117.862477 60.090745 
L 118.280672 60.090745 
L 118.280672 59.839521 
L 118.763017 59.839521 
L 118.763017 59.588296 
L 118.943574 59.588296 
L 118.943574 59.337072 
L 119.825294 59.337072 
L 119.825294 59.085847 
L 119.975328 59.085847 
L 119.975328 58.834623 
L 120.754097 58.834623 
L 120.754097 58.583399 
L 121.373842 58.583399 
L 121.373842 58.332174 
L 122.830973 58.332174 
L 122.830973 58.08095 
L 123.045801 58.08095 
L 123.045801 57.829725 
L 123.213233 57.829725 
L 123.213233 57.578501 
L 124.553765 57.578501 
L 124.582446 57.076052 
L 124.95696 57.076052 
L 124.95696 56.824828 
L 125.08104 56.824828 
L 125.08104 56.573603 
L 125.841889 56.573603 
L 125.841889 56.322379 
L 126.341782 56.322379 
L 126.447907 55.81993 
L 126.629137 55.81993 
L 126.629137 55.568706 
L 126.97734 55.568706 
L 126.97734 55.317481 
L 127.140007 55.317481 
L 127.140007 55.066257 
L 128.684673 55.066257 
L 128.684673 54.815033 
L 128.940157 54.815033 
L 128.940157 54.563808 
L 129.059187 54.563808 
L 129.090191 54.061359 
L 129.183267 54.061359 
L 129.281655 53.558911 
L 129.764 53.558911 
L 129.86896 53.056462 
L 130.488705 53.056462 
L 130.488705 52.805237 
L 131.079567 52.805237 
L 131.079567 52.554013 
L 131.849134 52.554013 
L 131.945835 52.051564 
L 132.328095 52.051564 
L 132.328095 51.80034 
L 132.77888 51.80034 
L 132.77888 51.549115 
L 133.042384 51.549115 
L 133.153394 51.046667 
L 133.192417 51.046667 
L 133.277473 50.544218 
L 133.971187 50.544218 
L 133.971187 50.292993 
L 134.590932 50.292993 
L 134.590932 50.041769 
L 134.920528 50.041769 
L 134.920528 49.790545 
L 135.173774 49.790545 
L 135.173774 49.53932 
L 135.295042 49.53932 
L 135.402873 49.036871 
L 135.419121 49.036871 
L 135.456644 48.534423 
L 135.554749 48.534423 
L 135.554749 48.283198 
L 135.744 48.283198 
L 135.777387 47.780749 
L 135.901466 47.780749 
L 135.901466 47.529525 
L 136.048062 47.529525 
L 136.048062 47.278301 
L 136.430322 47.278301 
L 136.430322 47.027076 
L 136.56386 47.027076 
L 136.56386 46.775852 
L 136.842873 46.775852 
L 136.842873 46.524627 
L 137.13659 46.524627 
L 137.13659 46.273403 
L 137.286624 46.273403 
L 137.315421 45.770954 
L 137.44889 45.770954 
L 137.44889 45.51973 
L 137.797767 45.51973 
L 137.797767 45.268505 
L 138.065394 45.268505 
L 138.065394 45.017281 
L 138.685139 45.017281 
L 138.685139 44.766057 
L 139.278238 44.766057 
L 139.278238 44.514832 
L 139.428272 44.514832 
L 139.428272 44.263608 
L 139.558871 44.263608 
L 139.558871 44.012383 
L 139.760583 44.012383 
L 139.846227 43.509935 
L 139.910617 43.509935 
L 139.910617 43.25871 
L 140.142269 43.25871 
L 140.207042 42.756261 
L 140.524529 42.756261 
L 140.524529 42.505037 
L 140.689387 42.505037 
L 140.689387 42.253813 
L 140.826787 42.253813 
L 140.826787 42.002588 
L 140.963997 42.002588 
L 140.963997 41.751364 
L 141.193621 41.751364 
L 141.193621 41.500139 
L 141.309132 41.500139 
L 141.309132 41.248915 
L 141.568136 41.248915 
L 141.568136 40.997691 
L 141.692215 40.997691 
L 141.707581 40.495242 
L 142.283917 40.495242 
L 142.283917 40.244017 
L 142.481745 40.244017 
L 142.481745 39.992793 
L 142.666177 39.992793 
L 142.766262 39.490344 
L 142.856259 39.490344 
L 142.856259 39.23912 
L 142.980339 39.23912 
L 143.087763 38.736671 
L 143.148522 38.736671 
L 143.148522 38.485447 
L 143.462277 38.485447 
L 143.462277 38.234222 
L 143.586356 38.234222 
L 143.653078 37.480549 
L 143.940434 37.480549 
L 143.940434 37.229325 
L 144.876639 37.229325 
L 144.876639 36.9781 
L 145.066224 36.9781 
L 145.066224 36.726876 
L 145.482657 36.726876 
L 145.551332 36.224427 
L 145.701366 36.224427 
L 145.794726 35.721978 
L 146.082082 35.721978 
L 146.082082 35.470754 
L 146.277071 35.470754 
L 146.277071 35.219529 
L 146.480135 35.219529 
L 146.564427 34.717081 
L 146.839456 34.717081 
L 146.839456 34.465856 
L 146.98949 34.465856 
L 147.09988 33.963407 
L 147.445473 33.963407 
L 147.445473 33.712183 
L 147.564844 33.712183 
L 147.595507 33.209734 
L 147.768259 33.209734 
L 147.768259 32.95851 
L 148.374277 32.95851 
L 148.388004 32.456061 
L 148.557011 32.456061 
L 148.557011 32.204837 
L 148.939271 32.204837 
L 148.994022 31.702388 
L 149.160431 31.702388 
L 149.160431 31.451163 
L 149.845134 31.451163 
L 149.845134 31.199939 
L 150.227395 31.199939 
L 150.227395 30.948715 
L 150.451152 30.948715 
L 150.451152 30.69749 
L 150.833412 30.69749 
L 150.833412 30.446266 
L 151.302078 30.446266 
L 151.334128 29.943817 
L 151.538072 29.943817 
L 151.538072 29.692593 
L 151.784424 29.692593 
L 151.784424 29.441368 
L 152.06782 29.441368 
L 152.06782 29.190144 
L 152.355175 29.190144 
L 152.445016 28.687695 
L 152.708564 28.687695 
L 152.708564 28.436471 
L 153.203716 28.436471 
L 153.203716 28.185246 
L 153.355944 28.185246 
L 153.355944 27.934022 
L 153.57823 27.934022 
L 153.643299 27.431573 
L 153.70231 27.431573 
L 153.70231 27.180349 
L 153.961961 27.180349 
L 153.961961 26.929124 
L 154.249317 26.929124 
L 154.249317 26.6779 
L 155.59861 26.6779 
L 155.59861 26.426675 
L 155.76585 26.426675 
L 155.76585 26.175451 
L 157.561427 26.175451 
L 157.575172 25.673002 
L 157.711461 25.673002 
L 157.711461 25.421778 
L 158.347437 25.421778 
L 158.347437 25.170553 
L 158.49023 25.170553 
L 158.49023 24.919329 
L 158.721951 24.919329 
L 158.721951 24.668105 
L 158.84603 24.668105 
L 158.863296 24.165656 
L 159.109975 24.165656 
L 159.109975 23.914431 
L 159.469314 23.914431 
L 159.469314 23.663207 
L 160.567105 23.663207 
L 160.567105 23.411983 
L 160.742331 23.411983 
L 160.742331 23.160758 
L 160.949365 23.160758 
L 160.949365 22.909534 
L 162.335111 22.909534 
L 162.335111 22.658309 
L 162.539055 22.658309 
L 162.539055 22.407085 
L 162.705147 22.407085 
L 162.705147 22.155861 
L 162.855181 22.155861 
L 162.855181 21.904636 
L 163.446 21.904636 
L 163.446 21.653412 
L 163.633951 21.653412 
L 163.633951 21.402187 
L 164.077914 21.402187 
L 164.077914 21.150963 
L 164.253696 21.150963 
L 164.253696 20.899739 
L 164.36527 20.899739 
L 164.36527 20.648514 
L 165.710826 20.648514 
L 165.710826 20.39729 
L 166.093086 20.39729 
L 166.093086 20.146065 
L 166.766834 20.146065 
L 166.766834 19.894841 
L 167.973984 19.894841 
L 167.973984 19.643617 
L 168.177928 19.643617 
L 168.177928 19.392392 
L 168.348498 19.392392 
L 168.348498 19.141168 
L 168.472577 19.141168 
L 168.552442 18.638719 
L 168.676522 18.638719 
L 168.676522 18.387495 
L 169.084872 18.387495 
L 169.084872 18.13627 
L 169.221635 18.13627 
L 169.221635 17.885046 
L 169.459386 17.885046 
L 169.508991 17.382597 
L 169.583466 17.382597 
L 169.585267 16.880148 
L 170.368877 16.880148 
L 170.368877 16.628924 
L 170.572822 16.628924 
L 170.572822 16.377699 
L 171.479766 16.377699 
L 171.479766 16.126475 
L 172.331694 16.126475 
L 172.405706 15.624026 
L 172.481728 15.624026 
L 172.535638 15.121577 
L 172.685672 15.121577 
L 172.78022 14.619129 
L 172.9043 14.619129 
L 172.9043 14.367904 
L 173.260498 14.367904 
L 173.260498 14.11668 
L 173.442583 14.11668 
L 173.464442 13.614231 
L 173.592616 13.614231 
L 173.592616 13.363007 
L 173.880243 13.363007 
L 173.880243 13.111782 
L 174.084187 13.111782 
L 174.084187 12.860558 
L 174.371386 12.860558 
L 174.371386 12.609333 
L 174.728988 12.609333 
L 174.8006 12.106885 
L 174.991131 12.106885 
L 174.991131 11.85566 
L 175.337373 11.85566 
L 175.337373 11.604436 
L 175.541317 11.604436 
L 175.541317 11.353211 
L 175.719633 11.353211 
L 175.719633 11.101987 
L 175.923577 11.101987 
L 175.923577 10.850763 
L 176.448261 10.850763 
L 176.448261 10.599538 
L 176.763417 10.599538 
L 176.830521 10.097089 
L 176.913451 10.097089 
L 176.913451 9.845865 
L 177.69222 9.845865 
L 177.69222 9.594641 
L 178.311965 9.594641 
L 178.311965 9.343416 
L 178.848182 9.343416 
L 178.848182 9.092192 
L 179.052126 9.092192 
L 179.135538 8.589743 
L 179.339482 8.589743 
L 179.339482 8.338519 
L 179.769095 8.338519 
L 179.769095 8.087294 
L 179.95907 8.087294 
L 179.95907 7.83607 
L 180.151356 7.83607 
L 180.246426 7.333621 
L 183.279904 7.333621 
L 183.279904 7.082397 
L 183.56726 7.082397 
L 183.56726 6.831172 
L 184.355534 6.831172 
L 184.355534 6.579948 
L 184.559479 6.579948 
L 184.559479 6.328723 
L 185.466423 6.328723 
L 185.466423 6.077499 
L 188.787257 6.077499 
L 188.787257 5.826275 
L 453.192 5.826275 
L 453.192 5.826275 
" style="fill:none;stroke:#bf00bf;stroke-linecap:square;stroke-width:3;"/>
   </g>
   <g id="line2d_56">
    <path clip-path="url(#p9b0839a27e)" style="fill:none;stroke:#bf00bf;stroke-linecap:square;stroke-width:3;"/>
   </g>
   <g id="line2d_57">
    <path clip-path="url(#p9b0839a27e)" d="M 36.652591 5.826275 
L 34.16 5.826275 
L 453.192 5.826275 
L 461.8 5.826275 
" style="fill:none;stroke:#ff0000;stroke-linecap:square;stroke-width:3;"/>
   </g>
   <g id="line2d_58">
    <path clip-path="url(#p9b0839a27e)" d="M 243.676 291.28 
L 243.676 3 
" style="fill:none;stroke:#000000;stroke-linecap:square;stroke-width:1.5;"/>
   </g>
   <g id="line2d_59">
    <path clip-path="url(#p9b0839a27e)" d="M 34.16 147.14 
L 453.192 147.14 
" style="fill:none;stroke:#000000;stroke-dasharray:2,3.3;stroke-dashoffset:0;stroke-width:2;"/>
   </g>
   <g id="patch_3">
    <path d="M 34.16 291.28 
L 34.16 3 
" style="fill:none;stroke:#000000;stroke-linecap:square;stroke-linejoin:miter;stroke-width:0.8;"/>
   </g>
   <g id="patch_4">
    <path d="M 453.192 291.28 
L 453.192 3 
" style="fill:none;stroke:#000000;stroke-linecap:square;stroke-linejoin:miter;stroke-width:0.8;"/>
   </g>
   <g id="patch_5">
    <path d="M 34.16 291.28 
L 453.192 291.28 
" style="fill:none;stroke:#000000;stroke-linecap:square;stroke-linejoin:miter;stroke-width:0.8;"/>
   </g>
   <g id="patch_6">
    <path d="M 34.16 3 
L 453.192 3 
" style="fill:none;stroke:#000000;stroke-linecap:square;stroke-linejoin:miter;stroke-width:0.8;"/>
   </g>
   <g id="text_5">
    <!-- f10-f14,5-D -->
    <g transform="translate(330.91761 285.5144)scale(0.2 -0.2)">
     <defs>
      <path d="M 37.796875 64.3125 
L 12.890625 25.390625 
L 37.796875 25.390625 
z
M 35.203125 72.90625 
L 47.609375 72.90625 
L 47.609375 25.390625 
L 58.015625 25.390625 
L 58.015625 17.1875 
L 47.609375 17.1875 
L 47.609375 0 
L 37.796875 0 
L 37.796875 17.1875 
L 4.890625 17.1875 
L 4.890625 26.703125 
z
" id="DejaVuSans-52"/>
      <path d="M 11.71875 12.40625 
L 22.015625 12.40625 
L 22.015625 4 
L 14.015625 -11.625 
L 7.71875 -11.625 
L 11.71875 4 
z
" id="DejaVuSans-44"/>
      <path d="M 10.796875 72.90625 
L 49.515625 72.90625 
L 49.515625 64.59375 
L 19.828125 64.59375 
L 19.828125 46.734375 
Q 21.96875 47.46875 24.109375 47.828125 
Q 26.265625 48.1875 28.421875 48.1875 
Q 40.625 48.1875 47.75 41.5 
Q 54.890625 34.8125 54.890625 23.390625 
Q 54.890625 11.625 47.5625 5.09375 
Q 40.234375 -1.421875 26.90625 -1.421875 
Q 22.3125 -1.421875 17.546875 -0.640625 
Q 12.796875 0.140625 7.71875 1.703125 
L 7.71875 11.625 
Q 12.109375 9.234375 16.796875 8.0625 
Q 21.484375 6.890625 26.703125 6.890625 
Q 35.15625 6.890625 40.078125 11.328125 
Q 45.015625 15.765625 45.015625 23.390625 
Q 45.015625 31 40.078125 35.4375 
Q 35.15625 39.890625 26.703125 39.890625 
Q 22.75 39.890625 18.8125 39.015625 
Q 14.890625 38.140625 10.796875 36.28125 
z
" id="DejaVuSans-53"/>
      <path d="M 19.671875 64.796875 
L 19.671875 8.109375 
L 31.59375 8.109375 
Q 46.6875 8.109375 53.6875 14.9375 
Q 60.6875 21.78125 60.6875 36.53125 
Q 60.6875 51.171875 53.6875 57.984375 
Q 46.6875 64.796875 31.59375 64.796875 
z
M 9.8125 72.90625 
L 30.078125 72.90625 
Q 51.265625 72.90625 61.171875 64.09375 
Q 71.09375 55.28125 71.09375 36.53125 
Q 71.09375 17.671875 61.125 8.828125 
Q 51.171875 0 30.078125 0 
L 9.8125 0 
z
" id="DejaVuSans-68"/>
     </defs>
     <use xlink:href="#DejaVuSans-102"/>
     <use x="35.205078" xlink:href="#DejaVuSans-49"/>
     <use x="98.828125" xlink:href="#DejaVuSans-48"/>
     <use x="162.451172" xlink:href="#DejaVuSans-45"/>
     <use x="198.535156" xlink:href="#DejaVuSans-102"/>
     <use x="233.740234" xlink:href="#DejaVuSans-49"/>
     <use x="297.363281" xlink:href="#DejaVuSans-52"/>
     <use x="360.986328" xlink:href="#DejaVuSans-44"/>
     <use x="392.773438" xlink:href="#DejaVuSans-53"/>
     <use x="456.396484" xlink:href="#DejaVuSans-45"/>
     <use x="492.480469" xlink:href="#DejaVuSans-68"/>
    </g>
   </g>
   <g id="text_6">
    <!-- v2.4 -->
    <g style="fill:#808080;" transform="translate(232.765062 286.317512)scale(0.1 -0.1)">
     <defs>
      <path d="M 19.1875 8.296875 
L 53.609375 8.296875 
L 53.609375 0 
L 7.328125 0 
L 7.328125 8.296875 
Q 12.9375 14.109375 22.625 23.890625 
Q 32.328125 33.6875 34.8125 36.53125 
Q 39.546875 41.84375 41.421875 45.53125 
Q 43.3125 49.21875 43.3125 52.78125 
Q 43.3125 58.59375 39.234375 62.25 
Q 35.15625 65.921875 28.609375 65.921875 
Q 23.96875 65.921875 18.8125 64.3125 
Q 13.671875 62.703125 7.8125 59.421875 
L 7.8125 69.390625 
Q 13.765625 71.78125 18.9375 73 
Q 24.125 74.21875 28.421875 74.21875 
Q 39.75 74.21875 46.484375 68.546875 
Q 53.21875 62.890625 53.21875 53.421875 
Q 53.21875 48.921875 51.53125 44.890625 
Q 49.859375 40.875 45.40625 35.40625 
Q 44.1875 33.984375 37.640625 27.21875 
Q 31.109375 20.453125 19.1875 8.296875 
z
" id="DejaVuSans-50"/>
      <path d="M 10.6875 12.40625 
L 21 12.40625 
L 21 0 
L 10.6875 0 
z
" id="DejaVuSans-46"/>
     </defs>
     <use xlink:href="#DejaVuSans-118"/>
     <use x="59.179688" xlink:href="#DejaVuSans-50"/>
     <use x="122.802734" xlink:href="#DejaVuSans-46"/>
     <use x="154.589844" xlink:href="#DejaVuSans-52"/>
    </g>
   </g>
   <g id="legend_1">
    <g id="patch_7">
     <path d="M 309.970125 281.28 
L 439.192 281.28 
Q 443.192 281.28 443.192 277.28 
L 443.192 161.855 
Q 443.192 157.855 439.192 157.855 
L 309.970125 157.855 
Q 305.970125 157.855 305.970125 161.855 
L 305.970125 277.28 
Q 305.970125 281.28 309.970125 281.28 
z
" style="fill:#ffffff;opacity:0.2;stroke:#cccccc;stroke-linejoin:miter;"/>
    </g>
    <g id="line2d_60">
     <path d="M 313.970125 174.051875 
L 353.970125 174.051875 
" style="fill:none;stroke:#000000;stroke-linecap:square;stroke-width:3;"/>
    </g>
    <g id="line2d_61"/>
    <g id="text_7">
     <!-- 1: 5/5 -->
     <g transform="translate(369.970125 181.051875)scale(0.2 -0.2)">
      <defs>
       <path d="M 11.71875 12.40625 
L 22.015625 12.40625 
L 22.015625 0 
L 11.71875 0 
z
M 11.71875 51.703125 
L 22.015625 51.703125 
L 22.015625 39.3125 
L 11.71875 39.3125 
z
" id="DejaVuSans-58"/>
       <path d="M 25.390625 72.90625 
L 33.6875 72.90625 
L 8.296875 -9.28125 
L 0 -9.28125 
z
" id="DejaVuSans-47"/>
      </defs>
      <use xlink:href="#DejaVuSans-49"/>
      <use x="63.623047" xlink:href="#DejaVuSans-58"/>
      <use x="97.314453" xlink:href="#DejaVuSans-32"/>
      <use x="129.101562" xlink:href="#DejaVuSans-53"/>
      <use x="192.724609" xlink:href="#DejaVuSans-47"/>
      <use x="226.416016" xlink:href="#DejaVuSans-53"/>
     </g>
    </g>
    <g id="line2d_62">
     <path d="M 313.970125 203.408125 
L 353.970125 203.408125 
" style="fill:none;stroke:#00bfbf;stroke-linecap:square;stroke-width:3;"/>
    </g>
    <g id="line2d_63"/>
    <g id="text_8">
     <!-- -1: 5/3 -->
     <g transform="translate(369.970125 210.408125)scale(0.2 -0.2)">
      <defs>
       <path d="M 40.578125 39.3125 
Q 47.65625 37.796875 51.625 33 
Q 55.609375 28.21875 55.609375 21.1875 
Q 55.609375 10.40625 48.1875 4.484375 
Q 40.765625 -1.421875 27.09375 -1.421875 
Q 22.515625 -1.421875 17.65625 -0.515625 
Q 12.796875 0.390625 7.625 2.203125 
L 7.625 11.71875 
Q 11.71875 9.328125 16.59375 8.109375 
Q 21.484375 6.890625 26.8125 6.890625 
Q 36.078125 6.890625 40.9375 10.546875 
Q 45.796875 14.203125 45.796875 21.1875 
Q 45.796875 27.640625 41.28125 31.265625 
Q 36.765625 34.90625 28.71875 34.90625 
L 20.21875 34.90625 
L 20.21875 43.015625 
L 29.109375 43.015625 
Q 36.375 43.015625 40.234375 45.921875 
Q 44.09375 48.828125 44.09375 54.296875 
Q 44.09375 59.90625 40.109375 62.90625 
Q 36.140625 65.921875 28.71875 65.921875 
Q 24.65625 65.921875 20.015625 65.03125 
Q 15.375 64.15625 9.8125 62.3125 
L 9.8125 71.09375 
Q 15.4375 72.65625 20.34375 73.4375 
Q 25.25 74.21875 29.59375 74.21875 
Q 40.828125 74.21875 47.359375 69.109375 
Q 53.90625 64.015625 53.90625 55.328125 
Q 53.90625 49.265625 50.4375 45.09375 
Q 46.96875 40.921875 40.578125 39.3125 
z
" id="DejaVuSans-51"/>
      </defs>
      <use xlink:href="#DejaVuSans-45"/>
      <use x="36.083984" xlink:href="#DejaVuSans-49"/>
      <use x="99.707031" xlink:href="#DejaVuSans-58"/>
      <use x="133.398438" xlink:href="#DejaVuSans-32"/>
      <use x="165.185547" xlink:href="#DejaVuSans-53"/>
      <use x="228.808594" xlink:href="#DejaVuSans-47"/>
      <use x="262.5" xlink:href="#DejaVuSans-51"/>
     </g>
    </g>
    <g id="line2d_64">
     <path d="M 313.970125 232.764375 
L 353.970125 232.764375 
" style="fill:none;stroke:#bf00bf;stroke-linecap:square;stroke-width:3;"/>
    </g>
    <g id="line2d_65"/>
    <g id="text_9">
     <!-- -4: 5/1 -->
     <g transform="translate(369.970125 239.764375)scale(0.2 -0.2)">
      <use xlink:href="#DejaVuSans-45"/>
      <use x="36.083984" xlink:href="#DejaVuSans-52"/>
      <use x="99.707031" xlink:href="#DejaVuSans-58"/>
      <use x="133.398438" xlink:href="#DejaVuSans-32"/>
      <use x="165.185547" xlink:href="#DejaVuSans-53"/>
      <use x="228.808594" xlink:href="#DejaVuSans-47"/>
      <use x="262.5" xlink:href="#DejaVuSans-49"/>
     </g>
    </g>
    <g id="line2d_66">
     <path d="M 313.970125 262.120625 
L 353.970125 262.120625 
" style="fill:none;stroke:#ff0000;stroke-linecap:square;stroke-width:3;"/>
    </g>
    <g id="line2d_67"/>
    <g id="text_10">
     <!-- -8: 5/0 -->
     <g transform="translate(369.970125 269.120625)scale(0.2 -0.2)">
      <defs>
       <path d="M 31.78125 34.625 
Q 24.75 34.625 20.71875 30.859375 
Q 16.703125 27.09375 16.703125 20.515625 
Q 16.703125 13.921875 20.71875 10.15625 
Q 24.75 6.390625 31.78125 6.390625 
Q 38.8125 6.390625 42.859375 10.171875 
Q 46.921875 13.96875 46.921875 20.515625 
Q 46.921875 27.09375 42.890625 30.859375 
Q 38.875 34.625 31.78125 34.625 
z
M 21.921875 38.8125 
Q 15.578125 40.375 12.03125 44.71875 
Q 8.5 49.078125 8.5 55.328125 
Q 8.5 64.0625 14.71875 69.140625 
Q 20.953125 74.21875 31.78125 74.21875 
Q 42.671875 74.21875 48.875 69.140625 
Q 55.078125 64.0625 55.078125 55.328125 
Q 55.078125 49.078125 51.53125 44.71875 
Q 48 40.375 41.703125 38.8125 
Q 48.828125 37.15625 52.796875 32.3125 
Q 56.78125 27.484375 56.78125 20.515625 
Q 56.78125 9.90625 50.3125 4.234375 
Q 43.84375 -1.421875 31.78125 -1.421875 
Q 19.734375 -1.421875 13.25 4.234375 
Q 6.78125 9.90625 6.78125 20.515625 
Q 6.78125 27.484375 10.78125 32.3125 
Q 14.796875 37.15625 21.921875 38.8125 
z
M 18.3125 54.390625 
Q 18.3125 48.734375 21.84375 45.5625 
Q 25.390625 42.390625 31.78125 42.390625 
Q 38.140625 42.390625 41.71875 45.5625 
Q 45.3125 48.734375 45.3125 54.390625 
Q 45.3125 60.0625 41.71875 63.234375 
Q 38.140625 66.40625 31.78125 66.40625 
Q 25.390625 66.40625 21.84375 63.234375 
Q 18.3125 60.0625 18.3125 54.390625 
z
" id="DejaVuSans-56"/>
      </defs>
      <use xlink:href="#DejaVuSans-45"/>
      <use x="36.083984" xlink:href="#DejaVuSans-56"/>
      <use x="99.707031" xlink:href="#DejaVuSans-58"/>
      <use x="133.398438" xlink:href="#DejaVuSans-32"/>
      <use x="165.185547" xlink:href="#DejaVuSans-53"/>
      <use x="228.808594" xlink:href="#DejaVuSans-47"/>
      <use x="262.5" xlink:href="#DejaVuSans-48"/>
     </g>
    </g>
   </g>
  </g>
 </g>
 <defs>
  <clipPath id="p9b0839a27e">
   <rect height="288.28" width="419.032" x="34.16" y="3"/>
  </clipPath>
 </defs>
</svg>
