<?xml version="1.0" encoding="utf-8" standalone="no"?>
<!DOCTYPE svg PUBLIC "-//W3C//DTD SVG 1.1//EN"
  "http://www.w3.org/Graphics/SVG/1.1/DTD/svg11.dtd">
<!-- Created with matplotlib (https://matplotlib.org/) -->
<svg height="345.6pt" version="1.1" viewBox="0 0 460.8 345.6" width="460.8pt" xmlns="http://www.w3.org/2000/svg" xmlns:xlink="http://www.w3.org/1999/xlink">
 <metadata>
  <rdf:RDF xmlns:cc="http://creativecommons.org/ns#" xmlns:dc="http://purl.org/dc/elements/1.1/" xmlns:rdf="http://www.w3.org/1999/02/22-rdf-syntax-ns#">
   <cc:Work>
    <dc:type rdf:resource="http://purl.org/dc/dcmitype/StillImage"/>
    <dc:date>2021-04-27T05:12:59.179904</dc:date>
    <dc:format>image/svg+xml</dc:format>
    <dc:creator>
     <cc:Agent>
      <dc:title>Matplotlib v3.3.4, https://matplotlib.org/</dc:title>
     </cc:Agent>
    </dc:creator>
   </cc:Work>
  </rdf:RDF>
 </metadata>
 <defs>
  <style type="text/css">*{stroke-linecap:butt;stroke-linejoin:round;}</style>
 </defs>
 <g id="figure_1">
  <g id="patch_1">
   <path d="M 0 345.6 
L 460.8 345.6 
L 460.8 0 
L 0 0 
z
" style="fill:#ffffff;"/>
  </g>
  <g id="axes_1">
   <g id="patch_2">
    <path d="M 34.16 291.28 
L 453.192 291.28 
L 453.192 3 
L 34.16 3 
z
" style="fill:#ffffff;"/>
   </g>
   <g id="matplotlib.axis_1">
    <g id="xtick_1">
     <g id="line2d_1">
      <path clip-path="url(#ped7e358f8d)" d="M 135.414812 291.28 
L 135.414812 3 
" style="fill:none;stroke:#b0b0b0;stroke-linecap:square;stroke-width:0.8;"/>
     </g>
     <g id="line2d_2">
      <defs>
       <path d="M 0 0 
L 0 3.5 
" id="m6cf80de2c9" style="stroke:#000000;stroke-width:0.8;"/>
      </defs>
      <g>
       <use style="stroke:#000000;stroke-width:0.8;" x="135.414812" xlink:href="#m6cf80de2c9" y="291.28"/>
      </g>
     </g>
     <g id="text_1">
      <!-- -2 -->
      <g transform="translate(125.444499 313.476875)scale(0.2 -0.2)">
       <defs>
        <path d="M 4.890625 31.390625 
L 31.203125 31.390625 
L 31.203125 23.390625 
L 4.890625 23.390625 
z
" id="DejaVuSans-45"/>
        <path d="M 19.1875 8.296875 
L 53.609375 8.296875 
L 53.609375 0 
L 7.328125 0 
L 7.328125 8.296875 
Q 12.9375 14.109375 22.625 23.890625 
Q 32.328125 33.6875 34.8125 36.53125 
Q 39.546875 41.84375 41.421875 45.53125 
Q 43.3125 49.21875 43.3125 52.78125 
Q 43.3125 58.59375 39.234375 62.25 
Q 35.15625 65.921875 28.609375 65.921875 
Q 23.96875 65.921875 18.8125 64.3125 
Q 13.671875 62.703125 7.8125 59.421875 
L 7.8125 69.390625 
Q 13.765625 71.78125 18.9375 73 
Q 24.125 74.21875 28.421875 74.21875 
Q 39.75 74.21875 46.484375 68.546875 
Q 53.21875 62.890625 53.21875 53.421875 
Q 53.21875 48.921875 51.53125 44.890625 
Q 49.859375 40.875 45.40625 35.40625 
Q 44.1875 33.984375 37.640625 27.21875 
Q 31.109375 20.453125 19.1875 8.296875 
z
" id="DejaVuSans-50"/>
       </defs>
       <use xlink:href="#DejaVuSans-45"/>
       <use x="36.083984" xlink:href="#DejaVuSans-50"/>
      </g>
     </g>
    </g>
    <g id="xtick_2">
     <g id="line2d_3">
      <path clip-path="url(#ped7e358f8d)" d="M 243.676 291.28 
L 243.676 3 
" style="fill:none;stroke:#b0b0b0;stroke-linecap:square;stroke-width:0.8;"/>
     </g>
     <g id="line2d_4">
      <g>
       <use style="stroke:#000000;stroke-width:0.8;" x="243.676" xlink:href="#m6cf80de2c9" y="291.28"/>
      </g>
     </g>
     <g id="text_2">
      <!-- 0 -->
      <g transform="translate(237.3135 313.476875)scale(0.2 -0.2)">
       <defs>
        <path d="M 31.78125 66.40625 
Q 24.171875 66.40625 20.328125 58.90625 
Q 16.5 51.421875 16.5 36.375 
Q 16.5 21.390625 20.328125 13.890625 
Q 24.171875 6.390625 31.78125 6.390625 
Q 39.453125 6.390625 43.28125 13.890625 
Q 47.125 21.390625 47.125 36.375 
Q 47.125 51.421875 43.28125 58.90625 
Q 39.453125 66.40625 31.78125 66.40625 
z
M 31.78125 74.21875 
Q 44.046875 74.21875 50.515625 64.515625 
Q 56.984375 54.828125 56.984375 36.375 
Q 56.984375 17.96875 50.515625 8.265625 
Q 44.046875 -1.421875 31.78125 -1.421875 
Q 19.53125 -1.421875 13.0625 8.265625 
Q 6.59375 17.96875 6.59375 36.375 
Q 6.59375 54.828125 13.0625 64.515625 
Q 19.53125 74.21875 31.78125 74.21875 
z
" id="DejaVuSans-48"/>
       </defs>
       <use xlink:href="#DejaVuSans-48"/>
      </g>
     </g>
    </g>
    <g id="xtick_3">
     <g id="line2d_5">
      <path clip-path="url(#ped7e358f8d)" d="M 351.937188 291.28 
L 351.937188 3 
" style="fill:none;stroke:#b0b0b0;stroke-linecap:square;stroke-width:0.8;"/>
     </g>
     <g id="line2d_6">
      <g>
       <use style="stroke:#000000;stroke-width:0.8;" x="351.937188" xlink:href="#m6cf80de2c9" y="291.28"/>
      </g>
     </g>
     <g id="text_3">
      <!-- 2 -->
      <g transform="translate(345.574688 313.476875)scale(0.2 -0.2)">
       <use xlink:href="#DejaVuSans-50"/>
      </g>
     </g>
    </g>
    <g id="text_4">
     <!-- log10 of FEvals ratio -->
     <g transform="translate(141.371312 336.833125)scale(0.2 -0.2)">
      <defs>
       <path d="M 9.421875 75.984375 
L 18.40625 75.984375 
L 18.40625 0 
L 9.421875 0 
z
" id="DejaVuSans-108"/>
       <path d="M 30.609375 48.390625 
Q 23.390625 48.390625 19.1875 42.75 
Q 14.984375 37.109375 14.984375 27.296875 
Q 14.984375 17.484375 19.15625 11.84375 
Q 23.34375 6.203125 30.609375 6.203125 
Q 37.796875 6.203125 41.984375 11.859375 
Q 46.1875 17.53125 46.1875 27.296875 
Q 46.1875 37.015625 41.984375 42.703125 
Q 37.796875 48.390625 30.609375 48.390625 
z
M 30.609375 56 
Q 42.328125 56 49.015625 48.375 
Q 55.71875 40.765625 55.71875 27.296875 
Q 55.71875 13.875 49.015625 6.21875 
Q 42.328125 -1.421875 30.609375 -1.421875 
Q 18.84375 -1.421875 12.171875 6.21875 
Q 5.515625 13.875 5.515625 27.296875 
Q 5.515625 40.765625 12.171875 48.375 
Q 18.84375 56 30.609375 56 
z
" id="DejaVuSans-111"/>
       <path d="M 45.40625 27.984375 
Q 45.40625 37.75 41.375 43.109375 
Q 37.359375 48.484375 30.078125 48.484375 
Q 22.859375 48.484375 18.828125 43.109375 
Q 14.796875 37.75 14.796875 27.984375 
Q 14.796875 18.265625 18.828125 12.890625 
Q 22.859375 7.515625 30.078125 7.515625 
Q 37.359375 7.515625 41.375 12.890625 
Q 45.40625 18.265625 45.40625 27.984375 
z
M 54.390625 6.78125 
Q 54.390625 -7.171875 48.1875 -13.984375 
Q 42 -20.796875 29.203125 -20.796875 
Q 24.46875 -20.796875 20.265625 -20.09375 
Q 16.0625 -19.390625 12.109375 -17.921875 
L 12.109375 -9.1875 
Q 16.0625 -11.328125 19.921875 -12.34375 
Q 23.78125 -13.375 27.78125 -13.375 
Q 36.625 -13.375 41.015625 -8.765625 
Q 45.40625 -4.15625 45.40625 5.171875 
L 45.40625 9.625 
Q 42.625 4.78125 38.28125 2.390625 
Q 33.9375 0 27.875 0 
Q 17.828125 0 11.671875 7.65625 
Q 5.515625 15.328125 5.515625 27.984375 
Q 5.515625 40.671875 11.671875 48.328125 
Q 17.828125 56 27.875 56 
Q 33.9375 56 38.28125 53.609375 
Q 42.625 51.21875 45.40625 46.390625 
L 45.40625 54.6875 
L 54.390625 54.6875 
z
" id="DejaVuSans-103"/>
       <path d="M 12.40625 8.296875 
L 28.515625 8.296875 
L 28.515625 63.921875 
L 10.984375 60.40625 
L 10.984375 69.390625 
L 28.421875 72.90625 
L 38.28125 72.90625 
L 38.28125 8.296875 
L 54.390625 8.296875 
L 54.390625 0 
L 12.40625 0 
z
" id="DejaVuSans-49"/>
       <path id="DejaVuSans-32"/>
       <path d="M 37.109375 75.984375 
L 37.109375 68.5 
L 28.515625 68.5 
Q 23.6875 68.5 21.796875 66.546875 
Q 19.921875 64.59375 19.921875 59.515625 
L 19.921875 54.6875 
L 34.71875 54.6875 
L 34.71875 47.703125 
L 19.921875 47.703125 
L 19.921875 0 
L 10.890625 0 
L 10.890625 47.703125 
L 2.296875 47.703125 
L 2.296875 54.6875 
L 10.890625 54.6875 
L 10.890625 58.5 
Q 10.890625 67.625 15.140625 71.796875 
Q 19.390625 75.984375 28.609375 75.984375 
z
" id="DejaVuSans-102"/>
       <path d="M 9.8125 72.90625 
L 51.703125 72.90625 
L 51.703125 64.59375 
L 19.671875 64.59375 
L 19.671875 43.109375 
L 48.578125 43.109375 
L 48.578125 34.8125 
L 19.671875 34.8125 
L 19.671875 0 
L 9.8125 0 
z
" id="DejaVuSans-70"/>
       <path d="M 9.8125 72.90625 
L 55.90625 72.90625 
L 55.90625 64.59375 
L 19.671875 64.59375 
L 19.671875 43.015625 
L 54.390625 43.015625 
L 54.390625 34.71875 
L 19.671875 34.71875 
L 19.671875 8.296875 
L 56.78125 8.296875 
L 56.78125 0 
L 9.8125 0 
z
" id="DejaVuSans-69"/>
       <path d="M 2.984375 54.6875 
L 12.5 54.6875 
L 29.59375 8.796875 
L 46.6875 54.6875 
L 56.203125 54.6875 
L 35.6875 0 
L 23.484375 0 
z
" id="DejaVuSans-118"/>
       <path d="M 34.28125 27.484375 
Q 23.390625 27.484375 19.1875 25 
Q 14.984375 22.515625 14.984375 16.5 
Q 14.984375 11.71875 18.140625 8.90625 
Q 21.296875 6.109375 26.703125 6.109375 
Q 34.1875 6.109375 38.703125 11.40625 
Q 43.21875 16.703125 43.21875 25.484375 
L 43.21875 27.484375 
z
M 52.203125 31.203125 
L 52.203125 0 
L 43.21875 0 
L 43.21875 8.296875 
Q 40.140625 3.328125 35.546875 0.953125 
Q 30.953125 -1.421875 24.3125 -1.421875 
Q 15.921875 -1.421875 10.953125 3.296875 
Q 6 8.015625 6 15.921875 
Q 6 25.140625 12.171875 29.828125 
Q 18.359375 34.515625 30.609375 34.515625 
L 43.21875 34.515625 
L 43.21875 35.40625 
Q 43.21875 41.609375 39.140625 45 
Q 35.0625 48.390625 27.6875 48.390625 
Q 23 48.390625 18.546875 47.265625 
Q 14.109375 46.140625 10.015625 43.890625 
L 10.015625 52.203125 
Q 14.9375 54.109375 19.578125 55.046875 
Q 24.21875 56 28.609375 56 
Q 40.484375 56 46.34375 49.84375 
Q 52.203125 43.703125 52.203125 31.203125 
z
" id="DejaVuSans-97"/>
       <path d="M 44.28125 53.078125 
L 44.28125 44.578125 
Q 40.484375 46.53125 36.375 47.5 
Q 32.28125 48.484375 27.875 48.484375 
Q 21.1875 48.484375 17.84375 46.4375 
Q 14.5 44.390625 14.5 40.28125 
Q 14.5 37.15625 16.890625 35.375 
Q 19.28125 33.59375 26.515625 31.984375 
L 29.59375 31.296875 
Q 39.15625 29.25 43.1875 25.515625 
Q 47.21875 21.78125 47.21875 15.09375 
Q 47.21875 7.46875 41.1875 3.015625 
Q 35.15625 -1.421875 24.609375 -1.421875 
Q 20.21875 -1.421875 15.453125 -0.5625 
Q 10.6875 0.296875 5.421875 2 
L 5.421875 11.28125 
Q 10.40625 8.6875 15.234375 7.390625 
Q 20.0625 6.109375 24.8125 6.109375 
Q 31.15625 6.109375 34.5625 8.28125 
Q 37.984375 10.453125 37.984375 14.40625 
Q 37.984375 18.0625 35.515625 20.015625 
Q 33.0625 21.96875 24.703125 23.78125 
L 21.578125 24.515625 
Q 13.234375 26.265625 9.515625 29.90625 
Q 5.8125 33.546875 5.8125 39.890625 
Q 5.8125 47.609375 11.28125 51.796875 
Q 16.75 56 26.8125 56 
Q 31.78125 56 36.171875 55.265625 
Q 40.578125 54.546875 44.28125 53.078125 
z
" id="DejaVuSans-115"/>
       <path d="M 41.109375 46.296875 
Q 39.59375 47.171875 37.8125 47.578125 
Q 36.03125 48 33.890625 48 
Q 26.265625 48 22.1875 43.046875 
Q 18.109375 38.09375 18.109375 28.8125 
L 18.109375 0 
L 9.078125 0 
L 9.078125 54.6875 
L 18.109375 54.6875 
L 18.109375 46.1875 
Q 20.953125 51.171875 25.484375 53.578125 
Q 30.03125 56 36.53125 56 
Q 37.453125 56 38.578125 55.875 
Q 39.703125 55.765625 41.0625 55.515625 
z
" id="DejaVuSans-114"/>
       <path d="M 18.3125 70.21875 
L 18.3125 54.6875 
L 36.8125 54.6875 
L 36.8125 47.703125 
L 18.3125 47.703125 
L 18.3125 18.015625 
Q 18.3125 11.328125 20.140625 9.421875 
Q 21.96875 7.515625 27.59375 7.515625 
L 36.8125 7.515625 
L 36.8125 0 
L 27.59375 0 
Q 17.1875 0 13.234375 3.875 
Q 9.28125 7.765625 9.28125 18.015625 
L 9.28125 47.703125 
L 2.6875 47.703125 
L 2.6875 54.6875 
L 9.28125 54.6875 
L 9.28125 70.21875 
z
" id="DejaVuSans-116"/>
       <path d="M 9.421875 54.6875 
L 18.40625 54.6875 
L 18.40625 0 
L 9.421875 0 
z
M 9.421875 75.984375 
L 18.40625 75.984375 
L 18.40625 64.59375 
L 9.421875 64.59375 
z
" id="DejaVuSans-105"/>
      </defs>
      <use xlink:href="#DejaVuSans-108"/>
      <use x="27.783203" xlink:href="#DejaVuSans-111"/>
      <use x="88.964844" xlink:href="#DejaVuSans-103"/>
      <use x="152.441406" xlink:href="#DejaVuSans-49"/>
      <use x="216.064453" xlink:href="#DejaVuSans-48"/>
      <use x="279.6875" xlink:href="#DejaVuSans-32"/>
      <use x="311.474609" xlink:href="#DejaVuSans-111"/>
      <use x="372.65625" xlink:href="#DejaVuSans-102"/>
      <use x="407.861328" xlink:href="#DejaVuSans-32"/>
      <use x="439.648438" xlink:href="#DejaVuSans-70"/>
      <use x="497.167969" xlink:href="#DejaVuSans-69"/>
      <use x="560.351562" xlink:href="#DejaVuSans-118"/>
      <use x="619.53125" xlink:href="#DejaVuSans-97"/>
      <use x="680.810547" xlink:href="#DejaVuSans-108"/>
      <use x="708.59375" xlink:href="#DejaVuSans-115"/>
      <use x="760.693359" xlink:href="#DejaVuSans-32"/>
      <use x="792.480469" xlink:href="#DejaVuSans-114"/>
      <use x="833.59375" xlink:href="#DejaVuSans-97"/>
      <use x="894.873047" xlink:href="#DejaVuSans-116"/>
      <use x="934.082031" xlink:href="#DejaVuSans-105"/>
      <use x="961.865234" xlink:href="#DejaVuSans-111"/>
     </g>
    </g>
   </g>
   <g id="matplotlib.axis_2">
    <g id="ytick_1">
     <g id="line2d_7">
      <path clip-path="url(#ped7e358f8d)" d="M 34.16 288.453725 
L 453.192 288.453725 
" style="fill:none;stroke:#b0b0b0;stroke-linecap:square;stroke-width:0.8;"/>
     </g>
     <g id="line2d_8">
      <defs>
       <path d="M 0 0 
L -3.5 0 
" id="m04523b1987" style="stroke:#000000;stroke-width:0.8;"/>
      </defs>
      <g>
       <use style="stroke:#000000;stroke-width:0.8;" x="34.16" xlink:href="#m04523b1987" y="288.453725"/>
      </g>
     </g>
    </g>
    <g id="ytick_2">
     <g id="line2d_9">
      <path clip-path="url(#ped7e358f8d)" d="M 34.16 217.796863 
L 453.192 217.796863 
" style="fill:none;stroke:#b0b0b0;stroke-linecap:square;stroke-width:0.8;"/>
     </g>
     <g id="line2d_10">
      <g>
       <use style="stroke:#000000;stroke-width:0.8;" x="34.16" xlink:href="#m04523b1987" y="217.796863"/>
      </g>
     </g>
    </g>
    <g id="ytick_3">
     <g id="line2d_11">
      <path clip-path="url(#ped7e358f8d)" d="M 34.16 147.14 
L 453.192 147.14 
" style="fill:none;stroke:#b0b0b0;stroke-linecap:square;stroke-width:0.8;"/>
     </g>
     <g id="line2d_12">
      <g>
       <use style="stroke:#000000;stroke-width:0.8;" x="34.16" xlink:href="#m04523b1987" y="147.14"/>
      </g>
     </g>
    </g>
    <g id="ytick_4">
     <g id="line2d_13">
      <path clip-path="url(#ped7e358f8d)" d="M 34.16 76.483137 
L 453.192 76.483137 
" style="fill:none;stroke:#b0b0b0;stroke-linecap:square;stroke-width:0.8;"/>
     </g>
     <g id="line2d_14">
      <g>
       <use style="stroke:#000000;stroke-width:0.8;" x="34.16" xlink:href="#m04523b1987" y="76.483137"/>
      </g>
     </g>
    </g>
    <g id="ytick_5">
     <g id="line2d_15">
      <path clip-path="url(#ped7e358f8d)" d="M 34.16 5.826275 
L 453.192 5.826275 
" style="fill:none;stroke:#b0b0b0;stroke-linecap:square;stroke-width:0.8;"/>
     </g>
     <g id="line2d_16">
      <g>
       <use style="stroke:#000000;stroke-width:0.8;" x="34.16" xlink:href="#m04523b1987" y="5.826275"/>
      </g>
     </g>
    </g>
    <g id="text_5">
     <!-- proportion of trials -->
     <g transform="translate(19.000625 240.14625)rotate(-90)scale(0.2 -0.2)">
      <defs>
       <path d="M 18.109375 8.203125 
L 18.109375 -20.796875 
L 9.078125 -20.796875 
L 9.078125 54.6875 
L 18.109375 54.6875 
L 18.109375 46.390625 
Q 20.953125 51.265625 25.265625 53.625 
Q 29.59375 56 35.59375 56 
Q 45.5625 56 51.78125 48.09375 
Q 58.015625 40.1875 58.015625 27.296875 
Q 58.015625 14.40625 51.78125 6.484375 
Q 45.5625 -1.421875 35.59375 -1.421875 
Q 29.59375 -1.421875 25.265625 0.953125 
Q 20.953125 3.328125 18.109375 8.203125 
z
M 48.6875 27.296875 
Q 48.6875 37.203125 44.609375 42.84375 
Q 40.53125 48.484375 33.40625 48.484375 
Q 26.265625 48.484375 22.1875 42.84375 
Q 18.109375 37.203125 18.109375 27.296875 
Q 18.109375 17.390625 22.1875 11.75 
Q 26.265625 6.109375 33.40625 6.109375 
Q 40.53125 6.109375 44.609375 11.75 
Q 48.6875 17.390625 48.6875 27.296875 
z
" id="DejaVuSans-112"/>
       <path d="M 54.890625 33.015625 
L 54.890625 0 
L 45.90625 0 
L 45.90625 32.71875 
Q 45.90625 40.484375 42.875 44.328125 
Q 39.84375 48.1875 33.796875 48.1875 
Q 26.515625 48.1875 22.3125 43.546875 
Q 18.109375 38.921875 18.109375 30.90625 
L 18.109375 0 
L 9.078125 0 
L 9.078125 54.6875 
L 18.109375 54.6875 
L 18.109375 46.1875 
Q 21.34375 51.125 25.703125 53.5625 
Q 30.078125 56 35.796875 56 
Q 45.21875 56 50.046875 50.171875 
Q 54.890625 44.34375 54.890625 33.015625 
z
" id="DejaVuSans-110"/>
      </defs>
      <use xlink:href="#DejaVuSans-112"/>
      <use x="63.476562" xlink:href="#DejaVuSans-114"/>
      <use x="102.339844" xlink:href="#DejaVuSans-111"/>
      <use x="163.521484" xlink:href="#DejaVuSans-112"/>
      <use x="226.998047" xlink:href="#DejaVuSans-111"/>
      <use x="288.179688" xlink:href="#DejaVuSans-114"/>
      <use x="329.292969" xlink:href="#DejaVuSans-116"/>
      <use x="368.501953" xlink:href="#DejaVuSans-105"/>
      <use x="396.285156" xlink:href="#DejaVuSans-111"/>
      <use x="457.466797" xlink:href="#DejaVuSans-110"/>
      <use x="520.845703" xlink:href="#DejaVuSans-32"/>
      <use x="552.632812" xlink:href="#DejaVuSans-111"/>
      <use x="613.814453" xlink:href="#DejaVuSans-102"/>
      <use x="649.019531" xlink:href="#DejaVuSans-32"/>
      <use x="680.806641" xlink:href="#DejaVuSans-116"/>
      <use x="720.015625" xlink:href="#DejaVuSans-114"/>
      <use x="761.128906" xlink:href="#DejaVuSans-105"/>
      <use x="788.912109" xlink:href="#DejaVuSans-97"/>
      <use x="850.191406" xlink:href="#DejaVuSans-108"/>
      <use x="877.974609" xlink:href="#DejaVuSans-115"/>
     </g>
    </g>
   </g>
   <g id="line2d_17">
    <path clip-path="url(#ped7e358f8d)" d="M 34.16 286.934223 
L 47.840239 286.934223 
L 47.840239 286.680973 
L 95.146979 286.680973 
L 95.146979 286.427722 
L 109.025878 286.427722 
L 109.025878 285.921221 
L 117.86121 285.921221 
L 117.86121 285.667971 
L 126.198444 285.667971 
L 126.198444 285.414721 
L 127.402578 285.414721 
L 127.402578 285.16147 
L 130.740103 285.16147 
L 130.740103 284.90822 
L 134.719925 284.90822 
L 134.719925 284.654969 
L 135.770113 284.654969 
L 135.770113 284.401719 
L 136.130866 284.401719 
L 136.130866 284.148469 
L 136.532636 284.148469 
L 136.532636 283.895218 
L 140.501382 283.895218 
L 140.514137 283.388717 
L 140.660608 283.388717 
L 140.660608 283.135467 
L 142.679663 283.135467 
L 142.679663 282.882217 
L 144.829486 282.882217 
L 144.829486 282.628966 
L 145.425452 282.628966 
L 145.425452 282.375716 
L 146.276627 282.375716 
L 146.333233 281.615965 
L 146.997111 281.615965 
L 146.997111 281.362714 
L 150.406102 281.362714 
L 150.406102 281.109464 
L 150.562755 281.109464 
L 150.562755 280.856213 
L 151.43612 280.856213 
L 151.43612 280.602963 
L 152.411114 280.602963 
L 152.411114 280.349713 
L 154.14313 280.349713 
L 154.14313 280.096462 
L 156.332617 280.096462 
L 156.332617 279.589961 
L 162.069989 279.589961 
L 162.069989 279.336711 
L 164.484841 279.336711 
L 164.484841 279.083461 
L 166.195429 279.083461 
L 166.232837 278.57696 
L 167.082652 278.57696 
L 167.082652 277.563958 
L 169.100948 277.563958 
L 169.100948 277.310708 
L 170.347379 277.310708 
L 170.347379 277.057457 
L 170.563492 277.057457 
L 170.563492 276.804207 
L 171.550315 276.804207 
L 171.550315 276.550956 
L 172.509938 276.550956 
L 172.509938 276.297706 
L 173.250473 276.297706 
L 173.250473 275.284704 
L 174.514951 275.284704 
L 174.514951 275.031454 
L 174.709318 275.031454 
L 174.709318 274.778204 
L 175.300848 274.778204 
L 175.300848 274.524953 
L 175.727354 274.524953 
L 175.727354 273.511952 
L 176.246967 273.511952 
L 176.246967 273.258701 
L 178.046843 273.258701 
L 178.117209 272.7522 
L 178.709839 272.7522 
L 178.738687 272.2457 
L 179.046848 272.2457 
L 179.046848 271.739199 
L 180.013481 271.739199 
L 180.013481 270.726197 
L 180.714852 270.726197 
L 180.714852 270.472947 
L 181.526199 270.472947 
L 181.635409 269.206695 
L 182.028796 269.206695 
L 182.028796 268.953444 
L 182.446867 268.953444 
L 182.446867 268.700194 
L 183.377585 268.700194 
L 183.377585 268.446944 
L 183.531212 268.446944 
L 183.531212 268.193693 
L 183.839376 268.193693 
L 183.839376 267.940443 
L 184.173825 267.940443 
L 184.173825 267.687192 
L 185.259278 267.687192 
L 185.263228 266.42094 
L 185.877772 266.42094 
L 185.877772 266.16769 
L 186.074688 266.16769 
L 186.074688 265.91444 
L 186.588678 265.91444 
L 186.588678 265.661189 
L 187.384082 265.661189 
L 187.384082 265.154688 
L 187.707592 265.154688 
L 187.808121 264.648188 
L 188.336674 264.648188 
L 188.336674 264.394937 
L 189.286763 264.394937 
L 189.286763 264.141687 
L 189.545406 264.141687 
L 189.545406 262.875435 
L 189.986402 262.875435 
L 189.986402 262.622184 
L 190.220616 262.622184 
L 190.220616 262.368934 
L 190.373726 262.368934 
L 190.373726 262.115683 
L 190.939461 262.115683 
L 190.939461 261.862433 
L 191.291776 261.862433 
L 191.291776 261.609183 
L 192.022286 261.609183 
L 192.022286 261.355932 
L 192.451216 261.355932 
L 192.451216 261.102682 
L 192.667328 261.102682 
L 192.732192 260.596181 
L 192.788579 260.596181 
L 192.788579 260.342931 
L 192.909509 260.342931 
L 192.909509 259.83643 
L 193.023791 259.83643 
L 193.023791 259.583179 
L 193.190086 259.583179 
L 193.190086 259.329929 
L 193.629606 259.329929 
L 193.661181 258.316927 
L 194.536574 258.316927 
L 194.536574 258.063677 
L 195.604939 258.063677 
L 195.698984 257.303926 
L 195.905564 257.303926 
L 195.905564 256.797425 
L 196.308414 256.797425 
L 196.308414 256.544175 
L 196.955751 256.544175 
L 196.955751 256.037674 
L 197.316504 256.037674 
L 197.423549 254.771422 
L 197.437996 254.771422 
L 197.437996 254.518171 
L 197.930341 254.518171 
L 197.930341 254.264921 
L 198.651117 254.264921 
L 198.74286 253.75842 
L 198.867229 253.75842 
L 198.867229 253.50517 
L 199.07733 253.50517 
L 199.07733 252.998669 
L 199.25305 252.998669 
L 199.25305 252.492168 
L 199.672517 252.492168 
L 199.672517 252.238918 
L 200.395916 252.238918 
L 200.395916 251.985667 
L 200.707655 251.985667 
L 200.761073 251.479166 
L 200.842523 251.479166 
L 200.95065 250.972666 
L 201.432088 250.972666 
L 201.467477 250.212914 
L 201.554211 250.212914 
L 201.554211 249.453163 
L 201.683589 249.453163 
L 201.699775 248.440162 
L 201.846247 248.440162 
L 201.846247 247.933661 
L 201.974769 247.933661 
L 201.974769 247.42716 
L 202.155487 247.42716 
L 202.155487 247.17391 
L 202.516903 247.17391 
L 202.516903 246.920659 
L 202.897926 246.920659 
L 202.948266 246.160908 
L 203.365503 246.160908 
L 203.429375 245.654407 
L 204.012573 245.654407 
L 204.012573 245.147906 
L 204.132632 245.147906 
L 204.201004 244.641406 
L 204.501901 244.641406 
L 204.501901 244.388155 
L 204.918314 244.388155 
L 204.918314 244.134905 
L 205.113498 244.134905 
L 205.113498 243.881654 
L 205.238622 243.881654 
L 205.293493 243.375154 
L 205.467178 243.375154 
L 205.494617 242.868653 
L 205.669985 242.868653 
L 205.760783 241.855651 
L 205.840338 241.855651 
L 205.840338 239.829648 
L 206.015124 239.829648 
L 206.015124 239.323147 
L 206.140772 239.323147 
L 206.140772 238.816646 
L 206.417266 238.816646 
L 206.417266 238.563396 
L 206.553607 238.563396 
L 206.553607 238.310145 
L 206.875476 238.310145 
L 206.892017 237.043893 
L 207.042424 237.043893 
L 207.042424 236.790643 
L 207.276426 236.790643 
L 207.276426 236.537393 
L 207.462265 236.537393 
L 207.462265 235.524391 
L 207.615417 235.524391 
L 207.708346 234.511389 
L 208.178524 234.511389 
L 208.178524 234.258139 
L 208.317219 234.258139 
L 208.317219 234.004889 
L 208.462783 234.004889 
L 208.462783 233.751638 
L 208.709505 233.751638 
L 208.709505 233.245137 
L 208.862492 233.245137 
L 208.862492 232.738637 
L 209.098308 232.738637 
L 209.204442 232.232136 
L 209.228041 232.232136 
L 209.228041 231.978885 
L 209.444153 231.978885 
L 209.488709 230.965884 
L 209.597196 230.965884 
L 209.660934 230.206133 
L 209.811429 230.206133 
L 209.858784 229.699632 
L 210.16411 229.699632 
L 210.212108 229.193131 
L 210.332533 229.193131 
L 210.332533 228.939881 
L 210.522352 228.939881 
L 210.522352 228.68663 
L 210.900295 228.68663 
L 210.900295 228.180129 
L 211.086135 228.180129 
L 211.086135 224.381373 
L 211.525561 224.381373 
L 211.634999 223.874872 
L 211.748393 223.874872 
L 211.748393 223.368372 
L 211.973358 223.368372 
L 211.973358 223.115121 
L 212.257625 223.115121 
L 212.367077 222.60862 
L 212.404721 222.60862 
L 212.404721 222.35537 
L 212.603346 222.35537 
L 212.700633 221.848869 
L 213.131652 221.848869 
L 213.148894 221.342368 
L 213.563015 221.342368 
L 213.570884 220.835868 
L 213.732928 220.835868 
L 213.786996 220.329367 
L 214.225274 220.329367 
L 214.282264 219.822866 
L 214.378425 219.822866 
L 214.378425 219.569616 
L 214.601419 219.569616 
L 214.601419 219.063115 
L 214.890841 219.063115 
L 214.890841 218.809864 
L 215.042401 218.809864 
L 215.042401 218.556614 
L 215.332451 218.556614 
L 215.372263 217.543612 
L 215.446423 217.543612 
L 215.519653 216.783861 
L 215.597227 216.783861 
L 215.693205 216.02411 
L 216.011329 216.02411 
L 216.011329 215.77086 
L 216.243052 215.77086 
L 216.331932 215.264359 
L 216.354204 215.264359 
L 216.354204 214.757858 
L 217.147341 214.757858 
L 217.194785 214.251357 
L 217.356798 214.251357 
L 217.356798 213.998107 
L 217.46812 213.998107 
L 217.46812 213.744856 
L 217.619348 213.744856 
L 217.697474 212.985105 
L 217.764121 212.985105 
L 217.849143 209.439599 
L 217.994708 209.439599 
L 218.091502 208.426598 
L 218.288569 208.426598 
L 218.372409 207.920097 
L 218.450419 207.920097 
L 218.450419 207.413596 
L 218.595511 207.413596 
L 218.669976 206.147344 
L 218.736366 206.147344 
L 218.82769 205.387593 
L 218.859586 205.387593 
L 218.859586 205.134343 
L 219.028506 205.134343 
L 219.030729 204.627842 
L 219.152221 204.627842 
L 219.192858 203.868091 
L 219.31891 203.868091 
L 219.31891 203.36159 
L 219.47107 203.36159 
L 219.47107 203.108339 
L 219.801924 203.108339 
L 219.801924 202.855089 
L 220.076476 202.855089 
L 220.076476 202.601838 
L 220.18984 202.601838 
L 220.222947 202.095338 
L 220.419194 202.095338 
L 220.495936 201.588837 
L 220.680666 201.588837 
L 220.680666 201.082336 
L 220.909457 201.082336 
L 220.909457 200.829086 
L 221.037867 200.829086 
L 221.094129 200.322585 
L 221.364427 200.322585 
L 221.457091 199.056333 
L 221.618577 199.056333 
L 221.618577 198.803082 
L 221.750226 198.803082 
L 221.78955 198.296582 
L 221.962191 198.296582 
L 221.962191 198.043331 
L 222.135271 198.043331 
L 222.227643 196.777079 
L 222.353281 196.777079 
L 222.456997 195.764078 
L 222.712198 195.764078 
L 222.816728 194.751076 
L 222.899846 194.751076 
L 222.899846 194.497826 
L 223.09494 194.497826 
L 223.131932 193.991325 
L 223.412322 193.991325 
L 223.414 193.231574 
L 223.551432 193.231574 
L 223.560472 191.458821 
L 223.757198 191.458821 
L 223.788029 190.69907 
L 223.910349 190.69907 
L 223.944519 189.432817 
L 224.375882 189.432817 
L 224.462509 188.419816 
L 224.498856 188.419816 
L 224.498856 188.166565 
L 224.612151 188.166565 
L 224.709094 186.900313 
L 224.757716 186.900313 
L 224.823263 186.393813 
L 224.904187 186.393813 
L 224.955349 185.634061 
L 225.140457 185.634061 
L 225.140457 185.380811 
L 225.2523 185.380811 
L 225.2523 185.127561 
L 225.413419 185.127561 
L 225.46093 184.367809 
L 225.838966 184.367809 
L 225.838966 184.114559 
L 225.955866 184.114559 
L 225.955866 183.608058 
L 226.148123 183.608058 
L 226.162732 182.341806 
L 226.50704 182.341806 
L 226.605737 181.328805 
L 226.915535 181.328805 
L 226.924575 180.822304 
L 227.153929 180.822304 
L 227.258945 180.062553 
L 227.381067 180.062553 
L 227.381067 175.504045 
L 227.568388 175.504045 
L 227.617337 174.744294 
L 227.72935 174.744294 
L 227.828864 173.984543 
L 228.303092 173.984543 
L 228.332963 173.224792 
L 228.431255 173.224792 
L 228.484961 172.718291 
L 228.552558 172.718291 
L 228.552558 172.46504 
L 228.724783 172.46504 
L 228.792008 171.95854 
L 229.067668 171.95854 
L 229.176491 171.198788 
L 229.206534 171.198788 
L 229.298192 170.692288 
L 229.353005 170.692288 
L 229.426585 170.185787 
L 229.559349 170.185787 
L 229.559349 169.932536 
L 229.751882 169.932536 
L 229.857948 169.172785 
L 230.125094 169.172785 
L 230.125094 168.919535 
L 230.609536 168.919535 
L 230.609536 168.666284 
L 230.896352 168.666284 
L 230.970289 167.653283 
L 231.375159 167.653283 
L 231.444363 165.374029 
L 231.520724 165.374029 
L 231.520724 165.120779 
L 231.667195 165.120779 
L 231.667195 163.854527 
L 232.098558 163.854527 
L 232.179067 162.081774 
L 232.305138 162.081774 
L 232.348652 161.322023 
L 232.473602 161.322023 
L 232.537985 160.562271 
L 232.68947 160.562271 
L 232.735953 159.042769 
L 232.805638 159.042769 
L 232.805638 158.789519 
L 233.050454 158.789519 
L 233.083356 158.029767 
L 233.175279 158.029767 
L 233.239786 157.016766 
L 233.289122 157.016766 
L 233.355325 156.003764 
L 233.462619 156.003764 
L 233.521883 155.497263 
L 233.687583 155.497263 
L 233.785158 154.737512 
L 234.144076 154.737512 
L 234.144076 152.964759 
L 234.263107 152.964759 
L 234.263107 152.458258 
L 234.511405 152.458258 
L 234.583502 151.445257 
L 234.62386 151.445257 
L 234.62386 150.938756 
L 234.867475 150.938756 
L 234.969024 150.432255 
L 235.254926 150.432255 
L 235.362411 147.899751 
L 235.500032 147.899751 
L 235.500032 147.646501 
L 235.613843 147.646501 
L 235.621998 146.380249 
L 235.953323 146.380249 
L 235.953323 146.126998 
L 236.315645 146.126998 
L 236.384686 145.367247 
L 236.470017 145.367247 
L 236.470017 145.113997 
L 236.912992 145.113997 
L 236.912992 143.087994 
L 237.234592 143.087994 
L 237.234592 142.834743 
L 237.490628 142.834743 
L 237.508179 142.074992 
L 237.65936 142.074992 
L 237.65936 141.568491 
L 238.09935 141.568491 
L 238.09935 141.315241 
L 238.245821 141.315241 
L 238.315806 140.80874 
L 238.430203 140.80874 
L 238.430203 140.555489 
L 238.895736 140.555489 
L 238.937769 140.048989 
L 239.007131 140.048989 
L 239.007131 139.542488 
L 239.12509 139.542488 
L 239.208337 138.529486 
L 239.255152 138.529486 
L 239.365993 138.022985 
L 239.577193 138.022985 
L 239.668909 137.009984 
L 239.726747 137.009984 
L 239.800025 136.503483 
L 239.855405 136.503483 
L 239.889665 135.996982 
L 240.311897 135.996982 
L 240.359437 135.490481 
L 240.456122 135.490481 
L 240.5646 134.983981 
L 241.11605 134.983981 
L 241.220697 133.970979 
L 241.250281 133.970979 
L 241.34651 133.464478 
L 241.952083 133.464478 
L 241.952083 133.211228 
L 242.332285 133.211228 
L 242.414699 132.704727 
L 243.181063 132.704727 
L 243.223897 131.944976 
L 243.32248 131.944976 
L 243.382562 131.185225 
L 243.676 131.185225 
L 243.676 125.107215 
L 243.86184 125.107215 
L 243.905354 124.600714 
L 244.110018 124.600714 
L 244.110018 124.347464 
L 244.256489 124.347464 
L 244.256489 124.094213 
L 244.377802 124.094213 
L 244.422368 123.334462 
L 244.580289 123.334462 
L 244.635669 122.574711 
L 244.769621 122.574711 
L 244.769621 122.06821 
L 245.130605 122.06821 
L 245.236386 121.308459 
L 245.282091 121.308459 
L 245.282091 121.055208 
L 245.402178 121.055208 
L 245.402178 120.801958 
L 245.757768 120.801958 
L 245.757768 120.548708 
L 245.938188 120.548708 
L 245.938188 120.295457 
L 246.15288 120.295457 
L 246.15288 119.788956 
L 246.444916 119.788956 
L 246.444916 119.535706 
L 246.618413 119.535706 
L 246.713589 118.775955 
L 246.876279 118.775955 
L 246.939853 118.016204 
L 247.299869 118.016204 
L 247.371216 116.496701 
L 247.725405 116.496701 
L 247.725405 116.243451 
L 247.962128 116.243451 
L 248.034574 112.951195 
L 248.147968 112.951195 
L 248.24034 112.444695 
L 248.393491 112.444695 
L 248.478822 109.912191 
L 248.673026 109.912191 
L 248.673026 109.40569 
L 248.921797 109.40569 
L 248.921797 108.645939 
L 249.055749 108.645939 
L 249.095293 106.873186 
L 249.872508 106.873186 
L 249.872508 106.619935 
L 250.068786 106.619935 
L 250.127631 105.860184 
L 250.439008 105.860184 
L 250.439008 103.834181 
L 250.563722 103.834181 
L 250.563722 102.821179 
L 250.80349 102.821179 
L 250.90454 102.314678 
L 251.112654 102.314678 
L 251.179498 101.554927 
L 251.298427 101.554927 
L 251.298427 101.048426 
L 251.80883 101.048426 
L 251.864209 100.541926 
L 251.936879 100.541926 
L 251.944073 100.035425 
L 252.060935 100.035425 
L 252.060935 99.528924 
L 252.368242 99.528924 
L 252.464927 99.022423 
L 253.207924 99.022423 
L 253.207924 97.756171 
L 254.158636 97.756171 
L 254.158636 97.502921 
L 254.450178 97.502921 
L 254.450178 97.24967 
L 254.887826 97.24967 
L 254.887826 96.99642 
L 255.027178 96.99642 
L 255.027178 95.983418 
L 255.560748 95.983418 
L 255.560748 95.476918 
L 255.684805 95.476918 
L 255.684805 94.463916 
L 255.959762 94.463916 
L 255.959762 94.210666 
L 256.150337 94.210666 
L 256.150337 93.957415 
L 256.295452 93.957415 
L 256.295452 93.704165 
L 256.481783 93.704165 
L 256.481783 93.197664 
L 256.661564 93.197664 
L 256.661564 92.944414 
L 257.202016 92.944414 
L 257.202016 91.931412 
L 257.494052 91.931412 
L 257.494052 91.424911 
L 258.291031 91.424911 
L 258.291031 90.91841 
L 258.722394 90.91841 
L 258.722394 90.411909 
L 258.856571 90.411909 
L 258.856571 90.158659 
L 258.970415 90.158659 
L 258.970415 89.905409 
L 259.465351 89.905409 
L 259.465351 89.398908 
L 259.970933 89.398908 
L 259.970933 87.879405 
L 260.242711 87.879405 
L 260.242711 87.626155 
L 261.034852 87.626155 
L 261.034852 87.372905 
L 261.396134 87.372905 
L 261.396134 87.119654 
L 261.625488 87.119654 
L 261.625488 86.866404 
L 261.89107 86.866404 
L 261.9149 85.346901 
L 262.120424 85.346901 
L 262.120424 84.840401 
L 262.300423 84.840401 
L 262.300423 84.58715 
L 262.649605 84.58715 
L 262.739849 82.561147 
L 262.795359 82.561147 
L 262.795359 82.054646 
L 262.95652 82.054646 
L 262.95652 81.801396 
L 263.188303 81.801396 
L 263.188303 81.548145 
L 263.451456 81.548145 
L 263.451456 81.041645 
L 263.780642 81.041645 
L 263.780642 80.788394 
L 264.211457 80.788394 
L 264.211457 80.535144 
L 264.462377 80.535144 
L 264.462377 80.281893 
L 264.688423 80.281893 
L 264.688423 79.775393 
L 265.216729 79.775393 
L 265.216729 79.522142 
L 266.389738 79.522142 
L 266.389738 79.268892 
L 266.888096 79.268892 
L 266.888096 79.015641 
L 267.11745 79.015641 
L 267.11745 78.762391 
L 267.792385 78.762391 
L 267.792385 78.50914 
L 268.448482 78.50914 
L 268.448482 78.25589 
L 269.135527 78.25589 
L 269.135527 78.00264 
L 269.502857 78.00264 
L 269.502857 76.229887 
L 269.79131 76.229887 
L 269.79131 75.976636 
L 270.043309 75.976636 
L 270.043309 75.470136 
L 270.816529 75.470136 
L 270.816529 74.963635 
L 272.44527 74.963635 
L 272.44527 74.710384 
L 273.242248 74.710384 
L 273.242248 74.203884 
L 273.471602 74.203884 
L 273.471602 73.697383 
L 273.679896 73.697383 
L 273.679896 73.444132 
L 274.146537 73.444132 
L 274.174833 72.431131 
L 274.802634 72.431131 
L 274.802634 71.92463 
L 275.146195 71.92463 
L 275.146195 71.67138 
L 276.265865 71.67138 
L 276.265865 70.911628 
L 277.691066 70.911628 
L 277.691066 70.151877 
L 279.034781 70.151877 
L 279.034781 69.138876 
L 279.171858 69.138876 
L 279.171858 68.885625 
L 281.511662 68.885625 
L 281.511662 67.112872 
L 284.454074 67.112872 
L 284.454074 66.606371 
L 285.526011 66.606371 
L 285.526011 66.099871 
L 285.797789 66.099871 
L 285.797789 65.84662 
L 288.27467 65.84662 
L 288.27467 64.833619 
L 288.566706 64.833619 
L 288.566706 64.073867 
L 292.560798 64.073867 
L 292.560798 62.554365 
L 293.284197 62.554365 
L 293.284197 61.794614 
L 293.985999 61.794614 
L 293.985999 61.541363 
L 295.329714 61.541363 
L 295.329714 60.275111 
L 297.411482 60.275111 
L 297.411482 60.021861 
L 297.806594 60.021861 
L 297.806594 59.51536 
L 300.749007 59.51536 
L 300.749007 59.26211 
L 304.861638 59.26211 
L 304.861638 58.502359 
L 306.54154 58.502359 
L 306.54154 58.249108 
L 308.485508 58.249108 
L 308.485508 57.489357 
L 309.220212 57.489357 
L 309.220212 55.210103 
L 309.579129 55.210103 
L 309.579129 53.690601 
L 310.280931 53.690601 
L 310.280931 52.677599 
L 310.510285 52.677599 
L 310.510285 52.424349 
L 311.624646 52.424349 
L 311.624646 51.664598 
L 312.688566 51.664598 
L 312.688566 51.411347 
L 314.101527 51.411347 
L 314.101527 50.904846 
L 315.434356 50.904846 
L 315.434356 50.651596 
L 316.342137 50.651596 
L 316.342137 50.145095 
L 318.387654 50.145095 
L 318.387654 49.385344 
L 321.445024 49.385344 
L 321.445024 49.132094 
L 453.192 49.132094 
L 453.192 49.132094 
" style="fill:none;stroke:#000000;stroke-linecap:square;stroke-width:3;"/>
   </g>
   <g id="line2d_18">
    <path clip-path="url(#ped7e358f8d)" style="fill:none;stroke:#000000;stroke-linecap:square;stroke-width:3;"/>
   </g>
   <g id="line2d_19">
    <path clip-path="url(#ped7e358f8d)" d="M 34.16 281.453665 
L 180.578244 281.453665 
L 180.578244 280.578657 
L 181.724625 280.578657 
L 181.724625 279.70365 
L 184.920383 279.70365 
L 184.920383 278.828642 
L 190.545924 278.828642 
L 190.545924 277.953634 
L 191.455315 277.953634 
L 191.455315 277.078627 
L 192.60327 277.078627 
L 192.60327 276.203619 
L 212.746256 276.203619 
L 212.746256 275.328612 
L 453.192 275.328612 
" style="fill:none;stroke:#00bfbf;stroke-linecap:square;stroke-width:3;"/>
   </g>
   <g id="line2d_20">
    <path clip-path="url(#ped7e358f8d)" style="fill:none;stroke:#00bfbf;stroke-linecap:square;stroke-width:3;"/>
   </g>
   <g id="line2d_21">
    <path clip-path="url(#ped7e358f8d)" d="M 34.16 281.453665 
L 178.370473 281.453665 
L 178.370473 280.578657 
L 178.390827 280.578657 
L 178.390827 279.70365 
L 178.753347 279.70365 
L 178.753347 278.828642 
L 180.093616 278.828642 
L 180.093616 277.953634 
L 191.223893 277.953634 
L 191.223893 277.078627 
L 199.376493 277.078627 
L 199.376493 276.203619 
L 199.434569 276.203619 
L 199.434569 275.328612 
L 453.192 275.328612 
" style="fill:none;stroke:#bf00bf;stroke-linecap:square;stroke-width:3;"/>
   </g>
   <g id="line2d_22">
    <path clip-path="url(#ped7e358f8d)" style="fill:none;stroke:#bf00bf;stroke-linecap:square;stroke-width:3;"/>
   </g>
   <g id="line2d_23">
    <path clip-path="url(#ped7e358f8d)" d="M 34.16 281.453665 
L 157.938084 281.453665 
L 157.938084 280.578657 
L 165.450867 280.578657 
L 165.450867 279.70365 
L 173.492973 279.70365 
L 173.492973 278.828642 
L 176.732078 278.828642 
L 176.732078 277.953634 
L 180.438127 277.953634 
L 180.438127 277.078627 
L 188.669472 277.078627 
L 188.669472 276.203619 
L 193.472946 276.203619 
L 193.472946 275.328612 
L 453.192 275.328612 
" style="fill:none;stroke:#ff0000;stroke-linecap:square;stroke-width:3;"/>
   </g>
   <g id="line2d_24">
    <path clip-path="url(#ped7e358f8d)" style="fill:none;stroke:#ff0000;stroke-linecap:square;stroke-width:3;"/>
   </g>
   <g id="line2d_25">
    <path clip-path="url(#ped7e358f8d)" d="M 243.676 291.28 
L 243.676 3 
" style="fill:none;stroke:#000000;stroke-linecap:square;stroke-width:1.5;"/>
   </g>
   <g id="line2d_26">
    <path clip-path="url(#ped7e358f8d)" d="M 34.16 147.14 
L 453.192 147.14 
" style="fill:none;stroke:#000000;stroke-dasharray:2,3.3;stroke-dashoffset:0;stroke-width:2;"/>
   </g>
   <g id="patch_3">
    <path d="M 34.16 291.28 
L 34.16 3 
" style="fill:none;stroke:#000000;stroke-linecap:square;stroke-linejoin:miter;stroke-width:0.8;"/>
   </g>
   <g id="patch_4">
    <path d="M 453.192 291.28 
L 453.192 3 
" style="fill:none;stroke:#000000;stroke-linecap:square;stroke-linejoin:miter;stroke-width:0.8;"/>
   </g>
   <g id="patch_5">
    <path d="M 34.16 291.28 
L 453.192 291.28 
" style="fill:none;stroke:#000000;stroke-linecap:square;stroke-linejoin:miter;stroke-width:0.8;"/>
   </g>
   <g id="patch_6">
    <path d="M 34.16 3 
L 453.192 3 
" style="fill:none;stroke:#000000;stroke-linecap:square;stroke-linejoin:miter;stroke-width:0.8;"/>
   </g>
   <g id="text_6">
    <!-- f20-f24,5-D -->
    <g transform="translate(330.91761 285.5144)scale(0.2 -0.2)">
     <defs>
      <path d="M 37.796875 64.3125 
L 12.890625 25.390625 
L 37.796875 25.390625 
z
M 35.203125 72.90625 
L 47.609375 72.90625 
L 47.609375 25.390625 
L 58.015625 25.390625 
L 58.015625 17.1875 
L 47.609375 17.1875 
L 47.609375 0 
L 37.796875 0 
L 37.796875 17.1875 
L 4.890625 17.1875 
L 4.890625 26.703125 
z
" id="DejaVuSans-52"/>
      <path d="M 11.71875 12.40625 
L 22.015625 12.40625 
L 22.015625 4 
L 14.015625 -11.625 
L 7.71875 -11.625 
L 11.71875 4 
z
" id="DejaVuSans-44"/>
      <path d="M 10.796875 72.90625 
L 49.515625 72.90625 
L 49.515625 64.59375 
L 19.828125 64.59375 
L 19.828125 46.734375 
Q 21.96875 47.46875 24.109375 47.828125 
Q 26.265625 48.1875 28.421875 48.1875 
Q 40.625 48.1875 47.75 41.5 
Q 54.890625 34.8125 54.890625 23.390625 
Q 54.890625 11.625 47.5625 5.09375 
Q 40.234375 -1.421875 26.90625 -1.421875 
Q 22.3125 -1.421875 17.546875 -0.640625 
Q 12.796875 0.140625 7.71875 1.703125 
L 7.71875 11.625 
Q 12.109375 9.234375 16.796875 8.0625 
Q 21.484375 6.890625 26.703125 6.890625 
Q 35.15625 6.890625 40.078125 11.328125 
Q 45.015625 15.765625 45.015625 23.390625 
Q 45.015625 31 40.078125 35.4375 
Q 35.15625 39.890625 26.703125 39.890625 
Q 22.75 39.890625 18.8125 39.015625 
Q 14.890625 38.140625 10.796875 36.28125 
z
" id="DejaVuSans-53"/>
      <path d="M 19.671875 64.796875 
L 19.671875 8.109375 
L 31.59375 8.109375 
Q 46.6875 8.109375 53.6875 14.9375 
Q 60.6875 21.78125 60.6875 36.53125 
Q 60.6875 51.171875 53.6875 57.984375 
Q 46.6875 64.796875 31.59375 64.796875 
z
M 9.8125 72.90625 
L 30.078125 72.90625 
Q 51.265625 72.90625 61.171875 64.09375 
Q 71.09375 55.28125 71.09375 36.53125 
Q 71.09375 17.671875 61.125 8.828125 
Q 51.171875 0 30.078125 0 
L 9.8125 0 
z
" id="DejaVuSans-68"/>
     </defs>
     <use xlink:href="#DejaVuSans-102"/>
     <use x="35.205078" xlink:href="#DejaVuSans-50"/>
     <use x="98.828125" xlink:href="#DejaVuSans-48"/>
     <use x="162.451172" xlink:href="#DejaVuSans-45"/>
     <use x="198.535156" xlink:href="#DejaVuSans-102"/>
     <use x="233.740234" xlink:href="#DejaVuSans-50"/>
     <use x="297.363281" xlink:href="#DejaVuSans-52"/>
     <use x="360.986328" xlink:href="#DejaVuSans-44"/>
     <use x="392.773438" xlink:href="#DejaVuSans-53"/>
     <use x="456.396484" xlink:href="#DejaVuSans-45"/>
     <use x="492.480469" xlink:href="#DejaVuSans-68"/>
    </g>
   </g>
   <g id="text_7">
    <!-- v2.4 -->
    <g style="fill:#808080;" transform="translate(232.765062 286.317512)scale(0.1 -0.1)">
     <defs>
      <path d="M 10.6875 12.40625 
L 21 12.40625 
L 21 0 
L 10.6875 0 
z
" id="DejaVuSans-46"/>
     </defs>
     <use xlink:href="#DejaVuSans-118"/>
     <use x="59.179688" xlink:href="#DejaVuSans-50"/>
     <use x="122.802734" xlink:href="#DejaVuSans-46"/>
     <use x="154.589844" xlink:href="#DejaVuSans-52"/>
    </g>
   </g>
   <g id="legend_1">
    <g id="patch_7">
     <path d="M 48.16 136.425 
L 177.381875 136.425 
Q 181.381875 136.425 181.381875 132.425 
L 181.381875 17 
Q 181.381875 13 177.381875 13 
L 48.16 13 
Q 44.16 13 44.16 17 
L 44.16 132.425 
Q 44.16 136.425 48.16 136.425 
z
" style="fill:#ffffff;opacity:0.2;stroke:#cccccc;stroke-linejoin:miter;"/>
    </g>
    <g id="line2d_27">
     <path d="M 52.16 29.196875 
L 92.16 29.196875 
" style="fill:none;stroke:#000000;stroke-linecap:square;stroke-width:3;"/>
    </g>
    <g id="line2d_28"/>
    <g id="text_8">
     <!-- 1: 5/5 -->
     <g transform="translate(108.16 36.196875)scale(0.2 -0.2)">
      <defs>
       <path d="M 11.71875 12.40625 
L 22.015625 12.40625 
L 22.015625 0 
L 11.71875 0 
z
M 11.71875 51.703125 
L 22.015625 51.703125 
L 22.015625 39.3125 
L 11.71875 39.3125 
z
" id="DejaVuSans-58"/>
       <path d="M 25.390625 72.90625 
L 33.6875 72.90625 
L 8.296875 -9.28125 
L 0 -9.28125 
z
" id="DejaVuSans-47"/>
      </defs>
      <use xlink:href="#DejaVuSans-49"/>
      <use x="63.623047" xlink:href="#DejaVuSans-58"/>
      <use x="97.314453" xlink:href="#DejaVuSans-32"/>
      <use x="129.101562" xlink:href="#DejaVuSans-53"/>
      <use x="192.724609" xlink:href="#DejaVuSans-47"/>
      <use x="226.416016" xlink:href="#DejaVuSans-53"/>
     </g>
    </g>
    <g id="line2d_29">
     <path d="M 52.16 58.553125 
L 92.16 58.553125 
" style="fill:none;stroke:#00bfbf;stroke-linecap:square;stroke-width:3;"/>
    </g>
    <g id="line2d_30"/>
    <g id="text_9">
     <!-- -1: 1/3 -->
     <g transform="translate(108.16 65.553125)scale(0.2 -0.2)">
      <defs>
       <path d="M 40.578125 39.3125 
Q 47.65625 37.796875 51.625 33 
Q 55.609375 28.21875 55.609375 21.1875 
Q 55.609375 10.40625 48.1875 4.484375 
Q 40.765625 -1.421875 27.09375 -1.421875 
Q 22.515625 -1.421875 17.65625 -0.515625 
Q 12.796875 0.390625 7.625 2.203125 
L 7.625 11.71875 
Q 11.71875 9.328125 16.59375 8.109375 
Q 21.484375 6.890625 26.8125 6.890625 
Q 36.078125 6.890625 40.9375 10.546875 
Q 45.796875 14.203125 45.796875 21.1875 
Q 45.796875 27.640625 41.28125 31.265625 
Q 36.765625 34.90625 28.71875 34.90625 
L 20.21875 34.90625 
L 20.21875 43.015625 
L 29.109375 43.015625 
Q 36.375 43.015625 40.234375 45.921875 
Q 44.09375 48.828125 44.09375 54.296875 
Q 44.09375 59.90625 40.109375 62.90625 
Q 36.140625 65.921875 28.71875 65.921875 
Q 24.65625 65.921875 20.015625 65.03125 
Q 15.375 64.15625 9.8125 62.3125 
L 9.8125 71.09375 
Q 15.4375 72.65625 20.34375 73.4375 
Q 25.25 74.21875 29.59375 74.21875 
Q 40.828125 74.21875 47.359375 69.109375 
Q 53.90625 64.015625 53.90625 55.328125 
Q 53.90625 49.265625 50.4375 45.09375 
Q 46.96875 40.921875 40.578125 39.3125 
z
" id="DejaVuSans-51"/>
      </defs>
      <use xlink:href="#DejaVuSans-45"/>
      <use x="36.083984" xlink:href="#DejaVuSans-49"/>
      <use x="99.707031" xlink:href="#DejaVuSans-58"/>
      <use x="133.398438" xlink:href="#DejaVuSans-32"/>
      <use x="165.185547" xlink:href="#DejaVuSans-49"/>
      <use x="228.808594" xlink:href="#DejaVuSans-47"/>
      <use x="262.5" xlink:href="#DejaVuSans-51"/>
     </g>
    </g>
    <g id="line2d_31">
     <path d="M 52.16 87.909375 
L 92.16 87.909375 
" style="fill:none;stroke:#bf00bf;stroke-linecap:square;stroke-width:3;"/>
    </g>
    <g id="line2d_32"/>
    <g id="text_10">
     <!-- -4: 1/3 -->
     <g transform="translate(108.16 94.909375)scale(0.2 -0.2)">
      <use xlink:href="#DejaVuSans-45"/>
      <use x="36.083984" xlink:href="#DejaVuSans-52"/>
      <use x="99.707031" xlink:href="#DejaVuSans-58"/>
      <use x="133.398438" xlink:href="#DejaVuSans-32"/>
      <use x="165.185547" xlink:href="#DejaVuSans-49"/>
      <use x="228.808594" xlink:href="#DejaVuSans-47"/>
      <use x="262.5" xlink:href="#DejaVuSans-51"/>
     </g>
    </g>
    <g id="line2d_33">
     <path d="M 52.16 117.265625 
L 92.16 117.265625 
" style="fill:none;stroke:#ff0000;stroke-linecap:square;stroke-width:3;"/>
    </g>
    <g id="line2d_34"/>
    <g id="text_11">
     <!-- -8: 1/3 -->
     <g transform="translate(108.16 124.265625)scale(0.2 -0.2)">
      <defs>
       <path d="M 31.78125 34.625 
Q 24.75 34.625 20.71875 30.859375 
Q 16.703125 27.09375 16.703125 20.515625 
Q 16.703125 13.921875 20.71875 10.15625 
Q 24.75 6.390625 31.78125 6.390625 
Q 38.8125 6.390625 42.859375 10.171875 
Q 46.921875 13.96875 46.921875 20.515625 
Q 46.921875 27.09375 42.890625 30.859375 
Q 38.875 34.625 31.78125 34.625 
z
M 21.921875 38.8125 
Q 15.578125 40.375 12.03125 44.71875 
Q 8.5 49.078125 8.5 55.328125 
Q 8.5 64.0625 14.71875 69.140625 
Q 20.953125 74.21875 31.78125 74.21875 
Q 42.671875 74.21875 48.875 69.140625 
Q 55.078125 64.0625 55.078125 55.328125 
Q 55.078125 49.078125 51.53125 44.71875 
Q 48 40.375 41.703125 38.8125 
Q 48.828125 37.15625 52.796875 32.3125 
Q 56.78125 27.484375 56.78125 20.515625 
Q 56.78125 9.90625 50.3125 4.234375 
Q 43.84375 -1.421875 31.78125 -1.421875 
Q 19.734375 -1.421875 13.25 4.234375 
Q 6.78125 9.90625 6.78125 20.515625 
Q 6.78125 27.484375 10.78125 32.3125 
Q 14.796875 37.15625 21.921875 38.8125 
z
M 18.3125 54.390625 
Q 18.3125 48.734375 21.84375 45.5625 
Q 25.390625 42.390625 31.78125 42.390625 
Q 38.140625 42.390625 41.71875 45.5625 
Q 45.3125 48.734375 45.3125 54.390625 
Q 45.3125 60.0625 41.71875 63.234375 
Q 38.140625 66.40625 31.78125 66.40625 
Q 25.390625 66.40625 21.84375 63.234375 
Q 18.3125 60.0625 18.3125 54.390625 
z
" id="DejaVuSans-56"/>
      </defs>
      <use xlink:href="#DejaVuSans-45"/>
      <use x="36.083984" xlink:href="#DejaVuSans-56"/>
      <use x="99.707031" xlink:href="#DejaVuSans-58"/>
      <use x="133.398438" xlink:href="#DejaVuSans-32"/>
      <use x="165.185547" xlink:href="#DejaVuSans-49"/>
      <use x="228.808594" xlink:href="#DejaVuSans-47"/>
      <use x="262.5" xlink:href="#DejaVuSans-51"/>
     </g>
    </g>
   </g>
  </g>
 </g>
 <defs>
  <clipPath id="ped7e358f8d">
   <rect height="288.28" width="419.032" x="34.16" y="3"/>
  </clipPath>
 </defs>
</svg>
