<?xml version="1.0" encoding="utf-8" standalone="no"?>
<!DOCTYPE svg PUBLIC "-//W3C//DTD SVG 1.1//EN"
  "http://www.w3.org/Graphics/SVG/1.1/DTD/svg11.dtd">
<!-- Created with matplotlib (https://matplotlib.org/) -->
<svg height="345.6pt" version="1.1" viewBox="0 0 460.8 345.6" width="460.8pt" xmlns="http://www.w3.org/2000/svg" xmlns:xlink="http://www.w3.org/1999/xlink">
 <metadata>
  <rdf:RDF xmlns:cc="http://creativecommons.org/ns#" xmlns:dc="http://purl.org/dc/elements/1.1/" xmlns:rdf="http://www.w3.org/1999/02/22-rdf-syntax-ns#">
   <cc:Work>
    <dc:type rdf:resource="http://purl.org/dc/dcmitype/StillImage"/>
    <dc:date>2021-04-27T05:13:21.129888</dc:date>
    <dc:format>image/svg+xml</dc:format>
    <dc:creator>
     <cc:Agent>
      <dc:title>Matplotlib v3.3.4, https://matplotlib.org/</dc:title>
     </cc:Agent>
    </dc:creator>
   </cc:Work>
  </rdf:RDF>
 </metadata>
 <defs>
  <style type="text/css">*{stroke-linecap:butt;stroke-linejoin:round;}</style>
 </defs>
 <g id="figure_1">
  <g id="patch_1">
   <path d="M 0 345.6 
L 460.8 345.6 
L 460.8 0 
L 0 0 
z
" style="fill:#ffffff;"/>
  </g>
  <g id="axes_1">
   <g id="patch_2">
    <path d="M 62.208 293.76 
L 460.8 293.76 
L 460.8 3.456 
L 62.208 3.456 
z
" style="fill:#ffffff;"/>
   </g>
   <g id="line2d_1"/>
   <g id="line2d_2">
    <path clip-path="url(#p42bcae5c56)" style="fill:none;stroke:#f5deb3;stroke-linecap:square;stroke-width:1.5;"/>
   </g>
   <g id="line2d_3"/>
   <g id="line2d_4"/>
   <g id="line2d_5"/>
   <g id="line2d_6"/>
   <g id="line2d_7">
    <path clip-path="url(#p42bcae5c56)" d="M 417.273233 293.76 
L 417.273233 289.927604 
L 448.054853 289.927604 
L 448.054853 286.095208 
L 455.605128 286.095208 
L 455.605128 282.262812 
L 456.255894 282.262812 
L 456.255894 278.430416 
L 457.121736 278.430416 
L 457.121736 274.59802 
L 461.8 274.59802 
L 461.8 274.59802 
" style="fill:none;stroke:#f5deb3;stroke-linecap:square;stroke-width:1.5;"/>
   </g>
   <g id="line2d_8">
    <path clip-path="url(#p42bcae5c56)" d="M 439.871951 293.76 
L 439.871951 289.927604 
L 441.641022 289.927604 
L 441.641022 286.095208 
L 442.184562 286.095208 
L 442.184562 282.262812 
L 442.411037 282.262812 
L 442.411037 278.430416 
L 443.059903 278.430416 
L 443.059903 274.59802 
L 443.079092 274.59802 
L 443.079092 270.765624 
L 461.51401 270.765624 
L 461.51401 266.933228 
L 461.8 266.933228 
" style="fill:none;stroke:#f5deb3;stroke-linecap:square;stroke-width:1.5;"/>
   </g>
   <g id="line2d_9">
    <path clip-path="url(#p42bcae5c56)" d="M 291.169363 293.76 
L 291.169363 289.927604 
L 340.087134 289.927604 
L 340.087134 286.095208 
L 340.82942 286.095208 
L 340.82942 282.262812 
L 341.745874 282.262812 
L 341.745874 278.430416 
L 345.639248 278.430416 
L 345.639248 274.59802 
L 350.892264 274.59802 
L 350.892264 270.765624 
L 351.501438 270.765624 
L 351.501438 266.933228 
L 351.707404 266.933228 
L 351.707404 263.100832 
L 352.822175 263.100832 
L 352.836456 255.43604 
L 353.163561 255.43604 
L 353.163561 251.603644 
L 353.572332 251.603644 
L 353.572332 247.771248 
L 362.85188 247.771248 
L 362.85188 243.938851 
L 369.244386 243.938851 
L 369.244386 240.106455 
L 370.234486 240.106455 
L 370.234486 236.274059 
L 371.388399 236.274059 
L 371.388399 232.441663 
L 372.31998 232.441663 
L 372.31998 228.609267 
L 373.750002 228.609267 
L 373.818716 220.944475 
L 379.676845 220.944475 
L 379.676845 217.112079 
L 380.99921 217.112079 
L 380.99921 213.279683 
L 382.08079 213.279683 
L 382.08079 209.447287 
L 382.392139 209.447287 
L 382.392139 205.614891 
L 382.73573 205.614891 
L 382.73573 201.782495 
L 382.897852 201.782495 
L 383.001001 194.117703 
L 383.141556 194.117703 
L 383.141556 190.285307 
L 383.445023 190.285307 
L 383.445023 186.452911 
L 384.716161 186.452911 
L 384.716161 182.620515 
L 384.841145 182.620515 
L 384.841145 178.788119 
L 385.063859 178.788119 
L 385.063859 174.955723 
L 385.618658 174.955723 
L 385.618658 171.123327 
L 386.43552 171.123327 
L 386.43552 167.290931 
L 387.640442 167.290931 
L 387.692572 159.626139 
L 388.258672 159.626139 
L 388.258672 155.793743 
L 389.473859 155.793743 
L 389.582308 148.12895 
L 394.408113 148.12895 
L 394.408113 144.296554 
L 401.427435 144.296554 
L 401.427435 140.464158 
L 401.762065 140.464158 
L 401.809959 132.799366 
L 403.210985 132.799366 
L 403.210985 128.96697 
L 408.155519 128.96697 
L 408.155519 125.134574 
L 410.400589 125.134574 
L 410.400589 121.302178 
L 411.71651 121.302178 
L 411.71651 117.469782 
L 414.49819 117.469782 
L 414.49819 113.637386 
L 415.073079 113.637386 
L 415.073079 109.80499 
L 416.302033 109.80499 
L 416.302033 105.972594 
L 417.237335 105.972594 
L 417.237335 102.140198 
L 417.462673 102.140198 
L 417.462673 98.307802 
L 423.322369 98.307802 
L 423.322369 94.475406 
L 425.388243 94.475406 
L 425.42261 86.810614 
L 426.03031 86.810614 
L 426.03031 82.978218 
L 426.473997 82.978218 
L 426.473997 79.145822 
L 426.655383 79.145822 
L 426.655383 75.313426 
L 429.309091 75.313426 
L 429.309091 71.48103 
L 432.118385 71.48103 
L 432.118385 67.648634 
L 432.358592 67.648634 
L 432.358592 63.816238 
L 435.900337 63.816238 
L 435.900337 59.983842 
L 438.786359 59.983842 
L 438.786359 56.151446 
L 442.151055 56.151446 
L 442.151055 52.31905 
L 442.884388 52.31905 
L 442.884388 48.486653 
L 460.673457 48.486653 
L 460.673457 44.654257 
L 461.8 44.654257 
L 461.8 44.654257 
" style="fill:none;stroke:#f5deb3;stroke-linecap:square;stroke-width:1.5;"/>
   </g>
   <g id="line2d_10"/>
   <g id="line2d_11">
    <path clip-path="url(#p42bcae5c56)" style="fill:none;stroke:#f5deb3;stroke-linecap:square;stroke-width:1.5;"/>
   </g>
   <g id="line2d_12"/>
   <g id="line2d_13"/>
   <g id="line2d_14"/>
   <g id="line2d_15"/>
   <g id="line2d_16"/>
   <g id="line2d_17">
    <path clip-path="url(#p42bcae5c56)" d="M 431.865229 293.76 
L 431.865229 289.927604 
L 434.654315 289.927604 
L 434.654315 286.095208 
L 435.875592 286.095208 
L 435.875592 282.262812 
L 437.531713 282.262812 
L 437.531713 278.430416 
L 440.744834 278.430416 
L 440.744834 274.59802 
L 440.893452 274.59802 
L 440.893452 270.765624 
L 442.428906 270.765624 
L 442.428906 266.933228 
L 442.853054 266.933228 
L 442.853054 263.100832 
L 443.019897 263.100832 
L 443.019897 259.268436 
L 446.932391 259.268436 
L 446.932391 255.43604 
L 447.504264 255.43604 
L 447.504264 251.603644 
L 456.399638 251.603644 
L 456.399638 247.771248 
L 461.8 247.771248 
" style="fill:none;stroke:#f5deb3;stroke-linecap:square;stroke-width:1.5;"/>
   </g>
   <g id="line2d_18"/>
   <g id="line2d_19">
    <path clip-path="url(#p42bcae5c56)" d="M 451.820706 293.76 
L 451.820706 289.927604 
L 461.8 289.927604 
L 461.8 289.927604 
" style="fill:none;stroke:#f5deb3;stroke-linecap:square;stroke-width:1.5;"/>
   </g>
   <g id="line2d_20">
    <path clip-path="url(#p42bcae5c56)" d="M 433.623611 293.76 
L 433.623611 289.927604 
L 433.623611 289.927604 
L 433.623611 289.927604 
L 460.8 289.927604 
" style="fill:none;stroke:#f5deb3;stroke-linecap:square;stroke-width:1.5;"/>
   </g>
   <g id="line2d_21"/>
   <g id="line2d_22">
    <path clip-path="url(#p42bcae5c56)" d="M 451.99041 293.76 
L 451.99041 289.927604 
L 461.8 289.927604 
" style="fill:none;stroke:#f5deb3;stroke-linecap:square;stroke-width:1.5;"/>
   </g>
   <g id="line2d_23">
    <path clip-path="url(#p42bcae5c56)" style="fill:none;stroke:#f5deb3;stroke-linecap:square;stroke-width:1.5;"/>
   </g>
   <g id="line2d_24">
    <path clip-path="url(#p42bcae5c56)" d="M 327.169442 293.76 
L 327.169442 289.927604 
L 330.797742 289.927604 
L 330.797742 286.095208 
L 333.015863 286.095208 
L 333.015863 282.262812 
L 338.419646 282.262812 
L 338.419646 278.430416 
L 341.913718 278.430416 
L 341.913718 274.59802 
L 406.612386 274.59802 
L 406.612386 270.765624 
L 408.69477 270.765624 
L 408.69477 266.933228 
L 409.177958 266.933228 
L 409.177958 263.100832 
L 409.348644 263.100832 
L 409.348644 259.268436 
L 410.979413 259.268436 
L 410.979413 255.43604 
L 411.340114 255.43604 
L 411.445301 247.771248 
L 413.142384 247.771248 
L 413.142384 243.938851 
L 413.537136 243.938851 
L 413.63197 236.274059 
L 413.845364 236.274059 
L 413.845364 232.441663 
L 414.239908 232.441663 
L 414.239908 228.609267 
L 417.073905 228.609267 
L 417.073905 224.776871 
L 419.647954 224.776871 
L 419.647954 220.944475 
L 420.28518 220.944475 
L 420.28518 217.112079 
L 420.524904 217.112079 
L 420.524904 213.279683 
L 421.468744 213.279683 
L 421.468744 209.447287 
L 421.670806 209.447287 
L 421.670806 205.614891 
L 421.945364 205.614891 
L 422.04802 197.950099 
L 422.532504 197.950099 
L 422.532504 194.117703 
L 422.671762 194.117703 
L 422.671762 190.285307 
L 423.209899 190.285307 
L 423.209899 186.452911 
L 423.655388 186.452911 
L 423.655388 182.620515 
L 423.785803 182.620515 
L 423.785803 178.788119 
L 424.088511 178.788119 
L 424.088511 174.955723 
L 424.3953 174.955723 
L 424.439301 167.290931 
L 426.175123 167.290931 
L 426.196801 159.626139 
L 426.80158 159.626139 
L 426.80158 155.793743 
L 427.647119 155.793743 
L 427.647119 151.961347 
L 428.926611 151.961347 
L 428.926611 148.12895 
L 429.261056 148.12895 
L 429.261056 144.296554 
L 432.72606 144.296554 
L 432.72606 140.464158 
L 434.912399 140.464158 
L 434.912399 136.631762 
L 440.324807 136.631762 
L 440.324807 132.799366 
L 447.59678 132.799366 
L 447.59678 128.96697 
L 447.786896 128.96697 
L 447.786896 125.134574 
L 448.689673 125.134574 
L 448.689673 121.302178 
L 450.939752 121.302178 
L 450.939752 117.469782 
L 452.068253 117.469782 
L 452.068253 113.637386 
L 454.069164 113.637386 
L 454.069164 109.80499 
L 455.231232 109.80499 
L 455.231232 105.972594 
L 460.576323 105.972594 
L 460.576323 102.140198 
L 461.8 102.140198 
L 461.8 102.140198 
" style="fill:none;stroke:#f5deb3;stroke-linecap:square;stroke-width:1.5;"/>
   </g>
   <g id="line2d_25">
    <path clip-path="url(#p42bcae5c56)" d="M 452.59448 293.76 
L 452.59448 289.927604 
L 456.044003 289.927604 
L 456.044003 286.095208 
L 456.253571 286.095208 
L 456.253571 282.262812 
L 457.721161 282.262812 
L 457.721161 278.430416 
L 459.608242 278.430416 
L 459.608242 274.59802 
L 460.343525 274.59802 
L 460.343525 270.765624 
L 460.657284 270.765624 
L 460.657284 266.933228 
L 461.541088 266.933228 
L 461.541088 263.100832 
L 461.582948 263.100832 
L 461.582948 259.268436 
L 461.8 259.268436 
" style="fill:none;stroke:#f5deb3;stroke-linecap:square;stroke-width:1.5;"/>
   </g>
   <g id="line2d_26">
    <path clip-path="url(#p42bcae5c56)" d="M 391.587622 293.76 
L 391.587622 289.927604 
L 394.799418 289.927604 
L 394.799418 286.095208 
L 403.533585 286.095208 
L 403.533585 282.262812 
L 404.888251 282.262812 
L 404.888251 278.430416 
L 406.334542 278.430416 
L 406.334542 274.59802 
L 408.161115 274.59802 
L 408.161115 270.765624 
L 411.224271 270.765624 
L 411.224271 266.933228 
L 419.465483 266.933228 
L 419.465483 263.100832 
L 423.588742 263.100832 
L 423.588742 259.268436 
L 434.311625 259.268436 
L 434.311625 255.43604 
L 436.609691 255.43604 
L 436.609691 251.603644 
L 448.242167 251.603644 
L 448.242167 247.771248 
L 455.113803 247.771248 
L 455.113803 243.938851 
L 456.159979 243.938851 
L 456.159979 240.106455 
L 461.8 240.106455 
" style="fill:none;stroke:#f5deb3;stroke-linecap:square;stroke-width:1.5;"/>
   </g>
   <g id="line2d_27"/>
   <g id="line2d_28">
    <path clip-path="url(#p42bcae5c56)" d="M 316.523421 293.76 
L 316.523421 289.927604 
L 331.438623 289.927604 
L 331.438623 286.095208 
L 379.141066 286.095208 
L 379.141066 282.262812 
L 393.398606 282.262812 
L 393.398606 278.430416 
L 397.487578 278.430416 
L 397.487578 274.59802 
L 399.904132 274.59802 
L 399.904132 270.765624 
L 419.39596 270.765624 
L 419.39596 266.933228 
L 420.262938 266.933228 
L 420.262938 263.100832 
L 422.365035 263.100832 
L 422.365035 259.268436 
L 423.252596 259.268436 
L 423.252596 255.43604 
L 424.431761 255.43604 
L 424.431761 251.603644 
L 426.830046 251.603644 
L 426.830046 247.771248 
L 427.979384 247.771248 
L 427.979384 243.938851 
L 429.169297 243.938851 
L 429.169297 240.106455 
L 429.872384 240.106455 
L 429.872384 236.274059 
L 436.393087 236.274059 
L 436.393087 232.441663 
L 436.641476 232.441663 
L 436.641476 228.609267 
L 437.276686 228.609267 
L 437.368604 220.944475 
L 437.731509 220.944475 
L 437.731509 217.112079 
L 446.443186 217.112079 
L 446.443186 213.279683 
L 448.605174 213.279683 
L 448.605174 209.447287 
L 449.576513 209.447287 
L 449.576513 205.614891 
L 450.334214 205.614891 
L 450.334214 201.782495 
L 450.936449 201.782495 
L 451.042671 194.117703 
L 453.440498 194.117703 
L 453.440498 190.285307 
L 453.62039 190.285307 
L 453.62039 186.452911 
L 454.220726 186.452911 
L 454.220726 182.620515 
L 457.886132 182.620515 
L 457.886132 178.788119 
L 459.467226 178.788119 
L 459.467226 174.955723 
L 459.661735 174.955723 
L 459.661735 171.123327 
L 459.911159 171.123327 
L 459.911159 167.290931 
L 460.775566 167.290931 
L 460.775566 163.458535 
L 461.8 163.458535 
L 461.8 163.458535 
" style="fill:none;stroke:#f5deb3;stroke-linecap:square;stroke-width:1.5;"/>
   </g>
   <g id="line2d_29"/>
   <g id="line2d_30"/>
   <g id="matplotlib.axis_1">
    <g id="xtick_1">
     <g id="line2d_31">
      <path clip-path="url(#p42bcae5c56)" d="M 62.208 293.76 
L 62.208 3.456 
" style="fill:none;stroke:#b0b0b0;stroke-linecap:square;stroke-width:0.8;"/>
     </g>
     <g id="line2d_32">
      <defs>
       <path d="M 0 0 
L 0 3.5 
" id="mb79b9d98fe" style="stroke:#000000;stroke-width:0.8;"/>
      </defs>
      <g>
       <use style="stroke:#000000;stroke-width:0.8;" x="62.208" xlink:href="#mb79b9d98fe" y="293.76"/>
      </g>
     </g>
     <g id="text_1">
      <!-- 0 -->
      <g transform="translate(55.8455 315.956875)scale(0.2 -0.2)">
       <defs>
        <path d="M 31.78125 66.40625 
Q 24.171875 66.40625 20.328125 58.90625 
Q 16.5 51.421875 16.5 36.375 
Q 16.5 21.390625 20.328125 13.890625 
Q 24.171875 6.390625 31.78125 6.390625 
Q 39.453125 6.390625 43.28125 13.890625 
Q 47.125 21.390625 47.125 36.375 
Q 47.125 51.421875 43.28125 58.90625 
Q 39.453125 66.40625 31.78125 66.40625 
z
M 31.78125 74.21875 
Q 44.046875 74.21875 50.515625 64.515625 
Q 56.984375 54.828125 56.984375 36.375 
Q 56.984375 17.96875 50.515625 8.265625 
Q 44.046875 -1.421875 31.78125 -1.421875 
Q 19.53125 -1.421875 13.0625 8.265625 
Q 6.59375 17.96875 6.59375 36.375 
Q 6.59375 54.828125 13.0625 64.515625 
Q 19.53125 74.21875 31.78125 74.21875 
z
" id="DejaVuSans-48"/>
       </defs>
       <use xlink:href="#DejaVuSans-48"/>
      </g>
     </g>
    </g>
    <g id="xtick_2">
     <g id="line2d_33">
      <path clip-path="url(#p42bcae5c56)" d="M 252.010417 293.76 
L 252.010417 3.456 
" style="fill:none;stroke:#b0b0b0;stroke-linecap:square;stroke-width:0.8;"/>
     </g>
     <g id="line2d_34">
      <g>
       <use style="stroke:#000000;stroke-width:0.8;" x="252.010417" xlink:href="#mb79b9d98fe" y="293.76"/>
      </g>
     </g>
     <g id="text_2">
      <!-- 2 -->
      <g transform="translate(245.647917 315.956875)scale(0.2 -0.2)">
       <defs>
        <path d="M 19.1875 8.296875 
L 53.609375 8.296875 
L 53.609375 0 
L 7.328125 0 
L 7.328125 8.296875 
Q 12.9375 14.109375 22.625 23.890625 
Q 32.328125 33.6875 34.8125 36.53125 
Q 39.546875 41.84375 41.421875 45.53125 
Q 43.3125 49.21875 43.3125 52.78125 
Q 43.3125 58.59375 39.234375 62.25 
Q 35.15625 65.921875 28.609375 65.921875 
Q 23.96875 65.921875 18.8125 64.3125 
Q 13.671875 62.703125 7.8125 59.421875 
L 7.8125 69.390625 
Q 13.765625 71.78125 18.9375 73 
Q 24.125 74.21875 28.421875 74.21875 
Q 39.75 74.21875 46.484375 68.546875 
Q 53.21875 62.890625 53.21875 53.421875 
Q 53.21875 48.921875 51.53125 44.890625 
Q 49.859375 40.875 45.40625 35.40625 
Q 44.1875 33.984375 37.640625 27.21875 
Q 31.109375 20.453125 19.1875 8.296875 
z
" id="DejaVuSans-50"/>
       </defs>
       <use xlink:href="#DejaVuSans-50"/>
      </g>
     </g>
    </g>
    <g id="xtick_3">
     <g id="line2d_35">
      <path clip-path="url(#p42bcae5c56)" d="M 441.812835 293.76 
L 441.812835 3.456 
" style="fill:none;stroke:#b0b0b0;stroke-linecap:square;stroke-width:0.8;"/>
     </g>
     <g id="line2d_36">
      <g>
       <use style="stroke:#000000;stroke-width:0.8;" x="441.812835" xlink:href="#mb79b9d98fe" y="293.76"/>
      </g>
     </g>
     <g id="text_3">
      <!-- 4 -->
      <g transform="translate(435.450335 315.956875)scale(0.2 -0.2)">
       <defs>
        <path d="M 37.796875 64.3125 
L 12.890625 25.390625 
L 37.796875 25.390625 
z
M 35.203125 72.90625 
L 47.609375 72.90625 
L 47.609375 25.390625 
L 58.015625 25.390625 
L 58.015625 17.1875 
L 47.609375 17.1875 
L 47.609375 0 
L 37.796875 0 
L 37.796875 17.1875 
L 4.890625 17.1875 
L 4.890625 26.703125 
z
" id="DejaVuSans-52"/>
       </defs>
       <use xlink:href="#DejaVuSans-52"/>
      </g>
     </g>
    </g>
    <g id="xtick_4">
     <g id="line2d_37">
      <path clip-path="url(#p42bcae5c56)" d="M 90.77611 293.76 
L 90.77611 3.456 
" style="fill:none;stroke:#b0b0b0;stroke-linecap:square;stroke-width:0.8;"/>
     </g>
     <g id="line2d_38">
      <defs>
       <path d="M 0 0 
L 0 2 
" id="mbd0eb5b607" style="stroke:#000000;stroke-width:0.6;"/>
      </defs>
      <g>
       <use style="stroke:#000000;stroke-width:0.6;" x="90.77611" xlink:href="#mbd0eb5b607" y="293.76"/>
      </g>
     </g>
    </g>
    <g id="xtick_5">
     <g id="line2d_39">
      <path clip-path="url(#p42bcae5c56)" d="M 107.487384 293.76 
L 107.487384 3.456 
" style="fill:none;stroke:#b0b0b0;stroke-linecap:square;stroke-width:0.8;"/>
     </g>
     <g id="line2d_40">
      <g>
       <use style="stroke:#000000;stroke-width:0.6;" x="107.487384" xlink:href="#mbd0eb5b607" y="293.76"/>
      </g>
     </g>
    </g>
    <g id="xtick_6">
     <g id="line2d_41">
      <path clip-path="url(#p42bcae5c56)" d="M 119.344221 293.76 
L 119.344221 3.456 
" style="fill:none;stroke:#b0b0b0;stroke-linecap:square;stroke-width:0.8;"/>
     </g>
     <g id="line2d_42">
      <g>
       <use style="stroke:#000000;stroke-width:0.6;" x="119.344221" xlink:href="#mbd0eb5b607" y="293.76"/>
      </g>
     </g>
    </g>
    <g id="xtick_7">
     <g id="line2d_43">
      <path clip-path="url(#p42bcae5c56)" d="M 128.541098 293.76 
L 128.541098 3.456 
" style="fill:none;stroke:#b0b0b0;stroke-linecap:square;stroke-width:0.8;"/>
     </g>
     <g id="line2d_44">
      <g>
       <use style="stroke:#000000;stroke-width:0.6;" x="128.541098" xlink:href="#mbd0eb5b607" y="293.76"/>
      </g>
     </g>
    </g>
    <g id="xtick_8">
     <g id="line2d_45">
      <path clip-path="url(#p42bcae5c56)" d="M 136.055494 293.76 
L 136.055494 3.456 
" style="fill:none;stroke:#b0b0b0;stroke-linecap:square;stroke-width:0.8;"/>
     </g>
     <g id="line2d_46">
      <g>
       <use style="stroke:#000000;stroke-width:0.6;" x="136.055494" xlink:href="#mbd0eb5b607" y="293.76"/>
      </g>
     </g>
    </g>
    <g id="xtick_9">
     <g id="line2d_47">
      <path clip-path="url(#p42bcae5c56)" d="M 142.408825 293.76 
L 142.408825 3.456 
" style="fill:none;stroke:#b0b0b0;stroke-linecap:square;stroke-width:0.8;"/>
     </g>
     <g id="line2d_48">
      <g>
       <use style="stroke:#000000;stroke-width:0.6;" x="142.408825" xlink:href="#mbd0eb5b607" y="293.76"/>
      </g>
     </g>
    </g>
    <g id="xtick_10">
     <g id="line2d_49">
      <path clip-path="url(#p42bcae5c56)" d="M 147.912331 293.76 
L 147.912331 3.456 
" style="fill:none;stroke:#b0b0b0;stroke-linecap:square;stroke-width:0.8;"/>
     </g>
     <g id="line2d_50">
      <g>
       <use style="stroke:#000000;stroke-width:0.6;" x="147.912331" xlink:href="#mbd0eb5b607" y="293.76"/>
      </g>
     </g>
    </g>
    <g id="xtick_11">
     <g id="line2d_51">
      <path clip-path="url(#p42bcae5c56)" d="M 152.766768 293.76 
L 152.766768 3.456 
" style="fill:none;stroke:#b0b0b0;stroke-linecap:square;stroke-width:0.8;"/>
     </g>
     <g id="line2d_52">
      <g>
       <use style="stroke:#000000;stroke-width:0.6;" x="152.766768" xlink:href="#mbd0eb5b607" y="293.76"/>
      </g>
     </g>
    </g>
    <g id="xtick_12">
     <g id="line2d_53">
      <path clip-path="url(#p42bcae5c56)" d="M 185.677319 293.76 
L 185.677319 3.456 
" style="fill:none;stroke:#b0b0b0;stroke-linecap:square;stroke-width:0.8;"/>
     </g>
     <g id="line2d_54">
      <g>
       <use style="stroke:#000000;stroke-width:0.6;" x="185.677319" xlink:href="#mbd0eb5b607" y="293.76"/>
      </g>
     </g>
    </g>
    <g id="xtick_13">
     <g id="line2d_55">
      <path clip-path="url(#p42bcae5c56)" d="M 202.388592 293.76 
L 202.388592 3.456 
" style="fill:none;stroke:#b0b0b0;stroke-linecap:square;stroke-width:0.8;"/>
     </g>
     <g id="line2d_56">
      <g>
       <use style="stroke:#000000;stroke-width:0.6;" x="202.388592" xlink:href="#mbd0eb5b607" y="293.76"/>
      </g>
     </g>
    </g>
    <g id="xtick_14">
     <g id="line2d_57">
      <path clip-path="url(#p42bcae5c56)" d="M 214.24543 293.76 
L 214.24543 3.456 
" style="fill:none;stroke:#b0b0b0;stroke-linecap:square;stroke-width:0.8;"/>
     </g>
     <g id="line2d_58">
      <g>
       <use style="stroke:#000000;stroke-width:0.6;" x="214.24543" xlink:href="#mbd0eb5b607" y="293.76"/>
      </g>
     </g>
    </g>
    <g id="xtick_15">
     <g id="line2d_59">
      <path clip-path="url(#p42bcae5c56)" d="M 223.442307 293.76 
L 223.442307 3.456 
" style="fill:none;stroke:#b0b0b0;stroke-linecap:square;stroke-width:0.8;"/>
     </g>
     <g id="line2d_60">
      <g>
       <use style="stroke:#000000;stroke-width:0.6;" x="223.442307" xlink:href="#mbd0eb5b607" y="293.76"/>
      </g>
     </g>
    </g>
    <g id="xtick_16">
     <g id="line2d_61">
      <path clip-path="url(#p42bcae5c56)" d="M 230.956703 293.76 
L 230.956703 3.456 
" style="fill:none;stroke:#b0b0b0;stroke-linecap:square;stroke-width:0.8;"/>
     </g>
     <g id="line2d_62">
      <g>
       <use style="stroke:#000000;stroke-width:0.6;" x="230.956703" xlink:href="#mbd0eb5b607" y="293.76"/>
      </g>
     </g>
    </g>
    <g id="xtick_17">
     <g id="line2d_63">
      <path clip-path="url(#p42bcae5c56)" d="M 237.310034 293.76 
L 237.310034 3.456 
" style="fill:none;stroke:#b0b0b0;stroke-linecap:square;stroke-width:0.8;"/>
     </g>
     <g id="line2d_64">
      <g>
       <use style="stroke:#000000;stroke-width:0.6;" x="237.310034" xlink:href="#mbd0eb5b607" y="293.76"/>
      </g>
     </g>
    </g>
    <g id="xtick_18">
     <g id="line2d_65">
      <path clip-path="url(#p42bcae5c56)" d="M 242.81354 293.76 
L 242.81354 3.456 
" style="fill:none;stroke:#b0b0b0;stroke-linecap:square;stroke-width:0.8;"/>
     </g>
     <g id="line2d_66">
      <g>
       <use style="stroke:#000000;stroke-width:0.6;" x="242.81354" xlink:href="#mbd0eb5b607" y="293.76"/>
      </g>
     </g>
    </g>
    <g id="xtick_19">
     <g id="line2d_67">
      <path clip-path="url(#p42bcae5c56)" d="M 247.667976 293.76 
L 247.667976 3.456 
" style="fill:none;stroke:#b0b0b0;stroke-linecap:square;stroke-width:0.8;"/>
     </g>
     <g id="line2d_68">
      <g>
       <use style="stroke:#000000;stroke-width:0.6;" x="247.667976" xlink:href="#mbd0eb5b607" y="293.76"/>
      </g>
     </g>
    </g>
    <g id="xtick_20">
     <g id="line2d_69">
      <path clip-path="url(#p42bcae5c56)" d="M 280.578528 293.76 
L 280.578528 3.456 
" style="fill:none;stroke:#b0b0b0;stroke-linecap:square;stroke-width:0.8;"/>
     </g>
     <g id="line2d_70">
      <g>
       <use style="stroke:#000000;stroke-width:0.6;" x="280.578528" xlink:href="#mbd0eb5b607" y="293.76"/>
      </g>
     </g>
    </g>
    <g id="xtick_21">
     <g id="line2d_71">
      <path clip-path="url(#p42bcae5c56)" d="M 297.289801 293.76 
L 297.289801 3.456 
" style="fill:none;stroke:#b0b0b0;stroke-linecap:square;stroke-width:0.8;"/>
     </g>
     <g id="line2d_72">
      <g>
       <use style="stroke:#000000;stroke-width:0.6;" x="297.289801" xlink:href="#mbd0eb5b607" y="293.76"/>
      </g>
     </g>
    </g>
    <g id="xtick_22">
     <g id="line2d_73">
      <path clip-path="url(#p42bcae5c56)" d="M 309.146638 293.76 
L 309.146638 3.456 
" style="fill:none;stroke:#b0b0b0;stroke-linecap:square;stroke-width:0.8;"/>
     </g>
     <g id="line2d_74">
      <g>
       <use style="stroke:#000000;stroke-width:0.6;" x="309.146638" xlink:href="#mbd0eb5b607" y="293.76"/>
      </g>
     </g>
    </g>
    <g id="xtick_23">
     <g id="line2d_75">
      <path clip-path="url(#p42bcae5c56)" d="M 318.343516 293.76 
L 318.343516 3.456 
" style="fill:none;stroke:#b0b0b0;stroke-linecap:square;stroke-width:0.8;"/>
     </g>
     <g id="line2d_76">
      <g>
       <use style="stroke:#000000;stroke-width:0.6;" x="318.343516" xlink:href="#mbd0eb5b607" y="293.76"/>
      </g>
     </g>
    </g>
    <g id="xtick_24">
     <g id="line2d_77">
      <path clip-path="url(#p42bcae5c56)" d="M 325.857912 293.76 
L 325.857912 3.456 
" style="fill:none;stroke:#b0b0b0;stroke-linecap:square;stroke-width:0.8;"/>
     </g>
     <g id="line2d_78">
      <g>
       <use style="stroke:#000000;stroke-width:0.6;" x="325.857912" xlink:href="#mbd0eb5b607" y="293.76"/>
      </g>
     </g>
    </g>
    <g id="xtick_25">
     <g id="line2d_79">
      <path clip-path="url(#p42bcae5c56)" d="M 332.211243 293.76 
L 332.211243 3.456 
" style="fill:none;stroke:#b0b0b0;stroke-linecap:square;stroke-width:0.8;"/>
     </g>
     <g id="line2d_80">
      <g>
       <use style="stroke:#000000;stroke-width:0.6;" x="332.211243" xlink:href="#mbd0eb5b607" y="293.76"/>
      </g>
     </g>
    </g>
    <g id="xtick_26">
     <g id="line2d_81">
      <path clip-path="url(#p42bcae5c56)" d="M 337.714749 293.76 
L 337.714749 3.456 
" style="fill:none;stroke:#b0b0b0;stroke-linecap:square;stroke-width:0.8;"/>
     </g>
     <g id="line2d_82">
      <g>
       <use style="stroke:#000000;stroke-width:0.6;" x="337.714749" xlink:href="#mbd0eb5b607" y="293.76"/>
      </g>
     </g>
    </g>
    <g id="xtick_27">
     <g id="line2d_83">
      <path clip-path="url(#p42bcae5c56)" d="M 342.569185 293.76 
L 342.569185 3.456 
" style="fill:none;stroke:#b0b0b0;stroke-linecap:square;stroke-width:0.8;"/>
     </g>
     <g id="line2d_84">
      <g>
       <use style="stroke:#000000;stroke-width:0.6;" x="342.569185" xlink:href="#mbd0eb5b607" y="293.76"/>
      </g>
     </g>
    </g>
    <g id="xtick_28">
     <g id="line2d_85">
      <path clip-path="url(#p42bcae5c56)" d="M 375.479736 293.76 
L 375.479736 3.456 
" style="fill:none;stroke:#b0b0b0;stroke-linecap:square;stroke-width:0.8;"/>
     </g>
     <g id="line2d_86">
      <g>
       <use style="stroke:#000000;stroke-width:0.6;" x="375.479736" xlink:href="#mbd0eb5b607" y="293.76"/>
      </g>
     </g>
    </g>
    <g id="xtick_29">
     <g id="line2d_87">
      <path clip-path="url(#p42bcae5c56)" d="M 392.19101 293.76 
L 392.19101 3.456 
" style="fill:none;stroke:#b0b0b0;stroke-linecap:square;stroke-width:0.8;"/>
     </g>
     <g id="line2d_88">
      <g>
       <use style="stroke:#000000;stroke-width:0.6;" x="392.19101" xlink:href="#mbd0eb5b607" y="293.76"/>
      </g>
     </g>
    </g>
    <g id="xtick_30">
     <g id="line2d_89">
      <path clip-path="url(#p42bcae5c56)" d="M 404.047847 293.76 
L 404.047847 3.456 
" style="fill:none;stroke:#b0b0b0;stroke-linecap:square;stroke-width:0.8;"/>
     </g>
     <g id="line2d_90">
      <g>
       <use style="stroke:#000000;stroke-width:0.6;" x="404.047847" xlink:href="#mbd0eb5b607" y="293.76"/>
      </g>
     </g>
    </g>
    <g id="xtick_31">
     <g id="line2d_91">
      <path clip-path="url(#p42bcae5c56)" d="M 413.244724 293.76 
L 413.244724 3.456 
" style="fill:none;stroke:#b0b0b0;stroke-linecap:square;stroke-width:0.8;"/>
     </g>
     <g id="line2d_92">
      <g>
       <use style="stroke:#000000;stroke-width:0.6;" x="413.244724" xlink:href="#mbd0eb5b607" y="293.76"/>
      </g>
     </g>
    </g>
    <g id="xtick_32">
     <g id="line2d_93">
      <path clip-path="url(#p42bcae5c56)" d="M 420.75912 293.76 
L 420.75912 3.456 
" style="fill:none;stroke:#b0b0b0;stroke-linecap:square;stroke-width:0.8;"/>
     </g>
     <g id="line2d_94">
      <g>
       <use style="stroke:#000000;stroke-width:0.6;" x="420.75912" xlink:href="#mbd0eb5b607" y="293.76"/>
      </g>
     </g>
    </g>
    <g id="xtick_33">
     <g id="line2d_95">
      <path clip-path="url(#p42bcae5c56)" d="M 427.112451 293.76 
L 427.112451 3.456 
" style="fill:none;stroke:#b0b0b0;stroke-linecap:square;stroke-width:0.8;"/>
     </g>
     <g id="line2d_96">
      <g>
       <use style="stroke:#000000;stroke-width:0.6;" x="427.112451" xlink:href="#mbd0eb5b607" y="293.76"/>
      </g>
     </g>
    </g>
    <g id="xtick_34">
     <g id="line2d_97">
      <path clip-path="url(#p42bcae5c56)" d="M 432.615957 293.76 
L 432.615957 3.456 
" style="fill:none;stroke:#b0b0b0;stroke-linecap:square;stroke-width:0.8;"/>
     </g>
     <g id="line2d_98">
      <g>
       <use style="stroke:#000000;stroke-width:0.6;" x="432.615957" xlink:href="#mbd0eb5b607" y="293.76"/>
      </g>
     </g>
    </g>
    <g id="xtick_35">
     <g id="line2d_99">
      <path clip-path="url(#p42bcae5c56)" d="M 437.470394 293.76 
L 437.470394 3.456 
" style="fill:none;stroke:#b0b0b0;stroke-linecap:square;stroke-width:0.8;"/>
     </g>
     <g id="line2d_100">
      <g>
       <use style="stroke:#000000;stroke-width:0.6;" x="437.470394" xlink:href="#mbd0eb5b607" y="293.76"/>
      </g>
     </g>
    </g>
    <g id="text_4">
     <!-- log10 of FEvals / DIM -->
     <g transform="translate(156.430563 339.313125)scale(0.2 -0.2)">
      <defs>
       <path d="M 9.421875 75.984375 
L 18.40625 75.984375 
L 18.40625 0 
L 9.421875 0 
z
" id="DejaVuSans-108"/>
       <path d="M 30.609375 48.390625 
Q 23.390625 48.390625 19.1875 42.75 
Q 14.984375 37.109375 14.984375 27.296875 
Q 14.984375 17.484375 19.15625 11.84375 
Q 23.34375 6.203125 30.609375 6.203125 
Q 37.796875 6.203125 41.984375 11.859375 
Q 46.1875 17.53125 46.1875 27.296875 
Q 46.1875 37.015625 41.984375 42.703125 
Q 37.796875 48.390625 30.609375 48.390625 
z
M 30.609375 56 
Q 42.328125 56 49.015625 48.375 
Q 55.71875 40.765625 55.71875 27.296875 
Q 55.71875 13.875 49.015625 6.21875 
Q 42.328125 -1.421875 30.609375 -1.421875 
Q 18.84375 -1.421875 12.171875 6.21875 
Q 5.515625 13.875 5.515625 27.296875 
Q 5.515625 40.765625 12.171875 48.375 
Q 18.84375 56 30.609375 56 
z
" id="DejaVuSans-111"/>
       <path d="M 45.40625 27.984375 
Q 45.40625 37.75 41.375 43.109375 
Q 37.359375 48.484375 30.078125 48.484375 
Q 22.859375 48.484375 18.828125 43.109375 
Q 14.796875 37.75 14.796875 27.984375 
Q 14.796875 18.265625 18.828125 12.890625 
Q 22.859375 7.515625 30.078125 7.515625 
Q 37.359375 7.515625 41.375 12.890625 
Q 45.40625 18.265625 45.40625 27.984375 
z
M 54.390625 6.78125 
Q 54.390625 -7.171875 48.1875 -13.984375 
Q 42 -20.796875 29.203125 -20.796875 
Q 24.46875 -20.796875 20.265625 -20.09375 
Q 16.0625 -19.390625 12.109375 -17.921875 
L 12.109375 -9.1875 
Q 16.0625 -11.328125 19.921875 -12.34375 
Q 23.78125 -13.375 27.78125 -13.375 
Q 36.625 -13.375 41.015625 -8.765625 
Q 45.40625 -4.15625 45.40625 5.171875 
L 45.40625 9.625 
Q 42.625 4.78125 38.28125 2.390625 
Q 33.9375 0 27.875 0 
Q 17.828125 0 11.671875 7.65625 
Q 5.515625 15.328125 5.515625 27.984375 
Q 5.515625 40.671875 11.671875 48.328125 
Q 17.828125 56 27.875 56 
Q 33.9375 56 38.28125 53.609375 
Q 42.625 51.21875 45.40625 46.390625 
L 45.40625 54.6875 
L 54.390625 54.6875 
z
" id="DejaVuSans-103"/>
       <path d="M 12.40625 8.296875 
L 28.515625 8.296875 
L 28.515625 63.921875 
L 10.984375 60.40625 
L 10.984375 69.390625 
L 28.421875 72.90625 
L 38.28125 72.90625 
L 38.28125 8.296875 
L 54.390625 8.296875 
L 54.390625 0 
L 12.40625 0 
z
" id="DejaVuSans-49"/>
       <path id="DejaVuSans-32"/>
       <path d="M 37.109375 75.984375 
L 37.109375 68.5 
L 28.515625 68.5 
Q 23.6875 68.5 21.796875 66.546875 
Q 19.921875 64.59375 19.921875 59.515625 
L 19.921875 54.6875 
L 34.71875 54.6875 
L 34.71875 47.703125 
L 19.921875 47.703125 
L 19.921875 0 
L 10.890625 0 
L 10.890625 47.703125 
L 2.296875 47.703125 
L 2.296875 54.6875 
L 10.890625 54.6875 
L 10.890625 58.5 
Q 10.890625 67.625 15.140625 71.796875 
Q 19.390625 75.984375 28.609375 75.984375 
z
" id="DejaVuSans-102"/>
       <path d="M 9.8125 72.90625 
L 51.703125 72.90625 
L 51.703125 64.59375 
L 19.671875 64.59375 
L 19.671875 43.109375 
L 48.578125 43.109375 
L 48.578125 34.8125 
L 19.671875 34.8125 
L 19.671875 0 
L 9.8125 0 
z
" id="DejaVuSans-70"/>
       <path d="M 9.8125 72.90625 
L 55.90625 72.90625 
L 55.90625 64.59375 
L 19.671875 64.59375 
L 19.671875 43.015625 
L 54.390625 43.015625 
L 54.390625 34.71875 
L 19.671875 34.71875 
L 19.671875 8.296875 
L 56.78125 8.296875 
L 56.78125 0 
L 9.8125 0 
z
" id="DejaVuSans-69"/>
       <path d="M 2.984375 54.6875 
L 12.5 54.6875 
L 29.59375 8.796875 
L 46.6875 54.6875 
L 56.203125 54.6875 
L 35.6875 0 
L 23.484375 0 
z
" id="DejaVuSans-118"/>
       <path d="M 34.28125 27.484375 
Q 23.390625 27.484375 19.1875 25 
Q 14.984375 22.515625 14.984375 16.5 
Q 14.984375 11.71875 18.140625 8.90625 
Q 21.296875 6.109375 26.703125 6.109375 
Q 34.1875 6.109375 38.703125 11.40625 
Q 43.21875 16.703125 43.21875 25.484375 
L 43.21875 27.484375 
z
M 52.203125 31.203125 
L 52.203125 0 
L 43.21875 0 
L 43.21875 8.296875 
Q 40.140625 3.328125 35.546875 0.953125 
Q 30.953125 -1.421875 24.3125 -1.421875 
Q 15.921875 -1.421875 10.953125 3.296875 
Q 6 8.015625 6 15.921875 
Q 6 25.140625 12.171875 29.828125 
Q 18.359375 34.515625 30.609375 34.515625 
L 43.21875 34.515625 
L 43.21875 35.40625 
Q 43.21875 41.609375 39.140625 45 
Q 35.0625 48.390625 27.6875 48.390625 
Q 23 48.390625 18.546875 47.265625 
Q 14.109375 46.140625 10.015625 43.890625 
L 10.015625 52.203125 
Q 14.9375 54.109375 19.578125 55.046875 
Q 24.21875 56 28.609375 56 
Q 40.484375 56 46.34375 49.84375 
Q 52.203125 43.703125 52.203125 31.203125 
z
" id="DejaVuSans-97"/>
       <path d="M 44.28125 53.078125 
L 44.28125 44.578125 
Q 40.484375 46.53125 36.375 47.5 
Q 32.28125 48.484375 27.875 48.484375 
Q 21.1875 48.484375 17.84375 46.4375 
Q 14.5 44.390625 14.5 40.28125 
Q 14.5 37.15625 16.890625 35.375 
Q 19.28125 33.59375 26.515625 31.984375 
L 29.59375 31.296875 
Q 39.15625 29.25 43.1875 25.515625 
Q 47.21875 21.78125 47.21875 15.09375 
Q 47.21875 7.46875 41.1875 3.015625 
Q 35.15625 -1.421875 24.609375 -1.421875 
Q 20.21875 -1.421875 15.453125 -0.5625 
Q 10.6875 0.296875 5.421875 2 
L 5.421875 11.28125 
Q 10.40625 8.6875 15.234375 7.390625 
Q 20.0625 6.109375 24.8125 6.109375 
Q 31.15625 6.109375 34.5625 8.28125 
Q 37.984375 10.453125 37.984375 14.40625 
Q 37.984375 18.0625 35.515625 20.015625 
Q 33.0625 21.96875 24.703125 23.78125 
L 21.578125 24.515625 
Q 13.234375 26.265625 9.515625 29.90625 
Q 5.8125 33.546875 5.8125 39.890625 
Q 5.8125 47.609375 11.28125 51.796875 
Q 16.75 56 26.8125 56 
Q 31.78125 56 36.171875 55.265625 
Q 40.578125 54.546875 44.28125 53.078125 
z
" id="DejaVuSans-115"/>
       <path d="M 25.390625 72.90625 
L 33.6875 72.90625 
L 8.296875 -9.28125 
L 0 -9.28125 
z
" id="DejaVuSans-47"/>
       <path d="M 19.671875 64.796875 
L 19.671875 8.109375 
L 31.59375 8.109375 
Q 46.6875 8.109375 53.6875 14.9375 
Q 60.6875 21.78125 60.6875 36.53125 
Q 60.6875 51.171875 53.6875 57.984375 
Q 46.6875 64.796875 31.59375 64.796875 
z
M 9.8125 72.90625 
L 30.078125 72.90625 
Q 51.265625 72.90625 61.171875 64.09375 
Q 71.09375 55.28125 71.09375 36.53125 
Q 71.09375 17.671875 61.125 8.828125 
Q 51.171875 0 30.078125 0 
L 9.8125 0 
z
" id="DejaVuSans-68"/>
       <path d="M 9.8125 72.90625 
L 19.671875 72.90625 
L 19.671875 0 
L 9.8125 0 
z
" id="DejaVuSans-73"/>
       <path d="M 9.8125 72.90625 
L 24.515625 72.90625 
L 43.109375 23.296875 
L 61.8125 72.90625 
L 76.515625 72.90625 
L 76.515625 0 
L 66.890625 0 
L 66.890625 64.015625 
L 48.09375 14.015625 
L 38.1875 14.015625 
L 19.390625 64.015625 
L 19.390625 0 
L 9.8125 0 
z
" id="DejaVuSans-77"/>
      </defs>
      <use xlink:href="#DejaVuSans-108"/>
      <use x="27.783203" xlink:href="#DejaVuSans-111"/>
      <use x="88.964844" xlink:href="#DejaVuSans-103"/>
      <use x="152.441406" xlink:href="#DejaVuSans-49"/>
      <use x="216.064453" xlink:href="#DejaVuSans-48"/>
      <use x="279.6875" xlink:href="#DejaVuSans-32"/>
      <use x="311.474609" xlink:href="#DejaVuSans-111"/>
      <use x="372.65625" xlink:href="#DejaVuSans-102"/>
      <use x="407.861328" xlink:href="#DejaVuSans-32"/>
      <use x="439.648438" xlink:href="#DejaVuSans-70"/>
      <use x="497.167969" xlink:href="#DejaVuSans-69"/>
      <use x="560.351562" xlink:href="#DejaVuSans-118"/>
      <use x="619.53125" xlink:href="#DejaVuSans-97"/>
      <use x="680.810547" xlink:href="#DejaVuSans-108"/>
      <use x="708.59375" xlink:href="#DejaVuSans-115"/>
      <use x="760.693359" xlink:href="#DejaVuSans-32"/>
      <use x="792.480469" xlink:href="#DejaVuSans-47"/>
      <use x="826.171875" xlink:href="#DejaVuSans-32"/>
      <use x="857.958984" xlink:href="#DejaVuSans-68"/>
      <use x="934.960938" xlink:href="#DejaVuSans-73"/>
      <use x="964.453125" xlink:href="#DejaVuSans-77"/>
     </g>
    </g>
   </g>
   <g id="matplotlib.axis_2">
    <g id="ytick_1">
     <g id="line2d_101">
      <path clip-path="url(#p42bcae5c56)" d="M 62.208 293.76 
L 460.8 293.76 
" style="fill:none;stroke:#b0b0b0;stroke-linecap:square;stroke-width:0.8;"/>
     </g>
     <g id="line2d_102">
      <defs>
       <path d="M 0 0 
L -3.5 0 
" id="mf6087df7ab" style="stroke:#000000;stroke-width:0.8;"/>
      </defs>
      <g>
       <use style="stroke:#000000;stroke-width:0.8;" x="62.208" xlink:href="#mf6087df7ab" y="293.76"/>
      </g>
     </g>
     <g id="text_5">
      <!-- 0.0 -->
      <g transform="translate(29.763 299.83875)scale(0.16 -0.16)">
       <defs>
        <path d="M 10.6875 12.40625 
L 21 12.40625 
L 21 0 
L 10.6875 0 
z
" id="DejaVuSans-46"/>
       </defs>
       <use xlink:href="#DejaVuSans-48"/>
       <use x="63.623047" xlink:href="#DejaVuSans-46"/>
       <use x="95.410156" xlink:href="#DejaVuSans-48"/>
      </g>
     </g>
    </g>
    <g id="ytick_2">
     <g id="line2d_103">
      <path clip-path="url(#p42bcae5c56)" d="M 62.208 236.274059 
L 460.8 236.274059 
" style="fill:none;stroke:#b0b0b0;stroke-linecap:square;stroke-width:0.8;"/>
     </g>
     <g id="line2d_104">
      <g>
       <use style="stroke:#000000;stroke-width:0.8;" x="62.208" xlink:href="#mf6087df7ab" y="236.274059"/>
      </g>
     </g>
     <g id="text_6">
      <!-- 0.2 -->
      <g transform="translate(29.763 242.352809)scale(0.16 -0.16)">
       <use xlink:href="#DejaVuSans-48"/>
       <use x="63.623047" xlink:href="#DejaVuSans-46"/>
       <use x="95.410156" xlink:href="#DejaVuSans-50"/>
      </g>
     </g>
    </g>
    <g id="ytick_3">
     <g id="line2d_105">
      <path clip-path="url(#p42bcae5c56)" d="M 62.208 178.788119 
L 460.8 178.788119 
" style="fill:none;stroke:#b0b0b0;stroke-linecap:square;stroke-width:0.8;"/>
     </g>
     <g id="line2d_106">
      <g>
       <use style="stroke:#000000;stroke-width:0.8;" x="62.208" xlink:href="#mf6087df7ab" y="178.788119"/>
      </g>
     </g>
     <g id="text_7">
      <!-- 0.4 -->
      <g transform="translate(29.763 184.866869)scale(0.16 -0.16)">
       <use xlink:href="#DejaVuSans-48"/>
       <use x="63.623047" xlink:href="#DejaVuSans-46"/>
       <use x="95.410156" xlink:href="#DejaVuSans-52"/>
      </g>
     </g>
    </g>
    <g id="ytick_4">
     <g id="line2d_107">
      <path clip-path="url(#p42bcae5c56)" d="M 62.208 121.302178 
L 460.8 121.302178 
" style="fill:none;stroke:#b0b0b0;stroke-linecap:square;stroke-width:0.8;"/>
     </g>
     <g id="line2d_108">
      <g>
       <use style="stroke:#000000;stroke-width:0.8;" x="62.208" xlink:href="#mf6087df7ab" y="121.302178"/>
      </g>
     </g>
     <g id="text_8">
      <!-- 0.6 -->
      <g transform="translate(29.763 127.380928)scale(0.16 -0.16)">
       <defs>
        <path d="M 33.015625 40.375 
Q 26.375 40.375 22.484375 35.828125 
Q 18.609375 31.296875 18.609375 23.390625 
Q 18.609375 15.53125 22.484375 10.953125 
Q 26.375 6.390625 33.015625 6.390625 
Q 39.65625 6.390625 43.53125 10.953125 
Q 47.40625 15.53125 47.40625 23.390625 
Q 47.40625 31.296875 43.53125 35.828125 
Q 39.65625 40.375 33.015625 40.375 
z
M 52.59375 71.296875 
L 52.59375 62.3125 
Q 48.875 64.0625 45.09375 64.984375 
Q 41.3125 65.921875 37.59375 65.921875 
Q 27.828125 65.921875 22.671875 59.328125 
Q 17.53125 52.734375 16.796875 39.40625 
Q 19.671875 43.65625 24.015625 45.921875 
Q 28.375 48.1875 33.59375 48.1875 
Q 44.578125 48.1875 50.953125 41.515625 
Q 57.328125 34.859375 57.328125 23.390625 
Q 57.328125 12.15625 50.6875 5.359375 
Q 44.046875 -1.421875 33.015625 -1.421875 
Q 20.359375 -1.421875 13.671875 8.265625 
Q 6.984375 17.96875 6.984375 36.375 
Q 6.984375 53.65625 15.1875 63.9375 
Q 23.390625 74.21875 37.203125 74.21875 
Q 40.921875 74.21875 44.703125 73.484375 
Q 48.484375 72.75 52.59375 71.296875 
z
" id="DejaVuSans-54"/>
       </defs>
       <use xlink:href="#DejaVuSans-48"/>
       <use x="63.623047" xlink:href="#DejaVuSans-46"/>
       <use x="95.410156" xlink:href="#DejaVuSans-54"/>
      </g>
     </g>
    </g>
    <g id="ytick_5">
     <g id="line2d_109">
      <path clip-path="url(#p42bcae5c56)" d="M 62.208 63.816238 
L 460.8 63.816238 
" style="fill:none;stroke:#b0b0b0;stroke-linecap:square;stroke-width:0.8;"/>
     </g>
     <g id="line2d_110">
      <g>
       <use style="stroke:#000000;stroke-width:0.8;" x="62.208" xlink:href="#mf6087df7ab" y="63.816238"/>
      </g>
     </g>
     <g id="text_9">
      <!-- 0.8 -->
      <g transform="translate(29.763 69.894988)scale(0.16 -0.16)">
       <defs>
        <path d="M 31.78125 34.625 
Q 24.75 34.625 20.71875 30.859375 
Q 16.703125 27.09375 16.703125 20.515625 
Q 16.703125 13.921875 20.71875 10.15625 
Q 24.75 6.390625 31.78125 6.390625 
Q 38.8125 6.390625 42.859375 10.171875 
Q 46.921875 13.96875 46.921875 20.515625 
Q 46.921875 27.09375 42.890625 30.859375 
Q 38.875 34.625 31.78125 34.625 
z
M 21.921875 38.8125 
Q 15.578125 40.375 12.03125 44.71875 
Q 8.5 49.078125 8.5 55.328125 
Q 8.5 64.0625 14.71875 69.140625 
Q 20.953125 74.21875 31.78125 74.21875 
Q 42.671875 74.21875 48.875 69.140625 
Q 55.078125 64.0625 55.078125 55.328125 
Q 55.078125 49.078125 51.53125 44.71875 
Q 48 40.375 41.703125 38.8125 
Q 48.828125 37.15625 52.796875 32.3125 
Q 56.78125 27.484375 56.78125 20.515625 
Q 56.78125 9.90625 50.3125 4.234375 
Q 43.84375 -1.421875 31.78125 -1.421875 
Q 19.734375 -1.421875 13.25 4.234375 
Q 6.78125 9.90625 6.78125 20.515625 
Q 6.78125 27.484375 10.78125 32.3125 
Q 14.796875 37.15625 21.921875 38.8125 
z
M 18.3125 54.390625 
Q 18.3125 48.734375 21.84375 45.5625 
Q 25.390625 42.390625 31.78125 42.390625 
Q 38.140625 42.390625 41.71875 45.5625 
Q 45.3125 48.734375 45.3125 54.390625 
Q 45.3125 60.0625 41.71875 63.234375 
Q 38.140625 66.40625 31.78125 66.40625 
Q 25.390625 66.40625 21.84375 63.234375 
Q 18.3125 60.0625 18.3125 54.390625 
z
" id="DejaVuSans-56"/>
       </defs>
       <use xlink:href="#DejaVuSans-48"/>
       <use x="63.623047" xlink:href="#DejaVuSans-46"/>
       <use x="95.410156" xlink:href="#DejaVuSans-56"/>
      </g>
     </g>
    </g>
    <g id="ytick_6">
     <g id="line2d_111">
      <path clip-path="url(#p42bcae5c56)" d="M 62.208 6.330297 
L 460.8 6.330297 
" style="fill:none;stroke:#b0b0b0;stroke-linecap:square;stroke-width:0.8;"/>
     </g>
     <g id="line2d_112">
      <g>
       <use style="stroke:#000000;stroke-width:0.8;" x="62.208" xlink:href="#mf6087df7ab" y="6.330297"/>
      </g>
     </g>
     <g id="text_10">
      <!-- 1.0 -->
      <g transform="translate(29.763 12.409047)scale(0.16 -0.16)">
       <use xlink:href="#DejaVuSans-49"/>
       <use x="63.623047" xlink:href="#DejaVuSans-46"/>
       <use x="95.410156" xlink:href="#DejaVuSans-48"/>
      </g>
     </g>
    </g>
    <g id="text_11">
     <!-- proportion of trials -->
     <g transform="translate(21.603625 241.61425)rotate(-90)scale(0.2 -0.2)">
      <defs>
       <path d="M 18.109375 8.203125 
L 18.109375 -20.796875 
L 9.078125 -20.796875 
L 9.078125 54.6875 
L 18.109375 54.6875 
L 18.109375 46.390625 
Q 20.953125 51.265625 25.265625 53.625 
Q 29.59375 56 35.59375 56 
Q 45.5625 56 51.78125 48.09375 
Q 58.015625 40.1875 58.015625 27.296875 
Q 58.015625 14.40625 51.78125 6.484375 
Q 45.5625 -1.421875 35.59375 -1.421875 
Q 29.59375 -1.421875 25.265625 0.953125 
Q 20.953125 3.328125 18.109375 8.203125 
z
M 48.6875 27.296875 
Q 48.6875 37.203125 44.609375 42.84375 
Q 40.53125 48.484375 33.40625 48.484375 
Q 26.265625 48.484375 22.1875 42.84375 
Q 18.109375 37.203125 18.109375 27.296875 
Q 18.109375 17.390625 22.1875 11.75 
Q 26.265625 6.109375 33.40625 6.109375 
Q 40.53125 6.109375 44.609375 11.75 
Q 48.6875 17.390625 48.6875 27.296875 
z
" id="DejaVuSans-112"/>
       <path d="M 41.109375 46.296875 
Q 39.59375 47.171875 37.8125 47.578125 
Q 36.03125 48 33.890625 48 
Q 26.265625 48 22.1875 43.046875 
Q 18.109375 38.09375 18.109375 28.8125 
L 18.109375 0 
L 9.078125 0 
L 9.078125 54.6875 
L 18.109375 54.6875 
L 18.109375 46.1875 
Q 20.953125 51.171875 25.484375 53.578125 
Q 30.03125 56 36.53125 56 
Q 37.453125 56 38.578125 55.875 
Q 39.703125 55.765625 41.0625 55.515625 
z
" id="DejaVuSans-114"/>
       <path d="M 18.3125 70.21875 
L 18.3125 54.6875 
L 36.8125 54.6875 
L 36.8125 47.703125 
L 18.3125 47.703125 
L 18.3125 18.015625 
Q 18.3125 11.328125 20.140625 9.421875 
Q 21.96875 7.515625 27.59375 7.515625 
L 36.8125 7.515625 
L 36.8125 0 
L 27.59375 0 
Q 17.1875 0 13.234375 3.875 
Q 9.28125 7.765625 9.28125 18.015625 
L 9.28125 47.703125 
L 2.6875 47.703125 
L 2.6875 54.6875 
L 9.28125 54.6875 
L 9.28125 70.21875 
z
" id="DejaVuSans-116"/>
       <path d="M 9.421875 54.6875 
L 18.40625 54.6875 
L 18.40625 0 
L 9.421875 0 
z
M 9.421875 75.984375 
L 18.40625 75.984375 
L 18.40625 64.59375 
L 9.421875 64.59375 
z
" id="DejaVuSans-105"/>
       <path d="M 54.890625 33.015625 
L 54.890625 0 
L 45.90625 0 
L 45.90625 32.71875 
Q 45.90625 40.484375 42.875 44.328125 
Q 39.84375 48.1875 33.796875 48.1875 
Q 26.515625 48.1875 22.3125 43.546875 
Q 18.109375 38.921875 18.109375 30.90625 
L 18.109375 0 
L 9.078125 0 
L 9.078125 54.6875 
L 18.109375 54.6875 
L 18.109375 46.1875 
Q 21.34375 51.125 25.703125 53.5625 
Q 30.078125 56 35.796875 56 
Q 45.21875 56 50.046875 50.171875 
Q 54.890625 44.34375 54.890625 33.015625 
z
" id="DejaVuSans-110"/>
      </defs>
      <use xlink:href="#DejaVuSans-112"/>
      <use x="63.476562" xlink:href="#DejaVuSans-114"/>
      <use x="102.339844" xlink:href="#DejaVuSans-111"/>
      <use x="163.521484" xlink:href="#DejaVuSans-112"/>
      <use x="226.998047" xlink:href="#DejaVuSans-111"/>
      <use x="288.179688" xlink:href="#DejaVuSans-114"/>
      <use x="329.292969" xlink:href="#DejaVuSans-116"/>
      <use x="368.501953" xlink:href="#DejaVuSans-105"/>
      <use x="396.285156" xlink:href="#DejaVuSans-111"/>
      <use x="457.466797" xlink:href="#DejaVuSans-110"/>
      <use x="520.845703" xlink:href="#DejaVuSans-32"/>
      <use x="552.632812" xlink:href="#DejaVuSans-111"/>
      <use x="613.814453" xlink:href="#DejaVuSans-102"/>
      <use x="649.019531" xlink:href="#DejaVuSans-32"/>
      <use x="680.806641" xlink:href="#DejaVuSans-116"/>
      <use x="720.015625" xlink:href="#DejaVuSans-114"/>
      <use x="761.128906" xlink:href="#DejaVuSans-105"/>
      <use x="788.912109" xlink:href="#DejaVuSans-97"/>
      <use x="850.191406" xlink:href="#DejaVuSans-108"/>
      <use x="877.974609" xlink:href="#DejaVuSans-115"/>
     </g>
    </g>
   </g>
   <g id="line2d_113">
    <path clip-path="url(#p42bcae5c56)" d="M -1 282.262812 
L 41.154286 282.262812 
L 41.154286 274.59802 
L 53.011123 274.59802 
L 53.011123 251.603644 
L 69.722396 251.603644 
L 69.722396 247.771248 
L 76.075727 247.771248 
L 76.075727 236.274059 
L 86.433669 236.274059 
L 86.433669 228.609267 
L 90.77611 228.609267 
L 90.77611 224.776871 
L 94.704326 224.776871 
L 94.704326 220.944475 
L 104.643838 220.944475 
L 104.643838 217.112079 
L 107.487384 217.112079 
L 107.487384 209.447287 
L 115.00178 209.447287 
L 115.00178 205.614891 
L 137.406929 205.614891 
L 137.406929 201.782495 
L 139.98371 201.782495 
L 139.98371 194.117703 
L 151.840547 194.117703 
L 151.840547 190.285307 
L 153.67263 190.285307 
L 153.67263 186.452911 
L 157.109209 186.452911 
L 157.109209 182.620515 
L 158.725693 182.620515 
L 158.725693 178.788119 
L 171.561557 178.788119 
L 171.561557 174.955723 
L 172.706493 174.955723 
L 172.706493 171.123327 
L 176.480442 171.123327 
L 176.480442 167.290931 
L 181.790298 167.290931 
L 181.790298 163.458535 
L 183.563262 163.458535 
L 183.563262 159.626139 
L 193.872971 159.626139 
L 193.872971 155.793743 
L 198.952013 155.793743 
L 198.952013 151.961347 
L 201.274604 151.961347 
L 201.274604 148.12895 
L 205.305345 148.12895 
L 205.305345 144.296554 
L 207.304043 144.296554 
L 207.304043 140.464158 
L 209.673377 140.464158 
L 209.673377 136.631762 
L 211.913878 136.631762 
L 211.913878 132.799366 
L 215.263137 132.799366 
L 215.263137 128.96697 
L 216.452116 128.96697 
L 216.452116 125.134574 
L 217.985877 125.134574 
L 217.985877 121.302178 
L 218.173645 121.302178 
L 218.173645 117.469782 
L 219.645769 117.469782 
L 219.645769 113.637386 
L 223.770716 113.637386 
L 223.770716 109.80499 
L 223.933944 109.80499 
L 223.933944 105.972594 
L 224.580468 105.972594 
L 224.580468 102.140198 
L 228.842646 102.140198 
L 228.842646 98.307802 
L 229.842714 98.307802 
L 229.842714 94.475406 
L 231.90734 94.475406 
L 231.90734 90.64301 
L 233.098227 90.64301 
L 233.098227 86.810614 
L 233.35826 86.810614 
L 233.35826 82.978218 
L 234.38229 82.978218 
L 234.38229 79.145822 
L 239.822534 79.145822 
L 239.822534 75.313426 
L 241.131059 75.313426 
L 241.131059 71.48103 
L 241.4518 71.48103 
L 241.4518 67.648634 
L 273.588337 67.648634 
L 273.588337 63.816238 
L 298.481384 63.816238 
L 298.481384 59.983842 
L 300.359864 59.983842 
L 300.359864 56.151446 
L 310.264748 56.151446 
L 310.264748 52.31905 
L 313.706942 52.31905 
L 313.706942 48.486653 
L 322.361557 48.486653 
L 322.361557 44.654257 
L 329.573259 44.654257 
L 329.573259 40.821861 
L 330.602294 40.821861 
L 330.602294 36.989465 
L 331.149647 36.989465 
L 331.149647 33.157069 
L 333.09662 33.157069 
L 333.09662 29.324673 
L 336.650132 29.324673 
L 336.650132 25.492277 
L 337.869016 25.492277 
L 337.9613 17.827485 
L 343.286461 17.827485 
L 343.286461 13.995089 
L 357.801007 13.995089 
L 357.801007 10.162693 
L 403.046622 10.162693 
L 403.046622 6.330297 
L 403.046622 6.330297 
L 460.8 6.330297 
L 460.8 6.330297 
" style="fill:none;stroke:#000000;stroke-linecap:square;stroke-width:1.5;"/>
   </g>
   <g id="line2d_114">
    <defs>
     <path d="M -0 14.142136 
L 8.485281 0 
L -0 -14.142136 
L -8.485281 -0 
z
" id="me9a36a5a04" style="stroke:#000000;stroke-linejoin:miter;stroke-width:1.5;"/>
    </defs>
    <g clip-path="url(#p42bcae5c56)">
     <use style="fill-opacity:0;stroke:#000000;stroke-linejoin:miter;stroke-width:1.5;" x="107.487384" xlink:href="#me9a36a5a04" y="213.279683"/>
     <use style="fill-opacity:0;stroke:#000000;stroke-linejoin:miter;stroke-width:1.5;" x="158.725693" xlink:href="#me9a36a5a04" y="182.620515"/>
     <use style="fill-opacity:0;stroke:#000000;stroke-linejoin:miter;stroke-width:1.5;" x="223.933944" xlink:href="#me9a36a5a04" y="109.80499"/>
     <use style="fill-opacity:0;stroke:#000000;stroke-linejoin:miter;stroke-width:1.5;" x="273.588337" xlink:href="#me9a36a5a04" y="67.648634"/>
     <use style="fill-opacity:0;stroke:#000000;stroke-linejoin:miter;stroke-width:1.5;" x="343.286461" xlink:href="#me9a36a5a04" y="17.827485"/>
     <use style="fill-opacity:0;stroke:#000000;stroke-linejoin:miter;stroke-width:1.5;" x="403.046622" xlink:href="#me9a36a5a04" y="6.330297"/>
    </g>
   </g>
   <g id="line2d_115">
    <path clip-path="url(#p42bcae5c56)" style="fill:none;stroke:#000000;stroke-linecap:square;stroke-width:1.5;"/>
    <g clip-path="url(#p42bcae5c56)">
     <use style="fill-opacity:0;stroke:#000000;stroke-linejoin:miter;stroke-width:1.5;" x="-1" xlink:href="#me9a36a5a04" y="581.189703"/>
     <use style="fill-opacity:0;stroke:#000000;stroke-linejoin:miter;stroke-width:1.5;" x="460.8" xlink:href="#me9a36a5a04" y="581.189703"/>
    </g>
   </g>
   <g id="line2d_116">
    <path clip-path="url(#p42bcae5c56)" d="M -1 289.927604 
L 24.443012 289.927604 
L 24.443012 278.430416 
L 81.579233 278.430416 
L 81.579233 274.59802 
L 90.77611 274.59802 
L 90.77611 270.765624 
L 94.704326 270.765624 
L 94.704326 266.933228 
L 101.589472 266.933228 
L 101.589472 259.268436 
L 104.643838 259.268436 
L 104.643838 255.43604 
L 107.487384 255.43604 
L 107.487384 247.771248 
L 110.147344 247.771248 
L 110.147344 243.938851 
L 112.645992 243.938851 
L 112.645992 240.106455 
L 115.00178 240.106455 
L 115.00178 232.441663 
L 117.230164 232.441663 
L 117.230164 228.609267 
L 121.355111 228.609267 
L 121.355111 224.776871 
L 130.157583 224.776871 
L 130.157583 220.944475 
L 133.211948 220.944475 
L 133.211948 209.447287 
L 136.055494 209.447287 
L 136.055494 205.614891 
L 137.406929 205.614891 
L 137.406929 201.782495 
L 139.98371 201.782495 
L 139.98371 197.950099 
L 144.699141 197.950099 
L 144.699141 194.117703 
L 146.868856 194.117703 
L 146.868856 190.285307 
L 149.923221 190.285307 
L 149.923221 182.620515 
L 152.766768 182.620515 
L 152.766768 178.788119 
L 153.67263 178.788119 
L 153.67263 174.955723 
L 158.725693 174.955723 
L 158.725693 171.123327 
L 170.976936 171.123327 
L 170.976936 167.290931 
L 173.820482 167.290931 
L 173.820482 163.458535 
L 182.24074 163.458535 
L 182.24074 159.626139 
L 182.686313 159.626139 
L 182.686313 151.961347 
L 183.994838 151.961347 
L 183.994838 148.12895 
L 188.465875 148.12895 
L 188.465875 144.296554 
L 192.846817 144.296554 
L 192.846817 140.464158 
L 195.851675 140.464158 
L 195.851675 136.631762 
L 196.490681 136.631762 
L 196.490681 132.799366 
L 196.806507 132.799366 
L 196.806507 128.96697 
L 200.706111 128.96697 
L 200.706111 125.134574 
L 201.274604 125.134574 
L 201.274604 121.302178 
L 203.473262 121.302178 
L 203.473262 117.469782 
L 203.740027 117.469782 
L 203.740027 113.637386 
L 209.44248 113.637386 
L 209.44248 109.80499 
L 212.131373 109.80499 
L 212.131373 105.972594 
L 213.62252 105.972594 
L 213.62252 102.140198 
L 214.038837 102.140198 
L 214.038837 98.307802 
L 217.797249 98.307802 
L 217.797249 94.475406 
L 220.71635 94.475406 
L 220.71635 90.64301 
L 221.931198 90.64301 
L 221.931198 86.810614 
L 224.899966 86.810614 
L 224.899966 82.978218 
L 228.552398 82.978218 
L 228.552398 79.145822 
L 228.842646 79.145822 
L 228.842646 75.313426 
L 233.616663 75.313426 
L 233.616663 71.48103 
L 238.01059 71.48103 
L 238.01059 67.648634 
L 244.726182 67.648634 
L 244.726182 63.816238 
L 244.922445 63.816238 
L 244.922445 59.983842 
L 245.602096 59.983842 
L 245.602096 56.151446 
L 246.647979 56.151446 
L 246.647979 52.31905 
L 247.48439 52.31905 
L 247.48439 48.486653 
L 248.394252 48.486653 
L 248.394252 44.654257 
L 249.809501 44.654257 
L 249.809501 40.821861 
L 260.609483 40.821861 
L 260.609483 36.989465 
L 265.3448 36.989465 
L 265.3448 33.157069 
L 266.809598 33.157069 
L 266.809598 29.324673 
L 267.210582 29.324673 
L 267.210582 25.492277 
L 269.050099 25.492277 
L 269.050099 21.659881 
L 271.68961 21.659881 
L 271.68961 17.827485 
L 272.948568 17.827485 
L 272.948568 13.995089 
L 277.097125 13.995089 
L 277.097125 10.162693 
L 277.097125 10.162693 
L 460.8 10.162693 
L 460.8 10.162693 
" style="fill:none;stroke:#000000;stroke-linecap:square;stroke-width:1.5;"/>
   </g>
   <g id="line2d_117">
    <defs>
     <path d="M 0 7.5 
C 1.989023 7.5 3.896849 6.709753 5.303301 5.303301 
C 6.709753 3.896849 7.5 1.989023 7.5 0 
C 7.5 -1.989023 6.709753 -3.896849 5.303301 -5.303301 
C 3.896849 -6.709753 1.989023 -7.5 0 -7.5 
C -1.989023 -7.5 -3.896849 -6.709753 -5.303301 -5.303301 
C -6.709753 -3.896849 -7.5 -1.989023 -7.5 0 
C -7.5 1.989023 -6.709753 3.896849 -5.303301 5.303301 
C -3.896849 6.709753 -1.989023 7.5 0 7.5 
z
" id="m61643f41e1" style="stroke:#000000;stroke-width:1.5;"/>
    </defs>
    <g clip-path="url(#p42bcae5c56)">
     <use style="fill-opacity:0;stroke:#000000;stroke-width:1.5;" x="139.98371" xlink:href="#m61643f41e1" y="201.782495"/>
     <use style="fill-opacity:0;stroke:#000000;stroke-width:1.5;" x="203.740027" xlink:href="#m61643f41e1" y="117.469782"/>
     <use style="fill-opacity:0;stroke:#000000;stroke-width:1.5;" x="269.050099" xlink:href="#m61643f41e1" y="25.492277"/>
     <use style="fill-opacity:0;stroke:#000000;stroke-width:1.5;" x="277.097125" xlink:href="#m61643f41e1" y="10.162693"/>
    </g>
   </g>
   <g id="line2d_118">
    <path clip-path="url(#p42bcae5c56)" style="fill:none;stroke:#000000;stroke-linecap:square;stroke-width:1.5;"/>
   </g>
   <g id="line2d_119">
    <path clip-path="url(#p42bcae5c56)" d="M 310.224617 293.76 
L 310.224617 289.927604 
L 310.444858 289.927604 
L 310.444858 286.095208 
L 312.811738 286.095208 
L 312.811738 282.262812 
L 318.442313 282.262812 
L 318.442313 278.430416 
L 319.801175 278.430416 
L 319.801175 274.59802 
L 322.016157 274.59802 
L 322.016157 270.765624 
L 324.588367 270.765624 
L 324.588367 266.933228 
L 325.304681 266.933228 
L 325.304681 263.100832 
L 327.28904 263.100832 
L 327.28904 259.268436 
L 330.295039 259.268436 
L 330.295039 255.43604 
L 331.101287 255.43604 
L 331.101287 251.603644 
L 331.294388 251.603644 
L 331.294388 247.771248 
L 331.642096 247.771248 
L 331.642096 243.938851 
L 332.586354 243.938851 
L 332.586354 240.106455 
L 333.165715 240.106455 
L 333.165715 236.274059 
L 335.448566 236.274059 
L 335.448566 232.441663 
L 341.294918 232.441663 
L 341.294918 228.609267 
L 342.2566 228.609267 
L 342.2566 224.776871 
L 342.742838 224.776871 
L 342.742838 220.944475 
L 343.385352 220.944475 
L 343.385352 217.112079 
L 362.739745 217.112079 
L 362.739745 213.279683 
L 368.70871 213.279683 
L 368.70871 209.447287 
L 372.226425 209.447287 
L 372.226425 205.614891 
L 379.471599 205.614891 
L 379.471599 201.782495 
L 381.625292 201.782495 
L 381.625292 197.950099 
L 389.652501 197.950099 
L 389.652501 194.117703 
L 406.262346 194.117703 
L 406.262346 190.285307 
L 415.307395 190.285307 
L 415.307395 186.452911 
L 424.926438 186.452911 
L 424.926438 182.620515 
L 424.926438 182.620515 
L 424.926438 182.620515 
L 460.8 182.620515 
" style="fill:none;stroke:#00bfbf;stroke-linecap:square;stroke-width:1.5;"/>
   </g>
   <g id="line2d_120">
    <defs>
     <path d="M -0 14.142136 
L 8.485281 0 
L -0 -14.142136 
L -8.485281 -0 
z
" id="ma9b1f95350" style="stroke:#00bfbf;stroke-linejoin:miter;stroke-width:1.5;"/>
    </defs>
    <g clip-path="url(#p42bcae5c56)">
     <use style="fill-opacity:0;stroke:#00bfbf;stroke-linejoin:miter;stroke-width:1.5;" x="331.101287" xlink:href="#ma9b1f95350" y="255.43604"/>
     <use style="fill-opacity:0;stroke:#00bfbf;stroke-linejoin:miter;stroke-width:1.5;" x="372.226425" xlink:href="#ma9b1f95350" y="209.447287"/>
     <use style="fill-opacity:0;stroke:#00bfbf;stroke-linejoin:miter;stroke-width:1.5;" x="424.926438" xlink:href="#ma9b1f95350" y="186.452911"/>
     <use style="fill-opacity:0;stroke:#00bfbf;stroke-linejoin:miter;stroke-width:1.5;" x="424.926438" xlink:href="#ma9b1f95350" y="182.620515"/>
    </g>
   </g>
   <g id="line2d_121">
    <path clip-path="url(#p42bcae5c56)" style="fill:none;stroke:#00bfbf;stroke-linecap:square;stroke-width:1.5;"/>
    <g clip-path="url(#p42bcae5c56)">
     <use style="fill-opacity:0;stroke:#00bfbf;stroke-linejoin:miter;stroke-width:1.5;" x="-1" xlink:href="#ma9b1f95350" y="581.189703"/>
     <use style="fill-opacity:0;stroke:#00bfbf;stroke-linejoin:miter;stroke-width:1.5;" x="460.8" xlink:href="#ma9b1f95350" y="581.189703"/>
    </g>
   </g>
   <g id="line2d_122">
    <path clip-path="url(#p42bcae5c56)" d="M 229.274221 293.76 
L 229.274221 289.927604 
L 229.983621 289.927604 
L 229.983621 286.095208 
L 237.427624 286.095208 
L 237.427624 282.262812 
L 239.488807 282.262812 
L 239.488807 278.430416 
L 241.345163 278.430416 
L 241.345163 274.59802 
L 242.085891 274.59802 
L 242.085891 270.765624 
L 247.576285 270.765624 
L 247.576285 266.933228 
L 248.123396 266.933228 
L 248.123396 263.100832 
L 250.413711 263.100832 
L 250.413711 259.268436 
L 250.669972 259.268436 
L 250.669972 255.43604 
L 252.502054 255.43604 
L 252.502054 251.603644 
L 253.942728 251.603644 
L 253.942728 247.771248 
L 259.524813 247.771248 
L 259.524813 243.938851 
L 264.134286 243.938851 
L 264.134286 240.106455 
L 264.37925 240.106455 
L 264.37925 236.274059 
L 265.165474 236.274059 
L 265.165474 232.441663 
L 267.776732 232.441663 
L 267.776732 228.609267 
L 268.666701 228.609267 
L 268.666701 224.776871 
L 270.23236 224.776871 
L 270.23236 220.944475 
L 270.23236 220.944475 
L 270.23236 217.112079 
L 272.399358 217.112079 
L 272.399358 213.279683 
L 281.273295 213.279683 
L 281.273295 209.447287 
L 287.643991 209.447287 
L 287.643991 205.614891 
L 310.564495 205.614891 
L 310.564495 201.782495 
L 310.564495 201.782495 
L 310.564495 201.782495 
L 460.8 201.782495 
" style="fill:none;stroke:#00bfbf;stroke-linecap:square;stroke-width:1.5;"/>
   </g>
   <g id="line2d_123">
    <defs>
     <path d="M 0 7.5 
C 1.989023 7.5 3.896849 6.709753 5.303301 5.303301 
C 6.709753 3.896849 7.5 1.989023 7.5 0 
C 7.5 -1.989023 6.709753 -3.896849 5.303301 -5.303301 
C 3.896849 -6.709753 1.989023 -7.5 0 -7.5 
C -1.989023 -7.5 -3.896849 -6.709753 -5.303301 -5.303301 
C -6.709753 -3.896849 -7.5 -1.989023 -7.5 0 
C -7.5 1.989023 -6.709753 3.896849 -5.303301 5.303301 
C -3.896849 6.709753 -1.989023 7.5 0 7.5 
z
" id="md069297f90" style="stroke:#00bfbf;stroke-width:1.5;"/>
    </defs>
    <g clip-path="url(#p42bcae5c56)">
     <use style="fill-opacity:0;stroke:#00bfbf;stroke-width:1.5;" x="252.502054" xlink:href="#md069297f90" y="255.43604"/>
     <use style="fill-opacity:0;stroke:#00bfbf;stroke-width:1.5;" x="281.273295" xlink:href="#md069297f90" y="213.279683"/>
     <use style="fill-opacity:0;stroke:#00bfbf;stroke-width:1.5;" x="310.564495" xlink:href="#md069297f90" y="201.782495"/>
    </g>
   </g>
   <g id="line2d_124">
    <path clip-path="url(#p42bcae5c56)" style="fill:none;stroke:#00bfbf;stroke-linecap:square;stroke-width:1.5;"/>
   </g>
   <g id="line2d_125">
    <path clip-path="url(#p42bcae5c56)" d="M 378.494929 293.76 
L 378.494929 289.927604 
L 379.508993 289.927604 
L 379.508993 286.095208 
L 381.411705 286.095208 
L 381.411705 282.262812 
L 381.504395 282.262812 
L 381.504395 278.430416 
L 385.634768 278.430416 
L 385.634768 274.59802 
L 386.235992 274.59802 
L 386.235992 270.765624 
L 392.256901 270.765624 
L 392.256901 266.933228 
L 419.743817 266.933228 
L 419.743817 263.100832 
L 419.743817 263.100832 
L 419.743817 263.100832 
L 460.8 263.100832 
" style="fill:none;stroke:#bf00bf;stroke-linecap:square;stroke-width:1.5;"/>
   </g>
   <g id="line2d_126">
    <defs>
     <path d="M -0 14.142136 
L 8.485281 0 
L -0 -14.142136 
L -8.485281 -0 
z
" id="m796cce030e" style="stroke:#bf00bf;stroke-linejoin:miter;stroke-width:1.5;"/>
    </defs>
    <g clip-path="url(#p42bcae5c56)">
     <use style="fill-opacity:0;stroke:#bf00bf;stroke-linejoin:miter;stroke-width:1.5;" x="386.235992" xlink:href="#m796cce030e" y="274.59802"/>
     <use style="fill-opacity:0;stroke:#bf00bf;stroke-linejoin:miter;stroke-width:1.5;" x="419.743817" xlink:href="#m796cce030e" y="266.933228"/>
     <use style="fill-opacity:0;stroke:#bf00bf;stroke-linejoin:miter;stroke-width:1.5;" x="419.743817" xlink:href="#m796cce030e" y="263.100832"/>
    </g>
   </g>
   <g id="line2d_127">
    <path clip-path="url(#p42bcae5c56)" style="fill:none;stroke:#bf00bf;stroke-linecap:square;stroke-width:1.5;"/>
    <g clip-path="url(#p42bcae5c56)">
     <use style="fill-opacity:0;stroke:#bf00bf;stroke-linejoin:miter;stroke-width:1.5;" x="-1" xlink:href="#m796cce030e" y="581.189703"/>
     <use style="fill-opacity:0;stroke:#bf00bf;stroke-linejoin:miter;stroke-width:1.5;" x="460.8" xlink:href="#m796cce030e" y="581.189703"/>
    </g>
   </g>
   <g id="line2d_128">
    <path clip-path="url(#p42bcae5c56)" d="M 278.594419 293.76 
L 278.594419 289.927604 
L 283.597551 289.927604 
L 283.597551 286.095208 
L 285.761373 286.095208 
L 285.761373 282.262812 
L 292.239127 282.262812 
L 292.239127 278.430416 
L 292.239127 278.430416 
L 292.239127 278.430416 
L 460.8 278.430416 
" style="fill:none;stroke:#bf00bf;stroke-linecap:square;stroke-width:1.5;"/>
   </g>
   <g id="line2d_129">
    <defs>
     <path d="M 0 7.5 
C 1.989023 7.5 3.896849 6.709753 5.303301 5.303301 
C 6.709753 3.896849 7.5 1.989023 7.5 0 
C 7.5 -1.989023 6.709753 -3.896849 5.303301 -5.303301 
C 3.896849 -6.709753 1.989023 -7.5 0 -7.5 
C -1.989023 -7.5 -3.896849 -6.709753 -5.303301 -5.303301 
C -6.709753 -3.896849 -7.5 -1.989023 -7.5 0 
C -7.5 1.989023 -6.709753 3.896849 -5.303301 5.303301 
C -3.896849 6.709753 -1.989023 7.5 0 7.5 
z
" id="m5ce73225c4" style="stroke:#bf00bf;stroke-width:1.5;"/>
    </defs>
    <g clip-path="url(#p42bcae5c56)">
     <use style="fill-opacity:0;stroke:#bf00bf;stroke-width:1.5;" x="283.597551" xlink:href="#m5ce73225c4" y="289.927604"/>
     <use style="fill-opacity:0;stroke:#bf00bf;stroke-width:1.5;" x="292.239127" xlink:href="#m5ce73225c4" y="282.262812"/>
     <use style="fill-opacity:0;stroke:#bf00bf;stroke-width:1.5;" x="292.239127" xlink:href="#m5ce73225c4" y="278.430416"/>
    </g>
   </g>
   <g id="line2d_130">
    <path clip-path="url(#p42bcae5c56)" style="fill:none;stroke:#bf00bf;stroke-linecap:square;stroke-width:1.5;"/>
   </g>
   <g id="line2d_131">
    <path clip-path="url(#p42bcae5c56)" d="M 428.716479 293.76 
L 428.716479 289.927604 
L 428.716479 289.927604 
L 428.716479 289.927604 
L 460.8 289.927604 
" style="fill:none;stroke:#ff0000;stroke-linecap:square;stroke-width:3;"/>
   </g>
   <g id="line2d_132">
    <defs>
     <path d="M -0 14.142136 
L 8.485281 0 
L -0 -14.142136 
L -8.485281 -0 
z
" id="mf6f48033a5" style="stroke:#ff0000;stroke-linejoin:miter;stroke-width:3;"/>
    </defs>
    <g clip-path="url(#p42bcae5c56)">
     <use style="fill-opacity:0;stroke:#ff0000;stroke-linejoin:miter;stroke-width:3;" x="428.716479" xlink:href="#mf6f48033a5" y="293.76"/>
     <use style="fill-opacity:0;stroke:#ff0000;stroke-linejoin:miter;stroke-width:3;" x="428.716479" xlink:href="#mf6f48033a5" y="293.76"/>
     <use style="fill-opacity:0;stroke:#ff0000;stroke-linejoin:miter;stroke-width:3;" x="428.716479" xlink:href="#mf6f48033a5" y="289.927604"/>
    </g>
   </g>
   <g id="line2d_133">
    <path clip-path="url(#p42bcae5c56)" style="fill:none;stroke:#ff0000;stroke-linecap:square;stroke-width:3;"/>
    <g clip-path="url(#p42bcae5c56)">
     <use style="fill-opacity:0;stroke:#ff0000;stroke-linejoin:miter;stroke-width:3;" x="-1" xlink:href="#mf6f48033a5" y="581.189703"/>
     <use style="fill-opacity:0;stroke:#ff0000;stroke-linejoin:miter;stroke-width:3;" x="460.8" xlink:href="#mf6f48033a5" y="581.189703"/>
    </g>
   </g>
   <g id="line2d_134">
    <path clip-path="url(#p42bcae5c56)" d="M 294.8272 293.76 
L 294.8272 289.927604 
L 294.8272 289.927604 
L 294.8272 289.927604 
L 460.8 289.927604 
" style="fill:none;stroke:#ff0000;stroke-linecap:square;stroke-width:3;"/>
   </g>
   <g id="line2d_135">
    <defs>
     <path d="M 0 7.5 
C 1.989023 7.5 3.896849 6.709753 5.303301 5.303301 
C 6.709753 3.896849 7.5 1.989023 7.5 0 
C 7.5 -1.989023 6.709753 -3.896849 5.303301 -5.303301 
C 3.896849 -6.709753 1.989023 -7.5 0 -7.5 
C -1.989023 -7.5 -3.896849 -6.709753 -5.303301 -5.303301 
C -6.709753 -3.896849 -7.5 -1.989023 -7.5 0 
C -7.5 1.989023 -6.709753 3.896849 -5.303301 5.303301 
C -3.896849 6.709753 -1.989023 7.5 0 7.5 
z
" id="m0bf8ace476" style="stroke:#ff0000;stroke-width:3;"/>
    </defs>
    <g clip-path="url(#p42bcae5c56)">
     <use style="fill-opacity:0;stroke:#ff0000;stroke-width:3;" x="294.8272" xlink:href="#m0bf8ace476" y="293.76"/>
     <use style="fill-opacity:0;stroke:#ff0000;stroke-width:3;" x="294.8272" xlink:href="#m0bf8ace476" y="293.76"/>
     <use style="fill-opacity:0;stroke:#ff0000;stroke-width:3;" x="294.8272" xlink:href="#m0bf8ace476" y="289.927604"/>
    </g>
   </g>
   <g id="line2d_136">
    <path clip-path="url(#p42bcae5c56)" style="fill:none;stroke:#ff0000;stroke-linecap:square;stroke-width:3;"/>
   </g>
   <g id="line2d_137">
    <path clip-path="url(#p42bcae5c56)" d="M 441.812835 293.76 
L 441.812835 3.456 
" style="fill:none;stroke:#000000;stroke-linecap:square;stroke-width:1.5;"/>
    <defs>
     <path d="M -10 0 
L 10 0 
M 0 10 
L 0 -10 
" id="mb462e7b620" style="stroke:#000000;stroke-width:3;"/>
    </defs>
    <g clip-path="url(#p42bcae5c56)">
     <use style="stroke:#000000;stroke-width:3;" x="441.812835" xlink:href="#mb462e7b620" y="293.76"/>
     <use style="stroke:#000000;stroke-width:3;" x="441.812835" xlink:href="#mb462e7b620" y="3.456"/>
    </g>
   </g>
   <g id="line2d_138">
    <path clip-path="url(#p42bcae5c56)" d="M 441.819429 293.76 
L 441.819429 3.456 
" style="fill:none;stroke:#000000;stroke-linecap:square;stroke-width:1.5;"/>
    <defs>
     <path d="M 0 7.5 
C 1.989023 7.5 3.896849 6.709753 5.303301 5.303301 
C 6.709753 3.896849 7.5 1.989023 7.5 0 
C 7.5 -1.989023 6.709753 -3.896849 5.303301 -5.303301 
C 3.896849 -6.709753 1.989023 -7.5 0 -7.5 
C -1.989023 -7.5 -3.896849 -6.709753 -5.303301 -5.303301 
C -6.709753 -3.896849 -7.5 -1.989023 -7.5 0 
C -7.5 1.989023 -6.709753 3.896849 -5.303301 5.303301 
C -3.896849 6.709753 -1.989023 7.5 0 7.5 
z
" id="m268c18cedc" style="stroke:#000000;stroke-width:3;"/>
    </defs>
    <g clip-path="url(#p42bcae5c56)">
     <use style="fill-opacity:0;stroke:#000000;stroke-width:3;" x="441.819429" xlink:href="#m268c18cedc" y="293.76"/>
     <use style="fill-opacity:0;stroke:#000000;stroke-width:3;" x="441.819429" xlink:href="#m268c18cedc" y="3.456"/>
    </g>
   </g>
   <g id="patch_3">
    <path d="M 62.208 293.76 
L 62.208 3.456 
" style="fill:none;stroke:#000000;stroke-linecap:square;stroke-linejoin:miter;stroke-width:0.8;"/>
   </g>
   <g id="patch_4">
    <path d="M 460.8 293.76 
L 460.8 3.456 
" style="fill:none;stroke:#000000;stroke-linecap:square;stroke-linejoin:miter;stroke-width:0.8;"/>
   </g>
   <g id="patch_5">
    <path d="M 62.208 293.76 
L 460.8 293.76 
" style="fill:none;stroke:#000000;stroke-linecap:square;stroke-linejoin:miter;stroke-width:0.8;"/>
   </g>
   <g id="patch_6">
    <path d="M 62.208 3.456 
L 460.8 3.456 
" style="fill:none;stroke:#000000;stroke-linecap:square;stroke-linejoin:miter;stroke-width:0.8;"/>
   </g>
   <g id="text_12">
    <!-- f15-f19 -->
    <g transform="translate(225.405563 24.458955)scale(0.2 -0.2)">
     <defs>
      <path d="M 10.796875 72.90625 
L 49.515625 72.90625 
L 49.515625 64.59375 
L 19.828125 64.59375 
L 19.828125 46.734375 
Q 21.96875 47.46875 24.109375 47.828125 
Q 26.265625 48.1875 28.421875 48.1875 
Q 40.625 48.1875 47.75 41.5 
Q 54.890625 34.8125 54.890625 23.390625 
Q 54.890625 11.625 47.5625 5.09375 
Q 40.234375 -1.421875 26.90625 -1.421875 
Q 22.3125 -1.421875 17.546875 -0.640625 
Q 12.796875 0.140625 7.71875 1.703125 
L 7.71875 11.625 
Q 12.109375 9.234375 16.796875 8.0625 
Q 21.484375 6.890625 26.703125 6.890625 
Q 35.15625 6.890625 40.078125 11.328125 
Q 45.015625 15.765625 45.015625 23.390625 
Q 45.015625 31 40.078125 35.4375 
Q 35.15625 39.890625 26.703125 39.890625 
Q 22.75 39.890625 18.8125 39.015625 
Q 14.890625 38.140625 10.796875 36.28125 
z
" id="DejaVuSans-53"/>
      <path d="M 4.890625 31.390625 
L 31.203125 31.390625 
L 31.203125 23.390625 
L 4.890625 23.390625 
z
" id="DejaVuSans-45"/>
      <path d="M 10.984375 1.515625 
L 10.984375 10.5 
Q 14.703125 8.734375 18.5 7.8125 
Q 22.3125 6.890625 25.984375 6.890625 
Q 35.75 6.890625 40.890625 13.453125 
Q 46.046875 20.015625 46.78125 33.40625 
Q 43.953125 29.203125 39.59375 26.953125 
Q 35.25 24.703125 29.984375 24.703125 
Q 19.046875 24.703125 12.671875 31.3125 
Q 6.296875 37.9375 6.296875 49.421875 
Q 6.296875 60.640625 12.9375 67.421875 
Q 19.578125 74.21875 30.609375 74.21875 
Q 43.265625 74.21875 49.921875 64.515625 
Q 56.59375 54.828125 56.59375 36.375 
Q 56.59375 19.140625 48.40625 8.859375 
Q 40.234375 -1.421875 26.421875 -1.421875 
Q 22.703125 -1.421875 18.890625 -0.6875 
Q 15.09375 0.046875 10.984375 1.515625 
z
M 30.609375 32.421875 
Q 37.25 32.421875 41.125 36.953125 
Q 45.015625 41.5 45.015625 49.421875 
Q 45.015625 57.28125 41.125 61.84375 
Q 37.25 66.40625 30.609375 66.40625 
Q 23.96875 66.40625 20.09375 61.84375 
Q 16.21875 57.28125 16.21875 49.421875 
Q 16.21875 41.5 20.09375 36.953125 
Q 23.96875 32.421875 30.609375 32.421875 
z
" id="DejaVuSans-57"/>
     </defs>
     <use xlink:href="#DejaVuSans-102"/>
     <use x="35.205078" xlink:href="#DejaVuSans-49"/>
     <use x="98.828125" xlink:href="#DejaVuSans-53"/>
     <use x="162.451172" xlink:href="#DejaVuSans-45"/>
     <use x="198.535156" xlink:href="#DejaVuSans-102"/>
     <use x="233.740234" xlink:href="#DejaVuSans-49"/>
     <use x="297.363281" xlink:href="#DejaVuSans-57"/>
    </g>
   </g>
   <g id="text_13">
    <!-- absolute targets -->
    <g transform="translate(62.208 609.932673)scale(0.14 -0.14)">
     <defs>
      <path d="M 48.6875 27.296875 
Q 48.6875 37.203125 44.609375 42.84375 
Q 40.53125 48.484375 33.40625 48.484375 
Q 26.265625 48.484375 22.1875 42.84375 
Q 18.109375 37.203125 18.109375 27.296875 
Q 18.109375 17.390625 22.1875 11.75 
Q 26.265625 6.109375 33.40625 6.109375 
Q 40.53125 6.109375 44.609375 11.75 
Q 48.6875 17.390625 48.6875 27.296875 
z
M 18.109375 46.390625 
Q 20.953125 51.265625 25.265625 53.625 
Q 29.59375 56 35.59375 56 
Q 45.5625 56 51.78125 48.09375 
Q 58.015625 40.1875 58.015625 27.296875 
Q 58.015625 14.40625 51.78125 6.484375 
Q 45.5625 -1.421875 35.59375 -1.421875 
Q 29.59375 -1.421875 25.265625 0.953125 
Q 20.953125 3.328125 18.109375 8.203125 
L 18.109375 0 
L 9.078125 0 
L 9.078125 75.984375 
L 18.109375 75.984375 
z
" id="DejaVuSans-98"/>
      <path d="M 8.5 21.578125 
L 8.5 54.6875 
L 17.484375 54.6875 
L 17.484375 21.921875 
Q 17.484375 14.15625 20.5 10.265625 
Q 23.53125 6.390625 29.59375 6.390625 
Q 36.859375 6.390625 41.078125 11.03125 
Q 45.3125 15.671875 45.3125 23.6875 
L 45.3125 54.6875 
L 54.296875 54.6875 
L 54.296875 0 
L 45.3125 0 
L 45.3125 8.40625 
Q 42.046875 3.421875 37.71875 1 
Q 33.40625 -1.421875 27.6875 -1.421875 
Q 18.265625 -1.421875 13.375 4.4375 
Q 8.5 10.296875 8.5 21.578125 
z
M 31.109375 56 
z
" id="DejaVuSans-117"/>
      <path d="M 56.203125 29.59375 
L 56.203125 25.203125 
L 14.890625 25.203125 
Q 15.484375 15.921875 20.484375 11.0625 
Q 25.484375 6.203125 34.421875 6.203125 
Q 39.59375 6.203125 44.453125 7.46875 
Q 49.3125 8.734375 54.109375 11.28125 
L 54.109375 2.78125 
Q 49.265625 0.734375 44.1875 -0.34375 
Q 39.109375 -1.421875 33.890625 -1.421875 
Q 20.796875 -1.421875 13.15625 6.1875 
Q 5.515625 13.8125 5.515625 26.8125 
Q 5.515625 40.234375 12.765625 48.109375 
Q 20.015625 56 32.328125 56 
Q 43.359375 56 49.78125 48.890625 
Q 56.203125 41.796875 56.203125 29.59375 
z
M 47.21875 32.234375 
Q 47.125 39.59375 43.09375 43.984375 
Q 39.0625 48.390625 32.421875 48.390625 
Q 24.90625 48.390625 20.390625 44.140625 
Q 15.875 39.890625 15.1875 32.171875 
z
" id="DejaVuSans-101"/>
     </defs>
     <use xlink:href="#DejaVuSans-97"/>
     <use x="61.279297" xlink:href="#DejaVuSans-98"/>
     <use x="124.755859" xlink:href="#DejaVuSans-115"/>
     <use x="176.855469" xlink:href="#DejaVuSans-111"/>
     <use x="238.037109" xlink:href="#DejaVuSans-108"/>
     <use x="265.820312" xlink:href="#DejaVuSans-117"/>
     <use x="329.199219" xlink:href="#DejaVuSans-116"/>
     <use x="368.408203" xlink:href="#DejaVuSans-101"/>
     <use x="429.931641" xlink:href="#DejaVuSans-32"/>
     <use x="461.71875" xlink:href="#DejaVuSans-116"/>
     <use x="500.927734" xlink:href="#DejaVuSans-97"/>
     <use x="562.207031" xlink:href="#DejaVuSans-114"/>
     <use x="601.570312" xlink:href="#DejaVuSans-103"/>
     <use x="665.046875" xlink:href="#DejaVuSans-101"/>
     <use x="726.570312" xlink:href="#DejaVuSans-116"/>
     <use x="765.779297" xlink:href="#DejaVuSans-115"/>
    </g>
   </g>
   <g id="text_14">
    <!-- v2.4 -->
    <g style="fill:#808080;" transform="translate(250.593063 288.777272)scale(0.1 -0.1)">
     <use xlink:href="#DejaVuSans-118"/>
     <use x="59.179688" xlink:href="#DejaVuSans-50"/>
     <use x="122.802734" xlink:href="#DejaVuSans-46"/>
     <use x="154.589844" xlink:href="#DejaVuSans-52"/>
    </g>
   </g>
   <g id="legend_1">
    <g id="patch_7">
     <path d="M 76.208 136.881 
L 160.148625 136.881 
Q 164.148625 136.881 164.148625 132.881 
L 164.148625 17.456 
Q 164.148625 13.456 160.148625 13.456 
L 76.208 13.456 
Q 72.208 13.456 72.208 17.456 
L 72.208 132.881 
Q 72.208 136.881 76.208 136.881 
z
" style="fill:#ffffff;opacity:0.2;stroke:#cccccc;stroke-linejoin:miter;"/>
    </g>
    <g id="line2d_139">
     <path d="M 80.208 29.652875 
L 120.208 29.652875 
" style="fill:none;stroke:#000000;stroke-linecap:square;stroke-width:1.5;"/>
    </g>
    <g id="line2d_140"/>
    <g id="text_15">
     <!-- 1 -->
     <g transform="translate(136.208 36.652875)scale(0.2 -0.2)">
      <use xlink:href="#DejaVuSans-49"/>
     </g>
    </g>
    <g id="line2d_141">
     <path d="M 80.208 59.009125 
L 120.208 59.009125 
" style="fill:none;stroke:#00bfbf;stroke-linecap:square;stroke-width:1.5;"/>
    </g>
    <g id="line2d_142"/>
    <g id="text_16">
     <!-- -1 -->
     <g transform="translate(136.208 66.009125)scale(0.2 -0.2)">
      <use xlink:href="#DejaVuSans-45"/>
      <use x="36.083984" xlink:href="#DejaVuSans-49"/>
     </g>
    </g>
    <g id="line2d_143">
     <path d="M 80.208 88.365375 
L 120.208 88.365375 
" style="fill:none;stroke:#bf00bf;stroke-linecap:square;stroke-width:1.5;"/>
    </g>
    <g id="line2d_144"/>
    <g id="text_17">
     <!-- -4 -->
     <g transform="translate(136.208 95.365375)scale(0.2 -0.2)">
      <use xlink:href="#DejaVuSans-45"/>
      <use x="36.083984" xlink:href="#DejaVuSans-52"/>
     </g>
    </g>
    <g id="line2d_145">
     <path d="M 80.208 117.721625 
L 120.208 117.721625 
" style="fill:none;stroke:#ff0000;stroke-linecap:square;stroke-width:3;"/>
    </g>
    <g id="line2d_146"/>
    <g id="text_18">
     <!-- -8 -->
     <g transform="translate(136.208 124.721625)scale(0.2 -0.2)">
      <use xlink:href="#DejaVuSans-45"/>
      <use x="36.083984" xlink:href="#DejaVuSans-56"/>
     </g>
    </g>
   </g>
  </g>
 </g>
 <defs>
  <clipPath id="p42bcae5c56">
   <rect height="290.304" width="398.592" x="62.208" y="3.456"/>
  </clipPath>
 </defs>
</svg>
