<?xml version="1.0" encoding="utf-8" standalone="no"?>
<!DOCTYPE svg PUBLIC "-//W3C//DTD SVG 1.1//EN"
  "http://www.w3.org/Graphics/SVG/1.1/DTD/svg11.dtd">
<!-- Created with matplotlib (https://matplotlib.org/) -->
<svg height="345.6pt" version="1.1" viewBox="0 0 460.8 345.6" width="460.8pt" xmlns="http://www.w3.org/2000/svg" xmlns:xlink="http://www.w3.org/1999/xlink">
 <metadata>
  <rdf:RDF xmlns:cc="http://creativecommons.org/ns#" xmlns:dc="http://purl.org/dc/elements/1.1/" xmlns:rdf="http://www.w3.org/1999/02/22-rdf-syntax-ns#">
   <cc:Work>
    <dc:type rdf:resource="http://purl.org/dc/dcmitype/StillImage"/>
    <dc:date>2021-04-27T05:14:09.563078</dc:date>
    <dc:format>image/svg+xml</dc:format>
    <dc:creator>
     <cc:Agent>
      <dc:title>Matplotlib v3.3.4, https://matplotlib.org/</dc:title>
     </cc:Agent>
    </dc:creator>
   </cc:Work>
  </rdf:RDF>
 </metadata>
 <defs>
  <style type="text/css">*{stroke-linecap:butt;stroke-linejoin:round;}</style>
 </defs>
 <g id="figure_1">
  <g id="patch_1">
   <path d="M 0 345.6 
L 460.8 345.6 
L 460.8 0 
L 0 0 
z
" style="fill:#ffffff;"/>
  </g>
  <g id="axes_1">
   <g id="patch_2">
    <path d="M 57.6 298.944 
L 338.688 298.944 
L 338.688 3.456 
L 57.6 3.456 
z
" style="fill:#ffffff;"/>
   </g>
   <g id="line2d_1">
    <path d="M 92.969447 298.944 
L 92.969447 297.509871 
L 105.897371 297.509871 
L 105.897371 296.075741 
L 107.860069 296.075741 
L 107.860069 294.641612 
L 108.102622 294.641612 
L 108.102622 293.207483 
L 110.527398 293.207483 
L 110.527398 291.773354 
L 110.652711 291.773354 
L 110.652711 290.339224 
L 114.182507 290.339224 
L 114.182507 288.905095 
L 114.418861 288.905095 
L 114.418861 287.470966 
L 115.711251 287.470966 
L 115.711251 286.036836 
L 116.680349 286.036836 
L 116.680349 284.602707 
L 118.012672 284.602707 
L 118.012672 283.168578 
L 119.199476 283.168578 
L 119.199476 281.734448 
L 119.40226 281.734448 
L 119.40226 280.300319 
L 120.944859 280.300319 
L 120.944859 278.86619 
L 121.623516 278.86619 
L 121.623516 277.432061 
L 124.101333 277.432061 
L 124.101333 275.997931 
L 124.57603 275.997931 
L 124.57603 274.563802 
L 125.074593 274.563802 
L 125.074593 273.129673 
L 127.132689 273.129673 
L 127.132689 271.695543 
L 130.344571 271.695543 
L 130.344571 270.261414 
L 131.06939 270.261414 
L 131.06939 268.827285 
L 132.541568 268.827285 
L 132.636218 265.959026 
L 134.513701 265.959026 
L 134.513701 264.524897 
L 135.240011 264.524897 
L 135.240011 263.090768 
L 136.776048 263.090768 
L 136.776048 261.656638 
L 138.230536 261.656638 
L 138.24765 258.78838 
L 138.358484 258.78838 
L 138.358484 257.35425 
L 140.671233 257.35425 
L 140.708409 254.485992 
L 141.648175 254.485992 
L 141.648175 253.051863 
L 142.586623 253.051863 
L 142.586623 251.617733 
L 143.809805 251.617733 
L 143.809805 250.183604 
L 144.263915 250.183604 
L 144.263915 248.749475 
L 144.859373 248.749475 
L 144.859373 247.315345 
L 145.120836 247.315345 
L 145.120836 245.881216 
L 145.264418 245.881216 
L 145.264418 244.447087 
L 145.378437 244.447087 
L 145.378437 243.012957 
L 145.564956 243.012957 
L 145.564956 241.578828 
L 145.805039 241.578828 
L 145.805039 240.144699 
L 146.052799 240.144699 
L 146.06373 237.27644 
L 146.243097 237.27644 
L 146.243097 235.842311 
L 146.388493 235.842311 
L 146.388493 234.408182 
L 146.522046 234.408182 
L 146.522046 232.974052 
L 146.633446 232.974052 
L 146.733626 230.105794 
L 146.838461 230.105794 
L 146.937474 227.237535 
L 147.056585 227.237535 
L 147.159502 224.369277 
L 147.226074 224.369277 
L 147.292393 220.066889 
L 147.368603 220.066889 
L 147.444481 215.764501 
L 147.515004 215.764501 
L 147.580235 212.896242 
L 147.645223 212.896242 
L 147.724877 210.027984 
L 147.814056 210.027984 
L 147.883103 207.159725 
L 147.951877 207.159725 
L 148.035027 204.291467 
L 148.074019 204.291467 
L 148.132344 201.423208 
L 148.190475 201.423208 
L 148.272497 197.12082 
L 148.306159 197.12082 
L 148.378074 192.818432 
L 148.45922 192.818432 
L 148.52102 189.950174 
L 148.606228 189.950174 
L 148.709809 185.647786 
L 148.76605 185.647786 
L 148.864037 179.911268 
L 148.924421 179.911268 
L 149.030744 175.608881 
L 149.18674 175.608881 
L 149.200437 172.740622 
L 149.42716 172.740622 
L 149.42716 171.306493 
L 149.633173 171.306493 
L 149.708697 167.004105 
L 149.805951 167.004105 
L 149.805951 165.569976 
L 149.950822 165.569976 
L 149.950822 164.135846 
L 150.077146 164.135846 
L 150.172372 161.267588 
L 150.271374 161.267588 
L 150.374084 156.9652 
L 150.467706 156.9652 
L 150.556607 154.096941 
L 150.632448 154.096941 
L 150.691209 151.228683 
L 150.758122 151.228683 
L 150.808139 148.360424 
L 150.874606 148.360424 
L 150.928425 145.492165 
L 150.994436 145.492165 
L 151.088891 139.755648 
L 151.154299 139.755648 
L 151.223527 135.45326 
L 151.296529 135.45326 
L 151.373256 132.585002 
L 151.433593 132.585002 
L 151.497722 129.716743 
L 151.545665 129.716743 
L 151.625279 125.414355 
L 151.684751 125.414355 
L 151.783423 121.111967 
L 151.822737 121.111967 
L 151.908915 116.809579 
L 151.951845 116.809579 
L 152.037389 112.507192 
L 152.076134 112.507192 
L 152.168773 106.770674 
L 152.207228 106.770674 
L 152.207228 105.336545 
L 153.243677 105.336545 
L 153.243677 103.902416 
L 153.711515 103.902416 
L 153.711515 102.468287 
L 154.167129 102.468287 
L 154.167129 101.034157 
L 154.641235 101.034157 
L 154.641235 99.600028 
L 155.04413 99.600028 
L 155.04413 98.165899 
L 155.596784 98.165899 
L 155.596784 96.731769 
L 156.120189 96.731769 
L 156.120189 95.29764 
L 156.397275 95.29764 
L 156.397275 93.863511 
L 156.941506 93.863511 
L 156.941506 92.429381 
L 157.63607 92.429381 
L 157.63607 90.995252 
L 158.086033 90.995252 
L 158.086033 89.561123 
L 158.449648 89.561123 
L 158.449648 88.126994 
L 158.721434 88.126994 
L 158.721434 86.692864 
L 159.066985 86.692864 
L 159.066985 85.258735 
L 159.454056 85.258735 
L 159.454056 83.824606 
L 159.738201 83.824606 
L 159.778062 80.956347 
L 160.186333 80.956347 
L 160.186333 79.522218 
L 160.509069 79.522218 
L 160.509069 78.088089 
L 160.776661 78.088089 
L 160.776661 76.653959 
L 161.233571 76.653959 
L 161.233571 75.21983 
L 161.667653 75.21983 
L 161.667653 73.785701 
L 161.984076 73.785701 
L 161.984076 72.351571 
L 162.243086 72.351571 
L 162.243086 70.917442 
L 162.585379 70.917442 
L 162.585379 69.483313 
L 162.956374 69.483313 
L 162.956374 68.049183 
L 163.115337 68.049183 
L 163.115337 66.615054 
L 163.557683 66.615054 
L 163.557683 65.180925 
L 163.887148 65.180925 
L 163.973442 62.312666 
L 164.471025 62.312666 
L 164.567726 59.444408 
L 164.858371 59.444408 
L 164.858371 58.010278 
L 165.089285 58.010278 
L 165.089285 56.576149 
L 165.876855 56.576149 
L 165.876855 55.14202 
L 166.920273 55.14202 
L 166.920273 53.707891 
L 171.492539 53.707891 
L 171.492539 52.273761 
L 174.483796 52.273761 
L 174.483796 50.839632 
L 174.735751 50.839632 
L 174.806323 17.854658 
L 174.881845 17.854658 
L 174.881845 16.420529 
L 175.025688 16.420529 
L 175.025688 14.9864 
L 175.200242 14.9864 
L 175.255651 12.118141 
L 175.322114 12.118141 
L 175.322114 10.684012 
L 175.524031 10.684012 
L 175.524031 9.249882 
L 175.816143 9.249882 
L 175.816143 7.815753 
L 176.056539 7.815753 
L 176.056539 6.381624 
L 338.688 6.381624 
L 338.688 6.381624 
" style="fill:none;stroke:#f5deb3;stroke-linecap:square;stroke-width:4;"/>
   </g>
   <g id="line2d_2">
    <defs>
     <path d="M -0 7.778175 
L 7.778175 0 
L 0 -7.778175 
L -7.778175 -0 
z
" id="md7f6d68bb1" style="stroke:#f5deb3;stroke-linejoin:miter;stroke-width:1.5;"/>
    </defs>
    <g>
     <use style="fill:#f5deb3;stroke:#f5deb3;stroke-linejoin:miter;stroke-width:1.5;" x="124.57603" xlink:href="#md7f6d68bb1" y="275.997931"/>
     <use style="fill:#f5deb3;stroke:#f5deb3;stroke-linejoin:miter;stroke-width:1.5;" x="151.223527" xlink:href="#md7f6d68bb1" y="136.88739"/>
     <use style="fill:#f5deb3;stroke:#f5deb3;stroke-linejoin:miter;stroke-width:1.5;" x="176.056539" xlink:href="#md7f6d68bb1" y="7.815753"/>
     <use style="fill:#f5deb3;stroke:#f5deb3;stroke-linejoin:miter;stroke-width:1.5;" x="176.056539" xlink:href="#md7f6d68bb1" y="6.381624"/>
     <use style="fill:#f5deb3;stroke:#f5deb3;stroke-linejoin:miter;stroke-width:1.5;" x="338.688" xlink:href="#md7f6d68bb1" y="6.381624"/>
    </g>
   </g>
   <g id="line2d_3">
    <path style="fill:none;stroke:#f5deb3;stroke-linecap:square;stroke-width:4;"/>
    <g/>
   </g>
   <g id="line2d_4">
    <path d="M 338.688 6.381624 
L 369.60768 12.232871 
" style="fill:none;stroke:#f5deb3;stroke-linecap:square;stroke-width:4;"/>
    <g>
     <use style="fill:#f5deb3;stroke:#f5deb3;stroke-linejoin:miter;stroke-width:1.5;" x="338.688" xlink:href="#md7f6d68bb1" y="6.381624"/>
     <use style="fill:#f5deb3;stroke:#f5deb3;stroke-linejoin:miter;stroke-width:1.5;" x="369.60768" xlink:href="#md7f6d68bb1" y="12.232871"/>
    </g>
   </g>
   <g id="matplotlib.axis_1">
    <g id="xtick_1">
     <g id="line2d_5">
      <path clip-path="url(#p20a6c61605)" d="M 57.6 298.944 
L 57.6 3.456 
" style="fill:none;stroke:#b0b0b0;stroke-linecap:square;stroke-width:0.8;"/>
     </g>
     <g id="line2d_6">
      <defs>
       <path d="M 0 0 
L 0 3.5 
" id="mb43594e0ab" style="stroke:#000000;stroke-width:0.8;"/>
      </defs>
      <g>
       <use style="stroke:#000000;stroke-width:0.8;" x="57.6" xlink:href="#mb43594e0ab" y="298.944"/>
      </g>
     </g>
     <g id="text_1">
      <!-- 0 -->
      <g transform="translate(51.2375 321.140875)scale(0.2 -0.2)">
       <defs>
        <path d="M 31.78125 66.40625 
Q 24.171875 66.40625 20.328125 58.90625 
Q 16.5 51.421875 16.5 36.375 
Q 16.5 21.390625 20.328125 13.890625 
Q 24.171875 6.390625 31.78125 6.390625 
Q 39.453125 6.390625 43.28125 13.890625 
Q 47.125 21.390625 47.125 36.375 
Q 47.125 51.421875 43.28125 58.90625 
Q 39.453125 66.40625 31.78125 66.40625 
z
M 31.78125 74.21875 
Q 44.046875 74.21875 50.515625 64.515625 
Q 56.984375 54.828125 56.984375 36.375 
Q 56.984375 17.96875 50.515625 8.265625 
Q 44.046875 -1.421875 31.78125 -1.421875 
Q 19.53125 -1.421875 13.0625 8.265625 
Q 6.59375 17.96875 6.59375 36.375 
Q 6.59375 54.828125 13.0625 64.515625 
Q 19.53125 74.21875 31.78125 74.21875 
z
" id="DejaVuSans-48"/>
       </defs>
       <use xlink:href="#DejaVuSans-48"/>
      </g>
     </g>
    </g>
    <g id="xtick_2">
     <g id="line2d_7">
      <path clip-path="url(#p20a6c61605)" d="M 137.910857 298.944 
L 137.910857 3.456 
" style="fill:none;stroke:#b0b0b0;stroke-linecap:square;stroke-width:0.8;"/>
     </g>
     <g id="line2d_8">
      <g>
       <use style="stroke:#000000;stroke-width:0.8;" x="137.910857" xlink:href="#mb43594e0ab" y="298.944"/>
      </g>
     </g>
     <g id="text_2">
      <!-- 2 -->
      <g transform="translate(131.548357 321.140875)scale(0.2 -0.2)">
       <defs>
        <path d="M 19.1875 8.296875 
L 53.609375 8.296875 
L 53.609375 0 
L 7.328125 0 
L 7.328125 8.296875 
Q 12.9375 14.109375 22.625 23.890625 
Q 32.328125 33.6875 34.8125 36.53125 
Q 39.546875 41.84375 41.421875 45.53125 
Q 43.3125 49.21875 43.3125 52.78125 
Q 43.3125 58.59375 39.234375 62.25 
Q 35.15625 65.921875 28.609375 65.921875 
Q 23.96875 65.921875 18.8125 64.3125 
Q 13.671875 62.703125 7.8125 59.421875 
L 7.8125 69.390625 
Q 13.765625 71.78125 18.9375 73 
Q 24.125 74.21875 28.421875 74.21875 
Q 39.75 74.21875 46.484375 68.546875 
Q 53.21875 62.890625 53.21875 53.421875 
Q 53.21875 48.921875 51.53125 44.890625 
Q 49.859375 40.875 45.40625 35.40625 
Q 44.1875 33.984375 37.640625 27.21875 
Q 31.109375 20.453125 19.1875 8.296875 
z
" id="DejaVuSans-50"/>
       </defs>
       <use xlink:href="#DejaVuSans-50"/>
      </g>
     </g>
    </g>
    <g id="xtick_3">
     <g id="line2d_9">
      <path clip-path="url(#p20a6c61605)" d="M 218.221714 298.944 
L 218.221714 3.456 
" style="fill:none;stroke:#b0b0b0;stroke-linecap:square;stroke-width:0.8;"/>
     </g>
     <g id="line2d_10">
      <g>
       <use style="stroke:#000000;stroke-width:0.8;" x="218.221714" xlink:href="#mb43594e0ab" y="298.944"/>
      </g>
     </g>
     <g id="text_3">
      <!-- 4 -->
      <g transform="translate(211.859214 321.140875)scale(0.2 -0.2)">
       <defs>
        <path d="M 37.796875 64.3125 
L 12.890625 25.390625 
L 37.796875 25.390625 
z
M 35.203125 72.90625 
L 47.609375 72.90625 
L 47.609375 25.390625 
L 58.015625 25.390625 
L 58.015625 17.1875 
L 47.609375 17.1875 
L 47.609375 0 
L 37.796875 0 
L 37.796875 17.1875 
L 4.890625 17.1875 
L 4.890625 26.703125 
z
" id="DejaVuSans-52"/>
       </defs>
       <use xlink:href="#DejaVuSans-52"/>
      </g>
     </g>
    </g>
    <g id="xtick_4">
     <g id="line2d_11">
      <path clip-path="url(#p20a6c61605)" d="M 298.532571 298.944 
L 298.532571 3.456 
" style="fill:none;stroke:#b0b0b0;stroke-linecap:square;stroke-width:0.8;"/>
     </g>
     <g id="line2d_12">
      <g>
       <use style="stroke:#000000;stroke-width:0.8;" x="298.532571" xlink:href="#mb43594e0ab" y="298.944"/>
      </g>
     </g>
     <g id="text_4">
      <!-- 6 -->
      <g transform="translate(292.170071 321.140875)scale(0.2 -0.2)">
       <defs>
        <path d="M 33.015625 40.375 
Q 26.375 40.375 22.484375 35.828125 
Q 18.609375 31.296875 18.609375 23.390625 
Q 18.609375 15.53125 22.484375 10.953125 
Q 26.375 6.390625 33.015625 6.390625 
Q 39.65625 6.390625 43.53125 10.953125 
Q 47.40625 15.53125 47.40625 23.390625 
Q 47.40625 31.296875 43.53125 35.828125 
Q 39.65625 40.375 33.015625 40.375 
z
M 52.59375 71.296875 
L 52.59375 62.3125 
Q 48.875 64.0625 45.09375 64.984375 
Q 41.3125 65.921875 37.59375 65.921875 
Q 27.828125 65.921875 22.671875 59.328125 
Q 17.53125 52.734375 16.796875 39.40625 
Q 19.671875 43.65625 24.015625 45.921875 
Q 28.375 48.1875 33.59375 48.1875 
Q 44.578125 48.1875 50.953125 41.515625 
Q 57.328125 34.859375 57.328125 23.390625 
Q 57.328125 12.15625 50.6875 5.359375 
Q 44.046875 -1.421875 33.015625 -1.421875 
Q 20.359375 -1.421875 13.671875 8.265625 
Q 6.984375 17.96875 6.984375 36.375 
Q 6.984375 53.65625 15.1875 63.9375 
Q 23.390625 74.21875 37.203125 74.21875 
Q 40.921875 74.21875 44.703125 73.484375 
Q 48.484375 72.75 52.59375 71.296875 
z
" id="DejaVuSans-54"/>
       </defs>
       <use xlink:href="#DejaVuSans-54"/>
      </g>
     </g>
    </g>
    <g id="xtick_5">
     <g id="line2d_13">
      <path clip-path="url(#p20a6c61605)" d="M 97.755429 298.944 
L 97.755429 3.456 
" style="fill:none;stroke:#b0b0b0;stroke-linecap:square;stroke-width:0.8;"/>
     </g>
     <g id="line2d_14">
      <defs>
       <path d="M 0 0 
L 0 2 
" id="m9afc8d84dd" style="stroke:#000000;stroke-width:0.6;"/>
      </defs>
      <g>
       <use style="stroke:#000000;stroke-width:0.6;" x="97.755429" xlink:href="#m9afc8d84dd" y="298.944"/>
      </g>
     </g>
    </g>
    <g id="xtick_6">
     <g id="line2d_15">
      <path clip-path="url(#p20a6c61605)" d="M 178.066286 298.944 
L 178.066286 3.456 
" style="fill:none;stroke:#b0b0b0;stroke-linecap:square;stroke-width:0.8;"/>
     </g>
     <g id="line2d_16">
      <g>
       <use style="stroke:#000000;stroke-width:0.6;" x="178.066286" xlink:href="#m9afc8d84dd" y="298.944"/>
      </g>
     </g>
    </g>
    <g id="xtick_7">
     <g id="line2d_17">
      <path clip-path="url(#p20a6c61605)" d="M 258.377143 298.944 
L 258.377143 3.456 
" style="fill:none;stroke:#b0b0b0;stroke-linecap:square;stroke-width:0.8;"/>
     </g>
     <g id="line2d_18">
      <g>
       <use style="stroke:#000000;stroke-width:0.6;" x="258.377143" xlink:href="#m9afc8d84dd" y="298.944"/>
      </g>
     </g>
    </g>
    <g id="xtick_8">
     <g id="line2d_19">
      <path clip-path="url(#p20a6c61605)" d="M 338.688 298.944 
L 338.688 3.456 
" style="fill:none;stroke:#b0b0b0;stroke-linecap:square;stroke-width:0.8;"/>
     </g>
     <g id="line2d_20">
      <g>
       <use style="stroke:#000000;stroke-width:0.6;" x="338.688" xlink:href="#m9afc8d84dd" y="298.944"/>
      </g>
     </g>
    </g>
    <g id="text_5">
     <!-- log10(# f-evals / dimension) -->
     <g transform="translate(77.764078 342.217594)scale(0.17 -0.17)">
      <defs>
       <path d="M 9.421875 75.984375 
L 18.40625 75.984375 
L 18.40625 0 
L 9.421875 0 
z
" id="DejaVuSans-108"/>
       <path d="M 30.609375 48.390625 
Q 23.390625 48.390625 19.1875 42.75 
Q 14.984375 37.109375 14.984375 27.296875 
Q 14.984375 17.484375 19.15625 11.84375 
Q 23.34375 6.203125 30.609375 6.203125 
Q 37.796875 6.203125 41.984375 11.859375 
Q 46.1875 17.53125 46.1875 27.296875 
Q 46.1875 37.015625 41.984375 42.703125 
Q 37.796875 48.390625 30.609375 48.390625 
z
M 30.609375 56 
Q 42.328125 56 49.015625 48.375 
Q 55.71875 40.765625 55.71875 27.296875 
Q 55.71875 13.875 49.015625 6.21875 
Q 42.328125 -1.421875 30.609375 -1.421875 
Q 18.84375 -1.421875 12.171875 6.21875 
Q 5.515625 13.875 5.515625 27.296875 
Q 5.515625 40.765625 12.171875 48.375 
Q 18.84375 56 30.609375 56 
z
" id="DejaVuSans-111"/>
       <path d="M 45.40625 27.984375 
Q 45.40625 37.75 41.375 43.109375 
Q 37.359375 48.484375 30.078125 48.484375 
Q 22.859375 48.484375 18.828125 43.109375 
Q 14.796875 37.75 14.796875 27.984375 
Q 14.796875 18.265625 18.828125 12.890625 
Q 22.859375 7.515625 30.078125 7.515625 
Q 37.359375 7.515625 41.375 12.890625 
Q 45.40625 18.265625 45.40625 27.984375 
z
M 54.390625 6.78125 
Q 54.390625 -7.171875 48.1875 -13.984375 
Q 42 -20.796875 29.203125 -20.796875 
Q 24.46875 -20.796875 20.265625 -20.09375 
Q 16.0625 -19.390625 12.109375 -17.921875 
L 12.109375 -9.1875 
Q 16.0625 -11.328125 19.921875 -12.34375 
Q 23.78125 -13.375 27.78125 -13.375 
Q 36.625 -13.375 41.015625 -8.765625 
Q 45.40625 -4.15625 45.40625 5.171875 
L 45.40625 9.625 
Q 42.625 4.78125 38.28125 2.390625 
Q 33.9375 0 27.875 0 
Q 17.828125 0 11.671875 7.65625 
Q 5.515625 15.328125 5.515625 27.984375 
Q 5.515625 40.671875 11.671875 48.328125 
Q 17.828125 56 27.875 56 
Q 33.9375 56 38.28125 53.609375 
Q 42.625 51.21875 45.40625 46.390625 
L 45.40625 54.6875 
L 54.390625 54.6875 
z
" id="DejaVuSans-103"/>
       <path d="M 12.40625 8.296875 
L 28.515625 8.296875 
L 28.515625 63.921875 
L 10.984375 60.40625 
L 10.984375 69.390625 
L 28.421875 72.90625 
L 38.28125 72.90625 
L 38.28125 8.296875 
L 54.390625 8.296875 
L 54.390625 0 
L 12.40625 0 
z
" id="DejaVuSans-49"/>
       <path d="M 31 75.875 
Q 24.46875 64.65625 21.28125 53.65625 
Q 18.109375 42.671875 18.109375 31.390625 
Q 18.109375 20.125 21.3125 9.0625 
Q 24.515625 -2 31 -13.1875 
L 23.1875 -13.1875 
Q 15.875 -1.703125 12.234375 9.375 
Q 8.59375 20.453125 8.59375 31.390625 
Q 8.59375 42.28125 12.203125 53.3125 
Q 15.828125 64.359375 23.1875 75.875 
z
" id="DejaVuSans-40"/>
       <path d="M 51.125 44 
L 36.921875 44 
L 32.8125 27.6875 
L 47.125 27.6875 
z
M 43.796875 71.78125 
L 38.71875 51.515625 
L 52.984375 51.515625 
L 58.109375 71.78125 
L 65.921875 71.78125 
L 60.890625 51.515625 
L 76.125 51.515625 
L 76.125 44 
L 58.984375 44 
L 54.984375 27.6875 
L 70.515625 27.6875 
L 70.515625 20.21875 
L 53.078125 20.21875 
L 48 0 
L 40.1875 0 
L 45.21875 20.21875 
L 30.90625 20.21875 
L 25.875 0 
L 18.015625 0 
L 23.09375 20.21875 
L 7.71875 20.21875 
L 7.71875 27.6875 
L 24.90625 27.6875 
L 29 44 
L 13.28125 44 
L 13.28125 51.515625 
L 30.90625 51.515625 
L 35.890625 71.78125 
z
" id="DejaVuSans-35"/>
       <path id="DejaVuSans-32"/>
       <path d="M 37.109375 75.984375 
L 37.109375 68.5 
L 28.515625 68.5 
Q 23.6875 68.5 21.796875 66.546875 
Q 19.921875 64.59375 19.921875 59.515625 
L 19.921875 54.6875 
L 34.71875 54.6875 
L 34.71875 47.703125 
L 19.921875 47.703125 
L 19.921875 0 
L 10.890625 0 
L 10.890625 47.703125 
L 2.296875 47.703125 
L 2.296875 54.6875 
L 10.890625 54.6875 
L 10.890625 58.5 
Q 10.890625 67.625 15.140625 71.796875 
Q 19.390625 75.984375 28.609375 75.984375 
z
" id="DejaVuSans-102"/>
       <path d="M 4.890625 31.390625 
L 31.203125 31.390625 
L 31.203125 23.390625 
L 4.890625 23.390625 
z
" id="DejaVuSans-45"/>
       <path d="M 56.203125 29.59375 
L 56.203125 25.203125 
L 14.890625 25.203125 
Q 15.484375 15.921875 20.484375 11.0625 
Q 25.484375 6.203125 34.421875 6.203125 
Q 39.59375 6.203125 44.453125 7.46875 
Q 49.3125 8.734375 54.109375 11.28125 
L 54.109375 2.78125 
Q 49.265625 0.734375 44.1875 -0.34375 
Q 39.109375 -1.421875 33.890625 -1.421875 
Q 20.796875 -1.421875 13.15625 6.1875 
Q 5.515625 13.8125 5.515625 26.8125 
Q 5.515625 40.234375 12.765625 48.109375 
Q 20.015625 56 32.328125 56 
Q 43.359375 56 49.78125 48.890625 
Q 56.203125 41.796875 56.203125 29.59375 
z
M 47.21875 32.234375 
Q 47.125 39.59375 43.09375 43.984375 
Q 39.0625 48.390625 32.421875 48.390625 
Q 24.90625 48.390625 20.390625 44.140625 
Q 15.875 39.890625 15.1875 32.171875 
z
" id="DejaVuSans-101"/>
       <path d="M 2.984375 54.6875 
L 12.5 54.6875 
L 29.59375 8.796875 
L 46.6875 54.6875 
L 56.203125 54.6875 
L 35.6875 0 
L 23.484375 0 
z
" id="DejaVuSans-118"/>
       <path d="M 34.28125 27.484375 
Q 23.390625 27.484375 19.1875 25 
Q 14.984375 22.515625 14.984375 16.5 
Q 14.984375 11.71875 18.140625 8.90625 
Q 21.296875 6.109375 26.703125 6.109375 
Q 34.1875 6.109375 38.703125 11.40625 
Q 43.21875 16.703125 43.21875 25.484375 
L 43.21875 27.484375 
z
M 52.203125 31.203125 
L 52.203125 0 
L 43.21875 0 
L 43.21875 8.296875 
Q 40.140625 3.328125 35.546875 0.953125 
Q 30.953125 -1.421875 24.3125 -1.421875 
Q 15.921875 -1.421875 10.953125 3.296875 
Q 6 8.015625 6 15.921875 
Q 6 25.140625 12.171875 29.828125 
Q 18.359375 34.515625 30.609375 34.515625 
L 43.21875 34.515625 
L 43.21875 35.40625 
Q 43.21875 41.609375 39.140625 45 
Q 35.0625 48.390625 27.6875 48.390625 
Q 23 48.390625 18.546875 47.265625 
Q 14.109375 46.140625 10.015625 43.890625 
L 10.015625 52.203125 
Q 14.9375 54.109375 19.578125 55.046875 
Q 24.21875 56 28.609375 56 
Q 40.484375 56 46.34375 49.84375 
Q 52.203125 43.703125 52.203125 31.203125 
z
" id="DejaVuSans-97"/>
       <path d="M 44.28125 53.078125 
L 44.28125 44.578125 
Q 40.484375 46.53125 36.375 47.5 
Q 32.28125 48.484375 27.875 48.484375 
Q 21.1875 48.484375 17.84375 46.4375 
Q 14.5 44.390625 14.5 40.28125 
Q 14.5 37.15625 16.890625 35.375 
Q 19.28125 33.59375 26.515625 31.984375 
L 29.59375 31.296875 
Q 39.15625 29.25 43.1875 25.515625 
Q 47.21875 21.78125 47.21875 15.09375 
Q 47.21875 7.46875 41.1875 3.015625 
Q 35.15625 -1.421875 24.609375 -1.421875 
Q 20.21875 -1.421875 15.453125 -0.5625 
Q 10.6875 0.296875 5.421875 2 
L 5.421875 11.28125 
Q 10.40625 8.6875 15.234375 7.390625 
Q 20.0625 6.109375 24.8125 6.109375 
Q 31.15625 6.109375 34.5625 8.28125 
Q 37.984375 10.453125 37.984375 14.40625 
Q 37.984375 18.0625 35.515625 20.015625 
Q 33.0625 21.96875 24.703125 23.78125 
L 21.578125 24.515625 
Q 13.234375 26.265625 9.515625 29.90625 
Q 5.8125 33.546875 5.8125 39.890625 
Q 5.8125 47.609375 11.28125 51.796875 
Q 16.75 56 26.8125 56 
Q 31.78125 56 36.171875 55.265625 
Q 40.578125 54.546875 44.28125 53.078125 
z
" id="DejaVuSans-115"/>
       <path d="M 25.390625 72.90625 
L 33.6875 72.90625 
L 8.296875 -9.28125 
L 0 -9.28125 
z
" id="DejaVuSans-47"/>
       <path d="M 45.40625 46.390625 
L 45.40625 75.984375 
L 54.390625 75.984375 
L 54.390625 0 
L 45.40625 0 
L 45.40625 8.203125 
Q 42.578125 3.328125 38.25 0.953125 
Q 33.9375 -1.421875 27.875 -1.421875 
Q 17.96875 -1.421875 11.734375 6.484375 
Q 5.515625 14.40625 5.515625 27.296875 
Q 5.515625 40.1875 11.734375 48.09375 
Q 17.96875 56 27.875 56 
Q 33.9375 56 38.25 53.625 
Q 42.578125 51.265625 45.40625 46.390625 
z
M 14.796875 27.296875 
Q 14.796875 17.390625 18.875 11.75 
Q 22.953125 6.109375 30.078125 6.109375 
Q 37.203125 6.109375 41.296875 11.75 
Q 45.40625 17.390625 45.40625 27.296875 
Q 45.40625 37.203125 41.296875 42.84375 
Q 37.203125 48.484375 30.078125 48.484375 
Q 22.953125 48.484375 18.875 42.84375 
Q 14.796875 37.203125 14.796875 27.296875 
z
" id="DejaVuSans-100"/>
       <path d="M 9.421875 54.6875 
L 18.40625 54.6875 
L 18.40625 0 
L 9.421875 0 
z
M 9.421875 75.984375 
L 18.40625 75.984375 
L 18.40625 64.59375 
L 9.421875 64.59375 
z
" id="DejaVuSans-105"/>
       <path d="M 52 44.1875 
Q 55.375 50.25 60.0625 53.125 
Q 64.75 56 71.09375 56 
Q 79.640625 56 84.28125 50.015625 
Q 88.921875 44.046875 88.921875 33.015625 
L 88.921875 0 
L 79.890625 0 
L 79.890625 32.71875 
Q 79.890625 40.578125 77.09375 44.375 
Q 74.3125 48.1875 68.609375 48.1875 
Q 61.625 48.1875 57.5625 43.546875 
Q 53.515625 38.921875 53.515625 30.90625 
L 53.515625 0 
L 44.484375 0 
L 44.484375 32.71875 
Q 44.484375 40.625 41.703125 44.40625 
Q 38.921875 48.1875 33.109375 48.1875 
Q 26.21875 48.1875 22.15625 43.53125 
Q 18.109375 38.875 18.109375 30.90625 
L 18.109375 0 
L 9.078125 0 
L 9.078125 54.6875 
L 18.109375 54.6875 
L 18.109375 46.1875 
Q 21.1875 51.21875 25.484375 53.609375 
Q 29.78125 56 35.6875 56 
Q 41.65625 56 45.828125 52.96875 
Q 50 49.953125 52 44.1875 
z
" id="DejaVuSans-109"/>
       <path d="M 54.890625 33.015625 
L 54.890625 0 
L 45.90625 0 
L 45.90625 32.71875 
Q 45.90625 40.484375 42.875 44.328125 
Q 39.84375 48.1875 33.796875 48.1875 
Q 26.515625 48.1875 22.3125 43.546875 
Q 18.109375 38.921875 18.109375 30.90625 
L 18.109375 0 
L 9.078125 0 
L 9.078125 54.6875 
L 18.109375 54.6875 
L 18.109375 46.1875 
Q 21.34375 51.125 25.703125 53.5625 
Q 30.078125 56 35.796875 56 
Q 45.21875 56 50.046875 50.171875 
Q 54.890625 44.34375 54.890625 33.015625 
z
" id="DejaVuSans-110"/>
       <path d="M 8.015625 75.875 
L 15.828125 75.875 
Q 23.140625 64.359375 26.78125 53.3125 
Q 30.421875 42.28125 30.421875 31.390625 
Q 30.421875 20.453125 26.78125 9.375 
Q 23.140625 -1.703125 15.828125 -13.1875 
L 8.015625 -13.1875 
Q 14.5 -2 17.703125 9.0625 
Q 20.90625 20.125 20.90625 31.390625 
Q 20.90625 42.671875 17.703125 53.65625 
Q 14.5 64.65625 8.015625 75.875 
z
" id="DejaVuSans-41"/>
      </defs>
      <use xlink:href="#DejaVuSans-108"/>
      <use x="27.783203" xlink:href="#DejaVuSans-111"/>
      <use x="88.964844" xlink:href="#DejaVuSans-103"/>
      <use x="152.441406" xlink:href="#DejaVuSans-49"/>
      <use x="216.064453" xlink:href="#DejaVuSans-48"/>
      <use x="279.6875" xlink:href="#DejaVuSans-40"/>
      <use x="318.701172" xlink:href="#DejaVuSans-35"/>
      <use x="402.490234" xlink:href="#DejaVuSans-32"/>
      <use x="434.277344" xlink:href="#DejaVuSans-102"/>
      <use x="463.982422" xlink:href="#DejaVuSans-45"/>
      <use x="500.066406" xlink:href="#DejaVuSans-101"/>
      <use x="561.589844" xlink:href="#DejaVuSans-118"/>
      <use x="620.769531" xlink:href="#DejaVuSans-97"/>
      <use x="682.048828" xlink:href="#DejaVuSans-108"/>
      <use x="709.832031" xlink:href="#DejaVuSans-115"/>
      <use x="761.931641" xlink:href="#DejaVuSans-32"/>
      <use x="793.71875" xlink:href="#DejaVuSans-47"/>
      <use x="827.410156" xlink:href="#DejaVuSans-32"/>
      <use x="859.197266" xlink:href="#DejaVuSans-100"/>
      <use x="922.673828" xlink:href="#DejaVuSans-105"/>
      <use x="950.457031" xlink:href="#DejaVuSans-109"/>
      <use x="1047.869141" xlink:href="#DejaVuSans-101"/>
      <use x="1109.392578" xlink:href="#DejaVuSans-110"/>
      <use x="1172.771484" xlink:href="#DejaVuSans-115"/>
      <use x="1224.871094" xlink:href="#DejaVuSans-105"/>
      <use x="1252.654297" xlink:href="#DejaVuSans-111"/>
      <use x="1313.835938" xlink:href="#DejaVuSans-110"/>
      <use x="1377.214844" xlink:href="#DejaVuSans-41"/>
     </g>
    </g>
   </g>
   <g id="matplotlib.axis_2">
    <g id="ytick_1">
     <g id="line2d_21">
      <path clip-path="url(#p20a6c61605)" d="M 57.6 298.944 
L 338.688 298.944 
" style="fill:none;stroke:#b0b0b0;stroke-linecap:square;stroke-width:0.8;"/>
     </g>
     <g id="line2d_22">
      <defs>
       <path d="M 0 0 
L -3.5 0 
" id="mbf7f7a3ed8" style="stroke:#000000;stroke-width:0.8;"/>
      </defs>
      <g>
       <use style="stroke:#000000;stroke-width:0.8;" x="57.6" xlink:href="#mbf7f7a3ed8" y="298.944"/>
      </g>
     </g>
     <g id="text_6">
      <!-- 0.0 -->
      <g transform="translate(25.155 305.02275)scale(0.16 -0.16)">
       <defs>
        <path d="M 10.6875 12.40625 
L 21 12.40625 
L 21 0 
L 10.6875 0 
z
" id="DejaVuSans-46"/>
       </defs>
       <use xlink:href="#DejaVuSans-48"/>
       <use x="63.623047" xlink:href="#DejaVuSans-46"/>
       <use x="95.410156" xlink:href="#DejaVuSans-48"/>
      </g>
     </g>
    </g>
    <g id="ytick_2">
     <g id="line2d_23">
      <path clip-path="url(#p20a6c61605)" d="M 57.6 240.431525 
L 338.688 240.431525 
" style="fill:none;stroke:#b0b0b0;stroke-linecap:square;stroke-width:0.8;"/>
     </g>
     <g id="line2d_24">
      <g>
       <use style="stroke:#000000;stroke-width:0.8;" x="57.6" xlink:href="#mbf7f7a3ed8" y="240.431525"/>
      </g>
     </g>
     <g id="text_7">
      <!-- 0.2 -->
      <g transform="translate(25.155 246.510275)scale(0.16 -0.16)">
       <use xlink:href="#DejaVuSans-48"/>
       <use x="63.623047" xlink:href="#DejaVuSans-46"/>
       <use x="95.410156" xlink:href="#DejaVuSans-50"/>
      </g>
     </g>
    </g>
    <g id="ytick_3">
     <g id="line2d_25">
      <path clip-path="url(#p20a6c61605)" d="M 57.6 181.91905 
L 338.688 181.91905 
" style="fill:none;stroke:#b0b0b0;stroke-linecap:square;stroke-width:0.8;"/>
     </g>
     <g id="line2d_26">
      <g>
       <use style="stroke:#000000;stroke-width:0.8;" x="57.6" xlink:href="#mbf7f7a3ed8" y="181.91905"/>
      </g>
     </g>
     <g id="text_8">
      <!-- 0.4 -->
      <g transform="translate(25.155 187.9978)scale(0.16 -0.16)">
       <use xlink:href="#DejaVuSans-48"/>
       <use x="63.623047" xlink:href="#DejaVuSans-46"/>
       <use x="95.410156" xlink:href="#DejaVuSans-52"/>
      </g>
     </g>
    </g>
    <g id="ytick_4">
     <g id="line2d_27">
      <path clip-path="url(#p20a6c61605)" d="M 57.6 123.406574 
L 338.688 123.406574 
" style="fill:none;stroke:#b0b0b0;stroke-linecap:square;stroke-width:0.8;"/>
     </g>
     <g id="line2d_28">
      <g>
       <use style="stroke:#000000;stroke-width:0.8;" x="57.6" xlink:href="#mbf7f7a3ed8" y="123.406574"/>
      </g>
     </g>
     <g id="text_9">
      <!-- 0.6 -->
      <g transform="translate(25.155 129.485324)scale(0.16 -0.16)">
       <use xlink:href="#DejaVuSans-48"/>
       <use x="63.623047" xlink:href="#DejaVuSans-46"/>
       <use x="95.410156" xlink:href="#DejaVuSans-54"/>
      </g>
     </g>
    </g>
    <g id="ytick_5">
     <g id="line2d_29">
      <path clip-path="url(#p20a6c61605)" d="M 57.6 64.894099 
L 338.688 64.894099 
" style="fill:none;stroke:#b0b0b0;stroke-linecap:square;stroke-width:0.8;"/>
     </g>
     <g id="line2d_30">
      <g>
       <use style="stroke:#000000;stroke-width:0.8;" x="57.6" xlink:href="#mbf7f7a3ed8" y="64.894099"/>
      </g>
     </g>
     <g id="text_10">
      <!-- 0.8 -->
      <g transform="translate(25.155 70.972849)scale(0.16 -0.16)">
       <defs>
        <path d="M 31.78125 34.625 
Q 24.75 34.625 20.71875 30.859375 
Q 16.703125 27.09375 16.703125 20.515625 
Q 16.703125 13.921875 20.71875 10.15625 
Q 24.75 6.390625 31.78125 6.390625 
Q 38.8125 6.390625 42.859375 10.171875 
Q 46.921875 13.96875 46.921875 20.515625 
Q 46.921875 27.09375 42.890625 30.859375 
Q 38.875 34.625 31.78125 34.625 
z
M 21.921875 38.8125 
Q 15.578125 40.375 12.03125 44.71875 
Q 8.5 49.078125 8.5 55.328125 
Q 8.5 64.0625 14.71875 69.140625 
Q 20.953125 74.21875 31.78125 74.21875 
Q 42.671875 74.21875 48.875 69.140625 
Q 55.078125 64.0625 55.078125 55.328125 
Q 55.078125 49.078125 51.53125 44.71875 
Q 48 40.375 41.703125 38.8125 
Q 48.828125 37.15625 52.796875 32.3125 
Q 56.78125 27.484375 56.78125 20.515625 
Q 56.78125 9.90625 50.3125 4.234375 
Q 43.84375 -1.421875 31.78125 -1.421875 
Q 19.734375 -1.421875 13.25 4.234375 
Q 6.78125 9.90625 6.78125 20.515625 
Q 6.78125 27.484375 10.78125 32.3125 
Q 14.796875 37.15625 21.921875 38.8125 
z
M 18.3125 54.390625 
Q 18.3125 48.734375 21.84375 45.5625 
Q 25.390625 42.390625 31.78125 42.390625 
Q 38.140625 42.390625 41.71875 45.5625 
Q 45.3125 48.734375 45.3125 54.390625 
Q 45.3125 60.0625 41.71875 63.234375 
Q 38.140625 66.40625 31.78125 66.40625 
Q 25.390625 66.40625 21.84375 63.234375 
Q 18.3125 60.0625 18.3125 54.390625 
z
" id="DejaVuSans-56"/>
       </defs>
       <use xlink:href="#DejaVuSans-48"/>
       <use x="63.623047" xlink:href="#DejaVuSans-46"/>
       <use x="95.410156" xlink:href="#DejaVuSans-56"/>
      </g>
     </g>
    </g>
    <g id="ytick_6">
     <g id="line2d_31">
      <path clip-path="url(#p20a6c61605)" d="M 57.6 6.381624 
L 338.688 6.381624 
" style="fill:none;stroke:#b0b0b0;stroke-linecap:square;stroke-width:0.8;"/>
     </g>
     <g id="line2d_32">
      <g>
       <use style="stroke:#000000;stroke-width:0.8;" x="57.6" xlink:href="#mbf7f7a3ed8" y="6.381624"/>
      </g>
     </g>
     <g id="text_11">
      <!-- 1.0 -->
      <g transform="translate(25.155 12.460374)scale(0.16 -0.16)">
       <use xlink:href="#DejaVuSans-49"/>
       <use x="63.623047" xlink:href="#DejaVuSans-46"/>
       <use x="95.410156" xlink:href="#DejaVuSans-48"/>
      </g>
     </g>
    </g>
    <g id="text_12">
     <!-- Fraction of function,target pairs -->
     <g transform="translate(17.619531 285.585)rotate(-90)scale(0.17 -0.17)">
      <defs>
       <path d="M 9.8125 72.90625 
L 51.703125 72.90625 
L 51.703125 64.59375 
L 19.671875 64.59375 
L 19.671875 43.109375 
L 48.578125 43.109375 
L 48.578125 34.8125 
L 19.671875 34.8125 
L 19.671875 0 
L 9.8125 0 
z
" id="DejaVuSans-70"/>
       <path d="M 41.109375 46.296875 
Q 39.59375 47.171875 37.8125 47.578125 
Q 36.03125 48 33.890625 48 
Q 26.265625 48 22.1875 43.046875 
Q 18.109375 38.09375 18.109375 28.8125 
L 18.109375 0 
L 9.078125 0 
L 9.078125 54.6875 
L 18.109375 54.6875 
L 18.109375 46.1875 
Q 20.953125 51.171875 25.484375 53.578125 
Q 30.03125 56 36.53125 56 
Q 37.453125 56 38.578125 55.875 
Q 39.703125 55.765625 41.0625 55.515625 
z
" id="DejaVuSans-114"/>
       <path d="M 48.78125 52.59375 
L 48.78125 44.1875 
Q 44.96875 46.296875 41.140625 47.34375 
Q 37.3125 48.390625 33.40625 48.390625 
Q 24.65625 48.390625 19.8125 42.84375 
Q 14.984375 37.3125 14.984375 27.296875 
Q 14.984375 17.28125 19.8125 11.734375 
Q 24.65625 6.203125 33.40625 6.203125 
Q 37.3125 6.203125 41.140625 7.25 
Q 44.96875 8.296875 48.78125 10.40625 
L 48.78125 2.09375 
Q 45.015625 0.34375 40.984375 -0.53125 
Q 36.96875 -1.421875 32.421875 -1.421875 
Q 20.0625 -1.421875 12.78125 6.34375 
Q 5.515625 14.109375 5.515625 27.296875 
Q 5.515625 40.671875 12.859375 48.328125 
Q 20.21875 56 33.015625 56 
Q 37.15625 56 41.109375 55.140625 
Q 45.0625 54.296875 48.78125 52.59375 
z
" id="DejaVuSans-99"/>
       <path d="M 18.3125 70.21875 
L 18.3125 54.6875 
L 36.8125 54.6875 
L 36.8125 47.703125 
L 18.3125 47.703125 
L 18.3125 18.015625 
Q 18.3125 11.328125 20.140625 9.421875 
Q 21.96875 7.515625 27.59375 7.515625 
L 36.8125 7.515625 
L 36.8125 0 
L 27.59375 0 
Q 17.1875 0 13.234375 3.875 
Q 9.28125 7.765625 9.28125 18.015625 
L 9.28125 47.703125 
L 2.6875 47.703125 
L 2.6875 54.6875 
L 9.28125 54.6875 
L 9.28125 70.21875 
z
" id="DejaVuSans-116"/>
       <path d="M 8.5 21.578125 
L 8.5 54.6875 
L 17.484375 54.6875 
L 17.484375 21.921875 
Q 17.484375 14.15625 20.5 10.265625 
Q 23.53125 6.390625 29.59375 6.390625 
Q 36.859375 6.390625 41.078125 11.03125 
Q 45.3125 15.671875 45.3125 23.6875 
L 45.3125 54.6875 
L 54.296875 54.6875 
L 54.296875 0 
L 45.3125 0 
L 45.3125 8.40625 
Q 42.046875 3.421875 37.71875 1 
Q 33.40625 -1.421875 27.6875 -1.421875 
Q 18.265625 -1.421875 13.375 4.4375 
Q 8.5 10.296875 8.5 21.578125 
z
M 31.109375 56 
z
" id="DejaVuSans-117"/>
       <path d="M 11.71875 12.40625 
L 22.015625 12.40625 
L 22.015625 4 
L 14.015625 -11.625 
L 7.71875 -11.625 
L 11.71875 4 
z
" id="DejaVuSans-44"/>
       <path d="M 18.109375 8.203125 
L 18.109375 -20.796875 
L 9.078125 -20.796875 
L 9.078125 54.6875 
L 18.109375 54.6875 
L 18.109375 46.390625 
Q 20.953125 51.265625 25.265625 53.625 
Q 29.59375 56 35.59375 56 
Q 45.5625 56 51.78125 48.09375 
Q 58.015625 40.1875 58.015625 27.296875 
Q 58.015625 14.40625 51.78125 6.484375 
Q 45.5625 -1.421875 35.59375 -1.421875 
Q 29.59375 -1.421875 25.265625 0.953125 
Q 20.953125 3.328125 18.109375 8.203125 
z
M 48.6875 27.296875 
Q 48.6875 37.203125 44.609375 42.84375 
Q 40.53125 48.484375 33.40625 48.484375 
Q 26.265625 48.484375 22.1875 42.84375 
Q 18.109375 37.203125 18.109375 27.296875 
Q 18.109375 17.390625 22.1875 11.75 
Q 26.265625 6.109375 33.40625 6.109375 
Q 40.53125 6.109375 44.609375 11.75 
Q 48.6875 17.390625 48.6875 27.296875 
z
" id="DejaVuSans-112"/>
      </defs>
      <use xlink:href="#DejaVuSans-70"/>
      <use x="50.269531" xlink:href="#DejaVuSans-114"/>
      <use x="91.382812" xlink:href="#DejaVuSans-97"/>
      <use x="152.662109" xlink:href="#DejaVuSans-99"/>
      <use x="207.642578" xlink:href="#DejaVuSans-116"/>
      <use x="246.851562" xlink:href="#DejaVuSans-105"/>
      <use x="274.634766" xlink:href="#DejaVuSans-111"/>
      <use x="335.816406" xlink:href="#DejaVuSans-110"/>
      <use x="399.195312" xlink:href="#DejaVuSans-32"/>
      <use x="430.982422" xlink:href="#DejaVuSans-111"/>
      <use x="492.164062" xlink:href="#DejaVuSans-102"/>
      <use x="527.369141" xlink:href="#DejaVuSans-32"/>
      <use x="559.15625" xlink:href="#DejaVuSans-102"/>
      <use x="594.361328" xlink:href="#DejaVuSans-117"/>
      <use x="657.740234" xlink:href="#DejaVuSans-110"/>
      <use x="721.119141" xlink:href="#DejaVuSans-99"/>
      <use x="776.099609" xlink:href="#DejaVuSans-116"/>
      <use x="815.308594" xlink:href="#DejaVuSans-105"/>
      <use x="843.091797" xlink:href="#DejaVuSans-111"/>
      <use x="904.273438" xlink:href="#DejaVuSans-110"/>
      <use x="967.652344" xlink:href="#DejaVuSans-44"/>
      <use x="999.439453" xlink:href="#DejaVuSans-116"/>
      <use x="1038.648438" xlink:href="#DejaVuSans-97"/>
      <use x="1099.927734" xlink:href="#DejaVuSans-114"/>
      <use x="1139.291016" xlink:href="#DejaVuSans-103"/>
      <use x="1202.767578" xlink:href="#DejaVuSans-101"/>
      <use x="1264.291016" xlink:href="#DejaVuSans-116"/>
      <use x="1303.5" xlink:href="#DejaVuSans-32"/>
      <use x="1335.287109" xlink:href="#DejaVuSans-112"/>
      <use x="1398.763672" xlink:href="#DejaVuSans-97"/>
      <use x="1460.042969" xlink:href="#DejaVuSans-105"/>
      <use x="1487.826172" xlink:href="#DejaVuSans-114"/>
      <use x="1528.939453" xlink:href="#DejaVuSans-115"/>
     </g>
    </g>
   </g>
   <g id="line2d_33">
    <defs>
     <path d="M 0 1.5 
C 0.397805 1.5 0.77937 1.341951 1.06066 1.06066 
C 1.341951 0.77937 1.5 0.397805 1.5 0 
C 1.5 -0.397805 1.341951 -0.77937 1.06066 -1.06066 
C 0.77937 -1.341951 0.397805 -1.5 0 -1.5 
C -0.397805 -1.5 -0.77937 -1.341951 -1.06066 -1.06066 
C -1.341951 -0.77937 -1.5 -0.397805 -1.5 0 
C -1.5 0.397805 -1.341951 0.77937 -1.06066 1.06066 
C -0.77937 1.341951 -0.397805 1.5 0 1.5 
z
" id="mefe40d302d" style="stroke:#f5deb3;"/>
    </defs>
    <g>
     <use style="fill:#f5deb3;stroke:#f5deb3;" x="176.056539" xlink:href="#mefe40d302d" y="6.381624"/>
     <use style="fill:#f5deb3;stroke:#f5deb3;" x="176.056539" xlink:href="#mefe40d302d" y="6.381624"/>
    </g>
   </g>
   <g id="line2d_34">
    <defs>
     <path d="M 0 1.5 
C 0.397805 1.5 0.77937 1.341951 1.06066 1.06066 
C 1.341951 0.77937 1.5 0.397805 1.5 0 
C 1.5 -0.397805 1.341951 -0.77937 1.06066 -1.06066 
C 0.77937 -1.341951 0.397805 -1.5 0 -1.5 
C -0.397805 -1.5 -0.77937 -1.341951 -1.06066 -1.06066 
C -1.341951 -0.77937 -1.5 -0.397805 -1.5 0 
C -1.5 0.397805 -1.341951 0.77937 -1.06066 1.06066 
C -0.77937 1.341951 -0.397805 1.5 0 1.5 
z
" id="m91d7558482" style="stroke:#000080;"/>
    </defs>
    <g>
     <use style="fill:#000080;stroke:#000080;" x="287.132474" xlink:href="#m91d7558482" y="65.180925"/>
     <use style="fill:#000080;stroke:#000080;" x="287.132474" xlink:href="#m91d7558482" y="65.180925"/>
    </g>
   </g>
   <g id="line2d_35">
    <path d="M 102.263669 298.944 
L 102.263669 298.800587 
L 106.006367 298.800587 
L 106.006367 298.657174 
L 106.382575 298.657174 
L 106.382575 298.513761 
L 106.593963 298.513761 
L 106.593963 298.370348 
L 106.957836 298.370348 
L 106.957836 298.226935 
L 108.246551 298.226935 
L 108.246551 298.083522 
L 108.856871 298.083522 
L 108.948899 297.653284 
L 109.446552 297.653284 
L 109.446552 297.509871 
L 110.527398 297.509871 
L 110.527398 297.366458 
L 112.803609 297.366458 
L 112.803609 297.223045 
L 113.022974 297.223045 
L 113.13163 296.936219 
L 114.585746 296.936219 
L 114.585746 296.792806 
L 115.4287 296.792806 
L 115.4287 296.649393 
L 115.958621 296.649393 
L 115.958621 296.50598 
L 116.141872 296.50598 
L 116.141872 296.362567 
L 116.680349 296.362567 
L 116.680349 296.219154 
L 117.231262 296.219154 
L 117.231262 296.075741 
L 117.458117 296.075741 
L 117.458117 295.932328 
L 117.84815 295.932328 
L 117.84815 295.788916 
L 117.985359 295.788916 
L 118.012672 295.50209 
L 118.838828 295.50209 
L 118.91674 295.215264 
L 119.071527 295.215264 
L 119.071527 294.928438 
L 119.351785 294.928438 
L 119.40226 294.641612 
L 119.552816 294.641612 
L 119.577783 294.354786 
L 120.142369 294.354786 
L 120.142369 294.06796 
L 120.262724 294.06796 
L 120.262724 293.781135 
L 120.453579 293.781135 
L 120.47729 293.494309 
L 120.689249 293.494309 
L 120.689249 293.207483 
L 120.8059 293.207483 
L 120.8059 293.06407 
L 121.013926 293.06407 
L 121.105591 292.347005 
L 121.128432 292.347005 
L 121.128432 292.203592 
L 121.512225 292.203592 
L 121.601315 291.773354 
L 121.667835 291.773354 
L 121.734102 291.056289 
L 122.018385 291.056289 
L 122.104932 290.62605 
L 122.31944 290.62605 
L 122.31944 290.482637 
L 122.573415 290.482637 
L 122.636335 290.195811 
L 122.719876 290.195811 
L 122.761498 289.908985 
L 123.029641 289.908985 
L 123.090939 289.62216 
L 123.212892 289.62216 
L 123.293723 289.191921 
L 123.354102 289.191921 
L 123.354102 289.048508 
L 123.474235 289.048508 
L 123.474235 288.905095 
L 123.593547 288.905095 
L 123.613353 288.618269 
L 123.712047 288.618269 
L 123.712047 288.474856 
L 123.868806 288.474856 
L 123.94666 288.044617 
L 124.082074 288.044617 
L 124.120571 287.757791 
L 124.235556 287.757791 
L 124.235556 287.614379 
L 124.368753 287.614379 
L 124.406624 287.18414 
L 124.519744 287.18414 
L 124.57603 286.897314 
L 124.725244 286.897314 
L 124.836322 286.467075 
L 125.092787 286.467075 
L 125.183475 286.036836 
L 125.219619 286.036836 
L 125.219619 285.893423 
L 125.434921 285.893423 
L 125.434921 285.75001 
L 125.612332 285.75001 
L 125.682793 285.463185 
L 125.735454 285.463185 
L 125.840299 285.032946 
L 125.892487 285.032946 
L 125.996395 284.602707 
L 126.168212 284.602707 
L 126.168212 284.459294 
L 126.304457 284.459294 
L 126.304457 284.315881 
L 126.490073 284.315881 
L 126.490073 284.172468 
L 126.607172 284.172468 
L 126.673734 283.598817 
L 126.756581 283.598817 
L 126.756581 283.455404 
L 126.97016 283.455404 
L 126.97016 283.311991 
L 127.132689 283.311991 
L 127.181154 282.164687 
L 127.245565 282.164687 
L 127.325746 281.877861 
L 127.40556 281.877861 
L 127.40556 281.734448 
L 127.658536 281.734448 
L 127.658536 281.591036 
L 127.845889 281.591036 
L 127.87692 281.30421 
L 128.015879 281.30421 
L 128.123198 281.017384 
L 128.275374 281.017384 
L 128.335875 280.587145 
L 128.753602 280.587145 
L 128.753602 280.443732 
L 128.91501 280.443732 
L 128.973336 280.013493 
L 129.06046 280.013493 
L 129.06046 279.87008 
L 129.190335 279.87008 
L 129.190335 279.726667 
L 129.39046 279.726667 
L 129.418863 279.439842 
L 129.546106 279.439842 
L 129.560187 279.153016 
L 129.770048 279.153016 
L 129.79784 278.86619 
L 130.263646 278.86619 
L 130.371462 278.292538 
L 130.398313 278.292538 
L 130.438511 278.005712 
L 130.756803 278.005712 
L 130.756803 277.718886 
L 130.939826 277.718886 
L 131.01768 277.288648 
L 131.249178 277.288648 
L 131.274712 277.001822 
L 131.578231 277.001822 
L 131.640805 276.714996 
L 131.765283 276.714996 
L 131.765283 276.571583 
L 131.974877 276.571583 
L 132.060454 276.141344 
L 132.266551 276.141344 
L 132.290639 275.854518 
L 132.434469 275.854518 
L 132.446401 275.567692 
L 132.753813 275.567692 
L 132.835661 275.280867 
L 133.090422 275.280867 
L 133.090422 275.137454 
L 133.205004 275.137454 
L 133.205004 274.994041 
L 133.46572 274.994041 
L 133.46572 274.850628 
L 133.678192 274.850628 
L 133.678192 274.707215 
L 134.332651 274.707215 
L 134.332651 274.563802 
L 134.460646 274.563802 
L 134.545457 274.276976 
L 134.745246 274.276976 
L 134.745246 274.133563 
L 135.025276 274.133563 
L 135.025276 273.846737 
L 135.138086 273.846737 
L 135.138086 273.703324 
L 135.300881 273.703324 
L 135.411927 273.273086 
L 135.552244 273.273086 
L 135.651784 272.98626 
L 135.829535 272.98626 
L 135.898175 272.699434 
L 136.924311 272.699434 
L 136.96118 272.412608 
L 137.062172 272.412608 
L 137.062172 272.269195 
L 137.253364 272.269195 
L 137.307607 271.982369 
L 137.37967 271.982369 
L 137.460387 271.695543 
L 137.513992 271.695543 
L 137.513992 271.55213 
L 137.709143 271.55213 
L 137.709143 271.408718 
L 137.849713 271.408718 
L 137.867204 271.121892 
L 138.01518 271.121892 
L 138.01518 270.978479 
L 138.127497 270.978479 
L 138.127497 270.835066 
L 138.552866 270.835066 
L 138.552866 270.691653 
L 138.869347 270.691653 
L 138.943469 270.118001 
L 138.984513 270.118001 
L 139.082624 269.831175 
L 139.098923 269.831175 
L 139.131474 269.544349 
L 139.220677 269.544349 
L 139.220677 269.400937 
L 139.541262 269.400937 
L 139.541262 269.257524 
L 139.817018 269.257524 
L 139.817018 269.114111 
L 140.11924 269.114111 
L 140.149942 268.827285 
L 140.423864 268.827285 
L 140.423864 268.683872 
L 140.782525 268.683872 
L 140.782525 268.540459 
L 141.061324 268.540459 
L 141.097679 268.253633 
L 141.177393 268.253633 
L 141.278324 267.823394 
L 141.378673 267.823394 
L 141.485554 267.393156 
L 141.620002 267.393156 
L 141.704386 266.676091 
L 141.975847 266.676091 
L 141.975847 266.532678 
L 142.140824 266.532678 
L 142.243147 265.959026 
L 142.559927 265.959026 
L 142.559927 265.815613 
L 142.785553 265.815613 
L 142.877616 265.385374 
L 142.995272 265.385374 
L 143.086237 265.098549 
L 143.196061 265.098549 
L 143.208936 264.811723 
L 143.311596 264.811723 
L 143.311596 264.66831 
L 143.678752 264.66831 
L 143.678752 264.524897 
L 143.816021 264.524897 
L 143.816021 264.094658 
L 143.989178 264.094658 
L 144.099593 263.807832 
L 144.306265 263.807832 
L 144.396671 263.521006 
L 144.564185 263.521006 
L 144.65919 263.234181 
L 144.75368 263.234181 
L 144.765455 262.803942 
L 144.865226 262.803942 
L 144.917816 262.517116 
L 145.063071 262.517116 
L 145.172662 262.23029 
L 145.230066 262.23029 
L 145.258697 261.943464 
L 145.355693 261.943464 
L 145.355693 261.800051 
L 145.474772 261.800051 
L 145.581813 261.369812 
L 145.587429 261.369812 
L 145.587429 261.2264 
L 145.782845 261.2264 
L 145.793945 260.939574 
L 145.981585 260.939574 
L 146.025444 260.652748 
L 146.183513 260.652748 
L 146.183513 260.509335 
L 146.622867 260.509335 
L 146.659865 259.935683 
L 146.843687 259.935683 
L 146.937474 259.505444 
L 147.010073 259.505444 
L 147.041095 259.075206 
L 147.154371 259.075206 
L 147.154371 258.931793 
L 147.353388 258.931793 
L 147.414169 258.644967 
L 147.479778 258.644967 
L 147.484815 258.358141 
L 147.729844 258.358141 
L 147.833811 257.641076 
L 147.912611 257.641076 
L 148.000837 257.35425 
L 148.137196 257.35425 
L 148.204978 257.067425 
L 148.253233 257.067425 
L 148.253233 256.924012 
L 148.382858 256.924012 
L 148.382858 256.780599 
L 148.502028 256.780599 
L 148.54473 256.35036 
L 148.634538 256.35036 
L 148.700418 256.063534 
L 148.845415 256.063534 
L 148.87334 255.776708 
L 148.989216 255.776708 
L 149.053772 255.489882 
L 149.18674 255.489882 
L 149.200437 255.203056 
L 149.350404 255.203056 
L 149.413639 254.916231 
L 149.467659 254.916231 
L 149.570731 254.485992 
L 149.597519 254.485992 
L 149.597519 254.342579 
L 149.721991 254.342579 
L 149.83238 253.91234 
L 149.849978 253.91234 
L 149.946449 253.482101 
L 149.963932 253.482101 
L 149.963932 253.338688 
L 150.232701 253.338688 
L 150.271374 253.051863 
L 150.446473 253.051863 
L 150.446473 252.90845 
L 150.58614 252.90845 
L 150.657656 252.334798 
L 150.791483 252.334798 
L 150.833094 252.047972 
L 150.961462 252.047972 
L 151.0643 251.761146 
L 151.0766 251.761146 
L 151.146137 251.47432 
L 151.219462 251.47432 
L 151.308666 251.044082 
L 151.449647 251.044082 
L 151.513718 250.613843 
L 151.573572 250.613843 
L 151.601433 250.040191 
L 151.810952 250.040191 
L 151.861961 249.753365 
L 152.126375 249.753365 
L 152.15722 249.466539 
L 152.302996 249.466539 
L 152.344968 249.179713 
L 152.451351 249.179713 
L 152.549559 248.892888 
L 152.564618 248.892888 
L 152.654705 248.462649 
L 152.680893 248.462649 
L 152.785253 248.03241 
L 152.814956 248.03241 
L 152.833495 247.745584 
L 153.1675 247.745584 
L 153.261766 247.02852 
L 153.412975 247.02852 
L 153.463088 246.741694 
L 153.545105 246.741694 
L 153.630278 246.454868 
L 153.827414 246.454868 
L 153.925152 246.168042 
L 153.987696 246.168042 
L 154.043103 245.737803 
L 154.163695 245.737803 
L 154.170561 245.450977 
L 154.283459 245.450977 
L 154.283459 245.307564 
L 154.412564 245.307564 
L 154.486875 245.020738 
L 154.530637 245.020738 
L 154.624523 244.5905 
L 154.711253 244.5905 
L 154.8141 244.016848 
L 154.866947 244.016848 
L 154.952482 243.443196 
L 155.158017 243.443196 
L 155.158017 243.15637 
L 155.293707 243.15637 
L 155.396385 242.869545 
L 155.409178 242.869545 
L 155.409178 242.726132 
L 155.574631 242.726132 
L 155.587293 242.295893 
L 155.757342 242.295893 
L 155.773004 242.009067 
L 155.907117 242.009067 
L 155.981524 241.292002 
L 156.024783 241.292002 
L 156.132461 240.861764 
L 156.294262 240.861764 
L 156.38821 240.431525 
L 156.406335 240.431525 
L 156.451565 240.001286 
L 156.604476 240.001286 
L 156.678946 239.571047 
L 156.741256 239.571047 
L 156.850501 239.140808 
L 156.882847 239.140808 
L 156.976607 238.71057 
L 157.029126 238.71057 
L 157.052418 238.423744 
L 157.145273 238.423744 
L 157.171299 237.850092 
L 157.275019 237.850092 
L 157.326648 237.419853 
L 157.403807 237.419853 
L 157.403807 237.27644 
L 157.56841 237.27644 
L 157.63607 236.989614 
L 157.700665 236.989614 
L 157.792929 236.702789 
L 157.834707 236.702789 
L 157.934566 236.27255 
L 157.970486 236.27255 
L 158.075062 235.555485 
L 158.083291 235.555485 
L 158.157181 235.125246 
L 158.257931 235.125246 
L 158.309442 234.695008 
L 158.382382 234.695008 
L 158.468436 233.83453 
L 158.625992 233.83453 
L 158.673779 233.404291 
L 158.753132 233.404291 
L 158.847883 232.830639 
L 158.965601 232.830639 
L 159.051426 232.256988 
L 159.08253 232.256988 
L 159.175513 231.970162 
L 159.39565 231.970162 
L 159.499629 231.253097 
L 159.550127 231.253097 
L 159.620579 230.679446 
L 159.673231 230.679446 
L 159.708245 230.249207 
L 159.864942 230.249207 
L 159.936602 229.818968 
L 159.990769 229.818968 
L 160.101044 229.101903 
L 160.127894 229.101903 
L 160.198484 228.671665 
L 160.268789 228.671665 
L 160.372515 228.241426 
L 160.408554 228.241426 
L 160.487579 227.9546 
L 160.532916 227.9546 
L 160.594766 227.524361 
L 160.710736 227.524361 
L 160.783709 226.950709 
L 160.832969 226.950709 
L 160.832969 226.807296 
L 161.033263 226.807296 
L 161.08875 226.520471 
L 161.148663 226.520471 
L 161.245013 225.373167 
L 161.386278 225.373167 
L 161.476813 224.51269 
L 161.557895 224.51269 
L 161.584838 224.082451 
L 161.703344 224.082451 
L 161.805549 223.652212 
L 161.832113 223.652212 
L 161.88953 223.07856 
L 161.95335 223.07856 
L 162.034438 222.504909 
L 162.09773 222.504909 
L 162.208484 222.07467 
L 162.266835 222.07467 
L 162.355069 221.357605 
L 162.402232 221.357605 
L 162.483394 220.64054 
L 162.53871 220.64054 
L 162.619242 219.923476 
L 162.659368 219.923476 
L 162.693088 219.63665 
L 162.781292 219.63665 
L 162.879471 219.062998 
L 163.024679 219.062998 
L 163.127663 218.489347 
L 163.183022 218.489347 
L 163.293217 217.915695 
L 163.299319 217.915695 
L 163.398677 217.485456 
L 163.445119 217.485456 
L 163.48138 217.19863 
L 163.557683 217.19863 
L 163.557683 217.055217 
L 163.671516 217.055217 
L 163.770761 215.907914 
L 163.930348 215.907914 
L 164.002763 214.904023 
L 164.061258 214.904023 
L 164.140886 214.043546 
L 164.216293 214.043546 
L 164.314412 213.039655 
L 164.339335 213.039655 
L 164.339335 212.896242 
L 164.603615 212.896242 
L 164.703338 211.892352 
L 164.723964 211.892352 
L 164.817412 211.3187 
L 164.843488 211.3187 
L 164.843488 211.175287 
L 164.991751 211.175287 
L 165.063574 210.745048 
L 165.113126 210.745048 
L 165.222738 210.171397 
L 165.26094 210.171397 
L 165.31537 209.597745 
L 165.405711 209.597745 
L 165.430922 209.310919 
L 165.549289 209.310919 
L 165.629535 208.737267 
L 165.661531 208.737267 
L 165.76423 207.87679 
L 165.794217 207.87679 
L 165.889129 206.586073 
L 165.932896 206.586073 
L 166.030537 205.869009 
L 166.091286 205.869009 
L 166.186323 205.582183 
L 166.213873 205.582183 
L 166.234507 205.008531 
L 166.448007 205.008531 
L 166.551253 204.578292 
L 166.583288 204.578292 
L 166.682389 204.004641 
L 166.714183 204.004641 
L 166.735904 203.574402 
L 166.854058 203.574402 
L 166.946688 202.857337 
L 166.969769 202.857337 
L 167.050313 202.570511 
L 167.087991 202.570511 
L 167.174506 201.99686 
L 167.263834 201.99686 
L 167.349484 201.279795 
L 167.392955 201.279795 
L 167.490771 200.706143 
L 167.541866 200.706143 
L 167.584861 200.132492 
L 167.680028 200.132492 
L 167.743185 199.845666 
L 167.801403 199.845666 
L 167.801403 199.702253 
L 167.932855 199.702253 
L 167.932855 199.55884 
L 168.047843 199.55884 
L 168.155922 198.985188 
L 168.19436 198.985188 
L 168.295431 198.268123 
L 168.325944 198.268123 
L 168.398956 197.694472 
L 168.492813 197.694472 
L 168.55009 197.264233 
L 168.689479 197.264233 
L 168.787729 196.977407 
L 168.910505 196.977407 
L 168.939961 196.690581 
L 169.03535 196.690581 
L 169.14477 196.403755 
L 169.226025 196.403755 
L 169.241941 196.11693 
L 169.406043 196.11693 
L 169.453259 195.686691 
L 169.51744 195.686691 
L 169.548731 195.399865 
L 169.900426 195.399865 
L 169.997643 195.113039 
L 170.029468 195.113039 
L 170.136965 194.826213 
L 170.17128 194.826213 
L 170.201421 194.395974 
L 170.398784 194.395974 
L 170.47037 194.109149 
L 170.536293 194.109149 
L 170.585907 193.822323 
L 170.668729 193.822323 
L 170.743199 193.535497 
L 170.817353 193.535497 
L 170.91486 193.105258 
L 171.03533 193.105258 
L 171.043158 192.675019 
L 171.201568 192.675019 
L 171.275089 192.101368 
L 171.371357 192.101368 
L 171.384153 191.814542 
L 171.530633 191.814542 
L 171.530633 191.671129 
L 171.682181 191.671129 
L 171.782486 191.097477 
L 171.822447 191.097477 
L 171.915749 190.523825 
L 172.029522 190.523825 
L 172.108232 190.093586 
L 172.152351 190.093586 
L 172.239038 189.376522 
L 172.284043 189.376522 
L 172.284043 189.233109 
L 172.461706 189.233109 
L 172.568398 188.516044 
L 172.591091 188.516044 
L 172.635197 188.085805 
L 172.713597 188.085805 
L 172.794007 187.512154 
L 172.835249 187.512154 
L 172.878743 187.081915 
L 173.003916 187.081915 
L 173.102716 186.508263 
L 173.121251 186.508263 
L 173.226297 185.36096 
L 173.25964 185.36096 
L 173.307818 184.643895 
L 173.377555 184.643895 
L 173.484475 183.640005 
L 173.506007 183.640005 
L 173.600884 183.209766 
L 173.650377 183.209766 
L 173.758991 181.91905 
L 173.785761 181.91905 
L 173.88689 180.628333 
L 173.967595 180.628333 
L 174.064388 179.911268 
L 174.090693 179.911268 
L 174.161738 178.907378 
L 174.241183 178.907378 
L 174.346191 177.760075 
L 174.369919 177.760075 
L 174.465583 176.612771 
L 174.522303 176.612771 
L 174.630946 175.752294 
L 174.648988 175.752294 
L 174.742082 174.748403 
L 174.765278 174.748403 
L 174.835732 173.887925 
L 174.8944 173.887925 
L 175.004915 171.736732 
L 175.039177 171.736732 
L 175.148781 170.589428 
L 175.157025 170.589428 
L 175.241303 168.868473 
L 175.295559 168.868473 
L 175.350666 167.864582 
L 175.416768 167.864582 
L 175.501823 166.28704 
L 175.543188 166.28704 
L 175.640662 164.996324 
L 175.660692 164.996324 
L 175.76448 162.988543 
L 175.776416 162.988543 
L 175.884461 160.837349 
L 175.891376 160.837349 
L 175.999695 158.829568 
L 176.02422 158.829568 
L 176.128796 156.678374 
L 176.137564 156.678374 
L 176.242433 154.957419 
L 176.255013 154.957419 
L 176.363027 151.945747 
L 176.369755 151.945747 
L 176.478973 149.65114 
L 176.483747 149.65114 
L 176.586561 146.496056 
L 176.613118 146.496056 
L 176.721769 143.914623 
L 176.752822 143.914623 
L 176.854066 141.189778 
L 176.869949 141.189778 
L 176.978873 138.178106 
L 176.98444 138.178106 
L 177.084352 135.309847 
L 177.109241 135.309847 
L 177.213938 132.01135 
L 177.225837 132.01135 
L 177.336204 129.57333 
L 177.341659 129.57333 
L 177.432319 126.561659 
L 177.45491 126.561659 
L 177.565636 122.68951 
L 177.579988 122.68951 
L 177.687252 119.821251 
L 177.693489 119.821251 
L 177.8036 117.096405 
L 177.809795 117.096405 
L 177.920056 113.367669 
L 177.933241 113.367669 
L 178.027003 112.220366 
L 178.047092 112.220366 
L 178.157602 108.204804 
L 178.15847 108.204804 
L 178.258795 105.049719 
L 178.270865 105.049719 
L 178.378258 102.181461 
L 178.3911 102.181461 
L 178.498608 98.73955 
L 178.512213 98.73955 
L 178.621513 94.867401 
L 178.625736 94.867401 
L 178.734329 93.146446 
L 178.774564 93.146446 
L 178.873082 91.282078 
L 178.898872 91.282078 
L 178.994212 89.274297 
L 179.018997 89.274297 
L 179.11779 87.266516 
L 179.147319 87.266516 
L 179.251093 85.258735 
L 179.303155 85.258735 
L 179.404394 84.111432 
L 179.422958 84.111432 
L 179.533127 82.964128 
L 179.537135 82.964128 
L 179.647384 81.673412 
L 179.653754 81.673412 
L 179.755358 81.09976 
L 179.772761 81.09976 
L 179.869745 80.382695 
L 179.901953 80.382695 
L 179.966192 79.665631 
L 180.094741 79.665631 
L 180.094741 79.522218 
L 180.394868 79.522218 
L 180.394868 79.378805 
L 180.50894 79.378805 
L 180.536964 79.091979 
L 180.661388 79.091979 
L 180.73038 78.66174 
L 180.951261 78.66174 
L 180.951261 78.518327 
L 181.390568 78.518327 
L 181.390568 78.374914 
L 182.127131 78.374914 
L 182.127131 78.231501 
L 182.382925 78.231501 
L 182.382925 78.088089 
L 182.533405 78.088089 
L 182.533405 77.944676 
L 182.712016 77.944676 
L 182.712016 77.801263 
L 183.353421 77.801263 
L 183.353421 77.65785 
L 183.501536 77.65785 
L 183.501536 77.514437 
L 183.64967 77.514437 
L 183.64967 77.371024 
L 183.768283 77.371024 
L 183.813497 77.084198 
L 183.901702 77.084198 
L 184.000015 76.797372 
L 184.192539 76.797372 
L 184.259301 76.510546 
L 184.384782 76.510546 
L 184.480416 76.080308 
L 184.576129 76.080308 
L 184.664153 75.650069 
L 184.713063 75.650069 
L 184.823499 75.21983 
L 184.83888 75.21983 
L 184.932651 74.789591 
L 184.95205 74.789591 
L 184.95205 74.646178 
L 218.292461 74.646178 
L 218.391787 73.642288 
L 219.43485 73.642288 
L 219.49153 73.355462 
L 219.583548 73.355462 
L 219.679976 72.925223 
L 219.726671 72.925223 
L 219.832969 71.77792 
L 219.839249 71.77792 
L 219.93317 70.34379 
L 219.990463 70.34379 
L 220.079265 70.056964 
L 230.35429 70.056964 
L 230.395901 68.479422 
L 230.915198 68.479422 
L 230.915198 68.336009 
L 231.069981 68.336009 
L 231.167833 68.049183 
L 237.417481 68.049183 
L 237.438409 67.188706 
L 242.421632 67.188706 
L 242.435755 66.615054 
L 246.315137 66.615054 
L 246.323894 66.328228 
L 249.494473 66.328228 
L 249.494473 66.184815 
L 252.181585 66.184815 
L 252.181934 65.89799 
L 256.559194 65.89799 
L 256.559233 65.611164 
L 258.394713 65.611164 
L 258.394713 65.467751 
L 273.651575 65.467751 
L 273.651575 65.324338 
L 287.132474 65.324338 
L 287.132474 65.180925 
L 338.688 65.180925 
L 338.688 65.180925 
" style="fill:none;stroke:#000080;stroke-linecap:square;stroke-width:1.5;"/>
   </g>
   <g id="line2d_36">
    <defs>
     <path d="M 0 6 
C 1.591219 6 3.117479 5.367802 4.242641 4.242641 
C 5.367802 3.117479 6 1.591219 6 0 
C 6 -1.591219 5.367802 -3.117479 4.242641 -4.242641 
C 3.117479 -5.367802 1.591219 -6 0 -6 
C -1.591219 -6 -3.117479 -5.367802 -4.242641 -4.242641 
C -5.367802 -3.117479 -6 -1.591219 -6 0 
C -6 1.591219 -5.367802 3.117479 -4.242641 4.242641 
C -3.117479 5.367802 -1.591219 6 0 6 
z
" id="m076f773714" style="stroke:#000080;stroke-width:1.5;"/>
    </defs>
    <g>
     <use style="fill-opacity:0;stroke:#000080;stroke-width:1.5;" x="175.426915" xlink:href="#m076f773714" y="167.290931"/>
     <use style="fill-opacity:0;stroke:#000080;stroke-width:1.5;" x="220.079265" xlink:href="#m076f773714" y="70.200377"/>
     <use style="fill-opacity:0;stroke:#000080;stroke-width:1.5;" x="287.132474" xlink:href="#m076f773714" y="65.180925"/>
     <use style="fill-opacity:0;stroke:#000080;stroke-width:1.5;" x="287.132474" xlink:href="#m076f773714" y="65.180925"/>
     <use style="fill-opacity:0;stroke:#000080;stroke-width:1.5;" x="338.688" xlink:href="#m076f773714" y="65.180925"/>
    </g>
   </g>
   <g id="line2d_37">
    <path style="fill:none;stroke:#000080;stroke-linecap:square;stroke-width:1.5;"/>
    <g/>
   </g>
   <g id="line2d_38">
    <path clip-path="url(#p20a6c61605)" d="M 218.222412 74.646178 
" style="fill:none;stroke:#000080;stroke-linecap:square;stroke-width:1.5;"/>
    <defs>
     <path d="M -12 12 
L 12 -12 
M -12 -12 
L 12 12 
" id="ma4328519c3" style="stroke:#000080;"/>
    </defs>
    <g clip-path="url(#p20a6c61605)">
     <use style="fill:#000080;stroke:#000080;" x="218.222412" xlink:href="#ma4328519c3" y="74.646178"/>
    </g>
   </g>
   <g id="line2d_39">
    <defs>
     <path d="M 0 1.5 
C 0.397805 1.5 0.77937 1.341951 1.06066 1.06066 
C 1.341951 0.77937 1.5 0.397805 1.5 0 
C 1.5 -0.397805 1.341951 -0.77937 1.06066 -1.06066 
C 0.77937 -1.341951 0.397805 -1.5 0 -1.5 
C -0.397805 -1.5 -0.77937 -1.341951 -1.06066 -1.06066 
C -1.341951 -0.77937 -1.5 -0.397805 -1.5 0 
C -1.5 0.397805 -1.341951 0.77937 -1.06066 1.06066 
C -0.77937 1.341951 -0.397805 1.5 0 1.5 
z
" id="m2c7b18ee2a" style="stroke:#ff00ff;"/>
    </defs>
    <g>
     <use style="fill:#ff00ff;stroke:#ff00ff;" x="288.616435" xlink:href="#m2c7b18ee2a" y="230.105794"/>
     <use style="fill:#ff00ff;stroke:#ff00ff;" x="288.616435" xlink:href="#m2c7b18ee2a" y="230.105794"/>
    </g>
   </g>
   <g id="line2d_40">
    <path d="M 121.667835 298.944 
L 121.667835 298.800587 
L 123.050097 298.800587 
L 123.050097 298.657174 
L 123.849288 298.657174 
L 123.849288 298.513761 
L 125.506102 298.513761 
L 125.506102 298.370348 
L 125.875108 298.370348 
L 125.875108 298.226935 
L 126.405947 298.226935 
L 126.405947 298.083522 
L 127.48501 298.083522 
L 127.48501 297.940109 
L 128.077285 297.940109 
L 128.077285 297.796697 
L 129.089405 297.796697 
L 129.089405 297.653284 
L 130.465258 297.653284 
L 130.465258 297.509871 
L 131.777682 297.509871 
L 131.777682 297.366458 
L 131.962617 297.366458 
L 131.962617 297.223045 
L 132.659801 297.223045 
L 132.659801 297.079632 
L 132.951923 297.079632 
L 132.951923 296.936219 
L 133.443203 296.936219 
L 133.443203 296.792806 
L 133.755823 296.792806 
L 133.755823 296.649393 
L 134.55603 296.649393 
L 134.55603 296.50598 
L 135.148305 296.50598 
L 135.148305 296.362567 
L 136.607732 296.362567 
L 136.607732 296.219154 
L 138.196257 296.219154 
L 138.196257 296.075741 
L 138.99271 296.075741 
L 138.99271 295.932328 
L 139.910568 295.932328 
L 139.910568 295.788916 
L 140.034527 295.788916 
L 140.034527 295.645503 
L 141.242344 295.645503 
L 141.242344 295.50209 
L 141.655212 295.50209 
L 141.655212 295.358677 
L 141.858037 295.358677 
L 141.858037 295.215264 
L 143.915178 295.215264 
L 143.915178 295.071851 
L 144.474645 295.071851 
L 144.540353 294.641612 
L 147.180013 294.641612 
L 147.180013 294.498199 
L 147.434383 294.498199 
L 147.434383 294.354786 
L 147.570215 294.354786 
L 147.570215 294.211373 
L 149.035352 294.211373 
L 149.035352 294.06796 
L 150.202563 294.06796 
L 150.292822 293.781135 
L 150.38688 293.781135 
L 150.38688 293.637722 
L 151.068401 293.637722 
L 151.080698 293.350896 
L 151.417523 293.350896 
L 151.417523 293.207483 
L 151.653058 293.207483 
L 151.653058 293.06407 
L 151.959639 293.06407 
L 151.959639 292.920657 
L 152.692105 292.920657 
L 152.788969 292.490418 
L 152.811246 292.490418 
L 152.833495 292.203592 
L 153.050775 292.203592 
L 153.090987 291.916766 
L 153.200188 291.916766 
L 153.200188 291.773354 
L 153.438049 291.773354 
L 153.438049 291.629941 
L 154.053472 291.629941 
L 154.125885 291.199702 
L 154.225391 291.199702 
L 154.307314 290.912876 
L 154.747816 290.912876 
L 154.747816 290.769463 
L 155.16126 290.769463 
L 155.16126 290.62605 
L 155.341913 290.62605 
L 155.341913 290.482637 
L 155.574631 290.482637 
L 155.574631 290.339224 
L 156.138594 290.339224 
L 156.236431 290.052398 
L 156.577589 290.052398 
L 156.658127 289.765573 
L 156.690832 289.765573 
L 156.690832 289.62216 
L 157.191515 289.62216 
L 157.191515 289.478747 
L 157.73707 289.478747 
L 157.73707 289.335334 
L 157.995311 289.335334 
L 158.028356 289.048508 
L 158.184468 289.048508 
L 158.290482 288.618269 
L 158.309442 288.618269 
L 158.309442 288.474856 
L 158.75841 288.474856 
L 158.75841 288.331443 
L 159.069577 288.331443 
L 159.069577 288.18803 
L 159.185813 288.18803 
L 159.185813 288.044617 
L 159.640655 288.044617 
L 159.640655 287.901204 
L 160.186333 287.901204 
L 160.186333 287.757791 
L 160.37492 287.757791 
L 160.37492 287.614379 
L 160.935732 287.614379 
L 160.935732 287.470966 
L 161.240437 287.470966 
L 161.288426 287.18414 
L 161.413488 287.18414 
L 161.413488 287.040727 
L 161.640838 287.040727 
L 161.640838 286.897314 
L 161.796686 286.897314 
L 161.8498 286.610488 
L 162.219304 286.610488 
L 162.309932 286.323662 
L 162.378667 286.323662 
L 162.378667 286.180249 
L 163.297285 286.180249 
L 163.297285 286.036836 
L 163.792519 286.036836 
L 163.826092 285.75001 
L 164.018381 285.75001 
L 164.018381 285.606598 
L 164.146698 285.606598 
L 164.210504 285.176359 
L 164.285611 285.176359 
L 164.385253 284.74612 
L 164.658251 284.74612 
L 164.673293 284.459294 
L 165.231842 284.459294 
L 165.231842 284.315881 
L 165.486619 284.315881 
L 165.513505 283.885642 
L 165.673957 283.885642 
L 165.673957 283.742229 
L 166.070481 283.742229 
L 166.070481 283.598817 
L 166.321931 283.598817 
L 166.321931 283.455404 
L 166.623668 283.455404 
L 166.623668 283.311991 
L 167.105982 283.311991 
L 167.105982 283.168578 
L 167.928178 283.168578 
L 167.928178 283.025165 
L 168.766934 283.025165 
L 168.766934 282.881752 
L 168.951729 282.881752 
L 168.951729 282.738339 
L 169.127309 282.738339 
L 169.127309 282.594926 
L 169.551573 282.594926 
L 169.551573 282.451513 
L 170.145207 282.451513 
L 170.145207 282.3081 
L 170.320107 282.3081 
L 170.419074 282.021274 
L 170.749833 282.021274 
L 170.8266 281.447623 
L 170.993522 281.447623 
L 170.993522 281.30421 
L 171.626766 281.30421 
L 171.626766 281.160797 
L 172.141332 281.160797 
L 172.154799 280.730558 
L 172.42198 280.730558 
L 172.42198 280.587145 
L 172.554051 280.587145 
L 172.554051 280.443732 
L 172.68869 280.443732 
L 172.68869 280.300319 
L 172.995755 280.300319 
L 173.019063 280.013493 
L 173.980826 280.013493 
L 173.980826 279.87008 
L 174.275895 279.87008 
L 174.286728 279.583255 
L 174.567121 279.583255 
L 174.567121 279.439842 
L 174.984116 279.439842 
L 174.984116 279.296429 
L 175.950543 279.296429 
L 176.047731 279.009603 
L 176.861542 279.009603 
L 176.872751 278.722777 
L 177.088042 278.722777 
L 177.088042 278.579364 
L 177.273353 278.579364 
L 177.273353 278.435951 
L 177.786773 278.435951 
L 177.786773 278.292538 
L 177.923573 278.292538 
L 177.923573 278.149125 
L 179.125997 278.149125 
L 179.125997 278.005712 
L 179.451169 278.005712 
L 179.451169 277.862299 
L 179.970883 277.862299 
L 179.970883 277.718886 
L 180.695918 277.718886 
L 180.695918 277.575474 
L 181.169378 277.575474 
L 181.197818 277.288648 
L 182.71068 277.288648 
L 182.71068 277.145235 
L 183.013357 277.145235 
L 183.037634 276.858409 
L 183.575442 276.858409 
L 183.645871 276.42817 
L 184.302651 276.42817 
L 184.341635 276.141344 
L 184.560514 276.141344 
L 184.560514 275.997931 
L 184.780832 275.997931 
L 184.780832 275.854518 
L 186.069365 275.854518 
L 186.136465 275.567692 
L 187.063258 275.567692 
L 187.172228 275.280867 
L 187.582739 275.280867 
L 187.582739 275.137454 
L 188.057717 275.137454 
L 188.057717 274.994041 
L 188.90884 274.994041 
L 188.90884 274.850628 
L 189.255166 274.850628 
L 189.319772 274.563802 
L 189.594748 274.563802 
L 189.594748 274.420389 
L 190.662985 274.420389 
L 190.662985 274.276976 
L 190.847894 274.276976 
L 190.847894 274.133563 
L 192.435488 274.133563 
L 192.435488 273.99015 
L 193.078004 273.99015 
L 193.105634 273.703324 
L 193.20657 273.703324 
L 193.306561 273.416499 
L 194.064213 273.416499 
L 194.064213 273.273086 
L 194.225479 273.273086 
L 194.225479 273.129673 
L 194.60012 273.129673 
L 194.60012 272.98626 
L 194.920171 272.98626 
L 194.968867 272.699434 
L 195.032596 272.699434 
L 195.032596 272.556021 
L 195.392726 272.556021 
L 195.392726 272.412608 
L 195.583777 272.412608 
L 195.583777 272.269195 
L 195.852813 272.269195 
L 195.852813 272.125782 
L 196.860809 272.125782 
L 196.860809 271.982369 
L 197.60878 271.982369 
L 197.68708 271.695543 
L 197.956164 271.695543 
L 197.956164 271.55213 
L 198.189836 271.55213 
L 198.189836 271.408718 
L 198.891134 271.408718 
L 198.891134 271.265305 
L 199.333259 271.265305 
L 199.333259 271.121892 
L 199.70606 271.121892 
L 199.70606 270.978479 
L 200.081177 270.978479 
L 200.081177 270.835066 
L 200.682386 270.835066 
L 200.682386 270.691653 
L 202.308406 270.691653 
L 202.308406 270.54824 
L 202.54481 270.54824 
L 202.54481 270.404827 
L 203.175355 270.404827 
L 203.175355 270.261414 
L 203.624126 270.261414 
L 203.624126 270.118001 
L 203.769522 270.118001 
L 203.769522 269.974588 
L 204.645077 269.974588 
L 204.645077 269.831175 
L 204.998731 269.831175 
L 204.998731 269.687762 
L 205.111341 269.687762 
L 205.111341 269.544349 
L 205.386906 269.544349 
L 205.41546 269.257524 
L 205.668575 269.257524 
L 205.747918 268.970698 
L 205.932012 268.970698 
L 205.932012 268.827285 
L 206.437302 268.827285 
L 206.479753 268.397046 
L 206.897844 268.397046 
L 206.897844 268.253633 
L 207.132281 268.253633 
L 207.132281 268.11022 
L 207.525212 268.11022 
L 207.525212 267.966807 
L 207.765083 267.966807 
L 207.828337 267.536568 
L 208.116168 267.536568 
L 208.116168 267.393156 
L 208.414022 267.393156 
L 208.414022 267.249743 
L 208.802759 267.249743 
L 208.802759 267.10633 
L 209.768415 267.10633 
L 209.768415 266.962917 
L 210.066436 266.962917 
L 210.162487 266.676091 
L 210.198716 266.676091 
L 210.198716 266.532678 
L 210.711853 266.532678 
L 210.711853 266.389265 
L 210.899424 266.389265 
L 210.899424 266.245852 
L 211.251723 266.245852 
L 211.251723 266.102439 
L 211.688598 266.102439 
L 211.76844 265.815613 
L 212.272493 265.815613 
L 212.272493 265.6722 
L 212.670922 265.6722 
L 212.698831 265.241962 
L 213.529903 265.241962 
L 213.529903 265.098549 
L 213.765322 265.098549 
L 213.827694 264.66831 
L 214.004381 264.66831 
L 214.004381 264.524897 
L 215.516586 264.524897 
L 215.553307 264.238071 
L 215.74511 264.238071 
L 215.74511 264.094658 
L 215.907964 264.094658 
L 215.982976 263.807832 
L 216.060332 263.807832 
L 216.060332 263.664419 
L 216.274283 263.664419 
L 216.281983 263.377593 
L 216.433161 263.377593 
L 216.433161 263.234181 
L 216.631632 263.234181 
L 216.631632 263.090768 
L 216.980775 263.090768 
L 217.040314 262.660529 
L 217.208574 262.660529 
L 217.26467 262.373703 
L 217.610971 262.373703 
L 217.610971 262.23029 
L 217.742409 262.23029 
L 217.802534 261.800051 
L 218.406288 261.800051 
L 218.406288 261.656638 
L 218.660586 261.656638 
L 218.67376 261.369812 
L 218.81769 261.369812 
L 218.829147 261.082987 
L 219.085779 261.082987 
L 219.085779 260.939574 
L 219.215987 260.939574 
L 219.215987 260.796161 
L 219.458015 260.796161 
L 219.458015 260.652748 
L 219.571366 260.652748 
L 219.571366 260.509335 
L 219.754165 260.509335 
L 219.754165 260.365922 
L 220.014398 260.365922 
L 220.014398 260.222509 
L 220.584901 260.222509 
L 220.584901 260.079096 
L 221.068885 260.079096 
L 221.068885 259.935683 
L 221.672726 259.935683 
L 221.672726 259.79227 
L 222.003243 259.79227 
L 222.003243 259.648857 
L 222.71372 259.648857 
L 222.71372 259.505444 
L 223.024527 259.505444 
L 223.024527 259.218619 
L 223.195948 259.218619 
L 223.306716 258.931793 
L 223.498931 258.931793 
L 223.498931 258.78838 
L 225.435442 258.78838 
L 225.435442 258.644967 
L 225.630895 258.644967 
L 225.640927 258.358141 
L 226.086427 258.358141 
L 226.086427 258.214728 
L 226.491657 258.214728 
L 226.491657 258.071315 
L 227.170628 258.071315 
L 227.275228 257.784489 
L 227.587561 257.784489 
L 227.587561 257.641076 
L 227.921867 257.641076 
L 227.921867 257.497663 
L 228.121107 257.497663 
L 228.121107 257.35425 
L 228.233686 257.35425 
L 228.233686 257.067425 
L 229.115328 257.067425 
L 229.226233 256.493773 
L 229.438345 256.493773 
L 229.438345 256.35036 
L 229.700269 256.35036 
L 229.729005 255.920121 
L 229.815603 255.920121 
L 229.837745 255.633295 
L 230.007004 255.633295 
L 230.071697 255.346469 
L 230.530519 255.346469 
L 230.610237 254.916231 
L 230.64641 254.916231 
L 230.64641 254.772818 
L 230.929426 254.772818 
L 230.997582 254.199166 
L 231.04074 254.199166 
L 231.04074 254.055753 
L 231.229069 254.055753 
L 231.321551 253.768927 
L 231.43236 253.768927 
L 231.43236 253.625514 
L 231.720863 253.625514 
L 231.753121 253.338688 
L 232.036053 253.338688 
L 232.036053 253.051863 
L 232.216333 253.051863 
L 232.235005 252.765037 
L 232.365808 252.765037 
L 232.365808 252.621624 
L 232.875927 252.621624 
L 232.911867 252.334798 
L 233.238778 252.334798 
L 233.238778 252.191385 
L 233.727309 252.191385 
L 233.753273 251.904559 
L 234.124684 251.904559 
L 234.124684 251.761146 
L 234.768653 251.761146 
L 234.874378 251.330907 
L 235.343623 251.330907 
L 235.374205 250.900669 
L 235.462711 250.900669 
L 235.462711 250.613843 
L 235.726268 250.613843 
L 235.726268 250.327017 
L 235.952589 250.327017 
L 236.017987 250.040191 
L 236.359787 250.040191 
L 236.359787 249.753365 
L 236.643062 249.753365 
L 236.689604 249.466539 
L 237.197846 249.466539 
L 237.233086 249.036301 
L 237.605915 249.036301 
L 237.605915 248.892888 
L 237.751693 248.892888 
L 237.84231 248.606062 
L 238.214777 248.606062 
L 238.214777 248.462649 
L 238.430941 248.462649 
L 238.430941 248.319236 
L 238.550397 248.319236 
L 238.550397 248.175823 
L 238.884 248.175823 
L 238.884 248.03241 
L 239.201053 248.03241 
L 239.283548 247.458758 
L 239.911311 247.458758 
L 240.014404 247.02852 
L 240.040326 247.02852 
L 240.040326 246.885107 
L 240.704717 246.885107 
L 240.704717 246.741694 
L 240.898688 246.741694 
L 240.898688 246.454868 
L 241.055764 246.454868 
L 241.055764 246.168042 
L 241.171796 246.168042 
L 241.218087 245.737803 
L 241.30928 245.737803 
L 241.30928 245.59439 
L 241.767883 245.59439 
L 241.767883 245.450977 
L 241.967454 245.450977 
L 241.967454 245.307564 
L 242.109759 245.307564 
L 242.109759 245.164151 
L 242.246999 245.164151 
L 242.246999 245.020738 
L 242.600503 245.020738 
L 242.600503 244.877326 
L 243.326547 244.877326 
L 243.326547 244.733913 
L 244.329219 244.733913 
L 244.329219 244.5905 
L 244.565193 244.5905 
L 244.565193 244.447087 
L 244.953112 244.447087 
L 245.023949 244.016848 
L 245.113146 244.016848 
L 245.113146 243.873435 
L 245.372869 243.873435 
L 245.372869 243.730022 
L 245.523358 243.730022 
L 245.523358 243.586609 
L 245.749732 243.586609 
L 245.749732 243.443196 
L 245.918085 243.443196 
L 245.918085 243.299783 
L 246.054383 243.299783 
L 246.054383 243.15637 
L 246.20612 243.15637 
L 246.20612 243.012957 
L 246.548011 243.012957 
L 246.548011 242.869545 
L 246.939398 242.869545 
L 246.939398 242.726132 
L 249.114982 242.726132 
L 249.114982 242.582719 
L 249.277286 242.582719 
L 249.277286 242.439306 
L 249.399544 242.439306 
L 249.399544 242.295893 
L 249.701032 242.295893 
L 249.701032 242.15248 
L 250.379928 242.15248 
L 250.379928 242.009067 
L 250.61328 242.009067 
L 250.61328 241.865654 
L 250.849165 241.865654 
L 250.849165 241.578828 
L 251.025356 241.578828 
L 251.126611 241.005176 
L 251.262732 241.005176 
L 251.342507 240.718351 
L 251.593088 240.718351 
L 251.658069 240.431525 
L 251.91244 240.431525 
L 251.91244 240.288112 
L 252.388103 240.288112 
L 252.388103 240.144699 
L 252.94091 240.144699 
L 252.94091 240.001286 
L 253.499583 240.001286 
L 253.521829 239.71446 
L 253.949964 239.71446 
L 253.963738 239.427634 
L 254.271888 239.427634 
L 254.339318 239.140808 
L 254.933551 239.140808 
L 254.982233 238.853983 
L 255.643234 238.853983 
L 255.643234 238.567157 
L 255.760583 238.567157 
L 255.810155 238.136918 
L 255.956028 238.136918 
L 256.036638 237.850092 
L 256.097213 237.850092 
L 256.097213 237.706679 
L 257.170989 237.706679 
L 257.170989 237.563266 
L 257.472066 237.563266 
L 257.472066 237.419853 
L 258.029404 237.419853 
L 258.029404 237.27644 
L 258.20632 237.27644 
L 258.20632 237.133027 
L 258.322481 237.133027 
L 258.322481 236.989614 
L 259.218456 236.989614 
L 259.218456 236.846202 
L 259.628749 236.846202 
L 259.651312 236.415963 
L 259.841178 236.415963 
L 259.841178 236.27255 
L 260.166388 236.27255 
L 260.166388 236.129137 
L 261.180747 236.129137 
L 261.21048 235.555485 
L 261.691888 235.555485 
L 261.691888 235.412072 
L 262.052222 235.412072 
L 262.052222 235.268659 
L 262.584593 235.268659 
L 262.584593 235.125246 
L 263.58467 235.125246 
L 263.58467 234.981833 
L 264.094256 234.981833 
L 264.094256 234.838421 
L 264.893288 234.838421 
L 264.929191 234.551595 
L 265.064904 234.551595 
L 265.148052 234.121356 
L 266.247742 234.121356 
L 266.31465 233.691117 
L 267.324334 233.691117 
L 267.387243 233.404291 
L 267.50689 233.404291 
L 267.530637 233.117465 
L 270.252816 233.117465 
L 270.252816 232.974052 
L 270.379929 232.974052 
L 270.379929 232.830639 
L 271.130049 232.830639 
L 271.130049 232.687227 
L 271.890841 232.687227 
L 271.923213 232.400401 
L 272.108436 232.400401 
L 272.108436 232.256988 
L 273.299966 232.256988 
L 273.299966 232.113575 
L 273.428082 232.113575 
L 273.428082 231.970162 
L 274.097449 231.970162 
L 274.148705 231.683336 
L 275.368978 231.683336 
L 275.458923 231.39651 
L 276.391032 231.39651 
L 276.391032 231.253097 
L 276.629284 231.253097 
L 276.629284 231.109684 
L 276.790348 231.109684 
L 276.790348 230.966271 
L 277.363082 230.966271 
L 277.363082 230.822858 
L 278.459529 230.822858 
L 278.459529 230.679446 
L 281.147523 230.679446 
L 281.147523 230.536033 
L 282.391606 230.536033 
L 282.391606 230.39262 
L 283.774763 230.39262 
L 283.774763 230.249207 
L 288.616435 230.249207 
L 288.616435 230.105794 
L 338.688 230.105794 
L 338.688 230.105794 
" style="fill:none;stroke:#ff00ff;stroke-linecap:square;stroke-width:1.5;"/>
   </g>
   <g id="line2d_41">
    <defs>
     <path d="M -0 8.485281 
L 5.091169 0 
L 0 -8.485281 
L -5.091169 -0 
z
" id="m9e2be7ccf1" style="stroke:#ff00ff;stroke-linejoin:miter;stroke-width:1.5;"/>
    </defs>
    <g>
     <use style="fill-opacity:0;stroke:#ff00ff;stroke-linejoin:miter;stroke-width:1.5;" x="196.860809" xlink:href="#m9e2be7ccf1" y="272.125782"/>
     <use style="fill-opacity:0;stroke:#ff00ff;stroke-linejoin:miter;stroke-width:1.5;" x="259.218456" xlink:href="#m9e2be7ccf1" y="236.846202"/>
     <use style="fill-opacity:0;stroke:#ff00ff;stroke-linejoin:miter;stroke-width:1.5;" x="288.616435" xlink:href="#m9e2be7ccf1" y="230.105794"/>
     <use style="fill-opacity:0;stroke:#ff00ff;stroke-linejoin:miter;stroke-width:1.5;" x="288.616435" xlink:href="#m9e2be7ccf1" y="230.105794"/>
     <use style="fill-opacity:0;stroke:#ff00ff;stroke-linejoin:miter;stroke-width:1.5;" x="338.688" xlink:href="#m9e2be7ccf1" y="230.105794"/>
    </g>
   </g>
   <g id="line2d_42">
    <path style="fill:none;stroke:#ff00ff;stroke-linecap:square;stroke-width:1.5;"/>
    <g/>
   </g>
   <g id="line2d_43">
    <path clip-path="url(#p20a6c61605)" d="M 218.221714 261.800051 
" style="fill:none;stroke:#ff00ff;stroke-linecap:square;stroke-width:1.5;"/>
    <defs>
     <path d="M -12 12 
L 12 -12 
M -12 -12 
L 12 12 
" id="m60df6d6869" style="stroke:#ff00ff;"/>
    </defs>
    <g clip-path="url(#p20a6c61605)">
     <use style="fill:#ff00ff;stroke:#ff00ff;" x="218.221714" xlink:href="#m60df6d6869" y="261.800051"/>
    </g>
   </g>
   <g id="line2d_44">
    <path d="M 338.688 230.105794 
L 369.60768 293.092752 
" style="fill:none;stroke:#ff00ff;stroke-linecap:square;stroke-width:1.5;"/>
    <g>
     <use style="fill-opacity:0;stroke:#ff00ff;stroke-linejoin:miter;stroke-width:1.5;" x="338.688" xlink:href="#m9e2be7ccf1" y="230.105794"/>
     <use style="fill-opacity:0;stroke:#ff00ff;stroke-linejoin:miter;stroke-width:1.5;" x="369.60768" xlink:href="#m9e2be7ccf1" y="293.092752"/>
    </g>
   </g>
   <g id="line2d_45">
    <path d="M 338.688 65.180925 
L 369.60768 152.662812 
" style="fill:none;stroke:#000080;stroke-linecap:square;stroke-width:1.5;"/>
    <g>
     <use style="fill-opacity:0;stroke:#000080;stroke-width:1.5;" x="338.688" xlink:href="#m076f773714" y="65.180925"/>
     <use style="fill-opacity:0;stroke:#000080;stroke-width:1.5;" x="369.60768" xlink:href="#m076f773714" y="152.662812"/>
    </g>
   </g>
   <g id="line2d_46">
    <path d="M 338.688 298.944 
L 338.688 6.381624 
" style="fill:none;stroke:#000000;stroke-linecap:square;stroke-width:1.5;"/>
   </g>
   <g id="patch_3">
    <path d="M 57.6 298.944 
L 57.6 3.456 
" style="fill:none;stroke:#000000;stroke-linecap:square;stroke-linejoin:miter;stroke-width:0.8;"/>
   </g>
   <g id="patch_4">
    <path d="M 338.688 298.944 
L 338.688 3.456 
" style="fill:none;stroke:#000000;stroke-linecap:square;stroke-linejoin:miter;stroke-width:0.8;"/>
   </g>
   <g id="patch_5">
    <path d="M 57.6 298.944 
L 338.688 298.944 
" style="fill:none;stroke:#000000;stroke-linecap:square;stroke-linejoin:miter;stroke-width:0.8;"/>
   </g>
   <g id="patch_6">
    <path d="M 57.6 3.456 
L 338.688 3.456 
" style="fill:none;stroke:#000000;stroke-linecap:square;stroke-linejoin:miter;stroke-width:0.8;"/>
   </g>
   <g id="text_13">
    <!-- PSO -->
    <g transform="translate(375.22944 297.78369)scale(0.17 -0.17)">
     <defs>
      <path d="M 19.671875 64.796875 
L 19.671875 37.40625 
L 32.078125 37.40625 
Q 38.96875 37.40625 42.71875 40.96875 
Q 46.484375 44.53125 46.484375 51.125 
Q 46.484375 57.671875 42.71875 61.234375 
Q 38.96875 64.796875 32.078125 64.796875 
z
M 9.8125 72.90625 
L 32.078125 72.90625 
Q 44.34375 72.90625 50.609375 67.359375 
Q 56.890625 61.8125 56.890625 51.125 
Q 56.890625 40.328125 50.609375 34.8125 
Q 44.34375 29.296875 32.078125 29.296875 
L 19.671875 29.296875 
L 19.671875 0 
L 9.8125 0 
z
" id="DejaVuSans-80"/>
      <path d="M 53.515625 70.515625 
L 53.515625 60.890625 
Q 47.90625 63.578125 42.921875 64.890625 
Q 37.9375 66.21875 33.296875 66.21875 
Q 25.25 66.21875 20.875 63.09375 
Q 16.5 59.96875 16.5 54.203125 
Q 16.5 49.359375 19.40625 46.890625 
Q 22.3125 44.4375 30.421875 42.921875 
L 36.375 41.703125 
Q 47.40625 39.59375 52.65625 34.296875 
Q 57.90625 29 57.90625 20.125 
Q 57.90625 9.515625 50.796875 4.046875 
Q 43.703125 -1.421875 29.984375 -1.421875 
Q 24.8125 -1.421875 18.96875 -0.25 
Q 13.140625 0.921875 6.890625 3.21875 
L 6.890625 13.375 
Q 12.890625 10.015625 18.65625 8.296875 
Q 24.421875 6.59375 29.984375 6.59375 
Q 38.421875 6.59375 43.015625 9.90625 
Q 47.609375 13.234375 47.609375 19.390625 
Q 47.609375 24.75 44.3125 27.78125 
Q 41.015625 30.8125 33.5 32.328125 
L 27.484375 33.5 
Q 16.453125 35.6875 11.515625 40.375 
Q 6.59375 45.0625 6.59375 53.421875 
Q 6.59375 63.09375 13.40625 68.65625 
Q 20.21875 74.21875 32.171875 74.21875 
Q 37.3125 74.21875 42.625 73.28125 
Q 47.953125 72.359375 53.515625 70.515625 
z
" id="DejaVuSans-83"/>
      <path d="M 39.40625 66.21875 
Q 28.65625 66.21875 22.328125 58.203125 
Q 16.015625 50.203125 16.015625 36.375 
Q 16.015625 22.609375 22.328125 14.59375 
Q 28.65625 6.59375 39.40625 6.59375 
Q 50.140625 6.59375 56.421875 14.59375 
Q 62.703125 22.609375 62.703125 36.375 
Q 62.703125 50.203125 56.421875 58.203125 
Q 50.140625 66.21875 39.40625 66.21875 
z
M 39.40625 74.21875 
Q 54.734375 74.21875 63.90625 63.9375 
Q 73.09375 53.65625 73.09375 36.375 
Q 73.09375 19.140625 63.90625 8.859375 
Q 54.734375 -1.421875 39.40625 -1.421875 
Q 24.03125 -1.421875 14.8125 8.828125 
Q 5.609375 19.09375 5.609375 36.375 
Q 5.609375 53.65625 14.8125 63.9375 
Q 24.03125 74.21875 39.40625 74.21875 
z
" id="DejaVuSans-79"/>
     </defs>
     <use xlink:href="#DejaVuSans-80"/>
     <use x="60.302734" xlink:href="#DejaVuSans-83"/>
     <use x="123.779297" xlink:href="#DejaVuSans-79"/>
    </g>
   </g>
   <g id="text_14">
    <!-- outputCMA -->
    <g transform="translate(375.22944 157.353749)scale(0.17 -0.17)">
     <defs>
      <path d="M 64.40625 67.28125 
L 64.40625 56.890625 
Q 59.421875 61.53125 53.78125 63.8125 
Q 48.140625 66.109375 41.796875 66.109375 
Q 29.296875 66.109375 22.65625 58.46875 
Q 16.015625 50.828125 16.015625 36.375 
Q 16.015625 21.96875 22.65625 14.328125 
Q 29.296875 6.6875 41.796875 6.6875 
Q 48.140625 6.6875 53.78125 8.984375 
Q 59.421875 11.28125 64.40625 15.921875 
L 64.40625 5.609375 
Q 59.234375 2.09375 53.4375 0.328125 
Q 47.65625 -1.421875 41.21875 -1.421875 
Q 24.65625 -1.421875 15.125 8.703125 
Q 5.609375 18.84375 5.609375 36.375 
Q 5.609375 53.953125 15.125 64.078125 
Q 24.65625 74.21875 41.21875 74.21875 
Q 47.75 74.21875 53.53125 72.484375 
Q 59.328125 70.75 64.40625 67.28125 
z
" id="DejaVuSans-67"/>
      <path d="M 9.8125 72.90625 
L 24.515625 72.90625 
L 43.109375 23.296875 
L 61.8125 72.90625 
L 76.515625 72.90625 
L 76.515625 0 
L 66.890625 0 
L 66.890625 64.015625 
L 48.09375 14.015625 
L 38.1875 14.015625 
L 19.390625 64.015625 
L 19.390625 0 
L 9.8125 0 
z
" id="DejaVuSans-77"/>
      <path d="M 34.1875 63.1875 
L 20.796875 26.90625 
L 47.609375 26.90625 
z
M 28.609375 72.90625 
L 39.796875 72.90625 
L 67.578125 0 
L 57.328125 0 
L 50.6875 18.703125 
L 17.828125 18.703125 
L 11.1875 0 
L 0.78125 0 
z
" id="DejaVuSans-65"/>
     </defs>
     <use xlink:href="#DejaVuSans-111"/>
     <use x="61.181641" xlink:href="#DejaVuSans-117"/>
     <use x="124.560547" xlink:href="#DejaVuSans-116"/>
     <use x="163.769531" xlink:href="#DejaVuSans-112"/>
     <use x="227.246094" xlink:href="#DejaVuSans-117"/>
     <use x="290.625" xlink:href="#DejaVuSans-116"/>
     <use x="329.833984" xlink:href="#DejaVuSans-67"/>
     <use x="399.658203" xlink:href="#DejaVuSans-77"/>
     <use x="485.9375" xlink:href="#DejaVuSans-65"/>
    </g>
   </g>
   <g id="text_15">
    <!-- best 2009 -->
    <g transform="translate(375.22944 16.923809)scale(0.17 -0.17)">
     <defs>
      <path d="M 48.6875 27.296875 
Q 48.6875 37.203125 44.609375 42.84375 
Q 40.53125 48.484375 33.40625 48.484375 
Q 26.265625 48.484375 22.1875 42.84375 
Q 18.109375 37.203125 18.109375 27.296875 
Q 18.109375 17.390625 22.1875 11.75 
Q 26.265625 6.109375 33.40625 6.109375 
Q 40.53125 6.109375 44.609375 11.75 
Q 48.6875 17.390625 48.6875 27.296875 
z
M 18.109375 46.390625 
Q 20.953125 51.265625 25.265625 53.625 
Q 29.59375 56 35.59375 56 
Q 45.5625 56 51.78125 48.09375 
Q 58.015625 40.1875 58.015625 27.296875 
Q 58.015625 14.40625 51.78125 6.484375 
Q 45.5625 -1.421875 35.59375 -1.421875 
Q 29.59375 -1.421875 25.265625 0.953125 
Q 20.953125 3.328125 18.109375 8.203125 
L 18.109375 0 
L 9.078125 0 
L 9.078125 75.984375 
L 18.109375 75.984375 
z
" id="DejaVuSans-98"/>
      <path d="M 10.984375 1.515625 
L 10.984375 10.5 
Q 14.703125 8.734375 18.5 7.8125 
Q 22.3125 6.890625 25.984375 6.890625 
Q 35.75 6.890625 40.890625 13.453125 
Q 46.046875 20.015625 46.78125 33.40625 
Q 43.953125 29.203125 39.59375 26.953125 
Q 35.25 24.703125 29.984375 24.703125 
Q 19.046875 24.703125 12.671875 31.3125 
Q 6.296875 37.9375 6.296875 49.421875 
Q 6.296875 60.640625 12.9375 67.421875 
Q 19.578125 74.21875 30.609375 74.21875 
Q 43.265625 74.21875 49.921875 64.515625 
Q 56.59375 54.828125 56.59375 36.375 
Q 56.59375 19.140625 48.40625 8.859375 
Q 40.234375 -1.421875 26.421875 -1.421875 
Q 22.703125 -1.421875 18.890625 -0.6875 
Q 15.09375 0.046875 10.984375 1.515625 
z
M 30.609375 32.421875 
Q 37.25 32.421875 41.125 36.953125 
Q 45.015625 41.5 45.015625 49.421875 
Q 45.015625 57.28125 41.125 61.84375 
Q 37.25 66.40625 30.609375 66.40625 
Q 23.96875 66.40625 20.09375 61.84375 
Q 16.21875 57.28125 16.21875 49.421875 
Q 16.21875 41.5 20.09375 36.953125 
Q 23.96875 32.421875 30.609375 32.421875 
z
" id="DejaVuSans-57"/>
     </defs>
     <use xlink:href="#DejaVuSans-98"/>
     <use x="63.476562" xlink:href="#DejaVuSans-101"/>
     <use x="125" xlink:href="#DejaVuSans-115"/>
     <use x="177.099609" xlink:href="#DejaVuSans-116"/>
     <use x="216.308594" xlink:href="#DejaVuSans-32"/>
     <use x="248.095703" xlink:href="#DejaVuSans-50"/>
     <use x="311.71875" xlink:href="#DejaVuSans-48"/>
     <use x="375.341797" xlink:href="#DejaVuSans-48"/>
     <use x="438.964844" xlink:href="#DejaVuSans-57"/>
    </g>
   </g>
   <g id="text_16">
    <!-- bbob f6-f9, 20-D -->
    <g transform="translate(60.41088 14.161286)scale(0.102 -0.102)">
     <defs>
      <path d="M 19.671875 64.796875 
L 19.671875 8.109375 
L 31.59375 8.109375 
Q 46.6875 8.109375 53.6875 14.9375 
Q 60.6875 21.78125 60.6875 36.53125 
Q 60.6875 51.171875 53.6875 57.984375 
Q 46.6875 64.796875 31.59375 64.796875 
z
M 9.8125 72.90625 
L 30.078125 72.90625 
Q 51.265625 72.90625 61.171875 64.09375 
Q 71.09375 55.28125 71.09375 36.53125 
Q 71.09375 17.671875 61.125 8.828125 
Q 51.171875 0 30.078125 0 
L 9.8125 0 
z
" id="DejaVuSans-68"/>
     </defs>
     <use xlink:href="#DejaVuSans-98"/>
     <use x="63.476562" xlink:href="#DejaVuSans-98"/>
     <use x="126.953125" xlink:href="#DejaVuSans-111"/>
     <use x="188.134766" xlink:href="#DejaVuSans-98"/>
     <use x="251.611328" xlink:href="#DejaVuSans-32"/>
     <use x="283.398438" xlink:href="#DejaVuSans-102"/>
     <use x="318.603516" xlink:href="#DejaVuSans-54"/>
     <use x="382.226562" xlink:href="#DejaVuSans-45"/>
     <use x="418.310547" xlink:href="#DejaVuSans-102"/>
     <use x="453.515625" xlink:href="#DejaVuSans-57"/>
     <use x="517.138672" xlink:href="#DejaVuSans-44"/>
     <use x="548.925781" xlink:href="#DejaVuSans-32"/>
     <use x="580.712891" xlink:href="#DejaVuSans-50"/>
     <use x="644.335938" xlink:href="#DejaVuSans-48"/>
     <use x="707.958984" xlink:href="#DejaVuSans-45"/>
     <use x="744.042969" xlink:href="#DejaVuSans-68"/>
    </g>
    <!-- 51 targets: 100..1e-08 -->
    <g transform="translate(60.41088 25.583055)scale(0.102 -0.102)">
     <defs>
      <path d="M 10.796875 72.90625 
L 49.515625 72.90625 
L 49.515625 64.59375 
L 19.828125 64.59375 
L 19.828125 46.734375 
Q 21.96875 47.46875 24.109375 47.828125 
Q 26.265625 48.1875 28.421875 48.1875 
Q 40.625 48.1875 47.75 41.5 
Q 54.890625 34.8125 54.890625 23.390625 
Q 54.890625 11.625 47.5625 5.09375 
Q 40.234375 -1.421875 26.90625 -1.421875 
Q 22.3125 -1.421875 17.546875 -0.640625 
Q 12.796875 0.140625 7.71875 1.703125 
L 7.71875 11.625 
Q 12.109375 9.234375 16.796875 8.0625 
Q 21.484375 6.890625 26.703125 6.890625 
Q 35.15625 6.890625 40.078125 11.328125 
Q 45.015625 15.765625 45.015625 23.390625 
Q 45.015625 31 40.078125 35.4375 
Q 35.15625 39.890625 26.703125 39.890625 
Q 22.75 39.890625 18.8125 39.015625 
Q 14.890625 38.140625 10.796875 36.28125 
z
" id="DejaVuSans-53"/>
      <path d="M 11.71875 12.40625 
L 22.015625 12.40625 
L 22.015625 0 
L 11.71875 0 
z
M 11.71875 51.703125 
L 22.015625 51.703125 
L 22.015625 39.3125 
L 11.71875 39.3125 
z
" id="DejaVuSans-58"/>
     </defs>
     <use xlink:href="#DejaVuSans-53"/>
     <use x="63.623047" xlink:href="#DejaVuSans-49"/>
     <use x="127.246094" xlink:href="#DejaVuSans-32"/>
     <use x="159.033203" xlink:href="#DejaVuSans-116"/>
     <use x="198.242188" xlink:href="#DejaVuSans-97"/>
     <use x="259.521484" xlink:href="#DejaVuSans-114"/>
     <use x="298.884766" xlink:href="#DejaVuSans-103"/>
     <use x="362.361328" xlink:href="#DejaVuSans-101"/>
     <use x="423.884766" xlink:href="#DejaVuSans-116"/>
     <use x="463.09375" xlink:href="#DejaVuSans-115"/>
     <use x="515.193359" xlink:href="#DejaVuSans-58"/>
     <use x="548.884766" xlink:href="#DejaVuSans-32"/>
     <use x="580.671875" xlink:href="#DejaVuSans-49"/>
     <use x="644.294922" xlink:href="#DejaVuSans-48"/>
     <use x="707.917969" xlink:href="#DejaVuSans-48"/>
     <use x="771.541016" xlink:href="#DejaVuSans-46"/>
     <use x="803.328125" xlink:href="#DejaVuSans-46"/>
     <use x="835.115234" xlink:href="#DejaVuSans-49"/>
     <use x="898.738281" xlink:href="#DejaVuSans-101"/>
     <use x="960.261719" xlink:href="#DejaVuSans-45"/>
     <use x="996.345703" xlink:href="#DejaVuSans-48"/>
     <use x="1059.96875" xlink:href="#DejaVuSans-56"/>
    </g>
    <!-- 15 instances -->
    <g transform="translate(60.41088 37.004824)scale(0.102 -0.102)">
     <use xlink:href="#DejaVuSans-49"/>
     <use x="63.623047" xlink:href="#DejaVuSans-53"/>
     <use x="127.246094" xlink:href="#DejaVuSans-32"/>
     <use x="159.033203" xlink:href="#DejaVuSans-105"/>
     <use x="186.816406" xlink:href="#DejaVuSans-110"/>
     <use x="250.195312" xlink:href="#DejaVuSans-115"/>
     <use x="302.294922" xlink:href="#DejaVuSans-116"/>
     <use x="341.503906" xlink:href="#DejaVuSans-97"/>
     <use x="402.783203" xlink:href="#DejaVuSans-110"/>
     <use x="466.162109" xlink:href="#DejaVuSans-99"/>
     <use x="521.142578" xlink:href="#DejaVuSans-101"/>
     <use x="582.666016" xlink:href="#DejaVuSans-115"/>
    </g>
   </g>
   <g id="text_17">
    <!-- v2.4 -->
    <g style="fill:#808080;" transform="translate(187.233062 293.909432)scale(0.1 -0.1)">
     <use xlink:href="#DejaVuSans-118"/>
     <use x="59.179688" xlink:href="#DejaVuSans-50"/>
     <use x="122.802734" xlink:href="#DejaVuSans-46"/>
     <use x="154.589844" xlink:href="#DejaVuSans-52"/>
    </g>
   </g>
  </g>
 </g>
 <defs>
  <clipPath id="p20a6c61605">
   <rect height="295.488" width="281.088" x="57.6" y="3.456"/>
  </clipPath>
 </defs>
</svg>
