<?xml version="1.0" encoding="utf-8" standalone="no"?>
<!DOCTYPE svg PUBLIC "-//W3C//DTD SVG 1.1//EN"
  "http://www.w3.org/Graphics/SVG/1.1/DTD/svg11.dtd">
<!-- Created with matplotlib (https://matplotlib.org/) -->
<svg height="345.6pt" version="1.1" viewBox="0 0 460.8 345.6" width="460.8pt" xmlns="http://www.w3.org/2000/svg" xmlns:xlink="http://www.w3.org/1999/xlink">
 <metadata>
  <rdf:RDF xmlns:cc="http://creativecommons.org/ns#" xmlns:dc="http://purl.org/dc/elements/1.1/" xmlns:rdf="http://www.w3.org/1999/02/22-rdf-syntax-ns#">
   <cc:Work>
    <dc:type rdf:resource="http://purl.org/dc/dcmitype/StillImage"/>
    <dc:date>2021-04-27T05:14:12.547973</dc:date>
    <dc:format>image/svg+xml</dc:format>
    <dc:creator>
     <cc:Agent>
      <dc:title>Matplotlib v3.3.4, https://matplotlib.org/</dc:title>
     </cc:Agent>
    </dc:creator>
   </cc:Work>
  </rdf:RDF>
 </metadata>
 <defs>
  <style type="text/css">*{stroke-linecap:butt;stroke-linejoin:round;}</style>
 </defs>
 <g id="figure_1">
  <g id="patch_1">
   <path d="M 0 345.6 
L 460.8 345.6 
L 460.8 0 
L 0 0 
z
" style="fill:#ffffff;"/>
  </g>
  <g id="axes_1">
   <g id="patch_2">
    <path d="M 57.6 298.944 
L 338.688 298.944 
L 338.688 3.456 
L 57.6 3.456 
z
" style="fill:#ffffff;"/>
   </g>
   <g id="line2d_1">
    <path d="M 17.444571 298.944 
L 17.444571 297.796697 
L 36.60358 297.796697 
L 36.60358 296.649393 
L 53.708537 296.649393 
L 53.708537 295.50209 
L 65.796525 295.50209 
L 65.796525 293.207483 
L 68.79347 293.207483 
L 68.79347 292.060179 
L 69.687988 292.060179 
L 69.687988 235.842311 
L 71.35013 235.842311 
L 71.35013 230.105794 
L 72.125336 230.105794 
L 72.125336 181.91905 
L 91.284345 181.91905 
L 91.284345 180.771746 
L 97.403108 180.771746 
L 97.403108 179.624443 
L 103.498249 179.624443 
L 103.498249 178.477139 
L 104.474128 178.477139 
L 104.474128 177.329836 
L 108.483824 177.329836 
L 108.577836 171.593319 
L 108.671345 171.593319 
L 108.671345 170.446015 
L 108.856871 170.446015 
L 108.948899 163.562195 
L 109.040444 163.562195 
L 109.131511 148.64725 
L 109.222105 148.64725 
L 109.31223 129.143091 
L 109.401893 129.143091 
L 109.491096 118.817361 
L 121.400219 118.817361 
L 121.400219 117.670057 
L 135.158519 117.670057 
L 135.158519 116.522754 
L 140.026805 116.522754 
L 140.026805 115.37545 
L 144.111818 115.37545 
L 144.111818 114.228147 
L 144.282077 114.228147 
L 144.282077 113.080843 
L 147.56019 113.080843 
L 147.56019 111.93354 
L 147.759612 111.93354 
L 147.759612 110.786236 
L 149.25057 110.786236 
L 149.25057 109.638933 
L 151.928441 109.638933 
L 151.928441 108.49163 
L 153.946025 108.49163 
L 153.946025 107.344326 
L 154.873541 107.344326 
L 154.873541 106.197023 
L 157.613546 106.197023 
L 157.613546 105.049719 
L 160.191194 105.049719 
L 160.292966 95.871292 
L 160.302628 95.871292 
L 160.37492 91.282078 
L 160.418152 91.282078 
L 160.528149 48.831851 
L 160.537682 48.831851 
L 160.613753 44.242637 
L 160.670589 44.242637 
L 160.760203 35.06421 
L 160.886762 35.06421 
L 160.993852 22.443872 
L 160.998493 22.443872 
L 161.072584 15.560051 
L 196.492788 15.560051 
L 196.495213 6.381624 
L 338.688 6.381624 
L 338.688 6.381624 
" style="fill:none;stroke:#f5deb3;stroke-linecap:square;stroke-width:4;"/>
   </g>
   <g id="line2d_2">
    <defs>
     <path d="M -0 7.778175 
L 7.778175 0 
L 0 -7.778175 
L -7.778175 -0 
z
" id="m4b4fe49320" style="stroke:#f5deb3;stroke-linejoin:miter;stroke-width:1.5;"/>
    </defs>
    <g>
     <use style="fill:#f5deb3;stroke:#f5deb3;stroke-linejoin:miter;stroke-width:1.5;" x="72.125336" xlink:href="#m4b4fe49320" y="230.105794"/>
     <use style="fill:#f5deb3;stroke:#f5deb3;stroke-linejoin:miter;stroke-width:1.5;" x="135.158519" xlink:href="#m4b4fe49320" y="116.522754"/>
     <use style="fill:#f5deb3;stroke:#f5deb3;stroke-linejoin:miter;stroke-width:1.5;" x="161.072584" xlink:href="#m4b4fe49320" y="15.560051"/>
     <use style="fill:#f5deb3;stroke:#f5deb3;stroke-linejoin:miter;stroke-width:1.5;" x="196.495213" xlink:href="#m4b4fe49320" y="6.381624"/>
     <use style="fill:#f5deb3;stroke:#f5deb3;stroke-linejoin:miter;stroke-width:1.5;" x="196.495213" xlink:href="#m4b4fe49320" y="6.381624"/>
     <use style="fill:#f5deb3;stroke:#f5deb3;stroke-linejoin:miter;stroke-width:1.5;" x="338.688" xlink:href="#m4b4fe49320" y="6.381624"/>
    </g>
   </g>
   <g id="line2d_3">
    <path style="fill:none;stroke:#f5deb3;stroke-linecap:square;stroke-width:4;"/>
    <g/>
   </g>
   <g id="line2d_4">
    <path d="M 338.688 6.381624 
L 369.60768 12.232871 
" style="fill:none;stroke:#f5deb3;stroke-linecap:square;stroke-width:4;"/>
    <g>
     <use style="fill:#f5deb3;stroke:#f5deb3;stroke-linejoin:miter;stroke-width:1.5;" x="338.688" xlink:href="#m4b4fe49320" y="6.381624"/>
     <use style="fill:#f5deb3;stroke:#f5deb3;stroke-linejoin:miter;stroke-width:1.5;" x="369.60768" xlink:href="#m4b4fe49320" y="12.232871"/>
    </g>
   </g>
   <g id="matplotlib.axis_1">
    <g id="xtick_1">
     <g id="line2d_5">
      <path clip-path="url(#paefe3607cc)" d="M 57.6 298.944 
L 57.6 3.456 
" style="fill:none;stroke:#b0b0b0;stroke-linecap:square;stroke-width:0.8;"/>
     </g>
     <g id="line2d_6">
      <defs>
       <path d="M 0 0 
L 0 3.5 
" id="m15399c5b33" style="stroke:#000000;stroke-width:0.8;"/>
      </defs>
      <g>
       <use style="stroke:#000000;stroke-width:0.8;" x="57.6" xlink:href="#m15399c5b33" y="298.944"/>
      </g>
     </g>
     <g id="text_1">
      <!-- 0 -->
      <g transform="translate(51.2375 321.140875)scale(0.2 -0.2)">
       <defs>
        <path d="M 31.78125 66.40625 
Q 24.171875 66.40625 20.328125 58.90625 
Q 16.5 51.421875 16.5 36.375 
Q 16.5 21.390625 20.328125 13.890625 
Q 24.171875 6.390625 31.78125 6.390625 
Q 39.453125 6.390625 43.28125 13.890625 
Q 47.125 21.390625 47.125 36.375 
Q 47.125 51.421875 43.28125 58.90625 
Q 39.453125 66.40625 31.78125 66.40625 
z
M 31.78125 74.21875 
Q 44.046875 74.21875 50.515625 64.515625 
Q 56.984375 54.828125 56.984375 36.375 
Q 56.984375 17.96875 50.515625 8.265625 
Q 44.046875 -1.421875 31.78125 -1.421875 
Q 19.53125 -1.421875 13.0625 8.265625 
Q 6.59375 17.96875 6.59375 36.375 
Q 6.59375 54.828125 13.0625 64.515625 
Q 19.53125 74.21875 31.78125 74.21875 
z
" id="DejaVuSans-48"/>
       </defs>
       <use xlink:href="#DejaVuSans-48"/>
      </g>
     </g>
    </g>
    <g id="xtick_2">
     <g id="line2d_7">
      <path clip-path="url(#paefe3607cc)" d="M 137.910857 298.944 
L 137.910857 3.456 
" style="fill:none;stroke:#b0b0b0;stroke-linecap:square;stroke-width:0.8;"/>
     </g>
     <g id="line2d_8">
      <g>
       <use style="stroke:#000000;stroke-width:0.8;" x="137.910857" xlink:href="#m15399c5b33" y="298.944"/>
      </g>
     </g>
     <g id="text_2">
      <!-- 2 -->
      <g transform="translate(131.548357 321.140875)scale(0.2 -0.2)">
       <defs>
        <path d="M 19.1875 8.296875 
L 53.609375 8.296875 
L 53.609375 0 
L 7.328125 0 
L 7.328125 8.296875 
Q 12.9375 14.109375 22.625 23.890625 
Q 32.328125 33.6875 34.8125 36.53125 
Q 39.546875 41.84375 41.421875 45.53125 
Q 43.3125 49.21875 43.3125 52.78125 
Q 43.3125 58.59375 39.234375 62.25 
Q 35.15625 65.921875 28.609375 65.921875 
Q 23.96875 65.921875 18.8125 64.3125 
Q 13.671875 62.703125 7.8125 59.421875 
L 7.8125 69.390625 
Q 13.765625 71.78125 18.9375 73 
Q 24.125 74.21875 28.421875 74.21875 
Q 39.75 74.21875 46.484375 68.546875 
Q 53.21875 62.890625 53.21875 53.421875 
Q 53.21875 48.921875 51.53125 44.890625 
Q 49.859375 40.875 45.40625 35.40625 
Q 44.1875 33.984375 37.640625 27.21875 
Q 31.109375 20.453125 19.1875 8.296875 
z
" id="DejaVuSans-50"/>
       </defs>
       <use xlink:href="#DejaVuSans-50"/>
      </g>
     </g>
    </g>
    <g id="xtick_3">
     <g id="line2d_9">
      <path clip-path="url(#paefe3607cc)" d="M 218.221714 298.944 
L 218.221714 3.456 
" style="fill:none;stroke:#b0b0b0;stroke-linecap:square;stroke-width:0.8;"/>
     </g>
     <g id="line2d_10">
      <g>
       <use style="stroke:#000000;stroke-width:0.8;" x="218.221714" xlink:href="#m15399c5b33" y="298.944"/>
      </g>
     </g>
     <g id="text_3">
      <!-- 4 -->
      <g transform="translate(211.859214 321.140875)scale(0.2 -0.2)">
       <defs>
        <path d="M 37.796875 64.3125 
L 12.890625 25.390625 
L 37.796875 25.390625 
z
M 35.203125 72.90625 
L 47.609375 72.90625 
L 47.609375 25.390625 
L 58.015625 25.390625 
L 58.015625 17.1875 
L 47.609375 17.1875 
L 47.609375 0 
L 37.796875 0 
L 37.796875 17.1875 
L 4.890625 17.1875 
L 4.890625 26.703125 
z
" id="DejaVuSans-52"/>
       </defs>
       <use xlink:href="#DejaVuSans-52"/>
      </g>
     </g>
    </g>
    <g id="xtick_4">
     <g id="line2d_11">
      <path clip-path="url(#paefe3607cc)" d="M 298.532571 298.944 
L 298.532571 3.456 
" style="fill:none;stroke:#b0b0b0;stroke-linecap:square;stroke-width:0.8;"/>
     </g>
     <g id="line2d_12">
      <g>
       <use style="stroke:#000000;stroke-width:0.8;" x="298.532571" xlink:href="#m15399c5b33" y="298.944"/>
      </g>
     </g>
     <g id="text_4">
      <!-- 6 -->
      <g transform="translate(292.170071 321.140875)scale(0.2 -0.2)">
       <defs>
        <path d="M 33.015625 40.375 
Q 26.375 40.375 22.484375 35.828125 
Q 18.609375 31.296875 18.609375 23.390625 
Q 18.609375 15.53125 22.484375 10.953125 
Q 26.375 6.390625 33.015625 6.390625 
Q 39.65625 6.390625 43.53125 10.953125 
Q 47.40625 15.53125 47.40625 23.390625 
Q 47.40625 31.296875 43.53125 35.828125 
Q 39.65625 40.375 33.015625 40.375 
z
M 52.59375 71.296875 
L 52.59375 62.3125 
Q 48.875 64.0625 45.09375 64.984375 
Q 41.3125 65.921875 37.59375 65.921875 
Q 27.828125 65.921875 22.671875 59.328125 
Q 17.53125 52.734375 16.796875 39.40625 
Q 19.671875 43.65625 24.015625 45.921875 
Q 28.375 48.1875 33.59375 48.1875 
Q 44.578125 48.1875 50.953125 41.515625 
Q 57.328125 34.859375 57.328125 23.390625 
Q 57.328125 12.15625 50.6875 5.359375 
Q 44.046875 -1.421875 33.015625 -1.421875 
Q 20.359375 -1.421875 13.671875 8.265625 
Q 6.984375 17.96875 6.984375 36.375 
Q 6.984375 53.65625 15.1875 63.9375 
Q 23.390625 74.21875 37.203125 74.21875 
Q 40.921875 74.21875 44.703125 73.484375 
Q 48.484375 72.75 52.59375 71.296875 
z
" id="DejaVuSans-54"/>
       </defs>
       <use xlink:href="#DejaVuSans-54"/>
      </g>
     </g>
    </g>
    <g id="xtick_5">
     <g id="line2d_13">
      <path clip-path="url(#paefe3607cc)" d="M 97.755429 298.944 
L 97.755429 3.456 
" style="fill:none;stroke:#b0b0b0;stroke-linecap:square;stroke-width:0.8;"/>
     </g>
     <g id="line2d_14">
      <defs>
       <path d="M 0 0 
L 0 2 
" id="md5ff8a194f" style="stroke:#000000;stroke-width:0.6;"/>
      </defs>
      <g>
       <use style="stroke:#000000;stroke-width:0.6;" x="97.755429" xlink:href="#md5ff8a194f" y="298.944"/>
      </g>
     </g>
    </g>
    <g id="xtick_6">
     <g id="line2d_15">
      <path clip-path="url(#paefe3607cc)" d="M 178.066286 298.944 
L 178.066286 3.456 
" style="fill:none;stroke:#b0b0b0;stroke-linecap:square;stroke-width:0.8;"/>
     </g>
     <g id="line2d_16">
      <g>
       <use style="stroke:#000000;stroke-width:0.6;" x="178.066286" xlink:href="#md5ff8a194f" y="298.944"/>
      </g>
     </g>
    </g>
    <g id="xtick_7">
     <g id="line2d_17">
      <path clip-path="url(#paefe3607cc)" d="M 258.377143 298.944 
L 258.377143 3.456 
" style="fill:none;stroke:#b0b0b0;stroke-linecap:square;stroke-width:0.8;"/>
     </g>
     <g id="line2d_18">
      <g>
       <use style="stroke:#000000;stroke-width:0.6;" x="258.377143" xlink:href="#md5ff8a194f" y="298.944"/>
      </g>
     </g>
    </g>
    <g id="xtick_8">
     <g id="line2d_19">
      <path clip-path="url(#paefe3607cc)" d="M 338.688 298.944 
L 338.688 3.456 
" style="fill:none;stroke:#b0b0b0;stroke-linecap:square;stroke-width:0.8;"/>
     </g>
     <g id="line2d_20">
      <g>
       <use style="stroke:#000000;stroke-width:0.6;" x="338.688" xlink:href="#md5ff8a194f" y="298.944"/>
      </g>
     </g>
    </g>
    <g id="text_5">
     <!-- log10(# f-evals / dimension) -->
     <g transform="translate(77.764078 342.217594)scale(0.17 -0.17)">
      <defs>
       <path d="M 9.421875 75.984375 
L 18.40625 75.984375 
L 18.40625 0 
L 9.421875 0 
z
" id="DejaVuSans-108"/>
       <path d="M 30.609375 48.390625 
Q 23.390625 48.390625 19.1875 42.75 
Q 14.984375 37.109375 14.984375 27.296875 
Q 14.984375 17.484375 19.15625 11.84375 
Q 23.34375 6.203125 30.609375 6.203125 
Q 37.796875 6.203125 41.984375 11.859375 
Q 46.1875 17.53125 46.1875 27.296875 
Q 46.1875 37.015625 41.984375 42.703125 
Q 37.796875 48.390625 30.609375 48.390625 
z
M 30.609375 56 
Q 42.328125 56 49.015625 48.375 
Q 55.71875 40.765625 55.71875 27.296875 
Q 55.71875 13.875 49.015625 6.21875 
Q 42.328125 -1.421875 30.609375 -1.421875 
Q 18.84375 -1.421875 12.171875 6.21875 
Q 5.515625 13.875 5.515625 27.296875 
Q 5.515625 40.765625 12.171875 48.375 
Q 18.84375 56 30.609375 56 
z
" id="DejaVuSans-111"/>
       <path d="M 45.40625 27.984375 
Q 45.40625 37.75 41.375 43.109375 
Q 37.359375 48.484375 30.078125 48.484375 
Q 22.859375 48.484375 18.828125 43.109375 
Q 14.796875 37.75 14.796875 27.984375 
Q 14.796875 18.265625 18.828125 12.890625 
Q 22.859375 7.515625 30.078125 7.515625 
Q 37.359375 7.515625 41.375 12.890625 
Q 45.40625 18.265625 45.40625 27.984375 
z
M 54.390625 6.78125 
Q 54.390625 -7.171875 48.1875 -13.984375 
Q 42 -20.796875 29.203125 -20.796875 
Q 24.46875 -20.796875 20.265625 -20.09375 
Q 16.0625 -19.390625 12.109375 -17.921875 
L 12.109375 -9.1875 
Q 16.0625 -11.328125 19.921875 -12.34375 
Q 23.78125 -13.375 27.78125 -13.375 
Q 36.625 -13.375 41.015625 -8.765625 
Q 45.40625 -4.15625 45.40625 5.171875 
L 45.40625 9.625 
Q 42.625 4.78125 38.28125 2.390625 
Q 33.9375 0 27.875 0 
Q 17.828125 0 11.671875 7.65625 
Q 5.515625 15.328125 5.515625 27.984375 
Q 5.515625 40.671875 11.671875 48.328125 
Q 17.828125 56 27.875 56 
Q 33.9375 56 38.28125 53.609375 
Q 42.625 51.21875 45.40625 46.390625 
L 45.40625 54.6875 
L 54.390625 54.6875 
z
" id="DejaVuSans-103"/>
       <path d="M 12.40625 8.296875 
L 28.515625 8.296875 
L 28.515625 63.921875 
L 10.984375 60.40625 
L 10.984375 69.390625 
L 28.421875 72.90625 
L 38.28125 72.90625 
L 38.28125 8.296875 
L 54.390625 8.296875 
L 54.390625 0 
L 12.40625 0 
z
" id="DejaVuSans-49"/>
       <path d="M 31 75.875 
Q 24.46875 64.65625 21.28125 53.65625 
Q 18.109375 42.671875 18.109375 31.390625 
Q 18.109375 20.125 21.3125 9.0625 
Q 24.515625 -2 31 -13.1875 
L 23.1875 -13.1875 
Q 15.875 -1.703125 12.234375 9.375 
Q 8.59375 20.453125 8.59375 31.390625 
Q 8.59375 42.28125 12.203125 53.3125 
Q 15.828125 64.359375 23.1875 75.875 
z
" id="DejaVuSans-40"/>
       <path d="M 51.125 44 
L 36.921875 44 
L 32.8125 27.6875 
L 47.125 27.6875 
z
M 43.796875 71.78125 
L 38.71875 51.515625 
L 52.984375 51.515625 
L 58.109375 71.78125 
L 65.921875 71.78125 
L 60.890625 51.515625 
L 76.125 51.515625 
L 76.125 44 
L 58.984375 44 
L 54.984375 27.6875 
L 70.515625 27.6875 
L 70.515625 20.21875 
L 53.078125 20.21875 
L 48 0 
L 40.1875 0 
L 45.21875 20.21875 
L 30.90625 20.21875 
L 25.875 0 
L 18.015625 0 
L 23.09375 20.21875 
L 7.71875 20.21875 
L 7.71875 27.6875 
L 24.90625 27.6875 
L 29 44 
L 13.28125 44 
L 13.28125 51.515625 
L 30.90625 51.515625 
L 35.890625 71.78125 
z
" id="DejaVuSans-35"/>
       <path id="DejaVuSans-32"/>
       <path d="M 37.109375 75.984375 
L 37.109375 68.5 
L 28.515625 68.5 
Q 23.6875 68.5 21.796875 66.546875 
Q 19.921875 64.59375 19.921875 59.515625 
L 19.921875 54.6875 
L 34.71875 54.6875 
L 34.71875 47.703125 
L 19.921875 47.703125 
L 19.921875 0 
L 10.890625 0 
L 10.890625 47.703125 
L 2.296875 47.703125 
L 2.296875 54.6875 
L 10.890625 54.6875 
L 10.890625 58.5 
Q 10.890625 67.625 15.140625 71.796875 
Q 19.390625 75.984375 28.609375 75.984375 
z
" id="DejaVuSans-102"/>
       <path d="M 4.890625 31.390625 
L 31.203125 31.390625 
L 31.203125 23.390625 
L 4.890625 23.390625 
z
" id="DejaVuSans-45"/>
       <path d="M 56.203125 29.59375 
L 56.203125 25.203125 
L 14.890625 25.203125 
Q 15.484375 15.921875 20.484375 11.0625 
Q 25.484375 6.203125 34.421875 6.203125 
Q 39.59375 6.203125 44.453125 7.46875 
Q 49.3125 8.734375 54.109375 11.28125 
L 54.109375 2.78125 
Q 49.265625 0.734375 44.1875 -0.34375 
Q 39.109375 -1.421875 33.890625 -1.421875 
Q 20.796875 -1.421875 13.15625 6.1875 
Q 5.515625 13.8125 5.515625 26.8125 
Q 5.515625 40.234375 12.765625 48.109375 
Q 20.015625 56 32.328125 56 
Q 43.359375 56 49.78125 48.890625 
Q 56.203125 41.796875 56.203125 29.59375 
z
M 47.21875 32.234375 
Q 47.125 39.59375 43.09375 43.984375 
Q 39.0625 48.390625 32.421875 48.390625 
Q 24.90625 48.390625 20.390625 44.140625 
Q 15.875 39.890625 15.1875 32.171875 
z
" id="DejaVuSans-101"/>
       <path d="M 2.984375 54.6875 
L 12.5 54.6875 
L 29.59375 8.796875 
L 46.6875 54.6875 
L 56.203125 54.6875 
L 35.6875 0 
L 23.484375 0 
z
" id="DejaVuSans-118"/>
       <path d="M 34.28125 27.484375 
Q 23.390625 27.484375 19.1875 25 
Q 14.984375 22.515625 14.984375 16.5 
Q 14.984375 11.71875 18.140625 8.90625 
Q 21.296875 6.109375 26.703125 6.109375 
Q 34.1875 6.109375 38.703125 11.40625 
Q 43.21875 16.703125 43.21875 25.484375 
L 43.21875 27.484375 
z
M 52.203125 31.203125 
L 52.203125 0 
L 43.21875 0 
L 43.21875 8.296875 
Q 40.140625 3.328125 35.546875 0.953125 
Q 30.953125 -1.421875 24.3125 -1.421875 
Q 15.921875 -1.421875 10.953125 3.296875 
Q 6 8.015625 6 15.921875 
Q 6 25.140625 12.171875 29.828125 
Q 18.359375 34.515625 30.609375 34.515625 
L 43.21875 34.515625 
L 43.21875 35.40625 
Q 43.21875 41.609375 39.140625 45 
Q 35.0625 48.390625 27.6875 48.390625 
Q 23 48.390625 18.546875 47.265625 
Q 14.109375 46.140625 10.015625 43.890625 
L 10.015625 52.203125 
Q 14.9375 54.109375 19.578125 55.046875 
Q 24.21875 56 28.609375 56 
Q 40.484375 56 46.34375 49.84375 
Q 52.203125 43.703125 52.203125 31.203125 
z
" id="DejaVuSans-97"/>
       <path d="M 44.28125 53.078125 
L 44.28125 44.578125 
Q 40.484375 46.53125 36.375 47.5 
Q 32.28125 48.484375 27.875 48.484375 
Q 21.1875 48.484375 17.84375 46.4375 
Q 14.5 44.390625 14.5 40.28125 
Q 14.5 37.15625 16.890625 35.375 
Q 19.28125 33.59375 26.515625 31.984375 
L 29.59375 31.296875 
Q 39.15625 29.25 43.1875 25.515625 
Q 47.21875 21.78125 47.21875 15.09375 
Q 47.21875 7.46875 41.1875 3.015625 
Q 35.15625 -1.421875 24.609375 -1.421875 
Q 20.21875 -1.421875 15.453125 -0.5625 
Q 10.6875 0.296875 5.421875 2 
L 5.421875 11.28125 
Q 10.40625 8.6875 15.234375 7.390625 
Q 20.0625 6.109375 24.8125 6.109375 
Q 31.15625 6.109375 34.5625 8.28125 
Q 37.984375 10.453125 37.984375 14.40625 
Q 37.984375 18.0625 35.515625 20.015625 
Q 33.0625 21.96875 24.703125 23.78125 
L 21.578125 24.515625 
Q 13.234375 26.265625 9.515625 29.90625 
Q 5.8125 33.546875 5.8125 39.890625 
Q 5.8125 47.609375 11.28125 51.796875 
Q 16.75 56 26.8125 56 
Q 31.78125 56 36.171875 55.265625 
Q 40.578125 54.546875 44.28125 53.078125 
z
" id="DejaVuSans-115"/>
       <path d="M 25.390625 72.90625 
L 33.6875 72.90625 
L 8.296875 -9.28125 
L 0 -9.28125 
z
" id="DejaVuSans-47"/>
       <path d="M 45.40625 46.390625 
L 45.40625 75.984375 
L 54.390625 75.984375 
L 54.390625 0 
L 45.40625 0 
L 45.40625 8.203125 
Q 42.578125 3.328125 38.25 0.953125 
Q 33.9375 -1.421875 27.875 -1.421875 
Q 17.96875 -1.421875 11.734375 6.484375 
Q 5.515625 14.40625 5.515625 27.296875 
Q 5.515625 40.1875 11.734375 48.09375 
Q 17.96875 56 27.875 56 
Q 33.9375 56 38.25 53.625 
Q 42.578125 51.265625 45.40625 46.390625 
z
M 14.796875 27.296875 
Q 14.796875 17.390625 18.875 11.75 
Q 22.953125 6.109375 30.078125 6.109375 
Q 37.203125 6.109375 41.296875 11.75 
Q 45.40625 17.390625 45.40625 27.296875 
Q 45.40625 37.203125 41.296875 42.84375 
Q 37.203125 48.484375 30.078125 48.484375 
Q 22.953125 48.484375 18.875 42.84375 
Q 14.796875 37.203125 14.796875 27.296875 
z
" id="DejaVuSans-100"/>
       <path d="M 9.421875 54.6875 
L 18.40625 54.6875 
L 18.40625 0 
L 9.421875 0 
z
M 9.421875 75.984375 
L 18.40625 75.984375 
L 18.40625 64.59375 
L 9.421875 64.59375 
z
" id="DejaVuSans-105"/>
       <path d="M 52 44.1875 
Q 55.375 50.25 60.0625 53.125 
Q 64.75 56 71.09375 56 
Q 79.640625 56 84.28125 50.015625 
Q 88.921875 44.046875 88.921875 33.015625 
L 88.921875 0 
L 79.890625 0 
L 79.890625 32.71875 
Q 79.890625 40.578125 77.09375 44.375 
Q 74.3125 48.1875 68.609375 48.1875 
Q 61.625 48.1875 57.5625 43.546875 
Q 53.515625 38.921875 53.515625 30.90625 
L 53.515625 0 
L 44.484375 0 
L 44.484375 32.71875 
Q 44.484375 40.625 41.703125 44.40625 
Q 38.921875 48.1875 33.109375 48.1875 
Q 26.21875 48.1875 22.15625 43.53125 
Q 18.109375 38.875 18.109375 30.90625 
L 18.109375 0 
L 9.078125 0 
L 9.078125 54.6875 
L 18.109375 54.6875 
L 18.109375 46.1875 
Q 21.1875 51.21875 25.484375 53.609375 
Q 29.78125 56 35.6875 56 
Q 41.65625 56 45.828125 52.96875 
Q 50 49.953125 52 44.1875 
z
" id="DejaVuSans-109"/>
       <path d="M 54.890625 33.015625 
L 54.890625 0 
L 45.90625 0 
L 45.90625 32.71875 
Q 45.90625 40.484375 42.875 44.328125 
Q 39.84375 48.1875 33.796875 48.1875 
Q 26.515625 48.1875 22.3125 43.546875 
Q 18.109375 38.921875 18.109375 30.90625 
L 18.109375 0 
L 9.078125 0 
L 9.078125 54.6875 
L 18.109375 54.6875 
L 18.109375 46.1875 
Q 21.34375 51.125 25.703125 53.5625 
Q 30.078125 56 35.796875 56 
Q 45.21875 56 50.046875 50.171875 
Q 54.890625 44.34375 54.890625 33.015625 
z
" id="DejaVuSans-110"/>
       <path d="M 8.015625 75.875 
L 15.828125 75.875 
Q 23.140625 64.359375 26.78125 53.3125 
Q 30.421875 42.28125 30.421875 31.390625 
Q 30.421875 20.453125 26.78125 9.375 
Q 23.140625 -1.703125 15.828125 -13.1875 
L 8.015625 -13.1875 
Q 14.5 -2 17.703125 9.0625 
Q 20.90625 20.125 20.90625 31.390625 
Q 20.90625 42.671875 17.703125 53.65625 
Q 14.5 64.65625 8.015625 75.875 
z
" id="DejaVuSans-41"/>
      </defs>
      <use xlink:href="#DejaVuSans-108"/>
      <use x="27.783203" xlink:href="#DejaVuSans-111"/>
      <use x="88.964844" xlink:href="#DejaVuSans-103"/>
      <use x="152.441406" xlink:href="#DejaVuSans-49"/>
      <use x="216.064453" xlink:href="#DejaVuSans-48"/>
      <use x="279.6875" xlink:href="#DejaVuSans-40"/>
      <use x="318.701172" xlink:href="#DejaVuSans-35"/>
      <use x="402.490234" xlink:href="#DejaVuSans-32"/>
      <use x="434.277344" xlink:href="#DejaVuSans-102"/>
      <use x="463.982422" xlink:href="#DejaVuSans-45"/>
      <use x="500.066406" xlink:href="#DejaVuSans-101"/>
      <use x="561.589844" xlink:href="#DejaVuSans-118"/>
      <use x="620.769531" xlink:href="#DejaVuSans-97"/>
      <use x="682.048828" xlink:href="#DejaVuSans-108"/>
      <use x="709.832031" xlink:href="#DejaVuSans-115"/>
      <use x="761.931641" xlink:href="#DejaVuSans-32"/>
      <use x="793.71875" xlink:href="#DejaVuSans-47"/>
      <use x="827.410156" xlink:href="#DejaVuSans-32"/>
      <use x="859.197266" xlink:href="#DejaVuSans-100"/>
      <use x="922.673828" xlink:href="#DejaVuSans-105"/>
      <use x="950.457031" xlink:href="#DejaVuSans-109"/>
      <use x="1047.869141" xlink:href="#DejaVuSans-101"/>
      <use x="1109.392578" xlink:href="#DejaVuSans-110"/>
      <use x="1172.771484" xlink:href="#DejaVuSans-115"/>
      <use x="1224.871094" xlink:href="#DejaVuSans-105"/>
      <use x="1252.654297" xlink:href="#DejaVuSans-111"/>
      <use x="1313.835938" xlink:href="#DejaVuSans-110"/>
      <use x="1377.214844" xlink:href="#DejaVuSans-41"/>
     </g>
    </g>
   </g>
   <g id="matplotlib.axis_2">
    <g id="ytick_1">
     <g id="line2d_21">
      <path clip-path="url(#paefe3607cc)" d="M 57.6 298.944 
L 338.688 298.944 
" style="fill:none;stroke:#b0b0b0;stroke-linecap:square;stroke-width:0.8;"/>
     </g>
     <g id="line2d_22">
      <defs>
       <path d="M 0 0 
L -3.5 0 
" id="m44527d269a" style="stroke:#000000;stroke-width:0.8;"/>
      </defs>
      <g>
       <use style="stroke:#000000;stroke-width:0.8;" x="57.6" xlink:href="#m44527d269a" y="298.944"/>
      </g>
     </g>
     <g id="text_6">
      <!-- 0.0 -->
      <g transform="translate(25.155 305.02275)scale(0.16 -0.16)">
       <defs>
        <path d="M 10.6875 12.40625 
L 21 12.40625 
L 21 0 
L 10.6875 0 
z
" id="DejaVuSans-46"/>
       </defs>
       <use xlink:href="#DejaVuSans-48"/>
       <use x="63.623047" xlink:href="#DejaVuSans-46"/>
       <use x="95.410156" xlink:href="#DejaVuSans-48"/>
      </g>
     </g>
    </g>
    <g id="ytick_2">
     <g id="line2d_23">
      <path clip-path="url(#paefe3607cc)" d="M 57.6 240.431525 
L 338.688 240.431525 
" style="fill:none;stroke:#b0b0b0;stroke-linecap:square;stroke-width:0.8;"/>
     </g>
     <g id="line2d_24">
      <g>
       <use style="stroke:#000000;stroke-width:0.8;" x="57.6" xlink:href="#m44527d269a" y="240.431525"/>
      </g>
     </g>
     <g id="text_7">
      <!-- 0.2 -->
      <g transform="translate(25.155 246.510275)scale(0.16 -0.16)">
       <use xlink:href="#DejaVuSans-48"/>
       <use x="63.623047" xlink:href="#DejaVuSans-46"/>
       <use x="95.410156" xlink:href="#DejaVuSans-50"/>
      </g>
     </g>
    </g>
    <g id="ytick_3">
     <g id="line2d_25">
      <path clip-path="url(#paefe3607cc)" d="M 57.6 181.91905 
L 338.688 181.91905 
" style="fill:none;stroke:#b0b0b0;stroke-linecap:square;stroke-width:0.8;"/>
     </g>
     <g id="line2d_26">
      <g>
       <use style="stroke:#000000;stroke-width:0.8;" x="57.6" xlink:href="#m44527d269a" y="181.91905"/>
      </g>
     </g>
     <g id="text_8">
      <!-- 0.4 -->
      <g transform="translate(25.155 187.9978)scale(0.16 -0.16)">
       <use xlink:href="#DejaVuSans-48"/>
       <use x="63.623047" xlink:href="#DejaVuSans-46"/>
       <use x="95.410156" xlink:href="#DejaVuSans-52"/>
      </g>
     </g>
    </g>
    <g id="ytick_4">
     <g id="line2d_27">
      <path clip-path="url(#paefe3607cc)" d="M 57.6 123.406574 
L 338.688 123.406574 
" style="fill:none;stroke:#b0b0b0;stroke-linecap:square;stroke-width:0.8;"/>
     </g>
     <g id="line2d_28">
      <g>
       <use style="stroke:#000000;stroke-width:0.8;" x="57.6" xlink:href="#m44527d269a" y="123.406574"/>
      </g>
     </g>
     <g id="text_9">
      <!-- 0.6 -->
      <g transform="translate(25.155 129.485324)scale(0.16 -0.16)">
       <use xlink:href="#DejaVuSans-48"/>
       <use x="63.623047" xlink:href="#DejaVuSans-46"/>
       <use x="95.410156" xlink:href="#DejaVuSans-54"/>
      </g>
     </g>
    </g>
    <g id="ytick_5">
     <g id="line2d_29">
      <path clip-path="url(#paefe3607cc)" d="M 57.6 64.894099 
L 338.688 64.894099 
" style="fill:none;stroke:#b0b0b0;stroke-linecap:square;stroke-width:0.8;"/>
     </g>
     <g id="line2d_30">
      <g>
       <use style="stroke:#000000;stroke-width:0.8;" x="57.6" xlink:href="#m44527d269a" y="64.894099"/>
      </g>
     </g>
     <g id="text_10">
      <!-- 0.8 -->
      <g transform="translate(25.155 70.972849)scale(0.16 -0.16)">
       <defs>
        <path d="M 31.78125 34.625 
Q 24.75 34.625 20.71875 30.859375 
Q 16.703125 27.09375 16.703125 20.515625 
Q 16.703125 13.921875 20.71875 10.15625 
Q 24.75 6.390625 31.78125 6.390625 
Q 38.8125 6.390625 42.859375 10.171875 
Q 46.921875 13.96875 46.921875 20.515625 
Q 46.921875 27.09375 42.890625 30.859375 
Q 38.875 34.625 31.78125 34.625 
z
M 21.921875 38.8125 
Q 15.578125 40.375 12.03125 44.71875 
Q 8.5 49.078125 8.5 55.328125 
Q 8.5 64.0625 14.71875 69.140625 
Q 20.953125 74.21875 31.78125 74.21875 
Q 42.671875 74.21875 48.875 69.140625 
Q 55.078125 64.0625 55.078125 55.328125 
Q 55.078125 49.078125 51.53125 44.71875 
Q 48 40.375 41.703125 38.8125 
Q 48.828125 37.15625 52.796875 32.3125 
Q 56.78125 27.484375 56.78125 20.515625 
Q 56.78125 9.90625 50.3125 4.234375 
Q 43.84375 -1.421875 31.78125 -1.421875 
Q 19.734375 -1.421875 13.25 4.234375 
Q 6.78125 9.90625 6.78125 20.515625 
Q 6.78125 27.484375 10.78125 32.3125 
Q 14.796875 37.15625 21.921875 38.8125 
z
M 18.3125 54.390625 
Q 18.3125 48.734375 21.84375 45.5625 
Q 25.390625 42.390625 31.78125 42.390625 
Q 38.140625 42.390625 41.71875 45.5625 
Q 45.3125 48.734375 45.3125 54.390625 
Q 45.3125 60.0625 41.71875 63.234375 
Q 38.140625 66.40625 31.78125 66.40625 
Q 25.390625 66.40625 21.84375 63.234375 
Q 18.3125 60.0625 18.3125 54.390625 
z
" id="DejaVuSans-56"/>
       </defs>
       <use xlink:href="#DejaVuSans-48"/>
       <use x="63.623047" xlink:href="#DejaVuSans-46"/>
       <use x="95.410156" xlink:href="#DejaVuSans-56"/>
      </g>
     </g>
    </g>
    <g id="ytick_6">
     <g id="line2d_31">
      <path clip-path="url(#paefe3607cc)" d="M 57.6 6.381624 
L 338.688 6.381624 
" style="fill:none;stroke:#b0b0b0;stroke-linecap:square;stroke-width:0.8;"/>
     </g>
     <g id="line2d_32">
      <g>
       <use style="stroke:#000000;stroke-width:0.8;" x="57.6" xlink:href="#m44527d269a" y="6.381624"/>
      </g>
     </g>
     <g id="text_11">
      <!-- 1.0 -->
      <g transform="translate(25.155 12.460374)scale(0.16 -0.16)">
       <use xlink:href="#DejaVuSans-49"/>
       <use x="63.623047" xlink:href="#DejaVuSans-46"/>
       <use x="95.410156" xlink:href="#DejaVuSans-48"/>
      </g>
     </g>
    </g>
    <g id="text_12">
     <!-- Fraction of function,target pairs -->
     <g transform="translate(17.619531 285.585)rotate(-90)scale(0.17 -0.17)">
      <defs>
       <path d="M 9.8125 72.90625 
L 51.703125 72.90625 
L 51.703125 64.59375 
L 19.671875 64.59375 
L 19.671875 43.109375 
L 48.578125 43.109375 
L 48.578125 34.8125 
L 19.671875 34.8125 
L 19.671875 0 
L 9.8125 0 
z
" id="DejaVuSans-70"/>
       <path d="M 41.109375 46.296875 
Q 39.59375 47.171875 37.8125 47.578125 
Q 36.03125 48 33.890625 48 
Q 26.265625 48 22.1875 43.046875 
Q 18.109375 38.09375 18.109375 28.8125 
L 18.109375 0 
L 9.078125 0 
L 9.078125 54.6875 
L 18.109375 54.6875 
L 18.109375 46.1875 
Q 20.953125 51.171875 25.484375 53.578125 
Q 30.03125 56 36.53125 56 
Q 37.453125 56 38.578125 55.875 
Q 39.703125 55.765625 41.0625 55.515625 
z
" id="DejaVuSans-114"/>
       <path d="M 48.78125 52.59375 
L 48.78125 44.1875 
Q 44.96875 46.296875 41.140625 47.34375 
Q 37.3125 48.390625 33.40625 48.390625 
Q 24.65625 48.390625 19.8125 42.84375 
Q 14.984375 37.3125 14.984375 27.296875 
Q 14.984375 17.28125 19.8125 11.734375 
Q 24.65625 6.203125 33.40625 6.203125 
Q 37.3125 6.203125 41.140625 7.25 
Q 44.96875 8.296875 48.78125 10.40625 
L 48.78125 2.09375 
Q 45.015625 0.34375 40.984375 -0.53125 
Q 36.96875 -1.421875 32.421875 -1.421875 
Q 20.0625 -1.421875 12.78125 6.34375 
Q 5.515625 14.109375 5.515625 27.296875 
Q 5.515625 40.671875 12.859375 48.328125 
Q 20.21875 56 33.015625 56 
Q 37.15625 56 41.109375 55.140625 
Q 45.0625 54.296875 48.78125 52.59375 
z
" id="DejaVuSans-99"/>
       <path d="M 18.3125 70.21875 
L 18.3125 54.6875 
L 36.8125 54.6875 
L 36.8125 47.703125 
L 18.3125 47.703125 
L 18.3125 18.015625 
Q 18.3125 11.328125 20.140625 9.421875 
Q 21.96875 7.515625 27.59375 7.515625 
L 36.8125 7.515625 
L 36.8125 0 
L 27.59375 0 
Q 17.1875 0 13.234375 3.875 
Q 9.28125 7.765625 9.28125 18.015625 
L 9.28125 47.703125 
L 2.6875 47.703125 
L 2.6875 54.6875 
L 9.28125 54.6875 
L 9.28125 70.21875 
z
" id="DejaVuSans-116"/>
       <path d="M 8.5 21.578125 
L 8.5 54.6875 
L 17.484375 54.6875 
L 17.484375 21.921875 
Q 17.484375 14.15625 20.5 10.265625 
Q 23.53125 6.390625 29.59375 6.390625 
Q 36.859375 6.390625 41.078125 11.03125 
Q 45.3125 15.671875 45.3125 23.6875 
L 45.3125 54.6875 
L 54.296875 54.6875 
L 54.296875 0 
L 45.3125 0 
L 45.3125 8.40625 
Q 42.046875 3.421875 37.71875 1 
Q 33.40625 -1.421875 27.6875 -1.421875 
Q 18.265625 -1.421875 13.375 4.4375 
Q 8.5 10.296875 8.5 21.578125 
z
M 31.109375 56 
z
" id="DejaVuSans-117"/>
       <path d="M 11.71875 12.40625 
L 22.015625 12.40625 
L 22.015625 4 
L 14.015625 -11.625 
L 7.71875 -11.625 
L 11.71875 4 
z
" id="DejaVuSans-44"/>
       <path d="M 18.109375 8.203125 
L 18.109375 -20.796875 
L 9.078125 -20.796875 
L 9.078125 54.6875 
L 18.109375 54.6875 
L 18.109375 46.390625 
Q 20.953125 51.265625 25.265625 53.625 
Q 29.59375 56 35.59375 56 
Q 45.5625 56 51.78125 48.09375 
Q 58.015625 40.1875 58.015625 27.296875 
Q 58.015625 14.40625 51.78125 6.484375 
Q 45.5625 -1.421875 35.59375 -1.421875 
Q 29.59375 -1.421875 25.265625 0.953125 
Q 20.953125 3.328125 18.109375 8.203125 
z
M 48.6875 27.296875 
Q 48.6875 37.203125 44.609375 42.84375 
Q 40.53125 48.484375 33.40625 48.484375 
Q 26.265625 48.484375 22.1875 42.84375 
Q 18.109375 37.203125 18.109375 27.296875 
Q 18.109375 17.390625 22.1875 11.75 
Q 26.265625 6.109375 33.40625 6.109375 
Q 40.53125 6.109375 44.609375 11.75 
Q 48.6875 17.390625 48.6875 27.296875 
z
" id="DejaVuSans-112"/>
      </defs>
      <use xlink:href="#DejaVuSans-70"/>
      <use x="50.269531" xlink:href="#DejaVuSans-114"/>
      <use x="91.382812" xlink:href="#DejaVuSans-97"/>
      <use x="152.662109" xlink:href="#DejaVuSans-99"/>
      <use x="207.642578" xlink:href="#DejaVuSans-116"/>
      <use x="246.851562" xlink:href="#DejaVuSans-105"/>
      <use x="274.634766" xlink:href="#DejaVuSans-111"/>
      <use x="335.816406" xlink:href="#DejaVuSans-110"/>
      <use x="399.195312" xlink:href="#DejaVuSans-32"/>
      <use x="430.982422" xlink:href="#DejaVuSans-111"/>
      <use x="492.164062" xlink:href="#DejaVuSans-102"/>
      <use x="527.369141" xlink:href="#DejaVuSans-32"/>
      <use x="559.15625" xlink:href="#DejaVuSans-102"/>
      <use x="594.361328" xlink:href="#DejaVuSans-117"/>
      <use x="657.740234" xlink:href="#DejaVuSans-110"/>
      <use x="721.119141" xlink:href="#DejaVuSans-99"/>
      <use x="776.099609" xlink:href="#DejaVuSans-116"/>
      <use x="815.308594" xlink:href="#DejaVuSans-105"/>
      <use x="843.091797" xlink:href="#DejaVuSans-111"/>
      <use x="904.273438" xlink:href="#DejaVuSans-110"/>
      <use x="967.652344" xlink:href="#DejaVuSans-44"/>
      <use x="999.439453" xlink:href="#DejaVuSans-116"/>
      <use x="1038.648438" xlink:href="#DejaVuSans-97"/>
      <use x="1099.927734" xlink:href="#DejaVuSans-114"/>
      <use x="1139.291016" xlink:href="#DejaVuSans-103"/>
      <use x="1202.767578" xlink:href="#DejaVuSans-101"/>
      <use x="1264.291016" xlink:href="#DejaVuSans-116"/>
      <use x="1303.5" xlink:href="#DejaVuSans-32"/>
      <use x="1335.287109" xlink:href="#DejaVuSans-112"/>
      <use x="1398.763672" xlink:href="#DejaVuSans-97"/>
      <use x="1460.042969" xlink:href="#DejaVuSans-105"/>
      <use x="1487.826172" xlink:href="#DejaVuSans-114"/>
      <use x="1528.939453" xlink:href="#DejaVuSans-115"/>
     </g>
    </g>
   </g>
   <g id="line2d_33">
    <defs>
     <path d="M 0 1.5 
C 0.397805 1.5 0.77937 1.341951 1.06066 1.06066 
C 1.341951 0.77937 1.5 0.397805 1.5 0 
C 1.5 -0.397805 1.341951 -0.77937 1.06066 -1.06066 
C 0.77937 -1.341951 0.397805 -1.5 0 -1.5 
C -0.397805 -1.5 -0.77937 -1.341951 -1.06066 -1.06066 
C -1.341951 -0.77937 -1.5 -0.397805 -1.5 0 
C -1.5 0.397805 -1.341951 0.77937 -1.06066 1.06066 
C -0.77937 1.341951 -0.397805 1.5 0 1.5 
z
" id="m421d2b65ce" style="stroke:#f5deb3;"/>
    </defs>
    <g>
     <use style="fill:#f5deb3;stroke:#f5deb3;" x="196.495213" xlink:href="#m421d2b65ce" y="6.381624"/>
     <use style="fill:#f5deb3;stroke:#f5deb3;" x="196.495213" xlink:href="#m421d2b65ce" y="6.381624"/>
    </g>
   </g>
   <g id="line2d_34">
    <defs>
     <path d="M 0 1.5 
C 0.397805 1.5 0.77937 1.341951 1.06066 1.06066 
C 1.341951 0.77937 1.5 0.397805 1.5 0 
C 1.5 -0.397805 1.341951 -0.77937 1.06066 -1.06066 
C 0.77937 -1.341951 0.397805 -1.5 0 -1.5 
C -0.397805 -1.5 -0.77937 -1.341951 -1.06066 -1.06066 
C -1.341951 -0.77937 -1.5 -0.397805 -1.5 0 
C -1.5 0.397805 -1.341951 0.77937 -1.06066 1.06066 
C -0.77937 1.341951 -0.397805 1.5 0 1.5 
z
" id="mea843106c0" style="stroke:#000080;"/>
    </defs>
    <g>
     <use style="fill:#000080;stroke:#000080;" x="269.586861" xlink:href="#mea843106c0" y="109.638933"/>
     <use style="fill:#000080;stroke:#000080;" x="269.586861" xlink:href="#mea843106c0" y="109.638933"/>
    </g>
   </g>
   <g id="line2d_35">
    <path d="M 17.444571 298.944 
L 17.444571 298.82927 
L 29.53256 298.82927 
L 29.53256 298.714539 
L 36.60358 298.714539 
L 36.60358 298.599809 
L 55.762588 298.599809 
L 55.762588 298.485079 
L 63.467834 298.485079 
L 63.467834 298.255618 
L 64.67102 298.255618 
L 64.67102 298.140888 
L 67.850577 298.140888 
L 67.850577 297.911427 
L 68.79347 297.911427 
L 68.79347 297.796697 
L 70.538854 297.796697 
L 70.538854 297.567236 
L 72.867545 297.567236 
L 72.867545 297.337775 
L 73.579452 297.337775 
L 73.579452 297.223045 
L 74.921597 297.223045 
L 74.921597 297.108315 
L 75.555822 297.108315 
L 75.555822 296.993584 
L 77.884514 296.993584 
L 77.884514 296.305202 
L 79.447285 296.305202 
L 79.447285 296.190472 
L 79.938565 296.190472 
L 79.938565 295.961011 
L 80.416384 295.961011 
L 80.416384 295.846281 
L 80.881459 295.846281 
L 80.881459 295.387359 
L 81.334453 295.387359 
L 81.334453 295.157899 
L 81.775977 295.157899 
L 81.775977 295.043168 
L 83.830028 295.043168 
L 83.830028 294.813708 
L 84.213325 294.813708 
L 84.213325 294.698977 
L 84.588378 294.698977 
L 84.588378 294.354786 
L 85.66744 294.354786 
L 85.66744 294.240056 
L 86.012784 294.240056 
L 86.012784 294.010595 
L 86.351421 294.010595 
L 86.351421 293.895865 
L 87.009585 293.895865 
L 87.009585 293.781135 
L 87.329581 293.781135 
L 87.329581 293.551674 
L 87.643811 293.551674 
L 87.643811 293.322213 
L 87.952479 293.322213 
L 87.952479 293.092752 
L 88.553893 293.092752 
L 88.553893 292.978022 
L 88.846997 292.978022 
L 88.846997 292.863292 
L 89.418828 292.863292 
L 89.418828 292.633831 
L 89.697862 292.633831 
L 89.697862 292.40437 
L 89.972502 292.40437 
L 89.972502 292.17491 
L 91.284345 292.17491 
L 91.284345 291.945449 
L 91.782644 291.945449 
L 91.782644 291.830719 
L 92.267099 291.830719 
L 92.267099 291.142337 
L 92.73846 291.142337 
L 92.73846 291.027606 
L 92.969447 291.027606 
L 92.969447 290.683415 
L 93.197415 290.683415 
L 93.197415 290.453955 
L 93.644601 290.453955 
L 93.644601 290.339224 
L 94.080605 290.339224 
L 94.080605 290.109764 
L 94.294587 290.109764 
L 94.294587 289.536112 
L 94.505975 289.536112 
L 94.505975 289.306651 
L 94.714831 289.306651 
L 94.714831 288.96246 
L 95.526106 288.96246 
L 95.526106 288.84773 
L 95.723163 288.84773 
L 95.723163 285.75001 
L 96.110718 285.75001 
L 96.110718 285.52055 
L 96.301313 285.52055 
L 96.301313 285.405819 
L 96.86091 285.405819 
L 96.86091 281.849179 
L 97.043522 281.849179 
L 97.043522 281.504988 
L 97.928955 281.504988 
L 97.928955 281.275527 
L 98.100772 281.275527 
L 98.100772 280.357684 
L 98.270913 280.357684 
L 98.270913 280.242954 
L 98.43941 280.242954 
L 98.43941 280.128224 
L 98.606294 280.128224 
L 98.606294 276.456853 
L 98.771596 276.456853 
L 98.771596 276.227392 
L 98.935347 276.227392 
L 98.935347 276.112662 
L 99.575392 276.112662 
L 99.575392 275.997931 
L 99.731799 275.997931 
L 99.731799 272.441291 
L 99.886816 272.441291 
L 99.886816 272.32656 
L 100.040467 272.32656 
L 100.040467 264.180706 
L 100.192776 264.180706 
L 100.192776 256.837964 
L 100.343767 256.837964 
L 100.343767 253.854975 
L 100.789049 253.854975 
L 100.789049 253.740245 
L 100.934985 253.740245 
L 100.934985 253.625514 
L 101.079711 253.625514 
L 101.079711 253.510784 
L 101.365607 253.510784 
L 101.365607 253.281323 
L 101.646892 253.281323 
L 101.646892 253.166593 
L 101.923711 253.166593 
L 101.923711 253.051863 
L 102.060491 253.051863 
L 102.060491 252.707672 
L 102.464508 252.707672 
L 102.464508 249.954143 
L 102.859376 249.954143 
L 102.859376 249.839413 
L 103.117741 249.839413 
L 103.117741 249.380492 
L 103.870632 249.380492 
L 103.870632 249.151031 
L 103.993014 249.151031 
L 103.993014 245.709121 
L 104.23523 245.709121 
L 104.23523 245.36493 
L 104.474128 245.36493 
L 104.474128 245.135469 
L 104.942325 245.135469 
L 104.942325 244.906008 
L 105.057436 244.906008 
L 105.057436 244.561817 
L 105.285403 244.561817 
L 105.285403 240.890446 
L 105.621863 240.890446 
L 105.621863 240.775716 
L 105.842616 240.775716 
L 105.842616 238.022188 
L 106.382575 238.022188 
L 106.382575 237.907457 
L 106.593963 237.907457 
L 106.698704 235.039199 
L 107.111487 235.039199 
L 107.111487 232.629861 
L 107.414787 232.629861 
L 107.514726 232.28567 
L 108.006005 232.28567 
L 108.006005 232.05621 
L 108.483824 232.05621 
L 108.483824 231.941479 
L 108.671345 231.941479 
L 108.671345 231.826749 
L 108.856871 231.826749 
L 108.856871 231.367828 
L 109.31223 231.367828 
L 109.31223 231.253097 
L 110.77713 231.253097 
L 110.859585 230.564715 
L 110.941652 230.564715 
L 111.023335 230.335255 
L 111.104637 230.335255 
L 111.185562 230.105794 
L 111.346294 230.105794 
L 111.346294 229.991063 
L 111.505558 229.991063 
L 111.505558 229.876333 
L 111.897469 229.876333 
L 111.897469 229.417412 
L 112.051799 229.417412 
L 112.128456 229.073221 
L 112.72987 229.073221 
L 112.72987 228.84376 
L 113.239614 228.84376 
L 113.311233 228.270108 
L 113.382559 228.270108 
L 113.453595 227.925917 
L 113.524343 227.925917 
L 113.524343 227.466996 
L 113.664983 227.466996 
L 113.664983 227.352266 
L 113.804498 227.352266 
L 113.804498 227.237535 
L 114.080224 227.237535 
L 114.080224 227.122805 
L 114.284194 227.122805 
L 114.284194 227.008075 
L 114.947365 227.008075 
L 114.947365 226.893344 
L 115.205729 226.893344 
L 115.205729 226.549153 
L 115.835374 226.549153 
L 115.835374 226.434423 
L 116.081002 226.434423 
L 116.081002 226.319692 
L 116.202531 226.319692 
L 116.202531 226.204962 
L 116.502698 226.204962 
L 116.502698 226.090232 
L 116.972471 226.090232 
L 116.972471 225.975501 
L 117.202696 225.975501 
L 117.202696 225.40185 
L 117.316679 225.40185 
L 117.316679 225.287119 
L 117.486268 225.287119 
L 117.486268 225.172389 
L 117.598418 225.172389 
L 117.598418 224.942928 
L 117.820578 224.942928 
L 117.820578 224.713468 
L 118.148599 224.713468 
L 118.148599 224.484007 
L 118.310324 224.484007 
L 118.310324 224.139816 
L 118.681952 224.139816 
L 118.734401 223.336704 
L 118.942633 223.336704 
L 118.942633 223.107243 
L 119.250393 223.107243 
L 119.250393 222.877782 
L 119.502775 222.877782 
L 119.502775 222.763052 
L 119.702083 222.763052 
L 119.702083 222.418861 
L 119.948058 222.418861 
L 119.948058 222.07467 
L 120.47729 222.07467 
L 120.47729 221.845209 
L 121.310093 221.845209 
L 121.400219 221.615748 
L 121.445108 221.615748 
L 121.489881 221.386288 
L 122.018385 221.386288 
L 122.018385 221.042097 
L 122.191052 221.042097 
L 122.276749 220.697906 
L 122.44689 220.697906 
L 122.531342 220.353715 
L 122.865118 220.353715 
L 122.865118 219.665333 
L 123.233135 219.665333 
L 123.233135 219.550602 
L 123.394238 219.550602 
L 123.394238 219.435872 
L 123.514096 219.435872 
L 123.514096 219.206411 
L 123.790603 219.206411 
L 123.790603 219.091681 
L 123.94666 219.091681 
L 124.024168 218.518029 
L 124.330801 218.518029 
L 124.368753 218.288568 
L 124.669438 218.288568 
L 124.669438 218.059108 
L 124.780872 218.059108 
L 124.891598 217.600186 
L 125.001625 217.600186 
L 125.001625 217.370726 
L 125.183475 217.370726 
L 125.255688 217.026535 
L 125.363449 217.026535 
L 125.399222 216.797074 
L 125.752972 216.797074 
L 125.857712 216.567613 
L 125.927192 216.567613 
L 125.961828 216.338153 
L 126.168212 216.338153 
L 126.270496 215.764501 
L 126.304457 215.764501 
L 126.304457 215.53504 
L 126.70692 215.53504 
L 126.773103 214.961388 
L 127.132689 214.961388 
L 127.197279 214.502467 
L 127.357715 214.502467 
L 127.453273 214.273006 
L 127.516689 214.273006 
L 127.611382 213.814085 
L 127.705564 213.814085 
L 127.705564 213.584624 
L 127.861412 213.584624 
L 127.923363 213.355164 
L 127.985095 213.355164 
L 128.077285 212.781512 
L 128.350967 212.781512 
L 128.350967 212.322591 
L 128.531065 212.322591 
L 128.590686 211.863669 
L 128.856489 211.863669 
L 128.91501 211.634209 
L 128.973336 211.634209 
L 128.973336 211.519478 
L 129.089405 211.519478 
L 129.089405 211.404748 
L 129.347769 211.404748 
L 129.347769 211.175287 
L 129.658437 211.175287 
L 129.742212 210.831096 
L 129.79784 210.831096 
L 129.88095 210.601635 
L 129.963666 210.601635 
L 130.045992 210.142714 
L 130.127931 210.142714 
L 130.127931 209.913253 
L 130.425122 209.913253 
L 130.531948 209.569062 
L 130.848555 209.569062 
L 130.926816 209.339602 
L 130.978796 209.339602 
L 131.082294 208.65122 
L 131.108073 208.65122 
L 131.159516 208.192298 
L 131.565689 208.192298 
L 131.590764 207.848107 
L 131.790072 207.848107 
L 131.814826 207.389186 
L 132.060454 207.389186 
L 132.133473 206.815534 
L 132.181982 206.815534 
L 132.181982 206.700804 
L 132.350712 206.700804 
L 132.350712 206.127152 
L 132.494049 206.127152 
L 132.494049 205.897691 
L 132.70687 205.897691 
L 132.777237 205.209309 
L 132.847322 205.209309 
L 132.847322 204.865118 
L 133.032848 204.865118 
L 133.0559 204.520927 
L 133.420657 204.520927 
L 133.488207 204.291467 
L 133.755823 204.291467 
L 133.844123 203.832545 
L 134.149701 203.832545 
L 134.149701 203.717815 
L 134.279041 203.717815 
L 134.321942 203.029433 
L 134.407429 203.029433 
L 134.492498 202.570511 
L 134.598256 202.570511 
L 134.598256 202.22632 
L 134.787017 202.22632 
L 134.828688 201.652669 
L 135.240011 201.652669 
L 135.240011 201.423208 
L 135.361539 201.423208 
L 135.381712 201.193747 
L 135.621981 201.193747 
L 135.721125 200.505365 
L 135.917737 200.505365 
L 135.97629 200.046444 
L 136.073445 200.046444 
L 136.150782 199.472792 
L 136.304433 199.472792 
L 136.304433 199.358062 
L 136.418789 199.358062 
L 136.494612 198.554949 
L 136.5324 198.554949 
L 136.626514 197.866567 
L 136.664018 197.866567 
L 136.664018 197.407646 
L 136.79465 197.407646 
L 136.86886 196.948725 
L 136.905847 196.948725 
L 136.942755 196.604533 
L 137.126135 196.604533 
L 137.235245 196.145612 
L 137.253364 196.145612 
L 137.271464 195.801421 
L 137.415591 195.801421 
L 137.52291 195.227769 
L 137.629572 195.227769 
L 137.68266 194.654118 
L 137.788353 194.654118 
L 137.858461 194.195196 
L 137.910857 194.195196 
L 138.01518 193.047893 
L 138.067109 193.047893 
L 138.153314 192.474241 
L 138.221972 192.474241 
L 138.324456 192.01532 
L 138.392446 192.01532 
L 138.493936 191.556398 
L 138.645071 191.556398 
L 138.745106 190.982747 
L 138.811478 190.982747 
L 138.861092 190.638556 
L 138.959898 190.638556 
L 138.959898 190.523825 
L 139.220677 190.523825 
L 139.317473 190.179634 
L 139.349619 190.179634 
L 139.445704 189.147061 
L 139.493548 189.147061 
L 139.525372 188.9176 
L 139.604677 188.9176 
L 139.715103 188.229218 
L 139.824833 188.229218 
L 139.902792 187.999758 
L 139.9494 187.999758 
L 140.026805 187.311376 
L 140.103868 187.311376 
L 140.149942 186.278803 
L 140.226464 186.278803 
L 140.302652 185.246229 
L 140.393639 185.246229 
L 140.438956 184.787308 
L 140.514223 184.787308 
L 140.604116 184.098926 
L 140.663789 184.098926 
L 140.663789 183.984196 
L 140.79731 183.984196 
L 140.900458 183.410544 
L 140.959126 183.410544 
L 140.973763 182.951623 
L 141.148448 182.951623 
L 141.177393 182.722162 
L 141.278324 182.722162 
L 141.378673 181.804319 
L 141.435758 181.804319 
L 141.506851 181.345398 
L 141.648175 181.345398 
L 141.704386 180.886476 
L 141.774395 180.886476 
L 141.774395 180.771746 
L 141.885829 180.771746 
L 141.982752 180.198094 
L 142.07914 180.198094 
L 142.174998 179.624443 
L 142.215919 179.624443 
L 142.256745 179.394982 
L 142.365148 179.394982 
L 142.432559 179.050791 
L 142.526499 179.050791 
L 142.566605 178.477139 
L 142.659828 178.477139 
L 142.712875 178.247679 
L 142.818488 178.247679 
L 142.923465 177.559296 
L 143.001786 177.559296 
L 143.001786 177.329836 
L 143.11861 177.329836 
L 143.221802 176.297263 
L 143.234658 176.297263 
L 143.234658 176.182532 
L 143.3627 176.182532 
L 143.3627 176.067802 
L 143.527762 176.067802 
L 143.615998 175.49415 
L 143.666219 175.49415 
L 143.728793 174.691038 
L 143.816021 174.691038 
L 143.890442 174.461577 
L 143.989178 174.461577 
L 144.050606 173.429004 
L 144.172816 173.429004 
L 144.257856 172.970083 
L 144.306265 172.970083 
L 144.306265 172.855352 
L 144.426702 172.855352 
L 144.522457 172.625892 
L 144.605813 172.625892 
L 144.605813 172.511161 
L 144.736002 172.511161 
L 144.830078 172.281701 
L 144.900303 172.281701 
L 145.005114 171.93751 
L 145.097753 171.93751 
L 145.097753 171.822779 
L 145.224334 171.822779 
L 145.224334 171.708049 
L 145.677034 171.708049 
L 145.677034 171.249128 
L 145.821666 171.249128 
L 145.821666 171.134397 
L 146.927079 171.134397 
L 146.927079 171.019667 
L 147.378739 171.019667 
L 147.378739 170.904937 
L 152.291531 170.904937 
L 152.291531 170.790206 
L 154.621179 170.790206 
L 154.621179 170.675476 
L 155.450689 170.675476 
L 155.546107 170.446015 
L 155.735392 170.446015 
L 155.735392 170.331285 
L 155.879132 170.331285 
L 155.879132 170.216554 
L 156.156981 170.216554 
L 156.193695 169.987094 
L 156.723476 169.987094 
L 156.788581 169.642903 
L 157.231877 169.642903 
L 157.26065 169.413442 
L 157.720277 169.413442 
L 157.720277 169.298712 
L 158.179014 169.298712 
L 158.179014 169.183981 
L 158.594062 169.183981 
L 158.594062 169.069251 
L 158.868869 169.069251 
L 158.910765 168.83979 
L 159.298723 168.83979 
L 159.390562 168.61033 
L 159.415988 168.61033 
L 159.415988 168.495599 
L 159.728221 168.495599 
L 159.733212 168.266139 
L 159.926735 168.266139 
L 159.926735 168.151408 
L 160.059466 168.151408 
L 160.142522 167.921948 
L 160.249422 167.921948 
L 160.249422 167.807217 
L 160.547209 167.807217 
L 160.547209 167.577757 
L 160.698938 167.577757 
L 160.698938 167.463026 
L 160.811875 167.463026 
L 160.844678 167.233566 
L 160.924085 167.233566 
L 160.928745 167.004105 
L 161.081824 167.004105 
L 161.187726 166.430453 
L 161.356752 166.430453 
L 161.406689 165.856801 
L 161.506136 165.856801 
L 161.6095 165.28315 
L 161.64531 165.28315 
L 161.7078 164.594768 
L 161.871884 164.594768 
L 161.876297 164.365307 
L 162.051921 164.365307 
L 162.126028 163.906386 
L 162.19549 163.906386 
L 162.290551 163.447464 
L 162.38081 163.447464 
L 162.487656 162.873812 
L 162.53871 162.873812 
L 162.568423 162.414891 
L 162.661478 162.414891 
L 162.661478 162.300161 
L 163.004009 162.300161 
L 163.078306 161.726509 
L 163.119446 161.726509 
L 163.225959 161.152857 
L 163.262677 161.152857 
L 163.331824 160.923397 
L 163.388564 160.923397 
L 163.489428 160.464475 
L 163.58171 160.464475 
L 163.66156 160.005554 
L 163.741046 160.005554 
L 163.776697 159.661363 
L 163.859601 159.661363 
L 163.930348 159.202441 
L 163.989086 159.202441 
L 164.094319 158.74352 
L 164.15638 158.74352 
L 164.15638 158.62879 
L 164.318249 158.62879 
L 164.421519 158.169868 
L 164.444386 158.169868 
L 164.53934 157.710947 
L 164.63378 157.710947 
L 164.735204 157.252026 
L 164.761403 157.252026 
L 164.813684 156.678374 
L 164.8881 156.678374 
L 164.999131 156.334183 
L 165.021253 156.334183 
L 165.09479 155.41634 
L 165.222738 155.41634 
L 165.309935 154.842688 
L 165.35337 154.842688 
L 165.414719 154.269037 
L 165.46508 154.269037 
L 165.529617 153.810115 
L 165.629535 153.810115 
L 165.735959 153.351194 
L 165.753633 153.351194 
L 165.813593 152.433351 
L 165.887376 152.433351 
L 165.992243 151.400778 
L 166.020101 151.400778 
L 166.120716 150.138744 
L 166.141461 150.138744 
L 166.182876 149.794553 
L 166.255117 149.794553 
L 166.32706 148.876711 
L 166.368037 148.876711 
L 166.446309 148.188328 
L 166.500553 148.188328 
L 166.581603 147.270486 
L 166.621987 147.270486 
L 166.725883 145.090609 
L 166.799241 145.090609 
L 166.908703 143.828575 
L 166.918621 143.828575 
L 167.020769 142.222351 
L 167.04047 142.222351 
L 167.145172 140.730856 
L 167.197288 140.730856 
L 167.304287 139.239362 
L 167.313982 139.239362 
L 167.407422 137.747867 
L 167.429901 137.747867 
L 167.532297 135.682721 
L 167.548242 135.682721 
L 167.592812 134.879609 
L 167.678446 134.879609 
L 167.769958 133.732305 
L 167.801403 133.732305 
L 167.801403 133.617575 
L 167.917258 133.617575 
L 168.023045 132.470271 
L 168.047843 132.470271 
L 168.149765 130.864047 
L 168.177458 130.864047 
L 168.287795 128.339979 
L 168.29085 128.339979 
L 168.391365 126.733754 
L 168.42171 126.733754 
L 168.530517 125.127529 
L 168.542565 125.127529 
L 168.644637 124.553878 
L 168.659597 124.553878 
L 168.758015 123.291844 
L 168.78476 123.291844 
L 168.891332 121.800349 
L 168.900184 121.800349 
L 168.994323 120.194125 
L 169.032423 120.194125 
L 169.137496 118.817361 
L 169.163666 118.817361 
L 169.265066 117.555327 
L 169.291045 117.555327 
L 169.340012 116.981675 
L 169.423227 116.981675 
L 169.525979 116.178563 
L 169.534515 116.178563 
L 169.636615 115.604911 
L 169.647923 115.604911 
L 169.754982 114.916529 
L 169.76902 114.916529 
L 169.878129 114.228147 
L 169.931039 114.228147 
L 170.011487 113.769225 
L 170.105336 113.769225 
L 170.105336 113.654495 
L 170.324185 113.654495 
L 170.378471 113.310304 
L 170.607318 113.310304 
L 170.679387 113.080843 
L 170.719297 113.080843 
L 170.719297 112.966113 
L 218.396622 112.966113 
L 218.463827 111.589349 
L 218.519634 111.589349 
L 218.519634 111.474619 
L 230.378626 111.474619 
L 230.456186 110.671506 
L 237.440437 110.671506 
L 237.440437 110.556776 
L 242.449627 110.556776 
L 242.449627 110.442045 
L 249.492587 110.442045 
L 249.5075 110.212585 
L 252.19034 110.212585 
L 252.19034 110.097854 
L 254.516825 110.097854 
L 254.516825 109.983124 
L 256.565638 109.983124 
L 256.565638 109.868394 
L 267.649138 109.868394 
L 267.649138 109.753663 
L 269.586861 109.753663 
L 269.586861 109.638933 
L 338.688 109.638933 
L 338.688 109.638933 
" style="fill:none;stroke:#000080;stroke-linecap:square;stroke-width:1.5;"/>
   </g>
   <g id="line2d_36">
    <defs>
     <path d="M 0 6 
C 1.591219 6 3.117479 5.367802 4.242641 4.242641 
C 5.367802 3.117479 6 1.591219 6 0 
C 6 -1.591219 5.367802 -3.117479 4.242641 -4.242641 
C 3.117479 -5.367802 1.591219 -6 0 -6 
C -1.591219 -6 -3.117479 -5.367802 -4.242641 -4.242641 
C -5.367802 -3.117479 -6 -1.591219 -6 0 
C -6 1.591219 -5.367802 3.117479 -4.242641 4.242641 
C -3.117479 5.367802 -1.591219 6 0 6 
z
" id="m4c2d230754" style="stroke:#000080;stroke-width:1.5;"/>
    </defs>
    <g>
     <use style="fill-opacity:0;stroke:#000080;stroke-width:1.5;" x="79.938565" xlink:href="#m4c2d230754" y="296.190472"/>
     <use style="fill-opacity:0;stroke:#000080;stroke-width:1.5;" x="129.742212" xlink:href="#m4c2d230754" y="210.831096"/>
     <use style="fill-opacity:0;stroke:#000080;stroke-width:1.5;" x="169.183993" xlink:href="#m4c2d230754" y="118.128978"/>
     <use style="fill-opacity:0;stroke:#000080;stroke-width:1.5;" x="256.565638" xlink:href="#m4c2d230754" y="109.868394"/>
     <use style="fill-opacity:0;stroke:#000080;stroke-width:1.5;" x="269.586861" xlink:href="#m4c2d230754" y="109.638933"/>
     <use style="fill-opacity:0;stroke:#000080;stroke-width:1.5;" x="338.688" xlink:href="#m4c2d230754" y="109.638933"/>
    </g>
   </g>
   <g id="line2d_37">
    <path style="fill:none;stroke:#000080;stroke-linecap:square;stroke-width:1.5;"/>
    <g/>
   </g>
   <g id="line2d_38">
    <path clip-path="url(#paefe3607cc)" d="M 218.222761 112.966113 
" style="fill:none;stroke:#000080;stroke-linecap:square;stroke-width:1.5;"/>
    <defs>
     <path d="M -12 12 
L 12 -12 
M -12 -12 
L 12 12 
" id="m0997eb57da" style="stroke:#000080;"/>
    </defs>
    <g clip-path="url(#paefe3607cc)">
     <use style="fill:#000080;stroke:#000080;" x="218.222761" xlink:href="#m0997eb57da" y="112.966113"/>
    </g>
   </g>
   <g id="line2d_39">
    <defs>
     <path d="M 0 1.5 
C 0.397805 1.5 0.77937 1.341951 1.06066 1.06066 
C 1.341951 0.77937 1.5 0.397805 1.5 0 
C 1.5 -0.397805 1.341951 -0.77937 1.06066 -1.06066 
C 0.77937 -1.341951 0.397805 -1.5 0 -1.5 
C -0.397805 -1.5 -0.77937 -1.341951 -1.06066 -1.06066 
C -1.341951 -0.77937 -1.5 -0.397805 -1.5 0 
C -1.5 0.397805 -1.341951 0.77937 -1.06066 1.06066 
C -0.77937 1.341951 -0.397805 1.5 0 1.5 
z
" id="m0b7f583643" style="stroke:#ff00ff;"/>
    </defs>
    <g>
     <use style="fill:#ff00ff;stroke:#ff00ff;" x="273.110565" xlink:href="#m0b7f583643" y="100.460506"/>
     <use style="fill:#ff00ff;stroke:#ff00ff;" x="273.110565" xlink:href="#m0b7f583643" y="100.460506"/>
    </g>
   </g>
   <g id="line2d_40">
    <path d="M 17.444571 298.944 
L 17.444571 298.485079 
L 29.53256 298.485079 
L 29.53256 297.911427 
L 36.60358 297.911427 
L 36.60358 297.681966 
L 41.620548 297.681966 
L 41.620548 297.223045 
L 48.691568 297.223045 
L 48.691568 297.108315 
L 51.379845 297.108315 
L 51.379845 296.993584 
L 59.262141 296.993584 
L 59.262141 296.878854 
L 70.538854 296.878854 
L 70.538854 296.764123 
L 75.555822 296.764123 
L 75.555822 296.649393 
L 76.16779 296.649393 
L 76.16779 296.534663 
L 81.775977 296.534663 
L 81.775977 296.419932 
L 84.213325 296.419932 
L 84.213325 296.305202 
L 85.315119 296.305202 
L 85.315119 296.190472 
L 86.012784 296.190472 
L 86.012784 296.075741 
L 86.351421 296.075741 
L 86.351421 295.961011 
L 86.683608 295.961011 
L 86.683608 295.846281 
L 87.329581 295.846281 
L 87.329581 295.73155 
L 87.643811 295.73155 
L 87.643811 295.61682 
L 87.952479 295.61682 
L 87.952479 295.50209 
L 89.972502 295.50209 
L 89.972502 295.157899 
L 91.535274 295.157899 
L 91.535274 294.928438 
L 93.197415 294.928438 
L 93.197415 294.813708 
L 93.644601 294.813708 
L 93.644601 294.698977 
L 94.080605 294.698977 
L 94.080605 294.469517 
L 94.294587 294.469517 
L 94.294587 294.354786 
L 94.921215 294.354786 
L 94.921215 294.240056 
L 95.723163 294.240056 
L 95.723163 293.895865 
L 96.110718 293.895865 
L 96.110718 293.781135 
L 96.676366 293.781135 
L 96.676366 293.666404 
L 98.100772 293.666404 
L 98.100772 293.436944 
L 98.270913 293.436944 
L 98.270913 293.322213 
L 98.43941 293.322213 
L 98.43941 293.207483 
L 98.771596 293.207483 
L 98.771596 293.092752 
L 98.935347 293.092752 
L 98.935347 292.978022 
L 99.097574 292.978022 
L 99.097574 292.863292 
L 99.258306 292.863292 
L 99.258306 292.748561 
L 99.731799 292.748561 
L 99.731799 292.633831 
L 99.886816 292.633831 
L 99.886816 292.519101 
L 100.343767 292.519101 
L 100.343767 292.28964 
L 101.223245 292.28964 
L 101.223245 292.17491 
L 101.365607 292.17491 
L 101.365607 292.060179 
L 102.196206 292.060179 
L 102.196206 291.945449 
L 102.989037 291.945449 
L 102.989037 291.830719 
L 103.245502 291.830719 
L 103.245502 291.715988 
L 104.114542 291.715988 
L 104.114542 291.601258 
L 104.709797 291.601258 
L 104.709797 291.486528 
L 105.057436 291.486528 
L 105.057436 291.371797 
L 105.171792 291.371797 
L 105.171792 290.912876 
L 105.285403 290.912876 
L 105.285403 290.683415 
L 105.398279 290.683415 
L 105.398279 290.339224 
L 105.951954 290.339224 
L 105.951954 290.109764 
L 106.48859 290.109764 
L 106.593963 289.880303 
L 107.414787 289.880303 
L 107.514726 289.650842 
L 107.614095 289.650842 
L 107.712901 289.421381 
L 108.102622 289.421381 
L 108.102622 289.191921 
L 108.856871 289.191921 
L 108.856871 289.07719 
L 109.31223 289.07719 
L 109.31223 288.96246 
L 110.016944 288.96246 
L 110.103064 288.159348 
L 110.188761 288.159348 
L 110.188761 287.929887 
L 110.358901 287.929887 
L 110.443353 287.585696 
L 110.941652 287.585696 
L 110.941652 286.667853 
L 111.104637 286.667853 
L 111.104637 286.553123 
L 111.426108 286.553123 
L 111.426108 286.438393 
L 111.663381 286.438393 
L 111.74176 286.208932 
L 111.974805 286.208932 
L 111.974805 286.094202 
L 112.356423 286.094202 
L 112.431755 285.864741 
L 112.877038 285.864741 
L 112.950158 285.63528 
L 113.453595 285.63528 
L 113.453595 285.52055 
L 113.73488 285.52055 
L 113.73488 285.405819 
L 113.873839 285.405819 
L 113.942906 284.717437 
L 114.0117 284.717437 
L 114.080224 284.143786 
L 114.148479 284.143786 
L 114.148479 284.029055 
L 114.351658 284.029055 
L 114.351658 283.455404 
L 114.618932 283.455404 
L 114.685115 277.604156 
L 114.751048 277.604156 
L 114.751048 277.489426 
L 115.012316 277.489426 
L 115.077025 274.276976 
L 115.586238 274.276976 
L 115.586238 274.162246 
L 115.897107 274.162246 
L 115.897107 274.047515 
L 116.019919 274.047515 
L 116.019919 273.818055 
L 116.262979 273.818055 
L 116.262979 273.588594 
L 116.739166 273.588594 
L 116.797786 273.244403 
L 116.972471 273.244403 
L 117.030313 272.441291 
L 117.087964 272.441291 
L 117.145424 271.408718 
L 117.202696 271.408718 
L 117.202696 271.179257 
L 117.316679 271.179257 
L 117.373392 270.605605 
L 117.654224 270.605605 
L 117.765302 269.802493 
L 117.875678 269.802493 
L 117.930605 267.393156 
L 118.094355 267.393156 
L 118.202674 267.163695 
L 118.363901 267.163695 
L 118.363901 263.951245 
L 118.681952 263.951245 
L 118.681952 263.836515 
L 118.838828 263.836515 
L 118.890808 263.607054 
L 119.502775 263.607054 
L 119.502775 263.492324 
L 119.65247 263.492324 
L 119.751557 259.362031 
L 119.948058 259.362031 
L 120.045484 259.01784 
L 120.093994 259.01784 
L 120.142369 255.805391 
L 120.47729 255.805391 
L 120.47729 255.69066 
L 120.852343 255.69066 
L 120.852343 255.57593 
L 121.036887 255.57593 
L 121.036887 255.4612 
L 121.310093 255.4612 
L 121.310093 255.231739 
L 121.53454 255.231739 
L 121.53454 255.117009 
L 121.84399 255.117009 
L 121.931406 254.887548 
L 121.974949 254.887548 
L 122.061712 251.789829 
L 122.104932 251.789829 
L 122.104932 251.675098 
L 122.233953 251.675098 
L 122.276749 251.445638 
L 122.489167 251.445638 
L 122.573415 248.233188 
L 122.615387 248.233188 
L 122.615387 246.512233 
L 122.906394 246.512233 
L 122.947573 246.282772 
L 124.024168 246.282772 
L 124.101333 243.758705 
L 124.743806 243.758705 
L 124.817858 243.414514 
L 124.965026 243.414514 
L 124.965026 241.005176 
L 125.787955 241.005176 
L 125.857712 240.775716 
L 125.961828 240.775716 
L 125.961828 240.660985 
L 126.133984 240.660985 
L 126.133984 240.546255 
L 126.70692 240.546255 
L 126.740043 238.022188 
L 127.067859 238.022188 
L 127.165014 237.792727 
L 127.736845 237.792727 
L 127.736845 237.677997 
L 128.168991 237.677997 
L 128.168991 237.563266 
L 128.350967 237.563266 
L 128.350967 236.989614 
L 128.590686 236.989614 
L 128.679738 236.645423 
L 129.175952 236.645423 
L 129.175952 236.415963 
L 129.489668 236.415963 
L 129.489668 233.318243 
L 129.79784 233.318243 
L 129.79784 233.203513 
L 130.073348 233.203513 
L 130.182344 232.974052 
L 130.209487 232.974052 
L 130.317637 232.629861 
L 130.371462 232.629861 
L 130.425122 232.28567 
L 130.531948 232.28567 
L 130.531948 232.17094 
L 130.69097 232.17094 
L 130.69097 232.05621 
L 130.952826 232.05621 
L 130.952826 231.941479 
L 131.590764 231.941479 
L 131.590764 231.826749 
L 132.036046 231.826749 
L 132.036046 231.597288 
L 132.278599 231.597288 
L 132.278599 231.482558 
L 132.777237 231.482558 
L 132.80063 231.138367 
L 132.917126 231.138367 
L 132.917126 231.023637 
L 135.602085 231.023637 
L 135.602085 230.908906 
L 135.721125 230.908906 
L 135.721125 230.794176 
L 137.126135 230.794176 
L 137.126135 230.679446 
L 137.415591 230.679446 
L 137.451437 230.449985 
L 137.629572 230.449985 
L 137.629572 230.335255 
L 138.221972 230.335255 
L 138.221972 230.220524 
L 138.811478 230.220524 
L 138.811478 230.105794 
L 139.204493 230.105794 
L 139.220677 229.876333 
L 139.397728 229.876333 
L 139.397728 229.761603 
L 140.134598 229.761603 
L 140.241728 229.302681 
L 140.499195 229.302681 
L 140.499195 229.187951 
L 140.944478 229.187951 
L 140.944478 229.073221 
L 141.732423 229.073221 
L 141.830201 228.614299 
L 141.996555 228.614299 
L 141.996555 228.499569 
L 142.120287 228.499569 
L 142.120287 228.384839 
L 142.351634 228.384839 
L 142.392144 228.040648 
L 142.739338 228.040648 
L 142.739338 227.925917 
L 142.871056 227.925917 
L 142.871056 227.811187 
L 143.092717 227.811187 
L 143.196061 227.581726 
L 143.40093 227.581726 
L 143.40093 227.466996 
L 143.703791 227.466996 
L 143.703791 227.352266 
L 144.366588 227.352266 
L 144.366588 227.122805 
L 144.510517 227.122805 
L 144.510517 227.008075 
L 144.946964 227.008075 
L 145.051495 226.663884 
L 145.76618 226.663884 
L 145.76618 226.434423 
L 145.943118 226.434423 
L 146.041862 226.204962 
L 146.216039 226.204962 
L 146.216039 226.090232 
L 146.334784 226.090232 
L 146.367029 225.860771 
L 146.675697 225.860771 
L 146.675697 225.746041 
L 146.791364 225.746041 
L 146.791364 225.63131 
L 146.947864 225.63131 
L 147.041095 225.287119 
L 147.459617 225.287119 
L 147.459617 225.172389 
L 147.670154 225.172389 
L 147.779429 224.942928 
L 147.848613 224.942928 
L 147.927346 224.713468 
L 148.025265 224.713468 
L 148.025265 224.598737 
L 148.258051 224.598737 
L 148.258051 224.484007 
L 148.411533 224.484007 
L 148.497276 224.254546 
L 148.78943 224.254546 
L 148.78943 224.139816 
L 148.901221 224.139816 
L 148.901221 224.025086 
L 149.113504 224.025086 
L 149.113504 223.910355 
L 149.65542 223.910355 
L 149.690956 223.680895 
L 149.83238 223.680895 
L 149.83238 223.566164 
L 150.206871 223.566164 
L 150.301393 223.336704 
L 150.488914 223.336704 
L 150.488914 223.221973 
L 150.891184 223.221973 
L 150.891184 223.107243 
L 151.047887 223.107243 
L 151.047887 222.877782 
L 151.243836 222.877782 
L 151.268175 222.533591 
L 151.405461 222.533591 
L 151.405461 222.418861 
L 151.541675 222.418861 
L 151.541675 222.30413 
L 151.660987 222.30413 
L 151.660987 222.1894 
L 151.795227 222.1894 
L 151.795227 222.07467 
L 151.936246 222.07467 
L 152.0141 221.730479 
L 152.291531 221.730479 
L 152.314453 221.271557 
L 152.594699 221.271557 
L 152.594699 221.042097 
L 153.171135 221.042097 
L 153.171135 220.927366 
L 153.287059 220.927366 
L 153.395042 220.468445 
L 153.402218 220.468445 
L 153.402218 220.353715 
L 154.015422 220.353715 
L 154.043103 220.124254 
L 154.269814 220.124254 
L 154.351528 219.894793 
L 154.439623 219.894793 
L 154.439623 219.780063 
L 154.634552 219.780063 
L 154.634552 219.550602 
L 155.004911 219.550602 
L 155.004911 219.435872 
L 155.245367 219.435872 
L 155.277608 219.206411 
L 155.361158 219.206411 
L 155.418766 218.97695 
L 155.729115 218.97695 
L 155.729115 218.74749 
L 155.841748 218.74749 
L 155.841748 218.632759 
L 156.034038 218.632759 
L 156.138594 218.288568 
L 156.658127 218.288568 
L 156.658127 218.173838 
L 156.888722 218.173838 
L 156.888722 218.059108 
L 157.249147 218.059108 
L 157.249147 217.944377 
L 157.403807 217.944377 
L 157.403807 217.829647 
L 157.60791 217.829647 
L 157.641697 217.600186 
L 157.725877 217.600186 
L 157.792929 217.255995 
L 157.94839 217.255995 
L 158.053098 216.911804 
L 158.064083 216.911804 
L 158.064083 216.682344 
L 158.217157 216.682344 
L 158.293192 216.338153 
L 158.385078 216.338153 
L 158.476481 215.993962 
L 158.588735 215.993962 
L 158.631308 215.649771 
L 158.811096 215.649771 
L 158.811096 215.53504 
L 159.51732 215.53504 
L 159.537516 215.190849 
L 160.079044 215.190849 
L 160.079044 215.076119 
L 160.302628 215.076119 
L 160.302628 214.961388 
L 160.442124 214.961388 
L 160.513841 214.617197 
L 160.618496 214.617197 
L 160.618496 214.502467 
L 160.797798 214.502467 
L 160.811875 214.158276 
L 160.984566 214.158276 
L 161.086442 213.928815 
L 161.104901 213.928815 
L 161.104901 213.814085 
L 161.315788 213.814085 
L 161.315788 213.699355 
L 161.429341 213.699355 
L 161.497119 213.355164 
L 161.542158 213.355164 
L 161.542158 213.125703 
L 161.783382 213.125703 
L 161.880709 212.896242 
L 162.030064 212.896242 
L 162.030064 212.781512 
L 162.165135 212.781512 
L 162.221468 212.552051 
L 162.316387 212.552051 
L 162.316387 212.437321 
L 162.440724 212.437321 
L 162.440724 212.322591 
L 162.653039 212.322591 
L 162.745644 211.863669 
L 162.90029 211.863669 
L 162.9543 211.060557 
L 163.065945 211.060557 
L 163.172784 210.601635 
L 163.180975 210.601635 
L 163.234125 210.257444 
L 163.311515 210.257444 
L 163.412824 210.027984 
L 163.569701 210.027984 
L 163.569701 209.913253 
L 163.922502 209.913253 
L 163.922502 209.683793 
L 164.287532 209.683793 
L 164.394804 209.110141 
L 164.436767 209.110141 
L 164.531763 208.88068 
L 164.596065 208.88068 
L 164.652607 208.65122 
L 164.802494 208.65122 
L 164.865808 208.307029 
L 164.928893 208.307029 
L 165.010195 208.077568 
L 165.050705 208.077568 
L 165.116791 207.848107 
L 165.171671 207.848107 
L 165.171671 207.733377 
L 165.284547 207.733377 
L 165.364212 207.159725 
L 165.421922 207.159725 
L 165.486619 206.815534 
L 165.558223 206.815534 
L 165.558223 206.700804 
L 165.834706 206.700804 
L 165.897891 206.471343 
L 166.00966 206.471343 
L 166.065276 205.897691 
L 166.169082 205.897691 
L 166.169082 205.782961 
L 166.34073 205.782961 
L 166.449704 205.32404 
L 166.470061 205.32404 
L 166.547878 204.865118 
L 166.618625 204.865118 
L 166.618625 204.750388 
L 166.915315 204.750388 
L 167.010909 204.406197 
L 167.161475 204.406197 
L 167.233027 204.062006 
L 167.301055 204.062006 
L 167.352708 203.603084 
L 167.43311 203.603084 
L 167.509949 203.258893 
L 167.55143 203.258893 
L 167.653117 202.914702 
L 167.826518 202.914702 
L 167.935973 202.685242 
L 167.96712 202.685242 
L 168.060229 202.341051 
L 168.088065 202.341051 
L 168.198967 201.767399 
L 168.251094 201.767399 
L 168.31222 201.537938 
L 168.430803 201.537938 
L 168.430803 201.193747 
L 168.644637 201.193747 
L 168.749091 200.849556 
L 168.802567 200.849556 
L 168.911979 200.505365 
L 168.938489 200.505365 
L 168.973774 200.046444 
L 169.0792 200.046444 
L 169.181091 199.816983 
L 169.227472 199.816983 
L 169.322745 198.66968 
L 169.385973 198.66968 
L 169.460402 198.440219 
L 169.500348 198.440219 
L 169.602648 198.096028 
L 169.650749 198.096028 
L 169.754982 197.751837 
L 169.850217 197.751837 
L 169.892068 197.522376 
L 169.964373 197.522376 
L 170.075029 196.833994 
L 170.091567 196.833994 
L 170.190466 195.801421 
L 170.23151 195.801421 
L 170.267003 195.3425 
L 170.348634 195.3425 
L 170.348634 195.227769 
L 170.636716 195.227769 
L 170.735235 194.539387 
L 170.806779 194.539387 
L 170.896454 194.309927 
L 170.993522 194.309927 
L 171.103055 193.851005 
L 171.178286 193.851005 
L 171.268652 193.392084 
L 171.350865 193.392084 
L 171.45054 192.933162 
L 171.509057 192.933162 
L 171.52429 192.703702 
L 171.668344 192.703702 
L 171.763723 192.13005 
L 171.831177 192.13005 
L 171.868539 191.671129 
L 171.950454 191.671129 
L 171.982619 190.982747 
L 172.152351 190.982747 
L 172.157246 190.753286 
L 172.354358 190.753286 
L 172.441252 190.294365 
L 172.479734 190.294365 
L 172.585122 189.950174 
L 172.742019 189.950174 
L 172.782205 189.720713 
L 172.895172 189.720713 
L 173.000419 189.376522 
L 173.012074 189.376522 
L 173.012074 189.261791 
L 173.146705 189.261791 
L 173.220541 188.343949 
L 173.307818 188.343949 
L 173.415166 187.770297 
L 173.623398 187.770297 
L 173.67507 187.426106 
L 173.737769 187.426106 
L 173.820277 186.852454 
L 173.87137 186.852454 
L 173.926737 186.393533 
L 174.054514 186.393533 
L 174.128984 186.164072 
L 174.18354 186.164072 
L 174.272644 185.934612 
L 174.313782 185.934612 
L 174.402224 185.246229 
L 174.560725 185.246229 
L 174.660652 184.443117 
L 174.696655 184.443117 
L 174.785287 183.754735 
L 174.827334 183.754735 
L 174.923661 183.410544 
L 174.973708 183.410544 
L 175.036065 182.836892 
L 175.096133 182.836892 
L 175.122993 182.492701 
L 175.217705 182.492701 
L 175.311905 182.03378 
L 175.362888 182.03378 
L 175.446179 181.115937 
L 175.621612 181.115937 
L 175.621612 181.001207 
L 175.838945 181.001207 
L 175.941681 180.542285 
L 175.9594 180.542285 
L 176.008528 180.083364 
L 176.086845 180.083364 
L 176.180364 179.624443 
L 176.215305 179.624443 
L 176.215305 179.509712 
L 176.329344 179.509712 
L 176.348599 179.280252 
L 176.46942 179.280252 
L 176.547601 178.936061 
L 176.595102 178.936061 
L 176.661386 178.362409 
L 176.714232 178.362409 
L 176.811953 177.903487 
L 176.845652 177.903487 
L 176.894213 177.559296 
L 176.977944 177.559296 
L 177.088964 176.870914 
L 177.153401 176.870914 
L 177.235899 176.526723 
L 177.328929 176.526723 
L 177.399735 176.182532 
L 177.488292 176.182532 
L 177.579988 175.723611 
L 177.601493 175.723611 
L 177.62655 175.26469 
L 177.726417 175.26469 
L 177.792089 174.920499 
L 177.8681 174.920499 
L 177.936755 174.461577 
L 177.980623 174.461577 
L 178.064542 173.658465 
L 178.184471 173.658465 
L 178.243265 173.314274 
L 178.300141 173.314274 
L 178.401368 172.625892 
L 178.413339 172.625892 
L 178.495206 171.93751 
L 178.585156 171.93751 
L 178.608839 171.478588 
L 178.731812 171.478588 
L 178.842251 170.904937 
L 178.857257 170.904937 
L 178.877244 170.446015 
L 178.980151 170.446015 
L 179.080808 169.757633 
L 179.141581 169.757633 
L 179.236422 169.183981 
L 179.350203 169.183981 
L 179.434248 168.72506 
L 179.485767 168.72506 
L 179.588351 168.266139 
L 179.730012 168.266139 
L 179.818561 167.692487 
L 179.881535 167.692487 
L 179.923915 167.118835 
L 180.072216 167.118835 
L 180.176054 166.086262 
L 180.199217 166.086262 
L 180.276205 165.627341 
L 180.345204 165.627341 
L 180.429168 165.168419 
L 180.473278 165.168419 
L 180.473278 165.053689 
L 180.610971 165.053689 
L 180.699667 164.365307 
L 180.747586 164.365307 
L 180.848977 163.676925 
L 180.924636 163.676925 
L 180.963081 163.218003 
L 181.070572 163.218003 
L 181.101372 162.873812 
L 181.280686 162.873812 
L 181.381918 162.0707 
L 181.396332 162.0707 
L 181.496896 161.611779 
L 181.511216 161.611779 
L 181.616813 160.579206 
L 181.686386 160.579206 
L 181.757093 160.005554 
L 181.803604 160.005554 
L 181.893454 159.661363 
L 181.942395 159.661363 
L 182.003728 159.087711 
L 182.143703 159.087711 
L 182.229075 158.514059 
L 182.263381 158.514059 
L 182.37271 157.596217 
L 182.375435 157.596217 
L 182.448835 157.137295 
L 182.525979 157.137295 
L 182.616223 156.793104 
L 182.643071 156.793104 
L 182.752719 156.219453 
L 182.776696 156.219453 
L 182.882864 155.760531 
L 182.914588 155.760531 
L 183.005476 155.41634 
L 183.054019 155.41634 
L 183.163725 155.072149 
L 183.168932 155.072149 
L 183.268863 154.842688 
L 183.286971 154.842688 
L 183.342471 154.383767 
L 183.402933 154.383767 
L 183.402933 154.269037 
L 183.532156 154.269037 
L 183.621158 153.695385 
L 183.676871 153.695385 
L 183.755074 153.236464 
L 183.810361 153.236464 
L 183.906693 152.433351 
L 184.01118 152.433351 
L 184.121208 151.859699 
L 184.123672 151.859699 
L 184.218294 151.400778 
L 184.274578 151.400778 
L 184.373246 150.712396 
L 184.424188 150.712396 
L 184.515993 149.909284 
L 184.5521 149.909284 
L 184.658777 149.106171 
L 184.754113 149.106171 
L 184.754113 148.991441 
L 184.877275 148.991441 
L 184.956162 148.53252 
L 184.998402 148.53252 
L 185.027676 148.303059 
L 185.152413 148.303059 
L 185.261264 147.614677 
L 185.306227 147.614677 
L 185.367146 147.041025 
L 185.478089 147.041025 
L 185.567927 146.237913 
L 185.598525 146.237913 
L 185.670841 145.893722 
L 185.737242 145.893722 
L 185.793317 145.664261 
L 185.879321 145.664261 
L 185.960468 144.861149 
L 186.045654 144.861149 
L 186.143599 144.172766 
L 186.236633 144.172766 
L 186.276975 143.943306 
L 186.350875 143.943306 
L 186.406095 143.599115 
L 186.507417 143.599115 
L 186.599604 143.254924 
L 186.666828 143.254924 
L 186.768769 142.796002 
L 186.907972 142.796002 
L 186.999115 142.451811 
L 187.034606 142.451811 
L 187.087706 142.10762 
L 187.145826 142.10762 
L 187.249134 141.763429 
L 187.287203 141.763429 
L 187.370255 140.845586 
L 187.406019 140.845586 
L 187.476312 140.386665 
L 187.580718 140.386665 
L 187.674454 139.927744 
L 187.730654 139.927744 
L 187.828572 139.583553 
L 187.851473 139.583553 
L 187.958609 138.895171 
L 188.035578 138.895171 
L 188.141592 138.55098 
L 188.250856 138.55098 
L 188.340099 137.747867 
L 188.414443 137.747867 
L 188.49902 137.403676 
L 188.536373 137.403676 
L 188.590821 137.174215 
L 188.679295 137.174215 
L 188.774874 136.830024 
L 188.827643 136.830024 
L 188.917735 136.256373 
L 188.984999 136.256373 
L 189.080776 135.567991 
L 189.127081 135.567991 
L 189.131705 135.2238 
L 189.278104 135.2238 
L 189.378671 134.879609 
L 189.519403 134.879609 
L 189.6033 134.305957 
L 189.644649 134.305957 
L 189.644649 134.191227 
L 189.759193 134.191227 
L 189.835732 133.273384 
L 190.035282 133.273384 
L 190.094005 132.929193 
L 190.155146 132.929193 
L 190.207383 132.699732 
L 190.285446 132.699732 
L 190.387269 132.01135 
L 190.418216 132.01135 
L 190.526952 131.667159 
L 190.643495 131.667159 
L 190.643495 131.552429 
L 190.801325 131.552429 
L 190.87929 130.978777 
L 190.918559 130.978777 
L 191.0234 130.519856 
L 191.044127 130.519856 
L 191.130912 130.060934 
L 191.209883 130.060934 
L 191.270513 129.487282 
L 191.338267 129.487282 
L 191.409816 128.7989 
L 191.457622 128.7989 
L 191.535936 128.454709 
L 191.63634 128.454709 
L 191.664349 128.110518 
L 191.83147 128.110518 
L 191.83147 127.881058 
L 191.956161 127.881058 
L 192.061999 127.422136 
L 192.106494 127.422136 
L 192.106494 127.307406 
L 192.273311 127.307406 
L 192.273311 127.077945 
L 192.409457 127.077945 
L 192.409457 126.963215 
L 192.610567 126.963215 
L 192.610567 126.848485 
L 192.744867 126.848485 
L 192.815375 126.504294 
L 192.900503 126.504294 
L 192.900503 126.389563 
L 193.065833 126.389563 
L 193.103425 126.160103 
L 193.32002 126.160103 
L 193.383173 125.930642 
L 193.455481 125.930642 
L 193.526053 125.701181 
L 193.567686 125.701181 
L 193.626378 125.35699 
L 193.812592 125.35699 
L 193.812592 125.24226 
L 193.987043 125.24226 
L 194.027591 124.898069 
L 194.290258 124.898069 
L 194.291633 124.553878 
L 194.505598 124.553878 
L 194.505598 124.439147 
L 194.636235 124.439147 
L 194.636235 124.324417 
L 194.808687 124.324417 
L 194.808687 124.209687 
L 195.046104 124.209687 
L 195.1348 123.865496 
L 195.177345 123.865496 
L 195.270581 123.521305 
L 195.454284 123.521305 
L 195.454284 123.406574 
L 195.650711 123.406574 
L 195.682494 123.177114 
L 195.776233 123.177114 
L 195.776233 123.062383 
L 195.960339 123.062383 
L 195.960339 122.947653 
L 196.13324 122.947653 
L 196.13324 122.832923 
L 196.311184 122.832923 
L 196.317921 122.603462 
L 196.605187 122.603462 
L 196.605187 122.488732 
L 196.843884 122.488732 
L 196.843884 122.374001 
L 197.402274 122.374001 
L 197.488377 122.14454 
L 197.516984 122.14454 
L 197.516984 122.02981 
L 197.80275 122.02981 
L 197.810621 121.800349 
L 198.330624 121.800349 
L 198.330624 121.685619 
L 199.835168 121.685619 
L 199.835168 121.570889 
L 201.42239 121.570889 
L 201.42239 121.456158 
L 202.183306 121.456158 
L 202.183306 121.341428 
L 206.860582 121.341428 
L 206.860582 121.226698 
L 209.438396 121.226698 
L 209.465501 120.997237 
L 210.941304 120.997237 
L 210.941304 120.882507 
L 218.266128 120.882507 
L 218.328984 117.899518 
L 218.901838 117.899518 
L 218.901838 117.784787 
L 219.02951 117.784787 
L 219.07424 117.440596 
L 219.205771 117.440596 
L 219.294714 116.866945 
L 219.345149 116.866945 
L 219.422156 116.293293 
L 219.46167 116.293293 
L 219.554976 115.834372 
L 219.580806 115.834372 
L 219.610141 115.490181 
L 219.75113 115.490181 
L 219.755123 115.26072 
L 219.915693 115.26072 
L 219.915693 115.14599 
L 220.041049 115.14599 
L 220.092194 114.687068 
L 220.16442 114.687068 
L 220.258706 113.998686 
L 220.297609 113.998686 
L 220.343994 113.769225 
L 220.429943 113.769225 
L 220.491755 113.539765 
L 220.557162 113.539765 
L 220.610468 112.736652 
L 220.712511 112.736652 
L 220.777097 112.277731 
L 220.829736 112.277731 
L 220.926028 111.704079 
L 220.957362 111.704079 
L 221.065551 110.900967 
L 221.09634 110.900967 
L 221.178815 110.556776 
L 221.225854 110.556776 
L 221.336043 109.638933 
L 221.381495 109.638933 
L 221.381495 109.524203 
L 221.517869 109.524203 
L 221.60427 109.065281 
L 221.635126 109.065281 
L 221.734072 108.835821 
L 221.797974 108.835821 
L 221.835437 108.60636 
L 221.921552 108.60636 
L 222.01861 108.262169 
L 222.070294 108.262169 
L 222.170424 107.803248 
L 222.268461 107.803248 
L 222.376397 107.459056 
L 222.590423 107.459056 
L 222.590423 107.344326 
L 222.867979 107.344326 
L 222.867979 107.229596 
L 223.43503 107.229596 
L 223.43503 107.114865 
L 230.341065 107.114865 
L 230.36342 106.885405 
L 230.682978 106.885405 
L 230.682978 106.770674 
L 230.962046 106.770674 
L 230.999971 106.426483 
L 231.094589 106.426483 
L 231.199224 105.852832 
L 231.227208 105.852832 
L 231.227208 105.738101 
L 231.476496 105.738101 
L 231.476496 105.623371 
L 231.695311 105.623371 
L 231.764917 105.39391 
L 231.826813 105.39391 
L 231.826813 105.27918 
L 232.013648 105.27918 
L 232.076324 104.934989 
L 232.339943 104.934989 
L 232.339943 104.820259 
L 232.484942 104.820259 
L 232.564732 104.590798 
L 237.803913 104.590798 
L 237.803913 104.476068 
L 237.947377 104.476068 
L 237.947377 104.361337 
L 238.213531 104.361337 
L 238.213531 104.246607 
L 238.329581 104.246607 
L 238.404128 103.902416 
L 238.577095 103.902416 
L 238.577095 103.787685 
L 238.721845 103.787685 
L 238.721845 103.672955 
L 239.468999 103.672955 
L 239.468999 103.443494 
L 243.113043 103.443494 
L 243.113043 103.328764 
L 243.442339 103.328764 
L 243.442339 103.214034 
L 246.864642 103.214034 
L 246.875639 102.984573 
L 249.949593 102.984573 
L 249.949593 102.869843 
L 250.253237 102.869843 
L 250.253237 102.640382 
L 252.761569 102.640382 
L 252.761569 102.525652 
L 253.004128 102.525652 
L 253.004128 102.410921 
L 254.847579 102.410921 
L 254.902004 102.181461 
L 255.015825 102.181461 
L 255.015825 102.06673 
L 255.22915 102.06673 
L 255.22915 101.952 
L 258.7919 101.952 
L 258.85208 101.722539 
L 260.471576 101.722539 
L 260.471576 101.607809 
L 261.911914 101.607809 
L 261.911914 101.493079 
L 263.272503 101.493079 
L 263.272503 101.378348 
L 264.585532 101.378348 
L 264.585532 101.263618 
L 266.872016 101.263618 
L 266.872016 101.148888 
L 267.882407 101.148888 
L 267.882407 100.919427 
L 268.865331 100.919427 
L 268.865331 100.804697 
L 272.321922 100.804697 
L 272.344758 100.575236 
L 273.110565 100.575236 
L 273.110565 100.460506 
L 338.688 100.460506 
L 338.688 100.460506 
" style="fill:none;stroke:#ff00ff;stroke-linecap:square;stroke-width:1.5;"/>
   </g>
   <g id="line2d_41">
    <defs>
     <path d="M -0 8.485281 
L 5.091169 0 
L 0 -8.485281 
L -5.091169 -0 
z
" id="m6cb5858cb8" style="stroke:#ff00ff;stroke-linejoin:miter;stroke-width:1.5;"/>
    </defs>
    <g>
     <use style="fill-opacity:0;stroke:#ff00ff;stroke-linejoin:miter;stroke-width:1.5;" x="125.857712" xlink:href="#m6cb5858cb8" y="240.890446"/>
     <use style="fill-opacity:0;stroke:#ff00ff;stroke-linejoin:miter;stroke-width:1.5;" x="191.254965" xlink:href="#m6cb5858cb8" y="129.716743"/>
     <use style="fill-opacity:0;stroke:#ff00ff;stroke-linejoin:miter;stroke-width:1.5;" x="266.872016" xlink:href="#m6cb5858cb8" y="101.148888"/>
     <use style="fill-opacity:0;stroke:#ff00ff;stroke-linejoin:miter;stroke-width:1.5;" x="273.110565" xlink:href="#m6cb5858cb8" y="100.460506"/>
     <use style="fill-opacity:0;stroke:#ff00ff;stroke-linejoin:miter;stroke-width:1.5;" x="338.688" xlink:href="#m6cb5858cb8" y="100.460506"/>
    </g>
   </g>
   <g id="line2d_42">
    <path style="fill:none;stroke:#ff00ff;stroke-linecap:square;stroke-width:1.5;"/>
    <g/>
   </g>
   <g id="line2d_43">
    <path clip-path="url(#paefe3607cc)" d="M 218.221714 120.882507 
" style="fill:none;stroke:#ff00ff;stroke-linecap:square;stroke-width:1.5;"/>
    <defs>
     <path d="M -12 12 
L 12 -12 
M -12 -12 
L 12 12 
" id="m1b445ad000" style="stroke:#ff00ff;"/>
    </defs>
    <g clip-path="url(#paefe3607cc)">
     <use style="fill:#ff00ff;stroke:#ff00ff;" x="218.221714" xlink:href="#m1b445ad000" y="120.882507"/>
    </g>
   </g>
   <g id="line2d_44">
    <path d="M 338.688 109.638933 
L 369.60768 293.092752 
" style="fill:none;stroke:#000080;stroke-linecap:square;stroke-width:1.5;"/>
    <g>
     <use style="fill-opacity:0;stroke:#000080;stroke-width:1.5;" x="338.688" xlink:href="#m4c2d230754" y="109.638933"/>
     <use style="fill-opacity:0;stroke:#000080;stroke-width:1.5;" x="369.60768" xlink:href="#m4c2d230754" y="293.092752"/>
    </g>
   </g>
   <g id="line2d_45">
    <path d="M 338.688 100.460506 
L 369.60768 152.662812 
" style="fill:none;stroke:#ff00ff;stroke-linecap:square;stroke-width:1.5;"/>
    <g>
     <use style="fill-opacity:0;stroke:#ff00ff;stroke-linejoin:miter;stroke-width:1.5;" x="338.688" xlink:href="#m6cb5858cb8" y="100.460506"/>
     <use style="fill-opacity:0;stroke:#ff00ff;stroke-linejoin:miter;stroke-width:1.5;" x="369.60768" xlink:href="#m6cb5858cb8" y="152.662812"/>
    </g>
   </g>
   <g id="line2d_46">
    <path d="M 338.688 298.944 
L 338.688 6.381624 
" style="fill:none;stroke:#000000;stroke-linecap:square;stroke-width:1.5;"/>
   </g>
   <g id="patch_3">
    <path d="M 57.6 298.944 
L 57.6 3.456 
" style="fill:none;stroke:#000000;stroke-linecap:square;stroke-linejoin:miter;stroke-width:0.8;"/>
   </g>
   <g id="patch_4">
    <path d="M 338.688 298.944 
L 338.688 3.456 
" style="fill:none;stroke:#000000;stroke-linecap:square;stroke-linejoin:miter;stroke-width:0.8;"/>
   </g>
   <g id="patch_5">
    <path d="M 57.6 298.944 
L 338.688 298.944 
" style="fill:none;stroke:#000000;stroke-linecap:square;stroke-linejoin:miter;stroke-width:0.8;"/>
   </g>
   <g id="patch_6">
    <path d="M 57.6 3.456 
L 338.688 3.456 
" style="fill:none;stroke:#000000;stroke-linecap:square;stroke-linejoin:miter;stroke-width:0.8;"/>
   </g>
   <g id="text_13">
    <!-- outputCMA -->
    <g transform="translate(375.22944 297.78369)scale(0.17 -0.17)">
     <defs>
      <path d="M 64.40625 67.28125 
L 64.40625 56.890625 
Q 59.421875 61.53125 53.78125 63.8125 
Q 48.140625 66.109375 41.796875 66.109375 
Q 29.296875 66.109375 22.65625 58.46875 
Q 16.015625 50.828125 16.015625 36.375 
Q 16.015625 21.96875 22.65625 14.328125 
Q 29.296875 6.6875 41.796875 6.6875 
Q 48.140625 6.6875 53.78125 8.984375 
Q 59.421875 11.28125 64.40625 15.921875 
L 64.40625 5.609375 
Q 59.234375 2.09375 53.4375 0.328125 
Q 47.65625 -1.421875 41.21875 -1.421875 
Q 24.65625 -1.421875 15.125 8.703125 
Q 5.609375 18.84375 5.609375 36.375 
Q 5.609375 53.953125 15.125 64.078125 
Q 24.65625 74.21875 41.21875 74.21875 
Q 47.75 74.21875 53.53125 72.484375 
Q 59.328125 70.75 64.40625 67.28125 
z
" id="DejaVuSans-67"/>
      <path d="M 9.8125 72.90625 
L 24.515625 72.90625 
L 43.109375 23.296875 
L 61.8125 72.90625 
L 76.515625 72.90625 
L 76.515625 0 
L 66.890625 0 
L 66.890625 64.015625 
L 48.09375 14.015625 
L 38.1875 14.015625 
L 19.390625 64.015625 
L 19.390625 0 
L 9.8125 0 
z
" id="DejaVuSans-77"/>
      <path d="M 34.1875 63.1875 
L 20.796875 26.90625 
L 47.609375 26.90625 
z
M 28.609375 72.90625 
L 39.796875 72.90625 
L 67.578125 0 
L 57.328125 0 
L 50.6875 18.703125 
L 17.828125 18.703125 
L 11.1875 0 
L 0.78125 0 
z
" id="DejaVuSans-65"/>
     </defs>
     <use xlink:href="#DejaVuSans-111"/>
     <use x="61.181641" xlink:href="#DejaVuSans-117"/>
     <use x="124.560547" xlink:href="#DejaVuSans-116"/>
     <use x="163.769531" xlink:href="#DejaVuSans-112"/>
     <use x="227.246094" xlink:href="#DejaVuSans-117"/>
     <use x="290.625" xlink:href="#DejaVuSans-116"/>
     <use x="329.833984" xlink:href="#DejaVuSans-67"/>
     <use x="399.658203" xlink:href="#DejaVuSans-77"/>
     <use x="485.9375" xlink:href="#DejaVuSans-65"/>
    </g>
   </g>
   <g id="text_14">
    <!-- PSO -->
    <g transform="translate(375.22944 157.353749)scale(0.17 -0.17)">
     <defs>
      <path d="M 19.671875 64.796875 
L 19.671875 37.40625 
L 32.078125 37.40625 
Q 38.96875 37.40625 42.71875 40.96875 
Q 46.484375 44.53125 46.484375 51.125 
Q 46.484375 57.671875 42.71875 61.234375 
Q 38.96875 64.796875 32.078125 64.796875 
z
M 9.8125 72.90625 
L 32.078125 72.90625 
Q 44.34375 72.90625 50.609375 67.359375 
Q 56.890625 61.8125 56.890625 51.125 
Q 56.890625 40.328125 50.609375 34.8125 
Q 44.34375 29.296875 32.078125 29.296875 
L 19.671875 29.296875 
L 19.671875 0 
L 9.8125 0 
z
" id="DejaVuSans-80"/>
      <path d="M 53.515625 70.515625 
L 53.515625 60.890625 
Q 47.90625 63.578125 42.921875 64.890625 
Q 37.9375 66.21875 33.296875 66.21875 
Q 25.25 66.21875 20.875 63.09375 
Q 16.5 59.96875 16.5 54.203125 
Q 16.5 49.359375 19.40625 46.890625 
Q 22.3125 44.4375 30.421875 42.921875 
L 36.375 41.703125 
Q 47.40625 39.59375 52.65625 34.296875 
Q 57.90625 29 57.90625 20.125 
Q 57.90625 9.515625 50.796875 4.046875 
Q 43.703125 -1.421875 29.984375 -1.421875 
Q 24.8125 -1.421875 18.96875 -0.25 
Q 13.140625 0.921875 6.890625 3.21875 
L 6.890625 13.375 
Q 12.890625 10.015625 18.65625 8.296875 
Q 24.421875 6.59375 29.984375 6.59375 
Q 38.421875 6.59375 43.015625 9.90625 
Q 47.609375 13.234375 47.609375 19.390625 
Q 47.609375 24.75 44.3125 27.78125 
Q 41.015625 30.8125 33.5 32.328125 
L 27.484375 33.5 
Q 16.453125 35.6875 11.515625 40.375 
Q 6.59375 45.0625 6.59375 53.421875 
Q 6.59375 63.09375 13.40625 68.65625 
Q 20.21875 74.21875 32.171875 74.21875 
Q 37.3125 74.21875 42.625 73.28125 
Q 47.953125 72.359375 53.515625 70.515625 
z
" id="DejaVuSans-83"/>
      <path d="M 39.40625 66.21875 
Q 28.65625 66.21875 22.328125 58.203125 
Q 16.015625 50.203125 16.015625 36.375 
Q 16.015625 22.609375 22.328125 14.59375 
Q 28.65625 6.59375 39.40625 6.59375 
Q 50.140625 6.59375 56.421875 14.59375 
Q 62.703125 22.609375 62.703125 36.375 
Q 62.703125 50.203125 56.421875 58.203125 
Q 50.140625 66.21875 39.40625 66.21875 
z
M 39.40625 74.21875 
Q 54.734375 74.21875 63.90625 63.9375 
Q 73.09375 53.65625 73.09375 36.375 
Q 73.09375 19.140625 63.90625 8.859375 
Q 54.734375 -1.421875 39.40625 -1.421875 
Q 24.03125 -1.421875 14.8125 8.828125 
Q 5.609375 19.09375 5.609375 36.375 
Q 5.609375 53.65625 14.8125 63.9375 
Q 24.03125 74.21875 39.40625 74.21875 
z
" id="DejaVuSans-79"/>
     </defs>
     <use xlink:href="#DejaVuSans-80"/>
     <use x="60.302734" xlink:href="#DejaVuSans-83"/>
     <use x="123.779297" xlink:href="#DejaVuSans-79"/>
    </g>
   </g>
   <g id="text_15">
    <!-- best 2009 -->
    <g transform="translate(375.22944 16.923809)scale(0.17 -0.17)">
     <defs>
      <path d="M 48.6875 27.296875 
Q 48.6875 37.203125 44.609375 42.84375 
Q 40.53125 48.484375 33.40625 48.484375 
Q 26.265625 48.484375 22.1875 42.84375 
Q 18.109375 37.203125 18.109375 27.296875 
Q 18.109375 17.390625 22.1875 11.75 
Q 26.265625 6.109375 33.40625 6.109375 
Q 40.53125 6.109375 44.609375 11.75 
Q 48.6875 17.390625 48.6875 27.296875 
z
M 18.109375 46.390625 
Q 20.953125 51.265625 25.265625 53.625 
Q 29.59375 56 35.59375 56 
Q 45.5625 56 51.78125 48.09375 
Q 58.015625 40.1875 58.015625 27.296875 
Q 58.015625 14.40625 51.78125 6.484375 
Q 45.5625 -1.421875 35.59375 -1.421875 
Q 29.59375 -1.421875 25.265625 0.953125 
Q 20.953125 3.328125 18.109375 8.203125 
L 18.109375 0 
L 9.078125 0 
L 9.078125 75.984375 
L 18.109375 75.984375 
z
" id="DejaVuSans-98"/>
      <path d="M 10.984375 1.515625 
L 10.984375 10.5 
Q 14.703125 8.734375 18.5 7.8125 
Q 22.3125 6.890625 25.984375 6.890625 
Q 35.75 6.890625 40.890625 13.453125 
Q 46.046875 20.015625 46.78125 33.40625 
Q 43.953125 29.203125 39.59375 26.953125 
Q 35.25 24.703125 29.984375 24.703125 
Q 19.046875 24.703125 12.671875 31.3125 
Q 6.296875 37.9375 6.296875 49.421875 
Q 6.296875 60.640625 12.9375 67.421875 
Q 19.578125 74.21875 30.609375 74.21875 
Q 43.265625 74.21875 49.921875 64.515625 
Q 56.59375 54.828125 56.59375 36.375 
Q 56.59375 19.140625 48.40625 8.859375 
Q 40.234375 -1.421875 26.421875 -1.421875 
Q 22.703125 -1.421875 18.890625 -0.6875 
Q 15.09375 0.046875 10.984375 1.515625 
z
M 30.609375 32.421875 
Q 37.25 32.421875 41.125 36.953125 
Q 45.015625 41.5 45.015625 49.421875 
Q 45.015625 57.28125 41.125 61.84375 
Q 37.25 66.40625 30.609375 66.40625 
Q 23.96875 66.40625 20.09375 61.84375 
Q 16.21875 57.28125 16.21875 49.421875 
Q 16.21875 41.5 20.09375 36.953125 
Q 23.96875 32.421875 30.609375 32.421875 
z
" id="DejaVuSans-57"/>
     </defs>
     <use xlink:href="#DejaVuSans-98"/>
     <use x="63.476562" xlink:href="#DejaVuSans-101"/>
     <use x="125" xlink:href="#DejaVuSans-115"/>
     <use x="177.099609" xlink:href="#DejaVuSans-116"/>
     <use x="216.308594" xlink:href="#DejaVuSans-32"/>
     <use x="248.095703" xlink:href="#DejaVuSans-50"/>
     <use x="311.71875" xlink:href="#DejaVuSans-48"/>
     <use x="375.341797" xlink:href="#DejaVuSans-48"/>
     <use x="438.964844" xlink:href="#DejaVuSans-57"/>
    </g>
   </g>
   <g id="text_16">
    <!-- bbob f1-f5, 10-D -->
    <g transform="translate(60.41088 14.161286)scale(0.102 -0.102)">
     <defs>
      <path d="M 10.796875 72.90625 
L 49.515625 72.90625 
L 49.515625 64.59375 
L 19.828125 64.59375 
L 19.828125 46.734375 
Q 21.96875 47.46875 24.109375 47.828125 
Q 26.265625 48.1875 28.421875 48.1875 
Q 40.625 48.1875 47.75 41.5 
Q 54.890625 34.8125 54.890625 23.390625 
Q 54.890625 11.625 47.5625 5.09375 
Q 40.234375 -1.421875 26.90625 -1.421875 
Q 22.3125 -1.421875 17.546875 -0.640625 
Q 12.796875 0.140625 7.71875 1.703125 
L 7.71875 11.625 
Q 12.109375 9.234375 16.796875 8.0625 
Q 21.484375 6.890625 26.703125 6.890625 
Q 35.15625 6.890625 40.078125 11.328125 
Q 45.015625 15.765625 45.015625 23.390625 
Q 45.015625 31 40.078125 35.4375 
Q 35.15625 39.890625 26.703125 39.890625 
Q 22.75 39.890625 18.8125 39.015625 
Q 14.890625 38.140625 10.796875 36.28125 
z
" id="DejaVuSans-53"/>
      <path d="M 19.671875 64.796875 
L 19.671875 8.109375 
L 31.59375 8.109375 
Q 46.6875 8.109375 53.6875 14.9375 
Q 60.6875 21.78125 60.6875 36.53125 
Q 60.6875 51.171875 53.6875 57.984375 
Q 46.6875 64.796875 31.59375 64.796875 
z
M 9.8125 72.90625 
L 30.078125 72.90625 
Q 51.265625 72.90625 61.171875 64.09375 
Q 71.09375 55.28125 71.09375 36.53125 
Q 71.09375 17.671875 61.125 8.828125 
Q 51.171875 0 30.078125 0 
L 9.8125 0 
z
" id="DejaVuSans-68"/>
     </defs>
     <use xlink:href="#DejaVuSans-98"/>
     <use x="63.476562" xlink:href="#DejaVuSans-98"/>
     <use x="126.953125" xlink:href="#DejaVuSans-111"/>
     <use x="188.134766" xlink:href="#DejaVuSans-98"/>
     <use x="251.611328" xlink:href="#DejaVuSans-32"/>
     <use x="283.398438" xlink:href="#DejaVuSans-102"/>
     <use x="318.603516" xlink:href="#DejaVuSans-49"/>
     <use x="382.226562" xlink:href="#DejaVuSans-45"/>
     <use x="418.310547" xlink:href="#DejaVuSans-102"/>
     <use x="453.515625" xlink:href="#DejaVuSans-53"/>
     <use x="517.138672" xlink:href="#DejaVuSans-44"/>
     <use x="548.925781" xlink:href="#DejaVuSans-32"/>
     <use x="580.712891" xlink:href="#DejaVuSans-49"/>
     <use x="644.335938" xlink:href="#DejaVuSans-48"/>
     <use x="707.958984" xlink:href="#DejaVuSans-45"/>
     <use x="744.042969" xlink:href="#DejaVuSans-68"/>
    </g>
    <!-- 51 targets: 100..1e-08 -->
    <g transform="translate(60.41088 25.583055)scale(0.102 -0.102)">
     <defs>
      <path d="M 11.71875 12.40625 
L 22.015625 12.40625 
L 22.015625 0 
L 11.71875 0 
z
M 11.71875 51.703125 
L 22.015625 51.703125 
L 22.015625 39.3125 
L 11.71875 39.3125 
z
" id="DejaVuSans-58"/>
     </defs>
     <use xlink:href="#DejaVuSans-53"/>
     <use x="63.623047" xlink:href="#DejaVuSans-49"/>
     <use x="127.246094" xlink:href="#DejaVuSans-32"/>
     <use x="159.033203" xlink:href="#DejaVuSans-116"/>
     <use x="198.242188" xlink:href="#DejaVuSans-97"/>
     <use x="259.521484" xlink:href="#DejaVuSans-114"/>
     <use x="298.884766" xlink:href="#DejaVuSans-103"/>
     <use x="362.361328" xlink:href="#DejaVuSans-101"/>
     <use x="423.884766" xlink:href="#DejaVuSans-116"/>
     <use x="463.09375" xlink:href="#DejaVuSans-115"/>
     <use x="515.193359" xlink:href="#DejaVuSans-58"/>
     <use x="548.884766" xlink:href="#DejaVuSans-32"/>
     <use x="580.671875" xlink:href="#DejaVuSans-49"/>
     <use x="644.294922" xlink:href="#DejaVuSans-48"/>
     <use x="707.917969" xlink:href="#DejaVuSans-48"/>
     <use x="771.541016" xlink:href="#DejaVuSans-46"/>
     <use x="803.328125" xlink:href="#DejaVuSans-46"/>
     <use x="835.115234" xlink:href="#DejaVuSans-49"/>
     <use x="898.738281" xlink:href="#DejaVuSans-101"/>
     <use x="960.261719" xlink:href="#DejaVuSans-45"/>
     <use x="996.345703" xlink:href="#DejaVuSans-48"/>
     <use x="1059.96875" xlink:href="#DejaVuSans-56"/>
    </g>
    <!-- 15 instances -->
    <g transform="translate(60.41088 37.004824)scale(0.102 -0.102)">
     <use xlink:href="#DejaVuSans-49"/>
     <use x="63.623047" xlink:href="#DejaVuSans-53"/>
     <use x="127.246094" xlink:href="#DejaVuSans-32"/>
     <use x="159.033203" xlink:href="#DejaVuSans-105"/>
     <use x="186.816406" xlink:href="#DejaVuSans-110"/>
     <use x="250.195312" xlink:href="#DejaVuSans-115"/>
     <use x="302.294922" xlink:href="#DejaVuSans-116"/>
     <use x="341.503906" xlink:href="#DejaVuSans-97"/>
     <use x="402.783203" xlink:href="#DejaVuSans-110"/>
     <use x="466.162109" xlink:href="#DejaVuSans-99"/>
     <use x="521.142578" xlink:href="#DejaVuSans-101"/>
     <use x="582.666016" xlink:href="#DejaVuSans-115"/>
    </g>
   </g>
   <g id="text_17">
    <!-- v2.4 -->
    <g style="fill:#808080;" transform="translate(187.233062 293.909432)scale(0.1 -0.1)">
     <use xlink:href="#DejaVuSans-118"/>
     <use x="59.179688" xlink:href="#DejaVuSans-50"/>
     <use x="122.802734" xlink:href="#DejaVuSans-46"/>
     <use x="154.589844" xlink:href="#DejaVuSans-52"/>
    </g>
   </g>
  </g>
 </g>
 <defs>
  <clipPath id="paefe3607cc">
   <rect height="295.488" width="281.088" x="57.6" y="3.456"/>
  </clipPath>
 </defs>
</svg>
