<?xml version="1.0" encoding="utf-8" standalone="no"?>
<!DOCTYPE svg PUBLIC "-//W3C//DTD SVG 1.1//EN"
  "http://www.w3.org/Graphics/SVG/1.1/DTD/svg11.dtd">
<!-- Created with matplotlib (https://matplotlib.org/) -->
<svg height="345.6pt" version="1.1" viewBox="0 0 460.8 345.6" width="460.8pt" xmlns="http://www.w3.org/2000/svg" xmlns:xlink="http://www.w3.org/1999/xlink">
 <metadata>
  <rdf:RDF xmlns:cc="http://creativecommons.org/ns#" xmlns:dc="http://purl.org/dc/elements/1.1/" xmlns:rdf="http://www.w3.org/1999/02/22-rdf-syntax-ns#">
   <cc:Work>
    <dc:type rdf:resource="http://purl.org/dc/dcmitype/StillImage"/>
    <dc:date>2021-04-27T05:14:13.194595</dc:date>
    <dc:format>image/svg+xml</dc:format>
    <dc:creator>
     <cc:Agent>
      <dc:title>Matplotlib v3.3.4, https://matplotlib.org/</dc:title>
     </cc:Agent>
    </dc:creator>
   </cc:Work>
  </rdf:RDF>
 </metadata>
 <defs>
  <style type="text/css">*{stroke-linecap:butt;stroke-linejoin:round;}</style>
 </defs>
 <g id="figure_1">
  <g id="patch_1">
   <path d="M 0 345.6 
L 460.8 345.6 
L 460.8 0 
L 0 0 
z
" style="fill:#ffffff;"/>
  </g>
  <g id="axes_1">
   <g id="patch_2">
    <path d="M 57.6 298.944 
L 338.688 298.944 
L 338.688 3.456 
L 57.6 3.456 
z
" style="fill:#ffffff;"/>
   </g>
   <g id="line2d_1">
    <path d="M 36.60358 298.944 
L 36.60358 297.796697 
L 60.779557 297.796697 
L 60.779557 296.649393 
L 68.328395 296.649393 
L 68.328395 295.50209 
L 69.246464 295.50209 
L 69.246464 294.354786 
L 70.11861 294.354786 
L 70.11861 238.136918 
L 70.538854 238.136918 
L 70.538854 235.842311 
L 70.949209 235.842311 
L 70.949209 181.91905 
L 101.992235 181.91905 
L 101.992235 180.771746 
L 107.364602 180.771746 
L 107.364602 179.624443 
L 107.663568 179.624443 
L 107.663568 178.477139 
L 108.948899 178.477139 
L 109.040444 176.182532 
L 109.086037 176.182532 
L 109.176867 167.004105 
L 109.222105 167.004105 
L 109.31223 154.383767 
L 109.357119 154.383767 
L 109.446552 136.026912 
L 109.491096 136.026912 
L 109.535528 123.406574 
L 109.624052 123.406574 
L 109.624052 122.259271 
L 110.016944 122.259271 
L 110.016944 121.111967 
L 110.358901 121.111967 
L 110.358901 119.964664 
L 120.712642 119.964664 
L 120.712642 118.817361 
L 137.262416 118.817361 
L 137.262416 117.670057 
L 141.774395 117.670057 
L 141.774395 116.522754 
L 145.418169 116.522754 
L 145.418169 115.37545 
L 146.522046 115.37545 
L 146.522046 114.228147 
L 148.780082 114.228147 
L 148.780082 113.080843 
L 150.159417 113.080843 
L 150.159417 111.93354 
L 152.892686 111.93354 
L 152.892686 110.786236 
L 154.119001 110.786236 
L 154.119001 109.638933 
L 158.599388 109.638933 
L 158.599388 108.49163 
L 159.966168 108.49163 
L 159.966168 107.344326 
L 161.093366 107.344326 
L 161.093366 106.197023 
L 161.224411 106.197023 
L 161.320345 48.831851 
L 161.336283 48.831851 
L 161.420284 33.916906 
L 161.456484 33.916906 
L 161.56688 20.149265 
L 161.569126 20.149265 
L 161.571372 17.854658 
L 196.553307 17.854658 
L 196.554213 15.560051 
L 212.133226 15.560051 
L 212.133721 6.381624 
L 338.688 6.381624 
L 338.688 6.381624 
" style="fill:none;stroke:#f5deb3;stroke-linecap:square;stroke-width:4;"/>
   </g>
   <g id="line2d_2">
    <defs>
     <path d="M -0 7.778175 
L 7.778175 0 
L 0 -7.778175 
L -7.778175 -0 
z
" id="m192a705602" style="stroke:#f5deb3;stroke-linejoin:miter;stroke-width:1.5;"/>
    </defs>
    <g>
     <use style="fill:#f5deb3;stroke:#f5deb3;stroke-linejoin:miter;stroke-width:1.5;" x="70.538854" xlink:href="#m192a705602" y="235.842311"/>
     <use style="fill:#f5deb3;stroke:#f5deb3;stroke-linejoin:miter;stroke-width:1.5;" x="109.491096" xlink:href="#m192a705602" y="130.290395"/>
     <use style="fill:#f5deb3;stroke:#f5deb3;stroke-linejoin:miter;stroke-width:1.5;" x="161.308952" xlink:href="#m192a705602" y="58.010278"/>
     <use style="fill:#f5deb3;stroke:#f5deb3;stroke-linejoin:miter;stroke-width:1.5;" x="212.133721" xlink:href="#m192a705602" y="6.381624"/>
     <use style="fill:#f5deb3;stroke:#f5deb3;stroke-linejoin:miter;stroke-width:1.5;" x="212.133721" xlink:href="#m192a705602" y="6.381624"/>
     <use style="fill:#f5deb3;stroke:#f5deb3;stroke-linejoin:miter;stroke-width:1.5;" x="338.688" xlink:href="#m192a705602" y="6.381624"/>
    </g>
   </g>
   <g id="line2d_3">
    <path style="fill:none;stroke:#f5deb3;stroke-linecap:square;stroke-width:4;"/>
    <g/>
   </g>
   <g id="line2d_4">
    <path d="M 338.688 6.381624 
L 369.60768 12.232871 
" style="fill:none;stroke:#f5deb3;stroke-linecap:square;stroke-width:4;"/>
    <g>
     <use style="fill:#f5deb3;stroke:#f5deb3;stroke-linejoin:miter;stroke-width:1.5;" x="338.688" xlink:href="#m192a705602" y="6.381624"/>
     <use style="fill:#f5deb3;stroke:#f5deb3;stroke-linejoin:miter;stroke-width:1.5;" x="369.60768" xlink:href="#m192a705602" y="12.232871"/>
    </g>
   </g>
   <g id="matplotlib.axis_1">
    <g id="xtick_1">
     <g id="line2d_5">
      <path clip-path="url(#pe9b21f7647)" d="M 57.6 298.944 
L 57.6 3.456 
" style="fill:none;stroke:#b0b0b0;stroke-linecap:square;stroke-width:0.8;"/>
     </g>
     <g id="line2d_6">
      <defs>
       <path d="M 0 0 
L 0 3.5 
" id="m3b2e3ca77f" style="stroke:#000000;stroke-width:0.8;"/>
      </defs>
      <g>
       <use style="stroke:#000000;stroke-width:0.8;" x="57.6" xlink:href="#m3b2e3ca77f" y="298.944"/>
      </g>
     </g>
     <g id="text_1">
      <!-- 0 -->
      <g transform="translate(51.2375 321.140875)scale(0.2 -0.2)">
       <defs>
        <path d="M 31.78125 66.40625 
Q 24.171875 66.40625 20.328125 58.90625 
Q 16.5 51.421875 16.5 36.375 
Q 16.5 21.390625 20.328125 13.890625 
Q 24.171875 6.390625 31.78125 6.390625 
Q 39.453125 6.390625 43.28125 13.890625 
Q 47.125 21.390625 47.125 36.375 
Q 47.125 51.421875 43.28125 58.90625 
Q 39.453125 66.40625 31.78125 66.40625 
z
M 31.78125 74.21875 
Q 44.046875 74.21875 50.515625 64.515625 
Q 56.984375 54.828125 56.984375 36.375 
Q 56.984375 17.96875 50.515625 8.265625 
Q 44.046875 -1.421875 31.78125 -1.421875 
Q 19.53125 -1.421875 13.0625 8.265625 
Q 6.59375 17.96875 6.59375 36.375 
Q 6.59375 54.828125 13.0625 64.515625 
Q 19.53125 74.21875 31.78125 74.21875 
z
" id="DejaVuSans-48"/>
       </defs>
       <use xlink:href="#DejaVuSans-48"/>
      </g>
     </g>
    </g>
    <g id="xtick_2">
     <g id="line2d_7">
      <path clip-path="url(#pe9b21f7647)" d="M 137.910857 298.944 
L 137.910857 3.456 
" style="fill:none;stroke:#b0b0b0;stroke-linecap:square;stroke-width:0.8;"/>
     </g>
     <g id="line2d_8">
      <g>
       <use style="stroke:#000000;stroke-width:0.8;" x="137.910857" xlink:href="#m3b2e3ca77f" y="298.944"/>
      </g>
     </g>
     <g id="text_2">
      <!-- 2 -->
      <g transform="translate(131.548357 321.140875)scale(0.2 -0.2)">
       <defs>
        <path d="M 19.1875 8.296875 
L 53.609375 8.296875 
L 53.609375 0 
L 7.328125 0 
L 7.328125 8.296875 
Q 12.9375 14.109375 22.625 23.890625 
Q 32.328125 33.6875 34.8125 36.53125 
Q 39.546875 41.84375 41.421875 45.53125 
Q 43.3125 49.21875 43.3125 52.78125 
Q 43.3125 58.59375 39.234375 62.25 
Q 35.15625 65.921875 28.609375 65.921875 
Q 23.96875 65.921875 18.8125 64.3125 
Q 13.671875 62.703125 7.8125 59.421875 
L 7.8125 69.390625 
Q 13.765625 71.78125 18.9375 73 
Q 24.125 74.21875 28.421875 74.21875 
Q 39.75 74.21875 46.484375 68.546875 
Q 53.21875 62.890625 53.21875 53.421875 
Q 53.21875 48.921875 51.53125 44.890625 
Q 49.859375 40.875 45.40625 35.40625 
Q 44.1875 33.984375 37.640625 27.21875 
Q 31.109375 20.453125 19.1875 8.296875 
z
" id="DejaVuSans-50"/>
       </defs>
       <use xlink:href="#DejaVuSans-50"/>
      </g>
     </g>
    </g>
    <g id="xtick_3">
     <g id="line2d_9">
      <path clip-path="url(#pe9b21f7647)" d="M 218.221714 298.944 
L 218.221714 3.456 
" style="fill:none;stroke:#b0b0b0;stroke-linecap:square;stroke-width:0.8;"/>
     </g>
     <g id="line2d_10">
      <g>
       <use style="stroke:#000000;stroke-width:0.8;" x="218.221714" xlink:href="#m3b2e3ca77f" y="298.944"/>
      </g>
     </g>
     <g id="text_3">
      <!-- 4 -->
      <g transform="translate(211.859214 321.140875)scale(0.2 -0.2)">
       <defs>
        <path d="M 37.796875 64.3125 
L 12.890625 25.390625 
L 37.796875 25.390625 
z
M 35.203125 72.90625 
L 47.609375 72.90625 
L 47.609375 25.390625 
L 58.015625 25.390625 
L 58.015625 17.1875 
L 47.609375 17.1875 
L 47.609375 0 
L 37.796875 0 
L 37.796875 17.1875 
L 4.890625 17.1875 
L 4.890625 26.703125 
z
" id="DejaVuSans-52"/>
       </defs>
       <use xlink:href="#DejaVuSans-52"/>
      </g>
     </g>
    </g>
    <g id="xtick_4">
     <g id="line2d_11">
      <path clip-path="url(#pe9b21f7647)" d="M 298.532571 298.944 
L 298.532571 3.456 
" style="fill:none;stroke:#b0b0b0;stroke-linecap:square;stroke-width:0.8;"/>
     </g>
     <g id="line2d_12">
      <g>
       <use style="stroke:#000000;stroke-width:0.8;" x="298.532571" xlink:href="#m3b2e3ca77f" y="298.944"/>
      </g>
     </g>
     <g id="text_4">
      <!-- 6 -->
      <g transform="translate(292.170071 321.140875)scale(0.2 -0.2)">
       <defs>
        <path d="M 33.015625 40.375 
Q 26.375 40.375 22.484375 35.828125 
Q 18.609375 31.296875 18.609375 23.390625 
Q 18.609375 15.53125 22.484375 10.953125 
Q 26.375 6.390625 33.015625 6.390625 
Q 39.65625 6.390625 43.53125 10.953125 
Q 47.40625 15.53125 47.40625 23.390625 
Q 47.40625 31.296875 43.53125 35.828125 
Q 39.65625 40.375 33.015625 40.375 
z
M 52.59375 71.296875 
L 52.59375 62.3125 
Q 48.875 64.0625 45.09375 64.984375 
Q 41.3125 65.921875 37.59375 65.921875 
Q 27.828125 65.921875 22.671875 59.328125 
Q 17.53125 52.734375 16.796875 39.40625 
Q 19.671875 43.65625 24.015625 45.921875 
Q 28.375 48.1875 33.59375 48.1875 
Q 44.578125 48.1875 50.953125 41.515625 
Q 57.328125 34.859375 57.328125 23.390625 
Q 57.328125 12.15625 50.6875 5.359375 
Q 44.046875 -1.421875 33.015625 -1.421875 
Q 20.359375 -1.421875 13.671875 8.265625 
Q 6.984375 17.96875 6.984375 36.375 
Q 6.984375 53.65625 15.1875 63.9375 
Q 23.390625 74.21875 37.203125 74.21875 
Q 40.921875 74.21875 44.703125 73.484375 
Q 48.484375 72.75 52.59375 71.296875 
z
" id="DejaVuSans-54"/>
       </defs>
       <use xlink:href="#DejaVuSans-54"/>
      </g>
     </g>
    </g>
    <g id="xtick_5">
     <g id="line2d_13">
      <path clip-path="url(#pe9b21f7647)" d="M 97.755429 298.944 
L 97.755429 3.456 
" style="fill:none;stroke:#b0b0b0;stroke-linecap:square;stroke-width:0.8;"/>
     </g>
     <g id="line2d_14">
      <defs>
       <path d="M 0 0 
L 0 2 
" id="m2b7c4b29c1" style="stroke:#000000;stroke-width:0.6;"/>
      </defs>
      <g>
       <use style="stroke:#000000;stroke-width:0.6;" x="97.755429" xlink:href="#m2b7c4b29c1" y="298.944"/>
      </g>
     </g>
    </g>
    <g id="xtick_6">
     <g id="line2d_15">
      <path clip-path="url(#pe9b21f7647)" d="M 178.066286 298.944 
L 178.066286 3.456 
" style="fill:none;stroke:#b0b0b0;stroke-linecap:square;stroke-width:0.8;"/>
     </g>
     <g id="line2d_16">
      <g>
       <use style="stroke:#000000;stroke-width:0.6;" x="178.066286" xlink:href="#m2b7c4b29c1" y="298.944"/>
      </g>
     </g>
    </g>
    <g id="xtick_7">
     <g id="line2d_17">
      <path clip-path="url(#pe9b21f7647)" d="M 258.377143 298.944 
L 258.377143 3.456 
" style="fill:none;stroke:#b0b0b0;stroke-linecap:square;stroke-width:0.8;"/>
     </g>
     <g id="line2d_18">
      <g>
       <use style="stroke:#000000;stroke-width:0.6;" x="258.377143" xlink:href="#m2b7c4b29c1" y="298.944"/>
      </g>
     </g>
    </g>
    <g id="xtick_8">
     <g id="line2d_19">
      <path clip-path="url(#pe9b21f7647)" d="M 338.688 298.944 
L 338.688 3.456 
" style="fill:none;stroke:#b0b0b0;stroke-linecap:square;stroke-width:0.8;"/>
     </g>
     <g id="line2d_20">
      <g>
       <use style="stroke:#000000;stroke-width:0.6;" x="338.688" xlink:href="#m2b7c4b29c1" y="298.944"/>
      </g>
     </g>
    </g>
    <g id="text_5">
     <!-- log10(# f-evals / dimension) -->
     <g transform="translate(77.764078 342.217594)scale(0.17 -0.17)">
      <defs>
       <path d="M 9.421875 75.984375 
L 18.40625 75.984375 
L 18.40625 0 
L 9.421875 0 
z
" id="DejaVuSans-108"/>
       <path d="M 30.609375 48.390625 
Q 23.390625 48.390625 19.1875 42.75 
Q 14.984375 37.109375 14.984375 27.296875 
Q 14.984375 17.484375 19.15625 11.84375 
Q 23.34375 6.203125 30.609375 6.203125 
Q 37.796875 6.203125 41.984375 11.859375 
Q 46.1875 17.53125 46.1875 27.296875 
Q 46.1875 37.015625 41.984375 42.703125 
Q 37.796875 48.390625 30.609375 48.390625 
z
M 30.609375 56 
Q 42.328125 56 49.015625 48.375 
Q 55.71875 40.765625 55.71875 27.296875 
Q 55.71875 13.875 49.015625 6.21875 
Q 42.328125 -1.421875 30.609375 -1.421875 
Q 18.84375 -1.421875 12.171875 6.21875 
Q 5.515625 13.875 5.515625 27.296875 
Q 5.515625 40.765625 12.171875 48.375 
Q 18.84375 56 30.609375 56 
z
" id="DejaVuSans-111"/>
       <path d="M 45.40625 27.984375 
Q 45.40625 37.75 41.375 43.109375 
Q 37.359375 48.484375 30.078125 48.484375 
Q 22.859375 48.484375 18.828125 43.109375 
Q 14.796875 37.75 14.796875 27.984375 
Q 14.796875 18.265625 18.828125 12.890625 
Q 22.859375 7.515625 30.078125 7.515625 
Q 37.359375 7.515625 41.375 12.890625 
Q 45.40625 18.265625 45.40625 27.984375 
z
M 54.390625 6.78125 
Q 54.390625 -7.171875 48.1875 -13.984375 
Q 42 -20.796875 29.203125 -20.796875 
Q 24.46875 -20.796875 20.265625 -20.09375 
Q 16.0625 -19.390625 12.109375 -17.921875 
L 12.109375 -9.1875 
Q 16.0625 -11.328125 19.921875 -12.34375 
Q 23.78125 -13.375 27.78125 -13.375 
Q 36.625 -13.375 41.015625 -8.765625 
Q 45.40625 -4.15625 45.40625 5.171875 
L 45.40625 9.625 
Q 42.625 4.78125 38.28125 2.390625 
Q 33.9375 0 27.875 0 
Q 17.828125 0 11.671875 7.65625 
Q 5.515625 15.328125 5.515625 27.984375 
Q 5.515625 40.671875 11.671875 48.328125 
Q 17.828125 56 27.875 56 
Q 33.9375 56 38.28125 53.609375 
Q 42.625 51.21875 45.40625 46.390625 
L 45.40625 54.6875 
L 54.390625 54.6875 
z
" id="DejaVuSans-103"/>
       <path d="M 12.40625 8.296875 
L 28.515625 8.296875 
L 28.515625 63.921875 
L 10.984375 60.40625 
L 10.984375 69.390625 
L 28.421875 72.90625 
L 38.28125 72.90625 
L 38.28125 8.296875 
L 54.390625 8.296875 
L 54.390625 0 
L 12.40625 0 
z
" id="DejaVuSans-49"/>
       <path d="M 31 75.875 
Q 24.46875 64.65625 21.28125 53.65625 
Q 18.109375 42.671875 18.109375 31.390625 
Q 18.109375 20.125 21.3125 9.0625 
Q 24.515625 -2 31 -13.1875 
L 23.1875 -13.1875 
Q 15.875 -1.703125 12.234375 9.375 
Q 8.59375 20.453125 8.59375 31.390625 
Q 8.59375 42.28125 12.203125 53.3125 
Q 15.828125 64.359375 23.1875 75.875 
z
" id="DejaVuSans-40"/>
       <path d="M 51.125 44 
L 36.921875 44 
L 32.8125 27.6875 
L 47.125 27.6875 
z
M 43.796875 71.78125 
L 38.71875 51.515625 
L 52.984375 51.515625 
L 58.109375 71.78125 
L 65.921875 71.78125 
L 60.890625 51.515625 
L 76.125 51.515625 
L 76.125 44 
L 58.984375 44 
L 54.984375 27.6875 
L 70.515625 27.6875 
L 70.515625 20.21875 
L 53.078125 20.21875 
L 48 0 
L 40.1875 0 
L 45.21875 20.21875 
L 30.90625 20.21875 
L 25.875 0 
L 18.015625 0 
L 23.09375 20.21875 
L 7.71875 20.21875 
L 7.71875 27.6875 
L 24.90625 27.6875 
L 29 44 
L 13.28125 44 
L 13.28125 51.515625 
L 30.90625 51.515625 
L 35.890625 71.78125 
z
" id="DejaVuSans-35"/>
       <path id="DejaVuSans-32"/>
       <path d="M 37.109375 75.984375 
L 37.109375 68.5 
L 28.515625 68.5 
Q 23.6875 68.5 21.796875 66.546875 
Q 19.921875 64.59375 19.921875 59.515625 
L 19.921875 54.6875 
L 34.71875 54.6875 
L 34.71875 47.703125 
L 19.921875 47.703125 
L 19.921875 0 
L 10.890625 0 
L 10.890625 47.703125 
L 2.296875 47.703125 
L 2.296875 54.6875 
L 10.890625 54.6875 
L 10.890625 58.5 
Q 10.890625 67.625 15.140625 71.796875 
Q 19.390625 75.984375 28.609375 75.984375 
z
" id="DejaVuSans-102"/>
       <path d="M 4.890625 31.390625 
L 31.203125 31.390625 
L 31.203125 23.390625 
L 4.890625 23.390625 
z
" id="DejaVuSans-45"/>
       <path d="M 56.203125 29.59375 
L 56.203125 25.203125 
L 14.890625 25.203125 
Q 15.484375 15.921875 20.484375 11.0625 
Q 25.484375 6.203125 34.421875 6.203125 
Q 39.59375 6.203125 44.453125 7.46875 
Q 49.3125 8.734375 54.109375 11.28125 
L 54.109375 2.78125 
Q 49.265625 0.734375 44.1875 -0.34375 
Q 39.109375 -1.421875 33.890625 -1.421875 
Q 20.796875 -1.421875 13.15625 6.1875 
Q 5.515625 13.8125 5.515625 26.8125 
Q 5.515625 40.234375 12.765625 48.109375 
Q 20.015625 56 32.328125 56 
Q 43.359375 56 49.78125 48.890625 
Q 56.203125 41.796875 56.203125 29.59375 
z
M 47.21875 32.234375 
Q 47.125 39.59375 43.09375 43.984375 
Q 39.0625 48.390625 32.421875 48.390625 
Q 24.90625 48.390625 20.390625 44.140625 
Q 15.875 39.890625 15.1875 32.171875 
z
" id="DejaVuSans-101"/>
       <path d="M 2.984375 54.6875 
L 12.5 54.6875 
L 29.59375 8.796875 
L 46.6875 54.6875 
L 56.203125 54.6875 
L 35.6875 0 
L 23.484375 0 
z
" id="DejaVuSans-118"/>
       <path d="M 34.28125 27.484375 
Q 23.390625 27.484375 19.1875 25 
Q 14.984375 22.515625 14.984375 16.5 
Q 14.984375 11.71875 18.140625 8.90625 
Q 21.296875 6.109375 26.703125 6.109375 
Q 34.1875 6.109375 38.703125 11.40625 
Q 43.21875 16.703125 43.21875 25.484375 
L 43.21875 27.484375 
z
M 52.203125 31.203125 
L 52.203125 0 
L 43.21875 0 
L 43.21875 8.296875 
Q 40.140625 3.328125 35.546875 0.953125 
Q 30.953125 -1.421875 24.3125 -1.421875 
Q 15.921875 -1.421875 10.953125 3.296875 
Q 6 8.015625 6 15.921875 
Q 6 25.140625 12.171875 29.828125 
Q 18.359375 34.515625 30.609375 34.515625 
L 43.21875 34.515625 
L 43.21875 35.40625 
Q 43.21875 41.609375 39.140625 45 
Q 35.0625 48.390625 27.6875 48.390625 
Q 23 48.390625 18.546875 47.265625 
Q 14.109375 46.140625 10.015625 43.890625 
L 10.015625 52.203125 
Q 14.9375 54.109375 19.578125 55.046875 
Q 24.21875 56 28.609375 56 
Q 40.484375 56 46.34375 49.84375 
Q 52.203125 43.703125 52.203125 31.203125 
z
" id="DejaVuSans-97"/>
       <path d="M 44.28125 53.078125 
L 44.28125 44.578125 
Q 40.484375 46.53125 36.375 47.5 
Q 32.28125 48.484375 27.875 48.484375 
Q 21.1875 48.484375 17.84375 46.4375 
Q 14.5 44.390625 14.5 40.28125 
Q 14.5 37.15625 16.890625 35.375 
Q 19.28125 33.59375 26.515625 31.984375 
L 29.59375 31.296875 
Q 39.15625 29.25 43.1875 25.515625 
Q 47.21875 21.78125 47.21875 15.09375 
Q 47.21875 7.46875 41.1875 3.015625 
Q 35.15625 -1.421875 24.609375 -1.421875 
Q 20.21875 -1.421875 15.453125 -0.5625 
Q 10.6875 0.296875 5.421875 2 
L 5.421875 11.28125 
Q 10.40625 8.6875 15.234375 7.390625 
Q 20.0625 6.109375 24.8125 6.109375 
Q 31.15625 6.109375 34.5625 8.28125 
Q 37.984375 10.453125 37.984375 14.40625 
Q 37.984375 18.0625 35.515625 20.015625 
Q 33.0625 21.96875 24.703125 23.78125 
L 21.578125 24.515625 
Q 13.234375 26.265625 9.515625 29.90625 
Q 5.8125 33.546875 5.8125 39.890625 
Q 5.8125 47.609375 11.28125 51.796875 
Q 16.75 56 26.8125 56 
Q 31.78125 56 36.171875 55.265625 
Q 40.578125 54.546875 44.28125 53.078125 
z
" id="DejaVuSans-115"/>
       <path d="M 25.390625 72.90625 
L 33.6875 72.90625 
L 8.296875 -9.28125 
L 0 -9.28125 
z
" id="DejaVuSans-47"/>
       <path d="M 45.40625 46.390625 
L 45.40625 75.984375 
L 54.390625 75.984375 
L 54.390625 0 
L 45.40625 0 
L 45.40625 8.203125 
Q 42.578125 3.328125 38.25 0.953125 
Q 33.9375 -1.421875 27.875 -1.421875 
Q 17.96875 -1.421875 11.734375 6.484375 
Q 5.515625 14.40625 5.515625 27.296875 
Q 5.515625 40.1875 11.734375 48.09375 
Q 17.96875 56 27.875 56 
Q 33.9375 56 38.25 53.625 
Q 42.578125 51.265625 45.40625 46.390625 
z
M 14.796875 27.296875 
Q 14.796875 17.390625 18.875 11.75 
Q 22.953125 6.109375 30.078125 6.109375 
Q 37.203125 6.109375 41.296875 11.75 
Q 45.40625 17.390625 45.40625 27.296875 
Q 45.40625 37.203125 41.296875 42.84375 
Q 37.203125 48.484375 30.078125 48.484375 
Q 22.953125 48.484375 18.875 42.84375 
Q 14.796875 37.203125 14.796875 27.296875 
z
" id="DejaVuSans-100"/>
       <path d="M 9.421875 54.6875 
L 18.40625 54.6875 
L 18.40625 0 
L 9.421875 0 
z
M 9.421875 75.984375 
L 18.40625 75.984375 
L 18.40625 64.59375 
L 9.421875 64.59375 
z
" id="DejaVuSans-105"/>
       <path d="M 52 44.1875 
Q 55.375 50.25 60.0625 53.125 
Q 64.75 56 71.09375 56 
Q 79.640625 56 84.28125 50.015625 
Q 88.921875 44.046875 88.921875 33.015625 
L 88.921875 0 
L 79.890625 0 
L 79.890625 32.71875 
Q 79.890625 40.578125 77.09375 44.375 
Q 74.3125 48.1875 68.609375 48.1875 
Q 61.625 48.1875 57.5625 43.546875 
Q 53.515625 38.921875 53.515625 30.90625 
L 53.515625 0 
L 44.484375 0 
L 44.484375 32.71875 
Q 44.484375 40.625 41.703125 44.40625 
Q 38.921875 48.1875 33.109375 48.1875 
Q 26.21875 48.1875 22.15625 43.53125 
Q 18.109375 38.875 18.109375 30.90625 
L 18.109375 0 
L 9.078125 0 
L 9.078125 54.6875 
L 18.109375 54.6875 
L 18.109375 46.1875 
Q 21.1875 51.21875 25.484375 53.609375 
Q 29.78125 56 35.6875 56 
Q 41.65625 56 45.828125 52.96875 
Q 50 49.953125 52 44.1875 
z
" id="DejaVuSans-109"/>
       <path d="M 54.890625 33.015625 
L 54.890625 0 
L 45.90625 0 
L 45.90625 32.71875 
Q 45.90625 40.484375 42.875 44.328125 
Q 39.84375 48.1875 33.796875 48.1875 
Q 26.515625 48.1875 22.3125 43.546875 
Q 18.109375 38.921875 18.109375 30.90625 
L 18.109375 0 
L 9.078125 0 
L 9.078125 54.6875 
L 18.109375 54.6875 
L 18.109375 46.1875 
Q 21.34375 51.125 25.703125 53.5625 
Q 30.078125 56 35.796875 56 
Q 45.21875 56 50.046875 50.171875 
Q 54.890625 44.34375 54.890625 33.015625 
z
" id="DejaVuSans-110"/>
       <path d="M 8.015625 75.875 
L 15.828125 75.875 
Q 23.140625 64.359375 26.78125 53.3125 
Q 30.421875 42.28125 30.421875 31.390625 
Q 30.421875 20.453125 26.78125 9.375 
Q 23.140625 -1.703125 15.828125 -13.1875 
L 8.015625 -13.1875 
Q 14.5 -2 17.703125 9.0625 
Q 20.90625 20.125 20.90625 31.390625 
Q 20.90625 42.671875 17.703125 53.65625 
Q 14.5 64.65625 8.015625 75.875 
z
" id="DejaVuSans-41"/>
      </defs>
      <use xlink:href="#DejaVuSans-108"/>
      <use x="27.783203" xlink:href="#DejaVuSans-111"/>
      <use x="88.964844" xlink:href="#DejaVuSans-103"/>
      <use x="152.441406" xlink:href="#DejaVuSans-49"/>
      <use x="216.064453" xlink:href="#DejaVuSans-48"/>
      <use x="279.6875" xlink:href="#DejaVuSans-40"/>
      <use x="318.701172" xlink:href="#DejaVuSans-35"/>
      <use x="402.490234" xlink:href="#DejaVuSans-32"/>
      <use x="434.277344" xlink:href="#DejaVuSans-102"/>
      <use x="463.982422" xlink:href="#DejaVuSans-45"/>
      <use x="500.066406" xlink:href="#DejaVuSans-101"/>
      <use x="561.589844" xlink:href="#DejaVuSans-118"/>
      <use x="620.769531" xlink:href="#DejaVuSans-97"/>
      <use x="682.048828" xlink:href="#DejaVuSans-108"/>
      <use x="709.832031" xlink:href="#DejaVuSans-115"/>
      <use x="761.931641" xlink:href="#DejaVuSans-32"/>
      <use x="793.71875" xlink:href="#DejaVuSans-47"/>
      <use x="827.410156" xlink:href="#DejaVuSans-32"/>
      <use x="859.197266" xlink:href="#DejaVuSans-100"/>
      <use x="922.673828" xlink:href="#DejaVuSans-105"/>
      <use x="950.457031" xlink:href="#DejaVuSans-109"/>
      <use x="1047.869141" xlink:href="#DejaVuSans-101"/>
      <use x="1109.392578" xlink:href="#DejaVuSans-110"/>
      <use x="1172.771484" xlink:href="#DejaVuSans-115"/>
      <use x="1224.871094" xlink:href="#DejaVuSans-105"/>
      <use x="1252.654297" xlink:href="#DejaVuSans-111"/>
      <use x="1313.835938" xlink:href="#DejaVuSans-110"/>
      <use x="1377.214844" xlink:href="#DejaVuSans-41"/>
     </g>
    </g>
   </g>
   <g id="matplotlib.axis_2">
    <g id="ytick_1">
     <g id="line2d_21">
      <path clip-path="url(#pe9b21f7647)" d="M 57.6 298.944 
L 338.688 298.944 
" style="fill:none;stroke:#b0b0b0;stroke-linecap:square;stroke-width:0.8;"/>
     </g>
     <g id="line2d_22">
      <defs>
       <path d="M 0 0 
L -3.5 0 
" id="ma860acd1f4" style="stroke:#000000;stroke-width:0.8;"/>
      </defs>
      <g>
       <use style="stroke:#000000;stroke-width:0.8;" x="57.6" xlink:href="#ma860acd1f4" y="298.944"/>
      </g>
     </g>
     <g id="text_6">
      <!-- 0.0 -->
      <g transform="translate(25.155 305.02275)scale(0.16 -0.16)">
       <defs>
        <path d="M 10.6875 12.40625 
L 21 12.40625 
L 21 0 
L 10.6875 0 
z
" id="DejaVuSans-46"/>
       </defs>
       <use xlink:href="#DejaVuSans-48"/>
       <use x="63.623047" xlink:href="#DejaVuSans-46"/>
       <use x="95.410156" xlink:href="#DejaVuSans-48"/>
      </g>
     </g>
    </g>
    <g id="ytick_2">
     <g id="line2d_23">
      <path clip-path="url(#pe9b21f7647)" d="M 57.6 240.431525 
L 338.688 240.431525 
" style="fill:none;stroke:#b0b0b0;stroke-linecap:square;stroke-width:0.8;"/>
     </g>
     <g id="line2d_24">
      <g>
       <use style="stroke:#000000;stroke-width:0.8;" x="57.6" xlink:href="#ma860acd1f4" y="240.431525"/>
      </g>
     </g>
     <g id="text_7">
      <!-- 0.2 -->
      <g transform="translate(25.155 246.510275)scale(0.16 -0.16)">
       <use xlink:href="#DejaVuSans-48"/>
       <use x="63.623047" xlink:href="#DejaVuSans-46"/>
       <use x="95.410156" xlink:href="#DejaVuSans-50"/>
      </g>
     </g>
    </g>
    <g id="ytick_3">
     <g id="line2d_25">
      <path clip-path="url(#pe9b21f7647)" d="M 57.6 181.91905 
L 338.688 181.91905 
" style="fill:none;stroke:#b0b0b0;stroke-linecap:square;stroke-width:0.8;"/>
     </g>
     <g id="line2d_26">
      <g>
       <use style="stroke:#000000;stroke-width:0.8;" x="57.6" xlink:href="#ma860acd1f4" y="181.91905"/>
      </g>
     </g>
     <g id="text_8">
      <!-- 0.4 -->
      <g transform="translate(25.155 187.9978)scale(0.16 -0.16)">
       <use xlink:href="#DejaVuSans-48"/>
       <use x="63.623047" xlink:href="#DejaVuSans-46"/>
       <use x="95.410156" xlink:href="#DejaVuSans-52"/>
      </g>
     </g>
    </g>
    <g id="ytick_4">
     <g id="line2d_27">
      <path clip-path="url(#pe9b21f7647)" d="M 57.6 123.406574 
L 338.688 123.406574 
" style="fill:none;stroke:#b0b0b0;stroke-linecap:square;stroke-width:0.8;"/>
     </g>
     <g id="line2d_28">
      <g>
       <use style="stroke:#000000;stroke-width:0.8;" x="57.6" xlink:href="#ma860acd1f4" y="123.406574"/>
      </g>
     </g>
     <g id="text_9">
      <!-- 0.6 -->
      <g transform="translate(25.155 129.485324)scale(0.16 -0.16)">
       <use xlink:href="#DejaVuSans-48"/>
       <use x="63.623047" xlink:href="#DejaVuSans-46"/>
       <use x="95.410156" xlink:href="#DejaVuSans-54"/>
      </g>
     </g>
    </g>
    <g id="ytick_5">
     <g id="line2d_29">
      <path clip-path="url(#pe9b21f7647)" d="M 57.6 64.894099 
L 338.688 64.894099 
" style="fill:none;stroke:#b0b0b0;stroke-linecap:square;stroke-width:0.8;"/>
     </g>
     <g id="line2d_30">
      <g>
       <use style="stroke:#000000;stroke-width:0.8;" x="57.6" xlink:href="#ma860acd1f4" y="64.894099"/>
      </g>
     </g>
     <g id="text_10">
      <!-- 0.8 -->
      <g transform="translate(25.155 70.972849)scale(0.16 -0.16)">
       <defs>
        <path d="M 31.78125 34.625 
Q 24.75 34.625 20.71875 30.859375 
Q 16.703125 27.09375 16.703125 20.515625 
Q 16.703125 13.921875 20.71875 10.15625 
Q 24.75 6.390625 31.78125 6.390625 
Q 38.8125 6.390625 42.859375 10.171875 
Q 46.921875 13.96875 46.921875 20.515625 
Q 46.921875 27.09375 42.890625 30.859375 
Q 38.875 34.625 31.78125 34.625 
z
M 21.921875 38.8125 
Q 15.578125 40.375 12.03125 44.71875 
Q 8.5 49.078125 8.5 55.328125 
Q 8.5 64.0625 14.71875 69.140625 
Q 20.953125 74.21875 31.78125 74.21875 
Q 42.671875 74.21875 48.875 69.140625 
Q 55.078125 64.0625 55.078125 55.328125 
Q 55.078125 49.078125 51.53125 44.71875 
Q 48 40.375 41.703125 38.8125 
Q 48.828125 37.15625 52.796875 32.3125 
Q 56.78125 27.484375 56.78125 20.515625 
Q 56.78125 9.90625 50.3125 4.234375 
Q 43.84375 -1.421875 31.78125 -1.421875 
Q 19.734375 -1.421875 13.25 4.234375 
Q 6.78125 9.90625 6.78125 20.515625 
Q 6.78125 27.484375 10.78125 32.3125 
Q 14.796875 37.15625 21.921875 38.8125 
z
M 18.3125 54.390625 
Q 18.3125 48.734375 21.84375 45.5625 
Q 25.390625 42.390625 31.78125 42.390625 
Q 38.140625 42.390625 41.71875 45.5625 
Q 45.3125 48.734375 45.3125 54.390625 
Q 45.3125 60.0625 41.71875 63.234375 
Q 38.140625 66.40625 31.78125 66.40625 
Q 25.390625 66.40625 21.84375 63.234375 
Q 18.3125 60.0625 18.3125 54.390625 
z
" id="DejaVuSans-56"/>
       </defs>
       <use xlink:href="#DejaVuSans-48"/>
       <use x="63.623047" xlink:href="#DejaVuSans-46"/>
       <use x="95.410156" xlink:href="#DejaVuSans-56"/>
      </g>
     </g>
    </g>
    <g id="ytick_6">
     <g id="line2d_31">
      <path clip-path="url(#pe9b21f7647)" d="M 57.6 6.381624 
L 338.688 6.381624 
" style="fill:none;stroke:#b0b0b0;stroke-linecap:square;stroke-width:0.8;"/>
     </g>
     <g id="line2d_32">
      <g>
       <use style="stroke:#000000;stroke-width:0.8;" x="57.6" xlink:href="#ma860acd1f4" y="6.381624"/>
      </g>
     </g>
     <g id="text_11">
      <!-- 1.0 -->
      <g transform="translate(25.155 12.460374)scale(0.16 -0.16)">
       <use xlink:href="#DejaVuSans-49"/>
       <use x="63.623047" xlink:href="#DejaVuSans-46"/>
       <use x="95.410156" xlink:href="#DejaVuSans-48"/>
      </g>
     </g>
    </g>
    <g id="text_12">
     <!-- Fraction of function,target pairs -->
     <g transform="translate(17.619531 285.585)rotate(-90)scale(0.17 -0.17)">
      <defs>
       <path d="M 9.8125 72.90625 
L 51.703125 72.90625 
L 51.703125 64.59375 
L 19.671875 64.59375 
L 19.671875 43.109375 
L 48.578125 43.109375 
L 48.578125 34.8125 
L 19.671875 34.8125 
L 19.671875 0 
L 9.8125 0 
z
" id="DejaVuSans-70"/>
       <path d="M 41.109375 46.296875 
Q 39.59375 47.171875 37.8125 47.578125 
Q 36.03125 48 33.890625 48 
Q 26.265625 48 22.1875 43.046875 
Q 18.109375 38.09375 18.109375 28.8125 
L 18.109375 0 
L 9.078125 0 
L 9.078125 54.6875 
L 18.109375 54.6875 
L 18.109375 46.1875 
Q 20.953125 51.171875 25.484375 53.578125 
Q 30.03125 56 36.53125 56 
Q 37.453125 56 38.578125 55.875 
Q 39.703125 55.765625 41.0625 55.515625 
z
" id="DejaVuSans-114"/>
       <path d="M 48.78125 52.59375 
L 48.78125 44.1875 
Q 44.96875 46.296875 41.140625 47.34375 
Q 37.3125 48.390625 33.40625 48.390625 
Q 24.65625 48.390625 19.8125 42.84375 
Q 14.984375 37.3125 14.984375 27.296875 
Q 14.984375 17.28125 19.8125 11.734375 
Q 24.65625 6.203125 33.40625 6.203125 
Q 37.3125 6.203125 41.140625 7.25 
Q 44.96875 8.296875 48.78125 10.40625 
L 48.78125 2.09375 
Q 45.015625 0.34375 40.984375 -0.53125 
Q 36.96875 -1.421875 32.421875 -1.421875 
Q 20.0625 -1.421875 12.78125 6.34375 
Q 5.515625 14.109375 5.515625 27.296875 
Q 5.515625 40.671875 12.859375 48.328125 
Q 20.21875 56 33.015625 56 
Q 37.15625 56 41.109375 55.140625 
Q 45.0625 54.296875 48.78125 52.59375 
z
" id="DejaVuSans-99"/>
       <path d="M 18.3125 70.21875 
L 18.3125 54.6875 
L 36.8125 54.6875 
L 36.8125 47.703125 
L 18.3125 47.703125 
L 18.3125 18.015625 
Q 18.3125 11.328125 20.140625 9.421875 
Q 21.96875 7.515625 27.59375 7.515625 
L 36.8125 7.515625 
L 36.8125 0 
L 27.59375 0 
Q 17.1875 0 13.234375 3.875 
Q 9.28125 7.765625 9.28125 18.015625 
L 9.28125 47.703125 
L 2.6875 47.703125 
L 2.6875 54.6875 
L 9.28125 54.6875 
L 9.28125 70.21875 
z
" id="DejaVuSans-116"/>
       <path d="M 8.5 21.578125 
L 8.5 54.6875 
L 17.484375 54.6875 
L 17.484375 21.921875 
Q 17.484375 14.15625 20.5 10.265625 
Q 23.53125 6.390625 29.59375 6.390625 
Q 36.859375 6.390625 41.078125 11.03125 
Q 45.3125 15.671875 45.3125 23.6875 
L 45.3125 54.6875 
L 54.296875 54.6875 
L 54.296875 0 
L 45.3125 0 
L 45.3125 8.40625 
Q 42.046875 3.421875 37.71875 1 
Q 33.40625 -1.421875 27.6875 -1.421875 
Q 18.265625 -1.421875 13.375 4.4375 
Q 8.5 10.296875 8.5 21.578125 
z
M 31.109375 56 
z
" id="DejaVuSans-117"/>
       <path d="M 11.71875 12.40625 
L 22.015625 12.40625 
L 22.015625 4 
L 14.015625 -11.625 
L 7.71875 -11.625 
L 11.71875 4 
z
" id="DejaVuSans-44"/>
       <path d="M 18.109375 8.203125 
L 18.109375 -20.796875 
L 9.078125 -20.796875 
L 9.078125 54.6875 
L 18.109375 54.6875 
L 18.109375 46.390625 
Q 20.953125 51.265625 25.265625 53.625 
Q 29.59375 56 35.59375 56 
Q 45.5625 56 51.78125 48.09375 
Q 58.015625 40.1875 58.015625 27.296875 
Q 58.015625 14.40625 51.78125 6.484375 
Q 45.5625 -1.421875 35.59375 -1.421875 
Q 29.59375 -1.421875 25.265625 0.953125 
Q 20.953125 3.328125 18.109375 8.203125 
z
M 48.6875 27.296875 
Q 48.6875 37.203125 44.609375 42.84375 
Q 40.53125 48.484375 33.40625 48.484375 
Q 26.265625 48.484375 22.1875 42.84375 
Q 18.109375 37.203125 18.109375 27.296875 
Q 18.109375 17.390625 22.1875 11.75 
Q 26.265625 6.109375 33.40625 6.109375 
Q 40.53125 6.109375 44.609375 11.75 
Q 48.6875 17.390625 48.6875 27.296875 
z
" id="DejaVuSans-112"/>
      </defs>
      <use xlink:href="#DejaVuSans-70"/>
      <use x="50.269531" xlink:href="#DejaVuSans-114"/>
      <use x="91.382812" xlink:href="#DejaVuSans-97"/>
      <use x="152.662109" xlink:href="#DejaVuSans-99"/>
      <use x="207.642578" xlink:href="#DejaVuSans-116"/>
      <use x="246.851562" xlink:href="#DejaVuSans-105"/>
      <use x="274.634766" xlink:href="#DejaVuSans-111"/>
      <use x="335.816406" xlink:href="#DejaVuSans-110"/>
      <use x="399.195312" xlink:href="#DejaVuSans-32"/>
      <use x="430.982422" xlink:href="#DejaVuSans-111"/>
      <use x="492.164062" xlink:href="#DejaVuSans-102"/>
      <use x="527.369141" xlink:href="#DejaVuSans-32"/>
      <use x="559.15625" xlink:href="#DejaVuSans-102"/>
      <use x="594.361328" xlink:href="#DejaVuSans-117"/>
      <use x="657.740234" xlink:href="#DejaVuSans-110"/>
      <use x="721.119141" xlink:href="#DejaVuSans-99"/>
      <use x="776.099609" xlink:href="#DejaVuSans-116"/>
      <use x="815.308594" xlink:href="#DejaVuSans-105"/>
      <use x="843.091797" xlink:href="#DejaVuSans-111"/>
      <use x="904.273438" xlink:href="#DejaVuSans-110"/>
      <use x="967.652344" xlink:href="#DejaVuSans-44"/>
      <use x="999.439453" xlink:href="#DejaVuSans-116"/>
      <use x="1038.648438" xlink:href="#DejaVuSans-97"/>
      <use x="1099.927734" xlink:href="#DejaVuSans-114"/>
      <use x="1139.291016" xlink:href="#DejaVuSans-103"/>
      <use x="1202.767578" xlink:href="#DejaVuSans-101"/>
      <use x="1264.291016" xlink:href="#DejaVuSans-116"/>
      <use x="1303.5" xlink:href="#DejaVuSans-32"/>
      <use x="1335.287109" xlink:href="#DejaVuSans-112"/>
      <use x="1398.763672" xlink:href="#DejaVuSans-97"/>
      <use x="1460.042969" xlink:href="#DejaVuSans-105"/>
      <use x="1487.826172" xlink:href="#DejaVuSans-114"/>
      <use x="1528.939453" xlink:href="#DejaVuSans-115"/>
     </g>
    </g>
   </g>
   <g id="line2d_33">
    <defs>
     <path d="M 0 1.5 
C 0.397805 1.5 0.77937 1.341951 1.06066 1.06066 
C 1.341951 0.77937 1.5 0.397805 1.5 0 
C 1.5 -0.397805 1.341951 -0.77937 1.06066 -1.06066 
C 0.77937 -1.341951 0.397805 -1.5 0 -1.5 
C -0.397805 -1.5 -0.77937 -1.341951 -1.06066 -1.06066 
C -1.341951 -0.77937 -1.5 -0.397805 -1.5 0 
C -1.5 0.397805 -1.341951 0.77937 -1.06066 1.06066 
C -0.77937 1.341951 -0.397805 1.5 0 1.5 
z
" id="mee9fc04115" style="stroke:#f5deb3;"/>
    </defs>
    <g>
     <use style="fill:#f5deb3;stroke:#f5deb3;" x="212.133721" xlink:href="#mee9fc04115" y="6.381624"/>
     <use style="fill:#f5deb3;stroke:#f5deb3;" x="212.133721" xlink:href="#mee9fc04115" y="6.381624"/>
    </g>
   </g>
   <g id="line2d_34">
    <defs>
     <path d="M 0 1.5 
C 0.397805 1.5 0.77937 1.341951 1.06066 1.06066 
C 1.341951 0.77937 1.5 0.397805 1.5 0 
C 1.5 -0.397805 1.341951 -0.77937 1.06066 -1.06066 
C 0.77937 -1.341951 0.397805 -1.5 0 -1.5 
C -0.397805 -1.5 -0.77937 -1.341951 -1.06066 -1.06066 
C -1.341951 -0.77937 -1.5 -0.397805 -1.5 0 
C -1.5 0.397805 -1.341951 0.77937 -1.06066 1.06066 
C -0.77937 1.341951 -0.397805 1.5 0 1.5 
z
" id="m298b49acbc" style="stroke:#000080;"/>
    </defs>
    <g>
     <use style="fill:#000080;stroke:#000080;" x="289.915971" xlink:href="#m298b49acbc" y="113.080843"/>
     <use style="fill:#000080;stroke:#000080;" x="289.915971" xlink:href="#m298b49acbc" y="113.080843"/>
    </g>
   </g>
   <g id="line2d_35">
    <path d="M 62.833608 298.944 
L 62.833608 298.82927 
L 72.500389 298.82927 
L 72.500389 298.714539 
L 74.263433 298.714539 
L 74.263433 298.485079 
L 78.421149 298.485079 
L 78.421149 298.370348 
L 81.556612 298.370348 
L 81.556612 298.255618 
L 81.775977 298.255618 
L 81.775977 298.140888 
L 81.992617 298.140888 
L 81.992617 298.026157 
L 82.833227 298.026157 
L 82.833227 297.681966 
L 83.037197 297.681966 
L 83.037197 297.452506 
L 84.02273 297.452506 
L 84.02273 297.337775 
L 84.401859 297.337775 
L 84.401859 297.108315 
L 85.66744 297.108315 
L 85.66744 296.993584 
L 86.182924 296.993584 
L 86.182924 296.878854 
L 87.170317 296.878854 
L 87.170317 296.764123 
L 87.487404 296.764123 
L 87.487404 296.649393 
L 87.643811 296.649393 
L 87.643811 296.534663 
L 87.798828 296.534663 
L 87.798828 296.419932 
L 87.952479 296.419932 
L 87.952479 296.305202 
L 88.991722 296.305202 
L 88.991722 296.190472 
L 89.418828 296.190472 
L 89.418828 295.961011 
L 89.558903 295.961011 
L 89.558903 295.73155 
L 89.972502 295.73155 
L 89.972502 295.61682 
L 90.242884 295.61682 
L 90.242884 295.50209 
L 91.029752 295.50209 
L 91.029752 295.387359 
L 91.410261 295.387359 
L 91.410261 295.157899 
L 92.026554 295.157899 
L 92.026554 295.043168 
L 92.267099 295.043168 
L 92.267099 294.813708 
L 92.386139 294.813708 
L 92.386139 294.698977 
L 92.621809 294.698977 
L 92.621809 294.584247 
L 92.854336 294.584247 
L 92.854336 294.354786 
L 93.533875 294.354786 
L 93.644601 294.010595 
L 93.754628 294.010595 
L 93.754628 293.895865 
L 94.080605 293.895865 
L 94.080605 293.666404 
L 94.505975 293.666404 
L 94.505975 293.551674 
L 94.818328 293.551674 
L 94.818328 293.436944 
L 95.125186 293.436944 
L 95.125186 293.207483 
L 95.624913 293.207483 
L 95.624913 292.978022 
L 95.820862 292.978022 
L 95.820862 292.863292 
L 96.110718 292.863292 
L 96.206276 292.17491 
L 96.301313 292.17491 
L 96.395835 291.830719 
L 96.676366 291.830719 
L 96.768882 291.601258 
L 96.952455 291.601258 
L 96.952455 291.486528 
L 97.313904 291.486528 
L 97.313904 291.257067 
L 98.18605 291.257067 
L 98.270913 290.453955 
L 98.43941 290.453955 
L 98.523051 289.995033 
L 98.606294 289.995033 
L 98.689141 289.765573 
L 98.853664 289.765573 
L 98.853664 289.650842 
L 99.258306 289.650842 
L 99.258306 289.306651 
L 99.731799 289.306651 
L 99.731799 289.07719 
L 99.886816 289.07719 
L 99.886816 288.618269 
L 100.040467 288.618269 
L 100.040467 288.503539 
L 100.192776 288.503539 
L 100.268435 284.258516 
L 100.343767 284.258516 
L 100.418775 280.587145 
L 100.567829 280.587145 
L 100.567829 280.357684 
L 100.715621 280.357684 
L 100.715621 276.686313 
L 100.934985 276.686313 
L 100.934985 276.456853 
L 101.151625 276.456853 
L 101.151625 276.342122 
L 101.294571 276.342122 
L 101.365607 275.997931 
L 101.646892 275.997931 
L 101.71651 275.42428 
L 101.923711 275.42428 
L 101.923711 275.309549 
L 102.12848 275.309549 
L 102.196206 271.752909 
L 102.464508 271.752909 
L 102.464508 271.523448 
L 102.728744 271.523448 
L 102.794183 268.310998 
L 102.859376 268.310998 
L 102.859376 268.196268 
L 102.989037 268.196268 
L 102.989037 267.966807 
L 103.117741 267.966807 
L 103.117741 267.852077 
L 103.309033 267.852077 
L 103.372333 263.033402 
L 103.435405 263.033402 
L 103.435405 259.706222 
L 103.560868 259.706222 
L 103.560868 256.608503 
L 103.685435 256.608503 
L 103.685435 253.166593 
L 103.870632 253.166593 
L 103.93193 249.495222 
L 104.23523 249.495222 
L 104.23523 246.971154 
L 104.533344 246.971154 
L 104.592361 244.217626 
L 104.768221 244.217626 
L 104.768221 243.873435 
L 105.398279 243.873435 
L 105.398279 241.349368 
L 105.732589 241.349368 
L 105.787689 238.251648 
L 105.897371 238.251648 
L 106.006367 238.022188 
L 106.275913 238.022188 
L 106.275913 234.465547 
L 107.514726 234.465547 
L 107.514726 234.236086 
L 107.90885 234.236086 
L 108.006005 234.006626 
L 108.198707 234.006626 
L 108.198707 233.662434 
L 108.810674 233.662434 
L 108.902946 233.318243 
L 108.948899 233.318243 
L 108.948899 233.203513 
L 109.357119 233.203513 
L 109.357119 233.088783 
L 109.491096 233.088783 
L 109.491096 232.974052 
L 110.274038 232.974052 
L 110.274038 232.859322 
L 110.401178 232.859322 
L 110.401178 232.744592 
L 110.818406 232.744592 
L 110.818406 232.629861 
L 111.702614 232.629861 
L 111.780817 232.05621 
L 111.819788 232.05621 
L 111.897469 231.712019 
L 112.242812 231.712019 
L 112.242812 231.597288 
L 112.766778 231.597288 
L 112.766778 231.482558 
L 113.022974 231.482558 
L 113.022974 231.367828 
L 113.839203 231.367828 
L 113.942906 230.794176 
L 113.977337 230.794176 
L 113.977337 230.564715 
L 114.182507 230.564715 
L 114.182507 230.220524 
L 114.452366 230.220524 
L 114.552496 229.991063 
L 114.618932 229.991063 
L 114.618932 229.876333 
L 115.523393 229.876333 
L 115.523393 229.761603 
L 116.141872 229.761603 
L 116.141872 229.646872 
L 116.413189 229.646872 
L 116.413189 229.532142 
L 116.680349 229.532142 
L 116.680349 229.302681 
L 116.972471 229.302681 
L 116.972471 229.073221 
L 117.087964 229.073221 
L 117.145424 228.84376 
L 117.345058 228.84376 
L 117.429921 228.614299 
L 117.458117 228.614299 
L 117.458117 228.499569 
L 117.570448 228.499569 
L 117.570448 228.270108 
L 117.820578 228.270108 
L 117.875678 227.925917 
L 117.985359 227.925917 
L 118.012672 227.696457 
L 118.497128 227.696457 
L 118.497128 227.466996 
L 118.708196 227.466996 
L 118.708196 227.352266 
L 119.020084 227.352266 
L 119.071527 226.778614 
L 119.552816 226.778614 
L 119.65247 226.434423 
L 119.850084 226.434423 
L 119.874629 226.090232 
L 120.142369 226.090232 
L 120.142369 225.860771 
L 120.33454 225.860771 
L 120.33454 225.746041 
L 120.453579 225.746041 
L 120.47729 225.40185 
L 120.689249 225.40185 
L 120.689249 225.172389 
L 121.013926 225.172389 
L 121.013926 224.828198 
L 121.467509 224.828198 
L 121.512225 224.369277 
L 121.667835 224.369277 
L 121.667835 224.139816 
L 122.104932 224.139816 
L 122.104932 223.910355 
L 122.40451 223.910355 
L 122.40451 223.795625 
L 122.573415 223.795625 
L 122.573415 223.680895 
L 122.823744 223.680895 
L 122.906394 223.336704 
L 123.029641 223.336704 
L 123.131685 222.992513 
L 123.333999 222.992513 
L 123.333999 222.763052 
L 123.553867 222.763052 
L 123.553867 222.648321 
L 123.751369 222.648321 
L 123.751369 222.533591 
L 123.985457 222.533591 
L 123.985457 222.30413 
L 124.235556 222.30413 
L 124.330801 222.07467 
L 124.406624 222.07467 
L 124.500941 221.615748 
L 124.538526 221.615748 
L 124.538526 221.386288 
L 124.836322 221.386288 
L 124.854767 221.156827 
L 124.983335 221.156827 
L 125.019895 220.927366 
L 125.219619 220.927366 
L 125.291682 220.583175 
L 125.576994 220.583175 
L 125.576994 220.468445 
L 125.735454 220.468445 
L 125.840299 220.124254 
L 125.875108 220.124254 
L 125.892487 219.894793 
L 126.116845 219.894793 
L 126.116845 219.780063 
L 126.321413 219.780063 
L 126.355276 219.435872 
L 126.439646 219.435872 
L 126.439646 219.321142 
L 126.590491 219.321142 
L 126.607172 219.091681 
L 126.72349 219.091681 
L 126.72349 218.86222 
L 126.888323 218.86222 
L 126.888323 218.74749 
L 127.002787 218.74749 
L 127.002787 218.632759 
L 127.132689 218.632759 
L 127.148859 218.288568 
L 127.261631 218.288568 
L 127.325746 217.944377 
L 127.421479 217.944377 
L 127.469149 217.714917 
L 127.689902 217.714917 
L 127.783662 217.485456 
L 127.907896 217.485456 
L 127.954256 217.141265 
L 128.046609 217.141265 
L 128.123198 216.567613 
L 128.245045 216.567613 
L 128.245045 216.452883 
L 128.709321 216.452883 
L 128.783061 216.108692 
L 128.856489 216.108692 
L 128.856489 215.993962 
L 129.089405 215.993962 
L 129.118302 215.649771 
L 129.31925 215.649771 
L 129.347769 214.846658 
L 129.46138 214.846658 
L 129.47553 214.617197 
L 129.756136 214.617197 
L 129.79784 214.273006 
L 130.045992 214.273006 
L 130.114301 214.043546 
L 130.371462 214.043546 
L 130.398313 213.814085 
L 130.491965 213.814085 
L 130.505303 213.469894 
L 130.624887 213.469894 
L 130.638123 213.125703 
L 130.783067 213.125703 
L 130.835477 212.896242 
L 131.043554 212.896242 
L 131.056477 212.552051 
L 131.223607 212.552051 
L 131.223607 212.437321 
L 131.338382 212.437321 
L 131.376473 212.20786 
L 131.502845 212.20786 
L 131.502845 211.9784 
L 131.690703 211.9784 
L 131.690703 211.863669 
L 131.913493 211.863669 
L 132.023829 211.519478 
L 132.145613 211.519478 
L 132.218276 210.945826 
L 132.266551 210.945826 
L 132.266551 210.831096 
L 132.410579 210.831096 
L 132.505941 210.372175 
L 132.553427 210.372175 
L 132.577122 209.798523 
L 132.683351 209.798523 
L 132.683351 209.569062 
L 132.858975 209.569062 
L 132.917126 209.110141 
L 133.067415 209.110141 
L 133.147807 208.65122 
L 133.205004 208.65122 
L 133.284766 208.192298 
L 133.46572 208.192298 
L 133.488207 207.618646 
L 133.622529 207.618646 
L 133.667073 207.389186 
L 133.733678 207.389186 
L 133.733678 207.159725 
L 133.888106 207.159725 
L 133.888106 207.044995 
L 134.03029 207.044995 
L 134.095524 206.586073 
L 134.171324 206.586073 
L 134.246796 206.127152 
L 134.332651 206.127152 
L 134.439378 205.897691 
L 134.503103 205.897691 
L 134.534878 205.094579 
L 134.61933 205.094579 
L 134.713852 204.865118 
L 134.766144 204.865118 
L 134.766144 204.750388 
L 135.025276 204.750388 
L 135.086899 204.291467 
L 135.168726 204.291467 
L 135.260324 203.947275 
L 135.311005 203.947275 
L 135.351444 203.717815 
L 135.512269 203.717815 
L 135.512269 203.488354 
L 135.691441 203.488354 
L 135.800036 202.799972 
L 135.858985 202.799972 
L 135.917737 201.882129 
L 136.015217 201.882129 
L 136.121821 201.537938 
L 136.141133 201.537938 
L 136.218171 201.079017 
L 136.266147 201.079017 
L 136.361705 200.505365 
L 136.560688 200.505365 
L 136.570107 200.275904 
L 136.692093 200.275904 
L 136.79465 199.587522 
L 136.896607 199.587522 
L 136.896607 199.472792 
L 137.016339 199.472792 
L 137.016339 199.358062 
L 137.198951 199.358062 
L 137.298578 198.89914 
L 137.388657 198.89914 
L 137.48721 198.325489 
L 137.585209 198.325489 
L 137.691492 197.637107 
L 137.726777 197.637107 
L 137.823442 196.719264 
L 137.963097 196.719264 
L 137.963097 196.604533 
L 138.161911 196.604533 
L 138.264747 196.260342 
L 138.281828 196.260342 
L 138.366981 195.916151 
L 138.536049 195.916151 
L 138.628343 194.998309 
L 138.703494 194.998309 
L 138.794909 194.539387 
L 138.836303 194.539387 
L 138.935249 193.621545 
L 138.951686 193.621545 
L 139.058148 192.933162 
L 139.180187 192.933162 
L 139.244927 192.588971 
L 139.413734 192.588971 
L 139.477614 191.900589 
L 139.541262 191.900589 
L 139.604677 191.441668 
L 139.659977 191.441668 
L 139.730821 191.212207 
L 139.817018 191.212207 
L 139.910568 190.753286 
L 139.941641 190.753286 
L 140.04996 189.835443 
L 140.080785 189.835443 
L 140.12692 189.605983 
L 140.2646 189.605983 
L 140.355786 189.261791 
L 140.408758 189.261791 
L 140.506711 188.68814 
L 140.559227 188.68814 
L 140.611586 188.343949 
L 140.686113 188.343949 
L 140.767727 188.114488 
L 140.841591 188.114488 
L 140.929817 187.311376 
L 141.075875 187.311376 
L 141.119455 186.737724 
L 141.19907 186.737724 
L 141.299876 185.934612 
L 141.371524 185.934612 
L 141.435758 185.47569 
L 141.499755 185.47569 
L 141.549369 185.016769 
L 141.620002 185.016769 
L 141.620002 184.443117 
L 141.760416 184.443117 
L 141.816266 184.098926 
L 141.885829 184.098926 
L 141.955115 183.410544 
L 142.106582 183.410544 
L 142.209106 182.836892 
L 142.243147 182.836892 
L 142.304254 182.607432 
L 142.385399 182.607432 
L 142.42583 182.263241 
L 142.553247 182.263241 
L 142.653186 181.574858 
L 142.673105 181.574858 
L 142.752555 181.001207 
L 142.792145 181.001207 
L 142.890728 180.542285 
L 142.930005 180.542285 
L 143.040814 179.968634 
L 143.060296 179.968634 
L 143.150923 179.394982 
L 143.260342 179.394982 
L 143.349938 179.050791 
L 143.420014 179.050791 
L 143.508796 178.477139 
L 143.540394 178.477139 
L 143.565632 178.247679 
L 143.691276 178.247679 
L 143.791143 177.788757 
L 143.834656 177.788757 
L 143.86567 177.559296 
L 143.983024 177.559296 
L 144.019919 177.329836 
L 144.117927 177.329836 
L 144.117927 177.215105 
L 144.330419 177.215105 
L 144.414696 176.756184 
L 144.582038 176.756184 
L 144.647343 176.526723 
L 144.694684 176.526723 
L 144.736002 176.182532 
L 145.474772 176.182532 
L 145.474772 176.067802 
L 145.671447 176.067802 
L 145.671447 175.953072 
L 161.871884 175.953072 
L 161.871884 175.838341 
L 163.287113 175.838341 
L 163.287113 175.723611 
L 164.362309 175.723611 
L 164.362309 175.608881 
L 164.488129 175.608881 
L 164.488129 175.49415 
L 164.641313 175.49415 
L 164.641313 175.37942 
L 165.313559 175.37942 
L 165.313559 175.26469 
L 165.577863 175.26469 
L 165.577863 175.149959 
L 165.84701 175.149959 
L 165.917153 174.805768 
L 166.268843 174.805768 
L 166.268843 174.691038 
L 166.458189 174.691038 
L 166.458189 174.576308 
L 166.740913 174.576308 
L 166.819194 174.232116 
L 167.068343 174.232116 
L 167.068343 174.117386 
L 167.397779 174.117386 
L 167.397779 174.002656 
L 167.532297 174.002656 
L 167.621403 173.658465 
L 167.678446 173.658465 
L 167.678446 173.543734 
L 167.843764 173.543734 
L 167.926618 173.199543 
L 168.148225 173.199543 
L 168.148225 173.084813 
L 168.260276 173.084813 
L 168.33204 172.625892 
L 168.400474 172.625892 
L 168.427772 172.396431 
L 168.577156 172.396431 
L 168.577156 172.281701 
L 168.699926 172.281701 
L 168.769907 171.93751 
L 169.055827 171.93751 
L 169.055827 171.822779 
L 169.223129 171.822779 
L 169.250616 171.593319 
L 169.595563 171.593319 
L 169.70576 171.249128 
L 169.763406 171.249128 
L 169.820862 170.904937 
L 169.892068 170.904937 
L 169.976857 170.675476 
L 170.258818 170.675476 
L 170.258818 170.560745 
L 170.374405 170.560745 
L 170.47037 170.101824 
L 170.591263 170.101824 
L 170.591263 169.987094 
L 170.741872 169.987094 
L 170.784287 169.757633 
L 170.866174 169.757633 
L 170.9621 169.528172 
L 170.996138 169.528172 
L 171.105655 169.183981 
L 171.153678 169.183981 
L 171.22611 168.83979 
L 171.277663 168.83979 
L 171.384153 168.495599 
L 171.435242 168.495599 
L 171.514136 168.266139 
L 171.668344 168.266139 
L 171.7048 167.921948 
L 171.80123 167.921948 
L 171.828683 167.692487 
L 172.16581 167.692487 
L 172.200021 167.463026 
L 172.484538 167.463026 
L 172.484538 167.348296 
L 172.60183 167.348296 
L 172.711227 166.774644 
L 172.777482 166.774644 
L 172.857598 166.315723 
L 172.942027 166.315723 
L 172.999253 165.627341 
L 173.063263 165.627341 
L 173.158262 165.39788 
L 173.17443 165.39788 
L 173.253896 164.824228 
L 173.298652 164.824228 
L 173.402638 164.250577 
L 173.492411 164.250577 
L 173.579469 163.791655 
L 173.608767 163.791655 
L 173.713164 162.644352 
L 173.737769 162.644352 
L 173.822502 162.0707 
L 173.875806 162.0707 
L 173.985234 161.497048 
L 174.058903 161.497048 
L 174.166101 161.038127 
L 174.37423 161.038127 
L 174.414054 160.808666 
L 174.492361 160.808666 
L 174.492361 160.693936 
L 174.651109 160.693936 
L 174.714629 160.349745 
L 174.783181 160.349745 
L 174.881845 159.776093 
L 174.925749 159.776093 
L 175.000757 159.317172 
L 175.0454 159.317172 
L 175.155995 158.62879 
L 175.161145 158.62879 
L 175.259748 157.825677 
L 175.28738 157.825677 
L 175.388324 156.678374 
L 175.435029 156.678374 
L 175.545203 155.41634 
L 175.567356 155.41634 
L 175.6767 154.039576 
L 175.687696 154.039576 
L 175.798277 151.97443 
L 175.812174 151.97443 
L 175.899277 150.368205 
L 175.932814 150.368205 
L 176.03206 148.188328 
L 176.045773 148.188328 
L 176.142433 145.4348 
L 176.157031 145.4348 
L 176.261784 143.828575 
L 176.281114 143.828575 
L 176.386086 141.763429 
L 176.40336 141.763429 
L 176.510461 139.583553 
L 176.517133 139.583553 
L 176.613118 137.633137 
L 176.629222 137.633137 
L 176.730243 135.567991 
L 176.751882 135.567991 
L 176.853131 133.502844 
L 176.864345 133.502844 
L 176.97516 130.749316 
L 176.98444 130.749316 
L 177.095419 128.913631 
L 177.101871 128.913631 
L 177.204779 127.192676 
L 177.231326 127.192676 
L 177.338932 125.127529 
L 177.345294 125.127529 
L 177.451297 123.406574 
L 177.460328 123.406574 
L 177.55666 122.02981 
L 177.588056 122.02981 
L 177.693489 120.882507 
L 177.709516 120.882507 
L 177.813334 120.079394 
L 177.823063 120.079394 
L 177.886611 119.505743 
L 177.945538 119.505743 
L 178.033993 119.161552 
L 178.093296 119.161552 
L 178.20438 118.5879 
L 178.229449 118.5879 
L 178.326791 118.014248 
L 178.414194 118.014248 
L 178.427864 117.784787 
L 178.528355 117.784787 
L 178.61391 117.555327 
L 178.675487 117.555327 
L 178.675487 117.440596 
L 218.402405 117.440596 
L 218.513375 116.408023 
L 218.531802 116.408023 
L 218.531802 116.293293 
L 230.418706 116.293293 
L 230.465954 115.834372 
L 237.454046 115.834372 
L 237.454046 115.719641 
L 246.326522 115.719641 
L 246.326522 115.604911 
L 252.192329 115.604911 
L 252.193535 115.37545 
L 254.509196 115.37545 
L 254.513473 115.031259 
L 256.568047 115.031259 
L 256.568047 114.916529 
L 260.056532 114.916529 
L 260.056564 114.687068 
L 265.463143 114.687068 
L 265.463259 114.457607 
L 266.590004 114.457607 
L 266.590004 114.342877 
L 268.642135 114.342877 
L 268.642164 114.113416 
L 271.325291 114.113416 
L 271.325291 113.998686 
L 272.136152 113.998686 
L 272.136152 113.883956 
L 273.654226 113.883956 
L 273.654226 113.769225 
L 274.364653 113.769225 
L 274.364653 113.654495 
L 281.200894 113.654495 
L 281.200894 113.539765 
L 282.55824 113.539765 
L 282.55824 113.425034 
L 284.995744 113.425034 
L 284.995744 113.310304 
L 286.097326 113.310304 
L 286.097326 113.195574 
L 289.915971 113.195574 
L 289.915971 113.080843 
L 338.688 113.080843 
L 338.688 113.080843 
" style="fill:none;stroke:#000080;stroke-linecap:square;stroke-width:1.5;"/>
   </g>
   <g id="line2d_36">
    <defs>
     <path d="M 0 6 
C 1.591219 6 3.117479 5.367802 4.242641 4.242641 
C 5.367802 3.117479 6 1.591219 6 0 
C 6 -1.591219 5.367802 -3.117479 4.242641 -4.242641 
C 3.117479 -5.367802 1.591219 -6 0 -6 
C -1.591219 -6 -3.117479 -5.367802 -4.242641 -4.242641 
C -5.367802 -3.117479 -6 -1.591219 -6 0 
C -6 1.591219 -5.367802 3.117479 -4.242641 4.242641 
C -3.117479 5.367802 -1.591219 6 0 6 
z
" id="mcb953e9f2c" style="stroke:#000080;stroke-width:1.5;"/>
    </defs>
    <g>
     <use style="fill-opacity:0;stroke:#000080;stroke-width:1.5;" x="104.592361" xlink:href="#mcb953e9f2c" y="246.856424"/>
     <use style="fill-opacity:0;stroke:#000080;stroke-width:1.5;" x="166.458189" xlink:href="#mcb953e9f2c" y="174.576308"/>
     <use style="fill-opacity:0;stroke:#000080;stroke-width:1.5;" x="230.465954" xlink:href="#mcb953e9f2c" y="115.834372"/>
     <use style="fill-opacity:0;stroke:#000080;stroke-width:1.5;" x="289.915971" xlink:href="#mcb953e9f2c" y="113.080843"/>
     <use style="fill-opacity:0;stroke:#000080;stroke-width:1.5;" x="338.688" xlink:href="#mcb953e9f2c" y="113.080843"/>
    </g>
   </g>
   <g id="line2d_37">
    <path style="fill:none;stroke:#000080;stroke-linecap:square;stroke-width:1.5;"/>
    <g/>
   </g>
   <g id="line2d_38">
    <path clip-path="url(#pe9b21f7647)" d="M 218.222237 117.440596 
" style="fill:none;stroke:#000080;stroke-linecap:square;stroke-width:1.5;"/>
    <defs>
     <path d="M -12 12 
L 12 -12 
M -12 -12 
L 12 12 
" id="m63ce00a90a" style="stroke:#000080;"/>
    </defs>
    <g clip-path="url(#pe9b21f7647)">
     <use style="fill:#000080;stroke:#000080;" x="218.222237" xlink:href="#m63ce00a90a" y="117.440596"/>
    </g>
   </g>
   <g id="line2d_39">
    <defs>
     <path d="M 0 1.5 
C 0.397805 1.5 0.77937 1.341951 1.06066 1.06066 
C 1.341951 0.77937 1.5 0.397805 1.5 0 
C 1.5 -0.397805 1.341951 -0.77937 1.06066 -1.06066 
C 0.77937 -1.341951 0.397805 -1.5 0 -1.5 
C -0.397805 -1.5 -0.77937 -1.341951 -1.06066 -1.06066 
C -1.341951 -0.77937 -1.5 -0.397805 -1.5 0 
C -1.5 0.397805 -1.341951 0.77937 -1.06066 1.06066 
C -0.77937 1.341951 -0.397805 1.5 0 1.5 
z
" id="m7086c39feb" style="stroke:#ff00ff;"/>
    </defs>
    <g>
     <use style="fill:#ff00ff;stroke:#ff00ff;" x="283.447142" xlink:href="#m7086c39feb" y="110.786236"/>
     <use style="fill:#ff00ff;stroke:#ff00ff;" x="283.447142" xlink:href="#m7086c39feb" y="110.786236"/>
    </g>
   </g>
   <g id="line2d_40">
    <path d="M 74.595619 298.944 
L 74.595619 298.714539 
L 81.556612 298.714539 
L 81.556612 298.599809 
L 81.992617 298.599809 
L 81.992617 298.485079 
L 84.02273 298.485079 
L 84.02273 298.370348 
L 84.772922 298.370348 
L 84.772922 298.255618 
L 86.351421 298.255618 
L 86.351421 298.140888 
L 86.847358 298.140888 
L 86.847358 298.026157 
L 89.277618 298.026157 
L 89.277618 297.796697 
L 91.410261 297.796697 
L 91.410261 297.681966 
L 93.754628 297.681966 
L 93.754628 297.567236 
L 94.400601 297.567236 
L 94.505975 297.223045 
L 94.610715 297.223045 
L 94.610715 297.108315 
L 95.526106 297.108315 
L 95.526106 296.993584 
L 95.820862 296.993584 
L 95.820862 296.878854 
L 96.206276 296.878854 
L 96.206276 296.764123 
L 96.768882 296.764123 
L 96.768882 296.649393 
L 97.403108 296.649393 
L 97.403108 296.534663 
L 97.842408 296.534663 
L 97.928955 296.305202 
L 98.100772 296.305202 
L 98.100772 296.190472 
L 98.523051 296.190472 
L 98.606294 295.961011 
L 98.935347 295.961011 
L 98.935347 295.846281 
L 99.80948 295.846281 
L 99.886816 295.61682 
L 100.493461 295.61682 
L 100.493461 295.50209 
L 100.934985 295.50209 
L 100.934985 295.387359 
L 101.785851 295.387359 
L 101.854917 295.157899 
L 101.923711 295.157899 
L 101.923711 295.043168 
L 102.12848 295.043168 
L 102.12848 294.928438 
L 102.330873 294.928438 
L 102.330873 294.813708 
L 102.464508 294.813708 
L 102.530943 294.354786 
L 103.623262 294.354786 
L 103.623262 294.240056 
L 104.414709 294.240056 
L 104.414709 294.125326 
L 105.057436 294.125326 
L 105.057436 294.010595 
L 105.22869 294.010595 
L 105.285403 293.781135 
L 105.566235 293.781135 
L 105.566235 293.666404 
L 105.732589 293.666404 
L 105.732589 293.551674 
L 107.614095 293.551674 
L 107.712901 293.092752 
L 107.860069 293.092752 
L 107.860069 292.863292 
L 108.198707 292.863292 
L 108.198707 292.748561 
L 108.341848 292.748561 
L 108.341848 292.633831 
L 108.856871 292.633831 
L 108.948899 292.28964 
L 109.579846 292.28964 
L 109.579846 292.17491 
L 109.71213 292.17491 
L 109.71213 292.060179 
L 109.886961 292.060179 
L 109.973724 291.486528 
L 110.103064 291.486528 
L 110.103064 291.142337 
L 110.316522 291.142337 
L 110.358901 290.912876 
L 111.663381 290.912876 
L 111.663381 290.798146 
L 111.936179 290.798146 
L 112.013345 290.224494 
L 112.051799 290.224494 
L 112.051799 290.109764 
L 112.431755 290.109764 
L 112.431755 289.995033 
L 112.766778 289.995033 
L 112.803609 289.765573 
L 113.489005 289.765573 
L 113.489005 289.650842 
L 113.664983 289.650842 
L 113.664983 289.536112 
L 113.839203 289.536112 
L 113.942906 288.732999 
L 113.977337 288.732999 
L 113.977337 288.503539 
L 114.182507 288.503539 
L 114.182507 288.388808 
L 114.519183 288.388808 
L 114.552496 288.159348 
L 114.783921 288.159348 
L 114.783921 288.044617 
L 114.914798 288.044617 
L 114.914798 287.929887 
L 115.4287 287.929887 
L 115.4287 287.815157 
L 115.648856 287.815157 
L 115.648856 287.700426 
L 115.773423 287.700426 
L 115.866268 287.470966 
L 116.050487 287.470966 
L 116.141872 287.241505 
L 116.35326 287.241505 
L 116.35326 287.126775 
L 116.943478 287.126775 
L 117.001416 286.667853 
L 117.202696 286.667853 
L 117.202696 286.438393 
L 117.316679 286.438393 
L 117.40168 285.864741 
L 117.429921 285.864741 
L 117.429921 285.75001 
L 118.06717 285.75001 
L 118.148599 285.52055 
L 118.229649 285.52055 
L 118.337133 282.996482 
L 118.497128 282.996482 
L 118.576578 282.767022 
L 118.655668 282.767022 
L 118.655668 282.652291 
L 119.097192 282.652291 
L 119.097192 282.537561 
L 119.62761 282.537561 
L 119.702083 282.078639 
L 119.923616 282.078639 
L 119.996839 281.734448 
L 120.045484 281.734448 
L 120.045484 281.619718 
L 120.262724 281.619718 
L 120.262724 280.931336 
L 120.453579 280.931336 
L 120.453579 280.816606 
L 120.618882 280.816606 
L 120.618882 280.701875 
L 120.829137 280.701875 
L 120.852343 280.128224 
L 120.990934 280.128224 
L 120.990934 278.063077 
L 121.151244 278.063077 
L 121.151244 277.833617 
L 121.556827 277.833617 
L 121.556827 276.571583 
L 121.909593 276.571583 
L 122.018385 275.53901 
L 122.148045 275.53901 
L 122.169562 274.162246 
L 122.552391 274.162246 
L 122.552391 274.047515 
L 123.090939 274.047515 
L 123.090939 273.932785 
L 123.868806 273.932785 
L 123.927229 273.703324 
L 124.004823 273.703324 
L 124.004823 273.588594 
L 124.946698 273.588594 
L 125.038147 273.244403 
L 125.110962 273.244403 
L 125.201556 272.670751 
L 125.523852 272.670751 
L 125.523852 272.556021 
L 125.822869 272.556021 
L 125.909848 268.99938 
L 126.490073 268.99938 
L 126.490073 268.88465 
L 126.822577 268.88465 
L 126.888323 266.704773 
L 127.783662 266.704773 
L 127.783662 266.590043 
L 127.923363 266.590043 
L 127.923363 266.475313 
L 128.827155 266.475313 
L 128.827155 266.360582 
L 129.118302 266.360582 
L 129.118302 266.245852 
L 129.728278 266.245852 
L 129.728278 266.131122 
L 130.018593 266.131122 
L 130.018593 266.016391 
L 130.277159 266.016391 
L 130.277159 265.901661 
L 130.465258 265.901661 
L 130.465258 265.786931 
L 131.004728 265.786931 
L 131.004728 265.6722 
L 131.223607 265.6722 
L 131.26195 265.44274 
L 132.314693 265.44274 
L 132.314693 265.328009 
L 132.48215 265.328009 
L 132.541568 265.098549 
L 132.612604 265.098549 
L 132.612604 264.983818 
L 132.905511 264.983818 
L 132.998212 261.771369 
L 133.633675 261.771369 
L 133.633675 261.656638 
L 134.062938 261.656638 
L 134.062938 261.541908 
L 134.37542 261.541908 
L 134.439378 261.312447 
L 136.266147 261.312447 
L 136.266147 261.197717 
L 136.720123 261.197717 
L 136.720123 261.082987 
L 137.089613 261.082987 
L 137.089613 260.968256 
L 137.442482 260.968256 
L 137.442482 260.738796 
L 137.638431 260.738796 
L 137.638431 260.624065 
L 138.753416 260.624065 
L 138.836303 260.394605 
L 140.438956 260.394605 
L 140.438956 260.279874 
L 140.641435 260.279874 
L 140.671233 260.050414 
L 141.400102 260.050414 
L 141.400102 259.935683 
L 142.398886 259.935683 
L 142.398886 259.820953 
L 142.686372 259.820953 
L 142.792145 259.591492 
L 142.988757 259.591492 
L 143.099194 259.362031 
L 143.647403 259.362031 
L 143.666219 259.132571 
L 143.853271 259.132571 
L 143.853271 259.01784 
L 144.197155 259.01784 
L 144.197155 258.90311 
L 144.46866 258.90311 
L 144.570138 258.673649 
L 145.491717 258.673649 
L 145.491717 258.558919 
L 146.041862 258.558919 
L 146.041862 258.444189 
L 146.156362 258.444189 
L 146.156362 258.329458 
L 146.47942 258.329458 
L 146.47942 258.214728 
L 146.591092 258.214728 
L 146.591092 258.099998 
L 146.78088 258.099998 
L 146.833235 257.870537 
L 147.02042 257.870537 
L 147.051423 257.641076 
L 147.96658 257.641076 
L 148.064279 257.411616 
L 148.373289 257.411616 
L 148.478259 257.067425 
L 148.812779 257.067425 
L 148.859383 256.723234 
L 149.18674 256.723234 
L 149.18674 256.608503 
L 149.699829 256.608503 
L 149.699829 256.493773 
L 150.18963 256.493773 
L 150.18963 256.379043 
L 150.305678 256.379043 
L 150.416702 256.149582 
L 150.820621 256.149582 
L 150.820621 256.034851 
L 150.944951 256.034851 
L 151.039674 255.69066 
L 151.060198 255.69066 
L 151.154299 255.231739 
L 151.195055 255.231739 
L 151.195055 255.117009 
L 151.361164 255.117009 
L 151.401439 254.887548 
L 152.684631 254.887548 
L 152.7555 254.658087 
L 153.189299 254.658087 
L 153.236437 254.313896 
L 153.513057 254.313896 
L 153.513057 254.199166 
L 153.809903 254.199166 
L 153.879842 253.969705 
L 154.125885 253.969705 
L 154.125885 253.854975 
L 154.327734 253.854975 
L 154.327734 253.740245 
L 154.530637 253.740245 
L 154.530637 253.625514 
L 154.737852 253.625514 
L 154.820715 253.396054 
L 155.225994 253.396054 
L 155.225994 253.281323 
L 155.482553 253.281323 
L 155.561959 252.937132 
L 155.685117 252.937132 
L 155.685117 252.822402 
L 155.972241 252.822402 
L 156.034038 252.592941 
L 156.196751 252.592941 
L 156.196751 252.478211 
L 156.427457 252.478211 
L 156.478647 252.24875 
L 156.571609 252.24875 
L 156.601491 252.019289 
L 156.770849 252.019289 
L 156.770849 251.904559 
L 156.941506 251.904559 
L 157.026213 251.675098 
L 157.072772 251.675098 
L 157.142378 251.445638 
L 157.188629 251.445638 
L 157.188629 251.330907 
L 157.318054 251.330907 
L 157.335239 251.101447 
L 157.753847 251.101447 
L 157.781772 250.871986 
L 157.959442 250.871986 
L 157.959442 250.757256 
L 158.290482 250.757256 
L 158.33379 250.527795 
L 158.406628 250.527795 
L 158.511304 250.183604 
L 158.739932 250.183604 
L 158.842632 249.954143 
L 159.092886 249.954143 
L 159.092886 249.839413 
L 159.479389 249.839413 
L 159.562728 249.609952 
L 159.728221 249.609952 
L 159.728221 249.495222 
L 159.934136 249.495222 
L 159.934136 249.380492 
L 160.144959 249.380492 
L 160.144959 249.265761 
L 160.420551 249.265761 
L 160.48519 248.92157 
L 160.637457 248.92157 
L 160.741375 248.462649 
L 160.783709 248.462649 
L 160.851699 248.233188 
L 161.155563 248.233188 
L 161.256448 248.003727 
L 161.33173 248.003727 
L 161.386278 247.774267 
L 161.575862 247.774267 
L 161.587082 247.544806 
L 161.738962 247.544806 
L 161.84317 247.085885 
L 161.93137 247.085885 
L 161.93137 246.971154 
L 162.045367 246.971154 
L 162.065021 246.741694 
L 162.201988 246.741694 
L 162.312084 246.397503 
L 162.337888 246.397503 
L 162.337888 246.282772 
L 162.655149 246.282772 
L 162.756137 246.053312 
L 162.806412 246.053312 
L 162.873221 245.823851 
L 162.966741 245.823851 
L 162.966741 245.709121 
L 163.098888 245.709121 
L 163.150238 245.47966 
L 163.278972 245.47966 
L 163.278972 245.36493 
L 163.396654 245.36493 
L 163.396654 245.250199 
L 163.593711 245.250199 
L 163.599708 245.020738 
L 164.020333 245.020738 
L 164.020333 244.906008 
L 164.146698 244.906008 
L 164.146698 244.791278 
L 164.354654 244.791278 
L 164.459613 244.561817 
L 164.493826 244.561817 
L 164.579067 244.217626 
L 164.622474 244.217626 
L 164.692077 243.873435 
L 164.841627 243.873435 
L 164.854652 243.643974 
L 164.965896 243.643974 
L 164.965896 243.529244 
L 165.100293 243.529244 
L 165.164364 243.299783 
L 165.270024 243.299783 
L 165.300872 242.955592 
L 165.466876 242.955592 
L 165.552863 242.726132 
L 165.725346 242.726132 
L 165.832947 242.26721 
L 165.938141 242.26721 
L 166.046178 241.923019 
L 166.070481 241.923019 
L 166.091286 241.693559 
L 166.284273 241.693559 
L 166.284273 241.578828 
L 166.414022 241.578828 
L 166.520851 241.119907 
L 166.549566 241.119907 
L 166.633748 240.775716 
L 166.672336 240.775716 
L 166.770935 240.316794 
L 166.839125 240.316794 
L 166.943389 239.857873 
L 167.04047 239.857873 
L 167.140278 239.513682 
L 167.27679 239.513682 
L 167.381695 239.169491 
L 167.409028 239.169491 
L 167.506754 238.71057 
L 167.527511 238.71057 
L 167.562581 238.481109 
L 167.668952 238.481109 
L 167.724262 237.907457 
L 167.788832 237.907457 
L 167.832791 237.677997 
L 167.921939 237.677997 
L 167.982673 237.448536 
L 168.07106 237.448536 
L 168.152844 236.874884 
L 168.191289 236.874884 
L 168.284739 236.415963 
L 168.403509 236.415963 
L 168.450489 236.186502 
L 168.595176 236.186502 
L 168.625169 235.957041 
L 168.725271 235.957041 
L 168.811464 235.61285 
L 168.886905 235.61285 
L 168.95908 235.38339 
L 169.016314 235.38339 
L 169.048517 235.039199 
L 169.169476 235.039199 
L 169.265066 234.695008 
L 169.344326 234.695008 
L 169.381669 234.465547 
L 169.46183 234.465547 
L 169.541624 233.777165 
L 169.592728 233.777165 
L 169.618225 233.547704 
L 169.709984 233.547704 
L 169.816664 232.974052 
L 169.917131 232.974052 
L 170.02532 232.515131 
L 170.277909 232.515131 
L 170.280634 232.28567 
L 170.505381 232.28567 
L 170.592601 231.941479 
L 170.64339 231.941479 
L 170.735235 231.482558 
L 170.755138 231.482558 
L 170.850355 231.023637 
L 170.91486 231.023637 
L 170.951613 230.794176 
L 171.08745 230.794176 
L 171.13163 230.449985 
L 171.248038 230.449985 
L 171.335479 229.991063 
L 171.408439 229.991063 
L 171.502706 229.532142 
L 171.536974 229.532142 
L 171.601519 229.073221 
L 171.753708 229.073221 
L 171.841148 228.614299 
L 171.93311 228.614299 
L 172.018424 228.270108 
L 172.103323 228.270108 
L 172.202462 227.466996 
L 172.281613 227.466996 
L 172.345886 227.237535 
L 172.407511 227.237535 
L 172.431619 226.893344 
L 172.537297 226.893344 
L 172.643529 226.434423 
L 172.657803 226.434423 
L 172.670877 226.204962 
L 172.857598 226.204962 
L 172.964239 225.63131 
L 173.037687 225.63131 
L 173.037687 225.51658 
L 173.187123 225.51658 
L 173.272271 225.172389 
L 173.420857 225.172389 
L 173.511669 224.942928 
L 173.533168 224.942928 
L 173.635768 224.484007 
L 173.653746 224.484007 
L 173.750059 224.025086 
L 173.772381 224.025086 
L 173.838066 223.566164 
L 173.895753 223.566164 
L 173.895753 223.451434 
L 174.053416 223.451434 
L 174.156284 222.992513 
L 174.253123 222.992513 
L 174.338634 222.533591 
L 174.382848 222.533591 
L 174.391462 222.30413 
L 174.501991 222.30413 
L 174.608634 221.845209 
L 174.639439 221.845209 
L 174.730473 221.501018 
L 174.788444 221.501018 
L 174.793704 221.042097 
L 174.923661 221.042097 
L 174.987238 220.697906 
L 175.1137 220.697906 
L 175.149812 220.468445 
L 175.330276 220.468445 
L 175.391374 220.009524 
L 175.448206 220.009524 
L 175.500813 219.435872 
L 175.577416 219.435872 
L 175.686697 218.97695 
L 175.705676 218.97695 
L 175.705676 218.86222 
L 175.84786 218.86222 
L 175.913094 218.632759 
L 175.964319 218.632759 
L 176.0301 218.173838 
L 176.087822 218.173838 
L 176.087822 218.059108 
L 176.242433 218.059108 
L 176.34475 217.600186 
L 176.356295 217.600186 
L 176.462729 216.797074 
L 176.518086 216.797074 
L 176.558063 216.567613 
L 176.682166 216.567613 
L 176.778188 216.108692 
L 176.800705 216.108692 
L 176.843781 215.649771 
L 176.960301 215.649771 
L 177.034468 215.305579 
L 177.116609 215.305579 
L 177.169932 214.846658 
L 177.297974 214.846658 
L 177.402453 214.273006 
L 177.474766 214.273006 
L 177.557558 213.928815 
L 177.603284 213.928815 
L 177.670312 213.355164 
L 177.733529 213.355164 
L 177.821295 213.010973 
L 177.847804 213.010973 
L 177.910381 212.09313 
L 177.994638 212.09313 
L 178.051456 211.863669 
L 178.218216 211.863669 
L 178.312182 211.404748 
L 178.432988 211.404748 
L 178.53939 211.060557 
L 178.56483 211.060557 
L 178.674645 210.486905 
L 178.704933 210.486905 
L 178.773727 210.142714 
L 178.950337 210.142714 
L 179.034677 208.995411 
L 179.129279 208.995411 
L 179.237237 208.307029 
L 179.288528 208.307029 
L 179.370443 207.733377 
L 179.449558 207.733377 
L 179.553957 206.815534 
L 179.636231 206.815534 
L 179.736352 206.127152 
L 179.791727 206.127152 
L 179.890962 205.782961 
L 179.932536 205.782961 
L 180.005247 205.43877 
L 180.120337 205.43877 
L 180.22466 204.750388 
L 180.302303 204.750388 
L 180.333723 204.176736 
L 180.454279 204.176736 
L 180.548312 203.717815 
L 180.588349 203.717815 
L 180.659885 203.258893 
L 180.712408 203.258893 
L 180.818473 202.570511 
L 180.830383 202.570511 
L 180.863095 202.341051 
L 180.946087 202.341051 
L 181.007335 201.99686 
L 181.07204 201.99686 
L 181.167919 201.423208 
L 181.197818 201.423208 
L 181.303153 200.964287 
L 181.312565 200.964287 
L 181.360997 200.734826 
L 181.499045 200.734826 
L 181.608275 199.816983 
L 181.648084 199.816983 
L 181.656603 199.587522 
L 181.75921 199.587522 
L 181.866127 198.89914 
L 181.876642 198.89914 
L 181.982147 198.210758 
L 181.988415 198.210758 
L 182.089094 197.866567 
L 182.10916 197.866567 
L 182.207771 197.292916 
L 182.224954 197.292916 
L 182.323597 196.489803 
L 182.344078 196.489803 
L 182.4468 196.260342 
L 182.485419 196.260342 
L 182.589333 195.686691 
L 182.615551 195.686691 
L 182.718695 194.654118 
L 182.779358 194.654118 
L 182.87757 194.309927 
L 182.989704 194.309927 
L 183.100467 193.621545 
L 183.117445 193.621545 
L 183.226106 193.047893 
L 183.237129 193.047893 
L 183.322486 192.703702 
L 183.397153 192.703702 
L 183.447181 192.359511 
L 183.518766 192.359511 
L 183.594505 192.01532 
L 183.672445 192.01532 
L 183.722952 191.671129 
L 183.842322 191.671129 
L 183.842322 191.556398 
L 183.976421 191.556398 
L 184.058862 190.982747 
L 184.105796 190.982747 
L 184.15445 190.638556 
L 184.22932 190.638556 
L 184.340418 190.064904 
L 184.341635 190.064904 
L 184.433875 189.605983 
L 184.468339 189.605983 
L 184.487658 189.376522 
L 184.615705 189.376522 
L 184.696378 188.68814 
L 184.757678 188.68814 
L 184.851885 188.114488 
L 184.903807 188.114488 
L 184.999574 187.311376 
L 185.041709 187.311376 
L 185.13905 186.967185 
L 185.294709 186.967185 
L 185.298741 186.737724 
L 185.407258 186.737724 
L 185.515673 186.278803 
L 185.539547 186.278803 
L 185.605884 186.049342 
L 185.654483 186.049342 
L 185.755205 185.705151 
L 185.8626 185.705151 
L 185.894913 185.47569 
L 185.988171 185.47569 
L 186.048412 184.902038 
L 186.120538 184.902038 
L 186.132622 184.672578 
L 186.280242 184.672578 
L 186.280242 184.557847 
L 186.427702 184.557847 
L 186.474606 184.328387 
L 186.544994 184.328387 
L 186.646048 183.984196 
L 186.689179 183.984196 
L 186.74652 183.640005 
L 186.860641 183.640005 
L 186.860641 183.525274 
L 187.03617 183.525274 
L 187.094982 182.951623 
L 187.199623 182.951623 
L 187.287717 182.607432 
L 187.3462 182.607432 
L 187.428462 182.377971 
L 187.474787 182.377971 
L 187.508816 181.91905 
L 187.620088 181.91905 
L 187.620088 181.804319 
L 187.764188 181.804319 
L 187.780182 181.574858 
L 187.933372 181.574858 
L 187.985291 181.230667 
L 188.079338 181.230667 
L 188.142081 180.886476 
L 188.19387 180.886476 
L 188.299415 180.312825 
L 188.368136 180.312825 
L 188.418778 179.968634 
L 188.562663 179.968634 
L 188.656506 179.394982 
L 188.732354 179.394982 
L 188.758351 179.050791 
L 188.884474 179.050791 
L 188.944859 178.59187 
L 189.128931 178.59187 
L 189.218403 178.132948 
L 189.26618 178.132948 
L 189.26618 178.018218 
L 189.380038 178.018218 
L 189.380038 177.903487 
L 189.508095 177.903487 
L 189.614995 177.674027 
L 189.644649 177.674027 
L 189.752056 177.444566 
L 189.795724 177.444566 
L 189.87742 176.985645 
L 189.910168 176.985645 
L 189.910168 176.870914 
L 190.104939 176.870914 
L 190.128096 176.297263 
L 190.316142 176.297263 
L 190.411343 175.953072 
L 190.577238 175.953072 
L 190.677376 175.723611 
L 190.713724 175.723611 
L 190.79124 175.49415 
L 190.839094 175.49415 
L 190.892668 175.26469 
L 190.991432 175.26469 
L 191.014687 175.035229 
L 191.20742 175.035229 
L 191.273784 174.805768 
L 191.399264 174.805768 
L 191.494805 174.576308 
L 191.592233 174.576308 
L 191.653151 174.346847 
L 191.757657 174.346847 
L 191.757657 174.232116 
L 192.187386 174.232116 
L 192.187386 174.117386 
L 192.581004 174.117386 
L 192.581004 174.002656 
L 192.831087 174.002656 
L 192.831087 173.887925 
L 193.000037 173.887925 
L 193.000037 173.773195 
L 193.137997 173.773195 
L 193.137997 173.658465 
L 193.684517 173.658465 
L 193.684517 173.543734 
L 194.237557 173.543734 
L 194.237557 173.429004 
L 194.914199 173.429004 
L 194.914199 173.314274 
L 195.065195 173.314274 
L 195.065195 173.199543 
L 195.266354 173.199543 
L 195.266354 173.084813 
L 199.140573 173.084813 
L 199.140573 172.970083 
L 208.619987 172.970083 
L 208.619987 172.855352 
L 210.806424 172.855352 
L 210.806424 172.740622 
L 218.256645 172.740622 
L 218.352107 159.202441 
L 218.384014 159.202441 
L 218.425948 158.972981 
L 218.506256 158.972981 
L 218.595672 158.62879 
L 218.668236 158.62879 
L 218.748454 158.399329 
L 218.815078 158.399329 
L 218.889254 158.169868 
L 218.931165 158.169868 
L 219.040911 157.366756 
L 219.07067 157.366756 
L 219.178141 156.793104 
L 219.226691 156.793104 
L 219.326171 156.104722 
L 219.344495 156.104722 
L 219.445908 155.41634 
L 219.456797 155.41634 
L 219.562487 154.727958 
L 219.610061 154.727958 
L 219.706743 153.580655 
L 219.752009 153.580655 
L 219.8375 152.892273 
L 219.865455 152.892273 
L 219.971702 152.203891 
L 219.989912 152.203891 
L 220.093213 150.712396 
L 220.12467 150.712396 
L 220.22539 149.450362 
L 220.265609 149.450362 
L 220.312079 148.876711 
L 220.380397 148.876711 
L 220.447681 148.188328 
L 220.51807 148.188328 
L 220.628934 147.385216 
L 220.7209 147.385216 
L 220.790497 146.811564 
L 220.839419 146.811564 
L 220.919755 146.352643 
L 220.952516 146.352643 
L 221.053769 145.20534 
L 221.097375 145.20534 
L 221.205437 144.172766 
L 221.234513 144.172766 
L 221.338522 143.140193 
L 221.360823 143.140193 
L 221.439523 142.796002 
L 221.492226 142.796002 
L 221.509061 142.566542 
L 221.631972 142.566542 
L 221.711815 142.222351 
L 221.93537 142.222351 
L 222.041529 141.99289 
L 222.232818 141.99289 
L 222.232818 141.763429 
L 222.364231 141.763429 
L 222.364231 141.648699 
L 224.325124 141.648699 
L 224.325124 141.533969 
L 230.32526 141.533969 
L 230.375021 134.879609 
L 230.784207 134.879609 
L 230.878946 134.305957 
L 230.899273 134.305957 
L 231.001731 133.502844 
L 231.025641 133.502844 
L 231.053612 133.273384 
L 231.148523 133.273384 
L 231.216202 132.814462 
L 231.268605 132.814462 
L 231.367445 132.01135 
L 231.409207 132.01135 
L 231.500537 131.093507 
L 231.521903 131.093507 
L 231.607507 130.519856 
L 231.636057 130.519856 
L 231.746176 129.831474 
L 231.763994 129.831474 
L 231.866175 128.7989 
L 231.875225 128.7989 
L 231.892951 128.339979 
L 231.996083 128.339979 
L 232.098059 127.881058 
L 232.480015 127.881058 
L 232.480015 127.766327 
L 237.395395 127.766327 
L 237.424296 123.865496 
L 237.760882 123.865496 
L 237.861463 123.177114 
L 237.880171 123.177114 
L 237.985067 122.488732 
L 238.016708 122.488732 
L 238.127027 121.570889 
L 238.222894 121.570889 
L 238.268421 121.111967 
L 238.339378 121.111967 
L 238.383532 120.767776 
L 238.4517 120.767776 
L 238.541725 120.308855 
L 238.592963 120.308855 
L 238.592963 120.194125 
L 239.225937 120.194125 
L 239.225937 120.079394 
L 242.406539 120.079394 
L 242.430381 117.325866 
L 242.736387 117.325866 
L 242.845595 116.866945 
L 242.935067 116.866945 
L 242.971786 116.408023 
L 243.054402 116.408023 
L 243.130714 116.063832 
L 243.184558 116.063832 
L 243.184558 115.949102 
L 243.452951 115.949102 
L 243.516588 115.604911 
L 243.799581 115.604911 
L 243.799581 115.490181 
L 246.300382 115.490181 
L 246.31444 114.342877 
L 246.542683 114.342877 
L 246.629539 113.998686 
L 246.704099 113.998686 
L 246.722991 113.769225 
L 246.873093 113.769225 
L 246.873093 113.654495 
L 249.478169 113.654495 
L 249.478169 113.539765 
L 249.768588 113.539765 
L 249.768588 113.425034 
L 249.954625 113.425034 
L 250.022517 113.195574 
L 250.415712 113.195574 
L 250.415712 112.966113 
L 252.165096 112.966113 
L 252.175676 112.621922 
L 252.364645 112.621922 
L 252.466084 112.392461 
L 255.200707 112.392461 
L 255.200707 112.277731 
L 256.550027 112.277731 
L 256.554268 112.04827 
L 256.719358 112.04827 
L 256.740221 111.81881 
L 256.865174 111.81881 
L 256.865174 111.704079 
L 258.522762 111.704079 
L 258.557687 111.474619 
L 258.711532 111.474619 
L 258.711532 111.359888 
L 263.091633 111.359888 
L 263.091633 111.245158 
L 270.56202 111.245158 
L 270.56202 111.130427 
L 278.166427 111.130427 
L 278.166427 111.015697 
L 279.2532 111.015697 
L 279.2532 110.900967 
L 283.447142 110.900967 
L 283.447142 110.786236 
L 338.688 110.786236 
L 338.688 110.786236 
" style="fill:none;stroke:#ff00ff;stroke-linecap:square;stroke-width:1.5;"/>
   </g>
   <g id="line2d_41">
    <defs>
     <path d="M -0 8.485281 
L 5.091169 0 
L 0 -8.485281 
L -5.091169 -0 
z
" id="meddb9b1022" style="stroke:#ff00ff;stroke-linejoin:miter;stroke-width:1.5;"/>
    </defs>
    <g>
     <use style="fill-opacity:0;stroke:#ff00ff;stroke-linejoin:miter;stroke-width:1.5;" x="149.18674" xlink:href="#meddb9b1022" y="256.723234"/>
     <use style="fill-opacity:0;stroke:#ff00ff;stroke-linejoin:miter;stroke-width:1.5;" x="218.748454" xlink:href="#meddb9b1022" y="158.399329"/>
     <use style="fill-opacity:0;stroke:#ff00ff;stroke-linejoin:miter;stroke-width:1.5;" x="283.447142" xlink:href="#meddb9b1022" y="110.900967"/>
     <use style="fill-opacity:0;stroke:#ff00ff;stroke-linejoin:miter;stroke-width:1.5;" x="283.447142" xlink:href="#meddb9b1022" y="110.786236"/>
     <use style="fill-opacity:0;stroke:#ff00ff;stroke-linejoin:miter;stroke-width:1.5;" x="338.688" xlink:href="#meddb9b1022" y="110.786236"/>
    </g>
   </g>
   <g id="line2d_42">
    <path style="fill:none;stroke:#ff00ff;stroke-linecap:square;stroke-width:1.5;"/>
    <g/>
   </g>
   <g id="line2d_43">
    <path clip-path="url(#pe9b21f7647)" d="M 218.221714 172.740622 
" style="fill:none;stroke:#ff00ff;stroke-linecap:square;stroke-width:1.5;"/>
    <defs>
     <path d="M -12 12 
L 12 -12 
M -12 -12 
L 12 12 
" id="m77a553c387" style="stroke:#ff00ff;"/>
    </defs>
    <g clip-path="url(#pe9b21f7647)">
     <use style="fill:#ff00ff;stroke:#ff00ff;" x="218.221714" xlink:href="#m77a553c387" y="172.740622"/>
    </g>
   </g>
   <g id="line2d_44">
    <path d="M 338.688 113.080843 
L 369.60768 293.092752 
" style="fill:none;stroke:#000080;stroke-linecap:square;stroke-width:1.5;"/>
    <g>
     <use style="fill-opacity:0;stroke:#000080;stroke-width:1.5;" x="338.688" xlink:href="#mcb953e9f2c" y="113.080843"/>
     <use style="fill-opacity:0;stroke:#000080;stroke-width:1.5;" x="369.60768" xlink:href="#mcb953e9f2c" y="293.092752"/>
    </g>
   </g>
   <g id="line2d_45">
    <path d="M 338.688 110.786236 
L 369.60768 152.662812 
" style="fill:none;stroke:#ff00ff;stroke-linecap:square;stroke-width:1.5;"/>
    <g>
     <use style="fill-opacity:0;stroke:#ff00ff;stroke-linejoin:miter;stroke-width:1.5;" x="338.688" xlink:href="#meddb9b1022" y="110.786236"/>
     <use style="fill-opacity:0;stroke:#ff00ff;stroke-linejoin:miter;stroke-width:1.5;" x="369.60768" xlink:href="#meddb9b1022" y="152.662812"/>
    </g>
   </g>
   <g id="line2d_46">
    <path d="M 338.688 298.944 
L 338.688 6.381624 
" style="fill:none;stroke:#000000;stroke-linecap:square;stroke-width:1.5;"/>
   </g>
   <g id="patch_3">
    <path d="M 57.6 298.944 
L 57.6 3.456 
" style="fill:none;stroke:#000000;stroke-linecap:square;stroke-linejoin:miter;stroke-width:0.8;"/>
   </g>
   <g id="patch_4">
    <path d="M 338.688 298.944 
L 338.688 3.456 
" style="fill:none;stroke:#000000;stroke-linecap:square;stroke-linejoin:miter;stroke-width:0.8;"/>
   </g>
   <g id="patch_5">
    <path d="M 57.6 298.944 
L 338.688 298.944 
" style="fill:none;stroke:#000000;stroke-linecap:square;stroke-linejoin:miter;stroke-width:0.8;"/>
   </g>
   <g id="patch_6">
    <path d="M 57.6 3.456 
L 338.688 3.456 
" style="fill:none;stroke:#000000;stroke-linecap:square;stroke-linejoin:miter;stroke-width:0.8;"/>
   </g>
   <g id="text_13">
    <!-- outputCMA -->
    <g transform="translate(375.22944 297.78369)scale(0.17 -0.17)">
     <defs>
      <path d="M 64.40625 67.28125 
L 64.40625 56.890625 
Q 59.421875 61.53125 53.78125 63.8125 
Q 48.140625 66.109375 41.796875 66.109375 
Q 29.296875 66.109375 22.65625 58.46875 
Q 16.015625 50.828125 16.015625 36.375 
Q 16.015625 21.96875 22.65625 14.328125 
Q 29.296875 6.6875 41.796875 6.6875 
Q 48.140625 6.6875 53.78125 8.984375 
Q 59.421875 11.28125 64.40625 15.921875 
L 64.40625 5.609375 
Q 59.234375 2.09375 53.4375 0.328125 
Q 47.65625 -1.421875 41.21875 -1.421875 
Q 24.65625 -1.421875 15.125 8.703125 
Q 5.609375 18.84375 5.609375 36.375 
Q 5.609375 53.953125 15.125 64.078125 
Q 24.65625 74.21875 41.21875 74.21875 
Q 47.75 74.21875 53.53125 72.484375 
Q 59.328125 70.75 64.40625 67.28125 
z
" id="DejaVuSans-67"/>
      <path d="M 9.8125 72.90625 
L 24.515625 72.90625 
L 43.109375 23.296875 
L 61.8125 72.90625 
L 76.515625 72.90625 
L 76.515625 0 
L 66.890625 0 
L 66.890625 64.015625 
L 48.09375 14.015625 
L 38.1875 14.015625 
L 19.390625 64.015625 
L 19.390625 0 
L 9.8125 0 
z
" id="DejaVuSans-77"/>
      <path d="M 34.1875 63.1875 
L 20.796875 26.90625 
L 47.609375 26.90625 
z
M 28.609375 72.90625 
L 39.796875 72.90625 
L 67.578125 0 
L 57.328125 0 
L 50.6875 18.703125 
L 17.828125 18.703125 
L 11.1875 0 
L 0.78125 0 
z
" id="DejaVuSans-65"/>
     </defs>
     <use xlink:href="#DejaVuSans-111"/>
     <use x="61.181641" xlink:href="#DejaVuSans-117"/>
     <use x="124.560547" xlink:href="#DejaVuSans-116"/>
     <use x="163.769531" xlink:href="#DejaVuSans-112"/>
     <use x="227.246094" xlink:href="#DejaVuSans-117"/>
     <use x="290.625" xlink:href="#DejaVuSans-116"/>
     <use x="329.833984" xlink:href="#DejaVuSans-67"/>
     <use x="399.658203" xlink:href="#DejaVuSans-77"/>
     <use x="485.9375" xlink:href="#DejaVuSans-65"/>
    </g>
   </g>
   <g id="text_14">
    <!-- PSO -->
    <g transform="translate(375.22944 157.353749)scale(0.17 -0.17)">
     <defs>
      <path d="M 19.671875 64.796875 
L 19.671875 37.40625 
L 32.078125 37.40625 
Q 38.96875 37.40625 42.71875 40.96875 
Q 46.484375 44.53125 46.484375 51.125 
Q 46.484375 57.671875 42.71875 61.234375 
Q 38.96875 64.796875 32.078125 64.796875 
z
M 9.8125 72.90625 
L 32.078125 72.90625 
Q 44.34375 72.90625 50.609375 67.359375 
Q 56.890625 61.8125 56.890625 51.125 
Q 56.890625 40.328125 50.609375 34.8125 
Q 44.34375 29.296875 32.078125 29.296875 
L 19.671875 29.296875 
L 19.671875 0 
L 9.8125 0 
z
" id="DejaVuSans-80"/>
      <path d="M 53.515625 70.515625 
L 53.515625 60.890625 
Q 47.90625 63.578125 42.921875 64.890625 
Q 37.9375 66.21875 33.296875 66.21875 
Q 25.25 66.21875 20.875 63.09375 
Q 16.5 59.96875 16.5 54.203125 
Q 16.5 49.359375 19.40625 46.890625 
Q 22.3125 44.4375 30.421875 42.921875 
L 36.375 41.703125 
Q 47.40625 39.59375 52.65625 34.296875 
Q 57.90625 29 57.90625 20.125 
Q 57.90625 9.515625 50.796875 4.046875 
Q 43.703125 -1.421875 29.984375 -1.421875 
Q 24.8125 -1.421875 18.96875 -0.25 
Q 13.140625 0.921875 6.890625 3.21875 
L 6.890625 13.375 
Q 12.890625 10.015625 18.65625 8.296875 
Q 24.421875 6.59375 29.984375 6.59375 
Q 38.421875 6.59375 43.015625 9.90625 
Q 47.609375 13.234375 47.609375 19.390625 
Q 47.609375 24.75 44.3125 27.78125 
Q 41.015625 30.8125 33.5 32.328125 
L 27.484375 33.5 
Q 16.453125 35.6875 11.515625 40.375 
Q 6.59375 45.0625 6.59375 53.421875 
Q 6.59375 63.09375 13.40625 68.65625 
Q 20.21875 74.21875 32.171875 74.21875 
Q 37.3125 74.21875 42.625 73.28125 
Q 47.953125 72.359375 53.515625 70.515625 
z
" id="DejaVuSans-83"/>
      <path d="M 39.40625 66.21875 
Q 28.65625 66.21875 22.328125 58.203125 
Q 16.015625 50.203125 16.015625 36.375 
Q 16.015625 22.609375 22.328125 14.59375 
Q 28.65625 6.59375 39.40625 6.59375 
Q 50.140625 6.59375 56.421875 14.59375 
Q 62.703125 22.609375 62.703125 36.375 
Q 62.703125 50.203125 56.421875 58.203125 
Q 50.140625 66.21875 39.40625 66.21875 
z
M 39.40625 74.21875 
Q 54.734375 74.21875 63.90625 63.9375 
Q 73.09375 53.65625 73.09375 36.375 
Q 73.09375 19.140625 63.90625 8.859375 
Q 54.734375 -1.421875 39.40625 -1.421875 
Q 24.03125 -1.421875 14.8125 8.828125 
Q 5.609375 19.09375 5.609375 36.375 
Q 5.609375 53.65625 14.8125 63.9375 
Q 24.03125 74.21875 39.40625 74.21875 
z
" id="DejaVuSans-79"/>
     </defs>
     <use xlink:href="#DejaVuSans-80"/>
     <use x="60.302734" xlink:href="#DejaVuSans-83"/>
     <use x="123.779297" xlink:href="#DejaVuSans-79"/>
    </g>
   </g>
   <g id="text_15">
    <!-- best 2009 -->
    <g transform="translate(375.22944 16.923809)scale(0.17 -0.17)">
     <defs>
      <path d="M 48.6875 27.296875 
Q 48.6875 37.203125 44.609375 42.84375 
Q 40.53125 48.484375 33.40625 48.484375 
Q 26.265625 48.484375 22.1875 42.84375 
Q 18.109375 37.203125 18.109375 27.296875 
Q 18.109375 17.390625 22.1875 11.75 
Q 26.265625 6.109375 33.40625 6.109375 
Q 40.53125 6.109375 44.609375 11.75 
Q 48.6875 17.390625 48.6875 27.296875 
z
M 18.109375 46.390625 
Q 20.953125 51.265625 25.265625 53.625 
Q 29.59375 56 35.59375 56 
Q 45.5625 56 51.78125 48.09375 
Q 58.015625 40.1875 58.015625 27.296875 
Q 58.015625 14.40625 51.78125 6.484375 
Q 45.5625 -1.421875 35.59375 -1.421875 
Q 29.59375 -1.421875 25.265625 0.953125 
Q 20.953125 3.328125 18.109375 8.203125 
L 18.109375 0 
L 9.078125 0 
L 9.078125 75.984375 
L 18.109375 75.984375 
z
" id="DejaVuSans-98"/>
      <path d="M 10.984375 1.515625 
L 10.984375 10.5 
Q 14.703125 8.734375 18.5 7.8125 
Q 22.3125 6.890625 25.984375 6.890625 
Q 35.75 6.890625 40.890625 13.453125 
Q 46.046875 20.015625 46.78125 33.40625 
Q 43.953125 29.203125 39.59375 26.953125 
Q 35.25 24.703125 29.984375 24.703125 
Q 19.046875 24.703125 12.671875 31.3125 
Q 6.296875 37.9375 6.296875 49.421875 
Q 6.296875 60.640625 12.9375 67.421875 
Q 19.578125 74.21875 30.609375 74.21875 
Q 43.265625 74.21875 49.921875 64.515625 
Q 56.59375 54.828125 56.59375 36.375 
Q 56.59375 19.140625 48.40625 8.859375 
Q 40.234375 -1.421875 26.421875 -1.421875 
Q 22.703125 -1.421875 18.890625 -0.6875 
Q 15.09375 0.046875 10.984375 1.515625 
z
M 30.609375 32.421875 
Q 37.25 32.421875 41.125 36.953125 
Q 45.015625 41.5 45.015625 49.421875 
Q 45.015625 57.28125 41.125 61.84375 
Q 37.25 66.40625 30.609375 66.40625 
Q 23.96875 66.40625 20.09375 61.84375 
Q 16.21875 57.28125 16.21875 49.421875 
Q 16.21875 41.5 20.09375 36.953125 
Q 23.96875 32.421875 30.609375 32.421875 
z
" id="DejaVuSans-57"/>
     </defs>
     <use xlink:href="#DejaVuSans-98"/>
     <use x="63.476562" xlink:href="#DejaVuSans-101"/>
     <use x="125" xlink:href="#DejaVuSans-115"/>
     <use x="177.099609" xlink:href="#DejaVuSans-116"/>
     <use x="216.308594" xlink:href="#DejaVuSans-32"/>
     <use x="248.095703" xlink:href="#DejaVuSans-50"/>
     <use x="311.71875" xlink:href="#DejaVuSans-48"/>
     <use x="375.341797" xlink:href="#DejaVuSans-48"/>
     <use x="438.964844" xlink:href="#DejaVuSans-57"/>
    </g>
   </g>
   <g id="text_16">
    <!-- bbob f1-f5, 20-D -->
    <g transform="translate(60.41088 14.161286)scale(0.102 -0.102)">
     <defs>
      <path d="M 10.796875 72.90625 
L 49.515625 72.90625 
L 49.515625 64.59375 
L 19.828125 64.59375 
L 19.828125 46.734375 
Q 21.96875 47.46875 24.109375 47.828125 
Q 26.265625 48.1875 28.421875 48.1875 
Q 40.625 48.1875 47.75 41.5 
Q 54.890625 34.8125 54.890625 23.390625 
Q 54.890625 11.625 47.5625 5.09375 
Q 40.234375 -1.421875 26.90625 -1.421875 
Q 22.3125 -1.421875 17.546875 -0.640625 
Q 12.796875 0.140625 7.71875 1.703125 
L 7.71875 11.625 
Q 12.109375 9.234375 16.796875 8.0625 
Q 21.484375 6.890625 26.703125 6.890625 
Q 35.15625 6.890625 40.078125 11.328125 
Q 45.015625 15.765625 45.015625 23.390625 
Q 45.015625 31 40.078125 35.4375 
Q 35.15625 39.890625 26.703125 39.890625 
Q 22.75 39.890625 18.8125 39.015625 
Q 14.890625 38.140625 10.796875 36.28125 
z
" id="DejaVuSans-53"/>
      <path d="M 19.671875 64.796875 
L 19.671875 8.109375 
L 31.59375 8.109375 
Q 46.6875 8.109375 53.6875 14.9375 
Q 60.6875 21.78125 60.6875 36.53125 
Q 60.6875 51.171875 53.6875 57.984375 
Q 46.6875 64.796875 31.59375 64.796875 
z
M 9.8125 72.90625 
L 30.078125 72.90625 
Q 51.265625 72.90625 61.171875 64.09375 
Q 71.09375 55.28125 71.09375 36.53125 
Q 71.09375 17.671875 61.125 8.828125 
Q 51.171875 0 30.078125 0 
L 9.8125 0 
z
" id="DejaVuSans-68"/>
     </defs>
     <use xlink:href="#DejaVuSans-98"/>
     <use x="63.476562" xlink:href="#DejaVuSans-98"/>
     <use x="126.953125" xlink:href="#DejaVuSans-111"/>
     <use x="188.134766" xlink:href="#DejaVuSans-98"/>
     <use x="251.611328" xlink:href="#DejaVuSans-32"/>
     <use x="283.398438" xlink:href="#DejaVuSans-102"/>
     <use x="318.603516" xlink:href="#DejaVuSans-49"/>
     <use x="382.226562" xlink:href="#DejaVuSans-45"/>
     <use x="418.310547" xlink:href="#DejaVuSans-102"/>
     <use x="453.515625" xlink:href="#DejaVuSans-53"/>
     <use x="517.138672" xlink:href="#DejaVuSans-44"/>
     <use x="548.925781" xlink:href="#DejaVuSans-32"/>
     <use x="580.712891" xlink:href="#DejaVuSans-50"/>
     <use x="644.335938" xlink:href="#DejaVuSans-48"/>
     <use x="707.958984" xlink:href="#DejaVuSans-45"/>
     <use x="744.042969" xlink:href="#DejaVuSans-68"/>
    </g>
    <!-- 51 targets: 100..1e-08 -->
    <g transform="translate(60.41088 25.583055)scale(0.102 -0.102)">
     <defs>
      <path d="M 11.71875 12.40625 
L 22.015625 12.40625 
L 22.015625 0 
L 11.71875 0 
z
M 11.71875 51.703125 
L 22.015625 51.703125 
L 22.015625 39.3125 
L 11.71875 39.3125 
z
" id="DejaVuSans-58"/>
     </defs>
     <use xlink:href="#DejaVuSans-53"/>
     <use x="63.623047" xlink:href="#DejaVuSans-49"/>
     <use x="127.246094" xlink:href="#DejaVuSans-32"/>
     <use x="159.033203" xlink:href="#DejaVuSans-116"/>
     <use x="198.242188" xlink:href="#DejaVuSans-97"/>
     <use x="259.521484" xlink:href="#DejaVuSans-114"/>
     <use x="298.884766" xlink:href="#DejaVuSans-103"/>
     <use x="362.361328" xlink:href="#DejaVuSans-101"/>
     <use x="423.884766" xlink:href="#DejaVuSans-116"/>
     <use x="463.09375" xlink:href="#DejaVuSans-115"/>
     <use x="515.193359" xlink:href="#DejaVuSans-58"/>
     <use x="548.884766" xlink:href="#DejaVuSans-32"/>
     <use x="580.671875" xlink:href="#DejaVuSans-49"/>
     <use x="644.294922" xlink:href="#DejaVuSans-48"/>
     <use x="707.917969" xlink:href="#DejaVuSans-48"/>
     <use x="771.541016" xlink:href="#DejaVuSans-46"/>
     <use x="803.328125" xlink:href="#DejaVuSans-46"/>
     <use x="835.115234" xlink:href="#DejaVuSans-49"/>
     <use x="898.738281" xlink:href="#DejaVuSans-101"/>
     <use x="960.261719" xlink:href="#DejaVuSans-45"/>
     <use x="996.345703" xlink:href="#DejaVuSans-48"/>
     <use x="1059.96875" xlink:href="#DejaVuSans-56"/>
    </g>
    <!-- 15 instances -->
    <g transform="translate(60.41088 37.004824)scale(0.102 -0.102)">
     <use xlink:href="#DejaVuSans-49"/>
     <use x="63.623047" xlink:href="#DejaVuSans-53"/>
     <use x="127.246094" xlink:href="#DejaVuSans-32"/>
     <use x="159.033203" xlink:href="#DejaVuSans-105"/>
     <use x="186.816406" xlink:href="#DejaVuSans-110"/>
     <use x="250.195312" xlink:href="#DejaVuSans-115"/>
     <use x="302.294922" xlink:href="#DejaVuSans-116"/>
     <use x="341.503906" xlink:href="#DejaVuSans-97"/>
     <use x="402.783203" xlink:href="#DejaVuSans-110"/>
     <use x="466.162109" xlink:href="#DejaVuSans-99"/>
     <use x="521.142578" xlink:href="#DejaVuSans-101"/>
     <use x="582.666016" xlink:href="#DejaVuSans-115"/>
    </g>
   </g>
   <g id="text_17">
    <!-- v2.4 -->
    <g style="fill:#808080;" transform="translate(187.233062 293.909432)scale(0.1 -0.1)">
     <use xlink:href="#DejaVuSans-118"/>
     <use x="59.179688" xlink:href="#DejaVuSans-50"/>
     <use x="122.802734" xlink:href="#DejaVuSans-46"/>
     <use x="154.589844" xlink:href="#DejaVuSans-52"/>
    </g>
   </g>
  </g>
 </g>
 <defs>
  <clipPath id="pe9b21f7647">
   <rect height="295.488" width="281.088" x="57.6" y="3.456"/>
  </clipPath>
 </defs>
</svg>
