<?xml version="1.0" encoding="utf-8" standalone="no"?>
<!DOCTYPE svg PUBLIC "-//W3C//DTD SVG 1.1//EN"
  "http://www.w3.org/Graphics/SVG/1.1/DTD/svg11.dtd">
<!-- Created with matplotlib (https://matplotlib.org/) -->
<svg height="345.6pt" version="1.1" viewBox="0 0 460.8 345.6" width="460.8pt" xmlns="http://www.w3.org/2000/svg" xmlns:xlink="http://www.w3.org/1999/xlink">
 <metadata>
  <rdf:RDF xmlns:cc="http://creativecommons.org/ns#" xmlns:dc="http://purl.org/dc/elements/1.1/" xmlns:rdf="http://www.w3.org/1999/02/22-rdf-syntax-ns#">
   <cc:Work>
    <dc:type rdf:resource="http://purl.org/dc/dcmitype/StillImage"/>
    <dc:date>2021-04-19T06:08:02.261035</dc:date>
    <dc:format>image/svg+xml</dc:format>
    <dc:creator>
     <cc:Agent>
      <dc:title>Matplotlib v3.3.4, https://matplotlib.org/</dc:title>
     </cc:Agent>
    </dc:creator>
   </cc:Work>
  </rdf:RDF>
 </metadata>
 <defs>
  <style type="text/css">*{stroke-linecap:butt;stroke-linejoin:round;}</style>
 </defs>
 <g id="figure_1">
  <g id="patch_1">
   <path d="M 0 345.6 
L 460.8 345.6 
L 460.8 0 
L 0 0 
z
" style="fill:#ffffff;"/>
  </g>
  <g id="axes_1">
   <g id="patch_2">
    <path d="M 57.6 298.944 
L 338.688 298.944 
L 338.688 27.648 
L 57.6 27.648 
z
" style="fill:#ffffff;"/>
   </g>
   <g id="line2d_1">
    <path d="M 94.921215 298.944 
L 94.921215 293.677139 
L 96.583356 293.677139 
L 96.583356 288.410278 
L 98.689141 288.410278 
L 98.689141 283.143418 
L 100.789049 283.143418 
L 100.789049 277.876557 
L 114.216469 277.876557 
L 114.216469 272.609696 
L 118.363901 272.609696 
L 118.363901 267.342835 
L 118.994305 267.342835 
L 118.994305 262.075974 
L 122.657258 262.075974 
L 122.657258 256.809114 
L 135.321124 256.809114 
L 135.321124 251.542253 
L 136.673382 251.542253 
L 136.673382 246.275392 
L 138.093015 246.275392 
L 138.093015 241.008531 
L 139.341588 241.008531 
L 139.341588 235.74167 
L 140.431411 235.74167 
L 140.431411 230.47481 
L 141.577657 230.47481 
L 141.577657 225.207949 
L 142.479593 225.207949 
L 142.479593 219.941088 
L 143.470802 219.941088 
L 143.470802 214.674227 
L 144.40869 214.674227 
L 144.40869 209.407366 
L 145.281568 209.407366 
L 145.281568 204.140506 
L 146.145489 204.140506 
L 146.145489 198.873645 
L 146.885432 198.873645 
L 146.885432 193.606784 
L 147.704998 193.606784 
L 147.704998 188.339923 
L 148.573141 188.339923 
L 148.573141 183.073062 
L 151.897188 183.073062 
L 151.897188 177.806202 
L 169.753577 177.806202 
L 169.753577 172.539341 
L 176.330308 172.539341 
L 176.330308 167.27248 
L 176.93985 167.27248 
L 176.93985 162.005619 
L 177.453104 162.005619 
L 177.453104 156.738758 
L 177.887492 156.738758 
L 177.887492 151.471897 
L 178.478182 151.471897 
L 178.478182 146.205037 
L 179.020649 146.205037 
L 179.020649 140.938176 
L 179.503442 140.938176 
L 179.503442 135.671315 
L 179.939585 135.671315 
L 179.939585 130.404454 
L 180.365087 130.404454 
L 180.365087 125.137593 
L 180.78493 125.137593 
L 180.78493 119.870733 
L 181.186156 119.870733 
L 181.186156 114.603872 
L 181.573367 114.603872 
L 181.573367 109.337011 
L 182.003032 109.337011 
L 182.003032 104.07015 
L 182.407415 104.07015 
L 182.407415 98.803289 
L 182.820568 98.803289 
L 182.820568 93.536429 
L 183.20209 93.536429 
L 183.20209 88.269568 
L 183.572899 88.269568 
L 183.572899 83.002707 
L 183.928513 83.002707 
L 183.928513 77.735846 
L 184.267247 77.735846 
L 184.267247 72.468985 
L 184.55811 72.468985 
L 184.55811 67.202125 
L 184.918529 67.202125 
L 184.918529 61.935264 
L 185.253759 61.935264 
L 185.253759 56.668403 
L 185.593996 56.668403 
L 185.593996 51.401542 
L 185.864273 51.401542 
L 185.864273 46.134681 
L 186.178134 46.134681 
L 186.178134 40.867821 
L 186.461141 40.867821 
L 186.461141 35.60096 
L 186.723182 35.60096 
L 186.723182 30.334099 
L 338.688 30.334099 
" style="fill:none;stroke:#f5deb3;stroke-linecap:square;stroke-width:4;"/>
   </g>
   <g id="line2d_2">
    <defs>
     <path d="M -0 7.778175 
L 7.778175 0 
L 0 -7.778175 
L -7.778175 -0 
z
" id="md174619a41" style="stroke:#f5deb3;stroke-linejoin:miter;stroke-width:1.5;"/>
    </defs>
    <g>
     <use style="fill:#f5deb3;stroke:#f5deb3;stroke-linejoin:miter;stroke-width:1.5;" x="144.40869" xlink:href="#md174619a41" y="214.674227"/>
     <use style="fill:#f5deb3;stroke:#f5deb3;stroke-linejoin:miter;stroke-width:1.5;" x="180.365087" xlink:href="#md174619a41" y="125.137593"/>
     <use style="fill:#f5deb3;stroke:#f5deb3;stroke-linejoin:miter;stroke-width:1.5;" x="186.723182" xlink:href="#md174619a41" y="35.60096"/>
     <use style="fill:#f5deb3;stroke:#f5deb3;stroke-linejoin:miter;stroke-width:1.5;" x="186.723182" xlink:href="#md174619a41" y="30.334099"/>
     <use style="fill:#f5deb3;stroke:#f5deb3;stroke-linejoin:miter;stroke-width:1.5;" x="338.688" xlink:href="#md174619a41" y="30.334099"/>
    </g>
   </g>
   <g id="line2d_3">
    <path style="fill:none;stroke:#f5deb3;stroke-linecap:square;stroke-width:4;"/>
    <g/>
   </g>
   <g id="line2d_4">
    <path d="M 338.688 30.334099 
L 369.60768 35.706297 
" style="fill:none;stroke:#f5deb3;stroke-linecap:square;stroke-width:4;"/>
    <g>
     <use style="fill:#f5deb3;stroke:#f5deb3;stroke-linejoin:miter;stroke-width:1.5;" x="338.688" xlink:href="#md174619a41" y="30.334099"/>
     <use style="fill:#f5deb3;stroke:#f5deb3;stroke-linejoin:miter;stroke-width:1.5;" x="369.60768" xlink:href="#md174619a41" y="35.706297"/>
    </g>
   </g>
   <g id="matplotlib.axis_1">
    <g id="xtick_1">
     <g id="line2d_5">
      <path clip-path="url(#p663a7dbc2e)" d="M 57.6 298.944 
L 57.6 27.648 
" style="fill:none;stroke:#b0b0b0;stroke-linecap:square;stroke-width:0.8;"/>
     </g>
     <g id="line2d_6">
      <defs>
       <path d="M 0 0 
L 0 3.5 
" id="m5037570b15" style="stroke:#000000;stroke-width:0.8;"/>
      </defs>
      <g>
       <use style="stroke:#000000;stroke-width:0.8;" x="57.6" xlink:href="#m5037570b15" y="298.944"/>
      </g>
     </g>
     <g id="text_1">
      <!-- 0 -->
      <g transform="translate(51.2375 321.140875)scale(0.2 -0.2)">
       <defs>
        <path d="M 31.78125 66.40625 
Q 24.171875 66.40625 20.328125 58.90625 
Q 16.5 51.421875 16.5 36.375 
Q 16.5 21.390625 20.328125 13.890625 
Q 24.171875 6.390625 31.78125 6.390625 
Q 39.453125 6.390625 43.28125 13.890625 
Q 47.125 21.390625 47.125 36.375 
Q 47.125 51.421875 43.28125 58.90625 
Q 39.453125 66.40625 31.78125 66.40625 
z
M 31.78125 74.21875 
Q 44.046875 74.21875 50.515625 64.515625 
Q 56.984375 54.828125 56.984375 36.375 
Q 56.984375 17.96875 50.515625 8.265625 
Q 44.046875 -1.421875 31.78125 -1.421875 
Q 19.53125 -1.421875 13.0625 8.265625 
Q 6.59375 17.96875 6.59375 36.375 
Q 6.59375 54.828125 13.0625 64.515625 
Q 19.53125 74.21875 31.78125 74.21875 
z
" id="DejaVuSans-48"/>
       </defs>
       <use xlink:href="#DejaVuSans-48"/>
      </g>
     </g>
    </g>
    <g id="xtick_2">
     <g id="line2d_7">
      <path clip-path="url(#p663a7dbc2e)" d="M 137.910857 298.944 
L 137.910857 27.648 
" style="fill:none;stroke:#b0b0b0;stroke-linecap:square;stroke-width:0.8;"/>
     </g>
     <g id="line2d_8">
      <g>
       <use style="stroke:#000000;stroke-width:0.8;" x="137.910857" xlink:href="#m5037570b15" y="298.944"/>
      </g>
     </g>
     <g id="text_2">
      <!-- 2 -->
      <g transform="translate(131.548357 321.140875)scale(0.2 -0.2)">
       <defs>
        <path d="M 19.1875 8.296875 
L 53.609375 8.296875 
L 53.609375 0 
L 7.328125 0 
L 7.328125 8.296875 
Q 12.9375 14.109375 22.625 23.890625 
Q 32.328125 33.6875 34.8125 36.53125 
Q 39.546875 41.84375 41.421875 45.53125 
Q 43.3125 49.21875 43.3125 52.78125 
Q 43.3125 58.59375 39.234375 62.25 
Q 35.15625 65.921875 28.609375 65.921875 
Q 23.96875 65.921875 18.8125 64.3125 
Q 13.671875 62.703125 7.8125 59.421875 
L 7.8125 69.390625 
Q 13.765625 71.78125 18.9375 73 
Q 24.125 74.21875 28.421875 74.21875 
Q 39.75 74.21875 46.484375 68.546875 
Q 53.21875 62.890625 53.21875 53.421875 
Q 53.21875 48.921875 51.53125 44.890625 
Q 49.859375 40.875 45.40625 35.40625 
Q 44.1875 33.984375 37.640625 27.21875 
Q 31.109375 20.453125 19.1875 8.296875 
z
" id="DejaVuSans-50"/>
       </defs>
       <use xlink:href="#DejaVuSans-50"/>
      </g>
     </g>
    </g>
    <g id="xtick_3">
     <g id="line2d_9">
      <path clip-path="url(#p663a7dbc2e)" d="M 218.221714 298.944 
L 218.221714 27.648 
" style="fill:none;stroke:#b0b0b0;stroke-linecap:square;stroke-width:0.8;"/>
     </g>
     <g id="line2d_10">
      <g>
       <use style="stroke:#000000;stroke-width:0.8;" x="218.221714" xlink:href="#m5037570b15" y="298.944"/>
      </g>
     </g>
     <g id="text_3">
      <!-- 4 -->
      <g transform="translate(211.859214 321.140875)scale(0.2 -0.2)">
       <defs>
        <path d="M 37.796875 64.3125 
L 12.890625 25.390625 
L 37.796875 25.390625 
z
M 35.203125 72.90625 
L 47.609375 72.90625 
L 47.609375 25.390625 
L 58.015625 25.390625 
L 58.015625 17.1875 
L 47.609375 17.1875 
L 47.609375 0 
L 37.796875 0 
L 37.796875 17.1875 
L 4.890625 17.1875 
L 4.890625 26.703125 
z
" id="DejaVuSans-52"/>
       </defs>
       <use xlink:href="#DejaVuSans-52"/>
      </g>
     </g>
    </g>
    <g id="xtick_4">
     <g id="line2d_11">
      <path clip-path="url(#p663a7dbc2e)" d="M 298.532571 298.944 
L 298.532571 27.648 
" style="fill:none;stroke:#b0b0b0;stroke-linecap:square;stroke-width:0.8;"/>
     </g>
     <g id="line2d_12">
      <g>
       <use style="stroke:#000000;stroke-width:0.8;" x="298.532571" xlink:href="#m5037570b15" y="298.944"/>
      </g>
     </g>
     <g id="text_4">
      <!-- 6 -->
      <g transform="translate(292.170071 321.140875)scale(0.2 -0.2)">
       <defs>
        <path d="M 33.015625 40.375 
Q 26.375 40.375 22.484375 35.828125 
Q 18.609375 31.296875 18.609375 23.390625 
Q 18.609375 15.53125 22.484375 10.953125 
Q 26.375 6.390625 33.015625 6.390625 
Q 39.65625 6.390625 43.53125 10.953125 
Q 47.40625 15.53125 47.40625 23.390625 
Q 47.40625 31.296875 43.53125 35.828125 
Q 39.65625 40.375 33.015625 40.375 
z
M 52.59375 71.296875 
L 52.59375 62.3125 
Q 48.875 64.0625 45.09375 64.984375 
Q 41.3125 65.921875 37.59375 65.921875 
Q 27.828125 65.921875 22.671875 59.328125 
Q 17.53125 52.734375 16.796875 39.40625 
Q 19.671875 43.65625 24.015625 45.921875 
Q 28.375 48.1875 33.59375 48.1875 
Q 44.578125 48.1875 50.953125 41.515625 
Q 57.328125 34.859375 57.328125 23.390625 
Q 57.328125 12.15625 50.6875 5.359375 
Q 44.046875 -1.421875 33.015625 -1.421875 
Q 20.359375 -1.421875 13.671875 8.265625 
Q 6.984375 17.96875 6.984375 36.375 
Q 6.984375 53.65625 15.1875 63.9375 
Q 23.390625 74.21875 37.203125 74.21875 
Q 40.921875 74.21875 44.703125 73.484375 
Q 48.484375 72.75 52.59375 71.296875 
z
" id="DejaVuSans-54"/>
       </defs>
       <use xlink:href="#DejaVuSans-54"/>
      </g>
     </g>
    </g>
    <g id="xtick_5">
     <g id="line2d_13">
      <path clip-path="url(#p663a7dbc2e)" d="M 97.755429 298.944 
L 97.755429 27.648 
" style="fill:none;stroke:#b0b0b0;stroke-linecap:square;stroke-width:0.8;"/>
     </g>
     <g id="line2d_14">
      <defs>
       <path d="M 0 0 
L 0 2 
" id="me5a59e6462" style="stroke:#000000;stroke-width:0.6;"/>
      </defs>
      <g>
       <use style="stroke:#000000;stroke-width:0.6;" x="97.755429" xlink:href="#me5a59e6462" y="298.944"/>
      </g>
     </g>
    </g>
    <g id="xtick_6">
     <g id="line2d_15">
      <path clip-path="url(#p663a7dbc2e)" d="M 178.066286 298.944 
L 178.066286 27.648 
" style="fill:none;stroke:#b0b0b0;stroke-linecap:square;stroke-width:0.8;"/>
     </g>
     <g id="line2d_16">
      <g>
       <use style="stroke:#000000;stroke-width:0.6;" x="178.066286" xlink:href="#me5a59e6462" y="298.944"/>
      </g>
     </g>
    </g>
    <g id="xtick_7">
     <g id="line2d_17">
      <path clip-path="url(#p663a7dbc2e)" d="M 258.377143 298.944 
L 258.377143 27.648 
" style="fill:none;stroke:#b0b0b0;stroke-linecap:square;stroke-width:0.8;"/>
     </g>
     <g id="line2d_18">
      <g>
       <use style="stroke:#000000;stroke-width:0.6;" x="258.377143" xlink:href="#me5a59e6462" y="298.944"/>
      </g>
     </g>
    </g>
    <g id="xtick_8">
     <g id="line2d_19">
      <path clip-path="url(#p663a7dbc2e)" d="M 338.688 298.944 
L 338.688 27.648 
" style="fill:none;stroke:#b0b0b0;stroke-linecap:square;stroke-width:0.8;"/>
     </g>
     <g id="line2d_20">
      <g>
       <use style="stroke:#000000;stroke-width:0.6;" x="338.688" xlink:href="#me5a59e6462" y="298.944"/>
      </g>
     </g>
    </g>
    <g id="text_5">
     <!-- log10(# f-evals / dimension) -->
     <g transform="translate(77.764078 342.217594)scale(0.17 -0.17)">
      <defs>
       <path d="M 9.421875 75.984375 
L 18.40625 75.984375 
L 18.40625 0 
L 9.421875 0 
z
" id="DejaVuSans-108"/>
       <path d="M 30.609375 48.390625 
Q 23.390625 48.390625 19.1875 42.75 
Q 14.984375 37.109375 14.984375 27.296875 
Q 14.984375 17.484375 19.15625 11.84375 
Q 23.34375 6.203125 30.609375 6.203125 
Q 37.796875 6.203125 41.984375 11.859375 
Q 46.1875 17.53125 46.1875 27.296875 
Q 46.1875 37.015625 41.984375 42.703125 
Q 37.796875 48.390625 30.609375 48.390625 
z
M 30.609375 56 
Q 42.328125 56 49.015625 48.375 
Q 55.71875 40.765625 55.71875 27.296875 
Q 55.71875 13.875 49.015625 6.21875 
Q 42.328125 -1.421875 30.609375 -1.421875 
Q 18.84375 -1.421875 12.171875 6.21875 
Q 5.515625 13.875 5.515625 27.296875 
Q 5.515625 40.765625 12.171875 48.375 
Q 18.84375 56 30.609375 56 
z
" id="DejaVuSans-111"/>
       <path d="M 45.40625 27.984375 
Q 45.40625 37.75 41.375 43.109375 
Q 37.359375 48.484375 30.078125 48.484375 
Q 22.859375 48.484375 18.828125 43.109375 
Q 14.796875 37.75 14.796875 27.984375 
Q 14.796875 18.265625 18.828125 12.890625 
Q 22.859375 7.515625 30.078125 7.515625 
Q 37.359375 7.515625 41.375 12.890625 
Q 45.40625 18.265625 45.40625 27.984375 
z
M 54.390625 6.78125 
Q 54.390625 -7.171875 48.1875 -13.984375 
Q 42 -20.796875 29.203125 -20.796875 
Q 24.46875 -20.796875 20.265625 -20.09375 
Q 16.0625 -19.390625 12.109375 -17.921875 
L 12.109375 -9.1875 
Q 16.0625 -11.328125 19.921875 -12.34375 
Q 23.78125 -13.375 27.78125 -13.375 
Q 36.625 -13.375 41.015625 -8.765625 
Q 45.40625 -4.15625 45.40625 5.171875 
L 45.40625 9.625 
Q 42.625 4.78125 38.28125 2.390625 
Q 33.9375 0 27.875 0 
Q 17.828125 0 11.671875 7.65625 
Q 5.515625 15.328125 5.515625 27.984375 
Q 5.515625 40.671875 11.671875 48.328125 
Q 17.828125 56 27.875 56 
Q 33.9375 56 38.28125 53.609375 
Q 42.625 51.21875 45.40625 46.390625 
L 45.40625 54.6875 
L 54.390625 54.6875 
z
" id="DejaVuSans-103"/>
       <path d="M 12.40625 8.296875 
L 28.515625 8.296875 
L 28.515625 63.921875 
L 10.984375 60.40625 
L 10.984375 69.390625 
L 28.421875 72.90625 
L 38.28125 72.90625 
L 38.28125 8.296875 
L 54.390625 8.296875 
L 54.390625 0 
L 12.40625 0 
z
" id="DejaVuSans-49"/>
       <path d="M 31 75.875 
Q 24.46875 64.65625 21.28125 53.65625 
Q 18.109375 42.671875 18.109375 31.390625 
Q 18.109375 20.125 21.3125 9.0625 
Q 24.515625 -2 31 -13.1875 
L 23.1875 -13.1875 
Q 15.875 -1.703125 12.234375 9.375 
Q 8.59375 20.453125 8.59375 31.390625 
Q 8.59375 42.28125 12.203125 53.3125 
Q 15.828125 64.359375 23.1875 75.875 
z
" id="DejaVuSans-40"/>
       <path d="M 51.125 44 
L 36.921875 44 
L 32.8125 27.6875 
L 47.125 27.6875 
z
M 43.796875 71.78125 
L 38.71875 51.515625 
L 52.984375 51.515625 
L 58.109375 71.78125 
L 65.921875 71.78125 
L 60.890625 51.515625 
L 76.125 51.515625 
L 76.125 44 
L 58.984375 44 
L 54.984375 27.6875 
L 70.515625 27.6875 
L 70.515625 20.21875 
L 53.078125 20.21875 
L 48 0 
L 40.1875 0 
L 45.21875 20.21875 
L 30.90625 20.21875 
L 25.875 0 
L 18.015625 0 
L 23.09375 20.21875 
L 7.71875 20.21875 
L 7.71875 27.6875 
L 24.90625 27.6875 
L 29 44 
L 13.28125 44 
L 13.28125 51.515625 
L 30.90625 51.515625 
L 35.890625 71.78125 
z
" id="DejaVuSans-35"/>
       <path id="DejaVuSans-32"/>
       <path d="M 37.109375 75.984375 
L 37.109375 68.5 
L 28.515625 68.5 
Q 23.6875 68.5 21.796875 66.546875 
Q 19.921875 64.59375 19.921875 59.515625 
L 19.921875 54.6875 
L 34.71875 54.6875 
L 34.71875 47.703125 
L 19.921875 47.703125 
L 19.921875 0 
L 10.890625 0 
L 10.890625 47.703125 
L 2.296875 47.703125 
L 2.296875 54.6875 
L 10.890625 54.6875 
L 10.890625 58.5 
Q 10.890625 67.625 15.140625 71.796875 
Q 19.390625 75.984375 28.609375 75.984375 
z
" id="DejaVuSans-102"/>
       <path d="M 4.890625 31.390625 
L 31.203125 31.390625 
L 31.203125 23.390625 
L 4.890625 23.390625 
z
" id="DejaVuSans-45"/>
       <path d="M 56.203125 29.59375 
L 56.203125 25.203125 
L 14.890625 25.203125 
Q 15.484375 15.921875 20.484375 11.0625 
Q 25.484375 6.203125 34.421875 6.203125 
Q 39.59375 6.203125 44.453125 7.46875 
Q 49.3125 8.734375 54.109375 11.28125 
L 54.109375 2.78125 
Q 49.265625 0.734375 44.1875 -0.34375 
Q 39.109375 -1.421875 33.890625 -1.421875 
Q 20.796875 -1.421875 13.15625 6.1875 
Q 5.515625 13.8125 5.515625 26.8125 
Q 5.515625 40.234375 12.765625 48.109375 
Q 20.015625 56 32.328125 56 
Q 43.359375 56 49.78125 48.890625 
Q 56.203125 41.796875 56.203125 29.59375 
z
M 47.21875 32.234375 
Q 47.125 39.59375 43.09375 43.984375 
Q 39.0625 48.390625 32.421875 48.390625 
Q 24.90625 48.390625 20.390625 44.140625 
Q 15.875 39.890625 15.1875 32.171875 
z
" id="DejaVuSans-101"/>
       <path d="M 2.984375 54.6875 
L 12.5 54.6875 
L 29.59375 8.796875 
L 46.6875 54.6875 
L 56.203125 54.6875 
L 35.6875 0 
L 23.484375 0 
z
" id="DejaVuSans-118"/>
       <path d="M 34.28125 27.484375 
Q 23.390625 27.484375 19.1875 25 
Q 14.984375 22.515625 14.984375 16.5 
Q 14.984375 11.71875 18.140625 8.90625 
Q 21.296875 6.109375 26.703125 6.109375 
Q 34.1875 6.109375 38.703125 11.40625 
Q 43.21875 16.703125 43.21875 25.484375 
L 43.21875 27.484375 
z
M 52.203125 31.203125 
L 52.203125 0 
L 43.21875 0 
L 43.21875 8.296875 
Q 40.140625 3.328125 35.546875 0.953125 
Q 30.953125 -1.421875 24.3125 -1.421875 
Q 15.921875 -1.421875 10.953125 3.296875 
Q 6 8.015625 6 15.921875 
Q 6 25.140625 12.171875 29.828125 
Q 18.359375 34.515625 30.609375 34.515625 
L 43.21875 34.515625 
L 43.21875 35.40625 
Q 43.21875 41.609375 39.140625 45 
Q 35.0625 48.390625 27.6875 48.390625 
Q 23 48.390625 18.546875 47.265625 
Q 14.109375 46.140625 10.015625 43.890625 
L 10.015625 52.203125 
Q 14.9375 54.109375 19.578125 55.046875 
Q 24.21875 56 28.609375 56 
Q 40.484375 56 46.34375 49.84375 
Q 52.203125 43.703125 52.203125 31.203125 
z
" id="DejaVuSans-97"/>
       <path d="M 44.28125 53.078125 
L 44.28125 44.578125 
Q 40.484375 46.53125 36.375 47.5 
Q 32.28125 48.484375 27.875 48.484375 
Q 21.1875 48.484375 17.84375 46.4375 
Q 14.5 44.390625 14.5 40.28125 
Q 14.5 37.15625 16.890625 35.375 
Q 19.28125 33.59375 26.515625 31.984375 
L 29.59375 31.296875 
Q 39.15625 29.25 43.1875 25.515625 
Q 47.21875 21.78125 47.21875 15.09375 
Q 47.21875 7.46875 41.1875 3.015625 
Q 35.15625 -1.421875 24.609375 -1.421875 
Q 20.21875 -1.421875 15.453125 -0.5625 
Q 10.6875 0.296875 5.421875 2 
L 5.421875 11.28125 
Q 10.40625 8.6875 15.234375 7.390625 
Q 20.0625 6.109375 24.8125 6.109375 
Q 31.15625 6.109375 34.5625 8.28125 
Q 37.984375 10.453125 37.984375 14.40625 
Q 37.984375 18.0625 35.515625 20.015625 
Q 33.0625 21.96875 24.703125 23.78125 
L 21.578125 24.515625 
Q 13.234375 26.265625 9.515625 29.90625 
Q 5.8125 33.546875 5.8125 39.890625 
Q 5.8125 47.609375 11.28125 51.796875 
Q 16.75 56 26.8125 56 
Q 31.78125 56 36.171875 55.265625 
Q 40.578125 54.546875 44.28125 53.078125 
z
" id="DejaVuSans-115"/>
       <path d="M 25.390625 72.90625 
L 33.6875 72.90625 
L 8.296875 -9.28125 
L 0 -9.28125 
z
" id="DejaVuSans-47"/>
       <path d="M 45.40625 46.390625 
L 45.40625 75.984375 
L 54.390625 75.984375 
L 54.390625 0 
L 45.40625 0 
L 45.40625 8.203125 
Q 42.578125 3.328125 38.25 0.953125 
Q 33.9375 -1.421875 27.875 -1.421875 
Q 17.96875 -1.421875 11.734375 6.484375 
Q 5.515625 14.40625 5.515625 27.296875 
Q 5.515625 40.1875 11.734375 48.09375 
Q 17.96875 56 27.875 56 
Q 33.9375 56 38.25 53.625 
Q 42.578125 51.265625 45.40625 46.390625 
z
M 14.796875 27.296875 
Q 14.796875 17.390625 18.875 11.75 
Q 22.953125 6.109375 30.078125 6.109375 
Q 37.203125 6.109375 41.296875 11.75 
Q 45.40625 17.390625 45.40625 27.296875 
Q 45.40625 37.203125 41.296875 42.84375 
Q 37.203125 48.484375 30.078125 48.484375 
Q 22.953125 48.484375 18.875 42.84375 
Q 14.796875 37.203125 14.796875 27.296875 
z
" id="DejaVuSans-100"/>
       <path d="M 9.421875 54.6875 
L 18.40625 54.6875 
L 18.40625 0 
L 9.421875 0 
z
M 9.421875 75.984375 
L 18.40625 75.984375 
L 18.40625 64.59375 
L 9.421875 64.59375 
z
" id="DejaVuSans-105"/>
       <path d="M 52 44.1875 
Q 55.375 50.25 60.0625 53.125 
Q 64.75 56 71.09375 56 
Q 79.640625 56 84.28125 50.015625 
Q 88.921875 44.046875 88.921875 33.015625 
L 88.921875 0 
L 79.890625 0 
L 79.890625 32.71875 
Q 79.890625 40.578125 77.09375 44.375 
Q 74.3125 48.1875 68.609375 48.1875 
Q 61.625 48.1875 57.5625 43.546875 
Q 53.515625 38.921875 53.515625 30.90625 
L 53.515625 0 
L 44.484375 0 
L 44.484375 32.71875 
Q 44.484375 40.625 41.703125 44.40625 
Q 38.921875 48.1875 33.109375 48.1875 
Q 26.21875 48.1875 22.15625 43.53125 
Q 18.109375 38.875 18.109375 30.90625 
L 18.109375 0 
L 9.078125 0 
L 9.078125 54.6875 
L 18.109375 54.6875 
L 18.109375 46.1875 
Q 21.1875 51.21875 25.484375 53.609375 
Q 29.78125 56 35.6875 56 
Q 41.65625 56 45.828125 52.96875 
Q 50 49.953125 52 44.1875 
z
" id="DejaVuSans-109"/>
       <path d="M 54.890625 33.015625 
L 54.890625 0 
L 45.90625 0 
L 45.90625 32.71875 
Q 45.90625 40.484375 42.875 44.328125 
Q 39.84375 48.1875 33.796875 48.1875 
Q 26.515625 48.1875 22.3125 43.546875 
Q 18.109375 38.921875 18.109375 30.90625 
L 18.109375 0 
L 9.078125 0 
L 9.078125 54.6875 
L 18.109375 54.6875 
L 18.109375 46.1875 
Q 21.34375 51.125 25.703125 53.5625 
Q 30.078125 56 35.796875 56 
Q 45.21875 56 50.046875 50.171875 
Q 54.890625 44.34375 54.890625 33.015625 
z
" id="DejaVuSans-110"/>
       <path d="M 8.015625 75.875 
L 15.828125 75.875 
Q 23.140625 64.359375 26.78125 53.3125 
Q 30.421875 42.28125 30.421875 31.390625 
Q 30.421875 20.453125 26.78125 9.375 
Q 23.140625 -1.703125 15.828125 -13.1875 
L 8.015625 -13.1875 
Q 14.5 -2 17.703125 9.0625 
Q 20.90625 20.125 20.90625 31.390625 
Q 20.90625 42.671875 17.703125 53.65625 
Q 14.5 64.65625 8.015625 75.875 
z
" id="DejaVuSans-41"/>
      </defs>
      <use xlink:href="#DejaVuSans-108"/>
      <use x="27.783203" xlink:href="#DejaVuSans-111"/>
      <use x="88.964844" xlink:href="#DejaVuSans-103"/>
      <use x="152.441406" xlink:href="#DejaVuSans-49"/>
      <use x="216.064453" xlink:href="#DejaVuSans-48"/>
      <use x="279.6875" xlink:href="#DejaVuSans-40"/>
      <use x="318.701172" xlink:href="#DejaVuSans-35"/>
      <use x="402.490234" xlink:href="#DejaVuSans-32"/>
      <use x="434.277344" xlink:href="#DejaVuSans-102"/>
      <use x="463.982422" xlink:href="#DejaVuSans-45"/>
      <use x="500.066406" xlink:href="#DejaVuSans-101"/>
      <use x="561.589844" xlink:href="#DejaVuSans-118"/>
      <use x="620.769531" xlink:href="#DejaVuSans-97"/>
      <use x="682.048828" xlink:href="#DejaVuSans-108"/>
      <use x="709.832031" xlink:href="#DejaVuSans-115"/>
      <use x="761.931641" xlink:href="#DejaVuSans-32"/>
      <use x="793.71875" xlink:href="#DejaVuSans-47"/>
      <use x="827.410156" xlink:href="#DejaVuSans-32"/>
      <use x="859.197266" xlink:href="#DejaVuSans-100"/>
      <use x="922.673828" xlink:href="#DejaVuSans-105"/>
      <use x="950.457031" xlink:href="#DejaVuSans-109"/>
      <use x="1047.869141" xlink:href="#DejaVuSans-101"/>
      <use x="1109.392578" xlink:href="#DejaVuSans-110"/>
      <use x="1172.771484" xlink:href="#DejaVuSans-115"/>
      <use x="1224.871094" xlink:href="#DejaVuSans-105"/>
      <use x="1252.654297" xlink:href="#DejaVuSans-111"/>
      <use x="1313.835938" xlink:href="#DejaVuSans-110"/>
      <use x="1377.214844" xlink:href="#DejaVuSans-41"/>
     </g>
    </g>
   </g>
   <g id="matplotlib.axis_2">
    <g id="ytick_1">
     <g id="line2d_21">
      <path clip-path="url(#p663a7dbc2e)" d="M 57.6 298.944 
L 338.688 298.944 
" style="fill:none;stroke:#b0b0b0;stroke-linecap:square;stroke-width:0.8;"/>
     </g>
     <g id="line2d_22">
      <defs>
       <path d="M 0 0 
L -3.5 0 
" id="mccdb799118" style="stroke:#000000;stroke-width:0.8;"/>
      </defs>
      <g>
       <use style="stroke:#000000;stroke-width:0.8;" x="57.6" xlink:href="#mccdb799118" y="298.944"/>
      </g>
     </g>
     <g id="text_6">
      <!-- 0.0 -->
      <g transform="translate(25.155 305.02275)scale(0.16 -0.16)">
       <defs>
        <path d="M 10.6875 12.40625 
L 21 12.40625 
L 21 0 
L 10.6875 0 
z
" id="DejaVuSans-46"/>
       </defs>
       <use xlink:href="#DejaVuSans-48"/>
       <use x="63.623047" xlink:href="#DejaVuSans-46"/>
       <use x="95.410156" xlink:href="#DejaVuSans-48"/>
      </g>
     </g>
    </g>
    <g id="ytick_2">
     <g id="line2d_23">
      <path clip-path="url(#p663a7dbc2e)" d="M 57.6 245.22202 
L 338.688 245.22202 
" style="fill:none;stroke:#b0b0b0;stroke-linecap:square;stroke-width:0.8;"/>
     </g>
     <g id="line2d_24">
      <g>
       <use style="stroke:#000000;stroke-width:0.8;" x="57.6" xlink:href="#mccdb799118" y="245.22202"/>
      </g>
     </g>
     <g id="text_7">
      <!-- 0.2 -->
      <g transform="translate(25.155 251.30077)scale(0.16 -0.16)">
       <use xlink:href="#DejaVuSans-48"/>
       <use x="63.623047" xlink:href="#DejaVuSans-46"/>
       <use x="95.410156" xlink:href="#DejaVuSans-50"/>
      </g>
     </g>
    </g>
    <g id="ytick_3">
     <g id="line2d_25">
      <path clip-path="url(#p663a7dbc2e)" d="M 57.6 191.50004 
L 338.688 191.50004 
" style="fill:none;stroke:#b0b0b0;stroke-linecap:square;stroke-width:0.8;"/>
     </g>
     <g id="line2d_26">
      <g>
       <use style="stroke:#000000;stroke-width:0.8;" x="57.6" xlink:href="#mccdb799118" y="191.50004"/>
      </g>
     </g>
     <g id="text_8">
      <!-- 0.4 -->
      <g transform="translate(25.155 197.57879)scale(0.16 -0.16)">
       <use xlink:href="#DejaVuSans-48"/>
       <use x="63.623047" xlink:href="#DejaVuSans-46"/>
       <use x="95.410156" xlink:href="#DejaVuSans-52"/>
      </g>
     </g>
    </g>
    <g id="ytick_4">
     <g id="line2d_27">
      <path clip-path="url(#p663a7dbc2e)" d="M 57.6 137.778059 
L 338.688 137.778059 
" style="fill:none;stroke:#b0b0b0;stroke-linecap:square;stroke-width:0.8;"/>
     </g>
     <g id="line2d_28">
      <g>
       <use style="stroke:#000000;stroke-width:0.8;" x="57.6" xlink:href="#mccdb799118" y="137.778059"/>
      </g>
     </g>
     <g id="text_9">
      <!-- 0.6 -->
      <g transform="translate(25.155 143.856809)scale(0.16 -0.16)">
       <use xlink:href="#DejaVuSans-48"/>
       <use x="63.623047" xlink:href="#DejaVuSans-46"/>
       <use x="95.410156" xlink:href="#DejaVuSans-54"/>
      </g>
     </g>
    </g>
    <g id="ytick_5">
     <g id="line2d_29">
      <path clip-path="url(#p663a7dbc2e)" d="M 57.6 84.056079 
L 338.688 84.056079 
" style="fill:none;stroke:#b0b0b0;stroke-linecap:square;stroke-width:0.8;"/>
     </g>
     <g id="line2d_30">
      <g>
       <use style="stroke:#000000;stroke-width:0.8;" x="57.6" xlink:href="#mccdb799118" y="84.056079"/>
      </g>
     </g>
     <g id="text_10">
      <!-- 0.8 -->
      <g transform="translate(25.155 90.134829)scale(0.16 -0.16)">
       <defs>
        <path d="M 31.78125 34.625 
Q 24.75 34.625 20.71875 30.859375 
Q 16.703125 27.09375 16.703125 20.515625 
Q 16.703125 13.921875 20.71875 10.15625 
Q 24.75 6.390625 31.78125 6.390625 
Q 38.8125 6.390625 42.859375 10.171875 
Q 46.921875 13.96875 46.921875 20.515625 
Q 46.921875 27.09375 42.890625 30.859375 
Q 38.875 34.625 31.78125 34.625 
z
M 21.921875 38.8125 
Q 15.578125 40.375 12.03125 44.71875 
Q 8.5 49.078125 8.5 55.328125 
Q 8.5 64.0625 14.71875 69.140625 
Q 20.953125 74.21875 31.78125 74.21875 
Q 42.671875 74.21875 48.875 69.140625 
Q 55.078125 64.0625 55.078125 55.328125 
Q 55.078125 49.078125 51.53125 44.71875 
Q 48 40.375 41.703125 38.8125 
Q 48.828125 37.15625 52.796875 32.3125 
Q 56.78125 27.484375 56.78125 20.515625 
Q 56.78125 9.90625 50.3125 4.234375 
Q 43.84375 -1.421875 31.78125 -1.421875 
Q 19.734375 -1.421875 13.25 4.234375 
Q 6.78125 9.90625 6.78125 20.515625 
Q 6.78125 27.484375 10.78125 32.3125 
Q 14.796875 37.15625 21.921875 38.8125 
z
M 18.3125 54.390625 
Q 18.3125 48.734375 21.84375 45.5625 
Q 25.390625 42.390625 31.78125 42.390625 
Q 38.140625 42.390625 41.71875 45.5625 
Q 45.3125 48.734375 45.3125 54.390625 
Q 45.3125 60.0625 41.71875 63.234375 
Q 38.140625 66.40625 31.78125 66.40625 
Q 25.390625 66.40625 21.84375 63.234375 
Q 18.3125 60.0625 18.3125 54.390625 
z
" id="DejaVuSans-56"/>
       </defs>
       <use xlink:href="#DejaVuSans-48"/>
       <use x="63.623047" xlink:href="#DejaVuSans-46"/>
       <use x="95.410156" xlink:href="#DejaVuSans-56"/>
      </g>
     </g>
    </g>
    <g id="ytick_6">
     <g id="line2d_31">
      <path clip-path="url(#p663a7dbc2e)" d="M 57.6 30.334099 
L 338.688 30.334099 
" style="fill:none;stroke:#b0b0b0;stroke-linecap:square;stroke-width:0.8;"/>
     </g>
     <g id="line2d_32">
      <g>
       <use style="stroke:#000000;stroke-width:0.8;" x="57.6" xlink:href="#mccdb799118" y="30.334099"/>
      </g>
     </g>
     <g id="text_11">
      <!-- 1.0 -->
      <g transform="translate(25.155 36.412849)scale(0.16 -0.16)">
       <use xlink:href="#DejaVuSans-49"/>
       <use x="63.623047" xlink:href="#DejaVuSans-46"/>
       <use x="95.410156" xlink:href="#DejaVuSans-48"/>
      </g>
     </g>
    </g>
    <g id="text_12">
     <!-- Fraction of function,target pairs -->
     <g transform="translate(17.619531 297.681)rotate(-90)scale(0.17 -0.17)">
      <defs>
       <path d="M 9.8125 72.90625 
L 51.703125 72.90625 
L 51.703125 64.59375 
L 19.671875 64.59375 
L 19.671875 43.109375 
L 48.578125 43.109375 
L 48.578125 34.8125 
L 19.671875 34.8125 
L 19.671875 0 
L 9.8125 0 
z
" id="DejaVuSans-70"/>
       <path d="M 41.109375 46.296875 
Q 39.59375 47.171875 37.8125 47.578125 
Q 36.03125 48 33.890625 48 
Q 26.265625 48 22.1875 43.046875 
Q 18.109375 38.09375 18.109375 28.8125 
L 18.109375 0 
L 9.078125 0 
L 9.078125 54.6875 
L 18.109375 54.6875 
L 18.109375 46.1875 
Q 20.953125 51.171875 25.484375 53.578125 
Q 30.03125 56 36.53125 56 
Q 37.453125 56 38.578125 55.875 
Q 39.703125 55.765625 41.0625 55.515625 
z
" id="DejaVuSans-114"/>
       <path d="M 48.78125 52.59375 
L 48.78125 44.1875 
Q 44.96875 46.296875 41.140625 47.34375 
Q 37.3125 48.390625 33.40625 48.390625 
Q 24.65625 48.390625 19.8125 42.84375 
Q 14.984375 37.3125 14.984375 27.296875 
Q 14.984375 17.28125 19.8125 11.734375 
Q 24.65625 6.203125 33.40625 6.203125 
Q 37.3125 6.203125 41.140625 7.25 
Q 44.96875 8.296875 48.78125 10.40625 
L 48.78125 2.09375 
Q 45.015625 0.34375 40.984375 -0.53125 
Q 36.96875 -1.421875 32.421875 -1.421875 
Q 20.0625 -1.421875 12.78125 6.34375 
Q 5.515625 14.109375 5.515625 27.296875 
Q 5.515625 40.671875 12.859375 48.328125 
Q 20.21875 56 33.015625 56 
Q 37.15625 56 41.109375 55.140625 
Q 45.0625 54.296875 48.78125 52.59375 
z
" id="DejaVuSans-99"/>
       <path d="M 18.3125 70.21875 
L 18.3125 54.6875 
L 36.8125 54.6875 
L 36.8125 47.703125 
L 18.3125 47.703125 
L 18.3125 18.015625 
Q 18.3125 11.328125 20.140625 9.421875 
Q 21.96875 7.515625 27.59375 7.515625 
L 36.8125 7.515625 
L 36.8125 0 
L 27.59375 0 
Q 17.1875 0 13.234375 3.875 
Q 9.28125 7.765625 9.28125 18.015625 
L 9.28125 47.703125 
L 2.6875 47.703125 
L 2.6875 54.6875 
L 9.28125 54.6875 
L 9.28125 70.21875 
z
" id="DejaVuSans-116"/>
       <path d="M 8.5 21.578125 
L 8.5 54.6875 
L 17.484375 54.6875 
L 17.484375 21.921875 
Q 17.484375 14.15625 20.5 10.265625 
Q 23.53125 6.390625 29.59375 6.390625 
Q 36.859375 6.390625 41.078125 11.03125 
Q 45.3125 15.671875 45.3125 23.6875 
L 45.3125 54.6875 
L 54.296875 54.6875 
L 54.296875 0 
L 45.3125 0 
L 45.3125 8.40625 
Q 42.046875 3.421875 37.71875 1 
Q 33.40625 -1.421875 27.6875 -1.421875 
Q 18.265625 -1.421875 13.375 4.4375 
Q 8.5 10.296875 8.5 21.578125 
z
M 31.109375 56 
z
" id="DejaVuSans-117"/>
       <path d="M 11.71875 12.40625 
L 22.015625 12.40625 
L 22.015625 4 
L 14.015625 -11.625 
L 7.71875 -11.625 
L 11.71875 4 
z
" id="DejaVuSans-44"/>
       <path d="M 18.109375 8.203125 
L 18.109375 -20.796875 
L 9.078125 -20.796875 
L 9.078125 54.6875 
L 18.109375 54.6875 
L 18.109375 46.390625 
Q 20.953125 51.265625 25.265625 53.625 
Q 29.59375 56 35.59375 56 
Q 45.5625 56 51.78125 48.09375 
Q 58.015625 40.1875 58.015625 27.296875 
Q 58.015625 14.40625 51.78125 6.484375 
Q 45.5625 -1.421875 35.59375 -1.421875 
Q 29.59375 -1.421875 25.265625 0.953125 
Q 20.953125 3.328125 18.109375 8.203125 
z
M 48.6875 27.296875 
Q 48.6875 37.203125 44.609375 42.84375 
Q 40.53125 48.484375 33.40625 48.484375 
Q 26.265625 48.484375 22.1875 42.84375 
Q 18.109375 37.203125 18.109375 27.296875 
Q 18.109375 17.390625 22.1875 11.75 
Q 26.265625 6.109375 33.40625 6.109375 
Q 40.53125 6.109375 44.609375 11.75 
Q 48.6875 17.390625 48.6875 27.296875 
z
" id="DejaVuSans-112"/>
      </defs>
      <use xlink:href="#DejaVuSans-70"/>
      <use x="50.269531" xlink:href="#DejaVuSans-114"/>
      <use x="91.382812" xlink:href="#DejaVuSans-97"/>
      <use x="152.662109" xlink:href="#DejaVuSans-99"/>
      <use x="207.642578" xlink:href="#DejaVuSans-116"/>
      <use x="246.851562" xlink:href="#DejaVuSans-105"/>
      <use x="274.634766" xlink:href="#DejaVuSans-111"/>
      <use x="335.816406" xlink:href="#DejaVuSans-110"/>
      <use x="399.195312" xlink:href="#DejaVuSans-32"/>
      <use x="430.982422" xlink:href="#DejaVuSans-111"/>
      <use x="492.164062" xlink:href="#DejaVuSans-102"/>
      <use x="527.369141" xlink:href="#DejaVuSans-32"/>
      <use x="559.15625" xlink:href="#DejaVuSans-102"/>
      <use x="594.361328" xlink:href="#DejaVuSans-117"/>
      <use x="657.740234" xlink:href="#DejaVuSans-110"/>
      <use x="721.119141" xlink:href="#DejaVuSans-99"/>
      <use x="776.099609" xlink:href="#DejaVuSans-116"/>
      <use x="815.308594" xlink:href="#DejaVuSans-105"/>
      <use x="843.091797" xlink:href="#DejaVuSans-111"/>
      <use x="904.273438" xlink:href="#DejaVuSans-110"/>
      <use x="967.652344" xlink:href="#DejaVuSans-44"/>
      <use x="999.439453" xlink:href="#DejaVuSans-116"/>
      <use x="1038.648438" xlink:href="#DejaVuSans-97"/>
      <use x="1099.927734" xlink:href="#DejaVuSans-114"/>
      <use x="1139.291016" xlink:href="#DejaVuSans-103"/>
      <use x="1202.767578" xlink:href="#DejaVuSans-101"/>
      <use x="1264.291016" xlink:href="#DejaVuSans-116"/>
      <use x="1303.5" xlink:href="#DejaVuSans-32"/>
      <use x="1335.287109" xlink:href="#DejaVuSans-112"/>
      <use x="1398.763672" xlink:href="#DejaVuSans-97"/>
      <use x="1460.042969" xlink:href="#DejaVuSans-105"/>
      <use x="1487.826172" xlink:href="#DejaVuSans-114"/>
      <use x="1528.939453" xlink:href="#DejaVuSans-115"/>
     </g>
    </g>
   </g>
   <g id="line2d_33">
    <defs>
     <path d="M 0 1.5 
C 0.397805 1.5 0.77937 1.341951 1.06066 1.06066 
C 1.341951 0.77937 1.5 0.397805 1.5 0 
C 1.5 -0.397805 1.341951 -0.77937 1.06066 -1.06066 
C 0.77937 -1.341951 0.397805 -1.5 0 -1.5 
C -0.397805 -1.5 -0.77937 -1.341951 -1.06066 -1.06066 
C -1.341951 -0.77937 -1.5 -0.397805 -1.5 0 
C -1.5 0.397805 -1.341951 0.77937 -1.06066 1.06066 
C -0.77937 1.341951 -0.397805 1.5 0 1.5 
z
" id="m5294925d24" style="stroke:#f5deb3;"/>
    </defs>
    <g>
     <use style="fill:#f5deb3;stroke:#f5deb3;" x="186.723182" xlink:href="#m5294925d24" y="30.334099"/>
     <use style="fill:#f5deb3;stroke:#f5deb3;" x="186.723182" xlink:href="#m5294925d24" y="30.334099"/>
    </g>
   </g>
   <g id="line2d_34">
    <defs>
     <path d="M 0 1.5 
C 0.397805 1.5 0.77937 1.341951 1.06066 1.06066 
C 1.341951 0.77937 1.5 0.397805 1.5 0 
C 1.5 -0.397805 1.341951 -0.77937 1.06066 -1.06066 
C 0.77937 -1.341951 0.397805 -1.5 0 -1.5 
C -0.397805 -1.5 -0.77937 -1.341951 -1.06066 -1.06066 
C -1.341951 -0.77937 -1.5 -0.397805 -1.5 0 
C -1.5 0.397805 -1.341951 0.77937 -1.06066 1.06066 
C -0.77937 1.341951 -0.397805 1.5 0 1.5 
z
" id="maede525a17" style="stroke:#000080;"/>
    </defs>
    <g>
     <use style="fill:#000080;stroke:#000080;" x="288.466425" xlink:href="#maede525a17" y="204.140506"/>
     <use style="fill:#000080;stroke:#000080;" x="288.466425" xlink:href="#maede525a17" y="204.140506"/>
    </g>
   </g>
   <g id="line2d_35">
    <path d="M 153.616112 298.944 
L 153.616112 298.417314 
L 156.556648 298.417314 
L 156.613429 297.363942 
L 157.283635 297.363942 
L 157.352406 296.31057 
L 157.610728 296.31057 
L 157.627627 295.257197 
L 158.689678 295.257197 
L 158.689678 294.730511 
L 159.471793 294.730511 
L 159.471793 294.203825 
L 160.767258 294.203825 
L 160.767258 293.677139 
L 161.818836 293.677139 
L 161.818836 293.150453 
L 162.112973 293.150453 
L 162.112973 292.623767 
L 162.225793 292.623767 
L 162.225793 292.097081 
L 162.572663 292.097081 
L 162.640372 290.517023 
L 163.04945 290.517023 
L 163.04945 289.990337 
L 164.692077 289.990337 
L 164.692077 289.463651 
L 164.889956 289.463651 
L 164.889956 288.936964 
L 165.072761 288.936964 
L 165.072761 288.410278 
L 165.251852 288.410278 
L 165.251852 287.883592 
L 165.650872 287.883592 
L 165.650872 287.356906 
L 166.002695 287.356906 
L 166.046178 285.776848 
L 166.24825 285.776848 
L 166.24825 285.250162 
L 166.979652 285.250162 
L 166.979652 284.723476 
L 168.050941 284.723476 
L 168.050941 284.19679 
L 168.293904 284.19679 
L 168.34118 283.143418 
L 168.536542 283.143418 
L 168.632659 282.090045 
L 168.711858 282.090045 
L 168.711858 281.563359 
L 169.178188 281.563359 
L 169.236155 280.509987 
L 169.305462 280.509987 
L 169.305462 279.983301 
L 169.674749 279.983301 
L 169.674749 279.456615 
L 169.954657 279.456615 
L 170.012871 278.403243 
L 170.850355 278.403243 
L 170.906974 277.349871 
L 171.050982 277.349871 
L 171.050982 276.823185 
L 171.31366 276.823185 
L 171.31366 276.296499 
L 172.121725 276.296499 
L 172.121725 275.769812 
L 172.623288 275.769812 
L 172.623288 275.243126 
L 172.904553 275.243126 
L 172.904553 274.71644 
L 173.339863 274.71644 
L 173.339863 274.189754 
L 173.581725 274.189754 
L 173.581725 273.663068 
L 174.181361 273.663068 
L 174.181361 273.136382 
L 174.429099 273.136382 
L 174.429099 272.609696 
L 174.719912 272.609696 
L 174.809476 271.556324 
L 175.112667 271.556324 
L 175.112667 271.029638 
L 175.384257 271.029638 
L 175.405599 269.976266 
L 175.624621 269.976266 
L 175.624621 269.449579 
L 176.227905 269.449579 
L 176.227905 268.922893 
L 176.556161 268.922893 
L 176.556161 268.396207 
L 176.903537 268.396207 
L 176.910992 267.342835 
L 177.040942 267.342835 
L 177.040942 266.816149 
L 177.717524 266.816149 
L 177.717524 266.289463 
L 178.135035 266.289463 
L 178.135035 265.762777 
L 178.98346 265.762777 
L 178.98346 265.236091 
L 179.472902 265.236091 
L 179.493803 264.182719 
L 179.726048 264.182719 
L 179.726048 263.656033 
L 180.766268 263.656033 
L 180.766268 263.129347 
L 180.927596 263.129347 
L 180.927596 262.60266 
L 181.1065 262.60266 
L 181.1065 262.075974 
L 181.850692 262.075974 
L 181.850692 261.549288 
L 182.069698 261.549288 
L 182.069698 261.022602 
L 183.368869 261.022602 
L 183.435008 259.96923 
L 184.690415 259.96923 
L 184.690415 259.442544 
L 185.742296 259.442544 
L 185.834696 258.389172 
L 186.606017 258.389172 
L 186.606017 257.862486 
L 187.064299 257.862486 
L 187.064299 257.3358 
L 219.013435 257.3358 
L 219.013435 256.809114 
L 219.267553 256.809114 
L 219.267553 256.282427 
L 219.430457 256.282427 
L 219.455091 255.229055 
L 219.793094 255.229055 
L 219.890116 253.648997 
L 220.041442 253.648997 
L 220.049453 252.595625 
L 220.28429 252.595625 
L 220.28429 251.542253 
L 220.446222 251.542253 
L 220.446222 251.015567 
L 220.739174 251.015567 
L 220.751623 249.962195 
L 230.924544 249.962195 
L 230.937292 248.908822 
L 231.077284 248.908822 
L 231.170572 246.275392 
L 231.308011 246.275392 
L 231.395243 243.641962 
L 231.540114 243.641962 
L 231.540114 243.115275 
L 231.677504 243.115275 
L 231.712497 241.535217 
L 237.801615 241.535217 
L 237.818489 240.481845 
L 237.982905 240.481845 
L 238.081688 238.901787 
L 238.095698 238.901787 
L 238.169555 236.795043 
L 238.210565 236.795043 
L 238.210565 235.74167 
L 242.829993 235.74167 
L 242.936652 232.581554 
L 243.286819 232.581554 
L 243.286819 232.054868 
L 246.658401 232.054868 
L 246.658401 231.528182 
L 246.82256 231.528182 
L 246.82256 231.001496 
L 249.7581 231.001496 
L 249.838117 228.368065 
L 249.948957 228.368065 
L 249.948957 227.314693 
L 252.451075 227.314693 
L 252.53965 225.734635 
L 252.569432 225.734635 
L 252.569432 225.207949 
L 254.717373 225.207949 
L 254.801516 223.101204 
L 254.847098 223.101204 
L 254.847098 222.047832 
L 256.745833 222.047832 
L 256.820756 220.467774 
L 258.540807 220.467774 
L 258.645885 218.887716 
L 258.65942 218.887716 
L 258.738252 217.307658 
L 260.253653 217.307658 
L 260.253653 216.780971 
L 261.757278 216.780971 
L 261.757278 216.254285 
L 263.100188 216.254285 
L 263.124055 214.674227 
L 264.438373 214.674227 
L 264.438373 214.147541 
L 265.61732 214.147541 
L 265.61732 213.620855 
L 266.713114 213.620855 
L 266.742117 212.040797 
L 268.789275 212.040797 
L 268.789275 211.514111 
L 269.761602 211.514111 
L 269.761602 210.987425 
L 271.413574 210.987425 
L 271.444486 209.934052 
L 272.221384 209.934052 
L 272.249941 208.353994 
L 273.007416 208.353994 
L 273.007416 207.827308 
L 274.458286 207.827308 
L 274.458286 207.300622 
L 277.009156 207.300622 
L 277.016374 206.24725 
L 278.746084 206.24725 
L 278.746084 205.720564 
L 285.789007 205.720564 
L 285.789007 205.193878 
L 287.177528 205.193878 
L 287.177528 204.667192 
L 288.466425 204.667192 
L 288.466425 204.140506 
L 338.688 204.140506 
L 338.688 204.140506 
" style="fill:none;stroke:#000080;stroke-linecap:square;stroke-width:1.5;"/>
   </g>
   <g id="line2d_36">
    <defs>
     <path d="M 0 6 
C 1.591219 6 3.117479 5.367802 4.242641 4.242641 
C 5.367802 3.117479 6 1.591219 6 0 
C 6 -1.591219 5.367802 -3.117479 4.242641 -4.242641 
C 3.117479 -5.367802 1.591219 -6 0 -6 
C -1.591219 -6 -3.117479 -5.367802 -4.242641 -4.242641 
C -5.367802 -3.117479 -6 -1.591219 -6 0 
C -6 1.591219 -5.367802 3.117479 -4.242641 4.242641 
C -3.117479 5.367802 -1.591219 6 0 6 
z
" id="me9ca84a228" style="stroke:#000080;stroke-width:1.5;"/>
    </defs>
    <g>
     <use style="fill-opacity:0;stroke:#000080;stroke-width:1.5;" x="220.751623" xlink:href="#me9ca84a228" y="250.488881"/>
     <use style="fill-opacity:0;stroke:#000080;stroke-width:1.5;" x="288.466425" xlink:href="#me9ca84a228" y="204.667192"/>
     <use style="fill-opacity:0;stroke:#000080;stroke-width:1.5;" x="288.466425" xlink:href="#me9ca84a228" y="204.140506"/>
     <use style="fill-opacity:0;stroke:#000080;stroke-width:1.5;" x="338.688" xlink:href="#me9ca84a228" y="204.140506"/>
    </g>
   </g>
   <g id="line2d_37">
    <path style="fill:none;stroke:#000080;stroke-linecap:square;stroke-width:1.5;"/>
    <g/>
   </g>
   <g id="line2d_38">
    <path clip-path="url(#p663a7dbc2e)" d="M 218.221714 257.3358 
" style="fill:none;stroke:#000080;stroke-linecap:square;stroke-width:1.5;"/>
    <defs>
     <path d="M -12 12 
L 12 -12 
M -12 -12 
L 12 12 
" id="m452539bf8b" style="stroke:#000080;"/>
    </defs>
    <g clip-path="url(#p663a7dbc2e)">
     <use style="fill:#000080;stroke:#000080;" x="218.221714" xlink:href="#m452539bf8b" y="257.3358"/>
    </g>
   </g>
   <g id="line2d_39">
    <path clip-path="url(#p663a7dbc2e)" d="M 57.6 298.944 
L 57.6 298.944 
L 57.6 298.944 
L 57.6 298.944 
L 338.688 298.944 
" style="fill:none;stroke:#ff00ff;stroke-linecap:square;stroke-width:1.5;"/>
   </g>
   <g id="line2d_40">
    <defs>
     <path d="M -0 8.485281 
L 5.091169 0 
L 0 -8.485281 
L -5.091169 -0 
z
" id="me2925f0a73" style="stroke:#ff00ff;stroke-linejoin:miter;stroke-width:1.5;"/>
    </defs>
    <g clip-path="url(#p663a7dbc2e)">
     <use style="fill-opacity:0;stroke:#ff00ff;stroke-linejoin:miter;stroke-width:1.5;" x="57.6" xlink:href="#me2925f0a73" y="298.944"/>
    </g>
   </g>
   <g id="line2d_41">
    <path clip-path="url(#p663a7dbc2e)" style="fill:none;stroke:#ff00ff;stroke-linecap:square;stroke-width:1.5;"/>
    <g clip-path="url(#p663a7dbc2e)">
     <use style="fill-opacity:0;stroke:#ff00ff;stroke-linejoin:miter;stroke-width:1.5;" x="-1" xlink:href="#me2925f0a73" y="567.553901"/>
     <use style="fill-opacity:0;stroke:#ff00ff;stroke-linejoin:miter;stroke-width:1.5;" x="338.688" xlink:href="#me2925f0a73" y="567.553901"/>
    </g>
   </g>
   <g id="line2d_42">
    <path clip-path="url(#p663a7dbc2e)" d="M 57.6 298.944 
L 57.6 298.944 
L 57.6 298.944 
L 57.6 298.944 
L 338.688 298.944 
" style="fill:none;stroke:#ff7500;stroke-linecap:square;stroke-width:1.5;"/>
   </g>
   <g id="line2d_43">
    <defs>
     <path d="M 0 -6 
L -1.347084 -1.854102 
L -5.706339 -1.854102 
L -2.179628 0.708204 
L -3.526712 4.854102 
L -0 2.291796 
L 3.526712 4.854102 
L 2.179628 0.708204 
L 5.706339 -1.854102 
L 1.347084 -1.854102 
z
" id="mfcd78a1998" style="stroke:#ff7500;stroke-linejoin:bevel;stroke-width:1.5;"/>
    </defs>
    <g clip-path="url(#p663a7dbc2e)">
     <use style="fill-opacity:0;stroke:#ff7500;stroke-linejoin:bevel;stroke-width:1.5;" x="57.6" xlink:href="#mfcd78a1998" y="298.944"/>
    </g>
   </g>
   <g id="line2d_44">
    <path clip-path="url(#p663a7dbc2e)" style="fill:none;stroke:#ff7500;stroke-linecap:square;stroke-width:1.5;"/>
    <g clip-path="url(#p663a7dbc2e)">
     <use style="fill-opacity:0;stroke:#ff7500;stroke-linejoin:bevel;stroke-width:1.5;" x="-1" xlink:href="#mfcd78a1998" y="567.553901"/>
     <use style="fill-opacity:0;stroke:#ff7500;stroke-linejoin:bevel;stroke-width:1.5;" x="338.688" xlink:href="#mfcd78a1998" y="567.553901"/>
    </g>
   </g>
   <g id="line2d_45">
    <path clip-path="url(#p663a7dbc2e)" d="M 57.6 298.944 
L 57.6 298.944 
L 57.6 298.944 
L 57.6 298.944 
L 338.688 298.944 
" style="fill:none;stroke:#6495ed;stroke-linecap:square;stroke-width:1.5;"/>
   </g>
   <g id="line2d_46">
    <defs>
     <path d="M -0 6 
L 6 -6 
L -6 -6 
z
" id="m16d40d9c0a" style="stroke:#6495ed;stroke-linejoin:miter;stroke-width:1.5;"/>
    </defs>
    <g clip-path="url(#p663a7dbc2e)">
     <use style="fill-opacity:0;stroke:#6495ed;stroke-linejoin:miter;stroke-width:1.5;" x="57.6" xlink:href="#m16d40d9c0a" y="298.944"/>
    </g>
   </g>
   <g id="line2d_47">
    <path clip-path="url(#p663a7dbc2e)" style="fill:none;stroke:#6495ed;stroke-linecap:square;stroke-width:1.5;"/>
    <g clip-path="url(#p663a7dbc2e)">
     <use style="fill-opacity:0;stroke:#6495ed;stroke-linejoin:miter;stroke-width:1.5;" x="-1" xlink:href="#m16d40d9c0a" y="567.553901"/>
     <use style="fill-opacity:0;stroke:#6495ed;stroke-linejoin:miter;stroke-width:1.5;" x="338.688" xlink:href="#m16d40d9c0a" y="567.553901"/>
    </g>
   </g>
   <g id="line2d_48">
    <defs>
     <path d="M 0 1.5 
C 0.397805 1.5 0.77937 1.341951 1.06066 1.06066 
C 1.341951 0.77937 1.5 0.397805 1.5 0 
C 1.5 -0.397805 1.341951 -0.77937 1.06066 -1.06066 
C 0.77937 -1.341951 0.397805 -1.5 0 -1.5 
C -0.397805 -1.5 -0.77937 -1.341951 -1.06066 -1.06066 
C -1.341951 -0.77937 -1.5 -0.397805 -1.5 0 
C -1.5 0.397805 -1.341951 0.77937 -1.06066 1.06066 
C -0.77937 1.341951 -0.397805 1.5 0 1.5 
z
" id="md36571c5c3" style="stroke:#ff0000;"/>
    </defs>
    <g>
     <use style="fill:#ff0000;stroke:#ff0000;" x="291.826068" xlink:href="#md36571c5c3" y="209.407366"/>
     <use style="fill:#ff0000;stroke:#ff0000;" x="291.826068" xlink:href="#md36571c5c3" y="209.407366"/>
    </g>
   </g>
   <g id="line2d_49">
    <path d="M 139.341588 298.944 
L 139.341588 298.417314 
L 141.126708 298.417314 
L 141.126708 297.890628 
L 141.871938 297.890628 
L 141.871938 297.363942 
L 142.857929 297.363942 
L 142.943078 296.31057 
L 143.324386 296.31057 
L 143.324386 295.783884 
L 143.672487 295.783884 
L 143.672487 295.257197 
L 144.001481 295.257197 
L 144.001481 294.730511 
L 144.706499 294.730511 
L 144.706499 294.203825 
L 145.452153 294.203825 
L 145.452153 293.677139 
L 146.324022 293.677139 
L 146.324022 293.150453 
L 147.035929 293.150453 
L 147.035929 292.623767 
L 147.180013 292.623767 
L 147.180013 292.097081 
L 147.363533 292.097081 
L 147.363533 291.570395 
L 147.818997 291.570395 
L 147.927346 290.517023 
L 147.986163 290.517023 
L 147.995947 289.463651 
L 148.175961 289.463651 
L 148.175961 288.936964 
L 149.350404 288.936964 
L 149.350404 287.883592 
L 149.801542 287.883592 
L 149.801542 287.356906 
L 150.155097 287.356906 
L 150.155097 286.83022 
L 150.292822 286.83022 
L 150.292822 286.303534 
L 150.484675 286.303534 
L 150.484675 285.776848 
L 150.687018 285.776848 
L 150.687018 285.250162 
L 151.084795 285.250162 
L 151.162458 284.19679 
L 151.349063 284.19679 
L 151.349063 283.670104 
L 152.037389 283.670104 
L 152.072263 282.616732 
L 152.260923 282.616732 
L 152.260923 282.090045 
L 152.814956 282.090045 
L 152.814956 281.563359 
L 153.028802 281.563359 
L 153.028802 281.036673 
L 153.722083 281.036673 
L 153.7432 279.983301 
L 155.076745 279.983301 
L 155.076745 279.456615 
L 155.498463 279.456615 
L 155.55879 278.403243 
L 155.725976 278.403243 
L 155.725976 277.876557 
L 156.30945 277.876557 
L 156.30945 277.349871 
L 156.481653 277.349871 
L 156.481653 276.823185 
L 156.753099 276.823185 
L 156.753099 276.296499 
L 157.372413 276.296499 
L 157.372413 275.769812 
L 157.787352 275.769812 
L 157.787352 275.243126 
L 158.9003 275.243126 
L 158.9003 274.71644 
L 159.298723 274.71644 
L 159.298723 274.189754 
L 159.88474 274.189754 
L 159.88474 273.663068 
L 160.401352 273.663068 
L 160.401352 273.136382 
L 160.968303 273.136382 
L 160.968303 272.609696 
L 162.227956 272.609696 
L 162.227956 272.08301 
L 163.889114 272.08301 
L 163.889114 271.556324 
L 164.047627 271.556324 
L 164.047627 271.029638 
L 166.067012 271.029638 
L 166.068747 269.976266 
L 168.494323 269.976266 
L 168.494323 269.449579 
L 168.867706 269.449579 
L 168.867706 268.922893 
L 173.00275 268.922893 
L 173.00275 268.396207 
L 182.134728 268.396207 
L 182.134728 267.869521 
L 188.892912 267.869521 
L 188.892912 267.342835 
L 218.477323 267.342835 
L 218.571588 264.709405 
L 218.589014 264.709405 
L 218.68701 261.022602 
L 218.703642 261.022602 
L 218.703642 260.495916 
L 218.911144 260.495916 
L 218.952417 257.862486 
L 219.048397 257.862486 
L 219.102118 255.755741 
L 219.20099 255.755741 
L 219.217387 254.702369 
L 220.295519 254.702369 
L 220.295519 254.175683 
L 230.547128 254.175683 
L 230.607022 252.595625 
L 230.659876 252.595625 
L 230.75546 251.015567 
L 230.806214 251.015567 
L 230.806214 250.488881 
L 230.968597 250.488881 
L 230.968597 249.962195 
L 231.860871 249.962195 
L 231.860871 249.435508 
L 233.451106 249.435508 
L 233.451106 248.908822 
L 237.510914 248.908822 
L 237.614635 244.168648 
L 237.627708 244.168648 
L 237.718969 243.115275 
L 237.81021 243.115275 
L 237.81021 242.588589 
L 242.471977 242.588589 
L 242.545688 240.481845 
L 242.583257 240.481845 
L 242.583257 239.428473 
L 242.720794 239.428473 
L 242.720794 238.901787 
L 243.190516 238.901787 
L 243.190516 238.375101 
L 246.382241 238.375101 
L 246.489458 235.74167 
L 249.577411 235.74167 
L 249.618567 233.10824 
L 252.224224 233.10824 
L 252.303385 231.001496 
L 252.342351 231.001496 
L 252.342351 230.47481 
L 256.639778 230.47481 
L 256.639778 229.948123 
L 258.431573 229.948123 
L 258.47975 226.788007 
L 261.60207 226.788007 
L 261.631788 225.207949 
L 262.998258 225.207949 
L 263.052642 223.627891 
L 263.200394 223.627891 
L 263.200394 223.101204 
L 264.281635 223.101204 
L 264.318329 221.521146 
L 264.4752 221.521146 
L 264.4752 219.941088 
L 265.50826 219.941088 
L 265.50826 219.414402 
L 266.622387 219.414402 
L 266.622387 218.887716 
L 266.775279 218.887716 
L 266.775279 218.36103 
L 269.599076 218.36103 
L 269.639134 216.780971 
L 270.500419 216.780971 
L 270.510223 215.727599 
L 271.364932 215.727599 
L 271.364932 215.200913 
L 272.16827 215.200913 
L 272.16827 214.674227 
L 272.959103 214.674227 
L 272.959103 214.147541 
L 276.36968 214.147541 
L 276.36968 213.620855 
L 277.570421 213.620855 
L 277.570421 213.094169 
L 278.762753 213.094169 
L 278.762753 212.567483 
L 279.229449 212.567483 
L 279.229449 212.040797 
L 280.253806 212.040797 
L 280.253806 211.514111 
L 280.737378 211.514111 
L 280.737378 210.987425 
L 282.585701 210.987425 
L 282.585701 210.460738 
L 288.752492 210.460738 
L 288.752492 209.934052 
L 291.826068 209.934052 
L 291.826068 209.407366 
L 338.688 209.407366 
L 338.688 209.407366 
" style="fill:none;stroke:#ff0000;stroke-linecap:square;stroke-width:1.5;"/>
   </g>
   <g id="line2d_50">
    <defs>
     <path d="M 0 -6 
L -5.196152 -3 
L -5.196152 3 
L -0 6 
L 5.196152 3 
L 5.196152 -3 
z
" id="md340c99c21" style="stroke:#ff0000;stroke-linejoin:miter;stroke-width:1.5;"/>
    </defs>
    <g>
     <use style="fill-opacity:0;stroke:#ff0000;stroke-linejoin:miter;stroke-width:1.5;" x="188.892912" xlink:href="#md340c99c21" y="267.869521"/>
     <use style="fill-opacity:0;stroke:#ff0000;stroke-linejoin:miter;stroke-width:1.5;" x="242.471977" xlink:href="#md340c99c21" y="242.061903"/>
     <use style="fill-opacity:0;stroke:#ff0000;stroke-linejoin:miter;stroke-width:1.5;" x="280.737378" xlink:href="#md340c99c21" y="211.514111"/>
     <use style="fill-opacity:0;stroke:#ff0000;stroke-linejoin:miter;stroke-width:1.5;" x="291.826068" xlink:href="#md340c99c21" y="209.407366"/>
     <use style="fill-opacity:0;stroke:#ff0000;stroke-linejoin:miter;stroke-width:1.5;" x="338.688" xlink:href="#md340c99c21" y="209.407366"/>
    </g>
   </g>
   <g id="line2d_51">
    <path style="fill:none;stroke:#ff0000;stroke-linecap:square;stroke-width:1.5;"/>
    <g/>
   </g>
   <g id="line2d_52">
    <path clip-path="url(#p663a7dbc2e)" d="M 218.221714 267.342835 
" style="fill:none;stroke:#ff0000;stroke-linecap:square;stroke-width:1.5;"/>
    <defs>
     <path d="M -12 12 
L 12 -12 
M -12 -12 
L 12 12 
" id="m931707fa77" style="stroke:#ff0000;"/>
    </defs>
    <g clip-path="url(#p663a7dbc2e)">
     <use style="fill:#ff0000;stroke:#ff0000;" x="218.221714" xlink:href="#m931707fa77" y="267.342835"/>
    </g>
   </g>
   <g id="line2d_53">
    <defs>
     <path d="M 0 1.5 
C 0.397805 1.5 0.77937 1.341951 1.06066 1.06066 
C 1.341951 0.77937 1.5 0.397805 1.5 0 
C 1.5 -0.397805 1.341951 -0.77937 1.06066 -1.06066 
C 0.77937 -1.341951 0.397805 -1.5 0 -1.5 
C -0.397805 -1.5 -0.77937 -1.341951 -1.06066 -1.06066 
C -1.341951 -0.77937 -1.5 -0.397805 -1.5 0 
C -1.5 0.397805 -1.341951 0.77937 -1.06066 1.06066 
C -0.77937 1.341951 -0.397805 1.5 0 1.5 
z
" id="m80ff66e13a" style="stroke:#9acd32;"/>
    </defs>
    <g>
     <use style="fill:#9acd32;stroke:#9acd32;" x="291.304122" xlink:href="#m80ff66e13a" y="214.674227"/>
     <use style="fill:#9acd32;stroke:#9acd32;" x="291.304122" xlink:href="#m80ff66e13a" y="214.674227"/>
    </g>
   </g>
   <g id="line2d_54">
    <path d="M 150.87046 298.944 
L 150.87046 298.417314 
L 151.465687 298.417314 
L 151.465687 297.890628 
L 151.912822 297.890628 
L 151.912822 297.363942 
L 152.394441 297.363942 
L 152.394441 296.837256 
L 154.259572 296.837256 
L 154.259572 296.31057 
L 154.9492 296.31057 
L 154.9492 295.783884 
L 155.590458 295.783884 
L 155.590458 295.257197 
L 155.872907 295.257197 
L 155.872907 294.730511 
L 156.424441 294.730511 
L 156.424441 294.203825 
L 156.935649 294.203825 
L 156.935649 293.677139 
L 158.157181 293.677139 
L 158.157181 293.150453 
L 159.069577 293.150453 
L 159.149734 292.097081 
L 159.943998 292.097081 
L 159.948927 291.043709 
L 160.56149 291.043709 
L 160.56149 290.517023 
L 160.811875 290.517023 
L 160.811875 289.990337 
L 161.602778 289.990337 
L 161.66542 288.936964 
L 161.765627 288.936964 
L 161.765627 288.410278 
L 161.999419 288.410278 
L 161.999419 287.883592 
L 162.134726 287.883592 
L 162.134726 287.356906 
L 162.648818 287.356906 
L 162.648818 286.83022 
L 163.047387 286.83022 
L 163.047387 286.303534 
L 163.707309 286.303534 
L 163.733114 285.250162 
L 164.624359 285.250162 
L 164.635664 284.19679 
L 164.975134 284.19679 
L 164.975134 283.670104 
L 165.293619 283.670104 
L 165.293619 283.143418 
L 166.028798 283.143418 
L 166.028798 282.616732 
L 166.177705 282.616732 
L 166.177705 282.090045 
L 166.830823 282.090045 
L 166.830823 281.563359 
L 167.532297 281.563359 
L 167.532297 281.036673 
L 168.46864 281.036673 
L 168.46864 280.509987 
L 168.824801 280.509987 
L 168.824801 279.983301 
L 169.746554 279.983301 
L 169.746554 279.456615 
L 169.935209 279.456615 
L 169.935209 278.929929 
L 173.168658 278.929929 
L 173.168658 278.403243 
L 173.585107 278.403243 
L 173.585107 277.876557 
L 175.940696 277.876557 
L 175.940696 277.349871 
L 178.017387 277.349871 
L 178.017387 276.823185 
L 180.241602 276.823185 
L 180.241602 276.296499 
L 181.891353 276.296499 
L 181.891353 275.769812 
L 182.446122 275.769812 
L 182.446122 275.243126 
L 192.607916 275.243126 
L 192.607916 274.71644 
L 218.715767 274.71644 
L 218.801419 273.663068 
L 218.858344 273.663068 
L 218.943635 272.08301 
L 218.970887 272.08301 
L 219.040578 268.396207 
L 219.082127 268.396207 
L 219.138641 265.236091 
L 219.219199 265.236091 
L 219.300944 263.129347 
L 219.361737 263.129347 
L 219.426877 261.549288 
L 219.491287 261.549288 
L 219.589999 259.96923 
L 219.679014 259.96923 
L 219.700976 258.915858 
L 221.599745 258.915858 
L 221.599745 258.389172 
L 230.601964 258.389172 
L 230.659747 256.809114 
L 230.760389 256.809114 
L 230.857665 253.648997 
L 230.906058 253.648997 
L 230.95604 252.068939 
L 231.065014 252.068939 
L 231.065014 251.015567 
L 237.592482 251.015567 
L 237.657972 247.85545 
L 237.76907 247.85545 
L 237.880143 244.695334 
L 237.88788 244.695334 
L 237.88788 244.168648 
L 242.631482 244.168648 
L 242.666184 242.588589 
L 242.773591 242.588589 
L 242.773591 242.061903 
L 246.416518 242.061903 
L 246.504278 239.428473 
L 246.550571 239.428473 
L 246.550571 238.901787 
L 249.599883 238.901787 
L 249.637849 237.321729 
L 252.288902 237.321729 
L 252.37615 235.214984 
L 254.581246 235.214984 
L 254.674642 232.054868 
L 256.636627 232.054868 
L 256.662997 231.001496 
L 258.473082 231.001496 
L 258.498057 229.421437 
L 260.14924 229.421437 
L 260.158595 227.841379 
L 263.070939 227.841379 
L 263.070939 227.314693 
L 264.331429 227.314693 
L 264.33879 226.261321 
L 265.526527 226.261321 
L 265.528865 225.207949 
L 266.649337 225.207949 
L 266.651481 224.154577 
L 267.694466 224.154577 
L 267.720097 223.101204 
L 268.700729 223.101204 
L 268.711956 222.047832 
L 269.627483 222.047832 
L 269.627483 221.521146 
L 271.372007 221.521146 
L 271.388224 220.467774 
L 273.693707 220.467774 
L 273.707904 219.414402 
L 274.399832 219.414402 
L 274.406434 217.834344 
L 275.082152 217.834344 
L 275.091153 216.254285 
L 284.640915 216.254285 
L 284.640915 215.727599 
L 285.760091 215.727599 
L 285.760091 215.200913 
L 291.304122 215.200913 
L 291.304122 214.674227 
L 338.688 214.674227 
L 338.688 214.674227 
" style="fill:none;stroke:#9acd32;stroke-linecap:square;stroke-width:1.5;"/>
   </g>
   <g id="line2d_55">
    <defs>
     <path d="M 0 -6 
L -6 6 
L 6 6 
z
" id="m1ca2434030" style="stroke:#9acd32;stroke-linejoin:miter;stroke-width:1.5;"/>
    </defs>
    <g>
     <use style="fill-opacity:0;stroke:#9acd32;stroke-linejoin:miter;stroke-width:1.5;" x="192.607916" xlink:href="#m1ca2434030" y="274.71644"/>
     <use style="fill-opacity:0;stroke:#9acd32;stroke-linejoin:miter;stroke-width:1.5;" x="246.550571" xlink:href="#m1ca2434030" y="238.901787"/>
     <use style="fill-opacity:0;stroke:#9acd32;stroke-linejoin:miter;stroke-width:1.5;" x="291.304122" xlink:href="#m1ca2434030" y="215.200913"/>
     <use style="fill-opacity:0;stroke:#9acd32;stroke-linejoin:miter;stroke-width:1.5;" x="291.304122" xlink:href="#m1ca2434030" y="214.674227"/>
     <use style="fill-opacity:0;stroke:#9acd32;stroke-linejoin:miter;stroke-width:1.5;" x="338.688" xlink:href="#m1ca2434030" y="214.674227"/>
    </g>
   </g>
   <g id="line2d_56">
    <path style="fill:none;stroke:#9acd32;stroke-linecap:square;stroke-width:1.5;"/>
    <g/>
   </g>
   <g id="line2d_57">
    <path clip-path="url(#p663a7dbc2e)" d="M 218.221714 274.71644 
" style="fill:none;stroke:#9acd32;stroke-linecap:square;stroke-width:1.5;"/>
    <defs>
     <path d="M -12 12 
L 12 -12 
M -12 -12 
L 12 12 
" id="mf0986b5ee4" style="stroke:#9acd32;"/>
    </defs>
    <g clip-path="url(#p663a7dbc2e)">
     <use style="fill:#9acd32;stroke:#9acd32;" x="218.221714" xlink:href="#mf0986b5ee4" y="274.71644"/>
    </g>
   </g>
   <g id="line2d_58">
    <defs>
     <path d="M 0 1.5 
C 0.397805 1.5 0.77937 1.341951 1.06066 1.06066 
C 1.341951 0.77937 1.5 0.397805 1.5 0 
C 1.5 -0.397805 1.341951 -0.77937 1.06066 -1.06066 
C 0.77937 -1.341951 0.397805 -1.5 0 -1.5 
C -0.397805 -1.5 -0.77937 -1.341951 -1.06066 -1.06066 
C -1.341951 -0.77937 -1.5 -0.397805 -1.5 0 
C -1.5 0.397805 -1.341951 0.77937 -1.06066 1.06066 
C -0.77937 1.341951 -0.397805 1.5 0 1.5 
z
" id="mc2198ff05a" style="stroke:#00bfbf;"/>
    </defs>
    <g>
     <use style="fill:#00bfbf;stroke:#00bfbf;" x="286.808045" xlink:href="#mc2198ff05a" y="209.407366"/>
     <use style="fill:#00bfbf;stroke:#00bfbf;" x="286.808045" xlink:href="#mc2198ff05a" y="209.407366"/>
    </g>
   </g>
   <g id="line2d_59">
    <path d="M 138.927025 298.944 
L 138.927025 298.417314 
L 140.355786 298.417314 
L 140.355786 297.890628 
L 141.039475 297.890628 
L 141.039475 297.363942 
L 141.256745 297.363942 
L 141.285511 296.31057 
L 141.885829 296.31057 
L 141.885829 295.783884 
L 142.666468 295.783884 
L 142.666468 295.257197 
L 143.092717 295.257197 
L 143.092717 294.730511 
L 143.49614 294.730511 
L 143.49614 294.203825 
L 143.634848 294.203825 
L 143.634848 293.677139 
L 144.087359 293.677139 
L 144.105706 292.623767 
L 144.40869 292.623767 
L 144.40869 292.097081 
L 145.045704 292.097081 
L 145.132366 291.043709 
L 145.429504 291.043709 
L 145.429504 290.517023 
L 145.688202 290.517023 
L 145.688202 289.990337 
L 145.854874 289.990337 
L 145.959614 288.410278 
L 146.527367 288.410278 
L 146.527367 287.883592 
L 147.102973 287.883592 
L 147.102973 287.356906 
L 147.52003 287.356906 
L 147.52003 286.83022 
L 148.1808 286.83022 
L 148.1808 286.303534 
L 148.435393 286.303534 
L 148.492524 285.250162 
L 148.794102 285.250162 
L 148.901221 284.19679 
L 149.223242 284.19679 
L 149.223242 283.670104 
L 149.735275 283.670104 
L 149.836782 282.616732 
L 149.876341 282.616732 
L 149.876341 282.090045 
L 150.01192 282.090045 
L 150.01192 281.563359 
L 150.661853 281.563359 
L 150.661853 281.036673 
L 151.117537 281.036673 
L 151.117537 280.509987 
L 151.453659 280.509987 
L 151.453659 279.983301 
L 151.767673 279.983301 
L 151.850203 278.929929 
L 153.351929 278.929929 
L 153.441628 277.349871 
L 153.477379 277.349871 
L 153.513057 276.296499 
L 153.609024 276.296499 
L 153.609024 275.769812 
L 153.904255 275.769812 
L 153.904255 275.243126 
L 154.221969 275.243126 
L 154.221969 274.71644 
L 154.446381 274.71644 
L 154.446381 274.189754 
L 154.677946 274.189754 
L 154.677946 273.663068 
L 154.955763 273.663068 
L 154.955763 273.136382 
L 155.076745 273.136382 
L 155.167744 269.976266 
L 155.751073 269.976266 
L 155.801159 268.922893 
L 156.034038 268.922893 
L 156.034038 268.396207 
L 156.595519 268.396207 
L 156.631322 267.342835 
L 156.794487 267.342835 
L 156.794487 266.816149 
L 157.205941 266.816149 
L 157.300853 265.762777 
L 157.380981 265.762777 
L 157.380981 265.236091 
L 157.644509 265.236091 
L 157.678224 263.656033 
L 158.0201 263.656033 
L 158.0201 263.129347 
L 158.168101 263.129347 
L 158.168101 262.60266 
L 158.476481 262.60266 
L 158.575409 261.549288 
L 160.027605 261.549288 
L 160.057017 260.495916 
L 160.32917 260.495916 
L 160.32917 259.96923 
L 160.767258 259.96923 
L 160.767258 259.442544 
L 161.091058 259.442544 
L 161.091058 258.915858 
L 161.329454 258.915858 
L 161.424813 257.862486 
L 161.823263 257.862486 
L 161.823263 257.3358 
L 162.162965 257.3358 
L 162.162965 256.809114 
L 162.653039 256.809114 
L 162.653039 256.282427 
L 163.331824 256.282427 
L 163.331824 255.755741 
L 163.569701 255.755741 
L 163.569701 255.229055 
L 163.77274 255.229055 
L 163.77274 254.702369 
L 164.252911 254.702369 
L 164.252911 254.175683 
L 164.9363 254.175683 
L 165.043347 253.122311 
L 166.9994 253.122311 
L 166.9994 252.595625 
L 175.401536 252.595625 
L 175.401536 252.068939 
L 218.422501 252.068939 
L 218.460215 251.015567 
L 218.564664 251.015567 
L 218.618871 249.962195 
L 218.684208 249.962195 
L 218.784626 246.275392 
L 218.802263 246.275392 
L 218.90863 242.061903 
L 218.945392 242.061903 
L 219.029177 239.428473 
L 219.122584 239.428473 
L 219.122584 238.901787 
L 219.657746 238.901787 
L 219.657746 237.321729 
L 230.486984 237.321729 
L 230.571368 235.214984 
L 230.605436 235.214984 
L 230.689719 231.528182 
L 230.718107 231.528182 
L 230.718107 231.001496 
L 237.578435 231.001496 
L 237.654052 226.261321 
L 242.557226 226.261321 
L 242.557226 225.734635 
L 242.767936 225.734635 
L 242.767936 225.207949 
L 246.43012 225.207949 
L 246.442156 223.627891 
L 246.585977 223.627891 
L 246.585977 223.101204 
L 249.605075 223.101204 
L 249.622125 222.047832 
L 252.234768 222.047832 
L 252.288568 219.414402 
L 256.642157 219.414402 
L 256.642157 218.887716 
L 258.473013 218.887716 
L 258.473013 218.36103 
L 263.015657 218.36103 
L 263.02638 216.780971 
L 266.666969 216.780971 
L 266.666969 216.254285 
L 267.685218 216.254285 
L 267.685218 215.727599 
L 269.605732 215.727599 
L 269.649215 214.147541 
L 272.935022 214.147541 
L 272.967437 213.094169 
L 273.683168 213.094169 
L 273.683168 212.567483 
L 274.393537 212.567483 
L 274.393537 212.040797 
L 275.066246 212.040797 
L 275.066246 211.514111 
L 276.362276 211.514111 
L 276.362276 210.987425 
L 279.743048 210.987425 
L 279.743048 210.460738 
L 280.250824 210.460738 
L 280.250824 209.934052 
L 286.808045 209.934052 
L 286.808045 209.407366 
L 338.688 209.407366 
L 338.688 209.407366 
" style="fill:none;stroke:#00bfbf;stroke-linecap:square;stroke-width:1.5;"/>
   </g>
   <g id="line2d_60">
    <defs>
     <path d="M 0 -6 
L -5.706339 -1.854102 
L -3.526712 4.854102 
L 3.526712 4.854102 
L 5.706339 -1.854102 
z
" id="mcce4d4ee94" style="stroke:#00bfbf;stroke-linejoin:miter;stroke-width:1.5;"/>
    </defs>
    <g>
     <use style="fill-opacity:0;stroke:#00bfbf;stroke-linejoin:miter;stroke-width:1.5;" x="175.401536" xlink:href="#mcce4d4ee94" y="252.595625"/>
     <use style="fill-opacity:0;stroke:#00bfbf;stroke-linejoin:miter;stroke-width:1.5;" x="230.541794" xlink:href="#mcce4d4ee94" y="236.268356"/>
     <use style="fill-opacity:0;stroke:#00bfbf;stroke-linejoin:miter;stroke-width:1.5;" x="286.808045" xlink:href="#mcce4d4ee94" y="209.934052"/>
     <use style="fill-opacity:0;stroke:#00bfbf;stroke-linejoin:miter;stroke-width:1.5;" x="286.808045" xlink:href="#mcce4d4ee94" y="209.407366"/>
     <use style="fill-opacity:0;stroke:#00bfbf;stroke-linejoin:miter;stroke-width:1.5;" x="338.688" xlink:href="#mcce4d4ee94" y="209.407366"/>
    </g>
   </g>
   <g id="line2d_61">
    <path style="fill:none;stroke:#00bfbf;stroke-linecap:square;stroke-width:1.5;"/>
    <g/>
   </g>
   <g id="line2d_62">
    <path clip-path="url(#p663a7dbc2e)" d="M 218.221714 252.068939 
" style="fill:none;stroke:#00bfbf;stroke-linecap:square;stroke-width:1.5;"/>
    <defs>
     <path d="M -12 12 
L 12 -12 
M -12 -12 
L 12 12 
" id="m0f96855a58" style="stroke:#00bfbf;"/>
    </defs>
    <g clip-path="url(#p663a7dbc2e)">
     <use style="fill:#00bfbf;stroke:#00bfbf;" x="218.221714" xlink:href="#m0f96855a58" y="252.068939"/>
    </g>
   </g>
   <g id="line2d_63">
    <path d="M 338.688 298.944 
L 369.60768 293.571802 
" style="fill:none;stroke:#6495ed;stroke-linecap:square;stroke-width:1.5;"/>
    <g>
     <use style="fill-opacity:0;stroke:#6495ed;stroke-linejoin:miter;stroke-width:1.5;" x="338.688" xlink:href="#m16d40d9c0a" y="298.944"/>
     <use style="fill-opacity:0;stroke:#6495ed;stroke-linejoin:miter;stroke-width:1.5;" x="369.60768" xlink:href="#m16d40d9c0a" y="293.571802"/>
    </g>
   </g>
   <g id="line2d_64">
    <path d="M 338.688 298.944 
L 369.60768 256.733873 
" style="fill:none;stroke:#ff7500;stroke-linecap:square;stroke-width:1.5;"/>
    <g>
     <use style="fill-opacity:0;stroke:#ff7500;stroke-linejoin:bevel;stroke-width:1.5;" x="338.688" xlink:href="#mfcd78a1998" y="298.944"/>
     <use style="fill-opacity:0;stroke:#ff7500;stroke-linejoin:bevel;stroke-width:1.5;" x="369.60768" xlink:href="#mfcd78a1998" y="256.733873"/>
    </g>
   </g>
   <g id="line2d_65">
    <path d="M 338.688 298.944 
L 369.60768 219.895943 
" style="fill:none;stroke:#ff00ff;stroke-linecap:square;stroke-width:1.5;"/>
    <g>
     <use style="fill-opacity:0;stroke:#ff00ff;stroke-linejoin:miter;stroke-width:1.5;" x="338.688" xlink:href="#me2925f0a73" y="298.944"/>
     <use style="fill-opacity:0;stroke:#ff00ff;stroke-linejoin:miter;stroke-width:1.5;" x="369.60768" xlink:href="#me2925f0a73" y="219.895943"/>
    </g>
   </g>
   <g id="line2d_66">
    <path d="M 338.688 214.674227 
L 369.60768 183.058014 
" style="fill:none;stroke:#9acd32;stroke-linecap:square;stroke-width:1.5;"/>
    <g>
     <use style="fill-opacity:0;stroke:#9acd32;stroke-linejoin:miter;stroke-width:1.5;" x="338.688" xlink:href="#m1ca2434030" y="214.674227"/>
     <use style="fill-opacity:0;stroke:#9acd32;stroke-linejoin:miter;stroke-width:1.5;" x="369.60768" xlink:href="#m1ca2434030" y="183.058014"/>
    </g>
   </g>
   <g id="line2d_67">
    <path d="M 338.688 209.407366 
L 369.60768 146.220085 
" style="fill:none;stroke:#ff0000;stroke-linecap:square;stroke-width:1.5;"/>
    <g>
     <use style="fill-opacity:0;stroke:#ff0000;stroke-linejoin:miter;stroke-width:1.5;" x="338.688" xlink:href="#md340c99c21" y="209.407366"/>
     <use style="fill-opacity:0;stroke:#ff0000;stroke-linejoin:miter;stroke-width:1.5;" x="369.60768" xlink:href="#md340c99c21" y="146.220085"/>
    </g>
   </g>
   <g id="line2d_68">
    <path d="M 338.688 209.407366 
L 369.60768 109.382156 
" style="fill:none;stroke:#00bfbf;stroke-linecap:square;stroke-width:1.5;"/>
    <g>
     <use style="fill-opacity:0;stroke:#00bfbf;stroke-linejoin:miter;stroke-width:1.5;" x="338.688" xlink:href="#mcce4d4ee94" y="209.407366"/>
     <use style="fill-opacity:0;stroke:#00bfbf;stroke-linejoin:miter;stroke-width:1.5;" x="369.60768" xlink:href="#mcce4d4ee94" y="109.382156"/>
    </g>
   </g>
   <g id="line2d_69">
    <path d="M 338.688 204.140506 
L 369.60768 72.544226 
" style="fill:none;stroke:#000080;stroke-linecap:square;stroke-width:1.5;"/>
    <g>
     <use style="fill-opacity:0;stroke:#000080;stroke-width:1.5;" x="338.688" xlink:href="#me9ca84a228" y="204.140506"/>
     <use style="fill-opacity:0;stroke:#000080;stroke-width:1.5;" x="369.60768" xlink:href="#me9ca84a228" y="72.544226"/>
    </g>
   </g>
   <g id="line2d_70">
    <path d="M 338.688 298.944 
L 338.688 30.334099 
" style="fill:none;stroke:#000000;stroke-linecap:square;stroke-width:1.5;"/>
   </g>
   <g id="patch_3">
    <path d="M 57.6 298.944 
L 57.6 27.648 
" style="fill:none;stroke:#000000;stroke-linecap:square;stroke-linejoin:miter;stroke-width:0.8;"/>
   </g>
   <g id="patch_4">
    <path d="M 338.688 298.944 
L 338.688 27.648 
" style="fill:none;stroke:#000000;stroke-linecap:square;stroke-linejoin:miter;stroke-width:0.8;"/>
   </g>
   <g id="patch_5">
    <path d="M 57.6 298.944 
L 338.688 298.944 
" style="fill:none;stroke:#000000;stroke-linecap:square;stroke-linejoin:miter;stroke-width:0.8;"/>
   </g>
   <g id="patch_6">
    <path d="M 57.6 27.648 
L 338.688 27.648 
" style="fill:none;stroke:#000000;stroke-linecap:square;stroke-linejoin:miter;stroke-width:0.8;"/>
   </g>
   <g id="text_13">
    <!-- c1c2-2.98 -->
    <g transform="translate(375.22944 298.262739)scale(0.17 -0.17)">
     <defs>
      <path d="M 10.984375 1.515625 
L 10.984375 10.5 
Q 14.703125 8.734375 18.5 7.8125 
Q 22.3125 6.890625 25.984375 6.890625 
Q 35.75 6.890625 40.890625 13.453125 
Q 46.046875 20.015625 46.78125 33.40625 
Q 43.953125 29.203125 39.59375 26.953125 
Q 35.25 24.703125 29.984375 24.703125 
Q 19.046875 24.703125 12.671875 31.3125 
Q 6.296875 37.9375 6.296875 49.421875 
Q 6.296875 60.640625 12.9375 67.421875 
Q 19.578125 74.21875 30.609375 74.21875 
Q 43.265625 74.21875 49.921875 64.515625 
Q 56.59375 54.828125 56.59375 36.375 
Q 56.59375 19.140625 48.40625 8.859375 
Q 40.234375 -1.421875 26.421875 -1.421875 
Q 22.703125 -1.421875 18.890625 -0.6875 
Q 15.09375 0.046875 10.984375 1.515625 
z
M 30.609375 32.421875 
Q 37.25 32.421875 41.125 36.953125 
Q 45.015625 41.5 45.015625 49.421875 
Q 45.015625 57.28125 41.125 61.84375 
Q 37.25 66.40625 30.609375 66.40625 
Q 23.96875 66.40625 20.09375 61.84375 
Q 16.21875 57.28125 16.21875 49.421875 
Q 16.21875 41.5 20.09375 36.953125 
Q 23.96875 32.421875 30.609375 32.421875 
z
" id="DejaVuSans-57"/>
     </defs>
     <use xlink:href="#DejaVuSans-99"/>
     <use x="54.980469" xlink:href="#DejaVuSans-49"/>
     <use x="118.603516" xlink:href="#DejaVuSans-99"/>
     <use x="173.583984" xlink:href="#DejaVuSans-50"/>
     <use x="237.207031" xlink:href="#DejaVuSans-45"/>
     <use x="273.291016" xlink:href="#DejaVuSans-50"/>
     <use x="336.914062" xlink:href="#DejaVuSans-46"/>
     <use x="368.701172" xlink:href="#DejaVuSans-57"/>
     <use x="432.324219" xlink:href="#DejaVuSans-56"/>
    </g>
   </g>
   <g id="text_14">
    <!-- c2-2.9888 -->
    <g transform="translate(375.22944 261.42481)scale(0.17 -0.17)">
     <use xlink:href="#DejaVuSans-99"/>
     <use x="54.980469" xlink:href="#DejaVuSans-50"/>
     <use x="118.603516" xlink:href="#DejaVuSans-45"/>
     <use x="154.6875" xlink:href="#DejaVuSans-50"/>
     <use x="218.310547" xlink:href="#DejaVuSans-46"/>
     <use x="250.097656" xlink:href="#DejaVuSans-57"/>
     <use x="313.720703" xlink:href="#DejaVuSans-56"/>
     <use x="377.34375" xlink:href="#DejaVuSans-56"/>
     <use x="440.966797" xlink:href="#DejaVuSans-56"/>
    </g>
   </g>
   <g id="text_15">
    <!-- c1-2.9888 -->
    <g transform="translate(375.22944 224.586881)scale(0.17 -0.17)">
     <use xlink:href="#DejaVuSans-99"/>
     <use x="54.980469" xlink:href="#DejaVuSans-49"/>
     <use x="118.603516" xlink:href="#DejaVuSans-45"/>
     <use x="154.6875" xlink:href="#DejaVuSans-50"/>
     <use x="218.310547" xlink:href="#DejaVuSans-46"/>
     <use x="250.097656" xlink:href="#DejaVuSans-57"/>
     <use x="313.720703" xlink:href="#DejaVuSans-56"/>
     <use x="377.34375" xlink:href="#DejaVuSans-56"/>
     <use x="440.966797" xlink:href="#DejaVuSans-56"/>
    </g>
   </g>
   <g id="text_16">
    <!-- c1-0.7472 -->
    <g transform="translate(375.22944 187.748952)scale(0.17 -0.17)">
     <defs>
      <path d="M 8.203125 72.90625 
L 55.078125 72.90625 
L 55.078125 68.703125 
L 28.609375 0 
L 18.3125 0 
L 43.21875 64.59375 
L 8.203125 64.59375 
z
" id="DejaVuSans-55"/>
     </defs>
     <use xlink:href="#DejaVuSans-99"/>
     <use x="54.980469" xlink:href="#DejaVuSans-49"/>
     <use x="118.603516" xlink:href="#DejaVuSans-45"/>
     <use x="154.6875" xlink:href="#DejaVuSans-48"/>
     <use x="218.310547" xlink:href="#DejaVuSans-46"/>
     <use x="250.097656" xlink:href="#DejaVuSans-55"/>
     <use x="313.720703" xlink:href="#DejaVuSans-52"/>
     <use x="377.34375" xlink:href="#DejaVuSans-55"/>
     <use x="440.966797" xlink:href="#DejaVuSans-50"/>
    </g>
   </g>
   <g id="text_17">
    <!-- c1c2-0.74 -->
    <g transform="translate(375.22944 150.911022)scale(0.17 -0.17)">
     <use xlink:href="#DejaVuSans-99"/>
     <use x="54.980469" xlink:href="#DejaVuSans-49"/>
     <use x="118.603516" xlink:href="#DejaVuSans-99"/>
     <use x="173.583984" xlink:href="#DejaVuSans-50"/>
     <use x="237.207031" xlink:href="#DejaVuSans-45"/>
     <use x="273.291016" xlink:href="#DejaVuSans-48"/>
     <use x="336.914062" xlink:href="#DejaVuSans-46"/>
     <use x="368.701172" xlink:href="#DejaVuSans-55"/>
     <use x="432.324219" xlink:href="#DejaVuSans-52"/>
    </g>
   </g>
   <g id="text_18">
    <!-- c2-0.7472 -->
    <g transform="translate(375.22944 114.073093)scale(0.17 -0.17)">
     <use xlink:href="#DejaVuSans-99"/>
     <use x="54.980469" xlink:href="#DejaVuSans-50"/>
     <use x="118.603516" xlink:href="#DejaVuSans-45"/>
     <use x="154.6875" xlink:href="#DejaVuSans-48"/>
     <use x="218.310547" xlink:href="#DejaVuSans-46"/>
     <use x="250.097656" xlink:href="#DejaVuSans-55"/>
     <use x="313.720703" xlink:href="#DejaVuSans-52"/>
     <use x="377.34375" xlink:href="#DejaVuSans-55"/>
     <use x="440.966797" xlink:href="#DejaVuSans-50"/>
    </g>
   </g>
   <g id="text_19">
    <!-- c1c2-1.49 -->
    <g transform="translate(375.22944 77.235164)scale(0.17 -0.17)">
     <use xlink:href="#DejaVuSans-99"/>
     <use x="54.980469" xlink:href="#DejaVuSans-49"/>
     <use x="118.603516" xlink:href="#DejaVuSans-99"/>
     <use x="173.583984" xlink:href="#DejaVuSans-50"/>
     <use x="237.207031" xlink:href="#DejaVuSans-45"/>
     <use x="273.291016" xlink:href="#DejaVuSans-49"/>
     <use x="336.914062" xlink:href="#DejaVuSans-46"/>
     <use x="368.701172" xlink:href="#DejaVuSans-52"/>
     <use x="432.324219" xlink:href="#DejaVuSans-57"/>
    </g>
   </g>
   <g id="text_20">
    <!-- best 2009 -->
    <g transform="translate(375.22944 40.397235)scale(0.17 -0.17)">
     <defs>
      <path d="M 48.6875 27.296875 
Q 48.6875 37.203125 44.609375 42.84375 
Q 40.53125 48.484375 33.40625 48.484375 
Q 26.265625 48.484375 22.1875 42.84375 
Q 18.109375 37.203125 18.109375 27.296875 
Q 18.109375 17.390625 22.1875 11.75 
Q 26.265625 6.109375 33.40625 6.109375 
Q 40.53125 6.109375 44.609375 11.75 
Q 48.6875 17.390625 48.6875 27.296875 
z
M 18.109375 46.390625 
Q 20.953125 51.265625 25.265625 53.625 
Q 29.59375 56 35.59375 56 
Q 45.5625 56 51.78125 48.09375 
Q 58.015625 40.1875 58.015625 27.296875 
Q 58.015625 14.40625 51.78125 6.484375 
Q 45.5625 -1.421875 35.59375 -1.421875 
Q 29.59375 -1.421875 25.265625 0.953125 
Q 20.953125 3.328125 18.109375 8.203125 
L 18.109375 0 
L 9.078125 0 
L 9.078125 75.984375 
L 18.109375 75.984375 
z
" id="DejaVuSans-98"/>
     </defs>
     <use xlink:href="#DejaVuSans-98"/>
     <use x="63.476562" xlink:href="#DejaVuSans-101"/>
     <use x="125" xlink:href="#DejaVuSans-115"/>
     <use x="177.099609" xlink:href="#DejaVuSans-116"/>
     <use x="216.308594" xlink:href="#DejaVuSans-32"/>
     <use x="248.095703" xlink:href="#DejaVuSans-50"/>
     <use x="311.71875" xlink:href="#DejaVuSans-48"/>
     <use x="375.341797" xlink:href="#DejaVuSans-48"/>
     <use x="438.964844" xlink:href="#DejaVuSans-57"/>
    </g>
   </g>
   <g id="text_21">
    <!-- bbob f13, 20-D -->
    <g transform="translate(60.41088 38.111366)scale(0.102 -0.102)">
     <defs>
      <path d="M 40.578125 39.3125 
Q 47.65625 37.796875 51.625 33 
Q 55.609375 28.21875 55.609375 21.1875 
Q 55.609375 10.40625 48.1875 4.484375 
Q 40.765625 -1.421875 27.09375 -1.421875 
Q 22.515625 -1.421875 17.65625 -0.515625 
Q 12.796875 0.390625 7.625 2.203125 
L 7.625 11.71875 
Q 11.71875 9.328125 16.59375 8.109375 
Q 21.484375 6.890625 26.8125 6.890625 
Q 36.078125 6.890625 40.9375 10.546875 
Q 45.796875 14.203125 45.796875 21.1875 
Q 45.796875 27.640625 41.28125 31.265625 
Q 36.765625 34.90625 28.71875 34.90625 
L 20.21875 34.90625 
L 20.21875 43.015625 
L 29.109375 43.015625 
Q 36.375 43.015625 40.234375 45.921875 
Q 44.09375 48.828125 44.09375 54.296875 
Q 44.09375 59.90625 40.109375 62.90625 
Q 36.140625 65.921875 28.71875 65.921875 
Q 24.65625 65.921875 20.015625 65.03125 
Q 15.375 64.15625 9.8125 62.3125 
L 9.8125 71.09375 
Q 15.4375 72.65625 20.34375 73.4375 
Q 25.25 74.21875 29.59375 74.21875 
Q 40.828125 74.21875 47.359375 69.109375 
Q 53.90625 64.015625 53.90625 55.328125 
Q 53.90625 49.265625 50.4375 45.09375 
Q 46.96875 40.921875 40.578125 39.3125 
z
" id="DejaVuSans-51"/>
      <path d="M 19.671875 64.796875 
L 19.671875 8.109375 
L 31.59375 8.109375 
Q 46.6875 8.109375 53.6875 14.9375 
Q 60.6875 21.78125 60.6875 36.53125 
Q 60.6875 51.171875 53.6875 57.984375 
Q 46.6875 64.796875 31.59375 64.796875 
z
M 9.8125 72.90625 
L 30.078125 72.90625 
Q 51.265625 72.90625 61.171875 64.09375 
Q 71.09375 55.28125 71.09375 36.53125 
Q 71.09375 17.671875 61.125 8.828125 
Q 51.171875 0 30.078125 0 
L 9.8125 0 
z
" id="DejaVuSans-68"/>
     </defs>
     <use xlink:href="#DejaVuSans-98"/>
     <use x="63.476562" xlink:href="#DejaVuSans-98"/>
     <use x="126.953125" xlink:href="#DejaVuSans-111"/>
     <use x="188.134766" xlink:href="#DejaVuSans-98"/>
     <use x="251.611328" xlink:href="#DejaVuSans-32"/>
     <use x="283.398438" xlink:href="#DejaVuSans-102"/>
     <use x="318.603516" xlink:href="#DejaVuSans-49"/>
     <use x="382.226562" xlink:href="#DejaVuSans-51"/>
     <use x="445.849609" xlink:href="#DejaVuSans-44"/>
     <use x="477.636719" xlink:href="#DejaVuSans-32"/>
     <use x="509.423828" xlink:href="#DejaVuSans-50"/>
     <use x="573.046875" xlink:href="#DejaVuSans-48"/>
     <use x="636.669922" xlink:href="#DejaVuSans-45"/>
     <use x="672.753906" xlink:href="#DejaVuSans-68"/>
    </g>
    <!-- 51 targets: 100..1e-08 -->
    <g transform="translate(60.41088 49.533135)scale(0.102 -0.102)">
     <defs>
      <path d="M 10.796875 72.90625 
L 49.515625 72.90625 
L 49.515625 64.59375 
L 19.828125 64.59375 
L 19.828125 46.734375 
Q 21.96875 47.46875 24.109375 47.828125 
Q 26.265625 48.1875 28.421875 48.1875 
Q 40.625 48.1875 47.75 41.5 
Q 54.890625 34.8125 54.890625 23.390625 
Q 54.890625 11.625 47.5625 5.09375 
Q 40.234375 -1.421875 26.90625 -1.421875 
Q 22.3125 -1.421875 17.546875 -0.640625 
Q 12.796875 0.140625 7.71875 1.703125 
L 7.71875 11.625 
Q 12.109375 9.234375 16.796875 8.0625 
Q 21.484375 6.890625 26.703125 6.890625 
Q 35.15625 6.890625 40.078125 11.328125 
Q 45.015625 15.765625 45.015625 23.390625 
Q 45.015625 31 40.078125 35.4375 
Q 35.15625 39.890625 26.703125 39.890625 
Q 22.75 39.890625 18.8125 39.015625 
Q 14.890625 38.140625 10.796875 36.28125 
z
" id="DejaVuSans-53"/>
      <path d="M 11.71875 12.40625 
L 22.015625 12.40625 
L 22.015625 0 
L 11.71875 0 
z
M 11.71875 51.703125 
L 22.015625 51.703125 
L 22.015625 39.3125 
L 11.71875 39.3125 
z
" id="DejaVuSans-58"/>
     </defs>
     <use xlink:href="#DejaVuSans-53"/>
     <use x="63.623047" xlink:href="#DejaVuSans-49"/>
     <use x="127.246094" xlink:href="#DejaVuSans-32"/>
     <use x="159.033203" xlink:href="#DejaVuSans-116"/>
     <use x="198.242188" xlink:href="#DejaVuSans-97"/>
     <use x="259.521484" xlink:href="#DejaVuSans-114"/>
     <use x="298.884766" xlink:href="#DejaVuSans-103"/>
     <use x="362.361328" xlink:href="#DejaVuSans-101"/>
     <use x="423.884766" xlink:href="#DejaVuSans-116"/>
     <use x="463.09375" xlink:href="#DejaVuSans-115"/>
     <use x="515.193359" xlink:href="#DejaVuSans-58"/>
     <use x="548.884766" xlink:href="#DejaVuSans-32"/>
     <use x="580.671875" xlink:href="#DejaVuSans-49"/>
     <use x="644.294922" xlink:href="#DejaVuSans-48"/>
     <use x="707.917969" xlink:href="#DejaVuSans-48"/>
     <use x="771.541016" xlink:href="#DejaVuSans-46"/>
     <use x="803.328125" xlink:href="#DejaVuSans-46"/>
     <use x="835.115234" xlink:href="#DejaVuSans-49"/>
     <use x="898.738281" xlink:href="#DejaVuSans-101"/>
     <use x="960.261719" xlink:href="#DejaVuSans-45"/>
     <use x="996.345703" xlink:href="#DejaVuSans-48"/>
     <use x="1059.96875" xlink:href="#DejaVuSans-56"/>
    </g>
    <!-- 15 instances -->
    <g transform="translate(60.41088 60.954904)scale(0.102 -0.102)">
     <use xlink:href="#DejaVuSans-49"/>
     <use x="63.623047" xlink:href="#DejaVuSans-53"/>
     <use x="127.246094" xlink:href="#DejaVuSans-32"/>
     <use x="159.033203" xlink:href="#DejaVuSans-105"/>
     <use x="186.816406" xlink:href="#DejaVuSans-110"/>
     <use x="250.195312" xlink:href="#DejaVuSans-115"/>
     <use x="302.294922" xlink:href="#DejaVuSans-116"/>
     <use x="341.503906" xlink:href="#DejaVuSans-97"/>
     <use x="402.783203" xlink:href="#DejaVuSans-110"/>
     <use x="466.162109" xlink:href="#DejaVuSans-99"/>
     <use x="521.142578" xlink:href="#DejaVuSans-101"/>
     <use x="582.666016" xlink:href="#DejaVuSans-115"/>
    </g>
   </g>
   <g id="text_22">
    <!-- v2.4 -->
    <g style="fill:#808080;" transform="translate(187.233062 294.151352)scale(0.1 -0.1)">
     <use xlink:href="#DejaVuSans-118"/>
     <use x="59.179688" xlink:href="#DejaVuSans-50"/>
     <use x="122.802734" xlink:href="#DejaVuSans-46"/>
     <use x="154.589844" xlink:href="#DejaVuSans-52"/>
    </g>
   </g>
   <g id="text_23">
    <!-- 13 Sharp ridge -->
    <g transform="translate(124.05025 21.648)scale(0.2 -0.2)">
     <defs>
      <path d="M 53.515625 70.515625 
L 53.515625 60.890625 
Q 47.90625 63.578125 42.921875 64.890625 
Q 37.9375 66.21875 33.296875 66.21875 
Q 25.25 66.21875 20.875 63.09375 
Q 16.5 59.96875 16.5 54.203125 
Q 16.5 49.359375 19.40625 46.890625 
Q 22.3125 44.4375 30.421875 42.921875 
L 36.375 41.703125 
Q 47.40625 39.59375 52.65625 34.296875 
Q 57.90625 29 57.90625 20.125 
Q 57.90625 9.515625 50.796875 4.046875 
Q 43.703125 -1.421875 29.984375 -1.421875 
Q 24.8125 -1.421875 18.96875 -0.25 
Q 13.140625 0.921875 6.890625 3.21875 
L 6.890625 13.375 
Q 12.890625 10.015625 18.65625 8.296875 
Q 24.421875 6.59375 29.984375 6.59375 
Q 38.421875 6.59375 43.015625 9.90625 
Q 47.609375 13.234375 47.609375 19.390625 
Q 47.609375 24.75 44.3125 27.78125 
Q 41.015625 30.8125 33.5 32.328125 
L 27.484375 33.5 
Q 16.453125 35.6875 11.515625 40.375 
Q 6.59375 45.0625 6.59375 53.421875 
Q 6.59375 63.09375 13.40625 68.65625 
Q 20.21875 74.21875 32.171875 74.21875 
Q 37.3125 74.21875 42.625 73.28125 
Q 47.953125 72.359375 53.515625 70.515625 
z
" id="DejaVuSans-83"/>
      <path d="M 54.890625 33.015625 
L 54.890625 0 
L 45.90625 0 
L 45.90625 32.71875 
Q 45.90625 40.484375 42.875 44.328125 
Q 39.84375 48.1875 33.796875 48.1875 
Q 26.515625 48.1875 22.3125 43.546875 
Q 18.109375 38.921875 18.109375 30.90625 
L 18.109375 0 
L 9.078125 0 
L 9.078125 75.984375 
L 18.109375 75.984375 
L 18.109375 46.1875 
Q 21.34375 51.125 25.703125 53.5625 
Q 30.078125 56 35.796875 56 
Q 45.21875 56 50.046875 50.171875 
Q 54.890625 44.34375 54.890625 33.015625 
z
" id="DejaVuSans-104"/>
     </defs>
     <use xlink:href="#DejaVuSans-49"/>
     <use x="63.623047" xlink:href="#DejaVuSans-51"/>
     <use x="127.246094" xlink:href="#DejaVuSans-32"/>
     <use x="159.033203" xlink:href="#DejaVuSans-83"/>
     <use x="222.509766" xlink:href="#DejaVuSans-104"/>
     <use x="285.888672" xlink:href="#DejaVuSans-97"/>
     <use x="347.167969" xlink:href="#DejaVuSans-114"/>
     <use x="388.28125" xlink:href="#DejaVuSans-112"/>
     <use x="451.757812" xlink:href="#DejaVuSans-32"/>
     <use x="483.544922" xlink:href="#DejaVuSans-114"/>
     <use x="524.658203" xlink:href="#DejaVuSans-105"/>
     <use x="552.441406" xlink:href="#DejaVuSans-100"/>
     <use x="615.917969" xlink:href="#DejaVuSans-103"/>
     <use x="679.394531" xlink:href="#DejaVuSans-101"/>
    </g>
   </g>
  </g>
 </g>
 <defs>
  <clipPath id="p663a7dbc2e">
   <rect height="271.296" width="281.088" x="57.6" y="27.648"/>
  </clipPath>
 </defs>
</svg>
