<?xml version="1.0" encoding="utf-8" standalone="no"?>
<!DOCTYPE svg PUBLIC "-//W3C//DTD SVG 1.1//EN"
  "http://www.w3.org/Graphics/SVG/1.1/DTD/svg11.dtd">
<!-- Created with matplotlib (https://matplotlib.org/) -->
<svg height="345.6pt" version="1.1" viewBox="0 0 460.8 345.6" width="460.8pt" xmlns="http://www.w3.org/2000/svg" xmlns:xlink="http://www.w3.org/1999/xlink">
 <metadata>
  <rdf:RDF xmlns:cc="http://creativecommons.org/ns#" xmlns:dc="http://purl.org/dc/elements/1.1/" xmlns:rdf="http://www.w3.org/1999/02/22-rdf-syntax-ns#">
   <cc:Work>
    <dc:type rdf:resource="http://purl.org/dc/dcmitype/StillImage"/>
    <dc:date>2021-04-19T06:07:53.876737</dc:date>
    <dc:format>image/svg+xml</dc:format>
    <dc:creator>
     <cc:Agent>
      <dc:title>Matplotlib v3.3.4, https://matplotlib.org/</dc:title>
     </cc:Agent>
    </dc:creator>
   </cc:Work>
  </rdf:RDF>
 </metadata>
 <defs>
  <style type="text/css">*{stroke-linecap:butt;stroke-linejoin:round;}</style>
 </defs>
 <g id="figure_1">
  <g id="patch_1">
   <path d="M 0 345.6 
L 460.8 345.6 
L 460.8 0 
L 0 0 
z
" style="fill:#ffffff;"/>
  </g>
  <g id="axes_1">
   <g id="patch_2">
    <path d="M 57.6 298.944 
L 338.688 298.944 
L 338.688 27.648 
L 57.6 27.648 
z
" style="fill:#ffffff;"/>
   </g>
   <g id="line2d_1">
    <path d="M 72.125336 298.944 
L 72.125336 293.677139 
L 111.266113 293.677139 
L 111.266113 288.410278 
L 113.311233 288.410278 
L 113.311233 283.143418 
L 114.0117 283.143418 
L 114.0117 277.876557 
L 114.284194 277.876557 
L 114.284194 272.609696 
L 114.816733 272.609696 
L 114.816733 267.342835 
L 119.097192 267.342835 
L 119.097192 262.075974 
L 123.553867 262.075974 
L 123.553867 256.809114 
L 131.056477 256.809114 
L 131.056477 251.542253 
L 133.953874 251.542253 
L 133.953874 246.275392 
L 138.611599 246.275392 
L 138.611599 241.008531 
L 143.388196 241.008531 
L 143.388196 235.74167 
L 146.854132 235.74167 
L 146.854132 230.47481 
L 149.232356 230.47481 
L 149.232356 225.207949 
L 153.932113 225.207949 
L 153.932113 219.941088 
L 154.587699 219.941088 
L 154.587699 214.674227 
L 155.089774 214.674227 
L 155.089774 209.407366 
L 155.463441 209.407366 
L 155.463441 204.140506 
L 155.879132 204.140506 
L 155.879132 198.873645 
L 156.49067 198.873645 
L 156.49067 193.606784 
L 156.800392 193.606784 
L 156.800392 188.339923 
L 157.289376 188.339923 
L 157.289376 183.073062 
L 157.837488 183.073062 
L 157.837488 177.806202 
L 158.129851 177.806202 
L 158.129851 172.539341 
L 158.455018 172.539341 
L 158.455018 167.27248 
L 158.931675 167.27248 
L 158.931675 162.005619 
L 159.375289 162.005619 
L 159.375289 156.738758 
L 159.902044 156.738758 
L 159.902044 151.471897 
L 160.292966 151.471897 
L 160.292966 146.205037 
L 160.623238 146.205037 
L 160.623238 140.938176 
L 160.938061 140.938176 
L 160.938061 135.671315 
L 161.379469 135.671315 
L 161.379469 130.404454 
L 161.636364 130.404454 
L 161.636364 125.137593 
L 161.893939 125.137593 
L 161.893939 119.870733 
L 162.238764 119.870733 
L 162.238764 114.603872 
L 162.483394 114.603872 
L 162.483394 109.337011 
L 162.737246 109.337011 
L 162.737246 104.07015 
L 163.180975 104.07015 
L 163.180975 98.803289 
L 163.372371 98.803289 
L 163.372371 93.536429 
L 163.653591 93.536429 
L 163.653591 88.269568 
L 163.930348 88.269568 
L 163.930348 83.002707 
L 164.272154 83.002707 
L 164.272154 77.735846 
L 164.565835 77.735846 
L 164.565835 72.468985 
L 164.832318 72.468985 
L 164.832318 67.202125 
L 165.061737 67.202125 
L 165.061737 61.935264 
L 165.421922 61.935264 
L 165.421922 56.668403 
L 165.686375 56.668403 
L 165.686375 51.401542 
L 165.88387 51.401542 
L 165.88387 46.134681 
L 166.099947 46.134681 
L 166.099947 40.867821 
L 166.354389 40.867821 
L 166.354389 35.60096 
L 166.638786 35.60096 
L 166.638786 30.334099 
L 338.688 30.334099 
" style="fill:none;stroke:#f5deb3;stroke-linecap:square;stroke-width:4;"/>
   </g>
   <g id="line2d_2">
    <defs>
     <path d="M -0 7.778175 
L 7.778175 0 
L 0 -7.778175 
L -7.778175 -0 
z
" id="m074230d514" style="stroke:#f5deb3;stroke-linejoin:miter;stroke-width:1.5;"/>
    </defs>
    <g>
     <use style="fill:#f5deb3;stroke:#f5deb3;stroke-linejoin:miter;stroke-width:1.5;" x="149.232356" xlink:href="#m074230d514" y="230.47481"/>
     <use style="fill:#f5deb3;stroke:#f5deb3;stroke-linejoin:miter;stroke-width:1.5;" x="164.832318" xlink:href="#m074230d514" y="72.468985"/>
     <use style="fill:#f5deb3;stroke:#f5deb3;stroke-linejoin:miter;stroke-width:1.5;" x="166.638786" xlink:href="#m074230d514" y="30.334099"/>
     <use style="fill:#f5deb3;stroke:#f5deb3;stroke-linejoin:miter;stroke-width:1.5;" x="166.638786" xlink:href="#m074230d514" y="30.334099"/>
     <use style="fill:#f5deb3;stroke:#f5deb3;stroke-linejoin:miter;stroke-width:1.5;" x="338.688" xlink:href="#m074230d514" y="30.334099"/>
    </g>
   </g>
   <g id="line2d_3">
    <path style="fill:none;stroke:#f5deb3;stroke-linecap:square;stroke-width:4;"/>
    <g/>
   </g>
   <g id="line2d_4">
    <path d="M 338.688 30.334099 
L 369.60768 35.706297 
" style="fill:none;stroke:#f5deb3;stroke-linecap:square;stroke-width:4;"/>
    <g>
     <use style="fill:#f5deb3;stroke:#f5deb3;stroke-linejoin:miter;stroke-width:1.5;" x="338.688" xlink:href="#m074230d514" y="30.334099"/>
     <use style="fill:#f5deb3;stroke:#f5deb3;stroke-linejoin:miter;stroke-width:1.5;" x="369.60768" xlink:href="#m074230d514" y="35.706297"/>
    </g>
   </g>
   <g id="matplotlib.axis_1">
    <g id="xtick_1">
     <g id="line2d_5">
      <path clip-path="url(#p7ce830fad8)" d="M 57.6 298.944 
L 57.6 27.648 
" style="fill:none;stroke:#b0b0b0;stroke-linecap:square;stroke-width:0.8;"/>
     </g>
     <g id="line2d_6">
      <defs>
       <path d="M 0 0 
L 0 3.5 
" id="m4f8fde7e09" style="stroke:#000000;stroke-width:0.8;"/>
      </defs>
      <g>
       <use style="stroke:#000000;stroke-width:0.8;" x="57.6" xlink:href="#m4f8fde7e09" y="298.944"/>
      </g>
     </g>
     <g id="text_1">
      <!-- 0 -->
      <g transform="translate(51.2375 321.140875)scale(0.2 -0.2)">
       <defs>
        <path d="M 31.78125 66.40625 
Q 24.171875 66.40625 20.328125 58.90625 
Q 16.5 51.421875 16.5 36.375 
Q 16.5 21.390625 20.328125 13.890625 
Q 24.171875 6.390625 31.78125 6.390625 
Q 39.453125 6.390625 43.28125 13.890625 
Q 47.125 21.390625 47.125 36.375 
Q 47.125 51.421875 43.28125 58.90625 
Q 39.453125 66.40625 31.78125 66.40625 
z
M 31.78125 74.21875 
Q 44.046875 74.21875 50.515625 64.515625 
Q 56.984375 54.828125 56.984375 36.375 
Q 56.984375 17.96875 50.515625 8.265625 
Q 44.046875 -1.421875 31.78125 -1.421875 
Q 19.53125 -1.421875 13.0625 8.265625 
Q 6.59375 17.96875 6.59375 36.375 
Q 6.59375 54.828125 13.0625 64.515625 
Q 19.53125 74.21875 31.78125 74.21875 
z
" id="DejaVuSans-48"/>
       </defs>
       <use xlink:href="#DejaVuSans-48"/>
      </g>
     </g>
    </g>
    <g id="xtick_2">
     <g id="line2d_7">
      <path clip-path="url(#p7ce830fad8)" d="M 137.910857 298.944 
L 137.910857 27.648 
" style="fill:none;stroke:#b0b0b0;stroke-linecap:square;stroke-width:0.8;"/>
     </g>
     <g id="line2d_8">
      <g>
       <use style="stroke:#000000;stroke-width:0.8;" x="137.910857" xlink:href="#m4f8fde7e09" y="298.944"/>
      </g>
     </g>
     <g id="text_2">
      <!-- 2 -->
      <g transform="translate(131.548357 321.140875)scale(0.2 -0.2)">
       <defs>
        <path d="M 19.1875 8.296875 
L 53.609375 8.296875 
L 53.609375 0 
L 7.328125 0 
L 7.328125 8.296875 
Q 12.9375 14.109375 22.625 23.890625 
Q 32.328125 33.6875 34.8125 36.53125 
Q 39.546875 41.84375 41.421875 45.53125 
Q 43.3125 49.21875 43.3125 52.78125 
Q 43.3125 58.59375 39.234375 62.25 
Q 35.15625 65.921875 28.609375 65.921875 
Q 23.96875 65.921875 18.8125 64.3125 
Q 13.671875 62.703125 7.8125 59.421875 
L 7.8125 69.390625 
Q 13.765625 71.78125 18.9375 73 
Q 24.125 74.21875 28.421875 74.21875 
Q 39.75 74.21875 46.484375 68.546875 
Q 53.21875 62.890625 53.21875 53.421875 
Q 53.21875 48.921875 51.53125 44.890625 
Q 49.859375 40.875 45.40625 35.40625 
Q 44.1875 33.984375 37.640625 27.21875 
Q 31.109375 20.453125 19.1875 8.296875 
z
" id="DejaVuSans-50"/>
       </defs>
       <use xlink:href="#DejaVuSans-50"/>
      </g>
     </g>
    </g>
    <g id="xtick_3">
     <g id="line2d_9">
      <path clip-path="url(#p7ce830fad8)" d="M 218.221714 298.944 
L 218.221714 27.648 
" style="fill:none;stroke:#b0b0b0;stroke-linecap:square;stroke-width:0.8;"/>
     </g>
     <g id="line2d_10">
      <g>
       <use style="stroke:#000000;stroke-width:0.8;" x="218.221714" xlink:href="#m4f8fde7e09" y="298.944"/>
      </g>
     </g>
     <g id="text_3">
      <!-- 4 -->
      <g transform="translate(211.859214 321.140875)scale(0.2 -0.2)">
       <defs>
        <path d="M 37.796875 64.3125 
L 12.890625 25.390625 
L 37.796875 25.390625 
z
M 35.203125 72.90625 
L 47.609375 72.90625 
L 47.609375 25.390625 
L 58.015625 25.390625 
L 58.015625 17.1875 
L 47.609375 17.1875 
L 47.609375 0 
L 37.796875 0 
L 37.796875 17.1875 
L 4.890625 17.1875 
L 4.890625 26.703125 
z
" id="DejaVuSans-52"/>
       </defs>
       <use xlink:href="#DejaVuSans-52"/>
      </g>
     </g>
    </g>
    <g id="xtick_4">
     <g id="line2d_11">
      <path clip-path="url(#p7ce830fad8)" d="M 298.532571 298.944 
L 298.532571 27.648 
" style="fill:none;stroke:#b0b0b0;stroke-linecap:square;stroke-width:0.8;"/>
     </g>
     <g id="line2d_12">
      <g>
       <use style="stroke:#000000;stroke-width:0.8;" x="298.532571" xlink:href="#m4f8fde7e09" y="298.944"/>
      </g>
     </g>
     <g id="text_4">
      <!-- 6 -->
      <g transform="translate(292.170071 321.140875)scale(0.2 -0.2)">
       <defs>
        <path d="M 33.015625 40.375 
Q 26.375 40.375 22.484375 35.828125 
Q 18.609375 31.296875 18.609375 23.390625 
Q 18.609375 15.53125 22.484375 10.953125 
Q 26.375 6.390625 33.015625 6.390625 
Q 39.65625 6.390625 43.53125 10.953125 
Q 47.40625 15.53125 47.40625 23.390625 
Q 47.40625 31.296875 43.53125 35.828125 
Q 39.65625 40.375 33.015625 40.375 
z
M 52.59375 71.296875 
L 52.59375 62.3125 
Q 48.875 64.0625 45.09375 64.984375 
Q 41.3125 65.921875 37.59375 65.921875 
Q 27.828125 65.921875 22.671875 59.328125 
Q 17.53125 52.734375 16.796875 39.40625 
Q 19.671875 43.65625 24.015625 45.921875 
Q 28.375 48.1875 33.59375 48.1875 
Q 44.578125 48.1875 50.953125 41.515625 
Q 57.328125 34.859375 57.328125 23.390625 
Q 57.328125 12.15625 50.6875 5.359375 
Q 44.046875 -1.421875 33.015625 -1.421875 
Q 20.359375 -1.421875 13.671875 8.265625 
Q 6.984375 17.96875 6.984375 36.375 
Q 6.984375 53.65625 15.1875 63.9375 
Q 23.390625 74.21875 37.203125 74.21875 
Q 40.921875 74.21875 44.703125 73.484375 
Q 48.484375 72.75 52.59375 71.296875 
z
" id="DejaVuSans-54"/>
       </defs>
       <use xlink:href="#DejaVuSans-54"/>
      </g>
     </g>
    </g>
    <g id="xtick_5">
     <g id="line2d_13">
      <path clip-path="url(#p7ce830fad8)" d="M 97.755429 298.944 
L 97.755429 27.648 
" style="fill:none;stroke:#b0b0b0;stroke-linecap:square;stroke-width:0.8;"/>
     </g>
     <g id="line2d_14">
      <defs>
       <path d="M 0 0 
L 0 2 
" id="m19d9201329" style="stroke:#000000;stroke-width:0.6;"/>
      </defs>
      <g>
       <use style="stroke:#000000;stroke-width:0.6;" x="97.755429" xlink:href="#m19d9201329" y="298.944"/>
      </g>
     </g>
    </g>
    <g id="xtick_6">
     <g id="line2d_15">
      <path clip-path="url(#p7ce830fad8)" d="M 178.066286 298.944 
L 178.066286 27.648 
" style="fill:none;stroke:#b0b0b0;stroke-linecap:square;stroke-width:0.8;"/>
     </g>
     <g id="line2d_16">
      <g>
       <use style="stroke:#000000;stroke-width:0.6;" x="178.066286" xlink:href="#m19d9201329" y="298.944"/>
      </g>
     </g>
    </g>
    <g id="xtick_7">
     <g id="line2d_17">
      <path clip-path="url(#p7ce830fad8)" d="M 258.377143 298.944 
L 258.377143 27.648 
" style="fill:none;stroke:#b0b0b0;stroke-linecap:square;stroke-width:0.8;"/>
     </g>
     <g id="line2d_18">
      <g>
       <use style="stroke:#000000;stroke-width:0.6;" x="258.377143" xlink:href="#m19d9201329" y="298.944"/>
      </g>
     </g>
    </g>
    <g id="xtick_8">
     <g id="line2d_19">
      <path clip-path="url(#p7ce830fad8)" d="M 338.688 298.944 
L 338.688 27.648 
" style="fill:none;stroke:#b0b0b0;stroke-linecap:square;stroke-width:0.8;"/>
     </g>
     <g id="line2d_20">
      <g>
       <use style="stroke:#000000;stroke-width:0.6;" x="338.688" xlink:href="#m19d9201329" y="298.944"/>
      </g>
     </g>
    </g>
    <g id="text_5">
     <!-- log10(# f-evals / dimension) -->
     <g transform="translate(77.764078 342.217594)scale(0.17 -0.17)">
      <defs>
       <path d="M 9.421875 75.984375 
L 18.40625 75.984375 
L 18.40625 0 
L 9.421875 0 
z
" id="DejaVuSans-108"/>
       <path d="M 30.609375 48.390625 
Q 23.390625 48.390625 19.1875 42.75 
Q 14.984375 37.109375 14.984375 27.296875 
Q 14.984375 17.484375 19.15625 11.84375 
Q 23.34375 6.203125 30.609375 6.203125 
Q 37.796875 6.203125 41.984375 11.859375 
Q 46.1875 17.53125 46.1875 27.296875 
Q 46.1875 37.015625 41.984375 42.703125 
Q 37.796875 48.390625 30.609375 48.390625 
z
M 30.609375 56 
Q 42.328125 56 49.015625 48.375 
Q 55.71875 40.765625 55.71875 27.296875 
Q 55.71875 13.875 49.015625 6.21875 
Q 42.328125 -1.421875 30.609375 -1.421875 
Q 18.84375 -1.421875 12.171875 6.21875 
Q 5.515625 13.875 5.515625 27.296875 
Q 5.515625 40.765625 12.171875 48.375 
Q 18.84375 56 30.609375 56 
z
" id="DejaVuSans-111"/>
       <path d="M 45.40625 27.984375 
Q 45.40625 37.75 41.375 43.109375 
Q 37.359375 48.484375 30.078125 48.484375 
Q 22.859375 48.484375 18.828125 43.109375 
Q 14.796875 37.75 14.796875 27.984375 
Q 14.796875 18.265625 18.828125 12.890625 
Q 22.859375 7.515625 30.078125 7.515625 
Q 37.359375 7.515625 41.375 12.890625 
Q 45.40625 18.265625 45.40625 27.984375 
z
M 54.390625 6.78125 
Q 54.390625 -7.171875 48.1875 -13.984375 
Q 42 -20.796875 29.203125 -20.796875 
Q 24.46875 -20.796875 20.265625 -20.09375 
Q 16.0625 -19.390625 12.109375 -17.921875 
L 12.109375 -9.1875 
Q 16.0625 -11.328125 19.921875 -12.34375 
Q 23.78125 -13.375 27.78125 -13.375 
Q 36.625 -13.375 41.015625 -8.765625 
Q 45.40625 -4.15625 45.40625 5.171875 
L 45.40625 9.625 
Q 42.625 4.78125 38.28125 2.390625 
Q 33.9375 0 27.875 0 
Q 17.828125 0 11.671875 7.65625 
Q 5.515625 15.328125 5.515625 27.984375 
Q 5.515625 40.671875 11.671875 48.328125 
Q 17.828125 56 27.875 56 
Q 33.9375 56 38.28125 53.609375 
Q 42.625 51.21875 45.40625 46.390625 
L 45.40625 54.6875 
L 54.390625 54.6875 
z
" id="DejaVuSans-103"/>
       <path d="M 12.40625 8.296875 
L 28.515625 8.296875 
L 28.515625 63.921875 
L 10.984375 60.40625 
L 10.984375 69.390625 
L 28.421875 72.90625 
L 38.28125 72.90625 
L 38.28125 8.296875 
L 54.390625 8.296875 
L 54.390625 0 
L 12.40625 0 
z
" id="DejaVuSans-49"/>
       <path d="M 31 75.875 
Q 24.46875 64.65625 21.28125 53.65625 
Q 18.109375 42.671875 18.109375 31.390625 
Q 18.109375 20.125 21.3125 9.0625 
Q 24.515625 -2 31 -13.1875 
L 23.1875 -13.1875 
Q 15.875 -1.703125 12.234375 9.375 
Q 8.59375 20.453125 8.59375 31.390625 
Q 8.59375 42.28125 12.203125 53.3125 
Q 15.828125 64.359375 23.1875 75.875 
z
" id="DejaVuSans-40"/>
       <path d="M 51.125 44 
L 36.921875 44 
L 32.8125 27.6875 
L 47.125 27.6875 
z
M 43.796875 71.78125 
L 38.71875 51.515625 
L 52.984375 51.515625 
L 58.109375 71.78125 
L 65.921875 71.78125 
L 60.890625 51.515625 
L 76.125 51.515625 
L 76.125 44 
L 58.984375 44 
L 54.984375 27.6875 
L 70.515625 27.6875 
L 70.515625 20.21875 
L 53.078125 20.21875 
L 48 0 
L 40.1875 0 
L 45.21875 20.21875 
L 30.90625 20.21875 
L 25.875 0 
L 18.015625 0 
L 23.09375 20.21875 
L 7.71875 20.21875 
L 7.71875 27.6875 
L 24.90625 27.6875 
L 29 44 
L 13.28125 44 
L 13.28125 51.515625 
L 30.90625 51.515625 
L 35.890625 71.78125 
z
" id="DejaVuSans-35"/>
       <path id="DejaVuSans-32"/>
       <path d="M 37.109375 75.984375 
L 37.109375 68.5 
L 28.515625 68.5 
Q 23.6875 68.5 21.796875 66.546875 
Q 19.921875 64.59375 19.921875 59.515625 
L 19.921875 54.6875 
L 34.71875 54.6875 
L 34.71875 47.703125 
L 19.921875 47.703125 
L 19.921875 0 
L 10.890625 0 
L 10.890625 47.703125 
L 2.296875 47.703125 
L 2.296875 54.6875 
L 10.890625 54.6875 
L 10.890625 58.5 
Q 10.890625 67.625 15.140625 71.796875 
Q 19.390625 75.984375 28.609375 75.984375 
z
" id="DejaVuSans-102"/>
       <path d="M 4.890625 31.390625 
L 31.203125 31.390625 
L 31.203125 23.390625 
L 4.890625 23.390625 
z
" id="DejaVuSans-45"/>
       <path d="M 56.203125 29.59375 
L 56.203125 25.203125 
L 14.890625 25.203125 
Q 15.484375 15.921875 20.484375 11.0625 
Q 25.484375 6.203125 34.421875 6.203125 
Q 39.59375 6.203125 44.453125 7.46875 
Q 49.3125 8.734375 54.109375 11.28125 
L 54.109375 2.78125 
Q 49.265625 0.734375 44.1875 -0.34375 
Q 39.109375 -1.421875 33.890625 -1.421875 
Q 20.796875 -1.421875 13.15625 6.1875 
Q 5.515625 13.8125 5.515625 26.8125 
Q 5.515625 40.234375 12.765625 48.109375 
Q 20.015625 56 32.328125 56 
Q 43.359375 56 49.78125 48.890625 
Q 56.203125 41.796875 56.203125 29.59375 
z
M 47.21875 32.234375 
Q 47.125 39.59375 43.09375 43.984375 
Q 39.0625 48.390625 32.421875 48.390625 
Q 24.90625 48.390625 20.390625 44.140625 
Q 15.875 39.890625 15.1875 32.171875 
z
" id="DejaVuSans-101"/>
       <path d="M 2.984375 54.6875 
L 12.5 54.6875 
L 29.59375 8.796875 
L 46.6875 54.6875 
L 56.203125 54.6875 
L 35.6875 0 
L 23.484375 0 
z
" id="DejaVuSans-118"/>
       <path d="M 34.28125 27.484375 
Q 23.390625 27.484375 19.1875 25 
Q 14.984375 22.515625 14.984375 16.5 
Q 14.984375 11.71875 18.140625 8.90625 
Q 21.296875 6.109375 26.703125 6.109375 
Q 34.1875 6.109375 38.703125 11.40625 
Q 43.21875 16.703125 43.21875 25.484375 
L 43.21875 27.484375 
z
M 52.203125 31.203125 
L 52.203125 0 
L 43.21875 0 
L 43.21875 8.296875 
Q 40.140625 3.328125 35.546875 0.953125 
Q 30.953125 -1.421875 24.3125 -1.421875 
Q 15.921875 -1.421875 10.953125 3.296875 
Q 6 8.015625 6 15.921875 
Q 6 25.140625 12.171875 29.828125 
Q 18.359375 34.515625 30.609375 34.515625 
L 43.21875 34.515625 
L 43.21875 35.40625 
Q 43.21875 41.609375 39.140625 45 
Q 35.0625 48.390625 27.6875 48.390625 
Q 23 48.390625 18.546875 47.265625 
Q 14.109375 46.140625 10.015625 43.890625 
L 10.015625 52.203125 
Q 14.9375 54.109375 19.578125 55.046875 
Q 24.21875 56 28.609375 56 
Q 40.484375 56 46.34375 49.84375 
Q 52.203125 43.703125 52.203125 31.203125 
z
" id="DejaVuSans-97"/>
       <path d="M 44.28125 53.078125 
L 44.28125 44.578125 
Q 40.484375 46.53125 36.375 47.5 
Q 32.28125 48.484375 27.875 48.484375 
Q 21.1875 48.484375 17.84375 46.4375 
Q 14.5 44.390625 14.5 40.28125 
Q 14.5 37.15625 16.890625 35.375 
Q 19.28125 33.59375 26.515625 31.984375 
L 29.59375 31.296875 
Q 39.15625 29.25 43.1875 25.515625 
Q 47.21875 21.78125 47.21875 15.09375 
Q 47.21875 7.46875 41.1875 3.015625 
Q 35.15625 -1.421875 24.609375 -1.421875 
Q 20.21875 -1.421875 15.453125 -0.5625 
Q 10.6875 0.296875 5.421875 2 
L 5.421875 11.28125 
Q 10.40625 8.6875 15.234375 7.390625 
Q 20.0625 6.109375 24.8125 6.109375 
Q 31.15625 6.109375 34.5625 8.28125 
Q 37.984375 10.453125 37.984375 14.40625 
Q 37.984375 18.0625 35.515625 20.015625 
Q 33.0625 21.96875 24.703125 23.78125 
L 21.578125 24.515625 
Q 13.234375 26.265625 9.515625 29.90625 
Q 5.8125 33.546875 5.8125 39.890625 
Q 5.8125 47.609375 11.28125 51.796875 
Q 16.75 56 26.8125 56 
Q 31.78125 56 36.171875 55.265625 
Q 40.578125 54.546875 44.28125 53.078125 
z
" id="DejaVuSans-115"/>
       <path d="M 25.390625 72.90625 
L 33.6875 72.90625 
L 8.296875 -9.28125 
L 0 -9.28125 
z
" id="DejaVuSans-47"/>
       <path d="M 45.40625 46.390625 
L 45.40625 75.984375 
L 54.390625 75.984375 
L 54.390625 0 
L 45.40625 0 
L 45.40625 8.203125 
Q 42.578125 3.328125 38.25 0.953125 
Q 33.9375 -1.421875 27.875 -1.421875 
Q 17.96875 -1.421875 11.734375 6.484375 
Q 5.515625 14.40625 5.515625 27.296875 
Q 5.515625 40.1875 11.734375 48.09375 
Q 17.96875 56 27.875 56 
Q 33.9375 56 38.25 53.625 
Q 42.578125 51.265625 45.40625 46.390625 
z
M 14.796875 27.296875 
Q 14.796875 17.390625 18.875 11.75 
Q 22.953125 6.109375 30.078125 6.109375 
Q 37.203125 6.109375 41.296875 11.75 
Q 45.40625 17.390625 45.40625 27.296875 
Q 45.40625 37.203125 41.296875 42.84375 
Q 37.203125 48.484375 30.078125 48.484375 
Q 22.953125 48.484375 18.875 42.84375 
Q 14.796875 37.203125 14.796875 27.296875 
z
" id="DejaVuSans-100"/>
       <path d="M 9.421875 54.6875 
L 18.40625 54.6875 
L 18.40625 0 
L 9.421875 0 
z
M 9.421875 75.984375 
L 18.40625 75.984375 
L 18.40625 64.59375 
L 9.421875 64.59375 
z
" id="DejaVuSans-105"/>
       <path d="M 52 44.1875 
Q 55.375 50.25 60.0625 53.125 
Q 64.75 56 71.09375 56 
Q 79.640625 56 84.28125 50.015625 
Q 88.921875 44.046875 88.921875 33.015625 
L 88.921875 0 
L 79.890625 0 
L 79.890625 32.71875 
Q 79.890625 40.578125 77.09375 44.375 
Q 74.3125 48.1875 68.609375 48.1875 
Q 61.625 48.1875 57.5625 43.546875 
Q 53.515625 38.921875 53.515625 30.90625 
L 53.515625 0 
L 44.484375 0 
L 44.484375 32.71875 
Q 44.484375 40.625 41.703125 44.40625 
Q 38.921875 48.1875 33.109375 48.1875 
Q 26.21875 48.1875 22.15625 43.53125 
Q 18.109375 38.875 18.109375 30.90625 
L 18.109375 0 
L 9.078125 0 
L 9.078125 54.6875 
L 18.109375 54.6875 
L 18.109375 46.1875 
Q 21.1875 51.21875 25.484375 53.609375 
Q 29.78125 56 35.6875 56 
Q 41.65625 56 45.828125 52.96875 
Q 50 49.953125 52 44.1875 
z
" id="DejaVuSans-109"/>
       <path d="M 54.890625 33.015625 
L 54.890625 0 
L 45.90625 0 
L 45.90625 32.71875 
Q 45.90625 40.484375 42.875 44.328125 
Q 39.84375 48.1875 33.796875 48.1875 
Q 26.515625 48.1875 22.3125 43.546875 
Q 18.109375 38.921875 18.109375 30.90625 
L 18.109375 0 
L 9.078125 0 
L 9.078125 54.6875 
L 18.109375 54.6875 
L 18.109375 46.1875 
Q 21.34375 51.125 25.703125 53.5625 
Q 30.078125 56 35.796875 56 
Q 45.21875 56 50.046875 50.171875 
Q 54.890625 44.34375 54.890625 33.015625 
z
" id="DejaVuSans-110"/>
       <path d="M 8.015625 75.875 
L 15.828125 75.875 
Q 23.140625 64.359375 26.78125 53.3125 
Q 30.421875 42.28125 30.421875 31.390625 
Q 30.421875 20.453125 26.78125 9.375 
Q 23.140625 -1.703125 15.828125 -13.1875 
L 8.015625 -13.1875 
Q 14.5 -2 17.703125 9.0625 
Q 20.90625 20.125 20.90625 31.390625 
Q 20.90625 42.671875 17.703125 53.65625 
Q 14.5 64.65625 8.015625 75.875 
z
" id="DejaVuSans-41"/>
      </defs>
      <use xlink:href="#DejaVuSans-108"/>
      <use x="27.783203" xlink:href="#DejaVuSans-111"/>
      <use x="88.964844" xlink:href="#DejaVuSans-103"/>
      <use x="152.441406" xlink:href="#DejaVuSans-49"/>
      <use x="216.064453" xlink:href="#DejaVuSans-48"/>
      <use x="279.6875" xlink:href="#DejaVuSans-40"/>
      <use x="318.701172" xlink:href="#DejaVuSans-35"/>
      <use x="402.490234" xlink:href="#DejaVuSans-32"/>
      <use x="434.277344" xlink:href="#DejaVuSans-102"/>
      <use x="463.982422" xlink:href="#DejaVuSans-45"/>
      <use x="500.066406" xlink:href="#DejaVuSans-101"/>
      <use x="561.589844" xlink:href="#DejaVuSans-118"/>
      <use x="620.769531" xlink:href="#DejaVuSans-97"/>
      <use x="682.048828" xlink:href="#DejaVuSans-108"/>
      <use x="709.832031" xlink:href="#DejaVuSans-115"/>
      <use x="761.931641" xlink:href="#DejaVuSans-32"/>
      <use x="793.71875" xlink:href="#DejaVuSans-47"/>
      <use x="827.410156" xlink:href="#DejaVuSans-32"/>
      <use x="859.197266" xlink:href="#DejaVuSans-100"/>
      <use x="922.673828" xlink:href="#DejaVuSans-105"/>
      <use x="950.457031" xlink:href="#DejaVuSans-109"/>
      <use x="1047.869141" xlink:href="#DejaVuSans-101"/>
      <use x="1109.392578" xlink:href="#DejaVuSans-110"/>
      <use x="1172.771484" xlink:href="#DejaVuSans-115"/>
      <use x="1224.871094" xlink:href="#DejaVuSans-105"/>
      <use x="1252.654297" xlink:href="#DejaVuSans-111"/>
      <use x="1313.835938" xlink:href="#DejaVuSans-110"/>
      <use x="1377.214844" xlink:href="#DejaVuSans-41"/>
     </g>
    </g>
   </g>
   <g id="matplotlib.axis_2">
    <g id="ytick_1">
     <g id="line2d_21">
      <path clip-path="url(#p7ce830fad8)" d="M 57.6 298.944 
L 338.688 298.944 
" style="fill:none;stroke:#b0b0b0;stroke-linecap:square;stroke-width:0.8;"/>
     </g>
     <g id="line2d_22">
      <defs>
       <path d="M 0 0 
L -3.5 0 
" id="mc2ebbd71ac" style="stroke:#000000;stroke-width:0.8;"/>
      </defs>
      <g>
       <use style="stroke:#000000;stroke-width:0.8;" x="57.6" xlink:href="#mc2ebbd71ac" y="298.944"/>
      </g>
     </g>
     <g id="text_6">
      <!-- 0.0 -->
      <g transform="translate(25.155 305.02275)scale(0.16 -0.16)">
       <defs>
        <path d="M 10.6875 12.40625 
L 21 12.40625 
L 21 0 
L 10.6875 0 
z
" id="DejaVuSans-46"/>
       </defs>
       <use xlink:href="#DejaVuSans-48"/>
       <use x="63.623047" xlink:href="#DejaVuSans-46"/>
       <use x="95.410156" xlink:href="#DejaVuSans-48"/>
      </g>
     </g>
    </g>
    <g id="ytick_2">
     <g id="line2d_23">
      <path clip-path="url(#p7ce830fad8)" d="M 57.6 245.22202 
L 338.688 245.22202 
" style="fill:none;stroke:#b0b0b0;stroke-linecap:square;stroke-width:0.8;"/>
     </g>
     <g id="line2d_24">
      <g>
       <use style="stroke:#000000;stroke-width:0.8;" x="57.6" xlink:href="#mc2ebbd71ac" y="245.22202"/>
      </g>
     </g>
     <g id="text_7">
      <!-- 0.2 -->
      <g transform="translate(25.155 251.30077)scale(0.16 -0.16)">
       <use xlink:href="#DejaVuSans-48"/>
       <use x="63.623047" xlink:href="#DejaVuSans-46"/>
       <use x="95.410156" xlink:href="#DejaVuSans-50"/>
      </g>
     </g>
    </g>
    <g id="ytick_3">
     <g id="line2d_25">
      <path clip-path="url(#p7ce830fad8)" d="M 57.6 191.50004 
L 338.688 191.50004 
" style="fill:none;stroke:#b0b0b0;stroke-linecap:square;stroke-width:0.8;"/>
     </g>
     <g id="line2d_26">
      <g>
       <use style="stroke:#000000;stroke-width:0.8;" x="57.6" xlink:href="#mc2ebbd71ac" y="191.50004"/>
      </g>
     </g>
     <g id="text_8">
      <!-- 0.4 -->
      <g transform="translate(25.155 197.57879)scale(0.16 -0.16)">
       <use xlink:href="#DejaVuSans-48"/>
       <use x="63.623047" xlink:href="#DejaVuSans-46"/>
       <use x="95.410156" xlink:href="#DejaVuSans-52"/>
      </g>
     </g>
    </g>
    <g id="ytick_4">
     <g id="line2d_27">
      <path clip-path="url(#p7ce830fad8)" d="M 57.6 137.778059 
L 338.688 137.778059 
" style="fill:none;stroke:#b0b0b0;stroke-linecap:square;stroke-width:0.8;"/>
     </g>
     <g id="line2d_28">
      <g>
       <use style="stroke:#000000;stroke-width:0.8;" x="57.6" xlink:href="#mc2ebbd71ac" y="137.778059"/>
      </g>
     </g>
     <g id="text_9">
      <!-- 0.6 -->
      <g transform="translate(25.155 143.856809)scale(0.16 -0.16)">
       <use xlink:href="#DejaVuSans-48"/>
       <use x="63.623047" xlink:href="#DejaVuSans-46"/>
       <use x="95.410156" xlink:href="#DejaVuSans-54"/>
      </g>
     </g>
    </g>
    <g id="ytick_5">
     <g id="line2d_29">
      <path clip-path="url(#p7ce830fad8)" d="M 57.6 84.056079 
L 338.688 84.056079 
" style="fill:none;stroke:#b0b0b0;stroke-linecap:square;stroke-width:0.8;"/>
     </g>
     <g id="line2d_30">
      <g>
       <use style="stroke:#000000;stroke-width:0.8;" x="57.6" xlink:href="#mc2ebbd71ac" y="84.056079"/>
      </g>
     </g>
     <g id="text_10">
      <!-- 0.8 -->
      <g transform="translate(25.155 90.134829)scale(0.16 -0.16)">
       <defs>
        <path d="M 31.78125 34.625 
Q 24.75 34.625 20.71875 30.859375 
Q 16.703125 27.09375 16.703125 20.515625 
Q 16.703125 13.921875 20.71875 10.15625 
Q 24.75 6.390625 31.78125 6.390625 
Q 38.8125 6.390625 42.859375 10.171875 
Q 46.921875 13.96875 46.921875 20.515625 
Q 46.921875 27.09375 42.890625 30.859375 
Q 38.875 34.625 31.78125 34.625 
z
M 21.921875 38.8125 
Q 15.578125 40.375 12.03125 44.71875 
Q 8.5 49.078125 8.5 55.328125 
Q 8.5 64.0625 14.71875 69.140625 
Q 20.953125 74.21875 31.78125 74.21875 
Q 42.671875 74.21875 48.875 69.140625 
Q 55.078125 64.0625 55.078125 55.328125 
Q 55.078125 49.078125 51.53125 44.71875 
Q 48 40.375 41.703125 38.8125 
Q 48.828125 37.15625 52.796875 32.3125 
Q 56.78125 27.484375 56.78125 20.515625 
Q 56.78125 9.90625 50.3125 4.234375 
Q 43.84375 -1.421875 31.78125 -1.421875 
Q 19.734375 -1.421875 13.25 4.234375 
Q 6.78125 9.90625 6.78125 20.515625 
Q 6.78125 27.484375 10.78125 32.3125 
Q 14.796875 37.15625 21.921875 38.8125 
z
M 18.3125 54.390625 
Q 18.3125 48.734375 21.84375 45.5625 
Q 25.390625 42.390625 31.78125 42.390625 
Q 38.140625 42.390625 41.71875 45.5625 
Q 45.3125 48.734375 45.3125 54.390625 
Q 45.3125 60.0625 41.71875 63.234375 
Q 38.140625 66.40625 31.78125 66.40625 
Q 25.390625 66.40625 21.84375 63.234375 
Q 18.3125 60.0625 18.3125 54.390625 
z
" id="DejaVuSans-56"/>
       </defs>
       <use xlink:href="#DejaVuSans-48"/>
       <use x="63.623047" xlink:href="#DejaVuSans-46"/>
       <use x="95.410156" xlink:href="#DejaVuSans-56"/>
      </g>
     </g>
    </g>
    <g id="ytick_6">
     <g id="line2d_31">
      <path clip-path="url(#p7ce830fad8)" d="M 57.6 30.334099 
L 338.688 30.334099 
" style="fill:none;stroke:#b0b0b0;stroke-linecap:square;stroke-width:0.8;"/>
     </g>
     <g id="line2d_32">
      <g>
       <use style="stroke:#000000;stroke-width:0.8;" x="57.6" xlink:href="#mc2ebbd71ac" y="30.334099"/>
      </g>
     </g>
     <g id="text_11">
      <!-- 1.0 -->
      <g transform="translate(25.155 36.412849)scale(0.16 -0.16)">
       <use xlink:href="#DejaVuSans-49"/>
       <use x="63.623047" xlink:href="#DejaVuSans-46"/>
       <use x="95.410156" xlink:href="#DejaVuSans-48"/>
      </g>
     </g>
    </g>
    <g id="text_12">
     <!-- Fraction of function,target pairs -->
     <g transform="translate(17.619531 297.681)rotate(-90)scale(0.17 -0.17)">
      <defs>
       <path d="M 9.8125 72.90625 
L 51.703125 72.90625 
L 51.703125 64.59375 
L 19.671875 64.59375 
L 19.671875 43.109375 
L 48.578125 43.109375 
L 48.578125 34.8125 
L 19.671875 34.8125 
L 19.671875 0 
L 9.8125 0 
z
" id="DejaVuSans-70"/>
       <path d="M 41.109375 46.296875 
Q 39.59375 47.171875 37.8125 47.578125 
Q 36.03125 48 33.890625 48 
Q 26.265625 48 22.1875 43.046875 
Q 18.109375 38.09375 18.109375 28.8125 
L 18.109375 0 
L 9.078125 0 
L 9.078125 54.6875 
L 18.109375 54.6875 
L 18.109375 46.1875 
Q 20.953125 51.171875 25.484375 53.578125 
Q 30.03125 56 36.53125 56 
Q 37.453125 56 38.578125 55.875 
Q 39.703125 55.765625 41.0625 55.515625 
z
" id="DejaVuSans-114"/>
       <path d="M 48.78125 52.59375 
L 48.78125 44.1875 
Q 44.96875 46.296875 41.140625 47.34375 
Q 37.3125 48.390625 33.40625 48.390625 
Q 24.65625 48.390625 19.8125 42.84375 
Q 14.984375 37.3125 14.984375 27.296875 
Q 14.984375 17.28125 19.8125 11.734375 
Q 24.65625 6.203125 33.40625 6.203125 
Q 37.3125 6.203125 41.140625 7.25 
Q 44.96875 8.296875 48.78125 10.40625 
L 48.78125 2.09375 
Q 45.015625 0.34375 40.984375 -0.53125 
Q 36.96875 -1.421875 32.421875 -1.421875 
Q 20.0625 -1.421875 12.78125 6.34375 
Q 5.515625 14.109375 5.515625 27.296875 
Q 5.515625 40.671875 12.859375 48.328125 
Q 20.21875 56 33.015625 56 
Q 37.15625 56 41.109375 55.140625 
Q 45.0625 54.296875 48.78125 52.59375 
z
" id="DejaVuSans-99"/>
       <path d="M 18.3125 70.21875 
L 18.3125 54.6875 
L 36.8125 54.6875 
L 36.8125 47.703125 
L 18.3125 47.703125 
L 18.3125 18.015625 
Q 18.3125 11.328125 20.140625 9.421875 
Q 21.96875 7.515625 27.59375 7.515625 
L 36.8125 7.515625 
L 36.8125 0 
L 27.59375 0 
Q 17.1875 0 13.234375 3.875 
Q 9.28125 7.765625 9.28125 18.015625 
L 9.28125 47.703125 
L 2.6875 47.703125 
L 2.6875 54.6875 
L 9.28125 54.6875 
L 9.28125 70.21875 
z
" id="DejaVuSans-116"/>
       <path d="M 8.5 21.578125 
L 8.5 54.6875 
L 17.484375 54.6875 
L 17.484375 21.921875 
Q 17.484375 14.15625 20.5 10.265625 
Q 23.53125 6.390625 29.59375 6.390625 
Q 36.859375 6.390625 41.078125 11.03125 
Q 45.3125 15.671875 45.3125 23.6875 
L 45.3125 54.6875 
L 54.296875 54.6875 
L 54.296875 0 
L 45.3125 0 
L 45.3125 8.40625 
Q 42.046875 3.421875 37.71875 1 
Q 33.40625 -1.421875 27.6875 -1.421875 
Q 18.265625 -1.421875 13.375 4.4375 
Q 8.5 10.296875 8.5 21.578125 
z
M 31.109375 56 
z
" id="DejaVuSans-117"/>
       <path d="M 11.71875 12.40625 
L 22.015625 12.40625 
L 22.015625 4 
L 14.015625 -11.625 
L 7.71875 -11.625 
L 11.71875 4 
z
" id="DejaVuSans-44"/>
       <path d="M 18.109375 8.203125 
L 18.109375 -20.796875 
L 9.078125 -20.796875 
L 9.078125 54.6875 
L 18.109375 54.6875 
L 18.109375 46.390625 
Q 20.953125 51.265625 25.265625 53.625 
Q 29.59375 56 35.59375 56 
Q 45.5625 56 51.78125 48.09375 
Q 58.015625 40.1875 58.015625 27.296875 
Q 58.015625 14.40625 51.78125 6.484375 
Q 45.5625 -1.421875 35.59375 -1.421875 
Q 29.59375 -1.421875 25.265625 0.953125 
Q 20.953125 3.328125 18.109375 8.203125 
z
M 48.6875 27.296875 
Q 48.6875 37.203125 44.609375 42.84375 
Q 40.53125 48.484375 33.40625 48.484375 
Q 26.265625 48.484375 22.1875 42.84375 
Q 18.109375 37.203125 18.109375 27.296875 
Q 18.109375 17.390625 22.1875 11.75 
Q 26.265625 6.109375 33.40625 6.109375 
Q 40.53125 6.109375 44.609375 11.75 
Q 48.6875 17.390625 48.6875 27.296875 
z
" id="DejaVuSans-112"/>
      </defs>
      <use xlink:href="#DejaVuSans-70"/>
      <use x="50.269531" xlink:href="#DejaVuSans-114"/>
      <use x="91.382812" xlink:href="#DejaVuSans-97"/>
      <use x="152.662109" xlink:href="#DejaVuSans-99"/>
      <use x="207.642578" xlink:href="#DejaVuSans-116"/>
      <use x="246.851562" xlink:href="#DejaVuSans-105"/>
      <use x="274.634766" xlink:href="#DejaVuSans-111"/>
      <use x="335.816406" xlink:href="#DejaVuSans-110"/>
      <use x="399.195312" xlink:href="#DejaVuSans-32"/>
      <use x="430.982422" xlink:href="#DejaVuSans-111"/>
      <use x="492.164062" xlink:href="#DejaVuSans-102"/>
      <use x="527.369141" xlink:href="#DejaVuSans-32"/>
      <use x="559.15625" xlink:href="#DejaVuSans-102"/>
      <use x="594.361328" xlink:href="#DejaVuSans-117"/>
      <use x="657.740234" xlink:href="#DejaVuSans-110"/>
      <use x="721.119141" xlink:href="#DejaVuSans-99"/>
      <use x="776.099609" xlink:href="#DejaVuSans-116"/>
      <use x="815.308594" xlink:href="#DejaVuSans-105"/>
      <use x="843.091797" xlink:href="#DejaVuSans-111"/>
      <use x="904.273438" xlink:href="#DejaVuSans-110"/>
      <use x="967.652344" xlink:href="#DejaVuSans-44"/>
      <use x="999.439453" xlink:href="#DejaVuSans-116"/>
      <use x="1038.648438" xlink:href="#DejaVuSans-97"/>
      <use x="1099.927734" xlink:href="#DejaVuSans-114"/>
      <use x="1139.291016" xlink:href="#DejaVuSans-103"/>
      <use x="1202.767578" xlink:href="#DejaVuSans-101"/>
      <use x="1264.291016" xlink:href="#DejaVuSans-116"/>
      <use x="1303.5" xlink:href="#DejaVuSans-32"/>
      <use x="1335.287109" xlink:href="#DejaVuSans-112"/>
      <use x="1398.763672" xlink:href="#DejaVuSans-97"/>
      <use x="1460.042969" xlink:href="#DejaVuSans-105"/>
      <use x="1487.826172" xlink:href="#DejaVuSans-114"/>
      <use x="1528.939453" xlink:href="#DejaVuSans-115"/>
     </g>
    </g>
   </g>
   <g id="line2d_33">
    <defs>
     <path d="M 0 1.5 
C 0.397805 1.5 0.77937 1.341951 1.06066 1.06066 
C 1.341951 0.77937 1.5 0.397805 1.5 0 
C 1.5 -0.397805 1.341951 -0.77937 1.06066 -1.06066 
C 0.77937 -1.341951 0.397805 -1.5 0 -1.5 
C -0.397805 -1.5 -0.77937 -1.341951 -1.06066 -1.06066 
C -1.341951 -0.77937 -1.5 -0.397805 -1.5 0 
C -1.5 0.397805 -1.341951 0.77937 -1.06066 1.06066 
C -0.77937 1.341951 -0.397805 1.5 0 1.5 
z
" id="m396240843f" style="stroke:#f5deb3;"/>
    </defs>
    <g>
     <use style="fill:#f5deb3;stroke:#f5deb3;" x="166.638786" xlink:href="#m396240843f" y="30.334099"/>
     <use style="fill:#f5deb3;stroke:#f5deb3;" x="166.638786" xlink:href="#m396240843f" y="30.334099"/>
    </g>
   </g>
   <g id="line2d_34">
    <defs>
     <path d="M 0 1.5 
C 0.397805 1.5 0.77937 1.341951 1.06066 1.06066 
C 1.341951 0.77937 1.5 0.397805 1.5 0 
C 1.5 -0.397805 1.341951 -0.77937 1.06066 -1.06066 
C 0.77937 -1.341951 0.397805 -1.5 0 -1.5 
C -0.397805 -1.5 -0.77937 -1.341951 -1.06066 -1.06066 
C -1.341951 -0.77937 -1.5 -0.397805 -1.5 0 
C -1.5 0.397805 -1.341951 0.77937 -1.06066 1.06066 
C -0.77937 1.341951 -0.397805 1.5 0 1.5 
z
" id="m81bd04d218" style="stroke:#000080;"/>
    </defs>
    <g>
     <use style="fill:#000080;stroke:#000080;" x="287.743117" xlink:href="#m81bd04d218" y="235.74167"/>
     <use style="fill:#000080;stroke:#000080;" x="287.743117" xlink:href="#m81bd04d218" y="235.74167"/>
    </g>
   </g>
   <g id="line2d_35">
    <path d="M 109.579846 298.944 
L 109.579846 298.417314 
L 117.145424 298.417314 
L 117.145424 297.890628 
L 121.887753 297.890628 
L 121.887753 296.837256 
L 123.07053 296.837256 
L 123.07053 295.783884 
L 137.325651 295.783884 
L 137.325651 295.257197 
L 139.253002 295.257197 
L 139.253002 294.730511 
L 141.075875 294.730511 
L 141.075875 294.203825 
L 147.888024 294.203825 
L 147.888024 293.677139 
L 149.797132 293.677139 
L 149.797132 293.150453 
L 149.920192 293.150453 
L 149.920192 292.623767 
L 156.835778 292.623767 
L 156.835778 292.097081 
L 158.266075 292.097081 
L 158.266075 291.570395 
L 162.060656 291.570395 
L 162.060656 291.043709 
L 165.9084 291.043709 
L 165.9084 290.517023 
L 167.455557 290.517023 
L 167.455557 289.990337 
L 169.397444 289.990337 
L 169.397444 289.463651 
L 171.585089 289.463651 
L 171.585089 288.936964 
L 174.058903 288.936964 
L 174.058903 288.410278 
L 174.844125 288.410278 
L 174.844125 287.883592 
L 175.747557 287.883592 
L 175.747557 287.356906 
L 176.014414 287.356906 
L 176.014414 286.83022 
L 176.970518 286.83022 
L 177.072356 285.776848 
L 178.858923 285.776848 
L 178.858923 285.250162 
L 181.710459 285.250162 
L 181.710459 284.723476 
L 181.876642 284.723476 
L 181.876642 284.19679 
L 182.718027 284.19679 
L 182.775365 283.143418 
L 186.355212 283.143418 
L 186.394199 282.090045 
L 189.021326 282.090045 
L 189.038997 281.036673 
L 189.394162 281.036673 
L 189.394162 280.509987 
L 189.770784 280.509987 
L 189.770784 279.983301 
L 191.362691 279.983301 
L 191.362691 279.456615 
L 192.496585 279.456615 
L 192.496585 278.929929 
L 193.538984 278.929929 
L 193.538984 278.403243 
L 193.736783 278.403243 
L 193.736783 277.876557 
L 196.778999 277.876557 
L 196.778999 277.349871 
L 197.188051 277.349871 
L 197.188051 276.823185 
L 199.000686 276.823185 
L 199.000686 276.296499 
L 199.66618 276.296499 
L 199.66618 275.769812 
L 200.875127 275.769812 
L 200.875127 275.243126 
L 201.426045 275.243126 
L 201.516727 274.189754 
L 201.639464 274.189754 
L 201.639464 273.663068 
L 201.867684 273.663068 
L 201.867684 273.136382 
L 203.225083 273.136382 
L 203.225083 272.609696 
L 203.516862 272.609696 
L 203.570677 271.556324 
L 203.714314 271.556324 
L 203.714314 271.029638 
L 204.857641 271.029638 
L 204.857641 270.502952 
L 205.407281 270.502952 
L 205.474421 268.922893 
L 205.527948 268.922893 
L 205.527948 268.396207 
L 205.694705 268.396207 
L 205.694705 267.869521 
L 205.989782 267.869521 
L 206.009817 266.816149 
L 206.419469 266.816149 
L 206.419469 266.289463 
L 207.003515 266.289463 
L 207.003515 265.762777 
L 207.360845 265.762777 
L 207.391701 264.709405 
L 207.574736 264.709405 
L 207.574736 264.182719 
L 207.904917 264.182719 
L 207.904917 263.656033 
L 208.482592 263.656033 
L 208.482592 263.129347 
L 208.768907 263.129347 
L 208.768907 262.60266 
L 209.032884 262.60266 
L 209.032884 262.075974 
L 209.962294 262.075974 
L 210.010673 260.495916 
L 211.360357 260.495916 
L 211.360357 259.96923 
L 211.658897 259.96923 
L 211.658897 259.442544 
L 212.032673 259.442544 
L 212.032673 258.915858 
L 212.457926 258.915858 
L 212.565111 257.862486 
L 212.73458 257.862486 
L 212.73458 257.3358 
L 213.012086 257.3358 
L 213.012086 256.809114 
L 214.115521 256.809114 
L 214.115521 256.282427 
L 214.299051 256.282427 
L 214.299051 255.755741 
L 214.451035 255.755741 
L 214.451035 255.229055 
L 215.411079 255.229055 
L 215.503241 254.175683 
L 215.573821 254.175683 
L 215.619231 253.122311 
L 215.69519 253.122311 
L 215.69519 252.595625 
L 216.129778 252.595625 
L 216.22918 251.542253 
L 216.290849 251.542253 
L 216.290849 251.015567 
L 217.299639 251.015567 
L 217.299639 250.488881 
L 217.635065 250.488881 
L 217.679197 249.435508 
L 226.111349 249.435508 
L 226.111349 248.908822 
L 226.68304 248.908822 
L 226.68304 248.382136 
L 227.228158 248.382136 
L 227.228158 247.85545 
L 228.458431 247.85545 
L 228.485656 246.802078 
L 229.003383 246.802078 
L 229.003383 246.275392 
L 229.767636 246.275392 
L 229.767636 245.748706 
L 234.696931 245.748706 
L 234.696931 245.22202 
L 235.567838 245.22202 
L 235.567838 244.695334 
L 236.212132 244.695334 
L 236.212132 244.168648 
L 236.578541 244.168648 
L 236.578541 243.115275 
L 237.187358 243.115275 
L 237.187358 242.061903 
L 241.146122 242.061903 
L 241.146122 241.535217 
L 241.799541 241.535217 
L 241.799541 241.008531 
L 242.246229 241.008531 
L 242.252869 239.955159 
L 249.054383 239.955159 
L 249.054383 239.428473 
L 251.817704 239.428473 
L 251.817704 238.901787 
L 253.87112 238.901787 
L 253.87112 238.375101 
L 254.189169 238.375101 
L 254.189169 237.848415 
L 261.359587 237.848415 
L 261.359587 237.321729 
L 262.770716 237.321729 
L 262.770716 236.795043 
L 272.799916 236.795043 
L 272.799916 236.268356 
L 287.743117 236.268356 
L 287.743117 235.74167 
L 338.688 235.74167 
L 338.688 235.74167 
" style="fill:none;stroke:#000080;stroke-linecap:square;stroke-width:1.5;"/>
   </g>
   <g id="line2d_36">
    <defs>
     <path d="M 0 6 
C 1.591219 6 3.117479 5.367802 4.242641 4.242641 
C 5.367802 3.117479 6 1.591219 6 0 
C 6 -1.591219 5.367802 -3.117479 4.242641 -4.242641 
C 3.117479 -5.367802 1.591219 -6 0 -6 
C -1.591219 -6 -3.117479 -5.367802 -4.242641 -4.242641 
C -5.367802 -3.117479 -6 -1.591219 -6 0 
C -6 1.591219 -5.367802 3.117479 -4.242641 4.242641 
C -3.117479 5.367802 -1.591219 6 0 6 
z
" id="medded1bad1" style="stroke:#000080;stroke-width:1.5;"/>
    </defs>
    <g>
     <use style="fill-opacity:0;stroke:#000080;stroke-width:1.5;" x="201.867684" xlink:href="#medded1bad1" y="273.136382"/>
     <use style="fill-opacity:0;stroke:#000080;stroke-width:1.5;" x="262.770716" xlink:href="#medded1bad1" y="236.795043"/>
     <use style="fill-opacity:0;stroke:#000080;stroke-width:1.5;" x="287.743117" xlink:href="#medded1bad1" y="235.74167"/>
     <use style="fill-opacity:0;stroke:#000080;stroke-width:1.5;" x="287.743117" xlink:href="#medded1bad1" y="235.74167"/>
     <use style="fill-opacity:0;stroke:#000080;stroke-width:1.5;" x="338.688" xlink:href="#medded1bad1" y="235.74167"/>
    </g>
   </g>
   <g id="line2d_37">
    <path style="fill:none;stroke:#000080;stroke-linecap:square;stroke-width:1.5;"/>
    <g/>
   </g>
   <g id="line2d_38">
    <path clip-path="url(#p7ce830fad8)" d="M 218.221714 249.435508 
" style="fill:none;stroke:#000080;stroke-linecap:square;stroke-width:1.5;"/>
    <defs>
     <path d="M -12 12 
L 12 -12 
M -12 -12 
L 12 12 
" id="m12e459c186" style="stroke:#000080;"/>
    </defs>
    <g clip-path="url(#p7ce830fad8)">
     <use style="fill:#000080;stroke:#000080;" x="218.221714" xlink:href="#m12e459c186" y="249.435508"/>
    </g>
   </g>
   <g id="line2d_39">
    <defs>
     <path d="M 0 1.5 
C 0.397805 1.5 0.77937 1.341951 1.06066 1.06066 
C 1.341951 0.77937 1.5 0.397805 1.5 0 
C 1.5 -0.397805 1.341951 -0.77937 1.06066 -1.06066 
C 0.77937 -1.341951 0.397805 -1.5 0 -1.5 
C -0.397805 -1.5 -0.77937 -1.341951 -1.06066 -1.06066 
C -1.341951 -0.77937 -1.5 -0.397805 -1.5 0 
C -1.5 0.397805 -1.341951 0.77937 -1.06066 1.06066 
C -0.77937 1.341951 -0.397805 1.5 0 1.5 
z
" id="mfd0e8612db" style="stroke:#ff00ff;"/>
    </defs>
    <g>
     <use style="fill:#ff00ff;stroke:#ff00ff;" x="271.984496" xlink:href="#mfd0e8612db" y="262.075974"/>
     <use style="fill:#ff00ff;stroke:#ff00ff;" x="271.984496" xlink:href="#mfd0e8612db" y="262.075974"/>
    </g>
   </g>
   <g id="line2d_40">
    <path d="M 120.990934 298.944 
L 120.990934 298.417314 
L 137.071324 298.417314 
L 137.071324 297.890628 
L 137.235245 297.890628 
L 137.235245 297.363942 
L 139.269142 297.363942 
L 139.269142 296.31057 
L 140.871049 296.31057 
L 140.871049 295.783884 
L 144.257856 295.783884 
L 144.257856 295.257197 
L 148.826773 295.257197 
L 148.826773 294.730511 
L 150.998554 294.730511 
L 150.998554 294.203825 
L 158.779504 294.203825 
L 158.779504 293.677139 
L 162.160794 293.677139 
L 162.160794 293.150453 
L 162.33359 293.150453 
L 162.33359 292.623767 
L 166.43612 292.623767 
L 166.43612 292.097081 
L 167.532297 292.097081 
L 167.532297 291.570395 
L 170.933246 291.570395 
L 170.933246 291.043709 
L 172.599444 291.043709 
L 172.599444 290.517023 
L 174.331074 290.517023 
L 174.331074 289.990337 
L 177.27974 289.990337 
L 177.27974 289.463651 
L 180.448955 289.463651 
L 180.448955 288.936964 
L 180.917233 288.936964 
L 180.917233 288.410278 
L 184.613309 288.410278 
L 184.613309 287.883592 
L 187.889244 287.883592 
L 187.902147 286.83022 
L 188.251829 286.83022 
L 188.251829 286.303534 
L 190.126349 286.303534 
L 190.126349 285.776848 
L 190.370053 285.776848 
L 190.370053 285.250162 
L 192.424009 285.250162 
L 192.424009 284.723476 
L 192.550629 284.723476 
L 192.550629 284.19679 
L 192.850522 284.19679 
L 192.850522 283.670104 
L 193.422979 283.670104 
L 193.422979 283.143418 
L 195.703439 283.143418 
L 195.703439 282.616732 
L 195.875753 282.616732 
L 195.875753 282.090045 
L 198.074499 282.090045 
L 198.074499 281.563359 
L 199.317541 281.563359 
L 199.317541 281.036673 
L 200.262334 281.036673 
L 200.262334 280.509987 
L 200.597552 280.509987 
L 200.597552 279.983301 
L 201.96275 279.983301 
L 201.96275 279.456615 
L 208.745201 279.456615 
L 208.745201 278.929929 
L 209.778748 278.929929 
L 209.778748 278.403243 
L 210.318479 278.403243 
L 210.318479 277.876557 
L 210.437426 277.876557 
L 210.437426 277.349871 
L 210.961414 277.349871 
L 210.961414 276.823185 
L 213.946761 276.823185 
L 213.946761 276.296499 
L 214.774053 276.296499 
L 214.774053 275.769812 
L 217.550996 275.769812 
L 217.550996 275.243126 
L 218.168618 275.243126 
L 218.168618 274.71644 
L 220.163484 274.71644 
L 220.163484 274.189754 
L 221.43742 274.189754 
L 221.43742 273.663068 
L 222.494866 273.663068 
L 222.494866 273.136382 
L 226.594248 273.136382 
L 226.594248 272.609696 
L 228.302891 272.609696 
L 228.302891 272.08301 
L 229.977568 272.08301 
L 229.977568 271.556324 
L 235.15107 271.556324 
L 235.15107 271.029638 
L 236.305494 271.029638 
L 236.305494 270.502952 
L 237.160004 270.502952 
L 237.160004 269.976266 
L 241.597548 269.976266 
L 241.597548 269.449579 
L 242.232415 269.449579 
L 242.232415 268.396207 
L 243.813314 268.396207 
L 243.813314 267.869521 
L 245.652004 267.869521 
L 245.652004 267.342835 
L 248.205537 267.342835 
L 248.205537 266.816149 
L 251.079966 266.816149 
L 251.079966 265.762777 
L 256.188636 265.762777 
L 256.188636 265.236091 
L 258.061477 265.236091 
L 258.061477 264.709405 
L 262.710276 264.709405 
L 262.710276 264.182719 
L 266.377048 264.182719 
L 266.377048 263.129347 
L 267.445925 263.129347 
L 267.445925 262.60266 
L 271.984496 262.60266 
L 271.984496 262.075974 
L 338.688 262.075974 
L 338.688 262.075974 
" style="fill:none;stroke:#ff00ff;stroke-linecap:square;stroke-width:1.5;"/>
   </g>
   <g id="line2d_41">
    <defs>
     <path d="M -0 8.485281 
L 5.091169 0 
L 0 -8.485281 
L -5.091169 -0 
z
" id="m3ccd670418" style="stroke:#ff00ff;stroke-linejoin:miter;stroke-width:1.5;"/>
    </defs>
    <g>
     <use style="fill-opacity:0;stroke:#ff00ff;stroke-linejoin:miter;stroke-width:1.5;" x="172.599444" xlink:href="#m3ccd670418" y="290.517023"/>
     <use style="fill-opacity:0;stroke:#ff00ff;stroke-linejoin:miter;stroke-width:1.5;" x="220.163484" xlink:href="#m3ccd670418" y="274.189754"/>
     <use style="fill-opacity:0;stroke:#ff00ff;stroke-linejoin:miter;stroke-width:1.5;" x="271.984496" xlink:href="#m3ccd670418" y="262.60266"/>
     <use style="fill-opacity:0;stroke:#ff00ff;stroke-linejoin:miter;stroke-width:1.5;" x="271.984496" xlink:href="#m3ccd670418" y="262.075974"/>
     <use style="fill-opacity:0;stroke:#ff00ff;stroke-linejoin:miter;stroke-width:1.5;" x="338.688" xlink:href="#m3ccd670418" y="262.075974"/>
    </g>
   </g>
   <g id="line2d_42">
    <path style="fill:none;stroke:#ff00ff;stroke-linecap:square;stroke-width:1.5;"/>
    <g/>
   </g>
   <g id="line2d_43">
    <path clip-path="url(#p7ce830fad8)" d="M 218.221714 274.71644 
" style="fill:none;stroke:#ff00ff;stroke-linecap:square;stroke-width:1.5;"/>
    <defs>
     <path d="M -12 12 
L 12 -12 
M -12 -12 
L 12 12 
" id="mca1653b50c" style="stroke:#ff00ff;"/>
    </defs>
    <g clip-path="url(#p7ce830fad8)">
     <use style="fill:#ff00ff;stroke:#ff00ff;" x="218.221714" xlink:href="#mca1653b50c" y="274.71644"/>
    </g>
   </g>
   <g id="line2d_44">
    <defs>
     <path d="M 0 1.5 
C 0.397805 1.5 0.77937 1.341951 1.06066 1.06066 
C 1.341951 0.77937 1.5 0.397805 1.5 0 
C 1.5 -0.397805 1.341951 -0.77937 1.06066 -1.06066 
C 0.77937 -1.341951 0.397805 -1.5 0 -1.5 
C -0.397805 -1.5 -0.77937 -1.341951 -1.06066 -1.06066 
C -1.341951 -0.77937 -1.5 -0.397805 -1.5 0 
C -1.5 0.397805 -1.341951 0.77937 -1.06066 1.06066 
C -0.77937 1.341951 -0.397805 1.5 0 1.5 
z
" id="md0ef6b5697" style="stroke:#ff7500;"/>
    </defs>
    <g>
     <use style="fill:#ff7500;stroke:#ff7500;" x="281.486502" xlink:href="#md0ef6b5697" y="262.075974"/>
     <use style="fill:#ff7500;stroke:#ff7500;" x="281.486502" xlink:href="#md0ef6b5697" y="262.075974"/>
    </g>
   </g>
   <g id="line2d_45">
    <path d="M 92.969447 298.944 
L 92.969447 298.417314 
L 106.906317 298.417314 
L 106.906317 297.890628 
L 118.734401 297.890628 
L 118.734401 296.837256 
L 120.142369 296.837256 
L 120.142369 296.31057 
L 123.514096 296.31057 
L 123.514096 295.783884 
L 134.994383 295.783884 
L 134.994383 295.257197 
L 142.215919 295.257197 
L 142.215919 294.730511 
L 147.739772 294.730511 
L 147.739772 294.203825 
L 150.716332 294.203825 
L 150.716332 293.677139 
L 156.616413 293.677139 
L 156.616413 293.150453 
L 158.096998 293.150453 
L 158.096998 292.623767 
L 158.742573 292.623767 
L 158.742573 292.097081 
L 161.003133 292.097081 
L 161.003133 291.570395 
L 162.653039 291.570395 
L 162.653039 291.043709 
L 170.510761 291.043709 
L 170.510761 290.517023 
L 172.668501 290.517023 
L 172.668501 289.990337 
L 173.093441 289.990337 
L 173.093441 289.463651 
L 173.31469 289.463651 
L 173.31469 288.936964 
L 173.406055 288.936964 
L 173.406055 288.410278 
L 175.342513 288.410278 
L 175.342513 287.883592 
L 175.655687 287.883592 
L 175.655687 286.303534 
L 176.255981 286.303534 
L 176.255981 285.776848 
L 180.770002 285.776848 
L 180.770002 285.250162 
L 182.078706 285.250162 
L 182.078706 284.723476 
L 182.577219 284.723476 
L 182.577219 283.670104 
L 182.61488 283.670104 
L 182.61488 283.143418 
L 183.607202 283.143418 
L 183.607202 282.616732 
L 184.845384 282.616732 
L 184.845384 281.563359 
L 185.205766 281.563359 
L 185.205766 281.036673 
L 186.921621 281.036673 
L 186.921621 279.983301 
L 189.092828 279.983301 
L 189.092828 279.456615 
L 189.219323 279.456615 
L 189.219323 278.929929 
L 189.843722 278.929929 
L 189.843722 278.403243 
L 193.744592 278.403243 
L 193.744592 277.876557 
L 197.563797 277.876557 
L 197.563797 277.349871 
L 199.527152 277.349871 
L 199.527152 276.823185 
L 201.571635 276.823185 
L 201.571635 276.296499 
L 202.638823 276.296499 
L 202.638823 275.769812 
L 204.529596 275.769812 
L 204.529596 275.243126 
L 210.076455 275.243126 
L 210.076455 274.189754 
L 210.184067 274.189754 
L 210.184067 273.663068 
L 213.922678 273.663068 
L 213.922678 272.609696 
L 213.970366 272.609696 
L 213.970366 272.08301 
L 216.85288 272.08301 
L 216.85288 271.556324 
L 219.653088 271.556324 
L 219.653088 271.029638 
L 219.677971 271.029638 
L 219.677971 270.502952 
L 226.708357 270.502952 
L 226.708357 269.976266 
L 226.7499 269.976266 
L 226.7499 269.449579 
L 229.638713 269.449579 
L 229.638713 268.922893 
L 236.075468 268.922893 
L 236.075468 267.869521 
L 241.418156 267.869521 
L 241.418156 267.342835 
L 244.936498 267.342835 
L 244.936498 266.816149 
L 248.348909 266.816149 
L 248.348909 265.762777 
L 250.55305 265.762777 
L 250.55305 265.236091 
L 257.713926 265.236091 
L 257.713926 264.709405 
L 259.437412 264.709405 
L 259.437412 264.182719 
L 267.243852 264.182719 
L 267.243852 263.656033 
L 271.828933 263.656033 
L 271.828933 263.129347 
L 277.896785 263.129347 
L 277.896785 262.60266 
L 281.486502 262.60266 
L 281.486502 262.075974 
L 338.688 262.075974 
" style="fill:none;stroke:#ff7500;stroke-linecap:square;stroke-width:1.5;"/>
   </g>
   <g id="line2d_46">
    <defs>
     <path d="M 0 -6 
L -1.347084 -1.854102 
L -5.706339 -1.854102 
L -2.179628 0.708204 
L -3.526712 4.854102 
L -0 2.291796 
L 3.526712 4.854102 
L 2.179628 0.708204 
L 5.706339 -1.854102 
L 1.347084 -1.854102 
z
" id="m800d0c158f" style="stroke:#ff7500;stroke-linejoin:bevel;stroke-width:1.5;"/>
    </defs>
    <g>
     <use style="fill-opacity:0;stroke:#ff7500;stroke-linejoin:bevel;stroke-width:1.5;" x="162.653039" xlink:href="#m800d0c158f" y="291.570395"/>
     <use style="fill-opacity:0;stroke:#ff7500;stroke-linejoin:bevel;stroke-width:1.5;" x="236.075468" xlink:href="#m800d0c158f" y="268.922893"/>
     <use style="fill-opacity:0;stroke:#ff7500;stroke-linejoin:bevel;stroke-width:1.5;" x="281.486502" xlink:href="#m800d0c158f" y="262.60266"/>
     <use style="fill-opacity:0;stroke:#ff7500;stroke-linejoin:bevel;stroke-width:1.5;" x="281.486502" xlink:href="#m800d0c158f" y="262.075974"/>
     <use style="fill-opacity:0;stroke:#ff7500;stroke-linejoin:bevel;stroke-width:1.5;" x="338.688" xlink:href="#m800d0c158f" y="262.075974"/>
    </g>
   </g>
   <g id="line2d_47">
    <path style="fill:none;stroke:#ff7500;stroke-linecap:square;stroke-width:1.5;"/>
    <g/>
   </g>
   <g id="line2d_48">
    <path clip-path="url(#p7ce830fad8)" d="M 218.221714 271.556324 
" style="fill:none;stroke:#ff7500;stroke-linecap:square;stroke-width:1.5;"/>
    <defs>
     <path d="M -12 12 
L 12 -12 
M -12 -12 
L 12 12 
" id="mb4bba028b0" style="stroke:#ff7500;"/>
    </defs>
    <g clip-path="url(#p7ce830fad8)">
     <use style="fill:#ff7500;stroke:#ff7500;" x="218.221714" xlink:href="#mb4bba028b0" y="271.556324"/>
    </g>
   </g>
   <g id="line2d_49">
    <defs>
     <path d="M 0 1.5 
C 0.397805 1.5 0.77937 1.341951 1.06066 1.06066 
C 1.341951 0.77937 1.5 0.397805 1.5 0 
C 1.5 -0.397805 1.341951 -0.77937 1.06066 -1.06066 
C 0.77937 -1.341951 0.397805 -1.5 0 -1.5 
C -0.397805 -1.5 -0.77937 -1.341951 -1.06066 -1.06066 
C -1.341951 -0.77937 -1.5 -0.397805 -1.5 0 
C -1.5 0.397805 -1.341951 0.77937 -1.06066 1.06066 
C -0.77937 1.341951 -0.397805 1.5 0 1.5 
z
" id="mb2aa02083b" style="stroke:#6495ed;"/>
    </defs>
    <g>
     <use style="fill:#6495ed;stroke:#6495ed;" x="282.242581" xlink:href="#mb2aa02083b" y="272.609696"/>
     <use style="fill:#6495ed;stroke:#6495ed;" x="282.242581" xlink:href="#mb2aa02083b" y="272.609696"/>
    </g>
   </g>
   <g id="line2d_50">
    <path d="M 109.491096 298.944 
L 109.491096 298.417314 
L 119.148409 298.417314 
L 119.148409 297.363942 
L 126.70692 297.363942 
L 126.70692 296.837256 
L 130.209487 296.837256 
L 130.209487 296.31057 
L 139.123342 296.31057 
L 139.123342 295.783884 
L 143.260342 295.783884 
L 143.260342 295.257197 
L 146.978997 295.257197 
L 146.978997 294.730511 
L 147.530079 294.730511 
L 147.530079 294.203825 
L 151.63719 294.203825 
L 151.63719 293.677139 
L 153.93907 293.677139 
L 153.93907 293.150453 
L 162.821048 293.150453 
L 162.821048 292.623767 
L 166.203547 292.623767 
L 166.203547 291.570395 
L 168.817393 291.570395 
L 168.817393 291.043709 
L 169.117115 291.043709 
L 169.117115 290.517023 
L 171.219655 290.517023 
L 171.219655 289.990337 
L 174.104926 289.990337 
L 174.104926 288.936964 
L 174.59055 288.936964 
L 174.59055 288.410278 
L 176.8157 288.410278 
L 176.8157 287.883592 
L 177.379793 287.883592 
L 177.379793 287.356906 
L 180.54453 287.356906 
L 180.54453 286.83022 
L 189.667976 286.83022 
L 189.667976 286.303534 
L 191.739354 286.303534 
L 191.739354 285.776848 
L 192.317271 285.776848 
L 192.317271 285.250162 
L 195.837398 285.250162 
L 195.837398 284.723476 
L 199.30929 284.723476 
L 199.30929 284.19679 
L 200.199216 284.19679 
L 200.199216 283.670104 
L 201.907284 283.670104 
L 201.907284 283.143418 
L 205.251319 283.143418 
L 205.251319 282.616732 
L 207.124209 282.616732 
L 207.124209 282.090045 
L 209.680839 282.090045 
L 209.680839 281.563359 
L 213.402429 281.563359 
L 213.402429 281.036673 
L 213.774776 281.036673 
L 213.774776 280.509987 
L 217.835193 280.509987 
L 217.835193 279.983301 
L 221.321157 279.983301 
L 221.321157 279.456615 
L 223.994495 279.456615 
L 223.994495 278.929929 
L 226.556983 278.929929 
L 226.556983 278.403243 
L 228.227595 278.403243 
L 228.227595 277.876557 
L 230.117513 277.876557 
L 230.117513 277.349871 
L 233.164944 277.349871 
L 233.164944 276.823185 
L 236.020627 276.823185 
L 236.020627 276.296499 
L 241.387692 276.296499 
L 241.387692 275.769812 
L 247.285667 275.769812 
L 247.285667 275.243126 
L 248.801919 275.243126 
L 248.801919 274.71644 
L 256.098048 274.71644 
L 256.098048 274.189754 
L 261.22649 274.189754 
L 261.22649 273.663068 
L 267.39848 273.663068 
L 267.39848 273.136382 
L 282.242581 273.136382 
L 282.242581 272.609696 
L 338.688 272.609696 
" style="fill:none;stroke:#6495ed;stroke-linecap:square;stroke-width:1.5;"/>
   </g>
   <g id="line2d_51">
    <defs>
     <path d="M -0 6 
L 6 -6 
L -6 -6 
z
" id="m660d48ff7f" style="stroke:#6495ed;stroke-linejoin:miter;stroke-width:1.5;"/>
    </defs>
    <g>
     <use style="fill-opacity:0;stroke:#6495ed;stroke-linejoin:miter;stroke-width:1.5;" x="153.93907" xlink:href="#m660d48ff7f" y="293.677139"/>
     <use style="fill-opacity:0;stroke:#6495ed;stroke-linejoin:miter;stroke-width:1.5;" x="217.835193" xlink:href="#m660d48ff7f" y="280.509987"/>
     <use style="fill-opacity:0;stroke:#6495ed;stroke-linejoin:miter;stroke-width:1.5;" x="282.242581" xlink:href="#m660d48ff7f" y="273.136382"/>
     <use style="fill-opacity:0;stroke:#6495ed;stroke-linejoin:miter;stroke-width:1.5;" x="282.242581" xlink:href="#m660d48ff7f" y="272.609696"/>
     <use style="fill-opacity:0;stroke:#6495ed;stroke-linejoin:miter;stroke-width:1.5;" x="338.688" xlink:href="#m660d48ff7f" y="272.609696"/>
    </g>
   </g>
   <g id="line2d_52">
    <path style="fill:none;stroke:#6495ed;stroke-linecap:square;stroke-width:1.5;"/>
    <g/>
   </g>
   <g id="line2d_53">
    <path clip-path="url(#p7ce830fad8)" d="M 218.221714 279.983301 
" style="fill:none;stroke:#6495ed;stroke-linecap:square;stroke-width:1.5;"/>
    <defs>
     <path d="M -12 12 
L 12 -12 
M -12 -12 
L 12 12 
" id="mfc3acd3c75" style="stroke:#6495ed;"/>
    </defs>
    <g clip-path="url(#p7ce830fad8)">
     <use style="fill:#6495ed;stroke:#6495ed;" x="218.221714" xlink:href="#mfc3acd3c75" y="279.983301"/>
    </g>
   </g>
   <g id="line2d_54">
    <defs>
     <path d="M 0 1.5 
C 0.397805 1.5 0.77937 1.341951 1.06066 1.06066 
C 1.341951 0.77937 1.5 0.397805 1.5 0 
C 1.5 -0.397805 1.341951 -0.77937 1.06066 -1.06066 
C 0.77937 -1.341951 0.397805 -1.5 0 -1.5 
C -0.397805 -1.5 -0.77937 -1.341951 -1.06066 -1.06066 
C -1.341951 -0.77937 -1.5 -0.397805 -1.5 0 
C -1.5 0.397805 -1.341951 0.77937 -1.06066 1.06066 
C -0.77937 1.341951 -0.397805 1.5 0 1.5 
z
" id="md1070e808d" style="stroke:#ff0000;"/>
    </defs>
    <g>
     <use style="fill:#ff0000;stroke:#ff0000;" x="281.505179" xlink:href="#md1070e808d" y="262.075974"/>
     <use style="fill:#ff0000;stroke:#ff0000;" x="281.505179" xlink:href="#md1070e808d" y="262.075974"/>
    </g>
   </g>
   <g id="line2d_55">
    <path d="M 110.859585 298.944 
L 110.859585 298.417314 
L 119.552816 298.417314 
L 119.552816 297.890628 
L 122.906394 297.890628 
L 122.906394 297.363942 
L 124.557288 297.363942 
L 124.557288 296.837256 
L 130.69097 296.837256 
L 130.69097 296.31057 
L 131.414481 296.31057 
L 131.414481 295.783884 
L 131.640805 295.783884 
L 131.640805 295.257197 
L 131.839545 295.257197 
L 131.839545 294.730511 
L 143.298796 294.730511 
L 143.298796 294.203825 
L 145.304409 294.203825 
L 145.304409 293.677139 
L 146.302479 293.677139 
L 146.302479 293.150453 
L 146.527367 293.150453 
L 146.527367 292.623767 
L 149.341352 292.623767 
L 149.359452 291.570395 
L 157.98704 291.570395 
L 157.98704 291.043709 
L 160.074152 291.043709 
L 160.074152 290.517023 
L 161.279295 290.517023 
L 161.279295 289.990337 
L 163.768781 289.990337 
L 163.768781 289.463651 
L 169.259288 289.463651 
L 169.259288 288.936964 
L 172.862299 288.936964 
L 172.862299 288.410278 
L 173.360433 288.410278 
L 173.360433 287.883592 
L 173.544472 287.883592 
L 173.544472 287.356906 
L 175.631641 287.356906 
L 175.631641 286.83022 
L 181.609698 286.83022 
L 181.609698 286.303534 
L 186.263901 286.303534 
L 186.263901 285.776848 
L 186.811069 285.776848 
L 186.811069 285.250162 
L 192.451547 285.250162 
L 192.451547 284.723476 
L 193.425871 284.723476 
L 193.425871 284.19679 
L 198.029593 284.19679 
L 198.029593 283.670104 
L 198.411731 283.670104 
L 198.411731 283.143418 
L 199.245726 283.143418 
L 199.245726 282.616732 
L 199.720676 282.616732 
L 199.720676 282.090045 
L 202.981074 282.090045 
L 202.981074 281.563359 
L 207.619315 281.563359 
L 207.619315 281.036673 
L 208.294412 281.036673 
L 208.294412 280.509987 
L 209.140654 280.509987 
L 209.140654 279.983301 
L 209.601542 279.983301 
L 209.601542 279.456615 
L 212.371555 279.456615 
L 212.371555 278.929929 
L 214.720204 278.929929 
L 214.720204 278.403243 
L 216.321602 278.403243 
L 216.321602 277.876557 
L 221.805785 277.876557 
L 221.805785 277.349871 
L 223.317721 277.349871 
L 223.317721 276.296499 
L 227.628792 276.296499 
L 227.628792 275.243126 
L 228.877941 275.243126 
L 228.877941 274.71644 
L 229.330075 274.71644 
L 229.330075 274.189754 
L 233.043189 274.189754 
L 233.043189 273.663068 
L 234.845461 273.663068 
L 234.845461 273.136382 
L 239.236523 273.136382 
L 239.236523 272.609696 
L 243.817936 272.609696 
L 243.817936 272.08301 
L 251.307413 272.08301 
L 251.307413 271.556324 
L 254.245883 271.556324 
L 254.245883 271.029638 
L 255.88256 271.029638 
L 255.88256 270.502952 
L 257.786814 270.502952 
L 257.786814 269.449579 
L 258.18557 269.449579 
L 258.18557 268.922893 
L 259.865214 268.922893 
L 259.865214 268.396207 
L 262.805411 268.396207 
L 262.805411 267.869521 
L 265.320682 267.869521 
L 265.320682 267.342835 
L 267.286091 267.342835 
L 267.286091 266.816149 
L 268.302229 266.816149 
L 268.302229 266.289463 
L 268.52155 266.289463 
L 268.52155 265.762777 
L 272.819445 265.762777 
L 272.819445 264.709405 
L 274.122855 264.709405 
L 274.122855 264.182719 
L 275.482422 264.182719 
L 275.482422 263.656033 
L 277.472527 263.656033 
L 277.472527 263.129347 
L 280.057792 263.129347 
L 280.057792 262.60266 
L 281.505179 262.60266 
L 281.505179 262.075974 
L 338.688 262.075974 
L 338.688 262.075974 
" style="fill:none;stroke:#ff0000;stroke-linecap:square;stroke-width:1.5;"/>
   </g>
   <g id="line2d_56">
    <defs>
     <path d="M 0 -6 
L -5.196152 -3 
L -5.196152 3 
L -0 6 
L 5.196152 3 
L 5.196152 -3 
z
" id="m48c6efc39b" style="stroke:#ff0000;stroke-linejoin:miter;stroke-width:1.5;"/>
    </defs>
    <g>
     <use style="fill-opacity:0;stroke:#ff0000;stroke-linejoin:miter;stroke-width:1.5;" x="163.768781" xlink:href="#m48c6efc39b" y="289.990337"/>
     <use style="fill-opacity:0;stroke:#ff0000;stroke-linejoin:miter;stroke-width:1.5;" x="233.043189" xlink:href="#m48c6efc39b" y="273.663068"/>
     <use style="fill-opacity:0;stroke:#ff0000;stroke-linejoin:miter;stroke-width:1.5;" x="281.505179" xlink:href="#m48c6efc39b" y="262.60266"/>
     <use style="fill-opacity:0;stroke:#ff0000;stroke-linejoin:miter;stroke-width:1.5;" x="281.505179" xlink:href="#m48c6efc39b" y="262.075974"/>
     <use style="fill-opacity:0;stroke:#ff0000;stroke-linejoin:miter;stroke-width:1.5;" x="338.688" xlink:href="#m48c6efc39b" y="262.075974"/>
    </g>
   </g>
   <g id="line2d_57">
    <path style="fill:none;stroke:#ff0000;stroke-linecap:square;stroke-width:1.5;"/>
    <g/>
   </g>
   <g id="line2d_58">
    <path clip-path="url(#p7ce830fad8)" d="M 218.221714 277.876557 
" style="fill:none;stroke:#ff0000;stroke-linecap:square;stroke-width:1.5;"/>
    <defs>
     <path d="M -12 12 
L 12 -12 
M -12 -12 
L 12 12 
" id="m0810de4fd1" style="stroke:#ff0000;"/>
    </defs>
    <g clip-path="url(#p7ce830fad8)">
     <use style="fill:#ff0000;stroke:#ff0000;" x="218.221714" xlink:href="#m0810de4fd1" y="277.876557"/>
    </g>
   </g>
   <g id="line2d_59">
    <defs>
     <path d="M 0 1.5 
C 0.397805 1.5 0.77937 1.341951 1.06066 1.06066 
C 1.341951 0.77937 1.5 0.397805 1.5 0 
C 1.5 -0.397805 1.341951 -0.77937 1.06066 -1.06066 
C 0.77937 -1.341951 0.397805 -1.5 0 -1.5 
C -0.397805 -1.5 -0.77937 -1.341951 -1.06066 -1.06066 
C -1.341951 -0.77937 -1.5 -0.397805 -1.5 0 
C -1.5 0.397805 -1.341951 0.77937 -1.06066 1.06066 
C -0.77937 1.341951 -0.397805 1.5 0 1.5 
z
" id="m4eccd84413" style="stroke:#9acd32;"/>
    </defs>
    <g>
     <use style="fill:#9acd32;stroke:#9acd32;" x="282.052394" xlink:href="#m4eccd84413" y="225.207949"/>
     <use style="fill:#9acd32;stroke:#9acd32;" x="282.052394" xlink:href="#m4eccd84413" y="225.207949"/>
    </g>
   </g>
   <g id="line2d_60">
    <path d="M 135.321124 298.944 
L 135.321124 297.890628 
L 142.092866 297.890628 
L 142.092866 297.363942 
L 149.65542 297.363942 
L 149.65542 296.837256 
L 150.866312 296.837256 
L 150.866312 296.31057 
L 153.869369 296.31057 
L 153.869369 295.783884 
L 157.369557 295.783884 
L 157.369557 295.257197 
L 160.504296 295.257197 
L 160.504296 294.730511 
L 162.095552 294.730511 
L 162.095552 294.203825 
L 164.524182 294.203825 
L 164.524182 293.677139 
L 169.53167 293.677139 
L 169.53167 293.150453 
L 170.190466 293.150453 
L 170.190466 292.623767 
L 172.031987 292.623767 
L 172.031987 292.097081 
L 174.034747 292.097081 
L 174.034747 291.570395 
L 174.751575 291.570395 
L 174.751575 291.043709 
L 174.998678 291.043709 
L 174.998678 290.517023 
L 175.49273 290.517023 
L 175.49273 289.990337 
L 177.190115 289.990337 
L 177.190115 289.463651 
L 177.603284 289.463651 
L 177.603284 288.936964 
L 177.728195 288.936964 
L 177.728195 288.410278 
L 182.864331 288.410278 
L 182.864331 287.883592 
L 183.772684 287.883592 
L 183.772684 287.356906 
L 185.490626 287.356906 
L 185.490626 286.83022 
L 186.227898 286.83022 
L 186.227898 286.303534 
L 186.971927 286.303534 
L 186.971927 285.776848 
L 188.321706 285.776848 
L 188.321706 285.250162 
L 190.087879 285.250162 
L 190.087879 284.723476 
L 190.704433 284.723476 
L 190.704433 284.19679 
L 191.145746 284.19679 
L 191.145746 283.670104 
L 192.309567 283.670104 
L 192.309567 283.143418 
L 192.740357 283.143418 
L 192.740357 282.616732 
L 193.042205 282.616732 
L 193.042205 282.090045 
L 194.516465 282.090045 
L 194.516465 281.563359 
L 194.826039 281.563359 
L 194.826039 281.036673 
L 195.609306 281.036673 
L 195.609306 280.509987 
L 196.40405 280.509987 
L 196.415015 279.456615 
L 196.89313 279.456615 
L 196.89313 278.929929 
L 197.697833 278.929929 
L 197.697833 278.403243 
L 198.588956 278.403243 
L 198.588956 277.876557 
L 199.175175 277.876557 
L 199.175175 277.349871 
L 199.455686 277.349871 
L 199.507783 276.296499 
L 200.79857 276.296499 
L 200.849173 275.243126 
L 201.323864 275.243126 
L 201.323864 274.71644 
L 202.052894 274.71644 
L 202.052894 274.189754 
L 202.678413 274.189754 
L 202.678413 273.663068 
L 203.61224 273.663068 
L 203.61224 273.136382 
L 204.065368 273.136382 
L 204.065368 272.609696 
L 205.644558 272.609696 
L 205.644558 272.08301 
L 206.8281 272.08301 
L 206.8281 271.556324 
L 207.618034 271.556324 
L 207.618034 271.029638 
L 207.893254 271.029638 
L 207.894516 269.976266 
L 208.171338 269.976266 
L 208.171338 269.449579 
L 209.178773 269.449579 
L 209.288268 268.396207 
L 209.360305 268.396207 
L 209.360305 267.869521 
L 210.521157 267.869521 
L 210.521157 267.342835 
L 210.93389 267.342835 
L 210.93389 266.816149 
L 211.262383 266.816149 
L 211.262383 266.289463 
L 211.629399 266.289463 
L 211.629399 265.762777 
L 211.943415 265.762777 
L 211.943415 265.236091 
L 212.338353 265.236091 
L 212.338353 264.709405 
L 212.549425 264.709405 
L 212.549425 264.182719 
L 212.880163 264.182719 
L 212.880163 263.656033 
L 213.082242 263.656033 
L 213.129245 262.60266 
L 214.387706 262.60266 
L 214.387706 262.075974 
L 215.106633 262.075974 
L 215.106633 261.549288 
L 215.330988 261.549288 
L 215.345596 260.495916 
L 215.749532 260.495916 
L 215.749532 259.96923 
L 217.041807 259.96923 
L 217.041807 259.442544 
L 217.329032 259.442544 
L 217.378337 258.389172 
L 217.53504 258.389172 
L 217.53504 257.862486 
L 217.978669 257.862486 
L 218.019118 256.809114 
L 218.16162 256.809114 
L 218.16162 256.282427 
L 220.378856 256.282427 
L 220.378856 255.755741 
L 222.272056 255.755741 
L 222.272056 255.229055 
L 223.266868 255.229055 
L 223.266868 254.702369 
L 224.035652 254.702369 
L 224.035652 254.175683 
L 224.524058 254.175683 
L 224.524058 253.648997 
L 225.038131 253.648997 
L 225.131198 252.595625 
L 225.480759 252.595625 
L 225.480759 252.068939 
L 225.899184 252.068939 
L 225.899184 251.542253 
L 226.435888 251.542253 
L 226.435888 251.015567 
L 227.908313 251.015567 
L 227.908313 250.488881 
L 228.224058 250.488881 
L 228.224058 249.962195 
L 229.869073 249.962195 
L 229.969745 248.382136 
L 230.188603 248.382136 
L 230.279681 247.328764 
L 233.457841 247.328764 
L 233.457841 246.802078 
L 234.048851 246.802078 
L 234.048851 246.275392 
L 234.567561 246.275392 
L 234.567561 245.22202 
L 235.354661 245.22202 
L 235.354661 244.695334 
L 235.528255 244.695334 
L 235.528255 244.168648 
L 235.829982 244.168648 
L 235.829982 243.641962 
L 236.594967 243.641962 
L 236.594967 243.115275 
L 236.996222 243.115275 
L 236.996222 242.588589 
L 237.360714 242.588589 
L 237.360714 242.061903 
L 240.344495 242.061903 
L 240.344495 241.535217 
L 240.900636 241.535217 
L 240.968296 240.481845 
L 241.247754 240.481845 
L 241.247754 239.955159 
L 241.515285 239.955159 
L 241.515285 239.428473 
L 241.811719 239.428473 
L 241.811719 238.901787 
L 242.110114 238.901787 
L 242.110114 238.375101 
L 246.240816 238.375101 
L 246.240816 237.848415 
L 249.080259 237.848415 
L 249.080259 237.321729 
L 249.277521 237.321729 
L 249.323068 236.268356 
L 251.509194 236.268356 
L 251.586101 235.214984 
L 251.824561 235.214984 
L 251.824561 234.688298 
L 251.993239 234.688298 
L 251.993239 234.161612 
L 253.115903 234.161612 
L 253.115903 233.634926 
L 256.533064 233.634926 
L 256.533064 233.10824 
L 257.979492 233.10824 
L 257.979492 232.581554 
L 262.606767 232.581554 
L 262.606767 232.054868 
L 262.774376 232.054868 
L 262.774376 231.528182 
L 263.924087 231.528182 
L 263.924087 231.001496 
L 265.371938 231.001496 
L 265.371938 230.47481 
L 267.367087 230.47481 
L 267.367087 229.948123 
L 269.510463 229.948123 
L 269.510463 229.421437 
L 270.349501 229.421437 
L 270.349501 228.894751 
L 271.102728 228.894751 
L 271.102728 228.368065 
L 271.261584 228.368065 
L 271.261584 227.841379 
L 272.801975 227.841379 
L 272.801975 227.314693 
L 273.597087 227.314693 
L 273.597087 226.261321 
L 277.45915 226.261321 
L 277.45915 225.734635 
L 282.052394 225.734635 
L 282.052394 225.207949 
L 338.688 225.207949 
L 338.688 225.207949 
" style="fill:none;stroke:#9acd32;stroke-linecap:square;stroke-width:1.5;"/>
   </g>
   <g id="line2d_61">
    <defs>
     <path d="M 0 -6 
L -6 6 
L 6 6 
z
" id="mb8b2084272" style="stroke:#9acd32;stroke-linejoin:miter;stroke-width:1.5;"/>
    </defs>
    <g>
     <use style="fill-opacity:0;stroke:#9acd32;stroke-linejoin:miter;stroke-width:1.5;" x="199.507783" xlink:href="#mb8b2084272" y="276.823185"/>
     <use style="fill-opacity:0;stroke:#9acd32;stroke-linejoin:miter;stroke-width:1.5;" x="257.979492" xlink:href="#mb8b2084272" y="232.581554"/>
     <use style="fill-opacity:0;stroke:#9acd32;stroke-linejoin:miter;stroke-width:1.5;" x="282.052394" xlink:href="#mb8b2084272" y="225.207949"/>
     <use style="fill-opacity:0;stroke:#9acd32;stroke-linejoin:miter;stroke-width:1.5;" x="282.052394" xlink:href="#mb8b2084272" y="225.207949"/>
     <use style="fill-opacity:0;stroke:#9acd32;stroke-linejoin:miter;stroke-width:1.5;" x="338.688" xlink:href="#mb8b2084272" y="225.207949"/>
    </g>
   </g>
   <g id="line2d_62">
    <path style="fill:none;stroke:#9acd32;stroke-linecap:square;stroke-width:1.5;"/>
    <g/>
   </g>
   <g id="line2d_63">
    <path clip-path="url(#p7ce830fad8)" d="M 218.221714 256.282427 
" style="fill:none;stroke:#9acd32;stroke-linecap:square;stroke-width:1.5;"/>
    <defs>
     <path d="M -12 12 
L 12 -12 
M -12 -12 
L 12 12 
" id="mdb41fab4c1" style="stroke:#9acd32;"/>
    </defs>
    <g clip-path="url(#p7ce830fad8)">
     <use style="fill:#9acd32;stroke:#9acd32;" x="218.221714" xlink:href="#mdb41fab4c1" y="256.282427"/>
    </g>
   </g>
   <g id="line2d_64">
    <defs>
     <path d="M 0 1.5 
C 0.397805 1.5 0.77937 1.341951 1.06066 1.06066 
C 1.341951 0.77937 1.5 0.397805 1.5 0 
C 1.5 -0.397805 1.341951 -0.77937 1.06066 -1.06066 
C 0.77937 -1.341951 0.397805 -1.5 0 -1.5 
C -0.397805 -1.5 -0.77937 -1.341951 -1.06066 -1.06066 
C -1.341951 -0.77937 -1.5 -0.397805 -1.5 0 
C -1.5 0.397805 -1.341951 0.77937 -1.06066 1.06066 
C -0.77937 1.341951 -0.397805 1.5 0 1.5 
z
" id="m65b2cf0a30" style="stroke:#00bfbf;"/>
    </defs>
    <g>
     <use style="fill:#00bfbf;stroke:#00bfbf;" x="263.849347" xlink:href="#m65b2cf0a30" y="241.008531"/>
     <use style="fill:#00bfbf;stroke:#00bfbf;" x="263.849347" xlink:href="#m65b2cf0a30" y="241.008531"/>
    </g>
   </g>
   <g id="line2d_65">
    <path d="M 125.470548 298.944 
L 125.470548 297.890628 
L 126.202373 297.890628 
L 126.304457 296.837256 
L 132.254495 296.837256 
L 132.254495 296.31057 
L 141.392962 296.31057 
L 141.392962 295.783884 
L 144.342484 295.783884 
L 144.342484 295.257197 
L 145.542453 295.257197 
L 145.542453 294.730511 
L 146.833235 294.730511 
L 146.833235 293.677139 
L 148.286932 293.677139 
L 148.286932 293.150453 
L 148.440161 293.150453 
L 148.440161 292.623767 
L 150.573489 292.623767 
L 150.573489 292.097081 
L 154.173993 292.097081 
L 154.173993 291.570395 
L 155.437927 291.570395 
L 155.437927 291.043709 
L 156.436501 291.043709 
L 156.436501 290.517023 
L 156.610446 290.517023 
L 156.610446 289.990337 
L 157.920731 289.990337 
L 157.920731 289.463651 
L 161.370386 289.463651 
L 161.370386 288.936964 
L 162.653039 288.936964 
L 162.653039 288.410278 
L 164.410075 288.410278 
L 164.410075 287.883592 
L 164.708966 287.883592 
L 164.708966 287.356906 
L 167.323672 287.356906 
L 167.323672 286.83022 
L 168.125111 286.83022 
L 168.125111 286.303534 
L 169.357261 286.303534 
L 169.357261 285.776848 
L 169.749363 285.776848 
L 169.749363 285.250162 
L 174.014959 285.250162 
L 174.014959 284.723476 
L 174.938273 284.723476 
L 174.938273 284.19679 
L 175.831017 284.19679 
L 175.831017 283.143418 
L 178.598693 283.143418 
L 178.598693 282.616732 
L 184.336767 282.616732 
L 184.336767 282.090045 
L 189.905746 282.090045 
L 189.905746 281.563359 
L 190.931907 281.563359 
L 190.961071 280.509987 
L 191.399264 280.509987 
L 191.399264 279.983301 
L 192.594655 279.983301 
L 192.594655 279.456615 
L 193.118145 279.456615 
L 193.118145 278.929929 
L 193.314201 278.929929 
L 193.383897 277.349871 
L 194.225479 277.349871 
L 194.225479 276.823185 
L 195.445273 276.823185 
L 195.445273 276.296499 
L 197.02652 276.296499 
L 197.02652 275.769812 
L 199.00751 275.769812 
L 199.00751 275.243126 
L 199.46898 275.243126 
L 199.46898 274.71644 
L 200.464334 274.71644 
L 200.464334 274.189754 
L 202.748009 274.189754 
L 202.807623 273.136382 
L 204.121826 273.136382 
L 204.121826 272.609696 
L 204.703857 272.609696 
L 204.703857 272.08301 
L 205.715081 272.08301 
L 205.715081 271.556324 
L 206.070831 271.556324 
L 206.070831 271.029638 
L 206.347265 271.029638 
L 206.347265 270.502952 
L 206.685406 270.502952 
L 206.763292 269.449579 
L 207.303536 269.449579 
L 207.303536 268.922893 
L 207.73329 268.922893 
L 207.73329 268.396207 
L 209.804482 268.396207 
L 209.804482 267.869521 
L 210.253881 267.869521 
L 210.293493 266.816149 
L 210.648429 266.816149 
L 210.648429 266.289463 
L 211.006839 266.289463 
L 211.006839 265.762777 
L 211.648476 265.762777 
L 211.648476 265.236091 
L 212.294556 265.236091 
L 212.294556 264.709405 
L 212.64717 264.709405 
L 212.64717 264.182719 
L 213.056934 264.182719 
L 213.138817 262.60266 
L 213.699675 262.60266 
L 213.780852 261.549288 
L 214.063139 261.549288 
L 214.063139 261.022602 
L 214.358567 261.022602 
L 214.358567 260.495916 
L 215.801902 260.495916 
L 215.801902 259.96923 
L 216.059247 259.96923 
L 216.059247 259.442544 
L 216.432678 259.442544 
L 216.432678 258.915858 
L 216.579112 258.915858 
L 216.579112 258.389172 
L 218.188024 258.389172 
L 218.188024 257.862486 
L 223.599792 257.862486 
L 223.599792 257.3358 
L 226.930972 257.3358 
L 226.930972 256.809114 
L 227.917817 256.809114 
L 227.917817 255.755741 
L 229.141733 255.755741 
L 229.19647 254.702369 
L 229.438116 254.702369 
L 229.438116 254.175683 
L 230.106225 254.175683 
L 230.106225 253.122311 
L 233.918889 253.122311 
L 233.918889 252.595625 
L 234.649337 252.595625 
L 234.649337 252.068939 
L 235.202455 252.068939 
L 235.202455 251.542253 
L 237.245335 251.542253 
L 237.245335 251.015567 
L 240.971844 251.015567 
L 240.971844 250.488881 
L 241.093909 250.488881 
L 241.093909 249.962195 
L 241.242723 249.962195 
L 241.25902 248.382136 
L 241.372302 248.382136 
L 241.372302 247.85545 
L 241.849956 247.85545 
L 241.849956 247.328764 
L 245.371381 247.328764 
L 245.371381 246.275392 
L 248.531215 246.275392 
L 248.531215 245.748706 
L 248.707293 245.748706 
L 248.707293 245.22202 
L 249.105473 245.22202 
L 249.105473 244.695334 
L 251.578454 244.695334 
L 251.578454 244.168648 
L 253.98052 244.168648 
L 253.98052 243.641962 
L 255.675944 243.641962 
L 255.675944 243.115275 
L 256.035831 243.115275 
L 256.035831 242.588589 
L 258.373777 242.588589 
L 258.373777 242.061903 
L 259.842092 242.061903 
L 259.842092 241.535217 
L 263.849347 241.535217 
L 263.849347 241.008531 
L 338.688 241.008531 
L 338.688 241.008531 
" style="fill:none;stroke:#00bfbf;stroke-linecap:square;stroke-width:1.5;"/>
   </g>
   <g id="line2d_66">
    <defs>
     <path d="M 0 -6 
L -5.706339 -1.854102 
L -3.526712 4.854102 
L 3.526712 4.854102 
L 5.706339 -1.854102 
z
" id="m9f6f825cae" style="stroke:#00bfbf;stroke-linejoin:miter;stroke-width:1.5;"/>
    </defs>
    <g>
     <use style="fill-opacity:0;stroke:#00bfbf;stroke-linejoin:miter;stroke-width:1.5;" x="175.831017" xlink:href="#m9f6f825cae" y="283.143418"/>
     <use style="fill-opacity:0;stroke:#00bfbf;stroke-linejoin:miter;stroke-width:1.5;" x="229.438116" xlink:href="#m9f6f825cae" y="254.702369"/>
     <use style="fill-opacity:0;stroke:#00bfbf;stroke-linejoin:miter;stroke-width:1.5;" x="263.849347" xlink:href="#m9f6f825cae" y="241.535217"/>
     <use style="fill-opacity:0;stroke:#00bfbf;stroke-linejoin:miter;stroke-width:1.5;" x="263.849347" xlink:href="#m9f6f825cae" y="241.008531"/>
     <use style="fill-opacity:0;stroke:#00bfbf;stroke-linejoin:miter;stroke-width:1.5;" x="338.688" xlink:href="#m9f6f825cae" y="241.008531"/>
    </g>
   </g>
   <g id="line2d_67">
    <path style="fill:none;stroke:#00bfbf;stroke-linecap:square;stroke-width:1.5;"/>
    <g/>
   </g>
   <g id="line2d_68">
    <path clip-path="url(#p7ce830fad8)" d="M 218.221714 257.862486 
" style="fill:none;stroke:#00bfbf;stroke-linecap:square;stroke-width:1.5;"/>
    <defs>
     <path d="M -12 12 
L 12 -12 
M -12 -12 
L 12 12 
" id="md2c2f137c2" style="stroke:#00bfbf;"/>
    </defs>
    <g clip-path="url(#p7ce830fad8)">
     <use style="fill:#00bfbf;stroke:#00bfbf;" x="218.221714" xlink:href="#md2c2f137c2" y="257.862486"/>
    </g>
   </g>
   <g id="line2d_69">
    <path d="M 338.688 272.609696 
L 369.60768 293.571802 
" style="fill:none;stroke:#6495ed;stroke-linecap:square;stroke-width:1.5;"/>
    <g>
     <use style="fill-opacity:0;stroke:#6495ed;stroke-linejoin:miter;stroke-width:1.5;" x="338.688" xlink:href="#m660d48ff7f" y="272.609696"/>
     <use style="fill-opacity:0;stroke:#6495ed;stroke-linejoin:miter;stroke-width:1.5;" x="369.60768" xlink:href="#m660d48ff7f" y="293.571802"/>
    </g>
   </g>
   <g id="line2d_70">
    <path d="M 338.688 262.075974 
L 369.60768 256.733873 
" style="fill:none;stroke:#ff0000;stroke-linecap:square;stroke-width:1.5;"/>
    <g>
     <use style="fill-opacity:0;stroke:#ff0000;stroke-linejoin:miter;stroke-width:1.5;" x="338.688" xlink:href="#m48c6efc39b" y="262.075974"/>
     <use style="fill-opacity:0;stroke:#ff0000;stroke-linejoin:miter;stroke-width:1.5;" x="369.60768" xlink:href="#m48c6efc39b" y="256.733873"/>
    </g>
   </g>
   <g id="line2d_71">
    <path d="M 338.688 262.075974 
L 369.60768 219.895943 
" style="fill:none;stroke:#ff7500;stroke-linecap:square;stroke-width:1.5;"/>
    <g>
     <use style="fill-opacity:0;stroke:#ff7500;stroke-linejoin:bevel;stroke-width:1.5;" x="338.688" xlink:href="#m800d0c158f" y="262.075974"/>
     <use style="fill-opacity:0;stroke:#ff7500;stroke-linejoin:bevel;stroke-width:1.5;" x="369.60768" xlink:href="#m800d0c158f" y="219.895943"/>
    </g>
   </g>
   <g id="line2d_72">
    <path d="M 338.688 262.075974 
L 369.60768 183.058014 
" style="fill:none;stroke:#ff00ff;stroke-linecap:square;stroke-width:1.5;"/>
    <g>
     <use style="fill-opacity:0;stroke:#ff00ff;stroke-linejoin:miter;stroke-width:1.5;" x="338.688" xlink:href="#m3ccd670418" y="262.075974"/>
     <use style="fill-opacity:0;stroke:#ff00ff;stroke-linejoin:miter;stroke-width:1.5;" x="369.60768" xlink:href="#m3ccd670418" y="183.058014"/>
    </g>
   </g>
   <g id="line2d_73">
    <path d="M 338.688 241.008531 
L 369.60768 146.220085 
" style="fill:none;stroke:#00bfbf;stroke-linecap:square;stroke-width:1.5;"/>
    <g>
     <use style="fill-opacity:0;stroke:#00bfbf;stroke-linejoin:miter;stroke-width:1.5;" x="338.688" xlink:href="#m9f6f825cae" y="241.008531"/>
     <use style="fill-opacity:0;stroke:#00bfbf;stroke-linejoin:miter;stroke-width:1.5;" x="369.60768" xlink:href="#m9f6f825cae" y="146.220085"/>
    </g>
   </g>
   <g id="line2d_74">
    <path d="M 338.688 235.74167 
L 369.60768 109.382156 
" style="fill:none;stroke:#000080;stroke-linecap:square;stroke-width:1.5;"/>
    <g>
     <use style="fill-opacity:0;stroke:#000080;stroke-width:1.5;" x="338.688" xlink:href="#medded1bad1" y="235.74167"/>
     <use style="fill-opacity:0;stroke:#000080;stroke-width:1.5;" x="369.60768" xlink:href="#medded1bad1" y="109.382156"/>
    </g>
   </g>
   <g id="line2d_75">
    <path d="M 338.688 225.207949 
L 369.60768 72.544226 
" style="fill:none;stroke:#9acd32;stroke-linecap:square;stroke-width:1.5;"/>
    <g>
     <use style="fill-opacity:0;stroke:#9acd32;stroke-linejoin:miter;stroke-width:1.5;" x="338.688" xlink:href="#mb8b2084272" y="225.207949"/>
     <use style="fill-opacity:0;stroke:#9acd32;stroke-linejoin:miter;stroke-width:1.5;" x="369.60768" xlink:href="#mb8b2084272" y="72.544226"/>
    </g>
   </g>
   <g id="line2d_76">
    <path d="M 338.688 298.944 
L 338.688 30.334099 
" style="fill:none;stroke:#000000;stroke-linecap:square;stroke-width:1.5;"/>
   </g>
   <g id="patch_3">
    <path d="M 57.6 298.944 
L 57.6 27.648 
" style="fill:none;stroke:#000000;stroke-linecap:square;stroke-linejoin:miter;stroke-width:0.8;"/>
   </g>
   <g id="patch_4">
    <path d="M 338.688 298.944 
L 338.688 27.648 
" style="fill:none;stroke:#000000;stroke-linecap:square;stroke-linejoin:miter;stroke-width:0.8;"/>
   </g>
   <g id="patch_5">
    <path d="M 57.6 298.944 
L 338.688 298.944 
" style="fill:none;stroke:#000000;stroke-linecap:square;stroke-linejoin:miter;stroke-width:0.8;"/>
   </g>
   <g id="patch_6">
    <path d="M 57.6 27.648 
L 338.688 27.648 
" style="fill:none;stroke:#000000;stroke-linecap:square;stroke-linejoin:miter;stroke-width:0.8;"/>
   </g>
   <g id="text_13">
    <!-- c1c2-2.98 -->
    <g transform="translate(375.22944 298.262739)scale(0.17 -0.17)">
     <defs>
      <path d="M 10.984375 1.515625 
L 10.984375 10.5 
Q 14.703125 8.734375 18.5 7.8125 
Q 22.3125 6.890625 25.984375 6.890625 
Q 35.75 6.890625 40.890625 13.453125 
Q 46.046875 20.015625 46.78125 33.40625 
Q 43.953125 29.203125 39.59375 26.953125 
Q 35.25 24.703125 29.984375 24.703125 
Q 19.046875 24.703125 12.671875 31.3125 
Q 6.296875 37.9375 6.296875 49.421875 
Q 6.296875 60.640625 12.9375 67.421875 
Q 19.578125 74.21875 30.609375 74.21875 
Q 43.265625 74.21875 49.921875 64.515625 
Q 56.59375 54.828125 56.59375 36.375 
Q 56.59375 19.140625 48.40625 8.859375 
Q 40.234375 -1.421875 26.421875 -1.421875 
Q 22.703125 -1.421875 18.890625 -0.6875 
Q 15.09375 0.046875 10.984375 1.515625 
z
M 30.609375 32.421875 
Q 37.25 32.421875 41.125 36.953125 
Q 45.015625 41.5 45.015625 49.421875 
Q 45.015625 57.28125 41.125 61.84375 
Q 37.25 66.40625 30.609375 66.40625 
Q 23.96875 66.40625 20.09375 61.84375 
Q 16.21875 57.28125 16.21875 49.421875 
Q 16.21875 41.5 20.09375 36.953125 
Q 23.96875 32.421875 30.609375 32.421875 
z
" id="DejaVuSans-57"/>
     </defs>
     <use xlink:href="#DejaVuSans-99"/>
     <use x="54.980469" xlink:href="#DejaVuSans-49"/>
     <use x="118.603516" xlink:href="#DejaVuSans-99"/>
     <use x="173.583984" xlink:href="#DejaVuSans-50"/>
     <use x="237.207031" xlink:href="#DejaVuSans-45"/>
     <use x="273.291016" xlink:href="#DejaVuSans-50"/>
     <use x="336.914062" xlink:href="#DejaVuSans-46"/>
     <use x="368.701172" xlink:href="#DejaVuSans-57"/>
     <use x="432.324219" xlink:href="#DejaVuSans-56"/>
    </g>
   </g>
   <g id="text_14">
    <!-- c1c2-0.74 -->
    <g transform="translate(375.22944 261.42481)scale(0.17 -0.17)">
     <defs>
      <path d="M 8.203125 72.90625 
L 55.078125 72.90625 
L 55.078125 68.703125 
L 28.609375 0 
L 18.3125 0 
L 43.21875 64.59375 
L 8.203125 64.59375 
z
" id="DejaVuSans-55"/>
     </defs>
     <use xlink:href="#DejaVuSans-99"/>
     <use x="54.980469" xlink:href="#DejaVuSans-49"/>
     <use x="118.603516" xlink:href="#DejaVuSans-99"/>
     <use x="173.583984" xlink:href="#DejaVuSans-50"/>
     <use x="237.207031" xlink:href="#DejaVuSans-45"/>
     <use x="273.291016" xlink:href="#DejaVuSans-48"/>
     <use x="336.914062" xlink:href="#DejaVuSans-46"/>
     <use x="368.701172" xlink:href="#DejaVuSans-55"/>
     <use x="432.324219" xlink:href="#DejaVuSans-52"/>
    </g>
   </g>
   <g id="text_15">
    <!-- c2-2.9888 -->
    <g transform="translate(375.22944 224.586881)scale(0.17 -0.17)">
     <use xlink:href="#DejaVuSans-99"/>
     <use x="54.980469" xlink:href="#DejaVuSans-50"/>
     <use x="118.603516" xlink:href="#DejaVuSans-45"/>
     <use x="154.6875" xlink:href="#DejaVuSans-50"/>
     <use x="218.310547" xlink:href="#DejaVuSans-46"/>
     <use x="250.097656" xlink:href="#DejaVuSans-57"/>
     <use x="313.720703" xlink:href="#DejaVuSans-56"/>
     <use x="377.34375" xlink:href="#DejaVuSans-56"/>
     <use x="440.966797" xlink:href="#DejaVuSans-56"/>
    </g>
   </g>
   <g id="text_16">
    <!-- c1-2.9888 -->
    <g transform="translate(375.22944 187.748952)scale(0.17 -0.17)">
     <use xlink:href="#DejaVuSans-99"/>
     <use x="54.980469" xlink:href="#DejaVuSans-49"/>
     <use x="118.603516" xlink:href="#DejaVuSans-45"/>
     <use x="154.6875" xlink:href="#DejaVuSans-50"/>
     <use x="218.310547" xlink:href="#DejaVuSans-46"/>
     <use x="250.097656" xlink:href="#DejaVuSans-57"/>
     <use x="313.720703" xlink:href="#DejaVuSans-56"/>
     <use x="377.34375" xlink:href="#DejaVuSans-56"/>
     <use x="440.966797" xlink:href="#DejaVuSans-56"/>
    </g>
   </g>
   <g id="text_17">
    <!-- c2-0.7472 -->
    <g transform="translate(375.22944 150.911022)scale(0.17 -0.17)">
     <use xlink:href="#DejaVuSans-99"/>
     <use x="54.980469" xlink:href="#DejaVuSans-50"/>
     <use x="118.603516" xlink:href="#DejaVuSans-45"/>
     <use x="154.6875" xlink:href="#DejaVuSans-48"/>
     <use x="218.310547" xlink:href="#DejaVuSans-46"/>
     <use x="250.097656" xlink:href="#DejaVuSans-55"/>
     <use x="313.720703" xlink:href="#DejaVuSans-52"/>
     <use x="377.34375" xlink:href="#DejaVuSans-55"/>
     <use x="440.966797" xlink:href="#DejaVuSans-50"/>
    </g>
   </g>
   <g id="text_18">
    <!-- c1c2-1.49 -->
    <g transform="translate(375.22944 114.073093)scale(0.17 -0.17)">
     <use xlink:href="#DejaVuSans-99"/>
     <use x="54.980469" xlink:href="#DejaVuSans-49"/>
     <use x="118.603516" xlink:href="#DejaVuSans-99"/>
     <use x="173.583984" xlink:href="#DejaVuSans-50"/>
     <use x="237.207031" xlink:href="#DejaVuSans-45"/>
     <use x="273.291016" xlink:href="#DejaVuSans-49"/>
     <use x="336.914062" xlink:href="#DejaVuSans-46"/>
     <use x="368.701172" xlink:href="#DejaVuSans-52"/>
     <use x="432.324219" xlink:href="#DejaVuSans-57"/>
    </g>
   </g>
   <g id="text_19">
    <!-- c1-0.7472 -->
    <g transform="translate(375.22944 77.235164)scale(0.17 -0.17)">
     <use xlink:href="#DejaVuSans-99"/>
     <use x="54.980469" xlink:href="#DejaVuSans-49"/>
     <use x="118.603516" xlink:href="#DejaVuSans-45"/>
     <use x="154.6875" xlink:href="#DejaVuSans-48"/>
     <use x="218.310547" xlink:href="#DejaVuSans-46"/>
     <use x="250.097656" xlink:href="#DejaVuSans-55"/>
     <use x="313.720703" xlink:href="#DejaVuSans-52"/>
     <use x="377.34375" xlink:href="#DejaVuSans-55"/>
     <use x="440.966797" xlink:href="#DejaVuSans-50"/>
    </g>
   </g>
   <g id="text_20">
    <!-- best 2009 -->
    <g transform="translate(375.22944 40.397235)scale(0.17 -0.17)">
     <defs>
      <path d="M 48.6875 27.296875 
Q 48.6875 37.203125 44.609375 42.84375 
Q 40.53125 48.484375 33.40625 48.484375 
Q 26.265625 48.484375 22.1875 42.84375 
Q 18.109375 37.203125 18.109375 27.296875 
Q 18.109375 17.390625 22.1875 11.75 
Q 26.265625 6.109375 33.40625 6.109375 
Q 40.53125 6.109375 44.609375 11.75 
Q 48.6875 17.390625 48.6875 27.296875 
z
M 18.109375 46.390625 
Q 20.953125 51.265625 25.265625 53.625 
Q 29.59375 56 35.59375 56 
Q 45.5625 56 51.78125 48.09375 
Q 58.015625 40.1875 58.015625 27.296875 
Q 58.015625 14.40625 51.78125 6.484375 
Q 45.5625 -1.421875 35.59375 -1.421875 
Q 29.59375 -1.421875 25.265625 0.953125 
Q 20.953125 3.328125 18.109375 8.203125 
L 18.109375 0 
L 9.078125 0 
L 9.078125 75.984375 
L 18.109375 75.984375 
z
" id="DejaVuSans-98"/>
     </defs>
     <use xlink:href="#DejaVuSans-98"/>
     <use x="63.476562" xlink:href="#DejaVuSans-101"/>
     <use x="125" xlink:href="#DejaVuSans-115"/>
     <use x="177.099609" xlink:href="#DejaVuSans-116"/>
     <use x="216.308594" xlink:href="#DejaVuSans-32"/>
     <use x="248.095703" xlink:href="#DejaVuSans-50"/>
     <use x="311.71875" xlink:href="#DejaVuSans-48"/>
     <use x="375.341797" xlink:href="#DejaVuSans-48"/>
     <use x="438.964844" xlink:href="#DejaVuSans-57"/>
    </g>
   </g>
   <g id="text_21">
    <!-- bbob f11, 10-D -->
    <g transform="translate(60.41088 38.111366)scale(0.102 -0.102)">
     <defs>
      <path d="M 19.671875 64.796875 
L 19.671875 8.109375 
L 31.59375 8.109375 
Q 46.6875 8.109375 53.6875 14.9375 
Q 60.6875 21.78125 60.6875 36.53125 
Q 60.6875 51.171875 53.6875 57.984375 
Q 46.6875 64.796875 31.59375 64.796875 
z
M 9.8125 72.90625 
L 30.078125 72.90625 
Q 51.265625 72.90625 61.171875 64.09375 
Q 71.09375 55.28125 71.09375 36.53125 
Q 71.09375 17.671875 61.125 8.828125 
Q 51.171875 0 30.078125 0 
L 9.8125 0 
z
" id="DejaVuSans-68"/>
     </defs>
     <use xlink:href="#DejaVuSans-98"/>
     <use x="63.476562" xlink:href="#DejaVuSans-98"/>
     <use x="126.953125" xlink:href="#DejaVuSans-111"/>
     <use x="188.134766" xlink:href="#DejaVuSans-98"/>
     <use x="251.611328" xlink:href="#DejaVuSans-32"/>
     <use x="283.398438" xlink:href="#DejaVuSans-102"/>
     <use x="318.603516" xlink:href="#DejaVuSans-49"/>
     <use x="382.226562" xlink:href="#DejaVuSans-49"/>
     <use x="445.849609" xlink:href="#DejaVuSans-44"/>
     <use x="477.636719" xlink:href="#DejaVuSans-32"/>
     <use x="509.423828" xlink:href="#DejaVuSans-49"/>
     <use x="573.046875" xlink:href="#DejaVuSans-48"/>
     <use x="636.669922" xlink:href="#DejaVuSans-45"/>
     <use x="672.753906" xlink:href="#DejaVuSans-68"/>
    </g>
    <!-- 51 targets: 100..1e-08 -->
    <g transform="translate(60.41088 49.533135)scale(0.102 -0.102)">
     <defs>
      <path d="M 10.796875 72.90625 
L 49.515625 72.90625 
L 49.515625 64.59375 
L 19.828125 64.59375 
L 19.828125 46.734375 
Q 21.96875 47.46875 24.109375 47.828125 
Q 26.265625 48.1875 28.421875 48.1875 
Q 40.625 48.1875 47.75 41.5 
Q 54.890625 34.8125 54.890625 23.390625 
Q 54.890625 11.625 47.5625 5.09375 
Q 40.234375 -1.421875 26.90625 -1.421875 
Q 22.3125 -1.421875 17.546875 -0.640625 
Q 12.796875 0.140625 7.71875 1.703125 
L 7.71875 11.625 
Q 12.109375 9.234375 16.796875 8.0625 
Q 21.484375 6.890625 26.703125 6.890625 
Q 35.15625 6.890625 40.078125 11.328125 
Q 45.015625 15.765625 45.015625 23.390625 
Q 45.015625 31 40.078125 35.4375 
Q 35.15625 39.890625 26.703125 39.890625 
Q 22.75 39.890625 18.8125 39.015625 
Q 14.890625 38.140625 10.796875 36.28125 
z
" id="DejaVuSans-53"/>
      <path d="M 11.71875 12.40625 
L 22.015625 12.40625 
L 22.015625 0 
L 11.71875 0 
z
M 11.71875 51.703125 
L 22.015625 51.703125 
L 22.015625 39.3125 
L 11.71875 39.3125 
z
" id="DejaVuSans-58"/>
     </defs>
     <use xlink:href="#DejaVuSans-53"/>
     <use x="63.623047" xlink:href="#DejaVuSans-49"/>
     <use x="127.246094" xlink:href="#DejaVuSans-32"/>
     <use x="159.033203" xlink:href="#DejaVuSans-116"/>
     <use x="198.242188" xlink:href="#DejaVuSans-97"/>
     <use x="259.521484" xlink:href="#DejaVuSans-114"/>
     <use x="298.884766" xlink:href="#DejaVuSans-103"/>
     <use x="362.361328" xlink:href="#DejaVuSans-101"/>
     <use x="423.884766" xlink:href="#DejaVuSans-116"/>
     <use x="463.09375" xlink:href="#DejaVuSans-115"/>
     <use x="515.193359" xlink:href="#DejaVuSans-58"/>
     <use x="548.884766" xlink:href="#DejaVuSans-32"/>
     <use x="580.671875" xlink:href="#DejaVuSans-49"/>
     <use x="644.294922" xlink:href="#DejaVuSans-48"/>
     <use x="707.917969" xlink:href="#DejaVuSans-48"/>
     <use x="771.541016" xlink:href="#DejaVuSans-46"/>
     <use x="803.328125" xlink:href="#DejaVuSans-46"/>
     <use x="835.115234" xlink:href="#DejaVuSans-49"/>
     <use x="898.738281" xlink:href="#DejaVuSans-101"/>
     <use x="960.261719" xlink:href="#DejaVuSans-45"/>
     <use x="996.345703" xlink:href="#DejaVuSans-48"/>
     <use x="1059.96875" xlink:href="#DejaVuSans-56"/>
    </g>
    <!-- 15 instances -->
    <g transform="translate(60.41088 60.954904)scale(0.102 -0.102)">
     <use xlink:href="#DejaVuSans-49"/>
     <use x="63.623047" xlink:href="#DejaVuSans-53"/>
     <use x="127.246094" xlink:href="#DejaVuSans-32"/>
     <use x="159.033203" xlink:href="#DejaVuSans-105"/>
     <use x="186.816406" xlink:href="#DejaVuSans-110"/>
     <use x="250.195312" xlink:href="#DejaVuSans-115"/>
     <use x="302.294922" xlink:href="#DejaVuSans-116"/>
     <use x="341.503906" xlink:href="#DejaVuSans-97"/>
     <use x="402.783203" xlink:href="#DejaVuSans-110"/>
     <use x="466.162109" xlink:href="#DejaVuSans-99"/>
     <use x="521.142578" xlink:href="#DejaVuSans-101"/>
     <use x="582.666016" xlink:href="#DejaVuSans-115"/>
    </g>
   </g>
   <g id="text_22">
    <!-- v2.4 -->
    <g style="fill:#808080;" transform="translate(187.233062 294.151352)scale(0.1 -0.1)">
     <use xlink:href="#DejaVuSans-118"/>
     <use x="59.179688" xlink:href="#DejaVuSans-50"/>
     <use x="122.802734" xlink:href="#DejaVuSans-46"/>
     <use x="154.589844" xlink:href="#DejaVuSans-52"/>
    </g>
   </g>
   <g id="text_23">
    <!-- 11 Discus -->
    <g transform="translate(149.508062 21.648)scale(0.2 -0.2)">
     <use xlink:href="#DejaVuSans-49"/>
     <use x="63.623047" xlink:href="#DejaVuSans-49"/>
     <use x="127.246094" xlink:href="#DejaVuSans-32"/>
     <use x="159.033203" xlink:href="#DejaVuSans-68"/>
     <use x="236.035156" xlink:href="#DejaVuSans-105"/>
     <use x="263.818359" xlink:href="#DejaVuSans-115"/>
     <use x="315.917969" xlink:href="#DejaVuSans-99"/>
     <use x="370.898438" xlink:href="#DejaVuSans-117"/>
     <use x="434.277344" xlink:href="#DejaVuSans-115"/>
    </g>
   </g>
  </g>
 </g>
 <defs>
  <clipPath id="p7ce830fad8">
   <rect height="271.296" width="281.088" x="57.6" y="27.648"/>
  </clipPath>
 </defs>
</svg>
