<?xml version="1.0" encoding="utf-8" standalone="no"?>
<!DOCTYPE svg PUBLIC "-//W3C//DTD SVG 1.1//EN"
  "http://www.w3.org/Graphics/SVG/1.1/DTD/svg11.dtd">
<!-- Created with matplotlib (https://matplotlib.org/) -->
<svg height="345.6pt" version="1.1" viewBox="0 0 460.8 345.6" width="460.8pt" xmlns="http://www.w3.org/2000/svg" xmlns:xlink="http://www.w3.org/1999/xlink">
 <metadata>
  <rdf:RDF xmlns:cc="http://creativecommons.org/ns#" xmlns:dc="http://purl.org/dc/elements/1.1/" xmlns:rdf="http://www.w3.org/1999/02/22-rdf-syntax-ns#">
   <cc:Work>
    <dc:type rdf:resource="http://purl.org/dc/dcmitype/StillImage"/>
    <dc:date>2021-04-19T06:07:49.086313</dc:date>
    <dc:format>image/svg+xml</dc:format>
    <dc:creator>
     <cc:Agent>
      <dc:title>Matplotlib v3.3.4, https://matplotlib.org/</dc:title>
     </cc:Agent>
    </dc:creator>
   </cc:Work>
  </rdf:RDF>
 </metadata>
 <defs>
  <style type="text/css">*{stroke-linecap:butt;stroke-linejoin:round;}</style>
 </defs>
 <g id="figure_1">
  <g id="patch_1">
   <path d="M 0 345.6 
L 460.8 345.6 
L 460.8 0 
L 0 0 
z
" style="fill:#ffffff;"/>
  </g>
  <g id="axes_1">
   <g id="patch_2">
    <path d="M 57.6 298.944 
L 338.688 298.944 
L 338.688 27.648 
L 57.6 27.648 
z
" style="fill:#ffffff;"/>
   </g>
   <g id="line2d_1">
    <path d="M 119.199476 298.944 
L 119.199476 293.677139 
L 121.84399 293.677139 
L 121.84399 288.410278 
L 124.444412 288.410278 
L 124.444412 283.143418 
L 128.827155 283.143418 
L 128.827155 277.876557 
L 129.79784 277.876557 
L 129.79784 272.609696 
L 131.640805 272.609696 
L 131.640805 267.342835 
L 134.492498 267.342835 
L 134.492498 262.075974 
L 135.482227 262.075974 
L 135.482227 256.809114 
L 136.79465 256.809114 
L 136.79465 251.542253 
L 137.52291 251.542253 
L 137.52291 246.275392 
L 137.910857 246.275392 
L 137.910857 241.008531 
L 138.358484 241.008531 
L 138.358484 235.74167 
L 138.628343 235.74167 
L 138.628343 230.47481 
L 139.541262 230.47481 
L 139.541262 225.207949 
L 140.165274 225.207949 
L 140.165274 219.941088 
L 140.317849 219.941088 
L 140.317849 214.674227 
L 140.408758 214.674227 
L 140.408758 209.407366 
L 140.589166 209.407366 
L 140.589166 204.140506 
L 140.678675 204.140506 
L 140.678675 198.873645 
L 141.061324 198.873645 
L 141.061324 193.606784 
L 141.292695 193.606784 
L 141.292695 188.339923 
L 141.407239 188.339923 
L 141.407239 183.073062 
L 141.521035 183.073062 
L 141.521035 177.806202 
L 141.605898 177.806202 
L 141.605898 172.539341 
L 141.69035 172.539341 
L 141.69035 167.27248 
L 141.830201 167.27248 
L 141.830201 162.005619 
L 141.941279 162.005619 
L 141.941279 156.738758 
L 142.024126 156.738758 
L 142.024126 151.471897 
L 142.133981 151.471897 
L 142.133981 146.205037 
L 142.297475 146.205037 
L 142.297475 140.938176 
L 142.378651 140.938176 
L 142.378651 135.671315 
L 142.51311 135.671315 
L 142.51311 130.404454 
L 142.619936 130.404454 
L 142.619936 125.137593 
L 144.050606 125.137593 
L 144.050606 119.870733 
L 144.099593 119.870733 
L 144.099593 114.603872 
L 146.728368 114.603872 
L 146.728368 109.337011 
L 146.854132 109.337011 
L 146.854132 104.07015 
L 146.937474 104.07015 
L 146.937474 98.803289 
L 147.041095 98.803289 
L 147.041095 93.536429 
L 147.12355 93.536429 
L 147.12355 88.269568 
L 147.226074 88.269568 
L 147.226074 83.002707 
L 147.327999 83.002707 
L 147.327999 77.735846 
L 147.449528 77.735846 
L 147.449528 72.468985 
L 147.590249 72.468985 
L 147.590249 67.202125 
L 147.690073 67.202125 
L 147.690073 61.935264 
L 147.769524 61.935264 
L 147.769524 56.668403 
L 147.86833 56.668403 
L 147.86833 51.401542 
L 147.946974 51.401542 
L 147.946974 46.134681 
L 148.064279 46.134681 
L 148.064279 40.867821 
L 148.103206 40.867821 
L 148.103206 35.60096 
L 148.200145 35.60096 
L 148.200145 30.334099 
L 338.688 30.334099 
" style="fill:none;stroke:#f5deb3;stroke-linecap:square;stroke-width:4;"/>
   </g>
   <g id="line2d_2">
    <defs>
     <path d="M -0 7.778175 
L 7.778175 0 
L 0 -7.778175 
L -7.778175 -0 
z
" id="m0c474fc54b" style="stroke:#f5deb3;stroke-linejoin:miter;stroke-width:1.5;"/>
    </defs>
    <g>
     <use style="fill:#f5deb3;stroke:#f5deb3;stroke-linejoin:miter;stroke-width:1.5;" x="140.165274" xlink:href="#m0c474fc54b" y="225.207949"/>
     <use style="fill:#f5deb3;stroke:#f5deb3;stroke-linejoin:miter;stroke-width:1.5;" x="147.041095" xlink:href="#m0c474fc54b" y="93.536429"/>
     <use style="fill:#f5deb3;stroke:#f5deb3;stroke-linejoin:miter;stroke-width:1.5;" x="148.200145" xlink:href="#m0c474fc54b" y="30.334099"/>
     <use style="fill:#f5deb3;stroke:#f5deb3;stroke-linejoin:miter;stroke-width:1.5;" x="148.200145" xlink:href="#m0c474fc54b" y="30.334099"/>
     <use style="fill:#f5deb3;stroke:#f5deb3;stroke-linejoin:miter;stroke-width:1.5;" x="338.688" xlink:href="#m0c474fc54b" y="30.334099"/>
    </g>
   </g>
   <g id="line2d_3">
    <path style="fill:none;stroke:#f5deb3;stroke-linecap:square;stroke-width:4;"/>
    <g/>
   </g>
   <g id="line2d_4">
    <path d="M 338.688 30.334099 
L 369.60768 35.706297 
" style="fill:none;stroke:#f5deb3;stroke-linecap:square;stroke-width:4;"/>
    <g>
     <use style="fill:#f5deb3;stroke:#f5deb3;stroke-linejoin:miter;stroke-width:1.5;" x="338.688" xlink:href="#m0c474fc54b" y="30.334099"/>
     <use style="fill:#f5deb3;stroke:#f5deb3;stroke-linejoin:miter;stroke-width:1.5;" x="369.60768" xlink:href="#m0c474fc54b" y="35.706297"/>
    </g>
   </g>
   <g id="matplotlib.axis_1">
    <g id="xtick_1">
     <g id="line2d_5">
      <path clip-path="url(#pf742a12d38)" d="M 57.6 298.944 
L 57.6 27.648 
" style="fill:none;stroke:#b0b0b0;stroke-linecap:square;stroke-width:0.8;"/>
     </g>
     <g id="line2d_6">
      <defs>
       <path d="M 0 0 
L 0 3.5 
" id="m58e3b6e5eb" style="stroke:#000000;stroke-width:0.8;"/>
      </defs>
      <g>
       <use style="stroke:#000000;stroke-width:0.8;" x="57.6" xlink:href="#m58e3b6e5eb" y="298.944"/>
      </g>
     </g>
     <g id="text_1">
      <!-- 0 -->
      <g transform="translate(51.2375 321.140875)scale(0.2 -0.2)">
       <defs>
        <path d="M 31.78125 66.40625 
Q 24.171875 66.40625 20.328125 58.90625 
Q 16.5 51.421875 16.5 36.375 
Q 16.5 21.390625 20.328125 13.890625 
Q 24.171875 6.390625 31.78125 6.390625 
Q 39.453125 6.390625 43.28125 13.890625 
Q 47.125 21.390625 47.125 36.375 
Q 47.125 51.421875 43.28125 58.90625 
Q 39.453125 66.40625 31.78125 66.40625 
z
M 31.78125 74.21875 
Q 44.046875 74.21875 50.515625 64.515625 
Q 56.984375 54.828125 56.984375 36.375 
Q 56.984375 17.96875 50.515625 8.265625 
Q 44.046875 -1.421875 31.78125 -1.421875 
Q 19.53125 -1.421875 13.0625 8.265625 
Q 6.59375 17.96875 6.59375 36.375 
Q 6.59375 54.828125 13.0625 64.515625 
Q 19.53125 74.21875 31.78125 74.21875 
z
" id="DejaVuSans-48"/>
       </defs>
       <use xlink:href="#DejaVuSans-48"/>
      </g>
     </g>
    </g>
    <g id="xtick_2">
     <g id="line2d_7">
      <path clip-path="url(#pf742a12d38)" d="M 137.910857 298.944 
L 137.910857 27.648 
" style="fill:none;stroke:#b0b0b0;stroke-linecap:square;stroke-width:0.8;"/>
     </g>
     <g id="line2d_8">
      <g>
       <use style="stroke:#000000;stroke-width:0.8;" x="137.910857" xlink:href="#m58e3b6e5eb" y="298.944"/>
      </g>
     </g>
     <g id="text_2">
      <!-- 2 -->
      <g transform="translate(131.548357 321.140875)scale(0.2 -0.2)">
       <defs>
        <path d="M 19.1875 8.296875 
L 53.609375 8.296875 
L 53.609375 0 
L 7.328125 0 
L 7.328125 8.296875 
Q 12.9375 14.109375 22.625 23.890625 
Q 32.328125 33.6875 34.8125 36.53125 
Q 39.546875 41.84375 41.421875 45.53125 
Q 43.3125 49.21875 43.3125 52.78125 
Q 43.3125 58.59375 39.234375 62.25 
Q 35.15625 65.921875 28.609375 65.921875 
Q 23.96875 65.921875 18.8125 64.3125 
Q 13.671875 62.703125 7.8125 59.421875 
L 7.8125 69.390625 
Q 13.765625 71.78125 18.9375 73 
Q 24.125 74.21875 28.421875 74.21875 
Q 39.75 74.21875 46.484375 68.546875 
Q 53.21875 62.890625 53.21875 53.421875 
Q 53.21875 48.921875 51.53125 44.890625 
Q 49.859375 40.875 45.40625 35.40625 
Q 44.1875 33.984375 37.640625 27.21875 
Q 31.109375 20.453125 19.1875 8.296875 
z
" id="DejaVuSans-50"/>
       </defs>
       <use xlink:href="#DejaVuSans-50"/>
      </g>
     </g>
    </g>
    <g id="xtick_3">
     <g id="line2d_9">
      <path clip-path="url(#pf742a12d38)" d="M 218.221714 298.944 
L 218.221714 27.648 
" style="fill:none;stroke:#b0b0b0;stroke-linecap:square;stroke-width:0.8;"/>
     </g>
     <g id="line2d_10">
      <g>
       <use style="stroke:#000000;stroke-width:0.8;" x="218.221714" xlink:href="#m58e3b6e5eb" y="298.944"/>
      </g>
     </g>
     <g id="text_3">
      <!-- 4 -->
      <g transform="translate(211.859214 321.140875)scale(0.2 -0.2)">
       <defs>
        <path d="M 37.796875 64.3125 
L 12.890625 25.390625 
L 37.796875 25.390625 
z
M 35.203125 72.90625 
L 47.609375 72.90625 
L 47.609375 25.390625 
L 58.015625 25.390625 
L 58.015625 17.1875 
L 47.609375 17.1875 
L 47.609375 0 
L 37.796875 0 
L 37.796875 17.1875 
L 4.890625 17.1875 
L 4.890625 26.703125 
z
" id="DejaVuSans-52"/>
       </defs>
       <use xlink:href="#DejaVuSans-52"/>
      </g>
     </g>
    </g>
    <g id="xtick_4">
     <g id="line2d_11">
      <path clip-path="url(#pf742a12d38)" d="M 298.532571 298.944 
L 298.532571 27.648 
" style="fill:none;stroke:#b0b0b0;stroke-linecap:square;stroke-width:0.8;"/>
     </g>
     <g id="line2d_12">
      <g>
       <use style="stroke:#000000;stroke-width:0.8;" x="298.532571" xlink:href="#m58e3b6e5eb" y="298.944"/>
      </g>
     </g>
     <g id="text_4">
      <!-- 6 -->
      <g transform="translate(292.170071 321.140875)scale(0.2 -0.2)">
       <defs>
        <path d="M 33.015625 40.375 
Q 26.375 40.375 22.484375 35.828125 
Q 18.609375 31.296875 18.609375 23.390625 
Q 18.609375 15.53125 22.484375 10.953125 
Q 26.375 6.390625 33.015625 6.390625 
Q 39.65625 6.390625 43.53125 10.953125 
Q 47.40625 15.53125 47.40625 23.390625 
Q 47.40625 31.296875 43.53125 35.828125 
Q 39.65625 40.375 33.015625 40.375 
z
M 52.59375 71.296875 
L 52.59375 62.3125 
Q 48.875 64.0625 45.09375 64.984375 
Q 41.3125 65.921875 37.59375 65.921875 
Q 27.828125 65.921875 22.671875 59.328125 
Q 17.53125 52.734375 16.796875 39.40625 
Q 19.671875 43.65625 24.015625 45.921875 
Q 28.375 48.1875 33.59375 48.1875 
Q 44.578125 48.1875 50.953125 41.515625 
Q 57.328125 34.859375 57.328125 23.390625 
Q 57.328125 12.15625 50.6875 5.359375 
Q 44.046875 -1.421875 33.015625 -1.421875 
Q 20.359375 -1.421875 13.671875 8.265625 
Q 6.984375 17.96875 6.984375 36.375 
Q 6.984375 53.65625 15.1875 63.9375 
Q 23.390625 74.21875 37.203125 74.21875 
Q 40.921875 74.21875 44.703125 73.484375 
Q 48.484375 72.75 52.59375 71.296875 
z
" id="DejaVuSans-54"/>
       </defs>
       <use xlink:href="#DejaVuSans-54"/>
      </g>
     </g>
    </g>
    <g id="xtick_5">
     <g id="line2d_13">
      <path clip-path="url(#pf742a12d38)" d="M 97.755429 298.944 
L 97.755429 27.648 
" style="fill:none;stroke:#b0b0b0;stroke-linecap:square;stroke-width:0.8;"/>
     </g>
     <g id="line2d_14">
      <defs>
       <path d="M 0 0 
L 0 2 
" id="me045f80bc2" style="stroke:#000000;stroke-width:0.6;"/>
      </defs>
      <g>
       <use style="stroke:#000000;stroke-width:0.6;" x="97.755429" xlink:href="#me045f80bc2" y="298.944"/>
      </g>
     </g>
    </g>
    <g id="xtick_6">
     <g id="line2d_15">
      <path clip-path="url(#pf742a12d38)" d="M 178.066286 298.944 
L 178.066286 27.648 
" style="fill:none;stroke:#b0b0b0;stroke-linecap:square;stroke-width:0.8;"/>
     </g>
     <g id="line2d_16">
      <g>
       <use style="stroke:#000000;stroke-width:0.6;" x="178.066286" xlink:href="#me045f80bc2" y="298.944"/>
      </g>
     </g>
    </g>
    <g id="xtick_7">
     <g id="line2d_17">
      <path clip-path="url(#pf742a12d38)" d="M 258.377143 298.944 
L 258.377143 27.648 
" style="fill:none;stroke:#b0b0b0;stroke-linecap:square;stroke-width:0.8;"/>
     </g>
     <g id="line2d_18">
      <g>
       <use style="stroke:#000000;stroke-width:0.6;" x="258.377143" xlink:href="#me045f80bc2" y="298.944"/>
      </g>
     </g>
    </g>
    <g id="xtick_8">
     <g id="line2d_19">
      <path clip-path="url(#pf742a12d38)" d="M 338.688 298.944 
L 338.688 27.648 
" style="fill:none;stroke:#b0b0b0;stroke-linecap:square;stroke-width:0.8;"/>
     </g>
     <g id="line2d_20">
      <g>
       <use style="stroke:#000000;stroke-width:0.6;" x="338.688" xlink:href="#me045f80bc2" y="298.944"/>
      </g>
     </g>
    </g>
    <g id="text_5">
     <!-- log10(# f-evals / dimension) -->
     <g transform="translate(77.764078 342.217594)scale(0.17 -0.17)">
      <defs>
       <path d="M 9.421875 75.984375 
L 18.40625 75.984375 
L 18.40625 0 
L 9.421875 0 
z
" id="DejaVuSans-108"/>
       <path d="M 30.609375 48.390625 
Q 23.390625 48.390625 19.1875 42.75 
Q 14.984375 37.109375 14.984375 27.296875 
Q 14.984375 17.484375 19.15625 11.84375 
Q 23.34375 6.203125 30.609375 6.203125 
Q 37.796875 6.203125 41.984375 11.859375 
Q 46.1875 17.53125 46.1875 27.296875 
Q 46.1875 37.015625 41.984375 42.703125 
Q 37.796875 48.390625 30.609375 48.390625 
z
M 30.609375 56 
Q 42.328125 56 49.015625 48.375 
Q 55.71875 40.765625 55.71875 27.296875 
Q 55.71875 13.875 49.015625 6.21875 
Q 42.328125 -1.421875 30.609375 -1.421875 
Q 18.84375 -1.421875 12.171875 6.21875 
Q 5.515625 13.875 5.515625 27.296875 
Q 5.515625 40.765625 12.171875 48.375 
Q 18.84375 56 30.609375 56 
z
" id="DejaVuSans-111"/>
       <path d="M 45.40625 27.984375 
Q 45.40625 37.75 41.375 43.109375 
Q 37.359375 48.484375 30.078125 48.484375 
Q 22.859375 48.484375 18.828125 43.109375 
Q 14.796875 37.75 14.796875 27.984375 
Q 14.796875 18.265625 18.828125 12.890625 
Q 22.859375 7.515625 30.078125 7.515625 
Q 37.359375 7.515625 41.375 12.890625 
Q 45.40625 18.265625 45.40625 27.984375 
z
M 54.390625 6.78125 
Q 54.390625 -7.171875 48.1875 -13.984375 
Q 42 -20.796875 29.203125 -20.796875 
Q 24.46875 -20.796875 20.265625 -20.09375 
Q 16.0625 -19.390625 12.109375 -17.921875 
L 12.109375 -9.1875 
Q 16.0625 -11.328125 19.921875 -12.34375 
Q 23.78125 -13.375 27.78125 -13.375 
Q 36.625 -13.375 41.015625 -8.765625 
Q 45.40625 -4.15625 45.40625 5.171875 
L 45.40625 9.625 
Q 42.625 4.78125 38.28125 2.390625 
Q 33.9375 0 27.875 0 
Q 17.828125 0 11.671875 7.65625 
Q 5.515625 15.328125 5.515625 27.984375 
Q 5.515625 40.671875 11.671875 48.328125 
Q 17.828125 56 27.875 56 
Q 33.9375 56 38.28125 53.609375 
Q 42.625 51.21875 45.40625 46.390625 
L 45.40625 54.6875 
L 54.390625 54.6875 
z
" id="DejaVuSans-103"/>
       <path d="M 12.40625 8.296875 
L 28.515625 8.296875 
L 28.515625 63.921875 
L 10.984375 60.40625 
L 10.984375 69.390625 
L 28.421875 72.90625 
L 38.28125 72.90625 
L 38.28125 8.296875 
L 54.390625 8.296875 
L 54.390625 0 
L 12.40625 0 
z
" id="DejaVuSans-49"/>
       <path d="M 31 75.875 
Q 24.46875 64.65625 21.28125 53.65625 
Q 18.109375 42.671875 18.109375 31.390625 
Q 18.109375 20.125 21.3125 9.0625 
Q 24.515625 -2 31 -13.1875 
L 23.1875 -13.1875 
Q 15.875 -1.703125 12.234375 9.375 
Q 8.59375 20.453125 8.59375 31.390625 
Q 8.59375 42.28125 12.203125 53.3125 
Q 15.828125 64.359375 23.1875 75.875 
z
" id="DejaVuSans-40"/>
       <path d="M 51.125 44 
L 36.921875 44 
L 32.8125 27.6875 
L 47.125 27.6875 
z
M 43.796875 71.78125 
L 38.71875 51.515625 
L 52.984375 51.515625 
L 58.109375 71.78125 
L 65.921875 71.78125 
L 60.890625 51.515625 
L 76.125 51.515625 
L 76.125 44 
L 58.984375 44 
L 54.984375 27.6875 
L 70.515625 27.6875 
L 70.515625 20.21875 
L 53.078125 20.21875 
L 48 0 
L 40.1875 0 
L 45.21875 20.21875 
L 30.90625 20.21875 
L 25.875 0 
L 18.015625 0 
L 23.09375 20.21875 
L 7.71875 20.21875 
L 7.71875 27.6875 
L 24.90625 27.6875 
L 29 44 
L 13.28125 44 
L 13.28125 51.515625 
L 30.90625 51.515625 
L 35.890625 71.78125 
z
" id="DejaVuSans-35"/>
       <path id="DejaVuSans-32"/>
       <path d="M 37.109375 75.984375 
L 37.109375 68.5 
L 28.515625 68.5 
Q 23.6875 68.5 21.796875 66.546875 
Q 19.921875 64.59375 19.921875 59.515625 
L 19.921875 54.6875 
L 34.71875 54.6875 
L 34.71875 47.703125 
L 19.921875 47.703125 
L 19.921875 0 
L 10.890625 0 
L 10.890625 47.703125 
L 2.296875 47.703125 
L 2.296875 54.6875 
L 10.890625 54.6875 
L 10.890625 58.5 
Q 10.890625 67.625 15.140625 71.796875 
Q 19.390625 75.984375 28.609375 75.984375 
z
" id="DejaVuSans-102"/>
       <path d="M 4.890625 31.390625 
L 31.203125 31.390625 
L 31.203125 23.390625 
L 4.890625 23.390625 
z
" id="DejaVuSans-45"/>
       <path d="M 56.203125 29.59375 
L 56.203125 25.203125 
L 14.890625 25.203125 
Q 15.484375 15.921875 20.484375 11.0625 
Q 25.484375 6.203125 34.421875 6.203125 
Q 39.59375 6.203125 44.453125 7.46875 
Q 49.3125 8.734375 54.109375 11.28125 
L 54.109375 2.78125 
Q 49.265625 0.734375 44.1875 -0.34375 
Q 39.109375 -1.421875 33.890625 -1.421875 
Q 20.796875 -1.421875 13.15625 6.1875 
Q 5.515625 13.8125 5.515625 26.8125 
Q 5.515625 40.234375 12.765625 48.109375 
Q 20.015625 56 32.328125 56 
Q 43.359375 56 49.78125 48.890625 
Q 56.203125 41.796875 56.203125 29.59375 
z
M 47.21875 32.234375 
Q 47.125 39.59375 43.09375 43.984375 
Q 39.0625 48.390625 32.421875 48.390625 
Q 24.90625 48.390625 20.390625 44.140625 
Q 15.875 39.890625 15.1875 32.171875 
z
" id="DejaVuSans-101"/>
       <path d="M 2.984375 54.6875 
L 12.5 54.6875 
L 29.59375 8.796875 
L 46.6875 54.6875 
L 56.203125 54.6875 
L 35.6875 0 
L 23.484375 0 
z
" id="DejaVuSans-118"/>
       <path d="M 34.28125 27.484375 
Q 23.390625 27.484375 19.1875 25 
Q 14.984375 22.515625 14.984375 16.5 
Q 14.984375 11.71875 18.140625 8.90625 
Q 21.296875 6.109375 26.703125 6.109375 
Q 34.1875 6.109375 38.703125 11.40625 
Q 43.21875 16.703125 43.21875 25.484375 
L 43.21875 27.484375 
z
M 52.203125 31.203125 
L 52.203125 0 
L 43.21875 0 
L 43.21875 8.296875 
Q 40.140625 3.328125 35.546875 0.953125 
Q 30.953125 -1.421875 24.3125 -1.421875 
Q 15.921875 -1.421875 10.953125 3.296875 
Q 6 8.015625 6 15.921875 
Q 6 25.140625 12.171875 29.828125 
Q 18.359375 34.515625 30.609375 34.515625 
L 43.21875 34.515625 
L 43.21875 35.40625 
Q 43.21875 41.609375 39.140625 45 
Q 35.0625 48.390625 27.6875 48.390625 
Q 23 48.390625 18.546875 47.265625 
Q 14.109375 46.140625 10.015625 43.890625 
L 10.015625 52.203125 
Q 14.9375 54.109375 19.578125 55.046875 
Q 24.21875 56 28.609375 56 
Q 40.484375 56 46.34375 49.84375 
Q 52.203125 43.703125 52.203125 31.203125 
z
" id="DejaVuSans-97"/>
       <path d="M 44.28125 53.078125 
L 44.28125 44.578125 
Q 40.484375 46.53125 36.375 47.5 
Q 32.28125 48.484375 27.875 48.484375 
Q 21.1875 48.484375 17.84375 46.4375 
Q 14.5 44.390625 14.5 40.28125 
Q 14.5 37.15625 16.890625 35.375 
Q 19.28125 33.59375 26.515625 31.984375 
L 29.59375 31.296875 
Q 39.15625 29.25 43.1875 25.515625 
Q 47.21875 21.78125 47.21875 15.09375 
Q 47.21875 7.46875 41.1875 3.015625 
Q 35.15625 -1.421875 24.609375 -1.421875 
Q 20.21875 -1.421875 15.453125 -0.5625 
Q 10.6875 0.296875 5.421875 2 
L 5.421875 11.28125 
Q 10.40625 8.6875 15.234375 7.390625 
Q 20.0625 6.109375 24.8125 6.109375 
Q 31.15625 6.109375 34.5625 8.28125 
Q 37.984375 10.453125 37.984375 14.40625 
Q 37.984375 18.0625 35.515625 20.015625 
Q 33.0625 21.96875 24.703125 23.78125 
L 21.578125 24.515625 
Q 13.234375 26.265625 9.515625 29.90625 
Q 5.8125 33.546875 5.8125 39.890625 
Q 5.8125 47.609375 11.28125 51.796875 
Q 16.75 56 26.8125 56 
Q 31.78125 56 36.171875 55.265625 
Q 40.578125 54.546875 44.28125 53.078125 
z
" id="DejaVuSans-115"/>
       <path d="M 25.390625 72.90625 
L 33.6875 72.90625 
L 8.296875 -9.28125 
L 0 -9.28125 
z
" id="DejaVuSans-47"/>
       <path d="M 45.40625 46.390625 
L 45.40625 75.984375 
L 54.390625 75.984375 
L 54.390625 0 
L 45.40625 0 
L 45.40625 8.203125 
Q 42.578125 3.328125 38.25 0.953125 
Q 33.9375 -1.421875 27.875 -1.421875 
Q 17.96875 -1.421875 11.734375 6.484375 
Q 5.515625 14.40625 5.515625 27.296875 
Q 5.515625 40.1875 11.734375 48.09375 
Q 17.96875 56 27.875 56 
Q 33.9375 56 38.25 53.625 
Q 42.578125 51.265625 45.40625 46.390625 
z
M 14.796875 27.296875 
Q 14.796875 17.390625 18.875 11.75 
Q 22.953125 6.109375 30.078125 6.109375 
Q 37.203125 6.109375 41.296875 11.75 
Q 45.40625 17.390625 45.40625 27.296875 
Q 45.40625 37.203125 41.296875 42.84375 
Q 37.203125 48.484375 30.078125 48.484375 
Q 22.953125 48.484375 18.875 42.84375 
Q 14.796875 37.203125 14.796875 27.296875 
z
" id="DejaVuSans-100"/>
       <path d="M 9.421875 54.6875 
L 18.40625 54.6875 
L 18.40625 0 
L 9.421875 0 
z
M 9.421875 75.984375 
L 18.40625 75.984375 
L 18.40625 64.59375 
L 9.421875 64.59375 
z
" id="DejaVuSans-105"/>
       <path d="M 52 44.1875 
Q 55.375 50.25 60.0625 53.125 
Q 64.75 56 71.09375 56 
Q 79.640625 56 84.28125 50.015625 
Q 88.921875 44.046875 88.921875 33.015625 
L 88.921875 0 
L 79.890625 0 
L 79.890625 32.71875 
Q 79.890625 40.578125 77.09375 44.375 
Q 74.3125 48.1875 68.609375 48.1875 
Q 61.625 48.1875 57.5625 43.546875 
Q 53.515625 38.921875 53.515625 30.90625 
L 53.515625 0 
L 44.484375 0 
L 44.484375 32.71875 
Q 44.484375 40.625 41.703125 44.40625 
Q 38.921875 48.1875 33.109375 48.1875 
Q 26.21875 48.1875 22.15625 43.53125 
Q 18.109375 38.875 18.109375 30.90625 
L 18.109375 0 
L 9.078125 0 
L 9.078125 54.6875 
L 18.109375 54.6875 
L 18.109375 46.1875 
Q 21.1875 51.21875 25.484375 53.609375 
Q 29.78125 56 35.6875 56 
Q 41.65625 56 45.828125 52.96875 
Q 50 49.953125 52 44.1875 
z
" id="DejaVuSans-109"/>
       <path d="M 54.890625 33.015625 
L 54.890625 0 
L 45.90625 0 
L 45.90625 32.71875 
Q 45.90625 40.484375 42.875 44.328125 
Q 39.84375 48.1875 33.796875 48.1875 
Q 26.515625 48.1875 22.3125 43.546875 
Q 18.109375 38.921875 18.109375 30.90625 
L 18.109375 0 
L 9.078125 0 
L 9.078125 54.6875 
L 18.109375 54.6875 
L 18.109375 46.1875 
Q 21.34375 51.125 25.703125 53.5625 
Q 30.078125 56 35.796875 56 
Q 45.21875 56 50.046875 50.171875 
Q 54.890625 44.34375 54.890625 33.015625 
z
" id="DejaVuSans-110"/>
       <path d="M 8.015625 75.875 
L 15.828125 75.875 
Q 23.140625 64.359375 26.78125 53.3125 
Q 30.421875 42.28125 30.421875 31.390625 
Q 30.421875 20.453125 26.78125 9.375 
Q 23.140625 -1.703125 15.828125 -13.1875 
L 8.015625 -13.1875 
Q 14.5 -2 17.703125 9.0625 
Q 20.90625 20.125 20.90625 31.390625 
Q 20.90625 42.671875 17.703125 53.65625 
Q 14.5 64.65625 8.015625 75.875 
z
" id="DejaVuSans-41"/>
      </defs>
      <use xlink:href="#DejaVuSans-108"/>
      <use x="27.783203" xlink:href="#DejaVuSans-111"/>
      <use x="88.964844" xlink:href="#DejaVuSans-103"/>
      <use x="152.441406" xlink:href="#DejaVuSans-49"/>
      <use x="216.064453" xlink:href="#DejaVuSans-48"/>
      <use x="279.6875" xlink:href="#DejaVuSans-40"/>
      <use x="318.701172" xlink:href="#DejaVuSans-35"/>
      <use x="402.490234" xlink:href="#DejaVuSans-32"/>
      <use x="434.277344" xlink:href="#DejaVuSans-102"/>
      <use x="463.982422" xlink:href="#DejaVuSans-45"/>
      <use x="500.066406" xlink:href="#DejaVuSans-101"/>
      <use x="561.589844" xlink:href="#DejaVuSans-118"/>
      <use x="620.769531" xlink:href="#DejaVuSans-97"/>
      <use x="682.048828" xlink:href="#DejaVuSans-108"/>
      <use x="709.832031" xlink:href="#DejaVuSans-115"/>
      <use x="761.931641" xlink:href="#DejaVuSans-32"/>
      <use x="793.71875" xlink:href="#DejaVuSans-47"/>
      <use x="827.410156" xlink:href="#DejaVuSans-32"/>
      <use x="859.197266" xlink:href="#DejaVuSans-100"/>
      <use x="922.673828" xlink:href="#DejaVuSans-105"/>
      <use x="950.457031" xlink:href="#DejaVuSans-109"/>
      <use x="1047.869141" xlink:href="#DejaVuSans-101"/>
      <use x="1109.392578" xlink:href="#DejaVuSans-110"/>
      <use x="1172.771484" xlink:href="#DejaVuSans-115"/>
      <use x="1224.871094" xlink:href="#DejaVuSans-105"/>
      <use x="1252.654297" xlink:href="#DejaVuSans-111"/>
      <use x="1313.835938" xlink:href="#DejaVuSans-110"/>
      <use x="1377.214844" xlink:href="#DejaVuSans-41"/>
     </g>
    </g>
   </g>
   <g id="matplotlib.axis_2">
    <g id="ytick_1">
     <g id="line2d_21">
      <path clip-path="url(#pf742a12d38)" d="M 57.6 298.944 
L 338.688 298.944 
" style="fill:none;stroke:#b0b0b0;stroke-linecap:square;stroke-width:0.8;"/>
     </g>
     <g id="line2d_22">
      <defs>
       <path d="M 0 0 
L -3.5 0 
" id="m8072397b5d" style="stroke:#000000;stroke-width:0.8;"/>
      </defs>
      <g>
       <use style="stroke:#000000;stroke-width:0.8;" x="57.6" xlink:href="#m8072397b5d" y="298.944"/>
      </g>
     </g>
     <g id="text_6">
      <!-- 0.0 -->
      <g transform="translate(25.155 305.02275)scale(0.16 -0.16)">
       <defs>
        <path d="M 10.6875 12.40625 
L 21 12.40625 
L 21 0 
L 10.6875 0 
z
" id="DejaVuSans-46"/>
       </defs>
       <use xlink:href="#DejaVuSans-48"/>
       <use x="63.623047" xlink:href="#DejaVuSans-46"/>
       <use x="95.410156" xlink:href="#DejaVuSans-48"/>
      </g>
     </g>
    </g>
    <g id="ytick_2">
     <g id="line2d_23">
      <path clip-path="url(#pf742a12d38)" d="M 57.6 245.22202 
L 338.688 245.22202 
" style="fill:none;stroke:#b0b0b0;stroke-linecap:square;stroke-width:0.8;"/>
     </g>
     <g id="line2d_24">
      <g>
       <use style="stroke:#000000;stroke-width:0.8;" x="57.6" xlink:href="#m8072397b5d" y="245.22202"/>
      </g>
     </g>
     <g id="text_7">
      <!-- 0.2 -->
      <g transform="translate(25.155 251.30077)scale(0.16 -0.16)">
       <use xlink:href="#DejaVuSans-48"/>
       <use x="63.623047" xlink:href="#DejaVuSans-46"/>
       <use x="95.410156" xlink:href="#DejaVuSans-50"/>
      </g>
     </g>
    </g>
    <g id="ytick_3">
     <g id="line2d_25">
      <path clip-path="url(#pf742a12d38)" d="M 57.6 191.50004 
L 338.688 191.50004 
" style="fill:none;stroke:#b0b0b0;stroke-linecap:square;stroke-width:0.8;"/>
     </g>
     <g id="line2d_26">
      <g>
       <use style="stroke:#000000;stroke-width:0.8;" x="57.6" xlink:href="#m8072397b5d" y="191.50004"/>
      </g>
     </g>
     <g id="text_8">
      <!-- 0.4 -->
      <g transform="translate(25.155 197.57879)scale(0.16 -0.16)">
       <use xlink:href="#DejaVuSans-48"/>
       <use x="63.623047" xlink:href="#DejaVuSans-46"/>
       <use x="95.410156" xlink:href="#DejaVuSans-52"/>
      </g>
     </g>
    </g>
    <g id="ytick_4">
     <g id="line2d_27">
      <path clip-path="url(#pf742a12d38)" d="M 57.6 137.778059 
L 338.688 137.778059 
" style="fill:none;stroke:#b0b0b0;stroke-linecap:square;stroke-width:0.8;"/>
     </g>
     <g id="line2d_28">
      <g>
       <use style="stroke:#000000;stroke-width:0.8;" x="57.6" xlink:href="#m8072397b5d" y="137.778059"/>
      </g>
     </g>
     <g id="text_9">
      <!-- 0.6 -->
      <g transform="translate(25.155 143.856809)scale(0.16 -0.16)">
       <use xlink:href="#DejaVuSans-48"/>
       <use x="63.623047" xlink:href="#DejaVuSans-46"/>
       <use x="95.410156" xlink:href="#DejaVuSans-54"/>
      </g>
     </g>
    </g>
    <g id="ytick_5">
     <g id="line2d_29">
      <path clip-path="url(#pf742a12d38)" d="M 57.6 84.056079 
L 338.688 84.056079 
" style="fill:none;stroke:#b0b0b0;stroke-linecap:square;stroke-width:0.8;"/>
     </g>
     <g id="line2d_30">
      <g>
       <use style="stroke:#000000;stroke-width:0.8;" x="57.6" xlink:href="#m8072397b5d" y="84.056079"/>
      </g>
     </g>
     <g id="text_10">
      <!-- 0.8 -->
      <g transform="translate(25.155 90.134829)scale(0.16 -0.16)">
       <defs>
        <path d="M 31.78125 34.625 
Q 24.75 34.625 20.71875 30.859375 
Q 16.703125 27.09375 16.703125 20.515625 
Q 16.703125 13.921875 20.71875 10.15625 
Q 24.75 6.390625 31.78125 6.390625 
Q 38.8125 6.390625 42.859375 10.171875 
Q 46.921875 13.96875 46.921875 20.515625 
Q 46.921875 27.09375 42.890625 30.859375 
Q 38.875 34.625 31.78125 34.625 
z
M 21.921875 38.8125 
Q 15.578125 40.375 12.03125 44.71875 
Q 8.5 49.078125 8.5 55.328125 
Q 8.5 64.0625 14.71875 69.140625 
Q 20.953125 74.21875 31.78125 74.21875 
Q 42.671875 74.21875 48.875 69.140625 
Q 55.078125 64.0625 55.078125 55.328125 
Q 55.078125 49.078125 51.53125 44.71875 
Q 48 40.375 41.703125 38.8125 
Q 48.828125 37.15625 52.796875 32.3125 
Q 56.78125 27.484375 56.78125 20.515625 
Q 56.78125 9.90625 50.3125 4.234375 
Q 43.84375 -1.421875 31.78125 -1.421875 
Q 19.734375 -1.421875 13.25 4.234375 
Q 6.78125 9.90625 6.78125 20.515625 
Q 6.78125 27.484375 10.78125 32.3125 
Q 14.796875 37.15625 21.921875 38.8125 
z
M 18.3125 54.390625 
Q 18.3125 48.734375 21.84375 45.5625 
Q 25.390625 42.390625 31.78125 42.390625 
Q 38.140625 42.390625 41.71875 45.5625 
Q 45.3125 48.734375 45.3125 54.390625 
Q 45.3125 60.0625 41.71875 63.234375 
Q 38.140625 66.40625 31.78125 66.40625 
Q 25.390625 66.40625 21.84375 63.234375 
Q 18.3125 60.0625 18.3125 54.390625 
z
" id="DejaVuSans-56"/>
       </defs>
       <use xlink:href="#DejaVuSans-48"/>
       <use x="63.623047" xlink:href="#DejaVuSans-46"/>
       <use x="95.410156" xlink:href="#DejaVuSans-56"/>
      </g>
     </g>
    </g>
    <g id="ytick_6">
     <g id="line2d_31">
      <path clip-path="url(#pf742a12d38)" d="M 57.6 30.334099 
L 338.688 30.334099 
" style="fill:none;stroke:#b0b0b0;stroke-linecap:square;stroke-width:0.8;"/>
     </g>
     <g id="line2d_32">
      <g>
       <use style="stroke:#000000;stroke-width:0.8;" x="57.6" xlink:href="#m8072397b5d" y="30.334099"/>
      </g>
     </g>
     <g id="text_11">
      <!-- 1.0 -->
      <g transform="translate(25.155 36.412849)scale(0.16 -0.16)">
       <use xlink:href="#DejaVuSans-49"/>
       <use x="63.623047" xlink:href="#DejaVuSans-46"/>
       <use x="95.410156" xlink:href="#DejaVuSans-48"/>
      </g>
     </g>
    </g>
    <g id="text_12">
     <!-- Fraction of function,target pairs -->
     <g transform="translate(17.619531 297.681)rotate(-90)scale(0.17 -0.17)">
      <defs>
       <path d="M 9.8125 72.90625 
L 51.703125 72.90625 
L 51.703125 64.59375 
L 19.671875 64.59375 
L 19.671875 43.109375 
L 48.578125 43.109375 
L 48.578125 34.8125 
L 19.671875 34.8125 
L 19.671875 0 
L 9.8125 0 
z
" id="DejaVuSans-70"/>
       <path d="M 41.109375 46.296875 
Q 39.59375 47.171875 37.8125 47.578125 
Q 36.03125 48 33.890625 48 
Q 26.265625 48 22.1875 43.046875 
Q 18.109375 38.09375 18.109375 28.8125 
L 18.109375 0 
L 9.078125 0 
L 9.078125 54.6875 
L 18.109375 54.6875 
L 18.109375 46.1875 
Q 20.953125 51.171875 25.484375 53.578125 
Q 30.03125 56 36.53125 56 
Q 37.453125 56 38.578125 55.875 
Q 39.703125 55.765625 41.0625 55.515625 
z
" id="DejaVuSans-114"/>
       <path d="M 48.78125 52.59375 
L 48.78125 44.1875 
Q 44.96875 46.296875 41.140625 47.34375 
Q 37.3125 48.390625 33.40625 48.390625 
Q 24.65625 48.390625 19.8125 42.84375 
Q 14.984375 37.3125 14.984375 27.296875 
Q 14.984375 17.28125 19.8125 11.734375 
Q 24.65625 6.203125 33.40625 6.203125 
Q 37.3125 6.203125 41.140625 7.25 
Q 44.96875 8.296875 48.78125 10.40625 
L 48.78125 2.09375 
Q 45.015625 0.34375 40.984375 -0.53125 
Q 36.96875 -1.421875 32.421875 -1.421875 
Q 20.0625 -1.421875 12.78125 6.34375 
Q 5.515625 14.109375 5.515625 27.296875 
Q 5.515625 40.671875 12.859375 48.328125 
Q 20.21875 56 33.015625 56 
Q 37.15625 56 41.109375 55.140625 
Q 45.0625 54.296875 48.78125 52.59375 
z
" id="DejaVuSans-99"/>
       <path d="M 18.3125 70.21875 
L 18.3125 54.6875 
L 36.8125 54.6875 
L 36.8125 47.703125 
L 18.3125 47.703125 
L 18.3125 18.015625 
Q 18.3125 11.328125 20.140625 9.421875 
Q 21.96875 7.515625 27.59375 7.515625 
L 36.8125 7.515625 
L 36.8125 0 
L 27.59375 0 
Q 17.1875 0 13.234375 3.875 
Q 9.28125 7.765625 9.28125 18.015625 
L 9.28125 47.703125 
L 2.6875 47.703125 
L 2.6875 54.6875 
L 9.28125 54.6875 
L 9.28125 70.21875 
z
" id="DejaVuSans-116"/>
       <path d="M 8.5 21.578125 
L 8.5 54.6875 
L 17.484375 54.6875 
L 17.484375 21.921875 
Q 17.484375 14.15625 20.5 10.265625 
Q 23.53125 6.390625 29.59375 6.390625 
Q 36.859375 6.390625 41.078125 11.03125 
Q 45.3125 15.671875 45.3125 23.6875 
L 45.3125 54.6875 
L 54.296875 54.6875 
L 54.296875 0 
L 45.3125 0 
L 45.3125 8.40625 
Q 42.046875 3.421875 37.71875 1 
Q 33.40625 -1.421875 27.6875 -1.421875 
Q 18.265625 -1.421875 13.375 4.4375 
Q 8.5 10.296875 8.5 21.578125 
z
M 31.109375 56 
z
" id="DejaVuSans-117"/>
       <path d="M 11.71875 12.40625 
L 22.015625 12.40625 
L 22.015625 4 
L 14.015625 -11.625 
L 7.71875 -11.625 
L 11.71875 4 
z
" id="DejaVuSans-44"/>
       <path d="M 18.109375 8.203125 
L 18.109375 -20.796875 
L 9.078125 -20.796875 
L 9.078125 54.6875 
L 18.109375 54.6875 
L 18.109375 46.390625 
Q 20.953125 51.265625 25.265625 53.625 
Q 29.59375 56 35.59375 56 
Q 45.5625 56 51.78125 48.09375 
Q 58.015625 40.1875 58.015625 27.296875 
Q 58.015625 14.40625 51.78125 6.484375 
Q 45.5625 -1.421875 35.59375 -1.421875 
Q 29.59375 -1.421875 25.265625 0.953125 
Q 20.953125 3.328125 18.109375 8.203125 
z
M 48.6875 27.296875 
Q 48.6875 37.203125 44.609375 42.84375 
Q 40.53125 48.484375 33.40625 48.484375 
Q 26.265625 48.484375 22.1875 42.84375 
Q 18.109375 37.203125 18.109375 27.296875 
Q 18.109375 17.390625 22.1875 11.75 
Q 26.265625 6.109375 33.40625 6.109375 
Q 40.53125 6.109375 44.609375 11.75 
Q 48.6875 17.390625 48.6875 27.296875 
z
" id="DejaVuSans-112"/>
      </defs>
      <use xlink:href="#DejaVuSans-70"/>
      <use x="50.269531" xlink:href="#DejaVuSans-114"/>
      <use x="91.382812" xlink:href="#DejaVuSans-97"/>
      <use x="152.662109" xlink:href="#DejaVuSans-99"/>
      <use x="207.642578" xlink:href="#DejaVuSans-116"/>
      <use x="246.851562" xlink:href="#DejaVuSans-105"/>
      <use x="274.634766" xlink:href="#DejaVuSans-111"/>
      <use x="335.816406" xlink:href="#DejaVuSans-110"/>
      <use x="399.195312" xlink:href="#DejaVuSans-32"/>
      <use x="430.982422" xlink:href="#DejaVuSans-111"/>
      <use x="492.164062" xlink:href="#DejaVuSans-102"/>
      <use x="527.369141" xlink:href="#DejaVuSans-32"/>
      <use x="559.15625" xlink:href="#DejaVuSans-102"/>
      <use x="594.361328" xlink:href="#DejaVuSans-117"/>
      <use x="657.740234" xlink:href="#DejaVuSans-110"/>
      <use x="721.119141" xlink:href="#DejaVuSans-99"/>
      <use x="776.099609" xlink:href="#DejaVuSans-116"/>
      <use x="815.308594" xlink:href="#DejaVuSans-105"/>
      <use x="843.091797" xlink:href="#DejaVuSans-111"/>
      <use x="904.273438" xlink:href="#DejaVuSans-110"/>
      <use x="967.652344" xlink:href="#DejaVuSans-44"/>
      <use x="999.439453" xlink:href="#DejaVuSans-116"/>
      <use x="1038.648438" xlink:href="#DejaVuSans-97"/>
      <use x="1099.927734" xlink:href="#DejaVuSans-114"/>
      <use x="1139.291016" xlink:href="#DejaVuSans-103"/>
      <use x="1202.767578" xlink:href="#DejaVuSans-101"/>
      <use x="1264.291016" xlink:href="#DejaVuSans-116"/>
      <use x="1303.5" xlink:href="#DejaVuSans-32"/>
      <use x="1335.287109" xlink:href="#DejaVuSans-112"/>
      <use x="1398.763672" xlink:href="#DejaVuSans-97"/>
      <use x="1460.042969" xlink:href="#DejaVuSans-105"/>
      <use x="1487.826172" xlink:href="#DejaVuSans-114"/>
      <use x="1528.939453" xlink:href="#DejaVuSans-115"/>
     </g>
    </g>
   </g>
   <g id="line2d_33">
    <defs>
     <path d="M 0 1.5 
C 0.397805 1.5 0.77937 1.341951 1.06066 1.06066 
C 1.341951 0.77937 1.5 0.397805 1.5 0 
C 1.5 -0.397805 1.341951 -0.77937 1.06066 -1.06066 
C 0.77937 -1.341951 0.397805 -1.5 0 -1.5 
C -0.397805 -1.5 -0.77937 -1.341951 -1.06066 -1.06066 
C -1.341951 -0.77937 -1.5 -0.397805 -1.5 0 
C -1.5 0.397805 -1.341951 0.77937 -1.06066 1.06066 
C -0.77937 1.341951 -0.397805 1.5 0 1.5 
z
" id="m72f8c53f24" style="stroke:#f5deb3;"/>
    </defs>
    <g>
     <use style="fill:#f5deb3;stroke:#f5deb3;" x="148.200145" xlink:href="#m72f8c53f24" y="30.334099"/>
     <use style="fill:#f5deb3;stroke:#f5deb3;" x="148.200145" xlink:href="#m72f8c53f24" y="30.334099"/>
    </g>
   </g>
   <g id="line2d_34">
    <defs>
     <path d="M 0 1.5 
C 0.397805 1.5 0.77937 1.341951 1.06066 1.06066 
C 1.341951 0.77937 1.5 0.397805 1.5 0 
C 1.5 -0.397805 1.341951 -0.77937 1.06066 -1.06066 
C 0.77937 -1.341951 0.397805 -1.5 0 -1.5 
C -0.397805 -1.5 -0.77937 -1.341951 -1.06066 -1.06066 
C -1.341951 -0.77937 -1.5 -0.397805 -1.5 0 
C -1.5 0.397805 -1.341951 0.77937 -1.06066 1.06066 
C -0.77937 1.341951 -0.397805 1.5 0 1.5 
z
" id="mfcf1ab401b" style="stroke:#000080;"/>
    </defs>
    <g>
     <use style="fill:#000080;stroke:#000080;" x="288.792943" xlink:href="#mfcf1ab401b" y="246.275392"/>
     <use style="fill:#000080;stroke:#000080;" x="288.792943" xlink:href="#mfcf1ab401b" y="246.275392"/>
    </g>
   </g>
   <g id="line2d_35">
    <path d="M 171.077038 298.944 
L 171.077038 298.417314 
L 171.846131 298.417314 
L 171.846131 297.890628 
L 173.026049 297.890628 
L 173.026049 297.363942 
L 176.088799 297.363942 
L 176.088799 296.837256 
L 176.448384 296.837256 
L 176.448384 296.31057 
L 177.358012 296.31057 
L 177.358012 295.783884 
L 179.39874 295.783884 
L 179.39874 294.730511 
L 180.860867 294.730511 
L 180.860867 294.203825 
L 182.338619 294.203825 
L 182.338619 293.677139 
L 185.046385 293.677139 
L 185.046385 293.150453 
L 186.672152 293.150453 
L 186.672152 292.623767 
L 187.817609 292.623767 
L 187.817609 292.097081 
L 188.490389 292.097081 
L 188.490389 291.570395 
L 188.800336 291.570395 
L 188.800336 291.043709 
L 195.210002 291.043709 
L 195.210002 290.517023 
L 195.501192 290.517023 
L 195.501192 289.990337 
L 200.025817 289.990337 
L 200.025817 289.463651 
L 201.582053 289.463651 
L 201.582053 288.936964 
L 202.050249 288.936964 
L 202.050249 288.410278 
L 204.226417 288.410278 
L 204.226417 287.883592 
L 204.355121 287.883592 
L 204.355121 287.356906 
L 205.77927 287.356906 
L 205.77927 286.83022 
L 206.287903 286.83022 
L 206.287903 286.303534 
L 209.382901 286.303534 
L 209.382901 285.776848 
L 210.147531 285.776848 
L 210.147531 285.250162 
L 211.295881 285.250162 
L 211.295881 284.723476 
L 213.356157 284.723476 
L 213.356157 284.19679 
L 215.135382 284.19679 
L 215.135382 283.670104 
L 215.439127 283.670104 
L 215.439127 283.143418 
L 215.743703 283.143418 
L 215.784663 281.563359 
L 216.298056 281.563359 
L 216.298056 281.036673 
L 216.453149 281.036673 
L 216.453149 280.509987 
L 217.370099 280.509987 
L 217.370099 279.983301 
L 219.820642 279.983301 
L 219.820642 279.456615 
L 220.009283 279.456615 
L 220.009283 277.876557 
L 220.867088 277.876557 
L 220.867088 276.823185 
L 221.182789 276.823185 
L 221.208376 275.243126 
L 223.484493 275.243126 
L 223.499704 273.663068 
L 223.903453 273.663068 
L 223.903453 273.136382 
L 226.326661 273.136382 
L 226.326661 272.609696 
L 226.768284 272.609696 
L 226.768284 272.08301 
L 228.312281 272.08301 
L 228.312281 271.556324 
L 229.133713 271.556324 
L 229.133713 271.029638 
L 230.916041 271.029638 
L 230.916041 270.502952 
L 231.226381 270.502952 
L 231.226381 269.449579 
L 231.682501 269.449579 
L 231.682501 268.922893 
L 231.853011 268.922893 
L 231.853011 268.396207 
L 234.828848 268.396207 
L 234.828848 267.869521 
L 236.501618 267.869521 
L 236.501618 267.342835 
L 237.93015 267.342835 
L 237.93015 266.816149 
L 238.424618 266.816149 
L 238.424618 266.289463 
L 238.892984 266.289463 
L 238.892984 265.762777 
L 241.972079 265.762777 
L 241.972079 265.236091 
L 242.862053 265.236091 
L 242.862053 264.709405 
L 243.097595 264.709405 
L 243.097595 264.182719 
L 243.869582 264.182719 
L 243.869582 263.656033 
L 245.921024 263.656033 
L 245.921024 263.129347 
L 246.997734 263.129347 
L 246.997734 262.60266 
L 247.786271 262.60266 
L 247.786271 262.075974 
L 249.938421 262.075974 
L 249.969854 261.022602 
L 250.061176 261.022602 
L 250.061176 259.442544 
L 250.463643 259.442544 
L 250.463643 258.915858 
L 251.108696 258.915858 
L 251.108696 258.389172 
L 254.274172 258.389172 
L 254.274172 257.862486 
L 254.839143 257.862486 
L 254.839143 257.3358 
L 256.875422 257.3358 
L 256.875422 256.282427 
L 258.679554 256.282427 
L 258.735031 255.229055 
L 260.314418 255.229055 
L 260.314418 254.175683 
L 263.728706 254.175683 
L 263.728706 253.122311 
L 264.96679 253.122311 
L 264.96679 252.595625 
L 266.763289 252.595625 
L 266.798208 251.542253 
L 267.206872 251.542253 
L 267.206872 251.015567 
L 269.759891 251.015567 
L 269.759891 249.962195 
L 270.105353 249.962195 
L 270.105353 249.435508 
L 270.616992 249.435508 
L 270.616992 248.908822 
L 275.432952 248.908822 
L 275.432952 248.382136 
L 279.508172 248.382136 
L 279.508172 247.85545 
L 280.815861 247.85545 
L 280.815861 247.328764 
L 287.843127 247.328764 
L 287.843127 246.802078 
L 288.792943 246.802078 
L 288.792943 246.275392 
L 338.688 246.275392 
L 338.688 246.275392 
" style="fill:none;stroke:#000080;stroke-linecap:square;stroke-width:1.5;"/>
   </g>
   <g id="line2d_36">
    <defs>
     <path d="M 0 6 
C 1.591219 6 3.117479 5.367802 4.242641 4.242641 
C 5.367802 3.117479 6 1.591219 6 0 
C 6 -1.591219 5.367802 -3.117479 4.242641 -4.242641 
C 3.117479 -5.367802 1.591219 -6 0 -6 
C -1.591219 -6 -3.117479 -5.367802 -4.242641 -4.242641 
C -5.367802 -3.117479 -6 -1.591219 -6 0 
C -6 1.591219 -5.367802 3.117479 -4.242641 4.242641 
C -3.117479 5.367802 -1.591219 6 0 6 
z
" id="m7c2c6a5e26" style="stroke:#000080;stroke-width:1.5;"/>
    </defs>
    <g>
     <use style="fill-opacity:0;stroke:#000080;stroke-width:1.5;" x="264.96679" xlink:href="#m7c2c6a5e26" y="252.595625"/>
     <use style="fill-opacity:0;stroke:#000080;stroke-width:1.5;" x="288.792943" xlink:href="#m7c2c6a5e26" y="246.275392"/>
     <use style="fill-opacity:0;stroke:#000080;stroke-width:1.5;" x="288.792943" xlink:href="#m7c2c6a5e26" y="246.275392"/>
     <use style="fill-opacity:0;stroke:#000080;stroke-width:1.5;" x="338.688" xlink:href="#m7c2c6a5e26" y="246.275392"/>
    </g>
   </g>
   <g id="line2d_37">
    <path style="fill:none;stroke:#000080;stroke-linecap:square;stroke-width:1.5;"/>
    <g/>
   </g>
   <g id="line2d_38">
    <path clip-path="url(#pf742a12d38)" d="M 218.221714 279.983301 
" style="fill:none;stroke:#000080;stroke-linecap:square;stroke-width:1.5;"/>
    <defs>
     <path d="M -12 12 
L 12 -12 
M -12 -12 
L 12 12 
" id="m05c8615c1e" style="stroke:#000080;"/>
    </defs>
    <g clip-path="url(#pf742a12d38)">
     <use style="fill:#000080;stroke:#000080;" x="218.221714" xlink:href="#m05c8615c1e" y="279.983301"/>
    </g>
   </g>
   <g id="line2d_39">
    <defs>
     <path d="M 0 1.5 
C 0.397805 1.5 0.77937 1.341951 1.06066 1.06066 
C 1.341951 0.77937 1.5 0.397805 1.5 0 
C 1.5 -0.397805 1.341951 -0.77937 1.06066 -1.06066 
C 0.77937 -1.341951 0.397805 -1.5 0 -1.5 
C -0.397805 -1.5 -0.77937 -1.341951 -1.06066 -1.06066 
C -1.341951 -0.77937 -1.5 -0.397805 -1.5 0 
C -1.5 0.397805 -1.341951 0.77937 -1.06066 1.06066 
C -0.77937 1.341951 -0.397805 1.5 0 1.5 
z
" id="ma2f8376cb1" style="stroke:#ff00ff;"/>
    </defs>
    <g>
     <use style="fill:#ff00ff;stroke:#ff00ff;" x="272.771421" xlink:href="#ma2f8376cb1" y="277.876557"/>
     <use style="fill:#ff00ff;stroke:#ff00ff;" x="272.771421" xlink:href="#ma2f8376cb1" y="277.876557"/>
    </g>
   </g>
   <g id="line2d_40">
    <path d="M 186.569643 298.944 
L 186.569643 298.417314 
L 199.295873 298.417314 
L 199.295873 297.890628 
L 203.539946 297.890628 
L 203.539946 296.837256 
L 203.732336 296.837256 
L 203.732336 295.783884 
L 209.865413 295.783884 
L 209.865413 295.257197 
L 211.646697 295.257197 
L 211.646697 294.730511 
L 214.745979 294.730511 
L 214.745979 294.203825 
L 214.925974 294.203825 
L 214.925974 292.623767 
L 215.698616 292.623767 
L 215.698616 292.097081 
L 216.037913 292.097081 
L 216.037913 291.570395 
L 224.528432 291.570395 
L 224.528432 291.043709 
L 226.627342 291.043709 
L 226.627342 290.517023 
L 228.658284 290.517023 
L 228.658284 289.463651 
L 228.739572 289.463651 
L 228.739572 287.883592 
L 229.093744 287.883592 
L 229.093744 287.356906 
L 229.251962 287.356906 
L 229.251962 286.83022 
L 233.746615 286.83022 
L 233.746615 286.303534 
L 236.34983 286.303534 
L 236.34983 285.776848 
L 236.682738 285.776848 
L 236.682738 285.250162 
L 238.069398 285.250162 
L 238.069398 284.723476 
L 239.241592 284.723476 
L 239.241592 283.670104 
L 241.630291 283.670104 
L 241.630291 283.143418 
L 245.369726 283.143418 
L 245.369726 282.616732 
L 245.677959 282.616732 
L 245.677959 282.090045 
L 248.960881 282.090045 
L 248.960881 281.563359 
L 249.123211 281.563359 
L 249.123211 281.036673 
L 251.861266 281.036673 
L 251.861266 280.509987 
L 254.1062 280.509987 
L 254.1062 279.983301 
L 256.202826 279.983301 
L 256.202826 279.456615 
L 258.074223 279.456615 
L 258.074223 278.929929 
L 260.566801 278.929929 
L 260.566801 278.403243 
L 272.771421 278.403243 
L 272.771421 277.876557 
L 338.688 277.876557 
" style="fill:none;stroke:#ff00ff;stroke-linecap:square;stroke-width:1.5;"/>
   </g>
   <g id="line2d_41">
    <defs>
     <path d="M -0 8.485281 
L 5.091169 0 
L 0 -8.485281 
L -5.091169 -0 
z
" id="m61fba2b118" style="stroke:#ff00ff;stroke-linejoin:miter;stroke-width:1.5;"/>
    </defs>
    <g>
     <use style="fill-opacity:0;stroke:#ff00ff;stroke-linejoin:miter;stroke-width:1.5;" x="236.34983" xlink:href="#m61fba2b118" y="286.303534"/>
     <use style="fill-opacity:0;stroke:#ff00ff;stroke-linejoin:miter;stroke-width:1.5;" x="272.771421" xlink:href="#m61fba2b118" y="278.403243"/>
     <use style="fill-opacity:0;stroke:#ff00ff;stroke-linejoin:miter;stroke-width:1.5;" x="272.771421" xlink:href="#m61fba2b118" y="277.876557"/>
     <use style="fill-opacity:0;stroke:#ff00ff;stroke-linejoin:miter;stroke-width:1.5;" x="338.688" xlink:href="#m61fba2b118" y="277.876557"/>
    </g>
   </g>
   <g id="line2d_42">
    <path style="fill:none;stroke:#ff00ff;stroke-linecap:square;stroke-width:1.5;"/>
    <g/>
   </g>
   <g id="line2d_43">
    <path clip-path="url(#pf742a12d38)" d="M 218.221714 291.570395 
" style="fill:none;stroke:#ff00ff;stroke-linecap:square;stroke-width:1.5;"/>
    <defs>
     <path d="M -12 12 
L 12 -12 
M -12 -12 
L 12 12 
" id="mec889fb861" style="stroke:#ff00ff;"/>
    </defs>
    <g clip-path="url(#pf742a12d38)">
     <use style="fill:#ff00ff;stroke:#ff00ff;" x="218.221714" xlink:href="#mec889fb861" y="291.570395"/>
    </g>
   </g>
   <g id="line2d_44">
    <defs>
     <path d="M 0 1.5 
C 0.397805 1.5 0.77937 1.341951 1.06066 1.06066 
C 1.341951 0.77937 1.5 0.397805 1.5 0 
C 1.5 -0.397805 1.341951 -0.77937 1.06066 -1.06066 
C 0.77937 -1.341951 0.397805 -1.5 0 -1.5 
C -0.397805 -1.5 -0.77937 -1.341951 -1.06066 -1.06066 
C -1.341951 -0.77937 -1.5 -0.397805 -1.5 0 
C -1.5 0.397805 -1.341951 0.77937 -1.06066 1.06066 
C -0.77937 1.341951 -0.397805 1.5 0 1.5 
z
" id="mff717a99d9" style="stroke:#ff7500;"/>
    </defs>
    <g>
     <use style="fill:#ff7500;stroke:#ff7500;" x="271.733829" xlink:href="#mff717a99d9" y="277.876557"/>
     <use style="fill:#ff7500;stroke:#ff7500;" x="271.733829" xlink:href="#mff717a99d9" y="277.876557"/>
    </g>
   </g>
   <g id="line2d_45">
    <path d="M 202.173241 298.944 
L 202.173241 298.417314 
L 206.452377 298.417314 
L 206.452377 297.890628 
L 216.388565 297.890628 
L 216.388565 296.837256 
L 216.45971 296.837256 
L 216.45971 296.31057 
L 223.911761 296.31057 
L 223.911761 295.783884 
L 224.069856 295.783884 
L 224.069856 295.257197 
L 225.3996 295.257197 
L 225.3996 294.730511 
L 229.417204 294.730511 
L 229.417204 293.677139 
L 229.450944 293.677139 
L 229.450944 293.150453 
L 233.477775 293.150453 
L 233.477775 292.623767 
L 234.265364 292.623767 
L 234.265364 291.570395 
L 236.790827 291.570395 
L 236.790827 291.043709 
L 236.812941 291.043709 
L 236.812941 289.990337 
L 239.555372 289.990337 
L 239.555372 289.463651 
L 240.114879 289.463651 
L 240.114879 288.936964 
L 241.957151 288.936964 
L 241.957151 287.883592 
L 244.00346 287.883592 
L 244.00346 287.356906 
L 245.950708 287.356906 
L 245.950708 286.83022 
L 247.980505 286.83022 
L 247.980505 285.776848 
L 249.176257 285.776848 
L 249.176257 285.250162 
L 251.906615 285.250162 
L 251.906615 284.723476 
L 254.274922 284.723476 
L 254.274922 283.670104 
L 255.561836 283.670104 
L 255.561836 283.143418 
L 259.880372 283.143418 
L 259.880372 281.563359 
L 261.411086 281.563359 
L 261.411086 281.036673 
L 261.416478 281.036673 
L 261.416478 280.509987 
L 265.331769 280.509987 
L 265.331769 279.983301 
L 266.464572 279.983301 
L 266.464572 279.456615 
L 266.468608 279.456615 
L 266.468608 278.929929 
L 270.031851 278.929929 
L 270.031851 278.403243 
L 271.733829 278.403243 
L 271.733829 277.876557 
L 338.688 277.876557 
" style="fill:none;stroke:#ff7500;stroke-linecap:square;stroke-width:1.5;"/>
   </g>
   <g id="line2d_46">
    <defs>
     <path d="M 0 -6 
L -1.347084 -1.854102 
L -5.706339 -1.854102 
L -2.179628 0.708204 
L -3.526712 4.854102 
L -0 2.291796 
L 3.526712 4.854102 
L 2.179628 0.708204 
L 5.706339 -1.854102 
L 1.347084 -1.854102 
z
" id="m2842eb7243" style="stroke:#ff7500;stroke-linejoin:bevel;stroke-width:1.5;"/>
    </defs>
    <g>
     <use style="fill-opacity:0;stroke:#ff7500;stroke-linejoin:bevel;stroke-width:1.5;" x="240.114879" xlink:href="#m2842eb7243" y="288.936964"/>
     <use style="fill-opacity:0;stroke:#ff7500;stroke-linejoin:bevel;stroke-width:1.5;" x="271.733829" xlink:href="#m2842eb7243" y="278.403243"/>
     <use style="fill-opacity:0;stroke:#ff7500;stroke-linejoin:bevel;stroke-width:1.5;" x="271.733829" xlink:href="#m2842eb7243" y="277.876557"/>
     <use style="fill-opacity:0;stroke:#ff7500;stroke-linejoin:bevel;stroke-width:1.5;" x="338.688" xlink:href="#m2842eb7243" y="277.876557"/>
    </g>
   </g>
   <g id="line2d_47">
    <path style="fill:none;stroke:#ff7500;stroke-linecap:square;stroke-width:1.5;"/>
    <g/>
   </g>
   <g id="line2d_48">
    <path clip-path="url(#pf742a12d38)" d="M 218.221714 296.31057 
" style="fill:none;stroke:#ff7500;stroke-linecap:square;stroke-width:1.5;"/>
    <defs>
     <path d="M -12 12 
L 12 -12 
M -12 -12 
L 12 12 
" id="me42e3474eb" style="stroke:#ff7500;"/>
    </defs>
    <g clip-path="url(#pf742a12d38)">
     <use style="fill:#ff7500;stroke:#ff7500;" x="218.221714" xlink:href="#me42e3474eb" y="296.31057"/>
    </g>
   </g>
   <g id="line2d_49">
    <defs>
     <path d="M 0 1.5 
C 0.397805 1.5 0.77937 1.341951 1.06066 1.06066 
C 1.341951 0.77937 1.5 0.397805 1.5 0 
C 1.5 -0.397805 1.341951 -0.77937 1.06066 -1.06066 
C 0.77937 -1.341951 0.397805 -1.5 0 -1.5 
C -0.397805 -1.5 -0.77937 -1.341951 -1.06066 -1.06066 
C -1.341951 -0.77937 -1.5 -0.397805 -1.5 0 
C -1.5 0.397805 -1.341951 0.77937 -1.06066 1.06066 
C -0.77937 1.341951 -0.397805 1.5 0 1.5 
z
" id="m7a0946acb6" style="stroke:#6495ed;"/>
    </defs>
    <g>
     <use style="fill:#6495ed;stroke:#6495ed;" x="284.278309" xlink:href="#m7a0946acb6" y="288.410278"/>
     <use style="fill:#6495ed;stroke:#6495ed;" x="284.278309" xlink:href="#m7a0946acb6" y="288.410278"/>
    </g>
   </g>
   <g id="line2d_50">
    <path d="M 186.192914 298.944 
L 186.192914 297.890628 
L 220.800428 297.890628 
L 220.800428 296.837256 
L 249.925854 296.837256 
L 249.925854 296.31057 
L 252.549554 296.31057 
L 252.549554 295.783884 
L 256.845821 295.783884 
L 256.845821 295.257197 
L 258.652864 295.257197 
L 258.652864 294.730511 
L 260.290119 294.730511 
L 260.290119 294.203825 
L 261.786769 294.203825 
L 261.786769 293.677139 
L 263.165066 293.677139 
L 263.165066 292.623767 
L 265.63246 292.623767 
L 265.63246 292.097081 
L 266.746504 292.097081 
L 266.746504 291.570395 
L 274.467407 291.570395 
L 274.467407 291.043709 
L 275.147139 291.043709 
L 275.147139 290.517023 
L 277.628544 290.517023 
L 277.628544 289.990337 
L 278.197402 289.990337 
L 278.197402 289.463651 
L 279.282306 289.463651 
L 279.282306 288.936964 
L 284.278309 288.936964 
L 284.278309 288.410278 
L 338.688 288.410278 
" style="fill:none;stroke:#6495ed;stroke-linecap:square;stroke-width:1.5;"/>
   </g>
   <g id="line2d_51">
    <defs>
     <path d="M -0 6 
L 6 -6 
L -6 -6 
z
" id="me6bbd0bdff" style="stroke:#6495ed;stroke-linejoin:miter;stroke-width:1.5;"/>
    </defs>
    <g>
     <use style="fill-opacity:0;stroke:#6495ed;stroke-linejoin:miter;stroke-width:1.5;" x="220.800428" xlink:href="#me6bbd0bdff" y="296.837256"/>
     <use style="fill-opacity:0;stroke:#6495ed;stroke-linejoin:miter;stroke-width:1.5;" x="284.278309" xlink:href="#me6bbd0bdff" y="288.936964"/>
     <use style="fill-opacity:0;stroke:#6495ed;stroke-linejoin:miter;stroke-width:1.5;" x="284.278309" xlink:href="#me6bbd0bdff" y="288.410278"/>
     <use style="fill-opacity:0;stroke:#6495ed;stroke-linejoin:miter;stroke-width:1.5;" x="338.688" xlink:href="#me6bbd0bdff" y="288.410278"/>
    </g>
   </g>
   <g id="line2d_52">
    <path style="fill:none;stroke:#6495ed;stroke-linecap:square;stroke-width:1.5;"/>
    <g/>
   </g>
   <g id="line2d_53">
    <path clip-path="url(#pf742a12d38)" d="M 218.221714 297.890628 
" style="fill:none;stroke:#6495ed;stroke-linecap:square;stroke-width:1.5;"/>
    <defs>
     <path d="M -12 12 
L 12 -12 
M -12 -12 
L 12 12 
" id="m069b6a86b9" style="stroke:#6495ed;"/>
    </defs>
    <g clip-path="url(#pf742a12d38)">
     <use style="fill:#6495ed;stroke:#6495ed;" x="218.221714" xlink:href="#m069b6a86b9" y="297.890628"/>
    </g>
   </g>
   <g id="line2d_54">
    <defs>
     <path d="M 0 1.5 
C 0.397805 1.5 0.77937 1.341951 1.06066 1.06066 
C 1.341951 0.77937 1.5 0.397805 1.5 0 
C 1.5 -0.397805 1.341951 -0.77937 1.06066 -1.06066 
C 0.77937 -1.341951 0.397805 -1.5 0 -1.5 
C -0.397805 -1.5 -0.77937 -1.341951 -1.06066 -1.06066 
C -1.341951 -0.77937 -1.5 -0.397805 -1.5 0 
C -1.5 0.397805 -1.341951 0.77937 -1.06066 1.06066 
C -0.77937 1.341951 -0.397805 1.5 0 1.5 
z
" id="m873383a1b4" style="stroke:#ff0000;"/>
    </defs>
    <g>
     <use style="fill:#ff0000;stroke:#ff0000;" x="286.971333" xlink:href="#m873383a1b4" y="219.941088"/>
     <use style="fill:#ff0000;stroke:#ff0000;" x="286.971333" xlink:href="#m873383a1b4" y="219.941088"/>
    </g>
   </g>
   <g id="line2d_55">
    <path d="M 155.412374 298.944 
L 155.412374 298.417314 
L 156.272978 298.417314 
L 156.272978 297.890628 
L 161.654251 297.890628 
L 161.654251 297.363942 
L 162.787576 297.363942 
L 162.787576 296.837256 
L 163.339941 296.837256 
L 163.339941 296.31057 
L 164.584735 296.31057 
L 164.584735 295.257197 
L 165.725346 295.257197 
L 165.725346 294.730511 
L 165.887376 294.730511 
L 165.887376 294.203825 
L 166.047915 294.203825 
L 166.047915 293.677139 
L 167.474773 293.677139 
L 167.474773 293.150453 
L 170.607318 293.150453 
L 170.607318 292.623767 
L 178.243265 292.623767 
L 178.243265 292.097081 
L 181.152584 292.097081 
L 181.152584 291.570395 
L 181.505489 291.570395 
L 181.505489 291.043709 
L 183.97145 291.043709 
L 183.97145 290.517023 
L 187.233677 290.517023 
L 187.233677 289.990337 
L 187.651319 289.990337 
L 187.651319 289.463651 
L 188.051324 289.463651 
L 188.051324 288.936964 
L 190.769368 288.936964 
L 190.769368 288.410278 
L 192.486671 288.410278 
L 192.486671 287.883592 
L 192.910184 287.883592 
L 192.910184 287.356906 
L 193.362872 287.356906 
L 193.362872 286.83022 
L 194.397918 286.83022 
L 194.397918 286.303534 
L 194.527326 286.303534 
L 194.527326 285.776848 
L 195.979704 285.776848 
L 196.043272 284.723476 
L 196.472163 284.723476 
L 196.472163 284.19679 
L 198.218414 284.19679 
L 198.259002 283.143418 
L 198.593256 283.143418 
L 198.593256 282.616732 
L 198.841928 282.616732 
L 198.841928 282.090045 
L 200.183524 282.090045 
L 200.214895 281.036673 
L 200.865693 281.036673 
L 200.865693 280.509987 
L 201.052462 280.509987 
L 201.052462 279.983301 
L 201.17062 279.983301 
L 201.17062 279.456615 
L 203.627146 279.456615 
L 203.627146 278.929929 
L 203.954272 278.929929 
L 203.954272 278.403243 
L 204.307936 278.403243 
L 204.307936 277.876557 
L 204.47291 277.876557 
L 204.47291 277.349871 
L 205.632717 277.349871 
L 205.632717 276.823185 
L 206.363107 276.823185 
L 206.363107 276.296499 
L 207.013135 276.296499 
L 207.013135 275.769812 
L 207.257487 275.769812 
L 207.257487 275.243126 
L 207.874957 275.243126 
L 207.874957 274.71644 
L 209.108628 274.71644 
L 209.108628 274.189754 
L 209.471838 274.189754 
L 209.471838 273.663068 
L 209.798829 273.663068 
L 209.798829 273.136382 
L 209.941279 273.136382 
L 209.941279 272.609696 
L 210.082018 272.609696 
L 210.082018 272.08301 
L 211.229342 272.08301 
L 211.229342 271.556324 
L 212.404451 271.556324 
L 212.404451 271.029638 
L 212.66061 271.029638 
L 212.66061 270.502952 
L 213.232626 270.502952 
L 213.232626 269.976266 
L 213.824665 269.976266 
L 213.843953 268.922893 
L 215.249494 268.922893 
L 215.29823 267.869521 
L 215.725199 267.869521 
L 215.725199 267.342835 
L 216.365303 267.342835 
L 216.365303 266.816149 
L 218.120272 266.816149 
L 218.120272 266.289463 
L 219.055963 266.289463 
L 219.060617 265.236091 
L 219.458909 265.236091 
L 219.458909 264.709405 
L 221.978727 264.709405 
L 221.978727 264.182719 
L 223.1225 264.182719 
L 223.1225 263.656033 
L 223.525713 263.656033 
L 223.525713 263.129347 
L 223.790025 263.129347 
L 223.790025 262.60266 
L 225.675424 262.60266 
L 225.675424 261.549288 
L 225.895366 261.549288 
L 225.895366 261.022602 
L 226.341775 261.022602 
L 226.341775 259.96923 
L 227.161648 259.96923 
L 227.161648 259.442544 
L 227.348026 259.442544 
L 227.348026 258.915858 
L 227.749886 258.915858 
L 227.749886 258.389172 
L 228.257831 258.389172 
L 228.257831 257.862486 
L 228.886836 257.862486 
L 228.938983 256.282427 
L 229.106081 256.282427 
L 229.106081 255.755741 
L 229.406187 255.755741 
L 229.406187 255.229055 
L 232.241172 255.229055 
L 232.241172 254.702369 
L 232.650641 254.702369 
L 232.650641 254.175683 
L 232.983375 254.175683 
L 232.983375 253.122311 
L 233.357533 253.122311 
L 233.357533 252.595625 
L 233.786522 252.595625 
L 233.786522 252.068939 
L 234.102109 252.068939 
L 234.102109 251.542253 
L 234.998402 251.542253 
L 234.998402 251.015567 
L 235.346367 251.015567 
L 235.346367 250.488881 
L 235.463165 250.488881 
L 235.463165 249.962195 
L 235.615245 249.962195 
L 235.615245 249.435508 
L 236.039973 249.435508 
L 236.039973 248.908822 
L 236.478983 248.908822 
L 236.478983 248.382136 
L 236.953263 248.382136 
L 236.953263 247.85545 
L 237.346974 247.85545 
L 237.346974 247.328764 
L 238.65859 247.328764 
L 238.65859 246.802078 
L 239.207912 246.802078 
L 239.207912 246.275392 
L 240.234039 246.275392 
L 240.234039 245.748706 
L 240.894601 245.748706 
L 240.894601 245.22202 
L 241.806262 245.22202 
L 241.806262 244.695334 
L 243.478233 244.695334 
L 243.478233 244.168648 
L 244.222603 244.168648 
L 244.222603 243.641962 
L 244.808481 243.641962 
L 244.899143 242.588589 
L 245.164095 242.588589 
L 245.164095 242.061903 
L 247.572877 242.061903 
L 247.572877 241.535217 
L 248.243712 241.535217 
L 248.243712 241.008531 
L 249.023669 241.008531 
L 249.023669 240.481845 
L 251.112346 240.481845 
L 251.112346 239.955159 
L 251.821489 239.955159 
L 251.821489 239.428473 
L 253.223052 239.428473 
L 253.223052 238.901787 
L 253.437387 238.901787 
L 253.437387 238.375101 
L 253.791068 238.375101 
L 253.791068 237.848415 
L 255.421996 237.848415 
L 255.421996 237.321729 
L 255.781218 237.321729 
L 255.781218 236.268356 
L 255.923679 236.268356 
L 255.923679 235.74167 
L 256.106393 235.74167 
L 256.106393 235.214984 
L 256.279347 235.214984 
L 256.279347 233.634926 
L 257.652516 233.634926 
L 257.652516 233.10824 
L 258.142973 233.10824 
L 258.142973 232.581554 
L 259.38179 232.581554 
L 259.38179 232.054868 
L 259.536872 232.054868 
L 259.536872 231.528182 
L 260.99093 231.528182 
L 260.99093 231.001496 
L 262.854868 231.001496 
L 262.854868 230.47481 
L 263.85145 230.47481 
L 263.85145 229.421437 
L 264.154256 229.421437 
L 264.154256 228.894751 
L 265.081149 228.894751 
L 265.081149 228.368065 
L 265.292399 228.368065 
L 265.292399 227.841379 
L 267.233465 227.841379 
L 267.233465 227.314693 
L 268.169573 227.314693 
L 268.169573 226.788007 
L 269.050078 226.788007 
L 269.050078 226.261321 
L 269.215426 226.261321 
L 269.215426 225.734635 
L 270.974689 225.734635 
L 270.974689 225.207949 
L 271.678641 225.207949 
L 271.753325 224.154577 
L 272.544958 224.154577 
L 272.544958 223.627891 
L 272.801052 223.627891 
L 272.801052 223.101204 
L 277.26271 223.101204 
L 277.26271 222.574518 
L 279.521312 222.574518 
L 279.521312 222.047832 
L 280.032511 222.047832 
L 280.032511 221.521146 
L 281.47081 221.521146 
L 281.47081 220.99446 
L 283.273794 220.99446 
L 283.273794 220.467774 
L 286.971333 220.467774 
L 286.971333 219.941088 
L 338.688 219.941088 
L 338.688 219.941088 
" style="fill:none;stroke:#ff0000;stroke-linecap:square;stroke-width:1.5;"/>
   </g>
   <g id="line2d_56">
    <defs>
     <path d="M 0 -6 
L -5.196152 -3 
L -5.196152 3 
L -0 6 
L 5.196152 3 
L 5.196152 -3 
z
" id="mc24e025472" style="stroke:#ff0000;stroke-linejoin:miter;stroke-width:1.5;"/>
    </defs>
    <g>
     <use style="fill-opacity:0;stroke:#ff0000;stroke-linejoin:miter;stroke-width:1.5;" x="238.65859" xlink:href="#mc24e025472" y="246.802078"/>
     <use style="fill-opacity:0;stroke:#ff0000;stroke-linejoin:miter;stroke-width:1.5;" x="286.971333" xlink:href="#mc24e025472" y="220.467774"/>
     <use style="fill-opacity:0;stroke:#ff0000;stroke-linejoin:miter;stroke-width:1.5;" x="286.971333" xlink:href="#mc24e025472" y="219.941088"/>
     <use style="fill-opacity:0;stroke:#ff0000;stroke-linejoin:miter;stroke-width:1.5;" x="338.688" xlink:href="#mc24e025472" y="219.941088"/>
    </g>
   </g>
   <g id="line2d_57">
    <path style="fill:none;stroke:#ff0000;stroke-linecap:square;stroke-width:1.5;"/>
    <g/>
   </g>
   <g id="line2d_58">
    <path clip-path="url(#pf742a12d38)" d="M 218.221714 266.289463 
" style="fill:none;stroke:#ff0000;stroke-linecap:square;stroke-width:1.5;"/>
    <defs>
     <path d="M -12 12 
L 12 -12 
M -12 -12 
L 12 12 
" id="m2e20fdb63b" style="stroke:#ff0000;"/>
    </defs>
    <g clip-path="url(#pf742a12d38)">
     <use style="fill:#ff0000;stroke:#ff0000;" x="218.221714" xlink:href="#m2e20fdb63b" y="266.289463"/>
    </g>
   </g>
   <g id="line2d_59">
    <defs>
     <path d="M 0 1.5 
C 0.397805 1.5 0.77937 1.341951 1.06066 1.06066 
C 1.341951 0.77937 1.5 0.397805 1.5 0 
C 1.5 -0.397805 1.341951 -0.77937 1.06066 -1.06066 
C 0.77937 -1.341951 0.397805 -1.5 0 -1.5 
C -0.397805 -1.5 -0.77937 -1.341951 -1.06066 -1.06066 
C -1.341951 -0.77937 -1.5 -0.397805 -1.5 0 
C -1.5 0.397805 -1.341951 0.77937 -1.06066 1.06066 
C -0.77937 1.341951 -0.397805 1.5 0 1.5 
z
" id="m2adbee82e0" style="stroke:#9acd32;"/>
    </defs>
    <g>
     <use style="fill:#9acd32;stroke:#9acd32;" x="280.09047" xlink:href="#m2adbee82e0" y="256.809114"/>
     <use style="fill:#9acd32;stroke:#9acd32;" x="280.09047" xlink:href="#m2adbee82e0" y="256.809114"/>
    </g>
   </g>
   <g id="line2d_60">
    <path d="M 153.792374 298.944 
L 153.792374 298.417314 
L 154.998366 298.417314 
L 154.998366 297.890628 
L 161.292989 297.890628 
L 161.292989 297.363942 
L 166.117256 297.363942 
L 166.117256 296.837256 
L 166.855717 296.837256 
L 166.855717 296.31057 
L 167.449146 296.31057 
L 167.449146 295.783884 
L 170.267003 295.783884 
L 170.267003 295.257197 
L 173.571573 295.257197 
L 173.571573 294.730511 
L 175.067161 294.730511 
L 175.067161 294.203825 
L 175.256675 294.203825 
L 175.256675 293.677139 
L 178.883902 293.677139 
L 178.883902 293.150453 
L 181.39345 293.150453 
L 181.39345 292.623767 
L 182.099476 292.623767 
L 182.099476 292.097081 
L 184.874915 292.097081 
L 184.874915 291.570395 
L 185.749594 291.570395 
L 185.749594 291.043709 
L 186.107347 291.043709 
L 186.107347 290.517023 
L 188.542112 290.517023 
L 188.542112 289.990337 
L 189.301926 289.990337 
L 189.301926 289.463651 
L 191.703488 289.463651 
L 191.703488 288.936964 
L 193.102689 288.936964 
L 193.102689 288.410278 
L 194.075011 288.410278 
L 194.075011 287.883592 
L 194.553093 287.883592 
L 194.553093 287.356906 
L 195.332247 287.356906 
L 195.332247 286.83022 
L 196.456375 286.83022 
L 196.456375 286.303534 
L 197.416079 286.303534 
L 197.416079 285.776848 
L 198.171125 285.776848 
L 198.171125 285.250162 
L 201.152065 285.250162 
L 201.152065 284.723476 
L 201.508544 284.723476 
L 201.541253 283.670104 
L 204.181224 283.670104 
L 204.181224 283.143418 
L 205.021237 283.143418 
L 205.021237 282.616732 
L 205.457388 282.616732 
L 205.457388 282.090045 
L 205.79279 282.090045 
L 205.79279 281.563359 
L 206.223481 281.563359 
L 206.223481 281.036673 
L 206.904019 281.036673 
L 206.904019 280.509987 
L 207.231961 280.509987 
L 207.231961 279.983301 
L 208.515787 279.983301 
L 208.515787 279.456615 
L 212.236644 279.456615 
L 212.236644 278.929929 
L 212.785386 278.929929 
L 212.785386 278.403243 
L 213.106811 278.403243 
L 213.106811 277.876557 
L 214.760447 277.876557 
L 214.760447 277.349871 
L 215.774633 277.349871 
L 215.774633 276.823185 
L 217.573635 276.823185 
L 217.573635 276.296499 
L 219.302583 276.296499 
L 219.302583 275.769812 
L 220.29157 275.769812 
L 220.29157 274.71644 
L 220.62506 274.71644 
L 220.62506 274.189754 
L 220.788691 274.189754 
L 220.788691 273.663068 
L 221.142716 273.663068 
L 221.142716 272.609696 
L 221.66922 272.609696 
L 221.66922 272.08301 
L 222.215836 272.08301 
L 222.215836 271.556324 
L 223.020024 271.556324 
L 223.020024 271.029638 
L 223.784955 271.029638 
L 223.784955 270.502952 
L 224.665879 270.502952 
L 224.665879 269.976266 
L 224.929733 269.976266 
L 224.929733 268.396207 
L 225.07019 268.396207 
L 225.179828 266.816149 
L 225.553297 266.816149 
L 225.553297 265.762777 
L 227.802519 265.762777 
L 227.802519 265.236091 
L 229.129049 265.236091 
L 229.129049 264.709405 
L 230.540461 264.709405 
L 230.540461 264.182719 
L 232.103094 264.182719 
L 232.103094 263.656033 
L 233.369097 263.656033 
L 233.369097 262.60266 
L 234.886891 262.60266 
L 234.886891 262.075974 
L 235.836652 262.075974 
L 235.836652 261.549288 
L 236.319338 261.549288 
L 236.319338 261.022602 
L 239.155065 261.022602 
L 239.155065 260.495916 
L 240.020701 260.495916 
L 240.020701 259.96923 
L 241.189117 259.96923 
L 241.189117 259.442544 
L 241.817354 259.442544 
L 241.817354 258.915858 
L 244.836025 258.915858 
L 244.836025 258.389172 
L 256.012899 258.389172 
L 256.012899 257.862486 
L 262.589559 257.862486 
L 262.589559 257.3358 
L 280.09047 257.3358 
L 280.09047 256.809114 
L 338.688 256.809114 
L 338.688 256.809114 
" style="fill:none;stroke:#9acd32;stroke-linecap:square;stroke-width:1.5;"/>
   </g>
   <g id="line2d_61">
    <defs>
     <path d="M 0 -6 
L -6 6 
L 6 6 
z
" id="md91de010e0" style="stroke:#9acd32;stroke-linejoin:miter;stroke-width:1.5;"/>
    </defs>
    <g>
     <use style="fill-opacity:0;stroke:#9acd32;stroke-linejoin:miter;stroke-width:1.5;" x="225.553297" xlink:href="#md91de010e0" y="266.816149"/>
     <use style="fill-opacity:0;stroke:#9acd32;stroke-linejoin:miter;stroke-width:1.5;" x="280.09047" xlink:href="#md91de010e0" y="257.3358"/>
     <use style="fill-opacity:0;stroke:#9acd32;stroke-linejoin:miter;stroke-width:1.5;" x="280.09047" xlink:href="#md91de010e0" y="256.809114"/>
     <use style="fill-opacity:0;stroke:#9acd32;stroke-linejoin:miter;stroke-width:1.5;" x="338.688" xlink:href="#md91de010e0" y="256.809114"/>
    </g>
   </g>
   <g id="line2d_62">
    <path style="fill:none;stroke:#9acd32;stroke-linecap:square;stroke-width:1.5;"/>
    <g/>
   </g>
   <g id="line2d_63">
    <path clip-path="url(#pf742a12d38)" d="M 218.221714 276.296499 
" style="fill:none;stroke:#9acd32;stroke-linecap:square;stroke-width:1.5;"/>
    <defs>
     <path d="M -12 12 
L 12 -12 
M -12 -12 
L 12 12 
" id="m27e585745a" style="stroke:#9acd32;"/>
    </defs>
    <g clip-path="url(#pf742a12d38)">
     <use style="fill:#9acd32;stroke:#9acd32;" x="218.221714" xlink:href="#m27e585745a" y="276.296499"/>
    </g>
   </g>
   <g id="line2d_64">
    <defs>
     <path d="M 0 1.5 
C 0.397805 1.5 0.77937 1.341951 1.06066 1.06066 
C 1.341951 0.77937 1.5 0.397805 1.5 0 
C 1.5 -0.397805 1.341951 -0.77937 1.06066 -1.06066 
C 0.77937 -1.341951 0.397805 -1.5 0 -1.5 
C -0.397805 -1.5 -0.77937 -1.341951 -1.06066 -1.06066 
C -1.341951 -0.77937 -1.5 -0.397805 -1.5 0 
C -1.5 0.397805 -1.341951 0.77937 -1.06066 1.06066 
C -0.77937 1.341951 -0.397805 1.5 0 1.5 
z
" id="meb3231fc91" style="stroke:#00bfbf;"/>
    </defs>
    <g>
     <use style="fill:#00bfbf;stroke:#00bfbf;" x="281.07815" xlink:href="#meb3231fc91" y="256.809114"/>
     <use style="fill:#00bfbf;stroke:#00bfbf;" x="281.07815" xlink:href="#meb3231fc91" y="256.809114"/>
    </g>
   </g>
   <g id="line2d_65">
    <path d="M 154.747816 298.944 
L 154.747816 298.417314 
L 162.585379 298.417314 
L 162.585379 297.890628 
L 167.105982 297.890628 
L 167.105982 297.363942 
L 169.724059 297.363942 
L 169.724059 296.837256 
L 170.326903 296.837256 
L 170.326903 296.31057 
L 172.235384 296.31057 
L 172.235384 295.783884 
L 173.339863 295.783884 
L 173.339863 295.257197 
L 174.732584 295.257197 
L 174.732584 294.730511 
L 176.190077 294.730511 
L 176.190077 294.203825 
L 176.706692 294.203825 
L 176.706692 293.150453 
L 183.191044 293.150453 
L 183.191044 292.623767 
L 184.272134 292.623767 
L 184.272134 292.097081 
L 192.417883 292.097081 
L 192.417883 291.570395 
L 194.252384 291.570395 
L 194.252384 291.043709 
L 194.863353 291.043709 
L 194.863353 290.517023 
L 196.435707 290.517023 
L 196.435707 289.990337 
L 197.465458 289.990337 
L 197.465458 289.463651 
L 197.989579 289.463651 
L 197.989579 288.936964 
L 199.038972 288.936964 
L 199.038972 288.410278 
L 201.096283 288.410278 
L 201.096283 287.883592 
L 201.257562 287.883592 
L 201.257562 287.356906 
L 202.772133 287.356906 
L 202.772133 286.83022 
L 204.075576 286.83022 
L 204.075576 286.303534 
L 206.245675 286.303534 
L 206.245675 285.776848 
L 206.430445 285.776848 
L 206.430445 285.250162 
L 206.668839 285.250162 
L 206.668839 284.723476 
L 209.4332 284.723476 
L 209.483356 283.670104 
L 209.626682 283.670104 
L 209.626682 283.143418 
L 210.57991 283.143418 
L 210.57991 282.616732 
L 211.941665 282.616732 
L 211.941665 282.090045 
L 212.783481 282.090045 
L 212.783481 281.563359 
L 213.177752 281.563359 
L 213.177752 281.036673 
L 213.407716 281.036673 
L 213.407716 280.509987 
L 213.825563 280.509987 
L 213.825563 279.983301 
L 214.549905 279.983301 
L 214.549905 279.456615 
L 216.365691 279.456615 
L 216.365691 278.929929 
L 216.579303 278.929929 
L 216.579303 278.403243 
L 217.594618 278.403243 
L 217.594618 277.876557 
L 218.925136 277.876557 
L 218.925136 277.349871 
L 219.170628 277.349871 
L 219.170628 276.296499 
L 219.605793 276.296499 
L 219.605793 275.769812 
L 221.799536 275.769812 
L 221.799536 275.243126 
L 222.618093 275.243126 
L 222.618093 274.71644 
L 222.852875 274.71644 
L 222.852875 274.189754 
L 226.463306 274.189754 
L 226.482212 273.136382 
L 226.904069 273.136382 
L 226.904069 272.609696 
L 227.450852 272.609696 
L 227.450852 272.08301 
L 227.969448 272.08301 
L 228.040899 270.502952 
L 231.463524 270.502952 
L 231.463524 269.976266 
L 232.84866 269.976266 
L 232.84866 269.449579 
L 234.957971 269.449579 
L 234.957971 268.922893 
L 235.901441 268.922893 
L 235.901441 268.396207 
L 236.577506 268.396207 
L 236.577506 267.869521 
L 237.818489 267.869521 
L 237.818489 267.342835 
L 238.656645 267.342835 
L 238.656645 266.289463 
L 240.146457 266.289463 
L 240.146457 265.762777 
L 240.403398 265.762777 
L 240.403398 264.709405 
L 240.580323 264.709405 
L 240.612906 263.656033 
L 240.777876 263.656033 
L 240.777876 262.60266 
L 245.005563 262.60266 
L 245.005563 262.075974 
L 248.299374 262.075974 
L 248.299374 261.549288 
L 252.068772 261.549288 
L 252.068772 261.022602 
L 262.905141 261.022602 
L 262.905141 260.495916 
L 263.938381 260.495916 
L 263.938381 259.442544 
L 266.305693 259.442544 
L 266.305693 258.915858 
L 274.185565 258.915858 
L 274.185565 258.389172 
L 280.102436 258.389172 
L 280.102436 257.862486 
L 280.597116 257.862486 
L 280.597116 257.3358 
L 281.07815 257.3358 
L 281.07815 256.809114 
L 338.688 256.809114 
L 338.688 256.809114 
" style="fill:none;stroke:#00bfbf;stroke-linecap:square;stroke-width:1.5;"/>
   </g>
   <g id="line2d_66">
    <defs>
     <path d="M 0 -6 
L -5.706339 -1.854102 
L -3.526712 4.854102 
L 3.526712 4.854102 
L 5.706339 -1.854102 
z
" id="m17e35f55c5" style="stroke:#00bfbf;stroke-linejoin:miter;stroke-width:1.5;"/>
    </defs>
    <g>
     <use style="fill-opacity:0;stroke:#00bfbf;stroke-linejoin:miter;stroke-width:1.5;" x="211.941665" xlink:href="#m17e35f55c5" y="282.616732"/>
     <use style="fill-opacity:0;stroke:#00bfbf;stroke-linejoin:miter;stroke-width:1.5;" x="266.305693" xlink:href="#m17e35f55c5" y="259.442544"/>
     <use style="fill-opacity:0;stroke:#00bfbf;stroke-linejoin:miter;stroke-width:1.5;" x="281.07815" xlink:href="#m17e35f55c5" y="256.809114"/>
     <use style="fill-opacity:0;stroke:#00bfbf;stroke-linejoin:miter;stroke-width:1.5;" x="338.688" xlink:href="#m17e35f55c5" y="256.809114"/>
    </g>
   </g>
   <g id="line2d_67">
    <path style="fill:none;stroke:#00bfbf;stroke-linecap:square;stroke-width:1.5;"/>
    <g/>
   </g>
   <g id="line2d_68">
    <path clip-path="url(#pf742a12d38)" d="M 218.221714 277.876557 
" style="fill:none;stroke:#00bfbf;stroke-linecap:square;stroke-width:1.5;"/>
    <defs>
     <path d="M -12 12 
L 12 -12 
M -12 -12 
L 12 12 
" id="mb654b127be" style="stroke:#00bfbf;"/>
    </defs>
    <g clip-path="url(#pf742a12d38)">
     <use style="fill:#00bfbf;stroke:#00bfbf;" x="218.221714" xlink:href="#mb654b127be" y="277.876557"/>
    </g>
   </g>
   <g id="line2d_69">
    <path d="M 338.688 288.410278 
L 369.60768 293.571802 
" style="fill:none;stroke:#6495ed;stroke-linecap:square;stroke-width:1.5;"/>
    <g>
     <use style="fill-opacity:0;stroke:#6495ed;stroke-linejoin:miter;stroke-width:1.5;" x="338.688" xlink:href="#me6bbd0bdff" y="288.410278"/>
     <use style="fill-opacity:0;stroke:#6495ed;stroke-linejoin:miter;stroke-width:1.5;" x="369.60768" xlink:href="#me6bbd0bdff" y="293.571802"/>
    </g>
   </g>
   <g id="line2d_70">
    <path d="M 338.688 277.876557 
L 369.60768 256.733873 
" style="fill:none;stroke:#ff00ff;stroke-linecap:square;stroke-width:1.5;"/>
    <g>
     <use style="fill-opacity:0;stroke:#ff00ff;stroke-linejoin:miter;stroke-width:1.5;" x="338.688" xlink:href="#m61fba2b118" y="277.876557"/>
     <use style="fill-opacity:0;stroke:#ff00ff;stroke-linejoin:miter;stroke-width:1.5;" x="369.60768" xlink:href="#m61fba2b118" y="256.733873"/>
    </g>
   </g>
   <g id="line2d_71">
    <path d="M 338.688 277.876557 
L 369.60768 219.895943 
" style="fill:none;stroke:#ff7500;stroke-linecap:square;stroke-width:1.5;"/>
    <g>
     <use style="fill-opacity:0;stroke:#ff7500;stroke-linejoin:bevel;stroke-width:1.5;" x="338.688" xlink:href="#m2842eb7243" y="277.876557"/>
     <use style="fill-opacity:0;stroke:#ff7500;stroke-linejoin:bevel;stroke-width:1.5;" x="369.60768" xlink:href="#m2842eb7243" y="219.895943"/>
    </g>
   </g>
   <g id="line2d_72">
    <path d="M 338.688 256.809114 
L 369.60768 183.058014 
" style="fill:none;stroke:#00bfbf;stroke-linecap:square;stroke-width:1.5;"/>
    <g>
     <use style="fill-opacity:0;stroke:#00bfbf;stroke-linejoin:miter;stroke-width:1.5;" x="338.688" xlink:href="#m17e35f55c5" y="256.809114"/>
     <use style="fill-opacity:0;stroke:#00bfbf;stroke-linejoin:miter;stroke-width:1.5;" x="369.60768" xlink:href="#m17e35f55c5" y="183.058014"/>
    </g>
   </g>
   <g id="line2d_73">
    <path d="M 338.688 256.809114 
L 369.60768 146.220085 
" style="fill:none;stroke:#9acd32;stroke-linecap:square;stroke-width:1.5;"/>
    <g>
     <use style="fill-opacity:0;stroke:#9acd32;stroke-linejoin:miter;stroke-width:1.5;" x="338.688" xlink:href="#md91de010e0" y="256.809114"/>
     <use style="fill-opacity:0;stroke:#9acd32;stroke-linejoin:miter;stroke-width:1.5;" x="369.60768" xlink:href="#md91de010e0" y="146.220085"/>
    </g>
   </g>
   <g id="line2d_74">
    <path d="M 338.688 246.275392 
L 369.60768 109.382156 
" style="fill:none;stroke:#000080;stroke-linecap:square;stroke-width:1.5;"/>
    <g>
     <use style="fill-opacity:0;stroke:#000080;stroke-width:1.5;" x="338.688" xlink:href="#m7c2c6a5e26" y="246.275392"/>
     <use style="fill-opacity:0;stroke:#000080;stroke-width:1.5;" x="369.60768" xlink:href="#m7c2c6a5e26" y="109.382156"/>
    </g>
   </g>
   <g id="line2d_75">
    <path d="M 338.688 219.941088 
L 369.60768 72.544226 
" style="fill:none;stroke:#ff0000;stroke-linecap:square;stroke-width:1.5;"/>
    <g>
     <use style="fill-opacity:0;stroke:#ff0000;stroke-linejoin:miter;stroke-width:1.5;" x="338.688" xlink:href="#mc24e025472" y="219.941088"/>
     <use style="fill-opacity:0;stroke:#ff0000;stroke-linejoin:miter;stroke-width:1.5;" x="369.60768" xlink:href="#mc24e025472" y="72.544226"/>
    </g>
   </g>
   <g id="line2d_76">
    <path d="M 338.688 298.944 
L 338.688 30.334099 
" style="fill:none;stroke:#000000;stroke-linecap:square;stroke-width:1.5;"/>
   </g>
   <g id="patch_3">
    <path d="M 57.6 298.944 
L 57.6 27.648 
" style="fill:none;stroke:#000000;stroke-linecap:square;stroke-linejoin:miter;stroke-width:0.8;"/>
   </g>
   <g id="patch_4">
    <path d="M 338.688 298.944 
L 338.688 27.648 
" style="fill:none;stroke:#000000;stroke-linecap:square;stroke-linejoin:miter;stroke-width:0.8;"/>
   </g>
   <g id="patch_5">
    <path d="M 57.6 298.944 
L 338.688 298.944 
" style="fill:none;stroke:#000000;stroke-linecap:square;stroke-linejoin:miter;stroke-width:0.8;"/>
   </g>
   <g id="patch_6">
    <path d="M 57.6 27.648 
L 338.688 27.648 
" style="fill:none;stroke:#000000;stroke-linecap:square;stroke-linejoin:miter;stroke-width:0.8;"/>
   </g>
   <g id="text_13">
    <!-- c1c2-2.98 -->
    <g transform="translate(375.22944 298.262739)scale(0.17 -0.17)">
     <defs>
      <path d="M 10.984375 1.515625 
L 10.984375 10.5 
Q 14.703125 8.734375 18.5 7.8125 
Q 22.3125 6.890625 25.984375 6.890625 
Q 35.75 6.890625 40.890625 13.453125 
Q 46.046875 20.015625 46.78125 33.40625 
Q 43.953125 29.203125 39.59375 26.953125 
Q 35.25 24.703125 29.984375 24.703125 
Q 19.046875 24.703125 12.671875 31.3125 
Q 6.296875 37.9375 6.296875 49.421875 
Q 6.296875 60.640625 12.9375 67.421875 
Q 19.578125 74.21875 30.609375 74.21875 
Q 43.265625 74.21875 49.921875 64.515625 
Q 56.59375 54.828125 56.59375 36.375 
Q 56.59375 19.140625 48.40625 8.859375 
Q 40.234375 -1.421875 26.421875 -1.421875 
Q 22.703125 -1.421875 18.890625 -0.6875 
Q 15.09375 0.046875 10.984375 1.515625 
z
M 30.609375 32.421875 
Q 37.25 32.421875 41.125 36.953125 
Q 45.015625 41.5 45.015625 49.421875 
Q 45.015625 57.28125 41.125 61.84375 
Q 37.25 66.40625 30.609375 66.40625 
Q 23.96875 66.40625 20.09375 61.84375 
Q 16.21875 57.28125 16.21875 49.421875 
Q 16.21875 41.5 20.09375 36.953125 
Q 23.96875 32.421875 30.609375 32.421875 
z
" id="DejaVuSans-57"/>
     </defs>
     <use xlink:href="#DejaVuSans-99"/>
     <use x="54.980469" xlink:href="#DejaVuSans-49"/>
     <use x="118.603516" xlink:href="#DejaVuSans-99"/>
     <use x="173.583984" xlink:href="#DejaVuSans-50"/>
     <use x="237.207031" xlink:href="#DejaVuSans-45"/>
     <use x="273.291016" xlink:href="#DejaVuSans-50"/>
     <use x="336.914062" xlink:href="#DejaVuSans-46"/>
     <use x="368.701172" xlink:href="#DejaVuSans-57"/>
     <use x="432.324219" xlink:href="#DejaVuSans-56"/>
    </g>
   </g>
   <g id="text_14">
    <!-- c1-2.9888 -->
    <g transform="translate(375.22944 261.42481)scale(0.17 -0.17)">
     <use xlink:href="#DejaVuSans-99"/>
     <use x="54.980469" xlink:href="#DejaVuSans-49"/>
     <use x="118.603516" xlink:href="#DejaVuSans-45"/>
     <use x="154.6875" xlink:href="#DejaVuSans-50"/>
     <use x="218.310547" xlink:href="#DejaVuSans-46"/>
     <use x="250.097656" xlink:href="#DejaVuSans-57"/>
     <use x="313.720703" xlink:href="#DejaVuSans-56"/>
     <use x="377.34375" xlink:href="#DejaVuSans-56"/>
     <use x="440.966797" xlink:href="#DejaVuSans-56"/>
    </g>
   </g>
   <g id="text_15">
    <!-- c2-2.9888 -->
    <g transform="translate(375.22944 224.586881)scale(0.17 -0.17)">
     <use xlink:href="#DejaVuSans-99"/>
     <use x="54.980469" xlink:href="#DejaVuSans-50"/>
     <use x="118.603516" xlink:href="#DejaVuSans-45"/>
     <use x="154.6875" xlink:href="#DejaVuSans-50"/>
     <use x="218.310547" xlink:href="#DejaVuSans-46"/>
     <use x="250.097656" xlink:href="#DejaVuSans-57"/>
     <use x="313.720703" xlink:href="#DejaVuSans-56"/>
     <use x="377.34375" xlink:href="#DejaVuSans-56"/>
     <use x="440.966797" xlink:href="#DejaVuSans-56"/>
    </g>
   </g>
   <g id="text_16">
    <!-- c2-0.7472 -->
    <g transform="translate(375.22944 187.748952)scale(0.17 -0.17)">
     <defs>
      <path d="M 8.203125 72.90625 
L 55.078125 72.90625 
L 55.078125 68.703125 
L 28.609375 0 
L 18.3125 0 
L 43.21875 64.59375 
L 8.203125 64.59375 
z
" id="DejaVuSans-55"/>
     </defs>
     <use xlink:href="#DejaVuSans-99"/>
     <use x="54.980469" xlink:href="#DejaVuSans-50"/>
     <use x="118.603516" xlink:href="#DejaVuSans-45"/>
     <use x="154.6875" xlink:href="#DejaVuSans-48"/>
     <use x="218.310547" xlink:href="#DejaVuSans-46"/>
     <use x="250.097656" xlink:href="#DejaVuSans-55"/>
     <use x="313.720703" xlink:href="#DejaVuSans-52"/>
     <use x="377.34375" xlink:href="#DejaVuSans-55"/>
     <use x="440.966797" xlink:href="#DejaVuSans-50"/>
    </g>
   </g>
   <g id="text_17">
    <!-- c1-0.7472 -->
    <g transform="translate(375.22944 150.911022)scale(0.17 -0.17)">
     <use xlink:href="#DejaVuSans-99"/>
     <use x="54.980469" xlink:href="#DejaVuSans-49"/>
     <use x="118.603516" xlink:href="#DejaVuSans-45"/>
     <use x="154.6875" xlink:href="#DejaVuSans-48"/>
     <use x="218.310547" xlink:href="#DejaVuSans-46"/>
     <use x="250.097656" xlink:href="#DejaVuSans-55"/>
     <use x="313.720703" xlink:href="#DejaVuSans-52"/>
     <use x="377.34375" xlink:href="#DejaVuSans-55"/>
     <use x="440.966797" xlink:href="#DejaVuSans-50"/>
    </g>
   </g>
   <g id="text_18">
    <!-- c1c2-1.49 -->
    <g transform="translate(375.22944 114.073093)scale(0.17 -0.17)">
     <use xlink:href="#DejaVuSans-99"/>
     <use x="54.980469" xlink:href="#DejaVuSans-49"/>
     <use x="118.603516" xlink:href="#DejaVuSans-99"/>
     <use x="173.583984" xlink:href="#DejaVuSans-50"/>
     <use x="237.207031" xlink:href="#DejaVuSans-45"/>
     <use x="273.291016" xlink:href="#DejaVuSans-49"/>
     <use x="336.914062" xlink:href="#DejaVuSans-46"/>
     <use x="368.701172" xlink:href="#DejaVuSans-52"/>
     <use x="432.324219" xlink:href="#DejaVuSans-57"/>
    </g>
   </g>
   <g id="text_19">
    <!-- c1c2-0.74 -->
    <g transform="translate(375.22944 77.235164)scale(0.17 -0.17)">
     <use xlink:href="#DejaVuSans-99"/>
     <use x="54.980469" xlink:href="#DejaVuSans-49"/>
     <use x="118.603516" xlink:href="#DejaVuSans-99"/>
     <use x="173.583984" xlink:href="#DejaVuSans-50"/>
     <use x="237.207031" xlink:href="#DejaVuSans-45"/>
     <use x="273.291016" xlink:href="#DejaVuSans-48"/>
     <use x="336.914062" xlink:href="#DejaVuSans-46"/>
     <use x="368.701172" xlink:href="#DejaVuSans-55"/>
     <use x="432.324219" xlink:href="#DejaVuSans-52"/>
    </g>
   </g>
   <g id="text_20">
    <!-- best 2009 -->
    <g transform="translate(375.22944 40.397235)scale(0.17 -0.17)">
     <defs>
      <path d="M 48.6875 27.296875 
Q 48.6875 37.203125 44.609375 42.84375 
Q 40.53125 48.484375 33.40625 48.484375 
Q 26.265625 48.484375 22.1875 42.84375 
Q 18.109375 37.203125 18.109375 27.296875 
Q 18.109375 17.390625 22.1875 11.75 
Q 26.265625 6.109375 33.40625 6.109375 
Q 40.53125 6.109375 44.609375 11.75 
Q 48.6875 17.390625 48.6875 27.296875 
z
M 18.109375 46.390625 
Q 20.953125 51.265625 25.265625 53.625 
Q 29.59375 56 35.59375 56 
Q 45.5625 56 51.78125 48.09375 
Q 58.015625 40.1875 58.015625 27.296875 
Q 58.015625 14.40625 51.78125 6.484375 
Q 45.5625 -1.421875 35.59375 -1.421875 
Q 29.59375 -1.421875 25.265625 0.953125 
Q 20.953125 3.328125 18.109375 8.203125 
L 18.109375 0 
L 9.078125 0 
L 9.078125 75.984375 
L 18.109375 75.984375 
z
" id="DejaVuSans-98"/>
     </defs>
     <use xlink:href="#DejaVuSans-98"/>
     <use x="63.476562" xlink:href="#DejaVuSans-101"/>
     <use x="125" xlink:href="#DejaVuSans-115"/>
     <use x="177.099609" xlink:href="#DejaVuSans-116"/>
     <use x="216.308594" xlink:href="#DejaVuSans-32"/>
     <use x="248.095703" xlink:href="#DejaVuSans-50"/>
     <use x="311.71875" xlink:href="#DejaVuSans-48"/>
     <use x="375.341797" xlink:href="#DejaVuSans-48"/>
     <use x="438.964844" xlink:href="#DejaVuSans-57"/>
    </g>
   </g>
   <g id="text_21">
    <!-- bbob f10, 5-D -->
    <g transform="translate(60.41088 38.111366)scale(0.102 -0.102)">
     <defs>
      <path d="M 10.796875 72.90625 
L 49.515625 72.90625 
L 49.515625 64.59375 
L 19.828125 64.59375 
L 19.828125 46.734375 
Q 21.96875 47.46875 24.109375 47.828125 
Q 26.265625 48.1875 28.421875 48.1875 
Q 40.625 48.1875 47.75 41.5 
Q 54.890625 34.8125 54.890625 23.390625 
Q 54.890625 11.625 47.5625 5.09375 
Q 40.234375 -1.421875 26.90625 -1.421875 
Q 22.3125 -1.421875 17.546875 -0.640625 
Q 12.796875 0.140625 7.71875 1.703125 
L 7.71875 11.625 
Q 12.109375 9.234375 16.796875 8.0625 
Q 21.484375 6.890625 26.703125 6.890625 
Q 35.15625 6.890625 40.078125 11.328125 
Q 45.015625 15.765625 45.015625 23.390625 
Q 45.015625 31 40.078125 35.4375 
Q 35.15625 39.890625 26.703125 39.890625 
Q 22.75 39.890625 18.8125 39.015625 
Q 14.890625 38.140625 10.796875 36.28125 
z
" id="DejaVuSans-53"/>
      <path d="M 19.671875 64.796875 
L 19.671875 8.109375 
L 31.59375 8.109375 
Q 46.6875 8.109375 53.6875 14.9375 
Q 60.6875 21.78125 60.6875 36.53125 
Q 60.6875 51.171875 53.6875 57.984375 
Q 46.6875 64.796875 31.59375 64.796875 
z
M 9.8125 72.90625 
L 30.078125 72.90625 
Q 51.265625 72.90625 61.171875 64.09375 
Q 71.09375 55.28125 71.09375 36.53125 
Q 71.09375 17.671875 61.125 8.828125 
Q 51.171875 0 30.078125 0 
L 9.8125 0 
z
" id="DejaVuSans-68"/>
     </defs>
     <use xlink:href="#DejaVuSans-98"/>
     <use x="63.476562" xlink:href="#DejaVuSans-98"/>
     <use x="126.953125" xlink:href="#DejaVuSans-111"/>
     <use x="188.134766" xlink:href="#DejaVuSans-98"/>
     <use x="251.611328" xlink:href="#DejaVuSans-32"/>
     <use x="283.398438" xlink:href="#DejaVuSans-102"/>
     <use x="318.603516" xlink:href="#DejaVuSans-49"/>
     <use x="382.226562" xlink:href="#DejaVuSans-48"/>
     <use x="445.849609" xlink:href="#DejaVuSans-44"/>
     <use x="477.636719" xlink:href="#DejaVuSans-32"/>
     <use x="509.423828" xlink:href="#DejaVuSans-53"/>
     <use x="573.046875" xlink:href="#DejaVuSans-45"/>
     <use x="609.130859" xlink:href="#DejaVuSans-68"/>
    </g>
    <!-- 51 targets: 100..1e-08 -->
    <g transform="translate(60.41088 49.533135)scale(0.102 -0.102)">
     <defs>
      <path d="M 11.71875 12.40625 
L 22.015625 12.40625 
L 22.015625 0 
L 11.71875 0 
z
M 11.71875 51.703125 
L 22.015625 51.703125 
L 22.015625 39.3125 
L 11.71875 39.3125 
z
" id="DejaVuSans-58"/>
     </defs>
     <use xlink:href="#DejaVuSans-53"/>
     <use x="63.623047" xlink:href="#DejaVuSans-49"/>
     <use x="127.246094" xlink:href="#DejaVuSans-32"/>
     <use x="159.033203" xlink:href="#DejaVuSans-116"/>
     <use x="198.242188" xlink:href="#DejaVuSans-97"/>
     <use x="259.521484" xlink:href="#DejaVuSans-114"/>
     <use x="298.884766" xlink:href="#DejaVuSans-103"/>
     <use x="362.361328" xlink:href="#DejaVuSans-101"/>
     <use x="423.884766" xlink:href="#DejaVuSans-116"/>
     <use x="463.09375" xlink:href="#DejaVuSans-115"/>
     <use x="515.193359" xlink:href="#DejaVuSans-58"/>
     <use x="548.884766" xlink:href="#DejaVuSans-32"/>
     <use x="580.671875" xlink:href="#DejaVuSans-49"/>
     <use x="644.294922" xlink:href="#DejaVuSans-48"/>
     <use x="707.917969" xlink:href="#DejaVuSans-48"/>
     <use x="771.541016" xlink:href="#DejaVuSans-46"/>
     <use x="803.328125" xlink:href="#DejaVuSans-46"/>
     <use x="835.115234" xlink:href="#DejaVuSans-49"/>
     <use x="898.738281" xlink:href="#DejaVuSans-101"/>
     <use x="960.261719" xlink:href="#DejaVuSans-45"/>
     <use x="996.345703" xlink:href="#DejaVuSans-48"/>
     <use x="1059.96875" xlink:href="#DejaVuSans-56"/>
    </g>
    <!-- 15 instances -->
    <g transform="translate(60.41088 60.954904)scale(0.102 -0.102)">
     <use xlink:href="#DejaVuSans-49"/>
     <use x="63.623047" xlink:href="#DejaVuSans-53"/>
     <use x="127.246094" xlink:href="#DejaVuSans-32"/>
     <use x="159.033203" xlink:href="#DejaVuSans-105"/>
     <use x="186.816406" xlink:href="#DejaVuSans-110"/>
     <use x="250.195312" xlink:href="#DejaVuSans-115"/>
     <use x="302.294922" xlink:href="#DejaVuSans-116"/>
     <use x="341.503906" xlink:href="#DejaVuSans-97"/>
     <use x="402.783203" xlink:href="#DejaVuSans-110"/>
     <use x="466.162109" xlink:href="#DejaVuSans-99"/>
     <use x="521.142578" xlink:href="#DejaVuSans-101"/>
     <use x="582.666016" xlink:href="#DejaVuSans-115"/>
    </g>
   </g>
   <g id="text_22">
    <!-- v2.4 -->
    <g style="fill:#808080;" transform="translate(187.233062 294.151352)scale(0.1 -0.1)">
     <use xlink:href="#DejaVuSans-118"/>
     <use x="59.179688" xlink:href="#DejaVuSans-50"/>
     <use x="122.802734" xlink:href="#DejaVuSans-46"/>
     <use x="154.589844" xlink:href="#DejaVuSans-52"/>
    </g>
   </g>
   <g id="text_23">
    <!-- 10 Ellipsoid -->
    <g transform="translate(140.784625 21.648)scale(0.2 -0.2)">
     <defs>
      <path d="M 9.8125 72.90625 
L 55.90625 72.90625 
L 55.90625 64.59375 
L 19.671875 64.59375 
L 19.671875 43.015625 
L 54.390625 43.015625 
L 54.390625 34.71875 
L 19.671875 34.71875 
L 19.671875 8.296875 
L 56.78125 8.296875 
L 56.78125 0 
L 9.8125 0 
z
" id="DejaVuSans-69"/>
     </defs>
     <use xlink:href="#DejaVuSans-49"/>
     <use x="63.623047" xlink:href="#DejaVuSans-48"/>
     <use x="127.246094" xlink:href="#DejaVuSans-32"/>
     <use x="159.033203" xlink:href="#DejaVuSans-69"/>
     <use x="222.216797" xlink:href="#DejaVuSans-108"/>
     <use x="250" xlink:href="#DejaVuSans-108"/>
     <use x="277.783203" xlink:href="#DejaVuSans-105"/>
     <use x="305.566406" xlink:href="#DejaVuSans-112"/>
     <use x="369.042969" xlink:href="#DejaVuSans-115"/>
     <use x="421.142578" xlink:href="#DejaVuSans-111"/>
     <use x="482.324219" xlink:href="#DejaVuSans-105"/>
     <use x="510.107422" xlink:href="#DejaVuSans-100"/>
    </g>
   </g>
  </g>
 </g>
 <defs>
  <clipPath id="pf742a12d38">
   <rect height="271.296" width="281.088" x="57.6" y="27.648"/>
  </clipPath>
 </defs>
</svg>
