<?xml version="1.0" encoding="utf-8" standalone="no"?>
<!DOCTYPE svg PUBLIC "-//W3C//DTD SVG 1.1//EN"
  "http://www.w3.org/Graphics/SVG/1.1/DTD/svg11.dtd">
<!-- Created with matplotlib (https://matplotlib.org/) -->
<svg height="345.6pt" version="1.1" viewBox="0 0 460.8 345.6" width="460.8pt" xmlns="http://www.w3.org/2000/svg" xmlns:xlink="http://www.w3.org/1999/xlink">
 <metadata>
  <rdf:RDF xmlns:cc="http://creativecommons.org/ns#" xmlns:dc="http://purl.org/dc/elements/1.1/" xmlns:rdf="http://www.w3.org/1999/02/22-rdf-syntax-ns#">
   <cc:Work>
    <dc:type rdf:resource="http://purl.org/dc/dcmitype/StillImage"/>
    <dc:date>2021-04-19T06:08:20.381220</dc:date>
    <dc:format>image/svg+xml</dc:format>
    <dc:creator>
     <cc:Agent>
      <dc:title>Matplotlib v3.3.4, https://matplotlib.org/</dc:title>
     </cc:Agent>
    </dc:creator>
   </cc:Work>
  </rdf:RDF>
 </metadata>
 <defs>
  <style type="text/css">*{stroke-linecap:butt;stroke-linejoin:round;}</style>
 </defs>
 <g id="figure_1">
  <g id="patch_1">
   <path d="M 0 345.6 
L 460.8 345.6 
L 460.8 0 
L 0 0 
z
" style="fill:#ffffff;"/>
  </g>
  <g id="axes_1">
   <g id="patch_2">
    <path d="M 57.6 298.944 
L 338.688 298.944 
L 338.688 27.648 
L 57.6 27.648 
z
" style="fill:#ffffff;"/>
   </g>
   <g id="line2d_1">
    <path d="M 24.515591 298.944 
L 24.515591 293.677139 
L 39.291857 293.677139 
L 39.291857 288.410278 
L 88.255778 288.410278 
L 88.255778 283.143418 
L 101.785851 283.143418 
L 101.785851 277.876557 
L 111.104637 277.876557 
L 111.104637 272.609696 
L 117.514373 272.609696 
L 117.514373 267.342835 
L 122.885768 267.342835 
L 122.885768 262.075974 
L 127.325746 262.075974 
L 127.325746 256.809114 
L 132.577122 256.809114 
L 132.577122 251.542253 
L 136.237377 251.542253 
L 136.237377 246.275392 
L 149.876341 246.275392 
L 149.876341 241.008531 
L 156.080243 241.008531 
L 156.080243 235.74167 
L 158.70027 235.74167 
L 158.70027 230.47481 
L 162.162965 230.47481 
L 162.162965 225.207949 
L 176.40336 225.207949 
L 176.40336 219.941088 
L 177.67923 219.941088 
L 177.67923 214.674227 
L 179.348583 214.674227 
L 179.348583 209.407366 
L 180.640336 209.407366 
L 180.640336 204.140506 
L 181.997465 204.140506 
L 181.997465 198.873645 
L 183.118098 198.873645 
L 183.118098 193.606784 
L 184.27641 193.606784 
L 184.27641 188.339923 
L 185.573597 188.339923 
L 185.573597 183.073062 
L 187.489524 183.073062 
L 187.489524 177.806202 
L 197.547541 177.806202 
L 197.547541 172.539341 
L 198.508401 172.539341 
L 198.508401 167.27248 
L 199.297163 167.27248 
L 199.297163 162.005619 
L 200.423733 162.005619 
L 200.423733 156.738758 
L 201.700285 156.738758 
L 201.700285 151.471897 
L 203.923418 151.471897 
L 203.923418 146.205037 
L 204.641658 146.205037 
L 204.641658 140.938176 
L 206.053846 140.938176 
L 206.053846 135.671315 
L 206.867606 135.671315 
L 206.867606 130.404454 
L 208.107761 130.404454 
L 208.107761 125.137593 
L 208.40591 125.137593 
L 208.40591 119.870733 
L 210.619193 119.870733 
L 210.619193 114.603872 
L 210.790141 114.603872 
L 210.790141 109.337011 
L 210.908577 109.337011 
L 210.908577 104.07015 
L 211.006311 104.07015 
L 211.006311 98.803289 
L 211.080141 98.803289 
L 211.080141 93.536429 
L 211.173655 93.536429 
L 211.173655 88.269568 
L 211.291859 88.269568 
L 211.291859 83.002707 
L 211.458554 83.002707 
L 211.458554 77.735846 
L 211.721414 77.735846 
L 211.721414 72.468985 
L 212.487752 72.468985 
L 212.487752 67.202125 
L 212.670562 67.202125 
L 212.670562 61.935264 
L 212.796578 61.935264 
L 212.796578 56.668403 
L 212.936925 56.668403 
L 212.936925 51.401542 
L 213.030884 51.401542 
L 213.030884 46.134681 
L 213.136833 46.134681 
L 213.136833 40.867821 
L 213.22926 40.867821 
L 213.22926 35.60096 
L 213.325472 35.60096 
L 213.325472 30.334099 
L 338.688 30.334099 
" style="fill:none;stroke:#f5deb3;stroke-linecap:square;stroke-width:4;"/>
   </g>
   <g id="line2d_2">
    <defs>
     <path d="M -0 7.778175 
L 7.778175 0 
L 0 -7.778175 
L -7.778175 -0 
z
" id="m71c187d8be" style="stroke:#f5deb3;stroke-linejoin:miter;stroke-width:1.5;"/>
    </defs>
    <g>
     <use style="fill:#f5deb3;stroke:#f5deb3;stroke-linejoin:miter;stroke-width:1.5;" x="158.70027" xlink:href="#m71c187d8be" y="230.47481"/>
     <use style="fill:#f5deb3;stroke:#f5deb3;stroke-linejoin:miter;stroke-width:1.5;" x="199.297163" xlink:href="#m71c187d8be" y="167.27248"/>
     <use style="fill:#f5deb3;stroke:#f5deb3;stroke-linejoin:miter;stroke-width:1.5;" x="213.325472" xlink:href="#m71c187d8be" y="35.60096"/>
     <use style="fill:#f5deb3;stroke:#f5deb3;stroke-linejoin:miter;stroke-width:1.5;" x="213.325472" xlink:href="#m71c187d8be" y="30.334099"/>
     <use style="fill:#f5deb3;stroke:#f5deb3;stroke-linejoin:miter;stroke-width:1.5;" x="213.325472" xlink:href="#m71c187d8be" y="30.334099"/>
     <use style="fill:#f5deb3;stroke:#f5deb3;stroke-linejoin:miter;stroke-width:1.5;" x="338.688" xlink:href="#m71c187d8be" y="30.334099"/>
    </g>
   </g>
   <g id="line2d_3">
    <path style="fill:none;stroke:#f5deb3;stroke-linecap:square;stroke-width:4;"/>
    <g/>
   </g>
   <g id="line2d_4">
    <path d="M 338.688 30.334099 
L 369.60768 35.706297 
" style="fill:none;stroke:#f5deb3;stroke-linecap:square;stroke-width:4;"/>
    <g>
     <use style="fill:#f5deb3;stroke:#f5deb3;stroke-linejoin:miter;stroke-width:1.5;" x="338.688" xlink:href="#m71c187d8be" y="30.334099"/>
     <use style="fill:#f5deb3;stroke:#f5deb3;stroke-linejoin:miter;stroke-width:1.5;" x="369.60768" xlink:href="#m71c187d8be" y="35.706297"/>
    </g>
   </g>
   <g id="matplotlib.axis_1">
    <g id="xtick_1">
     <g id="line2d_5">
      <path clip-path="url(#p6c2e399839)" d="M 57.6 298.944 
L 57.6 27.648 
" style="fill:none;stroke:#b0b0b0;stroke-linecap:square;stroke-width:0.8;"/>
     </g>
     <g id="line2d_6">
      <defs>
       <path d="M 0 0 
L 0 3.5 
" id="m77767e6e89" style="stroke:#000000;stroke-width:0.8;"/>
      </defs>
      <g>
       <use style="stroke:#000000;stroke-width:0.8;" x="57.6" xlink:href="#m77767e6e89" y="298.944"/>
      </g>
     </g>
     <g id="text_1">
      <!-- 0 -->
      <g transform="translate(51.2375 321.140875)scale(0.2 -0.2)">
       <defs>
        <path d="M 31.78125 66.40625 
Q 24.171875 66.40625 20.328125 58.90625 
Q 16.5 51.421875 16.5 36.375 
Q 16.5 21.390625 20.328125 13.890625 
Q 24.171875 6.390625 31.78125 6.390625 
Q 39.453125 6.390625 43.28125 13.890625 
Q 47.125 21.390625 47.125 36.375 
Q 47.125 51.421875 43.28125 58.90625 
Q 39.453125 66.40625 31.78125 66.40625 
z
M 31.78125 74.21875 
Q 44.046875 74.21875 50.515625 64.515625 
Q 56.984375 54.828125 56.984375 36.375 
Q 56.984375 17.96875 50.515625 8.265625 
Q 44.046875 -1.421875 31.78125 -1.421875 
Q 19.53125 -1.421875 13.0625 8.265625 
Q 6.59375 17.96875 6.59375 36.375 
Q 6.59375 54.828125 13.0625 64.515625 
Q 19.53125 74.21875 31.78125 74.21875 
z
" id="DejaVuSans-48"/>
       </defs>
       <use xlink:href="#DejaVuSans-48"/>
      </g>
     </g>
    </g>
    <g id="xtick_2">
     <g id="line2d_7">
      <path clip-path="url(#p6c2e399839)" d="M 137.910857 298.944 
L 137.910857 27.648 
" style="fill:none;stroke:#b0b0b0;stroke-linecap:square;stroke-width:0.8;"/>
     </g>
     <g id="line2d_8">
      <g>
       <use style="stroke:#000000;stroke-width:0.8;" x="137.910857" xlink:href="#m77767e6e89" y="298.944"/>
      </g>
     </g>
     <g id="text_2">
      <!-- 2 -->
      <g transform="translate(131.548357 321.140875)scale(0.2 -0.2)">
       <defs>
        <path d="M 19.1875 8.296875 
L 53.609375 8.296875 
L 53.609375 0 
L 7.328125 0 
L 7.328125 8.296875 
Q 12.9375 14.109375 22.625 23.890625 
Q 32.328125 33.6875 34.8125 36.53125 
Q 39.546875 41.84375 41.421875 45.53125 
Q 43.3125 49.21875 43.3125 52.78125 
Q 43.3125 58.59375 39.234375 62.25 
Q 35.15625 65.921875 28.609375 65.921875 
Q 23.96875 65.921875 18.8125 64.3125 
Q 13.671875 62.703125 7.8125 59.421875 
L 7.8125 69.390625 
Q 13.765625 71.78125 18.9375 73 
Q 24.125 74.21875 28.421875 74.21875 
Q 39.75 74.21875 46.484375 68.546875 
Q 53.21875 62.890625 53.21875 53.421875 
Q 53.21875 48.921875 51.53125 44.890625 
Q 49.859375 40.875 45.40625 35.40625 
Q 44.1875 33.984375 37.640625 27.21875 
Q 31.109375 20.453125 19.1875 8.296875 
z
" id="DejaVuSans-50"/>
       </defs>
       <use xlink:href="#DejaVuSans-50"/>
      </g>
     </g>
    </g>
    <g id="xtick_3">
     <g id="line2d_9">
      <path clip-path="url(#p6c2e399839)" d="M 218.221714 298.944 
L 218.221714 27.648 
" style="fill:none;stroke:#b0b0b0;stroke-linecap:square;stroke-width:0.8;"/>
     </g>
     <g id="line2d_10">
      <g>
       <use style="stroke:#000000;stroke-width:0.8;" x="218.221714" xlink:href="#m77767e6e89" y="298.944"/>
      </g>
     </g>
     <g id="text_3">
      <!-- 4 -->
      <g transform="translate(211.859214 321.140875)scale(0.2 -0.2)">
       <defs>
        <path d="M 37.796875 64.3125 
L 12.890625 25.390625 
L 37.796875 25.390625 
z
M 35.203125 72.90625 
L 47.609375 72.90625 
L 47.609375 25.390625 
L 58.015625 25.390625 
L 58.015625 17.1875 
L 47.609375 17.1875 
L 47.609375 0 
L 37.796875 0 
L 37.796875 17.1875 
L 4.890625 17.1875 
L 4.890625 26.703125 
z
" id="DejaVuSans-52"/>
       </defs>
       <use xlink:href="#DejaVuSans-52"/>
      </g>
     </g>
    </g>
    <g id="xtick_4">
     <g id="line2d_11">
      <path clip-path="url(#p6c2e399839)" d="M 298.532571 298.944 
L 298.532571 27.648 
" style="fill:none;stroke:#b0b0b0;stroke-linecap:square;stroke-width:0.8;"/>
     </g>
     <g id="line2d_12">
      <g>
       <use style="stroke:#000000;stroke-width:0.8;" x="298.532571" xlink:href="#m77767e6e89" y="298.944"/>
      </g>
     </g>
     <g id="text_4">
      <!-- 6 -->
      <g transform="translate(292.170071 321.140875)scale(0.2 -0.2)">
       <defs>
        <path d="M 33.015625 40.375 
Q 26.375 40.375 22.484375 35.828125 
Q 18.609375 31.296875 18.609375 23.390625 
Q 18.609375 15.53125 22.484375 10.953125 
Q 26.375 6.390625 33.015625 6.390625 
Q 39.65625 6.390625 43.53125 10.953125 
Q 47.40625 15.53125 47.40625 23.390625 
Q 47.40625 31.296875 43.53125 35.828125 
Q 39.65625 40.375 33.015625 40.375 
z
M 52.59375 71.296875 
L 52.59375 62.3125 
Q 48.875 64.0625 45.09375 64.984375 
Q 41.3125 65.921875 37.59375 65.921875 
Q 27.828125 65.921875 22.671875 59.328125 
Q 17.53125 52.734375 16.796875 39.40625 
Q 19.671875 43.65625 24.015625 45.921875 
Q 28.375 48.1875 33.59375 48.1875 
Q 44.578125 48.1875 50.953125 41.515625 
Q 57.328125 34.859375 57.328125 23.390625 
Q 57.328125 12.15625 50.6875 5.359375 
Q 44.046875 -1.421875 33.015625 -1.421875 
Q 20.359375 -1.421875 13.671875 8.265625 
Q 6.984375 17.96875 6.984375 36.375 
Q 6.984375 53.65625 15.1875 63.9375 
Q 23.390625 74.21875 37.203125 74.21875 
Q 40.921875 74.21875 44.703125 73.484375 
Q 48.484375 72.75 52.59375 71.296875 
z
" id="DejaVuSans-54"/>
       </defs>
       <use xlink:href="#DejaVuSans-54"/>
      </g>
     </g>
    </g>
    <g id="xtick_5">
     <g id="line2d_13">
      <path clip-path="url(#p6c2e399839)" d="M 97.755429 298.944 
L 97.755429 27.648 
" style="fill:none;stroke:#b0b0b0;stroke-linecap:square;stroke-width:0.8;"/>
     </g>
     <g id="line2d_14">
      <defs>
       <path d="M 0 0 
L 0 2 
" id="m2e39b051bb" style="stroke:#000000;stroke-width:0.6;"/>
      </defs>
      <g>
       <use style="stroke:#000000;stroke-width:0.6;" x="97.755429" xlink:href="#m2e39b051bb" y="298.944"/>
      </g>
     </g>
    </g>
    <g id="xtick_6">
     <g id="line2d_15">
      <path clip-path="url(#p6c2e399839)" d="M 178.066286 298.944 
L 178.066286 27.648 
" style="fill:none;stroke:#b0b0b0;stroke-linecap:square;stroke-width:0.8;"/>
     </g>
     <g id="line2d_16">
      <g>
       <use style="stroke:#000000;stroke-width:0.6;" x="178.066286" xlink:href="#m2e39b051bb" y="298.944"/>
      </g>
     </g>
    </g>
    <g id="xtick_7">
     <g id="line2d_17">
      <path clip-path="url(#p6c2e399839)" d="M 258.377143 298.944 
L 258.377143 27.648 
" style="fill:none;stroke:#b0b0b0;stroke-linecap:square;stroke-width:0.8;"/>
     </g>
     <g id="line2d_18">
      <g>
       <use style="stroke:#000000;stroke-width:0.6;" x="258.377143" xlink:href="#m2e39b051bb" y="298.944"/>
      </g>
     </g>
    </g>
    <g id="xtick_8">
     <g id="line2d_19">
      <path clip-path="url(#p6c2e399839)" d="M 338.688 298.944 
L 338.688 27.648 
" style="fill:none;stroke:#b0b0b0;stroke-linecap:square;stroke-width:0.8;"/>
     </g>
     <g id="line2d_20">
      <g>
       <use style="stroke:#000000;stroke-width:0.6;" x="338.688" xlink:href="#m2e39b051bb" y="298.944"/>
      </g>
     </g>
    </g>
    <g id="text_5">
     <!-- log10(# f-evals / dimension) -->
     <g transform="translate(77.764078 342.217594)scale(0.17 -0.17)">
      <defs>
       <path d="M 9.421875 75.984375 
L 18.40625 75.984375 
L 18.40625 0 
L 9.421875 0 
z
" id="DejaVuSans-108"/>
       <path d="M 30.609375 48.390625 
Q 23.390625 48.390625 19.1875 42.75 
Q 14.984375 37.109375 14.984375 27.296875 
Q 14.984375 17.484375 19.15625 11.84375 
Q 23.34375 6.203125 30.609375 6.203125 
Q 37.796875 6.203125 41.984375 11.859375 
Q 46.1875 17.53125 46.1875 27.296875 
Q 46.1875 37.015625 41.984375 42.703125 
Q 37.796875 48.390625 30.609375 48.390625 
z
M 30.609375 56 
Q 42.328125 56 49.015625 48.375 
Q 55.71875 40.765625 55.71875 27.296875 
Q 55.71875 13.875 49.015625 6.21875 
Q 42.328125 -1.421875 30.609375 -1.421875 
Q 18.84375 -1.421875 12.171875 6.21875 
Q 5.515625 13.875 5.515625 27.296875 
Q 5.515625 40.765625 12.171875 48.375 
Q 18.84375 56 30.609375 56 
z
" id="DejaVuSans-111"/>
       <path d="M 45.40625 27.984375 
Q 45.40625 37.75 41.375 43.109375 
Q 37.359375 48.484375 30.078125 48.484375 
Q 22.859375 48.484375 18.828125 43.109375 
Q 14.796875 37.75 14.796875 27.984375 
Q 14.796875 18.265625 18.828125 12.890625 
Q 22.859375 7.515625 30.078125 7.515625 
Q 37.359375 7.515625 41.375 12.890625 
Q 45.40625 18.265625 45.40625 27.984375 
z
M 54.390625 6.78125 
Q 54.390625 -7.171875 48.1875 -13.984375 
Q 42 -20.796875 29.203125 -20.796875 
Q 24.46875 -20.796875 20.265625 -20.09375 
Q 16.0625 -19.390625 12.109375 -17.921875 
L 12.109375 -9.1875 
Q 16.0625 -11.328125 19.921875 -12.34375 
Q 23.78125 -13.375 27.78125 -13.375 
Q 36.625 -13.375 41.015625 -8.765625 
Q 45.40625 -4.15625 45.40625 5.171875 
L 45.40625 9.625 
Q 42.625 4.78125 38.28125 2.390625 
Q 33.9375 0 27.875 0 
Q 17.828125 0 11.671875 7.65625 
Q 5.515625 15.328125 5.515625 27.984375 
Q 5.515625 40.671875 11.671875 48.328125 
Q 17.828125 56 27.875 56 
Q 33.9375 56 38.28125 53.609375 
Q 42.625 51.21875 45.40625 46.390625 
L 45.40625 54.6875 
L 54.390625 54.6875 
z
" id="DejaVuSans-103"/>
       <path d="M 12.40625 8.296875 
L 28.515625 8.296875 
L 28.515625 63.921875 
L 10.984375 60.40625 
L 10.984375 69.390625 
L 28.421875 72.90625 
L 38.28125 72.90625 
L 38.28125 8.296875 
L 54.390625 8.296875 
L 54.390625 0 
L 12.40625 0 
z
" id="DejaVuSans-49"/>
       <path d="M 31 75.875 
Q 24.46875 64.65625 21.28125 53.65625 
Q 18.109375 42.671875 18.109375 31.390625 
Q 18.109375 20.125 21.3125 9.0625 
Q 24.515625 -2 31 -13.1875 
L 23.1875 -13.1875 
Q 15.875 -1.703125 12.234375 9.375 
Q 8.59375 20.453125 8.59375 31.390625 
Q 8.59375 42.28125 12.203125 53.3125 
Q 15.828125 64.359375 23.1875 75.875 
z
" id="DejaVuSans-40"/>
       <path d="M 51.125 44 
L 36.921875 44 
L 32.8125 27.6875 
L 47.125 27.6875 
z
M 43.796875 71.78125 
L 38.71875 51.515625 
L 52.984375 51.515625 
L 58.109375 71.78125 
L 65.921875 71.78125 
L 60.890625 51.515625 
L 76.125 51.515625 
L 76.125 44 
L 58.984375 44 
L 54.984375 27.6875 
L 70.515625 27.6875 
L 70.515625 20.21875 
L 53.078125 20.21875 
L 48 0 
L 40.1875 0 
L 45.21875 20.21875 
L 30.90625 20.21875 
L 25.875 0 
L 18.015625 0 
L 23.09375 20.21875 
L 7.71875 20.21875 
L 7.71875 27.6875 
L 24.90625 27.6875 
L 29 44 
L 13.28125 44 
L 13.28125 51.515625 
L 30.90625 51.515625 
L 35.890625 71.78125 
z
" id="DejaVuSans-35"/>
       <path id="DejaVuSans-32"/>
       <path d="M 37.109375 75.984375 
L 37.109375 68.5 
L 28.515625 68.5 
Q 23.6875 68.5 21.796875 66.546875 
Q 19.921875 64.59375 19.921875 59.515625 
L 19.921875 54.6875 
L 34.71875 54.6875 
L 34.71875 47.703125 
L 19.921875 47.703125 
L 19.921875 0 
L 10.890625 0 
L 10.890625 47.703125 
L 2.296875 47.703125 
L 2.296875 54.6875 
L 10.890625 54.6875 
L 10.890625 58.5 
Q 10.890625 67.625 15.140625 71.796875 
Q 19.390625 75.984375 28.609375 75.984375 
z
" id="DejaVuSans-102"/>
       <path d="M 4.890625 31.390625 
L 31.203125 31.390625 
L 31.203125 23.390625 
L 4.890625 23.390625 
z
" id="DejaVuSans-45"/>
       <path d="M 56.203125 29.59375 
L 56.203125 25.203125 
L 14.890625 25.203125 
Q 15.484375 15.921875 20.484375 11.0625 
Q 25.484375 6.203125 34.421875 6.203125 
Q 39.59375 6.203125 44.453125 7.46875 
Q 49.3125 8.734375 54.109375 11.28125 
L 54.109375 2.78125 
Q 49.265625 0.734375 44.1875 -0.34375 
Q 39.109375 -1.421875 33.890625 -1.421875 
Q 20.796875 -1.421875 13.15625 6.1875 
Q 5.515625 13.8125 5.515625 26.8125 
Q 5.515625 40.234375 12.765625 48.109375 
Q 20.015625 56 32.328125 56 
Q 43.359375 56 49.78125 48.890625 
Q 56.203125 41.796875 56.203125 29.59375 
z
M 47.21875 32.234375 
Q 47.125 39.59375 43.09375 43.984375 
Q 39.0625 48.390625 32.421875 48.390625 
Q 24.90625 48.390625 20.390625 44.140625 
Q 15.875 39.890625 15.1875 32.171875 
z
" id="DejaVuSans-101"/>
       <path d="M 2.984375 54.6875 
L 12.5 54.6875 
L 29.59375 8.796875 
L 46.6875 54.6875 
L 56.203125 54.6875 
L 35.6875 0 
L 23.484375 0 
z
" id="DejaVuSans-118"/>
       <path d="M 34.28125 27.484375 
Q 23.390625 27.484375 19.1875 25 
Q 14.984375 22.515625 14.984375 16.5 
Q 14.984375 11.71875 18.140625 8.90625 
Q 21.296875 6.109375 26.703125 6.109375 
Q 34.1875 6.109375 38.703125 11.40625 
Q 43.21875 16.703125 43.21875 25.484375 
L 43.21875 27.484375 
z
M 52.203125 31.203125 
L 52.203125 0 
L 43.21875 0 
L 43.21875 8.296875 
Q 40.140625 3.328125 35.546875 0.953125 
Q 30.953125 -1.421875 24.3125 -1.421875 
Q 15.921875 -1.421875 10.953125 3.296875 
Q 6 8.015625 6 15.921875 
Q 6 25.140625 12.171875 29.828125 
Q 18.359375 34.515625 30.609375 34.515625 
L 43.21875 34.515625 
L 43.21875 35.40625 
Q 43.21875 41.609375 39.140625 45 
Q 35.0625 48.390625 27.6875 48.390625 
Q 23 48.390625 18.546875 47.265625 
Q 14.109375 46.140625 10.015625 43.890625 
L 10.015625 52.203125 
Q 14.9375 54.109375 19.578125 55.046875 
Q 24.21875 56 28.609375 56 
Q 40.484375 56 46.34375 49.84375 
Q 52.203125 43.703125 52.203125 31.203125 
z
" id="DejaVuSans-97"/>
       <path d="M 44.28125 53.078125 
L 44.28125 44.578125 
Q 40.484375 46.53125 36.375 47.5 
Q 32.28125 48.484375 27.875 48.484375 
Q 21.1875 48.484375 17.84375 46.4375 
Q 14.5 44.390625 14.5 40.28125 
Q 14.5 37.15625 16.890625 35.375 
Q 19.28125 33.59375 26.515625 31.984375 
L 29.59375 31.296875 
Q 39.15625 29.25 43.1875 25.515625 
Q 47.21875 21.78125 47.21875 15.09375 
Q 47.21875 7.46875 41.1875 3.015625 
Q 35.15625 -1.421875 24.609375 -1.421875 
Q 20.21875 -1.421875 15.453125 -0.5625 
Q 10.6875 0.296875 5.421875 2 
L 5.421875 11.28125 
Q 10.40625 8.6875 15.234375 7.390625 
Q 20.0625 6.109375 24.8125 6.109375 
Q 31.15625 6.109375 34.5625 8.28125 
Q 37.984375 10.453125 37.984375 14.40625 
Q 37.984375 18.0625 35.515625 20.015625 
Q 33.0625 21.96875 24.703125 23.78125 
L 21.578125 24.515625 
Q 13.234375 26.265625 9.515625 29.90625 
Q 5.8125 33.546875 5.8125 39.890625 
Q 5.8125 47.609375 11.28125 51.796875 
Q 16.75 56 26.8125 56 
Q 31.78125 56 36.171875 55.265625 
Q 40.578125 54.546875 44.28125 53.078125 
z
" id="DejaVuSans-115"/>
       <path d="M 25.390625 72.90625 
L 33.6875 72.90625 
L 8.296875 -9.28125 
L 0 -9.28125 
z
" id="DejaVuSans-47"/>
       <path d="M 45.40625 46.390625 
L 45.40625 75.984375 
L 54.390625 75.984375 
L 54.390625 0 
L 45.40625 0 
L 45.40625 8.203125 
Q 42.578125 3.328125 38.25 0.953125 
Q 33.9375 -1.421875 27.875 -1.421875 
Q 17.96875 -1.421875 11.734375 6.484375 
Q 5.515625 14.40625 5.515625 27.296875 
Q 5.515625 40.1875 11.734375 48.09375 
Q 17.96875 56 27.875 56 
Q 33.9375 56 38.25 53.625 
Q 42.578125 51.265625 45.40625 46.390625 
z
M 14.796875 27.296875 
Q 14.796875 17.390625 18.875 11.75 
Q 22.953125 6.109375 30.078125 6.109375 
Q 37.203125 6.109375 41.296875 11.75 
Q 45.40625 17.390625 45.40625 27.296875 
Q 45.40625 37.203125 41.296875 42.84375 
Q 37.203125 48.484375 30.078125 48.484375 
Q 22.953125 48.484375 18.875 42.84375 
Q 14.796875 37.203125 14.796875 27.296875 
z
" id="DejaVuSans-100"/>
       <path d="M 9.421875 54.6875 
L 18.40625 54.6875 
L 18.40625 0 
L 9.421875 0 
z
M 9.421875 75.984375 
L 18.40625 75.984375 
L 18.40625 64.59375 
L 9.421875 64.59375 
z
" id="DejaVuSans-105"/>
       <path d="M 52 44.1875 
Q 55.375 50.25 60.0625 53.125 
Q 64.75 56 71.09375 56 
Q 79.640625 56 84.28125 50.015625 
Q 88.921875 44.046875 88.921875 33.015625 
L 88.921875 0 
L 79.890625 0 
L 79.890625 32.71875 
Q 79.890625 40.578125 77.09375 44.375 
Q 74.3125 48.1875 68.609375 48.1875 
Q 61.625 48.1875 57.5625 43.546875 
Q 53.515625 38.921875 53.515625 30.90625 
L 53.515625 0 
L 44.484375 0 
L 44.484375 32.71875 
Q 44.484375 40.625 41.703125 44.40625 
Q 38.921875 48.1875 33.109375 48.1875 
Q 26.21875 48.1875 22.15625 43.53125 
Q 18.109375 38.875 18.109375 30.90625 
L 18.109375 0 
L 9.078125 0 
L 9.078125 54.6875 
L 18.109375 54.6875 
L 18.109375 46.1875 
Q 21.1875 51.21875 25.484375 53.609375 
Q 29.78125 56 35.6875 56 
Q 41.65625 56 45.828125 52.96875 
Q 50 49.953125 52 44.1875 
z
" id="DejaVuSans-109"/>
       <path d="M 54.890625 33.015625 
L 54.890625 0 
L 45.90625 0 
L 45.90625 32.71875 
Q 45.90625 40.484375 42.875 44.328125 
Q 39.84375 48.1875 33.796875 48.1875 
Q 26.515625 48.1875 22.3125 43.546875 
Q 18.109375 38.921875 18.109375 30.90625 
L 18.109375 0 
L 9.078125 0 
L 9.078125 54.6875 
L 18.109375 54.6875 
L 18.109375 46.1875 
Q 21.34375 51.125 25.703125 53.5625 
Q 30.078125 56 35.796875 56 
Q 45.21875 56 50.046875 50.171875 
Q 54.890625 44.34375 54.890625 33.015625 
z
" id="DejaVuSans-110"/>
       <path d="M 8.015625 75.875 
L 15.828125 75.875 
Q 23.140625 64.359375 26.78125 53.3125 
Q 30.421875 42.28125 30.421875 31.390625 
Q 30.421875 20.453125 26.78125 9.375 
Q 23.140625 -1.703125 15.828125 -13.1875 
L 8.015625 -13.1875 
Q 14.5 -2 17.703125 9.0625 
Q 20.90625 20.125 20.90625 31.390625 
Q 20.90625 42.671875 17.703125 53.65625 
Q 14.5 64.65625 8.015625 75.875 
z
" id="DejaVuSans-41"/>
      </defs>
      <use xlink:href="#DejaVuSans-108"/>
      <use x="27.783203" xlink:href="#DejaVuSans-111"/>
      <use x="88.964844" xlink:href="#DejaVuSans-103"/>
      <use x="152.441406" xlink:href="#DejaVuSans-49"/>
      <use x="216.064453" xlink:href="#DejaVuSans-48"/>
      <use x="279.6875" xlink:href="#DejaVuSans-40"/>
      <use x="318.701172" xlink:href="#DejaVuSans-35"/>
      <use x="402.490234" xlink:href="#DejaVuSans-32"/>
      <use x="434.277344" xlink:href="#DejaVuSans-102"/>
      <use x="463.982422" xlink:href="#DejaVuSans-45"/>
      <use x="500.066406" xlink:href="#DejaVuSans-101"/>
      <use x="561.589844" xlink:href="#DejaVuSans-118"/>
      <use x="620.769531" xlink:href="#DejaVuSans-97"/>
      <use x="682.048828" xlink:href="#DejaVuSans-108"/>
      <use x="709.832031" xlink:href="#DejaVuSans-115"/>
      <use x="761.931641" xlink:href="#DejaVuSans-32"/>
      <use x="793.71875" xlink:href="#DejaVuSans-47"/>
      <use x="827.410156" xlink:href="#DejaVuSans-32"/>
      <use x="859.197266" xlink:href="#DejaVuSans-100"/>
      <use x="922.673828" xlink:href="#DejaVuSans-105"/>
      <use x="950.457031" xlink:href="#DejaVuSans-109"/>
      <use x="1047.869141" xlink:href="#DejaVuSans-101"/>
      <use x="1109.392578" xlink:href="#DejaVuSans-110"/>
      <use x="1172.771484" xlink:href="#DejaVuSans-115"/>
      <use x="1224.871094" xlink:href="#DejaVuSans-105"/>
      <use x="1252.654297" xlink:href="#DejaVuSans-111"/>
      <use x="1313.835938" xlink:href="#DejaVuSans-110"/>
      <use x="1377.214844" xlink:href="#DejaVuSans-41"/>
     </g>
    </g>
   </g>
   <g id="matplotlib.axis_2">
    <g id="ytick_1">
     <g id="line2d_21">
      <path clip-path="url(#p6c2e399839)" d="M 57.6 298.944 
L 338.688 298.944 
" style="fill:none;stroke:#b0b0b0;stroke-linecap:square;stroke-width:0.8;"/>
     </g>
     <g id="line2d_22">
      <defs>
       <path d="M 0 0 
L -3.5 0 
" id="me9e15cdb25" style="stroke:#000000;stroke-width:0.8;"/>
      </defs>
      <g>
       <use style="stroke:#000000;stroke-width:0.8;" x="57.6" xlink:href="#me9e15cdb25" y="298.944"/>
      </g>
     </g>
     <g id="text_6">
      <!-- 0.0 -->
      <g transform="translate(25.155 305.02275)scale(0.16 -0.16)">
       <defs>
        <path d="M 10.6875 12.40625 
L 21 12.40625 
L 21 0 
L 10.6875 0 
z
" id="DejaVuSans-46"/>
       </defs>
       <use xlink:href="#DejaVuSans-48"/>
       <use x="63.623047" xlink:href="#DejaVuSans-46"/>
       <use x="95.410156" xlink:href="#DejaVuSans-48"/>
      </g>
     </g>
    </g>
    <g id="ytick_2">
     <g id="line2d_23">
      <path clip-path="url(#p6c2e399839)" d="M 57.6 245.22202 
L 338.688 245.22202 
" style="fill:none;stroke:#b0b0b0;stroke-linecap:square;stroke-width:0.8;"/>
     </g>
     <g id="line2d_24">
      <g>
       <use style="stroke:#000000;stroke-width:0.8;" x="57.6" xlink:href="#me9e15cdb25" y="245.22202"/>
      </g>
     </g>
     <g id="text_7">
      <!-- 0.2 -->
      <g transform="translate(25.155 251.30077)scale(0.16 -0.16)">
       <use xlink:href="#DejaVuSans-48"/>
       <use x="63.623047" xlink:href="#DejaVuSans-46"/>
       <use x="95.410156" xlink:href="#DejaVuSans-50"/>
      </g>
     </g>
    </g>
    <g id="ytick_3">
     <g id="line2d_25">
      <path clip-path="url(#p6c2e399839)" d="M 57.6 191.50004 
L 338.688 191.50004 
" style="fill:none;stroke:#b0b0b0;stroke-linecap:square;stroke-width:0.8;"/>
     </g>
     <g id="line2d_26">
      <g>
       <use style="stroke:#000000;stroke-width:0.8;" x="57.6" xlink:href="#me9e15cdb25" y="191.50004"/>
      </g>
     </g>
     <g id="text_8">
      <!-- 0.4 -->
      <g transform="translate(25.155 197.57879)scale(0.16 -0.16)">
       <use xlink:href="#DejaVuSans-48"/>
       <use x="63.623047" xlink:href="#DejaVuSans-46"/>
       <use x="95.410156" xlink:href="#DejaVuSans-52"/>
      </g>
     </g>
    </g>
    <g id="ytick_4">
     <g id="line2d_27">
      <path clip-path="url(#p6c2e399839)" d="M 57.6 137.778059 
L 338.688 137.778059 
" style="fill:none;stroke:#b0b0b0;stroke-linecap:square;stroke-width:0.8;"/>
     </g>
     <g id="line2d_28">
      <g>
       <use style="stroke:#000000;stroke-width:0.8;" x="57.6" xlink:href="#me9e15cdb25" y="137.778059"/>
      </g>
     </g>
     <g id="text_9">
      <!-- 0.6 -->
      <g transform="translate(25.155 143.856809)scale(0.16 -0.16)">
       <use xlink:href="#DejaVuSans-48"/>
       <use x="63.623047" xlink:href="#DejaVuSans-46"/>
       <use x="95.410156" xlink:href="#DejaVuSans-54"/>
      </g>
     </g>
    </g>
    <g id="ytick_5">
     <g id="line2d_29">
      <path clip-path="url(#p6c2e399839)" d="M 57.6 84.056079 
L 338.688 84.056079 
" style="fill:none;stroke:#b0b0b0;stroke-linecap:square;stroke-width:0.8;"/>
     </g>
     <g id="line2d_30">
      <g>
       <use style="stroke:#000000;stroke-width:0.8;" x="57.6" xlink:href="#me9e15cdb25" y="84.056079"/>
      </g>
     </g>
     <g id="text_10">
      <!-- 0.8 -->
      <g transform="translate(25.155 90.134829)scale(0.16 -0.16)">
       <defs>
        <path d="M 31.78125 34.625 
Q 24.75 34.625 20.71875 30.859375 
Q 16.703125 27.09375 16.703125 20.515625 
Q 16.703125 13.921875 20.71875 10.15625 
Q 24.75 6.390625 31.78125 6.390625 
Q 38.8125 6.390625 42.859375 10.171875 
Q 46.921875 13.96875 46.921875 20.515625 
Q 46.921875 27.09375 42.890625 30.859375 
Q 38.875 34.625 31.78125 34.625 
z
M 21.921875 38.8125 
Q 15.578125 40.375 12.03125 44.71875 
Q 8.5 49.078125 8.5 55.328125 
Q 8.5 64.0625 14.71875 69.140625 
Q 20.953125 74.21875 31.78125 74.21875 
Q 42.671875 74.21875 48.875 69.140625 
Q 55.078125 64.0625 55.078125 55.328125 
Q 55.078125 49.078125 51.53125 44.71875 
Q 48 40.375 41.703125 38.8125 
Q 48.828125 37.15625 52.796875 32.3125 
Q 56.78125 27.484375 56.78125 20.515625 
Q 56.78125 9.90625 50.3125 4.234375 
Q 43.84375 -1.421875 31.78125 -1.421875 
Q 19.734375 -1.421875 13.25 4.234375 
Q 6.78125 9.90625 6.78125 20.515625 
Q 6.78125 27.484375 10.78125 32.3125 
Q 14.796875 37.15625 21.921875 38.8125 
z
M 18.3125 54.390625 
Q 18.3125 48.734375 21.84375 45.5625 
Q 25.390625 42.390625 31.78125 42.390625 
Q 38.140625 42.390625 41.71875 45.5625 
Q 45.3125 48.734375 45.3125 54.390625 
Q 45.3125 60.0625 41.71875 63.234375 
Q 38.140625 66.40625 31.78125 66.40625 
Q 25.390625 66.40625 21.84375 63.234375 
Q 18.3125 60.0625 18.3125 54.390625 
z
" id="DejaVuSans-56"/>
       </defs>
       <use xlink:href="#DejaVuSans-48"/>
       <use x="63.623047" xlink:href="#DejaVuSans-46"/>
       <use x="95.410156" xlink:href="#DejaVuSans-56"/>
      </g>
     </g>
    </g>
    <g id="ytick_6">
     <g id="line2d_31">
      <path clip-path="url(#p6c2e399839)" d="M 57.6 30.334099 
L 338.688 30.334099 
" style="fill:none;stroke:#b0b0b0;stroke-linecap:square;stroke-width:0.8;"/>
     </g>
     <g id="line2d_32">
      <g>
       <use style="stroke:#000000;stroke-width:0.8;" x="57.6" xlink:href="#me9e15cdb25" y="30.334099"/>
      </g>
     </g>
     <g id="text_11">
      <!-- 1.0 -->
      <g transform="translate(25.155 36.412849)scale(0.16 -0.16)">
       <use xlink:href="#DejaVuSans-49"/>
       <use x="63.623047" xlink:href="#DejaVuSans-46"/>
       <use x="95.410156" xlink:href="#DejaVuSans-48"/>
      </g>
     </g>
    </g>
    <g id="text_12">
     <!-- Fraction of function,target pairs -->
     <g transform="translate(17.619531 297.681)rotate(-90)scale(0.17 -0.17)">
      <defs>
       <path d="M 9.8125 72.90625 
L 51.703125 72.90625 
L 51.703125 64.59375 
L 19.671875 64.59375 
L 19.671875 43.109375 
L 48.578125 43.109375 
L 48.578125 34.8125 
L 19.671875 34.8125 
L 19.671875 0 
L 9.8125 0 
z
" id="DejaVuSans-70"/>
       <path d="M 41.109375 46.296875 
Q 39.59375 47.171875 37.8125 47.578125 
Q 36.03125 48 33.890625 48 
Q 26.265625 48 22.1875 43.046875 
Q 18.109375 38.09375 18.109375 28.8125 
L 18.109375 0 
L 9.078125 0 
L 9.078125 54.6875 
L 18.109375 54.6875 
L 18.109375 46.1875 
Q 20.953125 51.171875 25.484375 53.578125 
Q 30.03125 56 36.53125 56 
Q 37.453125 56 38.578125 55.875 
Q 39.703125 55.765625 41.0625 55.515625 
z
" id="DejaVuSans-114"/>
       <path d="M 48.78125 52.59375 
L 48.78125 44.1875 
Q 44.96875 46.296875 41.140625 47.34375 
Q 37.3125 48.390625 33.40625 48.390625 
Q 24.65625 48.390625 19.8125 42.84375 
Q 14.984375 37.3125 14.984375 27.296875 
Q 14.984375 17.28125 19.8125 11.734375 
Q 24.65625 6.203125 33.40625 6.203125 
Q 37.3125 6.203125 41.140625 7.25 
Q 44.96875 8.296875 48.78125 10.40625 
L 48.78125 2.09375 
Q 45.015625 0.34375 40.984375 -0.53125 
Q 36.96875 -1.421875 32.421875 -1.421875 
Q 20.0625 -1.421875 12.78125 6.34375 
Q 5.515625 14.109375 5.515625 27.296875 
Q 5.515625 40.671875 12.859375 48.328125 
Q 20.21875 56 33.015625 56 
Q 37.15625 56 41.109375 55.140625 
Q 45.0625 54.296875 48.78125 52.59375 
z
" id="DejaVuSans-99"/>
       <path d="M 18.3125 70.21875 
L 18.3125 54.6875 
L 36.8125 54.6875 
L 36.8125 47.703125 
L 18.3125 47.703125 
L 18.3125 18.015625 
Q 18.3125 11.328125 20.140625 9.421875 
Q 21.96875 7.515625 27.59375 7.515625 
L 36.8125 7.515625 
L 36.8125 0 
L 27.59375 0 
Q 17.1875 0 13.234375 3.875 
Q 9.28125 7.765625 9.28125 18.015625 
L 9.28125 47.703125 
L 2.6875 47.703125 
L 2.6875 54.6875 
L 9.28125 54.6875 
L 9.28125 70.21875 
z
" id="DejaVuSans-116"/>
       <path d="M 8.5 21.578125 
L 8.5 54.6875 
L 17.484375 54.6875 
L 17.484375 21.921875 
Q 17.484375 14.15625 20.5 10.265625 
Q 23.53125 6.390625 29.59375 6.390625 
Q 36.859375 6.390625 41.078125 11.03125 
Q 45.3125 15.671875 45.3125 23.6875 
L 45.3125 54.6875 
L 54.296875 54.6875 
L 54.296875 0 
L 45.3125 0 
L 45.3125 8.40625 
Q 42.046875 3.421875 37.71875 1 
Q 33.40625 -1.421875 27.6875 -1.421875 
Q 18.265625 -1.421875 13.375 4.4375 
Q 8.5 10.296875 8.5 21.578125 
z
M 31.109375 56 
z
" id="DejaVuSans-117"/>
       <path d="M 11.71875 12.40625 
L 22.015625 12.40625 
L 22.015625 4 
L 14.015625 -11.625 
L 7.71875 -11.625 
L 11.71875 4 
z
" id="DejaVuSans-44"/>
       <path d="M 18.109375 8.203125 
L 18.109375 -20.796875 
L 9.078125 -20.796875 
L 9.078125 54.6875 
L 18.109375 54.6875 
L 18.109375 46.390625 
Q 20.953125 51.265625 25.265625 53.625 
Q 29.59375 56 35.59375 56 
Q 45.5625 56 51.78125 48.09375 
Q 58.015625 40.1875 58.015625 27.296875 
Q 58.015625 14.40625 51.78125 6.484375 
Q 45.5625 -1.421875 35.59375 -1.421875 
Q 29.59375 -1.421875 25.265625 0.953125 
Q 20.953125 3.328125 18.109375 8.203125 
z
M 48.6875 27.296875 
Q 48.6875 37.203125 44.609375 42.84375 
Q 40.53125 48.484375 33.40625 48.484375 
Q 26.265625 48.484375 22.1875 42.84375 
Q 18.109375 37.203125 18.109375 27.296875 
Q 18.109375 17.390625 22.1875 11.75 
Q 26.265625 6.109375 33.40625 6.109375 
Q 40.53125 6.109375 44.609375 11.75 
Q 48.6875 17.390625 48.6875 27.296875 
z
" id="DejaVuSans-112"/>
      </defs>
      <use xlink:href="#DejaVuSans-70"/>
      <use x="50.269531" xlink:href="#DejaVuSans-114"/>
      <use x="91.382812" xlink:href="#DejaVuSans-97"/>
      <use x="152.662109" xlink:href="#DejaVuSans-99"/>
      <use x="207.642578" xlink:href="#DejaVuSans-116"/>
      <use x="246.851562" xlink:href="#DejaVuSans-105"/>
      <use x="274.634766" xlink:href="#DejaVuSans-111"/>
      <use x="335.816406" xlink:href="#DejaVuSans-110"/>
      <use x="399.195312" xlink:href="#DejaVuSans-32"/>
      <use x="430.982422" xlink:href="#DejaVuSans-111"/>
      <use x="492.164062" xlink:href="#DejaVuSans-102"/>
      <use x="527.369141" xlink:href="#DejaVuSans-32"/>
      <use x="559.15625" xlink:href="#DejaVuSans-102"/>
      <use x="594.361328" xlink:href="#DejaVuSans-117"/>
      <use x="657.740234" xlink:href="#DejaVuSans-110"/>
      <use x="721.119141" xlink:href="#DejaVuSans-99"/>
      <use x="776.099609" xlink:href="#DejaVuSans-116"/>
      <use x="815.308594" xlink:href="#DejaVuSans-105"/>
      <use x="843.091797" xlink:href="#DejaVuSans-111"/>
      <use x="904.273438" xlink:href="#DejaVuSans-110"/>
      <use x="967.652344" xlink:href="#DejaVuSans-44"/>
      <use x="999.439453" xlink:href="#DejaVuSans-116"/>
      <use x="1038.648438" xlink:href="#DejaVuSans-97"/>
      <use x="1099.927734" xlink:href="#DejaVuSans-114"/>
      <use x="1139.291016" xlink:href="#DejaVuSans-103"/>
      <use x="1202.767578" xlink:href="#DejaVuSans-101"/>
      <use x="1264.291016" xlink:href="#DejaVuSans-116"/>
      <use x="1303.5" xlink:href="#DejaVuSans-32"/>
      <use x="1335.287109" xlink:href="#DejaVuSans-112"/>
      <use x="1398.763672" xlink:href="#DejaVuSans-97"/>
      <use x="1460.042969" xlink:href="#DejaVuSans-105"/>
      <use x="1487.826172" xlink:href="#DejaVuSans-114"/>
      <use x="1528.939453" xlink:href="#DejaVuSans-115"/>
     </g>
    </g>
   </g>
   <g id="line2d_33">
    <defs>
     <path d="M 0 1.5 
C 0.397805 1.5 0.77937 1.341951 1.06066 1.06066 
C 1.341951 0.77937 1.5 0.397805 1.5 0 
C 1.5 -0.397805 1.341951 -0.77937 1.06066 -1.06066 
C 0.77937 -1.341951 0.397805 -1.5 0 -1.5 
C -0.397805 -1.5 -0.77937 -1.341951 -1.06066 -1.06066 
C -1.341951 -0.77937 -1.5 -0.397805 -1.5 0 
C -1.5 0.397805 -1.341951 0.77937 -1.06066 1.06066 
C -0.77937 1.341951 -0.397805 1.5 0 1.5 
z
" id="md5052dd5a2" style="stroke:#f5deb3;"/>
    </defs>
    <g>
     <use style="fill:#f5deb3;stroke:#f5deb3;" x="213.325472" xlink:href="#md5052dd5a2" y="30.334099"/>
     <use style="fill:#f5deb3;stroke:#f5deb3;" x="213.325472" xlink:href="#md5052dd5a2" y="30.334099"/>
    </g>
   </g>
   <g id="line2d_34">
    <defs>
     <path d="M 0 1.5 
C 0.397805 1.5 0.77937 1.341951 1.06066 1.06066 
C 1.341951 0.77937 1.5 0.397805 1.5 0 
C 1.5 -0.397805 1.341951 -0.77937 1.06066 -1.06066 
C 0.77937 -1.341951 0.397805 -1.5 0 -1.5 
C -0.397805 -1.5 -0.77937 -1.341951 -1.06066 -1.06066 
C -1.341951 -0.77937 -1.5 -0.397805 -1.5 0 
C -1.5 0.397805 -1.341951 0.77937 -1.06066 1.06066 
C -0.77937 1.341951 -0.397805 1.5 0 1.5 
z
" id="m3ae310ea7a" style="stroke:#000080;"/>
    </defs>
    <g>
     <use style="fill:#000080;stroke:#000080;" x="283.45532" xlink:href="#m3ae310ea7a" y="235.74167"/>
     <use style="fill:#000080;stroke:#000080;" x="283.45532" xlink:href="#m3ae310ea7a" y="235.74167"/>
    </g>
   </g>
   <g id="line2d_35">
    <path d="M 5.356583 298.944 
L 5.356583 296.837256 
L 17.444571 296.837256 
L 17.444571 295.257197 
L 24.515591 295.257197 
L 24.515591 294.203825 
L 36.60358 294.203825 
L 36.60358 293.677139 
L 41.620548 293.677139 
L 41.620548 293.150453 
L 50.087456 293.150453 
L 50.087456 292.623767 
L 54.765787 292.623767 
L 54.765787 292.097081 
L 58.450865 292.097081 
L 58.450865 291.570395 
L 62.833608 291.570395 
L 62.833608 291.043709 
L 64.079801 291.043709 
L 64.079801 290.517023 
L 67.359297 290.517023 
L 67.359297 289.463651 
L 67.850577 289.463651 
L 67.850577 288.936964 
L 69.246464 288.936964 
L 69.246464 288.410278 
L 78.154896 288.410278 
L 78.154896 287.883592 
L 86.182924 287.883592 
L 86.182924 287.356906 
L 92.504372 287.356906 
L 92.504372 286.83022 
L 94.294587 286.83022 
L 94.294587 286.303534 
L 96.952455 286.303534 
L 96.952455 285.776848 
L 98.689141 285.776848 
L 98.689141 285.250162 
L 100.343767 285.250162 
L 100.343767 284.723476 
L 105.057436 284.723476 
L 105.057436 284.19679 
L 106.222336 284.19679 
L 106.222336 283.670104 
L 108.530893 283.670104 
L 108.530893 283.143418 
L 108.717912 283.143418 
L 108.717912 282.616732 
L 109.799764 282.616732 
L 109.799764 282.090045 
L 110.443353 282.090045 
L 110.443353 281.563359 
L 115.33349 281.563359 
L 115.33349 281.036673 
L 117.820578 281.036673 
L 117.820578 280.509987 
L 118.417314 280.509987 
L 118.417314 279.983301 
L 119.224953 279.983301 
L 119.224953 279.456615 
L 120.045484 279.456615 
L 120.045484 278.929929 
L 123.593547 278.929929 
L 123.593547 278.403243 
L 125.092787 278.403243 
L 125.092787 277.876557 
L 125.541584 277.876557 
L 125.541584 277.349871 
L 127.627114 277.349871 
L 127.627114 276.823185 
L 131.287464 276.823185 
L 131.287464 276.296499 
L 135.321124 276.296499 
L 135.321124 275.769812 
L 137.370679 275.769812 
L 137.370679 275.243126 
L 137.673823 275.243126 
L 137.770782 274.189754 
L 138.341479 274.189754 
L 138.341479 273.663068 
L 138.736791 273.663068 
L 138.736791 273.136382 
L 138.99271 273.136382 
L 138.99271 272.609696 
L 142.772361 272.609696 
L 142.772361 272.08301 
L 144.330419 272.08301 
L 144.330419 271.556324 
L 144.605813 271.556324 
L 144.605813 271.029638 
L 146.754644 271.029638 
L 146.843687 269.976266 
L 147.343237 269.976266 
L 147.343237 269.449579 
L 149.173031 269.449579 
L 149.173031 268.922893 
L 152.947997 268.922893 
L 152.947997 268.396207 
L 154.54072 268.396207 
L 154.54072 267.869521 
L 155.213066 267.869521 
L 155.213066 267.342835 
L 156.123258 267.342835 
L 156.123258 266.816149 
L 156.874032 266.816149 
L 156.874032 266.289463 
L 157.2549 266.289463 
L 157.2549 265.236091 
L 158.795307 265.236091 
L 158.795307 264.709405 
L 162.841936 264.709405 
L 162.841936 264.182719 
L 163.178928 264.182719 
L 163.178928 263.656033 
L 164.281767 263.656033 
L 164.281767 263.129347 
L 164.720216 263.129347 
L 164.720216 262.60266 
L 165.97132 262.60266 
L 165.97132 262.075974 
L 166.940088 262.075974 
L 166.940088 261.549288 
L 169.715615 261.549288 
L 169.715615 261.022602 
L 170.33913 261.022602 
L 170.33913 260.495916 
L 171.938067 260.495916 
L 171.938067 259.96923 
L 173.145549 259.96923 
L 173.145549 259.442544 
L 176.488521 259.442544 
L 176.556161 258.389172 
L 177.346203 258.389172 
L 177.346203 257.862486 
L 177.634596 257.862486 
L 177.634596 257.3358 
L 179.705423 257.3358 
L 179.705423 256.809114 
L 182.351581 256.809114 
L 182.351581 256.282427 
L 183.133103 256.282427 
L 183.133103 255.755741 
L 188.367653 255.755741 
L 188.367653 255.229055 
L 190.836578 255.229055 
L 190.836578 254.702369 
L 202.273625 254.702369 
L 202.273625 254.175683 
L 218.742616 254.175683 
L 218.742616 253.122311 
L 219.030176 253.122311 
L 219.030176 252.595625 
L 219.677008 252.595625 
L 219.746177 250.488881 
L 219.845049 250.488881 
L 219.845049 248.908822 
L 220.257387 248.908822 
L 220.319967 247.85545 
L 224.098515 247.85545 
L 224.098515 247.328764 
L 230.710695 247.328764 
L 230.710695 246.802078 
L 231.091547 246.802078 
L 231.091547 246.275392 
L 233.950302 246.275392 
L 233.950302 245.748706 
L 237.879437 245.748706 
L 237.903824 244.695334 
L 238.086015 244.695334 
L 238.108554 243.641962 
L 239.890181 243.641962 
L 239.890181 243.115275 
L 242.87018 243.115275 
L 242.87018 242.588589 
L 246.493664 242.588589 
L 246.493664 242.061903 
L 246.626135 242.061903 
L 246.626135 241.535217 
L 249.749979 241.535217 
L 249.824922 238.901787 
L 250.768539 238.901787 
L 250.768539 238.375101 
L 254.753518 238.375101 
L 254.753518 237.848415 
L 258.591742 237.848415 
L 258.591742 237.321729 
L 267.757472 237.321729 
L 267.757472 236.795043 
L 272.996108 236.795043 
L 272.996108 236.268356 
L 283.45532 236.268356 
L 283.45532 235.74167 
L 338.688 235.74167 
L 338.688 235.74167 
" style="fill:none;stroke:#000080;stroke-linecap:square;stroke-width:1.5;"/>
   </g>
   <g id="line2d_36">
    <defs>
     <path d="M 0 6 
C 1.591219 6 3.117479 5.367802 4.242641 4.242641 
C 5.367802 3.117479 6 1.591219 6 0 
C 6 -1.591219 5.367802 -3.117479 4.242641 -4.242641 
C 3.117479 -5.367802 1.591219 -6 0 -6 
C -1.591219 -6 -3.117479 -5.367802 -4.242641 -4.242641 
C -5.367802 -3.117479 -6 -1.591219 -6 0 
C -6 1.591219 -5.367802 3.117479 -4.242641 4.242641 
C -3.117479 5.367802 -1.591219 6 0 6 
z
" id="m4155278e03" style="stroke:#000080;stroke-width:1.5;"/>
    </defs>
    <g>
     <use style="fill-opacity:0;stroke:#000080;stroke-width:1.5;" x="69.246464" xlink:href="#m4155278e03" y="288.410278"/>
     <use style="fill-opacity:0;stroke:#000080;stroke-width:1.5;" x="149.173031" xlink:href="#m4155278e03" y="269.449579"/>
     <use style="fill-opacity:0;stroke:#000080;stroke-width:1.5;" x="190.836578" xlink:href="#m4155278e03" y="254.702369"/>
     <use style="fill-opacity:0;stroke:#000080;stroke-width:1.5;" x="283.45532" xlink:href="#m4155278e03" y="236.268356"/>
     <use style="fill-opacity:0;stroke:#000080;stroke-width:1.5;" x="283.45532" xlink:href="#m4155278e03" y="235.74167"/>
     <use style="fill-opacity:0;stroke:#000080;stroke-width:1.5;" x="338.688" xlink:href="#m4155278e03" y="235.74167"/>
    </g>
   </g>
   <g id="line2d_37">
    <path style="fill:none;stroke:#000080;stroke-linecap:square;stroke-width:1.5;"/>
    <g/>
   </g>
   <g id="line2d_38">
    <path clip-path="url(#p6c2e399839)" d="M 218.221714 254.175683 
" style="fill:none;stroke:#000080;stroke-linecap:square;stroke-width:1.5;"/>
    <defs>
     <path d="M -12 12 
L 12 -12 
M -12 -12 
L 12 12 
" id="m6f882be42e" style="stroke:#000080;"/>
    </defs>
    <g clip-path="url(#p6c2e399839)">
     <use style="fill:#000080;stroke:#000080;" x="218.221714" xlink:href="#m6f882be42e" y="254.175683"/>
    </g>
   </g>
   <g id="line2d_39">
    <defs>
     <path d="M 0 1.5 
C 0.397805 1.5 0.77937 1.341951 1.06066 1.06066 
C 1.341951 0.77937 1.5 0.397805 1.5 0 
C 1.5 -0.397805 1.341951 -0.77937 1.06066 -1.06066 
C 0.77937 -1.341951 0.397805 -1.5 0 -1.5 
C -0.397805 -1.5 -0.77937 -1.341951 -1.06066 -1.06066 
C -1.341951 -0.77937 -1.5 -0.397805 -1.5 0 
C -1.5 0.397805 -1.341951 0.77937 -1.06066 1.06066 
C -0.77937 1.341951 -0.397805 1.5 0 1.5 
z
" id="m95e016ee6d" style="stroke:#ff00ff;"/>
    </defs>
    <g>
     <use style="fill:#ff00ff;stroke:#ff00ff;" x="256.816837" xlink:href="#m95e016ee6d" y="267.342835"/>
     <use style="fill:#ff00ff;stroke:#ff00ff;" x="256.816837" xlink:href="#m95e016ee6d" y="267.342835"/>
    </g>
   </g>
   <g id="line2d_40">
    <path d="M 5.356583 298.944 
L 5.356583 297.363942 
L 17.444571 297.363942 
L 17.444571 296.837256 
L 24.515591 296.837256 
L 24.515591 295.783884 
L 29.53256 295.783884 
L 29.53256 294.730511 
L 33.424023 294.730511 
L 33.424023 294.203825 
L 39.291857 294.203825 
L 39.291857 293.677139 
L 43.6746 293.677139 
L 43.6746 293.150453 
L 45.512012 293.150453 
L 45.512012 292.623767 
L 48.691568 292.623767 
L 48.691568 291.570395 
L 55.762588 291.570395 
L 55.762588 291.043709 
L 64.67102 291.043709 
L 64.67102 290.517023 
L 65.242851 290.517023 
L 65.242851 289.990337 
L 74.595619 289.990337 
L 74.595619 289.463651 
L 74.921597 289.463651 
L 74.921597 288.936964 
L 79.447285 288.936964 
L 79.447285 287.883592 
L 80.881459 287.883592 
L 80.881459 287.356906 
L 86.847358 287.356906 
L 86.847358 286.303534 
L 94.187924 286.303534 
L 94.187924 285.250162 
L 94.610715 285.250162 
L 94.610715 284.723476 
L 96.952455 284.723476 
L 96.952455 284.19679 
L 103.117741 284.19679 
L 103.117741 283.670104 
L 106.541356 283.670104 
L 106.541356 283.143418 
L 109.930396 283.143418 
L 109.930396 282.616732 
L 110.401178 282.616732 
L 110.401178 282.090045 
L 112.469299 282.090045 
L 112.469299 281.563359 
L 113.311233 281.563359 
L 113.311233 281.036673 
L 115.680082 281.036673 
L 115.680082 280.509987 
L 124.216444 280.509987 
L 124.216444 279.983301 
L 126.405947 279.983301 
L 126.405947 279.456615 
L 132.742089 279.456615 
L 132.742089 278.929929 
L 132.975083 278.929929 
L 132.975083 278.403243 
L 134.492498 278.403243 
L 134.492498 277.876557 
L 142.092866 277.876557 
L 142.092866 277.349871 
L 143.559326 277.349871 
L 143.559326 276.823185 
L 158.241633 276.823185 
L 158.241633 276.296499 
L 158.279639 276.296499 
L 158.279639 275.769812 
L 161.377198 275.769812 
L 161.377198 275.243126 
L 163.697374 275.243126 
L 163.697374 274.71644 
L 174.156284 274.71644 
L 174.156284 274.189754 
L 175.79927 274.189754 
L 175.79927 273.663068 
L 179.355873 273.663068 
L 179.355873 273.136382 
L 182.745386 273.136382 
L 182.745386 272.609696 
L 187.307746 272.609696 
L 187.307746 272.08301 
L 193.940085 272.08301 
L 193.940085 271.556324 
L 216.470028 271.556324 
L 216.470028 271.029638 
L 231.523407 271.029638 
L 231.523407 270.502952 
L 238.124827 270.502952 
L 238.124827 269.976266 
L 242.958725 269.976266 
L 242.958725 268.922893 
L 249.188711 268.922893 
L 249.188711 268.396207 
L 253.521691 268.396207 
L 253.521691 267.869521 
L 256.816837 267.869521 
L 256.816837 267.342835 
L 338.688 267.342835 
" style="fill:none;stroke:#ff00ff;stroke-linecap:square;stroke-width:1.5;"/>
   </g>
   <g id="line2d_41">
    <defs>
     <path d="M -0 8.485281 
L 5.091169 0 
L 0 -8.485281 
L -5.091169 -0 
z
" id="ma9a63acc42" style="stroke:#ff00ff;stroke-linejoin:miter;stroke-width:1.5;"/>
    </defs>
    <g>
     <use style="fill-opacity:0;stroke:#ff00ff;stroke-linejoin:miter;stroke-width:1.5;" x="143.559326" xlink:href="#ma9a63acc42" y="276.823185"/>
     <use style="fill-opacity:0;stroke:#ff00ff;stroke-linejoin:miter;stroke-width:1.5;" x="216.470028" xlink:href="#ma9a63acc42" y="271.556324"/>
     <use style="fill-opacity:0;stroke:#ff00ff;stroke-linejoin:miter;stroke-width:1.5;" x="256.816837" xlink:href="#ma9a63acc42" y="267.342835"/>
     <use style="fill-opacity:0;stroke:#ff00ff;stroke-linejoin:miter;stroke-width:1.5;" x="256.816837" xlink:href="#ma9a63acc42" y="267.342835"/>
     <use style="fill-opacity:0;stroke:#ff00ff;stroke-linejoin:miter;stroke-width:1.5;" x="338.688" xlink:href="#ma9a63acc42" y="267.342835"/>
    </g>
   </g>
   <g id="line2d_42">
    <path style="fill:none;stroke:#ff00ff;stroke-linecap:square;stroke-width:1.5;"/>
    <g/>
   </g>
   <g id="line2d_43">
    <path clip-path="url(#p6c2e399839)" d="M 218.221714 271.029638 
" style="fill:none;stroke:#ff00ff;stroke-linecap:square;stroke-width:1.5;"/>
    <defs>
     <path d="M -12 12 
L 12 -12 
M -12 -12 
L 12 12 
" id="mfeaf819833" style="stroke:#ff00ff;"/>
    </defs>
    <g clip-path="url(#p6c2e399839)">
     <use style="fill:#ff00ff;stroke:#ff00ff;" x="218.221714" xlink:href="#mfeaf819833" y="271.029638"/>
    </g>
   </g>
   <g id="line2d_44">
    <defs>
     <path d="M 0 1.5 
C 0.397805 1.5 0.77937 1.341951 1.06066 1.06066 
C 1.341951 0.77937 1.5 0.397805 1.5 0 
C 1.5 -0.397805 1.341951 -0.77937 1.06066 -1.06066 
C 0.77937 -1.341951 0.397805 -1.5 0 -1.5 
C -0.397805 -1.5 -0.77937 -1.341951 -1.06066 -1.06066 
C -1.341951 -0.77937 -1.5 -0.397805 -1.5 0 
C -1.5 0.397805 -1.341951 0.77937 -1.06066 1.06066 
C -0.77937 1.341951 -0.397805 1.5 0 1.5 
z
" id="mbd2dc3dee5" style="stroke:#ff7500;"/>
    </defs>
    <g>
     <use style="fill:#ff7500;stroke:#ff7500;" x="251.44612" xlink:href="#mbd2dc3dee5" y="267.342835"/>
     <use style="fill:#ff7500;stroke:#ff7500;" x="251.44612" xlink:href="#mbd2dc3dee5" y="267.342835"/>
    </g>
   </g>
   <g id="line2d_45">
    <path d="M 5.356583 298.944 
L 5.356583 296.837256 
L 24.515591 296.837256 
L 24.515591 295.783884 
L 29.53256 295.783884 
L 29.53256 294.730511 
L 45.512012 294.730511 
L 45.512012 293.677139 
L 47.174153 293.677139 
L 47.174153 293.150453 
L 53.708537 293.150453 
L 53.708537 292.623767 
L 60.779557 292.623767 
L 60.779557 292.097081 
L 68.79347 292.097081 
L 68.79347 291.043709 
L 70.11861 291.043709 
L 70.11861 289.990337 
L 78.154896 289.990337 
L 78.154896 289.463651 
L 81.775977 289.463651 
L 81.775977 288.936964 
L 82.626842 288.936964 
L 82.626842 288.410278 
L 84.02273 288.410278 
L 84.02273 287.883592 
L 86.351421 287.883592 
L 86.351421 287.356906 
L 87.798828 287.356906 
L 87.798828 286.83022 
L 93.197415 286.83022 
L 93.197415 286.303534 
L 94.294587 286.303534 
L 94.294587 285.776848 
L 94.400601 285.776848 
L 94.400601 285.250162 
L 95.426737 285.250162 
L 95.426737 284.723476 
L 98.771596 284.723476 
L 98.771596 284.19679 
L 103.993014 284.19679 
L 103.993014 283.670104 
L 110.818406 283.670104 
L 110.818406 283.143418 
L 112.013345 283.143418 
L 112.013345 282.616732 
L 118.012672 282.616732 
L 118.012672 282.090045 
L 126.372183 282.090045 
L 126.372183 281.563359 
L 130.004878 281.563359 
L 130.004878 281.036673 
L 134.953107 281.036673 
L 134.953107 280.509987 
L 139.049982 280.509987 
L 139.049982 279.983301 
L 139.485583 279.983301 
L 139.485583 279.456615 
L 140.641435 279.456615 
L 140.641435 278.929929 
L 143.759996 278.929929 
L 143.759996 278.403243 
L 144.026061 278.403243 
L 144.026061 277.876557 
L 147.154371 277.876557 
L 147.154371 277.349871 
L 149.007685 277.349871 
L 149.007685 276.823185 
L 159.580355 276.823185 
L 159.580355 276.296499 
L 161.5534 276.296499 
L 161.5534 275.769812 
L 161.750077 275.769812 
L 161.750077 275.243126 
L 166.574863 275.243126 
L 166.574863 274.71644 
L 167.203791 274.71644 
L 167.203791 274.189754 
L 180.718401 274.189754 
L 180.718401 273.663068 
L 198.209076 273.663068 
L 198.209076 273.136382 
L 212.502525 273.136382 
L 212.502525 272.609696 
L 213.894539 272.609696 
L 213.894539 272.08301 
L 214.405405 272.08301 
L 214.405405 271.556324 
L 218.406892 271.556324 
L 218.406892 271.029638 
L 219.063692 271.029638 
L 219.063692 270.502952 
L 220.14233 270.502952 
L 220.14233 269.976266 
L 224.617485 269.976266 
L 224.617485 269.449579 
L 226.882007 269.449579 
L 226.882007 268.922893 
L 228.279984 268.922893 
L 228.279984 268.396207 
L 243.729378 268.396207 
L 243.729378 267.869521 
L 251.44612 267.869521 
L 251.44612 267.342835 
L 338.688 267.342835 
" style="fill:none;stroke:#ff7500;stroke-linecap:square;stroke-width:1.5;"/>
   </g>
   <g id="line2d_46">
    <defs>
     <path d="M 0 -6 
L -1.347084 -1.854102 
L -5.706339 -1.854102 
L -2.179628 0.708204 
L -3.526712 4.854102 
L -0 2.291796 
L 3.526712 4.854102 
L 2.179628 0.708204 
L 5.706339 -1.854102 
L 1.347084 -1.854102 
z
" id="m948278ff4b" style="stroke:#ff7500;stroke-linejoin:bevel;stroke-width:1.5;"/>
    </defs>
    <g>
     <use style="fill-opacity:0;stroke:#ff7500;stroke-linejoin:bevel;stroke-width:1.5;" x="70.11861" xlink:href="#m948278ff4b" y="291.043709"/>
     <use style="fill-opacity:0;stroke:#ff7500;stroke-linejoin:bevel;stroke-width:1.5;" x="139.485583" xlink:href="#m948278ff4b" y="279.456615"/>
     <use style="fill-opacity:0;stroke:#ff7500;stroke-linejoin:bevel;stroke-width:1.5;" x="228.279984" xlink:href="#m948278ff4b" y="268.922893"/>
     <use style="fill-opacity:0;stroke:#ff7500;stroke-linejoin:bevel;stroke-width:1.5;" x="251.44612" xlink:href="#m948278ff4b" y="267.342835"/>
     <use style="fill-opacity:0;stroke:#ff7500;stroke-linejoin:bevel;stroke-width:1.5;" x="251.44612" xlink:href="#m948278ff4b" y="267.342835"/>
     <use style="fill-opacity:0;stroke:#ff7500;stroke-linejoin:bevel;stroke-width:1.5;" x="338.688" xlink:href="#m948278ff4b" y="267.342835"/>
    </g>
   </g>
   <g id="line2d_47">
    <path style="fill:none;stroke:#ff7500;stroke-linecap:square;stroke-width:1.5;"/>
    <g/>
   </g>
   <g id="line2d_48">
    <path clip-path="url(#p6c2e399839)" d="M 218.221714 271.556324 
" style="fill:none;stroke:#ff7500;stroke-linecap:square;stroke-width:1.5;"/>
    <defs>
     <path d="M -12 12 
L 12 -12 
M -12 -12 
L 12 12 
" id="m2857741375" style="stroke:#ff7500;"/>
    </defs>
    <g clip-path="url(#p6c2e399839)">
     <use style="fill:#ff7500;stroke:#ff7500;" x="218.221714" xlink:href="#m2857741375" y="271.556324"/>
    </g>
   </g>
   <g id="line2d_49">
    <defs>
     <path d="M 0 1.5 
C 0.397805 1.5 0.77937 1.341951 1.06066 1.06066 
C 1.341951 0.77937 1.5 0.397805 1.5 0 
C 1.5 -0.397805 1.341951 -0.77937 1.06066 -1.06066 
C 0.77937 -1.341951 0.397805 -1.5 0 -1.5 
C -0.397805 -1.5 -0.77937 -1.341951 -1.06066 -1.06066 
C -1.341951 -0.77937 -1.5 -0.397805 -1.5 0 
C -1.5 0.397805 -1.341951 0.77937 -1.06066 1.06066 
C -0.77937 1.341951 -0.397805 1.5 0 1.5 
z
" id="md4f79a05ab" style="stroke:#6495ed;"/>
    </defs>
    <g>
     <use style="fill:#6495ed;stroke:#6495ed;" x="219.394215" xlink:href="#md4f79a05ab" y="272.609696"/>
     <use style="fill:#6495ed;stroke:#6495ed;" x="219.394215" xlink:href="#md4f79a05ab" y="272.609696"/>
    </g>
   </g>
   <g id="line2d_50">
    <path d="M 5.356583 298.944 
L 5.356583 296.31057 
L 17.444571 296.31057 
L 17.444571 295.257197 
L 24.515591 295.257197 
L 24.515591 293.677139 
L 29.53256 293.677139 
L 29.53256 292.623767 
L 33.424023 292.623767 
L 33.424023 292.097081 
L 43.6746 292.097081 
L 43.6746 291.570395 
L 48.691568 291.570395 
L 48.691568 291.043709 
L 58.450865 291.043709 
L 58.450865 290.517023 
L 72.500389 290.517023 
L 72.500389 289.990337 
L 74.263433 289.990337 
L 74.263433 289.463651 
L 75.241593 289.463651 
L 75.241593 288.936964 
L 79.938565 288.936964 
L 79.938565 288.410278 
L 81.556612 288.410278 
L 81.556612 287.883592 
L 86.012784 287.883592 
L 86.012784 287.356906 
L 88.405473 287.356906 
L 88.405473 286.83022 
L 88.553893 286.83022 
L 88.553893 286.303534 
L 92.969447 286.303534 
L 92.969447 285.776848 
L 96.206276 285.776848 
L 96.206276 285.250162 
L 97.491858 285.250162 
L 97.491858 284.723476 
L 101.223245 284.723476 
L 101.223245 284.19679 
L 105.114708 284.19679 
L 105.114708 283.670104 
L 109.31223 283.670104 
L 109.31223 283.143418 
L 112.128456 283.143418 
L 112.128456 282.616732 
L 116.472913 282.616732 
L 116.472913 282.090045 
L 121.865885 282.090045 
L 121.865885 281.563359 
L 125.327602 281.563359 
L 125.327602 281.036673 
L 126.623836 281.036673 
L 126.623836 280.509987 
L 127.261631 280.509987 
L 127.261631 279.983301 
L 129.839445 279.983301 
L 129.839445 279.456615 
L 135.532268 279.456615 
L 135.532268 278.929929 
L 139.754371 278.929929 
L 139.754371 278.403243 
L 142.646541 278.403243 
L 142.646541 277.876557 
L 155.841748 277.876557 
L 155.841748 277.349871 
L 173.829174 277.349871 
L 173.829174 276.823185 
L 183.865473 276.823185 
L 183.865473 276.296499 
L 184.947349 276.296499 
L 184.947349 275.769812 
L 190.281551 275.769812 
L 190.281551 275.243126 
L 190.96773 275.243126 
L 190.96773 274.71644 
L 204.68378 274.71644 
L 204.68378 274.189754 
L 209.101716 274.189754 
L 209.101716 273.663068 
L 211.413906 273.663068 
L 211.413906 273.136382 
L 219.394215 273.136382 
L 219.394215 272.609696 
L 338.688 272.609696 
" style="fill:none;stroke:#6495ed;stroke-linecap:square;stroke-width:1.5;"/>
   </g>
   <g id="line2d_51">
    <defs>
     <path d="M -0 6 
L 6 -6 
L -6 -6 
z
" id="m323cd7528e" style="stroke:#6495ed;stroke-linejoin:miter;stroke-width:1.5;"/>
    </defs>
    <g>
     <use style="fill-opacity:0;stroke:#6495ed;stroke-linejoin:miter;stroke-width:1.5;" x="96.206276" xlink:href="#m323cd7528e" y="285.776848"/>
     <use style="fill-opacity:0;stroke:#6495ed;stroke-linejoin:miter;stroke-width:1.5;" x="155.841748" xlink:href="#m323cd7528e" y="277.876557"/>
     <use style="fill-opacity:0;stroke:#6495ed;stroke-linejoin:miter;stroke-width:1.5;" x="219.394215" xlink:href="#m323cd7528e" y="273.136382"/>
     <use style="fill-opacity:0;stroke:#6495ed;stroke-linejoin:miter;stroke-width:1.5;" x="219.394215" xlink:href="#m323cd7528e" y="272.609696"/>
     <use style="fill-opacity:0;stroke:#6495ed;stroke-linejoin:miter;stroke-width:1.5;" x="219.394215" xlink:href="#m323cd7528e" y="272.609696"/>
     <use style="fill-opacity:0;stroke:#6495ed;stroke-linejoin:miter;stroke-width:1.5;" x="338.688" xlink:href="#m323cd7528e" y="272.609696"/>
    </g>
   </g>
   <g id="line2d_52">
    <path style="fill:none;stroke:#6495ed;stroke-linecap:square;stroke-width:1.5;"/>
    <g/>
   </g>
   <g id="line2d_53">
    <path clip-path="url(#p6c2e399839)" d="M 218.221714 273.136382 
" style="fill:none;stroke:#6495ed;stroke-linecap:square;stroke-width:1.5;"/>
    <defs>
     <path d="M -12 12 
L 12 -12 
M -12 -12 
L 12 12 
" id="m2358e16660" style="stroke:#6495ed;"/>
    </defs>
    <g clip-path="url(#p6c2e399839)">
     <use style="fill:#6495ed;stroke:#6495ed;" x="218.221714" xlink:href="#m2358e16660" y="273.136382"/>
    </g>
   </g>
   <g id="line2d_54">
    <defs>
     <path d="M 0 1.5 
C 0.397805 1.5 0.77937 1.341951 1.06066 1.06066 
C 1.341951 0.77937 1.5 0.397805 1.5 0 
C 1.5 -0.397805 1.341951 -0.77937 1.06066 -1.06066 
C 0.77937 -1.341951 0.397805 -1.5 0 -1.5 
C -0.397805 -1.5 -0.77937 -1.341951 -1.06066 -1.06066 
C -1.341951 -0.77937 -1.5 -0.397805 -1.5 0 
C -1.5 0.397805 -1.341951 0.77937 -1.06066 1.06066 
C -0.77937 1.341951 -0.397805 1.5 0 1.5 
z
" id="m27dda06314" style="stroke:#ff0000;"/>
    </defs>
    <g>
     <use style="fill:#ff0000;stroke:#ff0000;" x="282.993979" xlink:href="#m27dda06314" y="256.809114"/>
     <use style="fill:#ff0000;stroke:#ff0000;" x="282.993979" xlink:href="#m27dda06314" y="256.809114"/>
    </g>
   </g>
   <g id="line2d_55">
    <path d="M 17.444571 298.944 
L 17.444571 296.31057 
L 29.53256 296.31057 
L 29.53256 295.783884 
L 36.60358 295.783884 
L 36.60358 294.730511 
L 50.087456 294.730511 
L 50.087456 294.203825 
L 51.379845 294.203825 
L 51.379845 293.677139 
L 52.583031 293.677139 
L 52.583031 293.150453 
L 55.762588 293.150453 
L 55.762588 292.623767 
L 61.491463 292.623767 
L 61.491463 292.097081 
L 63.467834 292.097081 
L 63.467834 291.570395 
L 74.595619 291.570395 
L 74.595619 291.043709 
L 79.196356 291.043709 
L 79.196356 290.517023 
L 81.556612 290.517023 
L 81.556612 289.990337 
L 82.626842 289.990337 
L 82.626842 289.463651 
L 86.012784 289.463651 
L 86.012784 288.936964 
L 90.901048 288.936964 
L 90.901048 288.410278 
L 92.621809 288.410278 
L 92.621809 287.356906 
L 93.310291 287.356906 
L 93.310291 286.83022 
L 94.818328 286.83022 
L 94.818328 286.303534 
L 97.668013 286.303534 
L 97.668013 285.776848 
L 98.43941 285.776848 
L 98.43941 285.250162 
L 98.606294 285.250162 
L 98.606294 284.723476 
L 99.338119 284.723476 
L 99.338119 284.19679 
L 100.567829 284.19679 
L 100.567829 283.670104 
L 103.435405 283.670104 
L 103.435405 283.143418 
L 105.897371 283.143418 
L 105.897371 282.616732 
L 107.009204 282.616732 
L 107.009204 282.090045 
L 109.040444 282.090045 
L 109.040444 281.563359 
L 113.346933 281.563359 
L 113.346933 281.036673 
L 114.250364 281.036673 
L 114.250364 280.509987 
L 114.452366 280.509987 
L 114.452366 279.983301 
L 118.81278 279.983301 
L 118.81278 279.456615 
L 119.377041 279.456615 
L 119.377041 278.929929 
L 119.62761 278.929929 
L 119.62761 278.403243 
L 119.923616 278.403243 
L 119.923616 277.876557 
L 120.759333 277.876557 
L 120.759333 277.349871 
L 121.013926 277.349871 
L 121.013926 276.823185 
L 122.31944 276.823185 
L 122.31944 276.296499 
L 123.849288 276.296499 
L 123.849288 275.769812 
L 124.349787 275.769812 
L 124.349787 275.243126 
L 125.038147 275.243126 
L 125.038147 274.71644 
L 126.151107 274.71644 
L 126.151107 274.189754 
L 128.900399 274.189754 
L 128.900399 273.663068 
L 129.560187 273.663068 
L 129.560187 273.136382 
L 131.108073 273.136382 
L 131.108073 272.609696 
L 132.398622 272.609696 
L 132.398622 272.08301 
L 134.279041 272.08301 
L 134.279041 271.556324 
L 135.209496 271.556324 
L 135.311005 269.976266 
L 135.97629 269.976266 
L 135.97629 269.449579 
L 141.184622 269.449579 
L 141.184622 268.922893 
L 142.365148 268.922893 
L 142.365148 268.396207 
L 142.606619 268.396207 
L 142.606619 267.869521 
L 146.167227 267.869521 
L 146.167227 267.342835 
L 147.449528 267.342835 
L 147.449528 266.816149 
L 218.377102 266.816149 
L 218.43086 265.236091 
L 230.423471 265.236091 
L 230.518375 264.182719 
L 237.520114 264.182719 
L 237.520114 263.129347 
L 242.451778 263.129347 
L 242.502339 261.549288 
L 252.190216 261.549288 
L 252.216864 260.495916 
L 256.557065 260.495916 
L 256.557065 259.96923 
L 258.407139 259.96923 
L 258.419077 258.915858 
L 267.655598 258.915858 
L 267.655598 258.389172 
L 269.592697 258.389172 
L 269.592697 257.862486 
L 271.335978 257.862486 
L 271.335978 257.3358 
L 282.993979 257.3358 
L 282.993979 256.809114 
L 338.688 256.809114 
L 338.688 256.809114 
" style="fill:none;stroke:#ff0000;stroke-linecap:square;stroke-width:1.5;"/>
   </g>
   <g id="line2d_56">
    <defs>
     <path d="M 0 -6 
L -5.196152 -3 
L -5.196152 3 
L -0 6 
L 5.196152 3 
L 5.196152 -3 
z
" id="ma00ea805c3" style="stroke:#ff0000;stroke-linejoin:miter;stroke-width:1.5;"/>
    </defs>
    <g>
     <use style="fill-opacity:0;stroke:#ff0000;stroke-linejoin:miter;stroke-width:1.5;" x="124.349787" xlink:href="#ma00ea805c3" y="275.769812"/>
     <use style="fill-opacity:0;stroke:#ff0000;stroke-linejoin:miter;stroke-width:1.5;" x="147.449528" xlink:href="#ma00ea805c3" y="266.816149"/>
     <use style="fill-opacity:0;stroke:#ff0000;stroke-linejoin:miter;stroke-width:1.5;" x="267.655598" xlink:href="#ma00ea805c3" y="258.915858"/>
     <use style="fill-opacity:0;stroke:#ff0000;stroke-linejoin:miter;stroke-width:1.5;" x="282.993979" xlink:href="#ma00ea805c3" y="256.809114"/>
     <use style="fill-opacity:0;stroke:#ff0000;stroke-linejoin:miter;stroke-width:1.5;" x="282.993979" xlink:href="#ma00ea805c3" y="256.809114"/>
     <use style="fill-opacity:0;stroke:#ff0000;stroke-linejoin:miter;stroke-width:1.5;" x="338.688" xlink:href="#ma00ea805c3" y="256.809114"/>
    </g>
   </g>
   <g id="line2d_57">
    <path style="fill:none;stroke:#ff0000;stroke-linecap:square;stroke-width:1.5;"/>
    <g/>
   </g>
   <g id="line2d_58">
    <path clip-path="url(#p6c2e399839)" d="M 218.221714 266.816149 
" style="fill:none;stroke:#ff0000;stroke-linecap:square;stroke-width:1.5;"/>
    <defs>
     <path d="M -12 12 
L 12 -12 
M -12 -12 
L 12 12 
" id="m5ac26fa3a6" style="stroke:#ff0000;"/>
    </defs>
    <g clip-path="url(#p6c2e399839)">
     <use style="fill:#ff0000;stroke:#ff0000;" x="218.221714" xlink:href="#m5ac26fa3a6" y="266.816149"/>
    </g>
   </g>
   <g id="line2d_59">
    <defs>
     <path d="M 0 1.5 
C 0.397805 1.5 0.77937 1.341951 1.06066 1.06066 
C 1.341951 0.77937 1.5 0.397805 1.5 0 
C 1.5 -0.397805 1.341951 -0.77937 1.06066 -1.06066 
C 0.77937 -1.341951 0.397805 -1.5 0 -1.5 
C -0.397805 -1.5 -0.77937 -1.341951 -1.06066 -1.06066 
C -1.341951 -0.77937 -1.5 -0.397805 -1.5 0 
C -1.5 0.397805 -1.341951 0.77937 -1.06066 1.06066 
C -0.77937 1.341951 -0.397805 1.5 0 1.5 
z
" id="md4b5c32a83" style="stroke:#9acd32;"/>
    </defs>
    <g>
     <use style="fill:#9acd32;stroke:#9acd32;" x="246.3812" xlink:href="#md4b5c32a83" y="256.809114"/>
     <use style="fill:#9acd32;stroke:#9acd32;" x="246.3812" xlink:href="#md4b5c32a83" y="256.809114"/>
    </g>
   </g>
   <g id="line2d_60">
    <path d="M 5.356583 298.944 
L 5.356583 298.417314 
L 17.444571 298.417314 
L 17.444571 297.363942 
L 24.515591 297.363942 
L 24.515591 296.31057 
L 39.291857 296.31057 
L 39.291857 295.783884 
L 47.174153 295.783884 
L 47.174153 295.257197 
L 50.087456 295.257197 
L 50.087456 294.730511 
L 52.583031 294.730511 
L 52.583031 294.203825 
L 54.765787 294.203825 
L 54.765787 293.677139 
L 62.833608 293.677139 
L 62.833608 293.150453 
L 67.850577 293.150453 
L 67.850577 292.623767 
L 73.924795 292.623767 
L 73.924795 291.570395 
L 75.241593 291.570395 
L 75.241593 291.043709 
L 78.421149 291.043709 
L 78.421149 290.517023 
L 78.683399 290.517023 
L 78.683399 289.463651 
L 86.847358 289.463651 
L 86.847358 288.936964 
L 87.329581 288.936964 
L 87.329581 288.410278 
L 89.558903 288.410278 
L 89.558903 287.883592 
L 95.226283 287.883592 
L 95.226283 287.356906 
L 96.395835 287.356906 
L 96.395835 286.83022 
L 98.015075 286.83022 
L 98.100772 285.776848 
L 100.268435 285.776848 
L 100.268435 285.250162 
L 100.567829 285.250162 
L 100.567829 284.723476 
L 101.151625 284.723476 
L 101.151625 284.19679 
L 103.870632 284.19679 
L 103.870632 283.670104 
L 104.474128 283.670104 
L 104.474128 283.143418 
L 105.621863 283.143418 
L 105.621863 282.616732 
L 110.569269 282.616732 
L 110.569269 282.090045 
L 115.617575 282.090045 
L 115.617575 281.563359 
L 118.363901 281.563359 
L 118.363901 281.036673 
L 119.702083 281.036673 
L 119.702083 280.509987 
L 121.355214 280.509987 
L 121.355214 279.983301 
L 124.57603 279.983301 
L 124.613453 278.929929 
L 126.219429 278.929929 
L 126.219429 278.403243 
L 126.405947 278.403243 
L 126.405947 277.876557 
L 130.743656 277.876557 
L 130.743656 277.349871 
L 132.278599 277.349871 
L 132.278599 276.823185 
L 133.5443 276.823185 
L 133.5443 276.296499 
L 135.045841 276.296499 
L 135.045841 275.769812 
L 137.352682 275.769812 
L 137.352682 275.243126 
L 140.752916 275.243126 
L 140.752916 274.71644 
L 143.208936 274.71644 
L 143.208936 274.189754 
L 146.869789 274.189754 
L 146.869789 273.663068 
L 147.251611 273.663068 
L 147.251611 273.136382 
L 148.112924 273.136382 
L 148.166278 272.08301 
L 149.65542 272.08301 
L 149.65542 271.556324 
L 152.28006 271.556324 
L 152.28006 271.029638 
L 153.319524 271.029638 
L 153.319524 270.502952 
L 154.184285 270.502952 
L 154.184285 269.976266 
L 154.880133 269.976266 
L 154.880133 269.449579 
L 155.504823 269.449579 
L 155.504823 268.922893 
L 156.282103 268.922893 
L 156.282103 268.396207 
L 158.583406 268.396207 
L 158.583406 267.869521 
L 165.313559 267.869521 
L 165.313559 267.342835 
L 169.554414 267.342835 
L 169.554414 266.816149 
L 218.389801 266.816149 
L 218.434048 265.762777 
L 218.659565 265.762777 
L 218.71475 264.182719 
L 230.465522 264.182719 
L 230.538912 262.60266 
L 237.451788 262.60266 
L 237.541151 261.549288 
L 242.426573 261.549288 
L 242.512672 258.389172 
L 242.544564 258.389172 
L 242.544564 257.862486 
L 246.35184 257.862486 
L 246.3812 256.809114 
L 338.688 256.809114 
L 338.688 256.809114 
" style="fill:none;stroke:#9acd32;stroke-linecap:square;stroke-width:1.5;"/>
   </g>
   <g id="line2d_61">
    <defs>
     <path d="M 0 -6 
L -6 6 
L 6 6 
z
" id="ma492994cae" style="stroke:#9acd32;stroke-linejoin:miter;stroke-width:1.5;"/>
    </defs>
    <g>
     <use style="fill-opacity:0;stroke:#9acd32;stroke-linejoin:miter;stroke-width:1.5;" x="103.870632" xlink:href="#ma492994cae" y="283.670104"/>
     <use style="fill-opacity:0;stroke:#9acd32;stroke-linejoin:miter;stroke-width:1.5;" x="169.554414" xlink:href="#ma492994cae" y="267.342835"/>
     <use style="fill-opacity:0;stroke:#9acd32;stroke-linejoin:miter;stroke-width:1.5;" x="246.3812" xlink:href="#ma492994cae" y="257.3358"/>
     <use style="fill-opacity:0;stroke:#9acd32;stroke-linejoin:miter;stroke-width:1.5;" x="246.3812" xlink:href="#ma492994cae" y="256.809114"/>
     <use style="fill-opacity:0;stroke:#9acd32;stroke-linejoin:miter;stroke-width:1.5;" x="246.3812" xlink:href="#ma492994cae" y="256.809114"/>
     <use style="fill-opacity:0;stroke:#9acd32;stroke-linejoin:miter;stroke-width:1.5;" x="338.688" xlink:href="#ma492994cae" y="256.809114"/>
    </g>
   </g>
   <g id="line2d_62">
    <path style="fill:none;stroke:#9acd32;stroke-linecap:square;stroke-width:1.5;"/>
    <g/>
   </g>
   <g id="line2d_63">
    <path clip-path="url(#p6c2e399839)" d="M 218.221714 266.816149 
" style="fill:none;stroke:#9acd32;stroke-linecap:square;stroke-width:1.5;"/>
    <defs>
     <path d="M -12 12 
L 12 -12 
M -12 -12 
L 12 12 
" id="mfb0dc4ec6f" style="stroke:#9acd32;"/>
    </defs>
    <g clip-path="url(#p6c2e399839)">
     <use style="fill:#9acd32;stroke:#9acd32;" x="218.221714" xlink:href="#mfb0dc4ec6f" y="266.816149"/>
    </g>
   </g>
   <g id="line2d_64">
    <defs>
     <path d="M 0 1.5 
C 0.397805 1.5 0.77937 1.341951 1.06066 1.06066 
C 1.341951 0.77937 1.5 0.397805 1.5 0 
C 1.5 -0.397805 1.341951 -0.77937 1.06066 -1.06066 
C 0.77937 -1.341951 0.397805 -1.5 0 -1.5 
C -0.397805 -1.5 -0.77937 -1.341951 -1.06066 -1.06066 
C -1.341951 -0.77937 -1.5 -0.397805 -1.5 0 
C -1.5 0.397805 -1.341951 0.77937 -1.06066 1.06066 
C -0.77937 1.341951 -0.397805 1.5 0 1.5 
z
" id="m2d0f4294d6" style="stroke:#00bfbf;"/>
    </defs>
    <g>
     <use style="fill:#00bfbf;stroke:#00bfbf;" x="273.674393" xlink:href="#m2d0f4294d6" y="251.542253"/>
     <use style="fill:#00bfbf;stroke:#00bfbf;" x="273.674393" xlink:href="#m2d0f4294d6" y="251.542253"/>
    </g>
   </g>
   <g id="line2d_65">
    <path d="M 17.444571 298.944 
L 17.444571 297.363942 
L 24.515591 297.363942 
L 24.515591 296.837256 
L 29.53256 296.837256 
L 29.53256 296.31057 
L 33.424023 296.31057 
L 33.424023 295.783884 
L 36.60358 295.783884 
L 36.60358 294.730511 
L 47.174153 294.730511 
L 47.174153 293.677139 
L 52.583031 293.677139 
L 52.583031 293.150453 
L 55.762588 293.150453 
L 55.762588 292.623767 
L 60.037348 292.623767 
L 60.037348 292.097081 
L 66.853775 292.097081 
L 66.853775 291.570395 
L 70.949209 291.570395 
L 70.949209 291.043709 
L 76.465904 291.043709 
L 76.465904 290.517023 
L 77.330839 290.517023 
L 77.330839 289.990337 
L 80.881459 289.990337 
L 80.881459 289.463651 
L 86.012784 289.463651 
L 86.012784 288.936964 
L 87.952479 288.936964 
L 87.952479 288.410278 
L 88.104788 288.410278 
L 88.104788 287.883592 
L 94.505975 287.883592 
L 94.505975 287.356906 
L 94.818328 287.356906 
L 94.818328 286.83022 
L 97.491858 286.83022 
L 97.491858 286.303534 
L 98.523051 286.303534 
L 98.523051 285.776848 
L 99.653771 285.776848 
L 99.653771 285.250162 
L 100.268435 285.250162 
L 100.268435 284.723476 
L 100.418775 284.723476 
L 100.418775 284.19679 
L 102.060491 284.19679 
L 102.060491 283.670104 
L 102.330873 283.670104 
L 102.330873 283.143418 
L 106.750839 283.143418 
L 106.750839 282.616732 
L 107.564481 282.616732 
L 107.564481 282.090045 
L 108.483824 282.090045 
L 108.483824 281.563359 
L 109.624052 281.563359 
L 109.624052 281.036673 
L 109.930396 281.036673 
L 109.930396 280.509987 
L 110.900667 280.509987 
L 110.900667 279.983301 
L 112.128456 279.983301 
L 112.128456 279.456615 
L 113.977337 279.456615 
L 113.977337 278.929929 
L 115.835374 278.929929 
L 115.835374 278.403243 
L 116.019919 278.403243 
L 116.019919 277.876557 
L 120.642369 277.876557 
L 120.642369 277.349871 
L 121.174025 277.349871 
L 121.174025 276.823185 
L 121.974949 276.823185 
L 121.974949 276.296499 
L 123.212892 276.296499 
L 123.212892 275.769812 
L 124.706662 275.769812 
L 124.706662 275.243126 
L 125.363449 275.243126 
L 125.363449 274.71644 
L 128.015879 274.71644 
L 128.015879 274.189754 
L 130.835477 274.189754 
L 130.835477 273.663068 
L 131.389151 273.663068 
L 131.389151 273.136382 
L 131.950349 273.136382 
L 131.950349 272.609696 
L 132.434469 272.609696 
L 132.434469 272.08301 
L 134.587709 272.08301 
L 134.650895 271.029638 
L 135.138086 271.029638 
L 135.138086 270.502952 
L 136.79465 270.502952 
L 136.79465 269.976266 
L 137.902135 269.976266 
L 137.902135 269.449579 
L 142.249947 269.449579 
L 142.249947 268.922893 
L 144.605813 268.922893 
L 144.605813 268.396207 
L 144.841802 268.396207 
L 144.841802 267.869521 
L 146.297089 267.869521 
L 146.297089 267.342835 
L 148.620389 267.342835 
L 148.629823 266.289463 
L 148.803443 266.289463 
L 148.803443 265.762777 
L 149.579665 265.762777 
L 149.642076 264.182719 
L 151.199125 264.182719 
L 151.199125 263.656033 
L 154.510453 263.656033 
L 154.510453 263.129347 
L 156.236431 263.129347 
L 156.236431 262.60266 
L 160.39655 262.60266 
L 160.39655 262.075974 
L 168.72825 262.075974 
L 168.72825 261.549288 
L 176.956585 261.549288 
L 176.956585 261.022602 
L 218.362836 261.022602 
L 218.451439 258.915858 
L 218.560132 258.915858 
L 218.560132 258.389172 
L 218.830578 258.389172 
L 218.921032 256.282427 
L 230.812823 256.282427 
L 230.812823 255.755741 
L 231.109296 255.755741 
L 231.109296 255.229055 
L 237.685499 255.229055 
L 237.717744 254.175683 
L 252.258624 254.175683 
L 252.258624 253.648997 
L 261.616059 253.648997 
L 261.641568 252.595625 
L 272.933475 252.595625 
L 272.933475 252.068939 
L 273.674393 252.068939 
L 273.674393 251.542253 
L 338.688 251.542253 
L 338.688 251.542253 
" style="fill:none;stroke:#00bfbf;stroke-linecap:square;stroke-width:1.5;"/>
   </g>
   <g id="line2d_66">
    <defs>
     <path d="M 0 -6 
L -5.706339 -1.854102 
L -3.526712 4.854102 
L 3.526712 4.854102 
L 5.706339 -1.854102 
z
" id="m5caf86ee83" style="stroke:#00bfbf;stroke-linejoin:miter;stroke-width:1.5;"/>
    </defs>
    <g>
     <use style="fill-opacity:0;stroke:#00bfbf;stroke-linejoin:miter;stroke-width:1.5;" x="60.037348" xlink:href="#m5caf86ee83" y="292.623767"/>
     <use style="fill-opacity:0;stroke:#00bfbf;stroke-linejoin:miter;stroke-width:1.5;" x="123.212892" xlink:href="#m5caf86ee83" y="275.769812"/>
     <use style="fill-opacity:0;stroke:#00bfbf;stroke-linejoin:miter;stroke-width:1.5;" x="176.956585" xlink:href="#m5caf86ee83" y="261.022602"/>
     <use style="fill-opacity:0;stroke:#00bfbf;stroke-linejoin:miter;stroke-width:1.5;" x="273.674393" xlink:href="#m5caf86ee83" y="252.068939"/>
     <use style="fill-opacity:0;stroke:#00bfbf;stroke-linejoin:miter;stroke-width:1.5;" x="273.674393" xlink:href="#m5caf86ee83" y="251.542253"/>
     <use style="fill-opacity:0;stroke:#00bfbf;stroke-linejoin:miter;stroke-width:1.5;" x="338.688" xlink:href="#m5caf86ee83" y="251.542253"/>
    </g>
   </g>
   <g id="line2d_67">
    <path style="fill:none;stroke:#00bfbf;stroke-linecap:square;stroke-width:1.5;"/>
    <g/>
   </g>
   <g id="line2d_68">
    <path clip-path="url(#p6c2e399839)" d="M 218.221714 261.022602 
" style="fill:none;stroke:#00bfbf;stroke-linecap:square;stroke-width:1.5;"/>
    <defs>
     <path d="M -12 12 
L 12 -12 
M -12 -12 
L 12 12 
" id="madb7b30fdf" style="stroke:#00bfbf;"/>
    </defs>
    <g clip-path="url(#p6c2e399839)">
     <use style="fill:#00bfbf;stroke:#00bfbf;" x="218.221714" xlink:href="#madb7b30fdf" y="261.022602"/>
    </g>
   </g>
   <g id="line2d_69">
    <path d="M 338.688 272.609696 
L 369.60768 293.571802 
" style="fill:none;stroke:#6495ed;stroke-linecap:square;stroke-width:1.5;"/>
    <g>
     <use style="fill-opacity:0;stroke:#6495ed;stroke-linejoin:miter;stroke-width:1.5;" x="338.688" xlink:href="#m323cd7528e" y="272.609696"/>
     <use style="fill-opacity:0;stroke:#6495ed;stroke-linejoin:miter;stroke-width:1.5;" x="369.60768" xlink:href="#m323cd7528e" y="293.571802"/>
    </g>
   </g>
   <g id="line2d_70">
    <path d="M 338.688 267.342835 
L 369.60768 256.733873 
" style="fill:none;stroke:#ff00ff;stroke-linecap:square;stroke-width:1.5;"/>
    <g>
     <use style="fill-opacity:0;stroke:#ff00ff;stroke-linejoin:miter;stroke-width:1.5;" x="338.688" xlink:href="#ma9a63acc42" y="267.342835"/>
     <use style="fill-opacity:0;stroke:#ff00ff;stroke-linejoin:miter;stroke-width:1.5;" x="369.60768" xlink:href="#ma9a63acc42" y="256.733873"/>
    </g>
   </g>
   <g id="line2d_71">
    <path d="M 338.688 267.342835 
L 369.60768 219.895943 
" style="fill:none;stroke:#ff7500;stroke-linecap:square;stroke-width:1.5;"/>
    <g>
     <use style="fill-opacity:0;stroke:#ff7500;stroke-linejoin:bevel;stroke-width:1.5;" x="338.688" xlink:href="#m948278ff4b" y="267.342835"/>
     <use style="fill-opacity:0;stroke:#ff7500;stroke-linejoin:bevel;stroke-width:1.5;" x="369.60768" xlink:href="#m948278ff4b" y="219.895943"/>
    </g>
   </g>
   <g id="line2d_72">
    <path d="M 338.688 256.809114 
L 369.60768 183.058014 
" style="fill:none;stroke:#ff0000;stroke-linecap:square;stroke-width:1.5;"/>
    <g>
     <use style="fill-opacity:0;stroke:#ff0000;stroke-linejoin:miter;stroke-width:1.5;" x="338.688" xlink:href="#ma00ea805c3" y="256.809114"/>
     <use style="fill-opacity:0;stroke:#ff0000;stroke-linejoin:miter;stroke-width:1.5;" x="369.60768" xlink:href="#ma00ea805c3" y="183.058014"/>
    </g>
   </g>
   <g id="line2d_73">
    <path d="M 338.688 256.809114 
L 369.60768 146.220085 
" style="fill:none;stroke:#9acd32;stroke-linecap:square;stroke-width:1.5;"/>
    <g>
     <use style="fill-opacity:0;stroke:#9acd32;stroke-linejoin:miter;stroke-width:1.5;" x="338.688" xlink:href="#ma492994cae" y="256.809114"/>
     <use style="fill-opacity:0;stroke:#9acd32;stroke-linejoin:miter;stroke-width:1.5;" x="369.60768" xlink:href="#ma492994cae" y="146.220085"/>
    </g>
   </g>
   <g id="line2d_74">
    <path d="M 338.688 251.542253 
L 369.60768 109.382156 
" style="fill:none;stroke:#00bfbf;stroke-linecap:square;stroke-width:1.5;"/>
    <g>
     <use style="fill-opacity:0;stroke:#00bfbf;stroke-linejoin:miter;stroke-width:1.5;" x="338.688" xlink:href="#m5caf86ee83" y="251.542253"/>
     <use style="fill-opacity:0;stroke:#00bfbf;stroke-linejoin:miter;stroke-width:1.5;" x="369.60768" xlink:href="#m5caf86ee83" y="109.382156"/>
    </g>
   </g>
   <g id="line2d_75">
    <path d="M 338.688 235.74167 
L 369.60768 72.544226 
" style="fill:none;stroke:#000080;stroke-linecap:square;stroke-width:1.5;"/>
    <g>
     <use style="fill-opacity:0;stroke:#000080;stroke-width:1.5;" x="338.688" xlink:href="#m4155278e03" y="235.74167"/>
     <use style="fill-opacity:0;stroke:#000080;stroke-width:1.5;" x="369.60768" xlink:href="#m4155278e03" y="72.544226"/>
    </g>
   </g>
   <g id="line2d_76">
    <path d="M 338.688 298.944 
L 338.688 30.334099 
" style="fill:none;stroke:#000000;stroke-linecap:square;stroke-width:1.5;"/>
   </g>
   <g id="patch_3">
    <path d="M 57.6 298.944 
L 57.6 27.648 
" style="fill:none;stroke:#000000;stroke-linecap:square;stroke-linejoin:miter;stroke-width:0.8;"/>
   </g>
   <g id="patch_4">
    <path d="M 338.688 298.944 
L 338.688 27.648 
" style="fill:none;stroke:#000000;stroke-linecap:square;stroke-linejoin:miter;stroke-width:0.8;"/>
   </g>
   <g id="patch_5">
    <path d="M 57.6 298.944 
L 338.688 298.944 
" style="fill:none;stroke:#000000;stroke-linecap:square;stroke-linejoin:miter;stroke-width:0.8;"/>
   </g>
   <g id="patch_6">
    <path d="M 57.6 27.648 
L 338.688 27.648 
" style="fill:none;stroke:#000000;stroke-linecap:square;stroke-linejoin:miter;stroke-width:0.8;"/>
   </g>
   <g id="text_13">
    <!-- c1c2-2.98 -->
    <g transform="translate(375.22944 298.262739)scale(0.17 -0.17)">
     <defs>
      <path d="M 10.984375 1.515625 
L 10.984375 10.5 
Q 14.703125 8.734375 18.5 7.8125 
Q 22.3125 6.890625 25.984375 6.890625 
Q 35.75 6.890625 40.890625 13.453125 
Q 46.046875 20.015625 46.78125 33.40625 
Q 43.953125 29.203125 39.59375 26.953125 
Q 35.25 24.703125 29.984375 24.703125 
Q 19.046875 24.703125 12.671875 31.3125 
Q 6.296875 37.9375 6.296875 49.421875 
Q 6.296875 60.640625 12.9375 67.421875 
Q 19.578125 74.21875 30.609375 74.21875 
Q 43.265625 74.21875 49.921875 64.515625 
Q 56.59375 54.828125 56.59375 36.375 
Q 56.59375 19.140625 48.40625 8.859375 
Q 40.234375 -1.421875 26.421875 -1.421875 
Q 22.703125 -1.421875 18.890625 -0.6875 
Q 15.09375 0.046875 10.984375 1.515625 
z
M 30.609375 32.421875 
Q 37.25 32.421875 41.125 36.953125 
Q 45.015625 41.5 45.015625 49.421875 
Q 45.015625 57.28125 41.125 61.84375 
Q 37.25 66.40625 30.609375 66.40625 
Q 23.96875 66.40625 20.09375 61.84375 
Q 16.21875 57.28125 16.21875 49.421875 
Q 16.21875 41.5 20.09375 36.953125 
Q 23.96875 32.421875 30.609375 32.421875 
z
" id="DejaVuSans-57"/>
     </defs>
     <use xlink:href="#DejaVuSans-99"/>
     <use x="54.980469" xlink:href="#DejaVuSans-49"/>
     <use x="118.603516" xlink:href="#DejaVuSans-99"/>
     <use x="173.583984" xlink:href="#DejaVuSans-50"/>
     <use x="237.207031" xlink:href="#DejaVuSans-45"/>
     <use x="273.291016" xlink:href="#DejaVuSans-50"/>
     <use x="336.914062" xlink:href="#DejaVuSans-46"/>
     <use x="368.701172" xlink:href="#DejaVuSans-57"/>
     <use x="432.324219" xlink:href="#DejaVuSans-56"/>
    </g>
   </g>
   <g id="text_14">
    <!-- c1-2.9888 -->
    <g transform="translate(375.22944 261.42481)scale(0.17 -0.17)">
     <use xlink:href="#DejaVuSans-99"/>
     <use x="54.980469" xlink:href="#DejaVuSans-49"/>
     <use x="118.603516" xlink:href="#DejaVuSans-45"/>
     <use x="154.6875" xlink:href="#DejaVuSans-50"/>
     <use x="218.310547" xlink:href="#DejaVuSans-46"/>
     <use x="250.097656" xlink:href="#DejaVuSans-57"/>
     <use x="313.720703" xlink:href="#DejaVuSans-56"/>
     <use x="377.34375" xlink:href="#DejaVuSans-56"/>
     <use x="440.966797" xlink:href="#DejaVuSans-56"/>
    </g>
   </g>
   <g id="text_15">
    <!-- c2-2.9888 -->
    <g transform="translate(375.22944 224.586881)scale(0.17 -0.17)">
     <use xlink:href="#DejaVuSans-99"/>
     <use x="54.980469" xlink:href="#DejaVuSans-50"/>
     <use x="118.603516" xlink:href="#DejaVuSans-45"/>
     <use x="154.6875" xlink:href="#DejaVuSans-50"/>
     <use x="218.310547" xlink:href="#DejaVuSans-46"/>
     <use x="250.097656" xlink:href="#DejaVuSans-57"/>
     <use x="313.720703" xlink:href="#DejaVuSans-56"/>
     <use x="377.34375" xlink:href="#DejaVuSans-56"/>
     <use x="440.966797" xlink:href="#DejaVuSans-56"/>
    </g>
   </g>
   <g id="text_16">
    <!-- c1c2-0.74 -->
    <g transform="translate(375.22944 187.748952)scale(0.17 -0.17)">
     <defs>
      <path d="M 8.203125 72.90625 
L 55.078125 72.90625 
L 55.078125 68.703125 
L 28.609375 0 
L 18.3125 0 
L 43.21875 64.59375 
L 8.203125 64.59375 
z
" id="DejaVuSans-55"/>
     </defs>
     <use xlink:href="#DejaVuSans-99"/>
     <use x="54.980469" xlink:href="#DejaVuSans-49"/>
     <use x="118.603516" xlink:href="#DejaVuSans-99"/>
     <use x="173.583984" xlink:href="#DejaVuSans-50"/>
     <use x="237.207031" xlink:href="#DejaVuSans-45"/>
     <use x="273.291016" xlink:href="#DejaVuSans-48"/>
     <use x="336.914062" xlink:href="#DejaVuSans-46"/>
     <use x="368.701172" xlink:href="#DejaVuSans-55"/>
     <use x="432.324219" xlink:href="#DejaVuSans-52"/>
    </g>
   </g>
   <g id="text_17">
    <!-- c1-0.7472 -->
    <g transform="translate(375.22944 150.911022)scale(0.17 -0.17)">
     <use xlink:href="#DejaVuSans-99"/>
     <use x="54.980469" xlink:href="#DejaVuSans-49"/>
     <use x="118.603516" xlink:href="#DejaVuSans-45"/>
     <use x="154.6875" xlink:href="#DejaVuSans-48"/>
     <use x="218.310547" xlink:href="#DejaVuSans-46"/>
     <use x="250.097656" xlink:href="#DejaVuSans-55"/>
     <use x="313.720703" xlink:href="#DejaVuSans-52"/>
     <use x="377.34375" xlink:href="#DejaVuSans-55"/>
     <use x="440.966797" xlink:href="#DejaVuSans-50"/>
    </g>
   </g>
   <g id="text_18">
    <!-- c2-0.7472 -->
    <g transform="translate(375.22944 114.073093)scale(0.17 -0.17)">
     <use xlink:href="#DejaVuSans-99"/>
     <use x="54.980469" xlink:href="#DejaVuSans-50"/>
     <use x="118.603516" xlink:href="#DejaVuSans-45"/>
     <use x="154.6875" xlink:href="#DejaVuSans-48"/>
     <use x="218.310547" xlink:href="#DejaVuSans-46"/>
     <use x="250.097656" xlink:href="#DejaVuSans-55"/>
     <use x="313.720703" xlink:href="#DejaVuSans-52"/>
     <use x="377.34375" xlink:href="#DejaVuSans-55"/>
     <use x="440.966797" xlink:href="#DejaVuSans-50"/>
    </g>
   </g>
   <g id="text_19">
    <!-- c1c2-1.49 -->
    <g transform="translate(375.22944 77.235164)scale(0.17 -0.17)">
     <use xlink:href="#DejaVuSans-99"/>
     <use x="54.980469" xlink:href="#DejaVuSans-49"/>
     <use x="118.603516" xlink:href="#DejaVuSans-99"/>
     <use x="173.583984" xlink:href="#DejaVuSans-50"/>
     <use x="237.207031" xlink:href="#DejaVuSans-45"/>
     <use x="273.291016" xlink:href="#DejaVuSans-49"/>
     <use x="336.914062" xlink:href="#DejaVuSans-46"/>
     <use x="368.701172" xlink:href="#DejaVuSans-52"/>
     <use x="432.324219" xlink:href="#DejaVuSans-57"/>
    </g>
   </g>
   <g id="text_20">
    <!-- best 2009 -->
    <g transform="translate(375.22944 40.397235)scale(0.17 -0.17)">
     <defs>
      <path d="M 48.6875 27.296875 
Q 48.6875 37.203125 44.609375 42.84375 
Q 40.53125 48.484375 33.40625 48.484375 
Q 26.265625 48.484375 22.1875 42.84375 
Q 18.109375 37.203125 18.109375 27.296875 
Q 18.109375 17.390625 22.1875 11.75 
Q 26.265625 6.109375 33.40625 6.109375 
Q 40.53125 6.109375 44.609375 11.75 
Q 48.6875 17.390625 48.6875 27.296875 
z
M 18.109375 46.390625 
Q 20.953125 51.265625 25.265625 53.625 
Q 29.59375 56 35.59375 56 
Q 45.5625 56 51.78125 48.09375 
Q 58.015625 40.1875 58.015625 27.296875 
Q 58.015625 14.40625 51.78125 6.484375 
Q 45.5625 -1.421875 35.59375 -1.421875 
Q 29.59375 -1.421875 25.265625 0.953125 
Q 20.953125 3.328125 18.109375 8.203125 
L 18.109375 0 
L 9.078125 0 
L 9.078125 75.984375 
L 18.109375 75.984375 
z
" id="DejaVuSans-98"/>
     </defs>
     <use xlink:href="#DejaVuSans-98"/>
     <use x="63.476562" xlink:href="#DejaVuSans-101"/>
     <use x="125" xlink:href="#DejaVuSans-115"/>
     <use x="177.099609" xlink:href="#DejaVuSans-116"/>
     <use x="216.308594" xlink:href="#DejaVuSans-32"/>
     <use x="248.095703" xlink:href="#DejaVuSans-50"/>
     <use x="311.71875" xlink:href="#DejaVuSans-48"/>
     <use x="375.341797" xlink:href="#DejaVuSans-48"/>
     <use x="438.964844" xlink:href="#DejaVuSans-57"/>
    </g>
   </g>
   <g id="text_21">
    <!-- bbob f18, 20-D -->
    <g transform="translate(60.41088 38.111366)scale(0.102 -0.102)">
     <defs>
      <path d="M 19.671875 64.796875 
L 19.671875 8.109375 
L 31.59375 8.109375 
Q 46.6875 8.109375 53.6875 14.9375 
Q 60.6875 21.78125 60.6875 36.53125 
Q 60.6875 51.171875 53.6875 57.984375 
Q 46.6875 64.796875 31.59375 64.796875 
z
M 9.8125 72.90625 
L 30.078125 72.90625 
Q 51.265625 72.90625 61.171875 64.09375 
Q 71.09375 55.28125 71.09375 36.53125 
Q 71.09375 17.671875 61.125 8.828125 
Q 51.171875 0 30.078125 0 
L 9.8125 0 
z
" id="DejaVuSans-68"/>
     </defs>
     <use xlink:href="#DejaVuSans-98"/>
     <use x="63.476562" xlink:href="#DejaVuSans-98"/>
     <use x="126.953125" xlink:href="#DejaVuSans-111"/>
     <use x="188.134766" xlink:href="#DejaVuSans-98"/>
     <use x="251.611328" xlink:href="#DejaVuSans-32"/>
     <use x="283.398438" xlink:href="#DejaVuSans-102"/>
     <use x="318.603516" xlink:href="#DejaVuSans-49"/>
     <use x="382.226562" xlink:href="#DejaVuSans-56"/>
     <use x="445.849609" xlink:href="#DejaVuSans-44"/>
     <use x="477.636719" xlink:href="#DejaVuSans-32"/>
     <use x="509.423828" xlink:href="#DejaVuSans-50"/>
     <use x="573.046875" xlink:href="#DejaVuSans-48"/>
     <use x="636.669922" xlink:href="#DejaVuSans-45"/>
     <use x="672.753906" xlink:href="#DejaVuSans-68"/>
    </g>
    <!-- 51 targets: 100..1e-08 -->
    <g transform="translate(60.41088 49.533135)scale(0.102 -0.102)">
     <defs>
      <path d="M 10.796875 72.90625 
L 49.515625 72.90625 
L 49.515625 64.59375 
L 19.828125 64.59375 
L 19.828125 46.734375 
Q 21.96875 47.46875 24.109375 47.828125 
Q 26.265625 48.1875 28.421875 48.1875 
Q 40.625 48.1875 47.75 41.5 
Q 54.890625 34.8125 54.890625 23.390625 
Q 54.890625 11.625 47.5625 5.09375 
Q 40.234375 -1.421875 26.90625 -1.421875 
Q 22.3125 -1.421875 17.546875 -0.640625 
Q 12.796875 0.140625 7.71875 1.703125 
L 7.71875 11.625 
Q 12.109375 9.234375 16.796875 8.0625 
Q 21.484375 6.890625 26.703125 6.890625 
Q 35.15625 6.890625 40.078125 11.328125 
Q 45.015625 15.765625 45.015625 23.390625 
Q 45.015625 31 40.078125 35.4375 
Q 35.15625 39.890625 26.703125 39.890625 
Q 22.75 39.890625 18.8125 39.015625 
Q 14.890625 38.140625 10.796875 36.28125 
z
" id="DejaVuSans-53"/>
      <path d="M 11.71875 12.40625 
L 22.015625 12.40625 
L 22.015625 0 
L 11.71875 0 
z
M 11.71875 51.703125 
L 22.015625 51.703125 
L 22.015625 39.3125 
L 11.71875 39.3125 
z
" id="DejaVuSans-58"/>
     </defs>
     <use xlink:href="#DejaVuSans-53"/>
     <use x="63.623047" xlink:href="#DejaVuSans-49"/>
     <use x="127.246094" xlink:href="#DejaVuSans-32"/>
     <use x="159.033203" xlink:href="#DejaVuSans-116"/>
     <use x="198.242188" xlink:href="#DejaVuSans-97"/>
     <use x="259.521484" xlink:href="#DejaVuSans-114"/>
     <use x="298.884766" xlink:href="#DejaVuSans-103"/>
     <use x="362.361328" xlink:href="#DejaVuSans-101"/>
     <use x="423.884766" xlink:href="#DejaVuSans-116"/>
     <use x="463.09375" xlink:href="#DejaVuSans-115"/>
     <use x="515.193359" xlink:href="#DejaVuSans-58"/>
     <use x="548.884766" xlink:href="#DejaVuSans-32"/>
     <use x="580.671875" xlink:href="#DejaVuSans-49"/>
     <use x="644.294922" xlink:href="#DejaVuSans-48"/>
     <use x="707.917969" xlink:href="#DejaVuSans-48"/>
     <use x="771.541016" xlink:href="#DejaVuSans-46"/>
     <use x="803.328125" xlink:href="#DejaVuSans-46"/>
     <use x="835.115234" xlink:href="#DejaVuSans-49"/>
     <use x="898.738281" xlink:href="#DejaVuSans-101"/>
     <use x="960.261719" xlink:href="#DejaVuSans-45"/>
     <use x="996.345703" xlink:href="#DejaVuSans-48"/>
     <use x="1059.96875" xlink:href="#DejaVuSans-56"/>
    </g>
    <!-- 15 instances -->
    <g transform="translate(60.41088 60.954904)scale(0.102 -0.102)">
     <use xlink:href="#DejaVuSans-49"/>
     <use x="63.623047" xlink:href="#DejaVuSans-53"/>
     <use x="127.246094" xlink:href="#DejaVuSans-32"/>
     <use x="159.033203" xlink:href="#DejaVuSans-105"/>
     <use x="186.816406" xlink:href="#DejaVuSans-110"/>
     <use x="250.195312" xlink:href="#DejaVuSans-115"/>
     <use x="302.294922" xlink:href="#DejaVuSans-116"/>
     <use x="341.503906" xlink:href="#DejaVuSans-97"/>
     <use x="402.783203" xlink:href="#DejaVuSans-110"/>
     <use x="466.162109" xlink:href="#DejaVuSans-99"/>
     <use x="521.142578" xlink:href="#DejaVuSans-101"/>
     <use x="582.666016" xlink:href="#DejaVuSans-115"/>
    </g>
   </g>
   <g id="text_22">
    <!-- v2.4 -->
    <g style="fill:#808080;" transform="translate(187.233062 294.151352)scale(0.1 -0.1)">
     <use xlink:href="#DejaVuSans-118"/>
     <use x="59.179688" xlink:href="#DejaVuSans-50"/>
     <use x="122.802734" xlink:href="#DejaVuSans-46"/>
     <use x="154.589844" xlink:href="#DejaVuSans-52"/>
    </g>
   </g>
   <g id="text_23">
    <!-- 18 Schaffer F7, condition 1000 -->
    <g transform="translate(44.111187 21.648)scale(0.2 -0.2)">
     <defs>
      <path d="M 53.515625 70.515625 
L 53.515625 60.890625 
Q 47.90625 63.578125 42.921875 64.890625 
Q 37.9375 66.21875 33.296875 66.21875 
Q 25.25 66.21875 20.875 63.09375 
Q 16.5 59.96875 16.5 54.203125 
Q 16.5 49.359375 19.40625 46.890625 
Q 22.3125 44.4375 30.421875 42.921875 
L 36.375 41.703125 
Q 47.40625 39.59375 52.65625 34.296875 
Q 57.90625 29 57.90625 20.125 
Q 57.90625 9.515625 50.796875 4.046875 
Q 43.703125 -1.421875 29.984375 -1.421875 
Q 24.8125 -1.421875 18.96875 -0.25 
Q 13.140625 0.921875 6.890625 3.21875 
L 6.890625 13.375 
Q 12.890625 10.015625 18.65625 8.296875 
Q 24.421875 6.59375 29.984375 6.59375 
Q 38.421875 6.59375 43.015625 9.90625 
Q 47.609375 13.234375 47.609375 19.390625 
Q 47.609375 24.75 44.3125 27.78125 
Q 41.015625 30.8125 33.5 32.328125 
L 27.484375 33.5 
Q 16.453125 35.6875 11.515625 40.375 
Q 6.59375 45.0625 6.59375 53.421875 
Q 6.59375 63.09375 13.40625 68.65625 
Q 20.21875 74.21875 32.171875 74.21875 
Q 37.3125 74.21875 42.625 73.28125 
Q 47.953125 72.359375 53.515625 70.515625 
z
" id="DejaVuSans-83"/>
      <path d="M 54.890625 33.015625 
L 54.890625 0 
L 45.90625 0 
L 45.90625 32.71875 
Q 45.90625 40.484375 42.875 44.328125 
Q 39.84375 48.1875 33.796875 48.1875 
Q 26.515625 48.1875 22.3125 43.546875 
Q 18.109375 38.921875 18.109375 30.90625 
L 18.109375 0 
L 9.078125 0 
L 9.078125 75.984375 
L 18.109375 75.984375 
L 18.109375 46.1875 
Q 21.34375 51.125 25.703125 53.5625 
Q 30.078125 56 35.796875 56 
Q 45.21875 56 50.046875 50.171875 
Q 54.890625 44.34375 54.890625 33.015625 
z
" id="DejaVuSans-104"/>
     </defs>
     <use xlink:href="#DejaVuSans-49"/>
     <use x="63.623047" xlink:href="#DejaVuSans-56"/>
     <use x="127.246094" xlink:href="#DejaVuSans-32"/>
     <use x="159.033203" xlink:href="#DejaVuSans-83"/>
     <use x="222.509766" xlink:href="#DejaVuSans-99"/>
     <use x="277.490234" xlink:href="#DejaVuSans-104"/>
     <use x="340.869141" xlink:href="#DejaVuSans-97"/>
     <use x="402.148438" xlink:href="#DejaVuSans-102"/>
     <use x="437.353516" xlink:href="#DejaVuSans-102"/>
     <use x="472.558594" xlink:href="#DejaVuSans-101"/>
     <use x="534.082031" xlink:href="#DejaVuSans-114"/>
     <use x="575.195312" xlink:href="#DejaVuSans-32"/>
     <use x="606.982422" xlink:href="#DejaVuSans-70"/>
     <use x="664.501953" xlink:href="#DejaVuSans-55"/>
     <use x="728.125" xlink:href="#DejaVuSans-44"/>
     <use x="759.912109" xlink:href="#DejaVuSans-32"/>
     <use x="791.699219" xlink:href="#DejaVuSans-99"/>
     <use x="846.679688" xlink:href="#DejaVuSans-111"/>
     <use x="907.861328" xlink:href="#DejaVuSans-110"/>
     <use x="971.240234" xlink:href="#DejaVuSans-100"/>
     <use x="1034.716797" xlink:href="#DejaVuSans-105"/>
     <use x="1062.5" xlink:href="#DejaVuSans-116"/>
     <use x="1101.708984" xlink:href="#DejaVuSans-105"/>
     <use x="1129.492188" xlink:href="#DejaVuSans-111"/>
     <use x="1190.673828" xlink:href="#DejaVuSans-110"/>
     <use x="1254.052734" xlink:href="#DejaVuSans-32"/>
     <use x="1285.839844" xlink:href="#DejaVuSans-49"/>
     <use x="1349.462891" xlink:href="#DejaVuSans-48"/>
     <use x="1413.085938" xlink:href="#DejaVuSans-48"/>
     <use x="1476.708984" xlink:href="#DejaVuSans-48"/>
    </g>
   </g>
  </g>
 </g>
 <defs>
  <clipPath id="p6c2e399839">
   <rect height="271.296" width="281.088" x="57.6" y="27.648"/>
  </clipPath>
 </defs>
</svg>
