<?xml version="1.0" encoding="utf-8" standalone="no"?>
<!DOCTYPE svg PUBLIC "-//W3C//DTD SVG 1.1//EN"
  "http://www.w3.org/Graphics/SVG/1.1/DTD/svg11.dtd">
<!-- Created with matplotlib (https://matplotlib.org/) -->
<svg height="345.6pt" version="1.1" viewBox="0 0 460.8 345.6" width="460.8pt" xmlns="http://www.w3.org/2000/svg" xmlns:xlink="http://www.w3.org/1999/xlink">
 <metadata>
  <rdf:RDF xmlns:cc="http://creativecommons.org/ns#" xmlns:dc="http://purl.org/dc/elements/1.1/" xmlns:rdf="http://www.w3.org/1999/02/22-rdf-syntax-ns#">
   <cc:Work>
    <dc:type rdf:resource="http://purl.org/dc/dcmitype/StillImage"/>
    <dc:date>2021-05-02T04:47:09.312755</dc:date>
    <dc:format>image/svg+xml</dc:format>
    <dc:creator>
     <cc:Agent>
      <dc:title>Matplotlib v3.3.2, https://matplotlib.org/</dc:title>
     </cc:Agent>
    </dc:creator>
   </cc:Work>
  </rdf:RDF>
 </metadata>
 <defs>
  <style type="text/css">*{stroke-linecap:butt;stroke-linejoin:round;}</style>
 </defs>
 <g id="figure_1">
  <g id="patch_1">
   <path d="M 0 345.6 
L 460.8 345.6 
L 460.8 0 
L 0 0 
z
" style="fill:#ffffff;"/>
  </g>
  <g id="axes_1">
   <g id="patch_2">
    <path d="M 57.6 298.944 
L 338.688 298.944 
L 338.688 27.648 
L 57.6 27.648 
z
" style="fill:#ffffff;"/>
   </g>
   <g id="line2d_1">
    <path d="M 29.53256 298.944 
L 29.53256 288.410278 
L 41.620548 288.410278 
L 41.620548 277.876557 
L 48.691568 277.876557 
L 48.691568 272.609696 
L 69.687988 272.609696 
L 69.687988 267.342835 
L 76.759008 267.342835 
L 76.759008 262.075974 
L 83.438118 262.075974 
L 83.438118 256.809114 
L 88.255778 256.809114 
L 88.255778 251.542253 
L 91.535274 251.542253 
L 91.535274 246.275392 
L 94.294587 246.275392 
L 94.294587 241.008531 
L 96.301313 241.008531 
L 96.301313 235.74167 
L 97.403108 235.74167 
L 97.403108 230.47481 
L 98.771596 230.47481 
L 98.771596 225.207949 
L 99.41757 225.207949 
L 99.41757 219.941088 
L 100.343767 219.941088 
L 100.343767 214.674227 
L 101.785851 214.674227 
L 101.785851 209.407366 
L 103.372333 209.407366 
L 103.372333 204.140506 
L 104.114542 204.140506 
L 104.114542 198.873645 
L 106.382575 198.873645 
L 106.382575 193.606784 
L 108.006005 193.606784 
L 108.006005 188.339923 
L 109.668146 188.339923 
L 109.668146 183.073062 
L 111.346294 183.073062 
L 111.346294 177.806202 
L 112.877038 177.806202 
L 112.877038 172.539341 
L 114.0117 172.539341 
L 114.0117 167.27248 
L 115.586238 167.27248 
L 115.586238 162.005619 
L 118.363901 162.005619 
L 118.363901 156.738758 
L 119.996839 156.738758 
L 119.996839 151.471897 
L 121.756135 151.471897 
L 121.756135 146.205037 
L 122.276749 146.205037 
L 122.276749 140.938176 
L 122.865118 140.938176 
L 122.865118 135.671315 
L 123.514096 135.671315 
L 123.514096 130.404454 
L 124.139788 130.404454 
L 124.139788 125.137593 
L 125.038147 125.137593 
L 125.038147 119.870733 
L 125.399222 119.870733 
L 125.399222 114.603872 
L 125.892487 114.603872 
L 125.892487 109.337011 
L 126.50685 109.337011 
L 126.50685 104.07015 
L 132.470242 104.07015 
L 132.470242 98.803289 
L 132.940331 98.803289 
L 132.940331 93.536429 
L 133.533096 93.536429 
L 133.533096 88.269568 
L 134.106373 88.269568 
L 134.106373 83.002707 
L 134.61933 83.002707 
L 134.61933 77.735846 
L 135.117629 77.735846 
L 135.117629 72.468985 
L 135.956794 72.468985 
L 135.956794 67.202125 
L 136.607732 67.202125 
L 136.607732 61.935264 
L 137.053015 61.935264 
L 137.053015 56.668403 
L 137.558536 56.668403 
L 137.558536 51.401542 
L 138.187677 51.401542 
L 138.187677 46.134681 
L 138.594838 46.134681 
L 138.594838 40.867821 
L 139.123342 40.867821 
L 139.123342 35.60096 
L 139.413734 35.60096 
L 139.413734 30.334099 
L 338.688 30.334099 
" style="fill:none;stroke:#f5deb3;stroke-linecap:square;stroke-width:4;"/>
   </g>
   <g id="line2d_2">
    <defs>
     <path d="M -0 7.778175 
L 7.778175 0 
L 0 -7.778175 
L -7.778175 -0 
z
" id="m254c84e861" style="stroke:#f5deb3;stroke-linejoin:miter;stroke-width:1.5;"/>
    </defs>
    <g>
     <use style="fill:#f5deb3;stroke:#f5deb3;stroke-linejoin:miter;stroke-width:1.5;" x="83.438118" xlink:href="#m254c84e861" y="262.075974"/>
     <use style="fill:#f5deb3;stroke:#f5deb3;stroke-linejoin:miter;stroke-width:1.5;" x="111.346294" xlink:href="#m254c84e861" y="183.073062"/>
     <use style="fill:#f5deb3;stroke:#f5deb3;stroke-linejoin:miter;stroke-width:1.5;" x="138.594838" xlink:href="#m254c84e861" y="40.867821"/>
     <use style="fill:#f5deb3;stroke:#f5deb3;stroke-linejoin:miter;stroke-width:1.5;" x="139.413734" xlink:href="#m254c84e861" y="30.334099"/>
     <use style="fill:#f5deb3;stroke:#f5deb3;stroke-linejoin:miter;stroke-width:1.5;" x="139.413734" xlink:href="#m254c84e861" y="30.334099"/>
     <use style="fill:#f5deb3;stroke:#f5deb3;stroke-linejoin:miter;stroke-width:1.5;" x="338.688" xlink:href="#m254c84e861" y="30.334099"/>
    </g>
   </g>
   <g id="line2d_3">
    <path style="fill:none;stroke:#f5deb3;stroke-linecap:square;stroke-width:4;"/>
    <g/>
   </g>
   <g id="line2d_4">
    <path d="M 338.688 30.334099 
L 369.60768 35.706297 
" style="fill:none;stroke:#f5deb3;stroke-linecap:square;stroke-width:4;"/>
    <g>
     <use style="fill:#f5deb3;stroke:#f5deb3;stroke-linejoin:miter;stroke-width:1.5;" x="338.688" xlink:href="#m254c84e861" y="30.334099"/>
     <use style="fill:#f5deb3;stroke:#f5deb3;stroke-linejoin:miter;stroke-width:1.5;" x="369.60768" xlink:href="#m254c84e861" y="35.706297"/>
    </g>
   </g>
   <g id="matplotlib.axis_1">
    <g id="xtick_1">
     <g id="line2d_5">
      <path clip-path="url(#p7f0e36491d)" d="M 57.6 298.944 
L 57.6 27.648 
" style="fill:none;stroke:#b0b0b0;stroke-linecap:square;stroke-width:0.8;"/>
     </g>
     <g id="line2d_6">
      <defs>
       <path d="M 0 0 
L 0 3.5 
" id="mf48aec9360" style="stroke:#000000;stroke-width:0.8;"/>
      </defs>
      <g>
       <use style="stroke:#000000;stroke-width:0.8;" x="57.6" xlink:href="#mf48aec9360" y="298.944"/>
      </g>
     </g>
     <g id="text_1">
      <!-- 0 -->
      <g transform="translate(51.2375 321.140875)scale(0.2 -0.2)">
       <defs>
        <path d="M 31.78125 66.40625 
Q 24.171875 66.40625 20.328125 58.90625 
Q 16.5 51.421875 16.5 36.375 
Q 16.5 21.390625 20.328125 13.890625 
Q 24.171875 6.390625 31.78125 6.390625 
Q 39.453125 6.390625 43.28125 13.890625 
Q 47.125 21.390625 47.125 36.375 
Q 47.125 51.421875 43.28125 58.90625 
Q 39.453125 66.40625 31.78125 66.40625 
z
M 31.78125 74.21875 
Q 44.046875 74.21875 50.515625 64.515625 
Q 56.984375 54.828125 56.984375 36.375 
Q 56.984375 17.96875 50.515625 8.265625 
Q 44.046875 -1.421875 31.78125 -1.421875 
Q 19.53125 -1.421875 13.0625 8.265625 
Q 6.59375 17.96875 6.59375 36.375 
Q 6.59375 54.828125 13.0625 64.515625 
Q 19.53125 74.21875 31.78125 74.21875 
z
" id="DejaVuSans-48"/>
       </defs>
       <use xlink:href="#DejaVuSans-48"/>
      </g>
     </g>
    </g>
    <g id="xtick_2">
     <g id="line2d_7">
      <path clip-path="url(#p7f0e36491d)" d="M 137.910857 298.944 
L 137.910857 27.648 
" style="fill:none;stroke:#b0b0b0;stroke-linecap:square;stroke-width:0.8;"/>
     </g>
     <g id="line2d_8">
      <g>
       <use style="stroke:#000000;stroke-width:0.8;" x="137.910857" xlink:href="#mf48aec9360" y="298.944"/>
      </g>
     </g>
     <g id="text_2">
      <!-- 2 -->
      <g transform="translate(131.548357 321.140875)scale(0.2 -0.2)">
       <defs>
        <path d="M 19.1875 8.296875 
L 53.609375 8.296875 
L 53.609375 0 
L 7.328125 0 
L 7.328125 8.296875 
Q 12.9375 14.109375 22.625 23.890625 
Q 32.328125 33.6875 34.8125 36.53125 
Q 39.546875 41.84375 41.421875 45.53125 
Q 43.3125 49.21875 43.3125 52.78125 
Q 43.3125 58.59375 39.234375 62.25 
Q 35.15625 65.921875 28.609375 65.921875 
Q 23.96875 65.921875 18.8125 64.3125 
Q 13.671875 62.703125 7.8125 59.421875 
L 7.8125 69.390625 
Q 13.765625 71.78125 18.9375 73 
Q 24.125 74.21875 28.421875 74.21875 
Q 39.75 74.21875 46.484375 68.546875 
Q 53.21875 62.890625 53.21875 53.421875 
Q 53.21875 48.921875 51.53125 44.890625 
Q 49.859375 40.875 45.40625 35.40625 
Q 44.1875 33.984375 37.640625 27.21875 
Q 31.109375 20.453125 19.1875 8.296875 
z
" id="DejaVuSans-50"/>
       </defs>
       <use xlink:href="#DejaVuSans-50"/>
      </g>
     </g>
    </g>
    <g id="xtick_3">
     <g id="line2d_9">
      <path clip-path="url(#p7f0e36491d)" d="M 218.221714 298.944 
L 218.221714 27.648 
" style="fill:none;stroke:#b0b0b0;stroke-linecap:square;stroke-width:0.8;"/>
     </g>
     <g id="line2d_10">
      <g>
       <use style="stroke:#000000;stroke-width:0.8;" x="218.221714" xlink:href="#mf48aec9360" y="298.944"/>
      </g>
     </g>
     <g id="text_3">
      <!-- 4 -->
      <g transform="translate(211.859214 321.140875)scale(0.2 -0.2)">
       <defs>
        <path d="M 37.796875 64.3125 
L 12.890625 25.390625 
L 37.796875 25.390625 
z
M 35.203125 72.90625 
L 47.609375 72.90625 
L 47.609375 25.390625 
L 58.015625 25.390625 
L 58.015625 17.1875 
L 47.609375 17.1875 
L 47.609375 0 
L 37.796875 0 
L 37.796875 17.1875 
L 4.890625 17.1875 
L 4.890625 26.703125 
z
" id="DejaVuSans-52"/>
       </defs>
       <use xlink:href="#DejaVuSans-52"/>
      </g>
     </g>
    </g>
    <g id="xtick_4">
     <g id="line2d_11">
      <path clip-path="url(#p7f0e36491d)" d="M 298.532571 298.944 
L 298.532571 27.648 
" style="fill:none;stroke:#b0b0b0;stroke-linecap:square;stroke-width:0.8;"/>
     </g>
     <g id="line2d_12">
      <g>
       <use style="stroke:#000000;stroke-width:0.8;" x="298.532571" xlink:href="#mf48aec9360" y="298.944"/>
      </g>
     </g>
     <g id="text_4">
      <!-- 6 -->
      <g transform="translate(292.170071 321.140875)scale(0.2 -0.2)">
       <defs>
        <path d="M 33.015625 40.375 
Q 26.375 40.375 22.484375 35.828125 
Q 18.609375 31.296875 18.609375 23.390625 
Q 18.609375 15.53125 22.484375 10.953125 
Q 26.375 6.390625 33.015625 6.390625 
Q 39.65625 6.390625 43.53125 10.953125 
Q 47.40625 15.53125 47.40625 23.390625 
Q 47.40625 31.296875 43.53125 35.828125 
Q 39.65625 40.375 33.015625 40.375 
z
M 52.59375 71.296875 
L 52.59375 62.3125 
Q 48.875 64.0625 45.09375 64.984375 
Q 41.3125 65.921875 37.59375 65.921875 
Q 27.828125 65.921875 22.671875 59.328125 
Q 17.53125 52.734375 16.796875 39.40625 
Q 19.671875 43.65625 24.015625 45.921875 
Q 28.375 48.1875 33.59375 48.1875 
Q 44.578125 48.1875 50.953125 41.515625 
Q 57.328125 34.859375 57.328125 23.390625 
Q 57.328125 12.15625 50.6875 5.359375 
Q 44.046875 -1.421875 33.015625 -1.421875 
Q 20.359375 -1.421875 13.671875 8.265625 
Q 6.984375 17.96875 6.984375 36.375 
Q 6.984375 53.65625 15.1875 63.9375 
Q 23.390625 74.21875 37.203125 74.21875 
Q 40.921875 74.21875 44.703125 73.484375 
Q 48.484375 72.75 52.59375 71.296875 
z
" id="DejaVuSans-54"/>
       </defs>
       <use xlink:href="#DejaVuSans-54"/>
      </g>
     </g>
    </g>
    <g id="xtick_5">
     <g id="line2d_13">
      <path clip-path="url(#p7f0e36491d)" d="M 97.755429 298.944 
L 97.755429 27.648 
" style="fill:none;stroke:#b0b0b0;stroke-linecap:square;stroke-width:0.8;"/>
     </g>
     <g id="line2d_14">
      <defs>
       <path d="M 0 0 
L 0 2 
" id="m83ac6fc48b" style="stroke:#000000;stroke-width:0.6;"/>
      </defs>
      <g>
       <use style="stroke:#000000;stroke-width:0.6;" x="97.755429" xlink:href="#m83ac6fc48b" y="298.944"/>
      </g>
     </g>
    </g>
    <g id="xtick_6">
     <g id="line2d_15">
      <path clip-path="url(#p7f0e36491d)" d="M 178.066286 298.944 
L 178.066286 27.648 
" style="fill:none;stroke:#b0b0b0;stroke-linecap:square;stroke-width:0.8;"/>
     </g>
     <g id="line2d_16">
      <g>
       <use style="stroke:#000000;stroke-width:0.6;" x="178.066286" xlink:href="#m83ac6fc48b" y="298.944"/>
      </g>
     </g>
    </g>
    <g id="xtick_7">
     <g id="line2d_17">
      <path clip-path="url(#p7f0e36491d)" d="M 258.377143 298.944 
L 258.377143 27.648 
" style="fill:none;stroke:#b0b0b0;stroke-linecap:square;stroke-width:0.8;"/>
     </g>
     <g id="line2d_18">
      <g>
       <use style="stroke:#000000;stroke-width:0.6;" x="258.377143" xlink:href="#m83ac6fc48b" y="298.944"/>
      </g>
     </g>
    </g>
    <g id="xtick_8">
     <g id="line2d_19">
      <path clip-path="url(#p7f0e36491d)" d="M 338.688 298.944 
L 338.688 27.648 
" style="fill:none;stroke:#b0b0b0;stroke-linecap:square;stroke-width:0.8;"/>
     </g>
     <g id="line2d_20">
      <g>
       <use style="stroke:#000000;stroke-width:0.6;" x="338.688" xlink:href="#m83ac6fc48b" y="298.944"/>
      </g>
     </g>
    </g>
    <g id="text_5">
     <!-- log10(# f-evals / dimension) -->
     <g transform="translate(77.764078 342.217594)scale(0.17 -0.17)">
      <defs>
       <path d="M 9.421875 75.984375 
L 18.40625 75.984375 
L 18.40625 0 
L 9.421875 0 
z
" id="DejaVuSans-108"/>
       <path d="M 30.609375 48.390625 
Q 23.390625 48.390625 19.1875 42.75 
Q 14.984375 37.109375 14.984375 27.296875 
Q 14.984375 17.484375 19.15625 11.84375 
Q 23.34375 6.203125 30.609375 6.203125 
Q 37.796875 6.203125 41.984375 11.859375 
Q 46.1875 17.53125 46.1875 27.296875 
Q 46.1875 37.015625 41.984375 42.703125 
Q 37.796875 48.390625 30.609375 48.390625 
z
M 30.609375 56 
Q 42.328125 56 49.015625 48.375 
Q 55.71875 40.765625 55.71875 27.296875 
Q 55.71875 13.875 49.015625 6.21875 
Q 42.328125 -1.421875 30.609375 -1.421875 
Q 18.84375 -1.421875 12.171875 6.21875 
Q 5.515625 13.875 5.515625 27.296875 
Q 5.515625 40.765625 12.171875 48.375 
Q 18.84375 56 30.609375 56 
z
" id="DejaVuSans-111"/>
       <path d="M 45.40625 27.984375 
Q 45.40625 37.75 41.375 43.109375 
Q 37.359375 48.484375 30.078125 48.484375 
Q 22.859375 48.484375 18.828125 43.109375 
Q 14.796875 37.75 14.796875 27.984375 
Q 14.796875 18.265625 18.828125 12.890625 
Q 22.859375 7.515625 30.078125 7.515625 
Q 37.359375 7.515625 41.375 12.890625 
Q 45.40625 18.265625 45.40625 27.984375 
z
M 54.390625 6.78125 
Q 54.390625 -7.171875 48.1875 -13.984375 
Q 42 -20.796875 29.203125 -20.796875 
Q 24.46875 -20.796875 20.265625 -20.09375 
Q 16.0625 -19.390625 12.109375 -17.921875 
L 12.109375 -9.1875 
Q 16.0625 -11.328125 19.921875 -12.34375 
Q 23.78125 -13.375 27.78125 -13.375 
Q 36.625 -13.375 41.015625 -8.765625 
Q 45.40625 -4.15625 45.40625 5.171875 
L 45.40625 9.625 
Q 42.625 4.78125 38.28125 2.390625 
Q 33.9375 0 27.875 0 
Q 17.828125 0 11.671875 7.65625 
Q 5.515625 15.328125 5.515625 27.984375 
Q 5.515625 40.671875 11.671875 48.328125 
Q 17.828125 56 27.875 56 
Q 33.9375 56 38.28125 53.609375 
Q 42.625 51.21875 45.40625 46.390625 
L 45.40625 54.6875 
L 54.390625 54.6875 
z
" id="DejaVuSans-103"/>
       <path d="M 12.40625 8.296875 
L 28.515625 8.296875 
L 28.515625 63.921875 
L 10.984375 60.40625 
L 10.984375 69.390625 
L 28.421875 72.90625 
L 38.28125 72.90625 
L 38.28125 8.296875 
L 54.390625 8.296875 
L 54.390625 0 
L 12.40625 0 
z
" id="DejaVuSans-49"/>
       <path d="M 31 75.875 
Q 24.46875 64.65625 21.28125 53.65625 
Q 18.109375 42.671875 18.109375 31.390625 
Q 18.109375 20.125 21.3125 9.0625 
Q 24.515625 -2 31 -13.1875 
L 23.1875 -13.1875 
Q 15.875 -1.703125 12.234375 9.375 
Q 8.59375 20.453125 8.59375 31.390625 
Q 8.59375 42.28125 12.203125 53.3125 
Q 15.828125 64.359375 23.1875 75.875 
z
" id="DejaVuSans-40"/>
       <path d="M 51.125 44 
L 36.921875 44 
L 32.8125 27.6875 
L 47.125 27.6875 
z
M 43.796875 71.78125 
L 38.71875 51.515625 
L 52.984375 51.515625 
L 58.109375 71.78125 
L 65.921875 71.78125 
L 60.890625 51.515625 
L 76.125 51.515625 
L 76.125 44 
L 58.984375 44 
L 54.984375 27.6875 
L 70.515625 27.6875 
L 70.515625 20.21875 
L 53.078125 20.21875 
L 48 0 
L 40.1875 0 
L 45.21875 20.21875 
L 30.90625 20.21875 
L 25.875 0 
L 18.015625 0 
L 23.09375 20.21875 
L 7.71875 20.21875 
L 7.71875 27.6875 
L 24.90625 27.6875 
L 29 44 
L 13.28125 44 
L 13.28125 51.515625 
L 30.90625 51.515625 
L 35.890625 71.78125 
z
" id="DejaVuSans-35"/>
       <path id="DejaVuSans-32"/>
       <path d="M 37.109375 75.984375 
L 37.109375 68.5 
L 28.515625 68.5 
Q 23.6875 68.5 21.796875 66.546875 
Q 19.921875 64.59375 19.921875 59.515625 
L 19.921875 54.6875 
L 34.71875 54.6875 
L 34.71875 47.703125 
L 19.921875 47.703125 
L 19.921875 0 
L 10.890625 0 
L 10.890625 47.703125 
L 2.296875 47.703125 
L 2.296875 54.6875 
L 10.890625 54.6875 
L 10.890625 58.5 
Q 10.890625 67.625 15.140625 71.796875 
Q 19.390625 75.984375 28.609375 75.984375 
z
" id="DejaVuSans-102"/>
       <path d="M 4.890625 31.390625 
L 31.203125 31.390625 
L 31.203125 23.390625 
L 4.890625 23.390625 
z
" id="DejaVuSans-45"/>
       <path d="M 56.203125 29.59375 
L 56.203125 25.203125 
L 14.890625 25.203125 
Q 15.484375 15.921875 20.484375 11.0625 
Q 25.484375 6.203125 34.421875 6.203125 
Q 39.59375 6.203125 44.453125 7.46875 
Q 49.3125 8.734375 54.109375 11.28125 
L 54.109375 2.78125 
Q 49.265625 0.734375 44.1875 -0.34375 
Q 39.109375 -1.421875 33.890625 -1.421875 
Q 20.796875 -1.421875 13.15625 6.1875 
Q 5.515625 13.8125 5.515625 26.8125 
Q 5.515625 40.234375 12.765625 48.109375 
Q 20.015625 56 32.328125 56 
Q 43.359375 56 49.78125 48.890625 
Q 56.203125 41.796875 56.203125 29.59375 
z
M 47.21875 32.234375 
Q 47.125 39.59375 43.09375 43.984375 
Q 39.0625 48.390625 32.421875 48.390625 
Q 24.90625 48.390625 20.390625 44.140625 
Q 15.875 39.890625 15.1875 32.171875 
z
" id="DejaVuSans-101"/>
       <path d="M 2.984375 54.6875 
L 12.5 54.6875 
L 29.59375 8.796875 
L 46.6875 54.6875 
L 56.203125 54.6875 
L 35.6875 0 
L 23.484375 0 
z
" id="DejaVuSans-118"/>
       <path d="M 34.28125 27.484375 
Q 23.390625 27.484375 19.1875 25 
Q 14.984375 22.515625 14.984375 16.5 
Q 14.984375 11.71875 18.140625 8.90625 
Q 21.296875 6.109375 26.703125 6.109375 
Q 34.1875 6.109375 38.703125 11.40625 
Q 43.21875 16.703125 43.21875 25.484375 
L 43.21875 27.484375 
z
M 52.203125 31.203125 
L 52.203125 0 
L 43.21875 0 
L 43.21875 8.296875 
Q 40.140625 3.328125 35.546875 0.953125 
Q 30.953125 -1.421875 24.3125 -1.421875 
Q 15.921875 -1.421875 10.953125 3.296875 
Q 6 8.015625 6 15.921875 
Q 6 25.140625 12.171875 29.828125 
Q 18.359375 34.515625 30.609375 34.515625 
L 43.21875 34.515625 
L 43.21875 35.40625 
Q 43.21875 41.609375 39.140625 45 
Q 35.0625 48.390625 27.6875 48.390625 
Q 23 48.390625 18.546875 47.265625 
Q 14.109375 46.140625 10.015625 43.890625 
L 10.015625 52.203125 
Q 14.9375 54.109375 19.578125 55.046875 
Q 24.21875 56 28.609375 56 
Q 40.484375 56 46.34375 49.84375 
Q 52.203125 43.703125 52.203125 31.203125 
z
" id="DejaVuSans-97"/>
       <path d="M 44.28125 53.078125 
L 44.28125 44.578125 
Q 40.484375 46.53125 36.375 47.5 
Q 32.28125 48.484375 27.875 48.484375 
Q 21.1875 48.484375 17.84375 46.4375 
Q 14.5 44.390625 14.5 40.28125 
Q 14.5 37.15625 16.890625 35.375 
Q 19.28125 33.59375 26.515625 31.984375 
L 29.59375 31.296875 
Q 39.15625 29.25 43.1875 25.515625 
Q 47.21875 21.78125 47.21875 15.09375 
Q 47.21875 7.46875 41.1875 3.015625 
Q 35.15625 -1.421875 24.609375 -1.421875 
Q 20.21875 -1.421875 15.453125 -0.5625 
Q 10.6875 0.296875 5.421875 2 
L 5.421875 11.28125 
Q 10.40625 8.6875 15.234375 7.390625 
Q 20.0625 6.109375 24.8125 6.109375 
Q 31.15625 6.109375 34.5625 8.28125 
Q 37.984375 10.453125 37.984375 14.40625 
Q 37.984375 18.0625 35.515625 20.015625 
Q 33.0625 21.96875 24.703125 23.78125 
L 21.578125 24.515625 
Q 13.234375 26.265625 9.515625 29.90625 
Q 5.8125 33.546875 5.8125 39.890625 
Q 5.8125 47.609375 11.28125 51.796875 
Q 16.75 56 26.8125 56 
Q 31.78125 56 36.171875 55.265625 
Q 40.578125 54.546875 44.28125 53.078125 
z
" id="DejaVuSans-115"/>
       <path d="M 25.390625 72.90625 
L 33.6875 72.90625 
L 8.296875 -9.28125 
L 0 -9.28125 
z
" id="DejaVuSans-47"/>
       <path d="M 45.40625 46.390625 
L 45.40625 75.984375 
L 54.390625 75.984375 
L 54.390625 0 
L 45.40625 0 
L 45.40625 8.203125 
Q 42.578125 3.328125 38.25 0.953125 
Q 33.9375 -1.421875 27.875 -1.421875 
Q 17.96875 -1.421875 11.734375 6.484375 
Q 5.515625 14.40625 5.515625 27.296875 
Q 5.515625 40.1875 11.734375 48.09375 
Q 17.96875 56 27.875 56 
Q 33.9375 56 38.25 53.625 
Q 42.578125 51.265625 45.40625 46.390625 
z
M 14.796875 27.296875 
Q 14.796875 17.390625 18.875 11.75 
Q 22.953125 6.109375 30.078125 6.109375 
Q 37.203125 6.109375 41.296875 11.75 
Q 45.40625 17.390625 45.40625 27.296875 
Q 45.40625 37.203125 41.296875 42.84375 
Q 37.203125 48.484375 30.078125 48.484375 
Q 22.953125 48.484375 18.875 42.84375 
Q 14.796875 37.203125 14.796875 27.296875 
z
" id="DejaVuSans-100"/>
       <path d="M 9.421875 54.6875 
L 18.40625 54.6875 
L 18.40625 0 
L 9.421875 0 
z
M 9.421875 75.984375 
L 18.40625 75.984375 
L 18.40625 64.59375 
L 9.421875 64.59375 
z
" id="DejaVuSans-105"/>
       <path d="M 52 44.1875 
Q 55.375 50.25 60.0625 53.125 
Q 64.75 56 71.09375 56 
Q 79.640625 56 84.28125 50.015625 
Q 88.921875 44.046875 88.921875 33.015625 
L 88.921875 0 
L 79.890625 0 
L 79.890625 32.71875 
Q 79.890625 40.578125 77.09375 44.375 
Q 74.3125 48.1875 68.609375 48.1875 
Q 61.625 48.1875 57.5625 43.546875 
Q 53.515625 38.921875 53.515625 30.90625 
L 53.515625 0 
L 44.484375 0 
L 44.484375 32.71875 
Q 44.484375 40.625 41.703125 44.40625 
Q 38.921875 48.1875 33.109375 48.1875 
Q 26.21875 48.1875 22.15625 43.53125 
Q 18.109375 38.875 18.109375 30.90625 
L 18.109375 0 
L 9.078125 0 
L 9.078125 54.6875 
L 18.109375 54.6875 
L 18.109375 46.1875 
Q 21.1875 51.21875 25.484375 53.609375 
Q 29.78125 56 35.6875 56 
Q 41.65625 56 45.828125 52.96875 
Q 50 49.953125 52 44.1875 
z
" id="DejaVuSans-109"/>
       <path d="M 54.890625 33.015625 
L 54.890625 0 
L 45.90625 0 
L 45.90625 32.71875 
Q 45.90625 40.484375 42.875 44.328125 
Q 39.84375 48.1875 33.796875 48.1875 
Q 26.515625 48.1875 22.3125 43.546875 
Q 18.109375 38.921875 18.109375 30.90625 
L 18.109375 0 
L 9.078125 0 
L 9.078125 54.6875 
L 18.109375 54.6875 
L 18.109375 46.1875 
Q 21.34375 51.125 25.703125 53.5625 
Q 30.078125 56 35.796875 56 
Q 45.21875 56 50.046875 50.171875 
Q 54.890625 44.34375 54.890625 33.015625 
z
" id="DejaVuSans-110"/>
       <path d="M 8.015625 75.875 
L 15.828125 75.875 
Q 23.140625 64.359375 26.78125 53.3125 
Q 30.421875 42.28125 30.421875 31.390625 
Q 30.421875 20.453125 26.78125 9.375 
Q 23.140625 -1.703125 15.828125 -13.1875 
L 8.015625 -13.1875 
Q 14.5 -2 17.703125 9.0625 
Q 20.90625 20.125 20.90625 31.390625 
Q 20.90625 42.671875 17.703125 53.65625 
Q 14.5 64.65625 8.015625 75.875 
z
" id="DejaVuSans-41"/>
      </defs>
      <use xlink:href="#DejaVuSans-108"/>
      <use x="27.783203" xlink:href="#DejaVuSans-111"/>
      <use x="88.964844" xlink:href="#DejaVuSans-103"/>
      <use x="152.441406" xlink:href="#DejaVuSans-49"/>
      <use x="216.064453" xlink:href="#DejaVuSans-48"/>
      <use x="279.6875" xlink:href="#DejaVuSans-40"/>
      <use x="318.701172" xlink:href="#DejaVuSans-35"/>
      <use x="402.490234" xlink:href="#DejaVuSans-32"/>
      <use x="434.277344" xlink:href="#DejaVuSans-102"/>
      <use x="463.982422" xlink:href="#DejaVuSans-45"/>
      <use x="500.066406" xlink:href="#DejaVuSans-101"/>
      <use x="561.589844" xlink:href="#DejaVuSans-118"/>
      <use x="620.769531" xlink:href="#DejaVuSans-97"/>
      <use x="682.048828" xlink:href="#DejaVuSans-108"/>
      <use x="709.832031" xlink:href="#DejaVuSans-115"/>
      <use x="761.931641" xlink:href="#DejaVuSans-32"/>
      <use x="793.71875" xlink:href="#DejaVuSans-47"/>
      <use x="827.410156" xlink:href="#DejaVuSans-32"/>
      <use x="859.197266" xlink:href="#DejaVuSans-100"/>
      <use x="922.673828" xlink:href="#DejaVuSans-105"/>
      <use x="950.457031" xlink:href="#DejaVuSans-109"/>
      <use x="1047.869141" xlink:href="#DejaVuSans-101"/>
      <use x="1109.392578" xlink:href="#DejaVuSans-110"/>
      <use x="1172.771484" xlink:href="#DejaVuSans-115"/>
      <use x="1224.871094" xlink:href="#DejaVuSans-105"/>
      <use x="1252.654297" xlink:href="#DejaVuSans-111"/>
      <use x="1313.835938" xlink:href="#DejaVuSans-110"/>
      <use x="1377.214844" xlink:href="#DejaVuSans-41"/>
     </g>
    </g>
   </g>
   <g id="matplotlib.axis_2">
    <g id="ytick_1">
     <g id="line2d_21">
      <path clip-path="url(#p7f0e36491d)" d="M 57.6 298.944 
L 338.688 298.944 
" style="fill:none;stroke:#b0b0b0;stroke-linecap:square;stroke-width:0.8;"/>
     </g>
     <g id="line2d_22">
      <defs>
       <path d="M 0 0 
L -3.5 0 
" id="mcf2982b0d2" style="stroke:#000000;stroke-width:0.8;"/>
      </defs>
      <g>
       <use style="stroke:#000000;stroke-width:0.8;" x="57.6" xlink:href="#mcf2982b0d2" y="298.944"/>
      </g>
     </g>
     <g id="text_6">
      <!-- 0.0 -->
      <g transform="translate(25.155 305.02275)scale(0.16 -0.16)">
       <defs>
        <path d="M 10.6875 12.40625 
L 21 12.40625 
L 21 0 
L 10.6875 0 
z
" id="DejaVuSans-46"/>
       </defs>
       <use xlink:href="#DejaVuSans-48"/>
       <use x="63.623047" xlink:href="#DejaVuSans-46"/>
       <use x="95.410156" xlink:href="#DejaVuSans-48"/>
      </g>
     </g>
    </g>
    <g id="ytick_2">
     <g id="line2d_23">
      <path clip-path="url(#p7f0e36491d)" d="M 57.6 245.22202 
L 338.688 245.22202 
" style="fill:none;stroke:#b0b0b0;stroke-linecap:square;stroke-width:0.8;"/>
     </g>
     <g id="line2d_24">
      <g>
       <use style="stroke:#000000;stroke-width:0.8;" x="57.6" xlink:href="#mcf2982b0d2" y="245.22202"/>
      </g>
     </g>
     <g id="text_7">
      <!-- 0.2 -->
      <g transform="translate(25.155 251.30077)scale(0.16 -0.16)">
       <use xlink:href="#DejaVuSans-48"/>
       <use x="63.623047" xlink:href="#DejaVuSans-46"/>
       <use x="95.410156" xlink:href="#DejaVuSans-50"/>
      </g>
     </g>
    </g>
    <g id="ytick_3">
     <g id="line2d_25">
      <path clip-path="url(#p7f0e36491d)" d="M 57.6 191.50004 
L 338.688 191.50004 
" style="fill:none;stroke:#b0b0b0;stroke-linecap:square;stroke-width:0.8;"/>
     </g>
     <g id="line2d_26">
      <g>
       <use style="stroke:#000000;stroke-width:0.8;" x="57.6" xlink:href="#mcf2982b0d2" y="191.50004"/>
      </g>
     </g>
     <g id="text_8">
      <!-- 0.4 -->
      <g transform="translate(25.155 197.57879)scale(0.16 -0.16)">
       <use xlink:href="#DejaVuSans-48"/>
       <use x="63.623047" xlink:href="#DejaVuSans-46"/>
       <use x="95.410156" xlink:href="#DejaVuSans-52"/>
      </g>
     </g>
    </g>
    <g id="ytick_4">
     <g id="line2d_27">
      <path clip-path="url(#p7f0e36491d)" d="M 57.6 137.778059 
L 338.688 137.778059 
" style="fill:none;stroke:#b0b0b0;stroke-linecap:square;stroke-width:0.8;"/>
     </g>
     <g id="line2d_28">
      <g>
       <use style="stroke:#000000;stroke-width:0.8;" x="57.6" xlink:href="#mcf2982b0d2" y="137.778059"/>
      </g>
     </g>
     <g id="text_9">
      <!-- 0.6 -->
      <g transform="translate(25.155 143.856809)scale(0.16 -0.16)">
       <use xlink:href="#DejaVuSans-48"/>
       <use x="63.623047" xlink:href="#DejaVuSans-46"/>
       <use x="95.410156" xlink:href="#DejaVuSans-54"/>
      </g>
     </g>
    </g>
    <g id="ytick_5">
     <g id="line2d_29">
      <path clip-path="url(#p7f0e36491d)" d="M 57.6 84.056079 
L 338.688 84.056079 
" style="fill:none;stroke:#b0b0b0;stroke-linecap:square;stroke-width:0.8;"/>
     </g>
     <g id="line2d_30">
      <g>
       <use style="stroke:#000000;stroke-width:0.8;" x="57.6" xlink:href="#mcf2982b0d2" y="84.056079"/>
      </g>
     </g>
     <g id="text_10">
      <!-- 0.8 -->
      <g transform="translate(25.155 90.134829)scale(0.16 -0.16)">
       <defs>
        <path d="M 31.78125 34.625 
Q 24.75 34.625 20.71875 30.859375 
Q 16.703125 27.09375 16.703125 20.515625 
Q 16.703125 13.921875 20.71875 10.15625 
Q 24.75 6.390625 31.78125 6.390625 
Q 38.8125 6.390625 42.859375 10.171875 
Q 46.921875 13.96875 46.921875 20.515625 
Q 46.921875 27.09375 42.890625 30.859375 
Q 38.875 34.625 31.78125 34.625 
z
M 21.921875 38.8125 
Q 15.578125 40.375 12.03125 44.71875 
Q 8.5 49.078125 8.5 55.328125 
Q 8.5 64.0625 14.71875 69.140625 
Q 20.953125 74.21875 31.78125 74.21875 
Q 42.671875 74.21875 48.875 69.140625 
Q 55.078125 64.0625 55.078125 55.328125 
Q 55.078125 49.078125 51.53125 44.71875 
Q 48 40.375 41.703125 38.8125 
Q 48.828125 37.15625 52.796875 32.3125 
Q 56.78125 27.484375 56.78125 20.515625 
Q 56.78125 9.90625 50.3125 4.234375 
Q 43.84375 -1.421875 31.78125 -1.421875 
Q 19.734375 -1.421875 13.25 4.234375 
Q 6.78125 9.90625 6.78125 20.515625 
Q 6.78125 27.484375 10.78125 32.3125 
Q 14.796875 37.15625 21.921875 38.8125 
z
M 18.3125 54.390625 
Q 18.3125 48.734375 21.84375 45.5625 
Q 25.390625 42.390625 31.78125 42.390625 
Q 38.140625 42.390625 41.71875 45.5625 
Q 45.3125 48.734375 45.3125 54.390625 
Q 45.3125 60.0625 41.71875 63.234375 
Q 38.140625 66.40625 31.78125 66.40625 
Q 25.390625 66.40625 21.84375 63.234375 
Q 18.3125 60.0625 18.3125 54.390625 
z
" id="DejaVuSans-56"/>
       </defs>
       <use xlink:href="#DejaVuSans-48"/>
       <use x="63.623047" xlink:href="#DejaVuSans-46"/>
       <use x="95.410156" xlink:href="#DejaVuSans-56"/>
      </g>
     </g>
    </g>
    <g id="ytick_6">
     <g id="line2d_31">
      <path clip-path="url(#p7f0e36491d)" d="M 57.6 30.334099 
L 338.688 30.334099 
" style="fill:none;stroke:#b0b0b0;stroke-linecap:square;stroke-width:0.8;"/>
     </g>
     <g id="line2d_32">
      <g>
       <use style="stroke:#000000;stroke-width:0.8;" x="57.6" xlink:href="#mcf2982b0d2" y="30.334099"/>
      </g>
     </g>
     <g id="text_11">
      <!-- 1.0 -->
      <g transform="translate(25.155 36.412849)scale(0.16 -0.16)">
       <use xlink:href="#DejaVuSans-49"/>
       <use x="63.623047" xlink:href="#DejaVuSans-46"/>
       <use x="95.410156" xlink:href="#DejaVuSans-48"/>
      </g>
     </g>
    </g>
    <g id="text_12">
     <!-- Fraction of function,target pairs -->
     <g transform="translate(17.619531 297.681)rotate(-90)scale(0.17 -0.17)">
      <defs>
       <path d="M 9.8125 72.90625 
L 51.703125 72.90625 
L 51.703125 64.59375 
L 19.671875 64.59375 
L 19.671875 43.109375 
L 48.578125 43.109375 
L 48.578125 34.8125 
L 19.671875 34.8125 
L 19.671875 0 
L 9.8125 0 
z
" id="DejaVuSans-70"/>
       <path d="M 41.109375 46.296875 
Q 39.59375 47.171875 37.8125 47.578125 
Q 36.03125 48 33.890625 48 
Q 26.265625 48 22.1875 43.046875 
Q 18.109375 38.09375 18.109375 28.8125 
L 18.109375 0 
L 9.078125 0 
L 9.078125 54.6875 
L 18.109375 54.6875 
L 18.109375 46.1875 
Q 20.953125 51.171875 25.484375 53.578125 
Q 30.03125 56 36.53125 56 
Q 37.453125 56 38.578125 55.875 
Q 39.703125 55.765625 41.0625 55.515625 
z
" id="DejaVuSans-114"/>
       <path d="M 48.78125 52.59375 
L 48.78125 44.1875 
Q 44.96875 46.296875 41.140625 47.34375 
Q 37.3125 48.390625 33.40625 48.390625 
Q 24.65625 48.390625 19.8125 42.84375 
Q 14.984375 37.3125 14.984375 27.296875 
Q 14.984375 17.28125 19.8125 11.734375 
Q 24.65625 6.203125 33.40625 6.203125 
Q 37.3125 6.203125 41.140625 7.25 
Q 44.96875 8.296875 48.78125 10.40625 
L 48.78125 2.09375 
Q 45.015625 0.34375 40.984375 -0.53125 
Q 36.96875 -1.421875 32.421875 -1.421875 
Q 20.0625 -1.421875 12.78125 6.34375 
Q 5.515625 14.109375 5.515625 27.296875 
Q 5.515625 40.671875 12.859375 48.328125 
Q 20.21875 56 33.015625 56 
Q 37.15625 56 41.109375 55.140625 
Q 45.0625 54.296875 48.78125 52.59375 
z
" id="DejaVuSans-99"/>
       <path d="M 18.3125 70.21875 
L 18.3125 54.6875 
L 36.8125 54.6875 
L 36.8125 47.703125 
L 18.3125 47.703125 
L 18.3125 18.015625 
Q 18.3125 11.328125 20.140625 9.421875 
Q 21.96875 7.515625 27.59375 7.515625 
L 36.8125 7.515625 
L 36.8125 0 
L 27.59375 0 
Q 17.1875 0 13.234375 3.875 
Q 9.28125 7.765625 9.28125 18.015625 
L 9.28125 47.703125 
L 2.6875 47.703125 
L 2.6875 54.6875 
L 9.28125 54.6875 
L 9.28125 70.21875 
z
" id="DejaVuSans-116"/>
       <path d="M 8.5 21.578125 
L 8.5 54.6875 
L 17.484375 54.6875 
L 17.484375 21.921875 
Q 17.484375 14.15625 20.5 10.265625 
Q 23.53125 6.390625 29.59375 6.390625 
Q 36.859375 6.390625 41.078125 11.03125 
Q 45.3125 15.671875 45.3125 23.6875 
L 45.3125 54.6875 
L 54.296875 54.6875 
L 54.296875 0 
L 45.3125 0 
L 45.3125 8.40625 
Q 42.046875 3.421875 37.71875 1 
Q 33.40625 -1.421875 27.6875 -1.421875 
Q 18.265625 -1.421875 13.375 4.4375 
Q 8.5 10.296875 8.5 21.578125 
z
M 31.109375 56 
z
" id="DejaVuSans-117"/>
       <path d="M 11.71875 12.40625 
L 22.015625 12.40625 
L 22.015625 4 
L 14.015625 -11.625 
L 7.71875 -11.625 
L 11.71875 4 
z
" id="DejaVuSans-44"/>
       <path d="M 18.109375 8.203125 
L 18.109375 -20.796875 
L 9.078125 -20.796875 
L 9.078125 54.6875 
L 18.109375 54.6875 
L 18.109375 46.390625 
Q 20.953125 51.265625 25.265625 53.625 
Q 29.59375 56 35.59375 56 
Q 45.5625 56 51.78125 48.09375 
Q 58.015625 40.1875 58.015625 27.296875 
Q 58.015625 14.40625 51.78125 6.484375 
Q 45.5625 -1.421875 35.59375 -1.421875 
Q 29.59375 -1.421875 25.265625 0.953125 
Q 20.953125 3.328125 18.109375 8.203125 
z
M 48.6875 27.296875 
Q 48.6875 37.203125 44.609375 42.84375 
Q 40.53125 48.484375 33.40625 48.484375 
Q 26.265625 48.484375 22.1875 42.84375 
Q 18.109375 37.203125 18.109375 27.296875 
Q 18.109375 17.390625 22.1875 11.75 
Q 26.265625 6.109375 33.40625 6.109375 
Q 40.53125 6.109375 44.609375 11.75 
Q 48.6875 17.390625 48.6875 27.296875 
z
" id="DejaVuSans-112"/>
      </defs>
      <use xlink:href="#DejaVuSans-70"/>
      <use x="50.269531" xlink:href="#DejaVuSans-114"/>
      <use x="91.382812" xlink:href="#DejaVuSans-97"/>
      <use x="152.662109" xlink:href="#DejaVuSans-99"/>
      <use x="207.642578" xlink:href="#DejaVuSans-116"/>
      <use x="246.851562" xlink:href="#DejaVuSans-105"/>
      <use x="274.634766" xlink:href="#DejaVuSans-111"/>
      <use x="335.816406" xlink:href="#DejaVuSans-110"/>
      <use x="399.195312" xlink:href="#DejaVuSans-32"/>
      <use x="430.982422" xlink:href="#DejaVuSans-111"/>
      <use x="492.164062" xlink:href="#DejaVuSans-102"/>
      <use x="527.369141" xlink:href="#DejaVuSans-32"/>
      <use x="559.15625" xlink:href="#DejaVuSans-102"/>
      <use x="594.361328" xlink:href="#DejaVuSans-117"/>
      <use x="657.740234" xlink:href="#DejaVuSans-110"/>
      <use x="721.119141" xlink:href="#DejaVuSans-99"/>
      <use x="776.099609" xlink:href="#DejaVuSans-116"/>
      <use x="815.308594" xlink:href="#DejaVuSans-105"/>
      <use x="843.091797" xlink:href="#DejaVuSans-111"/>
      <use x="904.273438" xlink:href="#DejaVuSans-110"/>
      <use x="967.652344" xlink:href="#DejaVuSans-44"/>
      <use x="999.439453" xlink:href="#DejaVuSans-116"/>
      <use x="1038.648438" xlink:href="#DejaVuSans-97"/>
      <use x="1099.927734" xlink:href="#DejaVuSans-114"/>
      <use x="1139.291016" xlink:href="#DejaVuSans-103"/>
      <use x="1202.767578" xlink:href="#DejaVuSans-101"/>
      <use x="1264.291016" xlink:href="#DejaVuSans-116"/>
      <use x="1303.5" xlink:href="#DejaVuSans-32"/>
      <use x="1335.287109" xlink:href="#DejaVuSans-112"/>
      <use x="1398.763672" xlink:href="#DejaVuSans-97"/>
      <use x="1460.042969" xlink:href="#DejaVuSans-105"/>
      <use x="1487.826172" xlink:href="#DejaVuSans-114"/>
      <use x="1528.939453" xlink:href="#DejaVuSans-115"/>
     </g>
    </g>
   </g>
   <g id="line2d_33">
    <defs>
     <path d="M 0 1.5 
C 0.397805 1.5 0.77937 1.341951 1.06066 1.06066 
C 1.341951 0.77937 1.5 0.397805 1.5 0 
C 1.5 -0.397805 1.341951 -0.77937 1.06066 -1.06066 
C 0.77937 -1.341951 0.397805 -1.5 0 -1.5 
C -0.397805 -1.5 -0.77937 -1.341951 -1.06066 -1.06066 
C -1.341951 -0.77937 -1.5 -0.397805 -1.5 0 
C -1.5 0.397805 -1.341951 0.77937 -1.06066 1.06066 
C -0.77937 1.341951 -0.397805 1.5 0 1.5 
z
" id="m6da231fdb3" style="stroke:#f5deb3;"/>
    </defs>
    <g>
     <use style="fill:#f5deb3;stroke:#f5deb3;" x="139.413734" xlink:href="#m6da231fdb3" y="30.334099"/>
     <use style="fill:#f5deb3;stroke:#f5deb3;" x="139.413734" xlink:href="#m6da231fdb3" y="30.334099"/>
    </g>
   </g>
   <g id="line2d_34">
    <defs>
     <path d="M 0 1.5 
C 0.397805 1.5 0.77937 1.341951 1.06066 1.06066 
C 1.341951 0.77937 1.5 0.397805 1.5 0 
C 1.5 -0.397805 1.341951 -0.77937 1.06066 -1.06066 
C 0.77937 -1.341951 0.397805 -1.5 0 -1.5 
C -0.397805 -1.5 -0.77937 -1.341951 -1.06066 -1.06066 
C -1.341951 -0.77937 -1.5 -0.397805 -1.5 0 
C -1.5 0.397805 -1.341951 0.77937 -1.06066 1.06066 
C -0.77937 1.341951 -0.397805 1.5 0 1.5 
z
" id="m62e77a1bd4" style="stroke:#000080;"/>
    </defs>
    <g>
     <use style="fill:#000080;stroke:#000080;" x="167.500363" xlink:href="#m62e77a1bd4" y="30.334099"/>
     <use style="fill:#000080;stroke:#000080;" x="167.500363" xlink:href="#m62e77a1bd4" y="30.334099"/>
    </g>
   </g>
   <g id="line2d_35">
    <path d="M 29.53256 298.944 
L 29.53256 284.723476 
L 41.620548 284.723476 
L 41.620548 281.036673 
L 48.691568 281.036673 
L 48.691568 277.876557 
L 53.708537 277.876557 
L 53.708537 277.349871 
L 57.6 277.349871 
L 57.6 276.296499 
L 60.779557 276.296499 
L 60.779557 275.769812 
L 65.796525 275.769812 
L 65.796525 274.189754 
L 69.687988 274.189754 
L 69.687988 273.663068 
L 71.35013 273.663068 
L 71.35013 272.609696 
L 72.867545 272.609696 
L 72.867545 271.556324 
L 74.263433 271.556324 
L 74.263433 271.029638 
L 75.555822 271.029638 
L 75.555822 269.976266 
L 76.759008 269.976266 
L 76.759008 268.922893 
L 80.881459 268.922893 
L 80.881459 267.869521 
L 81.775977 267.869521 
L 81.775977 266.816149 
L 82.626842 266.816149 
L 82.626842 266.289463 
L 83.438118 266.289463 
L 83.438118 265.762777 
L 86.351421 265.762777 
L 86.351421 265.236091 
L 87.009585 265.236091 
L 87.009585 264.182719 
L 88.255778 264.182719 
L 88.255778 263.656033 
L 91.029752 263.656033 
L 91.029752 262.60266 
L 96.676366 262.60266 
L 96.676366 261.549288 
L 98.43941 261.549288 
L 98.43941 261.022602 
L 98.771596 261.022602 
L 98.771596 260.495916 
L 99.731799 260.495916 
L 99.731799 259.96923 
L 100.343767 259.96923 
L 100.343767 258.389172 
L 100.641881 258.389172 
L 100.641881 257.862486 
L 101.223245 257.862486 
L 101.223245 257.3358 
L 101.785851 257.3358 
L 101.785851 256.282427 
L 102.597126 256.282427 
L 102.597126 254.702369 
L 104.826449 254.702369 
L 104.826449 253.122311 
L 105.285403 253.122311 
L 105.285403 252.068939 
L 105.51043 252.068939 
L 105.51043 251.015567 
L 105.732589 251.015567 
L 105.732589 250.488881 
L 107.811151 250.488881 
L 107.811151 249.962195 
L 108.006005 249.962195 
L 108.006005 249.435508 
L 108.389302 249.435508 
L 108.389302 248.908822 
L 108.577836 248.908822 
L 108.577836 248.382136 
L 108.764355 248.382136 
L 108.764355 247.85545 
L 109.668146 247.85545 
L 109.668146 247.328764 
L 110.358901 247.328764 
L 110.358901 245.748706 
L 110.694282 245.748706 
L 110.694282 245.22202 
L 111.023335 245.22202 
L 111.023335 242.061903 
L 111.346294 242.061903 
L 111.346294 241.535217 
L 112.431755 241.535217 
L 112.431755 240.481845 
L 112.72987 240.481845 
L 112.72987 239.955159 
L 113.73488 239.955159 
L 113.73488 239.428473 
L 114.0117 239.428473 
L 114.0117 238.901787 
L 114.418861 238.901787 
L 114.418861 237.848415 
L 114.685115 237.848415 
L 114.685115 237.321729 
L 115.835374 237.321729 
L 115.835374 236.795043 
L 116.202531 236.795043 
L 116.202531 236.268356 
L 116.323218 236.268356 
L 116.323218 235.74167 
L 116.443076 235.74167 
L 116.443076 234.688298 
L 116.562116 234.688298 
L 116.562116 234.161612 
L 116.914437 234.161612 
L 116.914437 233.10824 
L 118.039942 233.10824 
L 118.039942 232.054868 
L 118.681952 232.054868 
L 118.786692 231.001496 
L 119.40226 231.001496 
L 119.40226 230.47481 
L 119.602714 230.47481 
L 119.602714 229.948123 
L 120.093994 229.948123 
L 120.093994 228.894751 
L 120.759333 228.894751 
L 120.759333 227.841379 
L 120.944859 227.841379 
L 120.944859 224.154577 
L 121.128432 224.154577 
L 121.128432 222.574518 
L 121.667835 222.574518 
L 121.667835 222.047832 
L 122.865118 222.047832 
L 122.865118 221.521146 
L 123.273551 221.521146 
L 123.273551 220.99446 
L 123.672636 220.99446 
L 123.672636 217.834344 
L 123.907776 217.834344 
L 123.985457 216.254285 
L 124.292765 216.254285 
L 124.368753 214.147541 
L 124.594752 214.147541 
L 124.594752 213.620855 
L 124.817858 213.620855 
L 124.817858 207.827308 
L 125.822869 207.827308 
L 125.892487 206.24725 
L 126.372183 206.24725 
L 126.372183 203.087133 
L 126.50685 203.087133 
L 126.50685 202.560447 
L 127.357715 202.560447 
L 127.357715 200.980389 
L 128.046609 200.980389 
L 128.046609 200.453703 
L 128.290519 200.453703 
L 128.290519 199.927017 
L 128.531065 199.927017 
L 128.590686 198.873645 
L 128.768338 198.873645 
L 128.768338 198.346959 
L 129.630422 198.346959 
L 129.630422 197.820273 
L 130.018593 197.820273 
L 130.018593 196.7669 
L 130.664567 196.7669 
L 130.664567 196.240214 
L 130.822389 196.240214 
L 130.822389 195.186842 
L 131.133813 195.186842 
L 131.133813 194.660156 
L 131.439773 194.660156 
L 131.439773 194.13347 
L 131.640805 194.13347 
L 131.740458 192.553412 
L 131.938072 192.553412 
L 131.938072 192.026726 
L 132.084827 192.026726 
L 132.084827 191.50004 
L 132.565279 191.50004 
L 132.565279 190.973354 
L 132.70687 190.973354 
L 132.753813 189.919981 
L 132.847322 189.919981 
L 132.847322 189.393295 
L 132.986651 189.393295 
L 132.986651 188.866609 
L 133.443203 188.866609 
L 133.533096 187.813237 
L 133.622529 187.813237 
L 133.667073 186.759865 
L 134.192921 186.759865 
L 134.279041 185.706493 
L 134.364738 185.706493 
L 134.364738 185.179807 
L 134.534878 185.179807 
L 134.534878 184.653121 
L 134.911732 184.653121 
L 134.911732 183.599748 
L 135.076644 183.599748 
L 135.076644 183.073062 
L 135.401861 183.073062 
L 135.482227 181.493004 
L 135.562224 181.493004 
L 135.562224 180.966318 
L 136.112156 180.966318 
L 136.150782 179.912946 
L 136.380754 179.912946 
L 136.380754 179.38626 
L 136.831795 179.38626 
L 136.831795 178.859574 
L 137.089613 178.859574 
L 137.089613 178.332888 
L 137.451437 178.332888 
L 137.558536 177.279515 
L 137.664982 177.279515 
L 137.664982 176.752829 
L 138.256201 176.752829 
L 138.256201 176.226143 
L 138.426341 176.226143 
L 138.426341 175.699457 
L 139.477614 175.699457 
L 139.477614 175.172771 
L 139.69937 175.172771 
L 139.793552 173.066027 
L 139.9494 173.066027 
L 139.980403 170.432596 
L 140.103868 170.432596 
L 140.103868 169.379224 
L 140.678675 169.379224 
L 140.678675 168.852538 
L 141.090414 168.852538 
L 141.090414 167.27248 
L 141.321401 167.27248 
L 141.321401 166.745794 
L 141.605898 166.745794 
L 141.634094 165.692422 
L 141.71841 165.692422 
L 141.71841 164.63905 
L 142.593291 164.63905 
L 142.593291 164.112363 
L 142.726112 164.112363 
L 142.805321 163.058991 
L 143.144465 163.058991 
L 143.144465 162.532305 
L 143.553018 162.532305 
L 143.628567 161.478933 
L 143.728793 161.478933 
L 143.728793 160.952247 
L 143.87806 160.952247 
L 143.87806 159.372189 
L 144.582038 159.372189 
L 144.582038 158.845503 
L 144.794859 158.845503 
L 144.794859 158.318817 
L 145.143889 158.318817 
L 145.235796 156.738758 
L 145.508645 156.738758 
L 145.531191 155.1587 
L 145.643486 155.1587 
L 145.688202 153.051956 
L 145.843812 153.051956 
L 145.910079 151.471897 
L 146.194362 151.471897 
L 146.302479 150.418525 
L 146.474085 150.418525 
L 146.474085 149.365153 
L 146.875005 149.365153 
L 146.875005 148.838467 
L 147.02042 148.838467 
L 147.102973 147.785095 
L 147.205618 147.785095 
L 147.205618 147.258409 
L 147.368603 147.258409 
L 147.429332 145.678351 
L 147.946974 145.678351 
L 147.96658 144.624978 
L 148.083753 144.624978 
L 148.083753 144.098292 
L 148.392421 144.098292 
L 148.48777 143.04492 
L 149.012299 143.04492 
L 149.085961 140.938176 
L 149.159312 140.938176 
L 149.159312 140.41149 
L 149.286939 140.41149 
L 149.286939 139.884804 
L 149.682079 139.884804 
L 149.682079 139.358118 
L 149.928949 139.358118 
L 150.033689 138.304745 
L 150.103169 138.304745 
L 150.103169 137.778059 
L 150.241302 137.778059 
L 150.241302 137.251373 
L 150.412445 137.251373 
L 150.51433 135.144629 
L 150.699587 135.144629 
L 150.699587 134.617943 
L 150.816462 134.617943 
L 150.816462 133.037885 
L 151.0643 133.037885 
L 151.113448 131.984513 
L 151.21133 131.984513 
L 151.21133 131.457826 
L 151.373256 131.457826 
L 151.373256 130.93114 
L 152.09934 130.93114 
L 152.145659 128.824396 
L 152.329717 128.824396 
L 152.329717 128.29771 
L 152.511852 128.29771 
L 152.511852 127.771024 
L 152.662192 127.771024 
L 152.692105 126.717652 
L 152.840905 126.717652 
L 152.840905 126.190966 
L 153.120174 126.190966 
L 153.163864 124.610907 
L 153.537988 124.610907 
L 153.537988 124.084221 
L 153.665645 124.084221 
L 153.679772 123.030849 
L 153.778339 123.030849 
L 153.792374 121.977477 
L 154.249325 121.977477 
L 154.249325 120.924105 
L 154.371897 120.924105 
L 154.371897 119.344047 
L 154.57429 119.344047 
L 154.57429 118.817361 
L 154.761093 118.817361 
L 154.761093 118.290674 
L 154.906477 118.290674 
L 154.919633 116.710616 
L 155.296925 116.710616 
L 155.399584 114.603872 
L 155.514359 114.603872 
L 155.514359 114.077186 
L 155.653621 114.077186 
L 155.716556 113.023814 
L 156.003167 113.023814 
L 156.101764 111.443755 
L 156.187581 111.443755 
L 156.212023 110.390383 
L 156.370066 110.390383 
L 156.370066 109.337011 
L 156.753099 109.337011 
L 156.800392 106.176895 
L 156.894595 106.176895 
L 156.894595 105.650209 
L 157.011638 105.650209 
L 157.046598 104.596836 
L 157.15106 104.596836 
L 157.243392 103.543464 
L 157.61918 103.543464 
L 157.652944 101.963406 
L 157.831925 101.963406 
L 157.942862 99.856662 
L 157.953917 99.856662 
L 157.953917 99.329976 
L 158.184468 99.329976 
L 158.238915 97.749917 
L 158.336493 97.749917 
L 158.390468 96.169859 
L 158.508628 96.169859 
L 158.594062 93.536429 
L 158.647247 93.536429 
L 158.647247 93.009743 
L 158.774233 93.009743 
L 158.774233 92.483056 
L 158.921223 92.483056 
L 159.004665 90.902998 
L 159.098062 90.902998 
L 159.129083 89.849626 
L 159.211539 89.849626 
L 159.252621 88.269568 
L 159.334496 88.269568 
L 159.375289 87.216196 
L 159.476858 87.216196 
L 159.567767 85.109451 
L 159.658204 85.109451 
L 159.668223 83.002707 
L 159.778062 83.002707 
L 159.857512 80.895963 
L 159.936602 80.895963 
L 159.936602 80.369277 
L 160.054568 80.369277 
L 160.132771 77.735846 
L 160.210625 77.735846 
L 160.288133 76.682474 
L 160.326759 76.682474 
L 160.422949 75.629102 
L 160.518612 75.629102 
L 160.518612 74.049044 
L 160.670589 74.049044 
L 160.755498 72.468985 
L 161.06334 72.468985 
L 161.146363 69.835555 
L 161.21983 69.835555 
L 161.21983 68.782183 
L 161.338558 68.782183 
L 161.402155 67.202125 
L 161.53766 67.202125 
L 161.627414 66.148752 
L 161.743409 66.148752 
L 161.832113 65.09538 
L 161.955547 65.09538 
L 162.060656 63.515322 
L 162.078112 63.515322 
L 162.156452 62.46195 
L 162.29486 62.46195 
L 162.29486 61.408578 
L 162.432178 61.408578 
L 162.508946 59.82852 
L 162.576903 59.82852 
L 162.68677 58.248461 
L 162.90445 58.248461 
L 163.004009 56.141717 
L 163.17688 56.141717 
L 163.217788 55.088345 
L 163.348054 55.088345 
L 163.372371 53.508287 
L 163.485404 53.508287 
L 163.58171 50.874856 
L 163.725178 50.874856 
L 163.812276 48.768112 
L 163.985177 48.768112 
L 164.01643 47.71474 
L 164.171861 47.71474 
L 164.272154 46.134681 
L 164.318249 46.134681 
L 164.37952 42.447879 
L 164.448194 42.447879 
L 164.53934 41.394507 
L 164.592289 41.394507 
L 164.630012 40.341135 
L 164.832318 40.341135 
L 164.91407 39.287762 
L 164.98806 39.287762 
L 165.017568 37.707704 
L 165.135103 37.707704 
L 165.186277 35.60096 
L 165.375047 35.60096 
L 165.454301 33.494215 
L 165.490206 33.494215 
L 165.490206 32.967529 
L 165.725346 32.967529 
L 165.725346 32.440843 
L 165.901395 32.440843 
L 165.901395 31.914157 
L 166.296264 31.914157 
L 166.296264 31.387471 
L 167.333356 31.387471 
L 167.333356 30.860785 
L 167.500363 30.860785 
L 167.500363 30.334099 
L 338.688 30.334099 
L 338.688 30.334099 
" style="fill:none;stroke:#000080;stroke-linecap:square;stroke-width:1.5;"/>
   </g>
   <g id="line2d_36">
    <defs>
     <path d="M 0 6 
C 1.591219 6 3.117479 5.367802 4.242641 4.242641 
C 5.367802 3.117479 6 1.591219 6 0 
C 6 -1.591219 5.367802 -3.117479 4.242641 -4.242641 
C 3.117479 -5.367802 1.591219 -6 0 -6 
C -1.591219 -6 -3.117479 -5.367802 -4.242641 -4.242641 
C -5.367802 -3.117479 -6 -1.591219 -6 0 
C -6 1.591219 -5.367802 3.117479 -4.242641 4.242641 
C -3.117479 5.367802 -1.591219 6 0 6 
z
" id="m17243b2cd7" style="stroke:#000080;stroke-width:1.5;"/>
    </defs>
    <g>
     <use style="fill-opacity:0;stroke:#000080;stroke-width:1.5;" x="102.597126" xlink:href="#m17243b2cd7" y="254.702369"/>
     <use style="fill-opacity:0;stroke:#000080;stroke-width:1.5;" x="142.805321" xlink:href="#m17243b2cd7" y="163.058991"/>
     <use style="fill-opacity:0;stroke:#000080;stroke-width:1.5;" x="167.500363" xlink:href="#m17243b2cd7" y="30.860785"/>
     <use style="fill-opacity:0;stroke:#000080;stroke-width:1.5;" x="167.500363" xlink:href="#m17243b2cd7" y="30.334099"/>
     <use style="fill-opacity:0;stroke:#000080;stroke-width:1.5;" x="167.500363" xlink:href="#m17243b2cd7" y="30.334099"/>
     <use style="fill-opacity:0;stroke:#000080;stroke-width:1.5;" x="338.688" xlink:href="#m17243b2cd7" y="30.334099"/>
    </g>
   </g>
   <g id="line2d_37">
    <path style="fill:none;stroke:#000080;stroke-linecap:square;stroke-width:1.5;"/>
    <g/>
   </g>
   <g id="line2d_38">
    <defs>
     <path d="M 0 1.5 
C 0.397805 1.5 0.77937 1.341951 1.06066 1.06066 
C 1.341951 0.77937 1.5 0.397805 1.5 0 
C 1.5 -0.397805 1.341951 -0.77937 1.06066 -1.06066 
C 0.77937 -1.341951 0.397805 -1.5 0 -1.5 
C -0.397805 -1.5 -0.77937 -1.341951 -1.06066 -1.06066 
C -1.341951 -0.77937 -1.5 -0.397805 -1.5 0 
C -1.5 0.397805 -1.341951 0.77937 -1.06066 1.06066 
C -0.77937 1.341951 -0.397805 1.5 0 1.5 
z
" id="mb5ecd98420" style="stroke:#ff00ff;"/>
    </defs>
    <g>
     <use style="fill:#ff00ff;stroke:#ff00ff;" x="222.193631" xlink:href="#mb5ecd98420" y="30.334099"/>
     <use style="fill:#ff00ff;stroke:#ff00ff;" x="222.193631" xlink:href="#mb5ecd98420" y="30.334099"/>
    </g>
   </g>
   <g id="line2d_39">
    <path d="M 29.53256 298.944 
L 29.53256 281.563359 
L 41.620548 281.563359 
L 41.620548 277.349871 
L 53.708537 277.349871 
L 53.708537 276.823185 
L 57.6 276.823185 
L 57.6 274.71644 
L 60.779557 274.71644 
L 60.779557 272.609696 
L 63.467834 272.609696 
L 63.467834 271.029638 
L 72.867545 271.029638 
L 72.867545 270.502952 
L 75.555822 270.502952 
L 75.555822 269.976266 
L 76.759008 269.976266 
L 76.759008 269.449579 
L 78.941764 269.449579 
L 78.941764 268.922893 
L 79.938565 268.922893 
L 79.938565 268.396207 
L 83.438118 268.396207 
L 83.438118 267.869521 
L 85.66744 267.869521 
L 85.66744 267.342835 
L 89.418828 267.342835 
L 89.418828 266.289463 
L 92.969447 266.289463 
L 92.969447 265.762777 
L 93.422441 265.762777 
L 93.422441 265.236091 
L 96.301313 265.236091 
L 96.301313 264.709405 
L 98.100772 264.709405 
L 98.100772 262.60266 
L 98.771596 262.60266 
L 98.771596 262.075974 
L 99.097574 262.075974 
L 99.097574 261.549288 
L 103.117741 261.549288 
L 103.117741 261.022602 
L 103.870632 261.022602 
L 103.870632 259.442544 
L 105.732589 259.442544 
L 105.732589 258.915858 
L 106.593963 258.915858 
L 106.593963 258.389172 
L 107.213174 258.389172 
L 107.213174 257.862486 
L 110.016944 257.862486 
L 110.016944 257.3358 
L 110.188761 257.3358 
L 110.188761 255.755741 
L 113.873839 255.755741 
L 113.873839 254.175683 
L 117.145424 254.175683 
L 117.145424 253.648997 
L 117.259781 253.648997 
L 117.259781 251.542253 
L 118.681952 251.542253 
L 118.681952 249.962195 
L 119.702083 249.962195 
L 119.702083 249.435508 
L 119.89914 249.435508 
L 119.89914 248.382136 
L 121.036887 248.382136 
L 121.036887 247.85545 
L 123.273551 247.85545 
L 123.273551 247.328764 
L 124.062793 247.328764 
L 124.062793 246.802078 
L 124.216444 246.802078 
L 124.216444 246.275392 
L 124.743806 246.275392 
L 124.743806 245.748706 
L 125.255688 245.748706 
L 125.255688 244.695334 
L 125.470548 244.695334 
L 125.470548 243.641962 
L 126.236468 243.641962 
L 126.236468 243.115275 
L 127.54831 243.115275 
L 127.54831 242.588589 
L 127.923363 242.588589 
L 127.923363 241.008531 
L 128.411207 241.008531 
L 128.411207 240.481845 
L 128.590686 240.481845 
L 128.590686 239.955159 
L 128.768338 239.955159 
L 128.768338 239.428473 
L 129.175952 239.428473 
L 129.233413 238.375101 
L 131.839545 238.375101 
L 131.839545 237.848415 
L 133.307488 237.848415 
L 133.398082 236.268356 
L 135.117629 236.268356 
L 135.117629 235.74167 
L 135.995765 235.74167 
L 135.995765 235.214984 
L 136.227776 235.214984 
L 136.227776 234.688298 
L 136.380754 234.688298 
L 136.418789 233.634926 
L 137.053015 233.634926 
L 137.053015 232.054868 
L 137.198951 232.054868 
L 137.198951 231.528182 
L 137.343676 231.528182 
L 137.343676 231.001496 
L 137.52291 231.001496 
L 137.52291 230.47481 
L 137.945701 230.47481 
L 137.980475 228.894751 
L 138.187677 228.894751 
L 138.256201 227.841379 
L 138.828032 227.841379 
L 138.927025 225.734635 
L 138.959898 225.734635 
L 138.959898 225.207949 
L 139.123342 225.207949 
L 139.123342 224.681263 
L 139.413734 224.681263 
L 139.413734 224.154577 
L 139.69937 224.154577 
L 139.730821 220.99446 
L 139.824833 220.99446 
L 139.824833 220.467774 
L 140.408758 220.467774 
L 140.408758 219.414402 
L 140.915143 219.414402 
L 140.915143 218.887716 
L 141.119455 218.887716 
L 141.119455 218.36103 
L 142.324576 218.36103 
L 142.324576 217.307658 
L 142.51311 217.307658 
L 142.619936 215.200913 
L 142.646541 215.200913 
L 142.646541 214.674227 
L 143.170282 214.674227 
L 143.273169 213.620855 
L 143.87806 213.620855 
L 143.87806 212.567483 
L 144.91198 212.567483 
L 145.005114 211.514111 
L 145.576196 211.514111 
L 145.665858 209.407366 
L 145.710517 209.407366 
L 145.755062 207.827308 
L 146.150926 207.827308 
L 146.150926 207.300622 
L 146.280909 207.300622 
L 146.388493 205.720564 
L 147.226074 205.720564 
L 147.226074 205.193878 
L 147.78933 205.193878 
L 147.78933 204.667192 
L 148.161434 204.667192 
L 148.258051 201.507075 
L 148.296548 201.507075 
L 148.296548 200.980389 
L 148.54473 200.980389 
L 148.54473 200.453703 
L 148.826773 200.453703 
L 148.826773 199.927017 
L 149.122675 199.927017 
L 149.214124 198.346959 
L 149.431665 198.346959 
L 149.431665 197.820273 
L 149.610898 197.820273 
L 149.610898 196.7669 
L 149.805951 196.7669 
L 149.876341 194.660156 
L 149.981398 194.660156 
L 150.033689 191.50004 
L 150.241302 191.50004 
L 150.241302 190.973354 
L 150.598782 190.973354 
L 150.598782 190.446667 
L 151.097081 190.446667 
L 151.097081 189.919981 
L 151.787359 189.919981 
L 151.787359 189.393295 
L 151.912822 189.393295 
L 151.928441 187.813237 
L 152.360205 187.813237 
L 152.360205 186.759865 
L 152.840905 186.759865 
L 152.840905 186.233179 
L 152.959038 186.233179 
L 152.959038 185.706493 
L 153.207444 185.706493 
L 153.207444 185.179807 
L 153.552218 185.179807 
L 153.59484 184.126434 
L 153.904255 184.126434 
L 153.904255 182.01969 
L 154.480132 182.01969 
L 154.587699 179.38626 
L 154.800864 179.38626 
L 154.800864 178.859574 
L 155.167744 178.859574 
L 155.167744 178.332888 
L 155.476185 178.332888 
L 155.476185 177.806202 
L 155.603109 177.806202 
L 155.603109 177.279515 
L 156.248622 177.279515 
L 156.333721 176.226143 
L 156.788581 176.226143 
L 156.788581 175.699457 
L 156.906335 175.699457 
L 156.906335 175.172771 
L 157.116308 175.172771 
L 157.116308 174.646085 
L 157.437991 174.646085 
L 157.517493 173.066027 
L 158.625992 173.066027 
L 158.625992 172.012655 
L 158.742573 172.012655 
L 158.742573 171.485969 
L 159.847601 171.485969 
L 159.847601 170.959282 
L 160.181471 170.959282 
L 160.220333 169.379224 
L 160.877419 169.379224 
L 160.877419 168.852538 
L 160.989209 168.852538 
L 161.007772 167.799166 
L 162.034438 167.799166 
L 162.034438 167.27248 
L 162.320689 167.27248 
L 162.320689 166.745794 
L 162.559939 166.745794 
L 162.619242 165.692422 
L 162.745644 165.692422 
L 162.770815 164.63905 
L 163.209614 164.63905 
L 163.283043 163.585677 
L 163.828065 163.585677 
L 163.828065 163.058991 
L 164.455807 163.058991 
L 164.455807 162.532305 
L 165.09112 162.532305 
L 165.09112 162.005619 
L 166.24825 162.005619 
L 166.24825 161.478933 
L 166.425924 161.478933 
L 166.425924 160.952247 
L 166.729224 160.952247 
L 166.729224 160.425561 
L 166.928532 160.425561 
L 166.928532 159.898875 
L 167.190782 159.898875 
L 167.262214 158.318817 
L 167.672117 158.318817 
L 167.741609 157.265444 
L 168.091155 157.265444 
L 168.091155 156.738758 
L 168.763962 156.738758 
L 168.763962 156.212072 
L 168.900184 156.212072 
L 168.900184 155.685386 
L 169.45183 155.685386 
L 169.457545 154.105328 
L 169.662047 154.105328 
L 169.662047 152.52527 
L 170.294256 152.52527 
L 170.294256 151.998584 
L 170.435289 151.998584 
L 170.435289 151.471897 
L 171.139414 151.471897 
L 171.139414 150.418525 
L 171.994974 150.418525 
L 171.994974 149.891839 
L 172.186589 149.891839 
L 172.186589 149.365153 
L 172.582734 149.365153 
L 172.582734 148.311781 
L 172.829364 148.311781 
L 172.829364 147.785095 
L 172.965407 147.785095 
L 172.965407 147.258409 
L 173.09576 147.258409 
L 173.09576 146.731723 
L 173.955458 146.731723 
L 173.955458 146.205037 
L 174.395768 146.205037 
L 174.49022 144.624978 
L 174.686074 144.624978 
L 174.686074 144.098292 
L 174.833633 144.098292 
L 174.833633 143.04492 
L 175.050583 143.04492 
L 175.050583 142.518234 
L 176.69915 142.518234 
L 176.770676 141.464862 
L 177.068663 141.464862 
L 177.068663 140.41149 
L 177.452201 140.41149 
L 177.452201 139.884804 
L 177.721082 139.884804 
L 177.721082 139.358118 
L 178.094166 139.358118 
L 178.094166 138.831432 
L 178.21908 138.831432 
L 178.21908 138.304745 
L 178.68643 138.304745 
L 178.68643 137.778059 
L 179.069287 137.778059 
L 179.098898 135.671315 
L 179.262495 135.671315 
L 179.262495 135.144629 
L 179.376106 135.144629 
L 179.376106 134.617943 
L 179.543545 134.617943 
L 179.543545 134.091257 
L 180.095517 134.091257 
L 180.095517 133.564571 
L 180.308438 133.564571 
L 180.308438 133.037885 
L 180.48239 133.037885 
L 180.48239 132.511199 
L 180.747586 132.511199 
L 180.747586 131.457826 
L 181.312565 131.457826 
L 181.32125 129.877768 
L 182.870952 129.877768 
L 182.870952 129.351082 
L 183.029108 129.351082 
L 183.029108 128.824396 
L 183.325711 128.824396 
L 183.402933 126.717652 
L 183.811615 126.717652 
L 183.811615 126.190966 
L 183.946572 126.190966 
L 183.998774 125.137593 
L 184.139683 125.137593 
L 184.235443 123.557535 
L 184.359879 123.557535 
L 184.359879 123.030849 
L 184.893789 123.030849 
L 184.893789 122.504163 
L 185.065074 122.504163 
L 185.065074 120.924105 
L 185.216185 120.924105 
L 185.216185 120.397419 
L 185.448421 120.397419 
L 185.448421 119.870733 
L 185.612107 119.870733 
L 185.711387 118.817361 
L 186.58891 118.817361 
L 186.58891 118.290674 
L 187.082507 118.290674 
L 187.171711 116.710616 
L 187.254283 116.710616 
L 187.254283 115.657244 
L 187.371278 115.657244 
L 187.371278 114.603872 
L 187.55847 114.603872 
L 187.55847 114.077186 
L 187.765688 114.077186 
L 187.765688 112.497128 
L 188.582236 112.497128 
L 188.582236 111.970441 
L 188.702054 111.970441 
L 188.715317 110.917069 
L 188.884943 110.917069 
L 188.884943 110.390383 
L 189.110426 110.390383 
L 189.11783 108.283639 
L 189.31108 108.283639 
L 189.31108 107.756953 
L 189.632075 107.756953 
L 189.632075 107.230267 
L 189.807291 107.230267 
L 189.807291 106.703581 
L 189.97548 106.703581 
L 189.97548 106.176895 
L 190.143807 106.176895 
L 190.143807 105.650209 
L 190.437959 105.650209 
L 190.443105 104.596836 
L 191.944361 104.596836 
L 192.035404 103.016778 
L 192.212976 103.016778 
L 192.212976 102.490092 
L 192.941425 102.490092 
L 193.022983 100.910034 
L 193.21718 100.910034 
L 193.262475 99.856662 
L 193.492963 99.856662 
L 193.50448 98.803289 
L 194.525969 98.803289 
L 194.525969 97.749917 
L 194.73106 97.749917 
L 194.740447 96.696545 
L 195.17996 96.696545 
L 195.17996 96.169859 
L 195.556292 96.169859 
L 195.556292 95.643173 
L 196.284209 95.643173 
L 196.323432 94.589801 
L 196.400394 94.589801 
L 196.400394 94.063115 
L 196.531544 94.063115 
L 196.531544 93.536429 
L 196.79569 93.536429 
L 196.811174 91.95637 
L 197.156564 91.95637 
L 197.156564 91.429684 
L 197.300701 91.429684 
L 197.358485 90.376312 
L 197.457429 90.376312 
L 197.566078 88.796254 
L 197.642299 88.796254 
L 197.642299 88.269568 
L 197.847682 88.269568 
L 197.946127 86.68951 
L 198.058434 86.68951 
L 198.058434 86.162824 
L 198.193135 86.162824 
L 198.193135 85.636137 
L 198.685454 85.636137 
L 198.685454 85.109451 
L 198.844047 85.109451 
L 198.881092 83.529393 
L 199.488903 83.529393 
L 199.547009 81.949335 
L 199.813632 81.949335 
L 199.903603 80.369277 
L 200.144231 80.369277 
L 200.161924 79.315904 
L 200.365083 79.315904 
L 200.365083 78.789218 
L 200.587009 78.789218 
L 200.641574 77.20916 
L 200.925978 77.20916 
L 200.925978 76.682474 
L 201.118617 76.682474 
L 201.118617 76.155788 
L 201.321106 76.155788 
L 201.381672 74.049044 
L 201.459365 74.049044 
L 201.513999 72.468985 
L 201.652547 72.468985 
L 201.733535 71.415613 
L 201.776575 71.415613 
L 201.776575 70.888927 
L 202.160981 70.888927 
L 202.160981 70.362241 
L 202.454596 70.362241 
L 202.468373 67.728811 
L 202.566222 67.728811 
L 202.566222 67.202125 
L 202.804246 67.202125 
L 202.861565 65.622066 
L 203.09977 65.622066 
L 203.19002 64.042008 
L 203.264188 64.042008 
L 203.318378 62.988636 
L 203.388737 62.988636 
L 203.388737 62.46195 
L 203.510782 62.46195 
L 203.599741 60.881892 
L 203.645661 60.881892 
L 203.70269 59.82852 
L 204.026841 59.82852 
L 204.026841 59.301833 
L 204.159364 59.301833 
L 204.174981 58.248461 
L 204.442961 58.248461 
L 204.442961 57.721775 
L 204.567793 57.721775 
L 204.567793 57.195089 
L 204.696284 57.195089 
L 204.804272 55.615031 
L 204.876394 55.615031 
L 204.944486 53.508287 
L 205.076912 53.508287 
L 205.186995 52.454914 
L 205.335135 52.454914 
L 205.335135 51.928228 
L 205.505906 51.928228 
L 205.505906 51.401542 
L 205.680034 51.401542 
L 205.728652 50.34817 
L 206.047012 50.34817 
L 206.047012 49.821484 
L 206.411232 49.821484 
L 206.411232 49.294798 
L 206.642436 49.294798 
L 206.642436 48.768112 
L 206.782121 48.768112 
L 206.816365 47.71474 
L 207.033684 47.71474 
L 207.033684 46.661368 
L 207.182767 46.661368 
L 207.182767 46.134681 
L 207.303862 46.134681 
L 207.362471 44.554623 
L 207.571203 44.554623 
L 207.571203 44.027937 
L 207.78191 44.027937 
L 207.78191 43.501251 
L 208.012037 43.501251 
L 208.102621 42.447879 
L 208.179094 42.447879 
L 208.188397 41.394507 
L 208.368516 41.394507 
L 208.368516 40.867821 
L 208.506657 40.867821 
L 208.506657 39.814448 
L 208.723267 39.814448 
L 208.723267 39.287762 
L 209.016631 39.287762 
L 209.016631 38.761076 
L 209.326648 38.761076 
L 209.341744 37.181018 
L 209.873296 37.181018 
L 209.924448 36.127646 
L 210.015699 36.127646 
L 210.119246 34.547588 
L 210.498633 34.547588 
L 210.498633 34.020902 
L 210.759002 34.020902 
L 210.759002 33.494215 
L 210.903404 33.494215 
L 210.934684 32.440843 
L 211.191281 32.440843 
L 211.191281 31.914157 
L 211.421505 31.914157 
L 211.421505 31.387471 
L 219.74378 31.387471 
L 219.74378 30.860785 
L 222.193631 30.860785 
L 222.193631 30.334099 
L 338.688 30.334099 
L 338.688 30.334099 
" style="fill:none;stroke:#ff00ff;stroke-linecap:square;stroke-width:1.5;"/>
   </g>
   <g id="line2d_40">
    <defs>
     <path d="M -0 8.485281 
L 5.091169 0 
L 0 -8.485281 
L -5.091169 -0 
z
" id="mccbaddc276" style="stroke:#ff00ff;stroke-linejoin:miter;stroke-width:1.5;"/>
    </defs>
    <g>
     <use style="fill-opacity:0;stroke:#ff00ff;stroke-linejoin:miter;stroke-width:1.5;" x="138.959898" xlink:href="#mccbaddc276" y="225.207949"/>
     <use style="fill-opacity:0;stroke:#ff00ff;stroke-linejoin:miter;stroke-width:1.5;" x="192.212976" xlink:href="#mccbaddc276" y="103.016778"/>
     <use style="fill-opacity:0;stroke:#ff00ff;stroke-linejoin:miter;stroke-width:1.5;" x="222.193631" xlink:href="#mccbaddc276" y="30.860785"/>
     <use style="fill-opacity:0;stroke:#ff00ff;stroke-linejoin:miter;stroke-width:1.5;" x="222.193631" xlink:href="#mccbaddc276" y="30.334099"/>
     <use style="fill-opacity:0;stroke:#ff00ff;stroke-linejoin:miter;stroke-width:1.5;" x="222.193631" xlink:href="#mccbaddc276" y="30.334099"/>
     <use style="fill-opacity:0;stroke:#ff00ff;stroke-linejoin:miter;stroke-width:1.5;" x="338.688" xlink:href="#mccbaddc276" y="30.334099"/>
    </g>
   </g>
   <g id="line2d_41">
    <path style="fill:none;stroke:#ff00ff;stroke-linecap:square;stroke-width:1.5;"/>
    <g/>
   </g>
   <g id="line2d_42">
    <path d="M 338.688 30.334099 
L 369.60768 293.571802 
" style="fill:none;stroke:#ff00ff;stroke-linecap:square;stroke-width:1.5;"/>
    <g>
     <use style="fill-opacity:0;stroke:#ff00ff;stroke-linejoin:miter;stroke-width:1.5;" x="338.688" xlink:href="#mccbaddc276" y="30.334099"/>
     <use style="fill-opacity:0;stroke:#ff00ff;stroke-linejoin:miter;stroke-width:1.5;" x="369.60768" xlink:href="#mccbaddc276" y="293.571802"/>
    </g>
   </g>
   <g id="line2d_43">
    <path d="M 338.688 30.334099 
L 369.60768 164.63905 
" style="fill:none;stroke:#000080;stroke-linecap:square;stroke-width:1.5;"/>
    <g>
     <use style="fill-opacity:0;stroke:#000080;stroke-width:1.5;" x="338.688" xlink:href="#m17243b2cd7" y="30.334099"/>
     <use style="fill-opacity:0;stroke:#000080;stroke-width:1.5;" x="369.60768" xlink:href="#m17243b2cd7" y="164.63905"/>
    </g>
   </g>
   <g id="line2d_44">
    <path d="M 338.688 298.944 
L 338.688 30.334099 
" style="fill:none;stroke:#000000;stroke-linecap:square;stroke-width:1.5;"/>
   </g>
   <g id="patch_3">
    <path d="M 57.6 298.944 
L 57.6 27.648 
" style="fill:none;stroke:#000000;stroke-linecap:square;stroke-linejoin:miter;stroke-width:0.8;"/>
   </g>
   <g id="patch_4">
    <path d="M 338.688 298.944 
L 338.688 27.648 
" style="fill:none;stroke:#000000;stroke-linecap:square;stroke-linejoin:miter;stroke-width:0.8;"/>
   </g>
   <g id="patch_5">
    <path d="M 57.6 298.944 
L 338.688 298.944 
" style="fill:none;stroke:#000000;stroke-linecap:square;stroke-linejoin:miter;stroke-width:0.8;"/>
   </g>
   <g id="patch_6">
    <path d="M 57.6 27.648 
L 338.688 27.648 
" style="fill:none;stroke:#000000;stroke-linecap:square;stroke-linejoin:miter;stroke-width:0.8;"/>
   </g>
   <g id="text_13">
    <!-- DE -->
    <g transform="translate(375.22944 298.262739)scale(0.17 -0.17)">
     <defs>
      <path d="M 19.671875 64.796875 
L 19.671875 8.109375 
L 31.59375 8.109375 
Q 46.6875 8.109375 53.6875 14.9375 
Q 60.6875 21.78125 60.6875 36.53125 
Q 60.6875 51.171875 53.6875 57.984375 
Q 46.6875 64.796875 31.59375 64.796875 
z
M 9.8125 72.90625 
L 30.078125 72.90625 
Q 51.265625 72.90625 61.171875 64.09375 
Q 71.09375 55.28125 71.09375 36.53125 
Q 71.09375 17.671875 61.125 8.828125 
Q 51.171875 0 30.078125 0 
L 9.8125 0 
z
" id="DejaVuSans-68"/>
      <path d="M 9.8125 72.90625 
L 55.90625 72.90625 
L 55.90625 64.59375 
L 19.671875 64.59375 
L 19.671875 43.015625 
L 54.390625 43.015625 
L 54.390625 34.71875 
L 19.671875 34.71875 
L 19.671875 8.296875 
L 56.78125 8.296875 
L 56.78125 0 
L 9.8125 0 
z
" id="DejaVuSans-69"/>
     </defs>
     <use xlink:href="#DejaVuSans-68"/>
     <use x="77.001953" xlink:href="#DejaVuSans-69"/>
    </g>
   </g>
   <g id="text_14">
    <!-- BIPOP-CMA -->
    <g transform="translate(375.22944 169.329987)scale(0.17 -0.17)">
     <defs>
      <path d="M 19.671875 34.8125 
L 19.671875 8.109375 
L 35.5 8.109375 
Q 43.453125 8.109375 47.28125 11.40625 
Q 51.125 14.703125 51.125 21.484375 
Q 51.125 28.328125 47.28125 31.5625 
Q 43.453125 34.8125 35.5 34.8125 
z
M 19.671875 64.796875 
L 19.671875 42.828125 
L 34.28125 42.828125 
Q 41.5 42.828125 45.03125 45.53125 
Q 48.578125 48.25 48.578125 53.8125 
Q 48.578125 59.328125 45.03125 62.0625 
Q 41.5 64.796875 34.28125 64.796875 
z
M 9.8125 72.90625 
L 35.015625 72.90625 
Q 46.296875 72.90625 52.390625 68.21875 
Q 58.5 63.53125 58.5 54.890625 
Q 58.5 48.1875 55.375 44.234375 
Q 52.25 40.28125 46.1875 39.3125 
Q 53.46875 37.75 57.5 32.78125 
Q 61.53125 27.828125 61.53125 20.40625 
Q 61.53125 10.640625 54.890625 5.3125 
Q 48.25 0 35.984375 0 
L 9.8125 0 
z
" id="DejaVuSans-66"/>
      <path d="M 9.8125 72.90625 
L 19.671875 72.90625 
L 19.671875 0 
L 9.8125 0 
z
" id="DejaVuSans-73"/>
      <path d="M 19.671875 64.796875 
L 19.671875 37.40625 
L 32.078125 37.40625 
Q 38.96875 37.40625 42.71875 40.96875 
Q 46.484375 44.53125 46.484375 51.125 
Q 46.484375 57.671875 42.71875 61.234375 
Q 38.96875 64.796875 32.078125 64.796875 
z
M 9.8125 72.90625 
L 32.078125 72.90625 
Q 44.34375 72.90625 50.609375 67.359375 
Q 56.890625 61.8125 56.890625 51.125 
Q 56.890625 40.328125 50.609375 34.8125 
Q 44.34375 29.296875 32.078125 29.296875 
L 19.671875 29.296875 
L 19.671875 0 
L 9.8125 0 
z
" id="DejaVuSans-80"/>
      <path d="M 39.40625 66.21875 
Q 28.65625 66.21875 22.328125 58.203125 
Q 16.015625 50.203125 16.015625 36.375 
Q 16.015625 22.609375 22.328125 14.59375 
Q 28.65625 6.59375 39.40625 6.59375 
Q 50.140625 6.59375 56.421875 14.59375 
Q 62.703125 22.609375 62.703125 36.375 
Q 62.703125 50.203125 56.421875 58.203125 
Q 50.140625 66.21875 39.40625 66.21875 
z
M 39.40625 74.21875 
Q 54.734375 74.21875 63.90625 63.9375 
Q 73.09375 53.65625 73.09375 36.375 
Q 73.09375 19.140625 63.90625 8.859375 
Q 54.734375 -1.421875 39.40625 -1.421875 
Q 24.03125 -1.421875 14.8125 8.828125 
Q 5.609375 19.09375 5.609375 36.375 
Q 5.609375 53.65625 14.8125 63.9375 
Q 24.03125 74.21875 39.40625 74.21875 
z
" id="DejaVuSans-79"/>
      <path d="M 64.40625 67.28125 
L 64.40625 56.890625 
Q 59.421875 61.53125 53.78125 63.8125 
Q 48.140625 66.109375 41.796875 66.109375 
Q 29.296875 66.109375 22.65625 58.46875 
Q 16.015625 50.828125 16.015625 36.375 
Q 16.015625 21.96875 22.65625 14.328125 
Q 29.296875 6.6875 41.796875 6.6875 
Q 48.140625 6.6875 53.78125 8.984375 
Q 59.421875 11.28125 64.40625 15.921875 
L 64.40625 5.609375 
Q 59.234375 2.09375 53.4375 0.328125 
Q 47.65625 -1.421875 41.21875 -1.421875 
Q 24.65625 -1.421875 15.125 8.703125 
Q 5.609375 18.84375 5.609375 36.375 
Q 5.609375 53.953125 15.125 64.078125 
Q 24.65625 74.21875 41.21875 74.21875 
Q 47.75 74.21875 53.53125 72.484375 
Q 59.328125 70.75 64.40625 67.28125 
z
" id="DejaVuSans-67"/>
      <path d="M 9.8125 72.90625 
L 24.515625 72.90625 
L 43.109375 23.296875 
L 61.8125 72.90625 
L 76.515625 72.90625 
L 76.515625 0 
L 66.890625 0 
L 66.890625 64.015625 
L 48.09375 14.015625 
L 38.1875 14.015625 
L 19.390625 64.015625 
L 19.390625 0 
L 9.8125 0 
z
" id="DejaVuSans-77"/>
      <path d="M 34.1875 63.1875 
L 20.796875 26.90625 
L 47.609375 26.90625 
z
M 28.609375 72.90625 
L 39.796875 72.90625 
L 67.578125 0 
L 57.328125 0 
L 50.6875 18.703125 
L 17.828125 18.703125 
L 11.1875 0 
L 0.78125 0 
z
" id="DejaVuSans-65"/>
     </defs>
     <use xlink:href="#DejaVuSans-66"/>
     <use x="68.603516" xlink:href="#DejaVuSans-73"/>
     <use x="98.095703" xlink:href="#DejaVuSans-80"/>
     <use x="158.398438" xlink:href="#DejaVuSans-79"/>
     <use x="237.109375" xlink:href="#DejaVuSans-80"/>
     <use x="295.162109" xlink:href="#DejaVuSans-45"/>
     <use x="331.246094" xlink:href="#DejaVuSans-67"/>
     <use x="401.070312" xlink:href="#DejaVuSans-77"/>
     <use x="487.349609" xlink:href="#DejaVuSans-65"/>
    </g>
   </g>
   <g id="text_15">
    <!-- best 2009 -->
    <g transform="translate(375.22944 40.397235)scale(0.17 -0.17)">
     <defs>
      <path d="M 48.6875 27.296875 
Q 48.6875 37.203125 44.609375 42.84375 
Q 40.53125 48.484375 33.40625 48.484375 
Q 26.265625 48.484375 22.1875 42.84375 
Q 18.109375 37.203125 18.109375 27.296875 
Q 18.109375 17.390625 22.1875 11.75 
Q 26.265625 6.109375 33.40625 6.109375 
Q 40.53125 6.109375 44.609375 11.75 
Q 48.6875 17.390625 48.6875 27.296875 
z
M 18.109375 46.390625 
Q 20.953125 51.265625 25.265625 53.625 
Q 29.59375 56 35.59375 56 
Q 45.5625 56 51.78125 48.09375 
Q 58.015625 40.1875 58.015625 27.296875 
Q 58.015625 14.40625 51.78125 6.484375 
Q 45.5625 -1.421875 35.59375 -1.421875 
Q 29.59375 -1.421875 25.265625 0.953125 
Q 20.953125 3.328125 18.109375 8.203125 
L 18.109375 0 
L 9.078125 0 
L 9.078125 75.984375 
L 18.109375 75.984375 
z
" id="DejaVuSans-98"/>
      <path d="M 10.984375 1.515625 
L 10.984375 10.5 
Q 14.703125 8.734375 18.5 7.8125 
Q 22.3125 6.890625 25.984375 6.890625 
Q 35.75 6.890625 40.890625 13.453125 
Q 46.046875 20.015625 46.78125 33.40625 
Q 43.953125 29.203125 39.59375 26.953125 
Q 35.25 24.703125 29.984375 24.703125 
Q 19.046875 24.703125 12.671875 31.3125 
Q 6.296875 37.9375 6.296875 49.421875 
Q 6.296875 60.640625 12.9375 67.421875 
Q 19.578125 74.21875 30.609375 74.21875 
Q 43.265625 74.21875 49.921875 64.515625 
Q 56.59375 54.828125 56.59375 36.375 
Q 56.59375 19.140625 48.40625 8.859375 
Q 40.234375 -1.421875 26.421875 -1.421875 
Q 22.703125 -1.421875 18.890625 -0.6875 
Q 15.09375 0.046875 10.984375 1.515625 
z
M 30.609375 32.421875 
Q 37.25 32.421875 41.125 36.953125 
Q 45.015625 41.5 45.015625 49.421875 
Q 45.015625 57.28125 41.125 61.84375 
Q 37.25 66.40625 30.609375 66.40625 
Q 23.96875 66.40625 20.09375 61.84375 
Q 16.21875 57.28125 16.21875 49.421875 
Q 16.21875 41.5 20.09375 36.953125 
Q 23.96875 32.421875 30.609375 32.421875 
z
" id="DejaVuSans-57"/>
     </defs>
     <use xlink:href="#DejaVuSans-98"/>
     <use x="63.476562" xlink:href="#DejaVuSans-101"/>
     <use x="125" xlink:href="#DejaVuSans-115"/>
     <use x="177.099609" xlink:href="#DejaVuSans-116"/>
     <use x="216.308594" xlink:href="#DejaVuSans-32"/>
     <use x="248.095703" xlink:href="#DejaVuSans-50"/>
     <use x="311.71875" xlink:href="#DejaVuSans-48"/>
     <use x="375.341797" xlink:href="#DejaVuSans-48"/>
     <use x="438.964844" xlink:href="#DejaVuSans-57"/>
    </g>
   </g>
   <g id="text_16">
    <!-- bbob f14, 5-D -->
    <g transform="translate(60.41088 38.111366)scale(0.102 -0.102)">
     <defs>
      <path d="M 10.796875 72.90625 
L 49.515625 72.90625 
L 49.515625 64.59375 
L 19.828125 64.59375 
L 19.828125 46.734375 
Q 21.96875 47.46875 24.109375 47.828125 
Q 26.265625 48.1875 28.421875 48.1875 
Q 40.625 48.1875 47.75 41.5 
Q 54.890625 34.8125 54.890625 23.390625 
Q 54.890625 11.625 47.5625 5.09375 
Q 40.234375 -1.421875 26.90625 -1.421875 
Q 22.3125 -1.421875 17.546875 -0.640625 
Q 12.796875 0.140625 7.71875 1.703125 
L 7.71875 11.625 
Q 12.109375 9.234375 16.796875 8.0625 
Q 21.484375 6.890625 26.703125 6.890625 
Q 35.15625 6.890625 40.078125 11.328125 
Q 45.015625 15.765625 45.015625 23.390625 
Q 45.015625 31 40.078125 35.4375 
Q 35.15625 39.890625 26.703125 39.890625 
Q 22.75 39.890625 18.8125 39.015625 
Q 14.890625 38.140625 10.796875 36.28125 
z
" id="DejaVuSans-53"/>
     </defs>
     <use xlink:href="#DejaVuSans-98"/>
     <use x="63.476562" xlink:href="#DejaVuSans-98"/>
     <use x="126.953125" xlink:href="#DejaVuSans-111"/>
     <use x="188.134766" xlink:href="#DejaVuSans-98"/>
     <use x="251.611328" xlink:href="#DejaVuSans-32"/>
     <use x="283.398438" xlink:href="#DejaVuSans-102"/>
     <use x="318.603516" xlink:href="#DejaVuSans-49"/>
     <use x="382.226562" xlink:href="#DejaVuSans-52"/>
     <use x="445.849609" xlink:href="#DejaVuSans-44"/>
     <use x="477.636719" xlink:href="#DejaVuSans-32"/>
     <use x="509.423828" xlink:href="#DejaVuSans-53"/>
     <use x="573.046875" xlink:href="#DejaVuSans-45"/>
     <use x="609.130859" xlink:href="#DejaVuSans-68"/>
    </g>
    <!-- 51 targets: 100..1e-08 -->
    <g transform="translate(60.41088 49.533135)scale(0.102 -0.102)">
     <defs>
      <path d="M 11.71875 12.40625 
L 22.015625 12.40625 
L 22.015625 0 
L 11.71875 0 
z
M 11.71875 51.703125 
L 22.015625 51.703125 
L 22.015625 39.3125 
L 11.71875 39.3125 
z
" id="DejaVuSans-58"/>
     </defs>
     <use xlink:href="#DejaVuSans-53"/>
     <use x="63.623047" xlink:href="#DejaVuSans-49"/>
     <use x="127.246094" xlink:href="#DejaVuSans-32"/>
     <use x="159.033203" xlink:href="#DejaVuSans-116"/>
     <use x="198.242188" xlink:href="#DejaVuSans-97"/>
     <use x="259.521484" xlink:href="#DejaVuSans-114"/>
     <use x="298.884766" xlink:href="#DejaVuSans-103"/>
     <use x="362.361328" xlink:href="#DejaVuSans-101"/>
     <use x="423.884766" xlink:href="#DejaVuSans-116"/>
     <use x="463.09375" xlink:href="#DejaVuSans-115"/>
     <use x="515.193359" xlink:href="#DejaVuSans-58"/>
     <use x="548.884766" xlink:href="#DejaVuSans-32"/>
     <use x="580.671875" xlink:href="#DejaVuSans-49"/>
     <use x="644.294922" xlink:href="#DejaVuSans-48"/>
     <use x="707.917969" xlink:href="#DejaVuSans-48"/>
     <use x="771.541016" xlink:href="#DejaVuSans-46"/>
     <use x="803.328125" xlink:href="#DejaVuSans-46"/>
     <use x="835.115234" xlink:href="#DejaVuSans-49"/>
     <use x="898.738281" xlink:href="#DejaVuSans-101"/>
     <use x="960.261719" xlink:href="#DejaVuSans-45"/>
     <use x="996.345703" xlink:href="#DejaVuSans-48"/>
     <use x="1059.96875" xlink:href="#DejaVuSans-56"/>
    </g>
    <!-- 15 instances -->
    <g transform="translate(60.41088 60.954904)scale(0.102 -0.102)">
     <use xlink:href="#DejaVuSans-49"/>
     <use x="63.623047" xlink:href="#DejaVuSans-53"/>
     <use x="127.246094" xlink:href="#DejaVuSans-32"/>
     <use x="159.033203" xlink:href="#DejaVuSans-105"/>
     <use x="186.816406" xlink:href="#DejaVuSans-110"/>
     <use x="250.195312" xlink:href="#DejaVuSans-115"/>
     <use x="302.294922" xlink:href="#DejaVuSans-116"/>
     <use x="341.503906" xlink:href="#DejaVuSans-97"/>
     <use x="402.783203" xlink:href="#DejaVuSans-110"/>
     <use x="466.162109" xlink:href="#DejaVuSans-99"/>
     <use x="521.142578" xlink:href="#DejaVuSans-101"/>
     <use x="582.666016" xlink:href="#DejaVuSans-115"/>
    </g>
   </g>
   <g id="text_17">
    <!-- v2.4 -->
    <g style="fill:#808080;" transform="translate(187.233062 294.151352)scale(0.1 -0.1)">
     <use xlink:href="#DejaVuSans-118"/>
     <use x="59.179688" xlink:href="#DejaVuSans-50"/>
     <use x="122.802734" xlink:href="#DejaVuSans-46"/>
     <use x="154.589844" xlink:href="#DejaVuSans-52"/>
    </g>
   </g>
   <g id="text_18">
    <!-- 14 Sum of different powers -->
    <g transform="translate(61.904937 21.648)scale(0.2 -0.2)">
     <defs>
      <path d="M 53.515625 70.515625 
L 53.515625 60.890625 
Q 47.90625 63.578125 42.921875 64.890625 
Q 37.9375 66.21875 33.296875 66.21875 
Q 25.25 66.21875 20.875 63.09375 
Q 16.5 59.96875 16.5 54.203125 
Q 16.5 49.359375 19.40625 46.890625 
Q 22.3125 44.4375 30.421875 42.921875 
L 36.375 41.703125 
Q 47.40625 39.59375 52.65625 34.296875 
Q 57.90625 29 57.90625 20.125 
Q 57.90625 9.515625 50.796875 4.046875 
Q 43.703125 -1.421875 29.984375 -1.421875 
Q 24.8125 -1.421875 18.96875 -0.25 
Q 13.140625 0.921875 6.890625 3.21875 
L 6.890625 13.375 
Q 12.890625 10.015625 18.65625 8.296875 
Q 24.421875 6.59375 29.984375 6.59375 
Q 38.421875 6.59375 43.015625 9.90625 
Q 47.609375 13.234375 47.609375 19.390625 
Q 47.609375 24.75 44.3125 27.78125 
Q 41.015625 30.8125 33.5 32.328125 
L 27.484375 33.5 
Q 16.453125 35.6875 11.515625 40.375 
Q 6.59375 45.0625 6.59375 53.421875 
Q 6.59375 63.09375 13.40625 68.65625 
Q 20.21875 74.21875 32.171875 74.21875 
Q 37.3125 74.21875 42.625 73.28125 
Q 47.953125 72.359375 53.515625 70.515625 
z
" id="DejaVuSans-83"/>
      <path d="M 4.203125 54.6875 
L 13.1875 54.6875 
L 24.421875 12.015625 
L 35.59375 54.6875 
L 46.1875 54.6875 
L 57.421875 12.015625 
L 68.609375 54.6875 
L 77.59375 54.6875 
L 63.28125 0 
L 52.6875 0 
L 40.921875 44.828125 
L 29.109375 0 
L 18.5 0 
z
" id="DejaVuSans-119"/>
     </defs>
     <use xlink:href="#DejaVuSans-49"/>
     <use x="63.623047" xlink:href="#DejaVuSans-52"/>
     <use x="127.246094" xlink:href="#DejaVuSans-32"/>
     <use x="159.033203" xlink:href="#DejaVuSans-83"/>
     <use x="222.509766" xlink:href="#DejaVuSans-117"/>
     <use x="285.888672" xlink:href="#DejaVuSans-109"/>
     <use x="383.300781" xlink:href="#DejaVuSans-32"/>
     <use x="415.087891" xlink:href="#DejaVuSans-111"/>
     <use x="476.269531" xlink:href="#DejaVuSans-102"/>
     <use x="511.474609" xlink:href="#DejaVuSans-32"/>
     <use x="543.261719" xlink:href="#DejaVuSans-100"/>
     <use x="606.738281" xlink:href="#DejaVuSans-105"/>
     <use x="634.521484" xlink:href="#DejaVuSans-102"/>
     <use x="669.726562" xlink:href="#DejaVuSans-102"/>
     <use x="704.931641" xlink:href="#DejaVuSans-101"/>
     <use x="766.455078" xlink:href="#DejaVuSans-114"/>
     <use x="805.318359" xlink:href="#DejaVuSans-101"/>
     <use x="866.841797" xlink:href="#DejaVuSans-110"/>
     <use x="930.220703" xlink:href="#DejaVuSans-116"/>
     <use x="969.429688" xlink:href="#DejaVuSans-32"/>
     <use x="1001.216797" xlink:href="#DejaVuSans-112"/>
     <use x="1064.693359" xlink:href="#DejaVuSans-111"/>
     <use x="1125.875" xlink:href="#DejaVuSans-119"/>
     <use x="1207.662109" xlink:href="#DejaVuSans-101"/>
     <use x="1269.185547" xlink:href="#DejaVuSans-114"/>
     <use x="1310.298828" xlink:href="#DejaVuSans-115"/>
    </g>
   </g>
  </g>
 </g>
 <defs>
  <clipPath id="p7f0e36491d">
   <rect height="271.296" width="281.088" x="57.6" y="27.648"/>
  </clipPath>
 </defs>
</svg>
