<?xml version="1.0" encoding="utf-8" standalone="no"?>
<!DOCTYPE svg PUBLIC "-//W3C//DTD SVG 1.1//EN"
  "http://www.w3.org/Graphics/SVG/1.1/DTD/svg11.dtd">
<!-- Created with matplotlib (https://matplotlib.org/) -->
<svg height="345.6pt" version="1.1" viewBox="0 0 460.8 345.6" width="460.8pt" xmlns="http://www.w3.org/2000/svg" xmlns:xlink="http://www.w3.org/1999/xlink">
 <metadata>
  <rdf:RDF xmlns:cc="http://creativecommons.org/ns#" xmlns:dc="http://purl.org/dc/elements/1.1/" xmlns:rdf="http://www.w3.org/1999/02/22-rdf-syntax-ns#">
   <cc:Work>
    <dc:type rdf:resource="http://purl.org/dc/dcmitype/StillImage"/>
    <dc:date>2021-05-02T04:47:03.119962</dc:date>
    <dc:format>image/svg+xml</dc:format>
    <dc:creator>
     <cc:Agent>
      <dc:title>Matplotlib v3.3.2, https://matplotlib.org/</dc:title>
     </cc:Agent>
    </dc:creator>
   </cc:Work>
  </rdf:RDF>
 </metadata>
 <defs>
  <style type="text/css">*{stroke-linecap:butt;stroke-linejoin:round;}</style>
 </defs>
 <g id="figure_1">
  <g id="patch_1">
   <path d="M 0 345.6 
L 460.8 345.6 
L 460.8 0 
L 0 0 
z
" style="fill:#ffffff;"/>
  </g>
  <g id="axes_1">
   <g id="patch_2">
    <path d="M 57.6 298.944 
L 338.688 298.944 
L 338.688 27.648 
L 57.6 27.648 
z
" style="fill:#ffffff;"/>
   </g>
   <g id="line2d_1">
    <path d="M 95.526106 298.944 
L 95.526106 293.677139 
L 99.097574 293.677139 
L 99.097574 288.410278 
L 100.934985 288.410278 
L 100.934985 283.143418 
L 102.060491 283.143418 
L 102.060491 277.876557 
L 103.372333 277.876557 
L 103.372333 272.609696 
L 104.355088 272.609696 
L 104.355088 267.342835 
L 106.168594 267.342835 
L 106.168594 262.075974 
L 115.077025 262.075974 
L 115.077025 256.809114 
L 124.817858 256.809114 
L 124.817858 251.542253 
L 126.372183 251.542253 
L 126.372183 246.275392 
L 127.357715 246.275392 
L 127.357715 241.008531 
L 128.350967 241.008531 
L 128.350967 235.74167 
L 129.233413 235.74167 
L 129.233413 230.47481 
L 129.853291 230.47481 
L 129.853291 225.207949 
L 130.61164 225.207949 
L 130.61164 219.941088 
L 130.978796 219.941088 
L 130.978796 214.674227 
L 131.389151 214.674227 
L 131.389151 209.407366 
L 131.888878 209.407366 
L 131.888878 204.140506 
L 132.230358 204.140506 
L 132.230358 198.873645 
L 132.422528 198.873645 
L 132.422528 193.606784 
L 132.753813 193.606784 
L 132.753813 188.339923 
L 132.986651 188.339923 
L 132.986651 183.073062 
L 133.170708 183.073062 
L 133.170708 177.806202 
L 133.352844 177.806202 
L 133.352844 172.539341 
L 133.57787 172.539341 
L 133.57787 167.27248 
L 133.622529 167.27248 
L 133.622529 162.005619 
L 133.755823 162.005619 
L 133.755823 156.738758 
L 133.844123 156.738758 
L 133.844123 151.471897 
L 133.931979 151.471897 
L 133.931979 146.205037 
L 133.975741 146.205037 
L 133.975741 140.938176 
L 134.062938 140.938176 
L 134.062938 135.671315 
L 134.236034 135.671315 
L 134.236034 130.404454 
L 134.364738 130.404454 
L 134.364738 125.137593 
L 134.407429 125.137593 
L 134.407429 119.870733 
L 134.450015 119.870733 
L 134.450015 109.337011 
L 134.534878 109.337011 
L 134.534878 104.07015 
L 134.61933 104.07015 
L 134.61933 93.536429 
L 134.661403 93.536429 
L 134.661403 83.002707 
L 134.745246 83.002707 
L 134.745246 77.735846 
L 134.787017 77.735846 
L 134.787017 72.468985 
L 134.870259 72.468985 
L 134.870259 67.202125 
L 134.911732 67.202125 
L 134.911732 61.935264 
L 134.953107 61.935264 
L 134.953107 56.668403 
L 134.994383 56.668403 
L 134.994383 51.401542 
L 135.035562 51.401542 
L 135.035562 30.334099 
L 338.688 30.334099 
" style="fill:none;stroke:#f5deb3;stroke-linecap:square;stroke-width:4;"/>
   </g>
   <g id="line2d_2">
    <defs>
     <path d="M -0 7.778175 
L 7.778175 0 
L 0 -7.778175 
L -7.778175 -0 
z
" id="m88ea2bd904" style="stroke:#f5deb3;stroke-linejoin:miter;stroke-width:1.5;"/>
    </defs>
    <g>
     <use style="fill:#f5deb3;stroke:#f5deb3;stroke-linejoin:miter;stroke-width:1.5;" x="131.888878" xlink:href="#m88ea2bd904" y="209.407366"/>
     <use style="fill:#f5deb3;stroke:#f5deb3;stroke-linejoin:miter;stroke-width:1.5;" x="135.035562" xlink:href="#m88ea2bd904" y="51.401542"/>
     <use style="fill:#f5deb3;stroke:#f5deb3;stroke-linejoin:miter;stroke-width:1.5;" x="135.035562" xlink:href="#m88ea2bd904" y="30.334099"/>
     <use style="fill:#f5deb3;stroke:#f5deb3;stroke-linejoin:miter;stroke-width:1.5;" x="135.035562" xlink:href="#m88ea2bd904" y="30.334099"/>
     <use style="fill:#f5deb3;stroke:#f5deb3;stroke-linejoin:miter;stroke-width:1.5;" x="338.688" xlink:href="#m88ea2bd904" y="30.334099"/>
    </g>
   </g>
   <g id="line2d_3">
    <path style="fill:none;stroke:#f5deb3;stroke-linecap:square;stroke-width:4;"/>
    <g/>
   </g>
   <g id="line2d_4">
    <path d="M 338.688 30.334099 
L 369.60768 35.706297 
" style="fill:none;stroke:#f5deb3;stroke-linecap:square;stroke-width:4;"/>
    <g>
     <use style="fill:#f5deb3;stroke:#f5deb3;stroke-linejoin:miter;stroke-width:1.5;" x="338.688" xlink:href="#m88ea2bd904" y="30.334099"/>
     <use style="fill:#f5deb3;stroke:#f5deb3;stroke-linejoin:miter;stroke-width:1.5;" x="369.60768" xlink:href="#m88ea2bd904" y="35.706297"/>
    </g>
   </g>
   <g id="matplotlib.axis_1">
    <g id="xtick_1">
     <g id="line2d_5">
      <path clip-path="url(#p501f4303ed)" d="M 57.6 298.944 
L 57.6 27.648 
" style="fill:none;stroke:#b0b0b0;stroke-linecap:square;stroke-width:0.8;"/>
     </g>
     <g id="line2d_6">
      <defs>
       <path d="M 0 0 
L 0 3.5 
" id="md87a50b0d7" style="stroke:#000000;stroke-width:0.8;"/>
      </defs>
      <g>
       <use style="stroke:#000000;stroke-width:0.8;" x="57.6" xlink:href="#md87a50b0d7" y="298.944"/>
      </g>
     </g>
     <g id="text_1">
      <!-- 0 -->
      <g transform="translate(51.2375 321.140875)scale(0.2 -0.2)">
       <defs>
        <path d="M 31.78125 66.40625 
Q 24.171875 66.40625 20.328125 58.90625 
Q 16.5 51.421875 16.5 36.375 
Q 16.5 21.390625 20.328125 13.890625 
Q 24.171875 6.390625 31.78125 6.390625 
Q 39.453125 6.390625 43.28125 13.890625 
Q 47.125 21.390625 47.125 36.375 
Q 47.125 51.421875 43.28125 58.90625 
Q 39.453125 66.40625 31.78125 66.40625 
z
M 31.78125 74.21875 
Q 44.046875 74.21875 50.515625 64.515625 
Q 56.984375 54.828125 56.984375 36.375 
Q 56.984375 17.96875 50.515625 8.265625 
Q 44.046875 -1.421875 31.78125 -1.421875 
Q 19.53125 -1.421875 13.0625 8.265625 
Q 6.59375 17.96875 6.59375 36.375 
Q 6.59375 54.828125 13.0625 64.515625 
Q 19.53125 74.21875 31.78125 74.21875 
z
" id="DejaVuSans-48"/>
       </defs>
       <use xlink:href="#DejaVuSans-48"/>
      </g>
     </g>
    </g>
    <g id="xtick_2">
     <g id="line2d_7">
      <path clip-path="url(#p501f4303ed)" d="M 137.910857 298.944 
L 137.910857 27.648 
" style="fill:none;stroke:#b0b0b0;stroke-linecap:square;stroke-width:0.8;"/>
     </g>
     <g id="line2d_8">
      <g>
       <use style="stroke:#000000;stroke-width:0.8;" x="137.910857" xlink:href="#md87a50b0d7" y="298.944"/>
      </g>
     </g>
     <g id="text_2">
      <!-- 2 -->
      <g transform="translate(131.548357 321.140875)scale(0.2 -0.2)">
       <defs>
        <path d="M 19.1875 8.296875 
L 53.609375 8.296875 
L 53.609375 0 
L 7.328125 0 
L 7.328125 8.296875 
Q 12.9375 14.109375 22.625 23.890625 
Q 32.328125 33.6875 34.8125 36.53125 
Q 39.546875 41.84375 41.421875 45.53125 
Q 43.3125 49.21875 43.3125 52.78125 
Q 43.3125 58.59375 39.234375 62.25 
Q 35.15625 65.921875 28.609375 65.921875 
Q 23.96875 65.921875 18.8125 64.3125 
Q 13.671875 62.703125 7.8125 59.421875 
L 7.8125 69.390625 
Q 13.765625 71.78125 18.9375 73 
Q 24.125 74.21875 28.421875 74.21875 
Q 39.75 74.21875 46.484375 68.546875 
Q 53.21875 62.890625 53.21875 53.421875 
Q 53.21875 48.921875 51.53125 44.890625 
Q 49.859375 40.875 45.40625 35.40625 
Q 44.1875 33.984375 37.640625 27.21875 
Q 31.109375 20.453125 19.1875 8.296875 
z
" id="DejaVuSans-50"/>
       </defs>
       <use xlink:href="#DejaVuSans-50"/>
      </g>
     </g>
    </g>
    <g id="xtick_3">
     <g id="line2d_9">
      <path clip-path="url(#p501f4303ed)" d="M 218.221714 298.944 
L 218.221714 27.648 
" style="fill:none;stroke:#b0b0b0;stroke-linecap:square;stroke-width:0.8;"/>
     </g>
     <g id="line2d_10">
      <g>
       <use style="stroke:#000000;stroke-width:0.8;" x="218.221714" xlink:href="#md87a50b0d7" y="298.944"/>
      </g>
     </g>
     <g id="text_3">
      <!-- 4 -->
      <g transform="translate(211.859214 321.140875)scale(0.2 -0.2)">
       <defs>
        <path d="M 37.796875 64.3125 
L 12.890625 25.390625 
L 37.796875 25.390625 
z
M 35.203125 72.90625 
L 47.609375 72.90625 
L 47.609375 25.390625 
L 58.015625 25.390625 
L 58.015625 17.1875 
L 47.609375 17.1875 
L 47.609375 0 
L 37.796875 0 
L 37.796875 17.1875 
L 4.890625 17.1875 
L 4.890625 26.703125 
z
" id="DejaVuSans-52"/>
       </defs>
       <use xlink:href="#DejaVuSans-52"/>
      </g>
     </g>
    </g>
    <g id="xtick_4">
     <g id="line2d_11">
      <path clip-path="url(#p501f4303ed)" d="M 298.532571 298.944 
L 298.532571 27.648 
" style="fill:none;stroke:#b0b0b0;stroke-linecap:square;stroke-width:0.8;"/>
     </g>
     <g id="line2d_12">
      <g>
       <use style="stroke:#000000;stroke-width:0.8;" x="298.532571" xlink:href="#md87a50b0d7" y="298.944"/>
      </g>
     </g>
     <g id="text_4">
      <!-- 6 -->
      <g transform="translate(292.170071 321.140875)scale(0.2 -0.2)">
       <defs>
        <path d="M 33.015625 40.375 
Q 26.375 40.375 22.484375 35.828125 
Q 18.609375 31.296875 18.609375 23.390625 
Q 18.609375 15.53125 22.484375 10.953125 
Q 26.375 6.390625 33.015625 6.390625 
Q 39.65625 6.390625 43.53125 10.953125 
Q 47.40625 15.53125 47.40625 23.390625 
Q 47.40625 31.296875 43.53125 35.828125 
Q 39.65625 40.375 33.015625 40.375 
z
M 52.59375 71.296875 
L 52.59375 62.3125 
Q 48.875 64.0625 45.09375 64.984375 
Q 41.3125 65.921875 37.59375 65.921875 
Q 27.828125 65.921875 22.671875 59.328125 
Q 17.53125 52.734375 16.796875 39.40625 
Q 19.671875 43.65625 24.015625 45.921875 
Q 28.375 48.1875 33.59375 48.1875 
Q 44.578125 48.1875 50.953125 41.515625 
Q 57.328125 34.859375 57.328125 23.390625 
Q 57.328125 12.15625 50.6875 5.359375 
Q 44.046875 -1.421875 33.015625 -1.421875 
Q 20.359375 -1.421875 13.671875 8.265625 
Q 6.984375 17.96875 6.984375 36.375 
Q 6.984375 53.65625 15.1875 63.9375 
Q 23.390625 74.21875 37.203125 74.21875 
Q 40.921875 74.21875 44.703125 73.484375 
Q 48.484375 72.75 52.59375 71.296875 
z
" id="DejaVuSans-54"/>
       </defs>
       <use xlink:href="#DejaVuSans-54"/>
      </g>
     </g>
    </g>
    <g id="xtick_5">
     <g id="line2d_13">
      <path clip-path="url(#p501f4303ed)" d="M 97.755429 298.944 
L 97.755429 27.648 
" style="fill:none;stroke:#b0b0b0;stroke-linecap:square;stroke-width:0.8;"/>
     </g>
     <g id="line2d_14">
      <defs>
       <path d="M 0 0 
L 0 2 
" id="mc6db576d80" style="stroke:#000000;stroke-width:0.6;"/>
      </defs>
      <g>
       <use style="stroke:#000000;stroke-width:0.6;" x="97.755429" xlink:href="#mc6db576d80" y="298.944"/>
      </g>
     </g>
    </g>
    <g id="xtick_6">
     <g id="line2d_15">
      <path clip-path="url(#p501f4303ed)" d="M 178.066286 298.944 
L 178.066286 27.648 
" style="fill:none;stroke:#b0b0b0;stroke-linecap:square;stroke-width:0.8;"/>
     </g>
     <g id="line2d_16">
      <g>
       <use style="stroke:#000000;stroke-width:0.6;" x="178.066286" xlink:href="#mc6db576d80" y="298.944"/>
      </g>
     </g>
    </g>
    <g id="xtick_7">
     <g id="line2d_17">
      <path clip-path="url(#p501f4303ed)" d="M 258.377143 298.944 
L 258.377143 27.648 
" style="fill:none;stroke:#b0b0b0;stroke-linecap:square;stroke-width:0.8;"/>
     </g>
     <g id="line2d_18">
      <g>
       <use style="stroke:#000000;stroke-width:0.6;" x="258.377143" xlink:href="#mc6db576d80" y="298.944"/>
      </g>
     </g>
    </g>
    <g id="xtick_8">
     <g id="line2d_19">
      <path clip-path="url(#p501f4303ed)" d="M 338.688 298.944 
L 338.688 27.648 
" style="fill:none;stroke:#b0b0b0;stroke-linecap:square;stroke-width:0.8;"/>
     </g>
     <g id="line2d_20">
      <g>
       <use style="stroke:#000000;stroke-width:0.6;" x="338.688" xlink:href="#mc6db576d80" y="298.944"/>
      </g>
     </g>
    </g>
    <g id="text_5">
     <!-- log10(# f-evals / dimension) -->
     <g transform="translate(77.764078 342.217594)scale(0.17 -0.17)">
      <defs>
       <path d="M 9.421875 75.984375 
L 18.40625 75.984375 
L 18.40625 0 
L 9.421875 0 
z
" id="DejaVuSans-108"/>
       <path d="M 30.609375 48.390625 
Q 23.390625 48.390625 19.1875 42.75 
Q 14.984375 37.109375 14.984375 27.296875 
Q 14.984375 17.484375 19.15625 11.84375 
Q 23.34375 6.203125 30.609375 6.203125 
Q 37.796875 6.203125 41.984375 11.859375 
Q 46.1875 17.53125 46.1875 27.296875 
Q 46.1875 37.015625 41.984375 42.703125 
Q 37.796875 48.390625 30.609375 48.390625 
z
M 30.609375 56 
Q 42.328125 56 49.015625 48.375 
Q 55.71875 40.765625 55.71875 27.296875 
Q 55.71875 13.875 49.015625 6.21875 
Q 42.328125 -1.421875 30.609375 -1.421875 
Q 18.84375 -1.421875 12.171875 6.21875 
Q 5.515625 13.875 5.515625 27.296875 
Q 5.515625 40.765625 12.171875 48.375 
Q 18.84375 56 30.609375 56 
z
" id="DejaVuSans-111"/>
       <path d="M 45.40625 27.984375 
Q 45.40625 37.75 41.375 43.109375 
Q 37.359375 48.484375 30.078125 48.484375 
Q 22.859375 48.484375 18.828125 43.109375 
Q 14.796875 37.75 14.796875 27.984375 
Q 14.796875 18.265625 18.828125 12.890625 
Q 22.859375 7.515625 30.078125 7.515625 
Q 37.359375 7.515625 41.375 12.890625 
Q 45.40625 18.265625 45.40625 27.984375 
z
M 54.390625 6.78125 
Q 54.390625 -7.171875 48.1875 -13.984375 
Q 42 -20.796875 29.203125 -20.796875 
Q 24.46875 -20.796875 20.265625 -20.09375 
Q 16.0625 -19.390625 12.109375 -17.921875 
L 12.109375 -9.1875 
Q 16.0625 -11.328125 19.921875 -12.34375 
Q 23.78125 -13.375 27.78125 -13.375 
Q 36.625 -13.375 41.015625 -8.765625 
Q 45.40625 -4.15625 45.40625 5.171875 
L 45.40625 9.625 
Q 42.625 4.78125 38.28125 2.390625 
Q 33.9375 0 27.875 0 
Q 17.828125 0 11.671875 7.65625 
Q 5.515625 15.328125 5.515625 27.984375 
Q 5.515625 40.671875 11.671875 48.328125 
Q 17.828125 56 27.875 56 
Q 33.9375 56 38.28125 53.609375 
Q 42.625 51.21875 45.40625 46.390625 
L 45.40625 54.6875 
L 54.390625 54.6875 
z
" id="DejaVuSans-103"/>
       <path d="M 12.40625 8.296875 
L 28.515625 8.296875 
L 28.515625 63.921875 
L 10.984375 60.40625 
L 10.984375 69.390625 
L 28.421875 72.90625 
L 38.28125 72.90625 
L 38.28125 8.296875 
L 54.390625 8.296875 
L 54.390625 0 
L 12.40625 0 
z
" id="DejaVuSans-49"/>
       <path d="M 31 75.875 
Q 24.46875 64.65625 21.28125 53.65625 
Q 18.109375 42.671875 18.109375 31.390625 
Q 18.109375 20.125 21.3125 9.0625 
Q 24.515625 -2 31 -13.1875 
L 23.1875 -13.1875 
Q 15.875 -1.703125 12.234375 9.375 
Q 8.59375 20.453125 8.59375 31.390625 
Q 8.59375 42.28125 12.203125 53.3125 
Q 15.828125 64.359375 23.1875 75.875 
z
" id="DejaVuSans-40"/>
       <path d="M 51.125 44 
L 36.921875 44 
L 32.8125 27.6875 
L 47.125 27.6875 
z
M 43.796875 71.78125 
L 38.71875 51.515625 
L 52.984375 51.515625 
L 58.109375 71.78125 
L 65.921875 71.78125 
L 60.890625 51.515625 
L 76.125 51.515625 
L 76.125 44 
L 58.984375 44 
L 54.984375 27.6875 
L 70.515625 27.6875 
L 70.515625 20.21875 
L 53.078125 20.21875 
L 48 0 
L 40.1875 0 
L 45.21875 20.21875 
L 30.90625 20.21875 
L 25.875 0 
L 18.015625 0 
L 23.09375 20.21875 
L 7.71875 20.21875 
L 7.71875 27.6875 
L 24.90625 27.6875 
L 29 44 
L 13.28125 44 
L 13.28125 51.515625 
L 30.90625 51.515625 
L 35.890625 71.78125 
z
" id="DejaVuSans-35"/>
       <path id="DejaVuSans-32"/>
       <path d="M 37.109375 75.984375 
L 37.109375 68.5 
L 28.515625 68.5 
Q 23.6875 68.5 21.796875 66.546875 
Q 19.921875 64.59375 19.921875 59.515625 
L 19.921875 54.6875 
L 34.71875 54.6875 
L 34.71875 47.703125 
L 19.921875 47.703125 
L 19.921875 0 
L 10.890625 0 
L 10.890625 47.703125 
L 2.296875 47.703125 
L 2.296875 54.6875 
L 10.890625 54.6875 
L 10.890625 58.5 
Q 10.890625 67.625 15.140625 71.796875 
Q 19.390625 75.984375 28.609375 75.984375 
z
" id="DejaVuSans-102"/>
       <path d="M 4.890625 31.390625 
L 31.203125 31.390625 
L 31.203125 23.390625 
L 4.890625 23.390625 
z
" id="DejaVuSans-45"/>
       <path d="M 56.203125 29.59375 
L 56.203125 25.203125 
L 14.890625 25.203125 
Q 15.484375 15.921875 20.484375 11.0625 
Q 25.484375 6.203125 34.421875 6.203125 
Q 39.59375 6.203125 44.453125 7.46875 
Q 49.3125 8.734375 54.109375 11.28125 
L 54.109375 2.78125 
Q 49.265625 0.734375 44.1875 -0.34375 
Q 39.109375 -1.421875 33.890625 -1.421875 
Q 20.796875 -1.421875 13.15625 6.1875 
Q 5.515625 13.8125 5.515625 26.8125 
Q 5.515625 40.234375 12.765625 48.109375 
Q 20.015625 56 32.328125 56 
Q 43.359375 56 49.78125 48.890625 
Q 56.203125 41.796875 56.203125 29.59375 
z
M 47.21875 32.234375 
Q 47.125 39.59375 43.09375 43.984375 
Q 39.0625 48.390625 32.421875 48.390625 
Q 24.90625 48.390625 20.390625 44.140625 
Q 15.875 39.890625 15.1875 32.171875 
z
" id="DejaVuSans-101"/>
       <path d="M 2.984375 54.6875 
L 12.5 54.6875 
L 29.59375 8.796875 
L 46.6875 54.6875 
L 56.203125 54.6875 
L 35.6875 0 
L 23.484375 0 
z
" id="DejaVuSans-118"/>
       <path d="M 34.28125 27.484375 
Q 23.390625 27.484375 19.1875 25 
Q 14.984375 22.515625 14.984375 16.5 
Q 14.984375 11.71875 18.140625 8.90625 
Q 21.296875 6.109375 26.703125 6.109375 
Q 34.1875 6.109375 38.703125 11.40625 
Q 43.21875 16.703125 43.21875 25.484375 
L 43.21875 27.484375 
z
M 52.203125 31.203125 
L 52.203125 0 
L 43.21875 0 
L 43.21875 8.296875 
Q 40.140625 3.328125 35.546875 0.953125 
Q 30.953125 -1.421875 24.3125 -1.421875 
Q 15.921875 -1.421875 10.953125 3.296875 
Q 6 8.015625 6 15.921875 
Q 6 25.140625 12.171875 29.828125 
Q 18.359375 34.515625 30.609375 34.515625 
L 43.21875 34.515625 
L 43.21875 35.40625 
Q 43.21875 41.609375 39.140625 45 
Q 35.0625 48.390625 27.6875 48.390625 
Q 23 48.390625 18.546875 47.265625 
Q 14.109375 46.140625 10.015625 43.890625 
L 10.015625 52.203125 
Q 14.9375 54.109375 19.578125 55.046875 
Q 24.21875 56 28.609375 56 
Q 40.484375 56 46.34375 49.84375 
Q 52.203125 43.703125 52.203125 31.203125 
z
" id="DejaVuSans-97"/>
       <path d="M 44.28125 53.078125 
L 44.28125 44.578125 
Q 40.484375 46.53125 36.375 47.5 
Q 32.28125 48.484375 27.875 48.484375 
Q 21.1875 48.484375 17.84375 46.4375 
Q 14.5 44.390625 14.5 40.28125 
Q 14.5 37.15625 16.890625 35.375 
Q 19.28125 33.59375 26.515625 31.984375 
L 29.59375 31.296875 
Q 39.15625 29.25 43.1875 25.515625 
Q 47.21875 21.78125 47.21875 15.09375 
Q 47.21875 7.46875 41.1875 3.015625 
Q 35.15625 -1.421875 24.609375 -1.421875 
Q 20.21875 -1.421875 15.453125 -0.5625 
Q 10.6875 0.296875 5.421875 2 
L 5.421875 11.28125 
Q 10.40625 8.6875 15.234375 7.390625 
Q 20.0625 6.109375 24.8125 6.109375 
Q 31.15625 6.109375 34.5625 8.28125 
Q 37.984375 10.453125 37.984375 14.40625 
Q 37.984375 18.0625 35.515625 20.015625 
Q 33.0625 21.96875 24.703125 23.78125 
L 21.578125 24.515625 
Q 13.234375 26.265625 9.515625 29.90625 
Q 5.8125 33.546875 5.8125 39.890625 
Q 5.8125 47.609375 11.28125 51.796875 
Q 16.75 56 26.8125 56 
Q 31.78125 56 36.171875 55.265625 
Q 40.578125 54.546875 44.28125 53.078125 
z
" id="DejaVuSans-115"/>
       <path d="M 25.390625 72.90625 
L 33.6875 72.90625 
L 8.296875 -9.28125 
L 0 -9.28125 
z
" id="DejaVuSans-47"/>
       <path d="M 45.40625 46.390625 
L 45.40625 75.984375 
L 54.390625 75.984375 
L 54.390625 0 
L 45.40625 0 
L 45.40625 8.203125 
Q 42.578125 3.328125 38.25 0.953125 
Q 33.9375 -1.421875 27.875 -1.421875 
Q 17.96875 -1.421875 11.734375 6.484375 
Q 5.515625 14.40625 5.515625 27.296875 
Q 5.515625 40.1875 11.734375 48.09375 
Q 17.96875 56 27.875 56 
Q 33.9375 56 38.25 53.625 
Q 42.578125 51.265625 45.40625 46.390625 
z
M 14.796875 27.296875 
Q 14.796875 17.390625 18.875 11.75 
Q 22.953125 6.109375 30.078125 6.109375 
Q 37.203125 6.109375 41.296875 11.75 
Q 45.40625 17.390625 45.40625 27.296875 
Q 45.40625 37.203125 41.296875 42.84375 
Q 37.203125 48.484375 30.078125 48.484375 
Q 22.953125 48.484375 18.875 42.84375 
Q 14.796875 37.203125 14.796875 27.296875 
z
" id="DejaVuSans-100"/>
       <path d="M 9.421875 54.6875 
L 18.40625 54.6875 
L 18.40625 0 
L 9.421875 0 
z
M 9.421875 75.984375 
L 18.40625 75.984375 
L 18.40625 64.59375 
L 9.421875 64.59375 
z
" id="DejaVuSans-105"/>
       <path d="M 52 44.1875 
Q 55.375 50.25 60.0625 53.125 
Q 64.75 56 71.09375 56 
Q 79.640625 56 84.28125 50.015625 
Q 88.921875 44.046875 88.921875 33.015625 
L 88.921875 0 
L 79.890625 0 
L 79.890625 32.71875 
Q 79.890625 40.578125 77.09375 44.375 
Q 74.3125 48.1875 68.609375 48.1875 
Q 61.625 48.1875 57.5625 43.546875 
Q 53.515625 38.921875 53.515625 30.90625 
L 53.515625 0 
L 44.484375 0 
L 44.484375 32.71875 
Q 44.484375 40.625 41.703125 44.40625 
Q 38.921875 48.1875 33.109375 48.1875 
Q 26.21875 48.1875 22.15625 43.53125 
Q 18.109375 38.875 18.109375 30.90625 
L 18.109375 0 
L 9.078125 0 
L 9.078125 54.6875 
L 18.109375 54.6875 
L 18.109375 46.1875 
Q 21.1875 51.21875 25.484375 53.609375 
Q 29.78125 56 35.6875 56 
Q 41.65625 56 45.828125 52.96875 
Q 50 49.953125 52 44.1875 
z
" id="DejaVuSans-109"/>
       <path d="M 54.890625 33.015625 
L 54.890625 0 
L 45.90625 0 
L 45.90625 32.71875 
Q 45.90625 40.484375 42.875 44.328125 
Q 39.84375 48.1875 33.796875 48.1875 
Q 26.515625 48.1875 22.3125 43.546875 
Q 18.109375 38.921875 18.109375 30.90625 
L 18.109375 0 
L 9.078125 0 
L 9.078125 54.6875 
L 18.109375 54.6875 
L 18.109375 46.1875 
Q 21.34375 51.125 25.703125 53.5625 
Q 30.078125 56 35.796875 56 
Q 45.21875 56 50.046875 50.171875 
Q 54.890625 44.34375 54.890625 33.015625 
z
" id="DejaVuSans-110"/>
       <path d="M 8.015625 75.875 
L 15.828125 75.875 
Q 23.140625 64.359375 26.78125 53.3125 
Q 30.421875 42.28125 30.421875 31.390625 
Q 30.421875 20.453125 26.78125 9.375 
Q 23.140625 -1.703125 15.828125 -13.1875 
L 8.015625 -13.1875 
Q 14.5 -2 17.703125 9.0625 
Q 20.90625 20.125 20.90625 31.390625 
Q 20.90625 42.671875 17.703125 53.65625 
Q 14.5 64.65625 8.015625 75.875 
z
" id="DejaVuSans-41"/>
      </defs>
      <use xlink:href="#DejaVuSans-108"/>
      <use x="27.783203" xlink:href="#DejaVuSans-111"/>
      <use x="88.964844" xlink:href="#DejaVuSans-103"/>
      <use x="152.441406" xlink:href="#DejaVuSans-49"/>
      <use x="216.064453" xlink:href="#DejaVuSans-48"/>
      <use x="279.6875" xlink:href="#DejaVuSans-40"/>
      <use x="318.701172" xlink:href="#DejaVuSans-35"/>
      <use x="402.490234" xlink:href="#DejaVuSans-32"/>
      <use x="434.277344" xlink:href="#DejaVuSans-102"/>
      <use x="463.982422" xlink:href="#DejaVuSans-45"/>
      <use x="500.066406" xlink:href="#DejaVuSans-101"/>
      <use x="561.589844" xlink:href="#DejaVuSans-118"/>
      <use x="620.769531" xlink:href="#DejaVuSans-97"/>
      <use x="682.048828" xlink:href="#DejaVuSans-108"/>
      <use x="709.832031" xlink:href="#DejaVuSans-115"/>
      <use x="761.931641" xlink:href="#DejaVuSans-32"/>
      <use x="793.71875" xlink:href="#DejaVuSans-47"/>
      <use x="827.410156" xlink:href="#DejaVuSans-32"/>
      <use x="859.197266" xlink:href="#DejaVuSans-100"/>
      <use x="922.673828" xlink:href="#DejaVuSans-105"/>
      <use x="950.457031" xlink:href="#DejaVuSans-109"/>
      <use x="1047.869141" xlink:href="#DejaVuSans-101"/>
      <use x="1109.392578" xlink:href="#DejaVuSans-110"/>
      <use x="1172.771484" xlink:href="#DejaVuSans-115"/>
      <use x="1224.871094" xlink:href="#DejaVuSans-105"/>
      <use x="1252.654297" xlink:href="#DejaVuSans-111"/>
      <use x="1313.835938" xlink:href="#DejaVuSans-110"/>
      <use x="1377.214844" xlink:href="#DejaVuSans-41"/>
     </g>
    </g>
   </g>
   <g id="matplotlib.axis_2">
    <g id="ytick_1">
     <g id="line2d_21">
      <path clip-path="url(#p501f4303ed)" d="M 57.6 298.944 
L 338.688 298.944 
" style="fill:none;stroke:#b0b0b0;stroke-linecap:square;stroke-width:0.8;"/>
     </g>
     <g id="line2d_22">
      <defs>
       <path d="M 0 0 
L -3.5 0 
" id="m89be98e06c" style="stroke:#000000;stroke-width:0.8;"/>
      </defs>
      <g>
       <use style="stroke:#000000;stroke-width:0.8;" x="57.6" xlink:href="#m89be98e06c" y="298.944"/>
      </g>
     </g>
     <g id="text_6">
      <!-- 0.0 -->
      <g transform="translate(25.155 305.02275)scale(0.16 -0.16)">
       <defs>
        <path d="M 10.6875 12.40625 
L 21 12.40625 
L 21 0 
L 10.6875 0 
z
" id="DejaVuSans-46"/>
       </defs>
       <use xlink:href="#DejaVuSans-48"/>
       <use x="63.623047" xlink:href="#DejaVuSans-46"/>
       <use x="95.410156" xlink:href="#DejaVuSans-48"/>
      </g>
     </g>
    </g>
    <g id="ytick_2">
     <g id="line2d_23">
      <path clip-path="url(#p501f4303ed)" d="M 57.6 245.22202 
L 338.688 245.22202 
" style="fill:none;stroke:#b0b0b0;stroke-linecap:square;stroke-width:0.8;"/>
     </g>
     <g id="line2d_24">
      <g>
       <use style="stroke:#000000;stroke-width:0.8;" x="57.6" xlink:href="#m89be98e06c" y="245.22202"/>
      </g>
     </g>
     <g id="text_7">
      <!-- 0.2 -->
      <g transform="translate(25.155 251.30077)scale(0.16 -0.16)">
       <use xlink:href="#DejaVuSans-48"/>
       <use x="63.623047" xlink:href="#DejaVuSans-46"/>
       <use x="95.410156" xlink:href="#DejaVuSans-50"/>
      </g>
     </g>
    </g>
    <g id="ytick_3">
     <g id="line2d_25">
      <path clip-path="url(#p501f4303ed)" d="M 57.6 191.50004 
L 338.688 191.50004 
" style="fill:none;stroke:#b0b0b0;stroke-linecap:square;stroke-width:0.8;"/>
     </g>
     <g id="line2d_26">
      <g>
       <use style="stroke:#000000;stroke-width:0.8;" x="57.6" xlink:href="#m89be98e06c" y="191.50004"/>
      </g>
     </g>
     <g id="text_8">
      <!-- 0.4 -->
      <g transform="translate(25.155 197.57879)scale(0.16 -0.16)">
       <use xlink:href="#DejaVuSans-48"/>
       <use x="63.623047" xlink:href="#DejaVuSans-46"/>
       <use x="95.410156" xlink:href="#DejaVuSans-52"/>
      </g>
     </g>
    </g>
    <g id="ytick_4">
     <g id="line2d_27">
      <path clip-path="url(#p501f4303ed)" d="M 57.6 137.778059 
L 338.688 137.778059 
" style="fill:none;stroke:#b0b0b0;stroke-linecap:square;stroke-width:0.8;"/>
     </g>
     <g id="line2d_28">
      <g>
       <use style="stroke:#000000;stroke-width:0.8;" x="57.6" xlink:href="#m89be98e06c" y="137.778059"/>
      </g>
     </g>
     <g id="text_9">
      <!-- 0.6 -->
      <g transform="translate(25.155 143.856809)scale(0.16 -0.16)">
       <use xlink:href="#DejaVuSans-48"/>
       <use x="63.623047" xlink:href="#DejaVuSans-46"/>
       <use x="95.410156" xlink:href="#DejaVuSans-54"/>
      </g>
     </g>
    </g>
    <g id="ytick_5">
     <g id="line2d_29">
      <path clip-path="url(#p501f4303ed)" d="M 57.6 84.056079 
L 338.688 84.056079 
" style="fill:none;stroke:#b0b0b0;stroke-linecap:square;stroke-width:0.8;"/>
     </g>
     <g id="line2d_30">
      <g>
       <use style="stroke:#000000;stroke-width:0.8;" x="57.6" xlink:href="#m89be98e06c" y="84.056079"/>
      </g>
     </g>
     <g id="text_10">
      <!-- 0.8 -->
      <g transform="translate(25.155 90.134829)scale(0.16 -0.16)">
       <defs>
        <path d="M 31.78125 34.625 
Q 24.75 34.625 20.71875 30.859375 
Q 16.703125 27.09375 16.703125 20.515625 
Q 16.703125 13.921875 20.71875 10.15625 
Q 24.75 6.390625 31.78125 6.390625 
Q 38.8125 6.390625 42.859375 10.171875 
Q 46.921875 13.96875 46.921875 20.515625 
Q 46.921875 27.09375 42.890625 30.859375 
Q 38.875 34.625 31.78125 34.625 
z
M 21.921875 38.8125 
Q 15.578125 40.375 12.03125 44.71875 
Q 8.5 49.078125 8.5 55.328125 
Q 8.5 64.0625 14.71875 69.140625 
Q 20.953125 74.21875 31.78125 74.21875 
Q 42.671875 74.21875 48.875 69.140625 
Q 55.078125 64.0625 55.078125 55.328125 
Q 55.078125 49.078125 51.53125 44.71875 
Q 48 40.375 41.703125 38.8125 
Q 48.828125 37.15625 52.796875 32.3125 
Q 56.78125 27.484375 56.78125 20.515625 
Q 56.78125 9.90625 50.3125 4.234375 
Q 43.84375 -1.421875 31.78125 -1.421875 
Q 19.734375 -1.421875 13.25 4.234375 
Q 6.78125 9.90625 6.78125 20.515625 
Q 6.78125 27.484375 10.78125 32.3125 
Q 14.796875 37.15625 21.921875 38.8125 
z
M 18.3125 54.390625 
Q 18.3125 48.734375 21.84375 45.5625 
Q 25.390625 42.390625 31.78125 42.390625 
Q 38.140625 42.390625 41.71875 45.5625 
Q 45.3125 48.734375 45.3125 54.390625 
Q 45.3125 60.0625 41.71875 63.234375 
Q 38.140625 66.40625 31.78125 66.40625 
Q 25.390625 66.40625 21.84375 63.234375 
Q 18.3125 60.0625 18.3125 54.390625 
z
" id="DejaVuSans-56"/>
       </defs>
       <use xlink:href="#DejaVuSans-48"/>
       <use x="63.623047" xlink:href="#DejaVuSans-46"/>
       <use x="95.410156" xlink:href="#DejaVuSans-56"/>
      </g>
     </g>
    </g>
    <g id="ytick_6">
     <g id="line2d_31">
      <path clip-path="url(#p501f4303ed)" d="M 57.6 30.334099 
L 338.688 30.334099 
" style="fill:none;stroke:#b0b0b0;stroke-linecap:square;stroke-width:0.8;"/>
     </g>
     <g id="line2d_32">
      <g>
       <use style="stroke:#000000;stroke-width:0.8;" x="57.6" xlink:href="#m89be98e06c" y="30.334099"/>
      </g>
     </g>
     <g id="text_11">
      <!-- 1.0 -->
      <g transform="translate(25.155 36.412849)scale(0.16 -0.16)">
       <use xlink:href="#DejaVuSans-49"/>
       <use x="63.623047" xlink:href="#DejaVuSans-46"/>
       <use x="95.410156" xlink:href="#DejaVuSans-48"/>
      </g>
     </g>
    </g>
    <g id="text_12">
     <!-- Fraction of function,target pairs -->
     <g transform="translate(17.619531 297.681)rotate(-90)scale(0.17 -0.17)">
      <defs>
       <path d="M 9.8125 72.90625 
L 51.703125 72.90625 
L 51.703125 64.59375 
L 19.671875 64.59375 
L 19.671875 43.109375 
L 48.578125 43.109375 
L 48.578125 34.8125 
L 19.671875 34.8125 
L 19.671875 0 
L 9.8125 0 
z
" id="DejaVuSans-70"/>
       <path d="M 41.109375 46.296875 
Q 39.59375 47.171875 37.8125 47.578125 
Q 36.03125 48 33.890625 48 
Q 26.265625 48 22.1875 43.046875 
Q 18.109375 38.09375 18.109375 28.8125 
L 18.109375 0 
L 9.078125 0 
L 9.078125 54.6875 
L 18.109375 54.6875 
L 18.109375 46.1875 
Q 20.953125 51.171875 25.484375 53.578125 
Q 30.03125 56 36.53125 56 
Q 37.453125 56 38.578125 55.875 
Q 39.703125 55.765625 41.0625 55.515625 
z
" id="DejaVuSans-114"/>
       <path d="M 48.78125 52.59375 
L 48.78125 44.1875 
Q 44.96875 46.296875 41.140625 47.34375 
Q 37.3125 48.390625 33.40625 48.390625 
Q 24.65625 48.390625 19.8125 42.84375 
Q 14.984375 37.3125 14.984375 27.296875 
Q 14.984375 17.28125 19.8125 11.734375 
Q 24.65625 6.203125 33.40625 6.203125 
Q 37.3125 6.203125 41.140625 7.25 
Q 44.96875 8.296875 48.78125 10.40625 
L 48.78125 2.09375 
Q 45.015625 0.34375 40.984375 -0.53125 
Q 36.96875 -1.421875 32.421875 -1.421875 
Q 20.0625 -1.421875 12.78125 6.34375 
Q 5.515625 14.109375 5.515625 27.296875 
Q 5.515625 40.671875 12.859375 48.328125 
Q 20.21875 56 33.015625 56 
Q 37.15625 56 41.109375 55.140625 
Q 45.0625 54.296875 48.78125 52.59375 
z
" id="DejaVuSans-99"/>
       <path d="M 18.3125 70.21875 
L 18.3125 54.6875 
L 36.8125 54.6875 
L 36.8125 47.703125 
L 18.3125 47.703125 
L 18.3125 18.015625 
Q 18.3125 11.328125 20.140625 9.421875 
Q 21.96875 7.515625 27.59375 7.515625 
L 36.8125 7.515625 
L 36.8125 0 
L 27.59375 0 
Q 17.1875 0 13.234375 3.875 
Q 9.28125 7.765625 9.28125 18.015625 
L 9.28125 47.703125 
L 2.6875 47.703125 
L 2.6875 54.6875 
L 9.28125 54.6875 
L 9.28125 70.21875 
z
" id="DejaVuSans-116"/>
       <path d="M 8.5 21.578125 
L 8.5 54.6875 
L 17.484375 54.6875 
L 17.484375 21.921875 
Q 17.484375 14.15625 20.5 10.265625 
Q 23.53125 6.390625 29.59375 6.390625 
Q 36.859375 6.390625 41.078125 11.03125 
Q 45.3125 15.671875 45.3125 23.6875 
L 45.3125 54.6875 
L 54.296875 54.6875 
L 54.296875 0 
L 45.3125 0 
L 45.3125 8.40625 
Q 42.046875 3.421875 37.71875 1 
Q 33.40625 -1.421875 27.6875 -1.421875 
Q 18.265625 -1.421875 13.375 4.4375 
Q 8.5 10.296875 8.5 21.578125 
z
M 31.109375 56 
z
" id="DejaVuSans-117"/>
       <path d="M 11.71875 12.40625 
L 22.015625 12.40625 
L 22.015625 4 
L 14.015625 -11.625 
L 7.71875 -11.625 
L 11.71875 4 
z
" id="DejaVuSans-44"/>
       <path d="M 18.109375 8.203125 
L 18.109375 -20.796875 
L 9.078125 -20.796875 
L 9.078125 54.6875 
L 18.109375 54.6875 
L 18.109375 46.390625 
Q 20.953125 51.265625 25.265625 53.625 
Q 29.59375 56 35.59375 56 
Q 45.5625 56 51.78125 48.09375 
Q 58.015625 40.1875 58.015625 27.296875 
Q 58.015625 14.40625 51.78125 6.484375 
Q 45.5625 -1.421875 35.59375 -1.421875 
Q 29.59375 -1.421875 25.265625 0.953125 
Q 20.953125 3.328125 18.109375 8.203125 
z
M 48.6875 27.296875 
Q 48.6875 37.203125 44.609375 42.84375 
Q 40.53125 48.484375 33.40625 48.484375 
Q 26.265625 48.484375 22.1875 42.84375 
Q 18.109375 37.203125 18.109375 27.296875 
Q 18.109375 17.390625 22.1875 11.75 
Q 26.265625 6.109375 33.40625 6.109375 
Q 40.53125 6.109375 44.609375 11.75 
Q 48.6875 17.390625 48.6875 27.296875 
z
" id="DejaVuSans-112"/>
      </defs>
      <use xlink:href="#DejaVuSans-70"/>
      <use x="50.269531" xlink:href="#DejaVuSans-114"/>
      <use x="91.382812" xlink:href="#DejaVuSans-97"/>
      <use x="152.662109" xlink:href="#DejaVuSans-99"/>
      <use x="207.642578" xlink:href="#DejaVuSans-116"/>
      <use x="246.851562" xlink:href="#DejaVuSans-105"/>
      <use x="274.634766" xlink:href="#DejaVuSans-111"/>
      <use x="335.816406" xlink:href="#DejaVuSans-110"/>
      <use x="399.195312" xlink:href="#DejaVuSans-32"/>
      <use x="430.982422" xlink:href="#DejaVuSans-111"/>
      <use x="492.164062" xlink:href="#DejaVuSans-102"/>
      <use x="527.369141" xlink:href="#DejaVuSans-32"/>
      <use x="559.15625" xlink:href="#DejaVuSans-102"/>
      <use x="594.361328" xlink:href="#DejaVuSans-117"/>
      <use x="657.740234" xlink:href="#DejaVuSans-110"/>
      <use x="721.119141" xlink:href="#DejaVuSans-99"/>
      <use x="776.099609" xlink:href="#DejaVuSans-116"/>
      <use x="815.308594" xlink:href="#DejaVuSans-105"/>
      <use x="843.091797" xlink:href="#DejaVuSans-111"/>
      <use x="904.273438" xlink:href="#DejaVuSans-110"/>
      <use x="967.652344" xlink:href="#DejaVuSans-44"/>
      <use x="999.439453" xlink:href="#DejaVuSans-116"/>
      <use x="1038.648438" xlink:href="#DejaVuSans-97"/>
      <use x="1099.927734" xlink:href="#DejaVuSans-114"/>
      <use x="1139.291016" xlink:href="#DejaVuSans-103"/>
      <use x="1202.767578" xlink:href="#DejaVuSans-101"/>
      <use x="1264.291016" xlink:href="#DejaVuSans-116"/>
      <use x="1303.5" xlink:href="#DejaVuSans-32"/>
      <use x="1335.287109" xlink:href="#DejaVuSans-112"/>
      <use x="1398.763672" xlink:href="#DejaVuSans-97"/>
      <use x="1460.042969" xlink:href="#DejaVuSans-105"/>
      <use x="1487.826172" xlink:href="#DejaVuSans-114"/>
      <use x="1528.939453" xlink:href="#DejaVuSans-115"/>
     </g>
    </g>
   </g>
   <g id="line2d_33">
    <defs>
     <path d="M 0 1.5 
C 0.397805 1.5 0.77937 1.341951 1.06066 1.06066 
C 1.341951 0.77937 1.5 0.397805 1.5 0 
C 1.5 -0.397805 1.341951 -0.77937 1.06066 -1.06066 
C 0.77937 -1.341951 0.397805 -1.5 0 -1.5 
C -0.397805 -1.5 -0.77937 -1.341951 -1.06066 -1.06066 
C -1.341951 -0.77937 -1.5 -0.397805 -1.5 0 
C -1.5 0.397805 -1.341951 0.77937 -1.06066 1.06066 
C -0.77937 1.341951 -0.397805 1.5 0 1.5 
z
" id="mb6f9c2bfd2" style="stroke:#f5deb3;"/>
    </defs>
    <g>
     <use style="fill:#f5deb3;stroke:#f5deb3;" x="135.035562" xlink:href="#mb6f9c2bfd2" y="30.334099"/>
     <use style="fill:#f5deb3;stroke:#f5deb3;" x="135.035562" xlink:href="#mb6f9c2bfd2" y="30.334099"/>
    </g>
   </g>
   <g id="line2d_34">
    <defs>
     <path d="M 0 1.5 
C 0.397805 1.5 0.77937 1.341951 1.06066 1.06066 
C 1.341951 0.77937 1.5 0.397805 1.5 0 
C 1.5 -0.397805 1.341951 -0.77937 1.06066 -1.06066 
C 0.77937 -1.341951 0.397805 -1.5 0 -1.5 
C -0.397805 -1.5 -0.77937 -1.341951 -1.06066 -1.06066 
C -1.341951 -0.77937 -1.5 -0.397805 -1.5 0 
C -1.5 0.397805 -1.341951 0.77937 -1.06066 1.06066 
C -0.77937 1.341951 -0.397805 1.5 0 1.5 
z
" id="m6409532a09" style="stroke:#000080;"/>
    </defs>
    <g>
     <use style="fill:#000080;stroke:#000080;" x="177.08712" xlink:href="#m6409532a09" y="30.334099"/>
     <use style="fill:#000080;stroke:#000080;" x="177.08712" xlink:href="#m6409532a09" y="30.334099"/>
    </g>
   </g>
   <g id="line2d_35">
    <path d="M 105.285403 298.944 
L 105.285403 298.417314 
L 108.577836 298.417314 
L 108.577836 297.890628 
L 110.016944 297.890628 
L 110.016944 297.363942 
L 111.023335 297.363942 
L 111.023335 296.31057 
L 111.346294 296.31057 
L 111.346294 295.783884 
L 112.877038 295.783884 
L 112.877038 294.730511 
L 113.73488 294.730511 
L 113.73488 293.150453 
L 114.418861 293.150453 
L 114.418861 292.623767 
L 114.816733 292.623767 
L 114.816733 291.570395 
L 116.202531 291.570395 
L 116.202531 291.043709 
L 116.323218 291.043709 
L 116.323218 290.517023 
L 116.680349 290.517023 
L 116.680349 289.990337 
L 116.914437 289.990337 
L 116.914437 286.83022 
L 117.145424 286.83022 
L 117.145424 285.776848 
L 117.373392 285.776848 
L 117.373392 285.250162 
L 117.930605 285.250162 
L 117.930605 284.723476 
L 118.576578 284.723476 
L 118.576578 284.19679 
L 119.40226 284.19679 
L 119.40226 283.670104 
L 119.996839 283.670104 
L 119.996839 283.143418 
L 120.759333 283.143418 
L 120.759333 282.616732 
L 121.036887 282.616732 
L 121.128432 281.036673 
L 121.667835 281.036673 
L 121.756135 279.983301 
L 122.362027 279.983301 
L 122.362027 279.456615 
L 122.782271 279.456615 
L 122.782271 278.403243 
L 123.593547 278.403243 
L 123.672636 275.243126 
L 124.216444 275.243126 
L 124.216444 274.71644 
L 124.368753 274.71644 
L 124.368753 273.663068 
L 124.594752 273.663068 
L 124.594752 273.136382 
L 124.817858 273.136382 
L 124.817858 272.609696 
L 125.038147 272.609696 
L 125.038147 272.08301 
L 125.682793 272.08301 
L 125.682793 271.029638 
L 126.168212 271.029638 
L 126.168212 269.976266 
L 126.304457 269.976266 
L 126.304457 269.449579 
L 126.50685 269.449579 
L 126.573795 268.396207 
L 127.035353 268.396207 
L 127.035353 267.869521 
L 127.985095 267.869521 
L 128.046609 265.762777 
L 128.290519 265.762777 
L 128.350967 264.709405 
L 128.709321 264.709405 
L 128.709321 263.656033 
L 130.505303 263.656033 
L 130.558552 262.60266 
L 130.978796 262.60266 
L 130.978796 262.075974 
L 131.439773 262.075974 
L 131.540579 261.022602 
L 131.888878 261.022602 
L 131.888878 260.495916 
L 132.036046 260.495916 
L 132.036046 259.96923 
L 134.911732 259.96923 
L 134.911732 259.442544 
L 135.199312 259.442544 
L 135.199312 258.915858 
L 137.735587 258.915858 
L 137.735587 258.389172 
L 138.256201 258.389172 
L 138.256201 257.862486 
L 139.667863 257.862486 
L 139.667863 257.3358 
L 140.226464 257.3358 
L 140.226464 256.809114 
L 140.499195 256.809114 
L 140.499195 256.282427 
L 141.46423 256.282427 
L 141.492656 255.229055 
L 142.106582 255.229055 
L 142.106582 254.175683 
L 142.51311 254.175683 
L 142.51311 253.648997 
L 142.805321 253.648997 
L 142.805321 253.122311 
L 143.170282 253.122311 
L 143.170282 252.595625 
L 143.60342 252.595625 
L 143.60342 252.068939 
L 144.026061 252.068939 
L 144.026061 251.542253 
L 144.294175 251.542253 
L 144.294175 250.488881 
L 144.888619 250.488881 
L 144.888619 249.435508 
L 145.02832 249.435508 
L 145.02832 248.908822 
L 145.166911 248.908822 
L 145.166911 248.382136 
L 146.08557 248.382136 
L 146.08557 247.85545 
L 146.580487 247.85545 
L 146.580487 247.328764 
L 146.875005 247.328764 
L 146.875005 246.802078 
L 147.348313 246.802078 
L 147.348313 246.275392 
L 147.570215 246.275392 
L 147.570215 245.748706 
L 147.809113 245.748706 
L 147.907696 244.695334 
L 147.96658 244.695334 
L 147.96658 244.168648 
L 148.582601 244.168648 
L 148.582601 243.641962 
L 148.714503 243.641962 
L 148.714503 243.115275 
L 149.104327 243.115275 
L 149.195872 241.535217 
L 149.467659 241.535217 
L 149.467659 241.008531 
L 149.805951 241.008531 
L 149.805951 240.481845 
L 150.395406 240.481845 
L 150.395406 239.955159 
L 150.581924 239.955159 
L 150.581924 239.428473 
L 150.749772 239.428473 
L 150.749772 238.901787 
L 150.982078 238.901787 
L 150.982078 238.375101 
L 151.113448 238.375101 
L 151.113448 237.848415 
L 151.260066 237.848415 
L 151.308666 236.795043 
L 151.755852 236.795043 
L 151.755852 236.268356 
L 152.176471 236.268356 
L 152.207228 235.214984 
L 152.496747 235.214984 
L 152.526944 233.10824 
L 152.840905 233.10824 
L 152.840905 232.581554 
L 153.395042 232.581554 
L 153.48095 229.948123 
L 153.637357 229.948123 
L 153.707991 228.894751 
L 153.764292 228.894751 
L 153.764292 228.368065 
L 153.890309 228.368065 
L 153.973817 227.314693 
L 154.056927 227.314693 
L 154.056927 226.788007 
L 154.180855 226.788007 
L 154.249325 224.681263 
L 154.77436 224.681263 
L 154.77436 224.154577 
L 154.906477 224.154577 
L 154.93278 222.047832 
L 155.076745 222.047832 
L 155.167744 220.99446 
L 155.193657 220.99446 
L 155.193657 219.941088 
L 155.501643 219.941088 
L 155.527065 218.36103 
L 156.027868 218.36103 
L 156.027868 217.834344 
L 156.199806 217.834344 
L 156.30945 214.674227 
L 156.418408 214.674227 
L 156.502685 213.620855 
L 156.835778 213.620855 
L 156.882847 211.514111 
L 157.011638 211.514111 
L 157.046598 209.407366 
L 157.185742 209.407366 
L 157.243392 208.353994 
L 157.460743 208.353994 
L 157.56276 207.300622 
L 157.77619 207.300622 
L 157.854169 205.193878 
L 157.887482 205.193878 
L 157.976006 203.613819 
L 158.075062 203.613819 
L 158.118907 200.453703 
L 158.249784 200.453703 
L 158.304027 196.240214 
L 158.379686 196.240214 
L 158.422772 195.186842 
L 158.51933 195.186842 
L 158.572743 192.553412 
L 158.742573 192.553412 
L 158.83738 191.50004 
L 158.879352 191.50004 
L 158.983842 188.339923 
L 158.994256 188.339923 
L 158.994256 187.813237 
L 159.129083 187.813237 
L 159.232092 183.599748 
L 159.324282 183.599748 
L 159.324282 183.073062 
L 159.587904 183.073062 
L 159.698248 181.493004 
L 159.768105 181.493004 
L 159.867418 177.279515 
L 159.887213 177.279515 
L 159.897102 175.699457 
L 160.074152 175.699457 
L 160.162007 168.852538 
L 160.365299 168.852538 
L 160.461277 166.219108 
L 160.594766 166.219108 
L 160.594766 164.63905 
L 160.755498 164.63905 
L 160.830627 162.005619 
L 160.914762 162.005619 
L 160.961329 159.372189 
L 161.035578 159.372189 
L 161.100288 157.79213 
L 161.155563 157.79213 
L 161.247301 154.632014 
L 161.302112 154.632014 
L 161.411222 150.945211 
L 161.447441 150.945211 
L 161.510643 148.838467 
L 161.618459 148.838467 
L 161.725614 141.991548 
L 161.840959 141.991548 
L 161.840959 140.41149 
L 162.060656 140.41149 
L 162.139074 137.251373 
L 162.173813 137.251373 
L 162.260361 133.037885 
L 162.29486 133.037885 
L 162.38081 130.93114 
L 162.432178 130.93114 
L 162.508946 127.244338 
L 162.585379 127.244338 
L 162.68677 122.504163 
L 162.762429 122.504163 
L 162.829407 118.817361 
L 162.90445 118.817361 
L 163.004009 110.917069 
L 163.086542 110.917069 
L 163.127663 109.863697 
L 163.356164 109.863697 
L 163.461244 106.703581 
L 163.517565 106.703581 
L 163.613694 104.07015 
L 163.66156 104.07015 
L 163.725178 101.43672 
L 163.788565 101.43672 
L 163.875347 95.116487 
L 163.938192 95.116487 
L 164.01643 91.429684 
L 164.063205 91.429684 
L 164.164122 88.796254 
L 164.264459 88.796254 
L 164.310575 87.216196 
L 164.394804 87.216196 
L 164.486229 83.002707 
L 164.599841 83.002707 
L 164.675172 80.895963 
L 164.757663 80.895963 
L 164.802494 79.842591 
L 165.00282 79.842591 
L 165.047026 77.20916 
L 165.127781 77.20916 
L 165.193576 76.155788 
L 165.309935 76.155788 
L 165.367825 75.102416 
L 165.447111 75.102416 
L 165.511714 74.049044 
L 165.76776 74.049044 
L 165.873346 72.468985 
L 165.943384 72.468985 
L 165.943384 71.942299 
L 166.138005 71.942299 
L 166.138005 71.415613 
L 166.405516 71.415613 
L 166.439517 70.362241 
L 166.842445 70.362241 
L 166.842445 69.835555 
L 166.954935 69.835555 
L 167.06015 65.622066 
L 167.384913 65.622066 
L 167.429901 64.568694 
L 167.615054 64.568694 
L 167.615054 63.515322 
L 167.785687 63.515322 
L 167.892273 62.46195 
L 168.01684 62.46195 
L 168.01684 61.935264 
L 168.373132 61.935264 
L 168.458054 60.881892 
L 168.518461 60.881892 
L 168.518461 60.355206 
L 168.68052 60.355206 
L 168.77585 59.301833 
L 168.858837 59.301833 
L 168.858837 58.775147 
L 168.994323 58.775147 
L 168.994323 58.248461 
L 169.325624 58.248461 
L 169.325624 57.721775 
L 169.554414 57.721775 
L 169.554414 57.195089 
L 170.321466 57.195089 
L 170.321466 56.668403 
L 170.719297 56.668403 
L 170.719297 56.141717 
L 170.97258 56.141717 
L 170.97258 55.615031 
L 171.284097 55.615031 
L 171.284097 55.088345 
L 172.034451 55.088345 
L 172.034451 54.561659 
L 172.240256 54.561659 
L 172.240256 54.034973 
L 172.395445 54.034973 
L 172.395445 53.508287 
L 172.678005 53.508287 
L 172.678005 52.9816 
L 172.937347 52.9816 
L 173.040014 51.928228 
L 173.063263 51.928228 
L 173.063263 51.401542 
L 173.31698 51.401542 
L 173.339863 50.34817 
L 173.449287 50.34817 
L 173.449287 49.821484 
L 173.630147 49.821484 
L 173.733298 48.241426 
L 173.981928 48.241426 
L 173.981928 47.188054 
L 174.292142 47.188054 
L 174.37854 45.607995 
L 174.451642 45.607995 
L 174.468799 44.554623 
L 174.660652 44.554623 
L 174.757901 41.394507 
L 174.850417 41.394507 
L 174.854611 40.341135 
L 175.083722 40.341135 
L 175.137439 39.287762 
L 175.293514 39.287762 
L 175.375102 37.707704 
L 175.72962 37.707704 
L 175.72962 37.181018 
L 175.919999 37.181018 
L 175.979068 35.60096 
L 176.139511 35.60096 
L 176.221122 34.547588 
L 176.34475 34.547588 
L 176.34475 34.020902 
L 176.539989 34.020902 
L 176.539989 32.967529 
L 176.74812 32.967529 
L 176.845652 31.914157 
L 176.927754 31.914157 
L 176.950079 30.860785 
L 177.08712 30.860785 
L 177.08712 30.334099 
L 338.688 30.334099 
L 338.688 30.334099 
" style="fill:none;stroke:#000080;stroke-linecap:square;stroke-width:1.5;"/>
   </g>
   <g id="line2d_36">
    <defs>
     <path d="M 0 6 
C 1.591219 6 3.117479 5.367802 4.242641 4.242641 
C 5.367802 3.117479 6 1.591219 6 0 
C 6 -1.591219 5.367802 -3.117479 4.242641 -4.242641 
C 3.117479 -5.367802 1.591219 -6 0 -6 
C -1.591219 -6 -3.117479 -5.367802 -4.242641 -4.242641 
C -5.367802 -3.117479 -6 -1.591219 -6 0 
C -6 1.591219 -5.367802 3.117479 -4.242641 4.242641 
C -3.117479 5.367802 -1.591219 6 0 6 
z
" id="m5886836846" style="stroke:#000080;stroke-width:1.5;"/>
    </defs>
    <g>
     <use style="fill-opacity:0;stroke:#000080;stroke-width:1.5;" x="160.793103" xlink:href="#m5886836846" y="164.112363"/>
     <use style="fill-opacity:0;stroke:#000080;stroke-width:1.5;" x="177.08712" xlink:href="#m5886836846" y="30.860785"/>
     <use style="fill-opacity:0;stroke:#000080;stroke-width:1.5;" x="177.08712" xlink:href="#m5886836846" y="30.334099"/>
     <use style="fill-opacity:0;stroke:#000080;stroke-width:1.5;" x="177.08712" xlink:href="#m5886836846" y="30.334099"/>
     <use style="fill-opacity:0;stroke:#000080;stroke-width:1.5;" x="338.688" xlink:href="#m5886836846" y="30.334099"/>
    </g>
   </g>
   <g id="line2d_37">
    <path style="fill:none;stroke:#000080;stroke-linecap:square;stroke-width:1.5;"/>
    <g/>
   </g>
   <g id="line2d_38">
    <defs>
     <path d="M 0 1.5 
C 0.397805 1.5 0.77937 1.341951 1.06066 1.06066 
C 1.341951 0.77937 1.5 0.397805 1.5 0 
C 1.5 -0.397805 1.341951 -0.77937 1.06066 -1.06066 
C 0.77937 -1.341951 0.397805 -1.5 0 -1.5 
C -0.397805 -1.5 -0.77937 -1.341951 -1.06066 -1.06066 
C -1.341951 -0.77937 -1.5 -0.397805 -1.5 0 
C -1.5 0.397805 -1.341951 0.77937 -1.06066 1.06066 
C -0.77937 1.341951 -0.397805 1.5 0 1.5 
z
" id="ma4e4697508" style="stroke:#ff00ff;"/>
    </defs>
    <g>
     <use style="fill:#ff00ff;stroke:#ff00ff;" x="218.090778" xlink:href="#ma4e4697508" y="30.334099"/>
     <use style="fill:#ff00ff;stroke:#ff00ff;" x="218.090778" xlink:href="#ma4e4697508" y="30.334099"/>
    </g>
   </g>
   <g id="line2d_39">
    <path d="M 119.199476 298.944 
L 119.199476 297.890628 
L 120.665825 297.890628 
L 120.665825 297.363942 
L 122.018385 297.363942 
L 122.018385 296.837256 
L 127.357715 296.837256 
L 127.357715 296.31057 
L 127.674226 296.31057 
L 127.674226 295.783884 
L 129.175952 295.783884 
L 129.175952 294.730511 
L 130.45189 294.730511 
L 130.558552 290.517023 
L 130.664567 290.517023 
L 130.664567 289.463651 
L 132.517825 289.463651 
L 132.517825 288.936964 
L 133.262014 288.936964 
L 133.262014 286.83022 
L 134.019394 286.83022 
L 134.019394 286.303534 
L 134.321942 286.303534 
L 134.321942 285.776848 
L 134.61933 285.776848 
L 134.61933 285.250162 
L 135.117629 285.250162 
L 135.117629 284.723476 
L 135.721125 284.723476 
L 135.721125 284.19679 
L 136.112156 284.19679 
L 136.150782 282.616732 
L 136.227776 282.616732 
L 136.227776 282.090045 
L 136.418789 282.090045 
L 136.418789 281.563359 
L 137.162581 281.563359 
L 137.162581 281.036673 
L 137.980475 281.036673 
L 137.980475 280.509987 
L 138.118883 280.509987 
L 138.118883 279.983301 
L 138.794909 279.983301 
L 138.828032 278.403243 
L 138.99271 278.403243 
L 138.99271 277.876557 
L 139.9494 277.876557 
L 139.9494 277.349871 
L 141.119455 277.349871 
L 141.119455 276.296499 
L 141.407239 276.296499 
L 141.492656 275.243126 
L 141.913576 275.243126 
L 141.913576 274.71644 
L 142.324576 274.71644 
L 142.324576 274.189754 
L 142.619936 274.189754 
L 142.673105 273.136382 
L 143.349938 273.136382 
L 143.349938 272.609696 
L 143.628567 272.609696 
L 143.628567 271.029638 
L 143.828447 271.029638 
L 143.853271 268.922893 
L 144.438701 268.922893 
L 144.438701 268.396207 
L 145.418169 268.396207 
L 145.418169 267.869521 
L 145.665858 267.869521 
L 145.665858 266.816149 
L 146.129168 266.816149 
L 146.129168 266.289463 
L 146.916676 266.289463 
L 146.916676 265.762777 
L 148.1808 265.762777 
L 148.1808 265.236091 
L 149.030744 265.236091 
L 149.030744 264.709405 
L 149.268764 264.709405 
L 149.341352 263.656033 
L 149.431665 263.656033 
L 149.431665 263.129347 
L 149.735275 263.129347 
L 149.735275 262.60266 
L 150.480434 262.60266 
L 150.51433 261.022602 
L 150.649257 261.022602 
L 150.649257 260.495916 
L 152.496747 260.495916 
L 152.496747 259.442544 
L 152.929579 259.442544 
L 153.032466 258.389172 
L 153.207444 258.389172 
L 153.207444 257.862486 
L 153.651507 257.862486 
L 153.651507 256.809114 
L 154.721232 256.809114 
L 154.721232 256.282427 
L 154.93278 256.282427 
L 154.93278 255.755741 
L 155.565128 255.755741 
L 155.666226 254.702369 
L 155.879132 254.702369 
L 155.879132 254.175683 
L 156.297301 254.175683 
L 156.297301 253.648997 
L 156.729404 253.648997 
L 156.729404 253.122311 
L 157.9318 253.122311 
L 157.9318 252.068939 
L 158.868869 252.068939 
L 158.868869 251.542253 
L 159.004665 251.542253 
L 159.004665 251.015567 
L 159.273126 251.015567 
L 159.273126 250.488881 
L 159.748174 250.488881 
L 159.748174 249.962195 
L 160.499521 249.962195 
L 160.499521 249.435508 
L 161.778945 249.435508 
L 161.88512 247.85545 
L 161.893939 247.85545 
L 161.893939 247.328764 
L 162.946002 247.328764 
L 162.946002 246.802078 
L 163.185069 246.802078 
L 163.185069 245.22202 
L 163.573705 245.22202 
L 163.58171 244.168648 
L 163.796472 244.168648 
L 163.796472 243.641962 
L 164.318249 243.641962 
L 164.318249 243.115275 
L 164.802494 243.115275 
L 164.802494 242.588589 
L 165.09112 242.588589 
L 165.09112 242.061903 
L 166.047915 242.061903 
L 166.047915 241.535217 
L 167.001045 241.535217 
L 167.001045 241.008531 
L 167.532297 241.008531 
L 167.532297 240.481845 
L 167.697419 240.481845 
L 167.697419 239.428473 
L 168.269454 239.428473 
L 168.269454 238.901787 
L 168.722291 238.901787 
L 168.722291 238.375101 
L 168.870661 238.375101 
L 168.870661 237.848415 
L 169.486092 237.848415 
L 169.486092 237.321729 
L 169.73531 237.321729 
L 169.802665 236.268356 
L 170.206895 236.268356 
L 170.206895 235.74167 
L 170.745853 235.74167 
L 170.745853 235.214984 
L 171.003983 235.214984 
L 171.003983 234.688298 
L 171.856094 234.688298 
L 171.880975 233.634926 
L 173.880241 233.634926 
L 173.880241 233.10824 
L 174.091789 233.10824 
L 174.091789 232.581554 
L 174.934099 232.581554 
L 174.934099 232.054868 
L 175.153934 232.054868 
L 175.248478 231.001496 
L 175.541172 231.001496 
L 175.641664 229.421437 
L 175.653684 229.421437 
L 175.653684 228.894751 
L 175.939711 228.894751 
L 175.939711 228.368065 
L 176.158977 228.368065 
L 176.158977 227.841379 
L 177.039093 227.841379 
L 177.127655 226.788007 
L 177.996389 226.788007 
L 177.996389 226.261321 
L 178.156735 226.261321 
L 178.156735 225.734635 
L 178.75362 225.734635 
L 178.75362 225.207949 
L 178.877244 225.207949 
L 178.877244 224.681263 
L 179.187431 224.681263 
L 179.187431 223.627891 
L 179.414889 223.627891 
L 179.414889 223.101204 
L 179.527515 223.101204 
L 179.527515 222.574518 
L 180.070661 222.574518 
L 180.070661 222.047832 
L 180.280813 222.047832 
L 180.372728 220.99446 
L 180.612478 220.99446 
L 180.666647 219.941088 
L 181.117483 219.941088 
L 181.208016 217.834344 
L 181.32125 217.834344 
L 181.416491 216.254285 
L 181.465353 216.254285 
L 181.465353 215.727599 
L 181.667955 215.727599 
L 181.667955 215.200913 
L 181.823298 215.200913 
L 181.823298 214.674227 
L 182.379521 214.674227 
L 182.382244 213.620855 
L 182.585296 213.620855 
L 182.676574 211.514111 
L 182.73805 211.514111 
L 182.73805 210.987425 
L 183.107652 210.987425 
L 183.17804 209.934052 
L 183.650303 209.934052 
L 183.685718 208.88068 
L 184.043395 208.88068 
L 184.137221 207.300622 
L 184.534056 207.300622 
L 184.618101 204.667192 
L 184.727947 204.667192 
L 184.803956 203.087133 
L 184.846566 203.087133 
L 184.929122 202.033761 
L 185.165186 202.033761 
L 185.271651 200.980389 
L 185.402679 200.980389 
L 185.489487 199.400331 
L 185.57133 199.400331 
L 185.57133 198.873645 
L 185.731624 198.873645 
L 185.731624 198.346959 
L 185.888232 198.346959 
L 185.997027 197.293586 
L 186.00809 197.293586 
L 186.107347 196.240214 
L 186.881693 196.240214 
L 186.96774 194.660156 
L 187.140645 194.660156 
L 187.140645 194.13347 
L 187.379458 194.13347 
L 187.379458 193.606784 
L 187.779682 193.606784 
L 187.78168 192.553412 
L 188.025729 192.553412 
L 188.125927 190.973354 
L 188.221656 190.973354 
L 188.324612 187.813237 
L 188.399985 187.813237 
L 188.399985 187.286551 
L 188.522973 187.286551 
L 188.522973 186.233179 
L 188.84927 186.233179 
L 188.84927 185.706493 
L 189.082631 185.706493 
L 189.128931 184.126434 
L 189.307419 184.126434 
L 189.407819 182.546376 
L 189.812627 182.546376 
L 189.901323 181.493004 
L 189.984287 181.493004 
L 190.082626 180.439632 
L 190.114118 180.439632 
L 190.215205 178.859574 
L 190.268995 178.859574 
L 190.313982 176.752829 
L 190.44825 176.752829 
L 190.544014 175.172771 
L 190.703588 175.172771 
L 190.703588 174.646085 
L 190.966897 174.646085 
L 191.059863 172.539341 
L 191.130912 172.539341 
L 191.130912 171.485969 
L 191.337452 171.485969 
L 191.337452 170.432596 
L 191.543184 170.432596 
L 191.543184 169.90591 
L 191.730593 169.90591 
L 191.83543 167.799166 
L 191.865493 167.799166 
L 191.944361 166.745794 
L 192.066688 166.745794 
L 192.066688 166.219108 
L 192.288748 166.219108 
L 192.385689 164.63905 
L 192.41482 164.63905 
L 192.41482 163.585677 
L 192.53238 163.585677 
L 192.593138 162.005619 
L 192.673319 162.005619 
L 192.71553 160.425561 
L 192.819117 160.425561 
L 192.841555 158.845503 
L 193.018544 158.845503 
L 193.124765 156.212072 
L 193.2084 156.212072 
L 193.312018 155.1587 
L 193.403449 155.1587 
L 193.413578 154.105328 
L 193.553341 154.105328 
L 193.563384 152.52527 
L 193.683448 152.52527 
L 193.775791 149.891839 
L 193.825313 149.891839 
L 193.932363 147.785095 
L 193.959023 147.785095 
L 193.959023 147.258409 
L 194.194382 147.258409 
L 194.300573 143.04492 
L 194.348628 143.04492 
L 194.43616 141.991548 
L 194.474317 141.991548 
L 194.536823 140.41149 
L 194.900588 140.41149 
L 194.93907 136.198001 
L 195.072431 136.198001 
L 195.072431 135.671315 
L 195.185189 135.671315 
L 195.185189 135.144629 
L 195.444629 135.144629 
L 195.551174 131.984513 
L 195.578028 131.984513 
L 195.679953 130.93114 
L 195.772443 130.93114 
L 195.836769 129.351082 
L 195.923422 129.351082 
L 195.948459 127.771024 
L 196.097928 127.771024 
L 196.097928 127.244338 
L 196.443005 127.244338 
L 196.525494 125.137593 
L 196.907344 125.137593 
L 196.969984 123.557535 
L 197.051198 123.557535 
L 197.051198 123.030849 
L 197.182224 123.030849 
L 197.274056 120.924105 
L 197.432171 120.924105 
L 197.511266 119.344047 
L 197.705752 119.344047 
L 197.783619 117.237302 
L 197.842072 117.237302 
L 197.915981 114.603872 
L 197.99403 114.603872 
L 197.99403 114.077186 
L 198.173327 114.077186 
L 198.273241 110.917069 
L 198.292936 110.917069 
L 198.393256 108.283639 
L 198.473532 108.283639 
L 198.484351 106.703581 
L 198.657632 106.703581 
L 198.659773 105.650209 
L 198.865226 105.650209 
L 198.865226 104.596836 
L 198.99491 104.596836 
L 199.075606 102.490092 
L 199.163215 102.490092 
L 199.163215 101.963406 
L 199.334032 101.963406 
L 199.440845 100.383348 
L 199.499111 100.383348 
L 199.499111 99.856662 
L 199.640386 99.856662 
L 199.665675 96.696545 
L 199.783539 96.696545 
L 199.891634 95.116487 
L 199.918553 95.116487 
L 199.930504 94.063115 
L 200.042641 94.063115 
L 200.066366 92.483056 
L 200.172727 92.483056 
L 200.278444 89.849626 
L 200.305747 89.849626 
L 200.305747 88.796254 
L 200.43486 88.796254 
L 200.43486 88.269568 
L 200.665452 88.269568 
L 200.685485 87.216196 
L 200.815612 87.216196 
L 200.91375 82.476021 
L 200.979495 82.476021 
L 201.021629 80.895963 
L 201.096283 80.895963 
L 201.096283 79.842591 
L 201.210445 79.842591 
L 201.210445 77.735846 
L 201.348662 77.735846 
L 201.348662 77.20916 
L 201.503996 77.20916 
L 201.581147 73.522358 
L 201.711975 73.522358 
L 201.711975 72.995672 
L 201.823975 72.995672 
L 201.888162 69.308869 
L 202.010531 69.308869 
L 202.050249 67.202125 
L 202.24575 67.202125 
L 202.328374 65.622066 
L 202.546524 65.622066 
L 202.616648 64.568694 
L 202.664375 64.568694 
L 202.746738 61.935264 
L 202.805935 61.935264 
L 202.805935 60.881892 
L 202.955564 60.881892 
L 202.955564 60.355206 
L 203.07568 60.355206 
L 203.186716 59.301833 
L 203.204054 59.301833 
L 203.204054 58.248461 
L 203.463692 58.248461 
L 203.463692 57.721775 
L 203.576332 57.721775 
L 203.676207 54.034973 
L 203.687447 54.034973 
L 203.753138 52.454914 
L 203.852007 52.454914 
L 203.874255 51.401542 
L 203.984283 51.401542 
L 203.984283 50.874856 
L 204.13513 50.874856 
L 204.136695 49.821484 
L 204.259071 49.821484 
L 204.330384 48.768112 
L 204.376737 48.768112 
L 204.419118 47.71474 
L 205.036844 47.71474 
L 205.090988 46.661368 
L 205.367965 46.661368 
L 205.440702 45.607995 
L 205.496503 45.607995 
L 205.496503 45.081309 
L 208.914633 45.081309 
L 208.914633 44.554623 
L 209.030225 44.554623 
L 209.030225 44.027937 
L 209.291761 44.027937 
L 209.291761 43.501251 
L 210.142543 43.501251 
L 210.142543 42.974565 
L 210.474176 42.974565 
L 210.474176 42.447879 
L 211.129056 42.447879 
L 211.129056 41.921193 
L 211.669565 41.921193 
L 211.669565 41.394507 
L 211.864498 41.394507 
L 211.864498 40.867821 
L 212.243525 40.867821 
L 212.243525 40.341135 
L 212.409806 40.341135 
L 212.409806 39.814448 
L 212.936217 39.814448 
L 212.936217 39.287762 
L 213.195442 39.287762 
L 213.287791 38.23439 
L 213.821972 38.23439 
L 213.821972 37.707704 
L 214.110886 37.707704 
L 214.110886 37.181018 
L 214.222668 37.181018 
L 214.222668 36.654332 
L 214.568838 36.654332 
L 214.568838 36.127646 
L 214.888857 36.127646 
L 214.958808 35.074274 
L 215.797894 35.074274 
L 215.797894 34.547588 
L 216.403282 34.547588 
L 216.403282 34.020902 
L 216.546314 34.020902 
L 216.546314 32.440843 
L 216.892637 32.440843 
L 216.892637 31.387471 
L 217.336739 31.387471 
L 217.336739 30.860785 
L 218.090778 30.860785 
L 218.090778 30.334099 
L 338.688 30.334099 
L 338.688 30.334099 
" style="fill:none;stroke:#ff00ff;stroke-linecap:square;stroke-width:1.5;"/>
   </g>
   <g id="line2d_40">
    <defs>
     <path d="M -0 8.485281 
L 5.091169 0 
L 0 -8.485281 
L -5.091169 -0 
z
" id="m7de9eb4490" style="stroke:#ff00ff;stroke-linejoin:miter;stroke-width:1.5;"/>
    </defs>
    <g>
     <use style="fill-opacity:0;stroke:#ff00ff;stroke-linejoin:miter;stroke-width:1.5;" x="194.900588" xlink:href="#m7de9eb4490" y="139.884804"/>
     <use style="fill-opacity:0;stroke:#ff00ff;stroke-linejoin:miter;stroke-width:1.5;" x="218.090778" xlink:href="#m7de9eb4490" y="30.860785"/>
     <use style="fill-opacity:0;stroke:#ff00ff;stroke-linejoin:miter;stroke-width:1.5;" x="218.090778" xlink:href="#m7de9eb4490" y="30.334099"/>
     <use style="fill-opacity:0;stroke:#ff00ff;stroke-linejoin:miter;stroke-width:1.5;" x="218.090778" xlink:href="#m7de9eb4490" y="30.334099"/>
     <use style="fill-opacity:0;stroke:#ff00ff;stroke-linejoin:miter;stroke-width:1.5;" x="338.688" xlink:href="#m7de9eb4490" y="30.334099"/>
    </g>
   </g>
   <g id="line2d_41">
    <path style="fill:none;stroke:#ff00ff;stroke-linecap:square;stroke-width:1.5;"/>
    <g/>
   </g>
   <g id="line2d_42">
    <path d="M 338.688 30.334099 
L 369.60768 293.571802 
" style="fill:none;stroke:#ff00ff;stroke-linecap:square;stroke-width:1.5;"/>
    <g>
     <use style="fill-opacity:0;stroke:#ff00ff;stroke-linejoin:miter;stroke-width:1.5;" x="338.688" xlink:href="#m7de9eb4490" y="30.334099"/>
     <use style="fill-opacity:0;stroke:#ff00ff;stroke-linejoin:miter;stroke-width:1.5;" x="369.60768" xlink:href="#m7de9eb4490" y="293.571802"/>
    </g>
   </g>
   <g id="line2d_43">
    <path d="M 338.688 30.334099 
L 369.60768 164.63905 
" style="fill:none;stroke:#000080;stroke-linecap:square;stroke-width:1.5;"/>
    <g>
     <use style="fill-opacity:0;stroke:#000080;stroke-width:1.5;" x="338.688" xlink:href="#m5886836846" y="30.334099"/>
     <use style="fill-opacity:0;stroke:#000080;stroke-width:1.5;" x="369.60768" xlink:href="#m5886836846" y="164.63905"/>
    </g>
   </g>
   <g id="line2d_44">
    <path d="M 338.688 298.944 
L 338.688 30.334099 
" style="fill:none;stroke:#000000;stroke-linecap:square;stroke-width:1.5;"/>
   </g>
   <g id="patch_3">
    <path d="M 57.6 298.944 
L 57.6 27.648 
" style="fill:none;stroke:#000000;stroke-linecap:square;stroke-linejoin:miter;stroke-width:0.8;"/>
   </g>
   <g id="patch_4">
    <path d="M 338.688 298.944 
L 338.688 27.648 
" style="fill:none;stroke:#000000;stroke-linecap:square;stroke-linejoin:miter;stroke-width:0.8;"/>
   </g>
   <g id="patch_5">
    <path d="M 57.6 298.944 
L 338.688 298.944 
" style="fill:none;stroke:#000000;stroke-linecap:square;stroke-linejoin:miter;stroke-width:0.8;"/>
   </g>
   <g id="patch_6">
    <path d="M 57.6 27.648 
L 338.688 27.648 
" style="fill:none;stroke:#000000;stroke-linecap:square;stroke-linejoin:miter;stroke-width:0.8;"/>
   </g>
   <g id="text_13">
    <!-- DE -->
    <g transform="translate(375.22944 298.262739)scale(0.17 -0.17)">
     <defs>
      <path d="M 19.671875 64.796875 
L 19.671875 8.109375 
L 31.59375 8.109375 
Q 46.6875 8.109375 53.6875 14.9375 
Q 60.6875 21.78125 60.6875 36.53125 
Q 60.6875 51.171875 53.6875 57.984375 
Q 46.6875 64.796875 31.59375 64.796875 
z
M 9.8125 72.90625 
L 30.078125 72.90625 
Q 51.265625 72.90625 61.171875 64.09375 
Q 71.09375 55.28125 71.09375 36.53125 
Q 71.09375 17.671875 61.125 8.828125 
Q 51.171875 0 30.078125 0 
L 9.8125 0 
z
" id="DejaVuSans-68"/>
      <path d="M 9.8125 72.90625 
L 55.90625 72.90625 
L 55.90625 64.59375 
L 19.671875 64.59375 
L 19.671875 43.015625 
L 54.390625 43.015625 
L 54.390625 34.71875 
L 19.671875 34.71875 
L 19.671875 8.296875 
L 56.78125 8.296875 
L 56.78125 0 
L 9.8125 0 
z
" id="DejaVuSans-69"/>
     </defs>
     <use xlink:href="#DejaVuSans-68"/>
     <use x="77.001953" xlink:href="#DejaVuSans-69"/>
    </g>
   </g>
   <g id="text_14">
    <!-- BIPOP-CMA -->
    <g transform="translate(375.22944 169.329987)scale(0.17 -0.17)">
     <defs>
      <path d="M 19.671875 34.8125 
L 19.671875 8.109375 
L 35.5 8.109375 
Q 43.453125 8.109375 47.28125 11.40625 
Q 51.125 14.703125 51.125 21.484375 
Q 51.125 28.328125 47.28125 31.5625 
Q 43.453125 34.8125 35.5 34.8125 
z
M 19.671875 64.796875 
L 19.671875 42.828125 
L 34.28125 42.828125 
Q 41.5 42.828125 45.03125 45.53125 
Q 48.578125 48.25 48.578125 53.8125 
Q 48.578125 59.328125 45.03125 62.0625 
Q 41.5 64.796875 34.28125 64.796875 
z
M 9.8125 72.90625 
L 35.015625 72.90625 
Q 46.296875 72.90625 52.390625 68.21875 
Q 58.5 63.53125 58.5 54.890625 
Q 58.5 48.1875 55.375 44.234375 
Q 52.25 40.28125 46.1875 39.3125 
Q 53.46875 37.75 57.5 32.78125 
Q 61.53125 27.828125 61.53125 20.40625 
Q 61.53125 10.640625 54.890625 5.3125 
Q 48.25 0 35.984375 0 
L 9.8125 0 
z
" id="DejaVuSans-66"/>
      <path d="M 9.8125 72.90625 
L 19.671875 72.90625 
L 19.671875 0 
L 9.8125 0 
z
" id="DejaVuSans-73"/>
      <path d="M 19.671875 64.796875 
L 19.671875 37.40625 
L 32.078125 37.40625 
Q 38.96875 37.40625 42.71875 40.96875 
Q 46.484375 44.53125 46.484375 51.125 
Q 46.484375 57.671875 42.71875 61.234375 
Q 38.96875 64.796875 32.078125 64.796875 
z
M 9.8125 72.90625 
L 32.078125 72.90625 
Q 44.34375 72.90625 50.609375 67.359375 
Q 56.890625 61.8125 56.890625 51.125 
Q 56.890625 40.328125 50.609375 34.8125 
Q 44.34375 29.296875 32.078125 29.296875 
L 19.671875 29.296875 
L 19.671875 0 
L 9.8125 0 
z
" id="DejaVuSans-80"/>
      <path d="M 39.40625 66.21875 
Q 28.65625 66.21875 22.328125 58.203125 
Q 16.015625 50.203125 16.015625 36.375 
Q 16.015625 22.609375 22.328125 14.59375 
Q 28.65625 6.59375 39.40625 6.59375 
Q 50.140625 6.59375 56.421875 14.59375 
Q 62.703125 22.609375 62.703125 36.375 
Q 62.703125 50.203125 56.421875 58.203125 
Q 50.140625 66.21875 39.40625 66.21875 
z
M 39.40625 74.21875 
Q 54.734375 74.21875 63.90625 63.9375 
Q 73.09375 53.65625 73.09375 36.375 
Q 73.09375 19.140625 63.90625 8.859375 
Q 54.734375 -1.421875 39.40625 -1.421875 
Q 24.03125 -1.421875 14.8125 8.828125 
Q 5.609375 19.09375 5.609375 36.375 
Q 5.609375 53.65625 14.8125 63.9375 
Q 24.03125 74.21875 39.40625 74.21875 
z
" id="DejaVuSans-79"/>
      <path d="M 64.40625 67.28125 
L 64.40625 56.890625 
Q 59.421875 61.53125 53.78125 63.8125 
Q 48.140625 66.109375 41.796875 66.109375 
Q 29.296875 66.109375 22.65625 58.46875 
Q 16.015625 50.828125 16.015625 36.375 
Q 16.015625 21.96875 22.65625 14.328125 
Q 29.296875 6.6875 41.796875 6.6875 
Q 48.140625 6.6875 53.78125 8.984375 
Q 59.421875 11.28125 64.40625 15.921875 
L 64.40625 5.609375 
Q 59.234375 2.09375 53.4375 0.328125 
Q 47.65625 -1.421875 41.21875 -1.421875 
Q 24.65625 -1.421875 15.125 8.703125 
Q 5.609375 18.84375 5.609375 36.375 
Q 5.609375 53.953125 15.125 64.078125 
Q 24.65625 74.21875 41.21875 74.21875 
Q 47.75 74.21875 53.53125 72.484375 
Q 59.328125 70.75 64.40625 67.28125 
z
" id="DejaVuSans-67"/>
      <path d="M 9.8125 72.90625 
L 24.515625 72.90625 
L 43.109375 23.296875 
L 61.8125 72.90625 
L 76.515625 72.90625 
L 76.515625 0 
L 66.890625 0 
L 66.890625 64.015625 
L 48.09375 14.015625 
L 38.1875 14.015625 
L 19.390625 64.015625 
L 19.390625 0 
L 9.8125 0 
z
" id="DejaVuSans-77"/>
      <path d="M 34.1875 63.1875 
L 20.796875 26.90625 
L 47.609375 26.90625 
z
M 28.609375 72.90625 
L 39.796875 72.90625 
L 67.578125 0 
L 57.328125 0 
L 50.6875 18.703125 
L 17.828125 18.703125 
L 11.1875 0 
L 0.78125 0 
z
" id="DejaVuSans-65"/>
     </defs>
     <use xlink:href="#DejaVuSans-66"/>
     <use x="68.603516" xlink:href="#DejaVuSans-73"/>
     <use x="98.095703" xlink:href="#DejaVuSans-80"/>
     <use x="158.398438" xlink:href="#DejaVuSans-79"/>
     <use x="237.109375" xlink:href="#DejaVuSans-80"/>
     <use x="295.162109" xlink:href="#DejaVuSans-45"/>
     <use x="331.246094" xlink:href="#DejaVuSans-67"/>
     <use x="401.070312" xlink:href="#DejaVuSans-77"/>
     <use x="487.349609" xlink:href="#DejaVuSans-65"/>
    </g>
   </g>
   <g id="text_15">
    <!-- best 2009 -->
    <g transform="translate(375.22944 40.397235)scale(0.17 -0.17)">
     <defs>
      <path d="M 48.6875 27.296875 
Q 48.6875 37.203125 44.609375 42.84375 
Q 40.53125 48.484375 33.40625 48.484375 
Q 26.265625 48.484375 22.1875 42.84375 
Q 18.109375 37.203125 18.109375 27.296875 
Q 18.109375 17.390625 22.1875 11.75 
Q 26.265625 6.109375 33.40625 6.109375 
Q 40.53125 6.109375 44.609375 11.75 
Q 48.6875 17.390625 48.6875 27.296875 
z
M 18.109375 46.390625 
Q 20.953125 51.265625 25.265625 53.625 
Q 29.59375 56 35.59375 56 
Q 45.5625 56 51.78125 48.09375 
Q 58.015625 40.1875 58.015625 27.296875 
Q 58.015625 14.40625 51.78125 6.484375 
Q 45.5625 -1.421875 35.59375 -1.421875 
Q 29.59375 -1.421875 25.265625 0.953125 
Q 20.953125 3.328125 18.109375 8.203125 
L 18.109375 0 
L 9.078125 0 
L 9.078125 75.984375 
L 18.109375 75.984375 
z
" id="DejaVuSans-98"/>
      <path d="M 10.984375 1.515625 
L 10.984375 10.5 
Q 14.703125 8.734375 18.5 7.8125 
Q 22.3125 6.890625 25.984375 6.890625 
Q 35.75 6.890625 40.890625 13.453125 
Q 46.046875 20.015625 46.78125 33.40625 
Q 43.953125 29.203125 39.59375 26.953125 
Q 35.25 24.703125 29.984375 24.703125 
Q 19.046875 24.703125 12.671875 31.3125 
Q 6.296875 37.9375 6.296875 49.421875 
Q 6.296875 60.640625 12.9375 67.421875 
Q 19.578125 74.21875 30.609375 74.21875 
Q 43.265625 74.21875 49.921875 64.515625 
Q 56.59375 54.828125 56.59375 36.375 
Q 56.59375 19.140625 48.40625 8.859375 
Q 40.234375 -1.421875 26.421875 -1.421875 
Q 22.703125 -1.421875 18.890625 -0.6875 
Q 15.09375 0.046875 10.984375 1.515625 
z
M 30.609375 32.421875 
Q 37.25 32.421875 41.125 36.953125 
Q 45.015625 41.5 45.015625 49.421875 
Q 45.015625 57.28125 41.125 61.84375 
Q 37.25 66.40625 30.609375 66.40625 
Q 23.96875 66.40625 20.09375 61.84375 
Q 16.21875 57.28125 16.21875 49.421875 
Q 16.21875 41.5 20.09375 36.953125 
Q 23.96875 32.421875 30.609375 32.421875 
z
" id="DejaVuSans-57"/>
     </defs>
     <use xlink:href="#DejaVuSans-98"/>
     <use x="63.476562" xlink:href="#DejaVuSans-101"/>
     <use x="125" xlink:href="#DejaVuSans-115"/>
     <use x="177.099609" xlink:href="#DejaVuSans-116"/>
     <use x="216.308594" xlink:href="#DejaVuSans-32"/>
     <use x="248.095703" xlink:href="#DejaVuSans-50"/>
     <use x="311.71875" xlink:href="#DejaVuSans-48"/>
     <use x="375.341797" xlink:href="#DejaVuSans-48"/>
     <use x="438.964844" xlink:href="#DejaVuSans-57"/>
    </g>
   </g>
   <g id="text_16">
    <!-- bbob f8, 5-D -->
    <g transform="translate(60.41088 38.111366)scale(0.102 -0.102)">
     <defs>
      <path d="M 10.796875 72.90625 
L 49.515625 72.90625 
L 49.515625 64.59375 
L 19.828125 64.59375 
L 19.828125 46.734375 
Q 21.96875 47.46875 24.109375 47.828125 
Q 26.265625 48.1875 28.421875 48.1875 
Q 40.625 48.1875 47.75 41.5 
Q 54.890625 34.8125 54.890625 23.390625 
Q 54.890625 11.625 47.5625 5.09375 
Q 40.234375 -1.421875 26.90625 -1.421875 
Q 22.3125 -1.421875 17.546875 -0.640625 
Q 12.796875 0.140625 7.71875 1.703125 
L 7.71875 11.625 
Q 12.109375 9.234375 16.796875 8.0625 
Q 21.484375 6.890625 26.703125 6.890625 
Q 35.15625 6.890625 40.078125 11.328125 
Q 45.015625 15.765625 45.015625 23.390625 
Q 45.015625 31 40.078125 35.4375 
Q 35.15625 39.890625 26.703125 39.890625 
Q 22.75 39.890625 18.8125 39.015625 
Q 14.890625 38.140625 10.796875 36.28125 
z
" id="DejaVuSans-53"/>
     </defs>
     <use xlink:href="#DejaVuSans-98"/>
     <use x="63.476562" xlink:href="#DejaVuSans-98"/>
     <use x="126.953125" xlink:href="#DejaVuSans-111"/>
     <use x="188.134766" xlink:href="#DejaVuSans-98"/>
     <use x="251.611328" xlink:href="#DejaVuSans-32"/>
     <use x="283.398438" xlink:href="#DejaVuSans-102"/>
     <use x="318.603516" xlink:href="#DejaVuSans-56"/>
     <use x="382.226562" xlink:href="#DejaVuSans-44"/>
     <use x="414.013672" xlink:href="#DejaVuSans-32"/>
     <use x="445.800781" xlink:href="#DejaVuSans-53"/>
     <use x="509.423828" xlink:href="#DejaVuSans-45"/>
     <use x="545.507812" xlink:href="#DejaVuSans-68"/>
    </g>
    <!-- 51 targets: 100..1e-08 -->
    <g transform="translate(60.41088 49.533135)scale(0.102 -0.102)">
     <defs>
      <path d="M 11.71875 12.40625 
L 22.015625 12.40625 
L 22.015625 0 
L 11.71875 0 
z
M 11.71875 51.703125 
L 22.015625 51.703125 
L 22.015625 39.3125 
L 11.71875 39.3125 
z
" id="DejaVuSans-58"/>
     </defs>
     <use xlink:href="#DejaVuSans-53"/>
     <use x="63.623047" xlink:href="#DejaVuSans-49"/>
     <use x="127.246094" xlink:href="#DejaVuSans-32"/>
     <use x="159.033203" xlink:href="#DejaVuSans-116"/>
     <use x="198.242188" xlink:href="#DejaVuSans-97"/>
     <use x="259.521484" xlink:href="#DejaVuSans-114"/>
     <use x="298.884766" xlink:href="#DejaVuSans-103"/>
     <use x="362.361328" xlink:href="#DejaVuSans-101"/>
     <use x="423.884766" xlink:href="#DejaVuSans-116"/>
     <use x="463.09375" xlink:href="#DejaVuSans-115"/>
     <use x="515.193359" xlink:href="#DejaVuSans-58"/>
     <use x="548.884766" xlink:href="#DejaVuSans-32"/>
     <use x="580.671875" xlink:href="#DejaVuSans-49"/>
     <use x="644.294922" xlink:href="#DejaVuSans-48"/>
     <use x="707.917969" xlink:href="#DejaVuSans-48"/>
     <use x="771.541016" xlink:href="#DejaVuSans-46"/>
     <use x="803.328125" xlink:href="#DejaVuSans-46"/>
     <use x="835.115234" xlink:href="#DejaVuSans-49"/>
     <use x="898.738281" xlink:href="#DejaVuSans-101"/>
     <use x="960.261719" xlink:href="#DejaVuSans-45"/>
     <use x="996.345703" xlink:href="#DejaVuSans-48"/>
     <use x="1059.96875" xlink:href="#DejaVuSans-56"/>
    </g>
    <!-- 15 instances -->
    <g transform="translate(60.41088 60.954904)scale(0.102 -0.102)">
     <use xlink:href="#DejaVuSans-49"/>
     <use x="63.623047" xlink:href="#DejaVuSans-53"/>
     <use x="127.246094" xlink:href="#DejaVuSans-32"/>
     <use x="159.033203" xlink:href="#DejaVuSans-105"/>
     <use x="186.816406" xlink:href="#DejaVuSans-110"/>
     <use x="250.195312" xlink:href="#DejaVuSans-115"/>
     <use x="302.294922" xlink:href="#DejaVuSans-116"/>
     <use x="341.503906" xlink:href="#DejaVuSans-97"/>
     <use x="402.783203" xlink:href="#DejaVuSans-110"/>
     <use x="466.162109" xlink:href="#DejaVuSans-99"/>
     <use x="521.142578" xlink:href="#DejaVuSans-101"/>
     <use x="582.666016" xlink:href="#DejaVuSans-115"/>
    </g>
   </g>
   <g id="text_17">
    <!-- v2.4 -->
    <g style="fill:#808080;" transform="translate(187.233062 294.151352)scale(0.1 -0.1)">
     <use xlink:href="#DejaVuSans-118"/>
     <use x="59.179688" xlink:href="#DejaVuSans-50"/>
     <use x="122.802734" xlink:href="#DejaVuSans-46"/>
     <use x="154.589844" xlink:href="#DejaVuSans-52"/>
    </g>
   </g>
   <g id="text_18">
    <!-- 8 Rosenbrock original -->
    <g transform="translate(90.08775 21.648)scale(0.2 -0.2)">
     <defs>
      <path d="M 44.390625 34.1875 
Q 47.5625 33.109375 50.5625 29.59375 
Q 53.5625 26.078125 56.59375 19.921875 
L 66.609375 0 
L 56 0 
L 46.6875 18.703125 
Q 43.0625 26.03125 39.671875 28.421875 
Q 36.28125 30.8125 30.421875 30.8125 
L 19.671875 30.8125 
L 19.671875 0 
L 9.8125 0 
L 9.8125 72.90625 
L 32.078125 72.90625 
Q 44.578125 72.90625 50.734375 67.671875 
Q 56.890625 62.453125 56.890625 51.90625 
Q 56.890625 45.015625 53.6875 40.46875 
Q 50.484375 35.9375 44.390625 34.1875 
z
M 19.671875 64.796875 
L 19.671875 38.921875 
L 32.078125 38.921875 
Q 39.203125 38.921875 42.84375 42.21875 
Q 46.484375 45.515625 46.484375 51.90625 
Q 46.484375 58.296875 42.84375 61.546875 
Q 39.203125 64.796875 32.078125 64.796875 
z
" id="DejaVuSans-82"/>
      <path d="M 9.078125 75.984375 
L 18.109375 75.984375 
L 18.109375 31.109375 
L 44.921875 54.6875 
L 56.390625 54.6875 
L 27.390625 29.109375 
L 57.625 0 
L 45.90625 0 
L 18.109375 26.703125 
L 18.109375 0 
L 9.078125 0 
z
" id="DejaVuSans-107"/>
     </defs>
     <use xlink:href="#DejaVuSans-56"/>
     <use x="63.623047" xlink:href="#DejaVuSans-32"/>
     <use x="95.410156" xlink:href="#DejaVuSans-82"/>
     <use x="160.392578" xlink:href="#DejaVuSans-111"/>
     <use x="221.574219" xlink:href="#DejaVuSans-115"/>
     <use x="273.673828" xlink:href="#DejaVuSans-101"/>
     <use x="335.197266" xlink:href="#DejaVuSans-110"/>
     <use x="398.576172" xlink:href="#DejaVuSans-98"/>
     <use x="462.052734" xlink:href="#DejaVuSans-114"/>
     <use x="500.916016" xlink:href="#DejaVuSans-111"/>
     <use x="562.097656" xlink:href="#DejaVuSans-99"/>
     <use x="617.078125" xlink:href="#DejaVuSans-107"/>
     <use x="674.988281" xlink:href="#DejaVuSans-32"/>
     <use x="706.775391" xlink:href="#DejaVuSans-111"/>
     <use x="767.957031" xlink:href="#DejaVuSans-114"/>
     <use x="809.070312" xlink:href="#DejaVuSans-105"/>
     <use x="836.853516" xlink:href="#DejaVuSans-103"/>
     <use x="900.330078" xlink:href="#DejaVuSans-105"/>
     <use x="928.113281" xlink:href="#DejaVuSans-110"/>
     <use x="991.492188" xlink:href="#DejaVuSans-97"/>
     <use x="1052.771484" xlink:href="#DejaVuSans-108"/>
    </g>
   </g>
  </g>
 </g>
 <defs>
  <clipPath id="p501f4303ed">
   <rect height="271.296" width="281.088" x="57.6" y="27.648"/>
  </clipPath>
 </defs>
</svg>
