<?xml version="1.0" encoding="utf-8" standalone="no"?>
<!DOCTYPE svg PUBLIC "-//W3C//DTD SVG 1.1//EN"
  "http://www.w3.org/Graphics/SVG/1.1/DTD/svg11.dtd">
<!-- Created with matplotlib (https://matplotlib.org/) -->
<svg height="345.6pt" version="1.1" viewBox="0 0 460.8 345.6" width="460.8pt" xmlns="http://www.w3.org/2000/svg" xmlns:xlink="http://www.w3.org/1999/xlink">
 <metadata>
  <rdf:RDF xmlns:cc="http://creativecommons.org/ns#" xmlns:dc="http://purl.org/dc/elements/1.1/" xmlns:rdf="http://www.w3.org/1999/02/22-rdf-syntax-ns#">
   <cc:Work>
    <dc:type rdf:resource="http://purl.org/dc/dcmitype/StillImage"/>
    <dc:date>2021-05-02T04:47:13.318578</dc:date>
    <dc:format>image/svg+xml</dc:format>
    <dc:creator>
     <cc:Agent>
      <dc:title>Matplotlib v3.3.2, https://matplotlib.org/</dc:title>
     </cc:Agent>
    </dc:creator>
   </cc:Work>
  </rdf:RDF>
 </metadata>
 <defs>
  <style type="text/css">*{stroke-linecap:butt;stroke-linejoin:round;}</style>
 </defs>
 <g id="figure_1">
  <g id="patch_1">
   <path d="M 0 345.6 
L 460.8 345.6 
L 460.8 0 
L 0 0 
z
" style="fill:#ffffff;"/>
  </g>
  <g id="axes_1">
   <g id="patch_2">
    <path d="M 57.6 298.944 
L 338.688 298.944 
L 338.688 27.648 
L 57.6 27.648 
z
" style="fill:#ffffff;"/>
   </g>
   <g id="line2d_1">
    <path d="M 29.53256 298.944 
L 29.53256 293.677139 
L 48.691568 293.677139 
L 48.691568 288.410278 
L 63.467834 288.410278 
L 63.467834 283.143418 
L 81.775977 283.143418 
L 81.775977 277.876557 
L 100.343767 277.876557 
L 100.343767 272.609696 
L 110.358901 272.609696 
L 110.358901 267.342835 
L 116.443076 267.342835 
L 116.443076 262.075974 
L 121.400219 262.075974 
L 121.400219 256.809114 
L 125.255688 256.809114 
L 125.255688 251.542253 
L 130.018593 251.542253 
L 130.018593 246.275392 
L 133.032848 246.275392 
L 133.032848 241.008531 
L 136.189322 241.008531 
L 136.189322 235.74167 
L 138.828032 235.74167 
L 138.828032 230.47481 
L 160.708377 230.47481 
L 160.708377 225.207949 
L 173.412888 225.207949 
L 173.412888 219.941088 
L 174.034747 219.941088 
L 174.034747 214.674227 
L 180.339082 214.674227 
L 180.339082 209.407366 
L 183.423468 209.407366 
L 183.423468 204.140506 
L 185.655047 204.140506 
L 185.655047 198.873645 
L 186.373634 198.873645 
L 186.373634 193.606784 
L 187.219238 193.606784 
L 187.219238 188.339923 
L 187.412143 188.339923 
L 187.412143 183.073062 
L 187.665404 183.073062 
L 187.665404 177.806202 
L 187.805641 177.806202 
L 187.805641 172.539341 
L 188.536373 172.539341 
L 188.536373 167.27248 
L 188.851149 167.27248 
L 188.851149 162.005619 
L 189.554635 162.005619 
L 189.554635 156.738758 
L 189.702015 156.738758 
L 189.702015 151.471897 
L 190.463676 151.471897 
L 190.463676 146.205037 
L 190.610398 146.205037 
L 190.610398 140.938176 
L 190.801325 140.938176 
L 190.801325 135.671315 
L 190.93691 135.671315 
L 190.93691 130.404454 
L 191.094597 130.404454 
L 191.094597 125.137593 
L 191.288497 125.137593 
L 191.288497 119.870733 
L 191.456004 119.870733 
L 191.456004 114.603872 
L 191.665149 114.603872 
L 191.665149 109.337011 
L 191.81483 109.337011 
L 191.81483 104.07015 
L 191.980521 104.07015 
L 191.980521 98.803289 
L 192.088553 98.803289 
L 192.088553 93.536429 
L 193.112994 93.536429 
L 193.112994 88.269568 
L 193.196686 88.269568 
L 193.196686 83.002707 
L 193.332378 83.002707 
L 193.332378 77.735846 
L 193.571988 77.735846 
L 193.571988 72.468985 
L 193.726129 72.468985 
L 193.726129 67.202125 
L 193.87892 67.202125 
L 193.87892 61.935264 
L 194.002434 61.935264 
L 194.002434 56.668403 
L 194.097281 56.668403 
L 194.097281 51.401542 
L 194.187464 51.401542 
L 194.187464 46.134681 
L 194.288194 46.134681 
L 194.288194 40.867821 
L 194.373291 40.867821 
L 194.373291 35.60096 
L 194.463423 35.60096 
L 194.463423 30.334099 
L 338.688 30.334099 
" style="fill:none;stroke:#f5deb3;stroke-linecap:square;stroke-width:4;"/>
   </g>
   <g id="line2d_2">
    <defs>
     <path d="M -0 7.778175 
L 7.778175 0 
L 0 -7.778175 
L -7.778175 -0 
z
" id="mda07a1d52d" style="stroke:#f5deb3;stroke-linejoin:miter;stroke-width:1.5;"/>
    </defs>
    <g>
     <use style="fill:#f5deb3;stroke:#f5deb3;stroke-linejoin:miter;stroke-width:1.5;" x="133.032848" xlink:href="#mda07a1d52d" y="246.275392"/>
     <use style="fill:#f5deb3;stroke:#f5deb3;stroke-linejoin:miter;stroke-width:1.5;" x="190.610398" xlink:href="#mda07a1d52d" y="140.938176"/>
     <use style="fill:#f5deb3;stroke:#f5deb3;stroke-linejoin:miter;stroke-width:1.5;" x="194.463423" xlink:href="#mda07a1d52d" y="35.60096"/>
     <use style="fill:#f5deb3;stroke:#f5deb3;stroke-linejoin:miter;stroke-width:1.5;" x="194.463423" xlink:href="#mda07a1d52d" y="30.334099"/>
     <use style="fill:#f5deb3;stroke:#f5deb3;stroke-linejoin:miter;stroke-width:1.5;" x="194.463423" xlink:href="#mda07a1d52d" y="30.334099"/>
     <use style="fill:#f5deb3;stroke:#f5deb3;stroke-linejoin:miter;stroke-width:1.5;" x="338.688" xlink:href="#mda07a1d52d" y="30.334099"/>
    </g>
   </g>
   <g id="line2d_3">
    <path style="fill:none;stroke:#f5deb3;stroke-linecap:square;stroke-width:4;"/>
    <g/>
   </g>
   <g id="line2d_4">
    <path d="M 338.688 30.334099 
L 369.60768 35.706297 
" style="fill:none;stroke:#f5deb3;stroke-linecap:square;stroke-width:4;"/>
    <g>
     <use style="fill:#f5deb3;stroke:#f5deb3;stroke-linejoin:miter;stroke-width:1.5;" x="338.688" xlink:href="#mda07a1d52d" y="30.334099"/>
     <use style="fill:#f5deb3;stroke:#f5deb3;stroke-linejoin:miter;stroke-width:1.5;" x="369.60768" xlink:href="#mda07a1d52d" y="35.706297"/>
    </g>
   </g>
   <g id="matplotlib.axis_1">
    <g id="xtick_1">
     <g id="line2d_5">
      <path clip-path="url(#paef787ccbf)" d="M 57.6 298.944 
L 57.6 27.648 
" style="fill:none;stroke:#b0b0b0;stroke-linecap:square;stroke-width:0.8;"/>
     </g>
     <g id="line2d_6">
      <defs>
       <path d="M 0 0 
L 0 3.5 
" id="m93b196a649" style="stroke:#000000;stroke-width:0.8;"/>
      </defs>
      <g>
       <use style="stroke:#000000;stroke-width:0.8;" x="57.6" xlink:href="#m93b196a649" y="298.944"/>
      </g>
     </g>
     <g id="text_1">
      <!-- 0 -->
      <g transform="translate(51.2375 321.140875)scale(0.2 -0.2)">
       <defs>
        <path d="M 31.78125 66.40625 
Q 24.171875 66.40625 20.328125 58.90625 
Q 16.5 51.421875 16.5 36.375 
Q 16.5 21.390625 20.328125 13.890625 
Q 24.171875 6.390625 31.78125 6.390625 
Q 39.453125 6.390625 43.28125 13.890625 
Q 47.125 21.390625 47.125 36.375 
Q 47.125 51.421875 43.28125 58.90625 
Q 39.453125 66.40625 31.78125 66.40625 
z
M 31.78125 74.21875 
Q 44.046875 74.21875 50.515625 64.515625 
Q 56.984375 54.828125 56.984375 36.375 
Q 56.984375 17.96875 50.515625 8.265625 
Q 44.046875 -1.421875 31.78125 -1.421875 
Q 19.53125 -1.421875 13.0625 8.265625 
Q 6.59375 17.96875 6.59375 36.375 
Q 6.59375 54.828125 13.0625 64.515625 
Q 19.53125 74.21875 31.78125 74.21875 
z
" id="DejaVuSans-48"/>
       </defs>
       <use xlink:href="#DejaVuSans-48"/>
      </g>
     </g>
    </g>
    <g id="xtick_2">
     <g id="line2d_7">
      <path clip-path="url(#paef787ccbf)" d="M 137.910857 298.944 
L 137.910857 27.648 
" style="fill:none;stroke:#b0b0b0;stroke-linecap:square;stroke-width:0.8;"/>
     </g>
     <g id="line2d_8">
      <g>
       <use style="stroke:#000000;stroke-width:0.8;" x="137.910857" xlink:href="#m93b196a649" y="298.944"/>
      </g>
     </g>
     <g id="text_2">
      <!-- 2 -->
      <g transform="translate(131.548357 321.140875)scale(0.2 -0.2)">
       <defs>
        <path d="M 19.1875 8.296875 
L 53.609375 8.296875 
L 53.609375 0 
L 7.328125 0 
L 7.328125 8.296875 
Q 12.9375 14.109375 22.625 23.890625 
Q 32.328125 33.6875 34.8125 36.53125 
Q 39.546875 41.84375 41.421875 45.53125 
Q 43.3125 49.21875 43.3125 52.78125 
Q 43.3125 58.59375 39.234375 62.25 
Q 35.15625 65.921875 28.609375 65.921875 
Q 23.96875 65.921875 18.8125 64.3125 
Q 13.671875 62.703125 7.8125 59.421875 
L 7.8125 69.390625 
Q 13.765625 71.78125 18.9375 73 
Q 24.125 74.21875 28.421875 74.21875 
Q 39.75 74.21875 46.484375 68.546875 
Q 53.21875 62.890625 53.21875 53.421875 
Q 53.21875 48.921875 51.53125 44.890625 
Q 49.859375 40.875 45.40625 35.40625 
Q 44.1875 33.984375 37.640625 27.21875 
Q 31.109375 20.453125 19.1875 8.296875 
z
" id="DejaVuSans-50"/>
       </defs>
       <use xlink:href="#DejaVuSans-50"/>
      </g>
     </g>
    </g>
    <g id="xtick_3">
     <g id="line2d_9">
      <path clip-path="url(#paef787ccbf)" d="M 218.221714 298.944 
L 218.221714 27.648 
" style="fill:none;stroke:#b0b0b0;stroke-linecap:square;stroke-width:0.8;"/>
     </g>
     <g id="line2d_10">
      <g>
       <use style="stroke:#000000;stroke-width:0.8;" x="218.221714" xlink:href="#m93b196a649" y="298.944"/>
      </g>
     </g>
     <g id="text_3">
      <!-- 4 -->
      <g transform="translate(211.859214 321.140875)scale(0.2 -0.2)">
       <defs>
        <path d="M 37.796875 64.3125 
L 12.890625 25.390625 
L 37.796875 25.390625 
z
M 35.203125 72.90625 
L 47.609375 72.90625 
L 47.609375 25.390625 
L 58.015625 25.390625 
L 58.015625 17.1875 
L 47.609375 17.1875 
L 47.609375 0 
L 37.796875 0 
L 37.796875 17.1875 
L 4.890625 17.1875 
L 4.890625 26.703125 
z
" id="DejaVuSans-52"/>
       </defs>
       <use xlink:href="#DejaVuSans-52"/>
      </g>
     </g>
    </g>
    <g id="xtick_4">
     <g id="line2d_11">
      <path clip-path="url(#paef787ccbf)" d="M 298.532571 298.944 
L 298.532571 27.648 
" style="fill:none;stroke:#b0b0b0;stroke-linecap:square;stroke-width:0.8;"/>
     </g>
     <g id="line2d_12">
      <g>
       <use style="stroke:#000000;stroke-width:0.8;" x="298.532571" xlink:href="#m93b196a649" y="298.944"/>
      </g>
     </g>
     <g id="text_4">
      <!-- 6 -->
      <g transform="translate(292.170071 321.140875)scale(0.2 -0.2)">
       <defs>
        <path d="M 33.015625 40.375 
Q 26.375 40.375 22.484375 35.828125 
Q 18.609375 31.296875 18.609375 23.390625 
Q 18.609375 15.53125 22.484375 10.953125 
Q 26.375 6.390625 33.015625 6.390625 
Q 39.65625 6.390625 43.53125 10.953125 
Q 47.40625 15.53125 47.40625 23.390625 
Q 47.40625 31.296875 43.53125 35.828125 
Q 39.65625 40.375 33.015625 40.375 
z
M 52.59375 71.296875 
L 52.59375 62.3125 
Q 48.875 64.0625 45.09375 64.984375 
Q 41.3125 65.921875 37.59375 65.921875 
Q 27.828125 65.921875 22.671875 59.328125 
Q 17.53125 52.734375 16.796875 39.40625 
Q 19.671875 43.65625 24.015625 45.921875 
Q 28.375 48.1875 33.59375 48.1875 
Q 44.578125 48.1875 50.953125 41.515625 
Q 57.328125 34.859375 57.328125 23.390625 
Q 57.328125 12.15625 50.6875 5.359375 
Q 44.046875 -1.421875 33.015625 -1.421875 
Q 20.359375 -1.421875 13.671875 8.265625 
Q 6.984375 17.96875 6.984375 36.375 
Q 6.984375 53.65625 15.1875 63.9375 
Q 23.390625 74.21875 37.203125 74.21875 
Q 40.921875 74.21875 44.703125 73.484375 
Q 48.484375 72.75 52.59375 71.296875 
z
" id="DejaVuSans-54"/>
       </defs>
       <use xlink:href="#DejaVuSans-54"/>
      </g>
     </g>
    </g>
    <g id="xtick_5">
     <g id="line2d_13">
      <path clip-path="url(#paef787ccbf)" d="M 97.755429 298.944 
L 97.755429 27.648 
" style="fill:none;stroke:#b0b0b0;stroke-linecap:square;stroke-width:0.8;"/>
     </g>
     <g id="line2d_14">
      <defs>
       <path d="M 0 0 
L 0 2 
" id="mf2f45f3289" style="stroke:#000000;stroke-width:0.6;"/>
      </defs>
      <g>
       <use style="stroke:#000000;stroke-width:0.6;" x="97.755429" xlink:href="#mf2f45f3289" y="298.944"/>
      </g>
     </g>
    </g>
    <g id="xtick_6">
     <g id="line2d_15">
      <path clip-path="url(#paef787ccbf)" d="M 178.066286 298.944 
L 178.066286 27.648 
" style="fill:none;stroke:#b0b0b0;stroke-linecap:square;stroke-width:0.8;"/>
     </g>
     <g id="line2d_16">
      <g>
       <use style="stroke:#000000;stroke-width:0.6;" x="178.066286" xlink:href="#mf2f45f3289" y="298.944"/>
      </g>
     </g>
    </g>
    <g id="xtick_7">
     <g id="line2d_17">
      <path clip-path="url(#paef787ccbf)" d="M 258.377143 298.944 
L 258.377143 27.648 
" style="fill:none;stroke:#b0b0b0;stroke-linecap:square;stroke-width:0.8;"/>
     </g>
     <g id="line2d_18">
      <g>
       <use style="stroke:#000000;stroke-width:0.6;" x="258.377143" xlink:href="#mf2f45f3289" y="298.944"/>
      </g>
     </g>
    </g>
    <g id="xtick_8">
     <g id="line2d_19">
      <path clip-path="url(#paef787ccbf)" d="M 338.688 298.944 
L 338.688 27.648 
" style="fill:none;stroke:#b0b0b0;stroke-linecap:square;stroke-width:0.8;"/>
     </g>
     <g id="line2d_20">
      <g>
       <use style="stroke:#000000;stroke-width:0.6;" x="338.688" xlink:href="#mf2f45f3289" y="298.944"/>
      </g>
     </g>
    </g>
    <g id="text_5">
     <!-- log10(# f-evals / dimension) -->
     <g transform="translate(77.764078 342.217594)scale(0.17 -0.17)">
      <defs>
       <path d="M 9.421875 75.984375 
L 18.40625 75.984375 
L 18.40625 0 
L 9.421875 0 
z
" id="DejaVuSans-108"/>
       <path d="M 30.609375 48.390625 
Q 23.390625 48.390625 19.1875 42.75 
Q 14.984375 37.109375 14.984375 27.296875 
Q 14.984375 17.484375 19.15625 11.84375 
Q 23.34375 6.203125 30.609375 6.203125 
Q 37.796875 6.203125 41.984375 11.859375 
Q 46.1875 17.53125 46.1875 27.296875 
Q 46.1875 37.015625 41.984375 42.703125 
Q 37.796875 48.390625 30.609375 48.390625 
z
M 30.609375 56 
Q 42.328125 56 49.015625 48.375 
Q 55.71875 40.765625 55.71875 27.296875 
Q 55.71875 13.875 49.015625 6.21875 
Q 42.328125 -1.421875 30.609375 -1.421875 
Q 18.84375 -1.421875 12.171875 6.21875 
Q 5.515625 13.875 5.515625 27.296875 
Q 5.515625 40.765625 12.171875 48.375 
Q 18.84375 56 30.609375 56 
z
" id="DejaVuSans-111"/>
       <path d="M 45.40625 27.984375 
Q 45.40625 37.75 41.375 43.109375 
Q 37.359375 48.484375 30.078125 48.484375 
Q 22.859375 48.484375 18.828125 43.109375 
Q 14.796875 37.75 14.796875 27.984375 
Q 14.796875 18.265625 18.828125 12.890625 
Q 22.859375 7.515625 30.078125 7.515625 
Q 37.359375 7.515625 41.375 12.890625 
Q 45.40625 18.265625 45.40625 27.984375 
z
M 54.390625 6.78125 
Q 54.390625 -7.171875 48.1875 -13.984375 
Q 42 -20.796875 29.203125 -20.796875 
Q 24.46875 -20.796875 20.265625 -20.09375 
Q 16.0625 -19.390625 12.109375 -17.921875 
L 12.109375 -9.1875 
Q 16.0625 -11.328125 19.921875 -12.34375 
Q 23.78125 -13.375 27.78125 -13.375 
Q 36.625 -13.375 41.015625 -8.765625 
Q 45.40625 -4.15625 45.40625 5.171875 
L 45.40625 9.625 
Q 42.625 4.78125 38.28125 2.390625 
Q 33.9375 0 27.875 0 
Q 17.828125 0 11.671875 7.65625 
Q 5.515625 15.328125 5.515625 27.984375 
Q 5.515625 40.671875 11.671875 48.328125 
Q 17.828125 56 27.875 56 
Q 33.9375 56 38.28125 53.609375 
Q 42.625 51.21875 45.40625 46.390625 
L 45.40625 54.6875 
L 54.390625 54.6875 
z
" id="DejaVuSans-103"/>
       <path d="M 12.40625 8.296875 
L 28.515625 8.296875 
L 28.515625 63.921875 
L 10.984375 60.40625 
L 10.984375 69.390625 
L 28.421875 72.90625 
L 38.28125 72.90625 
L 38.28125 8.296875 
L 54.390625 8.296875 
L 54.390625 0 
L 12.40625 0 
z
" id="DejaVuSans-49"/>
       <path d="M 31 75.875 
Q 24.46875 64.65625 21.28125 53.65625 
Q 18.109375 42.671875 18.109375 31.390625 
Q 18.109375 20.125 21.3125 9.0625 
Q 24.515625 -2 31 -13.1875 
L 23.1875 -13.1875 
Q 15.875 -1.703125 12.234375 9.375 
Q 8.59375 20.453125 8.59375 31.390625 
Q 8.59375 42.28125 12.203125 53.3125 
Q 15.828125 64.359375 23.1875 75.875 
z
" id="DejaVuSans-40"/>
       <path d="M 51.125 44 
L 36.921875 44 
L 32.8125 27.6875 
L 47.125 27.6875 
z
M 43.796875 71.78125 
L 38.71875 51.515625 
L 52.984375 51.515625 
L 58.109375 71.78125 
L 65.921875 71.78125 
L 60.890625 51.515625 
L 76.125 51.515625 
L 76.125 44 
L 58.984375 44 
L 54.984375 27.6875 
L 70.515625 27.6875 
L 70.515625 20.21875 
L 53.078125 20.21875 
L 48 0 
L 40.1875 0 
L 45.21875 20.21875 
L 30.90625 20.21875 
L 25.875 0 
L 18.015625 0 
L 23.09375 20.21875 
L 7.71875 20.21875 
L 7.71875 27.6875 
L 24.90625 27.6875 
L 29 44 
L 13.28125 44 
L 13.28125 51.515625 
L 30.90625 51.515625 
L 35.890625 71.78125 
z
" id="DejaVuSans-35"/>
       <path id="DejaVuSans-32"/>
       <path d="M 37.109375 75.984375 
L 37.109375 68.5 
L 28.515625 68.5 
Q 23.6875 68.5 21.796875 66.546875 
Q 19.921875 64.59375 19.921875 59.515625 
L 19.921875 54.6875 
L 34.71875 54.6875 
L 34.71875 47.703125 
L 19.921875 47.703125 
L 19.921875 0 
L 10.890625 0 
L 10.890625 47.703125 
L 2.296875 47.703125 
L 2.296875 54.6875 
L 10.890625 54.6875 
L 10.890625 58.5 
Q 10.890625 67.625 15.140625 71.796875 
Q 19.390625 75.984375 28.609375 75.984375 
z
" id="DejaVuSans-102"/>
       <path d="M 4.890625 31.390625 
L 31.203125 31.390625 
L 31.203125 23.390625 
L 4.890625 23.390625 
z
" id="DejaVuSans-45"/>
       <path d="M 56.203125 29.59375 
L 56.203125 25.203125 
L 14.890625 25.203125 
Q 15.484375 15.921875 20.484375 11.0625 
Q 25.484375 6.203125 34.421875 6.203125 
Q 39.59375 6.203125 44.453125 7.46875 
Q 49.3125 8.734375 54.109375 11.28125 
L 54.109375 2.78125 
Q 49.265625 0.734375 44.1875 -0.34375 
Q 39.109375 -1.421875 33.890625 -1.421875 
Q 20.796875 -1.421875 13.15625 6.1875 
Q 5.515625 13.8125 5.515625 26.8125 
Q 5.515625 40.234375 12.765625 48.109375 
Q 20.015625 56 32.328125 56 
Q 43.359375 56 49.78125 48.890625 
Q 56.203125 41.796875 56.203125 29.59375 
z
M 47.21875 32.234375 
Q 47.125 39.59375 43.09375 43.984375 
Q 39.0625 48.390625 32.421875 48.390625 
Q 24.90625 48.390625 20.390625 44.140625 
Q 15.875 39.890625 15.1875 32.171875 
z
" id="DejaVuSans-101"/>
       <path d="M 2.984375 54.6875 
L 12.5 54.6875 
L 29.59375 8.796875 
L 46.6875 54.6875 
L 56.203125 54.6875 
L 35.6875 0 
L 23.484375 0 
z
" id="DejaVuSans-118"/>
       <path d="M 34.28125 27.484375 
Q 23.390625 27.484375 19.1875 25 
Q 14.984375 22.515625 14.984375 16.5 
Q 14.984375 11.71875 18.140625 8.90625 
Q 21.296875 6.109375 26.703125 6.109375 
Q 34.1875 6.109375 38.703125 11.40625 
Q 43.21875 16.703125 43.21875 25.484375 
L 43.21875 27.484375 
z
M 52.203125 31.203125 
L 52.203125 0 
L 43.21875 0 
L 43.21875 8.296875 
Q 40.140625 3.328125 35.546875 0.953125 
Q 30.953125 -1.421875 24.3125 -1.421875 
Q 15.921875 -1.421875 10.953125 3.296875 
Q 6 8.015625 6 15.921875 
Q 6 25.140625 12.171875 29.828125 
Q 18.359375 34.515625 30.609375 34.515625 
L 43.21875 34.515625 
L 43.21875 35.40625 
Q 43.21875 41.609375 39.140625 45 
Q 35.0625 48.390625 27.6875 48.390625 
Q 23 48.390625 18.546875 47.265625 
Q 14.109375 46.140625 10.015625 43.890625 
L 10.015625 52.203125 
Q 14.9375 54.109375 19.578125 55.046875 
Q 24.21875 56 28.609375 56 
Q 40.484375 56 46.34375 49.84375 
Q 52.203125 43.703125 52.203125 31.203125 
z
" id="DejaVuSans-97"/>
       <path d="M 44.28125 53.078125 
L 44.28125 44.578125 
Q 40.484375 46.53125 36.375 47.5 
Q 32.28125 48.484375 27.875 48.484375 
Q 21.1875 48.484375 17.84375 46.4375 
Q 14.5 44.390625 14.5 40.28125 
Q 14.5 37.15625 16.890625 35.375 
Q 19.28125 33.59375 26.515625 31.984375 
L 29.59375 31.296875 
Q 39.15625 29.25 43.1875 25.515625 
Q 47.21875 21.78125 47.21875 15.09375 
Q 47.21875 7.46875 41.1875 3.015625 
Q 35.15625 -1.421875 24.609375 -1.421875 
Q 20.21875 -1.421875 15.453125 -0.5625 
Q 10.6875 0.296875 5.421875 2 
L 5.421875 11.28125 
Q 10.40625 8.6875 15.234375 7.390625 
Q 20.0625 6.109375 24.8125 6.109375 
Q 31.15625 6.109375 34.5625 8.28125 
Q 37.984375 10.453125 37.984375 14.40625 
Q 37.984375 18.0625 35.515625 20.015625 
Q 33.0625 21.96875 24.703125 23.78125 
L 21.578125 24.515625 
Q 13.234375 26.265625 9.515625 29.90625 
Q 5.8125 33.546875 5.8125 39.890625 
Q 5.8125 47.609375 11.28125 51.796875 
Q 16.75 56 26.8125 56 
Q 31.78125 56 36.171875 55.265625 
Q 40.578125 54.546875 44.28125 53.078125 
z
" id="DejaVuSans-115"/>
       <path d="M 25.390625 72.90625 
L 33.6875 72.90625 
L 8.296875 -9.28125 
L 0 -9.28125 
z
" id="DejaVuSans-47"/>
       <path d="M 45.40625 46.390625 
L 45.40625 75.984375 
L 54.390625 75.984375 
L 54.390625 0 
L 45.40625 0 
L 45.40625 8.203125 
Q 42.578125 3.328125 38.25 0.953125 
Q 33.9375 -1.421875 27.875 -1.421875 
Q 17.96875 -1.421875 11.734375 6.484375 
Q 5.515625 14.40625 5.515625 27.296875 
Q 5.515625 40.1875 11.734375 48.09375 
Q 17.96875 56 27.875 56 
Q 33.9375 56 38.25 53.625 
Q 42.578125 51.265625 45.40625 46.390625 
z
M 14.796875 27.296875 
Q 14.796875 17.390625 18.875 11.75 
Q 22.953125 6.109375 30.078125 6.109375 
Q 37.203125 6.109375 41.296875 11.75 
Q 45.40625 17.390625 45.40625 27.296875 
Q 45.40625 37.203125 41.296875 42.84375 
Q 37.203125 48.484375 30.078125 48.484375 
Q 22.953125 48.484375 18.875 42.84375 
Q 14.796875 37.203125 14.796875 27.296875 
z
" id="DejaVuSans-100"/>
       <path d="M 9.421875 54.6875 
L 18.40625 54.6875 
L 18.40625 0 
L 9.421875 0 
z
M 9.421875 75.984375 
L 18.40625 75.984375 
L 18.40625 64.59375 
L 9.421875 64.59375 
z
" id="DejaVuSans-105"/>
       <path d="M 52 44.1875 
Q 55.375 50.25 60.0625 53.125 
Q 64.75 56 71.09375 56 
Q 79.640625 56 84.28125 50.015625 
Q 88.921875 44.046875 88.921875 33.015625 
L 88.921875 0 
L 79.890625 0 
L 79.890625 32.71875 
Q 79.890625 40.578125 77.09375 44.375 
Q 74.3125 48.1875 68.609375 48.1875 
Q 61.625 48.1875 57.5625 43.546875 
Q 53.515625 38.921875 53.515625 30.90625 
L 53.515625 0 
L 44.484375 0 
L 44.484375 32.71875 
Q 44.484375 40.625 41.703125 44.40625 
Q 38.921875 48.1875 33.109375 48.1875 
Q 26.21875 48.1875 22.15625 43.53125 
Q 18.109375 38.875 18.109375 30.90625 
L 18.109375 0 
L 9.078125 0 
L 9.078125 54.6875 
L 18.109375 54.6875 
L 18.109375 46.1875 
Q 21.1875 51.21875 25.484375 53.609375 
Q 29.78125 56 35.6875 56 
Q 41.65625 56 45.828125 52.96875 
Q 50 49.953125 52 44.1875 
z
" id="DejaVuSans-109"/>
       <path d="M 54.890625 33.015625 
L 54.890625 0 
L 45.90625 0 
L 45.90625 32.71875 
Q 45.90625 40.484375 42.875 44.328125 
Q 39.84375 48.1875 33.796875 48.1875 
Q 26.515625 48.1875 22.3125 43.546875 
Q 18.109375 38.921875 18.109375 30.90625 
L 18.109375 0 
L 9.078125 0 
L 9.078125 54.6875 
L 18.109375 54.6875 
L 18.109375 46.1875 
Q 21.34375 51.125 25.703125 53.5625 
Q 30.078125 56 35.796875 56 
Q 45.21875 56 50.046875 50.171875 
Q 54.890625 44.34375 54.890625 33.015625 
z
" id="DejaVuSans-110"/>
       <path d="M 8.015625 75.875 
L 15.828125 75.875 
Q 23.140625 64.359375 26.78125 53.3125 
Q 30.421875 42.28125 30.421875 31.390625 
Q 30.421875 20.453125 26.78125 9.375 
Q 23.140625 -1.703125 15.828125 -13.1875 
L 8.015625 -13.1875 
Q 14.5 -2 17.703125 9.0625 
Q 20.90625 20.125 20.90625 31.390625 
Q 20.90625 42.671875 17.703125 53.65625 
Q 14.5 64.65625 8.015625 75.875 
z
" id="DejaVuSans-41"/>
      </defs>
      <use xlink:href="#DejaVuSans-108"/>
      <use x="27.783203" xlink:href="#DejaVuSans-111"/>
      <use x="88.964844" xlink:href="#DejaVuSans-103"/>
      <use x="152.441406" xlink:href="#DejaVuSans-49"/>
      <use x="216.064453" xlink:href="#DejaVuSans-48"/>
      <use x="279.6875" xlink:href="#DejaVuSans-40"/>
      <use x="318.701172" xlink:href="#DejaVuSans-35"/>
      <use x="402.490234" xlink:href="#DejaVuSans-32"/>
      <use x="434.277344" xlink:href="#DejaVuSans-102"/>
      <use x="463.982422" xlink:href="#DejaVuSans-45"/>
      <use x="500.066406" xlink:href="#DejaVuSans-101"/>
      <use x="561.589844" xlink:href="#DejaVuSans-118"/>
      <use x="620.769531" xlink:href="#DejaVuSans-97"/>
      <use x="682.048828" xlink:href="#DejaVuSans-108"/>
      <use x="709.832031" xlink:href="#DejaVuSans-115"/>
      <use x="761.931641" xlink:href="#DejaVuSans-32"/>
      <use x="793.71875" xlink:href="#DejaVuSans-47"/>
      <use x="827.410156" xlink:href="#DejaVuSans-32"/>
      <use x="859.197266" xlink:href="#DejaVuSans-100"/>
      <use x="922.673828" xlink:href="#DejaVuSans-105"/>
      <use x="950.457031" xlink:href="#DejaVuSans-109"/>
      <use x="1047.869141" xlink:href="#DejaVuSans-101"/>
      <use x="1109.392578" xlink:href="#DejaVuSans-110"/>
      <use x="1172.771484" xlink:href="#DejaVuSans-115"/>
      <use x="1224.871094" xlink:href="#DejaVuSans-105"/>
      <use x="1252.654297" xlink:href="#DejaVuSans-111"/>
      <use x="1313.835938" xlink:href="#DejaVuSans-110"/>
      <use x="1377.214844" xlink:href="#DejaVuSans-41"/>
     </g>
    </g>
   </g>
   <g id="matplotlib.axis_2">
    <g id="ytick_1">
     <g id="line2d_21">
      <path clip-path="url(#paef787ccbf)" d="M 57.6 298.944 
L 338.688 298.944 
" style="fill:none;stroke:#b0b0b0;stroke-linecap:square;stroke-width:0.8;"/>
     </g>
     <g id="line2d_22">
      <defs>
       <path d="M 0 0 
L -3.5 0 
" id="m21917f7726" style="stroke:#000000;stroke-width:0.8;"/>
      </defs>
      <g>
       <use style="stroke:#000000;stroke-width:0.8;" x="57.6" xlink:href="#m21917f7726" y="298.944"/>
      </g>
     </g>
     <g id="text_6">
      <!-- 0.0 -->
      <g transform="translate(25.155 305.02275)scale(0.16 -0.16)">
       <defs>
        <path d="M 10.6875 12.40625 
L 21 12.40625 
L 21 0 
L 10.6875 0 
z
" id="DejaVuSans-46"/>
       </defs>
       <use xlink:href="#DejaVuSans-48"/>
       <use x="63.623047" xlink:href="#DejaVuSans-46"/>
       <use x="95.410156" xlink:href="#DejaVuSans-48"/>
      </g>
     </g>
    </g>
    <g id="ytick_2">
     <g id="line2d_23">
      <path clip-path="url(#paef787ccbf)" d="M 57.6 245.22202 
L 338.688 245.22202 
" style="fill:none;stroke:#b0b0b0;stroke-linecap:square;stroke-width:0.8;"/>
     </g>
     <g id="line2d_24">
      <g>
       <use style="stroke:#000000;stroke-width:0.8;" x="57.6" xlink:href="#m21917f7726" y="245.22202"/>
      </g>
     </g>
     <g id="text_7">
      <!-- 0.2 -->
      <g transform="translate(25.155 251.30077)scale(0.16 -0.16)">
       <use xlink:href="#DejaVuSans-48"/>
       <use x="63.623047" xlink:href="#DejaVuSans-46"/>
       <use x="95.410156" xlink:href="#DejaVuSans-50"/>
      </g>
     </g>
    </g>
    <g id="ytick_3">
     <g id="line2d_25">
      <path clip-path="url(#paef787ccbf)" d="M 57.6 191.50004 
L 338.688 191.50004 
" style="fill:none;stroke:#b0b0b0;stroke-linecap:square;stroke-width:0.8;"/>
     </g>
     <g id="line2d_26">
      <g>
       <use style="stroke:#000000;stroke-width:0.8;" x="57.6" xlink:href="#m21917f7726" y="191.50004"/>
      </g>
     </g>
     <g id="text_8">
      <!-- 0.4 -->
      <g transform="translate(25.155 197.57879)scale(0.16 -0.16)">
       <use xlink:href="#DejaVuSans-48"/>
       <use x="63.623047" xlink:href="#DejaVuSans-46"/>
       <use x="95.410156" xlink:href="#DejaVuSans-52"/>
      </g>
     </g>
    </g>
    <g id="ytick_4">
     <g id="line2d_27">
      <path clip-path="url(#paef787ccbf)" d="M 57.6 137.778059 
L 338.688 137.778059 
" style="fill:none;stroke:#b0b0b0;stroke-linecap:square;stroke-width:0.8;"/>
     </g>
     <g id="line2d_28">
      <g>
       <use style="stroke:#000000;stroke-width:0.8;" x="57.6" xlink:href="#m21917f7726" y="137.778059"/>
      </g>
     </g>
     <g id="text_9">
      <!-- 0.6 -->
      <g transform="translate(25.155 143.856809)scale(0.16 -0.16)">
       <use xlink:href="#DejaVuSans-48"/>
       <use x="63.623047" xlink:href="#DejaVuSans-46"/>
       <use x="95.410156" xlink:href="#DejaVuSans-54"/>
      </g>
     </g>
    </g>
    <g id="ytick_5">
     <g id="line2d_29">
      <path clip-path="url(#paef787ccbf)" d="M 57.6 84.056079 
L 338.688 84.056079 
" style="fill:none;stroke:#b0b0b0;stroke-linecap:square;stroke-width:0.8;"/>
     </g>
     <g id="line2d_30">
      <g>
       <use style="stroke:#000000;stroke-width:0.8;" x="57.6" xlink:href="#m21917f7726" y="84.056079"/>
      </g>
     </g>
     <g id="text_10">
      <!-- 0.8 -->
      <g transform="translate(25.155 90.134829)scale(0.16 -0.16)">
       <defs>
        <path d="M 31.78125 34.625 
Q 24.75 34.625 20.71875 30.859375 
Q 16.703125 27.09375 16.703125 20.515625 
Q 16.703125 13.921875 20.71875 10.15625 
Q 24.75 6.390625 31.78125 6.390625 
Q 38.8125 6.390625 42.859375 10.171875 
Q 46.921875 13.96875 46.921875 20.515625 
Q 46.921875 27.09375 42.890625 30.859375 
Q 38.875 34.625 31.78125 34.625 
z
M 21.921875 38.8125 
Q 15.578125 40.375 12.03125 44.71875 
Q 8.5 49.078125 8.5 55.328125 
Q 8.5 64.0625 14.71875 69.140625 
Q 20.953125 74.21875 31.78125 74.21875 
Q 42.671875 74.21875 48.875 69.140625 
Q 55.078125 64.0625 55.078125 55.328125 
Q 55.078125 49.078125 51.53125 44.71875 
Q 48 40.375 41.703125 38.8125 
Q 48.828125 37.15625 52.796875 32.3125 
Q 56.78125 27.484375 56.78125 20.515625 
Q 56.78125 9.90625 50.3125 4.234375 
Q 43.84375 -1.421875 31.78125 -1.421875 
Q 19.734375 -1.421875 13.25 4.234375 
Q 6.78125 9.90625 6.78125 20.515625 
Q 6.78125 27.484375 10.78125 32.3125 
Q 14.796875 37.15625 21.921875 38.8125 
z
M 18.3125 54.390625 
Q 18.3125 48.734375 21.84375 45.5625 
Q 25.390625 42.390625 31.78125 42.390625 
Q 38.140625 42.390625 41.71875 45.5625 
Q 45.3125 48.734375 45.3125 54.390625 
Q 45.3125 60.0625 41.71875 63.234375 
Q 38.140625 66.40625 31.78125 66.40625 
Q 25.390625 66.40625 21.84375 63.234375 
Q 18.3125 60.0625 18.3125 54.390625 
z
" id="DejaVuSans-56"/>
       </defs>
       <use xlink:href="#DejaVuSans-48"/>
       <use x="63.623047" xlink:href="#DejaVuSans-46"/>
       <use x="95.410156" xlink:href="#DejaVuSans-56"/>
      </g>
     </g>
    </g>
    <g id="ytick_6">
     <g id="line2d_31">
      <path clip-path="url(#paef787ccbf)" d="M 57.6 30.334099 
L 338.688 30.334099 
" style="fill:none;stroke:#b0b0b0;stroke-linecap:square;stroke-width:0.8;"/>
     </g>
     <g id="line2d_32">
      <g>
       <use style="stroke:#000000;stroke-width:0.8;" x="57.6" xlink:href="#m21917f7726" y="30.334099"/>
      </g>
     </g>
     <g id="text_11">
      <!-- 1.0 -->
      <g transform="translate(25.155 36.412849)scale(0.16 -0.16)">
       <use xlink:href="#DejaVuSans-49"/>
       <use x="63.623047" xlink:href="#DejaVuSans-46"/>
       <use x="95.410156" xlink:href="#DejaVuSans-48"/>
      </g>
     </g>
    </g>
    <g id="text_12">
     <!-- Fraction of function,target pairs -->
     <g transform="translate(17.619531 297.681)rotate(-90)scale(0.17 -0.17)">
      <defs>
       <path d="M 9.8125 72.90625 
L 51.703125 72.90625 
L 51.703125 64.59375 
L 19.671875 64.59375 
L 19.671875 43.109375 
L 48.578125 43.109375 
L 48.578125 34.8125 
L 19.671875 34.8125 
L 19.671875 0 
L 9.8125 0 
z
" id="DejaVuSans-70"/>
       <path d="M 41.109375 46.296875 
Q 39.59375 47.171875 37.8125 47.578125 
Q 36.03125 48 33.890625 48 
Q 26.265625 48 22.1875 43.046875 
Q 18.109375 38.09375 18.109375 28.8125 
L 18.109375 0 
L 9.078125 0 
L 9.078125 54.6875 
L 18.109375 54.6875 
L 18.109375 46.1875 
Q 20.953125 51.171875 25.484375 53.578125 
Q 30.03125 56 36.53125 56 
Q 37.453125 56 38.578125 55.875 
Q 39.703125 55.765625 41.0625 55.515625 
z
" id="DejaVuSans-114"/>
       <path d="M 48.78125 52.59375 
L 48.78125 44.1875 
Q 44.96875 46.296875 41.140625 47.34375 
Q 37.3125 48.390625 33.40625 48.390625 
Q 24.65625 48.390625 19.8125 42.84375 
Q 14.984375 37.3125 14.984375 27.296875 
Q 14.984375 17.28125 19.8125 11.734375 
Q 24.65625 6.203125 33.40625 6.203125 
Q 37.3125 6.203125 41.140625 7.25 
Q 44.96875 8.296875 48.78125 10.40625 
L 48.78125 2.09375 
Q 45.015625 0.34375 40.984375 -0.53125 
Q 36.96875 -1.421875 32.421875 -1.421875 
Q 20.0625 -1.421875 12.78125 6.34375 
Q 5.515625 14.109375 5.515625 27.296875 
Q 5.515625 40.671875 12.859375 48.328125 
Q 20.21875 56 33.015625 56 
Q 37.15625 56 41.109375 55.140625 
Q 45.0625 54.296875 48.78125 52.59375 
z
" id="DejaVuSans-99"/>
       <path d="M 18.3125 70.21875 
L 18.3125 54.6875 
L 36.8125 54.6875 
L 36.8125 47.703125 
L 18.3125 47.703125 
L 18.3125 18.015625 
Q 18.3125 11.328125 20.140625 9.421875 
Q 21.96875 7.515625 27.59375 7.515625 
L 36.8125 7.515625 
L 36.8125 0 
L 27.59375 0 
Q 17.1875 0 13.234375 3.875 
Q 9.28125 7.765625 9.28125 18.015625 
L 9.28125 47.703125 
L 2.6875 47.703125 
L 2.6875 54.6875 
L 9.28125 54.6875 
L 9.28125 70.21875 
z
" id="DejaVuSans-116"/>
       <path d="M 8.5 21.578125 
L 8.5 54.6875 
L 17.484375 54.6875 
L 17.484375 21.921875 
Q 17.484375 14.15625 20.5 10.265625 
Q 23.53125 6.390625 29.59375 6.390625 
Q 36.859375 6.390625 41.078125 11.03125 
Q 45.3125 15.671875 45.3125 23.6875 
L 45.3125 54.6875 
L 54.296875 54.6875 
L 54.296875 0 
L 45.3125 0 
L 45.3125 8.40625 
Q 42.046875 3.421875 37.71875 1 
Q 33.40625 -1.421875 27.6875 -1.421875 
Q 18.265625 -1.421875 13.375 4.4375 
Q 8.5 10.296875 8.5 21.578125 
z
M 31.109375 56 
z
" id="DejaVuSans-117"/>
       <path d="M 11.71875 12.40625 
L 22.015625 12.40625 
L 22.015625 4 
L 14.015625 -11.625 
L 7.71875 -11.625 
L 11.71875 4 
z
" id="DejaVuSans-44"/>
       <path d="M 18.109375 8.203125 
L 18.109375 -20.796875 
L 9.078125 -20.796875 
L 9.078125 54.6875 
L 18.109375 54.6875 
L 18.109375 46.390625 
Q 20.953125 51.265625 25.265625 53.625 
Q 29.59375 56 35.59375 56 
Q 45.5625 56 51.78125 48.09375 
Q 58.015625 40.1875 58.015625 27.296875 
Q 58.015625 14.40625 51.78125 6.484375 
Q 45.5625 -1.421875 35.59375 -1.421875 
Q 29.59375 -1.421875 25.265625 0.953125 
Q 20.953125 3.328125 18.109375 8.203125 
z
M 48.6875 27.296875 
Q 48.6875 37.203125 44.609375 42.84375 
Q 40.53125 48.484375 33.40625 48.484375 
Q 26.265625 48.484375 22.1875 42.84375 
Q 18.109375 37.203125 18.109375 27.296875 
Q 18.109375 17.390625 22.1875 11.75 
Q 26.265625 6.109375 33.40625 6.109375 
Q 40.53125 6.109375 44.609375 11.75 
Q 48.6875 17.390625 48.6875 27.296875 
z
" id="DejaVuSans-112"/>
      </defs>
      <use xlink:href="#DejaVuSans-70"/>
      <use x="50.269531" xlink:href="#DejaVuSans-114"/>
      <use x="91.382812" xlink:href="#DejaVuSans-97"/>
      <use x="152.662109" xlink:href="#DejaVuSans-99"/>
      <use x="207.642578" xlink:href="#DejaVuSans-116"/>
      <use x="246.851562" xlink:href="#DejaVuSans-105"/>
      <use x="274.634766" xlink:href="#DejaVuSans-111"/>
      <use x="335.816406" xlink:href="#DejaVuSans-110"/>
      <use x="399.195312" xlink:href="#DejaVuSans-32"/>
      <use x="430.982422" xlink:href="#DejaVuSans-111"/>
      <use x="492.164062" xlink:href="#DejaVuSans-102"/>
      <use x="527.369141" xlink:href="#DejaVuSans-32"/>
      <use x="559.15625" xlink:href="#DejaVuSans-102"/>
      <use x="594.361328" xlink:href="#DejaVuSans-117"/>
      <use x="657.740234" xlink:href="#DejaVuSans-110"/>
      <use x="721.119141" xlink:href="#DejaVuSans-99"/>
      <use x="776.099609" xlink:href="#DejaVuSans-116"/>
      <use x="815.308594" xlink:href="#DejaVuSans-105"/>
      <use x="843.091797" xlink:href="#DejaVuSans-111"/>
      <use x="904.273438" xlink:href="#DejaVuSans-110"/>
      <use x="967.652344" xlink:href="#DejaVuSans-44"/>
      <use x="999.439453" xlink:href="#DejaVuSans-116"/>
      <use x="1038.648438" xlink:href="#DejaVuSans-97"/>
      <use x="1099.927734" xlink:href="#DejaVuSans-114"/>
      <use x="1139.291016" xlink:href="#DejaVuSans-103"/>
      <use x="1202.767578" xlink:href="#DejaVuSans-101"/>
      <use x="1264.291016" xlink:href="#DejaVuSans-116"/>
      <use x="1303.5" xlink:href="#DejaVuSans-32"/>
      <use x="1335.287109" xlink:href="#DejaVuSans-112"/>
      <use x="1398.763672" xlink:href="#DejaVuSans-97"/>
      <use x="1460.042969" xlink:href="#DejaVuSans-105"/>
      <use x="1487.826172" xlink:href="#DejaVuSans-114"/>
      <use x="1528.939453" xlink:href="#DejaVuSans-115"/>
     </g>
    </g>
   </g>
   <g id="line2d_33">
    <defs>
     <path d="M 0 1.5 
C 0.397805 1.5 0.77937 1.341951 1.06066 1.06066 
C 1.341951 0.77937 1.5 0.397805 1.5 0 
C 1.5 -0.397805 1.341951 -0.77937 1.06066 -1.06066 
C 0.77937 -1.341951 0.397805 -1.5 0 -1.5 
C -0.397805 -1.5 -0.77937 -1.341951 -1.06066 -1.06066 
C -1.341951 -0.77937 -1.5 -0.397805 -1.5 0 
C -1.5 0.397805 -1.341951 0.77937 -1.06066 1.06066 
C -0.77937 1.341951 -0.397805 1.5 0 1.5 
z
" id="m667356d3f9" style="stroke:#f5deb3;"/>
    </defs>
    <g>
     <use style="fill:#f5deb3;stroke:#f5deb3;" x="194.463423" xlink:href="#m667356d3f9" y="30.334099"/>
     <use style="fill:#f5deb3;stroke:#f5deb3;" x="194.463423" xlink:href="#m667356d3f9" y="30.334099"/>
    </g>
   </g>
   <g id="line2d_34">
    <defs>
     <path d="M 0 1.5 
C 0.397805 1.5 0.77937 1.341951 1.06066 1.06066 
C 1.341951 0.77937 1.5 0.397805 1.5 0 
C 1.5 -0.397805 1.341951 -0.77937 1.06066 -1.06066 
C 0.77937 -1.341951 0.397805 -1.5 0 -1.5 
C -0.397805 -1.5 -0.77937 -1.341951 -1.06066 -1.06066 
C -1.341951 -0.77937 -1.5 -0.397805 -1.5 0 
C -1.5 0.397805 -1.341951 0.77937 -1.06066 1.06066 
C -0.77937 1.341951 -0.397805 1.5 0 1.5 
z
" id="m7e66f2480e" style="stroke:#000080;"/>
    </defs>
    <g>
     <use style="fill:#000080;stroke:#000080;" x="310.647291" xlink:href="#m7e66f2480e" y="30.334099"/>
     <use style="fill:#000080;stroke:#000080;" x="310.647291" xlink:href="#m7e66f2480e" y="30.334099"/>
    </g>
   </g>
   <g id="line2d_35">
    <path d="M 29.53256 298.944 
L 29.53256 292.097081 
L 41.620548 292.097081 
L 41.620548 291.043709 
L 48.691568 291.043709 
L 48.691568 287.883592 
L 53.708537 287.883592 
L 53.708537 286.83022 
L 60.779557 286.83022 
L 60.779557 286.303534 
L 65.796525 286.303534 
L 65.796525 285.250162 
L 67.850577 285.250162 
L 67.850577 284.723476 
L 77.884514 284.723476 
L 77.884514 283.670104 
L 78.941764 283.670104 
L 78.941764 283.143418 
L 79.938565 283.143418 
L 79.938565 282.616732 
L 81.775977 282.616732 
L 81.775977 282.090045 
L 82.626842 282.090045 
L 82.626842 281.563359 
L 83.438118 281.563359 
L 83.438118 281.036673 
L 84.213325 281.036673 
L 84.213325 279.983301 
L 85.66744 279.983301 
L 85.66744 279.456615 
L 88.255778 279.456615 
L 88.255778 278.929929 
L 91.029752 278.929929 
L 91.029752 278.403243 
L 92.504372 278.403243 
L 92.504372 277.349871 
L 94.714831 277.349871 
L 94.714831 276.296499 
L 96.676366 276.296499 
L 96.676366 274.71644 
L 103.117741 274.71644 
L 103.117741 274.189754 
L 104.355088 274.189754 
L 104.355088 273.663068 
L 105.51043 273.663068 
L 105.51043 273.136382 
L 106.168594 273.136382 
L 106.168594 272.609696 
L 108.577836 272.609696 
L 108.577836 272.08301 
L 108.764355 272.08301 
L 108.764355 271.029638 
L 109.131511 271.029638 
L 109.131511 269.976266 
L 110.859585 269.976266 
L 110.859585 269.449579 
L 111.023335 269.449579 
L 111.023335 268.396207 
L 111.185562 268.396207 
L 111.185562 267.869521 
L 112.58145 267.869521 
L 112.58145 267.342835 
L 114.148479 267.342835 
L 114.148479 266.816149 
L 114.418861 266.816149 
L 114.418861 265.236091 
L 115.205729 265.236091 
L 115.205729 264.182719 
L 115.835374 264.182719 
L 115.835374 263.656033 
L 117.373392 263.656033 
L 117.373392 263.129347 
L 118.470564 263.129347 
L 118.470564 262.60266 
L 118.681952 262.60266 
L 118.681952 262.075974 
L 119.301163 262.075974 
L 119.301163 261.549288 
L 119.602714 261.549288 
L 119.602714 259.96923 
L 120.093994 259.96923 
L 120.093994 259.442544 
L 120.382253 259.442544 
L 120.382253 258.915858 
L 121.036887 258.915858 
L 121.036887 258.389172 
L 121.667835 258.389172 
L 121.667835 257.862486 
L 122.782271 257.862486 
L 122.782271 257.3358 
L 123.029641 257.3358 
L 123.029641 256.809114 
L 123.672636 256.809114 
L 123.672636 255.755741 
L 124.368753 255.755741 
L 124.368753 254.702369 
L 124.817858 254.702369 
L 124.817858 253.648997 
L 125.038147 253.648997 
L 125.038147 253.122311 
L 125.470548 253.122311 
L 125.541584 252.068939 
L 125.682793 252.068939 
L 125.682793 251.542253 
L 126.573795 251.542253 
L 126.573795 251.015567 
L 126.904721 251.015567 
L 126.97016 249.962195 
L 127.54831 249.962195 
L 127.54831 249.435508 
L 129.06046 249.435508 
L 129.06046 248.908822 
L 129.290685 248.908822 
L 129.290685 248.382136 
L 129.79784 248.382136 
L 129.79784 247.85545 
L 129.963666 247.85545 
L 129.963666 247.328764 
L 130.822389 247.328764 
L 130.822389 246.802078 
L 130.978796 246.802078 
L 131.082294 245.748706 
L 131.133813 245.748706 
L 131.133813 245.22202 
L 131.540579 245.22202 
L 131.590764 244.168648 
L 131.740458 244.168648 
L 131.740458 243.641962 
L 131.888878 243.641962 
L 131.888878 243.115275 
L 132.374684 243.115275 
L 132.374684 242.588589 
L 132.612604 242.588589 
L 132.70687 241.535217 
L 132.80063 241.535217 
L 132.80063 241.008531 
L 132.986651 241.008531 
L 132.986651 240.481845 
L 133.533096 240.481845 
L 133.533096 239.955159 
L 133.711505 239.955159 
L 133.711505 239.428473 
L 133.975741 239.428473 
L 133.975741 238.901787 
L 135.076644 238.901787 
L 135.076644 238.375101 
L 135.321124 238.375101 
L 135.401861 236.795043 
L 136.112156 236.795043 
L 136.112156 236.268356 
L 136.266147 236.268356 
L 136.266147 235.74167 
L 136.5324 235.74167 
L 136.5324 235.214984 
L 137.198951 235.214984 
L 137.198951 234.688298 
L 137.629572 234.688298 
L 137.629572 234.161612 
L 138.153314 234.161612 
L 138.153314 233.634926 
L 138.324456 233.634926 
L 138.324456 233.10824 
L 138.861092 233.10824 
L 138.89409 232.054868 
L 139.220677 232.054868 
L 139.220677 231.001496 
L 139.667863 231.001496 
L 139.667863 229.948123 
L 140.103868 229.948123 
L 140.103868 229.421437 
L 140.438956 229.421437 
L 140.438956 228.894751 
L 140.708409 228.894751 
L 140.708409 228.368065 
L 140.88576 228.368065 
L 140.88576 227.841379 
L 141.321401 227.841379 
L 141.321401 227.314693 
L 142.378651 227.314693 
L 142.378651 226.788007 
L 143.040814 226.788007 
L 143.040814 226.261321 
L 143.527762 226.261321 
L 143.527762 225.734635 
L 143.87806 225.734635 
L 143.87806 225.207949 
L 144.245733 225.207949 
L 144.245733 224.681263 
L 145.166911 224.681263 
L 145.166911 224.154577 
L 145.327221 224.154577 
L 145.327221 223.627891 
L 145.799493 223.627891 
L 145.799493 223.101204 
L 146.40993 223.101204 
L 146.40993 222.574518 
L 146.580487 222.574518 
L 146.644018 220.99446 
L 146.728368 220.99446 
L 146.728368 220.467774 
L 147.246507 220.467774 
L 147.246507 219.941088 
L 147.409112 219.941088 
L 147.409112 219.414402 
L 147.96658 219.414402 
L 147.96658 218.887716 
L 149.214124 218.887716 
L 149.214124 218.36103 
L 149.359452 218.36103 
L 149.359452 217.834344 
L 150.66605 217.834344 
L 150.66605 217.307658 
L 150.932558 217.307658 
L 150.932558 216.780971 
L 152.707042 216.780971 
L 152.707042 216.254285 
L 152.840905 216.254285 
L 152.840905 215.727599 
L 153.452361 215.727599 
L 153.452361 215.200913 
L 154.93278 215.200913 
L 154.93278 214.674227 
L 170.277909 214.674227 
L 170.277909 213.620855 
L 171.103055 213.620855 
L 171.103055 213.094169 
L 173.118935 213.094169 
L 173.118935 212.567483 
L 173.968698 212.567483 
L 173.968698 212.040797 
L 174.703001 212.040797 
L 174.703001 211.514111 
L 174.821034 211.514111 
L 174.821034 210.987425 
L 174.959126 210.987425 
L 174.959126 210.460738 
L 175.203325 210.460738 
L 175.203325 209.407366 
L 175.456309 209.407366 
L 175.541172 207.300622 
L 175.60957 207.300622 
L 175.717652 205.720564 
L 176.294632 205.720564 
L 176.294632 205.193878 
L 176.608379 205.193878 
L 176.608379 204.667192 
L 181.390568 204.667192 
L 181.390568 204.140506 
L 181.76979 204.140506 
L 181.812047 203.087133 
L 182.030146 203.087133 
L 182.063459 202.033761 
L 182.1768 202.033761 
L 182.1768 201.507075 
L 182.338619 201.507075 
L 182.363171 200.453703 
L 182.730044 200.453703 
L 182.730044 199.927017 
L 183.125928 199.927017 
L 183.217022 198.873645 
L 183.604663 198.873645 
L 183.604663 198.346959 
L 183.728625 198.346959 
L 183.728625 197.820273 
L 184.413285 197.820273 
L 184.413285 197.293586 
L 184.601324 197.293586 
L 184.601324 196.7669 
L 187.305693 196.7669 
L 187.305693 196.240214 
L 187.928915 196.240214 
L 187.928915 195.713528 
L 188.190455 195.713528 
L 188.190455 195.186842 
L 188.639395 195.186842 
L 188.639395 194.660156 
L 195.61377 194.660156 
L 195.61377 193.606784 
L 195.740823 193.606784 
L 195.740823 193.080098 
L 195.974709 193.080098 
L 196.010894 191.50004 
L 196.180828 191.50004 
L 196.28789 190.446667 
L 196.341787 190.446667 
L 196.341787 189.919981 
L 196.501273 189.919981 
L 196.540011 188.866609 
L 196.63167 188.866609 
L 196.708484 186.233179 
L 196.753934 186.233179 
L 196.753934 185.706493 
L 196.883647 185.706493 
L 196.883647 185.179807 
L 197.028872 185.179807 
L 197.109813 184.126434 
L 197.141384 184.126434 
L 197.160066 183.073062 
L 197.300701 183.073062 
L 197.300701 182.546376 
L 198.185435 182.546376 
L 198.185435 182.01969 
L 198.729238 182.01969 
L 198.729238 181.493004 
L 199.010659 181.493004 
L 199.010659 180.966318 
L 199.355653 180.966318 
L 199.355653 180.439632 
L 200.527463 180.439632 
L 200.617663 178.859574 
L 200.648263 178.859574 
L 200.69311 177.806202 
L 200.76064 177.806202 
L 200.806146 176.752829 
L 201.479418 176.752829 
L 201.584769 175.172771 
L 201.787318 175.172771 
L 201.843613 173.592713 
L 202.054657 173.592713 
L 202.054657 173.066027 
L 204.916832 173.066027 
L 204.916832 172.539341 
L 206.179705 172.539341 
L 206.179705 172.012655 
L 208.167924 172.012655 
L 208.224323 170.959282 
L 208.442001 170.959282 
L 208.442001 170.432596 
L 209.403154 170.432596 
L 209.508092 168.325852 
L 209.542549 168.325852 
L 209.542549 167.799166 
L 209.667173 167.799166 
L 209.667173 167.27248 
L 211.75063 167.27248 
L 211.820752 165.692422 
L 211.885577 165.692422 
L 211.885577 165.165736 
L 212.16423 165.165736 
L 212.16423 164.63905 
L 213.208001 164.63905 
L 213.253508 163.585677 
L 213.320622 163.585677 
L 213.428848 162.005619 
L 213.489345 162.005619 
L 213.494835 160.952247 
L 213.689501 160.952247 
L 213.746848 159.372189 
L 213.828255 159.372189 
L 213.892751 158.318817 
L 214.969319 158.318817 
L 215.076166 156.738758 
L 215.228388 156.738758 
L 215.228388 156.212072 
L 216.099079 156.212072 
L 216.171412 153.578642 
L 216.217642 153.578642 
L 216.217642 153.051956 
L 216.887366 153.051956 
L 216.954633 151.471897 
L 219.006684 151.471897 
L 219.071251 150.418525 
L 221.053695 150.418525 
L 221.068218 149.365153 
L 221.169245 149.365153 
L 221.169245 148.838467 
L 221.967194 148.838467 
L 221.967194 148.311781 
L 223.729345 148.311781 
L 223.827495 145.151665 
L 223.869679 145.151665 
L 223.869679 144.624978 
L 225.246401 144.624978 
L 225.246401 144.098292 
L 225.78156 144.098292 
L 225.86929 139.358118 
L 225.997496 139.358118 
L 225.997496 138.831432 
L 227.280105 138.831432 
L 227.300633 137.778059 
L 230.001281 137.778059 
L 230.001281 137.251373 
L 231.615964 137.251373 
L 231.631814 136.198001 
L 233.530194 136.198001 
L 233.56018 135.144629 
L 234.749128 135.144629 
L 234.749128 134.617943 
L 235.686114 134.617943 
L 235.728345 133.564571 
L 236.415693 133.564571 
L 236.44798 131.984513 
L 240.40066 131.984513 
L 240.438458 129.877768 
L 241.19874 129.877768 
L 241.301738 127.771024 
L 243.182245 127.771024 
L 243.243407 124.610907 
L 243.678368 124.610907 
L 243.688007 123.557535 
L 244.428552 123.557535 
L 244.444378 121.450791 
L 244.815921 121.450791 
L 244.915831 111.443755 
L 247.253982 111.443755 
L 247.302558 107.756953 
L 248.764857 107.756953 
L 248.764857 107.230267 
L 248.982772 107.230267 
L 248.982772 106.703581 
L 249.995987 106.703581 
L 249.995987 106.176895 
L 250.994878 106.176895 
L 251.008561 104.07015 
L 254.130779 104.07015 
L 254.141899 102.490092 
L 255.686285 102.490092 
L 255.687221 101.43672 
L 256.897305 101.43672 
L 256.897305 100.910034 
L 257.120786 100.910034 
L 257.125246 99.856662 
L 257.479357 99.856662 
L 257.47943 98.803289 
L 257.682522 98.803289 
L 257.688764 96.169859 
L 258.872365 96.169859 
L 258.896013 90.376312 
L 259.654481 90.376312 
L 259.658954 89.32294 
L 260.889424 89.32294 
L 260.903824 88.269568 
L 264.988218 88.269568 
L 264.991082 87.216196 
L 265.779298 87.216196 
L 265.795968 80.895963 
L 267.790097 80.895963 
L 267.790097 80.369277 
L 269.752389 80.369277 
L 269.752389 79.842591 
L 270.121457 79.842591 
L 270.131983 78.262532 
L 270.716581 78.262532 
L 270.726273 72.995672 
L 271.774159 72.995672 
L 271.774159 72.468985 
L 273.333411 72.468985 
L 273.333441 71.415613 
L 274.083276 71.415613 
L 274.08475 69.835555 
L 274.556457 69.835555 
L 274.565847 67.728811 
L 275.406253 67.728811 
L 275.411717 66.675439 
L 277.307836 66.675439 
L 277.315044 65.09538 
L 277.706834 65.09538 
L 277.706834 64.568694 
L 280.029014 64.568694 
L 280.032047 62.46195 
L 280.372589 62.46195 
L 280.372589 61.935264 
L 282.381918 61.935264 
L 282.387605 58.248461 
L 282.678544 58.248461 
L 282.68038 57.195089 
L 284.455388 57.195089 
L 284.458335 55.615031 
L 284.719513 55.615031 
L 284.724125 51.401542 
L 285.198201 51.401542 
L 285.198201 50.874856 
L 286.310308 50.874856 
L 286.310308 50.34817 
L 286.549003 50.34817 
L 286.549835 49.294798 
L 287.982534 49.294798 
L 287.984648 48.241426 
L 288.201406 48.241426 
L 288.201406 47.71474 
L 289.51121 47.71474 
L 289.51121 47.188054 
L 289.708614 47.188054 
L 289.711906 46.134681 
L 290.915098 46.134681 
L 290.915098 45.607995 
L 291.10118 45.607995 
L 291.10118 45.081309 
L 292.387106 45.081309 
L 292.387781 43.501251 
L 292.694783 43.501251 
L 292.694783 42.974565 
L 293.425776 42.974565 
L 293.425776 42.447879 
L 293.582784 42.447879 
L 293.585962 40.867821 
L 294.704676 40.867821 
L 294.706987 39.814448 
L 296.75163 39.814448 
L 296.753418 38.761076 
L 298.465189 38.761076 
L 298.465189 38.23439 
L 298.583726 38.23439 
L 298.585486 36.127646 
L 299.320502 36.127646 
L 299.320502 35.60096 
L 299.433805 35.60096 
L 299.433805 35.074274 
L 300.242788 35.074274 
L 300.242788 34.547588 
L 301.755904 34.547588 
L 301.755904 34.020902 
L 303.148757 34.020902 
L 303.148757 33.494215 
L 303.804829 33.494215 
L 303.804829 32.967529 
L 304.436868 32.967529 
L 304.436868 32.440843 
L 305.047812 32.440843 
L 305.048604 31.387471 
L 308.812441 31.387471 
L 308.812441 30.860785 
L 310.647291 30.860785 
L 310.647291 30.334099 
L 338.688 30.334099 
L 338.688 30.334099 
" style="fill:none;stroke:#000080;stroke-linecap:square;stroke-width:1.5;"/>
   </g>
   <g id="line2d_36">
    <defs>
     <path d="M 0 6 
C 1.591219 6 3.117479 5.367802 4.242641 4.242641 
C 5.367802 3.117479 6 1.591219 6 0 
C 6 -1.591219 5.367802 -3.117479 4.242641 -4.242641 
C 3.117479 -5.367802 1.591219 -6 0 -6 
C -1.591219 -6 -3.117479 -5.367802 -4.242641 -4.242641 
C -5.367802 -3.117479 -6 -1.591219 -6 0 
C -6 1.591219 -5.367802 3.117479 -4.242641 4.242641 
C -3.117479 5.367802 -1.591219 6 0 6 
z
" id="m79344320fd" style="stroke:#000080;stroke-width:1.5;"/>
    </defs>
    <g>
     <use style="fill-opacity:0;stroke:#000080;stroke-width:1.5;" x="108.577836" xlink:href="#m79344320fd" y="272.609696"/>
     <use style="fill-opacity:0;stroke:#000080;stroke-width:1.5;" x="175.456309" xlink:href="#m79344320fd" y="208.88068"/>
     <use style="fill-opacity:0;stroke:#000080;stroke-width:1.5;" x="227.300633" xlink:href="#m79344320fd" y="137.778059"/>
     <use style="fill-opacity:0;stroke:#000080;stroke-width:1.5;" x="298.585054" xlink:href="#m79344320fd" y="37.181018"/>
     <use style="fill-opacity:0;stroke:#000080;stroke-width:1.5;" x="310.647291" xlink:href="#m79344320fd" y="30.334099"/>
     <use style="fill-opacity:0;stroke:#000080;stroke-width:1.5;" x="338.688" xlink:href="#m79344320fd" y="30.334099"/>
    </g>
   </g>
   <g id="line2d_37">
    <path style="fill:none;stroke:#000080;stroke-linecap:square;stroke-width:1.5;"/>
    <g/>
   </g>
   <g id="line2d_38">
    <path clip-path="url(#paef787ccbf)" d="M 246.289573 111.443755 
" style="fill:none;stroke:#000080;stroke-linecap:square;stroke-width:1.5;"/>
    <defs>
     <path d="M -12 12 
L 12 -12 
M -12 -12 
L 12 12 
" id="mdf2f5e342a" style="stroke:#000080;"/>
    </defs>
    <g clip-path="url(#paef787ccbf)">
     <use style="fill:#000080;stroke:#000080;" x="246.289573" xlink:href="#mdf2f5e342a" y="111.443755"/>
    </g>
   </g>
   <g id="line2d_39">
    <defs>
     <path d="M 0 1.5 
C 0.397805 1.5 0.77937 1.341951 1.06066 1.06066 
C 1.341951 0.77937 1.5 0.397805 1.5 0 
C 1.5 -0.397805 1.341951 -0.77937 1.06066 -1.06066 
C 0.77937 -1.341951 0.397805 -1.5 0 -1.5 
C -0.397805 -1.5 -0.77937 -1.341951 -1.06066 -1.06066 
C -1.341951 -0.77937 -1.5 -0.397805 -1.5 0 
C -1.5 0.397805 -1.341951 0.77937 -1.06066 1.06066 
C -0.77937 1.341951 -0.397805 1.5 0 1.5 
z
" id="mb6e13feb50" style="stroke:#ff00ff;"/>
    </defs>
    <g>
     <use style="fill:#ff00ff;stroke:#ff00ff;" x="313.843553" xlink:href="#mb6e13feb50" y="30.334099"/>
     <use style="fill:#ff00ff;stroke:#ff00ff;" x="313.843553" xlink:href="#mb6e13feb50" y="30.334099"/>
    </g>
   </g>
   <g id="line2d_40">
    <path d="M 29.53256 298.944 
L 29.53256 295.783884 
L 41.620548 295.783884 
L 41.620548 293.677139 
L 48.691568 293.677139 
L 48.691568 288.936964 
L 53.708537 288.936964 
L 53.708537 287.883592 
L 57.6 287.883592 
L 57.6 285.776848 
L 65.796525 285.776848 
L 65.796525 283.670104 
L 67.850577 283.670104 
L 67.850577 283.143418 
L 69.687988 283.143418 
L 69.687988 282.616732 
L 74.263433 282.616732 
L 74.263433 282.090045 
L 78.941764 282.090045 
L 78.941764 281.563359 
L 80.881459 281.563359 
L 80.881459 280.509987 
L 87.009585 280.509987 
L 87.009585 279.983301 
L 98.100772 279.983301 
L 98.100772 278.403243 
L 99.731799 278.403243 
L 99.731799 277.349871 
L 105.285403 277.349871 
L 105.285403 276.823185 
L 105.51043 276.823185 
L 105.51043 276.296499 
L 106.802819 276.296499 
L 106.802819 275.769812 
L 110.016944 275.769812 
L 110.016944 274.71644 
L 110.527398 274.71644 
L 110.527398 274.189754 
L 112.72987 274.189754 
L 112.72987 273.663068 
L 113.167699 273.663068 
L 113.167699 273.136382 
L 114.0117 273.136382 
L 114.0117 272.609696 
L 114.552496 272.609696 
L 114.552496 271.556324 
L 120.093994 271.556324 
L 120.093994 271.029638 
L 121.128432 271.029638 
L 121.128432 270.502952 
L 122.104932 270.502952 
L 122.104932 269.976266 
L 122.362027 269.976266 
L 122.362027 269.449579 
L 125.961828 269.449579 
L 126.030894 267.869521 
L 127.54831 267.869521 
L 127.54831 266.289463 
L 129.06046 266.289463 
L 129.06046 265.762777 
L 130.290663 265.762777 
L 130.290663 265.236091 
L 132.084827 265.236091 
L 132.084827 264.709405 
L 133.800029 264.709405 
L 133.800029 264.182719 
L 134.019394 264.182719 
L 134.062938 263.129347 
L 137.735587 263.129347 
L 137.735587 262.60266 
L 137.980475 262.60266 
L 138.049816 261.549288 
L 138.794909 261.549288 
L 138.794909 261.022602 
L 139.058148 261.022602 
L 139.058148 260.495916 
L 141.830201 260.495916 
L 141.885829 258.915858 
L 142.024126 258.915858 
L 142.024126 258.389172 
L 142.539878 258.389172 
L 142.539878 257.862486 
L 144.414696 257.862486 
L 144.414696 257.3358 
L 145.074639 257.3358 
L 145.074639 255.755741 
L 146.129168 255.755741 
L 146.129168 255.229055 
L 147.287301 255.229055 
L 147.287301 254.702369 
L 147.449528 254.702369 
L 147.449528 254.175683 
L 149.214124 254.175683 
L 149.232356 253.122311 
L 150.463462 253.122311 
L 150.463462 252.068939 
L 151.340991 252.068939 
L 151.340991 251.542253 
L 152.707042 251.542253 
L 152.707042 251.015567 
L 152.840905 251.015567 
L 152.840905 250.488881 
L 153.192929 250.488881 
L 153.192929 249.962195 
L 154.125885 249.962195 
L 154.125885 249.435508 
L 155.322646 249.435508 
L 155.322646 248.908822 
L 155.879132 248.908822 
L 155.879132 248.382136 
L 156.199806 248.382136 
L 156.224231 247.328764 
L 156.442528 247.328764 
L 156.442528 246.802078 
L 156.788581 246.802078 
L 156.788581 246.275392 
L 157.116308 246.275392 
L 157.116308 245.748706 
L 157.86528 245.748706 
L 157.86528 245.22202 
L 158.530025 245.22202 
L 158.530025 244.695334 
L 159.035853 244.695334 
L 159.118749 243.641962 
L 161.26559 243.641962 
L 161.26559 243.115275 
L 161.663187 243.115275 
L 161.663187 242.588589 
L 161.902754 242.588589 
L 161.902754 242.061903 
L 162.130378 242.061903 
L 162.130378 241.535217 
L 162.559939 241.535217 
L 162.669913 240.481845 
L 163.396654 240.481845 
L 163.396654 239.955159 
L 164.630012 239.955159 
L 164.727712 238.901787 
L 164.876958 238.901787 
L 164.876958 238.375101 
L 166.179429 238.375101 
L 166.179429 237.848415 
L 167.506754 237.848415 
L 167.506754 237.321729 
L 167.653117 237.321729 
L 167.653117 236.795043 
L 167.960895 236.795043 
L 168.054037 235.74167 
L 168.27557 235.74167 
L 168.27557 234.688298 
L 168.662588 234.688298 
L 168.662588 233.634926 
L 169.017779 233.634926 
L 169.017779 233.10824 
L 169.87534 233.10824 
L 169.87534 232.581554 
L 170.569832 232.581554 
L 170.569832 232.054868 
L 170.899085 232.054868 
L 170.899085 231.528182 
L 172.235384 231.528182 
L 172.235384 231.001496 
L 172.730183 231.001496 
L 172.730183 230.47481 
L 172.970079 230.47481 
L 172.970079 229.948123 
L 173.169812 229.948123 
L 173.169812 229.421437 
L 173.603137 229.421437 
L 173.603137 228.894751 
L 174.083025 228.894751 
L 174.18354 227.841379 
L 174.318106 227.841379 
L 174.318106 227.314693 
L 176.135616 227.314693 
L 176.135616 226.788007 
L 176.448384 226.788007 
L 176.448384 226.261321 
L 176.589409 226.261321 
L 176.638688 225.207949 
L 177.098184 225.207949 
L 177.098184 224.154577 
L 177.827484 224.154577 
L 177.901581 223.101204 
L 178.267417 223.101204 
L 178.346538 222.047832 
L 179.167796 222.047832 
L 179.17107 220.99446 
L 180.326831 220.99446 
L 180.326831 220.467774 
L 180.735618 220.467774 
L 180.735618 219.941088 
L 181.050008 219.941088 
L 181.135043 218.887716 
L 181.184698 218.887716 
L 181.184698 218.36103 
L 181.648084 218.36103 
L 181.752859 217.307658 
L 182.118839 217.307658 
L 182.129894 216.254285 
L 182.316765 216.254285 
L 182.316765 215.727599 
L 182.778027 215.727599 
L 182.778027 215.200913 
L 183.627498 215.200913 
L 183.630033 214.147541 
L 183.743743 214.147541 
L 183.743743 213.620855 
L 184.488261 213.620855 
L 184.488261 213.094169 
L 184.67311 213.094169 
L 184.68266 212.040797 
L 185.38664 212.040797 
L 185.484929 210.460738 
L 185.711387 210.460738 
L 185.711387 209.934052 
L 185.883777 209.934052 
L 185.883777 209.407366 
L 186.447126 209.407366 
L 186.492364 208.353994 
L 187.117828 208.353994 
L 187.130277 207.300622 
L 187.627145 207.300622 
L 187.627145 206.773936 
L 187.932877 206.773936 
L 187.932877 206.24725 
L 188.519143 206.24725 
L 188.519143 205.720564 
L 188.664106 205.720564 
L 188.664106 205.193878 
L 188.944859 205.193878 
L 188.944859 204.667192 
L 189.444184 204.667192 
L 189.509453 203.613819 
L 189.570871 203.613819 
L 189.570871 203.087133 
L 190.068612 203.087133 
L 190.068612 202.560447 
L 190.391571 202.560447 
L 190.501327 200.980389 
L 191.010122 200.980389 
L 191.010122 200.453703 
L 191.299932 200.453703 
L 191.299932 199.927017 
L 191.818001 199.927017 
L 191.818001 199.400331 
L 192.11195 199.400331 
L 192.214525 198.346959 
L 192.370337 198.346959 
L 192.378015 196.7669 
L 192.647641 196.7669 
L 192.750128 195.713528 
L 192.968159 195.713528 
L 192.968159 195.186842 
L 193.155624 195.186842 
L 193.155624 194.13347 
L 193.559081 194.13347 
L 193.559081 193.606784 
L 193.746011 193.606784 
L 193.746011 193.080098 
L 193.9464 193.080098 
L 193.9464 192.553412 
L 194.188848 192.553412 
L 194.188848 192.026726 
L 195.232174 192.026726 
L 195.232174 191.50004 
L 195.829213 191.50004 
L 195.829213 190.973354 
L 196.023354 190.973354 
L 196.023354 190.446667 
L 196.156123 190.446667 
L 196.156123 189.919981 
L 196.495213 189.919981 
L 196.495213 189.393295 
L 196.73242 189.393295 
L 196.73242 188.866609 
L 197.031224 188.866609 
L 197.044151 187.813237 
L 197.169399 187.813237 
L 197.227619 186.759865 
L 197.299543 186.759865 
L 197.299543 186.233179 
L 197.80275 186.233179 
L 197.80275 185.706493 
L 198.216217 185.706493 
L 198.315886 184.653121 
L 198.688661 184.653121 
L 198.732437 183.599748 
L 199.072469 183.599748 
L 199.075606 182.546376 
L 199.230706 182.546376 
L 199.234851 181.493004 
L 199.495029 181.493004 
L 199.495029 180.966318 
L 199.801601 180.966318 
L 199.842674 179.912946 
L 200.258915 179.912946 
L 200.258915 179.38626 
L 200.518802 179.38626 
L 200.616706 178.332888 
L 200.779615 178.332888 
L 200.860031 176.226143 
L 200.980432 176.226143 
L 201.036585 175.172771 
L 201.098145 175.172771 
L 201.165983 173.592713 
L 201.256639 173.592713 
L 201.256639 173.066027 
L 201.6092 173.066027 
L 201.6092 172.539341 
L 201.726351 172.539341 
L 201.826654 170.959282 
L 201.998156 170.959282 
L 201.998156 170.432596 
L 202.209097 170.432596 
L 202.262306 169.379224 
L 202.65501 169.379224 
L 202.65501 168.852538 
L 202.930435 168.852538 
L 203.0324 167.27248 
L 203.135429 167.27248 
L 203.176802 165.692422 
L 203.383838 165.692422 
L 203.383838 165.165736 
L 203.606193 165.165736 
L 203.606193 164.63905 
L 203.765927 164.63905 
L 203.765927 163.058991 
L 204.124175 163.058991 
L 204.124175 162.532305 
L 204.324195 162.532305 
L 204.324195 162.005619 
L 204.493614 162.005619 
L 204.493614 161.478933 
L 204.689465 161.478933 
L 204.698556 159.898875 
L 205.185522 159.898875 
L 205.189205 158.845503 
L 205.300047 158.845503 
L 205.300047 158.318817 
L 205.911888 158.318817 
L 205.911888 157.79213 
L 206.135818 157.79213 
L 206.169962 156.738758 
L 206.31899 156.738758 
L 206.358975 155.1587 
L 206.735684 155.1587 
L 206.735684 154.632014 
L 206.887325 154.632014 
L 206.907355 153.578642 
L 207.335796 153.578642 
L 207.335796 153.051956 
L 207.58212 153.051956 
L 207.58212 152.52527 
L 207.760953 152.52527 
L 207.796501 150.945211 
L 208.050827 150.945211 
L 208.096389 149.365153 
L 208.219991 149.365153 
L 208.219991 148.838467 
L 208.33842 148.838467 
L 208.33842 148.311781 
L 208.752706 148.311781 
L 208.812633 146.731723 
L 209.024907 146.731723 
L 209.037314 145.678351 
L 209.264384 145.678351 
L 209.270213 144.624978 
L 209.594679 144.624978 
L 209.594679 144.098292 
L 209.841179 144.098292 
L 209.872733 143.04492 
L 210.109253 143.04492 
L 210.109253 142.518234 
L 210.510034 142.518234 
L 210.510034 141.991548 
L 210.831619 141.991548 
L 210.831619 140.938176 
L 210.975952 140.938176 
L 210.975952 140.41149 
L 211.369918 140.41149 
L 211.369918 139.884804 
L 211.543674 139.884804 
L 211.624308 138.831432 
L 211.798082 138.831432 
L 211.798082 138.304745 
L 211.955659 138.304745 
L 212.04237 136.724687 
L 212.43607 136.724687 
L 212.43607 136.198001 
L 213.291956 136.198001 
L 213.291956 135.144629 
L 215.111636 135.144629 
L 215.111636 134.617943 
L 215.683696 134.617943 
L 215.683696 134.091257 
L 217.00669 134.091257 
L 217.052626 133.037885 
L 217.391694 133.037885 
L 217.391694 132.511199 
L 220.283825 132.511199 
L 220.283825 131.984513 
L 220.491755 131.984513 
L 220.491755 130.93114 
L 221.093678 130.93114 
L 221.093678 130.404454 
L 221.302168 130.404454 
L 221.302168 129.877768 
L 221.495768 129.877768 
L 221.495768 129.351082 
L 222.054203 129.351082 
L 222.085532 128.29771 
L 222.211397 128.29771 
L 222.211397 127.771024 
L 222.820753 127.771024 
L 222.892945 126.190966 
L 222.945165 126.190966 
L 222.992189 125.137593 
L 223.132241 125.137593 
L 223.231182 124.084221 
L 223.318372 124.084221 
L 223.318372 123.557535 
L 223.921322 123.557535 
L 224.004136 122.504163 
L 224.532804 122.504163 
L 224.590998 120.397419 
L 224.929496 120.397419 
L 224.929496 119.870733 
L 225.177488 119.870733 
L 225.177488 119.344047 
L 225.316203 119.344047 
L 225.379945 117.763988 
L 225.496624 117.763988 
L 225.496624 116.710616 
L 225.960162 116.710616 
L 225.984986 115.657244 
L 226.115453 115.657244 
L 226.115453 115.130558 
L 226.232837 115.130558 
L 226.246492 114.077186 
L 226.402101 114.077186 
L 226.500663 111.970441 
L 226.597809 111.970441 
L 226.597809 111.443755 
L 226.716716 111.443755 
L 226.769566 109.863697 
L 226.91064 109.863697 
L 226.91064 108.810325 
L 227.314098 108.810325 
L 227.314098 108.283639 
L 227.470565 108.283639 
L 227.522001 107.230267 
L 227.585318 107.230267 
L 227.585318 106.703581 
L 227.706004 106.703581 
L 227.706004 106.176895 
L 227.901306 106.176895 
L 227.901306 105.650209 
L 228.092465 105.650209 
L 228.092465 105.123522 
L 228.292518 105.123522 
L 228.292518 104.596836 
L 228.528973 104.596836 
L 228.578733 103.543464 
L 228.969329 103.543464 
L 228.969329 103.016778 
L 231.317478 103.016778 
L 231.413177 101.963406 
L 231.644095 101.963406 
L 231.672505 100.910034 
L 232.450039 100.910034 
L 232.450039 100.383348 
L 232.679133 100.383348 
L 232.679133 99.856662 
L 233.339952 99.856662 
L 233.380507 98.276603 
L 233.634561 98.276603 
L 233.634561 97.749917 
L 233.816642 97.749917 
L 233.925693 95.643173 
L 234.271479 95.643173 
L 234.271479 95.116487 
L 237.177597 95.116487 
L 237.235607 94.063115 
L 237.309191 94.063115 
L 237.334272 93.009743 
L 237.578291 93.009743 
L 237.578291 92.483056 
L 237.692752 92.483056 
L 237.692752 91.429684 
L 238.096758 91.429684 
L 238.096758 90.902998 
L 238.397329 90.902998 
L 238.440817 89.32294 
L 239.556501 89.32294 
L 239.556501 88.796254 
L 240.257517 88.796254 
L 240.360624 87.216196 
L 240.544092 87.216196 
L 240.544092 86.162824 
L 242.233339 86.162824 
L 242.233339 85.636137 
L 243.752024 85.636137 
L 243.752024 85.109451 
L 243.926628 85.109451 
L 243.975126 84.056079 
L 244.10559 84.056079 
L 244.112151 83.002707 
L 244.442284 83.002707 
L 244.442284 82.476021 
L 244.954731 82.476021 
L 245.055797 80.895963 
L 245.10417 80.895963 
L 245.196729 79.842591 
L 245.249157 79.842591 
L 245.343308 78.262532 
L 245.375093 78.262532 
L 245.375093 77.735846 
L 246.068235 77.735846 
L 246.068235 77.20916 
L 247.951486 77.20916 
L 247.951486 76.682474 
L 248.095035 76.682474 
L 248.095035 76.155788 
L 248.206318 76.155788 
L 248.260916 74.57573 
L 248.434673 74.57573 
L 248.434673 74.049044 
L 248.549332 74.049044 
L 248.549332 73.522358 
L 249.285571 73.522358 
L 249.333089 72.468985 
L 250.168838 72.468985 
L 250.168838 71.415613 
L 250.303015 71.415613 
L 250.350221 69.835555 
L 250.428412 69.835555 
L 250.428412 69.308869 
L 251.560855 69.308869 
L 251.560855 68.782183 
L 252.557347 68.782183 
L 252.557347 68.255497 
L 253.383643 68.255497 
L 253.383643 67.728811 
L 254.45889 67.728811 
L 254.45889 66.148752 
L 257.319514 66.148752 
L 257.419767 65.09538 
L 257.478145 65.09538 
L 257.478145 64.568694 
L 257.9261 64.568694 
L 257.9261 63.515322 
L 259.362057 63.515322 
L 259.377114 62.46195 
L 259.932259 62.46195 
L 259.965439 61.408578 
L 260.363663 61.408578 
L 260.442135 59.82852 
L 261.034231 59.82852 
L 261.034231 59.301833 
L 262.91079 59.301833 
L 262.91079 58.248461 
L 263.669661 58.248461 
L 263.669661 57.195089 
L 264.198177 57.195089 
L 264.198177 56.668403 
L 265.035924 56.668403 
L 265.035924 56.141717 
L 266.110913 56.141717 
L 266.130489 55.088345 
L 266.841925 55.088345 
L 266.891228 52.9816 
L 268.615818 52.9816 
L 268.615818 52.454914 
L 269.944333 52.454914 
L 269.944333 51.928228 
L 270.241068 51.928228 
L 270.241068 51.401542 
L 271.504711 51.401542 
L 271.528174 50.34817 
L 274.757259 50.34817 
L 274.763489 49.294798 
L 277.860704 49.294798 
L 277.860704 47.71474 
L 282.808539 47.71474 
L 282.808539 47.188054 
L 284.504575 47.188054 
L 284.504575 46.661368 
L 284.824209 46.661368 
L 284.834395 45.607995 
L 286.652099 45.607995 
L 286.652099 45.081309 
L 288.280257 45.081309 
L 288.295476 42.974565 
L 288.498021 42.974565 
L 288.498021 42.447879 
L 289.797241 42.447879 
L 289.797241 41.921193 
L 292.452251 41.921193 
L 292.452251 41.394507 
L 293.643029 41.394507 
L 293.64615 40.341135 
L 293.803409 40.341135 
L 293.805477 38.761076 
L 295.819022 38.761076 
L 295.820725 37.181018 
L 296.810751 37.181018 
L 296.810751 36.127646 
L 297.744387 36.127646 
L 297.74758 35.074274 
L 298.633604 35.074274 
L 298.633604 34.547588 
L 299.482562 34.547588 
L 299.482562 34.020902 
L 300.289344 34.020902 
L 300.392875 32.967529 
L 301.798893 32.967529 
L 301.798893 32.440843 
L 304.474802 32.440843 
L 304.474802 31.387471 
L 311.930261 31.387471 
L 311.930261 30.860785 
L 313.843553 30.860785 
L 313.843553 30.334099 
L 338.688 30.334099 
L 338.688 30.334099 
" style="fill:none;stroke:#ff00ff;stroke-linecap:square;stroke-width:1.5;"/>
   </g>
   <g id="line2d_41">
    <defs>
     <path d="M -0 8.485281 
L 5.091169 0 
L 0 -8.485281 
L -5.091169 -0 
z
" id="m2fc7725601" style="stroke:#ff00ff;stroke-linejoin:miter;stroke-width:1.5;"/>
    </defs>
    <g>
     <use style="fill-opacity:0;stroke:#ff00ff;stroke-linejoin:miter;stroke-width:1.5;" x="87.009585" xlink:href="#m2fc7725601" y="279.983301"/>
     <use style="fill-opacity:0;stroke:#ff00ff;stroke-linejoin:miter;stroke-width:1.5;" x="170.899085" xlink:href="#m2fc7725601" y="231.528182"/>
     <use style="fill-opacity:0;stroke:#ff00ff;stroke-linejoin:miter;stroke-width:1.5;" x="223.318372" xlink:href="#m2fc7725601" y="123.557535"/>
     <use style="fill-opacity:0;stroke:#ff00ff;stroke-linejoin:miter;stroke-width:1.5;" x="265.035924" xlink:href="#m2fc7725601" y="56.141717"/>
     <use style="fill-opacity:0;stroke:#ff00ff;stroke-linejoin:miter;stroke-width:1.5;" x="313.843553" xlink:href="#m2fc7725601" y="30.334099"/>
     <use style="fill-opacity:0;stroke:#ff00ff;stroke-linejoin:miter;stroke-width:1.5;" x="338.688" xlink:href="#m2fc7725601" y="30.334099"/>
    </g>
   </g>
   <g id="line2d_42">
    <path style="fill:none;stroke:#ff00ff;stroke-linecap:square;stroke-width:1.5;"/>
    <g/>
   </g>
   <g id="line2d_43">
    <path clip-path="url(#paef787ccbf)" d="M 246.289154 77.20916 
" style="fill:none;stroke:#ff00ff;stroke-linecap:square;stroke-width:1.5;"/>
    <defs>
     <path d="M -12 12 
L 12 -12 
M -12 -12 
L 12 12 
" id="m23c9bef8ad" style="stroke:#ff00ff;"/>
    </defs>
    <g clip-path="url(#paef787ccbf)">
     <use style="fill:#ff00ff;stroke:#ff00ff;" x="246.289154" xlink:href="#m23c9bef8ad" y="77.20916"/>
    </g>
   </g>
   <g id="line2d_44">
    <path d="M 338.688 30.334099 
L 369.60768 293.571802 
" style="fill:none;stroke:#ff00ff;stroke-linecap:square;stroke-width:1.5;"/>
    <g>
     <use style="fill-opacity:0;stroke:#ff00ff;stroke-linejoin:miter;stroke-width:1.5;" x="338.688" xlink:href="#m2fc7725601" y="30.334099"/>
     <use style="fill-opacity:0;stroke:#ff00ff;stroke-linejoin:miter;stroke-width:1.5;" x="369.60768" xlink:href="#m2fc7725601" y="293.571802"/>
    </g>
   </g>
   <g id="line2d_45">
    <path d="M 338.688 30.334099 
L 369.60768 164.63905 
" style="fill:none;stroke:#000080;stroke-linecap:square;stroke-width:1.5;"/>
    <g>
     <use style="fill-opacity:0;stroke:#000080;stroke-width:1.5;" x="338.688" xlink:href="#m79344320fd" y="30.334099"/>
     <use style="fill-opacity:0;stroke:#000080;stroke-width:1.5;" x="369.60768" xlink:href="#m79344320fd" y="164.63905"/>
    </g>
   </g>
   <g id="line2d_46">
    <path d="M 338.688 298.944 
L 338.688 30.334099 
" style="fill:none;stroke:#000000;stroke-linecap:square;stroke-width:1.5;"/>
   </g>
   <g id="patch_3">
    <path d="M 57.6 298.944 
L 57.6 27.648 
" style="fill:none;stroke:#000000;stroke-linecap:square;stroke-linejoin:miter;stroke-width:0.8;"/>
   </g>
   <g id="patch_4">
    <path d="M 338.688 298.944 
L 338.688 27.648 
" style="fill:none;stroke:#000000;stroke-linecap:square;stroke-linejoin:miter;stroke-width:0.8;"/>
   </g>
   <g id="patch_5">
    <path d="M 57.6 298.944 
L 338.688 298.944 
" style="fill:none;stroke:#000000;stroke-linecap:square;stroke-linejoin:miter;stroke-width:0.8;"/>
   </g>
   <g id="patch_6">
    <path d="M 57.6 27.648 
L 338.688 27.648 
" style="fill:none;stroke:#000000;stroke-linecap:square;stroke-linejoin:miter;stroke-width:0.8;"/>
   </g>
   <g id="text_13">
    <!-- DE -->
    <g transform="translate(375.22944 298.262739)scale(0.17 -0.17)">
     <defs>
      <path d="M 19.671875 64.796875 
L 19.671875 8.109375 
L 31.59375 8.109375 
Q 46.6875 8.109375 53.6875 14.9375 
Q 60.6875 21.78125 60.6875 36.53125 
Q 60.6875 51.171875 53.6875 57.984375 
Q 46.6875 64.796875 31.59375 64.796875 
z
M 9.8125 72.90625 
L 30.078125 72.90625 
Q 51.265625 72.90625 61.171875 64.09375 
Q 71.09375 55.28125 71.09375 36.53125 
Q 71.09375 17.671875 61.125 8.828125 
Q 51.171875 0 30.078125 0 
L 9.8125 0 
z
" id="DejaVuSans-68"/>
      <path d="M 9.8125 72.90625 
L 55.90625 72.90625 
L 55.90625 64.59375 
L 19.671875 64.59375 
L 19.671875 43.015625 
L 54.390625 43.015625 
L 54.390625 34.71875 
L 19.671875 34.71875 
L 19.671875 8.296875 
L 56.78125 8.296875 
L 56.78125 0 
L 9.8125 0 
z
" id="DejaVuSans-69"/>
     </defs>
     <use xlink:href="#DejaVuSans-68"/>
     <use x="77.001953" xlink:href="#DejaVuSans-69"/>
    </g>
   </g>
   <g id="text_14">
    <!-- BIPOP-CMA -->
    <g transform="translate(375.22944 169.329987)scale(0.17 -0.17)">
     <defs>
      <path d="M 19.671875 34.8125 
L 19.671875 8.109375 
L 35.5 8.109375 
Q 43.453125 8.109375 47.28125 11.40625 
Q 51.125 14.703125 51.125 21.484375 
Q 51.125 28.328125 47.28125 31.5625 
Q 43.453125 34.8125 35.5 34.8125 
z
M 19.671875 64.796875 
L 19.671875 42.828125 
L 34.28125 42.828125 
Q 41.5 42.828125 45.03125 45.53125 
Q 48.578125 48.25 48.578125 53.8125 
Q 48.578125 59.328125 45.03125 62.0625 
Q 41.5 64.796875 34.28125 64.796875 
z
M 9.8125 72.90625 
L 35.015625 72.90625 
Q 46.296875 72.90625 52.390625 68.21875 
Q 58.5 63.53125 58.5 54.890625 
Q 58.5 48.1875 55.375 44.234375 
Q 52.25 40.28125 46.1875 39.3125 
Q 53.46875 37.75 57.5 32.78125 
Q 61.53125 27.828125 61.53125 20.40625 
Q 61.53125 10.640625 54.890625 5.3125 
Q 48.25 0 35.984375 0 
L 9.8125 0 
z
" id="DejaVuSans-66"/>
      <path d="M 9.8125 72.90625 
L 19.671875 72.90625 
L 19.671875 0 
L 9.8125 0 
z
" id="DejaVuSans-73"/>
      <path d="M 19.671875 64.796875 
L 19.671875 37.40625 
L 32.078125 37.40625 
Q 38.96875 37.40625 42.71875 40.96875 
Q 46.484375 44.53125 46.484375 51.125 
Q 46.484375 57.671875 42.71875 61.234375 
Q 38.96875 64.796875 32.078125 64.796875 
z
M 9.8125 72.90625 
L 32.078125 72.90625 
Q 44.34375 72.90625 50.609375 67.359375 
Q 56.890625 61.8125 56.890625 51.125 
Q 56.890625 40.328125 50.609375 34.8125 
Q 44.34375 29.296875 32.078125 29.296875 
L 19.671875 29.296875 
L 19.671875 0 
L 9.8125 0 
z
" id="DejaVuSans-80"/>
      <path d="M 39.40625 66.21875 
Q 28.65625 66.21875 22.328125 58.203125 
Q 16.015625 50.203125 16.015625 36.375 
Q 16.015625 22.609375 22.328125 14.59375 
Q 28.65625 6.59375 39.40625 6.59375 
Q 50.140625 6.59375 56.421875 14.59375 
Q 62.703125 22.609375 62.703125 36.375 
Q 62.703125 50.203125 56.421875 58.203125 
Q 50.140625 66.21875 39.40625 66.21875 
z
M 39.40625 74.21875 
Q 54.734375 74.21875 63.90625 63.9375 
Q 73.09375 53.65625 73.09375 36.375 
Q 73.09375 19.140625 63.90625 8.859375 
Q 54.734375 -1.421875 39.40625 -1.421875 
Q 24.03125 -1.421875 14.8125 8.828125 
Q 5.609375 19.09375 5.609375 36.375 
Q 5.609375 53.65625 14.8125 63.9375 
Q 24.03125 74.21875 39.40625 74.21875 
z
" id="DejaVuSans-79"/>
      <path d="M 64.40625 67.28125 
L 64.40625 56.890625 
Q 59.421875 61.53125 53.78125 63.8125 
Q 48.140625 66.109375 41.796875 66.109375 
Q 29.296875 66.109375 22.65625 58.46875 
Q 16.015625 50.828125 16.015625 36.375 
Q 16.015625 21.96875 22.65625 14.328125 
Q 29.296875 6.6875 41.796875 6.6875 
Q 48.140625 6.6875 53.78125 8.984375 
Q 59.421875 11.28125 64.40625 15.921875 
L 64.40625 5.609375 
Q 59.234375 2.09375 53.4375 0.328125 
Q 47.65625 -1.421875 41.21875 -1.421875 
Q 24.65625 -1.421875 15.125 8.703125 
Q 5.609375 18.84375 5.609375 36.375 
Q 5.609375 53.953125 15.125 64.078125 
Q 24.65625 74.21875 41.21875 74.21875 
Q 47.75 74.21875 53.53125 72.484375 
Q 59.328125 70.75 64.40625 67.28125 
z
" id="DejaVuSans-67"/>
      <path d="M 9.8125 72.90625 
L 24.515625 72.90625 
L 43.109375 23.296875 
L 61.8125 72.90625 
L 76.515625 72.90625 
L 76.515625 0 
L 66.890625 0 
L 66.890625 64.015625 
L 48.09375 14.015625 
L 38.1875 14.015625 
L 19.390625 64.015625 
L 19.390625 0 
L 9.8125 0 
z
" id="DejaVuSans-77"/>
      <path d="M 34.1875 63.1875 
L 20.796875 26.90625 
L 47.609375 26.90625 
z
M 28.609375 72.90625 
L 39.796875 72.90625 
L 67.578125 0 
L 57.328125 0 
L 50.6875 18.703125 
L 17.828125 18.703125 
L 11.1875 0 
L 0.78125 0 
z
" id="DejaVuSans-65"/>
     </defs>
     <use xlink:href="#DejaVuSans-66"/>
     <use x="68.603516" xlink:href="#DejaVuSans-73"/>
     <use x="98.095703" xlink:href="#DejaVuSans-80"/>
     <use x="158.398438" xlink:href="#DejaVuSans-79"/>
     <use x="237.109375" xlink:href="#DejaVuSans-80"/>
     <use x="295.162109" xlink:href="#DejaVuSans-45"/>
     <use x="331.246094" xlink:href="#DejaVuSans-67"/>
     <use x="401.070312" xlink:href="#DejaVuSans-77"/>
     <use x="487.349609" xlink:href="#DejaVuSans-65"/>
    </g>
   </g>
   <g id="text_15">
    <!-- best 2009 -->
    <g transform="translate(375.22944 40.397235)scale(0.17 -0.17)">
     <defs>
      <path d="M 48.6875 27.296875 
Q 48.6875 37.203125 44.609375 42.84375 
Q 40.53125 48.484375 33.40625 48.484375 
Q 26.265625 48.484375 22.1875 42.84375 
Q 18.109375 37.203125 18.109375 27.296875 
Q 18.109375 17.390625 22.1875 11.75 
Q 26.265625 6.109375 33.40625 6.109375 
Q 40.53125 6.109375 44.609375 11.75 
Q 48.6875 17.390625 48.6875 27.296875 
z
M 18.109375 46.390625 
Q 20.953125 51.265625 25.265625 53.625 
Q 29.59375 56 35.59375 56 
Q 45.5625 56 51.78125 48.09375 
Q 58.015625 40.1875 58.015625 27.296875 
Q 58.015625 14.40625 51.78125 6.484375 
Q 45.5625 -1.421875 35.59375 -1.421875 
Q 29.59375 -1.421875 25.265625 0.953125 
Q 20.953125 3.328125 18.109375 8.203125 
L 18.109375 0 
L 9.078125 0 
L 9.078125 75.984375 
L 18.109375 75.984375 
z
" id="DejaVuSans-98"/>
      <path d="M 10.984375 1.515625 
L 10.984375 10.5 
Q 14.703125 8.734375 18.5 7.8125 
Q 22.3125 6.890625 25.984375 6.890625 
Q 35.75 6.890625 40.890625 13.453125 
Q 46.046875 20.015625 46.78125 33.40625 
Q 43.953125 29.203125 39.59375 26.953125 
Q 35.25 24.703125 29.984375 24.703125 
Q 19.046875 24.703125 12.671875 31.3125 
Q 6.296875 37.9375 6.296875 49.421875 
Q 6.296875 60.640625 12.9375 67.421875 
Q 19.578125 74.21875 30.609375 74.21875 
Q 43.265625 74.21875 49.921875 64.515625 
Q 56.59375 54.828125 56.59375 36.375 
Q 56.59375 19.140625 48.40625 8.859375 
Q 40.234375 -1.421875 26.421875 -1.421875 
Q 22.703125 -1.421875 18.890625 -0.6875 
Q 15.09375 0.046875 10.984375 1.515625 
z
M 30.609375 32.421875 
Q 37.25 32.421875 41.125 36.953125 
Q 45.015625 41.5 45.015625 49.421875 
Q 45.015625 57.28125 41.125 61.84375 
Q 37.25 66.40625 30.609375 66.40625 
Q 23.96875 66.40625 20.09375 61.84375 
Q 16.21875 57.28125 16.21875 49.421875 
Q 16.21875 41.5 20.09375 36.953125 
Q 23.96875 32.421875 30.609375 32.421875 
z
" id="DejaVuSans-57"/>
     </defs>
     <use xlink:href="#DejaVuSans-98"/>
     <use x="63.476562" xlink:href="#DejaVuSans-101"/>
     <use x="125" xlink:href="#DejaVuSans-115"/>
     <use x="177.099609" xlink:href="#DejaVuSans-116"/>
     <use x="216.308594" xlink:href="#DejaVuSans-32"/>
     <use x="248.095703" xlink:href="#DejaVuSans-50"/>
     <use x="311.71875" xlink:href="#DejaVuSans-48"/>
     <use x="375.341797" xlink:href="#DejaVuSans-48"/>
     <use x="438.964844" xlink:href="#DejaVuSans-57"/>
    </g>
   </g>
   <g id="text_16">
    <!-- bbob f18, 5-D -->
    <g transform="translate(60.41088 38.111366)scale(0.102 -0.102)">
     <defs>
      <path d="M 10.796875 72.90625 
L 49.515625 72.90625 
L 49.515625 64.59375 
L 19.828125 64.59375 
L 19.828125 46.734375 
Q 21.96875 47.46875 24.109375 47.828125 
Q 26.265625 48.1875 28.421875 48.1875 
Q 40.625 48.1875 47.75 41.5 
Q 54.890625 34.8125 54.890625 23.390625 
Q 54.890625 11.625 47.5625 5.09375 
Q 40.234375 -1.421875 26.90625 -1.421875 
Q 22.3125 -1.421875 17.546875 -0.640625 
Q 12.796875 0.140625 7.71875 1.703125 
L 7.71875 11.625 
Q 12.109375 9.234375 16.796875 8.0625 
Q 21.484375 6.890625 26.703125 6.890625 
Q 35.15625 6.890625 40.078125 11.328125 
Q 45.015625 15.765625 45.015625 23.390625 
Q 45.015625 31 40.078125 35.4375 
Q 35.15625 39.890625 26.703125 39.890625 
Q 22.75 39.890625 18.8125 39.015625 
Q 14.890625 38.140625 10.796875 36.28125 
z
" id="DejaVuSans-53"/>
     </defs>
     <use xlink:href="#DejaVuSans-98"/>
     <use x="63.476562" xlink:href="#DejaVuSans-98"/>
     <use x="126.953125" xlink:href="#DejaVuSans-111"/>
     <use x="188.134766" xlink:href="#DejaVuSans-98"/>
     <use x="251.611328" xlink:href="#DejaVuSans-32"/>
     <use x="283.398438" xlink:href="#DejaVuSans-102"/>
     <use x="318.603516" xlink:href="#DejaVuSans-49"/>
     <use x="382.226562" xlink:href="#DejaVuSans-56"/>
     <use x="445.849609" xlink:href="#DejaVuSans-44"/>
     <use x="477.636719" xlink:href="#DejaVuSans-32"/>
     <use x="509.423828" xlink:href="#DejaVuSans-53"/>
     <use x="573.046875" xlink:href="#DejaVuSans-45"/>
     <use x="609.130859" xlink:href="#DejaVuSans-68"/>
    </g>
    <!-- 51 targets: 100..1e-08 -->
    <g transform="translate(60.41088 49.533135)scale(0.102 -0.102)">
     <defs>
      <path d="M 11.71875 12.40625 
L 22.015625 12.40625 
L 22.015625 0 
L 11.71875 0 
z
M 11.71875 51.703125 
L 22.015625 51.703125 
L 22.015625 39.3125 
L 11.71875 39.3125 
z
" id="DejaVuSans-58"/>
     </defs>
     <use xlink:href="#DejaVuSans-53"/>
     <use x="63.623047" xlink:href="#DejaVuSans-49"/>
     <use x="127.246094" xlink:href="#DejaVuSans-32"/>
     <use x="159.033203" xlink:href="#DejaVuSans-116"/>
     <use x="198.242188" xlink:href="#DejaVuSans-97"/>
     <use x="259.521484" xlink:href="#DejaVuSans-114"/>
     <use x="298.884766" xlink:href="#DejaVuSans-103"/>
     <use x="362.361328" xlink:href="#DejaVuSans-101"/>
     <use x="423.884766" xlink:href="#DejaVuSans-116"/>
     <use x="463.09375" xlink:href="#DejaVuSans-115"/>
     <use x="515.193359" xlink:href="#DejaVuSans-58"/>
     <use x="548.884766" xlink:href="#DejaVuSans-32"/>
     <use x="580.671875" xlink:href="#DejaVuSans-49"/>
     <use x="644.294922" xlink:href="#DejaVuSans-48"/>
     <use x="707.917969" xlink:href="#DejaVuSans-48"/>
     <use x="771.541016" xlink:href="#DejaVuSans-46"/>
     <use x="803.328125" xlink:href="#DejaVuSans-46"/>
     <use x="835.115234" xlink:href="#DejaVuSans-49"/>
     <use x="898.738281" xlink:href="#DejaVuSans-101"/>
     <use x="960.261719" xlink:href="#DejaVuSans-45"/>
     <use x="996.345703" xlink:href="#DejaVuSans-48"/>
     <use x="1059.96875" xlink:href="#DejaVuSans-56"/>
    </g>
    <!-- 15 instances -->
    <g transform="translate(60.41088 60.954904)scale(0.102 -0.102)">
     <use xlink:href="#DejaVuSans-49"/>
     <use x="63.623047" xlink:href="#DejaVuSans-53"/>
     <use x="127.246094" xlink:href="#DejaVuSans-32"/>
     <use x="159.033203" xlink:href="#DejaVuSans-105"/>
     <use x="186.816406" xlink:href="#DejaVuSans-110"/>
     <use x="250.195312" xlink:href="#DejaVuSans-115"/>
     <use x="302.294922" xlink:href="#DejaVuSans-116"/>
     <use x="341.503906" xlink:href="#DejaVuSans-97"/>
     <use x="402.783203" xlink:href="#DejaVuSans-110"/>
     <use x="466.162109" xlink:href="#DejaVuSans-99"/>
     <use x="521.142578" xlink:href="#DejaVuSans-101"/>
     <use x="582.666016" xlink:href="#DejaVuSans-115"/>
    </g>
   </g>
   <g id="text_17">
    <!-- v2.4 -->
    <g style="fill:#808080;" transform="translate(187.233062 294.151352)scale(0.1 -0.1)">
     <use xlink:href="#DejaVuSans-118"/>
     <use x="59.179688" xlink:href="#DejaVuSans-50"/>
     <use x="122.802734" xlink:href="#DejaVuSans-46"/>
     <use x="154.589844" xlink:href="#DejaVuSans-52"/>
    </g>
   </g>
   <g id="text_18">
    <!-- 18 Schaffer F7, condition 1000 -->
    <g transform="translate(44.111187 21.648)scale(0.2 -0.2)">
     <defs>
      <path d="M 53.515625 70.515625 
L 53.515625 60.890625 
Q 47.90625 63.578125 42.921875 64.890625 
Q 37.9375 66.21875 33.296875 66.21875 
Q 25.25 66.21875 20.875 63.09375 
Q 16.5 59.96875 16.5 54.203125 
Q 16.5 49.359375 19.40625 46.890625 
Q 22.3125 44.4375 30.421875 42.921875 
L 36.375 41.703125 
Q 47.40625 39.59375 52.65625 34.296875 
Q 57.90625 29 57.90625 20.125 
Q 57.90625 9.515625 50.796875 4.046875 
Q 43.703125 -1.421875 29.984375 -1.421875 
Q 24.8125 -1.421875 18.96875 -0.25 
Q 13.140625 0.921875 6.890625 3.21875 
L 6.890625 13.375 
Q 12.890625 10.015625 18.65625 8.296875 
Q 24.421875 6.59375 29.984375 6.59375 
Q 38.421875 6.59375 43.015625 9.90625 
Q 47.609375 13.234375 47.609375 19.390625 
Q 47.609375 24.75 44.3125 27.78125 
Q 41.015625 30.8125 33.5 32.328125 
L 27.484375 33.5 
Q 16.453125 35.6875 11.515625 40.375 
Q 6.59375 45.0625 6.59375 53.421875 
Q 6.59375 63.09375 13.40625 68.65625 
Q 20.21875 74.21875 32.171875 74.21875 
Q 37.3125 74.21875 42.625 73.28125 
Q 47.953125 72.359375 53.515625 70.515625 
z
" id="DejaVuSans-83"/>
      <path d="M 54.890625 33.015625 
L 54.890625 0 
L 45.90625 0 
L 45.90625 32.71875 
Q 45.90625 40.484375 42.875 44.328125 
Q 39.84375 48.1875 33.796875 48.1875 
Q 26.515625 48.1875 22.3125 43.546875 
Q 18.109375 38.921875 18.109375 30.90625 
L 18.109375 0 
L 9.078125 0 
L 9.078125 75.984375 
L 18.109375 75.984375 
L 18.109375 46.1875 
Q 21.34375 51.125 25.703125 53.5625 
Q 30.078125 56 35.796875 56 
Q 45.21875 56 50.046875 50.171875 
Q 54.890625 44.34375 54.890625 33.015625 
z
" id="DejaVuSans-104"/>
      <path d="M 8.203125 72.90625 
L 55.078125 72.90625 
L 55.078125 68.703125 
L 28.609375 0 
L 18.3125 0 
L 43.21875 64.59375 
L 8.203125 64.59375 
z
" id="DejaVuSans-55"/>
     </defs>
     <use xlink:href="#DejaVuSans-49"/>
     <use x="63.623047" xlink:href="#DejaVuSans-56"/>
     <use x="127.246094" xlink:href="#DejaVuSans-32"/>
     <use x="159.033203" xlink:href="#DejaVuSans-83"/>
     <use x="222.509766" xlink:href="#DejaVuSans-99"/>
     <use x="277.490234" xlink:href="#DejaVuSans-104"/>
     <use x="340.869141" xlink:href="#DejaVuSans-97"/>
     <use x="402.148438" xlink:href="#DejaVuSans-102"/>
     <use x="437.353516" xlink:href="#DejaVuSans-102"/>
     <use x="472.558594" xlink:href="#DejaVuSans-101"/>
     <use x="534.082031" xlink:href="#DejaVuSans-114"/>
     <use x="575.195312" xlink:href="#DejaVuSans-32"/>
     <use x="606.982422" xlink:href="#DejaVuSans-70"/>
     <use x="664.501953" xlink:href="#DejaVuSans-55"/>
     <use x="728.125" xlink:href="#DejaVuSans-44"/>
     <use x="759.912109" xlink:href="#DejaVuSans-32"/>
     <use x="791.699219" xlink:href="#DejaVuSans-99"/>
     <use x="846.679688" xlink:href="#DejaVuSans-111"/>
     <use x="907.861328" xlink:href="#DejaVuSans-110"/>
     <use x="971.240234" xlink:href="#DejaVuSans-100"/>
     <use x="1034.716797" xlink:href="#DejaVuSans-105"/>
     <use x="1062.5" xlink:href="#DejaVuSans-116"/>
     <use x="1101.708984" xlink:href="#DejaVuSans-105"/>
     <use x="1129.492188" xlink:href="#DejaVuSans-111"/>
     <use x="1190.673828" xlink:href="#DejaVuSans-110"/>
     <use x="1254.052734" xlink:href="#DejaVuSans-32"/>
     <use x="1285.839844" xlink:href="#DejaVuSans-49"/>
     <use x="1349.462891" xlink:href="#DejaVuSans-48"/>
     <use x="1413.085938" xlink:href="#DejaVuSans-48"/>
     <use x="1476.708984" xlink:href="#DejaVuSans-48"/>
    </g>
   </g>
  </g>
 </g>
 <defs>
  <clipPath id="paef787ccbf">
   <rect height="271.296" width="281.088" x="57.6" y="27.648"/>
  </clipPath>
 </defs>
</svg>
