<?xml version="1.0" encoding="utf-8" standalone="no"?>
<!DOCTYPE svg PUBLIC "-//W3C//DTD SVG 1.1//EN"
  "http://www.w3.org/Graphics/SVG/1.1/DTD/svg11.dtd">
<!-- Created with matplotlib (https://matplotlib.org/) -->
<svg height="345.6pt" version="1.1" viewBox="0 0 460.8 345.6" width="460.8pt" xmlns="http://www.w3.org/2000/svg" xmlns:xlink="http://www.w3.org/1999/xlink">
 <metadata>
  <rdf:RDF xmlns:cc="http://creativecommons.org/ns#" xmlns:dc="http://purl.org/dc/elements/1.1/" xmlns:rdf="http://www.w3.org/1999/02/22-rdf-syntax-ns#">
   <cc:Work>
    <dc:type rdf:resource="http://purl.org/dc/dcmitype/StillImage"/>
    <dc:date>2021-05-02T04:47:03.343762</dc:date>
    <dc:format>image/svg+xml</dc:format>
    <dc:creator>
     <cc:Agent>
      <dc:title>Matplotlib v3.3.2, https://matplotlib.org/</dc:title>
     </cc:Agent>
    </dc:creator>
   </cc:Work>
  </rdf:RDF>
 </metadata>
 <defs>
  <style type="text/css">*{stroke-linecap:butt;stroke-linejoin:round;}</style>
 </defs>
 <g id="figure_1">
  <g id="patch_1">
   <path d="M 0 345.6 
L 460.8 345.6 
L 460.8 0 
L 0 0 
z
" style="fill:#ffffff;"/>
  </g>
  <g id="axes_1">
   <g id="patch_2">
    <path d="M 57.6 298.944 
L 338.688 298.944 
L 338.688 27.648 
L 57.6 27.648 
z
" style="fill:#ffffff;"/>
   </g>
   <g id="line2d_1">
    <path d="M 102.597126 298.944 
L 102.597126 293.677139 
L 110.103064 293.677139 
L 110.103064 288.410278 
L 112.128456 288.410278 
L 112.128456 283.143418 
L 113.664983 283.143418 
L 113.664983 277.876557 
L 115.269727 277.876557 
L 115.269727 272.609696 
L 118.363901 272.609696 
L 118.363901 267.342835 
L 122.906394 267.342835 
L 122.906394 262.075974 
L 132.350712 262.075974 
L 132.350712 256.809114 
L 134.300504 256.809114 
L 134.300504 251.542253 
L 135.522271 251.542253 
L 135.522271 246.275392 
L 136.475687 246.275392 
L 136.475687 241.008531 
L 137.289545 241.008531 
L 137.289545 235.74167 
L 138.049816 235.74167 
L 138.049816 230.47481 
L 138.745106 230.47481 
L 138.745106 225.207949 
L 139.333553 225.207949 
L 139.333553 219.941088 
L 139.793552 219.941088 
L 139.793552 214.674227 
L 140.195896 214.674227 
L 140.195896 209.407366 
L 140.619053 209.407366 
L 140.619053 204.140506 
L 140.900458 204.140506 
L 140.900458 198.873645 
L 141.090414 198.873645 
L 141.090414 193.606784 
L 141.335737 193.606784 
L 141.335737 188.339923 
L 141.549369 188.339923 
L 141.549369 183.073062 
L 141.704386 183.073062 
L 141.704386 177.806202 
L 141.830201 177.806202 
L 141.830201 172.539341 
L 141.913576 172.539341 
L 141.913576 167.27248 
L 142.037896 167.27248 
L 142.037896 162.005619 
L 142.120287 162.005619 
L 142.120287 156.738758 
L 142.243147 156.738758 
L 142.243147 151.471897 
L 142.297475 151.471897 
L 142.297475 146.205037 
L 142.365148 146.205037 
L 142.365148 140.938176 
L 142.419098 140.938176 
L 142.419098 135.671315 
L 142.499711 135.671315 
L 142.499711 130.404454 
L 142.606619 130.404454 
L 142.606619 125.137593 
L 142.646541 125.137593 
L 142.646541 119.870733 
L 142.673105 119.870733 
L 142.673105 114.603872 
L 142.686372 114.603872 
L 142.686372 109.337011 
L 142.739338 109.337011 
L 142.739338 104.07015 
L 142.765762 104.07015 
L 142.765762 98.803289 
L 142.805321 98.803289 
L 142.805321 93.536429 
L 142.871056 93.536429 
L 142.871056 88.269568 
L 142.923465 88.269568 
L 142.923465 83.002707 
L 142.949611 83.002707 
L 142.949611 77.735846 
L 142.975718 77.735846 
L 142.975718 72.468985 
L 143.027814 72.468985 
L 143.027814 67.202125 
L 143.040814 67.202125 
L 143.040814 61.935264 
L 143.053804 61.935264 
L 143.053804 56.668403 
L 143.079756 56.668403 
L 143.079756 51.401542 
L 143.11861 51.401542 
L 143.11861 46.134681 
L 143.131543 46.134681 
L 143.131543 40.867821 
L 143.144465 40.867821 
L 143.144465 35.60096 
L 143.157379 35.60096 
L 143.157379 30.334099 
L 338.688 30.334099 
" style="fill:none;stroke:#f5deb3;stroke-linecap:square;stroke-width:4;"/>
   </g>
   <g id="line2d_2">
    <defs>
     <path d="M -0 7.778175 
L 7.778175 0 
L 0 -7.778175 
L -7.778175 -0 
z
" id="md18b928a4c" style="stroke:#f5deb3;stroke-linejoin:miter;stroke-width:1.5;"/>
    </defs>
    <g>
     <use style="fill:#f5deb3;stroke:#f5deb3;stroke-linejoin:miter;stroke-width:1.5;" x="138.049816" xlink:href="#md18b928a4c" y="235.74167"/>
     <use style="fill:#f5deb3;stroke:#f5deb3;stroke-linejoin:miter;stroke-width:1.5;" x="143.053804" xlink:href="#md18b928a4c" y="61.935264"/>
     <use style="fill:#f5deb3;stroke:#f5deb3;stroke-linejoin:miter;stroke-width:1.5;" x="143.157379" xlink:href="#md18b928a4c" y="35.60096"/>
     <use style="fill:#f5deb3;stroke:#f5deb3;stroke-linejoin:miter;stroke-width:1.5;" x="143.157379" xlink:href="#md18b928a4c" y="30.334099"/>
     <use style="fill:#f5deb3;stroke:#f5deb3;stroke-linejoin:miter;stroke-width:1.5;" x="338.688" xlink:href="#md18b928a4c" y="30.334099"/>
    </g>
   </g>
   <g id="line2d_3">
    <path style="fill:none;stroke:#f5deb3;stroke-linecap:square;stroke-width:4;"/>
    <g/>
   </g>
   <g id="line2d_4">
    <path d="M 338.688 30.334099 
L 369.60768 35.706297 
" style="fill:none;stroke:#f5deb3;stroke-linecap:square;stroke-width:4;"/>
    <g>
     <use style="fill:#f5deb3;stroke:#f5deb3;stroke-linejoin:miter;stroke-width:1.5;" x="338.688" xlink:href="#md18b928a4c" y="30.334099"/>
     <use style="fill:#f5deb3;stroke:#f5deb3;stroke-linejoin:miter;stroke-width:1.5;" x="369.60768" xlink:href="#md18b928a4c" y="35.706297"/>
    </g>
   </g>
   <g id="matplotlib.axis_1">
    <g id="xtick_1">
     <g id="line2d_5">
      <path clip-path="url(#p05b1e5396d)" d="M 57.6 298.944 
L 57.6 27.648 
" style="fill:none;stroke:#b0b0b0;stroke-linecap:square;stroke-width:0.8;"/>
     </g>
     <g id="line2d_6">
      <defs>
       <path d="M 0 0 
L 0 3.5 
" id="m1d0033f624" style="stroke:#000000;stroke-width:0.8;"/>
      </defs>
      <g>
       <use style="stroke:#000000;stroke-width:0.8;" x="57.6" xlink:href="#m1d0033f624" y="298.944"/>
      </g>
     </g>
     <g id="text_1">
      <!-- 0 -->
      <g transform="translate(51.2375 321.140875)scale(0.2 -0.2)">
       <defs>
        <path d="M 31.78125 66.40625 
Q 24.171875 66.40625 20.328125 58.90625 
Q 16.5 51.421875 16.5 36.375 
Q 16.5 21.390625 20.328125 13.890625 
Q 24.171875 6.390625 31.78125 6.390625 
Q 39.453125 6.390625 43.28125 13.890625 
Q 47.125 21.390625 47.125 36.375 
Q 47.125 51.421875 43.28125 58.90625 
Q 39.453125 66.40625 31.78125 66.40625 
z
M 31.78125 74.21875 
Q 44.046875 74.21875 50.515625 64.515625 
Q 56.984375 54.828125 56.984375 36.375 
Q 56.984375 17.96875 50.515625 8.265625 
Q 44.046875 -1.421875 31.78125 -1.421875 
Q 19.53125 -1.421875 13.0625 8.265625 
Q 6.59375 17.96875 6.59375 36.375 
Q 6.59375 54.828125 13.0625 64.515625 
Q 19.53125 74.21875 31.78125 74.21875 
z
" id="DejaVuSans-48"/>
       </defs>
       <use xlink:href="#DejaVuSans-48"/>
      </g>
     </g>
    </g>
    <g id="xtick_2">
     <g id="line2d_7">
      <path clip-path="url(#p05b1e5396d)" d="M 137.910857 298.944 
L 137.910857 27.648 
" style="fill:none;stroke:#b0b0b0;stroke-linecap:square;stroke-width:0.8;"/>
     </g>
     <g id="line2d_8">
      <g>
       <use style="stroke:#000000;stroke-width:0.8;" x="137.910857" xlink:href="#m1d0033f624" y="298.944"/>
      </g>
     </g>
     <g id="text_2">
      <!-- 2 -->
      <g transform="translate(131.548357 321.140875)scale(0.2 -0.2)">
       <defs>
        <path d="M 19.1875 8.296875 
L 53.609375 8.296875 
L 53.609375 0 
L 7.328125 0 
L 7.328125 8.296875 
Q 12.9375 14.109375 22.625 23.890625 
Q 32.328125 33.6875 34.8125 36.53125 
Q 39.546875 41.84375 41.421875 45.53125 
Q 43.3125 49.21875 43.3125 52.78125 
Q 43.3125 58.59375 39.234375 62.25 
Q 35.15625 65.921875 28.609375 65.921875 
Q 23.96875 65.921875 18.8125 64.3125 
Q 13.671875 62.703125 7.8125 59.421875 
L 7.8125 69.390625 
Q 13.765625 71.78125 18.9375 73 
Q 24.125 74.21875 28.421875 74.21875 
Q 39.75 74.21875 46.484375 68.546875 
Q 53.21875 62.890625 53.21875 53.421875 
Q 53.21875 48.921875 51.53125 44.890625 
Q 49.859375 40.875 45.40625 35.40625 
Q 44.1875 33.984375 37.640625 27.21875 
Q 31.109375 20.453125 19.1875 8.296875 
z
" id="DejaVuSans-50"/>
       </defs>
       <use xlink:href="#DejaVuSans-50"/>
      </g>
     </g>
    </g>
    <g id="xtick_3">
     <g id="line2d_9">
      <path clip-path="url(#p05b1e5396d)" d="M 218.221714 298.944 
L 218.221714 27.648 
" style="fill:none;stroke:#b0b0b0;stroke-linecap:square;stroke-width:0.8;"/>
     </g>
     <g id="line2d_10">
      <g>
       <use style="stroke:#000000;stroke-width:0.8;" x="218.221714" xlink:href="#m1d0033f624" y="298.944"/>
      </g>
     </g>
     <g id="text_3">
      <!-- 4 -->
      <g transform="translate(211.859214 321.140875)scale(0.2 -0.2)">
       <defs>
        <path d="M 37.796875 64.3125 
L 12.890625 25.390625 
L 37.796875 25.390625 
z
M 35.203125 72.90625 
L 47.609375 72.90625 
L 47.609375 25.390625 
L 58.015625 25.390625 
L 58.015625 17.1875 
L 47.609375 17.1875 
L 47.609375 0 
L 37.796875 0 
L 37.796875 17.1875 
L 4.890625 17.1875 
L 4.890625 26.703125 
z
" id="DejaVuSans-52"/>
       </defs>
       <use xlink:href="#DejaVuSans-52"/>
      </g>
     </g>
    </g>
    <g id="xtick_4">
     <g id="line2d_11">
      <path clip-path="url(#p05b1e5396d)" d="M 298.532571 298.944 
L 298.532571 27.648 
" style="fill:none;stroke:#b0b0b0;stroke-linecap:square;stroke-width:0.8;"/>
     </g>
     <g id="line2d_12">
      <g>
       <use style="stroke:#000000;stroke-width:0.8;" x="298.532571" xlink:href="#m1d0033f624" y="298.944"/>
      </g>
     </g>
     <g id="text_4">
      <!-- 6 -->
      <g transform="translate(292.170071 321.140875)scale(0.2 -0.2)">
       <defs>
        <path d="M 33.015625 40.375 
Q 26.375 40.375 22.484375 35.828125 
Q 18.609375 31.296875 18.609375 23.390625 
Q 18.609375 15.53125 22.484375 10.953125 
Q 26.375 6.390625 33.015625 6.390625 
Q 39.65625 6.390625 43.53125 10.953125 
Q 47.40625 15.53125 47.40625 23.390625 
Q 47.40625 31.296875 43.53125 35.828125 
Q 39.65625 40.375 33.015625 40.375 
z
M 52.59375 71.296875 
L 52.59375 62.3125 
Q 48.875 64.0625 45.09375 64.984375 
Q 41.3125 65.921875 37.59375 65.921875 
Q 27.828125 65.921875 22.671875 59.328125 
Q 17.53125 52.734375 16.796875 39.40625 
Q 19.671875 43.65625 24.015625 45.921875 
Q 28.375 48.1875 33.59375 48.1875 
Q 44.578125 48.1875 50.953125 41.515625 
Q 57.328125 34.859375 57.328125 23.390625 
Q 57.328125 12.15625 50.6875 5.359375 
Q 44.046875 -1.421875 33.015625 -1.421875 
Q 20.359375 -1.421875 13.671875 8.265625 
Q 6.984375 17.96875 6.984375 36.375 
Q 6.984375 53.65625 15.1875 63.9375 
Q 23.390625 74.21875 37.203125 74.21875 
Q 40.921875 74.21875 44.703125 73.484375 
Q 48.484375 72.75 52.59375 71.296875 
z
" id="DejaVuSans-54"/>
       </defs>
       <use xlink:href="#DejaVuSans-54"/>
      </g>
     </g>
    </g>
    <g id="xtick_5">
     <g id="line2d_13">
      <path clip-path="url(#p05b1e5396d)" d="M 97.755429 298.944 
L 97.755429 27.648 
" style="fill:none;stroke:#b0b0b0;stroke-linecap:square;stroke-width:0.8;"/>
     </g>
     <g id="line2d_14">
      <defs>
       <path d="M 0 0 
L 0 2 
" id="mcfbfc184d7" style="stroke:#000000;stroke-width:0.6;"/>
      </defs>
      <g>
       <use style="stroke:#000000;stroke-width:0.6;" x="97.755429" xlink:href="#mcfbfc184d7" y="298.944"/>
      </g>
     </g>
    </g>
    <g id="xtick_6">
     <g id="line2d_15">
      <path clip-path="url(#p05b1e5396d)" d="M 178.066286 298.944 
L 178.066286 27.648 
" style="fill:none;stroke:#b0b0b0;stroke-linecap:square;stroke-width:0.8;"/>
     </g>
     <g id="line2d_16">
      <g>
       <use style="stroke:#000000;stroke-width:0.6;" x="178.066286" xlink:href="#mcfbfc184d7" y="298.944"/>
      </g>
     </g>
    </g>
    <g id="xtick_7">
     <g id="line2d_17">
      <path clip-path="url(#p05b1e5396d)" d="M 258.377143 298.944 
L 258.377143 27.648 
" style="fill:none;stroke:#b0b0b0;stroke-linecap:square;stroke-width:0.8;"/>
     </g>
     <g id="line2d_18">
      <g>
       <use style="stroke:#000000;stroke-width:0.6;" x="258.377143" xlink:href="#mcfbfc184d7" y="298.944"/>
      </g>
     </g>
    </g>
    <g id="xtick_8">
     <g id="line2d_19">
      <path clip-path="url(#p05b1e5396d)" d="M 338.688 298.944 
L 338.688 27.648 
" style="fill:none;stroke:#b0b0b0;stroke-linecap:square;stroke-width:0.8;"/>
     </g>
     <g id="line2d_20">
      <g>
       <use style="stroke:#000000;stroke-width:0.6;" x="338.688" xlink:href="#mcfbfc184d7" y="298.944"/>
      </g>
     </g>
    </g>
    <g id="text_5">
     <!-- log10(# f-evals / dimension) -->
     <g transform="translate(77.764078 342.217594)scale(0.17 -0.17)">
      <defs>
       <path d="M 9.421875 75.984375 
L 18.40625 75.984375 
L 18.40625 0 
L 9.421875 0 
z
" id="DejaVuSans-108"/>
       <path d="M 30.609375 48.390625 
Q 23.390625 48.390625 19.1875 42.75 
Q 14.984375 37.109375 14.984375 27.296875 
Q 14.984375 17.484375 19.15625 11.84375 
Q 23.34375 6.203125 30.609375 6.203125 
Q 37.796875 6.203125 41.984375 11.859375 
Q 46.1875 17.53125 46.1875 27.296875 
Q 46.1875 37.015625 41.984375 42.703125 
Q 37.796875 48.390625 30.609375 48.390625 
z
M 30.609375 56 
Q 42.328125 56 49.015625 48.375 
Q 55.71875 40.765625 55.71875 27.296875 
Q 55.71875 13.875 49.015625 6.21875 
Q 42.328125 -1.421875 30.609375 -1.421875 
Q 18.84375 -1.421875 12.171875 6.21875 
Q 5.515625 13.875 5.515625 27.296875 
Q 5.515625 40.765625 12.171875 48.375 
Q 18.84375 56 30.609375 56 
z
" id="DejaVuSans-111"/>
       <path d="M 45.40625 27.984375 
Q 45.40625 37.75 41.375 43.109375 
Q 37.359375 48.484375 30.078125 48.484375 
Q 22.859375 48.484375 18.828125 43.109375 
Q 14.796875 37.75 14.796875 27.984375 
Q 14.796875 18.265625 18.828125 12.890625 
Q 22.859375 7.515625 30.078125 7.515625 
Q 37.359375 7.515625 41.375 12.890625 
Q 45.40625 18.265625 45.40625 27.984375 
z
M 54.390625 6.78125 
Q 54.390625 -7.171875 48.1875 -13.984375 
Q 42 -20.796875 29.203125 -20.796875 
Q 24.46875 -20.796875 20.265625 -20.09375 
Q 16.0625 -19.390625 12.109375 -17.921875 
L 12.109375 -9.1875 
Q 16.0625 -11.328125 19.921875 -12.34375 
Q 23.78125 -13.375 27.78125 -13.375 
Q 36.625 -13.375 41.015625 -8.765625 
Q 45.40625 -4.15625 45.40625 5.171875 
L 45.40625 9.625 
Q 42.625 4.78125 38.28125 2.390625 
Q 33.9375 0 27.875 0 
Q 17.828125 0 11.671875 7.65625 
Q 5.515625 15.328125 5.515625 27.984375 
Q 5.515625 40.671875 11.671875 48.328125 
Q 17.828125 56 27.875 56 
Q 33.9375 56 38.28125 53.609375 
Q 42.625 51.21875 45.40625 46.390625 
L 45.40625 54.6875 
L 54.390625 54.6875 
z
" id="DejaVuSans-103"/>
       <path d="M 12.40625 8.296875 
L 28.515625 8.296875 
L 28.515625 63.921875 
L 10.984375 60.40625 
L 10.984375 69.390625 
L 28.421875 72.90625 
L 38.28125 72.90625 
L 38.28125 8.296875 
L 54.390625 8.296875 
L 54.390625 0 
L 12.40625 0 
z
" id="DejaVuSans-49"/>
       <path d="M 31 75.875 
Q 24.46875 64.65625 21.28125 53.65625 
Q 18.109375 42.671875 18.109375 31.390625 
Q 18.109375 20.125 21.3125 9.0625 
Q 24.515625 -2 31 -13.1875 
L 23.1875 -13.1875 
Q 15.875 -1.703125 12.234375 9.375 
Q 8.59375 20.453125 8.59375 31.390625 
Q 8.59375 42.28125 12.203125 53.3125 
Q 15.828125 64.359375 23.1875 75.875 
z
" id="DejaVuSans-40"/>
       <path d="M 51.125 44 
L 36.921875 44 
L 32.8125 27.6875 
L 47.125 27.6875 
z
M 43.796875 71.78125 
L 38.71875 51.515625 
L 52.984375 51.515625 
L 58.109375 71.78125 
L 65.921875 71.78125 
L 60.890625 51.515625 
L 76.125 51.515625 
L 76.125 44 
L 58.984375 44 
L 54.984375 27.6875 
L 70.515625 27.6875 
L 70.515625 20.21875 
L 53.078125 20.21875 
L 48 0 
L 40.1875 0 
L 45.21875 20.21875 
L 30.90625 20.21875 
L 25.875 0 
L 18.015625 0 
L 23.09375 20.21875 
L 7.71875 20.21875 
L 7.71875 27.6875 
L 24.90625 27.6875 
L 29 44 
L 13.28125 44 
L 13.28125 51.515625 
L 30.90625 51.515625 
L 35.890625 71.78125 
z
" id="DejaVuSans-35"/>
       <path id="DejaVuSans-32"/>
       <path d="M 37.109375 75.984375 
L 37.109375 68.5 
L 28.515625 68.5 
Q 23.6875 68.5 21.796875 66.546875 
Q 19.921875 64.59375 19.921875 59.515625 
L 19.921875 54.6875 
L 34.71875 54.6875 
L 34.71875 47.703125 
L 19.921875 47.703125 
L 19.921875 0 
L 10.890625 0 
L 10.890625 47.703125 
L 2.296875 47.703125 
L 2.296875 54.6875 
L 10.890625 54.6875 
L 10.890625 58.5 
Q 10.890625 67.625 15.140625 71.796875 
Q 19.390625 75.984375 28.609375 75.984375 
z
" id="DejaVuSans-102"/>
       <path d="M 4.890625 31.390625 
L 31.203125 31.390625 
L 31.203125 23.390625 
L 4.890625 23.390625 
z
" id="DejaVuSans-45"/>
       <path d="M 56.203125 29.59375 
L 56.203125 25.203125 
L 14.890625 25.203125 
Q 15.484375 15.921875 20.484375 11.0625 
Q 25.484375 6.203125 34.421875 6.203125 
Q 39.59375 6.203125 44.453125 7.46875 
Q 49.3125 8.734375 54.109375 11.28125 
L 54.109375 2.78125 
Q 49.265625 0.734375 44.1875 -0.34375 
Q 39.109375 -1.421875 33.890625 -1.421875 
Q 20.796875 -1.421875 13.15625 6.1875 
Q 5.515625 13.8125 5.515625 26.8125 
Q 5.515625 40.234375 12.765625 48.109375 
Q 20.015625 56 32.328125 56 
Q 43.359375 56 49.78125 48.890625 
Q 56.203125 41.796875 56.203125 29.59375 
z
M 47.21875 32.234375 
Q 47.125 39.59375 43.09375 43.984375 
Q 39.0625 48.390625 32.421875 48.390625 
Q 24.90625 48.390625 20.390625 44.140625 
Q 15.875 39.890625 15.1875 32.171875 
z
" id="DejaVuSans-101"/>
       <path d="M 2.984375 54.6875 
L 12.5 54.6875 
L 29.59375 8.796875 
L 46.6875 54.6875 
L 56.203125 54.6875 
L 35.6875 0 
L 23.484375 0 
z
" id="DejaVuSans-118"/>
       <path d="M 34.28125 27.484375 
Q 23.390625 27.484375 19.1875 25 
Q 14.984375 22.515625 14.984375 16.5 
Q 14.984375 11.71875 18.140625 8.90625 
Q 21.296875 6.109375 26.703125 6.109375 
Q 34.1875 6.109375 38.703125 11.40625 
Q 43.21875 16.703125 43.21875 25.484375 
L 43.21875 27.484375 
z
M 52.203125 31.203125 
L 52.203125 0 
L 43.21875 0 
L 43.21875 8.296875 
Q 40.140625 3.328125 35.546875 0.953125 
Q 30.953125 -1.421875 24.3125 -1.421875 
Q 15.921875 -1.421875 10.953125 3.296875 
Q 6 8.015625 6 15.921875 
Q 6 25.140625 12.171875 29.828125 
Q 18.359375 34.515625 30.609375 34.515625 
L 43.21875 34.515625 
L 43.21875 35.40625 
Q 43.21875 41.609375 39.140625 45 
Q 35.0625 48.390625 27.6875 48.390625 
Q 23 48.390625 18.546875 47.265625 
Q 14.109375 46.140625 10.015625 43.890625 
L 10.015625 52.203125 
Q 14.9375 54.109375 19.578125 55.046875 
Q 24.21875 56 28.609375 56 
Q 40.484375 56 46.34375 49.84375 
Q 52.203125 43.703125 52.203125 31.203125 
z
" id="DejaVuSans-97"/>
       <path d="M 44.28125 53.078125 
L 44.28125 44.578125 
Q 40.484375 46.53125 36.375 47.5 
Q 32.28125 48.484375 27.875 48.484375 
Q 21.1875 48.484375 17.84375 46.4375 
Q 14.5 44.390625 14.5 40.28125 
Q 14.5 37.15625 16.890625 35.375 
Q 19.28125 33.59375 26.515625 31.984375 
L 29.59375 31.296875 
Q 39.15625 29.25 43.1875 25.515625 
Q 47.21875 21.78125 47.21875 15.09375 
Q 47.21875 7.46875 41.1875 3.015625 
Q 35.15625 -1.421875 24.609375 -1.421875 
Q 20.21875 -1.421875 15.453125 -0.5625 
Q 10.6875 0.296875 5.421875 2 
L 5.421875 11.28125 
Q 10.40625 8.6875 15.234375 7.390625 
Q 20.0625 6.109375 24.8125 6.109375 
Q 31.15625 6.109375 34.5625 8.28125 
Q 37.984375 10.453125 37.984375 14.40625 
Q 37.984375 18.0625 35.515625 20.015625 
Q 33.0625 21.96875 24.703125 23.78125 
L 21.578125 24.515625 
Q 13.234375 26.265625 9.515625 29.90625 
Q 5.8125 33.546875 5.8125 39.890625 
Q 5.8125 47.609375 11.28125 51.796875 
Q 16.75 56 26.8125 56 
Q 31.78125 56 36.171875 55.265625 
Q 40.578125 54.546875 44.28125 53.078125 
z
" id="DejaVuSans-115"/>
       <path d="M 25.390625 72.90625 
L 33.6875 72.90625 
L 8.296875 -9.28125 
L 0 -9.28125 
z
" id="DejaVuSans-47"/>
       <path d="M 45.40625 46.390625 
L 45.40625 75.984375 
L 54.390625 75.984375 
L 54.390625 0 
L 45.40625 0 
L 45.40625 8.203125 
Q 42.578125 3.328125 38.25 0.953125 
Q 33.9375 -1.421875 27.875 -1.421875 
Q 17.96875 -1.421875 11.734375 6.484375 
Q 5.515625 14.40625 5.515625 27.296875 
Q 5.515625 40.1875 11.734375 48.09375 
Q 17.96875 56 27.875 56 
Q 33.9375 56 38.25 53.625 
Q 42.578125 51.265625 45.40625 46.390625 
z
M 14.796875 27.296875 
Q 14.796875 17.390625 18.875 11.75 
Q 22.953125 6.109375 30.078125 6.109375 
Q 37.203125 6.109375 41.296875 11.75 
Q 45.40625 17.390625 45.40625 27.296875 
Q 45.40625 37.203125 41.296875 42.84375 
Q 37.203125 48.484375 30.078125 48.484375 
Q 22.953125 48.484375 18.875 42.84375 
Q 14.796875 37.203125 14.796875 27.296875 
z
" id="DejaVuSans-100"/>
       <path d="M 9.421875 54.6875 
L 18.40625 54.6875 
L 18.40625 0 
L 9.421875 0 
z
M 9.421875 75.984375 
L 18.40625 75.984375 
L 18.40625 64.59375 
L 9.421875 64.59375 
z
" id="DejaVuSans-105"/>
       <path d="M 52 44.1875 
Q 55.375 50.25 60.0625 53.125 
Q 64.75 56 71.09375 56 
Q 79.640625 56 84.28125 50.015625 
Q 88.921875 44.046875 88.921875 33.015625 
L 88.921875 0 
L 79.890625 0 
L 79.890625 32.71875 
Q 79.890625 40.578125 77.09375 44.375 
Q 74.3125 48.1875 68.609375 48.1875 
Q 61.625 48.1875 57.5625 43.546875 
Q 53.515625 38.921875 53.515625 30.90625 
L 53.515625 0 
L 44.484375 0 
L 44.484375 32.71875 
Q 44.484375 40.625 41.703125 44.40625 
Q 38.921875 48.1875 33.109375 48.1875 
Q 26.21875 48.1875 22.15625 43.53125 
Q 18.109375 38.875 18.109375 30.90625 
L 18.109375 0 
L 9.078125 0 
L 9.078125 54.6875 
L 18.109375 54.6875 
L 18.109375 46.1875 
Q 21.1875 51.21875 25.484375 53.609375 
Q 29.78125 56 35.6875 56 
Q 41.65625 56 45.828125 52.96875 
Q 50 49.953125 52 44.1875 
z
" id="DejaVuSans-109"/>
       <path d="M 54.890625 33.015625 
L 54.890625 0 
L 45.90625 0 
L 45.90625 32.71875 
Q 45.90625 40.484375 42.875 44.328125 
Q 39.84375 48.1875 33.796875 48.1875 
Q 26.515625 48.1875 22.3125 43.546875 
Q 18.109375 38.921875 18.109375 30.90625 
L 18.109375 0 
L 9.078125 0 
L 9.078125 54.6875 
L 18.109375 54.6875 
L 18.109375 46.1875 
Q 21.34375 51.125 25.703125 53.5625 
Q 30.078125 56 35.796875 56 
Q 45.21875 56 50.046875 50.171875 
Q 54.890625 44.34375 54.890625 33.015625 
z
" id="DejaVuSans-110"/>
       <path d="M 8.015625 75.875 
L 15.828125 75.875 
Q 23.140625 64.359375 26.78125 53.3125 
Q 30.421875 42.28125 30.421875 31.390625 
Q 30.421875 20.453125 26.78125 9.375 
Q 23.140625 -1.703125 15.828125 -13.1875 
L 8.015625 -13.1875 
Q 14.5 -2 17.703125 9.0625 
Q 20.90625 20.125 20.90625 31.390625 
Q 20.90625 42.671875 17.703125 53.65625 
Q 14.5 64.65625 8.015625 75.875 
z
" id="DejaVuSans-41"/>
      </defs>
      <use xlink:href="#DejaVuSans-108"/>
      <use x="27.783203" xlink:href="#DejaVuSans-111"/>
      <use x="88.964844" xlink:href="#DejaVuSans-103"/>
      <use x="152.441406" xlink:href="#DejaVuSans-49"/>
      <use x="216.064453" xlink:href="#DejaVuSans-48"/>
      <use x="279.6875" xlink:href="#DejaVuSans-40"/>
      <use x="318.701172" xlink:href="#DejaVuSans-35"/>
      <use x="402.490234" xlink:href="#DejaVuSans-32"/>
      <use x="434.277344" xlink:href="#DejaVuSans-102"/>
      <use x="463.982422" xlink:href="#DejaVuSans-45"/>
      <use x="500.066406" xlink:href="#DejaVuSans-101"/>
      <use x="561.589844" xlink:href="#DejaVuSans-118"/>
      <use x="620.769531" xlink:href="#DejaVuSans-97"/>
      <use x="682.048828" xlink:href="#DejaVuSans-108"/>
      <use x="709.832031" xlink:href="#DejaVuSans-115"/>
      <use x="761.931641" xlink:href="#DejaVuSans-32"/>
      <use x="793.71875" xlink:href="#DejaVuSans-47"/>
      <use x="827.410156" xlink:href="#DejaVuSans-32"/>
      <use x="859.197266" xlink:href="#DejaVuSans-100"/>
      <use x="922.673828" xlink:href="#DejaVuSans-105"/>
      <use x="950.457031" xlink:href="#DejaVuSans-109"/>
      <use x="1047.869141" xlink:href="#DejaVuSans-101"/>
      <use x="1109.392578" xlink:href="#DejaVuSans-110"/>
      <use x="1172.771484" xlink:href="#DejaVuSans-115"/>
      <use x="1224.871094" xlink:href="#DejaVuSans-105"/>
      <use x="1252.654297" xlink:href="#DejaVuSans-111"/>
      <use x="1313.835938" xlink:href="#DejaVuSans-110"/>
      <use x="1377.214844" xlink:href="#DejaVuSans-41"/>
     </g>
    </g>
   </g>
   <g id="matplotlib.axis_2">
    <g id="ytick_1">
     <g id="line2d_21">
      <path clip-path="url(#p05b1e5396d)" d="M 57.6 298.944 
L 338.688 298.944 
" style="fill:none;stroke:#b0b0b0;stroke-linecap:square;stroke-width:0.8;"/>
     </g>
     <g id="line2d_22">
      <defs>
       <path d="M 0 0 
L -3.5 0 
" id="m3e3b563bdd" style="stroke:#000000;stroke-width:0.8;"/>
      </defs>
      <g>
       <use style="stroke:#000000;stroke-width:0.8;" x="57.6" xlink:href="#m3e3b563bdd" y="298.944"/>
      </g>
     </g>
     <g id="text_6">
      <!-- 0.0 -->
      <g transform="translate(25.155 305.02275)scale(0.16 -0.16)">
       <defs>
        <path d="M 10.6875 12.40625 
L 21 12.40625 
L 21 0 
L 10.6875 0 
z
" id="DejaVuSans-46"/>
       </defs>
       <use xlink:href="#DejaVuSans-48"/>
       <use x="63.623047" xlink:href="#DejaVuSans-46"/>
       <use x="95.410156" xlink:href="#DejaVuSans-48"/>
      </g>
     </g>
    </g>
    <g id="ytick_2">
     <g id="line2d_23">
      <path clip-path="url(#p05b1e5396d)" d="M 57.6 245.22202 
L 338.688 245.22202 
" style="fill:none;stroke:#b0b0b0;stroke-linecap:square;stroke-width:0.8;"/>
     </g>
     <g id="line2d_24">
      <g>
       <use style="stroke:#000000;stroke-width:0.8;" x="57.6" xlink:href="#m3e3b563bdd" y="245.22202"/>
      </g>
     </g>
     <g id="text_7">
      <!-- 0.2 -->
      <g transform="translate(25.155 251.30077)scale(0.16 -0.16)">
       <use xlink:href="#DejaVuSans-48"/>
       <use x="63.623047" xlink:href="#DejaVuSans-46"/>
       <use x="95.410156" xlink:href="#DejaVuSans-50"/>
      </g>
     </g>
    </g>
    <g id="ytick_3">
     <g id="line2d_25">
      <path clip-path="url(#p05b1e5396d)" d="M 57.6 191.50004 
L 338.688 191.50004 
" style="fill:none;stroke:#b0b0b0;stroke-linecap:square;stroke-width:0.8;"/>
     </g>
     <g id="line2d_26">
      <g>
       <use style="stroke:#000000;stroke-width:0.8;" x="57.6" xlink:href="#m3e3b563bdd" y="191.50004"/>
      </g>
     </g>
     <g id="text_8">
      <!-- 0.4 -->
      <g transform="translate(25.155 197.57879)scale(0.16 -0.16)">
       <use xlink:href="#DejaVuSans-48"/>
       <use x="63.623047" xlink:href="#DejaVuSans-46"/>
       <use x="95.410156" xlink:href="#DejaVuSans-52"/>
      </g>
     </g>
    </g>
    <g id="ytick_4">
     <g id="line2d_27">
      <path clip-path="url(#p05b1e5396d)" d="M 57.6 137.778059 
L 338.688 137.778059 
" style="fill:none;stroke:#b0b0b0;stroke-linecap:square;stroke-width:0.8;"/>
     </g>
     <g id="line2d_28">
      <g>
       <use style="stroke:#000000;stroke-width:0.8;" x="57.6" xlink:href="#m3e3b563bdd" y="137.778059"/>
      </g>
     </g>
     <g id="text_9">
      <!-- 0.6 -->
      <g transform="translate(25.155 143.856809)scale(0.16 -0.16)">
       <use xlink:href="#DejaVuSans-48"/>
       <use x="63.623047" xlink:href="#DejaVuSans-46"/>
       <use x="95.410156" xlink:href="#DejaVuSans-54"/>
      </g>
     </g>
    </g>
    <g id="ytick_5">
     <g id="line2d_29">
      <path clip-path="url(#p05b1e5396d)" d="M 57.6 84.056079 
L 338.688 84.056079 
" style="fill:none;stroke:#b0b0b0;stroke-linecap:square;stroke-width:0.8;"/>
     </g>
     <g id="line2d_30">
      <g>
       <use style="stroke:#000000;stroke-width:0.8;" x="57.6" xlink:href="#m3e3b563bdd" y="84.056079"/>
      </g>
     </g>
     <g id="text_10">
      <!-- 0.8 -->
      <g transform="translate(25.155 90.134829)scale(0.16 -0.16)">
       <defs>
        <path d="M 31.78125 34.625 
Q 24.75 34.625 20.71875 30.859375 
Q 16.703125 27.09375 16.703125 20.515625 
Q 16.703125 13.921875 20.71875 10.15625 
Q 24.75 6.390625 31.78125 6.390625 
Q 38.8125 6.390625 42.859375 10.171875 
Q 46.921875 13.96875 46.921875 20.515625 
Q 46.921875 27.09375 42.890625 30.859375 
Q 38.875 34.625 31.78125 34.625 
z
M 21.921875 38.8125 
Q 15.578125 40.375 12.03125 44.71875 
Q 8.5 49.078125 8.5 55.328125 
Q 8.5 64.0625 14.71875 69.140625 
Q 20.953125 74.21875 31.78125 74.21875 
Q 42.671875 74.21875 48.875 69.140625 
Q 55.078125 64.0625 55.078125 55.328125 
Q 55.078125 49.078125 51.53125 44.71875 
Q 48 40.375 41.703125 38.8125 
Q 48.828125 37.15625 52.796875 32.3125 
Q 56.78125 27.484375 56.78125 20.515625 
Q 56.78125 9.90625 50.3125 4.234375 
Q 43.84375 -1.421875 31.78125 -1.421875 
Q 19.734375 -1.421875 13.25 4.234375 
Q 6.78125 9.90625 6.78125 20.515625 
Q 6.78125 27.484375 10.78125 32.3125 
Q 14.796875 37.15625 21.921875 38.8125 
z
M 18.3125 54.390625 
Q 18.3125 48.734375 21.84375 45.5625 
Q 25.390625 42.390625 31.78125 42.390625 
Q 38.140625 42.390625 41.71875 45.5625 
Q 45.3125 48.734375 45.3125 54.390625 
Q 45.3125 60.0625 41.71875 63.234375 
Q 38.140625 66.40625 31.78125 66.40625 
Q 25.390625 66.40625 21.84375 63.234375 
Q 18.3125 60.0625 18.3125 54.390625 
z
" id="DejaVuSans-56"/>
       </defs>
       <use xlink:href="#DejaVuSans-48"/>
       <use x="63.623047" xlink:href="#DejaVuSans-46"/>
       <use x="95.410156" xlink:href="#DejaVuSans-56"/>
      </g>
     </g>
    </g>
    <g id="ytick_6">
     <g id="line2d_31">
      <path clip-path="url(#p05b1e5396d)" d="M 57.6 30.334099 
L 338.688 30.334099 
" style="fill:none;stroke:#b0b0b0;stroke-linecap:square;stroke-width:0.8;"/>
     </g>
     <g id="line2d_32">
      <g>
       <use style="stroke:#000000;stroke-width:0.8;" x="57.6" xlink:href="#m3e3b563bdd" y="30.334099"/>
      </g>
     </g>
     <g id="text_11">
      <!-- 1.0 -->
      <g transform="translate(25.155 36.412849)scale(0.16 -0.16)">
       <use xlink:href="#DejaVuSans-49"/>
       <use x="63.623047" xlink:href="#DejaVuSans-46"/>
       <use x="95.410156" xlink:href="#DejaVuSans-48"/>
      </g>
     </g>
    </g>
    <g id="text_12">
     <!-- Fraction of function,target pairs -->
     <g transform="translate(17.619531 297.681)rotate(-90)scale(0.17 -0.17)">
      <defs>
       <path d="M 9.8125 72.90625 
L 51.703125 72.90625 
L 51.703125 64.59375 
L 19.671875 64.59375 
L 19.671875 43.109375 
L 48.578125 43.109375 
L 48.578125 34.8125 
L 19.671875 34.8125 
L 19.671875 0 
L 9.8125 0 
z
" id="DejaVuSans-70"/>
       <path d="M 41.109375 46.296875 
Q 39.59375 47.171875 37.8125 47.578125 
Q 36.03125 48 33.890625 48 
Q 26.265625 48 22.1875 43.046875 
Q 18.109375 38.09375 18.109375 28.8125 
L 18.109375 0 
L 9.078125 0 
L 9.078125 54.6875 
L 18.109375 54.6875 
L 18.109375 46.1875 
Q 20.953125 51.171875 25.484375 53.578125 
Q 30.03125 56 36.53125 56 
Q 37.453125 56 38.578125 55.875 
Q 39.703125 55.765625 41.0625 55.515625 
z
" id="DejaVuSans-114"/>
       <path d="M 48.78125 52.59375 
L 48.78125 44.1875 
Q 44.96875 46.296875 41.140625 47.34375 
Q 37.3125 48.390625 33.40625 48.390625 
Q 24.65625 48.390625 19.8125 42.84375 
Q 14.984375 37.3125 14.984375 27.296875 
Q 14.984375 17.28125 19.8125 11.734375 
Q 24.65625 6.203125 33.40625 6.203125 
Q 37.3125 6.203125 41.140625 7.25 
Q 44.96875 8.296875 48.78125 10.40625 
L 48.78125 2.09375 
Q 45.015625 0.34375 40.984375 -0.53125 
Q 36.96875 -1.421875 32.421875 -1.421875 
Q 20.0625 -1.421875 12.78125 6.34375 
Q 5.515625 14.109375 5.515625 27.296875 
Q 5.515625 40.671875 12.859375 48.328125 
Q 20.21875 56 33.015625 56 
Q 37.15625 56 41.109375 55.140625 
Q 45.0625 54.296875 48.78125 52.59375 
z
" id="DejaVuSans-99"/>
       <path d="M 18.3125 70.21875 
L 18.3125 54.6875 
L 36.8125 54.6875 
L 36.8125 47.703125 
L 18.3125 47.703125 
L 18.3125 18.015625 
Q 18.3125 11.328125 20.140625 9.421875 
Q 21.96875 7.515625 27.59375 7.515625 
L 36.8125 7.515625 
L 36.8125 0 
L 27.59375 0 
Q 17.1875 0 13.234375 3.875 
Q 9.28125 7.765625 9.28125 18.015625 
L 9.28125 47.703125 
L 2.6875 47.703125 
L 2.6875 54.6875 
L 9.28125 54.6875 
L 9.28125 70.21875 
z
" id="DejaVuSans-116"/>
       <path d="M 8.5 21.578125 
L 8.5 54.6875 
L 17.484375 54.6875 
L 17.484375 21.921875 
Q 17.484375 14.15625 20.5 10.265625 
Q 23.53125 6.390625 29.59375 6.390625 
Q 36.859375 6.390625 41.078125 11.03125 
Q 45.3125 15.671875 45.3125 23.6875 
L 45.3125 54.6875 
L 54.296875 54.6875 
L 54.296875 0 
L 45.3125 0 
L 45.3125 8.40625 
Q 42.046875 3.421875 37.71875 1 
Q 33.40625 -1.421875 27.6875 -1.421875 
Q 18.265625 -1.421875 13.375 4.4375 
Q 8.5 10.296875 8.5 21.578125 
z
M 31.109375 56 
z
" id="DejaVuSans-117"/>
       <path d="M 11.71875 12.40625 
L 22.015625 12.40625 
L 22.015625 4 
L 14.015625 -11.625 
L 7.71875 -11.625 
L 11.71875 4 
z
" id="DejaVuSans-44"/>
       <path d="M 18.109375 8.203125 
L 18.109375 -20.796875 
L 9.078125 -20.796875 
L 9.078125 54.6875 
L 18.109375 54.6875 
L 18.109375 46.390625 
Q 20.953125 51.265625 25.265625 53.625 
Q 29.59375 56 35.59375 56 
Q 45.5625 56 51.78125 48.09375 
Q 58.015625 40.1875 58.015625 27.296875 
Q 58.015625 14.40625 51.78125 6.484375 
Q 45.5625 -1.421875 35.59375 -1.421875 
Q 29.59375 -1.421875 25.265625 0.953125 
Q 20.953125 3.328125 18.109375 8.203125 
z
M 48.6875 27.296875 
Q 48.6875 37.203125 44.609375 42.84375 
Q 40.53125 48.484375 33.40625 48.484375 
Q 26.265625 48.484375 22.1875 42.84375 
Q 18.109375 37.203125 18.109375 27.296875 
Q 18.109375 17.390625 22.1875 11.75 
Q 26.265625 6.109375 33.40625 6.109375 
Q 40.53125 6.109375 44.609375 11.75 
Q 48.6875 17.390625 48.6875 27.296875 
z
" id="DejaVuSans-112"/>
      </defs>
      <use xlink:href="#DejaVuSans-70"/>
      <use x="50.269531" xlink:href="#DejaVuSans-114"/>
      <use x="91.382812" xlink:href="#DejaVuSans-97"/>
      <use x="152.662109" xlink:href="#DejaVuSans-99"/>
      <use x="207.642578" xlink:href="#DejaVuSans-116"/>
      <use x="246.851562" xlink:href="#DejaVuSans-105"/>
      <use x="274.634766" xlink:href="#DejaVuSans-111"/>
      <use x="335.816406" xlink:href="#DejaVuSans-110"/>
      <use x="399.195312" xlink:href="#DejaVuSans-32"/>
      <use x="430.982422" xlink:href="#DejaVuSans-111"/>
      <use x="492.164062" xlink:href="#DejaVuSans-102"/>
      <use x="527.369141" xlink:href="#DejaVuSans-32"/>
      <use x="559.15625" xlink:href="#DejaVuSans-102"/>
      <use x="594.361328" xlink:href="#DejaVuSans-117"/>
      <use x="657.740234" xlink:href="#DejaVuSans-110"/>
      <use x="721.119141" xlink:href="#DejaVuSans-99"/>
      <use x="776.099609" xlink:href="#DejaVuSans-116"/>
      <use x="815.308594" xlink:href="#DejaVuSans-105"/>
      <use x="843.091797" xlink:href="#DejaVuSans-111"/>
      <use x="904.273438" xlink:href="#DejaVuSans-110"/>
      <use x="967.652344" xlink:href="#DejaVuSans-44"/>
      <use x="999.439453" xlink:href="#DejaVuSans-116"/>
      <use x="1038.648438" xlink:href="#DejaVuSans-97"/>
      <use x="1099.927734" xlink:href="#DejaVuSans-114"/>
      <use x="1139.291016" xlink:href="#DejaVuSans-103"/>
      <use x="1202.767578" xlink:href="#DejaVuSans-101"/>
      <use x="1264.291016" xlink:href="#DejaVuSans-116"/>
      <use x="1303.5" xlink:href="#DejaVuSans-32"/>
      <use x="1335.287109" xlink:href="#DejaVuSans-112"/>
      <use x="1398.763672" xlink:href="#DejaVuSans-97"/>
      <use x="1460.042969" xlink:href="#DejaVuSans-105"/>
      <use x="1487.826172" xlink:href="#DejaVuSans-114"/>
      <use x="1528.939453" xlink:href="#DejaVuSans-115"/>
     </g>
    </g>
   </g>
   <g id="line2d_33">
    <defs>
     <path d="M 0 1.5 
C 0.397805 1.5 0.77937 1.341951 1.06066 1.06066 
C 1.341951 0.77937 1.5 0.397805 1.5 0 
C 1.5 -0.397805 1.341951 -0.77937 1.06066 -1.06066 
C 0.77937 -1.341951 0.397805 -1.5 0 -1.5 
C -0.397805 -1.5 -0.77937 -1.341951 -1.06066 -1.06066 
C -1.341951 -0.77937 -1.5 -0.397805 -1.5 0 
C -1.5 0.397805 -1.341951 0.77937 -1.06066 1.06066 
C -0.77937 1.341951 -0.397805 1.5 0 1.5 
z
" id="mcbcce32d22" style="stroke:#f5deb3;"/>
    </defs>
    <g>
     <use style="fill:#f5deb3;stroke:#f5deb3;" x="143.157379" xlink:href="#mcbcce32d22" y="30.334099"/>
     <use style="fill:#f5deb3;stroke:#f5deb3;" x="143.157379" xlink:href="#mcbcce32d22" y="30.334099"/>
    </g>
   </g>
   <g id="line2d_34">
    <defs>
     <path d="M 0 1.5 
C 0.397805 1.5 0.77937 1.341951 1.06066 1.06066 
C 1.341951 0.77937 1.5 0.397805 1.5 0 
C 1.5 -0.397805 1.341951 -0.77937 1.06066 -1.06066 
C 0.77937 -1.341951 0.397805 -1.5 0 -1.5 
C -0.397805 -1.5 -0.77937 -1.341951 -1.06066 -1.06066 
C -1.341951 -0.77937 -1.5 -0.397805 -1.5 0 
C -1.5 0.397805 -1.341951 0.77937 -1.06066 1.06066 
C -0.77937 1.341951 -0.397805 1.5 0 1.5 
z
" id="mcabbf01862" style="stroke:#000080;"/>
    </defs>
    <g>
     <use style="fill:#000080;stroke:#000080;" x="182.242806" xlink:href="#mcabbf01862" y="30.334099"/>
     <use style="fill:#000080;stroke:#000080;" x="182.242806" xlink:href="#mcabbf01862" y="30.334099"/>
    </g>
   </g>
   <g id="line2d_35">
    <path d="M 110.77713 298.944 
L 110.77713 298.417314 
L 113.804498 298.417314 
L 113.804498 297.890628 
L 115.205729 297.890628 
L 115.205729 297.363942 
L 115.397021 297.363942 
L 115.397021 296.837256 
L 115.711251 296.837256 
L 115.711251 296.31057 
L 116.141872 296.31057 
L 116.141872 295.783884 
L 116.739166 295.783884 
L 116.739166 295.257197 
L 117.145424 295.257197 
L 117.145424 294.730511 
L 117.598418 294.730511 
L 117.654224 292.623767 
L 119.045825 292.623767 
L 119.097192 291.043709 
L 119.80089 291.043709 
L 119.80089 290.517023 
L 120.093994 290.517023 
L 120.093994 289.990337 
L 120.33454 289.990337 
L 120.33454 289.463651 
L 120.8059 289.463651 
L 120.8059 288.936964 
L 121.036887 288.936964 
L 121.128432 287.883592 
L 121.489881 287.883592 
L 121.489881 287.356906 
L 121.974949 287.356906 
L 122.018385 286.303534 
L 122.191052 286.303534 
L 122.191052 285.250162 
L 122.44689 285.250162 
L 122.44689 284.723476 
L 122.865118 284.723476 
L 122.865118 283.670104 
L 123.94666 283.670104 
L 123.94666 282.616732 
L 124.254646 282.616732 
L 124.254646 282.090045 
L 124.444412 282.090045 
L 124.444412 281.563359 
L 125.074593 281.563359 
L 125.183475 280.509987 
L 125.470548 280.509987 
L 125.470548 279.456615 
L 125.787955 279.456615 
L 125.787955 278.929929 
L 125.927192 278.929929 
L 125.927192 278.403243 
L 126.439646 278.403243 
L 126.439646 277.876557 
L 127.100304 277.876557 
L 127.100304 277.349871 
L 127.421479 277.349871 
L 127.421479 276.823185 
L 127.985095 276.823185 
L 127.985095 275.243126 
L 128.168991 275.243126 
L 128.168991 274.71644 
L 128.590686 274.71644 
L 128.590686 274.189754 
L 128.973336 274.189754 
L 129.06046 273.136382 
L 129.908566 273.136382 
L 130.018593 272.08301 
L 130.505303 272.08301 
L 130.505303 271.556324 
L 132.060454 271.556324 
L 132.133473 270.502952 
L 132.683351 270.502952 
L 132.70687 269.449579 
L 134.787017 269.449579 
L 134.787017 268.922893 
L 136.494612 268.922893 
L 136.494612 268.396207 
L 141.774395 268.396207 
L 141.774395 267.869521 
L 142.392144 267.869521 
L 142.392144 267.342835 
L 143.234658 267.342835 
L 143.234658 266.816149 
L 145.235796 266.816149 
L 145.327221 265.762777 
L 146.356287 265.762777 
L 146.356287 265.236091 
L 146.569876 265.236091 
L 146.569876 264.709405 
L 146.999721 264.709405 
L 146.999721 264.182719 
L 147.937163 264.182719 
L 147.937163 263.656033 
L 148.103206 263.656033 
L 148.103206 263.129347 
L 148.770728 263.129347 
L 148.770728 262.60266 
L 149.030744 262.60266 
L 149.030744 262.075974 
L 149.15016 262.075974 
L 149.15016 261.549288 
L 149.876341 261.549288 
L 149.876341 261.022602 
L 150.224095 261.022602 
L 150.224095 260.495916 
L 150.47195 260.495916 
L 150.47195 259.96923 
L 151.668912 259.96923 
L 151.668912 259.442544 
L 152.526944 259.442544 
L 152.579665 258.389172 
L 153.952977 258.389172 
L 153.952977 257.862486 
L 154.125885 257.862486 
L 154.173993 256.809114 
L 154.378682 256.809114 
L 154.378682 256.282427 
L 154.886723 256.282427 
L 154.886723 255.755741 
L 155.399584 255.755741 
L 155.399584 255.229055 
L 156.454576 255.229055 
L 156.454576 254.702369 
L 156.888722 254.702369 
L 156.888722 254.175683 
L 157.197287 254.175683 
L 157.197287 253.648997 
L 157.58535 253.648997 
L 157.58535 253.122311 
L 158.086033 253.122311 
L 158.086033 252.595625 
L 158.28235 252.595625 
L 158.28235 252.068939 
L 158.567409 252.068939 
L 158.625992 251.015567 
L 159.108409 251.015567 
L 159.108409 250.488881 
L 159.268002 250.488881 
L 159.268002 249.962195 
L 159.597964 249.962195 
L 159.653192 248.382136 
L 159.985851 248.382136 
L 159.985851 247.85545 
L 160.475629 247.85545 
L 160.566247 246.275392 
L 160.675317 246.275392 
L 160.783709 245.22202 
L 161.114123 245.22202 
L 161.187726 243.641962 
L 161.311231 243.641962 
L 161.343109 242.061903 
L 161.451963 242.061903 
L 161.519653 241.008531 
L 161.64531 241.008531 
L 161.730064 239.428473 
L 161.84538 239.428473 
L 161.920369 237.848415 
L 162.078112 237.848415 
L 162.178151 236.268356 
L 162.260361 236.268356 
L 162.316387 233.10824 
L 162.449267 233.10824 
L 162.449267 232.054868 
L 162.648818 232.054868 
L 162.712026 231.001496 
L 162.821048 231.001496 
L 162.916926 229.421437 
L 163.037069 229.421437 
L 163.13998 226.788007 
L 163.238207 226.788007 
L 163.319642 225.207949 
L 163.400698 225.207949 
L 163.505512 223.101204 
L 163.533623 223.101204 
L 163.641632 221.521146 
L 163.645619 221.521146 
L 163.677486 220.467774 
L 163.760861 220.467774 
L 163.768781 219.414402 
L 163.875347 219.414402 
L 163.926426 218.36103 
L 163.989086 218.36103 
L 164.00081 216.780971 
L 164.148635 216.780971 
L 164.229793 215.200913 
L 164.287532 215.200913 
L 164.348911 212.040797 
L 164.493826 212.040797 
L 164.580957 208.88068 
L 164.63378 208.88068 
L 164.637547 207.827308 
L 164.854652 207.827308 
L 164.910363 206.773936 
L 164.980675 206.773936 
L 165.039666 205.193878 
L 165.248216 205.193878 
L 165.277287 203.613819 
L 165.371436 203.613819 
L 165.457894 200.980389 
L 165.486619 200.980389 
L 165.586783 198.873645 
L 165.682828 198.873645 
L 165.788929 196.7669 
L 165.795979 196.7669 
L 165.795979 196.240214 
L 165.946878 196.240214 
L 166.047915 193.606784 
L 166.099947 193.606784 
L 166.182876 189.919981 
L 166.272273 189.919981 
L 166.368037 187.286551 
L 166.442913 187.286551 
L 166.551253 185.706493 
L 166.554628 185.706493 
L 166.65557 182.546376 
L 166.668984 182.546376 
L 166.709167 179.912946 
L 166.802568 179.912946 
L 166.839125 177.806202 
L 166.918621 177.806202 
L 167.010909 174.119399 
L 167.125588 174.119399 
L 167.233027 171.485969 
L 167.255733 171.485969 
L 167.355931 165.692422 
L 167.372038 165.692422 
L 167.474773 161.478933 
L 167.532297 161.478933 
L 167.548242 159.898875 
L 167.653117 159.898875 
L 167.754214 157.265444 
L 167.779397 157.265444 
L 167.889148 154.632014 
L 167.90477 154.632014 
L 167.995105 151.471897 
L 168.023045 151.471897 
L 168.106598 147.258409 
L 168.13436 147.258409 
L 168.195896 144.624978 
L 168.260276 144.624978 
L 168.327468 141.464862 
L 168.388327 141.464862 
L 168.455028 138.304745 
L 168.503379 138.304745 
L 168.521475 137.251373 
L 168.623671 137.251373 
L 168.698434 134.091257 
L 168.746115 134.091257 
L 168.832206 130.93114 
L 168.870661 130.93114 
L 168.941432 123.557535 
L 168.994323 123.557535 
L 169.09671 120.924105 
L 169.137496 120.924105 
L 169.239048 118.817361 
L 169.270843 118.817361 
L 169.337135 115.130558 
L 169.388841 115.130558 
L 169.486092 111.443755 
L 169.525979 111.443755 
L 169.62247 107.756953 
L 169.647923 107.756953 
L 169.754982 104.07015 
L 169.763406 104.07015 
L 169.87255 97.223231 
L 169.889281 97.223231 
L 169.972696 94.589801 
L 170.011487 94.589801 
L 170.108089 92.483056 
L 170.228776 92.483056 
L 170.26973 90.376312 
L 170.351349 90.376312 
L 170.459584 85.636137 
L 170.497308 85.636137 
L 170.559106 81.422649 
L 170.655397 81.422649 
L 170.756464 78.262532 
L 170.785611 78.262532 
L 170.864857 75.629102 
L 170.899085 75.629102 
L 170.993522 71.942299 
L 171.043158 71.942299 
L 171.134225 69.835555 
L 171.188638 69.835555 
L 171.222237 68.782183 
L 171.358552 68.782183 
L 171.43014 66.675439 
L 171.483639 66.675439 
L 171.58256 64.568694 
L 171.612885 64.568694 
L 171.690981 62.988636 
L 171.74118 62.988636 
L 171.84364 61.935264 
L 171.86605 61.935264 
L 171.913268 58.775147 
L 171.992503 58.775147 
L 172.061541 56.668403 
L 172.154799 56.668403 
L 172.196359 55.088345 
L 172.334989 55.088345 
L 172.436436 51.928228 
L 172.460504 51.928228 
L 172.460504 51.401542 
L 172.589897 51.401542 
L 172.654236 49.294798 
L 172.715968 49.294798 
L 172.753848 48.241426 
L 172.904553 48.241426 
L 172.916272 47.188054 
L 173.016733 47.188054 
L 173.09576 45.081309 
L 173.158262 45.081309 
L 173.268827 43.501251 
L 175.919999 43.501251 
L 175.919999 42.974565 
L 178.42701 42.974565 
L 178.42701 42.447879 
L 178.923793 42.447879 
L 178.923793 41.921193 
L 179.506653 41.921193 
L 179.506653 41.394507 
L 179.769598 41.394507 
L 179.769598 40.867821 
L 180.095517 40.867821 
L 180.095517 40.341135 
L 180.206931 40.341135 
L 180.277741 39.287762 
L 180.958649 39.287762 
L 180.958649 38.761076 
L 181.099906 38.761076 
L 181.099906 38.23439 
L 181.216753 38.23439 
L 181.279236 37.181018 
L 181.381918 37.181018 
L 181.381918 36.654332 
L 181.515509 36.654332 
L 181.515509 36.127646 
L 181.639561 36.127646 
L 181.733085 34.547588 
L 181.803604 34.547588 
L 181.913047 33.494215 
L 181.950772 33.494215 
L 182.030146 31.914157 
L 182.063459 31.914157 
L 182.063459 31.387471 
L 182.201581 31.387471 
L 182.242806 30.334099 
L 338.688 30.334099 
L 338.688 30.334099 
" style="fill:none;stroke:#000080;stroke-linecap:square;stroke-width:1.5;"/>
   </g>
   <g id="line2d_36">
    <defs>
     <path d="M 0 6 
C 1.591219 6 3.117479 5.367802 4.242641 4.242641 
C 5.367802 3.117479 6 1.591219 6 0 
C 6 -1.591219 5.367802 -3.117479 4.242641 -4.242641 
C 3.117479 -5.367802 1.591219 -6 0 -6 
C -1.591219 -6 -3.117479 -5.367802 -4.242641 -4.242641 
C -5.367802 -3.117479 -6 -1.591219 -6 0 
C -6 1.591219 -5.367802 3.117479 -4.242641 4.242641 
C -3.117479 5.367802 -1.591219 6 0 6 
z
" id="md322bded54" style="stroke:#000080;stroke-width:1.5;"/>
    </defs>
    <g>
     <use style="fill-opacity:0;stroke:#000080;stroke-width:1.5;" x="168.671556" xlink:href="#md322bded54" y="135.671315"/>
     <use style="fill-opacity:0;stroke:#000080;stroke-width:1.5;" x="182.242806" xlink:href="#md322bded54" y="30.860785"/>
     <use style="fill-opacity:0;stroke:#000080;stroke-width:1.5;" x="182.242806" xlink:href="#md322bded54" y="30.334099"/>
     <use style="fill-opacity:0;stroke:#000080;stroke-width:1.5;" x="182.242806" xlink:href="#md322bded54" y="30.334099"/>
     <use style="fill-opacity:0;stroke:#000080;stroke-width:1.5;" x="338.688" xlink:href="#md322bded54" y="30.334099"/>
    </g>
   </g>
   <g id="line2d_37">
    <path style="fill:none;stroke:#000080;stroke-linecap:square;stroke-width:1.5;"/>
    <g/>
   </g>
   <g id="line2d_38">
    <defs>
     <path d="M 0 1.5 
C 0.397805 1.5 0.77937 1.341951 1.06066 1.06066 
C 1.341951 0.77937 1.5 0.397805 1.5 0 
C 1.5 -0.397805 1.341951 -0.77937 1.06066 -1.06066 
C 0.77937 -1.341951 0.397805 -1.5 0 -1.5 
C -0.397805 -1.5 -0.77937 -1.341951 -1.06066 -1.06066 
C -1.341951 -0.77937 -1.5 -0.397805 -1.5 0 
C -1.5 0.397805 -1.341951 0.77937 -1.06066 1.06066 
C -0.77937 1.341951 -0.397805 1.5 0 1.5 
z
" id="m9ef33633b0" style="stroke:#ff00ff;"/>
    </defs>
    <g>
     <use style="fill:#ff00ff;stroke:#ff00ff;" x="231.832887" xlink:href="#m9ef33633b0" y="30.334099"/>
     <use style="fill:#ff00ff;stroke:#ff00ff;" x="231.832887" xlink:href="#m9ef33633b0" y="30.334099"/>
    </g>
   </g>
   <g id="line2d_39">
    <path d="M 139.588845 298.944 
L 139.588845 298.417314 
L 143.413655 298.417314 
L 143.413655 297.890628 
L 145.005114 297.890628 
L 145.005114 297.363942 
L 148.676918 297.363942 
L 148.676918 296.837256 
L 149.113504 296.837256 
L 149.113504 296.31057 
L 149.637625 296.31057 
L 149.72642 295.257197 
L 150.042389 295.257197 
L 150.042389 294.730511 
L 151.097081 294.730511 
L 151.154299 293.677139 
L 151.268175 293.677139 
L 151.268175 293.150453 
L 151.668912 293.150453 
L 151.668912 292.623767 
L 152.083873 292.623767 
L 152.176471 290.517023 
L 152.526944 290.517023 
L 152.526944 289.990337 
L 153.185667 289.990337 
L 153.192929 288.936964 
L 153.616112 288.936964 
L 153.616112 288.410278 
L 153.820412 288.410278 
L 153.820412 287.883592 
L 154.056927 287.883592 
L 154.056927 287.356906 
L 154.439623 287.356906 
L 154.439623 286.83022 
L 154.820715 286.83022 
L 154.820715 286.303534 
L 155.245367 286.303534 
L 155.271165 285.250162 
L 155.872907 285.250162 
L 155.872907 284.723476 
L 156.187581 284.723476 
L 156.187581 284.19679 
L 156.382164 284.19679 
L 156.382164 283.670104 
L 156.628341 283.670104 
L 156.628341 283.143418 
L 157.093102 283.143418 
L 157.093102 282.090045 
L 157.369557 282.090045 
L 157.369557 281.563359 
L 158.0201 281.563359 
L 158.0201 281.036673 
L 158.368898 281.036673 
L 158.368898 280.509987 
L 158.487203 280.509987 
L 158.556736 279.456615 
L 159.512268 279.456615 
L 159.512268 278.929929 
L 159.763125 278.929929 
L 159.822797 277.876557 
L 160.015335 277.876557 
L 160.025151 276.823185 
L 162.091193 276.823185 
L 162.091193 276.296499 
L 162.457805 276.296499 
L 162.457805 275.769812 
L 162.636148 275.769812 
L 162.636148 275.243126 
L 163.008145 275.243126 
L 163.020547 274.189754 
L 163.16049 274.189754 
L 163.16049 273.663068 
L 163.360217 273.663068 
L 163.360217 273.136382 
L 163.989086 273.136382 
L 163.989086 272.609696 
L 164.167992 272.609696 
L 164.167992 272.08301 
L 165.497378 272.08301 
L 165.497378 271.556324 
L 166.061806 271.556324 
L 166.155277 270.502952 
L 166.337313 270.502952 
L 166.337313 269.976266 
L 167.020769 269.976266 
L 167.083081 268.922893 
L 167.68161 268.922893 
L 167.687935 267.869521 
L 169.175285 267.869521 
L 169.175285 267.342835 
L 170.291532 267.342835 
L 170.291532 266.816149 
L 170.604643 266.816149 
L 170.604643 266.289463 
L 171.498894 266.289463 
L 171.498894 265.762777 
L 172.098413 265.762777 
L 172.098413 265.236091 
L 172.225636 265.236091 
L 172.230511 264.182719 
L 172.48694 264.182719 
L 172.520528 262.60266 
L 173.132825 262.60266 
L 173.220541 261.549288 
L 174.734695 261.549288 
L 174.734695 261.022602 
L 176.614066 261.022602 
L 176.614066 260.495916 
L 177.358012 260.495916 
L 177.412414 259.442544 
L 181.329929 259.442544 
L 181.329929 258.915858 
L 181.982843 258.915858 
L 181.982843 258.389172 
L 182.215334 258.389172 
L 182.215334 257.862486 
L 182.412173 257.862486 
L 182.412173 257.3358 
L 182.585296 257.3358 
L 182.585296 256.809114 
L 183.10504 256.809114 
L 183.10504 256.282427 
L 183.890467 256.282427 
L 183.954039 255.229055 
L 184.329462 255.229055 
L 184.329462 254.702369 
L 184.496706 254.702369 
L 184.496706 254.175683 
L 185.484929 254.175683 
L 185.484929 253.648997 
L 185.597393 253.648997 
L 185.597393 253.122311 
L 186.382296 253.122311 
L 186.492364 250.488881 
L 188.718158 250.488881 
L 188.77393 249.435508 
L 191.034181 249.435508 
L 191.034181 248.908822 
L 191.375704 248.908822 
L 191.375704 248.382136 
L 191.498034 248.382136 
L 191.498034 247.85545 
L 191.738558 247.85545 
L 191.77753 246.802078 
L 192.389525 246.802078 
L 192.389525 246.275392 
L 192.820614 246.275392 
L 192.820614 245.748706 
L 193.190826 245.748706 
L 193.190826 245.22202 
L 193.448985 245.22202 
L 193.48432 244.168648 
L 193.731102 244.168648 
L 193.806228 243.115275 
L 194.11605 243.115275 
L 194.11605 242.588589 
L 195.128246 242.588589 
L 195.228263 241.535217 
L 195.423371 241.535217 
L 195.423371 241.008531 
L 196.177742 241.008531 
L 196.177742 240.481845 
L 196.513993 240.481845 
L 196.607596 238.901787 
L 196.683917 238.901787 
L 196.727037 237.848415 
L 197.271737 237.848415 
L 197.271737 237.321729 
L 197.432171 237.321729 
L 197.432171 236.795043 
L 197.549538 236.795043 
L 197.549538 236.268356 
L 198.052337 236.268356 
L 198.052337 235.74167 
L 198.242559 235.74167 
L 198.242559 235.214984 
L 198.596481 235.214984 
L 198.596481 234.688298 
L 199.414716 234.688298 
L 199.414716 234.161612 
L 199.587669 234.161612 
L 199.688907 233.10824 
L 199.716141 233.10824 
L 199.716141 232.581554 
L 200.014427 232.581554 
L 200.014427 232.054868 
L 200.210976 232.054868 
L 200.308183 231.001496 
L 200.368967 231.001496 
L 200.433892 229.421437 
L 200.627231 229.421437 
L 200.723578 228.368065 
L 200.74782 228.368065 
L 200.74782 227.841379 
L 201.960978 227.841379 
L 201.960978 227.314693 
L 202.180681 227.314693 
L 202.180681 226.788007 
L 202.310144 226.788007 
L 202.394625 225.734635 
L 202.762402 225.734635 
L 202.762402 225.207949 
L 202.948029 225.207949 
L 203.052805 224.154577 
L 203.159851 224.154577 
L 203.201578 223.101204 
L 203.285145 223.101204 
L 203.285145 222.574518 
L 203.442949 222.574518 
L 203.463286 220.99446 
L 203.765527 220.99446 
L 203.765527 220.467774 
L 204.122218 220.467774 
L 204.141387 219.414402 
L 204.297477 219.414402 
L 204.336572 218.36103 
L 204.484032 218.36103 
L 204.484032 217.834344 
L 204.623791 217.834344 
L 204.661783 216.254285 
L 204.758666 216.254285 
L 204.758666 215.727599 
L 204.905983 215.727599 
L 204.999661 214.674227 
L 205.020493 214.674227 
L 205.020493 214.147541 
L 205.221208 214.147541 
L 205.221208 213.620855 
L 205.367601 213.620855 
L 205.427632 212.567483 
L 205.728295 212.567483 
L 205.820156 210.987425 
L 205.924248 210.987425 
L 205.924248 210.460738 
L 206.064179 210.460738 
L 206.064179 209.934052 
L 206.342441 209.934052 
L 206.342441 209.407366 
L 206.532673 209.407366 
L 206.532673 208.88068 
L 206.688784 208.88068 
L 206.784473 207.827308 
L 206.853555 207.827308 
L 206.956001 206.24725 
L 207.190976 206.24725 
L 207.232289 205.193878 
L 207.34198 205.193878 
L 207.445487 204.140506 
L 207.922554 204.140506 
L 207.922554 203.613819 
L 208.168545 203.613819 
L 208.266965 201.507075 
L 208.327352 201.507075 
L 208.349789 200.453703 
L 208.49539 200.453703 
L 208.49539 199.927017 
L 208.678713 199.927017 
L 208.782695 197.820273 
L 208.842221 197.820273 
L 208.842221 197.293586 
L 208.992076 197.293586 
L 209.082729 195.186842 
L 209.138306 195.186842 
L 209.157085 194.13347 
L 209.314445 194.13347 
L 209.3884 193.080098 
L 209.444743 193.080098 
L 209.48796 191.50004 
L 209.558892 191.50004 
L 209.659196 189.393295 
L 209.687383 189.393295 
L 209.779031 188.339923 
L 209.873014 188.339923 
L 209.984123 186.759865 
L 210.137831 186.759865 
L 210.194295 185.179807 
L 210.44805 185.179807 
L 210.520886 184.126434 
L 210.571258 184.126434 
L 210.679901 182.01969 
L 210.709975 182.01969 
L 210.789741 178.859574 
L 210.883228 178.859574 
L 210.883228 178.332888 
L 211.05767 178.332888 
L 211.134556 177.279515 
L 211.251723 177.279515 
L 211.349498 176.226143 
L 211.474482 176.226143 
L 211.573573 174.646085 
L 211.586589 174.646085 
L 211.664739 172.012655 
L 211.713944 172.012655 
L 211.776391 169.90591 
L 211.843644 169.90591 
L 211.942915 167.27248 
L 211.976878 167.27248 
L 212.039138 166.219108 
L 212.101177 166.219108 
L 212.151143 164.112363 
L 212.239593 164.112363 
L 212.291126 163.058991 
L 212.377651 163.058991 
L 212.456713 162.005619 
L 212.539282 162.005619 
L 212.626031 159.372189 
L 212.662049 159.372189 
L 212.770136 157.265444 
L 212.793245 157.265444 
L 212.900998 155.685386 
L 212.994679 155.685386 
L 213.088563 154.105328 
L 213.146984 154.105328 
L 213.146984 153.578642 
L 213.274827 153.578642 
L 213.369982 151.998584 
L 213.39116 151.998584 
L 213.494835 148.838467 
L 213.550773 148.838467 
L 213.651013 147.785095 
L 213.720456 147.785095 
L 213.80221 145.678351 
L 213.86725 145.678351 
L 213.974371 143.04492 
L 214.034117 143.04492 
L 214.034561 140.938176 
L 214.14595 140.938176 
L 214.14595 140.41149 
L 214.282664 140.41149 
L 214.363572 138.304745 
L 214.580016 138.304745 
L 214.681151 135.671315 
L 214.730008 135.671315 
L 214.774903 133.564571 
L 214.85716 133.564571 
L 214.955654 131.457826 
L 215.079298 131.457826 
L 215.079298 130.93114 
L 215.191701 130.93114 
L 215.285233 129.351082 
L 215.305652 129.351082 
L 215.390989 127.244338 
L 215.430328 127.244338 
L 215.530937 125.66428 
L 215.674617 125.66428 
L 215.709899 123.557535 
L 215.863301 123.557535 
L 215.970976 121.450791 
L 216.022489 121.450791 
L 216.043249 120.397419 
L 216.142161 120.397419 
L 216.250477 118.290674 
L 216.365303 118.290674 
L 216.437122 116.18393 
L 216.530757 116.18393 
L 216.640704 114.077186 
L 216.654064 114.077186 
L 216.743888 110.390383 
L 216.777453 110.390383 
L 216.846655 107.230267 
L 216.928734 107.230267 
L 217.035274 105.123522 
L 217.050575 105.123522 
L 217.152296 103.543464 
L 217.249188 103.543464 
L 217.330317 100.383348 
L 217.392791 100.383348 
L 217.496178 98.803289 
L 217.547008 98.803289 
L 217.619548 95.643173 
L 217.701491 95.643173 
L 217.799854 93.009743 
L 217.878645 93.009743 
L 217.987685 91.95637 
L 218.003232 91.95637 
L 218.074606 90.376312 
L 218.127988 90.376312 
L 218.214214 88.269568 
L 218.268215 88.269568 
L 218.368803 86.162824 
L 218.381595 86.162824 
L 218.468986 83.529393 
L 218.524433 83.529393 
L 218.608214 81.422649 
L 218.669851 81.422649 
L 218.780827 79.315904 
L 218.847075 79.315904 
L 218.925806 77.735846 
L 218.986834 77.735846 
L 219.089347 75.629102 
L 219.159889 75.629102 
L 219.266814 73.522358 
L 219.273711 73.522358 
L 219.348582 71.415613 
L 219.406358 71.415613 
L 219.515835 68.782183 
L 219.61143 68.782183 
L 219.645375 67.728811 
L 219.772843 67.728811 
L 219.872437 65.622066 
L 219.907778 65.622066 
L 220.018725 61.935264 
L 220.073699 61.935264 
L 220.184377 59.82852 
L 220.214271 59.82852 
L 220.214271 59.301833 
L 220.326846 59.301833 
L 220.354028 58.248461 
L 220.476284 58.248461 
L 220.520515 56.668403 
L 220.607882 56.668403 
L 220.636908 55.615031 
L 220.727472 55.615031 
L 220.832889 54.561659 
L 221.174694 54.561659 
L 221.212637 52.9816 
L 221.366649 52.9816 
L 221.366649 52.454914 
L 221.496346 52.454914 
L 221.497069 50.874856 
L 221.661777 50.874856 
L 221.661777 50.34817 
L 221.778785 50.34817 
L 221.885263 49.294798 
L 221.994607 49.294798 
L 221.994607 48.768112 
L 222.108015 48.768112 
L 222.217916 46.134681 
L 222.465495 46.134681 
L 222.465495 45.607995 
L 222.884271 45.607995 
L 222.884271 45.081309 
L 223.668326 45.081309 
L 223.668326 44.554623 
L 224.222945 44.554623 
L 224.222945 44.027937 
L 225.07643 44.027937 
L 225.07643 43.501251 
L 225.513737 43.501251 
L 225.513737 42.974565 
L 226.18441 42.974565 
L 226.18441 42.447879 
L 226.748296 42.447879 
L 226.748296 41.921193 
L 226.950013 41.921193 
L 226.950013 41.394507 
L 227.217333 41.394507 
L 227.217333 40.867821 
L 228.165388 40.867821 
L 228.165388 40.341135 
L 228.288113 40.341135 
L 228.288113 39.814448 
L 228.627966 39.814448 
L 228.722199 38.761076 
L 228.94351 38.761076 
L 228.94351 38.23439 
L 229.081773 38.23439 
L 229.081773 37.181018 
L 229.475475 37.181018 
L 229.475475 36.654332 
L 229.733692 36.654332 
L 229.733692 36.127646 
L 229.873901 36.127646 
L 229.89079 35.074274 
L 230.114251 35.074274 
L 230.205541 33.494215 
L 230.623901 33.494215 
L 230.623901 32.967529 
L 230.825526 32.967529 
L 230.825526 32.440843 
L 231.16281 32.440843 
L 231.16281 31.914157 
L 231.535359 31.914157 
L 231.535359 31.387471 
L 231.832887 31.387471 
L 231.832887 30.334099 
L 338.688 30.334099 
L 338.688 30.334099 
" style="fill:none;stroke:#ff00ff;stroke-linecap:square;stroke-width:1.5;"/>
   </g>
   <g id="line2d_40">
    <defs>
     <path d="M -0 8.485281 
L 5.091169 0 
L 0 -8.485281 
L -5.091169 -0 
z
" id="me14a5666f4" style="stroke:#ff00ff;stroke-linejoin:miter;stroke-width:1.5;"/>
    </defs>
    <g>
     <use style="fill-opacity:0;stroke:#ff00ff;stroke-linejoin:miter;stroke-width:1.5;" x="211.664739" xlink:href="#me14a5666f4" y="172.012655"/>
     <use style="fill-opacity:0;stroke:#ff00ff;stroke-linejoin:miter;stroke-width:1.5;" x="231.832887" xlink:href="#me14a5666f4" y="31.387471"/>
     <use style="fill-opacity:0;stroke:#ff00ff;stroke-linejoin:miter;stroke-width:1.5;" x="231.832887" xlink:href="#me14a5666f4" y="30.334099"/>
     <use style="fill-opacity:0;stroke:#ff00ff;stroke-linejoin:miter;stroke-width:1.5;" x="231.832887" xlink:href="#me14a5666f4" y="30.334099"/>
     <use style="fill-opacity:0;stroke:#ff00ff;stroke-linejoin:miter;stroke-width:1.5;" x="338.688" xlink:href="#me14a5666f4" y="30.334099"/>
    </g>
   </g>
   <g id="line2d_41">
    <path style="fill:none;stroke:#ff00ff;stroke-linecap:square;stroke-width:1.5;"/>
    <g/>
   </g>
   <g id="line2d_42">
    <path d="M 338.688 30.334099 
L 369.60768 293.571802 
" style="fill:none;stroke:#ff00ff;stroke-linecap:square;stroke-width:1.5;"/>
    <g>
     <use style="fill-opacity:0;stroke:#ff00ff;stroke-linejoin:miter;stroke-width:1.5;" x="338.688" xlink:href="#me14a5666f4" y="30.334099"/>
     <use style="fill-opacity:0;stroke:#ff00ff;stroke-linejoin:miter;stroke-width:1.5;" x="369.60768" xlink:href="#me14a5666f4" y="293.571802"/>
    </g>
   </g>
   <g id="line2d_43">
    <path d="M 338.688 30.334099 
L 369.60768 164.63905 
" style="fill:none;stroke:#000080;stroke-linecap:square;stroke-width:1.5;"/>
    <g>
     <use style="fill-opacity:0;stroke:#000080;stroke-width:1.5;" x="338.688" xlink:href="#md322bded54" y="30.334099"/>
     <use style="fill-opacity:0;stroke:#000080;stroke-width:1.5;" x="369.60768" xlink:href="#md322bded54" y="164.63905"/>
    </g>
   </g>
   <g id="line2d_44">
    <path d="M 338.688 298.944 
L 338.688 30.334099 
" style="fill:none;stroke:#000000;stroke-linecap:square;stroke-width:1.5;"/>
   </g>
   <g id="patch_3">
    <path d="M 57.6 298.944 
L 57.6 27.648 
" style="fill:none;stroke:#000000;stroke-linecap:square;stroke-linejoin:miter;stroke-width:0.8;"/>
   </g>
   <g id="patch_4">
    <path d="M 338.688 298.944 
L 338.688 27.648 
" style="fill:none;stroke:#000000;stroke-linecap:square;stroke-linejoin:miter;stroke-width:0.8;"/>
   </g>
   <g id="patch_5">
    <path d="M 57.6 298.944 
L 338.688 298.944 
" style="fill:none;stroke:#000000;stroke-linecap:square;stroke-linejoin:miter;stroke-width:0.8;"/>
   </g>
   <g id="patch_6">
    <path d="M 57.6 27.648 
L 338.688 27.648 
" style="fill:none;stroke:#000000;stroke-linecap:square;stroke-linejoin:miter;stroke-width:0.8;"/>
   </g>
   <g id="text_13">
    <!-- DE -->
    <g transform="translate(375.22944 298.262739)scale(0.17 -0.17)">
     <defs>
      <path d="M 19.671875 64.796875 
L 19.671875 8.109375 
L 31.59375 8.109375 
Q 46.6875 8.109375 53.6875 14.9375 
Q 60.6875 21.78125 60.6875 36.53125 
Q 60.6875 51.171875 53.6875 57.984375 
Q 46.6875 64.796875 31.59375 64.796875 
z
M 9.8125 72.90625 
L 30.078125 72.90625 
Q 51.265625 72.90625 61.171875 64.09375 
Q 71.09375 55.28125 71.09375 36.53125 
Q 71.09375 17.671875 61.125 8.828125 
Q 51.171875 0 30.078125 0 
L 9.8125 0 
z
" id="DejaVuSans-68"/>
      <path d="M 9.8125 72.90625 
L 55.90625 72.90625 
L 55.90625 64.59375 
L 19.671875 64.59375 
L 19.671875 43.015625 
L 54.390625 43.015625 
L 54.390625 34.71875 
L 19.671875 34.71875 
L 19.671875 8.296875 
L 56.78125 8.296875 
L 56.78125 0 
L 9.8125 0 
z
" id="DejaVuSans-69"/>
     </defs>
     <use xlink:href="#DejaVuSans-68"/>
     <use x="77.001953" xlink:href="#DejaVuSans-69"/>
    </g>
   </g>
   <g id="text_14">
    <!-- BIPOP-CMA -->
    <g transform="translate(375.22944 169.329987)scale(0.17 -0.17)">
     <defs>
      <path d="M 19.671875 34.8125 
L 19.671875 8.109375 
L 35.5 8.109375 
Q 43.453125 8.109375 47.28125 11.40625 
Q 51.125 14.703125 51.125 21.484375 
Q 51.125 28.328125 47.28125 31.5625 
Q 43.453125 34.8125 35.5 34.8125 
z
M 19.671875 64.796875 
L 19.671875 42.828125 
L 34.28125 42.828125 
Q 41.5 42.828125 45.03125 45.53125 
Q 48.578125 48.25 48.578125 53.8125 
Q 48.578125 59.328125 45.03125 62.0625 
Q 41.5 64.796875 34.28125 64.796875 
z
M 9.8125 72.90625 
L 35.015625 72.90625 
Q 46.296875 72.90625 52.390625 68.21875 
Q 58.5 63.53125 58.5 54.890625 
Q 58.5 48.1875 55.375 44.234375 
Q 52.25 40.28125 46.1875 39.3125 
Q 53.46875 37.75 57.5 32.78125 
Q 61.53125 27.828125 61.53125 20.40625 
Q 61.53125 10.640625 54.890625 5.3125 
Q 48.25 0 35.984375 0 
L 9.8125 0 
z
" id="DejaVuSans-66"/>
      <path d="M 9.8125 72.90625 
L 19.671875 72.90625 
L 19.671875 0 
L 9.8125 0 
z
" id="DejaVuSans-73"/>
      <path d="M 19.671875 64.796875 
L 19.671875 37.40625 
L 32.078125 37.40625 
Q 38.96875 37.40625 42.71875 40.96875 
Q 46.484375 44.53125 46.484375 51.125 
Q 46.484375 57.671875 42.71875 61.234375 
Q 38.96875 64.796875 32.078125 64.796875 
z
M 9.8125 72.90625 
L 32.078125 72.90625 
Q 44.34375 72.90625 50.609375 67.359375 
Q 56.890625 61.8125 56.890625 51.125 
Q 56.890625 40.328125 50.609375 34.8125 
Q 44.34375 29.296875 32.078125 29.296875 
L 19.671875 29.296875 
L 19.671875 0 
L 9.8125 0 
z
" id="DejaVuSans-80"/>
      <path d="M 39.40625 66.21875 
Q 28.65625 66.21875 22.328125 58.203125 
Q 16.015625 50.203125 16.015625 36.375 
Q 16.015625 22.609375 22.328125 14.59375 
Q 28.65625 6.59375 39.40625 6.59375 
Q 50.140625 6.59375 56.421875 14.59375 
Q 62.703125 22.609375 62.703125 36.375 
Q 62.703125 50.203125 56.421875 58.203125 
Q 50.140625 66.21875 39.40625 66.21875 
z
M 39.40625 74.21875 
Q 54.734375 74.21875 63.90625 63.9375 
Q 73.09375 53.65625 73.09375 36.375 
Q 73.09375 19.140625 63.90625 8.859375 
Q 54.734375 -1.421875 39.40625 -1.421875 
Q 24.03125 -1.421875 14.8125 8.828125 
Q 5.609375 19.09375 5.609375 36.375 
Q 5.609375 53.65625 14.8125 63.9375 
Q 24.03125 74.21875 39.40625 74.21875 
z
" id="DejaVuSans-79"/>
      <path d="M 64.40625 67.28125 
L 64.40625 56.890625 
Q 59.421875 61.53125 53.78125 63.8125 
Q 48.140625 66.109375 41.796875 66.109375 
Q 29.296875 66.109375 22.65625 58.46875 
Q 16.015625 50.828125 16.015625 36.375 
Q 16.015625 21.96875 22.65625 14.328125 
Q 29.296875 6.6875 41.796875 6.6875 
Q 48.140625 6.6875 53.78125 8.984375 
Q 59.421875 11.28125 64.40625 15.921875 
L 64.40625 5.609375 
Q 59.234375 2.09375 53.4375 0.328125 
Q 47.65625 -1.421875 41.21875 -1.421875 
Q 24.65625 -1.421875 15.125 8.703125 
Q 5.609375 18.84375 5.609375 36.375 
Q 5.609375 53.953125 15.125 64.078125 
Q 24.65625 74.21875 41.21875 74.21875 
Q 47.75 74.21875 53.53125 72.484375 
Q 59.328125 70.75 64.40625 67.28125 
z
" id="DejaVuSans-67"/>
      <path d="M 9.8125 72.90625 
L 24.515625 72.90625 
L 43.109375 23.296875 
L 61.8125 72.90625 
L 76.515625 72.90625 
L 76.515625 0 
L 66.890625 0 
L 66.890625 64.015625 
L 48.09375 14.015625 
L 38.1875 14.015625 
L 19.390625 64.015625 
L 19.390625 0 
L 9.8125 0 
z
" id="DejaVuSans-77"/>
      <path d="M 34.1875 63.1875 
L 20.796875 26.90625 
L 47.609375 26.90625 
z
M 28.609375 72.90625 
L 39.796875 72.90625 
L 67.578125 0 
L 57.328125 0 
L 50.6875 18.703125 
L 17.828125 18.703125 
L 11.1875 0 
L 0.78125 0 
z
" id="DejaVuSans-65"/>
     </defs>
     <use xlink:href="#DejaVuSans-66"/>
     <use x="68.603516" xlink:href="#DejaVuSans-73"/>
     <use x="98.095703" xlink:href="#DejaVuSans-80"/>
     <use x="158.398438" xlink:href="#DejaVuSans-79"/>
     <use x="237.109375" xlink:href="#DejaVuSans-80"/>
     <use x="295.162109" xlink:href="#DejaVuSans-45"/>
     <use x="331.246094" xlink:href="#DejaVuSans-67"/>
     <use x="401.070312" xlink:href="#DejaVuSans-77"/>
     <use x="487.349609" xlink:href="#DejaVuSans-65"/>
    </g>
   </g>
   <g id="text_15">
    <!-- best 2009 -->
    <g transform="translate(375.22944 40.397235)scale(0.17 -0.17)">
     <defs>
      <path d="M 48.6875 27.296875 
Q 48.6875 37.203125 44.609375 42.84375 
Q 40.53125 48.484375 33.40625 48.484375 
Q 26.265625 48.484375 22.1875 42.84375 
Q 18.109375 37.203125 18.109375 27.296875 
Q 18.109375 17.390625 22.1875 11.75 
Q 26.265625 6.109375 33.40625 6.109375 
Q 40.53125 6.109375 44.609375 11.75 
Q 48.6875 17.390625 48.6875 27.296875 
z
M 18.109375 46.390625 
Q 20.953125 51.265625 25.265625 53.625 
Q 29.59375 56 35.59375 56 
Q 45.5625 56 51.78125 48.09375 
Q 58.015625 40.1875 58.015625 27.296875 
Q 58.015625 14.40625 51.78125 6.484375 
Q 45.5625 -1.421875 35.59375 -1.421875 
Q 29.59375 -1.421875 25.265625 0.953125 
Q 20.953125 3.328125 18.109375 8.203125 
L 18.109375 0 
L 9.078125 0 
L 9.078125 75.984375 
L 18.109375 75.984375 
z
" id="DejaVuSans-98"/>
      <path d="M 10.984375 1.515625 
L 10.984375 10.5 
Q 14.703125 8.734375 18.5 7.8125 
Q 22.3125 6.890625 25.984375 6.890625 
Q 35.75 6.890625 40.890625 13.453125 
Q 46.046875 20.015625 46.78125 33.40625 
Q 43.953125 29.203125 39.59375 26.953125 
Q 35.25 24.703125 29.984375 24.703125 
Q 19.046875 24.703125 12.671875 31.3125 
Q 6.296875 37.9375 6.296875 49.421875 
Q 6.296875 60.640625 12.9375 67.421875 
Q 19.578125 74.21875 30.609375 74.21875 
Q 43.265625 74.21875 49.921875 64.515625 
Q 56.59375 54.828125 56.59375 36.375 
Q 56.59375 19.140625 48.40625 8.859375 
Q 40.234375 -1.421875 26.421875 -1.421875 
Q 22.703125 -1.421875 18.890625 -0.6875 
Q 15.09375 0.046875 10.984375 1.515625 
z
M 30.609375 32.421875 
Q 37.25 32.421875 41.125 36.953125 
Q 45.015625 41.5 45.015625 49.421875 
Q 45.015625 57.28125 41.125 61.84375 
Q 37.25 66.40625 30.609375 66.40625 
Q 23.96875 66.40625 20.09375 61.84375 
Q 16.21875 57.28125 16.21875 49.421875 
Q 16.21875 41.5 20.09375 36.953125 
Q 23.96875 32.421875 30.609375 32.421875 
z
" id="DejaVuSans-57"/>
     </defs>
     <use xlink:href="#DejaVuSans-98"/>
     <use x="63.476562" xlink:href="#DejaVuSans-101"/>
     <use x="125" xlink:href="#DejaVuSans-115"/>
     <use x="177.099609" xlink:href="#DejaVuSans-116"/>
     <use x="216.308594" xlink:href="#DejaVuSans-32"/>
     <use x="248.095703" xlink:href="#DejaVuSans-50"/>
     <use x="311.71875" xlink:href="#DejaVuSans-48"/>
     <use x="375.341797" xlink:href="#DejaVuSans-48"/>
     <use x="438.964844" xlink:href="#DejaVuSans-57"/>
    </g>
   </g>
   <g id="text_16">
    <!-- bbob f8, 10-D -->
    <g transform="translate(60.41088 38.111366)scale(0.102 -0.102)">
     <use xlink:href="#DejaVuSans-98"/>
     <use x="63.476562" xlink:href="#DejaVuSans-98"/>
     <use x="126.953125" xlink:href="#DejaVuSans-111"/>
     <use x="188.134766" xlink:href="#DejaVuSans-98"/>
     <use x="251.611328" xlink:href="#DejaVuSans-32"/>
     <use x="283.398438" xlink:href="#DejaVuSans-102"/>
     <use x="318.603516" xlink:href="#DejaVuSans-56"/>
     <use x="382.226562" xlink:href="#DejaVuSans-44"/>
     <use x="414.013672" xlink:href="#DejaVuSans-32"/>
     <use x="445.800781" xlink:href="#DejaVuSans-49"/>
     <use x="509.423828" xlink:href="#DejaVuSans-48"/>
     <use x="573.046875" xlink:href="#DejaVuSans-45"/>
     <use x="609.130859" xlink:href="#DejaVuSans-68"/>
    </g>
    <!-- 51 targets: 100..1e-08 -->
    <g transform="translate(60.41088 49.533135)scale(0.102 -0.102)">
     <defs>
      <path d="M 10.796875 72.90625 
L 49.515625 72.90625 
L 49.515625 64.59375 
L 19.828125 64.59375 
L 19.828125 46.734375 
Q 21.96875 47.46875 24.109375 47.828125 
Q 26.265625 48.1875 28.421875 48.1875 
Q 40.625 48.1875 47.75 41.5 
Q 54.890625 34.8125 54.890625 23.390625 
Q 54.890625 11.625 47.5625 5.09375 
Q 40.234375 -1.421875 26.90625 -1.421875 
Q 22.3125 -1.421875 17.546875 -0.640625 
Q 12.796875 0.140625 7.71875 1.703125 
L 7.71875 11.625 
Q 12.109375 9.234375 16.796875 8.0625 
Q 21.484375 6.890625 26.703125 6.890625 
Q 35.15625 6.890625 40.078125 11.328125 
Q 45.015625 15.765625 45.015625 23.390625 
Q 45.015625 31 40.078125 35.4375 
Q 35.15625 39.890625 26.703125 39.890625 
Q 22.75 39.890625 18.8125 39.015625 
Q 14.890625 38.140625 10.796875 36.28125 
z
" id="DejaVuSans-53"/>
      <path d="M 11.71875 12.40625 
L 22.015625 12.40625 
L 22.015625 0 
L 11.71875 0 
z
M 11.71875 51.703125 
L 22.015625 51.703125 
L 22.015625 39.3125 
L 11.71875 39.3125 
z
" id="DejaVuSans-58"/>
     </defs>
     <use xlink:href="#DejaVuSans-53"/>
     <use x="63.623047" xlink:href="#DejaVuSans-49"/>
     <use x="127.246094" xlink:href="#DejaVuSans-32"/>
     <use x="159.033203" xlink:href="#DejaVuSans-116"/>
     <use x="198.242188" xlink:href="#DejaVuSans-97"/>
     <use x="259.521484" xlink:href="#DejaVuSans-114"/>
     <use x="298.884766" xlink:href="#DejaVuSans-103"/>
     <use x="362.361328" xlink:href="#DejaVuSans-101"/>
     <use x="423.884766" xlink:href="#DejaVuSans-116"/>
     <use x="463.09375" xlink:href="#DejaVuSans-115"/>
     <use x="515.193359" xlink:href="#DejaVuSans-58"/>
     <use x="548.884766" xlink:href="#DejaVuSans-32"/>
     <use x="580.671875" xlink:href="#DejaVuSans-49"/>
     <use x="644.294922" xlink:href="#DejaVuSans-48"/>
     <use x="707.917969" xlink:href="#DejaVuSans-48"/>
     <use x="771.541016" xlink:href="#DejaVuSans-46"/>
     <use x="803.328125" xlink:href="#DejaVuSans-46"/>
     <use x="835.115234" xlink:href="#DejaVuSans-49"/>
     <use x="898.738281" xlink:href="#DejaVuSans-101"/>
     <use x="960.261719" xlink:href="#DejaVuSans-45"/>
     <use x="996.345703" xlink:href="#DejaVuSans-48"/>
     <use x="1059.96875" xlink:href="#DejaVuSans-56"/>
    </g>
    <!-- 15 instances -->
    <g transform="translate(60.41088 60.954904)scale(0.102 -0.102)">
     <use xlink:href="#DejaVuSans-49"/>
     <use x="63.623047" xlink:href="#DejaVuSans-53"/>
     <use x="127.246094" xlink:href="#DejaVuSans-32"/>
     <use x="159.033203" xlink:href="#DejaVuSans-105"/>
     <use x="186.816406" xlink:href="#DejaVuSans-110"/>
     <use x="250.195312" xlink:href="#DejaVuSans-115"/>
     <use x="302.294922" xlink:href="#DejaVuSans-116"/>
     <use x="341.503906" xlink:href="#DejaVuSans-97"/>
     <use x="402.783203" xlink:href="#DejaVuSans-110"/>
     <use x="466.162109" xlink:href="#DejaVuSans-99"/>
     <use x="521.142578" xlink:href="#DejaVuSans-101"/>
     <use x="582.666016" xlink:href="#DejaVuSans-115"/>
    </g>
   </g>
   <g id="text_17">
    <!-- v2.4 -->
    <g style="fill:#808080;" transform="translate(187.233062 294.151352)scale(0.1 -0.1)">
     <use xlink:href="#DejaVuSans-118"/>
     <use x="59.179688" xlink:href="#DejaVuSans-50"/>
     <use x="122.802734" xlink:href="#DejaVuSans-46"/>
     <use x="154.589844" xlink:href="#DejaVuSans-52"/>
    </g>
   </g>
   <g id="text_18">
    <!-- 8 Rosenbrock original -->
    <g transform="translate(90.08775 21.648)scale(0.2 -0.2)">
     <defs>
      <path d="M 44.390625 34.1875 
Q 47.5625 33.109375 50.5625 29.59375 
Q 53.5625 26.078125 56.59375 19.921875 
L 66.609375 0 
L 56 0 
L 46.6875 18.703125 
Q 43.0625 26.03125 39.671875 28.421875 
Q 36.28125 30.8125 30.421875 30.8125 
L 19.671875 30.8125 
L 19.671875 0 
L 9.8125 0 
L 9.8125 72.90625 
L 32.078125 72.90625 
Q 44.578125 72.90625 50.734375 67.671875 
Q 56.890625 62.453125 56.890625 51.90625 
Q 56.890625 45.015625 53.6875 40.46875 
Q 50.484375 35.9375 44.390625 34.1875 
z
M 19.671875 64.796875 
L 19.671875 38.921875 
L 32.078125 38.921875 
Q 39.203125 38.921875 42.84375 42.21875 
Q 46.484375 45.515625 46.484375 51.90625 
Q 46.484375 58.296875 42.84375 61.546875 
Q 39.203125 64.796875 32.078125 64.796875 
z
" id="DejaVuSans-82"/>
      <path d="M 9.078125 75.984375 
L 18.109375 75.984375 
L 18.109375 31.109375 
L 44.921875 54.6875 
L 56.390625 54.6875 
L 27.390625 29.109375 
L 57.625 0 
L 45.90625 0 
L 18.109375 26.703125 
L 18.109375 0 
L 9.078125 0 
z
" id="DejaVuSans-107"/>
     </defs>
     <use xlink:href="#DejaVuSans-56"/>
     <use x="63.623047" xlink:href="#DejaVuSans-32"/>
     <use x="95.410156" xlink:href="#DejaVuSans-82"/>
     <use x="160.392578" xlink:href="#DejaVuSans-111"/>
     <use x="221.574219" xlink:href="#DejaVuSans-115"/>
     <use x="273.673828" xlink:href="#DejaVuSans-101"/>
     <use x="335.197266" xlink:href="#DejaVuSans-110"/>
     <use x="398.576172" xlink:href="#DejaVuSans-98"/>
     <use x="462.052734" xlink:href="#DejaVuSans-114"/>
     <use x="500.916016" xlink:href="#DejaVuSans-111"/>
     <use x="562.097656" xlink:href="#DejaVuSans-99"/>
     <use x="617.078125" xlink:href="#DejaVuSans-107"/>
     <use x="674.988281" xlink:href="#DejaVuSans-32"/>
     <use x="706.775391" xlink:href="#DejaVuSans-111"/>
     <use x="767.957031" xlink:href="#DejaVuSans-114"/>
     <use x="809.070312" xlink:href="#DejaVuSans-105"/>
     <use x="836.853516" xlink:href="#DejaVuSans-103"/>
     <use x="900.330078" xlink:href="#DejaVuSans-105"/>
     <use x="928.113281" xlink:href="#DejaVuSans-110"/>
     <use x="991.492188" xlink:href="#DejaVuSans-97"/>
     <use x="1052.771484" xlink:href="#DejaVuSans-108"/>
    </g>
   </g>
  </g>
 </g>
 <defs>
  <clipPath id="p05b1e5396d">
   <rect height="271.296" width="281.088" x="57.6" y="27.648"/>
  </clipPath>
 </defs>
</svg>
