<?xml version="1.0" encoding="utf-8" standalone="no"?>
<!DOCTYPE svg PUBLIC "-//W3C//DTD SVG 1.1//EN"
  "http://www.w3.org/Graphics/SVG/1.1/DTD/svg11.dtd">
<!-- Created with matplotlib (https://matplotlib.org/) -->
<svg height="345.6pt" version="1.1" viewBox="0 0 460.8 345.6" width="460.8pt" xmlns="http://www.w3.org/2000/svg" xmlns:xlink="http://www.w3.org/1999/xlink">
 <metadata>
  <rdf:RDF xmlns:cc="http://creativecommons.org/ns#" xmlns:dc="http://purl.org/dc/elements/1.1/" xmlns:rdf="http://www.w3.org/1999/02/22-rdf-syntax-ns#">
   <cc:Work>
    <dc:type rdf:resource="http://purl.org/dc/dcmitype/StillImage"/>
    <dc:date>2021-04-18T18:03:57.943710</dc:date>
    <dc:format>image/svg+xml</dc:format>
    <dc:creator>
     <cc:Agent>
      <dc:title>Matplotlib v3.3.4, https://matplotlib.org/</dc:title>
     </cc:Agent>
    </dc:creator>
   </cc:Work>
  </rdf:RDF>
 </metadata>
 <defs>
  <style type="text/css">*{stroke-linecap:butt;stroke-linejoin:round;}</style>
 </defs>
 <g id="figure_1">
  <g id="patch_1">
   <path d="M 0 345.6 
L 460.8 345.6 
L 460.8 0 
L 0 0 
z
" style="fill:#ffffff;"/>
  </g>
  <g id="axes_1">
   <g id="patch_2">
    <path d="M 57.6 298.944 
L 338.688 298.944 
L 338.688 27.648 
L 57.6 27.648 
z
" style="fill:#ffffff;"/>
   </g>
   <g id="line2d_1">
    <path d="M 119.199476 298.944 
L 119.199476 293.677139 
L 121.84399 293.677139 
L 121.84399 288.410278 
L 124.444412 288.410278 
L 124.444412 283.143418 
L 128.827155 283.143418 
L 128.827155 277.876557 
L 129.79784 277.876557 
L 129.79784 272.609696 
L 131.640805 272.609696 
L 131.640805 267.342835 
L 134.492498 267.342835 
L 134.492498 262.075974 
L 135.482227 262.075974 
L 135.482227 256.809114 
L 136.79465 256.809114 
L 136.79465 251.542253 
L 137.52291 251.542253 
L 137.52291 246.275392 
L 137.910857 246.275392 
L 137.910857 241.008531 
L 138.358484 241.008531 
L 138.358484 235.74167 
L 138.628343 235.74167 
L 138.628343 230.47481 
L 139.541262 230.47481 
L 139.541262 225.207949 
L 140.165274 225.207949 
L 140.165274 219.941088 
L 140.317849 219.941088 
L 140.317849 214.674227 
L 140.408758 214.674227 
L 140.408758 209.407366 
L 140.589166 209.407366 
L 140.589166 204.140506 
L 140.678675 204.140506 
L 140.678675 198.873645 
L 141.061324 198.873645 
L 141.061324 193.606784 
L 141.292695 193.606784 
L 141.292695 188.339923 
L 141.407239 188.339923 
L 141.407239 183.073062 
L 141.521035 183.073062 
L 141.521035 177.806202 
L 141.605898 177.806202 
L 141.605898 172.539341 
L 141.69035 172.539341 
L 141.69035 167.27248 
L 141.830201 167.27248 
L 141.830201 162.005619 
L 141.941279 162.005619 
L 141.941279 156.738758 
L 142.024126 156.738758 
L 142.024126 151.471897 
L 142.133981 151.471897 
L 142.133981 146.205037 
L 142.297475 146.205037 
L 142.297475 140.938176 
L 142.378651 140.938176 
L 142.378651 135.671315 
L 142.51311 135.671315 
L 142.51311 130.404454 
L 142.619936 130.404454 
L 142.619936 125.137593 
L 144.050606 125.137593 
L 144.050606 119.870733 
L 144.099593 119.870733 
L 144.099593 114.603872 
L 146.728368 114.603872 
L 146.728368 109.337011 
L 146.854132 109.337011 
L 146.854132 104.07015 
L 146.937474 104.07015 
L 146.937474 98.803289 
L 147.041095 98.803289 
L 147.041095 93.536429 
L 147.12355 93.536429 
L 147.12355 88.269568 
L 147.226074 88.269568 
L 147.226074 83.002707 
L 147.327999 83.002707 
L 147.327999 77.735846 
L 147.449528 77.735846 
L 147.449528 72.468985 
L 147.590249 72.468985 
L 147.590249 67.202125 
L 147.690073 67.202125 
L 147.690073 61.935264 
L 147.769524 61.935264 
L 147.769524 56.668403 
L 147.86833 56.668403 
L 147.86833 51.401542 
L 147.946974 51.401542 
L 147.946974 46.134681 
L 148.064279 46.134681 
L 148.064279 40.867821 
L 148.103206 40.867821 
L 148.103206 35.60096 
L 148.200145 35.60096 
L 148.200145 30.334099 
L 338.688 30.334099 
" style="fill:none;stroke:#f5deb3;stroke-linecap:square;stroke-width:4;"/>
   </g>
   <g id="line2d_2">
    <defs>
     <path d="M -0 7.778175 
L 7.778175 0 
L 0 -7.778175 
L -7.778175 -0 
z
" id="m8cc8a37072" style="stroke:#f5deb3;stroke-linejoin:miter;stroke-width:1.5;"/>
    </defs>
    <g>
     <use style="fill:#f5deb3;stroke:#f5deb3;stroke-linejoin:miter;stroke-width:1.5;" x="140.678675" xlink:href="#m8cc8a37072" y="198.873645"/>
     <use style="fill:#f5deb3;stroke:#f5deb3;stroke-linejoin:miter;stroke-width:1.5;" x="147.690073" xlink:href="#m8cc8a37072" y="67.202125"/>
     <use style="fill:#f5deb3;stroke:#f5deb3;stroke-linejoin:miter;stroke-width:1.5;" x="148.200145" xlink:href="#m8cc8a37072" y="35.60096"/>
     <use style="fill:#f5deb3;stroke:#f5deb3;stroke-linejoin:miter;stroke-width:1.5;" x="148.200145" xlink:href="#m8cc8a37072" y="30.334099"/>
     <use style="fill:#f5deb3;stroke:#f5deb3;stroke-linejoin:miter;stroke-width:1.5;" x="338.688" xlink:href="#m8cc8a37072" y="30.334099"/>
    </g>
   </g>
   <g id="line2d_3">
    <path style="fill:none;stroke:#f5deb3;stroke-linecap:square;stroke-width:4;"/>
    <g/>
   </g>
   <g id="line2d_4">
    <path d="M 338.688 30.334099 
L 369.60768 35.706297 
" style="fill:none;stroke:#f5deb3;stroke-linecap:square;stroke-width:4;"/>
    <g>
     <use style="fill:#f5deb3;stroke:#f5deb3;stroke-linejoin:miter;stroke-width:1.5;" x="338.688" xlink:href="#m8cc8a37072" y="30.334099"/>
     <use style="fill:#f5deb3;stroke:#f5deb3;stroke-linejoin:miter;stroke-width:1.5;" x="369.60768" xlink:href="#m8cc8a37072" y="35.706297"/>
    </g>
   </g>
   <g id="matplotlib.axis_1">
    <g id="xtick_1">
     <g id="line2d_5">
      <path clip-path="url(#p33a1cd8538)" d="M 57.6 298.944 
L 57.6 27.648 
" style="fill:none;stroke:#b0b0b0;stroke-linecap:square;stroke-width:0.8;"/>
     </g>
     <g id="line2d_6">
      <defs>
       <path d="M 0 0 
L 0 3.5 
" id="mc71a61d06a" style="stroke:#000000;stroke-width:0.8;"/>
      </defs>
      <g>
       <use style="stroke:#000000;stroke-width:0.8;" x="57.6" xlink:href="#mc71a61d06a" y="298.944"/>
      </g>
     </g>
     <g id="text_1">
      <!-- 0 -->
      <g transform="translate(51.2375 321.140875)scale(0.2 -0.2)">
       <defs>
        <path d="M 31.78125 66.40625 
Q 24.171875 66.40625 20.328125 58.90625 
Q 16.5 51.421875 16.5 36.375 
Q 16.5 21.390625 20.328125 13.890625 
Q 24.171875 6.390625 31.78125 6.390625 
Q 39.453125 6.390625 43.28125 13.890625 
Q 47.125 21.390625 47.125 36.375 
Q 47.125 51.421875 43.28125 58.90625 
Q 39.453125 66.40625 31.78125 66.40625 
z
M 31.78125 74.21875 
Q 44.046875 74.21875 50.515625 64.515625 
Q 56.984375 54.828125 56.984375 36.375 
Q 56.984375 17.96875 50.515625 8.265625 
Q 44.046875 -1.421875 31.78125 -1.421875 
Q 19.53125 -1.421875 13.0625 8.265625 
Q 6.59375 17.96875 6.59375 36.375 
Q 6.59375 54.828125 13.0625 64.515625 
Q 19.53125 74.21875 31.78125 74.21875 
z
" id="DejaVuSans-48"/>
       </defs>
       <use xlink:href="#DejaVuSans-48"/>
      </g>
     </g>
    </g>
    <g id="xtick_2">
     <g id="line2d_7">
      <path clip-path="url(#p33a1cd8538)" d="M 137.910857 298.944 
L 137.910857 27.648 
" style="fill:none;stroke:#b0b0b0;stroke-linecap:square;stroke-width:0.8;"/>
     </g>
     <g id="line2d_8">
      <g>
       <use style="stroke:#000000;stroke-width:0.8;" x="137.910857" xlink:href="#mc71a61d06a" y="298.944"/>
      </g>
     </g>
     <g id="text_2">
      <!-- 2 -->
      <g transform="translate(131.548357 321.140875)scale(0.2 -0.2)">
       <defs>
        <path d="M 19.1875 8.296875 
L 53.609375 8.296875 
L 53.609375 0 
L 7.328125 0 
L 7.328125 8.296875 
Q 12.9375 14.109375 22.625 23.890625 
Q 32.328125 33.6875 34.8125 36.53125 
Q 39.546875 41.84375 41.421875 45.53125 
Q 43.3125 49.21875 43.3125 52.78125 
Q 43.3125 58.59375 39.234375 62.25 
Q 35.15625 65.921875 28.609375 65.921875 
Q 23.96875 65.921875 18.8125 64.3125 
Q 13.671875 62.703125 7.8125 59.421875 
L 7.8125 69.390625 
Q 13.765625 71.78125 18.9375 73 
Q 24.125 74.21875 28.421875 74.21875 
Q 39.75 74.21875 46.484375 68.546875 
Q 53.21875 62.890625 53.21875 53.421875 
Q 53.21875 48.921875 51.53125 44.890625 
Q 49.859375 40.875 45.40625 35.40625 
Q 44.1875 33.984375 37.640625 27.21875 
Q 31.109375 20.453125 19.1875 8.296875 
z
" id="DejaVuSans-50"/>
       </defs>
       <use xlink:href="#DejaVuSans-50"/>
      </g>
     </g>
    </g>
    <g id="xtick_3">
     <g id="line2d_9">
      <path clip-path="url(#p33a1cd8538)" d="M 218.221714 298.944 
L 218.221714 27.648 
" style="fill:none;stroke:#b0b0b0;stroke-linecap:square;stroke-width:0.8;"/>
     </g>
     <g id="line2d_10">
      <g>
       <use style="stroke:#000000;stroke-width:0.8;" x="218.221714" xlink:href="#mc71a61d06a" y="298.944"/>
      </g>
     </g>
     <g id="text_3">
      <!-- 4 -->
      <g transform="translate(211.859214 321.140875)scale(0.2 -0.2)">
       <defs>
        <path d="M 37.796875 64.3125 
L 12.890625 25.390625 
L 37.796875 25.390625 
z
M 35.203125 72.90625 
L 47.609375 72.90625 
L 47.609375 25.390625 
L 58.015625 25.390625 
L 58.015625 17.1875 
L 47.609375 17.1875 
L 47.609375 0 
L 37.796875 0 
L 37.796875 17.1875 
L 4.890625 17.1875 
L 4.890625 26.703125 
z
" id="DejaVuSans-52"/>
       </defs>
       <use xlink:href="#DejaVuSans-52"/>
      </g>
     </g>
    </g>
    <g id="xtick_4">
     <g id="line2d_11">
      <path clip-path="url(#p33a1cd8538)" d="M 298.532571 298.944 
L 298.532571 27.648 
" style="fill:none;stroke:#b0b0b0;stroke-linecap:square;stroke-width:0.8;"/>
     </g>
     <g id="line2d_12">
      <g>
       <use style="stroke:#000000;stroke-width:0.8;" x="298.532571" xlink:href="#mc71a61d06a" y="298.944"/>
      </g>
     </g>
     <g id="text_4">
      <!-- 6 -->
      <g transform="translate(292.170071 321.140875)scale(0.2 -0.2)">
       <defs>
        <path d="M 33.015625 40.375 
Q 26.375 40.375 22.484375 35.828125 
Q 18.609375 31.296875 18.609375 23.390625 
Q 18.609375 15.53125 22.484375 10.953125 
Q 26.375 6.390625 33.015625 6.390625 
Q 39.65625 6.390625 43.53125 10.953125 
Q 47.40625 15.53125 47.40625 23.390625 
Q 47.40625 31.296875 43.53125 35.828125 
Q 39.65625 40.375 33.015625 40.375 
z
M 52.59375 71.296875 
L 52.59375 62.3125 
Q 48.875 64.0625 45.09375 64.984375 
Q 41.3125 65.921875 37.59375 65.921875 
Q 27.828125 65.921875 22.671875 59.328125 
Q 17.53125 52.734375 16.796875 39.40625 
Q 19.671875 43.65625 24.015625 45.921875 
Q 28.375 48.1875 33.59375 48.1875 
Q 44.578125 48.1875 50.953125 41.515625 
Q 57.328125 34.859375 57.328125 23.390625 
Q 57.328125 12.15625 50.6875 5.359375 
Q 44.046875 -1.421875 33.015625 -1.421875 
Q 20.359375 -1.421875 13.671875 8.265625 
Q 6.984375 17.96875 6.984375 36.375 
Q 6.984375 53.65625 15.1875 63.9375 
Q 23.390625 74.21875 37.203125 74.21875 
Q 40.921875 74.21875 44.703125 73.484375 
Q 48.484375 72.75 52.59375 71.296875 
z
" id="DejaVuSans-54"/>
       </defs>
       <use xlink:href="#DejaVuSans-54"/>
      </g>
     </g>
    </g>
    <g id="xtick_5">
     <g id="line2d_13">
      <path clip-path="url(#p33a1cd8538)" d="M 97.755429 298.944 
L 97.755429 27.648 
" style="fill:none;stroke:#b0b0b0;stroke-linecap:square;stroke-width:0.8;"/>
     </g>
     <g id="line2d_14">
      <defs>
       <path d="M 0 0 
L 0 2 
" id="mc2b606e2aa" style="stroke:#000000;stroke-width:0.6;"/>
      </defs>
      <g>
       <use style="stroke:#000000;stroke-width:0.6;" x="97.755429" xlink:href="#mc2b606e2aa" y="298.944"/>
      </g>
     </g>
    </g>
    <g id="xtick_6">
     <g id="line2d_15">
      <path clip-path="url(#p33a1cd8538)" d="M 178.066286 298.944 
L 178.066286 27.648 
" style="fill:none;stroke:#b0b0b0;stroke-linecap:square;stroke-width:0.8;"/>
     </g>
     <g id="line2d_16">
      <g>
       <use style="stroke:#000000;stroke-width:0.6;" x="178.066286" xlink:href="#mc2b606e2aa" y="298.944"/>
      </g>
     </g>
    </g>
    <g id="xtick_7">
     <g id="line2d_17">
      <path clip-path="url(#p33a1cd8538)" d="M 258.377143 298.944 
L 258.377143 27.648 
" style="fill:none;stroke:#b0b0b0;stroke-linecap:square;stroke-width:0.8;"/>
     </g>
     <g id="line2d_18">
      <g>
       <use style="stroke:#000000;stroke-width:0.6;" x="258.377143" xlink:href="#mc2b606e2aa" y="298.944"/>
      </g>
     </g>
    </g>
    <g id="xtick_8">
     <g id="line2d_19">
      <path clip-path="url(#p33a1cd8538)" d="M 338.688 298.944 
L 338.688 27.648 
" style="fill:none;stroke:#b0b0b0;stroke-linecap:square;stroke-width:0.8;"/>
     </g>
     <g id="line2d_20">
      <g>
       <use style="stroke:#000000;stroke-width:0.6;" x="338.688" xlink:href="#mc2b606e2aa" y="298.944"/>
      </g>
     </g>
    </g>
    <g id="text_5">
     <!-- log10(# f-evals / dimension) -->
     <g transform="translate(77.764078 342.217594)scale(0.17 -0.17)">
      <defs>
       <path d="M 9.421875 75.984375 
L 18.40625 75.984375 
L 18.40625 0 
L 9.421875 0 
z
" id="DejaVuSans-108"/>
       <path d="M 30.609375 48.390625 
Q 23.390625 48.390625 19.1875 42.75 
Q 14.984375 37.109375 14.984375 27.296875 
Q 14.984375 17.484375 19.15625 11.84375 
Q 23.34375 6.203125 30.609375 6.203125 
Q 37.796875 6.203125 41.984375 11.859375 
Q 46.1875 17.53125 46.1875 27.296875 
Q 46.1875 37.015625 41.984375 42.703125 
Q 37.796875 48.390625 30.609375 48.390625 
z
M 30.609375 56 
Q 42.328125 56 49.015625 48.375 
Q 55.71875 40.765625 55.71875 27.296875 
Q 55.71875 13.875 49.015625 6.21875 
Q 42.328125 -1.421875 30.609375 -1.421875 
Q 18.84375 -1.421875 12.171875 6.21875 
Q 5.515625 13.875 5.515625 27.296875 
Q 5.515625 40.765625 12.171875 48.375 
Q 18.84375 56 30.609375 56 
z
" id="DejaVuSans-111"/>
       <path d="M 45.40625 27.984375 
Q 45.40625 37.75 41.375 43.109375 
Q 37.359375 48.484375 30.078125 48.484375 
Q 22.859375 48.484375 18.828125 43.109375 
Q 14.796875 37.75 14.796875 27.984375 
Q 14.796875 18.265625 18.828125 12.890625 
Q 22.859375 7.515625 30.078125 7.515625 
Q 37.359375 7.515625 41.375 12.890625 
Q 45.40625 18.265625 45.40625 27.984375 
z
M 54.390625 6.78125 
Q 54.390625 -7.171875 48.1875 -13.984375 
Q 42 -20.796875 29.203125 -20.796875 
Q 24.46875 -20.796875 20.265625 -20.09375 
Q 16.0625 -19.390625 12.109375 -17.921875 
L 12.109375 -9.1875 
Q 16.0625 -11.328125 19.921875 -12.34375 
Q 23.78125 -13.375 27.78125 -13.375 
Q 36.625 -13.375 41.015625 -8.765625 
Q 45.40625 -4.15625 45.40625 5.171875 
L 45.40625 9.625 
Q 42.625 4.78125 38.28125 2.390625 
Q 33.9375 0 27.875 0 
Q 17.828125 0 11.671875 7.65625 
Q 5.515625 15.328125 5.515625 27.984375 
Q 5.515625 40.671875 11.671875 48.328125 
Q 17.828125 56 27.875 56 
Q 33.9375 56 38.28125 53.609375 
Q 42.625 51.21875 45.40625 46.390625 
L 45.40625 54.6875 
L 54.390625 54.6875 
z
" id="DejaVuSans-103"/>
       <path d="M 12.40625 8.296875 
L 28.515625 8.296875 
L 28.515625 63.921875 
L 10.984375 60.40625 
L 10.984375 69.390625 
L 28.421875 72.90625 
L 38.28125 72.90625 
L 38.28125 8.296875 
L 54.390625 8.296875 
L 54.390625 0 
L 12.40625 0 
z
" id="DejaVuSans-49"/>
       <path d="M 31 75.875 
Q 24.46875 64.65625 21.28125 53.65625 
Q 18.109375 42.671875 18.109375 31.390625 
Q 18.109375 20.125 21.3125 9.0625 
Q 24.515625 -2 31 -13.1875 
L 23.1875 -13.1875 
Q 15.875 -1.703125 12.234375 9.375 
Q 8.59375 20.453125 8.59375 31.390625 
Q 8.59375 42.28125 12.203125 53.3125 
Q 15.828125 64.359375 23.1875 75.875 
z
" id="DejaVuSans-40"/>
       <path d="M 51.125 44 
L 36.921875 44 
L 32.8125 27.6875 
L 47.125 27.6875 
z
M 43.796875 71.78125 
L 38.71875 51.515625 
L 52.984375 51.515625 
L 58.109375 71.78125 
L 65.921875 71.78125 
L 60.890625 51.515625 
L 76.125 51.515625 
L 76.125 44 
L 58.984375 44 
L 54.984375 27.6875 
L 70.515625 27.6875 
L 70.515625 20.21875 
L 53.078125 20.21875 
L 48 0 
L 40.1875 0 
L 45.21875 20.21875 
L 30.90625 20.21875 
L 25.875 0 
L 18.015625 0 
L 23.09375 20.21875 
L 7.71875 20.21875 
L 7.71875 27.6875 
L 24.90625 27.6875 
L 29 44 
L 13.28125 44 
L 13.28125 51.515625 
L 30.90625 51.515625 
L 35.890625 71.78125 
z
" id="DejaVuSans-35"/>
       <path id="DejaVuSans-32"/>
       <path d="M 37.109375 75.984375 
L 37.109375 68.5 
L 28.515625 68.5 
Q 23.6875 68.5 21.796875 66.546875 
Q 19.921875 64.59375 19.921875 59.515625 
L 19.921875 54.6875 
L 34.71875 54.6875 
L 34.71875 47.703125 
L 19.921875 47.703125 
L 19.921875 0 
L 10.890625 0 
L 10.890625 47.703125 
L 2.296875 47.703125 
L 2.296875 54.6875 
L 10.890625 54.6875 
L 10.890625 58.5 
Q 10.890625 67.625 15.140625 71.796875 
Q 19.390625 75.984375 28.609375 75.984375 
z
" id="DejaVuSans-102"/>
       <path d="M 4.890625 31.390625 
L 31.203125 31.390625 
L 31.203125 23.390625 
L 4.890625 23.390625 
z
" id="DejaVuSans-45"/>
       <path d="M 56.203125 29.59375 
L 56.203125 25.203125 
L 14.890625 25.203125 
Q 15.484375 15.921875 20.484375 11.0625 
Q 25.484375 6.203125 34.421875 6.203125 
Q 39.59375 6.203125 44.453125 7.46875 
Q 49.3125 8.734375 54.109375 11.28125 
L 54.109375 2.78125 
Q 49.265625 0.734375 44.1875 -0.34375 
Q 39.109375 -1.421875 33.890625 -1.421875 
Q 20.796875 -1.421875 13.15625 6.1875 
Q 5.515625 13.8125 5.515625 26.8125 
Q 5.515625 40.234375 12.765625 48.109375 
Q 20.015625 56 32.328125 56 
Q 43.359375 56 49.78125 48.890625 
Q 56.203125 41.796875 56.203125 29.59375 
z
M 47.21875 32.234375 
Q 47.125 39.59375 43.09375 43.984375 
Q 39.0625 48.390625 32.421875 48.390625 
Q 24.90625 48.390625 20.390625 44.140625 
Q 15.875 39.890625 15.1875 32.171875 
z
" id="DejaVuSans-101"/>
       <path d="M 2.984375 54.6875 
L 12.5 54.6875 
L 29.59375 8.796875 
L 46.6875 54.6875 
L 56.203125 54.6875 
L 35.6875 0 
L 23.484375 0 
z
" id="DejaVuSans-118"/>
       <path d="M 34.28125 27.484375 
Q 23.390625 27.484375 19.1875 25 
Q 14.984375 22.515625 14.984375 16.5 
Q 14.984375 11.71875 18.140625 8.90625 
Q 21.296875 6.109375 26.703125 6.109375 
Q 34.1875 6.109375 38.703125 11.40625 
Q 43.21875 16.703125 43.21875 25.484375 
L 43.21875 27.484375 
z
M 52.203125 31.203125 
L 52.203125 0 
L 43.21875 0 
L 43.21875 8.296875 
Q 40.140625 3.328125 35.546875 0.953125 
Q 30.953125 -1.421875 24.3125 -1.421875 
Q 15.921875 -1.421875 10.953125 3.296875 
Q 6 8.015625 6 15.921875 
Q 6 25.140625 12.171875 29.828125 
Q 18.359375 34.515625 30.609375 34.515625 
L 43.21875 34.515625 
L 43.21875 35.40625 
Q 43.21875 41.609375 39.140625 45 
Q 35.0625 48.390625 27.6875 48.390625 
Q 23 48.390625 18.546875 47.265625 
Q 14.109375 46.140625 10.015625 43.890625 
L 10.015625 52.203125 
Q 14.9375 54.109375 19.578125 55.046875 
Q 24.21875 56 28.609375 56 
Q 40.484375 56 46.34375 49.84375 
Q 52.203125 43.703125 52.203125 31.203125 
z
" id="DejaVuSans-97"/>
       <path d="M 44.28125 53.078125 
L 44.28125 44.578125 
Q 40.484375 46.53125 36.375 47.5 
Q 32.28125 48.484375 27.875 48.484375 
Q 21.1875 48.484375 17.84375 46.4375 
Q 14.5 44.390625 14.5 40.28125 
Q 14.5 37.15625 16.890625 35.375 
Q 19.28125 33.59375 26.515625 31.984375 
L 29.59375 31.296875 
Q 39.15625 29.25 43.1875 25.515625 
Q 47.21875 21.78125 47.21875 15.09375 
Q 47.21875 7.46875 41.1875 3.015625 
Q 35.15625 -1.421875 24.609375 -1.421875 
Q 20.21875 -1.421875 15.453125 -0.5625 
Q 10.6875 0.296875 5.421875 2 
L 5.421875 11.28125 
Q 10.40625 8.6875 15.234375 7.390625 
Q 20.0625 6.109375 24.8125 6.109375 
Q 31.15625 6.109375 34.5625 8.28125 
Q 37.984375 10.453125 37.984375 14.40625 
Q 37.984375 18.0625 35.515625 20.015625 
Q 33.0625 21.96875 24.703125 23.78125 
L 21.578125 24.515625 
Q 13.234375 26.265625 9.515625 29.90625 
Q 5.8125 33.546875 5.8125 39.890625 
Q 5.8125 47.609375 11.28125 51.796875 
Q 16.75 56 26.8125 56 
Q 31.78125 56 36.171875 55.265625 
Q 40.578125 54.546875 44.28125 53.078125 
z
" id="DejaVuSans-115"/>
       <path d="M 25.390625 72.90625 
L 33.6875 72.90625 
L 8.296875 -9.28125 
L 0 -9.28125 
z
" id="DejaVuSans-47"/>
       <path d="M 45.40625 46.390625 
L 45.40625 75.984375 
L 54.390625 75.984375 
L 54.390625 0 
L 45.40625 0 
L 45.40625 8.203125 
Q 42.578125 3.328125 38.25 0.953125 
Q 33.9375 -1.421875 27.875 -1.421875 
Q 17.96875 -1.421875 11.734375 6.484375 
Q 5.515625 14.40625 5.515625 27.296875 
Q 5.515625 40.1875 11.734375 48.09375 
Q 17.96875 56 27.875 56 
Q 33.9375 56 38.25 53.625 
Q 42.578125 51.265625 45.40625 46.390625 
z
M 14.796875 27.296875 
Q 14.796875 17.390625 18.875 11.75 
Q 22.953125 6.109375 30.078125 6.109375 
Q 37.203125 6.109375 41.296875 11.75 
Q 45.40625 17.390625 45.40625 27.296875 
Q 45.40625 37.203125 41.296875 42.84375 
Q 37.203125 48.484375 30.078125 48.484375 
Q 22.953125 48.484375 18.875 42.84375 
Q 14.796875 37.203125 14.796875 27.296875 
z
" id="DejaVuSans-100"/>
       <path d="M 9.421875 54.6875 
L 18.40625 54.6875 
L 18.40625 0 
L 9.421875 0 
z
M 9.421875 75.984375 
L 18.40625 75.984375 
L 18.40625 64.59375 
L 9.421875 64.59375 
z
" id="DejaVuSans-105"/>
       <path d="M 52 44.1875 
Q 55.375 50.25 60.0625 53.125 
Q 64.75 56 71.09375 56 
Q 79.640625 56 84.28125 50.015625 
Q 88.921875 44.046875 88.921875 33.015625 
L 88.921875 0 
L 79.890625 0 
L 79.890625 32.71875 
Q 79.890625 40.578125 77.09375 44.375 
Q 74.3125 48.1875 68.609375 48.1875 
Q 61.625 48.1875 57.5625 43.546875 
Q 53.515625 38.921875 53.515625 30.90625 
L 53.515625 0 
L 44.484375 0 
L 44.484375 32.71875 
Q 44.484375 40.625 41.703125 44.40625 
Q 38.921875 48.1875 33.109375 48.1875 
Q 26.21875 48.1875 22.15625 43.53125 
Q 18.109375 38.875 18.109375 30.90625 
L 18.109375 0 
L 9.078125 0 
L 9.078125 54.6875 
L 18.109375 54.6875 
L 18.109375 46.1875 
Q 21.1875 51.21875 25.484375 53.609375 
Q 29.78125 56 35.6875 56 
Q 41.65625 56 45.828125 52.96875 
Q 50 49.953125 52 44.1875 
z
" id="DejaVuSans-109"/>
       <path d="M 54.890625 33.015625 
L 54.890625 0 
L 45.90625 0 
L 45.90625 32.71875 
Q 45.90625 40.484375 42.875 44.328125 
Q 39.84375 48.1875 33.796875 48.1875 
Q 26.515625 48.1875 22.3125 43.546875 
Q 18.109375 38.921875 18.109375 30.90625 
L 18.109375 0 
L 9.078125 0 
L 9.078125 54.6875 
L 18.109375 54.6875 
L 18.109375 46.1875 
Q 21.34375 51.125 25.703125 53.5625 
Q 30.078125 56 35.796875 56 
Q 45.21875 56 50.046875 50.171875 
Q 54.890625 44.34375 54.890625 33.015625 
z
" id="DejaVuSans-110"/>
       <path d="M 8.015625 75.875 
L 15.828125 75.875 
Q 23.140625 64.359375 26.78125 53.3125 
Q 30.421875 42.28125 30.421875 31.390625 
Q 30.421875 20.453125 26.78125 9.375 
Q 23.140625 -1.703125 15.828125 -13.1875 
L 8.015625 -13.1875 
Q 14.5 -2 17.703125 9.0625 
Q 20.90625 20.125 20.90625 31.390625 
Q 20.90625 42.671875 17.703125 53.65625 
Q 14.5 64.65625 8.015625 75.875 
z
" id="DejaVuSans-41"/>
      </defs>
      <use xlink:href="#DejaVuSans-108"/>
      <use x="27.783203" xlink:href="#DejaVuSans-111"/>
      <use x="88.964844" xlink:href="#DejaVuSans-103"/>
      <use x="152.441406" xlink:href="#DejaVuSans-49"/>
      <use x="216.064453" xlink:href="#DejaVuSans-48"/>
      <use x="279.6875" xlink:href="#DejaVuSans-40"/>
      <use x="318.701172" xlink:href="#DejaVuSans-35"/>
      <use x="402.490234" xlink:href="#DejaVuSans-32"/>
      <use x="434.277344" xlink:href="#DejaVuSans-102"/>
      <use x="463.982422" xlink:href="#DejaVuSans-45"/>
      <use x="500.066406" xlink:href="#DejaVuSans-101"/>
      <use x="561.589844" xlink:href="#DejaVuSans-118"/>
      <use x="620.769531" xlink:href="#DejaVuSans-97"/>
      <use x="682.048828" xlink:href="#DejaVuSans-108"/>
      <use x="709.832031" xlink:href="#DejaVuSans-115"/>
      <use x="761.931641" xlink:href="#DejaVuSans-32"/>
      <use x="793.71875" xlink:href="#DejaVuSans-47"/>
      <use x="827.410156" xlink:href="#DejaVuSans-32"/>
      <use x="859.197266" xlink:href="#DejaVuSans-100"/>
      <use x="922.673828" xlink:href="#DejaVuSans-105"/>
      <use x="950.457031" xlink:href="#DejaVuSans-109"/>
      <use x="1047.869141" xlink:href="#DejaVuSans-101"/>
      <use x="1109.392578" xlink:href="#DejaVuSans-110"/>
      <use x="1172.771484" xlink:href="#DejaVuSans-115"/>
      <use x="1224.871094" xlink:href="#DejaVuSans-105"/>
      <use x="1252.654297" xlink:href="#DejaVuSans-111"/>
      <use x="1313.835938" xlink:href="#DejaVuSans-110"/>
      <use x="1377.214844" xlink:href="#DejaVuSans-41"/>
     </g>
    </g>
   </g>
   <g id="matplotlib.axis_2">
    <g id="ytick_1">
     <g id="line2d_21">
      <path clip-path="url(#p33a1cd8538)" d="M 57.6 298.944 
L 338.688 298.944 
" style="fill:none;stroke:#b0b0b0;stroke-linecap:square;stroke-width:0.8;"/>
     </g>
     <g id="line2d_22">
      <defs>
       <path d="M 0 0 
L -3.5 0 
" id="m0352e3d902" style="stroke:#000000;stroke-width:0.8;"/>
      </defs>
      <g>
       <use style="stroke:#000000;stroke-width:0.8;" x="57.6" xlink:href="#m0352e3d902" y="298.944"/>
      </g>
     </g>
     <g id="text_6">
      <!-- 0.0 -->
      <g transform="translate(25.155 305.02275)scale(0.16 -0.16)">
       <defs>
        <path d="M 10.6875 12.40625 
L 21 12.40625 
L 21 0 
L 10.6875 0 
z
" id="DejaVuSans-46"/>
       </defs>
       <use xlink:href="#DejaVuSans-48"/>
       <use x="63.623047" xlink:href="#DejaVuSans-46"/>
       <use x="95.410156" xlink:href="#DejaVuSans-48"/>
      </g>
     </g>
    </g>
    <g id="ytick_2">
     <g id="line2d_23">
      <path clip-path="url(#p33a1cd8538)" d="M 57.6 245.22202 
L 338.688 245.22202 
" style="fill:none;stroke:#b0b0b0;stroke-linecap:square;stroke-width:0.8;"/>
     </g>
     <g id="line2d_24">
      <g>
       <use style="stroke:#000000;stroke-width:0.8;" x="57.6" xlink:href="#m0352e3d902" y="245.22202"/>
      </g>
     </g>
     <g id="text_7">
      <!-- 0.2 -->
      <g transform="translate(25.155 251.30077)scale(0.16 -0.16)">
       <use xlink:href="#DejaVuSans-48"/>
       <use x="63.623047" xlink:href="#DejaVuSans-46"/>
       <use x="95.410156" xlink:href="#DejaVuSans-50"/>
      </g>
     </g>
    </g>
    <g id="ytick_3">
     <g id="line2d_25">
      <path clip-path="url(#p33a1cd8538)" d="M 57.6 191.50004 
L 338.688 191.50004 
" style="fill:none;stroke:#b0b0b0;stroke-linecap:square;stroke-width:0.8;"/>
     </g>
     <g id="line2d_26">
      <g>
       <use style="stroke:#000000;stroke-width:0.8;" x="57.6" xlink:href="#m0352e3d902" y="191.50004"/>
      </g>
     </g>
     <g id="text_8">
      <!-- 0.4 -->
      <g transform="translate(25.155 197.57879)scale(0.16 -0.16)">
       <use xlink:href="#DejaVuSans-48"/>
       <use x="63.623047" xlink:href="#DejaVuSans-46"/>
       <use x="95.410156" xlink:href="#DejaVuSans-52"/>
      </g>
     </g>
    </g>
    <g id="ytick_4">
     <g id="line2d_27">
      <path clip-path="url(#p33a1cd8538)" d="M 57.6 137.778059 
L 338.688 137.778059 
" style="fill:none;stroke:#b0b0b0;stroke-linecap:square;stroke-width:0.8;"/>
     </g>
     <g id="line2d_28">
      <g>
       <use style="stroke:#000000;stroke-width:0.8;" x="57.6" xlink:href="#m0352e3d902" y="137.778059"/>
      </g>
     </g>
     <g id="text_9">
      <!-- 0.6 -->
      <g transform="translate(25.155 143.856809)scale(0.16 -0.16)">
       <use xlink:href="#DejaVuSans-48"/>
       <use x="63.623047" xlink:href="#DejaVuSans-46"/>
       <use x="95.410156" xlink:href="#DejaVuSans-54"/>
      </g>
     </g>
    </g>
    <g id="ytick_5">
     <g id="line2d_29">
      <path clip-path="url(#p33a1cd8538)" d="M 57.6 84.056079 
L 338.688 84.056079 
" style="fill:none;stroke:#b0b0b0;stroke-linecap:square;stroke-width:0.8;"/>
     </g>
     <g id="line2d_30">
      <g>
       <use style="stroke:#000000;stroke-width:0.8;" x="57.6" xlink:href="#m0352e3d902" y="84.056079"/>
      </g>
     </g>
     <g id="text_10">
      <!-- 0.8 -->
      <g transform="translate(25.155 90.134829)scale(0.16 -0.16)">
       <defs>
        <path d="M 31.78125 34.625 
Q 24.75 34.625 20.71875 30.859375 
Q 16.703125 27.09375 16.703125 20.515625 
Q 16.703125 13.921875 20.71875 10.15625 
Q 24.75 6.390625 31.78125 6.390625 
Q 38.8125 6.390625 42.859375 10.171875 
Q 46.921875 13.96875 46.921875 20.515625 
Q 46.921875 27.09375 42.890625 30.859375 
Q 38.875 34.625 31.78125 34.625 
z
M 21.921875 38.8125 
Q 15.578125 40.375 12.03125 44.71875 
Q 8.5 49.078125 8.5 55.328125 
Q 8.5 64.0625 14.71875 69.140625 
Q 20.953125 74.21875 31.78125 74.21875 
Q 42.671875 74.21875 48.875 69.140625 
Q 55.078125 64.0625 55.078125 55.328125 
Q 55.078125 49.078125 51.53125 44.71875 
Q 48 40.375 41.703125 38.8125 
Q 48.828125 37.15625 52.796875 32.3125 
Q 56.78125 27.484375 56.78125 20.515625 
Q 56.78125 9.90625 50.3125 4.234375 
Q 43.84375 -1.421875 31.78125 -1.421875 
Q 19.734375 -1.421875 13.25 4.234375 
Q 6.78125 9.90625 6.78125 20.515625 
Q 6.78125 27.484375 10.78125 32.3125 
Q 14.796875 37.15625 21.921875 38.8125 
z
M 18.3125 54.390625 
Q 18.3125 48.734375 21.84375 45.5625 
Q 25.390625 42.390625 31.78125 42.390625 
Q 38.140625 42.390625 41.71875 45.5625 
Q 45.3125 48.734375 45.3125 54.390625 
Q 45.3125 60.0625 41.71875 63.234375 
Q 38.140625 66.40625 31.78125 66.40625 
Q 25.390625 66.40625 21.84375 63.234375 
Q 18.3125 60.0625 18.3125 54.390625 
z
" id="DejaVuSans-56"/>
       </defs>
       <use xlink:href="#DejaVuSans-48"/>
       <use x="63.623047" xlink:href="#DejaVuSans-46"/>
       <use x="95.410156" xlink:href="#DejaVuSans-56"/>
      </g>
     </g>
    </g>
    <g id="ytick_6">
     <g id="line2d_31">
      <path clip-path="url(#p33a1cd8538)" d="M 57.6 30.334099 
L 338.688 30.334099 
" style="fill:none;stroke:#b0b0b0;stroke-linecap:square;stroke-width:0.8;"/>
     </g>
     <g id="line2d_32">
      <g>
       <use style="stroke:#000000;stroke-width:0.8;" x="57.6" xlink:href="#m0352e3d902" y="30.334099"/>
      </g>
     </g>
     <g id="text_11">
      <!-- 1.0 -->
      <g transform="translate(25.155 36.412849)scale(0.16 -0.16)">
       <use xlink:href="#DejaVuSans-49"/>
       <use x="63.623047" xlink:href="#DejaVuSans-46"/>
       <use x="95.410156" xlink:href="#DejaVuSans-48"/>
      </g>
     </g>
    </g>
    <g id="text_12">
     <!-- Fraction of function,target pairs -->
     <g transform="translate(17.619531 297.681)rotate(-90)scale(0.17 -0.17)">
      <defs>
       <path d="M 9.8125 72.90625 
L 51.703125 72.90625 
L 51.703125 64.59375 
L 19.671875 64.59375 
L 19.671875 43.109375 
L 48.578125 43.109375 
L 48.578125 34.8125 
L 19.671875 34.8125 
L 19.671875 0 
L 9.8125 0 
z
" id="DejaVuSans-70"/>
       <path d="M 41.109375 46.296875 
Q 39.59375 47.171875 37.8125 47.578125 
Q 36.03125 48 33.890625 48 
Q 26.265625 48 22.1875 43.046875 
Q 18.109375 38.09375 18.109375 28.8125 
L 18.109375 0 
L 9.078125 0 
L 9.078125 54.6875 
L 18.109375 54.6875 
L 18.109375 46.1875 
Q 20.953125 51.171875 25.484375 53.578125 
Q 30.03125 56 36.53125 56 
Q 37.453125 56 38.578125 55.875 
Q 39.703125 55.765625 41.0625 55.515625 
z
" id="DejaVuSans-114"/>
       <path d="M 48.78125 52.59375 
L 48.78125 44.1875 
Q 44.96875 46.296875 41.140625 47.34375 
Q 37.3125 48.390625 33.40625 48.390625 
Q 24.65625 48.390625 19.8125 42.84375 
Q 14.984375 37.3125 14.984375 27.296875 
Q 14.984375 17.28125 19.8125 11.734375 
Q 24.65625 6.203125 33.40625 6.203125 
Q 37.3125 6.203125 41.140625 7.25 
Q 44.96875 8.296875 48.78125 10.40625 
L 48.78125 2.09375 
Q 45.015625 0.34375 40.984375 -0.53125 
Q 36.96875 -1.421875 32.421875 -1.421875 
Q 20.0625 -1.421875 12.78125 6.34375 
Q 5.515625 14.109375 5.515625 27.296875 
Q 5.515625 40.671875 12.859375 48.328125 
Q 20.21875 56 33.015625 56 
Q 37.15625 56 41.109375 55.140625 
Q 45.0625 54.296875 48.78125 52.59375 
z
" id="DejaVuSans-99"/>
       <path d="M 18.3125 70.21875 
L 18.3125 54.6875 
L 36.8125 54.6875 
L 36.8125 47.703125 
L 18.3125 47.703125 
L 18.3125 18.015625 
Q 18.3125 11.328125 20.140625 9.421875 
Q 21.96875 7.515625 27.59375 7.515625 
L 36.8125 7.515625 
L 36.8125 0 
L 27.59375 0 
Q 17.1875 0 13.234375 3.875 
Q 9.28125 7.765625 9.28125 18.015625 
L 9.28125 47.703125 
L 2.6875 47.703125 
L 2.6875 54.6875 
L 9.28125 54.6875 
L 9.28125 70.21875 
z
" id="DejaVuSans-116"/>
       <path d="M 8.5 21.578125 
L 8.5 54.6875 
L 17.484375 54.6875 
L 17.484375 21.921875 
Q 17.484375 14.15625 20.5 10.265625 
Q 23.53125 6.390625 29.59375 6.390625 
Q 36.859375 6.390625 41.078125 11.03125 
Q 45.3125 15.671875 45.3125 23.6875 
L 45.3125 54.6875 
L 54.296875 54.6875 
L 54.296875 0 
L 45.3125 0 
L 45.3125 8.40625 
Q 42.046875 3.421875 37.71875 1 
Q 33.40625 -1.421875 27.6875 -1.421875 
Q 18.265625 -1.421875 13.375 4.4375 
Q 8.5 10.296875 8.5 21.578125 
z
M 31.109375 56 
z
" id="DejaVuSans-117"/>
       <path d="M 11.71875 12.40625 
L 22.015625 12.40625 
L 22.015625 4 
L 14.015625 -11.625 
L 7.71875 -11.625 
L 11.71875 4 
z
" id="DejaVuSans-44"/>
       <path d="M 18.109375 8.203125 
L 18.109375 -20.796875 
L 9.078125 -20.796875 
L 9.078125 54.6875 
L 18.109375 54.6875 
L 18.109375 46.390625 
Q 20.953125 51.265625 25.265625 53.625 
Q 29.59375 56 35.59375 56 
Q 45.5625 56 51.78125 48.09375 
Q 58.015625 40.1875 58.015625 27.296875 
Q 58.015625 14.40625 51.78125 6.484375 
Q 45.5625 -1.421875 35.59375 -1.421875 
Q 29.59375 -1.421875 25.265625 0.953125 
Q 20.953125 3.328125 18.109375 8.203125 
z
M 48.6875 27.296875 
Q 48.6875 37.203125 44.609375 42.84375 
Q 40.53125 48.484375 33.40625 48.484375 
Q 26.265625 48.484375 22.1875 42.84375 
Q 18.109375 37.203125 18.109375 27.296875 
Q 18.109375 17.390625 22.1875 11.75 
Q 26.265625 6.109375 33.40625 6.109375 
Q 40.53125 6.109375 44.609375 11.75 
Q 48.6875 17.390625 48.6875 27.296875 
z
" id="DejaVuSans-112"/>
      </defs>
      <use xlink:href="#DejaVuSans-70"/>
      <use x="50.269531" xlink:href="#DejaVuSans-114"/>
      <use x="91.382812" xlink:href="#DejaVuSans-97"/>
      <use x="152.662109" xlink:href="#DejaVuSans-99"/>
      <use x="207.642578" xlink:href="#DejaVuSans-116"/>
      <use x="246.851562" xlink:href="#DejaVuSans-105"/>
      <use x="274.634766" xlink:href="#DejaVuSans-111"/>
      <use x="335.816406" xlink:href="#DejaVuSans-110"/>
      <use x="399.195312" xlink:href="#DejaVuSans-32"/>
      <use x="430.982422" xlink:href="#DejaVuSans-111"/>
      <use x="492.164062" xlink:href="#DejaVuSans-102"/>
      <use x="527.369141" xlink:href="#DejaVuSans-32"/>
      <use x="559.15625" xlink:href="#DejaVuSans-102"/>
      <use x="594.361328" xlink:href="#DejaVuSans-117"/>
      <use x="657.740234" xlink:href="#DejaVuSans-110"/>
      <use x="721.119141" xlink:href="#DejaVuSans-99"/>
      <use x="776.099609" xlink:href="#DejaVuSans-116"/>
      <use x="815.308594" xlink:href="#DejaVuSans-105"/>
      <use x="843.091797" xlink:href="#DejaVuSans-111"/>
      <use x="904.273438" xlink:href="#DejaVuSans-110"/>
      <use x="967.652344" xlink:href="#DejaVuSans-44"/>
      <use x="999.439453" xlink:href="#DejaVuSans-116"/>
      <use x="1038.648438" xlink:href="#DejaVuSans-97"/>
      <use x="1099.927734" xlink:href="#DejaVuSans-114"/>
      <use x="1139.291016" xlink:href="#DejaVuSans-103"/>
      <use x="1202.767578" xlink:href="#DejaVuSans-101"/>
      <use x="1264.291016" xlink:href="#DejaVuSans-116"/>
      <use x="1303.5" xlink:href="#DejaVuSans-32"/>
      <use x="1335.287109" xlink:href="#DejaVuSans-112"/>
      <use x="1398.763672" xlink:href="#DejaVuSans-97"/>
      <use x="1460.042969" xlink:href="#DejaVuSans-105"/>
      <use x="1487.826172" xlink:href="#DejaVuSans-114"/>
      <use x="1528.939453" xlink:href="#DejaVuSans-115"/>
     </g>
    </g>
   </g>
   <g id="line2d_33">
    <defs>
     <path d="M 0 1.5 
C 0.397805 1.5 0.77937 1.341951 1.06066 1.06066 
C 1.341951 0.77937 1.5 0.397805 1.5 0 
C 1.5 -0.397805 1.341951 -0.77937 1.06066 -1.06066 
C 0.77937 -1.341951 0.397805 -1.5 0 -1.5 
C -0.397805 -1.5 -0.77937 -1.341951 -1.06066 -1.06066 
C -1.341951 -0.77937 -1.5 -0.397805 -1.5 0 
C -1.5 0.397805 -1.341951 0.77937 -1.06066 1.06066 
C -0.77937 1.341951 -0.397805 1.5 0 1.5 
z
" id="m9af92e02dc" style="stroke:#f5deb3;"/>
    </defs>
    <g>
     <use style="fill:#f5deb3;stroke:#f5deb3;" x="148.200145" xlink:href="#m9af92e02dc" y="30.334099"/>
     <use style="fill:#f5deb3;stroke:#f5deb3;" x="148.200145" xlink:href="#m9af92e02dc" y="30.334099"/>
    </g>
   </g>
   <g id="line2d_34">
    <defs>
     <path d="M 0 1.5 
C 0.397805 1.5 0.77937 1.341951 1.06066 1.06066 
C 1.341951 0.77937 1.5 0.397805 1.5 0 
C 1.5 -0.397805 1.341951 -0.77937 1.06066 -1.06066 
C 0.77937 -1.341951 0.397805 -1.5 0 -1.5 
C -0.397805 -1.5 -0.77937 -1.341951 -1.06066 -1.06066 
C -1.341951 -0.77937 -1.5 -0.397805 -1.5 0 
C -1.5 0.397805 -1.341951 0.77937 -1.06066 1.06066 
C -0.77937 1.341951 -0.397805 1.5 0 1.5 
z
" id="mb41ec37b29" style="stroke:#000080;"/>
    </defs>
    <g>
     <use style="fill:#000080;stroke:#000080;" x="285.359449" xlink:href="#mb41ec37b29" y="251.542253"/>
     <use style="fill:#000080;stroke:#000080;" x="285.359449" xlink:href="#mb41ec37b29" y="251.542253"/>
    </g>
   </g>
   <g id="line2d_35">
    <path d="M 145.143889 298.944 
L 145.143889 297.890628 
L 154.906477 297.890628 
L 154.906477 297.363942 
L 172.32772 297.363942 
L 172.32772 296.837256 
L 180.369672 296.837256 
L 180.369672 296.31057 
L 190.320893 296.31057 
L 190.320893 295.783884 
L 193.400554 295.783884 
L 193.400554 295.257197 
L 193.59491 295.257197 
L 193.59491 294.730511 
L 193.873285 294.730511 
L 193.873285 294.203825 
L 197.088735 294.203825 
L 197.088735 293.677139 
L 200.175672 293.677139 
L 200.175672 293.150453 
L 200.833582 293.150453 
L 200.833582 292.623767 
L 201.081378 292.623767 
L 201.081378 292.097081 
L 203.0374 292.097081 
L 203.0374 291.570395 
L 204.636338 291.570395 
L 204.636338 291.043709 
L 204.89962 291.043709 
L 204.89962 290.517023 
L 205.363592 290.517023 
L 205.363592 289.990337 
L 205.66356 289.990337 
L 205.770725 288.936964 
L 206.144883 288.936964 
L 206.211679 287.883592 
L 206.29136 287.883592 
L 206.29136 287.356906 
L 206.488641 287.356906 
L 206.488641 286.83022 
L 207.182767 286.83022 
L 207.182767 286.303534 
L 207.743152 286.303534 
L 207.743152 285.776848 
L 209.067408 285.776848 
L 209.067408 285.250162 
L 209.710979 285.250162 
L 209.710979 284.723476 
L 210.054184 284.723476 
L 210.054184 284.19679 
L 210.852387 284.19679 
L 210.852387 283.670104 
L 211.803122 283.670104 
L 211.803122 283.143418 
L 212.282793 283.143418 
L 212.282793 282.616732 
L 212.748668 282.616732 
L 212.748668 282.090045 
L 213.459581 282.090045 
L 213.459581 281.563359 
L 214.894767 281.563359 
L 214.894767 281.036673 
L 215.034343 281.036673 
L 215.034343 280.509987 
L 215.233356 280.509987 
L 215.233356 279.983301 
L 215.898602 279.983301 
L 215.898602 279.456615 
L 218.436976 279.456615 
L 218.436976 278.403243 
L 220.362051 278.403243 
L 220.362051 277.876557 
L 220.894937 277.876557 
L 220.894937 277.349871 
L 221.986036 277.349871 
L 221.986036 276.823185 
L 223.765677 276.823185 
L 223.765677 276.296499 
L 225.207422 276.296499 
L 225.207422 275.769812 
L 225.318757 275.769812 
L 225.318757 275.243126 
L 226.699779 275.243126 
L 226.699779 274.71644 
L 227.090898 274.71644 
L 227.090898 274.189754 
L 227.394053 274.189754 
L 227.394053 273.663068 
L 227.787008 273.663068 
L 227.787008 272.609696 
L 228.454843 272.609696 
L 228.454843 272.08301 
L 228.879455 272.08301 
L 228.879455 271.556324 
L 230.166463 271.556324 
L 230.166463 271.029638 
L 230.539256 271.029638 
L 230.539256 270.502952 
L 231.697486 270.502952 
L 231.697486 269.976266 
L 234.272729 269.976266 
L 234.272729 269.449579 
L 235.30739 269.449579 
L 235.41339 268.396207 
L 235.7401 268.396207 
L 235.7401 267.869521 
L 235.933178 267.869521 
L 235.933178 267.342835 
L 236.166322 267.342835 
L 236.166322 266.816149 
L 236.309698 266.816149 
L 236.309698 266.289463 
L 237.146635 266.289463 
L 237.146635 265.762777 
L 239.897956 265.762777 
L 239.914754 264.709405 
L 240.017603 264.709405 
L 240.032489 263.656033 
L 240.627195 263.656033 
L 240.68597 262.60266 
L 241.697226 262.60266 
L 241.697226 262.075974 
L 242.222421 262.075974 
L 242.222421 261.549288 
L 247.958396 261.549288 
L 247.958396 261.022602 
L 248.667686 261.022602 
L 248.667686 260.495916 
L 248.941419 260.495916 
L 248.941419 259.96923 
L 249.421095 259.96923 
L 249.421095 259.442544 
L 250.892158 259.442544 
L 250.892158 258.915858 
L 251.64685 258.915858 
L 251.64685 258.389172 
L 251.843469 258.389172 
L 251.843469 257.862486 
L 256.189981 257.862486 
L 256.189981 257.3358 
L 256.508002 257.3358 
L 256.508002 256.809114 
L 258.348589 256.809114 
L 258.348589 256.282427 
L 259.606928 256.282427 
L 259.606928 255.755741 
L 261.160786 255.755741 
L 261.160786 255.229055 
L 265.429132 255.229055 
L 265.429132 254.702369 
L 267.614127 254.702369 
L 267.614127 254.175683 
L 268.611862 254.175683 
L 268.611862 253.648997 
L 270.45086 253.648997 
L 270.45086 253.122311 
L 272.114299 253.122311 
L 272.114299 252.595625 
L 276.86977 252.595625 
L 276.86977 252.068939 
L 285.359449 252.068939 
L 285.359449 251.542253 
L 338.688 251.542253 
L 338.688 251.542253 
" style="fill:none;stroke:#000080;stroke-linecap:square;stroke-width:1.5;"/>
   </g>
   <g id="line2d_36">
    <defs>
     <path d="M 0 6 
C 1.591219 6 3.117479 5.367802 4.242641 4.242641 
C 5.367802 3.117479 6 1.591219 6 0 
C 6 -1.591219 5.367802 -3.117479 4.242641 -4.242641 
C 3.117479 -5.367802 1.591219 -6 0 -6 
C -1.591219 -6 -3.117479 -5.367802 -4.242641 -4.242641 
C -5.367802 -3.117479 -6 -1.591219 -6 0 
C -6 1.591219 -5.367802 3.117479 -4.242641 4.242641 
C -3.117479 5.367802 -1.591219 6 0 6 
z
" id="m62b15463c9" style="stroke:#000080;stroke-width:1.5;"/>
    </defs>
    <g>
     <use style="fill-opacity:0;stroke:#000080;stroke-width:1.5;" x="213.459581" xlink:href="#m62b15463c9" y="281.563359"/>
     <use style="fill-opacity:0;stroke:#000080;stroke-width:1.5;" x="272.114299" xlink:href="#m62b15463c9" y="253.122311"/>
     <use style="fill-opacity:0;stroke:#000080;stroke-width:1.5;" x="285.359449" xlink:href="#m62b15463c9" y="251.542253"/>
     <use style="fill-opacity:0;stroke:#000080;stroke-width:1.5;" x="285.359449" xlink:href="#m62b15463c9" y="251.542253"/>
     <use style="fill-opacity:0;stroke:#000080;stroke-width:1.5;" x="338.688" xlink:href="#m62b15463c9" y="251.542253"/>
    </g>
   </g>
   <g id="line2d_37">
    <path style="fill:none;stroke:#000080;stroke-linecap:square;stroke-width:1.5;"/>
    <g/>
   </g>
   <g id="line2d_38">
    <path clip-path="url(#p33a1cd8538)" d="M 218.221714 279.456615 
" style="fill:none;stroke:#000080;stroke-linecap:square;stroke-width:1.5;"/>
    <defs>
     <path d="M -12 12 
L 12 -12 
M -12 -12 
L 12 12 
" id="mf5ba9a1a31" style="stroke:#000080;"/>
    </defs>
    <g clip-path="url(#p33a1cd8538)">
     <use style="fill:#000080;stroke:#000080;" x="218.221714" xlink:href="#mf5ba9a1a31" y="279.456615"/>
    </g>
   </g>
   <g id="line2d_39">
    <defs>
     <path d="M 0 1.5 
C 0.397805 1.5 0.77937 1.341951 1.06066 1.06066 
C 1.341951 0.77937 1.5 0.397805 1.5 0 
C 1.5 -0.397805 1.341951 -0.77937 1.06066 -1.06066 
C 0.77937 -1.341951 0.397805 -1.5 0 -1.5 
C -0.397805 -1.5 -0.77937 -1.341951 -1.06066 -1.06066 
C -1.341951 -0.77937 -1.5 -0.397805 -1.5 0 
C -1.5 0.397805 -1.341951 0.77937 -1.06066 1.06066 
C -0.77937 1.341951 -0.397805 1.5 0 1.5 
z
" id="med01f271df" style="stroke:#ff00ff;"/>
    </defs>
    <g>
     <use style="fill:#ff00ff;stroke:#ff00ff;" x="294.567692" xlink:href="#med01f271df" y="225.207949"/>
     <use style="fill:#ff00ff;stroke:#ff00ff;" x="294.567692" xlink:href="#med01f271df" y="225.207949"/>
    </g>
   </g>
   <g id="line2d_40">
    <path d="M 167.722684 298.944 
L 167.722684 297.363942 
L 172.298614 297.363942 
L 172.298614 296.837256 
L 176.325491 296.837256 
L 176.325491 296.31057 
L 176.864345 296.31057 
L 176.864345 295.783884 
L 185.262419 295.783884 
L 185.262419 295.257197 
L 186.642316 295.257197 
L 186.642316 294.730511 
L 187.919006 294.730511 
L 187.919006 294.203825 
L 188.728569 294.203825 
L 188.728569 293.677139 
L 190.514999 293.677139 
L 190.514999 292.623767 
L 192.413288 292.623767 
L 192.413288 292.097081 
L 195.637981 292.097081 
L 195.637981 291.570395 
L 196.581076 291.570395 
L 196.581076 291.043709 
L 196.89313 291.043709 
L 196.940464 289.990337 
L 197.668388 289.990337 
L 197.668388 289.463651 
L 199.201665 289.463651 
L 199.201665 288.936964 
L 200.332036 288.936964 
L 200.429055 287.883592 
L 201.194711 287.883592 
L 201.194711 287.356906 
L 202.822811 287.356906 
L 202.822811 286.83022 
L 203.260898 286.83022 
L 203.344591 285.776848 
L 206.310015 285.776848 
L 206.310015 285.250162 
L 209.965934 285.250162 
L 209.965934 284.723476 
L 211.078696 284.723476 
L 211.078696 284.19679 
L 211.681748 284.19679 
L 211.681748 283.670104 
L 212.095478 283.670104 
L 212.095478 283.143418 
L 212.212539 283.143418 
L 212.212539 282.616732 
L 213.642852 282.616732 
L 213.642852 282.090045 
L 213.896774 282.090045 
L 213.896774 281.563359 
L 214.530952 281.563359 
L 214.530952 281.036673 
L 215.273466 281.036673 
L 215.273466 280.509987 
L 216.743698 280.509987 
L 216.743698 279.983301 
L 218.06405 279.983301 
L 218.06405 279.456615 
L 219.431596 279.456615 
L 219.431596 278.929929 
L 220.664824 278.929929 
L 220.664824 278.403243 
L 220.862892 278.403243 
L 220.862892 277.876557 
L 221.461912 277.876557 
L 221.461912 277.349871 
L 222.399332 277.349871 
L 222.399332 276.823185 
L 222.73184 276.823185 
L 222.73184 276.296499 
L 223.164846 276.296499 
L 223.164846 275.769812 
L 224.197338 275.769812 
L 224.257401 274.189754 
L 224.449296 274.189754 
L 224.449296 273.663068 
L 224.937329 273.663068 
L 224.937329 273.136382 
L 226.678531 273.136382 
L 226.678531 272.08301 
L 227.101382 272.08301 
L 227.101382 271.556324 
L 227.344512 271.556324 
L 227.344512 271.029638 
L 228.280963 271.029638 
L 228.280963 270.502952 
L 228.561777 270.502952 
L 228.561777 269.976266 
L 230.785014 269.976266 
L 230.785014 269.449579 
L 231.081497 269.449579 
L 231.081497 268.922893 
L 231.846945 268.922893 
L 231.846945 268.396207 
L 232.083257 268.396207 
L 232.083257 267.869521 
L 232.523308 267.869521 
L 232.523308 267.342835 
L 232.664359 267.342835 
L 232.696175 265.762777 
L 232.805488 265.762777 
L 232.805488 265.236091 
L 233.58737 265.236091 
L 233.677888 263.656033 
L 234.158702 263.656033 
L 234.158702 263.129347 
L 235.037941 263.129347 
L 235.037941 262.60266 
L 236.452272 262.60266 
L 236.452272 262.075974 
L 236.901835 262.075974 
L 236.901835 261.549288 
L 237.899029 261.549288 
L 237.899029 261.022602 
L 238.656321 261.022602 
L 238.656321 260.495916 
L 239.017162 260.495916 
L 239.083613 259.442544 
L 239.359688 259.442544 
L 239.359688 258.915858 
L 239.607943 258.915858 
L 239.696839 257.3358 
L 240.094293 257.3358 
L 240.094293 256.809114 
L 242.636966 256.809114 
L 242.636966 256.282427 
L 243.307005 256.282427 
L 243.307005 255.755741 
L 243.61473 255.755741 
L 243.631718 254.702369 
L 244.428164 254.702369 
L 244.428164 254.175683 
L 246.003403 254.175683 
L 246.003403 253.648997 
L 247.503266 253.648997 
L 247.503266 253.122311 
L 247.659309 253.122311 
L 247.659309 252.595625 
L 248.463455 252.595625 
L 248.463455 252.068939 
L 250.306118 252.068939 
L 250.306118 251.542253 
L 250.848278 251.542253 
L 250.848278 251.015567 
L 251.953359 251.015567 
L 251.953359 250.488881 
L 252.862803 250.488881 
L 252.862803 248.908822 
L 253.14653 248.908822 
L 253.14653 248.382136 
L 253.346031 248.382136 
L 253.346031 247.85545 
L 253.643584 247.85545 
L 253.643584 247.328764 
L 254.453868 247.328764 
L 254.453868 246.275392 
L 254.865057 246.275392 
L 254.865057 245.748706 
L 255.115793 245.748706 
L 255.115793 245.22202 
L 255.876039 245.22202 
L 255.876039 244.695334 
L 256.381559 244.695334 
L 256.381559 244.168648 
L 256.949735 244.168648 
L 256.949735 243.641962 
L 257.224644 243.641962 
L 257.224644 243.115275 
L 258.234852 243.115275 
L 258.234852 242.588589 
L 258.351698 242.588589 
L 258.351698 242.061903 
L 260.375455 242.061903 
L 260.375455 241.535217 
L 260.498187 241.535217 
L 260.498187 241.008531 
L 260.805268 241.008531 
L 260.805268 240.481845 
L 262.140734 240.481845 
L 262.140734 239.955159 
L 262.439204 239.955159 
L 262.439204 239.428473 
L 262.843236 239.428473 
L 262.843236 238.375101 
L 263.429608 238.375101 
L 263.429608 237.848415 
L 263.768769 237.848415 
L 263.821228 236.795043 
L 264.226806 236.795043 
L 264.226806 236.268356 
L 269.019241 236.268356 
L 269.019241 235.74167 
L 270.133156 235.74167 
L 270.133156 234.688298 
L 270.817894 234.688298 
L 270.817894 234.161612 
L 273.585542 234.161612 
L 273.585542 233.10824 
L 273.93915 233.10824 
L 273.999945 231.528182 
L 274.120565 231.528182 
L 274.120565 231.001496 
L 274.697779 231.001496 
L 274.785773 229.948123 
L 275.480304 229.948123 
L 275.480304 229.421437 
L 277.89453 229.421437 
L 277.89453 228.894751 
L 279.524393 228.894751 
L 279.524393 228.368065 
L 282.405976 228.368065 
L 282.405976 227.841379 
L 282.767141 227.841379 
L 282.767141 227.314693 
L 284.476438 227.314693 
L 284.476438 226.788007 
L 284.764836 226.788007 
L 284.764836 226.261321 
L 287.945514 226.261321 
L 287.945514 225.734635 
L 294.567692 225.734635 
L 294.567692 225.207949 
L 338.688 225.207949 
L 338.688 225.207949 
" style="fill:none;stroke:#ff00ff;stroke-linecap:square;stroke-width:1.5;"/>
   </g>
   <g id="line2d_41">
    <defs>
     <path d="M -0 8.485281 
L 5.091169 0 
L 0 -8.485281 
L -5.091169 -0 
z
" id="m469fa7f821" style="stroke:#ff00ff;stroke-linejoin:miter;stroke-width:1.5;"/>
    </defs>
    <g>
     <use style="fill-opacity:0;stroke:#ff00ff;stroke-linejoin:miter;stroke-width:1.5;" x="264.226806" xlink:href="#m469fa7f821" y="236.268356"/>
     <use style="fill-opacity:0;stroke:#ff00ff;stroke-linejoin:miter;stroke-width:1.5;" x="294.567692" xlink:href="#m469fa7f821" y="225.207949"/>
     <use style="fill-opacity:0;stroke:#ff00ff;stroke-linejoin:miter;stroke-width:1.5;" x="294.567692" xlink:href="#m469fa7f821" y="225.207949"/>
     <use style="fill-opacity:0;stroke:#ff00ff;stroke-linejoin:miter;stroke-width:1.5;" x="338.688" xlink:href="#m469fa7f821" y="225.207949"/>
    </g>
   </g>
   <g id="line2d_42">
    <path style="fill:none;stroke:#ff00ff;stroke-linecap:square;stroke-width:1.5;"/>
    <g/>
   </g>
   <g id="line2d_43">
    <path clip-path="url(#p33a1cd8538)" d="M 218.221714 279.456615 
" style="fill:none;stroke:#ff00ff;stroke-linecap:square;stroke-width:1.5;"/>
    <defs>
     <path d="M -12 12 
L 12 -12 
M -12 -12 
L 12 12 
" id="m0a67a98f6d" style="stroke:#ff00ff;"/>
    </defs>
    <g clip-path="url(#p33a1cd8538)">
     <use style="fill:#ff00ff;stroke:#ff00ff;" x="218.221714" xlink:href="#m0a67a98f6d" y="279.456615"/>
    </g>
   </g>
   <g id="line2d_44">
    <defs>
     <path d="M 0 1.5 
C 0.397805 1.5 0.77937 1.341951 1.06066 1.06066 
C 1.341951 0.77937 1.5 0.397805 1.5 0 
C 1.5 -0.397805 1.341951 -0.77937 1.06066 -1.06066 
C 0.77937 -1.341951 0.397805 -1.5 0 -1.5 
C -0.397805 -1.5 -0.77937 -1.341951 -1.06066 -1.06066 
C -1.341951 -0.77937 -1.5 -0.397805 -1.5 0 
C -1.5 0.397805 -1.341951 0.77937 -1.06066 1.06066 
C -0.77937 1.341951 -0.397805 1.5 0 1.5 
z
" id="maf5c470ab9" style="stroke:#ff7500;"/>
    </defs>
    <g>
     <use style="fill:#ff7500;stroke:#ff7500;" x="285.835432" xlink:href="#maf5c470ab9" y="262.075974"/>
     <use style="fill:#ff7500;stroke:#ff7500;" x="285.835432" xlink:href="#maf5c470ab9" y="262.075974"/>
    </g>
   </g>
   <g id="line2d_45">
    <path d="M 161.689969 298.944 
L 161.689969 298.417314 
L 167.027338 298.417314 
L 167.027338 297.890628 
L 172.201242 297.890628 
L 172.201242 297.363942 
L 180.351324 297.363942 
L 180.351324 296.837256 
L 185.090739 296.837256 
L 185.090739 296.31057 
L 186.264991 296.31057 
L 186.264991 295.783884 
L 186.738037 295.783884 
L 186.738037 295.257197 
L 186.881693 295.257197 
L 186.881693 294.730511 
L 187.223364 294.730511 
L 187.223364 294.203825 
L 193.570554 294.203825 
L 193.570554 293.677139 
L 194.43616 293.677139 
L 194.43616 293.150453 
L 195.26733 293.150453 
L 195.26733 292.623767 
L 196.248587 292.623767 
L 196.248587 292.097081 
L 202.273625 292.097081 
L 202.273625 291.570395 
L 203.8814 291.570395 
L 203.8814 291.043709 
L 205.626973 291.043709 
L 205.626973 290.517023 
L 210.327257 290.517023 
L 210.327257 289.990337 
L 212.909277 289.990337 
L 212.909277 289.463651 
L 214.00327 289.463651 
L 214.069778 288.410278 
L 215.087441 288.410278 
L 215.087441 287.883592 
L 216.522493 287.883592 
L 216.529028 286.83022 
L 217.592087 286.83022 
L 217.691966 285.776848 
L 218.17946 285.776848 
L 218.17946 285.250162 
L 219.69064 285.250162 
L 219.69064 284.723476 
L 220.896732 284.723476 
L 220.896732 284.19679 
L 222.019171 284.19679 
L 222.019171 283.670104 
L 222.191964 283.670104 
L 222.191964 283.143418 
L 223.38361 283.143418 
L 223.38361 282.616732 
L 224.367349 282.616732 
L 224.367349 282.090045 
L 225.125447 282.090045 
L 225.125447 281.563359 
L 226.805421 281.563359 
L 226.805421 281.036673 
L 228.357005 281.036673 
L 228.357005 279.983301 
L 229.48078 279.983301 
L 229.48078 278.929929 
L 229.99773 278.929929 
L 229.99773 278.403243 
L 230.288588 278.403243 
L 230.288588 277.876557 
L 232.407569 277.876557 
L 232.407569 276.823185 
L 233.651847 276.823185 
L 233.651847 276.296499 
L 236.084737 276.296499 
L 236.084737 275.769812 
L 236.832508 275.769812 
L 236.832508 275.243126 
L 238.282227 275.243126 
L 238.336792 273.663068 
L 238.681589 273.663068 
L 238.681589 273.136382 
L 243.529218 273.136382 
L 243.592516 271.556324 
L 246.280712 271.556324 
L 246.280712 271.029638 
L 249.197762 271.029638 
L 249.197762 270.502952 
L 252.849735 270.502952 
L 252.849735 269.976266 
L 255.383154 269.976266 
L 255.383154 269.449579 
L 259.098779 269.449579 
L 259.098779 268.922893 
L 260.696537 268.922893 
L 260.696537 268.396207 
L 261.964138 268.396207 
L 261.964138 267.342835 
L 263.32902 267.342835 
L 263.32902 266.816149 
L 263.510322 266.816149 
L 263.510322 266.289463 
L 264.241962 266.289463 
L 264.241962 265.762777 
L 264.76346 265.762777 
L 264.76346 265.236091 
L 270.710735 265.236091 
L 270.710735 264.709405 
L 271.663359 264.709405 
L 271.663359 264.182719 
L 278.890392 264.182719 
L 278.890392 263.656033 
L 279.42014 263.656033 
L 279.42014 263.129347 
L 285.470456 263.129347 
L 285.470456 262.60266 
L 285.835432 262.60266 
L 285.835432 262.075974 
L 338.688 262.075974 
L 338.688 262.075974 
" style="fill:none;stroke:#ff7500;stroke-linecap:square;stroke-width:1.5;"/>
   </g>
   <g id="line2d_46">
    <defs>
     <path d="M 0 -6 
L -1.347084 -1.854102 
L -5.706339 -1.854102 
L -2.179628 0.708204 
L -3.526712 4.854102 
L -0 2.291796 
L 3.526712 4.854102 
L 2.179628 0.708204 
L 5.706339 -1.854102 
L 1.347084 -1.854102 
z
" id="me85dc27672" style="stroke:#ff7500;stroke-linejoin:bevel;stroke-width:1.5;"/>
    </defs>
    <g>
     <use style="fill-opacity:0;stroke:#ff7500;stroke-linejoin:bevel;stroke-width:1.5;" x="222.019171" xlink:href="#me85dc27672" y="283.670104"/>
     <use style="fill-opacity:0;stroke:#ff7500;stroke-linejoin:bevel;stroke-width:1.5;" x="285.835432" xlink:href="#me85dc27672" y="262.60266"/>
     <use style="fill-opacity:0;stroke:#ff7500;stroke-linejoin:bevel;stroke-width:1.5;" x="285.835432" xlink:href="#me85dc27672" y="262.075974"/>
     <use style="fill-opacity:0;stroke:#ff7500;stroke-linejoin:bevel;stroke-width:1.5;" x="338.688" xlink:href="#me85dc27672" y="262.075974"/>
    </g>
   </g>
   <g id="line2d_47">
    <path style="fill:none;stroke:#ff7500;stroke-linecap:square;stroke-width:1.5;"/>
    <g/>
   </g>
   <g id="line2d_48">
    <path clip-path="url(#p33a1cd8538)" d="M 218.221714 285.250162 
" style="fill:none;stroke:#ff7500;stroke-linecap:square;stroke-width:1.5;"/>
    <defs>
     <path d="M -12 12 
L 12 -12 
M -12 -12 
L 12 12 
" id="m070e722ecb" style="stroke:#ff7500;"/>
    </defs>
    <g clip-path="url(#p33a1cd8538)">
     <use style="fill:#ff7500;stroke:#ff7500;" x="218.221714" xlink:href="#m070e722ecb" y="285.250162"/>
    </g>
   </g>
   <g id="line2d_49">
    <defs>
     <path d="M 0 1.5 
C 0.397805 1.5 0.77937 1.341951 1.06066 1.06066 
C 1.341951 0.77937 1.5 0.397805 1.5 0 
C 1.5 -0.397805 1.341951 -0.77937 1.06066 -1.06066 
C 0.77937 -1.341951 0.397805 -1.5 0 -1.5 
C -0.397805 -1.5 -0.77937 -1.341951 -1.06066 -1.06066 
C -1.341951 -0.77937 -1.5 -0.397805 -1.5 0 
C -1.5 0.397805 -1.341951 0.77937 -1.06066 1.06066 
C -0.77937 1.341951 -0.397805 1.5 0 1.5 
z
" id="m2a1ff45ce0" style="stroke:#6495ed;"/>
    </defs>
    <g>
     <use style="fill:#6495ed;stroke:#6495ed;" x="281.654315" xlink:href="#m2a1ff45ce0" y="251.542253"/>
     <use style="fill:#6495ed;stroke:#6495ed;" x="281.654315" xlink:href="#m2a1ff45ce0" y="251.542253"/>
    </g>
   </g>
   <g id="line2d_50">
    <path d="M 167.3269 298.944 
L 167.3269 298.417314 
L 168.734207 298.417314 
L 168.734207 297.363942 
L 171.366236 297.363942 
L 171.366236 296.31057 
L 174.012759 296.31057 
L 174.012759 295.783884 
L 176.901672 295.783884 
L 176.901672 295.257197 
L 177.120292 295.257197 
L 177.120292 294.730511 
L 177.770817 294.730511 
L 177.770817 294.203825 
L 178.083716 294.203825 
L 178.083716 293.677139 
L 179.440696 293.677139 
L 179.440696 293.150453 
L 181.205103 293.150453 
L 181.205103 292.623767 
L 182.303092 292.623767 
L 182.360445 291.570395 
L 182.8418 291.570395 
L 182.8418 291.043709 
L 182.971284 291.043709 
L 182.971284 290.517023 
L 183.191044 290.517023 
L 183.191044 289.463651 
L 186.330258 289.463651 
L 186.330258 288.936964 
L 187.861421 288.936964 
L 187.861421 288.410278 
L 193.738913 288.410278 
L 193.738913 287.883592 
L 198.465954 287.883592 
L 198.465954 287.356906 
L 199.016955 287.356906 
L 199.016955 286.83022 
L 200.715015 286.83022 
L 200.715015 286.303534 
L 202.549952 286.303534 
L 202.549952 285.776848 
L 202.936302 285.776848 
L 202.936302 285.250162 
L 203.513214 285.250162 
L 203.513214 284.723476 
L 203.834507 284.723476 
L 203.834507 284.19679 
L 206.892669 284.19679 
L 206.892669 283.670104 
L 207.294075 283.670104 
L 207.294075 283.143418 
L 210.171897 283.143418 
L 210.171897 282.616732 
L 211.207454 282.616732 
L 211.207454 282.090045 
L 212.258752 282.090045 
L 212.258752 281.563359 
L 212.433153 281.563359 
L 212.433153 281.036673 
L 212.941411 281.036673 
L 212.941411 280.509987 
L 213.49209 280.509987 
L 213.49209 279.983301 
L 213.76307 279.983301 
L 213.76307 279.456615 
L 214.951657 279.456615 
L 214.951657 278.929929 
L 215.095788 278.929929 
L 215.095788 278.403243 
L 215.569963 278.403243 
L 215.569963 277.876557 
L 215.754153 277.876557 
L 215.754153 276.823185 
L 217.21227 276.823185 
L 217.21227 276.296499 
L 218.058066 276.296499 
L 218.058066 275.243126 
L 219.214175 275.243126 
L 219.214175 274.71644 
L 220.193725 274.71644 
L 220.193725 274.189754 
L 223.091398 274.189754 
L 223.091398 273.663068 
L 223.666667 273.663068 
L 223.666667 273.136382 
L 225.570012 273.136382 
L 225.570012 272.609696 
L 230.211593 272.609696 
L 230.228071 270.502952 
L 233.243827 270.502952 
L 233.243827 269.976266 
L 233.63485 269.976266 
L 233.63485 269.449579 
L 233.825197 269.449579 
L 233.825197 268.396207 
L 236.540823 268.396207 
L 236.540823 267.342835 
L 237.050691 267.342835 
L 237.050691 266.816149 
L 237.315378 266.816149 
L 237.326344 265.236091 
L 239.453263 265.236091 
L 239.453263 264.709405 
L 239.758524 264.709405 
L 239.758524 264.182719 
L 241.219836 264.182719 
L 241.219836 263.656033 
L 241.38529 263.656033 
L 241.38529 263.129347 
L 241.635848 263.129347 
L 241.635848 262.60266 
L 241.812756 262.60266 
L 241.812756 262.075974 
L 242.150755 262.075974 
L 242.150755 261.549288 
L 248.692379 261.549288 
L 248.692379 260.495916 
L 248.964532 260.495916 
L 248.964532 259.96923 
L 250.380701 259.96923 
L 250.380701 259.442544 
L 252.133704 259.442544 
L 252.133704 258.389172 
L 254.108918 258.389172 
L 254.108918 257.862486 
L 254.465307 257.862486 
L 254.465307 256.809114 
L 256.026035 256.809114 
L 256.026035 256.282427 
L 256.521624 256.282427 
L 256.521624 255.755741 
L 260.021487 255.755741 
L 260.021487 255.229055 
L 262.940053 255.229055 
L 262.940053 254.702369 
L 265.141764 254.702369 
L 265.141764 254.175683 
L 266.512261 254.175683 
L 266.563485 253.122311 
L 273.6379 253.122311 
L 273.6379 252.595625 
L 274.350078 252.595625 
L 274.350078 252.068939 
L 281.654315 252.068939 
L 281.654315 251.542253 
L 338.688 251.542253 
L 338.688 251.542253 
" style="fill:none;stroke:#6495ed;stroke-linecap:square;stroke-width:1.5;"/>
   </g>
   <g id="line2d_51">
    <defs>
     <path d="M -0 6 
L 6 -6 
L -6 -6 
z
" id="m0804c579af" style="stroke:#6495ed;stroke-linejoin:miter;stroke-width:1.5;"/>
    </defs>
    <g>
     <use style="fill-opacity:0;stroke:#6495ed;stroke-linejoin:miter;stroke-width:1.5;" x="266.563485" xlink:href="#m0804c579af" y="253.648997"/>
     <use style="fill-opacity:0;stroke:#6495ed;stroke-linejoin:miter;stroke-width:1.5;" x="281.654315" xlink:href="#m0804c579af" y="251.542253"/>
     <use style="fill-opacity:0;stroke:#6495ed;stroke-linejoin:miter;stroke-width:1.5;" x="281.654315" xlink:href="#m0804c579af" y="251.542253"/>
     <use style="fill-opacity:0;stroke:#6495ed;stroke-linejoin:miter;stroke-width:1.5;" x="338.688" xlink:href="#m0804c579af" y="251.542253"/>
    </g>
   </g>
   <g id="line2d_52">
    <path style="fill:none;stroke:#6495ed;stroke-linecap:square;stroke-width:1.5;"/>
    <g/>
   </g>
   <g id="line2d_53">
    <path clip-path="url(#p33a1cd8538)" d="M 218.221714 275.243126 
" style="fill:none;stroke:#6495ed;stroke-linecap:square;stroke-width:1.5;"/>
    <defs>
     <path d="M -12 12 
L 12 -12 
M -12 -12 
L 12 12 
" id="m2d99c0e94b" style="stroke:#6495ed;"/>
    </defs>
    <g clip-path="url(#p33a1cd8538)">
     <use style="fill:#6495ed;stroke:#6495ed;" x="218.221714" xlink:href="#m2d99c0e94b" y="275.243126"/>
    </g>
   </g>
   <g id="line2d_54">
    <defs>
     <path d="M 0 1.5 
C 0.397805 1.5 0.77937 1.341951 1.06066 1.06066 
C 1.341951 0.77937 1.5 0.397805 1.5 0 
C 1.5 -0.397805 1.341951 -0.77937 1.06066 -1.06066 
C 0.77937 -1.341951 0.397805 -1.5 0 -1.5 
C -0.397805 -1.5 -0.77937 -1.341951 -1.06066 -1.06066 
C -1.341951 -0.77937 -1.5 -0.397805 -1.5 0 
C -1.5 0.397805 -1.341951 0.77937 -1.06066 1.06066 
C -0.77937 1.341951 -0.397805 1.5 0 1.5 
z
" id="m4bb5e80b08" style="stroke:#ff0000;"/>
    </defs>
    <g>
     <use style="fill:#ff0000;stroke:#ff0000;" x="290.191402" xlink:href="#m4bb5e80b08" y="256.809114"/>
     <use style="fill:#ff0000;stroke:#ff0000;" x="290.191402" xlink:href="#m4bb5e80b08" y="256.809114"/>
    </g>
   </g>
   <g id="line2d_55">
    <path d="M 146.474085 298.944 
L 146.474085 298.417314 
L 179.485767 298.417314 
L 179.51147 296.837256 
L 187.051282 296.837256 
L 187.161362 295.783884 
L 190.87678 295.783884 
L 190.87678 295.257197 
L 192.394893 295.257197 
L 192.394893 294.730511 
L 193.140936 294.730511 
L 193.140936 294.203825 
L 194.332167 294.203825 
L 194.332167 293.150453 
L 195.136766 293.150453 
L 195.136766 292.623767 
L 195.884544 292.623767 
L 195.884544 292.097081 
L 196.95464 292.097081 
L 196.95464 291.570395 
L 197.804999 291.570395 
L 197.804999 291.043709 
L 198.014043 291.043709 
L 198.014043 290.517023 
L 198.838749 290.517023 
L 198.838749 289.990337 
L 200.107805 289.990337 
L 200.107805 289.463651 
L 201.552142 289.463651 
L 201.552142 288.936964 
L 204.491315 288.936964 
L 204.491315 288.410278 
L 204.905609 288.410278 
L 204.905609 287.883592 
L 206.224869 287.883592 
L 206.224869 287.356906 
L 206.545281 287.356906 
L 206.545281 286.83022 
L 207.068761 286.83022 
L 207.068761 286.303534 
L 207.678152 286.303534 
L 207.678152 285.776848 
L 209.500042 285.776848 
L 209.500042 285.250162 
L 211.708118 285.250162 
L 211.764778 283.670104 
L 211.893601 283.670104 
L 211.893601 283.143418 
L 215.154106 283.143418 
L 215.154106 282.616732 
L 218.00129 282.616732 
L 218.00129 282.090045 
L 220.017781 282.090045 
L 220.020298 281.036673 
L 220.936777 281.036673 
L 220.936777 280.509987 
L 221.523787 280.509987 
L 221.523787 279.983301 
L 221.795274 279.983301 
L 221.795274 279.456615 
L 222.336912 279.456615 
L 222.336912 278.929929 
L 222.735072 278.929929 
L 222.735072 278.403243 
L 223.895142 278.403243 
L 223.895142 277.876557 
L 225.274821 277.876557 
L 225.274821 277.349871 
L 225.822886 277.349871 
L 225.822886 276.296499 
L 228.603367 276.296499 
L 228.674955 274.189754 
L 230.167518 274.189754 
L 230.199839 273.136382 
L 231.230848 273.136382 
L 231.230848 272.609696 
L 233.376119 272.609696 
L 233.376119 272.08301 
L 234.19042 272.08301 
L 234.219433 271.029638 
L 236.159341 271.029638 
L 236.159341 270.502952 
L 236.308091 270.502952 
L 236.308091 269.449579 
L 237.286062 269.449579 
L 237.286062 268.922893 
L 240.676926 268.922893 
L 240.676926 268.396207 
L 240.982959 268.396207 
L 240.982959 267.869521 
L 241.599465 267.869521 
L 241.599465 267.342835 
L 242.326744 267.342835 
L 242.326744 266.816149 
L 247.596192 266.816149 
L 247.596192 265.762777 
L 248.097488 265.762777 
L 248.097488 265.236091 
L 248.285631 265.236091 
L 248.285631 264.709405 
L 248.538421 264.709405 
L 248.538421 264.182719 
L 250.399889 264.182719 
L 250.399889 263.656033 
L 250.743607 263.656033 
L 250.743607 263.129347 
L 250.98838 263.129347 
L 250.98838 262.60266 
L 251.643976 262.60266 
L 251.643976 262.075974 
L 255.637665 262.075974 
L 255.637665 261.549288 
L 256.142033 261.549288 
L 256.142033 261.022602 
L 264.224735 261.022602 
L 264.224735 260.495916 
L 265.429272 260.495916 
L 265.429272 259.96923 
L 267.61425 259.96923 
L 267.61425 259.442544 
L 268.182518 259.442544 
L 268.182518 258.915858 
L 271.302505 258.915858 
L 271.302505 258.389172 
L 276.935164 258.389172 
L 276.935164 257.862486 
L 287.455406 257.862486 
L 287.455406 257.3358 
L 290.191402 257.3358 
L 290.191402 256.809114 
L 338.688 256.809114 
L 338.688 256.809114 
" style="fill:none;stroke:#ff0000;stroke-linecap:square;stroke-width:1.5;"/>
   </g>
   <g id="line2d_56">
    <defs>
     <path d="M 0 -6 
L -5.196152 -3 
L -5.196152 3 
L -0 6 
L 5.196152 3 
L 5.196152 -3 
z
" id="m2406c3484a" style="stroke:#ff0000;stroke-linejoin:miter;stroke-width:1.5;"/>
    </defs>
    <g>
     <use style="fill-opacity:0;stroke:#ff0000;stroke-linejoin:miter;stroke-width:1.5;" x="190.87678" xlink:href="#m2406c3484a" y="295.783884"/>
     <use style="fill-opacity:0;stroke:#ff0000;stroke-linejoin:miter;stroke-width:1.5;" x="234.219433" xlink:href="#m2406c3484a" y="271.029638"/>
     <use style="fill-opacity:0;stroke:#ff0000;stroke-linejoin:miter;stroke-width:1.5;" x="276.935164" xlink:href="#m2406c3484a" y="258.389172"/>
     <use style="fill-opacity:0;stroke:#ff0000;stroke-linejoin:miter;stroke-width:1.5;" x="290.191402" xlink:href="#m2406c3484a" y="256.809114"/>
     <use style="fill-opacity:0;stroke:#ff0000;stroke-linejoin:miter;stroke-width:1.5;" x="338.688" xlink:href="#m2406c3484a" y="256.809114"/>
    </g>
   </g>
   <g id="line2d_57">
    <path style="fill:none;stroke:#ff0000;stroke-linecap:square;stroke-width:1.5;"/>
    <g/>
   </g>
   <g id="line2d_58">
    <path clip-path="url(#p33a1cd8538)" d="M 218.221714 282.090045 
" style="fill:none;stroke:#ff0000;stroke-linecap:square;stroke-width:1.5;"/>
    <defs>
     <path d="M -12 12 
L 12 -12 
M -12 -12 
L 12 12 
" id="md47552c65b" style="stroke:#ff0000;"/>
    </defs>
    <g clip-path="url(#p33a1cd8538)">
     <use style="fill:#ff0000;stroke:#ff0000;" x="218.221714" xlink:href="#md47552c65b" y="282.090045"/>
    </g>
   </g>
   <g id="line2d_59">
    <defs>
     <path d="M 0 1.5 
C 0.397805 1.5 0.77937 1.341951 1.06066 1.06066 
C 1.341951 0.77937 1.5 0.397805 1.5 0 
C 1.5 -0.397805 1.341951 -0.77937 1.06066 -1.06066 
C 0.77937 -1.341951 0.397805 -1.5 0 -1.5 
C -0.397805 -1.5 -0.77937 -1.341951 -1.06066 -1.06066 
C -1.341951 -0.77937 -1.5 -0.397805 -1.5 0 
C -1.5 0.397805 -1.341951 0.77937 -1.06066 1.06066 
C -0.77937 1.341951 -0.397805 1.5 0 1.5 
z
" id="md7c35eb2e4" style="stroke:#9acd32;"/>
    </defs>
    <g>
     <use style="fill:#9acd32;stroke:#9acd32;" x="285.364088" xlink:href="#md7c35eb2e4" y="241.008531"/>
     <use style="fill:#9acd32;stroke:#9acd32;" x="285.364088" xlink:href="#md7c35eb2e4" y="241.008531"/>
    </g>
   </g>
   <g id="line2d_60">
    <path d="M 185.436997 298.944 
L 185.436997 297.890628 
L 188.417333 297.890628 
L 188.417333 297.363942 
L 192.584038 297.363942 
L 192.584038 296.837256 
L 193.877511 296.837256 
L 193.877511 295.783884 
L 195.250411 295.783884 
L 195.250411 295.257197 
L 196.106608 295.257197 
L 196.106608 294.730511 
L 197.468897 294.730511 
L 197.468897 293.677139 
L 197.791499 293.677139 
L 197.791499 293.150453 
L 198.81966 293.150453 
L 198.81966 292.097081 
L 199.871667 292.097081 
L 199.871667 291.570395 
L 200.967304 291.570395 
L 200.967304 291.043709 
L 201.088832 291.043709 
L 201.088832 290.517023 
L 201.572994 290.517023 
L 201.572994 289.990337 
L 202.345719 289.990337 
L 202.345719 289.463651 
L 205.562941 289.463651 
L 205.562941 288.936964 
L 206.494792 288.936964 
L 206.494792 288.410278 
L 207.829445 288.410278 
L 207.829445 287.883592 
L 208.543148 287.883592 
L 208.543148 287.356906 
L 209.218271 287.356906 
L 209.218271 286.83022 
L 210.977537 286.83022 
L 210.977537 286.303534 
L 211.178227 286.303534 
L 211.178227 285.776848 
L 211.383861 285.776848 
L 211.383861 284.723476 
L 212.39812 284.723476 
L 212.39812 284.19679 
L 214.014373 284.19679 
L 214.014373 283.143418 
L 215.235426 283.143418 
L 215.235426 282.616732 
L 215.481216 282.616732 
L 215.481216 282.090045 
L 216.575471 282.090045 
L 216.575471 281.563359 
L 217.591725 281.563359 
L 217.591725 281.036673 
L 218.10518 281.036673 
L 218.154268 279.983301 
L 221.728368 279.983301 
L 221.728368 279.456615 
L 222.545296 279.456615 
L 222.545296 278.929929 
L 222.803865 278.929929 
L 222.853677 277.876557 
L 223.070017 277.876557 
L 223.070017 277.349871 
L 223.900935 277.349871 
L 223.900935 276.823185 
L 224.503391 276.823185 
L 224.503391 276.296499 
L 225.413922 276.296499 
L 225.413922 275.243126 
L 226.13341 275.243126 
L 226.13341 274.189754 
L 226.50652 274.189754 
L 226.50652 273.663068 
L 226.623249 273.663068 
L 226.623249 273.136382 
L 227.158305 273.136382 
L 227.158305 272.609696 
L 227.639873 272.609696 
L 227.639873 272.08301 
L 228.332606 272.08301 
L 228.332606 271.029638 
L 229.505999 271.029638 
L 229.505999 270.502952 
L 230.276012 270.502952 
L 230.276012 269.976266 
L 232.901799 269.976266 
L 232.901799 269.449579 
L 235.283543 269.449579 
L 235.344276 266.816149 
L 236.087868 266.816149 
L 236.087868 266.289463 
L 239.575681 266.289463 
L 239.575681 265.762777 
L 242.380854 265.762777 
L 242.380854 264.709405 
L 244.069263 264.709405 
L 244.069263 264.182719 
L 244.492232 264.182719 
L 244.492232 263.656033 
L 244.894685 263.656033 
L 244.894685 263.129347 
L 245.09603 263.129347 
L 245.09603 262.075974 
L 246.275686 262.075974 
L 246.275686 261.549288 
L 247.638984 261.549288 
L 247.638984 261.022602 
L 248.290794 261.022602 
L 248.324346 259.96923 
L 248.475151 259.96923 
L 248.475151 259.442544 
L 249.204904 259.442544 
L 249.204904 258.915858 
L 249.457488 258.915858 
L 249.457488 258.389172 
L 251.288884 258.389172 
L 251.308878 257.3358 
L 252.068371 257.3358 
L 252.147369 256.282427 
L 253.627288 256.282427 
L 253.634522 255.229055 
L 254.408165 255.229055 
L 254.408165 254.175683 
L 255.883686 254.175683 
L 255.883686 253.648997 
L 256.364304 253.648997 
L 256.364304 253.122311 
L 256.53225 253.122311 
L 256.53225 252.595625 
L 258.219338 252.595625 
L 258.219338 252.068939 
L 258.365524 252.068939 
L 258.365524 251.542253 
L 259.065114 251.542253 
L 259.065114 251.015567 
L 259.50437 251.015567 
L 259.50437 250.488881 
L 260.033163 250.488881 
L 260.033163 248.908822 
L 260.665822 248.908822 
L 260.665822 248.382136 
L 264.132405 248.382136 
L 264.240168 247.328764 
L 265.048419 247.328764 
L 265.048419 246.802078 
L 265.443675 246.802078 
L 265.443675 246.275392 
L 268.038886 246.275392 
L 268.038886 245.748706 
L 268.62398 245.748706 
L 268.62398 245.22202 
L 269.255791 245.22202 
L 269.255791 244.695334 
L 269.56707 244.695334 
L 269.56707 244.168648 
L 274.353902 244.168648 
L 274.353902 243.641962 
L 275.448776 243.641962 
L 275.448776 243.115275 
L 276.942611 243.115275 
L 276.942611 242.061903 
L 283.402382 242.061903 
L 283.402382 241.535217 
L 285.364088 241.535217 
L 285.364088 241.008531 
L 338.688 241.008531 
L 338.688 241.008531 
" style="fill:none;stroke:#9acd32;stroke-linecap:square;stroke-width:1.5;"/>
   </g>
   <g id="line2d_61">
    <defs>
     <path d="M 0 -6 
L -6 6 
L 6 6 
z
" id="m4884696d83" style="stroke:#9acd32;stroke-linejoin:miter;stroke-width:1.5;"/>
    </defs>
    <g>
     <use style="fill-opacity:0;stroke:#9acd32;stroke-linejoin:miter;stroke-width:1.5;" x="227.639873" xlink:href="#m4884696d83" y="272.08301"/>
     <use style="fill-opacity:0;stroke:#9acd32;stroke-linejoin:miter;stroke-width:1.5;" x="276.942611" xlink:href="#m4884696d83" y="242.061903"/>
     <use style="fill-opacity:0;stroke:#9acd32;stroke-linejoin:miter;stroke-width:1.5;" x="285.364088" xlink:href="#m4884696d83" y="241.008531"/>
     <use style="fill-opacity:0;stroke:#9acd32;stroke-linejoin:miter;stroke-width:1.5;" x="338.688" xlink:href="#m4884696d83" y="241.008531"/>
    </g>
   </g>
   <g id="line2d_62">
    <path style="fill:none;stroke:#9acd32;stroke-linecap:square;stroke-width:1.5;"/>
    <g/>
   </g>
   <g id="line2d_63">
    <path clip-path="url(#p33a1cd8538)" d="M 218.221714 279.983301 
" style="fill:none;stroke:#9acd32;stroke-linecap:square;stroke-width:1.5;"/>
    <defs>
     <path d="M -12 12 
L 12 -12 
M -12 -12 
L 12 12 
" id="me814876a72" style="stroke:#9acd32;"/>
    </defs>
    <g clip-path="url(#p33a1cd8538)">
     <use style="fill:#9acd32;stroke:#9acd32;" x="218.221714" xlink:href="#me814876a72" y="279.983301"/>
    </g>
   </g>
   <g id="line2d_64">
    <path d="M 338.688 262.075974 
L 369.60768 293.571802 
" style="fill:none;stroke:#ff7500;stroke-linecap:square;stroke-width:1.5;"/>
    <g>
     <use style="fill-opacity:0;stroke:#ff7500;stroke-linejoin:bevel;stroke-width:1.5;" x="338.688" xlink:href="#me85dc27672" y="262.075974"/>
     <use style="fill-opacity:0;stroke:#ff7500;stroke-linejoin:bevel;stroke-width:1.5;" x="369.60768" xlink:href="#me85dc27672" y="293.571802"/>
    </g>
   </g>
   <g id="line2d_65">
    <path d="M 338.688 256.809114 
L 369.60768 250.594218 
" style="fill:none;stroke:#ff0000;stroke-linecap:square;stroke-width:1.5;"/>
    <g>
     <use style="fill-opacity:0;stroke:#ff0000;stroke-linejoin:miter;stroke-width:1.5;" x="338.688" xlink:href="#m2406c3484a" y="256.809114"/>
     <use style="fill-opacity:0;stroke:#ff0000;stroke-linejoin:miter;stroke-width:1.5;" x="369.60768" xlink:href="#m2406c3484a" y="250.594218"/>
    </g>
   </g>
   <g id="line2d_66">
    <path d="M 338.688 251.542253 
L 369.60768 207.616634 
" style="fill:none;stroke:#000080;stroke-linecap:square;stroke-width:1.5;"/>
    <g>
     <use style="fill-opacity:0;stroke:#000080;stroke-width:1.5;" x="338.688" xlink:href="#m62b15463c9" y="251.542253"/>
     <use style="fill-opacity:0;stroke:#000080;stroke-width:1.5;" x="369.60768" xlink:href="#m62b15463c9" y="207.616634"/>
    </g>
   </g>
   <g id="line2d_67">
    <path d="M 338.688 251.542253 
L 369.60768 164.63905 
" style="fill:none;stroke:#6495ed;stroke-linecap:square;stroke-width:1.5;"/>
    <g>
     <use style="fill-opacity:0;stroke:#6495ed;stroke-linejoin:miter;stroke-width:1.5;" x="338.688" xlink:href="#m0804c579af" y="251.542253"/>
     <use style="fill-opacity:0;stroke:#6495ed;stroke-linejoin:miter;stroke-width:1.5;" x="369.60768" xlink:href="#m0804c579af" y="164.63905"/>
    </g>
   </g>
   <g id="line2d_68">
    <path d="M 338.688 241.008531 
L 369.60768 121.661465 
" style="fill:none;stroke:#9acd32;stroke-linecap:square;stroke-width:1.5;"/>
    <g>
     <use style="fill-opacity:0;stroke:#9acd32;stroke-linejoin:miter;stroke-width:1.5;" x="338.688" xlink:href="#m4884696d83" y="241.008531"/>
     <use style="fill-opacity:0;stroke:#9acd32;stroke-linejoin:miter;stroke-width:1.5;" x="369.60768" xlink:href="#m4884696d83" y="121.661465"/>
    </g>
   </g>
   <g id="line2d_69">
    <path d="M 338.688 225.207949 
L 369.60768 78.683881 
" style="fill:none;stroke:#ff00ff;stroke-linecap:square;stroke-width:1.5;"/>
    <g>
     <use style="fill-opacity:0;stroke:#ff00ff;stroke-linejoin:miter;stroke-width:1.5;" x="338.688" xlink:href="#m469fa7f821" y="225.207949"/>
     <use style="fill-opacity:0;stroke:#ff00ff;stroke-linejoin:miter;stroke-width:1.5;" x="369.60768" xlink:href="#m469fa7f821" y="78.683881"/>
    </g>
   </g>
   <g id="line2d_70">
    <path d="M 338.688 298.944 
L 338.688 30.334099 
" style="fill:none;stroke:#000000;stroke-linecap:square;stroke-width:1.5;"/>
   </g>
   <g id="patch_3">
    <path d="M 57.6 298.944 
L 57.6 27.648 
" style="fill:none;stroke:#000000;stroke-linecap:square;stroke-linejoin:miter;stroke-width:0.8;"/>
   </g>
   <g id="patch_4">
    <path d="M 338.688 298.944 
L 338.688 27.648 
" style="fill:none;stroke:#000000;stroke-linecap:square;stroke-linejoin:miter;stroke-width:0.8;"/>
   </g>
   <g id="patch_5">
    <path d="M 57.6 298.944 
L 338.688 298.944 
" style="fill:none;stroke:#000000;stroke-linecap:square;stroke-linejoin:miter;stroke-width:0.8;"/>
   </g>
   <g id="patch_6">
    <path d="M 57.6 27.648 
L 338.688 27.648 
" style="fill:none;stroke:#000000;stroke-linecap:square;stroke-linejoin:miter;stroke-width:0.8;"/>
   </g>
   <g id="text_13">
    <!-- pop50 -->
    <g transform="translate(375.22944 298.262739)scale(0.17 -0.17)">
     <defs>
      <path d="M 10.796875 72.90625 
L 49.515625 72.90625 
L 49.515625 64.59375 
L 19.828125 64.59375 
L 19.828125 46.734375 
Q 21.96875 47.46875 24.109375 47.828125 
Q 26.265625 48.1875 28.421875 48.1875 
Q 40.625 48.1875 47.75 41.5 
Q 54.890625 34.8125 54.890625 23.390625 
Q 54.890625 11.625 47.5625 5.09375 
Q 40.234375 -1.421875 26.90625 -1.421875 
Q 22.3125 -1.421875 17.546875 -0.640625 
Q 12.796875 0.140625 7.71875 1.703125 
L 7.71875 11.625 
Q 12.109375 9.234375 16.796875 8.0625 
Q 21.484375 6.890625 26.703125 6.890625 
Q 35.15625 6.890625 40.078125 11.328125 
Q 45.015625 15.765625 45.015625 23.390625 
Q 45.015625 31 40.078125 35.4375 
Q 35.15625 39.890625 26.703125 39.890625 
Q 22.75 39.890625 18.8125 39.015625 
Q 14.890625 38.140625 10.796875 36.28125 
z
" id="DejaVuSans-53"/>
     </defs>
     <use xlink:href="#DejaVuSans-112"/>
     <use x="63.476562" xlink:href="#DejaVuSans-111"/>
     <use x="124.658203" xlink:href="#DejaVuSans-112"/>
     <use x="188.134766" xlink:href="#DejaVuSans-53"/>
     <use x="251.757812" xlink:href="#DejaVuSans-48"/>
    </g>
   </g>
   <g id="text_14">
    <!-- pop200 -->
    <g transform="translate(375.22944 255.285155)scale(0.17 -0.17)">
     <use xlink:href="#DejaVuSans-112"/>
     <use x="63.476562" xlink:href="#DejaVuSans-111"/>
     <use x="124.658203" xlink:href="#DejaVuSans-112"/>
     <use x="188.134766" xlink:href="#DejaVuSans-50"/>
     <use x="251.757812" xlink:href="#DejaVuSans-48"/>
     <use x="315.380859" xlink:href="#DejaVuSans-48"/>
    </g>
   </g>
   <g id="text_15">
    <!-- pop10 -->
    <g transform="translate(375.22944 212.307571)scale(0.17 -0.17)">
     <use xlink:href="#DejaVuSans-112"/>
     <use x="63.476562" xlink:href="#DejaVuSans-111"/>
     <use x="124.658203" xlink:href="#DejaVuSans-112"/>
     <use x="188.134766" xlink:href="#DejaVuSans-49"/>
     <use x="251.757812" xlink:href="#DejaVuSans-48"/>
    </g>
   </g>
   <g id="text_16">
    <!-- pop100 -->
    <g transform="translate(375.22944 169.329987)scale(0.17 -0.17)">
     <use xlink:href="#DejaVuSans-112"/>
     <use x="63.476562" xlink:href="#DejaVuSans-111"/>
     <use x="124.658203" xlink:href="#DejaVuSans-112"/>
     <use x="188.134766" xlink:href="#DejaVuSans-49"/>
     <use x="251.757812" xlink:href="#DejaVuSans-48"/>
     <use x="315.380859" xlink:href="#DejaVuSans-48"/>
    </g>
   </g>
   <g id="text_17">
    <!-- pop100xDI -->
    <g transform="translate(375.22944 126.352403)scale(0.17 -0.17)">
     <defs>
      <path d="M 54.890625 54.6875 
L 35.109375 28.078125 
L 55.90625 0 
L 45.3125 0 
L 29.390625 21.484375 
L 13.484375 0 
L 2.875 0 
L 24.125 28.609375 
L 4.6875 54.6875 
L 15.28125 54.6875 
L 29.78125 35.203125 
L 44.28125 54.6875 
z
" id="DejaVuSans-120"/>
      <path d="M 19.671875 64.796875 
L 19.671875 8.109375 
L 31.59375 8.109375 
Q 46.6875 8.109375 53.6875 14.9375 
Q 60.6875 21.78125 60.6875 36.53125 
Q 60.6875 51.171875 53.6875 57.984375 
Q 46.6875 64.796875 31.59375 64.796875 
z
M 9.8125 72.90625 
L 30.078125 72.90625 
Q 51.265625 72.90625 61.171875 64.09375 
Q 71.09375 55.28125 71.09375 36.53125 
Q 71.09375 17.671875 61.125 8.828125 
Q 51.171875 0 30.078125 0 
L 9.8125 0 
z
" id="DejaVuSans-68"/>
      <path d="M 9.8125 72.90625 
L 19.671875 72.90625 
L 19.671875 0 
L 9.8125 0 
z
" id="DejaVuSans-73"/>
     </defs>
     <use xlink:href="#DejaVuSans-112"/>
     <use x="63.476562" xlink:href="#DejaVuSans-111"/>
     <use x="124.658203" xlink:href="#DejaVuSans-112"/>
     <use x="188.134766" xlink:href="#DejaVuSans-49"/>
     <use x="251.757812" xlink:href="#DejaVuSans-48"/>
     <use x="315.380859" xlink:href="#DejaVuSans-48"/>
     <use x="379.003906" xlink:href="#DejaVuSans-120"/>
     <use x="438.183594" xlink:href="#DejaVuSans-68"/>
     <use x="515.185547" xlink:href="#DejaVuSans-73"/>
    </g>
   </g>
   <g id="text_18">
    <!-- pop40 -->
    <g transform="translate(375.22944 83.374819)scale(0.17 -0.17)">
     <use xlink:href="#DejaVuSans-112"/>
     <use x="63.476562" xlink:href="#DejaVuSans-111"/>
     <use x="124.658203" xlink:href="#DejaVuSans-112"/>
     <use x="188.134766" xlink:href="#DejaVuSans-52"/>
     <use x="251.757812" xlink:href="#DejaVuSans-48"/>
    </g>
   </g>
   <g id="text_19">
    <!-- best 2009 -->
    <g transform="translate(375.22944 40.397235)scale(0.17 -0.17)">
     <defs>
      <path d="M 48.6875 27.296875 
Q 48.6875 37.203125 44.609375 42.84375 
Q 40.53125 48.484375 33.40625 48.484375 
Q 26.265625 48.484375 22.1875 42.84375 
Q 18.109375 37.203125 18.109375 27.296875 
Q 18.109375 17.390625 22.1875 11.75 
Q 26.265625 6.109375 33.40625 6.109375 
Q 40.53125 6.109375 44.609375 11.75 
Q 48.6875 17.390625 48.6875 27.296875 
z
M 18.109375 46.390625 
Q 20.953125 51.265625 25.265625 53.625 
Q 29.59375 56 35.59375 56 
Q 45.5625 56 51.78125 48.09375 
Q 58.015625 40.1875 58.015625 27.296875 
Q 58.015625 14.40625 51.78125 6.484375 
Q 45.5625 -1.421875 35.59375 -1.421875 
Q 29.59375 -1.421875 25.265625 0.953125 
Q 20.953125 3.328125 18.109375 8.203125 
L 18.109375 0 
L 9.078125 0 
L 9.078125 75.984375 
L 18.109375 75.984375 
z
" id="DejaVuSans-98"/>
      <path d="M 10.984375 1.515625 
L 10.984375 10.5 
Q 14.703125 8.734375 18.5 7.8125 
Q 22.3125 6.890625 25.984375 6.890625 
Q 35.75 6.890625 40.890625 13.453125 
Q 46.046875 20.015625 46.78125 33.40625 
Q 43.953125 29.203125 39.59375 26.953125 
Q 35.25 24.703125 29.984375 24.703125 
Q 19.046875 24.703125 12.671875 31.3125 
Q 6.296875 37.9375 6.296875 49.421875 
Q 6.296875 60.640625 12.9375 67.421875 
Q 19.578125 74.21875 30.609375 74.21875 
Q 43.265625 74.21875 49.921875 64.515625 
Q 56.59375 54.828125 56.59375 36.375 
Q 56.59375 19.140625 48.40625 8.859375 
Q 40.234375 -1.421875 26.421875 -1.421875 
Q 22.703125 -1.421875 18.890625 -0.6875 
Q 15.09375 0.046875 10.984375 1.515625 
z
M 30.609375 32.421875 
Q 37.25 32.421875 41.125 36.953125 
Q 45.015625 41.5 45.015625 49.421875 
Q 45.015625 57.28125 41.125 61.84375 
Q 37.25 66.40625 30.609375 66.40625 
Q 23.96875 66.40625 20.09375 61.84375 
Q 16.21875 57.28125 16.21875 49.421875 
Q 16.21875 41.5 20.09375 36.953125 
Q 23.96875 32.421875 30.609375 32.421875 
z
" id="DejaVuSans-57"/>
     </defs>
     <use xlink:href="#DejaVuSans-98"/>
     <use x="63.476562" xlink:href="#DejaVuSans-101"/>
     <use x="125" xlink:href="#DejaVuSans-115"/>
     <use x="177.099609" xlink:href="#DejaVuSans-116"/>
     <use x="216.308594" xlink:href="#DejaVuSans-32"/>
     <use x="248.095703" xlink:href="#DejaVuSans-50"/>
     <use x="311.71875" xlink:href="#DejaVuSans-48"/>
     <use x="375.341797" xlink:href="#DejaVuSans-48"/>
     <use x="438.964844" xlink:href="#DejaVuSans-57"/>
    </g>
   </g>
   <g id="text_20">
    <!-- bbob f10, 5-D -->
    <g transform="translate(60.41088 38.111366)scale(0.102 -0.102)">
     <use xlink:href="#DejaVuSans-98"/>
     <use x="63.476562" xlink:href="#DejaVuSans-98"/>
     <use x="126.953125" xlink:href="#DejaVuSans-111"/>
     <use x="188.134766" xlink:href="#DejaVuSans-98"/>
     <use x="251.611328" xlink:href="#DejaVuSans-32"/>
     <use x="283.398438" xlink:href="#DejaVuSans-102"/>
     <use x="318.603516" xlink:href="#DejaVuSans-49"/>
     <use x="382.226562" xlink:href="#DejaVuSans-48"/>
     <use x="445.849609" xlink:href="#DejaVuSans-44"/>
     <use x="477.636719" xlink:href="#DejaVuSans-32"/>
     <use x="509.423828" xlink:href="#DejaVuSans-53"/>
     <use x="573.046875" xlink:href="#DejaVuSans-45"/>
     <use x="609.130859" xlink:href="#DejaVuSans-68"/>
    </g>
    <!-- 51 targets: 100..1e-08 -->
    <g transform="translate(60.41088 49.533135)scale(0.102 -0.102)">
     <defs>
      <path d="M 11.71875 12.40625 
L 22.015625 12.40625 
L 22.015625 0 
L 11.71875 0 
z
M 11.71875 51.703125 
L 22.015625 51.703125 
L 22.015625 39.3125 
L 11.71875 39.3125 
z
" id="DejaVuSans-58"/>
     </defs>
     <use xlink:href="#DejaVuSans-53"/>
     <use x="63.623047" xlink:href="#DejaVuSans-49"/>
     <use x="127.246094" xlink:href="#DejaVuSans-32"/>
     <use x="159.033203" xlink:href="#DejaVuSans-116"/>
     <use x="198.242188" xlink:href="#DejaVuSans-97"/>
     <use x="259.521484" xlink:href="#DejaVuSans-114"/>
     <use x="298.884766" xlink:href="#DejaVuSans-103"/>
     <use x="362.361328" xlink:href="#DejaVuSans-101"/>
     <use x="423.884766" xlink:href="#DejaVuSans-116"/>
     <use x="463.09375" xlink:href="#DejaVuSans-115"/>
     <use x="515.193359" xlink:href="#DejaVuSans-58"/>
     <use x="548.884766" xlink:href="#DejaVuSans-32"/>
     <use x="580.671875" xlink:href="#DejaVuSans-49"/>
     <use x="644.294922" xlink:href="#DejaVuSans-48"/>
     <use x="707.917969" xlink:href="#DejaVuSans-48"/>
     <use x="771.541016" xlink:href="#DejaVuSans-46"/>
     <use x="803.328125" xlink:href="#DejaVuSans-46"/>
     <use x="835.115234" xlink:href="#DejaVuSans-49"/>
     <use x="898.738281" xlink:href="#DejaVuSans-101"/>
     <use x="960.261719" xlink:href="#DejaVuSans-45"/>
     <use x="996.345703" xlink:href="#DejaVuSans-48"/>
     <use x="1059.96875" xlink:href="#DejaVuSans-56"/>
    </g>
    <!-- 15 instances -->
    <g transform="translate(60.41088 60.954904)scale(0.102 -0.102)">
     <use xlink:href="#DejaVuSans-49"/>
     <use x="63.623047" xlink:href="#DejaVuSans-53"/>
     <use x="127.246094" xlink:href="#DejaVuSans-32"/>
     <use x="159.033203" xlink:href="#DejaVuSans-105"/>
     <use x="186.816406" xlink:href="#DejaVuSans-110"/>
     <use x="250.195312" xlink:href="#DejaVuSans-115"/>
     <use x="302.294922" xlink:href="#DejaVuSans-116"/>
     <use x="341.503906" xlink:href="#DejaVuSans-97"/>
     <use x="402.783203" xlink:href="#DejaVuSans-110"/>
     <use x="466.162109" xlink:href="#DejaVuSans-99"/>
     <use x="521.142578" xlink:href="#DejaVuSans-101"/>
     <use x="582.666016" xlink:href="#DejaVuSans-115"/>
    </g>
   </g>
   <g id="text_21">
    <!-- v2.4 -->
    <g style="fill:#808080;" transform="translate(187.233062 294.151352)scale(0.1 -0.1)">
     <use xlink:href="#DejaVuSans-118"/>
     <use x="59.179688" xlink:href="#DejaVuSans-50"/>
     <use x="122.802734" xlink:href="#DejaVuSans-46"/>
     <use x="154.589844" xlink:href="#DejaVuSans-52"/>
    </g>
   </g>
   <g id="text_22">
    <!-- 10 Ellipsoid -->
    <g transform="translate(140.784625 21.648)scale(0.2 -0.2)">
     <defs>
      <path d="M 9.8125 72.90625 
L 55.90625 72.90625 
L 55.90625 64.59375 
L 19.671875 64.59375 
L 19.671875 43.015625 
L 54.390625 43.015625 
L 54.390625 34.71875 
L 19.671875 34.71875 
L 19.671875 8.296875 
L 56.78125 8.296875 
L 56.78125 0 
L 9.8125 0 
z
" id="DejaVuSans-69"/>
     </defs>
     <use xlink:href="#DejaVuSans-49"/>
     <use x="63.623047" xlink:href="#DejaVuSans-48"/>
     <use x="127.246094" xlink:href="#DejaVuSans-32"/>
     <use x="159.033203" xlink:href="#DejaVuSans-69"/>
     <use x="222.216797" xlink:href="#DejaVuSans-108"/>
     <use x="250" xlink:href="#DejaVuSans-108"/>
     <use x="277.783203" xlink:href="#DejaVuSans-105"/>
     <use x="305.566406" xlink:href="#DejaVuSans-112"/>
     <use x="369.042969" xlink:href="#DejaVuSans-115"/>
     <use x="421.142578" xlink:href="#DejaVuSans-111"/>
     <use x="482.324219" xlink:href="#DejaVuSans-105"/>
     <use x="510.107422" xlink:href="#DejaVuSans-100"/>
    </g>
   </g>
  </g>
 </g>
 <defs>
  <clipPath id="p33a1cd8538">
   <rect height="271.296" width="281.088" x="57.6" y="27.648"/>
  </clipPath>
 </defs>
</svg>
