<?xml version="1.0" encoding="utf-8" standalone="no"?>
<!DOCTYPE svg PUBLIC "-//W3C//DTD SVG 1.1//EN"
  "http://www.w3.org/Graphics/SVG/1.1/DTD/svg11.dtd">
<!-- Created with matplotlib (https://matplotlib.org/) -->
<svg height="345.6pt" version="1.1" viewBox="0 0 460.8 345.6" width="460.8pt" xmlns="http://www.w3.org/2000/svg" xmlns:xlink="http://www.w3.org/1999/xlink">
 <metadata>
  <rdf:RDF xmlns:cc="http://creativecommons.org/ns#" xmlns:dc="http://purl.org/dc/elements/1.1/" xmlns:rdf="http://www.w3.org/1999/02/22-rdf-syntax-ns#">
   <cc:Work>
    <dc:type rdf:resource="http://purl.org/dc/dcmitype/StillImage"/>
    <dc:date>2021-04-18T18:04:12.675212</dc:date>
    <dc:format>image/svg+xml</dc:format>
    <dc:creator>
     <cc:Agent>
      <dc:title>Matplotlib v3.3.4, https://matplotlib.org/</dc:title>
     </cc:Agent>
    </dc:creator>
   </cc:Work>
  </rdf:RDF>
 </metadata>
 <defs>
  <style type="text/css">*{stroke-linecap:butt;stroke-linejoin:round;}</style>
 </defs>
 <g id="figure_1">
  <g id="patch_1">
   <path d="M 0 345.6 
L 460.8 345.6 
L 460.8 0 
L 0 0 
z
" style="fill:#ffffff;"/>
  </g>
  <g id="axes_1">
   <g id="patch_2">
    <path d="M 57.6 298.944 
L 338.688 298.944 
L 338.688 27.648 
L 57.6 27.648 
z
" style="fill:#ffffff;"/>
   </g>
   <g id="line2d_1">
    <path d="M 116.709783 298.944 
L 116.709783 293.677139 
L 117.174084 293.677139 
L 117.174084 288.410278 
L 117.598418 288.410278 
L 117.598418 283.143418 
L 118.390628 283.143418 
L 118.390628 277.876557 
L 123.849288 277.876557 
L 123.849288 272.609696 
L 126.540355 272.609696 
L 126.540355 267.342835 
L 129.936138 267.342835 
L 129.936138 262.075974 
L 131.99937 262.075974 
L 131.99937 256.809114 
L 134.117215 256.809114 
L 134.117215 251.542253 
L 135.482227 251.542253 
L 135.482227 246.275392 
L 137.361683 246.275392 
L 137.361683 241.008531 
L 138.561269 241.008531 
L 138.561269 235.74167 
L 139.477614 235.74167 
L 139.477614 230.47481 
L 141.024894 230.47481 
L 141.024894 225.207949 
L 142.106582 225.207949 
L 142.106582 219.941088 
L 143.40093 219.941088 
L 143.40093 214.674227 
L 144.056737 214.674227 
L 144.056737 209.407366 
L 144.522457 209.407366 
L 144.522457 204.140506 
L 145.166911 204.140506 
L 145.166911 198.873645 
L 145.519922 198.873645 
L 145.519922 193.606784 
L 145.865929 193.606784 
L 145.865929 188.339923 
L 146.232279 188.339923 
L 146.232279 183.073062 
L 146.622867 183.073062 
L 146.622867 177.806202 
L 147.087524 177.806202 
L 147.087524 172.539341 
L 147.525055 172.539341 
L 147.525055 167.27248 
L 150.598782 167.27248 
L 150.598782 162.005619 
L 153.319524 162.005619 
L 153.319524 156.738758 
L 155.303359 156.738758 
L 155.303359 151.471897 
L 155.574631 151.471897 
L 155.574631 146.205037 
L 158.053098 146.205037 
L 158.053098 140.938176 
L 158.271501 140.938176 
L 158.271501 135.671315 
L 158.511304 135.671315 
L 158.511304 130.404454 
L 158.747853 130.404454 
L 158.747853 125.137593 
L 164.573397 125.137593 
L 164.573397 119.870733 
L 169.518863 119.870733 
L 169.518863 114.603872 
L 169.739527 114.603872 
L 169.739527 109.337011 
L 169.947714 109.337011 
L 169.947714 104.07015 
L 170.149326 104.07015 
L 170.149326 98.803289 
L 170.336414 98.803289 
L 170.336414 93.536429 
L 170.544348 93.536429 
L 170.544348 88.269568 
L 170.751159 88.269568 
L 170.751159 83.002707 
L 170.952924 83.002707 
L 170.952924 77.735846 
L 171.13682 77.735846 
L 171.13682 72.468985 
L 171.311091 72.468985 
L 171.311091 67.202125 
L 171.479823 67.202125 
L 171.479823 61.935264 
L 171.629289 61.935264 
L 171.629289 56.668403 
L 171.773733 56.668403 
L 171.773733 51.401542 
L 171.915749 51.401542 
L 171.915749 46.134681 
L 172.070151 46.134681 
L 172.070151 40.867821 
L 172.231729 40.867821 
L 172.231729 35.60096 
L 172.561226 35.60096 
L 172.561226 30.334099 
L 338.688 30.334099 
" style="fill:none;stroke:#f5deb3;stroke-linecap:square;stroke-width:4;"/>
   </g>
   <g id="line2d_2">
    <defs>
     <path d="M -0 7.778175 
L 7.778175 0 
L 0 -7.778175 
L -7.778175 -0 
z
" id="mdffe2de7a0" style="stroke:#f5deb3;stroke-linejoin:miter;stroke-width:1.5;"/>
    </defs>
    <g>
     <use style="fill:#f5deb3;stroke:#f5deb3;stroke-linejoin:miter;stroke-width:1.5;" x="145.519922" xlink:href="#mdffe2de7a0" y="193.606784"/>
     <use style="fill:#f5deb3;stroke:#f5deb3;stroke-linejoin:miter;stroke-width:1.5;" x="170.336414" xlink:href="#mdffe2de7a0" y="98.803289"/>
     <use style="fill:#f5deb3;stroke:#f5deb3;stroke-linejoin:miter;stroke-width:1.5;" x="172.561226" xlink:href="#mdffe2de7a0" y="30.334099"/>
     <use style="fill:#f5deb3;stroke:#f5deb3;stroke-linejoin:miter;stroke-width:1.5;" x="172.561226" xlink:href="#mdffe2de7a0" y="30.334099"/>
     <use style="fill:#f5deb3;stroke:#f5deb3;stroke-linejoin:miter;stroke-width:1.5;" x="338.688" xlink:href="#mdffe2de7a0" y="30.334099"/>
    </g>
   </g>
   <g id="line2d_3">
    <path style="fill:none;stroke:#f5deb3;stroke-linecap:square;stroke-width:4;"/>
    <g/>
   </g>
   <g id="line2d_4">
    <path d="M 338.688 30.334099 
L 369.60768 35.706297 
" style="fill:none;stroke:#f5deb3;stroke-linecap:square;stroke-width:4;"/>
    <g>
     <use style="fill:#f5deb3;stroke:#f5deb3;stroke-linejoin:miter;stroke-width:1.5;" x="338.688" xlink:href="#mdffe2de7a0" y="30.334099"/>
     <use style="fill:#f5deb3;stroke:#f5deb3;stroke-linejoin:miter;stroke-width:1.5;" x="369.60768" xlink:href="#mdffe2de7a0" y="35.706297"/>
    </g>
   </g>
   <g id="matplotlib.axis_1">
    <g id="xtick_1">
     <g id="line2d_5">
      <path clip-path="url(#p1856f00bde)" d="M 57.6 298.944 
L 57.6 27.648 
" style="fill:none;stroke:#b0b0b0;stroke-linecap:square;stroke-width:0.8;"/>
     </g>
     <g id="line2d_6">
      <defs>
       <path d="M 0 0 
L 0 3.5 
" id="mc998c67276" style="stroke:#000000;stroke-width:0.8;"/>
      </defs>
      <g>
       <use style="stroke:#000000;stroke-width:0.8;" x="57.6" xlink:href="#mc998c67276" y="298.944"/>
      </g>
     </g>
     <g id="text_1">
      <!-- 0 -->
      <g transform="translate(51.2375 321.140875)scale(0.2 -0.2)">
       <defs>
        <path d="M 31.78125 66.40625 
Q 24.171875 66.40625 20.328125 58.90625 
Q 16.5 51.421875 16.5 36.375 
Q 16.5 21.390625 20.328125 13.890625 
Q 24.171875 6.390625 31.78125 6.390625 
Q 39.453125 6.390625 43.28125 13.890625 
Q 47.125 21.390625 47.125 36.375 
Q 47.125 51.421875 43.28125 58.90625 
Q 39.453125 66.40625 31.78125 66.40625 
z
M 31.78125 74.21875 
Q 44.046875 74.21875 50.515625 64.515625 
Q 56.984375 54.828125 56.984375 36.375 
Q 56.984375 17.96875 50.515625 8.265625 
Q 44.046875 -1.421875 31.78125 -1.421875 
Q 19.53125 -1.421875 13.0625 8.265625 
Q 6.59375 17.96875 6.59375 36.375 
Q 6.59375 54.828125 13.0625 64.515625 
Q 19.53125 74.21875 31.78125 74.21875 
z
" id="DejaVuSans-48"/>
       </defs>
       <use xlink:href="#DejaVuSans-48"/>
      </g>
     </g>
    </g>
    <g id="xtick_2">
     <g id="line2d_7">
      <path clip-path="url(#p1856f00bde)" d="M 137.910857 298.944 
L 137.910857 27.648 
" style="fill:none;stroke:#b0b0b0;stroke-linecap:square;stroke-width:0.8;"/>
     </g>
     <g id="line2d_8">
      <g>
       <use style="stroke:#000000;stroke-width:0.8;" x="137.910857" xlink:href="#mc998c67276" y="298.944"/>
      </g>
     </g>
     <g id="text_2">
      <!-- 2 -->
      <g transform="translate(131.548357 321.140875)scale(0.2 -0.2)">
       <defs>
        <path d="M 19.1875 8.296875 
L 53.609375 8.296875 
L 53.609375 0 
L 7.328125 0 
L 7.328125 8.296875 
Q 12.9375 14.109375 22.625 23.890625 
Q 32.328125 33.6875 34.8125 36.53125 
Q 39.546875 41.84375 41.421875 45.53125 
Q 43.3125 49.21875 43.3125 52.78125 
Q 43.3125 58.59375 39.234375 62.25 
Q 35.15625 65.921875 28.609375 65.921875 
Q 23.96875 65.921875 18.8125 64.3125 
Q 13.671875 62.703125 7.8125 59.421875 
L 7.8125 69.390625 
Q 13.765625 71.78125 18.9375 73 
Q 24.125 74.21875 28.421875 74.21875 
Q 39.75 74.21875 46.484375 68.546875 
Q 53.21875 62.890625 53.21875 53.421875 
Q 53.21875 48.921875 51.53125 44.890625 
Q 49.859375 40.875 45.40625 35.40625 
Q 44.1875 33.984375 37.640625 27.21875 
Q 31.109375 20.453125 19.1875 8.296875 
z
" id="DejaVuSans-50"/>
       </defs>
       <use xlink:href="#DejaVuSans-50"/>
      </g>
     </g>
    </g>
    <g id="xtick_3">
     <g id="line2d_9">
      <path clip-path="url(#p1856f00bde)" d="M 218.221714 298.944 
L 218.221714 27.648 
" style="fill:none;stroke:#b0b0b0;stroke-linecap:square;stroke-width:0.8;"/>
     </g>
     <g id="line2d_10">
      <g>
       <use style="stroke:#000000;stroke-width:0.8;" x="218.221714" xlink:href="#mc998c67276" y="298.944"/>
      </g>
     </g>
     <g id="text_3">
      <!-- 4 -->
      <g transform="translate(211.859214 321.140875)scale(0.2 -0.2)">
       <defs>
        <path d="M 37.796875 64.3125 
L 12.890625 25.390625 
L 37.796875 25.390625 
z
M 35.203125 72.90625 
L 47.609375 72.90625 
L 47.609375 25.390625 
L 58.015625 25.390625 
L 58.015625 17.1875 
L 47.609375 17.1875 
L 47.609375 0 
L 37.796875 0 
L 37.796875 17.1875 
L 4.890625 17.1875 
L 4.890625 26.703125 
z
" id="DejaVuSans-52"/>
       </defs>
       <use xlink:href="#DejaVuSans-52"/>
      </g>
     </g>
    </g>
    <g id="xtick_4">
     <g id="line2d_11">
      <path clip-path="url(#p1856f00bde)" d="M 298.532571 298.944 
L 298.532571 27.648 
" style="fill:none;stroke:#b0b0b0;stroke-linecap:square;stroke-width:0.8;"/>
     </g>
     <g id="line2d_12">
      <g>
       <use style="stroke:#000000;stroke-width:0.8;" x="298.532571" xlink:href="#mc998c67276" y="298.944"/>
      </g>
     </g>
     <g id="text_4">
      <!-- 6 -->
      <g transform="translate(292.170071 321.140875)scale(0.2 -0.2)">
       <defs>
        <path d="M 33.015625 40.375 
Q 26.375 40.375 22.484375 35.828125 
Q 18.609375 31.296875 18.609375 23.390625 
Q 18.609375 15.53125 22.484375 10.953125 
Q 26.375 6.390625 33.015625 6.390625 
Q 39.65625 6.390625 43.53125 10.953125 
Q 47.40625 15.53125 47.40625 23.390625 
Q 47.40625 31.296875 43.53125 35.828125 
Q 39.65625 40.375 33.015625 40.375 
z
M 52.59375 71.296875 
L 52.59375 62.3125 
Q 48.875 64.0625 45.09375 64.984375 
Q 41.3125 65.921875 37.59375 65.921875 
Q 27.828125 65.921875 22.671875 59.328125 
Q 17.53125 52.734375 16.796875 39.40625 
Q 19.671875 43.65625 24.015625 45.921875 
Q 28.375 48.1875 33.59375 48.1875 
Q 44.578125 48.1875 50.953125 41.515625 
Q 57.328125 34.859375 57.328125 23.390625 
Q 57.328125 12.15625 50.6875 5.359375 
Q 44.046875 -1.421875 33.015625 -1.421875 
Q 20.359375 -1.421875 13.671875 8.265625 
Q 6.984375 17.96875 6.984375 36.375 
Q 6.984375 53.65625 15.1875 63.9375 
Q 23.390625 74.21875 37.203125 74.21875 
Q 40.921875 74.21875 44.703125 73.484375 
Q 48.484375 72.75 52.59375 71.296875 
z
" id="DejaVuSans-54"/>
       </defs>
       <use xlink:href="#DejaVuSans-54"/>
      </g>
     </g>
    </g>
    <g id="xtick_5">
     <g id="line2d_13">
      <path clip-path="url(#p1856f00bde)" d="M 97.755429 298.944 
L 97.755429 27.648 
" style="fill:none;stroke:#b0b0b0;stroke-linecap:square;stroke-width:0.8;"/>
     </g>
     <g id="line2d_14">
      <defs>
       <path d="M 0 0 
L 0 2 
" id="m122173c8bc" style="stroke:#000000;stroke-width:0.6;"/>
      </defs>
      <g>
       <use style="stroke:#000000;stroke-width:0.6;" x="97.755429" xlink:href="#m122173c8bc" y="298.944"/>
      </g>
     </g>
    </g>
    <g id="xtick_6">
     <g id="line2d_15">
      <path clip-path="url(#p1856f00bde)" d="M 178.066286 298.944 
L 178.066286 27.648 
" style="fill:none;stroke:#b0b0b0;stroke-linecap:square;stroke-width:0.8;"/>
     </g>
     <g id="line2d_16">
      <g>
       <use style="stroke:#000000;stroke-width:0.6;" x="178.066286" xlink:href="#m122173c8bc" y="298.944"/>
      </g>
     </g>
    </g>
    <g id="xtick_7">
     <g id="line2d_17">
      <path clip-path="url(#p1856f00bde)" d="M 258.377143 298.944 
L 258.377143 27.648 
" style="fill:none;stroke:#b0b0b0;stroke-linecap:square;stroke-width:0.8;"/>
     </g>
     <g id="line2d_18">
      <g>
       <use style="stroke:#000000;stroke-width:0.6;" x="258.377143" xlink:href="#m122173c8bc" y="298.944"/>
      </g>
     </g>
    </g>
    <g id="xtick_8">
     <g id="line2d_19">
      <path clip-path="url(#p1856f00bde)" d="M 338.688 298.944 
L 338.688 27.648 
" style="fill:none;stroke:#b0b0b0;stroke-linecap:square;stroke-width:0.8;"/>
     </g>
     <g id="line2d_20">
      <g>
       <use style="stroke:#000000;stroke-width:0.6;" x="338.688" xlink:href="#m122173c8bc" y="298.944"/>
      </g>
     </g>
    </g>
    <g id="text_5">
     <!-- log10(# f-evals / dimension) -->
     <g transform="translate(77.764078 342.217594)scale(0.17 -0.17)">
      <defs>
       <path d="M 9.421875 75.984375 
L 18.40625 75.984375 
L 18.40625 0 
L 9.421875 0 
z
" id="DejaVuSans-108"/>
       <path d="M 30.609375 48.390625 
Q 23.390625 48.390625 19.1875 42.75 
Q 14.984375 37.109375 14.984375 27.296875 
Q 14.984375 17.484375 19.15625 11.84375 
Q 23.34375 6.203125 30.609375 6.203125 
Q 37.796875 6.203125 41.984375 11.859375 
Q 46.1875 17.53125 46.1875 27.296875 
Q 46.1875 37.015625 41.984375 42.703125 
Q 37.796875 48.390625 30.609375 48.390625 
z
M 30.609375 56 
Q 42.328125 56 49.015625 48.375 
Q 55.71875 40.765625 55.71875 27.296875 
Q 55.71875 13.875 49.015625 6.21875 
Q 42.328125 -1.421875 30.609375 -1.421875 
Q 18.84375 -1.421875 12.171875 6.21875 
Q 5.515625 13.875 5.515625 27.296875 
Q 5.515625 40.765625 12.171875 48.375 
Q 18.84375 56 30.609375 56 
z
" id="DejaVuSans-111"/>
       <path d="M 45.40625 27.984375 
Q 45.40625 37.75 41.375 43.109375 
Q 37.359375 48.484375 30.078125 48.484375 
Q 22.859375 48.484375 18.828125 43.109375 
Q 14.796875 37.75 14.796875 27.984375 
Q 14.796875 18.265625 18.828125 12.890625 
Q 22.859375 7.515625 30.078125 7.515625 
Q 37.359375 7.515625 41.375 12.890625 
Q 45.40625 18.265625 45.40625 27.984375 
z
M 54.390625 6.78125 
Q 54.390625 -7.171875 48.1875 -13.984375 
Q 42 -20.796875 29.203125 -20.796875 
Q 24.46875 -20.796875 20.265625 -20.09375 
Q 16.0625 -19.390625 12.109375 -17.921875 
L 12.109375 -9.1875 
Q 16.0625 -11.328125 19.921875 -12.34375 
Q 23.78125 -13.375 27.78125 -13.375 
Q 36.625 -13.375 41.015625 -8.765625 
Q 45.40625 -4.15625 45.40625 5.171875 
L 45.40625 9.625 
Q 42.625 4.78125 38.28125 2.390625 
Q 33.9375 0 27.875 0 
Q 17.828125 0 11.671875 7.65625 
Q 5.515625 15.328125 5.515625 27.984375 
Q 5.515625 40.671875 11.671875 48.328125 
Q 17.828125 56 27.875 56 
Q 33.9375 56 38.28125 53.609375 
Q 42.625 51.21875 45.40625 46.390625 
L 45.40625 54.6875 
L 54.390625 54.6875 
z
" id="DejaVuSans-103"/>
       <path d="M 12.40625 8.296875 
L 28.515625 8.296875 
L 28.515625 63.921875 
L 10.984375 60.40625 
L 10.984375 69.390625 
L 28.421875 72.90625 
L 38.28125 72.90625 
L 38.28125 8.296875 
L 54.390625 8.296875 
L 54.390625 0 
L 12.40625 0 
z
" id="DejaVuSans-49"/>
       <path d="M 31 75.875 
Q 24.46875 64.65625 21.28125 53.65625 
Q 18.109375 42.671875 18.109375 31.390625 
Q 18.109375 20.125 21.3125 9.0625 
Q 24.515625 -2 31 -13.1875 
L 23.1875 -13.1875 
Q 15.875 -1.703125 12.234375 9.375 
Q 8.59375 20.453125 8.59375 31.390625 
Q 8.59375 42.28125 12.203125 53.3125 
Q 15.828125 64.359375 23.1875 75.875 
z
" id="DejaVuSans-40"/>
       <path d="M 51.125 44 
L 36.921875 44 
L 32.8125 27.6875 
L 47.125 27.6875 
z
M 43.796875 71.78125 
L 38.71875 51.515625 
L 52.984375 51.515625 
L 58.109375 71.78125 
L 65.921875 71.78125 
L 60.890625 51.515625 
L 76.125 51.515625 
L 76.125 44 
L 58.984375 44 
L 54.984375 27.6875 
L 70.515625 27.6875 
L 70.515625 20.21875 
L 53.078125 20.21875 
L 48 0 
L 40.1875 0 
L 45.21875 20.21875 
L 30.90625 20.21875 
L 25.875 0 
L 18.015625 0 
L 23.09375 20.21875 
L 7.71875 20.21875 
L 7.71875 27.6875 
L 24.90625 27.6875 
L 29 44 
L 13.28125 44 
L 13.28125 51.515625 
L 30.90625 51.515625 
L 35.890625 71.78125 
z
" id="DejaVuSans-35"/>
       <path id="DejaVuSans-32"/>
       <path d="M 37.109375 75.984375 
L 37.109375 68.5 
L 28.515625 68.5 
Q 23.6875 68.5 21.796875 66.546875 
Q 19.921875 64.59375 19.921875 59.515625 
L 19.921875 54.6875 
L 34.71875 54.6875 
L 34.71875 47.703125 
L 19.921875 47.703125 
L 19.921875 0 
L 10.890625 0 
L 10.890625 47.703125 
L 2.296875 47.703125 
L 2.296875 54.6875 
L 10.890625 54.6875 
L 10.890625 58.5 
Q 10.890625 67.625 15.140625 71.796875 
Q 19.390625 75.984375 28.609375 75.984375 
z
" id="DejaVuSans-102"/>
       <path d="M 4.890625 31.390625 
L 31.203125 31.390625 
L 31.203125 23.390625 
L 4.890625 23.390625 
z
" id="DejaVuSans-45"/>
       <path d="M 56.203125 29.59375 
L 56.203125 25.203125 
L 14.890625 25.203125 
Q 15.484375 15.921875 20.484375 11.0625 
Q 25.484375 6.203125 34.421875 6.203125 
Q 39.59375 6.203125 44.453125 7.46875 
Q 49.3125 8.734375 54.109375 11.28125 
L 54.109375 2.78125 
Q 49.265625 0.734375 44.1875 -0.34375 
Q 39.109375 -1.421875 33.890625 -1.421875 
Q 20.796875 -1.421875 13.15625 6.1875 
Q 5.515625 13.8125 5.515625 26.8125 
Q 5.515625 40.234375 12.765625 48.109375 
Q 20.015625 56 32.328125 56 
Q 43.359375 56 49.78125 48.890625 
Q 56.203125 41.796875 56.203125 29.59375 
z
M 47.21875 32.234375 
Q 47.125 39.59375 43.09375 43.984375 
Q 39.0625 48.390625 32.421875 48.390625 
Q 24.90625 48.390625 20.390625 44.140625 
Q 15.875 39.890625 15.1875 32.171875 
z
" id="DejaVuSans-101"/>
       <path d="M 2.984375 54.6875 
L 12.5 54.6875 
L 29.59375 8.796875 
L 46.6875 54.6875 
L 56.203125 54.6875 
L 35.6875 0 
L 23.484375 0 
z
" id="DejaVuSans-118"/>
       <path d="M 34.28125 27.484375 
Q 23.390625 27.484375 19.1875 25 
Q 14.984375 22.515625 14.984375 16.5 
Q 14.984375 11.71875 18.140625 8.90625 
Q 21.296875 6.109375 26.703125 6.109375 
Q 34.1875 6.109375 38.703125 11.40625 
Q 43.21875 16.703125 43.21875 25.484375 
L 43.21875 27.484375 
z
M 52.203125 31.203125 
L 52.203125 0 
L 43.21875 0 
L 43.21875 8.296875 
Q 40.140625 3.328125 35.546875 0.953125 
Q 30.953125 -1.421875 24.3125 -1.421875 
Q 15.921875 -1.421875 10.953125 3.296875 
Q 6 8.015625 6 15.921875 
Q 6 25.140625 12.171875 29.828125 
Q 18.359375 34.515625 30.609375 34.515625 
L 43.21875 34.515625 
L 43.21875 35.40625 
Q 43.21875 41.609375 39.140625 45 
Q 35.0625 48.390625 27.6875 48.390625 
Q 23 48.390625 18.546875 47.265625 
Q 14.109375 46.140625 10.015625 43.890625 
L 10.015625 52.203125 
Q 14.9375 54.109375 19.578125 55.046875 
Q 24.21875 56 28.609375 56 
Q 40.484375 56 46.34375 49.84375 
Q 52.203125 43.703125 52.203125 31.203125 
z
" id="DejaVuSans-97"/>
       <path d="M 44.28125 53.078125 
L 44.28125 44.578125 
Q 40.484375 46.53125 36.375 47.5 
Q 32.28125 48.484375 27.875 48.484375 
Q 21.1875 48.484375 17.84375 46.4375 
Q 14.5 44.390625 14.5 40.28125 
Q 14.5 37.15625 16.890625 35.375 
Q 19.28125 33.59375 26.515625 31.984375 
L 29.59375 31.296875 
Q 39.15625 29.25 43.1875 25.515625 
Q 47.21875 21.78125 47.21875 15.09375 
Q 47.21875 7.46875 41.1875 3.015625 
Q 35.15625 -1.421875 24.609375 -1.421875 
Q 20.21875 -1.421875 15.453125 -0.5625 
Q 10.6875 0.296875 5.421875 2 
L 5.421875 11.28125 
Q 10.40625 8.6875 15.234375 7.390625 
Q 20.0625 6.109375 24.8125 6.109375 
Q 31.15625 6.109375 34.5625 8.28125 
Q 37.984375 10.453125 37.984375 14.40625 
Q 37.984375 18.0625 35.515625 20.015625 
Q 33.0625 21.96875 24.703125 23.78125 
L 21.578125 24.515625 
Q 13.234375 26.265625 9.515625 29.90625 
Q 5.8125 33.546875 5.8125 39.890625 
Q 5.8125 47.609375 11.28125 51.796875 
Q 16.75 56 26.8125 56 
Q 31.78125 56 36.171875 55.265625 
Q 40.578125 54.546875 44.28125 53.078125 
z
" id="DejaVuSans-115"/>
       <path d="M 25.390625 72.90625 
L 33.6875 72.90625 
L 8.296875 -9.28125 
L 0 -9.28125 
z
" id="DejaVuSans-47"/>
       <path d="M 45.40625 46.390625 
L 45.40625 75.984375 
L 54.390625 75.984375 
L 54.390625 0 
L 45.40625 0 
L 45.40625 8.203125 
Q 42.578125 3.328125 38.25 0.953125 
Q 33.9375 -1.421875 27.875 -1.421875 
Q 17.96875 -1.421875 11.734375 6.484375 
Q 5.515625 14.40625 5.515625 27.296875 
Q 5.515625 40.1875 11.734375 48.09375 
Q 17.96875 56 27.875 56 
Q 33.9375 56 38.25 53.625 
Q 42.578125 51.265625 45.40625 46.390625 
z
M 14.796875 27.296875 
Q 14.796875 17.390625 18.875 11.75 
Q 22.953125 6.109375 30.078125 6.109375 
Q 37.203125 6.109375 41.296875 11.75 
Q 45.40625 17.390625 45.40625 27.296875 
Q 45.40625 37.203125 41.296875 42.84375 
Q 37.203125 48.484375 30.078125 48.484375 
Q 22.953125 48.484375 18.875 42.84375 
Q 14.796875 37.203125 14.796875 27.296875 
z
" id="DejaVuSans-100"/>
       <path d="M 9.421875 54.6875 
L 18.40625 54.6875 
L 18.40625 0 
L 9.421875 0 
z
M 9.421875 75.984375 
L 18.40625 75.984375 
L 18.40625 64.59375 
L 9.421875 64.59375 
z
" id="DejaVuSans-105"/>
       <path d="M 52 44.1875 
Q 55.375 50.25 60.0625 53.125 
Q 64.75 56 71.09375 56 
Q 79.640625 56 84.28125 50.015625 
Q 88.921875 44.046875 88.921875 33.015625 
L 88.921875 0 
L 79.890625 0 
L 79.890625 32.71875 
Q 79.890625 40.578125 77.09375 44.375 
Q 74.3125 48.1875 68.609375 48.1875 
Q 61.625 48.1875 57.5625 43.546875 
Q 53.515625 38.921875 53.515625 30.90625 
L 53.515625 0 
L 44.484375 0 
L 44.484375 32.71875 
Q 44.484375 40.625 41.703125 44.40625 
Q 38.921875 48.1875 33.109375 48.1875 
Q 26.21875 48.1875 22.15625 43.53125 
Q 18.109375 38.875 18.109375 30.90625 
L 18.109375 0 
L 9.078125 0 
L 9.078125 54.6875 
L 18.109375 54.6875 
L 18.109375 46.1875 
Q 21.1875 51.21875 25.484375 53.609375 
Q 29.78125 56 35.6875 56 
Q 41.65625 56 45.828125 52.96875 
Q 50 49.953125 52 44.1875 
z
" id="DejaVuSans-109"/>
       <path d="M 54.890625 33.015625 
L 54.890625 0 
L 45.90625 0 
L 45.90625 32.71875 
Q 45.90625 40.484375 42.875 44.328125 
Q 39.84375 48.1875 33.796875 48.1875 
Q 26.515625 48.1875 22.3125 43.546875 
Q 18.109375 38.921875 18.109375 30.90625 
L 18.109375 0 
L 9.078125 0 
L 9.078125 54.6875 
L 18.109375 54.6875 
L 18.109375 46.1875 
Q 21.34375 51.125 25.703125 53.5625 
Q 30.078125 56 35.796875 56 
Q 45.21875 56 50.046875 50.171875 
Q 54.890625 44.34375 54.890625 33.015625 
z
" id="DejaVuSans-110"/>
       <path d="M 8.015625 75.875 
L 15.828125 75.875 
Q 23.140625 64.359375 26.78125 53.3125 
Q 30.421875 42.28125 30.421875 31.390625 
Q 30.421875 20.453125 26.78125 9.375 
Q 23.140625 -1.703125 15.828125 -13.1875 
L 8.015625 -13.1875 
Q 14.5 -2 17.703125 9.0625 
Q 20.90625 20.125 20.90625 31.390625 
Q 20.90625 42.671875 17.703125 53.65625 
Q 14.5 64.65625 8.015625 75.875 
z
" id="DejaVuSans-41"/>
      </defs>
      <use xlink:href="#DejaVuSans-108"/>
      <use x="27.783203" xlink:href="#DejaVuSans-111"/>
      <use x="88.964844" xlink:href="#DejaVuSans-103"/>
      <use x="152.441406" xlink:href="#DejaVuSans-49"/>
      <use x="216.064453" xlink:href="#DejaVuSans-48"/>
      <use x="279.6875" xlink:href="#DejaVuSans-40"/>
      <use x="318.701172" xlink:href="#DejaVuSans-35"/>
      <use x="402.490234" xlink:href="#DejaVuSans-32"/>
      <use x="434.277344" xlink:href="#DejaVuSans-102"/>
      <use x="463.982422" xlink:href="#DejaVuSans-45"/>
      <use x="500.066406" xlink:href="#DejaVuSans-101"/>
      <use x="561.589844" xlink:href="#DejaVuSans-118"/>
      <use x="620.769531" xlink:href="#DejaVuSans-97"/>
      <use x="682.048828" xlink:href="#DejaVuSans-108"/>
      <use x="709.832031" xlink:href="#DejaVuSans-115"/>
      <use x="761.931641" xlink:href="#DejaVuSans-32"/>
      <use x="793.71875" xlink:href="#DejaVuSans-47"/>
      <use x="827.410156" xlink:href="#DejaVuSans-32"/>
      <use x="859.197266" xlink:href="#DejaVuSans-100"/>
      <use x="922.673828" xlink:href="#DejaVuSans-105"/>
      <use x="950.457031" xlink:href="#DejaVuSans-109"/>
      <use x="1047.869141" xlink:href="#DejaVuSans-101"/>
      <use x="1109.392578" xlink:href="#DejaVuSans-110"/>
      <use x="1172.771484" xlink:href="#DejaVuSans-115"/>
      <use x="1224.871094" xlink:href="#DejaVuSans-105"/>
      <use x="1252.654297" xlink:href="#DejaVuSans-111"/>
      <use x="1313.835938" xlink:href="#DejaVuSans-110"/>
      <use x="1377.214844" xlink:href="#DejaVuSans-41"/>
     </g>
    </g>
   </g>
   <g id="matplotlib.axis_2">
    <g id="ytick_1">
     <g id="line2d_21">
      <path clip-path="url(#p1856f00bde)" d="M 57.6 298.944 
L 338.688 298.944 
" style="fill:none;stroke:#b0b0b0;stroke-linecap:square;stroke-width:0.8;"/>
     </g>
     <g id="line2d_22">
      <defs>
       <path d="M 0 0 
L -3.5 0 
" id="mb379299d08" style="stroke:#000000;stroke-width:0.8;"/>
      </defs>
      <g>
       <use style="stroke:#000000;stroke-width:0.8;" x="57.6" xlink:href="#mb379299d08" y="298.944"/>
      </g>
     </g>
     <g id="text_6">
      <!-- 0.0 -->
      <g transform="translate(25.155 305.02275)scale(0.16 -0.16)">
       <defs>
        <path d="M 10.6875 12.40625 
L 21 12.40625 
L 21 0 
L 10.6875 0 
z
" id="DejaVuSans-46"/>
       </defs>
       <use xlink:href="#DejaVuSans-48"/>
       <use x="63.623047" xlink:href="#DejaVuSans-46"/>
       <use x="95.410156" xlink:href="#DejaVuSans-48"/>
      </g>
     </g>
    </g>
    <g id="ytick_2">
     <g id="line2d_23">
      <path clip-path="url(#p1856f00bde)" d="M 57.6 245.22202 
L 338.688 245.22202 
" style="fill:none;stroke:#b0b0b0;stroke-linecap:square;stroke-width:0.8;"/>
     </g>
     <g id="line2d_24">
      <g>
       <use style="stroke:#000000;stroke-width:0.8;" x="57.6" xlink:href="#mb379299d08" y="245.22202"/>
      </g>
     </g>
     <g id="text_7">
      <!-- 0.2 -->
      <g transform="translate(25.155 251.30077)scale(0.16 -0.16)">
       <use xlink:href="#DejaVuSans-48"/>
       <use x="63.623047" xlink:href="#DejaVuSans-46"/>
       <use x="95.410156" xlink:href="#DejaVuSans-50"/>
      </g>
     </g>
    </g>
    <g id="ytick_3">
     <g id="line2d_25">
      <path clip-path="url(#p1856f00bde)" d="M 57.6 191.50004 
L 338.688 191.50004 
" style="fill:none;stroke:#b0b0b0;stroke-linecap:square;stroke-width:0.8;"/>
     </g>
     <g id="line2d_26">
      <g>
       <use style="stroke:#000000;stroke-width:0.8;" x="57.6" xlink:href="#mb379299d08" y="191.50004"/>
      </g>
     </g>
     <g id="text_8">
      <!-- 0.4 -->
      <g transform="translate(25.155 197.57879)scale(0.16 -0.16)">
       <use xlink:href="#DejaVuSans-48"/>
       <use x="63.623047" xlink:href="#DejaVuSans-46"/>
       <use x="95.410156" xlink:href="#DejaVuSans-52"/>
      </g>
     </g>
    </g>
    <g id="ytick_4">
     <g id="line2d_27">
      <path clip-path="url(#p1856f00bde)" d="M 57.6 137.778059 
L 338.688 137.778059 
" style="fill:none;stroke:#b0b0b0;stroke-linecap:square;stroke-width:0.8;"/>
     </g>
     <g id="line2d_28">
      <g>
       <use style="stroke:#000000;stroke-width:0.8;" x="57.6" xlink:href="#mb379299d08" y="137.778059"/>
      </g>
     </g>
     <g id="text_9">
      <!-- 0.6 -->
      <g transform="translate(25.155 143.856809)scale(0.16 -0.16)">
       <use xlink:href="#DejaVuSans-48"/>
       <use x="63.623047" xlink:href="#DejaVuSans-46"/>
       <use x="95.410156" xlink:href="#DejaVuSans-54"/>
      </g>
     </g>
    </g>
    <g id="ytick_5">
     <g id="line2d_29">
      <path clip-path="url(#p1856f00bde)" d="M 57.6 84.056079 
L 338.688 84.056079 
" style="fill:none;stroke:#b0b0b0;stroke-linecap:square;stroke-width:0.8;"/>
     </g>
     <g id="line2d_30">
      <g>
       <use style="stroke:#000000;stroke-width:0.8;" x="57.6" xlink:href="#mb379299d08" y="84.056079"/>
      </g>
     </g>
     <g id="text_10">
      <!-- 0.8 -->
      <g transform="translate(25.155 90.134829)scale(0.16 -0.16)">
       <defs>
        <path d="M 31.78125 34.625 
Q 24.75 34.625 20.71875 30.859375 
Q 16.703125 27.09375 16.703125 20.515625 
Q 16.703125 13.921875 20.71875 10.15625 
Q 24.75 6.390625 31.78125 6.390625 
Q 38.8125 6.390625 42.859375 10.171875 
Q 46.921875 13.96875 46.921875 20.515625 
Q 46.921875 27.09375 42.890625 30.859375 
Q 38.875 34.625 31.78125 34.625 
z
M 21.921875 38.8125 
Q 15.578125 40.375 12.03125 44.71875 
Q 8.5 49.078125 8.5 55.328125 
Q 8.5 64.0625 14.71875 69.140625 
Q 20.953125 74.21875 31.78125 74.21875 
Q 42.671875 74.21875 48.875 69.140625 
Q 55.078125 64.0625 55.078125 55.328125 
Q 55.078125 49.078125 51.53125 44.71875 
Q 48 40.375 41.703125 38.8125 
Q 48.828125 37.15625 52.796875 32.3125 
Q 56.78125 27.484375 56.78125 20.515625 
Q 56.78125 9.90625 50.3125 4.234375 
Q 43.84375 -1.421875 31.78125 -1.421875 
Q 19.734375 -1.421875 13.25 4.234375 
Q 6.78125 9.90625 6.78125 20.515625 
Q 6.78125 27.484375 10.78125 32.3125 
Q 14.796875 37.15625 21.921875 38.8125 
z
M 18.3125 54.390625 
Q 18.3125 48.734375 21.84375 45.5625 
Q 25.390625 42.390625 31.78125 42.390625 
Q 38.140625 42.390625 41.71875 45.5625 
Q 45.3125 48.734375 45.3125 54.390625 
Q 45.3125 60.0625 41.71875 63.234375 
Q 38.140625 66.40625 31.78125 66.40625 
Q 25.390625 66.40625 21.84375 63.234375 
Q 18.3125 60.0625 18.3125 54.390625 
z
" id="DejaVuSans-56"/>
       </defs>
       <use xlink:href="#DejaVuSans-48"/>
       <use x="63.623047" xlink:href="#DejaVuSans-46"/>
       <use x="95.410156" xlink:href="#DejaVuSans-56"/>
      </g>
     </g>
    </g>
    <g id="ytick_6">
     <g id="line2d_31">
      <path clip-path="url(#p1856f00bde)" d="M 57.6 30.334099 
L 338.688 30.334099 
" style="fill:none;stroke:#b0b0b0;stroke-linecap:square;stroke-width:0.8;"/>
     </g>
     <g id="line2d_32">
      <g>
       <use style="stroke:#000000;stroke-width:0.8;" x="57.6" xlink:href="#mb379299d08" y="30.334099"/>
      </g>
     </g>
     <g id="text_11">
      <!-- 1.0 -->
      <g transform="translate(25.155 36.412849)scale(0.16 -0.16)">
       <use xlink:href="#DejaVuSans-49"/>
       <use x="63.623047" xlink:href="#DejaVuSans-46"/>
       <use x="95.410156" xlink:href="#DejaVuSans-48"/>
      </g>
     </g>
    </g>
    <g id="text_12">
     <!-- Fraction of function,target pairs -->
     <g transform="translate(17.619531 297.681)rotate(-90)scale(0.17 -0.17)">
      <defs>
       <path d="M 9.8125 72.90625 
L 51.703125 72.90625 
L 51.703125 64.59375 
L 19.671875 64.59375 
L 19.671875 43.109375 
L 48.578125 43.109375 
L 48.578125 34.8125 
L 19.671875 34.8125 
L 19.671875 0 
L 9.8125 0 
z
" id="DejaVuSans-70"/>
       <path d="M 41.109375 46.296875 
Q 39.59375 47.171875 37.8125 47.578125 
Q 36.03125 48 33.890625 48 
Q 26.265625 48 22.1875 43.046875 
Q 18.109375 38.09375 18.109375 28.8125 
L 18.109375 0 
L 9.078125 0 
L 9.078125 54.6875 
L 18.109375 54.6875 
L 18.109375 46.1875 
Q 20.953125 51.171875 25.484375 53.578125 
Q 30.03125 56 36.53125 56 
Q 37.453125 56 38.578125 55.875 
Q 39.703125 55.765625 41.0625 55.515625 
z
" id="DejaVuSans-114"/>
       <path d="M 48.78125 52.59375 
L 48.78125 44.1875 
Q 44.96875 46.296875 41.140625 47.34375 
Q 37.3125 48.390625 33.40625 48.390625 
Q 24.65625 48.390625 19.8125 42.84375 
Q 14.984375 37.3125 14.984375 27.296875 
Q 14.984375 17.28125 19.8125 11.734375 
Q 24.65625 6.203125 33.40625 6.203125 
Q 37.3125 6.203125 41.140625 7.25 
Q 44.96875 8.296875 48.78125 10.40625 
L 48.78125 2.09375 
Q 45.015625 0.34375 40.984375 -0.53125 
Q 36.96875 -1.421875 32.421875 -1.421875 
Q 20.0625 -1.421875 12.78125 6.34375 
Q 5.515625 14.109375 5.515625 27.296875 
Q 5.515625 40.671875 12.859375 48.328125 
Q 20.21875 56 33.015625 56 
Q 37.15625 56 41.109375 55.140625 
Q 45.0625 54.296875 48.78125 52.59375 
z
" id="DejaVuSans-99"/>
       <path d="M 18.3125 70.21875 
L 18.3125 54.6875 
L 36.8125 54.6875 
L 36.8125 47.703125 
L 18.3125 47.703125 
L 18.3125 18.015625 
Q 18.3125 11.328125 20.140625 9.421875 
Q 21.96875 7.515625 27.59375 7.515625 
L 36.8125 7.515625 
L 36.8125 0 
L 27.59375 0 
Q 17.1875 0 13.234375 3.875 
Q 9.28125 7.765625 9.28125 18.015625 
L 9.28125 47.703125 
L 2.6875 47.703125 
L 2.6875 54.6875 
L 9.28125 54.6875 
L 9.28125 70.21875 
z
" id="DejaVuSans-116"/>
       <path d="M 8.5 21.578125 
L 8.5 54.6875 
L 17.484375 54.6875 
L 17.484375 21.921875 
Q 17.484375 14.15625 20.5 10.265625 
Q 23.53125 6.390625 29.59375 6.390625 
Q 36.859375 6.390625 41.078125 11.03125 
Q 45.3125 15.671875 45.3125 23.6875 
L 45.3125 54.6875 
L 54.296875 54.6875 
L 54.296875 0 
L 45.3125 0 
L 45.3125 8.40625 
Q 42.046875 3.421875 37.71875 1 
Q 33.40625 -1.421875 27.6875 -1.421875 
Q 18.265625 -1.421875 13.375 4.4375 
Q 8.5 10.296875 8.5 21.578125 
z
M 31.109375 56 
z
" id="DejaVuSans-117"/>
       <path d="M 11.71875 12.40625 
L 22.015625 12.40625 
L 22.015625 4 
L 14.015625 -11.625 
L 7.71875 -11.625 
L 11.71875 4 
z
" id="DejaVuSans-44"/>
       <path d="M 18.109375 8.203125 
L 18.109375 -20.796875 
L 9.078125 -20.796875 
L 9.078125 54.6875 
L 18.109375 54.6875 
L 18.109375 46.390625 
Q 20.953125 51.265625 25.265625 53.625 
Q 29.59375 56 35.59375 56 
Q 45.5625 56 51.78125 48.09375 
Q 58.015625 40.1875 58.015625 27.296875 
Q 58.015625 14.40625 51.78125 6.484375 
Q 45.5625 -1.421875 35.59375 -1.421875 
Q 29.59375 -1.421875 25.265625 0.953125 
Q 20.953125 3.328125 18.109375 8.203125 
z
M 48.6875 27.296875 
Q 48.6875 37.203125 44.609375 42.84375 
Q 40.53125 48.484375 33.40625 48.484375 
Q 26.265625 48.484375 22.1875 42.84375 
Q 18.109375 37.203125 18.109375 27.296875 
Q 18.109375 17.390625 22.1875 11.75 
Q 26.265625 6.109375 33.40625 6.109375 
Q 40.53125 6.109375 44.609375 11.75 
Q 48.6875 17.390625 48.6875 27.296875 
z
" id="DejaVuSans-112"/>
      </defs>
      <use xlink:href="#DejaVuSans-70"/>
      <use x="50.269531" xlink:href="#DejaVuSans-114"/>
      <use x="91.382812" xlink:href="#DejaVuSans-97"/>
      <use x="152.662109" xlink:href="#DejaVuSans-99"/>
      <use x="207.642578" xlink:href="#DejaVuSans-116"/>
      <use x="246.851562" xlink:href="#DejaVuSans-105"/>
      <use x="274.634766" xlink:href="#DejaVuSans-111"/>
      <use x="335.816406" xlink:href="#DejaVuSans-110"/>
      <use x="399.195312" xlink:href="#DejaVuSans-32"/>
      <use x="430.982422" xlink:href="#DejaVuSans-111"/>
      <use x="492.164062" xlink:href="#DejaVuSans-102"/>
      <use x="527.369141" xlink:href="#DejaVuSans-32"/>
      <use x="559.15625" xlink:href="#DejaVuSans-102"/>
      <use x="594.361328" xlink:href="#DejaVuSans-117"/>
      <use x="657.740234" xlink:href="#DejaVuSans-110"/>
      <use x="721.119141" xlink:href="#DejaVuSans-99"/>
      <use x="776.099609" xlink:href="#DejaVuSans-116"/>
      <use x="815.308594" xlink:href="#DejaVuSans-105"/>
      <use x="843.091797" xlink:href="#DejaVuSans-111"/>
      <use x="904.273438" xlink:href="#DejaVuSans-110"/>
      <use x="967.652344" xlink:href="#DejaVuSans-44"/>
      <use x="999.439453" xlink:href="#DejaVuSans-116"/>
      <use x="1038.648438" xlink:href="#DejaVuSans-97"/>
      <use x="1099.927734" xlink:href="#DejaVuSans-114"/>
      <use x="1139.291016" xlink:href="#DejaVuSans-103"/>
      <use x="1202.767578" xlink:href="#DejaVuSans-101"/>
      <use x="1264.291016" xlink:href="#DejaVuSans-116"/>
      <use x="1303.5" xlink:href="#DejaVuSans-32"/>
      <use x="1335.287109" xlink:href="#DejaVuSans-112"/>
      <use x="1398.763672" xlink:href="#DejaVuSans-97"/>
      <use x="1460.042969" xlink:href="#DejaVuSans-105"/>
      <use x="1487.826172" xlink:href="#DejaVuSans-114"/>
      <use x="1528.939453" xlink:href="#DejaVuSans-115"/>
     </g>
    </g>
   </g>
   <g id="line2d_33">
    <defs>
     <path d="M 0 1.5 
C 0.397805 1.5 0.77937 1.341951 1.06066 1.06066 
C 1.341951 0.77937 1.5 0.397805 1.5 0 
C 1.5 -0.397805 1.341951 -0.77937 1.06066 -1.06066 
C 0.77937 -1.341951 0.397805 -1.5 0 -1.5 
C -0.397805 -1.5 -0.77937 -1.341951 -1.06066 -1.06066 
C -1.341951 -0.77937 -1.5 -0.397805 -1.5 0 
C -1.5 0.397805 -1.341951 0.77937 -1.06066 1.06066 
C -0.77937 1.341951 -0.397805 1.5 0 1.5 
z
" id="m79f1654d7f" style="stroke:#f5deb3;"/>
    </defs>
    <g>
     <use style="fill:#f5deb3;stroke:#f5deb3;" x="172.561226" xlink:href="#m79f1654d7f" y="30.334099"/>
     <use style="fill:#f5deb3;stroke:#f5deb3;" x="172.561226" xlink:href="#m79f1654d7f" y="30.334099"/>
    </g>
   </g>
   <g id="line2d_34">
    <defs>
     <path d="M 0 1.5 
C 0.397805 1.5 0.77937 1.341951 1.06066 1.06066 
C 1.341951 0.77937 1.5 0.397805 1.5 0 
C 1.5 -0.397805 1.341951 -0.77937 1.06066 -1.06066 
C 0.77937 -1.341951 0.397805 -1.5 0 -1.5 
C -0.397805 -1.5 -0.77937 -1.341951 -1.06066 -1.06066 
C -1.341951 -0.77937 -1.5 -0.397805 -1.5 0 
C -1.5 0.397805 -1.341951 0.77937 -1.06066 1.06066 
C -0.77937 1.341951 -0.397805 1.5 0 1.5 
z
" id="m38013f7c7d" style="stroke:#000080;"/>
    </defs>
    <g>
     <use style="fill:#000080;stroke:#000080;" x="295.082927" xlink:href="#m38013f7c7d" y="230.47481"/>
     <use style="fill:#000080;stroke:#000080;" x="295.082927" xlink:href="#m38013f7c7d" y="230.47481"/>
    </g>
   </g>
   <g id="line2d_35">
    <path d="M 152.826082 298.944 
L 152.826082 298.417314 
L 153.337534 298.417314 
L 153.337534 297.890628 
L 153.746717 297.890628 
L 153.746717 297.363942 
L 154.470014 297.363942 
L 154.470014 296.837256 
L 154.71458 296.837256 
L 154.804174 295.783884 
L 154.972161 295.783884 
L 154.972161 295.257197 
L 155.086518 295.257197 
L 155.19042 294.203825 
L 155.264719 294.203825 
L 155.264719 293.677139 
L 155.460254 293.677139 
L 155.460254 293.150453 
L 155.70713 293.150453 
L 155.710272 292.097081 
L 156.040206 292.097081 
L 156.040206 291.570395 
L 156.297301 291.570395 
L 156.297301 291.043709 
L 156.812195 291.043709 
L 156.823991 289.990337 
L 157.171299 289.990337 
L 157.171299 289.463651 
L 157.329512 289.463651 
L 157.352406 288.410278 
L 157.681031 288.410278 
L 157.681031 287.883592 
L 157.806866 287.883592 
L 157.904114 286.83022 
L 158.099738 286.83022 
L 158.099738 286.303534 
L 158.360802 286.303534 
L 158.387773 285.250162 
L 158.570076 285.250162 
L 158.570076 284.723476 
L 158.732007 284.723476 
L 158.732007 284.19679 
L 158.98905 284.19679 
L 159.043641 283.143418 
L 159.116165 283.143418 
L 159.116165 282.616732 
L 159.324282 282.616732 
L 159.393106 281.563359 
L 159.670728 281.563359 
L 159.768105 280.509987 
L 159.840163 280.509987 
L 159.869893 279.456615 
L 160.582889 279.456615 
L 160.687132 277.876557 
L 160.710736 277.876557 
L 160.710736 277.349871 
L 161.141761 277.349871 
L 161.141761 276.823185 
L 161.286143 276.823185 
L 161.374928 275.769812 
L 161.517401 275.769812 
L 161.517401 275.243126 
L 161.652016 275.243126 
L 161.652016 274.71644 
L 162.307779 274.71644 
L 162.307779 274.189754 
L 162.814777 274.189754 
L 162.814777 273.663068 
L 163.835954 273.663068 
L 163.910725 272.609696 
L 165.744799 272.609696 
L 165.744799 272.08301 
L 166.25855 272.08301 
L 166.25855 271.556324 
L 166.883886 271.556324 
L 166.883886 271.029638 
L 173.015569 271.029638 
L 173.015569 270.502952 
L 174.712515 270.502952 
L 174.712515 269.976266 
L 182.129203 269.976266 
L 182.129203 269.449579 
L 182.51855 269.449579 
L 182.51855 268.922893 
L 183.882348 268.922893 
L 183.882348 268.396207 
L 184.832374 268.396207 
L 184.832374 267.869521 
L 186.373634 267.869521 
L 186.373634 267.342835 
L 204.58686 267.342835 
L 204.58686 266.816149 
L 218.679537 266.816149 
L 218.778716 259.96923 
L 218.797961 259.96923 
L 218.87557 255.229055 
L 218.922875 255.229055 
L 218.976315 253.122311 
L 219.061531 253.122311 
L 219.061531 252.595625 
L 230.537922 252.595625 
L 230.629082 246.275392 
L 230.662055 246.275392 
L 230.762981 242.588589 
L 237.59274 242.588589 
L 237.599602 241.008531 
L 242.581855 241.008531 
L 242.625803 239.955159 
L 246.417436 239.955159 
L 246.471882 238.375101 
L 249.586955 238.375101 
L 249.586955 237.848415 
L 252.237409 237.848415 
L 252.283115 236.268356 
L 254.55876 236.268356 
L 254.582222 234.688298 
L 258.454419 234.688298 
L 258.454419 234.161612 
L 260.122579 234.161612 
L 260.122579 233.634926 
L 264.292502 233.634926 
L 264.292502 233.10824 
L 266.630976 233.10824 
L 266.630976 232.581554 
L 272.942366 232.581554 
L 272.942366 231.528182 
L 278.137584 231.528182 
L 278.137584 231.001496 
L 295.082927 231.001496 
L 295.082927 230.47481 
L 338.688 230.47481 
L 338.688 230.47481 
" style="fill:none;stroke:#000080;stroke-linecap:square;stroke-width:1.5;"/>
   </g>
   <g id="line2d_36">
    <defs>
     <path d="M 0 6 
C 1.591219 6 3.117479 5.367802 4.242641 4.242641 
C 5.367802 3.117479 6 1.591219 6 0 
C 6 -1.591219 5.367802 -3.117479 4.242641 -4.242641 
C 3.117479 -5.367802 1.591219 -6 0 -6 
C -1.591219 -6 -3.117479 -5.367802 -4.242641 -4.242641 
C -5.367802 -3.117479 -6 -1.591219 -6 0 
C -6 1.591219 -5.367802 3.117479 -4.242641 4.242641 
C -3.117479 5.367802 -1.591219 6 0 6 
z
" id="m395814cc7d" style="stroke:#000080;stroke-width:1.5;"/>
    </defs>
    <g>
     <use style="fill-opacity:0;stroke:#000080;stroke-width:1.5;" x="219.061531" xlink:href="#m395814cc7d" y="253.122311"/>
     <use style="fill-opacity:0;stroke:#000080;stroke-width:1.5;" x="295.082927" xlink:href="#m395814cc7d" y="230.47481"/>
     <use style="fill-opacity:0;stroke:#000080;stroke-width:1.5;" x="295.082927" xlink:href="#m395814cc7d" y="230.47481"/>
     <use style="fill-opacity:0;stroke:#000080;stroke-width:1.5;" x="338.688" xlink:href="#m395814cc7d" y="230.47481"/>
    </g>
   </g>
   <g id="line2d_37">
    <path style="fill:none;stroke:#000080;stroke-linecap:square;stroke-width:1.5;"/>
    <g/>
   </g>
   <g id="line2d_38">
    <path clip-path="url(#p1856f00bde)" d="M 218.221714 266.816149 
" style="fill:none;stroke:#000080;stroke-linecap:square;stroke-width:1.5;"/>
    <defs>
     <path d="M -12 12 
L 12 -12 
M -12 -12 
L 12 12 
" id="m99a3e7f0ce" style="stroke:#000080;"/>
    </defs>
    <g clip-path="url(#p1856f00bde)">
     <use style="fill:#000080;stroke:#000080;" x="218.221714" xlink:href="#m99a3e7f0ce" y="266.816149"/>
    </g>
   </g>
   <g id="line2d_39">
    <defs>
     <path d="M 0 1.5 
C 0.397805 1.5 0.77937 1.341951 1.06066 1.06066 
C 1.341951 0.77937 1.5 0.397805 1.5 0 
C 1.5 -0.397805 1.341951 -0.77937 1.06066 -1.06066 
C 0.77937 -1.341951 0.397805 -1.5 0 -1.5 
C -0.397805 -1.5 -0.77937 -1.341951 -1.06066 -1.06066 
C -1.341951 -0.77937 -1.5 -0.397805 -1.5 0 
C -1.5 0.397805 -1.341951 0.77937 -1.06066 1.06066 
C -0.77937 1.341951 -0.397805 1.5 0 1.5 
z
" id="m1c3ab52b42" style="stroke:#ff00ff;"/>
    </defs>
    <g>
     <use style="fill:#ff00ff;stroke:#ff00ff;" x="280.271391" xlink:href="#m1c3ab52b42" y="225.207949"/>
     <use style="fill:#ff00ff;stroke:#ff00ff;" x="280.271391" xlink:href="#m1c3ab52b42" y="225.207949"/>
    </g>
   </g>
   <g id="line2d_40">
    <path d="M 167.195661 298.944 
L 167.195661 298.417314 
L 168.351837 298.417314 
L 168.351837 297.890628 
L 169.450401 297.890628 
L 169.450401 297.363942 
L 169.633787 297.363942 
L 169.677571 296.31057 
L 170.731252 296.31057 
L 170.777667 295.257197 
L 170.860903 295.257197 
L 170.860903 294.730511 
L 171.007905 294.730511 
L 171.030109 293.677139 
L 171.129034 293.677139 
L 171.129034 293.150453 
L 171.246749 293.150453 
L 171.339327 292.097081 
L 171.380315 292.097081 
L 171.380315 291.570395 
L 171.506517 291.570395 
L 171.506517 291.043709 
L 171.824942 291.043709 
L 171.856094 289.463651 
L 171.977674 289.463651 
L 172.067691 287.356906 
L 172.206123 287.356906 
L 172.229292 286.303534 
L 172.764487 286.303534 
L 172.852895 285.250162 
L 173.037687 285.250162 
L 173.118935 284.19679 
L 173.23205 284.19679 
L 173.23205 283.670104 
L 173.347865 283.670104 
L 173.390101 282.616732 
L 173.467457 282.616732 
L 173.559157 281.563359 
L 173.703089 281.563359 
L 173.703089 281.036673 
L 173.863605 281.036673 
L 173.863605 280.509987 
L 174.099453 280.509987 
L 174.099453 279.983301 
L 174.256378 279.983301 
L 174.256378 279.456615 
L 174.45486 279.456615 
L 174.45486 278.929929 
L 174.795808 278.929929 
L 174.805272 277.876557 
L 175.120928 277.876557 
L 175.120928 277.349871 
L 175.274081 277.349871 
L 175.36696 276.296499 
L 175.389341 276.296499 
L 175.418798 275.243126 
L 175.81019 275.243126 
L 175.901251 274.189754 
L 176.022259 274.189754 
L 176.124898 273.136382 
L 176.318745 273.136382 
L 176.389926 272.08301 
L 176.457949 272.08301 
L 176.457949 271.556324 
L 176.611223 271.556324 
L 176.611223 271.029638 
L 176.781004 271.029638 
L 176.781004 270.502952 
L 176.983512 270.502952 
L 176.983512 269.976266 
L 178.503711 269.976266 
L 178.503711 269.449579 
L 178.711656 269.449579 
L 178.711656 268.922893 
L 179.187431 268.922893 
L 179.187431 268.396207 
L 179.924699 268.396207 
L 179.924699 267.869521 
L 181.179593 267.869521 
L 181.179593 267.342835 
L 186.094145 267.342835 
L 186.094145 266.816149 
L 187.312879 266.816149 
L 187.312879 266.289463 
L 219.265171 266.289463 
L 219.349399 264.709405 
L 219.400247 264.709405 
L 219.444851 263.656033 
L 219.529351 263.656033 
L 219.635729 260.495916 
L 219.690399 260.495916 
L 219.697772 259.442544 
L 219.812526 259.442544 
L 219.823904 257.862486 
L 219.968468 257.862486 
L 219.988809 256.282427 
L 230.889703 256.282427 
L 230.99754 253.648997 
L 231.081205 253.648997 
L 231.123241 250.488881 
L 231.20494 250.488881 
L 231.20494 249.962195 
L 237.782482 249.962195 
L 237.869124 246.802078 
L 237.918655 246.802078 
L 237.920909 245.22202 
L 242.699875 245.22202 
L 242.802688 242.588589 
L 246.604346 242.588589 
L 246.61527 241.008531 
L 249.670748 241.008531 
L 249.722243 238.901787 
L 249.807884 238.901787 
L 249.807884 238.375101 
L 252.356297 238.375101 
L 252.389565 237.321729 
L 254.662001 237.321729 
L 254.683341 235.214984 
L 256.699717 235.214984 
L 256.745153 232.054868 
L 258.534198 232.054868 
L 258.562131 230.47481 
L 261.669493 230.47481 
L 261.669493 229.948123 
L 264.362148 229.948123 
L 264.362148 229.421437 
L 266.669175 229.421437 
L 266.676236 228.368065 
L 271.394198 228.368065 
L 271.394198 227.841379 
L 272.195141 227.841379 
L 272.195141 227.314693 
L 276.378158 227.314693 
L 276.381395 226.261321 
L 277.590929 226.261321 
L 277.590929 225.734635 
L 280.271391 225.734635 
L 280.271391 225.207949 
L 338.688 225.207949 
L 338.688 225.207949 
" style="fill:none;stroke:#ff00ff;stroke-linecap:square;stroke-width:1.5;"/>
   </g>
   <g id="line2d_41">
    <defs>
     <path d="M -0 8.485281 
L 5.091169 0 
L 0 -8.485281 
L -5.091169 -0 
z
" id="m3becfca4e7" style="stroke:#ff00ff;stroke-linejoin:miter;stroke-width:1.5;"/>
    </defs>
    <g>
     <use style="fill-opacity:0;stroke:#ff00ff;stroke-linejoin:miter;stroke-width:1.5;" x="219.697772" xlink:href="#m3becfca4e7" y="259.96923"/>
     <use style="fill-opacity:0;stroke:#ff00ff;stroke-linejoin:miter;stroke-width:1.5;" x="280.271391" xlink:href="#m3becfca4e7" y="225.734635"/>
     <use style="fill-opacity:0;stroke:#ff00ff;stroke-linejoin:miter;stroke-width:1.5;" x="280.271391" xlink:href="#m3becfca4e7" y="225.207949"/>
     <use style="fill-opacity:0;stroke:#ff00ff;stroke-linejoin:miter;stroke-width:1.5;" x="338.688" xlink:href="#m3becfca4e7" y="225.207949"/>
    </g>
   </g>
   <g id="line2d_42">
    <path style="fill:none;stroke:#ff00ff;stroke-linecap:square;stroke-width:1.5;"/>
    <g/>
   </g>
   <g id="line2d_43">
    <path clip-path="url(#p1856f00bde)" d="M 218.221714 266.289463 
" style="fill:none;stroke:#ff00ff;stroke-linecap:square;stroke-width:1.5;"/>
    <defs>
     <path d="M -12 12 
L 12 -12 
M -12 -12 
L 12 12 
" id="m99abc9cd07" style="stroke:#ff00ff;"/>
    </defs>
    <g clip-path="url(#p1856f00bde)">
     <use style="fill:#ff00ff;stroke:#ff00ff;" x="218.221714" xlink:href="#m99abc9cd07" y="266.289463"/>
    </g>
   </g>
   <g id="line2d_44">
    <defs>
     <path d="M 0 1.5 
C 0.397805 1.5 0.77937 1.341951 1.06066 1.06066 
C 1.341951 0.77937 1.5 0.397805 1.5 0 
C 1.5 -0.397805 1.341951 -0.77937 1.06066 -1.06066 
C 0.77937 -1.341951 0.397805 -1.5 0 -1.5 
C -0.397805 -1.5 -0.77937 -1.341951 -1.06066 -1.06066 
C -1.341951 -0.77937 -1.5 -0.397805 -1.5 0 
C -1.5 0.397805 -1.341951 0.77937 -1.06066 1.06066 
C -0.77937 1.341951 -0.397805 1.5 0 1.5 
z
" id="m760ca3f941" style="stroke:#ff7500;"/>
    </defs>
    <g>
     <use style="fill:#ff7500;stroke:#ff7500;" x="289.947283" xlink:href="#m760ca3f941" y="198.873645"/>
     <use style="fill:#ff7500;stroke:#ff7500;" x="289.947283" xlink:href="#m760ca3f941" y="198.873645"/>
    </g>
   </g>
   <g id="line2d_45">
    <path d="M 171.503976 298.944 
L 171.503976 298.417314 
L 172.045538 298.417314 
L 172.045538 297.890628 
L 172.610178 297.890628 
L 172.610178 297.363942 
L 172.927984 297.363942 
L 172.998087 296.31057 
L 173.161728 296.31057 
L 173.161728 295.783884 
L 173.403777 295.783884 
L 173.403777 295.257197 
L 173.547862 295.257197 
L 173.602011 293.677139 
L 174.128984 293.677139 
L 174.128984 293.150453 
L 174.401148 293.150453 
L 174.507338 291.570395 
L 174.657472 291.570395 
L 174.713572 290.517023 
L 174.915306 290.517023 
L 174.915306 289.990337 
L 175.083722 289.990337 
L 175.097167 288.936964 
L 175.283289 288.936964 
L 175.357796 287.883592 
L 175.40052 287.883592 
L 175.445166 286.83022 
L 175.518986 286.83022 
L 175.518986 286.303534 
L 175.643668 286.303534 
L 175.643668 285.776848 
L 175.775421 285.776848 
L 175.793311 284.19679 
L 175.888413 284.19679 
L 175.888413 283.670104 
L 176.077075 283.670104 
L 176.183279 282.616732 
L 176.311032 282.616732 
L 176.386086 281.036673 
L 176.423492 281.036673 
L 176.423492 280.509987 
L 176.542844 280.509987 
L 176.542844 279.983301 
L 176.717059 279.983301 
L 176.790388 278.403243 
L 177.003912 278.403243 
L 177.074202 277.349871 
L 177.115688 277.349871 
L 177.115688 276.823185 
L 177.25418 276.823185 
L 177.273353 275.769812 
L 177.393393 275.769812 
L 177.393393 275.243126 
L 177.636384 275.243126 
L 177.706845 274.189754 
L 177.89894 274.189754 
L 177.928847 273.136382 
L 178.119395 273.136382 
L 178.137641 271.556324 
L 178.243265 271.556324 
L 178.32765 270.502952 
L 178.506262 270.502952 
L 178.506262 269.976266 
L 178.628269 269.976266 
L 178.628269 269.449579 
L 178.905521 269.449579 
L 179.009913 267.869521 
L 179.396316 267.869521 
L 179.410853 266.816149 
L 179.644995 266.816149 
L 179.669668 265.762777 
L 180.263141 265.762777 
L 180.324533 264.709405 
L 180.560408 264.709405 
L 180.560408 264.182719 
L 181.080845 264.182719 
L 181.080845 263.656033 
L 181.392009 263.656033 
L 181.392009 263.129347 
L 182.311981 263.129347 
L 182.311981 262.60266 
L 185.095984 262.60266 
L 185.095984 262.075974 
L 185.210976 262.075974 
L 185.210976 261.549288 
L 185.640934 261.549288 
L 185.640934 261.022602 
L 186.297655 261.022602 
L 186.297655 260.495916 
L 219.693044 260.495916 
L 219.795962 256.282427 
L 219.81157 256.282427 
L 219.907778 252.068939 
L 219.96184 252.068939 
L 220.033428 248.382136 
L 220.088748 248.382136 
L 220.09979 245.748706 
L 220.213804 245.748706 
L 220.231375 244.695334 
L 220.609403 244.695334 
L 220.668689 243.641962 
L 231.05804 243.641962 
L 231.123616 241.008531 
L 231.226257 241.008531 
L 231.316573 235.214984 
L 231.352051 235.214984 
L 231.352051 234.688298 
L 231.544379 234.688298 
L 231.544379 233.634926 
L 237.891212 233.634926 
L 237.988548 230.47481 
L 238.025533 230.47481 
L 238.106937 228.894751 
L 242.82961 228.894751 
L 242.908392 227.314693 
L 246.6535 227.314693 
L 246.710041 223.627891 
L 249.760701 223.627891 
L 249.834389 220.467774 
L 252.386062 220.467774 
L 252.458655 216.254285 
L 252.518762 216.254285 
L 252.518762 215.727599 
L 254.678868 215.727599 
L 254.678868 215.200913 
L 256.758141 215.200913 
L 256.784366 213.620855 
L 258.551075 213.620855 
L 258.597468 212.040797 
L 260.199157 212.040797 
L 260.231856 210.987425 
L 263.14832 210.987425 
L 263.14832 210.460738 
L 264.426802 210.460738 
L 264.426802 209.934052 
L 265.579537 209.934052 
L 265.617925 208.353994 
L 266.702752 208.353994 
L 266.702752 207.827308 
L 267.760858 207.827308 
L 267.760858 207.300622 
L 269.682361 207.300622 
L 269.682361 206.773936 
L 271.437424 206.773936 
L 271.437424 206.24725 
L 272.221246 206.24725 
L 272.227765 205.193878 
L 272.998615 205.193878 
L 272.998615 204.140506 
L 273.733215 204.140506 
L 273.733215 203.613819 
L 275.122308 203.613819 
L 275.138717 202.560447 
L 280.777189 202.560447 
L 280.777189 202.033761 
L 281.246906 202.033761 
L 281.246906 201.507075 
L 283.860281 201.507075 
L 283.860281 200.980389 
L 284.654441 200.980389 
L 284.654441 200.453703 
L 285.775811 200.453703 
L 285.775811 199.927017 
L 289.374353 199.927017 
L 289.374353 199.400331 
L 289.947283 199.400331 
L 289.947283 198.873645 
L 338.688 198.873645 
L 338.688 198.873645 
" style="fill:none;stroke:#ff7500;stroke-linecap:square;stroke-width:1.5;"/>
   </g>
   <g id="line2d_46">
    <defs>
     <path d="M 0 -6 
L -1.347084 -1.854102 
L -5.706339 -1.854102 
L -2.179628 0.708204 
L -3.526712 4.854102 
L -0 2.291796 
L 3.526712 4.854102 
L 2.179628 0.708204 
L 5.706339 -1.854102 
L 1.347084 -1.854102 
z
" id="maf146f691f" style="stroke:#ff7500;stroke-linejoin:bevel;stroke-width:1.5;"/>
    </defs>
    <g>
     <use style="fill-opacity:0;stroke:#ff7500;stroke-linejoin:bevel;stroke-width:1.5;" x="254.678868" xlink:href="#maf146f691f" y="215.200913"/>
     <use style="fill-opacity:0;stroke:#ff7500;stroke-linejoin:bevel;stroke-width:1.5;" x="289.947283" xlink:href="#maf146f691f" y="198.873645"/>
     <use style="fill-opacity:0;stroke:#ff7500;stroke-linejoin:bevel;stroke-width:1.5;" x="289.947283" xlink:href="#maf146f691f" y="198.873645"/>
     <use style="fill-opacity:0;stroke:#ff7500;stroke-linejoin:bevel;stroke-width:1.5;" x="338.688" xlink:href="#maf146f691f" y="198.873645"/>
    </g>
   </g>
   <g id="line2d_47">
    <path style="fill:none;stroke:#ff7500;stroke-linecap:square;stroke-width:1.5;"/>
    <g/>
   </g>
   <g id="line2d_48">
    <path clip-path="url(#p1856f00bde)" d="M 218.221714 260.495916 
" style="fill:none;stroke:#ff7500;stroke-linecap:square;stroke-width:1.5;"/>
    <defs>
     <path d="M -12 12 
L 12 -12 
M -12 -12 
L 12 12 
" id="mc32586db6c" style="stroke:#ff7500;"/>
    </defs>
    <g clip-path="url(#p1856f00bde)">
     <use style="fill:#ff7500;stroke:#ff7500;" x="218.221714" xlink:href="#mc32586db6c" y="260.495916"/>
    </g>
   </g>
   <g id="line2d_49">
    <defs>
     <path d="M 0 1.5 
C 0.397805 1.5 0.77937 1.341951 1.06066 1.06066 
C 1.341951 0.77937 1.5 0.397805 1.5 0 
C 1.5 -0.397805 1.341951 -0.77937 1.06066 -1.06066 
C 0.77937 -1.341951 0.397805 -1.5 0 -1.5 
C -0.397805 -1.5 -0.77937 -1.341951 -1.06066 -1.06066 
C -1.341951 -0.77937 -1.5 -0.397805 -1.5 0 
C -1.5 0.397805 -1.341951 0.77937 -1.06066 1.06066 
C -0.77937 1.341951 -0.397805 1.5 0 1.5 
z
" id="m9aa5f73f09" style="stroke:#6495ed;"/>
    </defs>
    <g>
     <use style="fill:#6495ed;stroke:#6495ed;" x="287.857155" xlink:href="#m9aa5f73f09" y="198.873645"/>
     <use style="fill:#6495ed;stroke:#6495ed;" x="287.857155" xlink:href="#m9aa5f73f09" y="198.873645"/>
    </g>
   </g>
   <g id="line2d_50">
    <path d="M 180.95791 298.944 
L 180.95791 298.417314 
L 181.958446 298.417314 
L 181.958446 297.890628 
L 182.175422 297.890628 
L 182.175422 297.363942 
L 182.438659 297.363942 
L 182.450191 296.31057 
L 182.585969 296.31057 
L 182.585969 295.783884 
L 182.772702 295.783884 
L 182.861019 294.730511 
L 182.938344 294.730511 
L 182.938344 294.203825 
L 183.717908 294.203825 
L 183.819767 292.097081 
L 183.85484 292.097081 
L 183.890467 291.043709 
L 184.074314 291.043709 
L 184.183332 289.463651 
L 184.18947 289.463651 
L 184.280684 288.410278 
L 184.375068 288.410278 
L 184.375068 287.883592 
L 184.629476 287.883592 
L 184.735682 286.303534 
L 184.744603 286.303534 
L 184.744603 285.776848 
L 184.883765 285.776848 
L 184.883765 285.250162 
L 185.088407 285.250162 
L 185.13905 284.19679 
L 185.35739 284.19679 
L 185.35739 283.670104 
L 185.498599 283.670104 
L 185.513397 282.616732 
L 185.613804 282.616732 
L 185.682113 281.036673 
L 185.741173 281.036673 
L 185.82464 279.983301 
L 185.982634 279.983301 
L 186.032957 278.403243 
L 186.167178 278.403243 
L 186.22899 277.349871 
L 186.415822 277.349871 
L 186.524605 275.769812 
L 186.541776 275.769812 
L 186.580884 274.71644 
L 186.74705 274.71644 
L 186.79469 273.663068 
L 186.886952 273.663068 
L 186.98814 272.08301 
L 187.256857 272.08301 
L 187.3462 271.029638 
L 187.3723 271.029638 
L 187.3723 270.502952 
L 187.759687 270.502952 
L 187.808135 269.449579 
L 187.927429 269.449579 
L 187.95762 268.396207 
L 188.2275 268.396207 
L 188.2275 267.869521 
L 188.387446 267.869521 
L 188.478874 266.816149 
L 188.533981 266.816149 
L 188.533981 266.289463 
L 188.771098 266.289463 
L 188.868524 263.129347 
L 189.182946 263.129347 
L 189.182946 262.60266 
L 189.328917 262.60266 
L 189.328917 262.075974 
L 189.547865 262.075974 
L 189.65497 261.022602 
L 189.7275 261.022602 
L 189.7275 260.495916 
L 189.897341 260.495916 
L 189.914588 259.442544 
L 190.172576 259.442544 
L 190.172576 258.915858 
L 190.986445 258.915858 
L 190.986445 258.389172 
L 191.388301 258.389172 
L 191.432925 257.3358 
L 191.590226 257.3358 
L 191.698301 256.282427 
L 191.734178 256.282427 
L 191.734178 255.755741 
L 192.210263 255.755741 
L 192.210263 255.229055 
L 193.727195 255.229055 
L 193.727195 254.702369 
L 220.682703 254.702369 
L 220.772955 252.595625 
L 220.877649 252.595625 
L 220.978815 250.488881 
L 221.132978 250.488881 
L 221.243094 247.328764 
L 221.266396 247.328764 
L 221.266396 246.802078 
L 221.404323 246.802078 
L 221.501115 245.748706 
L 221.542753 245.748706 
L 221.542753 245.22202 
L 221.66829 245.22202 
L 221.66829 244.695334 
L 231.62385 244.695334 
L 231.705013 243.115275 
L 231.826893 243.115275 
L 231.898405 240.481845 
L 231.952729 240.481845 
L 232.049158 238.901787 
L 232.117997 238.901787 
L 232.121534 237.848415 
L 232.328647 237.848415 
L 232.328647 237.321729 
L 238.273254 237.321729 
L 238.324323 236.268356 
L 238.38965 236.268356 
L 238.493089 232.054868 
L 238.543737 232.054868 
L 238.609278 229.948123 
L 243.186287 229.948123 
L 243.277142 226.261321 
L 243.309343 226.261321 
L 243.311618 225.207949 
L 246.846645 225.207949 
L 246.923362 222.574518 
L 246.963323 222.574518 
L 247.022248 220.99446 
L 247.091371 220.99446 
L 247.091371 220.467774 
L 249.944163 220.467774 
L 250.033762 218.887716 
L 250.059912 218.887716 
L 250.059912 218.36103 
L 252.612335 218.36103 
L 252.693056 216.254285 
L 252.733741 216.254285 
L 252.733741 215.727599 
L 254.884754 215.727599 
L 254.991373 213.094169 
L 258.754113 213.094169 
L 258.782864 212.040797 
L 260.339113 212.040797 
L 260.408509 210.460738 
L 263.19925 210.460738 
L 263.243285 208.88068 
L 264.535737 208.88068 
L 264.535737 208.353994 
L 265.66854 208.353994 
L 265.687053 207.300622 
L 266.810228 207.300622 
L 266.810228 206.773936 
L 267.819856 206.773936 
L 267.841873 205.720564 
L 268.854284 205.720564 
L 268.854284 205.193878 
L 271.479317 205.193878 
L 271.479317 204.667192 
L 273.042326 204.667192 
L 273.042326 204.140506 
L 273.802751 204.140506 
L 273.802751 203.613819 
L 277.650636 203.613819 
L 277.672443 202.560447 
L 278.765305 202.560447 
L 278.774044 201.507075 
L 279.3024 201.507075 
L 279.3024 200.980389 
L 280.341315 200.980389 
L 280.341315 200.453703 
L 285.065216 200.453703 
L 285.065216 199.927017 
L 287.525646 199.927017 
L 287.525646 199.400331 
L 287.857155 199.400331 
L 287.857155 198.873645 
L 338.688 198.873645 
L 338.688 198.873645 
" style="fill:none;stroke:#6495ed;stroke-linecap:square;stroke-width:1.5;"/>
   </g>
   <g id="line2d_51">
    <defs>
     <path d="M -0 6 
L 6 -6 
L -6 -6 
z
" id="m0a3701f74a" style="stroke:#6495ed;stroke-linejoin:miter;stroke-width:1.5;"/>
    </defs>
    <g>
     <use style="fill-opacity:0;stroke:#6495ed;stroke-linejoin:miter;stroke-width:1.5;" x="193.727195" xlink:href="#m0a3701f74a" y="254.702369"/>
     <use style="fill-opacity:0;stroke:#6495ed;stroke-linejoin:miter;stroke-width:1.5;" x="254.991373" xlink:href="#m0a3701f74a" y="213.620855"/>
     <use style="fill-opacity:0;stroke:#6495ed;stroke-linejoin:miter;stroke-width:1.5;" x="287.857155" xlink:href="#m0a3701f74a" y="198.873645"/>
     <use style="fill-opacity:0;stroke:#6495ed;stroke-linejoin:miter;stroke-width:1.5;" x="338.688" xlink:href="#m0a3701f74a" y="198.873645"/>
    </g>
   </g>
   <g id="line2d_52">
    <path style="fill:none;stroke:#6495ed;stroke-linecap:square;stroke-width:1.5;"/>
    <g/>
   </g>
   <g id="line2d_53">
    <path clip-path="url(#p1856f00bde)" d="M 218.221714 254.702369 
" style="fill:none;stroke:#6495ed;stroke-linecap:square;stroke-width:1.5;"/>
    <defs>
     <path d="M -12 12 
L 12 -12 
M -12 -12 
L 12 12 
" id="m4d28fadf35" style="stroke:#6495ed;"/>
    </defs>
    <g clip-path="url(#p1856f00bde)">
     <use style="fill:#6495ed;stroke:#6495ed;" x="218.221714" xlink:href="#m4d28fadf35" y="254.702369"/>
    </g>
   </g>
   <g id="line2d_54">
    <defs>
     <path d="M 0 1.5 
C 0.397805 1.5 0.77937 1.341951 1.06066 1.06066 
C 1.341951 0.77937 1.5 0.397805 1.5 0 
C 1.5 -0.397805 1.341951 -0.77937 1.06066 -1.06066 
C 0.77937 -1.341951 0.397805 -1.5 0 -1.5 
C -0.397805 -1.5 -0.77937 -1.341951 -1.06066 -1.06066 
C -1.341951 -0.77937 -1.5 -0.397805 -1.5 0 
C -1.5 0.397805 -1.341951 0.77937 -1.06066 1.06066 
C -0.77937 1.341951 -0.397805 1.5 0 1.5 
z
" id="m8ba4b67a73" style="stroke:#ff0000;"/>
    </defs>
    <g>
     <use style="fill:#ff0000;stroke:#ff0000;" x="293.137177" xlink:href="#m8ba4b67a73" y="156.738758"/>
     <use style="fill:#ff0000;stroke:#ff0000;" x="293.137177" xlink:href="#m8ba4b67a73" y="156.738758"/>
    </g>
   </g>
   <g id="line2d_55">
    <path d="M 190.778625 298.944 
L 190.778625 298.417314 
L 190.960238 298.417314 
L 191.041641 296.837256 
L 191.114002 296.837256 
L 191.150688 295.783884 
L 191.611092 295.783884 
L 191.611092 295.257197 
L 191.975416 295.257197 
L 191.975416 294.730511 
L 192.232724 294.730511 
L 192.232724 294.203825 
L 192.369185 294.203825 
L 192.475989 292.623767 
L 192.492391 292.623767 
L 192.524009 291.570395 
L 192.634788 291.570395 
L 192.704234 290.517023 
L 192.932505 290.517023 
L 192.932505 289.990337 
L 193.249702 289.990337 
L 193.249702 289.463651 
L 193.382086 289.463651 
L 193.382086 288.936964 
L 193.598846 288.936964 
L 193.598846 288.410278 
L 193.744237 288.410278 
L 193.814359 286.83022 
L 193.91691 286.83022 
L 194.01886 284.723476 
L 194.034224 284.723476 
L 194.046784 283.670104 
L 194.155953 283.670104 
L 194.228931 282.616732 
L 194.325303 282.616732 
L 194.401678 281.036673 
L 194.470233 281.036673 
L 194.542587 278.929929 
L 194.626454 278.929929 
L 194.665545 277.349871 
L 194.978789 277.349871 
L 194.978789 276.823185 
L 195.17996 276.823185 
L 195.258873 275.243126 
L 195.332894 275.243126 
L 195.428205 273.663068 
L 195.453962 273.663068 
L 195.529725 272.609696 
L 195.62588 272.609696 
L 195.62588 272.08301 
L 195.759169 272.08301 
L 195.84841 271.029638 
L 196.024288 271.029638 
L 196.102579 269.449579 
L 196.518534 269.449579 
L 196.588915 267.869521 
L 196.802243 267.869521 
L 196.859919 266.816149 
L 197.113324 266.816149 
L 197.113324 266.289463 
L 197.272317 266.289463 
L 197.307356 264.182719 
L 197.445952 264.182719 
L 197.5024 263.129347 
L 197.60679 263.129347 
L 197.60679 262.60266 
L 197.762493 262.60266 
L 197.802469 261.022602 
L 197.929386 261.022602 
L 197.929386 260.495916 
L 198.092484 260.495916 
L 198.117632 258.915858 
L 198.21045 258.915858 
L 198.21045 258.389172 
L 198.530261 258.389172 
L 198.621986 256.809114 
L 198.869194 256.809114 
L 198.946786 255.755741 
L 199.034257 255.755741 
L 199.102248 254.702369 
L 199.475368 254.702369 
L 199.561505 253.648997 
L 199.589953 253.648997 
L 199.589953 253.122311 
L 199.732512 253.122311 
L 199.740565 252.068939 
L 199.871667 252.068939 
L 199.896123 251.015567 
L 200.072785 251.015567 
L 200.072785 250.488881 
L 200.471815 250.488881 
L 200.471815 249.962195 
L 201.075785 249.962195 
L 201.122569 248.908822 
L 201.31536 248.908822 
L 201.39289 247.85545 
L 201.759775 247.85545 
L 201.803421 246.802078 
L 202.066552 246.802078 
L 202.066552 246.275392 
L 202.55659 246.275392 
L 202.55659 245.748706 
L 202.998409 245.748706 
L 202.998409 245.22202 
L 203.387512 245.22202 
L 203.387512 244.695334 
L 204.425467 244.695334 
L 204.425467 244.168648 
L 205.046684 244.168648 
L 205.046684 243.641962 
L 205.622484 243.641962 
L 205.622484 243.115275 
L 222.135276 243.115275 
L 222.135276 242.588589 
L 222.303824 242.588589 
L 222.397617 241.535217 
L 222.613552 241.535217 
L 222.700438 239.955159 
L 222.751488 239.955159 
L 222.861498 237.848415 
L 222.885939 237.848415 
L 222.93818 236.268356 
L 223.029492 236.268356 
L 223.129543 235.214984 
L 223.209775 235.214984 
L 223.248577 233.10824 
L 223.342767 233.10824 
L 223.449896 231.001496 
L 223.708987 231.001496 
L 223.764154 229.948123 
L 223.829707 229.948123 
L 223.829707 229.421437 
L 223.953051 229.421437 
L 224.039525 226.261321 
L 224.179936 226.261321 
L 224.179936 225.207949 
L 224.632705 225.207949 
L 224.7417 223.627891 
L 224.937863 223.627891 
L 224.937863 223.101204 
L 232.604644 223.101204 
L 232.604644 222.574518 
L 232.933072 222.574518 
L 232.933072 222.047832 
L 233.074284 222.047832 
L 233.096445 219.941088 
L 233.268276 219.941088 
L 233.300185 218.887716 
L 233.542043 218.887716 
L 233.617583 217.307658 
L 233.685434 217.307658 
L 233.750911 214.674227 
L 238.92975 214.674227 
L 239.039217 213.620855 
L 239.137965 213.620855 
L 239.205451 212.567483 
L 239.286285 212.567483 
L 239.302927 210.460738 
L 239.43542 210.460738 
L 239.512419 207.827308 
L 239.74858 207.827308 
L 239.74858 207.300622 
L 243.645117 207.300622 
L 243.645117 206.773936 
L 243.784689 206.773936 
L 243.784689 206.24725 
L 243.906107 206.24725 
L 243.906107 205.720564 
L 244.203037 205.720564 
L 244.203037 205.193878 
L 247.364597 205.193878 
L 247.448084 203.613819 
L 247.718761 203.613819 
L 247.718761 202.560447 
L 247.855226 202.560447 
L 247.905433 199.927017 
L 250.433569 199.927017 
L 250.542326 197.820273 
L 250.738973 197.820273 
L 250.8258 195.713528 
L 252.999654 195.713528 
L 253.081217 194.660156 
L 253.189953 194.660156 
L 253.189953 194.13347 
L 255.256192 194.13347 
L 255.328218 192.026726 
L 255.428254 192.026726 
L 255.513268 190.446667 
L 257.311572 190.446667 
L 257.380056 187.813237 
L 257.42707 187.813237 
L 257.42707 187.286551 
L 259.044448 187.286551 
L 259.106591 184.653121 
L 260.656046 184.653121 
L 260.717593 182.01969 
L 262.101768 182.01969 
L 262.203394 180.966318 
L 262.226401 180.966318 
L 262.226401 180.439632 
L 263.456326 180.439632 
L 263.550378 178.332888 
L 263.592081 178.332888 
L 263.592081 177.806202 
L 265.895858 177.806202 
L 265.937836 176.752829 
L 266.984058 176.752829 
L 267.042826 175.172771 
L 268.017433 175.172771 
L 268.122039 174.119399 
L 268.992985 174.119399 
L 269.052943 173.066027 
L 269.93034 173.066027 
L 269.981832 170.432596 
L 273.216369 170.432596 
L 273.216369 169.90591 
L 273.952341 169.90591 
L 273.952341 169.379224 
L 274.630661 169.379224 
L 274.630661 168.852538 
L 275.311634 168.852538 
L 275.311634 168.325852 
L 276.568655 168.325852 
L 276.591216 167.27248 
L 277.205338 167.27248 
L 277.205338 166.745794 
L 277.764838 166.745794 
L 277.816149 165.165736 
L 278.356147 165.165736 
L 278.356147 164.112363 
L 278.882212 164.112363 
L 278.882212 163.585677 
L 279.417659 163.585677 
L 279.417659 163.058991 
L 280.417707 163.058991 
L 280.444409 162.005619 
L 280.903179 162.005619 
L 280.941811 160.425561 
L 281.376412 160.425561 
L 281.376412 159.898875 
L 283.968174 159.898875 
L 283.968174 159.372189 
L 285.139951 159.372189 
L 285.139951 158.845503 
L 285.515988 158.845503 
L 285.515988 158.318817 
L 286.252868 158.318817 
L 286.252868 157.79213 
L 286.955175 157.79213 
L 286.955175 157.265444 
L 293.137177 157.265444 
L 293.137177 156.738758 
L 338.688 156.738758 
L 338.688 156.738758 
" style="fill:none;stroke:#ff0000;stroke-linecap:square;stroke-width:1.5;"/>
   </g>
   <g id="line2d_56">
    <defs>
     <path d="M 0 -6 
L -5.196152 -3 
L -5.196152 3 
L -0 6 
L 5.196152 3 
L 5.196152 -3 
z
" id="m7a381f1c98" style="stroke:#ff0000;stroke-linejoin:miter;stroke-width:1.5;"/>
    </defs>
    <g>
     <use style="fill-opacity:0;stroke:#ff0000;stroke-linejoin:miter;stroke-width:1.5;" x="267.042826" xlink:href="#m7a381f1c98" y="175.172771"/>
     <use style="fill-opacity:0;stroke:#ff0000;stroke-linejoin:miter;stroke-width:1.5;" x="293.137177" xlink:href="#m7a381f1c98" y="156.738758"/>
     <use style="fill-opacity:0;stroke:#ff0000;stroke-linejoin:miter;stroke-width:1.5;" x="293.137177" xlink:href="#m7a381f1c98" y="156.738758"/>
     <use style="fill-opacity:0;stroke:#ff0000;stroke-linejoin:miter;stroke-width:1.5;" x="338.688" xlink:href="#m7a381f1c98" y="156.738758"/>
    </g>
   </g>
   <g id="line2d_57">
    <path style="fill:none;stroke:#ff0000;stroke-linecap:square;stroke-width:1.5;"/>
    <g/>
   </g>
   <g id="line2d_58">
    <path clip-path="url(#p1856f00bde)" d="M 218.221714 243.115275 
" style="fill:none;stroke:#ff0000;stroke-linecap:square;stroke-width:1.5;"/>
    <defs>
     <path d="M -12 12 
L 12 -12 
M -12 -12 
L 12 12 
" id="mb195cc5714" style="stroke:#ff0000;"/>
    </defs>
    <g clip-path="url(#p1856f00bde)">
     <use style="fill:#ff0000;stroke:#ff0000;" x="218.221714" xlink:href="#mb195cc5714" y="243.115275"/>
    </g>
   </g>
   <g id="line2d_59">
    <path clip-path="url(#p1856f00bde)" d="M 57.6 298.944 
L 57.6 298.944 
L 57.6 298.944 
L 57.6 298.944 
L 338.688 298.944 
" style="fill:none;stroke:#9acd32;stroke-linecap:square;stroke-width:1.5;"/>
   </g>
   <g id="line2d_60">
    <defs>
     <path d="M 0 -6 
L -6 6 
L 6 6 
z
" id="mf9bda279fb" style="stroke:#9acd32;stroke-linejoin:miter;stroke-width:1.5;"/>
    </defs>
    <g clip-path="url(#p1856f00bde)">
     <use style="fill-opacity:0;stroke:#9acd32;stroke-linejoin:miter;stroke-width:1.5;" x="57.6" xlink:href="#mf9bda279fb" y="298.944"/>
    </g>
   </g>
   <g id="line2d_61">
    <path clip-path="url(#p1856f00bde)" style="fill:none;stroke:#9acd32;stroke-linecap:square;stroke-width:1.5;"/>
    <g clip-path="url(#p1856f00bde)">
     <use style="fill-opacity:0;stroke:#9acd32;stroke-linejoin:miter;stroke-width:1.5;" x="-1" xlink:href="#mf9bda279fb" y="567.553901"/>
     <use style="fill-opacity:0;stroke:#9acd32;stroke-linejoin:miter;stroke-width:1.5;" x="338.688" xlink:href="#mf9bda279fb" y="567.553901"/>
    </g>
   </g>
   <g id="line2d_62">
    <path d="M 338.688 298.944 
L 369.60768 293.571802 
" style="fill:none;stroke:#9acd32;stroke-linecap:square;stroke-width:1.5;"/>
    <g>
     <use style="fill-opacity:0;stroke:#9acd32;stroke-linejoin:miter;stroke-width:1.5;" x="338.688" xlink:href="#mf9bda279fb" y="298.944"/>
     <use style="fill-opacity:0;stroke:#9acd32;stroke-linejoin:miter;stroke-width:1.5;" x="369.60768" xlink:href="#mf9bda279fb" y="293.571802"/>
    </g>
   </g>
   <g id="line2d_63">
    <path d="M 338.688 230.47481 
L 369.60768 250.594218 
" style="fill:none;stroke:#000080;stroke-linecap:square;stroke-width:1.5;"/>
    <g>
     <use style="fill-opacity:0;stroke:#000080;stroke-width:1.5;" x="338.688" xlink:href="#m395814cc7d" y="230.47481"/>
     <use style="fill-opacity:0;stroke:#000080;stroke-width:1.5;" x="369.60768" xlink:href="#m395814cc7d" y="250.594218"/>
    </g>
   </g>
   <g id="line2d_64">
    <path d="M 338.688 225.207949 
L 369.60768 207.616634 
" style="fill:none;stroke:#ff00ff;stroke-linecap:square;stroke-width:1.5;"/>
    <g>
     <use style="fill-opacity:0;stroke:#ff00ff;stroke-linejoin:miter;stroke-width:1.5;" x="338.688" xlink:href="#m3becfca4e7" y="225.207949"/>
     <use style="fill-opacity:0;stroke:#ff00ff;stroke-linejoin:miter;stroke-width:1.5;" x="369.60768" xlink:href="#m3becfca4e7" y="207.616634"/>
    </g>
   </g>
   <g id="line2d_65">
    <path d="M 338.688 198.873645 
L 369.60768 164.63905 
" style="fill:none;stroke:#ff7500;stroke-linecap:square;stroke-width:1.5;"/>
    <g>
     <use style="fill-opacity:0;stroke:#ff7500;stroke-linejoin:bevel;stroke-width:1.5;" x="338.688" xlink:href="#maf146f691f" y="198.873645"/>
     <use style="fill-opacity:0;stroke:#ff7500;stroke-linejoin:bevel;stroke-width:1.5;" x="369.60768" xlink:href="#maf146f691f" y="164.63905"/>
    </g>
   </g>
   <g id="line2d_66">
    <path d="M 338.688 198.873645 
L 369.60768 121.661465 
" style="fill:none;stroke:#6495ed;stroke-linecap:square;stroke-width:1.5;"/>
    <g>
     <use style="fill-opacity:0;stroke:#6495ed;stroke-linejoin:miter;stroke-width:1.5;" x="338.688" xlink:href="#m0a3701f74a" y="198.873645"/>
     <use style="fill-opacity:0;stroke:#6495ed;stroke-linejoin:miter;stroke-width:1.5;" x="369.60768" xlink:href="#m0a3701f74a" y="121.661465"/>
    </g>
   </g>
   <g id="line2d_67">
    <path d="M 338.688 156.738758 
L 369.60768 78.683881 
" style="fill:none;stroke:#ff0000;stroke-linecap:square;stroke-width:1.5;"/>
    <g>
     <use style="fill-opacity:0;stroke:#ff0000;stroke-linejoin:miter;stroke-width:1.5;" x="338.688" xlink:href="#m7a381f1c98" y="156.738758"/>
     <use style="fill-opacity:0;stroke:#ff0000;stroke-linejoin:miter;stroke-width:1.5;" x="369.60768" xlink:href="#m7a381f1c98" y="78.683881"/>
    </g>
   </g>
   <g id="line2d_68">
    <path d="M 338.688 298.944 
L 338.688 30.334099 
" style="fill:none;stroke:#000000;stroke-linecap:square;stroke-width:1.5;"/>
   </g>
   <g id="patch_3">
    <path d="M 57.6 298.944 
L 57.6 27.648 
" style="fill:none;stroke:#000000;stroke-linecap:square;stroke-linejoin:miter;stroke-width:0.8;"/>
   </g>
   <g id="patch_4">
    <path d="M 338.688 298.944 
L 338.688 27.648 
" style="fill:none;stroke:#000000;stroke-linecap:square;stroke-linejoin:miter;stroke-width:0.8;"/>
   </g>
   <g id="patch_5">
    <path d="M 57.6 298.944 
L 338.688 298.944 
" style="fill:none;stroke:#000000;stroke-linecap:square;stroke-linejoin:miter;stroke-width:0.8;"/>
   </g>
   <g id="patch_6">
    <path d="M 57.6 27.648 
L 338.688 27.648 
" style="fill:none;stroke:#000000;stroke-linecap:square;stroke-linejoin:miter;stroke-width:0.8;"/>
   </g>
   <g id="text_13">
    <!-- pop100xDI -->
    <g transform="translate(375.22944 298.262739)scale(0.17 -0.17)">
     <defs>
      <path d="M 54.890625 54.6875 
L 35.109375 28.078125 
L 55.90625 0 
L 45.3125 0 
L 29.390625 21.484375 
L 13.484375 0 
L 2.875 0 
L 24.125 28.609375 
L 4.6875 54.6875 
L 15.28125 54.6875 
L 29.78125 35.203125 
L 44.28125 54.6875 
z
" id="DejaVuSans-120"/>
      <path d="M 19.671875 64.796875 
L 19.671875 8.109375 
L 31.59375 8.109375 
Q 46.6875 8.109375 53.6875 14.9375 
Q 60.6875 21.78125 60.6875 36.53125 
Q 60.6875 51.171875 53.6875 57.984375 
Q 46.6875 64.796875 31.59375 64.796875 
z
M 9.8125 72.90625 
L 30.078125 72.90625 
Q 51.265625 72.90625 61.171875 64.09375 
Q 71.09375 55.28125 71.09375 36.53125 
Q 71.09375 17.671875 61.125 8.828125 
Q 51.171875 0 30.078125 0 
L 9.8125 0 
z
" id="DejaVuSans-68"/>
      <path d="M 9.8125 72.90625 
L 19.671875 72.90625 
L 19.671875 0 
L 9.8125 0 
z
" id="DejaVuSans-73"/>
     </defs>
     <use xlink:href="#DejaVuSans-112"/>
     <use x="63.476562" xlink:href="#DejaVuSans-111"/>
     <use x="124.658203" xlink:href="#DejaVuSans-112"/>
     <use x="188.134766" xlink:href="#DejaVuSans-49"/>
     <use x="251.757812" xlink:href="#DejaVuSans-48"/>
     <use x="315.380859" xlink:href="#DejaVuSans-48"/>
     <use x="379.003906" xlink:href="#DejaVuSans-120"/>
     <use x="438.183594" xlink:href="#DejaVuSans-68"/>
     <use x="515.185547" xlink:href="#DejaVuSans-73"/>
    </g>
   </g>
   <g id="text_14">
    <!-- pop10 -->
    <g transform="translate(375.22944 255.285155)scale(0.17 -0.17)">
     <use xlink:href="#DejaVuSans-112"/>
     <use x="63.476562" xlink:href="#DejaVuSans-111"/>
     <use x="124.658203" xlink:href="#DejaVuSans-112"/>
     <use x="188.134766" xlink:href="#DejaVuSans-49"/>
     <use x="251.757812" xlink:href="#DejaVuSans-48"/>
    </g>
   </g>
   <g id="text_15">
    <!-- pop40 -->
    <g transform="translate(375.22944 212.307571)scale(0.17 -0.17)">
     <use xlink:href="#DejaVuSans-112"/>
     <use x="63.476562" xlink:href="#DejaVuSans-111"/>
     <use x="124.658203" xlink:href="#DejaVuSans-112"/>
     <use x="188.134766" xlink:href="#DejaVuSans-52"/>
     <use x="251.757812" xlink:href="#DejaVuSans-48"/>
    </g>
   </g>
   <g id="text_16">
    <!-- pop50 -->
    <g transform="translate(375.22944 169.329987)scale(0.17 -0.17)">
     <defs>
      <path d="M 10.796875 72.90625 
L 49.515625 72.90625 
L 49.515625 64.59375 
L 19.828125 64.59375 
L 19.828125 46.734375 
Q 21.96875 47.46875 24.109375 47.828125 
Q 26.265625 48.1875 28.421875 48.1875 
Q 40.625 48.1875 47.75 41.5 
Q 54.890625 34.8125 54.890625 23.390625 
Q 54.890625 11.625 47.5625 5.09375 
Q 40.234375 -1.421875 26.90625 -1.421875 
Q 22.3125 -1.421875 17.546875 -0.640625 
Q 12.796875 0.140625 7.71875 1.703125 
L 7.71875 11.625 
Q 12.109375 9.234375 16.796875 8.0625 
Q 21.484375 6.890625 26.703125 6.890625 
Q 35.15625 6.890625 40.078125 11.328125 
Q 45.015625 15.765625 45.015625 23.390625 
Q 45.015625 31 40.078125 35.4375 
Q 35.15625 39.890625 26.703125 39.890625 
Q 22.75 39.890625 18.8125 39.015625 
Q 14.890625 38.140625 10.796875 36.28125 
z
" id="DejaVuSans-53"/>
     </defs>
     <use xlink:href="#DejaVuSans-112"/>
     <use x="63.476562" xlink:href="#DejaVuSans-111"/>
     <use x="124.658203" xlink:href="#DejaVuSans-112"/>
     <use x="188.134766" xlink:href="#DejaVuSans-53"/>
     <use x="251.757812" xlink:href="#DejaVuSans-48"/>
    </g>
   </g>
   <g id="text_17">
    <!-- pop100 -->
    <g transform="translate(375.22944 126.352403)scale(0.17 -0.17)">
     <use xlink:href="#DejaVuSans-112"/>
     <use x="63.476562" xlink:href="#DejaVuSans-111"/>
     <use x="124.658203" xlink:href="#DejaVuSans-112"/>
     <use x="188.134766" xlink:href="#DejaVuSans-49"/>
     <use x="251.757812" xlink:href="#DejaVuSans-48"/>
     <use x="315.380859" xlink:href="#DejaVuSans-48"/>
    </g>
   </g>
   <g id="text_18">
    <!-- pop200 -->
    <g transform="translate(375.22944 83.374819)scale(0.17 -0.17)">
     <use xlink:href="#DejaVuSans-112"/>
     <use x="63.476562" xlink:href="#DejaVuSans-111"/>
     <use x="124.658203" xlink:href="#DejaVuSans-112"/>
     <use x="188.134766" xlink:href="#DejaVuSans-50"/>
     <use x="251.757812" xlink:href="#DejaVuSans-48"/>
     <use x="315.380859" xlink:href="#DejaVuSans-48"/>
    </g>
   </g>
   <g id="text_19">
    <!-- best 2009 -->
    <g transform="translate(375.22944 40.397235)scale(0.17 -0.17)">
     <defs>
      <path d="M 48.6875 27.296875 
Q 48.6875 37.203125 44.609375 42.84375 
Q 40.53125 48.484375 33.40625 48.484375 
Q 26.265625 48.484375 22.1875 42.84375 
Q 18.109375 37.203125 18.109375 27.296875 
Q 18.109375 17.390625 22.1875 11.75 
Q 26.265625 6.109375 33.40625 6.109375 
Q 40.53125 6.109375 44.609375 11.75 
Q 48.6875 17.390625 48.6875 27.296875 
z
M 18.109375 46.390625 
Q 20.953125 51.265625 25.265625 53.625 
Q 29.59375 56 35.59375 56 
Q 45.5625 56 51.78125 48.09375 
Q 58.015625 40.1875 58.015625 27.296875 
Q 58.015625 14.40625 51.78125 6.484375 
Q 45.5625 -1.421875 35.59375 -1.421875 
Q 29.59375 -1.421875 25.265625 0.953125 
Q 20.953125 3.328125 18.109375 8.203125 
L 18.109375 0 
L 9.078125 0 
L 9.078125 75.984375 
L 18.109375 75.984375 
z
" id="DejaVuSans-98"/>
      <path d="M 10.984375 1.515625 
L 10.984375 10.5 
Q 14.703125 8.734375 18.5 7.8125 
Q 22.3125 6.890625 25.984375 6.890625 
Q 35.75 6.890625 40.890625 13.453125 
Q 46.046875 20.015625 46.78125 33.40625 
Q 43.953125 29.203125 39.59375 26.953125 
Q 35.25 24.703125 29.984375 24.703125 
Q 19.046875 24.703125 12.671875 31.3125 
Q 6.296875 37.9375 6.296875 49.421875 
Q 6.296875 60.640625 12.9375 67.421875 
Q 19.578125 74.21875 30.609375 74.21875 
Q 43.265625 74.21875 49.921875 64.515625 
Q 56.59375 54.828125 56.59375 36.375 
Q 56.59375 19.140625 48.40625 8.859375 
Q 40.234375 -1.421875 26.421875 -1.421875 
Q 22.703125 -1.421875 18.890625 -0.6875 
Q 15.09375 0.046875 10.984375 1.515625 
z
M 30.609375 32.421875 
Q 37.25 32.421875 41.125 36.953125 
Q 45.015625 41.5 45.015625 49.421875 
Q 45.015625 57.28125 41.125 61.84375 
Q 37.25 66.40625 30.609375 66.40625 
Q 23.96875 66.40625 20.09375 61.84375 
Q 16.21875 57.28125 16.21875 49.421875 
Q 16.21875 41.5 20.09375 36.953125 
Q 23.96875 32.421875 30.609375 32.421875 
z
" id="DejaVuSans-57"/>
     </defs>
     <use xlink:href="#DejaVuSans-98"/>
     <use x="63.476562" xlink:href="#DejaVuSans-101"/>
     <use x="125" xlink:href="#DejaVuSans-115"/>
     <use x="177.099609" xlink:href="#DejaVuSans-116"/>
     <use x="216.308594" xlink:href="#DejaVuSans-32"/>
     <use x="248.095703" xlink:href="#DejaVuSans-50"/>
     <use x="311.71875" xlink:href="#DejaVuSans-48"/>
     <use x="375.341797" xlink:href="#DejaVuSans-48"/>
     <use x="438.964844" xlink:href="#DejaVuSans-57"/>
    </g>
   </g>
   <g id="text_20">
    <!-- bbob f12, 20-D -->
    <g transform="translate(60.41088 38.111366)scale(0.102 -0.102)">
     <use xlink:href="#DejaVuSans-98"/>
     <use x="63.476562" xlink:href="#DejaVuSans-98"/>
     <use x="126.953125" xlink:href="#DejaVuSans-111"/>
     <use x="188.134766" xlink:href="#DejaVuSans-98"/>
     <use x="251.611328" xlink:href="#DejaVuSans-32"/>
     <use x="283.398438" xlink:href="#DejaVuSans-102"/>
     <use x="318.603516" xlink:href="#DejaVuSans-49"/>
     <use x="382.226562" xlink:href="#DejaVuSans-50"/>
     <use x="445.849609" xlink:href="#DejaVuSans-44"/>
     <use x="477.636719" xlink:href="#DejaVuSans-32"/>
     <use x="509.423828" xlink:href="#DejaVuSans-50"/>
     <use x="573.046875" xlink:href="#DejaVuSans-48"/>
     <use x="636.669922" xlink:href="#DejaVuSans-45"/>
     <use x="672.753906" xlink:href="#DejaVuSans-68"/>
    </g>
    <!-- 51 targets: 100..1e-08 -->
    <g transform="translate(60.41088 49.533135)scale(0.102 -0.102)">
     <defs>
      <path d="M 11.71875 12.40625 
L 22.015625 12.40625 
L 22.015625 0 
L 11.71875 0 
z
M 11.71875 51.703125 
L 22.015625 51.703125 
L 22.015625 39.3125 
L 11.71875 39.3125 
z
" id="DejaVuSans-58"/>
     </defs>
     <use xlink:href="#DejaVuSans-53"/>
     <use x="63.623047" xlink:href="#DejaVuSans-49"/>
     <use x="127.246094" xlink:href="#DejaVuSans-32"/>
     <use x="159.033203" xlink:href="#DejaVuSans-116"/>
     <use x="198.242188" xlink:href="#DejaVuSans-97"/>
     <use x="259.521484" xlink:href="#DejaVuSans-114"/>
     <use x="298.884766" xlink:href="#DejaVuSans-103"/>
     <use x="362.361328" xlink:href="#DejaVuSans-101"/>
     <use x="423.884766" xlink:href="#DejaVuSans-116"/>
     <use x="463.09375" xlink:href="#DejaVuSans-115"/>
     <use x="515.193359" xlink:href="#DejaVuSans-58"/>
     <use x="548.884766" xlink:href="#DejaVuSans-32"/>
     <use x="580.671875" xlink:href="#DejaVuSans-49"/>
     <use x="644.294922" xlink:href="#DejaVuSans-48"/>
     <use x="707.917969" xlink:href="#DejaVuSans-48"/>
     <use x="771.541016" xlink:href="#DejaVuSans-46"/>
     <use x="803.328125" xlink:href="#DejaVuSans-46"/>
     <use x="835.115234" xlink:href="#DejaVuSans-49"/>
     <use x="898.738281" xlink:href="#DejaVuSans-101"/>
     <use x="960.261719" xlink:href="#DejaVuSans-45"/>
     <use x="996.345703" xlink:href="#DejaVuSans-48"/>
     <use x="1059.96875" xlink:href="#DejaVuSans-56"/>
    </g>
    <!-- 15 instances -->
    <g transform="translate(60.41088 60.954904)scale(0.102 -0.102)">
     <use xlink:href="#DejaVuSans-49"/>
     <use x="63.623047" xlink:href="#DejaVuSans-53"/>
     <use x="127.246094" xlink:href="#DejaVuSans-32"/>
     <use x="159.033203" xlink:href="#DejaVuSans-105"/>
     <use x="186.816406" xlink:href="#DejaVuSans-110"/>
     <use x="250.195312" xlink:href="#DejaVuSans-115"/>
     <use x="302.294922" xlink:href="#DejaVuSans-116"/>
     <use x="341.503906" xlink:href="#DejaVuSans-97"/>
     <use x="402.783203" xlink:href="#DejaVuSans-110"/>
     <use x="466.162109" xlink:href="#DejaVuSans-99"/>
     <use x="521.142578" xlink:href="#DejaVuSans-101"/>
     <use x="582.666016" xlink:href="#DejaVuSans-115"/>
    </g>
   </g>
   <g id="text_21">
    <!-- v2.4 -->
    <g style="fill:#808080;" transform="translate(187.233062 294.151352)scale(0.1 -0.1)">
     <use xlink:href="#DejaVuSans-118"/>
     <use x="59.179688" xlink:href="#DejaVuSans-50"/>
     <use x="122.802734" xlink:href="#DejaVuSans-46"/>
     <use x="154.589844" xlink:href="#DejaVuSans-52"/>
    </g>
   </g>
   <g id="text_22">
    <!-- 12 Bent cigar -->
    <g transform="translate(130.926812 21.648)scale(0.2 -0.2)">
     <defs>
      <path d="M 19.671875 34.8125 
L 19.671875 8.109375 
L 35.5 8.109375 
Q 43.453125 8.109375 47.28125 11.40625 
Q 51.125 14.703125 51.125 21.484375 
Q 51.125 28.328125 47.28125 31.5625 
Q 43.453125 34.8125 35.5 34.8125 
z
M 19.671875 64.796875 
L 19.671875 42.828125 
L 34.28125 42.828125 
Q 41.5 42.828125 45.03125 45.53125 
Q 48.578125 48.25 48.578125 53.8125 
Q 48.578125 59.328125 45.03125 62.0625 
Q 41.5 64.796875 34.28125 64.796875 
z
M 9.8125 72.90625 
L 35.015625 72.90625 
Q 46.296875 72.90625 52.390625 68.21875 
Q 58.5 63.53125 58.5 54.890625 
Q 58.5 48.1875 55.375 44.234375 
Q 52.25 40.28125 46.1875 39.3125 
Q 53.46875 37.75 57.5 32.78125 
Q 61.53125 27.828125 61.53125 20.40625 
Q 61.53125 10.640625 54.890625 5.3125 
Q 48.25 0 35.984375 0 
L 9.8125 0 
z
" id="DejaVuSans-66"/>
     </defs>
     <use xlink:href="#DejaVuSans-49"/>
     <use x="63.623047" xlink:href="#DejaVuSans-50"/>
     <use x="127.246094" xlink:href="#DejaVuSans-32"/>
     <use x="159.033203" xlink:href="#DejaVuSans-66"/>
     <use x="227.636719" xlink:href="#DejaVuSans-101"/>
     <use x="289.160156" xlink:href="#DejaVuSans-110"/>
     <use x="352.539062" xlink:href="#DejaVuSans-116"/>
     <use x="391.748047" xlink:href="#DejaVuSans-32"/>
     <use x="423.535156" xlink:href="#DejaVuSans-99"/>
     <use x="478.515625" xlink:href="#DejaVuSans-105"/>
     <use x="506.298828" xlink:href="#DejaVuSans-103"/>
     <use x="569.775391" xlink:href="#DejaVuSans-97"/>
     <use x="631.054688" xlink:href="#DejaVuSans-114"/>
    </g>
   </g>
  </g>
 </g>
 <defs>
  <clipPath id="p1856f00bde">
   <rect height="271.296" width="281.088" x="57.6" y="27.648"/>
  </clipPath>
 </defs>
</svg>
