<?xml version="1.0" encoding="utf-8" standalone="no"?>
<!DOCTYPE svg PUBLIC "-//W3C//DTD SVG 1.1//EN"
  "http://www.w3.org/Graphics/SVG/1.1/DTD/svg11.dtd">
<!-- Created with matplotlib (https://matplotlib.org/) -->
<svg height="345.6pt" version="1.1" viewBox="0 0 460.8 345.6" width="460.8pt" xmlns="http://www.w3.org/2000/svg" xmlns:xlink="http://www.w3.org/1999/xlink">
 <metadata>
  <rdf:RDF xmlns:cc="http://creativecommons.org/ns#" xmlns:dc="http://purl.org/dc/elements/1.1/" xmlns:rdf="http://www.w3.org/1999/02/22-rdf-syntax-ns#">
   <cc:Work>
    <dc:type rdf:resource="http://purl.org/dc/dcmitype/StillImage"/>
    <dc:date>2021-04-18T18:05:07.212817</dc:date>
    <dc:format>image/svg+xml</dc:format>
    <dc:creator>
     <cc:Agent>
      <dc:title>Matplotlib v3.3.4, https://matplotlib.org/</dc:title>
     </cc:Agent>
    </dc:creator>
   </cc:Work>
  </rdf:RDF>
 </metadata>
 <defs>
  <style type="text/css">*{stroke-linecap:butt;stroke-linejoin:round;}</style>
 </defs>
 <g id="figure_1">
  <g id="patch_1">
   <path d="M 0 345.6 
L 460.8 345.6 
L 460.8 0 
L 0 0 
z
" style="fill:#ffffff;"/>
  </g>
  <g id="axes_1">
   <g id="patch_2">
    <path d="M 57.6 298.944 
L 338.688 298.944 
L 338.688 27.648 
L 57.6 27.648 
z
" style="fill:#ffffff;"/>
   </g>
   <g id="line2d_1">
    <path d="M 79.694655 298.944 
L 79.694655 293.677139 
L 80.416384 293.677139 
L 80.416384 288.410278 
L 80.650472 288.410278 
L 80.650472 283.143418 
L 81.334453 283.143418 
L 81.334453 277.876557 
L 81.775977 277.876557 
L 81.775977 272.609696 
L 82.206598 272.609696 
L 82.206598 267.342835 
L 83.037197 267.342835 
L 83.037197 262.075974 
L 85.840967 262.075974 
L 85.840967 256.809114 
L 101.646892 256.809114 
L 101.646892 251.542253 
L 142.051655 251.542253 
L 142.051655 246.275392 
L 192.648397 246.275392 
L 192.648397 241.008531 
L 215.365534 241.008531 
L 215.365534 235.74167 
L 247.73941 235.74167 
L 247.73941 230.47481 
L 259.451274 230.47481 
L 259.451274 225.207949 
L 262.755012 225.207949 
L 262.755012 219.941088 
L 266.01376 219.941088 
L 266.01376 214.674227 
L 266.119954 214.674227 
L 266.119954 209.407366 
L 275.99162 209.407366 
L 275.99162 204.140506 
L 276.045527 204.140506 
L 276.045527 198.873645 
L 276.064041 198.873645 
L 276.064041 193.606784 
L 276.077603 193.606784 
L 276.077603 188.339923 
L 276.094391 188.339923 
L 276.094391 183.073062 
L 276.11156 183.073062 
L 276.11156 177.806202 
L 276.125914 177.806202 
L 276.125914 172.539341 
L 276.139346 172.539341 
L 276.139346 167.27248 
L 276.154923 167.27248 
L 276.154923 162.005619 
L 276.169616 162.005619 
L 276.169616 156.738758 
L 276.185822 156.738758 
L 276.185822 151.471897 
L 276.199851 151.471897 
L 276.199851 146.205037 
L 276.218488 146.205037 
L 276.218488 140.938176 
L 276.229631 140.938176 
L 276.229631 135.671315 
L 276.243929 135.671315 
L 276.243929 130.404454 
L 276.257574 130.404454 
L 276.257574 125.137593 
L 276.272561 125.137593 
L 276.272561 119.870733 
L 276.286128 119.870733 
L 276.286128 114.603872 
L 276.304042 114.603872 
L 276.304042 109.337011 
L 276.317702 109.337011 
L 276.317702 104.07015 
L 276.332567 104.07015 
L 276.332567 98.803289 
L 276.34754 98.803289 
L 276.34754 93.536429 
L 276.358803 93.536429 
L 276.358803 88.269568 
L 276.373117 88.269568 
L 276.373117 83.002707 
L 276.387328 83.002707 
L 276.387328 77.735846 
L 276.399273 77.735846 
L 276.399273 72.468985 
L 276.417537 72.468985 
L 276.417537 67.202125 
L 276.431242 67.202125 
L 276.431242 61.935264 
L 276.444246 61.935264 
L 276.444246 56.668403 
L 276.459602 56.668403 
L 276.459602 51.401542 
L 276.473565 51.401542 
L 276.473565 46.134681 
L 276.49009 46.134681 
L 276.49009 40.867821 
L 276.502002 40.867821 
L 276.502002 35.60096 
L 276.516938 35.60096 
L 276.516938 30.334099 
L 338.688 30.334099 
" style="fill:none;stroke:#f5deb3;stroke-linecap:square;stroke-width:4;"/>
   </g>
   <g id="line2d_2">
    <defs>
     <path d="M -0 7.778175 
L 7.778175 0 
L 0 -7.778175 
L -7.778175 -0 
z
" id="m55c84779bd" style="stroke:#f5deb3;stroke-linejoin:miter;stroke-width:1.5;"/>
    </defs>
    <g>
     <use style="fill:#f5deb3;stroke:#f5deb3;stroke-linejoin:miter;stroke-width:1.5;" x="85.840967" xlink:href="#m55c84779bd" y="256.809114"/>
     <use style="fill:#f5deb3;stroke:#f5deb3;stroke-linejoin:miter;stroke-width:1.5;" x="215.365534" xlink:href="#m55c84779bd" y="241.008531"/>
     <use style="fill:#f5deb3;stroke:#f5deb3;stroke-linejoin:miter;stroke-width:1.5;" x="276.34754" xlink:href="#m55c84779bd" y="93.536429"/>
     <use style="fill:#f5deb3;stroke:#f5deb3;stroke-linejoin:miter;stroke-width:1.5;" x="276.516938" xlink:href="#m55c84779bd" y="30.334099"/>
     <use style="fill:#f5deb3;stroke:#f5deb3;stroke-linejoin:miter;stroke-width:1.5;" x="338.688" xlink:href="#m55c84779bd" y="30.334099"/>
    </g>
   </g>
   <g id="line2d_3">
    <path style="fill:none;stroke:#f5deb3;stroke-linecap:square;stroke-width:4;"/>
    <g/>
   </g>
   <g id="line2d_4">
    <path d="M 338.688 30.334099 
L 369.60768 35.706297 
" style="fill:none;stroke:#f5deb3;stroke-linecap:square;stroke-width:4;"/>
    <g>
     <use style="fill:#f5deb3;stroke:#f5deb3;stroke-linejoin:miter;stroke-width:1.5;" x="338.688" xlink:href="#m55c84779bd" y="30.334099"/>
     <use style="fill:#f5deb3;stroke:#f5deb3;stroke-linejoin:miter;stroke-width:1.5;" x="369.60768" xlink:href="#m55c84779bd" y="35.706297"/>
    </g>
   </g>
   <g id="matplotlib.axis_1">
    <g id="xtick_1">
     <g id="line2d_5">
      <path clip-path="url(#p432fd4ca79)" d="M 57.6 298.944 
L 57.6 27.648 
" style="fill:none;stroke:#b0b0b0;stroke-linecap:square;stroke-width:0.8;"/>
     </g>
     <g id="line2d_6">
      <defs>
       <path d="M 0 0 
L 0 3.5 
" id="ma24e5f9c4f" style="stroke:#000000;stroke-width:0.8;"/>
      </defs>
      <g>
       <use style="stroke:#000000;stroke-width:0.8;" x="57.6" xlink:href="#ma24e5f9c4f" y="298.944"/>
      </g>
     </g>
     <g id="text_1">
      <!-- 0 -->
      <g transform="translate(51.2375 321.140875)scale(0.2 -0.2)">
       <defs>
        <path d="M 31.78125 66.40625 
Q 24.171875 66.40625 20.328125 58.90625 
Q 16.5 51.421875 16.5 36.375 
Q 16.5 21.390625 20.328125 13.890625 
Q 24.171875 6.390625 31.78125 6.390625 
Q 39.453125 6.390625 43.28125 13.890625 
Q 47.125 21.390625 47.125 36.375 
Q 47.125 51.421875 43.28125 58.90625 
Q 39.453125 66.40625 31.78125 66.40625 
z
M 31.78125 74.21875 
Q 44.046875 74.21875 50.515625 64.515625 
Q 56.984375 54.828125 56.984375 36.375 
Q 56.984375 17.96875 50.515625 8.265625 
Q 44.046875 -1.421875 31.78125 -1.421875 
Q 19.53125 -1.421875 13.0625 8.265625 
Q 6.59375 17.96875 6.59375 36.375 
Q 6.59375 54.828125 13.0625 64.515625 
Q 19.53125 74.21875 31.78125 74.21875 
z
" id="DejaVuSans-48"/>
       </defs>
       <use xlink:href="#DejaVuSans-48"/>
      </g>
     </g>
    </g>
    <g id="xtick_2">
     <g id="line2d_7">
      <path clip-path="url(#p432fd4ca79)" d="M 137.910857 298.944 
L 137.910857 27.648 
" style="fill:none;stroke:#b0b0b0;stroke-linecap:square;stroke-width:0.8;"/>
     </g>
     <g id="line2d_8">
      <g>
       <use style="stroke:#000000;stroke-width:0.8;" x="137.910857" xlink:href="#ma24e5f9c4f" y="298.944"/>
      </g>
     </g>
     <g id="text_2">
      <!-- 2 -->
      <g transform="translate(131.548357 321.140875)scale(0.2 -0.2)">
       <defs>
        <path d="M 19.1875 8.296875 
L 53.609375 8.296875 
L 53.609375 0 
L 7.328125 0 
L 7.328125 8.296875 
Q 12.9375 14.109375 22.625 23.890625 
Q 32.328125 33.6875 34.8125 36.53125 
Q 39.546875 41.84375 41.421875 45.53125 
Q 43.3125 49.21875 43.3125 52.78125 
Q 43.3125 58.59375 39.234375 62.25 
Q 35.15625 65.921875 28.609375 65.921875 
Q 23.96875 65.921875 18.8125 64.3125 
Q 13.671875 62.703125 7.8125 59.421875 
L 7.8125 69.390625 
Q 13.765625 71.78125 18.9375 73 
Q 24.125 74.21875 28.421875 74.21875 
Q 39.75 74.21875 46.484375 68.546875 
Q 53.21875 62.890625 53.21875 53.421875 
Q 53.21875 48.921875 51.53125 44.890625 
Q 49.859375 40.875 45.40625 35.40625 
Q 44.1875 33.984375 37.640625 27.21875 
Q 31.109375 20.453125 19.1875 8.296875 
z
" id="DejaVuSans-50"/>
       </defs>
       <use xlink:href="#DejaVuSans-50"/>
      </g>
     </g>
    </g>
    <g id="xtick_3">
     <g id="line2d_9">
      <path clip-path="url(#p432fd4ca79)" d="M 218.221714 298.944 
L 218.221714 27.648 
" style="fill:none;stroke:#b0b0b0;stroke-linecap:square;stroke-width:0.8;"/>
     </g>
     <g id="line2d_10">
      <g>
       <use style="stroke:#000000;stroke-width:0.8;" x="218.221714" xlink:href="#ma24e5f9c4f" y="298.944"/>
      </g>
     </g>
     <g id="text_3">
      <!-- 4 -->
      <g transform="translate(211.859214 321.140875)scale(0.2 -0.2)">
       <defs>
        <path d="M 37.796875 64.3125 
L 12.890625 25.390625 
L 37.796875 25.390625 
z
M 35.203125 72.90625 
L 47.609375 72.90625 
L 47.609375 25.390625 
L 58.015625 25.390625 
L 58.015625 17.1875 
L 47.609375 17.1875 
L 47.609375 0 
L 37.796875 0 
L 37.796875 17.1875 
L 4.890625 17.1875 
L 4.890625 26.703125 
z
" id="DejaVuSans-52"/>
       </defs>
       <use xlink:href="#DejaVuSans-52"/>
      </g>
     </g>
    </g>
    <g id="xtick_4">
     <g id="line2d_11">
      <path clip-path="url(#p432fd4ca79)" d="M 298.532571 298.944 
L 298.532571 27.648 
" style="fill:none;stroke:#b0b0b0;stroke-linecap:square;stroke-width:0.8;"/>
     </g>
     <g id="line2d_12">
      <g>
       <use style="stroke:#000000;stroke-width:0.8;" x="298.532571" xlink:href="#ma24e5f9c4f" y="298.944"/>
      </g>
     </g>
     <g id="text_4">
      <!-- 6 -->
      <g transform="translate(292.170071 321.140875)scale(0.2 -0.2)">
       <defs>
        <path d="M 33.015625 40.375 
Q 26.375 40.375 22.484375 35.828125 
Q 18.609375 31.296875 18.609375 23.390625 
Q 18.609375 15.53125 22.484375 10.953125 
Q 26.375 6.390625 33.015625 6.390625 
Q 39.65625 6.390625 43.53125 10.953125 
Q 47.40625 15.53125 47.40625 23.390625 
Q 47.40625 31.296875 43.53125 35.828125 
Q 39.65625 40.375 33.015625 40.375 
z
M 52.59375 71.296875 
L 52.59375 62.3125 
Q 48.875 64.0625 45.09375 64.984375 
Q 41.3125 65.921875 37.59375 65.921875 
Q 27.828125 65.921875 22.671875 59.328125 
Q 17.53125 52.734375 16.796875 39.40625 
Q 19.671875 43.65625 24.015625 45.921875 
Q 28.375 48.1875 33.59375 48.1875 
Q 44.578125 48.1875 50.953125 41.515625 
Q 57.328125 34.859375 57.328125 23.390625 
Q 57.328125 12.15625 50.6875 5.359375 
Q 44.046875 -1.421875 33.015625 -1.421875 
Q 20.359375 -1.421875 13.671875 8.265625 
Q 6.984375 17.96875 6.984375 36.375 
Q 6.984375 53.65625 15.1875 63.9375 
Q 23.390625 74.21875 37.203125 74.21875 
Q 40.921875 74.21875 44.703125 73.484375 
Q 48.484375 72.75 52.59375 71.296875 
z
" id="DejaVuSans-54"/>
       </defs>
       <use xlink:href="#DejaVuSans-54"/>
      </g>
     </g>
    </g>
    <g id="xtick_5">
     <g id="line2d_13">
      <path clip-path="url(#p432fd4ca79)" d="M 97.755429 298.944 
L 97.755429 27.648 
" style="fill:none;stroke:#b0b0b0;stroke-linecap:square;stroke-width:0.8;"/>
     </g>
     <g id="line2d_14">
      <defs>
       <path d="M 0 0 
L 0 2 
" id="mf9b38ea36f" style="stroke:#000000;stroke-width:0.6;"/>
      </defs>
      <g>
       <use style="stroke:#000000;stroke-width:0.6;" x="97.755429" xlink:href="#mf9b38ea36f" y="298.944"/>
      </g>
     </g>
    </g>
    <g id="xtick_6">
     <g id="line2d_15">
      <path clip-path="url(#p432fd4ca79)" d="M 178.066286 298.944 
L 178.066286 27.648 
" style="fill:none;stroke:#b0b0b0;stroke-linecap:square;stroke-width:0.8;"/>
     </g>
     <g id="line2d_16">
      <g>
       <use style="stroke:#000000;stroke-width:0.6;" x="178.066286" xlink:href="#mf9b38ea36f" y="298.944"/>
      </g>
     </g>
    </g>
    <g id="xtick_7">
     <g id="line2d_17">
      <path clip-path="url(#p432fd4ca79)" d="M 258.377143 298.944 
L 258.377143 27.648 
" style="fill:none;stroke:#b0b0b0;stroke-linecap:square;stroke-width:0.8;"/>
     </g>
     <g id="line2d_18">
      <g>
       <use style="stroke:#000000;stroke-width:0.6;" x="258.377143" xlink:href="#mf9b38ea36f" y="298.944"/>
      </g>
     </g>
    </g>
    <g id="xtick_8">
     <g id="line2d_19">
      <path clip-path="url(#p432fd4ca79)" d="M 338.688 298.944 
L 338.688 27.648 
" style="fill:none;stroke:#b0b0b0;stroke-linecap:square;stroke-width:0.8;"/>
     </g>
     <g id="line2d_20">
      <g>
       <use style="stroke:#000000;stroke-width:0.6;" x="338.688" xlink:href="#mf9b38ea36f" y="298.944"/>
      </g>
     </g>
    </g>
    <g id="text_5">
     <!-- log10(# f-evals / dimension) -->
     <g transform="translate(77.764078 342.217594)scale(0.17 -0.17)">
      <defs>
       <path d="M 9.421875 75.984375 
L 18.40625 75.984375 
L 18.40625 0 
L 9.421875 0 
z
" id="DejaVuSans-108"/>
       <path d="M 30.609375 48.390625 
Q 23.390625 48.390625 19.1875 42.75 
Q 14.984375 37.109375 14.984375 27.296875 
Q 14.984375 17.484375 19.15625 11.84375 
Q 23.34375 6.203125 30.609375 6.203125 
Q 37.796875 6.203125 41.984375 11.859375 
Q 46.1875 17.53125 46.1875 27.296875 
Q 46.1875 37.015625 41.984375 42.703125 
Q 37.796875 48.390625 30.609375 48.390625 
z
M 30.609375 56 
Q 42.328125 56 49.015625 48.375 
Q 55.71875 40.765625 55.71875 27.296875 
Q 55.71875 13.875 49.015625 6.21875 
Q 42.328125 -1.421875 30.609375 -1.421875 
Q 18.84375 -1.421875 12.171875 6.21875 
Q 5.515625 13.875 5.515625 27.296875 
Q 5.515625 40.765625 12.171875 48.375 
Q 18.84375 56 30.609375 56 
z
" id="DejaVuSans-111"/>
       <path d="M 45.40625 27.984375 
Q 45.40625 37.75 41.375 43.109375 
Q 37.359375 48.484375 30.078125 48.484375 
Q 22.859375 48.484375 18.828125 43.109375 
Q 14.796875 37.75 14.796875 27.984375 
Q 14.796875 18.265625 18.828125 12.890625 
Q 22.859375 7.515625 30.078125 7.515625 
Q 37.359375 7.515625 41.375 12.890625 
Q 45.40625 18.265625 45.40625 27.984375 
z
M 54.390625 6.78125 
Q 54.390625 -7.171875 48.1875 -13.984375 
Q 42 -20.796875 29.203125 -20.796875 
Q 24.46875 -20.796875 20.265625 -20.09375 
Q 16.0625 -19.390625 12.109375 -17.921875 
L 12.109375 -9.1875 
Q 16.0625 -11.328125 19.921875 -12.34375 
Q 23.78125 -13.375 27.78125 -13.375 
Q 36.625 -13.375 41.015625 -8.765625 
Q 45.40625 -4.15625 45.40625 5.171875 
L 45.40625 9.625 
Q 42.625 4.78125 38.28125 2.390625 
Q 33.9375 0 27.875 0 
Q 17.828125 0 11.671875 7.65625 
Q 5.515625 15.328125 5.515625 27.984375 
Q 5.515625 40.671875 11.671875 48.328125 
Q 17.828125 56 27.875 56 
Q 33.9375 56 38.28125 53.609375 
Q 42.625 51.21875 45.40625 46.390625 
L 45.40625 54.6875 
L 54.390625 54.6875 
z
" id="DejaVuSans-103"/>
       <path d="M 12.40625 8.296875 
L 28.515625 8.296875 
L 28.515625 63.921875 
L 10.984375 60.40625 
L 10.984375 69.390625 
L 28.421875 72.90625 
L 38.28125 72.90625 
L 38.28125 8.296875 
L 54.390625 8.296875 
L 54.390625 0 
L 12.40625 0 
z
" id="DejaVuSans-49"/>
       <path d="M 31 75.875 
Q 24.46875 64.65625 21.28125 53.65625 
Q 18.109375 42.671875 18.109375 31.390625 
Q 18.109375 20.125 21.3125 9.0625 
Q 24.515625 -2 31 -13.1875 
L 23.1875 -13.1875 
Q 15.875 -1.703125 12.234375 9.375 
Q 8.59375 20.453125 8.59375 31.390625 
Q 8.59375 42.28125 12.203125 53.3125 
Q 15.828125 64.359375 23.1875 75.875 
z
" id="DejaVuSans-40"/>
       <path d="M 51.125 44 
L 36.921875 44 
L 32.8125 27.6875 
L 47.125 27.6875 
z
M 43.796875 71.78125 
L 38.71875 51.515625 
L 52.984375 51.515625 
L 58.109375 71.78125 
L 65.921875 71.78125 
L 60.890625 51.515625 
L 76.125 51.515625 
L 76.125 44 
L 58.984375 44 
L 54.984375 27.6875 
L 70.515625 27.6875 
L 70.515625 20.21875 
L 53.078125 20.21875 
L 48 0 
L 40.1875 0 
L 45.21875 20.21875 
L 30.90625 20.21875 
L 25.875 0 
L 18.015625 0 
L 23.09375 20.21875 
L 7.71875 20.21875 
L 7.71875 27.6875 
L 24.90625 27.6875 
L 29 44 
L 13.28125 44 
L 13.28125 51.515625 
L 30.90625 51.515625 
L 35.890625 71.78125 
z
" id="DejaVuSans-35"/>
       <path id="DejaVuSans-32"/>
       <path d="M 37.109375 75.984375 
L 37.109375 68.5 
L 28.515625 68.5 
Q 23.6875 68.5 21.796875 66.546875 
Q 19.921875 64.59375 19.921875 59.515625 
L 19.921875 54.6875 
L 34.71875 54.6875 
L 34.71875 47.703125 
L 19.921875 47.703125 
L 19.921875 0 
L 10.890625 0 
L 10.890625 47.703125 
L 2.296875 47.703125 
L 2.296875 54.6875 
L 10.890625 54.6875 
L 10.890625 58.5 
Q 10.890625 67.625 15.140625 71.796875 
Q 19.390625 75.984375 28.609375 75.984375 
z
" id="DejaVuSans-102"/>
       <path d="M 4.890625 31.390625 
L 31.203125 31.390625 
L 31.203125 23.390625 
L 4.890625 23.390625 
z
" id="DejaVuSans-45"/>
       <path d="M 56.203125 29.59375 
L 56.203125 25.203125 
L 14.890625 25.203125 
Q 15.484375 15.921875 20.484375 11.0625 
Q 25.484375 6.203125 34.421875 6.203125 
Q 39.59375 6.203125 44.453125 7.46875 
Q 49.3125 8.734375 54.109375 11.28125 
L 54.109375 2.78125 
Q 49.265625 0.734375 44.1875 -0.34375 
Q 39.109375 -1.421875 33.890625 -1.421875 
Q 20.796875 -1.421875 13.15625 6.1875 
Q 5.515625 13.8125 5.515625 26.8125 
Q 5.515625 40.234375 12.765625 48.109375 
Q 20.015625 56 32.328125 56 
Q 43.359375 56 49.78125 48.890625 
Q 56.203125 41.796875 56.203125 29.59375 
z
M 47.21875 32.234375 
Q 47.125 39.59375 43.09375 43.984375 
Q 39.0625 48.390625 32.421875 48.390625 
Q 24.90625 48.390625 20.390625 44.140625 
Q 15.875 39.890625 15.1875 32.171875 
z
" id="DejaVuSans-101"/>
       <path d="M 2.984375 54.6875 
L 12.5 54.6875 
L 29.59375 8.796875 
L 46.6875 54.6875 
L 56.203125 54.6875 
L 35.6875 0 
L 23.484375 0 
z
" id="DejaVuSans-118"/>
       <path d="M 34.28125 27.484375 
Q 23.390625 27.484375 19.1875 25 
Q 14.984375 22.515625 14.984375 16.5 
Q 14.984375 11.71875 18.140625 8.90625 
Q 21.296875 6.109375 26.703125 6.109375 
Q 34.1875 6.109375 38.703125 11.40625 
Q 43.21875 16.703125 43.21875 25.484375 
L 43.21875 27.484375 
z
M 52.203125 31.203125 
L 52.203125 0 
L 43.21875 0 
L 43.21875 8.296875 
Q 40.140625 3.328125 35.546875 0.953125 
Q 30.953125 -1.421875 24.3125 -1.421875 
Q 15.921875 -1.421875 10.953125 3.296875 
Q 6 8.015625 6 15.921875 
Q 6 25.140625 12.171875 29.828125 
Q 18.359375 34.515625 30.609375 34.515625 
L 43.21875 34.515625 
L 43.21875 35.40625 
Q 43.21875 41.609375 39.140625 45 
Q 35.0625 48.390625 27.6875 48.390625 
Q 23 48.390625 18.546875 47.265625 
Q 14.109375 46.140625 10.015625 43.890625 
L 10.015625 52.203125 
Q 14.9375 54.109375 19.578125 55.046875 
Q 24.21875 56 28.609375 56 
Q 40.484375 56 46.34375 49.84375 
Q 52.203125 43.703125 52.203125 31.203125 
z
" id="DejaVuSans-97"/>
       <path d="M 44.28125 53.078125 
L 44.28125 44.578125 
Q 40.484375 46.53125 36.375 47.5 
Q 32.28125 48.484375 27.875 48.484375 
Q 21.1875 48.484375 17.84375 46.4375 
Q 14.5 44.390625 14.5 40.28125 
Q 14.5 37.15625 16.890625 35.375 
Q 19.28125 33.59375 26.515625 31.984375 
L 29.59375 31.296875 
Q 39.15625 29.25 43.1875 25.515625 
Q 47.21875 21.78125 47.21875 15.09375 
Q 47.21875 7.46875 41.1875 3.015625 
Q 35.15625 -1.421875 24.609375 -1.421875 
Q 20.21875 -1.421875 15.453125 -0.5625 
Q 10.6875 0.296875 5.421875 2 
L 5.421875 11.28125 
Q 10.40625 8.6875 15.234375 7.390625 
Q 20.0625 6.109375 24.8125 6.109375 
Q 31.15625 6.109375 34.5625 8.28125 
Q 37.984375 10.453125 37.984375 14.40625 
Q 37.984375 18.0625 35.515625 20.015625 
Q 33.0625 21.96875 24.703125 23.78125 
L 21.578125 24.515625 
Q 13.234375 26.265625 9.515625 29.90625 
Q 5.8125 33.546875 5.8125 39.890625 
Q 5.8125 47.609375 11.28125 51.796875 
Q 16.75 56 26.8125 56 
Q 31.78125 56 36.171875 55.265625 
Q 40.578125 54.546875 44.28125 53.078125 
z
" id="DejaVuSans-115"/>
       <path d="M 25.390625 72.90625 
L 33.6875 72.90625 
L 8.296875 -9.28125 
L 0 -9.28125 
z
" id="DejaVuSans-47"/>
       <path d="M 45.40625 46.390625 
L 45.40625 75.984375 
L 54.390625 75.984375 
L 54.390625 0 
L 45.40625 0 
L 45.40625 8.203125 
Q 42.578125 3.328125 38.25 0.953125 
Q 33.9375 -1.421875 27.875 -1.421875 
Q 17.96875 -1.421875 11.734375 6.484375 
Q 5.515625 14.40625 5.515625 27.296875 
Q 5.515625 40.1875 11.734375 48.09375 
Q 17.96875 56 27.875 56 
Q 33.9375 56 38.25 53.625 
Q 42.578125 51.265625 45.40625 46.390625 
z
M 14.796875 27.296875 
Q 14.796875 17.390625 18.875 11.75 
Q 22.953125 6.109375 30.078125 6.109375 
Q 37.203125 6.109375 41.296875 11.75 
Q 45.40625 17.390625 45.40625 27.296875 
Q 45.40625 37.203125 41.296875 42.84375 
Q 37.203125 48.484375 30.078125 48.484375 
Q 22.953125 48.484375 18.875 42.84375 
Q 14.796875 37.203125 14.796875 27.296875 
z
" id="DejaVuSans-100"/>
       <path d="M 9.421875 54.6875 
L 18.40625 54.6875 
L 18.40625 0 
L 9.421875 0 
z
M 9.421875 75.984375 
L 18.40625 75.984375 
L 18.40625 64.59375 
L 9.421875 64.59375 
z
" id="DejaVuSans-105"/>
       <path d="M 52 44.1875 
Q 55.375 50.25 60.0625 53.125 
Q 64.75 56 71.09375 56 
Q 79.640625 56 84.28125 50.015625 
Q 88.921875 44.046875 88.921875 33.015625 
L 88.921875 0 
L 79.890625 0 
L 79.890625 32.71875 
Q 79.890625 40.578125 77.09375 44.375 
Q 74.3125 48.1875 68.609375 48.1875 
Q 61.625 48.1875 57.5625 43.546875 
Q 53.515625 38.921875 53.515625 30.90625 
L 53.515625 0 
L 44.484375 0 
L 44.484375 32.71875 
Q 44.484375 40.625 41.703125 44.40625 
Q 38.921875 48.1875 33.109375 48.1875 
Q 26.21875 48.1875 22.15625 43.53125 
Q 18.109375 38.875 18.109375 30.90625 
L 18.109375 0 
L 9.078125 0 
L 9.078125 54.6875 
L 18.109375 54.6875 
L 18.109375 46.1875 
Q 21.1875 51.21875 25.484375 53.609375 
Q 29.78125 56 35.6875 56 
Q 41.65625 56 45.828125 52.96875 
Q 50 49.953125 52 44.1875 
z
" id="DejaVuSans-109"/>
       <path d="M 54.890625 33.015625 
L 54.890625 0 
L 45.90625 0 
L 45.90625 32.71875 
Q 45.90625 40.484375 42.875 44.328125 
Q 39.84375 48.1875 33.796875 48.1875 
Q 26.515625 48.1875 22.3125 43.546875 
Q 18.109375 38.921875 18.109375 30.90625 
L 18.109375 0 
L 9.078125 0 
L 9.078125 54.6875 
L 18.109375 54.6875 
L 18.109375 46.1875 
Q 21.34375 51.125 25.703125 53.5625 
Q 30.078125 56 35.796875 56 
Q 45.21875 56 50.046875 50.171875 
Q 54.890625 44.34375 54.890625 33.015625 
z
" id="DejaVuSans-110"/>
       <path d="M 8.015625 75.875 
L 15.828125 75.875 
Q 23.140625 64.359375 26.78125 53.3125 
Q 30.421875 42.28125 30.421875 31.390625 
Q 30.421875 20.453125 26.78125 9.375 
Q 23.140625 -1.703125 15.828125 -13.1875 
L 8.015625 -13.1875 
Q 14.5 -2 17.703125 9.0625 
Q 20.90625 20.125 20.90625 31.390625 
Q 20.90625 42.671875 17.703125 53.65625 
Q 14.5 64.65625 8.015625 75.875 
z
" id="DejaVuSans-41"/>
      </defs>
      <use xlink:href="#DejaVuSans-108"/>
      <use x="27.783203" xlink:href="#DejaVuSans-111"/>
      <use x="88.964844" xlink:href="#DejaVuSans-103"/>
      <use x="152.441406" xlink:href="#DejaVuSans-49"/>
      <use x="216.064453" xlink:href="#DejaVuSans-48"/>
      <use x="279.6875" xlink:href="#DejaVuSans-40"/>
      <use x="318.701172" xlink:href="#DejaVuSans-35"/>
      <use x="402.490234" xlink:href="#DejaVuSans-32"/>
      <use x="434.277344" xlink:href="#DejaVuSans-102"/>
      <use x="463.982422" xlink:href="#DejaVuSans-45"/>
      <use x="500.066406" xlink:href="#DejaVuSans-101"/>
      <use x="561.589844" xlink:href="#DejaVuSans-118"/>
      <use x="620.769531" xlink:href="#DejaVuSans-97"/>
      <use x="682.048828" xlink:href="#DejaVuSans-108"/>
      <use x="709.832031" xlink:href="#DejaVuSans-115"/>
      <use x="761.931641" xlink:href="#DejaVuSans-32"/>
      <use x="793.71875" xlink:href="#DejaVuSans-47"/>
      <use x="827.410156" xlink:href="#DejaVuSans-32"/>
      <use x="859.197266" xlink:href="#DejaVuSans-100"/>
      <use x="922.673828" xlink:href="#DejaVuSans-105"/>
      <use x="950.457031" xlink:href="#DejaVuSans-109"/>
      <use x="1047.869141" xlink:href="#DejaVuSans-101"/>
      <use x="1109.392578" xlink:href="#DejaVuSans-110"/>
      <use x="1172.771484" xlink:href="#DejaVuSans-115"/>
      <use x="1224.871094" xlink:href="#DejaVuSans-105"/>
      <use x="1252.654297" xlink:href="#DejaVuSans-111"/>
      <use x="1313.835938" xlink:href="#DejaVuSans-110"/>
      <use x="1377.214844" xlink:href="#DejaVuSans-41"/>
     </g>
    </g>
   </g>
   <g id="matplotlib.axis_2">
    <g id="ytick_1">
     <g id="line2d_21">
      <path clip-path="url(#p432fd4ca79)" d="M 57.6 298.944 
L 338.688 298.944 
" style="fill:none;stroke:#b0b0b0;stroke-linecap:square;stroke-width:0.8;"/>
     </g>
     <g id="line2d_22">
      <defs>
       <path d="M 0 0 
L -3.5 0 
" id="m4d4b5fe70a" style="stroke:#000000;stroke-width:0.8;"/>
      </defs>
      <g>
       <use style="stroke:#000000;stroke-width:0.8;" x="57.6" xlink:href="#m4d4b5fe70a" y="298.944"/>
      </g>
     </g>
     <g id="text_6">
      <!-- 0.0 -->
      <g transform="translate(25.155 305.02275)scale(0.16 -0.16)">
       <defs>
        <path d="M 10.6875 12.40625 
L 21 12.40625 
L 21 0 
L 10.6875 0 
z
" id="DejaVuSans-46"/>
       </defs>
       <use xlink:href="#DejaVuSans-48"/>
       <use x="63.623047" xlink:href="#DejaVuSans-46"/>
       <use x="95.410156" xlink:href="#DejaVuSans-48"/>
      </g>
     </g>
    </g>
    <g id="ytick_2">
     <g id="line2d_23">
      <path clip-path="url(#p432fd4ca79)" d="M 57.6 245.22202 
L 338.688 245.22202 
" style="fill:none;stroke:#b0b0b0;stroke-linecap:square;stroke-width:0.8;"/>
     </g>
     <g id="line2d_24">
      <g>
       <use style="stroke:#000000;stroke-width:0.8;" x="57.6" xlink:href="#m4d4b5fe70a" y="245.22202"/>
      </g>
     </g>
     <g id="text_7">
      <!-- 0.2 -->
      <g transform="translate(25.155 251.30077)scale(0.16 -0.16)">
       <use xlink:href="#DejaVuSans-48"/>
       <use x="63.623047" xlink:href="#DejaVuSans-46"/>
       <use x="95.410156" xlink:href="#DejaVuSans-50"/>
      </g>
     </g>
    </g>
    <g id="ytick_3">
     <g id="line2d_25">
      <path clip-path="url(#p432fd4ca79)" d="M 57.6 191.50004 
L 338.688 191.50004 
" style="fill:none;stroke:#b0b0b0;stroke-linecap:square;stroke-width:0.8;"/>
     </g>
     <g id="line2d_26">
      <g>
       <use style="stroke:#000000;stroke-width:0.8;" x="57.6" xlink:href="#m4d4b5fe70a" y="191.50004"/>
      </g>
     </g>
     <g id="text_8">
      <!-- 0.4 -->
      <g transform="translate(25.155 197.57879)scale(0.16 -0.16)">
       <use xlink:href="#DejaVuSans-48"/>
       <use x="63.623047" xlink:href="#DejaVuSans-46"/>
       <use x="95.410156" xlink:href="#DejaVuSans-52"/>
      </g>
     </g>
    </g>
    <g id="ytick_4">
     <g id="line2d_27">
      <path clip-path="url(#p432fd4ca79)" d="M 57.6 137.778059 
L 338.688 137.778059 
" style="fill:none;stroke:#b0b0b0;stroke-linecap:square;stroke-width:0.8;"/>
     </g>
     <g id="line2d_28">
      <g>
       <use style="stroke:#000000;stroke-width:0.8;" x="57.6" xlink:href="#m4d4b5fe70a" y="137.778059"/>
      </g>
     </g>
     <g id="text_9">
      <!-- 0.6 -->
      <g transform="translate(25.155 143.856809)scale(0.16 -0.16)">
       <use xlink:href="#DejaVuSans-48"/>
       <use x="63.623047" xlink:href="#DejaVuSans-46"/>
       <use x="95.410156" xlink:href="#DejaVuSans-54"/>
      </g>
     </g>
    </g>
    <g id="ytick_5">
     <g id="line2d_29">
      <path clip-path="url(#p432fd4ca79)" d="M 57.6 84.056079 
L 338.688 84.056079 
" style="fill:none;stroke:#b0b0b0;stroke-linecap:square;stroke-width:0.8;"/>
     </g>
     <g id="line2d_30">
      <g>
       <use style="stroke:#000000;stroke-width:0.8;" x="57.6" xlink:href="#m4d4b5fe70a" y="84.056079"/>
      </g>
     </g>
     <g id="text_10">
      <!-- 0.8 -->
      <g transform="translate(25.155 90.134829)scale(0.16 -0.16)">
       <defs>
        <path d="M 31.78125 34.625 
Q 24.75 34.625 20.71875 30.859375 
Q 16.703125 27.09375 16.703125 20.515625 
Q 16.703125 13.921875 20.71875 10.15625 
Q 24.75 6.390625 31.78125 6.390625 
Q 38.8125 6.390625 42.859375 10.171875 
Q 46.921875 13.96875 46.921875 20.515625 
Q 46.921875 27.09375 42.890625 30.859375 
Q 38.875 34.625 31.78125 34.625 
z
M 21.921875 38.8125 
Q 15.578125 40.375 12.03125 44.71875 
Q 8.5 49.078125 8.5 55.328125 
Q 8.5 64.0625 14.71875 69.140625 
Q 20.953125 74.21875 31.78125 74.21875 
Q 42.671875 74.21875 48.875 69.140625 
Q 55.078125 64.0625 55.078125 55.328125 
Q 55.078125 49.078125 51.53125 44.71875 
Q 48 40.375 41.703125 38.8125 
Q 48.828125 37.15625 52.796875 32.3125 
Q 56.78125 27.484375 56.78125 20.515625 
Q 56.78125 9.90625 50.3125 4.234375 
Q 43.84375 -1.421875 31.78125 -1.421875 
Q 19.734375 -1.421875 13.25 4.234375 
Q 6.78125 9.90625 6.78125 20.515625 
Q 6.78125 27.484375 10.78125 32.3125 
Q 14.796875 37.15625 21.921875 38.8125 
z
M 18.3125 54.390625 
Q 18.3125 48.734375 21.84375 45.5625 
Q 25.390625 42.390625 31.78125 42.390625 
Q 38.140625 42.390625 41.71875 45.5625 
Q 45.3125 48.734375 45.3125 54.390625 
Q 45.3125 60.0625 41.71875 63.234375 
Q 38.140625 66.40625 31.78125 66.40625 
Q 25.390625 66.40625 21.84375 63.234375 
Q 18.3125 60.0625 18.3125 54.390625 
z
" id="DejaVuSans-56"/>
       </defs>
       <use xlink:href="#DejaVuSans-48"/>
       <use x="63.623047" xlink:href="#DejaVuSans-46"/>
       <use x="95.410156" xlink:href="#DejaVuSans-56"/>
      </g>
     </g>
    </g>
    <g id="ytick_6">
     <g id="line2d_31">
      <path clip-path="url(#p432fd4ca79)" d="M 57.6 30.334099 
L 338.688 30.334099 
" style="fill:none;stroke:#b0b0b0;stroke-linecap:square;stroke-width:0.8;"/>
     </g>
     <g id="line2d_32">
      <g>
       <use style="stroke:#000000;stroke-width:0.8;" x="57.6" xlink:href="#m4d4b5fe70a" y="30.334099"/>
      </g>
     </g>
     <g id="text_11">
      <!-- 1.0 -->
      <g transform="translate(25.155 36.412849)scale(0.16 -0.16)">
       <use xlink:href="#DejaVuSans-49"/>
       <use x="63.623047" xlink:href="#DejaVuSans-46"/>
       <use x="95.410156" xlink:href="#DejaVuSans-48"/>
      </g>
     </g>
    </g>
    <g id="text_12">
     <!-- Fraction of function,target pairs -->
     <g transform="translate(17.619531 297.681)rotate(-90)scale(0.17 -0.17)">
      <defs>
       <path d="M 9.8125 72.90625 
L 51.703125 72.90625 
L 51.703125 64.59375 
L 19.671875 64.59375 
L 19.671875 43.109375 
L 48.578125 43.109375 
L 48.578125 34.8125 
L 19.671875 34.8125 
L 19.671875 0 
L 9.8125 0 
z
" id="DejaVuSans-70"/>
       <path d="M 41.109375 46.296875 
Q 39.59375 47.171875 37.8125 47.578125 
Q 36.03125 48 33.890625 48 
Q 26.265625 48 22.1875 43.046875 
Q 18.109375 38.09375 18.109375 28.8125 
L 18.109375 0 
L 9.078125 0 
L 9.078125 54.6875 
L 18.109375 54.6875 
L 18.109375 46.1875 
Q 20.953125 51.171875 25.484375 53.578125 
Q 30.03125 56 36.53125 56 
Q 37.453125 56 38.578125 55.875 
Q 39.703125 55.765625 41.0625 55.515625 
z
" id="DejaVuSans-114"/>
       <path d="M 48.78125 52.59375 
L 48.78125 44.1875 
Q 44.96875 46.296875 41.140625 47.34375 
Q 37.3125 48.390625 33.40625 48.390625 
Q 24.65625 48.390625 19.8125 42.84375 
Q 14.984375 37.3125 14.984375 27.296875 
Q 14.984375 17.28125 19.8125 11.734375 
Q 24.65625 6.203125 33.40625 6.203125 
Q 37.3125 6.203125 41.140625 7.25 
Q 44.96875 8.296875 48.78125 10.40625 
L 48.78125 2.09375 
Q 45.015625 0.34375 40.984375 -0.53125 
Q 36.96875 -1.421875 32.421875 -1.421875 
Q 20.0625 -1.421875 12.78125 6.34375 
Q 5.515625 14.109375 5.515625 27.296875 
Q 5.515625 40.671875 12.859375 48.328125 
Q 20.21875 56 33.015625 56 
Q 37.15625 56 41.109375 55.140625 
Q 45.0625 54.296875 48.78125 52.59375 
z
" id="DejaVuSans-99"/>
       <path d="M 18.3125 70.21875 
L 18.3125 54.6875 
L 36.8125 54.6875 
L 36.8125 47.703125 
L 18.3125 47.703125 
L 18.3125 18.015625 
Q 18.3125 11.328125 20.140625 9.421875 
Q 21.96875 7.515625 27.59375 7.515625 
L 36.8125 7.515625 
L 36.8125 0 
L 27.59375 0 
Q 17.1875 0 13.234375 3.875 
Q 9.28125 7.765625 9.28125 18.015625 
L 9.28125 47.703125 
L 2.6875 47.703125 
L 2.6875 54.6875 
L 9.28125 54.6875 
L 9.28125 70.21875 
z
" id="DejaVuSans-116"/>
       <path d="M 8.5 21.578125 
L 8.5 54.6875 
L 17.484375 54.6875 
L 17.484375 21.921875 
Q 17.484375 14.15625 20.5 10.265625 
Q 23.53125 6.390625 29.59375 6.390625 
Q 36.859375 6.390625 41.078125 11.03125 
Q 45.3125 15.671875 45.3125 23.6875 
L 45.3125 54.6875 
L 54.296875 54.6875 
L 54.296875 0 
L 45.3125 0 
L 45.3125 8.40625 
Q 42.046875 3.421875 37.71875 1 
Q 33.40625 -1.421875 27.6875 -1.421875 
Q 18.265625 -1.421875 13.375 4.4375 
Q 8.5 10.296875 8.5 21.578125 
z
M 31.109375 56 
z
" id="DejaVuSans-117"/>
       <path d="M 11.71875 12.40625 
L 22.015625 12.40625 
L 22.015625 4 
L 14.015625 -11.625 
L 7.71875 -11.625 
L 11.71875 4 
z
" id="DejaVuSans-44"/>
       <path d="M 18.109375 8.203125 
L 18.109375 -20.796875 
L 9.078125 -20.796875 
L 9.078125 54.6875 
L 18.109375 54.6875 
L 18.109375 46.390625 
Q 20.953125 51.265625 25.265625 53.625 
Q 29.59375 56 35.59375 56 
Q 45.5625 56 51.78125 48.09375 
Q 58.015625 40.1875 58.015625 27.296875 
Q 58.015625 14.40625 51.78125 6.484375 
Q 45.5625 -1.421875 35.59375 -1.421875 
Q 29.59375 -1.421875 25.265625 0.953125 
Q 20.953125 3.328125 18.109375 8.203125 
z
M 48.6875 27.296875 
Q 48.6875 37.203125 44.609375 42.84375 
Q 40.53125 48.484375 33.40625 48.484375 
Q 26.265625 48.484375 22.1875 42.84375 
Q 18.109375 37.203125 18.109375 27.296875 
Q 18.109375 17.390625 22.1875 11.75 
Q 26.265625 6.109375 33.40625 6.109375 
Q 40.53125 6.109375 44.609375 11.75 
Q 48.6875 17.390625 48.6875 27.296875 
z
" id="DejaVuSans-112"/>
      </defs>
      <use xlink:href="#DejaVuSans-70"/>
      <use x="50.269531" xlink:href="#DejaVuSans-114"/>
      <use x="91.382812" xlink:href="#DejaVuSans-97"/>
      <use x="152.662109" xlink:href="#DejaVuSans-99"/>
      <use x="207.642578" xlink:href="#DejaVuSans-116"/>
      <use x="246.851562" xlink:href="#DejaVuSans-105"/>
      <use x="274.634766" xlink:href="#DejaVuSans-111"/>
      <use x="335.816406" xlink:href="#DejaVuSans-110"/>
      <use x="399.195312" xlink:href="#DejaVuSans-32"/>
      <use x="430.982422" xlink:href="#DejaVuSans-111"/>
      <use x="492.164062" xlink:href="#DejaVuSans-102"/>
      <use x="527.369141" xlink:href="#DejaVuSans-32"/>
      <use x="559.15625" xlink:href="#DejaVuSans-102"/>
      <use x="594.361328" xlink:href="#DejaVuSans-117"/>
      <use x="657.740234" xlink:href="#DejaVuSans-110"/>
      <use x="721.119141" xlink:href="#DejaVuSans-99"/>
      <use x="776.099609" xlink:href="#DejaVuSans-116"/>
      <use x="815.308594" xlink:href="#DejaVuSans-105"/>
      <use x="843.091797" xlink:href="#DejaVuSans-111"/>
      <use x="904.273438" xlink:href="#DejaVuSans-110"/>
      <use x="967.652344" xlink:href="#DejaVuSans-44"/>
      <use x="999.439453" xlink:href="#DejaVuSans-116"/>
      <use x="1038.648438" xlink:href="#DejaVuSans-97"/>
      <use x="1099.927734" xlink:href="#DejaVuSans-114"/>
      <use x="1139.291016" xlink:href="#DejaVuSans-103"/>
      <use x="1202.767578" xlink:href="#DejaVuSans-101"/>
      <use x="1264.291016" xlink:href="#DejaVuSans-116"/>
      <use x="1303.5" xlink:href="#DejaVuSans-32"/>
      <use x="1335.287109" xlink:href="#DejaVuSans-112"/>
      <use x="1398.763672" xlink:href="#DejaVuSans-97"/>
      <use x="1460.042969" xlink:href="#DejaVuSans-105"/>
      <use x="1487.826172" xlink:href="#DejaVuSans-114"/>
      <use x="1528.939453" xlink:href="#DejaVuSans-115"/>
     </g>
    </g>
   </g>
   <g id="line2d_33">
    <defs>
     <path d="M 0 1.5 
C 0.397805 1.5 0.77937 1.341951 1.06066 1.06066 
C 1.341951 0.77937 1.5 0.397805 1.5 0 
C 1.5 -0.397805 1.341951 -0.77937 1.06066 -1.06066 
C 0.77937 -1.341951 0.397805 -1.5 0 -1.5 
C -0.397805 -1.5 -0.77937 -1.341951 -1.06066 -1.06066 
C -1.341951 -0.77937 -1.5 -0.397805 -1.5 0 
C -1.5 0.397805 -1.341951 0.77937 -1.06066 1.06066 
C -0.77937 1.341951 -0.397805 1.5 0 1.5 
z
" id="maf199a4246" style="stroke:#f5deb3;"/>
    </defs>
    <g>
     <use style="fill:#f5deb3;stroke:#f5deb3;" x="276.516938" xlink:href="#maf199a4246" y="30.334099"/>
     <use style="fill:#f5deb3;stroke:#f5deb3;" x="276.516938" xlink:href="#maf199a4246" y="30.334099"/>
    </g>
   </g>
   <g id="line2d_34">
    <defs>
     <path d="M 0 1.5 
C 0.397805 1.5 0.77937 1.341951 1.06066 1.06066 
C 1.341951 0.77937 1.5 0.397805 1.5 0 
C 1.5 -0.397805 1.341951 -0.77937 1.06066 -1.06066 
C 0.77937 -1.341951 0.397805 -1.5 0 -1.5 
C -0.397805 -1.5 -0.77937 -1.341951 -1.06066 -1.06066 
C -1.341951 -0.77937 -1.5 -0.397805 -1.5 0 
C -1.5 0.397805 -1.341951 0.77937 -1.06066 1.06066 
C -0.77937 1.341951 -0.397805 1.5 0 1.5 
z
" id="m3f94848e15" style="stroke:#000080;"/>
    </defs>
    <g>
     <use style="fill:#000080;stroke:#000080;" x="272.148143" xlink:href="#m3f94848e15" y="241.008531"/>
     <use style="fill:#000080;stroke:#000080;" x="272.148143" xlink:href="#m3f94848e15" y="241.008531"/>
    </g>
   </g>
   <g id="line2d_35">
    <path d="M 105.566235 298.944 
L 105.566235 297.890628 
L 107.663568 297.890628 
L 107.663568 296.837256 
L 108.856871 296.837256 
L 108.856871 296.31057 
L 110.231452 296.31057 
L 110.231452 295.783884 
L 111.584648 295.783884 
L 111.663381 294.203825 
L 112.469299 294.203825 
L 112.469299 293.677139 
L 113.489005 293.677139 
L 113.489005 292.623767 
L 114.250364 292.623767 
L 114.250364 292.097081 
L 115.617575 292.097081 
L 115.617575 291.570395 
L 115.989297 291.570395 
L 116.050487 289.990337 
L 116.413189 289.990337 
L 116.413189 289.463651 
L 116.621333 289.463651 
L 116.709783 287.883592 
L 117.570448 287.883592 
L 117.598418 286.83022 
L 117.985359 286.83022 
L 118.094355 284.723476 
L 118.363901 284.723476 
L 118.390628 283.670104 
L 118.655668 283.670104 
L 118.655668 283.143418 
L 118.81278 283.143418 
L 118.91674 280.509987 
L 119.045825 280.509987 
L 119.045825 279.983301 
L 119.224953 279.983301 
L 119.250393 278.929929 
L 119.923616 278.929929 
L 119.972465 277.876557 
L 120.118198 277.876557 
L 120.118198 277.349871 
L 120.47729 277.349871 
L 120.500969 276.296499 
L 120.642369 276.296499 
L 120.736003 275.243126 
L 120.875518 275.243126 
L 120.875518 274.71644 
L 121.151244 274.71644 
L 121.151244 274.189754 
L 121.400219 274.189754 
L 121.445108 270.502952 
L 121.53454 270.502952 
L 121.53454 269.976266 
L 121.734102 269.976266 
L 121.734102 269.449579 
L 123.090939 269.449579 
L 123.090939 268.922893 
L 123.868806 268.922893 
L 123.868806 268.396207 
L 125.327602 268.396207 
L 125.327602 267.869521 
L 125.97912 267.869521 
L 125.97912 267.342835 
L 126.151107 267.342835 
L 126.151107 266.816149 
L 126.72349 266.816149 
L 126.72349 266.289463 
L 127.181154 266.289463 
L 127.245565 265.236091 
L 127.532507 265.236091 
L 127.54831 263.656033 
L 128.335875 263.656033 
L 128.335875 263.129347 
L 128.471239 263.129347 
L 128.486215 262.075974 
L 128.738855 262.075974 
L 128.827155 261.022602 
L 129.546106 261.022602 
L 129.546106 260.495916 
L 129.78395 260.495916 
L 129.894764 258.915858 
L 130.598383 258.915858 
L 130.598383 257.862486 
L 131.030622 257.862486 
L 131.030622 257.3358 
L 131.197999 257.3358 
L 131.197999 256.809114 
L 131.338382 256.809114 
L 131.338382 256.282427 
L 131.790072 256.282427 
L 131.790072 255.755741 
L 132.446401 255.755741 
L 132.446401 255.229055 
L 133.443203 255.229055 
L 133.443203 254.702369 
L 133.788988 254.702369 
L 133.788988 254.175683 
L 134.246796 254.175683 
L 134.246796 253.648997 
L 135.701341 253.648997 
L 135.701341 253.122311 
L 136.560688 253.122311 
L 136.560688 252.595625 
L 137.884679 252.595625 
L 137.884679 252.068939 
L 139.163964 252.068939 
L 139.163964 251.542253 
L 142.003452 251.542253 
L 142.003452 251.015567 
L 143.958383 251.015567 
L 143.958383 250.488881 
L 144.075117 250.488881 
L 144.075117 249.962195 
L 144.888619 249.962195 
L 144.888619 249.435508 
L 147.210734 249.435508 
L 147.210734 248.908822 
L 147.650212 248.908822 
L 147.650212 248.382136 
L 148.592055 248.382136 
L 148.592055 247.85545 
L 151.66495 247.85545 
L 151.66495 247.328764 
L 152.947997 247.328764 
L 152.947997 246.802078 
L 154.804174 246.802078 
L 154.804174 246.275392 
L 157.355266 246.275392 
L 157.355266 245.748706 
L 157.998067 245.748706 
L 157.998067 245.22202 
L 218.675204 245.22202 
L 218.764944 243.115275 
L 246.380801 243.115275 
L 246.380801 242.588589 
L 252.235636 242.588589 
L 252.235636 241.535217 
L 272.148143 241.535217 
L 272.148143 241.008531 
L 338.688 241.008531 
L 338.688 241.008531 
" style="fill:none;stroke:#000080;stroke-linecap:square;stroke-width:1.5;"/>
   </g>
   <g id="line2d_36">
    <defs>
     <path d="M 0 6 
C 1.591219 6 3.117479 5.367802 4.242641 4.242641 
C 5.367802 3.117479 6 1.591219 6 0 
C 6 -1.591219 5.367802 -3.117479 4.242641 -4.242641 
C 3.117479 -5.367802 1.591219 -6 0 -6 
C -1.591219 -6 -3.117479 -5.367802 -4.242641 -4.242641 
C -5.367802 -3.117479 -6 -1.591219 -6 0 
C -6 1.591219 -5.367802 3.117479 -4.242641 4.242641 
C -3.117479 5.367802 -1.591219 6 0 6 
z
" id="m2c85098a78" style="stroke:#000080;stroke-width:1.5;"/>
    </defs>
    <g>
     <use style="fill-opacity:0;stroke:#000080;stroke-width:1.5;" x="129.894764" xlink:href="#m2c85098a78" y="258.915858"/>
     <use style="fill-opacity:0;stroke:#000080;stroke-width:1.5;" x="157.998067" xlink:href="#m2c85098a78" y="245.22202"/>
     <use style="fill-opacity:0;stroke:#000080;stroke-width:1.5;" x="272.148143" xlink:href="#m2c85098a78" y="241.535217"/>
     <use style="fill-opacity:0;stroke:#000080;stroke-width:1.5;" x="272.148143" xlink:href="#m2c85098a78" y="241.008531"/>
     <use style="fill-opacity:0;stroke:#000080;stroke-width:1.5;" x="338.688" xlink:href="#m2c85098a78" y="241.008531"/>
    </g>
   </g>
   <g id="line2d_37">
    <path style="fill:none;stroke:#000080;stroke-linecap:square;stroke-width:1.5;"/>
    <g/>
   </g>
   <g id="line2d_38">
    <path clip-path="url(#p432fd4ca79)" d="M 218.221714 245.22202 
" style="fill:none;stroke:#000080;stroke-linecap:square;stroke-width:1.5;"/>
    <defs>
     <path d="M -12 12 
L 12 -12 
M -12 -12 
L 12 12 
" id="mc1783334b4" style="stroke:#000080;"/>
    </defs>
    <g clip-path="url(#p432fd4ca79)">
     <use style="fill:#000080;stroke:#000080;" x="218.221714" xlink:href="#mc1783334b4" y="245.22202"/>
    </g>
   </g>
   <g id="line2d_39">
    <defs>
     <path d="M 0 1.5 
C 0.397805 1.5 0.77937 1.341951 1.06066 1.06066 
C 1.341951 0.77937 1.5 0.397805 1.5 0 
C 1.5 -0.397805 1.341951 -0.77937 1.06066 -1.06066 
C 0.77937 -1.341951 0.397805 -1.5 0 -1.5 
C -0.397805 -1.5 -0.77937 -1.341951 -1.06066 -1.06066 
C -1.341951 -0.77937 -1.5 -0.397805 -1.5 0 
C -1.5 0.397805 -1.341951 0.77937 -1.06066 1.06066 
C -0.77937 1.341951 -0.397805 1.5 0 1.5 
z
" id="mad48bcd213" style="stroke:#ff00ff;"/>
    </defs>
    <g>
     <use style="fill:#ff00ff;stroke:#ff00ff;" x="291.623488" xlink:href="#mad48bcd213" y="235.74167"/>
     <use style="fill:#ff00ff;stroke:#ff00ff;" x="291.623488" xlink:href="#mad48bcd213" y="235.74167"/>
    </g>
   </g>
   <g id="line2d_40">
    <path d="M 123.829748 298.944 
L 123.829748 297.890628 
L 124.538526 297.890628 
L 124.538526 294.730511 
L 125.434921 294.730511 
L 125.434921 294.203825 
L 125.700364 294.203825 
L 125.700364 292.623767 
L 125.97912 292.623767 
L 125.97912 292.097081 
L 126.321413 292.097081 
L 126.321413 291.043709 
L 126.888323 291.043709 
L 126.888323 289.990337 
L 127.642832 289.990337 
L 127.642832 287.883592 
L 127.76807 287.883592 
L 127.76807 287.356906 
L 127.954256 287.356906 
L 128.046609 284.723476 
L 128.5758 284.723476 
L 128.679738 282.090045 
L 129.031467 282.090045 
L 129.074938 281.036673 
L 129.190335 281.036673 
L 129.262072 276.823185 
L 129.362011 276.823185 
L 129.362011 276.296499 
L 129.503795 276.296499 
L 129.503795 275.769812 
L 129.770048 275.769812 
L 129.770048 274.71644 
L 130.358022 274.71644 
L 130.358022 273.663068 
L 131.159516 273.663068 
L 131.159516 273.136382 
L 131.678241 273.136382 
L 131.765283 269.976266 
L 132.230358 269.976266 
L 132.266551 268.922893 
L 132.648014 268.922893 
L 132.648014 268.396207 
L 132.917126 268.396207 
L 132.917126 267.869521 
L 133.997581 267.869521 
L 133.997581 266.289463 
L 134.439378 266.289463 
L 134.439378 265.236091 
L 135.025276 265.236091 
L 135.025276 264.709405 
L 135.671624 264.709405 
L 135.770486 263.129347 
L 137.37967 263.129347 
L 137.37967 262.60266 
L 137.549637 262.60266 
L 137.549637 261.549288 
L 139.123342 261.549288 
L 139.123342 261.022602 
L 140.073083 261.022602 
L 140.073083 260.495916 
L 141.753422 260.495916 
L 141.753422 259.96923 
L 142.113436 259.96923 
L 142.113436 259.442544 
L 142.243147 259.442544 
L 142.243147 257.862486 
L 142.593291 257.862486 
L 142.593291 257.3358 
L 142.884173 257.3358 
L 142.884173 256.809114 
L 143.722546 256.809114 
L 143.722546 256.282427 
L 144.528424 256.282427 
L 144.528424 255.755741 
L 145.166911 255.755741 
L 145.166911 255.229055 
L 148.088619 255.229055 
L 148.088619 254.702369 
L 150.77064 254.702369 
L 150.77064 254.175683 
L 151.449647 254.175683 
L 151.449647 253.648997 
L 152.605966 253.648997 
L 152.605966 253.122311 
L 154.847148 253.122311 
L 154.847148 252.595625 
L 156.520691 252.595625 
L 156.520691 252.068939 
L 157.046598 252.068939 
L 157.046598 251.542253 
L 157.714676 251.542253 
L 157.728676 250.488881 
L 158.110694 250.488881 
L 158.110694 249.962195 
L 159.196108 249.962195 
L 159.196108 249.435508 
L 163.435034 249.435508 
L 163.435034 248.908822 
L 165.208163 248.908822 
L 165.208163 248.382136 
L 165.689922 248.382136 
L 165.689922 247.85545 
L 167.525915 247.85545 
L 167.525915 247.328764 
L 168.60718 247.328764 
L 168.60718 246.802078 
L 169.049979 246.802078 
L 169.049979 246.275392 
L 172.274322 246.275392 
L 172.274322 245.748706 
L 174.221628 245.748706 
L 174.221628 245.22202 
L 184.259912 245.22202 
L 184.259912 244.695334 
L 191.578578 244.695334 
L 191.578578 244.168648 
L 220.079657 244.168648 
L 220.079657 243.641962 
L 220.547092 243.641962 
L 220.547092 242.588589 
L 231.701592 242.588589 
L 231.701592 242.061903 
L 232.177676 242.061903 
L 232.177676 241.535217 
L 247.060515 241.535217 
L 247.060515 241.008531 
L 247.267771 241.008531 
L 247.267771 240.481845 
L 250.287991 240.481845 
L 250.287991 239.955159 
L 252.861558 239.955159 
L 252.861558 238.901787 
L 260.490928 238.901787 
L 260.490928 238.375101 
L 280.367638 238.375101 
L 280.367638 237.848415 
L 286.544953 237.848415 
L 286.544953 237.321729 
L 288.510598 237.321729 
L 288.510598 236.268356 
L 291.623488 236.268356 
L 291.623488 235.74167 
L 338.688 235.74167 
L 338.688 235.74167 
" style="fill:none;stroke:#ff00ff;stroke-linecap:square;stroke-width:1.5;"/>
   </g>
   <g id="line2d_41">
    <defs>
     <path d="M -0 8.485281 
L 5.091169 0 
L 0 -8.485281 
L -5.091169 -0 
z
" id="mb8531b8b5b" style="stroke:#ff00ff;stroke-linejoin:miter;stroke-width:1.5;"/>
    </defs>
    <g>
     <use style="fill-opacity:0;stroke:#ff00ff;stroke-linejoin:miter;stroke-width:1.5;" x="191.578578" xlink:href="#mb8531b8b5b" y="244.168648"/>
     <use style="fill-opacity:0;stroke:#ff00ff;stroke-linejoin:miter;stroke-width:1.5;" x="252.861558" xlink:href="#mb8531b8b5b" y="238.901787"/>
     <use style="fill-opacity:0;stroke:#ff00ff;stroke-linejoin:miter;stroke-width:1.5;" x="291.623488" xlink:href="#mb8531b8b5b" y="235.74167"/>
     <use style="fill-opacity:0;stroke:#ff00ff;stroke-linejoin:miter;stroke-width:1.5;" x="291.623488" xlink:href="#mb8531b8b5b" y="235.74167"/>
     <use style="fill-opacity:0;stroke:#ff00ff;stroke-linejoin:miter;stroke-width:1.5;" x="338.688" xlink:href="#mb8531b8b5b" y="235.74167"/>
    </g>
   </g>
   <g id="line2d_42">
    <path style="fill:none;stroke:#ff00ff;stroke-linecap:square;stroke-width:1.5;"/>
    <g/>
   </g>
   <g id="line2d_43">
    <path clip-path="url(#p432fd4ca79)" d="M 218.221714 244.168648 
" style="fill:none;stroke:#ff00ff;stroke-linecap:square;stroke-width:1.5;"/>
    <defs>
     <path d="M -12 12 
L 12 -12 
M -12 -12 
L 12 12 
" id="m174e1a0c8a" style="stroke:#ff00ff;"/>
    </defs>
    <g clip-path="url(#p432fd4ca79)">
     <use style="fill:#ff00ff;stroke:#ff00ff;" x="218.221714" xlink:href="#m174e1a0c8a" y="244.168648"/>
    </g>
   </g>
   <g id="line2d_44">
    <defs>
     <path d="M 0 1.5 
C 0.397805 1.5 0.77937 1.341951 1.06066 1.06066 
C 1.341951 0.77937 1.5 0.397805 1.5 0 
C 1.5 -0.397805 1.341951 -0.77937 1.06066 -1.06066 
C 0.77937 -1.341951 0.397805 -1.5 0 -1.5 
C -0.397805 -1.5 -0.77937 -1.341951 -1.06066 -1.06066 
C -1.341951 -0.77937 -1.5 -0.397805 -1.5 0 
C -1.5 0.397805 -1.341951 0.77937 -1.06066 1.06066 
C -0.77937 1.341951 -0.397805 1.5 0 1.5 
z
" id="mad9f8482b2" style="stroke:#ff7500;"/>
    </defs>
    <g>
     <use style="fill:#ff7500;stroke:#ff7500;" x="246.56103" xlink:href="#mad9f8482b2" y="241.008531"/>
     <use style="fill:#ff7500;stroke:#ff7500;" x="246.56103" xlink:href="#mad9f8482b2" y="241.008531"/>
    </g>
   </g>
   <g id="line2d_45">
    <path d="M 121.931406 298.944 
L 121.931406 296.31057 
L 123.731719 296.31057 
L 123.731719 295.257197 
L 124.519744 295.257197 
L 124.519744 294.203825 
L 126.013653 294.203825 
L 126.013653 291.570395 
L 126.839037 291.570395 
L 126.839037 290.517023 
L 127.752464 290.517023 
L 127.752464 289.990337 
L 128.260216 289.990337 
L 128.260216 289.463651 
L 128.635269 289.463651 
L 128.635269 288.410278 
L 129.630422 288.410278 
L 129.630422 287.883592 
L 130.263646 287.883592 
L 130.263646 285.776848 
L 130.624887 285.776848 
L 130.7305 281.563359 
L 130.978796 281.563359 
L 130.978796 281.036673 
L 131.52801 281.036673 
L 131.52801 278.403243 
L 131.814826 278.403243 
L 131.814826 277.876557 
L 132.023829 277.876557 
L 132.023829 276.823185 
L 133.443203 276.823185 
L 133.443203 276.296499 
L 134.160516 276.296499 
L 134.160516 275.243126 
L 134.745246 275.243126 
L 134.745246 274.71644 
L 135.138086 274.71644 
L 135.138086 273.136382 
L 135.472201 273.136382 
L 135.472201 271.029638 
L 136.179695 271.029638 
L 136.179695 270.502952 
L 137.271464 270.502952 
L 137.271464 269.976266 
L 137.388657 269.976266 
L 137.388657 269.449579 
L 137.567432 269.449579 
L 137.567432 268.922893 
L 137.980475 268.922893 
L 137.980475 268.396207 
L 138.298892 268.396207 
L 138.298892 267.869521 
L 138.426341 267.869521 
L 138.426341 267.342835 
L 139.253002 267.342835 
L 139.261074 265.762777 
L 139.541262 265.762777 
L 139.652088 264.709405 
L 139.840453 264.709405 
L 139.840453 264.182719 
L 140.00362 264.182719 
L 140.00362 263.129347 
L 140.180592 263.129347 
L 140.180592 262.60266 
L 140.491677 262.60266 
L 140.491677 262.075974 
L 140.79731 262.075974 
L 140.79731 261.022602 
L 141.292695 261.022602 
L 141.292695 259.96923 
L 141.54229 259.96923 
L 141.54229 259.442544 
L 141.830201 259.442544 
L 141.830201 258.389172 
L 142.270332 258.389172 
L 142.270332 257.862486 
L 142.89728 257.862486 
L 142.89728 257.3358 
L 143.337167 257.3358 
L 143.337167 256.809114 
L 145.865929 256.809114 
L 145.865929 256.282427 
L 152.492968 256.282427 
L 152.492968 255.755741 
L 152.740604 255.755741 
L 152.740604 255.229055 
L 154.00503 255.229055 
L 154.00503 254.702369 
L 155.744803 254.702369 
L 155.744803 254.175683 
L 156.058696 254.175683 
L 156.058696 253.648997 
L 157.329512 253.648997 
L 157.329512 253.122311 
L 157.644509 253.122311 
L 157.644509 252.595625 
L 158.673779 252.595625 
L 158.673779 252.068939 
L 160.989209 252.068939 
L 160.989209 251.542253 
L 161.774507 251.542253 
L 161.882915 250.488881 
L 162.489786 250.488881 
L 162.489786 249.962195 
L 163.065945 249.962195 
L 163.065945 249.435508 
L 166.030537 249.435508 
L 166.030537 248.908822 
L 166.895472 248.908822 
L 166.895472 248.382136 
L 169.013383 248.382136 
L 169.013383 247.85545 
L 173.858056 247.85545 
L 173.858056 247.328764 
L 174.096169 247.328764 
L 174.096169 246.802078 
L 174.768439 246.802078 
L 174.768439 246.275392 
L 182.323597 246.275392 
L 182.323597 245.748706 
L 191.772365 245.748706 
L 191.788649 244.695334 
L 219.294386 244.695334 
L 219.294386 244.168648 
L 230.854285 244.168648 
L 230.854285 243.641962 
L 230.981606 243.641962 
L 230.981606 243.115275 
L 232.126917 243.115275 
L 232.126917 242.588589 
L 242.736879 242.588589 
L 242.736879 242.061903 
L 243.329957 242.061903 
L 243.329957 241.535217 
L 246.56103 241.535217 
L 246.56103 241.008531 
L 338.688 241.008531 
L 338.688 241.008531 
" style="fill:none;stroke:#ff7500;stroke-linecap:square;stroke-width:1.5;"/>
   </g>
   <g id="line2d_46">
    <defs>
     <path d="M 0 -6 
L -1.347084 -1.854102 
L -5.706339 -1.854102 
L -2.179628 0.708204 
L -3.526712 4.854102 
L -0 2.291796 
L 3.526712 4.854102 
L 2.179628 0.708204 
L 5.706339 -1.854102 
L 1.347084 -1.854102 
z
" id="mf31659423f" style="stroke:#ff7500;stroke-linejoin:bevel;stroke-width:1.5;"/>
    </defs>
    <g>
     <use style="fill-opacity:0;stroke:#ff7500;stroke-linejoin:bevel;stroke-width:1.5;" x="174.768439" xlink:href="#mf31659423f" y="246.802078"/>
     <use style="fill-opacity:0;stroke:#ff7500;stroke-linejoin:bevel;stroke-width:1.5;" x="246.56103" xlink:href="#mf31659423f" y="241.535217"/>
     <use style="fill-opacity:0;stroke:#ff7500;stroke-linejoin:bevel;stroke-width:1.5;" x="246.56103" xlink:href="#mf31659423f" y="241.008531"/>
     <use style="fill-opacity:0;stroke:#ff7500;stroke-linejoin:bevel;stroke-width:1.5;" x="246.56103" xlink:href="#mf31659423f" y="241.008531"/>
     <use style="fill-opacity:0;stroke:#ff7500;stroke-linejoin:bevel;stroke-width:1.5;" x="338.688" xlink:href="#mf31659423f" y="241.008531"/>
    </g>
   </g>
   <g id="line2d_47">
    <path style="fill:none;stroke:#ff7500;stroke-linecap:square;stroke-width:1.5;"/>
    <g/>
   </g>
   <g id="line2d_48">
    <path clip-path="url(#p432fd4ca79)" d="M 218.221714 244.695334 
" style="fill:none;stroke:#ff7500;stroke-linecap:square;stroke-width:1.5;"/>
    <defs>
     <path d="M -12 12 
L 12 -12 
M -12 -12 
L 12 12 
" id="mf0e1620e6a" style="stroke:#ff7500;"/>
    </defs>
    <g clip-path="url(#p432fd4ca79)">
     <use style="fill:#ff7500;stroke:#ff7500;" x="218.221714" xlink:href="#mf0e1620e6a" y="244.695334"/>
    </g>
   </g>
   <g id="line2d_49">
    <defs>
     <path d="M 0 1.5 
C 0.397805 1.5 0.77937 1.341951 1.06066 1.06066 
C 1.341951 0.77937 1.5 0.397805 1.5 0 
C 1.5 -0.397805 1.341951 -0.77937 1.06066 -1.06066 
C 0.77937 -1.341951 0.397805 -1.5 0 -1.5 
C -0.397805 -1.5 -0.77937 -1.341951 -1.06066 -1.06066 
C -1.341951 -0.77937 -1.5 -0.397805 -1.5 0 
C -1.5 0.397805 -1.341951 0.77937 -1.06066 1.06066 
C -0.77937 1.341951 -0.397805 1.5 0 1.5 
z
" id="mca371f752e" style="stroke:#6495ed;"/>
    </defs>
    <g>
     <use style="fill:#6495ed;stroke:#6495ed;" x="278.198787" xlink:href="#mca371f752e" y="235.74167"/>
     <use style="fill:#6495ed;stroke:#6495ed;" x="278.198787" xlink:href="#mca371f752e" y="235.74167"/>
    </g>
   </g>
   <g id="line2d_50">
    <path d="M 130.277159 298.944 
L 130.277159 298.417314 
L 133.744754 298.417314 
L 133.744754 294.730511 
L 134.268299 294.730511 
L 134.268299 293.150453 
L 134.439378 293.150453 
L 134.439378 292.623767 
L 134.55603 292.623767 
L 134.55603 289.990337 
L 135.421987 289.990337 
L 135.421987 289.463651 
L 135.878591 289.463651 
L 135.956794 285.250162 
L 137.262416 285.250162 
L 137.262416 281.563359 
L 137.513992 281.563359 
L 137.52291 279.983301 
L 138.400926 279.983301 
L 138.400926 278.929929 
L 138.65343 278.929929 
L 138.65343 276.296499 
L 139.477614 276.296499 
L 139.580923 274.189754 
L 140.27983 274.189754 
L 140.317849 272.609696 
L 140.4012 272.609696 
L 140.469102 271.029638 
L 140.626517 271.029638 
L 140.626517 270.502952 
L 141.46423 270.502952 
L 141.46423 269.449579 
L 141.760416 269.449579 
L 141.760416 268.922893 
L 141.89277 268.922893 
L 141.89277 268.396207 
L 142.745948 268.396207 
L 142.778958 265.762777 
L 143.2025 265.762777 
L 143.228231 264.709405 
L 143.816021 264.709405 
L 143.822235 263.656033 
L 143.995331 263.656033 
L 144.099593 262.60266 
L 144.40869 262.60266 
L 144.46866 261.549288 
L 148.030146 261.549288 
L 148.030146 260.495916 
L 148.306159 260.495916 
L 148.306159 259.442544 
L 152.447563 259.442544 
L 152.447563 258.389172 
L 156.406335 258.389172 
L 156.406335 257.862486 
L 157.709073 257.862486 
L 157.709073 257.3358 
L 158.401243 257.3358 
L 158.401243 256.809114 
L 158.668475 256.809114 
L 158.668475 256.282427 
L 159.509741 256.282427 
L 159.509741 255.755741 
L 162.839849 255.755741 
L 162.839849 255.229055 
L 164.50142 255.229055 
L 164.50142 254.702369 
L 164.98806 254.702369 
L 164.98806 254.175683 
L 165.308123 254.175683 
L 165.308123 253.648997 
L 165.490206 253.648997 
L 165.490206 253.122311 
L 166.186323 253.122311 
L 166.186323 252.595625 
L 167.23465 252.595625 
L 167.23465 252.068939 
L 169.252062 252.068939 
L 169.252062 251.542253 
L 170.772368 251.542253 
L 170.772368 251.015567 
L 173.394661 251.015567 
L 173.394661 250.488881 
L 176.506647 250.488881 
L 176.506647 249.962195 
L 177.473864 249.962195 
L 177.473864 249.435508 
L 179.345342 249.435508 
L 179.345342 248.908822 
L 179.799624 248.908822 
L 179.799624 248.382136 
L 180.446673 248.382136 
L 180.502117 247.328764 
L 183.363721 247.328764 
L 183.363721 246.802078 
L 183.887345 246.802078 
L 183.887345 246.275392 
L 184.525629 246.275392 
L 184.525629 245.748706 
L 186.46168 245.748706 
L 186.46168 245.22202 
L 188.606551 245.22202 
L 188.606551 244.695334 
L 192.247423 244.695334 
L 192.247423 244.168648 
L 193.301102 244.168648 
L 193.34981 243.115275 
L 196.087073 243.115275 
L 196.087073 242.588589 
L 202.110975 242.588589 
L 202.110975 242.061903 
L 204.71975 242.061903 
L 204.71975 241.535217 
L 220.1199 241.535217 
L 220.1199 241.008531 
L 220.837618 241.008531 
L 220.837618 240.481845 
L 221.966772 240.481845 
L 221.966772 239.955159 
L 231.666657 239.955159 
L 231.666657 239.428473 
L 252.555582 239.428473 
L 252.555582 238.901787 
L 258.657112 238.901787 
L 258.657112 238.375101 
L 265.635307 238.375101 
L 265.635307 237.848415 
L 270.605678 237.848415 
L 270.605678 236.795043 
L 277.041982 236.795043 
L 277.041982 236.268356 
L 278.198787 236.268356 
L 278.198787 235.74167 
L 338.688 235.74167 
L 338.688 235.74167 
" style="fill:none;stroke:#6495ed;stroke-linecap:square;stroke-width:1.5;"/>
   </g>
   <g id="line2d_51">
    <defs>
     <path d="M -0 6 
L 6 -6 
L -6 -6 
z
" id="m8464cf3aa3" style="stroke:#6495ed;stroke-linejoin:miter;stroke-width:1.5;"/>
    </defs>
    <g>
     <use style="fill-opacity:0;stroke:#6495ed;stroke-linejoin:miter;stroke-width:1.5;" x="173.394661" xlink:href="#m8464cf3aa3" y="251.015567"/>
     <use style="fill-opacity:0;stroke:#6495ed;stroke-linejoin:miter;stroke-width:1.5;" x="231.666657" xlink:href="#m8464cf3aa3" y="239.428473"/>
     <use style="fill-opacity:0;stroke:#6495ed;stroke-linejoin:miter;stroke-width:1.5;" x="278.198787" xlink:href="#m8464cf3aa3" y="235.74167"/>
     <use style="fill-opacity:0;stroke:#6495ed;stroke-linejoin:miter;stroke-width:1.5;" x="278.198787" xlink:href="#m8464cf3aa3" y="235.74167"/>
     <use style="fill-opacity:0;stroke:#6495ed;stroke-linejoin:miter;stroke-width:1.5;" x="338.688" xlink:href="#m8464cf3aa3" y="235.74167"/>
    </g>
   </g>
   <g id="line2d_52">
    <path style="fill:none;stroke:#6495ed;stroke-linecap:square;stroke-width:1.5;"/>
    <g/>
   </g>
   <g id="line2d_53">
    <path clip-path="url(#p432fd4ca79)" d="M 218.221714 241.535217 
" style="fill:none;stroke:#6495ed;stroke-linecap:square;stroke-width:1.5;"/>
    <defs>
     <path d="M -12 12 
L 12 -12 
M -12 -12 
L 12 12 
" id="mbb219ceaf4" style="stroke:#6495ed;"/>
    </defs>
    <g clip-path="url(#p432fd4ca79)">
     <use style="fill:#6495ed;stroke:#6495ed;" x="218.221714" xlink:href="#mbb219ceaf4" y="241.535217"/>
    </g>
   </g>
   <g id="line2d_54">
    <defs>
     <path d="M 0 1.5 
C 0.397805 1.5 0.77937 1.341951 1.06066 1.06066 
C 1.341951 0.77937 1.5 0.397805 1.5 0 
C 1.5 -0.397805 1.341951 -0.77937 1.06066 -1.06066 
C 0.77937 -1.341951 0.397805 -1.5 0 -1.5 
C -0.397805 -1.5 -0.77937 -1.341951 -1.06066 -1.06066 
C -1.341951 -0.77937 -1.5 -0.397805 -1.5 0 
C -1.5 0.397805 -1.341951 0.77937 -1.06066 1.06066 
C -0.77937 1.341951 -0.397805 1.5 0 1.5 
z
" id="m53198e65d3" style="stroke:#ff0000;"/>
    </defs>
    <g>
     <use style="fill:#ff0000;stroke:#ff0000;" x="263.828475" xlink:href="#m53198e65d3" y="235.74167"/>
     <use style="fill:#ff0000;stroke:#ff0000;" x="263.828475" xlink:href="#m53198e65d3" y="235.74167"/>
    </g>
   </g>
   <g id="line2d_55">
    <path d="M 139.707238 298.944 
L 139.785723 297.363942 
L 140.84896 297.363942 
L 140.84896 296.31057 
L 141.549369 296.31057 
L 141.549369 295.783884 
L 142.818488 295.783884 
L 142.844792 293.150453 
L 144.001481 293.150453 
L 144.001481 292.623767 
L 144.318346 292.623767 
L 144.318346 289.990337 
L 144.528424 289.990337 
L 144.528424 287.883592 
L 144.688773 287.883592 
L 144.688773 285.250162 
L 145.281568 285.250162 
L 145.281568 284.723476 
L 146.40993 284.723476 
L 146.447382 282.616732 
L 146.88022 282.616732 
L 146.88022 282.090045 
L 147.378739 282.090045 
L 147.388869 280.509987 
L 147.61026 280.509987 
L 147.61026 279.983301 
L 147.873256 279.983301 
L 147.873256 279.456615 
L 148.320566 279.456615 
L 148.38764 278.403243 
L 149.012299 278.403243 
L 149.058374 276.296499 
L 149.264217 276.296499 
L 149.264217 275.243126 
L 149.44067 275.243126 
L 149.51703 273.663068 
L 149.624267 273.663068 
L 149.624267 272.609696 
L 149.7397 272.609696 
L 149.7397 272.08301 
L 150.051085 272.08301 
L 150.051085 271.556324 
L 150.657656 271.556324 
L 150.745596 269.976266 
L 150.787316 269.976266 
L 150.808139 266.816149 
L 151.818809 266.816149 
L 151.818809 265.762777 
L 151.951845 265.762777 
L 152.029629 263.129347 
L 152.428609 263.129347 
L 152.428609 261.549288 
L 152.564618 261.549288 
L 152.620977 259.96923 
L 153.984228 259.96923 
L 153.984228 259.442544 
L 154.483504 259.442544 
L 154.483504 258.915858 
L 154.870244 258.915858 
L 154.870244 258.389172 
L 156.496678 258.389172 
L 156.496678 257.862486 
L 157.297984 257.862486 
L 157.297984 257.3358 
L 159.39565 257.3358 
L 159.39565 256.809114 
L 166.239662 256.809114 
L 166.239662 256.282427 
L 171.463278 256.282427 
L 171.569909 255.229055 
L 172.256081 255.229055 
L 172.256081 254.702369 
L 172.648288 254.702369 
L 172.648288 254.175683 
L 173.289481 254.175683 
L 173.289481 253.648997 
L 173.589616 253.648997 
L 173.589616 253.122311 
L 174.579904 253.122311 
L 174.579904 252.595625 
L 176.80258 252.595625 
L 176.80258 252.068939 
L 177.792974 252.068939 
L 177.792974 251.542253 
L 180.943869 251.542253 
L 180.943869 251.015567 
L 184.415102 251.015567 
L 184.415102 250.488881 
L 185.155317 250.488881 
L 185.217921 249.435508 
L 185.875978 249.435508 
L 185.875978 248.908822 
L 186.407176 248.908822 
L 186.407176 248.382136 
L 188.494226 248.382136 
L 188.494226 247.85545 
L 188.663631 247.85545 
L 188.663631 247.328764 
L 191.021741 247.328764 
L 191.021741 246.802078 
L 192.020524 246.802078 
L 192.020524 246.275392 
L 199.492477 246.275392 
L 199.492477 245.748706 
L 199.795332 245.748706 
L 199.795332 245.22202 
L 200.295514 245.22202 
L 200.295514 244.695334 
L 201.169924 244.695334 
L 201.169924 244.168648 
L 201.948124 244.168648 
L 201.948124 243.641962 
L 202.932112 243.641962 
L 202.932112 243.115275 
L 206.087975 243.115275 
L 206.087975 242.588589 
L 206.2122 242.588589 
L 206.2122 242.061903 
L 206.411404 242.061903 
L 206.411404 241.535217 
L 213.981378 241.535217 
L 213.981378 241.008531 
L 214.225958 241.008531 
L 214.225958 240.481845 
L 226.825398 240.481845 
L 226.825398 239.428473 
L 228.426016 239.428473 
L 228.426016 238.901787 
L 240.742413 238.901787 
L 240.742413 238.375101 
L 248.863144 238.375101 
L 248.863144 237.848415 
L 251.313794 237.848415 
L 251.313794 237.321729 
L 257.791215 237.321729 
L 257.791215 236.795043 
L 259.507443 236.795043 
L 259.507443 236.268356 
L 263.828475 236.268356 
L 263.828475 235.74167 
L 338.688 235.74167 
L 338.688 235.74167 
" style="fill:none;stroke:#ff0000;stroke-linecap:square;stroke-width:1.5;"/>
   </g>
   <g id="line2d_56">
    <defs>
     <path d="M 0 -6 
L -5.196152 -3 
L -5.196152 3 
L -0 6 
L 5.196152 3 
L 5.196152 -3 
z
" id="me4d6c88e32" style="stroke:#ff0000;stroke-linejoin:miter;stroke-width:1.5;"/>
    </defs>
    <g>
     <use style="fill-opacity:0;stroke:#ff0000;stroke-linejoin:miter;stroke-width:1.5;" x="184.415102" xlink:href="#me4d6c88e32" y="250.488881"/>
     <use style="fill-opacity:0;stroke:#ff0000;stroke-linejoin:miter;stroke-width:1.5;" x="248.863144" xlink:href="#me4d6c88e32" y="237.848415"/>
     <use style="fill-opacity:0;stroke:#ff0000;stroke-linejoin:miter;stroke-width:1.5;" x="263.828475" xlink:href="#me4d6c88e32" y="235.74167"/>
     <use style="fill-opacity:0;stroke:#ff0000;stroke-linejoin:miter;stroke-width:1.5;" x="263.828475" xlink:href="#me4d6c88e32" y="235.74167"/>
     <use style="fill-opacity:0;stroke:#ff0000;stroke-linejoin:miter;stroke-width:1.5;" x="338.688" xlink:href="#me4d6c88e32" y="235.74167"/>
    </g>
   </g>
   <g id="line2d_57">
    <path style="fill:none;stroke:#ff0000;stroke-linecap:square;stroke-width:1.5;"/>
    <g/>
   </g>
   <g id="line2d_58">
    <path clip-path="url(#p432fd4ca79)" d="M 218.221714 240.481845 
" style="fill:none;stroke:#ff0000;stroke-linecap:square;stroke-width:1.5;"/>
    <defs>
     <path d="M -12 12 
L 12 -12 
M -12 -12 
L 12 12 
" id="m82fceda6ff" style="stroke:#ff0000;"/>
    </defs>
    <g clip-path="url(#p432fd4ca79)">
     <use style="fill:#ff0000;stroke:#ff0000;" x="218.221714" xlink:href="#m82fceda6ff" y="240.481845"/>
    </g>
   </g>
   <g id="line2d_59">
    <defs>
     <path d="M 0 1.5 
C 0.397805 1.5 0.77937 1.341951 1.06066 1.06066 
C 1.341951 0.77937 1.5 0.397805 1.5 0 
C 1.5 -0.397805 1.341951 -0.77937 1.06066 -1.06066 
C 0.77937 -1.341951 0.397805 -1.5 0 -1.5 
C -0.397805 -1.5 -0.77937 -1.341951 -1.06066 -1.06066 
C -1.341951 -0.77937 -1.5 -0.397805 -1.5 0 
C -1.5 0.397805 -1.341951 0.77937 -1.06066 1.06066 
C -0.77937 1.341951 -0.397805 1.5 0 1.5 
z
" id="m5477bbd005" style="stroke:#9acd32;"/>
    </defs>
    <g>
     <use style="fill:#9acd32;stroke:#9acd32;" x="249.348563" xlink:href="#m5477bbd005" y="246.275392"/>
     <use style="fill:#9acd32;stroke:#9acd32;" x="249.348563" xlink:href="#m5477bbd005" y="246.275392"/>
    </g>
   </g>
   <g id="line2d_60">
    <path d="M 170.360846 298.944 
L 170.360846 298.417314 
L 171.980146 298.417314 
L 171.980146 297.890628 
L 172.224417 297.890628 
L 172.224417 296.31057 
L 172.524122 296.31057 
L 172.524122 295.257197 
L 172.848191 295.257197 
L 172.848191 294.203825 
L 173.034197 294.203825 
L 173.034197 291.570395 
L 173.526381 291.570395 
L 173.526381 289.463651 
L 173.53656 289.463651 
L 173.53656 288.410278 
L 173.764571 288.410278 
L 173.764571 287.356906 
L 174.404376 287.356906 
L 174.404376 285.776848 
L 174.616074 285.776848 
L 174.616074 284.723476 
L 174.824184 284.723476 
L 174.824184 284.19679 
L 175.573393 284.19679 
L 175.573393 283.143418 
L 176.141459 283.143418 
L 176.141459 281.563359 
L 176.317781 281.563359 
L 176.317781 279.456615 
L 176.932407 279.456615 
L 176.932407 278.403243 
L 177.037243 278.403243 
L 177.037243 275.769812 
L 177.209359 275.769812 
L 177.209359 274.71644 
L 177.32438 274.71644 
L 177.32438 274.189754 
L 177.859278 274.189754 
L 177.859278 273.663068 
L 178.50031 273.663068 
L 178.50031 273.136382 
L 178.599539 273.136382 
L 178.599539 272.08301 
L 178.715857 272.08301 
L 178.715857 271.556324 
L 178.903859 271.556324 
L 178.903859 271.029638 
L 179.080808 271.029638 
L 179.080808 270.502952 
L 179.239683 270.502952 
L 179.239683 268.396207 
L 179.788568 268.396207 
L 179.788568 265.762777 
L 180.585331 265.762777 
L 180.585331 265.236091 
L 181.458176 265.236091 
L 181.458176 264.709405 
L 181.608275 264.709405 
L 181.608275 264.182719 
L 181.682843 264.182719 
L 181.682843 263.129347 
L 181.989111 263.129347 
L 181.989111 262.60266 
L 182.561055 262.60266 
L 182.561055 262.075974 
L 183.264981 262.075974 
L 183.264981 259.96923 
L 183.678767 259.96923 
L 183.678767 258.389172 
L 184.107646 258.389172 
L 184.107646 257.862486 
L 184.473171 257.862486 
L 184.473171 257.3358 
L 185.17621 257.3358 
L 185.17621 256.809114 
L 196.69171 256.809114 
L 196.69171 256.282427 
L 201.913505 256.282427 
L 201.913505 255.755741 
L 202.887003 255.755741 
L 202.887003 255.229055 
L 203.643649 255.229055 
L 203.643649 254.702369 
L 205.482932 254.702369 
L 205.482932 254.175683 
L 205.975358 254.175683 
L 205.975358 253.648997 
L 206.037194 253.648997 
L 206.037194 253.122311 
L 206.385983 253.122311 
L 206.385983 252.595625 
L 208.897674 252.595625 
L 208.897674 252.068939 
L 209.388834 252.068939 
L 209.388834 251.542253 
L 212.617496 251.542253 
L 212.617496 251.015567 
L 213.682941 251.015567 
L 213.682941 250.488881 
L 215.012031 250.488881 
L 215.012031 249.962195 
L 215.20539 249.962195 
L 215.20539 249.435508 
L 215.987239 249.435508 
L 215.987239 248.908822 
L 217.395991 248.908822 
L 217.395991 248.382136 
L 227.73175 248.382136 
L 227.73175 247.85545 
L 228.380007 247.85545 
L 228.380007 247.328764 
L 229.669902 247.328764 
L 229.669902 246.802078 
L 249.348563 246.802078 
L 249.348563 246.275392 
L 338.688 246.275392 
" style="fill:none;stroke:#9acd32;stroke-linecap:square;stroke-width:1.5;"/>
   </g>
   <g id="line2d_61">
    <defs>
     <path d="M 0 -6 
L -6 6 
L 6 6 
z
" id="m010bf43901" style="stroke:#9acd32;stroke-linejoin:miter;stroke-width:1.5;"/>
    </defs>
    <g>
     <use style="fill-opacity:0;stroke:#9acd32;stroke-linejoin:miter;stroke-width:1.5;" x="249.348563" xlink:href="#m010bf43901" y="246.802078"/>
     <use style="fill-opacity:0;stroke:#9acd32;stroke-linejoin:miter;stroke-width:1.5;" x="249.348563" xlink:href="#m010bf43901" y="246.275392"/>
     <use style="fill-opacity:0;stroke:#9acd32;stroke-linejoin:miter;stroke-width:1.5;" x="249.348563" xlink:href="#m010bf43901" y="246.275392"/>
     <use style="fill-opacity:0;stroke:#9acd32;stroke-linejoin:miter;stroke-width:1.5;" x="338.688" xlink:href="#m010bf43901" y="246.275392"/>
    </g>
   </g>
   <g id="line2d_62">
    <path style="fill:none;stroke:#9acd32;stroke-linecap:square;stroke-width:1.5;"/>
    <g/>
   </g>
   <g id="line2d_63">
    <path clip-path="url(#p432fd4ca79)" d="M 218.221714 248.382136 
" style="fill:none;stroke:#9acd32;stroke-linecap:square;stroke-width:1.5;"/>
    <defs>
     <path d="M -12 12 
L 12 -12 
M -12 -12 
L 12 12 
" id="m3874370393" style="stroke:#9acd32;"/>
    </defs>
    <g clip-path="url(#p432fd4ca79)">
     <use style="fill:#9acd32;stroke:#9acd32;" x="218.221714" xlink:href="#m3874370393" y="248.382136"/>
    </g>
   </g>
   <g id="line2d_64">
    <path d="M 338.688 246.275392 
L 369.60768 293.571802 
" style="fill:none;stroke:#9acd32;stroke-linecap:square;stroke-width:1.5;"/>
    <g>
     <use style="fill-opacity:0;stroke:#9acd32;stroke-linejoin:miter;stroke-width:1.5;" x="338.688" xlink:href="#m010bf43901" y="246.275392"/>
     <use style="fill-opacity:0;stroke:#9acd32;stroke-linejoin:miter;stroke-width:1.5;" x="369.60768" xlink:href="#m010bf43901" y="293.571802"/>
    </g>
   </g>
   <g id="line2d_65">
    <path d="M 338.688 241.008531 
L 369.60768 250.594218 
" style="fill:none;stroke:#000080;stroke-linecap:square;stroke-width:1.5;"/>
    <g>
     <use style="fill-opacity:0;stroke:#000080;stroke-width:1.5;" x="338.688" xlink:href="#m2c85098a78" y="241.008531"/>
     <use style="fill-opacity:0;stroke:#000080;stroke-width:1.5;" x="369.60768" xlink:href="#m2c85098a78" y="250.594218"/>
    </g>
   </g>
   <g id="line2d_66">
    <path d="M 338.688 241.008531 
L 369.60768 207.616634 
" style="fill:none;stroke:#ff7500;stroke-linecap:square;stroke-width:1.5;"/>
    <g>
     <use style="fill-opacity:0;stroke:#ff7500;stroke-linejoin:bevel;stroke-width:1.5;" x="338.688" xlink:href="#mf31659423f" y="241.008531"/>
     <use style="fill-opacity:0;stroke:#ff7500;stroke-linejoin:bevel;stroke-width:1.5;" x="369.60768" xlink:href="#mf31659423f" y="207.616634"/>
    </g>
   </g>
   <g id="line2d_67">
    <path d="M 338.688 235.74167 
L 369.60768 164.63905 
" style="fill:none;stroke:#ff00ff;stroke-linecap:square;stroke-width:1.5;"/>
    <g>
     <use style="fill-opacity:0;stroke:#ff00ff;stroke-linejoin:miter;stroke-width:1.5;" x="338.688" xlink:href="#mb8531b8b5b" y="235.74167"/>
     <use style="fill-opacity:0;stroke:#ff00ff;stroke-linejoin:miter;stroke-width:1.5;" x="369.60768" xlink:href="#mb8531b8b5b" y="164.63905"/>
    </g>
   </g>
   <g id="line2d_68">
    <path d="M 338.688 235.74167 
L 369.60768 121.661465 
" style="fill:none;stroke:#6495ed;stroke-linecap:square;stroke-width:1.5;"/>
    <g>
     <use style="fill-opacity:0;stroke:#6495ed;stroke-linejoin:miter;stroke-width:1.5;" x="338.688" xlink:href="#m8464cf3aa3" y="235.74167"/>
     <use style="fill-opacity:0;stroke:#6495ed;stroke-linejoin:miter;stroke-width:1.5;" x="369.60768" xlink:href="#m8464cf3aa3" y="121.661465"/>
    </g>
   </g>
   <g id="line2d_69">
    <path d="M 338.688 235.74167 
L 369.60768 78.683881 
" style="fill:none;stroke:#ff0000;stroke-linecap:square;stroke-width:1.5;"/>
    <g>
     <use style="fill-opacity:0;stroke:#ff0000;stroke-linejoin:miter;stroke-width:1.5;" x="338.688" xlink:href="#me4d6c88e32" y="235.74167"/>
     <use style="fill-opacity:0;stroke:#ff0000;stroke-linejoin:miter;stroke-width:1.5;" x="369.60768" xlink:href="#me4d6c88e32" y="78.683881"/>
    </g>
   </g>
   <g id="line2d_70">
    <path d="M 338.688 298.944 
L 338.688 30.334099 
" style="fill:none;stroke:#000000;stroke-linecap:square;stroke-width:1.5;"/>
   </g>
   <g id="patch_3">
    <path d="M 57.6 298.944 
L 57.6 27.648 
" style="fill:none;stroke:#000000;stroke-linecap:square;stroke-linejoin:miter;stroke-width:0.8;"/>
   </g>
   <g id="patch_4">
    <path d="M 338.688 298.944 
L 338.688 27.648 
" style="fill:none;stroke:#000000;stroke-linecap:square;stroke-linejoin:miter;stroke-width:0.8;"/>
   </g>
   <g id="patch_5">
    <path d="M 57.6 298.944 
L 338.688 298.944 
" style="fill:none;stroke:#000000;stroke-linecap:square;stroke-linejoin:miter;stroke-width:0.8;"/>
   </g>
   <g id="patch_6">
    <path d="M 57.6 27.648 
L 338.688 27.648 
" style="fill:none;stroke:#000000;stroke-linecap:square;stroke-linejoin:miter;stroke-width:0.8;"/>
   </g>
   <g id="text_13">
    <!-- pop100xDI -->
    <g transform="translate(375.22944 298.262739)scale(0.17 -0.17)">
     <defs>
      <path d="M 54.890625 54.6875 
L 35.109375 28.078125 
L 55.90625 0 
L 45.3125 0 
L 29.390625 21.484375 
L 13.484375 0 
L 2.875 0 
L 24.125 28.609375 
L 4.6875 54.6875 
L 15.28125 54.6875 
L 29.78125 35.203125 
L 44.28125 54.6875 
z
" id="DejaVuSans-120"/>
      <path d="M 19.671875 64.796875 
L 19.671875 8.109375 
L 31.59375 8.109375 
Q 46.6875 8.109375 53.6875 14.9375 
Q 60.6875 21.78125 60.6875 36.53125 
Q 60.6875 51.171875 53.6875 57.984375 
Q 46.6875 64.796875 31.59375 64.796875 
z
M 9.8125 72.90625 
L 30.078125 72.90625 
Q 51.265625 72.90625 61.171875 64.09375 
Q 71.09375 55.28125 71.09375 36.53125 
Q 71.09375 17.671875 61.125 8.828125 
Q 51.171875 0 30.078125 0 
L 9.8125 0 
z
" id="DejaVuSans-68"/>
      <path d="M 9.8125 72.90625 
L 19.671875 72.90625 
L 19.671875 0 
L 9.8125 0 
z
" id="DejaVuSans-73"/>
     </defs>
     <use xlink:href="#DejaVuSans-112"/>
     <use x="63.476562" xlink:href="#DejaVuSans-111"/>
     <use x="124.658203" xlink:href="#DejaVuSans-112"/>
     <use x="188.134766" xlink:href="#DejaVuSans-49"/>
     <use x="251.757812" xlink:href="#DejaVuSans-48"/>
     <use x="315.380859" xlink:href="#DejaVuSans-48"/>
     <use x="379.003906" xlink:href="#DejaVuSans-120"/>
     <use x="438.183594" xlink:href="#DejaVuSans-68"/>
     <use x="515.185547" xlink:href="#DejaVuSans-73"/>
    </g>
   </g>
   <g id="text_14">
    <!-- pop10 -->
    <g transform="translate(375.22944 255.285155)scale(0.17 -0.17)">
     <use xlink:href="#DejaVuSans-112"/>
     <use x="63.476562" xlink:href="#DejaVuSans-111"/>
     <use x="124.658203" xlink:href="#DejaVuSans-112"/>
     <use x="188.134766" xlink:href="#DejaVuSans-49"/>
     <use x="251.757812" xlink:href="#DejaVuSans-48"/>
    </g>
   </g>
   <g id="text_15">
    <!-- pop50 -->
    <g transform="translate(375.22944 212.307571)scale(0.17 -0.17)">
     <defs>
      <path d="M 10.796875 72.90625 
L 49.515625 72.90625 
L 49.515625 64.59375 
L 19.828125 64.59375 
L 19.828125 46.734375 
Q 21.96875 47.46875 24.109375 47.828125 
Q 26.265625 48.1875 28.421875 48.1875 
Q 40.625 48.1875 47.75 41.5 
Q 54.890625 34.8125 54.890625 23.390625 
Q 54.890625 11.625 47.5625 5.09375 
Q 40.234375 -1.421875 26.90625 -1.421875 
Q 22.3125 -1.421875 17.546875 -0.640625 
Q 12.796875 0.140625 7.71875 1.703125 
L 7.71875 11.625 
Q 12.109375 9.234375 16.796875 8.0625 
Q 21.484375 6.890625 26.703125 6.890625 
Q 35.15625 6.890625 40.078125 11.328125 
Q 45.015625 15.765625 45.015625 23.390625 
Q 45.015625 31 40.078125 35.4375 
Q 35.15625 39.890625 26.703125 39.890625 
Q 22.75 39.890625 18.8125 39.015625 
Q 14.890625 38.140625 10.796875 36.28125 
z
" id="DejaVuSans-53"/>
     </defs>
     <use xlink:href="#DejaVuSans-112"/>
     <use x="63.476562" xlink:href="#DejaVuSans-111"/>
     <use x="124.658203" xlink:href="#DejaVuSans-112"/>
     <use x="188.134766" xlink:href="#DejaVuSans-53"/>
     <use x="251.757812" xlink:href="#DejaVuSans-48"/>
    </g>
   </g>
   <g id="text_16">
    <!-- pop40 -->
    <g transform="translate(375.22944 169.329987)scale(0.17 -0.17)">
     <use xlink:href="#DejaVuSans-112"/>
     <use x="63.476562" xlink:href="#DejaVuSans-111"/>
     <use x="124.658203" xlink:href="#DejaVuSans-112"/>
     <use x="188.134766" xlink:href="#DejaVuSans-52"/>
     <use x="251.757812" xlink:href="#DejaVuSans-48"/>
    </g>
   </g>
   <g id="text_17">
    <!-- pop100 -->
    <g transform="translate(375.22944 126.352403)scale(0.17 -0.17)">
     <use xlink:href="#DejaVuSans-112"/>
     <use x="63.476562" xlink:href="#DejaVuSans-111"/>
     <use x="124.658203" xlink:href="#DejaVuSans-112"/>
     <use x="188.134766" xlink:href="#DejaVuSans-49"/>
     <use x="251.757812" xlink:href="#DejaVuSans-48"/>
     <use x="315.380859" xlink:href="#DejaVuSans-48"/>
    </g>
   </g>
   <g id="text_18">
    <!-- pop200 -->
    <g transform="translate(375.22944 83.374819)scale(0.17 -0.17)">
     <use xlink:href="#DejaVuSans-112"/>
     <use x="63.476562" xlink:href="#DejaVuSans-111"/>
     <use x="124.658203" xlink:href="#DejaVuSans-112"/>
     <use x="188.134766" xlink:href="#DejaVuSans-50"/>
     <use x="251.757812" xlink:href="#DejaVuSans-48"/>
     <use x="315.380859" xlink:href="#DejaVuSans-48"/>
    </g>
   </g>
   <g id="text_19">
    <!-- best 2009 -->
    <g transform="translate(375.22944 40.397235)scale(0.17 -0.17)">
     <defs>
      <path d="M 48.6875 27.296875 
Q 48.6875 37.203125 44.609375 42.84375 
Q 40.53125 48.484375 33.40625 48.484375 
Q 26.265625 48.484375 22.1875 42.84375 
Q 18.109375 37.203125 18.109375 27.296875 
Q 18.109375 17.390625 22.1875 11.75 
Q 26.265625 6.109375 33.40625 6.109375 
Q 40.53125 6.109375 44.609375 11.75 
Q 48.6875 17.390625 48.6875 27.296875 
z
M 18.109375 46.390625 
Q 20.953125 51.265625 25.265625 53.625 
Q 29.59375 56 35.59375 56 
Q 45.5625 56 51.78125 48.09375 
Q 58.015625 40.1875 58.015625 27.296875 
Q 58.015625 14.40625 51.78125 6.484375 
Q 45.5625 -1.421875 35.59375 -1.421875 
Q 29.59375 -1.421875 25.265625 0.953125 
Q 20.953125 3.328125 18.109375 8.203125 
L 18.109375 0 
L 9.078125 0 
L 9.078125 75.984375 
L 18.109375 75.984375 
z
" id="DejaVuSans-98"/>
      <path d="M 10.984375 1.515625 
L 10.984375 10.5 
Q 14.703125 8.734375 18.5 7.8125 
Q 22.3125 6.890625 25.984375 6.890625 
Q 35.75 6.890625 40.890625 13.453125 
Q 46.046875 20.015625 46.78125 33.40625 
Q 43.953125 29.203125 39.59375 26.953125 
Q 35.25 24.703125 29.984375 24.703125 
Q 19.046875 24.703125 12.671875 31.3125 
Q 6.296875 37.9375 6.296875 49.421875 
Q 6.296875 60.640625 12.9375 67.421875 
Q 19.578125 74.21875 30.609375 74.21875 
Q 43.265625 74.21875 49.921875 64.515625 
Q 56.59375 54.828125 56.59375 36.375 
Q 56.59375 19.140625 48.40625 8.859375 
Q 40.234375 -1.421875 26.421875 -1.421875 
Q 22.703125 -1.421875 18.890625 -0.6875 
Q 15.09375 0.046875 10.984375 1.515625 
z
M 30.609375 32.421875 
Q 37.25 32.421875 41.125 36.953125 
Q 45.015625 41.5 45.015625 49.421875 
Q 45.015625 57.28125 41.125 61.84375 
Q 37.25 66.40625 30.609375 66.40625 
Q 23.96875 66.40625 20.09375 61.84375 
Q 16.21875 57.28125 16.21875 49.421875 
Q 16.21875 41.5 20.09375 36.953125 
Q 23.96875 32.421875 30.609375 32.421875 
z
" id="DejaVuSans-57"/>
     </defs>
     <use xlink:href="#DejaVuSans-98"/>
     <use x="63.476562" xlink:href="#DejaVuSans-101"/>
     <use x="125" xlink:href="#DejaVuSans-115"/>
     <use x="177.099609" xlink:href="#DejaVuSans-116"/>
     <use x="216.308594" xlink:href="#DejaVuSans-32"/>
     <use x="248.095703" xlink:href="#DejaVuSans-50"/>
     <use x="311.71875" xlink:href="#DejaVuSans-48"/>
     <use x="375.341797" xlink:href="#DejaVuSans-48"/>
     <use x="438.964844" xlink:href="#DejaVuSans-57"/>
    </g>
   </g>
   <g id="text_20">
    <!-- bbob f20, 20-D -->
    <g transform="translate(60.41088 38.111366)scale(0.102 -0.102)">
     <use xlink:href="#DejaVuSans-98"/>
     <use x="63.476562" xlink:href="#DejaVuSans-98"/>
     <use x="126.953125" xlink:href="#DejaVuSans-111"/>
     <use x="188.134766" xlink:href="#DejaVuSans-98"/>
     <use x="251.611328" xlink:href="#DejaVuSans-32"/>
     <use x="283.398438" xlink:href="#DejaVuSans-102"/>
     <use x="318.603516" xlink:href="#DejaVuSans-50"/>
     <use x="382.226562" xlink:href="#DejaVuSans-48"/>
     <use x="445.849609" xlink:href="#DejaVuSans-44"/>
     <use x="477.636719" xlink:href="#DejaVuSans-32"/>
     <use x="509.423828" xlink:href="#DejaVuSans-50"/>
     <use x="573.046875" xlink:href="#DejaVuSans-48"/>
     <use x="636.669922" xlink:href="#DejaVuSans-45"/>
     <use x="672.753906" xlink:href="#DejaVuSans-68"/>
    </g>
    <!-- 51 targets: 100..1e-08 -->
    <g transform="translate(60.41088 49.533135)scale(0.102 -0.102)">
     <defs>
      <path d="M 11.71875 12.40625 
L 22.015625 12.40625 
L 22.015625 0 
L 11.71875 0 
z
M 11.71875 51.703125 
L 22.015625 51.703125 
L 22.015625 39.3125 
L 11.71875 39.3125 
z
" id="DejaVuSans-58"/>
     </defs>
     <use xlink:href="#DejaVuSans-53"/>
     <use x="63.623047" xlink:href="#DejaVuSans-49"/>
     <use x="127.246094" xlink:href="#DejaVuSans-32"/>
     <use x="159.033203" xlink:href="#DejaVuSans-116"/>
     <use x="198.242188" xlink:href="#DejaVuSans-97"/>
     <use x="259.521484" xlink:href="#DejaVuSans-114"/>
     <use x="298.884766" xlink:href="#DejaVuSans-103"/>
     <use x="362.361328" xlink:href="#DejaVuSans-101"/>
     <use x="423.884766" xlink:href="#DejaVuSans-116"/>
     <use x="463.09375" xlink:href="#DejaVuSans-115"/>
     <use x="515.193359" xlink:href="#DejaVuSans-58"/>
     <use x="548.884766" xlink:href="#DejaVuSans-32"/>
     <use x="580.671875" xlink:href="#DejaVuSans-49"/>
     <use x="644.294922" xlink:href="#DejaVuSans-48"/>
     <use x="707.917969" xlink:href="#DejaVuSans-48"/>
     <use x="771.541016" xlink:href="#DejaVuSans-46"/>
     <use x="803.328125" xlink:href="#DejaVuSans-46"/>
     <use x="835.115234" xlink:href="#DejaVuSans-49"/>
     <use x="898.738281" xlink:href="#DejaVuSans-101"/>
     <use x="960.261719" xlink:href="#DejaVuSans-45"/>
     <use x="996.345703" xlink:href="#DejaVuSans-48"/>
     <use x="1059.96875" xlink:href="#DejaVuSans-56"/>
    </g>
    <!-- 15 instances -->
    <g transform="translate(60.41088 60.954904)scale(0.102 -0.102)">
     <use xlink:href="#DejaVuSans-49"/>
     <use x="63.623047" xlink:href="#DejaVuSans-53"/>
     <use x="127.246094" xlink:href="#DejaVuSans-32"/>
     <use x="159.033203" xlink:href="#DejaVuSans-105"/>
     <use x="186.816406" xlink:href="#DejaVuSans-110"/>
     <use x="250.195312" xlink:href="#DejaVuSans-115"/>
     <use x="302.294922" xlink:href="#DejaVuSans-116"/>
     <use x="341.503906" xlink:href="#DejaVuSans-97"/>
     <use x="402.783203" xlink:href="#DejaVuSans-110"/>
     <use x="466.162109" xlink:href="#DejaVuSans-99"/>
     <use x="521.142578" xlink:href="#DejaVuSans-101"/>
     <use x="582.666016" xlink:href="#DejaVuSans-115"/>
    </g>
   </g>
   <g id="text_21">
    <!-- v2.4 -->
    <g style="fill:#808080;" transform="translate(187.233062 294.151352)scale(0.1 -0.1)">
     <use xlink:href="#DejaVuSans-118"/>
     <use x="59.179688" xlink:href="#DejaVuSans-50"/>
     <use x="122.802734" xlink:href="#DejaVuSans-46"/>
     <use x="154.589844" xlink:href="#DejaVuSans-52"/>
    </g>
   </g>
   <g id="text_22">
    <!-- 20 Schwefel x*sin(x) -->
    <g transform="translate(95.129937 21.648)scale(0.2 -0.2)">
     <defs>
      <path d="M 53.515625 70.515625 
L 53.515625 60.890625 
Q 47.90625 63.578125 42.921875 64.890625 
Q 37.9375 66.21875 33.296875 66.21875 
Q 25.25 66.21875 20.875 63.09375 
Q 16.5 59.96875 16.5 54.203125 
Q 16.5 49.359375 19.40625 46.890625 
Q 22.3125 44.4375 30.421875 42.921875 
L 36.375 41.703125 
Q 47.40625 39.59375 52.65625 34.296875 
Q 57.90625 29 57.90625 20.125 
Q 57.90625 9.515625 50.796875 4.046875 
Q 43.703125 -1.421875 29.984375 -1.421875 
Q 24.8125 -1.421875 18.96875 -0.25 
Q 13.140625 0.921875 6.890625 3.21875 
L 6.890625 13.375 
Q 12.890625 10.015625 18.65625 8.296875 
Q 24.421875 6.59375 29.984375 6.59375 
Q 38.421875 6.59375 43.015625 9.90625 
Q 47.609375 13.234375 47.609375 19.390625 
Q 47.609375 24.75 44.3125 27.78125 
Q 41.015625 30.8125 33.5 32.328125 
L 27.484375 33.5 
Q 16.453125 35.6875 11.515625 40.375 
Q 6.59375 45.0625 6.59375 53.421875 
Q 6.59375 63.09375 13.40625 68.65625 
Q 20.21875 74.21875 32.171875 74.21875 
Q 37.3125 74.21875 42.625 73.28125 
Q 47.953125 72.359375 53.515625 70.515625 
z
" id="DejaVuSans-83"/>
      <path d="M 54.890625 33.015625 
L 54.890625 0 
L 45.90625 0 
L 45.90625 32.71875 
Q 45.90625 40.484375 42.875 44.328125 
Q 39.84375 48.1875 33.796875 48.1875 
Q 26.515625 48.1875 22.3125 43.546875 
Q 18.109375 38.921875 18.109375 30.90625 
L 18.109375 0 
L 9.078125 0 
L 9.078125 75.984375 
L 18.109375 75.984375 
L 18.109375 46.1875 
Q 21.34375 51.125 25.703125 53.5625 
Q 30.078125 56 35.796875 56 
Q 45.21875 56 50.046875 50.171875 
Q 54.890625 44.34375 54.890625 33.015625 
z
" id="DejaVuSans-104"/>
      <path d="M 4.203125 54.6875 
L 13.1875 54.6875 
L 24.421875 12.015625 
L 35.59375 54.6875 
L 46.1875 54.6875 
L 57.421875 12.015625 
L 68.609375 54.6875 
L 77.59375 54.6875 
L 63.28125 0 
L 52.6875 0 
L 40.921875 44.828125 
L 29.109375 0 
L 18.5 0 
z
" id="DejaVuSans-119"/>
      <path d="M 47.015625 60.890625 
L 29.5 51.421875 
L 47.015625 41.890625 
L 44.1875 37.109375 
L 27.78125 47.015625 
L 27.78125 28.609375 
L 22.21875 28.609375 
L 22.21875 47.015625 
L 5.8125 37.109375 
L 2.984375 41.890625 
L 20.515625 51.421875 
L 2.984375 60.890625 
L 5.8125 65.71875 
L 22.21875 55.8125 
L 22.21875 74.21875 
L 27.78125 74.21875 
L 27.78125 55.8125 
L 44.1875 65.71875 
z
" id="DejaVuSans-42"/>
     </defs>
     <use xlink:href="#DejaVuSans-50"/>
     <use x="63.623047" xlink:href="#DejaVuSans-48"/>
     <use x="127.246094" xlink:href="#DejaVuSans-32"/>
     <use x="159.033203" xlink:href="#DejaVuSans-83"/>
     <use x="222.509766" xlink:href="#DejaVuSans-99"/>
     <use x="277.490234" xlink:href="#DejaVuSans-104"/>
     <use x="340.869141" xlink:href="#DejaVuSans-119"/>
     <use x="422.65625" xlink:href="#DejaVuSans-101"/>
     <use x="484.179688" xlink:href="#DejaVuSans-102"/>
     <use x="519.384766" xlink:href="#DejaVuSans-101"/>
     <use x="580.908203" xlink:href="#DejaVuSans-108"/>
     <use x="608.691406" xlink:href="#DejaVuSans-32"/>
     <use x="640.478516" xlink:href="#DejaVuSans-120"/>
     <use x="699.658203" xlink:href="#DejaVuSans-42"/>
     <use x="749.658203" xlink:href="#DejaVuSans-115"/>
     <use x="801.757812" xlink:href="#DejaVuSans-105"/>
     <use x="829.541016" xlink:href="#DejaVuSans-110"/>
     <use x="892.919922" xlink:href="#DejaVuSans-40"/>
     <use x="931.933594" xlink:href="#DejaVuSans-120"/>
     <use x="991.113281" xlink:href="#DejaVuSans-41"/>
    </g>
   </g>
  </g>
 </g>
 <defs>
  <clipPath id="p432fd4ca79">
   <rect height="271.296" width="281.088" x="57.6" y="27.648"/>
  </clipPath>
 </defs>
</svg>
