<?xml version="1.0" encoding="utf-8" standalone="no"?>
<!DOCTYPE svg PUBLIC "-//W3C//DTD SVG 1.1//EN"
  "http://www.w3.org/Graphics/SVG/1.1/DTD/svg11.dtd">
<!-- Created with matplotlib (https://matplotlib.org/) -->
<svg height="345.6pt" version="1.1" viewBox="0 0 460.8 345.6" width="460.8pt" xmlns="http://www.w3.org/2000/svg" xmlns:xlink="http://www.w3.org/1999/xlink">
 <metadata>
  <rdf:RDF xmlns:cc="http://creativecommons.org/ns#" xmlns:dc="http://purl.org/dc/elements/1.1/" xmlns:rdf="http://www.w3.org/1999/02/22-rdf-syntax-ns#">
   <cc:Work>
    <dc:type rdf:resource="http://purl.org/dc/dcmitype/StillImage"/>
    <dc:date>2021-04-18T18:05:08.405117</dc:date>
    <dc:format>image/svg+xml</dc:format>
    <dc:creator>
     <cc:Agent>
      <dc:title>Matplotlib v3.3.4, https://matplotlib.org/</dc:title>
     </cc:Agent>
    </dc:creator>
   </cc:Work>
  </rdf:RDF>
 </metadata>
 <defs>
  <style type="text/css">*{stroke-linecap:butt;stroke-linejoin:round;}</style>
 </defs>
 <g id="figure_1">
  <g id="patch_1">
   <path d="M 0 345.6 
L 460.8 345.6 
L 460.8 0 
L 0 0 
z
" style="fill:#ffffff;"/>
  </g>
  <g id="axes_1">
   <g id="patch_2">
    <path d="M 57.6 298.944 
L 338.688 298.944 
L 338.688 27.648 
L 57.6 27.648 
z
" style="fill:#ffffff;"/>
   </g>
   <g id="line2d_1">
    <path d="M 45.512012 298.944 
L 45.512012 272.609696 
L 57.6 272.609696 
L 57.6 267.342835 
L 64.67102 267.342835 
L 64.67102 262.075974 
L 73.579452 262.075974 
L 73.579452 256.809114 
L 81.775977 256.809114 
L 81.775977 251.542253 
L 104.826449 251.542253 
L 104.826449 246.275392 
L 114.080224 246.275392 
L 114.080224 241.008531 
L 119.602714 241.008531 
L 119.602714 235.74167 
L 126.673734 235.74167 
L 126.673734 230.47481 
L 127.954256 230.47481 
L 127.954256 225.207949 
L 131.565689 225.207949 
L 131.565689 219.941088 
L 135.482227 219.941088 
L 135.482227 214.674227 
L 136.831795 214.674227 
L 136.831795 204.140506 
L 137.647286 204.140506 
L 137.647286 198.873645 
L 140.11924 198.873645 
L 140.11924 193.606784 
L 143.527762 193.606784 
L 143.527762 188.339923 
L 143.778691 188.339923 
L 143.778691 177.806202 
L 144.390658 177.806202 
L 144.390658 162.005619 
L 144.570138 162.005619 
L 144.570138 156.738758 
L 144.923649 156.738758 
L 144.923649 146.205037 
L 145.327221 146.205037 
L 145.327221 140.938176 
L 145.384119 140.938176 
L 145.384119 135.671315 
L 146.107383 135.671315 
L 146.107383 130.404454 
L 146.161795 130.404454 
L 146.161795 125.137593 
L 146.216039 125.137593 
L 146.216039 119.870733 
L 146.270114 119.870733 
L 146.270114 114.603872 
L 146.324022 114.603872 
L 146.324022 104.07015 
L 146.377764 104.07015 
L 146.377764 93.536429 
L 146.431341 93.536429 
L 146.431341 83.002707 
L 146.484754 83.002707 
L 146.484754 77.735846 
L 146.538004 77.735846 
L 146.538004 72.468985 
L 146.591092 72.468985 
L 146.591092 61.935264 
L 146.644018 61.935264 
L 146.644018 56.668403 
L 146.696785 56.668403 
L 146.696785 51.401542 
L 146.749392 51.401542 
L 146.749392 35.60096 
L 146.906268 35.60096 
L 146.906268 30.334099 
L 338.688 30.334099 
" style="fill:none;stroke:#f5deb3;stroke-linecap:square;stroke-width:4;"/>
   </g>
   <g id="line2d_2">
    <defs>
     <path d="M -0 7.778175 
L 7.778175 0 
L 0 -7.778175 
L -7.778175 -0 
z
" id="m6d23b1441a" style="stroke:#f5deb3;stroke-linejoin:miter;stroke-width:1.5;"/>
    </defs>
    <g>
     <use style="fill:#f5deb3;stroke:#f5deb3;stroke-linejoin:miter;stroke-width:1.5;" x="73.579452" xlink:href="#m6d23b1441a" y="262.075974"/>
     <use style="fill:#f5deb3;stroke:#f5deb3;stroke-linejoin:miter;stroke-width:1.5;" x="144.390658" xlink:href="#m6d23b1441a" y="177.806202"/>
     <use style="fill:#f5deb3;stroke:#f5deb3;stroke-linejoin:miter;stroke-width:1.5;" x="146.538004" xlink:href="#m6d23b1441a" y="72.468985"/>
     <use style="fill:#f5deb3;stroke:#f5deb3;stroke-linejoin:miter;stroke-width:1.5;" x="146.906268" xlink:href="#m6d23b1441a" y="30.334099"/>
     <use style="fill:#f5deb3;stroke:#f5deb3;stroke-linejoin:miter;stroke-width:1.5;" x="146.906268" xlink:href="#m6d23b1441a" y="30.334099"/>
     <use style="fill:#f5deb3;stroke:#f5deb3;stroke-linejoin:miter;stroke-width:1.5;" x="338.688" xlink:href="#m6d23b1441a" y="30.334099"/>
    </g>
   </g>
   <g id="line2d_3">
    <path style="fill:none;stroke:#f5deb3;stroke-linecap:square;stroke-width:4;"/>
    <g/>
   </g>
   <g id="line2d_4">
    <path d="M 338.688 30.334099 
L 369.60768 35.706297 
" style="fill:none;stroke:#f5deb3;stroke-linecap:square;stroke-width:4;"/>
    <g>
     <use style="fill:#f5deb3;stroke:#f5deb3;stroke-linejoin:miter;stroke-width:1.5;" x="338.688" xlink:href="#m6d23b1441a" y="30.334099"/>
     <use style="fill:#f5deb3;stroke:#f5deb3;stroke-linejoin:miter;stroke-width:1.5;" x="369.60768" xlink:href="#m6d23b1441a" y="35.706297"/>
    </g>
   </g>
   <g id="matplotlib.axis_1">
    <g id="xtick_1">
     <g id="line2d_5">
      <path clip-path="url(#p97a03ac250)" d="M 57.6 298.944 
L 57.6 27.648 
" style="fill:none;stroke:#b0b0b0;stroke-linecap:square;stroke-width:0.8;"/>
     </g>
     <g id="line2d_6">
      <defs>
       <path d="M 0 0 
L 0 3.5 
" id="m3b28d6a5d6" style="stroke:#000000;stroke-width:0.8;"/>
      </defs>
      <g>
       <use style="stroke:#000000;stroke-width:0.8;" x="57.6" xlink:href="#m3b28d6a5d6" y="298.944"/>
      </g>
     </g>
     <g id="text_1">
      <!-- 0 -->
      <g transform="translate(51.2375 321.140875)scale(0.2 -0.2)">
       <defs>
        <path d="M 31.78125 66.40625 
Q 24.171875 66.40625 20.328125 58.90625 
Q 16.5 51.421875 16.5 36.375 
Q 16.5 21.390625 20.328125 13.890625 
Q 24.171875 6.390625 31.78125 6.390625 
Q 39.453125 6.390625 43.28125 13.890625 
Q 47.125 21.390625 47.125 36.375 
Q 47.125 51.421875 43.28125 58.90625 
Q 39.453125 66.40625 31.78125 66.40625 
z
M 31.78125 74.21875 
Q 44.046875 74.21875 50.515625 64.515625 
Q 56.984375 54.828125 56.984375 36.375 
Q 56.984375 17.96875 50.515625 8.265625 
Q 44.046875 -1.421875 31.78125 -1.421875 
Q 19.53125 -1.421875 13.0625 8.265625 
Q 6.59375 17.96875 6.59375 36.375 
Q 6.59375 54.828125 13.0625 64.515625 
Q 19.53125 74.21875 31.78125 74.21875 
z
" id="DejaVuSans-48"/>
       </defs>
       <use xlink:href="#DejaVuSans-48"/>
      </g>
     </g>
    </g>
    <g id="xtick_2">
     <g id="line2d_7">
      <path clip-path="url(#p97a03ac250)" d="M 137.910857 298.944 
L 137.910857 27.648 
" style="fill:none;stroke:#b0b0b0;stroke-linecap:square;stroke-width:0.8;"/>
     </g>
     <g id="line2d_8">
      <g>
       <use style="stroke:#000000;stroke-width:0.8;" x="137.910857" xlink:href="#m3b28d6a5d6" y="298.944"/>
      </g>
     </g>
     <g id="text_2">
      <!-- 2 -->
      <g transform="translate(131.548357 321.140875)scale(0.2 -0.2)">
       <defs>
        <path d="M 19.1875 8.296875 
L 53.609375 8.296875 
L 53.609375 0 
L 7.328125 0 
L 7.328125 8.296875 
Q 12.9375 14.109375 22.625 23.890625 
Q 32.328125 33.6875 34.8125 36.53125 
Q 39.546875 41.84375 41.421875 45.53125 
Q 43.3125 49.21875 43.3125 52.78125 
Q 43.3125 58.59375 39.234375 62.25 
Q 35.15625 65.921875 28.609375 65.921875 
Q 23.96875 65.921875 18.8125 64.3125 
Q 13.671875 62.703125 7.8125 59.421875 
L 7.8125 69.390625 
Q 13.765625 71.78125 18.9375 73 
Q 24.125 74.21875 28.421875 74.21875 
Q 39.75 74.21875 46.484375 68.546875 
Q 53.21875 62.890625 53.21875 53.421875 
Q 53.21875 48.921875 51.53125 44.890625 
Q 49.859375 40.875 45.40625 35.40625 
Q 44.1875 33.984375 37.640625 27.21875 
Q 31.109375 20.453125 19.1875 8.296875 
z
" id="DejaVuSans-50"/>
       </defs>
       <use xlink:href="#DejaVuSans-50"/>
      </g>
     </g>
    </g>
    <g id="xtick_3">
     <g id="line2d_9">
      <path clip-path="url(#p97a03ac250)" d="M 218.221714 298.944 
L 218.221714 27.648 
" style="fill:none;stroke:#b0b0b0;stroke-linecap:square;stroke-width:0.8;"/>
     </g>
     <g id="line2d_10">
      <g>
       <use style="stroke:#000000;stroke-width:0.8;" x="218.221714" xlink:href="#m3b28d6a5d6" y="298.944"/>
      </g>
     </g>
     <g id="text_3">
      <!-- 4 -->
      <g transform="translate(211.859214 321.140875)scale(0.2 -0.2)">
       <defs>
        <path d="M 37.796875 64.3125 
L 12.890625 25.390625 
L 37.796875 25.390625 
z
M 35.203125 72.90625 
L 47.609375 72.90625 
L 47.609375 25.390625 
L 58.015625 25.390625 
L 58.015625 17.1875 
L 47.609375 17.1875 
L 47.609375 0 
L 37.796875 0 
L 37.796875 17.1875 
L 4.890625 17.1875 
L 4.890625 26.703125 
z
" id="DejaVuSans-52"/>
       </defs>
       <use xlink:href="#DejaVuSans-52"/>
      </g>
     </g>
    </g>
    <g id="xtick_4">
     <g id="line2d_11">
      <path clip-path="url(#p97a03ac250)" d="M 298.532571 298.944 
L 298.532571 27.648 
" style="fill:none;stroke:#b0b0b0;stroke-linecap:square;stroke-width:0.8;"/>
     </g>
     <g id="line2d_12">
      <g>
       <use style="stroke:#000000;stroke-width:0.8;" x="298.532571" xlink:href="#m3b28d6a5d6" y="298.944"/>
      </g>
     </g>
     <g id="text_4">
      <!-- 6 -->
      <g transform="translate(292.170071 321.140875)scale(0.2 -0.2)">
       <defs>
        <path d="M 33.015625 40.375 
Q 26.375 40.375 22.484375 35.828125 
Q 18.609375 31.296875 18.609375 23.390625 
Q 18.609375 15.53125 22.484375 10.953125 
Q 26.375 6.390625 33.015625 6.390625 
Q 39.65625 6.390625 43.53125 10.953125 
Q 47.40625 15.53125 47.40625 23.390625 
Q 47.40625 31.296875 43.53125 35.828125 
Q 39.65625 40.375 33.015625 40.375 
z
M 52.59375 71.296875 
L 52.59375 62.3125 
Q 48.875 64.0625 45.09375 64.984375 
Q 41.3125 65.921875 37.59375 65.921875 
Q 27.828125 65.921875 22.671875 59.328125 
Q 17.53125 52.734375 16.796875 39.40625 
Q 19.671875 43.65625 24.015625 45.921875 
Q 28.375 48.1875 33.59375 48.1875 
Q 44.578125 48.1875 50.953125 41.515625 
Q 57.328125 34.859375 57.328125 23.390625 
Q 57.328125 12.15625 50.6875 5.359375 
Q 44.046875 -1.421875 33.015625 -1.421875 
Q 20.359375 -1.421875 13.671875 8.265625 
Q 6.984375 17.96875 6.984375 36.375 
Q 6.984375 53.65625 15.1875 63.9375 
Q 23.390625 74.21875 37.203125 74.21875 
Q 40.921875 74.21875 44.703125 73.484375 
Q 48.484375 72.75 52.59375 71.296875 
z
" id="DejaVuSans-54"/>
       </defs>
       <use xlink:href="#DejaVuSans-54"/>
      </g>
     </g>
    </g>
    <g id="xtick_5">
     <g id="line2d_13">
      <path clip-path="url(#p97a03ac250)" d="M 97.755429 298.944 
L 97.755429 27.648 
" style="fill:none;stroke:#b0b0b0;stroke-linecap:square;stroke-width:0.8;"/>
     </g>
     <g id="line2d_14">
      <defs>
       <path d="M 0 0 
L 0 2 
" id="m1773383682" style="stroke:#000000;stroke-width:0.6;"/>
      </defs>
      <g>
       <use style="stroke:#000000;stroke-width:0.6;" x="97.755429" xlink:href="#m1773383682" y="298.944"/>
      </g>
     </g>
    </g>
    <g id="xtick_6">
     <g id="line2d_15">
      <path clip-path="url(#p97a03ac250)" d="M 178.066286 298.944 
L 178.066286 27.648 
" style="fill:none;stroke:#b0b0b0;stroke-linecap:square;stroke-width:0.8;"/>
     </g>
     <g id="line2d_16">
      <g>
       <use style="stroke:#000000;stroke-width:0.6;" x="178.066286" xlink:href="#m1773383682" y="298.944"/>
      </g>
     </g>
    </g>
    <g id="xtick_7">
     <g id="line2d_17">
      <path clip-path="url(#p97a03ac250)" d="M 258.377143 298.944 
L 258.377143 27.648 
" style="fill:none;stroke:#b0b0b0;stroke-linecap:square;stroke-width:0.8;"/>
     </g>
     <g id="line2d_18">
      <g>
       <use style="stroke:#000000;stroke-width:0.6;" x="258.377143" xlink:href="#m1773383682" y="298.944"/>
      </g>
     </g>
    </g>
    <g id="xtick_8">
     <g id="line2d_19">
      <path clip-path="url(#p97a03ac250)" d="M 338.688 298.944 
L 338.688 27.648 
" style="fill:none;stroke:#b0b0b0;stroke-linecap:square;stroke-width:0.8;"/>
     </g>
     <g id="line2d_20">
      <g>
       <use style="stroke:#000000;stroke-width:0.6;" x="338.688" xlink:href="#m1773383682" y="298.944"/>
      </g>
     </g>
    </g>
    <g id="text_5">
     <!-- log10(# f-evals / dimension) -->
     <g transform="translate(77.764078 342.217594)scale(0.17 -0.17)">
      <defs>
       <path d="M 9.421875 75.984375 
L 18.40625 75.984375 
L 18.40625 0 
L 9.421875 0 
z
" id="DejaVuSans-108"/>
       <path d="M 30.609375 48.390625 
Q 23.390625 48.390625 19.1875 42.75 
Q 14.984375 37.109375 14.984375 27.296875 
Q 14.984375 17.484375 19.15625 11.84375 
Q 23.34375 6.203125 30.609375 6.203125 
Q 37.796875 6.203125 41.984375 11.859375 
Q 46.1875 17.53125 46.1875 27.296875 
Q 46.1875 37.015625 41.984375 42.703125 
Q 37.796875 48.390625 30.609375 48.390625 
z
M 30.609375 56 
Q 42.328125 56 49.015625 48.375 
Q 55.71875 40.765625 55.71875 27.296875 
Q 55.71875 13.875 49.015625 6.21875 
Q 42.328125 -1.421875 30.609375 -1.421875 
Q 18.84375 -1.421875 12.171875 6.21875 
Q 5.515625 13.875 5.515625 27.296875 
Q 5.515625 40.765625 12.171875 48.375 
Q 18.84375 56 30.609375 56 
z
" id="DejaVuSans-111"/>
       <path d="M 45.40625 27.984375 
Q 45.40625 37.75 41.375 43.109375 
Q 37.359375 48.484375 30.078125 48.484375 
Q 22.859375 48.484375 18.828125 43.109375 
Q 14.796875 37.75 14.796875 27.984375 
Q 14.796875 18.265625 18.828125 12.890625 
Q 22.859375 7.515625 30.078125 7.515625 
Q 37.359375 7.515625 41.375 12.890625 
Q 45.40625 18.265625 45.40625 27.984375 
z
M 54.390625 6.78125 
Q 54.390625 -7.171875 48.1875 -13.984375 
Q 42 -20.796875 29.203125 -20.796875 
Q 24.46875 -20.796875 20.265625 -20.09375 
Q 16.0625 -19.390625 12.109375 -17.921875 
L 12.109375 -9.1875 
Q 16.0625 -11.328125 19.921875 -12.34375 
Q 23.78125 -13.375 27.78125 -13.375 
Q 36.625 -13.375 41.015625 -8.765625 
Q 45.40625 -4.15625 45.40625 5.171875 
L 45.40625 9.625 
Q 42.625 4.78125 38.28125 2.390625 
Q 33.9375 0 27.875 0 
Q 17.828125 0 11.671875 7.65625 
Q 5.515625 15.328125 5.515625 27.984375 
Q 5.515625 40.671875 11.671875 48.328125 
Q 17.828125 56 27.875 56 
Q 33.9375 56 38.28125 53.609375 
Q 42.625 51.21875 45.40625 46.390625 
L 45.40625 54.6875 
L 54.390625 54.6875 
z
" id="DejaVuSans-103"/>
       <path d="M 12.40625 8.296875 
L 28.515625 8.296875 
L 28.515625 63.921875 
L 10.984375 60.40625 
L 10.984375 69.390625 
L 28.421875 72.90625 
L 38.28125 72.90625 
L 38.28125 8.296875 
L 54.390625 8.296875 
L 54.390625 0 
L 12.40625 0 
z
" id="DejaVuSans-49"/>
       <path d="M 31 75.875 
Q 24.46875 64.65625 21.28125 53.65625 
Q 18.109375 42.671875 18.109375 31.390625 
Q 18.109375 20.125 21.3125 9.0625 
Q 24.515625 -2 31 -13.1875 
L 23.1875 -13.1875 
Q 15.875 -1.703125 12.234375 9.375 
Q 8.59375 20.453125 8.59375 31.390625 
Q 8.59375 42.28125 12.203125 53.3125 
Q 15.828125 64.359375 23.1875 75.875 
z
" id="DejaVuSans-40"/>
       <path d="M 51.125 44 
L 36.921875 44 
L 32.8125 27.6875 
L 47.125 27.6875 
z
M 43.796875 71.78125 
L 38.71875 51.515625 
L 52.984375 51.515625 
L 58.109375 71.78125 
L 65.921875 71.78125 
L 60.890625 51.515625 
L 76.125 51.515625 
L 76.125 44 
L 58.984375 44 
L 54.984375 27.6875 
L 70.515625 27.6875 
L 70.515625 20.21875 
L 53.078125 20.21875 
L 48 0 
L 40.1875 0 
L 45.21875 20.21875 
L 30.90625 20.21875 
L 25.875 0 
L 18.015625 0 
L 23.09375 20.21875 
L 7.71875 20.21875 
L 7.71875 27.6875 
L 24.90625 27.6875 
L 29 44 
L 13.28125 44 
L 13.28125 51.515625 
L 30.90625 51.515625 
L 35.890625 71.78125 
z
" id="DejaVuSans-35"/>
       <path id="DejaVuSans-32"/>
       <path d="M 37.109375 75.984375 
L 37.109375 68.5 
L 28.515625 68.5 
Q 23.6875 68.5 21.796875 66.546875 
Q 19.921875 64.59375 19.921875 59.515625 
L 19.921875 54.6875 
L 34.71875 54.6875 
L 34.71875 47.703125 
L 19.921875 47.703125 
L 19.921875 0 
L 10.890625 0 
L 10.890625 47.703125 
L 2.296875 47.703125 
L 2.296875 54.6875 
L 10.890625 54.6875 
L 10.890625 58.5 
Q 10.890625 67.625 15.140625 71.796875 
Q 19.390625 75.984375 28.609375 75.984375 
z
" id="DejaVuSans-102"/>
       <path d="M 4.890625 31.390625 
L 31.203125 31.390625 
L 31.203125 23.390625 
L 4.890625 23.390625 
z
" id="DejaVuSans-45"/>
       <path d="M 56.203125 29.59375 
L 56.203125 25.203125 
L 14.890625 25.203125 
Q 15.484375 15.921875 20.484375 11.0625 
Q 25.484375 6.203125 34.421875 6.203125 
Q 39.59375 6.203125 44.453125 7.46875 
Q 49.3125 8.734375 54.109375 11.28125 
L 54.109375 2.78125 
Q 49.265625 0.734375 44.1875 -0.34375 
Q 39.109375 -1.421875 33.890625 -1.421875 
Q 20.796875 -1.421875 13.15625 6.1875 
Q 5.515625 13.8125 5.515625 26.8125 
Q 5.515625 40.234375 12.765625 48.109375 
Q 20.015625 56 32.328125 56 
Q 43.359375 56 49.78125 48.890625 
Q 56.203125 41.796875 56.203125 29.59375 
z
M 47.21875 32.234375 
Q 47.125 39.59375 43.09375 43.984375 
Q 39.0625 48.390625 32.421875 48.390625 
Q 24.90625 48.390625 20.390625 44.140625 
Q 15.875 39.890625 15.1875 32.171875 
z
" id="DejaVuSans-101"/>
       <path d="M 2.984375 54.6875 
L 12.5 54.6875 
L 29.59375 8.796875 
L 46.6875 54.6875 
L 56.203125 54.6875 
L 35.6875 0 
L 23.484375 0 
z
" id="DejaVuSans-118"/>
       <path d="M 34.28125 27.484375 
Q 23.390625 27.484375 19.1875 25 
Q 14.984375 22.515625 14.984375 16.5 
Q 14.984375 11.71875 18.140625 8.90625 
Q 21.296875 6.109375 26.703125 6.109375 
Q 34.1875 6.109375 38.703125 11.40625 
Q 43.21875 16.703125 43.21875 25.484375 
L 43.21875 27.484375 
z
M 52.203125 31.203125 
L 52.203125 0 
L 43.21875 0 
L 43.21875 8.296875 
Q 40.140625 3.328125 35.546875 0.953125 
Q 30.953125 -1.421875 24.3125 -1.421875 
Q 15.921875 -1.421875 10.953125 3.296875 
Q 6 8.015625 6 15.921875 
Q 6 25.140625 12.171875 29.828125 
Q 18.359375 34.515625 30.609375 34.515625 
L 43.21875 34.515625 
L 43.21875 35.40625 
Q 43.21875 41.609375 39.140625 45 
Q 35.0625 48.390625 27.6875 48.390625 
Q 23 48.390625 18.546875 47.265625 
Q 14.109375 46.140625 10.015625 43.890625 
L 10.015625 52.203125 
Q 14.9375 54.109375 19.578125 55.046875 
Q 24.21875 56 28.609375 56 
Q 40.484375 56 46.34375 49.84375 
Q 52.203125 43.703125 52.203125 31.203125 
z
" id="DejaVuSans-97"/>
       <path d="M 44.28125 53.078125 
L 44.28125 44.578125 
Q 40.484375 46.53125 36.375 47.5 
Q 32.28125 48.484375 27.875 48.484375 
Q 21.1875 48.484375 17.84375 46.4375 
Q 14.5 44.390625 14.5 40.28125 
Q 14.5 37.15625 16.890625 35.375 
Q 19.28125 33.59375 26.515625 31.984375 
L 29.59375 31.296875 
Q 39.15625 29.25 43.1875 25.515625 
Q 47.21875 21.78125 47.21875 15.09375 
Q 47.21875 7.46875 41.1875 3.015625 
Q 35.15625 -1.421875 24.609375 -1.421875 
Q 20.21875 -1.421875 15.453125 -0.5625 
Q 10.6875 0.296875 5.421875 2 
L 5.421875 11.28125 
Q 10.40625 8.6875 15.234375 7.390625 
Q 20.0625 6.109375 24.8125 6.109375 
Q 31.15625 6.109375 34.5625 8.28125 
Q 37.984375 10.453125 37.984375 14.40625 
Q 37.984375 18.0625 35.515625 20.015625 
Q 33.0625 21.96875 24.703125 23.78125 
L 21.578125 24.515625 
Q 13.234375 26.265625 9.515625 29.90625 
Q 5.8125 33.546875 5.8125 39.890625 
Q 5.8125 47.609375 11.28125 51.796875 
Q 16.75 56 26.8125 56 
Q 31.78125 56 36.171875 55.265625 
Q 40.578125 54.546875 44.28125 53.078125 
z
" id="DejaVuSans-115"/>
       <path d="M 25.390625 72.90625 
L 33.6875 72.90625 
L 8.296875 -9.28125 
L 0 -9.28125 
z
" id="DejaVuSans-47"/>
       <path d="M 45.40625 46.390625 
L 45.40625 75.984375 
L 54.390625 75.984375 
L 54.390625 0 
L 45.40625 0 
L 45.40625 8.203125 
Q 42.578125 3.328125 38.25 0.953125 
Q 33.9375 -1.421875 27.875 -1.421875 
Q 17.96875 -1.421875 11.734375 6.484375 
Q 5.515625 14.40625 5.515625 27.296875 
Q 5.515625 40.1875 11.734375 48.09375 
Q 17.96875 56 27.875 56 
Q 33.9375 56 38.25 53.625 
Q 42.578125 51.265625 45.40625 46.390625 
z
M 14.796875 27.296875 
Q 14.796875 17.390625 18.875 11.75 
Q 22.953125 6.109375 30.078125 6.109375 
Q 37.203125 6.109375 41.296875 11.75 
Q 45.40625 17.390625 45.40625 27.296875 
Q 45.40625 37.203125 41.296875 42.84375 
Q 37.203125 48.484375 30.078125 48.484375 
Q 22.953125 48.484375 18.875 42.84375 
Q 14.796875 37.203125 14.796875 27.296875 
z
" id="DejaVuSans-100"/>
       <path d="M 9.421875 54.6875 
L 18.40625 54.6875 
L 18.40625 0 
L 9.421875 0 
z
M 9.421875 75.984375 
L 18.40625 75.984375 
L 18.40625 64.59375 
L 9.421875 64.59375 
z
" id="DejaVuSans-105"/>
       <path d="M 52 44.1875 
Q 55.375 50.25 60.0625 53.125 
Q 64.75 56 71.09375 56 
Q 79.640625 56 84.28125 50.015625 
Q 88.921875 44.046875 88.921875 33.015625 
L 88.921875 0 
L 79.890625 0 
L 79.890625 32.71875 
Q 79.890625 40.578125 77.09375 44.375 
Q 74.3125 48.1875 68.609375 48.1875 
Q 61.625 48.1875 57.5625 43.546875 
Q 53.515625 38.921875 53.515625 30.90625 
L 53.515625 0 
L 44.484375 0 
L 44.484375 32.71875 
Q 44.484375 40.625 41.703125 44.40625 
Q 38.921875 48.1875 33.109375 48.1875 
Q 26.21875 48.1875 22.15625 43.53125 
Q 18.109375 38.875 18.109375 30.90625 
L 18.109375 0 
L 9.078125 0 
L 9.078125 54.6875 
L 18.109375 54.6875 
L 18.109375 46.1875 
Q 21.1875 51.21875 25.484375 53.609375 
Q 29.78125 56 35.6875 56 
Q 41.65625 56 45.828125 52.96875 
Q 50 49.953125 52 44.1875 
z
" id="DejaVuSans-109"/>
       <path d="M 54.890625 33.015625 
L 54.890625 0 
L 45.90625 0 
L 45.90625 32.71875 
Q 45.90625 40.484375 42.875 44.328125 
Q 39.84375 48.1875 33.796875 48.1875 
Q 26.515625 48.1875 22.3125 43.546875 
Q 18.109375 38.921875 18.109375 30.90625 
L 18.109375 0 
L 9.078125 0 
L 9.078125 54.6875 
L 18.109375 54.6875 
L 18.109375 46.1875 
Q 21.34375 51.125 25.703125 53.5625 
Q 30.078125 56 35.796875 56 
Q 45.21875 56 50.046875 50.171875 
Q 54.890625 44.34375 54.890625 33.015625 
z
" id="DejaVuSans-110"/>
       <path d="M 8.015625 75.875 
L 15.828125 75.875 
Q 23.140625 64.359375 26.78125 53.3125 
Q 30.421875 42.28125 30.421875 31.390625 
Q 30.421875 20.453125 26.78125 9.375 
Q 23.140625 -1.703125 15.828125 -13.1875 
L 8.015625 -13.1875 
Q 14.5 -2 17.703125 9.0625 
Q 20.90625 20.125 20.90625 31.390625 
Q 20.90625 42.671875 17.703125 53.65625 
Q 14.5 64.65625 8.015625 75.875 
z
" id="DejaVuSans-41"/>
      </defs>
      <use xlink:href="#DejaVuSans-108"/>
      <use x="27.783203" xlink:href="#DejaVuSans-111"/>
      <use x="88.964844" xlink:href="#DejaVuSans-103"/>
      <use x="152.441406" xlink:href="#DejaVuSans-49"/>
      <use x="216.064453" xlink:href="#DejaVuSans-48"/>
      <use x="279.6875" xlink:href="#DejaVuSans-40"/>
      <use x="318.701172" xlink:href="#DejaVuSans-35"/>
      <use x="402.490234" xlink:href="#DejaVuSans-32"/>
      <use x="434.277344" xlink:href="#DejaVuSans-102"/>
      <use x="463.982422" xlink:href="#DejaVuSans-45"/>
      <use x="500.066406" xlink:href="#DejaVuSans-101"/>
      <use x="561.589844" xlink:href="#DejaVuSans-118"/>
      <use x="620.769531" xlink:href="#DejaVuSans-97"/>
      <use x="682.048828" xlink:href="#DejaVuSans-108"/>
      <use x="709.832031" xlink:href="#DejaVuSans-115"/>
      <use x="761.931641" xlink:href="#DejaVuSans-32"/>
      <use x="793.71875" xlink:href="#DejaVuSans-47"/>
      <use x="827.410156" xlink:href="#DejaVuSans-32"/>
      <use x="859.197266" xlink:href="#DejaVuSans-100"/>
      <use x="922.673828" xlink:href="#DejaVuSans-105"/>
      <use x="950.457031" xlink:href="#DejaVuSans-109"/>
      <use x="1047.869141" xlink:href="#DejaVuSans-101"/>
      <use x="1109.392578" xlink:href="#DejaVuSans-110"/>
      <use x="1172.771484" xlink:href="#DejaVuSans-115"/>
      <use x="1224.871094" xlink:href="#DejaVuSans-105"/>
      <use x="1252.654297" xlink:href="#DejaVuSans-111"/>
      <use x="1313.835938" xlink:href="#DejaVuSans-110"/>
      <use x="1377.214844" xlink:href="#DejaVuSans-41"/>
     </g>
    </g>
   </g>
   <g id="matplotlib.axis_2">
    <g id="ytick_1">
     <g id="line2d_21">
      <path clip-path="url(#p97a03ac250)" d="M 57.6 298.944 
L 338.688 298.944 
" style="fill:none;stroke:#b0b0b0;stroke-linecap:square;stroke-width:0.8;"/>
     </g>
     <g id="line2d_22">
      <defs>
       <path d="M 0 0 
L -3.5 0 
" id="m05f0cac6a7" style="stroke:#000000;stroke-width:0.8;"/>
      </defs>
      <g>
       <use style="stroke:#000000;stroke-width:0.8;" x="57.6" xlink:href="#m05f0cac6a7" y="298.944"/>
      </g>
     </g>
     <g id="text_6">
      <!-- 0.0 -->
      <g transform="translate(25.155 305.02275)scale(0.16 -0.16)">
       <defs>
        <path d="M 10.6875 12.40625 
L 21 12.40625 
L 21 0 
L 10.6875 0 
z
" id="DejaVuSans-46"/>
       </defs>
       <use xlink:href="#DejaVuSans-48"/>
       <use x="63.623047" xlink:href="#DejaVuSans-46"/>
       <use x="95.410156" xlink:href="#DejaVuSans-48"/>
      </g>
     </g>
    </g>
    <g id="ytick_2">
     <g id="line2d_23">
      <path clip-path="url(#p97a03ac250)" d="M 57.6 245.22202 
L 338.688 245.22202 
" style="fill:none;stroke:#b0b0b0;stroke-linecap:square;stroke-width:0.8;"/>
     </g>
     <g id="line2d_24">
      <g>
       <use style="stroke:#000000;stroke-width:0.8;" x="57.6" xlink:href="#m05f0cac6a7" y="245.22202"/>
      </g>
     </g>
     <g id="text_7">
      <!-- 0.2 -->
      <g transform="translate(25.155 251.30077)scale(0.16 -0.16)">
       <use xlink:href="#DejaVuSans-48"/>
       <use x="63.623047" xlink:href="#DejaVuSans-46"/>
       <use x="95.410156" xlink:href="#DejaVuSans-50"/>
      </g>
     </g>
    </g>
    <g id="ytick_3">
     <g id="line2d_25">
      <path clip-path="url(#p97a03ac250)" d="M 57.6 191.50004 
L 338.688 191.50004 
" style="fill:none;stroke:#b0b0b0;stroke-linecap:square;stroke-width:0.8;"/>
     </g>
     <g id="line2d_26">
      <g>
       <use style="stroke:#000000;stroke-width:0.8;" x="57.6" xlink:href="#m05f0cac6a7" y="191.50004"/>
      </g>
     </g>
     <g id="text_8">
      <!-- 0.4 -->
      <g transform="translate(25.155 197.57879)scale(0.16 -0.16)">
       <use xlink:href="#DejaVuSans-48"/>
       <use x="63.623047" xlink:href="#DejaVuSans-46"/>
       <use x="95.410156" xlink:href="#DejaVuSans-52"/>
      </g>
     </g>
    </g>
    <g id="ytick_4">
     <g id="line2d_27">
      <path clip-path="url(#p97a03ac250)" d="M 57.6 137.778059 
L 338.688 137.778059 
" style="fill:none;stroke:#b0b0b0;stroke-linecap:square;stroke-width:0.8;"/>
     </g>
     <g id="line2d_28">
      <g>
       <use style="stroke:#000000;stroke-width:0.8;" x="57.6" xlink:href="#m05f0cac6a7" y="137.778059"/>
      </g>
     </g>
     <g id="text_9">
      <!-- 0.6 -->
      <g transform="translate(25.155 143.856809)scale(0.16 -0.16)">
       <use xlink:href="#DejaVuSans-48"/>
       <use x="63.623047" xlink:href="#DejaVuSans-46"/>
       <use x="95.410156" xlink:href="#DejaVuSans-54"/>
      </g>
     </g>
    </g>
    <g id="ytick_5">
     <g id="line2d_29">
      <path clip-path="url(#p97a03ac250)" d="M 57.6 84.056079 
L 338.688 84.056079 
" style="fill:none;stroke:#b0b0b0;stroke-linecap:square;stroke-width:0.8;"/>
     </g>
     <g id="line2d_30">
      <g>
       <use style="stroke:#000000;stroke-width:0.8;" x="57.6" xlink:href="#m05f0cac6a7" y="84.056079"/>
      </g>
     </g>
     <g id="text_10">
      <!-- 0.8 -->
      <g transform="translate(25.155 90.134829)scale(0.16 -0.16)">
       <defs>
        <path d="M 31.78125 34.625 
Q 24.75 34.625 20.71875 30.859375 
Q 16.703125 27.09375 16.703125 20.515625 
Q 16.703125 13.921875 20.71875 10.15625 
Q 24.75 6.390625 31.78125 6.390625 
Q 38.8125 6.390625 42.859375 10.171875 
Q 46.921875 13.96875 46.921875 20.515625 
Q 46.921875 27.09375 42.890625 30.859375 
Q 38.875 34.625 31.78125 34.625 
z
M 21.921875 38.8125 
Q 15.578125 40.375 12.03125 44.71875 
Q 8.5 49.078125 8.5 55.328125 
Q 8.5 64.0625 14.71875 69.140625 
Q 20.953125 74.21875 31.78125 74.21875 
Q 42.671875 74.21875 48.875 69.140625 
Q 55.078125 64.0625 55.078125 55.328125 
Q 55.078125 49.078125 51.53125 44.71875 
Q 48 40.375 41.703125 38.8125 
Q 48.828125 37.15625 52.796875 32.3125 
Q 56.78125 27.484375 56.78125 20.515625 
Q 56.78125 9.90625 50.3125 4.234375 
Q 43.84375 -1.421875 31.78125 -1.421875 
Q 19.734375 -1.421875 13.25 4.234375 
Q 6.78125 9.90625 6.78125 20.515625 
Q 6.78125 27.484375 10.78125 32.3125 
Q 14.796875 37.15625 21.921875 38.8125 
z
M 18.3125 54.390625 
Q 18.3125 48.734375 21.84375 45.5625 
Q 25.390625 42.390625 31.78125 42.390625 
Q 38.140625 42.390625 41.71875 45.5625 
Q 45.3125 48.734375 45.3125 54.390625 
Q 45.3125 60.0625 41.71875 63.234375 
Q 38.140625 66.40625 31.78125 66.40625 
Q 25.390625 66.40625 21.84375 63.234375 
Q 18.3125 60.0625 18.3125 54.390625 
z
" id="DejaVuSans-56"/>
       </defs>
       <use xlink:href="#DejaVuSans-48"/>
       <use x="63.623047" xlink:href="#DejaVuSans-46"/>
       <use x="95.410156" xlink:href="#DejaVuSans-56"/>
      </g>
     </g>
    </g>
    <g id="ytick_6">
     <g id="line2d_31">
      <path clip-path="url(#p97a03ac250)" d="M 57.6 30.334099 
L 338.688 30.334099 
" style="fill:none;stroke:#b0b0b0;stroke-linecap:square;stroke-width:0.8;"/>
     </g>
     <g id="line2d_32">
      <g>
       <use style="stroke:#000000;stroke-width:0.8;" x="57.6" xlink:href="#m05f0cac6a7" y="30.334099"/>
      </g>
     </g>
     <g id="text_11">
      <!-- 1.0 -->
      <g transform="translate(25.155 36.412849)scale(0.16 -0.16)">
       <use xlink:href="#DejaVuSans-49"/>
       <use x="63.623047" xlink:href="#DejaVuSans-46"/>
       <use x="95.410156" xlink:href="#DejaVuSans-48"/>
      </g>
     </g>
    </g>
    <g id="text_12">
     <!-- Fraction of function,target pairs -->
     <g transform="translate(17.619531 297.681)rotate(-90)scale(0.17 -0.17)">
      <defs>
       <path d="M 9.8125 72.90625 
L 51.703125 72.90625 
L 51.703125 64.59375 
L 19.671875 64.59375 
L 19.671875 43.109375 
L 48.578125 43.109375 
L 48.578125 34.8125 
L 19.671875 34.8125 
L 19.671875 0 
L 9.8125 0 
z
" id="DejaVuSans-70"/>
       <path d="M 41.109375 46.296875 
Q 39.59375 47.171875 37.8125 47.578125 
Q 36.03125 48 33.890625 48 
Q 26.265625 48 22.1875 43.046875 
Q 18.109375 38.09375 18.109375 28.8125 
L 18.109375 0 
L 9.078125 0 
L 9.078125 54.6875 
L 18.109375 54.6875 
L 18.109375 46.1875 
Q 20.953125 51.171875 25.484375 53.578125 
Q 30.03125 56 36.53125 56 
Q 37.453125 56 38.578125 55.875 
Q 39.703125 55.765625 41.0625 55.515625 
z
" id="DejaVuSans-114"/>
       <path d="M 48.78125 52.59375 
L 48.78125 44.1875 
Q 44.96875 46.296875 41.140625 47.34375 
Q 37.3125 48.390625 33.40625 48.390625 
Q 24.65625 48.390625 19.8125 42.84375 
Q 14.984375 37.3125 14.984375 27.296875 
Q 14.984375 17.28125 19.8125 11.734375 
Q 24.65625 6.203125 33.40625 6.203125 
Q 37.3125 6.203125 41.140625 7.25 
Q 44.96875 8.296875 48.78125 10.40625 
L 48.78125 2.09375 
Q 45.015625 0.34375 40.984375 -0.53125 
Q 36.96875 -1.421875 32.421875 -1.421875 
Q 20.0625 -1.421875 12.78125 6.34375 
Q 5.515625 14.109375 5.515625 27.296875 
Q 5.515625 40.671875 12.859375 48.328125 
Q 20.21875 56 33.015625 56 
Q 37.15625 56 41.109375 55.140625 
Q 45.0625 54.296875 48.78125 52.59375 
z
" id="DejaVuSans-99"/>
       <path d="M 18.3125 70.21875 
L 18.3125 54.6875 
L 36.8125 54.6875 
L 36.8125 47.703125 
L 18.3125 47.703125 
L 18.3125 18.015625 
Q 18.3125 11.328125 20.140625 9.421875 
Q 21.96875 7.515625 27.59375 7.515625 
L 36.8125 7.515625 
L 36.8125 0 
L 27.59375 0 
Q 17.1875 0 13.234375 3.875 
Q 9.28125 7.765625 9.28125 18.015625 
L 9.28125 47.703125 
L 2.6875 47.703125 
L 2.6875 54.6875 
L 9.28125 54.6875 
L 9.28125 70.21875 
z
" id="DejaVuSans-116"/>
       <path d="M 8.5 21.578125 
L 8.5 54.6875 
L 17.484375 54.6875 
L 17.484375 21.921875 
Q 17.484375 14.15625 20.5 10.265625 
Q 23.53125 6.390625 29.59375 6.390625 
Q 36.859375 6.390625 41.078125 11.03125 
Q 45.3125 15.671875 45.3125 23.6875 
L 45.3125 54.6875 
L 54.296875 54.6875 
L 54.296875 0 
L 45.3125 0 
L 45.3125 8.40625 
Q 42.046875 3.421875 37.71875 1 
Q 33.40625 -1.421875 27.6875 -1.421875 
Q 18.265625 -1.421875 13.375 4.4375 
Q 8.5 10.296875 8.5 21.578125 
z
M 31.109375 56 
z
" id="DejaVuSans-117"/>
       <path d="M 11.71875 12.40625 
L 22.015625 12.40625 
L 22.015625 4 
L 14.015625 -11.625 
L 7.71875 -11.625 
L 11.71875 4 
z
" id="DejaVuSans-44"/>
       <path d="M 18.109375 8.203125 
L 18.109375 -20.796875 
L 9.078125 -20.796875 
L 9.078125 54.6875 
L 18.109375 54.6875 
L 18.109375 46.390625 
Q 20.953125 51.265625 25.265625 53.625 
Q 29.59375 56 35.59375 56 
Q 45.5625 56 51.78125 48.09375 
Q 58.015625 40.1875 58.015625 27.296875 
Q 58.015625 14.40625 51.78125 6.484375 
Q 45.5625 -1.421875 35.59375 -1.421875 
Q 29.59375 -1.421875 25.265625 0.953125 
Q 20.953125 3.328125 18.109375 8.203125 
z
M 48.6875 27.296875 
Q 48.6875 37.203125 44.609375 42.84375 
Q 40.53125 48.484375 33.40625 48.484375 
Q 26.265625 48.484375 22.1875 42.84375 
Q 18.109375 37.203125 18.109375 27.296875 
Q 18.109375 17.390625 22.1875 11.75 
Q 26.265625 6.109375 33.40625 6.109375 
Q 40.53125 6.109375 44.609375 11.75 
Q 48.6875 17.390625 48.6875 27.296875 
z
" id="DejaVuSans-112"/>
      </defs>
      <use xlink:href="#DejaVuSans-70"/>
      <use x="50.269531" xlink:href="#DejaVuSans-114"/>
      <use x="91.382812" xlink:href="#DejaVuSans-97"/>
      <use x="152.662109" xlink:href="#DejaVuSans-99"/>
      <use x="207.642578" xlink:href="#DejaVuSans-116"/>
      <use x="246.851562" xlink:href="#DejaVuSans-105"/>
      <use x="274.634766" xlink:href="#DejaVuSans-111"/>
      <use x="335.816406" xlink:href="#DejaVuSans-110"/>
      <use x="399.195312" xlink:href="#DejaVuSans-32"/>
      <use x="430.982422" xlink:href="#DejaVuSans-111"/>
      <use x="492.164062" xlink:href="#DejaVuSans-102"/>
      <use x="527.369141" xlink:href="#DejaVuSans-32"/>
      <use x="559.15625" xlink:href="#DejaVuSans-102"/>
      <use x="594.361328" xlink:href="#DejaVuSans-117"/>
      <use x="657.740234" xlink:href="#DejaVuSans-110"/>
      <use x="721.119141" xlink:href="#DejaVuSans-99"/>
      <use x="776.099609" xlink:href="#DejaVuSans-116"/>
      <use x="815.308594" xlink:href="#DejaVuSans-105"/>
      <use x="843.091797" xlink:href="#DejaVuSans-111"/>
      <use x="904.273438" xlink:href="#DejaVuSans-110"/>
      <use x="967.652344" xlink:href="#DejaVuSans-44"/>
      <use x="999.439453" xlink:href="#DejaVuSans-116"/>
      <use x="1038.648438" xlink:href="#DejaVuSans-97"/>
      <use x="1099.927734" xlink:href="#DejaVuSans-114"/>
      <use x="1139.291016" xlink:href="#DejaVuSans-103"/>
      <use x="1202.767578" xlink:href="#DejaVuSans-101"/>
      <use x="1264.291016" xlink:href="#DejaVuSans-116"/>
      <use x="1303.5" xlink:href="#DejaVuSans-32"/>
      <use x="1335.287109" xlink:href="#DejaVuSans-112"/>
      <use x="1398.763672" xlink:href="#DejaVuSans-97"/>
      <use x="1460.042969" xlink:href="#DejaVuSans-105"/>
      <use x="1487.826172" xlink:href="#DejaVuSans-114"/>
      <use x="1528.939453" xlink:href="#DejaVuSans-115"/>
     </g>
    </g>
   </g>
   <g id="line2d_33">
    <defs>
     <path d="M 0 1.5 
C 0.397805 1.5 0.77937 1.341951 1.06066 1.06066 
C 1.341951 0.77937 1.5 0.397805 1.5 0 
C 1.5 -0.397805 1.341951 -0.77937 1.06066 -1.06066 
C 0.77937 -1.341951 0.397805 -1.5 0 -1.5 
C -0.397805 -1.5 -0.77937 -1.341951 -1.06066 -1.06066 
C -1.341951 -0.77937 -1.5 -0.397805 -1.5 0 
C -1.5 0.397805 -1.341951 0.77937 -1.06066 1.06066 
C -0.77937 1.341951 -0.397805 1.5 0 1.5 
z
" id="mda3723b2a9" style="stroke:#f5deb3;"/>
    </defs>
    <g>
     <use style="fill:#f5deb3;stroke:#f5deb3;" x="146.906268" xlink:href="#mda3723b2a9" y="30.334099"/>
     <use style="fill:#f5deb3;stroke:#f5deb3;" x="146.906268" xlink:href="#mda3723b2a9" y="30.334099"/>
    </g>
   </g>
   <g id="line2d_34">
    <defs>
     <path d="M 0 1.5 
C 0.397805 1.5 0.77937 1.341951 1.06066 1.06066 
C 1.341951 0.77937 1.5 0.397805 1.5 0 
C 1.5 -0.397805 1.341951 -0.77937 1.06066 -1.06066 
C 0.77937 -1.341951 0.397805 -1.5 0 -1.5 
C -0.397805 -1.5 -0.77937 -1.341951 -1.06066 -1.06066 
C -1.341951 -0.77937 -1.5 -0.397805 -1.5 0 
C -1.5 0.397805 -1.341951 0.77937 -1.06066 1.06066 
C -0.77937 1.341951 -0.397805 1.5 0 1.5 
z
" id="mac92134a62" style="stroke:#000080;"/>
    </defs>
    <g>
     <use style="fill:#000080;stroke:#000080;" x="242.497246" xlink:href="#mac92134a62" y="30.334099"/>
     <use style="fill:#000080;stroke:#000080;" x="242.497246" xlink:href="#mac92134a62" y="30.334099"/>
    </g>
   </g>
   <g id="line2d_35">
    <path d="M 45.512012 298.944 
L 45.512012 263.129347 
L 57.6 263.129347 
L 57.6 261.022602 
L 64.67102 261.022602 
L 64.67102 257.3358 
L 69.687988 257.3358 
L 69.687988 255.755741 
L 73.579452 255.755741 
L 73.579452 255.229055 
L 76.759008 255.229055 
L 76.759008 252.595625 
L 85.66744 252.595625 
L 85.66744 251.015567 
L 87.329581 251.015567 
L 87.329581 249.962195 
L 88.846997 249.962195 
L 88.846997 249.435508 
L 91.535274 249.435508 
L 91.535274 247.328764 
L 97.755429 247.328764 
L 97.755429 246.802078 
L 100.934985 246.802078 
L 100.934985 246.275392 
L 103.623262 246.275392 
L 103.623262 245.748706 
L 105.398279 245.748706 
L 105.398279 245.22202 
L 105.951954 245.22202 
L 105.951954 239.955159 
L 107.009204 239.955159 
L 107.009204 239.428473 
L 113.382559 239.428473 
L 113.382559 237.321729 
L 114.418861 237.321729 
L 114.418861 234.688298 
L 116.019919 234.688298 
L 116.019919 232.054868 
L 117.202696 232.054868 
L 117.202696 230.47481 
L 117.486268 230.47481 
L 117.486268 229.421437 
L 118.838828 229.421437 
L 118.838828 226.261321 
L 119.351785 226.261321 
L 119.351785 221.521146 
L 119.850084 221.521146 
L 119.850084 220.99446 
L 121.712041 220.99446 
L 121.712041 220.467774 
L 122.362027 220.467774 
L 122.362027 219.414402 
L 123.192626 219.414402 
L 123.192626 217.307658 
L 125.110962 217.307658 
L 125.110962 216.780971 
L 127.325746 216.780971 
L 127.325746 216.254285 
L 127.799239 216.254285 
L 127.799239 215.727599 
L 129.574256 215.727599 
L 129.574256 214.674227 
L 130.664567 214.674227 
L 130.664567 213.094169 
L 131.056477 213.094169 
L 131.056477 212.567483 
L 131.814826 212.567483 
L 131.814826 208.353994 
L 131.938072 208.353994 
L 131.938072 206.773936 
L 133.689303 206.773936 
L 133.689303 206.24725 
L 134.661403 206.24725 
L 134.661403 204.140506 
L 135.076644 204.140506 
L 135.076644 203.087133 
L 135.681535 203.087133 
L 135.681535 200.980389 
L 136.170062 200.980389 
L 136.170062 198.346959 
L 136.361705 198.346959 
L 136.361705 193.080098 
L 136.831795 193.080098 
L 136.831795 183.073062 
L 137.997836 183.073062 
L 137.997836 182.01969 
L 139.652088 182.01969 
L 139.652088 181.493004 
L 140.042245 181.493004 
L 140.042245 180.966318 
L 140.195896 180.966318 
L 140.195896 180.439632 
L 141.378673 180.439632 
L 141.378673 179.38626 
L 141.80232 179.38626 
L 141.80232 178.332888 
L 142.486301 178.332888 
L 142.553247 169.379224 
L 143.337167 169.379224 
L 143.40093 165.692422 
L 143.902815 165.692422 
L 143.902815 162.532305 
L 144.148442 162.532305 
L 144.148442 162.005619 
L 144.981877 162.005619 
L 144.981877 160.952247 
L 145.440832 160.952247 
L 145.440832 158.845503 
L 145.777292 158.845503 
L 145.888018 156.738758 
L 146.107383 156.738758 
L 146.107383 153.051956 
L 146.324022 153.051956 
L 146.324022 150.945211 
L 146.854132 150.945211 
L 146.854132 150.418525 
L 147.061745 150.418525 
L 147.164632 149.365153 
L 147.4697 149.365153 
L 147.4697 148.838467 
L 147.86833 148.838467 
L 147.86833 147.258409 
L 148.354135 147.258409 
L 148.354135 146.731723 
L 148.826773 146.731723 
L 148.87334 142.518234 
L 150.598782 142.518234 
L 150.598782 141.991548 
L 151.501723 141.991548 
L 151.501723 139.358118 
L 152.052897 139.358118 
L 152.052897 135.671315 
L 152.360205 135.671315 
L 152.360205 135.144629 
L 153.679772 135.144629 
L 153.679772 134.617943 
L 153.994632 134.617943 
L 153.994632 134.091257 
L 154.269814 134.091257 
L 154.269814 133.037885 
L 155.102793 133.037885 
L 155.102793 131.984513 
L 155.264719 131.984513 
L 155.264719 131.457826 
L 155.86668 131.457826 
L 155.959855 128.824396 
L 155.990803 128.824396 
L 155.990803 128.29771 
L 156.508689 128.29771 
L 156.508689 127.771024 
L 157.528821 127.771024 
L 157.528821 126.717652 
L 157.86528 126.717652 
L 157.893028 121.977477 
L 158.031107 121.977477 
L 158.031107 121.450791 
L 158.331086 121.450791 
L 158.412011 119.870733 
L 158.784773 119.870733 
L 158.889829 116.710616 
L 159.149734 116.710616 
L 159.201253 107.230267 
L 160.005512 107.230267 
L 160.005512 105.650209 
L 161.756743 105.650209 
L 161.756743 105.123522 
L 167.417059 105.123522 
L 167.417059 104.07015 
L 169.070439 104.07015 
L 169.070439 103.543464 
L 169.813865 103.543464 
L 169.813865 103.016778 
L 218.222586 103.016778 
L 218.296542 91.429684 
L 218.336435 91.429684 
L 218.446964 79.315904 
L 218.45815 79.315904 
L 218.545673 68.255497 
L 218.597806 68.255497 
L 218.703303 61.408578 
L 218.760886 61.408578 
L 218.803106 56.668403 
L 219.232946 56.668403 
L 219.275681 54.034973 
L 230.315805 54.034973 
L 230.423124 42.447879 
L 230.428322 42.447879 
L 230.504799 37.181018 
L 230.581802 37.181018 
L 230.581802 36.654332 
L 237.431803 36.654332 
L 237.489379 31.914157 
L 237.576107 31.914157 
L 237.576107 31.387471 
L 242.412726 31.387471 
L 242.497246 30.334099 
L 338.688 30.334099 
L 338.688 30.334099 
" style="fill:none;stroke:#000080;stroke-linecap:square;stroke-width:1.5;"/>
   </g>
   <g id="line2d_36">
    <defs>
     <path d="M 0 6 
C 1.591219 6 3.117479 5.367802 4.242641 4.242641 
C 5.367802 3.117479 6 1.591219 6 0 
C 6 -1.591219 5.367802 -3.117479 4.242641 -4.242641 
C 3.117479 -5.367802 1.591219 -6 0 -6 
C -1.591219 -6 -3.117479 -5.367802 -4.242641 -4.242641 
C -5.367802 -3.117479 -6 -1.591219 -6 0 
C -6 1.591219 -5.367802 3.117479 -4.242641 4.242641 
C -3.117479 5.367802 -1.591219 6 0 6 
z
" id="m244880d379" style="stroke:#000080;stroke-width:1.5;"/>
    </defs>
    <g>
     <use style="fill-opacity:0;stroke:#000080;stroke-width:1.5;" x="107.009204" xlink:href="#m244880d379" y="239.955159"/>
     <use style="fill-opacity:0;stroke:#000080;stroke-width:1.5;" x="147.061745" xlink:href="#m244880d379" y="150.418525"/>
     <use style="fill-opacity:0;stroke:#000080;stroke-width:1.5;" x="218.792983" xlink:href="#m244880d379" y="59.301833"/>
     <use style="fill-opacity:0;stroke:#000080;stroke-width:1.5;" x="242.497246" xlink:href="#m244880d379" y="30.860785"/>
     <use style="fill-opacity:0;stroke:#000080;stroke-width:1.5;" x="242.497246" xlink:href="#m244880d379" y="30.334099"/>
     <use style="fill-opacity:0;stroke:#000080;stroke-width:1.5;" x="338.688" xlink:href="#m244880d379" y="30.334099"/>
    </g>
   </g>
   <g id="line2d_37">
    <path style="fill:none;stroke:#000080;stroke-linecap:square;stroke-width:1.5;"/>
    <g/>
   </g>
   <g id="line2d_38">
    <path clip-path="url(#p97a03ac250)" d="M 218.221714 103.016778 
" style="fill:none;stroke:#000080;stroke-linecap:square;stroke-width:1.5;"/>
    <defs>
     <path d="M -12 12 
L 12 -12 
M -12 -12 
L 12 12 
" id="mcba25322a3" style="stroke:#000080;"/>
    </defs>
    <g clip-path="url(#p97a03ac250)">
     <use style="fill:#000080;stroke:#000080;" x="218.221714" xlink:href="#mcba25322a3" y="103.016778"/>
    </g>
   </g>
   <g id="line2d_39">
    <defs>
     <path d="M 0 1.5 
C 0.397805 1.5 0.77937 1.341951 1.06066 1.06066 
C 1.341951 0.77937 1.5 0.397805 1.5 0 
C 1.5 -0.397805 1.341951 -0.77937 1.06066 -1.06066 
C 0.77937 -1.341951 0.397805 -1.5 0 -1.5 
C -0.397805 -1.5 -0.77937 -1.341951 -1.06066 -1.06066 
C -1.341951 -0.77937 -1.5 -0.397805 -1.5 0 
C -1.5 0.397805 -1.341951 0.77937 -1.06066 1.06066 
C -0.77937 1.341951 -0.397805 1.5 0 1.5 
z
" id="me844508dda" style="stroke:#ff00ff;"/>
    </defs>
    <g>
     <use style="fill:#ff00ff;stroke:#ff00ff;" x="183.428598" xlink:href="#me844508dda" y="30.334099"/>
     <use style="fill:#ff00ff;stroke:#ff00ff;" x="183.428598" xlink:href="#me844508dda" y="30.334099"/>
    </g>
   </g>
   <g id="line2d_40">
    <path d="M 45.512012 298.944 
L 45.512012 272.08301 
L 57.6 272.08301 
L 57.6 265.236091 
L 64.67102 265.236091 
L 64.67102 262.075974 
L 69.687988 262.075974 
L 69.687988 256.809114 
L 73.579452 256.809114 
L 73.579452 254.702369 
L 76.759008 254.702369 
L 76.759008 253.122311 
L 83.830028 253.122311 
L 83.830028 252.595625 
L 85.66744 252.595625 
L 85.66744 251.542253 
L 92.73846 251.542253 
L 92.73846 249.962195 
L 96.86091 249.962195 
L 96.86091 247.85545 
L 97.755429 247.85545 
L 97.755429 245.748706 
L 98.606294 245.748706 
L 98.606294 245.22202 
L 105.398279 245.22202 
L 105.398279 242.588589 
L 108.948899 242.588589 
L 108.948899 242.061903 
L 109.843417 242.061903 
L 109.843417 239.955159 
L 111.897469 239.955159 
L 111.897469 239.428473 
L 112.280765 239.428473 
L 112.280765 238.375101 
L 115.077025 238.375101 
L 115.077025 237.848415 
L 115.397021 237.848415 
L 115.397021 235.214984 
L 118.576578 235.214984 
L 118.576578 233.634926 
L 120.33454 233.634926 
L 120.33454 225.207949 
L 121.489881 225.207949 
L 121.489881 223.627891 
L 121.931406 223.627891 
L 121.931406 221.521146 
L 122.362027 221.521146 
L 122.362027 218.36103 
L 122.782271 218.36103 
L 122.782271 217.307658 
L 125.291682 217.307658 
L 125.291682 216.254285 
L 126.338353 216.254285 
L 126.338353 213.620855 
L 126.839037 213.620855 
L 126.839037 213.094169 
L 127.325746 213.094169 
L 127.325746 210.460738 
L 127.799239 210.460738 
L 127.799239 209.407366 
L 128.856489 209.407366 
L 128.856489 208.353994 
L 131.439773 208.353994 
L 131.439773 207.300622 
L 131.938072 207.300622 
L 131.938072 203.613819 
L 132.893889 203.613819 
L 132.893889 202.560447 
L 133.124876 202.560447 
L 133.124876 202.033761 
L 133.57787 202.033761 
L 133.57787 200.980389 
L 134.12805 200.980389 
L 134.236034 196.7669 
L 136.073445 196.7669 
L 136.073445 194.13347 
L 136.924311 194.13347 
L 136.924311 193.080098 
L 139.572998 193.080098 
L 139.572998 192.553412 
L 140.574203 192.553412 
L 140.574203 192.026726 
L 142.619936 192.026726 
L 142.686372 186.759865 
L 142.884173 186.759865 
L 142.884173 184.126434 
L 143.40093 184.126434 
L 143.40093 183.073062 
L 143.590833 183.073062 
L 143.590833 174.119399 
L 144.806606 174.119399 
L 144.865226 169.379224 
L 144.981877 169.379224 
L 144.981877 167.799166 
L 145.888018 167.799166 
L 145.888018 164.63905 
L 146.107383 164.63905 
L 146.107383 164.112363 
L 146.431341 164.112363 
L 146.538004 161.478933 
L 147.266916 161.478933 
L 147.368603 156.212072 
L 147.769524 156.212072 
L 147.769524 154.105328 
L 148.497276 154.105328 
L 148.54473 144.624978 
L 149.012299 144.624978 
L 149.012299 141.991548 
L 152.360205 141.991548 
L 152.360205 141.464862 
L 152.549559 141.464862 
L 152.549559 135.671315 
L 153.250915 135.671315 
L 153.250915 135.144629 
L 153.855395 135.144629 
L 153.959927 133.037885 
L 154.235652 133.037885 
L 154.235652 130.93114 
L 155.167744 130.93114 
L 155.167744 129.877768 
L 155.773004 129.877768 
L 155.773004 127.244338 
L 157.272146 127.244338 
L 157.300853 124.084221 
L 157.86528 124.084221 
L 157.86528 123.557535 
L 158.492562 123.557535 
L 158.492562 122.504163 
L 158.705563 122.504163 
L 158.811096 120.397419 
L 158.863624 120.397419 
L 158.863624 114.077186 
L 159.020266 114.077186 
L 159.020266 111.443755 
L 159.557689 111.443755 
L 159.557689 105.123522 
L 160.914762 105.123522 
L 160.914762 104.596836 
L 162.021314 104.596836 
L 162.021314 103.016778 
L 162.217141 103.016778 
L 162.217141 99.856662 
L 162.453536 99.856662 
L 162.453536 99.329976 
L 162.791763 99.329976 
L 162.791763 98.803289 
L 162.958448 98.803289 
L 162.958448 96.169859 
L 163.589711 96.169859 
L 163.589711 95.116487 
L 164.237502 95.116487 
L 164.314412 93.009743 
L 164.9363 93.009743 
L 164.9363 89.849626 
L 165.661531 89.849626 
L 165.661531 86.68951 
L 165.943384 86.68951 
L 165.943384 86.162824 
L 166.151824 86.162824 
L 166.151824 84.582765 
L 166.272273 84.582765 
L 166.272273 84.056079 
L 166.7626 84.056079 
L 166.7626 81.949335 
L 166.96153 81.949335 
L 167.027338 76.682474 
L 167.109252 76.682474 
L 167.109252 76.155788 
L 167.271933 76.155788 
L 167.271933 75.102416 
L 167.497166 75.102416 
L 167.497166 74.57573 
L 167.687935 74.57573 
L 167.751064 71.415613 
L 167.892273 71.415613 
L 167.892273 69.835555 
L 168.293904 69.835555 
L 168.293904 68.782183 
L 169.474679 68.782183 
L 169.474679 64.568694 
L 169.701534 64.568694 
L 169.701534 61.408578 
L 169.855803 61.408578 
L 169.855803 59.82852 
L 169.981016 59.82852 
L 169.981016 58.248461 
L 170.324185 58.248461 
L 170.351349 55.615031 
L 170.647393 55.615031 
L 170.647393 55.088345 
L 170.833202 55.088345 
L 170.833202 52.9816 
L 170.96472 52.9816 
L 170.96472 49.821484 
L 171.340609 49.821484 
L 171.340609 47.71474 
L 172.179258 47.71474 
L 172.179258 46.661368 
L 172.301041 46.661368 
L 172.301041 43.501251 
L 173.485609 43.501251 
L 173.485609 42.974565 
L 173.699729 42.974565 
L 173.710926 40.867821 
L 173.944417 40.867821 
L 173.944417 40.341135 
L 174.142093 40.341135 
L 174.142093 39.814448 
L 175.994786 39.814448 
L 176.03402 38.761076 
L 176.199784 38.761076 
L 176.199784 38.23439 
L 176.810078 38.23439 
L 176.810078 36.654332 
L 176.959372 36.654332 
L 176.959372 36.127646 
L 178.394524 36.127646 
L 178.394524 35.60096 
L 178.867253 35.60096 
L 178.900534 34.020902 
L 179.065994 34.020902 
L 179.065994 32.440843 
L 182.371348 32.440843 
L 182.371348 31.387471 
L 183.428598 31.387471 
L 183.428598 30.334099 
L 338.688 30.334099 
L 338.688 30.334099 
" style="fill:none;stroke:#ff00ff;stroke-linecap:square;stroke-width:1.5;"/>
   </g>
   <g id="line2d_41">
    <defs>
     <path d="M -0 8.485281 
L 5.091169 0 
L 0 -8.485281 
L -5.091169 -0 
z
" id="m617eb91dcd" style="stroke:#ff00ff;stroke-linejoin:miter;stroke-width:1.5;"/>
    </defs>
    <g>
     <use style="fill-opacity:0;stroke:#ff00ff;stroke-linejoin:miter;stroke-width:1.5;" x="98.606294" xlink:href="#m617eb91dcd" y="245.22202"/>
     <use style="fill-opacity:0;stroke:#ff00ff;stroke-linejoin:miter;stroke-width:1.5;" x="159.557689" xlink:href="#m617eb91dcd" y="111.443755"/>
     <use style="fill-opacity:0;stroke:#ff00ff;stroke-linejoin:miter;stroke-width:1.5;" x="183.428598" xlink:href="#m617eb91dcd" y="31.387471"/>
     <use style="fill-opacity:0;stroke:#ff00ff;stroke-linejoin:miter;stroke-width:1.5;" x="183.428598" xlink:href="#m617eb91dcd" y="30.334099"/>
     <use style="fill-opacity:0;stroke:#ff00ff;stroke-linejoin:miter;stroke-width:1.5;" x="183.428598" xlink:href="#m617eb91dcd" y="30.334099"/>
     <use style="fill-opacity:0;stroke:#ff00ff;stroke-linejoin:miter;stroke-width:1.5;" x="338.688" xlink:href="#m617eb91dcd" y="30.334099"/>
    </g>
   </g>
   <g id="line2d_42">
    <path style="fill:none;stroke:#ff00ff;stroke-linecap:square;stroke-width:1.5;"/>
    <g/>
   </g>
   <g id="line2d_43">
    <defs>
     <path d="M 0 1.5 
C 0.397805 1.5 0.77937 1.341951 1.06066 1.06066 
C 1.341951 0.77937 1.5 0.397805 1.5 0 
C 1.5 -0.397805 1.341951 -0.77937 1.06066 -1.06066 
C 0.77937 -1.341951 0.397805 -1.5 0 -1.5 
C -0.397805 -1.5 -0.77937 -1.341951 -1.06066 -1.06066 
C -1.341951 -0.77937 -1.5 -0.397805 -1.5 0 
C -1.5 0.397805 -1.341951 0.77937 -1.06066 1.06066 
C -0.77937 1.341951 -0.397805 1.5 0 1.5 
z
" id="m1229952e69" style="stroke:#ff7500;"/>
    </defs>
    <g>
     <use style="fill:#ff7500;stroke:#ff7500;" x="230.354551" xlink:href="#m1229952e69" y="30.334099"/>
     <use style="fill:#ff7500;stroke:#ff7500;" x="230.354551" xlink:href="#m1229952e69" y="30.334099"/>
    </g>
   </g>
   <g id="line2d_44">
    <path d="M 45.512012 298.944 
L 45.512012 271.029638 
L 57.6 271.029638 
L 57.6 266.816149 
L 64.67102 266.816149 
L 64.67102 261.549288 
L 69.687988 261.549288 
L 69.687988 261.022602 
L 73.579452 261.022602 
L 73.579452 260.495916 
L 76.759008 260.495916 
L 76.759008 256.282427 
L 81.775977 256.282427 
L 81.775977 252.068939 
L 83.830028 252.068939 
L 83.830028 251.542253 
L 87.329581 251.542253 
L 87.329581 249.435508 
L 88.846997 249.435508 
L 88.846997 248.382136 
L 93.863965 248.382136 
L 93.863965 247.85545 
L 96.86091 247.85545 
L 96.86091 247.328764 
L 97.755429 247.328764 
L 97.755429 246.802078 
L 99.41757 246.802078 
L 99.41757 244.695334 
L 102.989037 244.695334 
L 102.989037 242.061903 
L 104.23523 242.061903 
L 104.23523 241.535217 
L 106.48859 241.535217 
L 106.48859 239.428473 
L 110.694282 239.428473 
L 110.694282 237.848415 
L 111.897469 237.848415 
L 111.897469 236.795043 
L 113.022974 236.795043 
L 113.022974 236.268356 
L 114.080224 236.268356 
L 114.080224 235.74167 
L 118.310324 235.74167 
L 118.310324 234.688298 
L 120.093994 234.688298 
L 120.093994 233.634926 
L 121.489881 233.634926 
L 121.489881 233.10824 
L 121.712041 233.10824 
L 121.712041 229.948123 
L 123.593547 229.948123 
L 123.593547 229.421437 
L 126.338353 229.421437 
L 126.338353 224.681263 
L 127.002787 224.681263 
L 127.002787 222.574518 
L 128.560901 222.574518 
L 128.560901 220.99446 
L 129.147151 220.99446 
L 129.147151 220.467774 
L 129.991152 220.467774 
L 129.991152 219.414402 
L 130.263646 219.414402 
L 130.263646 216.254285 
L 131.565689 216.254285 
L 131.565689 212.040797 
L 133.009765 212.040797 
L 133.009765 207.827308 
L 133.46572 207.827308 
L 133.46572 205.193878 
L 134.019394 205.193878 
L 134.019394 203.613819 
L 134.973757 203.613819 
L 135.076644 201.507075 
L 139.333553 201.507075 
L 139.413734 197.293586 
L 140.11924 197.293586 
L 140.11924 196.240214 
L 140.723258 196.240214 
L 140.723258 193.606784 
L 141.732423 193.606784 
L 141.732423 192.553412 
L 142.486301 192.553412 
L 142.486301 190.973354 
L 142.818488 190.973354 
L 142.818488 189.393295 
L 144.747789 189.393295 
L 144.747789 178.859574 
L 145.097753 178.859574 
L 145.097753 178.332888 
L 145.440832 178.332888 
L 145.440832 177.279515 
L 146.958248 177.279515 
L 146.958248 175.172771 
L 147.317833 175.172771 
L 147.317833 174.646085 
L 147.52003 174.646085 
L 147.52003 174.119399 
L 147.818997 174.119399 
L 147.818997 173.066027 
L 149.15016 173.066027 
L 149.15016 171.485969 
L 149.422654 171.485969 
L 149.467659 166.219108 
L 150.172372 166.219108 
L 150.172372 163.058991 
L 151.015013 163.058991 
L 151.015013 161.478933 
L 151.897188 161.478933 
L 151.975216 158.845503 
L 152.168773 158.845503 
L 152.168773 156.212072 
L 152.624728 156.212072 
L 152.624728 153.578642 
L 153.820412 153.578642 
L 153.925152 151.998584 
L 154.507086 151.998584 
L 154.507086 150.945211 
L 154.93935 150.945211 
L 154.93935 148.311781 
L 155.425155 148.311781 
L 155.488919 145.678351 
L 155.990803 145.678351 
L 155.990803 145.151665 
L 156.114049 145.151665 
L 156.114049 140.41149 
L 156.266892 140.41149 
L 156.357959 136.724687 
L 156.508689 136.724687 
L 156.508689 135.671315 
L 157.098907 135.671315 
L 157.098907 135.144629 
L 157.809652 135.144629 
L 157.809652 134.091257 
L 158.412011 134.091257 
L 158.412011 133.564571 
L 159.303838 133.564571 
L 159.303838 133.037885 
L 159.708245 133.037885 
L 159.708245 129.877768 
L 159.882266 129.877768 
L 159.882266 127.244338 
L 160.938061 127.244338 
L 160.938061 125.137593 
L 161.420284 125.137593 
L 161.420284 123.030849 
L 161.64531 123.030849 
L 161.64531 119.344047 
L 161.778945 119.344047 
L 161.778945 115.657244 
L 162.303474 115.657244 
L 162.303474 114.603872 
L 162.602318 114.603872 
L 162.665696 111.970441 
L 163.449152 111.970441 
L 163.449152 110.390383 
L 163.629664 110.390383 
L 163.629664 106.703581 
L 164.429145 106.703581 
L 164.429145 106.176895 
L 164.562052 106.176895 
L 164.562052 105.650209 
L 165.411116 105.650209 
L 165.411116 104.596836 
L 166.408919 104.596836 
L 166.408919 104.07015 
L 166.628709 104.07015 
L 166.628709 98.803289 
L 166.862349 98.803289 
L 166.862349 97.223231 
L 167.513144 97.223231 
L 167.513144 90.376312 
L 167.656285 90.376312 
L 167.656285 89.32294 
L 168.790698 89.32294 
L 168.790698 86.162824 
L 168.9532 86.162824 
L 168.9532 83.529393 
L 169.27373 83.529393 
L 169.27373 80.369277 
L 169.841835 80.369277 
L 169.841835 74.049044 
L 170.077786 74.049044 
L 170.077786 73.522358 
L 170.215104 73.522358 
L 170.215104 71.415613 
L 171.557249 71.415613 
L 171.557249 70.362241 
L 172.068921 70.362241 
L 172.167033 63.515322 
L 174.13117 63.515322 
L 174.13117 61.935264 
L 174.294307 61.935264 
L 174.294307 57.195089 
L 174.466655 57.195089 
L 174.466655 56.668403 
L 174.795808 56.668403 
L 174.795808 55.088345 
L 175.354741 55.088345 
L 175.354741 54.561659 
L 175.827052 54.561659 
L 175.827052 51.928228 
L 176.190077 51.928228 
L 176.190077 49.821484 
L 176.574218 49.821484 
L 176.574218 49.294798 
L 176.810078 49.294798 
L 176.819447 47.71474 
L 177.098184 47.71474 
L 177.208443 46.134681 
L 179.69669 46.134681 
L 179.69669 45.081309 
L 181.151123 45.081309 
L 181.151123 42.974565 
L 218.356348 42.974565 
L 218.425431 40.867821 
L 218.477924 40.867821 
L 218.555941 38.761076 
L 218.612307 38.761076 
L 218.710087 37.707704 
L 218.825862 37.707704 
L 218.928318 35.60096 
L 219.104108 35.60096 
L 219.104108 35.074274 
L 219.244462 35.074274 
L 219.244462 34.020902 
L 219.416295 34.020902 
L 219.422808 32.967529 
L 219.572738 32.967529 
L 219.572738 32.440843 
L 219.80759 32.440843 
L 219.80759 31.914157 
L 220.038535 31.914157 
L 220.038535 31.387471 
L 230.324084 31.387471 
L 230.354551 30.334099 
L 338.688 30.334099 
L 338.688 30.334099 
" style="fill:none;stroke:#ff7500;stroke-linecap:square;stroke-width:1.5;"/>
   </g>
   <g id="line2d_45">
    <defs>
     <path d="M 0 -6 
L -1.347084 -1.854102 
L -5.706339 -1.854102 
L -2.179628 0.708204 
L -3.526712 4.854102 
L -0 2.291796 
L 3.526712 4.854102 
L 2.179628 0.708204 
L 5.706339 -1.854102 
L 1.347084 -1.854102 
z
" id="meace38dd8d" style="stroke:#ff7500;stroke-linejoin:bevel;stroke-width:1.5;"/>
    </defs>
    <g>
     <use style="fill-opacity:0;stroke:#ff7500;stroke-linejoin:bevel;stroke-width:1.5;" x="127.002787" xlink:href="#meace38dd8d" y="224.681263"/>
     <use style="fill-opacity:0;stroke:#ff7500;stroke-linejoin:bevel;stroke-width:1.5;" x="166.408919" xlink:href="#meace38dd8d" y="104.07015"/>
     <use style="fill-opacity:0;stroke:#ff7500;stroke-linejoin:bevel;stroke-width:1.5;" x="181.151123" xlink:href="#meace38dd8d" y="42.974565"/>
     <use style="fill-opacity:0;stroke:#ff7500;stroke-linejoin:bevel;stroke-width:1.5;" x="230.354551" xlink:href="#meace38dd8d" y="30.334099"/>
     <use style="fill-opacity:0;stroke:#ff7500;stroke-linejoin:bevel;stroke-width:1.5;" x="230.354551" xlink:href="#meace38dd8d" y="30.334099"/>
     <use style="fill-opacity:0;stroke:#ff7500;stroke-linejoin:bevel;stroke-width:1.5;" x="338.688" xlink:href="#meace38dd8d" y="30.334099"/>
    </g>
   </g>
   <g id="line2d_46">
    <path style="fill:none;stroke:#ff7500;stroke-linecap:square;stroke-width:1.5;"/>
    <g/>
   </g>
   <g id="line2d_47">
    <path clip-path="url(#p97a03ac250)" d="M 218.221714 42.974565 
" style="fill:none;stroke:#ff7500;stroke-linecap:square;stroke-width:1.5;"/>
    <defs>
     <path d="M -12 12 
L 12 -12 
M -12 -12 
L 12 12 
" id="m061c7e3ca2" style="stroke:#ff7500;"/>
    </defs>
    <g clip-path="url(#p97a03ac250)">
     <use style="fill:#ff7500;stroke:#ff7500;" x="218.221714" xlink:href="#m061c7e3ca2" y="42.974565"/>
    </g>
   </g>
   <g id="line2d_48">
    <defs>
     <path d="M 0 1.5 
C 0.397805 1.5 0.77937 1.341951 1.06066 1.06066 
C 1.341951 0.77937 1.5 0.397805 1.5 0 
C 1.5 -0.397805 1.341951 -0.77937 1.06066 -1.06066 
C 0.77937 -1.341951 0.397805 -1.5 0 -1.5 
C -0.397805 -1.5 -0.77937 -1.341951 -1.06066 -1.06066 
C -1.341951 -0.77937 -1.5 -0.397805 -1.5 0 
C -1.5 0.397805 -1.341951 0.77937 -1.06066 1.06066 
C -0.77937 1.341951 -0.397805 1.5 0 1.5 
z
" id="ma7f6e66fa2" style="stroke:#6495ed;"/>
    </defs>
    <g>
     <use style="fill:#6495ed;stroke:#6495ed;" x="190.495343" xlink:href="#ma7f6e66fa2" y="30.334099"/>
     <use style="fill:#6495ed;stroke:#6495ed;" x="190.495343" xlink:href="#ma7f6e66fa2" y="30.334099"/>
    </g>
   </g>
   <g id="line2d_49">
    <path d="M 45.512012 298.944 
L 45.512012 268.396207 
L 57.6 268.396207 
L 57.6 264.182719 
L 64.67102 264.182719 
L 64.67102 261.549288 
L 69.687988 261.549288 
L 69.687988 261.022602 
L 73.579452 261.022602 
L 73.579452 258.389172 
L 79.447285 258.389172 
L 79.447285 256.809114 
L 81.775977 256.809114 
L 81.775977 252.595625 
L 83.830028 252.595625 
L 83.830028 251.542253 
L 85.66744 251.542253 
L 85.66744 250.488881 
L 87.329581 250.488881 
L 87.329581 247.85545 
L 91.535274 247.85545 
L 91.535274 246.802078 
L 99.41757 246.802078 
L 99.41757 245.22202 
L 100.934985 245.22202 
L 100.934985 244.168648 
L 102.330873 244.168648 
L 102.330873 243.641962 
L 104.23523 243.641962 
L 104.23523 240.481845 
L 104.826449 240.481845 
L 104.826449 239.955159 
L 107.009204 239.955159 
L 107.009204 238.901787 
L 111.104637 238.901787 
L 111.104637 238.375101 
L 113.022974 238.375101 
L 113.022974 237.848415 
L 114.751048 237.848415 
L 114.751048 237.321729 
L 116.019919 237.321729 
L 116.019919 235.214984 
L 116.621333 235.214984 
L 116.621333 234.161612 
L 117.202696 234.161612 
L 117.202696 233.10824 
L 120.33454 233.10824 
L 120.33454 230.47481 
L 120.571812 230.47481 
L 120.571812 226.788007 
L 124.92835 226.788007 
L 124.92835 226.261321 
L 126.338353 226.261321 
L 126.338353 219.414402 
L 127.165014 219.414402 
L 127.165014 217.834344 
L 131.312942 217.834344 
L 131.312942 216.780971 
L 131.565689 216.780971 
L 131.565689 211.514111 
L 131.690703 211.514111 
L 131.690703 210.460738 
L 134.343353 210.460738 
L 134.343353 208.353994 
L 137.016339 208.353994 
L 137.016339 206.773936 
L 137.198951 206.773936 
L 137.198951 204.667192 
L 138.084384 204.667192 
L 138.084384 203.613819 
L 139.009092 203.613819 
L 139.009092 203.087133 
L 140.195896 203.087133 
L 140.195896 201.507075 
L 140.574203 201.507075 
L 140.574203 200.980389 
L 141.235139 200.980389 
L 141.235139 200.453703 
L 142.486301 200.453703 
L 142.486301 196.240214 
L 143.337167 196.240214 
L 143.337167 193.606784 
L 143.902815 193.606784 
L 143.902815 190.973354 
L 144.629556 190.973354 
L 144.629556 190.446667 
L 144.747789 190.446667 
L 144.747789 189.919981 
L 145.609873 189.919981 
L 145.609873 188.866609 
L 146.484754 188.866609 
L 146.484754 188.339923 
L 146.749392 188.339923 
L 146.854132 179.38626 
L 147.570215 179.38626 
L 147.570215 178.859574 
L 149.646525 178.859574 
L 149.646525 176.752829 
L 150.808139 176.752829 
L 150.808139 175.699457 
L 150.973835 175.699457 
L 150.973835 172.539341 
L 151.219462 172.539341 
L 151.219462 170.432596 
L 152.398241 170.432596 
L 152.398241 169.90591 
L 152.699575 169.90591 
L 152.699575 169.379224 
L 153.466662 169.379224 
L 153.466662 168.852538 
L 154.439623 168.852538 
L 154.439623 165.165736 
L 154.807483 165.165736 
L 154.807483 164.112363 
L 155.361158 164.112363 
L 155.361158 163.585677 
L 155.741666 163.585677 
L 155.741666 163.058991 
L 156.478647 163.058991 
L 156.478647 158.318817 
L 158.249784 158.318817 
L 158.249784 156.738758 
L 161.397621 156.738758 
L 161.397621 155.1587 
L 161.689969 155.1587 
L 161.689969 154.632014 
L 161.84538 154.632014 
L 161.84538 153.051956 
L 162.130378 153.051956 
L 162.130378 150.945211 
L 162.812686 150.945211 
L 162.812686 150.418525 
L 163.808326 150.418525 
L 163.808326 149.891839 
L 164.35274 149.891839 
L 164.35274 146.731723 
L 164.712717 146.731723 
L 164.712717 145.678351 
L 165.02862 145.678351 
L 165.02862 137.251373 
L 165.820633 137.251373 
L 165.820633 135.671315 
L 166.7626 135.671315 
L 166.862349 133.564571 
L 167.304287 133.564571 
L 167.304287 129.877768 
L 168.063324 129.877768 
L 168.063324 129.351082 
L 168.805533 129.351082 
L 168.805533 128.29771 
L 169.431813 128.29771 
L 169.431813 127.771024 
L 170.036379 127.771024 
L 170.036379 127.244338 
L 170.40555 127.244338 
L 170.40555 125.137593 
L 170.687376 125.137593 
L 170.687376 121.977477 
L 170.899085 121.977477 
L 170.899085 116.18393 
L 171.18605 116.18393 
L 171.18605 115.657244 
L 171.519214 115.657244 
L 171.519214 114.603872 
L 171.683438 114.603872 
L 171.683438 111.443755 
L 172.530112 111.443755 
L 172.530112 110.917069 
L 172.83878 110.917069 
L 172.83878 107.756953 
L 173.417442 107.756953 
L 173.462916 106.703581 
L 173.576085 106.703581 
L 173.576085 104.07015 
L 174.498781 104.07015 
L 174.498781 99.329976 
L 174.827334 99.329976 
L 174.827334 98.803289 
L 175.607562 98.803289 
L 175.697687 95.643173 
L 175.906187 95.643173 
L 175.975136 89.849626 
L 176.450298 89.849626 
L 176.450298 87.742882 
L 176.687829 87.742882 
L 176.687829 83.529393 
L 176.810078 83.529393 
L 176.810078 79.315904 
L 177.544086 79.315904 
L 177.544086 78.262532 
L 178.428718 78.262532 
L 178.428718 77.735846 
L 179.041275 77.735846 
L 179.041275 76.155788 
L 179.295031 76.155788 
L 179.295031 70.888927 
L 180.220807 70.888927 
L 180.220807 69.308869 
L 180.45808 69.308869 
L 180.45808 68.782183 
L 181.194904 68.782183 
L 181.194904 65.622066 
L 181.419369 65.622066 
L 181.419369 63.515322 
L 181.591186 63.515322 
L 181.591186 60.355206 
L 182.282564 60.355206 
L 182.282564 59.301833 
L 183.518129 59.301833 
L 183.518129 56.668403 
L 183.689508 56.668403 
L 183.689508 56.141717 
L 184.002497 56.141717 
L 184.002497 55.615031 
L 184.285568 55.615031 
L 184.395097 48.768112 
L 184.885534 48.768112 
L 184.885534 47.71474 
L 185.305076 47.71474 
L 185.32234 44.027937 
L 185.607581 44.027937 
L 185.607581 43.501251 
L 185.776513 43.501251 
L 185.826875 41.394507 
L 186.344367 41.394507 
L 186.344367 40.867821 
L 187.118866 40.867821 
L 187.118866 40.341135 
L 187.478346 40.341135 
L 187.478346 38.23439 
L 187.845502 38.23439 
L 187.845502 37.707704 
L 188.126906 37.707704 
L 188.126906 34.547588 
L 188.413479 34.547588 
L 188.413479 32.967529 
L 190.495343 32.967529 
L 190.495343 30.334099 
L 338.688 30.334099 
L 338.688 30.334099 
" style="fill:none;stroke:#6495ed;stroke-linecap:square;stroke-width:1.5;"/>
   </g>
   <g id="line2d_50">
    <defs>
     <path d="M -0 6 
L 6 -6 
L -6 -6 
z
" id="me1bfc5d2ef" style="stroke:#6495ed;stroke-linejoin:miter;stroke-width:1.5;"/>
    </defs>
    <g>
     <use style="fill-opacity:0;stroke:#6495ed;stroke-linejoin:miter;stroke-width:1.5;" x="111.104637" xlink:href="#me1bfc5d2ef" y="238.901787"/>
     <use style="fill-opacity:0;stroke:#6495ed;stroke-linejoin:miter;stroke-width:1.5;" x="158.249784" xlink:href="#me1bfc5d2ef" y="158.318817"/>
     <use style="fill-opacity:0;stroke:#6495ed;stroke-linejoin:miter;stroke-width:1.5;" x="190.495343" xlink:href="#me1bfc5d2ef" y="32.967529"/>
     <use style="fill-opacity:0;stroke:#6495ed;stroke-linejoin:miter;stroke-width:1.5;" x="190.495343" xlink:href="#me1bfc5d2ef" y="30.334099"/>
     <use style="fill-opacity:0;stroke:#6495ed;stroke-linejoin:miter;stroke-width:1.5;" x="190.495343" xlink:href="#me1bfc5d2ef" y="30.334099"/>
     <use style="fill-opacity:0;stroke:#6495ed;stroke-linejoin:miter;stroke-width:1.5;" x="338.688" xlink:href="#me1bfc5d2ef" y="30.334099"/>
    </g>
   </g>
   <g id="line2d_51">
    <path style="fill:none;stroke:#6495ed;stroke-linecap:square;stroke-width:1.5;"/>
    <g/>
   </g>
   <g id="line2d_52">
    <defs>
     <path d="M 0 1.5 
C 0.397805 1.5 0.77937 1.341951 1.06066 1.06066 
C 1.341951 0.77937 1.5 0.397805 1.5 0 
C 1.5 -0.397805 1.341951 -0.77937 1.06066 -1.06066 
C 0.77937 -1.341951 0.397805 -1.5 0 -1.5 
C -0.397805 -1.5 -0.77937 -1.341951 -1.06066 -1.06066 
C -1.341951 -0.77937 -1.5 -0.397805 -1.5 0 
C -1.5 0.397805 -1.341951 0.77937 -1.06066 1.06066 
C -0.77937 1.341951 -0.397805 1.5 0 1.5 
z
" id="mbcbf7fb7aa" style="stroke:#ff0000;"/>
    </defs>
    <g>
     <use style="fill:#ff0000;stroke:#ff0000;" x="198.364419" xlink:href="#mbcbf7fb7aa" y="30.334099"/>
     <use style="fill:#ff0000;stroke:#ff0000;" x="198.364419" xlink:href="#mbcbf7fb7aa" y="30.334099"/>
    </g>
   </g>
   <g id="line2d_53">
    <path d="M 45.512012 298.944 
L 45.512012 269.449579 
L 57.6 269.449579 
L 57.6 266.289463 
L 64.67102 266.289463 
L 64.67102 264.182719 
L 69.687988 264.182719 
L 69.687988 262.075974 
L 73.579452 262.075974 
L 73.579452 259.96923 
L 76.759008 259.96923 
L 76.759008 258.915858 
L 79.447285 258.915858 
L 79.447285 257.862486 
L 81.775977 257.862486 
L 81.775977 256.809114 
L 83.830028 256.809114 
L 83.830028 256.282427 
L 85.66744 256.282427 
L 85.66744 254.702369 
L 88.846997 254.702369 
L 88.846997 251.015567 
L 91.535274 251.015567 
L 91.535274 250.488881 
L 93.863965 250.488881 
L 93.863965 249.435508 
L 94.921215 249.435508 
L 94.921215 248.382136 
L 95.918017 248.382136 
L 95.918017 246.275392 
L 100.192776 246.275392 
L 100.192776 245.748706 
L 101.646892 245.748706 
L 101.646892 245.22202 
L 102.330873 245.22202 
L 102.330873 244.695334 
L 103.623262 244.695334 
L 103.623262 244.168648 
L 104.826449 244.168648 
L 104.826449 243.115275 
L 105.951954 243.115275 
L 105.951954 242.588589 
L 107.009204 242.588589 
L 107.009204 242.061903 
L 108.483824 242.061903 
L 108.483824 241.535217 
L 116.019919 241.535217 
L 116.019919 239.955159 
L 120.33454 239.955159 
L 120.33454 237.321729 
L 122.573415 237.321729 
L 122.573415 234.161612 
L 122.988655 234.161612 
L 122.988655 231.528182 
L 128.260216 231.528182 
L 128.260216 228.894751 
L 128.856489 228.894751 
L 128.856489 223.101204 
L 130.398313 223.101204 
L 130.398313 220.467774 
L 133.239232 220.467774 
L 133.239232 219.414402 
L 133.800029 219.414402 
L 133.800029 215.727599 
L 134.12805 215.727599 
L 134.12805 215.200913 
L 135.280614 215.200913 
L 135.280614 213.094169 
L 135.780341 213.094169 
L 135.780341 209.934052 
L 137.289545 209.934052 
L 137.289545 208.88068 
L 138.67848 208.88068 
L 138.67848 206.24725 
L 140.944478 206.24725 
L 140.944478 205.193878 
L 141.871938 205.193878 
L 141.871938 204.667192 
L 143.464461 204.667192 
L 143.464461 202.033761 
L 144.45069 202.033761 
L 144.45069 197.820273 
L 145.888018 197.820273 
L 145.888018 193.080098 
L 148.161434 193.080098 
L 148.161434 191.50004 
L 149.012299 191.50004 
L 149.012299 190.973354 
L 149.557321 190.973354 
L 149.557321 190.446667 
L 150.215485 190.446667 
L 150.215485 188.866609 
L 151.178764 188.866609 
L 151.178764 187.813237 
L 151.581536 187.813237 
L 151.581536 187.286551 
L 151.779487 187.286551 
L 151.779487 186.233179 
L 152.885298 186.233179 
L 152.922207 179.912946 
L 153.959927 179.912946 
L 153.959927 179.38626 
L 156.357959 179.38626 
L 156.357959 177.806202 
L 156.835778 177.806202 
L 156.835778 175.172771 
L 158.331086 175.172771 
L 158.331086 173.066027 
L 158.572743 173.066027 
L 158.572743 171.485969 
L 158.994256 171.485969 
L 158.994256 169.379224 
L 159.354904 169.379224 
L 159.354904 166.219108 
L 159.507213 166.219108 
L 159.507213 165.165736 
L 159.733212 165.165736 
L 159.733212 162.532305 
L 160.321935 162.532305 
L 160.321935 160.952247 
L 160.513841 160.952247 
L 160.513841 159.898875 
L 160.656397 159.898875 
L 160.656397 152.52527 
L 161.53316 152.52527 
L 161.53316 150.418525 
L 163.946031 150.418525 
L 163.946031 145.151665 
L 164.637547 145.151665 
L 164.637547 141.991548 
L 165.010195 141.991548 
L 165.010195 137.778059 
L 165.356985 137.778059 
L 165.356985 134.617943 
L 166.645502 134.617943 
L 166.645502 131.984513 
L 167.384913 131.984513 
L 167.384913 129.877768 
L 167.608702 129.877768 
L 167.608702 127.771024 
L 168.354881 127.771024 
L 168.354881 127.244338 
L 169.099626 127.244338 
L 169.186895 126.190966 
L 171.93311 126.190966 
L 172.019658 117.763988 
L 172.397859 117.763988 
L 172.506141 111.443755 
L 172.518131 111.443755 
L 172.518131 108.810325 
L 173.337576 108.810325 
L 173.337576 106.703581 
L 174.15301 106.703581 
L 174.15301 105.650209 
L 175.283289 105.650209 
L 175.283289 104.07015 
L 175.425901 104.07015 
L 175.476552 102.490092 
L 176.170646 102.490092 
L 176.170646 100.383348 
L 177.299796 100.383348 
L 177.299796 99.329976 
L 177.517111 99.329976 
L 177.517111 97.749917 
L 178.187935 97.749917 
L 178.187935 95.116487 
L 178.394524 95.116487 
L 178.394524 93.009743 
L 180.143574 93.009743 
L 180.143574 87.216196 
L 180.722145 87.216196 
L 180.722145 85.109451 
L 181.512647 85.109451 
L 181.512647 84.056079 
L 183.098507 84.056079 
L 183.196243 78.262532 
L 183.92789 78.262532 
L 183.92789 76.682474 
L 184.316062 76.682474 
L 184.316062 75.102416 
L 185.658433 75.102416 
L 185.658433 74.049044 
L 186.180872 74.049044 
L 186.180872 70.362241 
L 186.645515 70.362241 
L 186.645515 69.835555 
L 186.999115 69.835555 
L 186.999115 69.308869 
L 187.340566 69.308869 
L 187.43254 67.202125 
L 187.785676 67.202125 
L 187.890237 64.568694 
L 188.456783 64.568694 
L 188.562185 57.721775 
L 188.972874 57.721775 
L 188.972874 56.668403 
L 189.3376 56.668403 
L 189.3376 56.141717 
L 190.529512 56.141717 
L 190.529512 51.928228 
L 191.633136 51.928228 
L 191.729 47.188054 
L 191.748906 47.188054 
L 191.748906 45.607995 
L 192.052617 45.607995 
L 192.052617 44.027937 
L 192.508017 44.027937 
L 192.508017 42.974565 
L 192.858737 42.974565 
L 192.858737 41.921193 
L 194.000336 41.921193 
L 194.000336 41.394507 
L 194.65578 41.394507 
L 194.65578 40.341135 
L 194.962912 40.341135 
L 194.962912 39.814448 
L 195.258222 39.814448 
L 195.306958 38.761076 
L 195.628428 38.761076 
L 195.628428 37.181018 
L 196.2018 37.181018 
L 196.2018 36.654332 
L 196.346067 36.654332 
L 196.346067 36.127646 
L 196.573836 36.127646 
L 196.634075 34.547588 
L 196.831402 34.547588 
L 196.878904 32.967529 
L 197.757702 32.967529 
L 197.842072 31.387471 
L 197.917657 31.387471 
L 197.917657 30.860785 
L 198.364419 30.860785 
L 198.364419 30.334099 
L 338.688 30.334099 
L 338.688 30.334099 
" style="fill:none;stroke:#ff0000;stroke-linecap:square;stroke-width:1.5;"/>
   </g>
   <g id="line2d_54">
    <defs>
     <path d="M 0 -6 
L -5.196152 -3 
L -5.196152 3 
L -0 6 
L 5.196152 3 
L 5.196152 -3 
z
" id="m9a94e7aa3c" style="stroke:#ff0000;stroke-linejoin:miter;stroke-width:1.5;"/>
    </defs>
    <g>
     <use style="fill-opacity:0;stroke:#ff0000;stroke-linejoin:miter;stroke-width:1.5;" x="85.66744" xlink:href="#m9a94e7aa3c" y="254.702369"/>
     <use style="fill-opacity:0;stroke:#ff0000;stroke-linejoin:miter;stroke-width:1.5;" x="160.321935" xlink:href="#m9a94e7aa3c" y="162.532305"/>
     <use style="fill-opacity:0;stroke:#ff0000;stroke-linejoin:miter;stroke-width:1.5;" x="184.316062" xlink:href="#m9a94e7aa3c" y="75.102416"/>
     <use style="fill-opacity:0;stroke:#ff0000;stroke-linejoin:miter;stroke-width:1.5;" x="198.364419" xlink:href="#m9a94e7aa3c" y="30.334099"/>
     <use style="fill-opacity:0;stroke:#ff0000;stroke-linejoin:miter;stroke-width:1.5;" x="198.364419" xlink:href="#m9a94e7aa3c" y="30.334099"/>
     <use style="fill-opacity:0;stroke:#ff0000;stroke-linejoin:miter;stroke-width:1.5;" x="338.688" xlink:href="#m9a94e7aa3c" y="30.334099"/>
    </g>
   </g>
   <g id="line2d_55">
    <path style="fill:none;stroke:#ff0000;stroke-linecap:square;stroke-width:1.5;"/>
    <g/>
   </g>
   <g id="line2d_56">
    <defs>
     <path d="M 0 1.5 
C 0.397805 1.5 0.77937 1.341951 1.06066 1.06066 
C 1.341951 0.77937 1.5 0.397805 1.5 0 
C 1.5 -0.397805 1.341951 -0.77937 1.06066 -1.06066 
C 0.77937 -1.341951 0.397805 -1.5 0 -1.5 
C -0.397805 -1.5 -0.77937 -1.341951 -1.06066 -1.06066 
C -1.341951 -0.77937 -1.5 -0.397805 -1.5 0 
C -1.5 0.397805 -1.341951 0.77937 -1.06066 1.06066 
C -0.77937 1.341951 -0.397805 1.5 0 1.5 
z
" id="m0c4d2615c7" style="stroke:#9acd32;"/>
    </defs>
    <g>
     <use style="fill:#9acd32;stroke:#9acd32;" x="200.133901" xlink:href="#m0c4d2615c7" y="30.334099"/>
     <use style="fill:#9acd32;stroke:#9acd32;" x="200.133901" xlink:href="#m0c4d2615c7" y="30.334099"/>
    </g>
   </g>
   <g id="line2d_57">
    <path d="M 45.512012 298.944 
L 45.512012 273.136382 
L 57.6 273.136382 
L 57.6 269.449579 
L 64.67102 269.449579 
L 64.67102 264.709405 
L 69.687988 264.709405 
L 69.687988 260.495916 
L 73.579452 260.495916 
L 73.579452 259.96923 
L 76.759008 259.96923 
L 76.759008 250.488881 
L 79.447285 250.488881 
L 79.447285 248.908822 
L 83.830028 248.908822 
L 83.830028 248.382136 
L 87.329581 248.382136 
L 87.329581 246.275392 
L 88.846997 246.275392 
L 88.846997 245.22202 
L 93.863965 245.22202 
L 93.863965 244.695334 
L 94.921215 244.695334 
L 94.921215 241.535217 
L 95.918017 241.535217 
L 95.918017 241.008531 
L 96.86091 241.008531 
L 96.86091 240.481845 
L 100.934985 240.481845 
L 100.934985 239.955159 
L 102.330873 239.955159 
L 102.330873 239.428473 
L 104.826449 239.428473 
L 104.826449 233.634926 
L 108.483824 233.634926 
L 108.483824 231.001496 
L 111.104637 231.001496 
L 111.104637 227.841379 
L 113.73488 227.841379 
L 113.73488 225.734635 
L 114.080224 225.734635 
L 114.080224 225.207949 
L 114.751048 225.207949 
L 114.751048 224.154577 
L 115.397021 224.154577 
L 115.397021 223.627891 
L 116.323218 223.627891 
L 116.323218 222.047832 
L 119.602714 222.047832 
L 119.602714 221.521146 
L 120.571812 221.521146 
L 120.571812 220.99446 
L 123.394238 220.99446 
L 123.394238 220.467774 
L 126.50685 220.467774 
L 126.50685 215.200913 
L 127.165014 215.200913 
L 127.165014 214.147541 
L 127.642832 214.147541 
L 127.642832 213.094169 
L 131.938072 213.094169 
L 131.938072 209.934052 
L 134.019394 209.934052 
L 134.019394 205.720564 
L 134.343353 205.720564 
L 134.343353 204.667192 
L 135.878591 204.667192 
L 135.97629 200.980389 
L 137.289545 200.980389 
L 137.289545 198.346959 
L 138.170504 198.346959 
L 138.170504 197.293586 
L 140.871049 197.293586 
L 140.871049 196.240214 
L 141.662245 196.240214 
L 141.662245 195.186842 
L 143.208936 195.186842 
L 143.208936 194.660156 
L 144.148442 194.660156 
L 144.148442 190.446667 
L 147.164632 190.446667 
L 147.164632 189.919981 
L 147.769524 189.919981 
L 147.769524 187.813237 
L 149.286939 187.813237 
L 149.377533 186.233179 
L 149.422654 186.233179 
L 149.422654 185.706493 
L 150.085825 185.706493 
L 150.172372 179.38626 
L 151.13797 179.38626 
L 151.13797 178.332888 
L 151.621307 178.332888 
L 151.621307 173.592713 
L 152.398241 173.592713 
L 152.398241 173.066027 
L 152.774102 173.066027 
L 152.774102 171.485969 
L 153.250915 171.485969 
L 153.250915 170.959282 
L 154.873541 170.959282 
L 154.873541 168.852538 
L 155.773004 168.852538 
L 155.773004 167.27248 
L 157.472107 167.27248 
L 157.472107 165.165736 
L 157.86528 165.165736 
L 157.86528 164.63905 
L 158.222599 164.63905 
L 158.222599 161.478933 
L 158.385078 161.478933 
L 158.385078 160.425561 
L 159.956318 160.425561 
L 159.956318 159.898875 
L 160.418152 159.898875 
L 160.418152 159.372189 
L 161.169354 159.372189 
L 161.169354 157.265444 
L 161.352206 157.265444 
L 161.352206 156.212072 
L 162.979172 156.212072 
L 162.979172 151.998584 
L 163.985177 151.998584 
L 163.985177 151.471897 
L 166.151824 151.471897 
L 166.151824 149.891839 
L 166.476842 149.891839 
L 166.476842 149.365153 
L 166.662278 149.365153 
L 166.662278 146.731723 
L 167.352708 146.731723 
L 167.352708 146.205037 
L 169.157854 146.205037 
L 169.244833 145.151665 
L 169.474679 145.151665 
L 169.488944 142.518234 
L 169.673338 142.518234 
L 169.673338 141.991548 
L 169.925477 141.991548 
L 169.925477 138.831432 
L 170.859585 138.831432 
L 170.859585 135.144629 
L 171.858583 135.144629 
L 171.858583 132.511199 
L 173.00275 132.511199 
L 173.00275 129.877768 
L 173.211329 129.877768 
L 173.211329 128.824396 
L 173.519593 128.824396 
L 173.519593 127.771024 
L 173.744474 127.771024 
L 173.744474 124.084221 
L 174.594807 124.084221 
L 174.594807 121.450791 
L 175.425901 121.450791 
L 175.425901 120.924105 
L 176.621646 120.924105 
L 176.668945 108.283639 
L 176.847522 108.283639 
L 176.847522 107.756953 
L 178.640929 107.756953 
L 178.640929 106.176895 
L 179.107114 106.176895 
L 179.107114 105.123522 
L 180.450477 105.123522 
L 180.450477 104.07015 
L 180.67716 104.07015 
L 180.67716 101.43672 
L 181.412173 101.43672 
L 181.412173 98.803289 
L 181.576933 98.803289 
L 181.576933 98.276603 
L 182.075935 98.276603 
L 182.075935 97.223231 
L 182.193325 97.223231 
L 182.193325 96.169859 
L 182.459683 96.169859 
L 182.459683 89.849626 
L 182.722034 89.849626 
L 182.821896 88.796254 
L 183.486206 88.796254 
L 183.486206 86.68951 
L 183.645238 86.68951 
L 183.645238 85.636137 
L 184.113812 85.636137 
L 184.169204 78.789218 
L 184.431454 78.789218 
L 184.431454 78.262532 
L 184.755301 78.262532 
L 184.755301 74.57573 
L 185.020655 74.57573 
L 185.079078 68.782183 
L 186.20276 68.782183 
L 186.20276 67.202125 
L 187.051282 67.202125 
L 187.051282 66.675439 
L 187.900163 66.675439 
L 187.900163 64.568694 
L 189.250575 64.568694 
L 189.250575 63.515322 
L 189.378671 63.515322 
L 189.451449 61.935264 
L 190.119361 61.935264 
L 190.119361 60.355206 
L 190.842447 60.355206 
L 190.842447 57.195089 
L 190.984366 57.195089 
L 190.984366 56.668403 
L 191.536741 56.668403 
L 191.536741 50.34817 
L 191.982092 50.34817 
L 191.982092 49.821484 
L 192.527053 49.821484 
L 192.527053 49.294798 
L 193.228149 49.294798 
L 193.228149 48.241426 
L 193.391865 48.241426 
L 193.391865 47.71474 
L 193.650656 47.71474 
L 193.650656 46.661368 
L 194.073618 46.661368 
L 194.073618 46.134681 
L 194.675976 46.134681 
L 194.729718 44.027937 
L 194.982756 44.027937 
L 194.982756 43.501251 
L 195.104628 43.501251 
L 195.104628 42.447879 
L 195.433037 42.447879 
L 195.433037 41.921193 
L 195.695191 41.921193 
L 195.761698 38.761076 
L 196.087383 38.761076 
L 196.087383 37.707704 
L 196.994152 37.707704 
L 196.994152 36.127646 
L 197.134958 36.127646 
L 197.134958 35.60096 
L 197.819613 35.60096 
L 197.822422 33.494215 
L 198.045683 33.494215 
L 198.045683 32.440843 
L 199.225006 32.440843 
L 199.225006 30.860785 
L 200.133901 30.860785 
L 200.133901 30.334099 
L 338.688 30.334099 
L 338.688 30.334099 
" style="fill:none;stroke:#9acd32;stroke-linecap:square;stroke-width:1.5;"/>
   </g>
   <g id="line2d_58">
    <defs>
     <path d="M 0 -6 
L -6 6 
L 6 6 
z
" id="mbe01ad44ea" style="stroke:#9acd32;stroke-linejoin:miter;stroke-width:1.5;"/>
    </defs>
    <g>
     <use style="fill-opacity:0;stroke:#9acd32;stroke-linejoin:miter;stroke-width:1.5;" x="137.289545" xlink:href="#mbe01ad44ea" y="200.980389"/>
     <use style="fill-opacity:0;stroke:#9acd32;stroke-linejoin:miter;stroke-width:1.5;" x="181.576933" xlink:href="#mbe01ad44ea" y="98.276603"/>
     <use style="fill-opacity:0;stroke:#9acd32;stroke-linejoin:miter;stroke-width:1.5;" x="200.133901" xlink:href="#mbe01ad44ea" y="30.860785"/>
     <use style="fill-opacity:0;stroke:#9acd32;stroke-linejoin:miter;stroke-width:1.5;" x="200.133901" xlink:href="#mbe01ad44ea" y="30.334099"/>
     <use style="fill-opacity:0;stroke:#9acd32;stroke-linejoin:miter;stroke-width:1.5;" x="200.133901" xlink:href="#mbe01ad44ea" y="30.334099"/>
     <use style="fill-opacity:0;stroke:#9acd32;stroke-linejoin:miter;stroke-width:1.5;" x="338.688" xlink:href="#mbe01ad44ea" y="30.334099"/>
    </g>
   </g>
   <g id="line2d_59">
    <path style="fill:none;stroke:#9acd32;stroke-linecap:square;stroke-width:1.5;"/>
    <g/>
   </g>
   <g id="line2d_60">
    <path d="M 338.688 30.334099 
L 369.60768 293.571802 
" style="fill:none;stroke:#000080;stroke-linecap:square;stroke-width:1.5;"/>
    <g>
     <use style="fill-opacity:0;stroke:#000080;stroke-width:1.5;" x="338.688" xlink:href="#m244880d379" y="30.334099"/>
     <use style="fill-opacity:0;stroke:#000080;stroke-width:1.5;" x="369.60768" xlink:href="#m244880d379" y="293.571802"/>
    </g>
   </g>
   <g id="line2d_61">
    <path d="M 338.688 30.334099 
L 369.60768 250.594218 
" style="fill:none;stroke:#ff7500;stroke-linecap:square;stroke-width:1.5;"/>
    <g>
     <use style="fill-opacity:0;stroke:#ff7500;stroke-linejoin:bevel;stroke-width:1.5;" x="338.688" xlink:href="#meace38dd8d" y="30.334099"/>
     <use style="fill-opacity:0;stroke:#ff7500;stroke-linejoin:bevel;stroke-width:1.5;" x="369.60768" xlink:href="#meace38dd8d" y="250.594218"/>
    </g>
   </g>
   <g id="line2d_62">
    <path d="M 338.688 30.334099 
L 369.60768 207.616634 
" style="fill:none;stroke:#9acd32;stroke-linecap:square;stroke-width:1.5;"/>
    <g>
     <use style="fill-opacity:0;stroke:#9acd32;stroke-linejoin:miter;stroke-width:1.5;" x="338.688" xlink:href="#mbe01ad44ea" y="30.334099"/>
     <use style="fill-opacity:0;stroke:#9acd32;stroke-linejoin:miter;stroke-width:1.5;" x="369.60768" xlink:href="#mbe01ad44ea" y="207.616634"/>
    </g>
   </g>
   <g id="line2d_63">
    <path d="M 338.688 30.334099 
L 369.60768 164.63905 
" style="fill:none;stroke:#ff0000;stroke-linecap:square;stroke-width:1.5;"/>
    <g>
     <use style="fill-opacity:0;stroke:#ff0000;stroke-linejoin:miter;stroke-width:1.5;" x="338.688" xlink:href="#m9a94e7aa3c" y="30.334099"/>
     <use style="fill-opacity:0;stroke:#ff0000;stroke-linejoin:miter;stroke-width:1.5;" x="369.60768" xlink:href="#m9a94e7aa3c" y="164.63905"/>
    </g>
   </g>
   <g id="line2d_64">
    <path d="M 338.688 30.334099 
L 369.60768 121.661465 
" style="fill:none;stroke:#6495ed;stroke-linecap:square;stroke-width:1.5;"/>
    <g>
     <use style="fill-opacity:0;stroke:#6495ed;stroke-linejoin:miter;stroke-width:1.5;" x="338.688" xlink:href="#me1bfc5d2ef" y="30.334099"/>
     <use style="fill-opacity:0;stroke:#6495ed;stroke-linejoin:miter;stroke-width:1.5;" x="369.60768" xlink:href="#me1bfc5d2ef" y="121.661465"/>
    </g>
   </g>
   <g id="line2d_65">
    <path d="M 338.688 30.334099 
L 369.60768 78.683881 
" style="fill:none;stroke:#ff00ff;stroke-linecap:square;stroke-width:1.5;"/>
    <g>
     <use style="fill-opacity:0;stroke:#ff00ff;stroke-linejoin:miter;stroke-width:1.5;" x="338.688" xlink:href="#m617eb91dcd" y="30.334099"/>
     <use style="fill-opacity:0;stroke:#ff00ff;stroke-linejoin:miter;stroke-width:1.5;" x="369.60768" xlink:href="#m617eb91dcd" y="78.683881"/>
    </g>
   </g>
   <g id="line2d_66">
    <path d="M 338.688 298.944 
L 338.688 30.334099 
" style="fill:none;stroke:#000000;stroke-linecap:square;stroke-width:1.5;"/>
   </g>
   <g id="patch_3">
    <path d="M 57.6 298.944 
L 57.6 27.648 
" style="fill:none;stroke:#000000;stroke-linecap:square;stroke-linejoin:miter;stroke-width:0.8;"/>
   </g>
   <g id="patch_4">
    <path d="M 338.688 298.944 
L 338.688 27.648 
" style="fill:none;stroke:#000000;stroke-linecap:square;stroke-linejoin:miter;stroke-width:0.8;"/>
   </g>
   <g id="patch_5">
    <path d="M 57.6 298.944 
L 338.688 298.944 
" style="fill:none;stroke:#000000;stroke-linecap:square;stroke-linejoin:miter;stroke-width:0.8;"/>
   </g>
   <g id="patch_6">
    <path d="M 57.6 27.648 
L 338.688 27.648 
" style="fill:none;stroke:#000000;stroke-linecap:square;stroke-linejoin:miter;stroke-width:0.8;"/>
   </g>
   <g id="text_13">
    <!-- pop10 -->
    <g transform="translate(375.22944 298.262739)scale(0.17 -0.17)">
     <use xlink:href="#DejaVuSans-112"/>
     <use x="63.476562" xlink:href="#DejaVuSans-111"/>
     <use x="124.658203" xlink:href="#DejaVuSans-112"/>
     <use x="188.134766" xlink:href="#DejaVuSans-49"/>
     <use x="251.757812" xlink:href="#DejaVuSans-48"/>
    </g>
   </g>
   <g id="text_14">
    <!-- pop50 -->
    <g transform="translate(375.22944 255.285155)scale(0.17 -0.17)">
     <defs>
      <path d="M 10.796875 72.90625 
L 49.515625 72.90625 
L 49.515625 64.59375 
L 19.828125 64.59375 
L 19.828125 46.734375 
Q 21.96875 47.46875 24.109375 47.828125 
Q 26.265625 48.1875 28.421875 48.1875 
Q 40.625 48.1875 47.75 41.5 
Q 54.890625 34.8125 54.890625 23.390625 
Q 54.890625 11.625 47.5625 5.09375 
Q 40.234375 -1.421875 26.90625 -1.421875 
Q 22.3125 -1.421875 17.546875 -0.640625 
Q 12.796875 0.140625 7.71875 1.703125 
L 7.71875 11.625 
Q 12.109375 9.234375 16.796875 8.0625 
Q 21.484375 6.890625 26.703125 6.890625 
Q 35.15625 6.890625 40.078125 11.328125 
Q 45.015625 15.765625 45.015625 23.390625 
Q 45.015625 31 40.078125 35.4375 
Q 35.15625 39.890625 26.703125 39.890625 
Q 22.75 39.890625 18.8125 39.015625 
Q 14.890625 38.140625 10.796875 36.28125 
z
" id="DejaVuSans-53"/>
     </defs>
     <use xlink:href="#DejaVuSans-112"/>
     <use x="63.476562" xlink:href="#DejaVuSans-111"/>
     <use x="124.658203" xlink:href="#DejaVuSans-112"/>
     <use x="188.134766" xlink:href="#DejaVuSans-53"/>
     <use x="251.757812" xlink:href="#DejaVuSans-48"/>
    </g>
   </g>
   <g id="text_15">
    <!-- pop100xDI -->
    <g transform="translate(375.22944 212.307571)scale(0.17 -0.17)">
     <defs>
      <path d="M 54.890625 54.6875 
L 35.109375 28.078125 
L 55.90625 0 
L 45.3125 0 
L 29.390625 21.484375 
L 13.484375 0 
L 2.875 0 
L 24.125 28.609375 
L 4.6875 54.6875 
L 15.28125 54.6875 
L 29.78125 35.203125 
L 44.28125 54.6875 
z
" id="DejaVuSans-120"/>
      <path d="M 19.671875 64.796875 
L 19.671875 8.109375 
L 31.59375 8.109375 
Q 46.6875 8.109375 53.6875 14.9375 
Q 60.6875 21.78125 60.6875 36.53125 
Q 60.6875 51.171875 53.6875 57.984375 
Q 46.6875 64.796875 31.59375 64.796875 
z
M 9.8125 72.90625 
L 30.078125 72.90625 
Q 51.265625 72.90625 61.171875 64.09375 
Q 71.09375 55.28125 71.09375 36.53125 
Q 71.09375 17.671875 61.125 8.828125 
Q 51.171875 0 30.078125 0 
L 9.8125 0 
z
" id="DejaVuSans-68"/>
      <path d="M 9.8125 72.90625 
L 19.671875 72.90625 
L 19.671875 0 
L 9.8125 0 
z
" id="DejaVuSans-73"/>
     </defs>
     <use xlink:href="#DejaVuSans-112"/>
     <use x="63.476562" xlink:href="#DejaVuSans-111"/>
     <use x="124.658203" xlink:href="#DejaVuSans-112"/>
     <use x="188.134766" xlink:href="#DejaVuSans-49"/>
     <use x="251.757812" xlink:href="#DejaVuSans-48"/>
     <use x="315.380859" xlink:href="#DejaVuSans-48"/>
     <use x="379.003906" xlink:href="#DejaVuSans-120"/>
     <use x="438.183594" xlink:href="#DejaVuSans-68"/>
     <use x="515.185547" xlink:href="#DejaVuSans-73"/>
    </g>
   </g>
   <g id="text_16">
    <!-- pop200 -->
    <g transform="translate(375.22944 169.329987)scale(0.17 -0.17)">
     <use xlink:href="#DejaVuSans-112"/>
     <use x="63.476562" xlink:href="#DejaVuSans-111"/>
     <use x="124.658203" xlink:href="#DejaVuSans-112"/>
     <use x="188.134766" xlink:href="#DejaVuSans-50"/>
     <use x="251.757812" xlink:href="#DejaVuSans-48"/>
     <use x="315.380859" xlink:href="#DejaVuSans-48"/>
    </g>
   </g>
   <g id="text_17">
    <!-- pop100 -->
    <g transform="translate(375.22944 126.352403)scale(0.17 -0.17)">
     <use xlink:href="#DejaVuSans-112"/>
     <use x="63.476562" xlink:href="#DejaVuSans-111"/>
     <use x="124.658203" xlink:href="#DejaVuSans-112"/>
     <use x="188.134766" xlink:href="#DejaVuSans-49"/>
     <use x="251.757812" xlink:href="#DejaVuSans-48"/>
     <use x="315.380859" xlink:href="#DejaVuSans-48"/>
    </g>
   </g>
   <g id="text_18">
    <!-- pop40 -->
    <g transform="translate(375.22944 83.374819)scale(0.17 -0.17)">
     <use xlink:href="#DejaVuSans-112"/>
     <use x="63.476562" xlink:href="#DejaVuSans-111"/>
     <use x="124.658203" xlink:href="#DejaVuSans-112"/>
     <use x="188.134766" xlink:href="#DejaVuSans-52"/>
     <use x="251.757812" xlink:href="#DejaVuSans-48"/>
    </g>
   </g>
   <g id="text_19">
    <!-- best 2009 -->
    <g transform="translate(375.22944 40.397235)scale(0.17 -0.17)">
     <defs>
      <path d="M 48.6875 27.296875 
Q 48.6875 37.203125 44.609375 42.84375 
Q 40.53125 48.484375 33.40625 48.484375 
Q 26.265625 48.484375 22.1875 42.84375 
Q 18.109375 37.203125 18.109375 27.296875 
Q 18.109375 17.390625 22.1875 11.75 
Q 26.265625 6.109375 33.40625 6.109375 
Q 40.53125 6.109375 44.609375 11.75 
Q 48.6875 17.390625 48.6875 27.296875 
z
M 18.109375 46.390625 
Q 20.953125 51.265625 25.265625 53.625 
Q 29.59375 56 35.59375 56 
Q 45.5625 56 51.78125 48.09375 
Q 58.015625 40.1875 58.015625 27.296875 
Q 58.015625 14.40625 51.78125 6.484375 
Q 45.5625 -1.421875 35.59375 -1.421875 
Q 29.59375 -1.421875 25.265625 0.953125 
Q 20.953125 3.328125 18.109375 8.203125 
L 18.109375 0 
L 9.078125 0 
L 9.078125 75.984375 
L 18.109375 75.984375 
z
" id="DejaVuSans-98"/>
      <path d="M 10.984375 1.515625 
L 10.984375 10.5 
Q 14.703125 8.734375 18.5 7.8125 
Q 22.3125 6.890625 25.984375 6.890625 
Q 35.75 6.890625 40.890625 13.453125 
Q 46.046875 20.015625 46.78125 33.40625 
Q 43.953125 29.203125 39.59375 26.953125 
Q 35.25 24.703125 29.984375 24.703125 
Q 19.046875 24.703125 12.671875 31.3125 
Q 6.296875 37.9375 6.296875 49.421875 
Q 6.296875 60.640625 12.9375 67.421875 
Q 19.578125 74.21875 30.609375 74.21875 
Q 43.265625 74.21875 49.921875 64.515625 
Q 56.59375 54.828125 56.59375 36.375 
Q 56.59375 19.140625 48.40625 8.859375 
Q 40.234375 -1.421875 26.421875 -1.421875 
Q 22.703125 -1.421875 18.890625 -0.6875 
Q 15.09375 0.046875 10.984375 1.515625 
z
M 30.609375 32.421875 
Q 37.25 32.421875 41.125 36.953125 
Q 45.015625 41.5 45.015625 49.421875 
Q 45.015625 57.28125 41.125 61.84375 
Q 37.25 66.40625 30.609375 66.40625 
Q 23.96875 66.40625 20.09375 61.84375 
Q 16.21875 57.28125 16.21875 49.421875 
Q 16.21875 41.5 20.09375 36.953125 
Q 23.96875 32.421875 30.609375 32.421875 
z
" id="DejaVuSans-57"/>
     </defs>
     <use xlink:href="#DejaVuSans-98"/>
     <use x="63.476562" xlink:href="#DejaVuSans-101"/>
     <use x="125" xlink:href="#DejaVuSans-115"/>
     <use x="177.099609" xlink:href="#DejaVuSans-116"/>
     <use x="216.308594" xlink:href="#DejaVuSans-32"/>
     <use x="248.095703" xlink:href="#DejaVuSans-50"/>
     <use x="311.71875" xlink:href="#DejaVuSans-48"/>
     <use x="375.341797" xlink:href="#DejaVuSans-48"/>
     <use x="438.964844" xlink:href="#DejaVuSans-57"/>
    </g>
   </g>
   <g id="text_20">
    <!-- bbob f21, 2-D -->
    <g transform="translate(60.41088 38.111366)scale(0.102 -0.102)">
     <use xlink:href="#DejaVuSans-98"/>
     <use x="63.476562" xlink:href="#DejaVuSans-98"/>
     <use x="126.953125" xlink:href="#DejaVuSans-111"/>
     <use x="188.134766" xlink:href="#DejaVuSans-98"/>
     <use x="251.611328" xlink:href="#DejaVuSans-32"/>
     <use x="283.398438" xlink:href="#DejaVuSans-102"/>
     <use x="318.603516" xlink:href="#DejaVuSans-50"/>
     <use x="382.226562" xlink:href="#DejaVuSans-49"/>
     <use x="445.849609" xlink:href="#DejaVuSans-44"/>
     <use x="477.636719" xlink:href="#DejaVuSans-32"/>
     <use x="509.423828" xlink:href="#DejaVuSans-50"/>
     <use x="573.046875" xlink:href="#DejaVuSans-45"/>
     <use x="609.130859" xlink:href="#DejaVuSans-68"/>
    </g>
    <!-- 51 targets: 100..1e-08 -->
    <g transform="translate(60.41088 49.533135)scale(0.102 -0.102)">
     <defs>
      <path d="M 11.71875 12.40625 
L 22.015625 12.40625 
L 22.015625 0 
L 11.71875 0 
z
M 11.71875 51.703125 
L 22.015625 51.703125 
L 22.015625 39.3125 
L 11.71875 39.3125 
z
" id="DejaVuSans-58"/>
     </defs>
     <use xlink:href="#DejaVuSans-53"/>
     <use x="63.623047" xlink:href="#DejaVuSans-49"/>
     <use x="127.246094" xlink:href="#DejaVuSans-32"/>
     <use x="159.033203" xlink:href="#DejaVuSans-116"/>
     <use x="198.242188" xlink:href="#DejaVuSans-97"/>
     <use x="259.521484" xlink:href="#DejaVuSans-114"/>
     <use x="298.884766" xlink:href="#DejaVuSans-103"/>
     <use x="362.361328" xlink:href="#DejaVuSans-101"/>
     <use x="423.884766" xlink:href="#DejaVuSans-116"/>
     <use x="463.09375" xlink:href="#DejaVuSans-115"/>
     <use x="515.193359" xlink:href="#DejaVuSans-58"/>
     <use x="548.884766" xlink:href="#DejaVuSans-32"/>
     <use x="580.671875" xlink:href="#DejaVuSans-49"/>
     <use x="644.294922" xlink:href="#DejaVuSans-48"/>
     <use x="707.917969" xlink:href="#DejaVuSans-48"/>
     <use x="771.541016" xlink:href="#DejaVuSans-46"/>
     <use x="803.328125" xlink:href="#DejaVuSans-46"/>
     <use x="835.115234" xlink:href="#DejaVuSans-49"/>
     <use x="898.738281" xlink:href="#DejaVuSans-101"/>
     <use x="960.261719" xlink:href="#DejaVuSans-45"/>
     <use x="996.345703" xlink:href="#DejaVuSans-48"/>
     <use x="1059.96875" xlink:href="#DejaVuSans-56"/>
    </g>
    <!-- 15 instances -->
    <g transform="translate(60.41088 60.954904)scale(0.102 -0.102)">
     <use xlink:href="#DejaVuSans-49"/>
     <use x="63.623047" xlink:href="#DejaVuSans-53"/>
     <use x="127.246094" xlink:href="#DejaVuSans-32"/>
     <use x="159.033203" xlink:href="#DejaVuSans-105"/>
     <use x="186.816406" xlink:href="#DejaVuSans-110"/>
     <use x="250.195312" xlink:href="#DejaVuSans-115"/>
     <use x="302.294922" xlink:href="#DejaVuSans-116"/>
     <use x="341.503906" xlink:href="#DejaVuSans-97"/>
     <use x="402.783203" xlink:href="#DejaVuSans-110"/>
     <use x="466.162109" xlink:href="#DejaVuSans-99"/>
     <use x="521.142578" xlink:href="#DejaVuSans-101"/>
     <use x="582.666016" xlink:href="#DejaVuSans-115"/>
    </g>
   </g>
   <g id="text_21">
    <!-- v2.4 -->
    <g style="fill:#808080;" transform="translate(187.233062 294.151352)scale(0.1 -0.1)">
     <use xlink:href="#DejaVuSans-118"/>
     <use x="59.179688" xlink:href="#DejaVuSans-50"/>
     <use x="122.802734" xlink:href="#DejaVuSans-46"/>
     <use x="154.589844" xlink:href="#DejaVuSans-52"/>
    </g>
   </g>
   <g id="text_22">
    <!-- 21 Gallagher 101 peaks -->
    <g transform="translate(78.6565 21.648)scale(0.2 -0.2)">
     <defs>
      <path d="M 59.515625 10.40625 
L 59.515625 29.984375 
L 43.40625 29.984375 
L 43.40625 38.09375 
L 69.28125 38.09375 
L 69.28125 6.78125 
Q 63.578125 2.734375 56.6875 0.65625 
Q 49.8125 -1.421875 42 -1.421875 
Q 24.90625 -1.421875 15.25 8.5625 
Q 5.609375 18.5625 5.609375 36.375 
Q 5.609375 54.25 15.25 64.234375 
Q 24.90625 74.21875 42 74.21875 
Q 49.125 74.21875 55.546875 72.453125 
Q 61.96875 70.703125 67.390625 67.28125 
L 67.390625 56.78125 
Q 61.921875 61.421875 55.765625 63.765625 
Q 49.609375 66.109375 42.828125 66.109375 
Q 29.4375 66.109375 22.71875 58.640625 
Q 16.015625 51.171875 16.015625 36.375 
Q 16.015625 21.625 22.71875 14.15625 
Q 29.4375 6.6875 42.828125 6.6875 
Q 48.046875 6.6875 52.140625 7.59375 
Q 56.25 8.5 59.515625 10.40625 
z
" id="DejaVuSans-71"/>
      <path d="M 54.890625 33.015625 
L 54.890625 0 
L 45.90625 0 
L 45.90625 32.71875 
Q 45.90625 40.484375 42.875 44.328125 
Q 39.84375 48.1875 33.796875 48.1875 
Q 26.515625 48.1875 22.3125 43.546875 
Q 18.109375 38.921875 18.109375 30.90625 
L 18.109375 0 
L 9.078125 0 
L 9.078125 75.984375 
L 18.109375 75.984375 
L 18.109375 46.1875 
Q 21.34375 51.125 25.703125 53.5625 
Q 30.078125 56 35.796875 56 
Q 45.21875 56 50.046875 50.171875 
Q 54.890625 44.34375 54.890625 33.015625 
z
" id="DejaVuSans-104"/>
      <path d="M 9.078125 75.984375 
L 18.109375 75.984375 
L 18.109375 31.109375 
L 44.921875 54.6875 
L 56.390625 54.6875 
L 27.390625 29.109375 
L 57.625 0 
L 45.90625 0 
L 18.109375 26.703125 
L 18.109375 0 
L 9.078125 0 
z
" id="DejaVuSans-107"/>
     </defs>
     <use xlink:href="#DejaVuSans-50"/>
     <use x="63.623047" xlink:href="#DejaVuSans-49"/>
     <use x="127.246094" xlink:href="#DejaVuSans-32"/>
     <use x="159.033203" xlink:href="#DejaVuSans-71"/>
     <use x="236.523438" xlink:href="#DejaVuSans-97"/>
     <use x="297.802734" xlink:href="#DejaVuSans-108"/>
     <use x="325.585938" xlink:href="#DejaVuSans-108"/>
     <use x="353.369141" xlink:href="#DejaVuSans-97"/>
     <use x="414.648438" xlink:href="#DejaVuSans-103"/>
     <use x="478.125" xlink:href="#DejaVuSans-104"/>
     <use x="541.503906" xlink:href="#DejaVuSans-101"/>
     <use x="603.027344" xlink:href="#DejaVuSans-114"/>
     <use x="644.140625" xlink:href="#DejaVuSans-32"/>
     <use x="675.927734" xlink:href="#DejaVuSans-49"/>
     <use x="739.550781" xlink:href="#DejaVuSans-48"/>
     <use x="803.173828" xlink:href="#DejaVuSans-49"/>
     <use x="866.796875" xlink:href="#DejaVuSans-32"/>
     <use x="898.583984" xlink:href="#DejaVuSans-112"/>
     <use x="962.060547" xlink:href="#DejaVuSans-101"/>
     <use x="1023.583984" xlink:href="#DejaVuSans-97"/>
     <use x="1084.863281" xlink:href="#DejaVuSans-107"/>
     <use x="1142.773438" xlink:href="#DejaVuSans-115"/>
    </g>
   </g>
  </g>
 </g>
 <defs>
  <clipPath id="p97a03ac250">
   <rect height="271.296" width="281.088" x="57.6" y="27.648"/>
  </clipPath>
 </defs>
</svg>
