<?xml version="1.0" encoding="utf-8" standalone="no"?>
<!DOCTYPE svg PUBLIC "-//W3C//DTD SVG 1.1//EN"
  "http://www.w3.org/Graphics/SVG/1.1/DTD/svg11.dtd">
<!-- Created with matplotlib (https://matplotlib.org/) -->
<svg height="345.6pt" version="1.1" viewBox="0 0 460.8 345.6" width="460.8pt" xmlns="http://www.w3.org/2000/svg" xmlns:xlink="http://www.w3.org/1999/xlink">
 <metadata>
  <rdf:RDF xmlns:cc="http://creativecommons.org/ns#" xmlns:dc="http://purl.org/dc/elements/1.1/" xmlns:rdf="http://www.w3.org/1999/02/22-rdf-syntax-ns#">
   <cc:Work>
    <dc:type rdf:resource="http://purl.org/dc/dcmitype/StillImage"/>
    <dc:date>2021-04-18T18:03:45.623983</dc:date>
    <dc:format>image/svg+xml</dc:format>
    <dc:creator>
     <cc:Agent>
      <dc:title>Matplotlib v3.3.4, https://matplotlib.org/</dc:title>
     </cc:Agent>
    </dc:creator>
   </cc:Work>
  </rdf:RDF>
 </metadata>
 <defs>
  <style type="text/css">*{stroke-linecap:butt;stroke-linejoin:round;}</style>
 </defs>
 <g id="figure_1">
  <g id="patch_1">
   <path d="M 0 345.6 
L 460.8 345.6 
L 460.8 0 
L 0 0 
z
" style="fill:#ffffff;"/>
  </g>
  <g id="axes_1">
   <g id="patch_2">
    <path d="M 57.6 298.944 
L 338.688 298.944 
L 338.688 27.648 
L 57.6 27.648 
z
" style="fill:#ffffff;"/>
   </g>
   <g id="line2d_1">
    <path d="M 110.652711 298.944 
L 110.652711 293.677139 
L 114.182507 293.677139 
L 114.182507 288.410278 
L 116.680349 288.410278 
L 116.680349 283.143418 
L 119.40226 283.143418 
L 119.40226 277.876557 
L 132.541568 277.876557 
L 132.541568 272.609696 
L 138.24765 272.609696 
L 138.24765 267.342835 
L 140.708409 267.342835 
L 140.708409 262.075974 
L 148.272497 262.075974 
L 148.272497 256.809114 
L 148.826773 256.809114 
L 148.826773 251.542253 
L 149.18674 251.542253 
L 149.18674 246.275392 
L 149.42716 246.275392 
L 149.42716 241.008531 
L 149.633173 241.008531 
L 149.633173 235.74167 
L 149.805951 235.74167 
L 149.805951 230.47481 
L 149.950822 230.47481 
L 149.950822 225.207949 
L 150.077146 225.207949 
L 150.077146 219.941088 
L 150.172372 219.941088 
L 150.172372 214.674227 
L 150.271374 214.674227 
L 150.271374 209.407366 
L 150.374084 209.407366 
L 150.374084 204.140506 
L 150.467706 204.140506 
L 150.467706 198.873645 
L 150.556607 198.873645 
L 150.556607 193.606784 
L 150.632448 193.606784 
L 150.632448 188.339923 
L 150.691209 188.339923 
L 150.691209 183.073062 
L 150.758122 183.073062 
L 150.758122 177.806202 
L 150.808139 177.806202 
L 150.808139 172.539341 
L 150.874606 172.539341 
L 150.874606 167.27248 
L 150.928425 167.27248 
L 150.928425 162.005619 
L 150.994436 162.005619 
L 150.994436 156.738758 
L 151.035567 156.738758 
L 151.035567 151.471897 
L 151.088891 151.471897 
L 151.088891 146.205037 
L 151.158379 146.205037 
L 151.158379 140.938176 
L 151.223527 140.938176 
L 151.223527 135.671315 
L 151.296529 135.671315 
L 151.296529 130.404454 
L 151.373256 130.404454 
L 151.373256 125.137593 
L 151.433593 125.137593 
L 151.433593 119.870733 
L 151.497722 119.870733 
L 151.497722 114.603872 
L 151.545665 114.603872 
L 151.545665 109.337011 
L 151.577554 109.337011 
L 151.577554 104.07015 
L 151.625279 104.07015 
L 151.625279 98.803289 
L 151.684751 98.803289 
L 151.684751 93.536429 
L 151.732184 93.536429 
L 151.732184 88.269568 
L 151.783423 88.269568 
L 151.783423 83.002707 
L 151.822737 83.002707 
L 151.822737 77.735846 
L 151.869796 77.735846 
L 151.869796 72.468985 
L 151.908915 72.468985 
L 151.908915 67.202125 
L 151.951845 67.202125 
L 151.951845 61.935264 
L 151.99078 61.935264 
L 151.99078 56.668403 
L 152.037389 56.668403 
L 152.037389 51.401542 
L 152.076134 51.401542 
L 152.076134 46.134681 
L 152.122515 46.134681 
L 152.122515 40.867821 
L 152.168773 40.867821 
L 152.168773 35.60096 
L 152.207228 35.60096 
L 152.207228 30.334099 
L 338.688 30.334099 
" style="fill:none;stroke:#f5deb3;stroke-linecap:square;stroke-width:4;"/>
   </g>
   <g id="line2d_2">
    <defs>
     <path d="M -0 7.778175 
L 7.778175 0 
L 0 -7.778175 
L -7.778175 -0 
z
" id="m59508e1a5e" style="stroke:#f5deb3;stroke-linejoin:miter;stroke-width:1.5;"/>
    </defs>
    <g>
     <use style="fill:#f5deb3;stroke:#f5deb3;stroke-linejoin:miter;stroke-width:1.5;" x="150.994436" xlink:href="#m59508e1a5e" y="156.738758"/>
     <use style="fill:#f5deb3;stroke:#f5deb3;stroke-linejoin:miter;stroke-width:1.5;" x="152.207228" xlink:href="#m59508e1a5e" y="35.60096"/>
     <use style="fill:#f5deb3;stroke:#f5deb3;stroke-linejoin:miter;stroke-width:1.5;" x="152.207228" xlink:href="#m59508e1a5e" y="30.334099"/>
     <use style="fill:#f5deb3;stroke:#f5deb3;stroke-linejoin:miter;stroke-width:1.5;" x="152.207228" xlink:href="#m59508e1a5e" y="30.334099"/>
     <use style="fill:#f5deb3;stroke:#f5deb3;stroke-linejoin:miter;stroke-width:1.5;" x="338.688" xlink:href="#m59508e1a5e" y="30.334099"/>
    </g>
   </g>
   <g id="line2d_3">
    <path style="fill:none;stroke:#f5deb3;stroke-linecap:square;stroke-width:4;"/>
    <g/>
   </g>
   <g id="line2d_4">
    <path d="M 338.688 30.334099 
L 369.60768 35.706297 
" style="fill:none;stroke:#f5deb3;stroke-linecap:square;stroke-width:4;"/>
    <g>
     <use style="fill:#f5deb3;stroke:#f5deb3;stroke-linejoin:miter;stroke-width:1.5;" x="338.688" xlink:href="#m59508e1a5e" y="30.334099"/>
     <use style="fill:#f5deb3;stroke:#f5deb3;stroke-linejoin:miter;stroke-width:1.5;" x="369.60768" xlink:href="#m59508e1a5e" y="35.706297"/>
    </g>
   </g>
   <g id="matplotlib.axis_1">
    <g id="xtick_1">
     <g id="line2d_5">
      <path clip-path="url(#p55f577f762)" d="M 57.6 298.944 
L 57.6 27.648 
" style="fill:none;stroke:#b0b0b0;stroke-linecap:square;stroke-width:0.8;"/>
     </g>
     <g id="line2d_6">
      <defs>
       <path d="M 0 0 
L 0 3.5 
" id="m3acec390e4" style="stroke:#000000;stroke-width:0.8;"/>
      </defs>
      <g>
       <use style="stroke:#000000;stroke-width:0.8;" x="57.6" xlink:href="#m3acec390e4" y="298.944"/>
      </g>
     </g>
     <g id="text_1">
      <!-- 0 -->
      <g transform="translate(51.2375 321.140875)scale(0.2 -0.2)">
       <defs>
        <path d="M 31.78125 66.40625 
Q 24.171875 66.40625 20.328125 58.90625 
Q 16.5 51.421875 16.5 36.375 
Q 16.5 21.390625 20.328125 13.890625 
Q 24.171875 6.390625 31.78125 6.390625 
Q 39.453125 6.390625 43.28125 13.890625 
Q 47.125 21.390625 47.125 36.375 
Q 47.125 51.421875 43.28125 58.90625 
Q 39.453125 66.40625 31.78125 66.40625 
z
M 31.78125 74.21875 
Q 44.046875 74.21875 50.515625 64.515625 
Q 56.984375 54.828125 56.984375 36.375 
Q 56.984375 17.96875 50.515625 8.265625 
Q 44.046875 -1.421875 31.78125 -1.421875 
Q 19.53125 -1.421875 13.0625 8.265625 
Q 6.59375 17.96875 6.59375 36.375 
Q 6.59375 54.828125 13.0625 64.515625 
Q 19.53125 74.21875 31.78125 74.21875 
z
" id="DejaVuSans-48"/>
       </defs>
       <use xlink:href="#DejaVuSans-48"/>
      </g>
     </g>
    </g>
    <g id="xtick_2">
     <g id="line2d_7">
      <path clip-path="url(#p55f577f762)" d="M 137.910857 298.944 
L 137.910857 27.648 
" style="fill:none;stroke:#b0b0b0;stroke-linecap:square;stroke-width:0.8;"/>
     </g>
     <g id="line2d_8">
      <g>
       <use style="stroke:#000000;stroke-width:0.8;" x="137.910857" xlink:href="#m3acec390e4" y="298.944"/>
      </g>
     </g>
     <g id="text_2">
      <!-- 2 -->
      <g transform="translate(131.548357 321.140875)scale(0.2 -0.2)">
       <defs>
        <path d="M 19.1875 8.296875 
L 53.609375 8.296875 
L 53.609375 0 
L 7.328125 0 
L 7.328125 8.296875 
Q 12.9375 14.109375 22.625 23.890625 
Q 32.328125 33.6875 34.8125 36.53125 
Q 39.546875 41.84375 41.421875 45.53125 
Q 43.3125 49.21875 43.3125 52.78125 
Q 43.3125 58.59375 39.234375 62.25 
Q 35.15625 65.921875 28.609375 65.921875 
Q 23.96875 65.921875 18.8125 64.3125 
Q 13.671875 62.703125 7.8125 59.421875 
L 7.8125 69.390625 
Q 13.765625 71.78125 18.9375 73 
Q 24.125 74.21875 28.421875 74.21875 
Q 39.75 74.21875 46.484375 68.546875 
Q 53.21875 62.890625 53.21875 53.421875 
Q 53.21875 48.921875 51.53125 44.890625 
Q 49.859375 40.875 45.40625 35.40625 
Q 44.1875 33.984375 37.640625 27.21875 
Q 31.109375 20.453125 19.1875 8.296875 
z
" id="DejaVuSans-50"/>
       </defs>
       <use xlink:href="#DejaVuSans-50"/>
      </g>
     </g>
    </g>
    <g id="xtick_3">
     <g id="line2d_9">
      <path clip-path="url(#p55f577f762)" d="M 218.221714 298.944 
L 218.221714 27.648 
" style="fill:none;stroke:#b0b0b0;stroke-linecap:square;stroke-width:0.8;"/>
     </g>
     <g id="line2d_10">
      <g>
       <use style="stroke:#000000;stroke-width:0.8;" x="218.221714" xlink:href="#m3acec390e4" y="298.944"/>
      </g>
     </g>
     <g id="text_3">
      <!-- 4 -->
      <g transform="translate(211.859214 321.140875)scale(0.2 -0.2)">
       <defs>
        <path d="M 37.796875 64.3125 
L 12.890625 25.390625 
L 37.796875 25.390625 
z
M 35.203125 72.90625 
L 47.609375 72.90625 
L 47.609375 25.390625 
L 58.015625 25.390625 
L 58.015625 17.1875 
L 47.609375 17.1875 
L 47.609375 0 
L 37.796875 0 
L 37.796875 17.1875 
L 4.890625 17.1875 
L 4.890625 26.703125 
z
" id="DejaVuSans-52"/>
       </defs>
       <use xlink:href="#DejaVuSans-52"/>
      </g>
     </g>
    </g>
    <g id="xtick_4">
     <g id="line2d_11">
      <path clip-path="url(#p55f577f762)" d="M 298.532571 298.944 
L 298.532571 27.648 
" style="fill:none;stroke:#b0b0b0;stroke-linecap:square;stroke-width:0.8;"/>
     </g>
     <g id="line2d_12">
      <g>
       <use style="stroke:#000000;stroke-width:0.8;" x="298.532571" xlink:href="#m3acec390e4" y="298.944"/>
      </g>
     </g>
     <g id="text_4">
      <!-- 6 -->
      <g transform="translate(292.170071 321.140875)scale(0.2 -0.2)">
       <defs>
        <path d="M 33.015625 40.375 
Q 26.375 40.375 22.484375 35.828125 
Q 18.609375 31.296875 18.609375 23.390625 
Q 18.609375 15.53125 22.484375 10.953125 
Q 26.375 6.390625 33.015625 6.390625 
Q 39.65625 6.390625 43.53125 10.953125 
Q 47.40625 15.53125 47.40625 23.390625 
Q 47.40625 31.296875 43.53125 35.828125 
Q 39.65625 40.375 33.015625 40.375 
z
M 52.59375 71.296875 
L 52.59375 62.3125 
Q 48.875 64.0625 45.09375 64.984375 
Q 41.3125 65.921875 37.59375 65.921875 
Q 27.828125 65.921875 22.671875 59.328125 
Q 17.53125 52.734375 16.796875 39.40625 
Q 19.671875 43.65625 24.015625 45.921875 
Q 28.375 48.1875 33.59375 48.1875 
Q 44.578125 48.1875 50.953125 41.515625 
Q 57.328125 34.859375 57.328125 23.390625 
Q 57.328125 12.15625 50.6875 5.359375 
Q 44.046875 -1.421875 33.015625 -1.421875 
Q 20.359375 -1.421875 13.671875 8.265625 
Q 6.984375 17.96875 6.984375 36.375 
Q 6.984375 53.65625 15.1875 63.9375 
Q 23.390625 74.21875 37.203125 74.21875 
Q 40.921875 74.21875 44.703125 73.484375 
Q 48.484375 72.75 52.59375 71.296875 
z
" id="DejaVuSans-54"/>
       </defs>
       <use xlink:href="#DejaVuSans-54"/>
      </g>
     </g>
    </g>
    <g id="xtick_5">
     <g id="line2d_13">
      <path clip-path="url(#p55f577f762)" d="M 97.755429 298.944 
L 97.755429 27.648 
" style="fill:none;stroke:#b0b0b0;stroke-linecap:square;stroke-width:0.8;"/>
     </g>
     <g id="line2d_14">
      <defs>
       <path d="M 0 0 
L 0 2 
" id="m0c3125f67f" style="stroke:#000000;stroke-width:0.6;"/>
      </defs>
      <g>
       <use style="stroke:#000000;stroke-width:0.6;" x="97.755429" xlink:href="#m0c3125f67f" y="298.944"/>
      </g>
     </g>
    </g>
    <g id="xtick_6">
     <g id="line2d_15">
      <path clip-path="url(#p55f577f762)" d="M 178.066286 298.944 
L 178.066286 27.648 
" style="fill:none;stroke:#b0b0b0;stroke-linecap:square;stroke-width:0.8;"/>
     </g>
     <g id="line2d_16">
      <g>
       <use style="stroke:#000000;stroke-width:0.6;" x="178.066286" xlink:href="#m0c3125f67f" y="298.944"/>
      </g>
     </g>
    </g>
    <g id="xtick_7">
     <g id="line2d_17">
      <path clip-path="url(#p55f577f762)" d="M 258.377143 298.944 
L 258.377143 27.648 
" style="fill:none;stroke:#b0b0b0;stroke-linecap:square;stroke-width:0.8;"/>
     </g>
     <g id="line2d_18">
      <g>
       <use style="stroke:#000000;stroke-width:0.6;" x="258.377143" xlink:href="#m0c3125f67f" y="298.944"/>
      </g>
     </g>
    </g>
    <g id="xtick_8">
     <g id="line2d_19">
      <path clip-path="url(#p55f577f762)" d="M 338.688 298.944 
L 338.688 27.648 
" style="fill:none;stroke:#b0b0b0;stroke-linecap:square;stroke-width:0.8;"/>
     </g>
     <g id="line2d_20">
      <g>
       <use style="stroke:#000000;stroke-width:0.6;" x="338.688" xlink:href="#m0c3125f67f" y="298.944"/>
      </g>
     </g>
    </g>
    <g id="text_5">
     <!-- log10(# f-evals / dimension) -->
     <g transform="translate(77.764078 342.217594)scale(0.17 -0.17)">
      <defs>
       <path d="M 9.421875 75.984375 
L 18.40625 75.984375 
L 18.40625 0 
L 9.421875 0 
z
" id="DejaVuSans-108"/>
       <path d="M 30.609375 48.390625 
Q 23.390625 48.390625 19.1875 42.75 
Q 14.984375 37.109375 14.984375 27.296875 
Q 14.984375 17.484375 19.15625 11.84375 
Q 23.34375 6.203125 30.609375 6.203125 
Q 37.796875 6.203125 41.984375 11.859375 
Q 46.1875 17.53125 46.1875 27.296875 
Q 46.1875 37.015625 41.984375 42.703125 
Q 37.796875 48.390625 30.609375 48.390625 
z
M 30.609375 56 
Q 42.328125 56 49.015625 48.375 
Q 55.71875 40.765625 55.71875 27.296875 
Q 55.71875 13.875 49.015625 6.21875 
Q 42.328125 -1.421875 30.609375 -1.421875 
Q 18.84375 -1.421875 12.171875 6.21875 
Q 5.515625 13.875 5.515625 27.296875 
Q 5.515625 40.765625 12.171875 48.375 
Q 18.84375 56 30.609375 56 
z
" id="DejaVuSans-111"/>
       <path d="M 45.40625 27.984375 
Q 45.40625 37.75 41.375 43.109375 
Q 37.359375 48.484375 30.078125 48.484375 
Q 22.859375 48.484375 18.828125 43.109375 
Q 14.796875 37.75 14.796875 27.984375 
Q 14.796875 18.265625 18.828125 12.890625 
Q 22.859375 7.515625 30.078125 7.515625 
Q 37.359375 7.515625 41.375 12.890625 
Q 45.40625 18.265625 45.40625 27.984375 
z
M 54.390625 6.78125 
Q 54.390625 -7.171875 48.1875 -13.984375 
Q 42 -20.796875 29.203125 -20.796875 
Q 24.46875 -20.796875 20.265625 -20.09375 
Q 16.0625 -19.390625 12.109375 -17.921875 
L 12.109375 -9.1875 
Q 16.0625 -11.328125 19.921875 -12.34375 
Q 23.78125 -13.375 27.78125 -13.375 
Q 36.625 -13.375 41.015625 -8.765625 
Q 45.40625 -4.15625 45.40625 5.171875 
L 45.40625 9.625 
Q 42.625 4.78125 38.28125 2.390625 
Q 33.9375 0 27.875 0 
Q 17.828125 0 11.671875 7.65625 
Q 5.515625 15.328125 5.515625 27.984375 
Q 5.515625 40.671875 11.671875 48.328125 
Q 17.828125 56 27.875 56 
Q 33.9375 56 38.28125 53.609375 
Q 42.625 51.21875 45.40625 46.390625 
L 45.40625 54.6875 
L 54.390625 54.6875 
z
" id="DejaVuSans-103"/>
       <path d="M 12.40625 8.296875 
L 28.515625 8.296875 
L 28.515625 63.921875 
L 10.984375 60.40625 
L 10.984375 69.390625 
L 28.421875 72.90625 
L 38.28125 72.90625 
L 38.28125 8.296875 
L 54.390625 8.296875 
L 54.390625 0 
L 12.40625 0 
z
" id="DejaVuSans-49"/>
       <path d="M 31 75.875 
Q 24.46875 64.65625 21.28125 53.65625 
Q 18.109375 42.671875 18.109375 31.390625 
Q 18.109375 20.125 21.3125 9.0625 
Q 24.515625 -2 31 -13.1875 
L 23.1875 -13.1875 
Q 15.875 -1.703125 12.234375 9.375 
Q 8.59375 20.453125 8.59375 31.390625 
Q 8.59375 42.28125 12.203125 53.3125 
Q 15.828125 64.359375 23.1875 75.875 
z
" id="DejaVuSans-40"/>
       <path d="M 51.125 44 
L 36.921875 44 
L 32.8125 27.6875 
L 47.125 27.6875 
z
M 43.796875 71.78125 
L 38.71875 51.515625 
L 52.984375 51.515625 
L 58.109375 71.78125 
L 65.921875 71.78125 
L 60.890625 51.515625 
L 76.125 51.515625 
L 76.125 44 
L 58.984375 44 
L 54.984375 27.6875 
L 70.515625 27.6875 
L 70.515625 20.21875 
L 53.078125 20.21875 
L 48 0 
L 40.1875 0 
L 45.21875 20.21875 
L 30.90625 20.21875 
L 25.875 0 
L 18.015625 0 
L 23.09375 20.21875 
L 7.71875 20.21875 
L 7.71875 27.6875 
L 24.90625 27.6875 
L 29 44 
L 13.28125 44 
L 13.28125 51.515625 
L 30.90625 51.515625 
L 35.890625 71.78125 
z
" id="DejaVuSans-35"/>
       <path id="DejaVuSans-32"/>
       <path d="M 37.109375 75.984375 
L 37.109375 68.5 
L 28.515625 68.5 
Q 23.6875 68.5 21.796875 66.546875 
Q 19.921875 64.59375 19.921875 59.515625 
L 19.921875 54.6875 
L 34.71875 54.6875 
L 34.71875 47.703125 
L 19.921875 47.703125 
L 19.921875 0 
L 10.890625 0 
L 10.890625 47.703125 
L 2.296875 47.703125 
L 2.296875 54.6875 
L 10.890625 54.6875 
L 10.890625 58.5 
Q 10.890625 67.625 15.140625 71.796875 
Q 19.390625 75.984375 28.609375 75.984375 
z
" id="DejaVuSans-102"/>
       <path d="M 4.890625 31.390625 
L 31.203125 31.390625 
L 31.203125 23.390625 
L 4.890625 23.390625 
z
" id="DejaVuSans-45"/>
       <path d="M 56.203125 29.59375 
L 56.203125 25.203125 
L 14.890625 25.203125 
Q 15.484375 15.921875 20.484375 11.0625 
Q 25.484375 6.203125 34.421875 6.203125 
Q 39.59375 6.203125 44.453125 7.46875 
Q 49.3125 8.734375 54.109375 11.28125 
L 54.109375 2.78125 
Q 49.265625 0.734375 44.1875 -0.34375 
Q 39.109375 -1.421875 33.890625 -1.421875 
Q 20.796875 -1.421875 13.15625 6.1875 
Q 5.515625 13.8125 5.515625 26.8125 
Q 5.515625 40.234375 12.765625 48.109375 
Q 20.015625 56 32.328125 56 
Q 43.359375 56 49.78125 48.890625 
Q 56.203125 41.796875 56.203125 29.59375 
z
M 47.21875 32.234375 
Q 47.125 39.59375 43.09375 43.984375 
Q 39.0625 48.390625 32.421875 48.390625 
Q 24.90625 48.390625 20.390625 44.140625 
Q 15.875 39.890625 15.1875 32.171875 
z
" id="DejaVuSans-101"/>
       <path d="M 2.984375 54.6875 
L 12.5 54.6875 
L 29.59375 8.796875 
L 46.6875 54.6875 
L 56.203125 54.6875 
L 35.6875 0 
L 23.484375 0 
z
" id="DejaVuSans-118"/>
       <path d="M 34.28125 27.484375 
Q 23.390625 27.484375 19.1875 25 
Q 14.984375 22.515625 14.984375 16.5 
Q 14.984375 11.71875 18.140625 8.90625 
Q 21.296875 6.109375 26.703125 6.109375 
Q 34.1875 6.109375 38.703125 11.40625 
Q 43.21875 16.703125 43.21875 25.484375 
L 43.21875 27.484375 
z
M 52.203125 31.203125 
L 52.203125 0 
L 43.21875 0 
L 43.21875 8.296875 
Q 40.140625 3.328125 35.546875 0.953125 
Q 30.953125 -1.421875 24.3125 -1.421875 
Q 15.921875 -1.421875 10.953125 3.296875 
Q 6 8.015625 6 15.921875 
Q 6 25.140625 12.171875 29.828125 
Q 18.359375 34.515625 30.609375 34.515625 
L 43.21875 34.515625 
L 43.21875 35.40625 
Q 43.21875 41.609375 39.140625 45 
Q 35.0625 48.390625 27.6875 48.390625 
Q 23 48.390625 18.546875 47.265625 
Q 14.109375 46.140625 10.015625 43.890625 
L 10.015625 52.203125 
Q 14.9375 54.109375 19.578125 55.046875 
Q 24.21875 56 28.609375 56 
Q 40.484375 56 46.34375 49.84375 
Q 52.203125 43.703125 52.203125 31.203125 
z
" id="DejaVuSans-97"/>
       <path d="M 44.28125 53.078125 
L 44.28125 44.578125 
Q 40.484375 46.53125 36.375 47.5 
Q 32.28125 48.484375 27.875 48.484375 
Q 21.1875 48.484375 17.84375 46.4375 
Q 14.5 44.390625 14.5 40.28125 
Q 14.5 37.15625 16.890625 35.375 
Q 19.28125 33.59375 26.515625 31.984375 
L 29.59375 31.296875 
Q 39.15625 29.25 43.1875 25.515625 
Q 47.21875 21.78125 47.21875 15.09375 
Q 47.21875 7.46875 41.1875 3.015625 
Q 35.15625 -1.421875 24.609375 -1.421875 
Q 20.21875 -1.421875 15.453125 -0.5625 
Q 10.6875 0.296875 5.421875 2 
L 5.421875 11.28125 
Q 10.40625 8.6875 15.234375 7.390625 
Q 20.0625 6.109375 24.8125 6.109375 
Q 31.15625 6.109375 34.5625 8.28125 
Q 37.984375 10.453125 37.984375 14.40625 
Q 37.984375 18.0625 35.515625 20.015625 
Q 33.0625 21.96875 24.703125 23.78125 
L 21.578125 24.515625 
Q 13.234375 26.265625 9.515625 29.90625 
Q 5.8125 33.546875 5.8125 39.890625 
Q 5.8125 47.609375 11.28125 51.796875 
Q 16.75 56 26.8125 56 
Q 31.78125 56 36.171875 55.265625 
Q 40.578125 54.546875 44.28125 53.078125 
z
" id="DejaVuSans-115"/>
       <path d="M 25.390625 72.90625 
L 33.6875 72.90625 
L 8.296875 -9.28125 
L 0 -9.28125 
z
" id="DejaVuSans-47"/>
       <path d="M 45.40625 46.390625 
L 45.40625 75.984375 
L 54.390625 75.984375 
L 54.390625 0 
L 45.40625 0 
L 45.40625 8.203125 
Q 42.578125 3.328125 38.25 0.953125 
Q 33.9375 -1.421875 27.875 -1.421875 
Q 17.96875 -1.421875 11.734375 6.484375 
Q 5.515625 14.40625 5.515625 27.296875 
Q 5.515625 40.1875 11.734375 48.09375 
Q 17.96875 56 27.875 56 
Q 33.9375 56 38.25 53.625 
Q 42.578125 51.265625 45.40625 46.390625 
z
M 14.796875 27.296875 
Q 14.796875 17.390625 18.875 11.75 
Q 22.953125 6.109375 30.078125 6.109375 
Q 37.203125 6.109375 41.296875 11.75 
Q 45.40625 17.390625 45.40625 27.296875 
Q 45.40625 37.203125 41.296875 42.84375 
Q 37.203125 48.484375 30.078125 48.484375 
Q 22.953125 48.484375 18.875 42.84375 
Q 14.796875 37.203125 14.796875 27.296875 
z
" id="DejaVuSans-100"/>
       <path d="M 9.421875 54.6875 
L 18.40625 54.6875 
L 18.40625 0 
L 9.421875 0 
z
M 9.421875 75.984375 
L 18.40625 75.984375 
L 18.40625 64.59375 
L 9.421875 64.59375 
z
" id="DejaVuSans-105"/>
       <path d="M 52 44.1875 
Q 55.375 50.25 60.0625 53.125 
Q 64.75 56 71.09375 56 
Q 79.640625 56 84.28125 50.015625 
Q 88.921875 44.046875 88.921875 33.015625 
L 88.921875 0 
L 79.890625 0 
L 79.890625 32.71875 
Q 79.890625 40.578125 77.09375 44.375 
Q 74.3125 48.1875 68.609375 48.1875 
Q 61.625 48.1875 57.5625 43.546875 
Q 53.515625 38.921875 53.515625 30.90625 
L 53.515625 0 
L 44.484375 0 
L 44.484375 32.71875 
Q 44.484375 40.625 41.703125 44.40625 
Q 38.921875 48.1875 33.109375 48.1875 
Q 26.21875 48.1875 22.15625 43.53125 
Q 18.109375 38.875 18.109375 30.90625 
L 18.109375 0 
L 9.078125 0 
L 9.078125 54.6875 
L 18.109375 54.6875 
L 18.109375 46.1875 
Q 21.1875 51.21875 25.484375 53.609375 
Q 29.78125 56 35.6875 56 
Q 41.65625 56 45.828125 52.96875 
Q 50 49.953125 52 44.1875 
z
" id="DejaVuSans-109"/>
       <path d="M 54.890625 33.015625 
L 54.890625 0 
L 45.90625 0 
L 45.90625 32.71875 
Q 45.90625 40.484375 42.875 44.328125 
Q 39.84375 48.1875 33.796875 48.1875 
Q 26.515625 48.1875 22.3125 43.546875 
Q 18.109375 38.921875 18.109375 30.90625 
L 18.109375 0 
L 9.078125 0 
L 9.078125 54.6875 
L 18.109375 54.6875 
L 18.109375 46.1875 
Q 21.34375 51.125 25.703125 53.5625 
Q 30.078125 56 35.796875 56 
Q 45.21875 56 50.046875 50.171875 
Q 54.890625 44.34375 54.890625 33.015625 
z
" id="DejaVuSans-110"/>
       <path d="M 8.015625 75.875 
L 15.828125 75.875 
Q 23.140625 64.359375 26.78125 53.3125 
Q 30.421875 42.28125 30.421875 31.390625 
Q 30.421875 20.453125 26.78125 9.375 
Q 23.140625 -1.703125 15.828125 -13.1875 
L 8.015625 -13.1875 
Q 14.5 -2 17.703125 9.0625 
Q 20.90625 20.125 20.90625 31.390625 
Q 20.90625 42.671875 17.703125 53.65625 
Q 14.5 64.65625 8.015625 75.875 
z
" id="DejaVuSans-41"/>
      </defs>
      <use xlink:href="#DejaVuSans-108"/>
      <use x="27.783203" xlink:href="#DejaVuSans-111"/>
      <use x="88.964844" xlink:href="#DejaVuSans-103"/>
      <use x="152.441406" xlink:href="#DejaVuSans-49"/>
      <use x="216.064453" xlink:href="#DejaVuSans-48"/>
      <use x="279.6875" xlink:href="#DejaVuSans-40"/>
      <use x="318.701172" xlink:href="#DejaVuSans-35"/>
      <use x="402.490234" xlink:href="#DejaVuSans-32"/>
      <use x="434.277344" xlink:href="#DejaVuSans-102"/>
      <use x="463.982422" xlink:href="#DejaVuSans-45"/>
      <use x="500.066406" xlink:href="#DejaVuSans-101"/>
      <use x="561.589844" xlink:href="#DejaVuSans-118"/>
      <use x="620.769531" xlink:href="#DejaVuSans-97"/>
      <use x="682.048828" xlink:href="#DejaVuSans-108"/>
      <use x="709.832031" xlink:href="#DejaVuSans-115"/>
      <use x="761.931641" xlink:href="#DejaVuSans-32"/>
      <use x="793.71875" xlink:href="#DejaVuSans-47"/>
      <use x="827.410156" xlink:href="#DejaVuSans-32"/>
      <use x="859.197266" xlink:href="#DejaVuSans-100"/>
      <use x="922.673828" xlink:href="#DejaVuSans-105"/>
      <use x="950.457031" xlink:href="#DejaVuSans-109"/>
      <use x="1047.869141" xlink:href="#DejaVuSans-101"/>
      <use x="1109.392578" xlink:href="#DejaVuSans-110"/>
      <use x="1172.771484" xlink:href="#DejaVuSans-115"/>
      <use x="1224.871094" xlink:href="#DejaVuSans-105"/>
      <use x="1252.654297" xlink:href="#DejaVuSans-111"/>
      <use x="1313.835938" xlink:href="#DejaVuSans-110"/>
      <use x="1377.214844" xlink:href="#DejaVuSans-41"/>
     </g>
    </g>
   </g>
   <g id="matplotlib.axis_2">
    <g id="ytick_1">
     <g id="line2d_21">
      <path clip-path="url(#p55f577f762)" d="M 57.6 298.944 
L 338.688 298.944 
" style="fill:none;stroke:#b0b0b0;stroke-linecap:square;stroke-width:0.8;"/>
     </g>
     <g id="line2d_22">
      <defs>
       <path d="M 0 0 
L -3.5 0 
" id="mbbe5231796" style="stroke:#000000;stroke-width:0.8;"/>
      </defs>
      <g>
       <use style="stroke:#000000;stroke-width:0.8;" x="57.6" xlink:href="#mbbe5231796" y="298.944"/>
      </g>
     </g>
     <g id="text_6">
      <!-- 0.0 -->
      <g transform="translate(25.155 305.02275)scale(0.16 -0.16)">
       <defs>
        <path d="M 10.6875 12.40625 
L 21 12.40625 
L 21 0 
L 10.6875 0 
z
" id="DejaVuSans-46"/>
       </defs>
       <use xlink:href="#DejaVuSans-48"/>
       <use x="63.623047" xlink:href="#DejaVuSans-46"/>
       <use x="95.410156" xlink:href="#DejaVuSans-48"/>
      </g>
     </g>
    </g>
    <g id="ytick_2">
     <g id="line2d_23">
      <path clip-path="url(#p55f577f762)" d="M 57.6 245.22202 
L 338.688 245.22202 
" style="fill:none;stroke:#b0b0b0;stroke-linecap:square;stroke-width:0.8;"/>
     </g>
     <g id="line2d_24">
      <g>
       <use style="stroke:#000000;stroke-width:0.8;" x="57.6" xlink:href="#mbbe5231796" y="245.22202"/>
      </g>
     </g>
     <g id="text_7">
      <!-- 0.2 -->
      <g transform="translate(25.155 251.30077)scale(0.16 -0.16)">
       <use xlink:href="#DejaVuSans-48"/>
       <use x="63.623047" xlink:href="#DejaVuSans-46"/>
       <use x="95.410156" xlink:href="#DejaVuSans-50"/>
      </g>
     </g>
    </g>
    <g id="ytick_3">
     <g id="line2d_25">
      <path clip-path="url(#p55f577f762)" d="M 57.6 191.50004 
L 338.688 191.50004 
" style="fill:none;stroke:#b0b0b0;stroke-linecap:square;stroke-width:0.8;"/>
     </g>
     <g id="line2d_26">
      <g>
       <use style="stroke:#000000;stroke-width:0.8;" x="57.6" xlink:href="#mbbe5231796" y="191.50004"/>
      </g>
     </g>
     <g id="text_8">
      <!-- 0.4 -->
      <g transform="translate(25.155 197.57879)scale(0.16 -0.16)">
       <use xlink:href="#DejaVuSans-48"/>
       <use x="63.623047" xlink:href="#DejaVuSans-46"/>
       <use x="95.410156" xlink:href="#DejaVuSans-52"/>
      </g>
     </g>
    </g>
    <g id="ytick_4">
     <g id="line2d_27">
      <path clip-path="url(#p55f577f762)" d="M 57.6 137.778059 
L 338.688 137.778059 
" style="fill:none;stroke:#b0b0b0;stroke-linecap:square;stroke-width:0.8;"/>
     </g>
     <g id="line2d_28">
      <g>
       <use style="stroke:#000000;stroke-width:0.8;" x="57.6" xlink:href="#mbbe5231796" y="137.778059"/>
      </g>
     </g>
     <g id="text_9">
      <!-- 0.6 -->
      <g transform="translate(25.155 143.856809)scale(0.16 -0.16)">
       <use xlink:href="#DejaVuSans-48"/>
       <use x="63.623047" xlink:href="#DejaVuSans-46"/>
       <use x="95.410156" xlink:href="#DejaVuSans-54"/>
      </g>
     </g>
    </g>
    <g id="ytick_5">
     <g id="line2d_29">
      <path clip-path="url(#p55f577f762)" d="M 57.6 84.056079 
L 338.688 84.056079 
" style="fill:none;stroke:#b0b0b0;stroke-linecap:square;stroke-width:0.8;"/>
     </g>
     <g id="line2d_30">
      <g>
       <use style="stroke:#000000;stroke-width:0.8;" x="57.6" xlink:href="#mbbe5231796" y="84.056079"/>
      </g>
     </g>
     <g id="text_10">
      <!-- 0.8 -->
      <g transform="translate(25.155 90.134829)scale(0.16 -0.16)">
       <defs>
        <path d="M 31.78125 34.625 
Q 24.75 34.625 20.71875 30.859375 
Q 16.703125 27.09375 16.703125 20.515625 
Q 16.703125 13.921875 20.71875 10.15625 
Q 24.75 6.390625 31.78125 6.390625 
Q 38.8125 6.390625 42.859375 10.171875 
Q 46.921875 13.96875 46.921875 20.515625 
Q 46.921875 27.09375 42.890625 30.859375 
Q 38.875 34.625 31.78125 34.625 
z
M 21.921875 38.8125 
Q 15.578125 40.375 12.03125 44.71875 
Q 8.5 49.078125 8.5 55.328125 
Q 8.5 64.0625 14.71875 69.140625 
Q 20.953125 74.21875 31.78125 74.21875 
Q 42.671875 74.21875 48.875 69.140625 
Q 55.078125 64.0625 55.078125 55.328125 
Q 55.078125 49.078125 51.53125 44.71875 
Q 48 40.375 41.703125 38.8125 
Q 48.828125 37.15625 52.796875 32.3125 
Q 56.78125 27.484375 56.78125 20.515625 
Q 56.78125 9.90625 50.3125 4.234375 
Q 43.84375 -1.421875 31.78125 -1.421875 
Q 19.734375 -1.421875 13.25 4.234375 
Q 6.78125 9.90625 6.78125 20.515625 
Q 6.78125 27.484375 10.78125 32.3125 
Q 14.796875 37.15625 21.921875 38.8125 
z
M 18.3125 54.390625 
Q 18.3125 48.734375 21.84375 45.5625 
Q 25.390625 42.390625 31.78125 42.390625 
Q 38.140625 42.390625 41.71875 45.5625 
Q 45.3125 48.734375 45.3125 54.390625 
Q 45.3125 60.0625 41.71875 63.234375 
Q 38.140625 66.40625 31.78125 66.40625 
Q 25.390625 66.40625 21.84375 63.234375 
Q 18.3125 60.0625 18.3125 54.390625 
z
" id="DejaVuSans-56"/>
       </defs>
       <use xlink:href="#DejaVuSans-48"/>
       <use x="63.623047" xlink:href="#DejaVuSans-46"/>
       <use x="95.410156" xlink:href="#DejaVuSans-56"/>
      </g>
     </g>
    </g>
    <g id="ytick_6">
     <g id="line2d_31">
      <path clip-path="url(#p55f577f762)" d="M 57.6 30.334099 
L 338.688 30.334099 
" style="fill:none;stroke:#b0b0b0;stroke-linecap:square;stroke-width:0.8;"/>
     </g>
     <g id="line2d_32">
      <g>
       <use style="stroke:#000000;stroke-width:0.8;" x="57.6" xlink:href="#mbbe5231796" y="30.334099"/>
      </g>
     </g>
     <g id="text_11">
      <!-- 1.0 -->
      <g transform="translate(25.155 36.412849)scale(0.16 -0.16)">
       <use xlink:href="#DejaVuSans-49"/>
       <use x="63.623047" xlink:href="#DejaVuSans-46"/>
       <use x="95.410156" xlink:href="#DejaVuSans-48"/>
      </g>
     </g>
    </g>
    <g id="text_12">
     <!-- Fraction of function,target pairs -->
     <g transform="translate(17.619531 297.681)rotate(-90)scale(0.17 -0.17)">
      <defs>
       <path d="M 9.8125 72.90625 
L 51.703125 72.90625 
L 51.703125 64.59375 
L 19.671875 64.59375 
L 19.671875 43.109375 
L 48.578125 43.109375 
L 48.578125 34.8125 
L 19.671875 34.8125 
L 19.671875 0 
L 9.8125 0 
z
" id="DejaVuSans-70"/>
       <path d="M 41.109375 46.296875 
Q 39.59375 47.171875 37.8125 47.578125 
Q 36.03125 48 33.890625 48 
Q 26.265625 48 22.1875 43.046875 
Q 18.109375 38.09375 18.109375 28.8125 
L 18.109375 0 
L 9.078125 0 
L 9.078125 54.6875 
L 18.109375 54.6875 
L 18.109375 46.1875 
Q 20.953125 51.171875 25.484375 53.578125 
Q 30.03125 56 36.53125 56 
Q 37.453125 56 38.578125 55.875 
Q 39.703125 55.765625 41.0625 55.515625 
z
" id="DejaVuSans-114"/>
       <path d="M 48.78125 52.59375 
L 48.78125 44.1875 
Q 44.96875 46.296875 41.140625 47.34375 
Q 37.3125 48.390625 33.40625 48.390625 
Q 24.65625 48.390625 19.8125 42.84375 
Q 14.984375 37.3125 14.984375 27.296875 
Q 14.984375 17.28125 19.8125 11.734375 
Q 24.65625 6.203125 33.40625 6.203125 
Q 37.3125 6.203125 41.140625 7.25 
Q 44.96875 8.296875 48.78125 10.40625 
L 48.78125 2.09375 
Q 45.015625 0.34375 40.984375 -0.53125 
Q 36.96875 -1.421875 32.421875 -1.421875 
Q 20.0625 -1.421875 12.78125 6.34375 
Q 5.515625 14.109375 5.515625 27.296875 
Q 5.515625 40.671875 12.859375 48.328125 
Q 20.21875 56 33.015625 56 
Q 37.15625 56 41.109375 55.140625 
Q 45.0625 54.296875 48.78125 52.59375 
z
" id="DejaVuSans-99"/>
       <path d="M 18.3125 70.21875 
L 18.3125 54.6875 
L 36.8125 54.6875 
L 36.8125 47.703125 
L 18.3125 47.703125 
L 18.3125 18.015625 
Q 18.3125 11.328125 20.140625 9.421875 
Q 21.96875 7.515625 27.59375 7.515625 
L 36.8125 7.515625 
L 36.8125 0 
L 27.59375 0 
Q 17.1875 0 13.234375 3.875 
Q 9.28125 7.765625 9.28125 18.015625 
L 9.28125 47.703125 
L 2.6875 47.703125 
L 2.6875 54.6875 
L 9.28125 54.6875 
L 9.28125 70.21875 
z
" id="DejaVuSans-116"/>
       <path d="M 8.5 21.578125 
L 8.5 54.6875 
L 17.484375 54.6875 
L 17.484375 21.921875 
Q 17.484375 14.15625 20.5 10.265625 
Q 23.53125 6.390625 29.59375 6.390625 
Q 36.859375 6.390625 41.078125 11.03125 
Q 45.3125 15.671875 45.3125 23.6875 
L 45.3125 54.6875 
L 54.296875 54.6875 
L 54.296875 0 
L 45.3125 0 
L 45.3125 8.40625 
Q 42.046875 3.421875 37.71875 1 
Q 33.40625 -1.421875 27.6875 -1.421875 
Q 18.265625 -1.421875 13.375 4.4375 
Q 8.5 10.296875 8.5 21.578125 
z
M 31.109375 56 
z
" id="DejaVuSans-117"/>
       <path d="M 11.71875 12.40625 
L 22.015625 12.40625 
L 22.015625 4 
L 14.015625 -11.625 
L 7.71875 -11.625 
L 11.71875 4 
z
" id="DejaVuSans-44"/>
       <path d="M 18.109375 8.203125 
L 18.109375 -20.796875 
L 9.078125 -20.796875 
L 9.078125 54.6875 
L 18.109375 54.6875 
L 18.109375 46.390625 
Q 20.953125 51.265625 25.265625 53.625 
Q 29.59375 56 35.59375 56 
Q 45.5625 56 51.78125 48.09375 
Q 58.015625 40.1875 58.015625 27.296875 
Q 58.015625 14.40625 51.78125 6.484375 
Q 45.5625 -1.421875 35.59375 -1.421875 
Q 29.59375 -1.421875 25.265625 0.953125 
Q 20.953125 3.328125 18.109375 8.203125 
z
M 48.6875 27.296875 
Q 48.6875 37.203125 44.609375 42.84375 
Q 40.53125 48.484375 33.40625 48.484375 
Q 26.265625 48.484375 22.1875 42.84375 
Q 18.109375 37.203125 18.109375 27.296875 
Q 18.109375 17.390625 22.1875 11.75 
Q 26.265625 6.109375 33.40625 6.109375 
Q 40.53125 6.109375 44.609375 11.75 
Q 48.6875 17.390625 48.6875 27.296875 
z
" id="DejaVuSans-112"/>
      </defs>
      <use xlink:href="#DejaVuSans-70"/>
      <use x="50.269531" xlink:href="#DejaVuSans-114"/>
      <use x="91.382812" xlink:href="#DejaVuSans-97"/>
      <use x="152.662109" xlink:href="#DejaVuSans-99"/>
      <use x="207.642578" xlink:href="#DejaVuSans-116"/>
      <use x="246.851562" xlink:href="#DejaVuSans-105"/>
      <use x="274.634766" xlink:href="#DejaVuSans-111"/>
      <use x="335.816406" xlink:href="#DejaVuSans-110"/>
      <use x="399.195312" xlink:href="#DejaVuSans-32"/>
      <use x="430.982422" xlink:href="#DejaVuSans-111"/>
      <use x="492.164062" xlink:href="#DejaVuSans-102"/>
      <use x="527.369141" xlink:href="#DejaVuSans-32"/>
      <use x="559.15625" xlink:href="#DejaVuSans-102"/>
      <use x="594.361328" xlink:href="#DejaVuSans-117"/>
      <use x="657.740234" xlink:href="#DejaVuSans-110"/>
      <use x="721.119141" xlink:href="#DejaVuSans-99"/>
      <use x="776.099609" xlink:href="#DejaVuSans-116"/>
      <use x="815.308594" xlink:href="#DejaVuSans-105"/>
      <use x="843.091797" xlink:href="#DejaVuSans-111"/>
      <use x="904.273438" xlink:href="#DejaVuSans-110"/>
      <use x="967.652344" xlink:href="#DejaVuSans-44"/>
      <use x="999.439453" xlink:href="#DejaVuSans-116"/>
      <use x="1038.648438" xlink:href="#DejaVuSans-97"/>
      <use x="1099.927734" xlink:href="#DejaVuSans-114"/>
      <use x="1139.291016" xlink:href="#DejaVuSans-103"/>
      <use x="1202.767578" xlink:href="#DejaVuSans-101"/>
      <use x="1264.291016" xlink:href="#DejaVuSans-116"/>
      <use x="1303.5" xlink:href="#DejaVuSans-32"/>
      <use x="1335.287109" xlink:href="#DejaVuSans-112"/>
      <use x="1398.763672" xlink:href="#DejaVuSans-97"/>
      <use x="1460.042969" xlink:href="#DejaVuSans-105"/>
      <use x="1487.826172" xlink:href="#DejaVuSans-114"/>
      <use x="1528.939453" xlink:href="#DejaVuSans-115"/>
     </g>
    </g>
   </g>
   <g id="line2d_33">
    <defs>
     <path d="M 0 1.5 
C 0.397805 1.5 0.77937 1.341951 1.06066 1.06066 
C 1.341951 0.77937 1.5 0.397805 1.5 0 
C 1.5 -0.397805 1.341951 -0.77937 1.06066 -1.06066 
C 0.77937 -1.341951 0.397805 -1.5 0 -1.5 
C -0.397805 -1.5 -0.77937 -1.341951 -1.06066 -1.06066 
C -1.341951 -0.77937 -1.5 -0.397805 -1.5 0 
C -1.5 0.397805 -1.341951 0.77937 -1.06066 1.06066 
C -0.77937 1.341951 -0.397805 1.5 0 1.5 
z
" id="mb5f372e94e" style="stroke:#f5deb3;"/>
    </defs>
    <g>
     <use style="fill:#f5deb3;stroke:#f5deb3;" x="152.207228" xlink:href="#mb5f372e94e" y="30.334099"/>
     <use style="fill:#f5deb3;stroke:#f5deb3;" x="152.207228" xlink:href="#mb5f372e94e" y="30.334099"/>
    </g>
   </g>
   <g id="line2d_34">
    <defs>
     <path d="M 0 1.5 
C 0.397805 1.5 0.77937 1.341951 1.06066 1.06066 
C 1.341951 0.77937 1.5 0.397805 1.5 0 
C 1.5 -0.397805 1.341951 -0.77937 1.06066 -1.06066 
C 0.77937 -1.341951 0.397805 -1.5 0 -1.5 
C -0.397805 -1.5 -0.77937 -1.341951 -1.06066 -1.06066 
C -1.341951 -0.77937 -1.5 -0.397805 -1.5 0 
C -1.5 0.397805 -1.341951 0.77937 -1.06066 1.06066 
C -0.77937 1.341951 -0.397805 1.5 0 1.5 
z
" id="mc5c2931054" style="stroke:#000080;"/>
    </defs>
    <g>
     <use style="fill:#000080;stroke:#000080;" x="296.102547" xlink:href="#mc5c2931054" y="119.870733"/>
     <use style="fill:#000080;stroke:#000080;" x="296.102547" xlink:href="#mc5c2931054" y="119.870733"/>
    </g>
   </g>
   <g id="line2d_35">
    <path d="M 135.966545 298.944 
L 135.966545 298.417314 
L 137.126135 298.417314 
L 137.126135 297.890628 
L 138.468618 297.890628 
L 138.468618 297.363942 
L 141.69035 297.363942 
L 141.69035 296.837256 
L 142.75916 296.837256 
L 142.75916 296.31057 
L 144.396671 296.31057 
L 144.396671 295.783884 
L 144.77134 295.783884 
L 144.77134 295.257197 
L 146.463409 295.257197 
L 146.463409 294.730511 
L 147.205618 294.730511 
L 147.241401 293.677139 
L 147.47474 293.677139 
L 147.525055 292.623767 
L 148.025265 292.623767 
L 148.025265 292.097081 
L 148.620389 292.097081 
L 148.620389 291.570395 
L 149.104327 291.570395 
L 149.104327 291.043709 
L 149.633173 291.043709 
L 149.633173 290.517023 
L 149.876341 290.517023 
L 149.876341 289.990337 
L 150.632448 289.990337 
L 150.632448 289.463651 
L 150.973835 289.463651 
L 151.072501 288.410278 
L 152.386839 288.410278 
L 152.386839 287.883592 
L 152.966394 287.883592 
L 152.966394 287.356906 
L 159.234659 287.356906 
L 159.234659 286.83022 
L 159.547605 286.83022 
L 159.547605 286.303534 
L 160.230035 286.303534 
L 160.230035 285.776848 
L 161.095674 285.776848 
L 161.095674 285.250162 
L 161.61174 285.250162 
L 161.620699 284.19679 
L 162.128203 284.19679 
L 162.128203 283.670104 
L 162.275462 283.670104 
L 162.275462 283.143418 
L 162.962595 283.143418 
L 162.962595 282.616732 
L 163.323704 282.616732 
L 163.323704 282.090045 
L 163.489428 282.090045 
L 163.489428 281.563359 
L 165.08745 281.563359 
L 165.08745 281.036673 
L 165.709414 281.036673 
L 165.709414 280.509987 
L 166.784261 280.509987 
L 166.784261 279.983301 
L 167.24114 279.983301 
L 167.24114 279.456615 
L 167.867253 279.456615 
L 167.867253 278.929929 
L 168.586168 278.929929 
L 168.586168 278.403243 
L 169.6253 278.403243 
L 169.6253 277.349871 
L 170.875396 277.349871 
L 170.875396 276.823185 
L 171.061409 276.823185 
L 171.061409 276.296499 
L 171.176992 276.296499 
L 171.176992 275.769812 
L 173.051642 275.769812 
L 173.051642 275.243126 
L 173.796903 275.243126 
L 173.796903 274.71644 
L 177.901581 274.71644 
L 177.901581 274.189754 
L 179.064347 274.189754 
L 179.064347 273.663068 
L 183.287618 273.663068 
L 183.287618 273.136382 
L 186.037374 273.136382 
L 186.037374 272.609696 
L 187.323138 272.609696 
L 187.323138 272.08301 
L 187.750682 272.08301 
L 187.750682 271.556324 
L 187.963553 271.556324 
L 187.963553 271.029638 
L 190.993094 271.029638 
L 190.993094 270.502952 
L 191.616706 270.502952 
L 191.616706 269.976266 
L 192.725691 269.976266 
L 192.725691 269.449579 
L 194.460358 269.449579 
L 194.460358 268.922893 
L 194.812025 268.922893 
L 194.812025 268.396207 
L 195.166882 268.396207 
L 195.166882 267.869521 
L 196.316084 267.869521 
L 196.316084 267.342835 
L 198.476778 267.342835 
L 198.476778 266.816149 
L 201.993292 266.816149 
L 201.993292 266.289463 
L 202.71664 266.289463 
L 202.71664 265.762777 
L 203.01072 265.762777 
L 203.01072 265.236091 
L 203.308743 265.236091 
L 203.308743 264.709405 
L 203.422588 264.709405 
L 203.422588 264.182719 
L 204.30232 264.182719 
L 204.326516 263.129347 
L 204.818382 263.129347 
L 204.929169 262.075974 
L 205.690592 262.075974 
L 205.690592 261.549288 
L 205.843577 261.549288 
L 205.843577 261.022602 
L 206.760769 261.022602 
L 206.760769 260.495916 
L 207.07818 260.495916 
L 207.07818 259.96923 
L 207.25716 259.96923 
L 207.25716 259.442544 
L 207.753485 259.442544 
L 207.753485 258.915858 
L 208.017673 258.915858 
L 208.017673 258.389172 
L 208.336269 258.389172 
L 208.336269 257.862486 
L 208.708679 257.862486 
L 208.708679 257.3358 
L 209.51858 257.3358 
L 209.551726 256.282427 
L 209.78766 256.282427 
L 209.78766 255.755741 
L 210.051259 255.755741 
L 210.051259 255.229055 
L 210.934949 255.229055 
L 210.934949 254.702369 
L 211.380376 254.702369 
L 211.380376 254.175683 
L 211.799972 254.175683 
L 211.825282 253.122311 
L 212.466297 253.122311 
L 212.505672 252.068939 
L 212.76024 252.068939 
L 212.76024 251.542253 
L 213.069123 251.542253 
L 213.069123 251.015567 
L 213.623907 251.015567 
L 213.690971 249.962195 
L 214.153769 249.962195 
L 214.153769 249.435508 
L 214.719139 249.435508 
L 214.734694 247.85545 
L 215.046796 247.85545 
L 215.046796 247.328764 
L 215.175718 247.328764 
L 215.175718 246.802078 
L 216.264237 246.802078 
L 216.264237 246.275392 
L 216.385368 246.275392 
L 216.385368 245.748706 
L 216.595487 245.748706 
L 216.691801 244.695334 
L 216.882471 244.695334 
L 216.882471 244.168648 
L 217.266788 244.168648 
L 217.350036 243.115275 
L 217.43681 243.115275 
L 217.494724 242.061903 
L 217.773123 242.061903 
L 217.773123 241.535217 
L 218.1 241.535217 
L 218.1 241.008531 
L 218.434392 241.008531 
L 218.521777 238.901787 
L 218.549952 238.901787 
L 218.588758 237.848415 
L 218.733727 237.848415 
L 218.733727 236.795043 
L 219.007351 236.795043 
L 219.031175 235.74167 
L 219.134835 235.74167 
L 219.134835 235.214984 
L 219.260654 235.214984 
L 219.358633 233.10824 
L 219.976986 233.10824 
L 219.976986 232.581554 
L 221.02298 232.581554 
L 221.02298 232.054868 
L 222.670601 232.054868 
L 222.670601 231.528182 
L 224.011958 231.528182 
L 224.011958 230.47481 
L 224.226406 230.47481 
L 224.226406 229.421437 
L 224.435014 229.421437 
L 224.519927 227.841379 
L 225.504264 227.841379 
L 225.504264 227.314693 
L 225.849538 227.314693 
L 225.849538 226.788007 
L 226.193962 226.788007 
L 226.193962 226.261321 
L 226.49551 226.261321 
L 226.508038 223.627891 
L 226.944197 223.627891 
L 227.044168 222.574518 
L 227.222382 222.574518 
L 227.222382 221.521146 
L 227.392765 221.521146 
L 227.392765 220.99446 
L 227.668354 220.99446 
L 227.668354 220.467774 
L 227.791894 220.467774 
L 227.791894 219.414402 
L 228.161887 219.414402 
L 228.161887 218.36103 
L 228.394075 218.36103 
L 228.394075 217.834344 
L 228.601973 217.834344 
L 228.601973 216.254285 
L 228.853123 216.254285 
L 228.853123 215.727599 
L 229.179314 215.727599 
L 229.179314 214.674227 
L 229.515538 214.674227 
L 229.515538 214.147541 
L 229.708258 214.147541 
L 229.708258 213.094169 
L 229.879309 213.094169 
L 229.879309 212.567483 
L 230.116499 212.567483 
L 230.116499 212.040797 
L 230.2892 212.040797 
L 230.2892 211.514111 
L 230.459947 211.514111 
L 230.459947 210.987425 
L 230.608651 210.987425 
L 230.632848 209.934052 
L 230.733815 209.934052 
L 230.733815 209.407366 
L 230.883671 209.407366 
L 230.979299 208.353994 
L 231.448051 208.353994 
L 231.448051 207.827308 
L 232.450579 207.827308 
L 232.450579 207.300622 
L 233.849948 207.300622 
L 233.945914 205.720564 
L 234.394193 205.720564 
L 234.459575 204.667192 
L 234.99577 204.667192 
L 235.058242 203.613819 
L 235.210686 203.613819 
L 235.210686 203.087133 
L 235.384376 203.087133 
L 235.384376 202.560447 
L 235.49778 202.560447 
L 235.49778 201.507075 
L 235.664993 201.507075 
L 235.664993 200.980389 
L 235.978626 200.980389 
L 235.978626 200.453703 
L 236.167911 200.453703 
L 236.167911 199.927017 
L 236.289535 199.927017 
L 236.385285 198.346959 
L 236.789835 198.346959 
L 236.885516 196.7669 
L 237.068188 196.7669 
L 237.122993 195.186842 
L 237.252158 195.186842 
L 237.252158 194.13347 
L 237.690439 194.13347 
L 237.690439 193.606784 
L 238.365329 193.606784 
L 238.365329 193.080098 
L 238.865458 193.080098 
L 238.865458 192.553412 
L 239.531571 192.553412 
L 239.619961 190.973354 
L 239.741981 190.973354 
L 239.741981 190.446667 
L 239.887059 190.446667 
L 239.887059 189.919981 
L 240.207094 189.919981 
L 240.207094 189.393295 
L 240.401198 189.393295 
L 240.401198 188.866609 
L 240.640244 188.866609 
L 240.685465 187.286551 
L 240.795999 187.286551 
L 240.841247 186.233179 
L 240.923756 186.233179 
L 240.923756 185.706493 
L 241.184186 185.706493 
L 241.184186 184.653121 
L 241.370521 184.653121 
L 241.370521 184.126434 
L 241.601679 184.126434 
L 241.709475 183.073062 
L 241.863583 183.073062 
L 241.863583 182.546376 
L 242.072398 182.546376 
L 242.099562 180.966318 
L 242.183822 180.966318 
L 242.204752 179.912946 
L 242.367342 179.912946 
L 242.475384 178.332888 
L 242.624512 178.332888 
L 242.624512 177.806202 
L 243.522924 177.806202 
L 243.522924 176.752829 
L 244.419741 176.752829 
L 244.419741 175.699457 
L 244.559244 175.699457 
L 244.639326 174.646085 
L 244.671406 174.646085 
L 244.671406 174.119399 
L 244.897651 174.119399 
L 244.933086 173.066027 
L 245.019785 173.066027 
L 245.118966 172.012655 
L 246.05106 172.012655 
L 246.102307 170.959282 
L 246.200355 170.959282 
L 246.264879 169.90591 
L 247.611217 169.90591 
L 247.611217 169.379224 
L 248.0393 169.379224 
L 248.0393 168.852538 
L 248.316973 168.852538 
L 248.346104 167.799166 
L 249.6601 167.799166 
L 249.694779 166.745794 
L 249.856476 166.745794 
L 249.856476 166.219108 
L 250.12969 166.219108 
L 250.12969 165.692422 
L 250.939093 165.692422 
L 250.994679 163.585677 
L 251.44224 163.585677 
L 251.44224 163.058991 
L 251.630796 163.058991 
L 251.630796 162.532305 
L 252.139652 162.532305 
L 252.139652 162.005619 
L 252.272811 162.005619 
L 252.322361 160.952247 
L 252.585787 160.952247 
L 252.585787 160.425561 
L 253.152061 160.425561 
L 253.152061 159.898875 
L 253.544184 159.898875 
L 253.544184 159.372189 
L 253.973012 159.372189 
L 253.973012 158.318817 
L 254.369135 158.318817 
L 254.470512 156.738758 
L 254.983748 156.738758 
L 255.05737 155.685386 
L 255.865066 155.685386 
L 255.865066 155.1587 
L 256.183881 155.1587 
L 256.237205 154.105328 
L 256.407858 154.105328 
L 256.436174 152.52527 
L 257.771131 152.52527 
L 257.771131 151.998584 
L 258.010482 151.998584 
L 258.010482 151.471897 
L 258.165458 151.471897 
L 258.165458 150.945211 
L 258.494229 150.945211 
L 258.494229 150.418525 
L 258.776729 150.418525 
L 258.776729 149.891839 
L 259.07961 149.891839 
L 259.07961 149.365153 
L 259.42051 149.365153 
L 259.489242 147.785095 
L 259.667936 147.785095 
L 259.706276 146.731723 
L 259.84695 146.731723 
L 259.954601 145.678351 
L 260.572322 145.678351 
L 260.572322 145.151665 
L 260.759318 145.151665 
L 260.759318 144.624978 
L 261.216602 144.624978 
L 261.216602 144.098292 
L 261.330299 144.098292 
L 261.330299 143.571606 
L 261.457888 143.571606 
L 261.546589 142.518234 
L 262.286559 142.518234 
L 262.286559 141.991548 
L 262.43045 141.991548 
L 262.43045 141.464862 
L 262.571366 141.464862 
L 262.571366 140.938176 
L 262.783379 140.938176 
L 262.861396 139.884804 
L 263.052922 139.884804 
L 263.05729 138.831432 
L 264.332049 138.831432 
L 264.332049 138.304745 
L 264.749609 138.304745 
L 264.749609 137.251373 
L 264.952364 137.251373 
L 264.952364 136.724687 
L 265.204581 136.724687 
L 265.204581 135.671315 
L 266.278116 135.671315 
L 266.34541 134.617943 
L 266.515493 134.617943 
L 266.515493 134.091257 
L 267.276996 134.091257 
L 267.276996 133.564571 
L 267.41617 133.564571 
L 267.41617 133.037885 
L 268.477113 133.037885 
L 268.576018 131.984513 
L 269.151353 131.984513 
L 269.215056 130.93114 
L 269.427965 130.93114 
L 269.427965 129.877768 
L 269.729821 129.877768 
L 269.729821 129.351082 
L 271.030044 129.351082 
L 271.030044 128.824396 
L 271.186985 128.824396 
L 271.186985 128.29771 
L 271.597238 128.29771 
L 271.597238 127.771024 
L 272.654685 127.771024 
L 272.654685 127.244338 
L 272.810758 127.244338 
L 272.810758 126.717652 
L 273.595353 126.717652 
L 273.595353 126.190966 
L 274.116711 126.190966 
L 274.116711 125.66428 
L 274.351742 125.66428 
L 274.351742 125.137593 
L 276.712802 125.137593 
L 276.712802 124.610907 
L 278.47453 124.610907 
L 278.47453 124.084221 
L 279.116304 124.084221 
L 279.194616 123.030849 
L 279.639336 123.030849 
L 279.639336 122.504163 
L 282.731407 122.504163 
L 282.754111 121.450791 
L 282.917781 121.450791 
L 282.917781 120.924105 
L 291.753455 120.924105 
L 291.753455 120.397419 
L 296.102547 120.397419 
L 296.102547 119.870733 
L 338.688 119.870733 
L 338.688 119.870733 
" style="fill:none;stroke:#000080;stroke-linecap:square;stroke-width:1.5;"/>
   </g>
   <g id="line2d_36">
    <defs>
     <path d="M 0 6 
C 1.591219 6 3.117479 5.367802 4.242641 4.242641 
C 5.367802 3.117479 6 1.591219 6 0 
C 6 -1.591219 5.367802 -3.117479 4.242641 -4.242641 
C 3.117479 -5.367802 1.591219 -6 0 -6 
C -1.591219 -6 -3.117479 -5.367802 -4.242641 -4.242641 
C -5.367802 -3.117479 -6 -1.591219 -6 0 
C -6 1.591219 -5.367802 3.117479 -4.242641 4.242641 
C -3.117479 5.367802 -1.591219 6 0 6 
z
" id="md283ccb7e9" style="stroke:#000080;stroke-width:1.5;"/>
    </defs>
    <g>
     <use style="fill-opacity:0;stroke:#000080;stroke-width:1.5;" x="195.166882" xlink:href="#md283ccb7e9" y="268.396207"/>
     <use style="fill-opacity:0;stroke:#000080;stroke-width:1.5;" x="228.853123" xlink:href="#md283ccb7e9" y="216.254285"/>
     <use style="fill-opacity:0;stroke:#000080;stroke-width:1.5;" x="271.186985" xlink:href="#md283ccb7e9" y="128.29771"/>
     <use style="fill-opacity:0;stroke:#000080;stroke-width:1.5;" x="296.102547" xlink:href="#md283ccb7e9" y="119.870733"/>
     <use style="fill-opacity:0;stroke:#000080;stroke-width:1.5;" x="338.688" xlink:href="#md283ccb7e9" y="119.870733"/>
    </g>
   </g>
   <g id="line2d_37">
    <path style="fill:none;stroke:#000080;stroke-linecap:square;stroke-width:1.5;"/>
    <g/>
   </g>
   <g id="line2d_38">
    <path clip-path="url(#p55f577f762)" d="M 218.221714 241.008531 
" style="fill:none;stroke:#000080;stroke-linecap:square;stroke-width:1.5;"/>
    <defs>
     <path d="M -12 12 
L 12 -12 
M -12 -12 
L 12 12 
" id="m1e9ecabd9a" style="stroke:#000080;"/>
    </defs>
    <g clip-path="url(#p55f577f762)">
     <use style="fill:#000080;stroke:#000080;" x="218.221714" xlink:href="#m1e9ecabd9a" y="241.008531"/>
    </g>
   </g>
   <g id="line2d_39">
    <defs>
     <path d="M 0 1.5 
C 0.397805 1.5 0.77937 1.341951 1.06066 1.06066 
C 1.341951 0.77937 1.5 0.397805 1.5 0 
C 1.5 -0.397805 1.341951 -0.77937 1.06066 -1.06066 
C 0.77937 -1.341951 0.397805 -1.5 0 -1.5 
C -0.397805 -1.5 -0.77937 -1.341951 -1.06066 -1.06066 
C -1.341951 -0.77937 -1.5 -0.397805 -1.5 0 
C -1.5 0.397805 -1.341951 0.77937 -1.06066 1.06066 
C -0.77937 1.341951 -0.397805 1.5 0 1.5 
z
" id="mc5f53b11b0" style="stroke:#ff00ff;"/>
    </defs>
    <g>
     <use style="fill:#ff00ff;stroke:#ff00ff;" x="286.738015" xlink:href="#mc5f53b11b0" y="235.74167"/>
     <use style="fill:#ff00ff;stroke:#ff00ff;" x="286.738015" xlink:href="#mc5f53b11b0" y="235.74167"/>
    </g>
   </g>
   <g id="line2d_40">
    <path d="M 146.628157 298.944 
L 146.628157 298.417314 
L 149.40462 298.417314 
L 149.40462 297.890628 
L 150.391144 297.890628 
L 150.391144 297.363942 
L 151.0766 297.363942 
L 151.0766 296.837256 
L 151.381313 296.837256 
L 151.381313 296.31057 
L 153.980758 296.31057 
L 153.980758 295.783884 
L 154.988544 295.783884 
L 154.988544 295.257197 
L 155.897793 295.257197 
L 155.897793 294.730511 
L 156.199806 294.730511 
L 156.227282 293.677139 
L 157.548627 293.677139 
L 157.548627 293.150453 
L 157.692253 293.150453 
L 157.692253 292.623767 
L 158.868869 292.623767 
L 158.92645 291.570395 
L 159.765615 291.570395 
L 159.815349 290.517023 
L 159.966168 290.517023 
L 159.966168 289.990337 
L 161.352206 289.990337 
L 161.463263 288.936964 
L 161.867469 288.936964 
L 161.867469 288.410278 
L 162.102087 288.410278 
L 162.102087 287.883592 
L 163.053576 287.883592 
L 163.053576 287.356906 
L 163.635649 287.356906 
L 163.635649 286.83022 
L 165.634872 286.83022 
L 165.634872 286.303534 
L 169.05875 286.303534 
L 169.05875 285.776848 
L 169.678981 285.776848 
L 169.678981 285.250162 
L 169.999028 285.250162 
L 169.999028 284.723476 
L 170.336414 284.723476 
L 170.336414 284.19679 
L 171.149789 284.19679 
L 171.149789 283.670104 
L 171.496352 283.670104 
L 171.496352 283.143418 
L 172.204903 283.143418 
L 172.204903 282.616732 
L 174.758955 282.616732 
L 174.758955 282.090045 
L 177.990259 282.090045 
L 177.990259 281.563359 
L 180.358972 281.563359 
L 180.358972 281.036673 
L 181.993985 281.036673 
L 181.993985 280.509987 
L 182.1768 280.509987 
L 182.1768 279.983301 
L 187.074706 279.983301 
L 187.074706 279.456615 
L 190.10931 279.456615 
L 190.10931 278.929929 
L 190.415209 278.929929 
L 190.415209 278.403243 
L 190.914803 278.403243 
L 190.914803 277.876557 
L 191.533116 277.876557 
L 191.533116 277.349871 
L 191.855214 277.349871 
L 191.886428 276.296499 
L 192.168752 276.296499 
L 192.168752 275.769812 
L 192.909812 275.769812 
L 192.909812 275.243126 
L 194.237557 275.243126 
L 194.237557 274.71644 
L 203.067989 274.71644 
L 203.148472 273.663068 
L 205.581851 273.663068 
L 205.581851 273.136382 
L 206.992064 273.136382 
L 206.992064 272.609696 
L 207.411323 272.609696 
L 207.411323 272.08301 
L 207.679269 272.08301 
L 207.679269 271.556324 
L 207.934983 271.556324 
L 207.934983 271.029638 
L 209.697053 271.029638 
L 209.697053 270.502952 
L 212.91507 270.502952 
L 212.91507 269.976266 
L 214.471589 269.976266 
L 214.471589 269.449579 
L 214.789666 269.449579 
L 214.789666 268.922893 
L 215.374879 268.922893 
L 215.418044 267.869521 
L 216.170039 267.869521 
L 216.170039 267.342835 
L 216.841087 267.342835 
L 216.841087 266.816149 
L 218.749808 266.816149 
L 218.846991 265.762777 
L 219.627445 265.762777 
L 219.627445 265.236091 
L 221.437565 265.236091 
L 221.437565 264.709405 
L 222.15171 264.709405 
L 222.15171 263.129347 
L 224.329486 263.129347 
L 224.329486 262.60266 
L 225.729083 262.60266 
L 225.729083 262.075974 
L 226.462327 262.075974 
L 226.462327 261.022602 
L 227.857453 261.022602 
L 227.885782 259.96923 
L 228.935162 259.96923 
L 228.935162 259.442544 
L 229.47575 259.442544 
L 229.47575 258.915858 
L 233.629624 258.915858 
L 233.629624 258.389172 
L 234.576609 258.389172 
L 234.576609 257.862486 
L 234.912291 257.862486 
L 234.912291 257.3358 
L 236.476503 257.3358 
L 236.476503 256.809114 
L 240.298356 256.809114 
L 240.337996 255.755741 
L 240.579888 255.755741 
L 240.579888 255.229055 
L 241.72396 255.229055 
L 241.72396 254.175683 
L 243.445398 254.175683 
L 243.466283 253.122311 
L 244.661319 253.122311 
L 244.661319 252.595625 
L 245.349217 252.595625 
L 245.349217 252.068939 
L 248.097598 252.068939 
L 248.122954 250.488881 
L 249.022461 250.488881 
L 249.022461 249.962195 
L 250.646986 249.962195 
L 250.646986 249.435508 
L 250.932145 249.435508 
L 250.966268 248.382136 
L 251.14155 248.382136 
L 251.14155 247.85545 
L 251.490813 247.85545 
L 251.490813 247.328764 
L 252.775605 247.328764 
L 252.775605 246.802078 
L 253.467583 246.802078 
L 253.486222 245.748706 
L 253.600452 245.748706 
L 253.600452 245.22202 
L 253.904182 245.22202 
L 253.904182 244.695334 
L 255.755111 244.695334 
L 255.755111 244.168648 
L 257.672592 244.168648 
L 257.672592 243.641962 
L 258.110765 243.641962 
L 258.110765 243.115275 
L 259.093616 243.115275 
L 259.093616 242.588589 
L 260.42759 242.588589 
L 260.42759 242.061903 
L 262.597042 242.061903 
L 262.597042 241.535217 
L 263.68089 241.535217 
L 263.68089 240.481845 
L 270.827047 240.481845 
L 270.827047 239.955159 
L 270.984044 239.955159 
L 270.984044 239.428473 
L 271.189658 239.428473 
L 271.189658 238.901787 
L 276.04282 238.901787 
L 276.04282 238.375101 
L 277.44781 238.375101 
L 277.44781 237.848415 
L 277.883803 237.848415 
L 277.883803 237.321729 
L 278.022498 237.321729 
L 278.022498 236.795043 
L 284.03775 236.795043 
L 284.03775 236.268356 
L 286.738015 236.268356 
L 286.738015 235.74167 
L 338.688 235.74167 
L 338.688 235.74167 
" style="fill:none;stroke:#ff00ff;stroke-linecap:square;stroke-width:1.5;"/>
   </g>
   <g id="line2d_41">
    <defs>
     <path d="M -0 8.485281 
L 5.091169 0 
L 0 -8.485281 
L -5.091169 -0 
z
" id="m501ce28450" style="stroke:#ff00ff;stroke-linejoin:miter;stroke-width:1.5;"/>
    </defs>
    <g>
     <use style="fill-opacity:0;stroke:#ff00ff;stroke-linejoin:miter;stroke-width:1.5;" x="222.15171" xlink:href="#m501ce28450" y="263.129347"/>
     <use style="fill-opacity:0;stroke:#ff00ff;stroke-linejoin:miter;stroke-width:1.5;" x="277.44781" xlink:href="#m501ce28450" y="238.375101"/>
     <use style="fill-opacity:0;stroke:#ff00ff;stroke-linejoin:miter;stroke-width:1.5;" x="286.738015" xlink:href="#m501ce28450" y="235.74167"/>
     <use style="fill-opacity:0;stroke:#ff00ff;stroke-linejoin:miter;stroke-width:1.5;" x="286.738015" xlink:href="#m501ce28450" y="235.74167"/>
     <use style="fill-opacity:0;stroke:#ff00ff;stroke-linejoin:miter;stroke-width:1.5;" x="338.688" xlink:href="#m501ce28450" y="235.74167"/>
    </g>
   </g>
   <g id="line2d_42">
    <path style="fill:none;stroke:#ff00ff;stroke-linecap:square;stroke-width:1.5;"/>
    <g/>
   </g>
   <g id="line2d_43">
    <path clip-path="url(#p55f577f762)" d="M 218.221714 266.816149 
" style="fill:none;stroke:#ff00ff;stroke-linecap:square;stroke-width:1.5;"/>
    <defs>
     <path d="M -12 12 
L 12 -12 
M -12 -12 
L 12 12 
" id="m049e1c7341" style="stroke:#ff00ff;"/>
    </defs>
    <g clip-path="url(#p55f577f762)">
     <use style="fill:#ff00ff;stroke:#ff00ff;" x="218.221714" xlink:href="#m049e1c7341" y="266.816149"/>
    </g>
   </g>
   <g id="line2d_44">
    <defs>
     <path d="M 0 1.5 
C 0.397805 1.5 0.77937 1.341951 1.06066 1.06066 
C 1.341951 0.77937 1.5 0.397805 1.5 0 
C 1.5 -0.397805 1.341951 -0.77937 1.06066 -1.06066 
C 0.77937 -1.341951 0.397805 -1.5 0 -1.5 
C -0.397805 -1.5 -0.77937 -1.341951 -1.06066 -1.06066 
C -1.341951 -0.77937 -1.5 -0.397805 -1.5 0 
C -1.5 0.397805 -1.341951 0.77937 -1.06066 1.06066 
C -0.77937 1.341951 -0.397805 1.5 0 1.5 
z
" id="m9a63782282" style="stroke:#ff7500;"/>
    </defs>
    <g>
     <use style="fill:#ff7500;stroke:#ff7500;" x="278.520027" xlink:href="#m9a63782282" y="219.941088"/>
     <use style="fill:#ff7500;stroke:#ff7500;" x="278.520027" xlink:href="#m9a63782282" y="219.941088"/>
    </g>
   </g>
   <g id="line2d_45">
    <path d="M 152.481628 298.944 
L 152.481628 298.417314 
L 153.907739 298.417314 
L 153.907739 297.890628 
L 154.382073 297.890628 
L 154.382073 297.363942 
L 154.661269 297.363942 
L 154.661269 296.837256 
L 154.981993 296.837256 
L 154.981993 296.31057 
L 155.183944 296.31057 
L 155.183944 295.783884 
L 156.598505 295.783884 
L 156.661102 294.730511 
L 156.744217 294.730511 
L 156.744217 294.203825 
L 157.420907 294.203825 
L 157.420907 293.677139 
L 157.621996 293.677139 
L 157.621996 293.150453 
L 159.028061 293.150453 
L 159.028061 292.623767 
L 159.334496 292.623767 
L 159.334496 292.097081 
L 159.519846 292.097081 
L 159.519846 291.570395 
L 160.300213 291.570395 
L 160.39655 290.517023 
L 160.965979 290.517023 
L 160.965979 289.990337 
L 161.347658 289.990337 
L 161.347658 289.463651 
L 162.234442 289.463651 
L 162.234442 288.936964 
L 162.453536 288.936964 
L 162.453536 288.410278 
L 163.766802 288.410278 
L 163.766802 287.883592 
L 164.055418 287.883592 
L 164.059312 286.83022 
L 164.339335 286.83022 
L 164.339335 286.303534 
L 164.989905 286.303534 
L 164.989905 285.776848 
L 165.364212 285.776848 
L 165.364212 285.250162 
L 166.113796 285.250162 
L 166.113796 284.723476 
L 166.349268 284.723476 
L 166.349268 284.19679 
L 168.619175 284.19679 
L 168.682014 283.143418 
L 168.888381 283.143418 
L 168.888381 282.616732 
L 170.386599 282.616732 
L 170.386599 282.090045 
L 170.838482 282.090045 
L 170.838482 281.563359 
L 171.824942 281.563359 
L 171.824942 281.036673 
L 172.755031 281.036673 
L 172.755031 280.509987 
L 173.056292 280.509987 
L 173.056292 279.983301 
L 174.663832 279.983301 
L 174.722024 278.929929 
L 175.093031 278.929929 
L 175.093031 278.403243 
L 175.389341 278.403243 
L 175.389341 277.876557 
L 175.841917 277.876557 
L 175.841917 277.349871 
L 176.33416 277.349871 
L 176.33416 276.823185 
L 180.842286 276.823185 
L 180.842286 276.296499 
L 182.61152 276.296499 
L 182.61152 275.769812 
L 183.713493 275.769812 
L 183.713493 275.243126 
L 184.148914 275.243126 
L 184.172891 273.663068 
L 184.470755 273.663068 
L 184.470755 273.136382 
L 184.62349 273.136382 
L 184.62349 272.609696 
L 186.472452 272.609696 
L 186.472452 272.08301 
L 187.110562 272.08301 
L 187.110562 271.556324 
L 204.029792 271.556324 
L 204.029792 271.029638 
L 204.559015 271.029638 
L 204.559015 270.502952 
L 205.225434 270.502952 
L 205.225434 269.976266 
L 205.836838 269.976266 
L 205.836838 269.449579 
L 206.048414 269.449579 
L 206.14558 268.396207 
L 206.497866 268.396207 
L 206.497866 267.869521 
L 210.148778 267.869521 
L 210.148778 267.342835 
L 211.784087 267.342835 
L 211.784087 266.816149 
L 212.00293 266.816149 
L 212.00293 266.289463 
L 212.357159 266.289463 
L 212.357159 265.762777 
L 212.730399 265.762777 
L 212.730399 265.236091 
L 212.998209 265.236091 
L 212.998209 264.709405 
L 214.245136 264.709405 
L 214.245136 264.182719 
L 215.673305 264.182719 
L 215.673305 263.656033 
L 216.087454 263.656033 
L 216.087454 263.129347 
L 217.412988 263.129347 
L 217.412988 262.60266 
L 217.834123 262.60266 
L 217.834123 262.075974 
L 219.462563 262.075974 
L 219.462563 261.549288 
L 220.573552 261.549288 
L 220.573552 260.495916 
L 221.418919 260.495916 
L 221.418919 259.96923 
L 225.081962 259.96923 
L 225.081962 259.442544 
L 225.264343 259.442544 
L 225.264343 258.915858 
L 225.414961 258.915858 
L 225.414961 258.389172 
L 227.334639 258.389172 
L 227.334639 257.862486 
L 227.476054 257.862486 
L 227.476054 256.809114 
L 227.622792 256.809114 
L 227.622792 256.282427 
L 228.37119 256.282427 
L 228.434514 255.229055 
L 229.449295 255.229055 
L 229.449295 254.702369 
L 230.116984 254.702369 
L 230.116984 254.175683 
L 230.941161 254.175683 
L 230.941161 253.648997 
L 231.51397 253.648997 
L 231.525237 252.595625 
L 234.823296 252.595625 
L 234.823296 252.068939 
L 235.412186 252.068939 
L 235.470982 251.015567 
L 235.636202 251.015567 
L 235.636202 249.962195 
L 236.012832 249.962195 
L 236.11261 248.382136 
L 237.115293 248.382136 
L 237.115293 247.85545 
L 238.185771 247.85545 
L 238.185771 247.328764 
L 238.512848 247.328764 
L 238.512848 246.802078 
L 240.070694 246.802078 
L 240.070694 246.275392 
L 240.94251 246.275392 
L 241.038357 244.695334 
L 241.231074 244.695334 
L 241.231074 244.168648 
L 241.455356 244.168648 
L 241.455356 243.641962 
L 243.016047 243.641962 
L 243.016047 243.115275 
L 244.419004 243.115275 
L 244.419004 242.588589 
L 245.168578 242.588589 
L 245.177874 241.535217 
L 246.97721 241.535217 
L 246.97721 241.008531 
L 247.656375 241.008531 
L 247.656375 240.481845 
L 248.044095 240.481845 
L 248.044095 239.955159 
L 248.512204 239.955159 
L 248.618256 238.901787 
L 248.846179 238.901787 
L 248.865777 237.848415 
L 249.130651 237.848415 
L 249.130651 237.321729 
L 251.106513 237.321729 
L 251.106513 236.795043 
L 251.624761 236.795043 
L 251.641474 235.214984 
L 252.509633 235.214984 
L 252.509633 234.688298 
L 252.691341 234.688298 
L 252.691341 234.161612 
L 253.360965 234.161612 
L 253.360965 233.634926 
L 253.851758 233.634926 
L 253.912124 232.054868 
L 254.232751 232.054868 
L 254.232751 231.001496 
L 254.386616 231.001496 
L 254.386616 230.47481 
L 255.921079 230.47481 
L 255.948623 229.421437 
L 256.315087 229.421437 
L 256.315087 228.894751 
L 256.814625 228.894751 
L 256.814625 228.368065 
L 256.956746 228.368065 
L 256.956746 227.841379 
L 257.919818 227.841379 
L 257.919818 227.314693 
L 259.074148 227.314693 
L 259.074148 226.788007 
L 259.534759 226.788007 
L 259.624033 225.734635 
L 259.676736 225.734635 
L 259.676736 225.207949 
L 260.381215 225.207949 
L 260.381215 224.681263 
L 260.801687 224.681263 
L 260.801687 224.154577 
L 262.601868 224.154577 
L 262.601868 223.627891 
L 263.4912 223.627891 
L 263.4912 223.101204 
L 263.8498 223.101204 
L 263.8498 222.574518 
L 268.40706 222.574518 
L 268.40706 222.047832 
L 269.29311 222.047832 
L 269.306502 220.99446 
L 275.503921 220.99446 
L 275.503921 220.467774 
L 278.520027 220.467774 
L 278.520027 219.941088 
L 338.688 219.941088 
L 338.688 219.941088 
" style="fill:none;stroke:#ff7500;stroke-linecap:square;stroke-width:1.5;"/>
   </g>
   <g id="line2d_46">
    <defs>
     <path d="M 0 -6 
L -1.347084 -1.854102 
L -5.706339 -1.854102 
L -2.179628 0.708204 
L -3.526712 4.854102 
L -0 2.291796 
L 3.526712 4.854102 
L 2.179628 0.708204 
L 5.706339 -1.854102 
L 1.347084 -1.854102 
z
" id="m0ddd54cce4" style="stroke:#ff7500;stroke-linejoin:bevel;stroke-width:1.5;"/>
    </defs>
    <g>
     <use style="fill-opacity:0;stroke:#ff7500;stroke-linejoin:bevel;stroke-width:1.5;" x="249.130651" xlink:href="#m0ddd54cce4" y="237.848415"/>
     <use style="fill-opacity:0;stroke:#ff7500;stroke-linejoin:bevel;stroke-width:1.5;" x="278.520027" xlink:href="#m0ddd54cce4" y="219.941088"/>
     <use style="fill-opacity:0;stroke:#ff7500;stroke-linejoin:bevel;stroke-width:1.5;" x="278.520027" xlink:href="#m0ddd54cce4" y="219.941088"/>
     <use style="fill-opacity:0;stroke:#ff7500;stroke-linejoin:bevel;stroke-width:1.5;" x="338.688" xlink:href="#m0ddd54cce4" y="219.941088"/>
    </g>
   </g>
   <g id="line2d_47">
    <path style="fill:none;stroke:#ff7500;stroke-linecap:square;stroke-width:1.5;"/>
    <g/>
   </g>
   <g id="line2d_48">
    <path clip-path="url(#p55f577f762)" d="M 218.221714 262.075974 
" style="fill:none;stroke:#ff7500;stroke-linecap:square;stroke-width:1.5;"/>
    <defs>
     <path d="M -12 12 
L 12 -12 
M -12 -12 
L 12 12 
" id="mf11e7941cb" style="stroke:#ff7500;"/>
    </defs>
    <g clip-path="url(#p55f577f762)">
     <use style="fill:#ff7500;stroke:#ff7500;" x="218.221714" xlink:href="#mf11e7941cb" y="262.075974"/>
    </g>
   </g>
   <g id="line2d_49">
    <defs>
     <path d="M 0 1.5 
C 0.397805 1.5 0.77937 1.341951 1.06066 1.06066 
C 1.341951 0.77937 1.5 0.397805 1.5 0 
C 1.5 -0.397805 1.341951 -0.77937 1.06066 -1.06066 
C 0.77937 -1.341951 0.397805 -1.5 0 -1.5 
C -0.397805 -1.5 -0.77937 -1.341951 -1.06066 -1.06066 
C -1.341951 -0.77937 -1.5 -0.397805 -1.5 0 
C -1.5 0.397805 -1.341951 0.77937 -1.06066 1.06066 
C -0.77937 1.341951 -0.397805 1.5 0 1.5 
z
" id="mc350e6d960" style="stroke:#6495ed;"/>
    </defs>
    <g>
     <use style="fill:#6495ed;stroke:#6495ed;" x="272.559754" xlink:href="#mc350e6d960" y="262.075974"/>
     <use style="fill:#6495ed;stroke:#6495ed;" x="272.559754" xlink:href="#mc350e6d960" y="262.075974"/>
    </g>
   </g>
   <g id="line2d_50">
    <path d="M 160.384537 298.944 
L 160.384537 298.417314 
L 161.318067 298.417314 
L 161.318067 297.890628 
L 161.59381 297.890628 
L 161.59381 297.363942 
L 163.565696 297.363942 
L 163.565696 296.837256 
L 163.693398 296.837256 
L 163.693398 296.31057 
L 164.272154 296.31057 
L 164.272154 295.783884 
L 164.575287 295.783884 
L 164.575287 295.257197 
L 164.746437 295.257197 
L 164.746437 294.730511 
L 165.727115 294.730511 
L 165.801265 293.677139 
L 166.002695 293.677139 
L 166.002695 293.150453 
L 166.444611 293.150453 
L 166.515778 292.097081 
L 166.667308 292.097081 
L 166.667308 291.570395 
L 166.971417 291.570395 
L 166.971417 291.043709 
L 167.399386 291.043709 
L 167.399386 290.517023 
L 167.525915 290.517023 
L 167.525915 289.990337 
L 168.322895 289.990337 
L 168.322895 289.463651 
L 168.71782 289.463651 
L 168.71782 288.936964 
L 169.67616 288.936964 
L 169.67616 288.410278 
L 169.96576 288.410278 
L 169.96576 287.883592 
L 170.280634 287.883592 
L 170.349992 286.83022 
L 170.950302 286.83022 
L 171.054893 285.250162 
L 171.371357 285.250162 
L 171.371357 284.723476 
L 171.517944 284.723476 
L 171.517944 284.19679 
L 171.713588 284.19679 
L 171.713588 283.670104 
L 171.907062 283.670104 
L 171.907062 283.143418 
L 172.406305 283.143418 
L 172.406305 282.616732 
L 172.786927 282.616732 
L 172.786927 282.090045 
L 173.154796 282.090045 
L 173.154796 281.563359 
L 174.154101 281.563359 
L 174.154101 281.036673 
L 174.337554 281.036673 
L 174.337554 280.509987 
L 177.488292 280.509987 
L 177.535099 279.456615 
L 178.689795 279.456615 
L 178.689795 278.929929 
L 179.481748 278.929929 
L 179.481748 278.403243 
L 180.62453 278.403243 
L 180.62453 277.876557 
L 181.747918 277.876557 
L 181.747918 277.349871 
L 186.599069 277.349871 
L 186.599069 276.823185 
L 188.366687 276.823185 
L 188.366687 276.296499 
L 193.766225 276.296499 
L 193.766225 275.769812 
L 194.597417 275.769812 
L 194.597417 275.243126 
L 195.180941 275.243126 
L 195.180941 274.71644 
L 202.694563 274.71644 
L 202.694563 274.189754 
L 203.715315 274.189754 
L 203.715315 273.663068 
L 204.559588 273.663068 
L 204.559588 273.136382 
L 206.491717 273.136382 
L 206.491717 272.609696 
L 206.989407 272.609696 
L 206.989407 272.08301 
L 207.871958 272.08301 
L 207.871958 271.556324 
L 209.858231 271.556324 
L 209.858231 271.029638 
L 210.799619 271.029638 
L 210.799619 270.502952 
L 211.713184 270.502952 
L 211.713184 269.976266 
L 222.057632 269.976266 
L 222.057632 269.449579 
L 226.624596 269.449579 
L 226.624596 268.396207 
L 232.425921 268.396207 
L 232.425921 267.869521 
L 234.375694 267.869521 
L 234.375694 267.342835 
L 234.562949 267.342835 
L 234.562949 266.816149 
L 244.653659 266.816149 
L 244.653659 266.289463 
L 248.116673 266.289463 
L 248.116673 265.762777 
L 253.481605 265.762777 
L 253.481605 265.236091 
L 255.650118 265.236091 
L 255.650118 264.709405 
L 257.032692 264.709405 
L 257.032692 264.182719 
L 262.341566 264.182719 
L 262.341566 263.656033 
L 266.078856 263.656033 
L 266.078856 263.129347 
L 269.154869 263.129347 
L 269.154869 262.60266 
L 272.559754 262.60266 
L 272.559754 262.075974 
L 338.688 262.075974 
L 338.688 262.075974 
" style="fill:none;stroke:#6495ed;stroke-linecap:square;stroke-width:1.5;"/>
   </g>
   <g id="line2d_51">
    <defs>
     <path d="M -0 6 
L 6 -6 
L -6 -6 
z
" id="m05ce9cdb5a" style="stroke:#6495ed;stroke-linejoin:miter;stroke-width:1.5;"/>
    </defs>
    <g>
     <use style="fill-opacity:0;stroke:#6495ed;stroke-linejoin:miter;stroke-width:1.5;" x="204.559588" xlink:href="#m05ce9cdb5a" y="273.136382"/>
     <use style="fill-opacity:0;stroke:#6495ed;stroke-linejoin:miter;stroke-width:1.5;" x="272.559754" xlink:href="#m05ce9cdb5a" y="262.075974"/>
     <use style="fill-opacity:0;stroke:#6495ed;stroke-linejoin:miter;stroke-width:1.5;" x="272.559754" xlink:href="#m05ce9cdb5a" y="262.075974"/>
     <use style="fill-opacity:0;stroke:#6495ed;stroke-linejoin:miter;stroke-width:1.5;" x="338.688" xlink:href="#m05ce9cdb5a" y="262.075974"/>
    </g>
   </g>
   <g id="line2d_52">
    <path style="fill:none;stroke:#6495ed;stroke-linecap:square;stroke-width:1.5;"/>
    <g/>
   </g>
   <g id="line2d_53">
    <path clip-path="url(#p55f577f762)" d="M 218.221714 269.976266 
" style="fill:none;stroke:#6495ed;stroke-linecap:square;stroke-width:1.5;"/>
    <defs>
     <path d="M -12 12 
L 12 -12 
M -12 -12 
L 12 12 
" id="maaf26c35aa" style="stroke:#6495ed;"/>
    </defs>
    <g clip-path="url(#p55f577f762)">
     <use style="fill:#6495ed;stroke:#6495ed;" x="218.221714" xlink:href="#maaf26c35aa" y="269.976266"/>
    </g>
   </g>
   <g id="line2d_54">
    <defs>
     <path d="M 0 1.5 
C 0.397805 1.5 0.77937 1.341951 1.06066 1.06066 
C 1.341951 0.77937 1.5 0.397805 1.5 0 
C 1.5 -0.397805 1.341951 -0.77937 1.06066 -1.06066 
C 0.77937 -1.341951 0.397805 -1.5 0 -1.5 
C -0.397805 -1.5 -0.77937 -1.341951 -1.06066 -1.06066 
C -1.341951 -0.77937 -1.5 -0.397805 -1.5 0 
C -1.5 0.397805 -1.341951 0.77937 -1.06066 1.06066 
C -0.77937 1.341951 -0.397805 1.5 0 1.5 
z
" id="m8cbb57211f" style="stroke:#ff0000;"/>
    </defs>
    <g>
     <use style="fill:#ff0000;stroke:#ff0000;" x="302.086544" xlink:href="#m8cbb57211f" y="267.342835"/>
     <use style="fill:#ff0000;stroke:#ff0000;" x="302.086544" xlink:href="#m8cbb57211f" y="267.342835"/>
    </g>
   </g>
   <g id="line2d_55">
    <path d="M 166.427624 298.944 
L 166.427624 298.417314 
L 166.987883 298.417314 
L 166.987883 297.890628 
L 168.637152 297.890628 
L 168.637152 297.363942 
L 168.786245 297.363942 
L 168.786245 296.837256 
L 169.328503 296.837256 
L 169.328503 296.31057 
L 170.615341 296.31057 
L 170.615341 295.783884 
L 170.895139 295.783884 
L 170.895139 295.257197 
L 171.193811 295.257197 
L 171.193811 294.730511 
L 171.2931 294.730511 
L 171.2931 294.203825 
L 172.004852 294.203825 
L 172.004852 293.677139 
L 172.924471 293.677139 
L 172.924471 293.150453 
L 173.404916 293.150453 
L 173.404916 292.623767 
L 173.822502 292.623767 
L 173.822502 292.097081 
L 174.062194 292.097081 
L 174.062194 291.570395 
L 174.16501 291.570395 
L 174.16501 291.043709 
L 174.978913 291.043709 
L 174.978913 290.517023 
L 175.466434 290.517023 
L 175.466434 289.990337 
L 175.5935 289.990337 
L 175.5935 289.463651 
L 176.435942 289.463651 
L 176.435942 288.936964 
L 176.525708 288.936964 
L 176.525708 288.410278 
L 176.72271 288.410278 
L 176.72271 287.883592 
L 177.378886 287.883592 
L 177.378886 287.356906 
L 177.730862 287.356906 
L 177.730862 286.83022 
L 177.951683 286.83022 
L 177.951683 286.303534 
L 178.958624 286.303534 
L 178.958624 285.776848 
L 179.270634 285.776848 
L 179.270634 285.250162 
L 180.104053 285.250162 
L 180.104053 284.723476 
L 180.698917 284.723476 
L 180.698917 284.19679 
L 180.918714 284.19679 
L 180.918714 283.670104 
L 181.583348 283.670104 
L 181.583348 283.143418 
L 181.992593 283.143418 
L 181.992593 282.616732 
L 182.152673 282.616732 
L 182.152673 282.090045 
L 183.56145 282.090045 
L 183.56145 281.563359 
L 183.829795 281.563359 
L 183.829795 281.036673 
L 184.214617 281.036673 
L 184.214617 280.509987 
L 184.228708 280.509987 
L 184.228708 279.983301 
L 185.368293 279.983301 
L 185.368293 279.456615 
L 185.605318 279.456615 
L 185.605318 278.929929 
L 186.262811 278.929929 
L 186.262811 278.403243 
L 186.44443 278.403243 
L 186.44443 277.876557 
L 186.949412 277.876557 
L 186.949412 277.349871 
L 190.48294 277.349871 
L 190.48294 276.823185 
L 196.555724 276.823185 
L 196.555724 276.296499 
L 198.82576 276.296499 
L 198.82576 275.769812 
L 201.671253 275.769812 
L 201.671253 275.243126 
L 201.753947 275.243126 
L 201.753947 274.71644 
L 201.766497 274.71644 
L 201.766497 274.189754 
L 203.409545 274.189754 
L 203.409545 273.663068 
L 204.760742 273.663068 
L 204.760742 273.136382 
L 209.43551 273.136382 
L 209.43551 272.609696 
L 220.722486 272.609696 
L 220.722486 272.08301 
L 226.464175 272.08301 
L 226.464175 270.502952 
L 240.58071 270.502952 
L 240.58071 269.449579 
L 251.141999 269.449579 
L 251.141999 268.922893 
L 268.23999 268.922893 
L 268.23999 268.396207 
L 292.707569 268.396207 
L 292.707569 267.869521 
L 302.086544 267.869521 
L 302.086544 267.342835 
L 338.688 267.342835 
" style="fill:none;stroke:#ff0000;stroke-linecap:square;stroke-width:1.5;"/>
   </g>
   <g id="line2d_56">
    <defs>
     <path d="M 0 -6 
L -5.196152 -3 
L -5.196152 3 
L -0 6 
L 5.196152 3 
L 5.196152 -3 
z
" id="m0780cce8ba" style="stroke:#ff0000;stroke-linejoin:miter;stroke-width:1.5;"/>
    </defs>
    <g>
     <use style="fill-opacity:0;stroke:#ff0000;stroke-linejoin:miter;stroke-width:1.5;" x="268.23999" xlink:href="#m0780cce8ba" y="268.922893"/>
     <use style="fill-opacity:0;stroke:#ff0000;stroke-linejoin:miter;stroke-width:1.5;" x="302.086544" xlink:href="#m0780cce8ba" y="267.342835"/>
     <use style="fill-opacity:0;stroke:#ff0000;stroke-linejoin:miter;stroke-width:1.5;" x="302.086544" xlink:href="#m0780cce8ba" y="267.342835"/>
     <use style="fill-opacity:0;stroke:#ff0000;stroke-linejoin:miter;stroke-width:1.5;" x="338.688" xlink:href="#m0780cce8ba" y="267.342835"/>
    </g>
   </g>
   <g id="line2d_57">
    <path style="fill:none;stroke:#ff0000;stroke-linecap:square;stroke-width:1.5;"/>
    <g/>
   </g>
   <g id="line2d_58">
    <path clip-path="url(#p55f577f762)" d="M 218.221714 272.609696 
" style="fill:none;stroke:#ff0000;stroke-linecap:square;stroke-width:1.5;"/>
    <defs>
     <path d="M -12 12 
L 12 -12 
M -12 -12 
L 12 12 
" id="me0c39a4115" style="stroke:#ff0000;"/>
    </defs>
    <g clip-path="url(#p55f577f762)">
     <use style="fill:#ff0000;stroke:#ff0000;" x="218.221714" xlink:href="#me0c39a4115" y="272.609696"/>
    </g>
   </g>
   <g id="line2d_59">
    <defs>
     <path d="M 0 1.5 
C 0.397805 1.5 0.77937 1.341951 1.06066 1.06066 
C 1.341951 0.77937 1.5 0.397805 1.5 0 
C 1.5 -0.397805 1.341951 -0.77937 1.06066 -1.06066 
C 0.77937 -1.341951 0.397805 -1.5 0 -1.5 
C -0.397805 -1.5 -0.77937 -1.341951 -1.06066 -1.06066 
C -1.341951 -0.77937 -1.5 -0.397805 -1.5 0 
C -1.5 0.397805 -1.341951 0.77937 -1.06066 1.06066 
C -0.77937 1.341951 -0.397805 1.5 0 1.5 
z
" id="ma4b3e30887" style="stroke:#9acd32;"/>
    </defs>
    <g>
     <use style="fill:#9acd32;stroke:#9acd32;" x="274.343761" xlink:href="#ma4b3e30887" y="272.609696"/>
     <use style="fill:#9acd32;stroke:#9acd32;" x="274.343761" xlink:href="#ma4b3e30887" y="272.609696"/>
    </g>
   </g>
   <g id="line2d_60">
    <path d="M 199.22967 298.944 
L 199.22967 298.417314 
L 199.756661 298.417314 
L 199.756661 297.890628 
L 199.796084 297.890628 
L 199.796084 297.363942 
L 200.465299 297.363942 
L 200.465299 296.837256 
L 201.399069 296.837256 
L 201.399069 296.31057 
L 202.682877 296.31057 
L 202.682877 295.783884 
L 202.869768 295.783884 
L 202.869768 295.257197 
L 202.885112 295.257197 
L 202.885112 294.730511 
L 202.949704 294.730511 
L 202.949704 294.203825 
L 203.099978 294.203825 
L 203.099978 293.677139 
L 204.854638 293.677139 
L 204.854638 293.150453 
L 206.325718 293.150453 
L 206.325718 292.623767 
L 206.780105 292.623767 
L 206.780105 292.097081 
L 208.03285 292.097081 
L 208.03285 291.570395 
L 208.277764 291.570395 
L 208.277764 291.043709 
L 209.362189 291.043709 
L 209.362189 290.517023 
L 209.686245 290.517023 
L 209.686245 289.990337 
L 209.938615 289.990337 
L 209.938615 289.463651 
L 210.415338 289.463651 
L 210.415338 288.936964 
L 210.745754 288.936964 
L 210.745754 288.410278 
L 210.897964 288.410278 
L 210.897964 287.883592 
L 210.995626 287.883592 
L 210.995626 287.356906 
L 211.227129 287.356906 
L 211.227129 286.83022 
L 212.578493 286.83022 
L 212.578493 286.303534 
L 212.734938 286.303534 
L 212.734938 285.776848 
L 212.756423 285.776848 
L 212.756423 285.250162 
L 213.913303 285.250162 
L 213.913303 284.723476 
L 214.174457 284.723476 
L 214.174457 284.19679 
L 215.307714 284.19679 
L 215.307714 283.670104 
L 215.553916 283.670104 
L 215.553916 283.143418 
L 216.044533 283.143418 
L 216.044533 282.616732 
L 224.216578 282.616732 
L 224.216578 282.090045 
L 224.895988 282.090045 
L 224.895988 281.563359 
L 225.456646 281.563359 
L 225.456646 280.509987 
L 226.559037 280.509987 
L 226.559037 279.983301 
L 227.029493 279.983301 
L 227.029493 279.456615 
L 227.068284 279.456615 
L 227.068284 278.929929 
L 227.781213 278.929929 
L 227.781213 278.403243 
L 235.226314 278.403243 
L 235.226314 277.876557 
L 242.317329 277.876557 
L 242.317329 276.823185 
L 249.415178 276.823185 
L 249.415178 276.296499 
L 252.016423 276.296499 
L 252.016423 275.769812 
L 256.50406 275.769812 
L 256.50406 275.243126 
L 258.278866 275.243126 
L 258.278866 274.71644 
L 264.174836 274.71644 
L 264.174836 274.189754 
L 264.222054 274.189754 
L 264.222054 273.663068 
L 269.518958 273.663068 
L 269.518958 273.136382 
L 274.343761 273.136382 
L 274.343761 272.609696 
L 338.688 272.609696 
" style="fill:none;stroke:#9acd32;stroke-linecap:square;stroke-width:1.5;"/>
   </g>
   <g id="line2d_61">
    <defs>
     <path d="M 0 -6 
L -6 6 
L 6 6 
z
" id="mb078bd51ef" style="stroke:#9acd32;stroke-linejoin:miter;stroke-width:1.5;"/>
    </defs>
    <g>
     <use style="fill-opacity:0;stroke:#9acd32;stroke-linejoin:miter;stroke-width:1.5;" x="249.415178" xlink:href="#mb078bd51ef" y="276.823185"/>
     <use style="fill-opacity:0;stroke:#9acd32;stroke-linejoin:miter;stroke-width:1.5;" x="274.343761" xlink:href="#mb078bd51ef" y="272.609696"/>
     <use style="fill-opacity:0;stroke:#9acd32;stroke-linejoin:miter;stroke-width:1.5;" x="274.343761" xlink:href="#mb078bd51ef" y="272.609696"/>
     <use style="fill-opacity:0;stroke:#9acd32;stroke-linejoin:miter;stroke-width:1.5;" x="338.688" xlink:href="#mb078bd51ef" y="272.609696"/>
    </g>
   </g>
   <g id="line2d_62">
    <path style="fill:none;stroke:#9acd32;stroke-linecap:square;stroke-width:1.5;"/>
    <g/>
   </g>
   <g id="line2d_63">
    <path clip-path="url(#p55f577f762)" d="M 218.221714 282.616732 
" style="fill:none;stroke:#9acd32;stroke-linecap:square;stroke-width:1.5;"/>
    <defs>
     <path d="M -12 12 
L 12 -12 
M -12 -12 
L 12 12 
" id="m2df92bbede" style="stroke:#9acd32;"/>
    </defs>
    <g clip-path="url(#p55f577f762)">
     <use style="fill:#9acd32;stroke:#9acd32;" x="218.221714" xlink:href="#m2df92bbede" y="282.616732"/>
    </g>
   </g>
   <g id="line2d_64">
    <path d="M 338.688 272.609696 
L 369.60768 293.571802 
" style="fill:none;stroke:#9acd32;stroke-linecap:square;stroke-width:1.5;"/>
    <g>
     <use style="fill-opacity:0;stroke:#9acd32;stroke-linejoin:miter;stroke-width:1.5;" x="338.688" xlink:href="#mb078bd51ef" y="272.609696"/>
     <use style="fill-opacity:0;stroke:#9acd32;stroke-linejoin:miter;stroke-width:1.5;" x="369.60768" xlink:href="#mb078bd51ef" y="293.571802"/>
    </g>
   </g>
   <g id="line2d_65">
    <path d="M 338.688 267.342835 
L 369.60768 250.594218 
" style="fill:none;stroke:#ff0000;stroke-linecap:square;stroke-width:1.5;"/>
    <g>
     <use style="fill-opacity:0;stroke:#ff0000;stroke-linejoin:miter;stroke-width:1.5;" x="338.688" xlink:href="#m0780cce8ba" y="267.342835"/>
     <use style="fill-opacity:0;stroke:#ff0000;stroke-linejoin:miter;stroke-width:1.5;" x="369.60768" xlink:href="#m0780cce8ba" y="250.594218"/>
    </g>
   </g>
   <g id="line2d_66">
    <path d="M 338.688 262.075974 
L 369.60768 207.616634 
" style="fill:none;stroke:#6495ed;stroke-linecap:square;stroke-width:1.5;"/>
    <g>
     <use style="fill-opacity:0;stroke:#6495ed;stroke-linejoin:miter;stroke-width:1.5;" x="338.688" xlink:href="#m05ce9cdb5a" y="262.075974"/>
     <use style="fill-opacity:0;stroke:#6495ed;stroke-linejoin:miter;stroke-width:1.5;" x="369.60768" xlink:href="#m05ce9cdb5a" y="207.616634"/>
    </g>
   </g>
   <g id="line2d_67">
    <path d="M 338.688 235.74167 
L 369.60768 164.63905 
" style="fill:none;stroke:#ff00ff;stroke-linecap:square;stroke-width:1.5;"/>
    <g>
     <use style="fill-opacity:0;stroke:#ff00ff;stroke-linejoin:miter;stroke-width:1.5;" x="338.688" xlink:href="#m501ce28450" y="235.74167"/>
     <use style="fill-opacity:0;stroke:#ff00ff;stroke-linejoin:miter;stroke-width:1.5;" x="369.60768" xlink:href="#m501ce28450" y="164.63905"/>
    </g>
   </g>
   <g id="line2d_68">
    <path d="M 338.688 219.941088 
L 369.60768 121.661465 
" style="fill:none;stroke:#ff7500;stroke-linecap:square;stroke-width:1.5;"/>
    <g>
     <use style="fill-opacity:0;stroke:#ff7500;stroke-linejoin:bevel;stroke-width:1.5;" x="338.688" xlink:href="#m0ddd54cce4" y="219.941088"/>
     <use style="fill-opacity:0;stroke:#ff7500;stroke-linejoin:bevel;stroke-width:1.5;" x="369.60768" xlink:href="#m0ddd54cce4" y="121.661465"/>
    </g>
   </g>
   <g id="line2d_69">
    <path d="M 338.688 119.870733 
L 369.60768 78.683881 
" style="fill:none;stroke:#000080;stroke-linecap:square;stroke-width:1.5;"/>
    <g>
     <use style="fill-opacity:0;stroke:#000080;stroke-width:1.5;" x="338.688" xlink:href="#md283ccb7e9" y="119.870733"/>
     <use style="fill-opacity:0;stroke:#000080;stroke-width:1.5;" x="369.60768" xlink:href="#md283ccb7e9" y="78.683881"/>
    </g>
   </g>
   <g id="line2d_70">
    <path d="M 338.688 298.944 
L 338.688 30.334099 
" style="fill:none;stroke:#000000;stroke-linecap:square;stroke-width:1.5;"/>
   </g>
   <g id="patch_3">
    <path d="M 57.6 298.944 
L 57.6 27.648 
" style="fill:none;stroke:#000000;stroke-linecap:square;stroke-linejoin:miter;stroke-width:0.8;"/>
   </g>
   <g id="patch_4">
    <path d="M 338.688 298.944 
L 338.688 27.648 
" style="fill:none;stroke:#000000;stroke-linecap:square;stroke-linejoin:miter;stroke-width:0.8;"/>
   </g>
   <g id="patch_5">
    <path d="M 57.6 298.944 
L 338.688 298.944 
" style="fill:none;stroke:#000000;stroke-linecap:square;stroke-linejoin:miter;stroke-width:0.8;"/>
   </g>
   <g id="patch_6">
    <path d="M 57.6 27.648 
L 338.688 27.648 
" style="fill:none;stroke:#000000;stroke-linecap:square;stroke-linejoin:miter;stroke-width:0.8;"/>
   </g>
   <g id="text_13">
    <!-- pop100xDI -->
    <g transform="translate(375.22944 298.262739)scale(0.17 -0.17)">
     <defs>
      <path d="M 54.890625 54.6875 
L 35.109375 28.078125 
L 55.90625 0 
L 45.3125 0 
L 29.390625 21.484375 
L 13.484375 0 
L 2.875 0 
L 24.125 28.609375 
L 4.6875 54.6875 
L 15.28125 54.6875 
L 29.78125 35.203125 
L 44.28125 54.6875 
z
" id="DejaVuSans-120"/>
      <path d="M 19.671875 64.796875 
L 19.671875 8.109375 
L 31.59375 8.109375 
Q 46.6875 8.109375 53.6875 14.9375 
Q 60.6875 21.78125 60.6875 36.53125 
Q 60.6875 51.171875 53.6875 57.984375 
Q 46.6875 64.796875 31.59375 64.796875 
z
M 9.8125 72.90625 
L 30.078125 72.90625 
Q 51.265625 72.90625 61.171875 64.09375 
Q 71.09375 55.28125 71.09375 36.53125 
Q 71.09375 17.671875 61.125 8.828125 
Q 51.171875 0 30.078125 0 
L 9.8125 0 
z
" id="DejaVuSans-68"/>
      <path d="M 9.8125 72.90625 
L 19.671875 72.90625 
L 19.671875 0 
L 9.8125 0 
z
" id="DejaVuSans-73"/>
     </defs>
     <use xlink:href="#DejaVuSans-112"/>
     <use x="63.476562" xlink:href="#DejaVuSans-111"/>
     <use x="124.658203" xlink:href="#DejaVuSans-112"/>
     <use x="188.134766" xlink:href="#DejaVuSans-49"/>
     <use x="251.757812" xlink:href="#DejaVuSans-48"/>
     <use x="315.380859" xlink:href="#DejaVuSans-48"/>
     <use x="379.003906" xlink:href="#DejaVuSans-120"/>
     <use x="438.183594" xlink:href="#DejaVuSans-68"/>
     <use x="515.185547" xlink:href="#DejaVuSans-73"/>
    </g>
   </g>
   <g id="text_14">
    <!-- pop200 -->
    <g transform="translate(375.22944 255.285155)scale(0.17 -0.17)">
     <use xlink:href="#DejaVuSans-112"/>
     <use x="63.476562" xlink:href="#DejaVuSans-111"/>
     <use x="124.658203" xlink:href="#DejaVuSans-112"/>
     <use x="188.134766" xlink:href="#DejaVuSans-50"/>
     <use x="251.757812" xlink:href="#DejaVuSans-48"/>
     <use x="315.380859" xlink:href="#DejaVuSans-48"/>
    </g>
   </g>
   <g id="text_15">
    <!-- pop100 -->
    <g transform="translate(375.22944 212.307571)scale(0.17 -0.17)">
     <use xlink:href="#DejaVuSans-112"/>
     <use x="63.476562" xlink:href="#DejaVuSans-111"/>
     <use x="124.658203" xlink:href="#DejaVuSans-112"/>
     <use x="188.134766" xlink:href="#DejaVuSans-49"/>
     <use x="251.757812" xlink:href="#DejaVuSans-48"/>
     <use x="315.380859" xlink:href="#DejaVuSans-48"/>
    </g>
   </g>
   <g id="text_16">
    <!-- pop40 -->
    <g transform="translate(375.22944 169.329987)scale(0.17 -0.17)">
     <use xlink:href="#DejaVuSans-112"/>
     <use x="63.476562" xlink:href="#DejaVuSans-111"/>
     <use x="124.658203" xlink:href="#DejaVuSans-112"/>
     <use x="188.134766" xlink:href="#DejaVuSans-52"/>
     <use x="251.757812" xlink:href="#DejaVuSans-48"/>
    </g>
   </g>
   <g id="text_17">
    <!-- pop50 -->
    <g transform="translate(375.22944 126.352403)scale(0.17 -0.17)">
     <defs>
      <path d="M 10.796875 72.90625 
L 49.515625 72.90625 
L 49.515625 64.59375 
L 19.828125 64.59375 
L 19.828125 46.734375 
Q 21.96875 47.46875 24.109375 47.828125 
Q 26.265625 48.1875 28.421875 48.1875 
Q 40.625 48.1875 47.75 41.5 
Q 54.890625 34.8125 54.890625 23.390625 
Q 54.890625 11.625 47.5625 5.09375 
Q 40.234375 -1.421875 26.90625 -1.421875 
Q 22.3125 -1.421875 17.546875 -0.640625 
Q 12.796875 0.140625 7.71875 1.703125 
L 7.71875 11.625 
Q 12.109375 9.234375 16.796875 8.0625 
Q 21.484375 6.890625 26.703125 6.890625 
Q 35.15625 6.890625 40.078125 11.328125 
Q 45.015625 15.765625 45.015625 23.390625 
Q 45.015625 31 40.078125 35.4375 
Q 35.15625 39.890625 26.703125 39.890625 
Q 22.75 39.890625 18.8125 39.015625 
Q 14.890625 38.140625 10.796875 36.28125 
z
" id="DejaVuSans-53"/>
     </defs>
     <use xlink:href="#DejaVuSans-112"/>
     <use x="63.476562" xlink:href="#DejaVuSans-111"/>
     <use x="124.658203" xlink:href="#DejaVuSans-112"/>
     <use x="188.134766" xlink:href="#DejaVuSans-53"/>
     <use x="251.757812" xlink:href="#DejaVuSans-48"/>
    </g>
   </g>
   <g id="text_18">
    <!-- pop10 -->
    <g transform="translate(375.22944 83.374819)scale(0.17 -0.17)">
     <use xlink:href="#DejaVuSans-112"/>
     <use x="63.476562" xlink:href="#DejaVuSans-111"/>
     <use x="124.658203" xlink:href="#DejaVuSans-112"/>
     <use x="188.134766" xlink:href="#DejaVuSans-49"/>
     <use x="251.757812" xlink:href="#DejaVuSans-48"/>
    </g>
   </g>
   <g id="text_19">
    <!-- best 2009 -->
    <g transform="translate(375.22944 40.397235)scale(0.17 -0.17)">
     <defs>
      <path d="M 48.6875 27.296875 
Q 48.6875 37.203125 44.609375 42.84375 
Q 40.53125 48.484375 33.40625 48.484375 
Q 26.265625 48.484375 22.1875 42.84375 
Q 18.109375 37.203125 18.109375 27.296875 
Q 18.109375 17.390625 22.1875 11.75 
Q 26.265625 6.109375 33.40625 6.109375 
Q 40.53125 6.109375 44.609375 11.75 
Q 48.6875 17.390625 48.6875 27.296875 
z
M 18.109375 46.390625 
Q 20.953125 51.265625 25.265625 53.625 
Q 29.59375 56 35.59375 56 
Q 45.5625 56 51.78125 48.09375 
Q 58.015625 40.1875 58.015625 27.296875 
Q 58.015625 14.40625 51.78125 6.484375 
Q 45.5625 -1.421875 35.59375 -1.421875 
Q 29.59375 -1.421875 25.265625 0.953125 
Q 20.953125 3.328125 18.109375 8.203125 
L 18.109375 0 
L 9.078125 0 
L 9.078125 75.984375 
L 18.109375 75.984375 
z
" id="DejaVuSans-98"/>
      <path d="M 10.984375 1.515625 
L 10.984375 10.5 
Q 14.703125 8.734375 18.5 7.8125 
Q 22.3125 6.890625 25.984375 6.890625 
Q 35.75 6.890625 40.890625 13.453125 
Q 46.046875 20.015625 46.78125 33.40625 
Q 43.953125 29.203125 39.59375 26.953125 
Q 35.25 24.703125 29.984375 24.703125 
Q 19.046875 24.703125 12.671875 31.3125 
Q 6.296875 37.9375 6.296875 49.421875 
Q 6.296875 60.640625 12.9375 67.421875 
Q 19.578125 74.21875 30.609375 74.21875 
Q 43.265625 74.21875 49.921875 64.515625 
Q 56.59375 54.828125 56.59375 36.375 
Q 56.59375 19.140625 48.40625 8.859375 
Q 40.234375 -1.421875 26.421875 -1.421875 
Q 22.703125 -1.421875 18.890625 -0.6875 
Q 15.09375 0.046875 10.984375 1.515625 
z
M 30.609375 32.421875 
Q 37.25 32.421875 41.125 36.953125 
Q 45.015625 41.5 45.015625 49.421875 
Q 45.015625 57.28125 41.125 61.84375 
Q 37.25 66.40625 30.609375 66.40625 
Q 23.96875 66.40625 20.09375 61.84375 
Q 16.21875 57.28125 16.21875 49.421875 
Q 16.21875 41.5 20.09375 36.953125 
Q 23.96875 32.421875 30.609375 32.421875 
z
" id="DejaVuSans-57"/>
     </defs>
     <use xlink:href="#DejaVuSans-98"/>
     <use x="63.476562" xlink:href="#DejaVuSans-101"/>
     <use x="125" xlink:href="#DejaVuSans-115"/>
     <use x="177.099609" xlink:href="#DejaVuSans-116"/>
     <use x="216.308594" xlink:href="#DejaVuSans-32"/>
     <use x="248.095703" xlink:href="#DejaVuSans-50"/>
     <use x="311.71875" xlink:href="#DejaVuSans-48"/>
     <use x="375.341797" xlink:href="#DejaVuSans-48"/>
     <use x="438.964844" xlink:href="#DejaVuSans-57"/>
    </g>
   </g>
   <g id="text_20">
    <!-- bbob f8, 20-D -->
    <g transform="translate(60.41088 38.111366)scale(0.102 -0.102)">
     <use xlink:href="#DejaVuSans-98"/>
     <use x="63.476562" xlink:href="#DejaVuSans-98"/>
     <use x="126.953125" xlink:href="#DejaVuSans-111"/>
     <use x="188.134766" xlink:href="#DejaVuSans-98"/>
     <use x="251.611328" xlink:href="#DejaVuSans-32"/>
     <use x="283.398438" xlink:href="#DejaVuSans-102"/>
     <use x="318.603516" xlink:href="#DejaVuSans-56"/>
     <use x="382.226562" xlink:href="#DejaVuSans-44"/>
     <use x="414.013672" xlink:href="#DejaVuSans-32"/>
     <use x="445.800781" xlink:href="#DejaVuSans-50"/>
     <use x="509.423828" xlink:href="#DejaVuSans-48"/>
     <use x="573.046875" xlink:href="#DejaVuSans-45"/>
     <use x="609.130859" xlink:href="#DejaVuSans-68"/>
    </g>
    <!-- 51 targets: 100..1e-08 -->
    <g transform="translate(60.41088 49.533135)scale(0.102 -0.102)">
     <defs>
      <path d="M 11.71875 12.40625 
L 22.015625 12.40625 
L 22.015625 0 
L 11.71875 0 
z
M 11.71875 51.703125 
L 22.015625 51.703125 
L 22.015625 39.3125 
L 11.71875 39.3125 
z
" id="DejaVuSans-58"/>
     </defs>
     <use xlink:href="#DejaVuSans-53"/>
     <use x="63.623047" xlink:href="#DejaVuSans-49"/>
     <use x="127.246094" xlink:href="#DejaVuSans-32"/>
     <use x="159.033203" xlink:href="#DejaVuSans-116"/>
     <use x="198.242188" xlink:href="#DejaVuSans-97"/>
     <use x="259.521484" xlink:href="#DejaVuSans-114"/>
     <use x="298.884766" xlink:href="#DejaVuSans-103"/>
     <use x="362.361328" xlink:href="#DejaVuSans-101"/>
     <use x="423.884766" xlink:href="#DejaVuSans-116"/>
     <use x="463.09375" xlink:href="#DejaVuSans-115"/>
     <use x="515.193359" xlink:href="#DejaVuSans-58"/>
     <use x="548.884766" xlink:href="#DejaVuSans-32"/>
     <use x="580.671875" xlink:href="#DejaVuSans-49"/>
     <use x="644.294922" xlink:href="#DejaVuSans-48"/>
     <use x="707.917969" xlink:href="#DejaVuSans-48"/>
     <use x="771.541016" xlink:href="#DejaVuSans-46"/>
     <use x="803.328125" xlink:href="#DejaVuSans-46"/>
     <use x="835.115234" xlink:href="#DejaVuSans-49"/>
     <use x="898.738281" xlink:href="#DejaVuSans-101"/>
     <use x="960.261719" xlink:href="#DejaVuSans-45"/>
     <use x="996.345703" xlink:href="#DejaVuSans-48"/>
     <use x="1059.96875" xlink:href="#DejaVuSans-56"/>
    </g>
    <!-- 15 instances -->
    <g transform="translate(60.41088 60.954904)scale(0.102 -0.102)">
     <use xlink:href="#DejaVuSans-49"/>
     <use x="63.623047" xlink:href="#DejaVuSans-53"/>
     <use x="127.246094" xlink:href="#DejaVuSans-32"/>
     <use x="159.033203" xlink:href="#DejaVuSans-105"/>
     <use x="186.816406" xlink:href="#DejaVuSans-110"/>
     <use x="250.195312" xlink:href="#DejaVuSans-115"/>
     <use x="302.294922" xlink:href="#DejaVuSans-116"/>
     <use x="341.503906" xlink:href="#DejaVuSans-97"/>
     <use x="402.783203" xlink:href="#DejaVuSans-110"/>
     <use x="466.162109" xlink:href="#DejaVuSans-99"/>
     <use x="521.142578" xlink:href="#DejaVuSans-101"/>
     <use x="582.666016" xlink:href="#DejaVuSans-115"/>
    </g>
   </g>
   <g id="text_21">
    <!-- v2.4 -->
    <g style="fill:#808080;" transform="translate(187.233062 294.151352)scale(0.1 -0.1)">
     <use xlink:href="#DejaVuSans-118"/>
     <use x="59.179688" xlink:href="#DejaVuSans-50"/>
     <use x="122.802734" xlink:href="#DejaVuSans-46"/>
     <use x="154.589844" xlink:href="#DejaVuSans-52"/>
    </g>
   </g>
   <g id="text_22">
    <!-- 8 Rosenbrock original -->
    <g transform="translate(90.08775 21.648)scale(0.2 -0.2)">
     <defs>
      <path d="M 44.390625 34.1875 
Q 47.5625 33.109375 50.5625 29.59375 
Q 53.5625 26.078125 56.59375 19.921875 
L 66.609375 0 
L 56 0 
L 46.6875 18.703125 
Q 43.0625 26.03125 39.671875 28.421875 
Q 36.28125 30.8125 30.421875 30.8125 
L 19.671875 30.8125 
L 19.671875 0 
L 9.8125 0 
L 9.8125 72.90625 
L 32.078125 72.90625 
Q 44.578125 72.90625 50.734375 67.671875 
Q 56.890625 62.453125 56.890625 51.90625 
Q 56.890625 45.015625 53.6875 40.46875 
Q 50.484375 35.9375 44.390625 34.1875 
z
M 19.671875 64.796875 
L 19.671875 38.921875 
L 32.078125 38.921875 
Q 39.203125 38.921875 42.84375 42.21875 
Q 46.484375 45.515625 46.484375 51.90625 
Q 46.484375 58.296875 42.84375 61.546875 
Q 39.203125 64.796875 32.078125 64.796875 
z
" id="DejaVuSans-82"/>
      <path d="M 9.078125 75.984375 
L 18.109375 75.984375 
L 18.109375 31.109375 
L 44.921875 54.6875 
L 56.390625 54.6875 
L 27.390625 29.109375 
L 57.625 0 
L 45.90625 0 
L 18.109375 26.703125 
L 18.109375 0 
L 9.078125 0 
z
" id="DejaVuSans-107"/>
     </defs>
     <use xlink:href="#DejaVuSans-56"/>
     <use x="63.623047" xlink:href="#DejaVuSans-32"/>
     <use x="95.410156" xlink:href="#DejaVuSans-82"/>
     <use x="160.392578" xlink:href="#DejaVuSans-111"/>
     <use x="221.574219" xlink:href="#DejaVuSans-115"/>
     <use x="273.673828" xlink:href="#DejaVuSans-101"/>
     <use x="335.197266" xlink:href="#DejaVuSans-110"/>
     <use x="398.576172" xlink:href="#DejaVuSans-98"/>
     <use x="462.052734" xlink:href="#DejaVuSans-114"/>
     <use x="500.916016" xlink:href="#DejaVuSans-111"/>
     <use x="562.097656" xlink:href="#DejaVuSans-99"/>
     <use x="617.078125" xlink:href="#DejaVuSans-107"/>
     <use x="674.988281" xlink:href="#DejaVuSans-32"/>
     <use x="706.775391" xlink:href="#DejaVuSans-111"/>
     <use x="767.957031" xlink:href="#DejaVuSans-114"/>
     <use x="809.070312" xlink:href="#DejaVuSans-105"/>
     <use x="836.853516" xlink:href="#DejaVuSans-103"/>
     <use x="900.330078" xlink:href="#DejaVuSans-105"/>
     <use x="928.113281" xlink:href="#DejaVuSans-110"/>
     <use x="991.492188" xlink:href="#DejaVuSans-97"/>
     <use x="1052.771484" xlink:href="#DejaVuSans-108"/>
    </g>
   </g>
  </g>
 </g>
 <defs>
  <clipPath id="p55f577f762">
   <rect height="271.296" width="281.088" x="57.6" y="27.648"/>
  </clipPath>
 </defs>
</svg>
