<?xml version="1.0" encoding="utf-8" standalone="no"?>
<!DOCTYPE svg PUBLIC "-//W3C//DTD SVG 1.1//EN"
  "http://www.w3.org/Graphics/SVG/1.1/DTD/svg11.dtd">
<!-- Created with matplotlib (https://matplotlib.org/) -->
<svg height="345.6pt" version="1.1" viewBox="0 0 460.8 345.6" width="460.8pt" xmlns="http://www.w3.org/2000/svg" xmlns:xlink="http://www.w3.org/1999/xlink">
 <metadata>
  <rdf:RDF xmlns:cc="http://creativecommons.org/ns#" xmlns:dc="http://purl.org/dc/elements/1.1/" xmlns:rdf="http://www.w3.org/1999/02/22-rdf-syntax-ns#">
   <cc:Work>
    <dc:type rdf:resource="http://purl.org/dc/dcmitype/StillImage"/>
    <dc:date>2021-04-18T18:04:44.603123</dc:date>
    <dc:format>image/svg+xml</dc:format>
    <dc:creator>
     <cc:Agent>
      <dc:title>Matplotlib v3.3.4, https://matplotlib.org/</dc:title>
     </cc:Agent>
    </dc:creator>
   </cc:Work>
  </rdf:RDF>
 </metadata>
 <defs>
  <style type="text/css">*{stroke-linecap:butt;stroke-linejoin:round;}</style>
 </defs>
 <g id="figure_1">
  <g id="patch_1">
   <path d="M 0 345.6 
L 460.8 345.6 
L 460.8 0 
L 0 0 
z
" style="fill:#ffffff;"/>
  </g>
  <g id="axes_1">
   <g id="patch_2">
    <path d="M 57.6 298.944 
L 338.688 298.944 
L 338.688 27.648 
L 57.6 27.648 
z
" style="fill:#ffffff;"/>
   </g>
   <g id="line2d_1">
    <path d="M 5.356583 298.944 
L 5.356583 283.143418 
L 39.291857 283.143418 
L 39.291857 277.876557 
L 47.174153 277.876557 
L 47.174153 272.609696 
L 77.609874 272.609696 
L 77.609874 267.342835 
L 105.114708 267.342835 
L 105.114708 262.075974 
L 112.58145 262.075974 
L 112.58145 256.809114 
L 117.202696 256.809114 
L 117.202696 251.542253 
L 122.761498 251.542253 
L 122.761498 246.275392 
L 126.338353 246.275392 
L 126.338353 241.008531 
L 130.65135 241.008531 
L 130.65135 235.74167 
L 142.317805 235.74167 
L 142.317805 230.47481 
L 144.432703 230.47481 
L 144.432703 225.207949 
L 148.686322 225.207949 
L 148.686322 219.941088 
L 150.020631 219.941088 
L 150.020631 214.674227 
L 158.009087 214.674227 
L 158.009087 209.407366 
L 158.705563 209.407366 
L 158.705563 204.140506 
L 160.706018 204.140506 
L 160.706018 198.873645 
L 164.954803 198.873645 
L 164.954803 193.606784 
L 169.506047 193.606784 
L 169.506047 188.339923 
L 175.776416 188.339923 
L 175.776416 183.073062 
L 179.83984 183.073062 
L 179.83984 177.806202 
L 182.180244 177.806202 
L 182.180244 172.539341 
L 183.31797 172.539341 
L 183.31797 167.27248 
L 185.526477 167.27248 
L 185.526477 162.005619 
L 186.362258 162.005619 
L 186.362258 156.738758 
L 186.82796 156.738758 
L 186.82796 151.471897 
L 189.152035 151.471897 
L 189.152035 146.205037 
L 191.764814 146.205037 
L 191.764814 140.938176 
L 192.062389 140.938176 
L 192.062389 135.671315 
L 192.779407 135.671315 
L 192.779407 130.404454 
L 194.662178 130.404454 
L 194.662178 125.137593 
L 195.517548 125.137593 
L 195.517548 119.870733 
L 195.90368 119.870733 
L 195.90368 114.603872 
L 196.111566 114.603872 
L 196.111566 109.337011 
L 196.300767 109.337011 
L 196.300767 104.07015 
L 197.168816 104.07015 
L 197.168816 98.803289 
L 198.855169 98.803289 
L 198.855169 93.536429 
L 198.98046 93.536429 
L 198.98046 88.269568 
L 199.621143 88.269568 
L 199.621143 83.002707 
L 199.842674 83.002707 
L 199.842674 77.735846 
L 200.162415 77.735846 
L 200.162415 72.468985 
L 201.932376 72.468985 
L 201.932376 67.202125 
L 202.12349 67.202125 
L 202.12349 61.935264 
L 202.344852 61.935264 
L 202.344852 56.668403 
L 204.740164 56.668403 
L 204.740164 51.401542 
L 204.851823 51.401542 
L 204.851823 46.134681 
L 204.960907 46.134681 
L 204.960907 40.867821 
L 205.074688 40.867821 
L 205.074688 35.60096 
L 205.161937 35.60096 
L 205.161937 30.334099 
L 338.688 30.334099 
" style="fill:none;stroke:#f5deb3;stroke-linecap:square;stroke-width:4;"/>
   </g>
   <g id="line2d_2">
    <defs>
     <path d="M -0 7.778175 
L 7.778175 0 
L 0 -7.778175 
L -7.778175 -0 
z
" id="m72e121721c" style="stroke:#f5deb3;stroke-linejoin:miter;stroke-width:1.5;"/>
    </defs>
    <g>
     <use style="fill:#f5deb3;stroke:#f5deb3;stroke-linejoin:miter;stroke-width:1.5;" x="144.432703" xlink:href="#m72e121721c" y="230.47481"/>
     <use style="fill:#f5deb3;stroke:#f5deb3;stroke-linejoin:miter;stroke-width:1.5;" x="191.764814" xlink:href="#m72e121721c" y="146.205037"/>
     <use style="fill:#f5deb3;stroke:#f5deb3;stroke-linejoin:miter;stroke-width:1.5;" x="205.161937" xlink:href="#m72e121721c" y="35.60096"/>
     <use style="fill:#f5deb3;stroke:#f5deb3;stroke-linejoin:miter;stroke-width:1.5;" x="205.161937" xlink:href="#m72e121721c" y="30.334099"/>
     <use style="fill:#f5deb3;stroke:#f5deb3;stroke-linejoin:miter;stroke-width:1.5;" x="338.688" xlink:href="#m72e121721c" y="30.334099"/>
    </g>
   </g>
   <g id="line2d_3">
    <path style="fill:none;stroke:#f5deb3;stroke-linecap:square;stroke-width:4;"/>
    <g/>
   </g>
   <g id="line2d_4">
    <path d="M 338.688 30.334099 
L 369.60768 35.706297 
" style="fill:none;stroke:#f5deb3;stroke-linecap:square;stroke-width:4;"/>
    <g>
     <use style="fill:#f5deb3;stroke:#f5deb3;stroke-linejoin:miter;stroke-width:1.5;" x="338.688" xlink:href="#m72e121721c" y="30.334099"/>
     <use style="fill:#f5deb3;stroke:#f5deb3;stroke-linejoin:miter;stroke-width:1.5;" x="369.60768" xlink:href="#m72e121721c" y="35.706297"/>
    </g>
   </g>
   <g id="matplotlib.axis_1">
    <g id="xtick_1">
     <g id="line2d_5">
      <path clip-path="url(#p51ccfa3908)" d="M 57.6 298.944 
L 57.6 27.648 
" style="fill:none;stroke:#b0b0b0;stroke-linecap:square;stroke-width:0.8;"/>
     </g>
     <g id="line2d_6">
      <defs>
       <path d="M 0 0 
L 0 3.5 
" id="m899aa511d4" style="stroke:#000000;stroke-width:0.8;"/>
      </defs>
      <g>
       <use style="stroke:#000000;stroke-width:0.8;" x="57.6" xlink:href="#m899aa511d4" y="298.944"/>
      </g>
     </g>
     <g id="text_1">
      <!-- 0 -->
      <g transform="translate(51.2375 321.140875)scale(0.2 -0.2)">
       <defs>
        <path d="M 31.78125 66.40625 
Q 24.171875 66.40625 20.328125 58.90625 
Q 16.5 51.421875 16.5 36.375 
Q 16.5 21.390625 20.328125 13.890625 
Q 24.171875 6.390625 31.78125 6.390625 
Q 39.453125 6.390625 43.28125 13.890625 
Q 47.125 21.390625 47.125 36.375 
Q 47.125 51.421875 43.28125 58.90625 
Q 39.453125 66.40625 31.78125 66.40625 
z
M 31.78125 74.21875 
Q 44.046875 74.21875 50.515625 64.515625 
Q 56.984375 54.828125 56.984375 36.375 
Q 56.984375 17.96875 50.515625 8.265625 
Q 44.046875 -1.421875 31.78125 -1.421875 
Q 19.53125 -1.421875 13.0625 8.265625 
Q 6.59375 17.96875 6.59375 36.375 
Q 6.59375 54.828125 13.0625 64.515625 
Q 19.53125 74.21875 31.78125 74.21875 
z
" id="DejaVuSans-48"/>
       </defs>
       <use xlink:href="#DejaVuSans-48"/>
      </g>
     </g>
    </g>
    <g id="xtick_2">
     <g id="line2d_7">
      <path clip-path="url(#p51ccfa3908)" d="M 137.910857 298.944 
L 137.910857 27.648 
" style="fill:none;stroke:#b0b0b0;stroke-linecap:square;stroke-width:0.8;"/>
     </g>
     <g id="line2d_8">
      <g>
       <use style="stroke:#000000;stroke-width:0.8;" x="137.910857" xlink:href="#m899aa511d4" y="298.944"/>
      </g>
     </g>
     <g id="text_2">
      <!-- 2 -->
      <g transform="translate(131.548357 321.140875)scale(0.2 -0.2)">
       <defs>
        <path d="M 19.1875 8.296875 
L 53.609375 8.296875 
L 53.609375 0 
L 7.328125 0 
L 7.328125 8.296875 
Q 12.9375 14.109375 22.625 23.890625 
Q 32.328125 33.6875 34.8125 36.53125 
Q 39.546875 41.84375 41.421875 45.53125 
Q 43.3125 49.21875 43.3125 52.78125 
Q 43.3125 58.59375 39.234375 62.25 
Q 35.15625 65.921875 28.609375 65.921875 
Q 23.96875 65.921875 18.8125 64.3125 
Q 13.671875 62.703125 7.8125 59.421875 
L 7.8125 69.390625 
Q 13.765625 71.78125 18.9375 73 
Q 24.125 74.21875 28.421875 74.21875 
Q 39.75 74.21875 46.484375 68.546875 
Q 53.21875 62.890625 53.21875 53.421875 
Q 53.21875 48.921875 51.53125 44.890625 
Q 49.859375 40.875 45.40625 35.40625 
Q 44.1875 33.984375 37.640625 27.21875 
Q 31.109375 20.453125 19.1875 8.296875 
z
" id="DejaVuSans-50"/>
       </defs>
       <use xlink:href="#DejaVuSans-50"/>
      </g>
     </g>
    </g>
    <g id="xtick_3">
     <g id="line2d_9">
      <path clip-path="url(#p51ccfa3908)" d="M 218.221714 298.944 
L 218.221714 27.648 
" style="fill:none;stroke:#b0b0b0;stroke-linecap:square;stroke-width:0.8;"/>
     </g>
     <g id="line2d_10">
      <g>
       <use style="stroke:#000000;stroke-width:0.8;" x="218.221714" xlink:href="#m899aa511d4" y="298.944"/>
      </g>
     </g>
     <g id="text_3">
      <!-- 4 -->
      <g transform="translate(211.859214 321.140875)scale(0.2 -0.2)">
       <defs>
        <path d="M 37.796875 64.3125 
L 12.890625 25.390625 
L 37.796875 25.390625 
z
M 35.203125 72.90625 
L 47.609375 72.90625 
L 47.609375 25.390625 
L 58.015625 25.390625 
L 58.015625 17.1875 
L 47.609375 17.1875 
L 47.609375 0 
L 37.796875 0 
L 37.796875 17.1875 
L 4.890625 17.1875 
L 4.890625 26.703125 
z
" id="DejaVuSans-52"/>
       </defs>
       <use xlink:href="#DejaVuSans-52"/>
      </g>
     </g>
    </g>
    <g id="xtick_4">
     <g id="line2d_11">
      <path clip-path="url(#p51ccfa3908)" d="M 298.532571 298.944 
L 298.532571 27.648 
" style="fill:none;stroke:#b0b0b0;stroke-linecap:square;stroke-width:0.8;"/>
     </g>
     <g id="line2d_12">
      <g>
       <use style="stroke:#000000;stroke-width:0.8;" x="298.532571" xlink:href="#m899aa511d4" y="298.944"/>
      </g>
     </g>
     <g id="text_4">
      <!-- 6 -->
      <g transform="translate(292.170071 321.140875)scale(0.2 -0.2)">
       <defs>
        <path d="M 33.015625 40.375 
Q 26.375 40.375 22.484375 35.828125 
Q 18.609375 31.296875 18.609375 23.390625 
Q 18.609375 15.53125 22.484375 10.953125 
Q 26.375 6.390625 33.015625 6.390625 
Q 39.65625 6.390625 43.53125 10.953125 
Q 47.40625 15.53125 47.40625 23.390625 
Q 47.40625 31.296875 43.53125 35.828125 
Q 39.65625 40.375 33.015625 40.375 
z
M 52.59375 71.296875 
L 52.59375 62.3125 
Q 48.875 64.0625 45.09375 64.984375 
Q 41.3125 65.921875 37.59375 65.921875 
Q 27.828125 65.921875 22.671875 59.328125 
Q 17.53125 52.734375 16.796875 39.40625 
Q 19.671875 43.65625 24.015625 45.921875 
Q 28.375 48.1875 33.59375 48.1875 
Q 44.578125 48.1875 50.953125 41.515625 
Q 57.328125 34.859375 57.328125 23.390625 
Q 57.328125 12.15625 50.6875 5.359375 
Q 44.046875 -1.421875 33.015625 -1.421875 
Q 20.359375 -1.421875 13.671875 8.265625 
Q 6.984375 17.96875 6.984375 36.375 
Q 6.984375 53.65625 15.1875 63.9375 
Q 23.390625 74.21875 37.203125 74.21875 
Q 40.921875 74.21875 44.703125 73.484375 
Q 48.484375 72.75 52.59375 71.296875 
z
" id="DejaVuSans-54"/>
       </defs>
       <use xlink:href="#DejaVuSans-54"/>
      </g>
     </g>
    </g>
    <g id="xtick_5">
     <g id="line2d_13">
      <path clip-path="url(#p51ccfa3908)" d="M 97.755429 298.944 
L 97.755429 27.648 
" style="fill:none;stroke:#b0b0b0;stroke-linecap:square;stroke-width:0.8;"/>
     </g>
     <g id="line2d_14">
      <defs>
       <path d="M 0 0 
L 0 2 
" id="m0b9ea812d9" style="stroke:#000000;stroke-width:0.6;"/>
      </defs>
      <g>
       <use style="stroke:#000000;stroke-width:0.6;" x="97.755429" xlink:href="#m0b9ea812d9" y="298.944"/>
      </g>
     </g>
    </g>
    <g id="xtick_6">
     <g id="line2d_15">
      <path clip-path="url(#p51ccfa3908)" d="M 178.066286 298.944 
L 178.066286 27.648 
" style="fill:none;stroke:#b0b0b0;stroke-linecap:square;stroke-width:0.8;"/>
     </g>
     <g id="line2d_16">
      <g>
       <use style="stroke:#000000;stroke-width:0.6;" x="178.066286" xlink:href="#m0b9ea812d9" y="298.944"/>
      </g>
     </g>
    </g>
    <g id="xtick_7">
     <g id="line2d_17">
      <path clip-path="url(#p51ccfa3908)" d="M 258.377143 298.944 
L 258.377143 27.648 
" style="fill:none;stroke:#b0b0b0;stroke-linecap:square;stroke-width:0.8;"/>
     </g>
     <g id="line2d_18">
      <g>
       <use style="stroke:#000000;stroke-width:0.6;" x="258.377143" xlink:href="#m0b9ea812d9" y="298.944"/>
      </g>
     </g>
    </g>
    <g id="xtick_8">
     <g id="line2d_19">
      <path clip-path="url(#p51ccfa3908)" d="M 338.688 298.944 
L 338.688 27.648 
" style="fill:none;stroke:#b0b0b0;stroke-linecap:square;stroke-width:0.8;"/>
     </g>
     <g id="line2d_20">
      <g>
       <use style="stroke:#000000;stroke-width:0.6;" x="338.688" xlink:href="#m0b9ea812d9" y="298.944"/>
      </g>
     </g>
    </g>
    <g id="text_5">
     <!-- log10(# f-evals / dimension) -->
     <g transform="translate(77.764078 342.217594)scale(0.17 -0.17)">
      <defs>
       <path d="M 9.421875 75.984375 
L 18.40625 75.984375 
L 18.40625 0 
L 9.421875 0 
z
" id="DejaVuSans-108"/>
       <path d="M 30.609375 48.390625 
Q 23.390625 48.390625 19.1875 42.75 
Q 14.984375 37.109375 14.984375 27.296875 
Q 14.984375 17.484375 19.15625 11.84375 
Q 23.34375 6.203125 30.609375 6.203125 
Q 37.796875 6.203125 41.984375 11.859375 
Q 46.1875 17.53125 46.1875 27.296875 
Q 46.1875 37.015625 41.984375 42.703125 
Q 37.796875 48.390625 30.609375 48.390625 
z
M 30.609375 56 
Q 42.328125 56 49.015625 48.375 
Q 55.71875 40.765625 55.71875 27.296875 
Q 55.71875 13.875 49.015625 6.21875 
Q 42.328125 -1.421875 30.609375 -1.421875 
Q 18.84375 -1.421875 12.171875 6.21875 
Q 5.515625 13.875 5.515625 27.296875 
Q 5.515625 40.765625 12.171875 48.375 
Q 18.84375 56 30.609375 56 
z
" id="DejaVuSans-111"/>
       <path d="M 45.40625 27.984375 
Q 45.40625 37.75 41.375 43.109375 
Q 37.359375 48.484375 30.078125 48.484375 
Q 22.859375 48.484375 18.828125 43.109375 
Q 14.796875 37.75 14.796875 27.984375 
Q 14.796875 18.265625 18.828125 12.890625 
Q 22.859375 7.515625 30.078125 7.515625 
Q 37.359375 7.515625 41.375 12.890625 
Q 45.40625 18.265625 45.40625 27.984375 
z
M 54.390625 6.78125 
Q 54.390625 -7.171875 48.1875 -13.984375 
Q 42 -20.796875 29.203125 -20.796875 
Q 24.46875 -20.796875 20.265625 -20.09375 
Q 16.0625 -19.390625 12.109375 -17.921875 
L 12.109375 -9.1875 
Q 16.0625 -11.328125 19.921875 -12.34375 
Q 23.78125 -13.375 27.78125 -13.375 
Q 36.625 -13.375 41.015625 -8.765625 
Q 45.40625 -4.15625 45.40625 5.171875 
L 45.40625 9.625 
Q 42.625 4.78125 38.28125 2.390625 
Q 33.9375 0 27.875 0 
Q 17.828125 0 11.671875 7.65625 
Q 5.515625 15.328125 5.515625 27.984375 
Q 5.515625 40.671875 11.671875 48.328125 
Q 17.828125 56 27.875 56 
Q 33.9375 56 38.28125 53.609375 
Q 42.625 51.21875 45.40625 46.390625 
L 45.40625 54.6875 
L 54.390625 54.6875 
z
" id="DejaVuSans-103"/>
       <path d="M 12.40625 8.296875 
L 28.515625 8.296875 
L 28.515625 63.921875 
L 10.984375 60.40625 
L 10.984375 69.390625 
L 28.421875 72.90625 
L 38.28125 72.90625 
L 38.28125 8.296875 
L 54.390625 8.296875 
L 54.390625 0 
L 12.40625 0 
z
" id="DejaVuSans-49"/>
       <path d="M 31 75.875 
Q 24.46875 64.65625 21.28125 53.65625 
Q 18.109375 42.671875 18.109375 31.390625 
Q 18.109375 20.125 21.3125 9.0625 
Q 24.515625 -2 31 -13.1875 
L 23.1875 -13.1875 
Q 15.875 -1.703125 12.234375 9.375 
Q 8.59375 20.453125 8.59375 31.390625 
Q 8.59375 42.28125 12.203125 53.3125 
Q 15.828125 64.359375 23.1875 75.875 
z
" id="DejaVuSans-40"/>
       <path d="M 51.125 44 
L 36.921875 44 
L 32.8125 27.6875 
L 47.125 27.6875 
z
M 43.796875 71.78125 
L 38.71875 51.515625 
L 52.984375 51.515625 
L 58.109375 71.78125 
L 65.921875 71.78125 
L 60.890625 51.515625 
L 76.125 51.515625 
L 76.125 44 
L 58.984375 44 
L 54.984375 27.6875 
L 70.515625 27.6875 
L 70.515625 20.21875 
L 53.078125 20.21875 
L 48 0 
L 40.1875 0 
L 45.21875 20.21875 
L 30.90625 20.21875 
L 25.875 0 
L 18.015625 0 
L 23.09375 20.21875 
L 7.71875 20.21875 
L 7.71875 27.6875 
L 24.90625 27.6875 
L 29 44 
L 13.28125 44 
L 13.28125 51.515625 
L 30.90625 51.515625 
L 35.890625 71.78125 
z
" id="DejaVuSans-35"/>
       <path id="DejaVuSans-32"/>
       <path d="M 37.109375 75.984375 
L 37.109375 68.5 
L 28.515625 68.5 
Q 23.6875 68.5 21.796875 66.546875 
Q 19.921875 64.59375 19.921875 59.515625 
L 19.921875 54.6875 
L 34.71875 54.6875 
L 34.71875 47.703125 
L 19.921875 47.703125 
L 19.921875 0 
L 10.890625 0 
L 10.890625 47.703125 
L 2.296875 47.703125 
L 2.296875 54.6875 
L 10.890625 54.6875 
L 10.890625 58.5 
Q 10.890625 67.625 15.140625 71.796875 
Q 19.390625 75.984375 28.609375 75.984375 
z
" id="DejaVuSans-102"/>
       <path d="M 4.890625 31.390625 
L 31.203125 31.390625 
L 31.203125 23.390625 
L 4.890625 23.390625 
z
" id="DejaVuSans-45"/>
       <path d="M 56.203125 29.59375 
L 56.203125 25.203125 
L 14.890625 25.203125 
Q 15.484375 15.921875 20.484375 11.0625 
Q 25.484375 6.203125 34.421875 6.203125 
Q 39.59375 6.203125 44.453125 7.46875 
Q 49.3125 8.734375 54.109375 11.28125 
L 54.109375 2.78125 
Q 49.265625 0.734375 44.1875 -0.34375 
Q 39.109375 -1.421875 33.890625 -1.421875 
Q 20.796875 -1.421875 13.15625 6.1875 
Q 5.515625 13.8125 5.515625 26.8125 
Q 5.515625 40.234375 12.765625 48.109375 
Q 20.015625 56 32.328125 56 
Q 43.359375 56 49.78125 48.890625 
Q 56.203125 41.796875 56.203125 29.59375 
z
M 47.21875 32.234375 
Q 47.125 39.59375 43.09375 43.984375 
Q 39.0625 48.390625 32.421875 48.390625 
Q 24.90625 48.390625 20.390625 44.140625 
Q 15.875 39.890625 15.1875 32.171875 
z
" id="DejaVuSans-101"/>
       <path d="M 2.984375 54.6875 
L 12.5 54.6875 
L 29.59375 8.796875 
L 46.6875 54.6875 
L 56.203125 54.6875 
L 35.6875 0 
L 23.484375 0 
z
" id="DejaVuSans-118"/>
       <path d="M 34.28125 27.484375 
Q 23.390625 27.484375 19.1875 25 
Q 14.984375 22.515625 14.984375 16.5 
Q 14.984375 11.71875 18.140625 8.90625 
Q 21.296875 6.109375 26.703125 6.109375 
Q 34.1875 6.109375 38.703125 11.40625 
Q 43.21875 16.703125 43.21875 25.484375 
L 43.21875 27.484375 
z
M 52.203125 31.203125 
L 52.203125 0 
L 43.21875 0 
L 43.21875 8.296875 
Q 40.140625 3.328125 35.546875 0.953125 
Q 30.953125 -1.421875 24.3125 -1.421875 
Q 15.921875 -1.421875 10.953125 3.296875 
Q 6 8.015625 6 15.921875 
Q 6 25.140625 12.171875 29.828125 
Q 18.359375 34.515625 30.609375 34.515625 
L 43.21875 34.515625 
L 43.21875 35.40625 
Q 43.21875 41.609375 39.140625 45 
Q 35.0625 48.390625 27.6875 48.390625 
Q 23 48.390625 18.546875 47.265625 
Q 14.109375 46.140625 10.015625 43.890625 
L 10.015625 52.203125 
Q 14.9375 54.109375 19.578125 55.046875 
Q 24.21875 56 28.609375 56 
Q 40.484375 56 46.34375 49.84375 
Q 52.203125 43.703125 52.203125 31.203125 
z
" id="DejaVuSans-97"/>
       <path d="M 44.28125 53.078125 
L 44.28125 44.578125 
Q 40.484375 46.53125 36.375 47.5 
Q 32.28125 48.484375 27.875 48.484375 
Q 21.1875 48.484375 17.84375 46.4375 
Q 14.5 44.390625 14.5 40.28125 
Q 14.5 37.15625 16.890625 35.375 
Q 19.28125 33.59375 26.515625 31.984375 
L 29.59375 31.296875 
Q 39.15625 29.25 43.1875 25.515625 
Q 47.21875 21.78125 47.21875 15.09375 
Q 47.21875 7.46875 41.1875 3.015625 
Q 35.15625 -1.421875 24.609375 -1.421875 
Q 20.21875 -1.421875 15.453125 -0.5625 
Q 10.6875 0.296875 5.421875 2 
L 5.421875 11.28125 
Q 10.40625 8.6875 15.234375 7.390625 
Q 20.0625 6.109375 24.8125 6.109375 
Q 31.15625 6.109375 34.5625 8.28125 
Q 37.984375 10.453125 37.984375 14.40625 
Q 37.984375 18.0625 35.515625 20.015625 
Q 33.0625 21.96875 24.703125 23.78125 
L 21.578125 24.515625 
Q 13.234375 26.265625 9.515625 29.90625 
Q 5.8125 33.546875 5.8125 39.890625 
Q 5.8125 47.609375 11.28125 51.796875 
Q 16.75 56 26.8125 56 
Q 31.78125 56 36.171875 55.265625 
Q 40.578125 54.546875 44.28125 53.078125 
z
" id="DejaVuSans-115"/>
       <path d="M 25.390625 72.90625 
L 33.6875 72.90625 
L 8.296875 -9.28125 
L 0 -9.28125 
z
" id="DejaVuSans-47"/>
       <path d="M 45.40625 46.390625 
L 45.40625 75.984375 
L 54.390625 75.984375 
L 54.390625 0 
L 45.40625 0 
L 45.40625 8.203125 
Q 42.578125 3.328125 38.25 0.953125 
Q 33.9375 -1.421875 27.875 -1.421875 
Q 17.96875 -1.421875 11.734375 6.484375 
Q 5.515625 14.40625 5.515625 27.296875 
Q 5.515625 40.1875 11.734375 48.09375 
Q 17.96875 56 27.875 56 
Q 33.9375 56 38.25 53.625 
Q 42.578125 51.265625 45.40625 46.390625 
z
M 14.796875 27.296875 
Q 14.796875 17.390625 18.875 11.75 
Q 22.953125 6.109375 30.078125 6.109375 
Q 37.203125 6.109375 41.296875 11.75 
Q 45.40625 17.390625 45.40625 27.296875 
Q 45.40625 37.203125 41.296875 42.84375 
Q 37.203125 48.484375 30.078125 48.484375 
Q 22.953125 48.484375 18.875 42.84375 
Q 14.796875 37.203125 14.796875 27.296875 
z
" id="DejaVuSans-100"/>
       <path d="M 9.421875 54.6875 
L 18.40625 54.6875 
L 18.40625 0 
L 9.421875 0 
z
M 9.421875 75.984375 
L 18.40625 75.984375 
L 18.40625 64.59375 
L 9.421875 64.59375 
z
" id="DejaVuSans-105"/>
       <path d="M 52 44.1875 
Q 55.375 50.25 60.0625 53.125 
Q 64.75 56 71.09375 56 
Q 79.640625 56 84.28125 50.015625 
Q 88.921875 44.046875 88.921875 33.015625 
L 88.921875 0 
L 79.890625 0 
L 79.890625 32.71875 
Q 79.890625 40.578125 77.09375 44.375 
Q 74.3125 48.1875 68.609375 48.1875 
Q 61.625 48.1875 57.5625 43.546875 
Q 53.515625 38.921875 53.515625 30.90625 
L 53.515625 0 
L 44.484375 0 
L 44.484375 32.71875 
Q 44.484375 40.625 41.703125 44.40625 
Q 38.921875 48.1875 33.109375 48.1875 
Q 26.21875 48.1875 22.15625 43.53125 
Q 18.109375 38.875 18.109375 30.90625 
L 18.109375 0 
L 9.078125 0 
L 9.078125 54.6875 
L 18.109375 54.6875 
L 18.109375 46.1875 
Q 21.1875 51.21875 25.484375 53.609375 
Q 29.78125 56 35.6875 56 
Q 41.65625 56 45.828125 52.96875 
Q 50 49.953125 52 44.1875 
z
" id="DejaVuSans-109"/>
       <path d="M 54.890625 33.015625 
L 54.890625 0 
L 45.90625 0 
L 45.90625 32.71875 
Q 45.90625 40.484375 42.875 44.328125 
Q 39.84375 48.1875 33.796875 48.1875 
Q 26.515625 48.1875 22.3125 43.546875 
Q 18.109375 38.921875 18.109375 30.90625 
L 18.109375 0 
L 9.078125 0 
L 9.078125 54.6875 
L 18.109375 54.6875 
L 18.109375 46.1875 
Q 21.34375 51.125 25.703125 53.5625 
Q 30.078125 56 35.796875 56 
Q 45.21875 56 50.046875 50.171875 
Q 54.890625 44.34375 54.890625 33.015625 
z
" id="DejaVuSans-110"/>
       <path d="M 8.015625 75.875 
L 15.828125 75.875 
Q 23.140625 64.359375 26.78125 53.3125 
Q 30.421875 42.28125 30.421875 31.390625 
Q 30.421875 20.453125 26.78125 9.375 
Q 23.140625 -1.703125 15.828125 -13.1875 
L 8.015625 -13.1875 
Q 14.5 -2 17.703125 9.0625 
Q 20.90625 20.125 20.90625 31.390625 
Q 20.90625 42.671875 17.703125 53.65625 
Q 14.5 64.65625 8.015625 75.875 
z
" id="DejaVuSans-41"/>
      </defs>
      <use xlink:href="#DejaVuSans-108"/>
      <use x="27.783203" xlink:href="#DejaVuSans-111"/>
      <use x="88.964844" xlink:href="#DejaVuSans-103"/>
      <use x="152.441406" xlink:href="#DejaVuSans-49"/>
      <use x="216.064453" xlink:href="#DejaVuSans-48"/>
      <use x="279.6875" xlink:href="#DejaVuSans-40"/>
      <use x="318.701172" xlink:href="#DejaVuSans-35"/>
      <use x="402.490234" xlink:href="#DejaVuSans-32"/>
      <use x="434.277344" xlink:href="#DejaVuSans-102"/>
      <use x="463.982422" xlink:href="#DejaVuSans-45"/>
      <use x="500.066406" xlink:href="#DejaVuSans-101"/>
      <use x="561.589844" xlink:href="#DejaVuSans-118"/>
      <use x="620.769531" xlink:href="#DejaVuSans-97"/>
      <use x="682.048828" xlink:href="#DejaVuSans-108"/>
      <use x="709.832031" xlink:href="#DejaVuSans-115"/>
      <use x="761.931641" xlink:href="#DejaVuSans-32"/>
      <use x="793.71875" xlink:href="#DejaVuSans-47"/>
      <use x="827.410156" xlink:href="#DejaVuSans-32"/>
      <use x="859.197266" xlink:href="#DejaVuSans-100"/>
      <use x="922.673828" xlink:href="#DejaVuSans-105"/>
      <use x="950.457031" xlink:href="#DejaVuSans-109"/>
      <use x="1047.869141" xlink:href="#DejaVuSans-101"/>
      <use x="1109.392578" xlink:href="#DejaVuSans-110"/>
      <use x="1172.771484" xlink:href="#DejaVuSans-115"/>
      <use x="1224.871094" xlink:href="#DejaVuSans-105"/>
      <use x="1252.654297" xlink:href="#DejaVuSans-111"/>
      <use x="1313.835938" xlink:href="#DejaVuSans-110"/>
      <use x="1377.214844" xlink:href="#DejaVuSans-41"/>
     </g>
    </g>
   </g>
   <g id="matplotlib.axis_2">
    <g id="ytick_1">
     <g id="line2d_21">
      <path clip-path="url(#p51ccfa3908)" d="M 57.6 298.944 
L 338.688 298.944 
" style="fill:none;stroke:#b0b0b0;stroke-linecap:square;stroke-width:0.8;"/>
     </g>
     <g id="line2d_22">
      <defs>
       <path d="M 0 0 
L -3.5 0 
" id="m8fc18e5269" style="stroke:#000000;stroke-width:0.8;"/>
      </defs>
      <g>
       <use style="stroke:#000000;stroke-width:0.8;" x="57.6" xlink:href="#m8fc18e5269" y="298.944"/>
      </g>
     </g>
     <g id="text_6">
      <!-- 0.0 -->
      <g transform="translate(25.155 305.02275)scale(0.16 -0.16)">
       <defs>
        <path d="M 10.6875 12.40625 
L 21 12.40625 
L 21 0 
L 10.6875 0 
z
" id="DejaVuSans-46"/>
       </defs>
       <use xlink:href="#DejaVuSans-48"/>
       <use x="63.623047" xlink:href="#DejaVuSans-46"/>
       <use x="95.410156" xlink:href="#DejaVuSans-48"/>
      </g>
     </g>
    </g>
    <g id="ytick_2">
     <g id="line2d_23">
      <path clip-path="url(#p51ccfa3908)" d="M 57.6 245.22202 
L 338.688 245.22202 
" style="fill:none;stroke:#b0b0b0;stroke-linecap:square;stroke-width:0.8;"/>
     </g>
     <g id="line2d_24">
      <g>
       <use style="stroke:#000000;stroke-width:0.8;" x="57.6" xlink:href="#m8fc18e5269" y="245.22202"/>
      </g>
     </g>
     <g id="text_7">
      <!-- 0.2 -->
      <g transform="translate(25.155 251.30077)scale(0.16 -0.16)">
       <use xlink:href="#DejaVuSans-48"/>
       <use x="63.623047" xlink:href="#DejaVuSans-46"/>
       <use x="95.410156" xlink:href="#DejaVuSans-50"/>
      </g>
     </g>
    </g>
    <g id="ytick_3">
     <g id="line2d_25">
      <path clip-path="url(#p51ccfa3908)" d="M 57.6 191.50004 
L 338.688 191.50004 
" style="fill:none;stroke:#b0b0b0;stroke-linecap:square;stroke-width:0.8;"/>
     </g>
     <g id="line2d_26">
      <g>
       <use style="stroke:#000000;stroke-width:0.8;" x="57.6" xlink:href="#m8fc18e5269" y="191.50004"/>
      </g>
     </g>
     <g id="text_8">
      <!-- 0.4 -->
      <g transform="translate(25.155 197.57879)scale(0.16 -0.16)">
       <use xlink:href="#DejaVuSans-48"/>
       <use x="63.623047" xlink:href="#DejaVuSans-46"/>
       <use x="95.410156" xlink:href="#DejaVuSans-52"/>
      </g>
     </g>
    </g>
    <g id="ytick_4">
     <g id="line2d_27">
      <path clip-path="url(#p51ccfa3908)" d="M 57.6 137.778059 
L 338.688 137.778059 
" style="fill:none;stroke:#b0b0b0;stroke-linecap:square;stroke-width:0.8;"/>
     </g>
     <g id="line2d_28">
      <g>
       <use style="stroke:#000000;stroke-width:0.8;" x="57.6" xlink:href="#m8fc18e5269" y="137.778059"/>
      </g>
     </g>
     <g id="text_9">
      <!-- 0.6 -->
      <g transform="translate(25.155 143.856809)scale(0.16 -0.16)">
       <use xlink:href="#DejaVuSans-48"/>
       <use x="63.623047" xlink:href="#DejaVuSans-46"/>
       <use x="95.410156" xlink:href="#DejaVuSans-54"/>
      </g>
     </g>
    </g>
    <g id="ytick_5">
     <g id="line2d_29">
      <path clip-path="url(#p51ccfa3908)" d="M 57.6 84.056079 
L 338.688 84.056079 
" style="fill:none;stroke:#b0b0b0;stroke-linecap:square;stroke-width:0.8;"/>
     </g>
     <g id="line2d_30">
      <g>
       <use style="stroke:#000000;stroke-width:0.8;" x="57.6" xlink:href="#m8fc18e5269" y="84.056079"/>
      </g>
     </g>
     <g id="text_10">
      <!-- 0.8 -->
      <g transform="translate(25.155 90.134829)scale(0.16 -0.16)">
       <defs>
        <path d="M 31.78125 34.625 
Q 24.75 34.625 20.71875 30.859375 
Q 16.703125 27.09375 16.703125 20.515625 
Q 16.703125 13.921875 20.71875 10.15625 
Q 24.75 6.390625 31.78125 6.390625 
Q 38.8125 6.390625 42.859375 10.171875 
Q 46.921875 13.96875 46.921875 20.515625 
Q 46.921875 27.09375 42.890625 30.859375 
Q 38.875 34.625 31.78125 34.625 
z
M 21.921875 38.8125 
Q 15.578125 40.375 12.03125 44.71875 
Q 8.5 49.078125 8.5 55.328125 
Q 8.5 64.0625 14.71875 69.140625 
Q 20.953125 74.21875 31.78125 74.21875 
Q 42.671875 74.21875 48.875 69.140625 
Q 55.078125 64.0625 55.078125 55.328125 
Q 55.078125 49.078125 51.53125 44.71875 
Q 48 40.375 41.703125 38.8125 
Q 48.828125 37.15625 52.796875 32.3125 
Q 56.78125 27.484375 56.78125 20.515625 
Q 56.78125 9.90625 50.3125 4.234375 
Q 43.84375 -1.421875 31.78125 -1.421875 
Q 19.734375 -1.421875 13.25 4.234375 
Q 6.78125 9.90625 6.78125 20.515625 
Q 6.78125 27.484375 10.78125 32.3125 
Q 14.796875 37.15625 21.921875 38.8125 
z
M 18.3125 54.390625 
Q 18.3125 48.734375 21.84375 45.5625 
Q 25.390625 42.390625 31.78125 42.390625 
Q 38.140625 42.390625 41.71875 45.5625 
Q 45.3125 48.734375 45.3125 54.390625 
Q 45.3125 60.0625 41.71875 63.234375 
Q 38.140625 66.40625 31.78125 66.40625 
Q 25.390625 66.40625 21.84375 63.234375 
Q 18.3125 60.0625 18.3125 54.390625 
z
" id="DejaVuSans-56"/>
       </defs>
       <use xlink:href="#DejaVuSans-48"/>
       <use x="63.623047" xlink:href="#DejaVuSans-46"/>
       <use x="95.410156" xlink:href="#DejaVuSans-56"/>
      </g>
     </g>
    </g>
    <g id="ytick_6">
     <g id="line2d_31">
      <path clip-path="url(#p51ccfa3908)" d="M 57.6 30.334099 
L 338.688 30.334099 
" style="fill:none;stroke:#b0b0b0;stroke-linecap:square;stroke-width:0.8;"/>
     </g>
     <g id="line2d_32">
      <g>
       <use style="stroke:#000000;stroke-width:0.8;" x="57.6" xlink:href="#m8fc18e5269" y="30.334099"/>
      </g>
     </g>
     <g id="text_11">
      <!-- 1.0 -->
      <g transform="translate(25.155 36.412849)scale(0.16 -0.16)">
       <use xlink:href="#DejaVuSans-49"/>
       <use x="63.623047" xlink:href="#DejaVuSans-46"/>
       <use x="95.410156" xlink:href="#DejaVuSans-48"/>
      </g>
     </g>
    </g>
    <g id="text_12">
     <!-- Fraction of function,target pairs -->
     <g transform="translate(17.619531 297.681)rotate(-90)scale(0.17 -0.17)">
      <defs>
       <path d="M 9.8125 72.90625 
L 51.703125 72.90625 
L 51.703125 64.59375 
L 19.671875 64.59375 
L 19.671875 43.109375 
L 48.578125 43.109375 
L 48.578125 34.8125 
L 19.671875 34.8125 
L 19.671875 0 
L 9.8125 0 
z
" id="DejaVuSans-70"/>
       <path d="M 41.109375 46.296875 
Q 39.59375 47.171875 37.8125 47.578125 
Q 36.03125 48 33.890625 48 
Q 26.265625 48 22.1875 43.046875 
Q 18.109375 38.09375 18.109375 28.8125 
L 18.109375 0 
L 9.078125 0 
L 9.078125 54.6875 
L 18.109375 54.6875 
L 18.109375 46.1875 
Q 20.953125 51.171875 25.484375 53.578125 
Q 30.03125 56 36.53125 56 
Q 37.453125 56 38.578125 55.875 
Q 39.703125 55.765625 41.0625 55.515625 
z
" id="DejaVuSans-114"/>
       <path d="M 48.78125 52.59375 
L 48.78125 44.1875 
Q 44.96875 46.296875 41.140625 47.34375 
Q 37.3125 48.390625 33.40625 48.390625 
Q 24.65625 48.390625 19.8125 42.84375 
Q 14.984375 37.3125 14.984375 27.296875 
Q 14.984375 17.28125 19.8125 11.734375 
Q 24.65625 6.203125 33.40625 6.203125 
Q 37.3125 6.203125 41.140625 7.25 
Q 44.96875 8.296875 48.78125 10.40625 
L 48.78125 2.09375 
Q 45.015625 0.34375 40.984375 -0.53125 
Q 36.96875 -1.421875 32.421875 -1.421875 
Q 20.0625 -1.421875 12.78125 6.34375 
Q 5.515625 14.109375 5.515625 27.296875 
Q 5.515625 40.671875 12.859375 48.328125 
Q 20.21875 56 33.015625 56 
Q 37.15625 56 41.109375 55.140625 
Q 45.0625 54.296875 48.78125 52.59375 
z
" id="DejaVuSans-99"/>
       <path d="M 18.3125 70.21875 
L 18.3125 54.6875 
L 36.8125 54.6875 
L 36.8125 47.703125 
L 18.3125 47.703125 
L 18.3125 18.015625 
Q 18.3125 11.328125 20.140625 9.421875 
Q 21.96875 7.515625 27.59375 7.515625 
L 36.8125 7.515625 
L 36.8125 0 
L 27.59375 0 
Q 17.1875 0 13.234375 3.875 
Q 9.28125 7.765625 9.28125 18.015625 
L 9.28125 47.703125 
L 2.6875 47.703125 
L 2.6875 54.6875 
L 9.28125 54.6875 
L 9.28125 70.21875 
z
" id="DejaVuSans-116"/>
       <path d="M 8.5 21.578125 
L 8.5 54.6875 
L 17.484375 54.6875 
L 17.484375 21.921875 
Q 17.484375 14.15625 20.5 10.265625 
Q 23.53125 6.390625 29.59375 6.390625 
Q 36.859375 6.390625 41.078125 11.03125 
Q 45.3125 15.671875 45.3125 23.6875 
L 45.3125 54.6875 
L 54.296875 54.6875 
L 54.296875 0 
L 45.3125 0 
L 45.3125 8.40625 
Q 42.046875 3.421875 37.71875 1 
Q 33.40625 -1.421875 27.6875 -1.421875 
Q 18.265625 -1.421875 13.375 4.4375 
Q 8.5 10.296875 8.5 21.578125 
z
M 31.109375 56 
z
" id="DejaVuSans-117"/>
       <path d="M 11.71875 12.40625 
L 22.015625 12.40625 
L 22.015625 4 
L 14.015625 -11.625 
L 7.71875 -11.625 
L 11.71875 4 
z
" id="DejaVuSans-44"/>
       <path d="M 18.109375 8.203125 
L 18.109375 -20.796875 
L 9.078125 -20.796875 
L 9.078125 54.6875 
L 18.109375 54.6875 
L 18.109375 46.390625 
Q 20.953125 51.265625 25.265625 53.625 
Q 29.59375 56 35.59375 56 
Q 45.5625 56 51.78125 48.09375 
Q 58.015625 40.1875 58.015625 27.296875 
Q 58.015625 14.40625 51.78125 6.484375 
Q 45.5625 -1.421875 35.59375 -1.421875 
Q 29.59375 -1.421875 25.265625 0.953125 
Q 20.953125 3.328125 18.109375 8.203125 
z
M 48.6875 27.296875 
Q 48.6875 37.203125 44.609375 42.84375 
Q 40.53125 48.484375 33.40625 48.484375 
Q 26.265625 48.484375 22.1875 42.84375 
Q 18.109375 37.203125 18.109375 27.296875 
Q 18.109375 17.390625 22.1875 11.75 
Q 26.265625 6.109375 33.40625 6.109375 
Q 40.53125 6.109375 44.609375 11.75 
Q 48.6875 17.390625 48.6875 27.296875 
z
" id="DejaVuSans-112"/>
      </defs>
      <use xlink:href="#DejaVuSans-70"/>
      <use x="50.269531" xlink:href="#DejaVuSans-114"/>
      <use x="91.382812" xlink:href="#DejaVuSans-97"/>
      <use x="152.662109" xlink:href="#DejaVuSans-99"/>
      <use x="207.642578" xlink:href="#DejaVuSans-116"/>
      <use x="246.851562" xlink:href="#DejaVuSans-105"/>
      <use x="274.634766" xlink:href="#DejaVuSans-111"/>
      <use x="335.816406" xlink:href="#DejaVuSans-110"/>
      <use x="399.195312" xlink:href="#DejaVuSans-32"/>
      <use x="430.982422" xlink:href="#DejaVuSans-111"/>
      <use x="492.164062" xlink:href="#DejaVuSans-102"/>
      <use x="527.369141" xlink:href="#DejaVuSans-32"/>
      <use x="559.15625" xlink:href="#DejaVuSans-102"/>
      <use x="594.361328" xlink:href="#DejaVuSans-117"/>
      <use x="657.740234" xlink:href="#DejaVuSans-110"/>
      <use x="721.119141" xlink:href="#DejaVuSans-99"/>
      <use x="776.099609" xlink:href="#DejaVuSans-116"/>
      <use x="815.308594" xlink:href="#DejaVuSans-105"/>
      <use x="843.091797" xlink:href="#DejaVuSans-111"/>
      <use x="904.273438" xlink:href="#DejaVuSans-110"/>
      <use x="967.652344" xlink:href="#DejaVuSans-44"/>
      <use x="999.439453" xlink:href="#DejaVuSans-116"/>
      <use x="1038.648438" xlink:href="#DejaVuSans-97"/>
      <use x="1099.927734" xlink:href="#DejaVuSans-114"/>
      <use x="1139.291016" xlink:href="#DejaVuSans-103"/>
      <use x="1202.767578" xlink:href="#DejaVuSans-101"/>
      <use x="1264.291016" xlink:href="#DejaVuSans-116"/>
      <use x="1303.5" xlink:href="#DejaVuSans-32"/>
      <use x="1335.287109" xlink:href="#DejaVuSans-112"/>
      <use x="1398.763672" xlink:href="#DejaVuSans-97"/>
      <use x="1460.042969" xlink:href="#DejaVuSans-105"/>
      <use x="1487.826172" xlink:href="#DejaVuSans-114"/>
      <use x="1528.939453" xlink:href="#DejaVuSans-115"/>
     </g>
    </g>
   </g>
   <g id="line2d_33">
    <defs>
     <path d="M 0 1.5 
C 0.397805 1.5 0.77937 1.341951 1.06066 1.06066 
C 1.341951 0.77937 1.5 0.397805 1.5 0 
C 1.5 -0.397805 1.341951 -0.77937 1.06066 -1.06066 
C 0.77937 -1.341951 0.397805 -1.5 0 -1.5 
C -0.397805 -1.5 -0.77937 -1.341951 -1.06066 -1.06066 
C -1.341951 -0.77937 -1.5 -0.397805 -1.5 0 
C -1.5 0.397805 -1.341951 0.77937 -1.06066 1.06066 
C -0.77937 1.341951 -0.397805 1.5 0 1.5 
z
" id="m0136c111ef" style="stroke:#f5deb3;"/>
    </defs>
    <g>
     <use style="fill:#f5deb3;stroke:#f5deb3;" x="205.161937" xlink:href="#m0136c111ef" y="30.334099"/>
     <use style="fill:#f5deb3;stroke:#f5deb3;" x="205.161937" xlink:href="#m0136c111ef" y="30.334099"/>
    </g>
   </g>
   <g id="line2d_34">
    <defs>
     <path d="M 0 1.5 
C 0.397805 1.5 0.77937 1.341951 1.06066 1.06066 
C 1.341951 0.77937 1.5 0.397805 1.5 0 
C 1.5 -0.397805 1.341951 -0.77937 1.06066 -1.06066 
C 0.77937 -1.341951 0.397805 -1.5 0 -1.5 
C -0.397805 -1.5 -0.77937 -1.341951 -1.06066 -1.06066 
C -1.341951 -0.77937 -1.5 -0.397805 -1.5 0 
C -1.5 0.397805 -1.341951 0.77937 -1.06066 1.06066 
C -0.77937 1.341951 -0.397805 1.5 0 1.5 
z
" id="m4a4e7f61b0" style="stroke:#000080;"/>
    </defs>
    <g>
     <use style="fill:#000080;stroke:#000080;" x="289.041213" xlink:href="#m4a4e7f61b0" y="246.275392"/>
     <use style="fill:#000080;stroke:#000080;" x="289.041213" xlink:href="#m4a4e7f61b0" y="246.275392"/>
    </g>
   </g>
   <g id="line2d_35">
    <path d="M 5.356583 298.944 
L 5.356583 288.936964 
L 17.444571 288.936964 
L 17.444571 282.616732 
L 33.424023 282.616732 
L 33.424023 280.509987 
L 43.6746 280.509987 
L 43.6746 279.983301 
L 45.512012 279.983301 
L 45.512012 279.456615 
L 50.087456 279.456615 
L 50.087456 278.929929 
L 53.708537 278.929929 
L 53.708537 278.403243 
L 62.175444 278.403243 
L 62.175444 277.876557 
L 66.853775 277.876557 
L 66.853775 276.823185 
L 67.850577 276.823185 
L 67.850577 276.296499 
L 69.246464 276.296499 
L 69.246464 275.769812 
L 71.74204 275.769812 
L 71.74204 275.243126 
L 74.595619 275.243126 
L 74.595619 274.71644 
L 74.921597 274.71644 
L 74.921597 274.189754 
L 76.759008 274.189754 
L 76.759008 273.663068 
L 80.650472 273.663068 
L 80.650472 273.136382 
L 81.109427 273.136382 
L 81.109427 272.609696 
L 85.840967 272.609696 
L 85.840967 272.08301 
L 86.847358 272.08301 
L 86.847358 271.556324 
L 89.418828 271.556324 
L 89.418828 271.029638 
L 89.835723 271.029638 
L 89.835723 270.502952 
L 93.863965 270.502952 
L 93.863965 269.976266 
L 97.403108 269.976266 
L 97.491858 268.396207 
L 101.506816 268.396207 
L 101.506816 267.869521 
L 106.06061 267.869521 
L 106.06061 267.342835 
L 106.646412 267.342835 
L 106.646412 266.816149 
L 107.263796 266.816149 
L 107.263796 266.289463 
L 110.61104 266.289463 
L 110.652711 265.236091 
L 114.882171 265.236091 
L 114.882171 264.709405 
L 117.087964 264.709405 
L 117.087964 264.182719 
L 117.903163 264.182719 
L 117.903163 263.656033 
L 118.708196 263.656033 
L 118.708196 263.129347 
L 119.552816 263.129347 
L 119.552816 262.60266 
L 125.363449 262.60266 
L 125.363449 262.075974 
L 125.97912 262.075974 
L 125.97912 261.549288 
L 126.439646 261.549288 
L 126.439646 261.022602 
L 129.839445 261.022602 
L 129.839445 260.495916 
L 129.991152 260.495916 
L 129.991152 259.96923 
L 131.590764 259.96923 
L 131.590764 259.442544 
L 136.352172 259.442544 
L 136.352172 258.915858 
L 139.049982 258.915858 
L 139.049982 258.389172 
L 140.203543 258.389172 
L 140.203543 257.862486 
L 140.581686 257.862486 
L 140.581686 257.3358 
L 141.620002 257.3358 
L 141.620002 256.809114 
L 149.744125 256.809114 
L 149.744125 256.282427 
L 155.60627 256.282427 
L 155.60627 255.755741 
L 186.462757 255.755741 
L 186.462757 255.229055 
L 218.309474 255.229055 
L 218.309474 254.702369 
L 218.562099 254.702369 
L 218.566117 253.648997 
L 218.696261 253.648997 
L 218.696261 253.122311 
L 227.40379 253.122311 
L 227.40379 252.595625 
L 230.417233 252.595625 
L 230.417233 252.068939 
L 230.53577 252.068939 
L 230.53577 251.542253 
L 231.666738 251.542253 
L 231.666738 251.015567 
L 237.540344 251.015567 
L 237.540344 250.488881 
L 249.526586 250.488881 
L 249.526586 249.962195 
L 256.593101 249.962195 
L 256.593101 249.435508 
L 267.659193 249.435508 
L 267.659193 248.382136 
L 271.338889 248.382136 
L 271.338889 247.85545 
L 273.664721 247.85545 
L 273.664721 247.328764 
L 281.671257 247.328764 
L 281.671257 246.802078 
L 289.041213 246.802078 
L 289.041213 246.275392 
L 338.688 246.275392 
L 338.688 246.275392 
" style="fill:none;stroke:#000080;stroke-linecap:square;stroke-width:1.5;"/>
   </g>
   <g id="line2d_36">
    <defs>
     <path d="M 0 6 
C 1.591219 6 3.117479 5.367802 4.242641 4.242641 
C 5.367802 3.117479 6 1.591219 6 0 
C 6 -1.591219 5.367802 -3.117479 4.242641 -4.242641 
C 3.117479 -5.367802 1.591219 -6 0 -6 
C -1.591219 -6 -3.117479 -5.367802 -4.242641 -4.242641 
C -5.367802 -3.117479 -6 -1.591219 -6 0 
C -6 1.591219 -5.367802 3.117479 -4.242641 4.242641 
C -3.117479 5.367802 -1.591219 6 0 6 
z
" id="m089a94dfdb" style="stroke:#000080;stroke-width:1.5;"/>
    </defs>
    <g>
     <use style="fill-opacity:0;stroke:#000080;stroke-width:1.5;" x="71.74204" xlink:href="#m089a94dfdb" y="275.243126"/>
     <use style="fill-opacity:0;stroke:#000080;stroke-width:1.5;" x="155.60627" xlink:href="#m089a94dfdb" y="256.282427"/>
     <use style="fill-opacity:0;stroke:#000080;stroke-width:1.5;" x="231.666738" xlink:href="#m089a94dfdb" y="251.542253"/>
     <use style="fill-opacity:0;stroke:#000080;stroke-width:1.5;" x="289.041213" xlink:href="#m089a94dfdb" y="246.802078"/>
     <use style="fill-opacity:0;stroke:#000080;stroke-width:1.5;" x="289.041213" xlink:href="#m089a94dfdb" y="246.275392"/>
     <use style="fill-opacity:0;stroke:#000080;stroke-width:1.5;" x="338.688" xlink:href="#m089a94dfdb" y="246.275392"/>
    </g>
   </g>
   <g id="line2d_37">
    <path style="fill:none;stroke:#000080;stroke-linecap:square;stroke-width:1.5;"/>
    <g/>
   </g>
   <g id="line2d_38">
    <path clip-path="url(#p51ccfa3908)" d="M 218.221714 255.229055 
" style="fill:none;stroke:#000080;stroke-linecap:square;stroke-width:1.5;"/>
    <defs>
     <path d="M -12 12 
L 12 -12 
M -12 -12 
L 12 12 
" id="m6b52f55ede" style="stroke:#000080;"/>
    </defs>
    <g clip-path="url(#p51ccfa3908)">
     <use style="fill:#000080;stroke:#000080;" x="218.221714" xlink:href="#m6b52f55ede" y="255.229055"/>
    </g>
   </g>
   <g id="line2d_39">
    <defs>
     <path d="M 0 1.5 
C 0.397805 1.5 0.77937 1.341951 1.06066 1.06066 
C 1.341951 0.77937 1.5 0.397805 1.5 0 
C 1.5 -0.397805 1.341951 -0.77937 1.06066 -1.06066 
C 0.77937 -1.341951 0.397805 -1.5 0 -1.5 
C -0.397805 -1.5 -0.77937 -1.341951 -1.06066 -1.06066 
C -1.341951 -0.77937 -1.5 -0.397805 -1.5 0 
C -1.5 0.397805 -1.341951 0.77937 -1.06066 1.06066 
C -0.77937 1.341951 -0.397805 1.5 0 1.5 
z
" id="m831badbca5" style="stroke:#ff00ff;"/>
    </defs>
    <g>
     <use style="fill:#ff00ff;stroke:#ff00ff;" x="295.925656" xlink:href="#m831badbca5" y="225.207949"/>
     <use style="fill:#ff00ff;stroke:#ff00ff;" x="295.925656" xlink:href="#m831badbca5" y="225.207949"/>
    </g>
   </g>
   <g id="line2d_40">
    <path d="M 5.356583 298.944 
L 5.356583 286.83022 
L 17.444571 286.83022 
L 17.444571 283.670104 
L 29.53256 283.670104 
L 29.53256 281.036673 
L 33.424023 281.036673 
L 33.424023 279.983301 
L 39.291857 279.983301 
L 39.291857 278.929929 
L 43.6746 278.929929 
L 43.6746 278.403243 
L 45.512012 278.403243 
L 45.512012 277.876557 
L 50.087456 277.876557 
L 50.087456 276.823185 
L 57.6 276.823185 
L 57.6 275.769812 
L 59.262141 275.769812 
L 59.262141 275.243126 
L 60.037348 275.243126 
L 60.037348 274.189754 
L 71.35013 274.189754 
L 71.35013 273.663068 
L 78.421149 273.663068 
L 78.421149 273.136382 
L 79.447285 273.136382 
L 79.447285 272.609696 
L 82.417986 272.609696 
L 82.417986 272.08301 
L 89.135256 272.08301 
L 89.135256 271.556324 
L 95.526106 271.556324 
L 95.526106 271.029638 
L 96.301313 271.029638 
L 96.301313 270.502952 
L 97.043522 270.502952 
L 97.043522 269.976266 
L 99.496659 269.976266 
L 99.496659 269.449579 
L 101.436355 269.449579 
L 101.436355 268.922893 
L 102.263669 268.922893 
L 102.263669 268.396207 
L 103.809118 268.396207 
L 103.809118 267.869521 
L 104.592361 267.869521 
L 104.651178 266.816149 
L 107.564481 266.816149 
L 107.564481 266.289463 
L 113.977337 266.289463 
L 113.977337 265.762777 
L 114.618932 265.762777 
L 114.618932 265.236091 
L 116.472913 265.236091 
L 116.472913 264.709405 
L 116.797786 264.709405 
L 116.797786 264.182719 
L 118.283474 264.182719 
L 118.283474 263.656033 
L 118.417314 263.656033 
L 118.417314 263.129347 
L 119.602714 263.129347 
L 119.602714 262.60266 
L 120.429836 262.60266 
L 120.429836 262.075974 
L 123.712047 262.075974 
L 123.712047 261.549288 
L 126.338353 261.549288 
L 126.338353 261.022602 
L 128.45625 261.022602 
L 128.45625 260.495916 
L 130.69097 260.495916 
L 130.69097 259.96923 
L 131.236397 259.96923 
L 131.236397 259.442544 
L 131.351088 259.442544 
L 131.351088 258.915858 
L 131.752875 258.915858 
L 131.752875 258.389172 
L 135.270472 258.389172 
L 135.270472 257.862486 
L 135.421987 257.862486 
L 135.421987 257.3358 
L 136.933536 257.3358 
L 136.933536 256.809114 
L 138.307417 256.809114 
L 138.307417 256.282427 
L 143.034315 256.282427 
L 143.034315 255.755741 
L 143.546707 255.755741 
L 143.546707 255.229055 
L 144.288127 255.229055 
L 144.288127 254.702369 
L 146.058265 254.702369 
L 146.058265 254.175683 
L 146.297089 254.175683 
L 146.302479 253.122311 
L 146.468747 253.122311 
L 146.468747 252.595625 
L 147.525055 252.595625 
L 147.525055 252.068939 
L 155.377179 252.068939 
L 155.377179 251.542253 
L 157.483465 251.542253 
L 157.483465 251.015567 
L 158.222599 251.015567 
L 158.222599 250.488881 
L 160.29055 250.488881 
L 160.384537 249.435508 
L 161.761186 249.435508 
L 161.761186 248.908822 
L 164.461516 248.908822 
L 164.461516 248.382136 
L 164.725838 248.382136 
L 164.725838 247.85545 
L 164.938151 247.85545 
L 164.938151 247.328764 
L 170.930621 247.328764 
L 170.930621 246.802078 
L 171.044462 246.802078 
L 171.044462 246.275392 
L 173.883566 246.275392 
L 173.883566 245.748706 
L 180.521064 245.748706 
L 180.521064 245.22202 
L 202.03327 245.22202 
L 202.03327 244.695334 
L 218.501623 244.695334 
L 218.564151 243.641962 
L 219.014935 243.641962 
L 219.014935 243.115275 
L 219.240926 243.115275 
L 219.240926 242.588589 
L 220.121855 242.588589 
L 220.121855 242.061903 
L 224.030091 242.061903 
L 224.030091 241.008531 
L 230.481762 241.008531 
L 230.586952 238.901787 
L 230.710823 238.901787 
L 230.710823 238.375101 
L 230.879452 238.375101 
L 230.879452 237.848415 
L 237.49091 237.848415 
L 237.558393 236.795043 
L 237.652421 236.795043 
L 237.762616 235.74167 
L 242.483933 235.74167 
L 242.531113 234.688298 
L 242.596387 234.688298 
L 242.601861 233.634926 
L 242.892486 233.634926 
L 242.892486 233.10824 
L 247.615904 233.10824 
L 247.615904 232.581554 
L 249.601427 232.581554 
L 249.605089 231.001496 
L 249.800129 231.001496 
L 249.800129 230.47481 
L 254.734832 230.47481 
L 254.734832 229.948123 
L 255.32665 229.948123 
L 255.32665 229.421437 
L 264.301978 229.421437 
L 264.387785 228.368065 
L 265.581487 228.368065 
L 265.581487 227.841379 
L 266.698689 227.841379 
L 266.698689 227.314693 
L 269.598787 227.314693 
L 269.598787 226.788007 
L 271.355071 226.788007 
L 271.355071 226.261321 
L 272.218285 226.261321 
L 272.218285 225.734635 
L 295.925656 225.734635 
L 295.925656 225.207949 
L 338.688 225.207949 
L 338.688 225.207949 
" style="fill:none;stroke:#ff00ff;stroke-linecap:square;stroke-width:1.5;"/>
   </g>
   <g id="line2d_41">
    <defs>
     <path d="M -0 8.485281 
L 5.091169 0 
L 0 -8.485281 
L -5.091169 -0 
z
" id="me4245dc93d" style="stroke:#ff00ff;stroke-linejoin:miter;stroke-width:1.5;"/>
    </defs>
    <g>
     <use style="fill-opacity:0;stroke:#ff00ff;stroke-linejoin:miter;stroke-width:1.5;" x="71.35013" xlink:href="#me4245dc93d" y="274.189754"/>
     <use style="fill-opacity:0;stroke:#ff00ff;stroke-linejoin:miter;stroke-width:1.5;" x="147.525055" xlink:href="#me4245dc93d" y="252.068939"/>
     <use style="fill-opacity:0;stroke:#ff00ff;stroke-linejoin:miter;stroke-width:1.5;" x="224.030091" xlink:href="#me4245dc93d" y="242.061903"/>
     <use style="fill-opacity:0;stroke:#ff00ff;stroke-linejoin:miter;stroke-width:1.5;" x="295.925656" xlink:href="#me4245dc93d" y="225.734635"/>
     <use style="fill-opacity:0;stroke:#ff00ff;stroke-linejoin:miter;stroke-width:1.5;" x="295.925656" xlink:href="#me4245dc93d" y="225.207949"/>
     <use style="fill-opacity:0;stroke:#ff00ff;stroke-linejoin:miter;stroke-width:1.5;" x="338.688" xlink:href="#me4245dc93d" y="225.207949"/>
    </g>
   </g>
   <g id="line2d_42">
    <path style="fill:none;stroke:#ff00ff;stroke-linecap:square;stroke-width:1.5;"/>
    <g/>
   </g>
   <g id="line2d_43">
    <path clip-path="url(#p51ccfa3908)" d="M 218.221714 244.695334 
" style="fill:none;stroke:#ff00ff;stroke-linecap:square;stroke-width:1.5;"/>
    <defs>
     <path d="M -12 12 
L 12 -12 
M -12 -12 
L 12 12 
" id="m8915aa229d" style="stroke:#ff00ff;"/>
    </defs>
    <g clip-path="url(#p51ccfa3908)">
     <use style="fill:#ff00ff;stroke:#ff00ff;" x="218.221714" xlink:href="#m8915aa229d" y="244.695334"/>
    </g>
   </g>
   <g id="line2d_44">
    <defs>
     <path d="M 0 1.5 
C 0.397805 1.5 0.77937 1.341951 1.06066 1.06066 
C 1.341951 0.77937 1.5 0.397805 1.5 0 
C 1.5 -0.397805 1.341951 -0.77937 1.06066 -1.06066 
C 0.77937 -1.341951 0.397805 -1.5 0 -1.5 
C -0.397805 -1.5 -0.77937 -1.341951 -1.06066 -1.06066 
C -1.341951 -0.77937 -1.5 -0.397805 -1.5 0 
C -1.5 0.397805 -1.341951 0.77937 -1.06066 1.06066 
C -0.77937 1.341951 -0.397805 1.5 0 1.5 
z
" id="m0bc2476166" style="stroke:#ff7500;"/>
    </defs>
    <g>
     <use style="fill:#ff7500;stroke:#ff7500;" x="280.317059" xlink:href="#m0bc2476166" y="225.207949"/>
     <use style="fill:#ff7500;stroke:#ff7500;" x="280.317059" xlink:href="#m0bc2476166" y="225.207949"/>
    </g>
   </g>
   <g id="line2d_45">
    <path d="M 5.356583 298.944 
L 5.356583 289.463651 
L 17.444571 289.463651 
L 17.444571 285.250162 
L 24.515591 285.250162 
L 24.515591 283.143418 
L 33.424023 283.143418 
L 33.424023 282.090045 
L 36.60358 282.090045 
L 36.60358 281.036673 
L 41.620548 281.036673 
L 41.620548 280.509987 
L 45.512012 280.509987 
L 45.512012 279.983301 
L 47.174153 279.983301 
L 47.174153 279.456615 
L 50.087456 279.456615 
L 50.087456 278.403243 
L 52.583031 278.403243 
L 52.583031 276.823185 
L 57.6 276.823185 
L 57.6 276.296499 
L 68.328395 276.296499 
L 68.328395 275.769812 
L 76.465904 275.769812 
L 76.465904 275.243126 
L 81.992617 275.243126 
L 81.992617 274.71644 
L 85.840967 274.71644 
L 85.840967 274.189754 
L 86.182924 274.189754 
L 86.182924 273.663068 
L 86.683608 273.663068 
L 86.683608 273.136382 
L 89.135256 273.136382 
L 89.135256 272.609696 
L 90.509138 272.609696 
L 90.509138 272.08301 
L 92.386139 272.08301 
L 92.386139 271.556324 
L 92.504372 271.556324 
L 92.504372 271.029638 
L 94.505975 271.029638 
L 94.610715 269.976266 
L 98.355365 269.976266 
L 98.355365 269.449579 
L 98.853664 269.449579 
L 98.853664 268.922893 
L 101.785851 268.922893 
L 101.785851 268.396207 
L 103.117741 268.396207 
L 103.117741 267.869521 
L 106.906317 267.869521 
L 106.906317 267.342835 
L 107.314272 267.342835 
L 107.314272 266.816149 
L 110.016944 266.816149 
L 110.016944 266.289463 
L 112.950158 266.289463 
L 112.950158 265.762777 
L 118.523652 265.762777 
L 118.629344 264.709405 
L 122.489167 264.709405 
L 122.489167 264.182719 
L 125.909848 264.182719 
L 125.909848 263.656033 
L 126.78961 263.656033 
L 126.78961 263.129347 
L 128.531065 263.129347 
L 128.531065 262.60266 
L 129.714332 262.60266 
L 129.714332 262.075974 
L 131.851892 262.075974 
L 131.851892 261.549288 
L 133.877121 261.549288 
L 133.877121 261.022602 
L 134.47127 261.022602 
L 134.47127 260.495916 
L 136.710785 260.495916 
L 136.710785 259.96923 
L 136.95197 259.96923 
L 136.95197 259.442544 
L 138.375473 259.442544 
L 138.375473 258.915858 
L 143.163832 258.915858 
L 143.163832 258.389172 
L 143.927534 258.389172 
L 143.93988 257.3358 
L 144.504543 257.3358 
L 144.504543 256.809114 
L 147.585243 256.809114 
L 147.585243 256.282427 
L 149.40913 256.282427 
L 149.40913 255.755741 
L 151.264121 255.755741 
L 151.264121 255.229055 
L 152.00633 255.229055 
L 152.00633 254.702369 
L 154.83724 254.702369 
L 154.83724 254.175683 
L 157.94839 254.175683 
L 157.94839 253.648997 
L 159.012467 253.648997 
L 159.012467 253.122311 
L 159.154893 253.122311 
L 159.154893 252.595625 
L 161.297551 252.595625 
L 161.297551 252.068939 
L 162.258202 252.068939 
L 162.258202 251.542253 
L 162.808504 251.542253 
L 162.808504 251.015567 
L 163.15844 251.015567 
L 163.15844 250.488881 
L 163.752938 250.488881 
L 163.752938 249.962195 
L 165.199047 249.962195 
L 165.199047 249.435508 
L 169.220233 249.435508 
L 169.220233 248.908822 
L 170.61133 248.908822 
L 170.61133 248.382136 
L 173.093441 248.382136 
L 173.093441 247.85545 
L 173.568187 247.85545 
L 173.568187 247.328764 
L 173.960976 247.328764 
L 173.960976 246.802078 
L 175.38324 246.802078 
L 175.38324 246.275392 
L 177.907742 246.275392 
L 177.907742 245.748706 
L 178.774564 245.748706 
L 178.774564 245.22202 
L 188.926157 245.22202 
L 188.926157 244.695334 
L 192.238141 244.695334 
L 192.238141 244.168648 
L 199.073253 244.168648 
L 199.073253 243.641962 
L 213.833415 243.641962 
L 213.833415 243.115275 
L 218.866833 243.115275 
L 218.866833 242.588589 
L 219.32347 242.588589 
L 219.389486 240.481845 
L 219.548109 240.481845 
L 219.548109 239.428473 
L 221.202497 239.428473 
L 221.202497 238.901787 
L 230.600163 238.901787 
L 230.600163 238.375101 
L 230.903361 238.375101 
L 230.903361 237.848415 
L 231.194956 237.848415 
L 231.194956 236.268356 
L 236.037022 236.268356 
L 236.037022 235.74167 
L 237.947462 235.74167 
L 237.947462 235.214984 
L 242.582157 235.214984 
L 242.658261 234.161612 
L 242.845934 234.161612 
L 242.845934 233.634926 
L 246.562627 233.634926 
L 246.562627 233.10824 
L 249.668851 233.10824 
L 249.754383 231.528182 
L 254.887353 231.528182 
L 254.887353 230.47481 
L 256.692189 230.47481 
L 256.692189 229.948123 
L 260.164121 229.948123 
L 260.164121 229.421437 
L 260.332325 229.421437 
L 260.332325 228.894751 
L 265.568825 228.894751 
L 265.568825 228.368065 
L 266.681344 228.368065 
L 266.775662 227.314693 
L 267.821094 227.314693 
L 267.821094 226.788007 
L 268.807384 226.788007 
L 268.807384 226.261321 
L 269.740868 226.261321 
L 269.740868 225.734635 
L 280.317059 225.734635 
L 280.317059 225.207949 
L 338.688 225.207949 
L 338.688 225.207949 
" style="fill:none;stroke:#ff7500;stroke-linecap:square;stroke-width:1.5;"/>
   </g>
   <g id="line2d_46">
    <defs>
     <path d="M 0 -6 
L -1.347084 -1.854102 
L -5.706339 -1.854102 
L -2.179628 0.708204 
L -3.526712 4.854102 
L -0 2.291796 
L 3.526712 4.854102 
L 2.179628 0.708204 
L 5.706339 -1.854102 
L 1.347084 -1.854102 
z
" id="mbac0682d21" style="stroke:#ff7500;stroke-linejoin:bevel;stroke-width:1.5;"/>
    </defs>
    <g>
     <use style="fill-opacity:0;stroke:#ff7500;stroke-linejoin:bevel;stroke-width:1.5;" x="68.328395" xlink:href="#mbac0682d21" y="276.296499"/>
     <use style="fill-opacity:0;stroke:#ff7500;stroke-linejoin:bevel;stroke-width:1.5;" x="125.909848" xlink:href="#mbac0682d21" y="263.656033"/>
     <use style="fill-opacity:0;stroke:#ff7500;stroke-linejoin:bevel;stroke-width:1.5;" x="213.833415" xlink:href="#mbac0682d21" y="243.115275"/>
     <use style="fill-opacity:0;stroke:#ff7500;stroke-linejoin:bevel;stroke-width:1.5;" x="280.317059" xlink:href="#mbac0682d21" y="225.734635"/>
     <use style="fill-opacity:0;stroke:#ff7500;stroke-linejoin:bevel;stroke-width:1.5;" x="280.317059" xlink:href="#mbac0682d21" y="225.207949"/>
     <use style="fill-opacity:0;stroke:#ff7500;stroke-linejoin:bevel;stroke-width:1.5;" x="338.688" xlink:href="#mbac0682d21" y="225.207949"/>
    </g>
   </g>
   <g id="line2d_47">
    <path style="fill:none;stroke:#ff7500;stroke-linecap:square;stroke-width:1.5;"/>
    <g/>
   </g>
   <g id="line2d_48">
    <path clip-path="url(#p51ccfa3908)" d="M 218.221714 243.115275 
" style="fill:none;stroke:#ff7500;stroke-linecap:square;stroke-width:1.5;"/>
    <defs>
     <path d="M -12 12 
L 12 -12 
M -12 -12 
L 12 12 
" id="m673225ca08" style="stroke:#ff7500;"/>
    </defs>
    <g clip-path="url(#p51ccfa3908)">
     <use style="fill:#ff7500;stroke:#ff7500;" x="218.221714" xlink:href="#m673225ca08" y="243.115275"/>
    </g>
   </g>
   <g id="line2d_49">
    <defs>
     <path d="M 0 1.5 
C 0.397805 1.5 0.77937 1.341951 1.06066 1.06066 
C 1.341951 0.77937 1.5 0.397805 1.5 0 
C 1.5 -0.397805 1.341951 -0.77937 1.06066 -1.06066 
C 0.77937 -1.341951 0.397805 -1.5 0 -1.5 
C -0.397805 -1.5 -0.77937 -1.341951 -1.06066 -1.06066 
C -1.341951 -0.77937 -1.5 -0.397805 -1.5 0 
C -1.5 0.397805 -1.341951 0.77937 -1.06066 1.06066 
C -0.77937 1.341951 -0.397805 1.5 0 1.5 
z
" id="mcfeeb3e261" style="stroke:#6495ed;"/>
    </defs>
    <g>
     <use style="fill:#6495ed;stroke:#6495ed;" x="254.909898" xlink:href="#mcfeeb3e261" y="235.74167"/>
     <use style="fill:#6495ed;stroke:#6495ed;" x="254.909898" xlink:href="#mcfeeb3e261" y="235.74167"/>
    </g>
   </g>
   <g id="line2d_50">
    <path d="M 5.356583 298.944 
L 5.356583 289.463651 
L 17.444571 289.463651 
L 17.444571 284.19679 
L 24.515591 284.19679 
L 24.515591 278.929929 
L 29.53256 278.929929 
L 29.53256 278.403243 
L 39.291857 278.403243 
L 39.291857 277.876557 
L 53.708537 277.876557 
L 53.708537 277.349871 
L 55.762588 277.349871 
L 55.762588 276.296499 
L 64.079801 276.296499 
L 64.079801 275.769812 
L 72.867545 275.769812 
L 72.867545 275.243126 
L 76.759008 275.243126 
L 76.759008 274.71644 
L 88.991722 274.71644 
L 88.991722 274.189754 
L 90.242884 274.189754 
L 90.242884 273.663068 
L 92.621809 273.663068 
L 92.621809 273.136382 
L 92.854336 273.136382 
L 92.854336 272.609696 
L 97.842408 272.609696 
L 97.842408 272.08301 
L 98.100772 272.08301 
L 98.100772 271.556324 
L 98.689141 271.556324 
L 98.689141 271.029638 
L 101.576995 271.029638 
L 101.576995 270.502952 
L 101.923711 270.502952 
L 101.923711 269.976266 
L 105.057436 269.976266 
L 105.057436 269.449579 
L 106.222336 269.449579 
L 106.222336 268.922893 
L 108.341848 268.922893 
L 108.341848 268.396207 
L 110.103064 268.396207 
L 110.103064 267.869521 
L 110.485426 267.869521 
L 110.485426 267.342835 
L 114.718113 267.342835 
L 114.718113 266.816149 
L 120.689249 266.816149 
L 120.689249 266.289463 
L 120.829137 266.289463 
L 120.829137 265.762777 
L 123.253355 265.762777 
L 123.253355 265.236091 
L 124.158984 265.236091 
L 124.158984 264.709405 
L 126.304457 264.709405 
L 126.304457 264.182719 
L 126.904721 264.182719 
L 126.904721 263.656033 
L 127.516689 263.656033 
L 127.516689 263.129347 
L 128.694536 263.129347 
L 128.694536 262.60266 
L 129.362011 262.60266 
L 129.362011 262.075974 
L 130.558552 262.075974 
L 130.558552 261.549288 
L 133.454465 261.549288 
L 133.454465 261.022602 
L 134.608796 261.022602 
L 134.608796 260.495916 
L 139.220677 260.495916 
L 139.220677 259.96923 
L 142.825068 259.96923 
L 142.825068 259.442544 
L 143.079756 259.442544 
L 143.079756 258.915858 
L 144.105706 258.915858 
L 144.105706 258.389172 
L 147.317833 258.389172 
L 147.317833 257.862486 
L 147.454573 257.862486 
L 147.454573 257.3358 
L 148.175961 257.3358 
L 148.175961 256.809114 
L 148.854728 256.809114 
L 148.854728 256.282427 
L 149.062975 256.282427 
L 149.062975 255.755741 
L 149.60644 255.755741 
L 149.60644 255.229055 
L 150.87046 255.229055 
L 150.87046 254.702369 
L 154.500352 254.702369 
L 154.500352 254.175683 
L 156.300339 254.175683 
L 156.300339 253.648997 
L 156.96199 253.648997 
L 156.96199 253.122311 
L 158.500597 253.122311 
L 158.591399 252.068939 
L 158.729364 252.068939 
L 158.729364 251.542253 
L 161.515149 251.542253 
L 161.515149 251.015567 
L 163.559687 251.015567 
L 163.593711 249.962195 
L 164.250986 249.962195 
L 164.250986 249.435508 
L 164.529868 249.435508 
L 164.529868 248.908822 
L 165.773055 248.908822 
L 165.773055 248.382136 
L 174.448424 248.382136 
L 174.448424 247.85545 
L 174.596935 247.85545 
L 174.596935 247.328764 
L 177.466646 247.328764 
L 177.466646 246.802078 
L 177.806255 246.802078 
L 177.806255 246.275392 
L 178.200054 246.275392 
L 178.200054 245.748706 
L 178.450056 245.748706 
L 178.560593 244.695334 
L 181.074241 244.695334 
L 181.074241 244.168648 
L 181.756388 244.168648 
L 181.756388 243.641962 
L 182.418289 243.641962 
L 182.418289 243.115275 
L 183.352134 243.115275 
L 183.352134 242.588589 
L 188.286317 242.588589 
L 188.286317 242.061903 
L 189.889818 242.061903 
L 189.889818 241.535217 
L 191.178255 241.535217 
L 191.178255 241.008531 
L 219.188621 241.008531 
L 219.188621 240.481845 
L 220.327542 240.481845 
L 220.327542 239.955159 
L 221.357473 239.955159 
L 221.357473 239.428473 
L 221.576165 239.428473 
L 221.576165 238.901787 
L 230.438148 238.901787 
L 230.438148 238.375101 
L 230.706391 238.375101 
L 230.706391 237.848415 
L 232.067458 237.848415 
L 232.067458 237.321729 
L 238.395163 237.321729 
L 238.395163 236.795043 
L 252.640976 236.795043 
L 252.640976 236.268356 
L 254.909898 236.268356 
L 254.909898 235.74167 
L 338.688 235.74167 
L 338.688 235.74167 
" style="fill:none;stroke:#6495ed;stroke-linecap:square;stroke-width:1.5;"/>
   </g>
   <g id="line2d_51">
    <defs>
     <path d="M -0 6 
L 6 -6 
L -6 -6 
z
" id="ma9dcfe9e73" style="stroke:#6495ed;stroke-linejoin:miter;stroke-width:1.5;"/>
    </defs>
    <g>
     <use style="fill-opacity:0;stroke:#6495ed;stroke-linejoin:miter;stroke-width:1.5;" x="90.242884" xlink:href="#ma9dcfe9e73" y="273.663068"/>
     <use style="fill-opacity:0;stroke:#6495ed;stroke-linejoin:miter;stroke-width:1.5;" x="163.593711" xlink:href="#ma9dcfe9e73" y="249.962195"/>
     <use style="fill-opacity:0;stroke:#6495ed;stroke-linejoin:miter;stroke-width:1.5;" x="238.395163" xlink:href="#ma9dcfe9e73" y="236.795043"/>
     <use style="fill-opacity:0;stroke:#6495ed;stroke-linejoin:miter;stroke-width:1.5;" x="254.909898" xlink:href="#ma9dcfe9e73" y="235.74167"/>
     <use style="fill-opacity:0;stroke:#6495ed;stroke-linejoin:miter;stroke-width:1.5;" x="254.909898" xlink:href="#ma9dcfe9e73" y="235.74167"/>
     <use style="fill-opacity:0;stroke:#6495ed;stroke-linejoin:miter;stroke-width:1.5;" x="338.688" xlink:href="#ma9dcfe9e73" y="235.74167"/>
    </g>
   </g>
   <g id="line2d_52">
    <path style="fill:none;stroke:#6495ed;stroke-linecap:square;stroke-width:1.5;"/>
    <g/>
   </g>
   <g id="line2d_53">
    <path clip-path="url(#p51ccfa3908)" d="M 218.221714 241.008531 
" style="fill:none;stroke:#6495ed;stroke-linecap:square;stroke-width:1.5;"/>
    <defs>
     <path d="M -12 12 
L 12 -12 
M -12 -12 
L 12 12 
" id="m33b72f7d8c" style="stroke:#6495ed;"/>
    </defs>
    <g clip-path="url(#p51ccfa3908)">
     <use style="fill:#6495ed;stroke:#6495ed;" x="218.221714" xlink:href="#m33b72f7d8c" y="241.008531"/>
    </g>
   </g>
   <g id="line2d_54">
    <defs>
     <path d="M 0 1.5 
C 0.397805 1.5 0.77937 1.341951 1.06066 1.06066 
C 1.341951 0.77937 1.5 0.397805 1.5 0 
C 1.5 -0.397805 1.341951 -0.77937 1.06066 -1.06066 
C 0.77937 -1.341951 0.397805 -1.5 0 -1.5 
C -0.397805 -1.5 -0.77937 -1.341951 -1.06066 -1.06066 
C -1.341951 -0.77937 -1.5 -0.397805 -1.5 0 
C -1.5 0.397805 -1.341951 0.77937 -1.06066 1.06066 
C -0.77937 1.341951 -0.397805 1.5 0 1.5 
z
" id="m3bb5d5324c" style="stroke:#ff0000;"/>
    </defs>
    <g>
     <use style="fill:#ff0000;stroke:#ff0000;" x="285.51175" xlink:href="#m3bb5d5324c" y="219.941088"/>
     <use style="fill:#ff0000;stroke:#ff0000;" x="285.51175" xlink:href="#m3bb5d5324c" y="219.941088"/>
    </g>
   </g>
   <g id="line2d_55">
    <path d="M 5.356583 298.944 
L 5.356583 289.463651 
L 17.444571 289.463651 
L 17.444571 285.250162 
L 24.515591 285.250162 
L 24.515591 282.616732 
L 29.53256 282.616732 
L 29.53256 280.509987 
L 33.424023 280.509987 
L 33.424023 279.983301 
L 41.620548 279.983301 
L 41.620548 279.456615 
L 43.6746 279.456615 
L 43.6746 277.876557 
L 48.691568 277.876557 
L 48.691568 277.349871 
L 51.379845 277.349871 
L 51.379845 276.823185 
L 55.762588 276.823185 
L 55.762588 276.296499 
L 63.467834 276.296499 
L 63.467834 275.769812 
L 70.11861 275.769812 
L 70.11861 275.243126 
L 77.884514 275.243126 
L 77.884514 274.71644 
L 80.179111 274.71644 
L 80.179111 274.189754 
L 82.206598 274.189754 
L 82.206598 273.663068 
L 91.410261 273.663068 
L 91.410261 273.136382 
L 97.668013 273.136382 
L 97.668013 272.609696 
L 103.117741 272.609696 
L 103.117741 272.08301 
L 107.614095 272.08301 
L 107.614095 271.556324 
L 109.624052 271.556324 
L 109.624052 271.029638 
L 110.569269 271.029638 
L 110.569269 270.502952 
L 113.382559 270.502952 
L 113.382559 269.976266 
L 114.485807 269.976266 
L 114.485807 269.449579 
L 114.947365 269.449579 
L 114.947365 268.922893 
L 115.33349 268.922893 
L 115.33349 268.396207 
L 117.288253 268.396207 
L 117.288253 267.869521 
L 120.286695 267.869521 
L 120.286695 267.342835 
L 122.844443 267.342835 
L 122.844443 266.816149 
L 125.805421 266.816149 
L 125.805421 266.289463 
L 126.202373 266.289463 
L 126.202373 265.762777 
L 126.52361 265.762777 
L 126.52361 265.236091 
L 128.290519 265.236091 
L 128.290519 264.709405 
L 129.103859 264.709405 
L 129.103859 264.182719 
L 130.331109 264.182719 
L 130.331109 263.656033 
L 132.998212 263.656033 
L 132.998212 263.129347 
L 134.084669 263.129347 
L 134.084669 262.60266 
L 135.452133 262.60266 
L 135.452133 262.075974 
L 136.607732 262.075974 
L 136.607732 261.549288 
L 137.902135 261.549288 
L 137.902135 261.022602 
L 138.298892 261.022602 
L 138.298892 260.495916 
L 142.805321 260.495916 
L 142.805321 259.96923 
L 144.191074 259.96923 
L 144.191074 259.442544 
L 144.993499 259.442544 
L 144.993499 258.915858 
L 147.241401 258.915858 
L 147.287301 257.862486 
L 148.695721 257.862486 
L 148.695721 257.3358 
L 149.650973 257.3358 
L 149.650973 256.809114 
L 152.818666 256.809114 
L 152.855715 255.755741 
L 153.795881 255.755741 
L 153.795881 255.229055 
L 153.956452 255.229055 
L 153.956452 254.702369 
L 154.070741 254.702369 
L 154.070741 254.175683 
L 159.40328 254.175683 
L 159.40328 253.648997 
L 159.545084 253.648997 
L 159.545084 253.122311 
L 159.738201 253.122311 
L 159.738201 252.595625 
L 163.0577 252.595625 
L 163.0577 252.068939 
L 164.956653 252.068939 
L 164.956653 251.542253 
L 165.864572 251.542253 
L 165.864572 251.015567 
L 167.779397 251.015567 
L 167.779397 250.488881 
L 168.542565 250.488881 
L 168.629664 249.435508 
L 171.244171 249.435508 
L 171.244171 248.908822 
L 173.251598 248.908822 
L 173.251598 248.382136 
L 173.858056 248.382136 
L 173.858056 247.85545 
L 174.289977 247.85545 
L 174.289977 247.328764 
L 175.183791 247.328764 
L 175.183791 246.802078 
L 177.050188 246.802078 
L 177.050188 246.275392 
L 178.490951 246.275392 
L 178.490951 245.748706 
L 179.550754 245.748706 
L 179.606721 244.695334 
L 179.687952 244.695334 
L 179.687952 244.168648 
L 184.810473 244.168648 
L 184.810473 243.641962 
L 186.352501 243.641962 
L 186.449822 242.588589 
L 186.651379 242.588589 
L 186.651379 242.061903 
L 187.045551 242.061903 
L 187.045551 241.535217 
L 188.420222 241.535217 
L 188.420222 241.008531 
L 188.825291 241.008531 
L 188.825291 240.481845 
L 191.013027 240.481845 
L 191.115653 239.428473 
L 191.269695 239.428473 
L 191.269695 238.901787 
L 192.184282 238.901787 
L 192.184282 238.375101 
L 192.430132 238.375101 
L 192.430132 237.848415 
L 195.25627 237.848415 
L 195.25627 237.321729 
L 196.05633 237.321729 
L 196.05633 236.795043 
L 198.039027 236.795043 
L 198.039027 236.268356 
L 218.064842 236.268356 
L 218.064842 235.74167 
L 220.029655 235.74167 
L 220.029655 235.214984 
L 221.218733 235.214984 
L 221.218733 234.688298 
L 221.5922 234.688298 
L 221.5922 234.161612 
L 221.801809 234.161612 
L 221.801809 233.634926 
L 222.534268 233.634926 
L 222.534268 233.10824 
L 222.988341 233.10824 
L 222.988341 232.581554 
L 226.754979 232.581554 
L 226.754979 232.054868 
L 232.16647 232.054868 
L 232.16647 231.528182 
L 238.241993 231.528182 
L 238.241993 231.001496 
L 238.640267 231.001496 
L 238.640267 230.47481 
L 238.939774 230.47481 
L 238.939774 228.894751 
L 239.541691 228.894751 
L 239.541691 228.368065 
L 243.303321 228.368065 
L 243.303321 227.841379 
L 243.752609 227.841379 
L 243.752609 227.314693 
L 244.042999 227.314693 
L 244.042999 226.788007 
L 244.952905 226.788007 
L 244.952905 226.261321 
L 250.383583 226.261321 
L 250.383583 225.734635 
L 251.213085 225.734635 
L 251.213085 225.207949 
L 253.11608 225.207949 
L 253.11608 224.681263 
L 257.075051 224.681263 
L 257.075051 224.154577 
L 260.655687 224.154577 
L 260.655687 223.627891 
L 263.475565 223.627891 
L 263.475565 223.101204 
L 263.77941 223.101204 
L 263.77941 222.574518 
L 271.64159 222.574518 
L 271.64159 222.047832 
L 272.438197 222.047832 
L 272.438197 221.521146 
L 273.929913 221.521146 
L 273.929913 220.99446 
L 280.420513 220.99446 
L 280.420513 220.467774 
L 285.51175 220.467774 
L 285.51175 219.941088 
L 338.688 219.941088 
L 338.688 219.941088 
" style="fill:none;stroke:#ff0000;stroke-linecap:square;stroke-width:1.5;"/>
   </g>
   <g id="line2d_56">
    <defs>
     <path d="M 0 -6 
L -5.196152 -3 
L -5.196152 3 
L -0 6 
L 5.196152 3 
L 5.196152 -3 
z
" id="m0066bc36d8" style="stroke:#ff0000;stroke-linejoin:miter;stroke-width:1.5;"/>
    </defs>
    <g>
     <use style="fill-opacity:0;stroke:#ff0000;stroke-linejoin:miter;stroke-width:1.5;" x="63.467834" xlink:href="#m0066bc36d8" y="275.769812"/>
     <use style="fill-opacity:0;stroke:#ff0000;stroke-linejoin:miter;stroke-width:1.5;" x="130.331109" xlink:href="#m0066bc36d8" y="264.182719"/>
     <use style="fill-opacity:0;stroke:#ff0000;stroke-linejoin:miter;stroke-width:1.5;" x="218.064842" xlink:href="#m0066bc36d8" y="235.74167"/>
     <use style="fill-opacity:0;stroke:#ff0000;stroke-linejoin:miter;stroke-width:1.5;" x="263.77941" xlink:href="#m0066bc36d8" y="222.574518"/>
     <use style="fill-opacity:0;stroke:#ff0000;stroke-linejoin:miter;stroke-width:1.5;" x="285.51175" xlink:href="#m0066bc36d8" y="219.941088"/>
     <use style="fill-opacity:0;stroke:#ff0000;stroke-linejoin:miter;stroke-width:1.5;" x="338.688" xlink:href="#m0066bc36d8" y="219.941088"/>
    </g>
   </g>
   <g id="line2d_57">
    <path style="fill:none;stroke:#ff0000;stroke-linecap:square;stroke-width:1.5;"/>
    <g/>
   </g>
   <g id="line2d_58">
    <path clip-path="url(#p51ccfa3908)" d="M 218.221714 235.74167 
" style="fill:none;stroke:#ff0000;stroke-linecap:square;stroke-width:1.5;"/>
    <defs>
     <path d="M -12 12 
L 12 -12 
M -12 -12 
L 12 12 
" id="m5a2d2e4460" style="stroke:#ff0000;"/>
    </defs>
    <g clip-path="url(#p51ccfa3908)">
     <use style="fill:#ff0000;stroke:#ff0000;" x="218.221714" xlink:href="#m5a2d2e4460" y="235.74167"/>
    </g>
   </g>
   <g id="line2d_59">
    <defs>
     <path d="M 0 1.5 
C 0.397805 1.5 0.77937 1.341951 1.06066 1.06066 
C 1.341951 0.77937 1.5 0.397805 1.5 0 
C 1.5 -0.397805 1.341951 -0.77937 1.06066 -1.06066 
C 0.77937 -1.341951 0.397805 -1.5 0 -1.5 
C -0.397805 -1.5 -0.77937 -1.341951 -1.06066 -1.06066 
C -1.341951 -0.77937 -1.5 -0.397805 -1.5 0 
C -1.5 0.397805 -1.341951 0.77937 -1.06066 1.06066 
C -0.77937 1.341951 -0.397805 1.5 0 1.5 
z
" id="mced2bfec7e" style="stroke:#9acd32;"/>
    </defs>
    <g>
     <use style="fill:#9acd32;stroke:#9acd32;" x="256.247809" xlink:href="#mced2bfec7e" y="230.47481"/>
     <use style="fill:#9acd32;stroke:#9acd32;" x="256.247809" xlink:href="#mced2bfec7e" y="230.47481"/>
    </g>
   </g>
   <g id="line2d_60">
    <path d="M 5.356583 298.944 
L 5.356583 289.463651 
L 17.444571 289.463651 
L 17.444571 284.19679 
L 29.53256 284.19679 
L 29.53256 281.563359 
L 36.60358 281.563359 
L 36.60358 279.983301 
L 39.291857 279.983301 
L 39.291857 279.456615 
L 41.620548 279.456615 
L 41.620548 278.929929 
L 43.6746 278.929929 
L 43.6746 278.403243 
L 54.765787 278.403243 
L 54.765787 277.876557 
L 60.037348 277.876557 
L 60.037348 277.349871 
L 72.500389 277.349871 
L 72.500389 276.823185 
L 74.921597 276.823185 
L 74.921597 276.296499 
L 75.86449 276.296499 
L 75.86449 275.769812 
L 82.626842 275.769812 
L 82.626842 275.243126 
L 88.991722 275.243126 
L 88.991722 274.71644 
L 89.418828 274.71644 
L 89.418828 274.189754 
L 91.905025 274.189754 
L 91.905025 273.663068 
L 101.923711 273.663068 
L 101.923711 273.136382 
L 107.811151 273.136382 
L 107.811151 272.609696 
L 110.231452 272.609696 
L 110.231452 272.08301 
L 116.621333 272.08301 
L 116.621333 271.556324 
L 117.345058 271.556324 
L 117.345058 271.029638 
L 117.958004 271.029638 
L 117.958004 270.502952 
L 132.659801 270.502952 
L 132.659801 269.976266 
L 137.945701 269.976266 
L 138.041164 268.922893 
L 143.292393 268.922893 
L 143.292393 268.396207 
L 148.478259 268.396207 
L 148.478259 267.869521 
L 150.292822 267.869521 
L 150.292822 267.342835 
L 150.928425 267.342835 
L 150.928425 266.816149 
L 156.577589 266.816149 
L 156.637282 265.762777 
L 157.130797 265.762777 
L 157.130797 265.236091 
L 157.303721 265.236091 
L 157.303721 264.709405 
L 157.765022 264.709405 
L 157.765022 264.182719 
L 159.360003 264.182719 
L 159.360003 263.656033 
L 161.449702 263.656033 
L 161.449702 263.129347 
L 162.19549 263.129347 
L 162.19549 262.60266 
L 162.737246 262.60266 
L 162.737246 262.075974 
L 164.505216 262.075974 
L 164.505216 261.549288 
L 166.772601 261.549288 
L 166.772601 261.022602 
L 169.150586 261.022602 
L 169.150586 260.495916 
L 171.626766 260.495916 
L 171.626766 259.96923 
L 172.187811 259.96923 
L 172.187811 259.442544 
L 172.736102 259.442544 
L 172.736102 258.915858 
L 174.242269 258.915858 
L 174.242269 258.389172 
L 175.527057 258.389172 
L 175.527057 257.862486 
L 176.52666 257.862486 
L 176.52666 257.3358 
L 177.330748 257.3358 
L 177.330748 256.809114 
L 179.14486 256.809114 
L 179.14486 256.282427 
L 180.098621 256.282427 
L 180.155954 255.229055 
L 181.601869 255.229055 
L 181.601869 254.702369 
L 186.510641 254.702369 
L 186.510641 254.175683 
L 187.093942 254.175683 
L 187.093942 253.648997 
L 187.542779 253.648997 
L 187.542779 253.122311 
L 188.098969 253.122311 
L 188.098969 252.595625 
L 190.159069 252.595625 
L 190.159069 252.068939 
L 190.786195 252.068939 
L 190.786195 251.542253 
L 191.017177 251.542253 
L 191.017177 251.015567 
L 191.529087 251.015567 
L 191.529087 250.488881 
L 193.761971 250.488881 
L 193.761971 249.962195 
L 195.862244 249.962195 
L 195.862244 249.435508 
L 196.111876 249.435508 
L 196.111876 248.908822 
L 198.774242 248.908822 
L 198.78966 247.85545 
L 199.120248 247.85545 
L 199.120248 247.328764 
L 200.06439 247.328764 
L 200.06439 246.802078 
L 201.739818 246.802078 
L 201.739818 246.275392 
L 202.36954 246.275392 
L 202.36954 245.748706 
L 204.432774 245.748706 
L 204.432774 245.22202 
L 205.007662 245.22202 
L 205.007662 244.695334 
L 205.510606 244.695334 
L 205.510787 243.641962 
L 205.681108 243.641962 
L 205.681108 243.115275 
L 206.15673 243.115275 
L 206.15673 242.588589 
L 206.645993 242.588589 
L 206.645993 242.061903 
L 210.411927 242.061903 
L 210.411927 241.535217 
L 210.524818 241.535217 
L 210.524818 241.008531 
L 211.195978 241.008531 
L 211.226347 239.955159 
L 211.950538 239.955159 
L 211.950538 239.428473 
L 212.156577 239.428473 
L 212.156577 238.901787 
L 212.618337 238.901787 
L 212.618337 238.375101 
L 213.775001 238.375101 
L 213.775001 237.848415 
L 214.610611 237.848415 
L 214.610611 237.321729 
L 214.774478 237.321729 
L 214.774478 236.795043 
L 214.891179 236.795043 
L 214.891179 236.268356 
L 215.493965 236.268356 
L 215.493965 235.74167 
L 217.699874 235.74167 
L 217.721154 234.688298 
L 226.882484 234.688298 
L 226.882484 234.161612 
L 228.597452 234.161612 
L 228.597452 233.634926 
L 229.630555 233.634926 
L 229.630555 233.10824 
L 230.061219 233.10824 
L 230.061219 232.581554 
L 236.339651 232.581554 
L 236.339651 232.054868 
L 237.215461 232.054868 
L 237.215461 231.528182 
L 254.318356 231.528182 
L 254.318356 231.001496 
L 256.247809 231.001496 
L 256.247809 230.47481 
L 338.688 230.47481 
L 338.688 230.47481 
" style="fill:none;stroke:#9acd32;stroke-linecap:square;stroke-width:1.5;"/>
   </g>
   <g id="line2d_61">
    <defs>
     <path d="M 0 -6 
L -6 6 
L 6 6 
z
" id="m4117173dc4" style="stroke:#9acd32;stroke-linejoin:miter;stroke-width:1.5;"/>
    </defs>
    <g>
     <use style="fill-opacity:0;stroke:#9acd32;stroke-linejoin:miter;stroke-width:1.5;" x="117.958004" xlink:href="#m4117173dc4" y="271.029638"/>
     <use style="fill-opacity:0;stroke:#9acd32;stroke-linejoin:miter;stroke-width:1.5;" x="193.761971" xlink:href="#m4117173dc4" y="250.488881"/>
     <use style="fill-opacity:0;stroke:#9acd32;stroke-linejoin:miter;stroke-width:1.5;" x="256.247809" xlink:href="#m4117173dc4" y="231.001496"/>
     <use style="fill-opacity:0;stroke:#9acd32;stroke-linejoin:miter;stroke-width:1.5;" x="256.247809" xlink:href="#m4117173dc4" y="230.47481"/>
     <use style="fill-opacity:0;stroke:#9acd32;stroke-linejoin:miter;stroke-width:1.5;" x="338.688" xlink:href="#m4117173dc4" y="230.47481"/>
    </g>
   </g>
   <g id="line2d_62">
    <path style="fill:none;stroke:#9acd32;stroke-linecap:square;stroke-width:1.5;"/>
    <g/>
   </g>
   <g id="line2d_63">
    <path clip-path="url(#p51ccfa3908)" d="M 218.221714 234.688298 
" style="fill:none;stroke:#9acd32;stroke-linecap:square;stroke-width:1.5;"/>
    <defs>
     <path d="M -12 12 
L 12 -12 
M -12 -12 
L 12 12 
" id="m55fe9659b7" style="stroke:#9acd32;"/>
    </defs>
    <g clip-path="url(#p51ccfa3908)">
     <use style="fill:#9acd32;stroke:#9acd32;" x="218.221714" xlink:href="#m55fe9659b7" y="234.688298"/>
    </g>
   </g>
   <g id="line2d_64">
    <path d="M 338.688 246.275392 
L 369.60768 293.571802 
" style="fill:none;stroke:#000080;stroke-linecap:square;stroke-width:1.5;"/>
    <g>
     <use style="fill-opacity:0;stroke:#000080;stroke-width:1.5;" x="338.688" xlink:href="#m089a94dfdb" y="246.275392"/>
     <use style="fill-opacity:0;stroke:#000080;stroke-width:1.5;" x="369.60768" xlink:href="#m089a94dfdb" y="293.571802"/>
    </g>
   </g>
   <g id="line2d_65">
    <path d="M 338.688 235.74167 
L 369.60768 250.594218 
" style="fill:none;stroke:#6495ed;stroke-linecap:square;stroke-width:1.5;"/>
    <g>
     <use style="fill-opacity:0;stroke:#6495ed;stroke-linejoin:miter;stroke-width:1.5;" x="338.688" xlink:href="#ma9dcfe9e73" y="235.74167"/>
     <use style="fill-opacity:0;stroke:#6495ed;stroke-linejoin:miter;stroke-width:1.5;" x="369.60768" xlink:href="#ma9dcfe9e73" y="250.594218"/>
    </g>
   </g>
   <g id="line2d_66">
    <path d="M 338.688 230.47481 
L 369.60768 207.616634 
" style="fill:none;stroke:#9acd32;stroke-linecap:square;stroke-width:1.5;"/>
    <g>
     <use style="fill-opacity:0;stroke:#9acd32;stroke-linejoin:miter;stroke-width:1.5;" x="338.688" xlink:href="#m4117173dc4" y="230.47481"/>
     <use style="fill-opacity:0;stroke:#9acd32;stroke-linejoin:miter;stroke-width:1.5;" x="369.60768" xlink:href="#m4117173dc4" y="207.616634"/>
    </g>
   </g>
   <g id="line2d_67">
    <path d="M 338.688 225.207949 
L 369.60768 164.63905 
" style="fill:none;stroke:#ff00ff;stroke-linecap:square;stroke-width:1.5;"/>
    <g>
     <use style="fill-opacity:0;stroke:#ff00ff;stroke-linejoin:miter;stroke-width:1.5;" x="338.688" xlink:href="#me4245dc93d" y="225.207949"/>
     <use style="fill-opacity:0;stroke:#ff00ff;stroke-linejoin:miter;stroke-width:1.5;" x="369.60768" xlink:href="#me4245dc93d" y="164.63905"/>
    </g>
   </g>
   <g id="line2d_68">
    <path d="M 338.688 225.207949 
L 369.60768 121.661465 
" style="fill:none;stroke:#ff7500;stroke-linecap:square;stroke-width:1.5;"/>
    <g>
     <use style="fill-opacity:0;stroke:#ff7500;stroke-linejoin:bevel;stroke-width:1.5;" x="338.688" xlink:href="#mbac0682d21" y="225.207949"/>
     <use style="fill-opacity:0;stroke:#ff7500;stroke-linejoin:bevel;stroke-width:1.5;" x="369.60768" xlink:href="#mbac0682d21" y="121.661465"/>
    </g>
   </g>
   <g id="line2d_69">
    <path d="M 338.688 219.941088 
L 369.60768 78.683881 
" style="fill:none;stroke:#ff0000;stroke-linecap:square;stroke-width:1.5;"/>
    <g>
     <use style="fill-opacity:0;stroke:#ff0000;stroke-linejoin:miter;stroke-width:1.5;" x="338.688" xlink:href="#m0066bc36d8" y="219.941088"/>
     <use style="fill-opacity:0;stroke:#ff0000;stroke-linejoin:miter;stroke-width:1.5;" x="369.60768" xlink:href="#m0066bc36d8" y="78.683881"/>
    </g>
   </g>
   <g id="line2d_70">
    <path d="M 338.688 298.944 
L 338.688 30.334099 
" style="fill:none;stroke:#000000;stroke-linecap:square;stroke-width:1.5;"/>
   </g>
   <g id="patch_3">
    <path d="M 57.6 298.944 
L 57.6 27.648 
" style="fill:none;stroke:#000000;stroke-linecap:square;stroke-linejoin:miter;stroke-width:0.8;"/>
   </g>
   <g id="patch_4">
    <path d="M 338.688 298.944 
L 338.688 27.648 
" style="fill:none;stroke:#000000;stroke-linecap:square;stroke-linejoin:miter;stroke-width:0.8;"/>
   </g>
   <g id="patch_5">
    <path d="M 57.6 298.944 
L 338.688 298.944 
" style="fill:none;stroke:#000000;stroke-linecap:square;stroke-linejoin:miter;stroke-width:0.8;"/>
   </g>
   <g id="patch_6">
    <path d="M 57.6 27.648 
L 338.688 27.648 
" style="fill:none;stroke:#000000;stroke-linecap:square;stroke-linejoin:miter;stroke-width:0.8;"/>
   </g>
   <g id="text_13">
    <!-- pop10 -->
    <g transform="translate(375.22944 298.262739)scale(0.17 -0.17)">
     <use xlink:href="#DejaVuSans-112"/>
     <use x="63.476562" xlink:href="#DejaVuSans-111"/>
     <use x="124.658203" xlink:href="#DejaVuSans-112"/>
     <use x="188.134766" xlink:href="#DejaVuSans-49"/>
     <use x="251.757812" xlink:href="#DejaVuSans-48"/>
    </g>
   </g>
   <g id="text_14">
    <!-- pop100 -->
    <g transform="translate(375.22944 255.285155)scale(0.17 -0.17)">
     <use xlink:href="#DejaVuSans-112"/>
     <use x="63.476562" xlink:href="#DejaVuSans-111"/>
     <use x="124.658203" xlink:href="#DejaVuSans-112"/>
     <use x="188.134766" xlink:href="#DejaVuSans-49"/>
     <use x="251.757812" xlink:href="#DejaVuSans-48"/>
     <use x="315.380859" xlink:href="#DejaVuSans-48"/>
    </g>
   </g>
   <g id="text_15">
    <!-- pop100xDI -->
    <g transform="translate(375.22944 212.307571)scale(0.17 -0.17)">
     <defs>
      <path d="M 54.890625 54.6875 
L 35.109375 28.078125 
L 55.90625 0 
L 45.3125 0 
L 29.390625 21.484375 
L 13.484375 0 
L 2.875 0 
L 24.125 28.609375 
L 4.6875 54.6875 
L 15.28125 54.6875 
L 29.78125 35.203125 
L 44.28125 54.6875 
z
" id="DejaVuSans-120"/>
      <path d="M 19.671875 64.796875 
L 19.671875 8.109375 
L 31.59375 8.109375 
Q 46.6875 8.109375 53.6875 14.9375 
Q 60.6875 21.78125 60.6875 36.53125 
Q 60.6875 51.171875 53.6875 57.984375 
Q 46.6875 64.796875 31.59375 64.796875 
z
M 9.8125 72.90625 
L 30.078125 72.90625 
Q 51.265625 72.90625 61.171875 64.09375 
Q 71.09375 55.28125 71.09375 36.53125 
Q 71.09375 17.671875 61.125 8.828125 
Q 51.171875 0 30.078125 0 
L 9.8125 0 
z
" id="DejaVuSans-68"/>
      <path d="M 9.8125 72.90625 
L 19.671875 72.90625 
L 19.671875 0 
L 9.8125 0 
z
" id="DejaVuSans-73"/>
     </defs>
     <use xlink:href="#DejaVuSans-112"/>
     <use x="63.476562" xlink:href="#DejaVuSans-111"/>
     <use x="124.658203" xlink:href="#DejaVuSans-112"/>
     <use x="188.134766" xlink:href="#DejaVuSans-49"/>
     <use x="251.757812" xlink:href="#DejaVuSans-48"/>
     <use x="315.380859" xlink:href="#DejaVuSans-48"/>
     <use x="379.003906" xlink:href="#DejaVuSans-120"/>
     <use x="438.183594" xlink:href="#DejaVuSans-68"/>
     <use x="515.185547" xlink:href="#DejaVuSans-73"/>
    </g>
   </g>
   <g id="text_16">
    <!-- pop40 -->
    <g transform="translate(375.22944 169.329987)scale(0.17 -0.17)">
     <use xlink:href="#DejaVuSans-112"/>
     <use x="63.476562" xlink:href="#DejaVuSans-111"/>
     <use x="124.658203" xlink:href="#DejaVuSans-112"/>
     <use x="188.134766" xlink:href="#DejaVuSans-52"/>
     <use x="251.757812" xlink:href="#DejaVuSans-48"/>
    </g>
   </g>
   <g id="text_17">
    <!-- pop50 -->
    <g transform="translate(375.22944 126.352403)scale(0.17 -0.17)">
     <defs>
      <path d="M 10.796875 72.90625 
L 49.515625 72.90625 
L 49.515625 64.59375 
L 19.828125 64.59375 
L 19.828125 46.734375 
Q 21.96875 47.46875 24.109375 47.828125 
Q 26.265625 48.1875 28.421875 48.1875 
Q 40.625 48.1875 47.75 41.5 
Q 54.890625 34.8125 54.890625 23.390625 
Q 54.890625 11.625 47.5625 5.09375 
Q 40.234375 -1.421875 26.90625 -1.421875 
Q 22.3125 -1.421875 17.546875 -0.640625 
Q 12.796875 0.140625 7.71875 1.703125 
L 7.71875 11.625 
Q 12.109375 9.234375 16.796875 8.0625 
Q 21.484375 6.890625 26.703125 6.890625 
Q 35.15625 6.890625 40.078125 11.328125 
Q 45.015625 15.765625 45.015625 23.390625 
Q 45.015625 31 40.078125 35.4375 
Q 35.15625 39.890625 26.703125 39.890625 
Q 22.75 39.890625 18.8125 39.015625 
Q 14.890625 38.140625 10.796875 36.28125 
z
" id="DejaVuSans-53"/>
     </defs>
     <use xlink:href="#DejaVuSans-112"/>
     <use x="63.476562" xlink:href="#DejaVuSans-111"/>
     <use x="124.658203" xlink:href="#DejaVuSans-112"/>
     <use x="188.134766" xlink:href="#DejaVuSans-53"/>
     <use x="251.757812" xlink:href="#DejaVuSans-48"/>
    </g>
   </g>
   <g id="text_18">
    <!-- pop200 -->
    <g transform="translate(375.22944 83.374819)scale(0.17 -0.17)">
     <use xlink:href="#DejaVuSans-112"/>
     <use x="63.476562" xlink:href="#DejaVuSans-111"/>
     <use x="124.658203" xlink:href="#DejaVuSans-112"/>
     <use x="188.134766" xlink:href="#DejaVuSans-50"/>
     <use x="251.757812" xlink:href="#DejaVuSans-48"/>
     <use x="315.380859" xlink:href="#DejaVuSans-48"/>
    </g>
   </g>
   <g id="text_19">
    <!-- best 2009 -->
    <g transform="translate(375.22944 40.397235)scale(0.17 -0.17)">
     <defs>
      <path d="M 48.6875 27.296875 
Q 48.6875 37.203125 44.609375 42.84375 
Q 40.53125 48.484375 33.40625 48.484375 
Q 26.265625 48.484375 22.1875 42.84375 
Q 18.109375 37.203125 18.109375 27.296875 
Q 18.109375 17.390625 22.1875 11.75 
Q 26.265625 6.109375 33.40625 6.109375 
Q 40.53125 6.109375 44.609375 11.75 
Q 48.6875 17.390625 48.6875 27.296875 
z
M 18.109375 46.390625 
Q 20.953125 51.265625 25.265625 53.625 
Q 29.59375 56 35.59375 56 
Q 45.5625 56 51.78125 48.09375 
Q 58.015625 40.1875 58.015625 27.296875 
Q 58.015625 14.40625 51.78125 6.484375 
Q 45.5625 -1.421875 35.59375 -1.421875 
Q 29.59375 -1.421875 25.265625 0.953125 
Q 20.953125 3.328125 18.109375 8.203125 
L 18.109375 0 
L 9.078125 0 
L 9.078125 75.984375 
L 18.109375 75.984375 
z
" id="DejaVuSans-98"/>
      <path d="M 10.984375 1.515625 
L 10.984375 10.5 
Q 14.703125 8.734375 18.5 7.8125 
Q 22.3125 6.890625 25.984375 6.890625 
Q 35.75 6.890625 40.890625 13.453125 
Q 46.046875 20.015625 46.78125 33.40625 
Q 43.953125 29.203125 39.59375 26.953125 
Q 35.25 24.703125 29.984375 24.703125 
Q 19.046875 24.703125 12.671875 31.3125 
Q 6.296875 37.9375 6.296875 49.421875 
Q 6.296875 60.640625 12.9375 67.421875 
Q 19.578125 74.21875 30.609375 74.21875 
Q 43.265625 74.21875 49.921875 64.515625 
Q 56.59375 54.828125 56.59375 36.375 
Q 56.59375 19.140625 48.40625 8.859375 
Q 40.234375 -1.421875 26.421875 -1.421875 
Q 22.703125 -1.421875 18.890625 -0.6875 
Q 15.09375 0.046875 10.984375 1.515625 
z
M 30.609375 32.421875 
Q 37.25 32.421875 41.125 36.953125 
Q 45.015625 41.5 45.015625 49.421875 
Q 45.015625 57.28125 41.125 61.84375 
Q 37.25 66.40625 30.609375 66.40625 
Q 23.96875 66.40625 20.09375 61.84375 
Q 16.21875 57.28125 16.21875 49.421875 
Q 16.21875 41.5 20.09375 36.953125 
Q 23.96875 32.421875 30.609375 32.421875 
z
" id="DejaVuSans-57"/>
     </defs>
     <use xlink:href="#DejaVuSans-98"/>
     <use x="63.476562" xlink:href="#DejaVuSans-101"/>
     <use x="125" xlink:href="#DejaVuSans-115"/>
     <use x="177.099609" xlink:href="#DejaVuSans-116"/>
     <use x="216.308594" xlink:href="#DejaVuSans-32"/>
     <use x="248.095703" xlink:href="#DejaVuSans-50"/>
     <use x="311.71875" xlink:href="#DejaVuSans-48"/>
     <use x="375.341797" xlink:href="#DejaVuSans-48"/>
     <use x="438.964844" xlink:href="#DejaVuSans-57"/>
    </g>
   </g>
   <g id="text_20">
    <!-- bbob f17, 20-D -->
    <g transform="translate(60.41088 38.111366)scale(0.102 -0.102)">
     <defs>
      <path d="M 8.203125 72.90625 
L 55.078125 72.90625 
L 55.078125 68.703125 
L 28.609375 0 
L 18.3125 0 
L 43.21875 64.59375 
L 8.203125 64.59375 
z
" id="DejaVuSans-55"/>
     </defs>
     <use xlink:href="#DejaVuSans-98"/>
     <use x="63.476562" xlink:href="#DejaVuSans-98"/>
     <use x="126.953125" xlink:href="#DejaVuSans-111"/>
     <use x="188.134766" xlink:href="#DejaVuSans-98"/>
     <use x="251.611328" xlink:href="#DejaVuSans-32"/>
     <use x="283.398438" xlink:href="#DejaVuSans-102"/>
     <use x="318.603516" xlink:href="#DejaVuSans-49"/>
     <use x="382.226562" xlink:href="#DejaVuSans-55"/>
     <use x="445.849609" xlink:href="#DejaVuSans-44"/>
     <use x="477.636719" xlink:href="#DejaVuSans-32"/>
     <use x="509.423828" xlink:href="#DejaVuSans-50"/>
     <use x="573.046875" xlink:href="#DejaVuSans-48"/>
     <use x="636.669922" xlink:href="#DejaVuSans-45"/>
     <use x="672.753906" xlink:href="#DejaVuSans-68"/>
    </g>
    <!-- 51 targets: 100..1e-08 -->
    <g transform="translate(60.41088 49.533135)scale(0.102 -0.102)">
     <defs>
      <path d="M 11.71875 12.40625 
L 22.015625 12.40625 
L 22.015625 0 
L 11.71875 0 
z
M 11.71875 51.703125 
L 22.015625 51.703125 
L 22.015625 39.3125 
L 11.71875 39.3125 
z
" id="DejaVuSans-58"/>
     </defs>
     <use xlink:href="#DejaVuSans-53"/>
     <use x="63.623047" xlink:href="#DejaVuSans-49"/>
     <use x="127.246094" xlink:href="#DejaVuSans-32"/>
     <use x="159.033203" xlink:href="#DejaVuSans-116"/>
     <use x="198.242188" xlink:href="#DejaVuSans-97"/>
     <use x="259.521484" xlink:href="#DejaVuSans-114"/>
     <use x="298.884766" xlink:href="#DejaVuSans-103"/>
     <use x="362.361328" xlink:href="#DejaVuSans-101"/>
     <use x="423.884766" xlink:href="#DejaVuSans-116"/>
     <use x="463.09375" xlink:href="#DejaVuSans-115"/>
     <use x="515.193359" xlink:href="#DejaVuSans-58"/>
     <use x="548.884766" xlink:href="#DejaVuSans-32"/>
     <use x="580.671875" xlink:href="#DejaVuSans-49"/>
     <use x="644.294922" xlink:href="#DejaVuSans-48"/>
     <use x="707.917969" xlink:href="#DejaVuSans-48"/>
     <use x="771.541016" xlink:href="#DejaVuSans-46"/>
     <use x="803.328125" xlink:href="#DejaVuSans-46"/>
     <use x="835.115234" xlink:href="#DejaVuSans-49"/>
     <use x="898.738281" xlink:href="#DejaVuSans-101"/>
     <use x="960.261719" xlink:href="#DejaVuSans-45"/>
     <use x="996.345703" xlink:href="#DejaVuSans-48"/>
     <use x="1059.96875" xlink:href="#DejaVuSans-56"/>
    </g>
    <!-- 15 instances -->
    <g transform="translate(60.41088 60.954904)scale(0.102 -0.102)">
     <use xlink:href="#DejaVuSans-49"/>
     <use x="63.623047" xlink:href="#DejaVuSans-53"/>
     <use x="127.246094" xlink:href="#DejaVuSans-32"/>
     <use x="159.033203" xlink:href="#DejaVuSans-105"/>
     <use x="186.816406" xlink:href="#DejaVuSans-110"/>
     <use x="250.195312" xlink:href="#DejaVuSans-115"/>
     <use x="302.294922" xlink:href="#DejaVuSans-116"/>
     <use x="341.503906" xlink:href="#DejaVuSans-97"/>
     <use x="402.783203" xlink:href="#DejaVuSans-110"/>
     <use x="466.162109" xlink:href="#DejaVuSans-99"/>
     <use x="521.142578" xlink:href="#DejaVuSans-101"/>
     <use x="582.666016" xlink:href="#DejaVuSans-115"/>
    </g>
   </g>
   <g id="text_21">
    <!-- v2.4 -->
    <g style="fill:#808080;" transform="translate(187.233062 294.151352)scale(0.1 -0.1)">
     <use xlink:href="#DejaVuSans-118"/>
     <use x="59.179688" xlink:href="#DejaVuSans-50"/>
     <use x="122.802734" xlink:href="#DejaVuSans-46"/>
     <use x="154.589844" xlink:href="#DejaVuSans-52"/>
    </g>
   </g>
   <g id="text_22">
    <!-- 17 Schaffer F7, condition 10 -->
    <g transform="translate(56.836187 21.648)scale(0.2 -0.2)">
     <defs>
      <path d="M 53.515625 70.515625 
L 53.515625 60.890625 
Q 47.90625 63.578125 42.921875 64.890625 
Q 37.9375 66.21875 33.296875 66.21875 
Q 25.25 66.21875 20.875 63.09375 
Q 16.5 59.96875 16.5 54.203125 
Q 16.5 49.359375 19.40625 46.890625 
Q 22.3125 44.4375 30.421875 42.921875 
L 36.375 41.703125 
Q 47.40625 39.59375 52.65625 34.296875 
Q 57.90625 29 57.90625 20.125 
Q 57.90625 9.515625 50.796875 4.046875 
Q 43.703125 -1.421875 29.984375 -1.421875 
Q 24.8125 -1.421875 18.96875 -0.25 
Q 13.140625 0.921875 6.890625 3.21875 
L 6.890625 13.375 
Q 12.890625 10.015625 18.65625 8.296875 
Q 24.421875 6.59375 29.984375 6.59375 
Q 38.421875 6.59375 43.015625 9.90625 
Q 47.609375 13.234375 47.609375 19.390625 
Q 47.609375 24.75 44.3125 27.78125 
Q 41.015625 30.8125 33.5 32.328125 
L 27.484375 33.5 
Q 16.453125 35.6875 11.515625 40.375 
Q 6.59375 45.0625 6.59375 53.421875 
Q 6.59375 63.09375 13.40625 68.65625 
Q 20.21875 74.21875 32.171875 74.21875 
Q 37.3125 74.21875 42.625 73.28125 
Q 47.953125 72.359375 53.515625 70.515625 
z
" id="DejaVuSans-83"/>
      <path d="M 54.890625 33.015625 
L 54.890625 0 
L 45.90625 0 
L 45.90625 32.71875 
Q 45.90625 40.484375 42.875 44.328125 
Q 39.84375 48.1875 33.796875 48.1875 
Q 26.515625 48.1875 22.3125 43.546875 
Q 18.109375 38.921875 18.109375 30.90625 
L 18.109375 0 
L 9.078125 0 
L 9.078125 75.984375 
L 18.109375 75.984375 
L 18.109375 46.1875 
Q 21.34375 51.125 25.703125 53.5625 
Q 30.078125 56 35.796875 56 
Q 45.21875 56 50.046875 50.171875 
Q 54.890625 44.34375 54.890625 33.015625 
z
" id="DejaVuSans-104"/>
     </defs>
     <use xlink:href="#DejaVuSans-49"/>
     <use x="63.623047" xlink:href="#DejaVuSans-55"/>
     <use x="127.246094" xlink:href="#DejaVuSans-32"/>
     <use x="159.033203" xlink:href="#DejaVuSans-83"/>
     <use x="222.509766" xlink:href="#DejaVuSans-99"/>
     <use x="277.490234" xlink:href="#DejaVuSans-104"/>
     <use x="340.869141" xlink:href="#DejaVuSans-97"/>
     <use x="402.148438" xlink:href="#DejaVuSans-102"/>
     <use x="437.353516" xlink:href="#DejaVuSans-102"/>
     <use x="472.558594" xlink:href="#DejaVuSans-101"/>
     <use x="534.082031" xlink:href="#DejaVuSans-114"/>
     <use x="575.195312" xlink:href="#DejaVuSans-32"/>
     <use x="606.982422" xlink:href="#DejaVuSans-70"/>
     <use x="664.501953" xlink:href="#DejaVuSans-55"/>
     <use x="728.125" xlink:href="#DejaVuSans-44"/>
     <use x="759.912109" xlink:href="#DejaVuSans-32"/>
     <use x="791.699219" xlink:href="#DejaVuSans-99"/>
     <use x="846.679688" xlink:href="#DejaVuSans-111"/>
     <use x="907.861328" xlink:href="#DejaVuSans-110"/>
     <use x="971.240234" xlink:href="#DejaVuSans-100"/>
     <use x="1034.716797" xlink:href="#DejaVuSans-105"/>
     <use x="1062.5" xlink:href="#DejaVuSans-116"/>
     <use x="1101.708984" xlink:href="#DejaVuSans-105"/>
     <use x="1129.492188" xlink:href="#DejaVuSans-111"/>
     <use x="1190.673828" xlink:href="#DejaVuSans-110"/>
     <use x="1254.052734" xlink:href="#DejaVuSans-32"/>
     <use x="1285.839844" xlink:href="#DejaVuSans-49"/>
     <use x="1349.462891" xlink:href="#DejaVuSans-48"/>
    </g>
   </g>
  </g>
 </g>
 <defs>
  <clipPath id="p51ccfa3908">
   <rect height="271.296" width="281.088" x="57.6" y="27.648"/>
  </clipPath>
 </defs>
</svg>
