<?xml version="1.0" encoding="utf-8" standalone="no"?>
<!DOCTYPE svg PUBLIC "-//W3C//DTD SVG 1.1//EN"
  "http://www.w3.org/Graphics/SVG/1.1/DTD/svg11.dtd">
<!-- Created with matplotlib (https://matplotlib.org/) -->
<svg height="345.6pt" version="1.1" viewBox="0 0 460.8 345.6" width="460.8pt" xmlns="http://www.w3.org/2000/svg" xmlns:xlink="http://www.w3.org/1999/xlink">
 <metadata>
  <rdf:RDF xmlns:cc="http://creativecommons.org/ns#" xmlns:dc="http://purl.org/dc/elements/1.1/" xmlns:rdf="http://www.w3.org/1999/02/22-rdf-syntax-ns#">
   <cc:Work>
    <dc:type rdf:resource="http://purl.org/dc/dcmitype/StillImage"/>
    <dc:date>2021-04-18T18:04:11.370314</dc:date>
    <dc:format>image/svg+xml</dc:format>
    <dc:creator>
     <cc:Agent>
      <dc:title>Matplotlib v3.3.4, https://matplotlib.org/</dc:title>
     </cc:Agent>
    </dc:creator>
   </cc:Work>
  </rdf:RDF>
 </metadata>
 <defs>
  <style type="text/css">*{stroke-linecap:butt;stroke-linejoin:round;}</style>
 </defs>
 <g id="figure_1">
  <g id="patch_1">
   <path d="M 0 345.6 
L 460.8 345.6 
L 460.8 0 
L 0 0 
z
" style="fill:#ffffff;"/>
  </g>
  <g id="axes_1">
   <g id="patch_2">
    <path d="M 57.6 298.944 
L 338.688 298.944 
L 338.688 27.648 
L 57.6 27.648 
z
" style="fill:#ffffff;"/>
   </g>
   <g id="line2d_1">
    <path d="M 115.397021 298.944 
L 115.397021 293.677139 
L 116.562116 293.677139 
L 116.562116 283.143418 
L 119.702083 283.143418 
L 119.702083 277.876557 
L 124.216444 277.876557 
L 124.216444 272.609696 
L 126.338353 272.609696 
L 126.338353 267.342835 
L 127.516689 267.342835 
L 127.516689 262.075974 
L 129.714332 262.075974 
L 129.714332 256.809114 
L 131.640805 256.809114 
L 131.640805 251.542253 
L 133.866129 251.542253 
L 133.866129 246.275392 
L 135.995765 246.275392 
L 135.995765 241.008531 
L 137.415591 241.008531 
L 137.415591 235.74167 
L 138.861092 235.74167 
L 138.861092 230.47481 
L 140.088482 230.47481 
L 140.088482 225.207949 
L 140.944478 225.207949 
L 140.944478 219.941088 
L 141.662245 219.941088 
L 141.662245 214.674227 
L 142.188649 214.674227 
L 142.188649 209.407366 
L 142.579953 209.407366 
L 142.579953 204.140506 
L 143.040814 204.140506 
L 143.040814 198.873645 
L 143.388196 198.873645 
L 143.388196 193.606784 
L 143.653678 193.606784 
L 143.653678 188.339923 
L 144.18499 188.339923 
L 144.18499 183.073062 
L 144.582038 183.073062 
L 144.582038 177.806202 
L 144.958609 177.806202 
L 144.958609 172.539341 
L 145.350002 172.539341 
L 145.350002 167.27248 
L 145.76618 167.27248 
L 145.76618 162.005619 
L 146.150926 162.005619 
L 146.150926 156.738758 
L 146.559258 156.738758 
L 146.559258 151.471897 
L 147.95678 151.471897 
L 147.95678 146.205037 
L 148.296548 146.205037 
L 148.296548 140.938176 
L 149.770648 140.938176 
L 149.770648 135.671315 
L 150.042389 135.671315 
L 150.042389 130.404454 
L 150.412445 130.404454 
L 150.412445 125.137593 
L 156.460597 125.137593 
L 156.460597 119.870733 
L 160.346039 119.870733 
L 160.346039 114.603872 
L 160.537682 114.603872 
L 160.537682 109.337011 
L 160.689494 109.337011 
L 160.689494 104.07015 
L 162.397949 104.07015 
L 162.397949 98.803289 
L 164.191193 98.803289 
L 164.191193 93.536429 
L 165.09112 93.536429 
L 165.09112 88.269568 
L 165.375047 88.269568 
L 165.375047 83.002707 
L 165.625977 83.002707 
L 165.625977 77.735846 
L 165.85228 77.735846 
L 165.85228 72.468985 
L 166.079153 72.468985 
L 166.079153 67.202125 
L 166.306535 67.202125 
L 166.306535 61.935264 
L 166.507321 61.935264 
L 166.507321 56.668403 
L 166.729224 56.668403 
L 166.729224 51.401542 
L 166.905396 51.401542 
L 166.905396 46.134681 
L 167.099442 46.134681 
L 167.099442 40.867821 
L 167.313982 40.867821 
L 167.313982 35.60096 
L 167.545055 35.60096 
L 167.545055 30.334099 
L 338.688 30.334099 
" style="fill:none;stroke:#f5deb3;stroke-linecap:square;stroke-width:4;"/>
   </g>
   <g id="line2d_2">
    <defs>
     <path d="M -0 7.778175 
L 7.778175 0 
L 0 -7.778175 
L -7.778175 -0 
z
" id="mded09c7400" style="stroke:#f5deb3;stroke-linejoin:miter;stroke-width:1.5;"/>
    </defs>
    <g>
     <use style="fill:#f5deb3;stroke:#f5deb3;stroke-linejoin:miter;stroke-width:1.5;" x="144.958609" xlink:href="#mded09c7400" y="177.806202"/>
     <use style="fill:#f5deb3;stroke:#f5deb3;stroke-linejoin:miter;stroke-width:1.5;" x="166.079153" xlink:href="#mded09c7400" y="67.202125"/>
     <use style="fill:#f5deb3;stroke:#f5deb3;stroke-linejoin:miter;stroke-width:1.5;" x="167.545055" xlink:href="#mded09c7400" y="30.334099"/>
     <use style="fill:#f5deb3;stroke:#f5deb3;stroke-linejoin:miter;stroke-width:1.5;" x="167.545055" xlink:href="#mded09c7400" y="30.334099"/>
     <use style="fill:#f5deb3;stroke:#f5deb3;stroke-linejoin:miter;stroke-width:1.5;" x="338.688" xlink:href="#mded09c7400" y="30.334099"/>
    </g>
   </g>
   <g id="line2d_3">
    <path style="fill:none;stroke:#f5deb3;stroke-linecap:square;stroke-width:4;"/>
    <g/>
   </g>
   <g id="line2d_4">
    <path d="M 338.688 30.334099 
L 369.60768 35.706297 
" style="fill:none;stroke:#f5deb3;stroke-linecap:square;stroke-width:4;"/>
    <g>
     <use style="fill:#f5deb3;stroke:#f5deb3;stroke-linejoin:miter;stroke-width:1.5;" x="338.688" xlink:href="#mded09c7400" y="30.334099"/>
     <use style="fill:#f5deb3;stroke:#f5deb3;stroke-linejoin:miter;stroke-width:1.5;" x="369.60768" xlink:href="#mded09c7400" y="35.706297"/>
    </g>
   </g>
   <g id="matplotlib.axis_1">
    <g id="xtick_1">
     <g id="line2d_5">
      <path clip-path="url(#pe58895b7a4)" d="M 57.6 298.944 
L 57.6 27.648 
" style="fill:none;stroke:#b0b0b0;stroke-linecap:square;stroke-width:0.8;"/>
     </g>
     <g id="line2d_6">
      <defs>
       <path d="M 0 0 
L 0 3.5 
" id="m9b85080e4d" style="stroke:#000000;stroke-width:0.8;"/>
      </defs>
      <g>
       <use style="stroke:#000000;stroke-width:0.8;" x="57.6" xlink:href="#m9b85080e4d" y="298.944"/>
      </g>
     </g>
     <g id="text_1">
      <!-- 0 -->
      <g transform="translate(51.2375 321.140875)scale(0.2 -0.2)">
       <defs>
        <path d="M 31.78125 66.40625 
Q 24.171875 66.40625 20.328125 58.90625 
Q 16.5 51.421875 16.5 36.375 
Q 16.5 21.390625 20.328125 13.890625 
Q 24.171875 6.390625 31.78125 6.390625 
Q 39.453125 6.390625 43.28125 13.890625 
Q 47.125 21.390625 47.125 36.375 
Q 47.125 51.421875 43.28125 58.90625 
Q 39.453125 66.40625 31.78125 66.40625 
z
M 31.78125 74.21875 
Q 44.046875 74.21875 50.515625 64.515625 
Q 56.984375 54.828125 56.984375 36.375 
Q 56.984375 17.96875 50.515625 8.265625 
Q 44.046875 -1.421875 31.78125 -1.421875 
Q 19.53125 -1.421875 13.0625 8.265625 
Q 6.59375 17.96875 6.59375 36.375 
Q 6.59375 54.828125 13.0625 64.515625 
Q 19.53125 74.21875 31.78125 74.21875 
z
" id="DejaVuSans-48"/>
       </defs>
       <use xlink:href="#DejaVuSans-48"/>
      </g>
     </g>
    </g>
    <g id="xtick_2">
     <g id="line2d_7">
      <path clip-path="url(#pe58895b7a4)" d="M 137.910857 298.944 
L 137.910857 27.648 
" style="fill:none;stroke:#b0b0b0;stroke-linecap:square;stroke-width:0.8;"/>
     </g>
     <g id="line2d_8">
      <g>
       <use style="stroke:#000000;stroke-width:0.8;" x="137.910857" xlink:href="#m9b85080e4d" y="298.944"/>
      </g>
     </g>
     <g id="text_2">
      <!-- 2 -->
      <g transform="translate(131.548357 321.140875)scale(0.2 -0.2)">
       <defs>
        <path d="M 19.1875 8.296875 
L 53.609375 8.296875 
L 53.609375 0 
L 7.328125 0 
L 7.328125 8.296875 
Q 12.9375 14.109375 22.625 23.890625 
Q 32.328125 33.6875 34.8125 36.53125 
Q 39.546875 41.84375 41.421875 45.53125 
Q 43.3125 49.21875 43.3125 52.78125 
Q 43.3125 58.59375 39.234375 62.25 
Q 35.15625 65.921875 28.609375 65.921875 
Q 23.96875 65.921875 18.8125 64.3125 
Q 13.671875 62.703125 7.8125 59.421875 
L 7.8125 69.390625 
Q 13.765625 71.78125 18.9375 73 
Q 24.125 74.21875 28.421875 74.21875 
Q 39.75 74.21875 46.484375 68.546875 
Q 53.21875 62.890625 53.21875 53.421875 
Q 53.21875 48.921875 51.53125 44.890625 
Q 49.859375 40.875 45.40625 35.40625 
Q 44.1875 33.984375 37.640625 27.21875 
Q 31.109375 20.453125 19.1875 8.296875 
z
" id="DejaVuSans-50"/>
       </defs>
       <use xlink:href="#DejaVuSans-50"/>
      </g>
     </g>
    </g>
    <g id="xtick_3">
     <g id="line2d_9">
      <path clip-path="url(#pe58895b7a4)" d="M 218.221714 298.944 
L 218.221714 27.648 
" style="fill:none;stroke:#b0b0b0;stroke-linecap:square;stroke-width:0.8;"/>
     </g>
     <g id="line2d_10">
      <g>
       <use style="stroke:#000000;stroke-width:0.8;" x="218.221714" xlink:href="#m9b85080e4d" y="298.944"/>
      </g>
     </g>
     <g id="text_3">
      <!-- 4 -->
      <g transform="translate(211.859214 321.140875)scale(0.2 -0.2)">
       <defs>
        <path d="M 37.796875 64.3125 
L 12.890625 25.390625 
L 37.796875 25.390625 
z
M 35.203125 72.90625 
L 47.609375 72.90625 
L 47.609375 25.390625 
L 58.015625 25.390625 
L 58.015625 17.1875 
L 47.609375 17.1875 
L 47.609375 0 
L 37.796875 0 
L 37.796875 17.1875 
L 4.890625 17.1875 
L 4.890625 26.703125 
z
" id="DejaVuSans-52"/>
       </defs>
       <use xlink:href="#DejaVuSans-52"/>
      </g>
     </g>
    </g>
    <g id="xtick_4">
     <g id="line2d_11">
      <path clip-path="url(#pe58895b7a4)" d="M 298.532571 298.944 
L 298.532571 27.648 
" style="fill:none;stroke:#b0b0b0;stroke-linecap:square;stroke-width:0.8;"/>
     </g>
     <g id="line2d_12">
      <g>
       <use style="stroke:#000000;stroke-width:0.8;" x="298.532571" xlink:href="#m9b85080e4d" y="298.944"/>
      </g>
     </g>
     <g id="text_4">
      <!-- 6 -->
      <g transform="translate(292.170071 321.140875)scale(0.2 -0.2)">
       <defs>
        <path d="M 33.015625 40.375 
Q 26.375 40.375 22.484375 35.828125 
Q 18.609375 31.296875 18.609375 23.390625 
Q 18.609375 15.53125 22.484375 10.953125 
Q 26.375 6.390625 33.015625 6.390625 
Q 39.65625 6.390625 43.53125 10.953125 
Q 47.40625 15.53125 47.40625 23.390625 
Q 47.40625 31.296875 43.53125 35.828125 
Q 39.65625 40.375 33.015625 40.375 
z
M 52.59375 71.296875 
L 52.59375 62.3125 
Q 48.875 64.0625 45.09375 64.984375 
Q 41.3125 65.921875 37.59375 65.921875 
Q 27.828125 65.921875 22.671875 59.328125 
Q 17.53125 52.734375 16.796875 39.40625 
Q 19.671875 43.65625 24.015625 45.921875 
Q 28.375 48.1875 33.59375 48.1875 
Q 44.578125 48.1875 50.953125 41.515625 
Q 57.328125 34.859375 57.328125 23.390625 
Q 57.328125 12.15625 50.6875 5.359375 
Q 44.046875 -1.421875 33.015625 -1.421875 
Q 20.359375 -1.421875 13.671875 8.265625 
Q 6.984375 17.96875 6.984375 36.375 
Q 6.984375 53.65625 15.1875 63.9375 
Q 23.390625 74.21875 37.203125 74.21875 
Q 40.921875 74.21875 44.703125 73.484375 
Q 48.484375 72.75 52.59375 71.296875 
z
" id="DejaVuSans-54"/>
       </defs>
       <use xlink:href="#DejaVuSans-54"/>
      </g>
     </g>
    </g>
    <g id="xtick_5">
     <g id="line2d_13">
      <path clip-path="url(#pe58895b7a4)" d="M 97.755429 298.944 
L 97.755429 27.648 
" style="fill:none;stroke:#b0b0b0;stroke-linecap:square;stroke-width:0.8;"/>
     </g>
     <g id="line2d_14">
      <defs>
       <path d="M 0 0 
L 0 2 
" id="mebed5ce14d" style="stroke:#000000;stroke-width:0.6;"/>
      </defs>
      <g>
       <use style="stroke:#000000;stroke-width:0.6;" x="97.755429" xlink:href="#mebed5ce14d" y="298.944"/>
      </g>
     </g>
    </g>
    <g id="xtick_6">
     <g id="line2d_15">
      <path clip-path="url(#pe58895b7a4)" d="M 178.066286 298.944 
L 178.066286 27.648 
" style="fill:none;stroke:#b0b0b0;stroke-linecap:square;stroke-width:0.8;"/>
     </g>
     <g id="line2d_16">
      <g>
       <use style="stroke:#000000;stroke-width:0.6;" x="178.066286" xlink:href="#mebed5ce14d" y="298.944"/>
      </g>
     </g>
    </g>
    <g id="xtick_7">
     <g id="line2d_17">
      <path clip-path="url(#pe58895b7a4)" d="M 258.377143 298.944 
L 258.377143 27.648 
" style="fill:none;stroke:#b0b0b0;stroke-linecap:square;stroke-width:0.8;"/>
     </g>
     <g id="line2d_18">
      <g>
       <use style="stroke:#000000;stroke-width:0.6;" x="258.377143" xlink:href="#mebed5ce14d" y="298.944"/>
      </g>
     </g>
    </g>
    <g id="xtick_8">
     <g id="line2d_19">
      <path clip-path="url(#pe58895b7a4)" d="M 338.688 298.944 
L 338.688 27.648 
" style="fill:none;stroke:#b0b0b0;stroke-linecap:square;stroke-width:0.8;"/>
     </g>
     <g id="line2d_20">
      <g>
       <use style="stroke:#000000;stroke-width:0.6;" x="338.688" xlink:href="#mebed5ce14d" y="298.944"/>
      </g>
     </g>
    </g>
    <g id="text_5">
     <!-- log10(# f-evals / dimension) -->
     <g transform="translate(77.764078 342.217594)scale(0.17 -0.17)">
      <defs>
       <path d="M 9.421875 75.984375 
L 18.40625 75.984375 
L 18.40625 0 
L 9.421875 0 
z
" id="DejaVuSans-108"/>
       <path d="M 30.609375 48.390625 
Q 23.390625 48.390625 19.1875 42.75 
Q 14.984375 37.109375 14.984375 27.296875 
Q 14.984375 17.484375 19.15625 11.84375 
Q 23.34375 6.203125 30.609375 6.203125 
Q 37.796875 6.203125 41.984375 11.859375 
Q 46.1875 17.53125 46.1875 27.296875 
Q 46.1875 37.015625 41.984375 42.703125 
Q 37.796875 48.390625 30.609375 48.390625 
z
M 30.609375 56 
Q 42.328125 56 49.015625 48.375 
Q 55.71875 40.765625 55.71875 27.296875 
Q 55.71875 13.875 49.015625 6.21875 
Q 42.328125 -1.421875 30.609375 -1.421875 
Q 18.84375 -1.421875 12.171875 6.21875 
Q 5.515625 13.875 5.515625 27.296875 
Q 5.515625 40.765625 12.171875 48.375 
Q 18.84375 56 30.609375 56 
z
" id="DejaVuSans-111"/>
       <path d="M 45.40625 27.984375 
Q 45.40625 37.75 41.375 43.109375 
Q 37.359375 48.484375 30.078125 48.484375 
Q 22.859375 48.484375 18.828125 43.109375 
Q 14.796875 37.75 14.796875 27.984375 
Q 14.796875 18.265625 18.828125 12.890625 
Q 22.859375 7.515625 30.078125 7.515625 
Q 37.359375 7.515625 41.375 12.890625 
Q 45.40625 18.265625 45.40625 27.984375 
z
M 54.390625 6.78125 
Q 54.390625 -7.171875 48.1875 -13.984375 
Q 42 -20.796875 29.203125 -20.796875 
Q 24.46875 -20.796875 20.265625 -20.09375 
Q 16.0625 -19.390625 12.109375 -17.921875 
L 12.109375 -9.1875 
Q 16.0625 -11.328125 19.921875 -12.34375 
Q 23.78125 -13.375 27.78125 -13.375 
Q 36.625 -13.375 41.015625 -8.765625 
Q 45.40625 -4.15625 45.40625 5.171875 
L 45.40625 9.625 
Q 42.625 4.78125 38.28125 2.390625 
Q 33.9375 0 27.875 0 
Q 17.828125 0 11.671875 7.65625 
Q 5.515625 15.328125 5.515625 27.984375 
Q 5.515625 40.671875 11.671875 48.328125 
Q 17.828125 56 27.875 56 
Q 33.9375 56 38.28125 53.609375 
Q 42.625 51.21875 45.40625 46.390625 
L 45.40625 54.6875 
L 54.390625 54.6875 
z
" id="DejaVuSans-103"/>
       <path d="M 12.40625 8.296875 
L 28.515625 8.296875 
L 28.515625 63.921875 
L 10.984375 60.40625 
L 10.984375 69.390625 
L 28.421875 72.90625 
L 38.28125 72.90625 
L 38.28125 8.296875 
L 54.390625 8.296875 
L 54.390625 0 
L 12.40625 0 
z
" id="DejaVuSans-49"/>
       <path d="M 31 75.875 
Q 24.46875 64.65625 21.28125 53.65625 
Q 18.109375 42.671875 18.109375 31.390625 
Q 18.109375 20.125 21.3125 9.0625 
Q 24.515625 -2 31 -13.1875 
L 23.1875 -13.1875 
Q 15.875 -1.703125 12.234375 9.375 
Q 8.59375 20.453125 8.59375 31.390625 
Q 8.59375 42.28125 12.203125 53.3125 
Q 15.828125 64.359375 23.1875 75.875 
z
" id="DejaVuSans-40"/>
       <path d="M 51.125 44 
L 36.921875 44 
L 32.8125 27.6875 
L 47.125 27.6875 
z
M 43.796875 71.78125 
L 38.71875 51.515625 
L 52.984375 51.515625 
L 58.109375 71.78125 
L 65.921875 71.78125 
L 60.890625 51.515625 
L 76.125 51.515625 
L 76.125 44 
L 58.984375 44 
L 54.984375 27.6875 
L 70.515625 27.6875 
L 70.515625 20.21875 
L 53.078125 20.21875 
L 48 0 
L 40.1875 0 
L 45.21875 20.21875 
L 30.90625 20.21875 
L 25.875 0 
L 18.015625 0 
L 23.09375 20.21875 
L 7.71875 20.21875 
L 7.71875 27.6875 
L 24.90625 27.6875 
L 29 44 
L 13.28125 44 
L 13.28125 51.515625 
L 30.90625 51.515625 
L 35.890625 71.78125 
z
" id="DejaVuSans-35"/>
       <path id="DejaVuSans-32"/>
       <path d="M 37.109375 75.984375 
L 37.109375 68.5 
L 28.515625 68.5 
Q 23.6875 68.5 21.796875 66.546875 
Q 19.921875 64.59375 19.921875 59.515625 
L 19.921875 54.6875 
L 34.71875 54.6875 
L 34.71875 47.703125 
L 19.921875 47.703125 
L 19.921875 0 
L 10.890625 0 
L 10.890625 47.703125 
L 2.296875 47.703125 
L 2.296875 54.6875 
L 10.890625 54.6875 
L 10.890625 58.5 
Q 10.890625 67.625 15.140625 71.796875 
Q 19.390625 75.984375 28.609375 75.984375 
z
" id="DejaVuSans-102"/>
       <path d="M 4.890625 31.390625 
L 31.203125 31.390625 
L 31.203125 23.390625 
L 4.890625 23.390625 
z
" id="DejaVuSans-45"/>
       <path d="M 56.203125 29.59375 
L 56.203125 25.203125 
L 14.890625 25.203125 
Q 15.484375 15.921875 20.484375 11.0625 
Q 25.484375 6.203125 34.421875 6.203125 
Q 39.59375 6.203125 44.453125 7.46875 
Q 49.3125 8.734375 54.109375 11.28125 
L 54.109375 2.78125 
Q 49.265625 0.734375 44.1875 -0.34375 
Q 39.109375 -1.421875 33.890625 -1.421875 
Q 20.796875 -1.421875 13.15625 6.1875 
Q 5.515625 13.8125 5.515625 26.8125 
Q 5.515625 40.234375 12.765625 48.109375 
Q 20.015625 56 32.328125 56 
Q 43.359375 56 49.78125 48.890625 
Q 56.203125 41.796875 56.203125 29.59375 
z
M 47.21875 32.234375 
Q 47.125 39.59375 43.09375 43.984375 
Q 39.0625 48.390625 32.421875 48.390625 
Q 24.90625 48.390625 20.390625 44.140625 
Q 15.875 39.890625 15.1875 32.171875 
z
" id="DejaVuSans-101"/>
       <path d="M 2.984375 54.6875 
L 12.5 54.6875 
L 29.59375 8.796875 
L 46.6875 54.6875 
L 56.203125 54.6875 
L 35.6875 0 
L 23.484375 0 
z
" id="DejaVuSans-118"/>
       <path d="M 34.28125 27.484375 
Q 23.390625 27.484375 19.1875 25 
Q 14.984375 22.515625 14.984375 16.5 
Q 14.984375 11.71875 18.140625 8.90625 
Q 21.296875 6.109375 26.703125 6.109375 
Q 34.1875 6.109375 38.703125 11.40625 
Q 43.21875 16.703125 43.21875 25.484375 
L 43.21875 27.484375 
z
M 52.203125 31.203125 
L 52.203125 0 
L 43.21875 0 
L 43.21875 8.296875 
Q 40.140625 3.328125 35.546875 0.953125 
Q 30.953125 -1.421875 24.3125 -1.421875 
Q 15.921875 -1.421875 10.953125 3.296875 
Q 6 8.015625 6 15.921875 
Q 6 25.140625 12.171875 29.828125 
Q 18.359375 34.515625 30.609375 34.515625 
L 43.21875 34.515625 
L 43.21875 35.40625 
Q 43.21875 41.609375 39.140625 45 
Q 35.0625 48.390625 27.6875 48.390625 
Q 23 48.390625 18.546875 47.265625 
Q 14.109375 46.140625 10.015625 43.890625 
L 10.015625 52.203125 
Q 14.9375 54.109375 19.578125 55.046875 
Q 24.21875 56 28.609375 56 
Q 40.484375 56 46.34375 49.84375 
Q 52.203125 43.703125 52.203125 31.203125 
z
" id="DejaVuSans-97"/>
       <path d="M 44.28125 53.078125 
L 44.28125 44.578125 
Q 40.484375 46.53125 36.375 47.5 
Q 32.28125 48.484375 27.875 48.484375 
Q 21.1875 48.484375 17.84375 46.4375 
Q 14.5 44.390625 14.5 40.28125 
Q 14.5 37.15625 16.890625 35.375 
Q 19.28125 33.59375 26.515625 31.984375 
L 29.59375 31.296875 
Q 39.15625 29.25 43.1875 25.515625 
Q 47.21875 21.78125 47.21875 15.09375 
Q 47.21875 7.46875 41.1875 3.015625 
Q 35.15625 -1.421875 24.609375 -1.421875 
Q 20.21875 -1.421875 15.453125 -0.5625 
Q 10.6875 0.296875 5.421875 2 
L 5.421875 11.28125 
Q 10.40625 8.6875 15.234375 7.390625 
Q 20.0625 6.109375 24.8125 6.109375 
Q 31.15625 6.109375 34.5625 8.28125 
Q 37.984375 10.453125 37.984375 14.40625 
Q 37.984375 18.0625 35.515625 20.015625 
Q 33.0625 21.96875 24.703125 23.78125 
L 21.578125 24.515625 
Q 13.234375 26.265625 9.515625 29.90625 
Q 5.8125 33.546875 5.8125 39.890625 
Q 5.8125 47.609375 11.28125 51.796875 
Q 16.75 56 26.8125 56 
Q 31.78125 56 36.171875 55.265625 
Q 40.578125 54.546875 44.28125 53.078125 
z
" id="DejaVuSans-115"/>
       <path d="M 25.390625 72.90625 
L 33.6875 72.90625 
L 8.296875 -9.28125 
L 0 -9.28125 
z
" id="DejaVuSans-47"/>
       <path d="M 45.40625 46.390625 
L 45.40625 75.984375 
L 54.390625 75.984375 
L 54.390625 0 
L 45.40625 0 
L 45.40625 8.203125 
Q 42.578125 3.328125 38.25 0.953125 
Q 33.9375 -1.421875 27.875 -1.421875 
Q 17.96875 -1.421875 11.734375 6.484375 
Q 5.515625 14.40625 5.515625 27.296875 
Q 5.515625 40.1875 11.734375 48.09375 
Q 17.96875 56 27.875 56 
Q 33.9375 56 38.25 53.625 
Q 42.578125 51.265625 45.40625 46.390625 
z
M 14.796875 27.296875 
Q 14.796875 17.390625 18.875 11.75 
Q 22.953125 6.109375 30.078125 6.109375 
Q 37.203125 6.109375 41.296875 11.75 
Q 45.40625 17.390625 45.40625 27.296875 
Q 45.40625 37.203125 41.296875 42.84375 
Q 37.203125 48.484375 30.078125 48.484375 
Q 22.953125 48.484375 18.875 42.84375 
Q 14.796875 37.203125 14.796875 27.296875 
z
" id="DejaVuSans-100"/>
       <path d="M 9.421875 54.6875 
L 18.40625 54.6875 
L 18.40625 0 
L 9.421875 0 
z
M 9.421875 75.984375 
L 18.40625 75.984375 
L 18.40625 64.59375 
L 9.421875 64.59375 
z
" id="DejaVuSans-105"/>
       <path d="M 52 44.1875 
Q 55.375 50.25 60.0625 53.125 
Q 64.75 56 71.09375 56 
Q 79.640625 56 84.28125 50.015625 
Q 88.921875 44.046875 88.921875 33.015625 
L 88.921875 0 
L 79.890625 0 
L 79.890625 32.71875 
Q 79.890625 40.578125 77.09375 44.375 
Q 74.3125 48.1875 68.609375 48.1875 
Q 61.625 48.1875 57.5625 43.546875 
Q 53.515625 38.921875 53.515625 30.90625 
L 53.515625 0 
L 44.484375 0 
L 44.484375 32.71875 
Q 44.484375 40.625 41.703125 44.40625 
Q 38.921875 48.1875 33.109375 48.1875 
Q 26.21875 48.1875 22.15625 43.53125 
Q 18.109375 38.875 18.109375 30.90625 
L 18.109375 0 
L 9.078125 0 
L 9.078125 54.6875 
L 18.109375 54.6875 
L 18.109375 46.1875 
Q 21.1875 51.21875 25.484375 53.609375 
Q 29.78125 56 35.6875 56 
Q 41.65625 56 45.828125 52.96875 
Q 50 49.953125 52 44.1875 
z
" id="DejaVuSans-109"/>
       <path d="M 54.890625 33.015625 
L 54.890625 0 
L 45.90625 0 
L 45.90625 32.71875 
Q 45.90625 40.484375 42.875 44.328125 
Q 39.84375 48.1875 33.796875 48.1875 
Q 26.515625 48.1875 22.3125 43.546875 
Q 18.109375 38.921875 18.109375 30.90625 
L 18.109375 0 
L 9.078125 0 
L 9.078125 54.6875 
L 18.109375 54.6875 
L 18.109375 46.1875 
Q 21.34375 51.125 25.703125 53.5625 
Q 30.078125 56 35.796875 56 
Q 45.21875 56 50.046875 50.171875 
Q 54.890625 44.34375 54.890625 33.015625 
z
" id="DejaVuSans-110"/>
       <path d="M 8.015625 75.875 
L 15.828125 75.875 
Q 23.140625 64.359375 26.78125 53.3125 
Q 30.421875 42.28125 30.421875 31.390625 
Q 30.421875 20.453125 26.78125 9.375 
Q 23.140625 -1.703125 15.828125 -13.1875 
L 8.015625 -13.1875 
Q 14.5 -2 17.703125 9.0625 
Q 20.90625 20.125 20.90625 31.390625 
Q 20.90625 42.671875 17.703125 53.65625 
Q 14.5 64.65625 8.015625 75.875 
z
" id="DejaVuSans-41"/>
      </defs>
      <use xlink:href="#DejaVuSans-108"/>
      <use x="27.783203" xlink:href="#DejaVuSans-111"/>
      <use x="88.964844" xlink:href="#DejaVuSans-103"/>
      <use x="152.441406" xlink:href="#DejaVuSans-49"/>
      <use x="216.064453" xlink:href="#DejaVuSans-48"/>
      <use x="279.6875" xlink:href="#DejaVuSans-40"/>
      <use x="318.701172" xlink:href="#DejaVuSans-35"/>
      <use x="402.490234" xlink:href="#DejaVuSans-32"/>
      <use x="434.277344" xlink:href="#DejaVuSans-102"/>
      <use x="463.982422" xlink:href="#DejaVuSans-45"/>
      <use x="500.066406" xlink:href="#DejaVuSans-101"/>
      <use x="561.589844" xlink:href="#DejaVuSans-118"/>
      <use x="620.769531" xlink:href="#DejaVuSans-97"/>
      <use x="682.048828" xlink:href="#DejaVuSans-108"/>
      <use x="709.832031" xlink:href="#DejaVuSans-115"/>
      <use x="761.931641" xlink:href="#DejaVuSans-32"/>
      <use x="793.71875" xlink:href="#DejaVuSans-47"/>
      <use x="827.410156" xlink:href="#DejaVuSans-32"/>
      <use x="859.197266" xlink:href="#DejaVuSans-100"/>
      <use x="922.673828" xlink:href="#DejaVuSans-105"/>
      <use x="950.457031" xlink:href="#DejaVuSans-109"/>
      <use x="1047.869141" xlink:href="#DejaVuSans-101"/>
      <use x="1109.392578" xlink:href="#DejaVuSans-110"/>
      <use x="1172.771484" xlink:href="#DejaVuSans-115"/>
      <use x="1224.871094" xlink:href="#DejaVuSans-105"/>
      <use x="1252.654297" xlink:href="#DejaVuSans-111"/>
      <use x="1313.835938" xlink:href="#DejaVuSans-110"/>
      <use x="1377.214844" xlink:href="#DejaVuSans-41"/>
     </g>
    </g>
   </g>
   <g id="matplotlib.axis_2">
    <g id="ytick_1">
     <g id="line2d_21">
      <path clip-path="url(#pe58895b7a4)" d="M 57.6 298.944 
L 338.688 298.944 
" style="fill:none;stroke:#b0b0b0;stroke-linecap:square;stroke-width:0.8;"/>
     </g>
     <g id="line2d_22">
      <defs>
       <path d="M 0 0 
L -3.5 0 
" id="m556a26dce6" style="stroke:#000000;stroke-width:0.8;"/>
      </defs>
      <g>
       <use style="stroke:#000000;stroke-width:0.8;" x="57.6" xlink:href="#m556a26dce6" y="298.944"/>
      </g>
     </g>
     <g id="text_6">
      <!-- 0.0 -->
      <g transform="translate(25.155 305.02275)scale(0.16 -0.16)">
       <defs>
        <path d="M 10.6875 12.40625 
L 21 12.40625 
L 21 0 
L 10.6875 0 
z
" id="DejaVuSans-46"/>
       </defs>
       <use xlink:href="#DejaVuSans-48"/>
       <use x="63.623047" xlink:href="#DejaVuSans-46"/>
       <use x="95.410156" xlink:href="#DejaVuSans-48"/>
      </g>
     </g>
    </g>
    <g id="ytick_2">
     <g id="line2d_23">
      <path clip-path="url(#pe58895b7a4)" d="M 57.6 245.22202 
L 338.688 245.22202 
" style="fill:none;stroke:#b0b0b0;stroke-linecap:square;stroke-width:0.8;"/>
     </g>
     <g id="line2d_24">
      <g>
       <use style="stroke:#000000;stroke-width:0.8;" x="57.6" xlink:href="#m556a26dce6" y="245.22202"/>
      </g>
     </g>
     <g id="text_7">
      <!-- 0.2 -->
      <g transform="translate(25.155 251.30077)scale(0.16 -0.16)">
       <use xlink:href="#DejaVuSans-48"/>
       <use x="63.623047" xlink:href="#DejaVuSans-46"/>
       <use x="95.410156" xlink:href="#DejaVuSans-50"/>
      </g>
     </g>
    </g>
    <g id="ytick_3">
     <g id="line2d_25">
      <path clip-path="url(#pe58895b7a4)" d="M 57.6 191.50004 
L 338.688 191.50004 
" style="fill:none;stroke:#b0b0b0;stroke-linecap:square;stroke-width:0.8;"/>
     </g>
     <g id="line2d_26">
      <g>
       <use style="stroke:#000000;stroke-width:0.8;" x="57.6" xlink:href="#m556a26dce6" y="191.50004"/>
      </g>
     </g>
     <g id="text_8">
      <!-- 0.4 -->
      <g transform="translate(25.155 197.57879)scale(0.16 -0.16)">
       <use xlink:href="#DejaVuSans-48"/>
       <use x="63.623047" xlink:href="#DejaVuSans-46"/>
       <use x="95.410156" xlink:href="#DejaVuSans-52"/>
      </g>
     </g>
    </g>
    <g id="ytick_4">
     <g id="line2d_27">
      <path clip-path="url(#pe58895b7a4)" d="M 57.6 137.778059 
L 338.688 137.778059 
" style="fill:none;stroke:#b0b0b0;stroke-linecap:square;stroke-width:0.8;"/>
     </g>
     <g id="line2d_28">
      <g>
       <use style="stroke:#000000;stroke-width:0.8;" x="57.6" xlink:href="#m556a26dce6" y="137.778059"/>
      </g>
     </g>
     <g id="text_9">
      <!-- 0.6 -->
      <g transform="translate(25.155 143.856809)scale(0.16 -0.16)">
       <use xlink:href="#DejaVuSans-48"/>
       <use x="63.623047" xlink:href="#DejaVuSans-46"/>
       <use x="95.410156" xlink:href="#DejaVuSans-54"/>
      </g>
     </g>
    </g>
    <g id="ytick_5">
     <g id="line2d_29">
      <path clip-path="url(#pe58895b7a4)" d="M 57.6 84.056079 
L 338.688 84.056079 
" style="fill:none;stroke:#b0b0b0;stroke-linecap:square;stroke-width:0.8;"/>
     </g>
     <g id="line2d_30">
      <g>
       <use style="stroke:#000000;stroke-width:0.8;" x="57.6" xlink:href="#m556a26dce6" y="84.056079"/>
      </g>
     </g>
     <g id="text_10">
      <!-- 0.8 -->
      <g transform="translate(25.155 90.134829)scale(0.16 -0.16)">
       <defs>
        <path d="M 31.78125 34.625 
Q 24.75 34.625 20.71875 30.859375 
Q 16.703125 27.09375 16.703125 20.515625 
Q 16.703125 13.921875 20.71875 10.15625 
Q 24.75 6.390625 31.78125 6.390625 
Q 38.8125 6.390625 42.859375 10.171875 
Q 46.921875 13.96875 46.921875 20.515625 
Q 46.921875 27.09375 42.890625 30.859375 
Q 38.875 34.625 31.78125 34.625 
z
M 21.921875 38.8125 
Q 15.578125 40.375 12.03125 44.71875 
Q 8.5 49.078125 8.5 55.328125 
Q 8.5 64.0625 14.71875 69.140625 
Q 20.953125 74.21875 31.78125 74.21875 
Q 42.671875 74.21875 48.875 69.140625 
Q 55.078125 64.0625 55.078125 55.328125 
Q 55.078125 49.078125 51.53125 44.71875 
Q 48 40.375 41.703125 38.8125 
Q 48.828125 37.15625 52.796875 32.3125 
Q 56.78125 27.484375 56.78125 20.515625 
Q 56.78125 9.90625 50.3125 4.234375 
Q 43.84375 -1.421875 31.78125 -1.421875 
Q 19.734375 -1.421875 13.25 4.234375 
Q 6.78125 9.90625 6.78125 20.515625 
Q 6.78125 27.484375 10.78125 32.3125 
Q 14.796875 37.15625 21.921875 38.8125 
z
M 18.3125 54.390625 
Q 18.3125 48.734375 21.84375 45.5625 
Q 25.390625 42.390625 31.78125 42.390625 
Q 38.140625 42.390625 41.71875 45.5625 
Q 45.3125 48.734375 45.3125 54.390625 
Q 45.3125 60.0625 41.71875 63.234375 
Q 38.140625 66.40625 31.78125 66.40625 
Q 25.390625 66.40625 21.84375 63.234375 
Q 18.3125 60.0625 18.3125 54.390625 
z
" id="DejaVuSans-56"/>
       </defs>
       <use xlink:href="#DejaVuSans-48"/>
       <use x="63.623047" xlink:href="#DejaVuSans-46"/>
       <use x="95.410156" xlink:href="#DejaVuSans-56"/>
      </g>
     </g>
    </g>
    <g id="ytick_6">
     <g id="line2d_31">
      <path clip-path="url(#pe58895b7a4)" d="M 57.6 30.334099 
L 338.688 30.334099 
" style="fill:none;stroke:#b0b0b0;stroke-linecap:square;stroke-width:0.8;"/>
     </g>
     <g id="line2d_32">
      <g>
       <use style="stroke:#000000;stroke-width:0.8;" x="57.6" xlink:href="#m556a26dce6" y="30.334099"/>
      </g>
     </g>
     <g id="text_11">
      <!-- 1.0 -->
      <g transform="translate(25.155 36.412849)scale(0.16 -0.16)">
       <use xlink:href="#DejaVuSans-49"/>
       <use x="63.623047" xlink:href="#DejaVuSans-46"/>
       <use x="95.410156" xlink:href="#DejaVuSans-48"/>
      </g>
     </g>
    </g>
    <g id="text_12">
     <!-- Fraction of function,target pairs -->
     <g transform="translate(17.619531 297.681)rotate(-90)scale(0.17 -0.17)">
      <defs>
       <path d="M 9.8125 72.90625 
L 51.703125 72.90625 
L 51.703125 64.59375 
L 19.671875 64.59375 
L 19.671875 43.109375 
L 48.578125 43.109375 
L 48.578125 34.8125 
L 19.671875 34.8125 
L 19.671875 0 
L 9.8125 0 
z
" id="DejaVuSans-70"/>
       <path d="M 41.109375 46.296875 
Q 39.59375 47.171875 37.8125 47.578125 
Q 36.03125 48 33.890625 48 
Q 26.265625 48 22.1875 43.046875 
Q 18.109375 38.09375 18.109375 28.8125 
L 18.109375 0 
L 9.078125 0 
L 9.078125 54.6875 
L 18.109375 54.6875 
L 18.109375 46.1875 
Q 20.953125 51.171875 25.484375 53.578125 
Q 30.03125 56 36.53125 56 
Q 37.453125 56 38.578125 55.875 
Q 39.703125 55.765625 41.0625 55.515625 
z
" id="DejaVuSans-114"/>
       <path d="M 48.78125 52.59375 
L 48.78125 44.1875 
Q 44.96875 46.296875 41.140625 47.34375 
Q 37.3125 48.390625 33.40625 48.390625 
Q 24.65625 48.390625 19.8125 42.84375 
Q 14.984375 37.3125 14.984375 27.296875 
Q 14.984375 17.28125 19.8125 11.734375 
Q 24.65625 6.203125 33.40625 6.203125 
Q 37.3125 6.203125 41.140625 7.25 
Q 44.96875 8.296875 48.78125 10.40625 
L 48.78125 2.09375 
Q 45.015625 0.34375 40.984375 -0.53125 
Q 36.96875 -1.421875 32.421875 -1.421875 
Q 20.0625 -1.421875 12.78125 6.34375 
Q 5.515625 14.109375 5.515625 27.296875 
Q 5.515625 40.671875 12.859375 48.328125 
Q 20.21875 56 33.015625 56 
Q 37.15625 56 41.109375 55.140625 
Q 45.0625 54.296875 48.78125 52.59375 
z
" id="DejaVuSans-99"/>
       <path d="M 18.3125 70.21875 
L 18.3125 54.6875 
L 36.8125 54.6875 
L 36.8125 47.703125 
L 18.3125 47.703125 
L 18.3125 18.015625 
Q 18.3125 11.328125 20.140625 9.421875 
Q 21.96875 7.515625 27.59375 7.515625 
L 36.8125 7.515625 
L 36.8125 0 
L 27.59375 0 
Q 17.1875 0 13.234375 3.875 
Q 9.28125 7.765625 9.28125 18.015625 
L 9.28125 47.703125 
L 2.6875 47.703125 
L 2.6875 54.6875 
L 9.28125 54.6875 
L 9.28125 70.21875 
z
" id="DejaVuSans-116"/>
       <path d="M 8.5 21.578125 
L 8.5 54.6875 
L 17.484375 54.6875 
L 17.484375 21.921875 
Q 17.484375 14.15625 20.5 10.265625 
Q 23.53125 6.390625 29.59375 6.390625 
Q 36.859375 6.390625 41.078125 11.03125 
Q 45.3125 15.671875 45.3125 23.6875 
L 45.3125 54.6875 
L 54.296875 54.6875 
L 54.296875 0 
L 45.3125 0 
L 45.3125 8.40625 
Q 42.046875 3.421875 37.71875 1 
Q 33.40625 -1.421875 27.6875 -1.421875 
Q 18.265625 -1.421875 13.375 4.4375 
Q 8.5 10.296875 8.5 21.578125 
z
M 31.109375 56 
z
" id="DejaVuSans-117"/>
       <path d="M 11.71875 12.40625 
L 22.015625 12.40625 
L 22.015625 4 
L 14.015625 -11.625 
L 7.71875 -11.625 
L 11.71875 4 
z
" id="DejaVuSans-44"/>
       <path d="M 18.109375 8.203125 
L 18.109375 -20.796875 
L 9.078125 -20.796875 
L 9.078125 54.6875 
L 18.109375 54.6875 
L 18.109375 46.390625 
Q 20.953125 51.265625 25.265625 53.625 
Q 29.59375 56 35.59375 56 
Q 45.5625 56 51.78125 48.09375 
Q 58.015625 40.1875 58.015625 27.296875 
Q 58.015625 14.40625 51.78125 6.484375 
Q 45.5625 -1.421875 35.59375 -1.421875 
Q 29.59375 -1.421875 25.265625 0.953125 
Q 20.953125 3.328125 18.109375 8.203125 
z
M 48.6875 27.296875 
Q 48.6875 37.203125 44.609375 42.84375 
Q 40.53125 48.484375 33.40625 48.484375 
Q 26.265625 48.484375 22.1875 42.84375 
Q 18.109375 37.203125 18.109375 27.296875 
Q 18.109375 17.390625 22.1875 11.75 
Q 26.265625 6.109375 33.40625 6.109375 
Q 40.53125 6.109375 44.609375 11.75 
Q 48.6875 17.390625 48.6875 27.296875 
z
" id="DejaVuSans-112"/>
      </defs>
      <use xlink:href="#DejaVuSans-70"/>
      <use x="50.269531" xlink:href="#DejaVuSans-114"/>
      <use x="91.382812" xlink:href="#DejaVuSans-97"/>
      <use x="152.662109" xlink:href="#DejaVuSans-99"/>
      <use x="207.642578" xlink:href="#DejaVuSans-116"/>
      <use x="246.851562" xlink:href="#DejaVuSans-105"/>
      <use x="274.634766" xlink:href="#DejaVuSans-111"/>
      <use x="335.816406" xlink:href="#DejaVuSans-110"/>
      <use x="399.195312" xlink:href="#DejaVuSans-32"/>
      <use x="430.982422" xlink:href="#DejaVuSans-111"/>
      <use x="492.164062" xlink:href="#DejaVuSans-102"/>
      <use x="527.369141" xlink:href="#DejaVuSans-32"/>
      <use x="559.15625" xlink:href="#DejaVuSans-102"/>
      <use x="594.361328" xlink:href="#DejaVuSans-117"/>
      <use x="657.740234" xlink:href="#DejaVuSans-110"/>
      <use x="721.119141" xlink:href="#DejaVuSans-99"/>
      <use x="776.099609" xlink:href="#DejaVuSans-116"/>
      <use x="815.308594" xlink:href="#DejaVuSans-105"/>
      <use x="843.091797" xlink:href="#DejaVuSans-111"/>
      <use x="904.273438" xlink:href="#DejaVuSans-110"/>
      <use x="967.652344" xlink:href="#DejaVuSans-44"/>
      <use x="999.439453" xlink:href="#DejaVuSans-116"/>
      <use x="1038.648438" xlink:href="#DejaVuSans-97"/>
      <use x="1099.927734" xlink:href="#DejaVuSans-114"/>
      <use x="1139.291016" xlink:href="#DejaVuSans-103"/>
      <use x="1202.767578" xlink:href="#DejaVuSans-101"/>
      <use x="1264.291016" xlink:href="#DejaVuSans-116"/>
      <use x="1303.5" xlink:href="#DejaVuSans-32"/>
      <use x="1335.287109" xlink:href="#DejaVuSans-112"/>
      <use x="1398.763672" xlink:href="#DejaVuSans-97"/>
      <use x="1460.042969" xlink:href="#DejaVuSans-105"/>
      <use x="1487.826172" xlink:href="#DejaVuSans-114"/>
      <use x="1528.939453" xlink:href="#DejaVuSans-115"/>
     </g>
    </g>
   </g>
   <g id="line2d_33">
    <defs>
     <path d="M 0 1.5 
C 0.397805 1.5 0.77937 1.341951 1.06066 1.06066 
C 1.341951 0.77937 1.5 0.397805 1.5 0 
C 1.5 -0.397805 1.341951 -0.77937 1.06066 -1.06066 
C 0.77937 -1.341951 0.397805 -1.5 0 -1.5 
C -0.397805 -1.5 -0.77937 -1.341951 -1.06066 -1.06066 
C -1.341951 -0.77937 -1.5 -0.397805 -1.5 0 
C -1.5 0.397805 -1.341951 0.77937 -1.06066 1.06066 
C -0.77937 1.341951 -0.397805 1.5 0 1.5 
z
" id="maa56541bb2" style="stroke:#f5deb3;"/>
    </defs>
    <g>
     <use style="fill:#f5deb3;stroke:#f5deb3;" x="167.545055" xlink:href="#maa56541bb2" y="30.334099"/>
     <use style="fill:#f5deb3;stroke:#f5deb3;" x="167.545055" xlink:href="#maa56541bb2" y="30.334099"/>
    </g>
   </g>
   <g id="line2d_34">
    <defs>
     <path d="M 0 1.5 
C 0.397805 1.5 0.77937 1.341951 1.06066 1.06066 
C 1.341951 0.77937 1.5 0.397805 1.5 0 
C 1.5 -0.397805 1.341951 -0.77937 1.06066 -1.06066 
C 0.77937 -1.341951 0.397805 -1.5 0 -1.5 
C -0.397805 -1.5 -0.77937 -1.341951 -1.06066 -1.06066 
C -1.341951 -0.77937 -1.5 -0.397805 -1.5 0 
C -1.5 0.397805 -1.341951 0.77937 -1.06066 1.06066 
C -0.77937 1.341951 -0.397805 1.5 0 1.5 
z
" id="mc25fb14445" style="stroke:#000080;"/>
    </defs>
    <g>
     <use style="fill:#000080;stroke:#000080;" x="291.81643" xlink:href="#mc25fb14445" y="204.140506"/>
     <use style="fill:#000080;stroke:#000080;" x="291.81643" xlink:href="#mc25fb14445" y="204.140506"/>
    </g>
   </g>
   <g id="line2d_35">
    <path d="M 147.56019 298.944 
L 147.56019 298.417314 
L 148.919783 298.417314 
L 148.919783 297.890628 
L 149.095146 297.890628 
L 149.095146 297.363942 
L 149.779481 297.363942 
L 149.779481 296.837256 
L 149.998846 296.837256 
L 149.998846 296.31057 
L 150.758122 296.31057 
L 150.783149 295.257197 
L 150.998554 295.257197 
L 150.998554 294.730511 
L 151.1298 294.730511 
L 151.227591 293.150453 
L 151.453659 293.150453 
L 151.517715 292.097081 
L 151.936246 292.097081 
L 151.936246 291.570395 
L 152.421022 291.570395 
L 152.496747 289.463651 
L 152.617226 289.463651 
L 152.617226 288.936964 
L 152.774102 288.936964 
L 152.811246 287.883592 
L 153.047115 287.883592 
L 153.047115 287.356906 
L 153.214697 287.356906 
L 153.214697 286.83022 
L 153.380683 286.83022 
L 153.48809 284.19679 
L 153.707991 284.19679 
L 153.707991 283.670104 
L 153.946025 283.670104 
L 154.022346 282.090045 
L 154.063835 282.090045 
L 154.139643 280.509987 
L 154.187714 280.509987 
L 154.201424 279.456615 
L 154.627867 279.456615 
L 154.627867 278.929929 
L 155.031067 278.929929 
L 155.076745 277.876557 
L 155.546107 277.876557 
L 155.653621 275.769812 
L 155.691409 275.769812 
L 155.691409 275.243126 
L 155.86668 275.243126 
L 155.86668 274.71644 
L 156.120189 274.71644 
L 156.120189 274.189754 
L 156.297301 274.189754 
L 156.32159 273.136382 
L 156.478647 273.136382 
L 156.478647 272.609696 
L 156.628341 272.609696 
L 156.628341 272.08301 
L 156.823991 272.08301 
L 156.894595 271.029638 
L 156.953214 271.029638 
L 156.953214 270.502952 
L 157.133693 270.502952 
L 157.133693 269.976266 
L 157.624812 269.976266 
L 157.725877 268.922893 
L 157.759435 268.922893 
L 157.759435 268.396207 
L 157.909655 268.396207 
L 157.926266 266.816149 
L 158.249784 266.816149 
L 158.249784 266.289463 
L 158.551397 266.289463 
L 158.551397 265.762777 
L 158.853132 265.762777 
L 158.910765 264.709405 
L 159.154893 264.709405 
L 159.165206 263.656033 
L 159.324282 263.656033 
L 159.375289 262.60266 
L 159.446449 262.60266 
L 159.446449 262.075974 
L 159.613044 262.075974 
L 159.698248 260.495916 
L 159.792986 260.495916 
L 159.792986 259.96923 
L 159.916863 259.96923 
L 159.916863 259.442544 
L 160.432539 259.442544 
L 160.432539 258.915858 
L 160.816565 258.915858 
L 160.877419 257.862486 
L 161.501628 257.862486 
L 161.53316 256.809114 
L 162.065021 256.809114 
L 162.065021 256.282427 
L 162.627697 256.282427 
L 162.712026 255.229055 
L 196.251046 255.229055 
L 196.251046 254.702369 
L 218.549781 254.702369 
L 218.65965 252.068939 
L 218.662881 252.068939 
L 218.757673 247.328764 
L 218.782178 247.328764 
L 218.884722 243.115275 
L 218.908713 243.115275 
L 218.913072 242.061903 
L 230.485992 242.061903 
L 230.594588 236.268356 
L 230.598019 236.268356 
L 230.665814 232.581554 
L 232.623019 232.581554 
L 232.623019 232.054868 
L 237.553098 232.054868 
L 237.614234 228.368065 
L 238.956511 228.368065 
L 238.956511 227.841379 
L 242.540716 227.841379 
L 242.559084 225.734635 
L 246.389594 225.734635 
L 246.4098 224.154577 
L 252.235239 224.154577 
L 252.244761 221.521146 
L 254.557968 221.521146 
L 254.573613 219.941088 
L 256.604215 219.941088 
L 256.611646 218.36103 
L 258.426618 218.36103 
L 258.426618 217.834344 
L 260.092061 217.834344 
L 260.092061 216.780971 
L 261.600649 216.780971 
L 261.615371 215.727599 
L 262.997255 215.727599 
L 262.997255 215.200913 
L 264.287452 215.200913 
L 264.291242 213.620855 
L 266.614157 213.620855 
L 266.614157 213.094169 
L 267.666489 213.094169 
L 267.667113 212.040797 
L 268.660765 212.040797 
L 268.660765 211.514111 
L 269.602443 211.514111 
L 269.603002 210.460738 
L 270.500358 210.460738 
L 270.500358 209.934052 
L 271.344798 209.934052 
L 271.349548 208.353994 
L 272.1593 208.353994 
L 272.1593 207.827308 
L 272.928777 207.827308 
L 272.930655 206.773936 
L 275.721144 206.773936 
L 275.721144 206.24725 
L 276.96616 206.24725 
L 276.96616 205.720564 
L 279.21965 205.720564 
L 279.21965 205.193878 
L 281.677151 205.193878 
L 281.677151 204.667192 
L 291.81643 204.667192 
L 291.81643 204.140506 
L 338.688 204.140506 
L 338.688 204.140506 
" style="fill:none;stroke:#000080;stroke-linecap:square;stroke-width:1.5;"/>
   </g>
   <g id="line2d_36">
    <defs>
     <path d="M 0 6 
C 1.591219 6 3.117479 5.367802 4.242641 4.242641 
C 5.367802 3.117479 6 1.591219 6 0 
C 6 -1.591219 5.367802 -3.117479 4.242641 -4.242641 
C 3.117479 -5.367802 1.591219 -6 0 -6 
C -1.591219 -6 -3.117479 -5.367802 -4.242641 -4.242641 
C -5.367802 -3.117479 -6 -1.591219 -6 0 
C -6 1.591219 -5.367802 3.117479 -4.242641 4.242641 
C -3.117479 5.367802 -1.591219 6 0 6 
z
" id="m4cd5455684" style="stroke:#000080;stroke-width:1.5;"/>
    </defs>
    <g>
     <use style="fill-opacity:0;stroke:#000080;stroke-width:1.5;" x="162.712026" xlink:href="#m4cd5455684" y="255.755741"/>
     <use style="fill-opacity:0;stroke:#000080;stroke-width:1.5;" x="232.623019" xlink:href="#m4cd5455684" y="232.054868"/>
     <use style="fill-opacity:0;stroke:#000080;stroke-width:1.5;" x="279.21965" xlink:href="#m4cd5455684" y="205.720564"/>
     <use style="fill-opacity:0;stroke:#000080;stroke-width:1.5;" x="291.81643" xlink:href="#m4cd5455684" y="204.140506"/>
     <use style="fill-opacity:0;stroke:#000080;stroke-width:1.5;" x="338.688" xlink:href="#m4cd5455684" y="204.140506"/>
    </g>
   </g>
   <g id="line2d_37">
    <path style="fill:none;stroke:#000080;stroke-linecap:square;stroke-width:1.5;"/>
    <g/>
   </g>
   <g id="line2d_38">
    <path clip-path="url(#pe58895b7a4)" d="M 218.221714 254.702369 
" style="fill:none;stroke:#000080;stroke-linecap:square;stroke-width:1.5;"/>
    <defs>
     <path d="M -12 12 
L 12 -12 
M -12 -12 
L 12 12 
" id="md98eb79d80" style="stroke:#000080;"/>
    </defs>
    <g clip-path="url(#pe58895b7a4)">
     <use style="fill:#000080;stroke:#000080;" x="218.221714" xlink:href="#md98eb79d80" y="254.702369"/>
    </g>
   </g>
   <g id="line2d_39">
    <defs>
     <path d="M 0 1.5 
C 0.397805 1.5 0.77937 1.341951 1.06066 1.06066 
C 1.341951 0.77937 1.5 0.397805 1.5 0 
C 1.5 -0.397805 1.341951 -0.77937 1.06066 -1.06066 
C 0.77937 -1.341951 0.397805 -1.5 0 -1.5 
C -0.397805 -1.5 -0.77937 -1.341951 -1.06066 -1.06066 
C -1.341951 -0.77937 -1.5 -0.397805 -1.5 0 
C -1.5 0.397805 -1.341951 0.77937 -1.06066 1.06066 
C -0.77937 1.341951 -0.397805 1.5 0 1.5 
z
" id="m9a19c0e766" style="stroke:#ff00ff;"/>
    </defs>
    <g>
     <use style="fill:#ff00ff;stroke:#ff00ff;" x="279.76707" xlink:href="#m9a19c0e766" y="241.008531"/>
     <use style="fill:#ff00ff;stroke:#ff00ff;" x="279.76707" xlink:href="#m9a19c0e766" y="241.008531"/>
    </g>
   </g>
   <g id="line2d_40">
    <path d="M 165.515296 298.944 
L 165.515296 298.417314 
L 166.908703 298.417314 
L 166.908703 297.890628 
L 167.223287 297.890628 
L 167.291353 296.837256 
L 167.500363 296.837256 
L 167.500363 296.31057 
L 168.251094 296.31057 
L 168.251094 295.783884 
L 168.373132 295.783884 
L 168.373132 295.257197 
L 168.772878 295.257197 
L 168.814429 294.203825 
L 168.950259 294.203825 
L 168.950259 293.677139 
L 169.15204 293.677139 
L 169.218785 292.623767 
L 169.28239 292.623767 
L 169.28239 292.097081 
L 169.474679 292.097081 
L 169.474679 291.570395 
L 169.61964 291.570395 
L 169.61964 291.043709 
L 169.788654 291.043709 
L 169.788654 290.517023 
L 170.184987 290.517023 
L 170.25063 289.463651 
L 170.348634 289.463651 
L 170.432588 287.883592 
L 170.50269 287.883592 
L 170.50269 287.356906 
L 170.663398 287.356906 
L 170.756464 285.250162 
L 170.880663 285.250162 
L 170.880663 284.723476 
L 171.204153 284.723476 
L 171.204153 284.19679 
L 171.412271 284.19679 
L 171.506517 282.616732 
L 171.567378 282.616732 
L 171.567378 282.090045 
L 171.791236 282.090045 
L 171.796233 281.036673 
L 171.920711 281.036673 
L 171.95293 279.983301 
L 172.103323 279.983301 
L 172.110686 278.929929 
L 172.267028 278.929929 
L 172.267028 278.403243 
L 172.61137 278.403243 
L 172.689877 276.296499 
L 172.727814 276.296499 
L 172.727814 275.769812 
L 172.9233 275.769812 
L 172.9233 275.243126 
L 173.650377 275.243126 
L 173.746708 274.189754 
L 173.789104 274.189754 
L 173.789104 273.663068 
L 173.942208 273.663068 
L 173.942208 273.136382 
L 174.137725 273.136382 
L 174.137725 272.609696 
L 174.436617 272.609696 
L 174.509477 271.556324 
L 174.875564 271.556324 
L 174.875564 271.029638 
L 175.659691 271.029638 
L 175.703679 269.976266 
L 176.116124 269.976266 
L 176.116124 269.449579 
L 176.46942 269.449579 
L 176.557112 268.396207 
L 176.992788 268.396207 
L 176.992788 267.869521 
L 177.385234 267.869521 
L 177.385234 267.342835 
L 178.384252 267.342835 
L 178.384252 266.816149 
L 219.050809 266.816149 
L 219.1374 265.762777 
L 219.25597 265.762777 
L 219.33239 263.656033 
L 219.398046 263.656033 
L 219.507738 261.022602 
L 219.525548 261.022602 
L 219.616743 256.809114 
L 219.715309 256.809114 
L 219.751929 255.755741 
L 219.8313 255.755741 
L 219.913002 253.648997 
L 230.826965 253.648997 
L 230.895142 252.068939 
L 231.055032 252.068939 
L 231.128733 251.015567 
L 237.776658 251.015567 
L 237.835714 248.908822 
L 237.933923 248.908822 
L 237.962902 247.328764 
L 242.742308 247.328764 
L 242.814228 246.275392 
L 246.604552 246.275392 
L 246.623176 244.695334 
L 249.691493 244.695334 
L 249.739894 243.641962 
L 258.528779 243.641962 
L 258.528779 243.115275 
L 260.161154 243.115275 
L 260.161154 242.588589 
L 269.650385 242.588589 
L 269.650385 242.061903 
L 278.162291 242.061903 
L 278.162291 241.535217 
L 279.76707 241.535217 
L 279.76707 241.008531 
L 338.688 241.008531 
L 338.688 241.008531 
" style="fill:none;stroke:#ff00ff;stroke-linecap:square;stroke-width:1.5;"/>
   </g>
   <g id="line2d_41">
    <defs>
     <path d="M -0 8.485281 
L 5.091169 0 
L 0 -8.485281 
L -5.091169 -0 
z
" id="m5ddf9fd8a7" style="stroke:#ff00ff;stroke-linejoin:miter;stroke-width:1.5;"/>
    </defs>
    <g>
     <use style="fill-opacity:0;stroke:#ff00ff;stroke-linejoin:miter;stroke-width:1.5;" x="219.561114" xlink:href="#m5ddf9fd8a7" y="259.442544"/>
     <use style="fill-opacity:0;stroke:#ff00ff;stroke-linejoin:miter;stroke-width:1.5;" x="279.76707" xlink:href="#m5ddf9fd8a7" y="241.535217"/>
     <use style="fill-opacity:0;stroke:#ff00ff;stroke-linejoin:miter;stroke-width:1.5;" x="279.76707" xlink:href="#m5ddf9fd8a7" y="241.008531"/>
     <use style="fill-opacity:0;stroke:#ff00ff;stroke-linejoin:miter;stroke-width:1.5;" x="338.688" xlink:href="#m5ddf9fd8a7" y="241.008531"/>
    </g>
   </g>
   <g id="line2d_42">
    <path style="fill:none;stroke:#ff00ff;stroke-linecap:square;stroke-width:1.5;"/>
    <g/>
   </g>
   <g id="line2d_43">
    <path clip-path="url(#pe58895b7a4)" d="M 218.221714 266.816149 
" style="fill:none;stroke:#ff00ff;stroke-linecap:square;stroke-width:1.5;"/>
    <defs>
     <path d="M -12 12 
L 12 -12 
M -12 -12 
L 12 12 
" id="m539ce24860" style="stroke:#ff00ff;"/>
    </defs>
    <g clip-path="url(#pe58895b7a4)">
     <use style="fill:#ff00ff;stroke:#ff00ff;" x="218.221714" xlink:href="#m539ce24860" y="266.816149"/>
    </g>
   </g>
   <g id="line2d_44">
    <defs>
     <path d="M 0 1.5 
C 0.397805 1.5 0.77937 1.341951 1.06066 1.06066 
C 1.341951 0.77937 1.5 0.397805 1.5 0 
C 1.5 -0.397805 1.341951 -0.77937 1.06066 -1.06066 
C 0.77937 -1.341951 0.397805 -1.5 0 -1.5 
C -0.397805 -1.5 -0.77937 -1.341951 -1.06066 -1.06066 
C -1.341951 -0.77937 -1.5 -0.397805 -1.5 0 
C -1.5 0.397805 -1.341951 0.77937 -1.06066 1.06066 
C -0.77937 1.341951 -0.397805 1.5 0 1.5 
z
" id="mc9f0fbfb4f" style="stroke:#ff7500;"/>
    </defs>
    <g>
     <use style="fill:#ff7500;stroke:#ff7500;" x="278.18164" xlink:href="#mc9f0fbfb4f" y="219.941088"/>
     <use style="fill:#ff7500;stroke:#ff7500;" x="278.18164" xlink:href="#mc9f0fbfb4f" y="219.941088"/>
    </g>
   </g>
   <g id="line2d_45">
    <path d="M 169.011918 298.944 
L 169.011918 298.417314 
L 169.351513 298.417314 
L 169.443254 297.363942 
L 169.58564 297.363942 
L 169.58564 296.837256 
L 170.524204 296.837256 
L 170.524204 296.31057 
L 170.751159 296.31057 
L 170.751159 295.783884 
L 170.878029 295.783884 
L 170.933246 294.730511 
L 171.009212 294.730511 
L 171.103055 293.677139 
L 171.147196 293.677139 
L 171.147196 293.150453 
L 171.580031 293.150453 
L 171.673377 291.043709 
L 171.721118 291.043709 
L 171.76122 289.990337 
L 171.885947 289.990337 
L 171.960357 288.410278 
L 172.169479 288.410278 
L 172.169479 287.883592 
L 172.364034 287.883592 
L 172.371288 286.83022 
L 172.518131 286.83022 
L 172.61137 285.776848 
L 172.9233 285.776848 
L 172.991089 284.19679 
L 173.053967 284.19679 
L 173.08184 283.143418 
L 173.323848 283.143418 
L 173.323848 282.616732 
L 173.605389 282.616732 
L 173.704209 281.036673 
L 173.846953 281.036673 
L 173.846953 280.509987 
L 174.309456 280.509987 
L 174.309456 279.456615 
L 174.624574 279.456615 
L 174.715685 278.403243 
L 174.781076 278.403243 
L 174.869281 276.823185 
L 174.900675 276.823185 
L 174.900675 276.296499 
L 175.071303 276.296499 
L 175.133313 274.71644 
L 175.197159 274.71644 
L 175.268964 273.663068 
L 175.389341 273.663068 
L 175.444152 272.609696 
L 175.717652 272.609696 
L 175.771443 271.029638 
L 175.884461 271.029638 
L 175.910134 269.976266 
L 176.123923 269.976266 
L 176.180364 268.396207 
L 176.410073 268.396207 
L 176.519039 267.342835 
L 176.53047 267.342835 
L 176.53047 266.816149 
L 176.731185 266.816149 
L 176.795079 265.762777 
L 176.899808 265.762777 
L 176.992788 263.656033 
L 177.081585 263.656033 
L 177.081585 263.129347 
L 177.288859 263.129347 
L 177.288859 262.60266 
L 177.526107 262.60266 
L 177.544086 261.549288 
L 177.649784 261.549288 
L 177.649784 261.022602 
L 177.906862 261.022602 
L 178.003391 258.915858 
L 178.07326 258.915858 
L 178.07326 258.389172 
L 178.375688 258.389172 
L 178.418467 257.3358 
L 178.586849 257.3358 
L 178.586849 256.809114 
L 178.751944 256.809114 
L 178.751944 256.282427 
L 178.928773 256.282427 
L 178.938729 255.229055 
L 179.67921 255.229055 
L 179.749025 253.122311 
L 179.828021 253.122311 
L 179.905092 251.542253 
L 180.421552 251.542253 
L 180.480872 250.488881 
L 180.648609 250.488881 
L 180.67716 249.435508 
L 181.448123 249.435508 
L 181.448123 248.908822 
L 181.821892 248.908822 
L 181.910249 247.85545 
L 182.803299 247.85545 
L 182.803299 247.328764 
L 219.446396 247.328764 
L 219.529431 245.748706 
L 219.618675 245.748706 
L 219.720591 244.695334 
L 219.748734 244.695334 
L 219.837023 241.535217 
L 219.866407 241.535217 
L 219.878147 240.481845 
L 220.051573 240.481845 
L 220.111609 237.848415 
L 220.219871 237.848415 
L 220.270494 235.74167 
L 220.691787 235.74167 
L 220.691787 235.214984 
L 231.086585 235.214984 
L 231.157578 233.634926 
L 231.337383 233.634926 
L 231.417842 232.581554 
L 237.918937 232.581554 
L 238.009448 229.421437 
L 238.090731 229.421437 
L 238.090731 228.894751 
L 242.88971 228.894751 
L 242.960561 227.841379 
L 243.048775 227.841379 
L 243.048775 227.314693 
L 246.626426 227.314693 
L 246.626426 226.788007 
L 249.714923 226.788007 
L 249.818044 224.681263 
L 249.845969 224.681263 
L 249.845969 224.154577 
L 254.759882 224.154577 
L 254.769386 222.574518 
L 258.6405 222.574518 
L 258.6405 222.047832 
L 268.754381 222.047832 
L 268.754381 221.521146 
L 269.690631 221.521146 
L 269.690631 220.467774 
L 278.18164 220.467774 
L 278.18164 219.941088 
L 338.688 219.941088 
L 338.688 219.941088 
" style="fill:none;stroke:#ff7500;stroke-linecap:square;stroke-width:1.5;"/>
   </g>
   <g id="line2d_46">
    <defs>
     <path d="M 0 -6 
L -1.347084 -1.854102 
L -5.706339 -1.854102 
L -2.179628 0.708204 
L -3.526712 4.854102 
L -0 2.291796 
L 3.526712 4.854102 
L 2.179628 0.708204 
L 5.706339 -1.854102 
L 1.347084 -1.854102 
z
" id="m6337777a54" style="stroke:#ff7500;stroke-linejoin:bevel;stroke-width:1.5;"/>
    </defs>
    <g>
     <use style="fill-opacity:0;stroke:#ff7500;stroke-linejoin:bevel;stroke-width:1.5;" x="238.090731" xlink:href="#m6337777a54" y="229.421437"/>
     <use style="fill-opacity:0;stroke:#ff7500;stroke-linejoin:bevel;stroke-width:1.5;" x="278.18164" xlink:href="#m6337777a54" y="219.941088"/>
     <use style="fill-opacity:0;stroke:#ff7500;stroke-linejoin:bevel;stroke-width:1.5;" x="278.18164" xlink:href="#m6337777a54" y="219.941088"/>
     <use style="fill-opacity:0;stroke:#ff7500;stroke-linejoin:bevel;stroke-width:1.5;" x="338.688" xlink:href="#m6337777a54" y="219.941088"/>
    </g>
   </g>
   <g id="line2d_47">
    <path style="fill:none;stroke:#ff7500;stroke-linecap:square;stroke-width:1.5;"/>
    <g/>
   </g>
   <g id="line2d_48">
    <path clip-path="url(#pe58895b7a4)" d="M 218.221714 247.328764 
" style="fill:none;stroke:#ff7500;stroke-linecap:square;stroke-width:1.5;"/>
    <defs>
     <path d="M -12 12 
L 12 -12 
M -12 -12 
L 12 12 
" id="mfa10e7458b" style="stroke:#ff7500;"/>
    </defs>
    <g clip-path="url(#pe58895b7a4)">
     <use style="fill:#ff7500;stroke:#ff7500;" x="218.221714" xlink:href="#mfa10e7458b" y="247.328764"/>
    </g>
   </g>
   <g id="line2d_49">
    <defs>
     <path d="M 0 1.5 
C 0.397805 1.5 0.77937 1.341951 1.06066 1.06066 
C 1.341951 0.77937 1.5 0.397805 1.5 0 
C 1.5 -0.397805 1.341951 -0.77937 1.06066 -1.06066 
C 0.77937 -1.341951 0.397805 -1.5 0 -1.5 
C -0.397805 -1.5 -0.77937 -1.341951 -1.06066 -1.06066 
C -1.341951 -0.77937 -1.5 -0.397805 -1.5 0 
C -1.5 0.397805 -1.341951 0.77937 -1.06066 1.06066 
C -0.77937 1.341951 -0.397805 1.5 0 1.5 
z
" id="m62f24bc622" style="stroke:#6495ed;"/>
    </defs>
    <g>
     <use style="fill:#6495ed;stroke:#6495ed;" x="275.223596" xlink:href="#m62f24bc622" y="177.806202"/>
     <use style="fill:#6495ed;stroke:#6495ed;" x="275.223596" xlink:href="#m62f24bc622" y="177.806202"/>
    </g>
   </g>
   <g id="line2d_50">
    <path d="M 178.017387 298.944 
L 178.017387 298.417314 
L 179.824868 298.417314 
L 179.916075 297.363942 
L 179.984949 297.363942 
L 179.984949 296.31057 
L 180.480872 296.31057 
L 180.480872 295.783884 
L 180.607957 295.783884 
L 180.607957 295.257197 
L 180.816238 295.257197 
L 180.816238 294.730511 
L 181.111626 294.730511 
L 181.127728 292.623767 
L 181.345831 292.623767 
L 181.345831 292.097081 
L 181.522662 292.097081 
L 181.591186 290.517023 
L 181.873839 290.517023 
L 181.970301 288.936964 
L 182.218083 288.936964 
L 182.218083 288.410278 
L 182.371348 288.410278 
L 182.459683 286.83022 
L 182.561055 286.83022 
L 182.561055 286.303534 
L 182.78202 286.303534 
L 182.786012 285.250162 
L 182.92251 285.250162 
L 182.989704 284.19679 
L 183.135059 284.19679 
L 183.196243 283.143418 
L 183.264981 283.143418 
L 183.35149 282.090045 
L 183.760107 282.090045 
L 183.815378 281.036673 
L 184.071843 281.036673 
L 184.071843 280.509987 
L 184.206035 280.509987 
L 184.206035 279.983301 
L 184.594129 279.983301 
L 184.594129 279.456615 
L 184.718423 279.456615 
L 184.811065 277.876557 
L 184.993714 277.876557 
L 184.993714 277.349871 
L 185.187227 277.349871 
L 185.268189 275.243126 
L 185.320039 275.243126 
L 185.320039 274.189754 
L 185.447279 274.189754 
L 185.524772 272.08301 
L 185.598525 272.08301 
L 185.598525 271.556324 
L 185.870405 271.556324 
L 185.980419 268.396207 
L 186.162246 268.396207 
L 186.162246 267.869521 
L 186.284597 267.869521 
L 186.335686 265.762777 
L 187.011649 265.762777 
L 187.011649 265.236091 
L 187.427443 265.236091 
L 187.427443 264.709405 
L 187.788672 264.709405 
L 187.881299 263.129347 
L 187.942779 263.129347 
L 188.007001 261.022602 
L 188.126906 261.022602 
L 188.126906 260.495916 
L 188.496144 260.495916 
L 188.596543 258.915858 
L 188.697315 258.915858 
L 188.760712 257.862486 
L 188.841751 257.862486 
L 188.841751 256.809114 
L 188.984999 256.809114 
L 189.053863 254.702369 
L 189.203677 254.702369 
L 189.286354 253.648997 
L 189.372289 253.648997 
L 189.481381 252.595625 
L 189.765435 252.595625 
L 189.870331 250.488881 
L 190.073868 250.488881 
L 190.073868 249.962195 
L 190.701898 249.962195 
L 190.747469 248.908822 
L 190.854178 248.908822 
L 190.953576 247.328764 
L 191.321964 247.328764 
L 191.327672 246.275392 
L 191.489152 246.275392 
L 191.489152 245.748706 
L 191.694709 245.748706 
L 191.771173 244.168648 
L 191.989157 244.168648 
L 191.989157 243.641962 
L 192.433958 243.641962 
L 192.433958 243.115275 
L 192.783907 243.115275 
L 192.783907 242.588589 
L 193.017804 242.588589 
L 193.017804 242.061903 
L 193.377375 242.061903 
L 193.377375 241.535217 
L 194.086846 241.535217 
L 194.086846 241.008531 
L 195.663431 241.008531 
L 195.663431 240.481845 
L 196.244898 240.481845 
L 196.244898 239.955159 
L 196.69231 239.955159 
L 196.69231 239.428473 
L 220.184689 239.428473 
L 220.235415 237.848415 
L 220.436242 237.848415 
L 220.523725 236.795043 
L 220.719917 236.795043 
L 220.829736 234.688298 
L 220.86514 234.688298 
L 220.972114 233.10824 
L 221.035747 233.10824 
L 221.035747 232.581554 
L 221.176607 232.581554 
L 221.252697 230.47481 
L 221.348875 230.47481 
L 221.389496 228.894751 
L 221.472771 228.894751 
L 221.532732 227.314693 
L 221.601397 227.314693 
L 221.679378 223.627891 
L 221.802519 223.627891 
L 221.802519 222.047832 
L 222.421552 222.047832 
L 222.421552 220.467774 
L 222.575756 220.467774 
L 222.6756 218.887716 
L 231.410722 218.887716 
L 231.410722 218.36103 
L 231.708434 218.36103 
L 231.781994 217.307658 
L 231.861389 217.307658 
L 231.877098 216.254285 
L 232.081288 216.254285 
L 232.146862 215.200913 
L 232.457056 215.200913 
L 232.551089 214.147541 
L 232.622255 214.147541 
L 232.678448 212.567483 
L 238.370053 212.567483 
L 238.427027 210.987425 
L 238.486598 210.987425 
L 238.501813 209.934052 
L 238.895862 209.934052 
L 238.995078 207.300622 
L 243.190787 207.300622 
L 243.287461 204.140506 
L 243.38319 204.140506 
L 243.38319 203.613819 
L 243.504398 203.613819 
L 243.504398 203.087133 
L 243.622251 203.087133 
L 243.622251 202.560447 
L 246.937516 202.560447 
L 246.960554 201.507075 
L 247.081958 201.507075 
L 247.141979 199.927017 
L 247.220552 199.927017 
L 247.220552 199.400331 
L 250.013209 199.400331 
L 250.079652 197.293586 
L 250.24273 197.293586 
L 250.24273 196.240214 
L 252.670247 196.240214 
L 252.715787 194.660156 
L 252.797965 194.660156 
L 252.797965 194.13347 
L 255.073606 194.13347 
L 255.073606 193.606784 
L 256.916202 193.606784 
L 256.940231 192.553412 
L 257.059542 192.553412 
L 257.094621 190.973354 
L 258.738004 190.973354 
L 258.828288 189.393295 
L 260.404123 189.393295 
L 260.494589 187.813237 
L 261.950845 187.813237 
L 261.950845 187.286551 
L 263.214084 187.286551 
L 263.316728 185.179807 
L 264.503494 185.179807 
L 264.583358 183.073062 
L 266.844683 183.073062 
L 266.880072 182.01969 
L 267.919446 182.01969 
L 267.919446 180.966318 
L 268.89147 180.966318 
L 268.907371 179.912946 
L 269.818772 179.912946 
L 269.818772 179.38626 
L 271.542312 179.38626 
L 271.542312 178.859574 
L 275.222269 178.859574 
L 275.223596 177.806202 
L 338.688 177.806202 
L 338.688 177.806202 
" style="fill:none;stroke:#6495ed;stroke-linecap:square;stroke-width:1.5;"/>
   </g>
   <g id="line2d_51">
    <defs>
     <path d="M -0 6 
L 6 -6 
L -6 -6 
z
" id="m04b6d4d273" style="stroke:#6495ed;stroke-linejoin:miter;stroke-width:1.5;"/>
    </defs>
    <g>
     <use style="fill-opacity:0;stroke:#6495ed;stroke-linejoin:miter;stroke-width:1.5;" x="243.622251" xlink:href="#m04b6d4d273" y="202.560447"/>
     <use style="fill-opacity:0;stroke:#6495ed;stroke-linejoin:miter;stroke-width:1.5;" x="275.223596" xlink:href="#m04b6d4d273" y="177.806202"/>
     <use style="fill-opacity:0;stroke:#6495ed;stroke-linejoin:miter;stroke-width:1.5;" x="275.223596" xlink:href="#m04b6d4d273" y="177.806202"/>
     <use style="fill-opacity:0;stroke:#6495ed;stroke-linejoin:miter;stroke-width:1.5;" x="338.688" xlink:href="#m04b6d4d273" y="177.806202"/>
    </g>
   </g>
   <g id="line2d_52">
    <path style="fill:none;stroke:#6495ed;stroke-linecap:square;stroke-width:1.5;"/>
    <g/>
   </g>
   <g id="line2d_53">
    <path clip-path="url(#pe58895b7a4)" d="M 218.221714 239.428473 
" style="fill:none;stroke:#6495ed;stroke-linecap:square;stroke-width:1.5;"/>
    <defs>
     <path d="M -12 12 
L 12 -12 
M -12 -12 
L 12 12 
" id="m37efe8787d" style="stroke:#6495ed;"/>
    </defs>
    <g clip-path="url(#pe58895b7a4)">
     <use style="fill:#6495ed;stroke:#6495ed;" x="218.221714" xlink:href="#m37efe8787d" y="239.428473"/>
    </g>
   </g>
   <g id="line2d_54">
    <defs>
     <path d="M 0 1.5 
C 0.397805 1.5 0.77937 1.341951 1.06066 1.06066 
C 1.341951 0.77937 1.5 0.397805 1.5 0 
C 1.5 -0.397805 1.341951 -0.77937 1.06066 -1.06066 
C 0.77937 -1.341951 0.397805 -1.5 0 -1.5 
C -0.397805 -1.5 -0.77937 -1.341951 -1.06066 -1.06066 
C -1.341951 -0.77937 -1.5 -0.397805 -1.5 0 
C -1.5 0.397805 -1.341951 0.77937 -1.06066 1.06066 
C -0.77937 1.341951 -0.397805 1.5 0 1.5 
z
" id="m07e8d605ef" style="stroke:#ff0000;"/>
    </defs>
    <g>
     <use style="fill:#ff0000;stroke:#ff0000;" x="283.198545" xlink:href="#m07e8d605ef" y="167.27248"/>
     <use style="fill:#ff0000;stroke:#ff0000;" x="283.198545" xlink:href="#m07e8d605ef" y="167.27248"/>
    </g>
   </g>
   <g id="line2d_55">
    <path d="M 187.678474 298.944 
L 187.678474 298.417314 
L 188.048373 298.417314 
L 188.048373 297.890628 
L 189.379583 297.890628 
L 189.379583 297.363942 
L 189.58349 297.363942 
L 189.58349 296.837256 
L 189.832179 296.837256 
L 189.899553 294.730511 
L 190.338158 294.730511 
L 190.338158 294.203825 
L 190.500473 294.203825 
L 190.500473 293.677139 
L 190.647734 293.677139 
L 190.647734 293.150453 
L 190.798805 293.150453 
L 190.878453 292.097081 
L 190.956075 292.097081 
L 191.001818 291.043709 
L 191.10616 291.043709 
L 191.10616 290.517023 
L 191.255784 290.517023 
L 191.272966 289.463651 
L 191.471373 289.463651 
L 191.471373 288.936964 
L 191.620314 288.936964 
L 191.708274 287.883592 
L 192.026791 287.883592 
L 192.026791 287.356906 
L 192.29569 287.356906 
L 192.29569 286.83022 
L 192.46148 286.83022 
L 192.46148 286.303534 
L 192.574174 286.303534 
L 192.641593 285.250162 
L 192.718542 285.250162 
L 192.794402 284.19679 
L 193.132852 284.19679 
L 193.132852 283.670104 
L 193.251527 283.670104 
L 193.349084 280.509987 
L 193.513831 280.509987 
L 193.526772 279.456615 
L 193.667773 279.456615 
L 193.6749 278.403243 
L 193.917612 278.403243 
L 193.952011 276.823185 
L 194.17085 276.823185 
L 194.199223 275.769812 
L 194.364389 275.769812 
L 194.45116 273.663068 
L 194.50288 273.663068 
L 194.50288 273.136382 
L 194.620043 273.136382 
L 194.658474 272.08301 
L 194.769247 272.08301 
L 194.769247 271.556324 
L 194.913204 271.556324 
L 194.913204 271.029638 
L 195.171461 271.029638 
L 195.239992 269.449579 
L 195.422726 269.449579 
L 195.519792 268.396207 
L 195.592078 268.396207 
L 195.599099 267.342835 
L 195.817874 267.342835 
L 195.858158 265.762777 
L 195.955963 265.762777 
L 195.955963 265.236091 
L 196.223363 265.236091 
L 196.241823 264.182719 
L 196.344233 264.182719 
L 196.428407 263.129347 
L 196.506726 263.129347 
L 196.564782 262.075974 
L 196.737203 262.075974 
L 196.737203 261.549288 
L 196.866447 261.549288 
L 196.949325 259.96923 
L 197.036513 259.96923 
L 197.144888 258.915858 
L 197.253755 258.915858 
L 197.329039 257.862486 
L 197.535838 257.862486 
L 197.535838 257.3358 
L 197.675754 257.3358 
L 197.726663 255.755741 
L 197.833092 255.755741 
L 197.89977 254.175683 
L 198.088335 254.175683 
L 198.097185 253.122311 
L 198.391081 253.122311 
L 198.496245 251.542253 
L 198.51785 251.542253 
L 198.574435 250.488881 
L 198.698814 250.488881 
L 198.698814 249.962195 
L 198.86205 249.962195 
L 198.86205 248.908822 
L 199.061485 248.908822 
L 199.061485 248.382136 
L 199.285545 248.382136 
L 199.303099 247.328764 
L 199.638868 247.328764 
L 199.638868 246.802078 
L 199.906096 246.802078 
L 199.906096 246.275392 
L 200.11815 246.275392 
L 200.205587 244.695334 
L 200.233005 244.695334 
L 200.233005 244.168648 
L 200.402913 244.168648 
L 200.402913 243.115275 
L 200.845867 243.115275 
L 200.845867 242.588589 
L 201.258023 242.588589 
L 201.258023 242.061903 
L 201.465292 242.061903 
L 201.551688 241.008531 
L 201.737126 241.008531 
L 201.820849 239.955159 
L 202.06523 239.955159 
L 202.06523 239.428473 
L 202.206912 239.428473 
L 202.25708 237.848415 
L 203.74554 237.848415 
L 203.74554 237.321729 
L 203.926981 237.321729 
L 203.926981 236.795043 
L 204.674302 236.795043 
L 204.674302 236.268356 
L 205.063937 236.268356 
L 205.063937 235.74167 
L 205.650655 235.74167 
L 205.650655 235.214984 
L 206.415008 235.214984 
L 206.415008 234.688298 
L 206.951675 234.688298 
L 206.951675 234.161612 
L 207.230323 234.161612 
L 207.230323 233.634926 
L 222.087628 233.634926 
L 222.186269 231.528182 
L 222.453186 231.528182 
L 222.453186 231.001496 
L 222.633943 231.001496 
L 222.692343 229.948123 
L 222.753775 229.948123 
L 222.778636 228.894751 
L 222.897614 228.894751 
L 222.897614 228.368065 
L 223.030484 228.368065 
L 223.117891 226.261321 
L 223.188735 226.261321 
L 223.299092 223.101204 
L 223.384518 223.101204 
L 223.409662 221.521146 
L 223.538702 221.521146 
L 223.583513 220.467774 
L 223.813959 220.467774 
L 223.871066 219.414402 
L 223.94671 219.414402 
L 224.011895 218.36103 
L 224.093783 218.36103 
L 224.093783 217.307658 
L 224.262581 217.307658 
L 224.262581 216.780971 
L 224.385606 216.780971 
L 224.430128 215.200913 
L 225.133193 215.200913 
L 225.133193 214.674227 
L 225.569668 214.674227 
L 225.569668 213.094169 
L 232.3777 213.094169 
L 232.3777 212.567483 
L 232.613547 212.567483 
L 232.654986 211.514111 
L 232.750765 211.514111 
L 232.750765 210.987425 
L 232.969456 210.987425 
L 233.053547 208.353994 
L 233.164944 208.353994 
L 233.19586 206.24725 
L 233.419727 206.24725 
L 233.49064 204.140506 
L 233.66257 204.140506 
L 233.66257 203.613819 
L 233.781592 203.613819 
L 233.781592 202.560447 
L 233.918889 202.560447 
L 233.918889 202.033761 
L 234.105616 202.033761 
L 234.105616 201.507075 
L 234.426071 201.507075 
L 234.426071 200.980389 
L 239.035569 200.980389 
L 239.100898 199.927017 
L 239.2234 199.927017 
L 239.2234 199.400331 
L 239.473846 199.400331 
L 239.559323 197.293586 
L 239.704523 197.293586 
L 239.770338 193.606784 
L 239.871419 193.606784 
L 239.920132 192.026726 
L 240.188225 192.026726 
L 240.188225 191.50004 
L 243.690719 191.50004 
L 243.729782 190.446667 
L 244.154579 190.446667 
L 244.201976 188.866609 
L 244.298262 188.866609 
L 244.298262 188.339923 
L 247.362843 188.339923 
L 247.379987 187.286551 
L 247.488327 187.286551 
L 247.555468 186.233179 
L 247.720239 186.233179 
L 247.823554 185.179807 
L 248.02726 185.179807 
L 248.02726 184.653121 
L 250.484769 184.653121 
L 250.583205 183.599748 
L 250.784597 183.599748 
L 250.886397 182.546376 
L 252.906745 182.546376 
L 252.951887 180.966318 
L 253.124178 180.966318 
L 253.210744 179.912946 
L 255.42057 179.912946 
L 255.42057 179.38626 
L 257.457531 179.38626 
L 257.457531 178.859574 
L 258.976826 178.859574 
L 258.976826 178.332888 
L 259.162396 178.332888 
L 259.267841 176.752829 
L 260.680544 176.752829 
L 260.680544 176.226143 
L 260.793764 176.226143 
L 260.793764 175.699457 
L 263.472994 175.699457 
L 263.472994 175.172771 
L 263.62125 175.172771 
L 263.64174 173.592713 
L 264.671308 173.592713 
L 264.671308 173.066027 
L 264.8086 173.066027 
L 264.8086 172.539341 
L 267.068579 172.539341 
L 267.068579 172.012655 
L 269.1132 172.012655 
L 269.1132 170.959282 
L 271.702204 170.959282 
L 271.702204 170.432596 
L 272.460154 170.432596 
L 272.525483 168.852538 
L 273.295341 168.852538 
L 273.295341 168.325852 
L 276.646607 168.325852 
L 276.646607 167.799166 
L 283.198545 167.799166 
L 283.198545 167.27248 
L 338.688 167.27248 
L 338.688 167.27248 
" style="fill:none;stroke:#ff0000;stroke-linecap:square;stroke-width:1.5;"/>
   </g>
   <g id="line2d_56">
    <defs>
     <path d="M 0 -6 
L -5.196152 -3 
L -5.196152 3 
L -0 6 
L 5.196152 3 
L 5.196152 -3 
z
" id="m94086bda73" style="stroke:#ff0000;stroke-linejoin:miter;stroke-width:1.5;"/>
    </defs>
    <g>
     <use style="fill-opacity:0;stroke:#ff0000;stroke-linejoin:miter;stroke-width:1.5;" x="240.188225" xlink:href="#m94086bda73" y="192.026726"/>
     <use style="fill-opacity:0;stroke:#ff0000;stroke-linejoin:miter;stroke-width:1.5;" x="283.198545" xlink:href="#m94086bda73" y="167.799166"/>
     <use style="fill-opacity:0;stroke:#ff0000;stroke-linejoin:miter;stroke-width:1.5;" x="283.198545" xlink:href="#m94086bda73" y="167.27248"/>
     <use style="fill-opacity:0;stroke:#ff0000;stroke-linejoin:miter;stroke-width:1.5;" x="338.688" xlink:href="#m94086bda73" y="167.27248"/>
    </g>
   </g>
   <g id="line2d_57">
    <path style="fill:none;stroke:#ff0000;stroke-linecap:square;stroke-width:1.5;"/>
    <g/>
   </g>
   <g id="line2d_58">
    <path clip-path="url(#pe58895b7a4)" d="M 218.221714 233.634926 
" style="fill:none;stroke:#ff0000;stroke-linecap:square;stroke-width:1.5;"/>
    <defs>
     <path d="M -12 12 
L 12 -12 
M -12 -12 
L 12 12 
" id="m3bc5ebf018" style="stroke:#ff0000;"/>
    </defs>
    <g clip-path="url(#pe58895b7a4)">
     <use style="fill:#ff0000;stroke:#ff0000;" x="218.221714" xlink:href="#m3bc5ebf018" y="233.634926"/>
    </g>
   </g>
   <g id="line2d_59">
    <defs>
     <path d="M 0 1.5 
C 0.397805 1.5 0.77937 1.341951 1.06066 1.06066 
C 1.341951 0.77937 1.5 0.397805 1.5 0 
C 1.5 -0.397805 1.341951 -0.77937 1.06066 -1.06066 
C 0.77937 -1.341951 0.397805 -1.5 0 -1.5 
C -0.397805 -1.5 -0.77937 -1.341951 -1.06066 -1.06066 
C -1.341951 -0.77937 -1.5 -0.397805 -1.5 0 
C -1.5 0.397805 -1.341951 0.77937 -1.06066 1.06066 
C -0.77937 1.341951 -0.397805 1.5 0 1.5 
z
" id="m3eb149eeb0" style="stroke:#9acd32;"/>
    </defs>
    <g>
     <use style="fill:#9acd32;stroke:#9acd32;" x="287.768388" xlink:href="#m3eb149eeb0" y="262.075974"/>
     <use style="fill:#9acd32;stroke:#9acd32;" x="287.768388" xlink:href="#m3eb149eeb0" y="262.075974"/>
    </g>
   </g>
   <g id="line2d_60">
    <path d="M 211.060825 298.944 
L 211.060825 298.417314 
L 212.673559 298.417314 
L 212.673559 297.890628 
L 214.814596 297.890628 
L 214.814596 297.363942 
L 215.039995 297.363942 
L 215.039995 296.837256 
L 215.236047 296.837256 
L 215.236047 296.31057 
L 215.500999 296.31057 
L 215.500999 295.783884 
L 215.599378 295.783884 
L 215.599378 294.730511 
L 215.937014 294.730511 
L 215.937014 294.203825 
L 215.974547 294.203825 
L 215.974547 293.677139 
L 216.236803 293.677139 
L 216.236803 293.150453 
L 216.30487 293.150453 
L 216.30487 292.623767 
L 216.342981 292.623767 
L 216.342981 292.097081 
L 216.358706 292.097081 
L 216.358706 291.570395 
L 216.803956 291.570395 
L 216.803956 291.043709 
L 216.849862 291.043709 
L 216.849862 290.517023 
L 216.876255 290.517023 
L 216.876255 289.990337 
L 216.929673 289.990337 
L 216.929673 289.463651 
L 216.974688 289.463651 
L 216.974688 288.936964 
L 217.014915 288.936964 
L 217.014915 288.410278 
L 217.049269 288.410278 
L 217.049269 287.883592 
L 217.147846 287.883592 
L 217.147846 286.83022 
L 217.187491 286.83022 
L 217.187491 286.303534 
L 217.202658 286.303534 
L 217.202658 285.776848 
L 217.208389 285.776848 
L 217.208389 285.250162 
L 217.280507 285.250162 
L 217.280507 284.723476 
L 217.647686 284.723476 
L 217.647686 284.19679 
L 217.897487 284.19679 
L 217.897487 283.670104 
L 218.014354 283.670104 
L 218.014354 282.616732 
L 218.048205 282.616732 
L 218.048205 282.090045 
L 218.185053 282.090045 
L 218.185053 281.563359 
L 218.196933 281.563359 
L 218.196933 281.036673 
L 229.191822 281.036673 
L 229.191822 280.509987 
L 229.22229 280.509987 
L 229.22229 279.983301 
L 229.615227 279.983301 
L 229.615227 279.456615 
L 229.697334 279.456615 
L 229.697334 278.929929 
L 229.807617 278.929929 
L 229.807617 278.403243 
L 229.896238 278.403243 
L 229.896238 277.876557 
L 236.713206 277.876557 
L 236.713206 277.349871 
L 236.920825 277.349871 
L 236.920825 276.823185 
L 237.04761 276.823185 
L 237.04761 276.296499 
L 237.106171 276.296499 
L 237.106171 275.769812 
L 237.311876 275.769812 
L 237.311876 275.243126 
L 241.899464 275.243126 
L 241.899464 274.71644 
L 242.111887 274.71644 
L 242.111887 273.663068 
L 242.255946 273.663068 
L 242.255946 273.136382 
L 246.247879 273.136382 
L 246.247879 272.08301 
L 246.25459 272.08301 
L 246.25459 271.556324 
L 249.108114 271.556324 
L 249.108114 271.029638 
L 249.30295 271.029638 
L 249.30295 270.502952 
L 249.434322 270.502952 
L 249.434322 269.449579 
L 251.874032 269.449579 
L 251.874032 268.922893 
L 251.994245 268.922893 
L 251.994245 268.396207 
L 254.361507 268.396207 
L 254.361507 267.342835 
L 261.474016 267.342835 
L 261.474016 266.289463 
L 265.382047 266.289463 
L 265.382047 265.762777 
L 266.511692 265.762777 
L 266.511692 265.236091 
L 268.572641 265.236091 
L 268.572641 264.709405 
L 269.559761 264.709405 
L 269.559761 264.182719 
L 271.268797 264.182719 
L 271.268797 263.656033 
L 272.1179 263.656033 
L 272.1179 263.129347 
L 273.603395 263.129347 
L 273.603395 262.60266 
L 287.768388 262.60266 
L 287.768388 262.075974 
L 338.688 262.075974 
" style="fill:none;stroke:#9acd32;stroke-linecap:square;stroke-width:1.5;"/>
   </g>
   <g id="line2d_61">
    <defs>
     <path d="M 0 -6 
L -6 6 
L 6 6 
z
" id="m2cbca7af3d" style="stroke:#9acd32;stroke-linejoin:miter;stroke-width:1.5;"/>
    </defs>
    <g>
     <use style="fill-opacity:0;stroke:#9acd32;stroke-linejoin:miter;stroke-width:1.5;" x="237.311876" xlink:href="#m2cbca7af3d" y="275.243126"/>
     <use style="fill-opacity:0;stroke:#9acd32;stroke-linejoin:miter;stroke-width:1.5;" x="287.768388" xlink:href="#m2cbca7af3d" y="262.60266"/>
     <use style="fill-opacity:0;stroke:#9acd32;stroke-linejoin:miter;stroke-width:1.5;" x="287.768388" xlink:href="#m2cbca7af3d" y="262.075974"/>
     <use style="fill-opacity:0;stroke:#9acd32;stroke-linejoin:miter;stroke-width:1.5;" x="338.688" xlink:href="#m2cbca7af3d" y="262.075974"/>
    </g>
   </g>
   <g id="line2d_62">
    <path style="fill:none;stroke:#9acd32;stroke-linecap:square;stroke-width:1.5;"/>
    <g/>
   </g>
   <g id="line2d_63">
    <path clip-path="url(#pe58895b7a4)" d="M 218.221714 281.036673 
" style="fill:none;stroke:#9acd32;stroke-linecap:square;stroke-width:1.5;"/>
    <defs>
     <path d="M -12 12 
L 12 -12 
M -12 -12 
L 12 12 
" id="m447c84fe07" style="stroke:#9acd32;"/>
    </defs>
    <g clip-path="url(#pe58895b7a4)">
     <use style="fill:#9acd32;stroke:#9acd32;" x="218.221714" xlink:href="#m447c84fe07" y="281.036673"/>
    </g>
   </g>
   <g id="line2d_64">
    <path d="M 338.688 262.075974 
L 369.60768 293.571802 
" style="fill:none;stroke:#9acd32;stroke-linecap:square;stroke-width:1.5;"/>
    <g>
     <use style="fill-opacity:0;stroke:#9acd32;stroke-linejoin:miter;stroke-width:1.5;" x="338.688" xlink:href="#m2cbca7af3d" y="262.075974"/>
     <use style="fill-opacity:0;stroke:#9acd32;stroke-linejoin:miter;stroke-width:1.5;" x="369.60768" xlink:href="#m2cbca7af3d" y="293.571802"/>
    </g>
   </g>
   <g id="line2d_65">
    <path d="M 338.688 241.008531 
L 369.60768 250.594218 
" style="fill:none;stroke:#ff00ff;stroke-linecap:square;stroke-width:1.5;"/>
    <g>
     <use style="fill-opacity:0;stroke:#ff00ff;stroke-linejoin:miter;stroke-width:1.5;" x="338.688" xlink:href="#m5ddf9fd8a7" y="241.008531"/>
     <use style="fill-opacity:0;stroke:#ff00ff;stroke-linejoin:miter;stroke-width:1.5;" x="369.60768" xlink:href="#m5ddf9fd8a7" y="250.594218"/>
    </g>
   </g>
   <g id="line2d_66">
    <path d="M 338.688 219.941088 
L 369.60768 207.616634 
" style="fill:none;stroke:#ff7500;stroke-linecap:square;stroke-width:1.5;"/>
    <g>
     <use style="fill-opacity:0;stroke:#ff7500;stroke-linejoin:bevel;stroke-width:1.5;" x="338.688" xlink:href="#m6337777a54" y="219.941088"/>
     <use style="fill-opacity:0;stroke:#ff7500;stroke-linejoin:bevel;stroke-width:1.5;" x="369.60768" xlink:href="#m6337777a54" y="207.616634"/>
    </g>
   </g>
   <g id="line2d_67">
    <path d="M 338.688 204.140506 
L 369.60768 164.63905 
" style="fill:none;stroke:#000080;stroke-linecap:square;stroke-width:1.5;"/>
    <g>
     <use style="fill-opacity:0;stroke:#000080;stroke-width:1.5;" x="338.688" xlink:href="#m4cd5455684" y="204.140506"/>
     <use style="fill-opacity:0;stroke:#000080;stroke-width:1.5;" x="369.60768" xlink:href="#m4cd5455684" y="164.63905"/>
    </g>
   </g>
   <g id="line2d_68">
    <path d="M 338.688 177.806202 
L 369.60768 121.661465 
" style="fill:none;stroke:#6495ed;stroke-linecap:square;stroke-width:1.5;"/>
    <g>
     <use style="fill-opacity:0;stroke:#6495ed;stroke-linejoin:miter;stroke-width:1.5;" x="338.688" xlink:href="#m04b6d4d273" y="177.806202"/>
     <use style="fill-opacity:0;stroke:#6495ed;stroke-linejoin:miter;stroke-width:1.5;" x="369.60768" xlink:href="#m04b6d4d273" y="121.661465"/>
    </g>
   </g>
   <g id="line2d_69">
    <path d="M 338.688 167.27248 
L 369.60768 78.683881 
" style="fill:none;stroke:#ff0000;stroke-linecap:square;stroke-width:1.5;"/>
    <g>
     <use style="fill-opacity:0;stroke:#ff0000;stroke-linejoin:miter;stroke-width:1.5;" x="338.688" xlink:href="#m94086bda73" y="167.27248"/>
     <use style="fill-opacity:0;stroke:#ff0000;stroke-linejoin:miter;stroke-width:1.5;" x="369.60768" xlink:href="#m94086bda73" y="78.683881"/>
    </g>
   </g>
   <g id="line2d_70">
    <path d="M 338.688 298.944 
L 338.688 30.334099 
" style="fill:none;stroke:#000000;stroke-linecap:square;stroke-width:1.5;"/>
   </g>
   <g id="patch_3">
    <path d="M 57.6 298.944 
L 57.6 27.648 
" style="fill:none;stroke:#000000;stroke-linecap:square;stroke-linejoin:miter;stroke-width:0.8;"/>
   </g>
   <g id="patch_4">
    <path d="M 338.688 298.944 
L 338.688 27.648 
" style="fill:none;stroke:#000000;stroke-linecap:square;stroke-linejoin:miter;stroke-width:0.8;"/>
   </g>
   <g id="patch_5">
    <path d="M 57.6 298.944 
L 338.688 298.944 
" style="fill:none;stroke:#000000;stroke-linecap:square;stroke-linejoin:miter;stroke-width:0.8;"/>
   </g>
   <g id="patch_6">
    <path d="M 57.6 27.648 
L 338.688 27.648 
" style="fill:none;stroke:#000000;stroke-linecap:square;stroke-linejoin:miter;stroke-width:0.8;"/>
   </g>
   <g id="text_13">
    <!-- pop100xDI -->
    <g transform="translate(375.22944 298.262739)scale(0.17 -0.17)">
     <defs>
      <path d="M 54.890625 54.6875 
L 35.109375 28.078125 
L 55.90625 0 
L 45.3125 0 
L 29.390625 21.484375 
L 13.484375 0 
L 2.875 0 
L 24.125 28.609375 
L 4.6875 54.6875 
L 15.28125 54.6875 
L 29.78125 35.203125 
L 44.28125 54.6875 
z
" id="DejaVuSans-120"/>
      <path d="M 19.671875 64.796875 
L 19.671875 8.109375 
L 31.59375 8.109375 
Q 46.6875 8.109375 53.6875 14.9375 
Q 60.6875 21.78125 60.6875 36.53125 
Q 60.6875 51.171875 53.6875 57.984375 
Q 46.6875 64.796875 31.59375 64.796875 
z
M 9.8125 72.90625 
L 30.078125 72.90625 
Q 51.265625 72.90625 61.171875 64.09375 
Q 71.09375 55.28125 71.09375 36.53125 
Q 71.09375 17.671875 61.125 8.828125 
Q 51.171875 0 30.078125 0 
L 9.8125 0 
z
" id="DejaVuSans-68"/>
      <path d="M 9.8125 72.90625 
L 19.671875 72.90625 
L 19.671875 0 
L 9.8125 0 
z
" id="DejaVuSans-73"/>
     </defs>
     <use xlink:href="#DejaVuSans-112"/>
     <use x="63.476562" xlink:href="#DejaVuSans-111"/>
     <use x="124.658203" xlink:href="#DejaVuSans-112"/>
     <use x="188.134766" xlink:href="#DejaVuSans-49"/>
     <use x="251.757812" xlink:href="#DejaVuSans-48"/>
     <use x="315.380859" xlink:href="#DejaVuSans-48"/>
     <use x="379.003906" xlink:href="#DejaVuSans-120"/>
     <use x="438.183594" xlink:href="#DejaVuSans-68"/>
     <use x="515.185547" xlink:href="#DejaVuSans-73"/>
    </g>
   </g>
   <g id="text_14">
    <!-- pop40 -->
    <g transform="translate(375.22944 255.285155)scale(0.17 -0.17)">
     <use xlink:href="#DejaVuSans-112"/>
     <use x="63.476562" xlink:href="#DejaVuSans-111"/>
     <use x="124.658203" xlink:href="#DejaVuSans-112"/>
     <use x="188.134766" xlink:href="#DejaVuSans-52"/>
     <use x="251.757812" xlink:href="#DejaVuSans-48"/>
    </g>
   </g>
   <g id="text_15">
    <!-- pop50 -->
    <g transform="translate(375.22944 212.307571)scale(0.17 -0.17)">
     <defs>
      <path d="M 10.796875 72.90625 
L 49.515625 72.90625 
L 49.515625 64.59375 
L 19.828125 64.59375 
L 19.828125 46.734375 
Q 21.96875 47.46875 24.109375 47.828125 
Q 26.265625 48.1875 28.421875 48.1875 
Q 40.625 48.1875 47.75 41.5 
Q 54.890625 34.8125 54.890625 23.390625 
Q 54.890625 11.625 47.5625 5.09375 
Q 40.234375 -1.421875 26.90625 -1.421875 
Q 22.3125 -1.421875 17.546875 -0.640625 
Q 12.796875 0.140625 7.71875 1.703125 
L 7.71875 11.625 
Q 12.109375 9.234375 16.796875 8.0625 
Q 21.484375 6.890625 26.703125 6.890625 
Q 35.15625 6.890625 40.078125 11.328125 
Q 45.015625 15.765625 45.015625 23.390625 
Q 45.015625 31 40.078125 35.4375 
Q 35.15625 39.890625 26.703125 39.890625 
Q 22.75 39.890625 18.8125 39.015625 
Q 14.890625 38.140625 10.796875 36.28125 
z
" id="DejaVuSans-53"/>
     </defs>
     <use xlink:href="#DejaVuSans-112"/>
     <use x="63.476562" xlink:href="#DejaVuSans-111"/>
     <use x="124.658203" xlink:href="#DejaVuSans-112"/>
     <use x="188.134766" xlink:href="#DejaVuSans-53"/>
     <use x="251.757812" xlink:href="#DejaVuSans-48"/>
    </g>
   </g>
   <g id="text_16">
    <!-- pop10 -->
    <g transform="translate(375.22944 169.329987)scale(0.17 -0.17)">
     <use xlink:href="#DejaVuSans-112"/>
     <use x="63.476562" xlink:href="#DejaVuSans-111"/>
     <use x="124.658203" xlink:href="#DejaVuSans-112"/>
     <use x="188.134766" xlink:href="#DejaVuSans-49"/>
     <use x="251.757812" xlink:href="#DejaVuSans-48"/>
    </g>
   </g>
   <g id="text_17">
    <!-- pop100 -->
    <g transform="translate(375.22944 126.352403)scale(0.17 -0.17)">
     <use xlink:href="#DejaVuSans-112"/>
     <use x="63.476562" xlink:href="#DejaVuSans-111"/>
     <use x="124.658203" xlink:href="#DejaVuSans-112"/>
     <use x="188.134766" xlink:href="#DejaVuSans-49"/>
     <use x="251.757812" xlink:href="#DejaVuSans-48"/>
     <use x="315.380859" xlink:href="#DejaVuSans-48"/>
    </g>
   </g>
   <g id="text_18">
    <!-- pop200 -->
    <g transform="translate(375.22944 83.374819)scale(0.17 -0.17)">
     <use xlink:href="#DejaVuSans-112"/>
     <use x="63.476562" xlink:href="#DejaVuSans-111"/>
     <use x="124.658203" xlink:href="#DejaVuSans-112"/>
     <use x="188.134766" xlink:href="#DejaVuSans-50"/>
     <use x="251.757812" xlink:href="#DejaVuSans-48"/>
     <use x="315.380859" xlink:href="#DejaVuSans-48"/>
    </g>
   </g>
   <g id="text_19">
    <!-- best 2009 -->
    <g transform="translate(375.22944 40.397235)scale(0.17 -0.17)">
     <defs>
      <path d="M 48.6875 27.296875 
Q 48.6875 37.203125 44.609375 42.84375 
Q 40.53125 48.484375 33.40625 48.484375 
Q 26.265625 48.484375 22.1875 42.84375 
Q 18.109375 37.203125 18.109375 27.296875 
Q 18.109375 17.390625 22.1875 11.75 
Q 26.265625 6.109375 33.40625 6.109375 
Q 40.53125 6.109375 44.609375 11.75 
Q 48.6875 17.390625 48.6875 27.296875 
z
M 18.109375 46.390625 
Q 20.953125 51.265625 25.265625 53.625 
Q 29.59375 56 35.59375 56 
Q 45.5625 56 51.78125 48.09375 
Q 58.015625 40.1875 58.015625 27.296875 
Q 58.015625 14.40625 51.78125 6.484375 
Q 45.5625 -1.421875 35.59375 -1.421875 
Q 29.59375 -1.421875 25.265625 0.953125 
Q 20.953125 3.328125 18.109375 8.203125 
L 18.109375 0 
L 9.078125 0 
L 9.078125 75.984375 
L 18.109375 75.984375 
z
" id="DejaVuSans-98"/>
      <path d="M 10.984375 1.515625 
L 10.984375 10.5 
Q 14.703125 8.734375 18.5 7.8125 
Q 22.3125 6.890625 25.984375 6.890625 
Q 35.75 6.890625 40.890625 13.453125 
Q 46.046875 20.015625 46.78125 33.40625 
Q 43.953125 29.203125 39.59375 26.953125 
Q 35.25 24.703125 29.984375 24.703125 
Q 19.046875 24.703125 12.671875 31.3125 
Q 6.296875 37.9375 6.296875 49.421875 
Q 6.296875 60.640625 12.9375 67.421875 
Q 19.578125 74.21875 30.609375 74.21875 
Q 43.265625 74.21875 49.921875 64.515625 
Q 56.59375 54.828125 56.59375 36.375 
Q 56.59375 19.140625 48.40625 8.859375 
Q 40.234375 -1.421875 26.421875 -1.421875 
Q 22.703125 -1.421875 18.890625 -0.6875 
Q 15.09375 0.046875 10.984375 1.515625 
z
M 30.609375 32.421875 
Q 37.25 32.421875 41.125 36.953125 
Q 45.015625 41.5 45.015625 49.421875 
Q 45.015625 57.28125 41.125 61.84375 
Q 37.25 66.40625 30.609375 66.40625 
Q 23.96875 66.40625 20.09375 61.84375 
Q 16.21875 57.28125 16.21875 49.421875 
Q 16.21875 41.5 20.09375 36.953125 
Q 23.96875 32.421875 30.609375 32.421875 
z
" id="DejaVuSans-57"/>
     </defs>
     <use xlink:href="#DejaVuSans-98"/>
     <use x="63.476562" xlink:href="#DejaVuSans-101"/>
     <use x="125" xlink:href="#DejaVuSans-115"/>
     <use x="177.099609" xlink:href="#DejaVuSans-116"/>
     <use x="216.308594" xlink:href="#DejaVuSans-32"/>
     <use x="248.095703" xlink:href="#DejaVuSans-50"/>
     <use x="311.71875" xlink:href="#DejaVuSans-48"/>
     <use x="375.341797" xlink:href="#DejaVuSans-48"/>
     <use x="438.964844" xlink:href="#DejaVuSans-57"/>
    </g>
   </g>
   <g id="text_20">
    <!-- bbob f12, 10-D -->
    <g transform="translate(60.41088 38.111366)scale(0.102 -0.102)">
     <use xlink:href="#DejaVuSans-98"/>
     <use x="63.476562" xlink:href="#DejaVuSans-98"/>
     <use x="126.953125" xlink:href="#DejaVuSans-111"/>
     <use x="188.134766" xlink:href="#DejaVuSans-98"/>
     <use x="251.611328" xlink:href="#DejaVuSans-32"/>
     <use x="283.398438" xlink:href="#DejaVuSans-102"/>
     <use x="318.603516" xlink:href="#DejaVuSans-49"/>
     <use x="382.226562" xlink:href="#DejaVuSans-50"/>
     <use x="445.849609" xlink:href="#DejaVuSans-44"/>
     <use x="477.636719" xlink:href="#DejaVuSans-32"/>
     <use x="509.423828" xlink:href="#DejaVuSans-49"/>
     <use x="573.046875" xlink:href="#DejaVuSans-48"/>
     <use x="636.669922" xlink:href="#DejaVuSans-45"/>
     <use x="672.753906" xlink:href="#DejaVuSans-68"/>
    </g>
    <!-- 51 targets: 100..1e-08 -->
    <g transform="translate(60.41088 49.533135)scale(0.102 -0.102)">
     <defs>
      <path d="M 11.71875 12.40625 
L 22.015625 12.40625 
L 22.015625 0 
L 11.71875 0 
z
M 11.71875 51.703125 
L 22.015625 51.703125 
L 22.015625 39.3125 
L 11.71875 39.3125 
z
" id="DejaVuSans-58"/>
     </defs>
     <use xlink:href="#DejaVuSans-53"/>
     <use x="63.623047" xlink:href="#DejaVuSans-49"/>
     <use x="127.246094" xlink:href="#DejaVuSans-32"/>
     <use x="159.033203" xlink:href="#DejaVuSans-116"/>
     <use x="198.242188" xlink:href="#DejaVuSans-97"/>
     <use x="259.521484" xlink:href="#DejaVuSans-114"/>
     <use x="298.884766" xlink:href="#DejaVuSans-103"/>
     <use x="362.361328" xlink:href="#DejaVuSans-101"/>
     <use x="423.884766" xlink:href="#DejaVuSans-116"/>
     <use x="463.09375" xlink:href="#DejaVuSans-115"/>
     <use x="515.193359" xlink:href="#DejaVuSans-58"/>
     <use x="548.884766" xlink:href="#DejaVuSans-32"/>
     <use x="580.671875" xlink:href="#DejaVuSans-49"/>
     <use x="644.294922" xlink:href="#DejaVuSans-48"/>
     <use x="707.917969" xlink:href="#DejaVuSans-48"/>
     <use x="771.541016" xlink:href="#DejaVuSans-46"/>
     <use x="803.328125" xlink:href="#DejaVuSans-46"/>
     <use x="835.115234" xlink:href="#DejaVuSans-49"/>
     <use x="898.738281" xlink:href="#DejaVuSans-101"/>
     <use x="960.261719" xlink:href="#DejaVuSans-45"/>
     <use x="996.345703" xlink:href="#DejaVuSans-48"/>
     <use x="1059.96875" xlink:href="#DejaVuSans-56"/>
    </g>
    <!-- 15 instances -->
    <g transform="translate(60.41088 60.954904)scale(0.102 -0.102)">
     <use xlink:href="#DejaVuSans-49"/>
     <use x="63.623047" xlink:href="#DejaVuSans-53"/>
     <use x="127.246094" xlink:href="#DejaVuSans-32"/>
     <use x="159.033203" xlink:href="#DejaVuSans-105"/>
     <use x="186.816406" xlink:href="#DejaVuSans-110"/>
     <use x="250.195312" xlink:href="#DejaVuSans-115"/>
     <use x="302.294922" xlink:href="#DejaVuSans-116"/>
     <use x="341.503906" xlink:href="#DejaVuSans-97"/>
     <use x="402.783203" xlink:href="#DejaVuSans-110"/>
     <use x="466.162109" xlink:href="#DejaVuSans-99"/>
     <use x="521.142578" xlink:href="#DejaVuSans-101"/>
     <use x="582.666016" xlink:href="#DejaVuSans-115"/>
    </g>
   </g>
   <g id="text_21">
    <!-- v2.4 -->
    <g style="fill:#808080;" transform="translate(187.233062 294.151352)scale(0.1 -0.1)">
     <use xlink:href="#DejaVuSans-118"/>
     <use x="59.179688" xlink:href="#DejaVuSans-50"/>
     <use x="122.802734" xlink:href="#DejaVuSans-46"/>
     <use x="154.589844" xlink:href="#DejaVuSans-52"/>
    </g>
   </g>
   <g id="text_22">
    <!-- 12 Bent cigar -->
    <g transform="translate(130.926812 21.648)scale(0.2 -0.2)">
     <defs>
      <path d="M 19.671875 34.8125 
L 19.671875 8.109375 
L 35.5 8.109375 
Q 43.453125 8.109375 47.28125 11.40625 
Q 51.125 14.703125 51.125 21.484375 
Q 51.125 28.328125 47.28125 31.5625 
Q 43.453125 34.8125 35.5 34.8125 
z
M 19.671875 64.796875 
L 19.671875 42.828125 
L 34.28125 42.828125 
Q 41.5 42.828125 45.03125 45.53125 
Q 48.578125 48.25 48.578125 53.8125 
Q 48.578125 59.328125 45.03125 62.0625 
Q 41.5 64.796875 34.28125 64.796875 
z
M 9.8125 72.90625 
L 35.015625 72.90625 
Q 46.296875 72.90625 52.390625 68.21875 
Q 58.5 63.53125 58.5 54.890625 
Q 58.5 48.1875 55.375 44.234375 
Q 52.25 40.28125 46.1875 39.3125 
Q 53.46875 37.75 57.5 32.78125 
Q 61.53125 27.828125 61.53125 20.40625 
Q 61.53125 10.640625 54.890625 5.3125 
Q 48.25 0 35.984375 0 
L 9.8125 0 
z
" id="DejaVuSans-66"/>
     </defs>
     <use xlink:href="#DejaVuSans-49"/>
     <use x="63.623047" xlink:href="#DejaVuSans-50"/>
     <use x="127.246094" xlink:href="#DejaVuSans-32"/>
     <use x="159.033203" xlink:href="#DejaVuSans-66"/>
     <use x="227.636719" xlink:href="#DejaVuSans-101"/>
     <use x="289.160156" xlink:href="#DejaVuSans-110"/>
     <use x="352.539062" xlink:href="#DejaVuSans-116"/>
     <use x="391.748047" xlink:href="#DejaVuSans-32"/>
     <use x="423.535156" xlink:href="#DejaVuSans-99"/>
     <use x="478.515625" xlink:href="#DejaVuSans-105"/>
     <use x="506.298828" xlink:href="#DejaVuSans-103"/>
     <use x="569.775391" xlink:href="#DejaVuSans-97"/>
     <use x="631.054688" xlink:href="#DejaVuSans-114"/>
    </g>
   </g>
  </g>
 </g>
 <defs>
  <clipPath id="pe58895b7a4">
   <rect height="271.296" width="281.088" x="57.6" y="27.648"/>
  </clipPath>
 </defs>
</svg>
