<?xml version="1.0" encoding="utf-8" standalone="no"?>
<!DOCTYPE svg PUBLIC "-//W3C//DTD SVG 1.1//EN"
  "http://www.w3.org/Graphics/SVG/1.1/DTD/svg11.dtd">
<!-- Created with matplotlib (https://matplotlib.org/) -->
<svg height="345.6pt" version="1.1" viewBox="0 0 460.8 345.6" width="460.8pt" xmlns="http://www.w3.org/2000/svg" xmlns:xlink="http://www.w3.org/1999/xlink">
 <metadata>
  <rdf:RDF xmlns:cc="http://creativecommons.org/ns#" xmlns:dc="http://purl.org/dc/elements/1.1/" xmlns:rdf="http://www.w3.org/1999/02/22-rdf-syntax-ns#">
   <cc:Work>
    <dc:type rdf:resource="http://purl.org/dc/dcmitype/StillImage"/>
    <dc:date>2021-04-18T18:04:08.498050</dc:date>
    <dc:format>image/svg+xml</dc:format>
    <dc:creator>
     <cc:Agent>
      <dc:title>Matplotlib v3.3.4, https://matplotlib.org/</dc:title>
     </cc:Agent>
    </dc:creator>
   </cc:Work>
  </rdf:RDF>
 </metadata>
 <defs>
  <style type="text/css">*{stroke-linecap:butt;stroke-linejoin:round;}</style>
 </defs>
 <g id="figure_1">
  <g id="patch_1">
   <path d="M 0 345.6 
L 460.8 345.6 
L 460.8 0 
L 0 0 
z
" style="fill:#ffffff;"/>
  </g>
  <g id="axes_1">
   <g id="patch_2">
    <path d="M 57.6 298.944 
L 338.688 298.944 
L 338.688 27.648 
L 57.6 27.648 
z
" style="fill:#ffffff;"/>
   </g>
   <g id="line2d_1">
    <path d="M 102.772397 298.944 
L 102.772397 293.677139 
L 104.826449 293.677139 
L 104.826449 288.410278 
L 105.584798 288.410278 
L 105.584798 283.143418 
L 105.951954 283.143418 
L 105.951954 277.876557 
L 108.640231 277.876557 
L 108.640231 272.609696 
L 111.239304 272.609696 
L 111.239304 267.342835 
L 114.641021 267.342835 
L 114.641021 262.075974 
L 118.039942 262.075974 
L 118.039942 256.809114 
L 119.931767 256.809114 
L 119.931767 251.542253 
L 123.192626 251.542253 
L 123.192626 246.275392 
L 127.799239 246.275392 
L 127.799239 241.008531 
L 131.185181 241.008531 
L 131.185181 235.74167 
L 133.277185 235.74167 
L 133.277185 230.47481 
L 138.256201 230.47481 
L 138.256201 225.207949 
L 139.253002 225.207949 
L 139.253002 219.941088 
L 139.990725 219.941088 
L 139.990725 214.674227 
L 140.79731 214.674227 
L 140.79731 209.407366 
L 141.521035 209.407366 
L 141.521035 204.140506 
L 142.215919 204.140506 
L 142.215919 198.873645 
L 142.664255 198.873645 
L 142.664255 193.606784 
L 142.971369 193.606784 
L 142.971369 188.339923 
L 143.44331 188.339923 
L 143.44331 183.073062 
L 143.695448 183.073062 
L 143.695448 177.806202 
L 143.985075 177.806202 
L 143.985075 172.539341 
L 144.470655 172.539341 
L 144.470655 167.27248 
L 144.787023 167.27248 
L 144.787023 162.005619 
L 146.573414 162.005619 
L 146.573414 156.738758 
L 149.616841 156.738758 
L 149.616841 151.471897 
L 149.998846 151.471897 
L 149.998846 146.205037 
L 150.372662 146.205037 
L 150.372662 140.938176 
L 150.682827 140.938176 
L 150.682827 135.671315 
L 150.987572 135.671315 
L 150.987572 130.404454 
L 151.501723 130.404454 
L 151.501723 125.137593 
L 151.844975 125.137593 
L 151.844975 119.870733 
L 152.232818 119.870733 
L 152.232818 114.603872 
L 152.587184 114.603872 
L 152.587184 109.337011 
L 152.835965 109.337011 
L 152.835965 104.07015 
L 153.056874 104.07015 
L 153.056874 98.803289 
L 153.323128 98.803289 
L 153.323128 93.536429 
L 153.609024 93.536429 
L 153.609024 88.269568 
L 153.820412 88.269568 
L 153.820412 83.002707 
L 153.983071 83.002707 
L 153.983071 77.735846 
L 154.326601 77.735846 
L 154.326601 72.468985 
L 154.46214 72.468985 
L 154.46214 67.202125 
L 154.641235 67.202125 
L 154.641235 61.935264 
L 154.796449 61.935264 
L 154.796449 56.668403 
L 154.972161 56.668403 
L 154.972161 51.401542 
L 155.081089 51.401542 
L 155.081089 46.134681 
L 155.253971 46.134681 
L 155.253971 40.867821 
L 155.382516 40.867821 
L 155.382516 35.60096 
L 155.510121 35.60096 
L 155.510121 30.334099 
L 338.688 30.334099 
" style="fill:none;stroke:#f5deb3;stroke-linecap:square;stroke-width:4;"/>
   </g>
   <g id="line2d_2">
    <defs>
     <path d="M -0 7.778175 
L 7.778175 0 
L 0 -7.778175 
L -7.778175 -0 
z
" id="m22de5c788c" style="stroke:#f5deb3;stroke-linejoin:miter;stroke-width:1.5;"/>
    </defs>
    <g>
     <use style="fill:#f5deb3;stroke:#f5deb3;stroke-linejoin:miter;stroke-width:1.5;" x="139.990725" xlink:href="#m22de5c788c" y="219.941088"/>
     <use style="fill:#f5deb3;stroke:#f5deb3;stroke-linejoin:miter;stroke-width:1.5;" x="153.609024" xlink:href="#m22de5c788c" y="93.536429"/>
     <use style="fill:#f5deb3;stroke:#f5deb3;stroke-linejoin:miter;stroke-width:1.5;" x="155.510121" xlink:href="#m22de5c788c" y="35.60096"/>
     <use style="fill:#f5deb3;stroke:#f5deb3;stroke-linejoin:miter;stroke-width:1.5;" x="155.510121" xlink:href="#m22de5c788c" y="30.334099"/>
     <use style="fill:#f5deb3;stroke:#f5deb3;stroke-linejoin:miter;stroke-width:1.5;" x="338.688" xlink:href="#m22de5c788c" y="30.334099"/>
    </g>
   </g>
   <g id="line2d_3">
    <path style="fill:none;stroke:#f5deb3;stroke-linecap:square;stroke-width:4;"/>
    <g/>
   </g>
   <g id="line2d_4">
    <path d="M 338.688 30.334099 
L 369.60768 35.706297 
" style="fill:none;stroke:#f5deb3;stroke-linecap:square;stroke-width:4;"/>
    <g>
     <use style="fill:#f5deb3;stroke:#f5deb3;stroke-linejoin:miter;stroke-width:1.5;" x="338.688" xlink:href="#m22de5c788c" y="30.334099"/>
     <use style="fill:#f5deb3;stroke:#f5deb3;stroke-linejoin:miter;stroke-width:1.5;" x="369.60768" xlink:href="#m22de5c788c" y="35.706297"/>
    </g>
   </g>
   <g id="matplotlib.axis_1">
    <g id="xtick_1">
     <g id="line2d_5">
      <path clip-path="url(#pe020801c19)" d="M 57.6 298.944 
L 57.6 27.648 
" style="fill:none;stroke:#b0b0b0;stroke-linecap:square;stroke-width:0.8;"/>
     </g>
     <g id="line2d_6">
      <defs>
       <path d="M 0 0 
L 0 3.5 
" id="mc74b3679e0" style="stroke:#000000;stroke-width:0.8;"/>
      </defs>
      <g>
       <use style="stroke:#000000;stroke-width:0.8;" x="57.6" xlink:href="#mc74b3679e0" y="298.944"/>
      </g>
     </g>
     <g id="text_1">
      <!-- 0 -->
      <g transform="translate(51.2375 321.140875)scale(0.2 -0.2)">
       <defs>
        <path d="M 31.78125 66.40625 
Q 24.171875 66.40625 20.328125 58.90625 
Q 16.5 51.421875 16.5 36.375 
Q 16.5 21.390625 20.328125 13.890625 
Q 24.171875 6.390625 31.78125 6.390625 
Q 39.453125 6.390625 43.28125 13.890625 
Q 47.125 21.390625 47.125 36.375 
Q 47.125 51.421875 43.28125 58.90625 
Q 39.453125 66.40625 31.78125 66.40625 
z
M 31.78125 74.21875 
Q 44.046875 74.21875 50.515625 64.515625 
Q 56.984375 54.828125 56.984375 36.375 
Q 56.984375 17.96875 50.515625 8.265625 
Q 44.046875 -1.421875 31.78125 -1.421875 
Q 19.53125 -1.421875 13.0625 8.265625 
Q 6.59375 17.96875 6.59375 36.375 
Q 6.59375 54.828125 13.0625 64.515625 
Q 19.53125 74.21875 31.78125 74.21875 
z
" id="DejaVuSans-48"/>
       </defs>
       <use xlink:href="#DejaVuSans-48"/>
      </g>
     </g>
    </g>
    <g id="xtick_2">
     <g id="line2d_7">
      <path clip-path="url(#pe020801c19)" d="M 137.910857 298.944 
L 137.910857 27.648 
" style="fill:none;stroke:#b0b0b0;stroke-linecap:square;stroke-width:0.8;"/>
     </g>
     <g id="line2d_8">
      <g>
       <use style="stroke:#000000;stroke-width:0.8;" x="137.910857" xlink:href="#mc74b3679e0" y="298.944"/>
      </g>
     </g>
     <g id="text_2">
      <!-- 2 -->
      <g transform="translate(131.548357 321.140875)scale(0.2 -0.2)">
       <defs>
        <path d="M 19.1875 8.296875 
L 53.609375 8.296875 
L 53.609375 0 
L 7.328125 0 
L 7.328125 8.296875 
Q 12.9375 14.109375 22.625 23.890625 
Q 32.328125 33.6875 34.8125 36.53125 
Q 39.546875 41.84375 41.421875 45.53125 
Q 43.3125 49.21875 43.3125 52.78125 
Q 43.3125 58.59375 39.234375 62.25 
Q 35.15625 65.921875 28.609375 65.921875 
Q 23.96875 65.921875 18.8125 64.3125 
Q 13.671875 62.703125 7.8125 59.421875 
L 7.8125 69.390625 
Q 13.765625 71.78125 18.9375 73 
Q 24.125 74.21875 28.421875 74.21875 
Q 39.75 74.21875 46.484375 68.546875 
Q 53.21875 62.890625 53.21875 53.421875 
Q 53.21875 48.921875 51.53125 44.890625 
Q 49.859375 40.875 45.40625 35.40625 
Q 44.1875 33.984375 37.640625 27.21875 
Q 31.109375 20.453125 19.1875 8.296875 
z
" id="DejaVuSans-50"/>
       </defs>
       <use xlink:href="#DejaVuSans-50"/>
      </g>
     </g>
    </g>
    <g id="xtick_3">
     <g id="line2d_9">
      <path clip-path="url(#pe020801c19)" d="M 218.221714 298.944 
L 218.221714 27.648 
" style="fill:none;stroke:#b0b0b0;stroke-linecap:square;stroke-width:0.8;"/>
     </g>
     <g id="line2d_10">
      <g>
       <use style="stroke:#000000;stroke-width:0.8;" x="218.221714" xlink:href="#mc74b3679e0" y="298.944"/>
      </g>
     </g>
     <g id="text_3">
      <!-- 4 -->
      <g transform="translate(211.859214 321.140875)scale(0.2 -0.2)">
       <defs>
        <path d="M 37.796875 64.3125 
L 12.890625 25.390625 
L 37.796875 25.390625 
z
M 35.203125 72.90625 
L 47.609375 72.90625 
L 47.609375 25.390625 
L 58.015625 25.390625 
L 58.015625 17.1875 
L 47.609375 17.1875 
L 47.609375 0 
L 37.796875 0 
L 37.796875 17.1875 
L 4.890625 17.1875 
L 4.890625 26.703125 
z
" id="DejaVuSans-52"/>
       </defs>
       <use xlink:href="#DejaVuSans-52"/>
      </g>
     </g>
    </g>
    <g id="xtick_4">
     <g id="line2d_11">
      <path clip-path="url(#pe020801c19)" d="M 298.532571 298.944 
L 298.532571 27.648 
" style="fill:none;stroke:#b0b0b0;stroke-linecap:square;stroke-width:0.8;"/>
     </g>
     <g id="line2d_12">
      <g>
       <use style="stroke:#000000;stroke-width:0.8;" x="298.532571" xlink:href="#mc74b3679e0" y="298.944"/>
      </g>
     </g>
     <g id="text_4">
      <!-- 6 -->
      <g transform="translate(292.170071 321.140875)scale(0.2 -0.2)">
       <defs>
        <path d="M 33.015625 40.375 
Q 26.375 40.375 22.484375 35.828125 
Q 18.609375 31.296875 18.609375 23.390625 
Q 18.609375 15.53125 22.484375 10.953125 
Q 26.375 6.390625 33.015625 6.390625 
Q 39.65625 6.390625 43.53125 10.953125 
Q 47.40625 15.53125 47.40625 23.390625 
Q 47.40625 31.296875 43.53125 35.828125 
Q 39.65625 40.375 33.015625 40.375 
z
M 52.59375 71.296875 
L 52.59375 62.3125 
Q 48.875 64.0625 45.09375 64.984375 
Q 41.3125 65.921875 37.59375 65.921875 
Q 27.828125 65.921875 22.671875 59.328125 
Q 17.53125 52.734375 16.796875 39.40625 
Q 19.671875 43.65625 24.015625 45.921875 
Q 28.375 48.1875 33.59375 48.1875 
Q 44.578125 48.1875 50.953125 41.515625 
Q 57.328125 34.859375 57.328125 23.390625 
Q 57.328125 12.15625 50.6875 5.359375 
Q 44.046875 -1.421875 33.015625 -1.421875 
Q 20.359375 -1.421875 13.671875 8.265625 
Q 6.984375 17.96875 6.984375 36.375 
Q 6.984375 53.65625 15.1875 63.9375 
Q 23.390625 74.21875 37.203125 74.21875 
Q 40.921875 74.21875 44.703125 73.484375 
Q 48.484375 72.75 52.59375 71.296875 
z
" id="DejaVuSans-54"/>
       </defs>
       <use xlink:href="#DejaVuSans-54"/>
      </g>
     </g>
    </g>
    <g id="xtick_5">
     <g id="line2d_13">
      <path clip-path="url(#pe020801c19)" d="M 97.755429 298.944 
L 97.755429 27.648 
" style="fill:none;stroke:#b0b0b0;stroke-linecap:square;stroke-width:0.8;"/>
     </g>
     <g id="line2d_14">
      <defs>
       <path d="M 0 0 
L 0 2 
" id="m5cad87c5ff" style="stroke:#000000;stroke-width:0.6;"/>
      </defs>
      <g>
       <use style="stroke:#000000;stroke-width:0.6;" x="97.755429" xlink:href="#m5cad87c5ff" y="298.944"/>
      </g>
     </g>
    </g>
    <g id="xtick_6">
     <g id="line2d_15">
      <path clip-path="url(#pe020801c19)" d="M 178.066286 298.944 
L 178.066286 27.648 
" style="fill:none;stroke:#b0b0b0;stroke-linecap:square;stroke-width:0.8;"/>
     </g>
     <g id="line2d_16">
      <g>
       <use style="stroke:#000000;stroke-width:0.6;" x="178.066286" xlink:href="#m5cad87c5ff" y="298.944"/>
      </g>
     </g>
    </g>
    <g id="xtick_7">
     <g id="line2d_17">
      <path clip-path="url(#pe020801c19)" d="M 258.377143 298.944 
L 258.377143 27.648 
" style="fill:none;stroke:#b0b0b0;stroke-linecap:square;stroke-width:0.8;"/>
     </g>
     <g id="line2d_18">
      <g>
       <use style="stroke:#000000;stroke-width:0.6;" x="258.377143" xlink:href="#m5cad87c5ff" y="298.944"/>
      </g>
     </g>
    </g>
    <g id="xtick_8">
     <g id="line2d_19">
      <path clip-path="url(#pe020801c19)" d="M 338.688 298.944 
L 338.688 27.648 
" style="fill:none;stroke:#b0b0b0;stroke-linecap:square;stroke-width:0.8;"/>
     </g>
     <g id="line2d_20">
      <g>
       <use style="stroke:#000000;stroke-width:0.6;" x="338.688" xlink:href="#m5cad87c5ff" y="298.944"/>
      </g>
     </g>
    </g>
    <g id="text_5">
     <!-- log10(# f-evals / dimension) -->
     <g transform="translate(77.764078 342.217594)scale(0.17 -0.17)">
      <defs>
       <path d="M 9.421875 75.984375 
L 18.40625 75.984375 
L 18.40625 0 
L 9.421875 0 
z
" id="DejaVuSans-108"/>
       <path d="M 30.609375 48.390625 
Q 23.390625 48.390625 19.1875 42.75 
Q 14.984375 37.109375 14.984375 27.296875 
Q 14.984375 17.484375 19.15625 11.84375 
Q 23.34375 6.203125 30.609375 6.203125 
Q 37.796875 6.203125 41.984375 11.859375 
Q 46.1875 17.53125 46.1875 27.296875 
Q 46.1875 37.015625 41.984375 42.703125 
Q 37.796875 48.390625 30.609375 48.390625 
z
M 30.609375 56 
Q 42.328125 56 49.015625 48.375 
Q 55.71875 40.765625 55.71875 27.296875 
Q 55.71875 13.875 49.015625 6.21875 
Q 42.328125 -1.421875 30.609375 -1.421875 
Q 18.84375 -1.421875 12.171875 6.21875 
Q 5.515625 13.875 5.515625 27.296875 
Q 5.515625 40.765625 12.171875 48.375 
Q 18.84375 56 30.609375 56 
z
" id="DejaVuSans-111"/>
       <path d="M 45.40625 27.984375 
Q 45.40625 37.75 41.375 43.109375 
Q 37.359375 48.484375 30.078125 48.484375 
Q 22.859375 48.484375 18.828125 43.109375 
Q 14.796875 37.75 14.796875 27.984375 
Q 14.796875 18.265625 18.828125 12.890625 
Q 22.859375 7.515625 30.078125 7.515625 
Q 37.359375 7.515625 41.375 12.890625 
Q 45.40625 18.265625 45.40625 27.984375 
z
M 54.390625 6.78125 
Q 54.390625 -7.171875 48.1875 -13.984375 
Q 42 -20.796875 29.203125 -20.796875 
Q 24.46875 -20.796875 20.265625 -20.09375 
Q 16.0625 -19.390625 12.109375 -17.921875 
L 12.109375 -9.1875 
Q 16.0625 -11.328125 19.921875 -12.34375 
Q 23.78125 -13.375 27.78125 -13.375 
Q 36.625 -13.375 41.015625 -8.765625 
Q 45.40625 -4.15625 45.40625 5.171875 
L 45.40625 9.625 
Q 42.625 4.78125 38.28125 2.390625 
Q 33.9375 0 27.875 0 
Q 17.828125 0 11.671875 7.65625 
Q 5.515625 15.328125 5.515625 27.984375 
Q 5.515625 40.671875 11.671875 48.328125 
Q 17.828125 56 27.875 56 
Q 33.9375 56 38.28125 53.609375 
Q 42.625 51.21875 45.40625 46.390625 
L 45.40625 54.6875 
L 54.390625 54.6875 
z
" id="DejaVuSans-103"/>
       <path d="M 12.40625 8.296875 
L 28.515625 8.296875 
L 28.515625 63.921875 
L 10.984375 60.40625 
L 10.984375 69.390625 
L 28.421875 72.90625 
L 38.28125 72.90625 
L 38.28125 8.296875 
L 54.390625 8.296875 
L 54.390625 0 
L 12.40625 0 
z
" id="DejaVuSans-49"/>
       <path d="M 31 75.875 
Q 24.46875 64.65625 21.28125 53.65625 
Q 18.109375 42.671875 18.109375 31.390625 
Q 18.109375 20.125 21.3125 9.0625 
Q 24.515625 -2 31 -13.1875 
L 23.1875 -13.1875 
Q 15.875 -1.703125 12.234375 9.375 
Q 8.59375 20.453125 8.59375 31.390625 
Q 8.59375 42.28125 12.203125 53.3125 
Q 15.828125 64.359375 23.1875 75.875 
z
" id="DejaVuSans-40"/>
       <path d="M 51.125 44 
L 36.921875 44 
L 32.8125 27.6875 
L 47.125 27.6875 
z
M 43.796875 71.78125 
L 38.71875 51.515625 
L 52.984375 51.515625 
L 58.109375 71.78125 
L 65.921875 71.78125 
L 60.890625 51.515625 
L 76.125 51.515625 
L 76.125 44 
L 58.984375 44 
L 54.984375 27.6875 
L 70.515625 27.6875 
L 70.515625 20.21875 
L 53.078125 20.21875 
L 48 0 
L 40.1875 0 
L 45.21875 20.21875 
L 30.90625 20.21875 
L 25.875 0 
L 18.015625 0 
L 23.09375 20.21875 
L 7.71875 20.21875 
L 7.71875 27.6875 
L 24.90625 27.6875 
L 29 44 
L 13.28125 44 
L 13.28125 51.515625 
L 30.90625 51.515625 
L 35.890625 71.78125 
z
" id="DejaVuSans-35"/>
       <path id="DejaVuSans-32"/>
       <path d="M 37.109375 75.984375 
L 37.109375 68.5 
L 28.515625 68.5 
Q 23.6875 68.5 21.796875 66.546875 
Q 19.921875 64.59375 19.921875 59.515625 
L 19.921875 54.6875 
L 34.71875 54.6875 
L 34.71875 47.703125 
L 19.921875 47.703125 
L 19.921875 0 
L 10.890625 0 
L 10.890625 47.703125 
L 2.296875 47.703125 
L 2.296875 54.6875 
L 10.890625 54.6875 
L 10.890625 58.5 
Q 10.890625 67.625 15.140625 71.796875 
Q 19.390625 75.984375 28.609375 75.984375 
z
" id="DejaVuSans-102"/>
       <path d="M 4.890625 31.390625 
L 31.203125 31.390625 
L 31.203125 23.390625 
L 4.890625 23.390625 
z
" id="DejaVuSans-45"/>
       <path d="M 56.203125 29.59375 
L 56.203125 25.203125 
L 14.890625 25.203125 
Q 15.484375 15.921875 20.484375 11.0625 
Q 25.484375 6.203125 34.421875 6.203125 
Q 39.59375 6.203125 44.453125 7.46875 
Q 49.3125 8.734375 54.109375 11.28125 
L 54.109375 2.78125 
Q 49.265625 0.734375 44.1875 -0.34375 
Q 39.109375 -1.421875 33.890625 -1.421875 
Q 20.796875 -1.421875 13.15625 6.1875 
Q 5.515625 13.8125 5.515625 26.8125 
Q 5.515625 40.234375 12.765625 48.109375 
Q 20.015625 56 32.328125 56 
Q 43.359375 56 49.78125 48.890625 
Q 56.203125 41.796875 56.203125 29.59375 
z
M 47.21875 32.234375 
Q 47.125 39.59375 43.09375 43.984375 
Q 39.0625 48.390625 32.421875 48.390625 
Q 24.90625 48.390625 20.390625 44.140625 
Q 15.875 39.890625 15.1875 32.171875 
z
" id="DejaVuSans-101"/>
       <path d="M 2.984375 54.6875 
L 12.5 54.6875 
L 29.59375 8.796875 
L 46.6875 54.6875 
L 56.203125 54.6875 
L 35.6875 0 
L 23.484375 0 
z
" id="DejaVuSans-118"/>
       <path d="M 34.28125 27.484375 
Q 23.390625 27.484375 19.1875 25 
Q 14.984375 22.515625 14.984375 16.5 
Q 14.984375 11.71875 18.140625 8.90625 
Q 21.296875 6.109375 26.703125 6.109375 
Q 34.1875 6.109375 38.703125 11.40625 
Q 43.21875 16.703125 43.21875 25.484375 
L 43.21875 27.484375 
z
M 52.203125 31.203125 
L 52.203125 0 
L 43.21875 0 
L 43.21875 8.296875 
Q 40.140625 3.328125 35.546875 0.953125 
Q 30.953125 -1.421875 24.3125 -1.421875 
Q 15.921875 -1.421875 10.953125 3.296875 
Q 6 8.015625 6 15.921875 
Q 6 25.140625 12.171875 29.828125 
Q 18.359375 34.515625 30.609375 34.515625 
L 43.21875 34.515625 
L 43.21875 35.40625 
Q 43.21875 41.609375 39.140625 45 
Q 35.0625 48.390625 27.6875 48.390625 
Q 23 48.390625 18.546875 47.265625 
Q 14.109375 46.140625 10.015625 43.890625 
L 10.015625 52.203125 
Q 14.9375 54.109375 19.578125 55.046875 
Q 24.21875 56 28.609375 56 
Q 40.484375 56 46.34375 49.84375 
Q 52.203125 43.703125 52.203125 31.203125 
z
" id="DejaVuSans-97"/>
       <path d="M 44.28125 53.078125 
L 44.28125 44.578125 
Q 40.484375 46.53125 36.375 47.5 
Q 32.28125 48.484375 27.875 48.484375 
Q 21.1875 48.484375 17.84375 46.4375 
Q 14.5 44.390625 14.5 40.28125 
Q 14.5 37.15625 16.890625 35.375 
Q 19.28125 33.59375 26.515625 31.984375 
L 29.59375 31.296875 
Q 39.15625 29.25 43.1875 25.515625 
Q 47.21875 21.78125 47.21875 15.09375 
Q 47.21875 7.46875 41.1875 3.015625 
Q 35.15625 -1.421875 24.609375 -1.421875 
Q 20.21875 -1.421875 15.453125 -0.5625 
Q 10.6875 0.296875 5.421875 2 
L 5.421875 11.28125 
Q 10.40625 8.6875 15.234375 7.390625 
Q 20.0625 6.109375 24.8125 6.109375 
Q 31.15625 6.109375 34.5625 8.28125 
Q 37.984375 10.453125 37.984375 14.40625 
Q 37.984375 18.0625 35.515625 20.015625 
Q 33.0625 21.96875 24.703125 23.78125 
L 21.578125 24.515625 
Q 13.234375 26.265625 9.515625 29.90625 
Q 5.8125 33.546875 5.8125 39.890625 
Q 5.8125 47.609375 11.28125 51.796875 
Q 16.75 56 26.8125 56 
Q 31.78125 56 36.171875 55.265625 
Q 40.578125 54.546875 44.28125 53.078125 
z
" id="DejaVuSans-115"/>
       <path d="M 25.390625 72.90625 
L 33.6875 72.90625 
L 8.296875 -9.28125 
L 0 -9.28125 
z
" id="DejaVuSans-47"/>
       <path d="M 45.40625 46.390625 
L 45.40625 75.984375 
L 54.390625 75.984375 
L 54.390625 0 
L 45.40625 0 
L 45.40625 8.203125 
Q 42.578125 3.328125 38.25 0.953125 
Q 33.9375 -1.421875 27.875 -1.421875 
Q 17.96875 -1.421875 11.734375 6.484375 
Q 5.515625 14.40625 5.515625 27.296875 
Q 5.515625 40.1875 11.734375 48.09375 
Q 17.96875 56 27.875 56 
Q 33.9375 56 38.25 53.625 
Q 42.578125 51.265625 45.40625 46.390625 
z
M 14.796875 27.296875 
Q 14.796875 17.390625 18.875 11.75 
Q 22.953125 6.109375 30.078125 6.109375 
Q 37.203125 6.109375 41.296875 11.75 
Q 45.40625 17.390625 45.40625 27.296875 
Q 45.40625 37.203125 41.296875 42.84375 
Q 37.203125 48.484375 30.078125 48.484375 
Q 22.953125 48.484375 18.875 42.84375 
Q 14.796875 37.203125 14.796875 27.296875 
z
" id="DejaVuSans-100"/>
       <path d="M 9.421875 54.6875 
L 18.40625 54.6875 
L 18.40625 0 
L 9.421875 0 
z
M 9.421875 75.984375 
L 18.40625 75.984375 
L 18.40625 64.59375 
L 9.421875 64.59375 
z
" id="DejaVuSans-105"/>
       <path d="M 52 44.1875 
Q 55.375 50.25 60.0625 53.125 
Q 64.75 56 71.09375 56 
Q 79.640625 56 84.28125 50.015625 
Q 88.921875 44.046875 88.921875 33.015625 
L 88.921875 0 
L 79.890625 0 
L 79.890625 32.71875 
Q 79.890625 40.578125 77.09375 44.375 
Q 74.3125 48.1875 68.609375 48.1875 
Q 61.625 48.1875 57.5625 43.546875 
Q 53.515625 38.921875 53.515625 30.90625 
L 53.515625 0 
L 44.484375 0 
L 44.484375 32.71875 
Q 44.484375 40.625 41.703125 44.40625 
Q 38.921875 48.1875 33.109375 48.1875 
Q 26.21875 48.1875 22.15625 43.53125 
Q 18.109375 38.875 18.109375 30.90625 
L 18.109375 0 
L 9.078125 0 
L 9.078125 54.6875 
L 18.109375 54.6875 
L 18.109375 46.1875 
Q 21.1875 51.21875 25.484375 53.609375 
Q 29.78125 56 35.6875 56 
Q 41.65625 56 45.828125 52.96875 
Q 50 49.953125 52 44.1875 
z
" id="DejaVuSans-109"/>
       <path d="M 54.890625 33.015625 
L 54.890625 0 
L 45.90625 0 
L 45.90625 32.71875 
Q 45.90625 40.484375 42.875 44.328125 
Q 39.84375 48.1875 33.796875 48.1875 
Q 26.515625 48.1875 22.3125 43.546875 
Q 18.109375 38.921875 18.109375 30.90625 
L 18.109375 0 
L 9.078125 0 
L 9.078125 54.6875 
L 18.109375 54.6875 
L 18.109375 46.1875 
Q 21.34375 51.125 25.703125 53.5625 
Q 30.078125 56 35.796875 56 
Q 45.21875 56 50.046875 50.171875 
Q 54.890625 44.34375 54.890625 33.015625 
z
" id="DejaVuSans-110"/>
       <path d="M 8.015625 75.875 
L 15.828125 75.875 
Q 23.140625 64.359375 26.78125 53.3125 
Q 30.421875 42.28125 30.421875 31.390625 
Q 30.421875 20.453125 26.78125 9.375 
Q 23.140625 -1.703125 15.828125 -13.1875 
L 8.015625 -13.1875 
Q 14.5 -2 17.703125 9.0625 
Q 20.90625 20.125 20.90625 31.390625 
Q 20.90625 42.671875 17.703125 53.65625 
Q 14.5 64.65625 8.015625 75.875 
z
" id="DejaVuSans-41"/>
      </defs>
      <use xlink:href="#DejaVuSans-108"/>
      <use x="27.783203" xlink:href="#DejaVuSans-111"/>
      <use x="88.964844" xlink:href="#DejaVuSans-103"/>
      <use x="152.441406" xlink:href="#DejaVuSans-49"/>
      <use x="216.064453" xlink:href="#DejaVuSans-48"/>
      <use x="279.6875" xlink:href="#DejaVuSans-40"/>
      <use x="318.701172" xlink:href="#DejaVuSans-35"/>
      <use x="402.490234" xlink:href="#DejaVuSans-32"/>
      <use x="434.277344" xlink:href="#DejaVuSans-102"/>
      <use x="463.982422" xlink:href="#DejaVuSans-45"/>
      <use x="500.066406" xlink:href="#DejaVuSans-101"/>
      <use x="561.589844" xlink:href="#DejaVuSans-118"/>
      <use x="620.769531" xlink:href="#DejaVuSans-97"/>
      <use x="682.048828" xlink:href="#DejaVuSans-108"/>
      <use x="709.832031" xlink:href="#DejaVuSans-115"/>
      <use x="761.931641" xlink:href="#DejaVuSans-32"/>
      <use x="793.71875" xlink:href="#DejaVuSans-47"/>
      <use x="827.410156" xlink:href="#DejaVuSans-32"/>
      <use x="859.197266" xlink:href="#DejaVuSans-100"/>
      <use x="922.673828" xlink:href="#DejaVuSans-105"/>
      <use x="950.457031" xlink:href="#DejaVuSans-109"/>
      <use x="1047.869141" xlink:href="#DejaVuSans-101"/>
      <use x="1109.392578" xlink:href="#DejaVuSans-110"/>
      <use x="1172.771484" xlink:href="#DejaVuSans-115"/>
      <use x="1224.871094" xlink:href="#DejaVuSans-105"/>
      <use x="1252.654297" xlink:href="#DejaVuSans-111"/>
      <use x="1313.835938" xlink:href="#DejaVuSans-110"/>
      <use x="1377.214844" xlink:href="#DejaVuSans-41"/>
     </g>
    </g>
   </g>
   <g id="matplotlib.axis_2">
    <g id="ytick_1">
     <g id="line2d_21">
      <path clip-path="url(#pe020801c19)" d="M 57.6 298.944 
L 338.688 298.944 
" style="fill:none;stroke:#b0b0b0;stroke-linecap:square;stroke-width:0.8;"/>
     </g>
     <g id="line2d_22">
      <defs>
       <path d="M 0 0 
L -3.5 0 
" id="mf4cd5d9872" style="stroke:#000000;stroke-width:0.8;"/>
      </defs>
      <g>
       <use style="stroke:#000000;stroke-width:0.8;" x="57.6" xlink:href="#mf4cd5d9872" y="298.944"/>
      </g>
     </g>
     <g id="text_6">
      <!-- 0.0 -->
      <g transform="translate(25.155 305.02275)scale(0.16 -0.16)">
       <defs>
        <path d="M 10.6875 12.40625 
L 21 12.40625 
L 21 0 
L 10.6875 0 
z
" id="DejaVuSans-46"/>
       </defs>
       <use xlink:href="#DejaVuSans-48"/>
       <use x="63.623047" xlink:href="#DejaVuSans-46"/>
       <use x="95.410156" xlink:href="#DejaVuSans-48"/>
      </g>
     </g>
    </g>
    <g id="ytick_2">
     <g id="line2d_23">
      <path clip-path="url(#pe020801c19)" d="M 57.6 245.22202 
L 338.688 245.22202 
" style="fill:none;stroke:#b0b0b0;stroke-linecap:square;stroke-width:0.8;"/>
     </g>
     <g id="line2d_24">
      <g>
       <use style="stroke:#000000;stroke-width:0.8;" x="57.6" xlink:href="#mf4cd5d9872" y="245.22202"/>
      </g>
     </g>
     <g id="text_7">
      <!-- 0.2 -->
      <g transform="translate(25.155 251.30077)scale(0.16 -0.16)">
       <use xlink:href="#DejaVuSans-48"/>
       <use x="63.623047" xlink:href="#DejaVuSans-46"/>
       <use x="95.410156" xlink:href="#DejaVuSans-50"/>
      </g>
     </g>
    </g>
    <g id="ytick_3">
     <g id="line2d_25">
      <path clip-path="url(#pe020801c19)" d="M 57.6 191.50004 
L 338.688 191.50004 
" style="fill:none;stroke:#b0b0b0;stroke-linecap:square;stroke-width:0.8;"/>
     </g>
     <g id="line2d_26">
      <g>
       <use style="stroke:#000000;stroke-width:0.8;" x="57.6" xlink:href="#mf4cd5d9872" y="191.50004"/>
      </g>
     </g>
     <g id="text_8">
      <!-- 0.4 -->
      <g transform="translate(25.155 197.57879)scale(0.16 -0.16)">
       <use xlink:href="#DejaVuSans-48"/>
       <use x="63.623047" xlink:href="#DejaVuSans-46"/>
       <use x="95.410156" xlink:href="#DejaVuSans-52"/>
      </g>
     </g>
    </g>
    <g id="ytick_4">
     <g id="line2d_27">
      <path clip-path="url(#pe020801c19)" d="M 57.6 137.778059 
L 338.688 137.778059 
" style="fill:none;stroke:#b0b0b0;stroke-linecap:square;stroke-width:0.8;"/>
     </g>
     <g id="line2d_28">
      <g>
       <use style="stroke:#000000;stroke-width:0.8;" x="57.6" xlink:href="#mf4cd5d9872" y="137.778059"/>
      </g>
     </g>
     <g id="text_9">
      <!-- 0.6 -->
      <g transform="translate(25.155 143.856809)scale(0.16 -0.16)">
       <use xlink:href="#DejaVuSans-48"/>
       <use x="63.623047" xlink:href="#DejaVuSans-46"/>
       <use x="95.410156" xlink:href="#DejaVuSans-54"/>
      </g>
     </g>
    </g>
    <g id="ytick_5">
     <g id="line2d_29">
      <path clip-path="url(#pe020801c19)" d="M 57.6 84.056079 
L 338.688 84.056079 
" style="fill:none;stroke:#b0b0b0;stroke-linecap:square;stroke-width:0.8;"/>
     </g>
     <g id="line2d_30">
      <g>
       <use style="stroke:#000000;stroke-width:0.8;" x="57.6" xlink:href="#mf4cd5d9872" y="84.056079"/>
      </g>
     </g>
     <g id="text_10">
      <!-- 0.8 -->
      <g transform="translate(25.155 90.134829)scale(0.16 -0.16)">
       <defs>
        <path d="M 31.78125 34.625 
Q 24.75 34.625 20.71875 30.859375 
Q 16.703125 27.09375 16.703125 20.515625 
Q 16.703125 13.921875 20.71875 10.15625 
Q 24.75 6.390625 31.78125 6.390625 
Q 38.8125 6.390625 42.859375 10.171875 
Q 46.921875 13.96875 46.921875 20.515625 
Q 46.921875 27.09375 42.890625 30.859375 
Q 38.875 34.625 31.78125 34.625 
z
M 21.921875 38.8125 
Q 15.578125 40.375 12.03125 44.71875 
Q 8.5 49.078125 8.5 55.328125 
Q 8.5 64.0625 14.71875 69.140625 
Q 20.953125 74.21875 31.78125 74.21875 
Q 42.671875 74.21875 48.875 69.140625 
Q 55.078125 64.0625 55.078125 55.328125 
Q 55.078125 49.078125 51.53125 44.71875 
Q 48 40.375 41.703125 38.8125 
Q 48.828125 37.15625 52.796875 32.3125 
Q 56.78125 27.484375 56.78125 20.515625 
Q 56.78125 9.90625 50.3125 4.234375 
Q 43.84375 -1.421875 31.78125 -1.421875 
Q 19.734375 -1.421875 13.25 4.234375 
Q 6.78125 9.90625 6.78125 20.515625 
Q 6.78125 27.484375 10.78125 32.3125 
Q 14.796875 37.15625 21.921875 38.8125 
z
M 18.3125 54.390625 
Q 18.3125 48.734375 21.84375 45.5625 
Q 25.390625 42.390625 31.78125 42.390625 
Q 38.140625 42.390625 41.71875 45.5625 
Q 45.3125 48.734375 45.3125 54.390625 
Q 45.3125 60.0625 41.71875 63.234375 
Q 38.140625 66.40625 31.78125 66.40625 
Q 25.390625 66.40625 21.84375 63.234375 
Q 18.3125 60.0625 18.3125 54.390625 
z
" id="DejaVuSans-56"/>
       </defs>
       <use xlink:href="#DejaVuSans-48"/>
       <use x="63.623047" xlink:href="#DejaVuSans-46"/>
       <use x="95.410156" xlink:href="#DejaVuSans-56"/>
      </g>
     </g>
    </g>
    <g id="ytick_6">
     <g id="line2d_31">
      <path clip-path="url(#pe020801c19)" d="M 57.6 30.334099 
L 338.688 30.334099 
" style="fill:none;stroke:#b0b0b0;stroke-linecap:square;stroke-width:0.8;"/>
     </g>
     <g id="line2d_32">
      <g>
       <use style="stroke:#000000;stroke-width:0.8;" x="57.6" xlink:href="#mf4cd5d9872" y="30.334099"/>
      </g>
     </g>
     <g id="text_11">
      <!-- 1.0 -->
      <g transform="translate(25.155 36.412849)scale(0.16 -0.16)">
       <use xlink:href="#DejaVuSans-49"/>
       <use x="63.623047" xlink:href="#DejaVuSans-46"/>
       <use x="95.410156" xlink:href="#DejaVuSans-48"/>
      </g>
     </g>
    </g>
    <g id="text_12">
     <!-- Fraction of function,target pairs -->
     <g transform="translate(17.619531 297.681)rotate(-90)scale(0.17 -0.17)">
      <defs>
       <path d="M 9.8125 72.90625 
L 51.703125 72.90625 
L 51.703125 64.59375 
L 19.671875 64.59375 
L 19.671875 43.109375 
L 48.578125 43.109375 
L 48.578125 34.8125 
L 19.671875 34.8125 
L 19.671875 0 
L 9.8125 0 
z
" id="DejaVuSans-70"/>
       <path d="M 41.109375 46.296875 
Q 39.59375 47.171875 37.8125 47.578125 
Q 36.03125 48 33.890625 48 
Q 26.265625 48 22.1875 43.046875 
Q 18.109375 38.09375 18.109375 28.8125 
L 18.109375 0 
L 9.078125 0 
L 9.078125 54.6875 
L 18.109375 54.6875 
L 18.109375 46.1875 
Q 20.953125 51.171875 25.484375 53.578125 
Q 30.03125 56 36.53125 56 
Q 37.453125 56 38.578125 55.875 
Q 39.703125 55.765625 41.0625 55.515625 
z
" id="DejaVuSans-114"/>
       <path d="M 48.78125 52.59375 
L 48.78125 44.1875 
Q 44.96875 46.296875 41.140625 47.34375 
Q 37.3125 48.390625 33.40625 48.390625 
Q 24.65625 48.390625 19.8125 42.84375 
Q 14.984375 37.3125 14.984375 27.296875 
Q 14.984375 17.28125 19.8125 11.734375 
Q 24.65625 6.203125 33.40625 6.203125 
Q 37.3125 6.203125 41.140625 7.25 
Q 44.96875 8.296875 48.78125 10.40625 
L 48.78125 2.09375 
Q 45.015625 0.34375 40.984375 -0.53125 
Q 36.96875 -1.421875 32.421875 -1.421875 
Q 20.0625 -1.421875 12.78125 6.34375 
Q 5.515625 14.109375 5.515625 27.296875 
Q 5.515625 40.671875 12.859375 48.328125 
Q 20.21875 56 33.015625 56 
Q 37.15625 56 41.109375 55.140625 
Q 45.0625 54.296875 48.78125 52.59375 
z
" id="DejaVuSans-99"/>
       <path d="M 18.3125 70.21875 
L 18.3125 54.6875 
L 36.8125 54.6875 
L 36.8125 47.703125 
L 18.3125 47.703125 
L 18.3125 18.015625 
Q 18.3125 11.328125 20.140625 9.421875 
Q 21.96875 7.515625 27.59375 7.515625 
L 36.8125 7.515625 
L 36.8125 0 
L 27.59375 0 
Q 17.1875 0 13.234375 3.875 
Q 9.28125 7.765625 9.28125 18.015625 
L 9.28125 47.703125 
L 2.6875 47.703125 
L 2.6875 54.6875 
L 9.28125 54.6875 
L 9.28125 70.21875 
z
" id="DejaVuSans-116"/>
       <path d="M 8.5 21.578125 
L 8.5 54.6875 
L 17.484375 54.6875 
L 17.484375 21.921875 
Q 17.484375 14.15625 20.5 10.265625 
Q 23.53125 6.390625 29.59375 6.390625 
Q 36.859375 6.390625 41.078125 11.03125 
Q 45.3125 15.671875 45.3125 23.6875 
L 45.3125 54.6875 
L 54.296875 54.6875 
L 54.296875 0 
L 45.3125 0 
L 45.3125 8.40625 
Q 42.046875 3.421875 37.71875 1 
Q 33.40625 -1.421875 27.6875 -1.421875 
Q 18.265625 -1.421875 13.375 4.4375 
Q 8.5 10.296875 8.5 21.578125 
z
M 31.109375 56 
z
" id="DejaVuSans-117"/>
       <path d="M 11.71875 12.40625 
L 22.015625 12.40625 
L 22.015625 4 
L 14.015625 -11.625 
L 7.71875 -11.625 
L 11.71875 4 
z
" id="DejaVuSans-44"/>
       <path d="M 18.109375 8.203125 
L 18.109375 -20.796875 
L 9.078125 -20.796875 
L 9.078125 54.6875 
L 18.109375 54.6875 
L 18.109375 46.390625 
Q 20.953125 51.265625 25.265625 53.625 
Q 29.59375 56 35.59375 56 
Q 45.5625 56 51.78125 48.09375 
Q 58.015625 40.1875 58.015625 27.296875 
Q 58.015625 14.40625 51.78125 6.484375 
Q 45.5625 -1.421875 35.59375 -1.421875 
Q 29.59375 -1.421875 25.265625 0.953125 
Q 20.953125 3.328125 18.109375 8.203125 
z
M 48.6875 27.296875 
Q 48.6875 37.203125 44.609375 42.84375 
Q 40.53125 48.484375 33.40625 48.484375 
Q 26.265625 48.484375 22.1875 42.84375 
Q 18.109375 37.203125 18.109375 27.296875 
Q 18.109375 17.390625 22.1875 11.75 
Q 26.265625 6.109375 33.40625 6.109375 
Q 40.53125 6.109375 44.609375 11.75 
Q 48.6875 17.390625 48.6875 27.296875 
z
" id="DejaVuSans-112"/>
      </defs>
      <use xlink:href="#DejaVuSans-70"/>
      <use x="50.269531" xlink:href="#DejaVuSans-114"/>
      <use x="91.382812" xlink:href="#DejaVuSans-97"/>
      <use x="152.662109" xlink:href="#DejaVuSans-99"/>
      <use x="207.642578" xlink:href="#DejaVuSans-116"/>
      <use x="246.851562" xlink:href="#DejaVuSans-105"/>
      <use x="274.634766" xlink:href="#DejaVuSans-111"/>
      <use x="335.816406" xlink:href="#DejaVuSans-110"/>
      <use x="399.195312" xlink:href="#DejaVuSans-32"/>
      <use x="430.982422" xlink:href="#DejaVuSans-111"/>
      <use x="492.164062" xlink:href="#DejaVuSans-102"/>
      <use x="527.369141" xlink:href="#DejaVuSans-32"/>
      <use x="559.15625" xlink:href="#DejaVuSans-102"/>
      <use x="594.361328" xlink:href="#DejaVuSans-117"/>
      <use x="657.740234" xlink:href="#DejaVuSans-110"/>
      <use x="721.119141" xlink:href="#DejaVuSans-99"/>
      <use x="776.099609" xlink:href="#DejaVuSans-116"/>
      <use x="815.308594" xlink:href="#DejaVuSans-105"/>
      <use x="843.091797" xlink:href="#DejaVuSans-111"/>
      <use x="904.273438" xlink:href="#DejaVuSans-110"/>
      <use x="967.652344" xlink:href="#DejaVuSans-44"/>
      <use x="999.439453" xlink:href="#DejaVuSans-116"/>
      <use x="1038.648438" xlink:href="#DejaVuSans-97"/>
      <use x="1099.927734" xlink:href="#DejaVuSans-114"/>
      <use x="1139.291016" xlink:href="#DejaVuSans-103"/>
      <use x="1202.767578" xlink:href="#DejaVuSans-101"/>
      <use x="1264.291016" xlink:href="#DejaVuSans-116"/>
      <use x="1303.5" xlink:href="#DejaVuSans-32"/>
      <use x="1335.287109" xlink:href="#DejaVuSans-112"/>
      <use x="1398.763672" xlink:href="#DejaVuSans-97"/>
      <use x="1460.042969" xlink:href="#DejaVuSans-105"/>
      <use x="1487.826172" xlink:href="#DejaVuSans-114"/>
      <use x="1528.939453" xlink:href="#DejaVuSans-115"/>
     </g>
    </g>
   </g>
   <g id="line2d_33">
    <defs>
     <path d="M 0 1.5 
C 0.397805 1.5 0.77937 1.341951 1.06066 1.06066 
C 1.341951 0.77937 1.5 0.397805 1.5 0 
C 1.5 -0.397805 1.341951 -0.77937 1.06066 -1.06066 
C 0.77937 -1.341951 0.397805 -1.5 0 -1.5 
C -0.397805 -1.5 -0.77937 -1.341951 -1.06066 -1.06066 
C -1.341951 -0.77937 -1.5 -0.397805 -1.5 0 
C -1.5 0.397805 -1.341951 0.77937 -1.06066 1.06066 
C -0.77937 1.341951 -0.397805 1.5 0 1.5 
z
" id="m221f93e9bb" style="stroke:#f5deb3;"/>
    </defs>
    <g>
     <use style="fill:#f5deb3;stroke:#f5deb3;" x="155.510121" xlink:href="#m221f93e9bb" y="30.334099"/>
     <use style="fill:#f5deb3;stroke:#f5deb3;" x="155.510121" xlink:href="#m221f93e9bb" y="30.334099"/>
    </g>
   </g>
   <g id="line2d_34">
    <defs>
     <path d="M 0 1.5 
C 0.397805 1.5 0.77937 1.341951 1.06066 1.06066 
C 1.341951 0.77937 1.5 0.397805 1.5 0 
C 1.5 -0.397805 1.341951 -0.77937 1.06066 -1.06066 
C 0.77937 -1.341951 0.397805 -1.5 0 -1.5 
C -0.397805 -1.5 -0.77937 -1.341951 -1.06066 -1.06066 
C -1.341951 -0.77937 -1.5 -0.397805 -1.5 0 
C -1.5 0.397805 -1.341951 0.77937 -1.06066 1.06066 
C -0.77937 1.341951 -0.397805 1.5 0 1.5 
z
" id="md605a4da2d" style="stroke:#000080;"/>
    </defs>
    <g>
     <use style="fill:#000080;stroke:#000080;" x="287.146307" xlink:href="#md605a4da2d" y="214.674227"/>
     <use style="fill:#000080;stroke:#000080;" x="287.146307" xlink:href="#md605a4da2d" y="214.674227"/>
    </g>
   </g>
   <g id="line2d_35">
    <path d="M 139.199094 298.944 
L 139.306744 296.837256 
L 141.755753 296.837256 
L 141.755753 296.31057 
L 142.396639 296.31057 
L 142.396639 295.783884 
L 142.971369 295.783884 
L 142.971369 295.257197 
L 145.628555 295.257197 
L 145.628555 294.730511 
L 146.143677 294.730511 
L 146.143677 294.203825 
L 146.573414 294.203825 
L 146.573414 293.677139 
L 146.992815 293.677139 
L 146.992815 293.150453 
L 147.198794 293.150453 
L 147.198794 292.623767 
L 147.402367 292.623767 
L 147.402367 291.570395 
L 148.607802 291.570395 
L 148.639252 290.517023 
L 148.857832 290.517023 
L 148.857832 289.990337 
L 149.165411 289.990337 
L 149.165411 289.463651 
L 149.377533 289.463651 
L 149.407627 287.356906 
L 149.616841 287.356906 
L 149.616841 286.83022 
L 149.882194 286.83022 
L 149.882194 285.776848 
L 150.05688 285.776848 
L 150.05688 285.250162 
L 150.626842 285.250162 
L 150.626842 284.723476 
L 150.79426 284.723476 
L 150.79426 284.19679 
L 151.124351 284.19679 
L 151.233007 282.616732 
L 151.871101 282.616732 
L 151.871101 282.090045 
L 152.385571 282.090045 
L 152.385571 281.563359 
L 152.712018 281.563359 
L 152.712018 281.036673 
L 153.250915 281.036673 
L 153.250915 279.983301 
L 153.371104 279.983301 
L 153.371104 279.456615 
L 153.726778 279.456615 
L 153.726778 278.929929 
L 153.936752 278.929929 
L 154.006185 277.349871 
L 154.19 277.349871 
L 154.19 275.243126 
L 155.699795 275.243126 
L 155.699795 274.71644 
L 156.638275 274.71644 
L 156.638275 274.189754 
L 157.069866 274.189754 
L 157.069866 273.663068 
L 158.465753 273.663068 
L 158.465753 273.136382 
L 158.784773 273.136382 
L 158.784773 272.609696 
L 158.994256 272.609696 
L 158.994256 271.556324 
L 159.132527 271.556324 
L 159.201253 270.502952 
L 159.303838 270.502952 
L 159.371893 269.449579 
L 159.54088 269.449579 
L 159.54088 268.396207 
L 160.087195 268.396207 
L 160.087195 267.869521 
L 163.103002 267.869521 
L 163.103002 267.342835 
L 163.656248 267.342835 
L 163.656248 266.816149 
L 164.524182 266.816149 
L 164.524182 266.289463 
L 166.972515 266.289463 
L 166.972515 265.762777 
L 184.230545 265.762777 
L 184.230545 265.236091 
L 195.688843 265.236091 
L 195.688843 264.709405 
L 205.54852 264.709405 
L 205.54852 264.182719 
L 210.180749 264.182719 
L 210.180749 263.656033 
L 211.268014 263.656033 
L 211.268014 263.129347 
L 214.322256 263.129347 
L 214.322256 262.60266 
L 215.864432 262.60266 
L 215.864432 262.075974 
L 218.555086 262.075974 
L 218.648365 260.495916 
L 218.698779 260.495916 
L 218.808728 256.809114 
L 218.814347 256.809114 
L 218.862603 254.175683 
L 229.170861 254.175683 
L 229.170861 253.648997 
L 230.470275 253.648997 
L 230.563048 248.908822 
L 230.608537 248.908822 
L 230.707968 245.22202 
L 235.854003 245.22202 
L 235.854003 244.695334 
L 237.500833 244.695334 
L 237.580513 241.535217 
L 237.647241 241.535217 
L 237.647241 241.008531 
L 240.707887 241.008531 
L 240.707887 240.481845 
L 242.491032 240.481845 
L 242.556391 236.795043 
L 242.626957 236.795043 
L 242.626957 236.268356 
L 246.064491 236.268356 
L 246.064491 235.74167 
L 246.373588 235.74167 
L 246.472808 234.688298 
L 249.535241 234.688298 
L 249.574671 232.581554 
L 252.247851 232.581554 
L 252.247851 231.528182 
L 254.56087 231.528182 
L 254.56087 231.001496 
L 256.293004 231.001496 
L 256.293004 230.47481 
L 256.584113 230.47481 
L 256.606583 228.894751 
L 258.437321 228.894751 
L 258.450929 227.314693 
L 260.123003 227.314693 
L 260.123003 226.788007 
L 261.606862 226.788007 
L 261.606862 225.734635 
L 262.998896 225.734635 
L 262.998896 225.207949 
L 264.297713 225.207949 
L 264.31079 223.627891 
L 265.488304 223.627891 
L 265.497388 222.574518 
L 266.598647 222.574518 
L 266.598647 222.047832 
L 268.661177 222.047832 
L 268.678929 220.99446 
L 269.619131 220.99446 
L 269.619131 220.467774 
L 270.495246 220.467774 
L 270.495246 219.941088 
L 272.156234 219.941088 
L 272.156234 218.887716 
L 273.669788 218.887716 
L 273.669788 218.36103 
L 274.382084 218.36103 
L 274.382084 217.834344 
L 277.557395 217.834344 
L 277.557395 217.307658 
L 280.242639 217.307658 
L 280.242639 216.780971 
L 282.568184 216.780971 
L 282.568184 216.254285 
L 283.42595 216.254285 
L 283.42595 215.727599 
L 285.378342 215.727599 
L 285.378342 215.200913 
L 287.146307 215.200913 
L 287.146307 214.674227 
L 338.688 214.674227 
L 338.688 214.674227 
" style="fill:none;stroke:#000080;stroke-linecap:square;stroke-width:1.5;"/>
   </g>
   <g id="line2d_36">
    <defs>
     <path d="M 0 6 
C 1.591219 6 3.117479 5.367802 4.242641 4.242641 
C 5.367802 3.117479 6 1.591219 6 0 
C 6 -1.591219 5.367802 -3.117479 4.242641 -4.242641 
C 3.117479 -5.367802 1.591219 -6 0 -6 
C -1.591219 -6 -3.117479 -5.367802 -4.242641 -4.242641 
C -5.367802 -3.117479 -6 -1.591219 -6 0 
C -6 1.591219 -5.367802 3.117479 -4.242641 4.242641 
C -3.117479 5.367802 -1.591219 6 0 6 
z
" id="md44f6f98de" style="stroke:#000080;stroke-width:1.5;"/>
    </defs>
    <g>
     <use style="fill-opacity:0;stroke:#000080;stroke-width:1.5;" x="166.972515" xlink:href="#md44f6f98de" y="266.289463"/>
     <use style="fill-opacity:0;stroke:#000080;stroke-width:1.5;" x="240.707887" xlink:href="#md44f6f98de" y="240.481845"/>
     <use style="fill-opacity:0;stroke:#000080;stroke-width:1.5;" x="277.557395" xlink:href="#md44f6f98de" y="217.307658"/>
     <use style="fill-opacity:0;stroke:#000080;stroke-width:1.5;" x="287.146307" xlink:href="#md44f6f98de" y="214.674227"/>
     <use style="fill-opacity:0;stroke:#000080;stroke-width:1.5;" x="338.688" xlink:href="#md44f6f98de" y="214.674227"/>
    </g>
   </g>
   <g id="line2d_37">
    <path style="fill:none;stroke:#000080;stroke-linecap:square;stroke-width:1.5;"/>
    <g/>
   </g>
   <g id="line2d_38">
    <path clip-path="url(#pe020801c19)" d="M 218.221714 262.075974 
" style="fill:none;stroke:#000080;stroke-linecap:square;stroke-width:1.5;"/>
    <defs>
     <path d="M -12 12 
L 12 -12 
M -12 -12 
L 12 12 
" id="maa134bb298" style="stroke:#000080;"/>
    </defs>
    <g clip-path="url(#pe020801c19)">
     <use style="fill:#000080;stroke:#000080;" x="218.221714" xlink:href="#maa134bb298" y="262.075974"/>
    </g>
   </g>
   <g id="line2d_39">
    <defs>
     <path d="M 0 1.5 
C 0.397805 1.5 0.77937 1.341951 1.06066 1.06066 
C 1.341951 0.77937 1.5 0.397805 1.5 0 
C 1.5 -0.397805 1.341951 -0.77937 1.06066 -1.06066 
C 0.77937 -1.341951 0.397805 -1.5 0 -1.5 
C -0.397805 -1.5 -0.77937 -1.341951 -1.06066 -1.06066 
C -1.341951 -0.77937 -1.5 -0.397805 -1.5 0 
C -1.5 0.397805 -1.341951 0.77937 -1.06066 1.06066 
C -0.77937 1.341951 -0.397805 1.5 0 1.5 
z
" id="m5fd443117e" style="stroke:#ff00ff;"/>
    </defs>
    <g>
     <use style="fill:#ff00ff;stroke:#ff00ff;" x="286.124406" xlink:href="#m5fd443117e" y="209.407366"/>
     <use style="fill:#ff00ff;stroke:#ff00ff;" x="286.124406" xlink:href="#m5fd443117e" y="209.407366"/>
    </g>
   </g>
   <g id="line2d_40">
    <path d="M 157.622935 298.944 
L 157.622935 298.417314 
L 159.252621 298.417314 
L 159.252621 297.890628 
L 163.469301 297.890628 
L 163.469301 295.783884 
L 164.39735 295.783884 
L 164.39735 294.730511 
L 165.254276 294.730511 
L 165.254276 294.203825 
L 166.197807 294.203825 
L 166.197807 293.150453 
L 166.527611 293.150453 
L 166.527611 292.097081 
L 166.862349 292.097081 
L 166.862349 291.043709 
L 167.892273 291.043709 
L 167.892273 290.517023 
L 168.78575 290.517023 
L 168.78575 289.990337 
L 168.943394 289.990337 
L 169.031447 287.356906 
L 169.66393 287.356906 
L 169.66393 285.250162 
L 169.981016 285.250162 
L 169.981016 284.723476 
L 170.660731 284.723476 
L 170.660731 284.19679 
L 170.88154 284.19679 
L 170.88154 283.670104 
L 172.272701 283.670104 
L 172.272701 283.143418 
L 172.514135 283.143418 
L 172.514135 282.090045 
L 173.658612 282.090045 
L 173.658612 281.563359 
L 173.948098 281.563359 
L 173.948098 278.929929 
L 174.26903 278.929929 
L 174.333954 277.876557 
L 174.498781 277.876557 
L 174.498781 276.296499 
L 175.177275 276.296499 
L 175.23891 275.243126 
L 175.334356 275.243126 
L 175.334356 274.71644 
L 175.476552 274.71644 
L 175.476552 274.189754 
L 176.131719 274.189754 
L 176.131719 273.136382 
L 176.30621 273.136382 
L 176.351165 269.449579 
L 177.348323 269.449579 
L 177.348323 268.922893 
L 179.488982 268.922893 
L 179.488982 267.869521 
L 180.52889 267.869521 
L 180.52889 266.816149 
L 181.075464 266.816149 
L 181.075464 266.289463 
L 181.798912 266.289463 
L 181.798912 265.762777 
L 186.171744 265.762777 
L 186.171744 265.236091 
L 188.87306 265.236091 
L 188.87306 264.709405 
L 196.387794 264.709405 
L 196.387794 264.182719 
L 200.414537 264.182719 
L 200.445173 263.129347 
L 201.160108 263.129347 
L 201.160108 262.60266 
L 208.432017 262.60266 
L 208.432017 262.075974 
L 212.152049 262.075974 
L 212.152049 261.549288 
L 219.038776 261.549288 
L 219.038776 261.022602 
L 219.446125 261.022602 
L 219.547166 258.915858 
L 219.73099 258.915858 
L 219.819794 256.809114 
L 220.122663 256.809114 
L 220.122663 256.282427 
L 220.258188 256.282427 
L 220.258188 255.229055 
L 220.604891 255.229055 
L 220.604891 254.702369 
L 220.79752 254.702369 
L 220.79752 253.648997 
L 230.870842 253.648997 
L 230.870842 253.122311 
L 230.985018 253.122311 
L 231.080663 249.962195 
L 231.231013 249.962195 
L 231.286066 247.85545 
L 231.357649 247.85545 
L 231.357649 247.328764 
L 231.859182 247.328764 
L 231.859182 246.802078 
L 237.756814 246.802078 
L 237.833826 245.22202 
L 237.898464 245.22202 
L 237.898464 242.588589 
L 238.037667 242.588589 
L 238.037667 242.061903 
L 238.180025 242.061903 
L 238.180025 241.008531 
L 238.428852 241.008531 
L 238.428852 240.481845 
L 242.787431 240.481845 
L 242.892705 238.901787 
L 243.189634 238.901787 
L 243.189634 238.375101 
L 246.562426 238.375101 
L 246.60164 234.161612 
L 246.686283 234.161612 
L 246.686283 233.634926 
L 246.835652 233.634926 
L 246.835652 233.10824 
L 249.696734 233.10824 
L 249.800277 231.001496 
L 249.872941 231.001496 
L 249.872941 230.47481 
L 252.352619 230.47481 
L 252.441571 228.894751 
L 254.734943 228.894751 
L 254.734943 228.368065 
L 256.714025 228.368065 
L 256.761474 225.734635 
L 258.576838 225.734635 
L 258.576838 225.207949 
L 260.16403 225.207949 
L 260.182017 223.627891 
L 260.289817 223.627891 
L 260.289817 222.574518 
L 261.687583 222.574518 
L 261.687583 221.521146 
L 263.073437 221.521146 
L 263.147927 219.941088 
L 264.442126 219.941088 
L 264.442126 219.414402 
L 265.53973 219.414402 
L 265.617583 218.36103 
L 267.723408 218.36103 
L 267.723408 217.834344 
L 268.738943 217.834344 
L 268.738943 217.307658 
L 269.653391 217.307658 
L 269.653391 216.780971 
L 271.437179 216.780971 
L 271.447677 215.727599 
L 272.970889 215.727599 
L 272.989584 214.674227 
L 273.710253 214.674227 
L 273.710253 214.147541 
L 274.419541 214.147541 
L 274.436747 213.094169 
L 275.772968 213.094169 
L 275.772968 212.567483 
L 279.800356 212.567483 
L 279.800356 212.040797 
L 280.269413 212.040797 
L 280.269413 210.987425 
L 281.236083 210.987425 
L 281.236083 210.460738 
L 282.182624 210.460738 
L 282.182624 209.934052 
L 286.124406 209.934052 
L 286.124406 209.407366 
L 338.688 209.407366 
L 338.688 209.407366 
" style="fill:none;stroke:#ff00ff;stroke-linecap:square;stroke-width:1.5;"/>
   </g>
   <g id="line2d_41">
    <defs>
     <path d="M -0 8.485281 
L 5.091169 0 
L 0 -8.485281 
L -5.091169 -0 
z
" id="mf190bdbde2" style="stroke:#ff00ff;stroke-linejoin:miter;stroke-width:1.5;"/>
    </defs>
    <g>
     <use style="fill-opacity:0;stroke:#ff00ff;stroke-linejoin:miter;stroke-width:1.5;" x="252.441571" xlink:href="#mf190bdbde2" y="228.894751"/>
     <use style="fill-opacity:0;stroke:#ff00ff;stroke-linejoin:miter;stroke-width:1.5;" x="286.124406" xlink:href="#mf190bdbde2" y="209.407366"/>
     <use style="fill-opacity:0;stroke:#ff00ff;stroke-linejoin:miter;stroke-width:1.5;" x="286.124406" xlink:href="#mf190bdbde2" y="209.407366"/>
     <use style="fill-opacity:0;stroke:#ff00ff;stroke-linejoin:miter;stroke-width:1.5;" x="338.688" xlink:href="#mf190bdbde2" y="209.407366"/>
    </g>
   </g>
   <g id="line2d_42">
    <path style="fill:none;stroke:#ff00ff;stroke-linecap:square;stroke-width:1.5;"/>
    <g/>
   </g>
   <g id="line2d_43">
    <path clip-path="url(#pe020801c19)" d="M 218.221714 261.549288 
" style="fill:none;stroke:#ff00ff;stroke-linecap:square;stroke-width:1.5;"/>
    <defs>
     <path d="M -12 12 
L 12 -12 
M -12 -12 
L 12 12 
" id="md7f6275bb8" style="stroke:#ff00ff;"/>
    </defs>
    <g clip-path="url(#pe020801c19)">
     <use style="fill:#ff00ff;stroke:#ff00ff;" x="218.221714" xlink:href="#md7f6275bb8" y="261.549288"/>
    </g>
   </g>
   <g id="line2d_44">
    <defs>
     <path d="M 0 1.5 
C 0.397805 1.5 0.77937 1.341951 1.06066 1.06066 
C 1.341951 0.77937 1.5 0.397805 1.5 0 
C 1.5 -0.397805 1.341951 -0.77937 1.06066 -1.06066 
C 0.77937 -1.341951 0.397805 -1.5 0 -1.5 
C -0.397805 -1.5 -0.77937 -1.341951 -1.06066 -1.06066 
C -1.341951 -0.77937 -1.5 -0.397805 -1.5 0 
C -1.5 0.397805 -1.341951 0.77937 -1.06066 1.06066 
C -0.77937 1.341951 -0.397805 1.5 0 1.5 
z
" id="md4a1f9c0d6" style="stroke:#ff7500;"/>
    </defs>
    <g>
     <use style="fill:#ff7500;stroke:#ff7500;" x="285.444621" xlink:href="#md4a1f9c0d6" y="183.073062"/>
     <use style="fill:#ff7500;stroke:#ff7500;" x="285.444621" xlink:href="#md4a1f9c0d6" y="183.073062"/>
    </g>
   </g>
   <g id="line2d_45">
    <path d="M 156.835778 298.944 
L 156.835778 298.417314 
L 161.131018 298.417314 
L 161.131018 297.890628 
L 162.854457 297.890628 
L 162.854457 295.783884 
L 163.52292 295.783884 
L 163.52292 294.730511 
L 165.518877 294.730511 
L 165.518877 294.203825 
L 166.036331 294.203825 
L 166.036331 293.677139 
L 167.703739 293.677139 
L 167.703739 293.150453 
L 169.060699 293.150453 
L 169.060699 291.570395 
L 169.331381 291.570395 
L 169.379278 289.463651 
L 169.710923 289.463651 
L 169.710923 288.936964 
L 170.082381 288.936964 
L 170.082381 287.883592 
L 170.237885 287.883592 
L 170.237885 287.356906 
L 170.473066 287.356906 
L 170.473066 286.303534 
L 170.65184 286.303534 
L 170.65184 285.250162 
L 171.099589 285.250162 
L 171.099589 284.19679 
L 171.837825 284.19679 
L 171.837825 283.670104 
L 172.158878 283.670104 
L 172.158878 282.616732 
L 173.417442 282.616732 
L 173.417442 281.563359 
L 173.881719 281.563359 
L 173.881719 281.036673 
L 175.503506 281.036673 
L 175.503506 279.983301 
L 175.88973 279.983301 
L 175.88973 279.456615 
L 176.053603 279.456615 
L 176.053603 278.929929 
L 176.472605 278.929929 
L 176.542527 274.189754 
L 177.324077 274.189754 
L 177.324077 273.136382 
L 178.008058 273.136382 
L 178.008058 272.609696 
L 178.348826 272.609696 
L 178.348826 272.08301 
L 178.671837 272.08301 
L 178.739084 271.029638 
L 178.900534 271.029638 
L 178.900534 270.502952 
L 179.408431 270.502952 
L 179.408431 269.976266 
L 180.187382 269.976266 
L 180.187382 269.449579 
L 180.351324 269.449579 
L 180.351324 268.922893 
L 180.868789 268.922893 
L 180.868789 268.396207 
L 181.050988 268.396207 
L 181.050988 267.869521 
L 181.231304 267.869521 
L 181.231304 265.762777 
L 181.500716 265.762777 
L 181.500716 265.236091 
L 181.728374 265.236091 
L 181.728374 264.709405 
L 182.339529 264.709405 
L 182.339529 264.182719 
L 182.570037 264.182719 
L 182.570037 263.656033 
L 183.552115 263.656033 
L 183.552115 262.60266 
L 184.75332 262.60266 
L 184.75332 261.549288 
L 184.95812 261.549288 
L 184.95812 261.022602 
L 185.237776 261.022602 
L 185.237776 259.96923 
L 186.788874 259.96923 
L 186.788874 259.442544 
L 187.842184 259.442544 
L 187.842184 257.862486 
L 188.400628 257.862486 
L 188.509564 255.229055 
L 189.210735 255.229055 
L 189.210735 254.702369 
L 191.307007 254.702369 
L 191.307007 254.175683 
L 191.534056 254.175683 
L 191.555527 253.122311 
L 193.138977 253.122311 
L 193.138977 252.595625 
L 194.749829 252.595625 
L 194.749829 252.068939 
L 195.540079 252.068939 
L 195.540079 251.542253 
L 207.919091 251.542253 
L 207.919091 251.015567 
L 208.152605 251.015567 
L 208.152605 250.488881 
L 210.612315 250.488881 
L 210.612315 249.962195 
L 215.797093 249.962195 
L 215.797093 249.435508 
L 217.219783 249.435508 
L 217.219783 248.908822 
L 219.696837 248.908822 
L 219.744845 245.748706 
L 219.817672 245.748706 
L 219.817672 245.22202 
L 219.961367 245.22202 
L 220.0139 241.535217 
L 220.344869 241.535217 
L 220.344869 241.008531 
L 220.460288 241.008531 
L 220.460288 239.955159 
L 220.635794 239.955159 
L 220.635794 239.428473 
L 221.1377 239.428473 
L 221.1377 236.268356 
L 221.598763 236.268356 
L 221.63895 234.688298 
L 226.916784 234.688298 
L 226.916784 234.161612 
L 231.074544 234.161612 
L 231.129537 231.528182 
L 231.228808 231.528182 
L 231.228808 231.001496 
L 231.464884 231.001496 
L 231.464884 230.47481 
L 231.773872 230.47481 
L 231.828572 228.368065 
L 232.079844 228.368065 
L 232.101888 227.314693 
L 235.193627 227.314693 
L 235.193627 226.788007 
L 237.886422 226.788007 
L 237.9975 224.154577 
L 238.064145 224.154577 
L 238.117538 222.574518 
L 238.407855 222.574518 
L 238.455289 220.99446 
L 238.58055 220.99446 
L 238.58055 220.467774 
L 240.735725 220.467774 
L 240.735725 219.414402 
L 242.791126 219.414402 
L 242.791126 218.36103 
L 242.912752 218.36103 
L 242.984845 216.780971 
L 243.145137 216.780971 
L 243.20976 212.567483 
L 243.305211 212.567483 
L 243.305211 212.040797 
L 243.497155 212.040797 
L 243.497155 210.460738 
L 246.912664 210.460738 
L 247.018909 208.353994 
L 247.1742 208.353994 
L 247.1742 207.827308 
L 249.770973 207.827308 
L 249.84101 206.773936 
L 249.989838 206.773936 
L 250.086798 205.193878 
L 251.578565 205.193878 
L 251.578565 204.667192 
L 252.604615 204.667192 
L 252.688107 203.613819 
L 254.765646 203.613819 
L 254.863407 202.560447 
L 254.877978 202.560447 
L 254.89644 201.507075 
L 255.044074 201.507075 
L 255.044074 200.980389 
L 256.715688 200.980389 
L 256.715688 200.453703 
L 256.888874 200.453703 
L 256.948915 198.873645 
L 257.036958 198.873645 
L 257.036958 198.346959 
L 258.584996 198.346959 
L 258.584996 196.7669 
L 258.706522 196.7669 
L 258.745837 195.186842 
L 259.469482 195.186842 
L 259.469482 194.660156 
L 259.673423 194.660156 
L 259.673423 194.13347 
L 260.18338 194.13347 
L 260.18338 193.606784 
L 261.864484 193.606784 
L 261.864484 193.080098 
L 263.240582 193.080098 
L 263.240582 192.553412 
L 264.405507 192.553412 
L 264.509123 190.973354 
L 266.805014 190.973354 
L 266.808025 189.919981 
L 268.878105 189.919981 
L 268.878105 189.393295 
L 269.736868 189.393295 
L 269.736868 188.866609 
L 270.617205 188.866609 
L 270.617205 188.339923 
L 271.49484 188.339923 
L 271.49484 187.813237 
L 278.777713 187.813237 
L 278.777713 187.286551 
L 281.293945 187.286551 
L 281.293945 186.759865 
L 281.756385 186.759865 
L 281.757662 185.706493 
L 282.666238 185.706493 
L 282.666238 185.179807 
L 283.060983 185.179807 
L 283.094109 183.599748 
L 285.444621 183.599748 
L 285.444621 183.073062 
L 338.688 183.073062 
L 338.688 183.073062 
" style="fill:none;stroke:#ff7500;stroke-linecap:square;stroke-width:1.5;"/>
   </g>
   <g id="line2d_46">
    <defs>
     <path d="M 0 -6 
L -1.347084 -1.854102 
L -5.706339 -1.854102 
L -2.179628 0.708204 
L -3.526712 4.854102 
L -0 2.291796 
L 3.526712 4.854102 
L 2.179628 0.708204 
L 5.706339 -1.854102 
L 1.347084 -1.854102 
z
" id="m852ec9edf3" style="stroke:#ff7500;stroke-linejoin:bevel;stroke-width:1.5;"/>
    </defs>
    <g>
     <use style="fill-opacity:0;stroke:#ff7500;stroke-linejoin:bevel;stroke-width:1.5;" x="219.696837" xlink:href="#m852ec9edf3" y="248.382136"/>
     <use style="fill-opacity:0;stroke:#ff7500;stroke-linejoin:bevel;stroke-width:1.5;" x="266.808025" xlink:href="#m852ec9edf3" y="190.446667"/>
     <use style="fill-opacity:0;stroke:#ff7500;stroke-linejoin:bevel;stroke-width:1.5;" x="285.444621" xlink:href="#m852ec9edf3" y="183.073062"/>
     <use style="fill-opacity:0;stroke:#ff7500;stroke-linejoin:bevel;stroke-width:1.5;" x="338.688" xlink:href="#m852ec9edf3" y="183.073062"/>
    </g>
   </g>
   <g id="line2d_47">
    <path style="fill:none;stroke:#ff7500;stroke-linecap:square;stroke-width:1.5;"/>
    <g/>
   </g>
   <g id="line2d_48">
    <path clip-path="url(#pe020801c19)" d="M 218.221714 248.908822 
" style="fill:none;stroke:#ff7500;stroke-linecap:square;stroke-width:1.5;"/>
    <defs>
     <path d="M -12 12 
L 12 -12 
M -12 -12 
L 12 12 
" id="m99312123b2" style="stroke:#ff7500;"/>
    </defs>
    <g clip-path="url(#pe020801c19)">
     <use style="fill:#ff7500;stroke:#ff7500;" x="218.221714" xlink:href="#m99312123b2" y="248.908822"/>
    </g>
   </g>
   <g id="line2d_49">
    <defs>
     <path d="M 0 1.5 
C 0.397805 1.5 0.77937 1.341951 1.06066 1.06066 
C 1.341951 0.77937 1.5 0.397805 1.5 0 
C 1.5 -0.397805 1.341951 -0.77937 1.06066 -1.06066 
C 0.77937 -1.341951 0.397805 -1.5 0 -1.5 
C -0.397805 -1.5 -0.77937 -1.341951 -1.06066 -1.06066 
C -1.341951 -0.77937 -1.5 -0.397805 -1.5 0 
C -1.5 0.397805 -1.341951 0.77937 -1.06066 1.06066 
C -0.77937 1.341951 -0.397805 1.5 0 1.5 
z
" id="m771cbbf7d2" style="stroke:#6495ed;"/>
    </defs>
    <g>
     <use style="fill:#6495ed;stroke:#6495ed;" x="288.557019" xlink:href="#m771cbbf7d2" y="172.539341"/>
     <use style="fill:#6495ed;stroke:#6495ed;" x="288.557019" xlink:href="#m771cbbf7d2" y="172.539341"/>
    </g>
   </g>
   <g id="line2d_50">
    <path d="M 162.784783 298.944 
L 162.784783 298.417314 
L 171.289242 298.417314 
L 171.357698 297.363942 
L 171.704381 297.363942 
L 171.704381 296.837256 
L 172.546075 296.837256 
L 172.546075 296.31057 
L 173.033809 296.31057 
L 173.033809 295.257197 
L 174.612532 295.257197 
L 174.612532 293.677139 
L 176.962469 293.677139 
L 176.962469 293.150453 
L 177.372536 293.150453 
L 177.372536 292.097081 
L 178.216775 292.097081 
L 178.308742 288.410278 
L 178.833909 288.410278 
L 178.833909 287.883592 
L 179.137208 287.883592 
L 179.137208 286.83022 
L 180.269546 286.83022 
L 180.351324 285.250162 
L 180.689668 285.250162 
L 180.689668 283.670104 
L 181.812985 283.670104 
L 181.869165 281.036673 
L 183.048341 281.036673 
L 183.048341 280.509987 
L 183.501111 280.509987 
L 183.501111 279.983301 
L 183.838356 279.983301 
L 183.838356 278.403243 
L 184.062365 278.403243 
L 184.132295 277.349871 
L 184.214209 277.349871 
L 184.214209 276.823185 
L 184.733501 276.823185 
L 184.82843 275.243126 
L 185.260879 275.243126 
L 185.260879 274.71644 
L 186.883796 274.71644 
L 186.883796 274.189754 
L 187.722303 274.189754 
L 187.722303 273.663068 
L 188.307171 273.663068 
L 188.307171 273.136382 
L 188.954202 273.136382 
L 188.954202 272.609696 
L 189.6859 272.609696 
L 189.6859 272.08301 
L 190.157181 272.08301 
L 190.157181 271.029638 
L 190.584896 271.029638 
L 190.584896 270.502952 
L 191.007908 270.502952 
L 191.021741 267.342835 
L 191.153982 267.342835 
L 191.189626 265.236091 
L 192.042187 265.236091 
L 192.042187 264.709405 
L 192.664764 264.709405 
L 192.664764 263.656033 
L 193.192779 263.656033 
L 193.192779 263.129347 
L 193.459329 263.129347 
L 193.459329 262.60266 
L 193.797504 262.60266 
L 193.797504 262.075974 
L 195.499481 262.075974 
L 195.499481 261.549288 
L 195.720557 261.549288 
L 195.720557 261.022602 
L 196.049077 261.022602 
L 196.049077 260.495916 
L 197.100838 260.495916 
L 197.100838 259.96923 
L 197.414162 259.96923 
L 197.414162 258.915858 
L 198.45765 258.915858 
L 198.45765 258.389172 
L 199.144478 258.389172 
L 199.144478 257.862486 
L 199.618778 257.862486 
L 199.618778 256.809114 
L 199.788558 256.809114 
L 199.788558 256.282427 
L 200.656542 256.282427 
L 200.656542 255.755741 
L 201.631489 255.755741 
L 201.631489 253.648997 
L 201.761941 253.648997 
L 201.761941 253.122311 
L 203.295409 253.122311 
L 203.399076 252.068939 
L 205.039815 252.068939 
L 205.039815 251.542253 
L 209.197607 251.542253 
L 209.197607 251.015567 
L 212.020649 251.015567 
L 212.020649 250.488881 
L 214.526785 250.488881 
L 214.526785 249.962195 
L 214.644221 249.962195 
L 214.644221 249.435508 
L 215.186652 249.435508 
L 215.186652 248.908822 
L 220.139336 248.908822 
L 220.139336 248.382136 
L 220.495021 248.382136 
L 220.495021 247.85545 
L 221.018771 247.85545 
L 221.018771 247.328764 
L 221.473784 247.328764 
L 221.548879 245.22202 
L 221.73046 245.22202 
L 221.73046 244.168648 
L 221.845593 244.168648 
L 221.945891 242.588589 
L 222.111782 242.588589 
L 222.111782 242.061903 
L 222.461256 242.061903 
L 222.461256 241.535217 
L 223.089376 241.535217 
L 223.089376 241.008531 
L 223.422998 241.008531 
L 223.422998 240.481845 
L 223.917213 240.481845 
L 223.917213 238.375101 
L 224.396992 238.375101 
L 224.396992 237.848415 
L 224.564269 237.848415 
L 224.564269 236.795043 
L 231.49804 236.795043 
L 231.49804 236.268356 
L 231.820844 236.268356 
L 231.820844 235.74167 
L 232.011434 235.74167 
L 232.052512 234.161612 
L 232.215603 234.161612 
L 232.215603 233.634926 
L 232.362979 233.634926 
L 232.362979 233.10824 
L 232.771802 233.10824 
L 232.771802 232.054868 
L 233.078513 232.054868 
L 233.078513 231.528182 
L 233.388938 231.528182 
L 233.388938 229.421437 
L 233.66926 229.421437 
L 233.66926 228.894751 
L 233.91019 228.894751 
L 233.987804 227.841379 
L 236.426544 227.841379 
L 236.426544 227.314693 
L 238.50641 227.314693 
L 238.561727 225.207949 
L 238.674178 225.207949 
L 238.674178 224.681263 
L 238.91131 224.681263 
L 238.91131 224.154577 
L 239.158565 224.154577 
L 239.158565 223.627891 
L 239.274546 223.627891 
L 239.274546 223.101204 
L 239.916866 223.101204 
L 239.916866 222.047832 
L 242.897225 222.047832 
L 242.897225 221.521146 
L 243.073006 221.521146 
L 243.073006 220.99446 
L 243.55804 220.99446 
L 243.55804 220.467774 
L 243.836989 220.467774 
L 243.836989 219.414402 
L 244.005183 219.414402 
L 244.005183 218.36103 
L 244.212286 218.36103 
L 244.290689 216.780971 
L 246.973247 216.780971 
L 247.076681 215.200913 
L 247.139688 215.200913 
L 247.139688 214.674227 
L 247.316068 214.674227 
L 247.316068 213.620855 
L 247.449939 213.620855 
L 247.449939 212.567483 
L 247.586783 212.567483 
L 247.586783 210.460738 
L 250.069209 210.460738 
L 250.170756 207.827308 
L 250.180338 207.827308 
L 250.180338 206.773936 
L 250.328617 206.773936 
L 250.328617 206.24725 
L 250.699172 206.24725 
L 250.753258 205.193878 
L 252.672553 205.193878 
L 252.672553 204.667192 
L 252.941212 204.667192 
L 252.941212 204.140506 
L 253.093613 204.140506 
L 253.093613 203.613819 
L 253.216895 203.613819 
L 253.263721 202.033761 
L 255.075503 202.033761 
L 255.075503 201.507075 
L 255.264216 201.507075 
L 255.307941 198.873645 
L 255.416568 198.873645 
L 255.480447 197.293586 
L 257.117687 197.293586 
L 257.117687 196.7669 
L 257.23346 196.7669 
L 257.272521 195.713528 
L 258.739917 195.713528 
L 258.807594 194.660156 
L 259.002728 194.660156 
L 259.002728 194.13347 
L 260.425716 194.13347 
L 260.425716 193.080098 
L 260.542399 193.080098 
L 260.641109 190.973354 
L 260.768329 190.973354 
L 260.768329 190.446667 
L 261.991952 190.446667 
L 262.079566 188.866609 
L 262.109159 188.866609 
L 262.109159 187.813237 
L 263.557232 187.813237 
L 263.557232 187.286551 
L 264.719576 187.286551 
L 264.807121 185.706493 
L 265.867703 185.706493 
L 265.891521 184.126434 
L 265.985757 184.126434 
L 265.985757 183.599748 
L 266.989644 183.599748 
L 266.989644 183.073062 
L 267.845227 183.073062 
L 267.845227 182.546376 
L 268.001621 182.546376 
L 268.095168 180.966318 
L 268.978033 180.966318 
L 269.047594 179.912946 
L 270.798702 179.912946 
L 270.869872 178.859574 
L 271.633827 178.859574 
L 271.692766 177.806202 
L 272.430781 177.806202 
L 272.430781 177.279515 
L 274.673625 177.279515 
L 274.673625 176.752829 
L 275.297733 176.752829 
L 275.297733 176.226143 
L 275.999446 176.226143 
L 275.999446 175.699457 
L 277.137482 175.699457 
L 277.137482 175.172771 
L 279.444709 175.172771 
L 279.444709 174.646085 
L 281.364829 174.646085 
L 281.374627 173.592713 
L 288.228762 173.592713 
L 288.228762 173.066027 
L 288.557019 173.066027 
L 288.557019 172.539341 
L 338.688 172.539341 
L 338.688 172.539341 
" style="fill:none;stroke:#6495ed;stroke-linecap:square;stroke-width:1.5;"/>
   </g>
   <g id="line2d_51">
    <defs>
     <path d="M -0 6 
L 6 -6 
L -6 -6 
z
" id="m34fb2620e7" style="stroke:#6495ed;stroke-linejoin:miter;stroke-width:1.5;"/>
    </defs>
    <g>
     <use style="fill-opacity:0;stroke:#6495ed;stroke-linejoin:miter;stroke-width:1.5;" x="253.093613" xlink:href="#m34fb2620e7" y="204.140506"/>
     <use style="fill-opacity:0;stroke:#6495ed;stroke-linejoin:miter;stroke-width:1.5;" x="288.557019" xlink:href="#m34fb2620e7" y="172.539341"/>
     <use style="fill-opacity:0;stroke:#6495ed;stroke-linejoin:miter;stroke-width:1.5;" x="288.557019" xlink:href="#m34fb2620e7" y="172.539341"/>
     <use style="fill-opacity:0;stroke:#6495ed;stroke-linejoin:miter;stroke-width:1.5;" x="338.688" xlink:href="#m34fb2620e7" y="172.539341"/>
    </g>
   </g>
   <g id="line2d_52">
    <path style="fill:none;stroke:#6495ed;stroke-linecap:square;stroke-width:1.5;"/>
    <g/>
   </g>
   <g id="line2d_53">
    <path clip-path="url(#pe020801c19)" d="M 218.221714 248.908822 
" style="fill:none;stroke:#6495ed;stroke-linecap:square;stroke-width:1.5;"/>
    <defs>
     <path d="M -12 12 
L 12 -12 
M -12 -12 
L 12 12 
" id="maa2fddae57" style="stroke:#6495ed;"/>
    </defs>
    <g clip-path="url(#pe020801c19)">
     <use style="fill:#6495ed;stroke:#6495ed;" x="218.221714" xlink:href="#maa2fddae57" y="248.908822"/>
    </g>
   </g>
   <g id="line2d_54">
    <defs>
     <path d="M 0 1.5 
C 0.397805 1.5 0.77937 1.341951 1.06066 1.06066 
C 1.341951 0.77937 1.5 0.397805 1.5 0 
C 1.5 -0.397805 1.341951 -0.77937 1.06066 -1.06066 
C 0.77937 -1.341951 0.397805 -1.5 0 -1.5 
C -0.397805 -1.5 -0.77937 -1.341951 -1.06066 -1.06066 
C -1.341951 -0.77937 -1.5 -0.397805 -1.5 0 
C -1.5 0.397805 -1.341951 0.77937 -1.06066 1.06066 
C -0.77937 1.341951 -0.397805 1.5 0 1.5 
z
" id="mb2b12c37aa" style="stroke:#ff0000;"/>
    </defs>
    <g>
     <use style="fill:#ff0000;stroke:#ff0000;" x="287.285137" xlink:href="#mb2b12c37aa" y="193.606784"/>
     <use style="fill:#ff0000;stroke:#ff0000;" x="287.285137" xlink:href="#mb2b12c37aa" y="193.606784"/>
    </g>
   </g>
   <g id="line2d_55">
    <path d="M 173.673575 298.944 
L 173.673575 297.890628 
L 175.313947 297.890628 
L 175.313947 296.837256 
L 179.854799 296.837256 
L 179.854799 296.31057 
L 180.614487 296.31057 
L 180.614487 295.257197 
L 181.55791 295.257197 
L 181.55791 294.730511 
L 182.899174 294.730511 
L 182.899174 293.150453 
L 183.402933 293.150453 
L 183.402933 292.623767 
L 187.07904 292.623767 
L 187.07904 291.570395 
L 187.725644 291.570395 
L 187.725644 291.043709 
L 188.763231 291.043709 
L 188.763231 289.990337 
L 189.081395 289.990337 
L 189.081395 289.463651 
L 189.433283 289.463651 
L 189.433283 288.936964 
L 190.192018 288.936964 
L 190.192018 286.83022 
L 190.813084 286.83022 
L 190.813084 284.723476 
L 190.958018 284.723476 
L 190.958018 284.19679 
L 191.34234 284.19679 
L 191.439811 280.509987 
L 192.594149 280.509987 
L 192.594149 279.456615 
L 193.396693 279.456615 
L 193.476154 278.403243 
L 194.175467 278.403243 
L 194.189309 276.823185 
L 194.340856 276.823185 
L 194.384241 274.71644 
L 195.262559 274.71644 
L 195.262559 274.189754 
L 197.194263 274.189754 
L 197.289121 272.609696 
L 197.319984 272.609696 
L 197.319984 271.029638 
L 198.753041 271.029638 
L 198.753041 269.976266 
L 199.950072 269.976266 
L 199.950072 269.449579 
L 200.472539 269.449579 
L 200.472539 268.922893 
L 200.936005 268.922893 
L 200.936005 268.396207 
L 201.903283 268.396207 
L 201.903283 267.869521 
L 202.112439 267.869521 
L 202.112439 267.342835 
L 202.892674 267.342835 
L 202.892674 266.816149 
L 204.955435 266.816149 
L 205.016279 264.709405 
L 205.93848 264.709405 
L 205.93848 264.182719 
L 206.084827 264.182719 
L 206.084827 263.656033 
L 206.273838 263.656033 
L 206.273838 263.129347 
L 206.545054 263.129347 
L 206.617576 261.549288 
L 208.251733 261.549288 
L 208.251733 261.022602 
L 210.628495 261.022602 
L 210.628495 260.495916 
L 211.210756 260.495916 
L 211.210756 259.96923 
L 212.296352 259.96923 
L 212.296352 259.442544 
L 212.638365 259.442544 
L 212.638365 258.915858 
L 213.720983 258.915858 
L 213.720983 258.389172 
L 215.890365 258.389172 
L 215.890365 257.862486 
L 219.52722 257.862486 
L 219.52722 257.3358 
L 220.131523 257.3358 
L 220.131523 256.809114 
L 220.382914 256.809114 
L 220.382914 256.282427 
L 221.177 256.282427 
L 221.177 254.702369 
L 221.832365 254.702369 
L 221.832365 254.175683 
L 222.139201 254.175683 
L 222.141987 252.068939 
L 222.363429 252.068939 
L 222.363429 251.542253 
L 222.790002 251.542253 
L 222.819056 249.435508 
L 223.731295 249.435508 
L 223.731295 248.908822 
L 223.993367 248.908822 
L 223.993367 248.382136 
L 224.35533 248.382136 
L 224.35533 247.85545 
L 224.908749 247.85545 
L 224.92815 245.748706 
L 225.27645 245.748706 
L 225.339564 244.695334 
L 227.597479 244.695334 
L 227.597479 244.168648 
L 227.740526 244.168648 
L 227.740526 243.641962 
L 228.520988 243.641962 
L 228.520988 243.115275 
L 228.940995 243.115275 
L 228.940995 242.588589 
L 232.29282 242.588589 
L 232.301378 241.008531 
L 232.623783 241.008531 
L 232.623783 240.481845 
L 232.759431 240.481845 
L 232.759431 239.428473 
L 233.329885 239.428473 
L 233.433219 238.375101 
L 233.971791 238.375101 
L 233.971791 237.848415 
L 234.284211 237.848415 
L 234.299016 236.268356 
L 235.620219 236.268356 
L 235.620219 235.74167 
L 236.208858 235.74167 
L 236.208858 235.214984 
L 238.73345 235.214984 
L 238.73345 234.688298 
L 239.051493 234.688298 
L 239.051493 234.161612 
L 239.414783 234.161612 
L 239.414783 233.634926 
L 239.548255 233.634926 
L 239.548255 233.10824 
L 239.711424 233.10824 
L 239.711424 232.581554 
L 239.905469 232.581554 
L 239.913682 231.001496 
L 240.138949 231.001496 
L 240.138949 230.47481 
L 240.387782 230.47481 
L 240.387782 229.421437 
L 243.184773 229.421437 
L 243.184773 228.894751 
L 243.665535 228.894751 
L 243.665535 227.841379 
L 244.119973 227.841379 
L 244.119973 227.314693 
L 244.33106 227.314693 
L 244.33106 226.261321 
L 244.700186 226.261321 
L 244.700186 225.734635 
L 245.754491 225.734635 
L 245.754491 225.207949 
L 247.109655 225.207949 
L 247.109655 224.681263 
L 247.310696 224.681263 
L 247.310696 223.627891 
L 247.680319 223.627891 
L 247.680319 223.101204 
L 247.847408 223.101204 
L 247.847408 222.574518 
L 248.89262 222.574518 
L 248.89262 222.047832 
L 250.395443 222.047832 
L 250.395443 221.521146 
L 250.672969 221.521146 
L 250.781138 219.414402 
L 250.902298 219.414402 
L 250.902298 217.834344 
L 251.460732 217.834344 
L 251.460732 216.254285 
L 251.66437 216.254285 
L 251.66437 215.727599 
L 252.954307 215.727599 
L 252.954307 214.674227 
L 253.287865 214.674227 
L 253.287865 214.147541 
L 255.13112 214.147541 
L 255.13112 213.620855 
L 255.320552 213.620855 
L 255.320552 213.094169 
L 255.479143 213.094169 
L 255.479143 212.040797 
L 257.351738 212.040797 
L 257.425563 210.987425 
L 257.508428 210.987425 
L 257.508428 210.460738 
L 258.11186 210.460738 
L 258.157542 208.88068 
L 259.251356 208.88068 
L 259.251356 208.353994 
L 259.727414 208.353994 
L 259.727414 207.827308 
L 260.767366 207.827308 
L 260.767366 207.300622 
L 261.132953 207.300622 
L 261.132953 206.773936 
L 261.271033 206.773936 
L 261.271033 206.24725 
L 262.225256 206.24725 
L 262.225256 205.193878 
L 262.748883 205.193878 
L 262.748883 204.667192 
L 263.570616 204.667192 
L 263.570616 204.140506 
L 263.900323 204.140506 
L 263.900323 203.613819 
L 265.985043 203.613819 
L 265.985043 203.087133 
L 266.436742 203.087133 
L 266.436742 202.560447 
L 267.035065 202.560447 
L 267.035065 202.033761 
L 267.963652 202.033761 
L 267.963652 201.507075 
L 270.294293 201.507075 
L 270.355677 200.453703 
L 271.153332 200.453703 
L 271.153332 199.927017 
L 271.701161 199.927017 
L 271.701161 199.400331 
L 272.464039 199.400331 
L 272.464039 198.873645 
L 274.680702 198.873645 
L 274.680702 198.346959 
L 277.422445 198.346959 
L 277.463258 196.7669 
L 277.806657 196.7669 
L 277.806657 196.240214 
L 282.257414 196.240214 
L 282.257414 195.713528 
L 283.597631 195.713528 
L 283.597631 195.186842 
L 285.16736 195.186842 
L 285.16736 194.660156 
L 285.661697 194.660156 
L 285.661697 194.13347 
L 287.285137 194.13347 
L 287.285137 193.606784 
L 338.688 193.606784 
L 338.688 193.606784 
" style="fill:none;stroke:#ff0000;stroke-linecap:square;stroke-width:1.5;"/>
   </g>
   <g id="line2d_56">
    <defs>
     <path d="M 0 -6 
L -5.196152 -3 
L -5.196152 3 
L -0 6 
L 5.196152 3 
L 5.196152 -3 
z
" id="m934c8a6ac0" style="stroke:#ff0000;stroke-linejoin:miter;stroke-width:1.5;"/>
    </defs>
    <g>
     <use style="fill-opacity:0;stroke:#ff0000;stroke-linejoin:miter;stroke-width:1.5;" x="251.66437" xlink:href="#m934c8a6ac0" y="215.727599"/>
     <use style="fill-opacity:0;stroke:#ff0000;stroke-linejoin:miter;stroke-width:1.5;" x="287.285137" xlink:href="#m934c8a6ac0" y="193.606784"/>
     <use style="fill-opacity:0;stroke:#ff0000;stroke-linejoin:miter;stroke-width:1.5;" x="287.285137" xlink:href="#m934c8a6ac0" y="193.606784"/>
     <use style="fill-opacity:0;stroke:#ff0000;stroke-linejoin:miter;stroke-width:1.5;" x="338.688" xlink:href="#m934c8a6ac0" y="193.606784"/>
    </g>
   </g>
   <g id="line2d_57">
    <path style="fill:none;stroke:#ff0000;stroke-linecap:square;stroke-width:1.5;"/>
    <g/>
   </g>
   <g id="line2d_58">
    <path clip-path="url(#pe020801c19)" d="M 218.221714 257.862486 
" style="fill:none;stroke:#ff0000;stroke-linecap:square;stroke-width:1.5;"/>
    <defs>
     <path d="M -12 12 
L 12 -12 
M -12 -12 
L 12 12 
" id="m3399552b86" style="stroke:#ff0000;"/>
    </defs>
    <g clip-path="url(#pe020801c19)">
     <use style="fill:#ff0000;stroke:#ff0000;" x="218.221714" xlink:href="#m3399552b86" y="257.862486"/>
    </g>
   </g>
   <g id="line2d_59">
    <defs>
     <path d="M 0 1.5 
C 0.397805 1.5 0.77937 1.341951 1.06066 1.06066 
C 1.341951 0.77937 1.5 0.397805 1.5 0 
C 1.5 -0.397805 1.341951 -0.77937 1.06066 -1.06066 
C 0.77937 -1.341951 0.397805 -1.5 0 -1.5 
C -0.397805 -1.5 -0.77937 -1.341951 -1.06066 -1.06066 
C -1.341951 -0.77937 -1.5 -0.397805 -1.5 0 
C -1.5 0.397805 -1.341951 0.77937 -1.06066 1.06066 
C -0.77937 1.341951 -0.397805 1.5 0 1.5 
z
" id="m732cb260d7" style="stroke:#9acd32;"/>
    </defs>
    <g>
     <use style="fill:#9acd32;stroke:#9acd32;" x="284.205164" xlink:href="#m732cb260d7" y="193.606784"/>
     <use style="fill:#9acd32;stroke:#9acd32;" x="284.205164" xlink:href="#m732cb260d7" y="193.606784"/>
    </g>
   </g>
   <g id="line2d_60">
    <path d="M 160.852479 298.944 
L 160.852479 297.890628 
L 171.332059 297.890628 
L 171.332059 297.363942 
L 176.491702 297.363942 
L 176.491702 296.31057 
L 178.002224 296.31057 
L 178.002224 295.783884 
L 186.650846 295.783884 
L 186.650846 295.257197 
L 187.120595 295.257197 
L 187.120595 294.730511 
L 189.223003 294.730511 
L 189.223003 294.203825 
L 189.514881 294.203825 
L 189.514881 293.677139 
L 190.740163 293.677139 
L 190.740163 292.623767 
L 190.98298 292.623767 
L 190.98298 291.570395 
L 191.208788 291.570395 
L 191.208788 290.517023 
L 191.434411 290.517023 
L 191.434411 289.463651 
L 192.161759 289.463651 
L 192.161759 288.936964 
L 192.42656 288.936964 
L 192.42656 287.356906 
L 192.62697 287.356906 
L 192.62697 282.090045 
L 194.72301 282.090045 
L 194.787753 280.509987 
L 196.367452 280.509987 
L 196.367452 278.403243 
L 198.164516 278.403243 
L 198.164516 277.349871 
L 198.46848 277.349871 
L 198.46848 276.823185 
L 198.841575 276.823185 
L 198.841575 275.769812 
L 199.467788 275.769812 
L 199.467788 275.243126 
L 199.598496 275.243126 
L 199.598496 274.71644 
L 200.391928 274.71644 
L 200.391928 274.189754 
L 200.928172 274.189754 
L 200.928172 273.136382 
L 201.112106 273.136382 
L 201.112106 269.976266 
L 201.297189 269.976266 
L 201.297189 268.922893 
L 201.687088 268.922893 
L 201.687088 268.396207 
L 201.84837 268.396207 
L 201.84837 267.869521 
L 202.200067 267.869521 
L 202.218995 266.816149 
L 202.956959 266.816149 
L 203.052944 263.656033 
L 203.518347 263.656033 
L 203.539946 262.075974 
L 203.94663 262.075974 
L 203.94663 261.549288 
L 204.669498 261.549288 
L 204.669498 261.022602 
L 205.470195 261.022602 
L 205.470195 260.495916 
L 205.608531 260.495916 
L 205.608531 259.96923 
L 206.599474 259.96923 
L 206.599474 259.442544 
L 207.6462 259.442544 
L 207.6462 258.915858 
L 208.252763 258.915858 
L 208.252763 258.389172 
L 208.945137 258.389172 
L 208.945137 257.3358 
L 209.187851 257.3358 
L 209.187851 256.809114 
L 209.419532 256.809114 
L 209.419532 254.175683 
L 209.675715 254.175683 
L 209.724989 251.015567 
L 210.011232 251.015567 
L 210.011232 250.488881 
L 210.28369 250.488881 
L 210.28369 248.908822 
L 210.669775 248.908822 
L 210.669775 248.382136 
L 211.796065 248.382136 
L 211.796065 247.85545 
L 213.29905 247.85545 
L 213.29905 247.328764 
L 213.616074 247.328764 
L 213.616074 246.802078 
L 213.800563 246.802078 
L 213.800563 246.275392 
L 215.074216 246.275392 
L 215.074216 245.748706 
L 215.704662 245.748706 
L 215.704662 245.22202 
L 216.463568 245.22202 
L 216.463568 244.695334 
L 216.850177 244.695334 
L 216.850177 244.168648 
L 217.689928 244.168648 
L 217.771841 243.115275 
L 217.912642 243.115275 
L 217.912642 242.588589 
L 221.752313 242.588589 
L 221.838508 240.481845 
L 223.724088 240.481845 
L 223.77405 236.795043 
L 224.077503 236.795043 
L 224.077503 236.268356 
L 225.44937 236.268356 
L 225.44937 235.74167 
L 225.811604 235.74167 
L 225.811604 235.214984 
L 226.028063 235.214984 
L 226.028063 234.688298 
L 226.281094 234.688298 
L 226.371309 233.10824 
L 226.458159 233.10824 
L 226.555036 229.421437 
L 226.788499 229.421437 
L 226.788499 228.894751 
L 227.391167 228.894751 
L 227.391167 227.841379 
L 229.096549 227.841379 
L 229.096549 227.314693 
L 230.086217 227.314693 
L 230.086217 226.788007 
L 232.211694 226.788007 
L 232.211694 225.734635 
L 233.305913 225.734635 
L 233.305913 224.681263 
L 233.708531 224.681263 
L 233.785141 223.627891 
L 234.295316 223.627891 
L 234.295316 223.101204 
L 234.646073 223.101204 
L 234.646073 222.574518 
L 234.969456 222.574518 
L 234.969456 222.047832 
L 235.976453 222.047832 
L 235.976453 221.521146 
L 236.581401 221.521146 
L 236.581401 220.99446 
L 237.232051 220.99446 
L 237.232051 219.941088 
L 240.578033 219.941088 
L 240.678562 217.307658 
L 241.355231 217.307658 
L 241.355231 216.780971 
L 242.286306 216.780971 
L 242.286306 216.254285 
L 244.294991 216.254285 
L 244.294991 215.727599 
L 245.460231 215.727599 
L 245.460231 215.200913 
L 245.703467 215.200913 
L 245.703467 214.674227 
L 246.023341 214.674227 
L 246.023341 214.147541 
L 247.075014 214.147541 
L 247.075014 213.620855 
L 248.27694 213.620855 
L 248.27694 213.094169 
L 248.635683 213.094169 
L 248.635683 212.567483 
L 249.394534 212.567483 
L 249.394534 211.514111 
L 251.568948 211.514111 
L 251.568948 210.987425 
L 252.093427 210.987425 
L 252.093427 210.460738 
L 253.581292 210.460738 
L 253.62005 208.88068 
L 253.864669 208.88068 
L 253.864669 208.353994 
L 254.430076 208.353994 
L 254.430076 206.773936 
L 255.772432 206.773936 
L 255.772432 205.720564 
L 256.490315 205.720564 
L 256.490315 205.193878 
L 259.433572 205.193878 
L 259.433572 204.667192 
L 259.998862 204.667192 
L 259.998862 203.613819 
L 261.315049 203.613819 
L 261.315049 203.087133 
L 262.638416 203.087133 
L 262.638416 202.560447 
L 264.213225 202.560447 
L 264.213225 202.033761 
L 265.119711 202.033761 
L 265.119711 201.507075 
L 266.545889 201.507075 
L 266.545889 199.927017 
L 267.604774 199.927017 
L 267.604774 199.400331 
L 268.603029 199.400331 
L 268.603029 198.346959 
L 270.442911 198.346959 
L 270.442911 197.820273 
L 271.294835 197.820273 
L 271.294835 197.293586 
L 275.023486 197.293586 
L 275.023486 196.7669 
L 280.211735 196.7669 
L 280.211735 196.240214 
L 281.64691 196.240214 
L 281.64691 195.186842 
L 282.100204 195.186842 
L 282.100204 194.660156 
L 283.393408 194.660156 
L 283.393408 194.13347 
L 284.205164 194.13347 
L 284.205164 193.606784 
L 338.688 193.606784 
L 338.688 193.606784 
" style="fill:none;stroke:#9acd32;stroke-linecap:square;stroke-width:1.5;"/>
   </g>
   <g id="line2d_61">
    <defs>
     <path d="M 0 -6 
L -6 6 
L 6 6 
z
" id="m727301f74b" style="stroke:#9acd32;stroke-linejoin:miter;stroke-width:1.5;"/>
    </defs>
    <g>
     <use style="fill-opacity:0;stroke:#9acd32;stroke-linejoin:miter;stroke-width:1.5;" x="233.708531" xlink:href="#m727301f74b" y="224.681263"/>
     <use style="fill-opacity:0;stroke:#9acd32;stroke-linejoin:miter;stroke-width:1.5;" x="284.205164" xlink:href="#m727301f74b" y="194.13347"/>
     <use style="fill-opacity:0;stroke:#9acd32;stroke-linejoin:miter;stroke-width:1.5;" x="284.205164" xlink:href="#m727301f74b" y="193.606784"/>
     <use style="fill-opacity:0;stroke:#9acd32;stroke-linejoin:miter;stroke-width:1.5;" x="338.688" xlink:href="#m727301f74b" y="193.606784"/>
    </g>
   </g>
   <g id="line2d_62">
    <path style="fill:none;stroke:#9acd32;stroke-linecap:square;stroke-width:1.5;"/>
    <g/>
   </g>
   <g id="line2d_63">
    <path clip-path="url(#pe020801c19)" d="M 218.221714 242.588589 
" style="fill:none;stroke:#9acd32;stroke-linecap:square;stroke-width:1.5;"/>
    <defs>
     <path d="M -12 12 
L 12 -12 
M -12 -12 
L 12 12 
" id="mbb7fa297d3" style="stroke:#9acd32;"/>
    </defs>
    <g clip-path="url(#pe020801c19)">
     <use style="fill:#9acd32;stroke:#9acd32;" x="218.221714" xlink:href="#mbb7fa297d3" y="242.588589"/>
    </g>
   </g>
   <g id="line2d_64">
    <path d="M 338.688 214.674227 
L 369.60768 293.571802 
" style="fill:none;stroke:#000080;stroke-linecap:square;stroke-width:1.5;"/>
    <g>
     <use style="fill-opacity:0;stroke:#000080;stroke-width:1.5;" x="338.688" xlink:href="#md44f6f98de" y="214.674227"/>
     <use style="fill-opacity:0;stroke:#000080;stroke-width:1.5;" x="369.60768" xlink:href="#md44f6f98de" y="293.571802"/>
    </g>
   </g>
   <g id="line2d_65">
    <path d="M 338.688 209.407366 
L 369.60768 250.594218 
" style="fill:none;stroke:#ff00ff;stroke-linecap:square;stroke-width:1.5;"/>
    <g>
     <use style="fill-opacity:0;stroke:#ff00ff;stroke-linejoin:miter;stroke-width:1.5;" x="338.688" xlink:href="#mf190bdbde2" y="209.407366"/>
     <use style="fill-opacity:0;stroke:#ff00ff;stroke-linejoin:miter;stroke-width:1.5;" x="369.60768" xlink:href="#mf190bdbde2" y="250.594218"/>
    </g>
   </g>
   <g id="line2d_66">
    <path d="M 338.688 193.606784 
L 369.60768 207.616634 
" style="fill:none;stroke:#ff0000;stroke-linecap:square;stroke-width:1.5;"/>
    <g>
     <use style="fill-opacity:0;stroke:#ff0000;stroke-linejoin:miter;stroke-width:1.5;" x="338.688" xlink:href="#m934c8a6ac0" y="193.606784"/>
     <use style="fill-opacity:0;stroke:#ff0000;stroke-linejoin:miter;stroke-width:1.5;" x="369.60768" xlink:href="#m934c8a6ac0" y="207.616634"/>
    </g>
   </g>
   <g id="line2d_67">
    <path d="M 338.688 193.606784 
L 369.60768 164.63905 
" style="fill:none;stroke:#9acd32;stroke-linecap:square;stroke-width:1.5;"/>
    <g>
     <use style="fill-opacity:0;stroke:#9acd32;stroke-linejoin:miter;stroke-width:1.5;" x="338.688" xlink:href="#m727301f74b" y="193.606784"/>
     <use style="fill-opacity:0;stroke:#9acd32;stroke-linejoin:miter;stroke-width:1.5;" x="369.60768" xlink:href="#m727301f74b" y="164.63905"/>
    </g>
   </g>
   <g id="line2d_68">
    <path d="M 338.688 183.073062 
L 369.60768 121.661465 
" style="fill:none;stroke:#ff7500;stroke-linecap:square;stroke-width:1.5;"/>
    <g>
     <use style="fill-opacity:0;stroke:#ff7500;stroke-linejoin:bevel;stroke-width:1.5;" x="338.688" xlink:href="#m852ec9edf3" y="183.073062"/>
     <use style="fill-opacity:0;stroke:#ff7500;stroke-linejoin:bevel;stroke-width:1.5;" x="369.60768" xlink:href="#m852ec9edf3" y="121.661465"/>
    </g>
   </g>
   <g id="line2d_69">
    <path d="M 338.688 172.539341 
L 369.60768 78.683881 
" style="fill:none;stroke:#6495ed;stroke-linecap:square;stroke-width:1.5;"/>
    <g>
     <use style="fill-opacity:0;stroke:#6495ed;stroke-linejoin:miter;stroke-width:1.5;" x="338.688" xlink:href="#m34fb2620e7" y="172.539341"/>
     <use style="fill-opacity:0;stroke:#6495ed;stroke-linejoin:miter;stroke-width:1.5;" x="369.60768" xlink:href="#m34fb2620e7" y="78.683881"/>
    </g>
   </g>
   <g id="line2d_70">
    <path d="M 338.688 298.944 
L 338.688 30.334099 
" style="fill:none;stroke:#000000;stroke-linecap:square;stroke-width:1.5;"/>
   </g>
   <g id="patch_3">
    <path d="M 57.6 298.944 
L 57.6 27.648 
" style="fill:none;stroke:#000000;stroke-linecap:square;stroke-linejoin:miter;stroke-width:0.8;"/>
   </g>
   <g id="patch_4">
    <path d="M 338.688 298.944 
L 338.688 27.648 
" style="fill:none;stroke:#000000;stroke-linecap:square;stroke-linejoin:miter;stroke-width:0.8;"/>
   </g>
   <g id="patch_5">
    <path d="M 57.6 298.944 
L 338.688 298.944 
" style="fill:none;stroke:#000000;stroke-linecap:square;stroke-linejoin:miter;stroke-width:0.8;"/>
   </g>
   <g id="patch_6">
    <path d="M 57.6 27.648 
L 338.688 27.648 
" style="fill:none;stroke:#000000;stroke-linecap:square;stroke-linejoin:miter;stroke-width:0.8;"/>
   </g>
   <g id="text_13">
    <!-- pop10 -->
    <g transform="translate(375.22944 298.262739)scale(0.17 -0.17)">
     <use xlink:href="#DejaVuSans-112"/>
     <use x="63.476562" xlink:href="#DejaVuSans-111"/>
     <use x="124.658203" xlink:href="#DejaVuSans-112"/>
     <use x="188.134766" xlink:href="#DejaVuSans-49"/>
     <use x="251.757812" xlink:href="#DejaVuSans-48"/>
    </g>
   </g>
   <g id="text_14">
    <!-- pop40 -->
    <g transform="translate(375.22944 255.285155)scale(0.17 -0.17)">
     <use xlink:href="#DejaVuSans-112"/>
     <use x="63.476562" xlink:href="#DejaVuSans-111"/>
     <use x="124.658203" xlink:href="#DejaVuSans-112"/>
     <use x="188.134766" xlink:href="#DejaVuSans-52"/>
     <use x="251.757812" xlink:href="#DejaVuSans-48"/>
    </g>
   </g>
   <g id="text_15">
    <!-- pop200 -->
    <g transform="translate(375.22944 212.307571)scale(0.17 -0.17)">
     <use xlink:href="#DejaVuSans-112"/>
     <use x="63.476562" xlink:href="#DejaVuSans-111"/>
     <use x="124.658203" xlink:href="#DejaVuSans-112"/>
     <use x="188.134766" xlink:href="#DejaVuSans-50"/>
     <use x="251.757812" xlink:href="#DejaVuSans-48"/>
     <use x="315.380859" xlink:href="#DejaVuSans-48"/>
    </g>
   </g>
   <g id="text_16">
    <!-- pop100xDI -->
    <g transform="translate(375.22944 169.329987)scale(0.17 -0.17)">
     <defs>
      <path d="M 54.890625 54.6875 
L 35.109375 28.078125 
L 55.90625 0 
L 45.3125 0 
L 29.390625 21.484375 
L 13.484375 0 
L 2.875 0 
L 24.125 28.609375 
L 4.6875 54.6875 
L 15.28125 54.6875 
L 29.78125 35.203125 
L 44.28125 54.6875 
z
" id="DejaVuSans-120"/>
      <path d="M 19.671875 64.796875 
L 19.671875 8.109375 
L 31.59375 8.109375 
Q 46.6875 8.109375 53.6875 14.9375 
Q 60.6875 21.78125 60.6875 36.53125 
Q 60.6875 51.171875 53.6875 57.984375 
Q 46.6875 64.796875 31.59375 64.796875 
z
M 9.8125 72.90625 
L 30.078125 72.90625 
Q 51.265625 72.90625 61.171875 64.09375 
Q 71.09375 55.28125 71.09375 36.53125 
Q 71.09375 17.671875 61.125 8.828125 
Q 51.171875 0 30.078125 0 
L 9.8125 0 
z
" id="DejaVuSans-68"/>
      <path d="M 9.8125 72.90625 
L 19.671875 72.90625 
L 19.671875 0 
L 9.8125 0 
z
" id="DejaVuSans-73"/>
     </defs>
     <use xlink:href="#DejaVuSans-112"/>
     <use x="63.476562" xlink:href="#DejaVuSans-111"/>
     <use x="124.658203" xlink:href="#DejaVuSans-112"/>
     <use x="188.134766" xlink:href="#DejaVuSans-49"/>
     <use x="251.757812" xlink:href="#DejaVuSans-48"/>
     <use x="315.380859" xlink:href="#DejaVuSans-48"/>
     <use x="379.003906" xlink:href="#DejaVuSans-120"/>
     <use x="438.183594" xlink:href="#DejaVuSans-68"/>
     <use x="515.185547" xlink:href="#DejaVuSans-73"/>
    </g>
   </g>
   <g id="text_17">
    <!-- pop50 -->
    <g transform="translate(375.22944 126.352403)scale(0.17 -0.17)">
     <defs>
      <path d="M 10.796875 72.90625 
L 49.515625 72.90625 
L 49.515625 64.59375 
L 19.828125 64.59375 
L 19.828125 46.734375 
Q 21.96875 47.46875 24.109375 47.828125 
Q 26.265625 48.1875 28.421875 48.1875 
Q 40.625 48.1875 47.75 41.5 
Q 54.890625 34.8125 54.890625 23.390625 
Q 54.890625 11.625 47.5625 5.09375 
Q 40.234375 -1.421875 26.90625 -1.421875 
Q 22.3125 -1.421875 17.546875 -0.640625 
Q 12.796875 0.140625 7.71875 1.703125 
L 7.71875 11.625 
Q 12.109375 9.234375 16.796875 8.0625 
Q 21.484375 6.890625 26.703125 6.890625 
Q 35.15625 6.890625 40.078125 11.328125 
Q 45.015625 15.765625 45.015625 23.390625 
Q 45.015625 31 40.078125 35.4375 
Q 35.15625 39.890625 26.703125 39.890625 
Q 22.75 39.890625 18.8125 39.015625 
Q 14.890625 38.140625 10.796875 36.28125 
z
" id="DejaVuSans-53"/>
     </defs>
     <use xlink:href="#DejaVuSans-112"/>
     <use x="63.476562" xlink:href="#DejaVuSans-111"/>
     <use x="124.658203" xlink:href="#DejaVuSans-112"/>
     <use x="188.134766" xlink:href="#DejaVuSans-53"/>
     <use x="251.757812" xlink:href="#DejaVuSans-48"/>
    </g>
   </g>
   <g id="text_18">
    <!-- pop100 -->
    <g transform="translate(375.22944 83.374819)scale(0.17 -0.17)">
     <use xlink:href="#DejaVuSans-112"/>
     <use x="63.476562" xlink:href="#DejaVuSans-111"/>
     <use x="124.658203" xlink:href="#DejaVuSans-112"/>
     <use x="188.134766" xlink:href="#DejaVuSans-49"/>
     <use x="251.757812" xlink:href="#DejaVuSans-48"/>
     <use x="315.380859" xlink:href="#DejaVuSans-48"/>
    </g>
   </g>
   <g id="text_19">
    <!-- best 2009 -->
    <g transform="translate(375.22944 40.397235)scale(0.17 -0.17)">
     <defs>
      <path d="M 48.6875 27.296875 
Q 48.6875 37.203125 44.609375 42.84375 
Q 40.53125 48.484375 33.40625 48.484375 
Q 26.265625 48.484375 22.1875 42.84375 
Q 18.109375 37.203125 18.109375 27.296875 
Q 18.109375 17.390625 22.1875 11.75 
Q 26.265625 6.109375 33.40625 6.109375 
Q 40.53125 6.109375 44.609375 11.75 
Q 48.6875 17.390625 48.6875 27.296875 
z
M 18.109375 46.390625 
Q 20.953125 51.265625 25.265625 53.625 
Q 29.59375 56 35.59375 56 
Q 45.5625 56 51.78125 48.09375 
Q 58.015625 40.1875 58.015625 27.296875 
Q 58.015625 14.40625 51.78125 6.484375 
Q 45.5625 -1.421875 35.59375 -1.421875 
Q 29.59375 -1.421875 25.265625 0.953125 
Q 20.953125 3.328125 18.109375 8.203125 
L 18.109375 0 
L 9.078125 0 
L 9.078125 75.984375 
L 18.109375 75.984375 
z
" id="DejaVuSans-98"/>
      <path d="M 10.984375 1.515625 
L 10.984375 10.5 
Q 14.703125 8.734375 18.5 7.8125 
Q 22.3125 6.890625 25.984375 6.890625 
Q 35.75 6.890625 40.890625 13.453125 
Q 46.046875 20.015625 46.78125 33.40625 
Q 43.953125 29.203125 39.59375 26.953125 
Q 35.25 24.703125 29.984375 24.703125 
Q 19.046875 24.703125 12.671875 31.3125 
Q 6.296875 37.9375 6.296875 49.421875 
Q 6.296875 60.640625 12.9375 67.421875 
Q 19.578125 74.21875 30.609375 74.21875 
Q 43.265625 74.21875 49.921875 64.515625 
Q 56.59375 54.828125 56.59375 36.375 
Q 56.59375 19.140625 48.40625 8.859375 
Q 40.234375 -1.421875 26.421875 -1.421875 
Q 22.703125 -1.421875 18.890625 -0.6875 
Q 15.09375 0.046875 10.984375 1.515625 
z
M 30.609375 32.421875 
Q 37.25 32.421875 41.125 36.953125 
Q 45.015625 41.5 45.015625 49.421875 
Q 45.015625 57.28125 41.125 61.84375 
Q 37.25 66.40625 30.609375 66.40625 
Q 23.96875 66.40625 20.09375 61.84375 
Q 16.21875 57.28125 16.21875 49.421875 
Q 16.21875 41.5 20.09375 36.953125 
Q 23.96875 32.421875 30.609375 32.421875 
z
" id="DejaVuSans-57"/>
     </defs>
     <use xlink:href="#DejaVuSans-98"/>
     <use x="63.476562" xlink:href="#DejaVuSans-101"/>
     <use x="125" xlink:href="#DejaVuSans-115"/>
     <use x="177.099609" xlink:href="#DejaVuSans-116"/>
     <use x="216.308594" xlink:href="#DejaVuSans-32"/>
     <use x="248.095703" xlink:href="#DejaVuSans-50"/>
     <use x="311.71875" xlink:href="#DejaVuSans-48"/>
     <use x="375.341797" xlink:href="#DejaVuSans-48"/>
     <use x="438.964844" xlink:href="#DejaVuSans-57"/>
    </g>
   </g>
   <g id="text_20">
    <!-- bbob f12, 3-D -->
    <g transform="translate(60.41088 38.111366)scale(0.102 -0.102)">
     <defs>
      <path d="M 40.578125 39.3125 
Q 47.65625 37.796875 51.625 33 
Q 55.609375 28.21875 55.609375 21.1875 
Q 55.609375 10.40625 48.1875 4.484375 
Q 40.765625 -1.421875 27.09375 -1.421875 
Q 22.515625 -1.421875 17.65625 -0.515625 
Q 12.796875 0.390625 7.625 2.203125 
L 7.625 11.71875 
Q 11.71875 9.328125 16.59375 8.109375 
Q 21.484375 6.890625 26.8125 6.890625 
Q 36.078125 6.890625 40.9375 10.546875 
Q 45.796875 14.203125 45.796875 21.1875 
Q 45.796875 27.640625 41.28125 31.265625 
Q 36.765625 34.90625 28.71875 34.90625 
L 20.21875 34.90625 
L 20.21875 43.015625 
L 29.109375 43.015625 
Q 36.375 43.015625 40.234375 45.921875 
Q 44.09375 48.828125 44.09375 54.296875 
Q 44.09375 59.90625 40.109375 62.90625 
Q 36.140625 65.921875 28.71875 65.921875 
Q 24.65625 65.921875 20.015625 65.03125 
Q 15.375 64.15625 9.8125 62.3125 
L 9.8125 71.09375 
Q 15.4375 72.65625 20.34375 73.4375 
Q 25.25 74.21875 29.59375 74.21875 
Q 40.828125 74.21875 47.359375 69.109375 
Q 53.90625 64.015625 53.90625 55.328125 
Q 53.90625 49.265625 50.4375 45.09375 
Q 46.96875 40.921875 40.578125 39.3125 
z
" id="DejaVuSans-51"/>
     </defs>
     <use xlink:href="#DejaVuSans-98"/>
     <use x="63.476562" xlink:href="#DejaVuSans-98"/>
     <use x="126.953125" xlink:href="#DejaVuSans-111"/>
     <use x="188.134766" xlink:href="#DejaVuSans-98"/>
     <use x="251.611328" xlink:href="#DejaVuSans-32"/>
     <use x="283.398438" xlink:href="#DejaVuSans-102"/>
     <use x="318.603516" xlink:href="#DejaVuSans-49"/>
     <use x="382.226562" xlink:href="#DejaVuSans-50"/>
     <use x="445.849609" xlink:href="#DejaVuSans-44"/>
     <use x="477.636719" xlink:href="#DejaVuSans-32"/>
     <use x="509.423828" xlink:href="#DejaVuSans-51"/>
     <use x="573.046875" xlink:href="#DejaVuSans-45"/>
     <use x="609.130859" xlink:href="#DejaVuSans-68"/>
    </g>
    <!-- 51 targets: 100..1e-08 -->
    <g transform="translate(60.41088 49.533135)scale(0.102 -0.102)">
     <defs>
      <path d="M 11.71875 12.40625 
L 22.015625 12.40625 
L 22.015625 0 
L 11.71875 0 
z
M 11.71875 51.703125 
L 22.015625 51.703125 
L 22.015625 39.3125 
L 11.71875 39.3125 
z
" id="DejaVuSans-58"/>
     </defs>
     <use xlink:href="#DejaVuSans-53"/>
     <use x="63.623047" xlink:href="#DejaVuSans-49"/>
     <use x="127.246094" xlink:href="#DejaVuSans-32"/>
     <use x="159.033203" xlink:href="#DejaVuSans-116"/>
     <use x="198.242188" xlink:href="#DejaVuSans-97"/>
     <use x="259.521484" xlink:href="#DejaVuSans-114"/>
     <use x="298.884766" xlink:href="#DejaVuSans-103"/>
     <use x="362.361328" xlink:href="#DejaVuSans-101"/>
     <use x="423.884766" xlink:href="#DejaVuSans-116"/>
     <use x="463.09375" xlink:href="#DejaVuSans-115"/>
     <use x="515.193359" xlink:href="#DejaVuSans-58"/>
     <use x="548.884766" xlink:href="#DejaVuSans-32"/>
     <use x="580.671875" xlink:href="#DejaVuSans-49"/>
     <use x="644.294922" xlink:href="#DejaVuSans-48"/>
     <use x="707.917969" xlink:href="#DejaVuSans-48"/>
     <use x="771.541016" xlink:href="#DejaVuSans-46"/>
     <use x="803.328125" xlink:href="#DejaVuSans-46"/>
     <use x="835.115234" xlink:href="#DejaVuSans-49"/>
     <use x="898.738281" xlink:href="#DejaVuSans-101"/>
     <use x="960.261719" xlink:href="#DejaVuSans-45"/>
     <use x="996.345703" xlink:href="#DejaVuSans-48"/>
     <use x="1059.96875" xlink:href="#DejaVuSans-56"/>
    </g>
    <!-- 15 instances -->
    <g transform="translate(60.41088 60.954904)scale(0.102 -0.102)">
     <use xlink:href="#DejaVuSans-49"/>
     <use x="63.623047" xlink:href="#DejaVuSans-53"/>
     <use x="127.246094" xlink:href="#DejaVuSans-32"/>
     <use x="159.033203" xlink:href="#DejaVuSans-105"/>
     <use x="186.816406" xlink:href="#DejaVuSans-110"/>
     <use x="250.195312" xlink:href="#DejaVuSans-115"/>
     <use x="302.294922" xlink:href="#DejaVuSans-116"/>
     <use x="341.503906" xlink:href="#DejaVuSans-97"/>
     <use x="402.783203" xlink:href="#DejaVuSans-110"/>
     <use x="466.162109" xlink:href="#DejaVuSans-99"/>
     <use x="521.142578" xlink:href="#DejaVuSans-101"/>
     <use x="582.666016" xlink:href="#DejaVuSans-115"/>
    </g>
   </g>
   <g id="text_21">
    <!-- v2.4 -->
    <g style="fill:#808080;" transform="translate(187.233062 294.151352)scale(0.1 -0.1)">
     <use xlink:href="#DejaVuSans-118"/>
     <use x="59.179688" xlink:href="#DejaVuSans-50"/>
     <use x="122.802734" xlink:href="#DejaVuSans-46"/>
     <use x="154.589844" xlink:href="#DejaVuSans-52"/>
    </g>
   </g>
   <g id="text_22">
    <!-- 12 Bent cigar -->
    <g transform="translate(130.926812 21.648)scale(0.2 -0.2)">
     <defs>
      <path d="M 19.671875 34.8125 
L 19.671875 8.109375 
L 35.5 8.109375 
Q 43.453125 8.109375 47.28125 11.40625 
Q 51.125 14.703125 51.125 21.484375 
Q 51.125 28.328125 47.28125 31.5625 
Q 43.453125 34.8125 35.5 34.8125 
z
M 19.671875 64.796875 
L 19.671875 42.828125 
L 34.28125 42.828125 
Q 41.5 42.828125 45.03125 45.53125 
Q 48.578125 48.25 48.578125 53.8125 
Q 48.578125 59.328125 45.03125 62.0625 
Q 41.5 64.796875 34.28125 64.796875 
z
M 9.8125 72.90625 
L 35.015625 72.90625 
Q 46.296875 72.90625 52.390625 68.21875 
Q 58.5 63.53125 58.5 54.890625 
Q 58.5 48.1875 55.375 44.234375 
Q 52.25 40.28125 46.1875 39.3125 
Q 53.46875 37.75 57.5 32.78125 
Q 61.53125 27.828125 61.53125 20.40625 
Q 61.53125 10.640625 54.890625 5.3125 
Q 48.25 0 35.984375 0 
L 9.8125 0 
z
" id="DejaVuSans-66"/>
     </defs>
     <use xlink:href="#DejaVuSans-49"/>
     <use x="63.623047" xlink:href="#DejaVuSans-50"/>
     <use x="127.246094" xlink:href="#DejaVuSans-32"/>
     <use x="159.033203" xlink:href="#DejaVuSans-66"/>
     <use x="227.636719" xlink:href="#DejaVuSans-101"/>
     <use x="289.160156" xlink:href="#DejaVuSans-110"/>
     <use x="352.539062" xlink:href="#DejaVuSans-116"/>
     <use x="391.748047" xlink:href="#DejaVuSans-32"/>
     <use x="423.535156" xlink:href="#DejaVuSans-99"/>
     <use x="478.515625" xlink:href="#DejaVuSans-105"/>
     <use x="506.298828" xlink:href="#DejaVuSans-103"/>
     <use x="569.775391" xlink:href="#DejaVuSans-97"/>
     <use x="631.054688" xlink:href="#DejaVuSans-114"/>
    </g>
   </g>
  </g>
 </g>
 <defs>
  <clipPath id="pe020801c19">
   <rect height="271.296" width="281.088" x="57.6" y="27.648"/>
  </clipPath>
 </defs>
</svg>
