<?xml version="1.0" encoding="utf-8" standalone="no"?>
<!DOCTYPE svg PUBLIC "-//W3C//DTD SVG 1.1//EN"
  "http://www.w3.org/Graphics/SVG/1.1/DTD/svg11.dtd">
<!-- Created with matplotlib (https://matplotlib.org/) -->
<svg height="345.6pt" version="1.1" viewBox="0 0 460.8 345.6" width="460.8pt" xmlns="http://www.w3.org/2000/svg" xmlns:xlink="http://www.w3.org/1999/xlink">
 <metadata>
  <rdf:RDF xmlns:cc="http://creativecommons.org/ns#" xmlns:dc="http://purl.org/dc/elements/1.1/" xmlns:rdf="http://www.w3.org/1999/02/22-rdf-syntax-ns#">
   <cc:Work>
    <dc:type rdf:resource="http://purl.org/dc/dcmitype/StillImage"/>
    <dc:date>2021-05-01T17:07:39.966999</dc:date>
    <dc:format>image/svg+xml</dc:format>
    <dc:creator>
     <cc:Agent>
      <dc:title>Matplotlib v3.3.2, https://matplotlib.org/</dc:title>
     </cc:Agent>
    </dc:creator>
   </cc:Work>
  </rdf:RDF>
 </metadata>
 <defs>
  <style type="text/css">*{stroke-linecap:butt;stroke-linejoin:round;}</style>
 </defs>
 <g id="figure_1">
  <g id="patch_1">
   <path d="M 0 345.6 
L 460.8 345.6 
L 460.8 0 
L 0 0 
z
" style="fill:#ffffff;"/>
  </g>
  <g id="axes_1">
   <g id="patch_2">
    <path d="M 57.6 298.944 
L 338.688 298.944 
L 338.688 27.648 
L 57.6 27.648 
z
" style="fill:#ffffff;"/>
   </g>
   <g id="line2d_1">
    <path d="M 95.918017 298.944 
L 95.918017 293.677139 
L 97.755429 293.677139 
L 97.755429 288.410278 
L 98.606294 288.410278 
L 98.606294 283.143418 
L 100.934985 283.143418 
L 100.934985 277.876557 
L 105.398279 277.876557 
L 105.398279 272.609696 
L 107.514726 272.609696 
L 107.514726 267.342835 
L 108.948899 267.342835 
L 108.948899 262.075974 
L 109.401893 262.075974 
L 109.401893 256.809114 
L 109.843417 256.809114 
L 109.843417 251.542253 
L 110.694282 251.542253 
L 110.694282 246.275392 
L 112.280765 246.275392 
L 112.280765 241.008531 
L 113.73488 241.008531 
L 113.73488 235.74167 
L 115.711251 235.74167 
L 115.711251 230.47481 
L 117.765302 230.47481 
L 117.765302 225.207949 
L 118.838828 225.207949 
L 118.838828 219.941088 
L 120.8059 219.941088 
L 120.8059 214.674227 
L 122.148045 214.674227 
L 122.148045 209.407366 
L 122.782271 209.407366 
L 122.782271 204.140506 
L 123.394238 204.140506 
L 123.394238 198.873645 
L 124.178158 198.873645 
L 124.178158 193.606784 
L 124.743806 193.606784 
L 124.743806 188.339923 
L 125.110962 188.339923 
L 125.110962 183.073062 
L 125.291682 183.073062 
L 125.291682 177.806202 
L 125.647598 177.806202 
L 125.647598 172.539341 
L 125.996395 172.539341 
L 125.996395 167.27248 
L 126.673734 167.27248 
L 126.673734 162.005619 
L 127.165014 162.005619 
L 127.165014 156.738758 
L 127.799239 156.738758 
L 127.799239 151.471897 
L 128.411207 151.471897 
L 128.411207 146.205037 
L 129.002426 146.205037 
L 129.002426 140.938176 
L 129.714332 140.938176 
L 129.714332 135.671315 
L 130.664567 135.671315 
L 130.664567 130.404454 
L 131.056477 130.404454 
L 131.056477 125.137593 
L 131.938072 125.137593 
L 131.938072 119.870733 
L 132.659801 119.870733 
L 132.659801 114.603872 
L 133.239232 114.603872 
L 133.239232 109.337011 
L 133.57787 109.337011 
L 133.57787 104.07015 
L 134.019394 104.07015 
L 134.019394 98.803289 
L 134.55603 98.803289 
L 134.55603 93.536429 
L 135.076644 93.536429 
L 135.076644 88.269568 
L 135.582166 88.269568 
L 135.582166 83.002707 
L 136.073445 83.002707 
L 136.073445 77.735846 
L 136.456742 77.735846 
L 136.456742 72.468985 
L 136.738785 72.468985 
L 136.738785 67.202125 
L 137.107884 67.202125 
L 137.107884 61.935264 
L 137.469333 61.935264 
L 137.469333 56.668403 
L 137.910857 56.668403 
L 137.910857 51.401542 
L 138.084384 51.401542 
L 138.084384 46.134681 
L 138.256201 46.134681 
L 138.256201 40.867821 
L 138.594838 40.867821 
L 138.594838 35.60096 
L 138.84457 35.60096 
L 138.84457 30.334099 
L 338.688 30.334099 
" style="fill:none;stroke:#f5deb3;stroke-linecap:square;stroke-width:4;"/>
   </g>
   <g id="line2d_2">
    <defs>
     <path d="M -0 7.778175 
L 7.778175 0 
L 0 -7.778175 
L -7.778175 -0 
z
" id="m0ce51767ae" style="stroke:#f5deb3;stroke-linejoin:miter;stroke-width:1.5;"/>
    </defs>
    <g>
     <use style="fill:#f5deb3;stroke:#f5deb3;stroke-linejoin:miter;stroke-width:1.5;" x="118.838828" xlink:href="#m0ce51767ae" y="219.941088"/>
     <use style="fill:#f5deb3;stroke:#f5deb3;stroke-linejoin:miter;stroke-width:1.5;" x="135.582166" xlink:href="#m0ce51767ae" y="83.002707"/>
     <use style="fill:#f5deb3;stroke:#f5deb3;stroke-linejoin:miter;stroke-width:1.5;" x="138.84457" xlink:href="#m0ce51767ae" y="35.60096"/>
     <use style="fill:#f5deb3;stroke:#f5deb3;stroke-linejoin:miter;stroke-width:1.5;" x="138.84457" xlink:href="#m0ce51767ae" y="30.334099"/>
     <use style="fill:#f5deb3;stroke:#f5deb3;stroke-linejoin:miter;stroke-width:1.5;" x="338.688" xlink:href="#m0ce51767ae" y="30.334099"/>
    </g>
   </g>
   <g id="line2d_3">
    <path style="fill:none;stroke:#f5deb3;stroke-linecap:square;stroke-width:4;"/>
    <g/>
   </g>
   <g id="line2d_4">
    <path d="M 338.688 30.334099 
L 369.60768 35.706297 
" style="fill:none;stroke:#f5deb3;stroke-linecap:square;stroke-width:4;"/>
    <g>
     <use style="fill:#f5deb3;stroke:#f5deb3;stroke-linejoin:miter;stroke-width:1.5;" x="338.688" xlink:href="#m0ce51767ae" y="30.334099"/>
     <use style="fill:#f5deb3;stroke:#f5deb3;stroke-linejoin:miter;stroke-width:1.5;" x="369.60768" xlink:href="#m0ce51767ae" y="35.706297"/>
    </g>
   </g>
   <g id="matplotlib.axis_1">
    <g id="xtick_1">
     <g id="line2d_5">
      <path clip-path="url(#pa57a0928a1)" d="M 57.6 298.944 
L 57.6 27.648 
" style="fill:none;stroke:#b0b0b0;stroke-linecap:square;stroke-width:0.8;"/>
     </g>
     <g id="line2d_6">
      <defs>
       <path d="M 0 0 
L 0 3.5 
" id="mf6f654e040" style="stroke:#000000;stroke-width:0.8;"/>
      </defs>
      <g>
       <use style="stroke:#000000;stroke-width:0.8;" x="57.6" xlink:href="#mf6f654e040" y="298.944"/>
      </g>
     </g>
     <g id="text_1">
      <!-- 0 -->
      <g transform="translate(51.2375 321.140875)scale(0.2 -0.2)">
       <defs>
        <path d="M 31.78125 66.40625 
Q 24.171875 66.40625 20.328125 58.90625 
Q 16.5 51.421875 16.5 36.375 
Q 16.5 21.390625 20.328125 13.890625 
Q 24.171875 6.390625 31.78125 6.390625 
Q 39.453125 6.390625 43.28125 13.890625 
Q 47.125 21.390625 47.125 36.375 
Q 47.125 51.421875 43.28125 58.90625 
Q 39.453125 66.40625 31.78125 66.40625 
z
M 31.78125 74.21875 
Q 44.046875 74.21875 50.515625 64.515625 
Q 56.984375 54.828125 56.984375 36.375 
Q 56.984375 17.96875 50.515625 8.265625 
Q 44.046875 -1.421875 31.78125 -1.421875 
Q 19.53125 -1.421875 13.0625 8.265625 
Q 6.59375 17.96875 6.59375 36.375 
Q 6.59375 54.828125 13.0625 64.515625 
Q 19.53125 74.21875 31.78125 74.21875 
z
" id="DejaVuSans-48"/>
       </defs>
       <use xlink:href="#DejaVuSans-48"/>
      </g>
     </g>
    </g>
    <g id="xtick_2">
     <g id="line2d_7">
      <path clip-path="url(#pa57a0928a1)" d="M 137.910857 298.944 
L 137.910857 27.648 
" style="fill:none;stroke:#b0b0b0;stroke-linecap:square;stroke-width:0.8;"/>
     </g>
     <g id="line2d_8">
      <g>
       <use style="stroke:#000000;stroke-width:0.8;" x="137.910857" xlink:href="#mf6f654e040" y="298.944"/>
      </g>
     </g>
     <g id="text_2">
      <!-- 2 -->
      <g transform="translate(131.548357 321.140875)scale(0.2 -0.2)">
       <defs>
        <path d="M 19.1875 8.296875 
L 53.609375 8.296875 
L 53.609375 0 
L 7.328125 0 
L 7.328125 8.296875 
Q 12.9375 14.109375 22.625 23.890625 
Q 32.328125 33.6875 34.8125 36.53125 
Q 39.546875 41.84375 41.421875 45.53125 
Q 43.3125 49.21875 43.3125 52.78125 
Q 43.3125 58.59375 39.234375 62.25 
Q 35.15625 65.921875 28.609375 65.921875 
Q 23.96875 65.921875 18.8125 64.3125 
Q 13.671875 62.703125 7.8125 59.421875 
L 7.8125 69.390625 
Q 13.765625 71.78125 18.9375 73 
Q 24.125 74.21875 28.421875 74.21875 
Q 39.75 74.21875 46.484375 68.546875 
Q 53.21875 62.890625 53.21875 53.421875 
Q 53.21875 48.921875 51.53125 44.890625 
Q 49.859375 40.875 45.40625 35.40625 
Q 44.1875 33.984375 37.640625 27.21875 
Q 31.109375 20.453125 19.1875 8.296875 
z
" id="DejaVuSans-50"/>
       </defs>
       <use xlink:href="#DejaVuSans-50"/>
      </g>
     </g>
    </g>
    <g id="xtick_3">
     <g id="line2d_9">
      <path clip-path="url(#pa57a0928a1)" d="M 218.221714 298.944 
L 218.221714 27.648 
" style="fill:none;stroke:#b0b0b0;stroke-linecap:square;stroke-width:0.8;"/>
     </g>
     <g id="line2d_10">
      <g>
       <use style="stroke:#000000;stroke-width:0.8;" x="218.221714" xlink:href="#mf6f654e040" y="298.944"/>
      </g>
     </g>
     <g id="text_3">
      <!-- 4 -->
      <g transform="translate(211.859214 321.140875)scale(0.2 -0.2)">
       <defs>
        <path d="M 37.796875 64.3125 
L 12.890625 25.390625 
L 37.796875 25.390625 
z
M 35.203125 72.90625 
L 47.609375 72.90625 
L 47.609375 25.390625 
L 58.015625 25.390625 
L 58.015625 17.1875 
L 47.609375 17.1875 
L 47.609375 0 
L 37.796875 0 
L 37.796875 17.1875 
L 4.890625 17.1875 
L 4.890625 26.703125 
z
" id="DejaVuSans-52"/>
       </defs>
       <use xlink:href="#DejaVuSans-52"/>
      </g>
     </g>
    </g>
    <g id="xtick_4">
     <g id="line2d_11">
      <path clip-path="url(#pa57a0928a1)" d="M 298.532571 298.944 
L 298.532571 27.648 
" style="fill:none;stroke:#b0b0b0;stroke-linecap:square;stroke-width:0.8;"/>
     </g>
     <g id="line2d_12">
      <g>
       <use style="stroke:#000000;stroke-width:0.8;" x="298.532571" xlink:href="#mf6f654e040" y="298.944"/>
      </g>
     </g>
     <g id="text_4">
      <!-- 6 -->
      <g transform="translate(292.170071 321.140875)scale(0.2 -0.2)">
       <defs>
        <path d="M 33.015625 40.375 
Q 26.375 40.375 22.484375 35.828125 
Q 18.609375 31.296875 18.609375 23.390625 
Q 18.609375 15.53125 22.484375 10.953125 
Q 26.375 6.390625 33.015625 6.390625 
Q 39.65625 6.390625 43.53125 10.953125 
Q 47.40625 15.53125 47.40625 23.390625 
Q 47.40625 31.296875 43.53125 35.828125 
Q 39.65625 40.375 33.015625 40.375 
z
M 52.59375 71.296875 
L 52.59375 62.3125 
Q 48.875 64.0625 45.09375 64.984375 
Q 41.3125 65.921875 37.59375 65.921875 
Q 27.828125 65.921875 22.671875 59.328125 
Q 17.53125 52.734375 16.796875 39.40625 
Q 19.671875 43.65625 24.015625 45.921875 
Q 28.375 48.1875 33.59375 48.1875 
Q 44.578125 48.1875 50.953125 41.515625 
Q 57.328125 34.859375 57.328125 23.390625 
Q 57.328125 12.15625 50.6875 5.359375 
Q 44.046875 -1.421875 33.015625 -1.421875 
Q 20.359375 -1.421875 13.671875 8.265625 
Q 6.984375 17.96875 6.984375 36.375 
Q 6.984375 53.65625 15.1875 63.9375 
Q 23.390625 74.21875 37.203125 74.21875 
Q 40.921875 74.21875 44.703125 73.484375 
Q 48.484375 72.75 52.59375 71.296875 
z
" id="DejaVuSans-54"/>
       </defs>
       <use xlink:href="#DejaVuSans-54"/>
      </g>
     </g>
    </g>
    <g id="xtick_5">
     <g id="line2d_13">
      <path clip-path="url(#pa57a0928a1)" d="M 97.755429 298.944 
L 97.755429 27.648 
" style="fill:none;stroke:#b0b0b0;stroke-linecap:square;stroke-width:0.8;"/>
     </g>
     <g id="line2d_14">
      <defs>
       <path d="M 0 0 
L 0 2 
" id="m6ba3af4048" style="stroke:#000000;stroke-width:0.6;"/>
      </defs>
      <g>
       <use style="stroke:#000000;stroke-width:0.6;" x="97.755429" xlink:href="#m6ba3af4048" y="298.944"/>
      </g>
     </g>
    </g>
    <g id="xtick_6">
     <g id="line2d_15">
      <path clip-path="url(#pa57a0928a1)" d="M 178.066286 298.944 
L 178.066286 27.648 
" style="fill:none;stroke:#b0b0b0;stroke-linecap:square;stroke-width:0.8;"/>
     </g>
     <g id="line2d_16">
      <g>
       <use style="stroke:#000000;stroke-width:0.6;" x="178.066286" xlink:href="#m6ba3af4048" y="298.944"/>
      </g>
     </g>
    </g>
    <g id="xtick_7">
     <g id="line2d_17">
      <path clip-path="url(#pa57a0928a1)" d="M 258.377143 298.944 
L 258.377143 27.648 
" style="fill:none;stroke:#b0b0b0;stroke-linecap:square;stroke-width:0.8;"/>
     </g>
     <g id="line2d_18">
      <g>
       <use style="stroke:#000000;stroke-width:0.6;" x="258.377143" xlink:href="#m6ba3af4048" y="298.944"/>
      </g>
     </g>
    </g>
    <g id="xtick_8">
     <g id="line2d_19">
      <path clip-path="url(#pa57a0928a1)" d="M 338.688 298.944 
L 338.688 27.648 
" style="fill:none;stroke:#b0b0b0;stroke-linecap:square;stroke-width:0.8;"/>
     </g>
     <g id="line2d_20">
      <g>
       <use style="stroke:#000000;stroke-width:0.6;" x="338.688" xlink:href="#m6ba3af4048" y="298.944"/>
      </g>
     </g>
    </g>
    <g id="text_5">
     <!-- log10(# f-evals / dimension) -->
     <g transform="translate(77.764078 342.217594)scale(0.17 -0.17)">
      <defs>
       <path d="M 9.421875 75.984375 
L 18.40625 75.984375 
L 18.40625 0 
L 9.421875 0 
z
" id="DejaVuSans-108"/>
       <path d="M 30.609375 48.390625 
Q 23.390625 48.390625 19.1875 42.75 
Q 14.984375 37.109375 14.984375 27.296875 
Q 14.984375 17.484375 19.15625 11.84375 
Q 23.34375 6.203125 30.609375 6.203125 
Q 37.796875 6.203125 41.984375 11.859375 
Q 46.1875 17.53125 46.1875 27.296875 
Q 46.1875 37.015625 41.984375 42.703125 
Q 37.796875 48.390625 30.609375 48.390625 
z
M 30.609375 56 
Q 42.328125 56 49.015625 48.375 
Q 55.71875 40.765625 55.71875 27.296875 
Q 55.71875 13.875 49.015625 6.21875 
Q 42.328125 -1.421875 30.609375 -1.421875 
Q 18.84375 -1.421875 12.171875 6.21875 
Q 5.515625 13.875 5.515625 27.296875 
Q 5.515625 40.765625 12.171875 48.375 
Q 18.84375 56 30.609375 56 
z
" id="DejaVuSans-111"/>
       <path d="M 45.40625 27.984375 
Q 45.40625 37.75 41.375 43.109375 
Q 37.359375 48.484375 30.078125 48.484375 
Q 22.859375 48.484375 18.828125 43.109375 
Q 14.796875 37.75 14.796875 27.984375 
Q 14.796875 18.265625 18.828125 12.890625 
Q 22.859375 7.515625 30.078125 7.515625 
Q 37.359375 7.515625 41.375 12.890625 
Q 45.40625 18.265625 45.40625 27.984375 
z
M 54.390625 6.78125 
Q 54.390625 -7.171875 48.1875 -13.984375 
Q 42 -20.796875 29.203125 -20.796875 
Q 24.46875 -20.796875 20.265625 -20.09375 
Q 16.0625 -19.390625 12.109375 -17.921875 
L 12.109375 -9.1875 
Q 16.0625 -11.328125 19.921875 -12.34375 
Q 23.78125 -13.375 27.78125 -13.375 
Q 36.625 -13.375 41.015625 -8.765625 
Q 45.40625 -4.15625 45.40625 5.171875 
L 45.40625 9.625 
Q 42.625 4.78125 38.28125 2.390625 
Q 33.9375 0 27.875 0 
Q 17.828125 0 11.671875 7.65625 
Q 5.515625 15.328125 5.515625 27.984375 
Q 5.515625 40.671875 11.671875 48.328125 
Q 17.828125 56 27.875 56 
Q 33.9375 56 38.28125 53.609375 
Q 42.625 51.21875 45.40625 46.390625 
L 45.40625 54.6875 
L 54.390625 54.6875 
z
" id="DejaVuSans-103"/>
       <path d="M 12.40625 8.296875 
L 28.515625 8.296875 
L 28.515625 63.921875 
L 10.984375 60.40625 
L 10.984375 69.390625 
L 28.421875 72.90625 
L 38.28125 72.90625 
L 38.28125 8.296875 
L 54.390625 8.296875 
L 54.390625 0 
L 12.40625 0 
z
" id="DejaVuSans-49"/>
       <path d="M 31 75.875 
Q 24.46875 64.65625 21.28125 53.65625 
Q 18.109375 42.671875 18.109375 31.390625 
Q 18.109375 20.125 21.3125 9.0625 
Q 24.515625 -2 31 -13.1875 
L 23.1875 -13.1875 
Q 15.875 -1.703125 12.234375 9.375 
Q 8.59375 20.453125 8.59375 31.390625 
Q 8.59375 42.28125 12.203125 53.3125 
Q 15.828125 64.359375 23.1875 75.875 
z
" id="DejaVuSans-40"/>
       <path d="M 51.125 44 
L 36.921875 44 
L 32.8125 27.6875 
L 47.125 27.6875 
z
M 43.796875 71.78125 
L 38.71875 51.515625 
L 52.984375 51.515625 
L 58.109375 71.78125 
L 65.921875 71.78125 
L 60.890625 51.515625 
L 76.125 51.515625 
L 76.125 44 
L 58.984375 44 
L 54.984375 27.6875 
L 70.515625 27.6875 
L 70.515625 20.21875 
L 53.078125 20.21875 
L 48 0 
L 40.1875 0 
L 45.21875 20.21875 
L 30.90625 20.21875 
L 25.875 0 
L 18.015625 0 
L 23.09375 20.21875 
L 7.71875 20.21875 
L 7.71875 27.6875 
L 24.90625 27.6875 
L 29 44 
L 13.28125 44 
L 13.28125 51.515625 
L 30.90625 51.515625 
L 35.890625 71.78125 
z
" id="DejaVuSans-35"/>
       <path id="DejaVuSans-32"/>
       <path d="M 37.109375 75.984375 
L 37.109375 68.5 
L 28.515625 68.5 
Q 23.6875 68.5 21.796875 66.546875 
Q 19.921875 64.59375 19.921875 59.515625 
L 19.921875 54.6875 
L 34.71875 54.6875 
L 34.71875 47.703125 
L 19.921875 47.703125 
L 19.921875 0 
L 10.890625 0 
L 10.890625 47.703125 
L 2.296875 47.703125 
L 2.296875 54.6875 
L 10.890625 54.6875 
L 10.890625 58.5 
Q 10.890625 67.625 15.140625 71.796875 
Q 19.390625 75.984375 28.609375 75.984375 
z
" id="DejaVuSans-102"/>
       <path d="M 4.890625 31.390625 
L 31.203125 31.390625 
L 31.203125 23.390625 
L 4.890625 23.390625 
z
" id="DejaVuSans-45"/>
       <path d="M 56.203125 29.59375 
L 56.203125 25.203125 
L 14.890625 25.203125 
Q 15.484375 15.921875 20.484375 11.0625 
Q 25.484375 6.203125 34.421875 6.203125 
Q 39.59375 6.203125 44.453125 7.46875 
Q 49.3125 8.734375 54.109375 11.28125 
L 54.109375 2.78125 
Q 49.265625 0.734375 44.1875 -0.34375 
Q 39.109375 -1.421875 33.890625 -1.421875 
Q 20.796875 -1.421875 13.15625 6.1875 
Q 5.515625 13.8125 5.515625 26.8125 
Q 5.515625 40.234375 12.765625 48.109375 
Q 20.015625 56 32.328125 56 
Q 43.359375 56 49.78125 48.890625 
Q 56.203125 41.796875 56.203125 29.59375 
z
M 47.21875 32.234375 
Q 47.125 39.59375 43.09375 43.984375 
Q 39.0625 48.390625 32.421875 48.390625 
Q 24.90625 48.390625 20.390625 44.140625 
Q 15.875 39.890625 15.1875 32.171875 
z
" id="DejaVuSans-101"/>
       <path d="M 2.984375 54.6875 
L 12.5 54.6875 
L 29.59375 8.796875 
L 46.6875 54.6875 
L 56.203125 54.6875 
L 35.6875 0 
L 23.484375 0 
z
" id="DejaVuSans-118"/>
       <path d="M 34.28125 27.484375 
Q 23.390625 27.484375 19.1875 25 
Q 14.984375 22.515625 14.984375 16.5 
Q 14.984375 11.71875 18.140625 8.90625 
Q 21.296875 6.109375 26.703125 6.109375 
Q 34.1875 6.109375 38.703125 11.40625 
Q 43.21875 16.703125 43.21875 25.484375 
L 43.21875 27.484375 
z
M 52.203125 31.203125 
L 52.203125 0 
L 43.21875 0 
L 43.21875 8.296875 
Q 40.140625 3.328125 35.546875 0.953125 
Q 30.953125 -1.421875 24.3125 -1.421875 
Q 15.921875 -1.421875 10.953125 3.296875 
Q 6 8.015625 6 15.921875 
Q 6 25.140625 12.171875 29.828125 
Q 18.359375 34.515625 30.609375 34.515625 
L 43.21875 34.515625 
L 43.21875 35.40625 
Q 43.21875 41.609375 39.140625 45 
Q 35.0625 48.390625 27.6875 48.390625 
Q 23 48.390625 18.546875 47.265625 
Q 14.109375 46.140625 10.015625 43.890625 
L 10.015625 52.203125 
Q 14.9375 54.109375 19.578125 55.046875 
Q 24.21875 56 28.609375 56 
Q 40.484375 56 46.34375 49.84375 
Q 52.203125 43.703125 52.203125 31.203125 
z
" id="DejaVuSans-97"/>
       <path d="M 44.28125 53.078125 
L 44.28125 44.578125 
Q 40.484375 46.53125 36.375 47.5 
Q 32.28125 48.484375 27.875 48.484375 
Q 21.1875 48.484375 17.84375 46.4375 
Q 14.5 44.390625 14.5 40.28125 
Q 14.5 37.15625 16.890625 35.375 
Q 19.28125 33.59375 26.515625 31.984375 
L 29.59375 31.296875 
Q 39.15625 29.25 43.1875 25.515625 
Q 47.21875 21.78125 47.21875 15.09375 
Q 47.21875 7.46875 41.1875 3.015625 
Q 35.15625 -1.421875 24.609375 -1.421875 
Q 20.21875 -1.421875 15.453125 -0.5625 
Q 10.6875 0.296875 5.421875 2 
L 5.421875 11.28125 
Q 10.40625 8.6875 15.234375 7.390625 
Q 20.0625 6.109375 24.8125 6.109375 
Q 31.15625 6.109375 34.5625 8.28125 
Q 37.984375 10.453125 37.984375 14.40625 
Q 37.984375 18.0625 35.515625 20.015625 
Q 33.0625 21.96875 24.703125 23.78125 
L 21.578125 24.515625 
Q 13.234375 26.265625 9.515625 29.90625 
Q 5.8125 33.546875 5.8125 39.890625 
Q 5.8125 47.609375 11.28125 51.796875 
Q 16.75 56 26.8125 56 
Q 31.78125 56 36.171875 55.265625 
Q 40.578125 54.546875 44.28125 53.078125 
z
" id="DejaVuSans-115"/>
       <path d="M 25.390625 72.90625 
L 33.6875 72.90625 
L 8.296875 -9.28125 
L 0 -9.28125 
z
" id="DejaVuSans-47"/>
       <path d="M 45.40625 46.390625 
L 45.40625 75.984375 
L 54.390625 75.984375 
L 54.390625 0 
L 45.40625 0 
L 45.40625 8.203125 
Q 42.578125 3.328125 38.25 0.953125 
Q 33.9375 -1.421875 27.875 -1.421875 
Q 17.96875 -1.421875 11.734375 6.484375 
Q 5.515625 14.40625 5.515625 27.296875 
Q 5.515625 40.1875 11.734375 48.09375 
Q 17.96875 56 27.875 56 
Q 33.9375 56 38.25 53.625 
Q 42.578125 51.265625 45.40625 46.390625 
z
M 14.796875 27.296875 
Q 14.796875 17.390625 18.875 11.75 
Q 22.953125 6.109375 30.078125 6.109375 
Q 37.203125 6.109375 41.296875 11.75 
Q 45.40625 17.390625 45.40625 27.296875 
Q 45.40625 37.203125 41.296875 42.84375 
Q 37.203125 48.484375 30.078125 48.484375 
Q 22.953125 48.484375 18.875 42.84375 
Q 14.796875 37.203125 14.796875 27.296875 
z
" id="DejaVuSans-100"/>
       <path d="M 9.421875 54.6875 
L 18.40625 54.6875 
L 18.40625 0 
L 9.421875 0 
z
M 9.421875 75.984375 
L 18.40625 75.984375 
L 18.40625 64.59375 
L 9.421875 64.59375 
z
" id="DejaVuSans-105"/>
       <path d="M 52 44.1875 
Q 55.375 50.25 60.0625 53.125 
Q 64.75 56 71.09375 56 
Q 79.640625 56 84.28125 50.015625 
Q 88.921875 44.046875 88.921875 33.015625 
L 88.921875 0 
L 79.890625 0 
L 79.890625 32.71875 
Q 79.890625 40.578125 77.09375 44.375 
Q 74.3125 48.1875 68.609375 48.1875 
Q 61.625 48.1875 57.5625 43.546875 
Q 53.515625 38.921875 53.515625 30.90625 
L 53.515625 0 
L 44.484375 0 
L 44.484375 32.71875 
Q 44.484375 40.625 41.703125 44.40625 
Q 38.921875 48.1875 33.109375 48.1875 
Q 26.21875 48.1875 22.15625 43.53125 
Q 18.109375 38.875 18.109375 30.90625 
L 18.109375 0 
L 9.078125 0 
L 9.078125 54.6875 
L 18.109375 54.6875 
L 18.109375 46.1875 
Q 21.1875 51.21875 25.484375 53.609375 
Q 29.78125 56 35.6875 56 
Q 41.65625 56 45.828125 52.96875 
Q 50 49.953125 52 44.1875 
z
" id="DejaVuSans-109"/>
       <path d="M 54.890625 33.015625 
L 54.890625 0 
L 45.90625 0 
L 45.90625 32.71875 
Q 45.90625 40.484375 42.875 44.328125 
Q 39.84375 48.1875 33.796875 48.1875 
Q 26.515625 48.1875 22.3125 43.546875 
Q 18.109375 38.921875 18.109375 30.90625 
L 18.109375 0 
L 9.078125 0 
L 9.078125 54.6875 
L 18.109375 54.6875 
L 18.109375 46.1875 
Q 21.34375 51.125 25.703125 53.5625 
Q 30.078125 56 35.796875 56 
Q 45.21875 56 50.046875 50.171875 
Q 54.890625 44.34375 54.890625 33.015625 
z
" id="DejaVuSans-110"/>
       <path d="M 8.015625 75.875 
L 15.828125 75.875 
Q 23.140625 64.359375 26.78125 53.3125 
Q 30.421875 42.28125 30.421875 31.390625 
Q 30.421875 20.453125 26.78125 9.375 
Q 23.140625 -1.703125 15.828125 -13.1875 
L 8.015625 -13.1875 
Q 14.5 -2 17.703125 9.0625 
Q 20.90625 20.125 20.90625 31.390625 
Q 20.90625 42.671875 17.703125 53.65625 
Q 14.5 64.65625 8.015625 75.875 
z
" id="DejaVuSans-41"/>
      </defs>
      <use xlink:href="#DejaVuSans-108"/>
      <use x="27.783203" xlink:href="#DejaVuSans-111"/>
      <use x="88.964844" xlink:href="#DejaVuSans-103"/>
      <use x="152.441406" xlink:href="#DejaVuSans-49"/>
      <use x="216.064453" xlink:href="#DejaVuSans-48"/>
      <use x="279.6875" xlink:href="#DejaVuSans-40"/>
      <use x="318.701172" xlink:href="#DejaVuSans-35"/>
      <use x="402.490234" xlink:href="#DejaVuSans-32"/>
      <use x="434.277344" xlink:href="#DejaVuSans-102"/>
      <use x="463.982422" xlink:href="#DejaVuSans-45"/>
      <use x="500.066406" xlink:href="#DejaVuSans-101"/>
      <use x="561.589844" xlink:href="#DejaVuSans-118"/>
      <use x="620.769531" xlink:href="#DejaVuSans-97"/>
      <use x="682.048828" xlink:href="#DejaVuSans-108"/>
      <use x="709.832031" xlink:href="#DejaVuSans-115"/>
      <use x="761.931641" xlink:href="#DejaVuSans-32"/>
      <use x="793.71875" xlink:href="#DejaVuSans-47"/>
      <use x="827.410156" xlink:href="#DejaVuSans-32"/>
      <use x="859.197266" xlink:href="#DejaVuSans-100"/>
      <use x="922.673828" xlink:href="#DejaVuSans-105"/>
      <use x="950.457031" xlink:href="#DejaVuSans-109"/>
      <use x="1047.869141" xlink:href="#DejaVuSans-101"/>
      <use x="1109.392578" xlink:href="#DejaVuSans-110"/>
      <use x="1172.771484" xlink:href="#DejaVuSans-115"/>
      <use x="1224.871094" xlink:href="#DejaVuSans-105"/>
      <use x="1252.654297" xlink:href="#DejaVuSans-111"/>
      <use x="1313.835938" xlink:href="#DejaVuSans-110"/>
      <use x="1377.214844" xlink:href="#DejaVuSans-41"/>
     </g>
    </g>
   </g>
   <g id="matplotlib.axis_2">
    <g id="ytick_1">
     <g id="line2d_21">
      <path clip-path="url(#pa57a0928a1)" d="M 57.6 298.944 
L 338.688 298.944 
" style="fill:none;stroke:#b0b0b0;stroke-linecap:square;stroke-width:0.8;"/>
     </g>
     <g id="line2d_22">
      <defs>
       <path d="M 0 0 
L -3.5 0 
" id="m55dc3b9607" style="stroke:#000000;stroke-width:0.8;"/>
      </defs>
      <g>
       <use style="stroke:#000000;stroke-width:0.8;" x="57.6" xlink:href="#m55dc3b9607" y="298.944"/>
      </g>
     </g>
     <g id="text_6">
      <!-- 0.0 -->
      <g transform="translate(25.155 305.02275)scale(0.16 -0.16)">
       <defs>
        <path d="M 10.6875 12.40625 
L 21 12.40625 
L 21 0 
L 10.6875 0 
z
" id="DejaVuSans-46"/>
       </defs>
       <use xlink:href="#DejaVuSans-48"/>
       <use x="63.623047" xlink:href="#DejaVuSans-46"/>
       <use x="95.410156" xlink:href="#DejaVuSans-48"/>
      </g>
     </g>
    </g>
    <g id="ytick_2">
     <g id="line2d_23">
      <path clip-path="url(#pa57a0928a1)" d="M 57.6 245.22202 
L 338.688 245.22202 
" style="fill:none;stroke:#b0b0b0;stroke-linecap:square;stroke-width:0.8;"/>
     </g>
     <g id="line2d_24">
      <g>
       <use style="stroke:#000000;stroke-width:0.8;" x="57.6" xlink:href="#m55dc3b9607" y="245.22202"/>
      </g>
     </g>
     <g id="text_7">
      <!-- 0.2 -->
      <g transform="translate(25.155 251.30077)scale(0.16 -0.16)">
       <use xlink:href="#DejaVuSans-48"/>
       <use x="63.623047" xlink:href="#DejaVuSans-46"/>
       <use x="95.410156" xlink:href="#DejaVuSans-50"/>
      </g>
     </g>
    </g>
    <g id="ytick_3">
     <g id="line2d_25">
      <path clip-path="url(#pa57a0928a1)" d="M 57.6 191.50004 
L 338.688 191.50004 
" style="fill:none;stroke:#b0b0b0;stroke-linecap:square;stroke-width:0.8;"/>
     </g>
     <g id="line2d_26">
      <g>
       <use style="stroke:#000000;stroke-width:0.8;" x="57.6" xlink:href="#m55dc3b9607" y="191.50004"/>
      </g>
     </g>
     <g id="text_8">
      <!-- 0.4 -->
      <g transform="translate(25.155 197.57879)scale(0.16 -0.16)">
       <use xlink:href="#DejaVuSans-48"/>
       <use x="63.623047" xlink:href="#DejaVuSans-46"/>
       <use x="95.410156" xlink:href="#DejaVuSans-52"/>
      </g>
     </g>
    </g>
    <g id="ytick_4">
     <g id="line2d_27">
      <path clip-path="url(#pa57a0928a1)" d="M 57.6 137.778059 
L 338.688 137.778059 
" style="fill:none;stroke:#b0b0b0;stroke-linecap:square;stroke-width:0.8;"/>
     </g>
     <g id="line2d_28">
      <g>
       <use style="stroke:#000000;stroke-width:0.8;" x="57.6" xlink:href="#m55dc3b9607" y="137.778059"/>
      </g>
     </g>
     <g id="text_9">
      <!-- 0.6 -->
      <g transform="translate(25.155 143.856809)scale(0.16 -0.16)">
       <use xlink:href="#DejaVuSans-48"/>
       <use x="63.623047" xlink:href="#DejaVuSans-46"/>
       <use x="95.410156" xlink:href="#DejaVuSans-54"/>
      </g>
     </g>
    </g>
    <g id="ytick_5">
     <g id="line2d_29">
      <path clip-path="url(#pa57a0928a1)" d="M 57.6 84.056079 
L 338.688 84.056079 
" style="fill:none;stroke:#b0b0b0;stroke-linecap:square;stroke-width:0.8;"/>
     </g>
     <g id="line2d_30">
      <g>
       <use style="stroke:#000000;stroke-width:0.8;" x="57.6" xlink:href="#m55dc3b9607" y="84.056079"/>
      </g>
     </g>
     <g id="text_10">
      <!-- 0.8 -->
      <g transform="translate(25.155 90.134829)scale(0.16 -0.16)">
       <defs>
        <path d="M 31.78125 34.625 
Q 24.75 34.625 20.71875 30.859375 
Q 16.703125 27.09375 16.703125 20.515625 
Q 16.703125 13.921875 20.71875 10.15625 
Q 24.75 6.390625 31.78125 6.390625 
Q 38.8125 6.390625 42.859375 10.171875 
Q 46.921875 13.96875 46.921875 20.515625 
Q 46.921875 27.09375 42.890625 30.859375 
Q 38.875 34.625 31.78125 34.625 
z
M 21.921875 38.8125 
Q 15.578125 40.375 12.03125 44.71875 
Q 8.5 49.078125 8.5 55.328125 
Q 8.5 64.0625 14.71875 69.140625 
Q 20.953125 74.21875 31.78125 74.21875 
Q 42.671875 74.21875 48.875 69.140625 
Q 55.078125 64.0625 55.078125 55.328125 
Q 55.078125 49.078125 51.53125 44.71875 
Q 48 40.375 41.703125 38.8125 
Q 48.828125 37.15625 52.796875 32.3125 
Q 56.78125 27.484375 56.78125 20.515625 
Q 56.78125 9.90625 50.3125 4.234375 
Q 43.84375 -1.421875 31.78125 -1.421875 
Q 19.734375 -1.421875 13.25 4.234375 
Q 6.78125 9.90625 6.78125 20.515625 
Q 6.78125 27.484375 10.78125 32.3125 
Q 14.796875 37.15625 21.921875 38.8125 
z
M 18.3125 54.390625 
Q 18.3125 48.734375 21.84375 45.5625 
Q 25.390625 42.390625 31.78125 42.390625 
Q 38.140625 42.390625 41.71875 45.5625 
Q 45.3125 48.734375 45.3125 54.390625 
Q 45.3125 60.0625 41.71875 63.234375 
Q 38.140625 66.40625 31.78125 66.40625 
Q 25.390625 66.40625 21.84375 63.234375 
Q 18.3125 60.0625 18.3125 54.390625 
z
" id="DejaVuSans-56"/>
       </defs>
       <use xlink:href="#DejaVuSans-48"/>
       <use x="63.623047" xlink:href="#DejaVuSans-46"/>
       <use x="95.410156" xlink:href="#DejaVuSans-56"/>
      </g>
     </g>
    </g>
    <g id="ytick_6">
     <g id="line2d_31">
      <path clip-path="url(#pa57a0928a1)" d="M 57.6 30.334099 
L 338.688 30.334099 
" style="fill:none;stroke:#b0b0b0;stroke-linecap:square;stroke-width:0.8;"/>
     </g>
     <g id="line2d_32">
      <g>
       <use style="stroke:#000000;stroke-width:0.8;" x="57.6" xlink:href="#m55dc3b9607" y="30.334099"/>
      </g>
     </g>
     <g id="text_11">
      <!-- 1.0 -->
      <g transform="translate(25.155 36.412849)scale(0.16 -0.16)">
       <use xlink:href="#DejaVuSans-49"/>
       <use x="63.623047" xlink:href="#DejaVuSans-46"/>
       <use x="95.410156" xlink:href="#DejaVuSans-48"/>
      </g>
     </g>
    </g>
    <g id="text_12">
     <!-- Fraction of function,target pairs -->
     <g transform="translate(17.619531 297.681)rotate(-90)scale(0.17 -0.17)">
      <defs>
       <path d="M 9.8125 72.90625 
L 51.703125 72.90625 
L 51.703125 64.59375 
L 19.671875 64.59375 
L 19.671875 43.109375 
L 48.578125 43.109375 
L 48.578125 34.8125 
L 19.671875 34.8125 
L 19.671875 0 
L 9.8125 0 
z
" id="DejaVuSans-70"/>
       <path d="M 41.109375 46.296875 
Q 39.59375 47.171875 37.8125 47.578125 
Q 36.03125 48 33.890625 48 
Q 26.265625 48 22.1875 43.046875 
Q 18.109375 38.09375 18.109375 28.8125 
L 18.109375 0 
L 9.078125 0 
L 9.078125 54.6875 
L 18.109375 54.6875 
L 18.109375 46.1875 
Q 20.953125 51.171875 25.484375 53.578125 
Q 30.03125 56 36.53125 56 
Q 37.453125 56 38.578125 55.875 
Q 39.703125 55.765625 41.0625 55.515625 
z
" id="DejaVuSans-114"/>
       <path d="M 48.78125 52.59375 
L 48.78125 44.1875 
Q 44.96875 46.296875 41.140625 47.34375 
Q 37.3125 48.390625 33.40625 48.390625 
Q 24.65625 48.390625 19.8125 42.84375 
Q 14.984375 37.3125 14.984375 27.296875 
Q 14.984375 17.28125 19.8125 11.734375 
Q 24.65625 6.203125 33.40625 6.203125 
Q 37.3125 6.203125 41.140625 7.25 
Q 44.96875 8.296875 48.78125 10.40625 
L 48.78125 2.09375 
Q 45.015625 0.34375 40.984375 -0.53125 
Q 36.96875 -1.421875 32.421875 -1.421875 
Q 20.0625 -1.421875 12.78125 6.34375 
Q 5.515625 14.109375 5.515625 27.296875 
Q 5.515625 40.671875 12.859375 48.328125 
Q 20.21875 56 33.015625 56 
Q 37.15625 56 41.109375 55.140625 
Q 45.0625 54.296875 48.78125 52.59375 
z
" id="DejaVuSans-99"/>
       <path d="M 18.3125 70.21875 
L 18.3125 54.6875 
L 36.8125 54.6875 
L 36.8125 47.703125 
L 18.3125 47.703125 
L 18.3125 18.015625 
Q 18.3125 11.328125 20.140625 9.421875 
Q 21.96875 7.515625 27.59375 7.515625 
L 36.8125 7.515625 
L 36.8125 0 
L 27.59375 0 
Q 17.1875 0 13.234375 3.875 
Q 9.28125 7.765625 9.28125 18.015625 
L 9.28125 47.703125 
L 2.6875 47.703125 
L 2.6875 54.6875 
L 9.28125 54.6875 
L 9.28125 70.21875 
z
" id="DejaVuSans-116"/>
       <path d="M 8.5 21.578125 
L 8.5 54.6875 
L 17.484375 54.6875 
L 17.484375 21.921875 
Q 17.484375 14.15625 20.5 10.265625 
Q 23.53125 6.390625 29.59375 6.390625 
Q 36.859375 6.390625 41.078125 11.03125 
Q 45.3125 15.671875 45.3125 23.6875 
L 45.3125 54.6875 
L 54.296875 54.6875 
L 54.296875 0 
L 45.3125 0 
L 45.3125 8.40625 
Q 42.046875 3.421875 37.71875 1 
Q 33.40625 -1.421875 27.6875 -1.421875 
Q 18.265625 -1.421875 13.375 4.4375 
Q 8.5 10.296875 8.5 21.578125 
z
M 31.109375 56 
z
" id="DejaVuSans-117"/>
       <path d="M 11.71875 12.40625 
L 22.015625 12.40625 
L 22.015625 4 
L 14.015625 -11.625 
L 7.71875 -11.625 
L 11.71875 4 
z
" id="DejaVuSans-44"/>
       <path d="M 18.109375 8.203125 
L 18.109375 -20.796875 
L 9.078125 -20.796875 
L 9.078125 54.6875 
L 18.109375 54.6875 
L 18.109375 46.390625 
Q 20.953125 51.265625 25.265625 53.625 
Q 29.59375 56 35.59375 56 
Q 45.5625 56 51.78125 48.09375 
Q 58.015625 40.1875 58.015625 27.296875 
Q 58.015625 14.40625 51.78125 6.484375 
Q 45.5625 -1.421875 35.59375 -1.421875 
Q 29.59375 -1.421875 25.265625 0.953125 
Q 20.953125 3.328125 18.109375 8.203125 
z
M 48.6875 27.296875 
Q 48.6875 37.203125 44.609375 42.84375 
Q 40.53125 48.484375 33.40625 48.484375 
Q 26.265625 48.484375 22.1875 42.84375 
Q 18.109375 37.203125 18.109375 27.296875 
Q 18.109375 17.390625 22.1875 11.75 
Q 26.265625 6.109375 33.40625 6.109375 
Q 40.53125 6.109375 44.609375 11.75 
Q 48.6875 17.390625 48.6875 27.296875 
z
" id="DejaVuSans-112"/>
      </defs>
      <use xlink:href="#DejaVuSans-70"/>
      <use x="50.269531" xlink:href="#DejaVuSans-114"/>
      <use x="91.382812" xlink:href="#DejaVuSans-97"/>
      <use x="152.662109" xlink:href="#DejaVuSans-99"/>
      <use x="207.642578" xlink:href="#DejaVuSans-116"/>
      <use x="246.851562" xlink:href="#DejaVuSans-105"/>
      <use x="274.634766" xlink:href="#DejaVuSans-111"/>
      <use x="335.816406" xlink:href="#DejaVuSans-110"/>
      <use x="399.195312" xlink:href="#DejaVuSans-32"/>
      <use x="430.982422" xlink:href="#DejaVuSans-111"/>
      <use x="492.164062" xlink:href="#DejaVuSans-102"/>
      <use x="527.369141" xlink:href="#DejaVuSans-32"/>
      <use x="559.15625" xlink:href="#DejaVuSans-102"/>
      <use x="594.361328" xlink:href="#DejaVuSans-117"/>
      <use x="657.740234" xlink:href="#DejaVuSans-110"/>
      <use x="721.119141" xlink:href="#DejaVuSans-99"/>
      <use x="776.099609" xlink:href="#DejaVuSans-116"/>
      <use x="815.308594" xlink:href="#DejaVuSans-105"/>
      <use x="843.091797" xlink:href="#DejaVuSans-111"/>
      <use x="904.273438" xlink:href="#DejaVuSans-110"/>
      <use x="967.652344" xlink:href="#DejaVuSans-44"/>
      <use x="999.439453" xlink:href="#DejaVuSans-116"/>
      <use x="1038.648438" xlink:href="#DejaVuSans-97"/>
      <use x="1099.927734" xlink:href="#DejaVuSans-114"/>
      <use x="1139.291016" xlink:href="#DejaVuSans-103"/>
      <use x="1202.767578" xlink:href="#DejaVuSans-101"/>
      <use x="1264.291016" xlink:href="#DejaVuSans-116"/>
      <use x="1303.5" xlink:href="#DejaVuSans-32"/>
      <use x="1335.287109" xlink:href="#DejaVuSans-112"/>
      <use x="1398.763672" xlink:href="#DejaVuSans-97"/>
      <use x="1460.042969" xlink:href="#DejaVuSans-105"/>
      <use x="1487.826172" xlink:href="#DejaVuSans-114"/>
      <use x="1528.939453" xlink:href="#DejaVuSans-115"/>
     </g>
    </g>
   </g>
   <g id="line2d_33">
    <defs>
     <path d="M 0 1.5 
C 0.397805 1.5 0.77937 1.341951 1.06066 1.06066 
C 1.341951 0.77937 1.5 0.397805 1.5 0 
C 1.5 -0.397805 1.341951 -0.77937 1.06066 -1.06066 
C 0.77937 -1.341951 0.397805 -1.5 0 -1.5 
C -0.397805 -1.5 -0.77937 -1.341951 -1.06066 -1.06066 
C -1.341951 -0.77937 -1.5 -0.397805 -1.5 0 
C -1.5 0.397805 -1.341951 0.77937 -1.06066 1.06066 
C -0.77937 1.341951 -0.397805 1.5 0 1.5 
z
" id="m91d7b2c008" style="stroke:#f5deb3;"/>
    </defs>
    <g>
     <use style="fill:#f5deb3;stroke:#f5deb3;" x="138.84457" xlink:href="#m91d7b2c008" y="30.334099"/>
     <use style="fill:#f5deb3;stroke:#f5deb3;" x="138.84457" xlink:href="#m91d7b2c008" y="30.334099"/>
    </g>
   </g>
   <g id="line2d_34">
    <defs>
     <path d="M 0 1.5 
C 0.397805 1.5 0.77937 1.341951 1.06066 1.06066 
C 1.341951 0.77937 1.5 0.397805 1.5 0 
C 1.5 -0.397805 1.341951 -0.77937 1.06066 -1.06066 
C 0.77937 -1.341951 0.397805 -1.5 0 -1.5 
C -0.397805 -1.5 -0.77937 -1.341951 -1.06066 -1.06066 
C -1.341951 -0.77937 -1.5 -0.397805 -1.5 0 
C -1.5 0.397805 -1.341951 0.77937 -1.06066 1.06066 
C -0.77937 1.341951 -0.397805 1.5 0 1.5 
z
" id="mbcd58bf0e1" style="stroke:#000080;"/>
    </defs>
    <g>
     <use style="fill:#000080;stroke:#000080;" x="191.729" xlink:href="#mbcd58bf0e1" y="30.334099"/>
     <use style="fill:#000080;stroke:#000080;" x="191.729" xlink:href="#mbcd58bf0e1" y="30.334099"/>
    </g>
   </g>
   <g id="line2d_35">
    <path d="M 64.67102 298.944 
L 64.67102 297.890628 
L 108.006005 297.890628 
L 108.006005 297.363942 
L 111.505558 297.363942 
L 111.505558 293.677139 
L 117.202696 293.677139 
L 117.202696 293.150453 
L 118.576578 293.150453 
L 118.576578 291.570395 
L 122.362027 291.570395 
L 122.362027 289.463651 
L 122.573415 289.463651 
L 122.573415 288.936964 
L 122.782271 288.936964 
L 122.782271 285.776848 
L 122.988655 285.776848 
L 122.988655 284.723476 
L 123.593547 284.723476 
L 123.593547 283.670104 
L 126.50685 283.670104 
L 126.50685 283.143418 
L 126.673734 283.143418 
L 126.673734 278.929929 
L 126.839037 278.929929 
L 126.839037 276.823185 
L 127.002787 276.823185 
L 127.002787 276.296499 
L 128.260216 276.296499 
L 128.260216 272.08301 
L 129.147151 272.08301 
L 129.147151 271.556324 
L 129.714332 271.556324 
L 129.714332 271.029638 
L 130.263646 271.029638 
L 130.263646 268.396207 
L 130.926816 268.396207 
L 130.926816 266.816149 
L 131.185181 266.816149 
L 131.185181 266.289463 
L 131.814826 266.289463 
L 131.814826 265.762777 
L 132.181982 265.762777 
L 132.181982 265.236091 
L 133.239232 265.236091 
L 133.239232 264.709405 
L 133.46572 264.709405 
L 133.46572 263.656033 
L 134.12805 263.656033 
L 134.12805 263.129347 
L 134.450015 263.129347 
L 134.450015 262.60266 
L 138.084384 262.60266 
L 138.084384 262.075974 
L 139.009092 262.075974 
L 139.009092 261.549288 
L 143.273169 261.549288 
L 143.273169 261.022602 
L 143.778691 261.022602 
L 143.778691 260.495916 
L 146.107383 260.495916 
L 146.161795 258.389172 
L 146.591092 258.389172 
L 146.591092 257.862486 
L 147.266916 257.862486 
L 147.266916 256.809114 
L 147.769524 256.809114 
L 147.818997 255.229055 
L 147.96658 255.229055 
L 147.96658 254.702369 
L 148.209809 254.702369 
L 148.209809 254.175683 
L 148.354135 254.175683 
L 148.354135 253.648997 
L 148.686322 253.648997 
L 148.686322 251.542253 
L 148.826773 251.542253 
L 148.826773 251.015567 
L 149.104327 251.015567 
L 149.104327 248.382136 
L 149.332295 248.382136 
L 149.377533 246.802078 
L 149.646525 246.802078 
L 149.646525 246.275392 
L 149.955193 246.275392 
L 149.998846 242.588589 
L 150.172372 242.588589 
L 150.215485 241.535217 
L 150.301393 241.535217 
L 150.301393 241.008531 
L 150.556607 241.008531 
L 150.556607 239.955159 
L 150.808139 239.955159 
L 150.808139 239.428473 
L 151.13797 239.428473 
L 151.13797 238.901787 
L 151.700576 238.901787 
L 151.700576 237.321729 
L 151.936246 237.321729 
L 151.975216 235.74167 
L 152.091608 235.74167 
L 152.168773 233.10824 
L 152.245598 233.10824 
L 152.322086 228.894751 
L 152.360205 228.894751 
L 152.398241 226.788007 
L 152.474064 226.788007 
L 152.474064 225.207949 
L 152.662192 225.207949 
L 152.736878 220.467774 
L 152.774102 220.467774 
L 152.848312 217.834344 
L 152.995791 217.834344 
L 153.032466 214.674227 
L 153.395042 214.674227 
L 153.430889 209.934052 
L 153.820412 209.934052 
L 153.855395 207.300622 
L 154.132765 207.300622 
L 154.235652 201.507075 
L 154.303908 201.507075 
L 154.405793 198.346959 
L 154.507086 198.346959 
L 154.607795 196.7669 
L 154.674612 196.7669 
L 154.77436 194.13347 
L 154.906477 194.13347 
L 154.93935 190.446667 
L 155.296925 190.446667 
L 155.329071 187.813237 
L 155.457066 187.813237 
L 155.488919 186.759865 
L 155.773004 186.759865 
L 155.86668 178.332888 
L 155.897793 178.332888 
L 155.897793 177.279515 
L 156.083319 177.279515 
L 156.083319 176.752829 
L 156.266892 176.752829 
L 156.327657 169.90591 
L 156.418408 169.90591 
L 156.418408 168.325852 
L 156.598505 168.325852 
L 156.598505 167.27248 
L 156.717545 167.27248 
L 156.806295 162.005619 
L 156.923929 162.005619 
L 156.953214 159.898875 
L 157.069866 159.898875 
L 157.1279 158.318817 
L 157.185742 158.318817 
L 157.243392 156.738758 
L 157.300853 156.738758 
L 157.329512 151.471897 
L 157.415209 151.471897 
L 157.415209 148.838467 
L 157.58535 148.838467 
L 157.669802 144.098292 
L 157.697862 144.098292 
L 157.753847 135.671315 
L 157.976006 135.671315 
L 158.058592 131.457826 
L 158.195371 131.457826 
L 158.249784 128.824396 
L 158.412011 128.824396 
L 158.51933 125.66428 
L 158.599388 125.66428 
L 158.705563 124.084221 
L 158.915995 124.084221 
L 158.968208 120.924105 
L 159.201253 120.924105 
L 159.303838 118.817361 
L 159.431225 118.817361 
L 159.431225 118.290674 
L 159.582872 118.290674 
L 159.582872 117.763988 
L 159.783038 117.763988 
L 159.783038 117.237302 
L 159.980933 117.237302 
L 159.980933 116.710616 
L 160.103486 116.710616 
L 160.200913 112.497128 
L 160.225184 112.497128 
L 160.297798 109.863697 
L 160.394148 109.863697 
L 160.489968 108.283639 
L 160.585265 108.283639 
L 160.656397 105.123522 
L 160.727241 105.123522 
L 160.727241 100.910034 
L 161.100288 100.910034 
L 161.12334 99.856662 
L 161.283861 99.856662 
L 161.306672 96.169859 
L 161.465522 96.169859 
L 161.53316 93.536429 
L 161.578106 93.536429 
L 161.64531 87.216196 
L 161.712255 87.216196 
L 161.778945 85.636137 
L 162.043181 85.636137 
L 162.043181 84.056079 
L 162.496175 84.056079 
L 162.496175 83.002707 
L 163.408783 83.002707 
L 163.408783 82.476021 
L 163.748975 82.476021 
L 163.748975 81.422649 
L 164.024234 81.422649 
L 164.024234 80.895963 
L 166.476842 80.895963 
L 166.476842 80.369277 
L 166.679039 80.369277 
L 166.679039 79.842591 
L 167.719528 79.842591 
L 167.719528 79.315904 
L 169.172381 79.315904 
L 169.172381 78.789218 
L 169.645097 78.789218 
L 169.645097 78.262532 
L 170.036379 78.262532 
L 170.036379 77.735846 
L 170.160306 77.735846 
L 170.201421 76.682474 
L 171.003983 76.682474 
L 171.003983 76.155788 
L 171.569909 76.155788 
L 171.569909 75.629102 
L 171.871027 75.629102 
L 171.871027 75.102416 
L 172.142557 75.102416 
L 172.142557 74.57573 
L 172.276753 74.57573 
L 172.276753 74.049044 
L 172.530112 74.049044 
L 172.530112 73.522358 
L 173.084161 73.522358 
L 173.084161 72.995672 
L 173.417442 72.995672 
L 173.417442 71.942299 
L 173.733298 71.942299 
L 173.733298 71.415613 
L 174.021557 71.415613 
L 174.021557 70.888927 
L 174.207491 70.888927 
L 174.283479 69.835555 
L 175.405599 69.835555 
L 175.436043 68.782183 
L 175.77741 68.782183 
L 175.78735 67.728811 
L 176.063387 67.728811 
L 176.170646 66.675439 
L 176.800705 66.675439 
L 176.800705 66.148752 
L 177.116609 66.148752 
L 177.116609 65.622066 
L 177.579988 65.622066 
L 177.579988 65.09538 
L 177.873391 65.09538 
L 177.873391 64.568694 
L 177.996389 64.568694 
L 178.092425 63.515322 
L 178.325932 63.515322 
L 178.377401 62.46195 
L 178.56483 62.46195 
L 178.56483 61.935264 
L 178.850589 61.935264 
L 178.850589 61.408578 
L 178.98346 61.408578 
L 179.049518 60.355206 
L 179.254351 60.355206 
L 179.27877 59.301833 
L 179.448753 59.301833 
L 179.537135 58.248461 
L 179.601132 58.248461 
L 179.601132 57.721775 
L 179.862667 57.721775 
L 179.862667 57.195089 
L 180.042657 57.195089 
L 180.042657 56.668403 
L 180.601926 56.668403 
L 180.692168 55.615031 
L 180.789406 55.615031 
L 180.789406 55.088345 
L 181.426562 55.088345 
L 181.426562 54.561659 
L 182.089786 54.561659 
L 182.089786 54.034973 
L 182.344078 54.034973 
L 182.344078 53.508287 
L 182.8418 53.508287 
L 182.8418 52.9816 
L 183.325711 52.9816 
L 183.396511 51.928228 
L 183.92789 51.928228 
L 183.92789 51.401542 
L 184.150759 51.401542 
L 184.169204 50.34817 
L 184.719614 50.34817 
L 184.719614 49.821484 
L 184.879635 49.821484 
L 184.879635 49.294798 
L 185.073244 49.294798 
L 185.073244 48.768112 
L 185.212713 48.768112 
L 185.212713 48.241426 
L 185.391224 48.241426 
L 185.391224 47.71474 
L 186.05448 47.71474 
L 186.05448 47.188054 
L 186.224621 47.188054 
L 186.251908 46.134681 
L 186.677475 46.134681 
L 186.677475 45.607995 
L 186.815293 45.607995 
L 186.815293 45.081309 
L 186.972973 45.081309 
L 187.046072 43.501251 
L 187.366163 43.501251 
L 187.366163 42.974565 
L 187.615046 42.974565 
L 187.615046 41.921193 
L 187.810628 41.921193 
L 187.810628 41.394507 
L 188.44236 41.394507 
L 188.44236 40.867821 
L 188.600356 40.867821 
L 188.600356 40.341135 
L 190.673991 40.341135 
L 190.673991 39.814448 
L 191.20742 39.814448 
L 191.281142 37.181018 
L 191.321964 37.181018 
L 191.383019 34.020902 
L 191.443861 34.020902 
L 191.443861 32.967529 
L 191.605076 32.967529 
L 191.605076 31.914157 
L 191.729 31.914157 
L 191.729 30.334099 
L 338.688 30.334099 
L 338.688 30.334099 
" style="fill:none;stroke:#000080;stroke-linecap:square;stroke-width:1.5;"/>
   </g>
   <g id="line2d_36">
    <defs>
     <path d="M 0 6 
C 1.591219 6 3.117479 5.367802 4.242641 4.242641 
C 5.367802 3.117479 6 1.591219 6 0 
C 6 -1.591219 5.367802 -3.117479 4.242641 -4.242641 
C 3.117479 -5.367802 1.591219 -6 0 -6 
C -1.591219 -6 -3.117479 -5.367802 -4.242641 -4.242641 
C -5.367802 -3.117479 -6 -1.591219 -6 0 
C -6 1.591219 -5.367802 3.117479 -4.242641 4.242641 
C -3.117479 5.367802 -1.591219 6 0 6 
z
" id="mf652ea5e51" style="stroke:#000080;stroke-width:1.5;"/>
    </defs>
    <g>
     <use style="fill-opacity:0;stroke:#000080;stroke-width:1.5;" x="155.488919" xlink:href="#mf652ea5e51" y="186.759865"/>
     <use style="fill-opacity:0;stroke:#000080;stroke-width:1.5;" x="191.729" xlink:href="#mf652ea5e51" y="31.914157"/>
     <use style="fill-opacity:0;stroke:#000080;stroke-width:1.5;" x="191.729" xlink:href="#mf652ea5e51" y="30.334099"/>
     <use style="fill-opacity:0;stroke:#000080;stroke-width:1.5;" x="191.729" xlink:href="#mf652ea5e51" y="30.334099"/>
     <use style="fill-opacity:0;stroke:#000080;stroke-width:1.5;" x="338.688" xlink:href="#mf652ea5e51" y="30.334099"/>
    </g>
   </g>
   <g id="line2d_37">
    <path style="fill:none;stroke:#000080;stroke-linecap:square;stroke-width:1.5;"/>
    <g/>
   </g>
   <g id="line2d_38">
    <defs>
     <path d="M 0 1.5 
C 0.397805 1.5 0.77937 1.341951 1.06066 1.06066 
C 1.341951 0.77937 1.5 0.397805 1.5 0 
C 1.5 -0.397805 1.341951 -0.77937 1.06066 -1.06066 
C 0.77937 -1.341951 0.397805 -1.5 0 -1.5 
C -0.397805 -1.5 -0.77937 -1.341951 -1.06066 -1.06066 
C -1.341951 -0.77937 -1.5 -0.397805 -1.5 0 
C -1.5 0.397805 -1.341951 0.77937 -1.06066 1.06066 
C -0.77937 1.341951 -0.397805 1.5 0 1.5 
z
" id="m1a46772985" style="stroke:#ff00ff;"/>
    </defs>
    <g>
     <use style="fill:#ff00ff;stroke:#ff00ff;" x="271.07669" xlink:href="#m1a46772985" y="30.334099"/>
     <use style="fill:#ff00ff;stroke:#ff00ff;" x="271.07669" xlink:href="#m1a46772985" y="30.334099"/>
    </g>
   </g>
   <g id="line2d_39">
    <path d="M 81.775977 298.944 
L 81.775977 298.417314 
L 130.926816 298.417314 
L 130.926816 295.783884 
L 131.565689 295.783884 
L 131.565689 292.097081 
L 139.493548 292.097081 
L 139.493548 290.517023 
L 139.730821 290.517023 
L 139.8092 284.723476 
L 141.378673 284.723476 
L 141.378673 284.19679 
L 144.269971 284.19679 
L 144.269971 283.670104 
L 145.384119 283.670104 
L 145.384119 283.143418 
L 146.538004 283.143418 
L 146.538004 279.456615 
L 149.332295 279.456615 
L 149.332295 278.929929 
L 149.823575 278.929929 
L 149.823575 277.876557 
L 150.932558 277.876557 
L 150.932558 276.296499 
L 151.621307 276.296499 
L 151.621307 272.609696 
L 152.398241 272.609696 
L 152.398241 272.08301 
L 152.511852 272.08301 
L 152.511852 270.502952 
L 156.021696 270.502952 
L 156.021696 269.976266 
L 158.113432 269.976266 
L 158.113432 269.449579 
L 158.994256 269.449579 
L 158.994256 268.922893 
L 159.507213 268.922893 
L 159.507213 268.396207 
L 160.774311 268.396207 
L 160.774311 267.869521 
L 162.644595 267.869521 
L 162.644595 267.342835 
L 163.489428 267.342835 
L 163.489428 264.709405 
L 164.102088 264.709405 
L 164.102088 263.129347 
L 165.447111 263.129347 
L 165.447111 262.60266 
L 165.978297 262.60266 
L 165.978297 261.022602 
L 166.459886 261.022602 
L 166.459886 260.495916 
L 166.578233 260.495916 
L 166.578233 259.96923 
L 168.430803 259.96923 
L 168.430803 259.442544 
L 168.641643 259.442544 
L 168.641643 258.389172 
L 169.172381 258.389172 
L 169.172381 257.3358 
L 170.160306 257.3358 
L 170.160306 256.809114 
L 171.442893 256.809114 
L 171.442893 256.282427 
L 172.325296 256.282427 
L 172.325296 255.755741 
L 173.933369 255.755741 
L 173.933369 255.229055 
L 174.498781 255.229055 
L 174.498781 254.702369 
L 174.858804 254.702369 
L 174.952873 252.068939 
L 175.697687 252.068939 
L 175.717652 250.488881 
L 176.922168 250.488881 
L 176.987223 249.435508 
L 177.263313 249.435508 
L 177.327109 246.275392 
L 178.005141 246.275392 
L 178.005141 244.695334 
L 178.750267 244.695334 
L 178.750267 242.588589 
L 179.9098 242.588589 
L 179.948981 240.481845 
L 180.097069 240.481845 
L 180.097069 239.955159 
L 181.011755 239.955159 
L 181.011755 239.428473 
L 181.985629 239.428473 
L 181.985629 238.901787 
L 183.046156 238.901787 
L 183.046156 238.375101 
L 183.383659 238.375101 
L 183.383659 237.848415 
L 183.796556 237.848415 
L 183.796556 237.321729 
L 184.248905 237.321729 
L 184.279463 235.74167 
L 184.503941 235.74167 
L 184.503941 235.214984 
L 185.108216 235.214984 
L 185.119858 229.948123 
L 185.692252 229.948123 
L 185.692252 229.421437 
L 186.142502 229.421437 
L 186.142502 228.894751 
L 187.427443 228.894751 
L 187.427443 228.368065 
L 187.710604 228.368065 
L 187.710604 227.841379 
L 187.964542 227.841379 
L 187.964542 226.788007 
L 188.082775 226.788007 
L 188.082775 226.261321 
L 189.116905 226.261321 
L 189.158498 225.207949 
L 189.974599 225.207949 
L 189.974599 223.627891 
L 190.262931 223.627891 
L 190.262931 222.574518 
L 190.703588 222.574518 
L 190.703588 222.047832 
L 191.121016 222.047832 
L 191.121016 219.941088 
L 191.313807 219.941088 
L 191.313807 218.887716 
L 191.46005 218.887716 
L 191.528685 215.727599 
L 192.146209 215.727599 
L 192.146209 215.200913 
L 192.768902 215.200913 
L 192.768902 214.674227 
L 193.679175 214.674227 
L 193.750268 213.620855 
L 193.796324 213.620855 
L 193.796324 213.094169 
L 193.972338 213.094169 
L 194.073618 209.407366 
L 194.418415 209.407366 
L 194.438888 207.827308 
L 194.659148 207.827308 
L 194.702868 206.24725 
L 194.82337 206.24725 
L 194.82337 205.193878 
L 194.97945 205.193878 
L 194.97945 204.140506 
L 195.183228 204.140506 
L 195.235432 202.033761 
L 195.637981 202.033761 
L 195.637981 201.507075 
L 195.79328 201.507075 
L 195.79328 200.980389 
L 196.167863 200.980389 
L 196.263336 198.346959 
L 196.407097 198.346959 
L 196.407097 197.293586 
L 196.709083 197.293586 
L 196.721055 194.660156 
L 197.346944 194.660156 
L 197.346944 193.606784 
L 197.78024 193.606784 
L 197.875706 192.026726 
L 197.920451 192.026726 
L 197.959508 187.813237 
L 198.380748 187.813237 
L 198.45133 186.233179 
L 198.650669 186.233179 
L 198.650669 185.179807 
L 198.850403 185.179807 
L 198.850403 184.653121 
L 199.134061 184.653121 
L 199.175694 183.599748 
L 199.898617 183.599748 
L 199.898617 182.546376 
L 200.726432 182.546376 
L 200.726432 181.493004 
L 200.971993 181.493004 
L 201.049195 180.439632 
L 201.867684 180.439632 
L 201.867684 178.859574 
L 201.980905 178.859574 
L 201.980905 177.806202 
L 202.176742 177.806202 
L 202.176742 176.226143 
L 202.348752 176.226143 
L 202.348752 175.699457 
L 202.608965 175.699457 
L 202.608965 175.172771 
L 203.11595 175.172771 
L 203.11595 174.646085 
L 204.336958 174.646085 
L 204.336958 172.539341 
L 204.742053 172.539341 
L 204.742053 171.485969 
L 204.950459 171.485969 
L 204.950459 170.432596 
L 205.108382 170.432596 
L 205.108382 169.379224 
L 205.255721 169.379224 
L 205.255721 168.852538 
L 205.367236 168.852538 
L 205.478043 165.692422 
L 205.510606 165.692422 
L 205.510606 165.165736 
L 205.864843 165.165736 
L 205.947883 164.112363 
L 206.159865 164.112363 
L 206.187704 160.952247 
L 206.487616 160.952247 
L 206.487616 159.898875 
L 206.836142 159.898875 
L 206.836142 159.372189 
L 207.113661 159.372189 
L 207.113661 158.845503 
L 207.508136 158.845503 
L 207.508136 158.318817 
L 207.937971 158.318817 
L 207.937971 157.79213 
L 208.226488 157.79213 
L 208.283623 155.685386 
L 208.342108 155.685386 
L 208.342108 154.105328 
L 208.798569 154.105328 
L 208.798569 153.051956 
L 209.143883 153.051956 
L 209.148285 148.838467 
L 209.708422 148.838467 
L 209.809003 146.205037 
L 209.869636 146.205037 
L 209.869636 143.571606 
L 210.403329 143.571606 
L 210.421067 142.518234 
L 210.866751 142.518234 
L 210.866751 141.991548 
L 211.015013 141.991548 
L 211.015013 141.464862 
L 211.155489 141.464862 
L 211.155489 140.41149 
L 211.327242 140.41149 
L 211.327242 139.884804 
L 211.717743 139.884804 
L 211.717743 138.831432 
L 211.845153 138.831432 
L 211.845153 136.724687 
L 212.098452 136.724687 
L 212.18495 134.091257 
L 212.340796 134.091257 
L 212.342018 132.511199 
L 212.466176 132.511199 
L 212.466176 131.984513 
L 212.587047 131.984513 
L 212.668764 130.404454 
L 212.880874 130.404454 
L 212.880874 129.877768 
L 213.172162 129.877768 
L 213.234948 128.824396 
L 213.987937 128.824396 
L 213.987937 128.29771 
L 214.247217 128.29771 
L 214.307347 127.244338 
L 214.626371 127.244338 
L 214.626371 126.190966 
L 215.06551 126.190966 
L 215.06551 125.66428 
L 216.243251 125.66428 
L 216.243251 125.137593 
L 216.429779 125.137593 
L 216.470318 124.084221 
L 216.671609 124.084221 
L 216.671609 123.557535 
L 216.813979 123.557535 
L 216.813979 122.504163 
L 217.048709 122.504163 
L 217.048709 121.450791 
L 217.689629 121.450791 
L 217.773929 120.397419 
L 217.880957 120.397419 
L 217.880957 119.870733 
L 218.069329 119.870733 
L 218.107989 118.290674 
L 218.198155 118.290674 
L 218.220842 117.237302 
L 218.55423 117.237302 
L 218.55423 115.130558 
L 219.91949 115.130558 
L 219.91949 114.603872 
L 220.12553 114.603872 
L 220.12553 111.443755 
L 220.385481 111.443755 
L 220.385481 110.917069 
L 220.901519 110.917069 
L 220.901519 110.390383 
L 221.220128 110.390383 
L 221.220128 109.337011 
L 221.544555 109.337011 
L 221.544555 108.810325 
L 221.798542 108.810325 
L 221.798542 107.756953 
L 222.363887 107.756953 
L 222.463991 105.650209 
L 222.500871 105.650209 
L 222.587979 104.596836 
L 223.167473 104.596836 
L 223.259162 103.016778 
L 223.60261 103.016778 
L 223.60261 102.490092 
L 223.768976 102.490092 
L 223.768976 101.963406 
L 224.286492 101.963406 
L 224.306188 99.329976 
L 225.270631 99.329976 
L 225.365826 95.116487 
L 225.731861 95.116487 
L 225.731861 94.589801 
L 226.174575 94.589801 
L 226.174575 93.536429 
L 226.567468 93.536429 
L 226.597161 91.429684 
L 226.690768 91.429684 
L 226.690768 90.902998 
L 226.933724 90.902998 
L 226.933724 89.32294 
L 227.176995 89.32294 
L 227.176995 88.796254 
L 228.1422 88.796254 
L 228.1422 87.742882 
L 228.281845 87.742882 
L 228.281845 87.216196 
L 229.064269 87.216196 
L 229.064269 86.68951 
L 230.206068 86.68951 
L 230.223164 85.636137 
L 230.432651 85.636137 
L 230.432651 85.109451 
L 231.571734 85.109451 
L 231.571734 84.056079 
L 231.833367 84.056079 
L 231.833367 83.529393 
L 232.201397 83.529393 
L 232.242811 80.369277 
L 232.357165 80.369277 
L 232.357165 78.789218 
L 234.461843 78.789218 
L 234.461843 78.262532 
L 234.850569 78.262532 
L 234.850569 77.735846 
L 235.782583 77.735846 
L 235.782583 77.20916 
L 236.014844 77.20916 
L 236.014844 76.682474 
L 236.277525 76.682474 
L 236.277525 71.415613 
L 236.722927 71.415613 
L 236.758206 70.362241 
L 236.851034 70.362241 
L 236.851034 69.308869 
L 237.029885 69.308869 
L 237.029885 68.255497 
L 237.886045 68.255497 
L 237.958741 67.202125 
L 238.024413 67.202125 
L 238.024413 66.148752 
L 238.245977 66.148752 
L 238.245977 65.622066 
L 238.632207 65.622066 
L 238.632207 65.09538 
L 238.764801 65.09538 
L 238.871863 63.515322 
L 239.451301 63.515322 
L 239.451301 62.988636 
L 241.444101 62.988636 
L 241.444101 62.46195 
L 241.921029 62.46195 
L 241.921029 61.935264 
L 242.265086 61.935264 
L 242.265086 59.82852 
L 242.712447 59.82852 
L 242.712447 59.301833 
L 244.310886 59.301833 
L 244.310886 58.775147 
L 244.725892 58.775147 
L 244.789866 56.668403 
L 244.906167 56.668403 
L 245.002371 55.615031 
L 245.3205 55.615031 
L 245.3205 55.088345 
L 245.511181 55.088345 
L 245.528678 54.034973 
L 246.977327 54.034973 
L 247.02805 52.9816 
L 247.152472 52.9816 
L 247.26002 50.874856 
L 247.342793 50.874856 
L 247.419128 48.768112 
L 247.468095 48.768112 
L 247.468095 48.241426 
L 247.626455 48.241426 
L 247.626455 47.71474 
L 247.820008 47.71474 
L 247.892696 45.607995 
L 248.042691 45.607995 
L 248.042691 45.081309 
L 248.16402 45.081309 
L 248.247921 44.027937 
L 248.387639 44.027937 
L 248.492773 41.394507 
L 248.555061 41.394507 
L 248.631922 39.814448 
L 249.241839 39.814448 
L 249.241839 39.287762 
L 249.38115 39.287762 
L 249.38115 38.761076 
L 249.800799 38.761076 
L 249.800799 38.23439 
L 250.458536 38.23439 
L 250.458536 37.707704 
L 250.859903 37.707704 
L 250.859903 37.181018 
L 251.317847 37.181018 
L 251.317847 36.127646 
L 254.080115 36.127646 
L 254.080115 35.074274 
L 254.965572 35.074274 
L 254.965572 34.547588 
L 256.122337 34.547588 
L 256.122337 34.020902 
L 256.48092 34.020902 
L 256.48092 33.494215 
L 257.476658 33.494215 
L 257.476658 32.967529 
L 263.103254 32.967529 
L 263.103254 32.440843 
L 266.214061 32.440843 
L 266.214061 31.914157 
L 267.150684 31.914157 
L 267.150684 31.387471 
L 268.448632 31.387471 
L 268.448632 30.860785 
L 271.07669 30.860785 
L 271.07669 30.334099 
L 338.688 30.334099 
L 338.688 30.334099 
" style="fill:none;stroke:#ff00ff;stroke-linecap:square;stroke-width:1.5;"/>
   </g>
   <g id="line2d_40">
    <defs>
     <path d="M -0 8.485281 
L 5.091169 0 
L 0 -8.485281 
L -5.091169 -0 
z
" id="m9a5bd57256" style="stroke:#ff00ff;stroke-linejoin:miter;stroke-width:1.5;"/>
    </defs>
    <g>
     <use style="fill-opacity:0;stroke:#ff00ff;stroke-linejoin:miter;stroke-width:1.5;" x="158.113432" xlink:href="#m9a5bd57256" y="269.449579"/>
     <use style="fill-opacity:0;stroke:#ff00ff;stroke-linejoin:miter;stroke-width:1.5;" x="199.134061" xlink:href="#m9a5bd57256" y="184.653121"/>
     <use style="fill-opacity:0;stroke:#ff00ff;stroke-linejoin:miter;stroke-width:1.5;" x="257.476658" xlink:href="#m9a5bd57256" y="33.494215"/>
     <use style="fill-opacity:0;stroke:#ff00ff;stroke-linejoin:miter;stroke-width:1.5;" x="271.07669" xlink:href="#m9a5bd57256" y="30.334099"/>
     <use style="fill-opacity:0;stroke:#ff00ff;stroke-linejoin:miter;stroke-width:1.5;" x="338.688" xlink:href="#m9a5bd57256" y="30.334099"/>
    </g>
   </g>
   <g id="line2d_41">
    <path style="fill:none;stroke:#ff00ff;stroke-linecap:square;stroke-width:1.5;"/>
    <g/>
   </g>
   <g id="line2d_42">
    <path clip-path="url(#pa57a0928a1)" d="M 246.289154 54.034973 
" style="fill:none;stroke:#ff00ff;stroke-linecap:square;stroke-width:1.5;"/>
    <defs>
     <path d="M -12 12 
L 12 -12 
M -12 -12 
L 12 12 
" id="m4115c47f87" style="stroke:#ff00ff;"/>
    </defs>
    <g clip-path="url(#pa57a0928a1)">
     <use style="fill:#ff00ff;stroke:#ff00ff;" x="246.289154" xlink:href="#m4115c47f87" y="54.034973"/>
    </g>
   </g>
   <g id="line2d_43">
    <defs>
     <path d="M 0 1.5 
C 0.397805 1.5 0.77937 1.341951 1.06066 1.06066 
C 1.341951 0.77937 1.5 0.397805 1.5 0 
C 1.5 -0.397805 1.341951 -0.77937 1.06066 -1.06066 
C 0.77937 -1.341951 0.397805 -1.5 0 -1.5 
C -0.397805 -1.5 -0.77937 -1.341951 -1.06066 -1.06066 
C -1.341951 -0.77937 -1.5 -0.397805 -1.5 0 
C -1.5 0.397805 -1.341951 0.77937 -1.06066 1.06066 
C -0.77937 1.341951 -0.397805 1.5 0 1.5 
z
" id="m8744beca96" style="stroke:#ff7500;"/>
    </defs>
    <g>
     <use style="fill:#ff7500;stroke:#ff7500;" x="208.923849" xlink:href="#m8744beca96" y="30.334099"/>
     <use style="fill:#ff7500;stroke:#ff7500;" x="208.923849" xlink:href="#m8744beca96" y="30.334099"/>
    </g>
   </g>
   <g id="line2d_44">
    <path d="M 105.398279 298.944 
L 105.398279 296.837256 
L 122.782271 296.837256 
L 122.782271 295.783884 
L 124.178158 295.783884 
L 124.178158 293.677139 
L 124.92835 293.677139 
L 124.92835 293.150453 
L 125.291682 293.150453 
L 125.291682 292.623767 
L 126.168212 292.623767 
L 126.168212 292.097081 
L 126.338353 292.097081 
L 126.338353 291.043709 
L 129.574256 291.043709 
L 129.574256 289.990337 
L 129.991152 289.990337 
L 129.991152 289.463651 
L 130.796184 289.463651 
L 130.796184 286.303534 
L 130.926816 286.303534 
L 130.926816 285.250162 
L 133.57787 285.250162 
L 133.57787 284.19679 
L 134.766144 284.19679 
L 134.766144 283.670104 
L 135.178927 283.670104 
L 135.178927 281.036673 
L 135.780341 281.036673 
L 135.780341 277.876557 
L 135.97629 277.876557 
L 135.97629 277.349871 
L 137.37967 277.349871 
L 137.469333 273.136382 
L 137.910857 273.136382 
L 137.910857 272.609696 
L 138.170504 272.609696 
L 138.256201 271.556324 
L 138.84457 271.556324 
L 138.927025 270.502952 
L 139.090775 270.502952 
L 139.090775 269.976266 
L 139.493548 269.976266 
L 139.493548 269.449579 
L 140.11924 269.449579 
L 140.11924 268.922893 
L 140.64889 268.922893 
L 140.723258 267.342835 
L 140.944478 267.342835 
L 140.944478 266.289463 
L 141.307054 266.289463 
L 141.378673 264.709405 
L 141.45 264.709405 
L 141.45 263.656033 
L 142.147664 263.656033 
L 142.147664 262.075974 
L 142.553247 262.075974 
L 142.619936 259.96923 
L 142.686372 259.96923 
L 142.686372 259.442544 
L 143.653678 259.442544 
L 143.653678 258.389172 
L 144.330419 258.389172 
L 144.390658 256.809114 
L 144.45069 256.809114 
L 144.510517 254.175683 
L 144.570138 254.175683 
L 144.570138 253.648997 
L 145.665858 253.648997 
L 145.721664 251.542253 
L 146.216039 251.542253 
L 146.216039 249.962195 
L 147.317833 249.962195 
L 147.419225 248.382136 
L 147.71991 248.382136 
L 147.818997 242.061903 
L 148.40198 242.061903 
L 148.40198 241.535217 
L 148.733265 241.535217 
L 148.780082 238.901787 
L 149.286939 238.901787 
L 149.332295 237.321729 
L 149.60198 237.321729 
L 149.60198 235.74167 
L 150.129152 235.74167 
L 150.215485 229.948123 
L 150.47195 229.948123 
L 150.47195 229.421437 
L 151.056095 229.421437 
L 151.13797 226.261321 
L 151.300575 226.261321 
L 151.300575 225.734635 
L 151.461678 225.734635 
L 151.461678 224.154577 
L 151.936246 224.154577 
L 151.975216 220.99446 
L 152.091608 220.99446 
L 152.091608 218.887716 
L 152.511852 218.887716 
L 152.511852 218.36103 
L 153.032466 218.36103 
L 153.032466 216.254285 
L 153.214697 216.254285 
L 153.214697 214.674227 
L 154.063835 214.674227 
L 154.063835 214.147541 
L 154.507086 214.147541 
L 154.607795 212.567483 
L 155.070227 212.567483 
L 155.070227 212.040797 
L 155.329071 212.040797 
L 155.329071 209.934052 
L 155.647315 209.934052 
L 155.678822 208.88068 
L 156.205916 208.88068 
L 156.205916 207.827308 
L 156.478647 207.827308 
L 156.568618 205.720564 
L 158.031107 205.720564 
L 158.031107 205.193878 
L 158.249784 205.193878 
L 158.249784 204.667192 
L 158.625992 204.667192 
L 158.625992 204.140506 
L 158.915995 204.140506 
L 158.994256 201.507075 
L 159.072168 201.507075 
L 159.072168 200.453703 
L 159.226956 200.453703 
L 159.226956 199.927017 
L 159.354904 199.927017 
L 159.354904 197.820273 
L 159.608019 197.820273 
L 159.608019 197.293586 
L 159.906985 197.293586 
L 159.931669 193.080098 
L 160.321935 193.080098 
L 160.321935 192.553412 
L 160.466062 192.553412 
L 160.466062 190.973354 
L 160.585265 190.973354 
L 160.585265 190.446667 
L 161.53316 190.446667 
L 161.53316 188.866609 
L 161.667653 188.866609 
L 161.667653 188.339923 
L 162.281931 188.339923 
L 162.324991 187.286551 
L 162.602318 187.286551 
L 162.68677 184.653121 
L 163.225959 184.653121 
L 163.225959 183.599748 
L 163.748975 183.599748 
L 163.748975 181.493004 
L 164.043731 181.493004 
L 164.043731 180.966318 
L 164.75018 180.966318 
L 164.806225 178.332888 
L 164.86209 178.332888 
L 164.86209 177.279515 
L 165.010195 177.279515 
L 165.047026 176.226143 
L 165.157053 176.226143 
L 165.175324 175.172771 
L 165.284547 175.172771 
L 165.320804 173.066027 
L 165.679281 173.066027 
L 165.785402 169.379224 
L 166.013141 169.379224 
L 166.065276 168.325852 
L 166.186323 168.325852 
L 166.186323 165.692422 
L 166.374858 165.692422 
L 166.374858 164.112363 
L 166.510705 164.112363 
L 166.578233 160.425561 
L 166.712511 160.425561 
L 166.712511 158.845503 
L 166.878918 158.845503 
L 166.878918 157.79213 
L 167.336582 157.79213 
L 167.336582 157.265444 
L 167.970232 157.265444 
L 168.047843 155.1587 
L 168.309168 155.1587 
L 168.309168 154.105328 
L 168.430803 154.105328 
L 168.430803 153.578642 
L 168.551595 153.578642 
L 168.581663 152.52527 
L 168.760989 152.52527 
L 168.760989 151.998584 
L 169.157854 151.998584 
L 169.157854 151.471897 
L 169.388841 151.471897 
L 169.388841 150.418525 
L 169.545889 150.418525 
L 169.545889 147.785095 
L 169.841835 147.785095 
L 169.841835 146.731723 
L 169.953269 146.731723 
L 170.063995 145.678351 
L 170.091567 145.678351 
L 170.091567 145.151665 
L 170.256089 145.151665 
L 170.256089 144.624978 
L 170.40555 144.624978 
L 170.459584 143.571606 
L 170.620687 143.571606 
L 170.620687 142.518234 
L 170.767069 142.518234 
L 170.767069 141.991548 
L 170.977818 141.991548 
L 170.977818 140.938176 
L 171.095254 140.938176 
L 171.121244 139.884804 
L 171.276376 139.884804 
L 171.314944 137.778059 
L 171.481095 137.778059 
L 171.557249 135.671315 
L 171.73366 135.671315 
L 171.73366 135.144629 
L 171.883461 135.144629 
L 171.883461 134.617943 
L 172.118046 134.617943 
L 172.118046 134.091257 
L 172.685129 134.091257 
L 172.685129 133.564571 
L 173.00275 133.564571 
L 173.00275 133.037885 
L 173.451559 133.037885 
L 173.451559 132.511199 
L 173.699729 132.511199 
L 173.777957 131.457826 
L 173.988539 131.457826 
L 174.021557 129.351082 
L 174.13117 129.351082 
L 174.13117 127.771024 
L 174.294307 127.771024 
L 174.294307 126.717652 
L 174.466655 126.717652 
L 174.466655 126.190966 
L 174.637316 126.190966 
L 174.637316 125.137593 
L 174.753684 125.137593 
L 174.753684 121.450791 
L 175.098201 121.450791 
L 175.098201 120.924105 
L 175.364924 120.924105 
L 175.395439 118.817361 
L 175.747557 118.817361 
L 175.747557 117.237302 
L 176.753762 117.237302 
L 176.82881 115.657244 
L 176.94078 115.657244 
L 176.959372 114.603872 
L 177.199282 114.603872 
L 177.199282 114.077186 
L 177.454007 114.077186 
L 177.562046 112.497128 
L 177.705065 112.497128 
L 177.758396 110.917069 
L 177.961335 110.917069 
L 178.066286 108.283639 
L 178.092425 108.283639 
L 178.161939 106.703581 
L 178.334521 106.703581 
L 178.334521 106.176895 
L 178.883902 106.176895 
L 178.966907 104.596836 
L 179.115327 104.596836 
L 179.19724 103.543464 
L 179.351823 103.543464 
L 179.384193 102.490092 
L 179.593145 102.490092 
L 179.593145 101.963406 
L 179.964628 101.963406 
L 179.964628 101.43672 
L 180.143574 101.43672 
L 180.143574 100.910034 
L 180.305371 100.910034 
L 180.381893 99.856662 
L 180.774482 99.856662 
L 180.774482 99.329976 
L 180.900935 99.329976 
L 180.908345 98.276603 
L 181.289386 98.276603 
L 181.289386 97.749917 
L 181.612545 97.749917 
L 181.612545 97.223231 
L 181.859814 97.223231 
L 181.964723 96.169859 
L 182.110543 96.169859 
L 182.193325 95.116487 
L 182.323597 95.116487 
L 182.418968 94.063115 
L 182.561055 94.063115 
L 182.561055 93.536429 
L 182.84843 93.536429 
L 182.84843 93.009743 
L 183.196243 93.009743 
L 183.196243 92.483056 
L 183.821648 92.483056 
L 183.909189 91.429684 
L 184.113812 91.429684 
L 184.163058 90.376312 
L 184.328244 90.376312 
L 184.401161 88.796254 
L 184.731518 88.796254 
L 184.731518 88.269568 
L 184.873735 88.269568 
L 184.967906 87.216196 
L 185.044047 87.216196 
L 185.084909 86.162824 
L 185.333839 86.162824 
L 185.333839 85.636137 
L 185.966012 85.636137 
L 185.966012 85.109451 
L 186.153474 85.109451 
L 186.153474 84.582765 
L 186.355212 84.582765 
L 186.366051 83.529393 
L 187.004339 83.529393 
L 187.004339 83.002707 
L 187.493588 83.002707 
L 187.508816 81.949335 
L 188.287773 81.949335 
L 188.287773 81.422649 
L 188.432739 81.422649 
L 188.432739 80.895963 
L 188.818232 80.895963 
L 188.818232 80.369277 
L 189.121531 80.369277 
L 189.172341 79.315904 
L 190.652819 79.315904 
L 190.652819 78.789218 
L 191.104509 78.789218 
L 191.121016 77.735846 
L 191.520624 77.735846 
L 191.520624 77.20916 
L 191.84018 77.20916 
L 191.950655 76.155788 
L 192.115067 76.155788 
L 192.115067 75.629102 
L 192.485145 75.629102 
L 192.572656 74.57573 
L 192.727572 74.57573 
L 192.74637 73.522358 
L 192.922092 73.522358 
L 192.922092 72.995672 
L 193.033336 72.995672 
L 193.033336 72.468985 
L 193.228149 72.468985 
L 193.290178 71.415613 
L 193.351988 71.415613 
L 193.351988 70.362241 
L 193.485761 70.362241 
L 193.485761 69.835555 
L 193.614942 69.835555 
L 193.614942 69.308869 
L 194.087541 69.308869 
L 194.087541 68.782183 
L 194.312255 68.782183 
L 194.377398 67.728811 
L 194.432066 67.728811 
L 194.483163 66.675439 
L 194.692788 66.675439 
L 194.749829 65.09538 
L 194.903245 65.09538 
L 194.903245 64.568694 
L 195.345848 64.568694 
L 195.387883 63.515322 
L 195.593355 63.515322 
L 195.593355 62.988636 
L 195.862558 62.988636 
L 195.969087 61.935264 
L 196.040783 61.935264 
L 196.109087 60.881892 
L 196.232595 60.881892 
L 196.232595 60.355206 
L 196.881869 60.355206 
L 196.881869 59.82852 
L 197.152479 59.82852 
L 197.178727 58.775147 
L 197.268838 58.775147 
L 197.34983 57.721775 
L 197.476348 57.721775 
L 197.476348 57.195089 
L 197.667255 57.195089 
L 197.667255 56.668403 
L 198.062313 56.668403 
L 198.062313 56.141717 
L 198.178281 56.141717 
L 198.178281 55.615031 
L 198.575511 55.615031 
L 198.626547 54.561659 
L 198.921752 54.561659 
L 198.953368 53.508287 
L 199.206854 53.508287 
L 199.271593 51.928228 
L 199.672749 51.928228 
L 199.672749 51.401542 
L 200.307696 51.401542 
L 200.307696 50.874856 
L 200.467713 50.874856 
L 200.551978 49.821484 
L 200.709779 49.821484 
L 200.709779 49.294798 
L 200.84256 49.294798 
L 200.84256 48.768112 
L 200.967304 48.768112 
L 201.007127 47.71474 
L 201.079514 47.71474 
L 201.10978 46.134681 
L 201.347745 46.134681 
L 201.347745 45.607995 
L 201.614172 45.607995 
L 201.663818 44.554623 
L 201.885493 44.554623 
L 201.963193 42.974565 
L 202.172366 42.974565 
L 202.172366 42.447879 
L 202.75563 42.447879 
L 202.75563 41.921193 
L 203.080667 41.921193 
L 203.180107 40.341135 
L 203.85479 40.341135 
L 203.85479 39.814448 
L 204.066154 39.814448 
L 204.066154 39.287762 
L 204.41219 39.287762 
L 204.41219 38.761076 
L 204.800507 38.761076 
L 204.800507 38.23439 
L 205.063937 38.23439 
L 205.063937 37.707704 
L 205.523253 37.707704 
L 205.523253 37.181018 
L 205.896692 37.181018 
L 205.896692 36.654332 
L 206.716804 36.654332 
L 206.716804 36.127646 
L 207.059171 36.127646 
L 207.059171 35.60096 
L 207.249964 35.60096 
L 207.249964 35.074274 
L 207.540342 35.074274 
L 207.540342 34.547588 
L 207.789524 34.547588 
L 207.789524 34.020902 
L 208.278998 34.020902 
L 208.278998 33.494215 
L 208.528561 33.494215 
L 208.528561 32.967529 
L 208.670874 32.967529 
L 208.670874 32.440843 
L 208.903032 32.440843 
L 208.923849 30.334099 
L 338.688 30.334099 
L 338.688 30.334099 
" style="fill:none;stroke:#ff7500;stroke-linecap:square;stroke-width:1.5;"/>
   </g>
   <g id="line2d_45">
    <defs>
     <path d="M 0 -6 
L -1.347084 -1.854102 
L -5.706339 -1.854102 
L -2.179628 0.708204 
L -3.526712 4.854102 
L -0 2.291796 
L 3.526712 4.854102 
L 2.179628 0.708204 
L 5.706339 -1.854102 
L 1.347084 -1.854102 
z
" id="m4e38a2cf5a" style="stroke:#ff7500;stroke-linejoin:bevel;stroke-width:1.5;"/>
    </defs>
    <g>
     <use style="fill-opacity:0;stroke:#ff7500;stroke-linejoin:bevel;stroke-width:1.5;" x="155.678822" xlink:href="#m4e38a2cf5a" y="208.88068"/>
     <use style="fill-opacity:0;stroke:#ff7500;stroke-linejoin:bevel;stroke-width:1.5;" x="201.963193" xlink:href="#m4e38a2cf5a" y="44.027937"/>
     <use style="fill-opacity:0;stroke:#ff7500;stroke-linejoin:bevel;stroke-width:1.5;" x="208.923849" xlink:href="#m4e38a2cf5a" y="30.334099"/>
     <use style="fill-opacity:0;stroke:#ff7500;stroke-linejoin:bevel;stroke-width:1.5;" x="208.923849" xlink:href="#m4e38a2cf5a" y="30.334099"/>
     <use style="fill-opacity:0;stroke:#ff7500;stroke-linejoin:bevel;stroke-width:1.5;" x="338.688" xlink:href="#m4e38a2cf5a" y="30.334099"/>
    </g>
   </g>
   <g id="line2d_46">
    <path style="fill:none;stroke:#ff7500;stroke-linecap:square;stroke-width:1.5;"/>
    <g/>
   </g>
   <g id="line2d_47">
    <path d="M 338.688 30.334099 
L 369.60768 293.571802 
" style="fill:none;stroke:#ff00ff;stroke-linecap:square;stroke-width:1.5;"/>
    <g>
     <use style="fill-opacity:0;stroke:#ff00ff;stroke-linejoin:miter;stroke-width:1.5;" x="338.688" xlink:href="#m9a5bd57256" y="30.334099"/>
     <use style="fill-opacity:0;stroke:#ff00ff;stroke-linejoin:miter;stroke-width:1.5;" x="369.60768" xlink:href="#m9a5bd57256" y="293.571802"/>
    </g>
   </g>
   <g id="line2d_48">
    <path d="M 338.688 30.334099 
L 369.60768 207.616634 
" style="fill:none;stroke:#ff7500;stroke-linecap:square;stroke-width:1.5;"/>
    <g>
     <use style="fill-opacity:0;stroke:#ff7500;stroke-linejoin:bevel;stroke-width:1.5;" x="338.688" xlink:href="#m4e38a2cf5a" y="30.334099"/>
     <use style="fill-opacity:0;stroke:#ff7500;stroke-linejoin:bevel;stroke-width:1.5;" x="369.60768" xlink:href="#m4e38a2cf5a" y="207.616634"/>
    </g>
   </g>
   <g id="line2d_49">
    <path d="M 338.688 30.334099 
L 369.60768 121.661465 
" style="fill:none;stroke:#000080;stroke-linecap:square;stroke-width:1.5;"/>
    <g>
     <use style="fill-opacity:0;stroke:#000080;stroke-width:1.5;" x="338.688" xlink:href="#mf652ea5e51" y="30.334099"/>
     <use style="fill-opacity:0;stroke:#000080;stroke-width:1.5;" x="369.60768" xlink:href="#mf652ea5e51" y="121.661465"/>
    </g>
   </g>
   <g id="line2d_50">
    <path d="M 338.688 298.944 
L 338.688 30.334099 
" style="fill:none;stroke:#000000;stroke-linecap:square;stroke-width:1.5;"/>
   </g>
   <g id="patch_3">
    <path d="M 57.6 298.944 
L 57.6 27.648 
" style="fill:none;stroke:#000000;stroke-linecap:square;stroke-linejoin:miter;stroke-width:0.8;"/>
   </g>
   <g id="patch_4">
    <path d="M 338.688 298.944 
L 338.688 27.648 
" style="fill:none;stroke:#000000;stroke-linecap:square;stroke-linejoin:miter;stroke-width:0.8;"/>
   </g>
   <g id="patch_5">
    <path d="M 57.6 298.944 
L 338.688 298.944 
" style="fill:none;stroke:#000000;stroke-linecap:square;stroke-linejoin:miter;stroke-width:0.8;"/>
   </g>
   <g id="patch_6">
    <path d="M 57.6 27.648 
L 338.688 27.648 
" style="fill:none;stroke:#000000;stroke-linecap:square;stroke-linejoin:miter;stroke-width:0.8;"/>
   </g>
   <g id="text_13">
    <!-- PSO -->
    <g transform="translate(375.22944 298.262739)scale(0.17 -0.17)">
     <defs>
      <path d="M 19.671875 64.796875 
L 19.671875 37.40625 
L 32.078125 37.40625 
Q 38.96875 37.40625 42.71875 40.96875 
Q 46.484375 44.53125 46.484375 51.125 
Q 46.484375 57.671875 42.71875 61.234375 
Q 38.96875 64.796875 32.078125 64.796875 
z
M 9.8125 72.90625 
L 32.078125 72.90625 
Q 44.34375 72.90625 50.609375 67.359375 
Q 56.890625 61.8125 56.890625 51.125 
Q 56.890625 40.328125 50.609375 34.8125 
Q 44.34375 29.296875 32.078125 29.296875 
L 19.671875 29.296875 
L 19.671875 0 
L 9.8125 0 
z
" id="DejaVuSans-80"/>
      <path d="M 53.515625 70.515625 
L 53.515625 60.890625 
Q 47.90625 63.578125 42.921875 64.890625 
Q 37.9375 66.21875 33.296875 66.21875 
Q 25.25 66.21875 20.875 63.09375 
Q 16.5 59.96875 16.5 54.203125 
Q 16.5 49.359375 19.40625 46.890625 
Q 22.3125 44.4375 30.421875 42.921875 
L 36.375 41.703125 
Q 47.40625 39.59375 52.65625 34.296875 
Q 57.90625 29 57.90625 20.125 
Q 57.90625 9.515625 50.796875 4.046875 
Q 43.703125 -1.421875 29.984375 -1.421875 
Q 24.8125 -1.421875 18.96875 -0.25 
Q 13.140625 0.921875 6.890625 3.21875 
L 6.890625 13.375 
Q 12.890625 10.015625 18.65625 8.296875 
Q 24.421875 6.59375 29.984375 6.59375 
Q 38.421875 6.59375 43.015625 9.90625 
Q 47.609375 13.234375 47.609375 19.390625 
Q 47.609375 24.75 44.3125 27.78125 
Q 41.015625 30.8125 33.5 32.328125 
L 27.484375 33.5 
Q 16.453125 35.6875 11.515625 40.375 
Q 6.59375 45.0625 6.59375 53.421875 
Q 6.59375 63.09375 13.40625 68.65625 
Q 20.21875 74.21875 32.171875 74.21875 
Q 37.3125 74.21875 42.625 73.28125 
Q 47.953125 72.359375 53.515625 70.515625 
z
" id="DejaVuSans-83"/>
      <path d="M 39.40625 66.21875 
Q 28.65625 66.21875 22.328125 58.203125 
Q 16.015625 50.203125 16.015625 36.375 
Q 16.015625 22.609375 22.328125 14.59375 
Q 28.65625 6.59375 39.40625 6.59375 
Q 50.140625 6.59375 56.421875 14.59375 
Q 62.703125 22.609375 62.703125 36.375 
Q 62.703125 50.203125 56.421875 58.203125 
Q 50.140625 66.21875 39.40625 66.21875 
z
M 39.40625 74.21875 
Q 54.734375 74.21875 63.90625 63.9375 
Q 73.09375 53.65625 73.09375 36.375 
Q 73.09375 19.140625 63.90625 8.859375 
Q 54.734375 -1.421875 39.40625 -1.421875 
Q 24.03125 -1.421875 14.8125 8.828125 
Q 5.609375 19.09375 5.609375 36.375 
Q 5.609375 53.65625 14.8125 63.9375 
Q 24.03125 74.21875 39.40625 74.21875 
z
" id="DejaVuSans-79"/>
     </defs>
     <use xlink:href="#DejaVuSans-80"/>
     <use x="60.302734" xlink:href="#DejaVuSans-83"/>
     <use x="123.779297" xlink:href="#DejaVuSans-79"/>
    </g>
   </g>
   <g id="text_14">
    <!-- DE -->
    <g transform="translate(375.22944 212.307571)scale(0.17 -0.17)">
     <defs>
      <path d="M 19.671875 64.796875 
L 19.671875 8.109375 
L 31.59375 8.109375 
Q 46.6875 8.109375 53.6875 14.9375 
Q 60.6875 21.78125 60.6875 36.53125 
Q 60.6875 51.171875 53.6875 57.984375 
Q 46.6875 64.796875 31.59375 64.796875 
z
M 9.8125 72.90625 
L 30.078125 72.90625 
Q 51.265625 72.90625 61.171875 64.09375 
Q 71.09375 55.28125 71.09375 36.53125 
Q 71.09375 17.671875 61.125 8.828125 
Q 51.171875 0 30.078125 0 
L 9.8125 0 
z
" id="DejaVuSans-68"/>
      <path d="M 9.8125 72.90625 
L 55.90625 72.90625 
L 55.90625 64.59375 
L 19.671875 64.59375 
L 19.671875 43.015625 
L 54.390625 43.015625 
L 54.390625 34.71875 
L 19.671875 34.71875 
L 19.671875 8.296875 
L 56.78125 8.296875 
L 56.78125 0 
L 9.8125 0 
z
" id="DejaVuSans-69"/>
     </defs>
     <use xlink:href="#DejaVuSans-68"/>
     <use x="77.001953" xlink:href="#DejaVuSans-69"/>
    </g>
   </g>
   <g id="text_15">
    <!-- BIPOP-CMA -->
    <g transform="translate(375.22944 126.352403)scale(0.17 -0.17)">
     <defs>
      <path d="M 19.671875 34.8125 
L 19.671875 8.109375 
L 35.5 8.109375 
Q 43.453125 8.109375 47.28125 11.40625 
Q 51.125 14.703125 51.125 21.484375 
Q 51.125 28.328125 47.28125 31.5625 
Q 43.453125 34.8125 35.5 34.8125 
z
M 19.671875 64.796875 
L 19.671875 42.828125 
L 34.28125 42.828125 
Q 41.5 42.828125 45.03125 45.53125 
Q 48.578125 48.25 48.578125 53.8125 
Q 48.578125 59.328125 45.03125 62.0625 
Q 41.5 64.796875 34.28125 64.796875 
z
M 9.8125 72.90625 
L 35.015625 72.90625 
Q 46.296875 72.90625 52.390625 68.21875 
Q 58.5 63.53125 58.5 54.890625 
Q 58.5 48.1875 55.375 44.234375 
Q 52.25 40.28125 46.1875 39.3125 
Q 53.46875 37.75 57.5 32.78125 
Q 61.53125 27.828125 61.53125 20.40625 
Q 61.53125 10.640625 54.890625 5.3125 
Q 48.25 0 35.984375 0 
L 9.8125 0 
z
" id="DejaVuSans-66"/>
      <path d="M 9.8125 72.90625 
L 19.671875 72.90625 
L 19.671875 0 
L 9.8125 0 
z
" id="DejaVuSans-73"/>
      <path d="M 64.40625 67.28125 
L 64.40625 56.890625 
Q 59.421875 61.53125 53.78125 63.8125 
Q 48.140625 66.109375 41.796875 66.109375 
Q 29.296875 66.109375 22.65625 58.46875 
Q 16.015625 50.828125 16.015625 36.375 
Q 16.015625 21.96875 22.65625 14.328125 
Q 29.296875 6.6875 41.796875 6.6875 
Q 48.140625 6.6875 53.78125 8.984375 
Q 59.421875 11.28125 64.40625 15.921875 
L 64.40625 5.609375 
Q 59.234375 2.09375 53.4375 0.328125 
Q 47.65625 -1.421875 41.21875 -1.421875 
Q 24.65625 -1.421875 15.125 8.703125 
Q 5.609375 18.84375 5.609375 36.375 
Q 5.609375 53.953125 15.125 64.078125 
Q 24.65625 74.21875 41.21875 74.21875 
Q 47.75 74.21875 53.53125 72.484375 
Q 59.328125 70.75 64.40625 67.28125 
z
" id="DejaVuSans-67"/>
      <path d="M 9.8125 72.90625 
L 24.515625 72.90625 
L 43.109375 23.296875 
L 61.8125 72.90625 
L 76.515625 72.90625 
L 76.515625 0 
L 66.890625 0 
L 66.890625 64.015625 
L 48.09375 14.015625 
L 38.1875 14.015625 
L 19.390625 64.015625 
L 19.390625 0 
L 9.8125 0 
z
" id="DejaVuSans-77"/>
      <path d="M 34.1875 63.1875 
L 20.796875 26.90625 
L 47.609375 26.90625 
z
M 28.609375 72.90625 
L 39.796875 72.90625 
L 67.578125 0 
L 57.328125 0 
L 50.6875 18.703125 
L 17.828125 18.703125 
L 11.1875 0 
L 0.78125 0 
z
" id="DejaVuSans-65"/>
     </defs>
     <use xlink:href="#DejaVuSans-66"/>
     <use x="68.603516" xlink:href="#DejaVuSans-73"/>
     <use x="98.095703" xlink:href="#DejaVuSans-80"/>
     <use x="158.398438" xlink:href="#DejaVuSans-79"/>
     <use x="237.109375" xlink:href="#DejaVuSans-80"/>
     <use x="295.162109" xlink:href="#DejaVuSans-45"/>
     <use x="331.246094" xlink:href="#DejaVuSans-67"/>
     <use x="401.070312" xlink:href="#DejaVuSans-77"/>
     <use x="487.349609" xlink:href="#DejaVuSans-65"/>
    </g>
   </g>
   <g id="text_16">
    <!-- best 2009 -->
    <g transform="translate(375.22944 40.397235)scale(0.17 -0.17)">
     <defs>
      <path d="M 48.6875 27.296875 
Q 48.6875 37.203125 44.609375 42.84375 
Q 40.53125 48.484375 33.40625 48.484375 
Q 26.265625 48.484375 22.1875 42.84375 
Q 18.109375 37.203125 18.109375 27.296875 
Q 18.109375 17.390625 22.1875 11.75 
Q 26.265625 6.109375 33.40625 6.109375 
Q 40.53125 6.109375 44.609375 11.75 
Q 48.6875 17.390625 48.6875 27.296875 
z
M 18.109375 46.390625 
Q 20.953125 51.265625 25.265625 53.625 
Q 29.59375 56 35.59375 56 
Q 45.5625 56 51.78125 48.09375 
Q 58.015625 40.1875 58.015625 27.296875 
Q 58.015625 14.40625 51.78125 6.484375 
Q 45.5625 -1.421875 35.59375 -1.421875 
Q 29.59375 -1.421875 25.265625 0.953125 
Q 20.953125 3.328125 18.109375 8.203125 
L 18.109375 0 
L 9.078125 0 
L 9.078125 75.984375 
L 18.109375 75.984375 
z
" id="DejaVuSans-98"/>
      <path d="M 10.984375 1.515625 
L 10.984375 10.5 
Q 14.703125 8.734375 18.5 7.8125 
Q 22.3125 6.890625 25.984375 6.890625 
Q 35.75 6.890625 40.890625 13.453125 
Q 46.046875 20.015625 46.78125 33.40625 
Q 43.953125 29.203125 39.59375 26.953125 
Q 35.25 24.703125 29.984375 24.703125 
Q 19.046875 24.703125 12.671875 31.3125 
Q 6.296875 37.9375 6.296875 49.421875 
Q 6.296875 60.640625 12.9375 67.421875 
Q 19.578125 74.21875 30.609375 74.21875 
Q 43.265625 74.21875 49.921875 64.515625 
Q 56.59375 54.828125 56.59375 36.375 
Q 56.59375 19.140625 48.40625 8.859375 
Q 40.234375 -1.421875 26.421875 -1.421875 
Q 22.703125 -1.421875 18.890625 -0.6875 
Q 15.09375 0.046875 10.984375 1.515625 
z
M 30.609375 32.421875 
Q 37.25 32.421875 41.125 36.953125 
Q 45.015625 41.5 45.015625 49.421875 
Q 45.015625 57.28125 41.125 61.84375 
Q 37.25 66.40625 30.609375 66.40625 
Q 23.96875 66.40625 20.09375 61.84375 
Q 16.21875 57.28125 16.21875 49.421875 
Q 16.21875 41.5 20.09375 36.953125 
Q 23.96875 32.421875 30.609375 32.421875 
z
" id="DejaVuSans-57"/>
     </defs>
     <use xlink:href="#DejaVuSans-98"/>
     <use x="63.476562" xlink:href="#DejaVuSans-101"/>
     <use x="125" xlink:href="#DejaVuSans-115"/>
     <use x="177.099609" xlink:href="#DejaVuSans-116"/>
     <use x="216.308594" xlink:href="#DejaVuSans-32"/>
     <use x="248.095703" xlink:href="#DejaVuSans-50"/>
     <use x="311.71875" xlink:href="#DejaVuSans-48"/>
     <use x="375.341797" xlink:href="#DejaVuSans-48"/>
     <use x="438.964844" xlink:href="#DejaVuSans-57"/>
    </g>
   </g>
   <g id="text_17">
    <!-- bbob f12, 2-D -->
    <g transform="translate(60.41088 38.111366)scale(0.102 -0.102)">
     <use xlink:href="#DejaVuSans-98"/>
     <use x="63.476562" xlink:href="#DejaVuSans-98"/>
     <use x="126.953125" xlink:href="#DejaVuSans-111"/>
     <use x="188.134766" xlink:href="#DejaVuSans-98"/>
     <use x="251.611328" xlink:href="#DejaVuSans-32"/>
     <use x="283.398438" xlink:href="#DejaVuSans-102"/>
     <use x="318.603516" xlink:href="#DejaVuSans-49"/>
     <use x="382.226562" xlink:href="#DejaVuSans-50"/>
     <use x="445.849609" xlink:href="#DejaVuSans-44"/>
     <use x="477.636719" xlink:href="#DejaVuSans-32"/>
     <use x="509.423828" xlink:href="#DejaVuSans-50"/>
     <use x="573.046875" xlink:href="#DejaVuSans-45"/>
     <use x="609.130859" xlink:href="#DejaVuSans-68"/>
    </g>
    <!-- 51 targets: 100..1e-08 -->
    <g transform="translate(60.41088 49.533135)scale(0.102 -0.102)">
     <defs>
      <path d="M 10.796875 72.90625 
L 49.515625 72.90625 
L 49.515625 64.59375 
L 19.828125 64.59375 
L 19.828125 46.734375 
Q 21.96875 47.46875 24.109375 47.828125 
Q 26.265625 48.1875 28.421875 48.1875 
Q 40.625 48.1875 47.75 41.5 
Q 54.890625 34.8125 54.890625 23.390625 
Q 54.890625 11.625 47.5625 5.09375 
Q 40.234375 -1.421875 26.90625 -1.421875 
Q 22.3125 -1.421875 17.546875 -0.640625 
Q 12.796875 0.140625 7.71875 1.703125 
L 7.71875 11.625 
Q 12.109375 9.234375 16.796875 8.0625 
Q 21.484375 6.890625 26.703125 6.890625 
Q 35.15625 6.890625 40.078125 11.328125 
Q 45.015625 15.765625 45.015625 23.390625 
Q 45.015625 31 40.078125 35.4375 
Q 35.15625 39.890625 26.703125 39.890625 
Q 22.75 39.890625 18.8125 39.015625 
Q 14.890625 38.140625 10.796875 36.28125 
z
" id="DejaVuSans-53"/>
      <path d="M 11.71875 12.40625 
L 22.015625 12.40625 
L 22.015625 0 
L 11.71875 0 
z
M 11.71875 51.703125 
L 22.015625 51.703125 
L 22.015625 39.3125 
L 11.71875 39.3125 
z
" id="DejaVuSans-58"/>
     </defs>
     <use xlink:href="#DejaVuSans-53"/>
     <use x="63.623047" xlink:href="#DejaVuSans-49"/>
     <use x="127.246094" xlink:href="#DejaVuSans-32"/>
     <use x="159.033203" xlink:href="#DejaVuSans-116"/>
     <use x="198.242188" xlink:href="#DejaVuSans-97"/>
     <use x="259.521484" xlink:href="#DejaVuSans-114"/>
     <use x="298.884766" xlink:href="#DejaVuSans-103"/>
     <use x="362.361328" xlink:href="#DejaVuSans-101"/>
     <use x="423.884766" xlink:href="#DejaVuSans-116"/>
     <use x="463.09375" xlink:href="#DejaVuSans-115"/>
     <use x="515.193359" xlink:href="#DejaVuSans-58"/>
     <use x="548.884766" xlink:href="#DejaVuSans-32"/>
     <use x="580.671875" xlink:href="#DejaVuSans-49"/>
     <use x="644.294922" xlink:href="#DejaVuSans-48"/>
     <use x="707.917969" xlink:href="#DejaVuSans-48"/>
     <use x="771.541016" xlink:href="#DejaVuSans-46"/>
     <use x="803.328125" xlink:href="#DejaVuSans-46"/>
     <use x="835.115234" xlink:href="#DejaVuSans-49"/>
     <use x="898.738281" xlink:href="#DejaVuSans-101"/>
     <use x="960.261719" xlink:href="#DejaVuSans-45"/>
     <use x="996.345703" xlink:href="#DejaVuSans-48"/>
     <use x="1059.96875" xlink:href="#DejaVuSans-56"/>
    </g>
    <!-- 15 instances -->
    <g transform="translate(60.41088 60.954904)scale(0.102 -0.102)">
     <use xlink:href="#DejaVuSans-49"/>
     <use x="63.623047" xlink:href="#DejaVuSans-53"/>
     <use x="127.246094" xlink:href="#DejaVuSans-32"/>
     <use x="159.033203" xlink:href="#DejaVuSans-105"/>
     <use x="186.816406" xlink:href="#DejaVuSans-110"/>
     <use x="250.195312" xlink:href="#DejaVuSans-115"/>
     <use x="302.294922" xlink:href="#DejaVuSans-116"/>
     <use x="341.503906" xlink:href="#DejaVuSans-97"/>
     <use x="402.783203" xlink:href="#DejaVuSans-110"/>
     <use x="466.162109" xlink:href="#DejaVuSans-99"/>
     <use x="521.142578" xlink:href="#DejaVuSans-101"/>
     <use x="582.666016" xlink:href="#DejaVuSans-115"/>
    </g>
   </g>
   <g id="text_18">
    <!-- v2.4 -->
    <g style="fill:#808080;" transform="translate(187.233062 294.151352)scale(0.1 -0.1)">
     <use xlink:href="#DejaVuSans-118"/>
     <use x="59.179688" xlink:href="#DejaVuSans-50"/>
     <use x="122.802734" xlink:href="#DejaVuSans-46"/>
     <use x="154.589844" xlink:href="#DejaVuSans-52"/>
    </g>
   </g>
   <g id="text_19">
    <!-- 12 Bent cigar -->
    <g transform="translate(130.926812 21.648)scale(0.2 -0.2)">
     <use xlink:href="#DejaVuSans-49"/>
     <use x="63.623047" xlink:href="#DejaVuSans-50"/>
     <use x="127.246094" xlink:href="#DejaVuSans-32"/>
     <use x="159.033203" xlink:href="#DejaVuSans-66"/>
     <use x="227.636719" xlink:href="#DejaVuSans-101"/>
     <use x="289.160156" xlink:href="#DejaVuSans-110"/>
     <use x="352.539062" xlink:href="#DejaVuSans-116"/>
     <use x="391.748047" xlink:href="#DejaVuSans-32"/>
     <use x="423.535156" xlink:href="#DejaVuSans-99"/>
     <use x="478.515625" xlink:href="#DejaVuSans-105"/>
     <use x="506.298828" xlink:href="#DejaVuSans-103"/>
     <use x="569.775391" xlink:href="#DejaVuSans-97"/>
     <use x="631.054688" xlink:href="#DejaVuSans-114"/>
    </g>
   </g>
  </g>
 </g>
 <defs>
  <clipPath id="pa57a0928a1">
   <rect height="271.296" width="281.088" x="57.6" y="27.648"/>
  </clipPath>
 </defs>
</svg>
