<?xml version="1.0" encoding="utf-8" standalone="no"?>
<!DOCTYPE svg PUBLIC "-//W3C//DTD SVG 1.1//EN"
  "http://www.w3.org/Graphics/SVG/1.1/DTD/svg11.dtd">
<!-- Created with matplotlib (https://matplotlib.org/) -->
<svg height="345.6pt" version="1.1" viewBox="0 0 460.8 345.6" width="460.8pt" xmlns="http://www.w3.org/2000/svg" xmlns:xlink="http://www.w3.org/1999/xlink">
 <metadata>
  <rdf:RDF xmlns:cc="http://creativecommons.org/ns#" xmlns:dc="http://purl.org/dc/elements/1.1/" xmlns:rdf="http://www.w3.org/1999/02/22-rdf-syntax-ns#">
   <cc:Work>
    <dc:type rdf:resource="http://purl.org/dc/dcmitype/StillImage"/>
    <dc:date>2021-05-01T17:07:51.212697</dc:date>
    <dc:format>image/svg+xml</dc:format>
    <dc:creator>
     <cc:Agent>
      <dc:title>Matplotlib v3.3.2, https://matplotlib.org/</dc:title>
     </cc:Agent>
    </dc:creator>
   </cc:Work>
  </rdf:RDF>
 </metadata>
 <defs>
  <style type="text/css">*{stroke-linecap:butt;stroke-linejoin:round;}</style>
 </defs>
 <g id="figure_1">
  <g id="patch_1">
   <path d="M 0 345.6 
L 460.8 345.6 
L 460.8 0 
L 0 0 
z
" style="fill:#ffffff;"/>
  </g>
  <g id="axes_1">
   <g id="patch_2">
    <path d="M 57.6 298.944 
L 338.688 298.944 
L 338.688 27.648 
L 57.6 27.648 
z
" style="fill:#ffffff;"/>
   </g>
   <g id="line2d_1">
    <path d="M 38.440992 298.944 
L 38.440992 272.609696 
L 57.6 272.609696 
L 57.6 267.342835 
L 86.792945 267.342835 
L 86.792945 262.075974 
L 104.434538 262.075974 
L 104.434538 256.809114 
L 114.641021 256.809114 
L 114.641021 251.542253 
L 130.664567 251.542253 
L 130.664567 246.275392 
L 143.230373 246.275392 
L 143.230373 241.008531 
L 151.151579 241.008531 
L 151.151579 235.74167 
L 152.436193 235.74167 
L 152.436193 230.47481 
L 154.906477 230.47481 
L 154.906477 225.207949 
L 155.825108 225.207949 
L 155.825108 219.941088 
L 157.185742 219.941088 
L 157.185742 214.674227 
L 157.976006 214.674227 
L 157.976006 209.407366 
L 158.429943 209.407366 
L 158.429943 204.140506 
L 160.727241 204.140506 
L 160.727241 198.873645 
L 161.100288 198.873645 
L 161.100288 193.606784 
L 162.303474 193.606784 
L 162.303474 188.339923 
L 162.403659 188.339923 
L 162.403659 183.073062 
L 164.346358 183.073062 
L 164.346358 177.806202 
L 164.435497 177.806202 
L 164.435497 172.539341 
L 172.728604 172.539341 
L 172.728604 167.27248 
L 172.768032 167.27248 
L 172.768032 162.005619 
L 172.830933 162.005619 
L 172.830933 156.738758 
L 172.917053 156.738758 
L 172.917053 151.471897 
L 172.994977 151.471897 
L 172.994977 146.205037 
L 173.033809 146.205037 
L 173.033809 140.938176 
L 173.072554 140.938176 
L 173.072554 135.671315 
L 173.118935 135.671315 
L 173.118935 130.404454 
L 173.188276 130.404454 
L 173.188276 125.137593 
L 173.211329 125.137593 
L 173.211329 119.870733 
L 173.333764 119.870733 
L 173.333764 114.603872 
L 173.379457 114.603872 
L 173.379457 109.337011 
L 173.42503 109.337011 
L 173.42503 104.07015 
L 173.462916 104.07015 
L 173.462916 98.803289 
L 173.583604 98.803289 
L 173.583604 93.536429 
L 173.643636 93.536429 
L 173.643636 88.269568 
L 173.695995 88.269568 
L 173.695995 83.002707 
L 173.733298 83.002707 
L 173.733298 77.735846 
L 173.770522 77.735846 
L 173.770522 72.468985 
L 174.021557 72.468985 
L 174.021557 67.202125 
L 174.094709 67.202125 
L 174.094709 61.935264 
L 174.123884 61.935264 
L 174.123884 56.668403 
L 174.167555 56.668403 
L 174.167555 51.401542 
L 174.211117 51.401542 
L 174.211117 46.134681 
L 174.25457 46.134681 
L 174.25457 40.867821 
L 174.305129 40.867821 
L 174.305129 35.60096 
L 174.362732 35.60096 
L 174.362732 30.334099 
L 338.688 30.334099 
" style="fill:none;stroke:#f5deb3;stroke-linecap:square;stroke-width:4;"/>
   </g>
   <g id="line2d_2">
    <defs>
     <path d="M -0 7.778175 
L 7.778175 0 
L 0 -7.778175 
L -7.778175 -0 
z
" id="mbada94b775" style="stroke:#f5deb3;stroke-linejoin:miter;stroke-width:1.5;"/>
    </defs>
    <g>
     <use style="fill:#f5deb3;stroke:#f5deb3;stroke-linejoin:miter;stroke-width:1.5;" x="86.792945" xlink:href="#mbada94b775" y="262.075974"/>
     <use style="fill:#f5deb3;stroke:#f5deb3;stroke-linejoin:miter;stroke-width:1.5;" x="164.435497" xlink:href="#mbada94b775" y="172.539341"/>
     <use style="fill:#f5deb3;stroke:#f5deb3;stroke-linejoin:miter;stroke-width:1.5;" x="174.211117" xlink:href="#mbada94b775" y="51.401542"/>
     <use style="fill:#f5deb3;stroke:#f5deb3;stroke-linejoin:miter;stroke-width:1.5;" x="174.362732" xlink:href="#mbada94b775" y="30.334099"/>
     <use style="fill:#f5deb3;stroke:#f5deb3;stroke-linejoin:miter;stroke-width:1.5;" x="174.362732" xlink:href="#mbada94b775" y="30.334099"/>
     <use style="fill:#f5deb3;stroke:#f5deb3;stroke-linejoin:miter;stroke-width:1.5;" x="338.688" xlink:href="#mbada94b775" y="30.334099"/>
    </g>
   </g>
   <g id="line2d_3">
    <path style="fill:none;stroke:#f5deb3;stroke-linecap:square;stroke-width:4;"/>
    <g/>
   </g>
   <g id="line2d_4">
    <path d="M 338.688 30.334099 
L 369.60768 35.706297 
" style="fill:none;stroke:#f5deb3;stroke-linecap:square;stroke-width:4;"/>
    <g>
     <use style="fill:#f5deb3;stroke:#f5deb3;stroke-linejoin:miter;stroke-width:1.5;" x="338.688" xlink:href="#mbada94b775" y="30.334099"/>
     <use style="fill:#f5deb3;stroke:#f5deb3;stroke-linejoin:miter;stroke-width:1.5;" x="369.60768" xlink:href="#mbada94b775" y="35.706297"/>
    </g>
   </g>
   <g id="matplotlib.axis_1">
    <g id="xtick_1">
     <g id="line2d_5">
      <path clip-path="url(#p79f6994fce)" d="M 57.6 298.944 
L 57.6 27.648 
" style="fill:none;stroke:#b0b0b0;stroke-linecap:square;stroke-width:0.8;"/>
     </g>
     <g id="line2d_6">
      <defs>
       <path d="M 0 0 
L 0 3.5 
" id="m80063b3114" style="stroke:#000000;stroke-width:0.8;"/>
      </defs>
      <g>
       <use style="stroke:#000000;stroke-width:0.8;" x="57.6" xlink:href="#m80063b3114" y="298.944"/>
      </g>
     </g>
     <g id="text_1">
      <!-- 0 -->
      <g transform="translate(51.2375 321.140875)scale(0.2 -0.2)">
       <defs>
        <path d="M 31.78125 66.40625 
Q 24.171875 66.40625 20.328125 58.90625 
Q 16.5 51.421875 16.5 36.375 
Q 16.5 21.390625 20.328125 13.890625 
Q 24.171875 6.390625 31.78125 6.390625 
Q 39.453125 6.390625 43.28125 13.890625 
Q 47.125 21.390625 47.125 36.375 
Q 47.125 51.421875 43.28125 58.90625 
Q 39.453125 66.40625 31.78125 66.40625 
z
M 31.78125 74.21875 
Q 44.046875 74.21875 50.515625 64.515625 
Q 56.984375 54.828125 56.984375 36.375 
Q 56.984375 17.96875 50.515625 8.265625 
Q 44.046875 -1.421875 31.78125 -1.421875 
Q 19.53125 -1.421875 13.0625 8.265625 
Q 6.59375 17.96875 6.59375 36.375 
Q 6.59375 54.828125 13.0625 64.515625 
Q 19.53125 74.21875 31.78125 74.21875 
z
" id="DejaVuSans-48"/>
       </defs>
       <use xlink:href="#DejaVuSans-48"/>
      </g>
     </g>
    </g>
    <g id="xtick_2">
     <g id="line2d_7">
      <path clip-path="url(#p79f6994fce)" d="M 137.910857 298.944 
L 137.910857 27.648 
" style="fill:none;stroke:#b0b0b0;stroke-linecap:square;stroke-width:0.8;"/>
     </g>
     <g id="line2d_8">
      <g>
       <use style="stroke:#000000;stroke-width:0.8;" x="137.910857" xlink:href="#m80063b3114" y="298.944"/>
      </g>
     </g>
     <g id="text_2">
      <!-- 2 -->
      <g transform="translate(131.548357 321.140875)scale(0.2 -0.2)">
       <defs>
        <path d="M 19.1875 8.296875 
L 53.609375 8.296875 
L 53.609375 0 
L 7.328125 0 
L 7.328125 8.296875 
Q 12.9375 14.109375 22.625 23.890625 
Q 32.328125 33.6875 34.8125 36.53125 
Q 39.546875 41.84375 41.421875 45.53125 
Q 43.3125 49.21875 43.3125 52.78125 
Q 43.3125 58.59375 39.234375 62.25 
Q 35.15625 65.921875 28.609375 65.921875 
Q 23.96875 65.921875 18.8125 64.3125 
Q 13.671875 62.703125 7.8125 59.421875 
L 7.8125 69.390625 
Q 13.765625 71.78125 18.9375 73 
Q 24.125 74.21875 28.421875 74.21875 
Q 39.75 74.21875 46.484375 68.546875 
Q 53.21875 62.890625 53.21875 53.421875 
Q 53.21875 48.921875 51.53125 44.890625 
Q 49.859375 40.875 45.40625 35.40625 
Q 44.1875 33.984375 37.640625 27.21875 
Q 31.109375 20.453125 19.1875 8.296875 
z
" id="DejaVuSans-50"/>
       </defs>
       <use xlink:href="#DejaVuSans-50"/>
      </g>
     </g>
    </g>
    <g id="xtick_3">
     <g id="line2d_9">
      <path clip-path="url(#p79f6994fce)" d="M 218.221714 298.944 
L 218.221714 27.648 
" style="fill:none;stroke:#b0b0b0;stroke-linecap:square;stroke-width:0.8;"/>
     </g>
     <g id="line2d_10">
      <g>
       <use style="stroke:#000000;stroke-width:0.8;" x="218.221714" xlink:href="#m80063b3114" y="298.944"/>
      </g>
     </g>
     <g id="text_3">
      <!-- 4 -->
      <g transform="translate(211.859214 321.140875)scale(0.2 -0.2)">
       <defs>
        <path d="M 37.796875 64.3125 
L 12.890625 25.390625 
L 37.796875 25.390625 
z
M 35.203125 72.90625 
L 47.609375 72.90625 
L 47.609375 25.390625 
L 58.015625 25.390625 
L 58.015625 17.1875 
L 47.609375 17.1875 
L 47.609375 0 
L 37.796875 0 
L 37.796875 17.1875 
L 4.890625 17.1875 
L 4.890625 26.703125 
z
" id="DejaVuSans-52"/>
       </defs>
       <use xlink:href="#DejaVuSans-52"/>
      </g>
     </g>
    </g>
    <g id="xtick_4">
     <g id="line2d_11">
      <path clip-path="url(#p79f6994fce)" d="M 298.532571 298.944 
L 298.532571 27.648 
" style="fill:none;stroke:#b0b0b0;stroke-linecap:square;stroke-width:0.8;"/>
     </g>
     <g id="line2d_12">
      <g>
       <use style="stroke:#000000;stroke-width:0.8;" x="298.532571" xlink:href="#m80063b3114" y="298.944"/>
      </g>
     </g>
     <g id="text_4">
      <!-- 6 -->
      <g transform="translate(292.170071 321.140875)scale(0.2 -0.2)">
       <defs>
        <path d="M 33.015625 40.375 
Q 26.375 40.375 22.484375 35.828125 
Q 18.609375 31.296875 18.609375 23.390625 
Q 18.609375 15.53125 22.484375 10.953125 
Q 26.375 6.390625 33.015625 6.390625 
Q 39.65625 6.390625 43.53125 10.953125 
Q 47.40625 15.53125 47.40625 23.390625 
Q 47.40625 31.296875 43.53125 35.828125 
Q 39.65625 40.375 33.015625 40.375 
z
M 52.59375 71.296875 
L 52.59375 62.3125 
Q 48.875 64.0625 45.09375 64.984375 
Q 41.3125 65.921875 37.59375 65.921875 
Q 27.828125 65.921875 22.671875 59.328125 
Q 17.53125 52.734375 16.796875 39.40625 
Q 19.671875 43.65625 24.015625 45.921875 
Q 28.375 48.1875 33.59375 48.1875 
Q 44.578125 48.1875 50.953125 41.515625 
Q 57.328125 34.859375 57.328125 23.390625 
Q 57.328125 12.15625 50.6875 5.359375 
Q 44.046875 -1.421875 33.015625 -1.421875 
Q 20.359375 -1.421875 13.671875 8.265625 
Q 6.984375 17.96875 6.984375 36.375 
Q 6.984375 53.65625 15.1875 63.9375 
Q 23.390625 74.21875 37.203125 74.21875 
Q 40.921875 74.21875 44.703125 73.484375 
Q 48.484375 72.75 52.59375 71.296875 
z
" id="DejaVuSans-54"/>
       </defs>
       <use xlink:href="#DejaVuSans-54"/>
      </g>
     </g>
    </g>
    <g id="xtick_5">
     <g id="line2d_13">
      <path clip-path="url(#p79f6994fce)" d="M 97.755429 298.944 
L 97.755429 27.648 
" style="fill:none;stroke:#b0b0b0;stroke-linecap:square;stroke-width:0.8;"/>
     </g>
     <g id="line2d_14">
      <defs>
       <path d="M 0 0 
L 0 2 
" id="mc388d0deaf" style="stroke:#000000;stroke-width:0.6;"/>
      </defs>
      <g>
       <use style="stroke:#000000;stroke-width:0.6;" x="97.755429" xlink:href="#mc388d0deaf" y="298.944"/>
      </g>
     </g>
    </g>
    <g id="xtick_6">
     <g id="line2d_15">
      <path clip-path="url(#p79f6994fce)" d="M 178.066286 298.944 
L 178.066286 27.648 
" style="fill:none;stroke:#b0b0b0;stroke-linecap:square;stroke-width:0.8;"/>
     </g>
     <g id="line2d_16">
      <g>
       <use style="stroke:#000000;stroke-width:0.6;" x="178.066286" xlink:href="#mc388d0deaf" y="298.944"/>
      </g>
     </g>
    </g>
    <g id="xtick_7">
     <g id="line2d_17">
      <path clip-path="url(#p79f6994fce)" d="M 258.377143 298.944 
L 258.377143 27.648 
" style="fill:none;stroke:#b0b0b0;stroke-linecap:square;stroke-width:0.8;"/>
     </g>
     <g id="line2d_18">
      <g>
       <use style="stroke:#000000;stroke-width:0.6;" x="258.377143" xlink:href="#mc388d0deaf" y="298.944"/>
      </g>
     </g>
    </g>
    <g id="xtick_8">
     <g id="line2d_19">
      <path clip-path="url(#p79f6994fce)" d="M 338.688 298.944 
L 338.688 27.648 
" style="fill:none;stroke:#b0b0b0;stroke-linecap:square;stroke-width:0.8;"/>
     </g>
     <g id="line2d_20">
      <g>
       <use style="stroke:#000000;stroke-width:0.6;" x="338.688" xlink:href="#mc388d0deaf" y="298.944"/>
      </g>
     </g>
    </g>
    <g id="text_5">
     <!-- log10(# f-evals / dimension) -->
     <g transform="translate(77.764078 342.217594)scale(0.17 -0.17)">
      <defs>
       <path d="M 9.421875 75.984375 
L 18.40625 75.984375 
L 18.40625 0 
L 9.421875 0 
z
" id="DejaVuSans-108"/>
       <path d="M 30.609375 48.390625 
Q 23.390625 48.390625 19.1875 42.75 
Q 14.984375 37.109375 14.984375 27.296875 
Q 14.984375 17.484375 19.15625 11.84375 
Q 23.34375 6.203125 30.609375 6.203125 
Q 37.796875 6.203125 41.984375 11.859375 
Q 46.1875 17.53125 46.1875 27.296875 
Q 46.1875 37.015625 41.984375 42.703125 
Q 37.796875 48.390625 30.609375 48.390625 
z
M 30.609375 56 
Q 42.328125 56 49.015625 48.375 
Q 55.71875 40.765625 55.71875 27.296875 
Q 55.71875 13.875 49.015625 6.21875 
Q 42.328125 -1.421875 30.609375 -1.421875 
Q 18.84375 -1.421875 12.171875 6.21875 
Q 5.515625 13.875 5.515625 27.296875 
Q 5.515625 40.765625 12.171875 48.375 
Q 18.84375 56 30.609375 56 
z
" id="DejaVuSans-111"/>
       <path d="M 45.40625 27.984375 
Q 45.40625 37.75 41.375 43.109375 
Q 37.359375 48.484375 30.078125 48.484375 
Q 22.859375 48.484375 18.828125 43.109375 
Q 14.796875 37.75 14.796875 27.984375 
Q 14.796875 18.265625 18.828125 12.890625 
Q 22.859375 7.515625 30.078125 7.515625 
Q 37.359375 7.515625 41.375 12.890625 
Q 45.40625 18.265625 45.40625 27.984375 
z
M 54.390625 6.78125 
Q 54.390625 -7.171875 48.1875 -13.984375 
Q 42 -20.796875 29.203125 -20.796875 
Q 24.46875 -20.796875 20.265625 -20.09375 
Q 16.0625 -19.390625 12.109375 -17.921875 
L 12.109375 -9.1875 
Q 16.0625 -11.328125 19.921875 -12.34375 
Q 23.78125 -13.375 27.78125 -13.375 
Q 36.625 -13.375 41.015625 -8.765625 
Q 45.40625 -4.15625 45.40625 5.171875 
L 45.40625 9.625 
Q 42.625 4.78125 38.28125 2.390625 
Q 33.9375 0 27.875 0 
Q 17.828125 0 11.671875 7.65625 
Q 5.515625 15.328125 5.515625 27.984375 
Q 5.515625 40.671875 11.671875 48.328125 
Q 17.828125 56 27.875 56 
Q 33.9375 56 38.28125 53.609375 
Q 42.625 51.21875 45.40625 46.390625 
L 45.40625 54.6875 
L 54.390625 54.6875 
z
" id="DejaVuSans-103"/>
       <path d="M 12.40625 8.296875 
L 28.515625 8.296875 
L 28.515625 63.921875 
L 10.984375 60.40625 
L 10.984375 69.390625 
L 28.421875 72.90625 
L 38.28125 72.90625 
L 38.28125 8.296875 
L 54.390625 8.296875 
L 54.390625 0 
L 12.40625 0 
z
" id="DejaVuSans-49"/>
       <path d="M 31 75.875 
Q 24.46875 64.65625 21.28125 53.65625 
Q 18.109375 42.671875 18.109375 31.390625 
Q 18.109375 20.125 21.3125 9.0625 
Q 24.515625 -2 31 -13.1875 
L 23.1875 -13.1875 
Q 15.875 -1.703125 12.234375 9.375 
Q 8.59375 20.453125 8.59375 31.390625 
Q 8.59375 42.28125 12.203125 53.3125 
Q 15.828125 64.359375 23.1875 75.875 
z
" id="DejaVuSans-40"/>
       <path d="M 51.125 44 
L 36.921875 44 
L 32.8125 27.6875 
L 47.125 27.6875 
z
M 43.796875 71.78125 
L 38.71875 51.515625 
L 52.984375 51.515625 
L 58.109375 71.78125 
L 65.921875 71.78125 
L 60.890625 51.515625 
L 76.125 51.515625 
L 76.125 44 
L 58.984375 44 
L 54.984375 27.6875 
L 70.515625 27.6875 
L 70.515625 20.21875 
L 53.078125 20.21875 
L 48 0 
L 40.1875 0 
L 45.21875 20.21875 
L 30.90625 20.21875 
L 25.875 0 
L 18.015625 0 
L 23.09375 20.21875 
L 7.71875 20.21875 
L 7.71875 27.6875 
L 24.90625 27.6875 
L 29 44 
L 13.28125 44 
L 13.28125 51.515625 
L 30.90625 51.515625 
L 35.890625 71.78125 
z
" id="DejaVuSans-35"/>
       <path id="DejaVuSans-32"/>
       <path d="M 37.109375 75.984375 
L 37.109375 68.5 
L 28.515625 68.5 
Q 23.6875 68.5 21.796875 66.546875 
Q 19.921875 64.59375 19.921875 59.515625 
L 19.921875 54.6875 
L 34.71875 54.6875 
L 34.71875 47.703125 
L 19.921875 47.703125 
L 19.921875 0 
L 10.890625 0 
L 10.890625 47.703125 
L 2.296875 47.703125 
L 2.296875 54.6875 
L 10.890625 54.6875 
L 10.890625 58.5 
Q 10.890625 67.625 15.140625 71.796875 
Q 19.390625 75.984375 28.609375 75.984375 
z
" id="DejaVuSans-102"/>
       <path d="M 4.890625 31.390625 
L 31.203125 31.390625 
L 31.203125 23.390625 
L 4.890625 23.390625 
z
" id="DejaVuSans-45"/>
       <path d="M 56.203125 29.59375 
L 56.203125 25.203125 
L 14.890625 25.203125 
Q 15.484375 15.921875 20.484375 11.0625 
Q 25.484375 6.203125 34.421875 6.203125 
Q 39.59375 6.203125 44.453125 7.46875 
Q 49.3125 8.734375 54.109375 11.28125 
L 54.109375 2.78125 
Q 49.265625 0.734375 44.1875 -0.34375 
Q 39.109375 -1.421875 33.890625 -1.421875 
Q 20.796875 -1.421875 13.15625 6.1875 
Q 5.515625 13.8125 5.515625 26.8125 
Q 5.515625 40.234375 12.765625 48.109375 
Q 20.015625 56 32.328125 56 
Q 43.359375 56 49.78125 48.890625 
Q 56.203125 41.796875 56.203125 29.59375 
z
M 47.21875 32.234375 
Q 47.125 39.59375 43.09375 43.984375 
Q 39.0625 48.390625 32.421875 48.390625 
Q 24.90625 48.390625 20.390625 44.140625 
Q 15.875 39.890625 15.1875 32.171875 
z
" id="DejaVuSans-101"/>
       <path d="M 2.984375 54.6875 
L 12.5 54.6875 
L 29.59375 8.796875 
L 46.6875 54.6875 
L 56.203125 54.6875 
L 35.6875 0 
L 23.484375 0 
z
" id="DejaVuSans-118"/>
       <path d="M 34.28125 27.484375 
Q 23.390625 27.484375 19.1875 25 
Q 14.984375 22.515625 14.984375 16.5 
Q 14.984375 11.71875 18.140625 8.90625 
Q 21.296875 6.109375 26.703125 6.109375 
Q 34.1875 6.109375 38.703125 11.40625 
Q 43.21875 16.703125 43.21875 25.484375 
L 43.21875 27.484375 
z
M 52.203125 31.203125 
L 52.203125 0 
L 43.21875 0 
L 43.21875 8.296875 
Q 40.140625 3.328125 35.546875 0.953125 
Q 30.953125 -1.421875 24.3125 -1.421875 
Q 15.921875 -1.421875 10.953125 3.296875 
Q 6 8.015625 6 15.921875 
Q 6 25.140625 12.171875 29.828125 
Q 18.359375 34.515625 30.609375 34.515625 
L 43.21875 34.515625 
L 43.21875 35.40625 
Q 43.21875 41.609375 39.140625 45 
Q 35.0625 48.390625 27.6875 48.390625 
Q 23 48.390625 18.546875 47.265625 
Q 14.109375 46.140625 10.015625 43.890625 
L 10.015625 52.203125 
Q 14.9375 54.109375 19.578125 55.046875 
Q 24.21875 56 28.609375 56 
Q 40.484375 56 46.34375 49.84375 
Q 52.203125 43.703125 52.203125 31.203125 
z
" id="DejaVuSans-97"/>
       <path d="M 44.28125 53.078125 
L 44.28125 44.578125 
Q 40.484375 46.53125 36.375 47.5 
Q 32.28125 48.484375 27.875 48.484375 
Q 21.1875 48.484375 17.84375 46.4375 
Q 14.5 44.390625 14.5 40.28125 
Q 14.5 37.15625 16.890625 35.375 
Q 19.28125 33.59375 26.515625 31.984375 
L 29.59375 31.296875 
Q 39.15625 29.25 43.1875 25.515625 
Q 47.21875 21.78125 47.21875 15.09375 
Q 47.21875 7.46875 41.1875 3.015625 
Q 35.15625 -1.421875 24.609375 -1.421875 
Q 20.21875 -1.421875 15.453125 -0.5625 
Q 10.6875 0.296875 5.421875 2 
L 5.421875 11.28125 
Q 10.40625 8.6875 15.234375 7.390625 
Q 20.0625 6.109375 24.8125 6.109375 
Q 31.15625 6.109375 34.5625 8.28125 
Q 37.984375 10.453125 37.984375 14.40625 
Q 37.984375 18.0625 35.515625 20.015625 
Q 33.0625 21.96875 24.703125 23.78125 
L 21.578125 24.515625 
Q 13.234375 26.265625 9.515625 29.90625 
Q 5.8125 33.546875 5.8125 39.890625 
Q 5.8125 47.609375 11.28125 51.796875 
Q 16.75 56 26.8125 56 
Q 31.78125 56 36.171875 55.265625 
Q 40.578125 54.546875 44.28125 53.078125 
z
" id="DejaVuSans-115"/>
       <path d="M 25.390625 72.90625 
L 33.6875 72.90625 
L 8.296875 -9.28125 
L 0 -9.28125 
z
" id="DejaVuSans-47"/>
       <path d="M 45.40625 46.390625 
L 45.40625 75.984375 
L 54.390625 75.984375 
L 54.390625 0 
L 45.40625 0 
L 45.40625 8.203125 
Q 42.578125 3.328125 38.25 0.953125 
Q 33.9375 -1.421875 27.875 -1.421875 
Q 17.96875 -1.421875 11.734375 6.484375 
Q 5.515625 14.40625 5.515625 27.296875 
Q 5.515625 40.1875 11.734375 48.09375 
Q 17.96875 56 27.875 56 
Q 33.9375 56 38.25 53.625 
Q 42.578125 51.265625 45.40625 46.390625 
z
M 14.796875 27.296875 
Q 14.796875 17.390625 18.875 11.75 
Q 22.953125 6.109375 30.078125 6.109375 
Q 37.203125 6.109375 41.296875 11.75 
Q 45.40625 17.390625 45.40625 27.296875 
Q 45.40625 37.203125 41.296875 42.84375 
Q 37.203125 48.484375 30.078125 48.484375 
Q 22.953125 48.484375 18.875 42.84375 
Q 14.796875 37.203125 14.796875 27.296875 
z
" id="DejaVuSans-100"/>
       <path d="M 9.421875 54.6875 
L 18.40625 54.6875 
L 18.40625 0 
L 9.421875 0 
z
M 9.421875 75.984375 
L 18.40625 75.984375 
L 18.40625 64.59375 
L 9.421875 64.59375 
z
" id="DejaVuSans-105"/>
       <path d="M 52 44.1875 
Q 55.375 50.25 60.0625 53.125 
Q 64.75 56 71.09375 56 
Q 79.640625 56 84.28125 50.015625 
Q 88.921875 44.046875 88.921875 33.015625 
L 88.921875 0 
L 79.890625 0 
L 79.890625 32.71875 
Q 79.890625 40.578125 77.09375 44.375 
Q 74.3125 48.1875 68.609375 48.1875 
Q 61.625 48.1875 57.5625 43.546875 
Q 53.515625 38.921875 53.515625 30.90625 
L 53.515625 0 
L 44.484375 0 
L 44.484375 32.71875 
Q 44.484375 40.625 41.703125 44.40625 
Q 38.921875 48.1875 33.109375 48.1875 
Q 26.21875 48.1875 22.15625 43.53125 
Q 18.109375 38.875 18.109375 30.90625 
L 18.109375 0 
L 9.078125 0 
L 9.078125 54.6875 
L 18.109375 54.6875 
L 18.109375 46.1875 
Q 21.1875 51.21875 25.484375 53.609375 
Q 29.78125 56 35.6875 56 
Q 41.65625 56 45.828125 52.96875 
Q 50 49.953125 52 44.1875 
z
" id="DejaVuSans-109"/>
       <path d="M 54.890625 33.015625 
L 54.890625 0 
L 45.90625 0 
L 45.90625 32.71875 
Q 45.90625 40.484375 42.875 44.328125 
Q 39.84375 48.1875 33.796875 48.1875 
Q 26.515625 48.1875 22.3125 43.546875 
Q 18.109375 38.921875 18.109375 30.90625 
L 18.109375 0 
L 9.078125 0 
L 9.078125 54.6875 
L 18.109375 54.6875 
L 18.109375 46.1875 
Q 21.34375 51.125 25.703125 53.5625 
Q 30.078125 56 35.796875 56 
Q 45.21875 56 50.046875 50.171875 
Q 54.890625 44.34375 54.890625 33.015625 
z
" id="DejaVuSans-110"/>
       <path d="M 8.015625 75.875 
L 15.828125 75.875 
Q 23.140625 64.359375 26.78125 53.3125 
Q 30.421875 42.28125 30.421875 31.390625 
Q 30.421875 20.453125 26.78125 9.375 
Q 23.140625 -1.703125 15.828125 -13.1875 
L 8.015625 -13.1875 
Q 14.5 -2 17.703125 9.0625 
Q 20.90625 20.125 20.90625 31.390625 
Q 20.90625 42.671875 17.703125 53.65625 
Q 14.5 64.65625 8.015625 75.875 
z
" id="DejaVuSans-41"/>
      </defs>
      <use xlink:href="#DejaVuSans-108"/>
      <use x="27.783203" xlink:href="#DejaVuSans-111"/>
      <use x="88.964844" xlink:href="#DejaVuSans-103"/>
      <use x="152.441406" xlink:href="#DejaVuSans-49"/>
      <use x="216.064453" xlink:href="#DejaVuSans-48"/>
      <use x="279.6875" xlink:href="#DejaVuSans-40"/>
      <use x="318.701172" xlink:href="#DejaVuSans-35"/>
      <use x="402.490234" xlink:href="#DejaVuSans-32"/>
      <use x="434.277344" xlink:href="#DejaVuSans-102"/>
      <use x="463.982422" xlink:href="#DejaVuSans-45"/>
      <use x="500.066406" xlink:href="#DejaVuSans-101"/>
      <use x="561.589844" xlink:href="#DejaVuSans-118"/>
      <use x="620.769531" xlink:href="#DejaVuSans-97"/>
      <use x="682.048828" xlink:href="#DejaVuSans-108"/>
      <use x="709.832031" xlink:href="#DejaVuSans-115"/>
      <use x="761.931641" xlink:href="#DejaVuSans-32"/>
      <use x="793.71875" xlink:href="#DejaVuSans-47"/>
      <use x="827.410156" xlink:href="#DejaVuSans-32"/>
      <use x="859.197266" xlink:href="#DejaVuSans-100"/>
      <use x="922.673828" xlink:href="#DejaVuSans-105"/>
      <use x="950.457031" xlink:href="#DejaVuSans-109"/>
      <use x="1047.869141" xlink:href="#DejaVuSans-101"/>
      <use x="1109.392578" xlink:href="#DejaVuSans-110"/>
      <use x="1172.771484" xlink:href="#DejaVuSans-115"/>
      <use x="1224.871094" xlink:href="#DejaVuSans-105"/>
      <use x="1252.654297" xlink:href="#DejaVuSans-111"/>
      <use x="1313.835938" xlink:href="#DejaVuSans-110"/>
      <use x="1377.214844" xlink:href="#DejaVuSans-41"/>
     </g>
    </g>
   </g>
   <g id="matplotlib.axis_2">
    <g id="ytick_1">
     <g id="line2d_21">
      <path clip-path="url(#p79f6994fce)" d="M 57.6 298.944 
L 338.688 298.944 
" style="fill:none;stroke:#b0b0b0;stroke-linecap:square;stroke-width:0.8;"/>
     </g>
     <g id="line2d_22">
      <defs>
       <path d="M 0 0 
L -3.5 0 
" id="mb345417911" style="stroke:#000000;stroke-width:0.8;"/>
      </defs>
      <g>
       <use style="stroke:#000000;stroke-width:0.8;" x="57.6" xlink:href="#mb345417911" y="298.944"/>
      </g>
     </g>
     <g id="text_6">
      <!-- 0.0 -->
      <g transform="translate(25.155 305.02275)scale(0.16 -0.16)">
       <defs>
        <path d="M 10.6875 12.40625 
L 21 12.40625 
L 21 0 
L 10.6875 0 
z
" id="DejaVuSans-46"/>
       </defs>
       <use xlink:href="#DejaVuSans-48"/>
       <use x="63.623047" xlink:href="#DejaVuSans-46"/>
       <use x="95.410156" xlink:href="#DejaVuSans-48"/>
      </g>
     </g>
    </g>
    <g id="ytick_2">
     <g id="line2d_23">
      <path clip-path="url(#p79f6994fce)" d="M 57.6 245.22202 
L 338.688 245.22202 
" style="fill:none;stroke:#b0b0b0;stroke-linecap:square;stroke-width:0.8;"/>
     </g>
     <g id="line2d_24">
      <g>
       <use style="stroke:#000000;stroke-width:0.8;" x="57.6" xlink:href="#mb345417911" y="245.22202"/>
      </g>
     </g>
     <g id="text_7">
      <!-- 0.2 -->
      <g transform="translate(25.155 251.30077)scale(0.16 -0.16)">
       <use xlink:href="#DejaVuSans-48"/>
       <use x="63.623047" xlink:href="#DejaVuSans-46"/>
       <use x="95.410156" xlink:href="#DejaVuSans-50"/>
      </g>
     </g>
    </g>
    <g id="ytick_3">
     <g id="line2d_25">
      <path clip-path="url(#p79f6994fce)" d="M 57.6 191.50004 
L 338.688 191.50004 
" style="fill:none;stroke:#b0b0b0;stroke-linecap:square;stroke-width:0.8;"/>
     </g>
     <g id="line2d_26">
      <g>
       <use style="stroke:#000000;stroke-width:0.8;" x="57.6" xlink:href="#mb345417911" y="191.50004"/>
      </g>
     </g>
     <g id="text_8">
      <!-- 0.4 -->
      <g transform="translate(25.155 197.57879)scale(0.16 -0.16)">
       <use xlink:href="#DejaVuSans-48"/>
       <use x="63.623047" xlink:href="#DejaVuSans-46"/>
       <use x="95.410156" xlink:href="#DejaVuSans-52"/>
      </g>
     </g>
    </g>
    <g id="ytick_4">
     <g id="line2d_27">
      <path clip-path="url(#p79f6994fce)" d="M 57.6 137.778059 
L 338.688 137.778059 
" style="fill:none;stroke:#b0b0b0;stroke-linecap:square;stroke-width:0.8;"/>
     </g>
     <g id="line2d_28">
      <g>
       <use style="stroke:#000000;stroke-width:0.8;" x="57.6" xlink:href="#mb345417911" y="137.778059"/>
      </g>
     </g>
     <g id="text_9">
      <!-- 0.6 -->
      <g transform="translate(25.155 143.856809)scale(0.16 -0.16)">
       <use xlink:href="#DejaVuSans-48"/>
       <use x="63.623047" xlink:href="#DejaVuSans-46"/>
       <use x="95.410156" xlink:href="#DejaVuSans-54"/>
      </g>
     </g>
    </g>
    <g id="ytick_5">
     <g id="line2d_29">
      <path clip-path="url(#p79f6994fce)" d="M 57.6 84.056079 
L 338.688 84.056079 
" style="fill:none;stroke:#b0b0b0;stroke-linecap:square;stroke-width:0.8;"/>
     </g>
     <g id="line2d_30">
      <g>
       <use style="stroke:#000000;stroke-width:0.8;" x="57.6" xlink:href="#mb345417911" y="84.056079"/>
      </g>
     </g>
     <g id="text_10">
      <!-- 0.8 -->
      <g transform="translate(25.155 90.134829)scale(0.16 -0.16)">
       <defs>
        <path d="M 31.78125 34.625 
Q 24.75 34.625 20.71875 30.859375 
Q 16.703125 27.09375 16.703125 20.515625 
Q 16.703125 13.921875 20.71875 10.15625 
Q 24.75 6.390625 31.78125 6.390625 
Q 38.8125 6.390625 42.859375 10.171875 
Q 46.921875 13.96875 46.921875 20.515625 
Q 46.921875 27.09375 42.890625 30.859375 
Q 38.875 34.625 31.78125 34.625 
z
M 21.921875 38.8125 
Q 15.578125 40.375 12.03125 44.71875 
Q 8.5 49.078125 8.5 55.328125 
Q 8.5 64.0625 14.71875 69.140625 
Q 20.953125 74.21875 31.78125 74.21875 
Q 42.671875 74.21875 48.875 69.140625 
Q 55.078125 64.0625 55.078125 55.328125 
Q 55.078125 49.078125 51.53125 44.71875 
Q 48 40.375 41.703125 38.8125 
Q 48.828125 37.15625 52.796875 32.3125 
Q 56.78125 27.484375 56.78125 20.515625 
Q 56.78125 9.90625 50.3125 4.234375 
Q 43.84375 -1.421875 31.78125 -1.421875 
Q 19.734375 -1.421875 13.25 4.234375 
Q 6.78125 9.90625 6.78125 20.515625 
Q 6.78125 27.484375 10.78125 32.3125 
Q 14.796875 37.15625 21.921875 38.8125 
z
M 18.3125 54.390625 
Q 18.3125 48.734375 21.84375 45.5625 
Q 25.390625 42.390625 31.78125 42.390625 
Q 38.140625 42.390625 41.71875 45.5625 
Q 45.3125 48.734375 45.3125 54.390625 
Q 45.3125 60.0625 41.71875 63.234375 
Q 38.140625 66.40625 31.78125 66.40625 
Q 25.390625 66.40625 21.84375 63.234375 
Q 18.3125 60.0625 18.3125 54.390625 
z
" id="DejaVuSans-56"/>
       </defs>
       <use xlink:href="#DejaVuSans-48"/>
       <use x="63.623047" xlink:href="#DejaVuSans-46"/>
       <use x="95.410156" xlink:href="#DejaVuSans-56"/>
      </g>
     </g>
    </g>
    <g id="ytick_6">
     <g id="line2d_31">
      <path clip-path="url(#p79f6994fce)" d="M 57.6 30.334099 
L 338.688 30.334099 
" style="fill:none;stroke:#b0b0b0;stroke-linecap:square;stroke-width:0.8;"/>
     </g>
     <g id="line2d_32">
      <g>
       <use style="stroke:#000000;stroke-width:0.8;" x="57.6" xlink:href="#mb345417911" y="30.334099"/>
      </g>
     </g>
     <g id="text_11">
      <!-- 1.0 -->
      <g transform="translate(25.155 36.412849)scale(0.16 -0.16)">
       <use xlink:href="#DejaVuSans-49"/>
       <use x="63.623047" xlink:href="#DejaVuSans-46"/>
       <use x="95.410156" xlink:href="#DejaVuSans-48"/>
      </g>
     </g>
    </g>
    <g id="text_12">
     <!-- Fraction of function,target pairs -->
     <g transform="translate(17.619531 297.681)rotate(-90)scale(0.17 -0.17)">
      <defs>
       <path d="M 9.8125 72.90625 
L 51.703125 72.90625 
L 51.703125 64.59375 
L 19.671875 64.59375 
L 19.671875 43.109375 
L 48.578125 43.109375 
L 48.578125 34.8125 
L 19.671875 34.8125 
L 19.671875 0 
L 9.8125 0 
z
" id="DejaVuSans-70"/>
       <path d="M 41.109375 46.296875 
Q 39.59375 47.171875 37.8125 47.578125 
Q 36.03125 48 33.890625 48 
Q 26.265625 48 22.1875 43.046875 
Q 18.109375 38.09375 18.109375 28.8125 
L 18.109375 0 
L 9.078125 0 
L 9.078125 54.6875 
L 18.109375 54.6875 
L 18.109375 46.1875 
Q 20.953125 51.171875 25.484375 53.578125 
Q 30.03125 56 36.53125 56 
Q 37.453125 56 38.578125 55.875 
Q 39.703125 55.765625 41.0625 55.515625 
z
" id="DejaVuSans-114"/>
       <path d="M 48.78125 52.59375 
L 48.78125 44.1875 
Q 44.96875 46.296875 41.140625 47.34375 
Q 37.3125 48.390625 33.40625 48.390625 
Q 24.65625 48.390625 19.8125 42.84375 
Q 14.984375 37.3125 14.984375 27.296875 
Q 14.984375 17.28125 19.8125 11.734375 
Q 24.65625 6.203125 33.40625 6.203125 
Q 37.3125 6.203125 41.140625 7.25 
Q 44.96875 8.296875 48.78125 10.40625 
L 48.78125 2.09375 
Q 45.015625 0.34375 40.984375 -0.53125 
Q 36.96875 -1.421875 32.421875 -1.421875 
Q 20.0625 -1.421875 12.78125 6.34375 
Q 5.515625 14.109375 5.515625 27.296875 
Q 5.515625 40.671875 12.859375 48.328125 
Q 20.21875 56 33.015625 56 
Q 37.15625 56 41.109375 55.140625 
Q 45.0625 54.296875 48.78125 52.59375 
z
" id="DejaVuSans-99"/>
       <path d="M 18.3125 70.21875 
L 18.3125 54.6875 
L 36.8125 54.6875 
L 36.8125 47.703125 
L 18.3125 47.703125 
L 18.3125 18.015625 
Q 18.3125 11.328125 20.140625 9.421875 
Q 21.96875 7.515625 27.59375 7.515625 
L 36.8125 7.515625 
L 36.8125 0 
L 27.59375 0 
Q 17.1875 0 13.234375 3.875 
Q 9.28125 7.765625 9.28125 18.015625 
L 9.28125 47.703125 
L 2.6875 47.703125 
L 2.6875 54.6875 
L 9.28125 54.6875 
L 9.28125 70.21875 
z
" id="DejaVuSans-116"/>
       <path d="M 8.5 21.578125 
L 8.5 54.6875 
L 17.484375 54.6875 
L 17.484375 21.921875 
Q 17.484375 14.15625 20.5 10.265625 
Q 23.53125 6.390625 29.59375 6.390625 
Q 36.859375 6.390625 41.078125 11.03125 
Q 45.3125 15.671875 45.3125 23.6875 
L 45.3125 54.6875 
L 54.296875 54.6875 
L 54.296875 0 
L 45.3125 0 
L 45.3125 8.40625 
Q 42.046875 3.421875 37.71875 1 
Q 33.40625 -1.421875 27.6875 -1.421875 
Q 18.265625 -1.421875 13.375 4.4375 
Q 8.5 10.296875 8.5 21.578125 
z
M 31.109375 56 
z
" id="DejaVuSans-117"/>
       <path d="M 11.71875 12.40625 
L 22.015625 12.40625 
L 22.015625 4 
L 14.015625 -11.625 
L 7.71875 -11.625 
L 11.71875 4 
z
" id="DejaVuSans-44"/>
       <path d="M 18.109375 8.203125 
L 18.109375 -20.796875 
L 9.078125 -20.796875 
L 9.078125 54.6875 
L 18.109375 54.6875 
L 18.109375 46.390625 
Q 20.953125 51.265625 25.265625 53.625 
Q 29.59375 56 35.59375 56 
Q 45.5625 56 51.78125 48.09375 
Q 58.015625 40.1875 58.015625 27.296875 
Q 58.015625 14.40625 51.78125 6.484375 
Q 45.5625 -1.421875 35.59375 -1.421875 
Q 29.59375 -1.421875 25.265625 0.953125 
Q 20.953125 3.328125 18.109375 8.203125 
z
M 48.6875 27.296875 
Q 48.6875 37.203125 44.609375 42.84375 
Q 40.53125 48.484375 33.40625 48.484375 
Q 26.265625 48.484375 22.1875 42.84375 
Q 18.109375 37.203125 18.109375 27.296875 
Q 18.109375 17.390625 22.1875 11.75 
Q 26.265625 6.109375 33.40625 6.109375 
Q 40.53125 6.109375 44.609375 11.75 
Q 48.6875 17.390625 48.6875 27.296875 
z
" id="DejaVuSans-112"/>
      </defs>
      <use xlink:href="#DejaVuSans-70"/>
      <use x="50.269531" xlink:href="#DejaVuSans-114"/>
      <use x="91.382812" xlink:href="#DejaVuSans-97"/>
      <use x="152.662109" xlink:href="#DejaVuSans-99"/>
      <use x="207.642578" xlink:href="#DejaVuSans-116"/>
      <use x="246.851562" xlink:href="#DejaVuSans-105"/>
      <use x="274.634766" xlink:href="#DejaVuSans-111"/>
      <use x="335.816406" xlink:href="#DejaVuSans-110"/>
      <use x="399.195312" xlink:href="#DejaVuSans-32"/>
      <use x="430.982422" xlink:href="#DejaVuSans-111"/>
      <use x="492.164062" xlink:href="#DejaVuSans-102"/>
      <use x="527.369141" xlink:href="#DejaVuSans-32"/>
      <use x="559.15625" xlink:href="#DejaVuSans-102"/>
      <use x="594.361328" xlink:href="#DejaVuSans-117"/>
      <use x="657.740234" xlink:href="#DejaVuSans-110"/>
      <use x="721.119141" xlink:href="#DejaVuSans-99"/>
      <use x="776.099609" xlink:href="#DejaVuSans-116"/>
      <use x="815.308594" xlink:href="#DejaVuSans-105"/>
      <use x="843.091797" xlink:href="#DejaVuSans-111"/>
      <use x="904.273438" xlink:href="#DejaVuSans-110"/>
      <use x="967.652344" xlink:href="#DejaVuSans-44"/>
      <use x="999.439453" xlink:href="#DejaVuSans-116"/>
      <use x="1038.648438" xlink:href="#DejaVuSans-97"/>
      <use x="1099.927734" xlink:href="#DejaVuSans-114"/>
      <use x="1139.291016" xlink:href="#DejaVuSans-103"/>
      <use x="1202.767578" xlink:href="#DejaVuSans-101"/>
      <use x="1264.291016" xlink:href="#DejaVuSans-116"/>
      <use x="1303.5" xlink:href="#DejaVuSans-32"/>
      <use x="1335.287109" xlink:href="#DejaVuSans-112"/>
      <use x="1398.763672" xlink:href="#DejaVuSans-97"/>
      <use x="1460.042969" xlink:href="#DejaVuSans-105"/>
      <use x="1487.826172" xlink:href="#DejaVuSans-114"/>
      <use x="1528.939453" xlink:href="#DejaVuSans-115"/>
     </g>
    </g>
   </g>
   <g id="line2d_33">
    <defs>
     <path d="M 0 1.5 
C 0.397805 1.5 0.77937 1.341951 1.06066 1.06066 
C 1.341951 0.77937 1.5 0.397805 1.5 0 
C 1.5 -0.397805 1.341951 -0.77937 1.06066 -1.06066 
C 0.77937 -1.341951 0.397805 -1.5 0 -1.5 
C -0.397805 -1.5 -0.77937 -1.341951 -1.06066 -1.06066 
C -1.341951 -0.77937 -1.5 -0.397805 -1.5 0 
C -1.5 0.397805 -1.341951 0.77937 -1.06066 1.06066 
C -0.77937 1.341951 -0.397805 1.5 0 1.5 
z
" id="m6a74b4f3e3" style="stroke:#f5deb3;"/>
    </defs>
    <g>
     <use style="fill:#f5deb3;stroke:#f5deb3;" x="174.362732" xlink:href="#m6a74b4f3e3" y="30.334099"/>
     <use style="fill:#f5deb3;stroke:#f5deb3;" x="174.362732" xlink:href="#m6a74b4f3e3" y="30.334099"/>
    </g>
   </g>
   <g id="line2d_34">
    <defs>
     <path d="M 0 1.5 
C 0.397805 1.5 0.77937 1.341951 1.06066 1.06066 
C 1.341951 0.77937 1.5 0.397805 1.5 0 
C 1.5 -0.397805 1.341951 -0.77937 1.06066 -1.06066 
C 0.77937 -1.341951 0.397805 -1.5 0 -1.5 
C -0.397805 -1.5 -0.77937 -1.341951 -1.06066 -1.06066 
C -1.341951 -0.77937 -1.5 -0.397805 -1.5 0 
C -1.5 0.397805 -1.341951 0.77937 -1.06066 1.06066 
C -0.77937 1.341951 -0.397805 1.5 0 1.5 
z
" id="m1829458e91" style="stroke:#000080;"/>
    </defs>
    <g>
     <use style="fill:#000080;stroke:#000080;" x="232.67893" xlink:href="#m1829458e91" y="30.334099"/>
     <use style="fill:#000080;stroke:#000080;" x="232.67893" xlink:href="#m1829458e91" y="30.334099"/>
    </g>
   </g>
   <g id="line2d_35">
    <path d="M 38.440992 298.944 
L 38.440992 276.296499 
L 50.52898 276.296499 
L 50.52898 274.189754 
L 57.6 274.189754 
L 57.6 272.609696 
L 62.616969 272.609696 
L 62.616969 269.976266 
L 66.508432 269.976266 
L 66.508432 269.449579 
L 69.687988 269.449579 
L 69.687988 267.869521 
L 72.376266 267.869521 
L 72.376266 266.816149 
L 76.759008 266.816149 
L 76.759008 266.289463 
L 83.171864 266.289463 
L 83.171864 265.236091 
L 84.464254 265.236091 
L 84.464254 264.182719 
L 87.850195 264.182719 
L 87.850195 263.656033 
L 90.684409 263.656033 
L 90.684409 263.129347 
L 91.535274 263.129347 
L 91.535274 262.60266 
L 93.863965 262.60266 
L 93.863965 261.549288 
L 95.259853 261.549288 
L 95.259853 260.495916 
L 97.755429 260.495916 
L 97.755429 259.442544 
L 103.623262 259.442544 
L 103.623262 258.915858 
L 106.66386 258.915858 
L 106.66386 257.862486 
L 108.326001 257.862486 
L 108.326001 257.3358 
L 108.640231 257.3358 
L 108.640231 256.282427 
L 115.917635 256.282427 
L 115.917635 255.755741 
L 125.23165 255.755741 
L 125.23165 255.229055 
L 128.005624 255.229055 
L 128.005624 254.175683 
L 130.218525 254.175683 
L 130.218525 253.648997 
L 133.352844 253.648997 
L 133.352844 252.068939 
L 135.076644 252.068939 
L 135.076644 251.542253 
L 138.369812 251.542253 
L 138.369812 251.015567 
L 139.306744 251.015567 
L 139.306744 250.488881 
L 142.033307 250.488881 
L 142.033307 249.962195 
L 147.70334 249.962195 
L 147.70334 249.435508 
L 150.429467 249.435508 
L 150.429467 248.908822 
L 150.932558 248.908822 
L 150.932558 248.382136 
L 151.528368 248.382136 
L 151.528368 247.85545 
L 152.309362 247.85545 
L 152.309362 247.328764 
L 152.687123 247.328764 
L 152.687123 246.802078 
L 153.29909 246.802078 
L 153.29909 246.275392 
L 153.418948 246.275392 
L 153.418948 245.748706 
L 153.750233 245.748706 
L 153.843742 244.695334 
L 154.121296 244.695334 
L 154.121296 244.168648 
L 154.551917 244.168648 
L 154.551917 243.641962 
L 154.81851 243.641962 
L 154.928399 242.588589 
L 155.949527 242.588589 
L 155.949527 242.061903 
L 156.297301 242.061903 
L 156.337763 239.955159 
L 157.243392 239.955159 
L 157.243392 239.428473 
L 157.472107 239.428473 
L 157.472107 238.901787 
L 157.939176 238.901787 
L 157.939176 238.375101 
L 158.213527 238.375101 
L 158.213527 237.848415 
L 158.447857 237.848415 
L 158.447857 236.795043 
L 158.590511 236.795043 
L 158.590511 236.268356 
L 158.889829 236.268356 
L 158.889829 235.214984 
L 159.115303 235.214984 
L 159.115303 234.688298 
L 159.405822 234.688298 
L 159.405822 233.10824 
L 160.585265 233.10824 
L 160.69579 232.054868 
L 161.146363 232.054868 
L 161.253399 231.001496 
L 161.405178 231.001496 
L 161.450455 229.948123 
L 161.555647 229.948123 
L 161.660209 228.368065 
L 162.231559 228.368065 
L 162.303474 226.261321 
L 162.588203 226.261321 
L 162.68677 225.207949 
L 162.79874 225.207949 
L 162.896128 224.154577 
L 163.061823 224.154577 
L 163.061823 222.574518 
L 163.266752 222.574518 
L 163.266752 222.047832 
L 163.682792 222.047832 
L 163.682792 221.521146 
L 163.932963 221.521146 
L 163.985177 220.467774 
L 164.153799 220.467774 
L 164.153799 218.887716 
L 164.269589 218.887716 
L 164.269589 218.36103 
L 164.498889 218.36103 
L 164.498889 217.834344 
L 164.612418 217.834344 
L 164.612418 217.307658 
L 164.787563 217.307658 
L 164.787563 216.780971 
L 165.217881 216.780971 
L 165.242153 215.200913 
L 165.506937 215.200913 
L 165.566558 214.147541 
L 165.697012 214.147541 
L 165.76776 213.094169 
L 165.873346 213.094169 
L 165.896723 212.040797 
L 166.117256 212.040797 
L 166.117256 211.514111 
L 166.829163 211.514111 
L 166.829163 210.460738 
L 167.223287 210.460738 
L 167.223287 209.934052 
L 167.341959 209.934052 
L 167.341959 209.407366 
L 168.696445 209.407366 
L 168.696445 208.88068 
L 169.720307 208.88068 
L 169.720307 208.353994 
L 169.897641 208.353994 
L 169.897641 207.300622 
L 170.301516 207.300622 
L 170.373953 206.24725 
L 170.553741 206.24725 
L 170.553741 205.720564 
L 170.925369 205.720564 
L 170.925369 205.193878 
L 171.056197 205.193878 
L 171.142873 204.140506 
L 171.451389 204.140506 
L 171.451389 203.613819 
L 171.871027 203.613819 
L 171.978498 202.560447 
L 182.115152 202.560447 
L 182.115152 202.033761 
L 182.47549 202.033761 
L 182.47549 201.507075 
L 182.995839 201.507075 
L 182.995839 200.980389 
L 183.187577 200.980389 
L 183.187577 200.453703 
L 183.573323 200.453703 
L 183.573323 199.927017 
L 186.936309 199.927017 
L 186.957269 198.873645 
L 187.165502 198.873645 
L 187.251537 197.820273 
L 187.418945 197.820273 
L 187.418945 197.293586 
L 187.755686 197.293586 
L 187.862084 196.240214 
L 188.004042 196.240214 
L 188.004042 195.713528 
L 188.174183 195.713528 
L 188.174183 194.13347 
L 188.403842 194.13347 
L 188.403842 193.606784 
L 188.551037 193.606784 
L 188.617823 192.026726 
L 188.778963 192.026726 
L 188.829211 190.973354 
L 188.913678 190.973354 
L 189.01326 189.393295 
L 189.053554 189.393295 
L 189.133862 187.286551 
L 189.369552 187.286551 
L 189.424193 186.233179 
L 189.493762 186.233179 
L 189.493762 185.179807 
L 191.686459 185.179807 
L 191.686459 184.653121 
L 191.963761 184.653121 
L 191.984709 183.599748 
L 192.130645 183.599748 
L 192.130645 183.073062 
L 192.586566 183.073062 
L 192.586566 182.546376 
L 193.00374 182.546376 
L 193.048115 181.493004 
L 193.202544 181.493004 
L 193.28775 180.439632 
L 193.377375 180.439632 
L 193.456924 178.332888 
L 193.683923 178.332888 
L 193.788067 177.279515 
L 193.861069 177.279515 
L 193.912693 175.699457 
L 193.978175 175.699457 
L 194.036434 173.592713 
L 194.187003 173.592713 
L 194.285901 171.485969 
L 194.370552 171.485969 
L 194.370552 170.959282 
L 195.718444 170.959282 
L 195.718444 170.432596 
L 197.972508 170.432596 
L 197.972508 169.379224 
L 199.057473 169.379224 
L 199.057473 168.325852 
L 201.654051 168.325852 
L 201.654051 167.799166 
L 204.007151 167.799166 
L 204.028152 166.219108 
L 204.170557 166.219108 
L 204.256222 164.112363 
L 204.305354 164.112363 
L 204.394216 162.532305 
L 204.444242 162.532305 
L 204.444242 160.425561 
L 204.582032 160.425561 
L 204.688454 157.79213 
L 204.713697 157.79213 
L 204.728826 156.738758 
L 204.869395 156.738758 
L 204.949215 154.105328 
L 205.016279 154.105328 
L 205.032386 152.52527 
L 208.124623 152.52527 
L 208.230097 150.418525 
L 208.254822 150.418525 
L 208.362583 147.258409 
L 208.375878 147.258409 
L 208.476799 141.991548 
L 208.49407 141.991548 
L 208.603395 137.251373 
L 208.605413 137.251373 
L 208.716049 131.984513 
L 208.760108 131.984513 
L 208.846898 128.29771 
L 208.876726 128.29771 
L 208.970845 125.137593 
L 209.000462 125.137593 
L 209.037904 124.084221 
L 214.804063 124.084221 
L 214.90841 123.030849 
L 214.97086 123.030849 
L 215.029597 121.450791 
L 215.42371 121.450791 
L 215.523067 118.817361 
L 215.540702 118.817361 
L 215.63333 117.237302 
L 215.660955 117.237302 
L 215.744909 114.603872 
L 215.79442 114.603872 
L 215.885049 111.443755 
L 216.266351 111.443755 
L 216.266351 110.917069 
L 217.518889 110.917069 
L 217.518889 110.390383 
L 217.894289 110.390383 
L 217.978787 107.230267 
L 218.01706 107.230267 
L 218.124949 102.490092 
L 218.157653 102.490092 
L 218.248434 98.803289 
L 218.294227 98.803289 
L 218.329504 96.696545 
L 219.35866 96.696545 
L 219.441789 94.063115 
L 219.469952 94.063115 
L 219.558476 90.902998 
L 219.581613 90.902998 
L 219.682409 86.68951 
L 219.708051 86.68951 
L 219.774119 82.476021 
L 221.247029 82.476021 
L 221.321644 79.315904 
L 221.461719 79.315904 
L 221.568082 75.629102 
L 221.581032 75.629102 
L 221.682382 70.362241 
L 221.720474 70.362241 
L 221.752313 67.728811 
L 225.467412 67.728811 
L 225.566121 62.46195 
L 225.587091 62.46195 
L 225.681337 56.668403 
L 225.729026 56.668403 
L 225.764896 54.561659 
L 227.143743 54.561659 
L 227.232389 49.294798 
L 227.262183 49.294798 
L 227.369851 43.501251 
L 232.375377 43.501251 
L 232.375377 42.974565 
L 232.507583 42.974565 
L 232.602643 35.60096 
L 232.620473 35.60096 
L 232.67893 30.334099 
L 338.688 30.334099 
L 338.688 30.334099 
" style="fill:none;stroke:#000080;stroke-linecap:square;stroke-width:1.5;"/>
   </g>
   <g id="line2d_36">
    <defs>
     <path d="M 0 6 
C 1.591219 6 3.117479 5.367802 4.242641 4.242641 
C 5.367802 3.117479 6 1.591219 6 0 
C 6 -1.591219 5.367802 -3.117479 4.242641 -4.242641 
C 3.117479 -5.367802 1.591219 -6 0 -6 
C -1.591219 -6 -3.117479 -5.367802 -4.242641 -4.242641 
C -5.367802 -3.117479 -6 -1.591219 -6 0 
C -6 1.591219 -5.367802 3.117479 -4.242641 4.242641 
C -3.117479 5.367802 -1.591219 6 0 6 
z
" id="mb19da5f0fe" style="stroke:#000080;stroke-width:1.5;"/>
    </defs>
    <g>
     <use style="fill-opacity:0;stroke:#000080;stroke-width:1.5;" x="83.171864" xlink:href="#mb19da5f0fe" y="266.289463"/>
     <use style="fill-opacity:0;stroke:#000080;stroke-width:1.5;" x="159.115303" xlink:href="#mb19da5f0fe" y="234.688298"/>
     <use style="fill-opacity:0;stroke:#000080;stroke-width:1.5;" x="204.926802" xlink:href="#mb19da5f0fe" y="154.632014"/>
     <use style="fill-opacity:0;stroke:#000080;stroke-width:1.5;" x="232.67893" xlink:href="#mb19da5f0fe" y="30.860785"/>
     <use style="fill-opacity:0;stroke:#000080;stroke-width:1.5;" x="232.67893" xlink:href="#mb19da5f0fe" y="30.334099"/>
     <use style="fill-opacity:0;stroke:#000080;stroke-width:1.5;" x="338.688" xlink:href="#mb19da5f0fe" y="30.334099"/>
    </g>
   </g>
   <g id="line2d_37">
    <path style="fill:none;stroke:#000080;stroke-linecap:square;stroke-width:1.5;"/>
    <g/>
   </g>
   <g id="line2d_38">
    <defs>
     <path d="M 0 1.5 
C 0.397805 1.5 0.77937 1.341951 1.06066 1.06066 
C 1.341951 0.77937 1.5 0.397805 1.5 0 
C 1.5 -0.397805 1.341951 -0.77937 1.06066 -1.06066 
C 0.77937 -1.341951 0.397805 -1.5 0 -1.5 
C -0.397805 -1.5 -0.77937 -1.341951 -1.06066 -1.06066 
C -1.341951 -0.77937 -1.5 -0.397805 -1.5 0 
C -1.5 0.397805 -1.341951 0.77937 -1.06066 1.06066 
C -0.77937 1.341951 -0.397805 1.5 0 1.5 
z
" id="mff821a54ef" style="stroke:#ff00ff;"/>
    </defs>
    <g>
     <use style="fill:#ff00ff;stroke:#ff00ff;" x="302.954511" xlink:href="#mff821a54ef" y="30.334099"/>
     <use style="fill:#ff00ff;stroke:#ff00ff;" x="302.954511" xlink:href="#mff821a54ef" y="30.334099"/>
    </g>
   </g>
   <g id="line2d_39">
    <path d="M 38.440992 298.944 
L 38.440992 281.036673 
L 50.52898 281.036673 
L 50.52898 277.876557 
L 57.6 277.876557 
L 57.6 276.296499 
L 62.616969 276.296499 
L 62.616969 275.769812 
L 66.508432 275.769812 
L 66.508432 274.189754 
L 69.687988 274.189754 
L 69.687988 273.663068 
L 72.376266 273.663068 
L 72.376266 271.029638 
L 74.704957 271.029638 
L 74.704957 270.502952 
L 76.759008 270.502952 
L 76.759008 269.449579 
L 78.59642 269.449579 
L 78.59642 266.816149 
L 81.775977 266.816149 
L 81.775977 265.762777 
L 83.171864 265.762777 
L 83.171864 265.236091 
L 86.792945 265.236091 
L 86.792945 263.129347 
L 87.850195 263.129347 
L 87.850195 262.60266 
L 90.684409 262.60266 
L 90.684409 261.022602 
L 93.121756 261.022602 
L 93.121756 260.495916 
L 97.16421 260.495916 
L 97.16421 259.442544 
L 103.623262 259.442544 
L 103.623262 258.915858 
L 105.951954 258.915858 
L 105.951954 258.389172 
L 106.311539 258.389172 
L 106.311539 257.3358 
L 114.193835 257.3358 
L 114.193835 256.282427 
L 117.297733 256.282427 
L 117.297733 255.755741 
L 130.664567 255.755741 
L 130.664567 255.229055 
L 133.201197 255.229055 
L 133.201197 254.702369 
L 134.661403 254.702369 
L 134.661403 254.175683 
L 135.280614 254.175683 
L 135.280614 253.648997 
L 135.747468 253.648997 
L 135.747468 253.122311 
L 137.259399 253.122311 
L 137.259399 252.595625 
L 144.904196 252.595625 
L 144.904196 252.068939 
L 150.114722 252.068939 
L 150.114722 251.542253 
L 155.887428 251.542253 
L 155.887428 251.015567 
L 157.224197 251.015567 
L 157.224197 250.488881 
L 159.26971 250.488881 
L 159.26971 249.962195 
L 161.253399 249.962195 
L 161.253399 249.435508 
L 161.955547 249.435508 
L 161.955547 248.908822 
L 162.770815 248.908822 
L 162.770815 247.85545 
L 162.896128 247.85545 
L 162.896128 247.328764 
L 169.626243 247.328764 
L 169.626243 246.802078 
L 170.419074 246.802078 
L 170.419074 245.748706 
L 170.72284 245.748706 
L 170.72284 245.22202 
L 172.199614 245.22202 
L 172.199614 244.695334 
L 173.103489 244.695334 
L 173.103489 244.168648 
L 174.00689 244.168648 
L 174.00689 243.115275 
L 179.322098 243.115275 
L 179.322098 242.588589 
L 179.526446 242.588589 
L 179.526446 242.061903 
L 183.368654 242.061903 
L 183.368654 241.535217 
L 183.615662 241.535217 
L 183.615662 241.008531 
L 188.027042 241.008531 
L 188.027042 237.848415 
L 188.709634 237.848415 
L 188.709634 237.321729 
L 191.162214 237.321729 
L 191.162214 236.795043 
L 193.136527 236.795043 
L 193.136527 236.268356 
L 196.428407 236.268356 
L 196.428407 235.74167 
L 198.133274 235.74167 
L 198.133274 235.214984 
L 198.484712 235.214984 
L 198.484712 234.688298 
L 200.903082 234.688298 
L 200.903082 234.161612 
L 201.5243 234.161612 
L 201.5243 233.634926 
L 201.666071 233.634926 
L 201.666071 233.10824 
L 202.899673 233.10824 
L 202.899673 232.581554 
L 203.095896 232.581554 
L 203.095896 232.054868 
L 203.868696 232.054868 
L 203.868696 231.528182 
L 204.336314 231.528182 
L 204.336314 230.47481 
L 204.70739 230.47481 
L 204.713697 229.421437 
L 204.96041 229.421437 
L 204.96041 228.894751 
L 206.614183 228.894751 
L 206.614183 227.841379 
L 206.838934 227.841379 
L 206.838934 227.314693 
L 207.045384 227.314693 
L 207.045384 226.788007 
L 208.676904 226.788007 
L 208.766108 225.207949 
L 208.791083 225.207949 
L 208.791083 224.681263 
L 209.074284 224.681263 
L 209.074284 224.154577 
L 209.242413 224.154577 
L 209.321032 223.101204 
L 209.43878 223.101204 
L 209.454164 222.047832 
L 209.78733 222.047832 
L 209.856024 220.99446 
L 210.681424 220.99446 
L 210.681424 220.467774 
L 210.944569 220.467774 
L 210.944569 219.941088 
L 211.263683 219.941088 
L 211.263683 219.414402 
L 211.683947 219.414402 
L 211.683947 218.887716 
L 211.847247 218.887716 
L 211.847247 218.36103 
L 211.96415 218.36103 
L 212.005711 217.307658 
L 212.537189 217.307658 
L 212.551678 215.727599 
L 212.754872 215.727599 
L 212.781099 214.674227 
L 213.221789 214.674227 
L 213.221789 214.147541 
L 213.373667 214.147541 
L 213.431143 213.094169 
L 214.187978 213.094169 
L 214.187978 212.567483 
L 214.524629 212.567483 
L 214.524629 212.040797 
L 214.952639 212.040797 
L 214.952639 211.514111 
L 215.124971 211.514111 
L 215.124971 210.987425 
L 215.564413 210.987425 
L 215.564413 210.460738 
L 215.805775 210.460738 
L 215.805775 209.934052 
L 216.299484 209.934052 
L 216.299484 209.407366 
L 216.590414 209.407366 
L 216.590414 208.88068 
L 217.346155 208.88068 
L 217.346155 208.353994 
L 217.512835 208.353994 
L 217.596787 207.300622 
L 218.218226 207.300622 
L 218.218226 206.773936 
L 218.705565 206.773936 
L 218.705565 206.24725 
L 219.241721 206.24725 
L 219.241721 205.720564 
L 219.907092 205.720564 
L 219.907092 205.193878 
L 220.801531 205.193878 
L 220.900522 204.140506 
L 221.016791 204.140506 
L 221.016791 203.613819 
L 222.017114 203.613819 
L 222.017114 203.087133 
L 222.19252 203.087133 
L 222.19252 202.560447 
L 222.945431 202.560447 
L 222.975997 201.507075 
L 223.68801 201.507075 
L 223.68801 200.980389 
L 224.352876 200.980389 
L 224.451574 199.400331 
L 225.269078 199.400331 
L 225.269078 198.346959 
L 225.402065 198.346959 
L 225.402065 197.820273 
L 225.709739 197.820273 
L 225.709739 197.293586 
L 225.914374 197.293586 
L 225.914374 196.7669 
L 226.247739 196.7669 
L 226.35746 195.186842 
L 228.193632 195.186842 
L 228.193632 194.660156 
L 228.972091 194.660156 
L 228.972091 194.13347 
L 229.344673 194.13347 
L 229.344673 193.606784 
L 229.494247 193.606784 
L 229.494247 193.080098 
L 230.315515 193.080098 
L 230.315515 192.553412 
L 230.461921 192.553412 
L 230.477761 191.50004 
L 230.686079 191.50004 
L 230.686079 190.973354 
L 231.058123 190.973354 
L 231.082887 189.919981 
L 231.317643 189.919981 
L 231.317643 189.393295 
L 231.494781 189.393295 
L 231.494781 188.866609 
L 231.877788 188.866609 
L 231.917327 187.813237 
L 232.128619 187.813237 
L 232.213519 186.759865 
L 232.271535 186.759865 
L 232.271535 186.233179 
L 232.39473 186.233179 
L 232.440062 184.126434 
L 232.625564 184.126434 
L 232.69364 182.546376 
L 232.819941 182.546376 
L 232.819941 182.01969 
L 233.250261 182.01969 
L 233.279458 179.912946 
L 233.522895 179.912946 
L 233.522895 178.859574 
L 233.727177 178.859574 
L 233.747952 177.806202 
L 233.877531 177.806202 
L 233.877531 177.279515 
L 234.300866 177.279515 
L 234.300866 176.752829 
L 235.38304 176.752829 
L 235.458709 175.172771 
L 235.5153 175.172771 
L 235.5153 174.646085 
L 235.718969 174.646085 
L 235.718969 173.066027 
L 236.175253 173.066027 
L 236.175253 172.539341 
L 236.308461 172.539341 
L 236.308461 172.012655 
L 236.515755 172.012655 
L 236.515755 171.485969 
L 236.815543 171.485969 
L 236.815543 170.959282 
L 237.258414 170.959282 
L 237.258414 170.432596 
L 237.454393 170.432596 
L 237.454393 169.379224 
L 239.720916 169.379224 
L 239.720916 168.852538 
L 241.205713 168.852538 
L 241.205713 168.325852 
L 241.513878 168.325852 
L 241.537101 167.27248 
L 241.666397 167.27248 
L 241.666397 166.745794 
L 241.779692 166.745794 
L 241.877288 165.165736 
L 243.82628 165.165736 
L 243.82628 164.63905 
L 244.108251 164.63905 
L 244.158376 163.058991 
L 244.766918 163.058991 
L 244.766918 162.532305 
L 244.926419 162.532305 
L 244.926419 162.005619 
L 245.328671 162.005619 
L 245.328671 161.478933 
L 245.985879 161.478933 
L 245.985879 160.952247 
L 246.132898 160.952247 
L 246.238157 158.845503 
L 246.244919 158.845503 
L 246.285666 157.265444 
L 247.509988 157.265444 
L 247.509988 156.738758 
L 247.995524 156.738758 
L 247.995524 156.212072 
L 248.277874 156.212072 
L 248.316937 155.1587 
L 248.447786 155.1587 
L 248.447786 154.632014 
L 248.574703 154.632014 
L 248.640865 153.051956 
L 248.756199 153.051956 
L 248.807696 151.471897 
L 248.948308 151.471897 
L 249.053004 149.365153 
L 249.207206 149.365153 
L 249.207206 148.838467 
L 249.352548 148.838467 
L 249.424476 147.258409 
L 249.689561 147.258409 
L 249.689561 146.731723 
L 249.926062 146.731723 
L 249.966785 145.151665 
L 250.65216 145.151665 
L 250.674054 144.098292 
L 250.889889 144.098292 
L 250.961719 142.518234 
L 251.010033 142.518234 
L 251.102909 140.938176 
L 252.158649 140.938176 
L 252.20517 139.884804 
L 252.282761 139.884804 
L 252.37412 138.831432 
L 252.450964 138.831432 
L 252.503879 137.778059 
L 252.568073 137.778059 
L 252.631628 136.724687 
L 252.722469 136.724687 
L 252.792673 133.037885 
L 252.872003 133.037885 
L 252.969849 130.93114 
L 253.010938 130.93114 
L 253.058319 127.771024 
L 253.137002 127.771024 
L 253.203605 125.137593 
L 253.252962 125.137593 
L 253.32728 124.084221 
L 253.393471 124.084221 
L 253.481901 121.977477 
L 253.763098 121.977477 
L 253.779071 120.924105 
L 254.002744 120.924105 
L 254.002744 120.397419 
L 254.166323 120.397419 
L 254.275878 118.817361 
L 254.513343 118.817361 
L 254.513343 117.763988 
L 255.519662 117.763988 
L 255.519662 117.237302 
L 255.934408 117.237302 
L 255.934408 116.710616 
L 256.159179 116.710616 
L 256.159179 116.18393 
L 257.189147 116.18393 
L 257.189147 115.657244 
L 257.632629 115.657244 
L 257.632629 115.130558 
L 257.903513 115.130558 
L 257.903513 114.603872 
L 258.29919 114.603872 
L 258.357484 112.497128 
L 258.683175 112.497128 
L 258.683175 111.970441 
L 259.217209 111.970441 
L 259.308321 110.917069 
L 259.37987 110.917069 
L 259.473686 109.337011 
L 259.557333 109.337011 
L 259.59261 107.230267 
L 259.873032 107.230267 
L 259.976018 105.650209 
L 260.015169 105.650209 
L 260.052174 104.596836 
L 260.185005 104.596836 
L 260.185005 103.543464 
L 260.440028 103.543464 
L 260.440028 103.016778 
L 260.694735 103.016778 
L 260.694735 102.490092 
L 260.83384 102.490092 
L 260.896842 101.43672 
L 261.340768 101.43672 
L 261.340768 100.910034 
L 261.584822 100.910034 
L 261.619996 99.856662 
L 261.835141 99.856662 
L 261.857295 98.803289 
L 261.977346 98.803289 
L 262.08812 96.169859 
L 262.135046 96.169859 
L 262.204358 94.063115 
L 262.288592 94.063115 
L 262.288592 92.483056 
L 262.582919 92.483056 
L 262.582919 91.95637 
L 263.912643 91.95637 
L 263.996996 90.902998 
L 264.097868 90.902998 
L 264.097868 90.376312 
L 264.763726 90.376312 
L 264.763726 89.849626 
L 265.347656 89.849626 
L 265.43343 88.796254 
L 266.186798 88.796254 
L 266.186798 88.269568 
L 266.388082 88.269568 
L 266.432091 86.68951 
L 266.520215 86.68951 
L 266.604305 84.582765 
L 266.673982 84.582765 
L 266.673982 84.056079 
L 267.631602 84.056079 
L 267.631602 83.529393 
L 267.827925 83.529393 
L 267.928895 80.369277 
L 268.007712 80.369277 
L 268.041144 77.735846 
L 268.12235 77.735846 
L 268.12235 77.20916 
L 268.288839 77.20916 
L 268.310262 76.155788 
L 268.64002 76.155788 
L 268.64002 75.102416 
L 269.040215 75.102416 
L 269.040215 74.57573 
L 269.326352 74.57573 
L 269.326352 74.049044 
L 269.462338 74.049044 
L 269.462338 72.995672 
L 269.954338 72.995672 
L 269.954338 72.468985 
L 270.389806 72.468985 
L 270.389806 71.942299 
L 270.618819 71.942299 
L 270.618819 71.415613 
L 270.936935 71.415613 
L 270.994607 70.362241 
L 271.22911 70.362241 
L 271.339344 68.782183 
L 271.379383 68.782183 
L 271.379383 68.255497 
L 272.041716 68.255497 
L 272.127801 67.202125 
L 272.238397 67.202125 
L 272.329266 65.622066 
L 272.445109 65.622066 
L 272.445109 65.09538 
L 272.63783 65.09538 
L 272.6945 63.515322 
L 273.504173 63.515322 
L 273.504173 62.988636 
L 274.345244 62.988636 
L 274.345244 62.46195 
L 274.781453 62.46195 
L 274.889385 60.355206 
L 275.371424 60.355206 
L 275.434797 59.301833 
L 275.7269 59.301833 
L 275.731435 58.248461 
L 275.936928 58.248461 
L 276.00977 56.141717 
L 276.136879 56.141717 
L 276.136879 55.615031 
L 276.273279 55.615031 
L 276.273279 55.088345 
L 276.825658 55.088345 
L 276.860982 54.034973 
L 277.291495 54.034973 
L 277.291495 53.508287 
L 277.921912 53.508287 
L 277.938488 52.454914 
L 278.088169 52.454914 
L 278.088169 51.928228 
L 278.352529 51.928228 
L 278.436459 50.874856 
L 278.897591 50.874856 
L 278.897591 50.34817 
L 279.205003 50.34817 
L 279.205003 49.821484 
L 279.582829 49.821484 
L 279.582829 49.294798 
L 280.665077 49.294798 
L 280.665077 48.768112 
L 281.259686 48.768112 
L 281.272046 47.71474 
L 281.396413 47.71474 
L 281.396413 46.661368 
L 281.512203 46.661368 
L 281.512203 46.134681 
L 282.05893 46.134681 
L 282.05893 45.607995 
L 282.546143 45.607995 
L 282.546143 45.081309 
L 282.814628 45.081309 
L 282.814628 44.554623 
L 282.96679 44.554623 
L 282.9872 43.501251 
L 283.210377 43.501251 
L 283.210377 42.974565 
L 283.511555 42.974565 
L 283.61625 40.867821 
L 284.13674 40.867821 
L 284.13674 40.341135 
L 284.876424 40.341135 
L 284.88469 39.287762 
L 285.025425 39.287762 
L 285.025425 38.761076 
L 285.53318 38.761076 
L 285.53318 38.23439 
L 285.997954 38.23439 
L 285.997954 37.707704 
L 286.654102 37.707704 
L 286.654102 37.181018 
L 286.784728 37.181018 
L 286.784728 36.654332 
L 287.143191 36.654332 
L 287.143191 36.127646 
L 288.807161 36.127646 
L 288.807161 35.60096 
L 289.867122 35.60096 
L 289.962025 34.020902 
L 290.4692 34.020902 
L 290.47852 32.967529 
L 291.760954 32.967529 
L 291.760954 32.440843 
L 291.983714 32.440843 
L 291.983714 31.914157 
L 292.527982 31.914157 
L 292.547755 30.860785 
L 302.954511 30.860785 
L 302.954511 30.334099 
L 338.688 30.334099 
L 338.688 30.334099 
" style="fill:none;stroke:#ff00ff;stroke-linecap:square;stroke-width:1.5;"/>
   </g>
   <g id="line2d_40">
    <defs>
     <path d="M -0 8.485281 
L 5.091169 0 
L 0 -8.485281 
L -5.091169 -0 
z
" id="mdcf87a4362" style="stroke:#ff00ff;stroke-linejoin:miter;stroke-width:1.5;"/>
    </defs>
    <g>
     <use style="fill-opacity:0;stroke:#ff00ff;stroke-linejoin:miter;stroke-width:1.5;" x="150.114722" xlink:href="#mdcf87a4362" y="252.068939"/>
     <use style="fill-opacity:0;stroke:#ff00ff;stroke-linejoin:miter;stroke-width:1.5;" x="226.35746" xlink:href="#mdcf87a4362" y="195.713528"/>
     <use style="fill-opacity:0;stroke:#ff00ff;stroke-linejoin:miter;stroke-width:1.5;" x="260.052174" xlink:href="#mdcf87a4362" y="104.596836"/>
     <use style="fill-opacity:0;stroke:#ff00ff;stroke-linejoin:miter;stroke-width:1.5;" x="302.954511" xlink:href="#mdcf87a4362" y="30.334099"/>
     <use style="fill-opacity:0;stroke:#ff00ff;stroke-linejoin:miter;stroke-width:1.5;" x="302.954511" xlink:href="#mdcf87a4362" y="30.334099"/>
     <use style="fill-opacity:0;stroke:#ff00ff;stroke-linejoin:miter;stroke-width:1.5;" x="338.688" xlink:href="#mdcf87a4362" y="30.334099"/>
    </g>
   </g>
   <g id="line2d_41">
    <path style="fill:none;stroke:#ff00ff;stroke-linecap:square;stroke-width:1.5;"/>
    <g/>
   </g>
   <g id="line2d_42">
    <path clip-path="url(#p79f6994fce)" d="M 246.289154 157.265444 
" style="fill:none;stroke:#ff00ff;stroke-linecap:square;stroke-width:1.5;"/>
    <defs>
     <path d="M -12 12 
L 12 -12 
M -12 -12 
L 12 12 
" id="meebd3a631d" style="stroke:#ff00ff;"/>
    </defs>
    <g clip-path="url(#p79f6994fce)">
     <use style="fill:#ff00ff;stroke:#ff00ff;" x="246.289154" xlink:href="#meebd3a631d" y="157.265444"/>
    </g>
   </g>
   <g id="line2d_43">
    <defs>
     <path d="M 0 1.5 
C 0.397805 1.5 0.77937 1.341951 1.06066 1.06066 
C 1.341951 0.77937 1.5 0.397805 1.5 0 
C 1.5 -0.397805 1.341951 -0.77937 1.06066 -1.06066 
C 0.77937 -1.341951 0.397805 -1.5 0 -1.5 
C -0.397805 -1.5 -0.77937 -1.341951 -1.06066 -1.06066 
C -1.341951 -0.77937 -1.5 -0.397805 -1.5 0 
C -1.5 0.397805 -1.341951 0.77937 -1.06066 1.06066 
C -0.77937 1.341951 -0.397805 1.5 0 1.5 
z
" id="md3c623c4e3" style="stroke:#ff7500;"/>
    </defs>
    <g>
     <use style="fill:#ff7500;stroke:#ff7500;" x="271.749508" xlink:href="#md3c623c4e3" y="30.334099"/>
     <use style="fill:#ff7500;stroke:#ff7500;" x="271.749508" xlink:href="#md3c623c4e3" y="30.334099"/>
    </g>
   </g>
   <g id="line2d_44">
    <path d="M 38.440992 298.944 
L 38.440992 276.296499 
L 50.52898 276.296499 
L 50.52898 273.136382 
L 57.6 273.136382 
L 57.6 271.556324 
L 62.616969 271.556324 
L 62.616969 271.029638 
L 66.508432 271.029638 
L 66.508432 268.922893 
L 69.687988 268.922893 
L 69.687988 266.289463 
L 74.704957 266.289463 
L 74.704957 265.236091 
L 81.775977 265.236091 
L 81.775977 264.182719 
L 84.464254 264.182719 
L 84.464254 263.656033 
L 88.846997 263.656033 
L 88.846997 263.129347 
L 89.78989 263.129347 
L 89.78989 262.60266 
L 94.575872 262.60266 
L 94.575872 262.075974 
L 95.918017 262.075974 
L 95.918017 261.549288 
L 97.755429 261.549288 
L 97.755429 261.022602 
L 99.938184 261.022602 
L 99.938184 259.96923 
L 102.330873 259.96923 
L 102.330873 258.915858 
L 107.680028 258.915858 
L 107.680028 258.389172 
L 121.340187 258.389172 
L 121.340187 257.862486 
L 122.076131 257.862486 
L 122.076131 257.3358 
L 124.241922 257.3358 
L 124.241922 256.282427 
L 124.368753 256.282427 
L 124.368753 255.755741 
L 127.378995 255.755741 
L 127.378995 255.229055 
L 130.487516 255.229055 
L 130.487516 254.702369 
L 133.201197 254.702369 
L 133.201197 254.175683 
L 137.910857 254.175683 
L 137.910857 253.648997 
L 140.144829 253.648997 
L 140.144829 253.122311 
L 141.138789 253.122311 
L 141.138789 252.595625 
L 143.943994 252.595625 
L 143.943994 252.068939 
L 145.740226 252.068939 
L 145.740226 251.015567 
L 146.216039 251.015567 
L 146.216039 250.488881 
L 157.86528 250.488881 
L 157.86528 249.962195 
L 160.281688 249.962195 
L 160.281688 249.435508 
L 163.034316 249.435508 
L 163.034316 248.908822 
L 166.059491 248.908822 
L 166.059491 247.85545 
L 170.228776 247.85545 
L 170.228776 247.328764 
L 178.274311 247.328764 
L 178.274311 246.802078 
L 181.751918 246.802078 
L 181.751918 246.275392 
L 182.722034 246.275392 
L 182.757606 244.168648 
L 185.253182 244.168648 
L 185.253182 243.641962 
L 185.903074 243.641962 
L 186.006616 242.588589 
L 186.036086 242.588589 
L 186.036086 242.061903 
L 186.153474 242.061903 
L 186.153474 241.008531 
L 188.076227 241.008531 
L 188.076227 240.481845 
L 188.371678 240.481845 
L 188.371678 239.428473 
L 188.662206 239.428473 
L 188.662206 238.901787 
L 188.894943 238.901787 
L 188.894943 238.375101 
L 189.670965 238.375101 
L 189.715731 237.321729 
L 190.098962 237.321729 
L 190.098962 236.795043 
L 190.98298 236.795043 
L 190.98298 236.268356 
L 192.265072 236.268356 
L 192.265072 235.74167 
L 193.545686 235.74167 
L 193.545686 235.214984 
L 194.017812 235.214984 
L 194.017812 234.688298 
L 194.340856 234.688298 
L 194.340856 233.634926 
L 195.186495 233.634926 
L 195.186495 232.054868 
L 195.359871 232.054868 
L 195.359871 231.528182 
L 197.375783 231.528182 
L 197.375783 231.001496 
L 198.744163 231.001496 
L 198.744163 230.47481 
L 199.010309 230.47481 
L 199.095809 229.421437 
L 199.843674 229.421437 
L 199.925194 227.841379 
L 199.976571 227.841379 
L 200.05253 226.788007 
L 200.62468 226.788007 
L 200.732772 224.681263 
L 200.813403 224.681263 
L 200.814981 223.101204 
L 201.003227 223.101204 
L 201.003227 222.574518 
L 201.19255 222.574518 
L 201.19255 222.047832 
L 201.309458 222.047832 
L 201.404254 220.99446 
L 201.575712 220.99446 
L 201.578732 219.941088 
L 201.803719 219.941088 
L 201.814148 218.887716 
L 202.090464 218.887716 
L 202.181118 216.780971 
L 202.304642 216.780971 
L 202.308985 215.727599 
L 202.589031 215.727599 
L 202.696971 214.674227 
L 202.781717 214.674227 
L 202.781717 214.147541 
L 203.012667 214.147541 
L 203.118024 212.040797 
L 203.370493 212.040797 
L 203.370493 211.514111 
L 203.534549 211.514111 
L 203.534549 210.460738 
L 203.683701 210.460738 
L 203.713112 209.407366 
L 203.928168 209.407366 
L 203.992697 207.827308 
L 204.063536 207.827308 
L 204.084469 206.24725 
L 204.297606 206.24725 
L 204.396784 204.667192 
L 204.547686 204.667192 
L 204.547686 204.140506 
L 204.795487 204.140506 
L 204.795487 203.613819 
L 204.925556 203.613819 
L 204.925556 203.087133 
L 205.299071 203.087133 
L 205.404856 202.033761 
L 206.17205 202.033761 
L 206.17205 201.507075 
L 209.162461 201.507075 
L 209.162461 200.980389 
L 212.270204 200.980389 
L 212.270204 200.453703 
L 212.738958 200.453703 
L 212.738958 199.927017 
L 213.099015 199.927017 
L 213.137183 198.873645 
L 213.550849 198.873645 
L 213.550849 198.346959 
L 213.900647 198.346959 
L 213.900647 197.820273 
L 214.161585 197.820273 
L 214.161585 196.240214 
L 214.31644 196.240214 
L 214.330978 195.186842 
L 214.431685 195.186842 
L 214.526066 194.13347 
L 214.72468 194.13347 
L 214.782127 193.080098 
L 215.192877 193.080098 
L 215.228802 191.50004 
L 215.339563 191.50004 
L 215.339563 190.973354 
L 215.500659 190.973354 
L 215.533243 189.393295 
L 215.620513 189.393295 
L 215.620513 188.866609 
L 215.805775 188.866609 
L 215.883719 187.813237 
L 216.05306 187.813237 
L 216.122699 186.759865 
L 216.305324 186.759865 
L 216.305324 186.233179 
L 217.291056 186.233179 
L 217.291056 185.706493 
L 219.744845 185.706493 
L 219.744845 185.179807 
L 220.197047 185.179807 
L 220.197047 184.653121 
L 220.314992 184.653121 
L 220.314992 184.126434 
L 220.723141 184.126434 
L 220.723141 183.599748 
L 220.926426 183.599748 
L 220.997466 182.01969 
L 221.038072 182.01969 
L 221.038072 181.493004 
L 221.33964 181.493004 
L 221.43273 179.912946 
L 221.481983 179.912946 
L 221.532059 176.752829 
L 221.620303 176.752829 
L 221.701914 175.699457 
L 221.763229 175.699457 
L 221.855979 173.592713 
L 221.963255 173.592713 
L 222.059615 172.012655 
L 222.100617 172.012655 
L 222.108061 170.959282 
L 222.239214 170.959282 
L 222.33131 168.325852 
L 222.366179 168.325852 
L 222.458977 166.219108 
L 222.481758 166.219108 
L 222.481758 165.692422 
L 222.646261 165.692422 
L 222.752385 164.112363 
L 222.793134 164.112363 
L 222.877907 162.005619 
L 222.972899 162.005619 
L 222.972899 161.478933 
L 223.105199 161.478933 
L 223.169224 159.898875 
L 223.305261 159.898875 
L 223.305261 159.372189 
L 223.439814 159.372189 
L 223.468666 157.79213 
L 223.556649 157.79213 
L 223.643765 155.685386 
L 223.729599 155.685386 
L 223.761361 154.632014 
L 224.117346 154.632014 
L 224.117346 154.105328 
L 224.309058 154.105328 
L 224.325861 153.051956 
L 224.614302 153.051956 
L 224.707127 149.891839 
L 224.767939 149.891839 
L 224.878614 147.785095 
L 224.98662 147.785095 
L 225.059432 144.624978 
L 225.132333 144.624978 
L 225.229062 142.518234 
L 225.254326 142.518234 
L 225.346906 139.358118 
L 225.420925 139.358118 
L 225.437844 137.251373 
L 225.535573 137.251373 
L 225.616408 134.617943 
L 225.693461 134.617943 
L 225.770176 131.984513 
L 225.81499 131.984513 
L 225.907641 129.877768 
L 225.938292 129.877768 
L 225.938292 129.351082 
L 226.067773 129.351082 
L 226.105172 126.717652 
L 226.183415 126.717652 
L 226.221303 125.66428 
L 226.300857 125.66428 
L 226.389514 124.084221 
L 226.45127 124.084221 
L 226.534838 122.504163 
L 228.690526 122.504163 
L 228.738936 121.450791 
L 228.813202 121.450791 
L 228.876111 119.870733 
L 229.076907 119.870733 
L 229.168999 118.817361 
L 229.225692 118.817361 
L 229.281585 117.237302 
L 229.337606 117.237302 
L 229.436588 115.130558 
L 229.512511 115.130558 
L 229.584773 114.077186 
L 229.640132 114.077186 
L 229.640132 113.5505 
L 229.842522 113.5505 
L 229.842522 112.497128 
L 229.993232 112.497128 
L 229.993232 111.970441 
L 230.146172 111.970441 
L 230.238638 109.863697 
L 230.317549 109.863697 
L 230.317549 109.337011 
L 232.027244 109.337011 
L 232.079581 107.756953 
L 232.165242 107.756953 
L 232.271015 104.07015 
L 232.366338 104.07015 
L 232.474497 101.43672 
L 232.552878 101.43672 
L 232.630908 99.856662 
L 232.739719 99.856662 
L 232.819689 97.749917 
L 232.865939 97.749917 
L 232.962817 94.589801 
L 233.003211 94.589801 
L 233.003211 94.063115 
L 233.863787 94.063115 
L 233.863787 93.536429 
L 234.016968 93.536429 
L 234.0906 92.483056 
L 234.405055 92.483056 
L 234.442017 90.376312 
L 234.519817 90.376312 
L 234.567925 89.32294 
L 234.664876 89.32294 
L 234.719133 88.269568 
L 234.80245 88.269568 
L 234.841494 87.216196 
L 234.915527 87.216196 
L 235.016563 85.109451 
L 235.152281 85.109451 
L 235.224133 83.002707 
L 235.321657 83.002707 
L 235.359992 81.949335 
L 240.484059 81.949335 
L 240.554142 80.369277 
L 240.652399 80.369277 
L 240.652399 78.789218 
L 246.835088 78.789218 
L 246.835088 78.262532 
L 246.971011 78.262532 
L 246.971011 77.735846 
L 247.154187 77.735846 
L 247.204895 76.155788 
L 247.464617 76.155788 
L 247.542478 74.049044 
L 247.635928 74.049044 
L 247.742256 72.468985 
L 247.792885 72.468985 
L 247.877047 70.362241 
L 248.772038 70.362241 
L 248.854325 68.782183 
L 249.135954 68.782183 
L 249.163583 67.728811 
L 249.813865 67.728811 
L 249.850207 66.675439 
L 250.062281 66.675439 
L 250.12948 65.09538 
L 250.191589 65.09538 
L 250.288546 60.881892 
L 250.329078 60.881892 
L 250.355986 59.301833 
L 250.522952 59.301833 
L 250.522952 58.775147 
L 250.762527 58.775147 
L 250.811036 56.141717 
L 250.889175 56.141717 
L 250.990511 54.561659 
L 251.021027 54.561659 
L 251.055472 52.454914 
L 251.13279 52.454914 
L 251.13279 51.928228 
L 251.759273 51.928228 
L 251.759273 51.401542 
L 251.949813 51.401542 
L 251.949813 50.874856 
L 252.106507 50.874856 
L 252.106507 50.34817 
L 252.790911 50.34817 
L 252.803399 49.294798 
L 252.94907 49.294798 
L 252.969928 48.241426 
L 253.46704 48.241426 
L 253.545592 46.134681 
L 253.707873 46.134681 
L 253.707873 45.607995 
L 255.783498 45.607995 
L 255.785521 44.554623 
L 258.650415 44.554623 
L 258.650415 44.027937 
L 259.095633 44.027937 
L 259.095633 43.501251 
L 259.687826 43.501251 
L 259.687826 42.974565 
L 260.356887 42.974565 
L 260.455566 40.341135 
L 260.472535 40.341135 
L 260.513828 39.287762 
L 260.821566 39.287762 
L 260.919266 37.707704 
L 261.389501 37.707704 
L 261.4797 35.60096 
L 261.882513 35.60096 
L 261.882513 35.074274 
L 262.02773 35.074274 
L 262.02773 34.547588 
L 262.380093 34.547588 
L 262.47392 33.494215 
L 263.762606 33.494215 
L 263.762606 32.967529 
L 265.956986 32.967529 
L 265.956986 32.440843 
L 267.103609 32.440843 
L 267.103609 31.914157 
L 267.448047 31.914157 
L 267.448047 31.387471 
L 270.781185 31.387471 
L 270.781185 30.860785 
L 271.749508 30.860785 
L 271.749508 30.334099 
L 338.688 30.334099 
L 338.688 30.334099 
" style="fill:none;stroke:#ff7500;stroke-linecap:square;stroke-width:1.5;"/>
   </g>
   <g id="line2d_45">
    <defs>
     <path d="M 0 -6 
L -1.347084 -1.854102 
L -5.706339 -1.854102 
L -2.179628 0.708204 
L -3.526712 4.854102 
L -0 2.291796 
L 3.526712 4.854102 
L 2.179628 0.708204 
L 5.706339 -1.854102 
L 1.347084 -1.854102 
z
" id="m94df6a2298" style="stroke:#ff7500;stroke-linejoin:bevel;stroke-width:1.5;"/>
    </defs>
    <g>
     <use style="fill-opacity:0;stroke:#ff7500;stroke-linejoin:bevel;stroke-width:1.5;" x="107.680028" xlink:href="#m94df6a2298" y="258.915858"/>
     <use style="fill-opacity:0;stroke:#ff7500;stroke-linejoin:bevel;stroke-width:1.5;" x="199.010309" xlink:href="#m94df6a2298" y="230.47481"/>
     <use style="fill-opacity:0;stroke:#ff7500;stroke-linejoin:bevel;stroke-width:1.5;" x="230.317549" xlink:href="#m94df6a2298" y="109.863697"/>
     <use style="fill-opacity:0;stroke:#ff7500;stroke-linejoin:bevel;stroke-width:1.5;" x="271.749508" xlink:href="#m94df6a2298" y="30.860785"/>
     <use style="fill-opacity:0;stroke:#ff7500;stroke-linejoin:bevel;stroke-width:1.5;" x="271.749508" xlink:href="#m94df6a2298" y="30.334099"/>
     <use style="fill-opacity:0;stroke:#ff7500;stroke-linejoin:bevel;stroke-width:1.5;" x="338.688" xlink:href="#m94df6a2298" y="30.334099"/>
    </g>
   </g>
   <g id="line2d_46">
    <path style="fill:none;stroke:#ff7500;stroke-linecap:square;stroke-width:1.5;"/>
    <g/>
   </g>
   <g id="line2d_47">
    <path clip-path="url(#p79f6994fce)" d="M 246.289154 78.789218 
" style="fill:none;stroke:#ff7500;stroke-linecap:square;stroke-width:1.5;"/>
    <defs>
     <path d="M -12 12 
L 12 -12 
M -12 -12 
L 12 12 
" id="m9cec6802cb" style="stroke:#ff7500;"/>
    </defs>
    <g clip-path="url(#p79f6994fce)">
     <use style="fill:#ff7500;stroke:#ff7500;" x="246.289154" xlink:href="#m9cec6802cb" y="78.789218"/>
    </g>
   </g>
   <g id="line2d_48">
    <path d="M 338.688 30.334099 
L 369.60768 293.571802 
" style="fill:none;stroke:#ff00ff;stroke-linecap:square;stroke-width:1.5;"/>
    <g>
     <use style="fill-opacity:0;stroke:#ff00ff;stroke-linejoin:miter;stroke-width:1.5;" x="338.688" xlink:href="#mdcf87a4362" y="30.334099"/>
     <use style="fill-opacity:0;stroke:#ff00ff;stroke-linejoin:miter;stroke-width:1.5;" x="369.60768" xlink:href="#mdcf87a4362" y="293.571802"/>
    </g>
   </g>
   <g id="line2d_49">
    <path d="M 338.688 30.334099 
L 369.60768 207.616634 
" style="fill:none;stroke:#ff7500;stroke-linecap:square;stroke-width:1.5;"/>
    <g>
     <use style="fill-opacity:0;stroke:#ff7500;stroke-linejoin:bevel;stroke-width:1.5;" x="338.688" xlink:href="#m94df6a2298" y="30.334099"/>
     <use style="fill-opacity:0;stroke:#ff7500;stroke-linejoin:bevel;stroke-width:1.5;" x="369.60768" xlink:href="#m94df6a2298" y="207.616634"/>
    </g>
   </g>
   <g id="line2d_50">
    <path d="M 338.688 30.334099 
L 369.60768 121.661465 
" style="fill:none;stroke:#000080;stroke-linecap:square;stroke-width:1.5;"/>
    <g>
     <use style="fill-opacity:0;stroke:#000080;stroke-width:1.5;" x="338.688" xlink:href="#mb19da5f0fe" y="30.334099"/>
     <use style="fill-opacity:0;stroke:#000080;stroke-width:1.5;" x="369.60768" xlink:href="#mb19da5f0fe" y="121.661465"/>
    </g>
   </g>
   <g id="line2d_51">
    <path d="M 338.688 298.944 
L 338.688 30.334099 
" style="fill:none;stroke:#000000;stroke-linecap:square;stroke-width:1.5;"/>
   </g>
   <g id="patch_3">
    <path d="M 57.6 298.944 
L 57.6 27.648 
" style="fill:none;stroke:#000000;stroke-linecap:square;stroke-linejoin:miter;stroke-width:0.8;"/>
   </g>
   <g id="patch_4">
    <path d="M 338.688 298.944 
L 338.688 27.648 
" style="fill:none;stroke:#000000;stroke-linecap:square;stroke-linejoin:miter;stroke-width:0.8;"/>
   </g>
   <g id="patch_5">
    <path d="M 57.6 298.944 
L 338.688 298.944 
" style="fill:none;stroke:#000000;stroke-linecap:square;stroke-linejoin:miter;stroke-width:0.8;"/>
   </g>
   <g id="patch_6">
    <path d="M 57.6 27.648 
L 338.688 27.648 
" style="fill:none;stroke:#000000;stroke-linecap:square;stroke-linejoin:miter;stroke-width:0.8;"/>
   </g>
   <g id="text_13">
    <!-- PSO -->
    <g transform="translate(375.22944 298.262739)scale(0.17 -0.17)">
     <defs>
      <path d="M 19.671875 64.796875 
L 19.671875 37.40625 
L 32.078125 37.40625 
Q 38.96875 37.40625 42.71875 40.96875 
Q 46.484375 44.53125 46.484375 51.125 
Q 46.484375 57.671875 42.71875 61.234375 
Q 38.96875 64.796875 32.078125 64.796875 
z
M 9.8125 72.90625 
L 32.078125 72.90625 
Q 44.34375 72.90625 50.609375 67.359375 
Q 56.890625 61.8125 56.890625 51.125 
Q 56.890625 40.328125 50.609375 34.8125 
Q 44.34375 29.296875 32.078125 29.296875 
L 19.671875 29.296875 
L 19.671875 0 
L 9.8125 0 
z
" id="DejaVuSans-80"/>
      <path d="M 53.515625 70.515625 
L 53.515625 60.890625 
Q 47.90625 63.578125 42.921875 64.890625 
Q 37.9375 66.21875 33.296875 66.21875 
Q 25.25 66.21875 20.875 63.09375 
Q 16.5 59.96875 16.5 54.203125 
Q 16.5 49.359375 19.40625 46.890625 
Q 22.3125 44.4375 30.421875 42.921875 
L 36.375 41.703125 
Q 47.40625 39.59375 52.65625 34.296875 
Q 57.90625 29 57.90625 20.125 
Q 57.90625 9.515625 50.796875 4.046875 
Q 43.703125 -1.421875 29.984375 -1.421875 
Q 24.8125 -1.421875 18.96875 -0.25 
Q 13.140625 0.921875 6.890625 3.21875 
L 6.890625 13.375 
Q 12.890625 10.015625 18.65625 8.296875 
Q 24.421875 6.59375 29.984375 6.59375 
Q 38.421875 6.59375 43.015625 9.90625 
Q 47.609375 13.234375 47.609375 19.390625 
Q 47.609375 24.75 44.3125 27.78125 
Q 41.015625 30.8125 33.5 32.328125 
L 27.484375 33.5 
Q 16.453125 35.6875 11.515625 40.375 
Q 6.59375 45.0625 6.59375 53.421875 
Q 6.59375 63.09375 13.40625 68.65625 
Q 20.21875 74.21875 32.171875 74.21875 
Q 37.3125 74.21875 42.625 73.28125 
Q 47.953125 72.359375 53.515625 70.515625 
z
" id="DejaVuSans-83"/>
      <path d="M 39.40625 66.21875 
Q 28.65625 66.21875 22.328125 58.203125 
Q 16.015625 50.203125 16.015625 36.375 
Q 16.015625 22.609375 22.328125 14.59375 
Q 28.65625 6.59375 39.40625 6.59375 
Q 50.140625 6.59375 56.421875 14.59375 
Q 62.703125 22.609375 62.703125 36.375 
Q 62.703125 50.203125 56.421875 58.203125 
Q 50.140625 66.21875 39.40625 66.21875 
z
M 39.40625 74.21875 
Q 54.734375 74.21875 63.90625 63.9375 
Q 73.09375 53.65625 73.09375 36.375 
Q 73.09375 19.140625 63.90625 8.859375 
Q 54.734375 -1.421875 39.40625 -1.421875 
Q 24.03125 -1.421875 14.8125 8.828125 
Q 5.609375 19.09375 5.609375 36.375 
Q 5.609375 53.65625 14.8125 63.9375 
Q 24.03125 74.21875 39.40625 74.21875 
z
" id="DejaVuSans-79"/>
     </defs>
     <use xlink:href="#DejaVuSans-80"/>
     <use x="60.302734" xlink:href="#DejaVuSans-83"/>
     <use x="123.779297" xlink:href="#DejaVuSans-79"/>
    </g>
   </g>
   <g id="text_14">
    <!-- DE -->
    <g transform="translate(375.22944 212.307571)scale(0.17 -0.17)">
     <defs>
      <path d="M 19.671875 64.796875 
L 19.671875 8.109375 
L 31.59375 8.109375 
Q 46.6875 8.109375 53.6875 14.9375 
Q 60.6875 21.78125 60.6875 36.53125 
Q 60.6875 51.171875 53.6875 57.984375 
Q 46.6875 64.796875 31.59375 64.796875 
z
M 9.8125 72.90625 
L 30.078125 72.90625 
Q 51.265625 72.90625 61.171875 64.09375 
Q 71.09375 55.28125 71.09375 36.53125 
Q 71.09375 17.671875 61.125 8.828125 
Q 51.171875 0 30.078125 0 
L 9.8125 0 
z
" id="DejaVuSans-68"/>
      <path d="M 9.8125 72.90625 
L 55.90625 72.90625 
L 55.90625 64.59375 
L 19.671875 64.59375 
L 19.671875 43.015625 
L 54.390625 43.015625 
L 54.390625 34.71875 
L 19.671875 34.71875 
L 19.671875 8.296875 
L 56.78125 8.296875 
L 56.78125 0 
L 9.8125 0 
z
" id="DejaVuSans-69"/>
     </defs>
     <use xlink:href="#DejaVuSans-68"/>
     <use x="77.001953" xlink:href="#DejaVuSans-69"/>
    </g>
   </g>
   <g id="text_15">
    <!-- BIPOP-CMA -->
    <g transform="translate(375.22944 126.352403)scale(0.17 -0.17)">
     <defs>
      <path d="M 19.671875 34.8125 
L 19.671875 8.109375 
L 35.5 8.109375 
Q 43.453125 8.109375 47.28125 11.40625 
Q 51.125 14.703125 51.125 21.484375 
Q 51.125 28.328125 47.28125 31.5625 
Q 43.453125 34.8125 35.5 34.8125 
z
M 19.671875 64.796875 
L 19.671875 42.828125 
L 34.28125 42.828125 
Q 41.5 42.828125 45.03125 45.53125 
Q 48.578125 48.25 48.578125 53.8125 
Q 48.578125 59.328125 45.03125 62.0625 
Q 41.5 64.796875 34.28125 64.796875 
z
M 9.8125 72.90625 
L 35.015625 72.90625 
Q 46.296875 72.90625 52.390625 68.21875 
Q 58.5 63.53125 58.5 54.890625 
Q 58.5 48.1875 55.375 44.234375 
Q 52.25 40.28125 46.1875 39.3125 
Q 53.46875 37.75 57.5 32.78125 
Q 61.53125 27.828125 61.53125 20.40625 
Q 61.53125 10.640625 54.890625 5.3125 
Q 48.25 0 35.984375 0 
L 9.8125 0 
z
" id="DejaVuSans-66"/>
      <path d="M 9.8125 72.90625 
L 19.671875 72.90625 
L 19.671875 0 
L 9.8125 0 
z
" id="DejaVuSans-73"/>
      <path d="M 64.40625 67.28125 
L 64.40625 56.890625 
Q 59.421875 61.53125 53.78125 63.8125 
Q 48.140625 66.109375 41.796875 66.109375 
Q 29.296875 66.109375 22.65625 58.46875 
Q 16.015625 50.828125 16.015625 36.375 
Q 16.015625 21.96875 22.65625 14.328125 
Q 29.296875 6.6875 41.796875 6.6875 
Q 48.140625 6.6875 53.78125 8.984375 
Q 59.421875 11.28125 64.40625 15.921875 
L 64.40625 5.609375 
Q 59.234375 2.09375 53.4375 0.328125 
Q 47.65625 -1.421875 41.21875 -1.421875 
Q 24.65625 -1.421875 15.125 8.703125 
Q 5.609375 18.84375 5.609375 36.375 
Q 5.609375 53.953125 15.125 64.078125 
Q 24.65625 74.21875 41.21875 74.21875 
Q 47.75 74.21875 53.53125 72.484375 
Q 59.328125 70.75 64.40625 67.28125 
z
" id="DejaVuSans-67"/>
      <path d="M 9.8125 72.90625 
L 24.515625 72.90625 
L 43.109375 23.296875 
L 61.8125 72.90625 
L 76.515625 72.90625 
L 76.515625 0 
L 66.890625 0 
L 66.890625 64.015625 
L 48.09375 14.015625 
L 38.1875 14.015625 
L 19.390625 64.015625 
L 19.390625 0 
L 9.8125 0 
z
" id="DejaVuSans-77"/>
      <path d="M 34.1875 63.1875 
L 20.796875 26.90625 
L 47.609375 26.90625 
z
M 28.609375 72.90625 
L 39.796875 72.90625 
L 67.578125 0 
L 57.328125 0 
L 50.6875 18.703125 
L 17.828125 18.703125 
L 11.1875 0 
L 0.78125 0 
z
" id="DejaVuSans-65"/>
     </defs>
     <use xlink:href="#DejaVuSans-66"/>
     <use x="68.603516" xlink:href="#DejaVuSans-73"/>
     <use x="98.095703" xlink:href="#DejaVuSans-80"/>
     <use x="158.398438" xlink:href="#DejaVuSans-79"/>
     <use x="237.109375" xlink:href="#DejaVuSans-80"/>
     <use x="295.162109" xlink:href="#DejaVuSans-45"/>
     <use x="331.246094" xlink:href="#DejaVuSans-67"/>
     <use x="401.070312" xlink:href="#DejaVuSans-77"/>
     <use x="487.349609" xlink:href="#DejaVuSans-65"/>
    </g>
   </g>
   <g id="text_16">
    <!-- best 2009 -->
    <g transform="translate(375.22944 40.397235)scale(0.17 -0.17)">
     <defs>
      <path d="M 48.6875 27.296875 
Q 48.6875 37.203125 44.609375 42.84375 
Q 40.53125 48.484375 33.40625 48.484375 
Q 26.265625 48.484375 22.1875 42.84375 
Q 18.109375 37.203125 18.109375 27.296875 
Q 18.109375 17.390625 22.1875 11.75 
Q 26.265625 6.109375 33.40625 6.109375 
Q 40.53125 6.109375 44.609375 11.75 
Q 48.6875 17.390625 48.6875 27.296875 
z
M 18.109375 46.390625 
Q 20.953125 51.265625 25.265625 53.625 
Q 29.59375 56 35.59375 56 
Q 45.5625 56 51.78125 48.09375 
Q 58.015625 40.1875 58.015625 27.296875 
Q 58.015625 14.40625 51.78125 6.484375 
Q 45.5625 -1.421875 35.59375 -1.421875 
Q 29.59375 -1.421875 25.265625 0.953125 
Q 20.953125 3.328125 18.109375 8.203125 
L 18.109375 0 
L 9.078125 0 
L 9.078125 75.984375 
L 18.109375 75.984375 
z
" id="DejaVuSans-98"/>
      <path d="M 10.984375 1.515625 
L 10.984375 10.5 
Q 14.703125 8.734375 18.5 7.8125 
Q 22.3125 6.890625 25.984375 6.890625 
Q 35.75 6.890625 40.890625 13.453125 
Q 46.046875 20.015625 46.78125 33.40625 
Q 43.953125 29.203125 39.59375 26.953125 
Q 35.25 24.703125 29.984375 24.703125 
Q 19.046875 24.703125 12.671875 31.3125 
Q 6.296875 37.9375 6.296875 49.421875 
Q 6.296875 60.640625 12.9375 67.421875 
Q 19.578125 74.21875 30.609375 74.21875 
Q 43.265625 74.21875 49.921875 64.515625 
Q 56.59375 54.828125 56.59375 36.375 
Q 56.59375 19.140625 48.40625 8.859375 
Q 40.234375 -1.421875 26.421875 -1.421875 
Q 22.703125 -1.421875 18.890625 -0.6875 
Q 15.09375 0.046875 10.984375 1.515625 
z
M 30.609375 32.421875 
Q 37.25 32.421875 41.125 36.953125 
Q 45.015625 41.5 45.015625 49.421875 
Q 45.015625 57.28125 41.125 61.84375 
Q 37.25 66.40625 30.609375 66.40625 
Q 23.96875 66.40625 20.09375 61.84375 
Q 16.21875 57.28125 16.21875 49.421875 
Q 16.21875 41.5 20.09375 36.953125 
Q 23.96875 32.421875 30.609375 32.421875 
z
" id="DejaVuSans-57"/>
     </defs>
     <use xlink:href="#DejaVuSans-98"/>
     <use x="63.476562" xlink:href="#DejaVuSans-101"/>
     <use x="125" xlink:href="#DejaVuSans-115"/>
     <use x="177.099609" xlink:href="#DejaVuSans-116"/>
     <use x="216.308594" xlink:href="#DejaVuSans-32"/>
     <use x="248.095703" xlink:href="#DejaVuSans-50"/>
     <use x="311.71875" xlink:href="#DejaVuSans-48"/>
     <use x="375.341797" xlink:href="#DejaVuSans-48"/>
     <use x="438.964844" xlink:href="#DejaVuSans-57"/>
    </g>
   </g>
   <g id="text_17">
    <!-- bbob f23, 3-D -->
    <g transform="translate(60.41088 38.111366)scale(0.102 -0.102)">
     <defs>
      <path d="M 40.578125 39.3125 
Q 47.65625 37.796875 51.625 33 
Q 55.609375 28.21875 55.609375 21.1875 
Q 55.609375 10.40625 48.1875 4.484375 
Q 40.765625 -1.421875 27.09375 -1.421875 
Q 22.515625 -1.421875 17.65625 -0.515625 
Q 12.796875 0.390625 7.625 2.203125 
L 7.625 11.71875 
Q 11.71875 9.328125 16.59375 8.109375 
Q 21.484375 6.890625 26.8125 6.890625 
Q 36.078125 6.890625 40.9375 10.546875 
Q 45.796875 14.203125 45.796875 21.1875 
Q 45.796875 27.640625 41.28125 31.265625 
Q 36.765625 34.90625 28.71875 34.90625 
L 20.21875 34.90625 
L 20.21875 43.015625 
L 29.109375 43.015625 
Q 36.375 43.015625 40.234375 45.921875 
Q 44.09375 48.828125 44.09375 54.296875 
Q 44.09375 59.90625 40.109375 62.90625 
Q 36.140625 65.921875 28.71875 65.921875 
Q 24.65625 65.921875 20.015625 65.03125 
Q 15.375 64.15625 9.8125 62.3125 
L 9.8125 71.09375 
Q 15.4375 72.65625 20.34375 73.4375 
Q 25.25 74.21875 29.59375 74.21875 
Q 40.828125 74.21875 47.359375 69.109375 
Q 53.90625 64.015625 53.90625 55.328125 
Q 53.90625 49.265625 50.4375 45.09375 
Q 46.96875 40.921875 40.578125 39.3125 
z
" id="DejaVuSans-51"/>
     </defs>
     <use xlink:href="#DejaVuSans-98"/>
     <use x="63.476562" xlink:href="#DejaVuSans-98"/>
     <use x="126.953125" xlink:href="#DejaVuSans-111"/>
     <use x="188.134766" xlink:href="#DejaVuSans-98"/>
     <use x="251.611328" xlink:href="#DejaVuSans-32"/>
     <use x="283.398438" xlink:href="#DejaVuSans-102"/>
     <use x="318.603516" xlink:href="#DejaVuSans-50"/>
     <use x="382.226562" xlink:href="#DejaVuSans-51"/>
     <use x="445.849609" xlink:href="#DejaVuSans-44"/>
     <use x="477.636719" xlink:href="#DejaVuSans-32"/>
     <use x="509.423828" xlink:href="#DejaVuSans-51"/>
     <use x="573.046875" xlink:href="#DejaVuSans-45"/>
     <use x="609.130859" xlink:href="#DejaVuSans-68"/>
    </g>
    <!-- 51 targets: 100..1e-08 -->
    <g transform="translate(60.41088 49.533135)scale(0.102 -0.102)">
     <defs>
      <path d="M 10.796875 72.90625 
L 49.515625 72.90625 
L 49.515625 64.59375 
L 19.828125 64.59375 
L 19.828125 46.734375 
Q 21.96875 47.46875 24.109375 47.828125 
Q 26.265625 48.1875 28.421875 48.1875 
Q 40.625 48.1875 47.75 41.5 
Q 54.890625 34.8125 54.890625 23.390625 
Q 54.890625 11.625 47.5625 5.09375 
Q 40.234375 -1.421875 26.90625 -1.421875 
Q 22.3125 -1.421875 17.546875 -0.640625 
Q 12.796875 0.140625 7.71875 1.703125 
L 7.71875 11.625 
Q 12.109375 9.234375 16.796875 8.0625 
Q 21.484375 6.890625 26.703125 6.890625 
Q 35.15625 6.890625 40.078125 11.328125 
Q 45.015625 15.765625 45.015625 23.390625 
Q 45.015625 31 40.078125 35.4375 
Q 35.15625 39.890625 26.703125 39.890625 
Q 22.75 39.890625 18.8125 39.015625 
Q 14.890625 38.140625 10.796875 36.28125 
z
" id="DejaVuSans-53"/>
      <path d="M 11.71875 12.40625 
L 22.015625 12.40625 
L 22.015625 0 
L 11.71875 0 
z
M 11.71875 51.703125 
L 22.015625 51.703125 
L 22.015625 39.3125 
L 11.71875 39.3125 
z
" id="DejaVuSans-58"/>
     </defs>
     <use xlink:href="#DejaVuSans-53"/>
     <use x="63.623047" xlink:href="#DejaVuSans-49"/>
     <use x="127.246094" xlink:href="#DejaVuSans-32"/>
     <use x="159.033203" xlink:href="#DejaVuSans-116"/>
     <use x="198.242188" xlink:href="#DejaVuSans-97"/>
     <use x="259.521484" xlink:href="#DejaVuSans-114"/>
     <use x="298.884766" xlink:href="#DejaVuSans-103"/>
     <use x="362.361328" xlink:href="#DejaVuSans-101"/>
     <use x="423.884766" xlink:href="#DejaVuSans-116"/>
     <use x="463.09375" xlink:href="#DejaVuSans-115"/>
     <use x="515.193359" xlink:href="#DejaVuSans-58"/>
     <use x="548.884766" xlink:href="#DejaVuSans-32"/>
     <use x="580.671875" xlink:href="#DejaVuSans-49"/>
     <use x="644.294922" xlink:href="#DejaVuSans-48"/>
     <use x="707.917969" xlink:href="#DejaVuSans-48"/>
     <use x="771.541016" xlink:href="#DejaVuSans-46"/>
     <use x="803.328125" xlink:href="#DejaVuSans-46"/>
     <use x="835.115234" xlink:href="#DejaVuSans-49"/>
     <use x="898.738281" xlink:href="#DejaVuSans-101"/>
     <use x="960.261719" xlink:href="#DejaVuSans-45"/>
     <use x="996.345703" xlink:href="#DejaVuSans-48"/>
     <use x="1059.96875" xlink:href="#DejaVuSans-56"/>
    </g>
    <!-- 15 instances -->
    <g transform="translate(60.41088 60.954904)scale(0.102 -0.102)">
     <use xlink:href="#DejaVuSans-49"/>
     <use x="63.623047" xlink:href="#DejaVuSans-53"/>
     <use x="127.246094" xlink:href="#DejaVuSans-32"/>
     <use x="159.033203" xlink:href="#DejaVuSans-105"/>
     <use x="186.816406" xlink:href="#DejaVuSans-110"/>
     <use x="250.195312" xlink:href="#DejaVuSans-115"/>
     <use x="302.294922" xlink:href="#DejaVuSans-116"/>
     <use x="341.503906" xlink:href="#DejaVuSans-97"/>
     <use x="402.783203" xlink:href="#DejaVuSans-110"/>
     <use x="466.162109" xlink:href="#DejaVuSans-99"/>
     <use x="521.142578" xlink:href="#DejaVuSans-101"/>
     <use x="582.666016" xlink:href="#DejaVuSans-115"/>
    </g>
   </g>
   <g id="text_18">
    <!-- v2.4 -->
    <g style="fill:#808080;" transform="translate(187.233062 294.151352)scale(0.1 -0.1)">
     <use xlink:href="#DejaVuSans-118"/>
     <use x="59.179688" xlink:href="#DejaVuSans-50"/>
     <use x="122.802734" xlink:href="#DejaVuSans-46"/>
     <use x="154.589844" xlink:href="#DejaVuSans-52"/>
    </g>
   </g>
   <g id="text_19">
    <!-- 23 Katsuuras -->
    <g transform="translate(132.476812 21.648)scale(0.2 -0.2)">
     <defs>
      <path d="M 9.8125 72.90625 
L 19.671875 72.90625 
L 19.671875 42.09375 
L 52.390625 72.90625 
L 65.09375 72.90625 
L 28.90625 38.921875 
L 67.671875 0 
L 54.6875 0 
L 19.671875 35.109375 
L 19.671875 0 
L 9.8125 0 
z
" id="DejaVuSans-75"/>
     </defs>
     <use xlink:href="#DejaVuSans-50"/>
     <use x="63.623047" xlink:href="#DejaVuSans-51"/>
     <use x="127.246094" xlink:href="#DejaVuSans-32"/>
     <use x="159.033203" xlink:href="#DejaVuSans-75"/>
     <use x="222.859375" xlink:href="#DejaVuSans-97"/>
     <use x="284.138672" xlink:href="#DejaVuSans-116"/>
     <use x="323.347656" xlink:href="#DejaVuSans-115"/>
     <use x="375.447266" xlink:href="#DejaVuSans-117"/>
     <use x="438.826172" xlink:href="#DejaVuSans-117"/>
     <use x="502.205078" xlink:href="#DejaVuSans-114"/>
     <use x="543.318359" xlink:href="#DejaVuSans-97"/>
     <use x="604.597656" xlink:href="#DejaVuSans-115"/>
    </g>
   </g>
  </g>
 </g>
 <defs>
  <clipPath id="p79f6994fce">
   <rect height="271.296" width="281.088" x="57.6" y="27.648"/>
  </clipPath>
 </defs>
</svg>
