<?xml version="1.0" encoding="utf-8" standalone="no"?>
<!DOCTYPE svg PUBLIC "-//W3C//DTD SVG 1.1//EN"
  "http://www.w3.org/Graphics/SVG/1.1/DTD/svg11.dtd">
<!-- Created with matplotlib (https://matplotlib.org/) -->
<svg height="345.6pt" version="1.1" viewBox="0 0 460.8 345.6" width="460.8pt" xmlns="http://www.w3.org/2000/svg" xmlns:xlink="http://www.w3.org/1999/xlink">
 <metadata>
  <rdf:RDF xmlns:cc="http://creativecommons.org/ns#" xmlns:dc="http://purl.org/dc/elements/1.1/" xmlns:rdf="http://www.w3.org/1999/02/22-rdf-syntax-ns#">
   <cc:Work>
    <dc:type rdf:resource="http://purl.org/dc/dcmitype/StillImage"/>
    <dc:date>2021-05-01T17:07:41.468700</dc:date>
    <dc:format>image/svg+xml</dc:format>
    <dc:creator>
     <cc:Agent>
      <dc:title>Matplotlib v3.3.2, https://matplotlib.org/</dc:title>
     </cc:Agent>
    </dc:creator>
   </cc:Work>
  </rdf:RDF>
 </metadata>
 <defs>
  <style type="text/css">*{stroke-linecap:butt;stroke-linejoin:round;}</style>
 </defs>
 <g id="figure_1">
  <g id="patch_1">
   <path d="M 0 345.6 
L 460.8 345.6 
L 460.8 0 
L 0 0 
z
" style="fill:#ffffff;"/>
  </g>
  <g id="axes_1">
   <g id="patch_2">
    <path d="M 57.6 298.944 
L 338.688 298.944 
L 338.688 27.648 
L 57.6 27.648 
z
" style="fill:#ffffff;"/>
   </g>
   <g id="line2d_1">
    <path d="M 93.422441 298.944 
L 93.422441 293.677139 
L 105.285403 293.677139 
L 105.285403 288.410278 
L 110.016944 288.410278 
L 110.016944 283.143418 
L 114.947365 283.143418 
L 114.947365 277.876557 
L 118.310324 277.876557 
L 118.310324 272.609696 
L 121.355214 272.609696 
L 121.355214 267.342835 
L 123.233135 267.342835 
L 123.233135 262.075974 
L 125.110962 262.075974 
L 125.110962 256.809114 
L 126.540355 256.809114 
L 126.540355 251.542253 
L 127.861412 251.542253 
L 127.861412 246.275392 
L 128.885774 246.275392 
L 128.885774 241.008531 
L 129.853291 241.008531 
L 129.853291 235.74167 
L 131.030622 235.74167 
L 131.030622 230.47481 
L 132.157744 230.47481 
L 132.157744 225.207949 
L 133.216421 225.207949 
L 133.216421 219.941088 
L 133.953874 219.941088 
L 133.953874 214.674227 
L 134.911732 214.674227 
L 134.911732 209.407366 
L 135.621981 209.407366 
L 135.621981 204.140506 
L 136.456742 204.140506 
L 136.456742 198.873645 
L 137.271464 198.873645 
L 137.271464 193.606784 
L 138.153314 193.606784 
L 138.153314 188.339923 
L 138.976312 188.339923 
L 138.976312 183.073062 
L 161.356752 183.073062 
L 161.356752 177.806202 
L 163.311515 177.806202 
L 163.311515 172.539341 
L 163.914652 172.539341 
L 163.914652 167.27248 
L 164.474827 167.27248 
L 164.474827 162.005619 
L 165.00282 162.005619 
L 165.00282 156.738758 
L 165.576079 156.738758 
L 165.576079 151.471897 
L 166.162181 151.471897 
L 166.162181 146.205037 
L 166.652214 146.205037 
L 166.652214 140.938176 
L 167.128854 140.938176 
L 167.128854 135.671315 
L 167.621403 135.671315 
L 167.621403 130.404454 
L 168.263336 130.404454 
L 168.263336 125.137593 
L 168.749091 125.137593 
L 168.749091 119.870733 
L 169.218785 119.870733 
L 169.218785 114.603872 
L 169.752173 114.603872 
L 169.752173 109.337011 
L 170.277909 109.337011 
L 170.277909 104.07015 
L 170.65273 104.07015 
L 170.65273 98.803289 
L 171.079642 98.803289 
L 171.079642 93.536429 
L 171.419931 93.536429 
L 171.419931 88.269568 
L 171.868539 88.269568 
L 171.868539 83.002707 
L 172.228073 83.002707 
L 172.228073 77.735846 
L 172.618521 77.735846 
L 172.618521 72.468985 
L 173.028377 72.468985 
L 173.028377 67.202125 
L 173.358148 67.202125 
L 173.358148 61.935264 
L 173.686283 61.935264 
L 173.686283 56.668403 
L 174.036945 56.668403 
L 174.036945 51.401542 
L 174.341873 51.401542 
L 174.341873 46.134681 
L 174.686074 46.134681 
L 174.686074 40.867821 
L 174.973708 40.867821 
L 174.973708 35.60096 
L 175.320072 35.60096 
L 175.320072 30.334099 
L 338.688 30.334099 
" style="fill:none;stroke:#f5deb3;stroke-linecap:square;stroke-width:4;"/>
   </g>
   <g id="line2d_2">
    <defs>
     <path d="M -0 7.778175 
L 7.778175 0 
L 0 -7.778175 
L -7.778175 -0 
z
" id="mb2d12c5230" style="stroke:#f5deb3;stroke-linejoin:miter;stroke-width:1.5;"/>
    </defs>
    <g>
     <use style="fill:#f5deb3;stroke:#f5deb3;stroke-linejoin:miter;stroke-width:1.5;" x="138.976312" xlink:href="#mb2d12c5230" y="188.339923"/>
     <use style="fill:#f5deb3;stroke:#f5deb3;stroke-linejoin:miter;stroke-width:1.5;" x="172.618521" xlink:href="#mb2d12c5230" y="72.468985"/>
     <use style="fill:#f5deb3;stroke:#f5deb3;stroke-linejoin:miter;stroke-width:1.5;" x="175.320072" xlink:href="#mb2d12c5230" y="30.334099"/>
     <use style="fill:#f5deb3;stroke:#f5deb3;stroke-linejoin:miter;stroke-width:1.5;" x="175.320072" xlink:href="#mb2d12c5230" y="30.334099"/>
     <use style="fill:#f5deb3;stroke:#f5deb3;stroke-linejoin:miter;stroke-width:1.5;" x="338.688" xlink:href="#mb2d12c5230" y="30.334099"/>
    </g>
   </g>
   <g id="line2d_3">
    <path style="fill:none;stroke:#f5deb3;stroke-linecap:square;stroke-width:4;"/>
    <g/>
   </g>
   <g id="line2d_4">
    <path d="M 338.688 30.334099 
L 369.60768 35.706297 
" style="fill:none;stroke:#f5deb3;stroke-linecap:square;stroke-width:4;"/>
    <g>
     <use style="fill:#f5deb3;stroke:#f5deb3;stroke-linejoin:miter;stroke-width:1.5;" x="338.688" xlink:href="#mb2d12c5230" y="30.334099"/>
     <use style="fill:#f5deb3;stroke:#f5deb3;stroke-linejoin:miter;stroke-width:1.5;" x="369.60768" xlink:href="#mb2d12c5230" y="35.706297"/>
    </g>
   </g>
   <g id="matplotlib.axis_1">
    <g id="xtick_1">
     <g id="line2d_5">
      <path clip-path="url(#p5fb5f410a0)" d="M 57.6 298.944 
L 57.6 27.648 
" style="fill:none;stroke:#b0b0b0;stroke-linecap:square;stroke-width:0.8;"/>
     </g>
     <g id="line2d_6">
      <defs>
       <path d="M 0 0 
L 0 3.5 
" id="mc1729e1fa3" style="stroke:#000000;stroke-width:0.8;"/>
      </defs>
      <g>
       <use style="stroke:#000000;stroke-width:0.8;" x="57.6" xlink:href="#mc1729e1fa3" y="298.944"/>
      </g>
     </g>
     <g id="text_1">
      <!-- 0 -->
      <g transform="translate(51.2375 321.140875)scale(0.2 -0.2)">
       <defs>
        <path d="M 31.78125 66.40625 
Q 24.171875 66.40625 20.328125 58.90625 
Q 16.5 51.421875 16.5 36.375 
Q 16.5 21.390625 20.328125 13.890625 
Q 24.171875 6.390625 31.78125 6.390625 
Q 39.453125 6.390625 43.28125 13.890625 
Q 47.125 21.390625 47.125 36.375 
Q 47.125 51.421875 43.28125 58.90625 
Q 39.453125 66.40625 31.78125 66.40625 
z
M 31.78125 74.21875 
Q 44.046875 74.21875 50.515625 64.515625 
Q 56.984375 54.828125 56.984375 36.375 
Q 56.984375 17.96875 50.515625 8.265625 
Q 44.046875 -1.421875 31.78125 -1.421875 
Q 19.53125 -1.421875 13.0625 8.265625 
Q 6.59375 17.96875 6.59375 36.375 
Q 6.59375 54.828125 13.0625 64.515625 
Q 19.53125 74.21875 31.78125 74.21875 
z
" id="DejaVuSans-48"/>
       </defs>
       <use xlink:href="#DejaVuSans-48"/>
      </g>
     </g>
    </g>
    <g id="xtick_2">
     <g id="line2d_7">
      <path clip-path="url(#p5fb5f410a0)" d="M 137.910857 298.944 
L 137.910857 27.648 
" style="fill:none;stroke:#b0b0b0;stroke-linecap:square;stroke-width:0.8;"/>
     </g>
     <g id="line2d_8">
      <g>
       <use style="stroke:#000000;stroke-width:0.8;" x="137.910857" xlink:href="#mc1729e1fa3" y="298.944"/>
      </g>
     </g>
     <g id="text_2">
      <!-- 2 -->
      <g transform="translate(131.548357 321.140875)scale(0.2 -0.2)">
       <defs>
        <path d="M 19.1875 8.296875 
L 53.609375 8.296875 
L 53.609375 0 
L 7.328125 0 
L 7.328125 8.296875 
Q 12.9375 14.109375 22.625 23.890625 
Q 32.328125 33.6875 34.8125 36.53125 
Q 39.546875 41.84375 41.421875 45.53125 
Q 43.3125 49.21875 43.3125 52.78125 
Q 43.3125 58.59375 39.234375 62.25 
Q 35.15625 65.921875 28.609375 65.921875 
Q 23.96875 65.921875 18.8125 64.3125 
Q 13.671875 62.703125 7.8125 59.421875 
L 7.8125 69.390625 
Q 13.765625 71.78125 18.9375 73 
Q 24.125 74.21875 28.421875 74.21875 
Q 39.75 74.21875 46.484375 68.546875 
Q 53.21875 62.890625 53.21875 53.421875 
Q 53.21875 48.921875 51.53125 44.890625 
Q 49.859375 40.875 45.40625 35.40625 
Q 44.1875 33.984375 37.640625 27.21875 
Q 31.109375 20.453125 19.1875 8.296875 
z
" id="DejaVuSans-50"/>
       </defs>
       <use xlink:href="#DejaVuSans-50"/>
      </g>
     </g>
    </g>
    <g id="xtick_3">
     <g id="line2d_9">
      <path clip-path="url(#p5fb5f410a0)" d="M 218.221714 298.944 
L 218.221714 27.648 
" style="fill:none;stroke:#b0b0b0;stroke-linecap:square;stroke-width:0.8;"/>
     </g>
     <g id="line2d_10">
      <g>
       <use style="stroke:#000000;stroke-width:0.8;" x="218.221714" xlink:href="#mc1729e1fa3" y="298.944"/>
      </g>
     </g>
     <g id="text_3">
      <!-- 4 -->
      <g transform="translate(211.859214 321.140875)scale(0.2 -0.2)">
       <defs>
        <path d="M 37.796875 64.3125 
L 12.890625 25.390625 
L 37.796875 25.390625 
z
M 35.203125 72.90625 
L 47.609375 72.90625 
L 47.609375 25.390625 
L 58.015625 25.390625 
L 58.015625 17.1875 
L 47.609375 17.1875 
L 47.609375 0 
L 37.796875 0 
L 37.796875 17.1875 
L 4.890625 17.1875 
L 4.890625 26.703125 
z
" id="DejaVuSans-52"/>
       </defs>
       <use xlink:href="#DejaVuSans-52"/>
      </g>
     </g>
    </g>
    <g id="xtick_4">
     <g id="line2d_11">
      <path clip-path="url(#p5fb5f410a0)" d="M 298.532571 298.944 
L 298.532571 27.648 
" style="fill:none;stroke:#b0b0b0;stroke-linecap:square;stroke-width:0.8;"/>
     </g>
     <g id="line2d_12">
      <g>
       <use style="stroke:#000000;stroke-width:0.8;" x="298.532571" xlink:href="#mc1729e1fa3" y="298.944"/>
      </g>
     </g>
     <g id="text_4">
      <!-- 6 -->
      <g transform="translate(292.170071 321.140875)scale(0.2 -0.2)">
       <defs>
        <path d="M 33.015625 40.375 
Q 26.375 40.375 22.484375 35.828125 
Q 18.609375 31.296875 18.609375 23.390625 
Q 18.609375 15.53125 22.484375 10.953125 
Q 26.375 6.390625 33.015625 6.390625 
Q 39.65625 6.390625 43.53125 10.953125 
Q 47.40625 15.53125 47.40625 23.390625 
Q 47.40625 31.296875 43.53125 35.828125 
Q 39.65625 40.375 33.015625 40.375 
z
M 52.59375 71.296875 
L 52.59375 62.3125 
Q 48.875 64.0625 45.09375 64.984375 
Q 41.3125 65.921875 37.59375 65.921875 
Q 27.828125 65.921875 22.671875 59.328125 
Q 17.53125 52.734375 16.796875 39.40625 
Q 19.671875 43.65625 24.015625 45.921875 
Q 28.375 48.1875 33.59375 48.1875 
Q 44.578125 48.1875 50.953125 41.515625 
Q 57.328125 34.859375 57.328125 23.390625 
Q 57.328125 12.15625 50.6875 5.359375 
Q 44.046875 -1.421875 33.015625 -1.421875 
Q 20.359375 -1.421875 13.671875 8.265625 
Q 6.984375 17.96875 6.984375 36.375 
Q 6.984375 53.65625 15.1875 63.9375 
Q 23.390625 74.21875 37.203125 74.21875 
Q 40.921875 74.21875 44.703125 73.484375 
Q 48.484375 72.75 52.59375 71.296875 
z
" id="DejaVuSans-54"/>
       </defs>
       <use xlink:href="#DejaVuSans-54"/>
      </g>
     </g>
    </g>
    <g id="xtick_5">
     <g id="line2d_13">
      <path clip-path="url(#p5fb5f410a0)" d="M 97.755429 298.944 
L 97.755429 27.648 
" style="fill:none;stroke:#b0b0b0;stroke-linecap:square;stroke-width:0.8;"/>
     </g>
     <g id="line2d_14">
      <defs>
       <path d="M 0 0 
L 0 2 
" id="m184ac376c7" style="stroke:#000000;stroke-width:0.6;"/>
      </defs>
      <g>
       <use style="stroke:#000000;stroke-width:0.6;" x="97.755429" xlink:href="#m184ac376c7" y="298.944"/>
      </g>
     </g>
    </g>
    <g id="xtick_6">
     <g id="line2d_15">
      <path clip-path="url(#p5fb5f410a0)" d="M 178.066286 298.944 
L 178.066286 27.648 
" style="fill:none;stroke:#b0b0b0;stroke-linecap:square;stroke-width:0.8;"/>
     </g>
     <g id="line2d_16">
      <g>
       <use style="stroke:#000000;stroke-width:0.6;" x="178.066286" xlink:href="#m184ac376c7" y="298.944"/>
      </g>
     </g>
    </g>
    <g id="xtick_7">
     <g id="line2d_17">
      <path clip-path="url(#p5fb5f410a0)" d="M 258.377143 298.944 
L 258.377143 27.648 
" style="fill:none;stroke:#b0b0b0;stroke-linecap:square;stroke-width:0.8;"/>
     </g>
     <g id="line2d_18">
      <g>
       <use style="stroke:#000000;stroke-width:0.6;" x="258.377143" xlink:href="#m184ac376c7" y="298.944"/>
      </g>
     </g>
    </g>
    <g id="xtick_8">
     <g id="line2d_19">
      <path clip-path="url(#p5fb5f410a0)" d="M 338.688 298.944 
L 338.688 27.648 
" style="fill:none;stroke:#b0b0b0;stroke-linecap:square;stroke-width:0.8;"/>
     </g>
     <g id="line2d_20">
      <g>
       <use style="stroke:#000000;stroke-width:0.6;" x="338.688" xlink:href="#m184ac376c7" y="298.944"/>
      </g>
     </g>
    </g>
    <g id="text_5">
     <!-- log10(# f-evals / dimension) -->
     <g transform="translate(77.764078 342.217594)scale(0.17 -0.17)">
      <defs>
       <path d="M 9.421875 75.984375 
L 18.40625 75.984375 
L 18.40625 0 
L 9.421875 0 
z
" id="DejaVuSans-108"/>
       <path d="M 30.609375 48.390625 
Q 23.390625 48.390625 19.1875 42.75 
Q 14.984375 37.109375 14.984375 27.296875 
Q 14.984375 17.484375 19.15625 11.84375 
Q 23.34375 6.203125 30.609375 6.203125 
Q 37.796875 6.203125 41.984375 11.859375 
Q 46.1875 17.53125 46.1875 27.296875 
Q 46.1875 37.015625 41.984375 42.703125 
Q 37.796875 48.390625 30.609375 48.390625 
z
M 30.609375 56 
Q 42.328125 56 49.015625 48.375 
Q 55.71875 40.765625 55.71875 27.296875 
Q 55.71875 13.875 49.015625 6.21875 
Q 42.328125 -1.421875 30.609375 -1.421875 
Q 18.84375 -1.421875 12.171875 6.21875 
Q 5.515625 13.875 5.515625 27.296875 
Q 5.515625 40.765625 12.171875 48.375 
Q 18.84375 56 30.609375 56 
z
" id="DejaVuSans-111"/>
       <path d="M 45.40625 27.984375 
Q 45.40625 37.75 41.375 43.109375 
Q 37.359375 48.484375 30.078125 48.484375 
Q 22.859375 48.484375 18.828125 43.109375 
Q 14.796875 37.75 14.796875 27.984375 
Q 14.796875 18.265625 18.828125 12.890625 
Q 22.859375 7.515625 30.078125 7.515625 
Q 37.359375 7.515625 41.375 12.890625 
Q 45.40625 18.265625 45.40625 27.984375 
z
M 54.390625 6.78125 
Q 54.390625 -7.171875 48.1875 -13.984375 
Q 42 -20.796875 29.203125 -20.796875 
Q 24.46875 -20.796875 20.265625 -20.09375 
Q 16.0625 -19.390625 12.109375 -17.921875 
L 12.109375 -9.1875 
Q 16.0625 -11.328125 19.921875 -12.34375 
Q 23.78125 -13.375 27.78125 -13.375 
Q 36.625 -13.375 41.015625 -8.765625 
Q 45.40625 -4.15625 45.40625 5.171875 
L 45.40625 9.625 
Q 42.625 4.78125 38.28125 2.390625 
Q 33.9375 0 27.875 0 
Q 17.828125 0 11.671875 7.65625 
Q 5.515625 15.328125 5.515625 27.984375 
Q 5.515625 40.671875 11.671875 48.328125 
Q 17.828125 56 27.875 56 
Q 33.9375 56 38.28125 53.609375 
Q 42.625 51.21875 45.40625 46.390625 
L 45.40625 54.6875 
L 54.390625 54.6875 
z
" id="DejaVuSans-103"/>
       <path d="M 12.40625 8.296875 
L 28.515625 8.296875 
L 28.515625 63.921875 
L 10.984375 60.40625 
L 10.984375 69.390625 
L 28.421875 72.90625 
L 38.28125 72.90625 
L 38.28125 8.296875 
L 54.390625 8.296875 
L 54.390625 0 
L 12.40625 0 
z
" id="DejaVuSans-49"/>
       <path d="M 31 75.875 
Q 24.46875 64.65625 21.28125 53.65625 
Q 18.109375 42.671875 18.109375 31.390625 
Q 18.109375 20.125 21.3125 9.0625 
Q 24.515625 -2 31 -13.1875 
L 23.1875 -13.1875 
Q 15.875 -1.703125 12.234375 9.375 
Q 8.59375 20.453125 8.59375 31.390625 
Q 8.59375 42.28125 12.203125 53.3125 
Q 15.828125 64.359375 23.1875 75.875 
z
" id="DejaVuSans-40"/>
       <path d="M 51.125 44 
L 36.921875 44 
L 32.8125 27.6875 
L 47.125 27.6875 
z
M 43.796875 71.78125 
L 38.71875 51.515625 
L 52.984375 51.515625 
L 58.109375 71.78125 
L 65.921875 71.78125 
L 60.890625 51.515625 
L 76.125 51.515625 
L 76.125 44 
L 58.984375 44 
L 54.984375 27.6875 
L 70.515625 27.6875 
L 70.515625 20.21875 
L 53.078125 20.21875 
L 48 0 
L 40.1875 0 
L 45.21875 20.21875 
L 30.90625 20.21875 
L 25.875 0 
L 18.015625 0 
L 23.09375 20.21875 
L 7.71875 20.21875 
L 7.71875 27.6875 
L 24.90625 27.6875 
L 29 44 
L 13.28125 44 
L 13.28125 51.515625 
L 30.90625 51.515625 
L 35.890625 71.78125 
z
" id="DejaVuSans-35"/>
       <path id="DejaVuSans-32"/>
       <path d="M 37.109375 75.984375 
L 37.109375 68.5 
L 28.515625 68.5 
Q 23.6875 68.5 21.796875 66.546875 
Q 19.921875 64.59375 19.921875 59.515625 
L 19.921875 54.6875 
L 34.71875 54.6875 
L 34.71875 47.703125 
L 19.921875 47.703125 
L 19.921875 0 
L 10.890625 0 
L 10.890625 47.703125 
L 2.296875 47.703125 
L 2.296875 54.6875 
L 10.890625 54.6875 
L 10.890625 58.5 
Q 10.890625 67.625 15.140625 71.796875 
Q 19.390625 75.984375 28.609375 75.984375 
z
" id="DejaVuSans-102"/>
       <path d="M 4.890625 31.390625 
L 31.203125 31.390625 
L 31.203125 23.390625 
L 4.890625 23.390625 
z
" id="DejaVuSans-45"/>
       <path d="M 56.203125 29.59375 
L 56.203125 25.203125 
L 14.890625 25.203125 
Q 15.484375 15.921875 20.484375 11.0625 
Q 25.484375 6.203125 34.421875 6.203125 
Q 39.59375 6.203125 44.453125 7.46875 
Q 49.3125 8.734375 54.109375 11.28125 
L 54.109375 2.78125 
Q 49.265625 0.734375 44.1875 -0.34375 
Q 39.109375 -1.421875 33.890625 -1.421875 
Q 20.796875 -1.421875 13.15625 6.1875 
Q 5.515625 13.8125 5.515625 26.8125 
Q 5.515625 40.234375 12.765625 48.109375 
Q 20.015625 56 32.328125 56 
Q 43.359375 56 49.78125 48.890625 
Q 56.203125 41.796875 56.203125 29.59375 
z
M 47.21875 32.234375 
Q 47.125 39.59375 43.09375 43.984375 
Q 39.0625 48.390625 32.421875 48.390625 
Q 24.90625 48.390625 20.390625 44.140625 
Q 15.875 39.890625 15.1875 32.171875 
z
" id="DejaVuSans-101"/>
       <path d="M 2.984375 54.6875 
L 12.5 54.6875 
L 29.59375 8.796875 
L 46.6875 54.6875 
L 56.203125 54.6875 
L 35.6875 0 
L 23.484375 0 
z
" id="DejaVuSans-118"/>
       <path d="M 34.28125 27.484375 
Q 23.390625 27.484375 19.1875 25 
Q 14.984375 22.515625 14.984375 16.5 
Q 14.984375 11.71875 18.140625 8.90625 
Q 21.296875 6.109375 26.703125 6.109375 
Q 34.1875 6.109375 38.703125 11.40625 
Q 43.21875 16.703125 43.21875 25.484375 
L 43.21875 27.484375 
z
M 52.203125 31.203125 
L 52.203125 0 
L 43.21875 0 
L 43.21875 8.296875 
Q 40.140625 3.328125 35.546875 0.953125 
Q 30.953125 -1.421875 24.3125 -1.421875 
Q 15.921875 -1.421875 10.953125 3.296875 
Q 6 8.015625 6 15.921875 
Q 6 25.140625 12.171875 29.828125 
Q 18.359375 34.515625 30.609375 34.515625 
L 43.21875 34.515625 
L 43.21875 35.40625 
Q 43.21875 41.609375 39.140625 45 
Q 35.0625 48.390625 27.6875 48.390625 
Q 23 48.390625 18.546875 47.265625 
Q 14.109375 46.140625 10.015625 43.890625 
L 10.015625 52.203125 
Q 14.9375 54.109375 19.578125 55.046875 
Q 24.21875 56 28.609375 56 
Q 40.484375 56 46.34375 49.84375 
Q 52.203125 43.703125 52.203125 31.203125 
z
" id="DejaVuSans-97"/>
       <path d="M 44.28125 53.078125 
L 44.28125 44.578125 
Q 40.484375 46.53125 36.375 47.5 
Q 32.28125 48.484375 27.875 48.484375 
Q 21.1875 48.484375 17.84375 46.4375 
Q 14.5 44.390625 14.5 40.28125 
Q 14.5 37.15625 16.890625 35.375 
Q 19.28125 33.59375 26.515625 31.984375 
L 29.59375 31.296875 
Q 39.15625 29.25 43.1875 25.515625 
Q 47.21875 21.78125 47.21875 15.09375 
Q 47.21875 7.46875 41.1875 3.015625 
Q 35.15625 -1.421875 24.609375 -1.421875 
Q 20.21875 -1.421875 15.453125 -0.5625 
Q 10.6875 0.296875 5.421875 2 
L 5.421875 11.28125 
Q 10.40625 8.6875 15.234375 7.390625 
Q 20.0625 6.109375 24.8125 6.109375 
Q 31.15625 6.109375 34.5625 8.28125 
Q 37.984375 10.453125 37.984375 14.40625 
Q 37.984375 18.0625 35.515625 20.015625 
Q 33.0625 21.96875 24.703125 23.78125 
L 21.578125 24.515625 
Q 13.234375 26.265625 9.515625 29.90625 
Q 5.8125 33.546875 5.8125 39.890625 
Q 5.8125 47.609375 11.28125 51.796875 
Q 16.75 56 26.8125 56 
Q 31.78125 56 36.171875 55.265625 
Q 40.578125 54.546875 44.28125 53.078125 
z
" id="DejaVuSans-115"/>
       <path d="M 25.390625 72.90625 
L 33.6875 72.90625 
L 8.296875 -9.28125 
L 0 -9.28125 
z
" id="DejaVuSans-47"/>
       <path d="M 45.40625 46.390625 
L 45.40625 75.984375 
L 54.390625 75.984375 
L 54.390625 0 
L 45.40625 0 
L 45.40625 8.203125 
Q 42.578125 3.328125 38.25 0.953125 
Q 33.9375 -1.421875 27.875 -1.421875 
Q 17.96875 -1.421875 11.734375 6.484375 
Q 5.515625 14.40625 5.515625 27.296875 
Q 5.515625 40.1875 11.734375 48.09375 
Q 17.96875 56 27.875 56 
Q 33.9375 56 38.25 53.625 
Q 42.578125 51.265625 45.40625 46.390625 
z
M 14.796875 27.296875 
Q 14.796875 17.390625 18.875 11.75 
Q 22.953125 6.109375 30.078125 6.109375 
Q 37.203125 6.109375 41.296875 11.75 
Q 45.40625 17.390625 45.40625 27.296875 
Q 45.40625 37.203125 41.296875 42.84375 
Q 37.203125 48.484375 30.078125 48.484375 
Q 22.953125 48.484375 18.875 42.84375 
Q 14.796875 37.203125 14.796875 27.296875 
z
" id="DejaVuSans-100"/>
       <path d="M 9.421875 54.6875 
L 18.40625 54.6875 
L 18.40625 0 
L 9.421875 0 
z
M 9.421875 75.984375 
L 18.40625 75.984375 
L 18.40625 64.59375 
L 9.421875 64.59375 
z
" id="DejaVuSans-105"/>
       <path d="M 52 44.1875 
Q 55.375 50.25 60.0625 53.125 
Q 64.75 56 71.09375 56 
Q 79.640625 56 84.28125 50.015625 
Q 88.921875 44.046875 88.921875 33.015625 
L 88.921875 0 
L 79.890625 0 
L 79.890625 32.71875 
Q 79.890625 40.578125 77.09375 44.375 
Q 74.3125 48.1875 68.609375 48.1875 
Q 61.625 48.1875 57.5625 43.546875 
Q 53.515625 38.921875 53.515625 30.90625 
L 53.515625 0 
L 44.484375 0 
L 44.484375 32.71875 
Q 44.484375 40.625 41.703125 44.40625 
Q 38.921875 48.1875 33.109375 48.1875 
Q 26.21875 48.1875 22.15625 43.53125 
Q 18.109375 38.875 18.109375 30.90625 
L 18.109375 0 
L 9.078125 0 
L 9.078125 54.6875 
L 18.109375 54.6875 
L 18.109375 46.1875 
Q 21.1875 51.21875 25.484375 53.609375 
Q 29.78125 56 35.6875 56 
Q 41.65625 56 45.828125 52.96875 
Q 50 49.953125 52 44.1875 
z
" id="DejaVuSans-109"/>
       <path d="M 54.890625 33.015625 
L 54.890625 0 
L 45.90625 0 
L 45.90625 32.71875 
Q 45.90625 40.484375 42.875 44.328125 
Q 39.84375 48.1875 33.796875 48.1875 
Q 26.515625 48.1875 22.3125 43.546875 
Q 18.109375 38.921875 18.109375 30.90625 
L 18.109375 0 
L 9.078125 0 
L 9.078125 54.6875 
L 18.109375 54.6875 
L 18.109375 46.1875 
Q 21.34375 51.125 25.703125 53.5625 
Q 30.078125 56 35.796875 56 
Q 45.21875 56 50.046875 50.171875 
Q 54.890625 44.34375 54.890625 33.015625 
z
" id="DejaVuSans-110"/>
       <path d="M 8.015625 75.875 
L 15.828125 75.875 
Q 23.140625 64.359375 26.78125 53.3125 
Q 30.421875 42.28125 30.421875 31.390625 
Q 30.421875 20.453125 26.78125 9.375 
Q 23.140625 -1.703125 15.828125 -13.1875 
L 8.015625 -13.1875 
Q 14.5 -2 17.703125 9.0625 
Q 20.90625 20.125 20.90625 31.390625 
Q 20.90625 42.671875 17.703125 53.65625 
Q 14.5 64.65625 8.015625 75.875 
z
" id="DejaVuSans-41"/>
      </defs>
      <use xlink:href="#DejaVuSans-108"/>
      <use x="27.783203" xlink:href="#DejaVuSans-111"/>
      <use x="88.964844" xlink:href="#DejaVuSans-103"/>
      <use x="152.441406" xlink:href="#DejaVuSans-49"/>
      <use x="216.064453" xlink:href="#DejaVuSans-48"/>
      <use x="279.6875" xlink:href="#DejaVuSans-40"/>
      <use x="318.701172" xlink:href="#DejaVuSans-35"/>
      <use x="402.490234" xlink:href="#DejaVuSans-32"/>
      <use x="434.277344" xlink:href="#DejaVuSans-102"/>
      <use x="463.982422" xlink:href="#DejaVuSans-45"/>
      <use x="500.066406" xlink:href="#DejaVuSans-101"/>
      <use x="561.589844" xlink:href="#DejaVuSans-118"/>
      <use x="620.769531" xlink:href="#DejaVuSans-97"/>
      <use x="682.048828" xlink:href="#DejaVuSans-108"/>
      <use x="709.832031" xlink:href="#DejaVuSans-115"/>
      <use x="761.931641" xlink:href="#DejaVuSans-32"/>
      <use x="793.71875" xlink:href="#DejaVuSans-47"/>
      <use x="827.410156" xlink:href="#DejaVuSans-32"/>
      <use x="859.197266" xlink:href="#DejaVuSans-100"/>
      <use x="922.673828" xlink:href="#DejaVuSans-105"/>
      <use x="950.457031" xlink:href="#DejaVuSans-109"/>
      <use x="1047.869141" xlink:href="#DejaVuSans-101"/>
      <use x="1109.392578" xlink:href="#DejaVuSans-110"/>
      <use x="1172.771484" xlink:href="#DejaVuSans-115"/>
      <use x="1224.871094" xlink:href="#DejaVuSans-105"/>
      <use x="1252.654297" xlink:href="#DejaVuSans-111"/>
      <use x="1313.835938" xlink:href="#DejaVuSans-110"/>
      <use x="1377.214844" xlink:href="#DejaVuSans-41"/>
     </g>
    </g>
   </g>
   <g id="matplotlib.axis_2">
    <g id="ytick_1">
     <g id="line2d_21">
      <path clip-path="url(#p5fb5f410a0)" d="M 57.6 298.944 
L 338.688 298.944 
" style="fill:none;stroke:#b0b0b0;stroke-linecap:square;stroke-width:0.8;"/>
     </g>
     <g id="line2d_22">
      <defs>
       <path d="M 0 0 
L -3.5 0 
" id="m40f570653c" style="stroke:#000000;stroke-width:0.8;"/>
      </defs>
      <g>
       <use style="stroke:#000000;stroke-width:0.8;" x="57.6" xlink:href="#m40f570653c" y="298.944"/>
      </g>
     </g>
     <g id="text_6">
      <!-- 0.0 -->
      <g transform="translate(25.155 305.02275)scale(0.16 -0.16)">
       <defs>
        <path d="M 10.6875 12.40625 
L 21 12.40625 
L 21 0 
L 10.6875 0 
z
" id="DejaVuSans-46"/>
       </defs>
       <use xlink:href="#DejaVuSans-48"/>
       <use x="63.623047" xlink:href="#DejaVuSans-46"/>
       <use x="95.410156" xlink:href="#DejaVuSans-48"/>
      </g>
     </g>
    </g>
    <g id="ytick_2">
     <g id="line2d_23">
      <path clip-path="url(#p5fb5f410a0)" d="M 57.6 245.22202 
L 338.688 245.22202 
" style="fill:none;stroke:#b0b0b0;stroke-linecap:square;stroke-width:0.8;"/>
     </g>
     <g id="line2d_24">
      <g>
       <use style="stroke:#000000;stroke-width:0.8;" x="57.6" xlink:href="#m40f570653c" y="245.22202"/>
      </g>
     </g>
     <g id="text_7">
      <!-- 0.2 -->
      <g transform="translate(25.155 251.30077)scale(0.16 -0.16)">
       <use xlink:href="#DejaVuSans-48"/>
       <use x="63.623047" xlink:href="#DejaVuSans-46"/>
       <use x="95.410156" xlink:href="#DejaVuSans-50"/>
      </g>
     </g>
    </g>
    <g id="ytick_3">
     <g id="line2d_25">
      <path clip-path="url(#p5fb5f410a0)" d="M 57.6 191.50004 
L 338.688 191.50004 
" style="fill:none;stroke:#b0b0b0;stroke-linecap:square;stroke-width:0.8;"/>
     </g>
     <g id="line2d_26">
      <g>
       <use style="stroke:#000000;stroke-width:0.8;" x="57.6" xlink:href="#m40f570653c" y="191.50004"/>
      </g>
     </g>
     <g id="text_8">
      <!-- 0.4 -->
      <g transform="translate(25.155 197.57879)scale(0.16 -0.16)">
       <use xlink:href="#DejaVuSans-48"/>
       <use x="63.623047" xlink:href="#DejaVuSans-46"/>
       <use x="95.410156" xlink:href="#DejaVuSans-52"/>
      </g>
     </g>
    </g>
    <g id="ytick_4">
     <g id="line2d_27">
      <path clip-path="url(#p5fb5f410a0)" d="M 57.6 137.778059 
L 338.688 137.778059 
" style="fill:none;stroke:#b0b0b0;stroke-linecap:square;stroke-width:0.8;"/>
     </g>
     <g id="line2d_28">
      <g>
       <use style="stroke:#000000;stroke-width:0.8;" x="57.6" xlink:href="#m40f570653c" y="137.778059"/>
      </g>
     </g>
     <g id="text_9">
      <!-- 0.6 -->
      <g transform="translate(25.155 143.856809)scale(0.16 -0.16)">
       <use xlink:href="#DejaVuSans-48"/>
       <use x="63.623047" xlink:href="#DejaVuSans-46"/>
       <use x="95.410156" xlink:href="#DejaVuSans-54"/>
      </g>
     </g>
    </g>
    <g id="ytick_5">
     <g id="line2d_29">
      <path clip-path="url(#p5fb5f410a0)" d="M 57.6 84.056079 
L 338.688 84.056079 
" style="fill:none;stroke:#b0b0b0;stroke-linecap:square;stroke-width:0.8;"/>
     </g>
     <g id="line2d_30">
      <g>
       <use style="stroke:#000000;stroke-width:0.8;" x="57.6" xlink:href="#m40f570653c" y="84.056079"/>
      </g>
     </g>
     <g id="text_10">
      <!-- 0.8 -->
      <g transform="translate(25.155 90.134829)scale(0.16 -0.16)">
       <defs>
        <path d="M 31.78125 34.625 
Q 24.75 34.625 20.71875 30.859375 
Q 16.703125 27.09375 16.703125 20.515625 
Q 16.703125 13.921875 20.71875 10.15625 
Q 24.75 6.390625 31.78125 6.390625 
Q 38.8125 6.390625 42.859375 10.171875 
Q 46.921875 13.96875 46.921875 20.515625 
Q 46.921875 27.09375 42.890625 30.859375 
Q 38.875 34.625 31.78125 34.625 
z
M 21.921875 38.8125 
Q 15.578125 40.375 12.03125 44.71875 
Q 8.5 49.078125 8.5 55.328125 
Q 8.5 64.0625 14.71875 69.140625 
Q 20.953125 74.21875 31.78125 74.21875 
Q 42.671875 74.21875 48.875 69.140625 
Q 55.078125 64.0625 55.078125 55.328125 
Q 55.078125 49.078125 51.53125 44.71875 
Q 48 40.375 41.703125 38.8125 
Q 48.828125 37.15625 52.796875 32.3125 
Q 56.78125 27.484375 56.78125 20.515625 
Q 56.78125 9.90625 50.3125 4.234375 
Q 43.84375 -1.421875 31.78125 -1.421875 
Q 19.734375 -1.421875 13.25 4.234375 
Q 6.78125 9.90625 6.78125 20.515625 
Q 6.78125 27.484375 10.78125 32.3125 
Q 14.796875 37.15625 21.921875 38.8125 
z
M 18.3125 54.390625 
Q 18.3125 48.734375 21.84375 45.5625 
Q 25.390625 42.390625 31.78125 42.390625 
Q 38.140625 42.390625 41.71875 45.5625 
Q 45.3125 48.734375 45.3125 54.390625 
Q 45.3125 60.0625 41.71875 63.234375 
Q 38.140625 66.40625 31.78125 66.40625 
Q 25.390625 66.40625 21.84375 63.234375 
Q 18.3125 60.0625 18.3125 54.390625 
z
" id="DejaVuSans-56"/>
       </defs>
       <use xlink:href="#DejaVuSans-48"/>
       <use x="63.623047" xlink:href="#DejaVuSans-46"/>
       <use x="95.410156" xlink:href="#DejaVuSans-56"/>
      </g>
     </g>
    </g>
    <g id="ytick_6">
     <g id="line2d_31">
      <path clip-path="url(#p5fb5f410a0)" d="M 57.6 30.334099 
L 338.688 30.334099 
" style="fill:none;stroke:#b0b0b0;stroke-linecap:square;stroke-width:0.8;"/>
     </g>
     <g id="line2d_32">
      <g>
       <use style="stroke:#000000;stroke-width:0.8;" x="57.6" xlink:href="#m40f570653c" y="30.334099"/>
      </g>
     </g>
     <g id="text_11">
      <!-- 1.0 -->
      <g transform="translate(25.155 36.412849)scale(0.16 -0.16)">
       <use xlink:href="#DejaVuSans-49"/>
       <use x="63.623047" xlink:href="#DejaVuSans-46"/>
       <use x="95.410156" xlink:href="#DejaVuSans-48"/>
      </g>
     </g>
    </g>
    <g id="text_12">
     <!-- Fraction of function,target pairs -->
     <g transform="translate(17.619531 297.681)rotate(-90)scale(0.17 -0.17)">
      <defs>
       <path d="M 9.8125 72.90625 
L 51.703125 72.90625 
L 51.703125 64.59375 
L 19.671875 64.59375 
L 19.671875 43.109375 
L 48.578125 43.109375 
L 48.578125 34.8125 
L 19.671875 34.8125 
L 19.671875 0 
L 9.8125 0 
z
" id="DejaVuSans-70"/>
       <path d="M 41.109375 46.296875 
Q 39.59375 47.171875 37.8125 47.578125 
Q 36.03125 48 33.890625 48 
Q 26.265625 48 22.1875 43.046875 
Q 18.109375 38.09375 18.109375 28.8125 
L 18.109375 0 
L 9.078125 0 
L 9.078125 54.6875 
L 18.109375 54.6875 
L 18.109375 46.1875 
Q 20.953125 51.171875 25.484375 53.578125 
Q 30.03125 56 36.53125 56 
Q 37.453125 56 38.578125 55.875 
Q 39.703125 55.765625 41.0625 55.515625 
z
" id="DejaVuSans-114"/>
       <path d="M 48.78125 52.59375 
L 48.78125 44.1875 
Q 44.96875 46.296875 41.140625 47.34375 
Q 37.3125 48.390625 33.40625 48.390625 
Q 24.65625 48.390625 19.8125 42.84375 
Q 14.984375 37.3125 14.984375 27.296875 
Q 14.984375 17.28125 19.8125 11.734375 
Q 24.65625 6.203125 33.40625 6.203125 
Q 37.3125 6.203125 41.140625 7.25 
Q 44.96875 8.296875 48.78125 10.40625 
L 48.78125 2.09375 
Q 45.015625 0.34375 40.984375 -0.53125 
Q 36.96875 -1.421875 32.421875 -1.421875 
Q 20.0625 -1.421875 12.78125 6.34375 
Q 5.515625 14.109375 5.515625 27.296875 
Q 5.515625 40.671875 12.859375 48.328125 
Q 20.21875 56 33.015625 56 
Q 37.15625 56 41.109375 55.140625 
Q 45.0625 54.296875 48.78125 52.59375 
z
" id="DejaVuSans-99"/>
       <path d="M 18.3125 70.21875 
L 18.3125 54.6875 
L 36.8125 54.6875 
L 36.8125 47.703125 
L 18.3125 47.703125 
L 18.3125 18.015625 
Q 18.3125 11.328125 20.140625 9.421875 
Q 21.96875 7.515625 27.59375 7.515625 
L 36.8125 7.515625 
L 36.8125 0 
L 27.59375 0 
Q 17.1875 0 13.234375 3.875 
Q 9.28125 7.765625 9.28125 18.015625 
L 9.28125 47.703125 
L 2.6875 47.703125 
L 2.6875 54.6875 
L 9.28125 54.6875 
L 9.28125 70.21875 
z
" id="DejaVuSans-116"/>
       <path d="M 8.5 21.578125 
L 8.5 54.6875 
L 17.484375 54.6875 
L 17.484375 21.921875 
Q 17.484375 14.15625 20.5 10.265625 
Q 23.53125 6.390625 29.59375 6.390625 
Q 36.859375 6.390625 41.078125 11.03125 
Q 45.3125 15.671875 45.3125 23.6875 
L 45.3125 54.6875 
L 54.296875 54.6875 
L 54.296875 0 
L 45.3125 0 
L 45.3125 8.40625 
Q 42.046875 3.421875 37.71875 1 
Q 33.40625 -1.421875 27.6875 -1.421875 
Q 18.265625 -1.421875 13.375 4.4375 
Q 8.5 10.296875 8.5 21.578125 
z
M 31.109375 56 
z
" id="DejaVuSans-117"/>
       <path d="M 11.71875 12.40625 
L 22.015625 12.40625 
L 22.015625 4 
L 14.015625 -11.625 
L 7.71875 -11.625 
L 11.71875 4 
z
" id="DejaVuSans-44"/>
       <path d="M 18.109375 8.203125 
L 18.109375 -20.796875 
L 9.078125 -20.796875 
L 9.078125 54.6875 
L 18.109375 54.6875 
L 18.109375 46.390625 
Q 20.953125 51.265625 25.265625 53.625 
Q 29.59375 56 35.59375 56 
Q 45.5625 56 51.78125 48.09375 
Q 58.015625 40.1875 58.015625 27.296875 
Q 58.015625 14.40625 51.78125 6.484375 
Q 45.5625 -1.421875 35.59375 -1.421875 
Q 29.59375 -1.421875 25.265625 0.953125 
Q 20.953125 3.328125 18.109375 8.203125 
z
M 48.6875 27.296875 
Q 48.6875 37.203125 44.609375 42.84375 
Q 40.53125 48.484375 33.40625 48.484375 
Q 26.265625 48.484375 22.1875 42.84375 
Q 18.109375 37.203125 18.109375 27.296875 
Q 18.109375 17.390625 22.1875 11.75 
Q 26.265625 6.109375 33.40625 6.109375 
Q 40.53125 6.109375 44.609375 11.75 
Q 48.6875 17.390625 48.6875 27.296875 
z
" id="DejaVuSans-112"/>
      </defs>
      <use xlink:href="#DejaVuSans-70"/>
      <use x="50.269531" xlink:href="#DejaVuSans-114"/>
      <use x="91.382812" xlink:href="#DejaVuSans-97"/>
      <use x="152.662109" xlink:href="#DejaVuSans-99"/>
      <use x="207.642578" xlink:href="#DejaVuSans-116"/>
      <use x="246.851562" xlink:href="#DejaVuSans-105"/>
      <use x="274.634766" xlink:href="#DejaVuSans-111"/>
      <use x="335.816406" xlink:href="#DejaVuSans-110"/>
      <use x="399.195312" xlink:href="#DejaVuSans-32"/>
      <use x="430.982422" xlink:href="#DejaVuSans-111"/>
      <use x="492.164062" xlink:href="#DejaVuSans-102"/>
      <use x="527.369141" xlink:href="#DejaVuSans-32"/>
      <use x="559.15625" xlink:href="#DejaVuSans-102"/>
      <use x="594.361328" xlink:href="#DejaVuSans-117"/>
      <use x="657.740234" xlink:href="#DejaVuSans-110"/>
      <use x="721.119141" xlink:href="#DejaVuSans-99"/>
      <use x="776.099609" xlink:href="#DejaVuSans-116"/>
      <use x="815.308594" xlink:href="#DejaVuSans-105"/>
      <use x="843.091797" xlink:href="#DejaVuSans-111"/>
      <use x="904.273438" xlink:href="#DejaVuSans-110"/>
      <use x="967.652344" xlink:href="#DejaVuSans-44"/>
      <use x="999.439453" xlink:href="#DejaVuSans-116"/>
      <use x="1038.648438" xlink:href="#DejaVuSans-97"/>
      <use x="1099.927734" xlink:href="#DejaVuSans-114"/>
      <use x="1139.291016" xlink:href="#DejaVuSans-103"/>
      <use x="1202.767578" xlink:href="#DejaVuSans-101"/>
      <use x="1264.291016" xlink:href="#DejaVuSans-116"/>
      <use x="1303.5" xlink:href="#DejaVuSans-32"/>
      <use x="1335.287109" xlink:href="#DejaVuSans-112"/>
      <use x="1398.763672" xlink:href="#DejaVuSans-97"/>
      <use x="1460.042969" xlink:href="#DejaVuSans-105"/>
      <use x="1487.826172" xlink:href="#DejaVuSans-114"/>
      <use x="1528.939453" xlink:href="#DejaVuSans-115"/>
     </g>
    </g>
   </g>
   <g id="line2d_33">
    <defs>
     <path d="M 0 1.5 
C 0.397805 1.5 0.77937 1.341951 1.06066 1.06066 
C 1.341951 0.77937 1.5 0.397805 1.5 0 
C 1.5 -0.397805 1.341951 -0.77937 1.06066 -1.06066 
C 0.77937 -1.341951 0.397805 -1.5 0 -1.5 
C -0.397805 -1.5 -0.77937 -1.341951 -1.06066 -1.06066 
C -1.341951 -0.77937 -1.5 -0.397805 -1.5 0 
C -1.5 0.397805 -1.341951 0.77937 -1.06066 1.06066 
C -0.77937 1.341951 -0.397805 1.5 0 1.5 
z
" id="mdf73238c00" style="stroke:#f5deb3;"/>
    </defs>
    <g>
     <use style="fill:#f5deb3;stroke:#f5deb3;" x="175.320072" xlink:href="#mdf73238c00" y="30.334099"/>
     <use style="fill:#f5deb3;stroke:#f5deb3;" x="175.320072" xlink:href="#mdf73238c00" y="30.334099"/>
    </g>
   </g>
   <g id="line2d_34">
    <defs>
     <path d="M 0 1.5 
C 0.397805 1.5 0.77937 1.341951 1.06066 1.06066 
C 1.341951 0.77937 1.5 0.397805 1.5 0 
C 1.5 -0.397805 1.341951 -0.77937 1.06066 -1.06066 
C 0.77937 -1.341951 0.397805 -1.5 0 -1.5 
C -0.397805 -1.5 -0.77937 -1.341951 -1.06066 -1.06066 
C -1.341951 -0.77937 -1.5 -0.397805 -1.5 0 
C -1.5 0.397805 -1.341951 0.77937 -1.06066 1.06066 
C -0.77937 1.341951 -0.397805 1.5 0 1.5 
z
" id="m1f1046322b" style="stroke:#000080;"/>
    </defs>
    <g>
     <use style="fill:#000080;stroke:#000080;" x="217.287868" xlink:href="#m1f1046322b" y="30.334099"/>
     <use style="fill:#000080;stroke:#000080;" x="217.287868" xlink:href="#m1f1046322b" y="30.334099"/>
    </g>
   </g>
   <g id="line2d_35">
    <path d="M 117.598418 298.944 
L 117.598418 298.417314 
L 118.310324 298.417314 
L 118.310324 297.890628 
L 119.552816 297.890628 
L 119.552816 297.363942 
L 119.80089 297.363942 
L 119.89914 296.31057 
L 120.093994 296.31057 
L 120.093994 295.783884 
L 120.382253 295.783884 
L 120.382253 295.257197 
L 120.712642 295.257197 
L 120.712642 294.730511 
L 122.018385 294.730511 
L 122.018385 294.203825 
L 122.489167 294.203825 
L 122.573415 292.623767 
L 122.865118 292.623767 
L 122.865118 292.097081 
L 123.273551 292.097081 
L 123.273551 291.570395 
L 123.394238 291.570395 
L 123.394238 291.043709 
L 123.790603 291.043709 
L 123.790603 290.517023 
L 123.94666 290.517023 
L 123.94666 289.990337 
L 124.139788 289.990337 
L 124.139788 289.463651 
L 124.444412 289.463651 
L 124.482119 288.410278 
L 125.291682 288.410278 
L 125.291682 287.883592 
L 125.927192 287.883592 
L 125.927192 287.356906 
L 126.065325 287.356906 
L 126.065325 286.83022 
L 126.270496 286.83022 
L 126.372183 285.776848 
L 126.439646 285.776848 
L 126.439646 284.723476 
L 127.132689 284.723476 
L 127.197279 283.143418 
L 127.325746 283.143418 
L 127.325746 282.616732 
L 127.892415 282.616732 
L 127.923363 281.563359 
L 128.350967 281.563359 
L 128.350967 281.036673 
L 128.709321 281.036673 
L 128.709321 280.509987 
L 129.770048 280.509987 
L 129.770048 279.983301 
L 130.018593 279.983301 
L 130.018593 278.929929 
L 130.425122 278.929929 
L 130.505303 276.823185 
L 130.717333 276.823185 
L 130.717333 276.296499 
L 130.874681 276.296499 
L 130.900768 275.243126 
L 131.056477 275.243126 
L 131.108073 273.663068 
L 131.590764 273.663068 
L 131.590764 273.136382 
L 131.888878 273.136382 
L 131.888878 272.609696 
L 132.036046 272.609696 
L 132.060454 271.556324 
L 132.206187 271.556324 
L 132.206187 271.029638 
L 132.350712 271.029638 
L 132.350712 269.449579 
L 133.032848 269.449579 
L 133.101914 268.396207 
L 133.622529 268.396207 
L 133.622529 267.869521 
L 133.975741 267.869521 
L 133.975741 267.342835 
L 134.492498 267.342835 
L 134.492498 266.816149 
L 134.724323 266.816149 
L 134.724323 266.289463 
L 135.056115 266.289463 
L 135.138086 264.709405 
L 135.621981 264.709405 
L 135.721125 263.656033 
L 135.740886 263.656033 
L 135.740886 263.129347 
L 135.917737 263.129347 
L 135.97629 262.075974 
L 136.266147 262.075974 
L 136.2853 261.022602 
L 136.418789 261.022602 
L 136.494612 259.96923 
L 136.551264 259.96923 
L 136.551264 259.442544 
L 136.96118 259.442544 
L 136.96118 258.915858 
L 137.162581 258.915858 
L 137.217107 257.862486 
L 137.910857 257.862486 
L 137.997836 256.282427 
L 138.136107 256.282427 
L 138.136107 255.755741 
L 138.811478 255.755741 
L 138.811478 255.229055 
L 139.397728 255.229055 
L 139.445704 254.175683 
L 139.541262 254.175683 
L 139.620495 252.595625 
L 139.9494 252.595625 
L 139.9494 252.068939 
L 140.103868 252.068939 
L 140.149942 251.015567 
L 140.423864 251.015567 
L 140.514223 249.962195 
L 141.506851 249.962195 
L 141.506851 249.435508 
L 141.955115 249.435508 
L 141.996555 248.382136 
L 142.243147 248.382136 
L 142.243147 247.85545 
L 142.51311 247.85545 
L 142.553247 246.275392 
L 142.805321 246.275392 
L 142.805321 245.748706 
L 143.260342 245.748706 
L 143.260342 245.22202 
L 143.641127 245.22202 
L 143.641127 244.695334 
L 145.016721 244.695334 
L 145.016721 244.168648 
L 145.361382 244.168648 
L 145.361382 243.641962 
L 146.580487 243.641962 
L 146.580487 243.115275 
L 147.907696 243.115275 
L 147.907696 242.588589 
L 154.727882 242.588589 
L 154.727882 242.061903 
L 155.135299 242.061903 
L 155.135299 241.535217 
L 156.003167 241.535217 
L 156.015522 239.428473 
L 158.031107 239.428473 
L 158.031107 238.901787 
L 158.503274 238.901787 
L 158.503274 238.375101 
L 158.795307 238.375101 
L 158.795307 237.848415 
L 158.936899 237.848415 
L 159.015067 236.795043 
L 160.171742 236.795043 
L 160.171742 236.268356 
L 160.475629 236.268356 
L 160.475629 235.74167 
L 161.02168 235.74167 
L 161.100288 234.688298 
L 161.388547 234.688298 
L 161.411222 233.634926 
L 161.564634 233.634926 
L 161.654251 232.054868 
L 161.730064 232.054868 
L 161.765627 231.001496 
L 161.977497 231.001496 
L 162.012559 229.948123 
L 162.126028 229.948123 
L 162.126028 229.421437 
L 162.38081 229.421437 
L 162.444996 228.368065 
L 162.508946 228.368065 
L 162.534461 227.314693 
L 162.636148 227.314693 
L 162.636148 226.788007 
L 162.946002 226.788007 
L 163.004009 225.734635 
L 163.119446 225.734635 
L 163.119446 225.207949 
L 163.254524 225.207949 
L 163.2749 224.154577 
L 163.613694 224.154577 
L 163.637643 223.101204 
L 163.741046 223.101204 
L 163.7569 222.047832 
L 163.93427 222.047832 
L 164.043731 220.99446 
L 164.133133 220.99446 
L 164.22208 219.941088 
L 164.310575 219.941088 
L 164.310575 219.414402 
L 164.50142 219.414402 
L 164.512805 218.36103 
L 164.697709 218.36103 
L 164.77262 217.307658 
L 164.813684 217.307658 
L 164.813684 216.780971 
L 165.273656 216.780971 
L 165.291805 215.727599 
L 165.429123 215.727599 
L 165.497378 214.147541 
L 165.54035 214.147541 
L 165.54035 213.620855 
L 165.672183 213.620855 
L 165.686375 212.567483 
L 165.813593 212.567483 
L 165.813593 212.040797 
L 165.950372 212.040797 
L 165.974809 210.987425 
L 166.124175 210.987425 
L 166.124175 210.460738 
L 166.296264 210.460738 
L 166.296264 209.934052 
L 166.520851 209.934052 
L 166.581603 207.827308 
L 166.812546 207.827308 
L 166.825841 206.773936 
L 167.056871 206.773936 
L 167.125588 205.720564 
L 167.284882 205.720564 
L 167.355931 204.667192 
L 167.404208 204.667192 
L 167.513144 202.560447 
L 167.605525 202.560447 
L 167.687935 201.507075 
L 167.810825 201.507075 
L 167.810825 200.980389 
L 167.973343 200.980389 
L 168.072606 198.873645 
L 168.162078 198.873645 
L 168.235778 196.7669 
L 168.318321 196.7669 
L 168.391365 195.713528 
L 168.662588 195.713528 
L 168.772878 194.13347 
L 168.790698 194.13347 
L 168.790698 193.606784 
L 168.988454 193.606784 
L 169.093793 192.026726 
L 169.122941 192.026726 
L 169.122941 191.50004 
L 169.256398 191.50004 
L 169.348639 190.446667 
L 169.448972 190.446667 
L 169.525979 189.393295 
L 169.647923 189.393295 
L 169.743743 187.813237 
L 169.771826 187.813237 
L 169.811066 186.759865 
L 170.088811 186.759865 
L 170.088811 186.233179 
L 170.326903 186.233179 
L 170.397431 184.653121 
L 170.559106 184.653121 
L 170.607318 183.073062 
L 170.798844 183.073062 
L 170.872762 182.01969 
L 170.9621 182.01969 
L 171.019664 180.966318 
L 171.358552 180.966318 
L 171.358552 180.439632 
L 171.53951 180.439632 
L 171.53951 179.912946 
L 171.823695 179.912946 
L 171.871027 178.859574 
L 172.068921 178.859574 
L 172.154799 177.806202 
L 172.22076 177.806202 
L 172.247561 176.752829 
L 172.472525 176.752829 
L 172.558835 175.172771 
L 172.68038 175.172771 
L 172.739653 174.119399 
L 172.864649 174.119399 
L 172.944366 173.066027 
L 173.016733 173.066027 
L 173.077198 172.012655 
L 173.137453 172.012655 
L 173.172121 170.432596 
L 173.268827 170.432596 
L 173.337576 167.799166 
L 173.39694 167.799166 
L 173.506007 164.63905 
L 173.512801 164.63905 
L 173.539951 163.585677 
L 173.632396 163.585677 
L 173.717641 160.952247 
L 173.780187 160.952247 
L 173.780187 159.372189 
L 173.920102 159.372189 
L 174.025955 156.212072 
L 174.093979 156.212072 
L 174.137725 154.105328 
L 174.216192 154.105328 
L 174.302965 152.52527 
L 174.333234 152.52527 
L 174.408678 150.418525 
L 174.470942 150.418525 
L 174.573514 148.311781 
L 174.645805 148.311781 
L 174.741027 146.731723 
L 174.764225 146.731723 
L 174.84832 144.624978 
L 174.883938 144.624978 
L 174.963293 142.518234 
L 175.085791 142.518234 
L 175.166295 141.464862 
L 175.232072 141.464862 
L 175.30169 140.41149 
L 175.46036 140.41149 
L 175.555276 138.304745 
L 175.58546 138.304745 
L 175.681699 136.724687 
L 175.731614 136.724687 
L 175.77741 135.671315 
L 175.890389 135.671315 
L 175.971204 134.091257 
L 176.045773 134.091257 
L 176.131719 131.984513 
L 176.180364 131.984513 
L 176.255981 130.404454 
L 176.367833 130.404454 
L 176.475152 128.29771 
L 176.595102 128.29771 
L 176.695377 126.190966 
L 176.714232 126.190966 
L 176.808204 123.557535 
L 176.879286 123.557535 
L 176.977944 120.397419 
L 177.011325 120.397419 
L 177.027991 118.817361 
L 177.197449 118.817361 
L 177.303441 116.18393 
L 177.334386 116.18393 
L 177.443166 113.5505 
L 177.457619 113.5505 
L 177.558456 110.917069 
L 177.571019 110.917069 
L 177.674772 109.337011 
L 177.72286 109.337011 
L 177.774364 108.283639 
L 177.864572 108.283639 
L 177.966597 107.230267 
L 178.008641 107.230267 
L 178.041854 106.176895 
L 178.227722 106.176895 
L 178.227722 105.650209 
L 178.356832 105.650209 
L 178.42701 104.596836 
L 178.5326 104.596836 
L 178.5326 104.07015 
L 178.745235 104.07015 
L 178.745235 103.543464 
L 179.469684 103.543464 
L 179.513075 101.963406 
L 181.196361 101.963406 
L 181.196361 101.43672 
L 181.443813 101.43672 
L 181.44956 100.383348 
L 181.626769 100.383348 
L 181.680717 99.329976 
L 181.781069 99.329976 
L 181.781069 98.803289 
L 181.917243 98.803289 
L 181.917243 98.276603 
L 182.16991 98.276603 
L 182.16991 97.749917 
L 182.338619 97.749917 
L 182.436623 96.696545 
L 182.569139 96.696545 
L 182.629652 94.589801 
L 182.736716 94.589801 
L 182.793992 93.536429 
L 182.92515 93.536429 
L 182.92515 93.009743 
L 183.088049 93.009743 
L 183.198842 90.902998 
L 183.249441 90.902998 
L 183.35149 87.742882 
L 183.406785 87.742882 
L 183.498982 85.109451 
L 183.528331 85.109451 
L 183.604663 84.056079 
L 183.654101 84.056079 
L 183.758849 81.949335 
L 183.871725 81.949335 
L 183.92789 79.315904 
L 184.028534 79.315904 
L 184.132295 76.682474 
L 184.225646 76.682474 
L 184.323372 74.57573 
L 184.37689 74.57573 
L 184.477397 73.522358 
L 184.50153 73.522358 
L 184.556908 71.942299 
L 187.436616 71.942299 
L 187.534168 70.888927 
L 187.603947 70.888927 
L 187.603947 70.362241 
L 187.716621 70.362241 
L 187.716621 69.835555 
L 187.867387 69.835555 
L 187.867387 69.308869 
L 188.056242 69.308869 
L 188.107306 68.255497 
L 188.283891 68.255497 
L 188.387446 66.675439 
L 188.557408 66.675439 
L 188.605122 65.622066 
L 188.730462 65.622066 
L 188.730462 65.09538 
L 190.538044 65.09538 
L 190.546572 64.042008 
L 190.944412 64.042008 
L 191.050754 62.988636 
L 191.339081 62.988636 
L 191.339081 62.46195 
L 192.721552 62.46195 
L 192.721552 61.935264 
L 192.959995 61.935264 
L 193.032597 60.881892 
L 193.077636 60.881892 
L 193.184964 59.301833 
L 193.277061 59.301833 
L 193.352713 58.248461 
L 193.473511 58.248461 
L 193.528209 57.195089 
L 193.586317 57.195089 
L 193.679175 54.034973 
L 193.714047 54.034973 
L 193.753106 52.9816 
L 193.825313 52.9816 
L 193.87892 50.874856 
L 193.954816 50.874856 
L 193.978642 49.821484 
L 194.067349 49.821484 
L 194.15006 47.71474 
L 194.188848 47.71474 
L 194.260655 45.081309 
L 194.315003 45.081309 
L 194.3945 42.974565 
L 194.449115 42.974565 
L 194.500842 41.394507 
L 194.622743 41.394507 
L 194.622743 40.867821 
L 201.156242 40.867821 
L 201.193322 39.814448 
L 201.412334 39.814448 
L 201.520362 38.761076 
L 201.54942 38.761076 
L 201.558491 37.707704 
L 203.526585 37.707704 
L 203.635601 34.547588 
L 203.740339 34.547588 
L 203.740339 34.020902 
L 203.913913 34.020902 
L 203.913913 33.494215 
L 205.38108 33.494215 
L 205.38108 32.967529 
L 205.649938 32.967529 
L 205.649938 32.440843 
L 209.005097 32.440843 
L 209.074481 30.860785 
L 217.287868 30.860785 
L 217.287868 30.334099 
L 338.688 30.334099 
L 338.688 30.334099 
" style="fill:none;stroke:#000080;stroke-linecap:square;stroke-width:1.5;"/>
   </g>
   <g id="line2d_36">
    <defs>
     <path d="M 0 6 
C 1.591219 6 3.117479 5.367802 4.242641 4.242641 
C 5.367802 3.117479 6 1.591219 6 0 
C 6 -1.591219 5.367802 -3.117479 4.242641 -4.242641 
C 3.117479 -5.367802 1.591219 -6 0 -6 
C -1.591219 -6 -3.117479 -5.367802 -4.242641 -4.242641 
C -5.367802 -3.117479 -6 -1.591219 -6 0 
C -6 1.591219 -5.367802 3.117479 -4.242641 4.242641 
C -3.117479 5.367802 -1.591219 6 0 6 
z
" id="m1014f4c347" style="stroke:#000080;stroke-width:1.5;"/>
    </defs>
    <g>
     <use style="fill-opacity:0;stroke:#000080;stroke-width:1.5;" x="171.019664" xlink:href="#m1014f4c347" y="180.966318"/>
     <use style="fill-opacity:0;stroke:#000080;stroke-width:1.5;" x="201.558491" xlink:href="#m1014f4c347" y="37.707704"/>
     <use style="fill-opacity:0;stroke:#000080;stroke-width:1.5;" x="217.287868" xlink:href="#m1014f4c347" y="30.334099"/>
     <use style="fill-opacity:0;stroke:#000080;stroke-width:1.5;" x="217.287868" xlink:href="#m1014f4c347" y="30.334099"/>
     <use style="fill-opacity:0;stroke:#000080;stroke-width:1.5;" x="338.688" xlink:href="#m1014f4c347" y="30.334099"/>
    </g>
   </g>
   <g id="line2d_37">
    <path style="fill:none;stroke:#000080;stroke-linecap:square;stroke-width:1.5;"/>
    <g/>
   </g>
   <g id="line2d_38">
    <defs>
     <path d="M 0 1.5 
C 0.397805 1.5 0.77937 1.341951 1.06066 1.06066 
C 1.341951 0.77937 1.5 0.397805 1.5 0 
C 1.5 -0.397805 1.341951 -0.77937 1.06066 -1.06066 
C 0.77937 -1.341951 0.397805 -1.5 0 -1.5 
C -0.397805 -1.5 -0.77937 -1.341951 -1.06066 -1.06066 
C -1.341951 -0.77937 -1.5 -0.397805 -1.5 0 
C -1.5 0.397805 -1.341951 0.77937 -1.06066 1.06066 
C -0.77937 1.341951 -0.397805 1.5 0 1.5 
z
" id="m077c0ffd62" style="stroke:#ff00ff;"/>
    </defs>
    <g>
     <use style="fill:#ff00ff;stroke:#ff00ff;" x="300.219604" xlink:href="#m077c0ffd62" y="209.407366"/>
     <use style="fill:#ff00ff;stroke:#ff00ff;" x="300.219604" xlink:href="#m077c0ffd62" y="209.407366"/>
    </g>
   </g>
   <g id="line2d_39">
    <path d="M 147.640233 298.944 
L 147.640233 298.417314 
L 148.267683 298.417314 
L 148.267683 297.890628 
L 149.65542 297.890628 
L 149.65542 297.363942 
L 150.573489 297.363942 
L 150.573489 296.837256 
L 151.316753 296.837256 
L 151.316753 296.31057 
L 151.477707 296.31057 
L 151.477707 295.783884 
L 151.63719 295.783884 
L 151.708484 294.730511 
L 151.834513 294.730511 
L 151.834513 294.203825 
L 152.253262 294.203825 
L 152.253262 293.677139 
L 152.398241 293.677139 
L 152.398241 293.150453 
L 153.069065 293.150453 
L 153.127464 292.097081 
L 153.473807 292.097081 
L 153.473807 291.570395 
L 153.750233 291.570395 
L 153.750233 291.043709 
L 154.256157 291.043709 
L 154.256157 290.517023 
L 154.913056 290.517023 
L 154.913056 289.990337 
L 155.128803 289.990337 
L 155.128803 289.463651 
L 155.741666 289.463651 
L 155.741666 288.936964 
L 156.782672 288.936964 
L 156.782672 288.410278 
L 157.420907 288.410278 
L 157.420907 287.356906 
L 158.014595 287.356906 
L 158.014595 286.83022 
L 159.185813 286.83022 
L 159.262876 285.776848 
L 159.32939 285.776848 
L 159.32939 285.250162 
L 159.542562 285.250162 
L 159.542562 284.723476 
L 160.437332 284.723476 
L 160.437332 284.19679 
L 160.731954 284.19679 
L 160.77901 282.616732 
L 161.438393 282.616732 
L 161.438393 282.090045 
L 161.792252 282.090045 
L 161.792252 281.563359 
L 162.775007 281.563359 
L 162.775007 281.036673 
L 163.420904 281.036673 
L 163.420904 280.509987 
L 163.851722 280.509987 
L 163.851722 279.983301 
L 164.241356 279.983301 
L 164.341251 278.403243 
L 165.010195 278.403243 
L 165.102127 277.349871 
L 165.475853 277.349871 
L 165.475853 276.823185 
L 165.988758 276.823185 
L 165.988758 276.296499 
L 166.695783 276.296499 
L 166.695783 275.769812 
L 166.888852 275.769812 
L 166.945039 274.189754 
L 167.076532 274.189754 
L 167.076532 273.663068 
L 168.057134 273.663068 
L 168.057134 273.136382 
L 168.367051 273.136382 
L 168.367051 272.609696 
L 169.143315 272.609696 
L 169.143315 272.08301 
L 169.7128 272.08301 
L 169.7128 271.556324 
L 169.825059 271.556324 
L 169.825059 271.029638 
L 171.142009 271.029638 
L 171.175698 269.449579 
L 171.868539 269.449579 
L 171.868539 268.922893 
L 172.02459 268.922893 
L 172.05908 267.869521 
L 172.228073 267.869521 
L 172.298614 266.816149 
L 172.770395 266.816149 
L 172.770395 266.289463 
L 173.033033 266.289463 
L 173.033033 265.762777 
L 173.521856 265.762777 
L 173.521856 265.236091 
L 173.835843 265.236091 
L 173.939998 264.182719 
L 174.185719 264.182719 
L 174.185719 263.656033 
L 174.339714 263.656033 
L 174.339714 263.129347 
L 174.829434 263.129347 
L 174.829434 262.60266 
L 175.036065 262.60266 
L 175.036065 262.075974 
L 175.93577 262.075974 
L 175.93577 261.549288 
L 176.23856 261.549288 
L 176.24824 260.495916 
L 177.237728 260.495916 
L 177.237728 259.96923 
L 177.44678 259.96923 
L 177.44678 259.442544 
L 177.628338 259.442544 
L 177.628338 258.915858 
L 178.503711 258.915858 
L 178.503711 258.389172 
L 178.815542 258.389172 
L 178.918812 257.3358 
L 179.295031 257.3358 
L 179.295031 256.809114 
L 179.652162 256.809114 
L 179.652162 256.282427 
L 180.011487 256.282427 
L 180.011487 255.755741 
L 181.43519 255.755741 
L 181.491165 254.702369 
L 183.088049 254.702369 
L 183.088049 254.175683 
L 183.909189 254.175683 
L 183.909189 253.648997 
L 185.060404 253.648997 
L 185.060404 253.122311 
L 185.946045 253.122311 
L 185.946045 252.595625 
L 246.38505 252.595625 
L 246.489458 246.275392 
L 246.497008 246.275392 
L 246.602702 241.008531 
L 246.643181 241.008531 
L 246.704593 237.848415 
L 246.770064 237.848415 
L 246.828732 236.268356 
L 258.452284 236.268356 
L 258.542656 233.10824 
L 258.5671 233.10824 
L 258.626684 231.001496 
L 265.527737 231.001496 
L 265.62093 227.314693 
L 270.51897 227.314693 
L 270.590348 223.101204 
L 274.440478 223.101204 
L 274.453843 222.047832 
L 277.581353 222.047832 
L 277.622749 219.941088 
L 280.278913 219.941088 
L 280.302541 217.307658 
L 282.585757 217.307658 
L 282.621487 215.727599 
L 284.662934 215.727599 
L 284.662934 215.200913 
L 286.494778 215.200913 
L 286.499298 214.147541 
L 288.156472 214.147541 
L 288.156472 213.620855 
L 291.058651 213.620855 
L 291.062131 212.567483 
L 292.351517 212.567483 
L 292.351517 212.040797 
L 293.549082 212.040797 
L 293.550293 210.987425 
L 296.725578 210.987425 
L 296.725578 210.460738 
L 300.217546 210.460738 
L 300.219604 209.407366 
L 338.688 209.407366 
L 338.688 209.407366 
" style="fill:none;stroke:#ff00ff;stroke-linecap:square;stroke-width:1.5;"/>
   </g>
   <g id="line2d_40">
    <defs>
     <path d="M -0 8.485281 
L 5.091169 0 
L 0 -8.485281 
L -5.091169 -0 
z
" id="ma1bfdfc8bf" style="stroke:#ff00ff;stroke-linejoin:miter;stroke-width:1.5;"/>
    </defs>
    <g>
     <use style="fill-opacity:0;stroke:#ff00ff;stroke-linejoin:miter;stroke-width:1.5;" x="185.946045" xlink:href="#ma1bfdfc8bf" y="252.595625"/>
     <use style="fill-opacity:0;stroke:#ff00ff;stroke-linejoin:miter;stroke-width:1.5;" x="280.284386" xlink:href="#ma1bfdfc8bf" y="219.414402"/>
     <use style="fill-opacity:0;stroke:#ff00ff;stroke-linejoin:miter;stroke-width:1.5;" x="300.219604" xlink:href="#ma1bfdfc8bf" y="209.407366"/>
     <use style="fill-opacity:0;stroke:#ff00ff;stroke-linejoin:miter;stroke-width:1.5;" x="300.219604" xlink:href="#ma1bfdfc8bf" y="209.407366"/>
     <use style="fill-opacity:0;stroke:#ff00ff;stroke-linejoin:miter;stroke-width:1.5;" x="338.688" xlink:href="#ma1bfdfc8bf" y="209.407366"/>
    </g>
   </g>
   <g id="line2d_41">
    <path style="fill:none;stroke:#ff00ff;stroke-linecap:square;stroke-width:1.5;"/>
    <g/>
   </g>
   <g id="line2d_42">
    <path clip-path="url(#p5fb5f410a0)" d="M 246.289154 252.595625 
" style="fill:none;stroke:#ff00ff;stroke-linecap:square;stroke-width:1.5;"/>
    <defs>
     <path d="M -12 12 
L 12 -12 
M -12 -12 
L 12 12 
" id="m6cf596c62f" style="stroke:#ff00ff;"/>
    </defs>
    <g clip-path="url(#p5fb5f410a0)">
     <use style="fill:#ff00ff;stroke:#ff00ff;" x="246.289154" xlink:href="#m6cf596c62f" y="252.595625"/>
    </g>
   </g>
   <g id="line2d_43">
    <defs>
     <path d="M 0 1.5 
C 0.397805 1.5 0.77937 1.341951 1.06066 1.06066 
C 1.341951 0.77937 1.5 0.397805 1.5 0 
C 1.5 -0.397805 1.341951 -0.77937 1.06066 -1.06066 
C 0.77937 -1.341951 0.397805 -1.5 0 -1.5 
C -0.397805 -1.5 -0.77937 -1.341951 -1.06066 -1.06066 
C -1.341951 -0.77937 -1.5 -0.397805 -1.5 0 
C -1.5 0.397805 -1.341951 0.77937 -1.06066 1.06066 
C -0.77937 1.341951 -0.397805 1.5 0 1.5 
z
" id="m8f1f37985b" style="stroke:#ff7500;"/>
    </defs>
    <g>
     <use style="fill:#ff7500;stroke:#ff7500;" x="304.98951" xlink:href="#m8f1f37985b" y="167.27248"/>
     <use style="fill:#ff7500;stroke:#ff7500;" x="304.98951" xlink:href="#m8f1f37985b" y="167.27248"/>
    </g>
   </g>
   <g id="line2d_44">
    <path d="M 150.866312 298.944 
L 150.866312 298.417314 
L 151.668912 298.417314 
L 151.668912 297.890628 
L 152.360205 297.890628 
L 152.360205 297.363942 
L 153.566437 297.363942 
L 153.566437 296.837256 
L 154.063835 296.837256 
L 154.063835 296.31057 
L 154.493614 296.31057 
L 154.580996 295.257197 
L 154.607795 295.257197 
L 154.607795 294.203825 
L 156.181465 294.203825 
L 156.181465 293.677139 
L 156.812195 293.677139 
L 156.812195 293.150453 
L 157.1279 293.150453 
L 157.1279 292.623767 
L 157.277891 292.623767 
L 157.277891 292.097081 
L 157.415209 292.097081 
L 157.415209 291.570395 
L 158.583406 291.570395 
L 158.583406 291.043709 
L 159.004665 291.043709 
L 159.004665 290.517023 
L 159.542562 290.517023 
L 159.542562 289.990337 
L 160.123015 289.990337 
L 160.21548 288.936964 
L 160.760203 288.936964 
L 160.760203 288.410278 
L 160.965979 288.410278 
L 160.965979 287.883592 
L 161.681046 287.883592 
L 161.681046 287.356906 
L 162.264677 287.356906 
L 162.342185 285.776848 
L 162.534461 285.776848 
L 162.534461 285.250162 
L 162.858629 285.250162 
L 162.858629 284.723476 
L 163.768781 284.723476 
L 163.768781 284.19679 
L 163.981266 284.19679 
L 163.981266 283.670104 
L 164.79503 283.670104 
L 164.79503 283.143418 
L 165.411116 283.143418 
L 165.508131 282.090045 
L 165.643763 282.090045 
L 165.643763 281.563359 
L 165.817113 281.563359 
L 165.817113 281.036673 
L 166.500553 281.036673 
L 166.558002 279.983301 
L 166.931835 279.983301 
L 166.931835 279.456615 
L 167.187528 279.456615 
L 167.187528 278.929929 
L 167.490771 278.929929 
L 167.490771 277.876557 
L 167.672117 277.876557 
L 167.672117 277.349871 
L 168.272512 277.349871 
L 168.272512 276.823185 
L 168.737185 276.823185 
L 168.737185 276.296499 
L 169.316986 276.296499 
L 169.354388 275.243126 
L 169.454688 275.243126 
L 169.454688 274.71644 
L 170.351349 274.71644 
L 170.351349 274.189754 
L 171.753708 274.189754 
L 171.753708 273.663068 
L 172.356777 273.663068 
L 172.356777 273.136382 
L 172.589897 273.136382 
L 172.589897 272.609696 
L 172.711227 272.609696 
L 172.817586 271.556324 
L 172.998087 271.556324 
L 172.998087 271.029638 
L 173.155951 271.029638 
L 173.155951 270.502952 
L 173.860276 270.502952 
L 173.860276 269.976266 
L 174.139909 269.976266 
L 174.139909 269.449579 
L 174.408678 269.449579 
L 174.408678 268.922893 
L 174.950788 268.922893 
L 174.950788 267.869521 
L 175.137439 267.869521 
L 175.137439 267.342835 
L 175.49273 267.342835 
L 175.49273 266.816149 
L 176.230812 266.816149 
L 176.232749 265.762777 
L 176.910992 265.762777 
L 176.910992 265.236091 
L 177.468451 265.236091 
L 177.468451 264.709405 
L 178.06803 264.709405 
L 178.06803 264.182719 
L 178.542784 264.182719 
L 178.542784 263.656033 
L 178.932093 263.656033 
L 178.940388 262.60266 
L 179.046221 262.60266 
L 179.046221 262.075974 
L 179.41166 262.075974 
L 179.419731 261.022602 
L 181.838757 261.022602 
L 181.899054 259.96923 
L 182.028756 259.96923 
L 182.028756 259.442544 
L 182.465104 259.442544 
L 182.465104 258.915858 
L 183.237777 258.915858 
L 183.237777 258.389172 
L 183.829169 258.389172 
L 183.904198 257.3358 
L 184.427821 257.3358 
L 184.429032 256.282427 
L 184.916175 256.282427 
L 184.916175 255.755741 
L 185.141956 255.755741 
L 185.141956 255.229055 
L 185.54182 255.229055 
L 185.54182 254.702369 
L 186.058892 254.702369 
L 186.058892 254.175683 
L 186.429862 254.175683 
L 186.429862 253.648997 
L 187.782679 253.648997 
L 187.782679 253.122311 
L 188.150397 253.122311 
L 188.150397 252.595625 
L 188.462549 252.595625 
L 188.462549 252.068939 
L 188.639395 252.068939 
L 188.639395 251.542253 
L 188.903689 251.542253 
L 188.903689 251.015567 
L 189.758301 251.015567 
L 189.758301 250.488881 
L 190.474809 250.488881 
L 190.474809 249.962195 
L 190.9644 249.962195 
L 190.969394 248.908822 
L 191.97738 248.908822 
L 191.97738 248.382136 
L 192.227692 248.382136 
L 192.227692 247.85545 
L 192.476752 247.85545 
L 192.476752 247.328764 
L 192.788405 247.328764 
L 192.788405 246.802078 
L 193.115202 246.802078 
L 193.115202 246.275392 
L 194.564608 246.275392 
L 194.564608 245.748706 
L 194.787975 245.748706 
L 194.787975 245.22202 
L 195.650074 245.22202 
L 195.659616 244.168648 
L 196.520048 244.168648 
L 196.538197 243.115275 
L 197.344635 243.115275 
L 197.344635 242.588589 
L 197.482077 242.588589 
L 197.482077 242.061903 
L 198.324075 242.061903 
L 198.324075 241.535217 
L 198.516231 241.535217 
L 198.516231 241.008531 
L 198.729771 241.008531 
L 198.729771 240.481845 
L 199.331972 240.481845 
L 199.331972 239.955159 
L 199.488392 239.955159 
L 199.488392 239.428473 
L 199.616582 239.428473 
L 199.616582 238.901787 
L 199.805111 238.901787 
L 199.805111 238.375101 
L 199.916561 238.375101 
L 199.916561 237.848415 
L 202.085478 237.848415 
L 202.085478 237.321729 
L 203.301564 237.321729 
L 203.301564 236.795043 
L 203.628354 236.795043 
L 203.689453 235.74167 
L 204.201887 235.74167 
L 204.201887 235.214984 
L 204.316455 235.214984 
L 204.316455 234.688298 
L 204.605907 234.688298 
L 204.605907 234.161612 
L 205.442154 234.161612 
L 205.442154 233.634926 
L 206.466071 233.634926 
L 206.484882 232.054868 
L 207.188349 232.054868 
L 207.188349 231.528182 
L 208.222466 231.528182 
L 208.222466 231.001496 
L 209.042628 231.001496 
L 209.042628 230.47481 
L 210.025468 230.47481 
L 210.053905 229.421437 
L 210.966702 229.421437 
L 210.966702 228.894751 
L 211.536256 228.894751 
L 211.573062 227.841379 
L 211.951912 227.841379 
L 212.003553 226.788007 
L 213.473096 226.788007 
L 213.473096 226.261321 
L 214.011931 226.261321 
L 214.011931 225.734635 
L 215.069481 225.734635 
L 215.143499 224.681263 
L 215.203939 224.681263 
L 215.203939 224.154577 
L 216.072074 224.154577 
L 216.072074 223.627891 
L 216.287537 223.627891 
L 216.287537 223.101204 
L 217.686212 223.101204 
L 217.686212 222.574518 
L 217.950883 222.574518 
L 217.950883 222.047832 
L 218.37399 222.047832 
L 218.37399 221.521146 
L 219.242817 221.521146 
L 219.242817 220.99446 
L 219.760712 220.99446 
L 219.760712 220.467774 
L 221.056512 220.467774 
L 221.056512 219.941088 
L 221.805217 219.941088 
L 221.805217 219.414402 
L 222.294852 219.414402 
L 222.294852 218.887716 
L 223.030749 218.887716 
L 223.030749 218.36103 
L 223.453514 218.36103 
L 223.453514 217.834344 
L 223.843799 217.834344 
L 223.895897 216.780971 
L 224.012521 216.780971 
L 224.012521 216.254285 
L 224.291295 216.254285 
L 224.291295 215.727599 
L 224.977862 215.727599 
L 224.977862 215.200913 
L 225.20193 215.200913 
L 225.20193 214.674227 
L 225.37416 214.674227 
L 225.37416 214.147541 
L 226.055461 214.147541 
L 226.055461 213.620855 
L 227.144719 213.620855 
L 227.144719 213.094169 
L 227.374769 213.094169 
L 227.374769 212.567483 
L 227.943002 212.567483 
L 227.943002 212.040797 
L 228.364806 212.040797 
L 228.364806 211.514111 
L 228.496883 211.514111 
L 228.496883 210.987425 
L 228.693906 210.987425 
L 228.693906 210.460738 
L 229.552505 210.460738 
L 229.552505 209.934052 
L 229.837387 209.934052 
L 229.837387 209.407366 
L 230.01982 209.407366 
L 230.01982 208.88068 
L 230.17534 208.88068 
L 230.17534 208.353994 
L 230.293477 208.353994 
L 230.293477 207.827308 
L 230.444509 207.827308 
L 230.444509 207.300622 
L 230.672904 207.300622 
L 230.672904 206.773936 
L 231.239365 206.773936 
L 231.239365 206.24725 
L 231.449644 206.24725 
L 231.449644 205.720564 
L 232.047224 205.720564 
L 232.047224 205.193878 
L 232.96384 205.193878 
L 232.96384 204.667192 
L 233.369097 204.667192 
L 233.369097 204.140506 
L 234.155975 204.140506 
L 234.155975 203.613819 
L 234.414498 203.613819 
L 234.414498 203.087133 
L 235.097745 203.087133 
L 235.142877 202.033761 
L 235.479898 202.033761 
L 235.48923 200.980389 
L 235.914219 200.980389 
L 235.945742 199.927017 
L 236.041479 199.927017 
L 236.041479 199.400331 
L 236.589919 199.400331 
L 236.589919 198.873645 
L 236.71532 198.873645 
L 236.71532 198.346959 
L 237.346974 198.346959 
L 237.405179 197.293586 
L 238.040316 197.293586 
L 238.040316 196.7669 
L 238.187686 196.7669 
L 238.187686 196.240214 
L 238.506392 196.240214 
L 238.506392 195.713528 
L 239.430692 195.713528 
L 239.430692 195.186842 
L 239.762581 195.186842 
L 239.82843 193.606784 
L 240.538758 193.606784 
L 240.538758 193.080098 
L 240.743636 193.080098 
L 240.743636 192.553412 
L 241.277951 192.553412 
L 241.277951 192.026726 
L 241.690825 192.026726 
L 241.690825 191.50004 
L 242.030194 191.50004 
L 242.105503 190.446667 
L 242.18071 190.446667 
L 242.184992 189.393295 
L 243.180744 189.393295 
L 243.226952 188.339923 
L 243.449811 188.339923 
L 243.559183 187.286551 
L 243.613632 187.286551 
L 243.659642 186.233179 
L 243.748514 186.233179 
L 243.748514 185.706493 
L 244.253714 185.706493 
L 244.307057 184.653121 
L 244.433015 184.653121 
L 244.433015 184.126434 
L 245.101482 184.126434 
L 245.202001 183.073062 
L 245.403922 183.073062 
L 245.403922 182.546376 
L 245.551615 182.546376 
L 245.613651 181.493004 
L 245.933523 181.493004 
L 246.034469 179.912946 
L 254.213542 179.912946 
L 254.213542 179.38626 
L 254.494855 179.38626 
L 254.494855 178.859574 
L 257.389102 178.859574 
L 257.389102 178.332888 
L 258.042662 178.332888 
L 258.042662 177.806202 
L 263.788178 177.806202 
L 263.788178 177.279515 
L 264.045922 177.279515 
L 264.045922 176.752829 
L 264.851134 176.752829 
L 264.851134 176.226143 
L 265.22589 176.226143 
L 265.22589 175.699457 
L 270.266513 175.699457 
L 270.266513 175.172771 
L 273.462987 175.172771 
L 273.462987 174.646085 
L 274.000835 174.646085 
L 274.000835 174.119399 
L 274.223571 174.119399 
L 274.223571 173.592713 
L 284.410424 173.592713 
L 284.519176 172.539341 
L 286.365407 172.539341 
L 286.378198 170.959282 
L 289.476788 170.959282 
L 289.476788 170.432596 
L 292.186192 170.432596 
L 292.186192 169.90591 
L 294.599647 169.90591 
L 294.599647 169.379224 
L 295.651828 169.379224 
L 295.651828 168.852538 
L 296.65831 168.852538 
L 296.65831 168.325852 
L 304.376725 168.325852 
L 304.376725 167.799166 
L 304.98951 167.799166 
L 304.98951 167.27248 
L 338.688 167.27248 
L 338.688 167.27248 
" style="fill:none;stroke:#ff7500;stroke-linecap:square;stroke-width:1.5;"/>
   </g>
   <g id="line2d_45">
    <defs>
     <path d="M 0 -6 
L -1.347084 -1.854102 
L -5.706339 -1.854102 
L -2.179628 0.708204 
L -3.526712 4.854102 
L -0 2.291796 
L 3.526712 4.854102 
L 2.179628 0.708204 
L 5.706339 -1.854102 
L 1.347084 -1.854102 
z
" id="m5ec590278a" style="stroke:#ff7500;stroke-linejoin:bevel;stroke-width:1.5;"/>
    </defs>
    <g>
     <use style="fill-opacity:0;stroke:#ff7500;stroke-linejoin:bevel;stroke-width:1.5;" x="211.951912" xlink:href="#m5ec590278a" y="227.841379"/>
     <use style="fill-opacity:0;stroke:#ff7500;stroke-linejoin:bevel;stroke-width:1.5;" x="254.213542" xlink:href="#m5ec590278a" y="179.38626"/>
     <use style="fill-opacity:0;stroke:#ff7500;stroke-linejoin:bevel;stroke-width:1.5;" x="304.98951" xlink:href="#m5ec590278a" y="167.27248"/>
     <use style="fill-opacity:0;stroke:#ff7500;stroke-linejoin:bevel;stroke-width:1.5;" x="304.98951" xlink:href="#m5ec590278a" y="167.27248"/>
     <use style="fill-opacity:0;stroke:#ff7500;stroke-linejoin:bevel;stroke-width:1.5;" x="338.688" xlink:href="#m5ec590278a" y="167.27248"/>
    </g>
   </g>
   <g id="line2d_46">
    <path style="fill:none;stroke:#ff7500;stroke-linecap:square;stroke-width:1.5;"/>
    <g/>
   </g>
   <g id="line2d_47">
    <path clip-path="url(#p5fb5f410a0)" d="M 246.289154 179.912946 
" style="fill:none;stroke:#ff7500;stroke-linecap:square;stroke-width:1.5;"/>
    <defs>
     <path d="M -12 12 
L 12 -12 
M -12 -12 
L 12 12 
" id="m2ba24f516a" style="stroke:#ff7500;"/>
    </defs>
    <g clip-path="url(#p5fb5f410a0)">
     <use style="fill:#ff7500;stroke:#ff7500;" x="246.289154" xlink:href="#m2ba24f516a" y="179.912946"/>
    </g>
   </g>
   <g id="line2d_48">
    <path d="M 338.688 209.407366 
L 369.60768 293.571802 
" style="fill:none;stroke:#ff00ff;stroke-linecap:square;stroke-width:1.5;"/>
    <g>
     <use style="fill-opacity:0;stroke:#ff00ff;stroke-linejoin:miter;stroke-width:1.5;" x="338.688" xlink:href="#ma1bfdfc8bf" y="209.407366"/>
     <use style="fill-opacity:0;stroke:#ff00ff;stroke-linejoin:miter;stroke-width:1.5;" x="369.60768" xlink:href="#ma1bfdfc8bf" y="293.571802"/>
    </g>
   </g>
   <g id="line2d_49">
    <path d="M 338.688 167.27248 
L 369.60768 207.616634 
" style="fill:none;stroke:#ff7500;stroke-linecap:square;stroke-width:1.5;"/>
    <g>
     <use style="fill-opacity:0;stroke:#ff7500;stroke-linejoin:bevel;stroke-width:1.5;" x="338.688" xlink:href="#m5ec590278a" y="167.27248"/>
     <use style="fill-opacity:0;stroke:#ff7500;stroke-linejoin:bevel;stroke-width:1.5;" x="369.60768" xlink:href="#m5ec590278a" y="207.616634"/>
    </g>
   </g>
   <g id="line2d_50">
    <path d="M 338.688 30.334099 
L 369.60768 121.661465 
" style="fill:none;stroke:#000080;stroke-linecap:square;stroke-width:1.5;"/>
    <g>
     <use style="fill-opacity:0;stroke:#000080;stroke-width:1.5;" x="338.688" xlink:href="#m1014f4c347" y="30.334099"/>
     <use style="fill-opacity:0;stroke:#000080;stroke-width:1.5;" x="369.60768" xlink:href="#m1014f4c347" y="121.661465"/>
    </g>
   </g>
   <g id="line2d_51">
    <path d="M 338.688 298.944 
L 338.688 30.334099 
" style="fill:none;stroke:#000000;stroke-linecap:square;stroke-width:1.5;"/>
   </g>
   <g id="patch_3">
    <path d="M 57.6 298.944 
L 57.6 27.648 
" style="fill:none;stroke:#000000;stroke-linecap:square;stroke-linejoin:miter;stroke-width:0.8;"/>
   </g>
   <g id="patch_4">
    <path d="M 338.688 298.944 
L 338.688 27.648 
" style="fill:none;stroke:#000000;stroke-linecap:square;stroke-linejoin:miter;stroke-width:0.8;"/>
   </g>
   <g id="patch_5">
    <path d="M 57.6 298.944 
L 338.688 298.944 
" style="fill:none;stroke:#000000;stroke-linecap:square;stroke-linejoin:miter;stroke-width:0.8;"/>
   </g>
   <g id="patch_6">
    <path d="M 57.6 27.648 
L 338.688 27.648 
" style="fill:none;stroke:#000000;stroke-linecap:square;stroke-linejoin:miter;stroke-width:0.8;"/>
   </g>
   <g id="text_13">
    <!-- PSO -->
    <g transform="translate(375.22944 298.262739)scale(0.17 -0.17)">
     <defs>
      <path d="M 19.671875 64.796875 
L 19.671875 37.40625 
L 32.078125 37.40625 
Q 38.96875 37.40625 42.71875 40.96875 
Q 46.484375 44.53125 46.484375 51.125 
Q 46.484375 57.671875 42.71875 61.234375 
Q 38.96875 64.796875 32.078125 64.796875 
z
M 9.8125 72.90625 
L 32.078125 72.90625 
Q 44.34375 72.90625 50.609375 67.359375 
Q 56.890625 61.8125 56.890625 51.125 
Q 56.890625 40.328125 50.609375 34.8125 
Q 44.34375 29.296875 32.078125 29.296875 
L 19.671875 29.296875 
L 19.671875 0 
L 9.8125 0 
z
" id="DejaVuSans-80"/>
      <path d="M 53.515625 70.515625 
L 53.515625 60.890625 
Q 47.90625 63.578125 42.921875 64.890625 
Q 37.9375 66.21875 33.296875 66.21875 
Q 25.25 66.21875 20.875 63.09375 
Q 16.5 59.96875 16.5 54.203125 
Q 16.5 49.359375 19.40625 46.890625 
Q 22.3125 44.4375 30.421875 42.921875 
L 36.375 41.703125 
Q 47.40625 39.59375 52.65625 34.296875 
Q 57.90625 29 57.90625 20.125 
Q 57.90625 9.515625 50.796875 4.046875 
Q 43.703125 -1.421875 29.984375 -1.421875 
Q 24.8125 -1.421875 18.96875 -0.25 
Q 13.140625 0.921875 6.890625 3.21875 
L 6.890625 13.375 
Q 12.890625 10.015625 18.65625 8.296875 
Q 24.421875 6.59375 29.984375 6.59375 
Q 38.421875 6.59375 43.015625 9.90625 
Q 47.609375 13.234375 47.609375 19.390625 
Q 47.609375 24.75 44.3125 27.78125 
Q 41.015625 30.8125 33.5 32.328125 
L 27.484375 33.5 
Q 16.453125 35.6875 11.515625 40.375 
Q 6.59375 45.0625 6.59375 53.421875 
Q 6.59375 63.09375 13.40625 68.65625 
Q 20.21875 74.21875 32.171875 74.21875 
Q 37.3125 74.21875 42.625 73.28125 
Q 47.953125 72.359375 53.515625 70.515625 
z
" id="DejaVuSans-83"/>
      <path d="M 39.40625 66.21875 
Q 28.65625 66.21875 22.328125 58.203125 
Q 16.015625 50.203125 16.015625 36.375 
Q 16.015625 22.609375 22.328125 14.59375 
Q 28.65625 6.59375 39.40625 6.59375 
Q 50.140625 6.59375 56.421875 14.59375 
Q 62.703125 22.609375 62.703125 36.375 
Q 62.703125 50.203125 56.421875 58.203125 
Q 50.140625 66.21875 39.40625 66.21875 
z
M 39.40625 74.21875 
Q 54.734375 74.21875 63.90625 63.9375 
Q 73.09375 53.65625 73.09375 36.375 
Q 73.09375 19.140625 63.90625 8.859375 
Q 54.734375 -1.421875 39.40625 -1.421875 
Q 24.03125 -1.421875 14.8125 8.828125 
Q 5.609375 19.09375 5.609375 36.375 
Q 5.609375 53.65625 14.8125 63.9375 
Q 24.03125 74.21875 39.40625 74.21875 
z
" id="DejaVuSans-79"/>
     </defs>
     <use xlink:href="#DejaVuSans-80"/>
     <use x="60.302734" xlink:href="#DejaVuSans-83"/>
     <use x="123.779297" xlink:href="#DejaVuSans-79"/>
    </g>
   </g>
   <g id="text_14">
    <!-- DE -->
    <g transform="translate(375.22944 212.307571)scale(0.17 -0.17)">
     <defs>
      <path d="M 19.671875 64.796875 
L 19.671875 8.109375 
L 31.59375 8.109375 
Q 46.6875 8.109375 53.6875 14.9375 
Q 60.6875 21.78125 60.6875 36.53125 
Q 60.6875 51.171875 53.6875 57.984375 
Q 46.6875 64.796875 31.59375 64.796875 
z
M 9.8125 72.90625 
L 30.078125 72.90625 
Q 51.265625 72.90625 61.171875 64.09375 
Q 71.09375 55.28125 71.09375 36.53125 
Q 71.09375 17.671875 61.125 8.828125 
Q 51.171875 0 30.078125 0 
L 9.8125 0 
z
" id="DejaVuSans-68"/>
      <path d="M 9.8125 72.90625 
L 55.90625 72.90625 
L 55.90625 64.59375 
L 19.671875 64.59375 
L 19.671875 43.015625 
L 54.390625 43.015625 
L 54.390625 34.71875 
L 19.671875 34.71875 
L 19.671875 8.296875 
L 56.78125 8.296875 
L 56.78125 0 
L 9.8125 0 
z
" id="DejaVuSans-69"/>
     </defs>
     <use xlink:href="#DejaVuSans-68"/>
     <use x="77.001953" xlink:href="#DejaVuSans-69"/>
    </g>
   </g>
   <g id="text_15">
    <!-- BIPOP-CMA -->
    <g transform="translate(375.22944 126.352403)scale(0.17 -0.17)">
     <defs>
      <path d="M 19.671875 34.8125 
L 19.671875 8.109375 
L 35.5 8.109375 
Q 43.453125 8.109375 47.28125 11.40625 
Q 51.125 14.703125 51.125 21.484375 
Q 51.125 28.328125 47.28125 31.5625 
Q 43.453125 34.8125 35.5 34.8125 
z
M 19.671875 64.796875 
L 19.671875 42.828125 
L 34.28125 42.828125 
Q 41.5 42.828125 45.03125 45.53125 
Q 48.578125 48.25 48.578125 53.8125 
Q 48.578125 59.328125 45.03125 62.0625 
Q 41.5 64.796875 34.28125 64.796875 
z
M 9.8125 72.90625 
L 35.015625 72.90625 
Q 46.296875 72.90625 52.390625 68.21875 
Q 58.5 63.53125 58.5 54.890625 
Q 58.5 48.1875 55.375 44.234375 
Q 52.25 40.28125 46.1875 39.3125 
Q 53.46875 37.75 57.5 32.78125 
Q 61.53125 27.828125 61.53125 20.40625 
Q 61.53125 10.640625 54.890625 5.3125 
Q 48.25 0 35.984375 0 
L 9.8125 0 
z
" id="DejaVuSans-66"/>
      <path d="M 9.8125 72.90625 
L 19.671875 72.90625 
L 19.671875 0 
L 9.8125 0 
z
" id="DejaVuSans-73"/>
      <path d="M 64.40625 67.28125 
L 64.40625 56.890625 
Q 59.421875 61.53125 53.78125 63.8125 
Q 48.140625 66.109375 41.796875 66.109375 
Q 29.296875 66.109375 22.65625 58.46875 
Q 16.015625 50.828125 16.015625 36.375 
Q 16.015625 21.96875 22.65625 14.328125 
Q 29.296875 6.6875 41.796875 6.6875 
Q 48.140625 6.6875 53.78125 8.984375 
Q 59.421875 11.28125 64.40625 15.921875 
L 64.40625 5.609375 
Q 59.234375 2.09375 53.4375 0.328125 
Q 47.65625 -1.421875 41.21875 -1.421875 
Q 24.65625 -1.421875 15.125 8.703125 
Q 5.609375 18.84375 5.609375 36.375 
Q 5.609375 53.953125 15.125 64.078125 
Q 24.65625 74.21875 41.21875 74.21875 
Q 47.75 74.21875 53.53125 72.484375 
Q 59.328125 70.75 64.40625 67.28125 
z
" id="DejaVuSans-67"/>
      <path d="M 9.8125 72.90625 
L 24.515625 72.90625 
L 43.109375 23.296875 
L 61.8125 72.90625 
L 76.515625 72.90625 
L 76.515625 0 
L 66.890625 0 
L 66.890625 64.015625 
L 48.09375 14.015625 
L 38.1875 14.015625 
L 19.390625 64.015625 
L 19.390625 0 
L 9.8125 0 
z
" id="DejaVuSans-77"/>
      <path d="M 34.1875 63.1875 
L 20.796875 26.90625 
L 47.609375 26.90625 
z
M 28.609375 72.90625 
L 39.796875 72.90625 
L 67.578125 0 
L 57.328125 0 
L 50.6875 18.703125 
L 17.828125 18.703125 
L 11.1875 0 
L 0.78125 0 
z
" id="DejaVuSans-65"/>
     </defs>
     <use xlink:href="#DejaVuSans-66"/>
     <use x="68.603516" xlink:href="#DejaVuSans-73"/>
     <use x="98.095703" xlink:href="#DejaVuSans-80"/>
     <use x="158.398438" xlink:href="#DejaVuSans-79"/>
     <use x="237.109375" xlink:href="#DejaVuSans-80"/>
     <use x="295.162109" xlink:href="#DejaVuSans-45"/>
     <use x="331.246094" xlink:href="#DejaVuSans-67"/>
     <use x="401.070312" xlink:href="#DejaVuSans-77"/>
     <use x="487.349609" xlink:href="#DejaVuSans-65"/>
    </g>
   </g>
   <g id="text_16">
    <!-- best 2009 -->
    <g transform="translate(375.22944 40.397235)scale(0.17 -0.17)">
     <defs>
      <path d="M 48.6875 27.296875 
Q 48.6875 37.203125 44.609375 42.84375 
Q 40.53125 48.484375 33.40625 48.484375 
Q 26.265625 48.484375 22.1875 42.84375 
Q 18.109375 37.203125 18.109375 27.296875 
Q 18.109375 17.390625 22.1875 11.75 
Q 26.265625 6.109375 33.40625 6.109375 
Q 40.53125 6.109375 44.609375 11.75 
Q 48.6875 17.390625 48.6875 27.296875 
z
M 18.109375 46.390625 
Q 20.953125 51.265625 25.265625 53.625 
Q 29.59375 56 35.59375 56 
Q 45.5625 56 51.78125 48.09375 
Q 58.015625 40.1875 58.015625 27.296875 
Q 58.015625 14.40625 51.78125 6.484375 
Q 45.5625 -1.421875 35.59375 -1.421875 
Q 29.59375 -1.421875 25.265625 0.953125 
Q 20.953125 3.328125 18.109375 8.203125 
L 18.109375 0 
L 9.078125 0 
L 9.078125 75.984375 
L 18.109375 75.984375 
z
" id="DejaVuSans-98"/>
      <path d="M 10.984375 1.515625 
L 10.984375 10.5 
Q 14.703125 8.734375 18.5 7.8125 
Q 22.3125 6.890625 25.984375 6.890625 
Q 35.75 6.890625 40.890625 13.453125 
Q 46.046875 20.015625 46.78125 33.40625 
Q 43.953125 29.203125 39.59375 26.953125 
Q 35.25 24.703125 29.984375 24.703125 
Q 19.046875 24.703125 12.671875 31.3125 
Q 6.296875 37.9375 6.296875 49.421875 
Q 6.296875 60.640625 12.9375 67.421875 
Q 19.578125 74.21875 30.609375 74.21875 
Q 43.265625 74.21875 49.921875 64.515625 
Q 56.59375 54.828125 56.59375 36.375 
Q 56.59375 19.140625 48.40625 8.859375 
Q 40.234375 -1.421875 26.421875 -1.421875 
Q 22.703125 -1.421875 18.890625 -0.6875 
Q 15.09375 0.046875 10.984375 1.515625 
z
M 30.609375 32.421875 
Q 37.25 32.421875 41.125 36.953125 
Q 45.015625 41.5 45.015625 49.421875 
Q 45.015625 57.28125 41.125 61.84375 
Q 37.25 66.40625 30.609375 66.40625 
Q 23.96875 66.40625 20.09375 61.84375 
Q 16.21875 57.28125 16.21875 49.421875 
Q 16.21875 41.5 20.09375 36.953125 
Q 23.96875 32.421875 30.609375 32.421875 
z
" id="DejaVuSans-57"/>
     </defs>
     <use xlink:href="#DejaVuSans-98"/>
     <use x="63.476562" xlink:href="#DejaVuSans-101"/>
     <use x="125" xlink:href="#DejaVuSans-115"/>
     <use x="177.099609" xlink:href="#DejaVuSans-116"/>
     <use x="216.308594" xlink:href="#DejaVuSans-32"/>
     <use x="248.095703" xlink:href="#DejaVuSans-50"/>
     <use x="311.71875" xlink:href="#DejaVuSans-48"/>
     <use x="375.341797" xlink:href="#DejaVuSans-48"/>
     <use x="438.964844" xlink:href="#DejaVuSans-57"/>
    </g>
   </g>
   <g id="text_17">
    <!-- bbob f13, 10-D -->
    <g transform="translate(60.41088 38.111366)scale(0.102 -0.102)">
     <defs>
      <path d="M 40.578125 39.3125 
Q 47.65625 37.796875 51.625 33 
Q 55.609375 28.21875 55.609375 21.1875 
Q 55.609375 10.40625 48.1875 4.484375 
Q 40.765625 -1.421875 27.09375 -1.421875 
Q 22.515625 -1.421875 17.65625 -0.515625 
Q 12.796875 0.390625 7.625 2.203125 
L 7.625 11.71875 
Q 11.71875 9.328125 16.59375 8.109375 
Q 21.484375 6.890625 26.8125 6.890625 
Q 36.078125 6.890625 40.9375 10.546875 
Q 45.796875 14.203125 45.796875 21.1875 
Q 45.796875 27.640625 41.28125 31.265625 
Q 36.765625 34.90625 28.71875 34.90625 
L 20.21875 34.90625 
L 20.21875 43.015625 
L 29.109375 43.015625 
Q 36.375 43.015625 40.234375 45.921875 
Q 44.09375 48.828125 44.09375 54.296875 
Q 44.09375 59.90625 40.109375 62.90625 
Q 36.140625 65.921875 28.71875 65.921875 
Q 24.65625 65.921875 20.015625 65.03125 
Q 15.375 64.15625 9.8125 62.3125 
L 9.8125 71.09375 
Q 15.4375 72.65625 20.34375 73.4375 
Q 25.25 74.21875 29.59375 74.21875 
Q 40.828125 74.21875 47.359375 69.109375 
Q 53.90625 64.015625 53.90625 55.328125 
Q 53.90625 49.265625 50.4375 45.09375 
Q 46.96875 40.921875 40.578125 39.3125 
z
" id="DejaVuSans-51"/>
     </defs>
     <use xlink:href="#DejaVuSans-98"/>
     <use x="63.476562" xlink:href="#DejaVuSans-98"/>
     <use x="126.953125" xlink:href="#DejaVuSans-111"/>
     <use x="188.134766" xlink:href="#DejaVuSans-98"/>
     <use x="251.611328" xlink:href="#DejaVuSans-32"/>
     <use x="283.398438" xlink:href="#DejaVuSans-102"/>
     <use x="318.603516" xlink:href="#DejaVuSans-49"/>
     <use x="382.226562" xlink:href="#DejaVuSans-51"/>
     <use x="445.849609" xlink:href="#DejaVuSans-44"/>
     <use x="477.636719" xlink:href="#DejaVuSans-32"/>
     <use x="509.423828" xlink:href="#DejaVuSans-49"/>
     <use x="573.046875" xlink:href="#DejaVuSans-48"/>
     <use x="636.669922" xlink:href="#DejaVuSans-45"/>
     <use x="672.753906" xlink:href="#DejaVuSans-68"/>
    </g>
    <!-- 51 targets: 100..1e-08 -->
    <g transform="translate(60.41088 49.533135)scale(0.102 -0.102)">
     <defs>
      <path d="M 10.796875 72.90625 
L 49.515625 72.90625 
L 49.515625 64.59375 
L 19.828125 64.59375 
L 19.828125 46.734375 
Q 21.96875 47.46875 24.109375 47.828125 
Q 26.265625 48.1875 28.421875 48.1875 
Q 40.625 48.1875 47.75 41.5 
Q 54.890625 34.8125 54.890625 23.390625 
Q 54.890625 11.625 47.5625 5.09375 
Q 40.234375 -1.421875 26.90625 -1.421875 
Q 22.3125 -1.421875 17.546875 -0.640625 
Q 12.796875 0.140625 7.71875 1.703125 
L 7.71875 11.625 
Q 12.109375 9.234375 16.796875 8.0625 
Q 21.484375 6.890625 26.703125 6.890625 
Q 35.15625 6.890625 40.078125 11.328125 
Q 45.015625 15.765625 45.015625 23.390625 
Q 45.015625 31 40.078125 35.4375 
Q 35.15625 39.890625 26.703125 39.890625 
Q 22.75 39.890625 18.8125 39.015625 
Q 14.890625 38.140625 10.796875 36.28125 
z
" id="DejaVuSans-53"/>
      <path d="M 11.71875 12.40625 
L 22.015625 12.40625 
L 22.015625 0 
L 11.71875 0 
z
M 11.71875 51.703125 
L 22.015625 51.703125 
L 22.015625 39.3125 
L 11.71875 39.3125 
z
" id="DejaVuSans-58"/>
     </defs>
     <use xlink:href="#DejaVuSans-53"/>
     <use x="63.623047" xlink:href="#DejaVuSans-49"/>
     <use x="127.246094" xlink:href="#DejaVuSans-32"/>
     <use x="159.033203" xlink:href="#DejaVuSans-116"/>
     <use x="198.242188" xlink:href="#DejaVuSans-97"/>
     <use x="259.521484" xlink:href="#DejaVuSans-114"/>
     <use x="298.884766" xlink:href="#DejaVuSans-103"/>
     <use x="362.361328" xlink:href="#DejaVuSans-101"/>
     <use x="423.884766" xlink:href="#DejaVuSans-116"/>
     <use x="463.09375" xlink:href="#DejaVuSans-115"/>
     <use x="515.193359" xlink:href="#DejaVuSans-58"/>
     <use x="548.884766" xlink:href="#DejaVuSans-32"/>
     <use x="580.671875" xlink:href="#DejaVuSans-49"/>
     <use x="644.294922" xlink:href="#DejaVuSans-48"/>
     <use x="707.917969" xlink:href="#DejaVuSans-48"/>
     <use x="771.541016" xlink:href="#DejaVuSans-46"/>
     <use x="803.328125" xlink:href="#DejaVuSans-46"/>
     <use x="835.115234" xlink:href="#DejaVuSans-49"/>
     <use x="898.738281" xlink:href="#DejaVuSans-101"/>
     <use x="960.261719" xlink:href="#DejaVuSans-45"/>
     <use x="996.345703" xlink:href="#DejaVuSans-48"/>
     <use x="1059.96875" xlink:href="#DejaVuSans-56"/>
    </g>
    <!-- 15 instances -->
    <g transform="translate(60.41088 60.954904)scale(0.102 -0.102)">
     <use xlink:href="#DejaVuSans-49"/>
     <use x="63.623047" xlink:href="#DejaVuSans-53"/>
     <use x="127.246094" xlink:href="#DejaVuSans-32"/>
     <use x="159.033203" xlink:href="#DejaVuSans-105"/>
     <use x="186.816406" xlink:href="#DejaVuSans-110"/>
     <use x="250.195312" xlink:href="#DejaVuSans-115"/>
     <use x="302.294922" xlink:href="#DejaVuSans-116"/>
     <use x="341.503906" xlink:href="#DejaVuSans-97"/>
     <use x="402.783203" xlink:href="#DejaVuSans-110"/>
     <use x="466.162109" xlink:href="#DejaVuSans-99"/>
     <use x="521.142578" xlink:href="#DejaVuSans-101"/>
     <use x="582.666016" xlink:href="#DejaVuSans-115"/>
    </g>
   </g>
   <g id="text_18">
    <!-- v2.4 -->
    <g style="fill:#808080;" transform="translate(187.233062 294.151352)scale(0.1 -0.1)">
     <use xlink:href="#DejaVuSans-118"/>
     <use x="59.179688" xlink:href="#DejaVuSans-50"/>
     <use x="122.802734" xlink:href="#DejaVuSans-46"/>
     <use x="154.589844" xlink:href="#DejaVuSans-52"/>
    </g>
   </g>
   <g id="text_19">
    <!-- 13 Sharp ridge -->
    <g transform="translate(124.05025 21.648)scale(0.2 -0.2)">
     <defs>
      <path d="M 54.890625 33.015625 
L 54.890625 0 
L 45.90625 0 
L 45.90625 32.71875 
Q 45.90625 40.484375 42.875 44.328125 
Q 39.84375 48.1875 33.796875 48.1875 
Q 26.515625 48.1875 22.3125 43.546875 
Q 18.109375 38.921875 18.109375 30.90625 
L 18.109375 0 
L 9.078125 0 
L 9.078125 75.984375 
L 18.109375 75.984375 
L 18.109375 46.1875 
Q 21.34375 51.125 25.703125 53.5625 
Q 30.078125 56 35.796875 56 
Q 45.21875 56 50.046875 50.171875 
Q 54.890625 44.34375 54.890625 33.015625 
z
" id="DejaVuSans-104"/>
     </defs>
     <use xlink:href="#DejaVuSans-49"/>
     <use x="63.623047" xlink:href="#DejaVuSans-51"/>
     <use x="127.246094" xlink:href="#DejaVuSans-32"/>
     <use x="159.033203" xlink:href="#DejaVuSans-83"/>
     <use x="222.509766" xlink:href="#DejaVuSans-104"/>
     <use x="285.888672" xlink:href="#DejaVuSans-97"/>
     <use x="347.167969" xlink:href="#DejaVuSans-114"/>
     <use x="388.28125" xlink:href="#DejaVuSans-112"/>
     <use x="451.757812" xlink:href="#DejaVuSans-32"/>
     <use x="483.544922" xlink:href="#DejaVuSans-114"/>
     <use x="524.658203" xlink:href="#DejaVuSans-105"/>
     <use x="552.441406" xlink:href="#DejaVuSans-100"/>
     <use x="615.917969" xlink:href="#DejaVuSans-103"/>
     <use x="679.394531" xlink:href="#DejaVuSans-101"/>
    </g>
   </g>
  </g>
 </g>
 <defs>
  <clipPath id="p5fb5f410a0">
   <rect height="271.296" width="281.088" x="57.6" y="27.648"/>
  </clipPath>
 </defs>
</svg>
