<?xml version="1.0" encoding="utf-8" standalone="no"?>
<!DOCTYPE svg PUBLIC "-//W3C//DTD SVG 1.1//EN"
  "http://www.w3.org/Graphics/SVG/1.1/DTD/svg11.dtd">
<!-- Created with matplotlib (https://matplotlib.org/) -->
<svg height="345.6pt" version="1.1" viewBox="0 0 460.8 345.6" width="460.8pt" xmlns="http://www.w3.org/2000/svg" xmlns:xlink="http://www.w3.org/1999/xlink">
 <metadata>
  <rdf:RDF xmlns:cc="http://creativecommons.org/ns#" xmlns:dc="http://purl.org/dc/elements/1.1/" xmlns:rdf="http://www.w3.org/1999/02/22-rdf-syntax-ns#">
   <cc:Work>
    <dc:type rdf:resource="http://purl.org/dc/dcmitype/StillImage"/>
    <dc:date>2021-05-01T17:07:39.305071</dc:date>
    <dc:format>image/svg+xml</dc:format>
    <dc:creator>
     <cc:Agent>
      <dc:title>Matplotlib v3.3.2, https://matplotlib.org/</dc:title>
     </cc:Agent>
    </dc:creator>
   </cc:Work>
  </rdf:RDF>
 </metadata>
 <defs>
  <style type="text/css">*{stroke-linecap:butt;stroke-linejoin:round;}</style>
 </defs>
 <g id="figure_1">
  <g id="patch_1">
   <path d="M 0 345.6 
L 460.8 345.6 
L 460.8 0 
L 0 0 
z
" style="fill:#ffffff;"/>
  </g>
  <g id="axes_1">
   <g id="patch_2">
    <path d="M 57.6 298.944 
L 338.688 298.944 
L 338.688 27.648 
L 57.6 27.648 
z
" style="fill:#ffffff;"/>
   </g>
   <g id="line2d_1">
    <path d="M 84.955534 298.944 
L 84.955534 293.677139 
L 104.592361 293.677139 
L 104.592361 288.410278 
L 107.414787 288.410278 
L 107.414787 283.143418 
L 111.023335 283.143418 
L 111.023335 277.876557 
L 115.077025 277.876557 
L 115.077025 272.609696 
L 116.081002 272.609696 
L 116.081002 267.342835 
L 116.680349 267.342835 
L 116.680349 262.075974 
L 117.145424 262.075974 
L 117.145424 256.809114 
L 119.996839 256.809114 
L 119.996839 251.542253 
L 120.852343 251.542253 
L 120.852343 246.275392 
L 122.104932 246.275392 
L 122.104932 241.008531 
L 128.885774 241.008531 
L 128.885774 235.74167 
L 132.133473 235.74167 
L 132.133473 230.47481 
L 136.227776 230.47481 
L 136.227776 225.207949 
L 144.148442 225.207949 
L 144.148442 219.941088 
L 145.281568 219.941088 
L 145.281568 214.674227 
L 145.732804 214.674227 
L 145.732804 209.407366 
L 146.707319 209.407366 
L 146.707319 204.140506 
L 147.61026 204.140506 
L 147.61026 198.873645 
L 148.938326 198.873645 
L 148.938326 193.606784 
L 149.593058 193.606784 
L 149.593058 188.339923 
L 150.085825 188.339923 
L 150.085825 183.073062 
L 151.097081 183.073062 
L 151.097081 177.806202 
L 151.453659 177.806202 
L 151.453659 172.539341 
L 152.145659 172.539341 
L 152.145659 167.27248 
L 152.840905 167.27248 
L 152.840905 162.005619 
L 153.438049 162.005619 
L 153.438049 156.738758 
L 153.693887 156.738758 
L 153.693887 151.471897 
L 154.439623 151.471897 
L 154.439623 146.205037 
L 154.77436 146.205037 
L 154.77436 140.938176 
L 155.258271 140.938176 
L 155.258271 135.671315 
L 155.501643 135.671315 
L 155.501643 130.404454 
L 155.928852 130.404454 
L 155.928852 125.137593 
L 156.163105 125.137593 
L 156.163105 119.870733 
L 156.357959 119.870733 
L 156.357959 114.603872 
L 156.681918 114.603872 
L 156.681918 109.337011 
L 156.894595 109.337011 
L 156.894595 104.07015 
L 157.15106 104.07015 
L 157.15106 98.803289 
L 157.346685 98.803289 
L 157.346685 93.536429 
L 157.574059 93.536429 
L 157.574059 88.269568 
L 157.820792 88.269568 
L 157.820792 83.002707 
L 158.0201 83.002707 
L 158.0201 77.735846 
L 158.358103 77.735846 
L 158.358103 72.468985 
L 158.583406 72.468985 
L 158.583406 67.202125 
L 158.721434 67.202125 
L 158.721434 61.935264 
L 158.973421 61.935264 
L 158.973421 56.668403 
L 159.098062 56.668403 
L 159.098062 51.401542 
L 159.293606 51.401542 
L 159.293606 46.134681 
L 159.597964 46.134681 
L 159.597964 40.867821 
L 159.877318 40.867821 
L 159.877318 35.60096 
L 160.015335 35.60096 
L 160.015335 30.334099 
L 338.688 30.334099 
" style="fill:none;stroke:#f5deb3;stroke-linecap:square;stroke-width:4;"/>
   </g>
   <g id="line2d_2">
    <defs>
     <path d="M -0 7.778175 
L 7.778175 0 
L 0 -7.778175 
L -7.778175 -0 
z
" id="meef17f1445" style="stroke:#f5deb3;stroke-linejoin:miter;stroke-width:1.5;"/>
    </defs>
    <g>
     <use style="fill:#f5deb3;stroke:#f5deb3;stroke-linejoin:miter;stroke-width:1.5;" x="122.104932" xlink:href="#meef17f1445" y="241.008531"/>
     <use style="fill:#f5deb3;stroke:#f5deb3;stroke-linejoin:miter;stroke-width:1.5;" x="156.681918" xlink:href="#meef17f1445" y="109.337011"/>
     <use style="fill:#f5deb3;stroke:#f5deb3;stroke-linejoin:miter;stroke-width:1.5;" x="160.015335" xlink:href="#meef17f1445" y="35.60096"/>
     <use style="fill:#f5deb3;stroke:#f5deb3;stroke-linejoin:miter;stroke-width:1.5;" x="160.015335" xlink:href="#meef17f1445" y="30.334099"/>
     <use style="fill:#f5deb3;stroke:#f5deb3;stroke-linejoin:miter;stroke-width:1.5;" x="338.688" xlink:href="#meef17f1445" y="30.334099"/>
    </g>
   </g>
   <g id="line2d_3">
    <path style="fill:none;stroke:#f5deb3;stroke-linecap:square;stroke-width:4;"/>
    <g/>
   </g>
   <g id="line2d_4">
    <path d="M 338.688 30.334099 
L 369.60768 35.706297 
" style="fill:none;stroke:#f5deb3;stroke-linecap:square;stroke-width:4;"/>
    <g>
     <use style="fill:#f5deb3;stroke:#f5deb3;stroke-linejoin:miter;stroke-width:1.5;" x="338.688" xlink:href="#meef17f1445" y="30.334099"/>
     <use style="fill:#f5deb3;stroke:#f5deb3;stroke-linejoin:miter;stroke-width:1.5;" x="369.60768" xlink:href="#meef17f1445" y="35.706297"/>
    </g>
   </g>
   <g id="matplotlib.axis_1">
    <g id="xtick_1">
     <g id="line2d_5">
      <path clip-path="url(#p394e4c3c23)" d="M 57.6 298.944 
L 57.6 27.648 
" style="fill:none;stroke:#b0b0b0;stroke-linecap:square;stroke-width:0.8;"/>
     </g>
     <g id="line2d_6">
      <defs>
       <path d="M 0 0 
L 0 3.5 
" id="m8dd1186cc4" style="stroke:#000000;stroke-width:0.8;"/>
      </defs>
      <g>
       <use style="stroke:#000000;stroke-width:0.8;" x="57.6" xlink:href="#m8dd1186cc4" y="298.944"/>
      </g>
     </g>
     <g id="text_1">
      <!-- 0 -->
      <g transform="translate(51.2375 321.140875)scale(0.2 -0.2)">
       <defs>
        <path d="M 31.78125 66.40625 
Q 24.171875 66.40625 20.328125 58.90625 
Q 16.5 51.421875 16.5 36.375 
Q 16.5 21.390625 20.328125 13.890625 
Q 24.171875 6.390625 31.78125 6.390625 
Q 39.453125 6.390625 43.28125 13.890625 
Q 47.125 21.390625 47.125 36.375 
Q 47.125 51.421875 43.28125 58.90625 
Q 39.453125 66.40625 31.78125 66.40625 
z
M 31.78125 74.21875 
Q 44.046875 74.21875 50.515625 64.515625 
Q 56.984375 54.828125 56.984375 36.375 
Q 56.984375 17.96875 50.515625 8.265625 
Q 44.046875 -1.421875 31.78125 -1.421875 
Q 19.53125 -1.421875 13.0625 8.265625 
Q 6.59375 17.96875 6.59375 36.375 
Q 6.59375 54.828125 13.0625 64.515625 
Q 19.53125 74.21875 31.78125 74.21875 
z
" id="DejaVuSans-48"/>
       </defs>
       <use xlink:href="#DejaVuSans-48"/>
      </g>
     </g>
    </g>
    <g id="xtick_2">
     <g id="line2d_7">
      <path clip-path="url(#p394e4c3c23)" d="M 137.910857 298.944 
L 137.910857 27.648 
" style="fill:none;stroke:#b0b0b0;stroke-linecap:square;stroke-width:0.8;"/>
     </g>
     <g id="line2d_8">
      <g>
       <use style="stroke:#000000;stroke-width:0.8;" x="137.910857" xlink:href="#m8dd1186cc4" y="298.944"/>
      </g>
     </g>
     <g id="text_2">
      <!-- 2 -->
      <g transform="translate(131.548357 321.140875)scale(0.2 -0.2)">
       <defs>
        <path d="M 19.1875 8.296875 
L 53.609375 8.296875 
L 53.609375 0 
L 7.328125 0 
L 7.328125 8.296875 
Q 12.9375 14.109375 22.625 23.890625 
Q 32.328125 33.6875 34.8125 36.53125 
Q 39.546875 41.84375 41.421875 45.53125 
Q 43.3125 49.21875 43.3125 52.78125 
Q 43.3125 58.59375 39.234375 62.25 
Q 35.15625 65.921875 28.609375 65.921875 
Q 23.96875 65.921875 18.8125 64.3125 
Q 13.671875 62.703125 7.8125 59.421875 
L 7.8125 69.390625 
Q 13.765625 71.78125 18.9375 73 
Q 24.125 74.21875 28.421875 74.21875 
Q 39.75 74.21875 46.484375 68.546875 
Q 53.21875 62.890625 53.21875 53.421875 
Q 53.21875 48.921875 51.53125 44.890625 
Q 49.859375 40.875 45.40625 35.40625 
Q 44.1875 33.984375 37.640625 27.21875 
Q 31.109375 20.453125 19.1875 8.296875 
z
" id="DejaVuSans-50"/>
       </defs>
       <use xlink:href="#DejaVuSans-50"/>
      </g>
     </g>
    </g>
    <g id="xtick_3">
     <g id="line2d_9">
      <path clip-path="url(#p394e4c3c23)" d="M 218.221714 298.944 
L 218.221714 27.648 
" style="fill:none;stroke:#b0b0b0;stroke-linecap:square;stroke-width:0.8;"/>
     </g>
     <g id="line2d_10">
      <g>
       <use style="stroke:#000000;stroke-width:0.8;" x="218.221714" xlink:href="#m8dd1186cc4" y="298.944"/>
      </g>
     </g>
     <g id="text_3">
      <!-- 4 -->
      <g transform="translate(211.859214 321.140875)scale(0.2 -0.2)">
       <defs>
        <path d="M 37.796875 64.3125 
L 12.890625 25.390625 
L 37.796875 25.390625 
z
M 35.203125 72.90625 
L 47.609375 72.90625 
L 47.609375 25.390625 
L 58.015625 25.390625 
L 58.015625 17.1875 
L 47.609375 17.1875 
L 47.609375 0 
L 37.796875 0 
L 37.796875 17.1875 
L 4.890625 17.1875 
L 4.890625 26.703125 
z
" id="DejaVuSans-52"/>
       </defs>
       <use xlink:href="#DejaVuSans-52"/>
      </g>
     </g>
    </g>
    <g id="xtick_4">
     <g id="line2d_11">
      <path clip-path="url(#p394e4c3c23)" d="M 298.532571 298.944 
L 298.532571 27.648 
" style="fill:none;stroke:#b0b0b0;stroke-linecap:square;stroke-width:0.8;"/>
     </g>
     <g id="line2d_12">
      <g>
       <use style="stroke:#000000;stroke-width:0.8;" x="298.532571" xlink:href="#m8dd1186cc4" y="298.944"/>
      </g>
     </g>
     <g id="text_4">
      <!-- 6 -->
      <g transform="translate(292.170071 321.140875)scale(0.2 -0.2)">
       <defs>
        <path d="M 33.015625 40.375 
Q 26.375 40.375 22.484375 35.828125 
Q 18.609375 31.296875 18.609375 23.390625 
Q 18.609375 15.53125 22.484375 10.953125 
Q 26.375 6.390625 33.015625 6.390625 
Q 39.65625 6.390625 43.53125 10.953125 
Q 47.40625 15.53125 47.40625 23.390625 
Q 47.40625 31.296875 43.53125 35.828125 
Q 39.65625 40.375 33.015625 40.375 
z
M 52.59375 71.296875 
L 52.59375 62.3125 
Q 48.875 64.0625 45.09375 64.984375 
Q 41.3125 65.921875 37.59375 65.921875 
Q 27.828125 65.921875 22.671875 59.328125 
Q 17.53125 52.734375 16.796875 39.40625 
Q 19.671875 43.65625 24.015625 45.921875 
Q 28.375 48.1875 33.59375 48.1875 
Q 44.578125 48.1875 50.953125 41.515625 
Q 57.328125 34.859375 57.328125 23.390625 
Q 57.328125 12.15625 50.6875 5.359375 
Q 44.046875 -1.421875 33.015625 -1.421875 
Q 20.359375 -1.421875 13.671875 8.265625 
Q 6.984375 17.96875 6.984375 36.375 
Q 6.984375 53.65625 15.1875 63.9375 
Q 23.390625 74.21875 37.203125 74.21875 
Q 40.921875 74.21875 44.703125 73.484375 
Q 48.484375 72.75 52.59375 71.296875 
z
" id="DejaVuSans-54"/>
       </defs>
       <use xlink:href="#DejaVuSans-54"/>
      </g>
     </g>
    </g>
    <g id="xtick_5">
     <g id="line2d_13">
      <path clip-path="url(#p394e4c3c23)" d="M 97.755429 298.944 
L 97.755429 27.648 
" style="fill:none;stroke:#b0b0b0;stroke-linecap:square;stroke-width:0.8;"/>
     </g>
     <g id="line2d_14">
      <defs>
       <path d="M 0 0 
L 0 2 
" id="m437be25ef3" style="stroke:#000000;stroke-width:0.6;"/>
      </defs>
      <g>
       <use style="stroke:#000000;stroke-width:0.6;" x="97.755429" xlink:href="#m437be25ef3" y="298.944"/>
      </g>
     </g>
    </g>
    <g id="xtick_6">
     <g id="line2d_15">
      <path clip-path="url(#p394e4c3c23)" d="M 178.066286 298.944 
L 178.066286 27.648 
" style="fill:none;stroke:#b0b0b0;stroke-linecap:square;stroke-width:0.8;"/>
     </g>
     <g id="line2d_16">
      <g>
       <use style="stroke:#000000;stroke-width:0.6;" x="178.066286" xlink:href="#m437be25ef3" y="298.944"/>
      </g>
     </g>
    </g>
    <g id="xtick_7">
     <g id="line2d_17">
      <path clip-path="url(#p394e4c3c23)" d="M 258.377143 298.944 
L 258.377143 27.648 
" style="fill:none;stroke:#b0b0b0;stroke-linecap:square;stroke-width:0.8;"/>
     </g>
     <g id="line2d_18">
      <g>
       <use style="stroke:#000000;stroke-width:0.6;" x="258.377143" xlink:href="#m437be25ef3" y="298.944"/>
      </g>
     </g>
    </g>
    <g id="xtick_8">
     <g id="line2d_19">
      <path clip-path="url(#p394e4c3c23)" d="M 338.688 298.944 
L 338.688 27.648 
" style="fill:none;stroke:#b0b0b0;stroke-linecap:square;stroke-width:0.8;"/>
     </g>
     <g id="line2d_20">
      <g>
       <use style="stroke:#000000;stroke-width:0.6;" x="338.688" xlink:href="#m437be25ef3" y="298.944"/>
      </g>
     </g>
    </g>
    <g id="text_5">
     <!-- log10(# f-evals / dimension) -->
     <g transform="translate(77.764078 342.217594)scale(0.17 -0.17)">
      <defs>
       <path d="M 9.421875 75.984375 
L 18.40625 75.984375 
L 18.40625 0 
L 9.421875 0 
z
" id="DejaVuSans-108"/>
       <path d="M 30.609375 48.390625 
Q 23.390625 48.390625 19.1875 42.75 
Q 14.984375 37.109375 14.984375 27.296875 
Q 14.984375 17.484375 19.15625 11.84375 
Q 23.34375 6.203125 30.609375 6.203125 
Q 37.796875 6.203125 41.984375 11.859375 
Q 46.1875 17.53125 46.1875 27.296875 
Q 46.1875 37.015625 41.984375 42.703125 
Q 37.796875 48.390625 30.609375 48.390625 
z
M 30.609375 56 
Q 42.328125 56 49.015625 48.375 
Q 55.71875 40.765625 55.71875 27.296875 
Q 55.71875 13.875 49.015625 6.21875 
Q 42.328125 -1.421875 30.609375 -1.421875 
Q 18.84375 -1.421875 12.171875 6.21875 
Q 5.515625 13.875 5.515625 27.296875 
Q 5.515625 40.765625 12.171875 48.375 
Q 18.84375 56 30.609375 56 
z
" id="DejaVuSans-111"/>
       <path d="M 45.40625 27.984375 
Q 45.40625 37.75 41.375 43.109375 
Q 37.359375 48.484375 30.078125 48.484375 
Q 22.859375 48.484375 18.828125 43.109375 
Q 14.796875 37.75 14.796875 27.984375 
Q 14.796875 18.265625 18.828125 12.890625 
Q 22.859375 7.515625 30.078125 7.515625 
Q 37.359375 7.515625 41.375 12.890625 
Q 45.40625 18.265625 45.40625 27.984375 
z
M 54.390625 6.78125 
Q 54.390625 -7.171875 48.1875 -13.984375 
Q 42 -20.796875 29.203125 -20.796875 
Q 24.46875 -20.796875 20.265625 -20.09375 
Q 16.0625 -19.390625 12.109375 -17.921875 
L 12.109375 -9.1875 
Q 16.0625 -11.328125 19.921875 -12.34375 
Q 23.78125 -13.375 27.78125 -13.375 
Q 36.625 -13.375 41.015625 -8.765625 
Q 45.40625 -4.15625 45.40625 5.171875 
L 45.40625 9.625 
Q 42.625 4.78125 38.28125 2.390625 
Q 33.9375 0 27.875 0 
Q 17.828125 0 11.671875 7.65625 
Q 5.515625 15.328125 5.515625 27.984375 
Q 5.515625 40.671875 11.671875 48.328125 
Q 17.828125 56 27.875 56 
Q 33.9375 56 38.28125 53.609375 
Q 42.625 51.21875 45.40625 46.390625 
L 45.40625 54.6875 
L 54.390625 54.6875 
z
" id="DejaVuSans-103"/>
       <path d="M 12.40625 8.296875 
L 28.515625 8.296875 
L 28.515625 63.921875 
L 10.984375 60.40625 
L 10.984375 69.390625 
L 28.421875 72.90625 
L 38.28125 72.90625 
L 38.28125 8.296875 
L 54.390625 8.296875 
L 54.390625 0 
L 12.40625 0 
z
" id="DejaVuSans-49"/>
       <path d="M 31 75.875 
Q 24.46875 64.65625 21.28125 53.65625 
Q 18.109375 42.671875 18.109375 31.390625 
Q 18.109375 20.125 21.3125 9.0625 
Q 24.515625 -2 31 -13.1875 
L 23.1875 -13.1875 
Q 15.875 -1.703125 12.234375 9.375 
Q 8.59375 20.453125 8.59375 31.390625 
Q 8.59375 42.28125 12.203125 53.3125 
Q 15.828125 64.359375 23.1875 75.875 
z
" id="DejaVuSans-40"/>
       <path d="M 51.125 44 
L 36.921875 44 
L 32.8125 27.6875 
L 47.125 27.6875 
z
M 43.796875 71.78125 
L 38.71875 51.515625 
L 52.984375 51.515625 
L 58.109375 71.78125 
L 65.921875 71.78125 
L 60.890625 51.515625 
L 76.125 51.515625 
L 76.125 44 
L 58.984375 44 
L 54.984375 27.6875 
L 70.515625 27.6875 
L 70.515625 20.21875 
L 53.078125 20.21875 
L 48 0 
L 40.1875 0 
L 45.21875 20.21875 
L 30.90625 20.21875 
L 25.875 0 
L 18.015625 0 
L 23.09375 20.21875 
L 7.71875 20.21875 
L 7.71875 27.6875 
L 24.90625 27.6875 
L 29 44 
L 13.28125 44 
L 13.28125 51.515625 
L 30.90625 51.515625 
L 35.890625 71.78125 
z
" id="DejaVuSans-35"/>
       <path id="DejaVuSans-32"/>
       <path d="M 37.109375 75.984375 
L 37.109375 68.5 
L 28.515625 68.5 
Q 23.6875 68.5 21.796875 66.546875 
Q 19.921875 64.59375 19.921875 59.515625 
L 19.921875 54.6875 
L 34.71875 54.6875 
L 34.71875 47.703125 
L 19.921875 47.703125 
L 19.921875 0 
L 10.890625 0 
L 10.890625 47.703125 
L 2.296875 47.703125 
L 2.296875 54.6875 
L 10.890625 54.6875 
L 10.890625 58.5 
Q 10.890625 67.625 15.140625 71.796875 
Q 19.390625 75.984375 28.609375 75.984375 
z
" id="DejaVuSans-102"/>
       <path d="M 4.890625 31.390625 
L 31.203125 31.390625 
L 31.203125 23.390625 
L 4.890625 23.390625 
z
" id="DejaVuSans-45"/>
       <path d="M 56.203125 29.59375 
L 56.203125 25.203125 
L 14.890625 25.203125 
Q 15.484375 15.921875 20.484375 11.0625 
Q 25.484375 6.203125 34.421875 6.203125 
Q 39.59375 6.203125 44.453125 7.46875 
Q 49.3125 8.734375 54.109375 11.28125 
L 54.109375 2.78125 
Q 49.265625 0.734375 44.1875 -0.34375 
Q 39.109375 -1.421875 33.890625 -1.421875 
Q 20.796875 -1.421875 13.15625 6.1875 
Q 5.515625 13.8125 5.515625 26.8125 
Q 5.515625 40.234375 12.765625 48.109375 
Q 20.015625 56 32.328125 56 
Q 43.359375 56 49.78125 48.890625 
Q 56.203125 41.796875 56.203125 29.59375 
z
M 47.21875 32.234375 
Q 47.125 39.59375 43.09375 43.984375 
Q 39.0625 48.390625 32.421875 48.390625 
Q 24.90625 48.390625 20.390625 44.140625 
Q 15.875 39.890625 15.1875 32.171875 
z
" id="DejaVuSans-101"/>
       <path d="M 2.984375 54.6875 
L 12.5 54.6875 
L 29.59375 8.796875 
L 46.6875 54.6875 
L 56.203125 54.6875 
L 35.6875 0 
L 23.484375 0 
z
" id="DejaVuSans-118"/>
       <path d="M 34.28125 27.484375 
Q 23.390625 27.484375 19.1875 25 
Q 14.984375 22.515625 14.984375 16.5 
Q 14.984375 11.71875 18.140625 8.90625 
Q 21.296875 6.109375 26.703125 6.109375 
Q 34.1875 6.109375 38.703125 11.40625 
Q 43.21875 16.703125 43.21875 25.484375 
L 43.21875 27.484375 
z
M 52.203125 31.203125 
L 52.203125 0 
L 43.21875 0 
L 43.21875 8.296875 
Q 40.140625 3.328125 35.546875 0.953125 
Q 30.953125 -1.421875 24.3125 -1.421875 
Q 15.921875 -1.421875 10.953125 3.296875 
Q 6 8.015625 6 15.921875 
Q 6 25.140625 12.171875 29.828125 
Q 18.359375 34.515625 30.609375 34.515625 
L 43.21875 34.515625 
L 43.21875 35.40625 
Q 43.21875 41.609375 39.140625 45 
Q 35.0625 48.390625 27.6875 48.390625 
Q 23 48.390625 18.546875 47.265625 
Q 14.109375 46.140625 10.015625 43.890625 
L 10.015625 52.203125 
Q 14.9375 54.109375 19.578125 55.046875 
Q 24.21875 56 28.609375 56 
Q 40.484375 56 46.34375 49.84375 
Q 52.203125 43.703125 52.203125 31.203125 
z
" id="DejaVuSans-97"/>
       <path d="M 44.28125 53.078125 
L 44.28125 44.578125 
Q 40.484375 46.53125 36.375 47.5 
Q 32.28125 48.484375 27.875 48.484375 
Q 21.1875 48.484375 17.84375 46.4375 
Q 14.5 44.390625 14.5 40.28125 
Q 14.5 37.15625 16.890625 35.375 
Q 19.28125 33.59375 26.515625 31.984375 
L 29.59375 31.296875 
Q 39.15625 29.25 43.1875 25.515625 
Q 47.21875 21.78125 47.21875 15.09375 
Q 47.21875 7.46875 41.1875 3.015625 
Q 35.15625 -1.421875 24.609375 -1.421875 
Q 20.21875 -1.421875 15.453125 -0.5625 
Q 10.6875 0.296875 5.421875 2 
L 5.421875 11.28125 
Q 10.40625 8.6875 15.234375 7.390625 
Q 20.0625 6.109375 24.8125 6.109375 
Q 31.15625 6.109375 34.5625 8.28125 
Q 37.984375 10.453125 37.984375 14.40625 
Q 37.984375 18.0625 35.515625 20.015625 
Q 33.0625 21.96875 24.703125 23.78125 
L 21.578125 24.515625 
Q 13.234375 26.265625 9.515625 29.90625 
Q 5.8125 33.546875 5.8125 39.890625 
Q 5.8125 47.609375 11.28125 51.796875 
Q 16.75 56 26.8125 56 
Q 31.78125 56 36.171875 55.265625 
Q 40.578125 54.546875 44.28125 53.078125 
z
" id="DejaVuSans-115"/>
       <path d="M 25.390625 72.90625 
L 33.6875 72.90625 
L 8.296875 -9.28125 
L 0 -9.28125 
z
" id="DejaVuSans-47"/>
       <path d="M 45.40625 46.390625 
L 45.40625 75.984375 
L 54.390625 75.984375 
L 54.390625 0 
L 45.40625 0 
L 45.40625 8.203125 
Q 42.578125 3.328125 38.25 0.953125 
Q 33.9375 -1.421875 27.875 -1.421875 
Q 17.96875 -1.421875 11.734375 6.484375 
Q 5.515625 14.40625 5.515625 27.296875 
Q 5.515625 40.1875 11.734375 48.09375 
Q 17.96875 56 27.875 56 
Q 33.9375 56 38.25 53.625 
Q 42.578125 51.265625 45.40625 46.390625 
z
M 14.796875 27.296875 
Q 14.796875 17.390625 18.875 11.75 
Q 22.953125 6.109375 30.078125 6.109375 
Q 37.203125 6.109375 41.296875 11.75 
Q 45.40625 17.390625 45.40625 27.296875 
Q 45.40625 37.203125 41.296875 42.84375 
Q 37.203125 48.484375 30.078125 48.484375 
Q 22.953125 48.484375 18.875 42.84375 
Q 14.796875 37.203125 14.796875 27.296875 
z
" id="DejaVuSans-100"/>
       <path d="M 9.421875 54.6875 
L 18.40625 54.6875 
L 18.40625 0 
L 9.421875 0 
z
M 9.421875 75.984375 
L 18.40625 75.984375 
L 18.40625 64.59375 
L 9.421875 64.59375 
z
" id="DejaVuSans-105"/>
       <path d="M 52 44.1875 
Q 55.375 50.25 60.0625 53.125 
Q 64.75 56 71.09375 56 
Q 79.640625 56 84.28125 50.015625 
Q 88.921875 44.046875 88.921875 33.015625 
L 88.921875 0 
L 79.890625 0 
L 79.890625 32.71875 
Q 79.890625 40.578125 77.09375 44.375 
Q 74.3125 48.1875 68.609375 48.1875 
Q 61.625 48.1875 57.5625 43.546875 
Q 53.515625 38.921875 53.515625 30.90625 
L 53.515625 0 
L 44.484375 0 
L 44.484375 32.71875 
Q 44.484375 40.625 41.703125 44.40625 
Q 38.921875 48.1875 33.109375 48.1875 
Q 26.21875 48.1875 22.15625 43.53125 
Q 18.109375 38.875 18.109375 30.90625 
L 18.109375 0 
L 9.078125 0 
L 9.078125 54.6875 
L 18.109375 54.6875 
L 18.109375 46.1875 
Q 21.1875 51.21875 25.484375 53.609375 
Q 29.78125 56 35.6875 56 
Q 41.65625 56 45.828125 52.96875 
Q 50 49.953125 52 44.1875 
z
" id="DejaVuSans-109"/>
       <path d="M 54.890625 33.015625 
L 54.890625 0 
L 45.90625 0 
L 45.90625 32.71875 
Q 45.90625 40.484375 42.875 44.328125 
Q 39.84375 48.1875 33.796875 48.1875 
Q 26.515625 48.1875 22.3125 43.546875 
Q 18.109375 38.921875 18.109375 30.90625 
L 18.109375 0 
L 9.078125 0 
L 9.078125 54.6875 
L 18.109375 54.6875 
L 18.109375 46.1875 
Q 21.34375 51.125 25.703125 53.5625 
Q 30.078125 56 35.796875 56 
Q 45.21875 56 50.046875 50.171875 
Q 54.890625 44.34375 54.890625 33.015625 
z
" id="DejaVuSans-110"/>
       <path d="M 8.015625 75.875 
L 15.828125 75.875 
Q 23.140625 64.359375 26.78125 53.3125 
Q 30.421875 42.28125 30.421875 31.390625 
Q 30.421875 20.453125 26.78125 9.375 
Q 23.140625 -1.703125 15.828125 -13.1875 
L 8.015625 -13.1875 
Q 14.5 -2 17.703125 9.0625 
Q 20.90625 20.125 20.90625 31.390625 
Q 20.90625 42.671875 17.703125 53.65625 
Q 14.5 64.65625 8.015625 75.875 
z
" id="DejaVuSans-41"/>
      </defs>
      <use xlink:href="#DejaVuSans-108"/>
      <use x="27.783203" xlink:href="#DejaVuSans-111"/>
      <use x="88.964844" xlink:href="#DejaVuSans-103"/>
      <use x="152.441406" xlink:href="#DejaVuSans-49"/>
      <use x="216.064453" xlink:href="#DejaVuSans-48"/>
      <use x="279.6875" xlink:href="#DejaVuSans-40"/>
      <use x="318.701172" xlink:href="#DejaVuSans-35"/>
      <use x="402.490234" xlink:href="#DejaVuSans-32"/>
      <use x="434.277344" xlink:href="#DejaVuSans-102"/>
      <use x="463.982422" xlink:href="#DejaVuSans-45"/>
      <use x="500.066406" xlink:href="#DejaVuSans-101"/>
      <use x="561.589844" xlink:href="#DejaVuSans-118"/>
      <use x="620.769531" xlink:href="#DejaVuSans-97"/>
      <use x="682.048828" xlink:href="#DejaVuSans-108"/>
      <use x="709.832031" xlink:href="#DejaVuSans-115"/>
      <use x="761.931641" xlink:href="#DejaVuSans-32"/>
      <use x="793.71875" xlink:href="#DejaVuSans-47"/>
      <use x="827.410156" xlink:href="#DejaVuSans-32"/>
      <use x="859.197266" xlink:href="#DejaVuSans-100"/>
      <use x="922.673828" xlink:href="#DejaVuSans-105"/>
      <use x="950.457031" xlink:href="#DejaVuSans-109"/>
      <use x="1047.869141" xlink:href="#DejaVuSans-101"/>
      <use x="1109.392578" xlink:href="#DejaVuSans-110"/>
      <use x="1172.771484" xlink:href="#DejaVuSans-115"/>
      <use x="1224.871094" xlink:href="#DejaVuSans-105"/>
      <use x="1252.654297" xlink:href="#DejaVuSans-111"/>
      <use x="1313.835938" xlink:href="#DejaVuSans-110"/>
      <use x="1377.214844" xlink:href="#DejaVuSans-41"/>
     </g>
    </g>
   </g>
   <g id="matplotlib.axis_2">
    <g id="ytick_1">
     <g id="line2d_21">
      <path clip-path="url(#p394e4c3c23)" d="M 57.6 298.944 
L 338.688 298.944 
" style="fill:none;stroke:#b0b0b0;stroke-linecap:square;stroke-width:0.8;"/>
     </g>
     <g id="line2d_22">
      <defs>
       <path d="M 0 0 
L -3.5 0 
" id="m8bf8249ab2" style="stroke:#000000;stroke-width:0.8;"/>
      </defs>
      <g>
       <use style="stroke:#000000;stroke-width:0.8;" x="57.6" xlink:href="#m8bf8249ab2" y="298.944"/>
      </g>
     </g>
     <g id="text_6">
      <!-- 0.0 -->
      <g transform="translate(25.155 305.02275)scale(0.16 -0.16)">
       <defs>
        <path d="M 10.6875 12.40625 
L 21 12.40625 
L 21 0 
L 10.6875 0 
z
" id="DejaVuSans-46"/>
       </defs>
       <use xlink:href="#DejaVuSans-48"/>
       <use x="63.623047" xlink:href="#DejaVuSans-46"/>
       <use x="95.410156" xlink:href="#DejaVuSans-48"/>
      </g>
     </g>
    </g>
    <g id="ytick_2">
     <g id="line2d_23">
      <path clip-path="url(#p394e4c3c23)" d="M 57.6 245.22202 
L 338.688 245.22202 
" style="fill:none;stroke:#b0b0b0;stroke-linecap:square;stroke-width:0.8;"/>
     </g>
     <g id="line2d_24">
      <g>
       <use style="stroke:#000000;stroke-width:0.8;" x="57.6" xlink:href="#m8bf8249ab2" y="245.22202"/>
      </g>
     </g>
     <g id="text_7">
      <!-- 0.2 -->
      <g transform="translate(25.155 251.30077)scale(0.16 -0.16)">
       <use xlink:href="#DejaVuSans-48"/>
       <use x="63.623047" xlink:href="#DejaVuSans-46"/>
       <use x="95.410156" xlink:href="#DejaVuSans-50"/>
      </g>
     </g>
    </g>
    <g id="ytick_3">
     <g id="line2d_25">
      <path clip-path="url(#p394e4c3c23)" d="M 57.6 191.50004 
L 338.688 191.50004 
" style="fill:none;stroke:#b0b0b0;stroke-linecap:square;stroke-width:0.8;"/>
     </g>
     <g id="line2d_26">
      <g>
       <use style="stroke:#000000;stroke-width:0.8;" x="57.6" xlink:href="#m8bf8249ab2" y="191.50004"/>
      </g>
     </g>
     <g id="text_8">
      <!-- 0.4 -->
      <g transform="translate(25.155 197.57879)scale(0.16 -0.16)">
       <use xlink:href="#DejaVuSans-48"/>
       <use x="63.623047" xlink:href="#DejaVuSans-46"/>
       <use x="95.410156" xlink:href="#DejaVuSans-52"/>
      </g>
     </g>
    </g>
    <g id="ytick_4">
     <g id="line2d_27">
      <path clip-path="url(#p394e4c3c23)" d="M 57.6 137.778059 
L 338.688 137.778059 
" style="fill:none;stroke:#b0b0b0;stroke-linecap:square;stroke-width:0.8;"/>
     </g>
     <g id="line2d_28">
      <g>
       <use style="stroke:#000000;stroke-width:0.8;" x="57.6" xlink:href="#m8bf8249ab2" y="137.778059"/>
      </g>
     </g>
     <g id="text_9">
      <!-- 0.6 -->
      <g transform="translate(25.155 143.856809)scale(0.16 -0.16)">
       <use xlink:href="#DejaVuSans-48"/>
       <use x="63.623047" xlink:href="#DejaVuSans-46"/>
       <use x="95.410156" xlink:href="#DejaVuSans-54"/>
      </g>
     </g>
    </g>
    <g id="ytick_5">
     <g id="line2d_29">
      <path clip-path="url(#p394e4c3c23)" d="M 57.6 84.056079 
L 338.688 84.056079 
" style="fill:none;stroke:#b0b0b0;stroke-linecap:square;stroke-width:0.8;"/>
     </g>
     <g id="line2d_30">
      <g>
       <use style="stroke:#000000;stroke-width:0.8;" x="57.6" xlink:href="#m8bf8249ab2" y="84.056079"/>
      </g>
     </g>
     <g id="text_10">
      <!-- 0.8 -->
      <g transform="translate(25.155 90.134829)scale(0.16 -0.16)">
       <defs>
        <path d="M 31.78125 34.625 
Q 24.75 34.625 20.71875 30.859375 
Q 16.703125 27.09375 16.703125 20.515625 
Q 16.703125 13.921875 20.71875 10.15625 
Q 24.75 6.390625 31.78125 6.390625 
Q 38.8125 6.390625 42.859375 10.171875 
Q 46.921875 13.96875 46.921875 20.515625 
Q 46.921875 27.09375 42.890625 30.859375 
Q 38.875 34.625 31.78125 34.625 
z
M 21.921875 38.8125 
Q 15.578125 40.375 12.03125 44.71875 
Q 8.5 49.078125 8.5 55.328125 
Q 8.5 64.0625 14.71875 69.140625 
Q 20.953125 74.21875 31.78125 74.21875 
Q 42.671875 74.21875 48.875 69.140625 
Q 55.078125 64.0625 55.078125 55.328125 
Q 55.078125 49.078125 51.53125 44.71875 
Q 48 40.375 41.703125 38.8125 
Q 48.828125 37.15625 52.796875 32.3125 
Q 56.78125 27.484375 56.78125 20.515625 
Q 56.78125 9.90625 50.3125 4.234375 
Q 43.84375 -1.421875 31.78125 -1.421875 
Q 19.734375 -1.421875 13.25 4.234375 
Q 6.78125 9.90625 6.78125 20.515625 
Q 6.78125 27.484375 10.78125 32.3125 
Q 14.796875 37.15625 21.921875 38.8125 
z
M 18.3125 54.390625 
Q 18.3125 48.734375 21.84375 45.5625 
Q 25.390625 42.390625 31.78125 42.390625 
Q 38.140625 42.390625 41.71875 45.5625 
Q 45.3125 48.734375 45.3125 54.390625 
Q 45.3125 60.0625 41.71875 63.234375 
Q 38.140625 66.40625 31.78125 66.40625 
Q 25.390625 66.40625 21.84375 63.234375 
Q 18.3125 60.0625 18.3125 54.390625 
z
" id="DejaVuSans-56"/>
       </defs>
       <use xlink:href="#DejaVuSans-48"/>
       <use x="63.623047" xlink:href="#DejaVuSans-46"/>
       <use x="95.410156" xlink:href="#DejaVuSans-56"/>
      </g>
     </g>
    </g>
    <g id="ytick_6">
     <g id="line2d_31">
      <path clip-path="url(#p394e4c3c23)" d="M 57.6 30.334099 
L 338.688 30.334099 
" style="fill:none;stroke:#b0b0b0;stroke-linecap:square;stroke-width:0.8;"/>
     </g>
     <g id="line2d_32">
      <g>
       <use style="stroke:#000000;stroke-width:0.8;" x="57.6" xlink:href="#m8bf8249ab2" y="30.334099"/>
      </g>
     </g>
     <g id="text_11">
      <!-- 1.0 -->
      <g transform="translate(25.155 36.412849)scale(0.16 -0.16)">
       <use xlink:href="#DejaVuSans-49"/>
       <use x="63.623047" xlink:href="#DejaVuSans-46"/>
       <use x="95.410156" xlink:href="#DejaVuSans-48"/>
      </g>
     </g>
    </g>
    <g id="text_12">
     <!-- Fraction of function,target pairs -->
     <g transform="translate(17.619531 297.681)rotate(-90)scale(0.17 -0.17)">
      <defs>
       <path d="M 9.8125 72.90625 
L 51.703125 72.90625 
L 51.703125 64.59375 
L 19.671875 64.59375 
L 19.671875 43.109375 
L 48.578125 43.109375 
L 48.578125 34.8125 
L 19.671875 34.8125 
L 19.671875 0 
L 9.8125 0 
z
" id="DejaVuSans-70"/>
       <path d="M 41.109375 46.296875 
Q 39.59375 47.171875 37.8125 47.578125 
Q 36.03125 48 33.890625 48 
Q 26.265625 48 22.1875 43.046875 
Q 18.109375 38.09375 18.109375 28.8125 
L 18.109375 0 
L 9.078125 0 
L 9.078125 54.6875 
L 18.109375 54.6875 
L 18.109375 46.1875 
Q 20.953125 51.171875 25.484375 53.578125 
Q 30.03125 56 36.53125 56 
Q 37.453125 56 38.578125 55.875 
Q 39.703125 55.765625 41.0625 55.515625 
z
" id="DejaVuSans-114"/>
       <path d="M 48.78125 52.59375 
L 48.78125 44.1875 
Q 44.96875 46.296875 41.140625 47.34375 
Q 37.3125 48.390625 33.40625 48.390625 
Q 24.65625 48.390625 19.8125 42.84375 
Q 14.984375 37.3125 14.984375 27.296875 
Q 14.984375 17.28125 19.8125 11.734375 
Q 24.65625 6.203125 33.40625 6.203125 
Q 37.3125 6.203125 41.140625 7.25 
Q 44.96875 8.296875 48.78125 10.40625 
L 48.78125 2.09375 
Q 45.015625 0.34375 40.984375 -0.53125 
Q 36.96875 -1.421875 32.421875 -1.421875 
Q 20.0625 -1.421875 12.78125 6.34375 
Q 5.515625 14.109375 5.515625 27.296875 
Q 5.515625 40.671875 12.859375 48.328125 
Q 20.21875 56 33.015625 56 
Q 37.15625 56 41.109375 55.140625 
Q 45.0625 54.296875 48.78125 52.59375 
z
" id="DejaVuSans-99"/>
       <path d="M 18.3125 70.21875 
L 18.3125 54.6875 
L 36.8125 54.6875 
L 36.8125 47.703125 
L 18.3125 47.703125 
L 18.3125 18.015625 
Q 18.3125 11.328125 20.140625 9.421875 
Q 21.96875 7.515625 27.59375 7.515625 
L 36.8125 7.515625 
L 36.8125 0 
L 27.59375 0 
Q 17.1875 0 13.234375 3.875 
Q 9.28125 7.765625 9.28125 18.015625 
L 9.28125 47.703125 
L 2.6875 47.703125 
L 2.6875 54.6875 
L 9.28125 54.6875 
L 9.28125 70.21875 
z
" id="DejaVuSans-116"/>
       <path d="M 8.5 21.578125 
L 8.5 54.6875 
L 17.484375 54.6875 
L 17.484375 21.921875 
Q 17.484375 14.15625 20.5 10.265625 
Q 23.53125 6.390625 29.59375 6.390625 
Q 36.859375 6.390625 41.078125 11.03125 
Q 45.3125 15.671875 45.3125 23.6875 
L 45.3125 54.6875 
L 54.296875 54.6875 
L 54.296875 0 
L 45.3125 0 
L 45.3125 8.40625 
Q 42.046875 3.421875 37.71875 1 
Q 33.40625 -1.421875 27.6875 -1.421875 
Q 18.265625 -1.421875 13.375 4.4375 
Q 8.5 10.296875 8.5 21.578125 
z
M 31.109375 56 
z
" id="DejaVuSans-117"/>
       <path d="M 11.71875 12.40625 
L 22.015625 12.40625 
L 22.015625 4 
L 14.015625 -11.625 
L 7.71875 -11.625 
L 11.71875 4 
z
" id="DejaVuSans-44"/>
       <path d="M 18.109375 8.203125 
L 18.109375 -20.796875 
L 9.078125 -20.796875 
L 9.078125 54.6875 
L 18.109375 54.6875 
L 18.109375 46.390625 
Q 20.953125 51.265625 25.265625 53.625 
Q 29.59375 56 35.59375 56 
Q 45.5625 56 51.78125 48.09375 
Q 58.015625 40.1875 58.015625 27.296875 
Q 58.015625 14.40625 51.78125 6.484375 
Q 45.5625 -1.421875 35.59375 -1.421875 
Q 29.59375 -1.421875 25.265625 0.953125 
Q 20.953125 3.328125 18.109375 8.203125 
z
M 48.6875 27.296875 
Q 48.6875 37.203125 44.609375 42.84375 
Q 40.53125 48.484375 33.40625 48.484375 
Q 26.265625 48.484375 22.1875 42.84375 
Q 18.109375 37.203125 18.109375 27.296875 
Q 18.109375 17.390625 22.1875 11.75 
Q 26.265625 6.109375 33.40625 6.109375 
Q 40.53125 6.109375 44.609375 11.75 
Q 48.6875 17.390625 48.6875 27.296875 
z
" id="DejaVuSans-112"/>
      </defs>
      <use xlink:href="#DejaVuSans-70"/>
      <use x="50.269531" xlink:href="#DejaVuSans-114"/>
      <use x="91.382812" xlink:href="#DejaVuSans-97"/>
      <use x="152.662109" xlink:href="#DejaVuSans-99"/>
      <use x="207.642578" xlink:href="#DejaVuSans-116"/>
      <use x="246.851562" xlink:href="#DejaVuSans-105"/>
      <use x="274.634766" xlink:href="#DejaVuSans-111"/>
      <use x="335.816406" xlink:href="#DejaVuSans-110"/>
      <use x="399.195312" xlink:href="#DejaVuSans-32"/>
      <use x="430.982422" xlink:href="#DejaVuSans-111"/>
      <use x="492.164062" xlink:href="#DejaVuSans-102"/>
      <use x="527.369141" xlink:href="#DejaVuSans-32"/>
      <use x="559.15625" xlink:href="#DejaVuSans-102"/>
      <use x="594.361328" xlink:href="#DejaVuSans-117"/>
      <use x="657.740234" xlink:href="#DejaVuSans-110"/>
      <use x="721.119141" xlink:href="#DejaVuSans-99"/>
      <use x="776.099609" xlink:href="#DejaVuSans-116"/>
      <use x="815.308594" xlink:href="#DejaVuSans-105"/>
      <use x="843.091797" xlink:href="#DejaVuSans-111"/>
      <use x="904.273438" xlink:href="#DejaVuSans-110"/>
      <use x="967.652344" xlink:href="#DejaVuSans-44"/>
      <use x="999.439453" xlink:href="#DejaVuSans-116"/>
      <use x="1038.648438" xlink:href="#DejaVuSans-97"/>
      <use x="1099.927734" xlink:href="#DejaVuSans-114"/>
      <use x="1139.291016" xlink:href="#DejaVuSans-103"/>
      <use x="1202.767578" xlink:href="#DejaVuSans-101"/>
      <use x="1264.291016" xlink:href="#DejaVuSans-116"/>
      <use x="1303.5" xlink:href="#DejaVuSans-32"/>
      <use x="1335.287109" xlink:href="#DejaVuSans-112"/>
      <use x="1398.763672" xlink:href="#DejaVuSans-97"/>
      <use x="1460.042969" xlink:href="#DejaVuSans-105"/>
      <use x="1487.826172" xlink:href="#DejaVuSans-114"/>
      <use x="1528.939453" xlink:href="#DejaVuSans-115"/>
     </g>
    </g>
   </g>
   <g id="line2d_33">
    <defs>
     <path d="M 0 1.5 
C 0.397805 1.5 0.77937 1.341951 1.06066 1.06066 
C 1.341951 0.77937 1.5 0.397805 1.5 0 
C 1.5 -0.397805 1.341951 -0.77937 1.06066 -1.06066 
C 0.77937 -1.341951 0.397805 -1.5 0 -1.5 
C -0.397805 -1.5 -0.77937 -1.341951 -1.06066 -1.06066 
C -1.341951 -0.77937 -1.5 -0.397805 -1.5 0 
C -1.5 0.397805 -1.341951 0.77937 -1.06066 1.06066 
C -0.77937 1.341951 -0.397805 1.5 0 1.5 
z
" id="m8ba43e5151" style="stroke:#f5deb3;"/>
    </defs>
    <g>
     <use style="fill:#f5deb3;stroke:#f5deb3;" x="160.015335" xlink:href="#m8ba43e5151" y="30.334099"/>
     <use style="fill:#f5deb3;stroke:#f5deb3;" x="160.015335" xlink:href="#m8ba43e5151" y="30.334099"/>
    </g>
   </g>
   <g id="line2d_34">
    <defs>
     <path d="M 0 1.5 
C 0.397805 1.5 0.77937 1.341951 1.06066 1.06066 
C 1.341951 0.77937 1.5 0.397805 1.5 0 
C 1.5 -0.397805 1.341951 -0.77937 1.06066 -1.06066 
C 0.77937 -1.341951 0.397805 -1.5 0 -1.5 
C -0.397805 -1.5 -0.77937 -1.341951 -1.06066 -1.06066 
C -1.341951 -0.77937 -1.5 -0.397805 -1.5 0 
C -1.5 0.397805 -1.341951 0.77937 -1.06066 1.06066 
C -0.77937 1.341951 -0.397805 1.5 0 1.5 
z
" id="m679822de1c" style="stroke:#000080;"/>
    </defs>
    <g>
     <use style="fill:#000080;stroke:#000080;" x="165.135103" xlink:href="#m679822de1c" y="30.334099"/>
     <use style="fill:#000080;stroke:#000080;" x="165.135103" xlink:href="#m679822de1c" y="30.334099"/>
    </g>
   </g>
   <g id="line2d_35">
    <path d="M 100.641881 298.944 
L 100.641881 298.417314 
L 115.460322 298.417314 
L 115.460322 297.363942 
L 121.84399 297.363942 
L 121.84399 295.783884 
L 123.985457 295.783884 
L 123.985457 295.257197 
L 124.519744 295.257197 
L 124.519744 294.730511 
L 125.541584 294.730511 
L 125.541584 294.203825 
L 127.54831 294.203825 
L 127.54831 293.677139 
L 132.036046 293.677139 
L 132.036046 293.150453 
L 143.553018 293.150453 
L 143.553018 292.623767 
L 144.318346 292.623767 
L 144.318346 292.097081 
L 145.643486 292.097081 
L 145.643486 291.570395 
L 145.843812 291.570395 
L 145.843812 291.043709 
L 146.707319 291.043709 
L 146.707319 290.517023 
L 147.368603 290.517023 
L 147.449528 288.936964 
L 147.70997 288.936964 
L 147.70997 287.883592 
L 148.005725 287.883592 
L 148.005725 287.356906 
L 148.826773 287.356906 
L 148.826773 286.83022 
L 149.286939 286.83022 
L 149.341352 285.776848 
L 149.503579 285.776848 
L 149.503579 285.250162 
L 149.646525 285.250162 
L 149.646525 284.723476 
L 150.463462 284.723476 
L 150.463462 284.19679 
L 150.581924 284.19679 
L 150.581924 283.670104 
L 150.833094 283.670104 
L 150.849711 282.616732 
L 151.421542 282.616732 
L 151.421542 281.563359 
L 152.375429 281.563359 
L 152.375429 281.036673 
L 152.526944 281.036673 
L 152.572143 279.456615 
L 152.811246 279.456615 
L 152.811246 278.929929 
L 153.163864 278.929929 
L 153.265382 277.876557 
L 153.40939 277.876557 
L 153.40939 277.349871 
L 153.566437 277.349871 
L 153.665645 275.769812 
L 153.862384 275.769812 
L 153.959927 274.189754 
L 154.084543 274.189754 
L 154.19457 273.136382 
L 154.221969 273.136382 
L 154.221969 272.609696 
L 154.358321 272.609696 
L 154.399019 271.556324 
L 154.601099 271.556324 
L 154.601099 271.029638 
L 154.77436 271.029638 
L 154.866947 269.976266 
L 154.985269 269.976266 
L 155.076745 268.396207 
L 155.219531 268.396207 
L 155.219531 267.342835 
L 155.335493 267.342835 
L 155.412374 264.709405 
L 155.577798 264.709405 
L 155.653621 263.656033 
L 155.741666 263.656033 
L 155.804285 262.60266 
L 155.891575 262.60266 
L 155.928852 261.549288 
L 156.003167 261.549288 
L 156.101764 258.915858 
L 156.150854 258.915858 
L 156.175347 257.862486 
L 156.272978 257.862486 
L 156.370066 255.755741 
L 156.502685 255.755741 
L 156.610446 253.648997 
L 156.634302 253.648997 
L 156.705677 252.068939 
L 156.835778 252.068939 
L 156.941506 251.015567 
L 156.953214 251.015567 
L 157.011638 248.908822 
L 157.185742 248.908822 
L 157.231877 246.275392 
L 157.346685 246.275392 
L 157.380981 245.22202 
L 157.460743 245.22202 
L 157.517493 242.588589 
L 157.58535 242.588589 
L 157.652944 238.375101 
L 157.720277 238.375101 
L 157.809652 236.268356 
L 157.86528 236.268356 
L 157.976006 233.634926 
L 157.998067 233.634926 
L 158.107956 232.054868 
L 158.129851 232.054868 
L 158.228039 227.841379 
L 158.336493 227.841379 
L 158.433528 222.574518 
L 158.508628 222.574518 
L 158.615355 214.674227 
L 158.647247 214.674227 
L 158.753132 211.514111 
L 158.774233 211.514111 
L 158.858379 210.460738 
L 158.994256 210.460738 
L 159.087709 207.300622 
L 159.108409 207.300622 
L 159.129083 203.613819 
L 159.232092 203.613819 
L 159.303838 199.927017 
L 159.476858 199.927017 
L 159.577838 192.553412 
L 159.668223 192.553412 
L 159.778062 184.653121 
L 159.797958 184.653121 
L 159.887213 182.546376 
L 159.976013 182.546376 
L 160.074152 176.226143 
L 160.113253 176.226143 
L 160.191194 172.012655 
L 160.307457 172.012655 
L 160.413354 165.165736 
L 160.451703 165.165736 
L 160.528149 161.478933 
L 160.566247 161.478933 
L 160.651664 156.212072 
L 160.689494 156.212072 
L 160.793103 152.52527 
L 160.914762 152.52527 
L 160.961329 148.311781 
L 161.035578 148.311781 
L 161.127947 142.518234 
L 161.183135 142.518234 
L 161.292989 138.831432 
L 161.311231 138.831432 
L 161.402155 129.877768 
L 161.492608 129.877768 
L 161.564634 126.190966 
L 161.618459 126.190966 
L 161.689969 119.870733 
L 161.8498 119.870733 
L 161.955547 110.917069 
L 161.981883 110.917069 
L 162.078112 101.43672 
L 162.139074 101.43672 
L 162.217141 95.643173 
L 162.260361 95.643173 
L 162.355069 91.429684 
L 162.372234 91.429684 
L 162.449267 86.68951 
L 162.483394 86.68951 
L 162.542958 83.002707 
L 162.610782 83.002707 
L 162.703612 75.102416 
L 162.728843 75.102416 
L 162.812686 71.942299 
L 162.854457 71.942299 
L 162.946002 65.622066 
L 162.979172 65.622066 
L 163.078306 60.355206 
L 163.111226 60.355206 
L 163.144084 58.248461 
L 163.242288 58.248461 
L 163.266752 57.195089 
L 163.453184 57.195089 
L 163.533623 53.508287 
L 163.565696 53.508287 
L 163.66156 48.768112 
L 163.701348 48.768112 
L 163.764822 45.081309 
L 163.835954 45.081309 
L 163.89108 43.501251 
L 164.01643 43.501251 
L 164.109855 39.287762 
L 164.164122 39.287762 
L 164.264459 37.707704 
L 164.287532 37.707704 
L 164.287532 36.654332 
L 164.463418 36.654332 
L 164.463418 36.127646 
L 164.697709 36.127646 
L 164.787563 34.020902 
L 164.980675 34.020902 
L 165.09112 30.860785 
L 165.135103 30.860785 
L 165.135103 30.334099 
L 338.688 30.334099 
L 338.688 30.334099 
" style="fill:none;stroke:#000080;stroke-linecap:square;stroke-width:1.5;"/>
   </g>
   <g id="line2d_36">
    <defs>
     <path d="M 0 6 
C 1.591219 6 3.117479 5.367802 4.242641 4.242641 
C 5.367802 3.117479 6 1.591219 6 0 
C 6 -1.591219 5.367802 -3.117479 4.242641 -4.242641 
C 3.117479 -5.367802 1.591219 -6 0 -6 
C -1.591219 -6 -3.117479 -5.367802 -4.242641 -4.242641 
C -5.367802 -3.117479 -6 -1.591219 -6 0 
C -6 1.591219 -5.367802 3.117479 -4.242641 4.242641 
C -3.117479 5.367802 -1.591219 6 0 6 
z
" id="m459c1d96e5" style="stroke:#000080;stroke-width:1.5;"/>
    </defs>
    <g>
     <use style="fill-opacity:0;stroke:#000080;stroke-width:1.5;" x="159.232092" xlink:href="#m459c1d96e5" y="203.613819"/>
     <use style="fill-opacity:0;stroke:#000080;stroke-width:1.5;" x="165.135103" xlink:href="#m459c1d96e5" y="30.860785"/>
     <use style="fill-opacity:0;stroke:#000080;stroke-width:1.5;" x="165.135103" xlink:href="#m459c1d96e5" y="30.334099"/>
     <use style="fill-opacity:0;stroke:#000080;stroke-width:1.5;" x="165.135103" xlink:href="#m459c1d96e5" y="30.334099"/>
     <use style="fill-opacity:0;stroke:#000080;stroke-width:1.5;" x="338.688" xlink:href="#m459c1d96e5" y="30.334099"/>
    </g>
   </g>
   <g id="line2d_37">
    <path style="fill:none;stroke:#000080;stroke-linecap:square;stroke-width:1.5;"/>
    <g/>
   </g>
   <g id="line2d_38">
    <defs>
     <path d="M 0 1.5 
C 0.397805 1.5 0.77937 1.341951 1.06066 1.06066 
C 1.341951 0.77937 1.5 0.397805 1.5 0 
C 1.5 -0.397805 1.341951 -0.77937 1.06066 -1.06066 
C 0.77937 -1.341951 0.397805 -1.5 0 -1.5 
C -0.397805 -1.5 -0.77937 -1.341951 -1.06066 -1.06066 
C -1.341951 -0.77937 -1.5 -0.397805 -1.5 0 
C -1.5 0.397805 -1.341951 0.77937 -1.06066 1.06066 
C -0.77937 1.341951 -0.397805 1.5 0 1.5 
z
" id="ma1dcad41c0" style="stroke:#ff00ff;"/>
    </defs>
    <g>
     <use style="fill:#ff00ff;stroke:#ff00ff;" x="316.456929" xlink:href="#ma1dcad41c0" y="98.803289"/>
     <use style="fill:#ff00ff;stroke:#ff00ff;" x="316.456929" xlink:href="#ma1dcad41c0" y="98.803289"/>
    </g>
   </g>
   <g id="line2d_39">
    <path d="M 95.125186 298.944 
L 95.125186 298.417314 
L 99.41757 298.417314 
L 99.41757 297.890628 
L 108.577836 297.890628 
L 108.577836 296.837256 
L 113.453595 296.837256 
L 113.453595 296.31057 
L 117.598418 296.31057 
L 117.598418 294.730511 
L 119.89914 294.730511 
L 119.89914 294.203825 
L 120.759333 294.203825 
L 120.759333 293.677139 
L 123.354102 293.677139 
L 123.354102 292.623767 
L 129.963666 292.623767 
L 129.963666 291.043709 
L 133.443203 291.043709 
L 133.443203 290.517023 
L 134.019394 290.517023 
L 134.019394 289.990337 
L 134.745246 289.990337 
L 134.745246 289.463651 
L 135.035562 289.463651 
L 135.035562 288.410278 
L 135.878591 288.410278 
L 135.878591 287.883592 
L 139.762215 287.883592 
L 139.762215 287.356906 
L 143.349938 287.356906 
L 143.349938 286.83022 
L 147.509976 286.83022 
L 147.509976 286.303534 
L 148.676918 286.303534 
L 148.676918 285.776848 
L 150.749772 285.776848 
L 150.749772 285.250162 
L 151.581536 285.250162 
L 151.581536 284.723476 
L 151.692666 284.723476 
L 151.692666 284.19679 
L 153.537988 284.19679 
L 153.537988 283.670104 
L 154.840544 283.670104 
L 154.840544 283.143418 
L 155.488919 283.143418 
L 155.488919 282.616732 
L 158.487203 282.616732 
L 158.497919 281.563359 
L 158.784773 281.563359 
L 158.858379 280.509987 
L 161.698887 280.509987 
L 161.698887 279.983301 
L 164.047627 279.983301 
L 164.047627 279.456615 
L 164.410075 279.456615 
L 164.471025 278.403243 
L 167.06015 278.403243 
L 167.164734 277.349871 
L 172.801084 277.349871 
L 172.801084 276.823185 
L 173.782417 276.823185 
L 173.782417 276.296499 
L 175.071303 276.296499 
L 175.071303 275.769812 
L 178.418467 275.769812 
L 178.418467 275.243126 
L 180.20076 275.243126 
L 180.20076 274.71644 
L 182.060685 274.71644 
L 182.060685 274.189754 
L 183.099814 274.189754 
L 183.099814 273.663068 
L 184.100245 273.663068 
L 184.100245 273.136382 
L 184.497912 273.136382 
L 184.497912 272.609696 
L 185.204608 272.609696 
L 185.204608 272.08301 
L 186.440654 272.08301 
L 186.440654 271.556324 
L 187.519975 271.556324 
L 187.519975 271.029638 
L 188.419259 271.029638 
L 188.496144 269.976266 
L 188.605122 269.976266 
L 188.605122 269.449579 
L 189.927844 269.449579 
L 189.927844 268.922893 
L 190.183896 268.922893 
L 190.183896 268.396207 
L 190.473953 268.396207 
L 190.473953 267.869521 
L 191.613899 267.869521 
L 191.613899 266.816149 
L 192.50954 266.816149 
L 192.50954 266.289463 
L 193.129177 266.289463 
L 193.129177 265.236091 
L 193.469907 265.236091 
L 193.469907 264.709405 
L 193.908475 264.709405 
L 193.908475 264.182719 
L 194.24411 264.182719 
L 194.24411 263.656033 
L 194.434795 263.656033 
L 194.506957 262.60266 
L 195.483215 262.60266 
L 195.483215 262.075974 
L 196.724046 262.075974 
L 196.724046 261.549288 
L 197.680852 261.549288 
L 197.680852 261.022602 
L 198.172226 261.022602 
L 198.172226 260.495916 
L 198.619035 260.495916 
L 198.619035 258.389172 
L 199.136145 258.389172 
L 199.136145 257.862486 
L 199.398814 257.862486 
L 199.398814 256.809114 
L 200.031757 256.809114 
L 200.031757 256.282427 
L 201.695787 256.282427 
L 201.695787 255.755741 
L 202.371704 255.755741 
L 202.371704 255.229055 
L 203.614255 255.229055 
L 203.699482 254.175683 
L 205.053179 254.175683 
L 205.053179 253.648997 
L 205.927424 253.648997 
L 205.927424 253.122311 
L 208.192737 253.122311 
L 208.192737 252.595625 
L 209.740501 252.595625 
L 209.740501 252.068939 
L 210.360134 252.068939 
L 210.360134 251.542253 
L 210.504063 251.542253 
L 210.504063 251.015567 
L 211.086574 251.015567 
L 211.086574 250.488881 
L 211.962652 250.488881 
L 211.962652 249.962195 
L 212.493324 249.962195 
L 212.586566 248.908822 
L 212.803955 248.908822 
L 212.803955 248.382136 
L 212.929604 248.382136 
L 212.929604 247.85545 
L 213.966805 247.85545 
L 213.966805 247.328764 
L 214.192813 247.328764 
L 214.192813 246.802078 
L 214.620797 246.802078 
L 214.620797 246.275392 
L 214.745979 246.275392 
L 214.745979 245.748706 
L 215.629553 245.748706 
L 215.629553 245.22202 
L 216.445427 245.22202 
L 216.445427 244.695334 
L 218.149716 244.695334 
L 218.149716 244.168648 
L 218.679197 244.168648 
L 218.679197 243.641962 
L 218.874478 243.641962 
L 218.889254 242.588589 
L 219.187466 242.588589 
L 219.187466 242.061903 
L 219.874658 242.061903 
L 219.8959 239.955159 
L 220.069307 239.955159 
L 220.069307 239.428473 
L 221.638854 239.428473 
L 221.638854 238.901787 
L 221.991657 238.901787 
L 222.041319 237.848415 
L 222.103129 237.848415 
L 222.103129 237.321729 
L 222.250752 237.321729 
L 222.250752 236.795043 
L 222.509874 236.795043 
L 222.60345 235.74167 
L 223.106692 235.74167 
L 223.106692 235.214984 
L 223.574791 235.214984 
L 223.574791 234.688298 
L 223.758315 234.688298 
L 223.758315 233.634926 
L 224.016899 233.634926 
L 224.109965 232.581554 
L 224.487083 232.581554 
L 224.487083 232.054868 
L 224.669976 232.054868 
L 224.729876 231.001496 
L 225.351696 231.001496 
L 225.461195 229.948123 
L 225.553984 229.948123 
L 225.553984 229.421437 
L 226.01446 229.421437 
L 226.01446 228.894751 
L 226.5453 228.894751 
L 226.548113 227.841379 
L 227.095931 227.841379 
L 227.182733 226.788007 
L 227.400648 226.788007 
L 227.414036 225.734635 
L 227.860614 225.734635 
L 227.960271 224.681263 
L 228.06452 224.681263 
L 228.06452 224.154577 
L 228.867904 224.154577 
L 228.94747 223.101204 
L 229.539204 223.101204 
L 229.539204 222.574518 
L 229.730988 222.574518 
L 229.730988 222.047832 
L 230.044361 222.047832 
L 230.058521 220.99446 
L 230.638796 220.99446 
L 230.638796 219.941088 
L 230.849551 219.941088 
L 230.849551 219.414402 
L 230.963474 219.414402 
L 230.963474 218.887716 
L 231.091171 218.887716 
L 231.091171 218.36103 
L 231.223899 218.36103 
L 231.298539 217.307658 
L 231.610785 217.307658 
L 231.656369 216.254285 
L 231.777827 216.254285 
L 231.848222 215.200913 
L 232.061347 215.200913 
L 232.115678 214.147541 
L 232.350418 214.147541 
L 232.350418 213.620855 
L 232.584948 213.620855 
L 232.584948 213.094169 
L 233.352554 213.094169 
L 233.352554 212.567483 
L 233.562496 212.567483 
L 233.562496 212.040797 
L 233.847564 212.040797 
L 233.874309 210.987425 
L 234.011797 210.987425 
L 234.011797 210.460738 
L 234.171144 210.460738 
L 234.171144 209.934052 
L 234.557722 209.934052 
L 234.557722 209.407366 
L 234.748993 209.407366 
L 234.748993 208.88068 
L 234.947548 208.88068 
L 234.947548 208.353994 
L 235.090521 208.353994 
L 235.090521 207.827308 
L 235.300711 207.827308 
L 235.300711 207.300622 
L 235.531164 207.300622 
L 235.531164 206.773936 
L 235.659957 206.773936 
L 235.702763 205.193878 
L 235.848081 205.193878 
L 235.897011 201.507075 
L 236.298568 201.507075 
L 236.298568 200.980389 
L 236.822067 200.980389 
L 236.88725 199.400331 
L 236.970055 199.400331 
L 237.067744 197.820273 
L 237.126946 197.820273 
L 237.126946 197.293586 
L 237.261145 197.293586 
L 237.360016 196.240214 
L 237.403379 196.240214 
L 237.470247 195.186842 
L 238.05766 195.186842 
L 238.080236 194.13347 
L 238.238894 194.13347 
L 238.250512 193.080098 
L 238.493035 193.080098 
L 238.493035 192.553412 
L 239.195763 192.553412 
L 239.240965 190.446667 
L 239.326756 190.446667 
L 239.326756 189.919981 
L 239.587364 189.919981 
L 239.587364 189.393295 
L 239.801685 189.393295 
L 239.834744 188.339923 
L 239.932741 188.339923 
L 240.032189 185.706493 
L 240.108318 185.706493 
L 240.14487 184.653121 
L 240.421767 184.653121 
L 240.432408 183.599748 
L 240.552333 183.599748 
L 240.552333 183.073062 
L 240.734286 183.073062 
L 240.734286 182.546376 
L 241.171258 182.546376 
L 241.174719 181.493004 
L 241.329757 181.493004 
L 241.329757 180.966318 
L 241.664154 180.966318 
L 241.766437 179.912946 
L 241.887258 179.912946 
L 241.887258 179.38626 
L 242.229201 179.38626 
L 242.229201 178.859574 
L 242.441409 178.859574 
L 242.442018 177.279515 
L 242.597874 177.279515 
L 242.628707 176.226143 
L 242.931367 176.226143 
L 242.967863 174.646085 
L 243.095333 174.646085 
L 243.153127 173.066027 
L 243.471757 173.066027 
L 243.471757 172.539341 
L 244.135608 172.539341 
L 244.196039 170.432596 
L 244.359653 170.432596 
L 244.433364 169.379224 
L 244.652414 169.379224 
L 244.686783 168.325852 
L 244.80438 168.325852 
L 244.825559 166.219108 
L 244.938533 166.219108 
L 244.938533 165.692422 
L 245.078318 165.692422 
L 245.161491 163.585677 
L 245.255227 163.585677 
L 245.312349 162.532305 
L 245.370535 162.532305 
L 245.443984 159.372189 
L 245.487642 159.372189 
L 245.487642 158.845503 
L 245.838541 158.845503 
L 245.927435 156.738758 
L 245.970257 156.738758 
L 245.970257 156.212072 
L 246.09767 156.212072 
L 246.189045 155.1587 
L 253.734445 155.1587 
L 253.734445 154.632014 
L 253.926604 154.632014 
L 253.926604 154.105328 
L 254.477918 154.105328 
L 254.477918 153.578642 
L 255.226372 153.578642 
L 255.287438 152.52527 
L 255.433355 152.52527 
L 255.486952 150.418525 
L 255.819951 150.418525 
L 255.819951 149.891839 
L 256.006747 149.891839 
L 256.090971 148.838467 
L 256.465048 148.838467 
L 256.539654 146.205037 
L 256.628985 146.205037 
L 256.628985 145.678351 
L 256.879527 145.678351 
L 256.879527 145.151665 
L 257.192681 145.151665 
L 257.192681 144.624978 
L 257.333591 144.624978 
L 257.333591 144.098292 
L 257.473921 144.098292 
L 257.481707 141.991548 
L 257.657169 141.991548 
L 257.660695 140.41149 
L 258.356203 140.41149 
L 258.356203 138.831432 
L 262.616822 138.831432 
L 262.616822 138.304745 
L 262.839942 138.304745 
L 262.839942 137.778059 
L 263.904219 137.778059 
L 263.904219 137.251373 
L 264.257653 137.251373 
L 264.257653 136.724687 
L 264.560105 136.724687 
L 264.560105 136.198001 
L 264.851242 136.198001 
L 264.919469 135.144629 
L 265.009476 135.144629 
L 265.009476 134.617943 
L 269.055278 134.617943 
L 269.055278 134.091257 
L 269.570576 134.091257 
L 269.570576 133.037885 
L 269.719822 133.037885 
L 269.719822 132.511199 
L 269.95116 132.511199 
L 270.022963 130.404454 
L 270.226011 130.404454 
L 270.226011 129.877768 
L 270.35725 129.877768 
L 270.35725 129.351082 
L 273.257305 129.351082 
L 273.257305 128.824396 
L 273.765472 128.824396 
L 273.765472 128.29771 
L 274.000899 128.29771 
L 274.094709 125.137593 
L 274.165561 125.137593 
L 274.270343 123.030849 
L 274.318465 123.030849 
L 274.348222 121.450791 
L 276.583196 121.450791 
L 276.583196 120.924105 
L 277.297302 120.924105 
L 277.297302 120.397419 
L 277.464305 120.397419 
L 277.464305 119.870733 
L 279.432805 119.870733 
L 279.432805 119.344047 
L 279.718886 119.344047 
L 279.718886 118.817361 
L 279.971103 118.817361 
L 279.973135 116.710616 
L 280.096123 116.710616 
L 280.096123 116.18393 
L 281.94811 116.18393 
L 281.94811 115.130558 
L 282.376748 115.130558 
L 282.376748 114.603872 
L 283.994595 114.603872 
L 284.07043 113.5505 
L 284.410459 113.5505 
L 284.410459 113.023814 
L 286.354868 113.023814 
L 286.354868 111.970441 
L 287.615619 111.970441 
L 287.615619 111.443755 
L 287.839373 111.443755 
L 287.945943 110.390383 
L 289.379226 110.390383 
L 289.476814 109.337011 
L 290.605383 109.337011 
L 290.605383 108.810325 
L 290.749634 108.810325 
L 290.749634 108.283639 
L 290.884079 108.283639 
L 290.911702 106.703581 
L 293.397842 106.703581 
L 293.397842 105.650209 
L 294.421735 105.650209 
L 294.530731 104.596836 
L 297.54515 104.596836 
L 297.54515 104.07015 
L 298.485009 104.07015 
L 298.485009 103.543464 
L 299.299403 103.543464 
L 299.299403 103.016778 
L 302.306905 103.016778 
L 302.306905 102.490092 
L 303.657753 102.490092 
L 303.657753 101.963406 
L 306.081024 101.963406 
L 306.081024 101.43672 
L 308.208285 101.43672 
L 308.208285 100.910034 
L 311.813777 100.910034 
L 311.813777 100.383348 
L 312.609637 100.383348 
L 312.609637 99.856662 
L 312.981916 99.856662 
L 312.981916 99.329976 
L 316.456929 99.329976 
L 316.456929 98.803289 
L 338.688 98.803289 
L 338.688 98.803289 
" style="fill:none;stroke:#ff00ff;stroke-linecap:square;stroke-width:1.5;"/>
   </g>
   <g id="line2d_40">
    <defs>
     <path d="M -0 8.485281 
L 5.091169 0 
L 0 -8.485281 
L -5.091169 -0 
z
" id="mb1b5d62c94" style="stroke:#ff00ff;stroke-linejoin:miter;stroke-width:1.5;"/>
    </defs>
    <g>
     <use style="fill-opacity:0;stroke:#ff00ff;stroke-linejoin:miter;stroke-width:1.5;" x="196.724046" xlink:href="#mb1b5d62c94" y="262.075974"/>
     <use style="fill-opacity:0;stroke:#ff00ff;stroke-linejoin:miter;stroke-width:1.5;" x="257.192681" xlink:href="#mb1b5d62c94" y="145.151665"/>
     <use style="fill-opacity:0;stroke:#ff00ff;stroke-linejoin:miter;stroke-width:1.5;" x="316.456929" xlink:href="#mb1b5d62c94" y="98.803289"/>
     <use style="fill-opacity:0;stroke:#ff00ff;stroke-linejoin:miter;stroke-width:1.5;" x="316.456929" xlink:href="#mb1b5d62c94" y="98.803289"/>
     <use style="fill-opacity:0;stroke:#ff00ff;stroke-linejoin:miter;stroke-width:1.5;" x="338.688" xlink:href="#mb1b5d62c94" y="98.803289"/>
    </g>
   </g>
   <g id="line2d_41">
    <path style="fill:none;stroke:#ff00ff;stroke-linecap:square;stroke-width:1.5;"/>
    <g/>
   </g>
   <g id="line2d_42">
    <path clip-path="url(#p394e4c3c23)" d="M 246.289154 155.1587 
" style="fill:none;stroke:#ff00ff;stroke-linecap:square;stroke-width:1.5;"/>
    <defs>
     <path d="M -12 12 
L 12 -12 
M -12 -12 
L 12 12 
" id="m8bced4d452" style="stroke:#ff00ff;"/>
    </defs>
    <g clip-path="url(#p394e4c3c23)">
     <use style="fill:#ff00ff;stroke:#ff00ff;" x="246.289154" xlink:href="#m8bced4d452" y="155.1587"/>
    </g>
   </g>
   <g id="line2d_43">
    <defs>
     <path d="M 0 1.5 
C 0.397805 1.5 0.77937 1.341951 1.06066 1.06066 
C 1.341951 0.77937 1.5 0.397805 1.5 0 
C 1.5 -0.397805 1.341951 -0.77937 1.06066 -1.06066 
C 0.77937 -1.341951 0.397805 -1.5 0 -1.5 
C -0.397805 -1.5 -0.77937 -1.341951 -1.06066 -1.06066 
C -1.341951 -0.77937 -1.5 -0.397805 -1.5 0 
C -1.5 0.397805 -1.341951 0.77937 -1.06066 1.06066 
C -0.77937 1.341951 -0.397805 1.5 0 1.5 
z
" id="m3563299e48" style="stroke:#ff7500;"/>
    </defs>
    <g>
     <use style="fill:#ff7500;stroke:#ff7500;" x="219.276338" xlink:href="#m3563299e48" y="30.334099"/>
     <use style="fill:#ff7500;stroke:#ff7500;" x="219.276338" xlink:href="#m3563299e48" y="30.334099"/>
    </g>
   </g>
   <g id="line2d_44">
    <path d="M 105.732589 298.944 
L 105.732589 298.417314 
L 131.236397 298.417314 
L 131.236397 297.363942 
L 135.240011 297.363942 
L 135.321124 295.783884 
L 137.945701 295.783884 
L 137.945701 294.730511 
L 143.803587 294.730511 
L 143.803587 294.203825 
L 144.818346 294.203825 
L 144.818346 293.677139 
L 146.431341 293.677139 
L 146.431341 291.570395 
L 146.895853 291.570395 
L 146.895853 291.043709 
L 149.141003 291.043709 
L 149.141003 290.517023 
L 151.692666 290.517023 
L 151.692666 289.990337 
L 152.692105 289.990337 
L 152.692105 289.463651 
L 154.001564 289.463651 
L 154.001564 288.936964 
L 155.322646 288.936964 
L 155.322646 288.410278 
L 156.634302 288.410278 
L 156.634302 287.883592 
L 157.277891 287.883592 
L 157.277891 287.356906 
L 158.422772 287.356906 
L 158.422772 286.83022 
L 159.004665 286.83022 
L 159.004665 286.303534 
L 159.51732 286.303534 
L 159.51732 285.776848 
L 161.183135 285.776848 
L 161.183135 284.723476 
L 161.893939 284.723476 
L 161.893939 284.19679 
L 163.2749 284.19679 
L 163.2749 283.670104 
L 163.589711 283.670104 
L 163.589711 283.143418 
L 164.965896 283.143418 
L 164.965896 282.616732 
L 165.7041 282.616732 
L 165.7041 281.036673 
L 166.213873 281.036673 
L 166.213873 280.509987 
L 166.615263 280.509987 
L 166.615263 279.983301 
L 167.747913 279.983301 
L 167.747913 279.456615 
L 167.973343 279.456615 
L 168.047843 277.876557 
L 169.122941 277.876557 
L 169.122941 277.349871 
L 169.53167 277.349871 
L 169.53167 276.296499 
L 170.135591 276.296499 
L 170.135591 275.243126 
L 171.655755 275.243126 
L 171.680924 273.663068 
L 171.876001 273.663068 
L 171.876001 273.136382 
L 172.171924 273.136382 
L 172.196359 271.556324 
L 172.988756 271.556324 
L 173.040014 270.502952 
L 173.968698 270.502952 
L 173.968698 269.976266 
L 175.096133 269.976266 
L 175.096133 269.449579 
L 175.379171 269.449579 
L 175.379171 268.922893 
L 175.975136 268.922893 
L 175.975136 268.396207 
L 176.186193 268.396207 
L 176.186193 267.869521 
L 176.853131 267.869521 
L 176.853131 267.342835 
L 177.149725 267.342835 
L 177.149725 266.816149 
L 177.361644 266.816149 
L 177.361644 266.289463 
L 177.527906 266.289463 
L 177.527906 265.762777 
L 177.689034 265.762777 
L 177.689034 265.236091 
L 178.031372 265.236091 
L 178.031372 264.182719 
L 178.232904 264.182719 
L 178.232904 263.656033 
L 179.25598 263.656033 
L 179.30478 262.60266 
L 179.418117 262.60266 
L 179.418117 262.075974 
L 179.715739 262.075974 
L 179.715739 261.549288 
L 180.439826 261.549288 
L 180.439826 261.022602 
L 181.029421 261.022602 
L 181.029421 260.495916 
L 181.39345 260.495916 
L 181.39345 259.96923 
L 181.568375 259.96923 
L 181.579784 258.915858 
L 181.901854 258.915858 
L 181.901854 258.389172 
L 182.461038 258.389172 
L 182.461038 257.862486 
L 182.847104 257.862486 
L 182.847104 257.3358 
L 183.635103 257.3358 
L 183.635103 256.282427 
L 183.773941 256.282427 
L 183.834181 254.175683 
L 184.298992 254.175683 
L 184.391457 253.122311 
L 184.874915 253.122311 
L 184.874915 252.595625 
L 185.530456 252.595625 
L 185.530456 251.542253 
L 185.787717 251.542253 
L 185.886005 250.488881 
L 186.016936 250.488881 
L 186.016936 249.962195 
L 186.432021 249.962195 
L 186.432021 249.435508 
L 187.270751 249.435508 
L 187.270751 247.85545 
L 187.540246 247.85545 
L 187.540246 246.802078 
L 187.681489 246.802078 
L 187.681489 246.275392 
L 187.877325 246.275392 
L 187.895201 245.22202 
L 188.184599 245.22202 
L 188.184599 244.695334 
L 188.540199 244.695334 
L 188.563141 243.115275 
L 188.79091 243.115275 
L 188.868054 241.008531 
L 189.039926 241.008531 
L 189.147416 239.428473 
L 189.169573 239.428473 
L 189.178797 238.375101 
L 189.285437 238.375101 
L 189.369552 236.795043 
L 189.471409 236.795043 
L 189.471409 236.268356 
L 189.77524 236.268356 
L 189.77524 235.74167 
L 189.926077 235.74167 
L 189.926077 235.214984 
L 190.413921 235.214984 
L 190.468815 232.581554 
L 190.596801 232.581554 
L 190.596801 231.528182 
L 190.85334 231.528182 
L 190.85334 231.001496 
L 190.985198 231.001496 
L 191.031694 229.948123 
L 191.24432 229.948123 
L 191.24432 229.421437 
L 191.418739 229.421437 
L 191.418739 228.894751 
L 191.637941 228.894751 
L 191.637941 228.368065 
L 192.032272 228.368065 
L 192.066688 227.314693 
L 192.48362 227.314693 
L 192.48362 226.788007 
L 192.831087 226.788007 
L 192.849027 224.154577 
L 192.94737 224.154577 
L 192.94737 223.627891 
L 193.378824 223.627891 
L 193.386071 222.574518 
L 193.533238 222.574518 
L 193.590614 221.521146 
L 193.966032 221.521146 
L 193.966032 220.99446 
L 194.192999 220.99446 
L 194.192999 220.467774 
L 194.384241 220.467774 
L 194.384241 219.941088 
L 194.562576 219.941088 
L 194.620718 218.887716 
L 194.811357 218.887716 
L 194.811357 218.36103 
L 195.010499 218.36103 
L 195.010499 217.834344 
L 195.484499 217.834344 
L 195.581861 216.254285 
L 195.840545 216.254285 
L 195.944705 214.674227 
L 196.952278 214.674227 
L 196.952278 214.147541 
L 197.119174 214.147541 
L 197.161233 213.094169 
L 197.346944 213.094169 
L 197.457429 211.514111 
L 197.619581 211.514111 
L 197.619581 210.987425 
L 197.734005 210.987425 
L 197.81287 208.353994 
L 197.920451 208.353994 
L 197.920451 207.827308 
L 198.271051 207.827308 
L 198.381292 206.773936 
L 198.387819 206.773936 
L 198.478942 205.720564 
L 198.567439 205.720564 
L 198.666197 203.087133 
L 198.849344 203.087133 
L 198.93177 201.507075 
L 199.023248 201.507075 
L 199.129892 200.453703 
L 199.187126 200.453703 
L 199.187126 199.927017 
L 199.319603 199.927017 
L 199.378275 198.346959 
L 199.652529 198.346959 
L 199.724203 197.293586 
L 199.809623 197.293586 
L 199.88365 194.660156 
L 199.921542 194.660156 
L 199.921542 194.13347 
L 200.25012 194.13347 
L 200.266729 192.553412 
L 200.712159 192.553412 
L 200.767284 191.50004 
L 200.925978 191.50004 
L 200.930679 189.393295 
L 201.076717 189.393295 
L 201.152993 186.759865 
L 201.287061 186.759865 
L 201.287061 186.233179 
L 201.57843 186.233179 
L 201.675982 184.126434 
L 201.754171 184.126434 
L 201.861446 182.546376 
L 201.880152 182.546376 
L 201.880152 182.01969 
L 202.030843 182.01969 
L 202.104824 179.912946 
L 202.206475 179.912946 
L 202.295372 175.699457 
L 202.343118 175.699457 
L 202.419242 173.592713 
L 202.553378 173.592713 
L 202.553378 173.066027 
L 202.807623 173.066027 
L 202.868296 170.432596 
L 202.921212 170.432596 
L 202.99653 169.379224 
L 203.127972 169.379224 
L 203.179281 167.799166 
L 203.242794 167.799166 
L 203.329851 166.219108 
L 203.410768 166.219108 
L 203.410768 165.692422 
L 203.612643 165.692422 
L 203.685841 163.585677 
L 203.776311 163.585677 
L 203.810614 161.478933 
L 203.890923 161.478933 
L 203.940039 160.425561 
L 204.249747 160.425561 
L 204.341211 157.79213 
L 204.475979 157.79213 
L 204.5097 156.212072 
L 204.589147 156.212072 
L 204.595243 154.632014 
L 204.704614 154.632014 
L 204.785441 152.52527 
L 204.865145 152.52527 
L 204.931785 150.418525 
L 205.032386 150.418525 
L 205.032386 149.891839 
L 205.260489 149.891839 
L 205.350463 146.731723 
L 205.487095 146.731723 
L 205.529032 144.624978 
L 205.604696 144.624978 
L 205.685045 143.571606 
L 205.782117 143.571606 
L 205.782117 143.04492 
L 205.89351 143.04492 
L 205.950703 141.464862 
L 206.10021 141.464862 
L 206.209596 139.358118 
L 206.443471 139.358118 
L 206.513913 137.778059 
L 206.62549 137.778059 
L 206.69993 135.144629 
L 206.887325 135.144629 
L 206.973958 132.511199 
L 207.085942 132.511199 
L 207.085942 131.984513 
L 207.236545 131.984513 
L 207.347512 129.877768 
L 207.364421 129.877768 
L 207.400137 127.244338 
L 207.597521 127.244338 
L 207.597521 126.717652 
L 207.778736 126.717652 
L 207.887578 125.137593 
L 208.231128 125.137593 
L 208.268817 124.084221 
L 208.399785 124.084221 
L 208.485335 121.977477 
L 208.562579 121.977477 
L 208.653374 119.344047 
L 208.736491 119.344047 
L 208.846699 116.710616 
L 208.86997 116.710616 
L 208.922958 113.5505 
L 209.039676 113.5505 
L 209.039676 113.023814 
L 209.202483 113.023814 
L 209.213594 109.863697 
L 209.315027 109.863697 
L 209.315027 108.810325 
L 209.441858 108.810325 
L 209.441858 108.283639 
L 209.555166 108.283639 
L 209.575793 106.703581 
L 209.777333 106.703581 
L 209.878362 104.596836 
L 209.927816 104.596836 
L 209.984962 102.490092 
L 210.061425 102.490092 
L 210.06588 100.910034 
L 210.216112 100.910034 
L 210.216112 100.383348 
L 210.372721 100.383348 
L 210.479614 99.329976 
L 210.55719 99.329976 
L 210.55719 98.276603 
L 210.7697 98.276603 
L 210.816693 97.223231 
L 210.88854 97.223231 
L 210.989686 96.169859 
L 211.118576 96.169859 
L 211.185016 93.536429 
L 211.250683 93.536429 
L 211.250683 93.009743 
L 211.39831 93.009743 
L 211.502705 89.849626 
L 211.529346 89.849626 
L 211.60393 86.162824 
L 211.689866 86.162824 
L 211.689866 85.636137 
L 211.971638 85.636137 
L 211.971638 85.109451 
L 212.209093 85.109451 
L 212.209093 84.582765 
L 212.374725 84.582765 
L 212.475876 82.476021 
L 212.534934 82.476021 
L 212.638045 80.895963 
L 212.671641 80.895963 
L 212.675956 79.842591 
L 212.844356 79.842591 
L 212.878505 78.789218 
L 213.028066 78.789218 
L 213.077323 77.20916 
L 213.172628 77.20916 
L 213.243766 75.102416 
L 213.355696 75.102416 
L 213.3999 72.995672 
L 213.55556 72.995672 
L 213.600624 70.888927 
L 213.708939 70.888927 
L 213.789173 69.308869 
L 213.833191 69.308869 
L 213.932494 66.148752 
L 214.175227 66.148752 
L 214.261667 65.09538 
L 214.321093 65.09538 
L 214.353343 64.042008 
L 214.438474 64.042008 
L 214.477426 61.935264 
L 214.720418 61.935264 
L 214.807598 60.355206 
L 214.976882 60.355206 
L 215.055685 58.248461 
L 215.114554 58.248461 
L 215.114554 57.195089 
L 215.233356 57.195089 
L 215.329547 55.615031 
L 215.389963 55.615031 
L 215.47795 52.454914 
L 215.526867 52.454914 
L 215.526867 51.928228 
L 215.643711 51.928228 
L 215.672396 50.874856 
L 215.822325 50.874856 
L 215.923689 49.294798 
L 215.934429 49.294798 
L 215.995166 46.661368 
L 216.077399 46.661368 
L 216.077399 45.607995 
L 216.431905 45.607995 
L 216.531718 44.027937 
L 216.608787 44.027937 
L 216.659215 41.921193 
L 216.787302 41.921193 
L 216.800929 40.867821 
L 217.007812 40.867821 
L 217.061575 38.761076 
L 217.520704 38.761076 
L 217.520704 38.23439 
L 217.690528 38.23439 
L 217.706701 36.127646 
L 217.85622 36.127646 
L 217.925536 34.547588 
L 218.277083 34.547588 
L 218.277083 34.020902 
L 218.478612 34.020902 
L 218.491667 32.967529 
L 218.679537 32.967529 
L 218.679537 32.440843 
L 218.950243 32.440843 
L 219.05696 31.387471 
L 219.276338 31.387471 
L 219.276338 30.334099 
L 338.688 30.334099 
L 338.688 30.334099 
" style="fill:none;stroke:#ff7500;stroke-linecap:square;stroke-width:1.5;"/>
   </g>
   <g id="line2d_45">
    <defs>
     <path d="M 0 -6 
L -1.347084 -1.854102 
L -5.706339 -1.854102 
L -2.179628 0.708204 
L -3.526712 4.854102 
L -0 2.291796 
L 3.526712 4.854102 
L 2.179628 0.708204 
L 5.706339 -1.854102 
L 1.347084 -1.854102 
z
" id="m36331e1b7f" style="stroke:#ff7500;stroke-linejoin:bevel;stroke-width:1.5;"/>
    </defs>
    <g>
     <use style="fill-opacity:0;stroke:#ff7500;stroke-linejoin:bevel;stroke-width:1.5;" x="176.853131" xlink:href="#m36331e1b7f" y="267.869521"/>
     <use style="fill-opacity:0;stroke:#ff7500;stroke-linejoin:bevel;stroke-width:1.5;" x="205.501567" xlink:href="#m36331e1b7f" y="145.151665"/>
     <use style="fill-opacity:0;stroke:#ff7500;stroke-linejoin:bevel;stroke-width:1.5;" x="219.276338" xlink:href="#m36331e1b7f" y="31.387471"/>
     <use style="fill-opacity:0;stroke:#ff7500;stroke-linejoin:bevel;stroke-width:1.5;" x="219.276338" xlink:href="#m36331e1b7f" y="30.334099"/>
     <use style="fill-opacity:0;stroke:#ff7500;stroke-linejoin:bevel;stroke-width:1.5;" x="338.688" xlink:href="#m36331e1b7f" y="30.334099"/>
    </g>
   </g>
   <g id="line2d_46">
    <path style="fill:none;stroke:#ff7500;stroke-linecap:square;stroke-width:1.5;"/>
    <g/>
   </g>
   <g id="line2d_47">
    <path d="M 338.688 98.803289 
L 369.60768 293.571802 
" style="fill:none;stroke:#ff00ff;stroke-linecap:square;stroke-width:1.5;"/>
    <g>
     <use style="fill-opacity:0;stroke:#ff00ff;stroke-linejoin:miter;stroke-width:1.5;" x="338.688" xlink:href="#mb1b5d62c94" y="98.803289"/>
     <use style="fill-opacity:0;stroke:#ff00ff;stroke-linejoin:miter;stroke-width:1.5;" x="369.60768" xlink:href="#mb1b5d62c94" y="293.571802"/>
    </g>
   </g>
   <g id="line2d_48">
    <path d="M 338.688 30.334099 
L 369.60768 207.616634 
" style="fill:none;stroke:#ff7500;stroke-linecap:square;stroke-width:1.5;"/>
    <g>
     <use style="fill-opacity:0;stroke:#ff7500;stroke-linejoin:bevel;stroke-width:1.5;" x="338.688" xlink:href="#m36331e1b7f" y="30.334099"/>
     <use style="fill-opacity:0;stroke:#ff7500;stroke-linejoin:bevel;stroke-width:1.5;" x="369.60768" xlink:href="#m36331e1b7f" y="207.616634"/>
    </g>
   </g>
   <g id="line2d_49">
    <path d="M 338.688 30.334099 
L 369.60768 121.661465 
" style="fill:none;stroke:#000080;stroke-linecap:square;stroke-width:1.5;"/>
    <g>
     <use style="fill-opacity:0;stroke:#000080;stroke-width:1.5;" x="338.688" xlink:href="#m459c1d96e5" y="30.334099"/>
     <use style="fill-opacity:0;stroke:#000080;stroke-width:1.5;" x="369.60768" xlink:href="#m459c1d96e5" y="121.661465"/>
    </g>
   </g>
   <g id="line2d_50">
    <path d="M 338.688 298.944 
L 338.688 30.334099 
" style="fill:none;stroke:#000000;stroke-linecap:square;stroke-width:1.5;"/>
   </g>
   <g id="patch_3">
    <path d="M 57.6 298.944 
L 57.6 27.648 
" style="fill:none;stroke:#000000;stroke-linecap:square;stroke-linejoin:miter;stroke-width:0.8;"/>
   </g>
   <g id="patch_4">
    <path d="M 338.688 298.944 
L 338.688 27.648 
" style="fill:none;stroke:#000000;stroke-linecap:square;stroke-linejoin:miter;stroke-width:0.8;"/>
   </g>
   <g id="patch_5">
    <path d="M 57.6 298.944 
L 338.688 298.944 
" style="fill:none;stroke:#000000;stroke-linecap:square;stroke-linejoin:miter;stroke-width:0.8;"/>
   </g>
   <g id="patch_6">
    <path d="M 57.6 27.648 
L 338.688 27.648 
" style="fill:none;stroke:#000000;stroke-linecap:square;stroke-linejoin:miter;stroke-width:0.8;"/>
   </g>
   <g id="text_13">
    <!-- PSO -->
    <g transform="translate(375.22944 298.262739)scale(0.17 -0.17)">
     <defs>
      <path d="M 19.671875 64.796875 
L 19.671875 37.40625 
L 32.078125 37.40625 
Q 38.96875 37.40625 42.71875 40.96875 
Q 46.484375 44.53125 46.484375 51.125 
Q 46.484375 57.671875 42.71875 61.234375 
Q 38.96875 64.796875 32.078125 64.796875 
z
M 9.8125 72.90625 
L 32.078125 72.90625 
Q 44.34375 72.90625 50.609375 67.359375 
Q 56.890625 61.8125 56.890625 51.125 
Q 56.890625 40.328125 50.609375 34.8125 
Q 44.34375 29.296875 32.078125 29.296875 
L 19.671875 29.296875 
L 19.671875 0 
L 9.8125 0 
z
" id="DejaVuSans-80"/>
      <path d="M 53.515625 70.515625 
L 53.515625 60.890625 
Q 47.90625 63.578125 42.921875 64.890625 
Q 37.9375 66.21875 33.296875 66.21875 
Q 25.25 66.21875 20.875 63.09375 
Q 16.5 59.96875 16.5 54.203125 
Q 16.5 49.359375 19.40625 46.890625 
Q 22.3125 44.4375 30.421875 42.921875 
L 36.375 41.703125 
Q 47.40625 39.59375 52.65625 34.296875 
Q 57.90625 29 57.90625 20.125 
Q 57.90625 9.515625 50.796875 4.046875 
Q 43.703125 -1.421875 29.984375 -1.421875 
Q 24.8125 -1.421875 18.96875 -0.25 
Q 13.140625 0.921875 6.890625 3.21875 
L 6.890625 13.375 
Q 12.890625 10.015625 18.65625 8.296875 
Q 24.421875 6.59375 29.984375 6.59375 
Q 38.421875 6.59375 43.015625 9.90625 
Q 47.609375 13.234375 47.609375 19.390625 
Q 47.609375 24.75 44.3125 27.78125 
Q 41.015625 30.8125 33.5 32.328125 
L 27.484375 33.5 
Q 16.453125 35.6875 11.515625 40.375 
Q 6.59375 45.0625 6.59375 53.421875 
Q 6.59375 63.09375 13.40625 68.65625 
Q 20.21875 74.21875 32.171875 74.21875 
Q 37.3125 74.21875 42.625 73.28125 
Q 47.953125 72.359375 53.515625 70.515625 
z
" id="DejaVuSans-83"/>
      <path d="M 39.40625 66.21875 
Q 28.65625 66.21875 22.328125 58.203125 
Q 16.015625 50.203125 16.015625 36.375 
Q 16.015625 22.609375 22.328125 14.59375 
Q 28.65625 6.59375 39.40625 6.59375 
Q 50.140625 6.59375 56.421875 14.59375 
Q 62.703125 22.609375 62.703125 36.375 
Q 62.703125 50.203125 56.421875 58.203125 
Q 50.140625 66.21875 39.40625 66.21875 
z
M 39.40625 74.21875 
Q 54.734375 74.21875 63.90625 63.9375 
Q 73.09375 53.65625 73.09375 36.375 
Q 73.09375 19.140625 63.90625 8.859375 
Q 54.734375 -1.421875 39.40625 -1.421875 
Q 24.03125 -1.421875 14.8125 8.828125 
Q 5.609375 19.09375 5.609375 36.375 
Q 5.609375 53.65625 14.8125 63.9375 
Q 24.03125 74.21875 39.40625 74.21875 
z
" id="DejaVuSans-79"/>
     </defs>
     <use xlink:href="#DejaVuSans-80"/>
     <use x="60.302734" xlink:href="#DejaVuSans-83"/>
     <use x="123.779297" xlink:href="#DejaVuSans-79"/>
    </g>
   </g>
   <g id="text_14">
    <!-- DE -->
    <g transform="translate(375.22944 212.307571)scale(0.17 -0.17)">
     <defs>
      <path d="M 19.671875 64.796875 
L 19.671875 8.109375 
L 31.59375 8.109375 
Q 46.6875 8.109375 53.6875 14.9375 
Q 60.6875 21.78125 60.6875 36.53125 
Q 60.6875 51.171875 53.6875 57.984375 
Q 46.6875 64.796875 31.59375 64.796875 
z
M 9.8125 72.90625 
L 30.078125 72.90625 
Q 51.265625 72.90625 61.171875 64.09375 
Q 71.09375 55.28125 71.09375 36.53125 
Q 71.09375 17.671875 61.125 8.828125 
Q 51.171875 0 30.078125 0 
L 9.8125 0 
z
" id="DejaVuSans-68"/>
      <path d="M 9.8125 72.90625 
L 55.90625 72.90625 
L 55.90625 64.59375 
L 19.671875 64.59375 
L 19.671875 43.015625 
L 54.390625 43.015625 
L 54.390625 34.71875 
L 19.671875 34.71875 
L 19.671875 8.296875 
L 56.78125 8.296875 
L 56.78125 0 
L 9.8125 0 
z
" id="DejaVuSans-69"/>
     </defs>
     <use xlink:href="#DejaVuSans-68"/>
     <use x="77.001953" xlink:href="#DejaVuSans-69"/>
    </g>
   </g>
   <g id="text_15">
    <!-- BIPOP-CMA -->
    <g transform="translate(375.22944 126.352403)scale(0.17 -0.17)">
     <defs>
      <path d="M 19.671875 34.8125 
L 19.671875 8.109375 
L 35.5 8.109375 
Q 43.453125 8.109375 47.28125 11.40625 
Q 51.125 14.703125 51.125 21.484375 
Q 51.125 28.328125 47.28125 31.5625 
Q 43.453125 34.8125 35.5 34.8125 
z
M 19.671875 64.796875 
L 19.671875 42.828125 
L 34.28125 42.828125 
Q 41.5 42.828125 45.03125 45.53125 
Q 48.578125 48.25 48.578125 53.8125 
Q 48.578125 59.328125 45.03125 62.0625 
Q 41.5 64.796875 34.28125 64.796875 
z
M 9.8125 72.90625 
L 35.015625 72.90625 
Q 46.296875 72.90625 52.390625 68.21875 
Q 58.5 63.53125 58.5 54.890625 
Q 58.5 48.1875 55.375 44.234375 
Q 52.25 40.28125 46.1875 39.3125 
Q 53.46875 37.75 57.5 32.78125 
Q 61.53125 27.828125 61.53125 20.40625 
Q 61.53125 10.640625 54.890625 5.3125 
Q 48.25 0 35.984375 0 
L 9.8125 0 
z
" id="DejaVuSans-66"/>
      <path d="M 9.8125 72.90625 
L 19.671875 72.90625 
L 19.671875 0 
L 9.8125 0 
z
" id="DejaVuSans-73"/>
      <path d="M 64.40625 67.28125 
L 64.40625 56.890625 
Q 59.421875 61.53125 53.78125 63.8125 
Q 48.140625 66.109375 41.796875 66.109375 
Q 29.296875 66.109375 22.65625 58.46875 
Q 16.015625 50.828125 16.015625 36.375 
Q 16.015625 21.96875 22.65625 14.328125 
Q 29.296875 6.6875 41.796875 6.6875 
Q 48.140625 6.6875 53.78125 8.984375 
Q 59.421875 11.28125 64.40625 15.921875 
L 64.40625 5.609375 
Q 59.234375 2.09375 53.4375 0.328125 
Q 47.65625 -1.421875 41.21875 -1.421875 
Q 24.65625 -1.421875 15.125 8.703125 
Q 5.609375 18.84375 5.609375 36.375 
Q 5.609375 53.953125 15.125 64.078125 
Q 24.65625 74.21875 41.21875 74.21875 
Q 47.75 74.21875 53.53125 72.484375 
Q 59.328125 70.75 64.40625 67.28125 
z
" id="DejaVuSans-67"/>
      <path d="M 9.8125 72.90625 
L 24.515625 72.90625 
L 43.109375 23.296875 
L 61.8125 72.90625 
L 76.515625 72.90625 
L 76.515625 0 
L 66.890625 0 
L 66.890625 64.015625 
L 48.09375 14.015625 
L 38.1875 14.015625 
L 19.390625 64.015625 
L 19.390625 0 
L 9.8125 0 
z
" id="DejaVuSans-77"/>
      <path d="M 34.1875 63.1875 
L 20.796875 26.90625 
L 47.609375 26.90625 
z
M 28.609375 72.90625 
L 39.796875 72.90625 
L 67.578125 0 
L 57.328125 0 
L 50.6875 18.703125 
L 17.828125 18.703125 
L 11.1875 0 
L 0.78125 0 
z
" id="DejaVuSans-65"/>
     </defs>
     <use xlink:href="#DejaVuSans-66"/>
     <use x="68.603516" xlink:href="#DejaVuSans-73"/>
     <use x="98.095703" xlink:href="#DejaVuSans-80"/>
     <use x="158.398438" xlink:href="#DejaVuSans-79"/>
     <use x="237.109375" xlink:href="#DejaVuSans-80"/>
     <use x="295.162109" xlink:href="#DejaVuSans-45"/>
     <use x="331.246094" xlink:href="#DejaVuSans-67"/>
     <use x="401.070312" xlink:href="#DejaVuSans-77"/>
     <use x="487.349609" xlink:href="#DejaVuSans-65"/>
    </g>
   </g>
   <g id="text_16">
    <!-- best 2009 -->
    <g transform="translate(375.22944 40.397235)scale(0.17 -0.17)">
     <defs>
      <path d="M 48.6875 27.296875 
Q 48.6875 37.203125 44.609375 42.84375 
Q 40.53125 48.484375 33.40625 48.484375 
Q 26.265625 48.484375 22.1875 42.84375 
Q 18.109375 37.203125 18.109375 27.296875 
Q 18.109375 17.390625 22.1875 11.75 
Q 26.265625 6.109375 33.40625 6.109375 
Q 40.53125 6.109375 44.609375 11.75 
Q 48.6875 17.390625 48.6875 27.296875 
z
M 18.109375 46.390625 
Q 20.953125 51.265625 25.265625 53.625 
Q 29.59375 56 35.59375 56 
Q 45.5625 56 51.78125 48.09375 
Q 58.015625 40.1875 58.015625 27.296875 
Q 58.015625 14.40625 51.78125 6.484375 
Q 45.5625 -1.421875 35.59375 -1.421875 
Q 29.59375 -1.421875 25.265625 0.953125 
Q 20.953125 3.328125 18.109375 8.203125 
L 18.109375 0 
L 9.078125 0 
L 9.078125 75.984375 
L 18.109375 75.984375 
z
" id="DejaVuSans-98"/>
      <path d="M 10.984375 1.515625 
L 10.984375 10.5 
Q 14.703125 8.734375 18.5 7.8125 
Q 22.3125 6.890625 25.984375 6.890625 
Q 35.75 6.890625 40.890625 13.453125 
Q 46.046875 20.015625 46.78125 33.40625 
Q 43.953125 29.203125 39.59375 26.953125 
Q 35.25 24.703125 29.984375 24.703125 
Q 19.046875 24.703125 12.671875 31.3125 
Q 6.296875 37.9375 6.296875 49.421875 
Q 6.296875 60.640625 12.9375 67.421875 
Q 19.578125 74.21875 30.609375 74.21875 
Q 43.265625 74.21875 49.921875 64.515625 
Q 56.59375 54.828125 56.59375 36.375 
Q 56.59375 19.140625 48.40625 8.859375 
Q 40.234375 -1.421875 26.421875 -1.421875 
Q 22.703125 -1.421875 18.890625 -0.6875 
Q 15.09375 0.046875 10.984375 1.515625 
z
M 30.609375 32.421875 
Q 37.25 32.421875 41.125 36.953125 
Q 45.015625 41.5 45.015625 49.421875 
Q 45.015625 57.28125 41.125 61.84375 
Q 37.25 66.40625 30.609375 66.40625 
Q 23.96875 66.40625 20.09375 61.84375 
Q 16.21875 57.28125 16.21875 49.421875 
Q 16.21875 41.5 20.09375 36.953125 
Q 23.96875 32.421875 30.609375 32.421875 
z
" id="DejaVuSans-57"/>
     </defs>
     <use xlink:href="#DejaVuSans-98"/>
     <use x="63.476562" xlink:href="#DejaVuSans-101"/>
     <use x="125" xlink:href="#DejaVuSans-115"/>
     <use x="177.099609" xlink:href="#DejaVuSans-116"/>
     <use x="216.308594" xlink:href="#DejaVuSans-32"/>
     <use x="248.095703" xlink:href="#DejaVuSans-50"/>
     <use x="311.71875" xlink:href="#DejaVuSans-48"/>
     <use x="375.341797" xlink:href="#DejaVuSans-48"/>
     <use x="438.964844" xlink:href="#DejaVuSans-57"/>
    </g>
   </g>
   <g id="text_17">
    <!-- bbob f11, 5-D -->
    <g transform="translate(60.41088 38.111366)scale(0.102 -0.102)">
     <defs>
      <path d="M 10.796875 72.90625 
L 49.515625 72.90625 
L 49.515625 64.59375 
L 19.828125 64.59375 
L 19.828125 46.734375 
Q 21.96875 47.46875 24.109375 47.828125 
Q 26.265625 48.1875 28.421875 48.1875 
Q 40.625 48.1875 47.75 41.5 
Q 54.890625 34.8125 54.890625 23.390625 
Q 54.890625 11.625 47.5625 5.09375 
Q 40.234375 -1.421875 26.90625 -1.421875 
Q 22.3125 -1.421875 17.546875 -0.640625 
Q 12.796875 0.140625 7.71875 1.703125 
L 7.71875 11.625 
Q 12.109375 9.234375 16.796875 8.0625 
Q 21.484375 6.890625 26.703125 6.890625 
Q 35.15625 6.890625 40.078125 11.328125 
Q 45.015625 15.765625 45.015625 23.390625 
Q 45.015625 31 40.078125 35.4375 
Q 35.15625 39.890625 26.703125 39.890625 
Q 22.75 39.890625 18.8125 39.015625 
Q 14.890625 38.140625 10.796875 36.28125 
z
" id="DejaVuSans-53"/>
     </defs>
     <use xlink:href="#DejaVuSans-98"/>
     <use x="63.476562" xlink:href="#DejaVuSans-98"/>
     <use x="126.953125" xlink:href="#DejaVuSans-111"/>
     <use x="188.134766" xlink:href="#DejaVuSans-98"/>
     <use x="251.611328" xlink:href="#DejaVuSans-32"/>
     <use x="283.398438" xlink:href="#DejaVuSans-102"/>
     <use x="318.603516" xlink:href="#DejaVuSans-49"/>
     <use x="382.226562" xlink:href="#DejaVuSans-49"/>
     <use x="445.849609" xlink:href="#DejaVuSans-44"/>
     <use x="477.636719" xlink:href="#DejaVuSans-32"/>
     <use x="509.423828" xlink:href="#DejaVuSans-53"/>
     <use x="573.046875" xlink:href="#DejaVuSans-45"/>
     <use x="609.130859" xlink:href="#DejaVuSans-68"/>
    </g>
    <!-- 51 targets: 100..1e-08 -->
    <g transform="translate(60.41088 49.533135)scale(0.102 -0.102)">
     <defs>
      <path d="M 11.71875 12.40625 
L 22.015625 12.40625 
L 22.015625 0 
L 11.71875 0 
z
M 11.71875 51.703125 
L 22.015625 51.703125 
L 22.015625 39.3125 
L 11.71875 39.3125 
z
" id="DejaVuSans-58"/>
     </defs>
     <use xlink:href="#DejaVuSans-53"/>
     <use x="63.623047" xlink:href="#DejaVuSans-49"/>
     <use x="127.246094" xlink:href="#DejaVuSans-32"/>
     <use x="159.033203" xlink:href="#DejaVuSans-116"/>
     <use x="198.242188" xlink:href="#DejaVuSans-97"/>
     <use x="259.521484" xlink:href="#DejaVuSans-114"/>
     <use x="298.884766" xlink:href="#DejaVuSans-103"/>
     <use x="362.361328" xlink:href="#DejaVuSans-101"/>
     <use x="423.884766" xlink:href="#DejaVuSans-116"/>
     <use x="463.09375" xlink:href="#DejaVuSans-115"/>
     <use x="515.193359" xlink:href="#DejaVuSans-58"/>
     <use x="548.884766" xlink:href="#DejaVuSans-32"/>
     <use x="580.671875" xlink:href="#DejaVuSans-49"/>
     <use x="644.294922" xlink:href="#DejaVuSans-48"/>
     <use x="707.917969" xlink:href="#DejaVuSans-48"/>
     <use x="771.541016" xlink:href="#DejaVuSans-46"/>
     <use x="803.328125" xlink:href="#DejaVuSans-46"/>
     <use x="835.115234" xlink:href="#DejaVuSans-49"/>
     <use x="898.738281" xlink:href="#DejaVuSans-101"/>
     <use x="960.261719" xlink:href="#DejaVuSans-45"/>
     <use x="996.345703" xlink:href="#DejaVuSans-48"/>
     <use x="1059.96875" xlink:href="#DejaVuSans-56"/>
    </g>
    <!-- 15 instances -->
    <g transform="translate(60.41088 60.954904)scale(0.102 -0.102)">
     <use xlink:href="#DejaVuSans-49"/>
     <use x="63.623047" xlink:href="#DejaVuSans-53"/>
     <use x="127.246094" xlink:href="#DejaVuSans-32"/>
     <use x="159.033203" xlink:href="#DejaVuSans-105"/>
     <use x="186.816406" xlink:href="#DejaVuSans-110"/>
     <use x="250.195312" xlink:href="#DejaVuSans-115"/>
     <use x="302.294922" xlink:href="#DejaVuSans-116"/>
     <use x="341.503906" xlink:href="#DejaVuSans-97"/>
     <use x="402.783203" xlink:href="#DejaVuSans-110"/>
     <use x="466.162109" xlink:href="#DejaVuSans-99"/>
     <use x="521.142578" xlink:href="#DejaVuSans-101"/>
     <use x="582.666016" xlink:href="#DejaVuSans-115"/>
    </g>
   </g>
   <g id="text_18">
    <!-- v2.4 -->
    <g style="fill:#808080;" transform="translate(187.233062 294.151352)scale(0.1 -0.1)">
     <use xlink:href="#DejaVuSans-118"/>
     <use x="59.179688" xlink:href="#DejaVuSans-50"/>
     <use x="122.802734" xlink:href="#DejaVuSans-46"/>
     <use x="154.589844" xlink:href="#DejaVuSans-52"/>
    </g>
   </g>
   <g id="text_19">
    <!-- 11 Discus -->
    <g transform="translate(149.508062 21.648)scale(0.2 -0.2)">
     <use xlink:href="#DejaVuSans-49"/>
     <use x="63.623047" xlink:href="#DejaVuSans-49"/>
     <use x="127.246094" xlink:href="#DejaVuSans-32"/>
     <use x="159.033203" xlink:href="#DejaVuSans-68"/>
     <use x="236.035156" xlink:href="#DejaVuSans-105"/>
     <use x="263.818359" xlink:href="#DejaVuSans-115"/>
     <use x="315.917969" xlink:href="#DejaVuSans-99"/>
     <use x="370.898438" xlink:href="#DejaVuSans-117"/>
     <use x="434.277344" xlink:href="#DejaVuSans-115"/>
    </g>
   </g>
  </g>
 </g>
 <defs>
  <clipPath id="p394e4c3c23">
   <rect height="271.296" width="281.088" x="57.6" y="27.648"/>
  </clipPath>
 </defs>
</svg>
