<?xml version="1.0" encoding="utf-8" standalone="no"?>
<!DOCTYPE svg PUBLIC "-//W3C//DTD SVG 1.1//EN"
  "http://www.w3.org/Graphics/SVG/1.1/DTD/svg11.dtd">
<!-- Created with matplotlib (https://matplotlib.org/) -->
<svg height="345.6pt" version="1.1" viewBox="0 0 460.8 345.6" width="460.8pt" xmlns="http://www.w3.org/2000/svg" xmlns:xlink="http://www.w3.org/1999/xlink">
 <metadata>
  <rdf:RDF xmlns:cc="http://creativecommons.org/ns#" xmlns:dc="http://purl.org/dc/elements/1.1/" xmlns:rdf="http://www.w3.org/1999/02/22-rdf-syntax-ns#">
   <cc:Work>
    <dc:type rdf:resource="http://purl.org/dc/dcmitype/StillImage"/>
    <dc:date>2021-05-01T17:07:49.866539</dc:date>
    <dc:format>image/svg+xml</dc:format>
    <dc:creator>
     <cc:Agent>
      <dc:title>Matplotlib v3.3.2, https://matplotlib.org/</dc:title>
     </cc:Agent>
    </dc:creator>
   </cc:Work>
  </rdf:RDF>
 </metadata>
 <defs>
  <style type="text/css">*{stroke-linecap:butt;stroke-linejoin:round;}</style>
 </defs>
 <g id="figure_1">
  <g id="patch_1">
   <path d="M 0 345.6 
L 460.8 345.6 
L 460.8 0 
L 0 0 
z
" style="fill:#ffffff;"/>
  </g>
  <g id="axes_1">
   <g id="patch_2">
    <path d="M 57.6 298.944 
L 338.688 298.944 
L 338.688 27.648 
L 57.6 27.648 
z
" style="fill:#ffffff;"/>
   </g>
   <g id="line2d_1">
    <path d="M -1 293.677139 
L 81.775977 293.677139 
L 81.775977 288.410278 
L 93.026719 288.410278 
L 93.026719 283.143418 
L 96.86091 283.143418 
L 96.86091 277.876557 
L 109.491096 277.876557 
L 109.491096 272.609696 
L 114.485807 272.609696 
L 114.485807 267.342835 
L 129.78395 267.342835 
L 129.78395 262.075974 
L 132.470242 262.075974 
L 132.470242 256.809114 
L 136.813232 256.809114 
L 136.813232 251.542253 
L 154.185999 251.542253 
L 154.185999 246.275392 
L 166.948338 246.275392 
L 166.948338 241.008531 
L 194.132716 241.008531 
L 194.132716 235.74167 
L 194.149194 235.74167 
L 194.149194 230.47481 
L 194.15266 230.47481 
L 194.15266 225.207949 
L 194.155953 225.207949 
L 194.155953 219.941088 
L 194.168946 219.941088 
L 194.168946 214.674227 
L 194.175351 214.674227 
L 194.175351 209.407366 
L 194.18608 209.407366 
L 194.18608 204.140506 
L 194.194382 204.140506 
L 194.194382 198.873645 
L 194.204581 198.873645 
L 194.204581 193.606784 
L 194.219437 193.606784 
L 194.219437 188.339923 
L 194.226169 188.339923 
L 194.226169 183.073062 
L 194.236694 183.073062 
L 194.236694 177.806202 
L 194.258243 177.806202 
L 194.258243 172.539341 
L 194.265305 172.539341 
L 194.265305 167.27248 
L 194.273569 167.27248 
L 194.273569 162.005619 
L 194.294212 162.005619 
L 194.294212 156.738758 
L 194.300229 156.738758 
L 194.300229 151.471897 
L 194.309679 151.471897 
L 194.309679 146.205037 
L 194.323244 146.205037 
L 194.323244 140.938176 
L 194.333367 140.938176 
L 194.333367 135.671315 
L 194.344343 135.671315 
L 194.344343 130.404454 
L 194.350684 130.404454 
L 194.350684 125.137593 
L 194.365758 125.137593 
L 194.365758 119.870733 
L 194.372948 119.870733 
L 194.372948 114.603872 
L 194.377055 114.603872 
L 194.377055 109.337011 
L 194.390739 109.337011 
L 194.390739 104.07015 
L 194.397064 104.07015 
L 194.397064 98.803289 
L 194.400824 98.803289 
L 194.400824 93.536429 
L 194.409878 93.536429 
L 194.409878 88.269568 
L 194.418586 88.269568 
L 194.418586 83.002707 
L 194.423536 83.002707 
L 194.423536 77.735846 
L 194.43326 77.735846 
L 194.43326 72.468985 
L 194.441616 72.468985 
L 194.441616 67.202125 
L 194.453375 67.202125 
L 194.453375 61.935264 
L 194.460869 61.935264 
L 194.460869 56.668403 
L 194.46785 56.668403 
L 194.46785 51.401542 
L 194.487584 51.401542 
L 194.487584 46.134681 
L 194.492854 46.134681 
L 194.492854 40.867821 
L 194.498123 40.867821 
L 194.498123 35.60096 
L 194.520878 35.60096 
L 194.520878 30.334099 
L 338.688 30.334099 
" style="fill:none;stroke:#f5deb3;stroke-linecap:square;stroke-width:4;"/>
   </g>
   <g id="line2d_2">
    <defs>
     <path d="M -0 7.778175 
L 7.778175 0 
L 0 -7.778175 
L -7.778175 -0 
z
" id="m97796b5a2e" style="stroke:#f5deb3;stroke-linejoin:miter;stroke-width:1.5;"/>
    </defs>
    <g>
     <use style="fill:#f5deb3;stroke:#f5deb3;stroke-linejoin:miter;stroke-width:1.5;" x="96.86091" xlink:href="#m97796b5a2e" y="283.143418"/>
     <use style="fill:#f5deb3;stroke:#f5deb3;stroke-linejoin:miter;stroke-width:1.5;" x="194.168946" xlink:href="#m97796b5a2e" y="219.941088"/>
     <use style="fill:#f5deb3;stroke:#f5deb3;stroke-linejoin:miter;stroke-width:1.5;" x="194.423536" xlink:href="#m97796b5a2e" y="83.002707"/>
     <use style="fill:#f5deb3;stroke:#f5deb3;stroke-linejoin:miter;stroke-width:1.5;" x="194.520878" xlink:href="#m97796b5a2e" y="30.334099"/>
     <use style="fill:#f5deb3;stroke:#f5deb3;stroke-linejoin:miter;stroke-width:1.5;" x="194.520878" xlink:href="#m97796b5a2e" y="30.334099"/>
     <use style="fill:#f5deb3;stroke:#f5deb3;stroke-linejoin:miter;stroke-width:1.5;" x="338.688" xlink:href="#m97796b5a2e" y="30.334099"/>
    </g>
   </g>
   <g id="line2d_3">
    <path style="fill:none;stroke:#f5deb3;stroke-linecap:square;stroke-width:4;"/>
    <g/>
   </g>
   <g id="line2d_4">
    <path d="M 338.688 30.334099 
L 369.60768 35.706297 
" style="fill:none;stroke:#f5deb3;stroke-linecap:square;stroke-width:4;"/>
    <g>
     <use style="fill:#f5deb3;stroke:#f5deb3;stroke-linejoin:miter;stroke-width:1.5;" x="338.688" xlink:href="#m97796b5a2e" y="30.334099"/>
     <use style="fill:#f5deb3;stroke:#f5deb3;stroke-linejoin:miter;stroke-width:1.5;" x="369.60768" xlink:href="#m97796b5a2e" y="35.706297"/>
    </g>
   </g>
   <g id="matplotlib.axis_1">
    <g id="xtick_1">
     <g id="line2d_5">
      <path clip-path="url(#pd595922872)" d="M 57.6 298.944 
L 57.6 27.648 
" style="fill:none;stroke:#b0b0b0;stroke-linecap:square;stroke-width:0.8;"/>
     </g>
     <g id="line2d_6">
      <defs>
       <path d="M 0 0 
L 0 3.5 
" id="m2351f8914d" style="stroke:#000000;stroke-width:0.8;"/>
      </defs>
      <g>
       <use style="stroke:#000000;stroke-width:0.8;" x="57.6" xlink:href="#m2351f8914d" y="298.944"/>
      </g>
     </g>
     <g id="text_1">
      <!-- 0 -->
      <g transform="translate(51.2375 321.140875)scale(0.2 -0.2)">
       <defs>
        <path d="M 31.78125 66.40625 
Q 24.171875 66.40625 20.328125 58.90625 
Q 16.5 51.421875 16.5 36.375 
Q 16.5 21.390625 20.328125 13.890625 
Q 24.171875 6.390625 31.78125 6.390625 
Q 39.453125 6.390625 43.28125 13.890625 
Q 47.125 21.390625 47.125 36.375 
Q 47.125 51.421875 43.28125 58.90625 
Q 39.453125 66.40625 31.78125 66.40625 
z
M 31.78125 74.21875 
Q 44.046875 74.21875 50.515625 64.515625 
Q 56.984375 54.828125 56.984375 36.375 
Q 56.984375 17.96875 50.515625 8.265625 
Q 44.046875 -1.421875 31.78125 -1.421875 
Q 19.53125 -1.421875 13.0625 8.265625 
Q 6.59375 17.96875 6.59375 36.375 
Q 6.59375 54.828125 13.0625 64.515625 
Q 19.53125 74.21875 31.78125 74.21875 
z
" id="DejaVuSans-48"/>
       </defs>
       <use xlink:href="#DejaVuSans-48"/>
      </g>
     </g>
    </g>
    <g id="xtick_2">
     <g id="line2d_7">
      <path clip-path="url(#pd595922872)" d="M 137.910857 298.944 
L 137.910857 27.648 
" style="fill:none;stroke:#b0b0b0;stroke-linecap:square;stroke-width:0.8;"/>
     </g>
     <g id="line2d_8">
      <g>
       <use style="stroke:#000000;stroke-width:0.8;" x="137.910857" xlink:href="#m2351f8914d" y="298.944"/>
      </g>
     </g>
     <g id="text_2">
      <!-- 2 -->
      <g transform="translate(131.548357 321.140875)scale(0.2 -0.2)">
       <defs>
        <path d="M 19.1875 8.296875 
L 53.609375 8.296875 
L 53.609375 0 
L 7.328125 0 
L 7.328125 8.296875 
Q 12.9375 14.109375 22.625 23.890625 
Q 32.328125 33.6875 34.8125 36.53125 
Q 39.546875 41.84375 41.421875 45.53125 
Q 43.3125 49.21875 43.3125 52.78125 
Q 43.3125 58.59375 39.234375 62.25 
Q 35.15625 65.921875 28.609375 65.921875 
Q 23.96875 65.921875 18.8125 64.3125 
Q 13.671875 62.703125 7.8125 59.421875 
L 7.8125 69.390625 
Q 13.765625 71.78125 18.9375 73 
Q 24.125 74.21875 28.421875 74.21875 
Q 39.75 74.21875 46.484375 68.546875 
Q 53.21875 62.890625 53.21875 53.421875 
Q 53.21875 48.921875 51.53125 44.890625 
Q 49.859375 40.875 45.40625 35.40625 
Q 44.1875 33.984375 37.640625 27.21875 
Q 31.109375 20.453125 19.1875 8.296875 
z
" id="DejaVuSans-50"/>
       </defs>
       <use xlink:href="#DejaVuSans-50"/>
      </g>
     </g>
    </g>
    <g id="xtick_3">
     <g id="line2d_9">
      <path clip-path="url(#pd595922872)" d="M 218.221714 298.944 
L 218.221714 27.648 
" style="fill:none;stroke:#b0b0b0;stroke-linecap:square;stroke-width:0.8;"/>
     </g>
     <g id="line2d_10">
      <g>
       <use style="stroke:#000000;stroke-width:0.8;" x="218.221714" xlink:href="#m2351f8914d" y="298.944"/>
      </g>
     </g>
     <g id="text_3">
      <!-- 4 -->
      <g transform="translate(211.859214 321.140875)scale(0.2 -0.2)">
       <defs>
        <path d="M 37.796875 64.3125 
L 12.890625 25.390625 
L 37.796875 25.390625 
z
M 35.203125 72.90625 
L 47.609375 72.90625 
L 47.609375 25.390625 
L 58.015625 25.390625 
L 58.015625 17.1875 
L 47.609375 17.1875 
L 47.609375 0 
L 37.796875 0 
L 37.796875 17.1875 
L 4.890625 17.1875 
L 4.890625 26.703125 
z
" id="DejaVuSans-52"/>
       </defs>
       <use xlink:href="#DejaVuSans-52"/>
      </g>
     </g>
    </g>
    <g id="xtick_4">
     <g id="line2d_11">
      <path clip-path="url(#pd595922872)" d="M 298.532571 298.944 
L 298.532571 27.648 
" style="fill:none;stroke:#b0b0b0;stroke-linecap:square;stroke-width:0.8;"/>
     </g>
     <g id="line2d_12">
      <g>
       <use style="stroke:#000000;stroke-width:0.8;" x="298.532571" xlink:href="#m2351f8914d" y="298.944"/>
      </g>
     </g>
     <g id="text_4">
      <!-- 6 -->
      <g transform="translate(292.170071 321.140875)scale(0.2 -0.2)">
       <defs>
        <path d="M 33.015625 40.375 
Q 26.375 40.375 22.484375 35.828125 
Q 18.609375 31.296875 18.609375 23.390625 
Q 18.609375 15.53125 22.484375 10.953125 
Q 26.375 6.390625 33.015625 6.390625 
Q 39.65625 6.390625 43.53125 10.953125 
Q 47.40625 15.53125 47.40625 23.390625 
Q 47.40625 31.296875 43.53125 35.828125 
Q 39.65625 40.375 33.015625 40.375 
z
M 52.59375 71.296875 
L 52.59375 62.3125 
Q 48.875 64.0625 45.09375 64.984375 
Q 41.3125 65.921875 37.59375 65.921875 
Q 27.828125 65.921875 22.671875 59.328125 
Q 17.53125 52.734375 16.796875 39.40625 
Q 19.671875 43.65625 24.015625 45.921875 
Q 28.375 48.1875 33.59375 48.1875 
Q 44.578125 48.1875 50.953125 41.515625 
Q 57.328125 34.859375 57.328125 23.390625 
Q 57.328125 12.15625 50.6875 5.359375 
Q 44.046875 -1.421875 33.015625 -1.421875 
Q 20.359375 -1.421875 13.671875 8.265625 
Q 6.984375 17.96875 6.984375 36.375 
Q 6.984375 53.65625 15.1875 63.9375 
Q 23.390625 74.21875 37.203125 74.21875 
Q 40.921875 74.21875 44.703125 73.484375 
Q 48.484375 72.75 52.59375 71.296875 
z
" id="DejaVuSans-54"/>
       </defs>
       <use xlink:href="#DejaVuSans-54"/>
      </g>
     </g>
    </g>
    <g id="xtick_5">
     <g id="line2d_13">
      <path clip-path="url(#pd595922872)" d="M 97.755429 298.944 
L 97.755429 27.648 
" style="fill:none;stroke:#b0b0b0;stroke-linecap:square;stroke-width:0.8;"/>
     </g>
     <g id="line2d_14">
      <defs>
       <path d="M 0 0 
L 0 2 
" id="md1b7a2dfad" style="stroke:#000000;stroke-width:0.6;"/>
      </defs>
      <g>
       <use style="stroke:#000000;stroke-width:0.6;" x="97.755429" xlink:href="#md1b7a2dfad" y="298.944"/>
      </g>
     </g>
    </g>
    <g id="xtick_6">
     <g id="line2d_15">
      <path clip-path="url(#pd595922872)" d="M 178.066286 298.944 
L 178.066286 27.648 
" style="fill:none;stroke:#b0b0b0;stroke-linecap:square;stroke-width:0.8;"/>
     </g>
     <g id="line2d_16">
      <g>
       <use style="stroke:#000000;stroke-width:0.6;" x="178.066286" xlink:href="#md1b7a2dfad" y="298.944"/>
      </g>
     </g>
    </g>
    <g id="xtick_7">
     <g id="line2d_17">
      <path clip-path="url(#pd595922872)" d="M 258.377143 298.944 
L 258.377143 27.648 
" style="fill:none;stroke:#b0b0b0;stroke-linecap:square;stroke-width:0.8;"/>
     </g>
     <g id="line2d_18">
      <g>
       <use style="stroke:#000000;stroke-width:0.6;" x="258.377143" xlink:href="#md1b7a2dfad" y="298.944"/>
      </g>
     </g>
    </g>
    <g id="xtick_8">
     <g id="line2d_19">
      <path clip-path="url(#pd595922872)" d="M 338.688 298.944 
L 338.688 27.648 
" style="fill:none;stroke:#b0b0b0;stroke-linecap:square;stroke-width:0.8;"/>
     </g>
     <g id="line2d_20">
      <g>
       <use style="stroke:#000000;stroke-width:0.6;" x="338.688" xlink:href="#md1b7a2dfad" y="298.944"/>
      </g>
     </g>
    </g>
    <g id="text_5">
     <!-- log10(# f-evals / dimension) -->
     <g transform="translate(77.764078 342.217594)scale(0.17 -0.17)">
      <defs>
       <path d="M 9.421875 75.984375 
L 18.40625 75.984375 
L 18.40625 0 
L 9.421875 0 
z
" id="DejaVuSans-108"/>
       <path d="M 30.609375 48.390625 
Q 23.390625 48.390625 19.1875 42.75 
Q 14.984375 37.109375 14.984375 27.296875 
Q 14.984375 17.484375 19.15625 11.84375 
Q 23.34375 6.203125 30.609375 6.203125 
Q 37.796875 6.203125 41.984375 11.859375 
Q 46.1875 17.53125 46.1875 27.296875 
Q 46.1875 37.015625 41.984375 42.703125 
Q 37.796875 48.390625 30.609375 48.390625 
z
M 30.609375 56 
Q 42.328125 56 49.015625 48.375 
Q 55.71875 40.765625 55.71875 27.296875 
Q 55.71875 13.875 49.015625 6.21875 
Q 42.328125 -1.421875 30.609375 -1.421875 
Q 18.84375 -1.421875 12.171875 6.21875 
Q 5.515625 13.875 5.515625 27.296875 
Q 5.515625 40.765625 12.171875 48.375 
Q 18.84375 56 30.609375 56 
z
" id="DejaVuSans-111"/>
       <path d="M 45.40625 27.984375 
Q 45.40625 37.75 41.375 43.109375 
Q 37.359375 48.484375 30.078125 48.484375 
Q 22.859375 48.484375 18.828125 43.109375 
Q 14.796875 37.75 14.796875 27.984375 
Q 14.796875 18.265625 18.828125 12.890625 
Q 22.859375 7.515625 30.078125 7.515625 
Q 37.359375 7.515625 41.375 12.890625 
Q 45.40625 18.265625 45.40625 27.984375 
z
M 54.390625 6.78125 
Q 54.390625 -7.171875 48.1875 -13.984375 
Q 42 -20.796875 29.203125 -20.796875 
Q 24.46875 -20.796875 20.265625 -20.09375 
Q 16.0625 -19.390625 12.109375 -17.921875 
L 12.109375 -9.1875 
Q 16.0625 -11.328125 19.921875 -12.34375 
Q 23.78125 -13.375 27.78125 -13.375 
Q 36.625 -13.375 41.015625 -8.765625 
Q 45.40625 -4.15625 45.40625 5.171875 
L 45.40625 9.625 
Q 42.625 4.78125 38.28125 2.390625 
Q 33.9375 0 27.875 0 
Q 17.828125 0 11.671875 7.65625 
Q 5.515625 15.328125 5.515625 27.984375 
Q 5.515625 40.671875 11.671875 48.328125 
Q 17.828125 56 27.875 56 
Q 33.9375 56 38.28125 53.609375 
Q 42.625 51.21875 45.40625 46.390625 
L 45.40625 54.6875 
L 54.390625 54.6875 
z
" id="DejaVuSans-103"/>
       <path d="M 12.40625 8.296875 
L 28.515625 8.296875 
L 28.515625 63.921875 
L 10.984375 60.40625 
L 10.984375 69.390625 
L 28.421875 72.90625 
L 38.28125 72.90625 
L 38.28125 8.296875 
L 54.390625 8.296875 
L 54.390625 0 
L 12.40625 0 
z
" id="DejaVuSans-49"/>
       <path d="M 31 75.875 
Q 24.46875 64.65625 21.28125 53.65625 
Q 18.109375 42.671875 18.109375 31.390625 
Q 18.109375 20.125 21.3125 9.0625 
Q 24.515625 -2 31 -13.1875 
L 23.1875 -13.1875 
Q 15.875 -1.703125 12.234375 9.375 
Q 8.59375 20.453125 8.59375 31.390625 
Q 8.59375 42.28125 12.203125 53.3125 
Q 15.828125 64.359375 23.1875 75.875 
z
" id="DejaVuSans-40"/>
       <path d="M 51.125 44 
L 36.921875 44 
L 32.8125 27.6875 
L 47.125 27.6875 
z
M 43.796875 71.78125 
L 38.71875 51.515625 
L 52.984375 51.515625 
L 58.109375 71.78125 
L 65.921875 71.78125 
L 60.890625 51.515625 
L 76.125 51.515625 
L 76.125 44 
L 58.984375 44 
L 54.984375 27.6875 
L 70.515625 27.6875 
L 70.515625 20.21875 
L 53.078125 20.21875 
L 48 0 
L 40.1875 0 
L 45.21875 20.21875 
L 30.90625 20.21875 
L 25.875 0 
L 18.015625 0 
L 23.09375 20.21875 
L 7.71875 20.21875 
L 7.71875 27.6875 
L 24.90625 27.6875 
L 29 44 
L 13.28125 44 
L 13.28125 51.515625 
L 30.90625 51.515625 
L 35.890625 71.78125 
z
" id="DejaVuSans-35"/>
       <path id="DejaVuSans-32"/>
       <path d="M 37.109375 75.984375 
L 37.109375 68.5 
L 28.515625 68.5 
Q 23.6875 68.5 21.796875 66.546875 
Q 19.921875 64.59375 19.921875 59.515625 
L 19.921875 54.6875 
L 34.71875 54.6875 
L 34.71875 47.703125 
L 19.921875 47.703125 
L 19.921875 0 
L 10.890625 0 
L 10.890625 47.703125 
L 2.296875 47.703125 
L 2.296875 54.6875 
L 10.890625 54.6875 
L 10.890625 58.5 
Q 10.890625 67.625 15.140625 71.796875 
Q 19.390625 75.984375 28.609375 75.984375 
z
" id="DejaVuSans-102"/>
       <path d="M 4.890625 31.390625 
L 31.203125 31.390625 
L 31.203125 23.390625 
L 4.890625 23.390625 
z
" id="DejaVuSans-45"/>
       <path d="M 56.203125 29.59375 
L 56.203125 25.203125 
L 14.890625 25.203125 
Q 15.484375 15.921875 20.484375 11.0625 
Q 25.484375 6.203125 34.421875 6.203125 
Q 39.59375 6.203125 44.453125 7.46875 
Q 49.3125 8.734375 54.109375 11.28125 
L 54.109375 2.78125 
Q 49.265625 0.734375 44.1875 -0.34375 
Q 39.109375 -1.421875 33.890625 -1.421875 
Q 20.796875 -1.421875 13.15625 6.1875 
Q 5.515625 13.8125 5.515625 26.8125 
Q 5.515625 40.234375 12.765625 48.109375 
Q 20.015625 56 32.328125 56 
Q 43.359375 56 49.78125 48.890625 
Q 56.203125 41.796875 56.203125 29.59375 
z
M 47.21875 32.234375 
Q 47.125 39.59375 43.09375 43.984375 
Q 39.0625 48.390625 32.421875 48.390625 
Q 24.90625 48.390625 20.390625 44.140625 
Q 15.875 39.890625 15.1875 32.171875 
z
" id="DejaVuSans-101"/>
       <path d="M 2.984375 54.6875 
L 12.5 54.6875 
L 29.59375 8.796875 
L 46.6875 54.6875 
L 56.203125 54.6875 
L 35.6875 0 
L 23.484375 0 
z
" id="DejaVuSans-118"/>
       <path d="M 34.28125 27.484375 
Q 23.390625 27.484375 19.1875 25 
Q 14.984375 22.515625 14.984375 16.5 
Q 14.984375 11.71875 18.140625 8.90625 
Q 21.296875 6.109375 26.703125 6.109375 
Q 34.1875 6.109375 38.703125 11.40625 
Q 43.21875 16.703125 43.21875 25.484375 
L 43.21875 27.484375 
z
M 52.203125 31.203125 
L 52.203125 0 
L 43.21875 0 
L 43.21875 8.296875 
Q 40.140625 3.328125 35.546875 0.953125 
Q 30.953125 -1.421875 24.3125 -1.421875 
Q 15.921875 -1.421875 10.953125 3.296875 
Q 6 8.015625 6 15.921875 
Q 6 25.140625 12.171875 29.828125 
Q 18.359375 34.515625 30.609375 34.515625 
L 43.21875 34.515625 
L 43.21875 35.40625 
Q 43.21875 41.609375 39.140625 45 
Q 35.0625 48.390625 27.6875 48.390625 
Q 23 48.390625 18.546875 47.265625 
Q 14.109375 46.140625 10.015625 43.890625 
L 10.015625 52.203125 
Q 14.9375 54.109375 19.578125 55.046875 
Q 24.21875 56 28.609375 56 
Q 40.484375 56 46.34375 49.84375 
Q 52.203125 43.703125 52.203125 31.203125 
z
" id="DejaVuSans-97"/>
       <path d="M 44.28125 53.078125 
L 44.28125 44.578125 
Q 40.484375 46.53125 36.375 47.5 
Q 32.28125 48.484375 27.875 48.484375 
Q 21.1875 48.484375 17.84375 46.4375 
Q 14.5 44.390625 14.5 40.28125 
Q 14.5 37.15625 16.890625 35.375 
Q 19.28125 33.59375 26.515625 31.984375 
L 29.59375 31.296875 
Q 39.15625 29.25 43.1875 25.515625 
Q 47.21875 21.78125 47.21875 15.09375 
Q 47.21875 7.46875 41.1875 3.015625 
Q 35.15625 -1.421875 24.609375 -1.421875 
Q 20.21875 -1.421875 15.453125 -0.5625 
Q 10.6875 0.296875 5.421875 2 
L 5.421875 11.28125 
Q 10.40625 8.6875 15.234375 7.390625 
Q 20.0625 6.109375 24.8125 6.109375 
Q 31.15625 6.109375 34.5625 8.28125 
Q 37.984375 10.453125 37.984375 14.40625 
Q 37.984375 18.0625 35.515625 20.015625 
Q 33.0625 21.96875 24.703125 23.78125 
L 21.578125 24.515625 
Q 13.234375 26.265625 9.515625 29.90625 
Q 5.8125 33.546875 5.8125 39.890625 
Q 5.8125 47.609375 11.28125 51.796875 
Q 16.75 56 26.8125 56 
Q 31.78125 56 36.171875 55.265625 
Q 40.578125 54.546875 44.28125 53.078125 
z
" id="DejaVuSans-115"/>
       <path d="M 25.390625 72.90625 
L 33.6875 72.90625 
L 8.296875 -9.28125 
L 0 -9.28125 
z
" id="DejaVuSans-47"/>
       <path d="M 45.40625 46.390625 
L 45.40625 75.984375 
L 54.390625 75.984375 
L 54.390625 0 
L 45.40625 0 
L 45.40625 8.203125 
Q 42.578125 3.328125 38.25 0.953125 
Q 33.9375 -1.421875 27.875 -1.421875 
Q 17.96875 -1.421875 11.734375 6.484375 
Q 5.515625 14.40625 5.515625 27.296875 
Q 5.515625 40.1875 11.734375 48.09375 
Q 17.96875 56 27.875 56 
Q 33.9375 56 38.25 53.625 
Q 42.578125 51.265625 45.40625 46.390625 
z
M 14.796875 27.296875 
Q 14.796875 17.390625 18.875 11.75 
Q 22.953125 6.109375 30.078125 6.109375 
Q 37.203125 6.109375 41.296875 11.75 
Q 45.40625 17.390625 45.40625 27.296875 
Q 45.40625 37.203125 41.296875 42.84375 
Q 37.203125 48.484375 30.078125 48.484375 
Q 22.953125 48.484375 18.875 42.84375 
Q 14.796875 37.203125 14.796875 27.296875 
z
" id="DejaVuSans-100"/>
       <path d="M 9.421875 54.6875 
L 18.40625 54.6875 
L 18.40625 0 
L 9.421875 0 
z
M 9.421875 75.984375 
L 18.40625 75.984375 
L 18.40625 64.59375 
L 9.421875 64.59375 
z
" id="DejaVuSans-105"/>
       <path d="M 52 44.1875 
Q 55.375 50.25 60.0625 53.125 
Q 64.75 56 71.09375 56 
Q 79.640625 56 84.28125 50.015625 
Q 88.921875 44.046875 88.921875 33.015625 
L 88.921875 0 
L 79.890625 0 
L 79.890625 32.71875 
Q 79.890625 40.578125 77.09375 44.375 
Q 74.3125 48.1875 68.609375 48.1875 
Q 61.625 48.1875 57.5625 43.546875 
Q 53.515625 38.921875 53.515625 30.90625 
L 53.515625 0 
L 44.484375 0 
L 44.484375 32.71875 
Q 44.484375 40.625 41.703125 44.40625 
Q 38.921875 48.1875 33.109375 48.1875 
Q 26.21875 48.1875 22.15625 43.53125 
Q 18.109375 38.875 18.109375 30.90625 
L 18.109375 0 
L 9.078125 0 
L 9.078125 54.6875 
L 18.109375 54.6875 
L 18.109375 46.1875 
Q 21.1875 51.21875 25.484375 53.609375 
Q 29.78125 56 35.6875 56 
Q 41.65625 56 45.828125 52.96875 
Q 50 49.953125 52 44.1875 
z
" id="DejaVuSans-109"/>
       <path d="M 54.890625 33.015625 
L 54.890625 0 
L 45.90625 0 
L 45.90625 32.71875 
Q 45.90625 40.484375 42.875 44.328125 
Q 39.84375 48.1875 33.796875 48.1875 
Q 26.515625 48.1875 22.3125 43.546875 
Q 18.109375 38.921875 18.109375 30.90625 
L 18.109375 0 
L 9.078125 0 
L 9.078125 54.6875 
L 18.109375 54.6875 
L 18.109375 46.1875 
Q 21.34375 51.125 25.703125 53.5625 
Q 30.078125 56 35.796875 56 
Q 45.21875 56 50.046875 50.171875 
Q 54.890625 44.34375 54.890625 33.015625 
z
" id="DejaVuSans-110"/>
       <path d="M 8.015625 75.875 
L 15.828125 75.875 
Q 23.140625 64.359375 26.78125 53.3125 
Q 30.421875 42.28125 30.421875 31.390625 
Q 30.421875 20.453125 26.78125 9.375 
Q 23.140625 -1.703125 15.828125 -13.1875 
L 8.015625 -13.1875 
Q 14.5 -2 17.703125 9.0625 
Q 20.90625 20.125 20.90625 31.390625 
Q 20.90625 42.671875 17.703125 53.65625 
Q 14.5 64.65625 8.015625 75.875 
z
" id="DejaVuSans-41"/>
      </defs>
      <use xlink:href="#DejaVuSans-108"/>
      <use x="27.783203" xlink:href="#DejaVuSans-111"/>
      <use x="88.964844" xlink:href="#DejaVuSans-103"/>
      <use x="152.441406" xlink:href="#DejaVuSans-49"/>
      <use x="216.064453" xlink:href="#DejaVuSans-48"/>
      <use x="279.6875" xlink:href="#DejaVuSans-40"/>
      <use x="318.701172" xlink:href="#DejaVuSans-35"/>
      <use x="402.490234" xlink:href="#DejaVuSans-32"/>
      <use x="434.277344" xlink:href="#DejaVuSans-102"/>
      <use x="463.982422" xlink:href="#DejaVuSans-45"/>
      <use x="500.066406" xlink:href="#DejaVuSans-101"/>
      <use x="561.589844" xlink:href="#DejaVuSans-118"/>
      <use x="620.769531" xlink:href="#DejaVuSans-97"/>
      <use x="682.048828" xlink:href="#DejaVuSans-108"/>
      <use x="709.832031" xlink:href="#DejaVuSans-115"/>
      <use x="761.931641" xlink:href="#DejaVuSans-32"/>
      <use x="793.71875" xlink:href="#DejaVuSans-47"/>
      <use x="827.410156" xlink:href="#DejaVuSans-32"/>
      <use x="859.197266" xlink:href="#DejaVuSans-100"/>
      <use x="922.673828" xlink:href="#DejaVuSans-105"/>
      <use x="950.457031" xlink:href="#DejaVuSans-109"/>
      <use x="1047.869141" xlink:href="#DejaVuSans-101"/>
      <use x="1109.392578" xlink:href="#DejaVuSans-110"/>
      <use x="1172.771484" xlink:href="#DejaVuSans-115"/>
      <use x="1224.871094" xlink:href="#DejaVuSans-105"/>
      <use x="1252.654297" xlink:href="#DejaVuSans-111"/>
      <use x="1313.835938" xlink:href="#DejaVuSans-110"/>
      <use x="1377.214844" xlink:href="#DejaVuSans-41"/>
     </g>
    </g>
   </g>
   <g id="matplotlib.axis_2">
    <g id="ytick_1">
     <g id="line2d_21">
      <path clip-path="url(#pd595922872)" d="M 57.6 298.944 
L 338.688 298.944 
" style="fill:none;stroke:#b0b0b0;stroke-linecap:square;stroke-width:0.8;"/>
     </g>
     <g id="line2d_22">
      <defs>
       <path d="M 0 0 
L -3.5 0 
" id="mf2ba515b0b" style="stroke:#000000;stroke-width:0.8;"/>
      </defs>
      <g>
       <use style="stroke:#000000;stroke-width:0.8;" x="57.6" xlink:href="#mf2ba515b0b" y="298.944"/>
      </g>
     </g>
     <g id="text_6">
      <!-- 0.0 -->
      <g transform="translate(25.155 305.02275)scale(0.16 -0.16)">
       <defs>
        <path d="M 10.6875 12.40625 
L 21 12.40625 
L 21 0 
L 10.6875 0 
z
" id="DejaVuSans-46"/>
       </defs>
       <use xlink:href="#DejaVuSans-48"/>
       <use x="63.623047" xlink:href="#DejaVuSans-46"/>
       <use x="95.410156" xlink:href="#DejaVuSans-48"/>
      </g>
     </g>
    </g>
    <g id="ytick_2">
     <g id="line2d_23">
      <path clip-path="url(#pd595922872)" d="M 57.6 245.22202 
L 338.688 245.22202 
" style="fill:none;stroke:#b0b0b0;stroke-linecap:square;stroke-width:0.8;"/>
     </g>
     <g id="line2d_24">
      <g>
       <use style="stroke:#000000;stroke-width:0.8;" x="57.6" xlink:href="#mf2ba515b0b" y="245.22202"/>
      </g>
     </g>
     <g id="text_7">
      <!-- 0.2 -->
      <g transform="translate(25.155 251.30077)scale(0.16 -0.16)">
       <use xlink:href="#DejaVuSans-48"/>
       <use x="63.623047" xlink:href="#DejaVuSans-46"/>
       <use x="95.410156" xlink:href="#DejaVuSans-50"/>
      </g>
     </g>
    </g>
    <g id="ytick_3">
     <g id="line2d_25">
      <path clip-path="url(#pd595922872)" d="M 57.6 191.50004 
L 338.688 191.50004 
" style="fill:none;stroke:#b0b0b0;stroke-linecap:square;stroke-width:0.8;"/>
     </g>
     <g id="line2d_26">
      <g>
       <use style="stroke:#000000;stroke-width:0.8;" x="57.6" xlink:href="#mf2ba515b0b" y="191.50004"/>
      </g>
     </g>
     <g id="text_8">
      <!-- 0.4 -->
      <g transform="translate(25.155 197.57879)scale(0.16 -0.16)">
       <use xlink:href="#DejaVuSans-48"/>
       <use x="63.623047" xlink:href="#DejaVuSans-46"/>
       <use x="95.410156" xlink:href="#DejaVuSans-52"/>
      </g>
     </g>
    </g>
    <g id="ytick_4">
     <g id="line2d_27">
      <path clip-path="url(#pd595922872)" d="M 57.6 137.778059 
L 338.688 137.778059 
" style="fill:none;stroke:#b0b0b0;stroke-linecap:square;stroke-width:0.8;"/>
     </g>
     <g id="line2d_28">
      <g>
       <use style="stroke:#000000;stroke-width:0.8;" x="57.6" xlink:href="#mf2ba515b0b" y="137.778059"/>
      </g>
     </g>
     <g id="text_9">
      <!-- 0.6 -->
      <g transform="translate(25.155 143.856809)scale(0.16 -0.16)">
       <use xlink:href="#DejaVuSans-48"/>
       <use x="63.623047" xlink:href="#DejaVuSans-46"/>
       <use x="95.410156" xlink:href="#DejaVuSans-54"/>
      </g>
     </g>
    </g>
    <g id="ytick_5">
     <g id="line2d_29">
      <path clip-path="url(#pd595922872)" d="M 57.6 84.056079 
L 338.688 84.056079 
" style="fill:none;stroke:#b0b0b0;stroke-linecap:square;stroke-width:0.8;"/>
     </g>
     <g id="line2d_30">
      <g>
       <use style="stroke:#000000;stroke-width:0.8;" x="57.6" xlink:href="#mf2ba515b0b" y="84.056079"/>
      </g>
     </g>
     <g id="text_10">
      <!-- 0.8 -->
      <g transform="translate(25.155 90.134829)scale(0.16 -0.16)">
       <defs>
        <path d="M 31.78125 34.625 
Q 24.75 34.625 20.71875 30.859375 
Q 16.703125 27.09375 16.703125 20.515625 
Q 16.703125 13.921875 20.71875 10.15625 
Q 24.75 6.390625 31.78125 6.390625 
Q 38.8125 6.390625 42.859375 10.171875 
Q 46.921875 13.96875 46.921875 20.515625 
Q 46.921875 27.09375 42.890625 30.859375 
Q 38.875 34.625 31.78125 34.625 
z
M 21.921875 38.8125 
Q 15.578125 40.375 12.03125 44.71875 
Q 8.5 49.078125 8.5 55.328125 
Q 8.5 64.0625 14.71875 69.140625 
Q 20.953125 74.21875 31.78125 74.21875 
Q 42.671875 74.21875 48.875 69.140625 
Q 55.078125 64.0625 55.078125 55.328125 
Q 55.078125 49.078125 51.53125 44.71875 
Q 48 40.375 41.703125 38.8125 
Q 48.828125 37.15625 52.796875 32.3125 
Q 56.78125 27.484375 56.78125 20.515625 
Q 56.78125 9.90625 50.3125 4.234375 
Q 43.84375 -1.421875 31.78125 -1.421875 
Q 19.734375 -1.421875 13.25 4.234375 
Q 6.78125 9.90625 6.78125 20.515625 
Q 6.78125 27.484375 10.78125 32.3125 
Q 14.796875 37.15625 21.921875 38.8125 
z
M 18.3125 54.390625 
Q 18.3125 48.734375 21.84375 45.5625 
Q 25.390625 42.390625 31.78125 42.390625 
Q 38.140625 42.390625 41.71875 45.5625 
Q 45.3125 48.734375 45.3125 54.390625 
Q 45.3125 60.0625 41.71875 63.234375 
Q 38.140625 66.40625 31.78125 66.40625 
Q 25.390625 66.40625 21.84375 63.234375 
Q 18.3125 60.0625 18.3125 54.390625 
z
" id="DejaVuSans-56"/>
       </defs>
       <use xlink:href="#DejaVuSans-48"/>
       <use x="63.623047" xlink:href="#DejaVuSans-46"/>
       <use x="95.410156" xlink:href="#DejaVuSans-56"/>
      </g>
     </g>
    </g>
    <g id="ytick_6">
     <g id="line2d_31">
      <path clip-path="url(#pd595922872)" d="M 57.6 30.334099 
L 338.688 30.334099 
" style="fill:none;stroke:#b0b0b0;stroke-linecap:square;stroke-width:0.8;"/>
     </g>
     <g id="line2d_32">
      <g>
       <use style="stroke:#000000;stroke-width:0.8;" x="57.6" xlink:href="#mf2ba515b0b" y="30.334099"/>
      </g>
     </g>
     <g id="text_11">
      <!-- 1.0 -->
      <g transform="translate(25.155 36.412849)scale(0.16 -0.16)">
       <use xlink:href="#DejaVuSans-49"/>
       <use x="63.623047" xlink:href="#DejaVuSans-46"/>
       <use x="95.410156" xlink:href="#DejaVuSans-48"/>
      </g>
     </g>
    </g>
    <g id="text_12">
     <!-- Fraction of function,target pairs -->
     <g transform="translate(17.619531 297.681)rotate(-90)scale(0.17 -0.17)">
      <defs>
       <path d="M 9.8125 72.90625 
L 51.703125 72.90625 
L 51.703125 64.59375 
L 19.671875 64.59375 
L 19.671875 43.109375 
L 48.578125 43.109375 
L 48.578125 34.8125 
L 19.671875 34.8125 
L 19.671875 0 
L 9.8125 0 
z
" id="DejaVuSans-70"/>
       <path d="M 41.109375 46.296875 
Q 39.59375 47.171875 37.8125 47.578125 
Q 36.03125 48 33.890625 48 
Q 26.265625 48 22.1875 43.046875 
Q 18.109375 38.09375 18.109375 28.8125 
L 18.109375 0 
L 9.078125 0 
L 9.078125 54.6875 
L 18.109375 54.6875 
L 18.109375 46.1875 
Q 20.953125 51.171875 25.484375 53.578125 
Q 30.03125 56 36.53125 56 
Q 37.453125 56 38.578125 55.875 
Q 39.703125 55.765625 41.0625 55.515625 
z
" id="DejaVuSans-114"/>
       <path d="M 48.78125 52.59375 
L 48.78125 44.1875 
Q 44.96875 46.296875 41.140625 47.34375 
Q 37.3125 48.390625 33.40625 48.390625 
Q 24.65625 48.390625 19.8125 42.84375 
Q 14.984375 37.3125 14.984375 27.296875 
Q 14.984375 17.28125 19.8125 11.734375 
Q 24.65625 6.203125 33.40625 6.203125 
Q 37.3125 6.203125 41.140625 7.25 
Q 44.96875 8.296875 48.78125 10.40625 
L 48.78125 2.09375 
Q 45.015625 0.34375 40.984375 -0.53125 
Q 36.96875 -1.421875 32.421875 -1.421875 
Q 20.0625 -1.421875 12.78125 6.34375 
Q 5.515625 14.109375 5.515625 27.296875 
Q 5.515625 40.671875 12.859375 48.328125 
Q 20.21875 56 33.015625 56 
Q 37.15625 56 41.109375 55.140625 
Q 45.0625 54.296875 48.78125 52.59375 
z
" id="DejaVuSans-99"/>
       <path d="M 18.3125 70.21875 
L 18.3125 54.6875 
L 36.8125 54.6875 
L 36.8125 47.703125 
L 18.3125 47.703125 
L 18.3125 18.015625 
Q 18.3125 11.328125 20.140625 9.421875 
Q 21.96875 7.515625 27.59375 7.515625 
L 36.8125 7.515625 
L 36.8125 0 
L 27.59375 0 
Q 17.1875 0 13.234375 3.875 
Q 9.28125 7.765625 9.28125 18.015625 
L 9.28125 47.703125 
L 2.6875 47.703125 
L 2.6875 54.6875 
L 9.28125 54.6875 
L 9.28125 70.21875 
z
" id="DejaVuSans-116"/>
       <path d="M 8.5 21.578125 
L 8.5 54.6875 
L 17.484375 54.6875 
L 17.484375 21.921875 
Q 17.484375 14.15625 20.5 10.265625 
Q 23.53125 6.390625 29.59375 6.390625 
Q 36.859375 6.390625 41.078125 11.03125 
Q 45.3125 15.671875 45.3125 23.6875 
L 45.3125 54.6875 
L 54.296875 54.6875 
L 54.296875 0 
L 45.3125 0 
L 45.3125 8.40625 
Q 42.046875 3.421875 37.71875 1 
Q 33.40625 -1.421875 27.6875 -1.421875 
Q 18.265625 -1.421875 13.375 4.4375 
Q 8.5 10.296875 8.5 21.578125 
z
M 31.109375 56 
z
" id="DejaVuSans-117"/>
       <path d="M 11.71875 12.40625 
L 22.015625 12.40625 
L 22.015625 4 
L 14.015625 -11.625 
L 7.71875 -11.625 
L 11.71875 4 
z
" id="DejaVuSans-44"/>
       <path d="M 18.109375 8.203125 
L 18.109375 -20.796875 
L 9.078125 -20.796875 
L 9.078125 54.6875 
L 18.109375 54.6875 
L 18.109375 46.390625 
Q 20.953125 51.265625 25.265625 53.625 
Q 29.59375 56 35.59375 56 
Q 45.5625 56 51.78125 48.09375 
Q 58.015625 40.1875 58.015625 27.296875 
Q 58.015625 14.40625 51.78125 6.484375 
Q 45.5625 -1.421875 35.59375 -1.421875 
Q 29.59375 -1.421875 25.265625 0.953125 
Q 20.953125 3.328125 18.109375 8.203125 
z
M 48.6875 27.296875 
Q 48.6875 37.203125 44.609375 42.84375 
Q 40.53125 48.484375 33.40625 48.484375 
Q 26.265625 48.484375 22.1875 42.84375 
Q 18.109375 37.203125 18.109375 27.296875 
Q 18.109375 17.390625 22.1875 11.75 
Q 26.265625 6.109375 33.40625 6.109375 
Q 40.53125 6.109375 44.609375 11.75 
Q 48.6875 17.390625 48.6875 27.296875 
z
" id="DejaVuSans-112"/>
      </defs>
      <use xlink:href="#DejaVuSans-70"/>
      <use x="50.269531" xlink:href="#DejaVuSans-114"/>
      <use x="91.382812" xlink:href="#DejaVuSans-97"/>
      <use x="152.662109" xlink:href="#DejaVuSans-99"/>
      <use x="207.642578" xlink:href="#DejaVuSans-116"/>
      <use x="246.851562" xlink:href="#DejaVuSans-105"/>
      <use x="274.634766" xlink:href="#DejaVuSans-111"/>
      <use x="335.816406" xlink:href="#DejaVuSans-110"/>
      <use x="399.195312" xlink:href="#DejaVuSans-32"/>
      <use x="430.982422" xlink:href="#DejaVuSans-111"/>
      <use x="492.164062" xlink:href="#DejaVuSans-102"/>
      <use x="527.369141" xlink:href="#DejaVuSans-32"/>
      <use x="559.15625" xlink:href="#DejaVuSans-102"/>
      <use x="594.361328" xlink:href="#DejaVuSans-117"/>
      <use x="657.740234" xlink:href="#DejaVuSans-110"/>
      <use x="721.119141" xlink:href="#DejaVuSans-99"/>
      <use x="776.099609" xlink:href="#DejaVuSans-116"/>
      <use x="815.308594" xlink:href="#DejaVuSans-105"/>
      <use x="843.091797" xlink:href="#DejaVuSans-111"/>
      <use x="904.273438" xlink:href="#DejaVuSans-110"/>
      <use x="967.652344" xlink:href="#DejaVuSans-44"/>
      <use x="999.439453" xlink:href="#DejaVuSans-116"/>
      <use x="1038.648438" xlink:href="#DejaVuSans-97"/>
      <use x="1099.927734" xlink:href="#DejaVuSans-114"/>
      <use x="1139.291016" xlink:href="#DejaVuSans-103"/>
      <use x="1202.767578" xlink:href="#DejaVuSans-101"/>
      <use x="1264.291016" xlink:href="#DejaVuSans-116"/>
      <use x="1303.5" xlink:href="#DejaVuSans-32"/>
      <use x="1335.287109" xlink:href="#DejaVuSans-112"/>
      <use x="1398.763672" xlink:href="#DejaVuSans-97"/>
      <use x="1460.042969" xlink:href="#DejaVuSans-105"/>
      <use x="1487.826172" xlink:href="#DejaVuSans-114"/>
      <use x="1528.939453" xlink:href="#DejaVuSans-115"/>
     </g>
    </g>
   </g>
   <g id="line2d_33">
    <defs>
     <path d="M 0 1.5 
C 0.397805 1.5 0.77937 1.341951 1.06066 1.06066 
C 1.341951 0.77937 1.5 0.397805 1.5 0 
C 1.5 -0.397805 1.341951 -0.77937 1.06066 -1.06066 
C 0.77937 -1.341951 0.397805 -1.5 0 -1.5 
C -0.397805 -1.5 -0.77937 -1.341951 -1.06066 -1.06066 
C -1.341951 -0.77937 -1.5 -0.397805 -1.5 0 
C -1.5 0.397805 -1.341951 0.77937 -1.06066 1.06066 
C -0.77937 1.341951 -0.397805 1.5 0 1.5 
z
" id="m563538a153" style="stroke:#f5deb3;"/>
    </defs>
    <g>
     <use style="fill:#f5deb3;stroke:#f5deb3;" x="194.520878" xlink:href="#m563538a153" y="30.334099"/>
     <use style="fill:#f5deb3;stroke:#f5deb3;" x="194.520878" xlink:href="#m563538a153" y="30.334099"/>
    </g>
   </g>
   <g id="line2d_34">
    <defs>
     <path d="M 0 1.5 
C 0.397805 1.5 0.77937 1.341951 1.06066 1.06066 
C 1.341951 0.77937 1.5 0.397805 1.5 0 
C 1.5 -0.397805 1.341951 -0.77937 1.06066 -1.06066 
C 0.77937 -1.341951 0.397805 -1.5 0 -1.5 
C -0.397805 -1.5 -0.77937 -1.341951 -1.06066 -1.06066 
C -1.341951 -0.77937 -1.5 -0.397805 -1.5 0 
C -1.5 0.397805 -1.341951 0.77937 -1.06066 1.06066 
C -0.77937 1.341951 -0.397805 1.5 0 1.5 
z
" id="m91827e6695" style="stroke:#000080;"/>
    </defs>
    <g>
     <use style="fill:#000080;stroke:#000080;" x="221.011838" xlink:href="#m91827e6695" y="30.334099"/>
     <use style="fill:#000080;stroke:#000080;" x="221.011838" xlink:href="#m91827e6695" y="30.334099"/>
    </g>
   </g>
   <g id="line2d_35">
    <path d="M -1 293.677139 
L 87.643811 293.677139 
L 87.643811 293.150453 
L 92.326721 293.150453 
L 92.326721 292.623767 
L 92.911987 292.623767 
L 92.911987 292.097081 
L 93.083804 292.097081 
L 93.083804 291.570395 
L 95.966392 291.570395 
L 95.966392 291.043709 
L 97.885735 291.043709 
L 97.885735 290.517023 
L 98.057976 290.517023 
L 98.057976 289.990337 
L 98.18605 289.990337 
L 98.18605 289.463651 
L 98.689141 289.463651 
L 98.689141 288.936964 
L 99.80948 288.936964 
L 99.80948 288.410278 
L 100.715621 288.410278 
L 100.715621 287.883592 
L 100.934985 287.883592 
L 100.934985 287.356906 
L 102.162376 287.356906 
L 102.263669 285.776848 
L 102.989037 285.776848 
L 102.989037 285.250162 
L 103.901308 285.250162 
L 103.901308 284.723476 
L 104.114542 284.723476 
L 104.114542 284.19679 
L 104.355088 284.19679 
L 104.355088 283.670104 
L 104.533344 283.670104 
L 104.533344 283.143418 
L 104.826449 283.143418 
L 104.826449 282.616732 
L 104.971174 282.616732 
L 104.971174 281.563359 
L 105.171792 281.563359 
L 105.22869 280.509987 
L 106.114686 280.509987 
L 106.222336 279.456615 
L 106.48859 279.456615 
L 106.48859 278.929929 
L 106.724791 278.929929 
L 106.724791 278.403243 
L 108.554381 278.403243 
L 108.554381 277.876557 
L 108.717912 277.876557 
L 108.717912 277.349871 
L 108.97183 277.349871 
L 108.994731 276.296499 
L 109.756002 276.296499 
L 109.756002 275.769812 
L 109.908692 275.769812 
L 109.908692 275.243126 
L 110.337724 275.243126 
L 110.337724 274.71644 
L 110.464402 274.71644 
L 110.464402 274.189754 
L 110.652711 274.189754 
L 110.694282 273.136382 
L 111.023335 273.136382 
L 111.104637 272.08301 
L 111.663381 272.08301 
L 111.663381 271.556324 
L 111.819788 271.556324 
L 111.819788 271.029638 
L 112.931907 271.029638 
L 112.931907 270.502952 
L 113.113568 270.502952 
L 113.113568 269.976266 
L 113.577216 269.976266 
L 113.577216 269.449579 
L 113.717432 269.449579 
L 113.717432 268.922893 
L 114.701622 268.922893 
L 114.701622 268.396207 
L 114.996101 268.396207 
L 114.996101 267.869521 
L 115.10929 267.869521 
L 115.10929 267.342835 
L 115.301637 267.342835 
L 115.301637 266.816149 
L 115.412868 266.816149 
L 115.412868 266.289463 
L 115.695673 266.289463 
L 115.695673 265.762777 
L 115.850828 265.762777 
L 115.850828 265.236091 
L 116.247887 265.236091 
L 116.247887 264.709405 
L 116.621333 264.709405 
L 116.621333 264.182719 
L 116.768501 264.182719 
L 116.768501 263.656033 
L 117.458117 263.656033 
L 117.514373 262.60266 
L 117.94431 262.60266 
L 117.94431 262.075974 
L 118.589785 262.075974 
L 118.589785 261.549288 
L 119.440021 261.549288 
L 119.490242 260.495916 
L 119.862361 260.495916 
L 119.862361 259.96923 
L 120.500969 259.96923 
L 120.560025 258.915858 
L 120.654101 258.915858 
L 120.677541 257.862486 
L 121.002434 257.862486 
L 121.002434 257.3358 
L 121.310093 257.3358 
L 121.310093 256.809114 
L 121.898676 256.809114 
L 122.007536 255.229055 
L 123.692353 255.229055 
L 123.761186 254.175683 
L 123.810186 254.175683 
L 123.810186 253.648997 
L 124.57603 253.648997 
L 124.57603 253.122311 
L 125.165375 253.122311 
L 125.165375 252.595625 
L 126.065325 252.595625 
L 126.065325 252.068939 
L 126.346817 252.068939 
L 126.346817 251.015567 
L 126.847261 251.015567 
L 126.847261 250.488881 
L 128.115554 250.488881 
L 128.115554 249.962195 
L 128.388641 249.962195 
L 128.388641 249.435508 
L 130.418423 249.435508 
L 130.418423 248.908822 
L 130.551905 248.908822 
L 130.551905 248.382136 
L 131.571961 248.382136 
L 131.571961 247.328764 
L 132.410579 247.328764 
L 132.410579 246.802078 
L 132.712745 246.802078 
L 132.712745 246.275392 
L 133.187865 246.275392 
L 133.273393 244.695334 
L 133.538699 244.695334 
L 133.538699 244.168648 
L 134.338003 244.168648 
L 134.359394 243.115275 
L 134.497802 243.115275 
L 134.497802 242.588589 
L 134.854682 242.588589 
L 134.854682 242.061903 
L 135.300881 242.061903 
L 135.300881 241.535217 
L 135.557235 241.535217 
L 135.557235 241.008531 
L 135.706289 241.008531 
L 135.706289 240.481845 
L 136.073445 240.481845 
L 136.073445 239.955159 
L 136.5324 239.955159 
L 136.565398 238.901787 
L 136.757427 238.901787 
L 136.803944 237.848415 
L 137.189866 237.848415 
L 137.21257 236.795043 
L 137.402129 236.795043 
L 137.482742 235.74167 
L 137.616275 235.74167 
L 137.616275 235.214984 
L 139.36968 235.214984 
L 139.36968 234.688298 
L 139.781807 234.688298 
L 139.781807 234.161612 
L 140.786222 234.161612 
L 140.786222 233.634926 
L 140.944478 233.634926 
L 140.944478 233.10824 
L 141.238742 233.10824 
L 141.238742 232.581554 
L 153.198374 232.581554 
L 153.270803 231.528182 
L 153.416559 231.528182 
L 153.416559 231.001496 
L 153.702703 231.001496 
L 153.757264 229.421437 
L 153.848404 229.421437 
L 153.926893 228.368065 
L 153.991164 228.368065 
L 153.991164 227.841379 
L 154.120722 227.841379 
L 154.120722 227.314693 
L 154.233943 227.314693 
L 154.344733 225.207949 
L 154.400713 225.207949 
L 154.481818 224.154577 
L 154.562548 224.154577 
L 154.562548 223.627891 
L 154.719569 223.627891 
L 154.82898 222.047832 
L 154.863648 222.047832 
L 154.868596 220.99446 
L 155.049026 220.99446 
L 155.145039 219.414402 
L 155.19042 219.414402 
L 155.19042 218.887716 
L 155.373976 218.887716 
L 155.442713 217.307658 
L 155.51277 217.307658 
L 155.51277 216.780971 
L 155.634696 216.780971 
L 155.677248 215.727599 
L 155.765175 215.727599 
L 155.804285 214.147541 
L 155.896239 214.147541 
L 155.896239 213.620855 
L 156.057156 213.620855 
L 156.138594 212.040797 
L 156.204389 212.040797 
L 156.269936 210.987425 
L 156.317038 210.987425 
L 156.317038 210.460738 
L 156.462102 210.460738 
L 156.570113 207.827308 
L 156.583568 207.827308 
L 156.68489 206.773936 
L 156.79744 206.773936 
L 156.79744 206.24725 
L 156.92686 206.24725 
L 157.010179 204.140506 
L 157.052418 204.140506 
L 157.080036 202.033761 
L 157.188629 202.033761 
L 157.26065 199.927017 
L 157.310889 199.927017 
L 157.356695 198.873645 
L 157.463584 198.873645 
L 157.574059 196.7669 
L 157.606501 196.7669 
L 157.707672 194.660156 
L 157.769211 194.660156 
L 157.874997 192.553412 
L 157.930417 192.553412 
L 157.999445 190.446667 
L 158.042106 190.446667 
L 158.150352 186.759865 
L 158.286417 186.759865 
L 158.34595 185.706493 
L 158.401243 185.706493 
L 158.501935 182.546376 
L 158.59273 182.546376 
L 158.600719 181.493004 
L 158.732007 181.493004 
L 158.771596 178.859574 
L 158.9003 178.859574 
L 158.93951 177.279515 
L 159.012467 177.279515 
L 159.108409 175.699457 
L 159.279528 175.699457 
L 159.361277 173.592713 
L 159.400737 173.592713 
L 159.502158 172.012655 
L 159.514794 172.012655 
L 159.514794 171.485969 
L 159.658204 171.485969 
L 159.719484 170.432596 
L 159.801686 170.432596 
L 159.877318 168.852538 
L 160.176607 168.852538 
L 160.265159 167.799166 
L 160.389343 167.799166 
L 160.389343 167.27248 
L 160.624424 167.27248 
L 160.702478 166.219108 
L 160.77901 166.219108 
L 160.77901 165.692422 
L 160.91243 165.692422 
L 160.91243 165.165736 
L 161.14061 165.165736 
L 161.14061 164.63905 
L 164.56678 164.63905 
L 164.56678 164.112363 
L 164.723964 164.112363 
L 164.723964 163.585677 
L 164.836973 163.585677 
L 164.836973 163.058991 
L 165.043347 163.058991 
L 165.043347 162.532305 
L 165.214541 162.532305 
L 165.318087 161.478933 
L 165.328951 161.478933 
L 165.430922 158.318817 
L 165.454301 158.318817 
L 165.498275 157.265444 
L 165.597481 157.265444 
L 165.663306 155.1587 
L 165.715611 155.1587 
L 165.760698 153.578642 
L 165.847888 153.578642 
L 165.939889 151.471897 
L 165.9844 151.471897 
L 166.079153 149.365153 
L 166.095617 149.365153 
L 166.192353 147.258409 
L 166.223333 147.258409 
L 166.328769 144.624978 
L 166.345853 144.624978 
L 166.453099 140.938176 
L 166.512396 140.938176 
L 166.563062 139.884804 
L 166.649697 139.884804 
L 166.650536 138.831432 
L 166.770101 138.831432 
L 166.854058 136.724687 
L 166.908703 136.724687 
L 166.957408 135.144629 
L 167.033085 135.144629 
L 167.132935 130.93114 
L 167.231404 130.93114 
L 167.325286 129.877768 
L 167.352708 129.877768 
L 167.434714 128.29771 
L 167.473173 128.29771 
L 167.566561 127.244338 
L 167.592812 127.244338 
L 167.698999 125.66428 
L 167.721106 125.66428 
L 167.803759 123.557535 
L 167.881331 123.557535 
L 167.961673 121.977477 
L 168.024596 121.977477 
L 168.024596 121.450791 
L 168.182838 121.450791 
L 168.270983 120.397419 
L 168.319845 120.397419 
L 168.319845 119.870733 
L 180.055887 119.870733 
L 180.130798 118.290674 
L 180.221193 118.290674 
L 180.332192 116.18393 
L 180.430691 116.18393 
L 180.525987 114.603872 
L 180.562298 114.603872 
L 180.645977 112.497128 
L 180.676034 112.497128 
L 180.75805 111.443755 
L 180.788661 111.443755 
L 180.788661 110.917069 
L 180.926856 110.917069 
L 181.029053 109.337011 
L 181.07681 109.337011 
L 181.127363 107.756953 
L 181.233122 107.756953 
L 181.246933 106.703581 
L 181.435909 106.703581 
L 181.435909 106.176895 
L 181.982495 106.176895 
L 181.982495 105.650209 
L 184.610314 105.650209 
L 184.692204 103.543464 
L 184.743413 103.543464 
L 184.819947 101.963406 
L 184.868718 101.963406 
L 184.873735 100.910034 
L 184.985507 100.910034 
L 185.078494 99.329976 
L 185.102975 99.329976 
L 185.193891 96.696545 
L 185.23845 96.696545 
L 185.341023 94.589801 
L 185.367146 94.589801 
L 185.456128 93.009743 
L 185.508276 93.009743 
L 185.570763 90.902998 
L 187.737416 90.902998 
L 187.814867 88.269568 
L 187.856697 88.269568 
L 187.948222 86.162824 
L 187.993435 86.162824 
L 188.103138 84.056079 
L 188.109267 84.056079 
L 188.162131 81.949335 
L 188.229447 81.949335 
L 188.333083 78.262532 
L 188.393234 78.262532 
L 188.483193 75.102416 
L 188.50621 75.102416 
L 188.528239 73.522358 
L 188.663156 73.522358 
L 188.755044 71.415613 
L 188.79091 71.415613 
L 188.862421 68.782183 
L 188.906499 68.782183 
L 188.979404 65.622066 
L 189.019 65.622066 
L 189.109037 64.042008 
L 189.149033 64.042008 
L 189.243916 61.935264 
L 189.272143 61.935264 
L 189.369781 60.881892 
L 189.39234 60.881892 
L 189.471636 58.248461 
L 203.918369 58.248461 
L 204.000254 54.034973 
L 204.03648 54.034973 
L 204.140312 48.768112 
L 204.157411 48.768112 
L 204.236628 45.081309 
L 220.88854 45.081309 
L 220.99526 31.387471 
L 221.010166 31.387471 
L 221.011838 30.334099 
L 338.688 30.334099 
L 338.688 30.334099 
" style="fill:none;stroke:#000080;stroke-linecap:square;stroke-width:1.5;"/>
   </g>
   <g id="line2d_36">
    <defs>
     <path d="M 0 6 
C 1.591219 6 3.117479 5.367802 4.242641 4.242641 
C 5.367802 3.117479 6 1.591219 6 0 
C 6 -1.591219 5.367802 -3.117479 4.242641 -4.242641 
C 3.117479 -5.367802 1.591219 -6 0 -6 
C -1.591219 -6 -3.117479 -5.367802 -4.242641 -4.242641 
C -5.367802 -3.117479 -6 -1.591219 -6 0 
C -6 1.591219 -5.367802 3.117479 -4.242641 4.242641 
C -3.117479 5.367802 -1.591219 6 0 6 
z
" id="m69c747f7e1" style="stroke:#000080;stroke-width:1.5;"/>
    </defs>
    <g>
     <use style="fill-opacity:0;stroke:#000080;stroke-width:1.5;" x="104.533344" xlink:href="#m69c747f7e1" y="283.670104"/>
     <use style="fill-opacity:0;stroke:#000080;stroke-width:1.5;" x="166.401261" xlink:href="#m69c747f7e1" y="143.04492"/>
     <use style="fill-opacity:0;stroke:#000080;stroke-width:1.5;" x="220.951584" xlink:href="#m69c747f7e1" y="37.707704"/>
     <use style="fill-opacity:0;stroke:#000080;stroke-width:1.5;" x="221.011838" xlink:href="#m69c747f7e1" y="30.334099"/>
     <use style="fill-opacity:0;stroke:#000080;stroke-width:1.5;" x="221.011838" xlink:href="#m69c747f7e1" y="30.334099"/>
     <use style="fill-opacity:0;stroke:#000080;stroke-width:1.5;" x="338.688" xlink:href="#m69c747f7e1" y="30.334099"/>
    </g>
   </g>
   <g id="line2d_37">
    <path style="fill:none;stroke:#000080;stroke-linecap:square;stroke-width:1.5;"/>
    <g/>
   </g>
   <g id="line2d_38">
    <defs>
     <path d="M 0 1.5 
C 0.397805 1.5 0.77937 1.341951 1.06066 1.06066 
C 1.341951 0.77937 1.5 0.397805 1.5 0 
C 1.5 -0.397805 1.341951 -0.77937 1.06066 -1.06066 
C 0.77937 -1.341951 0.397805 -1.5 0 -1.5 
C -0.397805 -1.5 -0.77937 -1.341951 -1.06066 -1.06066 
C -1.341951 -0.77937 -1.5 -0.397805 -1.5 0 
C -1.5 0.397805 -1.341951 0.77937 -1.06066 1.06066 
C -0.77937 1.341951 -0.397805 1.5 0 1.5 
z
" id="mec02e2275d" style="stroke:#ff00ff;"/>
    </defs>
    <g>
     <use style="fill:#ff00ff;stroke:#ff00ff;" x="321.136624" xlink:href="#mec02e2275d" y="30.334099"/>
     <use style="fill:#ff00ff;stroke:#ff00ff;" x="321.136624" xlink:href="#mec02e2275d" y="30.334099"/>
    </g>
   </g>
   <g id="line2d_39">
    <path d="M -1 293.677139 
L 101.71651 293.677139 
L 101.71651 293.150453 
L 104.503761 293.150453 
L 104.503761 292.623767 
L 106.168594 292.623767 
L 106.168594 292.097081 
L 108.318072 292.097081 
L 108.318072 291.570395 
L 109.040444 291.570395 
L 109.086037 290.517023 
L 109.668146 290.517023 
L 109.668146 289.990337 
L 114.800335 289.990337 
L 114.800335 289.463651 
L 114.914798 289.463651 
L 114.914798 288.936964 
L 115.10929 288.936964 
L 115.173642 287.883592 
L 115.221751 287.883592 
L 115.221751 287.356906 
L 116.885347 287.356906 
L 116.885347 286.83022 
L 117.668147 286.83022 
L 117.668147 286.303534 
L 118.890808 286.303534 
L 118.890808 285.776848 
L 119.960266 285.776848 
L 119.960266 285.250162 
L 121.08272 285.250162 
L 121.08272 284.723476 
L 123.019403 284.723476 
L 123.019403 284.19679 
L 123.712047 284.19679 
L 123.712047 283.670104 
L 124.406624 283.670104 
L 124.406624 283.143418 
L 124.965026 283.143418 
L 124.965026 282.616732 
L 126.099688 282.616732 
L 126.099688 282.090045 
L 126.70692 282.090045 
L 126.70692 281.563359 
L 127.092198 281.563359 
L 127.092198 281.036673 
L 128.657518 281.036673 
L 128.657518 280.509987 
L 128.944197 280.509987 
L 128.973336 279.456615 
L 129.404667 279.456615 
L 129.404667 278.929929 
L 130.032298 278.929929 
L 130.032298 278.403243 
L 130.887729 278.403243 
L 130.887729 277.876557 
L 131.962617 277.876557 
L 131.962617 277.349871 
L 133.392433 277.349871 
L 133.392433 276.823185 
L 133.533096 276.823185 
L 133.533096 276.296499 
L 133.975741 276.296499 
L 133.975741 275.769812 
L 134.608796 275.769812 
L 134.608796 275.243126 
L 135.411927 275.243126 
L 135.411927 274.71644 
L 136.938146 274.71644 
L 136.938146 274.189754 
L 140.660065 274.189754 
L 140.660065 273.663068 
L 142.769062 273.663068 
L 142.769062 273.136382 
L 145.542453 273.136382 
L 145.542453 272.609696 
L 146.417963 272.609696 
L 146.417963 272.08301 
L 146.699419 272.08301 
L 146.699419 271.556324 
L 149.595289 271.556324 
L 149.595289 271.029638 
L 150.282101 271.029638 
L 150.282101 270.502952 
L 150.505862 270.502952 
L 150.505862 269.976266 
L 152.364012 269.976266 
L 152.364012 269.449579 
L 157.920731 269.449579 
L 157.920731 268.922893 
L 158.3446 268.922893 
L 158.3446 268.396207 
L 158.804519 268.396207 
L 158.804519 267.869521 
L 159.08253 267.869521 
L 159.08253 267.342835 
L 164.476728 267.342835 
L 164.476728 266.816149 
L 164.860231 266.816149 
L 164.860231 266.289463 
L 168.829244 266.289463 
L 168.829244 265.762777 
L 169.343607 265.762777 
L 169.343607 265.236091 
L 170.962755 265.236091 
L 170.962755 264.709405 
L 172.655425 264.709405 
L 172.655425 264.182719 
L 177.098184 264.182719 
L 177.098184 263.656033 
L 179.319799 263.656033 
L 179.319799 263.129347 
L 183.454225 263.129347 
L 183.454225 262.60266 
L 206.897677 262.60266 
L 207.003349 261.549288 
L 207.573451 261.549288 
L 207.665857 260.495916 
L 207.829919 260.495916 
L 207.829919 259.96923 
L 208.103945 259.96923 
L 208.103945 259.442544 
L 208.29988 259.442544 
L 208.322507 258.389172 
L 208.515635 258.389172 
L 208.515635 257.862486 
L 208.954584 257.862486 
L 208.954584 257.3358 
L 209.109069 257.3358 
L 209.109069 256.809114 
L 209.666746 256.809114 
L 209.772804 255.755741 
L 210.153349 255.755741 
L 210.153349 255.229055 
L 210.325886 255.229055 
L 210.325886 254.702369 
L 210.601317 254.702369 
L 210.601317 254.175683 
L 211.209409 254.175683 
L 211.209409 253.648997 
L 211.431612 253.648997 
L 211.538814 252.595625 
L 246.305226 252.595625 
L 246.406197 246.802078 
L 246.49332 246.802078 
L 246.557914 245.22202 
L 246.659963 245.22202 
L 246.757845 244.168648 
L 248.022145 244.168648 
L 248.127804 239.955159 
L 248.227444 239.955159 
L 248.315343 238.375101 
L 248.376874 238.375101 
L 248.478828 234.688298 
L 248.505195 234.688298 
L 248.518022 233.634926 
L 258.387568 233.634926 
L 258.494055 227.841379 
L 258.50455 227.841379 
L 258.566936 222.574518 
L 259.267882 222.574518 
L 259.363264 215.200913 
L 259.468815 215.200913 
L 259.52716 213.620855 
L 265.470236 213.620855 
L 265.574921 209.934052 
L 266.047015 209.934052 
L 266.150043 204.140506 
L 266.172197 204.140506 
L 266.223205 201.507075 
L 270.494466 201.507075 
L 270.560286 198.346959 
L 270.914789 198.346959 
L 271.02322 189.919981 
L 274.368137 189.919981 
L 274.451346 184.126434 
L 274.717244 184.126434 
L 274.790353 176.226143 
L 277.570873 176.226143 
L 277.591057 174.119399 
L 277.837208 174.119399 
L 277.925603 169.379224 
L 280.254194 169.379224 
L 280.278866 166.219108 
L 280.484352 166.219108 
L 280.55458 155.685386 
L 282.571694 155.685386 
L 282.594315 153.051956 
L 282.779398 153.051956 
L 282.842343 147.785095 
L 284.635565 147.785095 
L 284.635565 147.258409 
L 284.809082 147.258409 
L 284.869364 139.358118 
L 286.626408 139.358118 
L 286.680733 133.564571 
L 288.110444 133.564571 
L 288.133754 131.984513 
L 288.272578 131.984513 
L 288.321538 127.244338 
L 289.641757 127.244338 
L 289.646695 125.66428 
L 289.775792 125.66428 
L 289.821153 120.397419 
L 291.038065 120.397419 
L 291.048832 118.817361 
L 291.16448 118.817361 
L 291.198578 114.603872 
L 292.333659 114.603872 
L 292.333659 114.077186 
L 292.446218 114.077186 
L 292.473701 111.443755 
L 293.529698 111.443755 
L 293.538931 109.337011 
L 293.645287 109.337011 
L 293.666181 107.230267 
L 294.654137 107.230267 
L 294.756788 104.596836 
L 294.767466 104.596836 
L 294.789077 100.910034 
L 295.710621 100.910034 
L 295.821205 98.276603 
L 295.827058 98.276603 
L 295.831289 97.223231 
L 296.706741 97.223231 
L 296.814119 94.063115 
L 296.820732 94.063115 
L 296.820732 93.536429 
L 297.649026 93.536429 
L 297.750091 90.902998 
L 298.544298 90.902998 
L 298.650323 85.109451 
L 299.470509 85.109451 
L 299.4904 80.895963 
L 300.201469 80.895963 
L 300.297246 77.735846 
L 300.979113 77.735846 
L 301.071064 72.995672 
L 301.722781 72.995672 
L 301.81031 70.888927 
L 302.506573 70.888927 
L 302.506573 70.362241 
L 303.122424 70.362241 
L 303.192273 69.308869 
L 303.779144 69.308869 
L 303.852377 64.568694 
L 304.47401 64.568694 
L 304.481018 62.988636 
L 305.019665 62.988636 
L 305.091973 60.881892 
L 305.670103 60.881892 
L 305.671795 59.82852 
L 306.185019 59.82852 
L 306.246117 57.721775 
L 306.786121 57.721775 
L 306.801854 54.561659 
L 307.27634 54.561659 
L 307.325465 52.454914 
L 307.840022 52.454914 
L 307.840022 51.928228 
L 308.302573 51.928228 
L 308.353149 48.768112 
L 308.835304 48.768112 
L 308.839205 46.661368 
L 309.268285 46.661368 
L 309.324715 44.027937 
L 309.774842 44.027937 
L 309.774842 43.501251 
L 310.184382 43.501251 
L 310.23199 41.921193 
L 310.667639 41.921193 
L 310.667639 41.394507 
L 311.095757 41.394507 
L 311.096985 40.341135 
L 311.516702 40.341135 
L 311.525208 38.761076 
L 311.927128 38.761076 
L 311.927128 38.23439 
L 312.331464 38.23439 
L 312.331464 37.707704 
L 312.681942 37.707704 
L 312.727366 35.074274 
L 313.101962 35.074274 
L 313.101962 34.547588 
L 315.233512 34.547588 
L 315.233512 34.020902 
L 316.179573 34.020902 
L 316.179573 33.494215 
L 316.527953 33.494215 
L 316.527953 32.967529 
L 316.830113 32.967529 
L 316.830113 32.440843 
L 318.296446 32.440843 
L 318.296446 31.914157 
L 319.382819 31.914157 
L 319.382819 31.387471 
L 320.90022 31.387471 
L 320.90022 30.860785 
L 321.136624 30.860785 
L 321.136624 30.334099 
L 338.688 30.334099 
L 338.688 30.334099 
" style="fill:none;stroke:#ff00ff;stroke-linecap:square;stroke-width:1.5;"/>
   </g>
   <g id="line2d_40">
    <defs>
     <path d="M -0 8.485281 
L 5.091169 0 
L 0 -8.485281 
L -5.091169 -0 
z
" id="m0ace2055f3" style="stroke:#ff00ff;stroke-linejoin:miter;stroke-width:1.5;"/>
    </defs>
    <g>
     <use style="fill-opacity:0;stroke:#ff00ff;stroke-linejoin:miter;stroke-width:1.5;" x="142.769062" xlink:href="#m0ace2055f3" y="273.136382"/>
     <use style="fill-opacity:0;stroke:#ff00ff;stroke-linejoin:miter;stroke-width:1.5;" x="211.538814" xlink:href="#m0ace2055f3" y="252.595625"/>
     <use style="fill-opacity:0;stroke:#ff00ff;stroke-linejoin:miter;stroke-width:1.5;" x="284.635565" xlink:href="#m0ace2055f3" y="147.258409"/>
     <use style="fill-opacity:0;stroke:#ff00ff;stroke-linejoin:miter;stroke-width:1.5;" x="321.136624" xlink:href="#m0ace2055f3" y="30.334099"/>
     <use style="fill-opacity:0;stroke:#ff00ff;stroke-linejoin:miter;stroke-width:1.5;" x="338.688" xlink:href="#m0ace2055f3" y="30.334099"/>
    </g>
   </g>
   <g id="line2d_41">
    <path style="fill:none;stroke:#ff00ff;stroke-linecap:square;stroke-width:1.5;"/>
    <g/>
   </g>
   <g id="line2d_42">
    <path clip-path="url(#pd595922872)" d="M 246.289154 252.595625 
" style="fill:none;stroke:#ff00ff;stroke-linecap:square;stroke-width:1.5;"/>
    <defs>
     <path d="M -12 12 
L 12 -12 
M -12 -12 
L 12 12 
" id="m7e249c1720" style="stroke:#ff00ff;"/>
    </defs>
    <g clip-path="url(#pd595922872)">
     <use style="fill:#ff00ff;stroke:#ff00ff;" x="246.289154" xlink:href="#m7e249c1720" y="252.595625"/>
    </g>
   </g>
   <g id="line2d_43">
    <defs>
     <path d="M 0 1.5 
C 0.397805 1.5 0.77937 1.341951 1.06066 1.06066 
C 1.341951 0.77937 1.5 0.397805 1.5 0 
C 1.5 -0.397805 1.341951 -0.77937 1.06066 -1.06066 
C 0.77937 -1.341951 0.397805 -1.5 0 -1.5 
C -0.397805 -1.5 -0.77937 -1.341951 -1.06066 -1.06066 
C -1.341951 -0.77937 -1.5 -0.397805 -1.5 0 
C -1.5 0.397805 -1.341951 0.77937 -1.06066 1.06066 
C -0.77937 1.341951 -0.397805 1.5 0 1.5 
z
" id="m680b5a698f" style="stroke:#ff7500;"/>
    </defs>
    <g>
     <use style="fill:#ff7500;stroke:#ff7500;" x="266.668251" xlink:href="#m680b5a698f" y="30.334099"/>
     <use style="fill:#ff7500;stroke:#ff7500;" x="266.668251" xlink:href="#m680b5a698f" y="30.334099"/>
    </g>
   </g>
   <g id="line2d_44">
    <path d="M -1 293.677139 
L 157.114859 293.677139 
L 157.114859 293.150453 
L 160.756674 293.150453 
L 160.756674 292.623767 
L 161.298692 292.623767 
L 161.298692 292.097081 
L 161.959939 292.097081 
L 161.959939 291.570395 
L 162.092283 291.570395 
L 162.092283 291.043709 
L 163.390587 291.043709 
L 163.390587 290.517023 
L 164.201816 290.517023 
L 164.201816 289.990337 
L 165.628646 289.990337 
L 165.629535 288.936964 
L 165.826791 288.936964 
L 165.826791 288.410278 
L 166.154414 288.410278 
L 166.154414 287.883592 
L 166.49886 287.883592 
L 166.49886 287.356906 
L 166.867321 287.356906 
L 166.867321 286.83022 
L 167.061789 286.83022 
L 167.061789 286.303534 
L 167.482774 286.303534 
L 167.482774 285.776848 
L 167.642816 285.776848 
L 167.642816 285.250162 
L 168.132819 285.250162 
L 168.132819 284.723476 
L 168.264866 284.723476 
L 168.264866 284.19679 
L 168.568139 284.19679 
L 168.60643 283.143418 
L 169.018511 283.143418 
L 169.018511 282.616732 
L 169.348639 282.616732 
L 169.348639 282.090045 
L 170.287446 282.090045 
L 170.287446 281.563359 
L 170.433263 281.563359 
L 170.452839 280.509987 
L 170.829901 280.509987 
L 170.829901 279.983301 
L 170.952269 279.983301 
L 170.957512 278.929929 
L 171.218363 278.929929 
L 171.218363 278.403243 
L 171.484911 278.403243 
L 171.595834 277.349871 
L 171.636224 277.349871 
L 171.636224 276.823185 
L 171.910165 276.823185 
L 171.910165 276.296499 
L 172.097799 276.296499 
L 172.097799 275.769812 
L 172.389409 275.769812 
L 172.389409 275.243126 
L 172.583331 275.243126 
L 172.583331 274.71644 
L 173.172121 274.71644 
L 173.172121 274.189754 
L 173.516763 274.189754 
L 173.549557 273.136382 
L 173.845287 273.136382 
L 173.845287 272.609696 
L 173.959872 272.609696 
L 173.959872 272.08301 
L 174.394692 272.08301 
L 174.405451 271.029638 
L 174.521235 271.029638 
L 174.61076 269.449579 
L 174.752102 269.449579 
L 174.752102 268.922893 
L 175.033472 268.922893 
L 175.033472 268.396207 
L 175.244378 268.396207 
L 175.244378 267.342835 
L 175.361361 267.342835 
L 175.361361 266.816149 
L 175.559807 266.816149 
L 175.578925 265.762777 
L 175.750544 265.762777 
L 175.83845 264.182719 
L 175.94365 264.182719 
L 175.94365 263.656033 
L 176.55521 263.656033 
L 176.55521 263.129347 
L 176.710463 263.129347 
L 176.710463 262.60266 
L 176.89468 262.60266 
L 176.89468 262.075974 
L 177.536897 262.075974 
L 177.536897 261.549288 
L 178.444511 261.549288 
L 178.444511 261.022602 
L 178.590657 261.022602 
L 178.590657 260.495916 
L 178.940803 260.495916 
L 178.940803 259.96923 
L 179.183342 259.96923 
L 179.263716 258.389172 
L 179.52992 258.389172 
L 179.52992 257.862486 
L 179.654152 257.862486 
L 179.654152 257.3358 
L 180.068329 257.3358 
L 180.068329 256.809114 
L 180.214641 256.809114 
L 180.214641 256.282427 
L 180.513867 256.282427 
L 180.513867 255.755741 
L 180.958649 255.755741 
L 180.958649 255.229055 
L 181.664054 255.229055 
L 181.664054 254.702369 
L 182.115383 254.702369 
L 182.115383 254.175683 
L 182.303434 254.175683 
L 182.303434 253.648997 
L 182.667869 253.648997 
L 182.711014 252.595625 
L 183.04419 252.595625 
L 183.110917 251.542253 
L 183.301509 251.542253 
L 183.301509 251.015567 
L 183.754759 251.015567 
L 183.754759 250.488881 
L 184.156602 250.488881 
L 184.156602 249.962195 
L 184.366564 249.962195 
L 184.366564 249.435508 
L 184.496103 249.435508 
L 184.496103 248.908822 
L 184.677886 248.908822 
L 184.677886 248.382136 
L 185.376322 248.382136 
L 185.376322 247.85545 
L 185.749874 247.85545 
L 185.778194 246.802078 
L 186.043722 246.802078 
L 186.043722 246.275392 
L 186.426892 246.275392 
L 186.426892 245.748706 
L 186.697685 245.748706 
L 186.697685 245.22202 
L 187.474025 245.22202 
L 187.474025 244.695334 
L 187.755686 244.695334 
L 187.817359 243.641962 
L 188.027699 243.641962 
L 188.027699 243.115275 
L 188.558125 243.115275 
L 188.630357 241.535217 
L 189.133323 241.535217 
L 189.152727 239.955159 
L 189.719456 239.955159 
L 189.719456 239.428473 
L 190.033526 239.428473 
L 190.033526 238.901787 
L 190.556161 238.901787 
L 190.556161 238.375101 
L 190.922106 238.375101 
L 190.971058 236.795043 
L 191.08902 236.795043 
L 191.08902 236.268356 
L 191.595846 236.268356 
L 191.595846 235.74167 
L 191.856203 235.74167 
L 191.856203 235.214984 
L 192.287398 235.214984 
L 192.287398 234.688298 
L 192.477706 234.688298 
L 192.554619 233.634926 
L 192.669168 233.634926 
L 192.747686 232.054868 
L 192.938638 232.054868 
L 192.938638 231.001496 
L 193.058637 231.001496 
L 193.058637 230.47481 
L 193.227601 230.47481 
L 193.227601 229.948123 
L 193.663673 229.948123 
L 193.663673 229.421437 
L 193.800393 229.421437 
L 193.8717 228.368065 
L 194.316205 228.368065 
L 194.316205 227.841379 
L 194.504069 227.841379 
L 194.504069 227.314693 
L 195.007363 227.314693 
L 195.007363 226.788007 
L 195.74019 226.788007 
L 195.807631 225.734635 
L 196.000295 225.734635 
L 196.089245 224.154577 
L 196.189159 224.154577 
L 196.189159 223.627891 
L 196.332 223.627891 
L 196.395213 222.574518 
L 196.65451 222.574518 
L 196.65451 222.047832 
L 196.997391 222.047832 
L 196.997391 221.521146 
L 197.34781 221.521146 
L 197.34781 220.99446 
L 197.459866 220.99446 
L 197.514983 219.941088 
L 197.656199 219.941088 
L 197.657333 217.834344 
L 197.799938 217.834344 
L 197.799938 217.307658 
L 198.050535 217.307658 
L 198.050535 216.780971 
L 198.215668 216.780971 
L 198.244067 215.727599 
L 198.33267 215.727599 
L 198.33267 215.200913 
L 198.460268 215.200913 
L 198.553574 214.147541 
L 198.944284 214.147541 
L 198.944284 213.620855 
L 199.23511 213.620855 
L 199.23511 213.094169 
L 199.402535 213.094169 
L 199.402535 212.040797 
L 199.56214 212.040797 
L 199.56214 211.514111 
L 199.765458 211.514111 
L 199.867171 209.934052 
L 199.890386 209.934052 
L 199.890386 209.407366 
L 200.77511 209.407366 
L 200.859677 208.353994 
L 200.921158 208.353994 
L 200.921158 207.827308 
L 201.123383 207.827308 
L 201.123383 207.300622 
L 201.416563 207.300622 
L 201.416563 206.773936 
L 201.576958 206.773936 
L 201.576958 206.24725 
L 201.86902 206.24725 
L 201.901505 204.667192 
L 202.176961 204.667192 
L 202.220996 203.613819 
L 202.311012 203.613819 
L 202.335314 202.560447 
L 202.524231 202.560447 
L 202.524231 201.507075 
L 202.767268 201.507075 
L 202.767268 200.980389 
L 202.972505 200.980389 
L 202.972505 200.453703 
L 203.156128 200.453703 
L 203.201062 199.400331 
L 203.29982 199.400331 
L 203.392309 198.346959 
L 203.564313 198.346959 
L 203.564313 197.820273 
L 203.686042 197.820273 
L 203.686042 197.293586 
L 204.320422 197.293586 
L 204.412479 195.713528 
L 204.568651 195.713528 
L 204.568651 195.186842 
L 204.795518 195.186842 
L 204.814714 194.13347 
L 205.431626 194.13347 
L 205.440157 193.080098 
L 205.653613 193.080098 
L 205.747205 192.026726 
L 206.274501 192.026726 
L 206.274501 191.50004 
L 212.638285 191.50004 
L 212.638285 190.973354 
L 212.806156 190.973354 
L 212.806156 190.446667 
L 213.066604 190.446667 
L 213.066604 189.919981 
L 213.220318 189.919981 
L 213.220318 189.393295 
L 213.596475 189.393295 
L 213.641831 187.813237 
L 213.720738 187.813237 
L 213.720738 187.286551 
L 213.975762 187.286551 
L 213.975762 186.759865 
L 214.151127 186.759865 
L 214.151127 186.233179 
L 214.355629 186.233179 
L 214.460828 184.653121 
L 214.4744 184.653121 
L 214.559535 183.599748 
L 214.660361 183.599748 
L 214.759596 182.01969 
L 214.975254 182.01969 
L 215.037902 180.966318 
L 215.150311 180.966318 
L 215.253784 179.38626 
L 215.28611 179.38626 
L 215.378266 178.332888 
L 215.409082 178.332888 
L 215.515822 176.752829 
L 215.622672 176.752829 
L 215.714833 174.646085 
L 215.764496 174.646085 
L 215.819373 173.592713 
L 215.935622 173.592713 
L 216.042606 172.012655 
L 216.101098 172.012655 
L 216.101098 171.485969 
L 216.230255 171.485969 
L 216.335841 169.90591 
L 216.405411 169.90591 
L 216.511339 168.325852 
L 216.531526 168.325852 
L 216.6355 167.27248 
L 216.735487 167.27248 
L 216.834054 165.692422 
L 216.909238 165.692422 
L 217.013046 162.532305 
L 217.143162 162.532305 
L 217.207973 161.478933 
L 217.263288 161.478933 
L 217.374127 158.845503 
L 217.420567 158.845503 
L 217.420567 158.318817 
L 217.532002 158.318817 
L 217.601215 156.738758 
L 217.763324 156.738758 
L 217.825027 155.1587 
L 217.8786 155.1587 
L 217.927797 154.105328 
L 218.020486 154.105328 
L 218.108164 153.051956 
L 218.134956 153.051956 
L 218.134956 152.52527 
L 218.273997 152.52527 
L 218.36076 149.365153 
L 218.395457 149.365153 
L 218.395457 148.838467 
L 218.516205 148.838467 
L 218.532958 147.785095 
L 218.636548 147.785095 
L 218.663859 146.731723 
L 218.771071 146.731723 
L 218.857629 145.151665 
L 218.882371 145.151665 
L 218.897393 144.098292 
L 219.025805 144.098292 
L 219.06635 143.04492 
L 219.184 143.04492 
L 219.184 142.518234 
L 219.336562 142.518234 
L 219.361166 141.464862 
L 219.554411 141.464862 
L 219.637417 139.884804 
L 219.676728 139.884804 
L 219.741343 138.304745 
L 219.915732 138.304745 
L 220.010267 137.251373 
L 220.030755 137.251373 
L 220.106288 136.198001 
L 220.152169 136.198001 
L 220.152169 135.671315 
L 220.293506 135.671315 
L 220.293506 135.144629 
L 220.415148 135.144629 
L 220.415148 134.617943 
L 220.613547 134.617943 
L 220.613547 134.091257 
L 220.82737 134.091257 
L 220.82737 133.564571 
L 221.027212 133.564571 
L 221.027212 133.037885 
L 221.193234 133.037885 
L 221.301035 131.984513 
L 221.519601 131.984513 
L 221.519601 131.457826 
L 222.638276 131.457826 
L 222.638276 130.93114 
L 222.793066 130.93114 
L 222.793066 130.404454 
L 226.060607 130.404454 
L 226.061525 129.351082 
L 226.193438 129.351082 
L 226.210764 128.29771 
L 226.418594 128.29771 
L 226.45757 127.244338 
L 226.597916 127.244338 
L 226.640315 126.190966 
L 226.711733 126.190966 
L 226.755808 125.137593 
L 226.998788 125.137593 
L 227.092262 124.084221 
L 227.385316 124.084221 
L 227.385316 123.557535 
L 227.608443 123.557535 
L 227.608443 123.030849 
L 227.815929 123.030849 
L 227.815929 121.977477 
L 227.981534 121.977477 
L 227.981534 121.450791 
L 228.141953 121.450791 
L 228.200776 120.397419 
L 228.346103 120.397419 
L 228.42417 119.344047 
L 228.570329 119.344047 
L 228.570329 118.817361 
L 228.741624 118.817361 
L 228.846249 117.763988 
L 229.073327 117.763988 
L 229.073327 117.237302 
L 229.300304 117.237302 
L 229.300304 116.710616 
L 229.895434 116.710616 
L 229.908443 115.657244 
L 230.14392 115.657244 
L 230.244336 114.603872 
L 230.258159 114.603872 
L 230.258159 114.077186 
L 230.446478 114.077186 
L 230.492616 113.023814 
L 230.625272 113.023814 
L 230.659512 111.970441 
L 230.771177 111.970441 
L 230.771177 111.443755 
L 230.888965 111.443755 
L 230.994145 109.863697 
L 231.078807 109.863697 
L 231.098403 108.810325 
L 231.278218 108.810325 
L 231.278218 108.283639 
L 231.432565 108.283639 
L 231.542185 106.703581 
L 231.595301 106.703581 
L 231.595301 106.176895 
L 231.773057 106.176895 
L 231.81388 105.123522 
L 231.949297 105.123522 
L 232.047086 103.543464 
L 232.129961 103.543464 
L 232.232545 101.963406 
L 232.302746 101.963406 
L 232.402852 100.910034 
L 232.458752 100.910034 
L 232.458752 100.383348 
L 235.511229 100.383348 
L 235.60149 99.329976 
L 235.691591 99.329976 
L 235.736428 98.276603 
L 235.813407 98.276603 
L 235.84835 97.223231 
L 235.957068 97.223231 
L 235.957068 96.696545 
L 236.208899 96.696545 
L 236.208899 96.169859 
L 236.35652 96.169859 
L 236.444055 94.589801 
L 236.525994 94.589801 
L 236.525994 94.063115 
L 236.782151 94.063115 
L 236.857026 93.009743 
L 236.90657 93.009743 
L 236.938632 91.95637 
L 237.185344 91.95637 
L 237.185344 90.902998 
L 237.307995 90.902998 
L 237.348736 89.849626 
L 237.44746 89.849626 
L 237.557616 88.269568 
L 237.654696 88.269568 
L 237.720509 87.216196 
L 241.708795 87.216196 
L 241.798999 85.109451 
L 241.874627 85.109451 
L 241.952354 83.529393 
L 241.987942 83.529393 
L 242.085397 82.476021 
L 242.105359 82.476021 
L 242.180644 80.369277 
L 242.251088 80.369277 
L 242.334501 78.789218 
L 242.368423 78.789218 
L 242.439213 77.735846 
L 242.528463 77.735846 
L 242.562259 76.682474 
L 242.640169 76.682474 
L 242.683166 75.629102 
L 242.830524 75.629102 
L 242.877689 74.57573 
L 242.96206 74.57573 
L 243.063375 73.522358 
L 243.081976 73.522358 
L 243.188777 71.942299 
L 243.200803 71.942299 
L 243.200803 71.415613 
L 246.776841 71.415613 
L 246.885636 70.362241 
L 246.888812 70.362241 
L 246.888812 69.835555 
L 247.058488 69.835555 
L 247.152995 67.728811 
L 247.224553 67.728811 
L 247.31228 65.622066 
L 247.436094 65.622066 
L 247.532561 63.515322 
L 247.550837 63.515322 
L 247.629725 61.408578 
L 247.70066 61.408578 
L 247.794023 59.301833 
L 247.916509 59.301833 
L 247.916509 58.775147 
L 249.007822 58.775147 
L 249.118022 57.195089 
L 249.178829 57.195089 
L 249.178829 56.668403 
L 249.303794 56.668403 
L 249.406218 54.561659 
L 249.450267 54.561659 
L 249.491963 53.508287 
L 249.567262 53.508287 
L 249.612355 50.874856 
L 249.711505 50.874856 
L 249.768431 49.294798 
L 250.021186 49.294798 
L 250.021186 48.768112 
L 251.080781 48.768112 
L 251.130938 47.188054 
L 251.29666 47.188054 
L 251.29666 46.661368 
L 251.927636 46.661368 
L 251.927636 46.134681 
L 252.109782 46.134681 
L 252.209445 44.027937 
L 252.671293 44.027937 
L 252.671293 43.501251 
L 252.802971 43.501251 
L 252.802971 42.974565 
L 254.140298 42.974565 
L 254.23546 41.394507 
L 254.30938 41.394507 
L 254.412669 39.814448 
L 254.458442 39.814448 
L 254.549396 38.23439 
L 256.27618 38.23439 
L 256.303807 37.181018 
L 256.443599 37.181018 
L 256.443599 36.654332 
L 256.558197 36.654332 
L 256.58716 35.60096 
L 256.754696 35.60096 
L 256.754696 35.074274 
L 259.113882 35.074274 
L 259.113882 34.547588 
L 260.026604 34.547588 
L 260.05197 32.967529 
L 261.102102 32.967529 
L 261.165056 31.914157 
L 264.314601 31.914157 
L 264.314601 31.387471 
L 265.689479 31.387471 
L 265.689479 30.860785 
L 266.668251 30.860785 
L 266.668251 30.334099 
L 338.688 30.334099 
L 338.688 30.334099 
" style="fill:none;stroke:#ff7500;stroke-linecap:square;stroke-width:1.5;"/>
   </g>
   <g id="line2d_45">
    <defs>
     <path d="M 0 -6 
L -1.347084 -1.854102 
L -5.706339 -1.854102 
L -2.179628 0.708204 
L -3.526712 4.854102 
L -0 2.291796 
L 3.526712 4.854102 
L 2.179628 0.708204 
L 5.706339 -1.854102 
L 1.347084 -1.854102 
z
" id="m40f08ae69c" style="stroke:#ff7500;stroke-linejoin:bevel;stroke-width:1.5;"/>
    </defs>
    <g>
     <use style="fill-opacity:0;stroke:#ff7500;stroke-linejoin:bevel;stroke-width:1.5;" x="173.549557" xlink:href="#m40f08ae69c" y="273.136382"/>
     <use style="fill-opacity:0;stroke:#ff7500;stroke-linejoin:bevel;stroke-width:1.5;" x="204.814714" xlink:href="#m40f08ae69c" y="194.13347"/>
     <use style="fill-opacity:0;stroke:#ff7500;stroke-linejoin:bevel;stroke-width:1.5;" x="261.165056" xlink:href="#m40f08ae69c" y="31.914157"/>
     <use style="fill-opacity:0;stroke:#ff7500;stroke-linejoin:bevel;stroke-width:1.5;" x="266.668251" xlink:href="#m40f08ae69c" y="30.334099"/>
     <use style="fill-opacity:0;stroke:#ff7500;stroke-linejoin:bevel;stroke-width:1.5;" x="338.688" xlink:href="#m40f08ae69c" y="30.334099"/>
    </g>
   </g>
   <g id="line2d_46">
    <path style="fill:none;stroke:#ff7500;stroke-linecap:square;stroke-width:1.5;"/>
    <g/>
   </g>
   <g id="line2d_47">
    <path clip-path="url(#pd595922872)" d="M 246.289154 71.415613 
" style="fill:none;stroke:#ff7500;stroke-linecap:square;stroke-width:1.5;"/>
    <defs>
     <path d="M -12 12 
L 12 -12 
M -12 -12 
L 12 12 
" id="mafa933a11f" style="stroke:#ff7500;"/>
    </defs>
    <g clip-path="url(#pd595922872)">
     <use style="fill:#ff7500;stroke:#ff7500;" x="246.289154" xlink:href="#mafa933a11f" y="71.415613"/>
    </g>
   </g>
   <g id="line2d_48">
    <path d="M 338.688 30.334099 
L 369.60768 293.571802 
" style="fill:none;stroke:#ff00ff;stroke-linecap:square;stroke-width:1.5;"/>
    <g>
     <use style="fill-opacity:0;stroke:#ff00ff;stroke-linejoin:miter;stroke-width:1.5;" x="338.688" xlink:href="#m0ace2055f3" y="30.334099"/>
     <use style="fill-opacity:0;stroke:#ff00ff;stroke-linejoin:miter;stroke-width:1.5;" x="369.60768" xlink:href="#m0ace2055f3" y="293.571802"/>
    </g>
   </g>
   <g id="line2d_49">
    <path d="M 338.688 30.334099 
L 369.60768 207.616634 
" style="fill:none;stroke:#ff7500;stroke-linecap:square;stroke-width:1.5;"/>
    <g>
     <use style="fill-opacity:0;stroke:#ff7500;stroke-linejoin:bevel;stroke-width:1.5;" x="338.688" xlink:href="#m40f08ae69c" y="30.334099"/>
     <use style="fill-opacity:0;stroke:#ff7500;stroke-linejoin:bevel;stroke-width:1.5;" x="369.60768" xlink:href="#m40f08ae69c" y="207.616634"/>
    </g>
   </g>
   <g id="line2d_50">
    <path d="M 338.688 30.334099 
L 369.60768 121.661465 
" style="fill:none;stroke:#000080;stroke-linecap:square;stroke-width:1.5;"/>
    <g>
     <use style="fill-opacity:0;stroke:#000080;stroke-width:1.5;" x="338.688" xlink:href="#m69c747f7e1" y="30.334099"/>
     <use style="fill-opacity:0;stroke:#000080;stroke-width:1.5;" x="369.60768" xlink:href="#m69c747f7e1" y="121.661465"/>
    </g>
   </g>
   <g id="line2d_51">
    <path d="M 338.688 298.944 
L 338.688 30.334099 
" style="fill:none;stroke:#000000;stroke-linecap:square;stroke-width:1.5;"/>
   </g>
   <g id="patch_3">
    <path d="M 57.6 298.944 
L 57.6 27.648 
" style="fill:none;stroke:#000000;stroke-linecap:square;stroke-linejoin:miter;stroke-width:0.8;"/>
   </g>
   <g id="patch_4">
    <path d="M 338.688 298.944 
L 338.688 27.648 
" style="fill:none;stroke:#000000;stroke-linecap:square;stroke-linejoin:miter;stroke-width:0.8;"/>
   </g>
   <g id="patch_5">
    <path d="M 57.6 298.944 
L 338.688 298.944 
" style="fill:none;stroke:#000000;stroke-linecap:square;stroke-linejoin:miter;stroke-width:0.8;"/>
   </g>
   <g id="patch_6">
    <path d="M 57.6 27.648 
L 338.688 27.648 
" style="fill:none;stroke:#000000;stroke-linecap:square;stroke-linejoin:miter;stroke-width:0.8;"/>
   </g>
   <g id="text_13">
    <!-- PSO -->
    <g transform="translate(375.22944 298.262739)scale(0.17 -0.17)">
     <defs>
      <path d="M 19.671875 64.796875 
L 19.671875 37.40625 
L 32.078125 37.40625 
Q 38.96875 37.40625 42.71875 40.96875 
Q 46.484375 44.53125 46.484375 51.125 
Q 46.484375 57.671875 42.71875 61.234375 
Q 38.96875 64.796875 32.078125 64.796875 
z
M 9.8125 72.90625 
L 32.078125 72.90625 
Q 44.34375 72.90625 50.609375 67.359375 
Q 56.890625 61.8125 56.890625 51.125 
Q 56.890625 40.328125 50.609375 34.8125 
Q 44.34375 29.296875 32.078125 29.296875 
L 19.671875 29.296875 
L 19.671875 0 
L 9.8125 0 
z
" id="DejaVuSans-80"/>
      <path d="M 53.515625 70.515625 
L 53.515625 60.890625 
Q 47.90625 63.578125 42.921875 64.890625 
Q 37.9375 66.21875 33.296875 66.21875 
Q 25.25 66.21875 20.875 63.09375 
Q 16.5 59.96875 16.5 54.203125 
Q 16.5 49.359375 19.40625 46.890625 
Q 22.3125 44.4375 30.421875 42.921875 
L 36.375 41.703125 
Q 47.40625 39.59375 52.65625 34.296875 
Q 57.90625 29 57.90625 20.125 
Q 57.90625 9.515625 50.796875 4.046875 
Q 43.703125 -1.421875 29.984375 -1.421875 
Q 24.8125 -1.421875 18.96875 -0.25 
Q 13.140625 0.921875 6.890625 3.21875 
L 6.890625 13.375 
Q 12.890625 10.015625 18.65625 8.296875 
Q 24.421875 6.59375 29.984375 6.59375 
Q 38.421875 6.59375 43.015625 9.90625 
Q 47.609375 13.234375 47.609375 19.390625 
Q 47.609375 24.75 44.3125 27.78125 
Q 41.015625 30.8125 33.5 32.328125 
L 27.484375 33.5 
Q 16.453125 35.6875 11.515625 40.375 
Q 6.59375 45.0625 6.59375 53.421875 
Q 6.59375 63.09375 13.40625 68.65625 
Q 20.21875 74.21875 32.171875 74.21875 
Q 37.3125 74.21875 42.625 73.28125 
Q 47.953125 72.359375 53.515625 70.515625 
z
" id="DejaVuSans-83"/>
      <path d="M 39.40625 66.21875 
Q 28.65625 66.21875 22.328125 58.203125 
Q 16.015625 50.203125 16.015625 36.375 
Q 16.015625 22.609375 22.328125 14.59375 
Q 28.65625 6.59375 39.40625 6.59375 
Q 50.140625 6.59375 56.421875 14.59375 
Q 62.703125 22.609375 62.703125 36.375 
Q 62.703125 50.203125 56.421875 58.203125 
Q 50.140625 66.21875 39.40625 66.21875 
z
M 39.40625 74.21875 
Q 54.734375 74.21875 63.90625 63.9375 
Q 73.09375 53.65625 73.09375 36.375 
Q 73.09375 19.140625 63.90625 8.859375 
Q 54.734375 -1.421875 39.40625 -1.421875 
Q 24.03125 -1.421875 14.8125 8.828125 
Q 5.609375 19.09375 5.609375 36.375 
Q 5.609375 53.65625 14.8125 63.9375 
Q 24.03125 74.21875 39.40625 74.21875 
z
" id="DejaVuSans-79"/>
     </defs>
     <use xlink:href="#DejaVuSans-80"/>
     <use x="60.302734" xlink:href="#DejaVuSans-83"/>
     <use x="123.779297" xlink:href="#DejaVuSans-79"/>
    </g>
   </g>
   <g id="text_14">
    <!-- DE -->
    <g transform="translate(375.22944 212.307571)scale(0.17 -0.17)">
     <defs>
      <path d="M 19.671875 64.796875 
L 19.671875 8.109375 
L 31.59375 8.109375 
Q 46.6875 8.109375 53.6875 14.9375 
Q 60.6875 21.78125 60.6875 36.53125 
Q 60.6875 51.171875 53.6875 57.984375 
Q 46.6875 64.796875 31.59375 64.796875 
z
M 9.8125 72.90625 
L 30.078125 72.90625 
Q 51.265625 72.90625 61.171875 64.09375 
Q 71.09375 55.28125 71.09375 36.53125 
Q 71.09375 17.671875 61.125 8.828125 
Q 51.171875 0 30.078125 0 
L 9.8125 0 
z
" id="DejaVuSans-68"/>
      <path d="M 9.8125 72.90625 
L 55.90625 72.90625 
L 55.90625 64.59375 
L 19.671875 64.59375 
L 19.671875 43.015625 
L 54.390625 43.015625 
L 54.390625 34.71875 
L 19.671875 34.71875 
L 19.671875 8.296875 
L 56.78125 8.296875 
L 56.78125 0 
L 9.8125 0 
z
" id="DejaVuSans-69"/>
     </defs>
     <use xlink:href="#DejaVuSans-68"/>
     <use x="77.001953" xlink:href="#DejaVuSans-69"/>
    </g>
   </g>
   <g id="text_15">
    <!-- BIPOP-CMA -->
    <g transform="translate(375.22944 126.352403)scale(0.17 -0.17)">
     <defs>
      <path d="M 19.671875 34.8125 
L 19.671875 8.109375 
L 35.5 8.109375 
Q 43.453125 8.109375 47.28125 11.40625 
Q 51.125 14.703125 51.125 21.484375 
Q 51.125 28.328125 47.28125 31.5625 
Q 43.453125 34.8125 35.5 34.8125 
z
M 19.671875 64.796875 
L 19.671875 42.828125 
L 34.28125 42.828125 
Q 41.5 42.828125 45.03125 45.53125 
Q 48.578125 48.25 48.578125 53.8125 
Q 48.578125 59.328125 45.03125 62.0625 
Q 41.5 64.796875 34.28125 64.796875 
z
M 9.8125 72.90625 
L 35.015625 72.90625 
Q 46.296875 72.90625 52.390625 68.21875 
Q 58.5 63.53125 58.5 54.890625 
Q 58.5 48.1875 55.375 44.234375 
Q 52.25 40.28125 46.1875 39.3125 
Q 53.46875 37.75 57.5 32.78125 
Q 61.53125 27.828125 61.53125 20.40625 
Q 61.53125 10.640625 54.890625 5.3125 
Q 48.25 0 35.984375 0 
L 9.8125 0 
z
" id="DejaVuSans-66"/>
      <path d="M 9.8125 72.90625 
L 19.671875 72.90625 
L 19.671875 0 
L 9.8125 0 
z
" id="DejaVuSans-73"/>
      <path d="M 64.40625 67.28125 
L 64.40625 56.890625 
Q 59.421875 61.53125 53.78125 63.8125 
Q 48.140625 66.109375 41.796875 66.109375 
Q 29.296875 66.109375 22.65625 58.46875 
Q 16.015625 50.828125 16.015625 36.375 
Q 16.015625 21.96875 22.65625 14.328125 
Q 29.296875 6.6875 41.796875 6.6875 
Q 48.140625 6.6875 53.78125 8.984375 
Q 59.421875 11.28125 64.40625 15.921875 
L 64.40625 5.609375 
Q 59.234375 2.09375 53.4375 0.328125 
Q 47.65625 -1.421875 41.21875 -1.421875 
Q 24.65625 -1.421875 15.125 8.703125 
Q 5.609375 18.84375 5.609375 36.375 
Q 5.609375 53.953125 15.125 64.078125 
Q 24.65625 74.21875 41.21875 74.21875 
Q 47.75 74.21875 53.53125 72.484375 
Q 59.328125 70.75 64.40625 67.28125 
z
" id="DejaVuSans-67"/>
      <path d="M 9.8125 72.90625 
L 24.515625 72.90625 
L 43.109375 23.296875 
L 61.8125 72.90625 
L 76.515625 72.90625 
L 76.515625 0 
L 66.890625 0 
L 66.890625 64.015625 
L 48.09375 14.015625 
L 38.1875 14.015625 
L 19.390625 64.015625 
L 19.390625 0 
L 9.8125 0 
z
" id="DejaVuSans-77"/>
      <path d="M 34.1875 63.1875 
L 20.796875 26.90625 
L 47.609375 26.90625 
z
M 28.609375 72.90625 
L 39.796875 72.90625 
L 67.578125 0 
L 57.328125 0 
L 50.6875 18.703125 
L 17.828125 18.703125 
L 11.1875 0 
L 0.78125 0 
z
" id="DejaVuSans-65"/>
     </defs>
     <use xlink:href="#DejaVuSans-66"/>
     <use x="68.603516" xlink:href="#DejaVuSans-73"/>
     <use x="98.095703" xlink:href="#DejaVuSans-80"/>
     <use x="158.398438" xlink:href="#DejaVuSans-79"/>
     <use x="237.109375" xlink:href="#DejaVuSans-80"/>
     <use x="295.162109" xlink:href="#DejaVuSans-45"/>
     <use x="331.246094" xlink:href="#DejaVuSans-67"/>
     <use x="401.070312" xlink:href="#DejaVuSans-77"/>
     <use x="487.349609" xlink:href="#DejaVuSans-65"/>
    </g>
   </g>
   <g id="text_16">
    <!-- best 2009 -->
    <g transform="translate(375.22944 40.397235)scale(0.17 -0.17)">
     <defs>
      <path d="M 48.6875 27.296875 
Q 48.6875 37.203125 44.609375 42.84375 
Q 40.53125 48.484375 33.40625 48.484375 
Q 26.265625 48.484375 22.1875 42.84375 
Q 18.109375 37.203125 18.109375 27.296875 
Q 18.109375 17.390625 22.1875 11.75 
Q 26.265625 6.109375 33.40625 6.109375 
Q 40.53125 6.109375 44.609375 11.75 
Q 48.6875 17.390625 48.6875 27.296875 
z
M 18.109375 46.390625 
Q 20.953125 51.265625 25.265625 53.625 
Q 29.59375 56 35.59375 56 
Q 45.5625 56 51.78125 48.09375 
Q 58.015625 40.1875 58.015625 27.296875 
Q 58.015625 14.40625 51.78125 6.484375 
Q 45.5625 -1.421875 35.59375 -1.421875 
Q 29.59375 -1.421875 25.265625 0.953125 
Q 20.953125 3.328125 18.109375 8.203125 
L 18.109375 0 
L 9.078125 0 
L 9.078125 75.984375 
L 18.109375 75.984375 
z
" id="DejaVuSans-98"/>
      <path d="M 10.984375 1.515625 
L 10.984375 10.5 
Q 14.703125 8.734375 18.5 7.8125 
Q 22.3125 6.890625 25.984375 6.890625 
Q 35.75 6.890625 40.890625 13.453125 
Q 46.046875 20.015625 46.78125 33.40625 
Q 43.953125 29.203125 39.59375 26.953125 
Q 35.25 24.703125 29.984375 24.703125 
Q 19.046875 24.703125 12.671875 31.3125 
Q 6.296875 37.9375 6.296875 49.421875 
Q 6.296875 60.640625 12.9375 67.421875 
Q 19.578125 74.21875 30.609375 74.21875 
Q 43.265625 74.21875 49.921875 64.515625 
Q 56.59375 54.828125 56.59375 36.375 
Q 56.59375 19.140625 48.40625 8.859375 
Q 40.234375 -1.421875 26.421875 -1.421875 
Q 22.703125 -1.421875 18.890625 -0.6875 
Q 15.09375 0.046875 10.984375 1.515625 
z
M 30.609375 32.421875 
Q 37.25 32.421875 41.125 36.953125 
Q 45.015625 41.5 45.015625 49.421875 
Q 45.015625 57.28125 41.125 61.84375 
Q 37.25 66.40625 30.609375 66.40625 
Q 23.96875 66.40625 20.09375 61.84375 
Q 16.21875 57.28125 16.21875 49.421875 
Q 16.21875 41.5 20.09375 36.953125 
Q 23.96875 32.421875 30.609375 32.421875 
z
" id="DejaVuSans-57"/>
     </defs>
     <use xlink:href="#DejaVuSans-98"/>
     <use x="63.476562" xlink:href="#DejaVuSans-101"/>
     <use x="125" xlink:href="#DejaVuSans-115"/>
     <use x="177.099609" xlink:href="#DejaVuSans-116"/>
     <use x="216.308594" xlink:href="#DejaVuSans-32"/>
     <use x="248.095703" xlink:href="#DejaVuSans-50"/>
     <use x="311.71875" xlink:href="#DejaVuSans-48"/>
     <use x="375.341797" xlink:href="#DejaVuSans-48"/>
     <use x="438.964844" xlink:href="#DejaVuSans-57"/>
    </g>
   </g>
   <g id="text_17">
    <!-- bbob f21, 40-D -->
    <g transform="translate(60.41088 38.111366)scale(0.102 -0.102)">
     <use xlink:href="#DejaVuSans-98"/>
     <use x="63.476562" xlink:href="#DejaVuSans-98"/>
     <use x="126.953125" xlink:href="#DejaVuSans-111"/>
     <use x="188.134766" xlink:href="#DejaVuSans-98"/>
     <use x="251.611328" xlink:href="#DejaVuSans-32"/>
     <use x="283.398438" xlink:href="#DejaVuSans-102"/>
     <use x="318.603516" xlink:href="#DejaVuSans-50"/>
     <use x="382.226562" xlink:href="#DejaVuSans-49"/>
     <use x="445.849609" xlink:href="#DejaVuSans-44"/>
     <use x="477.636719" xlink:href="#DejaVuSans-32"/>
     <use x="509.423828" xlink:href="#DejaVuSans-52"/>
     <use x="573.046875" xlink:href="#DejaVuSans-48"/>
     <use x="636.669922" xlink:href="#DejaVuSans-45"/>
     <use x="672.753906" xlink:href="#DejaVuSans-68"/>
    </g>
    <!-- 51 targets: 100..1e-08 -->
    <g transform="translate(60.41088 49.533135)scale(0.102 -0.102)">
     <defs>
      <path d="M 10.796875 72.90625 
L 49.515625 72.90625 
L 49.515625 64.59375 
L 19.828125 64.59375 
L 19.828125 46.734375 
Q 21.96875 47.46875 24.109375 47.828125 
Q 26.265625 48.1875 28.421875 48.1875 
Q 40.625 48.1875 47.75 41.5 
Q 54.890625 34.8125 54.890625 23.390625 
Q 54.890625 11.625 47.5625 5.09375 
Q 40.234375 -1.421875 26.90625 -1.421875 
Q 22.3125 -1.421875 17.546875 -0.640625 
Q 12.796875 0.140625 7.71875 1.703125 
L 7.71875 11.625 
Q 12.109375 9.234375 16.796875 8.0625 
Q 21.484375 6.890625 26.703125 6.890625 
Q 35.15625 6.890625 40.078125 11.328125 
Q 45.015625 15.765625 45.015625 23.390625 
Q 45.015625 31 40.078125 35.4375 
Q 35.15625 39.890625 26.703125 39.890625 
Q 22.75 39.890625 18.8125 39.015625 
Q 14.890625 38.140625 10.796875 36.28125 
z
" id="DejaVuSans-53"/>
      <path d="M 11.71875 12.40625 
L 22.015625 12.40625 
L 22.015625 0 
L 11.71875 0 
z
M 11.71875 51.703125 
L 22.015625 51.703125 
L 22.015625 39.3125 
L 11.71875 39.3125 
z
" id="DejaVuSans-58"/>
     </defs>
     <use xlink:href="#DejaVuSans-53"/>
     <use x="63.623047" xlink:href="#DejaVuSans-49"/>
     <use x="127.246094" xlink:href="#DejaVuSans-32"/>
     <use x="159.033203" xlink:href="#DejaVuSans-116"/>
     <use x="198.242188" xlink:href="#DejaVuSans-97"/>
     <use x="259.521484" xlink:href="#DejaVuSans-114"/>
     <use x="298.884766" xlink:href="#DejaVuSans-103"/>
     <use x="362.361328" xlink:href="#DejaVuSans-101"/>
     <use x="423.884766" xlink:href="#DejaVuSans-116"/>
     <use x="463.09375" xlink:href="#DejaVuSans-115"/>
     <use x="515.193359" xlink:href="#DejaVuSans-58"/>
     <use x="548.884766" xlink:href="#DejaVuSans-32"/>
     <use x="580.671875" xlink:href="#DejaVuSans-49"/>
     <use x="644.294922" xlink:href="#DejaVuSans-48"/>
     <use x="707.917969" xlink:href="#DejaVuSans-48"/>
     <use x="771.541016" xlink:href="#DejaVuSans-46"/>
     <use x="803.328125" xlink:href="#DejaVuSans-46"/>
     <use x="835.115234" xlink:href="#DejaVuSans-49"/>
     <use x="898.738281" xlink:href="#DejaVuSans-101"/>
     <use x="960.261719" xlink:href="#DejaVuSans-45"/>
     <use x="996.345703" xlink:href="#DejaVuSans-48"/>
     <use x="1059.96875" xlink:href="#DejaVuSans-56"/>
    </g>
    <!-- 15 instances -->
    <g transform="translate(60.41088 60.954904)scale(0.102 -0.102)">
     <use xlink:href="#DejaVuSans-49"/>
     <use x="63.623047" xlink:href="#DejaVuSans-53"/>
     <use x="127.246094" xlink:href="#DejaVuSans-32"/>
     <use x="159.033203" xlink:href="#DejaVuSans-105"/>
     <use x="186.816406" xlink:href="#DejaVuSans-110"/>
     <use x="250.195312" xlink:href="#DejaVuSans-115"/>
     <use x="302.294922" xlink:href="#DejaVuSans-116"/>
     <use x="341.503906" xlink:href="#DejaVuSans-97"/>
     <use x="402.783203" xlink:href="#DejaVuSans-110"/>
     <use x="466.162109" xlink:href="#DejaVuSans-99"/>
     <use x="521.142578" xlink:href="#DejaVuSans-101"/>
     <use x="582.666016" xlink:href="#DejaVuSans-115"/>
    </g>
   </g>
   <g id="text_18">
    <!-- v2.4 -->
    <g style="fill:#808080;" transform="translate(187.233062 294.151352)scale(0.1 -0.1)">
     <use xlink:href="#DejaVuSans-118"/>
     <use x="59.179688" xlink:href="#DejaVuSans-50"/>
     <use x="122.802734" xlink:href="#DejaVuSans-46"/>
     <use x="154.589844" xlink:href="#DejaVuSans-52"/>
    </g>
   </g>
   <g id="text_19">
    <!-- 21 Gallagher 101 peaks -->
    <g transform="translate(78.6565 21.648)scale(0.2 -0.2)">
     <defs>
      <path d="M 59.515625 10.40625 
L 59.515625 29.984375 
L 43.40625 29.984375 
L 43.40625 38.09375 
L 69.28125 38.09375 
L 69.28125 6.78125 
Q 63.578125 2.734375 56.6875 0.65625 
Q 49.8125 -1.421875 42 -1.421875 
Q 24.90625 -1.421875 15.25 8.5625 
Q 5.609375 18.5625 5.609375 36.375 
Q 5.609375 54.25 15.25 64.234375 
Q 24.90625 74.21875 42 74.21875 
Q 49.125 74.21875 55.546875 72.453125 
Q 61.96875 70.703125 67.390625 67.28125 
L 67.390625 56.78125 
Q 61.921875 61.421875 55.765625 63.765625 
Q 49.609375 66.109375 42.828125 66.109375 
Q 29.4375 66.109375 22.71875 58.640625 
Q 16.015625 51.171875 16.015625 36.375 
Q 16.015625 21.625 22.71875 14.15625 
Q 29.4375 6.6875 42.828125 6.6875 
Q 48.046875 6.6875 52.140625 7.59375 
Q 56.25 8.5 59.515625 10.40625 
z
" id="DejaVuSans-71"/>
      <path d="M 54.890625 33.015625 
L 54.890625 0 
L 45.90625 0 
L 45.90625 32.71875 
Q 45.90625 40.484375 42.875 44.328125 
Q 39.84375 48.1875 33.796875 48.1875 
Q 26.515625 48.1875 22.3125 43.546875 
Q 18.109375 38.921875 18.109375 30.90625 
L 18.109375 0 
L 9.078125 0 
L 9.078125 75.984375 
L 18.109375 75.984375 
L 18.109375 46.1875 
Q 21.34375 51.125 25.703125 53.5625 
Q 30.078125 56 35.796875 56 
Q 45.21875 56 50.046875 50.171875 
Q 54.890625 44.34375 54.890625 33.015625 
z
" id="DejaVuSans-104"/>
      <path d="M 9.078125 75.984375 
L 18.109375 75.984375 
L 18.109375 31.109375 
L 44.921875 54.6875 
L 56.390625 54.6875 
L 27.390625 29.109375 
L 57.625 0 
L 45.90625 0 
L 18.109375 26.703125 
L 18.109375 0 
L 9.078125 0 
z
" id="DejaVuSans-107"/>
     </defs>
     <use xlink:href="#DejaVuSans-50"/>
     <use x="63.623047" xlink:href="#DejaVuSans-49"/>
     <use x="127.246094" xlink:href="#DejaVuSans-32"/>
     <use x="159.033203" xlink:href="#DejaVuSans-71"/>
     <use x="236.523438" xlink:href="#DejaVuSans-97"/>
     <use x="297.802734" xlink:href="#DejaVuSans-108"/>
     <use x="325.585938" xlink:href="#DejaVuSans-108"/>
     <use x="353.369141" xlink:href="#DejaVuSans-97"/>
     <use x="414.648438" xlink:href="#DejaVuSans-103"/>
     <use x="478.125" xlink:href="#DejaVuSans-104"/>
     <use x="541.503906" xlink:href="#DejaVuSans-101"/>
     <use x="603.027344" xlink:href="#DejaVuSans-114"/>
     <use x="644.140625" xlink:href="#DejaVuSans-32"/>
     <use x="675.927734" xlink:href="#DejaVuSans-49"/>
     <use x="739.550781" xlink:href="#DejaVuSans-48"/>
     <use x="803.173828" xlink:href="#DejaVuSans-49"/>
     <use x="866.796875" xlink:href="#DejaVuSans-32"/>
     <use x="898.583984" xlink:href="#DejaVuSans-112"/>
     <use x="962.060547" xlink:href="#DejaVuSans-101"/>
     <use x="1023.583984" xlink:href="#DejaVuSans-97"/>
     <use x="1084.863281" xlink:href="#DejaVuSans-107"/>
     <use x="1142.773438" xlink:href="#DejaVuSans-115"/>
    </g>
   </g>
  </g>
 </g>
 <defs>
  <clipPath id="pd595922872">
   <rect height="271.296" width="281.088" x="57.6" y="27.648"/>
  </clipPath>
 </defs>
</svg>
