<?xml version="1.0" encoding="utf-8" standalone="no"?>
<!DOCTYPE svg PUBLIC "-//W3C//DTD SVG 1.1//EN"
  "http://www.w3.org/Graphics/SVG/1.1/DTD/svg11.dtd">
<!-- Created with matplotlib (https://matplotlib.org/) -->
<svg height="345.6pt" version="1.1" viewBox="0 0 460.8 345.6" width="460.8pt" xmlns="http://www.w3.org/2000/svg" xmlns:xlink="http://www.w3.org/1999/xlink">
 <metadata>
  <rdf:RDF xmlns:cc="http://creativecommons.org/ns#" xmlns:dc="http://purl.org/dc/elements/1.1/" xmlns:rdf="http://www.w3.org/1999/02/22-rdf-syntax-ns#">
   <cc:Work>
    <dc:type rdf:resource="http://purl.org/dc/dcmitype/StillImage"/>
    <dc:date>2021-05-01T17:07:36.821175</dc:date>
    <dc:format>image/svg+xml</dc:format>
    <dc:creator>
     <cc:Agent>
      <dc:title>Matplotlib v3.3.2, https://matplotlib.org/</dc:title>
     </cc:Agent>
    </dc:creator>
   </cc:Work>
  </rdf:RDF>
 </metadata>
 <defs>
  <style type="text/css">*{stroke-linecap:butt;stroke-linejoin:round;}</style>
 </defs>
 <g id="figure_1">
  <g id="patch_1">
   <path d="M 0 345.6 
L 460.8 345.6 
L 460.8 0 
L 0 0 
z
" style="fill:#ffffff;"/>
  </g>
  <g id="axes_1">
   <g id="patch_2">
    <path d="M 57.6 298.944 
L 338.688 298.944 
L 338.688 27.648 
L 57.6 27.648 
z
" style="fill:#ffffff;"/>
   </g>
   <g id="line2d_1">
    <path d="M 122.104932 298.944 
L 122.104932 293.677139 
L 126.72349 293.677139 
L 126.72349 288.410278 
L 129.468457 288.410278 
L 129.468457 283.143418 
L 143.150923 283.143418 
L 143.150923 277.876557 
L 146.074653 277.876557 
L 146.074653 272.609696 
L 147.86833 272.609696 
L 147.86833 267.342835 
L 149.049169 267.342835 
L 149.049169 262.075974 
L 154.288574 262.075974 
L 154.288574 256.809114 
L 154.626195 256.809114 
L 154.626195 251.542253 
L 154.832284 251.542253 
L 154.832284 246.275392 
L 154.996729 246.275392 
L 154.996729 241.008531 
L 155.14017 241.008531 
L 155.14017 235.74167 
L 155.292098 235.74167 
L 155.292098 230.47481 
L 155.394786 230.47481 
L 155.394786 225.207949 
L 155.492101 225.207949 
L 155.492101 219.941088 
L 155.571464 219.941088 
L 155.571464 214.674227 
L 155.689836 214.674227 
L 155.689836 209.407366 
L 155.773004 209.407366 
L 155.773004 204.140506 
L 155.851102 204.140506 
L 155.851102 198.873645 
L 155.911776 198.873645 
L 155.911776 193.606784 
L 155.967597 193.606784 
L 155.967597 188.339923 
L 156.024783 188.339923 
L 156.024783 183.073062 
L 156.072551 183.073062 
L 156.072551 177.806202 
L 156.126326 177.806202 
L 156.126326 172.539341 
L 156.173818 172.539341 
L 156.173818 167.27248 
L 156.22118 167.27248 
L 156.22118 162.005619 
L 156.266892 162.005619 
L 156.266892 156.738758 
L 156.307931 156.738758 
L 156.307931 151.471897 
L 156.353417 151.471897 
L 156.353417 146.205037 
L 156.395764 146.205037 
L 156.395764 140.938176 
L 156.444035 140.938176 
L 156.444035 135.671315 
L 156.493674 135.671315 
L 156.493674 130.404454 
L 156.526689 130.404454 
L 156.526689 125.137593 
L 156.565626 125.137593 
L 156.565626 119.870733 
L 156.598505 119.870733 
L 156.598505 114.603872 
L 156.629832 114.603872 
L 156.629832 109.337011 
L 156.670026 109.337011 
L 156.670026 104.07015 
L 156.702709 104.07015 
L 156.702709 98.803289 
L 156.744217 98.803289 
L 156.744217 93.536429 
L 156.776762 93.536429 
L 156.776762 88.269568 
L 156.816619 88.269568 
L 156.816619 83.002707 
L 156.854915 83.002707 
L 156.854915 77.735846 
L 156.896063 77.735846 
L 156.896063 72.468985 
L 156.938578 72.468985 
L 156.938578 67.202125 
L 156.979529 67.202125 
L 156.979529 61.935264 
L 157.024756 61.935264 
L 157.024756 56.668403 
L 157.062598 56.668403 
L 157.062598 51.401542 
L 157.10616 51.401542 
L 157.10616 46.134681 
L 157.143825 46.134681 
L 157.143825 40.867821 
L 157.185742 40.867821 
L 157.185742 35.60096 
L 157.226117 35.60096 
L 157.226117 30.334099 
L 338.688 30.334099 
" style="fill:none;stroke:#f5deb3;stroke-linecap:square;stroke-width:4;"/>
   </g>
   <g id="line2d_2">
    <defs>
     <path d="M -0 7.778175 
L 7.778175 0 
L 0 -7.778175 
L -7.778175 -0 
z
" id="mbfa1e173c2" style="stroke:#f5deb3;stroke-linejoin:miter;stroke-width:1.5;"/>
    </defs>
    <g>
     <use style="fill:#f5deb3;stroke:#f5deb3;stroke-linejoin:miter;stroke-width:1.5;" x="156.024783" xlink:href="#mbfa1e173c2" y="188.339923"/>
     <use style="fill:#f5deb3;stroke:#f5deb3;stroke-linejoin:miter;stroke-width:1.5;" x="157.10616" xlink:href="#mbfa1e173c2" y="46.134681"/>
     <use style="fill:#f5deb3;stroke:#f5deb3;stroke-linejoin:miter;stroke-width:1.5;" x="157.226117" xlink:href="#mbfa1e173c2" y="30.334099"/>
     <use style="fill:#f5deb3;stroke:#f5deb3;stroke-linejoin:miter;stroke-width:1.5;" x="157.226117" xlink:href="#mbfa1e173c2" y="30.334099"/>
     <use style="fill:#f5deb3;stroke:#f5deb3;stroke-linejoin:miter;stroke-width:1.5;" x="338.688" xlink:href="#mbfa1e173c2" y="30.334099"/>
    </g>
   </g>
   <g id="line2d_3">
    <path style="fill:none;stroke:#f5deb3;stroke-linecap:square;stroke-width:4;"/>
    <g/>
   </g>
   <g id="line2d_4">
    <path d="M 338.688 30.334099 
L 369.60768 35.706297 
" style="fill:none;stroke:#f5deb3;stroke-linecap:square;stroke-width:4;"/>
    <g>
     <use style="fill:#f5deb3;stroke:#f5deb3;stroke-linejoin:miter;stroke-width:1.5;" x="338.688" xlink:href="#mbfa1e173c2" y="30.334099"/>
     <use style="fill:#f5deb3;stroke:#f5deb3;stroke-linejoin:miter;stroke-width:1.5;" x="369.60768" xlink:href="#mbfa1e173c2" y="35.706297"/>
    </g>
   </g>
   <g id="matplotlib.axis_1">
    <g id="xtick_1">
     <g id="line2d_5">
      <path clip-path="url(#p0375aea1e5)" d="M 57.6 298.944 
L 57.6 27.648 
" style="fill:none;stroke:#b0b0b0;stroke-linecap:square;stroke-width:0.8;"/>
     </g>
     <g id="line2d_6">
      <defs>
       <path d="M 0 0 
L 0 3.5 
" id="m380482363a" style="stroke:#000000;stroke-width:0.8;"/>
      </defs>
      <g>
       <use style="stroke:#000000;stroke-width:0.8;" x="57.6" xlink:href="#m380482363a" y="298.944"/>
      </g>
     </g>
     <g id="text_1">
      <!-- 0 -->
      <g transform="translate(51.2375 321.140875)scale(0.2 -0.2)">
       <defs>
        <path d="M 31.78125 66.40625 
Q 24.171875 66.40625 20.328125 58.90625 
Q 16.5 51.421875 16.5 36.375 
Q 16.5 21.390625 20.328125 13.890625 
Q 24.171875 6.390625 31.78125 6.390625 
Q 39.453125 6.390625 43.28125 13.890625 
Q 47.125 21.390625 47.125 36.375 
Q 47.125 51.421875 43.28125 58.90625 
Q 39.453125 66.40625 31.78125 66.40625 
z
M 31.78125 74.21875 
Q 44.046875 74.21875 50.515625 64.515625 
Q 56.984375 54.828125 56.984375 36.375 
Q 56.984375 17.96875 50.515625 8.265625 
Q 44.046875 -1.421875 31.78125 -1.421875 
Q 19.53125 -1.421875 13.0625 8.265625 
Q 6.59375 17.96875 6.59375 36.375 
Q 6.59375 54.828125 13.0625 64.515625 
Q 19.53125 74.21875 31.78125 74.21875 
z
" id="DejaVuSans-48"/>
       </defs>
       <use xlink:href="#DejaVuSans-48"/>
      </g>
     </g>
    </g>
    <g id="xtick_2">
     <g id="line2d_7">
      <path clip-path="url(#p0375aea1e5)" d="M 137.910857 298.944 
L 137.910857 27.648 
" style="fill:none;stroke:#b0b0b0;stroke-linecap:square;stroke-width:0.8;"/>
     </g>
     <g id="line2d_8">
      <g>
       <use style="stroke:#000000;stroke-width:0.8;" x="137.910857" xlink:href="#m380482363a" y="298.944"/>
      </g>
     </g>
     <g id="text_2">
      <!-- 2 -->
      <g transform="translate(131.548357 321.140875)scale(0.2 -0.2)">
       <defs>
        <path d="M 19.1875 8.296875 
L 53.609375 8.296875 
L 53.609375 0 
L 7.328125 0 
L 7.328125 8.296875 
Q 12.9375 14.109375 22.625 23.890625 
Q 32.328125 33.6875 34.8125 36.53125 
Q 39.546875 41.84375 41.421875 45.53125 
Q 43.3125 49.21875 43.3125 52.78125 
Q 43.3125 58.59375 39.234375 62.25 
Q 35.15625 65.921875 28.609375 65.921875 
Q 23.96875 65.921875 18.8125 64.3125 
Q 13.671875 62.703125 7.8125 59.421875 
L 7.8125 69.390625 
Q 13.765625 71.78125 18.9375 73 
Q 24.125 74.21875 28.421875 74.21875 
Q 39.75 74.21875 46.484375 68.546875 
Q 53.21875 62.890625 53.21875 53.421875 
Q 53.21875 48.921875 51.53125 44.890625 
Q 49.859375 40.875 45.40625 35.40625 
Q 44.1875 33.984375 37.640625 27.21875 
Q 31.109375 20.453125 19.1875 8.296875 
z
" id="DejaVuSans-50"/>
       </defs>
       <use xlink:href="#DejaVuSans-50"/>
      </g>
     </g>
    </g>
    <g id="xtick_3">
     <g id="line2d_9">
      <path clip-path="url(#p0375aea1e5)" d="M 218.221714 298.944 
L 218.221714 27.648 
" style="fill:none;stroke:#b0b0b0;stroke-linecap:square;stroke-width:0.8;"/>
     </g>
     <g id="line2d_10">
      <g>
       <use style="stroke:#000000;stroke-width:0.8;" x="218.221714" xlink:href="#m380482363a" y="298.944"/>
      </g>
     </g>
     <g id="text_3">
      <!-- 4 -->
      <g transform="translate(211.859214 321.140875)scale(0.2 -0.2)">
       <defs>
        <path d="M 37.796875 64.3125 
L 12.890625 25.390625 
L 37.796875 25.390625 
z
M 35.203125 72.90625 
L 47.609375 72.90625 
L 47.609375 25.390625 
L 58.015625 25.390625 
L 58.015625 17.1875 
L 47.609375 17.1875 
L 47.609375 0 
L 37.796875 0 
L 37.796875 17.1875 
L 4.890625 17.1875 
L 4.890625 26.703125 
z
" id="DejaVuSans-52"/>
       </defs>
       <use xlink:href="#DejaVuSans-52"/>
      </g>
     </g>
    </g>
    <g id="xtick_4">
     <g id="line2d_11">
      <path clip-path="url(#p0375aea1e5)" d="M 298.532571 298.944 
L 298.532571 27.648 
" style="fill:none;stroke:#b0b0b0;stroke-linecap:square;stroke-width:0.8;"/>
     </g>
     <g id="line2d_12">
      <g>
       <use style="stroke:#000000;stroke-width:0.8;" x="298.532571" xlink:href="#m380482363a" y="298.944"/>
      </g>
     </g>
     <g id="text_4">
      <!-- 6 -->
      <g transform="translate(292.170071 321.140875)scale(0.2 -0.2)">
       <defs>
        <path d="M 33.015625 40.375 
Q 26.375 40.375 22.484375 35.828125 
Q 18.609375 31.296875 18.609375 23.390625 
Q 18.609375 15.53125 22.484375 10.953125 
Q 26.375 6.390625 33.015625 6.390625 
Q 39.65625 6.390625 43.53125 10.953125 
Q 47.40625 15.53125 47.40625 23.390625 
Q 47.40625 31.296875 43.53125 35.828125 
Q 39.65625 40.375 33.015625 40.375 
z
M 52.59375 71.296875 
L 52.59375 62.3125 
Q 48.875 64.0625 45.09375 64.984375 
Q 41.3125 65.921875 37.59375 65.921875 
Q 27.828125 65.921875 22.671875 59.328125 
Q 17.53125 52.734375 16.796875 39.40625 
Q 19.671875 43.65625 24.015625 45.921875 
Q 28.375 48.1875 33.59375 48.1875 
Q 44.578125 48.1875 50.953125 41.515625 
Q 57.328125 34.859375 57.328125 23.390625 
Q 57.328125 12.15625 50.6875 5.359375 
Q 44.046875 -1.421875 33.015625 -1.421875 
Q 20.359375 -1.421875 13.671875 8.265625 
Q 6.984375 17.96875 6.984375 36.375 
Q 6.984375 53.65625 15.1875 63.9375 
Q 23.390625 74.21875 37.203125 74.21875 
Q 40.921875 74.21875 44.703125 73.484375 
Q 48.484375 72.75 52.59375 71.296875 
z
" id="DejaVuSans-54"/>
       </defs>
       <use xlink:href="#DejaVuSans-54"/>
      </g>
     </g>
    </g>
    <g id="xtick_5">
     <g id="line2d_13">
      <path clip-path="url(#p0375aea1e5)" d="M 97.755429 298.944 
L 97.755429 27.648 
" style="fill:none;stroke:#b0b0b0;stroke-linecap:square;stroke-width:0.8;"/>
     </g>
     <g id="line2d_14">
      <defs>
       <path d="M 0 0 
L 0 2 
" id="mb707fef19e" style="stroke:#000000;stroke-width:0.6;"/>
      </defs>
      <g>
       <use style="stroke:#000000;stroke-width:0.6;" x="97.755429" xlink:href="#mb707fef19e" y="298.944"/>
      </g>
     </g>
    </g>
    <g id="xtick_6">
     <g id="line2d_15">
      <path clip-path="url(#p0375aea1e5)" d="M 178.066286 298.944 
L 178.066286 27.648 
" style="fill:none;stroke:#b0b0b0;stroke-linecap:square;stroke-width:0.8;"/>
     </g>
     <g id="line2d_16">
      <g>
       <use style="stroke:#000000;stroke-width:0.6;" x="178.066286" xlink:href="#mb707fef19e" y="298.944"/>
      </g>
     </g>
    </g>
    <g id="xtick_7">
     <g id="line2d_17">
      <path clip-path="url(#p0375aea1e5)" d="M 258.377143 298.944 
L 258.377143 27.648 
" style="fill:none;stroke:#b0b0b0;stroke-linecap:square;stroke-width:0.8;"/>
     </g>
     <g id="line2d_18">
      <g>
       <use style="stroke:#000000;stroke-width:0.6;" x="258.377143" xlink:href="#mb707fef19e" y="298.944"/>
      </g>
     </g>
    </g>
    <g id="xtick_8">
     <g id="line2d_19">
      <path clip-path="url(#p0375aea1e5)" d="M 338.688 298.944 
L 338.688 27.648 
" style="fill:none;stroke:#b0b0b0;stroke-linecap:square;stroke-width:0.8;"/>
     </g>
     <g id="line2d_20">
      <g>
       <use style="stroke:#000000;stroke-width:0.6;" x="338.688" xlink:href="#mb707fef19e" y="298.944"/>
      </g>
     </g>
    </g>
    <g id="text_5">
     <!-- log10(# f-evals / dimension) -->
     <g transform="translate(77.764078 342.217594)scale(0.17 -0.17)">
      <defs>
       <path d="M 9.421875 75.984375 
L 18.40625 75.984375 
L 18.40625 0 
L 9.421875 0 
z
" id="DejaVuSans-108"/>
       <path d="M 30.609375 48.390625 
Q 23.390625 48.390625 19.1875 42.75 
Q 14.984375 37.109375 14.984375 27.296875 
Q 14.984375 17.484375 19.15625 11.84375 
Q 23.34375 6.203125 30.609375 6.203125 
Q 37.796875 6.203125 41.984375 11.859375 
Q 46.1875 17.53125 46.1875 27.296875 
Q 46.1875 37.015625 41.984375 42.703125 
Q 37.796875 48.390625 30.609375 48.390625 
z
M 30.609375 56 
Q 42.328125 56 49.015625 48.375 
Q 55.71875 40.765625 55.71875 27.296875 
Q 55.71875 13.875 49.015625 6.21875 
Q 42.328125 -1.421875 30.609375 -1.421875 
Q 18.84375 -1.421875 12.171875 6.21875 
Q 5.515625 13.875 5.515625 27.296875 
Q 5.515625 40.765625 12.171875 48.375 
Q 18.84375 56 30.609375 56 
z
" id="DejaVuSans-111"/>
       <path d="M 45.40625 27.984375 
Q 45.40625 37.75 41.375 43.109375 
Q 37.359375 48.484375 30.078125 48.484375 
Q 22.859375 48.484375 18.828125 43.109375 
Q 14.796875 37.75 14.796875 27.984375 
Q 14.796875 18.265625 18.828125 12.890625 
Q 22.859375 7.515625 30.078125 7.515625 
Q 37.359375 7.515625 41.375 12.890625 
Q 45.40625 18.265625 45.40625 27.984375 
z
M 54.390625 6.78125 
Q 54.390625 -7.171875 48.1875 -13.984375 
Q 42 -20.796875 29.203125 -20.796875 
Q 24.46875 -20.796875 20.265625 -20.09375 
Q 16.0625 -19.390625 12.109375 -17.921875 
L 12.109375 -9.1875 
Q 16.0625 -11.328125 19.921875 -12.34375 
Q 23.78125 -13.375 27.78125 -13.375 
Q 36.625 -13.375 41.015625 -8.765625 
Q 45.40625 -4.15625 45.40625 5.171875 
L 45.40625 9.625 
Q 42.625 4.78125 38.28125 2.390625 
Q 33.9375 0 27.875 0 
Q 17.828125 0 11.671875 7.65625 
Q 5.515625 15.328125 5.515625 27.984375 
Q 5.515625 40.671875 11.671875 48.328125 
Q 17.828125 56 27.875 56 
Q 33.9375 56 38.28125 53.609375 
Q 42.625 51.21875 45.40625 46.390625 
L 45.40625 54.6875 
L 54.390625 54.6875 
z
" id="DejaVuSans-103"/>
       <path d="M 12.40625 8.296875 
L 28.515625 8.296875 
L 28.515625 63.921875 
L 10.984375 60.40625 
L 10.984375 69.390625 
L 28.421875 72.90625 
L 38.28125 72.90625 
L 38.28125 8.296875 
L 54.390625 8.296875 
L 54.390625 0 
L 12.40625 0 
z
" id="DejaVuSans-49"/>
       <path d="M 31 75.875 
Q 24.46875 64.65625 21.28125 53.65625 
Q 18.109375 42.671875 18.109375 31.390625 
Q 18.109375 20.125 21.3125 9.0625 
Q 24.515625 -2 31 -13.1875 
L 23.1875 -13.1875 
Q 15.875 -1.703125 12.234375 9.375 
Q 8.59375 20.453125 8.59375 31.390625 
Q 8.59375 42.28125 12.203125 53.3125 
Q 15.828125 64.359375 23.1875 75.875 
z
" id="DejaVuSans-40"/>
       <path d="M 51.125 44 
L 36.921875 44 
L 32.8125 27.6875 
L 47.125 27.6875 
z
M 43.796875 71.78125 
L 38.71875 51.515625 
L 52.984375 51.515625 
L 58.109375 71.78125 
L 65.921875 71.78125 
L 60.890625 51.515625 
L 76.125 51.515625 
L 76.125 44 
L 58.984375 44 
L 54.984375 27.6875 
L 70.515625 27.6875 
L 70.515625 20.21875 
L 53.078125 20.21875 
L 48 0 
L 40.1875 0 
L 45.21875 20.21875 
L 30.90625 20.21875 
L 25.875 0 
L 18.015625 0 
L 23.09375 20.21875 
L 7.71875 20.21875 
L 7.71875 27.6875 
L 24.90625 27.6875 
L 29 44 
L 13.28125 44 
L 13.28125 51.515625 
L 30.90625 51.515625 
L 35.890625 71.78125 
z
" id="DejaVuSans-35"/>
       <path id="DejaVuSans-32"/>
       <path d="M 37.109375 75.984375 
L 37.109375 68.5 
L 28.515625 68.5 
Q 23.6875 68.5 21.796875 66.546875 
Q 19.921875 64.59375 19.921875 59.515625 
L 19.921875 54.6875 
L 34.71875 54.6875 
L 34.71875 47.703125 
L 19.921875 47.703125 
L 19.921875 0 
L 10.890625 0 
L 10.890625 47.703125 
L 2.296875 47.703125 
L 2.296875 54.6875 
L 10.890625 54.6875 
L 10.890625 58.5 
Q 10.890625 67.625 15.140625 71.796875 
Q 19.390625 75.984375 28.609375 75.984375 
z
" id="DejaVuSans-102"/>
       <path d="M 4.890625 31.390625 
L 31.203125 31.390625 
L 31.203125 23.390625 
L 4.890625 23.390625 
z
" id="DejaVuSans-45"/>
       <path d="M 56.203125 29.59375 
L 56.203125 25.203125 
L 14.890625 25.203125 
Q 15.484375 15.921875 20.484375 11.0625 
Q 25.484375 6.203125 34.421875 6.203125 
Q 39.59375 6.203125 44.453125 7.46875 
Q 49.3125 8.734375 54.109375 11.28125 
L 54.109375 2.78125 
Q 49.265625 0.734375 44.1875 -0.34375 
Q 39.109375 -1.421875 33.890625 -1.421875 
Q 20.796875 -1.421875 13.15625 6.1875 
Q 5.515625 13.8125 5.515625 26.8125 
Q 5.515625 40.234375 12.765625 48.109375 
Q 20.015625 56 32.328125 56 
Q 43.359375 56 49.78125 48.890625 
Q 56.203125 41.796875 56.203125 29.59375 
z
M 47.21875 32.234375 
Q 47.125 39.59375 43.09375 43.984375 
Q 39.0625 48.390625 32.421875 48.390625 
Q 24.90625 48.390625 20.390625 44.140625 
Q 15.875 39.890625 15.1875 32.171875 
z
" id="DejaVuSans-101"/>
       <path d="M 2.984375 54.6875 
L 12.5 54.6875 
L 29.59375 8.796875 
L 46.6875 54.6875 
L 56.203125 54.6875 
L 35.6875 0 
L 23.484375 0 
z
" id="DejaVuSans-118"/>
       <path d="M 34.28125 27.484375 
Q 23.390625 27.484375 19.1875 25 
Q 14.984375 22.515625 14.984375 16.5 
Q 14.984375 11.71875 18.140625 8.90625 
Q 21.296875 6.109375 26.703125 6.109375 
Q 34.1875 6.109375 38.703125 11.40625 
Q 43.21875 16.703125 43.21875 25.484375 
L 43.21875 27.484375 
z
M 52.203125 31.203125 
L 52.203125 0 
L 43.21875 0 
L 43.21875 8.296875 
Q 40.140625 3.328125 35.546875 0.953125 
Q 30.953125 -1.421875 24.3125 -1.421875 
Q 15.921875 -1.421875 10.953125 3.296875 
Q 6 8.015625 6 15.921875 
Q 6 25.140625 12.171875 29.828125 
Q 18.359375 34.515625 30.609375 34.515625 
L 43.21875 34.515625 
L 43.21875 35.40625 
Q 43.21875 41.609375 39.140625 45 
Q 35.0625 48.390625 27.6875 48.390625 
Q 23 48.390625 18.546875 47.265625 
Q 14.109375 46.140625 10.015625 43.890625 
L 10.015625 52.203125 
Q 14.9375 54.109375 19.578125 55.046875 
Q 24.21875 56 28.609375 56 
Q 40.484375 56 46.34375 49.84375 
Q 52.203125 43.703125 52.203125 31.203125 
z
" id="DejaVuSans-97"/>
       <path d="M 44.28125 53.078125 
L 44.28125 44.578125 
Q 40.484375 46.53125 36.375 47.5 
Q 32.28125 48.484375 27.875 48.484375 
Q 21.1875 48.484375 17.84375 46.4375 
Q 14.5 44.390625 14.5 40.28125 
Q 14.5 37.15625 16.890625 35.375 
Q 19.28125 33.59375 26.515625 31.984375 
L 29.59375 31.296875 
Q 39.15625 29.25 43.1875 25.515625 
Q 47.21875 21.78125 47.21875 15.09375 
Q 47.21875 7.46875 41.1875 3.015625 
Q 35.15625 -1.421875 24.609375 -1.421875 
Q 20.21875 -1.421875 15.453125 -0.5625 
Q 10.6875 0.296875 5.421875 2 
L 5.421875 11.28125 
Q 10.40625 8.6875 15.234375 7.390625 
Q 20.0625 6.109375 24.8125 6.109375 
Q 31.15625 6.109375 34.5625 8.28125 
Q 37.984375 10.453125 37.984375 14.40625 
Q 37.984375 18.0625 35.515625 20.015625 
Q 33.0625 21.96875 24.703125 23.78125 
L 21.578125 24.515625 
Q 13.234375 26.265625 9.515625 29.90625 
Q 5.8125 33.546875 5.8125 39.890625 
Q 5.8125 47.609375 11.28125 51.796875 
Q 16.75 56 26.8125 56 
Q 31.78125 56 36.171875 55.265625 
Q 40.578125 54.546875 44.28125 53.078125 
z
" id="DejaVuSans-115"/>
       <path d="M 25.390625 72.90625 
L 33.6875 72.90625 
L 8.296875 -9.28125 
L 0 -9.28125 
z
" id="DejaVuSans-47"/>
       <path d="M 45.40625 46.390625 
L 45.40625 75.984375 
L 54.390625 75.984375 
L 54.390625 0 
L 45.40625 0 
L 45.40625 8.203125 
Q 42.578125 3.328125 38.25 0.953125 
Q 33.9375 -1.421875 27.875 -1.421875 
Q 17.96875 -1.421875 11.734375 6.484375 
Q 5.515625 14.40625 5.515625 27.296875 
Q 5.515625 40.1875 11.734375 48.09375 
Q 17.96875 56 27.875 56 
Q 33.9375 56 38.25 53.625 
Q 42.578125 51.265625 45.40625 46.390625 
z
M 14.796875 27.296875 
Q 14.796875 17.390625 18.875 11.75 
Q 22.953125 6.109375 30.078125 6.109375 
Q 37.203125 6.109375 41.296875 11.75 
Q 45.40625 17.390625 45.40625 27.296875 
Q 45.40625 37.203125 41.296875 42.84375 
Q 37.203125 48.484375 30.078125 48.484375 
Q 22.953125 48.484375 18.875 42.84375 
Q 14.796875 37.203125 14.796875 27.296875 
z
" id="DejaVuSans-100"/>
       <path d="M 9.421875 54.6875 
L 18.40625 54.6875 
L 18.40625 0 
L 9.421875 0 
z
M 9.421875 75.984375 
L 18.40625 75.984375 
L 18.40625 64.59375 
L 9.421875 64.59375 
z
" id="DejaVuSans-105"/>
       <path d="M 52 44.1875 
Q 55.375 50.25 60.0625 53.125 
Q 64.75 56 71.09375 56 
Q 79.640625 56 84.28125 50.015625 
Q 88.921875 44.046875 88.921875 33.015625 
L 88.921875 0 
L 79.890625 0 
L 79.890625 32.71875 
Q 79.890625 40.578125 77.09375 44.375 
Q 74.3125 48.1875 68.609375 48.1875 
Q 61.625 48.1875 57.5625 43.546875 
Q 53.515625 38.921875 53.515625 30.90625 
L 53.515625 0 
L 44.484375 0 
L 44.484375 32.71875 
Q 44.484375 40.625 41.703125 44.40625 
Q 38.921875 48.1875 33.109375 48.1875 
Q 26.21875 48.1875 22.15625 43.53125 
Q 18.109375 38.875 18.109375 30.90625 
L 18.109375 0 
L 9.078125 0 
L 9.078125 54.6875 
L 18.109375 54.6875 
L 18.109375 46.1875 
Q 21.1875 51.21875 25.484375 53.609375 
Q 29.78125 56 35.6875 56 
Q 41.65625 56 45.828125 52.96875 
Q 50 49.953125 52 44.1875 
z
" id="DejaVuSans-109"/>
       <path d="M 54.890625 33.015625 
L 54.890625 0 
L 45.90625 0 
L 45.90625 32.71875 
Q 45.90625 40.484375 42.875 44.328125 
Q 39.84375 48.1875 33.796875 48.1875 
Q 26.515625 48.1875 22.3125 43.546875 
Q 18.109375 38.921875 18.109375 30.90625 
L 18.109375 0 
L 9.078125 0 
L 9.078125 54.6875 
L 18.109375 54.6875 
L 18.109375 46.1875 
Q 21.34375 51.125 25.703125 53.5625 
Q 30.078125 56 35.796875 56 
Q 45.21875 56 50.046875 50.171875 
Q 54.890625 44.34375 54.890625 33.015625 
z
" id="DejaVuSans-110"/>
       <path d="M 8.015625 75.875 
L 15.828125 75.875 
Q 23.140625 64.359375 26.78125 53.3125 
Q 30.421875 42.28125 30.421875 31.390625 
Q 30.421875 20.453125 26.78125 9.375 
Q 23.140625 -1.703125 15.828125 -13.1875 
L 8.015625 -13.1875 
Q 14.5 -2 17.703125 9.0625 
Q 20.90625 20.125 20.90625 31.390625 
Q 20.90625 42.671875 17.703125 53.65625 
Q 14.5 64.65625 8.015625 75.875 
z
" id="DejaVuSans-41"/>
      </defs>
      <use xlink:href="#DejaVuSans-108"/>
      <use x="27.783203" xlink:href="#DejaVuSans-111"/>
      <use x="88.964844" xlink:href="#DejaVuSans-103"/>
      <use x="152.441406" xlink:href="#DejaVuSans-49"/>
      <use x="216.064453" xlink:href="#DejaVuSans-48"/>
      <use x="279.6875" xlink:href="#DejaVuSans-40"/>
      <use x="318.701172" xlink:href="#DejaVuSans-35"/>
      <use x="402.490234" xlink:href="#DejaVuSans-32"/>
      <use x="434.277344" xlink:href="#DejaVuSans-102"/>
      <use x="463.982422" xlink:href="#DejaVuSans-45"/>
      <use x="500.066406" xlink:href="#DejaVuSans-101"/>
      <use x="561.589844" xlink:href="#DejaVuSans-118"/>
      <use x="620.769531" xlink:href="#DejaVuSans-97"/>
      <use x="682.048828" xlink:href="#DejaVuSans-108"/>
      <use x="709.832031" xlink:href="#DejaVuSans-115"/>
      <use x="761.931641" xlink:href="#DejaVuSans-32"/>
      <use x="793.71875" xlink:href="#DejaVuSans-47"/>
      <use x="827.410156" xlink:href="#DejaVuSans-32"/>
      <use x="859.197266" xlink:href="#DejaVuSans-100"/>
      <use x="922.673828" xlink:href="#DejaVuSans-105"/>
      <use x="950.457031" xlink:href="#DejaVuSans-109"/>
      <use x="1047.869141" xlink:href="#DejaVuSans-101"/>
      <use x="1109.392578" xlink:href="#DejaVuSans-110"/>
      <use x="1172.771484" xlink:href="#DejaVuSans-115"/>
      <use x="1224.871094" xlink:href="#DejaVuSans-105"/>
      <use x="1252.654297" xlink:href="#DejaVuSans-111"/>
      <use x="1313.835938" xlink:href="#DejaVuSans-110"/>
      <use x="1377.214844" xlink:href="#DejaVuSans-41"/>
     </g>
    </g>
   </g>
   <g id="matplotlib.axis_2">
    <g id="ytick_1">
     <g id="line2d_21">
      <path clip-path="url(#p0375aea1e5)" d="M 57.6 298.944 
L 338.688 298.944 
" style="fill:none;stroke:#b0b0b0;stroke-linecap:square;stroke-width:0.8;"/>
     </g>
     <g id="line2d_22">
      <defs>
       <path d="M 0 0 
L -3.5 0 
" id="m25b7f25a5a" style="stroke:#000000;stroke-width:0.8;"/>
      </defs>
      <g>
       <use style="stroke:#000000;stroke-width:0.8;" x="57.6" xlink:href="#m25b7f25a5a" y="298.944"/>
      </g>
     </g>
     <g id="text_6">
      <!-- 0.0 -->
      <g transform="translate(25.155 305.02275)scale(0.16 -0.16)">
       <defs>
        <path d="M 10.6875 12.40625 
L 21 12.40625 
L 21 0 
L 10.6875 0 
z
" id="DejaVuSans-46"/>
       </defs>
       <use xlink:href="#DejaVuSans-48"/>
       <use x="63.623047" xlink:href="#DejaVuSans-46"/>
       <use x="95.410156" xlink:href="#DejaVuSans-48"/>
      </g>
     </g>
    </g>
    <g id="ytick_2">
     <g id="line2d_23">
      <path clip-path="url(#p0375aea1e5)" d="M 57.6 245.22202 
L 338.688 245.22202 
" style="fill:none;stroke:#b0b0b0;stroke-linecap:square;stroke-width:0.8;"/>
     </g>
     <g id="line2d_24">
      <g>
       <use style="stroke:#000000;stroke-width:0.8;" x="57.6" xlink:href="#m25b7f25a5a" y="245.22202"/>
      </g>
     </g>
     <g id="text_7">
      <!-- 0.2 -->
      <g transform="translate(25.155 251.30077)scale(0.16 -0.16)">
       <use xlink:href="#DejaVuSans-48"/>
       <use x="63.623047" xlink:href="#DejaVuSans-46"/>
       <use x="95.410156" xlink:href="#DejaVuSans-50"/>
      </g>
     </g>
    </g>
    <g id="ytick_3">
     <g id="line2d_25">
      <path clip-path="url(#p0375aea1e5)" d="M 57.6 191.50004 
L 338.688 191.50004 
" style="fill:none;stroke:#b0b0b0;stroke-linecap:square;stroke-width:0.8;"/>
     </g>
     <g id="line2d_26">
      <g>
       <use style="stroke:#000000;stroke-width:0.8;" x="57.6" xlink:href="#m25b7f25a5a" y="191.50004"/>
      </g>
     </g>
     <g id="text_8">
      <!-- 0.4 -->
      <g transform="translate(25.155 197.57879)scale(0.16 -0.16)">
       <use xlink:href="#DejaVuSans-48"/>
       <use x="63.623047" xlink:href="#DejaVuSans-46"/>
       <use x="95.410156" xlink:href="#DejaVuSans-52"/>
      </g>
     </g>
    </g>
    <g id="ytick_4">
     <g id="line2d_27">
      <path clip-path="url(#p0375aea1e5)" d="M 57.6 137.778059 
L 338.688 137.778059 
" style="fill:none;stroke:#b0b0b0;stroke-linecap:square;stroke-width:0.8;"/>
     </g>
     <g id="line2d_28">
      <g>
       <use style="stroke:#000000;stroke-width:0.8;" x="57.6" xlink:href="#m25b7f25a5a" y="137.778059"/>
      </g>
     </g>
     <g id="text_9">
      <!-- 0.6 -->
      <g transform="translate(25.155 143.856809)scale(0.16 -0.16)">
       <use xlink:href="#DejaVuSans-48"/>
       <use x="63.623047" xlink:href="#DejaVuSans-46"/>
       <use x="95.410156" xlink:href="#DejaVuSans-54"/>
      </g>
     </g>
    </g>
    <g id="ytick_5">
     <g id="line2d_29">
      <path clip-path="url(#p0375aea1e5)" d="M 57.6 84.056079 
L 338.688 84.056079 
" style="fill:none;stroke:#b0b0b0;stroke-linecap:square;stroke-width:0.8;"/>
     </g>
     <g id="line2d_30">
      <g>
       <use style="stroke:#000000;stroke-width:0.8;" x="57.6" xlink:href="#m25b7f25a5a" y="84.056079"/>
      </g>
     </g>
     <g id="text_10">
      <!-- 0.8 -->
      <g transform="translate(25.155 90.134829)scale(0.16 -0.16)">
       <defs>
        <path d="M 31.78125 34.625 
Q 24.75 34.625 20.71875 30.859375 
Q 16.703125 27.09375 16.703125 20.515625 
Q 16.703125 13.921875 20.71875 10.15625 
Q 24.75 6.390625 31.78125 6.390625 
Q 38.8125 6.390625 42.859375 10.171875 
Q 46.921875 13.96875 46.921875 20.515625 
Q 46.921875 27.09375 42.890625 30.859375 
Q 38.875 34.625 31.78125 34.625 
z
M 21.921875 38.8125 
Q 15.578125 40.375 12.03125 44.71875 
Q 8.5 49.078125 8.5 55.328125 
Q 8.5 64.0625 14.71875 69.140625 
Q 20.953125 74.21875 31.78125 74.21875 
Q 42.671875 74.21875 48.875 69.140625 
Q 55.078125 64.0625 55.078125 55.328125 
Q 55.078125 49.078125 51.53125 44.71875 
Q 48 40.375 41.703125 38.8125 
Q 48.828125 37.15625 52.796875 32.3125 
Q 56.78125 27.484375 56.78125 20.515625 
Q 56.78125 9.90625 50.3125 4.234375 
Q 43.84375 -1.421875 31.78125 -1.421875 
Q 19.734375 -1.421875 13.25 4.234375 
Q 6.78125 9.90625 6.78125 20.515625 
Q 6.78125 27.484375 10.78125 32.3125 
Q 14.796875 37.15625 21.921875 38.8125 
z
M 18.3125 54.390625 
Q 18.3125 48.734375 21.84375 45.5625 
Q 25.390625 42.390625 31.78125 42.390625 
Q 38.140625 42.390625 41.71875 45.5625 
Q 45.3125 48.734375 45.3125 54.390625 
Q 45.3125 60.0625 41.71875 63.234375 
Q 38.140625 66.40625 31.78125 66.40625 
Q 25.390625 66.40625 21.84375 63.234375 
Q 18.3125 60.0625 18.3125 54.390625 
z
" id="DejaVuSans-56"/>
       </defs>
       <use xlink:href="#DejaVuSans-48"/>
       <use x="63.623047" xlink:href="#DejaVuSans-46"/>
       <use x="95.410156" xlink:href="#DejaVuSans-56"/>
      </g>
     </g>
    </g>
    <g id="ytick_6">
     <g id="line2d_31">
      <path clip-path="url(#p0375aea1e5)" d="M 57.6 30.334099 
L 338.688 30.334099 
" style="fill:none;stroke:#b0b0b0;stroke-linecap:square;stroke-width:0.8;"/>
     </g>
     <g id="line2d_32">
      <g>
       <use style="stroke:#000000;stroke-width:0.8;" x="57.6" xlink:href="#m25b7f25a5a" y="30.334099"/>
      </g>
     </g>
     <g id="text_11">
      <!-- 1.0 -->
      <g transform="translate(25.155 36.412849)scale(0.16 -0.16)">
       <use xlink:href="#DejaVuSans-49"/>
       <use x="63.623047" xlink:href="#DejaVuSans-46"/>
       <use x="95.410156" xlink:href="#DejaVuSans-48"/>
      </g>
     </g>
    </g>
    <g id="text_12">
     <!-- Fraction of function,target pairs -->
     <g transform="translate(17.619531 297.681)rotate(-90)scale(0.17 -0.17)">
      <defs>
       <path d="M 9.8125 72.90625 
L 51.703125 72.90625 
L 51.703125 64.59375 
L 19.671875 64.59375 
L 19.671875 43.109375 
L 48.578125 43.109375 
L 48.578125 34.8125 
L 19.671875 34.8125 
L 19.671875 0 
L 9.8125 0 
z
" id="DejaVuSans-70"/>
       <path d="M 41.109375 46.296875 
Q 39.59375 47.171875 37.8125 47.578125 
Q 36.03125 48 33.890625 48 
Q 26.265625 48 22.1875 43.046875 
Q 18.109375 38.09375 18.109375 28.8125 
L 18.109375 0 
L 9.078125 0 
L 9.078125 54.6875 
L 18.109375 54.6875 
L 18.109375 46.1875 
Q 20.953125 51.171875 25.484375 53.578125 
Q 30.03125 56 36.53125 56 
Q 37.453125 56 38.578125 55.875 
Q 39.703125 55.765625 41.0625 55.515625 
z
" id="DejaVuSans-114"/>
       <path d="M 48.78125 52.59375 
L 48.78125 44.1875 
Q 44.96875 46.296875 41.140625 47.34375 
Q 37.3125 48.390625 33.40625 48.390625 
Q 24.65625 48.390625 19.8125 42.84375 
Q 14.984375 37.3125 14.984375 27.296875 
Q 14.984375 17.28125 19.8125 11.734375 
Q 24.65625 6.203125 33.40625 6.203125 
Q 37.3125 6.203125 41.140625 7.25 
Q 44.96875 8.296875 48.78125 10.40625 
L 48.78125 2.09375 
Q 45.015625 0.34375 40.984375 -0.53125 
Q 36.96875 -1.421875 32.421875 -1.421875 
Q 20.0625 -1.421875 12.78125 6.34375 
Q 5.515625 14.109375 5.515625 27.296875 
Q 5.515625 40.671875 12.859375 48.328125 
Q 20.21875 56 33.015625 56 
Q 37.15625 56 41.109375 55.140625 
Q 45.0625 54.296875 48.78125 52.59375 
z
" id="DejaVuSans-99"/>
       <path d="M 18.3125 70.21875 
L 18.3125 54.6875 
L 36.8125 54.6875 
L 36.8125 47.703125 
L 18.3125 47.703125 
L 18.3125 18.015625 
Q 18.3125 11.328125 20.140625 9.421875 
Q 21.96875 7.515625 27.59375 7.515625 
L 36.8125 7.515625 
L 36.8125 0 
L 27.59375 0 
Q 17.1875 0 13.234375 3.875 
Q 9.28125 7.765625 9.28125 18.015625 
L 9.28125 47.703125 
L 2.6875 47.703125 
L 2.6875 54.6875 
L 9.28125 54.6875 
L 9.28125 70.21875 
z
" id="DejaVuSans-116"/>
       <path d="M 8.5 21.578125 
L 8.5 54.6875 
L 17.484375 54.6875 
L 17.484375 21.921875 
Q 17.484375 14.15625 20.5 10.265625 
Q 23.53125 6.390625 29.59375 6.390625 
Q 36.859375 6.390625 41.078125 11.03125 
Q 45.3125 15.671875 45.3125 23.6875 
L 45.3125 54.6875 
L 54.296875 54.6875 
L 54.296875 0 
L 45.3125 0 
L 45.3125 8.40625 
Q 42.046875 3.421875 37.71875 1 
Q 33.40625 -1.421875 27.6875 -1.421875 
Q 18.265625 -1.421875 13.375 4.4375 
Q 8.5 10.296875 8.5 21.578125 
z
M 31.109375 56 
z
" id="DejaVuSans-117"/>
       <path d="M 11.71875 12.40625 
L 22.015625 12.40625 
L 22.015625 4 
L 14.015625 -11.625 
L 7.71875 -11.625 
L 11.71875 4 
z
" id="DejaVuSans-44"/>
       <path d="M 18.109375 8.203125 
L 18.109375 -20.796875 
L 9.078125 -20.796875 
L 9.078125 54.6875 
L 18.109375 54.6875 
L 18.109375 46.390625 
Q 20.953125 51.265625 25.265625 53.625 
Q 29.59375 56 35.59375 56 
Q 45.5625 56 51.78125 48.09375 
Q 58.015625 40.1875 58.015625 27.296875 
Q 58.015625 14.40625 51.78125 6.484375 
Q 45.5625 -1.421875 35.59375 -1.421875 
Q 29.59375 -1.421875 25.265625 0.953125 
Q 20.953125 3.328125 18.109375 8.203125 
z
M 48.6875 27.296875 
Q 48.6875 37.203125 44.609375 42.84375 
Q 40.53125 48.484375 33.40625 48.484375 
Q 26.265625 48.484375 22.1875 42.84375 
Q 18.109375 37.203125 18.109375 27.296875 
Q 18.109375 17.390625 22.1875 11.75 
Q 26.265625 6.109375 33.40625 6.109375 
Q 40.53125 6.109375 44.609375 11.75 
Q 48.6875 17.390625 48.6875 27.296875 
z
" id="DejaVuSans-112"/>
      </defs>
      <use xlink:href="#DejaVuSans-70"/>
      <use x="50.269531" xlink:href="#DejaVuSans-114"/>
      <use x="91.382812" xlink:href="#DejaVuSans-97"/>
      <use x="152.662109" xlink:href="#DejaVuSans-99"/>
      <use x="207.642578" xlink:href="#DejaVuSans-116"/>
      <use x="246.851562" xlink:href="#DejaVuSans-105"/>
      <use x="274.634766" xlink:href="#DejaVuSans-111"/>
      <use x="335.816406" xlink:href="#DejaVuSans-110"/>
      <use x="399.195312" xlink:href="#DejaVuSans-32"/>
      <use x="430.982422" xlink:href="#DejaVuSans-111"/>
      <use x="492.164062" xlink:href="#DejaVuSans-102"/>
      <use x="527.369141" xlink:href="#DejaVuSans-32"/>
      <use x="559.15625" xlink:href="#DejaVuSans-102"/>
      <use x="594.361328" xlink:href="#DejaVuSans-117"/>
      <use x="657.740234" xlink:href="#DejaVuSans-110"/>
      <use x="721.119141" xlink:href="#DejaVuSans-99"/>
      <use x="776.099609" xlink:href="#DejaVuSans-116"/>
      <use x="815.308594" xlink:href="#DejaVuSans-105"/>
      <use x="843.091797" xlink:href="#DejaVuSans-111"/>
      <use x="904.273438" xlink:href="#DejaVuSans-110"/>
      <use x="967.652344" xlink:href="#DejaVuSans-44"/>
      <use x="999.439453" xlink:href="#DejaVuSans-116"/>
      <use x="1038.648438" xlink:href="#DejaVuSans-97"/>
      <use x="1099.927734" xlink:href="#DejaVuSans-114"/>
      <use x="1139.291016" xlink:href="#DejaVuSans-103"/>
      <use x="1202.767578" xlink:href="#DejaVuSans-101"/>
      <use x="1264.291016" xlink:href="#DejaVuSans-116"/>
      <use x="1303.5" xlink:href="#DejaVuSans-32"/>
      <use x="1335.287109" xlink:href="#DejaVuSans-112"/>
      <use x="1398.763672" xlink:href="#DejaVuSans-97"/>
      <use x="1460.042969" xlink:href="#DejaVuSans-105"/>
      <use x="1487.826172" xlink:href="#DejaVuSans-114"/>
      <use x="1528.939453" xlink:href="#DejaVuSans-115"/>
     </g>
    </g>
   </g>
   <g id="line2d_33">
    <defs>
     <path d="M 0 1.5 
C 0.397805 1.5 0.77937 1.341951 1.06066 1.06066 
C 1.341951 0.77937 1.5 0.397805 1.5 0 
C 1.5 -0.397805 1.341951 -0.77937 1.06066 -1.06066 
C 0.77937 -1.341951 0.397805 -1.5 0 -1.5 
C -0.397805 -1.5 -0.77937 -1.341951 -1.06066 -1.06066 
C -1.341951 -0.77937 -1.5 -0.397805 -1.5 0 
C -1.5 0.397805 -1.341951 0.77937 -1.06066 1.06066 
C -0.77937 1.341951 -0.397805 1.5 0 1.5 
z
" id="m8719f6f73c" style="stroke:#f5deb3;"/>
    </defs>
    <g>
     <use style="fill:#f5deb3;stroke:#f5deb3;" x="157.226117" xlink:href="#m8719f6f73c" y="30.334099"/>
     <use style="fill:#f5deb3;stroke:#f5deb3;" x="157.226117" xlink:href="#m8719f6f73c" y="30.334099"/>
    </g>
   </g>
   <g id="line2d_34">
    <defs>
     <path d="M 0 1.5 
C 0.397805 1.5 0.77937 1.341951 1.06066 1.06066 
C 1.341951 0.77937 1.5 0.397805 1.5 0 
C 1.5 -0.397805 1.341951 -0.77937 1.06066 -1.06066 
C 0.77937 -1.341951 0.397805 -1.5 0 -1.5 
C -0.397805 -1.5 -0.77937 -1.341951 -1.06066 -1.06066 
C -1.341951 -0.77937 -1.5 -0.397805 -1.5 0 
C -1.5 0.397805 -1.341951 0.77937 -1.06066 1.06066 
C -0.77937 1.341951 -0.397805 1.5 0 1.5 
z
" id="m4106fdee73" style="stroke:#000080;"/>
    </defs>
    <g>
     <use style="fill:#000080;stroke:#000080;" x="215.006842" xlink:href="#m4106fdee73" y="30.334099"/>
     <use style="fill:#000080;stroke:#000080;" x="215.006842" xlink:href="#m4106fdee73" y="30.334099"/>
    </g>
   </g>
   <g id="line2d_35">
    <path d="M 121.953191 298.944 
L 121.953191 298.417314 
L 122.158807 298.417314 
L 122.158807 297.890628 
L 122.340747 297.890628 
L 122.340747 297.363942 
L 122.751102 297.363942 
L 122.751102 296.837256 
L 123.563795 296.837256 
L 123.563795 296.31057 
L 123.810186 296.31057 
L 123.810186 295.783884 
L 124.463275 295.783884 
L 124.463275 295.257197 
L 125.156318 295.257197 
L 125.156318 294.730511 
L 125.434921 294.730511 
L 125.434921 294.203825 
L 126.372183 294.203825 
L 126.372183 293.677139 
L 127.221439 293.677139 
L 127.221439 293.150453 
L 127.587757 293.150453 
L 127.587757 292.623767 
L 127.892415 292.623767 
L 127.97739 291.570395 
L 128.878458 291.570395 
L 128.878458 291.043709 
L 128.995158 291.043709 
L 129.00969 289.990337 
L 129.63743 289.990337 
L 129.63743 289.463651 
L 130.127931 289.463651 
L 130.127931 288.936964 
L 131.191591 288.936964 
L 131.191591 288.410278 
L 131.420807 288.410278 
L 131.420807 287.883592 
L 132.145613 287.883592 
L 132.145613 287.356906 
L 134.106373 287.356906 
L 134.106373 286.83022 
L 135.981161 286.83022 
L 135.981161 286.303534 
L 146.575182 286.303534 
L 146.575182 285.776848 
L 147.441957 285.776848 
L 147.441957 285.250162 
L 149.490118 285.250162 
L 149.490118 284.723476 
L 151.537684 284.723476 
L 151.537684 284.19679 
L 165.7501 284.19679 
L 165.7501 283.670104 
L 166.036621 283.670104 
L 166.036621 283.143418 
L 166.43612 283.143418 
L 166.51155 282.090045 
L 166.651375 282.090045 
L 166.651375 281.563359 
L 168.159001 281.563359 
L 168.159001 281.036673 
L 168.455785 281.036673 
L 168.455785 280.509987 
L 170.449465 280.509987 
L 170.449465 279.983301 
L 172.920958 279.983301 
L 172.920958 279.456615 
L 175.933307 279.456615 
L 175.933307 278.929929 
L 176.185221 278.929929 
L 176.185221 278.403243 
L 176.698206 278.403243 
L 176.717059 276.296499 
L 177.005302 276.296499 
L 177.005302 275.769812 
L 178.115047 275.769812 
L 178.21519 274.71644 
L 178.258795 274.71644 
L 178.258795 274.189754 
L 178.406072 274.189754 
L 178.482865 273.136382 
L 178.60419 273.136382 
L 178.60419 272.609696 
L 178.793811 272.609696 
L 178.793811 272.08301 
L 179.341695 272.08301 
L 179.341695 271.556324 
L 180.939432 271.556324 
L 180.939432 271.029638 
L 181.225849 271.029638 
L 181.225849 270.502952 
L 181.352693 270.502952 
L 181.436268 269.449579 
L 181.466788 269.449579 
L 181.542319 268.396207 
L 181.682489 268.396207 
L 181.682489 267.869521 
L 181.895204 267.869521 
L 181.915145 266.816149 
L 182.228388 266.816149 
L 182.228388 266.289463 
L 182.480004 266.289463 
L 182.480004 265.762777 
L 182.651788 265.762777 
L 182.651788 265.236091 
L 182.97622 265.236091 
L 182.979181 264.182719 
L 183.090664 264.182719 
L 183.198842 263.129347 
L 183.292142 263.129347 
L 183.292142 262.60266 
L 183.484608 262.60266 
L 183.576396 261.549288 
L 183.611009 261.549288 
L 183.663908 260.495916 
L 183.732721 260.495916 
L 183.793103 258.915858 
L 183.84514 258.915858 
L 183.939413 256.282427 
L 183.97611 256.282427 
L 184.082962 254.175683 
L 184.165517 254.175683 
L 184.165517 253.648997 
L 184.334637 253.648997 
L 184.405709 252.068939 
L 184.453534 252.068939 
L 184.559612 250.488881 
L 184.590231 250.488881 
L 184.676095 249.435508 
L 184.781426 249.435508 
L 184.87344 247.85545 
L 184.913525 247.85545 
L 185.01246 246.802078 
L 185.133236 246.802078 
L 185.206345 245.748706 
L 185.248561 245.748706 
L 185.248561 245.22202 
L 185.368867 245.22202 
L 185.368867 244.695334 
L 185.515388 244.695334 
L 185.623418 243.641962 
L 185.633308 243.641962 
L 185.653072 242.588589 
L 185.882106 242.588589 
L 185.963517 241.008531 
L 186.103222 241.008531 
L 186.174574 239.955159 
L 186.254635 239.955159 
L 186.364967 238.901787 
L 186.4331 238.901787 
L 186.543385 236.795043 
L 186.77221 236.795043 
L 186.849842 234.688298 
L 186.96172 234.688298 
L 186.96172 234.161612 
L 187.076006 234.161612 
L 187.162397 232.054868 
L 187.19549 232.054868 
L 187.260718 230.47481 
L 187.334673 230.47481 
L 187.409592 228.894751 
L 187.591832 228.894751 
L 187.695048 225.207949 
L 187.756936 225.207949 
L 187.833802 223.627891 
L 187.874096 223.627891 
L 187.952427 219.941088 
L 187.994422 219.941088 
L 188.098724 215.727599 
L 188.119069 215.727599 
L 188.203625 210.460738 
L 188.237965 210.460738 
L 188.344211 205.193878 
L 188.349772 205.193878 
L 188.456783 199.927017 
L 188.46519 199.927017 
L 188.574361 193.080098 
L 188.579373 193.080098 
L 188.676211 186.233179 
L 188.695419 186.233179 
L 188.794917 180.439632 
L 188.830465 180.439632 
L 188.936913 173.592713 
L 188.954669 173.592713 
L 189.065005 164.63905 
L 189.066165 164.63905 
L 189.166575 156.738758 
L 189.179028 156.738758 
L 189.285437 146.731723 
L 189.290477 146.731723 
L 189.39826 137.251373 
L 189.407136 137.251373 
L 189.516916 123.557535 
L 189.519403 123.557535 
L 189.622189 114.077186 
L 189.632973 114.077186 
L 189.743577 104.07015 
L 189.756517 104.07015 
L 189.845275 95.116487 
L 189.87166 95.116487 
L 189.95697 89.849626 
L 189.99331 89.849626 
L 190.084377 85.636137 
L 190.124821 85.636137 
L 190.225629 80.369277 
L 190.24906 80.369277 
L 190.355406 76.682474 
L 190.38856 76.682474 
L 190.483368 71.942299 
L 190.545506 71.942299 
L 190.625469 68.255497 
L 190.673144 68.255497 
L 190.764107 66.675439 
L 190.805106 66.675439 
L 190.893713 65.09538 
L 190.987484 65.09538 
L 191.077032 62.988636 
L 191.160156 62.988636 
L 191.18853 61.935264 
L 200.624122 61.935264 
L 200.624122 61.408578 
L 201.011339 61.408578 
L 201.011339 60.881892 
L 201.420905 60.881892 
L 201.420905 60.355206 
L 201.621063 60.355206 
L 201.621063 59.82852 
L 201.76224 59.82852 
L 201.832793 58.775147 
L 201.884825 58.775147 
L 201.940363 57.721775 
L 202.068754 57.721775 
L 202.165689 55.615031 
L 202.181337 55.615031 
L 202.271123 53.508287 
L 202.309926 53.508287 
L 202.348536 51.401542 
L 202.439407 51.401542 
L 202.525625 48.768112 
L 202.567077 48.768112 
L 202.663524 45.081309 
L 202.698174 45.081309 
L 202.698174 44.554623 
L 214.216197 44.554623 
L 214.305492 43.501251 
L 214.399272 43.501251 
L 214.483694 42.447879 
L 214.539731 42.447879 
L 214.641259 40.341135 
L 214.685904 40.341135 
L 214.790409 37.181018 
L 214.801764 37.181018 
L 214.90732 32.967529 
L 214.950763 32.967529 
L 215.006842 30.334099 
L 338.688 30.334099 
L 338.688 30.334099 
" style="fill:none;stroke:#000080;stroke-linecap:square;stroke-width:1.5;"/>
   </g>
   <g id="line2d_36">
    <defs>
     <path d="M 0 6 
C 1.591219 6 3.117479 5.367802 4.242641 4.242641 
C 5.367802 3.117479 6 1.591219 6 0 
C 6 -1.591219 5.367802 -3.117479 4.242641 -4.242641 
C 3.117479 -5.367802 1.591219 -6 0 -6 
C -1.591219 -6 -3.117479 -5.367802 -4.242641 -4.242641 
C -5.367802 -3.117479 -6 -1.591219 -6 0 
C -6 1.591219 -5.367802 3.117479 -4.242641 4.242641 
C -3.117479 5.367802 -1.591219 6 0 6 
z
" id="m90f13cbd95" style="stroke:#000080;stroke-width:1.5;"/>
    </defs>
    <g>
     <use style="fill-opacity:0;stroke:#000080;stroke-width:1.5;" x="188.623695" xlink:href="#m90f13cbd95" y="189.919981"/>
     <use style="fill-opacity:0;stroke:#000080;stroke-width:1.5;" x="202.698174" xlink:href="#m90f13cbd95" y="44.554623"/>
     <use style="fill-opacity:0;stroke:#000080;stroke-width:1.5;" x="215.006842" xlink:href="#m90f13cbd95" y="30.334099"/>
     <use style="fill-opacity:0;stroke:#000080;stroke-width:1.5;" x="215.006842" xlink:href="#m90f13cbd95" y="30.334099"/>
     <use style="fill-opacity:0;stroke:#000080;stroke-width:1.5;" x="338.688" xlink:href="#m90f13cbd95" y="30.334099"/>
    </g>
   </g>
   <g id="line2d_37">
    <path style="fill:none;stroke:#000080;stroke-linecap:square;stroke-width:1.5;"/>
    <g/>
   </g>
   <g id="line2d_38">
    <defs>
     <path d="M 0 1.5 
C 0.397805 1.5 0.77937 1.341951 1.06066 1.06066 
C 1.341951 0.77937 1.5 0.397805 1.5 0 
C 1.5 -0.397805 1.341951 -0.77937 1.06066 -1.06066 
C 0.77937 -1.341951 0.397805 -1.5 0 -1.5 
C -0.397805 -1.5 -0.77937 -1.341951 -1.06066 -1.06066 
C -1.341951 -0.77937 -1.5 -0.397805 -1.5 0 
C -1.5 0.397805 -1.341951 0.77937 -1.06066 1.06066 
C -0.77937 1.341951 -0.397805 1.5 0 1.5 
z
" id="maa623bde04" style="stroke:#ff00ff;"/>
    </defs>
    <g>
     <use style="fill:#ff00ff;stroke:#ff00ff;" x="312.253811" xlink:href="#maa623bde04" y="177.806202"/>
     <use style="fill:#ff00ff;stroke:#ff00ff;" x="312.253811" xlink:href="#maa623bde04" y="177.806202"/>
    </g>
   </g>
   <g id="line2d_39">
    <path d="M 168.001318 298.944 
L 168.001318 298.417314 
L 170.738554 298.417314 
L 170.738554 297.890628 
L 172.341044 297.890628 
L 172.341044 297.363942 
L 173.991844 297.363942 
L 173.991844 296.837256 
L 174.433932 296.837256 
L 174.433932 296.31057 
L 174.851466 296.31057 
L 174.851466 295.783884 
L 174.974229 295.783884 
L 174.974229 295.257197 
L 175.155479 295.257197 
L 175.155479 294.730511 
L 176.905401 294.730511 
L 176.905401 294.203825 
L 177.447232 294.203825 
L 177.447232 293.677139 
L 177.664513 293.677139 
L 177.664513 293.150453 
L 179.41731 293.150453 
L 179.41731 292.623767 
L 182.816585 292.623767 
L 182.816585 292.097081 
L 193.395848 292.097081 
L 193.395848 291.570395 
L 198.366461 291.570395 
L 198.366461 291.043709 
L 199.113859 291.043709 
L 199.113859 290.517023 
L 199.327334 290.517023 
L 199.327334 289.990337 
L 200.094496 289.990337 
L 200.094496 289.463651 
L 201.246371 289.463651 
L 201.246371 288.936964 
L 202.496432 288.936964 
L 202.496432 288.410278 
L 205.323081 288.410278 
L 205.323081 287.883592 
L 210.390491 287.883592 
L 210.390491 287.356906 
L 210.619598 287.356906 
L 210.619598 286.83022 
L 211.586334 286.83022 
L 211.586334 286.303534 
L 211.999193 286.303534 
L 211.999193 285.776848 
L 212.194008 285.776848 
L 212.194008 285.250162 
L 212.941588 285.250162 
L 212.941588 284.723476 
L 215.287606 284.723476 
L 215.287606 284.19679 
L 215.549648 284.19679 
L 215.549648 283.670104 
L 215.721074 283.670104 
L 215.721074 283.143418 
L 216.060135 283.143418 
L 216.060135 282.616732 
L 216.806699 282.616732 
L 216.886331 281.563359 
L 219.430375 281.563359 
L 219.430375 281.036673 
L 221.558459 281.036673 
L 221.558459 280.509987 
L 223.512391 280.509987 
L 223.512391 279.983301 
L 225.224063 279.983301 
L 225.230948 278.929929 
L 225.467469 278.929929 
L 225.467469 278.403243 
L 225.978085 278.403243 
L 225.978085 277.876557 
L 226.354251 277.876557 
L 226.354251 277.349871 
L 226.505842 277.349871 
L 226.505842 276.823185 
L 226.742947 276.823185 
L 226.816851 275.769812 
L 226.882219 275.769812 
L 226.991618 274.71644 
L 227.338671 274.71644 
L 227.338671 274.189754 
L 228.622997 274.189754 
L 228.622997 273.663068 
L 229.380777 273.663068 
L 229.380777 273.136382 
L 229.533963 273.136382 
L 229.533963 272.609696 
L 230.451927 272.609696 
L 230.470167 271.556324 
L 231.276073 271.556324 
L 231.276485 270.502952 
L 232.824634 270.502952 
L 232.824634 269.976266 
L 233.275265 269.976266 
L 233.275265 269.449579 
L 234.088476 269.449579 
L 234.088476 268.922893 
L 234.57567 268.922893 
L 234.57567 268.396207 
L 234.972059 268.396207 
L 234.972059 267.869521 
L 235.632025 267.869521 
L 235.632025 267.342835 
L 236.303191 267.342835 
L 236.354593 265.762777 
L 236.563592 265.762777 
L 236.563592 265.236091 
L 236.800716 265.236091 
L 236.800716 264.709405 
L 238.078672 264.709405 
L 238.115299 263.656033 
L 238.252696 263.656033 
L 238.252696 263.129347 
L 238.591689 263.129347 
L 238.699977 262.075974 
L 238.907809 262.075974 
L 238.935507 261.022602 
L 239.133812 261.022602 
L 239.133812 260.495916 
L 239.671828 260.495916 
L 239.671828 259.96923 
L 239.943485 259.96923 
L 239.943485 259.442544 
L 240.521434 259.442544 
L 240.604572 258.389172 
L 240.964379 258.389172 
L 240.964379 257.862486 
L 241.510652 257.862486 
L 241.515273 256.809114 
L 241.650974 256.809114 
L 241.721886 255.755741 
L 241.856467 255.755741 
L 241.856467 255.229055 
L 242.370432 255.229055 
L 242.429489 254.175683 
L 242.786707 254.175683 
L 242.786707 253.648997 
L 243.145559 253.648997 
L 243.160641 252.595625 
L 243.60029 252.595625 
L 243.60029 252.068939 
L 243.922703 252.068939 
L 244.013348 251.015567 
L 244.080252 251.015567 
L 244.080252 250.488881 
L 244.197533 250.488881 
L 244.197533 249.962195 
L 244.317595 249.962195 
L 244.397364 248.382136 
L 244.495354 248.382136 
L 244.495354 247.85545 
L 244.81372 247.85545 
L 244.81372 247.328764 
L 244.970444 247.328764 
L 244.970444 246.802078 
L 245.288439 246.802078 
L 245.313336 245.22202 
L 245.653397 245.22202 
L 245.701793 243.641962 
L 247.109616 243.641962 
L 247.109616 243.115275 
L 247.480966 243.115275 
L 247.480966 242.588589 
L 248.93721 242.588589 
L 248.93721 242.061903 
L 249.050841 242.061903 
L 249.050841 241.535217 
L 249.393429 241.535217 
L 249.393429 240.481845 
L 249.704431 240.481845 
L 249.704431 239.955159 
L 250.399916 239.955159 
L 250.399916 239.428473 
L 250.848775 239.428473 
L 250.85036 238.375101 
L 251.025164 238.375101 
L 251.025164 237.321729 
L 251.228325 237.321729 
L 251.244471 235.74167 
L 251.389145 235.74167 
L 251.389145 234.161612 
L 251.691486 234.161612 
L 251.691486 233.634926 
L 251.896591 233.634926 
L 251.938847 232.054868 
L 252.197742 232.054868 
L 252.197742 231.528182 
L 252.516322 231.528182 
L 252.516322 231.001496 
L 253.259293 231.001496 
L 253.259293 230.47481 
L 253.485905 230.47481 
L 253.485905 229.421437 
L 254.183724 229.421437 
L 254.183724 228.894751 
L 254.888168 228.894751 
L 254.949702 227.841379 
L 255.085084 227.841379 
L 255.163906 226.788007 
L 255.28723 226.788007 
L 255.28723 226.261321 
L 255.491356 226.261321 
L 255.491356 225.734635 
L 255.788649 225.734635 
L 255.788649 225.207949 
L 256.151051 225.207949 
L 256.211798 224.154577 
L 257.084482 224.154577 
L 257.084482 223.101204 
L 257.234027 223.101204 
L 257.234027 222.574518 
L 257.415036 222.574518 
L 257.456887 220.99446 
L 257.730249 220.99446 
L 257.730249 219.414402 
L 257.887491 219.414402 
L 257.887491 218.887716 
L 258.085935 218.887716 
L 258.106152 217.307658 
L 258.298161 217.307658 
L 258.298161 216.780971 
L 261.010629 216.780971 
L 261.095362 213.620855 
L 262.344153 213.620855 
L 262.344153 213.094169 
L 262.709769 213.094169 
L 262.709769 212.567483 
L 263.144722 212.567483 
L 263.144722 212.040797 
L 263.323883 212.040797 
L 263.323883 211.514111 
L 263.652687 211.514111 
L 263.652687 210.987425 
L 264.092048 210.987425 
L 264.092048 210.460738 
L 264.357012 210.460738 
L 264.357012 209.934052 
L 264.597121 209.934052 
L 264.597121 209.407366 
L 264.817008 209.407366 
L 264.835177 208.353994 
L 265.011986 208.353994 
L 265.011986 207.827308 
L 266.802 207.827308 
L 266.802 207.300622 
L 267.104072 207.300622 
L 267.104072 206.773936 
L 267.440743 206.773936 
L 267.440743 206.24725 
L 268.348178 206.24725 
L 268.348178 205.720564 
L 268.532382 205.720564 
L 268.532382 205.193878 
L 268.98852 205.193878 
L 268.98852 204.667192 
L 269.208132 204.667192 
L 269.208132 204.140506 
L 269.577312 204.140506 
L 269.577312 203.613819 
L 269.730746 203.613819 
L 269.730746 203.087133 
L 269.965271 203.087133 
L 269.965271 202.560447 
L 270.425685 202.560447 
L 270.425685 201.507075 
L 271.837118 201.507075 
L 271.886606 200.453703 
L 272.242411 200.453703 
L 272.242411 199.927017 
L 272.827911 199.927017 
L 272.827911 199.400331 
L 273.555643 199.400331 
L 273.555643 198.873645 
L 273.771581 198.873645 
L 273.771581 197.820273 
L 273.957859 197.820273 
L 273.957859 197.293586 
L 274.237026 197.293586 
L 274.237026 196.7669 
L 275.897991 196.7669 
L 275.897991 196.240214 
L 276.220649 196.240214 
L 276.220649 195.713528 
L 276.506336 195.713528 
L 276.506336 195.186842 
L 277.225083 195.186842 
L 277.225083 194.660156 
L 277.436568 194.660156 
L 277.436568 194.13347 
L 277.942805 194.13347 
L 277.942805 193.606784 
L 278.226204 193.606784 
L 278.226204 193.080098 
L 278.614171 193.080098 
L 278.614171 192.553412 
L 279.107463 192.553412 
L 279.107463 192.026726 
L 279.396017 192.026726 
L 279.396017 191.50004 
L 279.508364 191.50004 
L 279.508364 190.973354 
L 279.810417 190.973354 
L 279.810417 189.919981 
L 280.042037 189.919981 
L 280.139106 188.866609 
L 280.201898 188.866609 
L 280.201898 188.339923 
L 281.150314 188.339923 
L 281.150314 187.813237 
L 282.304981 187.813237 
L 282.393632 186.759865 
L 284.028978 186.759865 
L 284.028978 186.233179 
L 284.286016 186.233179 
L 284.32808 184.653121 
L 284.540846 184.653121 
L 284.540846 183.599748 
L 286.384901 183.599748 
L 286.384901 183.073062 
L 287.789086 183.073062 
L 287.789086 182.546376 
L 288.052476 182.546376 
L 288.052476 182.01969 
L 290.716306 182.01969 
L 290.716306 181.493004 
L 293.475838 181.493004 
L 293.475838 180.966318 
L 296.624456 180.966318 
L 296.624456 180.439632 
L 298.468951 180.439632 
L 298.468951 179.912946 
L 300.914611 179.912946 
L 300.914611 179.38626 
L 302.196018 179.38626 
L 302.196018 178.859574 
L 310.163752 178.859574 
L 310.163752 178.332888 
L 312.253811 178.332888 
L 312.253811 177.806202 
L 338.688 177.806202 
L 338.688 177.806202 
" style="fill:none;stroke:#ff00ff;stroke-linecap:square;stroke-width:1.5;"/>
   </g>
   <g id="line2d_40">
    <defs>
     <path d="M -0 8.485281 
L 5.091169 0 
L 0 -8.485281 
L -5.091169 -0 
z
" id="mfc2ca212fb" style="stroke:#ff00ff;stroke-linejoin:miter;stroke-width:1.5;"/>
    </defs>
    <g>
     <use style="fill-opacity:0;stroke:#ff00ff;stroke-linejoin:miter;stroke-width:1.5;" x="244.81372" xlink:href="#mfc2ca212fb" y="247.85545"/>
     <use style="fill-opacity:0;stroke:#ff00ff;stroke-linejoin:miter;stroke-width:1.5;" x="302.196018" xlink:href="#mfc2ca212fb" y="179.38626"/>
     <use style="fill-opacity:0;stroke:#ff00ff;stroke-linejoin:miter;stroke-width:1.5;" x="312.253811" xlink:href="#mfc2ca212fb" y="177.806202"/>
     <use style="fill-opacity:0;stroke:#ff00ff;stroke-linejoin:miter;stroke-width:1.5;" x="338.688" xlink:href="#mfc2ca212fb" y="177.806202"/>
    </g>
   </g>
   <g id="line2d_41">
    <path style="fill:none;stroke:#ff00ff;stroke-linecap:square;stroke-width:1.5;"/>
    <g/>
   </g>
   <g id="line2d_42">
    <path clip-path="url(#p0375aea1e5)" d="M 246.289154 243.641962 
" style="fill:none;stroke:#ff00ff;stroke-linecap:square;stroke-width:1.5;"/>
    <defs>
     <path d="M -12 12 
L 12 -12 
M -12 -12 
L 12 12 
" id="me8c648137e" style="stroke:#ff00ff;"/>
    </defs>
    <g clip-path="url(#p0375aea1e5)">
     <use style="fill:#ff00ff;stroke:#ff00ff;" x="246.289154" xlink:href="#me8c648137e" y="243.641962"/>
    </g>
   </g>
   <g id="line2d_43">
    <defs>
     <path d="M 0 1.5 
C 0.397805 1.5 0.77937 1.341951 1.06066 1.06066 
C 1.341951 0.77937 1.5 0.397805 1.5 0 
C 1.5 -0.397805 1.341951 -0.77937 1.06066 -1.06066 
C 0.77937 -1.341951 0.397805 -1.5 0 -1.5 
C -0.397805 -1.5 -0.77937 -1.341951 -1.06066 -1.06066 
C -1.341951 -0.77937 -1.5 -0.397805 -1.5 0 
C -1.5 0.397805 -1.341951 0.77937 -1.06066 1.06066 
C -0.77937 1.341951 -0.397805 1.5 0 1.5 
z
" id="mec485fbfd0" style="stroke:#ff7500;"/>
    </defs>
    <g>
     <use style="fill:#ff7500;stroke:#ff7500;" x="317.390475" xlink:href="#mec485fbfd0" y="162.005619"/>
     <use style="fill:#ff7500;stroke:#ff7500;" x="317.390475" xlink:href="#mec485fbfd0" y="162.005619"/>
    </g>
   </g>
   <g id="line2d_44">
    <path d="M 182.64676 298.944 
L 182.64676 298.417314 
L 183.043207 298.417314 
L 183.043207 297.890628 
L 183.231618 297.890628 
L 183.231618 297.363942 
L 183.432444 297.363942 
L 183.432444 296.837256 
L 184.086667 296.837256 
L 184.086667 296.31057 
L 184.741927 296.31057 
L 184.741927 295.783884 
L 185.024165 295.783884 
L 185.024165 295.257197 
L 185.315148 295.257197 
L 185.320614 294.203825 
L 185.631613 294.203825 
L 185.65674 293.150453 
L 185.886562 293.150453 
L 185.886562 292.623767 
L 186.298199 292.623767 
L 186.298199 292.097081 
L 186.642582 292.097081 
L 186.7497 291.043709 
L 186.960149 291.043709 
L 186.960149 290.517023 
L 187.977636 290.517023 
L 187.977636 289.990337 
L 189.147647 289.990337 
L 189.147647 289.463651 
L 190.41435 289.463651 
L 190.41435 288.936964 
L 190.838884 288.936964 
L 190.937327 287.883592 
L 191.416914 287.883592 
L 191.416914 287.356906 
L 192.637246 287.356906 
L 192.66879 286.303534 
L 193.041096 286.303534 
L 193.041096 285.776848 
L 193.624949 285.776848 
L 193.680599 284.723476 
L 194.629828 284.723476 
L 194.629828 284.19679 
L 197.828038 284.19679 
L 197.828038 283.670104 
L 199.854427 283.670104 
L 199.854427 283.143418 
L 220.826319 283.143418 
L 220.826319 282.616732 
L 221.430639 282.616732 
L 221.430639 282.090045 
L 221.603624 282.090045 
L 221.661097 279.456615 
L 221.888867 279.456615 
L 221.888867 278.929929 
L 223.117068 278.929929 
L 223.117068 278.403243 
L 226.775841 278.403243 
L 226.775841 277.876557 
L 232.066945 277.876557 
L 232.066945 277.349871 
L 232.329307 277.349871 
L 232.375706 276.296499 
L 232.76289 276.296499 
L 232.76289 275.769812 
L 232.954608 275.769812 
L 232.954608 275.243126 
L 233.248763 275.243126 
L 233.248763 274.71644 
L 233.576257 274.71644 
L 233.576257 274.189754 
L 233.941295 274.189754 
L 233.995623 273.136382 
L 235.7488 273.136382 
L 235.7488 272.609696 
L 236.596016 272.609696 
L 236.596016 272.08301 
L 237.076235 272.08301 
L 237.076235 271.556324 
L 237.205481 271.556324 
L 237.205481 271.029638 
L 238.059547 271.029638 
L 238.149166 268.922893 
L 238.344742 268.922893 
L 238.344742 268.396207 
L 238.674426 268.396207 
L 238.776865 267.342835 
L 239.341737 267.342835 
L 239.341737 266.816149 
L 239.730122 266.816149 
L 239.775191 265.762777 
L 240.032638 265.762777 
L 240.032638 265.236091 
L 240.195671 265.236091 
L 240.195671 264.709405 
L 240.831902 264.709405 
L 240.839281 263.656033 
L 241.021653 263.656033 
L 241.052338 262.60266 
L 241.137138 262.60266 
L 241.223334 261.549288 
L 241.356064 261.549288 
L 241.356064 261.022602 
L 241.555927 261.022602 
L 241.555927 260.495916 
L 241.698463 260.495916 
L 241.698463 259.96923 
L 241.834 259.96923 
L 241.834 259.442544 
L 241.945208 259.442544 
L 241.945208 258.915858 
L 242.0677 258.915858 
L 242.0677 258.389172 
L 242.202956 258.389172 
L 242.202956 257.862486 
L 242.528257 257.862486 
L 242.558371 256.282427 
L 242.657413 256.282427 
L 242.745183 254.702369 
L 242.835085 254.702369 
L 242.856565 253.648997 
L 242.953827 253.648997 
L 242.953827 253.122311 
L 243.073506 253.122311 
L 243.169778 251.542253 
L 243.366505 251.542253 
L 243.366505 251.015567 
L 243.514379 251.015567 
L 243.617078 248.908822 
L 243.717711 248.908822 
L 243.731922 247.328764 
L 243.848653 247.328764 
L 243.93655 246.275392 
L 243.966471 246.275392 
L 243.966471 245.748706 
L 244.079777 245.748706 
L 244.176522 242.588589 
L 244.216349 242.588589 
L 244.263207 241.008531 
L 244.358533 241.008531 
L 244.42274 239.428473 
L 244.477563 239.428473 
L 244.477563 238.901787 
L 244.635003 238.901787 
L 244.734674 235.74167 
L 244.767397 235.74167 
L 244.780028 234.161612 
L 244.897509 234.161612 
L 244.969767 232.581554 
L 245.018163 232.581554 
L 245.128288 229.948123 
L 245.138462 229.948123 
L 245.221526 228.368065 
L 245.257262 228.368065 
L 245.3562 224.681263 
L 245.413039 224.681263 
L 245.519047 222.047832 
L 245.531792 222.047832 
L 245.624434 220.99446 
L 245.650575 220.99446 
L 245.731051 218.887716 
L 245.792201 218.887716 
L 245.881956 214.674227 
L 245.961889 214.674227 
L 246.031664 212.040797 
L 246.086029 212.040797 
L 246.182703 208.353994 
L 246.198304 208.353994 
L 246.238656 207.300622 
L 256.232419 207.300622 
L 256.232419 206.773936 
L 256.684552 206.773936 
L 256.684552 206.24725 
L 257.454212 206.24725 
L 257.454212 205.720564 
L 257.569672 205.720564 
L 257.638899 204.140506 
L 257.75818 204.140506 
L 257.812713 203.087133 
L 257.907877 203.087133 
L 257.907877 202.033761 
L 258.060776 202.033761 
L 258.100324 199.400331 
L 258.18996 199.400331 
L 258.284035 197.820273 
L 258.357085 197.820273 
L 258.357085 197.293586 
L 264.957719 197.293586 
L 265.037971 196.240214 
L 265.158836 196.240214 
L 265.248319 195.186842 
L 265.28408 195.186842 
L 265.394717 191.50004 
L 265.412751 191.50004 
L 265.434793 189.919981 
L 270.1852 189.919981 
L 270.232077 188.866609 
L 270.324632 188.866609 
L 270.414932 186.759865 
L 270.438579 186.759865 
L 270.438579 185.706493 
L 274.150507 185.706493 
L 274.150507 185.179807 
L 274.261944 185.179807 
L 274.348574 183.599748 
L 277.393155 183.599748 
L 277.48423 181.493004 
L 277.507733 181.493004 
L 277.518455 180.439632 
L 280.181294 180.439632 
L 280.201509 179.38626 
L 282.514193 179.38626 
L 282.533097 178.332888 
L 284.540811 178.332888 
L 284.595375 176.226143 
L 286.389569 176.226143 
L 286.428543 175.172771 
L 288.097073 175.172771 
L 288.097073 174.646085 
L 289.57466 174.646085 
L 289.57466 174.119399 
L 290.996083 174.119399 
L 291.006917 172.012655 
L 292.300243 172.012655 
L 292.304835 170.959282 
L 293.504241 170.959282 
L 293.504241 170.432596 
L 294.621656 170.432596 
L 294.621656 169.90591 
L 296.662011 169.90591 
L 296.662011 169.379224 
L 297.613195 169.379224 
L 297.621674 167.799166 
L 299.360948 167.799166 
L 299.378382 166.219108 
L 301.687273 166.219108 
L 301.687273 165.692422 
L 304.39432 165.692422 
L 304.39432 165.165736 
L 306.160191 165.165736 
L 306.160191 164.63905 
L 307.260569 164.63905 
L 307.260569 164.112363 
L 309.717854 164.112363 
L 309.717854 163.585677 
L 310.171058 163.585677 
L 310.171058 163.058991 
L 313.430702 163.058991 
L 313.430702 162.532305 
L 317.390475 162.532305 
L 317.390475 162.005619 
L 338.688 162.005619 
L 338.688 162.005619 
" style="fill:none;stroke:#ff7500;stroke-linecap:square;stroke-width:1.5;"/>
   </g>
   <g id="line2d_45">
    <defs>
     <path d="M 0 -6 
L -1.347084 -1.854102 
L -5.706339 -1.854102 
L -2.179628 0.708204 
L -3.526712 4.854102 
L -0 2.291796 
L 3.526712 4.854102 
L 2.179628 0.708204 
L 5.706339 -1.854102 
L 1.347084 -1.854102 
z
" id="m07a15466d0" style="stroke:#ff7500;stroke-linejoin:bevel;stroke-width:1.5;"/>
    </defs>
    <g>
     <use style="fill-opacity:0;stroke:#ff7500;stroke-linejoin:bevel;stroke-width:1.5;" x="223.117068" xlink:href="#m07a15466d0" y="278.403243"/>
     <use style="fill-opacity:0;stroke:#ff7500;stroke-linejoin:bevel;stroke-width:1.5;" x="270.438579" xlink:href="#m07a15466d0" y="185.706493"/>
     <use style="fill-opacity:0;stroke:#ff7500;stroke-linejoin:bevel;stroke-width:1.5;" x="317.390475" xlink:href="#m07a15466d0" y="162.005619"/>
     <use style="fill-opacity:0;stroke:#ff7500;stroke-linejoin:bevel;stroke-width:1.5;" x="338.688" xlink:href="#m07a15466d0" y="162.005619"/>
    </g>
   </g>
   <g id="line2d_46">
    <path style="fill:none;stroke:#ff7500;stroke-linecap:square;stroke-width:1.5;"/>
    <g/>
   </g>
   <g id="line2d_47">
    <path clip-path="url(#p0375aea1e5)" d="M 246.289154 207.300622 
" style="fill:none;stroke:#ff7500;stroke-linecap:square;stroke-width:1.5;"/>
    <defs>
     <path d="M -12 12 
L 12 -12 
M -12 -12 
L 12 12 
" id="m5925b5b712" style="stroke:#ff7500;"/>
    </defs>
    <g clip-path="url(#p0375aea1e5)">
     <use style="fill:#ff7500;stroke:#ff7500;" x="246.289154" xlink:href="#m5925b5b712" y="207.300622"/>
    </g>
   </g>
   <g id="line2d_48">
    <path d="M 338.688 177.806202 
L 369.60768 293.571802 
" style="fill:none;stroke:#ff00ff;stroke-linecap:square;stroke-width:1.5;"/>
    <g>
     <use style="fill-opacity:0;stroke:#ff00ff;stroke-linejoin:miter;stroke-width:1.5;" x="338.688" xlink:href="#mfc2ca212fb" y="177.806202"/>
     <use style="fill-opacity:0;stroke:#ff00ff;stroke-linejoin:miter;stroke-width:1.5;" x="369.60768" xlink:href="#mfc2ca212fb" y="293.571802"/>
    </g>
   </g>
   <g id="line2d_49">
    <path d="M 338.688 162.005619 
L 369.60768 207.616634 
" style="fill:none;stroke:#ff7500;stroke-linecap:square;stroke-width:1.5;"/>
    <g>
     <use style="fill-opacity:0;stroke:#ff7500;stroke-linejoin:bevel;stroke-width:1.5;" x="338.688" xlink:href="#m07a15466d0" y="162.005619"/>
     <use style="fill-opacity:0;stroke:#ff7500;stroke-linejoin:bevel;stroke-width:1.5;" x="369.60768" xlink:href="#m07a15466d0" y="207.616634"/>
    </g>
   </g>
   <g id="line2d_50">
    <path d="M 338.688 30.334099 
L 369.60768 121.661465 
" style="fill:none;stroke:#000080;stroke-linecap:square;stroke-width:1.5;"/>
    <g>
     <use style="fill-opacity:0;stroke:#000080;stroke-width:1.5;" x="338.688" xlink:href="#m90f13cbd95" y="30.334099"/>
     <use style="fill-opacity:0;stroke:#000080;stroke-width:1.5;" x="369.60768" xlink:href="#m90f13cbd95" y="121.661465"/>
    </g>
   </g>
   <g id="line2d_51">
    <path d="M 338.688 298.944 
L 338.688 30.334099 
" style="fill:none;stroke:#000000;stroke-linecap:square;stroke-width:1.5;"/>
   </g>
   <g id="patch_3">
    <path d="M 57.6 298.944 
L 57.6 27.648 
" style="fill:none;stroke:#000000;stroke-linecap:square;stroke-linejoin:miter;stroke-width:0.8;"/>
   </g>
   <g id="patch_4">
    <path d="M 338.688 298.944 
L 338.688 27.648 
" style="fill:none;stroke:#000000;stroke-linecap:square;stroke-linejoin:miter;stroke-width:0.8;"/>
   </g>
   <g id="patch_5">
    <path d="M 57.6 298.944 
L 338.688 298.944 
" style="fill:none;stroke:#000000;stroke-linecap:square;stroke-linejoin:miter;stroke-width:0.8;"/>
   </g>
   <g id="patch_6">
    <path d="M 57.6 27.648 
L 338.688 27.648 
" style="fill:none;stroke:#000000;stroke-linecap:square;stroke-linejoin:miter;stroke-width:0.8;"/>
   </g>
   <g id="text_13">
    <!-- PSO -->
    <g transform="translate(375.22944 298.262739)scale(0.17 -0.17)">
     <defs>
      <path d="M 19.671875 64.796875 
L 19.671875 37.40625 
L 32.078125 37.40625 
Q 38.96875 37.40625 42.71875 40.96875 
Q 46.484375 44.53125 46.484375 51.125 
Q 46.484375 57.671875 42.71875 61.234375 
Q 38.96875 64.796875 32.078125 64.796875 
z
M 9.8125 72.90625 
L 32.078125 72.90625 
Q 44.34375 72.90625 50.609375 67.359375 
Q 56.890625 61.8125 56.890625 51.125 
Q 56.890625 40.328125 50.609375 34.8125 
Q 44.34375 29.296875 32.078125 29.296875 
L 19.671875 29.296875 
L 19.671875 0 
L 9.8125 0 
z
" id="DejaVuSans-80"/>
      <path d="M 53.515625 70.515625 
L 53.515625 60.890625 
Q 47.90625 63.578125 42.921875 64.890625 
Q 37.9375 66.21875 33.296875 66.21875 
Q 25.25 66.21875 20.875 63.09375 
Q 16.5 59.96875 16.5 54.203125 
Q 16.5 49.359375 19.40625 46.890625 
Q 22.3125 44.4375 30.421875 42.921875 
L 36.375 41.703125 
Q 47.40625 39.59375 52.65625 34.296875 
Q 57.90625 29 57.90625 20.125 
Q 57.90625 9.515625 50.796875 4.046875 
Q 43.703125 -1.421875 29.984375 -1.421875 
Q 24.8125 -1.421875 18.96875 -0.25 
Q 13.140625 0.921875 6.890625 3.21875 
L 6.890625 13.375 
Q 12.890625 10.015625 18.65625 8.296875 
Q 24.421875 6.59375 29.984375 6.59375 
Q 38.421875 6.59375 43.015625 9.90625 
Q 47.609375 13.234375 47.609375 19.390625 
Q 47.609375 24.75 44.3125 27.78125 
Q 41.015625 30.8125 33.5 32.328125 
L 27.484375 33.5 
Q 16.453125 35.6875 11.515625 40.375 
Q 6.59375 45.0625 6.59375 53.421875 
Q 6.59375 63.09375 13.40625 68.65625 
Q 20.21875 74.21875 32.171875 74.21875 
Q 37.3125 74.21875 42.625 73.28125 
Q 47.953125 72.359375 53.515625 70.515625 
z
" id="DejaVuSans-83"/>
      <path d="M 39.40625 66.21875 
Q 28.65625 66.21875 22.328125 58.203125 
Q 16.015625 50.203125 16.015625 36.375 
Q 16.015625 22.609375 22.328125 14.59375 
Q 28.65625 6.59375 39.40625 6.59375 
Q 50.140625 6.59375 56.421875 14.59375 
Q 62.703125 22.609375 62.703125 36.375 
Q 62.703125 50.203125 56.421875 58.203125 
Q 50.140625 66.21875 39.40625 66.21875 
z
M 39.40625 74.21875 
Q 54.734375 74.21875 63.90625 63.9375 
Q 73.09375 53.65625 73.09375 36.375 
Q 73.09375 19.140625 63.90625 8.859375 
Q 54.734375 -1.421875 39.40625 -1.421875 
Q 24.03125 -1.421875 14.8125 8.828125 
Q 5.609375 19.09375 5.609375 36.375 
Q 5.609375 53.65625 14.8125 63.9375 
Q 24.03125 74.21875 39.40625 74.21875 
z
" id="DejaVuSans-79"/>
     </defs>
     <use xlink:href="#DejaVuSans-80"/>
     <use x="60.302734" xlink:href="#DejaVuSans-83"/>
     <use x="123.779297" xlink:href="#DejaVuSans-79"/>
    </g>
   </g>
   <g id="text_14">
    <!-- DE -->
    <g transform="translate(375.22944 212.307571)scale(0.17 -0.17)">
     <defs>
      <path d="M 19.671875 64.796875 
L 19.671875 8.109375 
L 31.59375 8.109375 
Q 46.6875 8.109375 53.6875 14.9375 
Q 60.6875 21.78125 60.6875 36.53125 
Q 60.6875 51.171875 53.6875 57.984375 
Q 46.6875 64.796875 31.59375 64.796875 
z
M 9.8125 72.90625 
L 30.078125 72.90625 
Q 51.265625 72.90625 61.171875 64.09375 
Q 71.09375 55.28125 71.09375 36.53125 
Q 71.09375 17.671875 61.125 8.828125 
Q 51.171875 0 30.078125 0 
L 9.8125 0 
z
" id="DejaVuSans-68"/>
      <path d="M 9.8125 72.90625 
L 55.90625 72.90625 
L 55.90625 64.59375 
L 19.671875 64.59375 
L 19.671875 43.015625 
L 54.390625 43.015625 
L 54.390625 34.71875 
L 19.671875 34.71875 
L 19.671875 8.296875 
L 56.78125 8.296875 
L 56.78125 0 
L 9.8125 0 
z
" id="DejaVuSans-69"/>
     </defs>
     <use xlink:href="#DejaVuSans-68"/>
     <use x="77.001953" xlink:href="#DejaVuSans-69"/>
    </g>
   </g>
   <g id="text_15">
    <!-- BIPOP-CMA -->
    <g transform="translate(375.22944 126.352403)scale(0.17 -0.17)">
     <defs>
      <path d="M 19.671875 34.8125 
L 19.671875 8.109375 
L 35.5 8.109375 
Q 43.453125 8.109375 47.28125 11.40625 
Q 51.125 14.703125 51.125 21.484375 
Q 51.125 28.328125 47.28125 31.5625 
Q 43.453125 34.8125 35.5 34.8125 
z
M 19.671875 64.796875 
L 19.671875 42.828125 
L 34.28125 42.828125 
Q 41.5 42.828125 45.03125 45.53125 
Q 48.578125 48.25 48.578125 53.8125 
Q 48.578125 59.328125 45.03125 62.0625 
Q 41.5 64.796875 34.28125 64.796875 
z
M 9.8125 72.90625 
L 35.015625 72.90625 
Q 46.296875 72.90625 52.390625 68.21875 
Q 58.5 63.53125 58.5 54.890625 
Q 58.5 48.1875 55.375 44.234375 
Q 52.25 40.28125 46.1875 39.3125 
Q 53.46875 37.75 57.5 32.78125 
Q 61.53125 27.828125 61.53125 20.40625 
Q 61.53125 10.640625 54.890625 5.3125 
Q 48.25 0 35.984375 0 
L 9.8125 0 
z
" id="DejaVuSans-66"/>
      <path d="M 9.8125 72.90625 
L 19.671875 72.90625 
L 19.671875 0 
L 9.8125 0 
z
" id="DejaVuSans-73"/>
      <path d="M 64.40625 67.28125 
L 64.40625 56.890625 
Q 59.421875 61.53125 53.78125 63.8125 
Q 48.140625 66.109375 41.796875 66.109375 
Q 29.296875 66.109375 22.65625 58.46875 
Q 16.015625 50.828125 16.015625 36.375 
Q 16.015625 21.96875 22.65625 14.328125 
Q 29.296875 6.6875 41.796875 6.6875 
Q 48.140625 6.6875 53.78125 8.984375 
Q 59.421875 11.28125 64.40625 15.921875 
L 64.40625 5.609375 
Q 59.234375 2.09375 53.4375 0.328125 
Q 47.65625 -1.421875 41.21875 -1.421875 
Q 24.65625 -1.421875 15.125 8.703125 
Q 5.609375 18.84375 5.609375 36.375 
Q 5.609375 53.953125 15.125 64.078125 
Q 24.65625 74.21875 41.21875 74.21875 
Q 47.75 74.21875 53.53125 72.484375 
Q 59.328125 70.75 64.40625 67.28125 
z
" id="DejaVuSans-67"/>
      <path d="M 9.8125 72.90625 
L 24.515625 72.90625 
L 43.109375 23.296875 
L 61.8125 72.90625 
L 76.515625 72.90625 
L 76.515625 0 
L 66.890625 0 
L 66.890625 64.015625 
L 48.09375 14.015625 
L 38.1875 14.015625 
L 19.390625 64.015625 
L 19.390625 0 
L 9.8125 0 
z
" id="DejaVuSans-77"/>
      <path d="M 34.1875 63.1875 
L 20.796875 26.90625 
L 47.609375 26.90625 
z
M 28.609375 72.90625 
L 39.796875 72.90625 
L 67.578125 0 
L 57.328125 0 
L 50.6875 18.703125 
L 17.828125 18.703125 
L 11.1875 0 
L 0.78125 0 
z
" id="DejaVuSans-65"/>
     </defs>
     <use xlink:href="#DejaVuSans-66"/>
     <use x="68.603516" xlink:href="#DejaVuSans-73"/>
     <use x="98.095703" xlink:href="#DejaVuSans-80"/>
     <use x="158.398438" xlink:href="#DejaVuSans-79"/>
     <use x="237.109375" xlink:href="#DejaVuSans-80"/>
     <use x="295.162109" xlink:href="#DejaVuSans-45"/>
     <use x="331.246094" xlink:href="#DejaVuSans-67"/>
     <use x="401.070312" xlink:href="#DejaVuSans-77"/>
     <use x="487.349609" xlink:href="#DejaVuSans-65"/>
    </g>
   </g>
   <g id="text_16">
    <!-- best 2009 -->
    <g transform="translate(375.22944 40.397235)scale(0.17 -0.17)">
     <defs>
      <path d="M 48.6875 27.296875 
Q 48.6875 37.203125 44.609375 42.84375 
Q 40.53125 48.484375 33.40625 48.484375 
Q 26.265625 48.484375 22.1875 42.84375 
Q 18.109375 37.203125 18.109375 27.296875 
Q 18.109375 17.390625 22.1875 11.75 
Q 26.265625 6.109375 33.40625 6.109375 
Q 40.53125 6.109375 44.609375 11.75 
Q 48.6875 17.390625 48.6875 27.296875 
z
M 18.109375 46.390625 
Q 20.953125 51.265625 25.265625 53.625 
Q 29.59375 56 35.59375 56 
Q 45.5625 56 51.78125 48.09375 
Q 58.015625 40.1875 58.015625 27.296875 
Q 58.015625 14.40625 51.78125 6.484375 
Q 45.5625 -1.421875 35.59375 -1.421875 
Q 29.59375 -1.421875 25.265625 0.953125 
Q 20.953125 3.328125 18.109375 8.203125 
L 18.109375 0 
L 9.078125 0 
L 9.078125 75.984375 
L 18.109375 75.984375 
z
" id="DejaVuSans-98"/>
      <path d="M 10.984375 1.515625 
L 10.984375 10.5 
Q 14.703125 8.734375 18.5 7.8125 
Q 22.3125 6.890625 25.984375 6.890625 
Q 35.75 6.890625 40.890625 13.453125 
Q 46.046875 20.015625 46.78125 33.40625 
Q 43.953125 29.203125 39.59375 26.953125 
Q 35.25 24.703125 29.984375 24.703125 
Q 19.046875 24.703125 12.671875 31.3125 
Q 6.296875 37.9375 6.296875 49.421875 
Q 6.296875 60.640625 12.9375 67.421875 
Q 19.578125 74.21875 30.609375 74.21875 
Q 43.265625 74.21875 49.921875 64.515625 
Q 56.59375 54.828125 56.59375 36.375 
Q 56.59375 19.140625 48.40625 8.859375 
Q 40.234375 -1.421875 26.421875 -1.421875 
Q 22.703125 -1.421875 18.890625 -0.6875 
Q 15.09375 0.046875 10.984375 1.515625 
z
M 30.609375 32.421875 
Q 37.25 32.421875 41.125 36.953125 
Q 45.015625 41.5 45.015625 49.421875 
Q 45.015625 57.28125 41.125 61.84375 
Q 37.25 66.40625 30.609375 66.40625 
Q 23.96875 66.40625 20.09375 61.84375 
Q 16.21875 57.28125 16.21875 49.421875 
Q 16.21875 41.5 20.09375 36.953125 
Q 23.96875 32.421875 30.609375 32.421875 
z
" id="DejaVuSans-57"/>
     </defs>
     <use xlink:href="#DejaVuSans-98"/>
     <use x="63.476562" xlink:href="#DejaVuSans-101"/>
     <use x="125" xlink:href="#DejaVuSans-115"/>
     <use x="177.099609" xlink:href="#DejaVuSans-116"/>
     <use x="216.308594" xlink:href="#DejaVuSans-32"/>
     <use x="248.095703" xlink:href="#DejaVuSans-50"/>
     <use x="311.71875" xlink:href="#DejaVuSans-48"/>
     <use x="375.341797" xlink:href="#DejaVuSans-48"/>
     <use x="438.964844" xlink:href="#DejaVuSans-57"/>
    </g>
   </g>
   <g id="text_17">
    <!-- bbob f8, 40-D -->
    <g transform="translate(60.41088 38.111366)scale(0.102 -0.102)">
     <use xlink:href="#DejaVuSans-98"/>
     <use x="63.476562" xlink:href="#DejaVuSans-98"/>
     <use x="126.953125" xlink:href="#DejaVuSans-111"/>
     <use x="188.134766" xlink:href="#DejaVuSans-98"/>
     <use x="251.611328" xlink:href="#DejaVuSans-32"/>
     <use x="283.398438" xlink:href="#DejaVuSans-102"/>
     <use x="318.603516" xlink:href="#DejaVuSans-56"/>
     <use x="382.226562" xlink:href="#DejaVuSans-44"/>
     <use x="414.013672" xlink:href="#DejaVuSans-32"/>
     <use x="445.800781" xlink:href="#DejaVuSans-52"/>
     <use x="509.423828" xlink:href="#DejaVuSans-48"/>
     <use x="573.046875" xlink:href="#DejaVuSans-45"/>
     <use x="609.130859" xlink:href="#DejaVuSans-68"/>
    </g>
    <!-- 51 targets: 100..1e-08 -->
    <g transform="translate(60.41088 49.533135)scale(0.102 -0.102)">
     <defs>
      <path d="M 10.796875 72.90625 
L 49.515625 72.90625 
L 49.515625 64.59375 
L 19.828125 64.59375 
L 19.828125 46.734375 
Q 21.96875 47.46875 24.109375 47.828125 
Q 26.265625 48.1875 28.421875 48.1875 
Q 40.625 48.1875 47.75 41.5 
Q 54.890625 34.8125 54.890625 23.390625 
Q 54.890625 11.625 47.5625 5.09375 
Q 40.234375 -1.421875 26.90625 -1.421875 
Q 22.3125 -1.421875 17.546875 -0.640625 
Q 12.796875 0.140625 7.71875 1.703125 
L 7.71875 11.625 
Q 12.109375 9.234375 16.796875 8.0625 
Q 21.484375 6.890625 26.703125 6.890625 
Q 35.15625 6.890625 40.078125 11.328125 
Q 45.015625 15.765625 45.015625 23.390625 
Q 45.015625 31 40.078125 35.4375 
Q 35.15625 39.890625 26.703125 39.890625 
Q 22.75 39.890625 18.8125 39.015625 
Q 14.890625 38.140625 10.796875 36.28125 
z
" id="DejaVuSans-53"/>
      <path d="M 11.71875 12.40625 
L 22.015625 12.40625 
L 22.015625 0 
L 11.71875 0 
z
M 11.71875 51.703125 
L 22.015625 51.703125 
L 22.015625 39.3125 
L 11.71875 39.3125 
z
" id="DejaVuSans-58"/>
     </defs>
     <use xlink:href="#DejaVuSans-53"/>
     <use x="63.623047" xlink:href="#DejaVuSans-49"/>
     <use x="127.246094" xlink:href="#DejaVuSans-32"/>
     <use x="159.033203" xlink:href="#DejaVuSans-116"/>
     <use x="198.242188" xlink:href="#DejaVuSans-97"/>
     <use x="259.521484" xlink:href="#DejaVuSans-114"/>
     <use x="298.884766" xlink:href="#DejaVuSans-103"/>
     <use x="362.361328" xlink:href="#DejaVuSans-101"/>
     <use x="423.884766" xlink:href="#DejaVuSans-116"/>
     <use x="463.09375" xlink:href="#DejaVuSans-115"/>
     <use x="515.193359" xlink:href="#DejaVuSans-58"/>
     <use x="548.884766" xlink:href="#DejaVuSans-32"/>
     <use x="580.671875" xlink:href="#DejaVuSans-49"/>
     <use x="644.294922" xlink:href="#DejaVuSans-48"/>
     <use x="707.917969" xlink:href="#DejaVuSans-48"/>
     <use x="771.541016" xlink:href="#DejaVuSans-46"/>
     <use x="803.328125" xlink:href="#DejaVuSans-46"/>
     <use x="835.115234" xlink:href="#DejaVuSans-49"/>
     <use x="898.738281" xlink:href="#DejaVuSans-101"/>
     <use x="960.261719" xlink:href="#DejaVuSans-45"/>
     <use x="996.345703" xlink:href="#DejaVuSans-48"/>
     <use x="1059.96875" xlink:href="#DejaVuSans-56"/>
    </g>
    <!-- 15 instances -->
    <g transform="translate(60.41088 60.954904)scale(0.102 -0.102)">
     <use xlink:href="#DejaVuSans-49"/>
     <use x="63.623047" xlink:href="#DejaVuSans-53"/>
     <use x="127.246094" xlink:href="#DejaVuSans-32"/>
     <use x="159.033203" xlink:href="#DejaVuSans-105"/>
     <use x="186.816406" xlink:href="#DejaVuSans-110"/>
     <use x="250.195312" xlink:href="#DejaVuSans-115"/>
     <use x="302.294922" xlink:href="#DejaVuSans-116"/>
     <use x="341.503906" xlink:href="#DejaVuSans-97"/>
     <use x="402.783203" xlink:href="#DejaVuSans-110"/>
     <use x="466.162109" xlink:href="#DejaVuSans-99"/>
     <use x="521.142578" xlink:href="#DejaVuSans-101"/>
     <use x="582.666016" xlink:href="#DejaVuSans-115"/>
    </g>
   </g>
   <g id="text_18">
    <!-- v2.4 -->
    <g style="fill:#808080;" transform="translate(187.233062 294.151352)scale(0.1 -0.1)">
     <use xlink:href="#DejaVuSans-118"/>
     <use x="59.179688" xlink:href="#DejaVuSans-50"/>
     <use x="122.802734" xlink:href="#DejaVuSans-46"/>
     <use x="154.589844" xlink:href="#DejaVuSans-52"/>
    </g>
   </g>
   <g id="text_19">
    <!-- 8 Rosenbrock original -->
    <g transform="translate(90.08775 21.648)scale(0.2 -0.2)">
     <defs>
      <path d="M 44.390625 34.1875 
Q 47.5625 33.109375 50.5625 29.59375 
Q 53.5625 26.078125 56.59375 19.921875 
L 66.609375 0 
L 56 0 
L 46.6875 18.703125 
Q 43.0625 26.03125 39.671875 28.421875 
Q 36.28125 30.8125 30.421875 30.8125 
L 19.671875 30.8125 
L 19.671875 0 
L 9.8125 0 
L 9.8125 72.90625 
L 32.078125 72.90625 
Q 44.578125 72.90625 50.734375 67.671875 
Q 56.890625 62.453125 56.890625 51.90625 
Q 56.890625 45.015625 53.6875 40.46875 
Q 50.484375 35.9375 44.390625 34.1875 
z
M 19.671875 64.796875 
L 19.671875 38.921875 
L 32.078125 38.921875 
Q 39.203125 38.921875 42.84375 42.21875 
Q 46.484375 45.515625 46.484375 51.90625 
Q 46.484375 58.296875 42.84375 61.546875 
Q 39.203125 64.796875 32.078125 64.796875 
z
" id="DejaVuSans-82"/>
      <path d="M 9.078125 75.984375 
L 18.109375 75.984375 
L 18.109375 31.109375 
L 44.921875 54.6875 
L 56.390625 54.6875 
L 27.390625 29.109375 
L 57.625 0 
L 45.90625 0 
L 18.109375 26.703125 
L 18.109375 0 
L 9.078125 0 
z
" id="DejaVuSans-107"/>
     </defs>
     <use xlink:href="#DejaVuSans-56"/>
     <use x="63.623047" xlink:href="#DejaVuSans-32"/>
     <use x="95.410156" xlink:href="#DejaVuSans-82"/>
     <use x="160.392578" xlink:href="#DejaVuSans-111"/>
     <use x="221.574219" xlink:href="#DejaVuSans-115"/>
     <use x="273.673828" xlink:href="#DejaVuSans-101"/>
     <use x="335.197266" xlink:href="#DejaVuSans-110"/>
     <use x="398.576172" xlink:href="#DejaVuSans-98"/>
     <use x="462.052734" xlink:href="#DejaVuSans-114"/>
     <use x="500.916016" xlink:href="#DejaVuSans-111"/>
     <use x="562.097656" xlink:href="#DejaVuSans-99"/>
     <use x="617.078125" xlink:href="#DejaVuSans-107"/>
     <use x="674.988281" xlink:href="#DejaVuSans-32"/>
     <use x="706.775391" xlink:href="#DejaVuSans-111"/>
     <use x="767.957031" xlink:href="#DejaVuSans-114"/>
     <use x="809.070312" xlink:href="#DejaVuSans-105"/>
     <use x="836.853516" xlink:href="#DejaVuSans-103"/>
     <use x="900.330078" xlink:href="#DejaVuSans-105"/>
     <use x="928.113281" xlink:href="#DejaVuSans-110"/>
     <use x="991.492188" xlink:href="#DejaVuSans-97"/>
     <use x="1052.771484" xlink:href="#DejaVuSans-108"/>
    </g>
   </g>
  </g>
 </g>
 <defs>
  <clipPath id="p0375aea1e5">
   <rect height="271.296" width="281.088" x="57.6" y="27.648"/>
  </clipPath>
 </defs>
</svg>
