<?xml version="1.0" encoding="utf-8" standalone="no"?>
<!DOCTYPE svg PUBLIC "-//W3C//DTD SVG 1.1//EN"
  "http://www.w3.org/Graphics/SVG/1.1/DTD/svg11.dtd">
<!-- Created with matplotlib (https://matplotlib.org/) -->
<svg height="345.6pt" version="1.1" viewBox="0 0 460.8 345.6" width="460.8pt" xmlns="http://www.w3.org/2000/svg" xmlns:xlink="http://www.w3.org/1999/xlink">
 <metadata>
  <rdf:RDF xmlns:cc="http://creativecommons.org/ns#" xmlns:dc="http://purl.org/dc/elements/1.1/" xmlns:rdf="http://www.w3.org/1999/02/22-rdf-syntax-ns#">
   <cc:Work>
    <dc:type rdf:resource="http://purl.org/dc/dcmitype/StillImage"/>
    <dc:date>2021-05-01T17:07:40.646794</dc:date>
    <dc:format>image/svg+xml</dc:format>
    <dc:creator>
     <cc:Agent>
      <dc:title>Matplotlib v3.3.2, https://matplotlib.org/</dc:title>
     </cc:Agent>
    </dc:creator>
   </cc:Work>
  </rdf:RDF>
 </metadata>
 <defs>
  <style type="text/css">*{stroke-linecap:butt;stroke-linejoin:round;}</style>
 </defs>
 <g id="figure_1">
  <g id="patch_1">
   <path d="M 0 345.6 
L 460.8 345.6 
L 460.8 0 
L 0 0 
z
" style="fill:#ffffff;"/>
  </g>
  <g id="axes_1">
   <g id="patch_2">
    <path d="M 57.6 298.944 
L 338.688 298.944 
L 338.688 27.648 
L 57.6 27.648 
z
" style="fill:#ffffff;"/>
   </g>
   <g id="line2d_1">
    <path d="M 116.709783 298.944 
L 116.709783 293.677139 
L 117.174084 293.677139 
L 117.174084 288.410278 
L 117.598418 288.410278 
L 117.598418 283.143418 
L 118.390628 283.143418 
L 118.390628 277.876557 
L 123.849288 277.876557 
L 123.849288 272.609696 
L 126.540355 272.609696 
L 126.540355 267.342835 
L 129.936138 267.342835 
L 129.936138 262.075974 
L 131.99937 262.075974 
L 131.99937 256.809114 
L 134.117215 256.809114 
L 134.117215 251.542253 
L 135.482227 251.542253 
L 135.482227 246.275392 
L 137.361683 246.275392 
L 137.361683 241.008531 
L 138.561269 241.008531 
L 138.561269 235.74167 
L 139.477614 235.74167 
L 139.477614 230.47481 
L 141.024894 230.47481 
L 141.024894 225.207949 
L 142.106582 225.207949 
L 142.106582 219.941088 
L 143.40093 219.941088 
L 143.40093 214.674227 
L 144.056737 214.674227 
L 144.056737 209.407366 
L 144.522457 209.407366 
L 144.522457 204.140506 
L 145.166911 204.140506 
L 145.166911 198.873645 
L 145.519922 198.873645 
L 145.519922 193.606784 
L 145.865929 193.606784 
L 145.865929 188.339923 
L 146.232279 188.339923 
L 146.232279 183.073062 
L 146.622867 183.073062 
L 146.622867 177.806202 
L 147.087524 177.806202 
L 147.087524 172.539341 
L 147.525055 172.539341 
L 147.525055 167.27248 
L 150.598782 167.27248 
L 150.598782 162.005619 
L 153.319524 162.005619 
L 153.319524 156.738758 
L 155.303359 156.738758 
L 155.303359 151.471897 
L 155.574631 151.471897 
L 155.574631 146.205037 
L 158.053098 146.205037 
L 158.053098 140.938176 
L 158.271501 140.938176 
L 158.271501 135.671315 
L 158.511304 135.671315 
L 158.511304 130.404454 
L 158.747853 130.404454 
L 158.747853 125.137593 
L 164.573397 125.137593 
L 164.573397 119.870733 
L 169.518863 119.870733 
L 169.518863 114.603872 
L 169.739527 114.603872 
L 169.739527 109.337011 
L 169.947714 109.337011 
L 169.947714 104.07015 
L 170.149326 104.07015 
L 170.149326 98.803289 
L 170.336414 98.803289 
L 170.336414 93.536429 
L 170.544348 93.536429 
L 170.544348 88.269568 
L 170.751159 88.269568 
L 170.751159 83.002707 
L 170.952924 83.002707 
L 170.952924 77.735846 
L 171.13682 77.735846 
L 171.13682 72.468985 
L 171.311091 72.468985 
L 171.311091 67.202125 
L 171.479823 67.202125 
L 171.479823 61.935264 
L 171.629289 61.935264 
L 171.629289 56.668403 
L 171.773733 56.668403 
L 171.773733 51.401542 
L 171.915749 51.401542 
L 171.915749 46.134681 
L 172.070151 46.134681 
L 172.070151 40.867821 
L 172.231729 40.867821 
L 172.231729 35.60096 
L 172.561226 35.60096 
L 172.561226 30.334099 
L 338.688 30.334099 
" style="fill:none;stroke:#f5deb3;stroke-linecap:square;stroke-width:4;"/>
   </g>
   <g id="line2d_2">
    <defs>
     <path d="M -0 7.778175 
L 7.778175 0 
L 0 -7.778175 
L -7.778175 -0 
z
" id="m7d654b46b4" style="stroke:#f5deb3;stroke-linejoin:miter;stroke-width:1.5;"/>
    </defs>
    <g>
     <use style="fill:#f5deb3;stroke:#f5deb3;stroke-linejoin:miter;stroke-width:1.5;" x="146.232279" xlink:href="#m7d654b46b4" y="183.073062"/>
     <use style="fill:#f5deb3;stroke:#f5deb3;stroke-linejoin:miter;stroke-width:1.5;" x="171.629289" xlink:href="#m7d654b46b4" y="56.668403"/>
     <use style="fill:#f5deb3;stroke:#f5deb3;stroke-linejoin:miter;stroke-width:1.5;" x="172.561226" xlink:href="#m7d654b46b4" y="30.334099"/>
     <use style="fill:#f5deb3;stroke:#f5deb3;stroke-linejoin:miter;stroke-width:1.5;" x="172.561226" xlink:href="#m7d654b46b4" y="30.334099"/>
     <use style="fill:#f5deb3;stroke:#f5deb3;stroke-linejoin:miter;stroke-width:1.5;" x="338.688" xlink:href="#m7d654b46b4" y="30.334099"/>
    </g>
   </g>
   <g id="line2d_3">
    <path style="fill:none;stroke:#f5deb3;stroke-linecap:square;stroke-width:4;"/>
    <g/>
   </g>
   <g id="line2d_4">
    <path d="M 338.688 30.334099 
L 369.60768 35.706297 
" style="fill:none;stroke:#f5deb3;stroke-linecap:square;stroke-width:4;"/>
    <g>
     <use style="fill:#f5deb3;stroke:#f5deb3;stroke-linejoin:miter;stroke-width:1.5;" x="338.688" xlink:href="#m7d654b46b4" y="30.334099"/>
     <use style="fill:#f5deb3;stroke:#f5deb3;stroke-linejoin:miter;stroke-width:1.5;" x="369.60768" xlink:href="#m7d654b46b4" y="35.706297"/>
    </g>
   </g>
   <g id="matplotlib.axis_1">
    <g id="xtick_1">
     <g id="line2d_5">
      <path clip-path="url(#p0dd6c77bfb)" d="M 57.6 298.944 
L 57.6 27.648 
" style="fill:none;stroke:#b0b0b0;stroke-linecap:square;stroke-width:0.8;"/>
     </g>
     <g id="line2d_6">
      <defs>
       <path d="M 0 0 
L 0 3.5 
" id="m6ccfbf2b06" style="stroke:#000000;stroke-width:0.8;"/>
      </defs>
      <g>
       <use style="stroke:#000000;stroke-width:0.8;" x="57.6" xlink:href="#m6ccfbf2b06" y="298.944"/>
      </g>
     </g>
     <g id="text_1">
      <!-- 0 -->
      <g transform="translate(51.2375 321.140875)scale(0.2 -0.2)">
       <defs>
        <path d="M 31.78125 66.40625 
Q 24.171875 66.40625 20.328125 58.90625 
Q 16.5 51.421875 16.5 36.375 
Q 16.5 21.390625 20.328125 13.890625 
Q 24.171875 6.390625 31.78125 6.390625 
Q 39.453125 6.390625 43.28125 13.890625 
Q 47.125 21.390625 47.125 36.375 
Q 47.125 51.421875 43.28125 58.90625 
Q 39.453125 66.40625 31.78125 66.40625 
z
M 31.78125 74.21875 
Q 44.046875 74.21875 50.515625 64.515625 
Q 56.984375 54.828125 56.984375 36.375 
Q 56.984375 17.96875 50.515625 8.265625 
Q 44.046875 -1.421875 31.78125 -1.421875 
Q 19.53125 -1.421875 13.0625 8.265625 
Q 6.59375 17.96875 6.59375 36.375 
Q 6.59375 54.828125 13.0625 64.515625 
Q 19.53125 74.21875 31.78125 74.21875 
z
" id="DejaVuSans-48"/>
       </defs>
       <use xlink:href="#DejaVuSans-48"/>
      </g>
     </g>
    </g>
    <g id="xtick_2">
     <g id="line2d_7">
      <path clip-path="url(#p0dd6c77bfb)" d="M 137.910857 298.944 
L 137.910857 27.648 
" style="fill:none;stroke:#b0b0b0;stroke-linecap:square;stroke-width:0.8;"/>
     </g>
     <g id="line2d_8">
      <g>
       <use style="stroke:#000000;stroke-width:0.8;" x="137.910857" xlink:href="#m6ccfbf2b06" y="298.944"/>
      </g>
     </g>
     <g id="text_2">
      <!-- 2 -->
      <g transform="translate(131.548357 321.140875)scale(0.2 -0.2)">
       <defs>
        <path d="M 19.1875 8.296875 
L 53.609375 8.296875 
L 53.609375 0 
L 7.328125 0 
L 7.328125 8.296875 
Q 12.9375 14.109375 22.625 23.890625 
Q 32.328125 33.6875 34.8125 36.53125 
Q 39.546875 41.84375 41.421875 45.53125 
Q 43.3125 49.21875 43.3125 52.78125 
Q 43.3125 58.59375 39.234375 62.25 
Q 35.15625 65.921875 28.609375 65.921875 
Q 23.96875 65.921875 18.8125 64.3125 
Q 13.671875 62.703125 7.8125 59.421875 
L 7.8125 69.390625 
Q 13.765625 71.78125 18.9375 73 
Q 24.125 74.21875 28.421875 74.21875 
Q 39.75 74.21875 46.484375 68.546875 
Q 53.21875 62.890625 53.21875 53.421875 
Q 53.21875 48.921875 51.53125 44.890625 
Q 49.859375 40.875 45.40625 35.40625 
Q 44.1875 33.984375 37.640625 27.21875 
Q 31.109375 20.453125 19.1875 8.296875 
z
" id="DejaVuSans-50"/>
       </defs>
       <use xlink:href="#DejaVuSans-50"/>
      </g>
     </g>
    </g>
    <g id="xtick_3">
     <g id="line2d_9">
      <path clip-path="url(#p0dd6c77bfb)" d="M 218.221714 298.944 
L 218.221714 27.648 
" style="fill:none;stroke:#b0b0b0;stroke-linecap:square;stroke-width:0.8;"/>
     </g>
     <g id="line2d_10">
      <g>
       <use style="stroke:#000000;stroke-width:0.8;" x="218.221714" xlink:href="#m6ccfbf2b06" y="298.944"/>
      </g>
     </g>
     <g id="text_3">
      <!-- 4 -->
      <g transform="translate(211.859214 321.140875)scale(0.2 -0.2)">
       <defs>
        <path d="M 37.796875 64.3125 
L 12.890625 25.390625 
L 37.796875 25.390625 
z
M 35.203125 72.90625 
L 47.609375 72.90625 
L 47.609375 25.390625 
L 58.015625 25.390625 
L 58.015625 17.1875 
L 47.609375 17.1875 
L 47.609375 0 
L 37.796875 0 
L 37.796875 17.1875 
L 4.890625 17.1875 
L 4.890625 26.703125 
z
" id="DejaVuSans-52"/>
       </defs>
       <use xlink:href="#DejaVuSans-52"/>
      </g>
     </g>
    </g>
    <g id="xtick_4">
     <g id="line2d_11">
      <path clip-path="url(#p0dd6c77bfb)" d="M 298.532571 298.944 
L 298.532571 27.648 
" style="fill:none;stroke:#b0b0b0;stroke-linecap:square;stroke-width:0.8;"/>
     </g>
     <g id="line2d_12">
      <g>
       <use style="stroke:#000000;stroke-width:0.8;" x="298.532571" xlink:href="#m6ccfbf2b06" y="298.944"/>
      </g>
     </g>
     <g id="text_4">
      <!-- 6 -->
      <g transform="translate(292.170071 321.140875)scale(0.2 -0.2)">
       <defs>
        <path d="M 33.015625 40.375 
Q 26.375 40.375 22.484375 35.828125 
Q 18.609375 31.296875 18.609375 23.390625 
Q 18.609375 15.53125 22.484375 10.953125 
Q 26.375 6.390625 33.015625 6.390625 
Q 39.65625 6.390625 43.53125 10.953125 
Q 47.40625 15.53125 47.40625 23.390625 
Q 47.40625 31.296875 43.53125 35.828125 
Q 39.65625 40.375 33.015625 40.375 
z
M 52.59375 71.296875 
L 52.59375 62.3125 
Q 48.875 64.0625 45.09375 64.984375 
Q 41.3125 65.921875 37.59375 65.921875 
Q 27.828125 65.921875 22.671875 59.328125 
Q 17.53125 52.734375 16.796875 39.40625 
Q 19.671875 43.65625 24.015625 45.921875 
Q 28.375 48.1875 33.59375 48.1875 
Q 44.578125 48.1875 50.953125 41.515625 
Q 57.328125 34.859375 57.328125 23.390625 
Q 57.328125 12.15625 50.6875 5.359375 
Q 44.046875 -1.421875 33.015625 -1.421875 
Q 20.359375 -1.421875 13.671875 8.265625 
Q 6.984375 17.96875 6.984375 36.375 
Q 6.984375 53.65625 15.1875 63.9375 
Q 23.390625 74.21875 37.203125 74.21875 
Q 40.921875 74.21875 44.703125 73.484375 
Q 48.484375 72.75 52.59375 71.296875 
z
" id="DejaVuSans-54"/>
       </defs>
       <use xlink:href="#DejaVuSans-54"/>
      </g>
     </g>
    </g>
    <g id="xtick_5">
     <g id="line2d_13">
      <path clip-path="url(#p0dd6c77bfb)" d="M 97.755429 298.944 
L 97.755429 27.648 
" style="fill:none;stroke:#b0b0b0;stroke-linecap:square;stroke-width:0.8;"/>
     </g>
     <g id="line2d_14">
      <defs>
       <path d="M 0 0 
L 0 2 
" id="m886ebba476" style="stroke:#000000;stroke-width:0.6;"/>
      </defs>
      <g>
       <use style="stroke:#000000;stroke-width:0.6;" x="97.755429" xlink:href="#m886ebba476" y="298.944"/>
      </g>
     </g>
    </g>
    <g id="xtick_6">
     <g id="line2d_15">
      <path clip-path="url(#p0dd6c77bfb)" d="M 178.066286 298.944 
L 178.066286 27.648 
" style="fill:none;stroke:#b0b0b0;stroke-linecap:square;stroke-width:0.8;"/>
     </g>
     <g id="line2d_16">
      <g>
       <use style="stroke:#000000;stroke-width:0.6;" x="178.066286" xlink:href="#m886ebba476" y="298.944"/>
      </g>
     </g>
    </g>
    <g id="xtick_7">
     <g id="line2d_17">
      <path clip-path="url(#p0dd6c77bfb)" d="M 258.377143 298.944 
L 258.377143 27.648 
" style="fill:none;stroke:#b0b0b0;stroke-linecap:square;stroke-width:0.8;"/>
     </g>
     <g id="line2d_18">
      <g>
       <use style="stroke:#000000;stroke-width:0.6;" x="258.377143" xlink:href="#m886ebba476" y="298.944"/>
      </g>
     </g>
    </g>
    <g id="xtick_8">
     <g id="line2d_19">
      <path clip-path="url(#p0dd6c77bfb)" d="M 338.688 298.944 
L 338.688 27.648 
" style="fill:none;stroke:#b0b0b0;stroke-linecap:square;stroke-width:0.8;"/>
     </g>
     <g id="line2d_20">
      <g>
       <use style="stroke:#000000;stroke-width:0.6;" x="338.688" xlink:href="#m886ebba476" y="298.944"/>
      </g>
     </g>
    </g>
    <g id="text_5">
     <!-- log10(# f-evals / dimension) -->
     <g transform="translate(77.764078 342.217594)scale(0.17 -0.17)">
      <defs>
       <path d="M 9.421875 75.984375 
L 18.40625 75.984375 
L 18.40625 0 
L 9.421875 0 
z
" id="DejaVuSans-108"/>
       <path d="M 30.609375 48.390625 
Q 23.390625 48.390625 19.1875 42.75 
Q 14.984375 37.109375 14.984375 27.296875 
Q 14.984375 17.484375 19.15625 11.84375 
Q 23.34375 6.203125 30.609375 6.203125 
Q 37.796875 6.203125 41.984375 11.859375 
Q 46.1875 17.53125 46.1875 27.296875 
Q 46.1875 37.015625 41.984375 42.703125 
Q 37.796875 48.390625 30.609375 48.390625 
z
M 30.609375 56 
Q 42.328125 56 49.015625 48.375 
Q 55.71875 40.765625 55.71875 27.296875 
Q 55.71875 13.875 49.015625 6.21875 
Q 42.328125 -1.421875 30.609375 -1.421875 
Q 18.84375 -1.421875 12.171875 6.21875 
Q 5.515625 13.875 5.515625 27.296875 
Q 5.515625 40.765625 12.171875 48.375 
Q 18.84375 56 30.609375 56 
z
" id="DejaVuSans-111"/>
       <path d="M 45.40625 27.984375 
Q 45.40625 37.75 41.375 43.109375 
Q 37.359375 48.484375 30.078125 48.484375 
Q 22.859375 48.484375 18.828125 43.109375 
Q 14.796875 37.75 14.796875 27.984375 
Q 14.796875 18.265625 18.828125 12.890625 
Q 22.859375 7.515625 30.078125 7.515625 
Q 37.359375 7.515625 41.375 12.890625 
Q 45.40625 18.265625 45.40625 27.984375 
z
M 54.390625 6.78125 
Q 54.390625 -7.171875 48.1875 -13.984375 
Q 42 -20.796875 29.203125 -20.796875 
Q 24.46875 -20.796875 20.265625 -20.09375 
Q 16.0625 -19.390625 12.109375 -17.921875 
L 12.109375 -9.1875 
Q 16.0625 -11.328125 19.921875 -12.34375 
Q 23.78125 -13.375 27.78125 -13.375 
Q 36.625 -13.375 41.015625 -8.765625 
Q 45.40625 -4.15625 45.40625 5.171875 
L 45.40625 9.625 
Q 42.625 4.78125 38.28125 2.390625 
Q 33.9375 0 27.875 0 
Q 17.828125 0 11.671875 7.65625 
Q 5.515625 15.328125 5.515625 27.984375 
Q 5.515625 40.671875 11.671875 48.328125 
Q 17.828125 56 27.875 56 
Q 33.9375 56 38.28125 53.609375 
Q 42.625 51.21875 45.40625 46.390625 
L 45.40625 54.6875 
L 54.390625 54.6875 
z
" id="DejaVuSans-103"/>
       <path d="M 12.40625 8.296875 
L 28.515625 8.296875 
L 28.515625 63.921875 
L 10.984375 60.40625 
L 10.984375 69.390625 
L 28.421875 72.90625 
L 38.28125 72.90625 
L 38.28125 8.296875 
L 54.390625 8.296875 
L 54.390625 0 
L 12.40625 0 
z
" id="DejaVuSans-49"/>
       <path d="M 31 75.875 
Q 24.46875 64.65625 21.28125 53.65625 
Q 18.109375 42.671875 18.109375 31.390625 
Q 18.109375 20.125 21.3125 9.0625 
Q 24.515625 -2 31 -13.1875 
L 23.1875 -13.1875 
Q 15.875 -1.703125 12.234375 9.375 
Q 8.59375 20.453125 8.59375 31.390625 
Q 8.59375 42.28125 12.203125 53.3125 
Q 15.828125 64.359375 23.1875 75.875 
z
" id="DejaVuSans-40"/>
       <path d="M 51.125 44 
L 36.921875 44 
L 32.8125 27.6875 
L 47.125 27.6875 
z
M 43.796875 71.78125 
L 38.71875 51.515625 
L 52.984375 51.515625 
L 58.109375 71.78125 
L 65.921875 71.78125 
L 60.890625 51.515625 
L 76.125 51.515625 
L 76.125 44 
L 58.984375 44 
L 54.984375 27.6875 
L 70.515625 27.6875 
L 70.515625 20.21875 
L 53.078125 20.21875 
L 48 0 
L 40.1875 0 
L 45.21875 20.21875 
L 30.90625 20.21875 
L 25.875 0 
L 18.015625 0 
L 23.09375 20.21875 
L 7.71875 20.21875 
L 7.71875 27.6875 
L 24.90625 27.6875 
L 29 44 
L 13.28125 44 
L 13.28125 51.515625 
L 30.90625 51.515625 
L 35.890625 71.78125 
z
" id="DejaVuSans-35"/>
       <path id="DejaVuSans-32"/>
       <path d="M 37.109375 75.984375 
L 37.109375 68.5 
L 28.515625 68.5 
Q 23.6875 68.5 21.796875 66.546875 
Q 19.921875 64.59375 19.921875 59.515625 
L 19.921875 54.6875 
L 34.71875 54.6875 
L 34.71875 47.703125 
L 19.921875 47.703125 
L 19.921875 0 
L 10.890625 0 
L 10.890625 47.703125 
L 2.296875 47.703125 
L 2.296875 54.6875 
L 10.890625 54.6875 
L 10.890625 58.5 
Q 10.890625 67.625 15.140625 71.796875 
Q 19.390625 75.984375 28.609375 75.984375 
z
" id="DejaVuSans-102"/>
       <path d="M 4.890625 31.390625 
L 31.203125 31.390625 
L 31.203125 23.390625 
L 4.890625 23.390625 
z
" id="DejaVuSans-45"/>
       <path d="M 56.203125 29.59375 
L 56.203125 25.203125 
L 14.890625 25.203125 
Q 15.484375 15.921875 20.484375 11.0625 
Q 25.484375 6.203125 34.421875 6.203125 
Q 39.59375 6.203125 44.453125 7.46875 
Q 49.3125 8.734375 54.109375 11.28125 
L 54.109375 2.78125 
Q 49.265625 0.734375 44.1875 -0.34375 
Q 39.109375 -1.421875 33.890625 -1.421875 
Q 20.796875 -1.421875 13.15625 6.1875 
Q 5.515625 13.8125 5.515625 26.8125 
Q 5.515625 40.234375 12.765625 48.109375 
Q 20.015625 56 32.328125 56 
Q 43.359375 56 49.78125 48.890625 
Q 56.203125 41.796875 56.203125 29.59375 
z
M 47.21875 32.234375 
Q 47.125 39.59375 43.09375 43.984375 
Q 39.0625 48.390625 32.421875 48.390625 
Q 24.90625 48.390625 20.390625 44.140625 
Q 15.875 39.890625 15.1875 32.171875 
z
" id="DejaVuSans-101"/>
       <path d="M 2.984375 54.6875 
L 12.5 54.6875 
L 29.59375 8.796875 
L 46.6875 54.6875 
L 56.203125 54.6875 
L 35.6875 0 
L 23.484375 0 
z
" id="DejaVuSans-118"/>
       <path d="M 34.28125 27.484375 
Q 23.390625 27.484375 19.1875 25 
Q 14.984375 22.515625 14.984375 16.5 
Q 14.984375 11.71875 18.140625 8.90625 
Q 21.296875 6.109375 26.703125 6.109375 
Q 34.1875 6.109375 38.703125 11.40625 
Q 43.21875 16.703125 43.21875 25.484375 
L 43.21875 27.484375 
z
M 52.203125 31.203125 
L 52.203125 0 
L 43.21875 0 
L 43.21875 8.296875 
Q 40.140625 3.328125 35.546875 0.953125 
Q 30.953125 -1.421875 24.3125 -1.421875 
Q 15.921875 -1.421875 10.953125 3.296875 
Q 6 8.015625 6 15.921875 
Q 6 25.140625 12.171875 29.828125 
Q 18.359375 34.515625 30.609375 34.515625 
L 43.21875 34.515625 
L 43.21875 35.40625 
Q 43.21875 41.609375 39.140625 45 
Q 35.0625 48.390625 27.6875 48.390625 
Q 23 48.390625 18.546875 47.265625 
Q 14.109375 46.140625 10.015625 43.890625 
L 10.015625 52.203125 
Q 14.9375 54.109375 19.578125 55.046875 
Q 24.21875 56 28.609375 56 
Q 40.484375 56 46.34375 49.84375 
Q 52.203125 43.703125 52.203125 31.203125 
z
" id="DejaVuSans-97"/>
       <path d="M 44.28125 53.078125 
L 44.28125 44.578125 
Q 40.484375 46.53125 36.375 47.5 
Q 32.28125 48.484375 27.875 48.484375 
Q 21.1875 48.484375 17.84375 46.4375 
Q 14.5 44.390625 14.5 40.28125 
Q 14.5 37.15625 16.890625 35.375 
Q 19.28125 33.59375 26.515625 31.984375 
L 29.59375 31.296875 
Q 39.15625 29.25 43.1875 25.515625 
Q 47.21875 21.78125 47.21875 15.09375 
Q 47.21875 7.46875 41.1875 3.015625 
Q 35.15625 -1.421875 24.609375 -1.421875 
Q 20.21875 -1.421875 15.453125 -0.5625 
Q 10.6875 0.296875 5.421875 2 
L 5.421875 11.28125 
Q 10.40625 8.6875 15.234375 7.390625 
Q 20.0625 6.109375 24.8125 6.109375 
Q 31.15625 6.109375 34.5625 8.28125 
Q 37.984375 10.453125 37.984375 14.40625 
Q 37.984375 18.0625 35.515625 20.015625 
Q 33.0625 21.96875 24.703125 23.78125 
L 21.578125 24.515625 
Q 13.234375 26.265625 9.515625 29.90625 
Q 5.8125 33.546875 5.8125 39.890625 
Q 5.8125 47.609375 11.28125 51.796875 
Q 16.75 56 26.8125 56 
Q 31.78125 56 36.171875 55.265625 
Q 40.578125 54.546875 44.28125 53.078125 
z
" id="DejaVuSans-115"/>
       <path d="M 25.390625 72.90625 
L 33.6875 72.90625 
L 8.296875 -9.28125 
L 0 -9.28125 
z
" id="DejaVuSans-47"/>
       <path d="M 45.40625 46.390625 
L 45.40625 75.984375 
L 54.390625 75.984375 
L 54.390625 0 
L 45.40625 0 
L 45.40625 8.203125 
Q 42.578125 3.328125 38.25 0.953125 
Q 33.9375 -1.421875 27.875 -1.421875 
Q 17.96875 -1.421875 11.734375 6.484375 
Q 5.515625 14.40625 5.515625 27.296875 
Q 5.515625 40.1875 11.734375 48.09375 
Q 17.96875 56 27.875 56 
Q 33.9375 56 38.25 53.625 
Q 42.578125 51.265625 45.40625 46.390625 
z
M 14.796875 27.296875 
Q 14.796875 17.390625 18.875 11.75 
Q 22.953125 6.109375 30.078125 6.109375 
Q 37.203125 6.109375 41.296875 11.75 
Q 45.40625 17.390625 45.40625 27.296875 
Q 45.40625 37.203125 41.296875 42.84375 
Q 37.203125 48.484375 30.078125 48.484375 
Q 22.953125 48.484375 18.875 42.84375 
Q 14.796875 37.203125 14.796875 27.296875 
z
" id="DejaVuSans-100"/>
       <path d="M 9.421875 54.6875 
L 18.40625 54.6875 
L 18.40625 0 
L 9.421875 0 
z
M 9.421875 75.984375 
L 18.40625 75.984375 
L 18.40625 64.59375 
L 9.421875 64.59375 
z
" id="DejaVuSans-105"/>
       <path d="M 52 44.1875 
Q 55.375 50.25 60.0625 53.125 
Q 64.75 56 71.09375 56 
Q 79.640625 56 84.28125 50.015625 
Q 88.921875 44.046875 88.921875 33.015625 
L 88.921875 0 
L 79.890625 0 
L 79.890625 32.71875 
Q 79.890625 40.578125 77.09375 44.375 
Q 74.3125 48.1875 68.609375 48.1875 
Q 61.625 48.1875 57.5625 43.546875 
Q 53.515625 38.921875 53.515625 30.90625 
L 53.515625 0 
L 44.484375 0 
L 44.484375 32.71875 
Q 44.484375 40.625 41.703125 44.40625 
Q 38.921875 48.1875 33.109375 48.1875 
Q 26.21875 48.1875 22.15625 43.53125 
Q 18.109375 38.875 18.109375 30.90625 
L 18.109375 0 
L 9.078125 0 
L 9.078125 54.6875 
L 18.109375 54.6875 
L 18.109375 46.1875 
Q 21.1875 51.21875 25.484375 53.609375 
Q 29.78125 56 35.6875 56 
Q 41.65625 56 45.828125 52.96875 
Q 50 49.953125 52 44.1875 
z
" id="DejaVuSans-109"/>
       <path d="M 54.890625 33.015625 
L 54.890625 0 
L 45.90625 0 
L 45.90625 32.71875 
Q 45.90625 40.484375 42.875 44.328125 
Q 39.84375 48.1875 33.796875 48.1875 
Q 26.515625 48.1875 22.3125 43.546875 
Q 18.109375 38.921875 18.109375 30.90625 
L 18.109375 0 
L 9.078125 0 
L 9.078125 54.6875 
L 18.109375 54.6875 
L 18.109375 46.1875 
Q 21.34375 51.125 25.703125 53.5625 
Q 30.078125 56 35.796875 56 
Q 45.21875 56 50.046875 50.171875 
Q 54.890625 44.34375 54.890625 33.015625 
z
" id="DejaVuSans-110"/>
       <path d="M 8.015625 75.875 
L 15.828125 75.875 
Q 23.140625 64.359375 26.78125 53.3125 
Q 30.421875 42.28125 30.421875 31.390625 
Q 30.421875 20.453125 26.78125 9.375 
Q 23.140625 -1.703125 15.828125 -13.1875 
L 8.015625 -13.1875 
Q 14.5 -2 17.703125 9.0625 
Q 20.90625 20.125 20.90625 31.390625 
Q 20.90625 42.671875 17.703125 53.65625 
Q 14.5 64.65625 8.015625 75.875 
z
" id="DejaVuSans-41"/>
      </defs>
      <use xlink:href="#DejaVuSans-108"/>
      <use x="27.783203" xlink:href="#DejaVuSans-111"/>
      <use x="88.964844" xlink:href="#DejaVuSans-103"/>
      <use x="152.441406" xlink:href="#DejaVuSans-49"/>
      <use x="216.064453" xlink:href="#DejaVuSans-48"/>
      <use x="279.6875" xlink:href="#DejaVuSans-40"/>
      <use x="318.701172" xlink:href="#DejaVuSans-35"/>
      <use x="402.490234" xlink:href="#DejaVuSans-32"/>
      <use x="434.277344" xlink:href="#DejaVuSans-102"/>
      <use x="463.982422" xlink:href="#DejaVuSans-45"/>
      <use x="500.066406" xlink:href="#DejaVuSans-101"/>
      <use x="561.589844" xlink:href="#DejaVuSans-118"/>
      <use x="620.769531" xlink:href="#DejaVuSans-97"/>
      <use x="682.048828" xlink:href="#DejaVuSans-108"/>
      <use x="709.832031" xlink:href="#DejaVuSans-115"/>
      <use x="761.931641" xlink:href="#DejaVuSans-32"/>
      <use x="793.71875" xlink:href="#DejaVuSans-47"/>
      <use x="827.410156" xlink:href="#DejaVuSans-32"/>
      <use x="859.197266" xlink:href="#DejaVuSans-100"/>
      <use x="922.673828" xlink:href="#DejaVuSans-105"/>
      <use x="950.457031" xlink:href="#DejaVuSans-109"/>
      <use x="1047.869141" xlink:href="#DejaVuSans-101"/>
      <use x="1109.392578" xlink:href="#DejaVuSans-110"/>
      <use x="1172.771484" xlink:href="#DejaVuSans-115"/>
      <use x="1224.871094" xlink:href="#DejaVuSans-105"/>
      <use x="1252.654297" xlink:href="#DejaVuSans-111"/>
      <use x="1313.835938" xlink:href="#DejaVuSans-110"/>
      <use x="1377.214844" xlink:href="#DejaVuSans-41"/>
     </g>
    </g>
   </g>
   <g id="matplotlib.axis_2">
    <g id="ytick_1">
     <g id="line2d_21">
      <path clip-path="url(#p0dd6c77bfb)" d="M 57.6 298.944 
L 338.688 298.944 
" style="fill:none;stroke:#b0b0b0;stroke-linecap:square;stroke-width:0.8;"/>
     </g>
     <g id="line2d_22">
      <defs>
       <path d="M 0 0 
L -3.5 0 
" id="macde776392" style="stroke:#000000;stroke-width:0.8;"/>
      </defs>
      <g>
       <use style="stroke:#000000;stroke-width:0.8;" x="57.6" xlink:href="#macde776392" y="298.944"/>
      </g>
     </g>
     <g id="text_6">
      <!-- 0.0 -->
      <g transform="translate(25.155 305.02275)scale(0.16 -0.16)">
       <defs>
        <path d="M 10.6875 12.40625 
L 21 12.40625 
L 21 0 
L 10.6875 0 
z
" id="DejaVuSans-46"/>
       </defs>
       <use xlink:href="#DejaVuSans-48"/>
       <use x="63.623047" xlink:href="#DejaVuSans-46"/>
       <use x="95.410156" xlink:href="#DejaVuSans-48"/>
      </g>
     </g>
    </g>
    <g id="ytick_2">
     <g id="line2d_23">
      <path clip-path="url(#p0dd6c77bfb)" d="M 57.6 245.22202 
L 338.688 245.22202 
" style="fill:none;stroke:#b0b0b0;stroke-linecap:square;stroke-width:0.8;"/>
     </g>
     <g id="line2d_24">
      <g>
       <use style="stroke:#000000;stroke-width:0.8;" x="57.6" xlink:href="#macde776392" y="245.22202"/>
      </g>
     </g>
     <g id="text_7">
      <!-- 0.2 -->
      <g transform="translate(25.155 251.30077)scale(0.16 -0.16)">
       <use xlink:href="#DejaVuSans-48"/>
       <use x="63.623047" xlink:href="#DejaVuSans-46"/>
       <use x="95.410156" xlink:href="#DejaVuSans-50"/>
      </g>
     </g>
    </g>
    <g id="ytick_3">
     <g id="line2d_25">
      <path clip-path="url(#p0dd6c77bfb)" d="M 57.6 191.50004 
L 338.688 191.50004 
" style="fill:none;stroke:#b0b0b0;stroke-linecap:square;stroke-width:0.8;"/>
     </g>
     <g id="line2d_26">
      <g>
       <use style="stroke:#000000;stroke-width:0.8;" x="57.6" xlink:href="#macde776392" y="191.50004"/>
      </g>
     </g>
     <g id="text_8">
      <!-- 0.4 -->
      <g transform="translate(25.155 197.57879)scale(0.16 -0.16)">
       <use xlink:href="#DejaVuSans-48"/>
       <use x="63.623047" xlink:href="#DejaVuSans-46"/>
       <use x="95.410156" xlink:href="#DejaVuSans-52"/>
      </g>
     </g>
    </g>
    <g id="ytick_4">
     <g id="line2d_27">
      <path clip-path="url(#p0dd6c77bfb)" d="M 57.6 137.778059 
L 338.688 137.778059 
" style="fill:none;stroke:#b0b0b0;stroke-linecap:square;stroke-width:0.8;"/>
     </g>
     <g id="line2d_28">
      <g>
       <use style="stroke:#000000;stroke-width:0.8;" x="57.6" xlink:href="#macde776392" y="137.778059"/>
      </g>
     </g>
     <g id="text_9">
      <!-- 0.6 -->
      <g transform="translate(25.155 143.856809)scale(0.16 -0.16)">
       <use xlink:href="#DejaVuSans-48"/>
       <use x="63.623047" xlink:href="#DejaVuSans-46"/>
       <use x="95.410156" xlink:href="#DejaVuSans-54"/>
      </g>
     </g>
    </g>
    <g id="ytick_5">
     <g id="line2d_29">
      <path clip-path="url(#p0dd6c77bfb)" d="M 57.6 84.056079 
L 338.688 84.056079 
" style="fill:none;stroke:#b0b0b0;stroke-linecap:square;stroke-width:0.8;"/>
     </g>
     <g id="line2d_30">
      <g>
       <use style="stroke:#000000;stroke-width:0.8;" x="57.6" xlink:href="#macde776392" y="84.056079"/>
      </g>
     </g>
     <g id="text_10">
      <!-- 0.8 -->
      <g transform="translate(25.155 90.134829)scale(0.16 -0.16)">
       <defs>
        <path d="M 31.78125 34.625 
Q 24.75 34.625 20.71875 30.859375 
Q 16.703125 27.09375 16.703125 20.515625 
Q 16.703125 13.921875 20.71875 10.15625 
Q 24.75 6.390625 31.78125 6.390625 
Q 38.8125 6.390625 42.859375 10.171875 
Q 46.921875 13.96875 46.921875 20.515625 
Q 46.921875 27.09375 42.890625 30.859375 
Q 38.875 34.625 31.78125 34.625 
z
M 21.921875 38.8125 
Q 15.578125 40.375 12.03125 44.71875 
Q 8.5 49.078125 8.5 55.328125 
Q 8.5 64.0625 14.71875 69.140625 
Q 20.953125 74.21875 31.78125 74.21875 
Q 42.671875 74.21875 48.875 69.140625 
Q 55.078125 64.0625 55.078125 55.328125 
Q 55.078125 49.078125 51.53125 44.71875 
Q 48 40.375 41.703125 38.8125 
Q 48.828125 37.15625 52.796875 32.3125 
Q 56.78125 27.484375 56.78125 20.515625 
Q 56.78125 9.90625 50.3125 4.234375 
Q 43.84375 -1.421875 31.78125 -1.421875 
Q 19.734375 -1.421875 13.25 4.234375 
Q 6.78125 9.90625 6.78125 20.515625 
Q 6.78125 27.484375 10.78125 32.3125 
Q 14.796875 37.15625 21.921875 38.8125 
z
M 18.3125 54.390625 
Q 18.3125 48.734375 21.84375 45.5625 
Q 25.390625 42.390625 31.78125 42.390625 
Q 38.140625 42.390625 41.71875 45.5625 
Q 45.3125 48.734375 45.3125 54.390625 
Q 45.3125 60.0625 41.71875 63.234375 
Q 38.140625 66.40625 31.78125 66.40625 
Q 25.390625 66.40625 21.84375 63.234375 
Q 18.3125 60.0625 18.3125 54.390625 
z
" id="DejaVuSans-56"/>
       </defs>
       <use xlink:href="#DejaVuSans-48"/>
       <use x="63.623047" xlink:href="#DejaVuSans-46"/>
       <use x="95.410156" xlink:href="#DejaVuSans-56"/>
      </g>
     </g>
    </g>
    <g id="ytick_6">
     <g id="line2d_31">
      <path clip-path="url(#p0dd6c77bfb)" d="M 57.6 30.334099 
L 338.688 30.334099 
" style="fill:none;stroke:#b0b0b0;stroke-linecap:square;stroke-width:0.8;"/>
     </g>
     <g id="line2d_32">
      <g>
       <use style="stroke:#000000;stroke-width:0.8;" x="57.6" xlink:href="#macde776392" y="30.334099"/>
      </g>
     </g>
     <g id="text_11">
      <!-- 1.0 -->
      <g transform="translate(25.155 36.412849)scale(0.16 -0.16)">
       <use xlink:href="#DejaVuSans-49"/>
       <use x="63.623047" xlink:href="#DejaVuSans-46"/>
       <use x="95.410156" xlink:href="#DejaVuSans-48"/>
      </g>
     </g>
    </g>
    <g id="text_12">
     <!-- Fraction of function,target pairs -->
     <g transform="translate(17.619531 297.681)rotate(-90)scale(0.17 -0.17)">
      <defs>
       <path d="M 9.8125 72.90625 
L 51.703125 72.90625 
L 51.703125 64.59375 
L 19.671875 64.59375 
L 19.671875 43.109375 
L 48.578125 43.109375 
L 48.578125 34.8125 
L 19.671875 34.8125 
L 19.671875 0 
L 9.8125 0 
z
" id="DejaVuSans-70"/>
       <path d="M 41.109375 46.296875 
Q 39.59375 47.171875 37.8125 47.578125 
Q 36.03125 48 33.890625 48 
Q 26.265625 48 22.1875 43.046875 
Q 18.109375 38.09375 18.109375 28.8125 
L 18.109375 0 
L 9.078125 0 
L 9.078125 54.6875 
L 18.109375 54.6875 
L 18.109375 46.1875 
Q 20.953125 51.171875 25.484375 53.578125 
Q 30.03125 56 36.53125 56 
Q 37.453125 56 38.578125 55.875 
Q 39.703125 55.765625 41.0625 55.515625 
z
" id="DejaVuSans-114"/>
       <path d="M 48.78125 52.59375 
L 48.78125 44.1875 
Q 44.96875 46.296875 41.140625 47.34375 
Q 37.3125 48.390625 33.40625 48.390625 
Q 24.65625 48.390625 19.8125 42.84375 
Q 14.984375 37.3125 14.984375 27.296875 
Q 14.984375 17.28125 19.8125 11.734375 
Q 24.65625 6.203125 33.40625 6.203125 
Q 37.3125 6.203125 41.140625 7.25 
Q 44.96875 8.296875 48.78125 10.40625 
L 48.78125 2.09375 
Q 45.015625 0.34375 40.984375 -0.53125 
Q 36.96875 -1.421875 32.421875 -1.421875 
Q 20.0625 -1.421875 12.78125 6.34375 
Q 5.515625 14.109375 5.515625 27.296875 
Q 5.515625 40.671875 12.859375 48.328125 
Q 20.21875 56 33.015625 56 
Q 37.15625 56 41.109375 55.140625 
Q 45.0625 54.296875 48.78125 52.59375 
z
" id="DejaVuSans-99"/>
       <path d="M 18.3125 70.21875 
L 18.3125 54.6875 
L 36.8125 54.6875 
L 36.8125 47.703125 
L 18.3125 47.703125 
L 18.3125 18.015625 
Q 18.3125 11.328125 20.140625 9.421875 
Q 21.96875 7.515625 27.59375 7.515625 
L 36.8125 7.515625 
L 36.8125 0 
L 27.59375 0 
Q 17.1875 0 13.234375 3.875 
Q 9.28125 7.765625 9.28125 18.015625 
L 9.28125 47.703125 
L 2.6875 47.703125 
L 2.6875 54.6875 
L 9.28125 54.6875 
L 9.28125 70.21875 
z
" id="DejaVuSans-116"/>
       <path d="M 8.5 21.578125 
L 8.5 54.6875 
L 17.484375 54.6875 
L 17.484375 21.921875 
Q 17.484375 14.15625 20.5 10.265625 
Q 23.53125 6.390625 29.59375 6.390625 
Q 36.859375 6.390625 41.078125 11.03125 
Q 45.3125 15.671875 45.3125 23.6875 
L 45.3125 54.6875 
L 54.296875 54.6875 
L 54.296875 0 
L 45.3125 0 
L 45.3125 8.40625 
Q 42.046875 3.421875 37.71875 1 
Q 33.40625 -1.421875 27.6875 -1.421875 
Q 18.265625 -1.421875 13.375 4.4375 
Q 8.5 10.296875 8.5 21.578125 
z
M 31.109375 56 
z
" id="DejaVuSans-117"/>
       <path d="M 11.71875 12.40625 
L 22.015625 12.40625 
L 22.015625 4 
L 14.015625 -11.625 
L 7.71875 -11.625 
L 11.71875 4 
z
" id="DejaVuSans-44"/>
       <path d="M 18.109375 8.203125 
L 18.109375 -20.796875 
L 9.078125 -20.796875 
L 9.078125 54.6875 
L 18.109375 54.6875 
L 18.109375 46.390625 
Q 20.953125 51.265625 25.265625 53.625 
Q 29.59375 56 35.59375 56 
Q 45.5625 56 51.78125 48.09375 
Q 58.015625 40.1875 58.015625 27.296875 
Q 58.015625 14.40625 51.78125 6.484375 
Q 45.5625 -1.421875 35.59375 -1.421875 
Q 29.59375 -1.421875 25.265625 0.953125 
Q 20.953125 3.328125 18.109375 8.203125 
z
M 48.6875 27.296875 
Q 48.6875 37.203125 44.609375 42.84375 
Q 40.53125 48.484375 33.40625 48.484375 
Q 26.265625 48.484375 22.1875 42.84375 
Q 18.109375 37.203125 18.109375 27.296875 
Q 18.109375 17.390625 22.1875 11.75 
Q 26.265625 6.109375 33.40625 6.109375 
Q 40.53125 6.109375 44.609375 11.75 
Q 48.6875 17.390625 48.6875 27.296875 
z
" id="DejaVuSans-112"/>
      </defs>
      <use xlink:href="#DejaVuSans-70"/>
      <use x="50.269531" xlink:href="#DejaVuSans-114"/>
      <use x="91.382812" xlink:href="#DejaVuSans-97"/>
      <use x="152.662109" xlink:href="#DejaVuSans-99"/>
      <use x="207.642578" xlink:href="#DejaVuSans-116"/>
      <use x="246.851562" xlink:href="#DejaVuSans-105"/>
      <use x="274.634766" xlink:href="#DejaVuSans-111"/>
      <use x="335.816406" xlink:href="#DejaVuSans-110"/>
      <use x="399.195312" xlink:href="#DejaVuSans-32"/>
      <use x="430.982422" xlink:href="#DejaVuSans-111"/>
      <use x="492.164062" xlink:href="#DejaVuSans-102"/>
      <use x="527.369141" xlink:href="#DejaVuSans-32"/>
      <use x="559.15625" xlink:href="#DejaVuSans-102"/>
      <use x="594.361328" xlink:href="#DejaVuSans-117"/>
      <use x="657.740234" xlink:href="#DejaVuSans-110"/>
      <use x="721.119141" xlink:href="#DejaVuSans-99"/>
      <use x="776.099609" xlink:href="#DejaVuSans-116"/>
      <use x="815.308594" xlink:href="#DejaVuSans-105"/>
      <use x="843.091797" xlink:href="#DejaVuSans-111"/>
      <use x="904.273438" xlink:href="#DejaVuSans-110"/>
      <use x="967.652344" xlink:href="#DejaVuSans-44"/>
      <use x="999.439453" xlink:href="#DejaVuSans-116"/>
      <use x="1038.648438" xlink:href="#DejaVuSans-97"/>
      <use x="1099.927734" xlink:href="#DejaVuSans-114"/>
      <use x="1139.291016" xlink:href="#DejaVuSans-103"/>
      <use x="1202.767578" xlink:href="#DejaVuSans-101"/>
      <use x="1264.291016" xlink:href="#DejaVuSans-116"/>
      <use x="1303.5" xlink:href="#DejaVuSans-32"/>
      <use x="1335.287109" xlink:href="#DejaVuSans-112"/>
      <use x="1398.763672" xlink:href="#DejaVuSans-97"/>
      <use x="1460.042969" xlink:href="#DejaVuSans-105"/>
      <use x="1487.826172" xlink:href="#DejaVuSans-114"/>
      <use x="1528.939453" xlink:href="#DejaVuSans-115"/>
     </g>
    </g>
   </g>
   <g id="line2d_33">
    <defs>
     <path d="M 0 1.5 
C 0.397805 1.5 0.77937 1.341951 1.06066 1.06066 
C 1.341951 0.77937 1.5 0.397805 1.5 0 
C 1.5 -0.397805 1.341951 -0.77937 1.06066 -1.06066 
C 0.77937 -1.341951 0.397805 -1.5 0 -1.5 
C -0.397805 -1.5 -0.77937 -1.341951 -1.06066 -1.06066 
C -1.341951 -0.77937 -1.5 -0.397805 -1.5 0 
C -1.5 0.397805 -1.341951 0.77937 -1.06066 1.06066 
C -0.77937 1.341951 -0.397805 1.5 0 1.5 
z
" id="m63bcd3dfaf" style="stroke:#f5deb3;"/>
    </defs>
    <g>
     <use style="fill:#f5deb3;stroke:#f5deb3;" x="172.561226" xlink:href="#m63bcd3dfaf" y="30.334099"/>
     <use style="fill:#f5deb3;stroke:#f5deb3;" x="172.561226" xlink:href="#m63bcd3dfaf" y="30.334099"/>
    </g>
   </g>
   <g id="line2d_34">
    <defs>
     <path d="M 0 1.5 
C 0.397805 1.5 0.77937 1.341951 1.06066 1.06066 
C 1.341951 0.77937 1.5 0.397805 1.5 0 
C 1.5 -0.397805 1.341951 -0.77937 1.06066 -1.06066 
C 0.77937 -1.341951 0.397805 -1.5 0 -1.5 
C -0.397805 -1.5 -0.77937 -1.341951 -1.06066 -1.06066 
C -1.341951 -0.77937 -1.5 -0.397805 -1.5 0 
C -1.5 0.397805 -1.341951 0.77937 -1.06066 1.06066 
C -0.77937 1.341951 -0.397805 1.5 0 1.5 
z
" id="mb26810ab95" style="stroke:#000080;"/>
    </defs>
    <g>
     <use style="fill:#000080;stroke:#000080;" x="187.901155" xlink:href="#mb26810ab95" y="30.334099"/>
     <use style="fill:#000080;stroke:#000080;" x="187.901155" xlink:href="#mb26810ab95" y="30.334099"/>
    </g>
   </g>
   <g id="line2d_35">
    <path d="M 134.332651 298.944 
L 134.332651 297.890628 
L 134.503103 297.890628 
L 134.503103 297.363942 
L 135.381712 297.363942 
L 135.381712 296.31057 
L 135.800036 296.31057 
L 135.898175 295.257197 
L 136.015217 295.257197 
L 136.121821 294.203825 
L 136.141133 294.203825 
L 136.227776 292.623767 
L 136.352172 292.623767 
L 136.352172 291.570395 
L 136.664018 291.570395 
L 136.738785 290.517023 
L 136.776048 290.517023 
L 136.79465 288.410278 
L 136.896607 288.410278 
L 136.96118 285.250162 
L 137.053015 285.250162 
L 137.053015 284.723476 
L 137.217107 284.723476 
L 137.298578 282.616732 
L 137.442482 282.616732 
L 137.442482 282.090045 
L 137.594091 282.090045 
L 137.691492 281.036673 
L 137.753193 281.036673 
L 137.849713 279.456615 
L 137.954401 279.456615 
L 137.954401 278.929929 
L 138.101642 278.929929 
L 138.204833 277.349871 
L 138.213405 277.349871 
L 138.307417 275.243126 
L 138.366981 275.243126 
L 138.375473 274.189754 
L 138.552866 274.189754 
L 138.60322 271.029638 
L 138.720151 271.029638 
L 138.761723 268.922893 
L 138.836303 268.922893 
L 138.836303 268.396207 
L 139.017278 268.396207 
L 139.02546 267.342835 
L 139.172077 267.342835 
L 139.172077 266.289463 
L 139.293324 266.289463 
L 139.293324 265.762777 
L 139.413734 265.762777 
L 139.477614 264.182719 
L 139.604677 264.182719 
L 139.683624 263.129347 
L 139.793552 263.129347 
L 139.863856 259.96923 
L 139.910568 259.96923 
L 139.995884 258.389172 
L 140.042245 258.389172 
L 140.12692 257.3358 
L 140.180592 257.3358 
L 140.180592 256.809114 
L 140.295048 256.809114 
L 140.340621 255.755741 
L 140.491677 255.755741 
L 140.491677 255.229055 
L 140.604116 255.229055 
L 140.604116 254.702369 
L 140.782525 254.702369 
L 140.88576 253.648997 
L 141.061324 253.648997 
L 141.170161 252.068939 
L 141.378673 252.068939 
L 141.421504 250.488881 
L 141.549369 250.488881 
L 141.620002 247.328764 
L 141.746425 247.328764 
L 141.746425 246.802078 
L 142.106582 246.802078 
L 142.106582 246.275392 
L 142.358392 246.275392 
L 142.358392 245.748706 
L 142.546564 245.748706 
L 142.619936 244.695334 
L 142.778958 244.695334 
L 142.805321 243.641962 
L 142.975718 243.641962 
L 142.975718 243.115275 
L 143.092717 243.115275 
L 143.176731 241.535217 
L 143.311596 241.535217 
L 143.311596 241.008531 
L 143.703791 241.008531 
L 143.791143 239.955159 
L 143.853271 239.955159 
L 143.853271 239.428473 
L 144.330419 239.428473 
L 144.396671 238.375101 
L 145.166911 238.375101 
L 145.166911 237.848415 
L 146.09648 237.848415 
L 146.09648 237.321729 
L 148.502028 237.321729 
L 148.502028 236.795043 
L 153.377091 236.795043 
L 153.377091 236.268356 
L 155.53024 236.268356 
L 155.53024 235.74167 
L 156.86227 235.74167 
L 156.918066 234.688298 
L 157.44937 234.688298 
L 157.44937 234.161612 
L 157.86528 234.161612 
L 157.86528 233.634926 
L 158.918609 233.634926 
L 158.918609 233.10824 
L 159.1265 233.10824 
L 159.144574 232.054868 
L 159.499629 232.054868 
L 159.499629 231.528182 
L 159.730716 231.528182 
L 159.785526 230.47481 
L 160.010424 230.47481 
L 160.010424 229.948123 
L 160.181471 229.948123 
L 160.181471 229.421437 
L 160.501909 229.421437 
L 160.566247 228.368065 
L 160.635088 228.368065 
L 160.73902 227.314693 
L 161.281578 227.314693 
L 161.281578 226.788007 
L 161.442917 226.788007 
L 161.442917 226.261321 
L 161.743409 226.261321 
L 161.743409 225.734635 
L 162.132552 225.734635 
L 162.217141 224.154577 
L 162.320689 224.154577 
L 162.320689 223.627891 
L 162.472737 223.627891 
L 162.553573 222.047832 
L 162.648818 222.047832 
L 162.648818 221.521146 
L 162.977101 221.521146 
L 162.977101 220.99446 
L 163.507521 220.99446 
L 163.597709 219.941088 
L 163.77274 219.941088 
L 163.810301 218.887716 
L 163.93427 218.887716 
L 163.93427 218.36103 
L 164.373785 218.36103 
L 164.373785 217.834344 
L 164.584735 217.834344 
L 164.650725 216.254285 
L 164.899235 216.254285 
L 164.962199 215.200913 
L 165.052544 215.200913 
L 165.052544 214.674227 
L 165.20634 214.674227 
L 165.231842 213.620855 
L 165.335285 213.620855 
L 165.441716 212.567483 
L 165.686375 212.567483 
L 165.686375 212.040797 
L 165.987015 212.040797 
L 165.987015 211.514111 
L 166.108604 211.514111 
L 166.170807 210.460738 
L 166.376562 210.460738 
L 166.376562 209.934052 
L 166.510705 209.934052 
L 166.512396 208.88068 
L 166.697457 208.88068 
L 166.765935 207.300622 
L 166.981298 207.300622 
L 167.087991 204.667192 
L 167.146803 204.667192 
L 167.229781 203.613819 
L 167.437922 203.613819 
L 167.437922 203.087133 
L 167.629337 203.087133 
L 167.661036 202.033761 
L 167.887585 202.033761 
L 167.926618 200.453703 
L 168.035449 200.453703 
L 168.055586 199.400331 
L 168.209712 199.400331 
L 168.209712 198.873645 
L 168.325944 198.873645 
L 168.374652 197.820273 
L 168.525997 197.820273 
L 168.525997 197.293586 
L 168.67305 197.293586 
L 168.731229 195.713528 
L 168.851444 195.713528 
L 168.883952 194.660156 
L 168.984051 194.660156 
L 168.984051 194.13347 
L 169.210094 194.13347 
L 169.210094 193.606784 
L 169.441824 193.606784 
L 169.441824 193.080098 
L 169.587058 193.080098 
L 169.587058 192.553412 
L 169.732498 192.553412 
L 169.829254 189.919981 
L 170.011487 189.919981 
L 170.011487 189.393295 
L 170.167166 189.393295 
L 170.260183 188.339923 
L 170.352706 188.339923 
L 170.352706 187.813237 
L 170.479803 187.813237 
L 170.548375 185.706493 
L 170.660731 185.706493 
L 170.660731 185.179807 
L 170.818674 185.179807 
L 170.918801 183.599748 
L 170.94899 183.599748 
L 171.03533 182.546376 
L 171.117348 182.546376 
L 171.183463 180.966318 
L 171.318797 180.966318 
L 171.400774 179.38626 
L 171.643157 179.38626 
L 171.718608 176.752829 
L 171.764974 176.752829 
L 171.874758 175.172771 
L 171.951692 175.172771 
L 171.951692 174.646085 
L 172.07261 174.646085 
L 172.170701 173.066027 
L 172.29133 173.066027 
L 172.325296 172.012655 
L 172.430414 172.012655 
L 172.450881 170.959282 
L 172.571983 170.959282 
L 172.642339 169.379224 
L 172.68869 169.379224 
L 172.785746 167.799166 
L 172.856422 167.799166 
L 172.919787 166.219108 
L 173.06094 166.219108 
L 173.123567 164.112363 
L 173.192889 164.112363 
L 173.192889 163.585677 
L 173.366142 163.585677 
L 173.474266 160.425561 
L 173.562544 160.425561 
L 173.602011 159.372189 
L 173.700849 159.372189 
L 173.769034 157.79213 
L 173.861386 157.79213 
L 173.861386 157.265444 
L 174.133355 157.265444 
L 174.243355 155.1587 
L 174.254208 155.1587 
L 174.323511 153.578642 
L 174.410829 153.578642 
L 174.501991 152.52527 
L 174.523372 152.52527 
L 174.561791 151.471897 
L 174.660652 151.471897 
L 174.767386 149.891839 
L 174.803169 149.891839 
L 174.905902 147.785095 
L 174.921573 147.785095 
L 174.942445 146.731723 
L 175.039177 146.731723 
L 175.056802 145.678351 
L 175.19099 145.678351 
L 175.30169 144.098292 
L 175.36696 144.098292 
L 175.36696 143.571606 
L 175.533108 143.571606 
L 175.641664 140.41149 
L 175.749548 140.41149 
L 175.784368 138.831432 
L 175.868643 138.831432 
L 175.969237 137.778059 
L 176.009509 137.778059 
L 176.108321 135.144629 
L 176.266618 135.144629 
L 176.356295 134.091257 
L 176.385126 134.091257 
L 176.492338 131.984513 
L 176.577067 131.984513 
L 176.67839 128.29771 
L 176.70952 128.29771 
L 176.70952 127.771024 
L 176.922168 127.771024 
L 177.007619 125.137593 
L 177.07051 125.137593 
L 177.142371 124.084221 
L 177.287948 124.084221 
L 177.364368 121.450791 
L 177.439551 121.450791 
L 177.501807 119.344047 
L 177.558456 119.344047 
L 177.619395 115.657244 
L 177.748631 115.657244 
L 177.748631 114.603872 
L 177.897179 114.603872 
L 177.989384 110.390383 
L 178.029625 110.390383 
L 178.052329 109.337011 
L 178.182739 109.337011 
L 178.241539 107.756953 
L 178.341389 107.756953 
L 178.424448 104.07015 
L 178.493504 104.07015 
L 178.524108 103.016778 
L 178.635866 103.016778 
L 178.716697 100.910034 
L 178.931263 100.910034 
L 178.988423 99.329976 
L 179.094788 99.329976 
L 179.193154 95.643173 
L 179.349393 95.643173 
L 179.444725 93.009743 
L 179.48014 93.009743 
L 179.583556 89.32294 
L 179.69113 89.32294 
L 179.789358 86.162824 
L 179.83275 86.162824 
L 179.895673 84.582765 
L 179.978699 84.582765 
L 180.022403 83.002707 
L 180.223119 83.002707 
L 180.257758 81.422649 
L 180.36738 81.422649 
L 180.477835 78.789218 
L 180.483149 78.789218 
L 180.589104 76.682474 
L 180.711659 76.682474 
L 180.752819 74.049044 
L 180.977845 74.049044 
L 181.016173 71.942299 
L 181.151123 71.942299 
L 181.246569 70.362241 
L 181.298807 70.362241 
L 181.369657 68.255497 
L 181.426562 68.255497 
L 181.468223 67.202125 
L 181.551961 67.202125 
L 181.650924 65.09538 
L 181.674337 65.09538 
L 181.750036 62.988636 
L 181.823298 62.988636 
L 181.925631 60.355206 
L 181.957749 60.355206 
L 181.961236 58.775147 
L 182.086324 58.775147 
L 182.181621 57.195089 
L 182.200893 57.195089 
L 182.27229 54.561659 
L 182.341348 54.561659 
L 182.408095 51.401542 
L 182.554315 51.401542 
L 182.589333 49.821484 
L 182.681259 49.821484 
L 182.774034 48.241426 
L 182.962726 48.241426 
L 183.050743 47.188054 
L 183.118098 47.188054 
L 183.216373 46.134681 
L 183.253975 46.134681 
L 183.253975 45.607995 
L 183.411278 45.607995 
L 183.41577 44.554623 
L 183.768283 44.554623 
L 183.837313 42.447879 
L 184.078639 42.447879 
L 184.078639 41.921193 
L 184.227483 41.921193 
L 184.295942 40.867821 
L 184.438716 40.867821 
L 184.438716 40.341135 
L 184.70055 40.341135 
L 184.780832 39.287762 
L 185.013631 39.287762 
L 185.013631 38.761076 
L 185.128584 38.761076 
L 185.137306 37.707704 
L 185.347629 37.707704 
L 185.367146 36.654332 
L 185.550337 36.654332 
L 185.550337 36.127646 
L 185.780435 36.127646 
L 185.780435 35.60096 
L 185.923832 35.60096 
L 185.958804 34.547588 
L 186.042342 34.547588 
L 186.141404 33.494215 
L 186.638049 33.494215 
L 186.701406 32.440843 
L 187.01426 32.440843 
L 187.01426 31.914157 
L 187.644775 31.914157 
L 187.644775 31.387471 
L 187.786675 31.387471 
L 187.786675 30.860785 
L 187.901155 30.860785 
L 187.901155 30.334099 
L 338.688 30.334099 
L 338.688 30.334099 
" style="fill:none;stroke:#000080;stroke-linecap:square;stroke-width:1.5;"/>
   </g>
   <g id="line2d_36">
    <defs>
     <path d="M 0 6 
C 1.591219 6 3.117479 5.367802 4.242641 4.242641 
C 5.367802 3.117479 6 1.591219 6 0 
C 6 -1.591219 5.367802 -3.117479 4.242641 -4.242641 
C 3.117479 -5.367802 1.591219 -6 0 -6 
C -1.591219 -6 -3.117479 -5.367802 -4.242641 -4.242641 
C -5.367802 -3.117479 -6 -1.591219 -6 0 
C -6 1.591219 -5.367802 3.117479 -4.242641 4.242641 
C -3.117479 5.367802 -1.591219 6 0 6 
z
" id="m204a60cb7f" style="stroke:#000080;stroke-width:1.5;"/>
    </defs>
    <g>
     <use style="fill-opacity:0;stroke:#000080;stroke-width:1.5;" x="173.192889" xlink:href="#m204a60cb7f" y="163.585677"/>
     <use style="fill-opacity:0;stroke:#000080;stroke-width:1.5;" x="187.901155" xlink:href="#m204a60cb7f" y="30.860785"/>
     <use style="fill-opacity:0;stroke:#000080;stroke-width:1.5;" x="187.901155" xlink:href="#m204a60cb7f" y="30.334099"/>
     <use style="fill-opacity:0;stroke:#000080;stroke-width:1.5;" x="187.901155" xlink:href="#m204a60cb7f" y="30.334099"/>
     <use style="fill-opacity:0;stroke:#000080;stroke-width:1.5;" x="338.688" xlink:href="#m204a60cb7f" y="30.334099"/>
    </g>
   </g>
   <g id="line2d_37">
    <path style="fill:none;stroke:#000080;stroke-linecap:square;stroke-width:1.5;"/>
    <g/>
   </g>
   <g id="line2d_38">
    <defs>
     <path d="M 0 1.5 
C 0.397805 1.5 0.77937 1.341951 1.06066 1.06066 
C 1.341951 0.77937 1.5 0.397805 1.5 0 
C 1.5 -0.397805 1.341951 -0.77937 1.06066 -1.06066 
C 0.77937 -1.341951 0.397805 -1.5 0 -1.5 
C -0.397805 -1.5 -0.77937 -1.341951 -1.06066 -1.06066 
C -1.341951 -0.77937 -1.5 -0.397805 -1.5 0 
C -1.5 0.397805 -1.341951 0.77937 -1.06066 1.06066 
C -0.77937 1.341951 -0.397805 1.5 0 1.5 
z
" id="m16193e0555" style="stroke:#ff00ff;"/>
    </defs>
    <g>
     <use style="fill:#ff00ff;stroke:#ff00ff;" x="326.950091" xlink:href="#m16193e0555" y="193.606784"/>
     <use style="fill:#ff00ff;stroke:#ff00ff;" x="326.950091" xlink:href="#m16193e0555" y="193.606784"/>
    </g>
   </g>
   <g id="line2d_39">
    <path d="M 171.359833 298.944 
L 171.359833 298.417314 
L 171.994974 298.417314 
L 171.994974 297.890628 
L 172.301041 297.890628 
L 172.301041 297.363942 
L 172.760942 297.363942 
L 172.760942 296.837256 
L 172.966575 296.837256 
L 173.021392 295.783884 
L 173.228598 295.783884 
L 173.228598 295.257197 
L 173.467457 295.257197 
L 173.541081 293.677139 
L 173.755642 293.677139 
L 173.831397 292.623767 
L 173.948834 292.623767 
L 173.986335 291.043709 
L 174.107114 291.043709 
L 174.138817 289.990337 
L 174.248782 289.990337 
L 174.311619 288.410278 
L 174.650049 288.410278 
L 174.704058 287.356906 
L 174.782129 287.356906 
L 174.870328 286.303534 
L 174.893355 286.303534 
L 174.893355 285.776848 
L 175.187905 285.776848 
L 175.187905 285.250162 
L 175.381206 285.250162 
L 175.486665 283.143418 
L 175.555276 283.143418 
L 175.653684 282.090045 
L 175.792317 282.090045 
L 175.81019 281.036673 
L 175.946605 281.036673 
L 175.978085 279.456615 
L 176.123923 279.456615 
L 176.234686 276.823185 
L 176.341863 276.823185 
L 176.341863 276.296499 
L 176.479928 276.296499 
L 176.578017 274.189754 
L 176.599845 274.189754 
L 176.654769 273.136382 
L 176.829746 273.136382 
L 176.829746 272.609696 
L 177.010398 272.609696 
L 177.10832 271.029638 
L 177.128575 271.029638 
L 177.128575 270.502952 
L 177.549476 270.502952 
L 177.609551 269.449579 
L 177.737083 269.449579 
L 177.838972 266.816149 
L 177.869864 266.816149 
L 177.976241 264.709405 
L 177.982376 264.709405 
L 178.019136 263.129347 
L 178.097648 263.129347 
L 178.181873 261.549288 
L 178.262244 261.549288 
L 178.305302 260.495916 
L 178.654423 260.495916 
L 178.708295 259.442544 
L 178.91466 259.442544 
L 179.008261 258.389172 
L 179.127638 258.389172 
L 179.192336 257.3358 
L 179.401163 257.3358 
L 179.456806 256.282427 
L 179.609115 256.282427 
L 179.69669 255.229055 
L 179.805149 255.229055 
L 179.894103 254.175683 
L 179.981043 254.175683 
L 180.05044 252.068939 
L 180.244681 252.068939 
L 180.244681 251.542253 
L 180.471759 251.542253 
L 180.474797 250.488881 
L 180.601926 250.488881 
L 180.676409 249.435508 
L 180.972679 249.435508 
L 181.047804 247.85545 
L 181.298082 247.85545 
L 181.298082 247.328764 
L 181.411454 247.328764 
L 181.411454 246.802078 
L 181.697718 246.802078 
L 181.732378 245.748706 
L 181.837352 245.748706 
L 181.840864 244.695334 
L 182.026672 244.695334 
L 182.13749 243.641962 
L 182.144393 243.641962 
L 182.174044 242.588589 
L 182.357718 242.588589 
L 182.357718 242.061903 
L 182.784016 242.061903 
L 182.784016 241.535217 
L 182.942959 241.535217 
L 182.942959 241.008531 
L 183.224808 241.008531 
L 183.317325 239.955159 
L 183.750039 239.955159 
L 183.750039 239.428473 
L 246.629796 239.428473 
L 246.740401 226.788007 
L 246.751104 226.788007 
L 246.803284 225.734635 
L 258.533446 225.734635 
L 258.61123 217.307658 
L 265.574009 217.307658 
L 265.608481 214.147541 
L 270.551442 214.147541 
L 270.595092 211.514111 
L 274.437083 211.514111 
L 274.452962 209.934052 
L 277.607127 209.934052 
L 277.622899 206.773936 
L 280.28946 206.773936 
L 280.293317 205.193878 
L 282.618221 205.193878 
L 282.618221 204.667192 
L 284.65452 204.667192 
L 284.665051 203.087133 
L 286.490237 203.087133 
L 286.490237 202.560447 
L 288.148791 202.560447 
L 288.148791 202.033761 
L 289.662705 202.033761 
L 289.662705 201.507075 
L 291.055629 201.507075 
L 291.055629 200.980389 
L 293.546462 200.980389 
L 293.547785 199.927017 
L 294.669656 199.927017 
L 294.673689 198.873645 
L 299.405484 198.873645 
L 299.405484 198.346959 
L 300.215758 198.346959 
L 300.218414 196.7669 
L 303.126589 196.7669 
L 303.126589 196.240214 
L 304.417653 196.240214 
L 304.417653 195.713528 
L 307.800552 195.713528 
L 307.800552 195.186842 
L 311.063903 195.186842 
L 311.063903 194.660156 
L 312.686203 194.660156 
L 312.686203 194.13347 
L 326.950091 194.13347 
L 326.950091 193.606784 
L 338.688 193.606784 
L 338.688 193.606784 
" style="fill:none;stroke:#ff00ff;stroke-linecap:square;stroke-width:1.5;"/>
   </g>
   <g id="line2d_40">
    <defs>
     <path d="M -0 8.485281 
L 5.091169 0 
L 0 -8.485281 
L -5.091169 -0 
z
" id="m5ec6ea56af" style="stroke:#ff00ff;stroke-linejoin:miter;stroke-width:1.5;"/>
    </defs>
    <g>
     <use style="fill-opacity:0;stroke:#ff00ff;stroke-linejoin:miter;stroke-width:1.5;" x="246.803284" xlink:href="#m5ec6ea56af" y="225.734635"/>
     <use style="fill-opacity:0;stroke:#ff00ff;stroke-linejoin:miter;stroke-width:1.5;" x="312.686203" xlink:href="#m5ec6ea56af" y="194.660156"/>
     <use style="fill-opacity:0;stroke:#ff00ff;stroke-linejoin:miter;stroke-width:1.5;" x="326.950091" xlink:href="#m5ec6ea56af" y="193.606784"/>
     <use style="fill-opacity:0;stroke:#ff00ff;stroke-linejoin:miter;stroke-width:1.5;" x="338.688" xlink:href="#m5ec6ea56af" y="193.606784"/>
    </g>
   </g>
   <g id="line2d_41">
    <path style="fill:none;stroke:#ff00ff;stroke-linecap:square;stroke-width:1.5;"/>
    <g/>
   </g>
   <g id="line2d_42">
    <path clip-path="url(#p0dd6c77bfb)" d="M 246.289154 239.428473 
" style="fill:none;stroke:#ff00ff;stroke-linecap:square;stroke-width:1.5;"/>
    <defs>
     <path d="M -12 12 
L 12 -12 
M -12 -12 
L 12 12 
" id="m7747d98d82" style="stroke:#ff00ff;"/>
    </defs>
    <g clip-path="url(#p0dd6c77bfb)">
     <use style="fill:#ff00ff;stroke:#ff00ff;" x="246.289154" xlink:href="#m7747d98d82" y="239.428473"/>
    </g>
   </g>
   <g id="line2d_43">
    <defs>
     <path d="M 0 1.5 
C 0.397805 1.5 0.77937 1.341951 1.06066 1.06066 
C 1.341951 0.77937 1.5 0.397805 1.5 0 
C 1.5 -0.397805 1.341951 -0.77937 1.06066 -1.06066 
C 0.77937 -1.341951 0.397805 -1.5 0 -1.5 
C -0.397805 -1.5 -0.77937 -1.341951 -1.06066 -1.06066 
C -1.341951 -0.77937 -1.5 -0.397805 -1.5 0 
C -1.5 0.397805 -1.341951 0.77937 -1.06066 1.06066 
C -0.77937 1.341951 -0.397805 1.5 0 1.5 
z
" id="m54361174e6" style="stroke:#ff7500;"/>
    </defs>
    <g>
     <use style="fill:#ff7500;stroke:#ff7500;" x="315.554438" xlink:href="#m54361174e6" y="162.005619"/>
     <use style="fill:#ff7500;stroke:#ff7500;" x="315.554438" xlink:href="#m54361174e6" y="162.005619"/>
    </g>
   </g>
   <g id="line2d_44">
    <path d="M 179.33075 298.944 
L 179.33075 298.417314 
L 179.808306 298.417314 
L 179.808306 297.890628 
L 181.257465 297.890628 
L 181.257465 297.363942 
L 181.469658 297.363942 
L 181.535531 296.31057 
L 181.894154 296.31057 
L 181.894154 295.783884 
L 182.166464 295.783884 
L 182.216021 294.730511 
L 182.60816 294.730511 
L 182.716024 293.677139 
L 182.779358 293.677139 
L 182.809279 292.623767 
L 183.060568 292.623767 
L 183.060568 292.097081 
L 183.229349 292.097081 
L 183.229349 291.570395 
L 183.365008 291.570395 
L 183.448462 289.990337 
L 183.621158 289.990337 
L 183.70466 288.936964 
L 183.789649 288.936964 
L 183.8736 287.883592 
L 183.934742 287.883592 
L 183.934742 287.356906 
L 184.087284 287.356906 
L 184.087284 286.83022 
L 184.210939 286.83022 
L 184.314843 284.723476 
L 184.390243 284.723476 
L 184.442346 283.670104 
L 184.546688 283.670104 
L 184.649214 282.616732 
L 184.671319 282.616732 
L 184.741035 281.563359 
L 185.084909 281.563359 
L 185.084909 281.036673 
L 185.197657 281.036673 
L 185.261841 278.403243 
L 185.328665 278.403243 
L 185.370587 277.349871 
L 185.485499 277.349871 
L 185.485499 276.823185 
L 185.6302 276.823185 
L 185.6302 276.296499 
L 185.790517 276.296499 
L 185.790517 275.769812 
L 185.95714 275.769812 
L 186.057238 273.136382 
L 186.208775 273.136382 
L 186.208775 272.609696 
L 186.372009 272.609696 
L 186.432021 271.556324 
L 186.535339 271.556324 
L 186.590514 270.502952 
L 186.888529 270.502952 
L 186.888529 269.976266 
L 187.06482 269.976266 
L 187.067422 268.922893 
L 187.189807 268.922893 
L 187.259946 266.289463 
L 187.475296 266.289463 
L 187.475296 265.762777 
L 187.640243 265.762777 
L 187.676464 264.709405 
L 187.879313 264.709405 
L 187.879313 264.182719 
L 188.089647 264.182719 
L 188.19631 262.60266 
L 188.372965 262.60266 
L 188.421186 261.549288 
L 188.517707 261.549288 
L 188.605598 260.495916 
L 188.84786 260.495916 
L 188.889631 259.442544 
L 189.169573 259.442544 
L 189.169573 258.915858 
L 189.306046 258.915858 
L 189.322516 257.862486 
L 189.578534 257.862486 
L 189.578534 257.3358 
L 189.983407 257.3358 
L 189.983407 256.809114 
L 190.202601 256.809114 
L 190.202601 256.282427 
L 190.358853 256.282427 
L 190.358853 255.755741 
L 190.605725 255.755741 
L 190.605725 255.229055 
L 190.839932 255.229055 
L 190.839932 254.702369 
L 190.973138 254.702369 
L 191.011782 253.122311 
L 191.171676 253.122311 
L 191.171676 252.595625 
L 191.503684 252.595625 
L 191.503684 252.068939 
L 192.286433 252.068939 
L 192.363041 251.015567 
L 192.491247 251.015567 
L 192.491247 250.488881 
L 193.270863 250.488881 
L 193.270863 249.962195 
L 193.622805 249.962195 
L 193.703023 248.908822 
L 194.392791 248.908822 
L 194.392791 248.382136 
L 194.768243 248.382136 
L 194.768243 247.85545 
L 194.998614 247.85545 
L 194.998614 246.802078 
L 196.724944 246.802078 
L 196.724944 246.275392 
L 197.866743 246.275392 
L 197.866743 245.748706 
L 199.046567 245.748706 
L 199.046567 245.22202 
L 199.485584 245.22202 
L 199.485584 244.695334 
L 205.697924 244.695334 
L 205.697924 244.168648 
L 207.038983 244.168648 
L 207.038983 243.641962 
L 208.912997 243.641962 
L 208.912997 243.115275 
L 209.053547 243.115275 
L 209.053547 242.588589 
L 209.241197 242.588589 
L 209.241197 242.061903 
L 209.415583 242.061903 
L 209.415583 241.535217 
L 209.574218 241.535217 
L 209.661618 240.481845 
L 211.407463 240.481845 
L 211.407463 239.955159 
L 212.677035 239.955159 
L 212.677035 239.428473 
L 212.810616 239.428473 
L 212.810616 238.901787 
L 212.984792 238.901787 
L 212.984792 238.375101 
L 217.096767 238.375101 
L 217.096767 237.848415 
L 226.099364 237.848415 
L 226.099364 237.321729 
L 226.358298 237.321729 
L 226.358298 236.795043 
L 229.629694 236.795043 
L 229.629694 236.268356 
L 237.1848 236.268356 
L 237.235343 235.214984 
L 246.837421 235.214984 
L 246.923194 228.894751 
L 246.974997 228.894751 
L 247.060148 227.314693 
L 247.120111 227.314693 
L 247.186595 225.734635 
L 247.413652 225.734635 
L 247.413652 225.207949 
L 247.628522 225.207949 
L 247.628522 224.681263 
L 248.246955 224.681263 
L 248.303181 223.101204 
L 251.965391 223.101204 
L 251.965391 222.574518 
L 258.723435 222.574518 
L 258.831635 221.521146 
L 258.948453 221.521146 
L 258.962776 220.467774 
L 259.059682 220.467774 
L 259.059682 219.941088 
L 259.623107 219.941088 
L 259.713757 218.887716 
L 261.44519 218.887716 
L 261.44519 217.834344 
L 262.919145 217.834344 
L 262.919145 217.307658 
L 265.617136 217.307658 
L 265.690711 214.674227 
L 265.729571 214.674227 
L 265.831108 212.040797 
L 266.049941 212.040797 
L 266.142252 210.987425 
L 268.595218 210.987425 
L 268.603574 209.934052 
L 270.610625 209.934052 
L 270.693858 205.720564 
L 270.734431 205.720564 
L 270.80974 204.667192 
L 270.885252 204.667192 
L 270.918401 203.613819 
L 271.045304 203.613819 
L 271.146241 202.033761 
L 271.264042 202.033761 
L 271.264042 201.507075 
L 271.783855 201.507075 
L 271.783855 200.980389 
L 274.539815 200.980389 
L 274.632824 199.400331 
L 274.693497 199.400331 
L 274.776354 197.293586 
L 274.903593 197.293586 
L 274.903593 196.7669 
L 276.317447 196.7669 
L 276.317447 196.240214 
L 277.688969 196.240214 
L 277.728675 195.186842 
L 277.817353 195.186842 
L 277.886649 194.13347 
L 280.378823 194.13347 
L 280.48488 192.553412 
L 280.517934 192.553412 
L 280.558315 191.50004 
L 282.697712 191.50004 
L 282.726275 189.393295 
L 282.810206 189.393295 
L 282.810206 188.866609 
L 283.372198 188.866609 
L 283.372198 188.339923 
L 283.800742 188.339923 
L 283.800742 187.813237 
L 284.795142 187.813237 
L 284.795142 187.286551 
L 285.337118 187.286551 
L 285.337118 186.759865 
L 285.723626 186.759865 
L 285.723626 186.233179 
L 286.560352 186.233179 
L 286.563294 185.179807 
L 287.449719 185.179807 
L 287.449719 184.653121 
L 288.212 184.653121 
L 288.319936 183.073062 
L 289.022841 183.073062 
L 289.022841 182.546376 
L 289.723121 182.546376 
L 289.776542 181.493004 
L 289.854145 181.493004 
L 289.854145 180.966318 
L 291.232447 180.966318 
L 291.232447 180.439632 
L 292.411573 180.439632 
L 292.509749 178.332888 
L 294.747091 178.332888 
L 294.747091 177.806202 
L 295.055456 177.806202 
L 295.055456 177.279515 
L 295.768286 177.279515 
L 295.798124 176.226143 
L 296.296606 176.226143 
L 296.296606 175.699457 
L 296.815274 175.699457 
L 296.815274 175.172771 
L 297.063952 175.172771 
L 297.063952 174.646085 
L 297.700633 174.646085 
L 297.783672 172.539341 
L 298.617409 172.539341 
L 298.624173 171.485969 
L 299.449604 171.485969 
L 299.449604 170.959282 
L 301.020348 170.959282 
L 301.0903 169.379224 
L 302.471616 169.379224 
L 302.471616 168.852538 
L 303.198539 168.852538 
L 303.198539 167.799166 
L 303.853359 167.799166 
L 303.853359 167.27248 
L 304.484478 167.27248 
L 304.484478 166.745794 
L 306.937501 166.745794 
L 306.937501 166.219108 
L 308.325868 166.219108 
L 308.325868 165.692422 
L 309.324627 165.692422 
L 309.335896 164.63905 
L 311.511876 164.63905 
L 311.511876 164.112363 
L 312.037108 164.112363 
L 312.037108 163.585677 
L 314.183995 163.585677 
L 314.183995 163.058991 
L 314.890686 163.058991 
L 314.890686 162.532305 
L 315.554438 162.532305 
L 315.554438 162.005619 
L 338.688 162.005619 
L 338.688 162.005619 
" style="fill:none;stroke:#ff7500;stroke-linecap:square;stroke-width:1.5;"/>
   </g>
   <g id="line2d_45">
    <defs>
     <path d="M 0 -6 
L -1.347084 -1.854102 
L -5.706339 -1.854102 
L -2.179628 0.708204 
L -3.526712 4.854102 
L -0 2.291796 
L 3.526712 4.854102 
L 2.179628 0.708204 
L 5.706339 -1.854102 
L 1.347084 -1.854102 
z
" id="m072e38efbb" style="stroke:#ff7500;stroke-linejoin:bevel;stroke-width:1.5;"/>
    </defs>
    <g>
     <use style="fill-opacity:0;stroke:#ff7500;stroke-linejoin:bevel;stroke-width:1.5;" x="268.603574" xlink:href="#m072e38efbb" y="210.460738"/>
     <use style="fill-opacity:0;stroke:#ff7500;stroke-linejoin:bevel;stroke-width:1.5;" x="315.554438" xlink:href="#m072e38efbb" y="162.005619"/>
     <use style="fill-opacity:0;stroke:#ff7500;stroke-linejoin:bevel;stroke-width:1.5;" x="315.554438" xlink:href="#m072e38efbb" y="162.005619"/>
     <use style="fill-opacity:0;stroke:#ff7500;stroke-linejoin:bevel;stroke-width:1.5;" x="338.688" xlink:href="#m072e38efbb" y="162.005619"/>
    </g>
   </g>
   <g id="line2d_46">
    <path style="fill:none;stroke:#ff7500;stroke-linecap:square;stroke-width:1.5;"/>
    <g/>
   </g>
   <g id="line2d_47">
    <path clip-path="url(#p0dd6c77bfb)" d="M 246.289154 235.214984 
" style="fill:none;stroke:#ff7500;stroke-linecap:square;stroke-width:1.5;"/>
    <defs>
     <path d="M -12 12 
L 12 -12 
M -12 -12 
L 12 12 
" id="m629d75363c" style="stroke:#ff7500;"/>
    </defs>
    <g clip-path="url(#p0dd6c77bfb)">
     <use style="fill:#ff7500;stroke:#ff7500;" x="246.289154" xlink:href="#m629d75363c" y="235.214984"/>
    </g>
   </g>
   <g id="line2d_48">
    <path d="M 338.688 193.606784 
L 369.60768 293.571802 
" style="fill:none;stroke:#ff00ff;stroke-linecap:square;stroke-width:1.5;"/>
    <g>
     <use style="fill-opacity:0;stroke:#ff00ff;stroke-linejoin:miter;stroke-width:1.5;" x="338.688" xlink:href="#m5ec6ea56af" y="193.606784"/>
     <use style="fill-opacity:0;stroke:#ff00ff;stroke-linejoin:miter;stroke-width:1.5;" x="369.60768" xlink:href="#m5ec6ea56af" y="293.571802"/>
    </g>
   </g>
   <g id="line2d_49">
    <path d="M 338.688 162.005619 
L 369.60768 207.616634 
" style="fill:none;stroke:#ff7500;stroke-linecap:square;stroke-width:1.5;"/>
    <g>
     <use style="fill-opacity:0;stroke:#ff7500;stroke-linejoin:bevel;stroke-width:1.5;" x="338.688" xlink:href="#m072e38efbb" y="162.005619"/>
     <use style="fill-opacity:0;stroke:#ff7500;stroke-linejoin:bevel;stroke-width:1.5;" x="369.60768" xlink:href="#m072e38efbb" y="207.616634"/>
    </g>
   </g>
   <g id="line2d_50">
    <path d="M 338.688 30.334099 
L 369.60768 121.661465 
" style="fill:none;stroke:#000080;stroke-linecap:square;stroke-width:1.5;"/>
    <g>
     <use style="fill-opacity:0;stroke:#000080;stroke-width:1.5;" x="338.688" xlink:href="#m204a60cb7f" y="30.334099"/>
     <use style="fill-opacity:0;stroke:#000080;stroke-width:1.5;" x="369.60768" xlink:href="#m204a60cb7f" y="121.661465"/>
    </g>
   </g>
   <g id="line2d_51">
    <path d="M 338.688 298.944 
L 338.688 30.334099 
" style="fill:none;stroke:#000000;stroke-linecap:square;stroke-width:1.5;"/>
   </g>
   <g id="patch_3">
    <path d="M 57.6 298.944 
L 57.6 27.648 
" style="fill:none;stroke:#000000;stroke-linecap:square;stroke-linejoin:miter;stroke-width:0.8;"/>
   </g>
   <g id="patch_4">
    <path d="M 338.688 298.944 
L 338.688 27.648 
" style="fill:none;stroke:#000000;stroke-linecap:square;stroke-linejoin:miter;stroke-width:0.8;"/>
   </g>
   <g id="patch_5">
    <path d="M 57.6 298.944 
L 338.688 298.944 
" style="fill:none;stroke:#000000;stroke-linecap:square;stroke-linejoin:miter;stroke-width:0.8;"/>
   </g>
   <g id="patch_6">
    <path d="M 57.6 27.648 
L 338.688 27.648 
" style="fill:none;stroke:#000000;stroke-linecap:square;stroke-linejoin:miter;stroke-width:0.8;"/>
   </g>
   <g id="text_13">
    <!-- PSO -->
    <g transform="translate(375.22944 298.262739)scale(0.17 -0.17)">
     <defs>
      <path d="M 19.671875 64.796875 
L 19.671875 37.40625 
L 32.078125 37.40625 
Q 38.96875 37.40625 42.71875 40.96875 
Q 46.484375 44.53125 46.484375 51.125 
Q 46.484375 57.671875 42.71875 61.234375 
Q 38.96875 64.796875 32.078125 64.796875 
z
M 9.8125 72.90625 
L 32.078125 72.90625 
Q 44.34375 72.90625 50.609375 67.359375 
Q 56.890625 61.8125 56.890625 51.125 
Q 56.890625 40.328125 50.609375 34.8125 
Q 44.34375 29.296875 32.078125 29.296875 
L 19.671875 29.296875 
L 19.671875 0 
L 9.8125 0 
z
" id="DejaVuSans-80"/>
      <path d="M 53.515625 70.515625 
L 53.515625 60.890625 
Q 47.90625 63.578125 42.921875 64.890625 
Q 37.9375 66.21875 33.296875 66.21875 
Q 25.25 66.21875 20.875 63.09375 
Q 16.5 59.96875 16.5 54.203125 
Q 16.5 49.359375 19.40625 46.890625 
Q 22.3125 44.4375 30.421875 42.921875 
L 36.375 41.703125 
Q 47.40625 39.59375 52.65625 34.296875 
Q 57.90625 29 57.90625 20.125 
Q 57.90625 9.515625 50.796875 4.046875 
Q 43.703125 -1.421875 29.984375 -1.421875 
Q 24.8125 -1.421875 18.96875 -0.25 
Q 13.140625 0.921875 6.890625 3.21875 
L 6.890625 13.375 
Q 12.890625 10.015625 18.65625 8.296875 
Q 24.421875 6.59375 29.984375 6.59375 
Q 38.421875 6.59375 43.015625 9.90625 
Q 47.609375 13.234375 47.609375 19.390625 
Q 47.609375 24.75 44.3125 27.78125 
Q 41.015625 30.8125 33.5 32.328125 
L 27.484375 33.5 
Q 16.453125 35.6875 11.515625 40.375 
Q 6.59375 45.0625 6.59375 53.421875 
Q 6.59375 63.09375 13.40625 68.65625 
Q 20.21875 74.21875 32.171875 74.21875 
Q 37.3125 74.21875 42.625 73.28125 
Q 47.953125 72.359375 53.515625 70.515625 
z
" id="DejaVuSans-83"/>
      <path d="M 39.40625 66.21875 
Q 28.65625 66.21875 22.328125 58.203125 
Q 16.015625 50.203125 16.015625 36.375 
Q 16.015625 22.609375 22.328125 14.59375 
Q 28.65625 6.59375 39.40625 6.59375 
Q 50.140625 6.59375 56.421875 14.59375 
Q 62.703125 22.609375 62.703125 36.375 
Q 62.703125 50.203125 56.421875 58.203125 
Q 50.140625 66.21875 39.40625 66.21875 
z
M 39.40625 74.21875 
Q 54.734375 74.21875 63.90625 63.9375 
Q 73.09375 53.65625 73.09375 36.375 
Q 73.09375 19.140625 63.90625 8.859375 
Q 54.734375 -1.421875 39.40625 -1.421875 
Q 24.03125 -1.421875 14.8125 8.828125 
Q 5.609375 19.09375 5.609375 36.375 
Q 5.609375 53.65625 14.8125 63.9375 
Q 24.03125 74.21875 39.40625 74.21875 
z
" id="DejaVuSans-79"/>
     </defs>
     <use xlink:href="#DejaVuSans-80"/>
     <use x="60.302734" xlink:href="#DejaVuSans-83"/>
     <use x="123.779297" xlink:href="#DejaVuSans-79"/>
    </g>
   </g>
   <g id="text_14">
    <!-- DE -->
    <g transform="translate(375.22944 212.307571)scale(0.17 -0.17)">
     <defs>
      <path d="M 19.671875 64.796875 
L 19.671875 8.109375 
L 31.59375 8.109375 
Q 46.6875 8.109375 53.6875 14.9375 
Q 60.6875 21.78125 60.6875 36.53125 
Q 60.6875 51.171875 53.6875 57.984375 
Q 46.6875 64.796875 31.59375 64.796875 
z
M 9.8125 72.90625 
L 30.078125 72.90625 
Q 51.265625 72.90625 61.171875 64.09375 
Q 71.09375 55.28125 71.09375 36.53125 
Q 71.09375 17.671875 61.125 8.828125 
Q 51.171875 0 30.078125 0 
L 9.8125 0 
z
" id="DejaVuSans-68"/>
      <path d="M 9.8125 72.90625 
L 55.90625 72.90625 
L 55.90625 64.59375 
L 19.671875 64.59375 
L 19.671875 43.015625 
L 54.390625 43.015625 
L 54.390625 34.71875 
L 19.671875 34.71875 
L 19.671875 8.296875 
L 56.78125 8.296875 
L 56.78125 0 
L 9.8125 0 
z
" id="DejaVuSans-69"/>
     </defs>
     <use xlink:href="#DejaVuSans-68"/>
     <use x="77.001953" xlink:href="#DejaVuSans-69"/>
    </g>
   </g>
   <g id="text_15">
    <!-- BIPOP-CMA -->
    <g transform="translate(375.22944 126.352403)scale(0.17 -0.17)">
     <defs>
      <path d="M 19.671875 34.8125 
L 19.671875 8.109375 
L 35.5 8.109375 
Q 43.453125 8.109375 47.28125 11.40625 
Q 51.125 14.703125 51.125 21.484375 
Q 51.125 28.328125 47.28125 31.5625 
Q 43.453125 34.8125 35.5 34.8125 
z
M 19.671875 64.796875 
L 19.671875 42.828125 
L 34.28125 42.828125 
Q 41.5 42.828125 45.03125 45.53125 
Q 48.578125 48.25 48.578125 53.8125 
Q 48.578125 59.328125 45.03125 62.0625 
Q 41.5 64.796875 34.28125 64.796875 
z
M 9.8125 72.90625 
L 35.015625 72.90625 
Q 46.296875 72.90625 52.390625 68.21875 
Q 58.5 63.53125 58.5 54.890625 
Q 58.5 48.1875 55.375 44.234375 
Q 52.25 40.28125 46.1875 39.3125 
Q 53.46875 37.75 57.5 32.78125 
Q 61.53125 27.828125 61.53125 20.40625 
Q 61.53125 10.640625 54.890625 5.3125 
Q 48.25 0 35.984375 0 
L 9.8125 0 
z
" id="DejaVuSans-66"/>
      <path d="M 9.8125 72.90625 
L 19.671875 72.90625 
L 19.671875 0 
L 9.8125 0 
z
" id="DejaVuSans-73"/>
      <path d="M 64.40625 67.28125 
L 64.40625 56.890625 
Q 59.421875 61.53125 53.78125 63.8125 
Q 48.140625 66.109375 41.796875 66.109375 
Q 29.296875 66.109375 22.65625 58.46875 
Q 16.015625 50.828125 16.015625 36.375 
Q 16.015625 21.96875 22.65625 14.328125 
Q 29.296875 6.6875 41.796875 6.6875 
Q 48.140625 6.6875 53.78125 8.984375 
Q 59.421875 11.28125 64.40625 15.921875 
L 64.40625 5.609375 
Q 59.234375 2.09375 53.4375 0.328125 
Q 47.65625 -1.421875 41.21875 -1.421875 
Q 24.65625 -1.421875 15.125 8.703125 
Q 5.609375 18.84375 5.609375 36.375 
Q 5.609375 53.953125 15.125 64.078125 
Q 24.65625 74.21875 41.21875 74.21875 
Q 47.75 74.21875 53.53125 72.484375 
Q 59.328125 70.75 64.40625 67.28125 
z
" id="DejaVuSans-67"/>
      <path d="M 9.8125 72.90625 
L 24.515625 72.90625 
L 43.109375 23.296875 
L 61.8125 72.90625 
L 76.515625 72.90625 
L 76.515625 0 
L 66.890625 0 
L 66.890625 64.015625 
L 48.09375 14.015625 
L 38.1875 14.015625 
L 19.390625 64.015625 
L 19.390625 0 
L 9.8125 0 
z
" id="DejaVuSans-77"/>
      <path d="M 34.1875 63.1875 
L 20.796875 26.90625 
L 47.609375 26.90625 
z
M 28.609375 72.90625 
L 39.796875 72.90625 
L 67.578125 0 
L 57.328125 0 
L 50.6875 18.703125 
L 17.828125 18.703125 
L 11.1875 0 
L 0.78125 0 
z
" id="DejaVuSans-65"/>
     </defs>
     <use xlink:href="#DejaVuSans-66"/>
     <use x="68.603516" xlink:href="#DejaVuSans-73"/>
     <use x="98.095703" xlink:href="#DejaVuSans-80"/>
     <use x="158.398438" xlink:href="#DejaVuSans-79"/>
     <use x="237.109375" xlink:href="#DejaVuSans-80"/>
     <use x="295.162109" xlink:href="#DejaVuSans-45"/>
     <use x="331.246094" xlink:href="#DejaVuSans-67"/>
     <use x="401.070312" xlink:href="#DejaVuSans-77"/>
     <use x="487.349609" xlink:href="#DejaVuSans-65"/>
    </g>
   </g>
   <g id="text_16">
    <!-- best 2009 -->
    <g transform="translate(375.22944 40.397235)scale(0.17 -0.17)">
     <defs>
      <path d="M 48.6875 27.296875 
Q 48.6875 37.203125 44.609375 42.84375 
Q 40.53125 48.484375 33.40625 48.484375 
Q 26.265625 48.484375 22.1875 42.84375 
Q 18.109375 37.203125 18.109375 27.296875 
Q 18.109375 17.390625 22.1875 11.75 
Q 26.265625 6.109375 33.40625 6.109375 
Q 40.53125 6.109375 44.609375 11.75 
Q 48.6875 17.390625 48.6875 27.296875 
z
M 18.109375 46.390625 
Q 20.953125 51.265625 25.265625 53.625 
Q 29.59375 56 35.59375 56 
Q 45.5625 56 51.78125 48.09375 
Q 58.015625 40.1875 58.015625 27.296875 
Q 58.015625 14.40625 51.78125 6.484375 
Q 45.5625 -1.421875 35.59375 -1.421875 
Q 29.59375 -1.421875 25.265625 0.953125 
Q 20.953125 3.328125 18.109375 8.203125 
L 18.109375 0 
L 9.078125 0 
L 9.078125 75.984375 
L 18.109375 75.984375 
z
" id="DejaVuSans-98"/>
      <path d="M 10.984375 1.515625 
L 10.984375 10.5 
Q 14.703125 8.734375 18.5 7.8125 
Q 22.3125 6.890625 25.984375 6.890625 
Q 35.75 6.890625 40.890625 13.453125 
Q 46.046875 20.015625 46.78125 33.40625 
Q 43.953125 29.203125 39.59375 26.953125 
Q 35.25 24.703125 29.984375 24.703125 
Q 19.046875 24.703125 12.671875 31.3125 
Q 6.296875 37.9375 6.296875 49.421875 
Q 6.296875 60.640625 12.9375 67.421875 
Q 19.578125 74.21875 30.609375 74.21875 
Q 43.265625 74.21875 49.921875 64.515625 
Q 56.59375 54.828125 56.59375 36.375 
Q 56.59375 19.140625 48.40625 8.859375 
Q 40.234375 -1.421875 26.421875 -1.421875 
Q 22.703125 -1.421875 18.890625 -0.6875 
Q 15.09375 0.046875 10.984375 1.515625 
z
M 30.609375 32.421875 
Q 37.25 32.421875 41.125 36.953125 
Q 45.015625 41.5 45.015625 49.421875 
Q 45.015625 57.28125 41.125 61.84375 
Q 37.25 66.40625 30.609375 66.40625 
Q 23.96875 66.40625 20.09375 61.84375 
Q 16.21875 57.28125 16.21875 49.421875 
Q 16.21875 41.5 20.09375 36.953125 
Q 23.96875 32.421875 30.609375 32.421875 
z
" id="DejaVuSans-57"/>
     </defs>
     <use xlink:href="#DejaVuSans-98"/>
     <use x="63.476562" xlink:href="#DejaVuSans-101"/>
     <use x="125" xlink:href="#DejaVuSans-115"/>
     <use x="177.099609" xlink:href="#DejaVuSans-116"/>
     <use x="216.308594" xlink:href="#DejaVuSans-32"/>
     <use x="248.095703" xlink:href="#DejaVuSans-50"/>
     <use x="311.71875" xlink:href="#DejaVuSans-48"/>
     <use x="375.341797" xlink:href="#DejaVuSans-48"/>
     <use x="438.964844" xlink:href="#DejaVuSans-57"/>
    </g>
   </g>
   <g id="text_17">
    <!-- bbob f12, 20-D -->
    <g transform="translate(60.41088 38.111366)scale(0.102 -0.102)">
     <use xlink:href="#DejaVuSans-98"/>
     <use x="63.476562" xlink:href="#DejaVuSans-98"/>
     <use x="126.953125" xlink:href="#DejaVuSans-111"/>
     <use x="188.134766" xlink:href="#DejaVuSans-98"/>
     <use x="251.611328" xlink:href="#DejaVuSans-32"/>
     <use x="283.398438" xlink:href="#DejaVuSans-102"/>
     <use x="318.603516" xlink:href="#DejaVuSans-49"/>
     <use x="382.226562" xlink:href="#DejaVuSans-50"/>
     <use x="445.849609" xlink:href="#DejaVuSans-44"/>
     <use x="477.636719" xlink:href="#DejaVuSans-32"/>
     <use x="509.423828" xlink:href="#DejaVuSans-50"/>
     <use x="573.046875" xlink:href="#DejaVuSans-48"/>
     <use x="636.669922" xlink:href="#DejaVuSans-45"/>
     <use x="672.753906" xlink:href="#DejaVuSans-68"/>
    </g>
    <!-- 51 targets: 100..1e-08 -->
    <g transform="translate(60.41088 49.533135)scale(0.102 -0.102)">
     <defs>
      <path d="M 10.796875 72.90625 
L 49.515625 72.90625 
L 49.515625 64.59375 
L 19.828125 64.59375 
L 19.828125 46.734375 
Q 21.96875 47.46875 24.109375 47.828125 
Q 26.265625 48.1875 28.421875 48.1875 
Q 40.625 48.1875 47.75 41.5 
Q 54.890625 34.8125 54.890625 23.390625 
Q 54.890625 11.625 47.5625 5.09375 
Q 40.234375 -1.421875 26.90625 -1.421875 
Q 22.3125 -1.421875 17.546875 -0.640625 
Q 12.796875 0.140625 7.71875 1.703125 
L 7.71875 11.625 
Q 12.109375 9.234375 16.796875 8.0625 
Q 21.484375 6.890625 26.703125 6.890625 
Q 35.15625 6.890625 40.078125 11.328125 
Q 45.015625 15.765625 45.015625 23.390625 
Q 45.015625 31 40.078125 35.4375 
Q 35.15625 39.890625 26.703125 39.890625 
Q 22.75 39.890625 18.8125 39.015625 
Q 14.890625 38.140625 10.796875 36.28125 
z
" id="DejaVuSans-53"/>
      <path d="M 11.71875 12.40625 
L 22.015625 12.40625 
L 22.015625 0 
L 11.71875 0 
z
M 11.71875 51.703125 
L 22.015625 51.703125 
L 22.015625 39.3125 
L 11.71875 39.3125 
z
" id="DejaVuSans-58"/>
     </defs>
     <use xlink:href="#DejaVuSans-53"/>
     <use x="63.623047" xlink:href="#DejaVuSans-49"/>
     <use x="127.246094" xlink:href="#DejaVuSans-32"/>
     <use x="159.033203" xlink:href="#DejaVuSans-116"/>
     <use x="198.242188" xlink:href="#DejaVuSans-97"/>
     <use x="259.521484" xlink:href="#DejaVuSans-114"/>
     <use x="298.884766" xlink:href="#DejaVuSans-103"/>
     <use x="362.361328" xlink:href="#DejaVuSans-101"/>
     <use x="423.884766" xlink:href="#DejaVuSans-116"/>
     <use x="463.09375" xlink:href="#DejaVuSans-115"/>
     <use x="515.193359" xlink:href="#DejaVuSans-58"/>
     <use x="548.884766" xlink:href="#DejaVuSans-32"/>
     <use x="580.671875" xlink:href="#DejaVuSans-49"/>
     <use x="644.294922" xlink:href="#DejaVuSans-48"/>
     <use x="707.917969" xlink:href="#DejaVuSans-48"/>
     <use x="771.541016" xlink:href="#DejaVuSans-46"/>
     <use x="803.328125" xlink:href="#DejaVuSans-46"/>
     <use x="835.115234" xlink:href="#DejaVuSans-49"/>
     <use x="898.738281" xlink:href="#DejaVuSans-101"/>
     <use x="960.261719" xlink:href="#DejaVuSans-45"/>
     <use x="996.345703" xlink:href="#DejaVuSans-48"/>
     <use x="1059.96875" xlink:href="#DejaVuSans-56"/>
    </g>
    <!-- 15 instances -->
    <g transform="translate(60.41088 60.954904)scale(0.102 -0.102)">
     <use xlink:href="#DejaVuSans-49"/>
     <use x="63.623047" xlink:href="#DejaVuSans-53"/>
     <use x="127.246094" xlink:href="#DejaVuSans-32"/>
     <use x="159.033203" xlink:href="#DejaVuSans-105"/>
     <use x="186.816406" xlink:href="#DejaVuSans-110"/>
     <use x="250.195312" xlink:href="#DejaVuSans-115"/>
     <use x="302.294922" xlink:href="#DejaVuSans-116"/>
     <use x="341.503906" xlink:href="#DejaVuSans-97"/>
     <use x="402.783203" xlink:href="#DejaVuSans-110"/>
     <use x="466.162109" xlink:href="#DejaVuSans-99"/>
     <use x="521.142578" xlink:href="#DejaVuSans-101"/>
     <use x="582.666016" xlink:href="#DejaVuSans-115"/>
    </g>
   </g>
   <g id="text_18">
    <!-- v2.4 -->
    <g style="fill:#808080;" transform="translate(187.233062 294.151352)scale(0.1 -0.1)">
     <use xlink:href="#DejaVuSans-118"/>
     <use x="59.179688" xlink:href="#DejaVuSans-50"/>
     <use x="122.802734" xlink:href="#DejaVuSans-46"/>
     <use x="154.589844" xlink:href="#DejaVuSans-52"/>
    </g>
   </g>
   <g id="text_19">
    <!-- 12 Bent cigar -->
    <g transform="translate(130.926812 21.648)scale(0.2 -0.2)">
     <use xlink:href="#DejaVuSans-49"/>
     <use x="63.623047" xlink:href="#DejaVuSans-50"/>
     <use x="127.246094" xlink:href="#DejaVuSans-32"/>
     <use x="159.033203" xlink:href="#DejaVuSans-66"/>
     <use x="227.636719" xlink:href="#DejaVuSans-101"/>
     <use x="289.160156" xlink:href="#DejaVuSans-110"/>
     <use x="352.539062" xlink:href="#DejaVuSans-116"/>
     <use x="391.748047" xlink:href="#DejaVuSans-32"/>
     <use x="423.535156" xlink:href="#DejaVuSans-99"/>
     <use x="478.515625" xlink:href="#DejaVuSans-105"/>
     <use x="506.298828" xlink:href="#DejaVuSans-103"/>
     <use x="569.775391" xlink:href="#DejaVuSans-97"/>
     <use x="631.054688" xlink:href="#DejaVuSans-114"/>
    </g>
   </g>
  </g>
 </g>
 <defs>
  <clipPath id="p0dd6c77bfb">
   <rect height="271.296" width="281.088" x="57.6" y="27.648"/>
  </clipPath>
 </defs>
</svg>
