<?xml version="1.0" encoding="utf-8" standalone="no"?>
<!DOCTYPE svg PUBLIC "-//W3C//DTD SVG 1.1//EN"
  "http://www.w3.org/Graphics/SVG/1.1/DTD/svg11.dtd">
<!-- Created with matplotlib (https://matplotlib.org/) -->
<svg height="345.6pt" version="1.1" viewBox="0 0 460.8 345.6" width="460.8pt" xmlns="http://www.w3.org/2000/svg" xmlns:xlink="http://www.w3.org/1999/xlink">
 <metadata>
  <rdf:RDF xmlns:cc="http://creativecommons.org/ns#" xmlns:dc="http://purl.org/dc/elements/1.1/" xmlns:rdf="http://www.w3.org/1999/02/22-rdf-syntax-ns#">
   <cc:Work>
    <dc:type rdf:resource="http://purl.org/dc/dcmitype/StillImage"/>
    <dc:date>2021-05-01T17:07:41.305525</dc:date>
    <dc:format>image/svg+xml</dc:format>
    <dc:creator>
     <cc:Agent>
      <dc:title>Matplotlib v3.3.2, https://matplotlib.org/</dc:title>
     </cc:Agent>
    </dc:creator>
   </cc:Work>
  </rdf:RDF>
 </metadata>
 <defs>
  <style type="text/css">*{stroke-linecap:butt;stroke-linejoin:round;}</style>
 </defs>
 <g id="figure_1">
  <g id="patch_1">
   <path d="M 0 345.6 
L 460.8 345.6 
L 460.8 0 
L 0 0 
z
" style="fill:#ffffff;"/>
  </g>
  <g id="axes_1">
   <g id="patch_2">
    <path d="M 57.6 298.944 
L 338.688 298.944 
L 338.688 27.648 
L 57.6 27.648 
z
" style="fill:#ffffff;"/>
   </g>
   <g id="line2d_1">
    <path d="M 95.526106 298.944 
L 95.526106 293.677139 
L 98.43941 293.677139 
L 98.43941 288.410278 
L 100.343767 288.410278 
L 100.343767 283.143418 
L 108.577836 283.143418 
L 108.577836 277.876557 
L 111.974805 277.876557 
L 111.974805 272.609696 
L 114.685115 272.609696 
L 114.685115 267.342835 
L 116.323218 267.342835 
L 116.323218 262.075974 
L 117.930605 262.075974 
L 117.930605 256.809114 
L 119.301163 256.809114 
L 119.301163 251.542253 
L 120.382253 251.542253 
L 120.382253 246.275392 
L 121.489881 246.275392 
L 121.489881 241.008531 
L 122.699028 241.008531 
L 122.699028 235.74167 
L 123.514096 235.74167 
L 123.514096 230.47481 
L 124.292765 230.47481 
L 124.292765 225.207949 
L 124.965026 225.207949 
L 124.965026 219.941088 
L 125.822869 219.941088 
L 125.822869 214.674227 
L 126.773103 214.674227 
L 126.773103 209.407366 
L 127.54831 209.407366 
L 127.54831 204.140506 
L 128.650105 204.140506 
L 128.650105 198.873645 
L 129.290685 198.873645 
L 129.290685 193.606784 
L 130.073348 193.606784 
L 130.073348 188.339923 
L 130.61164 188.339923 
L 130.61164 183.073062 
L 131.236397 183.073062 
L 131.236397 177.806202 
L 135.401861 177.806202 
L 135.401861 172.539341 
L 148.733265 172.539341 
L 148.733265 167.27248 
L 154.707925 167.27248 
L 154.707925 162.005619 
L 155.271165 162.005619 
L 155.271165 156.738758 
L 155.928852 156.738758 
L 155.928852 151.471897 
L 156.394253 151.471897 
L 156.394253 146.205037 
L 156.871092 146.205037 
L 156.871092 140.938176 
L 157.335239 140.938176 
L 157.335239 135.671315 
L 157.809652 135.671315 
L 157.809652 130.404454 
L 158.325678 130.404454 
L 158.325678 125.137593 
L 158.795307 125.137593 
L 158.795307 119.870733 
L 159.232092 119.870733 
L 159.232092 114.603872 
L 159.778062 114.603872 
L 159.778062 109.337011 
L 160.239731 109.337011 
L 160.239731 104.07015 
L 160.783709 104.07015 
L 160.783709 98.803289 
L 161.210663 98.803289 
L 161.210663 93.536429 
L 161.840959 93.536429 
L 161.840959 88.269568 
L 162.147765 88.269568 
L 162.147765 83.002707 
L 162.568423 83.002707 
L 162.568423 77.735846 
L 162.90445 77.735846 
L 162.90445 72.468985 
L 163.356164 72.468985 
L 163.356164 67.202125 
L 163.764822 67.202125 
L 163.764822 61.935264 
L 164.179597 61.935264 
L 164.179597 56.668403 
L 164.410075 56.668403 
L 164.410075 51.401542 
L 164.675172 51.401542 
L 164.675172 46.134681 
L 165.054383 46.134681 
L 165.054383 40.867821 
L 165.518877 40.867821 
L 165.518877 35.60096 
L 165.810071 35.60096 
L 165.810071 30.334099 
L 338.688 30.334099 
" style="fill:none;stroke:#f5deb3;stroke-linecap:square;stroke-width:4;"/>
   </g>
   <g id="line2d_2">
    <defs>
     <path d="M -0 7.778175 
L 7.778175 0 
L 0 -7.778175 
L -7.778175 -0 
z
" id="me00cdc44c2" style="stroke:#f5deb3;stroke-linejoin:miter;stroke-width:1.5;"/>
    </defs>
    <g>
     <use style="fill:#f5deb3;stroke:#f5deb3;stroke-linejoin:miter;stroke-width:1.5;" x="122.699028" xlink:href="#me00cdc44c2" y="241.008531"/>
     <use style="fill:#f5deb3;stroke:#f5deb3;stroke-linejoin:miter;stroke-width:1.5;" x="161.210663" xlink:href="#me00cdc44c2" y="93.536429"/>
     <use style="fill:#f5deb3;stroke:#f5deb3;stroke-linejoin:miter;stroke-width:1.5;" x="165.810071" xlink:href="#me00cdc44c2" y="35.60096"/>
     <use style="fill:#f5deb3;stroke:#f5deb3;stroke-linejoin:miter;stroke-width:1.5;" x="165.810071" xlink:href="#me00cdc44c2" y="30.334099"/>
     <use style="fill:#f5deb3;stroke:#f5deb3;stroke-linejoin:miter;stroke-width:1.5;" x="338.688" xlink:href="#me00cdc44c2" y="30.334099"/>
    </g>
   </g>
   <g id="line2d_3">
    <path style="fill:none;stroke:#f5deb3;stroke-linecap:square;stroke-width:4;"/>
    <g/>
   </g>
   <g id="line2d_4">
    <path d="M 338.688 30.334099 
L 369.60768 35.706297 
" style="fill:none;stroke:#f5deb3;stroke-linecap:square;stroke-width:4;"/>
    <g>
     <use style="fill:#f5deb3;stroke:#f5deb3;stroke-linejoin:miter;stroke-width:1.5;" x="338.688" xlink:href="#me00cdc44c2" y="30.334099"/>
     <use style="fill:#f5deb3;stroke:#f5deb3;stroke-linejoin:miter;stroke-width:1.5;" x="369.60768" xlink:href="#me00cdc44c2" y="35.706297"/>
    </g>
   </g>
   <g id="matplotlib.axis_1">
    <g id="xtick_1">
     <g id="line2d_5">
      <path clip-path="url(#p0bd08fff04)" d="M 57.6 298.944 
L 57.6 27.648 
" style="fill:none;stroke:#b0b0b0;stroke-linecap:square;stroke-width:0.8;"/>
     </g>
     <g id="line2d_6">
      <defs>
       <path d="M 0 0 
L 0 3.5 
" id="me6ff742842" style="stroke:#000000;stroke-width:0.8;"/>
      </defs>
      <g>
       <use style="stroke:#000000;stroke-width:0.8;" x="57.6" xlink:href="#me6ff742842" y="298.944"/>
      </g>
     </g>
     <g id="text_1">
      <!-- 0 -->
      <g transform="translate(51.2375 321.140875)scale(0.2 -0.2)">
       <defs>
        <path d="M 31.78125 66.40625 
Q 24.171875 66.40625 20.328125 58.90625 
Q 16.5 51.421875 16.5 36.375 
Q 16.5 21.390625 20.328125 13.890625 
Q 24.171875 6.390625 31.78125 6.390625 
Q 39.453125 6.390625 43.28125 13.890625 
Q 47.125 21.390625 47.125 36.375 
Q 47.125 51.421875 43.28125 58.90625 
Q 39.453125 66.40625 31.78125 66.40625 
z
M 31.78125 74.21875 
Q 44.046875 74.21875 50.515625 64.515625 
Q 56.984375 54.828125 56.984375 36.375 
Q 56.984375 17.96875 50.515625 8.265625 
Q 44.046875 -1.421875 31.78125 -1.421875 
Q 19.53125 -1.421875 13.0625 8.265625 
Q 6.59375 17.96875 6.59375 36.375 
Q 6.59375 54.828125 13.0625 64.515625 
Q 19.53125 74.21875 31.78125 74.21875 
z
" id="DejaVuSans-48"/>
       </defs>
       <use xlink:href="#DejaVuSans-48"/>
      </g>
     </g>
    </g>
    <g id="xtick_2">
     <g id="line2d_7">
      <path clip-path="url(#p0bd08fff04)" d="M 137.910857 298.944 
L 137.910857 27.648 
" style="fill:none;stroke:#b0b0b0;stroke-linecap:square;stroke-width:0.8;"/>
     </g>
     <g id="line2d_8">
      <g>
       <use style="stroke:#000000;stroke-width:0.8;" x="137.910857" xlink:href="#me6ff742842" y="298.944"/>
      </g>
     </g>
     <g id="text_2">
      <!-- 2 -->
      <g transform="translate(131.548357 321.140875)scale(0.2 -0.2)">
       <defs>
        <path d="M 19.1875 8.296875 
L 53.609375 8.296875 
L 53.609375 0 
L 7.328125 0 
L 7.328125 8.296875 
Q 12.9375 14.109375 22.625 23.890625 
Q 32.328125 33.6875 34.8125 36.53125 
Q 39.546875 41.84375 41.421875 45.53125 
Q 43.3125 49.21875 43.3125 52.78125 
Q 43.3125 58.59375 39.234375 62.25 
Q 35.15625 65.921875 28.609375 65.921875 
Q 23.96875 65.921875 18.8125 64.3125 
Q 13.671875 62.703125 7.8125 59.421875 
L 7.8125 69.390625 
Q 13.765625 71.78125 18.9375 73 
Q 24.125 74.21875 28.421875 74.21875 
Q 39.75 74.21875 46.484375 68.546875 
Q 53.21875 62.890625 53.21875 53.421875 
Q 53.21875 48.921875 51.53125 44.890625 
Q 49.859375 40.875 45.40625 35.40625 
Q 44.1875 33.984375 37.640625 27.21875 
Q 31.109375 20.453125 19.1875 8.296875 
z
" id="DejaVuSans-50"/>
       </defs>
       <use xlink:href="#DejaVuSans-50"/>
      </g>
     </g>
    </g>
    <g id="xtick_3">
     <g id="line2d_9">
      <path clip-path="url(#p0bd08fff04)" d="M 218.221714 298.944 
L 218.221714 27.648 
" style="fill:none;stroke:#b0b0b0;stroke-linecap:square;stroke-width:0.8;"/>
     </g>
     <g id="line2d_10">
      <g>
       <use style="stroke:#000000;stroke-width:0.8;" x="218.221714" xlink:href="#me6ff742842" y="298.944"/>
      </g>
     </g>
     <g id="text_3">
      <!-- 4 -->
      <g transform="translate(211.859214 321.140875)scale(0.2 -0.2)">
       <defs>
        <path d="M 37.796875 64.3125 
L 12.890625 25.390625 
L 37.796875 25.390625 
z
M 35.203125 72.90625 
L 47.609375 72.90625 
L 47.609375 25.390625 
L 58.015625 25.390625 
L 58.015625 17.1875 
L 47.609375 17.1875 
L 47.609375 0 
L 37.796875 0 
L 37.796875 17.1875 
L 4.890625 17.1875 
L 4.890625 26.703125 
z
" id="DejaVuSans-52"/>
       </defs>
       <use xlink:href="#DejaVuSans-52"/>
      </g>
     </g>
    </g>
    <g id="xtick_4">
     <g id="line2d_11">
      <path clip-path="url(#p0bd08fff04)" d="M 298.532571 298.944 
L 298.532571 27.648 
" style="fill:none;stroke:#b0b0b0;stroke-linecap:square;stroke-width:0.8;"/>
     </g>
     <g id="line2d_12">
      <g>
       <use style="stroke:#000000;stroke-width:0.8;" x="298.532571" xlink:href="#me6ff742842" y="298.944"/>
      </g>
     </g>
     <g id="text_4">
      <!-- 6 -->
      <g transform="translate(292.170071 321.140875)scale(0.2 -0.2)">
       <defs>
        <path d="M 33.015625 40.375 
Q 26.375 40.375 22.484375 35.828125 
Q 18.609375 31.296875 18.609375 23.390625 
Q 18.609375 15.53125 22.484375 10.953125 
Q 26.375 6.390625 33.015625 6.390625 
Q 39.65625 6.390625 43.53125 10.953125 
Q 47.40625 15.53125 47.40625 23.390625 
Q 47.40625 31.296875 43.53125 35.828125 
Q 39.65625 40.375 33.015625 40.375 
z
M 52.59375 71.296875 
L 52.59375 62.3125 
Q 48.875 64.0625 45.09375 64.984375 
Q 41.3125 65.921875 37.59375 65.921875 
Q 27.828125 65.921875 22.671875 59.328125 
Q 17.53125 52.734375 16.796875 39.40625 
Q 19.671875 43.65625 24.015625 45.921875 
Q 28.375 48.1875 33.59375 48.1875 
Q 44.578125 48.1875 50.953125 41.515625 
Q 57.328125 34.859375 57.328125 23.390625 
Q 57.328125 12.15625 50.6875 5.359375 
Q 44.046875 -1.421875 33.015625 -1.421875 
Q 20.359375 -1.421875 13.671875 8.265625 
Q 6.984375 17.96875 6.984375 36.375 
Q 6.984375 53.65625 15.1875 63.9375 
Q 23.390625 74.21875 37.203125 74.21875 
Q 40.921875 74.21875 44.703125 73.484375 
Q 48.484375 72.75 52.59375 71.296875 
z
" id="DejaVuSans-54"/>
       </defs>
       <use xlink:href="#DejaVuSans-54"/>
      </g>
     </g>
    </g>
    <g id="xtick_5">
     <g id="line2d_13">
      <path clip-path="url(#p0bd08fff04)" d="M 97.755429 298.944 
L 97.755429 27.648 
" style="fill:none;stroke:#b0b0b0;stroke-linecap:square;stroke-width:0.8;"/>
     </g>
     <g id="line2d_14">
      <defs>
       <path d="M 0 0 
L 0 2 
" id="m1065d7e47f" style="stroke:#000000;stroke-width:0.6;"/>
      </defs>
      <g>
       <use style="stroke:#000000;stroke-width:0.6;" x="97.755429" xlink:href="#m1065d7e47f" y="298.944"/>
      </g>
     </g>
    </g>
    <g id="xtick_6">
     <g id="line2d_15">
      <path clip-path="url(#p0bd08fff04)" d="M 178.066286 298.944 
L 178.066286 27.648 
" style="fill:none;stroke:#b0b0b0;stroke-linecap:square;stroke-width:0.8;"/>
     </g>
     <g id="line2d_16">
      <g>
       <use style="stroke:#000000;stroke-width:0.6;" x="178.066286" xlink:href="#m1065d7e47f" y="298.944"/>
      </g>
     </g>
    </g>
    <g id="xtick_7">
     <g id="line2d_17">
      <path clip-path="url(#p0bd08fff04)" d="M 258.377143 298.944 
L 258.377143 27.648 
" style="fill:none;stroke:#b0b0b0;stroke-linecap:square;stroke-width:0.8;"/>
     </g>
     <g id="line2d_18">
      <g>
       <use style="stroke:#000000;stroke-width:0.6;" x="258.377143" xlink:href="#m1065d7e47f" y="298.944"/>
      </g>
     </g>
    </g>
    <g id="xtick_8">
     <g id="line2d_19">
      <path clip-path="url(#p0bd08fff04)" d="M 338.688 298.944 
L 338.688 27.648 
" style="fill:none;stroke:#b0b0b0;stroke-linecap:square;stroke-width:0.8;"/>
     </g>
     <g id="line2d_20">
      <g>
       <use style="stroke:#000000;stroke-width:0.6;" x="338.688" xlink:href="#m1065d7e47f" y="298.944"/>
      </g>
     </g>
    </g>
    <g id="text_5">
     <!-- log10(# f-evals / dimension) -->
     <g transform="translate(77.764078 342.217594)scale(0.17 -0.17)">
      <defs>
       <path d="M 9.421875 75.984375 
L 18.40625 75.984375 
L 18.40625 0 
L 9.421875 0 
z
" id="DejaVuSans-108"/>
       <path d="M 30.609375 48.390625 
Q 23.390625 48.390625 19.1875 42.75 
Q 14.984375 37.109375 14.984375 27.296875 
Q 14.984375 17.484375 19.15625 11.84375 
Q 23.34375 6.203125 30.609375 6.203125 
Q 37.796875 6.203125 41.984375 11.859375 
Q 46.1875 17.53125 46.1875 27.296875 
Q 46.1875 37.015625 41.984375 42.703125 
Q 37.796875 48.390625 30.609375 48.390625 
z
M 30.609375 56 
Q 42.328125 56 49.015625 48.375 
Q 55.71875 40.765625 55.71875 27.296875 
Q 55.71875 13.875 49.015625 6.21875 
Q 42.328125 -1.421875 30.609375 -1.421875 
Q 18.84375 -1.421875 12.171875 6.21875 
Q 5.515625 13.875 5.515625 27.296875 
Q 5.515625 40.765625 12.171875 48.375 
Q 18.84375 56 30.609375 56 
z
" id="DejaVuSans-111"/>
       <path d="M 45.40625 27.984375 
Q 45.40625 37.75 41.375 43.109375 
Q 37.359375 48.484375 30.078125 48.484375 
Q 22.859375 48.484375 18.828125 43.109375 
Q 14.796875 37.75 14.796875 27.984375 
Q 14.796875 18.265625 18.828125 12.890625 
Q 22.859375 7.515625 30.078125 7.515625 
Q 37.359375 7.515625 41.375 12.890625 
Q 45.40625 18.265625 45.40625 27.984375 
z
M 54.390625 6.78125 
Q 54.390625 -7.171875 48.1875 -13.984375 
Q 42 -20.796875 29.203125 -20.796875 
Q 24.46875 -20.796875 20.265625 -20.09375 
Q 16.0625 -19.390625 12.109375 -17.921875 
L 12.109375 -9.1875 
Q 16.0625 -11.328125 19.921875 -12.34375 
Q 23.78125 -13.375 27.78125 -13.375 
Q 36.625 -13.375 41.015625 -8.765625 
Q 45.40625 -4.15625 45.40625 5.171875 
L 45.40625 9.625 
Q 42.625 4.78125 38.28125 2.390625 
Q 33.9375 0 27.875 0 
Q 17.828125 0 11.671875 7.65625 
Q 5.515625 15.328125 5.515625 27.984375 
Q 5.515625 40.671875 11.671875 48.328125 
Q 17.828125 56 27.875 56 
Q 33.9375 56 38.28125 53.609375 
Q 42.625 51.21875 45.40625 46.390625 
L 45.40625 54.6875 
L 54.390625 54.6875 
z
" id="DejaVuSans-103"/>
       <path d="M 12.40625 8.296875 
L 28.515625 8.296875 
L 28.515625 63.921875 
L 10.984375 60.40625 
L 10.984375 69.390625 
L 28.421875 72.90625 
L 38.28125 72.90625 
L 38.28125 8.296875 
L 54.390625 8.296875 
L 54.390625 0 
L 12.40625 0 
z
" id="DejaVuSans-49"/>
       <path d="M 31 75.875 
Q 24.46875 64.65625 21.28125 53.65625 
Q 18.109375 42.671875 18.109375 31.390625 
Q 18.109375 20.125 21.3125 9.0625 
Q 24.515625 -2 31 -13.1875 
L 23.1875 -13.1875 
Q 15.875 -1.703125 12.234375 9.375 
Q 8.59375 20.453125 8.59375 31.390625 
Q 8.59375 42.28125 12.203125 53.3125 
Q 15.828125 64.359375 23.1875 75.875 
z
" id="DejaVuSans-40"/>
       <path d="M 51.125 44 
L 36.921875 44 
L 32.8125 27.6875 
L 47.125 27.6875 
z
M 43.796875 71.78125 
L 38.71875 51.515625 
L 52.984375 51.515625 
L 58.109375 71.78125 
L 65.921875 71.78125 
L 60.890625 51.515625 
L 76.125 51.515625 
L 76.125 44 
L 58.984375 44 
L 54.984375 27.6875 
L 70.515625 27.6875 
L 70.515625 20.21875 
L 53.078125 20.21875 
L 48 0 
L 40.1875 0 
L 45.21875 20.21875 
L 30.90625 20.21875 
L 25.875 0 
L 18.015625 0 
L 23.09375 20.21875 
L 7.71875 20.21875 
L 7.71875 27.6875 
L 24.90625 27.6875 
L 29 44 
L 13.28125 44 
L 13.28125 51.515625 
L 30.90625 51.515625 
L 35.890625 71.78125 
z
" id="DejaVuSans-35"/>
       <path id="DejaVuSans-32"/>
       <path d="M 37.109375 75.984375 
L 37.109375 68.5 
L 28.515625 68.5 
Q 23.6875 68.5 21.796875 66.546875 
Q 19.921875 64.59375 19.921875 59.515625 
L 19.921875 54.6875 
L 34.71875 54.6875 
L 34.71875 47.703125 
L 19.921875 47.703125 
L 19.921875 0 
L 10.890625 0 
L 10.890625 47.703125 
L 2.296875 47.703125 
L 2.296875 54.6875 
L 10.890625 54.6875 
L 10.890625 58.5 
Q 10.890625 67.625 15.140625 71.796875 
Q 19.390625 75.984375 28.609375 75.984375 
z
" id="DejaVuSans-102"/>
       <path d="M 4.890625 31.390625 
L 31.203125 31.390625 
L 31.203125 23.390625 
L 4.890625 23.390625 
z
" id="DejaVuSans-45"/>
       <path d="M 56.203125 29.59375 
L 56.203125 25.203125 
L 14.890625 25.203125 
Q 15.484375 15.921875 20.484375 11.0625 
Q 25.484375 6.203125 34.421875 6.203125 
Q 39.59375 6.203125 44.453125 7.46875 
Q 49.3125 8.734375 54.109375 11.28125 
L 54.109375 2.78125 
Q 49.265625 0.734375 44.1875 -0.34375 
Q 39.109375 -1.421875 33.890625 -1.421875 
Q 20.796875 -1.421875 13.15625 6.1875 
Q 5.515625 13.8125 5.515625 26.8125 
Q 5.515625 40.234375 12.765625 48.109375 
Q 20.015625 56 32.328125 56 
Q 43.359375 56 49.78125 48.890625 
Q 56.203125 41.796875 56.203125 29.59375 
z
M 47.21875 32.234375 
Q 47.125 39.59375 43.09375 43.984375 
Q 39.0625 48.390625 32.421875 48.390625 
Q 24.90625 48.390625 20.390625 44.140625 
Q 15.875 39.890625 15.1875 32.171875 
z
" id="DejaVuSans-101"/>
       <path d="M 2.984375 54.6875 
L 12.5 54.6875 
L 29.59375 8.796875 
L 46.6875 54.6875 
L 56.203125 54.6875 
L 35.6875 0 
L 23.484375 0 
z
" id="DejaVuSans-118"/>
       <path d="M 34.28125 27.484375 
Q 23.390625 27.484375 19.1875 25 
Q 14.984375 22.515625 14.984375 16.5 
Q 14.984375 11.71875 18.140625 8.90625 
Q 21.296875 6.109375 26.703125 6.109375 
Q 34.1875 6.109375 38.703125 11.40625 
Q 43.21875 16.703125 43.21875 25.484375 
L 43.21875 27.484375 
z
M 52.203125 31.203125 
L 52.203125 0 
L 43.21875 0 
L 43.21875 8.296875 
Q 40.140625 3.328125 35.546875 0.953125 
Q 30.953125 -1.421875 24.3125 -1.421875 
Q 15.921875 -1.421875 10.953125 3.296875 
Q 6 8.015625 6 15.921875 
Q 6 25.140625 12.171875 29.828125 
Q 18.359375 34.515625 30.609375 34.515625 
L 43.21875 34.515625 
L 43.21875 35.40625 
Q 43.21875 41.609375 39.140625 45 
Q 35.0625 48.390625 27.6875 48.390625 
Q 23 48.390625 18.546875 47.265625 
Q 14.109375 46.140625 10.015625 43.890625 
L 10.015625 52.203125 
Q 14.9375 54.109375 19.578125 55.046875 
Q 24.21875 56 28.609375 56 
Q 40.484375 56 46.34375 49.84375 
Q 52.203125 43.703125 52.203125 31.203125 
z
" id="DejaVuSans-97"/>
       <path d="M 44.28125 53.078125 
L 44.28125 44.578125 
Q 40.484375 46.53125 36.375 47.5 
Q 32.28125 48.484375 27.875 48.484375 
Q 21.1875 48.484375 17.84375 46.4375 
Q 14.5 44.390625 14.5 40.28125 
Q 14.5 37.15625 16.890625 35.375 
Q 19.28125 33.59375 26.515625 31.984375 
L 29.59375 31.296875 
Q 39.15625 29.25 43.1875 25.515625 
Q 47.21875 21.78125 47.21875 15.09375 
Q 47.21875 7.46875 41.1875 3.015625 
Q 35.15625 -1.421875 24.609375 -1.421875 
Q 20.21875 -1.421875 15.453125 -0.5625 
Q 10.6875 0.296875 5.421875 2 
L 5.421875 11.28125 
Q 10.40625 8.6875 15.234375 7.390625 
Q 20.0625 6.109375 24.8125 6.109375 
Q 31.15625 6.109375 34.5625 8.28125 
Q 37.984375 10.453125 37.984375 14.40625 
Q 37.984375 18.0625 35.515625 20.015625 
Q 33.0625 21.96875 24.703125 23.78125 
L 21.578125 24.515625 
Q 13.234375 26.265625 9.515625 29.90625 
Q 5.8125 33.546875 5.8125 39.890625 
Q 5.8125 47.609375 11.28125 51.796875 
Q 16.75 56 26.8125 56 
Q 31.78125 56 36.171875 55.265625 
Q 40.578125 54.546875 44.28125 53.078125 
z
" id="DejaVuSans-115"/>
       <path d="M 25.390625 72.90625 
L 33.6875 72.90625 
L 8.296875 -9.28125 
L 0 -9.28125 
z
" id="DejaVuSans-47"/>
       <path d="M 45.40625 46.390625 
L 45.40625 75.984375 
L 54.390625 75.984375 
L 54.390625 0 
L 45.40625 0 
L 45.40625 8.203125 
Q 42.578125 3.328125 38.25 0.953125 
Q 33.9375 -1.421875 27.875 -1.421875 
Q 17.96875 -1.421875 11.734375 6.484375 
Q 5.515625 14.40625 5.515625 27.296875 
Q 5.515625 40.1875 11.734375 48.09375 
Q 17.96875 56 27.875 56 
Q 33.9375 56 38.25 53.625 
Q 42.578125 51.265625 45.40625 46.390625 
z
M 14.796875 27.296875 
Q 14.796875 17.390625 18.875 11.75 
Q 22.953125 6.109375 30.078125 6.109375 
Q 37.203125 6.109375 41.296875 11.75 
Q 45.40625 17.390625 45.40625 27.296875 
Q 45.40625 37.203125 41.296875 42.84375 
Q 37.203125 48.484375 30.078125 48.484375 
Q 22.953125 48.484375 18.875 42.84375 
Q 14.796875 37.203125 14.796875 27.296875 
z
" id="DejaVuSans-100"/>
       <path d="M 9.421875 54.6875 
L 18.40625 54.6875 
L 18.40625 0 
L 9.421875 0 
z
M 9.421875 75.984375 
L 18.40625 75.984375 
L 18.40625 64.59375 
L 9.421875 64.59375 
z
" id="DejaVuSans-105"/>
       <path d="M 52 44.1875 
Q 55.375 50.25 60.0625 53.125 
Q 64.75 56 71.09375 56 
Q 79.640625 56 84.28125 50.015625 
Q 88.921875 44.046875 88.921875 33.015625 
L 88.921875 0 
L 79.890625 0 
L 79.890625 32.71875 
Q 79.890625 40.578125 77.09375 44.375 
Q 74.3125 48.1875 68.609375 48.1875 
Q 61.625 48.1875 57.5625 43.546875 
Q 53.515625 38.921875 53.515625 30.90625 
L 53.515625 0 
L 44.484375 0 
L 44.484375 32.71875 
Q 44.484375 40.625 41.703125 44.40625 
Q 38.921875 48.1875 33.109375 48.1875 
Q 26.21875 48.1875 22.15625 43.53125 
Q 18.109375 38.875 18.109375 30.90625 
L 18.109375 0 
L 9.078125 0 
L 9.078125 54.6875 
L 18.109375 54.6875 
L 18.109375 46.1875 
Q 21.1875 51.21875 25.484375 53.609375 
Q 29.78125 56 35.6875 56 
Q 41.65625 56 45.828125 52.96875 
Q 50 49.953125 52 44.1875 
z
" id="DejaVuSans-109"/>
       <path d="M 54.890625 33.015625 
L 54.890625 0 
L 45.90625 0 
L 45.90625 32.71875 
Q 45.90625 40.484375 42.875 44.328125 
Q 39.84375 48.1875 33.796875 48.1875 
Q 26.515625 48.1875 22.3125 43.546875 
Q 18.109375 38.921875 18.109375 30.90625 
L 18.109375 0 
L 9.078125 0 
L 9.078125 54.6875 
L 18.109375 54.6875 
L 18.109375 46.1875 
Q 21.34375 51.125 25.703125 53.5625 
Q 30.078125 56 35.796875 56 
Q 45.21875 56 50.046875 50.171875 
Q 54.890625 44.34375 54.890625 33.015625 
z
" id="DejaVuSans-110"/>
       <path d="M 8.015625 75.875 
L 15.828125 75.875 
Q 23.140625 64.359375 26.78125 53.3125 
Q 30.421875 42.28125 30.421875 31.390625 
Q 30.421875 20.453125 26.78125 9.375 
Q 23.140625 -1.703125 15.828125 -13.1875 
L 8.015625 -13.1875 
Q 14.5 -2 17.703125 9.0625 
Q 20.90625 20.125 20.90625 31.390625 
Q 20.90625 42.671875 17.703125 53.65625 
Q 14.5 64.65625 8.015625 75.875 
z
" id="DejaVuSans-41"/>
      </defs>
      <use xlink:href="#DejaVuSans-108"/>
      <use x="27.783203" xlink:href="#DejaVuSans-111"/>
      <use x="88.964844" xlink:href="#DejaVuSans-103"/>
      <use x="152.441406" xlink:href="#DejaVuSans-49"/>
      <use x="216.064453" xlink:href="#DejaVuSans-48"/>
      <use x="279.6875" xlink:href="#DejaVuSans-40"/>
      <use x="318.701172" xlink:href="#DejaVuSans-35"/>
      <use x="402.490234" xlink:href="#DejaVuSans-32"/>
      <use x="434.277344" xlink:href="#DejaVuSans-102"/>
      <use x="463.982422" xlink:href="#DejaVuSans-45"/>
      <use x="500.066406" xlink:href="#DejaVuSans-101"/>
      <use x="561.589844" xlink:href="#DejaVuSans-118"/>
      <use x="620.769531" xlink:href="#DejaVuSans-97"/>
      <use x="682.048828" xlink:href="#DejaVuSans-108"/>
      <use x="709.832031" xlink:href="#DejaVuSans-115"/>
      <use x="761.931641" xlink:href="#DejaVuSans-32"/>
      <use x="793.71875" xlink:href="#DejaVuSans-47"/>
      <use x="827.410156" xlink:href="#DejaVuSans-32"/>
      <use x="859.197266" xlink:href="#DejaVuSans-100"/>
      <use x="922.673828" xlink:href="#DejaVuSans-105"/>
      <use x="950.457031" xlink:href="#DejaVuSans-109"/>
      <use x="1047.869141" xlink:href="#DejaVuSans-101"/>
      <use x="1109.392578" xlink:href="#DejaVuSans-110"/>
      <use x="1172.771484" xlink:href="#DejaVuSans-115"/>
      <use x="1224.871094" xlink:href="#DejaVuSans-105"/>
      <use x="1252.654297" xlink:href="#DejaVuSans-111"/>
      <use x="1313.835938" xlink:href="#DejaVuSans-110"/>
      <use x="1377.214844" xlink:href="#DejaVuSans-41"/>
     </g>
    </g>
   </g>
   <g id="matplotlib.axis_2">
    <g id="ytick_1">
     <g id="line2d_21">
      <path clip-path="url(#p0bd08fff04)" d="M 57.6 298.944 
L 338.688 298.944 
" style="fill:none;stroke:#b0b0b0;stroke-linecap:square;stroke-width:0.8;"/>
     </g>
     <g id="line2d_22">
      <defs>
       <path d="M 0 0 
L -3.5 0 
" id="m8e44befee4" style="stroke:#000000;stroke-width:0.8;"/>
      </defs>
      <g>
       <use style="stroke:#000000;stroke-width:0.8;" x="57.6" xlink:href="#m8e44befee4" y="298.944"/>
      </g>
     </g>
     <g id="text_6">
      <!-- 0.0 -->
      <g transform="translate(25.155 305.02275)scale(0.16 -0.16)">
       <defs>
        <path d="M 10.6875 12.40625 
L 21 12.40625 
L 21 0 
L 10.6875 0 
z
" id="DejaVuSans-46"/>
       </defs>
       <use xlink:href="#DejaVuSans-48"/>
       <use x="63.623047" xlink:href="#DejaVuSans-46"/>
       <use x="95.410156" xlink:href="#DejaVuSans-48"/>
      </g>
     </g>
    </g>
    <g id="ytick_2">
     <g id="line2d_23">
      <path clip-path="url(#p0bd08fff04)" d="M 57.6 245.22202 
L 338.688 245.22202 
" style="fill:none;stroke:#b0b0b0;stroke-linecap:square;stroke-width:0.8;"/>
     </g>
     <g id="line2d_24">
      <g>
       <use style="stroke:#000000;stroke-width:0.8;" x="57.6" xlink:href="#m8e44befee4" y="245.22202"/>
      </g>
     </g>
     <g id="text_7">
      <!-- 0.2 -->
      <g transform="translate(25.155 251.30077)scale(0.16 -0.16)">
       <use xlink:href="#DejaVuSans-48"/>
       <use x="63.623047" xlink:href="#DejaVuSans-46"/>
       <use x="95.410156" xlink:href="#DejaVuSans-50"/>
      </g>
     </g>
    </g>
    <g id="ytick_3">
     <g id="line2d_25">
      <path clip-path="url(#p0bd08fff04)" d="M 57.6 191.50004 
L 338.688 191.50004 
" style="fill:none;stroke:#b0b0b0;stroke-linecap:square;stroke-width:0.8;"/>
     </g>
     <g id="line2d_26">
      <g>
       <use style="stroke:#000000;stroke-width:0.8;" x="57.6" xlink:href="#m8e44befee4" y="191.50004"/>
      </g>
     </g>
     <g id="text_8">
      <!-- 0.4 -->
      <g transform="translate(25.155 197.57879)scale(0.16 -0.16)">
       <use xlink:href="#DejaVuSans-48"/>
       <use x="63.623047" xlink:href="#DejaVuSans-46"/>
       <use x="95.410156" xlink:href="#DejaVuSans-52"/>
      </g>
     </g>
    </g>
    <g id="ytick_4">
     <g id="line2d_27">
      <path clip-path="url(#p0bd08fff04)" d="M 57.6 137.778059 
L 338.688 137.778059 
" style="fill:none;stroke:#b0b0b0;stroke-linecap:square;stroke-width:0.8;"/>
     </g>
     <g id="line2d_28">
      <g>
       <use style="stroke:#000000;stroke-width:0.8;" x="57.6" xlink:href="#m8e44befee4" y="137.778059"/>
      </g>
     </g>
     <g id="text_9">
      <!-- 0.6 -->
      <g transform="translate(25.155 143.856809)scale(0.16 -0.16)">
       <use xlink:href="#DejaVuSans-48"/>
       <use x="63.623047" xlink:href="#DejaVuSans-46"/>
       <use x="95.410156" xlink:href="#DejaVuSans-54"/>
      </g>
     </g>
    </g>
    <g id="ytick_5">
     <g id="line2d_29">
      <path clip-path="url(#p0bd08fff04)" d="M 57.6 84.056079 
L 338.688 84.056079 
" style="fill:none;stroke:#b0b0b0;stroke-linecap:square;stroke-width:0.8;"/>
     </g>
     <g id="line2d_30">
      <g>
       <use style="stroke:#000000;stroke-width:0.8;" x="57.6" xlink:href="#m8e44befee4" y="84.056079"/>
      </g>
     </g>
     <g id="text_10">
      <!-- 0.8 -->
      <g transform="translate(25.155 90.134829)scale(0.16 -0.16)">
       <defs>
        <path d="M 31.78125 34.625 
Q 24.75 34.625 20.71875 30.859375 
Q 16.703125 27.09375 16.703125 20.515625 
Q 16.703125 13.921875 20.71875 10.15625 
Q 24.75 6.390625 31.78125 6.390625 
Q 38.8125 6.390625 42.859375 10.171875 
Q 46.921875 13.96875 46.921875 20.515625 
Q 46.921875 27.09375 42.890625 30.859375 
Q 38.875 34.625 31.78125 34.625 
z
M 21.921875 38.8125 
Q 15.578125 40.375 12.03125 44.71875 
Q 8.5 49.078125 8.5 55.328125 
Q 8.5 64.0625 14.71875 69.140625 
Q 20.953125 74.21875 31.78125 74.21875 
Q 42.671875 74.21875 48.875 69.140625 
Q 55.078125 64.0625 55.078125 55.328125 
Q 55.078125 49.078125 51.53125 44.71875 
Q 48 40.375 41.703125 38.8125 
Q 48.828125 37.15625 52.796875 32.3125 
Q 56.78125 27.484375 56.78125 20.515625 
Q 56.78125 9.90625 50.3125 4.234375 
Q 43.84375 -1.421875 31.78125 -1.421875 
Q 19.734375 -1.421875 13.25 4.234375 
Q 6.78125 9.90625 6.78125 20.515625 
Q 6.78125 27.484375 10.78125 32.3125 
Q 14.796875 37.15625 21.921875 38.8125 
z
M 18.3125 54.390625 
Q 18.3125 48.734375 21.84375 45.5625 
Q 25.390625 42.390625 31.78125 42.390625 
Q 38.140625 42.390625 41.71875 45.5625 
Q 45.3125 48.734375 45.3125 54.390625 
Q 45.3125 60.0625 41.71875 63.234375 
Q 38.140625 66.40625 31.78125 66.40625 
Q 25.390625 66.40625 21.84375 63.234375 
Q 18.3125 60.0625 18.3125 54.390625 
z
" id="DejaVuSans-56"/>
       </defs>
       <use xlink:href="#DejaVuSans-48"/>
       <use x="63.623047" xlink:href="#DejaVuSans-46"/>
       <use x="95.410156" xlink:href="#DejaVuSans-56"/>
      </g>
     </g>
    </g>
    <g id="ytick_6">
     <g id="line2d_31">
      <path clip-path="url(#p0bd08fff04)" d="M 57.6 30.334099 
L 338.688 30.334099 
" style="fill:none;stroke:#b0b0b0;stroke-linecap:square;stroke-width:0.8;"/>
     </g>
     <g id="line2d_32">
      <g>
       <use style="stroke:#000000;stroke-width:0.8;" x="57.6" xlink:href="#m8e44befee4" y="30.334099"/>
      </g>
     </g>
     <g id="text_11">
      <!-- 1.0 -->
      <g transform="translate(25.155 36.412849)scale(0.16 -0.16)">
       <use xlink:href="#DejaVuSans-49"/>
       <use x="63.623047" xlink:href="#DejaVuSans-46"/>
       <use x="95.410156" xlink:href="#DejaVuSans-48"/>
      </g>
     </g>
    </g>
    <g id="text_12">
     <!-- Fraction of function,target pairs -->
     <g transform="translate(17.619531 297.681)rotate(-90)scale(0.17 -0.17)">
      <defs>
       <path d="M 9.8125 72.90625 
L 51.703125 72.90625 
L 51.703125 64.59375 
L 19.671875 64.59375 
L 19.671875 43.109375 
L 48.578125 43.109375 
L 48.578125 34.8125 
L 19.671875 34.8125 
L 19.671875 0 
L 9.8125 0 
z
" id="DejaVuSans-70"/>
       <path d="M 41.109375 46.296875 
Q 39.59375 47.171875 37.8125 47.578125 
Q 36.03125 48 33.890625 48 
Q 26.265625 48 22.1875 43.046875 
Q 18.109375 38.09375 18.109375 28.8125 
L 18.109375 0 
L 9.078125 0 
L 9.078125 54.6875 
L 18.109375 54.6875 
L 18.109375 46.1875 
Q 20.953125 51.171875 25.484375 53.578125 
Q 30.03125 56 36.53125 56 
Q 37.453125 56 38.578125 55.875 
Q 39.703125 55.765625 41.0625 55.515625 
z
" id="DejaVuSans-114"/>
       <path d="M 48.78125 52.59375 
L 48.78125 44.1875 
Q 44.96875 46.296875 41.140625 47.34375 
Q 37.3125 48.390625 33.40625 48.390625 
Q 24.65625 48.390625 19.8125 42.84375 
Q 14.984375 37.3125 14.984375 27.296875 
Q 14.984375 17.28125 19.8125 11.734375 
Q 24.65625 6.203125 33.40625 6.203125 
Q 37.3125 6.203125 41.140625 7.25 
Q 44.96875 8.296875 48.78125 10.40625 
L 48.78125 2.09375 
Q 45.015625 0.34375 40.984375 -0.53125 
Q 36.96875 -1.421875 32.421875 -1.421875 
Q 20.0625 -1.421875 12.78125 6.34375 
Q 5.515625 14.109375 5.515625 27.296875 
Q 5.515625 40.671875 12.859375 48.328125 
Q 20.21875 56 33.015625 56 
Q 37.15625 56 41.109375 55.140625 
Q 45.0625 54.296875 48.78125 52.59375 
z
" id="DejaVuSans-99"/>
       <path d="M 18.3125 70.21875 
L 18.3125 54.6875 
L 36.8125 54.6875 
L 36.8125 47.703125 
L 18.3125 47.703125 
L 18.3125 18.015625 
Q 18.3125 11.328125 20.140625 9.421875 
Q 21.96875 7.515625 27.59375 7.515625 
L 36.8125 7.515625 
L 36.8125 0 
L 27.59375 0 
Q 17.1875 0 13.234375 3.875 
Q 9.28125 7.765625 9.28125 18.015625 
L 9.28125 47.703125 
L 2.6875 47.703125 
L 2.6875 54.6875 
L 9.28125 54.6875 
L 9.28125 70.21875 
z
" id="DejaVuSans-116"/>
       <path d="M 8.5 21.578125 
L 8.5 54.6875 
L 17.484375 54.6875 
L 17.484375 21.921875 
Q 17.484375 14.15625 20.5 10.265625 
Q 23.53125 6.390625 29.59375 6.390625 
Q 36.859375 6.390625 41.078125 11.03125 
Q 45.3125 15.671875 45.3125 23.6875 
L 45.3125 54.6875 
L 54.296875 54.6875 
L 54.296875 0 
L 45.3125 0 
L 45.3125 8.40625 
Q 42.046875 3.421875 37.71875 1 
Q 33.40625 -1.421875 27.6875 -1.421875 
Q 18.265625 -1.421875 13.375 4.4375 
Q 8.5 10.296875 8.5 21.578125 
z
M 31.109375 56 
z
" id="DejaVuSans-117"/>
       <path d="M 11.71875 12.40625 
L 22.015625 12.40625 
L 22.015625 4 
L 14.015625 -11.625 
L 7.71875 -11.625 
L 11.71875 4 
z
" id="DejaVuSans-44"/>
       <path d="M 18.109375 8.203125 
L 18.109375 -20.796875 
L 9.078125 -20.796875 
L 9.078125 54.6875 
L 18.109375 54.6875 
L 18.109375 46.390625 
Q 20.953125 51.265625 25.265625 53.625 
Q 29.59375 56 35.59375 56 
Q 45.5625 56 51.78125 48.09375 
Q 58.015625 40.1875 58.015625 27.296875 
Q 58.015625 14.40625 51.78125 6.484375 
Q 45.5625 -1.421875 35.59375 -1.421875 
Q 29.59375 -1.421875 25.265625 0.953125 
Q 20.953125 3.328125 18.109375 8.203125 
z
M 48.6875 27.296875 
Q 48.6875 37.203125 44.609375 42.84375 
Q 40.53125 48.484375 33.40625 48.484375 
Q 26.265625 48.484375 22.1875 42.84375 
Q 18.109375 37.203125 18.109375 27.296875 
Q 18.109375 17.390625 22.1875 11.75 
Q 26.265625 6.109375 33.40625 6.109375 
Q 40.53125 6.109375 44.609375 11.75 
Q 48.6875 17.390625 48.6875 27.296875 
z
" id="DejaVuSans-112"/>
      </defs>
      <use xlink:href="#DejaVuSans-70"/>
      <use x="50.269531" xlink:href="#DejaVuSans-114"/>
      <use x="91.382812" xlink:href="#DejaVuSans-97"/>
      <use x="152.662109" xlink:href="#DejaVuSans-99"/>
      <use x="207.642578" xlink:href="#DejaVuSans-116"/>
      <use x="246.851562" xlink:href="#DejaVuSans-105"/>
      <use x="274.634766" xlink:href="#DejaVuSans-111"/>
      <use x="335.816406" xlink:href="#DejaVuSans-110"/>
      <use x="399.195312" xlink:href="#DejaVuSans-32"/>
      <use x="430.982422" xlink:href="#DejaVuSans-111"/>
      <use x="492.164062" xlink:href="#DejaVuSans-102"/>
      <use x="527.369141" xlink:href="#DejaVuSans-32"/>
      <use x="559.15625" xlink:href="#DejaVuSans-102"/>
      <use x="594.361328" xlink:href="#DejaVuSans-117"/>
      <use x="657.740234" xlink:href="#DejaVuSans-110"/>
      <use x="721.119141" xlink:href="#DejaVuSans-99"/>
      <use x="776.099609" xlink:href="#DejaVuSans-116"/>
      <use x="815.308594" xlink:href="#DejaVuSans-105"/>
      <use x="843.091797" xlink:href="#DejaVuSans-111"/>
      <use x="904.273438" xlink:href="#DejaVuSans-110"/>
      <use x="967.652344" xlink:href="#DejaVuSans-44"/>
      <use x="999.439453" xlink:href="#DejaVuSans-116"/>
      <use x="1038.648438" xlink:href="#DejaVuSans-97"/>
      <use x="1099.927734" xlink:href="#DejaVuSans-114"/>
      <use x="1139.291016" xlink:href="#DejaVuSans-103"/>
      <use x="1202.767578" xlink:href="#DejaVuSans-101"/>
      <use x="1264.291016" xlink:href="#DejaVuSans-116"/>
      <use x="1303.5" xlink:href="#DejaVuSans-32"/>
      <use x="1335.287109" xlink:href="#DejaVuSans-112"/>
      <use x="1398.763672" xlink:href="#DejaVuSans-97"/>
      <use x="1460.042969" xlink:href="#DejaVuSans-105"/>
      <use x="1487.826172" xlink:href="#DejaVuSans-114"/>
      <use x="1528.939453" xlink:href="#DejaVuSans-115"/>
     </g>
    </g>
   </g>
   <g id="line2d_33">
    <defs>
     <path d="M 0 1.5 
C 0.397805 1.5 0.77937 1.341951 1.06066 1.06066 
C 1.341951 0.77937 1.5 0.397805 1.5 0 
C 1.5 -0.397805 1.341951 -0.77937 1.06066 -1.06066 
C 0.77937 -1.341951 0.397805 -1.5 0 -1.5 
C -0.397805 -1.5 -0.77937 -1.341951 -1.06066 -1.06066 
C -1.341951 -0.77937 -1.5 -0.397805 -1.5 0 
C -1.5 0.397805 -1.341951 0.77937 -1.06066 1.06066 
C -0.77937 1.341951 -0.397805 1.5 0 1.5 
z
" id="ma265d17ea5" style="stroke:#f5deb3;"/>
    </defs>
    <g>
     <use style="fill:#f5deb3;stroke:#f5deb3;" x="165.810071" xlink:href="#ma265d17ea5" y="30.334099"/>
     <use style="fill:#f5deb3;stroke:#f5deb3;" x="165.810071" xlink:href="#ma265d17ea5" y="30.334099"/>
    </g>
   </g>
   <g id="line2d_34">
    <defs>
     <path d="M 0 1.5 
C 0.397805 1.5 0.77937 1.341951 1.06066 1.06066 
C 1.341951 0.77937 1.5 0.397805 1.5 0 
C 1.5 -0.397805 1.341951 -0.77937 1.06066 -1.06066 
C 0.77937 -1.341951 0.397805 -1.5 0 -1.5 
C -0.397805 -1.5 -0.77937 -1.341951 -1.06066 -1.06066 
C -1.341951 -0.77937 -1.5 -0.397805 -1.5 0 
C -1.5 0.397805 -1.341951 0.77937 -1.06066 1.06066 
C -0.77937 1.341951 -0.397805 1.5 0 1.5 
z
" id="m1ef5f062dc" style="stroke:#000080;"/>
    </defs>
    <g>
     <use style="fill:#000080;stroke:#000080;" x="184.355016" xlink:href="#m1ef5f062dc" y="30.334099"/>
     <use style="fill:#000080;stroke:#000080;" x="184.355016" xlink:href="#m1ef5f062dc" y="30.334099"/>
    </g>
   </g>
   <g id="line2d_35">
    <path d="M 106.382575 298.944 
L 106.382575 298.417314 
L 108.389302 298.417314 
L 108.389302 297.890628 
L 109.131511 297.890628 
L 109.131511 297.363942 
L 112.431755 297.363942 
L 112.431755 296.837256 
L 112.877038 296.837256 
L 112.877038 296.31057 
L 114.418861 296.31057 
L 114.418861 295.783884 
L 116.202531 295.783884 
L 116.202531 295.257197 
L 117.373392 295.257197 
L 117.373392 294.203825 
L 118.576578 294.203825 
L 118.576578 293.677139 
L 118.890808 293.677139 
L 118.890808 293.150453 
L 119.996839 293.150453 
L 119.996839 291.570395 
L 120.571812 291.570395 
L 120.665825 290.517023 
L 121.036887 290.517023 
L 121.036887 289.990337 
L 121.489881 289.990337 
L 121.489881 289.463651 
L 121.931406 289.463651 
L 121.931406 287.883592 
L 123.593547 287.883592 
L 123.672636 286.83022 
L 124.062793 286.83022 
L 124.062793 286.303534 
L 124.292765 286.303534 
L 124.292765 285.776848 
L 124.669438 285.776848 
L 124.669438 285.250162 
L 124.817858 285.250162 
L 124.817858 284.723476 
L 125.541584 284.723476 
L 125.541584 284.19679 
L 126.168212 284.19679 
L 126.168212 283.670104 
L 126.573795 283.670104 
L 126.573795 282.616732 
L 127.035353 282.616732 
L 127.035353 281.563359 
L 127.421479 281.563359 
L 127.421479 281.036673 
L 128.411207 281.036673 
L 128.411207 280.509987 
L 128.590686 280.509987 
L 128.590686 277.876557 
L 129.908566 277.876557 
L 129.908566 277.349871 
L 130.290663 277.349871 
L 130.290663 276.823185 
L 131.439773 276.823185 
L 131.540579 275.769812 
L 132.517825 275.769812 
L 132.612604 274.71644 
L 132.753813 274.71644 
L 132.80063 272.609696 
L 133.398082 272.609696 
L 133.398082 272.08301 
L 133.533096 272.08301 
L 133.533096 271.556324 
L 133.711505 271.556324 
L 133.711505 270.502952 
L 134.911732 270.502952 
L 134.911732 269.449579 
L 135.076644 269.449579 
L 135.076644 268.922893 
L 135.321124 268.922893 
L 135.321124 268.396207 
L 135.995765 268.396207 
L 135.995765 267.869521 
L 136.150782 267.869521 
L 136.150782 267.342835 
L 136.831795 267.342835 
L 136.831795 266.816149 
L 137.089613 266.816149 
L 137.089613 266.289463 
L 137.235245 266.289463 
L 137.235245 265.762777 
L 137.735587 265.762777 
L 137.770782 264.709405 
L 139.980403 264.709405 
L 139.980403 264.182719 
L 140.678675 264.182719 
L 140.678675 263.656033 
L 140.79731 263.656033 
L 140.79731 263.129347 
L 141.032186 263.129347 
L 141.032186 262.60266 
L 141.605898 262.60266 
L 141.605898 262.075974 
L 143.451774 262.075974 
L 143.451774 261.549288 
L 144.510517 261.549288 
L 144.510517 261.022602 
L 145.02832 261.022602 
L 145.02832 260.495916 
L 145.372754 260.495916 
L 145.372754 259.96923 
L 146.08557 259.96923 
L 146.172658 258.915858 
L 146.367029 258.915858 
L 146.367029 258.389172 
L 146.644018 258.389172 
L 146.686244 257.3358 
L 146.791364 257.3358 
L 146.791364 256.809114 
L 146.937474 256.809114 
L 147.02042 255.755741 
L 147.409112 255.755741 
L 147.509976 254.702369 
L 147.96658 254.702369 
L 147.96658 253.648997 
L 148.103206 253.648997 
L 148.1808 252.595625 
L 148.315765 252.595625 
L 148.315765 252.068939 
L 148.48777 252.068939 
L 148.506778 251.015567 
L 149.012299 251.015567 
L 149.085961 248.908822 
L 149.159312 248.908822 
L 149.177602 247.85545 
L 149.431665 247.85545 
L 149.485628 246.275392 
L 150.033689 246.275392 
L 150.033689 245.748706 
L 150.155097 245.748706 
L 150.206871 244.168648 
L 150.309961 244.168648 
L 150.412445 241.535217 
L 150.998554 241.535217 
L 151.097081 239.428473 
L 151.146137 239.428473 
L 151.146137 238.375101 
L 151.260066 238.375101 
L 151.260066 237.848415 
L 151.565603 237.848415 
L 151.660987 235.214984 
L 151.803091 235.214984 
L 151.912822 234.161612 
L 151.975216 234.161612 
L 151.975216 233.634926 
L 152.191856 233.634926 
L 152.253262 232.054868 
L 152.344968 232.054868 
L 152.344968 231.528182 
L 152.511852 231.528182 
L 152.511852 231.001496 
L 152.840905 231.001496 
L 152.840905 229.948123 
L 153.047115 229.948123 
L 153.120174 226.788007 
L 153.207444 226.788007 
L 153.207444 225.734635 
L 153.351929 225.734635 
L 153.438049 223.101204 
L 153.495227 223.101204 
L 153.537988 222.047832 
L 153.693887 222.047832 
L 153.693887 221.521146 
L 153.890309 221.521146 
L 153.973817 219.414402 
L 154.125885 219.414402 
L 154.180855 216.254285 
L 154.290278 216.254285 
L 154.290278 215.727599 
L 154.520548 215.727599 
L 154.627867 214.147541 
L 154.694607 214.147541 
L 154.77436 210.460738 
L 154.840544 210.460738 
L 154.840544 208.88068 
L 155.141793 208.88068 
L 155.193657 207.300622 
L 155.501643 207.300622 
L 155.527065 205.720564 
L 155.754208 205.720564 
L 155.854218 202.560447 
L 155.953659 202.560447 
L 155.953659 202.033761 
L 156.08947 202.033761 
L 156.187581 199.927017 
L 156.212023 199.927017 
L 156.297301 197.820273 
L 156.502685 197.820273 
L 156.502685 196.240214 
L 156.670026 196.240214 
L 156.776762 194.660156 
L 156.847557 194.660156 
L 156.871092 192.553412 
L 157.011638 192.553412 
L 157.104709 190.446667 
L 157.15106 190.446667 
L 157.197287 187.286551 
L 157.517493 187.286551 
L 157.517493 186.759865 
L 157.652944 186.759865 
L 157.720277 185.706493 
L 157.798506 185.706493 
L 157.86528 184.126434 
L 157.942862 184.126434 
L 158.042106 180.439632 
L 158.271501 180.439632 
L 158.271501 179.38626 
L 158.51933 179.38626 
L 158.583406 175.699457 
L 158.67908 175.699457 
L 158.774233 174.119399 
L 158.826871 174.119399 
L 158.826871 173.592713 
L 158.983842 173.592713 
L 158.983842 173.066027 
L 159.108409 173.066027 
L 159.211539 172.012655 
L 159.252621 172.012655 
L 159.252621 171.485969 
L 159.39565 171.485969 
L 159.476858 169.379224 
L 159.668223 169.379224 
L 159.668223 168.852538 
L 159.797958 168.852538 
L 159.797958 168.325852 
L 159.976013 168.325852 
L 160.074152 164.63905 
L 160.123015 164.63905 
L 160.200913 162.532305 
L 160.442124 162.532305 
L 160.518612 160.425561 
L 160.575759 160.425561 
L 160.594766 157.79213 
L 160.698938 157.79213 
L 160.764907 156.212072 
L 160.811875 156.212072 
L 160.811875 155.685386 
L 160.961329 155.685386 
L 161.035578 154.105328 
L 161.173949 154.105328 
L 161.173949 153.051956 
L 161.347658 153.051956 
L 161.438393 151.998584 
L 161.492608 151.998584 
L 161.600536 149.891839 
L 161.654251 149.891839 
L 161.654251 149.365153 
L 161.893939 149.365153 
L 161.893939 148.838467 
L 162.043181 148.838467 
L 162.069386 147.258409 
L 162.199823 147.258409 
L 162.251725 146.205037 
L 162.38081 146.205037 
L 162.38081 145.678351 
L 162.508946 145.678351 
L 162.508946 145.151665 
L 162.661478 145.151665 
L 162.762429 141.991548 
L 162.862799 141.991548 
L 162.9377 139.884804 
L 163.127663 139.884804 
L 163.127663 139.358118 
L 163.669525 139.358118 
L 163.764822 138.304745 
L 163.969529 138.304745 
L 164.063205 136.198001 
L 164.109855 136.198001 
L 164.109855 135.144629 
L 164.341251 135.144629 
L 164.341251 134.617943 
L 164.652607 134.617943 
L 164.652607 133.564571 
L 164.780093 133.564571 
L 164.780093 133.037885 
L 165.076435 133.037885 
L 165.164364 130.93114 
L 165.309935 130.93114 
L 165.396698 129.351082 
L 165.461488 129.351082 
L 165.533195 127.771024 
L 165.739495 127.771024 
L 165.746566 126.717652 
L 166.047915 126.717652 
L 166.131092 125.66428 
L 166.165632 125.66428 
L 166.24825 124.610907 
L 166.527611 124.610907 
L 166.574863 123.557535 
L 166.948338 123.557535 
L 166.994465 121.977477 
L 167.158215 121.977477 
L 167.158215 121.450791 
L 167.442734 121.450791 
L 167.442734 120.924105 
L 167.728995 120.924105 
L 167.76681 119.870733 
L 167.854729 119.870733 
L 167.879768 117.763988 
L 168.183606 117.763988 
L 168.22045 116.18393 
L 168.373132 116.18393 
L 168.482242 113.5505 
L 168.888381 113.5505 
L 168.994323 112.497128 
L 169.017779 112.497128 
L 169.047054 111.443755 
L 169.186895 111.443755 
L 169.279504 109.337011 
L 169.302579 109.337011 
L 169.406043 107.230267 
L 169.417501 107.230267 
L 169.503198 105.650209 
L 169.729685 105.650209 
L 169.830653 103.543464 
L 169.847424 103.543464 
L 169.847424 101.963406 
L 169.97547 101.963406 
L 170.02532 100.383348 
L 170.14658 100.383348 
L 170.206895 97.749917 
L 170.267003 97.749917 
L 170.37576 95.643173 
L 170.440691 95.643173 
L 170.516139 92.483056 
L 170.559106 92.483056 
L 170.660731 91.429684 
L 170.740545 91.429684 
L 170.777667 90.376312 
L 170.88856 90.376312 
L 170.998753 85.636137 
L 171.040549 85.636137 
L 171.108254 83.529393 
L 171.160157 83.529393 
L 171.258348 80.369277 
L 171.366236 80.369277 
L 171.437793 77.735846 
L 171.483639 77.735846 
L 171.585089 74.049044 
L 171.61036 74.049044 
L 171.665827 72.468985 
L 171.726136 72.468985 
L 171.8212 69.835555 
L 171.925672 69.835555 
L 172.004852 66.148752 
L 172.054157 66.148752 
L 172.103323 64.568694 
L 172.274322 64.568694 
L 172.293758 63.515322 
L 172.458099 63.515322 
L 172.558835 61.935264 
L 172.573178 61.935264 
L 172.654236 59.301833 
L 172.739653 59.301833 
L 172.829364 57.195089 
L 172.852895 57.195089 
L 172.904553 56.141717 
L 173.00275 56.141717 
L 173.053967 54.561659 
L 173.114303 54.561659 
L 173.114303 54.034973 
L 173.229749 54.034973 
L 173.31698 51.928228 
L 173.449287 51.928228 
L 173.55351 50.34817 
L 173.585107 50.34817 
L 173.634644 49.294798 
L 173.804698 49.294798 
L 173.804698 48.768112 
L 173.981928 48.768112 
L 173.981928 47.71474 
L 174.109302 47.71474 
L 174.109302 47.188054 
L 174.231408 47.188054 
L 174.335394 45.081309 
L 174.352665 45.081309 
L 174.352665 44.554623 
L 174.579904 44.554623 
L 174.660652 42.974565 
L 174.929925 42.974565 
L 174.988278 41.921193 
L 175.075443 41.921193 
L 175.178647 40.341135 
L 175.309863 40.341135 
L 175.309863 39.814448 
L 175.464409 39.814448 
L 175.488687 38.761076 
L 175.693692 38.761076 
L 175.693692 38.23439 
L 176.883019 38.23439 
L 176.883019 37.707704 
L 177.621184 37.707704 
L 177.621184 37.181018 
L 177.905102 37.181018 
L 177.933241 36.127646 
L 183.172836 36.127646 
L 183.172836 35.60096 
L 183.30506 35.60096 
L 183.413203 34.547588 
L 183.477257 34.547588 
L 183.523231 33.494215 
L 183.622426 33.494215 
L 183.622426 32.967529 
L 183.753815 32.967529 
L 183.771427 31.914157 
L 183.876725 31.914157 
L 183.876725 31.387471 
L 184.129832 31.387471 
L 184.129832 30.860785 
L 184.355016 30.860785 
L 184.355016 30.334099 
L 338.688 30.334099 
L 338.688 30.334099 
" style="fill:none;stroke:#000080;stroke-linecap:square;stroke-width:1.5;"/>
   </g>
   <g id="line2d_36">
    <defs>
     <path d="M 0 6 
C 1.591219 6 3.117479 5.367802 4.242641 4.242641 
C 5.367802 3.117479 6 1.591219 6 0 
C 6 -1.591219 5.367802 -3.117479 4.242641 -4.242641 
C 3.117479 -5.367802 1.591219 -6 0 -6 
C -1.591219 -6 -3.117479 -5.367802 -4.242641 -4.242641 
C -5.367802 -3.117479 -6 -1.591219 -6 0 
C -6 1.591219 -5.367802 3.117479 -4.242641 4.242641 
C -3.117479 5.367802 -1.591219 6 0 6 
z
" id="m3bc83223cd" style="stroke:#000080;stroke-width:1.5;"/>
    </defs>
    <g>
     <use style="fill-opacity:0;stroke:#000080;stroke-width:1.5;" x="156.502685" xlink:href="#m3bc83223cd" y="197.820273"/>
     <use style="fill-opacity:0;stroke:#000080;stroke-width:1.5;" x="173.981928" xlink:href="#m3bc83223cd" y="48.768112"/>
     <use style="fill-opacity:0;stroke:#000080;stroke-width:1.5;" x="184.355016" xlink:href="#m3bc83223cd" y="30.334099"/>
     <use style="fill-opacity:0;stroke:#000080;stroke-width:1.5;" x="184.355016" xlink:href="#m3bc83223cd" y="30.334099"/>
     <use style="fill-opacity:0;stroke:#000080;stroke-width:1.5;" x="338.688" xlink:href="#m3bc83223cd" y="30.334099"/>
    </g>
   </g>
   <g id="line2d_37">
    <path style="fill:none;stroke:#000080;stroke-linecap:square;stroke-width:1.5;"/>
    <g/>
   </g>
   <g id="line2d_38">
    <defs>
     <path d="M 0 1.5 
C 0.397805 1.5 0.77937 1.341951 1.06066 1.06066 
C 1.341951 0.77937 1.5 0.397805 1.5 0 
C 1.5 -0.397805 1.341951 -0.77937 1.06066 -1.06066 
C 0.77937 -1.341951 0.397805 -1.5 0 -1.5 
C -0.397805 -1.5 -0.77937 -1.341951 -1.06066 -1.06066 
C -1.341951 -0.77937 -1.5 -0.397805 -1.5 0 
C -1.5 0.397805 -1.341951 0.77937 -1.06066 1.06066 
C -0.77937 1.341951 -0.397805 1.5 0 1.5 
z
" id="m802f6d47a7" style="stroke:#ff00ff;"/>
    </defs>
    <g>
     <use style="fill:#ff00ff;stroke:#ff00ff;" x="320.876265" xlink:href="#m802f6d47a7" y="204.140506"/>
     <use style="fill:#ff00ff;stroke:#ff00ff;" x="320.876265" xlink:href="#m802f6d47a7" y="204.140506"/>
    </g>
   </g>
   <g id="line2d_39">
    <path d="M 119.89914 298.944 
L 119.89914 298.417314 
L 132.470242 298.417314 
L 132.470242 297.890628 
L 133.078923 297.890628 
L 133.078923 297.363942 
L 133.488207 297.363942 
L 133.488207 296.837256 
L 134.062938 296.837256 
L 134.062938 296.31057 
L 134.279041 296.31057 
L 134.279041 295.783884 
L 134.870259 295.783884 
L 134.870259 295.257197 
L 138.828032 295.257197 
L 138.828032 294.730511 
L 139.285267 294.730511 
L 139.285267 294.203825 
L 139.509467 294.203825 
L 139.509467 293.677139 
L 141.662245 293.677139 
L 141.746425 292.623767 
L 142.133981 292.623767 
L 142.133981 292.097081 
L 144.269971 292.097081 
L 144.269971 291.570395 
L 145.02832 291.570395 
L 145.02832 291.043709 
L 146.324022 291.043709 
L 146.324022 289.990337 
L 146.77039 289.990337 
L 146.875005 288.936964 
L 148.296548 288.936964 
L 148.296548 288.410278 
L 149.141003 288.410278 
L 149.141003 287.883592 
L 150.258492 287.883592 
L 150.258492 287.356906 
L 150.54816 287.356906 
L 150.54816 286.303534 
L 151.340991 286.303534 
L 151.340991 285.776848 
L 151.501723 285.776848 
L 151.501723 285.250162 
L 151.660987 285.250162 
L 151.660987 284.19679 
L 152.511852 284.19679 
L 152.511852 283.670104 
L 152.840905 283.670104 
L 152.840905 283.143418 
L 153.207444 283.143418 
L 153.207444 282.616732 
L 153.566437 282.616732 
L 153.637357 280.509987 
L 155.703987 280.509987 
L 155.703987 279.983301 
L 156.077167 279.983301 
L 156.077167 279.456615 
L 156.357959 279.456615 
L 156.357959 278.929929 
L 156.800392 278.929929 
L 156.906335 277.349871 
L 157.277891 277.349871 
L 157.369557 276.296499 
L 158.879352 276.296499 
L 158.879352 275.769812 
L 160.31711 275.769812 
L 160.413354 274.71644 
L 162.457805 274.71644 
L 162.457805 274.189754 
L 163.412824 274.189754 
L 163.412824 273.136382 
L 164.478629 273.136382 
L 164.478629 272.609696 
L 164.980675 272.609696 
L 164.980675 272.08301 
L 165.774819 272.08301 
L 165.774819 271.556324 
L 166.013141 271.556324 
L 166.013141 271.029638 
L 167.557803 271.029638 
L 167.557803 270.502952 
L 168.115857 270.502952 
L 168.226583 269.449579 
L 168.787729 269.449579 
L 168.858837 267.342835 
L 168.95908 267.342835 
L 168.95908 266.816149 
L 169.122941 266.816149 
L 169.122941 266.289463 
L 169.463258 266.289463 
L 169.53167 264.709405 
L 170.097076 264.709405 
L 170.097076 264.182719 
L 170.904345 264.182719 
L 170.904345 263.656033 
L 171.180875 263.656033 
L 171.180875 263.129347 
L 171.675893 263.129347 
L 171.675893 262.60266 
L 171.796233 262.60266 
L 171.81621 261.549288 
L 172.6066 261.549288 
L 172.6066 261.022602 
L 172.749118 261.022602 
L 172.749118 260.495916 
L 172.895172 260.495916 
L 172.895172 259.96923 
L 173.252747 259.96923 
L 173.252747 259.442544 
L 173.764571 259.442544 
L 173.764571 258.915858 
L 174.205315 258.915858 
L 174.205315 258.389172 
L 175.597519 258.389172 
L 175.597519 257.862486 
L 176.478973 257.862486 
L 176.478973 256.809114 
L 176.672724 256.809114 
L 176.74812 255.229055 
L 177.929726 255.229055 
L 177.929726 254.702369 
L 178.425302 254.702369 
L 178.425302 254.175683 
L 178.883902 254.175683 
L 178.883902 253.648997 
L 179.0627 253.648997 
L 179.0627 253.122311 
L 179.389043 253.122311 
L 179.389043 252.595625 
L 181.277785 252.595625 
L 181.277785 252.068939 
L 185.172149 252.068939 
L 185.172149 251.542253 
L 185.443852 251.542253 
L 185.443852 251.015567 
L 246.479042 251.015567 
L 246.573525 248.382136 
L 246.597803 248.382136 
L 246.654593 243.115275 
L 246.813644 243.115275 
L 246.813644 242.588589 
L 258.488364 242.588589 
L 258.558472 239.428473 
L 265.5166 239.428473 
L 265.622035 235.214984 
L 270.533134 235.214984 
L 270.59774 231.001496 
L 274.418763 231.001496 
L 274.487123 227.314693 
L 277.58984 227.314693 
L 277.596503 226.261321 
L 280.273627 226.261321 
L 280.276171 225.207949 
L 282.59288 225.207949 
L 282.634814 222.574518 
L 284.645449 222.574518 
L 284.665321 221.521146 
L 286.480819 221.521146 
L 286.482169 220.467774 
L 288.144801 220.467774 
L 288.166176 219.414402 
L 289.678645 219.414402 
L 289.678645 218.36103 
L 291.048411 218.36103 
L 291.052252 217.307658 
L 292.342342 217.307658 
L 292.342342 216.780971 
L 293.54067 216.780971 
L 293.54067 216.254285 
L 294.664609 216.254285 
L 294.673842 214.147541 
L 295.720478 214.147541 
L 295.73685 212.567483 
L 297.656195 212.567483 
L 297.656195 212.040797 
L 299.414604 212.040797 
L 299.414604 211.514111 
L 300.210382 211.514111 
L 300.21149 210.460738 
L 300.988141 210.460738 
L 300.988141 209.934052 
L 302.4388 209.934052 
L 302.450218 208.88068 
L 303.122213 208.88068 
L 303.122213 208.353994 
L 305.026826 208.353994 
L 305.026826 207.827308 
L 306.749556 207.827308 
L 306.749556 207.300622 
L 308.302417 207.300622 
L 308.302417 206.773936 
L 310.188681 206.773936 
L 310.188681 206.24725 
L 310.62918 206.24725 
L 310.62918 205.720564 
L 311.061405 205.720564 
L 311.061405 205.193878 
L 316.494551 205.193878 
L 316.494551 204.667192 
L 320.876265 204.667192 
L 320.876265 204.140506 
L 338.688 204.140506 
L 338.688 204.140506 
" style="fill:none;stroke:#ff00ff;stroke-linecap:square;stroke-width:1.5;"/>
   </g>
   <g id="line2d_40">
    <defs>
     <path d="M -0 8.485281 
L 5.091169 0 
L 0 -8.485281 
L -5.091169 -0 
z
" id="md7740ee68a" style="stroke:#ff00ff;stroke-linejoin:miter;stroke-width:1.5;"/>
    </defs>
    <g>
     <use style="fill-opacity:0;stroke:#ff00ff;stroke-linejoin:miter;stroke-width:1.5;" x="185.443852" xlink:href="#md7740ee68a" y="251.542253"/>
     <use style="fill-opacity:0;stroke:#ff00ff;stroke-linejoin:miter;stroke-width:1.5;" x="258.558472" xlink:href="#md7740ee68a" y="240.481845"/>
     <use style="fill-opacity:0;stroke:#ff00ff;stroke-linejoin:miter;stroke-width:1.5;" x="320.876265" xlink:href="#md7740ee68a" y="204.667192"/>
     <use style="fill-opacity:0;stroke:#ff00ff;stroke-linejoin:miter;stroke-width:1.5;" x="320.876265" xlink:href="#md7740ee68a" y="204.140506"/>
     <use style="fill-opacity:0;stroke:#ff00ff;stroke-linejoin:miter;stroke-width:1.5;" x="338.688" xlink:href="#md7740ee68a" y="204.140506"/>
    </g>
   </g>
   <g id="line2d_41">
    <path style="fill:none;stroke:#ff00ff;stroke-linecap:square;stroke-width:1.5;"/>
    <g/>
   </g>
   <g id="line2d_42">
    <path clip-path="url(#p0bd08fff04)" d="M 246.289154 251.015567 
" style="fill:none;stroke:#ff00ff;stroke-linecap:square;stroke-width:1.5;"/>
    <defs>
     <path d="M -12 12 
L 12 -12 
M -12 -12 
L 12 12 
" id="m3942e5ba3d" style="stroke:#ff00ff;"/>
    </defs>
    <g clip-path="url(#p0bd08fff04)">
     <use style="fill:#ff00ff;stroke:#ff00ff;" x="246.289154" xlink:href="#m3942e5ba3d" y="251.015567"/>
    </g>
   </g>
   <g id="line2d_43">
    <defs>
     <path d="M 0 1.5 
C 0.397805 1.5 0.77937 1.341951 1.06066 1.06066 
C 1.341951 0.77937 1.5 0.397805 1.5 0 
C 1.5 -0.397805 1.341951 -0.77937 1.06066 -1.06066 
C 0.77937 -1.341951 0.397805 -1.5 0 -1.5 
C -0.397805 -1.5 -0.77937 -1.341951 -1.06066 -1.06066 
C -1.341951 -0.77937 -1.5 -0.397805 -1.5 0 
C -1.5 0.397805 -1.341951 0.77937 -1.06066 1.06066 
C -0.77937 1.341951 -0.397805 1.5 0 1.5 
z
" id="maae5f31244" style="stroke:#ff7500;"/>
    </defs>
    <g>
     <use style="fill:#ff7500;stroke:#ff7500;" x="276.660677" xlink:href="#maae5f31244" y="30.334099"/>
     <use style="fill:#ff7500;stroke:#ff7500;" x="276.660677" xlink:href="#maae5f31244" y="30.334099"/>
    </g>
   </g>
   <g id="line2d_44">
    <path d="M 127.861412 298.944 
L 127.861412 297.363942 
L 131.740458 297.363942 
L 131.790072 296.31057 
L 136.86886 296.31057 
L 136.86886 295.783884 
L 137.089613 295.783884 
L 137.089613 294.730511 
L 138.861092 294.730511 
L 138.861092 294.203825 
L 141.148448 294.203825 
L 141.148448 293.677139 
L 141.774395 293.677139 
L 141.858037 292.623767 
L 142.593291 292.623767 
L 142.593291 292.097081 
L 142.805321 292.097081 
L 142.805321 291.570395 
L 143.014805 291.570395 
L 143.014805 291.043709 
L 145.576196 291.043709 
L 145.576196 289.990337 
L 146.129168 289.990337 
L 146.150926 288.936964 
L 146.728368 288.936964 
L 146.728368 288.410278 
L 147.185137 288.410278 
L 147.185137 287.883592 
L 147.729844 287.883592 
L 147.729844 287.356906 
L 148.373289 287.356906 
L 148.468742 285.776848 
L 150.085825 285.776848 
L 150.085825 285.250162 
L 150.899466 285.250162 
L 150.932558 284.19679 
L 151.755852 284.19679 
L 151.834513 281.563359 
L 152.542024 281.563359 
L 152.542024 281.036673 
L 153.221946 281.036673 
L 153.294279 279.983301 
L 154.303908 279.983301 
L 154.303908 279.456615 
L 155.437927 279.456615 
L 155.450689 278.403243 
L 155.666226 278.403243 
L 155.666226 277.876557 
L 155.916435 277.876557 
L 155.916435 276.823185 
L 156.370066 276.823185 
L 156.370066 276.296499 
L 157.116308 276.296499 
L 157.116308 275.769812 
L 157.380981 275.769812 
L 157.472107 274.71644 
L 157.652944 274.71644 
L 157.709073 273.663068 
L 157.9318 273.663068 
L 157.9318 273.136382 
L 159.004665 273.136382 
L 159.066985 272.08301 
L 159.314063 272.08301 
L 159.314063 271.556324 
L 159.778062 271.556324 
L 159.778062 271.029638 
L 160.083935 271.029638 
L 160.083935 270.502952 
L 160.288133 270.502952 
L 160.288133 269.976266 
L 160.422949 269.976266 
L 160.422949 269.449579 
L 161.201492 269.449579 
L 161.201492 268.922893 
L 161.876297 268.922893 
L 161.876297 268.396207 
L 162.695193 268.396207 
L 162.695193 267.869521 
L 162.946002 267.869521 
L 162.946002 267.342835 
L 163.445119 267.342835 
L 163.445119 266.816149 
L 163.835954 266.816149 
L 163.835954 266.289463 
L 163.969529 266.289463 
L 163.969529 265.762777 
L 164.179597 265.762777 
L 164.179597 265.236091 
L 165.375047 265.236091 
L 165.468672 263.656033 
L 166.047915 263.656033 
L 166.047915 263.129347 
L 166.330478 263.129347 
L 166.391896 261.022602 
L 166.514087 261.022602 
L 166.514087 260.495916 
L 166.921925 260.495916 
L 166.921925 259.442544 
L 167.190782 259.442544 
L 167.190782 258.915858 
L 167.595991 258.915858 
L 167.595991 258.389172 
L 167.96712 258.389172 
L 167.96712 257.862486 
L 168.146685 257.862486 
L 168.146685 257.3358 
L 168.584667 257.3358 
L 168.584667 256.809114 
L 169.023638 256.809114 
L 169.023638 256.282427 
L 169.667694 256.282427 
L 169.667694 255.755741 
L 169.892068 255.755741 
L 169.892068 255.229055 
L 170.014255 255.229055 
L 170.014255 254.702369 
L 170.206895 254.702369 
L 170.294256 253.648997 
L 171.731152 253.648997 
L 171.776234 252.595625 
L 172.235384 252.595625 
L 172.235384 252.068939 
L 172.351938 252.068939 
L 172.351938 251.542253 
L 172.932666 251.542253 
L 172.932666 251.015567 
L 173.548992 251.015567 
L 173.548992 250.488881 
L 173.959872 250.488881 
L 173.959872 249.962195 
L 174.50306 249.962195 
L 174.50306 249.435508 
L 174.842027 249.435508 
L 174.842027 248.908822 
L 174.988278 248.908822 
L 174.988278 248.382136 
L 175.476552 248.382136 
L 175.476552 246.802078 
L 175.685698 246.802078 
L 175.685698 246.275392 
L 176.710463 246.275392 
L 176.710463 245.748706 
L 176.897943 245.748706 
L 176.950079 244.168648 
L 177.299796 244.168648 
L 177.299796 243.641962 
L 177.667636 243.641962 
L 177.721082 242.588589 
L 177.912141 242.588589 
L 177.912141 242.061903 
L 178.625736 242.061903 
L 178.625736 241.535217 
L 178.75362 241.535217 
L 178.75362 241.008531 
L 179.085744 241.008531 
L 179.085744 239.955159 
L 179.741105 239.955159 
L 179.741105 239.428473 
L 180.048884 239.428473 
L 180.048884 238.901787 
L 180.491498 238.901787 
L 180.491498 238.375101 
L 180.881654 238.375101 
L 180.881654 237.848415 
L 181.462482 237.848415 
L 181.462482 237.321729 
L 181.591186 237.321729 
L 181.613968 235.74167 
L 181.999553 235.74167 
L 182.107777 233.634926 
L 182.384967 233.634926 
L 182.461038 231.528182 
L 183.115487 231.528182 
L 183.115487 231.001496 
L 183.372085 231.001496 
L 183.372085 230.47481 
L 183.505367 230.47481 
L 183.56145 229.421437 
L 183.723582 229.421437 
L 183.723582 228.894751 
L 184.134758 228.894751 
L 184.134758 228.368065 
L 184.403587 228.368065 
L 184.473775 226.788007 
L 184.608516 226.788007 
L 184.608516 226.261321 
L 184.950287 226.261321 
L 184.966732 225.207949 
L 185.069743 225.207949 
L 185.069743 224.681263 
L 185.32234 224.681263 
L 185.32234 224.154577 
L 185.57133 224.154577 
L 185.57133 223.627891 
L 186.97402 223.627891 
L 186.97402 222.047832 
L 187.363093 222.047832 
L 187.424384 219.941088 
L 188.188503 219.941088 
L 188.188503 218.887716 
L 188.77393 218.887716 
L 188.77393 218.36103 
L 188.985932 218.36103 
L 188.985932 217.834344 
L 189.936675 217.834344 
L 189.936675 217.307658 
L 190.396731 217.307658 
L 190.40017 216.254285 
L 190.61889 216.254285 
L 190.61889 215.727599 
L 190.781149 215.727599 
L 190.781149 215.200913 
L 191.071449 215.200913 
L 191.142451 214.147541 
L 191.585005 214.147541 
L 191.585005 213.620855 
L 192.345747 213.620855 
L 192.440843 212.567483 
L 192.599203 212.567483 
L 192.599203 212.040797 
L 192.712519 212.040797 
L 192.712519 211.514111 
L 193.118881 211.514111 
L 193.227418 208.88068 
L 193.313473 208.88068 
L 193.313473 208.353994 
L 193.56195 208.353994 
L 193.58775 207.300622 
L 194.120913 207.300622 
L 194.120913 205.720564 
L 194.429337 205.720564 
L 194.429337 205.193878 
L 195.456214 205.193878 
L 195.456214 204.667192 
L 195.653255 204.667192 
L 195.73196 203.087133 
L 195.930937 203.087133 
L 196.039539 201.507075 
L 196.2018 201.507075 
L 196.2018 200.980389 
L 196.354013 200.980389 
L 196.393079 199.400331 
L 196.570215 199.400331 
L 196.665318 198.346959 
L 197.167066 198.346959 
L 197.20319 197.293586 
L 197.335395 197.293586 
L 197.376936 196.240214 
L 197.566078 196.240214 
L 197.661586 195.186842 
L 197.679719 195.186842 
L 197.679719 194.660156 
L 198.059543 194.660156 
L 198.133642 193.606784 
L 198.216217 193.606784 
L 198.216217 193.080098 
L 198.416075 193.080098 
L 198.51677 192.026726 
L 198.624401 192.026726 
L 198.624401 191.50004 
L 198.744163 191.50004 
L 198.744163 190.973354 
L 198.919114 190.973354 
L 198.919114 190.446667 
L 199.195436 190.446667 
L 199.230706 189.393295 
L 199.359768 189.393295 
L 199.424455 188.339923 
L 199.640386 188.339923 
L 199.689917 186.759865 
L 199.768472 186.759865 
L 199.768472 186.233179 
L 199.882651 186.233179 
L 199.882651 185.706493 
L 200.256961 185.706493 
L 200.256961 185.179807 
L 200.519765 185.179807 
L 200.519765 184.653121 
L 201.033782 184.653121 
L 201.098145 183.073062 
L 201.231709 183.073062 
L 201.231709 182.546376 
L 201.34958 182.546376 
L 201.381672 181.493004 
L 201.626371 181.493004 
L 201.71557 179.38626 
L 201.834689 179.38626 
L 201.834689 178.859574 
L 202.060826 178.859574 
L 202.123271 177.806202 
L 202.884272 177.806202 
L 202.885953 176.752829 
L 203.05655 176.752829 
L 203.05655 176.226143 
L 203.383021 176.226143 
L 203.42544 175.172771 
L 204.027628 175.172771 
L 204.121826 174.119399 
L 204.490548 174.119399 
L 204.587623 170.959282 
L 204.861393 170.959282 
L 204.861393 170.432596 
L 205.245815 170.432596 
L 205.354111 168.325852 
L 205.368694 168.325852 
L 205.368694 167.799166 
L 205.652807 167.799166 
L 205.657826 166.745794 
L 205.782829 166.745794 
L 205.782829 166.219108 
L 206.082729 166.219108 
L 206.184574 164.112363 
L 206.257454 164.112363 
L 206.330719 162.532305 
L 206.389936 162.532305 
L 206.494109 160.952247 
L 206.885989 160.952247 
L 206.885989 160.425561 
L 207.159762 160.425561 
L 207.159762 159.898875 
L 207.27383 159.898875 
L 207.27383 159.372189 
L 207.435779 159.372189 
L 207.435779 158.318817 
L 207.593672 158.318817 
L 207.650037 156.738758 
L 207.74824 156.738758 
L 207.85348 155.685386 
L 207.960601 155.685386 
L 207.960601 155.1587 
L 208.083918 155.1587 
L 208.083918 154.632014 
L 208.344566 154.632014 
L 208.402848 153.578642 
L 208.51457 153.578642 
L 208.558938 152.52527 
L 208.88487 152.52527 
L 208.88487 151.998584 
L 209.041447 151.998584 
L 209.041447 151.471897 
L 209.157378 151.471897 
L 209.157378 150.945211 
L 209.36784 150.945211 
L 209.36784 150.418525 
L 209.873859 150.418525 
L 209.983844 147.785095 
L 210.083687 147.785095 
L 210.083687 147.258409 
L 210.224941 147.258409 
L 210.335482 143.571606 
L 210.564767 143.571606 
L 210.65166 141.991548 
L 210.832685 141.991548 
L 210.942099 140.938176 
L 211.060299 140.938176 
L 211.113859 139.884804 
L 211.239756 139.884804 
L 211.239756 139.358118 
L 211.497577 139.358118 
L 211.525762 137.778059 
L 211.843896 137.778059 
L 211.932163 135.671315 
L 212.19875 135.671315 
L 212.297985 134.617943 
L 212.319526 134.617943 
L 212.367408 133.037885 
L 212.471512 133.037885 
L 212.471512 132.511199 
L 212.586084 132.511199 
L 212.586084 131.984513 
L 212.757258 131.984513 
L 212.79015 130.93114 
L 213.029005 130.93114 
L 213.129245 129.351082 
L 213.298896 129.351082 
L 213.367679 128.29771 
L 213.944533 128.29771 
L 214.016148 125.66428 
L 214.171267 125.66428 
L 214.276105 124.084221 
L 214.322402 124.084221 
L 214.322402 123.557535 
L 214.470075 123.557535 
L 214.501619 122.504163 
L 214.598057 122.504163 
L 214.687132 120.924105 
L 214.853776 120.924105 
L 214.853776 120.397419 
L 215.097457 120.397419 
L 215.097457 119.344047 
L 215.324606 119.344047 
L 215.394475 118.290674 
L 215.443218 118.290674 
L 215.475093 116.710616 
L 215.823926 116.710616 
L 215.823926 116.18393 
L 216.035145 116.18393 
L 216.130172 114.077186 
L 216.385078 114.077186 
L 216.415665 111.970441 
L 216.595009 111.970441 
L 216.651584 110.917069 
L 216.710258 110.917069 
L 216.710258 110.390383 
L 216.914455 110.390383 
L 216.914455 109.863697 
L 217.043299 109.863697 
L 217.043299 109.337011 
L 217.164159 109.337011 
L 217.260248 107.756953 
L 217.423123 107.756953 
L 217.530142 106.176895 
L 217.543927 106.176895 
L 217.633262 105.123522 
L 217.674339 105.123522 
L 217.731471 104.07015 
L 217.956727 104.07015 
L 217.956727 103.543464 
L 218.121675 103.543464 
L 218.20287 102.490092 
L 218.305223 102.490092 
L 218.356521 100.910034 
L 218.466922 100.910034 
L 218.54242 99.856662 
L 218.668321 99.856662 
L 218.668321 99.329976 
L 218.948905 99.329976 
L 219.057625 98.276603 
L 219.087521 98.276603 
L 219.101787 97.223231 
L 219.232946 97.223231 
L 219.335008 95.643173 
L 219.416946 95.643173 
L 219.516645 94.063115 
L 219.55029 94.063115 
L 219.625756 91.95637 
L 219.692563 91.95637 
L 219.790703 90.902998 
L 219.836229 90.902998 
L 219.931036 89.32294 
L 220.0225 89.32294 
L 220.0225 88.796254 
L 220.170659 88.796254 
L 220.198396 87.216196 
L 220.868886 87.216196 
L 220.977028 85.109451 
L 221.060514 85.109451 
L 221.060514 84.582765 
L 221.327872 84.582765 
L 221.391386 83.002707 
L 221.487383 83.002707 
L 221.582854 80.895963 
L 221.661777 80.895963 
L 221.699819 79.842591 
L 221.781629 79.842591 
L 221.781629 79.315904 
L 222.000084 79.315904 
L 222.078543 77.735846 
L 222.301892 77.735846 
L 222.301892 77.20916 
L 222.548562 77.20916 
L 222.548562 75.629102 
L 222.870784 75.629102 
L 222.88307 74.57573 
L 223.117759 74.57573 
L 223.117759 74.049044 
L 223.358687 74.049044 
L 223.451705 72.468985 
L 223.60658 72.468985 
L 223.646235 71.415613 
L 223.765423 71.415613 
L 223.765423 70.888927 
L 223.924089 70.888927 
L 223.924089 70.362241 
L 224.078334 70.362241 
L 224.170081 69.308869 
L 224.255673 69.308869 
L 224.35533 67.728811 
L 224.75939 67.728811 
L 224.865751 66.675439 
L 224.878614 66.675439 
L 224.908828 65.622066 
L 225.001522 65.622066 
L 225.047802 64.568694 
L 225.23054 64.568694 
L 225.23054 64.042008 
L 225.348914 64.042008 
L 225.348914 63.515322 
L 225.611842 63.515322 
L 225.611842 62.988636 
L 225.813861 62.988636 
L 225.86614 61.935264 
L 226.008212 61.935264 
L 226.008212 61.408578 
L 226.329291 61.408578 
L 226.329291 60.881892 
L 226.46961 60.881892 
L 226.493719 59.82852 
L 226.870753 59.82852 
L 226.950436 58.775147 
L 227.467897 58.775147 
L 227.467897 58.248461 
L 227.962266 58.248461 
L 227.962266 57.721775 
L 228.114829 57.721775 
L 228.114829 57.195089 
L 228.567174 57.195089 
L 228.567174 56.668403 
L 228.768553 56.668403 
L 228.876426 55.615031 
L 229.080463 55.615031 
L 229.080463 55.088345 
L 229.575984 55.088345 
L 229.678267 54.034973 
L 229.799538 54.034973 
L 229.799538 53.508287 
L 229.994357 53.508287 
L 229.994357 52.9816 
L 232.649879 52.9816 
L 232.649879 52.454914 
L 234.556218 52.454914 
L 234.573707 50.874856 
L 234.889707 50.874856 
L 234.914099 49.821484 
L 235.061463 49.821484 
L 235.061463 49.294798 
L 235.265964 49.294798 
L 235.265964 48.241426 
L 235.527027 48.241426 
L 235.603663 46.661368 
L 235.682655 46.661368 
L 235.682655 46.134681 
L 235.847446 46.134681 
L 235.847446 45.081309 
L 236.190611 45.081309 
L 236.190611 44.554623 
L 236.675718 44.554623 
L 236.675718 44.027937 
L 237.583463 44.027937 
L 237.63636 42.974565 
L 237.748506 42.974565 
L 237.748506 42.447879 
L 239.600062 42.447879 
L 239.600062 41.921193 
L 239.884164 41.921193 
L 239.884164 41.394507 
L 240.005805 41.394507 
L 240.005805 40.867821 
L 240.223473 40.867821 
L 240.223473 40.341135 
L 244.24897 40.341135 
L 244.24897 39.814448 
L 245.028598 39.814448 
L 245.028598 39.287762 
L 245.221146 39.287762 
L 245.221146 38.761076 
L 245.544373 38.761076 
L 245.544373 38.23439 
L 245.854569 38.23439 
L 245.952273 37.181018 
L 249.355337 37.181018 
L 249.355337 36.127646 
L 250.386217 36.127646 
L 250.436938 35.074274 
L 250.80838 35.074274 
L 250.80838 34.547588 
L 251.14918 34.547588 
L 251.14918 34.020902 
L 253.926379 34.020902 
L 253.926379 33.494215 
L 254.581983 33.494215 
L 254.581983 32.967529 
L 257.517358 32.967529 
L 257.517358 32.440843 
L 264.879709 32.440843 
L 264.879709 31.914157 
L 268.381353 31.914157 
L 268.381353 31.387471 
L 273.300626 31.387471 
L 273.300626 30.860785 
L 276.660677 30.860785 
L 276.660677 30.334099 
L 338.688 30.334099 
L 338.688 30.334099 
" style="fill:none;stroke:#ff7500;stroke-linecap:square;stroke-width:1.5;"/>
   </g>
   <g id="line2d_45">
    <defs>
     <path d="M 0 -6 
L -1.347084 -1.854102 
L -5.706339 -1.854102 
L -2.179628 0.708204 
L -3.526712 4.854102 
L -0 2.291796 
L 3.526712 4.854102 
L 2.179628 0.708204 
L 5.706339 -1.854102 
L 1.347084 -1.854102 
z
" id="me1ab662454" style="stroke:#ff7500;stroke-linejoin:bevel;stroke-width:1.5;"/>
    </defs>
    <g>
     <use style="fill-opacity:0;stroke:#ff7500;stroke-linejoin:bevel;stroke-width:1.5;" x="196.665318" xlink:href="#me1ab662454" y="198.346959"/>
     <use style="fill-opacity:0;stroke:#ff7500;stroke-linejoin:bevel;stroke-width:1.5;" x="227.962266" xlink:href="#me1ab662454" y="58.248461"/>
     <use style="fill-opacity:0;stroke:#ff7500;stroke-linejoin:bevel;stroke-width:1.5;" x="276.660677" xlink:href="#me1ab662454" y="30.334099"/>
     <use style="fill-opacity:0;stroke:#ff7500;stroke-linejoin:bevel;stroke-width:1.5;" x="276.660677" xlink:href="#me1ab662454" y="30.334099"/>
     <use style="fill-opacity:0;stroke:#ff7500;stroke-linejoin:bevel;stroke-width:1.5;" x="338.688" xlink:href="#me1ab662454" y="30.334099"/>
    </g>
   </g>
   <g id="line2d_46">
    <path style="fill:none;stroke:#ff7500;stroke-linecap:square;stroke-width:1.5;"/>
    <g/>
   </g>
   <g id="line2d_47">
    <path clip-path="url(#p0bd08fff04)" d="M 246.289154 37.181018 
" style="fill:none;stroke:#ff7500;stroke-linecap:square;stroke-width:1.5;"/>
    <defs>
     <path d="M -12 12 
L 12 -12 
M -12 -12 
L 12 12 
" id="mad1e102076" style="stroke:#ff7500;"/>
    </defs>
    <g clip-path="url(#p0bd08fff04)">
     <use style="fill:#ff7500;stroke:#ff7500;" x="246.289154" xlink:href="#mad1e102076" y="37.181018"/>
    </g>
   </g>
   <g id="line2d_48">
    <path d="M 338.688 204.140506 
L 369.60768 293.571802 
" style="fill:none;stroke:#ff00ff;stroke-linecap:square;stroke-width:1.5;"/>
    <g>
     <use style="fill-opacity:0;stroke:#ff00ff;stroke-linejoin:miter;stroke-width:1.5;" x="338.688" xlink:href="#md7740ee68a" y="204.140506"/>
     <use style="fill-opacity:0;stroke:#ff00ff;stroke-linejoin:miter;stroke-width:1.5;" x="369.60768" xlink:href="#md7740ee68a" y="293.571802"/>
    </g>
   </g>
   <g id="line2d_49">
    <path d="M 338.688 30.334099 
L 369.60768 207.616634 
" style="fill:none;stroke:#ff7500;stroke-linecap:square;stroke-width:1.5;"/>
    <g>
     <use style="fill-opacity:0;stroke:#ff7500;stroke-linejoin:bevel;stroke-width:1.5;" x="338.688" xlink:href="#me1ab662454" y="30.334099"/>
     <use style="fill-opacity:0;stroke:#ff7500;stroke-linejoin:bevel;stroke-width:1.5;" x="369.60768" xlink:href="#me1ab662454" y="207.616634"/>
    </g>
   </g>
   <g id="line2d_50">
    <path d="M 338.688 30.334099 
L 369.60768 121.661465 
" style="fill:none;stroke:#000080;stroke-linecap:square;stroke-width:1.5;"/>
    <g>
     <use style="fill-opacity:0;stroke:#000080;stroke-width:1.5;" x="338.688" xlink:href="#m3bc83223cd" y="30.334099"/>
     <use style="fill-opacity:0;stroke:#000080;stroke-width:1.5;" x="369.60768" xlink:href="#m3bc83223cd" y="121.661465"/>
    </g>
   </g>
   <g id="line2d_51">
    <path d="M 338.688 298.944 
L 338.688 30.334099 
" style="fill:none;stroke:#000000;stroke-linecap:square;stroke-width:1.5;"/>
   </g>
   <g id="patch_3">
    <path d="M 57.6 298.944 
L 57.6 27.648 
" style="fill:none;stroke:#000000;stroke-linecap:square;stroke-linejoin:miter;stroke-width:0.8;"/>
   </g>
   <g id="patch_4">
    <path d="M 338.688 298.944 
L 338.688 27.648 
" style="fill:none;stroke:#000000;stroke-linecap:square;stroke-linejoin:miter;stroke-width:0.8;"/>
   </g>
   <g id="patch_5">
    <path d="M 57.6 298.944 
L 338.688 298.944 
" style="fill:none;stroke:#000000;stroke-linecap:square;stroke-linejoin:miter;stroke-width:0.8;"/>
   </g>
   <g id="patch_6">
    <path d="M 57.6 27.648 
L 338.688 27.648 
" style="fill:none;stroke:#000000;stroke-linecap:square;stroke-linejoin:miter;stroke-width:0.8;"/>
   </g>
   <g id="text_13">
    <!-- PSO -->
    <g transform="translate(375.22944 298.262739)scale(0.17 -0.17)">
     <defs>
      <path d="M 19.671875 64.796875 
L 19.671875 37.40625 
L 32.078125 37.40625 
Q 38.96875 37.40625 42.71875 40.96875 
Q 46.484375 44.53125 46.484375 51.125 
Q 46.484375 57.671875 42.71875 61.234375 
Q 38.96875 64.796875 32.078125 64.796875 
z
M 9.8125 72.90625 
L 32.078125 72.90625 
Q 44.34375 72.90625 50.609375 67.359375 
Q 56.890625 61.8125 56.890625 51.125 
Q 56.890625 40.328125 50.609375 34.8125 
Q 44.34375 29.296875 32.078125 29.296875 
L 19.671875 29.296875 
L 19.671875 0 
L 9.8125 0 
z
" id="DejaVuSans-80"/>
      <path d="M 53.515625 70.515625 
L 53.515625 60.890625 
Q 47.90625 63.578125 42.921875 64.890625 
Q 37.9375 66.21875 33.296875 66.21875 
Q 25.25 66.21875 20.875 63.09375 
Q 16.5 59.96875 16.5 54.203125 
Q 16.5 49.359375 19.40625 46.890625 
Q 22.3125 44.4375 30.421875 42.921875 
L 36.375 41.703125 
Q 47.40625 39.59375 52.65625 34.296875 
Q 57.90625 29 57.90625 20.125 
Q 57.90625 9.515625 50.796875 4.046875 
Q 43.703125 -1.421875 29.984375 -1.421875 
Q 24.8125 -1.421875 18.96875 -0.25 
Q 13.140625 0.921875 6.890625 3.21875 
L 6.890625 13.375 
Q 12.890625 10.015625 18.65625 8.296875 
Q 24.421875 6.59375 29.984375 6.59375 
Q 38.421875 6.59375 43.015625 9.90625 
Q 47.609375 13.234375 47.609375 19.390625 
Q 47.609375 24.75 44.3125 27.78125 
Q 41.015625 30.8125 33.5 32.328125 
L 27.484375 33.5 
Q 16.453125 35.6875 11.515625 40.375 
Q 6.59375 45.0625 6.59375 53.421875 
Q 6.59375 63.09375 13.40625 68.65625 
Q 20.21875 74.21875 32.171875 74.21875 
Q 37.3125 74.21875 42.625 73.28125 
Q 47.953125 72.359375 53.515625 70.515625 
z
" id="DejaVuSans-83"/>
      <path d="M 39.40625 66.21875 
Q 28.65625 66.21875 22.328125 58.203125 
Q 16.015625 50.203125 16.015625 36.375 
Q 16.015625 22.609375 22.328125 14.59375 
Q 28.65625 6.59375 39.40625 6.59375 
Q 50.140625 6.59375 56.421875 14.59375 
Q 62.703125 22.609375 62.703125 36.375 
Q 62.703125 50.203125 56.421875 58.203125 
Q 50.140625 66.21875 39.40625 66.21875 
z
M 39.40625 74.21875 
Q 54.734375 74.21875 63.90625 63.9375 
Q 73.09375 53.65625 73.09375 36.375 
Q 73.09375 19.140625 63.90625 8.859375 
Q 54.734375 -1.421875 39.40625 -1.421875 
Q 24.03125 -1.421875 14.8125 8.828125 
Q 5.609375 19.09375 5.609375 36.375 
Q 5.609375 53.65625 14.8125 63.9375 
Q 24.03125 74.21875 39.40625 74.21875 
z
" id="DejaVuSans-79"/>
     </defs>
     <use xlink:href="#DejaVuSans-80"/>
     <use x="60.302734" xlink:href="#DejaVuSans-83"/>
     <use x="123.779297" xlink:href="#DejaVuSans-79"/>
    </g>
   </g>
   <g id="text_14">
    <!-- DE -->
    <g transform="translate(375.22944 212.307571)scale(0.17 -0.17)">
     <defs>
      <path d="M 19.671875 64.796875 
L 19.671875 8.109375 
L 31.59375 8.109375 
Q 46.6875 8.109375 53.6875 14.9375 
Q 60.6875 21.78125 60.6875 36.53125 
Q 60.6875 51.171875 53.6875 57.984375 
Q 46.6875 64.796875 31.59375 64.796875 
z
M 9.8125 72.90625 
L 30.078125 72.90625 
Q 51.265625 72.90625 61.171875 64.09375 
Q 71.09375 55.28125 71.09375 36.53125 
Q 71.09375 17.671875 61.125 8.828125 
Q 51.171875 0 30.078125 0 
L 9.8125 0 
z
" id="DejaVuSans-68"/>
      <path d="M 9.8125 72.90625 
L 55.90625 72.90625 
L 55.90625 64.59375 
L 19.671875 64.59375 
L 19.671875 43.015625 
L 54.390625 43.015625 
L 54.390625 34.71875 
L 19.671875 34.71875 
L 19.671875 8.296875 
L 56.78125 8.296875 
L 56.78125 0 
L 9.8125 0 
z
" id="DejaVuSans-69"/>
     </defs>
     <use xlink:href="#DejaVuSans-68"/>
     <use x="77.001953" xlink:href="#DejaVuSans-69"/>
    </g>
   </g>
   <g id="text_15">
    <!-- BIPOP-CMA -->
    <g transform="translate(375.22944 126.352403)scale(0.17 -0.17)">
     <defs>
      <path d="M 19.671875 34.8125 
L 19.671875 8.109375 
L 35.5 8.109375 
Q 43.453125 8.109375 47.28125 11.40625 
Q 51.125 14.703125 51.125 21.484375 
Q 51.125 28.328125 47.28125 31.5625 
Q 43.453125 34.8125 35.5 34.8125 
z
M 19.671875 64.796875 
L 19.671875 42.828125 
L 34.28125 42.828125 
Q 41.5 42.828125 45.03125 45.53125 
Q 48.578125 48.25 48.578125 53.8125 
Q 48.578125 59.328125 45.03125 62.0625 
Q 41.5 64.796875 34.28125 64.796875 
z
M 9.8125 72.90625 
L 35.015625 72.90625 
Q 46.296875 72.90625 52.390625 68.21875 
Q 58.5 63.53125 58.5 54.890625 
Q 58.5 48.1875 55.375 44.234375 
Q 52.25 40.28125 46.1875 39.3125 
Q 53.46875 37.75 57.5 32.78125 
Q 61.53125 27.828125 61.53125 20.40625 
Q 61.53125 10.640625 54.890625 5.3125 
Q 48.25 0 35.984375 0 
L 9.8125 0 
z
" id="DejaVuSans-66"/>
      <path d="M 9.8125 72.90625 
L 19.671875 72.90625 
L 19.671875 0 
L 9.8125 0 
z
" id="DejaVuSans-73"/>
      <path d="M 64.40625 67.28125 
L 64.40625 56.890625 
Q 59.421875 61.53125 53.78125 63.8125 
Q 48.140625 66.109375 41.796875 66.109375 
Q 29.296875 66.109375 22.65625 58.46875 
Q 16.015625 50.828125 16.015625 36.375 
Q 16.015625 21.96875 22.65625 14.328125 
Q 29.296875 6.6875 41.796875 6.6875 
Q 48.140625 6.6875 53.78125 8.984375 
Q 59.421875 11.28125 64.40625 15.921875 
L 64.40625 5.609375 
Q 59.234375 2.09375 53.4375 0.328125 
Q 47.65625 -1.421875 41.21875 -1.421875 
Q 24.65625 -1.421875 15.125 8.703125 
Q 5.609375 18.84375 5.609375 36.375 
Q 5.609375 53.953125 15.125 64.078125 
Q 24.65625 74.21875 41.21875 74.21875 
Q 47.75 74.21875 53.53125 72.484375 
Q 59.328125 70.75 64.40625 67.28125 
z
" id="DejaVuSans-67"/>
      <path d="M 9.8125 72.90625 
L 24.515625 72.90625 
L 43.109375 23.296875 
L 61.8125 72.90625 
L 76.515625 72.90625 
L 76.515625 0 
L 66.890625 0 
L 66.890625 64.015625 
L 48.09375 14.015625 
L 38.1875 14.015625 
L 19.390625 64.015625 
L 19.390625 0 
L 9.8125 0 
z
" id="DejaVuSans-77"/>
      <path d="M 34.1875 63.1875 
L 20.796875 26.90625 
L 47.609375 26.90625 
z
M 28.609375 72.90625 
L 39.796875 72.90625 
L 67.578125 0 
L 57.328125 0 
L 50.6875 18.703125 
L 17.828125 18.703125 
L 11.1875 0 
L 0.78125 0 
z
" id="DejaVuSans-65"/>
     </defs>
     <use xlink:href="#DejaVuSans-66"/>
     <use x="68.603516" xlink:href="#DejaVuSans-73"/>
     <use x="98.095703" xlink:href="#DejaVuSans-80"/>
     <use x="158.398438" xlink:href="#DejaVuSans-79"/>
     <use x="237.109375" xlink:href="#DejaVuSans-80"/>
     <use x="295.162109" xlink:href="#DejaVuSans-45"/>
     <use x="331.246094" xlink:href="#DejaVuSans-67"/>
     <use x="401.070312" xlink:href="#DejaVuSans-77"/>
     <use x="487.349609" xlink:href="#DejaVuSans-65"/>
    </g>
   </g>
   <g id="text_16">
    <!-- best 2009 -->
    <g transform="translate(375.22944 40.397235)scale(0.17 -0.17)">
     <defs>
      <path d="M 48.6875 27.296875 
Q 48.6875 37.203125 44.609375 42.84375 
Q 40.53125 48.484375 33.40625 48.484375 
Q 26.265625 48.484375 22.1875 42.84375 
Q 18.109375 37.203125 18.109375 27.296875 
Q 18.109375 17.390625 22.1875 11.75 
Q 26.265625 6.109375 33.40625 6.109375 
Q 40.53125 6.109375 44.609375 11.75 
Q 48.6875 17.390625 48.6875 27.296875 
z
M 18.109375 46.390625 
Q 20.953125 51.265625 25.265625 53.625 
Q 29.59375 56 35.59375 56 
Q 45.5625 56 51.78125 48.09375 
Q 58.015625 40.1875 58.015625 27.296875 
Q 58.015625 14.40625 51.78125 6.484375 
Q 45.5625 -1.421875 35.59375 -1.421875 
Q 29.59375 -1.421875 25.265625 0.953125 
Q 20.953125 3.328125 18.109375 8.203125 
L 18.109375 0 
L 9.078125 0 
L 9.078125 75.984375 
L 18.109375 75.984375 
z
" id="DejaVuSans-98"/>
      <path d="M 10.984375 1.515625 
L 10.984375 10.5 
Q 14.703125 8.734375 18.5 7.8125 
Q 22.3125 6.890625 25.984375 6.890625 
Q 35.75 6.890625 40.890625 13.453125 
Q 46.046875 20.015625 46.78125 33.40625 
Q 43.953125 29.203125 39.59375 26.953125 
Q 35.25 24.703125 29.984375 24.703125 
Q 19.046875 24.703125 12.671875 31.3125 
Q 6.296875 37.9375 6.296875 49.421875 
Q 6.296875 60.640625 12.9375 67.421875 
Q 19.578125 74.21875 30.609375 74.21875 
Q 43.265625 74.21875 49.921875 64.515625 
Q 56.59375 54.828125 56.59375 36.375 
Q 56.59375 19.140625 48.40625 8.859375 
Q 40.234375 -1.421875 26.421875 -1.421875 
Q 22.703125 -1.421875 18.890625 -0.6875 
Q 15.09375 0.046875 10.984375 1.515625 
z
M 30.609375 32.421875 
Q 37.25 32.421875 41.125 36.953125 
Q 45.015625 41.5 45.015625 49.421875 
Q 45.015625 57.28125 41.125 61.84375 
Q 37.25 66.40625 30.609375 66.40625 
Q 23.96875 66.40625 20.09375 61.84375 
Q 16.21875 57.28125 16.21875 49.421875 
Q 16.21875 41.5 20.09375 36.953125 
Q 23.96875 32.421875 30.609375 32.421875 
z
" id="DejaVuSans-57"/>
     </defs>
     <use xlink:href="#DejaVuSans-98"/>
     <use x="63.476562" xlink:href="#DejaVuSans-101"/>
     <use x="125" xlink:href="#DejaVuSans-115"/>
     <use x="177.099609" xlink:href="#DejaVuSans-116"/>
     <use x="216.308594" xlink:href="#DejaVuSans-32"/>
     <use x="248.095703" xlink:href="#DejaVuSans-50"/>
     <use x="311.71875" xlink:href="#DejaVuSans-48"/>
     <use x="375.341797" xlink:href="#DejaVuSans-48"/>
     <use x="438.964844" xlink:href="#DejaVuSans-57"/>
    </g>
   </g>
   <g id="text_17">
    <!-- bbob f13, 5-D -->
    <g transform="translate(60.41088 38.111366)scale(0.102 -0.102)">
     <defs>
      <path d="M 40.578125 39.3125 
Q 47.65625 37.796875 51.625 33 
Q 55.609375 28.21875 55.609375 21.1875 
Q 55.609375 10.40625 48.1875 4.484375 
Q 40.765625 -1.421875 27.09375 -1.421875 
Q 22.515625 -1.421875 17.65625 -0.515625 
Q 12.796875 0.390625 7.625 2.203125 
L 7.625 11.71875 
Q 11.71875 9.328125 16.59375 8.109375 
Q 21.484375 6.890625 26.8125 6.890625 
Q 36.078125 6.890625 40.9375 10.546875 
Q 45.796875 14.203125 45.796875 21.1875 
Q 45.796875 27.640625 41.28125 31.265625 
Q 36.765625 34.90625 28.71875 34.90625 
L 20.21875 34.90625 
L 20.21875 43.015625 
L 29.109375 43.015625 
Q 36.375 43.015625 40.234375 45.921875 
Q 44.09375 48.828125 44.09375 54.296875 
Q 44.09375 59.90625 40.109375 62.90625 
Q 36.140625 65.921875 28.71875 65.921875 
Q 24.65625 65.921875 20.015625 65.03125 
Q 15.375 64.15625 9.8125 62.3125 
L 9.8125 71.09375 
Q 15.4375 72.65625 20.34375 73.4375 
Q 25.25 74.21875 29.59375 74.21875 
Q 40.828125 74.21875 47.359375 69.109375 
Q 53.90625 64.015625 53.90625 55.328125 
Q 53.90625 49.265625 50.4375 45.09375 
Q 46.96875 40.921875 40.578125 39.3125 
z
" id="DejaVuSans-51"/>
      <path d="M 10.796875 72.90625 
L 49.515625 72.90625 
L 49.515625 64.59375 
L 19.828125 64.59375 
L 19.828125 46.734375 
Q 21.96875 47.46875 24.109375 47.828125 
Q 26.265625 48.1875 28.421875 48.1875 
Q 40.625 48.1875 47.75 41.5 
Q 54.890625 34.8125 54.890625 23.390625 
Q 54.890625 11.625 47.5625 5.09375 
Q 40.234375 -1.421875 26.90625 -1.421875 
Q 22.3125 -1.421875 17.546875 -0.640625 
Q 12.796875 0.140625 7.71875 1.703125 
L 7.71875 11.625 
Q 12.109375 9.234375 16.796875 8.0625 
Q 21.484375 6.890625 26.703125 6.890625 
Q 35.15625 6.890625 40.078125 11.328125 
Q 45.015625 15.765625 45.015625 23.390625 
Q 45.015625 31 40.078125 35.4375 
Q 35.15625 39.890625 26.703125 39.890625 
Q 22.75 39.890625 18.8125 39.015625 
Q 14.890625 38.140625 10.796875 36.28125 
z
" id="DejaVuSans-53"/>
     </defs>
     <use xlink:href="#DejaVuSans-98"/>
     <use x="63.476562" xlink:href="#DejaVuSans-98"/>
     <use x="126.953125" xlink:href="#DejaVuSans-111"/>
     <use x="188.134766" xlink:href="#DejaVuSans-98"/>
     <use x="251.611328" xlink:href="#DejaVuSans-32"/>
     <use x="283.398438" xlink:href="#DejaVuSans-102"/>
     <use x="318.603516" xlink:href="#DejaVuSans-49"/>
     <use x="382.226562" xlink:href="#DejaVuSans-51"/>
     <use x="445.849609" xlink:href="#DejaVuSans-44"/>
     <use x="477.636719" xlink:href="#DejaVuSans-32"/>
     <use x="509.423828" xlink:href="#DejaVuSans-53"/>
     <use x="573.046875" xlink:href="#DejaVuSans-45"/>
     <use x="609.130859" xlink:href="#DejaVuSans-68"/>
    </g>
    <!-- 51 targets: 100..1e-08 -->
    <g transform="translate(60.41088 49.533135)scale(0.102 -0.102)">
     <defs>
      <path d="M 11.71875 12.40625 
L 22.015625 12.40625 
L 22.015625 0 
L 11.71875 0 
z
M 11.71875 51.703125 
L 22.015625 51.703125 
L 22.015625 39.3125 
L 11.71875 39.3125 
z
" id="DejaVuSans-58"/>
     </defs>
     <use xlink:href="#DejaVuSans-53"/>
     <use x="63.623047" xlink:href="#DejaVuSans-49"/>
     <use x="127.246094" xlink:href="#DejaVuSans-32"/>
     <use x="159.033203" xlink:href="#DejaVuSans-116"/>
     <use x="198.242188" xlink:href="#DejaVuSans-97"/>
     <use x="259.521484" xlink:href="#DejaVuSans-114"/>
     <use x="298.884766" xlink:href="#DejaVuSans-103"/>
     <use x="362.361328" xlink:href="#DejaVuSans-101"/>
     <use x="423.884766" xlink:href="#DejaVuSans-116"/>
     <use x="463.09375" xlink:href="#DejaVuSans-115"/>
     <use x="515.193359" xlink:href="#DejaVuSans-58"/>
     <use x="548.884766" xlink:href="#DejaVuSans-32"/>
     <use x="580.671875" xlink:href="#DejaVuSans-49"/>
     <use x="644.294922" xlink:href="#DejaVuSans-48"/>
     <use x="707.917969" xlink:href="#DejaVuSans-48"/>
     <use x="771.541016" xlink:href="#DejaVuSans-46"/>
     <use x="803.328125" xlink:href="#DejaVuSans-46"/>
     <use x="835.115234" xlink:href="#DejaVuSans-49"/>
     <use x="898.738281" xlink:href="#DejaVuSans-101"/>
     <use x="960.261719" xlink:href="#DejaVuSans-45"/>
     <use x="996.345703" xlink:href="#DejaVuSans-48"/>
     <use x="1059.96875" xlink:href="#DejaVuSans-56"/>
    </g>
    <!-- 15 instances -->
    <g transform="translate(60.41088 60.954904)scale(0.102 -0.102)">
     <use xlink:href="#DejaVuSans-49"/>
     <use x="63.623047" xlink:href="#DejaVuSans-53"/>
     <use x="127.246094" xlink:href="#DejaVuSans-32"/>
     <use x="159.033203" xlink:href="#DejaVuSans-105"/>
     <use x="186.816406" xlink:href="#DejaVuSans-110"/>
     <use x="250.195312" xlink:href="#DejaVuSans-115"/>
     <use x="302.294922" xlink:href="#DejaVuSans-116"/>
     <use x="341.503906" xlink:href="#DejaVuSans-97"/>
     <use x="402.783203" xlink:href="#DejaVuSans-110"/>
     <use x="466.162109" xlink:href="#DejaVuSans-99"/>
     <use x="521.142578" xlink:href="#DejaVuSans-101"/>
     <use x="582.666016" xlink:href="#DejaVuSans-115"/>
    </g>
   </g>
   <g id="text_18">
    <!-- v2.4 -->
    <g style="fill:#808080;" transform="translate(187.233062 294.151352)scale(0.1 -0.1)">
     <use xlink:href="#DejaVuSans-118"/>
     <use x="59.179688" xlink:href="#DejaVuSans-50"/>
     <use x="122.802734" xlink:href="#DejaVuSans-46"/>
     <use x="154.589844" xlink:href="#DejaVuSans-52"/>
    </g>
   </g>
   <g id="text_19">
    <!-- 13 Sharp ridge -->
    <g transform="translate(124.05025 21.648)scale(0.2 -0.2)">
     <defs>
      <path d="M 54.890625 33.015625 
L 54.890625 0 
L 45.90625 0 
L 45.90625 32.71875 
Q 45.90625 40.484375 42.875 44.328125 
Q 39.84375 48.1875 33.796875 48.1875 
Q 26.515625 48.1875 22.3125 43.546875 
Q 18.109375 38.921875 18.109375 30.90625 
L 18.109375 0 
L 9.078125 0 
L 9.078125 75.984375 
L 18.109375 75.984375 
L 18.109375 46.1875 
Q 21.34375 51.125 25.703125 53.5625 
Q 30.078125 56 35.796875 56 
Q 45.21875 56 50.046875 50.171875 
Q 54.890625 44.34375 54.890625 33.015625 
z
" id="DejaVuSans-104"/>
     </defs>
     <use xlink:href="#DejaVuSans-49"/>
     <use x="63.623047" xlink:href="#DejaVuSans-51"/>
     <use x="127.246094" xlink:href="#DejaVuSans-32"/>
     <use x="159.033203" xlink:href="#DejaVuSans-83"/>
     <use x="222.509766" xlink:href="#DejaVuSans-104"/>
     <use x="285.888672" xlink:href="#DejaVuSans-97"/>
     <use x="347.167969" xlink:href="#DejaVuSans-114"/>
     <use x="388.28125" xlink:href="#DejaVuSans-112"/>
     <use x="451.757812" xlink:href="#DejaVuSans-32"/>
     <use x="483.544922" xlink:href="#DejaVuSans-114"/>
     <use x="524.658203" xlink:href="#DejaVuSans-105"/>
     <use x="552.441406" xlink:href="#DejaVuSans-100"/>
     <use x="615.917969" xlink:href="#DejaVuSans-103"/>
     <use x="679.394531" xlink:href="#DejaVuSans-101"/>
    </g>
   </g>
  </g>
 </g>
 <defs>
  <clipPath id="p0bd08fff04">
   <rect height="271.296" width="281.088" x="57.6" y="27.648"/>
  </clipPath>
 </defs>
</svg>
