<?xml version="1.0" encoding="utf-8" standalone="no"?>
<!DOCTYPE svg PUBLIC "-//W3C//DTD SVG 1.1//EN"
  "http://www.w3.org/Graphics/SVG/1.1/DTD/svg11.dtd">
<!-- Created with matplotlib (https://matplotlib.org/) -->
<svg height="345.6pt" version="1.1" viewBox="0 0 460.8 345.6" width="460.8pt" xmlns="http://www.w3.org/2000/svg" xmlns:xlink="http://www.w3.org/1999/xlink">
 <metadata>
  <rdf:RDF xmlns:cc="http://creativecommons.org/ns#" xmlns:dc="http://purl.org/dc/elements/1.1/" xmlns:rdf="http://www.w3.org/1999/02/22-rdf-syntax-ns#">
   <cc:Work>
    <dc:type rdf:resource="http://purl.org/dc/dcmitype/StillImage"/>
    <dc:date>2021-05-01T17:07:47.173216</dc:date>
    <dc:format>image/svg+xml</dc:format>
    <dc:creator>
     <cc:Agent>
      <dc:title>Matplotlib v3.3.2, https://matplotlib.org/</dc:title>
     </cc:Agent>
    </dc:creator>
   </cc:Work>
  </rdf:RDF>
 </metadata>
 <defs>
  <style type="text/css">*{stroke-linecap:butt;stroke-linejoin:round;}</style>
 </defs>
 <g id="figure_1">
  <g id="patch_1">
   <path d="M 0 345.6 
L 460.8 345.6 
L 460.8 0 
L 0 0 
z
" style="fill:#ffffff;"/>
  </g>
  <g id="axes_1">
   <g id="patch_2">
    <path d="M 57.6 298.944 
L 338.688 298.944 
L 338.688 27.648 
L 57.6 27.648 
z
" style="fill:#ffffff;"/>
   </g>
   <g id="line2d_1">
    <path d="M 38.440992 298.944 
L 38.440992 225.207949 
L 115.077025 225.207949 
L 115.077025 219.941088 
L 120.254726 219.941088 
L 120.254726 209.407366 
L 121.785469 209.407366 
L 121.785469 204.140506 
L 125.23165 204.140506 
L 125.23165 198.873645 
L 162.517456 198.873645 
L 162.517456 193.606784 
L 192.244459 193.606784 
L 192.244459 188.339923 
L 193.683923 188.339923 
L 193.683923 183.073062 
L 193.695789 183.073062 
L 193.695789 177.806202 
L 193.700533 177.806202 
L 193.700533 172.539341 
L 193.719497 172.539341 
L 193.719497 167.27248 
L 193.733706 167.27248 
L 193.733706 162.005619 
L 193.745538 162.005619 
L 193.745538 151.471897 
L 193.750268 151.471897 
L 193.750268 146.205037 
L 193.762089 146.205037 
L 193.762089 135.671315 
L 193.766815 135.671315 
L 193.766815 130.404454 
L 193.790427 130.404454 
L 193.790427 125.137593 
L 193.80222 125.137593 
L 193.80222 114.603872 
L 193.809293 114.603872 
L 193.809293 109.337011 
L 193.814006 109.337011 
L 193.814006 104.07015 
L 193.825784 104.07015 
L 193.825784 98.803289 
L 193.844612 98.803289 
L 193.844612 93.536429 
L 193.868118 93.536429 
L 193.868118 88.269568 
L 193.872815 88.269568 
L 193.872815 83.002707 
L 193.879859 83.002707 
L 193.879859 77.735846 
L 193.891592 77.735846 
L 193.891592 67.202125 
L 193.908006 67.202125 
L 193.908006 56.668403 
L 193.91972 56.668403 
L 193.91972 51.401542 
L 193.961827 51.401542 
L 193.961827 46.134681 
L 193.968835 46.134681 
L 193.968835 40.867821 
L 193.978175 40.867821 
L 193.978175 35.60096 
L 194.003833 35.60096 
L 194.003833 30.334099 
L 338.688 30.334099 
" style="fill:none;stroke:#f5deb3;stroke-linecap:square;stroke-width:4;"/>
   </g>
   <g id="line2d_2">
    <defs>
     <path d="M -0 7.778175 
L 7.778175 0 
L 0 -7.778175 
L -7.778175 -0 
z
" id="mb4c7c53dc6" style="stroke:#f5deb3;stroke-linejoin:miter;stroke-width:1.5;"/>
    </defs>
    <g>
     <use style="fill:#f5deb3;stroke:#f5deb3;stroke-linejoin:miter;stroke-width:1.5;" x="121.785469" xlink:href="#mb4c7c53dc6" y="204.140506"/>
     <use style="fill:#f5deb3;stroke:#f5deb3;stroke-linejoin:miter;stroke-width:1.5;" x="193.745538" xlink:href="#mb4c7c53dc6" y="162.005619"/>
     <use style="fill:#f5deb3;stroke:#f5deb3;stroke-linejoin:miter;stroke-width:1.5;" x="193.908006" xlink:href="#mb4c7c53dc6" y="67.202125"/>
     <use style="fill:#f5deb3;stroke:#f5deb3;stroke-linejoin:miter;stroke-width:1.5;" x="194.003833" xlink:href="#mb4c7c53dc6" y="30.334099"/>
     <use style="fill:#f5deb3;stroke:#f5deb3;stroke-linejoin:miter;stroke-width:1.5;" x="194.003833" xlink:href="#mb4c7c53dc6" y="30.334099"/>
     <use style="fill:#f5deb3;stroke:#f5deb3;stroke-linejoin:miter;stroke-width:1.5;" x="338.688" xlink:href="#mb4c7c53dc6" y="30.334099"/>
    </g>
   </g>
   <g id="line2d_3">
    <path style="fill:none;stroke:#f5deb3;stroke-linecap:square;stroke-width:4;"/>
    <g/>
   </g>
   <g id="line2d_4">
    <path d="M 338.688 30.334099 
L 369.60768 35.706297 
" style="fill:none;stroke:#f5deb3;stroke-linecap:square;stroke-width:4;"/>
    <g>
     <use style="fill:#f5deb3;stroke:#f5deb3;stroke-linejoin:miter;stroke-width:1.5;" x="338.688" xlink:href="#mb4c7c53dc6" y="30.334099"/>
     <use style="fill:#f5deb3;stroke:#f5deb3;stroke-linejoin:miter;stroke-width:1.5;" x="369.60768" xlink:href="#mb4c7c53dc6" y="35.706297"/>
    </g>
   </g>
   <g id="matplotlib.axis_1">
    <g id="xtick_1">
     <g id="line2d_5">
      <path clip-path="url(#pfe6a54f662)" d="M 57.6 298.944 
L 57.6 27.648 
" style="fill:none;stroke:#b0b0b0;stroke-linecap:square;stroke-width:0.8;"/>
     </g>
     <g id="line2d_6">
      <defs>
       <path d="M 0 0 
L 0 3.5 
" id="mdd4bec8078" style="stroke:#000000;stroke-width:0.8;"/>
      </defs>
      <g>
       <use style="stroke:#000000;stroke-width:0.8;" x="57.6" xlink:href="#mdd4bec8078" y="298.944"/>
      </g>
     </g>
     <g id="text_1">
      <!-- 0 -->
      <g transform="translate(51.2375 321.140875)scale(0.2 -0.2)">
       <defs>
        <path d="M 31.78125 66.40625 
Q 24.171875 66.40625 20.328125 58.90625 
Q 16.5 51.421875 16.5 36.375 
Q 16.5 21.390625 20.328125 13.890625 
Q 24.171875 6.390625 31.78125 6.390625 
Q 39.453125 6.390625 43.28125 13.890625 
Q 47.125 21.390625 47.125 36.375 
Q 47.125 51.421875 43.28125 58.90625 
Q 39.453125 66.40625 31.78125 66.40625 
z
M 31.78125 74.21875 
Q 44.046875 74.21875 50.515625 64.515625 
Q 56.984375 54.828125 56.984375 36.375 
Q 56.984375 17.96875 50.515625 8.265625 
Q 44.046875 -1.421875 31.78125 -1.421875 
Q 19.53125 -1.421875 13.0625 8.265625 
Q 6.59375 17.96875 6.59375 36.375 
Q 6.59375 54.828125 13.0625 64.515625 
Q 19.53125 74.21875 31.78125 74.21875 
z
" id="DejaVuSans-48"/>
       </defs>
       <use xlink:href="#DejaVuSans-48"/>
      </g>
     </g>
    </g>
    <g id="xtick_2">
     <g id="line2d_7">
      <path clip-path="url(#pfe6a54f662)" d="M 137.910857 298.944 
L 137.910857 27.648 
" style="fill:none;stroke:#b0b0b0;stroke-linecap:square;stroke-width:0.8;"/>
     </g>
     <g id="line2d_8">
      <g>
       <use style="stroke:#000000;stroke-width:0.8;" x="137.910857" xlink:href="#mdd4bec8078" y="298.944"/>
      </g>
     </g>
     <g id="text_2">
      <!-- 2 -->
      <g transform="translate(131.548357 321.140875)scale(0.2 -0.2)">
       <defs>
        <path d="M 19.1875 8.296875 
L 53.609375 8.296875 
L 53.609375 0 
L 7.328125 0 
L 7.328125 8.296875 
Q 12.9375 14.109375 22.625 23.890625 
Q 32.328125 33.6875 34.8125 36.53125 
Q 39.546875 41.84375 41.421875 45.53125 
Q 43.3125 49.21875 43.3125 52.78125 
Q 43.3125 58.59375 39.234375 62.25 
Q 35.15625 65.921875 28.609375 65.921875 
Q 23.96875 65.921875 18.8125 64.3125 
Q 13.671875 62.703125 7.8125 59.421875 
L 7.8125 69.390625 
Q 13.765625 71.78125 18.9375 73 
Q 24.125 74.21875 28.421875 74.21875 
Q 39.75 74.21875 46.484375 68.546875 
Q 53.21875 62.890625 53.21875 53.421875 
Q 53.21875 48.921875 51.53125 44.890625 
Q 49.859375 40.875 45.40625 35.40625 
Q 44.1875 33.984375 37.640625 27.21875 
Q 31.109375 20.453125 19.1875 8.296875 
z
" id="DejaVuSans-50"/>
       </defs>
       <use xlink:href="#DejaVuSans-50"/>
      </g>
     </g>
    </g>
    <g id="xtick_3">
     <g id="line2d_9">
      <path clip-path="url(#pfe6a54f662)" d="M 218.221714 298.944 
L 218.221714 27.648 
" style="fill:none;stroke:#b0b0b0;stroke-linecap:square;stroke-width:0.8;"/>
     </g>
     <g id="line2d_10">
      <g>
       <use style="stroke:#000000;stroke-width:0.8;" x="218.221714" xlink:href="#mdd4bec8078" y="298.944"/>
      </g>
     </g>
     <g id="text_3">
      <!-- 4 -->
      <g transform="translate(211.859214 321.140875)scale(0.2 -0.2)">
       <defs>
        <path d="M 37.796875 64.3125 
L 12.890625 25.390625 
L 37.796875 25.390625 
z
M 35.203125 72.90625 
L 47.609375 72.90625 
L 47.609375 25.390625 
L 58.015625 25.390625 
L 58.015625 17.1875 
L 47.609375 17.1875 
L 47.609375 0 
L 37.796875 0 
L 37.796875 17.1875 
L 4.890625 17.1875 
L 4.890625 26.703125 
z
" id="DejaVuSans-52"/>
       </defs>
       <use xlink:href="#DejaVuSans-52"/>
      </g>
     </g>
    </g>
    <g id="xtick_4">
     <g id="line2d_11">
      <path clip-path="url(#pfe6a54f662)" d="M 298.532571 298.944 
L 298.532571 27.648 
" style="fill:none;stroke:#b0b0b0;stroke-linecap:square;stroke-width:0.8;"/>
     </g>
     <g id="line2d_12">
      <g>
       <use style="stroke:#000000;stroke-width:0.8;" x="298.532571" xlink:href="#mdd4bec8078" y="298.944"/>
      </g>
     </g>
     <g id="text_4">
      <!-- 6 -->
      <g transform="translate(292.170071 321.140875)scale(0.2 -0.2)">
       <defs>
        <path d="M 33.015625 40.375 
Q 26.375 40.375 22.484375 35.828125 
Q 18.609375 31.296875 18.609375 23.390625 
Q 18.609375 15.53125 22.484375 10.953125 
Q 26.375 6.390625 33.015625 6.390625 
Q 39.65625 6.390625 43.53125 10.953125 
Q 47.40625 15.53125 47.40625 23.390625 
Q 47.40625 31.296875 43.53125 35.828125 
Q 39.65625 40.375 33.015625 40.375 
z
M 52.59375 71.296875 
L 52.59375 62.3125 
Q 48.875 64.0625 45.09375 64.984375 
Q 41.3125 65.921875 37.59375 65.921875 
Q 27.828125 65.921875 22.671875 59.328125 
Q 17.53125 52.734375 16.796875 39.40625 
Q 19.671875 43.65625 24.015625 45.921875 
Q 28.375 48.1875 33.59375 48.1875 
Q 44.578125 48.1875 50.953125 41.515625 
Q 57.328125 34.859375 57.328125 23.390625 
Q 57.328125 12.15625 50.6875 5.359375 
Q 44.046875 -1.421875 33.015625 -1.421875 
Q 20.359375 -1.421875 13.671875 8.265625 
Q 6.984375 17.96875 6.984375 36.375 
Q 6.984375 53.65625 15.1875 63.9375 
Q 23.390625 74.21875 37.203125 74.21875 
Q 40.921875 74.21875 44.703125 73.484375 
Q 48.484375 72.75 52.59375 71.296875 
z
" id="DejaVuSans-54"/>
       </defs>
       <use xlink:href="#DejaVuSans-54"/>
      </g>
     </g>
    </g>
    <g id="xtick_5">
     <g id="line2d_13">
      <path clip-path="url(#pfe6a54f662)" d="M 97.755429 298.944 
L 97.755429 27.648 
" style="fill:none;stroke:#b0b0b0;stroke-linecap:square;stroke-width:0.8;"/>
     </g>
     <g id="line2d_14">
      <defs>
       <path d="M 0 0 
L 0 2 
" id="mdb93ab569d" style="stroke:#000000;stroke-width:0.6;"/>
      </defs>
      <g>
       <use style="stroke:#000000;stroke-width:0.6;" x="97.755429" xlink:href="#mdb93ab569d" y="298.944"/>
      </g>
     </g>
    </g>
    <g id="xtick_6">
     <g id="line2d_15">
      <path clip-path="url(#pfe6a54f662)" d="M 178.066286 298.944 
L 178.066286 27.648 
" style="fill:none;stroke:#b0b0b0;stroke-linecap:square;stroke-width:0.8;"/>
     </g>
     <g id="line2d_16">
      <g>
       <use style="stroke:#000000;stroke-width:0.6;" x="178.066286" xlink:href="#mdb93ab569d" y="298.944"/>
      </g>
     </g>
    </g>
    <g id="xtick_7">
     <g id="line2d_17">
      <path clip-path="url(#pfe6a54f662)" d="M 258.377143 298.944 
L 258.377143 27.648 
" style="fill:none;stroke:#b0b0b0;stroke-linecap:square;stroke-width:0.8;"/>
     </g>
     <g id="line2d_18">
      <g>
       <use style="stroke:#000000;stroke-width:0.6;" x="258.377143" xlink:href="#mdb93ab569d" y="298.944"/>
      </g>
     </g>
    </g>
    <g id="xtick_8">
     <g id="line2d_19">
      <path clip-path="url(#pfe6a54f662)" d="M 338.688 298.944 
L 338.688 27.648 
" style="fill:none;stroke:#b0b0b0;stroke-linecap:square;stroke-width:0.8;"/>
     </g>
     <g id="line2d_20">
      <g>
       <use style="stroke:#000000;stroke-width:0.6;" x="338.688" xlink:href="#mdb93ab569d" y="298.944"/>
      </g>
     </g>
    </g>
    <g id="text_5">
     <!-- log10(# f-evals / dimension) -->
     <g transform="translate(77.764078 342.217594)scale(0.17 -0.17)">
      <defs>
       <path d="M 9.421875 75.984375 
L 18.40625 75.984375 
L 18.40625 0 
L 9.421875 0 
z
" id="DejaVuSans-108"/>
       <path d="M 30.609375 48.390625 
Q 23.390625 48.390625 19.1875 42.75 
Q 14.984375 37.109375 14.984375 27.296875 
Q 14.984375 17.484375 19.15625 11.84375 
Q 23.34375 6.203125 30.609375 6.203125 
Q 37.796875 6.203125 41.984375 11.859375 
Q 46.1875 17.53125 46.1875 27.296875 
Q 46.1875 37.015625 41.984375 42.703125 
Q 37.796875 48.390625 30.609375 48.390625 
z
M 30.609375 56 
Q 42.328125 56 49.015625 48.375 
Q 55.71875 40.765625 55.71875 27.296875 
Q 55.71875 13.875 49.015625 6.21875 
Q 42.328125 -1.421875 30.609375 -1.421875 
Q 18.84375 -1.421875 12.171875 6.21875 
Q 5.515625 13.875 5.515625 27.296875 
Q 5.515625 40.765625 12.171875 48.375 
Q 18.84375 56 30.609375 56 
z
" id="DejaVuSans-111"/>
       <path d="M 45.40625 27.984375 
Q 45.40625 37.75 41.375 43.109375 
Q 37.359375 48.484375 30.078125 48.484375 
Q 22.859375 48.484375 18.828125 43.109375 
Q 14.796875 37.75 14.796875 27.984375 
Q 14.796875 18.265625 18.828125 12.890625 
Q 22.859375 7.515625 30.078125 7.515625 
Q 37.359375 7.515625 41.375 12.890625 
Q 45.40625 18.265625 45.40625 27.984375 
z
M 54.390625 6.78125 
Q 54.390625 -7.171875 48.1875 -13.984375 
Q 42 -20.796875 29.203125 -20.796875 
Q 24.46875 -20.796875 20.265625 -20.09375 
Q 16.0625 -19.390625 12.109375 -17.921875 
L 12.109375 -9.1875 
Q 16.0625 -11.328125 19.921875 -12.34375 
Q 23.78125 -13.375 27.78125 -13.375 
Q 36.625 -13.375 41.015625 -8.765625 
Q 45.40625 -4.15625 45.40625 5.171875 
L 45.40625 9.625 
Q 42.625 4.78125 38.28125 2.390625 
Q 33.9375 0 27.875 0 
Q 17.828125 0 11.671875 7.65625 
Q 5.515625 15.328125 5.515625 27.984375 
Q 5.515625 40.671875 11.671875 48.328125 
Q 17.828125 56 27.875 56 
Q 33.9375 56 38.28125 53.609375 
Q 42.625 51.21875 45.40625 46.390625 
L 45.40625 54.6875 
L 54.390625 54.6875 
z
" id="DejaVuSans-103"/>
       <path d="M 12.40625 8.296875 
L 28.515625 8.296875 
L 28.515625 63.921875 
L 10.984375 60.40625 
L 10.984375 69.390625 
L 28.421875 72.90625 
L 38.28125 72.90625 
L 38.28125 8.296875 
L 54.390625 8.296875 
L 54.390625 0 
L 12.40625 0 
z
" id="DejaVuSans-49"/>
       <path d="M 31 75.875 
Q 24.46875 64.65625 21.28125 53.65625 
Q 18.109375 42.671875 18.109375 31.390625 
Q 18.109375 20.125 21.3125 9.0625 
Q 24.515625 -2 31 -13.1875 
L 23.1875 -13.1875 
Q 15.875 -1.703125 12.234375 9.375 
Q 8.59375 20.453125 8.59375 31.390625 
Q 8.59375 42.28125 12.203125 53.3125 
Q 15.828125 64.359375 23.1875 75.875 
z
" id="DejaVuSans-40"/>
       <path d="M 51.125 44 
L 36.921875 44 
L 32.8125 27.6875 
L 47.125 27.6875 
z
M 43.796875 71.78125 
L 38.71875 51.515625 
L 52.984375 51.515625 
L 58.109375 71.78125 
L 65.921875 71.78125 
L 60.890625 51.515625 
L 76.125 51.515625 
L 76.125 44 
L 58.984375 44 
L 54.984375 27.6875 
L 70.515625 27.6875 
L 70.515625 20.21875 
L 53.078125 20.21875 
L 48 0 
L 40.1875 0 
L 45.21875 20.21875 
L 30.90625 20.21875 
L 25.875 0 
L 18.015625 0 
L 23.09375 20.21875 
L 7.71875 20.21875 
L 7.71875 27.6875 
L 24.90625 27.6875 
L 29 44 
L 13.28125 44 
L 13.28125 51.515625 
L 30.90625 51.515625 
L 35.890625 71.78125 
z
" id="DejaVuSans-35"/>
       <path id="DejaVuSans-32"/>
       <path d="M 37.109375 75.984375 
L 37.109375 68.5 
L 28.515625 68.5 
Q 23.6875 68.5 21.796875 66.546875 
Q 19.921875 64.59375 19.921875 59.515625 
L 19.921875 54.6875 
L 34.71875 54.6875 
L 34.71875 47.703125 
L 19.921875 47.703125 
L 19.921875 0 
L 10.890625 0 
L 10.890625 47.703125 
L 2.296875 47.703125 
L 2.296875 54.6875 
L 10.890625 54.6875 
L 10.890625 58.5 
Q 10.890625 67.625 15.140625 71.796875 
Q 19.390625 75.984375 28.609375 75.984375 
z
" id="DejaVuSans-102"/>
       <path d="M 4.890625 31.390625 
L 31.203125 31.390625 
L 31.203125 23.390625 
L 4.890625 23.390625 
z
" id="DejaVuSans-45"/>
       <path d="M 56.203125 29.59375 
L 56.203125 25.203125 
L 14.890625 25.203125 
Q 15.484375 15.921875 20.484375 11.0625 
Q 25.484375 6.203125 34.421875 6.203125 
Q 39.59375 6.203125 44.453125 7.46875 
Q 49.3125 8.734375 54.109375 11.28125 
L 54.109375 2.78125 
Q 49.265625 0.734375 44.1875 -0.34375 
Q 39.109375 -1.421875 33.890625 -1.421875 
Q 20.796875 -1.421875 13.15625 6.1875 
Q 5.515625 13.8125 5.515625 26.8125 
Q 5.515625 40.234375 12.765625 48.109375 
Q 20.015625 56 32.328125 56 
Q 43.359375 56 49.78125 48.890625 
Q 56.203125 41.796875 56.203125 29.59375 
z
M 47.21875 32.234375 
Q 47.125 39.59375 43.09375 43.984375 
Q 39.0625 48.390625 32.421875 48.390625 
Q 24.90625 48.390625 20.390625 44.140625 
Q 15.875 39.890625 15.1875 32.171875 
z
" id="DejaVuSans-101"/>
       <path d="M 2.984375 54.6875 
L 12.5 54.6875 
L 29.59375 8.796875 
L 46.6875 54.6875 
L 56.203125 54.6875 
L 35.6875 0 
L 23.484375 0 
z
" id="DejaVuSans-118"/>
       <path d="M 34.28125 27.484375 
Q 23.390625 27.484375 19.1875 25 
Q 14.984375 22.515625 14.984375 16.5 
Q 14.984375 11.71875 18.140625 8.90625 
Q 21.296875 6.109375 26.703125 6.109375 
Q 34.1875 6.109375 38.703125 11.40625 
Q 43.21875 16.703125 43.21875 25.484375 
L 43.21875 27.484375 
z
M 52.203125 31.203125 
L 52.203125 0 
L 43.21875 0 
L 43.21875 8.296875 
Q 40.140625 3.328125 35.546875 0.953125 
Q 30.953125 -1.421875 24.3125 -1.421875 
Q 15.921875 -1.421875 10.953125 3.296875 
Q 6 8.015625 6 15.921875 
Q 6 25.140625 12.171875 29.828125 
Q 18.359375 34.515625 30.609375 34.515625 
L 43.21875 34.515625 
L 43.21875 35.40625 
Q 43.21875 41.609375 39.140625 45 
Q 35.0625 48.390625 27.6875 48.390625 
Q 23 48.390625 18.546875 47.265625 
Q 14.109375 46.140625 10.015625 43.890625 
L 10.015625 52.203125 
Q 14.9375 54.109375 19.578125 55.046875 
Q 24.21875 56 28.609375 56 
Q 40.484375 56 46.34375 49.84375 
Q 52.203125 43.703125 52.203125 31.203125 
z
" id="DejaVuSans-97"/>
       <path d="M 44.28125 53.078125 
L 44.28125 44.578125 
Q 40.484375 46.53125 36.375 47.5 
Q 32.28125 48.484375 27.875 48.484375 
Q 21.1875 48.484375 17.84375 46.4375 
Q 14.5 44.390625 14.5 40.28125 
Q 14.5 37.15625 16.890625 35.375 
Q 19.28125 33.59375 26.515625 31.984375 
L 29.59375 31.296875 
Q 39.15625 29.25 43.1875 25.515625 
Q 47.21875 21.78125 47.21875 15.09375 
Q 47.21875 7.46875 41.1875 3.015625 
Q 35.15625 -1.421875 24.609375 -1.421875 
Q 20.21875 -1.421875 15.453125 -0.5625 
Q 10.6875 0.296875 5.421875 2 
L 5.421875 11.28125 
Q 10.40625 8.6875 15.234375 7.390625 
Q 20.0625 6.109375 24.8125 6.109375 
Q 31.15625 6.109375 34.5625 8.28125 
Q 37.984375 10.453125 37.984375 14.40625 
Q 37.984375 18.0625 35.515625 20.015625 
Q 33.0625 21.96875 24.703125 23.78125 
L 21.578125 24.515625 
Q 13.234375 26.265625 9.515625 29.90625 
Q 5.8125 33.546875 5.8125 39.890625 
Q 5.8125 47.609375 11.28125 51.796875 
Q 16.75 56 26.8125 56 
Q 31.78125 56 36.171875 55.265625 
Q 40.578125 54.546875 44.28125 53.078125 
z
" id="DejaVuSans-115"/>
       <path d="M 25.390625 72.90625 
L 33.6875 72.90625 
L 8.296875 -9.28125 
L 0 -9.28125 
z
" id="DejaVuSans-47"/>
       <path d="M 45.40625 46.390625 
L 45.40625 75.984375 
L 54.390625 75.984375 
L 54.390625 0 
L 45.40625 0 
L 45.40625 8.203125 
Q 42.578125 3.328125 38.25 0.953125 
Q 33.9375 -1.421875 27.875 -1.421875 
Q 17.96875 -1.421875 11.734375 6.484375 
Q 5.515625 14.40625 5.515625 27.296875 
Q 5.515625 40.1875 11.734375 48.09375 
Q 17.96875 56 27.875 56 
Q 33.9375 56 38.25 53.625 
Q 42.578125 51.265625 45.40625 46.390625 
z
M 14.796875 27.296875 
Q 14.796875 17.390625 18.875 11.75 
Q 22.953125 6.109375 30.078125 6.109375 
Q 37.203125 6.109375 41.296875 11.75 
Q 45.40625 17.390625 45.40625 27.296875 
Q 45.40625 37.203125 41.296875 42.84375 
Q 37.203125 48.484375 30.078125 48.484375 
Q 22.953125 48.484375 18.875 42.84375 
Q 14.796875 37.203125 14.796875 27.296875 
z
" id="DejaVuSans-100"/>
       <path d="M 9.421875 54.6875 
L 18.40625 54.6875 
L 18.40625 0 
L 9.421875 0 
z
M 9.421875 75.984375 
L 18.40625 75.984375 
L 18.40625 64.59375 
L 9.421875 64.59375 
z
" id="DejaVuSans-105"/>
       <path d="M 52 44.1875 
Q 55.375 50.25 60.0625 53.125 
Q 64.75 56 71.09375 56 
Q 79.640625 56 84.28125 50.015625 
Q 88.921875 44.046875 88.921875 33.015625 
L 88.921875 0 
L 79.890625 0 
L 79.890625 32.71875 
Q 79.890625 40.578125 77.09375 44.375 
Q 74.3125 48.1875 68.609375 48.1875 
Q 61.625 48.1875 57.5625 43.546875 
Q 53.515625 38.921875 53.515625 30.90625 
L 53.515625 0 
L 44.484375 0 
L 44.484375 32.71875 
Q 44.484375 40.625 41.703125 44.40625 
Q 38.921875 48.1875 33.109375 48.1875 
Q 26.21875 48.1875 22.15625 43.53125 
Q 18.109375 38.875 18.109375 30.90625 
L 18.109375 0 
L 9.078125 0 
L 9.078125 54.6875 
L 18.109375 54.6875 
L 18.109375 46.1875 
Q 21.1875 51.21875 25.484375 53.609375 
Q 29.78125 56 35.6875 56 
Q 41.65625 56 45.828125 52.96875 
Q 50 49.953125 52 44.1875 
z
" id="DejaVuSans-109"/>
       <path d="M 54.890625 33.015625 
L 54.890625 0 
L 45.90625 0 
L 45.90625 32.71875 
Q 45.90625 40.484375 42.875 44.328125 
Q 39.84375 48.1875 33.796875 48.1875 
Q 26.515625 48.1875 22.3125 43.546875 
Q 18.109375 38.921875 18.109375 30.90625 
L 18.109375 0 
L 9.078125 0 
L 9.078125 54.6875 
L 18.109375 54.6875 
L 18.109375 46.1875 
Q 21.34375 51.125 25.703125 53.5625 
Q 30.078125 56 35.796875 56 
Q 45.21875 56 50.046875 50.171875 
Q 54.890625 44.34375 54.890625 33.015625 
z
" id="DejaVuSans-110"/>
       <path d="M 8.015625 75.875 
L 15.828125 75.875 
Q 23.140625 64.359375 26.78125 53.3125 
Q 30.421875 42.28125 30.421875 31.390625 
Q 30.421875 20.453125 26.78125 9.375 
Q 23.140625 -1.703125 15.828125 -13.1875 
L 8.015625 -13.1875 
Q 14.5 -2 17.703125 9.0625 
Q 20.90625 20.125 20.90625 31.390625 
Q 20.90625 42.671875 17.703125 53.65625 
Q 14.5 64.65625 8.015625 75.875 
z
" id="DejaVuSans-41"/>
      </defs>
      <use xlink:href="#DejaVuSans-108"/>
      <use x="27.783203" xlink:href="#DejaVuSans-111"/>
      <use x="88.964844" xlink:href="#DejaVuSans-103"/>
      <use x="152.441406" xlink:href="#DejaVuSans-49"/>
      <use x="216.064453" xlink:href="#DejaVuSans-48"/>
      <use x="279.6875" xlink:href="#DejaVuSans-40"/>
      <use x="318.701172" xlink:href="#DejaVuSans-35"/>
      <use x="402.490234" xlink:href="#DejaVuSans-32"/>
      <use x="434.277344" xlink:href="#DejaVuSans-102"/>
      <use x="463.982422" xlink:href="#DejaVuSans-45"/>
      <use x="500.066406" xlink:href="#DejaVuSans-101"/>
      <use x="561.589844" xlink:href="#DejaVuSans-118"/>
      <use x="620.769531" xlink:href="#DejaVuSans-97"/>
      <use x="682.048828" xlink:href="#DejaVuSans-108"/>
      <use x="709.832031" xlink:href="#DejaVuSans-115"/>
      <use x="761.931641" xlink:href="#DejaVuSans-32"/>
      <use x="793.71875" xlink:href="#DejaVuSans-47"/>
      <use x="827.410156" xlink:href="#DejaVuSans-32"/>
      <use x="859.197266" xlink:href="#DejaVuSans-100"/>
      <use x="922.673828" xlink:href="#DejaVuSans-105"/>
      <use x="950.457031" xlink:href="#DejaVuSans-109"/>
      <use x="1047.869141" xlink:href="#DejaVuSans-101"/>
      <use x="1109.392578" xlink:href="#DejaVuSans-110"/>
      <use x="1172.771484" xlink:href="#DejaVuSans-115"/>
      <use x="1224.871094" xlink:href="#DejaVuSans-105"/>
      <use x="1252.654297" xlink:href="#DejaVuSans-111"/>
      <use x="1313.835938" xlink:href="#DejaVuSans-110"/>
      <use x="1377.214844" xlink:href="#DejaVuSans-41"/>
     </g>
    </g>
   </g>
   <g id="matplotlib.axis_2">
    <g id="ytick_1">
     <g id="line2d_21">
      <path clip-path="url(#pfe6a54f662)" d="M 57.6 298.944 
L 338.688 298.944 
" style="fill:none;stroke:#b0b0b0;stroke-linecap:square;stroke-width:0.8;"/>
     </g>
     <g id="line2d_22">
      <defs>
       <path d="M 0 0 
L -3.5 0 
" id="mc0463f2da7" style="stroke:#000000;stroke-width:0.8;"/>
      </defs>
      <g>
       <use style="stroke:#000000;stroke-width:0.8;" x="57.6" xlink:href="#mc0463f2da7" y="298.944"/>
      </g>
     </g>
     <g id="text_6">
      <!-- 0.0 -->
      <g transform="translate(25.155 305.02275)scale(0.16 -0.16)">
       <defs>
        <path d="M 10.6875 12.40625 
L 21 12.40625 
L 21 0 
L 10.6875 0 
z
" id="DejaVuSans-46"/>
       </defs>
       <use xlink:href="#DejaVuSans-48"/>
       <use x="63.623047" xlink:href="#DejaVuSans-46"/>
       <use x="95.410156" xlink:href="#DejaVuSans-48"/>
      </g>
     </g>
    </g>
    <g id="ytick_2">
     <g id="line2d_23">
      <path clip-path="url(#pfe6a54f662)" d="M 57.6 245.22202 
L 338.688 245.22202 
" style="fill:none;stroke:#b0b0b0;stroke-linecap:square;stroke-width:0.8;"/>
     </g>
     <g id="line2d_24">
      <g>
       <use style="stroke:#000000;stroke-width:0.8;" x="57.6" xlink:href="#mc0463f2da7" y="245.22202"/>
      </g>
     </g>
     <g id="text_7">
      <!-- 0.2 -->
      <g transform="translate(25.155 251.30077)scale(0.16 -0.16)">
       <use xlink:href="#DejaVuSans-48"/>
       <use x="63.623047" xlink:href="#DejaVuSans-46"/>
       <use x="95.410156" xlink:href="#DejaVuSans-50"/>
      </g>
     </g>
    </g>
    <g id="ytick_3">
     <g id="line2d_25">
      <path clip-path="url(#pfe6a54f662)" d="M 57.6 191.50004 
L 338.688 191.50004 
" style="fill:none;stroke:#b0b0b0;stroke-linecap:square;stroke-width:0.8;"/>
     </g>
     <g id="line2d_26">
      <g>
       <use style="stroke:#000000;stroke-width:0.8;" x="57.6" xlink:href="#mc0463f2da7" y="191.50004"/>
      </g>
     </g>
     <g id="text_8">
      <!-- 0.4 -->
      <g transform="translate(25.155 197.57879)scale(0.16 -0.16)">
       <use xlink:href="#DejaVuSans-48"/>
       <use x="63.623047" xlink:href="#DejaVuSans-46"/>
       <use x="95.410156" xlink:href="#DejaVuSans-52"/>
      </g>
     </g>
    </g>
    <g id="ytick_4">
     <g id="line2d_27">
      <path clip-path="url(#pfe6a54f662)" d="M 57.6 137.778059 
L 338.688 137.778059 
" style="fill:none;stroke:#b0b0b0;stroke-linecap:square;stroke-width:0.8;"/>
     </g>
     <g id="line2d_28">
      <g>
       <use style="stroke:#000000;stroke-width:0.8;" x="57.6" xlink:href="#mc0463f2da7" y="137.778059"/>
      </g>
     </g>
     <g id="text_9">
      <!-- 0.6 -->
      <g transform="translate(25.155 143.856809)scale(0.16 -0.16)">
       <use xlink:href="#DejaVuSans-48"/>
       <use x="63.623047" xlink:href="#DejaVuSans-46"/>
       <use x="95.410156" xlink:href="#DejaVuSans-54"/>
      </g>
     </g>
    </g>
    <g id="ytick_5">
     <g id="line2d_29">
      <path clip-path="url(#pfe6a54f662)" d="M 57.6 84.056079 
L 338.688 84.056079 
" style="fill:none;stroke:#b0b0b0;stroke-linecap:square;stroke-width:0.8;"/>
     </g>
     <g id="line2d_30">
      <g>
       <use style="stroke:#000000;stroke-width:0.8;" x="57.6" xlink:href="#mc0463f2da7" y="84.056079"/>
      </g>
     </g>
     <g id="text_10">
      <!-- 0.8 -->
      <g transform="translate(25.155 90.134829)scale(0.16 -0.16)">
       <defs>
        <path d="M 31.78125 34.625 
Q 24.75 34.625 20.71875 30.859375 
Q 16.703125 27.09375 16.703125 20.515625 
Q 16.703125 13.921875 20.71875 10.15625 
Q 24.75 6.390625 31.78125 6.390625 
Q 38.8125 6.390625 42.859375 10.171875 
Q 46.921875 13.96875 46.921875 20.515625 
Q 46.921875 27.09375 42.890625 30.859375 
Q 38.875 34.625 31.78125 34.625 
z
M 21.921875 38.8125 
Q 15.578125 40.375 12.03125 44.71875 
Q 8.5 49.078125 8.5 55.328125 
Q 8.5 64.0625 14.71875 69.140625 
Q 20.953125 74.21875 31.78125 74.21875 
Q 42.671875 74.21875 48.875 69.140625 
Q 55.078125 64.0625 55.078125 55.328125 
Q 55.078125 49.078125 51.53125 44.71875 
Q 48 40.375 41.703125 38.8125 
Q 48.828125 37.15625 52.796875 32.3125 
Q 56.78125 27.484375 56.78125 20.515625 
Q 56.78125 9.90625 50.3125 4.234375 
Q 43.84375 -1.421875 31.78125 -1.421875 
Q 19.734375 -1.421875 13.25 4.234375 
Q 6.78125 9.90625 6.78125 20.515625 
Q 6.78125 27.484375 10.78125 32.3125 
Q 14.796875 37.15625 21.921875 38.8125 
z
M 18.3125 54.390625 
Q 18.3125 48.734375 21.84375 45.5625 
Q 25.390625 42.390625 31.78125 42.390625 
Q 38.140625 42.390625 41.71875 45.5625 
Q 45.3125 48.734375 45.3125 54.390625 
Q 45.3125 60.0625 41.71875 63.234375 
Q 38.140625 66.40625 31.78125 66.40625 
Q 25.390625 66.40625 21.84375 63.234375 
Q 18.3125 60.0625 18.3125 54.390625 
z
" id="DejaVuSans-56"/>
       </defs>
       <use xlink:href="#DejaVuSans-48"/>
       <use x="63.623047" xlink:href="#DejaVuSans-46"/>
       <use x="95.410156" xlink:href="#DejaVuSans-56"/>
      </g>
     </g>
    </g>
    <g id="ytick_6">
     <g id="line2d_31">
      <path clip-path="url(#pfe6a54f662)" d="M 57.6 30.334099 
L 338.688 30.334099 
" style="fill:none;stroke:#b0b0b0;stroke-linecap:square;stroke-width:0.8;"/>
     </g>
     <g id="line2d_32">
      <g>
       <use style="stroke:#000000;stroke-width:0.8;" x="57.6" xlink:href="#mc0463f2da7" y="30.334099"/>
      </g>
     </g>
     <g id="text_11">
      <!-- 1.0 -->
      <g transform="translate(25.155 36.412849)scale(0.16 -0.16)">
       <use xlink:href="#DejaVuSans-49"/>
       <use x="63.623047" xlink:href="#DejaVuSans-46"/>
       <use x="95.410156" xlink:href="#DejaVuSans-48"/>
      </g>
     </g>
    </g>
    <g id="text_12">
     <!-- Fraction of function,target pairs -->
     <g transform="translate(17.619531 297.681)rotate(-90)scale(0.17 -0.17)">
      <defs>
       <path d="M 9.8125 72.90625 
L 51.703125 72.90625 
L 51.703125 64.59375 
L 19.671875 64.59375 
L 19.671875 43.109375 
L 48.578125 43.109375 
L 48.578125 34.8125 
L 19.671875 34.8125 
L 19.671875 0 
L 9.8125 0 
z
" id="DejaVuSans-70"/>
       <path d="M 41.109375 46.296875 
Q 39.59375 47.171875 37.8125 47.578125 
Q 36.03125 48 33.890625 48 
Q 26.265625 48 22.1875 43.046875 
Q 18.109375 38.09375 18.109375 28.8125 
L 18.109375 0 
L 9.078125 0 
L 9.078125 54.6875 
L 18.109375 54.6875 
L 18.109375 46.1875 
Q 20.953125 51.171875 25.484375 53.578125 
Q 30.03125 56 36.53125 56 
Q 37.453125 56 38.578125 55.875 
Q 39.703125 55.765625 41.0625 55.515625 
z
" id="DejaVuSans-114"/>
       <path d="M 48.78125 52.59375 
L 48.78125 44.1875 
Q 44.96875 46.296875 41.140625 47.34375 
Q 37.3125 48.390625 33.40625 48.390625 
Q 24.65625 48.390625 19.8125 42.84375 
Q 14.984375 37.3125 14.984375 27.296875 
Q 14.984375 17.28125 19.8125 11.734375 
Q 24.65625 6.203125 33.40625 6.203125 
Q 37.3125 6.203125 41.140625 7.25 
Q 44.96875 8.296875 48.78125 10.40625 
L 48.78125 2.09375 
Q 45.015625 0.34375 40.984375 -0.53125 
Q 36.96875 -1.421875 32.421875 -1.421875 
Q 20.0625 -1.421875 12.78125 6.34375 
Q 5.515625 14.109375 5.515625 27.296875 
Q 5.515625 40.671875 12.859375 48.328125 
Q 20.21875 56 33.015625 56 
Q 37.15625 56 41.109375 55.140625 
Q 45.0625 54.296875 48.78125 52.59375 
z
" id="DejaVuSans-99"/>
       <path d="M 18.3125 70.21875 
L 18.3125 54.6875 
L 36.8125 54.6875 
L 36.8125 47.703125 
L 18.3125 47.703125 
L 18.3125 18.015625 
Q 18.3125 11.328125 20.140625 9.421875 
Q 21.96875 7.515625 27.59375 7.515625 
L 36.8125 7.515625 
L 36.8125 0 
L 27.59375 0 
Q 17.1875 0 13.234375 3.875 
Q 9.28125 7.765625 9.28125 18.015625 
L 9.28125 47.703125 
L 2.6875 47.703125 
L 2.6875 54.6875 
L 9.28125 54.6875 
L 9.28125 70.21875 
z
" id="DejaVuSans-116"/>
       <path d="M 8.5 21.578125 
L 8.5 54.6875 
L 17.484375 54.6875 
L 17.484375 21.921875 
Q 17.484375 14.15625 20.5 10.265625 
Q 23.53125 6.390625 29.59375 6.390625 
Q 36.859375 6.390625 41.078125 11.03125 
Q 45.3125 15.671875 45.3125 23.6875 
L 45.3125 54.6875 
L 54.296875 54.6875 
L 54.296875 0 
L 45.3125 0 
L 45.3125 8.40625 
Q 42.046875 3.421875 37.71875 1 
Q 33.40625 -1.421875 27.6875 -1.421875 
Q 18.265625 -1.421875 13.375 4.4375 
Q 8.5 10.296875 8.5 21.578125 
z
M 31.109375 56 
z
" id="DejaVuSans-117"/>
       <path d="M 11.71875 12.40625 
L 22.015625 12.40625 
L 22.015625 4 
L 14.015625 -11.625 
L 7.71875 -11.625 
L 11.71875 4 
z
" id="DejaVuSans-44"/>
       <path d="M 18.109375 8.203125 
L 18.109375 -20.796875 
L 9.078125 -20.796875 
L 9.078125 54.6875 
L 18.109375 54.6875 
L 18.109375 46.390625 
Q 20.953125 51.265625 25.265625 53.625 
Q 29.59375 56 35.59375 56 
Q 45.5625 56 51.78125 48.09375 
Q 58.015625 40.1875 58.015625 27.296875 
Q 58.015625 14.40625 51.78125 6.484375 
Q 45.5625 -1.421875 35.59375 -1.421875 
Q 29.59375 -1.421875 25.265625 0.953125 
Q 20.953125 3.328125 18.109375 8.203125 
z
M 48.6875 27.296875 
Q 48.6875 37.203125 44.609375 42.84375 
Q 40.53125 48.484375 33.40625 48.484375 
Q 26.265625 48.484375 22.1875 42.84375 
Q 18.109375 37.203125 18.109375 27.296875 
Q 18.109375 17.390625 22.1875 11.75 
Q 26.265625 6.109375 33.40625 6.109375 
Q 40.53125 6.109375 44.609375 11.75 
Q 48.6875 17.390625 48.6875 27.296875 
z
" id="DejaVuSans-112"/>
      </defs>
      <use xlink:href="#DejaVuSans-70"/>
      <use x="50.269531" xlink:href="#DejaVuSans-114"/>
      <use x="91.382812" xlink:href="#DejaVuSans-97"/>
      <use x="152.662109" xlink:href="#DejaVuSans-99"/>
      <use x="207.642578" xlink:href="#DejaVuSans-116"/>
      <use x="246.851562" xlink:href="#DejaVuSans-105"/>
      <use x="274.634766" xlink:href="#DejaVuSans-111"/>
      <use x="335.816406" xlink:href="#DejaVuSans-110"/>
      <use x="399.195312" xlink:href="#DejaVuSans-32"/>
      <use x="430.982422" xlink:href="#DejaVuSans-111"/>
      <use x="492.164062" xlink:href="#DejaVuSans-102"/>
      <use x="527.369141" xlink:href="#DejaVuSans-32"/>
      <use x="559.15625" xlink:href="#DejaVuSans-102"/>
      <use x="594.361328" xlink:href="#DejaVuSans-117"/>
      <use x="657.740234" xlink:href="#DejaVuSans-110"/>
      <use x="721.119141" xlink:href="#DejaVuSans-99"/>
      <use x="776.099609" xlink:href="#DejaVuSans-116"/>
      <use x="815.308594" xlink:href="#DejaVuSans-105"/>
      <use x="843.091797" xlink:href="#DejaVuSans-111"/>
      <use x="904.273438" xlink:href="#DejaVuSans-110"/>
      <use x="967.652344" xlink:href="#DejaVuSans-44"/>
      <use x="999.439453" xlink:href="#DejaVuSans-116"/>
      <use x="1038.648438" xlink:href="#DejaVuSans-97"/>
      <use x="1099.927734" xlink:href="#DejaVuSans-114"/>
      <use x="1139.291016" xlink:href="#DejaVuSans-103"/>
      <use x="1202.767578" xlink:href="#DejaVuSans-101"/>
      <use x="1264.291016" xlink:href="#DejaVuSans-116"/>
      <use x="1303.5" xlink:href="#DejaVuSans-32"/>
      <use x="1335.287109" xlink:href="#DejaVuSans-112"/>
      <use x="1398.763672" xlink:href="#DejaVuSans-97"/>
      <use x="1460.042969" xlink:href="#DejaVuSans-105"/>
      <use x="1487.826172" xlink:href="#DejaVuSans-114"/>
      <use x="1528.939453" xlink:href="#DejaVuSans-115"/>
     </g>
    </g>
   </g>
   <g id="line2d_33">
    <defs>
     <path d="M 0 1.5 
C 0.397805 1.5 0.77937 1.341951 1.06066 1.06066 
C 1.341951 0.77937 1.5 0.397805 1.5 0 
C 1.5 -0.397805 1.341951 -0.77937 1.06066 -1.06066 
C 0.77937 -1.341951 0.397805 -1.5 0 -1.5 
C -0.397805 -1.5 -0.77937 -1.341951 -1.06066 -1.06066 
C -1.341951 -0.77937 -1.5 -0.397805 -1.5 0 
C -1.5 0.397805 -1.341951 0.77937 -1.06066 1.06066 
C -0.77937 1.341951 -0.397805 1.5 0 1.5 
z
" id="mbb79c50b0e" style="stroke:#f5deb3;"/>
    </defs>
    <g>
     <use style="fill:#f5deb3;stroke:#f5deb3;" x="194.003833" xlink:href="#mbb79c50b0e" y="30.334099"/>
     <use style="fill:#f5deb3;stroke:#f5deb3;" x="194.003833" xlink:href="#mbb79c50b0e" y="30.334099"/>
    </g>
   </g>
   <g id="line2d_34">
    <defs>
     <path d="M 0 1.5 
C 0.397805 1.5 0.77937 1.341951 1.06066 1.06066 
C 1.341951 0.77937 1.5 0.397805 1.5 0 
C 1.5 -0.397805 1.341951 -0.77937 1.06066 -1.06066 
C 0.77937 -1.341951 0.397805 -1.5 0 -1.5 
C -0.397805 -1.5 -0.77937 -1.341951 -1.06066 -1.06066 
C -1.341951 -0.77937 -1.5 -0.397805 -1.5 0 
C -1.5 0.397805 -1.341951 0.77937 -1.06066 1.06066 
C -0.77937 1.341951 -0.397805 1.5 0 1.5 
z
" id="m2e1292eb61" style="stroke:#000080;"/>
    </defs>
    <g>
     <use style="fill:#000080;stroke:#000080;" x="259.712559" xlink:href="#m2e1292eb61" y="30.334099"/>
     <use style="fill:#000080;stroke:#000080;" x="259.712559" xlink:href="#m2e1292eb61" y="30.334099"/>
    </g>
   </g>
   <g id="line2d_35">
    <path d="M 38.440992 298.944 
L 38.440992 276.823185 
L 57.6 276.823185 
L 57.6 275.243126 
L 62.616969 275.243126 
L 62.616969 271.556324 
L 69.687988 271.556324 
L 69.687988 269.976266 
L 72.376266 269.976266 
L 72.376266 268.922893 
L 76.759008 268.922893 
L 76.759008 268.396207 
L 81.775977 268.396207 
L 81.775977 267.342835 
L 84.464254 267.342835 
L 84.464254 266.289463 
L 85.66744 266.289463 
L 85.66744 265.762777 
L 86.792945 265.762777 
L 86.792945 265.236091 
L 91.535274 265.236091 
L 91.535274 264.709405 
L 92.34655 264.709405 
L 92.34655 263.129347 
L 93.863965 263.129347 
L 93.863965 262.60266 
L 94.575872 262.60266 
L 94.575872 261.549288 
L 95.259853 261.549288 
L 95.259853 261.022602 
L 95.918017 261.022602 
L 95.918017 258.915858 
L 96.552242 258.915858 
L 96.552242 258.389172 
L 98.32726 258.389172 
L 98.32726 257.3358 
L 98.880934 257.3358 
L 98.880934 256.282427 
L 102.330873 256.282427 
L 102.330873 255.755741 
L 103.203018 255.755741 
L 103.203018 254.702369 
L 105.951954 254.702369 
L 105.951954 253.648997 
L 107.347841 253.648997 
L 107.347841 252.595625 
L 110.968922 252.595625 
L 110.968922 252.068939 
L 112.531694 252.068939 
L 112.531694 251.542253 
L 112.779064 251.542253 
L 112.779064 250.488881 
L 113.26352 250.488881 
L 113.26352 249.962195 
L 113.73488 249.962195 
L 113.73488 248.908822 
L 115.077025 248.908822 
L 115.077025 246.802078 
L 117.486268 246.802078 
L 117.486268 245.22202 
L 118.399528 245.22202 
L 118.399528 244.695334 
L 120.093994 244.695334 
L 120.093994 243.641962 
L 121.785469 243.641962 
L 121.785469 242.588589 
L 124.241922 242.588589 
L 124.241922 242.061903 
L 124.743806 242.061903 
L 124.743806 241.535217 
L 125.470548 241.535217 
L 125.470548 240.481845 
L 126.729009 240.481845 
L 126.729009 239.428473 
L 127.590383 239.428473 
L 127.695124 237.848415 
L 130.926816 237.848415 
L 130.926816 237.321729 
L 132.101058 237.321729 
L 132.101058 235.214984 
L 138.141844 235.214984 
L 138.141844 233.10824 
L 139.678372 233.10824 
L 139.678372 232.054868 
L 142.124852 232.054868 
L 142.124852 231.001496 
L 143.695448 231.001496 
L 143.695448 229.421437 
L 149.497598 229.421437 
L 149.497598 228.894751 
L 154.507086 228.894751 
L 154.507086 228.368065 
L 161.222884 228.368065 
L 161.222884 227.841379 
L 175.516968 227.841379 
L 175.516968 226.788007 
L 177.630722 226.788007 
L 177.630722 226.261321 
L 178.182162 226.261321 
L 178.182162 225.207949 
L 178.297273 225.207949 
L 178.297273 224.681263 
L 178.750267 224.681263 
L 178.750267 224.154577 
L 178.900534 224.154577 
L 178.900534 223.627891 
L 179.376106 223.627891 
L 179.376106 223.101204 
L 179.938541 223.101204 
L 179.938541 222.574518 
L 184.856021 222.574518 
L 184.856021 222.047832 
L 185.257031 222.047832 
L 185.337671 220.467774 
L 185.494044 220.467774 
L 185.505431 219.414402 
L 185.776513 219.414402 
L 185.873378 218.36103 
L 186.039767 218.36103 
L 186.039767 217.834344 
L 186.157129 217.834344 
L 186.200937 211.514111 
L 186.675701 211.514111 
L 186.785349 209.407366 
L 186.869766 209.407366 
L 186.925819 207.827308 
L 189.914294 207.827308 
L 189.914294 207.300622 
L 190.223892 207.300622 
L 190.223892 206.773936 
L 190.496768 206.773936 
L 190.496768 206.24725 
L 191.531371 206.24725 
L 191.531371 205.720564 
L 192.086472 205.720564 
L 192.086472 205.193878 
L 193.964164 205.193878 
L 193.964164 204.140506 
L 194.283607 204.140506 
L 194.283607 203.613819 
L 194.752062 203.613819 
L 194.752062 203.087133 
L 195.288562 203.087133 
L 195.288562 202.560447 
L 196.708085 202.560447 
L 196.708085 202.033761 
L 197.306488 202.033761 
L 197.306488 200.980389 
L 200.66927 200.980389 
L 200.66927 200.453703 
L 200.833897 200.453703 
L 200.833897 199.927017 
L 204.547686 199.927017 
L 204.547686 199.400331 
L 206.273838 199.400331 
L 206.334857 198.346959 
L 206.473369 198.346959 
L 206.540511 196.240214 
L 206.623229 196.240214 
L 206.623229 195.186842 
L 206.871284 195.186842 
L 206.871284 194.13347 
L 207.067438 194.13347 
L 207.165242 187.813237 
L 207.204648 187.813237 
L 207.294075 180.966318 
L 207.31799 180.966318 
L 207.377633 173.592713 
L 207.443546 173.592713 
L 207.517804 165.692422 
L 208.079967 165.692422 
L 208.079967 165.165736 
L 208.643712 165.165736 
L 208.643712 164.63905 
L 209.250194 164.63905 
L 209.351027 160.425561 
L 209.383866 160.425561 
L 209.476254 157.79213 
L 209.496399 157.79213 
L 209.570066 151.998584 
L 209.972093 151.998584 
L 209.972093 151.471897 
L 210.962207 151.471897 
L 211.069413 148.311781 
L 211.073792 148.311781 
L 211.180316 142.518234 
L 211.195108 142.518234 
L 211.286193 138.831432 
L 212.480725 138.831432 
L 212.480725 138.304745 
L 213.610774 138.304745 
L 213.610774 137.778059 
L 213.806554 137.778059 
L 213.806554 136.724687 
L 213.937102 136.724687 
L 214.005343 135.671315 
L 214.065205 135.671315 
L 214.076268 134.617943 
L 214.186513 134.617943 
L 214.29024 127.771024 
L 214.298978 127.771024 
L 214.365095 124.084221 
L 218.700475 124.084221 
L 218.740584 122.504163 
L 219.128407 122.504163 
L 219.128407 121.977477 
L 220.456709 121.977477 
L 220.466423 120.397419 
L 220.917464 120.397419 
L 221.013819 116.710616 
L 221.032136 116.710616 
L 221.138192 109.863697 
L 221.14655 109.863697 
L 221.14655 109.337011 
L 221.74139 109.337011 
L 221.74139 103.016778 
L 225.325257 103.016778 
L 225.429386 98.803289 
L 227.896767 98.803289 
L 227.991306 90.376312 
L 232.260623 90.376312 
L 232.299044 85.109451 
L 235.816528 85.109451 
L 235.926186 75.629102 
L 235.930609 75.629102 
L 235.930819 72.995672 
L 237.288244 72.995672 
L 237.33571 71.415613 
L 237.860992 71.415613 
L 237.958178 60.355206 
L 237.981782 60.355206 
L 238.027774 50.34817 
L 241.875791 50.34817 
L 241.912888 38.761076 
L 246.835765 38.761076 
L 246.835765 38.23439 
L 248.065911 38.23439 
L 248.075884 37.181018 
L 248.293737 37.181018 
L 248.293737 36.654332 
L 248.479807 36.654332 
L 248.479807 36.127646 
L 249.964337 36.127646 
L 249.987299 34.547588 
L 250.107358 34.547588 
L 250.107358 34.020902 
L 250.872556 34.020902 
L 250.872556 33.494215 
L 254.69952 33.494215 
L 254.727635 31.387471 
L 258.652876 31.387471 
L 258.652876 30.860785 
L 259.712559 30.860785 
L 259.712559 30.334099 
L 338.688 30.334099 
L 338.688 30.334099 
" style="fill:none;stroke:#000080;stroke-linecap:square;stroke-width:1.5;"/>
   </g>
   <g id="line2d_36">
    <defs>
     <path d="M 0 6 
C 1.591219 6 3.117479 5.367802 4.242641 4.242641 
C 5.367802 3.117479 6 1.591219 6 0 
C 6 -1.591219 5.367802 -3.117479 4.242641 -4.242641 
C 3.117479 -5.367802 1.591219 -6 0 -6 
C -1.591219 -6 -3.117479 -5.367802 -4.242641 -4.242641 
C -5.367802 -3.117479 -6 -1.591219 -6 0 
C -6 1.591219 -5.367802 3.117479 -4.242641 4.242641 
C -3.117479 5.367802 -1.591219 6 0 6 
z
" id="m25a72aa2df" style="stroke:#000080;stroke-width:1.5;"/>
    </defs>
    <g>
     <use style="fill-opacity:0;stroke:#000080;stroke-width:1.5;" x="76.759008" xlink:href="#m25a72aa2df" y="268.922893"/>
     <use style="fill-opacity:0;stroke:#000080;stroke-width:1.5;" x="161.222884" xlink:href="#m25a72aa2df" y="227.841379"/>
     <use style="fill-opacity:0;stroke:#000080;stroke-width:1.5;" x="211.170738" xlink:href="#m25a72aa2df" y="144.098292"/>
     <use style="fill-opacity:0;stroke:#000080;stroke-width:1.5;" x="259.712559" xlink:href="#m25a72aa2df" y="30.860785"/>
     <use style="fill-opacity:0;stroke:#000080;stroke-width:1.5;" x="259.712559" xlink:href="#m25a72aa2df" y="30.334099"/>
     <use style="fill-opacity:0;stroke:#000080;stroke-width:1.5;" x="338.688" xlink:href="#m25a72aa2df" y="30.334099"/>
    </g>
   </g>
   <g id="line2d_37">
    <path style="fill:none;stroke:#000080;stroke-linecap:square;stroke-width:1.5;"/>
    <g/>
   </g>
   <g id="line2d_38">
    <path clip-path="url(#pfe6a54f662)" d="M 246.289736 38.761076 
" style="fill:none;stroke:#000080;stroke-linecap:square;stroke-width:1.5;"/>
    <defs>
     <path d="M -12 12 
L 12 -12 
M -12 -12 
L 12 12 
" id="m1660635f18" style="stroke:#000080;"/>
    </defs>
    <g clip-path="url(#pfe6a54f662)">
     <use style="fill:#000080;stroke:#000080;" x="246.289736" xlink:href="#m1660635f18" y="38.761076"/>
    </g>
   </g>
   <g id="line2d_39">
    <defs>
     <path d="M 0 1.5 
C 0.397805 1.5 0.77937 1.341951 1.06066 1.06066 
C 1.341951 0.77937 1.5 0.397805 1.5 0 
C 1.5 -0.397805 1.341951 -0.77937 1.06066 -1.06066 
C 0.77937 -1.341951 0.397805 -1.5 0 -1.5 
C -0.397805 -1.5 -0.77937 -1.341951 -1.06066 -1.06066 
C -1.341951 -0.77937 -1.5 -0.397805 -1.5 0 
C -1.5 0.397805 -1.341951 0.77937 -1.06066 1.06066 
C -0.77937 1.341951 -0.397805 1.5 0 1.5 
z
" id="mb13d6c143e" style="stroke:#ff00ff;"/>
    </defs>
    <g>
     <use style="fill:#ff00ff;stroke:#ff00ff;" x="277.01495" xlink:href="#mb13d6c143e" y="30.334099"/>
     <use style="fill:#ff00ff;stroke:#ff00ff;" x="277.01495" xlink:href="#mb13d6c143e" y="30.334099"/>
    </g>
   </g>
   <g id="line2d_40">
    <path d="M 38.440992 298.944 
L 38.440992 284.19679 
L 50.52898 284.19679 
L 50.52898 273.136382 
L 57.6 273.136382 
L 57.6 265.762777 
L 62.616969 265.762777 
L 62.616969 262.075974 
L 72.376266 262.075974 
L 72.376266 259.442544 
L 78.59642 259.442544 
L 78.59642 257.3358 
L 80.258561 257.3358 
L 80.258561 256.282427 
L 84.464254 256.282427 
L 84.464254 255.229055 
L 92.34655 255.229055 
L 92.34655 253.648997 
L 93.121756 253.648997 
L 93.121756 253.122311 
L 97.16421 253.122311 
L 97.16421 251.542253 
L 104.826449 251.542253 
L 104.826449 250.488881 
L 109.252198 250.488881 
L 109.252198 249.435508 
L 109.550313 249.435508 
L 109.550313 248.908822 
L 114.193835 248.908822 
L 114.193835 247.328764 
L 119.267333 247.328764 
L 119.267333 245.22202 
L 123.192626 245.22202 
L 123.192626 244.695334 
L 123.985457 244.695334 
L 123.985457 243.641962 
L 124.368753 243.641962 
L 124.368753 243.115275 
L 129.760775 243.115275 
L 129.760775 242.061903 
L 132.181982 242.061903 
L 132.181982 241.535217 
L 135.280614 241.535217 
L 135.280614 241.008531 
L 137.910857 241.008531 
L 137.968891 238.901787 
L 141.848763 238.901787 
L 141.848763 238.375101 
L 146.179895 238.375101 
L 146.179895 237.848415 
L 148.576295 237.848415 
L 148.576295 237.321729 
L 148.79566 237.321729 
L 148.79566 236.268356 
L 150.201126 236.268356 
L 150.201126 233.10824 
L 153.466662 233.10824 
L 153.466662 232.581554 
L 153.750233 232.581554 
L 153.750233 231.528182 
L 154.507086 231.528182 
L 154.507086 230.47481 
L 155.253971 230.47481 
L 155.253971 228.894751 
L 155.762564 228.894751 
L 155.762564 228.368065 
L 156.398281 228.368065 
L 156.398281 227.841379 
L 159.574482 227.841379 
L 159.574482 226.261321 
L 159.874019 226.261321 
L 159.874019 225.207949 
L 161.926237 225.207949 
L 161.926237 224.154577 
L 163.428979 224.154577 
L 163.428979 223.101204 
L 163.722532 223.101204 
L 163.722532 222.574518 
L 164.256762 222.574518 
L 164.256762 222.047832 
L 167.944284 222.047832 
L 168.006494 220.99446 
L 171.679247 220.99446 
L 171.679247 220.467774 
L 171.837825 220.467774 
L 171.837825 219.414402 
L 172.60978 219.414402 
L 172.60978 218.887716 
L 173.462916 218.887716 
L 173.462916 217.307658 
L 174.348349 217.307658 
L 174.348349 216.780971 
L 174.66913 216.780971 
L 174.66913 216.254285 
L 175.744237 216.254285 
L 175.744237 215.200913 
L 176.738086 215.200913 
L 176.738086 214.147541 
L 177.606866 214.147541 
L 177.630722 212.567483 
L 179.049518 212.567483 
L 179.049518 212.040797 
L 179.284192 212.040797 
L 179.284192 210.987425 
L 179.413813 210.987425 
L 179.413813 210.460738 
L 180.488462 210.460738 
L 180.488462 209.934052 
L 180.724641 209.934052 
L 180.724641 209.407366 
L 180.839063 209.407366 
L 180.839063 207.827308 
L 180.957664 207.827308 
L 180.957664 204.140506 
L 182.128973 204.140506 
L 182.161179 202.560447 
L 182.623834 202.560447 
L 182.623834 201.507075 
L 184.808696 201.507075 
L 184.808696 200.980389 
L 184.985507 200.980389 
L 184.985507 200.453703 
L 185.452227 200.453703 
L 185.452227 198.346959 
L 185.806375 198.346959 
L 185.806375 197.293586 
L 185.93272 197.293586 
L 185.93272 195.186842 
L 186.211872 195.186842 
L 186.211872 194.13347 
L 186.53677 194.13347 
L 186.53677 192.553412 
L 186.943298 192.553412 
L 186.943298 192.026726 
L 187.815615 192.026726 
L 187.815615 190.973354 
L 188.467992 190.973354 
L 188.467992 190.446667 
L 189.016363 190.446667 
L 189.016363 189.919981 
L 189.176953 189.919981 
L 189.176953 188.866609 
L 189.30864 188.866609 
L 189.30864 188.339923 
L 189.535974 188.339923 
L 189.535974 187.813237 
L 190.081459 187.813237 
L 190.081459 179.38626 
L 191.197841 179.38626 
L 191.197841 176.752829 
L 191.458701 176.752829 
L 191.458701 176.226143 
L 192.480059 176.226143 
L 192.480059 175.699457 
L 192.652175 175.699457 
L 192.652175 174.646085 
L 192.767651 174.646085 
L 192.767651 174.119399 
L 193.025942 174.119399 
L 193.025942 173.066027 
L 193.253717 173.066027 
L 193.275603 172.012655 
L 193.631617 172.012655 
L 193.631617 170.959282 
L 193.896284 170.959282 
L 193.896284 170.432596 
L 194.096818 170.432596 
L 194.173159 167.799166 
L 194.436614 167.799166 
L 194.436614 167.27248 
L 195.193028 167.27248 
L 195.193028 166.745794 
L 195.439478 166.745794 
L 195.516586 165.165736 
L 195.913815 165.165736 
L 195.913815 163.585677 
L 196.146232 163.585677 
L 196.166833 162.532305 
L 196.52146 162.532305 
L 196.52146 162.005619 
L 196.686115 162.005619 
L 196.686115 161.478933 
L 196.906554 161.478933 
L 196.906554 160.952247 
L 197.34117 160.952247 
L 197.34117 160.425561 
L 197.697456 160.425561 
L 197.793374 159.372189 
L 197.93534 159.372189 
L 197.93534 158.845503 
L 198.42693 158.845503 
L 198.437779 157.79213 
L 198.662272 157.79213 
L 198.662272 157.265444 
L 199.488222 157.265444 
L 199.595113 156.212072 
L 200.149475 156.212072 
L 200.149475 155.685386 
L 201.271088 155.685386 
L 201.271088 155.1587 
L 201.417972 155.1587 
L 201.417972 154.632014 
L 202.587606 154.632014 
L 202.587606 154.105328 
L 203.328212 154.105328 
L 203.328212 153.578642 
L 203.702423 153.578642 
L 203.702423 153.051956 
L 203.933445 153.051956 
L 203.933445 152.52527 
L 204.091006 152.52527 
L 204.091006 151.998584 
L 204.451925 151.998584 
L 204.542592 150.418525 
L 204.869395 150.418525 
L 204.869395 149.891839 
L 205.018758 149.891839 
L 205.018758 149.365153 
L 205.959629 149.365153 
L 205.959629 148.838467 
L 206.512093 148.838467 
L 206.531423 147.785095 
L 206.655981 147.785095 
L 206.738155 146.731723 
L 206.813235 146.731723 
L 206.871284 144.624978 
L 206.975731 144.624978 
L 206.975731 144.098292 
L 207.174007 144.098292 
L 207.246147 143.04492 
L 207.337532 143.04492 
L 207.341872 141.464862 
L 209.075267 141.464862 
L 209.075267 140.938176 
L 209.357793 140.938176 
L 209.429159 139.884804 
L 209.803351 139.884804 
L 209.803351 139.358118 
L 211.321631 139.358118 
L 211.321631 138.831432 
L 211.540434 138.831432 
L 211.540434 138.304745 
L 212.335501 138.304745 
L 212.427319 136.198001 
L 213.25428 136.198001 
L 213.25428 135.671315 
L 213.698394 135.671315 
L 213.698394 135.144629 
L 214.154247 135.144629 
L 214.195303 134.091257 
L 215.064465 134.091257 
L 215.064465 133.037885 
L 216.267651 133.037885 
L 216.304676 129.877768 
L 216.577643 129.877768 
L 216.577643 129.351082 
L 216.768231 129.351082 
L 216.768231 128.824396 
L 217.081321 128.824396 
L 217.081321 128.29771 
L 217.243778 128.29771 
L 217.243778 127.771024 
L 217.41935 127.771024 
L 217.41935 127.244338 
L 217.540663 127.244338 
L 217.604016 126.190966 
L 218.174565 126.190966 
L 218.175147 125.137593 
L 218.52769 125.137593 
L 218.52769 124.610907 
L 219.888082 124.610907 
L 219.888082 123.557535 
L 220.275249 123.557535 
L 220.275249 123.030849 
L 220.637819 123.030849 
L 220.637819 122.504163 
L 221.521478 122.504163 
L 221.521478 121.977477 
L 224.818985 121.977477 
L 224.818985 121.450791 
L 228.516801 121.450791 
L 228.516801 120.924105 
L 230.533805 120.924105 
L 230.533805 120.397419 
L 234.277962 120.397419 
L 234.277962 119.870733 
L 234.499485 119.870733 
L 234.499485 119.344047 
L 234.647433 119.344047 
L 234.647433 117.763988 
L 234.839028 117.763988 
L 234.850233 116.710616 
L 235.401065 116.710616 
L 235.401065 116.18393 
L 236.162582 116.18393 
L 236.162582 115.657244 
L 236.423678 115.657244 
L 236.423678 115.130558 
L 236.560088 115.130558 
L 236.560088 114.603872 
L 237.907867 114.603872 
L 237.907867 114.077186 
L 238.147233 114.077186 
L 238.147233 113.5505 
L 238.395977 113.5505 
L 238.395977 113.023814 
L 238.894796 113.023814 
L 238.894796 112.497128 
L 239.69022 112.497128 
L 239.774882 111.443755 
L 240.803692 111.443755 
L 240.803692 110.917069 
L 241.349522 110.917069 
L 241.349522 110.390383 
L 241.678214 110.390383 
L 241.678214 109.863697 
L 242.419186 109.863697 
L 242.419186 109.337011 
L 242.601552 109.337011 
L 242.637425 107.756953 
L 246.693327 107.756953 
L 246.696054 104.07015 
L 246.813892 104.07015 
L 246.911206 99.329976 
L 246.930715 99.329976 
L 247.014449 90.376312 
L 247.068566 90.376312 
L 247.147326 85.109451 
L 247.196399 85.109451 
L 247.287435 83.529393 
L 247.376251 83.529393 
L 247.441561 81.422649 
L 247.497951 81.422649 
L 247.556646 80.369277 
L 247.743753 80.369277 
L 247.836879 79.315904 
L 248.064651 79.315904 
L 248.064651 78.789218 
L 248.318696 78.789218 
L 248.417455 77.735846 
L 248.61555 77.735846 
L 248.61555 76.155788 
L 248.98062 76.155788 
L 248.98062 74.57573 
L 249.157863 74.57573 
L 249.234722 72.995672 
L 249.309483 72.995672 
L 249.357034 71.942299 
L 249.757733 71.942299 
L 249.828202 70.362241 
L 249.909349 70.362241 
L 249.909349 69.835555 
L 252.221312 69.835555 
L 252.221312 69.308869 
L 254.038789 69.308869 
L 254.132914 68.255497 
L 254.182449 68.255497 
L 254.182449 67.202125 
L 254.873359 67.202125 
L 254.873359 66.675439 
L 256.549288 66.675439 
L 256.549288 66.148752 
L 258.641485 66.148752 
L 258.74356 61.935264 
L 258.775067 61.935264 
L 258.862124 57.195089 
L 258.892514 57.195089 
L 258.936199 55.088345 
L 259.123949 55.088345 
L 259.123949 54.561659 
L 259.260973 54.561659 
L 259.26252 53.508287 
L 259.395833 53.508287 
L 259.421421 52.454914 
L 259.513381 52.454914 
L 259.585234 50.874856 
L 259.743976 50.874856 
L 259.774747 49.821484 
L 259.873459 49.821484 
L 259.896065 47.71474 
L 264.307604 47.71474 
L 264.307604 47.188054 
L 264.746346 47.188054 
L 264.746346 46.661368 
L 264.990732 46.661368 
L 264.990732 46.134681 
L 265.584853 46.134681 
L 265.693295 43.501251 
L 265.696008 43.501251 
L 265.779975 40.341135 
L 265.880977 40.341135 
L 265.880977 39.814448 
L 266.014405 39.814448 
L 266.032965 38.761076 
L 266.392231 38.761076 
L 266.459833 37.181018 
L 266.682613 37.181018 
L 266.682613 36.654332 
L 266.911637 36.654332 
L 266.911637 36.127646 
L 269.034505 36.127646 
L 269.034505 35.60096 
L 270.601495 35.60096 
L 270.686651 33.494215 
L 270.791943 33.494215 
L 270.791943 32.967529 
L 271.270651 32.967529 
L 271.270651 32.440843 
L 273.729257 32.440843 
L 273.729257 31.914157 
L 274.465771 31.914157 
L 274.505724 30.860785 
L 277.01495 30.860785 
L 277.01495 30.334099 
L 338.688 30.334099 
L 338.688 30.334099 
" style="fill:none;stroke:#ff00ff;stroke-linecap:square;stroke-width:1.5;"/>
   </g>
   <g id="line2d_41">
    <defs>
     <path d="M -0 8.485281 
L 5.091169 0 
L 0 -8.485281 
L -5.091169 -0 
z
" id="m645db8a944" style="stroke:#ff00ff;stroke-linejoin:miter;stroke-width:1.5;"/>
    </defs>
    <g>
     <use style="fill-opacity:0;stroke:#ff00ff;stroke-linejoin:miter;stroke-width:1.5;" x="109.550313" xlink:href="#m645db8a944" y="249.435508"/>
     <use style="fill-opacity:0;stroke:#ff00ff;stroke-linejoin:miter;stroke-width:1.5;" x="180.957664" xlink:href="#m645db8a944" y="204.140506"/>
     <use style="fill-opacity:0;stroke:#ff00ff;stroke-linejoin:miter;stroke-width:1.5;" x="224.818985" xlink:href="#m645db8a944" y="121.977477"/>
     <use style="fill-opacity:0;stroke:#ff00ff;stroke-linejoin:miter;stroke-width:1.5;" x="277.01495" xlink:href="#m645db8a944" y="30.860785"/>
     <use style="fill-opacity:0;stroke:#ff00ff;stroke-linejoin:miter;stroke-width:1.5;" x="277.01495" xlink:href="#m645db8a944" y="30.334099"/>
     <use style="fill-opacity:0;stroke:#ff00ff;stroke-linejoin:miter;stroke-width:1.5;" x="338.688" xlink:href="#m645db8a944" y="30.334099"/>
    </g>
   </g>
   <g id="line2d_42">
    <path style="fill:none;stroke:#ff00ff;stroke-linecap:square;stroke-width:1.5;"/>
    <g/>
   </g>
   <g id="line2d_43">
    <path clip-path="url(#pfe6a54f662)" d="M 246.289154 107.756953 
" style="fill:none;stroke:#ff00ff;stroke-linecap:square;stroke-width:1.5;"/>
    <defs>
     <path d="M -12 12 
L 12 -12 
M -12 -12 
L 12 12 
" id="m0d1585e851" style="stroke:#ff00ff;"/>
    </defs>
    <g clip-path="url(#pfe6a54f662)">
     <use style="fill:#ff00ff;stroke:#ff00ff;" x="246.289154" xlink:href="#m0d1585e851" y="107.756953"/>
    </g>
   </g>
   <g id="line2d_44">
    <defs>
     <path d="M 0 1.5 
C 0.397805 1.5 0.77937 1.341951 1.06066 1.06066 
C 1.341951 0.77937 1.5 0.397805 1.5 0 
C 1.5 -0.397805 1.341951 -0.77937 1.06066 -1.06066 
C 0.77937 -1.341951 0.397805 -1.5 0 -1.5 
C -0.397805 -1.5 -0.77937 -1.341951 -1.06066 -1.06066 
C -1.341951 -0.77937 -1.5 -0.397805 -1.5 0 
C -1.5 0.397805 -1.341951 0.77937 -1.06066 1.06066 
C -0.77937 1.341951 -0.397805 1.5 0 1.5 
z
" id="mf4d75c3fa1" style="stroke:#ff7500;"/>
    </defs>
    <g>
     <use style="fill:#ff7500;stroke:#ff7500;" x="260.743223" xlink:href="#mf4d75c3fa1" y="30.334099"/>
     <use style="fill:#ff7500;stroke:#ff7500;" x="260.743223" xlink:href="#mf4d75c3fa1" y="30.334099"/>
    </g>
   </g>
   <g id="line2d_45">
    <path d="M 38.440992 298.944 
L 38.440992 285.250162 
L 50.52898 285.250162 
L 50.52898 276.296499 
L 62.616969 276.296499 
L 62.616969 272.08301 
L 66.508432 272.08301 
L 66.508432 271.556324 
L 69.687988 271.556324 
L 69.687988 269.449579 
L 74.704957 269.449579 
L 74.704957 268.922893 
L 76.759008 268.922893 
L 76.759008 268.396207 
L 78.59642 268.396207 
L 78.59642 265.762777 
L 80.258561 265.762777 
L 80.258561 265.236091 
L 84.464254 265.236091 
L 84.464254 264.182719 
L 85.66744 264.182719 
L 85.66744 263.656033 
L 88.846997 263.656033 
L 88.846997 261.549288 
L 91.535274 261.549288 
L 91.535274 261.022602 
L 93.863965 261.022602 
L 93.863965 260.495916 
L 98.32726 260.495916 
L 98.32726 259.442544 
L 98.880934 259.442544 
L 98.880934 258.915858 
L 99.938184 258.915858 
L 99.938184 257.3358 
L 100.443706 257.3358 
L 100.443706 256.809114 
L 102.772397 256.809114 
L 102.772397 256.282427 
L 104.826449 256.282427 
L 104.826449 255.755741 
L 105.584798 255.755741 
L 105.584798 255.229055 
L 106.311539 255.229055 
L 106.311539 254.175683 
L 106.66386 254.175683 
L 106.66386 252.595625 
L 108.006005 252.595625 
L 108.006005 251.015567 
L 109.252198 251.015567 
L 109.252198 250.488881 
L 111.767808 250.488881 
L 111.767808 249.962195 
L 112.280765 249.962195 
L 112.280765 249.435508 
L 113.500792 249.435508 
L 113.500792 247.85545 
L 115.502395 247.85545 
L 115.502395 247.328764 
L 117.857331 247.328764 
L 117.857331 246.275392 
L 124.619683 246.275392 
L 124.619683 245.22202 
L 126.053856 245.22202 
L 126.053856 244.168648 
L 128.610515 244.168648 
L 128.610515 243.641962 
L 131.185181 243.641962 
L 131.185181 240.481845 
L 133.201197 240.481845 
L 133.201197 239.955159 
L 134.450015 239.955159 
L 134.520763 238.375101 
L 138.482688 238.375101 
L 138.538853 236.795043 
L 140.499195 236.795043 
L 140.499195 234.688298 
L 143.40093 234.688298 
L 143.40093 233.634926 
L 146.288102 233.634926 
L 146.359869 231.001496 
L 150.457801 231.001496 
L 150.457801 230.47481 
L 151.340991 230.47481 
L 151.340991 228.894751 
L 156.835778 228.894751 
L 156.835778 228.368065 
L 157.735205 228.368065 
L 157.735205 227.841379 
L 158.942121 227.841379 
L 158.942121 227.314693 
L 160.070889 227.314693 
L 160.070889 226.788007 
L 160.200913 226.788007 
L 160.200913 225.734635 
L 161.79373 225.734635 
L 161.79373 225.207949 
L 163.361568 225.207949 
L 163.361568 224.154577 
L 166.983494 224.154577 
L 166.983494 223.627891 
L 168.696445 223.627891 
L 168.696445 223.101204 
L 168.845033 223.101204 
L 168.845033 222.574518 
L 169.597925 222.574518 
L 169.597925 222.047832 
L 170.535846 222.047832 
L 170.535846 221.521146 
L 170.837602 221.521146 
L 170.837602 219.414402 
L 171.160157 219.414402 
L 171.160157 218.887716 
L 173.530906 218.887716 
L 173.530906 218.36103 
L 176.125223 218.36103 
L 176.125223 217.834344 
L 176.34475 217.834344 
L 176.34475 216.254285 
L 177.48709 216.254285 
L 177.48709 215.727599 
L 179.169978 215.727599 
L 179.169978 215.200913 
L 180.274668 215.200913 
L 180.274668 214.674227 
L 181.883182 214.674227 
L 181.883182 214.147541 
L 182.036628 214.147541 
L 182.036628 213.094169 
L 183.624117 213.094169 
L 183.624117 212.567483 
L 184.016967 212.567483 
L 184.016967 212.040797 
L 184.574128 212.040797 
L 184.574128 210.987425 
L 185.705386 210.987425 
L 185.705386 210.460738 
L 186.072855 210.460738 
L 186.072855 209.934052 
L 187.459699 209.934052 
L 187.459699 209.407366 
L 187.641922 209.407366 
L 187.641922 208.88068 
L 188.595589 208.88068 
L 188.595589 208.353994 
L 188.766378 208.353994 
L 188.766378 207.827308 
L 188.941743 207.827308 
L 188.941743 206.773936 
L 190.630207 206.773936 
L 190.630207 206.24725 
L 191.595712 206.24725 
L 191.595712 205.720564 
L 192.657212 205.720564 
L 192.657212 205.193878 
L 196.432463 205.193878 
L 196.454755 203.613819 
L 196.549682 203.613819 
L 196.549682 203.087133 
L 196.801647 203.087133 
L 196.861106 200.980389 
L 197.287191 200.980389 
L 197.287191 200.453703 
L 197.410328 200.453703 
L 197.440977 198.346959 
L 197.544022 198.346959 
L 197.574437 196.240214 
L 197.684249 196.240214 
L 197.718189 193.080098 
L 198.000332 193.080098 
L 198.02256 189.919981 
L 198.210358 189.919981 
L 198.219512 188.866609 
L 198.348983 188.866609 
L 198.417884 187.813237 
L 198.479303 187.813237 
L 198.558466 185.179807 
L 198.62297 185.179807 
L 198.687236 183.073062 
L 198.862756 183.073062 
L 198.968279 182.01969 
L 199.020801 182.01969 
L 199.020801 181.493004 
L 199.168762 181.493004 
L 199.203395 179.912946 
L 199.28279 179.912946 
L 199.28279 178.859574 
L 199.518829 178.859574 
L 199.551079 177.806202 
L 199.647471 177.806202 
L 199.647471 177.279515 
L 201.748491 177.279515 
L 201.748491 176.752829 
L 203.333674 176.752829 
L 203.333674 175.699457 
L 203.727799 175.699457 
L 203.727799 175.172771 
L 204.289854 175.172771 
L 204.289854 172.012655 
L 205.14841 172.012655 
L 205.14841 170.959282 
L 207.136727 170.959282 
L 207.218856 169.379224 
L 207.25269 169.379224 
L 207.25269 168.852538 
L 207.410081 168.852538 
L 207.428441 164.63905 
L 207.911743 164.63905 
L 207.934826 162.532305 
L 208.332887 162.532305 
L 208.332887 162.005619 
L 212.089365 162.005619 
L 212.089365 156.738758 
L 213.380574 156.738758 
L 213.380574 154.105328 
L 214.293153 154.105328 
L 214.324437 153.051956 
L 214.472814 153.051956 
L 214.561238 148.838467 
L 214.594908 148.838467 
L 214.688413 146.731723 
L 214.729652 146.731723 
L 214.797697 144.098292 
L 214.874636 144.098292 
L 214.918951 141.991548 
L 215.03518 141.991548 
L 215.124971 139.358118 
L 215.194952 139.358118 
L 215.301804 136.724687 
L 215.343677 136.724687 
L 215.343677 136.198001 
L 215.556287 136.198001 
L 215.556287 135.671315 
L 215.873746 135.671315 
L 215.940791 134.091257 
L 216.186182 134.091257 
L 216.274803 133.037885 
L 216.368794 133.037885 
L 216.368794 131.984513 
L 216.523262 131.984513 
L 216.584029 129.877768 
L 216.701762 129.877768 
L 216.701762 128.824396 
L 216.823114 128.824396 
L 216.823114 127.771024 
L 216.9755 127.771024 
L 217.068905 125.137593 
L 217.106127 125.137593 
L 217.171076 122.504163 
L 217.276948 122.504163 
L 217.38706 119.870733 
L 217.537036 119.870733 
L 217.644321 116.18393 
L 217.92388 116.18393 
L 217.92388 115.657244 
L 218.113254 115.657244 
L 218.113254 114.077186 
L 218.463024 114.077186 
L 218.559077 111.443755 
L 219.139992 111.443755 
L 219.139992 110.917069 
L 219.313398 110.917069 
L 219.418466 106.176895 
L 219.571393 106.176895 
L 219.649232 100.383348 
L 219.734721 100.383348 
L 219.783157 97.223231 
L 220.078821 97.223231 
L 220.103366 94.063115 
L 223.103441 94.063115 
L 223.103441 93.536429 
L 224.258963 93.536429 
L 224.356148 90.902998 
L 224.374131 90.902998 
L 224.438962 87.742882 
L 224.492196 87.742882 
L 224.569925 86.162824 
L 224.603823 86.162824 
L 224.690287 83.529393 
L 224.718345 83.529393 
L 224.828937 80.369277 
L 224.837293 80.369277 
L 224.921026 79.315904 
L 224.983464 79.315904 
L 225.006329 77.735846 
L 225.101798 77.735846 
L 225.179594 74.049044 
L 225.294672 74.049044 
L 225.294672 72.995672 
L 225.414769 72.995672 
L 225.414769 72.468985 
L 226.385874 72.468985 
L 226.456709 70.362241 
L 226.614055 70.362241 
L 226.72043 68.255497 
L 226.755745 68.255497 
L 226.797744 66.148752 
L 226.888161 66.148752 
L 226.996398 62.988636 
L 227.065851 62.988636 
L 227.065851 62.46195 
L 229.499728 62.46195 
L 229.60718 57.195089 
L 229.653718 57.195089 
L 229.757528 54.561659 
L 229.765327 54.561659 
L 229.865793 49.294798 
L 229.893201 49.294798 
L 229.949966 44.027937 
L 230.012756 44.027937 
L 230.123566 41.394507 
L 230.177537 41.394507 
L 230.200073 39.287762 
L 247.28491 39.287762 
L 247.351437 37.181018 
L 247.445587 37.181018 
L 247.445587 36.654332 
L 248.07305 36.654332 
L 248.07305 36.127646 
L 248.888213 36.127646 
L 248.927334 35.074274 
L 249.243262 35.074274 
L 249.243262 34.547588 
L 249.664957 34.547588 
L 249.711455 33.494215 
L 250.671251 33.494215 
L 250.671251 32.967529 
L 250.892836 32.967529 
L 250.892836 32.440843 
L 251.223615 32.440843 
L 251.223615 31.914157 
L 251.959138 31.914157 
L 251.972068 30.860785 
L 260.743223 30.860785 
L 260.743223 30.334099 
L 338.688 30.334099 
L 338.688 30.334099 
" style="fill:none;stroke:#ff7500;stroke-linecap:square;stroke-width:1.5;"/>
   </g>
   <g id="line2d_46">
    <defs>
     <path d="M 0 -6 
L -1.347084 -1.854102 
L -5.706339 -1.854102 
L -2.179628 0.708204 
L -3.526712 4.854102 
L -0 2.291796 
L 3.526712 4.854102 
L 2.179628 0.708204 
L 5.706339 -1.854102 
L 1.347084 -1.854102 
z
" id="m841480eb6b" style="stroke:#ff7500;stroke-linejoin:bevel;stroke-width:1.5;"/>
    </defs>
    <g>
     <use style="fill-opacity:0;stroke:#ff7500;stroke-linejoin:bevel;stroke-width:1.5;" x="88.846997" xlink:href="#m841480eb6b" y="263.656033"/>
     <use style="fill-opacity:0;stroke:#ff7500;stroke-linejoin:bevel;stroke-width:1.5;" x="168.696445" xlink:href="#m841480eb6b" y="223.627891"/>
     <use style="fill-opacity:0;stroke:#ff7500;stroke-linejoin:bevel;stroke-width:1.5;" x="215.03518" xlink:href="#m841480eb6b" y="141.991548"/>
     <use style="fill-opacity:0;stroke:#ff7500;stroke-linejoin:bevel;stroke-width:1.5;" x="260.743223" xlink:href="#m841480eb6b" y="30.860785"/>
     <use style="fill-opacity:0;stroke:#ff7500;stroke-linejoin:bevel;stroke-width:1.5;" x="260.743223" xlink:href="#m841480eb6b" y="30.334099"/>
     <use style="fill-opacity:0;stroke:#ff7500;stroke-linejoin:bevel;stroke-width:1.5;" x="338.688" xlink:href="#m841480eb6b" y="30.334099"/>
    </g>
   </g>
   <g id="line2d_47">
    <path style="fill:none;stroke:#ff7500;stroke-linecap:square;stroke-width:1.5;"/>
    <g/>
   </g>
   <g id="line2d_48">
    <path clip-path="url(#pfe6a54f662)" d="M 246.289154 39.287762 
" style="fill:none;stroke:#ff7500;stroke-linecap:square;stroke-width:1.5;"/>
    <defs>
     <path d="M -12 12 
L 12 -12 
M -12 -12 
L 12 12 
" id="mee8c5b0801" style="stroke:#ff7500;"/>
    </defs>
    <g clip-path="url(#pfe6a54f662)">
     <use style="fill:#ff7500;stroke:#ff7500;" x="246.289154" xlink:href="#mee8c5b0801" y="39.287762"/>
    </g>
   </g>
   <g id="line2d_49">
    <path d="M 338.688 30.334099 
L 369.60768 293.571802 
" style="fill:none;stroke:#ff00ff;stroke-linecap:square;stroke-width:1.5;"/>
    <g>
     <use style="fill-opacity:0;stroke:#ff00ff;stroke-linejoin:miter;stroke-width:1.5;" x="338.688" xlink:href="#m645db8a944" y="30.334099"/>
     <use style="fill-opacity:0;stroke:#ff00ff;stroke-linejoin:miter;stroke-width:1.5;" x="369.60768" xlink:href="#m645db8a944" y="293.571802"/>
    </g>
   </g>
   <g id="line2d_50">
    <path d="M 338.688 30.334099 
L 369.60768 207.616634 
" style="fill:none;stroke:#ff7500;stroke-linecap:square;stroke-width:1.5;"/>
    <g>
     <use style="fill-opacity:0;stroke:#ff7500;stroke-linejoin:bevel;stroke-width:1.5;" x="338.688" xlink:href="#m841480eb6b" y="30.334099"/>
     <use style="fill-opacity:0;stroke:#ff7500;stroke-linejoin:bevel;stroke-width:1.5;" x="369.60768" xlink:href="#m841480eb6b" y="207.616634"/>
    </g>
   </g>
   <g id="line2d_51">
    <path d="M 338.688 30.334099 
L 369.60768 121.661465 
" style="fill:none;stroke:#000080;stroke-linecap:square;stroke-width:1.5;"/>
    <g>
     <use style="fill-opacity:0;stroke:#000080;stroke-width:1.5;" x="338.688" xlink:href="#m25a72aa2df" y="30.334099"/>
     <use style="fill-opacity:0;stroke:#000080;stroke-width:1.5;" x="369.60768" xlink:href="#m25a72aa2df" y="121.661465"/>
    </g>
   </g>
   <g id="line2d_52">
    <path d="M 338.688 298.944 
L 338.688 30.334099 
" style="fill:none;stroke:#000000;stroke-linecap:square;stroke-width:1.5;"/>
   </g>
   <g id="patch_3">
    <path d="M 57.6 298.944 
L 57.6 27.648 
" style="fill:none;stroke:#000000;stroke-linecap:square;stroke-linejoin:miter;stroke-width:0.8;"/>
   </g>
   <g id="patch_4">
    <path d="M 338.688 298.944 
L 338.688 27.648 
" style="fill:none;stroke:#000000;stroke-linecap:square;stroke-linejoin:miter;stroke-width:0.8;"/>
   </g>
   <g id="patch_5">
    <path d="M 57.6 298.944 
L 338.688 298.944 
" style="fill:none;stroke:#000000;stroke-linecap:square;stroke-linejoin:miter;stroke-width:0.8;"/>
   </g>
   <g id="patch_6">
    <path d="M 57.6 27.648 
L 338.688 27.648 
" style="fill:none;stroke:#000000;stroke-linecap:square;stroke-linejoin:miter;stroke-width:0.8;"/>
   </g>
   <g id="text_13">
    <!-- PSO -->
    <g transform="translate(375.22944 298.262739)scale(0.17 -0.17)">
     <defs>
      <path d="M 19.671875 64.796875 
L 19.671875 37.40625 
L 32.078125 37.40625 
Q 38.96875 37.40625 42.71875 40.96875 
Q 46.484375 44.53125 46.484375 51.125 
Q 46.484375 57.671875 42.71875 61.234375 
Q 38.96875 64.796875 32.078125 64.796875 
z
M 9.8125 72.90625 
L 32.078125 72.90625 
Q 44.34375 72.90625 50.609375 67.359375 
Q 56.890625 61.8125 56.890625 51.125 
Q 56.890625 40.328125 50.609375 34.8125 
Q 44.34375 29.296875 32.078125 29.296875 
L 19.671875 29.296875 
L 19.671875 0 
L 9.8125 0 
z
" id="DejaVuSans-80"/>
      <path d="M 53.515625 70.515625 
L 53.515625 60.890625 
Q 47.90625 63.578125 42.921875 64.890625 
Q 37.9375 66.21875 33.296875 66.21875 
Q 25.25 66.21875 20.875 63.09375 
Q 16.5 59.96875 16.5 54.203125 
Q 16.5 49.359375 19.40625 46.890625 
Q 22.3125 44.4375 30.421875 42.921875 
L 36.375 41.703125 
Q 47.40625 39.59375 52.65625 34.296875 
Q 57.90625 29 57.90625 20.125 
Q 57.90625 9.515625 50.796875 4.046875 
Q 43.703125 -1.421875 29.984375 -1.421875 
Q 24.8125 -1.421875 18.96875 -0.25 
Q 13.140625 0.921875 6.890625 3.21875 
L 6.890625 13.375 
Q 12.890625 10.015625 18.65625 8.296875 
Q 24.421875 6.59375 29.984375 6.59375 
Q 38.421875 6.59375 43.015625 9.90625 
Q 47.609375 13.234375 47.609375 19.390625 
Q 47.609375 24.75 44.3125 27.78125 
Q 41.015625 30.8125 33.5 32.328125 
L 27.484375 33.5 
Q 16.453125 35.6875 11.515625 40.375 
Q 6.59375 45.0625 6.59375 53.421875 
Q 6.59375 63.09375 13.40625 68.65625 
Q 20.21875 74.21875 32.171875 74.21875 
Q 37.3125 74.21875 42.625 73.28125 
Q 47.953125 72.359375 53.515625 70.515625 
z
" id="DejaVuSans-83"/>
      <path d="M 39.40625 66.21875 
Q 28.65625 66.21875 22.328125 58.203125 
Q 16.015625 50.203125 16.015625 36.375 
Q 16.015625 22.609375 22.328125 14.59375 
Q 28.65625 6.59375 39.40625 6.59375 
Q 50.140625 6.59375 56.421875 14.59375 
Q 62.703125 22.609375 62.703125 36.375 
Q 62.703125 50.203125 56.421875 58.203125 
Q 50.140625 66.21875 39.40625 66.21875 
z
M 39.40625 74.21875 
Q 54.734375 74.21875 63.90625 63.9375 
Q 73.09375 53.65625 73.09375 36.375 
Q 73.09375 19.140625 63.90625 8.859375 
Q 54.734375 -1.421875 39.40625 -1.421875 
Q 24.03125 -1.421875 14.8125 8.828125 
Q 5.609375 19.09375 5.609375 36.375 
Q 5.609375 53.65625 14.8125 63.9375 
Q 24.03125 74.21875 39.40625 74.21875 
z
" id="DejaVuSans-79"/>
     </defs>
     <use xlink:href="#DejaVuSans-80"/>
     <use x="60.302734" xlink:href="#DejaVuSans-83"/>
     <use x="123.779297" xlink:href="#DejaVuSans-79"/>
    </g>
   </g>
   <g id="text_14">
    <!-- DE -->
    <g transform="translate(375.22944 212.307571)scale(0.17 -0.17)">
     <defs>
      <path d="M 19.671875 64.796875 
L 19.671875 8.109375 
L 31.59375 8.109375 
Q 46.6875 8.109375 53.6875 14.9375 
Q 60.6875 21.78125 60.6875 36.53125 
Q 60.6875 51.171875 53.6875 57.984375 
Q 46.6875 64.796875 31.59375 64.796875 
z
M 9.8125 72.90625 
L 30.078125 72.90625 
Q 51.265625 72.90625 61.171875 64.09375 
Q 71.09375 55.28125 71.09375 36.53125 
Q 71.09375 17.671875 61.125 8.828125 
Q 51.171875 0 30.078125 0 
L 9.8125 0 
z
" id="DejaVuSans-68"/>
      <path d="M 9.8125 72.90625 
L 55.90625 72.90625 
L 55.90625 64.59375 
L 19.671875 64.59375 
L 19.671875 43.015625 
L 54.390625 43.015625 
L 54.390625 34.71875 
L 19.671875 34.71875 
L 19.671875 8.296875 
L 56.78125 8.296875 
L 56.78125 0 
L 9.8125 0 
z
" id="DejaVuSans-69"/>
     </defs>
     <use xlink:href="#DejaVuSans-68"/>
     <use x="77.001953" xlink:href="#DejaVuSans-69"/>
    </g>
   </g>
   <g id="text_15">
    <!-- BIPOP-CMA -->
    <g transform="translate(375.22944 126.352403)scale(0.17 -0.17)">
     <defs>
      <path d="M 19.671875 34.8125 
L 19.671875 8.109375 
L 35.5 8.109375 
Q 43.453125 8.109375 47.28125 11.40625 
Q 51.125 14.703125 51.125 21.484375 
Q 51.125 28.328125 47.28125 31.5625 
Q 43.453125 34.8125 35.5 34.8125 
z
M 19.671875 64.796875 
L 19.671875 42.828125 
L 34.28125 42.828125 
Q 41.5 42.828125 45.03125 45.53125 
Q 48.578125 48.25 48.578125 53.8125 
Q 48.578125 59.328125 45.03125 62.0625 
Q 41.5 64.796875 34.28125 64.796875 
z
M 9.8125 72.90625 
L 35.015625 72.90625 
Q 46.296875 72.90625 52.390625 68.21875 
Q 58.5 63.53125 58.5 54.890625 
Q 58.5 48.1875 55.375 44.234375 
Q 52.25 40.28125 46.1875 39.3125 
Q 53.46875 37.75 57.5 32.78125 
Q 61.53125 27.828125 61.53125 20.40625 
Q 61.53125 10.640625 54.890625 5.3125 
Q 48.25 0 35.984375 0 
L 9.8125 0 
z
" id="DejaVuSans-66"/>
      <path d="M 9.8125 72.90625 
L 19.671875 72.90625 
L 19.671875 0 
L 9.8125 0 
z
" id="DejaVuSans-73"/>
      <path d="M 64.40625 67.28125 
L 64.40625 56.890625 
Q 59.421875 61.53125 53.78125 63.8125 
Q 48.140625 66.109375 41.796875 66.109375 
Q 29.296875 66.109375 22.65625 58.46875 
Q 16.015625 50.828125 16.015625 36.375 
Q 16.015625 21.96875 22.65625 14.328125 
Q 29.296875 6.6875 41.796875 6.6875 
Q 48.140625 6.6875 53.78125 8.984375 
Q 59.421875 11.28125 64.40625 15.921875 
L 64.40625 5.609375 
Q 59.234375 2.09375 53.4375 0.328125 
Q 47.65625 -1.421875 41.21875 -1.421875 
Q 24.65625 -1.421875 15.125 8.703125 
Q 5.609375 18.84375 5.609375 36.375 
Q 5.609375 53.953125 15.125 64.078125 
Q 24.65625 74.21875 41.21875 74.21875 
Q 47.75 74.21875 53.53125 72.484375 
Q 59.328125 70.75 64.40625 67.28125 
z
" id="DejaVuSans-67"/>
      <path d="M 9.8125 72.90625 
L 24.515625 72.90625 
L 43.109375 23.296875 
L 61.8125 72.90625 
L 76.515625 72.90625 
L 76.515625 0 
L 66.890625 0 
L 66.890625 64.015625 
L 48.09375 14.015625 
L 38.1875 14.015625 
L 19.390625 64.015625 
L 19.390625 0 
L 9.8125 0 
z
" id="DejaVuSans-77"/>
      <path d="M 34.1875 63.1875 
L 20.796875 26.90625 
L 47.609375 26.90625 
z
M 28.609375 72.90625 
L 39.796875 72.90625 
L 67.578125 0 
L 57.328125 0 
L 50.6875 18.703125 
L 17.828125 18.703125 
L 11.1875 0 
L 0.78125 0 
z
" id="DejaVuSans-65"/>
     </defs>
     <use xlink:href="#DejaVuSans-66"/>
     <use x="68.603516" xlink:href="#DejaVuSans-73"/>
     <use x="98.095703" xlink:href="#DejaVuSans-80"/>
     <use x="158.398438" xlink:href="#DejaVuSans-79"/>
     <use x="237.109375" xlink:href="#DejaVuSans-80"/>
     <use x="295.162109" xlink:href="#DejaVuSans-45"/>
     <use x="331.246094" xlink:href="#DejaVuSans-67"/>
     <use x="401.070312" xlink:href="#DejaVuSans-77"/>
     <use x="487.349609" xlink:href="#DejaVuSans-65"/>
    </g>
   </g>
   <g id="text_16">
    <!-- best 2009 -->
    <g transform="translate(375.22944 40.397235)scale(0.17 -0.17)">
     <defs>
      <path d="M 48.6875 27.296875 
Q 48.6875 37.203125 44.609375 42.84375 
Q 40.53125 48.484375 33.40625 48.484375 
Q 26.265625 48.484375 22.1875 42.84375 
Q 18.109375 37.203125 18.109375 27.296875 
Q 18.109375 17.390625 22.1875 11.75 
Q 26.265625 6.109375 33.40625 6.109375 
Q 40.53125 6.109375 44.609375 11.75 
Q 48.6875 17.390625 48.6875 27.296875 
z
M 18.109375 46.390625 
Q 20.953125 51.265625 25.265625 53.625 
Q 29.59375 56 35.59375 56 
Q 45.5625 56 51.78125 48.09375 
Q 58.015625 40.1875 58.015625 27.296875 
Q 58.015625 14.40625 51.78125 6.484375 
Q 45.5625 -1.421875 35.59375 -1.421875 
Q 29.59375 -1.421875 25.265625 0.953125 
Q 20.953125 3.328125 18.109375 8.203125 
L 18.109375 0 
L 9.078125 0 
L 9.078125 75.984375 
L 18.109375 75.984375 
z
" id="DejaVuSans-98"/>
      <path d="M 10.984375 1.515625 
L 10.984375 10.5 
Q 14.703125 8.734375 18.5 7.8125 
Q 22.3125 6.890625 25.984375 6.890625 
Q 35.75 6.890625 40.890625 13.453125 
Q 46.046875 20.015625 46.78125 33.40625 
Q 43.953125 29.203125 39.59375 26.953125 
Q 35.25 24.703125 29.984375 24.703125 
Q 19.046875 24.703125 12.671875 31.3125 
Q 6.296875 37.9375 6.296875 49.421875 
Q 6.296875 60.640625 12.9375 67.421875 
Q 19.578125 74.21875 30.609375 74.21875 
Q 43.265625 74.21875 49.921875 64.515625 
Q 56.59375 54.828125 56.59375 36.375 
Q 56.59375 19.140625 48.40625 8.859375 
Q 40.234375 -1.421875 26.421875 -1.421875 
Q 22.703125 -1.421875 18.890625 -0.6875 
Q 15.09375 0.046875 10.984375 1.515625 
z
M 30.609375 32.421875 
Q 37.25 32.421875 41.125 36.953125 
Q 45.015625 41.5 45.015625 49.421875 
Q 45.015625 57.28125 41.125 61.84375 
Q 37.25 66.40625 30.609375 66.40625 
Q 23.96875 66.40625 20.09375 61.84375 
Q 16.21875 57.28125 16.21875 49.421875 
Q 16.21875 41.5 20.09375 36.953125 
Q 23.96875 32.421875 30.609375 32.421875 
z
" id="DejaVuSans-57"/>
     </defs>
     <use xlink:href="#DejaVuSans-98"/>
     <use x="63.476562" xlink:href="#DejaVuSans-101"/>
     <use x="125" xlink:href="#DejaVuSans-115"/>
     <use x="177.099609" xlink:href="#DejaVuSans-116"/>
     <use x="216.308594" xlink:href="#DejaVuSans-32"/>
     <use x="248.095703" xlink:href="#DejaVuSans-50"/>
     <use x="311.71875" xlink:href="#DejaVuSans-48"/>
     <use x="375.341797" xlink:href="#DejaVuSans-48"/>
     <use x="438.964844" xlink:href="#DejaVuSans-57"/>
    </g>
   </g>
   <g id="text_17">
    <!-- bbob f19, 3-D -->
    <g transform="translate(60.41088 38.111366)scale(0.102 -0.102)">
     <defs>
      <path d="M 40.578125 39.3125 
Q 47.65625 37.796875 51.625 33 
Q 55.609375 28.21875 55.609375 21.1875 
Q 55.609375 10.40625 48.1875 4.484375 
Q 40.765625 -1.421875 27.09375 -1.421875 
Q 22.515625 -1.421875 17.65625 -0.515625 
Q 12.796875 0.390625 7.625 2.203125 
L 7.625 11.71875 
Q 11.71875 9.328125 16.59375 8.109375 
Q 21.484375 6.890625 26.8125 6.890625 
Q 36.078125 6.890625 40.9375 10.546875 
Q 45.796875 14.203125 45.796875 21.1875 
Q 45.796875 27.640625 41.28125 31.265625 
Q 36.765625 34.90625 28.71875 34.90625 
L 20.21875 34.90625 
L 20.21875 43.015625 
L 29.109375 43.015625 
Q 36.375 43.015625 40.234375 45.921875 
Q 44.09375 48.828125 44.09375 54.296875 
Q 44.09375 59.90625 40.109375 62.90625 
Q 36.140625 65.921875 28.71875 65.921875 
Q 24.65625 65.921875 20.015625 65.03125 
Q 15.375 64.15625 9.8125 62.3125 
L 9.8125 71.09375 
Q 15.4375 72.65625 20.34375 73.4375 
Q 25.25 74.21875 29.59375 74.21875 
Q 40.828125 74.21875 47.359375 69.109375 
Q 53.90625 64.015625 53.90625 55.328125 
Q 53.90625 49.265625 50.4375 45.09375 
Q 46.96875 40.921875 40.578125 39.3125 
z
" id="DejaVuSans-51"/>
     </defs>
     <use xlink:href="#DejaVuSans-98"/>
     <use x="63.476562" xlink:href="#DejaVuSans-98"/>
     <use x="126.953125" xlink:href="#DejaVuSans-111"/>
     <use x="188.134766" xlink:href="#DejaVuSans-98"/>
     <use x="251.611328" xlink:href="#DejaVuSans-32"/>
     <use x="283.398438" xlink:href="#DejaVuSans-102"/>
     <use x="318.603516" xlink:href="#DejaVuSans-49"/>
     <use x="382.226562" xlink:href="#DejaVuSans-57"/>
     <use x="445.849609" xlink:href="#DejaVuSans-44"/>
     <use x="477.636719" xlink:href="#DejaVuSans-32"/>
     <use x="509.423828" xlink:href="#DejaVuSans-51"/>
     <use x="573.046875" xlink:href="#DejaVuSans-45"/>
     <use x="609.130859" xlink:href="#DejaVuSans-68"/>
    </g>
    <!-- 51 targets: 100..1e-08 -->
    <g transform="translate(60.41088 49.533135)scale(0.102 -0.102)">
     <defs>
      <path d="M 10.796875 72.90625 
L 49.515625 72.90625 
L 49.515625 64.59375 
L 19.828125 64.59375 
L 19.828125 46.734375 
Q 21.96875 47.46875 24.109375 47.828125 
Q 26.265625 48.1875 28.421875 48.1875 
Q 40.625 48.1875 47.75 41.5 
Q 54.890625 34.8125 54.890625 23.390625 
Q 54.890625 11.625 47.5625 5.09375 
Q 40.234375 -1.421875 26.90625 -1.421875 
Q 22.3125 -1.421875 17.546875 -0.640625 
Q 12.796875 0.140625 7.71875 1.703125 
L 7.71875 11.625 
Q 12.109375 9.234375 16.796875 8.0625 
Q 21.484375 6.890625 26.703125 6.890625 
Q 35.15625 6.890625 40.078125 11.328125 
Q 45.015625 15.765625 45.015625 23.390625 
Q 45.015625 31 40.078125 35.4375 
Q 35.15625 39.890625 26.703125 39.890625 
Q 22.75 39.890625 18.8125 39.015625 
Q 14.890625 38.140625 10.796875 36.28125 
z
" id="DejaVuSans-53"/>
      <path d="M 11.71875 12.40625 
L 22.015625 12.40625 
L 22.015625 0 
L 11.71875 0 
z
M 11.71875 51.703125 
L 22.015625 51.703125 
L 22.015625 39.3125 
L 11.71875 39.3125 
z
" id="DejaVuSans-58"/>
     </defs>
     <use xlink:href="#DejaVuSans-53"/>
     <use x="63.623047" xlink:href="#DejaVuSans-49"/>
     <use x="127.246094" xlink:href="#DejaVuSans-32"/>
     <use x="159.033203" xlink:href="#DejaVuSans-116"/>
     <use x="198.242188" xlink:href="#DejaVuSans-97"/>
     <use x="259.521484" xlink:href="#DejaVuSans-114"/>
     <use x="298.884766" xlink:href="#DejaVuSans-103"/>
     <use x="362.361328" xlink:href="#DejaVuSans-101"/>
     <use x="423.884766" xlink:href="#DejaVuSans-116"/>
     <use x="463.09375" xlink:href="#DejaVuSans-115"/>
     <use x="515.193359" xlink:href="#DejaVuSans-58"/>
     <use x="548.884766" xlink:href="#DejaVuSans-32"/>
     <use x="580.671875" xlink:href="#DejaVuSans-49"/>
     <use x="644.294922" xlink:href="#DejaVuSans-48"/>
     <use x="707.917969" xlink:href="#DejaVuSans-48"/>
     <use x="771.541016" xlink:href="#DejaVuSans-46"/>
     <use x="803.328125" xlink:href="#DejaVuSans-46"/>
     <use x="835.115234" xlink:href="#DejaVuSans-49"/>
     <use x="898.738281" xlink:href="#DejaVuSans-101"/>
     <use x="960.261719" xlink:href="#DejaVuSans-45"/>
     <use x="996.345703" xlink:href="#DejaVuSans-48"/>
     <use x="1059.96875" xlink:href="#DejaVuSans-56"/>
    </g>
    <!-- 15 instances -->
    <g transform="translate(60.41088 60.954904)scale(0.102 -0.102)">
     <use xlink:href="#DejaVuSans-49"/>
     <use x="63.623047" xlink:href="#DejaVuSans-53"/>
     <use x="127.246094" xlink:href="#DejaVuSans-32"/>
     <use x="159.033203" xlink:href="#DejaVuSans-105"/>
     <use x="186.816406" xlink:href="#DejaVuSans-110"/>
     <use x="250.195312" xlink:href="#DejaVuSans-115"/>
     <use x="302.294922" xlink:href="#DejaVuSans-116"/>
     <use x="341.503906" xlink:href="#DejaVuSans-97"/>
     <use x="402.783203" xlink:href="#DejaVuSans-110"/>
     <use x="466.162109" xlink:href="#DejaVuSans-99"/>
     <use x="521.142578" xlink:href="#DejaVuSans-101"/>
     <use x="582.666016" xlink:href="#DejaVuSans-115"/>
    </g>
   </g>
   <g id="text_18">
    <!-- v2.4 -->
    <g style="fill:#808080;" transform="translate(187.233062 294.151352)scale(0.1 -0.1)">
     <use xlink:href="#DejaVuSans-118"/>
     <use x="59.179688" xlink:href="#DejaVuSans-50"/>
     <use x="122.802734" xlink:href="#DejaVuSans-46"/>
     <use x="154.589844" xlink:href="#DejaVuSans-52"/>
    </g>
   </g>
   <g id="text_19">
    <!-- 19 Griewank-Rosenbrock F8F2 -->
    <g transform="translate(46.042437 21.648)scale(0.2 -0.2)">
     <defs>
      <path d="M 59.515625 10.40625 
L 59.515625 29.984375 
L 43.40625 29.984375 
L 43.40625 38.09375 
L 69.28125 38.09375 
L 69.28125 6.78125 
Q 63.578125 2.734375 56.6875 0.65625 
Q 49.8125 -1.421875 42 -1.421875 
Q 24.90625 -1.421875 15.25 8.5625 
Q 5.609375 18.5625 5.609375 36.375 
Q 5.609375 54.25 15.25 64.234375 
Q 24.90625 74.21875 42 74.21875 
Q 49.125 74.21875 55.546875 72.453125 
Q 61.96875 70.703125 67.390625 67.28125 
L 67.390625 56.78125 
Q 61.921875 61.421875 55.765625 63.765625 
Q 49.609375 66.109375 42.828125 66.109375 
Q 29.4375 66.109375 22.71875 58.640625 
Q 16.015625 51.171875 16.015625 36.375 
Q 16.015625 21.625 22.71875 14.15625 
Q 29.4375 6.6875 42.828125 6.6875 
Q 48.046875 6.6875 52.140625 7.59375 
Q 56.25 8.5 59.515625 10.40625 
z
" id="DejaVuSans-71"/>
      <path d="M 4.203125 54.6875 
L 13.1875 54.6875 
L 24.421875 12.015625 
L 35.59375 54.6875 
L 46.1875 54.6875 
L 57.421875 12.015625 
L 68.609375 54.6875 
L 77.59375 54.6875 
L 63.28125 0 
L 52.6875 0 
L 40.921875 44.828125 
L 29.109375 0 
L 18.5 0 
z
" id="DejaVuSans-119"/>
      <path d="M 9.078125 75.984375 
L 18.109375 75.984375 
L 18.109375 31.109375 
L 44.921875 54.6875 
L 56.390625 54.6875 
L 27.390625 29.109375 
L 57.625 0 
L 45.90625 0 
L 18.109375 26.703125 
L 18.109375 0 
L 9.078125 0 
z
" id="DejaVuSans-107"/>
      <path d="M 44.390625 34.1875 
Q 47.5625 33.109375 50.5625 29.59375 
Q 53.5625 26.078125 56.59375 19.921875 
L 66.609375 0 
L 56 0 
L 46.6875 18.703125 
Q 43.0625 26.03125 39.671875 28.421875 
Q 36.28125 30.8125 30.421875 30.8125 
L 19.671875 30.8125 
L 19.671875 0 
L 9.8125 0 
L 9.8125 72.90625 
L 32.078125 72.90625 
Q 44.578125 72.90625 50.734375 67.671875 
Q 56.890625 62.453125 56.890625 51.90625 
Q 56.890625 45.015625 53.6875 40.46875 
Q 50.484375 35.9375 44.390625 34.1875 
z
M 19.671875 64.796875 
L 19.671875 38.921875 
L 32.078125 38.921875 
Q 39.203125 38.921875 42.84375 42.21875 
Q 46.484375 45.515625 46.484375 51.90625 
Q 46.484375 58.296875 42.84375 61.546875 
Q 39.203125 64.796875 32.078125 64.796875 
z
" id="DejaVuSans-82"/>
     </defs>
     <use xlink:href="#DejaVuSans-49"/>
     <use x="63.623047" xlink:href="#DejaVuSans-57"/>
     <use x="127.246094" xlink:href="#DejaVuSans-32"/>
     <use x="159.033203" xlink:href="#DejaVuSans-71"/>
     <use x="236.523438" xlink:href="#DejaVuSans-114"/>
     <use x="277.636719" xlink:href="#DejaVuSans-105"/>
     <use x="305.419922" xlink:href="#DejaVuSans-101"/>
     <use x="366.943359" xlink:href="#DejaVuSans-119"/>
     <use x="448.730469" xlink:href="#DejaVuSans-97"/>
     <use x="510.009766" xlink:href="#DejaVuSans-110"/>
     <use x="573.388672" xlink:href="#DejaVuSans-107"/>
     <use x="631.298828" xlink:href="#DejaVuSans-45"/>
     <use x="667.382812" xlink:href="#DejaVuSans-82"/>
     <use x="732.365234" xlink:href="#DejaVuSans-111"/>
     <use x="793.546875" xlink:href="#DejaVuSans-115"/>
     <use x="845.646484" xlink:href="#DejaVuSans-101"/>
     <use x="907.169922" xlink:href="#DejaVuSans-110"/>
     <use x="970.548828" xlink:href="#DejaVuSans-98"/>
     <use x="1034.025391" xlink:href="#DejaVuSans-114"/>
     <use x="1072.888672" xlink:href="#DejaVuSans-111"/>
     <use x="1134.070312" xlink:href="#DejaVuSans-99"/>
     <use x="1189.050781" xlink:href="#DejaVuSans-107"/>
     <use x="1246.960938" xlink:href="#DejaVuSans-32"/>
     <use x="1278.748047" xlink:href="#DejaVuSans-70"/>
     <use x="1336.267578" xlink:href="#DejaVuSans-56"/>
     <use x="1399.890625" xlink:href="#DejaVuSans-70"/>
     <use x="1457.410156" xlink:href="#DejaVuSans-50"/>
    </g>
   </g>
  </g>
 </g>
 <defs>
  <clipPath id="pfe6a54f662">
   <rect height="271.296" width="281.088" x="57.6" y="27.648"/>
  </clipPath>
 </defs>
</svg>
