<?xml version="1.0" encoding="utf-8" standalone="no"?>
<!DOCTYPE svg PUBLIC "-//W3C//DTD SVG 1.1//EN"
  "http://www.w3.org/Graphics/SVG/1.1/DTD/svg11.dtd">
<!-- Created with matplotlib (https://matplotlib.org/) -->
<svg height="345.6pt" version="1.1" viewBox="0 0 460.8 345.6" width="460.8pt" xmlns="http://www.w3.org/2000/svg" xmlns:xlink="http://www.w3.org/1999/xlink">
 <metadata>
  <rdf:RDF xmlns:cc="http://creativecommons.org/ns#" xmlns:dc="http://purl.org/dc/elements/1.1/" xmlns:rdf="http://www.w3.org/1999/02/22-rdf-syntax-ns#">
   <cc:Work>
    <dc:type rdf:resource="http://purl.org/dc/dcmitype/StillImage"/>
    <dc:date>2021-05-01T17:07:49.321417</dc:date>
    <dc:format>image/svg+xml</dc:format>
    <dc:creator>
     <cc:Agent>
      <dc:title>Matplotlib v3.3.2, https://matplotlib.org/</dc:title>
     </cc:Agent>
    </dc:creator>
   </cc:Work>
  </rdf:RDF>
 </metadata>
 <defs>
  <style type="text/css">*{stroke-linecap:butt;stroke-linejoin:round;}</style>
 </defs>
 <g id="figure_1">
  <g id="patch_1">
   <path d="M 0 345.6 
L 460.8 345.6 
L 460.8 0 
L 0 0 
z
" style="fill:#ffffff;"/>
  </g>
  <g id="axes_1">
   <g id="patch_2">
    <path d="M 57.6 298.944 
L 338.688 298.944 
L 338.688 27.648 
L 57.6 27.648 
z
" style="fill:#ffffff;"/>
   </g>
   <g id="line2d_1">
    <path d="M 29.53256 298.944 
L 29.53256 288.410278 
L 53.708537 288.410278 
L 53.708537 283.143418 
L 71.35013 283.143418 
L 71.35013 277.876557 
L 89.418828 277.876557 
L 89.418828 272.609696 
L 94.294587 272.609696 
L 94.294587 267.342835 
L 104.355088 267.342835 
L 104.355088 262.075974 
L 108.006005 262.075974 
L 108.006005 256.809114 
L 112.877038 256.809114 
L 112.877038 251.542253 
L 131.540579 251.542253 
L 131.540579 246.275392 
L 152.542024 246.275392 
L 152.542024 241.008531 
L 158.325678 241.008531 
L 158.325678 235.74167 
L 158.551397 235.74167 
L 158.551397 230.47481 
L 158.732007 230.47481 
L 158.732007 225.207949 
L 158.784773 225.207949 
L 158.784773 219.941088 
L 158.983842 219.941088 
L 158.983842 214.674227 
L 159.015067 214.674227 
L 159.015067 209.407366 
L 159.046236 209.407366 
L 159.046236 204.140506 
L 159.07735 204.140506 
L 159.07735 198.873645 
L 159.108409 198.873645 
L 159.108409 193.606784 
L 159.17036 193.606784 
L 159.17036 188.339923 
L 159.190962 188.339923 
L 159.190962 183.073062 
L 159.201253 183.073062 
L 159.201253 177.806202 
L 159.252621 177.806202 
L 159.252621 172.539341 
L 159.273126 172.539341 
L 159.273126 167.27248 
L 159.303838 167.27248 
L 159.303838 162.005619 
L 159.354904 162.005619 
L 159.354904 156.738758 
L 159.375289 156.738758 
L 159.375289 151.471897 
L 159.39565 151.471897 
L 159.39565 146.205037 
L 159.415988 146.205037 
L 159.415988 140.938176 
L 159.436301 140.938176 
L 159.436301 135.671315 
L 159.456591 135.671315 
L 159.456591 130.404454 
L 159.486982 130.404454 
L 159.486982 125.137593 
L 159.51732 125.137593 
L 159.51732 119.870733 
L 159.547605 119.870733 
L 159.547605 109.337011 
L 159.608019 109.337011 
L 159.608019 104.07015 
L 159.638147 104.07015 
L 159.638147 98.803289 
L 159.648178 98.803289 
L 159.648178 93.536429 
L 159.688246 93.536429 
L 159.688246 88.269568 
L 159.718236 88.269568 
L 159.718236 83.002707 
L 159.738201 83.002707 
L 159.738201 77.735846 
L 159.768105 77.735846 
L 159.768105 72.468985 
L 159.778062 72.468985 
L 159.778062 67.202125 
L 159.807898 67.202125 
L 159.807898 61.935264 
L 159.827761 61.935264 
L 159.827761 56.668403 
L 159.847601 56.668403 
L 159.847601 51.401542 
L 159.877318 51.401542 
L 159.877318 46.134681 
L 159.897102 46.134681 
L 159.897102 40.867821 
L 159.926735 40.867821 
L 159.926735 35.60096 
L 161.6095 35.60096 
L 161.6095 30.334099 
L 338.688 30.334099 
" style="fill:none;stroke:#f5deb3;stroke-linecap:square;stroke-width:4;"/>
   </g>
   <g id="line2d_2">
    <defs>
     <path d="M -0 7.778175 
L 7.778175 0 
L 0 -7.778175 
L -7.778175 -0 
z
" id="m5aecbd997d" style="stroke:#f5deb3;stroke-linejoin:miter;stroke-width:1.5;"/>
    </defs>
    <g>
     <use style="fill:#f5deb3;stroke:#f5deb3;stroke-linejoin:miter;stroke-width:1.5;" x="89.418828" xlink:href="#m5aecbd997d" y="277.876557"/>
     <use style="fill:#f5deb3;stroke:#f5deb3;stroke-linejoin:miter;stroke-width:1.5;" x="159.17036" xlink:href="#m5aecbd997d" y="188.339923"/>
     <use style="fill:#f5deb3;stroke:#f5deb3;stroke-linejoin:miter;stroke-width:1.5;" x="159.768105" xlink:href="#m5aecbd997d" y="77.735846"/>
     <use style="fill:#f5deb3;stroke:#f5deb3;stroke-linejoin:miter;stroke-width:1.5;" x="161.6095" xlink:href="#m5aecbd997d" y="35.60096"/>
     <use style="fill:#f5deb3;stroke:#f5deb3;stroke-linejoin:miter;stroke-width:1.5;" x="161.6095" xlink:href="#m5aecbd997d" y="30.334099"/>
     <use style="fill:#f5deb3;stroke:#f5deb3;stroke-linejoin:miter;stroke-width:1.5;" x="338.688" xlink:href="#m5aecbd997d" y="30.334099"/>
    </g>
   </g>
   <g id="line2d_3">
    <path style="fill:none;stroke:#f5deb3;stroke-linecap:square;stroke-width:4;"/>
    <g/>
   </g>
   <g id="line2d_4">
    <path d="M 338.688 30.334099 
L 369.60768 35.706297 
" style="fill:none;stroke:#f5deb3;stroke-linecap:square;stroke-width:4;"/>
    <g>
     <use style="fill:#f5deb3;stroke:#f5deb3;stroke-linejoin:miter;stroke-width:1.5;" x="338.688" xlink:href="#m5aecbd997d" y="30.334099"/>
     <use style="fill:#f5deb3;stroke:#f5deb3;stroke-linejoin:miter;stroke-width:1.5;" x="369.60768" xlink:href="#m5aecbd997d" y="35.706297"/>
    </g>
   </g>
   <g id="matplotlib.axis_1">
    <g id="xtick_1">
     <g id="line2d_5">
      <path clip-path="url(#pf9fab802e5)" d="M 57.6 298.944 
L 57.6 27.648 
" style="fill:none;stroke:#b0b0b0;stroke-linecap:square;stroke-width:0.8;"/>
     </g>
     <g id="line2d_6">
      <defs>
       <path d="M 0 0 
L 0 3.5 
" id="m5e1943b6dc" style="stroke:#000000;stroke-width:0.8;"/>
      </defs>
      <g>
       <use style="stroke:#000000;stroke-width:0.8;" x="57.6" xlink:href="#m5e1943b6dc" y="298.944"/>
      </g>
     </g>
     <g id="text_1">
      <!-- 0 -->
      <g transform="translate(51.2375 321.140875)scale(0.2 -0.2)">
       <defs>
        <path d="M 31.78125 66.40625 
Q 24.171875 66.40625 20.328125 58.90625 
Q 16.5 51.421875 16.5 36.375 
Q 16.5 21.390625 20.328125 13.890625 
Q 24.171875 6.390625 31.78125 6.390625 
Q 39.453125 6.390625 43.28125 13.890625 
Q 47.125 21.390625 47.125 36.375 
Q 47.125 51.421875 43.28125 58.90625 
Q 39.453125 66.40625 31.78125 66.40625 
z
M 31.78125 74.21875 
Q 44.046875 74.21875 50.515625 64.515625 
Q 56.984375 54.828125 56.984375 36.375 
Q 56.984375 17.96875 50.515625 8.265625 
Q 44.046875 -1.421875 31.78125 -1.421875 
Q 19.53125 -1.421875 13.0625 8.265625 
Q 6.59375 17.96875 6.59375 36.375 
Q 6.59375 54.828125 13.0625 64.515625 
Q 19.53125 74.21875 31.78125 74.21875 
z
" id="DejaVuSans-48"/>
       </defs>
       <use xlink:href="#DejaVuSans-48"/>
      </g>
     </g>
    </g>
    <g id="xtick_2">
     <g id="line2d_7">
      <path clip-path="url(#pf9fab802e5)" d="M 137.910857 298.944 
L 137.910857 27.648 
" style="fill:none;stroke:#b0b0b0;stroke-linecap:square;stroke-width:0.8;"/>
     </g>
     <g id="line2d_8">
      <g>
       <use style="stroke:#000000;stroke-width:0.8;" x="137.910857" xlink:href="#m5e1943b6dc" y="298.944"/>
      </g>
     </g>
     <g id="text_2">
      <!-- 2 -->
      <g transform="translate(131.548357 321.140875)scale(0.2 -0.2)">
       <defs>
        <path d="M 19.1875 8.296875 
L 53.609375 8.296875 
L 53.609375 0 
L 7.328125 0 
L 7.328125 8.296875 
Q 12.9375 14.109375 22.625 23.890625 
Q 32.328125 33.6875 34.8125 36.53125 
Q 39.546875 41.84375 41.421875 45.53125 
Q 43.3125 49.21875 43.3125 52.78125 
Q 43.3125 58.59375 39.234375 62.25 
Q 35.15625 65.921875 28.609375 65.921875 
Q 23.96875 65.921875 18.8125 64.3125 
Q 13.671875 62.703125 7.8125 59.421875 
L 7.8125 69.390625 
Q 13.765625 71.78125 18.9375 73 
Q 24.125 74.21875 28.421875 74.21875 
Q 39.75 74.21875 46.484375 68.546875 
Q 53.21875 62.890625 53.21875 53.421875 
Q 53.21875 48.921875 51.53125 44.890625 
Q 49.859375 40.875 45.40625 35.40625 
Q 44.1875 33.984375 37.640625 27.21875 
Q 31.109375 20.453125 19.1875 8.296875 
z
" id="DejaVuSans-50"/>
       </defs>
       <use xlink:href="#DejaVuSans-50"/>
      </g>
     </g>
    </g>
    <g id="xtick_3">
     <g id="line2d_9">
      <path clip-path="url(#pf9fab802e5)" d="M 218.221714 298.944 
L 218.221714 27.648 
" style="fill:none;stroke:#b0b0b0;stroke-linecap:square;stroke-width:0.8;"/>
     </g>
     <g id="line2d_10">
      <g>
       <use style="stroke:#000000;stroke-width:0.8;" x="218.221714" xlink:href="#m5e1943b6dc" y="298.944"/>
      </g>
     </g>
     <g id="text_3">
      <!-- 4 -->
      <g transform="translate(211.859214 321.140875)scale(0.2 -0.2)">
       <defs>
        <path d="M 37.796875 64.3125 
L 12.890625 25.390625 
L 37.796875 25.390625 
z
M 35.203125 72.90625 
L 47.609375 72.90625 
L 47.609375 25.390625 
L 58.015625 25.390625 
L 58.015625 17.1875 
L 47.609375 17.1875 
L 47.609375 0 
L 37.796875 0 
L 37.796875 17.1875 
L 4.890625 17.1875 
L 4.890625 26.703125 
z
" id="DejaVuSans-52"/>
       </defs>
       <use xlink:href="#DejaVuSans-52"/>
      </g>
     </g>
    </g>
    <g id="xtick_4">
     <g id="line2d_11">
      <path clip-path="url(#pf9fab802e5)" d="M 298.532571 298.944 
L 298.532571 27.648 
" style="fill:none;stroke:#b0b0b0;stroke-linecap:square;stroke-width:0.8;"/>
     </g>
     <g id="line2d_12">
      <g>
       <use style="stroke:#000000;stroke-width:0.8;" x="298.532571" xlink:href="#m5e1943b6dc" y="298.944"/>
      </g>
     </g>
     <g id="text_4">
      <!-- 6 -->
      <g transform="translate(292.170071 321.140875)scale(0.2 -0.2)">
       <defs>
        <path d="M 33.015625 40.375 
Q 26.375 40.375 22.484375 35.828125 
Q 18.609375 31.296875 18.609375 23.390625 
Q 18.609375 15.53125 22.484375 10.953125 
Q 26.375 6.390625 33.015625 6.390625 
Q 39.65625 6.390625 43.53125 10.953125 
Q 47.40625 15.53125 47.40625 23.390625 
Q 47.40625 31.296875 43.53125 35.828125 
Q 39.65625 40.375 33.015625 40.375 
z
M 52.59375 71.296875 
L 52.59375 62.3125 
Q 48.875 64.0625 45.09375 64.984375 
Q 41.3125 65.921875 37.59375 65.921875 
Q 27.828125 65.921875 22.671875 59.328125 
Q 17.53125 52.734375 16.796875 39.40625 
Q 19.671875 43.65625 24.015625 45.921875 
Q 28.375 48.1875 33.59375 48.1875 
Q 44.578125 48.1875 50.953125 41.515625 
Q 57.328125 34.859375 57.328125 23.390625 
Q 57.328125 12.15625 50.6875 5.359375 
Q 44.046875 -1.421875 33.015625 -1.421875 
Q 20.359375 -1.421875 13.671875 8.265625 
Q 6.984375 17.96875 6.984375 36.375 
Q 6.984375 53.65625 15.1875 63.9375 
Q 23.390625 74.21875 37.203125 74.21875 
Q 40.921875 74.21875 44.703125 73.484375 
Q 48.484375 72.75 52.59375 71.296875 
z
" id="DejaVuSans-54"/>
       </defs>
       <use xlink:href="#DejaVuSans-54"/>
      </g>
     </g>
    </g>
    <g id="xtick_5">
     <g id="line2d_13">
      <path clip-path="url(#pf9fab802e5)" d="M 97.755429 298.944 
L 97.755429 27.648 
" style="fill:none;stroke:#b0b0b0;stroke-linecap:square;stroke-width:0.8;"/>
     </g>
     <g id="line2d_14">
      <defs>
       <path d="M 0 0 
L 0 2 
" id="m3c1637ce04" style="stroke:#000000;stroke-width:0.6;"/>
      </defs>
      <g>
       <use style="stroke:#000000;stroke-width:0.6;" x="97.755429" xlink:href="#m3c1637ce04" y="298.944"/>
      </g>
     </g>
    </g>
    <g id="xtick_6">
     <g id="line2d_15">
      <path clip-path="url(#pf9fab802e5)" d="M 178.066286 298.944 
L 178.066286 27.648 
" style="fill:none;stroke:#b0b0b0;stroke-linecap:square;stroke-width:0.8;"/>
     </g>
     <g id="line2d_16">
      <g>
       <use style="stroke:#000000;stroke-width:0.6;" x="178.066286" xlink:href="#m3c1637ce04" y="298.944"/>
      </g>
     </g>
    </g>
    <g id="xtick_7">
     <g id="line2d_17">
      <path clip-path="url(#pf9fab802e5)" d="M 258.377143 298.944 
L 258.377143 27.648 
" style="fill:none;stroke:#b0b0b0;stroke-linecap:square;stroke-width:0.8;"/>
     </g>
     <g id="line2d_18">
      <g>
       <use style="stroke:#000000;stroke-width:0.6;" x="258.377143" xlink:href="#m3c1637ce04" y="298.944"/>
      </g>
     </g>
    </g>
    <g id="xtick_8">
     <g id="line2d_19">
      <path clip-path="url(#pf9fab802e5)" d="M 338.688 298.944 
L 338.688 27.648 
" style="fill:none;stroke:#b0b0b0;stroke-linecap:square;stroke-width:0.8;"/>
     </g>
     <g id="line2d_20">
      <g>
       <use style="stroke:#000000;stroke-width:0.6;" x="338.688" xlink:href="#m3c1637ce04" y="298.944"/>
      </g>
     </g>
    </g>
    <g id="text_5">
     <!-- log10(# f-evals / dimension) -->
     <g transform="translate(77.764078 342.217594)scale(0.17 -0.17)">
      <defs>
       <path d="M 9.421875 75.984375 
L 18.40625 75.984375 
L 18.40625 0 
L 9.421875 0 
z
" id="DejaVuSans-108"/>
       <path d="M 30.609375 48.390625 
Q 23.390625 48.390625 19.1875 42.75 
Q 14.984375 37.109375 14.984375 27.296875 
Q 14.984375 17.484375 19.15625 11.84375 
Q 23.34375 6.203125 30.609375 6.203125 
Q 37.796875 6.203125 41.984375 11.859375 
Q 46.1875 17.53125 46.1875 27.296875 
Q 46.1875 37.015625 41.984375 42.703125 
Q 37.796875 48.390625 30.609375 48.390625 
z
M 30.609375 56 
Q 42.328125 56 49.015625 48.375 
Q 55.71875 40.765625 55.71875 27.296875 
Q 55.71875 13.875 49.015625 6.21875 
Q 42.328125 -1.421875 30.609375 -1.421875 
Q 18.84375 -1.421875 12.171875 6.21875 
Q 5.515625 13.875 5.515625 27.296875 
Q 5.515625 40.765625 12.171875 48.375 
Q 18.84375 56 30.609375 56 
z
" id="DejaVuSans-111"/>
       <path d="M 45.40625 27.984375 
Q 45.40625 37.75 41.375 43.109375 
Q 37.359375 48.484375 30.078125 48.484375 
Q 22.859375 48.484375 18.828125 43.109375 
Q 14.796875 37.75 14.796875 27.984375 
Q 14.796875 18.265625 18.828125 12.890625 
Q 22.859375 7.515625 30.078125 7.515625 
Q 37.359375 7.515625 41.375 12.890625 
Q 45.40625 18.265625 45.40625 27.984375 
z
M 54.390625 6.78125 
Q 54.390625 -7.171875 48.1875 -13.984375 
Q 42 -20.796875 29.203125 -20.796875 
Q 24.46875 -20.796875 20.265625 -20.09375 
Q 16.0625 -19.390625 12.109375 -17.921875 
L 12.109375 -9.1875 
Q 16.0625 -11.328125 19.921875 -12.34375 
Q 23.78125 -13.375 27.78125 -13.375 
Q 36.625 -13.375 41.015625 -8.765625 
Q 45.40625 -4.15625 45.40625 5.171875 
L 45.40625 9.625 
Q 42.625 4.78125 38.28125 2.390625 
Q 33.9375 0 27.875 0 
Q 17.828125 0 11.671875 7.65625 
Q 5.515625 15.328125 5.515625 27.984375 
Q 5.515625 40.671875 11.671875 48.328125 
Q 17.828125 56 27.875 56 
Q 33.9375 56 38.28125 53.609375 
Q 42.625 51.21875 45.40625 46.390625 
L 45.40625 54.6875 
L 54.390625 54.6875 
z
" id="DejaVuSans-103"/>
       <path d="M 12.40625 8.296875 
L 28.515625 8.296875 
L 28.515625 63.921875 
L 10.984375 60.40625 
L 10.984375 69.390625 
L 28.421875 72.90625 
L 38.28125 72.90625 
L 38.28125 8.296875 
L 54.390625 8.296875 
L 54.390625 0 
L 12.40625 0 
z
" id="DejaVuSans-49"/>
       <path d="M 31 75.875 
Q 24.46875 64.65625 21.28125 53.65625 
Q 18.109375 42.671875 18.109375 31.390625 
Q 18.109375 20.125 21.3125 9.0625 
Q 24.515625 -2 31 -13.1875 
L 23.1875 -13.1875 
Q 15.875 -1.703125 12.234375 9.375 
Q 8.59375 20.453125 8.59375 31.390625 
Q 8.59375 42.28125 12.203125 53.3125 
Q 15.828125 64.359375 23.1875 75.875 
z
" id="DejaVuSans-40"/>
       <path d="M 51.125 44 
L 36.921875 44 
L 32.8125 27.6875 
L 47.125 27.6875 
z
M 43.796875 71.78125 
L 38.71875 51.515625 
L 52.984375 51.515625 
L 58.109375 71.78125 
L 65.921875 71.78125 
L 60.890625 51.515625 
L 76.125 51.515625 
L 76.125 44 
L 58.984375 44 
L 54.984375 27.6875 
L 70.515625 27.6875 
L 70.515625 20.21875 
L 53.078125 20.21875 
L 48 0 
L 40.1875 0 
L 45.21875 20.21875 
L 30.90625 20.21875 
L 25.875 0 
L 18.015625 0 
L 23.09375 20.21875 
L 7.71875 20.21875 
L 7.71875 27.6875 
L 24.90625 27.6875 
L 29 44 
L 13.28125 44 
L 13.28125 51.515625 
L 30.90625 51.515625 
L 35.890625 71.78125 
z
" id="DejaVuSans-35"/>
       <path id="DejaVuSans-32"/>
       <path d="M 37.109375 75.984375 
L 37.109375 68.5 
L 28.515625 68.5 
Q 23.6875 68.5 21.796875 66.546875 
Q 19.921875 64.59375 19.921875 59.515625 
L 19.921875 54.6875 
L 34.71875 54.6875 
L 34.71875 47.703125 
L 19.921875 47.703125 
L 19.921875 0 
L 10.890625 0 
L 10.890625 47.703125 
L 2.296875 47.703125 
L 2.296875 54.6875 
L 10.890625 54.6875 
L 10.890625 58.5 
Q 10.890625 67.625 15.140625 71.796875 
Q 19.390625 75.984375 28.609375 75.984375 
z
" id="DejaVuSans-102"/>
       <path d="M 4.890625 31.390625 
L 31.203125 31.390625 
L 31.203125 23.390625 
L 4.890625 23.390625 
z
" id="DejaVuSans-45"/>
       <path d="M 56.203125 29.59375 
L 56.203125 25.203125 
L 14.890625 25.203125 
Q 15.484375 15.921875 20.484375 11.0625 
Q 25.484375 6.203125 34.421875 6.203125 
Q 39.59375 6.203125 44.453125 7.46875 
Q 49.3125 8.734375 54.109375 11.28125 
L 54.109375 2.78125 
Q 49.265625 0.734375 44.1875 -0.34375 
Q 39.109375 -1.421875 33.890625 -1.421875 
Q 20.796875 -1.421875 13.15625 6.1875 
Q 5.515625 13.8125 5.515625 26.8125 
Q 5.515625 40.234375 12.765625 48.109375 
Q 20.015625 56 32.328125 56 
Q 43.359375 56 49.78125 48.890625 
Q 56.203125 41.796875 56.203125 29.59375 
z
M 47.21875 32.234375 
Q 47.125 39.59375 43.09375 43.984375 
Q 39.0625 48.390625 32.421875 48.390625 
Q 24.90625 48.390625 20.390625 44.140625 
Q 15.875 39.890625 15.1875 32.171875 
z
" id="DejaVuSans-101"/>
       <path d="M 2.984375 54.6875 
L 12.5 54.6875 
L 29.59375 8.796875 
L 46.6875 54.6875 
L 56.203125 54.6875 
L 35.6875 0 
L 23.484375 0 
z
" id="DejaVuSans-118"/>
       <path d="M 34.28125 27.484375 
Q 23.390625 27.484375 19.1875 25 
Q 14.984375 22.515625 14.984375 16.5 
Q 14.984375 11.71875 18.140625 8.90625 
Q 21.296875 6.109375 26.703125 6.109375 
Q 34.1875 6.109375 38.703125 11.40625 
Q 43.21875 16.703125 43.21875 25.484375 
L 43.21875 27.484375 
z
M 52.203125 31.203125 
L 52.203125 0 
L 43.21875 0 
L 43.21875 8.296875 
Q 40.140625 3.328125 35.546875 0.953125 
Q 30.953125 -1.421875 24.3125 -1.421875 
Q 15.921875 -1.421875 10.953125 3.296875 
Q 6 8.015625 6 15.921875 
Q 6 25.140625 12.171875 29.828125 
Q 18.359375 34.515625 30.609375 34.515625 
L 43.21875 34.515625 
L 43.21875 35.40625 
Q 43.21875 41.609375 39.140625 45 
Q 35.0625 48.390625 27.6875 48.390625 
Q 23 48.390625 18.546875 47.265625 
Q 14.109375 46.140625 10.015625 43.890625 
L 10.015625 52.203125 
Q 14.9375 54.109375 19.578125 55.046875 
Q 24.21875 56 28.609375 56 
Q 40.484375 56 46.34375 49.84375 
Q 52.203125 43.703125 52.203125 31.203125 
z
" id="DejaVuSans-97"/>
       <path d="M 44.28125 53.078125 
L 44.28125 44.578125 
Q 40.484375 46.53125 36.375 47.5 
Q 32.28125 48.484375 27.875 48.484375 
Q 21.1875 48.484375 17.84375 46.4375 
Q 14.5 44.390625 14.5 40.28125 
Q 14.5 37.15625 16.890625 35.375 
Q 19.28125 33.59375 26.515625 31.984375 
L 29.59375 31.296875 
Q 39.15625 29.25 43.1875 25.515625 
Q 47.21875 21.78125 47.21875 15.09375 
Q 47.21875 7.46875 41.1875 3.015625 
Q 35.15625 -1.421875 24.609375 -1.421875 
Q 20.21875 -1.421875 15.453125 -0.5625 
Q 10.6875 0.296875 5.421875 2 
L 5.421875 11.28125 
Q 10.40625 8.6875 15.234375 7.390625 
Q 20.0625 6.109375 24.8125 6.109375 
Q 31.15625 6.109375 34.5625 8.28125 
Q 37.984375 10.453125 37.984375 14.40625 
Q 37.984375 18.0625 35.515625 20.015625 
Q 33.0625 21.96875 24.703125 23.78125 
L 21.578125 24.515625 
Q 13.234375 26.265625 9.515625 29.90625 
Q 5.8125 33.546875 5.8125 39.890625 
Q 5.8125 47.609375 11.28125 51.796875 
Q 16.75 56 26.8125 56 
Q 31.78125 56 36.171875 55.265625 
Q 40.578125 54.546875 44.28125 53.078125 
z
" id="DejaVuSans-115"/>
       <path d="M 25.390625 72.90625 
L 33.6875 72.90625 
L 8.296875 -9.28125 
L 0 -9.28125 
z
" id="DejaVuSans-47"/>
       <path d="M 45.40625 46.390625 
L 45.40625 75.984375 
L 54.390625 75.984375 
L 54.390625 0 
L 45.40625 0 
L 45.40625 8.203125 
Q 42.578125 3.328125 38.25 0.953125 
Q 33.9375 -1.421875 27.875 -1.421875 
Q 17.96875 -1.421875 11.734375 6.484375 
Q 5.515625 14.40625 5.515625 27.296875 
Q 5.515625 40.1875 11.734375 48.09375 
Q 17.96875 56 27.875 56 
Q 33.9375 56 38.25 53.625 
Q 42.578125 51.265625 45.40625 46.390625 
z
M 14.796875 27.296875 
Q 14.796875 17.390625 18.875 11.75 
Q 22.953125 6.109375 30.078125 6.109375 
Q 37.203125 6.109375 41.296875 11.75 
Q 45.40625 17.390625 45.40625 27.296875 
Q 45.40625 37.203125 41.296875 42.84375 
Q 37.203125 48.484375 30.078125 48.484375 
Q 22.953125 48.484375 18.875 42.84375 
Q 14.796875 37.203125 14.796875 27.296875 
z
" id="DejaVuSans-100"/>
       <path d="M 9.421875 54.6875 
L 18.40625 54.6875 
L 18.40625 0 
L 9.421875 0 
z
M 9.421875 75.984375 
L 18.40625 75.984375 
L 18.40625 64.59375 
L 9.421875 64.59375 
z
" id="DejaVuSans-105"/>
       <path d="M 52 44.1875 
Q 55.375 50.25 60.0625 53.125 
Q 64.75 56 71.09375 56 
Q 79.640625 56 84.28125 50.015625 
Q 88.921875 44.046875 88.921875 33.015625 
L 88.921875 0 
L 79.890625 0 
L 79.890625 32.71875 
Q 79.890625 40.578125 77.09375 44.375 
Q 74.3125 48.1875 68.609375 48.1875 
Q 61.625 48.1875 57.5625 43.546875 
Q 53.515625 38.921875 53.515625 30.90625 
L 53.515625 0 
L 44.484375 0 
L 44.484375 32.71875 
Q 44.484375 40.625 41.703125 44.40625 
Q 38.921875 48.1875 33.109375 48.1875 
Q 26.21875 48.1875 22.15625 43.53125 
Q 18.109375 38.875 18.109375 30.90625 
L 18.109375 0 
L 9.078125 0 
L 9.078125 54.6875 
L 18.109375 54.6875 
L 18.109375 46.1875 
Q 21.1875 51.21875 25.484375 53.609375 
Q 29.78125 56 35.6875 56 
Q 41.65625 56 45.828125 52.96875 
Q 50 49.953125 52 44.1875 
z
" id="DejaVuSans-109"/>
       <path d="M 54.890625 33.015625 
L 54.890625 0 
L 45.90625 0 
L 45.90625 32.71875 
Q 45.90625 40.484375 42.875 44.328125 
Q 39.84375 48.1875 33.796875 48.1875 
Q 26.515625 48.1875 22.3125 43.546875 
Q 18.109375 38.921875 18.109375 30.90625 
L 18.109375 0 
L 9.078125 0 
L 9.078125 54.6875 
L 18.109375 54.6875 
L 18.109375 46.1875 
Q 21.34375 51.125 25.703125 53.5625 
Q 30.078125 56 35.796875 56 
Q 45.21875 56 50.046875 50.171875 
Q 54.890625 44.34375 54.890625 33.015625 
z
" id="DejaVuSans-110"/>
       <path d="M 8.015625 75.875 
L 15.828125 75.875 
Q 23.140625 64.359375 26.78125 53.3125 
Q 30.421875 42.28125 30.421875 31.390625 
Q 30.421875 20.453125 26.78125 9.375 
Q 23.140625 -1.703125 15.828125 -13.1875 
L 8.015625 -13.1875 
Q 14.5 -2 17.703125 9.0625 
Q 20.90625 20.125 20.90625 31.390625 
Q 20.90625 42.671875 17.703125 53.65625 
Q 14.5 64.65625 8.015625 75.875 
z
" id="DejaVuSans-41"/>
      </defs>
      <use xlink:href="#DejaVuSans-108"/>
      <use x="27.783203" xlink:href="#DejaVuSans-111"/>
      <use x="88.964844" xlink:href="#DejaVuSans-103"/>
      <use x="152.441406" xlink:href="#DejaVuSans-49"/>
      <use x="216.064453" xlink:href="#DejaVuSans-48"/>
      <use x="279.6875" xlink:href="#DejaVuSans-40"/>
      <use x="318.701172" xlink:href="#DejaVuSans-35"/>
      <use x="402.490234" xlink:href="#DejaVuSans-32"/>
      <use x="434.277344" xlink:href="#DejaVuSans-102"/>
      <use x="463.982422" xlink:href="#DejaVuSans-45"/>
      <use x="500.066406" xlink:href="#DejaVuSans-101"/>
      <use x="561.589844" xlink:href="#DejaVuSans-118"/>
      <use x="620.769531" xlink:href="#DejaVuSans-97"/>
      <use x="682.048828" xlink:href="#DejaVuSans-108"/>
      <use x="709.832031" xlink:href="#DejaVuSans-115"/>
      <use x="761.931641" xlink:href="#DejaVuSans-32"/>
      <use x="793.71875" xlink:href="#DejaVuSans-47"/>
      <use x="827.410156" xlink:href="#DejaVuSans-32"/>
      <use x="859.197266" xlink:href="#DejaVuSans-100"/>
      <use x="922.673828" xlink:href="#DejaVuSans-105"/>
      <use x="950.457031" xlink:href="#DejaVuSans-109"/>
      <use x="1047.869141" xlink:href="#DejaVuSans-101"/>
      <use x="1109.392578" xlink:href="#DejaVuSans-110"/>
      <use x="1172.771484" xlink:href="#DejaVuSans-115"/>
      <use x="1224.871094" xlink:href="#DejaVuSans-105"/>
      <use x="1252.654297" xlink:href="#DejaVuSans-111"/>
      <use x="1313.835938" xlink:href="#DejaVuSans-110"/>
      <use x="1377.214844" xlink:href="#DejaVuSans-41"/>
     </g>
    </g>
   </g>
   <g id="matplotlib.axis_2">
    <g id="ytick_1">
     <g id="line2d_21">
      <path clip-path="url(#pf9fab802e5)" d="M 57.6 298.944 
L 338.688 298.944 
" style="fill:none;stroke:#b0b0b0;stroke-linecap:square;stroke-width:0.8;"/>
     </g>
     <g id="line2d_22">
      <defs>
       <path d="M 0 0 
L -3.5 0 
" id="m169e2bb92c" style="stroke:#000000;stroke-width:0.8;"/>
      </defs>
      <g>
       <use style="stroke:#000000;stroke-width:0.8;" x="57.6" xlink:href="#m169e2bb92c" y="298.944"/>
      </g>
     </g>
     <g id="text_6">
      <!-- 0.0 -->
      <g transform="translate(25.155 305.02275)scale(0.16 -0.16)">
       <defs>
        <path d="M 10.6875 12.40625 
L 21 12.40625 
L 21 0 
L 10.6875 0 
z
" id="DejaVuSans-46"/>
       </defs>
       <use xlink:href="#DejaVuSans-48"/>
       <use x="63.623047" xlink:href="#DejaVuSans-46"/>
       <use x="95.410156" xlink:href="#DejaVuSans-48"/>
      </g>
     </g>
    </g>
    <g id="ytick_2">
     <g id="line2d_23">
      <path clip-path="url(#pf9fab802e5)" d="M 57.6 245.22202 
L 338.688 245.22202 
" style="fill:none;stroke:#b0b0b0;stroke-linecap:square;stroke-width:0.8;"/>
     </g>
     <g id="line2d_24">
      <g>
       <use style="stroke:#000000;stroke-width:0.8;" x="57.6" xlink:href="#m169e2bb92c" y="245.22202"/>
      </g>
     </g>
     <g id="text_7">
      <!-- 0.2 -->
      <g transform="translate(25.155 251.30077)scale(0.16 -0.16)">
       <use xlink:href="#DejaVuSans-48"/>
       <use x="63.623047" xlink:href="#DejaVuSans-46"/>
       <use x="95.410156" xlink:href="#DejaVuSans-50"/>
      </g>
     </g>
    </g>
    <g id="ytick_3">
     <g id="line2d_25">
      <path clip-path="url(#pf9fab802e5)" d="M 57.6 191.50004 
L 338.688 191.50004 
" style="fill:none;stroke:#b0b0b0;stroke-linecap:square;stroke-width:0.8;"/>
     </g>
     <g id="line2d_26">
      <g>
       <use style="stroke:#000000;stroke-width:0.8;" x="57.6" xlink:href="#m169e2bb92c" y="191.50004"/>
      </g>
     </g>
     <g id="text_8">
      <!-- 0.4 -->
      <g transform="translate(25.155 197.57879)scale(0.16 -0.16)">
       <use xlink:href="#DejaVuSans-48"/>
       <use x="63.623047" xlink:href="#DejaVuSans-46"/>
       <use x="95.410156" xlink:href="#DejaVuSans-52"/>
      </g>
     </g>
    </g>
    <g id="ytick_4">
     <g id="line2d_27">
      <path clip-path="url(#pf9fab802e5)" d="M 57.6 137.778059 
L 338.688 137.778059 
" style="fill:none;stroke:#b0b0b0;stroke-linecap:square;stroke-width:0.8;"/>
     </g>
     <g id="line2d_28">
      <g>
       <use style="stroke:#000000;stroke-width:0.8;" x="57.6" xlink:href="#m169e2bb92c" y="137.778059"/>
      </g>
     </g>
     <g id="text_9">
      <!-- 0.6 -->
      <g transform="translate(25.155 143.856809)scale(0.16 -0.16)">
       <use xlink:href="#DejaVuSans-48"/>
       <use x="63.623047" xlink:href="#DejaVuSans-46"/>
       <use x="95.410156" xlink:href="#DejaVuSans-54"/>
      </g>
     </g>
    </g>
    <g id="ytick_5">
     <g id="line2d_29">
      <path clip-path="url(#pf9fab802e5)" d="M 57.6 84.056079 
L 338.688 84.056079 
" style="fill:none;stroke:#b0b0b0;stroke-linecap:square;stroke-width:0.8;"/>
     </g>
     <g id="line2d_30">
      <g>
       <use style="stroke:#000000;stroke-width:0.8;" x="57.6" xlink:href="#m169e2bb92c" y="84.056079"/>
      </g>
     </g>
     <g id="text_10">
      <!-- 0.8 -->
      <g transform="translate(25.155 90.134829)scale(0.16 -0.16)">
       <defs>
        <path d="M 31.78125 34.625 
Q 24.75 34.625 20.71875 30.859375 
Q 16.703125 27.09375 16.703125 20.515625 
Q 16.703125 13.921875 20.71875 10.15625 
Q 24.75 6.390625 31.78125 6.390625 
Q 38.8125 6.390625 42.859375 10.171875 
Q 46.921875 13.96875 46.921875 20.515625 
Q 46.921875 27.09375 42.890625 30.859375 
Q 38.875 34.625 31.78125 34.625 
z
M 21.921875 38.8125 
Q 15.578125 40.375 12.03125 44.71875 
Q 8.5 49.078125 8.5 55.328125 
Q 8.5 64.0625 14.71875 69.140625 
Q 20.953125 74.21875 31.78125 74.21875 
Q 42.671875 74.21875 48.875 69.140625 
Q 55.078125 64.0625 55.078125 55.328125 
Q 55.078125 49.078125 51.53125 44.71875 
Q 48 40.375 41.703125 38.8125 
Q 48.828125 37.15625 52.796875 32.3125 
Q 56.78125 27.484375 56.78125 20.515625 
Q 56.78125 9.90625 50.3125 4.234375 
Q 43.84375 -1.421875 31.78125 -1.421875 
Q 19.734375 -1.421875 13.25 4.234375 
Q 6.78125 9.90625 6.78125 20.515625 
Q 6.78125 27.484375 10.78125 32.3125 
Q 14.796875 37.15625 21.921875 38.8125 
z
M 18.3125 54.390625 
Q 18.3125 48.734375 21.84375 45.5625 
Q 25.390625 42.390625 31.78125 42.390625 
Q 38.140625 42.390625 41.71875 45.5625 
Q 45.3125 48.734375 45.3125 54.390625 
Q 45.3125 60.0625 41.71875 63.234375 
Q 38.140625 66.40625 31.78125 66.40625 
Q 25.390625 66.40625 21.84375 63.234375 
Q 18.3125 60.0625 18.3125 54.390625 
z
" id="DejaVuSans-56"/>
       </defs>
       <use xlink:href="#DejaVuSans-48"/>
       <use x="63.623047" xlink:href="#DejaVuSans-46"/>
       <use x="95.410156" xlink:href="#DejaVuSans-56"/>
      </g>
     </g>
    </g>
    <g id="ytick_6">
     <g id="line2d_31">
      <path clip-path="url(#pf9fab802e5)" d="M 57.6 30.334099 
L 338.688 30.334099 
" style="fill:none;stroke:#b0b0b0;stroke-linecap:square;stroke-width:0.8;"/>
     </g>
     <g id="line2d_32">
      <g>
       <use style="stroke:#000000;stroke-width:0.8;" x="57.6" xlink:href="#m169e2bb92c" y="30.334099"/>
      </g>
     </g>
     <g id="text_11">
      <!-- 1.0 -->
      <g transform="translate(25.155 36.412849)scale(0.16 -0.16)">
       <use xlink:href="#DejaVuSans-49"/>
       <use x="63.623047" xlink:href="#DejaVuSans-46"/>
       <use x="95.410156" xlink:href="#DejaVuSans-48"/>
      </g>
     </g>
    </g>
    <g id="text_12">
     <!-- Fraction of function,target pairs -->
     <g transform="translate(17.619531 297.681)rotate(-90)scale(0.17 -0.17)">
      <defs>
       <path d="M 9.8125 72.90625 
L 51.703125 72.90625 
L 51.703125 64.59375 
L 19.671875 64.59375 
L 19.671875 43.109375 
L 48.578125 43.109375 
L 48.578125 34.8125 
L 19.671875 34.8125 
L 19.671875 0 
L 9.8125 0 
z
" id="DejaVuSans-70"/>
       <path d="M 41.109375 46.296875 
Q 39.59375 47.171875 37.8125 47.578125 
Q 36.03125 48 33.890625 48 
Q 26.265625 48 22.1875 43.046875 
Q 18.109375 38.09375 18.109375 28.8125 
L 18.109375 0 
L 9.078125 0 
L 9.078125 54.6875 
L 18.109375 54.6875 
L 18.109375 46.1875 
Q 20.953125 51.171875 25.484375 53.578125 
Q 30.03125 56 36.53125 56 
Q 37.453125 56 38.578125 55.875 
Q 39.703125 55.765625 41.0625 55.515625 
z
" id="DejaVuSans-114"/>
       <path d="M 48.78125 52.59375 
L 48.78125 44.1875 
Q 44.96875 46.296875 41.140625 47.34375 
Q 37.3125 48.390625 33.40625 48.390625 
Q 24.65625 48.390625 19.8125 42.84375 
Q 14.984375 37.3125 14.984375 27.296875 
Q 14.984375 17.28125 19.8125 11.734375 
Q 24.65625 6.203125 33.40625 6.203125 
Q 37.3125 6.203125 41.140625 7.25 
Q 44.96875 8.296875 48.78125 10.40625 
L 48.78125 2.09375 
Q 45.015625 0.34375 40.984375 -0.53125 
Q 36.96875 -1.421875 32.421875 -1.421875 
Q 20.0625 -1.421875 12.78125 6.34375 
Q 5.515625 14.109375 5.515625 27.296875 
Q 5.515625 40.671875 12.859375 48.328125 
Q 20.21875 56 33.015625 56 
Q 37.15625 56 41.109375 55.140625 
Q 45.0625 54.296875 48.78125 52.59375 
z
" id="DejaVuSans-99"/>
       <path d="M 18.3125 70.21875 
L 18.3125 54.6875 
L 36.8125 54.6875 
L 36.8125 47.703125 
L 18.3125 47.703125 
L 18.3125 18.015625 
Q 18.3125 11.328125 20.140625 9.421875 
Q 21.96875 7.515625 27.59375 7.515625 
L 36.8125 7.515625 
L 36.8125 0 
L 27.59375 0 
Q 17.1875 0 13.234375 3.875 
Q 9.28125 7.765625 9.28125 18.015625 
L 9.28125 47.703125 
L 2.6875 47.703125 
L 2.6875 54.6875 
L 9.28125 54.6875 
L 9.28125 70.21875 
z
" id="DejaVuSans-116"/>
       <path d="M 8.5 21.578125 
L 8.5 54.6875 
L 17.484375 54.6875 
L 17.484375 21.921875 
Q 17.484375 14.15625 20.5 10.265625 
Q 23.53125 6.390625 29.59375 6.390625 
Q 36.859375 6.390625 41.078125 11.03125 
Q 45.3125 15.671875 45.3125 23.6875 
L 45.3125 54.6875 
L 54.296875 54.6875 
L 54.296875 0 
L 45.3125 0 
L 45.3125 8.40625 
Q 42.046875 3.421875 37.71875 1 
Q 33.40625 -1.421875 27.6875 -1.421875 
Q 18.265625 -1.421875 13.375 4.4375 
Q 8.5 10.296875 8.5 21.578125 
z
M 31.109375 56 
z
" id="DejaVuSans-117"/>
       <path d="M 11.71875 12.40625 
L 22.015625 12.40625 
L 22.015625 4 
L 14.015625 -11.625 
L 7.71875 -11.625 
L 11.71875 4 
z
" id="DejaVuSans-44"/>
       <path d="M 18.109375 8.203125 
L 18.109375 -20.796875 
L 9.078125 -20.796875 
L 9.078125 54.6875 
L 18.109375 54.6875 
L 18.109375 46.390625 
Q 20.953125 51.265625 25.265625 53.625 
Q 29.59375 56 35.59375 56 
Q 45.5625 56 51.78125 48.09375 
Q 58.015625 40.1875 58.015625 27.296875 
Q 58.015625 14.40625 51.78125 6.484375 
Q 45.5625 -1.421875 35.59375 -1.421875 
Q 29.59375 -1.421875 25.265625 0.953125 
Q 20.953125 3.328125 18.109375 8.203125 
z
M 48.6875 27.296875 
Q 48.6875 37.203125 44.609375 42.84375 
Q 40.53125 48.484375 33.40625 48.484375 
Q 26.265625 48.484375 22.1875 42.84375 
Q 18.109375 37.203125 18.109375 27.296875 
Q 18.109375 17.390625 22.1875 11.75 
Q 26.265625 6.109375 33.40625 6.109375 
Q 40.53125 6.109375 44.609375 11.75 
Q 48.6875 17.390625 48.6875 27.296875 
z
" id="DejaVuSans-112"/>
      </defs>
      <use xlink:href="#DejaVuSans-70"/>
      <use x="50.269531" xlink:href="#DejaVuSans-114"/>
      <use x="91.382812" xlink:href="#DejaVuSans-97"/>
      <use x="152.662109" xlink:href="#DejaVuSans-99"/>
      <use x="207.642578" xlink:href="#DejaVuSans-116"/>
      <use x="246.851562" xlink:href="#DejaVuSans-105"/>
      <use x="274.634766" xlink:href="#DejaVuSans-111"/>
      <use x="335.816406" xlink:href="#DejaVuSans-110"/>
      <use x="399.195312" xlink:href="#DejaVuSans-32"/>
      <use x="430.982422" xlink:href="#DejaVuSans-111"/>
      <use x="492.164062" xlink:href="#DejaVuSans-102"/>
      <use x="527.369141" xlink:href="#DejaVuSans-32"/>
      <use x="559.15625" xlink:href="#DejaVuSans-102"/>
      <use x="594.361328" xlink:href="#DejaVuSans-117"/>
      <use x="657.740234" xlink:href="#DejaVuSans-110"/>
      <use x="721.119141" xlink:href="#DejaVuSans-99"/>
      <use x="776.099609" xlink:href="#DejaVuSans-116"/>
      <use x="815.308594" xlink:href="#DejaVuSans-105"/>
      <use x="843.091797" xlink:href="#DejaVuSans-111"/>
      <use x="904.273438" xlink:href="#DejaVuSans-110"/>
      <use x="967.652344" xlink:href="#DejaVuSans-44"/>
      <use x="999.439453" xlink:href="#DejaVuSans-116"/>
      <use x="1038.648438" xlink:href="#DejaVuSans-97"/>
      <use x="1099.927734" xlink:href="#DejaVuSans-114"/>
      <use x="1139.291016" xlink:href="#DejaVuSans-103"/>
      <use x="1202.767578" xlink:href="#DejaVuSans-101"/>
      <use x="1264.291016" xlink:href="#DejaVuSans-116"/>
      <use x="1303.5" xlink:href="#DejaVuSans-32"/>
      <use x="1335.287109" xlink:href="#DejaVuSans-112"/>
      <use x="1398.763672" xlink:href="#DejaVuSans-97"/>
      <use x="1460.042969" xlink:href="#DejaVuSans-105"/>
      <use x="1487.826172" xlink:href="#DejaVuSans-114"/>
      <use x="1528.939453" xlink:href="#DejaVuSans-115"/>
     </g>
    </g>
   </g>
   <g id="line2d_33">
    <defs>
     <path d="M 0 1.5 
C 0.397805 1.5 0.77937 1.341951 1.06066 1.06066 
C 1.341951 0.77937 1.5 0.397805 1.5 0 
C 1.5 -0.397805 1.341951 -0.77937 1.06066 -1.06066 
C 0.77937 -1.341951 0.397805 -1.5 0 -1.5 
C -0.397805 -1.5 -0.77937 -1.341951 -1.06066 -1.06066 
C -1.341951 -0.77937 -1.5 -0.397805 -1.5 0 
C -1.5 0.397805 -1.341951 0.77937 -1.06066 1.06066 
C -0.77937 1.341951 -0.397805 1.5 0 1.5 
z
" id="me68bc6d260" style="stroke:#f5deb3;"/>
    </defs>
    <g>
     <use style="fill:#f5deb3;stroke:#f5deb3;" x="161.6095" xlink:href="#me68bc6d260" y="30.334099"/>
     <use style="fill:#f5deb3;stroke:#f5deb3;" x="161.6095" xlink:href="#me68bc6d260" y="30.334099"/>
    </g>
   </g>
   <g id="line2d_34">
    <defs>
     <path d="M 0 1.5 
C 0.397805 1.5 0.77937 1.341951 1.06066 1.06066 
C 1.341951 0.77937 1.5 0.397805 1.5 0 
C 1.5 -0.397805 1.341951 -0.77937 1.06066 -1.06066 
C 0.77937 -1.341951 0.397805 -1.5 0 -1.5 
C -0.397805 -1.5 -0.77937 -1.341951 -1.06066 -1.06066 
C -1.341951 -0.77937 -1.5 -0.397805 -1.5 0 
C -1.5 0.397805 -1.341951 0.77937 -1.06066 1.06066 
C -0.77937 1.341951 -0.397805 1.5 0 1.5 
z
" id="m129b772685" style="stroke:#000080;"/>
    </defs>
    <g>
     <use style="fill:#000080;stroke:#000080;" x="206.157427" xlink:href="#m129b772685" y="30.334099"/>
     <use style="fill:#000080;stroke:#000080;" x="206.157427" xlink:href="#m129b772685" y="30.334099"/>
    </g>
   </g>
   <g id="line2d_35">
    <path d="M 29.53256 298.944 
L 29.53256 289.463651 
L 41.620548 289.463651 
L 41.620548 288.410278 
L 48.691568 288.410278 
L 48.691568 285.776848 
L 53.708537 285.776848 
L 53.708537 285.250162 
L 57.6 285.250162 
L 57.6 284.723476 
L 60.779557 284.723476 
L 60.779557 284.19679 
L 69.687988 284.19679 
L 69.687988 283.670104 
L 71.35013 283.670104 
L 71.35013 283.143418 
L 74.263433 283.143418 
L 74.263433 282.616732 
L 75.555822 282.616732 
L 75.555822 282.090045 
L 76.759008 282.090045 
L 76.759008 281.036673 
L 77.884514 281.036673 
L 77.884514 280.509987 
L 78.941764 280.509987 
L 78.941764 278.929929 
L 79.938565 278.929929 
L 79.938565 278.403243 
L 81.775977 278.403243 
L 81.775977 275.769812 
L 82.626842 275.769812 
L 82.626842 275.243126 
L 83.438118 275.243126 
L 83.438118 274.71644 
L 84.213325 274.71644 
L 84.213325 274.189754 
L 86.351421 274.189754 
L 86.351421 273.663068 
L 88.846997 273.663068 
L 88.846997 272.08301 
L 89.972502 272.08301 
L 89.972502 271.029638 
L 92.026554 271.029638 
L 92.026554 270.502952 
L 93.422441 270.502952 
L 93.422441 269.976266 
L 98.771596 269.976266 
L 98.771596 269.449579 
L 100.641881 269.449579 
L 100.641881 268.396207 
L 102.597126 268.396207 
L 102.597126 266.816149 
L 108.389302 266.816149 
L 108.389302 265.762777 
L 108.764355 265.762777 
L 108.764355 264.709405 
L 110.358901 264.709405 
L 110.358901 264.182719 
L 111.346294 264.182719 
L 111.346294 263.129347 
L 114.148479 263.129347 
L 114.148479 262.60266 
L 114.418861 262.60266 
L 114.418861 262.075974 
L 114.685115 262.075974 
L 114.685115 261.549288 
L 115.33349 261.549288 
L 115.33349 261.022602 
L 117.373392 261.022602 
L 117.373392 260.495916 
L 117.709852 260.495916 
L 117.709852 259.442544 
L 119.996839 259.442544 
L 120.093994 257.862486 
L 121.931406 257.862486 
L 121.931406 257.3358 
L 122.191052 257.3358 
L 122.191052 256.809114 
L 122.531342 256.809114 
L 122.531342 256.282427 
L 123.514096 256.282427 
L 123.593547 255.229055 
L 123.672636 255.229055 
L 123.672636 254.702369 
L 124.062793 254.702369 
L 124.062793 254.175683 
L 126.168212 254.175683 
L 126.236468 252.595625 
L 127.985095 252.595625 
L 128.046609 251.542253 
L 128.290519 251.542253 
L 128.290519 251.015567 
L 128.590686 251.015567 
L 128.590686 250.488881 
L 129.347769 250.488881 
L 129.347769 248.382136 
L 131.740458 248.382136 
L 131.740458 247.85545 
L 132.133473 247.85545 
L 132.133473 247.328764 
L 132.940331 247.328764 
L 132.940331 246.275392 
L 133.307488 246.275392 
L 133.307488 245.748706 
L 135.482227 245.748706 
L 135.482227 244.695334 
L 135.602085 244.695334 
L 135.602085 244.168648 
L 135.995765 244.168648 
L 135.995765 243.641962 
L 137.558536 243.641962 
L 137.558536 242.588589 
L 139.058148 242.588589 
L 139.058148 242.061903 
L 139.220677 242.061903 
L 139.220677 241.535217 
L 139.477614 241.535217 
L 139.477614 241.008531 
L 140.195896 241.008531 
L 140.195896 240.481845 
L 156.788581 240.481845 
L 156.788581 239.955159 
L 156.976607 239.955159 
L 156.976607 239.428473 
L 157.506157 239.428473 
L 157.506157 238.901787 
L 157.641697 238.901787 
L 157.697862 237.321729 
L 157.831925 237.321729 
L 157.831925 236.795043 
L 158.042106 236.795043 
L 158.151718 233.634926 
L 158.184468 233.634926 
L 158.184468 233.10824 
L 158.636623 233.10824 
L 158.70027 230.47481 
L 159.087709 230.47481 
L 159.087709 229.421437 
L 159.303838 229.421437 
L 159.303838 228.894751 
L 159.436301 228.894751 
L 159.436301 228.368065 
L 160.044768 228.368065 
L 160.113253 227.314693 
L 160.181471 227.314693 
L 160.181471 225.207949 
L 160.384537 225.207949 
L 160.461277 222.574518 
L 160.604262 222.574518 
L 160.670589 221.521146 
L 160.764907 221.521146 
L 160.764907 219.941088 
L 160.989209 219.941088 
L 161.072584 217.307658 
L 161.173949 217.307658 
L 161.283861 214.674227 
L 161.465522 214.674227 
L 161.555647 212.040797 
L 161.654251 212.040797 
L 161.654251 210.460738 
L 161.955547 210.460738 
L 161.955547 208.88068 
L 162.225793 208.88068 
L 162.225793 205.720564 
L 162.712026 205.720564 
L 162.712026 204.667192 
L 162.829407 204.667192 
L 162.9377 202.560447 
L 168.935546 202.560447 
L 168.935546 200.980389 
L 169.146224 200.980389 
L 169.210094 198.346959 
L 169.342888 198.346959 
L 169.342888 197.293586 
L 169.752173 197.293586 
L 169.797062 195.186842 
L 170.135591 195.186842 
L 170.135591 194.13347 
L 170.256089 194.13347 
L 170.364915 191.50004 
L 170.37576 191.50004 
L 170.37576 190.446667 
L 170.618014 190.446667 
L 170.682051 187.813237 
L 170.782963 187.813237 
L 170.81471 183.599748 
L 170.935871 183.599748 
L 171.040549 181.493004 
L 171.092653 181.493004 
L 171.092653 180.439632 
L 171.217072 180.439632 
L 171.263501 178.332888 
L 171.350865 178.332888 
L 171.432691 176.226143 
L 171.53951 176.226143 
L 171.605309 173.066027 
L 171.655755 173.066027 
L 171.731152 169.379224 
L 171.86605 169.379224 
L 171.940545 167.27248 
L 172.068921 167.27248 
L 172.108232 166.219108 
L 172.22076 166.219108 
L 172.22076 163.585677 
L 172.385786 163.585677 
L 172.496543 162.005619 
L 172.630434 162.005619 
L 172.644719 159.372189 
L 172.753848 159.372189 
L 172.753848 158.845503 
L 172.9233 158.845503 
L 172.9233 158.318817 
L 176.228874 158.318817 
L 176.255981 156.738758 
L 176.367833 156.738758 
L 176.367833 156.212072 
L 176.494247 156.212072 
L 176.562816 153.578642 
L 176.687829 153.578642 
L 176.751882 149.365153 
L 176.823193 149.365153 
L 176.823193 148.838467 
L 177.171768 148.838467 
L 177.201114 147.258409 
L 177.303441 147.258409 
L 177.303441 144.624978 
L 177.499105 144.624978 
L 177.603284 142.518234 
L 177.621184 142.518234 
L 177.621184 141.991548 
L 180.169872 141.991548 
L 180.259296 139.358118 
L 180.332958 139.358118 
L 180.403259 136.198001 
L 180.530908 136.198001 
L 180.630553 134.091257 
L 180.681664 134.091257 
L 180.681664 131.984513 
L 181.105767 131.984513 
L 181.210929 128.29771 
L 181.242936 128.29771 
L 181.298082 125.137593 
L 181.468223 125.137593 
L 181.568375 122.504163 
L 181.806419 122.504163 
L 181.859814 120.397419 
L 181.97727 120.397419 
L 181.980057 118.290674 
L 182.088402 118.290674 
L 182.174044 114.603872 
L 182.24006 114.603872 
L 182.24006 114.077186 
L 184.919707 114.077186 
L 184.933828 110.917069 
L 185.090739 110.917069 
L 185.162865 108.283639 
L 185.248561 108.283639 
L 185.32924 104.596836 
L 185.491765 104.596836 
L 185.535002 102.490092 
L 185.618894 102.490092 
L 185.65279 100.383348 
L 185.760815 100.383348 
L 185.783237 97.749917 
L 185.954922 97.749917 
L 185.954922 96.169859 
L 187.735664 96.169859 
L 187.735664 95.643173 
L 191.539963 95.643173 
L 191.539963 95.116487 
L 193.064357 95.116487 
L 193.073211 92.483056 
L 193.2084 92.483056 
L 193.288721 90.376312 
L 193.344001 90.376312 
L 193.43093 87.216196 
L 193.511674 87.216196 
L 193.59491 84.056079 
L 193.700533 84.056079 
L 193.763035 80.895963 
L 196.643695 80.895963 
L 196.684516 78.262532 
L 196.761099 78.262532 
L 196.765874 76.155788 
L 196.875346 76.155788 
L 196.916813 72.995672 
L 197.01711 72.995672 
L 197.114494 69.308869 
L 201.936148 69.308869 
L 202.042313 65.622066 
L 202.074917 65.622066 
L 202.180243 61.935264 
L 202.230051 61.935264 
L 202.317091 55.615031 
L 204.308711 55.615031 
L 204.36902 51.401542 
L 204.462165 51.401542 
L 204.565504 44.027937 
L 204.577711 44.027937 
L 204.577711 42.447879 
L 205.868738 42.447879 
L 205.97395 39.287762 
L 205.982396 39.287762 
L 206.09252 34.020902 
L 206.120467 34.020902 
L 206.157427 30.334099 
L 338.688 30.334099 
L 338.688 30.334099 
" style="fill:none;stroke:#000080;stroke-linecap:square;stroke-width:1.5;"/>
   </g>
   <g id="line2d_36">
    <defs>
     <path d="M 0 6 
C 1.591219 6 3.117479 5.367802 4.242641 4.242641 
C 5.367802 3.117479 6 1.591219 6 0 
C 6 -1.591219 5.367802 -3.117479 4.242641 -4.242641 
C 3.117479 -5.367802 1.591219 -6 0 -6 
C -1.591219 -6 -3.117479 -5.367802 -4.242641 -4.242641 
C -5.367802 -3.117479 -6 -1.591219 -6 0 
C -6 1.591219 -5.367802 3.117479 -4.242641 4.242641 
C -3.117479 5.367802 -1.591219 6 0 6 
z
" id="md21d229234" style="stroke:#000080;stroke-width:1.5;"/>
    </defs>
    <g>
     <use style="fill-opacity:0;stroke:#000080;stroke-width:1.5;" x="108.764355" xlink:href="#md21d229234" y="264.709405"/>
     <use style="fill-opacity:0;stroke:#000080;stroke-width:1.5;" x="162.9377" xlink:href="#md21d229234" y="202.560447"/>
     <use style="fill-opacity:0;stroke:#000080;stroke-width:1.5;" x="197.114494" xlink:href="#md21d229234" y="69.308869"/>
     <use style="fill-opacity:0;stroke:#000080;stroke-width:1.5;" x="206.157427" xlink:href="#md21d229234" y="32.967529"/>
     <use style="fill-opacity:0;stroke:#000080;stroke-width:1.5;" x="206.157427" xlink:href="#md21d229234" y="30.334099"/>
     <use style="fill-opacity:0;stroke:#000080;stroke-width:1.5;" x="338.688" xlink:href="#md21d229234" y="30.334099"/>
    </g>
   </g>
   <g id="line2d_37">
    <path style="fill:none;stroke:#000080;stroke-linecap:square;stroke-width:1.5;"/>
    <g/>
   </g>
   <g id="line2d_38">
    <defs>
     <path d="M 0 1.5 
C 0.397805 1.5 0.77937 1.341951 1.06066 1.06066 
C 1.341951 0.77937 1.5 0.397805 1.5 0 
C 1.5 -0.397805 1.341951 -0.77937 1.06066 -1.06066 
C 0.77937 -1.341951 0.397805 -1.5 0 -1.5 
C -0.397805 -1.5 -0.77937 -1.341951 -1.06066 -1.06066 
C -1.341951 -0.77937 -1.5 -0.397805 -1.5 0 
C -1.5 0.397805 -1.341951 0.77937 -1.06066 1.06066 
C -0.77937 1.341951 -0.397805 1.5 0 1.5 
z
" id="m14050987bc" style="stroke:#ff00ff;"/>
    </defs>
    <g>
     <use style="fill:#ff00ff;stroke:#ff00ff;" x="270.545446" xlink:href="#m14050987bc" y="30.334099"/>
     <use style="fill:#ff00ff;stroke:#ff00ff;" x="270.545446" xlink:href="#m14050987bc" y="30.334099"/>
    </g>
   </g>
   <g id="line2d_39">
    <path d="M 29.53256 298.944 
L 29.53256 287.883592 
L 41.620548 287.883592 
L 41.620548 286.83022 
L 48.691568 286.83022 
L 48.691568 285.250162 
L 53.708537 285.250162 
L 53.708537 284.19679 
L 57.6 284.19679 
L 57.6 283.670104 
L 63.467834 283.670104 
L 63.467834 281.563359 
L 65.796525 281.563359 
L 65.796525 281.036673 
L 69.687988 281.036673 
L 69.687988 279.983301 
L 80.881459 279.983301 
L 80.881459 278.403243 
L 88.255778 278.403243 
L 88.255778 276.823185 
L 91.535274 276.823185 
L 91.535274 276.296499 
L 92.969447 276.296499 
L 92.969447 273.663068 
L 94.714831 273.663068 
L 94.714831 272.609696 
L 96.676366 272.609696 
L 96.676366 272.08301 
L 97.403108 272.08301 
L 97.403108 271.556324 
L 98.771596 271.556324 
L 98.771596 271.029638 
L 104.592361 271.029638 
L 104.592361 270.502952 
L 104.826449 270.502952 
L 104.826449 269.976266 
L 109.491096 269.976266 
L 109.491096 269.449579 
L 109.668146 269.449579 
L 109.668146 268.922893 
L 110.694282 268.922893 
L 110.694282 268.396207 
L 112.58145 268.396207 
L 112.58145 267.869521 
L 113.167699 267.869521 
L 113.167699 267.342835 
L 113.73488 267.342835 
L 113.73488 265.762777 
L 116.914437 265.762777 
L 116.914437 264.182719 
L 118.148599 264.182719 
L 118.148599 263.656033 
L 122.615387 263.656033 
L 122.615387 263.129347 
L 123.354102 263.129347 
L 123.354102 262.075974 
L 123.829748 262.075974 
L 123.829748 261.549288 
L 125.961828 261.549288 
L 125.961828 261.022602 
L 126.099688 261.022602 
L 126.099688 260.495916 
L 127.611382 260.495916 
L 127.611382 259.96923 
L 127.923363 259.96923 
L 127.923363 258.389172 
L 129.290685 258.389172 
L 129.290685 257.862486 
L 129.630422 257.862486 
L 129.630422 257.3358 
L 129.908566 257.3358 
L 129.908566 256.809114 
L 132.230358 256.809114 
L 132.230358 256.282427 
L 132.612604 256.282427 
L 132.612604 255.755741 
L 134.577155 255.755741 
L 134.577155 253.122311 
L 136.266147 253.122311 
L 136.266147 252.595625 
L 137.162581 252.595625 
L 137.162581 252.068939 
L 138.69516 252.068939 
L 138.69516 251.542253 
L 138.828032 251.542253 
L 138.828032 250.488881 
L 139.509467 250.488881 
L 139.509467 249.962195 
L 139.730821 249.962195 
L 139.730821 248.908822 
L 140.195896 248.908822 
L 140.195896 247.85545 
L 140.708409 247.85545 
L 140.708409 247.328764 
L 141.20629 247.328764 
L 141.20629 246.802078 
L 142.07914 246.802078 
L 142.07914 246.275392 
L 142.619936 246.275392 
L 142.619936 245.748706 
L 143.196061 245.748706 
L 143.196061 244.168648 
L 143.349938 244.168648 
L 143.349938 243.641962 
L 144.050606 243.641962 
L 144.050606 242.588589 
L 145.463466 242.588589 
L 145.463466 242.061903 
L 145.799493 242.061903 
L 145.799493 241.535217 
L 146.77039 241.535217 
L 146.854132 238.901787 
L 147.144103 238.901787 
L 147.185137 237.848415 
L 148.219468 237.848415 
L 148.219468 237.321729 
L 149.030744 237.321729 
L 149.030744 236.795043 
L 149.377533 236.795043 
L 149.377533 236.268356 
L 149.823575 236.268356 
L 149.823575 235.214984 
L 150.49739 235.214984 
L 150.49739 234.688298 
L 150.682827 234.688298 
L 150.682827 234.161612 
L 150.849711 234.161612 
L 150.849711 232.054868 
L 151.1298 232.054868 
L 151.227591 230.47481 
L 151.389366 230.47481 
L 151.389366 229.948123 
L 152.021866 229.948123 
L 152.068392 227.841379 
L 152.176471 227.841379 
L 152.176471 226.788007 
L 153.032466 226.788007 
L 153.032466 226.261321 
L 153.523746 226.261321 
L 153.523746 224.681263 
L 153.848404 224.681263 
L 153.848404 224.154577 
L 154.070741 224.154577 
L 154.070741 223.627891 
L 154.235652 223.627891 
L 154.317527 221.521146 
L 154.93278 221.521146 
L 154.93278 220.99446 
L 155.102793 220.99446 
L 155.102793 219.941088 
L 155.565128 219.941088 
L 155.666226 217.834344 
L 155.804285 217.834344 
L 155.804285 217.307658 
L 156.015522 217.307658 
L 156.015522 216.254285 
L 156.357959 216.254285 
L 156.357959 215.727599 
L 156.514691 215.727599 
L 156.514691 215.200913 
L 156.953214 215.200913 
L 156.999969 212.040797 
L 157.1279 212.040797 
L 157.1279 211.514111 
L 157.686643 211.514111 
L 157.686643 210.987425 
L 158.260646 210.987425 
L 158.260646 210.460738 
L 158.444276 210.460738 
L 158.51933 209.407366 
L 158.604712 209.407366 
L 158.604712 208.353994 
L 159.149734 208.353994 
L 159.149734 207.300622 
L 159.567767 207.300622 
L 159.567767 206.773936 
L 159.807898 206.773936 
L 159.807898 206.24725 
L 159.946463 206.24725 
L 159.946463 205.720564 
L 160.239731 205.720564 
L 160.297798 204.667192 
L 160.499521 204.667192 
L 160.499521 204.140506 
L 160.632719 204.140506 
L 160.717812 203.087133 
L 161.100288 203.087133 
L 161.100288 202.560447 
L 161.555647 202.560447 
L 161.555647 202.033761 
L 161.725614 202.033761 
L 161.725614 201.507075 
L 162.779197 201.507075 
L 162.779197 200.980389 
L 162.979172 200.980389 
L 162.979172 199.927017 
L 163.152289 199.927017 
L 163.250446 198.346959 
L 163.541647 198.346959 
L 163.565696 195.713528 
L 163.77274 195.713528 
L 163.77274 194.660156 
L 164.109855 194.660156 
L 164.179597 193.080098 
L 164.341251 193.080098 
L 164.37952 190.973354 
L 164.471025 190.973354 
L 164.471025 189.919981 
L 165.010195 189.919981 
L 165.054383 188.866609 
L 165.382267 188.866609 
L 165.403908 187.286551 
L 165.504548 187.286551 
L 165.597481 184.126434 
L 165.732422 184.126434 
L 165.732422 183.599748 
L 166.24138 183.599748 
L 166.24138 183.073062 
L 166.487008 183.073062 
L 166.487008 182.546376 
L 166.769268 182.546376 
L 166.769268 182.01969 
L 166.96153 182.01969 
L 166.96153 179.912946 
L 167.086355 179.912946 
L 167.086355 179.38626 
L 167.203791 179.38626 
L 167.203791 178.859574 
L 167.378477 178.859574 
L 167.423481 175.699457 
L 167.716371 175.699457 
L 167.716371 174.646085 
L 167.942207 174.646085 
L 167.998212 173.592713 
L 168.171308 173.592713 
L 168.226583 172.539341 
L 168.348793 172.539341 
L 168.348793 170.959282 
L 168.536542 170.959282 
L 168.536542 170.432596 
L 168.9532 170.432596 
L 169.05875 168.852538 
L 169.250616 168.852538 
L 169.348639 165.165736 
L 169.406043 165.165736 
L 169.503198 163.058991 
L 169.701534 163.058991 
L 169.701534 162.005619 
L 170.036379 162.005619 
L 170.052954 160.952247 
L 170.174022 160.952247 
L 170.228776 159.372189 
L 170.316028 159.372189 
L 170.321466 157.79213 
L 170.489231 157.79213 
L 170.489231 157.265444 
L 170.756464 157.265444 
L 170.756464 155.685386 
L 170.993522 155.685386 
L 171.009212 153.578642 
L 171.258348 153.578642 
L 171.35599 148.311781 
L 171.407162 148.311781 
L 171.514136 146.731723 
L 171.63055 146.731723 
L 171.63055 146.205037 
L 171.766226 146.205037 
L 171.831177 145.151665 
L 172.215882 145.151665 
L 172.240256 143.571606 
L 172.400273 143.571606 
L 172.400273 143.04492 
L 172.654236 143.04492 
L 172.654236 142.518234 
L 172.89048 142.518234 
L 172.89048 138.831432 
L 173.123567 138.831432 
L 173.188276 137.251373 
L 173.503742 137.251373 
L 173.585107 136.198001 
L 173.777957 136.198001 
L 173.777957 135.671315 
L 173.968698 135.671315 
L 173.968698 135.144629 
L 174.113678 135.144629 
L 174.113678 133.564571 
L 174.816832 133.564571 
L 174.816832 133.037885 
L 175.054729 133.037885 
L 175.054729 132.511199 
L 175.19099 132.511199 
L 175.232072 131.457826 
L 175.452258 131.457826 
L 175.452258 130.93114 
L 175.589481 130.93114 
L 175.589481 130.404454 
L 175.701682 130.404454 
L 175.801256 129.351082 
L 175.955464 129.351082 
L 176.018337 127.771024 
L 176.077075 127.771024 
L 176.151193 126.190966 
L 176.478973 126.190966 
L 176.578017 123.557535 
L 176.672724 123.557535 
L 176.759402 120.924105 
L 176.826938 120.924105 
L 176.871817 119.870733 
L 177.105556 119.870733 
L 177.135015 114.077186 
L 177.484686 114.077186 
L 177.484686 113.5505 
L 177.685469 113.5505 
L 177.685469 113.023814 
L 177.838089 113.023814 
L 177.838089 111.970441 
L 178.076746 111.970441 
L 178.090684 110.917069 
L 178.274311 110.917069 
L 178.356832 107.756953 
L 178.537693 107.756953 
L 178.537693 107.230267 
L 178.716697 107.230267 
L 178.716697 106.703581 
L 179.036327 106.703581 
L 179.036327 106.176895 
L 179.151416 106.176895 
L 179.151416 105.650209 
L 179.379341 105.650209 
L 179.379341 104.07015 
L 179.51147 104.07015 
L 179.591547 102.490092 
L 180.317637 102.490092 
L 180.323767 100.383348 
L 181.890653 100.383348 
L 181.890653 98.803289 
L 183.369512 98.803289 
L 183.369512 98.276603 
L 183.876725 98.276603 
L 183.876725 97.749917 
L 184.281906 97.749917 
L 184.281906 96.696545 
L 185.278571 96.696545 
L 185.278571 95.116487 
L 186.280242 95.116487 
L 186.280242 94.589801 
L 186.963553 94.589801 
L 186.963553 93.009743 
L 187.592842 93.009743 
L 187.592842 91.95637 
L 187.857443 91.95637 
L 187.857443 89.32294 
L 188.176787 89.32294 
L 188.176787 88.796254 
L 246.311184 88.796254 
L 246.420499 77.735846 
L 246.425276 77.735846 
L 246.528653 62.46195 
L 246.539383 62.46195 
L 246.640242 50.874856 
L 246.661218 50.874856 
L 246.718142 48.241426 
L 258.396246 48.241426 
L 258.499762 38.23439 
L 258.508488 38.23439 
L 258.574516 34.020902 
L 258.638886 34.020902 
L 258.675714 32.967529 
L 265.472003 32.967529 
L 265.555167 31.387471 
L 270.542234 31.387471 
L 270.545446 30.334099 
L 338.688 30.334099 
L 338.688 30.334099 
" style="fill:none;stroke:#ff00ff;stroke-linecap:square;stroke-width:1.5;"/>
   </g>
   <g id="line2d_40">
    <defs>
     <path d="M -0 8.485281 
L 5.091169 0 
L 0 -8.485281 
L -5.091169 -0 
z
" id="m4c898fce3f" style="stroke:#ff00ff;stroke-linejoin:miter;stroke-width:1.5;"/>
    </defs>
    <g>
     <use style="fill-opacity:0;stroke:#ff00ff;stroke-linejoin:miter;stroke-width:1.5;" x="94.714831" xlink:href="#m4c898fce3f" y="273.663068"/>
     <use style="fill-opacity:0;stroke:#ff00ff;stroke-linejoin:miter;stroke-width:1.5;" x="155.102793" xlink:href="#m4c898fce3f" y="219.941088"/>
     <use style="fill-opacity:0;stroke:#ff00ff;stroke-linejoin:miter;stroke-width:1.5;" x="188.176787" xlink:href="#m4c898fce3f" y="89.32294"/>
     <use style="fill-opacity:0;stroke:#ff00ff;stroke-linejoin:miter;stroke-width:1.5;" x="270.545446" xlink:href="#m4c898fce3f" y="30.860785"/>
     <use style="fill-opacity:0;stroke:#ff00ff;stroke-linejoin:miter;stroke-width:1.5;" x="270.545446" xlink:href="#m4c898fce3f" y="30.334099"/>
     <use style="fill-opacity:0;stroke:#ff00ff;stroke-linejoin:miter;stroke-width:1.5;" x="338.688" xlink:href="#m4c898fce3f" y="30.334099"/>
    </g>
   </g>
   <g id="line2d_41">
    <path style="fill:none;stroke:#ff00ff;stroke-linecap:square;stroke-width:1.5;"/>
    <g/>
   </g>
   <g id="line2d_42">
    <path clip-path="url(#pf9fab802e5)" d="M 246.289154 88.796254 
" style="fill:none;stroke:#ff00ff;stroke-linecap:square;stroke-width:1.5;"/>
    <defs>
     <path d="M -12 12 
L 12 -12 
M -12 -12 
L 12 12 
" id="m577f5f5ea1" style="stroke:#ff00ff;"/>
    </defs>
    <g clip-path="url(#pf9fab802e5)">
     <use style="fill:#ff00ff;stroke:#ff00ff;" x="246.289154" xlink:href="#m577f5f5ea1" y="88.796254"/>
    </g>
   </g>
   <g id="line2d_43">
    <defs>
     <path d="M 0 1.5 
C 0.397805 1.5 0.77937 1.341951 1.06066 1.06066 
C 1.341951 0.77937 1.5 0.397805 1.5 0 
C 1.5 -0.397805 1.341951 -0.77937 1.06066 -1.06066 
C 0.77937 -1.341951 0.397805 -1.5 0 -1.5 
C -0.397805 -1.5 -0.77937 -1.341951 -1.06066 -1.06066 
C -1.341951 -0.77937 -1.5 -0.397805 -1.5 0 
C -1.5 0.397805 -1.341951 0.77937 -1.06066 1.06066 
C -0.77937 1.341951 -0.397805 1.5 0 1.5 
z
" id="m962307767d" style="stroke:#ff7500;"/>
    </defs>
    <g>
     <use style="fill:#ff7500;stroke:#ff7500;" x="200.358284" xlink:href="#m962307767d" y="30.334099"/>
     <use style="fill:#ff7500;stroke:#ff7500;" x="200.358284" xlink:href="#m962307767d" y="30.334099"/>
    </g>
   </g>
   <g id="line2d_44">
    <path d="M 29.53256 298.944 
L 29.53256 290.517023 
L 41.620548 290.517023 
L 41.620548 288.936964 
L 48.691568 288.936964 
L 48.691568 287.356906 
L 53.708537 287.356906 
L 53.708537 284.723476 
L 60.779557 284.723476 
L 60.779557 283.670104 
L 63.467834 283.670104 
L 63.467834 283.143418 
L 67.850577 283.143418 
L 67.850577 282.090045 
L 71.35013 282.090045 
L 71.35013 280.509987 
L 72.867545 280.509987 
L 72.867545 279.983301 
L 75.555822 279.983301 
L 75.555822 279.456615 
L 79.938565 279.456615 
L 79.938565 278.929929 
L 80.881459 278.929929 
L 80.881459 278.403243 
L 83.438118 278.403243 
L 83.438118 277.349871 
L 84.213325 277.349871 
L 84.213325 276.823185 
L 85.66744 276.823185 
L 85.66744 275.769812 
L 87.643811 275.769812 
L 87.643811 274.71644 
L 89.418828 274.71644 
L 89.418828 274.189754 
L 95.125186 274.189754 
L 95.125186 273.663068 
L 101.506816 273.663068 
L 101.506816 273.136382 
L 108.389302 273.136382 
L 108.389302 272.08301 
L 109.131511 272.08301 
L 109.131511 271.556324 
L 110.016944 271.556324 
L 110.016944 271.029638 
L 110.188761 271.029638 
L 110.188761 270.502952 
L 113.873839 270.502952 
L 113.873839 269.449579 
L 116.202531 269.449579 
L 116.202531 268.922893 
L 116.680349 268.922893 
L 116.680349 268.396207 
L 118.470564 268.396207 
L 118.470564 267.869521 
L 122.191052 267.869521 
L 122.191052 265.236091 
L 125.892487 265.236091 
L 125.892487 264.182719 
L 126.099688 264.182719 
L 126.099688 263.656033 
L 127.54831 263.656033 
L 127.54831 262.60266 
L 130.505303 262.60266 
L 130.505303 262.075974 
L 131.236397 262.075974 
L 131.236397 261.022602 
L 132.133473 261.022602 
L 132.133473 259.96923 
L 133.124876 259.96923 
L 133.124876 259.442544 
L 134.062938 259.442544 
L 134.062938 258.915858 
L 138.118883 258.915858 
L 138.118883 257.862486 
L 138.761723 257.862486 
L 138.861092 256.282427 
L 138.99271 256.282427 
L 138.99271 254.702369 
L 139.381706 254.702369 
L 139.381706 254.175683 
L 140.469102 254.175683 
L 140.559227 252.595625 
L 141.177393 252.595625 
L 141.177393 249.435508 
L 141.378673 249.435508 
L 141.46423 247.85545 
L 143.170282 247.85545 
L 143.247504 246.275392 
L 143.298796 246.275392 
L 143.298796 245.748706 
L 143.451774 245.748706 
L 143.451774 245.22202 
L 144.414696 245.22202 
L 144.438701 244.168648 
L 144.582038 244.168648 
L 144.676946 243.115275 
L 144.77134 243.115275 
L 144.77134 242.588589 
L 146.019967 242.588589 
L 146.019967 242.061903 
L 148.1808 242.061903 
L 148.23877 241.008531 
L 150.068464 241.008531 
L 150.068464 239.955159 
L 150.531253 239.955159 
L 150.531253 239.428473 
L 150.932558 239.428473 
L 150.932558 238.901787 
L 152.068392 238.901787 
L 152.068392 238.375101 
L 152.602211 238.375101 
L 152.602211 237.321729 
L 153.003132 237.321729 
L 153.003132 236.268356 
L 153.48095 236.268356 
L 153.48095 235.74167 
L 153.623196 235.74167 
L 153.623196 235.214984 
L 154.614488 235.214984 
L 154.614488 234.688298 
L 154.93278 234.688298 
L 154.93278 234.161612 
L 155.258271 234.161612 
L 155.296925 230.47481 
L 155.399584 230.47481 
L 155.399584 227.314693 
L 155.565128 227.314693 
L 155.577798 225.207949 
L 155.904009 225.207949 
L 155.904009 223.627891 
L 156.064855 223.627891 
L 156.064855 223.101204 
L 156.187581 223.101204 
L 156.236431 222.047832 
L 156.32159 222.047832 
L 156.32159 219.941088 
L 156.514691 219.941088 
L 156.514691 219.414402 
L 157.104709 219.414402 
L 157.104709 218.887716 
L 157.380981 218.887716 
L 157.380981 216.780971 
L 157.652944 216.780971 
L 157.675417 215.200913 
L 157.98704 215.200913 
L 158.031107 214.147541 
L 158.206267 214.147541 
L 158.206267 213.094169 
L 158.530025 213.094169 
L 158.540715 211.514111 
L 158.647247 211.514111 
L 158.647247 210.987425 
L 158.931675 210.987425 
L 159.015067 209.407366 
L 159.293606 209.407366 
L 159.334496 207.300622 
L 159.436301 207.300622 
L 159.436301 205.720564 
L 159.827761 205.720564 
L 159.827761 205.193878 
L 160.044768 205.193878 
L 160.044768 204.667192 
L 160.181471 204.667192 
L 160.259108 203.613819 
L 160.727241 203.613819 
L 160.821253 202.033761 
L 160.970627 202.033761 
L 161.044837 198.346959 
L 161.081824 198.346959 
L 161.081824 197.820273 
L 161.338558 197.820273 
L 161.429341 194.13347 
L 161.474555 194.13347 
L 161.474555 193.606784 
L 161.6095 193.606784 
L 161.672119 192.026726 
L 161.734513 192.026726 
L 161.734513 191.50004 
L 161.88512 191.50004 
L 161.92917 188.866609 
L 162.320689 188.866609 
L 162.372234 184.653121 
L 162.568423 184.653121 
L 162.619242 183.073062 
L 162.962595 183.073062 
L 162.962595 182.546376 
L 163.36427 182.546376 
L 163.372371 181.493004 
L 163.557683 181.493004 
L 163.557683 180.439632 
L 164.008622 180.439632 
L 164.008622 178.859574 
L 164.164122 178.859574 
L 164.187328 177.806202 
L 164.341251 177.806202 
L 164.448194 174.119399 
L 164.493826 174.119399 
L 164.554485 168.852538 
L 164.720216 168.852538 
L 164.79503 166.745794 
L 165.047026 166.745794 
L 165.047026 165.692422 
L 165.454301 165.692422 
L 165.533195 164.112363 
L 165.753633 164.112363 
L 165.838222 159.898875 
L 165.915403 159.898875 
L 165.915403 158.845503 
L 166.330478 158.845503 
L 166.330478 156.738758 
L 166.561376 156.738758 
L 166.561376 155.685386 
L 166.709167 155.685386 
L 166.709167 153.051956 
L 166.849082 153.051956 
L 166.855717 151.471897 
L 167.027338 151.471897 
L 167.027338 150.945211 
L 167.3269 150.945211 
L 167.3269 149.365153 
L 167.487573 149.365153 
L 167.570541 143.571606 
L 167.817104 143.571606 
L 167.82338 141.991548 
L 167.960895 141.991548 
L 168.010633 138.831432 
L 168.152844 138.831432 
L 168.183606 137.251373 
L 168.439892 137.251373 
L 168.439892 136.198001 
L 169.03535 136.198001 
L 169.134586 134.617943 
L 169.163666 134.617943 
L 169.262177 133.564571 
L 169.45183 133.564571 
L 169.497498 130.93114 
L 169.616809 130.93114 
L 169.639443 127.244338 
L 169.880918 127.244338 
L 169.880918 126.717652 
L 170.014255 126.717652 
L 170.052954 124.084221 
L 170.184987 124.084221 
L 170.184987 123.557535 
L 170.719297 123.557535 
L 170.735235 117.763988 
L 170.977818 117.763988 
L 171.056197 114.603872 
L 171.217072 114.603872 
L 171.217072 113.5505 
L 171.386711 113.5505 
L 171.447991 112.497128 
L 171.876001 112.497128 
L 171.876001 111.970441 
L 172.22076 111.970441 
L 172.22076 111.443755 
L 172.347097 111.443755 
L 172.347097 110.390383 
L 172.6066 110.390383 
L 172.706485 109.337011 
L 173.026049 109.337011 
L 173.026049 108.810325 
L 173.17443 108.810325 
L 173.17443 108.283639 
L 173.634644 108.283639 
L 173.719878 105.123522 
L 174.069872 105.123522 
L 174.069872 104.596836 
L 174.335394 104.596836 
L 174.335394 104.07015 
L 174.558593 104.07015 
L 174.558593 103.543464 
L 175.145688 103.543464 
L 175.145688 102.490092 
L 175.58546 102.490092 
L 175.58546 101.963406 
L 175.757513 101.963406 
L 175.757513 101.43672 
L 176.135616 101.43672 
L 176.135616 100.383348 
L 176.536182 100.383348 
L 176.536182 98.276603 
L 177.631914 98.276603 
L 177.631914 96.696545 
L 178.160204 96.696545 
L 178.194861 95.643173 
L 182.517875 95.643173 
L 182.517875 95.116487 
L 182.944937 95.116487 
L 182.944937 93.536429 
L 183.172836 93.536429 
L 183.172836 93.009743 
L 183.397795 93.009743 
L 183.397795 91.429684 
L 183.637637 91.429684 
L 183.637637 90.902998 
L 184.367171 90.902998 
L 184.367171 89.849626 
L 184.903218 89.849626 
L 184.964384 88.796254 
L 185.484929 88.796254 
L 185.484929 86.68951 
L 185.733872 86.68951 
L 185.733872 86.162824 
L 186.160053 86.162824 
L 186.214787 81.949335 
L 186.503118 81.949335 
L 186.58891 78.262532 
L 187.013738 78.262532 
L 187.013738 77.735846 
L 187.126129 77.735846 
L 187.126129 77.20916 
L 187.344664 77.20916 
L 187.344664 76.682474 
L 187.46716 76.682474 
L 187.542272 72.995672 
L 187.829568 72.995672 
L 187.936838 70.888927 
L 188.000096 70.888927 
L 188.000096 69.835555 
L 188.438512 69.835555 
L 188.467352 67.202125 
L 188.563141 67.202125 
L 188.563141 66.675439 
L 188.826702 66.675439 
L 188.875562 65.09538 
L 188.94112 65.09538 
L 188.94112 63.515322 
L 189.077067 63.515322 
L 189.171418 61.935264 
L 189.19723 61.935264 
L 189.307419 59.301833 
L 189.411459 59.301833 
L 189.460524 57.195089 
L 189.714538 57.195089 
L 189.796614 54.034973 
L 190.216943 54.034973 
L 190.222155 52.9816 
L 190.396731 52.9816 
L 190.396731 52.454914 
L 190.5917 52.454914 
L 190.5917 50.34817 
L 191.0068 50.34817 
L 191.0068 47.188054 
L 191.581792 47.188054 
L 191.581792 46.661368 
L 191.794206 46.661368 
L 191.904972 44.554623 
L 192.174189 44.554623 
L 192.174189 44.027937 
L 192.33036 44.027937 
L 192.33036 43.501251 
L 198.449705 43.501251 
L 198.449705 42.974565 
L 198.594331 42.974565 
L 198.594331 41.921193 
L 198.997011 41.921193 
L 199.031636 40.867821 
L 199.176734 40.867821 
L 199.258665 39.287762 
L 199.322696 39.287762 
L 199.360797 38.23439 
L 199.478689 38.23439 
L 199.478689 36.654332 
L 199.592745 36.654332 
L 199.592745 35.60096 
L 199.927517 35.60096 
L 199.927517 34.547588 
L 200.05253 34.547588 
L 200.138329 32.440843 
L 200.186467 32.440843 
L 200.186467 31.914157 
L 200.358284 31.914157 
L 200.358284 30.334099 
L 338.688 30.334099 
L 338.688 30.334099 
" style="fill:none;stroke:#ff7500;stroke-linecap:square;stroke-width:1.5;"/>
   </g>
   <g id="line2d_45">
    <defs>
     <path d="M 0 -6 
L -1.347084 -1.854102 
L -5.706339 -1.854102 
L -2.179628 0.708204 
L -3.526712 4.854102 
L -0 2.291796 
L 3.526712 4.854102 
L 2.179628 0.708204 
L 5.706339 -1.854102 
L 1.347084 -1.854102 
z
" id="m39892aca32" style="stroke:#ff7500;stroke-linejoin:bevel;stroke-width:1.5;"/>
    </defs>
    <g>
     <use style="fill-opacity:0;stroke:#ff7500;stroke-linejoin:bevel;stroke-width:1.5;" x="126.099688" xlink:href="#m39892aca32" y="263.656033"/>
     <use style="fill-opacity:0;stroke:#ff7500;stroke-linejoin:bevel;stroke-width:1.5;" x="164.008622" xlink:href="#m39892aca32" y="180.439632"/>
     <use style="fill-opacity:0;stroke:#ff7500;stroke-linejoin:bevel;stroke-width:1.5;" x="189.307419" xlink:href="#m39892aca32" y="59.301833"/>
     <use style="fill-opacity:0;stroke:#ff7500;stroke-linejoin:bevel;stroke-width:1.5;" x="200.358284" xlink:href="#m39892aca32" y="30.334099"/>
     <use style="fill-opacity:0;stroke:#ff7500;stroke-linejoin:bevel;stroke-width:1.5;" x="200.358284" xlink:href="#m39892aca32" y="30.334099"/>
     <use style="fill-opacity:0;stroke:#ff7500;stroke-linejoin:bevel;stroke-width:1.5;" x="338.688" xlink:href="#m39892aca32" y="30.334099"/>
    </g>
   </g>
   <g id="line2d_46">
    <path style="fill:none;stroke:#ff7500;stroke-linecap:square;stroke-width:1.5;"/>
    <g/>
   </g>
   <g id="line2d_47">
    <path d="M 338.688 30.334099 
L 369.60768 293.571802 
" style="fill:none;stroke:#ff00ff;stroke-linecap:square;stroke-width:1.5;"/>
    <g>
     <use style="fill-opacity:0;stroke:#ff00ff;stroke-linejoin:miter;stroke-width:1.5;" x="338.688" xlink:href="#m4c898fce3f" y="30.334099"/>
     <use style="fill-opacity:0;stroke:#ff00ff;stroke-linejoin:miter;stroke-width:1.5;" x="369.60768" xlink:href="#m4c898fce3f" y="293.571802"/>
    </g>
   </g>
   <g id="line2d_48">
    <path d="M 338.688 30.334099 
L 369.60768 207.616634 
" style="fill:none;stroke:#000080;stroke-linecap:square;stroke-width:1.5;"/>
    <g>
     <use style="fill-opacity:0;stroke:#000080;stroke-width:1.5;" x="338.688" xlink:href="#md21d229234" y="30.334099"/>
     <use style="fill-opacity:0;stroke:#000080;stroke-width:1.5;" x="369.60768" xlink:href="#md21d229234" y="207.616634"/>
    </g>
   </g>
   <g id="line2d_49">
    <path d="M 338.688 30.334099 
L 369.60768 121.661465 
" style="fill:none;stroke:#ff7500;stroke-linecap:square;stroke-width:1.5;"/>
    <g>
     <use style="fill-opacity:0;stroke:#ff7500;stroke-linejoin:bevel;stroke-width:1.5;" x="338.688" xlink:href="#m39892aca32" y="30.334099"/>
     <use style="fill-opacity:0;stroke:#ff7500;stroke-linejoin:bevel;stroke-width:1.5;" x="369.60768" xlink:href="#m39892aca32" y="121.661465"/>
    </g>
   </g>
   <g id="line2d_50">
    <path d="M 338.688 298.944 
L 338.688 30.334099 
" style="fill:none;stroke:#000000;stroke-linecap:square;stroke-width:1.5;"/>
   </g>
   <g id="patch_3">
    <path d="M 57.6 298.944 
L 57.6 27.648 
" style="fill:none;stroke:#000000;stroke-linecap:square;stroke-linejoin:miter;stroke-width:0.8;"/>
   </g>
   <g id="patch_4">
    <path d="M 338.688 298.944 
L 338.688 27.648 
" style="fill:none;stroke:#000000;stroke-linecap:square;stroke-linejoin:miter;stroke-width:0.8;"/>
   </g>
   <g id="patch_5">
    <path d="M 57.6 298.944 
L 338.688 298.944 
" style="fill:none;stroke:#000000;stroke-linecap:square;stroke-linejoin:miter;stroke-width:0.8;"/>
   </g>
   <g id="patch_6">
    <path d="M 57.6 27.648 
L 338.688 27.648 
" style="fill:none;stroke:#000000;stroke-linecap:square;stroke-linejoin:miter;stroke-width:0.8;"/>
   </g>
   <g id="text_13">
    <!-- PSO -->
    <g transform="translate(375.22944 298.262739)scale(0.17 -0.17)">
     <defs>
      <path d="M 19.671875 64.796875 
L 19.671875 37.40625 
L 32.078125 37.40625 
Q 38.96875 37.40625 42.71875 40.96875 
Q 46.484375 44.53125 46.484375 51.125 
Q 46.484375 57.671875 42.71875 61.234375 
Q 38.96875 64.796875 32.078125 64.796875 
z
M 9.8125 72.90625 
L 32.078125 72.90625 
Q 44.34375 72.90625 50.609375 67.359375 
Q 56.890625 61.8125 56.890625 51.125 
Q 56.890625 40.328125 50.609375 34.8125 
Q 44.34375 29.296875 32.078125 29.296875 
L 19.671875 29.296875 
L 19.671875 0 
L 9.8125 0 
z
" id="DejaVuSans-80"/>
      <path d="M 53.515625 70.515625 
L 53.515625 60.890625 
Q 47.90625 63.578125 42.921875 64.890625 
Q 37.9375 66.21875 33.296875 66.21875 
Q 25.25 66.21875 20.875 63.09375 
Q 16.5 59.96875 16.5 54.203125 
Q 16.5 49.359375 19.40625 46.890625 
Q 22.3125 44.4375 30.421875 42.921875 
L 36.375 41.703125 
Q 47.40625 39.59375 52.65625 34.296875 
Q 57.90625 29 57.90625 20.125 
Q 57.90625 9.515625 50.796875 4.046875 
Q 43.703125 -1.421875 29.984375 -1.421875 
Q 24.8125 -1.421875 18.96875 -0.25 
Q 13.140625 0.921875 6.890625 3.21875 
L 6.890625 13.375 
Q 12.890625 10.015625 18.65625 8.296875 
Q 24.421875 6.59375 29.984375 6.59375 
Q 38.421875 6.59375 43.015625 9.90625 
Q 47.609375 13.234375 47.609375 19.390625 
Q 47.609375 24.75 44.3125 27.78125 
Q 41.015625 30.8125 33.5 32.328125 
L 27.484375 33.5 
Q 16.453125 35.6875 11.515625 40.375 
Q 6.59375 45.0625 6.59375 53.421875 
Q 6.59375 63.09375 13.40625 68.65625 
Q 20.21875 74.21875 32.171875 74.21875 
Q 37.3125 74.21875 42.625 73.28125 
Q 47.953125 72.359375 53.515625 70.515625 
z
" id="DejaVuSans-83"/>
      <path d="M 39.40625 66.21875 
Q 28.65625 66.21875 22.328125 58.203125 
Q 16.015625 50.203125 16.015625 36.375 
Q 16.015625 22.609375 22.328125 14.59375 
Q 28.65625 6.59375 39.40625 6.59375 
Q 50.140625 6.59375 56.421875 14.59375 
Q 62.703125 22.609375 62.703125 36.375 
Q 62.703125 50.203125 56.421875 58.203125 
Q 50.140625 66.21875 39.40625 66.21875 
z
M 39.40625 74.21875 
Q 54.734375 74.21875 63.90625 63.9375 
Q 73.09375 53.65625 73.09375 36.375 
Q 73.09375 19.140625 63.90625 8.859375 
Q 54.734375 -1.421875 39.40625 -1.421875 
Q 24.03125 -1.421875 14.8125 8.828125 
Q 5.609375 19.09375 5.609375 36.375 
Q 5.609375 53.65625 14.8125 63.9375 
Q 24.03125 74.21875 39.40625 74.21875 
z
" id="DejaVuSans-79"/>
     </defs>
     <use xlink:href="#DejaVuSans-80"/>
     <use x="60.302734" xlink:href="#DejaVuSans-83"/>
     <use x="123.779297" xlink:href="#DejaVuSans-79"/>
    </g>
   </g>
   <g id="text_14">
    <!-- BIPOP-CMA -->
    <g transform="translate(375.22944 212.307571)scale(0.17 -0.17)">
     <defs>
      <path d="M 19.671875 34.8125 
L 19.671875 8.109375 
L 35.5 8.109375 
Q 43.453125 8.109375 47.28125 11.40625 
Q 51.125 14.703125 51.125 21.484375 
Q 51.125 28.328125 47.28125 31.5625 
Q 43.453125 34.8125 35.5 34.8125 
z
M 19.671875 64.796875 
L 19.671875 42.828125 
L 34.28125 42.828125 
Q 41.5 42.828125 45.03125 45.53125 
Q 48.578125 48.25 48.578125 53.8125 
Q 48.578125 59.328125 45.03125 62.0625 
Q 41.5 64.796875 34.28125 64.796875 
z
M 9.8125 72.90625 
L 35.015625 72.90625 
Q 46.296875 72.90625 52.390625 68.21875 
Q 58.5 63.53125 58.5 54.890625 
Q 58.5 48.1875 55.375 44.234375 
Q 52.25 40.28125 46.1875 39.3125 
Q 53.46875 37.75 57.5 32.78125 
Q 61.53125 27.828125 61.53125 20.40625 
Q 61.53125 10.640625 54.890625 5.3125 
Q 48.25 0 35.984375 0 
L 9.8125 0 
z
" id="DejaVuSans-66"/>
      <path d="M 9.8125 72.90625 
L 19.671875 72.90625 
L 19.671875 0 
L 9.8125 0 
z
" id="DejaVuSans-73"/>
      <path d="M 64.40625 67.28125 
L 64.40625 56.890625 
Q 59.421875 61.53125 53.78125 63.8125 
Q 48.140625 66.109375 41.796875 66.109375 
Q 29.296875 66.109375 22.65625 58.46875 
Q 16.015625 50.828125 16.015625 36.375 
Q 16.015625 21.96875 22.65625 14.328125 
Q 29.296875 6.6875 41.796875 6.6875 
Q 48.140625 6.6875 53.78125 8.984375 
Q 59.421875 11.28125 64.40625 15.921875 
L 64.40625 5.609375 
Q 59.234375 2.09375 53.4375 0.328125 
Q 47.65625 -1.421875 41.21875 -1.421875 
Q 24.65625 -1.421875 15.125 8.703125 
Q 5.609375 18.84375 5.609375 36.375 
Q 5.609375 53.953125 15.125 64.078125 
Q 24.65625 74.21875 41.21875 74.21875 
Q 47.75 74.21875 53.53125 72.484375 
Q 59.328125 70.75 64.40625 67.28125 
z
" id="DejaVuSans-67"/>
      <path d="M 9.8125 72.90625 
L 24.515625 72.90625 
L 43.109375 23.296875 
L 61.8125 72.90625 
L 76.515625 72.90625 
L 76.515625 0 
L 66.890625 0 
L 66.890625 64.015625 
L 48.09375 14.015625 
L 38.1875 14.015625 
L 19.390625 64.015625 
L 19.390625 0 
L 9.8125 0 
z
" id="DejaVuSans-77"/>
      <path d="M 34.1875 63.1875 
L 20.796875 26.90625 
L 47.609375 26.90625 
z
M 28.609375 72.90625 
L 39.796875 72.90625 
L 67.578125 0 
L 57.328125 0 
L 50.6875 18.703125 
L 17.828125 18.703125 
L 11.1875 0 
L 0.78125 0 
z
" id="DejaVuSans-65"/>
     </defs>
     <use xlink:href="#DejaVuSans-66"/>
     <use x="68.603516" xlink:href="#DejaVuSans-73"/>
     <use x="98.095703" xlink:href="#DejaVuSans-80"/>
     <use x="158.398438" xlink:href="#DejaVuSans-79"/>
     <use x="237.109375" xlink:href="#DejaVuSans-80"/>
     <use x="295.162109" xlink:href="#DejaVuSans-45"/>
     <use x="331.246094" xlink:href="#DejaVuSans-67"/>
     <use x="401.070312" xlink:href="#DejaVuSans-77"/>
     <use x="487.349609" xlink:href="#DejaVuSans-65"/>
    </g>
   </g>
   <g id="text_15">
    <!-- DE -->
    <g transform="translate(375.22944 126.352403)scale(0.17 -0.17)">
     <defs>
      <path d="M 19.671875 64.796875 
L 19.671875 8.109375 
L 31.59375 8.109375 
Q 46.6875 8.109375 53.6875 14.9375 
Q 60.6875 21.78125 60.6875 36.53125 
Q 60.6875 51.171875 53.6875 57.984375 
Q 46.6875 64.796875 31.59375 64.796875 
z
M 9.8125 72.90625 
L 30.078125 72.90625 
Q 51.265625 72.90625 61.171875 64.09375 
Q 71.09375 55.28125 71.09375 36.53125 
Q 71.09375 17.671875 61.125 8.828125 
Q 51.171875 0 30.078125 0 
L 9.8125 0 
z
" id="DejaVuSans-68"/>
      <path d="M 9.8125 72.90625 
L 55.90625 72.90625 
L 55.90625 64.59375 
L 19.671875 64.59375 
L 19.671875 43.015625 
L 54.390625 43.015625 
L 54.390625 34.71875 
L 19.671875 34.71875 
L 19.671875 8.296875 
L 56.78125 8.296875 
L 56.78125 0 
L 9.8125 0 
z
" id="DejaVuSans-69"/>
     </defs>
     <use xlink:href="#DejaVuSans-68"/>
     <use x="77.001953" xlink:href="#DejaVuSans-69"/>
    </g>
   </g>
   <g id="text_16">
    <!-- best 2009 -->
    <g transform="translate(375.22944 40.397235)scale(0.17 -0.17)">
     <defs>
      <path d="M 48.6875 27.296875 
Q 48.6875 37.203125 44.609375 42.84375 
Q 40.53125 48.484375 33.40625 48.484375 
Q 26.265625 48.484375 22.1875 42.84375 
Q 18.109375 37.203125 18.109375 27.296875 
Q 18.109375 17.390625 22.1875 11.75 
Q 26.265625 6.109375 33.40625 6.109375 
Q 40.53125 6.109375 44.609375 11.75 
Q 48.6875 17.390625 48.6875 27.296875 
z
M 18.109375 46.390625 
Q 20.953125 51.265625 25.265625 53.625 
Q 29.59375 56 35.59375 56 
Q 45.5625 56 51.78125 48.09375 
Q 58.015625 40.1875 58.015625 27.296875 
Q 58.015625 14.40625 51.78125 6.484375 
Q 45.5625 -1.421875 35.59375 -1.421875 
Q 29.59375 -1.421875 25.265625 0.953125 
Q 20.953125 3.328125 18.109375 8.203125 
L 18.109375 0 
L 9.078125 0 
L 9.078125 75.984375 
L 18.109375 75.984375 
z
" id="DejaVuSans-98"/>
      <path d="M 10.984375 1.515625 
L 10.984375 10.5 
Q 14.703125 8.734375 18.5 7.8125 
Q 22.3125 6.890625 25.984375 6.890625 
Q 35.75 6.890625 40.890625 13.453125 
Q 46.046875 20.015625 46.78125 33.40625 
Q 43.953125 29.203125 39.59375 26.953125 
Q 35.25 24.703125 29.984375 24.703125 
Q 19.046875 24.703125 12.671875 31.3125 
Q 6.296875 37.9375 6.296875 49.421875 
Q 6.296875 60.640625 12.9375 67.421875 
Q 19.578125 74.21875 30.609375 74.21875 
Q 43.265625 74.21875 49.921875 64.515625 
Q 56.59375 54.828125 56.59375 36.375 
Q 56.59375 19.140625 48.40625 8.859375 
Q 40.234375 -1.421875 26.421875 -1.421875 
Q 22.703125 -1.421875 18.890625 -0.6875 
Q 15.09375 0.046875 10.984375 1.515625 
z
M 30.609375 32.421875 
Q 37.25 32.421875 41.125 36.953125 
Q 45.015625 41.5 45.015625 49.421875 
Q 45.015625 57.28125 41.125 61.84375 
Q 37.25 66.40625 30.609375 66.40625 
Q 23.96875 66.40625 20.09375 61.84375 
Q 16.21875 57.28125 16.21875 49.421875 
Q 16.21875 41.5 20.09375 36.953125 
Q 23.96875 32.421875 30.609375 32.421875 
z
" id="DejaVuSans-57"/>
     </defs>
     <use xlink:href="#DejaVuSans-98"/>
     <use x="63.476562" xlink:href="#DejaVuSans-101"/>
     <use x="125" xlink:href="#DejaVuSans-115"/>
     <use x="177.099609" xlink:href="#DejaVuSans-116"/>
     <use x="216.308594" xlink:href="#DejaVuSans-32"/>
     <use x="248.095703" xlink:href="#DejaVuSans-50"/>
     <use x="311.71875" xlink:href="#DejaVuSans-48"/>
     <use x="375.341797" xlink:href="#DejaVuSans-48"/>
     <use x="438.964844" xlink:href="#DejaVuSans-57"/>
    </g>
   </g>
   <g id="text_17">
    <!-- bbob f21, 5-D -->
    <g transform="translate(60.41088 38.111366)scale(0.102 -0.102)">
     <defs>
      <path d="M 10.796875 72.90625 
L 49.515625 72.90625 
L 49.515625 64.59375 
L 19.828125 64.59375 
L 19.828125 46.734375 
Q 21.96875 47.46875 24.109375 47.828125 
Q 26.265625 48.1875 28.421875 48.1875 
Q 40.625 48.1875 47.75 41.5 
Q 54.890625 34.8125 54.890625 23.390625 
Q 54.890625 11.625 47.5625 5.09375 
Q 40.234375 -1.421875 26.90625 -1.421875 
Q 22.3125 -1.421875 17.546875 -0.640625 
Q 12.796875 0.140625 7.71875 1.703125 
L 7.71875 11.625 
Q 12.109375 9.234375 16.796875 8.0625 
Q 21.484375 6.890625 26.703125 6.890625 
Q 35.15625 6.890625 40.078125 11.328125 
Q 45.015625 15.765625 45.015625 23.390625 
Q 45.015625 31 40.078125 35.4375 
Q 35.15625 39.890625 26.703125 39.890625 
Q 22.75 39.890625 18.8125 39.015625 
Q 14.890625 38.140625 10.796875 36.28125 
z
" id="DejaVuSans-53"/>
     </defs>
     <use xlink:href="#DejaVuSans-98"/>
     <use x="63.476562" xlink:href="#DejaVuSans-98"/>
     <use x="126.953125" xlink:href="#DejaVuSans-111"/>
     <use x="188.134766" xlink:href="#DejaVuSans-98"/>
     <use x="251.611328" xlink:href="#DejaVuSans-32"/>
     <use x="283.398438" xlink:href="#DejaVuSans-102"/>
     <use x="318.603516" xlink:href="#DejaVuSans-50"/>
     <use x="382.226562" xlink:href="#DejaVuSans-49"/>
     <use x="445.849609" xlink:href="#DejaVuSans-44"/>
     <use x="477.636719" xlink:href="#DejaVuSans-32"/>
     <use x="509.423828" xlink:href="#DejaVuSans-53"/>
     <use x="573.046875" xlink:href="#DejaVuSans-45"/>
     <use x="609.130859" xlink:href="#DejaVuSans-68"/>
    </g>
    <!-- 51 targets: 100..1e-08 -->
    <g transform="translate(60.41088 49.533135)scale(0.102 -0.102)">
     <defs>
      <path d="M 11.71875 12.40625 
L 22.015625 12.40625 
L 22.015625 0 
L 11.71875 0 
z
M 11.71875 51.703125 
L 22.015625 51.703125 
L 22.015625 39.3125 
L 11.71875 39.3125 
z
" id="DejaVuSans-58"/>
     </defs>
     <use xlink:href="#DejaVuSans-53"/>
     <use x="63.623047" xlink:href="#DejaVuSans-49"/>
     <use x="127.246094" xlink:href="#DejaVuSans-32"/>
     <use x="159.033203" xlink:href="#DejaVuSans-116"/>
     <use x="198.242188" xlink:href="#DejaVuSans-97"/>
     <use x="259.521484" xlink:href="#DejaVuSans-114"/>
     <use x="298.884766" xlink:href="#DejaVuSans-103"/>
     <use x="362.361328" xlink:href="#DejaVuSans-101"/>
     <use x="423.884766" xlink:href="#DejaVuSans-116"/>
     <use x="463.09375" xlink:href="#DejaVuSans-115"/>
     <use x="515.193359" xlink:href="#DejaVuSans-58"/>
     <use x="548.884766" xlink:href="#DejaVuSans-32"/>
     <use x="580.671875" xlink:href="#DejaVuSans-49"/>
     <use x="644.294922" xlink:href="#DejaVuSans-48"/>
     <use x="707.917969" xlink:href="#DejaVuSans-48"/>
     <use x="771.541016" xlink:href="#DejaVuSans-46"/>
     <use x="803.328125" xlink:href="#DejaVuSans-46"/>
     <use x="835.115234" xlink:href="#DejaVuSans-49"/>
     <use x="898.738281" xlink:href="#DejaVuSans-101"/>
     <use x="960.261719" xlink:href="#DejaVuSans-45"/>
     <use x="996.345703" xlink:href="#DejaVuSans-48"/>
     <use x="1059.96875" xlink:href="#DejaVuSans-56"/>
    </g>
    <!-- 15 instances -->
    <g transform="translate(60.41088 60.954904)scale(0.102 -0.102)">
     <use xlink:href="#DejaVuSans-49"/>
     <use x="63.623047" xlink:href="#DejaVuSans-53"/>
     <use x="127.246094" xlink:href="#DejaVuSans-32"/>
     <use x="159.033203" xlink:href="#DejaVuSans-105"/>
     <use x="186.816406" xlink:href="#DejaVuSans-110"/>
     <use x="250.195312" xlink:href="#DejaVuSans-115"/>
     <use x="302.294922" xlink:href="#DejaVuSans-116"/>
     <use x="341.503906" xlink:href="#DejaVuSans-97"/>
     <use x="402.783203" xlink:href="#DejaVuSans-110"/>
     <use x="466.162109" xlink:href="#DejaVuSans-99"/>
     <use x="521.142578" xlink:href="#DejaVuSans-101"/>
     <use x="582.666016" xlink:href="#DejaVuSans-115"/>
    </g>
   </g>
   <g id="text_18">
    <!-- v2.4 -->
    <g style="fill:#808080;" transform="translate(187.233062 294.151352)scale(0.1 -0.1)">
     <use xlink:href="#DejaVuSans-118"/>
     <use x="59.179688" xlink:href="#DejaVuSans-50"/>
     <use x="122.802734" xlink:href="#DejaVuSans-46"/>
     <use x="154.589844" xlink:href="#DejaVuSans-52"/>
    </g>
   </g>
   <g id="text_19">
    <!-- 21 Gallagher 101 peaks -->
    <g transform="translate(78.6565 21.648)scale(0.2 -0.2)">
     <defs>
      <path d="M 59.515625 10.40625 
L 59.515625 29.984375 
L 43.40625 29.984375 
L 43.40625 38.09375 
L 69.28125 38.09375 
L 69.28125 6.78125 
Q 63.578125 2.734375 56.6875 0.65625 
Q 49.8125 -1.421875 42 -1.421875 
Q 24.90625 -1.421875 15.25 8.5625 
Q 5.609375 18.5625 5.609375 36.375 
Q 5.609375 54.25 15.25 64.234375 
Q 24.90625 74.21875 42 74.21875 
Q 49.125 74.21875 55.546875 72.453125 
Q 61.96875 70.703125 67.390625 67.28125 
L 67.390625 56.78125 
Q 61.921875 61.421875 55.765625 63.765625 
Q 49.609375 66.109375 42.828125 66.109375 
Q 29.4375 66.109375 22.71875 58.640625 
Q 16.015625 51.171875 16.015625 36.375 
Q 16.015625 21.625 22.71875 14.15625 
Q 29.4375 6.6875 42.828125 6.6875 
Q 48.046875 6.6875 52.140625 7.59375 
Q 56.25 8.5 59.515625 10.40625 
z
" id="DejaVuSans-71"/>
      <path d="M 54.890625 33.015625 
L 54.890625 0 
L 45.90625 0 
L 45.90625 32.71875 
Q 45.90625 40.484375 42.875 44.328125 
Q 39.84375 48.1875 33.796875 48.1875 
Q 26.515625 48.1875 22.3125 43.546875 
Q 18.109375 38.921875 18.109375 30.90625 
L 18.109375 0 
L 9.078125 0 
L 9.078125 75.984375 
L 18.109375 75.984375 
L 18.109375 46.1875 
Q 21.34375 51.125 25.703125 53.5625 
Q 30.078125 56 35.796875 56 
Q 45.21875 56 50.046875 50.171875 
Q 54.890625 44.34375 54.890625 33.015625 
z
" id="DejaVuSans-104"/>
      <path d="M 9.078125 75.984375 
L 18.109375 75.984375 
L 18.109375 31.109375 
L 44.921875 54.6875 
L 56.390625 54.6875 
L 27.390625 29.109375 
L 57.625 0 
L 45.90625 0 
L 18.109375 26.703125 
L 18.109375 0 
L 9.078125 0 
z
" id="DejaVuSans-107"/>
     </defs>
     <use xlink:href="#DejaVuSans-50"/>
     <use x="63.623047" xlink:href="#DejaVuSans-49"/>
     <use x="127.246094" xlink:href="#DejaVuSans-32"/>
     <use x="159.033203" xlink:href="#DejaVuSans-71"/>
     <use x="236.523438" xlink:href="#DejaVuSans-97"/>
     <use x="297.802734" xlink:href="#DejaVuSans-108"/>
     <use x="325.585938" xlink:href="#DejaVuSans-108"/>
     <use x="353.369141" xlink:href="#DejaVuSans-97"/>
     <use x="414.648438" xlink:href="#DejaVuSans-103"/>
     <use x="478.125" xlink:href="#DejaVuSans-104"/>
     <use x="541.503906" xlink:href="#DejaVuSans-101"/>
     <use x="603.027344" xlink:href="#DejaVuSans-114"/>
     <use x="644.140625" xlink:href="#DejaVuSans-32"/>
     <use x="675.927734" xlink:href="#DejaVuSans-49"/>
     <use x="739.550781" xlink:href="#DejaVuSans-48"/>
     <use x="803.173828" xlink:href="#DejaVuSans-49"/>
     <use x="866.796875" xlink:href="#DejaVuSans-32"/>
     <use x="898.583984" xlink:href="#DejaVuSans-112"/>
     <use x="962.060547" xlink:href="#DejaVuSans-101"/>
     <use x="1023.583984" xlink:href="#DejaVuSans-97"/>
     <use x="1084.863281" xlink:href="#DejaVuSans-107"/>
     <use x="1142.773438" xlink:href="#DejaVuSans-115"/>
    </g>
   </g>
  </g>
 </g>
 <defs>
  <clipPath id="pf9fab802e5">
   <rect height="271.296" width="281.088" x="57.6" y="27.648"/>
  </clipPath>
 </defs>
</svg>
