<?xml version="1.0" encoding="utf-8" standalone="no"?>
<!DOCTYPE svg PUBLIC "-//W3C//DTD SVG 1.1//EN"
  "http://www.w3.org/Graphics/SVG/1.1/DTD/svg11.dtd">
<!-- Created with matplotlib (https://matplotlib.org/) -->
<svg height="345.6pt" version="1.1" viewBox="0 0 460.8 345.6" width="460.8pt" xmlns="http://www.w3.org/2000/svg" xmlns:xlink="http://www.w3.org/1999/xlink">
 <metadata>
  <rdf:RDF xmlns:cc="http://creativecommons.org/ns#" xmlns:dc="http://purl.org/dc/elements/1.1/" xmlns:rdf="http://www.w3.org/1999/02/22-rdf-syntax-ns#">
   <cc:Work>
    <dc:type rdf:resource="http://purl.org/dc/dcmitype/StillImage"/>
    <dc:date>2021-05-01T17:07:38.316574</dc:date>
    <dc:format>image/svg+xml</dc:format>
    <dc:creator>
     <cc:Agent>
      <dc:title>Matplotlib v3.3.2, https://matplotlib.org/</dc:title>
     </cc:Agent>
    </dc:creator>
   </cc:Work>
  </rdf:RDF>
 </metadata>
 <defs>
  <style type="text/css">*{stroke-linecap:butt;stroke-linejoin:round;}</style>
 </defs>
 <g id="figure_1">
  <g id="patch_1">
   <path d="M 0 345.6 
L 460.8 345.6 
L 460.8 0 
L 0 0 
z
" style="fill:#ffffff;"/>
  </g>
  <g id="axes_1">
   <g id="patch_2">
    <path d="M 57.6 298.944 
L 338.688 298.944 
L 338.688 27.648 
L 57.6 27.648 
z
" style="fill:#ffffff;"/>
   </g>
   <g id="line2d_1">
    <path d="M 119.199476 298.944 
L 119.199476 293.677139 
L 121.84399 293.677139 
L 121.84399 288.410278 
L 124.444412 288.410278 
L 124.444412 283.143418 
L 128.827155 283.143418 
L 128.827155 277.876557 
L 129.79784 277.876557 
L 129.79784 272.609696 
L 131.640805 272.609696 
L 131.640805 267.342835 
L 134.492498 267.342835 
L 134.492498 262.075974 
L 135.482227 262.075974 
L 135.482227 256.809114 
L 136.79465 256.809114 
L 136.79465 251.542253 
L 137.52291 251.542253 
L 137.52291 246.275392 
L 137.910857 246.275392 
L 137.910857 241.008531 
L 138.358484 241.008531 
L 138.358484 235.74167 
L 138.628343 235.74167 
L 138.628343 230.47481 
L 139.541262 230.47481 
L 139.541262 225.207949 
L 140.165274 225.207949 
L 140.165274 219.941088 
L 140.317849 219.941088 
L 140.317849 214.674227 
L 140.408758 214.674227 
L 140.408758 209.407366 
L 140.589166 209.407366 
L 140.589166 204.140506 
L 140.678675 204.140506 
L 140.678675 198.873645 
L 141.061324 198.873645 
L 141.061324 193.606784 
L 141.292695 193.606784 
L 141.292695 188.339923 
L 141.407239 188.339923 
L 141.407239 183.073062 
L 141.521035 183.073062 
L 141.521035 177.806202 
L 141.605898 177.806202 
L 141.605898 172.539341 
L 141.69035 172.539341 
L 141.69035 167.27248 
L 141.830201 167.27248 
L 141.830201 162.005619 
L 141.941279 162.005619 
L 141.941279 156.738758 
L 142.024126 156.738758 
L 142.024126 151.471897 
L 142.133981 151.471897 
L 142.133981 146.205037 
L 142.297475 146.205037 
L 142.297475 140.938176 
L 142.378651 140.938176 
L 142.378651 135.671315 
L 142.51311 135.671315 
L 142.51311 130.404454 
L 142.619936 130.404454 
L 142.619936 125.137593 
L 144.050606 125.137593 
L 144.050606 119.870733 
L 144.099593 119.870733 
L 144.099593 114.603872 
L 146.728368 114.603872 
L 146.728368 109.337011 
L 146.854132 109.337011 
L 146.854132 104.07015 
L 146.937474 104.07015 
L 146.937474 98.803289 
L 147.041095 98.803289 
L 147.041095 93.536429 
L 147.12355 93.536429 
L 147.12355 88.269568 
L 147.226074 88.269568 
L 147.226074 83.002707 
L 147.327999 83.002707 
L 147.327999 77.735846 
L 147.449528 77.735846 
L 147.449528 72.468985 
L 147.590249 72.468985 
L 147.590249 67.202125 
L 147.690073 67.202125 
L 147.690073 61.935264 
L 147.769524 61.935264 
L 147.769524 56.668403 
L 147.86833 56.668403 
L 147.86833 51.401542 
L 147.946974 51.401542 
L 147.946974 46.134681 
L 148.064279 46.134681 
L 148.064279 40.867821 
L 148.103206 40.867821 
L 148.103206 35.60096 
L 148.200145 35.60096 
L 148.200145 30.334099 
L 338.688 30.334099 
" style="fill:none;stroke:#f5deb3;stroke-linecap:square;stroke-width:4;"/>
   </g>
   <g id="line2d_2">
    <defs>
     <path d="M -0 7.778175 
L 7.778175 0 
L 0 -7.778175 
L -7.778175 -0 
z
" id="m5445d9ec5f" style="stroke:#f5deb3;stroke-linejoin:miter;stroke-width:1.5;"/>
    </defs>
    <g>
     <use style="fill:#f5deb3;stroke:#f5deb3;stroke-linejoin:miter;stroke-width:1.5;" x="142.133981" xlink:href="#m5445d9ec5f" y="146.205037"/>
     <use style="fill:#f5deb3;stroke:#f5deb3;stroke-linejoin:miter;stroke-width:1.5;" x="148.200145" xlink:href="#m5445d9ec5f" y="35.60096"/>
     <use style="fill:#f5deb3;stroke:#f5deb3;stroke-linejoin:miter;stroke-width:1.5;" x="148.200145" xlink:href="#m5445d9ec5f" y="30.334099"/>
     <use style="fill:#f5deb3;stroke:#f5deb3;stroke-linejoin:miter;stroke-width:1.5;" x="148.200145" xlink:href="#m5445d9ec5f" y="30.334099"/>
     <use style="fill:#f5deb3;stroke:#f5deb3;stroke-linejoin:miter;stroke-width:1.5;" x="338.688" xlink:href="#m5445d9ec5f" y="30.334099"/>
    </g>
   </g>
   <g id="line2d_3">
    <path style="fill:none;stroke:#f5deb3;stroke-linecap:square;stroke-width:4;"/>
    <g/>
   </g>
   <g id="line2d_4">
    <path d="M 338.688 30.334099 
L 369.60768 35.706297 
" style="fill:none;stroke:#f5deb3;stroke-linecap:square;stroke-width:4;"/>
    <g>
     <use style="fill:#f5deb3;stroke:#f5deb3;stroke-linejoin:miter;stroke-width:1.5;" x="338.688" xlink:href="#m5445d9ec5f" y="30.334099"/>
     <use style="fill:#f5deb3;stroke:#f5deb3;stroke-linejoin:miter;stroke-width:1.5;" x="369.60768" xlink:href="#m5445d9ec5f" y="35.706297"/>
    </g>
   </g>
   <g id="matplotlib.axis_1">
    <g id="xtick_1">
     <g id="line2d_5">
      <path clip-path="url(#p731670815f)" d="M 57.6 298.944 
L 57.6 27.648 
" style="fill:none;stroke:#b0b0b0;stroke-linecap:square;stroke-width:0.8;"/>
     </g>
     <g id="line2d_6">
      <defs>
       <path d="M 0 0 
L 0 3.5 
" id="ma581b846ba" style="stroke:#000000;stroke-width:0.8;"/>
      </defs>
      <g>
       <use style="stroke:#000000;stroke-width:0.8;" x="57.6" xlink:href="#ma581b846ba" y="298.944"/>
      </g>
     </g>
     <g id="text_1">
      <!-- 0 -->
      <g transform="translate(51.2375 321.140875)scale(0.2 -0.2)">
       <defs>
        <path d="M 31.78125 66.40625 
Q 24.171875 66.40625 20.328125 58.90625 
Q 16.5 51.421875 16.5 36.375 
Q 16.5 21.390625 20.328125 13.890625 
Q 24.171875 6.390625 31.78125 6.390625 
Q 39.453125 6.390625 43.28125 13.890625 
Q 47.125 21.390625 47.125 36.375 
Q 47.125 51.421875 43.28125 58.90625 
Q 39.453125 66.40625 31.78125 66.40625 
z
M 31.78125 74.21875 
Q 44.046875 74.21875 50.515625 64.515625 
Q 56.984375 54.828125 56.984375 36.375 
Q 56.984375 17.96875 50.515625 8.265625 
Q 44.046875 -1.421875 31.78125 -1.421875 
Q 19.53125 -1.421875 13.0625 8.265625 
Q 6.59375 17.96875 6.59375 36.375 
Q 6.59375 54.828125 13.0625 64.515625 
Q 19.53125 74.21875 31.78125 74.21875 
z
" id="DejaVuSans-48"/>
       </defs>
       <use xlink:href="#DejaVuSans-48"/>
      </g>
     </g>
    </g>
    <g id="xtick_2">
     <g id="line2d_7">
      <path clip-path="url(#p731670815f)" d="M 137.910857 298.944 
L 137.910857 27.648 
" style="fill:none;stroke:#b0b0b0;stroke-linecap:square;stroke-width:0.8;"/>
     </g>
     <g id="line2d_8">
      <g>
       <use style="stroke:#000000;stroke-width:0.8;" x="137.910857" xlink:href="#ma581b846ba" y="298.944"/>
      </g>
     </g>
     <g id="text_2">
      <!-- 2 -->
      <g transform="translate(131.548357 321.140875)scale(0.2 -0.2)">
       <defs>
        <path d="M 19.1875 8.296875 
L 53.609375 8.296875 
L 53.609375 0 
L 7.328125 0 
L 7.328125 8.296875 
Q 12.9375 14.109375 22.625 23.890625 
Q 32.328125 33.6875 34.8125 36.53125 
Q 39.546875 41.84375 41.421875 45.53125 
Q 43.3125 49.21875 43.3125 52.78125 
Q 43.3125 58.59375 39.234375 62.25 
Q 35.15625 65.921875 28.609375 65.921875 
Q 23.96875 65.921875 18.8125 64.3125 
Q 13.671875 62.703125 7.8125 59.421875 
L 7.8125 69.390625 
Q 13.765625 71.78125 18.9375 73 
Q 24.125 74.21875 28.421875 74.21875 
Q 39.75 74.21875 46.484375 68.546875 
Q 53.21875 62.890625 53.21875 53.421875 
Q 53.21875 48.921875 51.53125 44.890625 
Q 49.859375 40.875 45.40625 35.40625 
Q 44.1875 33.984375 37.640625 27.21875 
Q 31.109375 20.453125 19.1875 8.296875 
z
" id="DejaVuSans-50"/>
       </defs>
       <use xlink:href="#DejaVuSans-50"/>
      </g>
     </g>
    </g>
    <g id="xtick_3">
     <g id="line2d_9">
      <path clip-path="url(#p731670815f)" d="M 218.221714 298.944 
L 218.221714 27.648 
" style="fill:none;stroke:#b0b0b0;stroke-linecap:square;stroke-width:0.8;"/>
     </g>
     <g id="line2d_10">
      <g>
       <use style="stroke:#000000;stroke-width:0.8;" x="218.221714" xlink:href="#ma581b846ba" y="298.944"/>
      </g>
     </g>
     <g id="text_3">
      <!-- 4 -->
      <g transform="translate(211.859214 321.140875)scale(0.2 -0.2)">
       <defs>
        <path d="M 37.796875 64.3125 
L 12.890625 25.390625 
L 37.796875 25.390625 
z
M 35.203125 72.90625 
L 47.609375 72.90625 
L 47.609375 25.390625 
L 58.015625 25.390625 
L 58.015625 17.1875 
L 47.609375 17.1875 
L 47.609375 0 
L 37.796875 0 
L 37.796875 17.1875 
L 4.890625 17.1875 
L 4.890625 26.703125 
z
" id="DejaVuSans-52"/>
       </defs>
       <use xlink:href="#DejaVuSans-52"/>
      </g>
     </g>
    </g>
    <g id="xtick_4">
     <g id="line2d_11">
      <path clip-path="url(#p731670815f)" d="M 298.532571 298.944 
L 298.532571 27.648 
" style="fill:none;stroke:#b0b0b0;stroke-linecap:square;stroke-width:0.8;"/>
     </g>
     <g id="line2d_12">
      <g>
       <use style="stroke:#000000;stroke-width:0.8;" x="298.532571" xlink:href="#ma581b846ba" y="298.944"/>
      </g>
     </g>
     <g id="text_4">
      <!-- 6 -->
      <g transform="translate(292.170071 321.140875)scale(0.2 -0.2)">
       <defs>
        <path d="M 33.015625 40.375 
Q 26.375 40.375 22.484375 35.828125 
Q 18.609375 31.296875 18.609375 23.390625 
Q 18.609375 15.53125 22.484375 10.953125 
Q 26.375 6.390625 33.015625 6.390625 
Q 39.65625 6.390625 43.53125 10.953125 
Q 47.40625 15.53125 47.40625 23.390625 
Q 47.40625 31.296875 43.53125 35.828125 
Q 39.65625 40.375 33.015625 40.375 
z
M 52.59375 71.296875 
L 52.59375 62.3125 
Q 48.875 64.0625 45.09375 64.984375 
Q 41.3125 65.921875 37.59375 65.921875 
Q 27.828125 65.921875 22.671875 59.328125 
Q 17.53125 52.734375 16.796875 39.40625 
Q 19.671875 43.65625 24.015625 45.921875 
Q 28.375 48.1875 33.59375 48.1875 
Q 44.578125 48.1875 50.953125 41.515625 
Q 57.328125 34.859375 57.328125 23.390625 
Q 57.328125 12.15625 50.6875 5.359375 
Q 44.046875 -1.421875 33.015625 -1.421875 
Q 20.359375 -1.421875 13.671875 8.265625 
Q 6.984375 17.96875 6.984375 36.375 
Q 6.984375 53.65625 15.1875 63.9375 
Q 23.390625 74.21875 37.203125 74.21875 
Q 40.921875 74.21875 44.703125 73.484375 
Q 48.484375 72.75 52.59375 71.296875 
z
" id="DejaVuSans-54"/>
       </defs>
       <use xlink:href="#DejaVuSans-54"/>
      </g>
     </g>
    </g>
    <g id="xtick_5">
     <g id="line2d_13">
      <path clip-path="url(#p731670815f)" d="M 97.755429 298.944 
L 97.755429 27.648 
" style="fill:none;stroke:#b0b0b0;stroke-linecap:square;stroke-width:0.8;"/>
     </g>
     <g id="line2d_14">
      <defs>
       <path d="M 0 0 
L 0 2 
" id="mcdeda26b56" style="stroke:#000000;stroke-width:0.6;"/>
      </defs>
      <g>
       <use style="stroke:#000000;stroke-width:0.6;" x="97.755429" xlink:href="#mcdeda26b56" y="298.944"/>
      </g>
     </g>
    </g>
    <g id="xtick_6">
     <g id="line2d_15">
      <path clip-path="url(#p731670815f)" d="M 178.066286 298.944 
L 178.066286 27.648 
" style="fill:none;stroke:#b0b0b0;stroke-linecap:square;stroke-width:0.8;"/>
     </g>
     <g id="line2d_16">
      <g>
       <use style="stroke:#000000;stroke-width:0.6;" x="178.066286" xlink:href="#mcdeda26b56" y="298.944"/>
      </g>
     </g>
    </g>
    <g id="xtick_7">
     <g id="line2d_17">
      <path clip-path="url(#p731670815f)" d="M 258.377143 298.944 
L 258.377143 27.648 
" style="fill:none;stroke:#b0b0b0;stroke-linecap:square;stroke-width:0.8;"/>
     </g>
     <g id="line2d_18">
      <g>
       <use style="stroke:#000000;stroke-width:0.6;" x="258.377143" xlink:href="#mcdeda26b56" y="298.944"/>
      </g>
     </g>
    </g>
    <g id="xtick_8">
     <g id="line2d_19">
      <path clip-path="url(#p731670815f)" d="M 338.688 298.944 
L 338.688 27.648 
" style="fill:none;stroke:#b0b0b0;stroke-linecap:square;stroke-width:0.8;"/>
     </g>
     <g id="line2d_20">
      <g>
       <use style="stroke:#000000;stroke-width:0.6;" x="338.688" xlink:href="#mcdeda26b56" y="298.944"/>
      </g>
     </g>
    </g>
    <g id="text_5">
     <!-- log10(# f-evals / dimension) -->
     <g transform="translate(77.764078 342.217594)scale(0.17 -0.17)">
      <defs>
       <path d="M 9.421875 75.984375 
L 18.40625 75.984375 
L 18.40625 0 
L 9.421875 0 
z
" id="DejaVuSans-108"/>
       <path d="M 30.609375 48.390625 
Q 23.390625 48.390625 19.1875 42.75 
Q 14.984375 37.109375 14.984375 27.296875 
Q 14.984375 17.484375 19.15625 11.84375 
Q 23.34375 6.203125 30.609375 6.203125 
Q 37.796875 6.203125 41.984375 11.859375 
Q 46.1875 17.53125 46.1875 27.296875 
Q 46.1875 37.015625 41.984375 42.703125 
Q 37.796875 48.390625 30.609375 48.390625 
z
M 30.609375 56 
Q 42.328125 56 49.015625 48.375 
Q 55.71875 40.765625 55.71875 27.296875 
Q 55.71875 13.875 49.015625 6.21875 
Q 42.328125 -1.421875 30.609375 -1.421875 
Q 18.84375 -1.421875 12.171875 6.21875 
Q 5.515625 13.875 5.515625 27.296875 
Q 5.515625 40.765625 12.171875 48.375 
Q 18.84375 56 30.609375 56 
z
" id="DejaVuSans-111"/>
       <path d="M 45.40625 27.984375 
Q 45.40625 37.75 41.375 43.109375 
Q 37.359375 48.484375 30.078125 48.484375 
Q 22.859375 48.484375 18.828125 43.109375 
Q 14.796875 37.75 14.796875 27.984375 
Q 14.796875 18.265625 18.828125 12.890625 
Q 22.859375 7.515625 30.078125 7.515625 
Q 37.359375 7.515625 41.375 12.890625 
Q 45.40625 18.265625 45.40625 27.984375 
z
M 54.390625 6.78125 
Q 54.390625 -7.171875 48.1875 -13.984375 
Q 42 -20.796875 29.203125 -20.796875 
Q 24.46875 -20.796875 20.265625 -20.09375 
Q 16.0625 -19.390625 12.109375 -17.921875 
L 12.109375 -9.1875 
Q 16.0625 -11.328125 19.921875 -12.34375 
Q 23.78125 -13.375 27.78125 -13.375 
Q 36.625 -13.375 41.015625 -8.765625 
Q 45.40625 -4.15625 45.40625 5.171875 
L 45.40625 9.625 
Q 42.625 4.78125 38.28125 2.390625 
Q 33.9375 0 27.875 0 
Q 17.828125 0 11.671875 7.65625 
Q 5.515625 15.328125 5.515625 27.984375 
Q 5.515625 40.671875 11.671875 48.328125 
Q 17.828125 56 27.875 56 
Q 33.9375 56 38.28125 53.609375 
Q 42.625 51.21875 45.40625 46.390625 
L 45.40625 54.6875 
L 54.390625 54.6875 
z
" id="DejaVuSans-103"/>
       <path d="M 12.40625 8.296875 
L 28.515625 8.296875 
L 28.515625 63.921875 
L 10.984375 60.40625 
L 10.984375 69.390625 
L 28.421875 72.90625 
L 38.28125 72.90625 
L 38.28125 8.296875 
L 54.390625 8.296875 
L 54.390625 0 
L 12.40625 0 
z
" id="DejaVuSans-49"/>
       <path d="M 31 75.875 
Q 24.46875 64.65625 21.28125 53.65625 
Q 18.109375 42.671875 18.109375 31.390625 
Q 18.109375 20.125 21.3125 9.0625 
Q 24.515625 -2 31 -13.1875 
L 23.1875 -13.1875 
Q 15.875 -1.703125 12.234375 9.375 
Q 8.59375 20.453125 8.59375 31.390625 
Q 8.59375 42.28125 12.203125 53.3125 
Q 15.828125 64.359375 23.1875 75.875 
z
" id="DejaVuSans-40"/>
       <path d="M 51.125 44 
L 36.921875 44 
L 32.8125 27.6875 
L 47.125 27.6875 
z
M 43.796875 71.78125 
L 38.71875 51.515625 
L 52.984375 51.515625 
L 58.109375 71.78125 
L 65.921875 71.78125 
L 60.890625 51.515625 
L 76.125 51.515625 
L 76.125 44 
L 58.984375 44 
L 54.984375 27.6875 
L 70.515625 27.6875 
L 70.515625 20.21875 
L 53.078125 20.21875 
L 48 0 
L 40.1875 0 
L 45.21875 20.21875 
L 30.90625 20.21875 
L 25.875 0 
L 18.015625 0 
L 23.09375 20.21875 
L 7.71875 20.21875 
L 7.71875 27.6875 
L 24.90625 27.6875 
L 29 44 
L 13.28125 44 
L 13.28125 51.515625 
L 30.90625 51.515625 
L 35.890625 71.78125 
z
" id="DejaVuSans-35"/>
       <path id="DejaVuSans-32"/>
       <path d="M 37.109375 75.984375 
L 37.109375 68.5 
L 28.515625 68.5 
Q 23.6875 68.5 21.796875 66.546875 
Q 19.921875 64.59375 19.921875 59.515625 
L 19.921875 54.6875 
L 34.71875 54.6875 
L 34.71875 47.703125 
L 19.921875 47.703125 
L 19.921875 0 
L 10.890625 0 
L 10.890625 47.703125 
L 2.296875 47.703125 
L 2.296875 54.6875 
L 10.890625 54.6875 
L 10.890625 58.5 
Q 10.890625 67.625 15.140625 71.796875 
Q 19.390625 75.984375 28.609375 75.984375 
z
" id="DejaVuSans-102"/>
       <path d="M 4.890625 31.390625 
L 31.203125 31.390625 
L 31.203125 23.390625 
L 4.890625 23.390625 
z
" id="DejaVuSans-45"/>
       <path d="M 56.203125 29.59375 
L 56.203125 25.203125 
L 14.890625 25.203125 
Q 15.484375 15.921875 20.484375 11.0625 
Q 25.484375 6.203125 34.421875 6.203125 
Q 39.59375 6.203125 44.453125 7.46875 
Q 49.3125 8.734375 54.109375 11.28125 
L 54.109375 2.78125 
Q 49.265625 0.734375 44.1875 -0.34375 
Q 39.109375 -1.421875 33.890625 -1.421875 
Q 20.796875 -1.421875 13.15625 6.1875 
Q 5.515625 13.8125 5.515625 26.8125 
Q 5.515625 40.234375 12.765625 48.109375 
Q 20.015625 56 32.328125 56 
Q 43.359375 56 49.78125 48.890625 
Q 56.203125 41.796875 56.203125 29.59375 
z
M 47.21875 32.234375 
Q 47.125 39.59375 43.09375 43.984375 
Q 39.0625 48.390625 32.421875 48.390625 
Q 24.90625 48.390625 20.390625 44.140625 
Q 15.875 39.890625 15.1875 32.171875 
z
" id="DejaVuSans-101"/>
       <path d="M 2.984375 54.6875 
L 12.5 54.6875 
L 29.59375 8.796875 
L 46.6875 54.6875 
L 56.203125 54.6875 
L 35.6875 0 
L 23.484375 0 
z
" id="DejaVuSans-118"/>
       <path d="M 34.28125 27.484375 
Q 23.390625 27.484375 19.1875 25 
Q 14.984375 22.515625 14.984375 16.5 
Q 14.984375 11.71875 18.140625 8.90625 
Q 21.296875 6.109375 26.703125 6.109375 
Q 34.1875 6.109375 38.703125 11.40625 
Q 43.21875 16.703125 43.21875 25.484375 
L 43.21875 27.484375 
z
M 52.203125 31.203125 
L 52.203125 0 
L 43.21875 0 
L 43.21875 8.296875 
Q 40.140625 3.328125 35.546875 0.953125 
Q 30.953125 -1.421875 24.3125 -1.421875 
Q 15.921875 -1.421875 10.953125 3.296875 
Q 6 8.015625 6 15.921875 
Q 6 25.140625 12.171875 29.828125 
Q 18.359375 34.515625 30.609375 34.515625 
L 43.21875 34.515625 
L 43.21875 35.40625 
Q 43.21875 41.609375 39.140625 45 
Q 35.0625 48.390625 27.6875 48.390625 
Q 23 48.390625 18.546875 47.265625 
Q 14.109375 46.140625 10.015625 43.890625 
L 10.015625 52.203125 
Q 14.9375 54.109375 19.578125 55.046875 
Q 24.21875 56 28.609375 56 
Q 40.484375 56 46.34375 49.84375 
Q 52.203125 43.703125 52.203125 31.203125 
z
" id="DejaVuSans-97"/>
       <path d="M 44.28125 53.078125 
L 44.28125 44.578125 
Q 40.484375 46.53125 36.375 47.5 
Q 32.28125 48.484375 27.875 48.484375 
Q 21.1875 48.484375 17.84375 46.4375 
Q 14.5 44.390625 14.5 40.28125 
Q 14.5 37.15625 16.890625 35.375 
Q 19.28125 33.59375 26.515625 31.984375 
L 29.59375 31.296875 
Q 39.15625 29.25 43.1875 25.515625 
Q 47.21875 21.78125 47.21875 15.09375 
Q 47.21875 7.46875 41.1875 3.015625 
Q 35.15625 -1.421875 24.609375 -1.421875 
Q 20.21875 -1.421875 15.453125 -0.5625 
Q 10.6875 0.296875 5.421875 2 
L 5.421875 11.28125 
Q 10.40625 8.6875 15.234375 7.390625 
Q 20.0625 6.109375 24.8125 6.109375 
Q 31.15625 6.109375 34.5625 8.28125 
Q 37.984375 10.453125 37.984375 14.40625 
Q 37.984375 18.0625 35.515625 20.015625 
Q 33.0625 21.96875 24.703125 23.78125 
L 21.578125 24.515625 
Q 13.234375 26.265625 9.515625 29.90625 
Q 5.8125 33.546875 5.8125 39.890625 
Q 5.8125 47.609375 11.28125 51.796875 
Q 16.75 56 26.8125 56 
Q 31.78125 56 36.171875 55.265625 
Q 40.578125 54.546875 44.28125 53.078125 
z
" id="DejaVuSans-115"/>
       <path d="M 25.390625 72.90625 
L 33.6875 72.90625 
L 8.296875 -9.28125 
L 0 -9.28125 
z
" id="DejaVuSans-47"/>
       <path d="M 45.40625 46.390625 
L 45.40625 75.984375 
L 54.390625 75.984375 
L 54.390625 0 
L 45.40625 0 
L 45.40625 8.203125 
Q 42.578125 3.328125 38.25 0.953125 
Q 33.9375 -1.421875 27.875 -1.421875 
Q 17.96875 -1.421875 11.734375 6.484375 
Q 5.515625 14.40625 5.515625 27.296875 
Q 5.515625 40.1875 11.734375 48.09375 
Q 17.96875 56 27.875 56 
Q 33.9375 56 38.25 53.625 
Q 42.578125 51.265625 45.40625 46.390625 
z
M 14.796875 27.296875 
Q 14.796875 17.390625 18.875 11.75 
Q 22.953125 6.109375 30.078125 6.109375 
Q 37.203125 6.109375 41.296875 11.75 
Q 45.40625 17.390625 45.40625 27.296875 
Q 45.40625 37.203125 41.296875 42.84375 
Q 37.203125 48.484375 30.078125 48.484375 
Q 22.953125 48.484375 18.875 42.84375 
Q 14.796875 37.203125 14.796875 27.296875 
z
" id="DejaVuSans-100"/>
       <path d="M 9.421875 54.6875 
L 18.40625 54.6875 
L 18.40625 0 
L 9.421875 0 
z
M 9.421875 75.984375 
L 18.40625 75.984375 
L 18.40625 64.59375 
L 9.421875 64.59375 
z
" id="DejaVuSans-105"/>
       <path d="M 52 44.1875 
Q 55.375 50.25 60.0625 53.125 
Q 64.75 56 71.09375 56 
Q 79.640625 56 84.28125 50.015625 
Q 88.921875 44.046875 88.921875 33.015625 
L 88.921875 0 
L 79.890625 0 
L 79.890625 32.71875 
Q 79.890625 40.578125 77.09375 44.375 
Q 74.3125 48.1875 68.609375 48.1875 
Q 61.625 48.1875 57.5625 43.546875 
Q 53.515625 38.921875 53.515625 30.90625 
L 53.515625 0 
L 44.484375 0 
L 44.484375 32.71875 
Q 44.484375 40.625 41.703125 44.40625 
Q 38.921875 48.1875 33.109375 48.1875 
Q 26.21875 48.1875 22.15625 43.53125 
Q 18.109375 38.875 18.109375 30.90625 
L 18.109375 0 
L 9.078125 0 
L 9.078125 54.6875 
L 18.109375 54.6875 
L 18.109375 46.1875 
Q 21.1875 51.21875 25.484375 53.609375 
Q 29.78125 56 35.6875 56 
Q 41.65625 56 45.828125 52.96875 
Q 50 49.953125 52 44.1875 
z
" id="DejaVuSans-109"/>
       <path d="M 54.890625 33.015625 
L 54.890625 0 
L 45.90625 0 
L 45.90625 32.71875 
Q 45.90625 40.484375 42.875 44.328125 
Q 39.84375 48.1875 33.796875 48.1875 
Q 26.515625 48.1875 22.3125 43.546875 
Q 18.109375 38.921875 18.109375 30.90625 
L 18.109375 0 
L 9.078125 0 
L 9.078125 54.6875 
L 18.109375 54.6875 
L 18.109375 46.1875 
Q 21.34375 51.125 25.703125 53.5625 
Q 30.078125 56 35.796875 56 
Q 45.21875 56 50.046875 50.171875 
Q 54.890625 44.34375 54.890625 33.015625 
z
" id="DejaVuSans-110"/>
       <path d="M 8.015625 75.875 
L 15.828125 75.875 
Q 23.140625 64.359375 26.78125 53.3125 
Q 30.421875 42.28125 30.421875 31.390625 
Q 30.421875 20.453125 26.78125 9.375 
Q 23.140625 -1.703125 15.828125 -13.1875 
L 8.015625 -13.1875 
Q 14.5 -2 17.703125 9.0625 
Q 20.90625 20.125 20.90625 31.390625 
Q 20.90625 42.671875 17.703125 53.65625 
Q 14.5 64.65625 8.015625 75.875 
z
" id="DejaVuSans-41"/>
      </defs>
      <use xlink:href="#DejaVuSans-108"/>
      <use x="27.783203" xlink:href="#DejaVuSans-111"/>
      <use x="88.964844" xlink:href="#DejaVuSans-103"/>
      <use x="152.441406" xlink:href="#DejaVuSans-49"/>
      <use x="216.064453" xlink:href="#DejaVuSans-48"/>
      <use x="279.6875" xlink:href="#DejaVuSans-40"/>
      <use x="318.701172" xlink:href="#DejaVuSans-35"/>
      <use x="402.490234" xlink:href="#DejaVuSans-32"/>
      <use x="434.277344" xlink:href="#DejaVuSans-102"/>
      <use x="463.982422" xlink:href="#DejaVuSans-45"/>
      <use x="500.066406" xlink:href="#DejaVuSans-101"/>
      <use x="561.589844" xlink:href="#DejaVuSans-118"/>
      <use x="620.769531" xlink:href="#DejaVuSans-97"/>
      <use x="682.048828" xlink:href="#DejaVuSans-108"/>
      <use x="709.832031" xlink:href="#DejaVuSans-115"/>
      <use x="761.931641" xlink:href="#DejaVuSans-32"/>
      <use x="793.71875" xlink:href="#DejaVuSans-47"/>
      <use x="827.410156" xlink:href="#DejaVuSans-32"/>
      <use x="859.197266" xlink:href="#DejaVuSans-100"/>
      <use x="922.673828" xlink:href="#DejaVuSans-105"/>
      <use x="950.457031" xlink:href="#DejaVuSans-109"/>
      <use x="1047.869141" xlink:href="#DejaVuSans-101"/>
      <use x="1109.392578" xlink:href="#DejaVuSans-110"/>
      <use x="1172.771484" xlink:href="#DejaVuSans-115"/>
      <use x="1224.871094" xlink:href="#DejaVuSans-105"/>
      <use x="1252.654297" xlink:href="#DejaVuSans-111"/>
      <use x="1313.835938" xlink:href="#DejaVuSans-110"/>
      <use x="1377.214844" xlink:href="#DejaVuSans-41"/>
     </g>
    </g>
   </g>
   <g id="matplotlib.axis_2">
    <g id="ytick_1">
     <g id="line2d_21">
      <path clip-path="url(#p731670815f)" d="M 57.6 298.944 
L 338.688 298.944 
" style="fill:none;stroke:#b0b0b0;stroke-linecap:square;stroke-width:0.8;"/>
     </g>
     <g id="line2d_22">
      <defs>
       <path d="M 0 0 
L -3.5 0 
" id="m5879e006e5" style="stroke:#000000;stroke-width:0.8;"/>
      </defs>
      <g>
       <use style="stroke:#000000;stroke-width:0.8;" x="57.6" xlink:href="#m5879e006e5" y="298.944"/>
      </g>
     </g>
     <g id="text_6">
      <!-- 0.0 -->
      <g transform="translate(25.155 305.02275)scale(0.16 -0.16)">
       <defs>
        <path d="M 10.6875 12.40625 
L 21 12.40625 
L 21 0 
L 10.6875 0 
z
" id="DejaVuSans-46"/>
       </defs>
       <use xlink:href="#DejaVuSans-48"/>
       <use x="63.623047" xlink:href="#DejaVuSans-46"/>
       <use x="95.410156" xlink:href="#DejaVuSans-48"/>
      </g>
     </g>
    </g>
    <g id="ytick_2">
     <g id="line2d_23">
      <path clip-path="url(#p731670815f)" d="M 57.6 245.22202 
L 338.688 245.22202 
" style="fill:none;stroke:#b0b0b0;stroke-linecap:square;stroke-width:0.8;"/>
     </g>
     <g id="line2d_24">
      <g>
       <use style="stroke:#000000;stroke-width:0.8;" x="57.6" xlink:href="#m5879e006e5" y="245.22202"/>
      </g>
     </g>
     <g id="text_7">
      <!-- 0.2 -->
      <g transform="translate(25.155 251.30077)scale(0.16 -0.16)">
       <use xlink:href="#DejaVuSans-48"/>
       <use x="63.623047" xlink:href="#DejaVuSans-46"/>
       <use x="95.410156" xlink:href="#DejaVuSans-50"/>
      </g>
     </g>
    </g>
    <g id="ytick_3">
     <g id="line2d_25">
      <path clip-path="url(#p731670815f)" d="M 57.6 191.50004 
L 338.688 191.50004 
" style="fill:none;stroke:#b0b0b0;stroke-linecap:square;stroke-width:0.8;"/>
     </g>
     <g id="line2d_26">
      <g>
       <use style="stroke:#000000;stroke-width:0.8;" x="57.6" xlink:href="#m5879e006e5" y="191.50004"/>
      </g>
     </g>
     <g id="text_8">
      <!-- 0.4 -->
      <g transform="translate(25.155 197.57879)scale(0.16 -0.16)">
       <use xlink:href="#DejaVuSans-48"/>
       <use x="63.623047" xlink:href="#DejaVuSans-46"/>
       <use x="95.410156" xlink:href="#DejaVuSans-52"/>
      </g>
     </g>
    </g>
    <g id="ytick_4">
     <g id="line2d_27">
      <path clip-path="url(#p731670815f)" d="M 57.6 137.778059 
L 338.688 137.778059 
" style="fill:none;stroke:#b0b0b0;stroke-linecap:square;stroke-width:0.8;"/>
     </g>
     <g id="line2d_28">
      <g>
       <use style="stroke:#000000;stroke-width:0.8;" x="57.6" xlink:href="#m5879e006e5" y="137.778059"/>
      </g>
     </g>
     <g id="text_9">
      <!-- 0.6 -->
      <g transform="translate(25.155 143.856809)scale(0.16 -0.16)">
       <use xlink:href="#DejaVuSans-48"/>
       <use x="63.623047" xlink:href="#DejaVuSans-46"/>
       <use x="95.410156" xlink:href="#DejaVuSans-54"/>
      </g>
     </g>
    </g>
    <g id="ytick_5">
     <g id="line2d_29">
      <path clip-path="url(#p731670815f)" d="M 57.6 84.056079 
L 338.688 84.056079 
" style="fill:none;stroke:#b0b0b0;stroke-linecap:square;stroke-width:0.8;"/>
     </g>
     <g id="line2d_30">
      <g>
       <use style="stroke:#000000;stroke-width:0.8;" x="57.6" xlink:href="#m5879e006e5" y="84.056079"/>
      </g>
     </g>
     <g id="text_10">
      <!-- 0.8 -->
      <g transform="translate(25.155 90.134829)scale(0.16 -0.16)">
       <defs>
        <path d="M 31.78125 34.625 
Q 24.75 34.625 20.71875 30.859375 
Q 16.703125 27.09375 16.703125 20.515625 
Q 16.703125 13.921875 20.71875 10.15625 
Q 24.75 6.390625 31.78125 6.390625 
Q 38.8125 6.390625 42.859375 10.171875 
Q 46.921875 13.96875 46.921875 20.515625 
Q 46.921875 27.09375 42.890625 30.859375 
Q 38.875 34.625 31.78125 34.625 
z
M 21.921875 38.8125 
Q 15.578125 40.375 12.03125 44.71875 
Q 8.5 49.078125 8.5 55.328125 
Q 8.5 64.0625 14.71875 69.140625 
Q 20.953125 74.21875 31.78125 74.21875 
Q 42.671875 74.21875 48.875 69.140625 
Q 55.078125 64.0625 55.078125 55.328125 
Q 55.078125 49.078125 51.53125 44.71875 
Q 48 40.375 41.703125 38.8125 
Q 48.828125 37.15625 52.796875 32.3125 
Q 56.78125 27.484375 56.78125 20.515625 
Q 56.78125 9.90625 50.3125 4.234375 
Q 43.84375 -1.421875 31.78125 -1.421875 
Q 19.734375 -1.421875 13.25 4.234375 
Q 6.78125 9.90625 6.78125 20.515625 
Q 6.78125 27.484375 10.78125 32.3125 
Q 14.796875 37.15625 21.921875 38.8125 
z
M 18.3125 54.390625 
Q 18.3125 48.734375 21.84375 45.5625 
Q 25.390625 42.390625 31.78125 42.390625 
Q 38.140625 42.390625 41.71875 45.5625 
Q 45.3125 48.734375 45.3125 54.390625 
Q 45.3125 60.0625 41.71875 63.234375 
Q 38.140625 66.40625 31.78125 66.40625 
Q 25.390625 66.40625 21.84375 63.234375 
Q 18.3125 60.0625 18.3125 54.390625 
z
" id="DejaVuSans-56"/>
       </defs>
       <use xlink:href="#DejaVuSans-48"/>
       <use x="63.623047" xlink:href="#DejaVuSans-46"/>
       <use x="95.410156" xlink:href="#DejaVuSans-56"/>
      </g>
     </g>
    </g>
    <g id="ytick_6">
     <g id="line2d_31">
      <path clip-path="url(#p731670815f)" d="M 57.6 30.334099 
L 338.688 30.334099 
" style="fill:none;stroke:#b0b0b0;stroke-linecap:square;stroke-width:0.8;"/>
     </g>
     <g id="line2d_32">
      <g>
       <use style="stroke:#000000;stroke-width:0.8;" x="57.6" xlink:href="#m5879e006e5" y="30.334099"/>
      </g>
     </g>
     <g id="text_11">
      <!-- 1.0 -->
      <g transform="translate(25.155 36.412849)scale(0.16 -0.16)">
       <use xlink:href="#DejaVuSans-49"/>
       <use x="63.623047" xlink:href="#DejaVuSans-46"/>
       <use x="95.410156" xlink:href="#DejaVuSans-48"/>
      </g>
     </g>
    </g>
    <g id="text_12">
     <!-- Fraction of function,target pairs -->
     <g transform="translate(17.619531 297.681)rotate(-90)scale(0.17 -0.17)">
      <defs>
       <path d="M 9.8125 72.90625 
L 51.703125 72.90625 
L 51.703125 64.59375 
L 19.671875 64.59375 
L 19.671875 43.109375 
L 48.578125 43.109375 
L 48.578125 34.8125 
L 19.671875 34.8125 
L 19.671875 0 
L 9.8125 0 
z
" id="DejaVuSans-70"/>
       <path d="M 41.109375 46.296875 
Q 39.59375 47.171875 37.8125 47.578125 
Q 36.03125 48 33.890625 48 
Q 26.265625 48 22.1875 43.046875 
Q 18.109375 38.09375 18.109375 28.8125 
L 18.109375 0 
L 9.078125 0 
L 9.078125 54.6875 
L 18.109375 54.6875 
L 18.109375 46.1875 
Q 20.953125 51.171875 25.484375 53.578125 
Q 30.03125 56 36.53125 56 
Q 37.453125 56 38.578125 55.875 
Q 39.703125 55.765625 41.0625 55.515625 
z
" id="DejaVuSans-114"/>
       <path d="M 48.78125 52.59375 
L 48.78125 44.1875 
Q 44.96875 46.296875 41.140625 47.34375 
Q 37.3125 48.390625 33.40625 48.390625 
Q 24.65625 48.390625 19.8125 42.84375 
Q 14.984375 37.3125 14.984375 27.296875 
Q 14.984375 17.28125 19.8125 11.734375 
Q 24.65625 6.203125 33.40625 6.203125 
Q 37.3125 6.203125 41.140625 7.25 
Q 44.96875 8.296875 48.78125 10.40625 
L 48.78125 2.09375 
Q 45.015625 0.34375 40.984375 -0.53125 
Q 36.96875 -1.421875 32.421875 -1.421875 
Q 20.0625 -1.421875 12.78125 6.34375 
Q 5.515625 14.109375 5.515625 27.296875 
Q 5.515625 40.671875 12.859375 48.328125 
Q 20.21875 56 33.015625 56 
Q 37.15625 56 41.109375 55.140625 
Q 45.0625 54.296875 48.78125 52.59375 
z
" id="DejaVuSans-99"/>
       <path d="M 18.3125 70.21875 
L 18.3125 54.6875 
L 36.8125 54.6875 
L 36.8125 47.703125 
L 18.3125 47.703125 
L 18.3125 18.015625 
Q 18.3125 11.328125 20.140625 9.421875 
Q 21.96875 7.515625 27.59375 7.515625 
L 36.8125 7.515625 
L 36.8125 0 
L 27.59375 0 
Q 17.1875 0 13.234375 3.875 
Q 9.28125 7.765625 9.28125 18.015625 
L 9.28125 47.703125 
L 2.6875 47.703125 
L 2.6875 54.6875 
L 9.28125 54.6875 
L 9.28125 70.21875 
z
" id="DejaVuSans-116"/>
       <path d="M 8.5 21.578125 
L 8.5 54.6875 
L 17.484375 54.6875 
L 17.484375 21.921875 
Q 17.484375 14.15625 20.5 10.265625 
Q 23.53125 6.390625 29.59375 6.390625 
Q 36.859375 6.390625 41.078125 11.03125 
Q 45.3125 15.671875 45.3125 23.6875 
L 45.3125 54.6875 
L 54.296875 54.6875 
L 54.296875 0 
L 45.3125 0 
L 45.3125 8.40625 
Q 42.046875 3.421875 37.71875 1 
Q 33.40625 -1.421875 27.6875 -1.421875 
Q 18.265625 -1.421875 13.375 4.4375 
Q 8.5 10.296875 8.5 21.578125 
z
M 31.109375 56 
z
" id="DejaVuSans-117"/>
       <path d="M 11.71875 12.40625 
L 22.015625 12.40625 
L 22.015625 4 
L 14.015625 -11.625 
L 7.71875 -11.625 
L 11.71875 4 
z
" id="DejaVuSans-44"/>
       <path d="M 18.109375 8.203125 
L 18.109375 -20.796875 
L 9.078125 -20.796875 
L 9.078125 54.6875 
L 18.109375 54.6875 
L 18.109375 46.390625 
Q 20.953125 51.265625 25.265625 53.625 
Q 29.59375 56 35.59375 56 
Q 45.5625 56 51.78125 48.09375 
Q 58.015625 40.1875 58.015625 27.296875 
Q 58.015625 14.40625 51.78125 6.484375 
Q 45.5625 -1.421875 35.59375 -1.421875 
Q 29.59375 -1.421875 25.265625 0.953125 
Q 20.953125 3.328125 18.109375 8.203125 
z
M 48.6875 27.296875 
Q 48.6875 37.203125 44.609375 42.84375 
Q 40.53125 48.484375 33.40625 48.484375 
Q 26.265625 48.484375 22.1875 42.84375 
Q 18.109375 37.203125 18.109375 27.296875 
Q 18.109375 17.390625 22.1875 11.75 
Q 26.265625 6.109375 33.40625 6.109375 
Q 40.53125 6.109375 44.609375 11.75 
Q 48.6875 17.390625 48.6875 27.296875 
z
" id="DejaVuSans-112"/>
      </defs>
      <use xlink:href="#DejaVuSans-70"/>
      <use x="50.269531" xlink:href="#DejaVuSans-114"/>
      <use x="91.382812" xlink:href="#DejaVuSans-97"/>
      <use x="152.662109" xlink:href="#DejaVuSans-99"/>
      <use x="207.642578" xlink:href="#DejaVuSans-116"/>
      <use x="246.851562" xlink:href="#DejaVuSans-105"/>
      <use x="274.634766" xlink:href="#DejaVuSans-111"/>
      <use x="335.816406" xlink:href="#DejaVuSans-110"/>
      <use x="399.195312" xlink:href="#DejaVuSans-32"/>
      <use x="430.982422" xlink:href="#DejaVuSans-111"/>
      <use x="492.164062" xlink:href="#DejaVuSans-102"/>
      <use x="527.369141" xlink:href="#DejaVuSans-32"/>
      <use x="559.15625" xlink:href="#DejaVuSans-102"/>
      <use x="594.361328" xlink:href="#DejaVuSans-117"/>
      <use x="657.740234" xlink:href="#DejaVuSans-110"/>
      <use x="721.119141" xlink:href="#DejaVuSans-99"/>
      <use x="776.099609" xlink:href="#DejaVuSans-116"/>
      <use x="815.308594" xlink:href="#DejaVuSans-105"/>
      <use x="843.091797" xlink:href="#DejaVuSans-111"/>
      <use x="904.273438" xlink:href="#DejaVuSans-110"/>
      <use x="967.652344" xlink:href="#DejaVuSans-44"/>
      <use x="999.439453" xlink:href="#DejaVuSans-116"/>
      <use x="1038.648438" xlink:href="#DejaVuSans-97"/>
      <use x="1099.927734" xlink:href="#DejaVuSans-114"/>
      <use x="1139.291016" xlink:href="#DejaVuSans-103"/>
      <use x="1202.767578" xlink:href="#DejaVuSans-101"/>
      <use x="1264.291016" xlink:href="#DejaVuSans-116"/>
      <use x="1303.5" xlink:href="#DejaVuSans-32"/>
      <use x="1335.287109" xlink:href="#DejaVuSans-112"/>
      <use x="1398.763672" xlink:href="#DejaVuSans-97"/>
      <use x="1460.042969" xlink:href="#DejaVuSans-105"/>
      <use x="1487.826172" xlink:href="#DejaVuSans-114"/>
      <use x="1528.939453" xlink:href="#DejaVuSans-115"/>
     </g>
    </g>
   </g>
   <g id="line2d_33">
    <defs>
     <path d="M 0 1.5 
C 0.397805 1.5 0.77937 1.341951 1.06066 1.06066 
C 1.341951 0.77937 1.5 0.397805 1.5 0 
C 1.5 -0.397805 1.341951 -0.77937 1.06066 -1.06066 
C 0.77937 -1.341951 0.397805 -1.5 0 -1.5 
C -0.397805 -1.5 -0.77937 -1.341951 -1.06066 -1.06066 
C -1.341951 -0.77937 -1.5 -0.397805 -1.5 0 
C -1.5 0.397805 -1.341951 0.77937 -1.06066 1.06066 
C -0.77937 1.341951 -0.397805 1.5 0 1.5 
z
" id="mb36c1544bd" style="stroke:#f5deb3;"/>
    </defs>
    <g>
     <use style="fill:#f5deb3;stroke:#f5deb3;" x="148.200145" xlink:href="#mb36c1544bd" y="30.334099"/>
     <use style="fill:#f5deb3;stroke:#f5deb3;" x="148.200145" xlink:href="#mb36c1544bd" y="30.334099"/>
    </g>
   </g>
   <g id="line2d_34">
    <defs>
     <path d="M 0 1.5 
C 0.397805 1.5 0.77937 1.341951 1.06066 1.06066 
C 1.341951 0.77937 1.5 0.397805 1.5 0 
C 1.5 -0.397805 1.341951 -0.77937 1.06066 -1.06066 
C 0.77937 -1.341951 0.397805 -1.5 0 -1.5 
C -0.397805 -1.5 -0.77937 -1.341951 -1.06066 -1.06066 
C -1.341951 -0.77937 -1.5 -0.397805 -1.5 0 
C -1.5 0.397805 -1.341951 0.77937 -1.06066 1.06066 
C -0.77937 1.341951 -0.397805 1.5 0 1.5 
z
" id="m448109dbb1" style="stroke:#000080;"/>
    </defs>
    <g>
     <use style="fill:#000080;stroke:#000080;" x="165.047026" xlink:href="#m448109dbb1" y="30.334099"/>
     <use style="fill:#000080;stroke:#000080;" x="165.047026" xlink:href="#m448109dbb1" y="30.334099"/>
    </g>
   </g>
   <g id="line2d_35">
    <path d="M 136.942755 298.944 
L 136.942755 298.417314 
L 141.002999 298.417314 
L 141.002999 297.363942 
L 142.378651 297.363942 
L 142.378651 296.837256 
L 143.144465 296.837256 
L 143.144465 296.31057 
L 143.728793 296.31057 
L 143.728793 295.783884 
L 144.197155 295.783884 
L 144.197155 295.257197 
L 144.794859 295.257197 
L 144.794859 294.730511 
L 145.005114 294.730511 
L 145.005114 294.203825 
L 145.643486 294.203825 
L 145.710517 293.150453 
L 145.888018 293.150453 
L 145.998045 291.570395 
L 146.216039 291.570395 
L 146.259313 290.517023 
L 146.474085 290.517023 
L 146.474085 288.410278 
L 147.02042 288.410278 
L 147.041095 286.83022 
L 147.287301 286.83022 
L 147.287301 286.303534 
L 147.429332 286.303534 
L 147.429332 285.776848 
L 147.550159 285.776848 
L 147.550159 285.250162 
L 147.828875 285.250162 
L 147.828875 284.723476 
L 147.946974 284.723476 
L 147.946974 284.19679 
L 148.27731 284.19679 
L 148.296548 282.616732 
L 148.582601 282.616732 
L 148.582601 282.090045 
L 148.78943 282.090045 
L 148.78943 281.563359 
L 149.085961 281.563359 
L 149.159312 279.983301 
L 149.628721 279.983301 
L 149.735275 278.929929 
L 149.823575 278.929929 
L 149.85877 276.823185 
L 150.103169 276.823185 
L 150.206871 275.243126 
L 150.327083 275.243126 
L 150.327083 274.71644 
L 150.463462 274.71644 
L 150.463462 274.189754 
L 150.581924 274.189754 
L 150.581924 273.663068 
L 150.882897 273.663068 
L 150.882897 273.136382 
L 151.146137 273.136382 
L 151.146137 269.976266 
L 152.130233 269.976266 
L 152.130233 268.396207 
L 152.344968 268.396207 
L 152.344968 267.869521 
L 152.751777 267.869521 
L 152.751777 266.289463 
L 153.120174 266.289463 
L 153.178403 264.709405 
L 153.665645 264.709405 
L 153.722083 263.129347 
L 154.001564 263.129347 
L 154.001564 262.60266 
L 154.249325 262.60266 
L 154.249325 262.075974 
L 154.57429 262.075974 
L 154.627867 260.495916 
L 154.919633 260.495916 
L 154.972161 258.915858 
L 155.386785 258.915858 
L 155.437927 257.862486 
L 155.501643 257.862486 
L 155.577798 255.229055 
L 155.691409 255.229055 
L 155.691409 254.702369 
L 155.804285 254.702369 
L 155.854218 252.595625 
L 155.953659 252.595625 
L 156.040206 249.962195 
L 156.08947 249.962195 
L 156.187581 248.908822 
L 156.212023 248.908822 
L 156.236431 247.328764 
L 156.406335 247.328764 
L 156.514691 244.695334 
L 156.586556 244.695334 
L 156.658127 242.588589 
L 156.788581 242.588589 
L 156.882847 239.428473 
L 156.953214 239.428473 
L 157.011638 236.268356 
L 157.104709 236.268356 
L 157.185742 234.161612 
L 157.243392 234.161612 
L 157.2549 232.581554 
L 157.517493 232.581554 
L 157.61918 228.368065 
L 157.753847 228.368065 
L 157.831925 224.681263 
L 157.909655 224.681263 
L 157.998067 218.887716 
L 158.031107 218.887716 
L 158.064083 215.200913 
L 158.217157 215.200913 
L 158.271501 214.147541 
L 158.336493 214.147541 
L 158.433528 212.567483 
L 158.51933 212.567483 
L 158.572743 203.613819 
L 158.647247 203.613819 
L 158.753132 201.507075 
L 158.763686 201.507075 
L 158.83738 199.400331 
L 158.889829 199.400331 
L 158.994256 195.713528 
L 159.004665 195.713528 
L 159.108409 191.50004 
L 159.129083 191.50004 
L 159.232092 186.233179 
L 159.476858 186.233179 
L 159.587904 177.806202 
L 159.668223 177.806202 
L 159.708245 175.172771 
L 159.797958 175.172771 
L 159.797958 173.066027 
L 159.936602 173.066027 
L 160.044768 169.379224 
L 160.064363 169.379224 
L 160.132771 161.478933 
L 160.191194 161.478933 
L 160.288133 153.578642 
L 160.307457 153.578642 
L 160.384537 150.945211 
L 160.489968 150.945211 
L 160.594766 143.04492 
L 160.613753 143.04492 
L 160.717812 138.304745 
L 160.755498 138.304745 
L 160.755498 137.778059 
L 160.886762 137.778059 
L 160.961329 129.351082 
L 161.007772 129.351082 
L 161.06334 123.030849 
L 161.127947 123.030849 
L 161.210663 118.817361 
L 161.311231 118.817361 
L 161.393084 108.283639 
L 161.492608 108.283639 
L 161.582595 104.596836 
L 161.618459 104.596836 
L 161.689969 97.749917 
L 161.796686 97.749917 
L 161.893939 93.009743 
L 162.016937 93.009743 
L 162.112973 80.369277 
L 162.139074 80.369277 
L 162.199823 78.262532 
L 162.260361 78.262532 
L 162.260361 76.682474 
L 162.415072 76.682474 
L 162.483394 71.415613 
L 162.542958 71.415613 
L 162.636148 68.255497 
L 162.661478 68.255497 
L 162.762429 59.82852 
L 162.854457 59.82852 
L 162.9377 56.141717 
L 162.970886 56.141717 
L 162.970886 48.768112 
L 163.127663 48.768112 
L 163.225959 46.661368 
L 163.461244 46.661368 
L 163.461244 44.554623 
L 163.66156 44.554623 
L 163.693398 40.341135 
L 163.835954 40.341135 
L 163.938192 37.707704 
L 163.985177 37.707704 
L 164.01643 35.60096 
L 164.109855 35.60096 
L 164.179597 33.494215 
L 164.463418 33.494215 
L 164.516598 32.440843 
L 164.652607 32.440843 
L 164.652607 31.914157 
L 164.802494 31.914157 
L 164.802494 31.387471 
L 165.017568 31.387471 
L 165.047026 30.334099 
L 338.688 30.334099 
L 338.688 30.334099 
" style="fill:none;stroke:#000080;stroke-linecap:square;stroke-width:1.5;"/>
   </g>
   <g id="line2d_36">
    <defs>
     <path d="M 0 6 
C 1.591219 6 3.117479 5.367802 4.242641 4.242641 
C 5.367802 3.117479 6 1.591219 6 0 
C 6 -1.591219 5.367802 -3.117479 4.242641 -4.242641 
C 3.117479 -5.367802 1.591219 -6 0 -6 
C -1.591219 -6 -3.117479 -5.367802 -4.242641 -4.242641 
C -5.367802 -3.117479 -6 -1.591219 -6 0 
C -6 1.591219 -5.367802 3.117479 -4.242641 4.242641 
C -3.117479 5.367802 -1.591219 6 0 6 
z
" id="m5b0e468da8" style="stroke:#000080;stroke-width:1.5;"/>
    </defs>
    <g>
     <use style="fill-opacity:0;stroke:#000080;stroke-width:1.5;" x="158.942121" xlink:href="#m5b0e468da8" y="197.820273"/>
     <use style="fill-opacity:0;stroke:#000080;stroke-width:1.5;" x="165.047026" xlink:href="#m5b0e468da8" y="30.860785"/>
     <use style="fill-opacity:0;stroke:#000080;stroke-width:1.5;" x="165.047026" xlink:href="#m5b0e468da8" y="30.334099"/>
     <use style="fill-opacity:0;stroke:#000080;stroke-width:1.5;" x="165.047026" xlink:href="#m5b0e468da8" y="30.334099"/>
     <use style="fill-opacity:0;stroke:#000080;stroke-width:1.5;" x="338.688" xlink:href="#m5b0e468da8" y="30.334099"/>
    </g>
   </g>
   <g id="line2d_37">
    <path style="fill:none;stroke:#000080;stroke-linecap:square;stroke-width:1.5;"/>
    <g/>
   </g>
   <g id="line2d_38">
    <defs>
     <path d="M 0 1.5 
C 0.397805 1.5 0.77937 1.341951 1.06066 1.06066 
C 1.341951 0.77937 1.5 0.397805 1.5 0 
C 1.5 -0.397805 1.341951 -0.77937 1.06066 -1.06066 
C 0.77937 -1.341951 0.397805 -1.5 0 -1.5 
C -0.397805 -1.5 -0.77937 -1.341951 -1.06066 -1.06066 
C -1.341951 -0.77937 -1.5 -0.397805 -1.5 0 
C -1.5 0.397805 -1.341951 0.77937 -1.06066 1.06066 
C -0.77937 1.341951 -0.397805 1.5 0 1.5 
z
" id="mbd479ecf52" style="stroke:#ff00ff;"/>
    </defs>
    <g>
     <use style="fill:#ff00ff;stroke:#ff00ff;" x="295.335432" xlink:href="#mbd479ecf52" y="225.207949"/>
     <use style="fill:#ff00ff;stroke:#ff00ff;" x="295.335432" xlink:href="#mbd479ecf52" y="225.207949"/>
    </g>
   </g>
   <g id="line2d_39">
    <path d="M 167.898523 298.944 
L 167.898523 298.417314 
L 175.737594 298.417314 
L 175.737594 297.890628 
L 176.367833 297.890628 
L 176.367833 297.363942 
L 176.608379 297.363942 
L 176.608379 296.837256 
L 177.681904 296.837256 
L 177.781456 295.783884 
L 180.123437 295.783884 
L 180.123437 295.257197 
L 181.932618 295.257197 
L 181.932618 294.730511 
L 183.624962 294.730511 
L 183.624962 294.203825 
L 184.825274 294.203825 
L 184.825274 293.677139 
L 185.382055 293.677139 
L 185.382055 293.150453 
L 185.754083 293.150453 
L 185.754083 292.623767 
L 190.281119 292.623767 
L 190.281119 292.097081 
L 192.144653 292.097081 
L 192.144653 291.570395 
L 193.563384 291.570395 
L 193.563384 291.043709 
L 194.423877 291.043709 
L 194.423877 290.517023 
L 196.022108 290.517023 
L 196.022108 289.990337 
L 196.725243 289.990337 
L 196.725243 289.463651 
L 197.418379 289.463651 
L 197.418379 288.936964 
L 200.404851 288.936964 
L 200.4126 287.883592 
L 200.632013 287.883592 
L 200.632013 287.356906 
L 202.801713 287.356906 
L 202.801713 286.83022 
L 204.5403 286.83022 
L 204.5403 286.303534 
L 204.734118 286.303534 
L 204.734118 285.776848 
L 204.959415 285.776848 
L 204.959415 285.250162 
L 206.19709 285.250162 
L 206.19709 284.723476 
L 207.16042 284.723476 
L 207.16042 284.19679 
L 208.299033 284.19679 
L 208.299033 283.670104 
L 208.972229 283.670104 
L 208.972229 283.143418 
L 210.251953 283.143418 
L 210.251953 282.616732 
L 211.810176 282.616732 
L 211.810176 282.090045 
L 213.595168 282.090045 
L 213.595168 281.563359 
L 214.384229 281.563359 
L 214.384229 281.036673 
L 215.036436 281.036673 
L 215.036436 280.509987 
L 215.411694 280.509987 
L 215.411694 279.983301 
L 216.369182 279.983301 
L 216.369182 279.456615 
L 216.544778 279.456615 
L 216.544778 278.929929 
L 216.699986 278.929929 
L 216.699986 278.403243 
L 217.088767 278.403243 
L 217.088767 277.876557 
L 217.38584 277.876557 
L 217.408877 276.823185 
L 218.132897 276.823185 
L 218.194837 275.769812 
L 219.415643 275.769812 
L 219.415643 275.243126 
L 223.176138 275.243126 
L 223.176138 274.71644 
L 223.452222 274.71644 
L 223.452222 274.189754 
L 223.75933 274.189754 
L 223.75933 273.663068 
L 224.165865 273.663068 
L 224.165865 273.136382 
L 224.416564 273.136382 
L 224.416564 272.609696 
L 225.085021 272.609696 
L 225.085021 272.08301 
L 226.333453 272.08301 
L 226.333453 271.556324 
L 229.510747 271.556324 
L 229.510747 271.029638 
L 229.677182 271.029638 
L 229.677182 270.502952 
L 229.863169 270.502952 
L 229.863169 269.976266 
L 230.876076 269.976266 
L 230.876076 269.449579 
L 231.333601 269.449579 
L 231.333601 268.922893 
L 232.803825 268.922893 
L 232.803825 268.396207 
L 233.579854 268.396207 
L 233.579854 267.869521 
L 234.890378 267.869521 
L 234.890378 267.342835 
L 236.648216 267.342835 
L 236.648216 266.816149 
L 236.855648 266.816149 
L 236.855648 266.289463 
L 238.279798 266.289463 
L 238.279798 265.762777 
L 238.449021 265.762777 
L 238.449021 265.236091 
L 238.773175 265.236091 
L 238.773175 264.709405 
L 239.098475 264.709405 
L 239.098475 264.182719 
L 239.422058 264.182719 
L 239.422058 263.656033 
L 240.057536 263.656033 
L 240.093199 262.60266 
L 241.457496 262.60266 
L 241.457496 262.075974 
L 242.59753 262.075974 
L 242.59753 261.549288 
L 243.105802 261.549288 
L 243.105802 261.022602 
L 245.508445 261.022602 
L 245.508445 260.495916 
L 245.965354 260.495916 
L 245.965354 259.96923 
L 246.978031 259.96923 
L 247.05404 258.915858 
L 247.312494 258.915858 
L 247.312494 257.862486 
L 247.501639 257.862486 
L 247.501639 257.3358 
L 247.812307 257.3358 
L 247.812307 256.809114 
L 249.102327 256.809114 
L 249.173301 255.755741 
L 249.284924 255.755741 
L 249.284924 255.229055 
L 249.419929 255.229055 
L 249.419929 254.702369 
L 251.110336 254.702369 
L 251.110336 253.648997 
L 252.455716 253.648997 
L 252.455716 253.122311 
L 252.647687 253.122311 
L 252.647687 252.068939 
L 253.403741 252.068939 
L 253.403741 251.542253 
L 253.826919 251.542253 
L 253.826919 251.015567 
L 253.998171 251.015567 
L 253.998171 250.488881 
L 254.214583 250.488881 
L 254.290625 249.435508 
L 254.449106 249.435508 
L 254.449106 248.908822 
L 255.149821 248.908822 
L 255.149821 248.382136 
L 255.48267 248.382136 
L 255.53821 247.328764 
L 256.305879 247.328764 
L 256.305879 246.275392 
L 256.628831 246.275392 
L 256.628831 245.748706 
L 256.858002 245.748706 
L 256.858002 245.22202 
L 262.146102 245.22202 
L 262.146102 244.695334 
L 263.20499 244.695334 
L 263.20499 244.168648 
L 263.318357 244.168648 
L 263.318357 243.641962 
L 263.63502 243.641962 
L 263.63502 243.115275 
L 263.981482 243.115275 
L 263.981482 242.588589 
L 264.450245 242.588589 
L 264.450245 242.061903 
L 265.19179 242.061903 
L 265.19179 241.535217 
L 265.340896 241.535217 
L 265.340896 241.008531 
L 266.57199 241.008531 
L 266.57199 240.481845 
L 266.976343 240.481845 
L 266.976343 239.955159 
L 267.409579 239.955159 
L 267.409579 239.428473 
L 268.41273 239.428473 
L 268.41273 238.901787 
L 268.541298 238.901787 
L 268.541298 238.375101 
L 270.776247 238.375101 
L 270.776247 237.848415 
L 273.04559 237.848415 
L 273.090534 236.795043 
L 273.557361 236.795043 
L 273.557361 236.268356 
L 274.203224 236.268356 
L 274.203224 235.74167 
L 274.605929 235.74167 
L 274.605929 235.214984 
L 276.818225 235.214984 
L 276.818225 234.688298 
L 277.044329 234.688298 
L 277.044329 233.634926 
L 278.54442 233.634926 
L 278.54442 233.10824 
L 279.081354 233.10824 
L 279.081354 232.581554 
L 279.61089 232.581554 
L 279.657309 231.528182 
L 281.745362 231.528182 
L 281.745362 231.001496 
L 282.017465 231.001496 
L 282.017465 230.47481 
L 282.18556 230.47481 
L 282.18556 229.948123 
L 283.91518 229.948123 
L 284.015031 228.894751 
L 285.801397 228.894751 
L 285.823039 227.841379 
L 287.55118 227.841379 
L 287.55118 227.314693 
L 289.344657 227.314693 
L 289.344657 226.788007 
L 289.560399 226.788007 
L 289.560399 226.261321 
L 290.762202 226.261321 
L 290.762202 225.734635 
L 295.335432 225.734635 
L 295.335432 225.207949 
L 338.688 225.207949 
L 338.688 225.207949 
" style="fill:none;stroke:#ff00ff;stroke-linecap:square;stroke-width:1.5;"/>
   </g>
   <g id="line2d_40">
    <defs>
     <path d="M -0 8.485281 
L 5.091169 0 
L 0 -8.485281 
L -5.091169 -0 
z
" id="md343609670" style="stroke:#ff00ff;stroke-linejoin:miter;stroke-width:1.5;"/>
    </defs>
    <g>
     <use style="fill-opacity:0;stroke:#ff00ff;stroke-linejoin:miter;stroke-width:1.5;" x="251.110336" xlink:href="#md343609670" y="253.648997"/>
     <use style="fill-opacity:0;stroke:#ff00ff;stroke-linejoin:miter;stroke-width:1.5;" x="295.335432" xlink:href="#md343609670" y="225.207949"/>
     <use style="fill-opacity:0;stroke:#ff00ff;stroke-linejoin:miter;stroke-width:1.5;" x="295.335432" xlink:href="#md343609670" y="225.207949"/>
     <use style="fill-opacity:0;stroke:#ff00ff;stroke-linejoin:miter;stroke-width:1.5;" x="338.688" xlink:href="#md343609670" y="225.207949"/>
    </g>
   </g>
   <g id="line2d_41">
    <path style="fill:none;stroke:#ff00ff;stroke-linecap:square;stroke-width:1.5;"/>
    <g/>
   </g>
   <g id="line2d_42">
    <path clip-path="url(#p731670815f)" d="M 246.289154 259.96923 
" style="fill:none;stroke:#ff00ff;stroke-linecap:square;stroke-width:1.5;"/>
    <defs>
     <path d="M -12 12 
L 12 -12 
M -12 -12 
L 12 12 
" id="m2b17edde9b" style="stroke:#ff00ff;"/>
    </defs>
    <g clip-path="url(#p731670815f)">
     <use style="fill:#ff00ff;stroke:#ff00ff;" x="246.289154" xlink:href="#m2b17edde9b" y="259.96923"/>
    </g>
   </g>
   <g id="line2d_43">
    <defs>
     <path d="M 0 1.5 
C 0.397805 1.5 0.77937 1.341951 1.06066 1.06066 
C 1.341951 0.77937 1.5 0.397805 1.5 0 
C 1.5 -0.397805 1.341951 -0.77937 1.06066 -1.06066 
C 0.77937 -1.341951 0.397805 -1.5 0 -1.5 
C -0.397805 -1.5 -0.77937 -1.341951 -1.06066 -1.06066 
C -1.341951 -0.77937 -1.5 -0.397805 -1.5 0 
C -1.5 0.397805 -1.341951 0.77937 -1.06066 1.06066 
C -0.77937 1.341951 -0.397805 1.5 0 1.5 
z
" id="m0359c2f3c6" style="stroke:#ff7500;"/>
    </defs>
    <g>
     <use style="fill:#ff7500;stroke:#ff7500;" x="221.227468" xlink:href="#m0359c2f3c6" y="30.334099"/>
     <use style="fill:#ff7500;stroke:#ff7500;" x="221.227468" xlink:href="#m0359c2f3c6" y="30.334099"/>
    </g>
   </g>
   <g id="line2d_44">
    <path d="M 167.646779 298.944 
L 167.646779 298.417314 
L 171.427588 298.417314 
L 171.427588 297.890628 
L 173.688525 297.890628 
L 173.688525 295.783884 
L 175.149812 295.783884 
L 175.149812 295.257197 
L 176.646257 295.257197 
L 176.646257 294.730511 
L 176.830682 294.730511 
L 176.830682 294.203825 
L 177.444973 294.203825 
L 177.444973 293.150453 
L 178.052329 293.150453 
L 178.052329 292.623767 
L 178.469664 292.623767 
L 178.469664 292.097081 
L 179.418117 292.097081 
L 179.460026 291.043709 
L 181.041188 291.043709 
L 181.041188 290.517023 
L 181.173027 290.517023 
L 181.173027 289.463651 
L 181.479698 289.463651 
L 181.479698 288.936964 
L 181.701966 288.936964 
L 181.724604 287.356906 
L 181.834542 287.356906 
L 181.834542 286.83022 
L 182.035702 286.83022 
L 182.113309 284.19679 
L 182.622939 284.19679 
L 182.64173 283.143418 
L 182.931748 283.143418 
L 182.931748 282.616732 
L 183.146792 282.616732 
L 183.229997 281.036673 
L 183.597045 281.036673 
L 183.607202 279.456615 
L 183.733666 279.456615 
L 183.733666 278.929929 
L 185.153575 278.929929 
L 185.153575 278.403243 
L 186.479451 278.403243 
L 186.479451 277.876557 
L 186.665763 277.876557 
L 186.665763 277.349871 
L 186.799447 277.349871 
L 186.803674 275.243126 
L 186.986572 275.243126 
L 187.04503 273.663068 
L 187.124054 273.663068 
L 187.179986 272.609696 
L 187.344664 272.609696 
L 187.406019 271.556324 
L 187.627145 271.556324 
L 187.631176 270.502952 
L 187.944758 270.502952 
L 187.978377 268.922893 
L 188.127886 268.922893 
L 188.170926 267.869521 
L 188.696367 267.869521 
L 188.749374 266.816149 
L 188.864299 266.816149 
L 188.864299 266.289463 
L 189.405998 266.289463 
L 189.446001 264.709405 
L 189.750271 264.709405 
L 189.750271 264.182719 
L 189.913704 264.182719 
L 189.926077 263.129347 
L 190.049323 263.129347 
L 190.049323 262.60266 
L 190.586597 262.60266 
L 190.586597 261.022602 
L 190.747469 261.022602 
L 190.856691 259.96923 
L 190.928571 259.96923 
L 190.928571 259.442544 
L 191.436571 259.442544 
L 191.436571 258.915858 
L 191.74015 258.915858 
L 191.74015 258.389172 
L 191.876556 258.389172 
L 191.876556 257.862486 
L 192.096356 257.862486 
L 192.096356 257.3358 
L 192.783157 257.3358 
L 192.783157 256.809114 
L 193.274145 256.809114 
L 193.362872 254.175683 
L 193.551906 254.175683 
L 193.573421 252.068939 
L 194.14035 252.068939 
L 194.14035 251.542253 
L 194.285442 251.542253 
L 194.301947 250.488881 
L 194.562576 250.488881 
L 194.628816 247.85545 
L 194.775269 247.85545 
L 194.775269 246.802078 
L 194.916522 246.802078 
L 194.980111 244.695334 
L 195.354263 244.695334 
L 195.460074 242.588589 
L 195.711683 242.588589 
L 195.745886 241.535217 
L 195.980953 241.535217 
L 195.980953 241.008531 
L 196.119 241.008531 
L 196.119 240.481845 
L 196.371115 240.481845 
L 196.462449 238.375101 
L 196.807602 238.375101 
L 196.807602 237.848415 
L 197.213664 237.848415 
L 197.23924 235.214984 
L 197.624127 235.214984 
L 197.624127 234.161612 
L 197.804999 234.161612 
L 197.826354 233.10824 
L 197.922685 233.10824 
L 197.975107 232.054868 
L 198.134746 232.054868 
L 198.134746 231.528182 
L 198.27543 231.528182 
L 198.322438 229.948123 
L 198.423674 229.948123 
L 198.423674 229.421437 
L 198.658703 229.421437 
L 198.684385 228.368065 
L 198.770784 228.368065 
L 198.815416 226.788007 
L 198.965473 226.788007 
L 199.004361 225.734635 
L 199.245209 225.734635 
L 199.245209 225.207949 
L 199.5582 225.207949 
L 199.560234 223.627891 
L 199.696981 223.627891 
L 199.696981 223.101204 
L 200.030767 223.101204 
L 200.082164 222.047832 
L 200.228602 222.047832 
L 200.270635 220.99446 
L 200.572621 220.99446 
L 200.622448 219.414402 
L 200.738793 219.414402 
L 200.824126 217.307658 
L 201.086037 217.307658 
L 201.147423 215.727599 
L 201.220618 215.727599 
L 201.263097 214.674227 
L 201.376175 214.674227 
L 201.394493 212.567483 
L 201.572994 212.567483 
L 201.618239 211.514111 
L 201.911283 211.514111 
L 202.016716 208.88068 
L 202.026429 208.88068 
L 202.073156 207.300622 
L 202.225688 207.300622 
L 202.286676 205.720564 
L 202.367376 205.720564 
L 202.367376 204.140506 
L 202.550808 204.140506 
L 202.59188 202.560447 
L 202.73657 202.560447 
L 202.828714 200.453703 
L 202.974805 200.453703 
L 203.069029 198.346959 
L 203.253494 198.346959 
L 203.253494 197.820273 
L 203.463692 197.820273 
L 203.463692 197.293586 
L 203.604581 197.293586 
L 203.632783 196.240214 
L 203.756336 196.240214 
L 203.787487 194.13347 
L 204.270718 194.13347 
L 204.362072 193.080098 
L 204.433735 193.080098 
L 204.492848 190.446667 
L 204.561687 190.446667 
L 204.638618 188.866609 
L 204.937016 188.866609 
L 204.937016 188.339923 
L 205.156773 188.339923 
L 205.183312 187.286551 
L 205.294192 187.286551 
L 205.392002 185.706493 
L 205.440702 185.706493 
L 205.549962 184.126434 
L 205.578791 184.126434 
L 205.687908 182.01969 
L 205.841804 182.01969 
L 205.841804 181.493004 
L 205.959864 181.493004 
L 205.959864 180.966318 
L 206.07993 180.966318 
L 206.177618 176.752829 
L 206.247061 176.752829 
L 206.354843 175.172771 
L 206.492742 175.172771 
L 206.603096 173.066027 
L 206.688447 173.066027 
L 206.764638 170.432596 
L 206.845855 170.432596 
L 206.938024 168.852538 
L 207.078675 168.852538 
L 207.165681 166.219108 
L 207.208365 166.219108 
L 207.253563 165.165736 
L 207.450016 165.165736 
L 207.549992 163.585677 
L 207.671766 163.585677 
L 207.671766 163.058991 
L 207.947404 163.058991 
L 208.020177 160.425561 
L 208.115701 160.425561 
L 208.201413 159.372189 
L 208.242258 159.372189 
L 208.305193 155.685386 
L 208.359309 155.685386 
L 208.432833 153.578642 
L 208.625581 153.578642 
L 208.722064 151.998584 
L 208.852669 151.998584 
L 208.852669 151.471897 
L 208.975192 151.471897 
L 208.975192 150.945211 
L 209.092152 150.945211 
L 209.197802 149.365153 
L 209.260886 149.365153 
L 209.358566 147.258409 
L 209.387532 147.258409 
L 209.468382 143.571606 
L 209.507517 143.571606 
L 209.555166 141.991548 
L 209.621543 141.991548 
L 209.621543 141.464862 
L 209.844562 141.464862 
L 209.844562 140.41149 
L 209.97713 140.41149 
L 210.049726 139.358118 
L 210.109253 139.358118 
L 210.148085 137.778059 
L 210.252504 137.778059 
L 210.252504 137.251373 
L 210.468192 137.251373 
L 210.544195 134.617943 
L 210.589097 134.617943 
L 210.674794 133.037885 
L 210.779857 133.037885 
L 210.887477 130.93114 
L 210.909771 130.93114 
L 210.962736 127.244338 
L 211.190759 127.244338 
L 211.212668 125.137593 
L 211.303143 125.137593 
L 211.354928 124.084221 
L 211.438496 124.084221 
L 211.509369 122.504163 
L 211.586589 122.504163 
L 211.668549 120.924105 
L 211.71673 120.924105 
L 211.808665 119.344047 
L 211.828302 119.344047 
L 211.900117 114.603872 
L 211.970141 114.603872 
L 211.970141 114.077186 
L 212.146944 114.077186 
L 212.250403 110.917069 
L 212.304352 110.917069 
L 212.367408 108.283639 
L 212.452586 108.283639 
L 212.556667 106.703581 
L 212.723827 106.703581 
L 212.8187 105.650209 
L 212.837708 105.650209 
L 212.920625 104.07015 
L 213.09652 104.07015 
L 213.12177 103.016778 
L 213.308607 103.016778 
L 213.321084 101.963406 
L 213.443533 101.963406 
L 213.551457 98.276603 
L 213.605624 98.276603 
L 213.671399 96.169859 
L 213.761268 96.169859 
L 213.822421 93.536429 
L 213.917768 93.536429 
L 213.975261 89.849626 
L 214.031678 89.849626 
L 214.125891 87.742882 
L 214.244589 87.742882 
L 214.306692 84.582765 
L 214.417664 84.582765 
L 214.496438 81.422649 
L 214.696526 81.422649 
L 214.804629 77.20916 
L 214.814808 77.20916 
L 214.923025 74.57573 
L 214.993679 74.57573 
L 215.069481 71.415613 
L 215.11247 71.415613 
L 215.188174 69.835555 
L 215.24453 69.835555 
L 215.338603 68.782183 
L 215.502018 68.782183 
L 215.59877 67.202125 
L 215.656241 67.202125 
L 215.743301 65.09538 
L 215.837927 65.09538 
L 215.837927 64.568694 
L 216.029609 64.568694 
L 216.125846 62.46195 
L 216.156498 62.46195 
L 216.215685 61.408578 
L 216.278962 61.408578 
L 216.328407 60.355206 
L 216.444268 60.355206 
L 216.444268 59.82852 
L 216.66608 59.82852 
L 216.764945 57.721775 
L 216.784272 57.721775 
L 216.841748 56.668403 
L 216.900163 56.668403 
L 216.99472 54.034973 
L 217.14562 54.034973 
L 217.19933 50.874856 
L 217.382913 50.874856 
L 217.482174 48.768112 
L 217.558425 48.768112 
L 217.607629 47.71474 
L 217.681896 47.71474 
L 217.773034 44.554623 
L 217.836976 44.554623 
L 217.91276 42.974565 
L 218.219273 42.974565 
L 218.256906 41.394507 
L 218.410774 41.394507 
L 218.46761 39.814448 
L 218.609067 39.814448 
L 218.609067 39.287762 
L 218.817606 39.287762 
L 218.900329 38.23439 
L 218.974311 38.23439 
L 218.974311 37.707704 
L 219.283559 37.707704 
L 219.385979 35.60096 
L 219.491693 35.60096 
L 219.556107 33.494215 
L 219.733868 33.494215 
L 219.733868 32.967529 
L 220.032563 32.967529 
L 220.032563 32.440843 
L 220.594341 32.440843 
L 220.594341 31.914157 
L 220.816666 31.914157 
L 220.816666 30.860785 
L 221.227468 30.860785 
L 221.227468 30.334099 
L 338.688 30.334099 
L 338.688 30.334099 
" style="fill:none;stroke:#ff7500;stroke-linecap:square;stroke-width:1.5;"/>
   </g>
   <g id="line2d_45">
    <defs>
     <path d="M 0 -6 
L -1.347084 -1.854102 
L -5.706339 -1.854102 
L -2.179628 0.708204 
L -3.526712 4.854102 
L -0 2.291796 
L 3.526712 4.854102 
L 2.179628 0.708204 
L 5.706339 -1.854102 
L 1.347084 -1.854102 
z
" id="m86089faa66" style="stroke:#ff7500;stroke-linejoin:bevel;stroke-width:1.5;"/>
    </defs>
    <g>
     <use style="fill-opacity:0;stroke:#ff7500;stroke-linejoin:bevel;stroke-width:1.5;" x="209.119212" xlink:href="#m86089faa66" y="149.891839"/>
     <use style="fill-opacity:0;stroke:#ff7500;stroke-linejoin:bevel;stroke-width:1.5;" x="221.227468" xlink:href="#m86089faa66" y="30.860785"/>
     <use style="fill-opacity:0;stroke:#ff7500;stroke-linejoin:bevel;stroke-width:1.5;" x="221.227468" xlink:href="#m86089faa66" y="30.334099"/>
     <use style="fill-opacity:0;stroke:#ff7500;stroke-linejoin:bevel;stroke-width:1.5;" x="338.688" xlink:href="#m86089faa66" y="30.334099"/>
    </g>
   </g>
   <g id="line2d_46">
    <path style="fill:none;stroke:#ff7500;stroke-linecap:square;stroke-width:1.5;"/>
    <g/>
   </g>
   <g id="line2d_47">
    <path d="M 338.688 225.207949 
L 369.60768 293.571802 
" style="fill:none;stroke:#ff00ff;stroke-linecap:square;stroke-width:1.5;"/>
    <g>
     <use style="fill-opacity:0;stroke:#ff00ff;stroke-linejoin:miter;stroke-width:1.5;" x="338.688" xlink:href="#md343609670" y="225.207949"/>
     <use style="fill-opacity:0;stroke:#ff00ff;stroke-linejoin:miter;stroke-width:1.5;" x="369.60768" xlink:href="#md343609670" y="293.571802"/>
    </g>
   </g>
   <g id="line2d_48">
    <path d="M 338.688 30.334099 
L 369.60768 207.616634 
" style="fill:none;stroke:#ff7500;stroke-linecap:square;stroke-width:1.5;"/>
    <g>
     <use style="fill-opacity:0;stroke:#ff7500;stroke-linejoin:bevel;stroke-width:1.5;" x="338.688" xlink:href="#m86089faa66" y="30.334099"/>
     <use style="fill-opacity:0;stroke:#ff7500;stroke-linejoin:bevel;stroke-width:1.5;" x="369.60768" xlink:href="#m86089faa66" y="207.616634"/>
    </g>
   </g>
   <g id="line2d_49">
    <path d="M 338.688 30.334099 
L 369.60768 121.661465 
" style="fill:none;stroke:#000080;stroke-linecap:square;stroke-width:1.5;"/>
    <g>
     <use style="fill-opacity:0;stroke:#000080;stroke-width:1.5;" x="338.688" xlink:href="#m5b0e468da8" y="30.334099"/>
     <use style="fill-opacity:0;stroke:#000080;stroke-width:1.5;" x="369.60768" xlink:href="#m5b0e468da8" y="121.661465"/>
    </g>
   </g>
   <g id="line2d_50">
    <path d="M 338.688 298.944 
L 338.688 30.334099 
" style="fill:none;stroke:#000000;stroke-linecap:square;stroke-width:1.5;"/>
   </g>
   <g id="patch_3">
    <path d="M 57.6 298.944 
L 57.6 27.648 
" style="fill:none;stroke:#000000;stroke-linecap:square;stroke-linejoin:miter;stroke-width:0.8;"/>
   </g>
   <g id="patch_4">
    <path d="M 338.688 298.944 
L 338.688 27.648 
" style="fill:none;stroke:#000000;stroke-linecap:square;stroke-linejoin:miter;stroke-width:0.8;"/>
   </g>
   <g id="patch_5">
    <path d="M 57.6 298.944 
L 338.688 298.944 
" style="fill:none;stroke:#000000;stroke-linecap:square;stroke-linejoin:miter;stroke-width:0.8;"/>
   </g>
   <g id="patch_6">
    <path d="M 57.6 27.648 
L 338.688 27.648 
" style="fill:none;stroke:#000000;stroke-linecap:square;stroke-linejoin:miter;stroke-width:0.8;"/>
   </g>
   <g id="text_13">
    <!-- PSO -->
    <g transform="translate(375.22944 298.262739)scale(0.17 -0.17)">
     <defs>
      <path d="M 19.671875 64.796875 
L 19.671875 37.40625 
L 32.078125 37.40625 
Q 38.96875 37.40625 42.71875 40.96875 
Q 46.484375 44.53125 46.484375 51.125 
Q 46.484375 57.671875 42.71875 61.234375 
Q 38.96875 64.796875 32.078125 64.796875 
z
M 9.8125 72.90625 
L 32.078125 72.90625 
Q 44.34375 72.90625 50.609375 67.359375 
Q 56.890625 61.8125 56.890625 51.125 
Q 56.890625 40.328125 50.609375 34.8125 
Q 44.34375 29.296875 32.078125 29.296875 
L 19.671875 29.296875 
L 19.671875 0 
L 9.8125 0 
z
" id="DejaVuSans-80"/>
      <path d="M 53.515625 70.515625 
L 53.515625 60.890625 
Q 47.90625 63.578125 42.921875 64.890625 
Q 37.9375 66.21875 33.296875 66.21875 
Q 25.25 66.21875 20.875 63.09375 
Q 16.5 59.96875 16.5 54.203125 
Q 16.5 49.359375 19.40625 46.890625 
Q 22.3125 44.4375 30.421875 42.921875 
L 36.375 41.703125 
Q 47.40625 39.59375 52.65625 34.296875 
Q 57.90625 29 57.90625 20.125 
Q 57.90625 9.515625 50.796875 4.046875 
Q 43.703125 -1.421875 29.984375 -1.421875 
Q 24.8125 -1.421875 18.96875 -0.25 
Q 13.140625 0.921875 6.890625 3.21875 
L 6.890625 13.375 
Q 12.890625 10.015625 18.65625 8.296875 
Q 24.421875 6.59375 29.984375 6.59375 
Q 38.421875 6.59375 43.015625 9.90625 
Q 47.609375 13.234375 47.609375 19.390625 
Q 47.609375 24.75 44.3125 27.78125 
Q 41.015625 30.8125 33.5 32.328125 
L 27.484375 33.5 
Q 16.453125 35.6875 11.515625 40.375 
Q 6.59375 45.0625 6.59375 53.421875 
Q 6.59375 63.09375 13.40625 68.65625 
Q 20.21875 74.21875 32.171875 74.21875 
Q 37.3125 74.21875 42.625 73.28125 
Q 47.953125 72.359375 53.515625 70.515625 
z
" id="DejaVuSans-83"/>
      <path d="M 39.40625 66.21875 
Q 28.65625 66.21875 22.328125 58.203125 
Q 16.015625 50.203125 16.015625 36.375 
Q 16.015625 22.609375 22.328125 14.59375 
Q 28.65625 6.59375 39.40625 6.59375 
Q 50.140625 6.59375 56.421875 14.59375 
Q 62.703125 22.609375 62.703125 36.375 
Q 62.703125 50.203125 56.421875 58.203125 
Q 50.140625 66.21875 39.40625 66.21875 
z
M 39.40625 74.21875 
Q 54.734375 74.21875 63.90625 63.9375 
Q 73.09375 53.65625 73.09375 36.375 
Q 73.09375 19.140625 63.90625 8.859375 
Q 54.734375 -1.421875 39.40625 -1.421875 
Q 24.03125 -1.421875 14.8125 8.828125 
Q 5.609375 19.09375 5.609375 36.375 
Q 5.609375 53.65625 14.8125 63.9375 
Q 24.03125 74.21875 39.40625 74.21875 
z
" id="DejaVuSans-79"/>
     </defs>
     <use xlink:href="#DejaVuSans-80"/>
     <use x="60.302734" xlink:href="#DejaVuSans-83"/>
     <use x="123.779297" xlink:href="#DejaVuSans-79"/>
    </g>
   </g>
   <g id="text_14">
    <!-- DE -->
    <g transform="translate(375.22944 212.307571)scale(0.17 -0.17)">
     <defs>
      <path d="M 19.671875 64.796875 
L 19.671875 8.109375 
L 31.59375 8.109375 
Q 46.6875 8.109375 53.6875 14.9375 
Q 60.6875 21.78125 60.6875 36.53125 
Q 60.6875 51.171875 53.6875 57.984375 
Q 46.6875 64.796875 31.59375 64.796875 
z
M 9.8125 72.90625 
L 30.078125 72.90625 
Q 51.265625 72.90625 61.171875 64.09375 
Q 71.09375 55.28125 71.09375 36.53125 
Q 71.09375 17.671875 61.125 8.828125 
Q 51.171875 0 30.078125 0 
L 9.8125 0 
z
" id="DejaVuSans-68"/>
      <path d="M 9.8125 72.90625 
L 55.90625 72.90625 
L 55.90625 64.59375 
L 19.671875 64.59375 
L 19.671875 43.015625 
L 54.390625 43.015625 
L 54.390625 34.71875 
L 19.671875 34.71875 
L 19.671875 8.296875 
L 56.78125 8.296875 
L 56.78125 0 
L 9.8125 0 
z
" id="DejaVuSans-69"/>
     </defs>
     <use xlink:href="#DejaVuSans-68"/>
     <use x="77.001953" xlink:href="#DejaVuSans-69"/>
    </g>
   </g>
   <g id="text_15">
    <!-- BIPOP-CMA -->
    <g transform="translate(375.22944 126.352403)scale(0.17 -0.17)">
     <defs>
      <path d="M 19.671875 34.8125 
L 19.671875 8.109375 
L 35.5 8.109375 
Q 43.453125 8.109375 47.28125 11.40625 
Q 51.125 14.703125 51.125 21.484375 
Q 51.125 28.328125 47.28125 31.5625 
Q 43.453125 34.8125 35.5 34.8125 
z
M 19.671875 64.796875 
L 19.671875 42.828125 
L 34.28125 42.828125 
Q 41.5 42.828125 45.03125 45.53125 
Q 48.578125 48.25 48.578125 53.8125 
Q 48.578125 59.328125 45.03125 62.0625 
Q 41.5 64.796875 34.28125 64.796875 
z
M 9.8125 72.90625 
L 35.015625 72.90625 
Q 46.296875 72.90625 52.390625 68.21875 
Q 58.5 63.53125 58.5 54.890625 
Q 58.5 48.1875 55.375 44.234375 
Q 52.25 40.28125 46.1875 39.3125 
Q 53.46875 37.75 57.5 32.78125 
Q 61.53125 27.828125 61.53125 20.40625 
Q 61.53125 10.640625 54.890625 5.3125 
Q 48.25 0 35.984375 0 
L 9.8125 0 
z
" id="DejaVuSans-66"/>
      <path d="M 9.8125 72.90625 
L 19.671875 72.90625 
L 19.671875 0 
L 9.8125 0 
z
" id="DejaVuSans-73"/>
      <path d="M 64.40625 67.28125 
L 64.40625 56.890625 
Q 59.421875 61.53125 53.78125 63.8125 
Q 48.140625 66.109375 41.796875 66.109375 
Q 29.296875 66.109375 22.65625 58.46875 
Q 16.015625 50.828125 16.015625 36.375 
Q 16.015625 21.96875 22.65625 14.328125 
Q 29.296875 6.6875 41.796875 6.6875 
Q 48.140625 6.6875 53.78125 8.984375 
Q 59.421875 11.28125 64.40625 15.921875 
L 64.40625 5.609375 
Q 59.234375 2.09375 53.4375 0.328125 
Q 47.65625 -1.421875 41.21875 -1.421875 
Q 24.65625 -1.421875 15.125 8.703125 
Q 5.609375 18.84375 5.609375 36.375 
Q 5.609375 53.953125 15.125 64.078125 
Q 24.65625 74.21875 41.21875 74.21875 
Q 47.75 74.21875 53.53125 72.484375 
Q 59.328125 70.75 64.40625 67.28125 
z
" id="DejaVuSans-67"/>
      <path d="M 9.8125 72.90625 
L 24.515625 72.90625 
L 43.109375 23.296875 
L 61.8125 72.90625 
L 76.515625 72.90625 
L 76.515625 0 
L 66.890625 0 
L 66.890625 64.015625 
L 48.09375 14.015625 
L 38.1875 14.015625 
L 19.390625 64.015625 
L 19.390625 0 
L 9.8125 0 
z
" id="DejaVuSans-77"/>
      <path d="M 34.1875 63.1875 
L 20.796875 26.90625 
L 47.609375 26.90625 
z
M 28.609375 72.90625 
L 39.796875 72.90625 
L 67.578125 0 
L 57.328125 0 
L 50.6875 18.703125 
L 17.828125 18.703125 
L 11.1875 0 
L 0.78125 0 
z
" id="DejaVuSans-65"/>
     </defs>
     <use xlink:href="#DejaVuSans-66"/>
     <use x="68.603516" xlink:href="#DejaVuSans-73"/>
     <use x="98.095703" xlink:href="#DejaVuSans-80"/>
     <use x="158.398438" xlink:href="#DejaVuSans-79"/>
     <use x="237.109375" xlink:href="#DejaVuSans-80"/>
     <use x="295.162109" xlink:href="#DejaVuSans-45"/>
     <use x="331.246094" xlink:href="#DejaVuSans-67"/>
     <use x="401.070312" xlink:href="#DejaVuSans-77"/>
     <use x="487.349609" xlink:href="#DejaVuSans-65"/>
    </g>
   </g>
   <g id="text_16">
    <!-- best 2009 -->
    <g transform="translate(375.22944 40.397235)scale(0.17 -0.17)">
     <defs>
      <path d="M 48.6875 27.296875 
Q 48.6875 37.203125 44.609375 42.84375 
Q 40.53125 48.484375 33.40625 48.484375 
Q 26.265625 48.484375 22.1875 42.84375 
Q 18.109375 37.203125 18.109375 27.296875 
Q 18.109375 17.390625 22.1875 11.75 
Q 26.265625 6.109375 33.40625 6.109375 
Q 40.53125 6.109375 44.609375 11.75 
Q 48.6875 17.390625 48.6875 27.296875 
z
M 18.109375 46.390625 
Q 20.953125 51.265625 25.265625 53.625 
Q 29.59375 56 35.59375 56 
Q 45.5625 56 51.78125 48.09375 
Q 58.015625 40.1875 58.015625 27.296875 
Q 58.015625 14.40625 51.78125 6.484375 
Q 45.5625 -1.421875 35.59375 -1.421875 
Q 29.59375 -1.421875 25.265625 0.953125 
Q 20.953125 3.328125 18.109375 8.203125 
L 18.109375 0 
L 9.078125 0 
L 9.078125 75.984375 
L 18.109375 75.984375 
z
" id="DejaVuSans-98"/>
      <path d="M 10.984375 1.515625 
L 10.984375 10.5 
Q 14.703125 8.734375 18.5 7.8125 
Q 22.3125 6.890625 25.984375 6.890625 
Q 35.75 6.890625 40.890625 13.453125 
Q 46.046875 20.015625 46.78125 33.40625 
Q 43.953125 29.203125 39.59375 26.953125 
Q 35.25 24.703125 29.984375 24.703125 
Q 19.046875 24.703125 12.671875 31.3125 
Q 6.296875 37.9375 6.296875 49.421875 
Q 6.296875 60.640625 12.9375 67.421875 
Q 19.578125 74.21875 30.609375 74.21875 
Q 43.265625 74.21875 49.921875 64.515625 
Q 56.59375 54.828125 56.59375 36.375 
Q 56.59375 19.140625 48.40625 8.859375 
Q 40.234375 -1.421875 26.421875 -1.421875 
Q 22.703125 -1.421875 18.890625 -0.6875 
Q 15.09375 0.046875 10.984375 1.515625 
z
M 30.609375 32.421875 
Q 37.25 32.421875 41.125 36.953125 
Q 45.015625 41.5 45.015625 49.421875 
Q 45.015625 57.28125 41.125 61.84375 
Q 37.25 66.40625 30.609375 66.40625 
Q 23.96875 66.40625 20.09375 61.84375 
Q 16.21875 57.28125 16.21875 49.421875 
Q 16.21875 41.5 20.09375 36.953125 
Q 23.96875 32.421875 30.609375 32.421875 
z
" id="DejaVuSans-57"/>
     </defs>
     <use xlink:href="#DejaVuSans-98"/>
     <use x="63.476562" xlink:href="#DejaVuSans-101"/>
     <use x="125" xlink:href="#DejaVuSans-115"/>
     <use x="177.099609" xlink:href="#DejaVuSans-116"/>
     <use x="216.308594" xlink:href="#DejaVuSans-32"/>
     <use x="248.095703" xlink:href="#DejaVuSans-50"/>
     <use x="311.71875" xlink:href="#DejaVuSans-48"/>
     <use x="375.341797" xlink:href="#DejaVuSans-48"/>
     <use x="438.964844" xlink:href="#DejaVuSans-57"/>
    </g>
   </g>
   <g id="text_17">
    <!-- bbob f10, 5-D -->
    <g transform="translate(60.41088 38.111366)scale(0.102 -0.102)">
     <defs>
      <path d="M 10.796875 72.90625 
L 49.515625 72.90625 
L 49.515625 64.59375 
L 19.828125 64.59375 
L 19.828125 46.734375 
Q 21.96875 47.46875 24.109375 47.828125 
Q 26.265625 48.1875 28.421875 48.1875 
Q 40.625 48.1875 47.75 41.5 
Q 54.890625 34.8125 54.890625 23.390625 
Q 54.890625 11.625 47.5625 5.09375 
Q 40.234375 -1.421875 26.90625 -1.421875 
Q 22.3125 -1.421875 17.546875 -0.640625 
Q 12.796875 0.140625 7.71875 1.703125 
L 7.71875 11.625 
Q 12.109375 9.234375 16.796875 8.0625 
Q 21.484375 6.890625 26.703125 6.890625 
Q 35.15625 6.890625 40.078125 11.328125 
Q 45.015625 15.765625 45.015625 23.390625 
Q 45.015625 31 40.078125 35.4375 
Q 35.15625 39.890625 26.703125 39.890625 
Q 22.75 39.890625 18.8125 39.015625 
Q 14.890625 38.140625 10.796875 36.28125 
z
" id="DejaVuSans-53"/>
     </defs>
     <use xlink:href="#DejaVuSans-98"/>
     <use x="63.476562" xlink:href="#DejaVuSans-98"/>
     <use x="126.953125" xlink:href="#DejaVuSans-111"/>
     <use x="188.134766" xlink:href="#DejaVuSans-98"/>
     <use x="251.611328" xlink:href="#DejaVuSans-32"/>
     <use x="283.398438" xlink:href="#DejaVuSans-102"/>
     <use x="318.603516" xlink:href="#DejaVuSans-49"/>
     <use x="382.226562" xlink:href="#DejaVuSans-48"/>
     <use x="445.849609" xlink:href="#DejaVuSans-44"/>
     <use x="477.636719" xlink:href="#DejaVuSans-32"/>
     <use x="509.423828" xlink:href="#DejaVuSans-53"/>
     <use x="573.046875" xlink:href="#DejaVuSans-45"/>
     <use x="609.130859" xlink:href="#DejaVuSans-68"/>
    </g>
    <!-- 51 targets: 100..1e-08 -->
    <g transform="translate(60.41088 49.533135)scale(0.102 -0.102)">
     <defs>
      <path d="M 11.71875 12.40625 
L 22.015625 12.40625 
L 22.015625 0 
L 11.71875 0 
z
M 11.71875 51.703125 
L 22.015625 51.703125 
L 22.015625 39.3125 
L 11.71875 39.3125 
z
" id="DejaVuSans-58"/>
     </defs>
     <use xlink:href="#DejaVuSans-53"/>
     <use x="63.623047" xlink:href="#DejaVuSans-49"/>
     <use x="127.246094" xlink:href="#DejaVuSans-32"/>
     <use x="159.033203" xlink:href="#DejaVuSans-116"/>
     <use x="198.242188" xlink:href="#DejaVuSans-97"/>
     <use x="259.521484" xlink:href="#DejaVuSans-114"/>
     <use x="298.884766" xlink:href="#DejaVuSans-103"/>
     <use x="362.361328" xlink:href="#DejaVuSans-101"/>
     <use x="423.884766" xlink:href="#DejaVuSans-116"/>
     <use x="463.09375" xlink:href="#DejaVuSans-115"/>
     <use x="515.193359" xlink:href="#DejaVuSans-58"/>
     <use x="548.884766" xlink:href="#DejaVuSans-32"/>
     <use x="580.671875" xlink:href="#DejaVuSans-49"/>
     <use x="644.294922" xlink:href="#DejaVuSans-48"/>
     <use x="707.917969" xlink:href="#DejaVuSans-48"/>
     <use x="771.541016" xlink:href="#DejaVuSans-46"/>
     <use x="803.328125" xlink:href="#DejaVuSans-46"/>
     <use x="835.115234" xlink:href="#DejaVuSans-49"/>
     <use x="898.738281" xlink:href="#DejaVuSans-101"/>
     <use x="960.261719" xlink:href="#DejaVuSans-45"/>
     <use x="996.345703" xlink:href="#DejaVuSans-48"/>
     <use x="1059.96875" xlink:href="#DejaVuSans-56"/>
    </g>
    <!-- 15 instances -->
    <g transform="translate(60.41088 60.954904)scale(0.102 -0.102)">
     <use xlink:href="#DejaVuSans-49"/>
     <use x="63.623047" xlink:href="#DejaVuSans-53"/>
     <use x="127.246094" xlink:href="#DejaVuSans-32"/>
     <use x="159.033203" xlink:href="#DejaVuSans-105"/>
     <use x="186.816406" xlink:href="#DejaVuSans-110"/>
     <use x="250.195312" xlink:href="#DejaVuSans-115"/>
     <use x="302.294922" xlink:href="#DejaVuSans-116"/>
     <use x="341.503906" xlink:href="#DejaVuSans-97"/>
     <use x="402.783203" xlink:href="#DejaVuSans-110"/>
     <use x="466.162109" xlink:href="#DejaVuSans-99"/>
     <use x="521.142578" xlink:href="#DejaVuSans-101"/>
     <use x="582.666016" xlink:href="#DejaVuSans-115"/>
    </g>
   </g>
   <g id="text_18">
    <!-- v2.4 -->
    <g style="fill:#808080;" transform="translate(187.233062 294.151352)scale(0.1 -0.1)">
     <use xlink:href="#DejaVuSans-118"/>
     <use x="59.179688" xlink:href="#DejaVuSans-50"/>
     <use x="122.802734" xlink:href="#DejaVuSans-46"/>
     <use x="154.589844" xlink:href="#DejaVuSans-52"/>
    </g>
   </g>
   <g id="text_19">
    <!-- 10 Ellipsoid -->
    <g transform="translate(140.784625 21.648)scale(0.2 -0.2)">
     <use xlink:href="#DejaVuSans-49"/>
     <use x="63.623047" xlink:href="#DejaVuSans-48"/>
     <use x="127.246094" xlink:href="#DejaVuSans-32"/>
     <use x="159.033203" xlink:href="#DejaVuSans-69"/>
     <use x="222.216797" xlink:href="#DejaVuSans-108"/>
     <use x="250" xlink:href="#DejaVuSans-108"/>
     <use x="277.783203" xlink:href="#DejaVuSans-105"/>
     <use x="305.566406" xlink:href="#DejaVuSans-112"/>
     <use x="369.042969" xlink:href="#DejaVuSans-115"/>
     <use x="421.142578" xlink:href="#DejaVuSans-111"/>
     <use x="482.324219" xlink:href="#DejaVuSans-105"/>
     <use x="510.107422" xlink:href="#DejaVuSans-100"/>
    </g>
   </g>
  </g>
 </g>
 <defs>
  <clipPath id="p731670815f">
   <rect height="271.296" width="281.088" x="57.6" y="27.648"/>
  </clipPath>
 </defs>
</svg>
