<?xml version="1.0" encoding="utf-8" standalone="no"?>
<!DOCTYPE svg PUBLIC "-//W3C//DTD SVG 1.1//EN"
  "http://www.w3.org/Graphics/SVG/1.1/DTD/svg11.dtd">
<!-- Created with matplotlib (https://matplotlib.org/) -->
<svg height="345.6pt" version="1.1" viewBox="0 0 460.8 345.6" width="460.8pt" xmlns="http://www.w3.org/2000/svg" xmlns:xlink="http://www.w3.org/1999/xlink">
 <metadata>
  <rdf:RDF xmlns:cc="http://creativecommons.org/ns#" xmlns:dc="http://purl.org/dc/elements/1.1/" xmlns:rdf="http://www.w3.org/1999/02/22-rdf-syntax-ns#">
   <cc:Work>
    <dc:type rdf:resource="http://purl.org/dc/dcmitype/StillImage"/>
    <dc:date>2021-05-01T17:07:51.407013</dc:date>
    <dc:format>image/svg+xml</dc:format>
    <dc:creator>
     <cc:Agent>
      <dc:title>Matplotlib v3.3.2, https://matplotlib.org/</dc:title>
     </cc:Agent>
    </dc:creator>
   </cc:Work>
  </rdf:RDF>
 </metadata>
 <defs>
  <style type="text/css">*{stroke-linecap:butt;stroke-linejoin:round;}</style>
 </defs>
 <g id="figure_1">
  <g id="patch_1">
   <path d="M 0 345.6 
L 460.8 345.6 
L 460.8 0 
L 0 0 
z
" style="fill:#ffffff;"/>
  </g>
  <g id="axes_1">
   <g id="patch_2">
    <path d="M 57.6 298.944 
L 338.688 298.944 
L 338.688 27.648 
L 57.6 27.648 
z
" style="fill:#ffffff;"/>
   </g>
   <g id="line2d_1">
    <path d="M 29.53256 298.944 
L 29.53256 272.609696 
L 48.691568 272.609696 
L 48.691568 267.342835 
L 67.850577 267.342835 
L 67.850577 262.075974 
L 90.509138 262.075974 
L 90.509138 256.809114 
L 106.802819 256.809114 
L 106.802819 251.542253 
L 125.399222 251.542253 
L 125.399222 246.275392 
L 138.527635 246.275392 
L 138.527635 241.008531 
L 146.833235 241.008531 
L 146.833235 235.74167 
L 157.528821 235.74167 
L 157.528821 230.47481 
L 173.82695 230.47481 
L 173.82695 225.207949 
L 183.645238 225.207949 
L 183.645238 219.941088 
L 196.329552 219.941088 
L 196.329552 214.674227 
L 207.130799 214.674227 
L 207.130799 209.407366 
L 207.384561 209.407366 
L 207.384561 204.140506 
L 207.474579 204.140506 
L 207.474579 198.873645 
L 207.86738 198.873645 
L 207.86738 193.606784 
L 208.04145 193.606784 
L 208.04145 188.339923 
L 208.24473 188.339923 
L 208.24473 183.073062 
L 208.4206 183.073062 
L 208.4206 177.806202 
L 208.507875 177.806202 
L 208.507875 172.539341 
L 210.15418 172.539341 
L 210.15418 167.27248 
L 210.249199 167.27248 
L 210.249199 162.005619 
L 210.371627 162.005619 
L 210.371627 156.738758 
L 210.440968 156.738758 
L 210.440968 151.471897 
L 210.505149 151.471897 
L 210.505149 146.205037 
L 210.575584 146.205037 
L 210.575584 140.938176 
L 210.652198 140.938176 
L 210.652198 135.671315 
L 210.728477 135.671315 
L 210.728477 130.404454 
L 210.815093 130.404454 
L 210.815093 125.137593 
L 210.873131 125.137593 
L 210.873131 119.870733 
L 210.942099 119.870733 
L 210.942099 114.603872 
L 210.99127 114.603872 
L 210.99127 109.337011 
L 211.060299 109.337011 
L 211.060299 104.07015 
L 211.145287 104.07015 
L 211.145287 98.803289 
L 211.180316 98.803289 
L 211.180316 93.536429 
L 211.236632 93.536429 
L 211.236632 88.269568 
L 211.319213 88.269568 
L 211.319213 83.002707 
L 211.374567 83.002707 
L 211.374567 77.735846 
L 211.443641 77.735846 
L 211.443641 72.468985 
L 211.494499 72.468985 
L 211.494499 67.202125 
L 211.563101 67.202125 
L 211.563101 61.935264 
L 211.626854 61.935264 
L 211.626854 56.668403 
L 211.678196 56.668403 
L 211.678196 51.401542 
L 211.765788 51.401542 
L 211.765788 46.134681 
L 211.828302 46.134681 
L 211.828302 40.867821 
L 211.880561 40.867821 
L 211.880561 35.60096 
L 211.945165 35.60096 
L 211.945165 30.334099 
L 338.688 30.334099 
" style="fill:none;stroke:#f5deb3;stroke-linecap:square;stroke-width:4;"/>
   </g>
   <g id="line2d_2">
    <defs>
     <path d="M -0 7.778175 
L 7.778175 0 
L 0 -7.778175 
L -7.778175 -0 
z
" id="m85842747dd" style="stroke:#f5deb3;stroke-linejoin:miter;stroke-width:1.5;"/>
    </defs>
    <g>
     <use style="fill:#f5deb3;stroke:#f5deb3;stroke-linejoin:miter;stroke-width:1.5;" x="90.509138" xlink:href="#m85842747dd" y="262.075974"/>
     <use style="fill:#f5deb3;stroke:#f5deb3;stroke-linejoin:miter;stroke-width:1.5;" x="196.329552" xlink:href="#m85842747dd" y="214.674227"/>
     <use style="fill:#f5deb3;stroke:#f5deb3;stroke-linejoin:miter;stroke-width:1.5;" x="210.99127" xlink:href="#m85842747dd" y="109.337011"/>
     <use style="fill:#f5deb3;stroke:#f5deb3;stroke-linejoin:miter;stroke-width:1.5;" x="211.945165" xlink:href="#m85842747dd" y="35.60096"/>
     <use style="fill:#f5deb3;stroke:#f5deb3;stroke-linejoin:miter;stroke-width:1.5;" x="211.945165" xlink:href="#m85842747dd" y="30.334099"/>
     <use style="fill:#f5deb3;stroke:#f5deb3;stroke-linejoin:miter;stroke-width:1.5;" x="338.688" xlink:href="#m85842747dd" y="30.334099"/>
    </g>
   </g>
   <g id="line2d_3">
    <path style="fill:none;stroke:#f5deb3;stroke-linecap:square;stroke-width:4;"/>
    <g/>
   </g>
   <g id="line2d_4">
    <path d="M 338.688 30.334099 
L 369.60768 35.706297 
" style="fill:none;stroke:#f5deb3;stroke-linecap:square;stroke-width:4;"/>
    <g>
     <use style="fill:#f5deb3;stroke:#f5deb3;stroke-linejoin:miter;stroke-width:1.5;" x="338.688" xlink:href="#m85842747dd" y="30.334099"/>
     <use style="fill:#f5deb3;stroke:#f5deb3;stroke-linejoin:miter;stroke-width:1.5;" x="369.60768" xlink:href="#m85842747dd" y="35.706297"/>
    </g>
   </g>
   <g id="matplotlib.axis_1">
    <g id="xtick_1">
     <g id="line2d_5">
      <path clip-path="url(#p02d11e5cd5)" d="M 57.6 298.944 
L 57.6 27.648 
" style="fill:none;stroke:#b0b0b0;stroke-linecap:square;stroke-width:0.8;"/>
     </g>
     <g id="line2d_6">
      <defs>
       <path d="M 0 0 
L 0 3.5 
" id="mb5253e7359" style="stroke:#000000;stroke-width:0.8;"/>
      </defs>
      <g>
       <use style="stroke:#000000;stroke-width:0.8;" x="57.6" xlink:href="#mb5253e7359" y="298.944"/>
      </g>
     </g>
     <g id="text_1">
      <!-- 0 -->
      <g transform="translate(51.2375 321.140875)scale(0.2 -0.2)">
       <defs>
        <path d="M 31.78125 66.40625 
Q 24.171875 66.40625 20.328125 58.90625 
Q 16.5 51.421875 16.5 36.375 
Q 16.5 21.390625 20.328125 13.890625 
Q 24.171875 6.390625 31.78125 6.390625 
Q 39.453125 6.390625 43.28125 13.890625 
Q 47.125 21.390625 47.125 36.375 
Q 47.125 51.421875 43.28125 58.90625 
Q 39.453125 66.40625 31.78125 66.40625 
z
M 31.78125 74.21875 
Q 44.046875 74.21875 50.515625 64.515625 
Q 56.984375 54.828125 56.984375 36.375 
Q 56.984375 17.96875 50.515625 8.265625 
Q 44.046875 -1.421875 31.78125 -1.421875 
Q 19.53125 -1.421875 13.0625 8.265625 
Q 6.59375 17.96875 6.59375 36.375 
Q 6.59375 54.828125 13.0625 64.515625 
Q 19.53125 74.21875 31.78125 74.21875 
z
" id="DejaVuSans-48"/>
       </defs>
       <use xlink:href="#DejaVuSans-48"/>
      </g>
     </g>
    </g>
    <g id="xtick_2">
     <g id="line2d_7">
      <path clip-path="url(#p02d11e5cd5)" d="M 137.910857 298.944 
L 137.910857 27.648 
" style="fill:none;stroke:#b0b0b0;stroke-linecap:square;stroke-width:0.8;"/>
     </g>
     <g id="line2d_8">
      <g>
       <use style="stroke:#000000;stroke-width:0.8;" x="137.910857" xlink:href="#mb5253e7359" y="298.944"/>
      </g>
     </g>
     <g id="text_2">
      <!-- 2 -->
      <g transform="translate(131.548357 321.140875)scale(0.2 -0.2)">
       <defs>
        <path d="M 19.1875 8.296875 
L 53.609375 8.296875 
L 53.609375 0 
L 7.328125 0 
L 7.328125 8.296875 
Q 12.9375 14.109375 22.625 23.890625 
Q 32.328125 33.6875 34.8125 36.53125 
Q 39.546875 41.84375 41.421875 45.53125 
Q 43.3125 49.21875 43.3125 52.78125 
Q 43.3125 58.59375 39.234375 62.25 
Q 35.15625 65.921875 28.609375 65.921875 
Q 23.96875 65.921875 18.8125 64.3125 
Q 13.671875 62.703125 7.8125 59.421875 
L 7.8125 69.390625 
Q 13.765625 71.78125 18.9375 73 
Q 24.125 74.21875 28.421875 74.21875 
Q 39.75 74.21875 46.484375 68.546875 
Q 53.21875 62.890625 53.21875 53.421875 
Q 53.21875 48.921875 51.53125 44.890625 
Q 49.859375 40.875 45.40625 35.40625 
Q 44.1875 33.984375 37.640625 27.21875 
Q 31.109375 20.453125 19.1875 8.296875 
z
" id="DejaVuSans-50"/>
       </defs>
       <use xlink:href="#DejaVuSans-50"/>
      </g>
     </g>
    </g>
    <g id="xtick_3">
     <g id="line2d_9">
      <path clip-path="url(#p02d11e5cd5)" d="M 218.221714 298.944 
L 218.221714 27.648 
" style="fill:none;stroke:#b0b0b0;stroke-linecap:square;stroke-width:0.8;"/>
     </g>
     <g id="line2d_10">
      <g>
       <use style="stroke:#000000;stroke-width:0.8;" x="218.221714" xlink:href="#mb5253e7359" y="298.944"/>
      </g>
     </g>
     <g id="text_3">
      <!-- 4 -->
      <g transform="translate(211.859214 321.140875)scale(0.2 -0.2)">
       <defs>
        <path d="M 37.796875 64.3125 
L 12.890625 25.390625 
L 37.796875 25.390625 
z
M 35.203125 72.90625 
L 47.609375 72.90625 
L 47.609375 25.390625 
L 58.015625 25.390625 
L 58.015625 17.1875 
L 47.609375 17.1875 
L 47.609375 0 
L 37.796875 0 
L 37.796875 17.1875 
L 4.890625 17.1875 
L 4.890625 26.703125 
z
" id="DejaVuSans-52"/>
       </defs>
       <use xlink:href="#DejaVuSans-52"/>
      </g>
     </g>
    </g>
    <g id="xtick_4">
     <g id="line2d_11">
      <path clip-path="url(#p02d11e5cd5)" d="M 298.532571 298.944 
L 298.532571 27.648 
" style="fill:none;stroke:#b0b0b0;stroke-linecap:square;stroke-width:0.8;"/>
     </g>
     <g id="line2d_12">
      <g>
       <use style="stroke:#000000;stroke-width:0.8;" x="298.532571" xlink:href="#mb5253e7359" y="298.944"/>
      </g>
     </g>
     <g id="text_4">
      <!-- 6 -->
      <g transform="translate(292.170071 321.140875)scale(0.2 -0.2)">
       <defs>
        <path d="M 33.015625 40.375 
Q 26.375 40.375 22.484375 35.828125 
Q 18.609375 31.296875 18.609375 23.390625 
Q 18.609375 15.53125 22.484375 10.953125 
Q 26.375 6.390625 33.015625 6.390625 
Q 39.65625 6.390625 43.53125 10.953125 
Q 47.40625 15.53125 47.40625 23.390625 
Q 47.40625 31.296875 43.53125 35.828125 
Q 39.65625 40.375 33.015625 40.375 
z
M 52.59375 71.296875 
L 52.59375 62.3125 
Q 48.875 64.0625 45.09375 64.984375 
Q 41.3125 65.921875 37.59375 65.921875 
Q 27.828125 65.921875 22.671875 59.328125 
Q 17.53125 52.734375 16.796875 39.40625 
Q 19.671875 43.65625 24.015625 45.921875 
Q 28.375 48.1875 33.59375 48.1875 
Q 44.578125 48.1875 50.953125 41.515625 
Q 57.328125 34.859375 57.328125 23.390625 
Q 57.328125 12.15625 50.6875 5.359375 
Q 44.046875 -1.421875 33.015625 -1.421875 
Q 20.359375 -1.421875 13.671875 8.265625 
Q 6.984375 17.96875 6.984375 36.375 
Q 6.984375 53.65625 15.1875 63.9375 
Q 23.390625 74.21875 37.203125 74.21875 
Q 40.921875 74.21875 44.703125 73.484375 
Q 48.484375 72.75 52.59375 71.296875 
z
" id="DejaVuSans-54"/>
       </defs>
       <use xlink:href="#DejaVuSans-54"/>
      </g>
     </g>
    </g>
    <g id="xtick_5">
     <g id="line2d_13">
      <path clip-path="url(#p02d11e5cd5)" d="M 97.755429 298.944 
L 97.755429 27.648 
" style="fill:none;stroke:#b0b0b0;stroke-linecap:square;stroke-width:0.8;"/>
     </g>
     <g id="line2d_14">
      <defs>
       <path d="M 0 0 
L 0 2 
" id="m599241f03c" style="stroke:#000000;stroke-width:0.6;"/>
      </defs>
      <g>
       <use style="stroke:#000000;stroke-width:0.6;" x="97.755429" xlink:href="#m599241f03c" y="298.944"/>
      </g>
     </g>
    </g>
    <g id="xtick_6">
     <g id="line2d_15">
      <path clip-path="url(#p02d11e5cd5)" d="M 178.066286 298.944 
L 178.066286 27.648 
" style="fill:none;stroke:#b0b0b0;stroke-linecap:square;stroke-width:0.8;"/>
     </g>
     <g id="line2d_16">
      <g>
       <use style="stroke:#000000;stroke-width:0.6;" x="178.066286" xlink:href="#m599241f03c" y="298.944"/>
      </g>
     </g>
    </g>
    <g id="xtick_7">
     <g id="line2d_17">
      <path clip-path="url(#p02d11e5cd5)" d="M 258.377143 298.944 
L 258.377143 27.648 
" style="fill:none;stroke:#b0b0b0;stroke-linecap:square;stroke-width:0.8;"/>
     </g>
     <g id="line2d_18">
      <g>
       <use style="stroke:#000000;stroke-width:0.6;" x="258.377143" xlink:href="#m599241f03c" y="298.944"/>
      </g>
     </g>
    </g>
    <g id="xtick_8">
     <g id="line2d_19">
      <path clip-path="url(#p02d11e5cd5)" d="M 338.688 298.944 
L 338.688 27.648 
" style="fill:none;stroke:#b0b0b0;stroke-linecap:square;stroke-width:0.8;"/>
     </g>
     <g id="line2d_20">
      <g>
       <use style="stroke:#000000;stroke-width:0.6;" x="338.688" xlink:href="#m599241f03c" y="298.944"/>
      </g>
     </g>
    </g>
    <g id="text_5">
     <!-- log10(# f-evals / dimension) -->
     <g transform="translate(77.764078 342.217594)scale(0.17 -0.17)">
      <defs>
       <path d="M 9.421875 75.984375 
L 18.40625 75.984375 
L 18.40625 0 
L 9.421875 0 
z
" id="DejaVuSans-108"/>
       <path d="M 30.609375 48.390625 
Q 23.390625 48.390625 19.1875 42.75 
Q 14.984375 37.109375 14.984375 27.296875 
Q 14.984375 17.484375 19.15625 11.84375 
Q 23.34375 6.203125 30.609375 6.203125 
Q 37.796875 6.203125 41.984375 11.859375 
Q 46.1875 17.53125 46.1875 27.296875 
Q 46.1875 37.015625 41.984375 42.703125 
Q 37.796875 48.390625 30.609375 48.390625 
z
M 30.609375 56 
Q 42.328125 56 49.015625 48.375 
Q 55.71875 40.765625 55.71875 27.296875 
Q 55.71875 13.875 49.015625 6.21875 
Q 42.328125 -1.421875 30.609375 -1.421875 
Q 18.84375 -1.421875 12.171875 6.21875 
Q 5.515625 13.875 5.515625 27.296875 
Q 5.515625 40.765625 12.171875 48.375 
Q 18.84375 56 30.609375 56 
z
" id="DejaVuSans-111"/>
       <path d="M 45.40625 27.984375 
Q 45.40625 37.75 41.375 43.109375 
Q 37.359375 48.484375 30.078125 48.484375 
Q 22.859375 48.484375 18.828125 43.109375 
Q 14.796875 37.75 14.796875 27.984375 
Q 14.796875 18.265625 18.828125 12.890625 
Q 22.859375 7.515625 30.078125 7.515625 
Q 37.359375 7.515625 41.375 12.890625 
Q 45.40625 18.265625 45.40625 27.984375 
z
M 54.390625 6.78125 
Q 54.390625 -7.171875 48.1875 -13.984375 
Q 42 -20.796875 29.203125 -20.796875 
Q 24.46875 -20.796875 20.265625 -20.09375 
Q 16.0625 -19.390625 12.109375 -17.921875 
L 12.109375 -9.1875 
Q 16.0625 -11.328125 19.921875 -12.34375 
Q 23.78125 -13.375 27.78125 -13.375 
Q 36.625 -13.375 41.015625 -8.765625 
Q 45.40625 -4.15625 45.40625 5.171875 
L 45.40625 9.625 
Q 42.625 4.78125 38.28125 2.390625 
Q 33.9375 0 27.875 0 
Q 17.828125 0 11.671875 7.65625 
Q 5.515625 15.328125 5.515625 27.984375 
Q 5.515625 40.671875 11.671875 48.328125 
Q 17.828125 56 27.875 56 
Q 33.9375 56 38.28125 53.609375 
Q 42.625 51.21875 45.40625 46.390625 
L 45.40625 54.6875 
L 54.390625 54.6875 
z
" id="DejaVuSans-103"/>
       <path d="M 12.40625 8.296875 
L 28.515625 8.296875 
L 28.515625 63.921875 
L 10.984375 60.40625 
L 10.984375 69.390625 
L 28.421875 72.90625 
L 38.28125 72.90625 
L 38.28125 8.296875 
L 54.390625 8.296875 
L 54.390625 0 
L 12.40625 0 
z
" id="DejaVuSans-49"/>
       <path d="M 31 75.875 
Q 24.46875 64.65625 21.28125 53.65625 
Q 18.109375 42.671875 18.109375 31.390625 
Q 18.109375 20.125 21.3125 9.0625 
Q 24.515625 -2 31 -13.1875 
L 23.1875 -13.1875 
Q 15.875 -1.703125 12.234375 9.375 
Q 8.59375 20.453125 8.59375 31.390625 
Q 8.59375 42.28125 12.203125 53.3125 
Q 15.828125 64.359375 23.1875 75.875 
z
" id="DejaVuSans-40"/>
       <path d="M 51.125 44 
L 36.921875 44 
L 32.8125 27.6875 
L 47.125 27.6875 
z
M 43.796875 71.78125 
L 38.71875 51.515625 
L 52.984375 51.515625 
L 58.109375 71.78125 
L 65.921875 71.78125 
L 60.890625 51.515625 
L 76.125 51.515625 
L 76.125 44 
L 58.984375 44 
L 54.984375 27.6875 
L 70.515625 27.6875 
L 70.515625 20.21875 
L 53.078125 20.21875 
L 48 0 
L 40.1875 0 
L 45.21875 20.21875 
L 30.90625 20.21875 
L 25.875 0 
L 18.015625 0 
L 23.09375 20.21875 
L 7.71875 20.21875 
L 7.71875 27.6875 
L 24.90625 27.6875 
L 29 44 
L 13.28125 44 
L 13.28125 51.515625 
L 30.90625 51.515625 
L 35.890625 71.78125 
z
" id="DejaVuSans-35"/>
       <path id="DejaVuSans-32"/>
       <path d="M 37.109375 75.984375 
L 37.109375 68.5 
L 28.515625 68.5 
Q 23.6875 68.5 21.796875 66.546875 
Q 19.921875 64.59375 19.921875 59.515625 
L 19.921875 54.6875 
L 34.71875 54.6875 
L 34.71875 47.703125 
L 19.921875 47.703125 
L 19.921875 0 
L 10.890625 0 
L 10.890625 47.703125 
L 2.296875 47.703125 
L 2.296875 54.6875 
L 10.890625 54.6875 
L 10.890625 58.5 
Q 10.890625 67.625 15.140625 71.796875 
Q 19.390625 75.984375 28.609375 75.984375 
z
" id="DejaVuSans-102"/>
       <path d="M 4.890625 31.390625 
L 31.203125 31.390625 
L 31.203125 23.390625 
L 4.890625 23.390625 
z
" id="DejaVuSans-45"/>
       <path d="M 56.203125 29.59375 
L 56.203125 25.203125 
L 14.890625 25.203125 
Q 15.484375 15.921875 20.484375 11.0625 
Q 25.484375 6.203125 34.421875 6.203125 
Q 39.59375 6.203125 44.453125 7.46875 
Q 49.3125 8.734375 54.109375 11.28125 
L 54.109375 2.78125 
Q 49.265625 0.734375 44.1875 -0.34375 
Q 39.109375 -1.421875 33.890625 -1.421875 
Q 20.796875 -1.421875 13.15625 6.1875 
Q 5.515625 13.8125 5.515625 26.8125 
Q 5.515625 40.234375 12.765625 48.109375 
Q 20.015625 56 32.328125 56 
Q 43.359375 56 49.78125 48.890625 
Q 56.203125 41.796875 56.203125 29.59375 
z
M 47.21875 32.234375 
Q 47.125 39.59375 43.09375 43.984375 
Q 39.0625 48.390625 32.421875 48.390625 
Q 24.90625 48.390625 20.390625 44.140625 
Q 15.875 39.890625 15.1875 32.171875 
z
" id="DejaVuSans-101"/>
       <path d="M 2.984375 54.6875 
L 12.5 54.6875 
L 29.59375 8.796875 
L 46.6875 54.6875 
L 56.203125 54.6875 
L 35.6875 0 
L 23.484375 0 
z
" id="DejaVuSans-118"/>
       <path d="M 34.28125 27.484375 
Q 23.390625 27.484375 19.1875 25 
Q 14.984375 22.515625 14.984375 16.5 
Q 14.984375 11.71875 18.140625 8.90625 
Q 21.296875 6.109375 26.703125 6.109375 
Q 34.1875 6.109375 38.703125 11.40625 
Q 43.21875 16.703125 43.21875 25.484375 
L 43.21875 27.484375 
z
M 52.203125 31.203125 
L 52.203125 0 
L 43.21875 0 
L 43.21875 8.296875 
Q 40.140625 3.328125 35.546875 0.953125 
Q 30.953125 -1.421875 24.3125 -1.421875 
Q 15.921875 -1.421875 10.953125 3.296875 
Q 6 8.015625 6 15.921875 
Q 6 25.140625 12.171875 29.828125 
Q 18.359375 34.515625 30.609375 34.515625 
L 43.21875 34.515625 
L 43.21875 35.40625 
Q 43.21875 41.609375 39.140625 45 
Q 35.0625 48.390625 27.6875 48.390625 
Q 23 48.390625 18.546875 47.265625 
Q 14.109375 46.140625 10.015625 43.890625 
L 10.015625 52.203125 
Q 14.9375 54.109375 19.578125 55.046875 
Q 24.21875 56 28.609375 56 
Q 40.484375 56 46.34375 49.84375 
Q 52.203125 43.703125 52.203125 31.203125 
z
" id="DejaVuSans-97"/>
       <path d="M 44.28125 53.078125 
L 44.28125 44.578125 
Q 40.484375 46.53125 36.375 47.5 
Q 32.28125 48.484375 27.875 48.484375 
Q 21.1875 48.484375 17.84375 46.4375 
Q 14.5 44.390625 14.5 40.28125 
Q 14.5 37.15625 16.890625 35.375 
Q 19.28125 33.59375 26.515625 31.984375 
L 29.59375 31.296875 
Q 39.15625 29.25 43.1875 25.515625 
Q 47.21875 21.78125 47.21875 15.09375 
Q 47.21875 7.46875 41.1875 3.015625 
Q 35.15625 -1.421875 24.609375 -1.421875 
Q 20.21875 -1.421875 15.453125 -0.5625 
Q 10.6875 0.296875 5.421875 2 
L 5.421875 11.28125 
Q 10.40625 8.6875 15.234375 7.390625 
Q 20.0625 6.109375 24.8125 6.109375 
Q 31.15625 6.109375 34.5625 8.28125 
Q 37.984375 10.453125 37.984375 14.40625 
Q 37.984375 18.0625 35.515625 20.015625 
Q 33.0625 21.96875 24.703125 23.78125 
L 21.578125 24.515625 
Q 13.234375 26.265625 9.515625 29.90625 
Q 5.8125 33.546875 5.8125 39.890625 
Q 5.8125 47.609375 11.28125 51.796875 
Q 16.75 56 26.8125 56 
Q 31.78125 56 36.171875 55.265625 
Q 40.578125 54.546875 44.28125 53.078125 
z
" id="DejaVuSans-115"/>
       <path d="M 25.390625 72.90625 
L 33.6875 72.90625 
L 8.296875 -9.28125 
L 0 -9.28125 
z
" id="DejaVuSans-47"/>
       <path d="M 45.40625 46.390625 
L 45.40625 75.984375 
L 54.390625 75.984375 
L 54.390625 0 
L 45.40625 0 
L 45.40625 8.203125 
Q 42.578125 3.328125 38.25 0.953125 
Q 33.9375 -1.421875 27.875 -1.421875 
Q 17.96875 -1.421875 11.734375 6.484375 
Q 5.515625 14.40625 5.515625 27.296875 
Q 5.515625 40.1875 11.734375 48.09375 
Q 17.96875 56 27.875 56 
Q 33.9375 56 38.25 53.625 
Q 42.578125 51.265625 45.40625 46.390625 
z
M 14.796875 27.296875 
Q 14.796875 17.390625 18.875 11.75 
Q 22.953125 6.109375 30.078125 6.109375 
Q 37.203125 6.109375 41.296875 11.75 
Q 45.40625 17.390625 45.40625 27.296875 
Q 45.40625 37.203125 41.296875 42.84375 
Q 37.203125 48.484375 30.078125 48.484375 
Q 22.953125 48.484375 18.875 42.84375 
Q 14.796875 37.203125 14.796875 27.296875 
z
" id="DejaVuSans-100"/>
       <path d="M 9.421875 54.6875 
L 18.40625 54.6875 
L 18.40625 0 
L 9.421875 0 
z
M 9.421875 75.984375 
L 18.40625 75.984375 
L 18.40625 64.59375 
L 9.421875 64.59375 
z
" id="DejaVuSans-105"/>
       <path d="M 52 44.1875 
Q 55.375 50.25 60.0625 53.125 
Q 64.75 56 71.09375 56 
Q 79.640625 56 84.28125 50.015625 
Q 88.921875 44.046875 88.921875 33.015625 
L 88.921875 0 
L 79.890625 0 
L 79.890625 32.71875 
Q 79.890625 40.578125 77.09375 44.375 
Q 74.3125 48.1875 68.609375 48.1875 
Q 61.625 48.1875 57.5625 43.546875 
Q 53.515625 38.921875 53.515625 30.90625 
L 53.515625 0 
L 44.484375 0 
L 44.484375 32.71875 
Q 44.484375 40.625 41.703125 44.40625 
Q 38.921875 48.1875 33.109375 48.1875 
Q 26.21875 48.1875 22.15625 43.53125 
Q 18.109375 38.875 18.109375 30.90625 
L 18.109375 0 
L 9.078125 0 
L 9.078125 54.6875 
L 18.109375 54.6875 
L 18.109375 46.1875 
Q 21.1875 51.21875 25.484375 53.609375 
Q 29.78125 56 35.6875 56 
Q 41.65625 56 45.828125 52.96875 
Q 50 49.953125 52 44.1875 
z
" id="DejaVuSans-109"/>
       <path d="M 54.890625 33.015625 
L 54.890625 0 
L 45.90625 0 
L 45.90625 32.71875 
Q 45.90625 40.484375 42.875 44.328125 
Q 39.84375 48.1875 33.796875 48.1875 
Q 26.515625 48.1875 22.3125 43.546875 
Q 18.109375 38.921875 18.109375 30.90625 
L 18.109375 0 
L 9.078125 0 
L 9.078125 54.6875 
L 18.109375 54.6875 
L 18.109375 46.1875 
Q 21.34375 51.125 25.703125 53.5625 
Q 30.078125 56 35.796875 56 
Q 45.21875 56 50.046875 50.171875 
Q 54.890625 44.34375 54.890625 33.015625 
z
" id="DejaVuSans-110"/>
       <path d="M 8.015625 75.875 
L 15.828125 75.875 
Q 23.140625 64.359375 26.78125 53.3125 
Q 30.421875 42.28125 30.421875 31.390625 
Q 30.421875 20.453125 26.78125 9.375 
Q 23.140625 -1.703125 15.828125 -13.1875 
L 8.015625 -13.1875 
Q 14.5 -2 17.703125 9.0625 
Q 20.90625 20.125 20.90625 31.390625 
Q 20.90625 42.671875 17.703125 53.65625 
Q 14.5 64.65625 8.015625 75.875 
z
" id="DejaVuSans-41"/>
      </defs>
      <use xlink:href="#DejaVuSans-108"/>
      <use x="27.783203" xlink:href="#DejaVuSans-111"/>
      <use x="88.964844" xlink:href="#DejaVuSans-103"/>
      <use x="152.441406" xlink:href="#DejaVuSans-49"/>
      <use x="216.064453" xlink:href="#DejaVuSans-48"/>
      <use x="279.6875" xlink:href="#DejaVuSans-40"/>
      <use x="318.701172" xlink:href="#DejaVuSans-35"/>
      <use x="402.490234" xlink:href="#DejaVuSans-32"/>
      <use x="434.277344" xlink:href="#DejaVuSans-102"/>
      <use x="463.982422" xlink:href="#DejaVuSans-45"/>
      <use x="500.066406" xlink:href="#DejaVuSans-101"/>
      <use x="561.589844" xlink:href="#DejaVuSans-118"/>
      <use x="620.769531" xlink:href="#DejaVuSans-97"/>
      <use x="682.048828" xlink:href="#DejaVuSans-108"/>
      <use x="709.832031" xlink:href="#DejaVuSans-115"/>
      <use x="761.931641" xlink:href="#DejaVuSans-32"/>
      <use x="793.71875" xlink:href="#DejaVuSans-47"/>
      <use x="827.410156" xlink:href="#DejaVuSans-32"/>
      <use x="859.197266" xlink:href="#DejaVuSans-100"/>
      <use x="922.673828" xlink:href="#DejaVuSans-105"/>
      <use x="950.457031" xlink:href="#DejaVuSans-109"/>
      <use x="1047.869141" xlink:href="#DejaVuSans-101"/>
      <use x="1109.392578" xlink:href="#DejaVuSans-110"/>
      <use x="1172.771484" xlink:href="#DejaVuSans-115"/>
      <use x="1224.871094" xlink:href="#DejaVuSans-105"/>
      <use x="1252.654297" xlink:href="#DejaVuSans-111"/>
      <use x="1313.835938" xlink:href="#DejaVuSans-110"/>
      <use x="1377.214844" xlink:href="#DejaVuSans-41"/>
     </g>
    </g>
   </g>
   <g id="matplotlib.axis_2">
    <g id="ytick_1">
     <g id="line2d_21">
      <path clip-path="url(#p02d11e5cd5)" d="M 57.6 298.944 
L 338.688 298.944 
" style="fill:none;stroke:#b0b0b0;stroke-linecap:square;stroke-width:0.8;"/>
     </g>
     <g id="line2d_22">
      <defs>
       <path d="M 0 0 
L -3.5 0 
" id="mb68d2f584d" style="stroke:#000000;stroke-width:0.8;"/>
      </defs>
      <g>
       <use style="stroke:#000000;stroke-width:0.8;" x="57.6" xlink:href="#mb68d2f584d" y="298.944"/>
      </g>
     </g>
     <g id="text_6">
      <!-- 0.0 -->
      <g transform="translate(25.155 305.02275)scale(0.16 -0.16)">
       <defs>
        <path d="M 10.6875 12.40625 
L 21 12.40625 
L 21 0 
L 10.6875 0 
z
" id="DejaVuSans-46"/>
       </defs>
       <use xlink:href="#DejaVuSans-48"/>
       <use x="63.623047" xlink:href="#DejaVuSans-46"/>
       <use x="95.410156" xlink:href="#DejaVuSans-48"/>
      </g>
     </g>
    </g>
    <g id="ytick_2">
     <g id="line2d_23">
      <path clip-path="url(#p02d11e5cd5)" d="M 57.6 245.22202 
L 338.688 245.22202 
" style="fill:none;stroke:#b0b0b0;stroke-linecap:square;stroke-width:0.8;"/>
     </g>
     <g id="line2d_24">
      <g>
       <use style="stroke:#000000;stroke-width:0.8;" x="57.6" xlink:href="#mb68d2f584d" y="245.22202"/>
      </g>
     </g>
     <g id="text_7">
      <!-- 0.2 -->
      <g transform="translate(25.155 251.30077)scale(0.16 -0.16)">
       <use xlink:href="#DejaVuSans-48"/>
       <use x="63.623047" xlink:href="#DejaVuSans-46"/>
       <use x="95.410156" xlink:href="#DejaVuSans-50"/>
      </g>
     </g>
    </g>
    <g id="ytick_3">
     <g id="line2d_25">
      <path clip-path="url(#p02d11e5cd5)" d="M 57.6 191.50004 
L 338.688 191.50004 
" style="fill:none;stroke:#b0b0b0;stroke-linecap:square;stroke-width:0.8;"/>
     </g>
     <g id="line2d_26">
      <g>
       <use style="stroke:#000000;stroke-width:0.8;" x="57.6" xlink:href="#mb68d2f584d" y="191.50004"/>
      </g>
     </g>
     <g id="text_8">
      <!-- 0.4 -->
      <g transform="translate(25.155 197.57879)scale(0.16 -0.16)">
       <use xlink:href="#DejaVuSans-48"/>
       <use x="63.623047" xlink:href="#DejaVuSans-46"/>
       <use x="95.410156" xlink:href="#DejaVuSans-52"/>
      </g>
     </g>
    </g>
    <g id="ytick_4">
     <g id="line2d_27">
      <path clip-path="url(#p02d11e5cd5)" d="M 57.6 137.778059 
L 338.688 137.778059 
" style="fill:none;stroke:#b0b0b0;stroke-linecap:square;stroke-width:0.8;"/>
     </g>
     <g id="line2d_28">
      <g>
       <use style="stroke:#000000;stroke-width:0.8;" x="57.6" xlink:href="#mb68d2f584d" y="137.778059"/>
      </g>
     </g>
     <g id="text_9">
      <!-- 0.6 -->
      <g transform="translate(25.155 143.856809)scale(0.16 -0.16)">
       <use xlink:href="#DejaVuSans-48"/>
       <use x="63.623047" xlink:href="#DejaVuSans-46"/>
       <use x="95.410156" xlink:href="#DejaVuSans-54"/>
      </g>
     </g>
    </g>
    <g id="ytick_5">
     <g id="line2d_29">
      <path clip-path="url(#p02d11e5cd5)" d="M 57.6 84.056079 
L 338.688 84.056079 
" style="fill:none;stroke:#b0b0b0;stroke-linecap:square;stroke-width:0.8;"/>
     </g>
     <g id="line2d_30">
      <g>
       <use style="stroke:#000000;stroke-width:0.8;" x="57.6" xlink:href="#mb68d2f584d" y="84.056079"/>
      </g>
     </g>
     <g id="text_10">
      <!-- 0.8 -->
      <g transform="translate(25.155 90.134829)scale(0.16 -0.16)">
       <defs>
        <path d="M 31.78125 34.625 
Q 24.75 34.625 20.71875 30.859375 
Q 16.703125 27.09375 16.703125 20.515625 
Q 16.703125 13.921875 20.71875 10.15625 
Q 24.75 6.390625 31.78125 6.390625 
Q 38.8125 6.390625 42.859375 10.171875 
Q 46.921875 13.96875 46.921875 20.515625 
Q 46.921875 27.09375 42.890625 30.859375 
Q 38.875 34.625 31.78125 34.625 
z
M 21.921875 38.8125 
Q 15.578125 40.375 12.03125 44.71875 
Q 8.5 49.078125 8.5 55.328125 
Q 8.5 64.0625 14.71875 69.140625 
Q 20.953125 74.21875 31.78125 74.21875 
Q 42.671875 74.21875 48.875 69.140625 
Q 55.078125 64.0625 55.078125 55.328125 
Q 55.078125 49.078125 51.53125 44.71875 
Q 48 40.375 41.703125 38.8125 
Q 48.828125 37.15625 52.796875 32.3125 
Q 56.78125 27.484375 56.78125 20.515625 
Q 56.78125 9.90625 50.3125 4.234375 
Q 43.84375 -1.421875 31.78125 -1.421875 
Q 19.734375 -1.421875 13.25 4.234375 
Q 6.78125 9.90625 6.78125 20.515625 
Q 6.78125 27.484375 10.78125 32.3125 
Q 14.796875 37.15625 21.921875 38.8125 
z
M 18.3125 54.390625 
Q 18.3125 48.734375 21.84375 45.5625 
Q 25.390625 42.390625 31.78125 42.390625 
Q 38.140625 42.390625 41.71875 45.5625 
Q 45.3125 48.734375 45.3125 54.390625 
Q 45.3125 60.0625 41.71875 63.234375 
Q 38.140625 66.40625 31.78125 66.40625 
Q 25.390625 66.40625 21.84375 63.234375 
Q 18.3125 60.0625 18.3125 54.390625 
z
" id="DejaVuSans-56"/>
       </defs>
       <use xlink:href="#DejaVuSans-48"/>
       <use x="63.623047" xlink:href="#DejaVuSans-46"/>
       <use x="95.410156" xlink:href="#DejaVuSans-56"/>
      </g>
     </g>
    </g>
    <g id="ytick_6">
     <g id="line2d_31">
      <path clip-path="url(#p02d11e5cd5)" d="M 57.6 30.334099 
L 338.688 30.334099 
" style="fill:none;stroke:#b0b0b0;stroke-linecap:square;stroke-width:0.8;"/>
     </g>
     <g id="line2d_32">
      <g>
       <use style="stroke:#000000;stroke-width:0.8;" x="57.6" xlink:href="#mb68d2f584d" y="30.334099"/>
      </g>
     </g>
     <g id="text_11">
      <!-- 1.0 -->
      <g transform="translate(25.155 36.412849)scale(0.16 -0.16)">
       <use xlink:href="#DejaVuSans-49"/>
       <use x="63.623047" xlink:href="#DejaVuSans-46"/>
       <use x="95.410156" xlink:href="#DejaVuSans-48"/>
      </g>
     </g>
    </g>
    <g id="text_12">
     <!-- Fraction of function,target pairs -->
     <g transform="translate(17.619531 297.681)rotate(-90)scale(0.17 -0.17)">
      <defs>
       <path d="M 9.8125 72.90625 
L 51.703125 72.90625 
L 51.703125 64.59375 
L 19.671875 64.59375 
L 19.671875 43.109375 
L 48.578125 43.109375 
L 48.578125 34.8125 
L 19.671875 34.8125 
L 19.671875 0 
L 9.8125 0 
z
" id="DejaVuSans-70"/>
       <path d="M 41.109375 46.296875 
Q 39.59375 47.171875 37.8125 47.578125 
Q 36.03125 48 33.890625 48 
Q 26.265625 48 22.1875 43.046875 
Q 18.109375 38.09375 18.109375 28.8125 
L 18.109375 0 
L 9.078125 0 
L 9.078125 54.6875 
L 18.109375 54.6875 
L 18.109375 46.1875 
Q 20.953125 51.171875 25.484375 53.578125 
Q 30.03125 56 36.53125 56 
Q 37.453125 56 38.578125 55.875 
Q 39.703125 55.765625 41.0625 55.515625 
z
" id="DejaVuSans-114"/>
       <path d="M 48.78125 52.59375 
L 48.78125 44.1875 
Q 44.96875 46.296875 41.140625 47.34375 
Q 37.3125 48.390625 33.40625 48.390625 
Q 24.65625 48.390625 19.8125 42.84375 
Q 14.984375 37.3125 14.984375 27.296875 
Q 14.984375 17.28125 19.8125 11.734375 
Q 24.65625 6.203125 33.40625 6.203125 
Q 37.3125 6.203125 41.140625 7.25 
Q 44.96875 8.296875 48.78125 10.40625 
L 48.78125 2.09375 
Q 45.015625 0.34375 40.984375 -0.53125 
Q 36.96875 -1.421875 32.421875 -1.421875 
Q 20.0625 -1.421875 12.78125 6.34375 
Q 5.515625 14.109375 5.515625 27.296875 
Q 5.515625 40.671875 12.859375 48.328125 
Q 20.21875 56 33.015625 56 
Q 37.15625 56 41.109375 55.140625 
Q 45.0625 54.296875 48.78125 52.59375 
z
" id="DejaVuSans-99"/>
       <path d="M 18.3125 70.21875 
L 18.3125 54.6875 
L 36.8125 54.6875 
L 36.8125 47.703125 
L 18.3125 47.703125 
L 18.3125 18.015625 
Q 18.3125 11.328125 20.140625 9.421875 
Q 21.96875 7.515625 27.59375 7.515625 
L 36.8125 7.515625 
L 36.8125 0 
L 27.59375 0 
Q 17.1875 0 13.234375 3.875 
Q 9.28125 7.765625 9.28125 18.015625 
L 9.28125 47.703125 
L 2.6875 47.703125 
L 2.6875 54.6875 
L 9.28125 54.6875 
L 9.28125 70.21875 
z
" id="DejaVuSans-116"/>
       <path d="M 8.5 21.578125 
L 8.5 54.6875 
L 17.484375 54.6875 
L 17.484375 21.921875 
Q 17.484375 14.15625 20.5 10.265625 
Q 23.53125 6.390625 29.59375 6.390625 
Q 36.859375 6.390625 41.078125 11.03125 
Q 45.3125 15.671875 45.3125 23.6875 
L 45.3125 54.6875 
L 54.296875 54.6875 
L 54.296875 0 
L 45.3125 0 
L 45.3125 8.40625 
Q 42.046875 3.421875 37.71875 1 
Q 33.40625 -1.421875 27.6875 -1.421875 
Q 18.265625 -1.421875 13.375 4.4375 
Q 8.5 10.296875 8.5 21.578125 
z
M 31.109375 56 
z
" id="DejaVuSans-117"/>
       <path d="M 11.71875 12.40625 
L 22.015625 12.40625 
L 22.015625 4 
L 14.015625 -11.625 
L 7.71875 -11.625 
L 11.71875 4 
z
" id="DejaVuSans-44"/>
       <path d="M 18.109375 8.203125 
L 18.109375 -20.796875 
L 9.078125 -20.796875 
L 9.078125 54.6875 
L 18.109375 54.6875 
L 18.109375 46.390625 
Q 20.953125 51.265625 25.265625 53.625 
Q 29.59375 56 35.59375 56 
Q 45.5625 56 51.78125 48.09375 
Q 58.015625 40.1875 58.015625 27.296875 
Q 58.015625 14.40625 51.78125 6.484375 
Q 45.5625 -1.421875 35.59375 -1.421875 
Q 29.59375 -1.421875 25.265625 0.953125 
Q 20.953125 3.328125 18.109375 8.203125 
z
M 48.6875 27.296875 
Q 48.6875 37.203125 44.609375 42.84375 
Q 40.53125 48.484375 33.40625 48.484375 
Q 26.265625 48.484375 22.1875 42.84375 
Q 18.109375 37.203125 18.109375 27.296875 
Q 18.109375 17.390625 22.1875 11.75 
Q 26.265625 6.109375 33.40625 6.109375 
Q 40.53125 6.109375 44.609375 11.75 
Q 48.6875 17.390625 48.6875 27.296875 
z
" id="DejaVuSans-112"/>
      </defs>
      <use xlink:href="#DejaVuSans-70"/>
      <use x="50.269531" xlink:href="#DejaVuSans-114"/>
      <use x="91.382812" xlink:href="#DejaVuSans-97"/>
      <use x="152.662109" xlink:href="#DejaVuSans-99"/>
      <use x="207.642578" xlink:href="#DejaVuSans-116"/>
      <use x="246.851562" xlink:href="#DejaVuSans-105"/>
      <use x="274.634766" xlink:href="#DejaVuSans-111"/>
      <use x="335.816406" xlink:href="#DejaVuSans-110"/>
      <use x="399.195312" xlink:href="#DejaVuSans-32"/>
      <use x="430.982422" xlink:href="#DejaVuSans-111"/>
      <use x="492.164062" xlink:href="#DejaVuSans-102"/>
      <use x="527.369141" xlink:href="#DejaVuSans-32"/>
      <use x="559.15625" xlink:href="#DejaVuSans-102"/>
      <use x="594.361328" xlink:href="#DejaVuSans-117"/>
      <use x="657.740234" xlink:href="#DejaVuSans-110"/>
      <use x="721.119141" xlink:href="#DejaVuSans-99"/>
      <use x="776.099609" xlink:href="#DejaVuSans-116"/>
      <use x="815.308594" xlink:href="#DejaVuSans-105"/>
      <use x="843.091797" xlink:href="#DejaVuSans-111"/>
      <use x="904.273438" xlink:href="#DejaVuSans-110"/>
      <use x="967.652344" xlink:href="#DejaVuSans-44"/>
      <use x="999.439453" xlink:href="#DejaVuSans-116"/>
      <use x="1038.648438" xlink:href="#DejaVuSans-97"/>
      <use x="1099.927734" xlink:href="#DejaVuSans-114"/>
      <use x="1139.291016" xlink:href="#DejaVuSans-103"/>
      <use x="1202.767578" xlink:href="#DejaVuSans-101"/>
      <use x="1264.291016" xlink:href="#DejaVuSans-116"/>
      <use x="1303.5" xlink:href="#DejaVuSans-32"/>
      <use x="1335.287109" xlink:href="#DejaVuSans-112"/>
      <use x="1398.763672" xlink:href="#DejaVuSans-97"/>
      <use x="1460.042969" xlink:href="#DejaVuSans-105"/>
      <use x="1487.826172" xlink:href="#DejaVuSans-114"/>
      <use x="1528.939453" xlink:href="#DejaVuSans-115"/>
     </g>
    </g>
   </g>
   <g id="line2d_33">
    <defs>
     <path d="M 0 1.5 
C 0.397805 1.5 0.77937 1.341951 1.06066 1.06066 
C 1.341951 0.77937 1.5 0.397805 1.5 0 
C 1.5 -0.397805 1.341951 -0.77937 1.06066 -1.06066 
C 0.77937 -1.341951 0.397805 -1.5 0 -1.5 
C -0.397805 -1.5 -0.77937 -1.341951 -1.06066 -1.06066 
C -1.341951 -0.77937 -1.5 -0.397805 -1.5 0 
C -1.5 0.397805 -1.341951 0.77937 -1.06066 1.06066 
C -0.77937 1.341951 -0.397805 1.5 0 1.5 
z
" id="me62fecb7a8" style="stroke:#f5deb3;"/>
    </defs>
    <g>
     <use style="fill:#f5deb3;stroke:#f5deb3;" x="211.945165" xlink:href="#me62fecb7a8" y="30.334099"/>
     <use style="fill:#f5deb3;stroke:#f5deb3;" x="211.945165" xlink:href="#me62fecb7a8" y="30.334099"/>
    </g>
   </g>
   <g id="line2d_34">
    <defs>
     <path d="M 0 1.5 
C 0.397805 1.5 0.77937 1.341951 1.06066 1.06066 
C 1.341951 0.77937 1.5 0.397805 1.5 0 
C 1.5 -0.397805 1.341951 -0.77937 1.06066 -1.06066 
C 0.77937 -1.341951 0.397805 -1.5 0 -1.5 
C -0.397805 -1.5 -0.77937 -1.341951 -1.06066 -1.06066 
C -1.341951 -0.77937 -1.5 -0.397805 -1.5 0 
C -1.5 0.397805 -1.341951 0.77937 -1.06066 1.06066 
C -0.77937 1.341951 -0.397805 1.5 0 1.5 
z
" id="m75c3e817eb" style="stroke:#000080;"/>
    </defs>
    <g>
     <use style="fill:#000080;stroke:#000080;" x="279.907479" xlink:href="#m75c3e817eb" y="30.334099"/>
     <use style="fill:#000080;stroke:#000080;" x="279.907479" xlink:href="#m75c3e817eb" y="30.334099"/>
    </g>
   </g>
   <g id="line2d_35">
    <path d="M 29.53256 298.944 
L 29.53256 277.349871 
L 41.620548 277.349871 
L 41.620548 270.502952 
L 48.691568 270.502952 
L 48.691568 267.869521 
L 57.6 267.869521 
L 57.6 266.289463 
L 63.467834 266.289463 
L 63.467834 263.656033 
L 65.796525 263.656033 
L 65.796525 262.60266 
L 88.846997 262.60266 
L 88.846997 262.075974 
L 96.676366 262.075974 
L 96.676366 261.549288 
L 98.100772 261.549288 
L 98.100772 261.022602 
L 100.040467 261.022602 
L 100.040467 260.495916 
L 101.506816 260.495916 
L 101.506816 259.96923 
L 105.285403 259.96923 
L 105.285403 259.442544 
L 105.951954 259.442544 
L 105.951954 258.915858 
L 106.168594 258.915858 
L 106.168594 258.389172 
L 111.819788 258.389172 
L 111.819788 257.862486 
L 112.58145 257.862486 
L 112.58145 257.3358 
L 112.877038 257.3358 
L 112.877038 256.809114 
L 117.930605 256.809114 
L 117.930605 256.282427 
L 121.128432 256.282427 
L 121.128432 255.755741 
L 131.690703 255.755741 
L 131.690703 255.229055 
L 138.324456 255.229055 
L 138.324456 254.702369 
L 143.40093 254.702369 
L 143.40093 254.175683 
L 143.653678 254.175683 
L 143.653678 253.648997 
L 145.235796 253.648997 
L 145.235796 253.122311 
L 151.097081 253.122311 
L 151.097081 252.595625 
L 152.826082 252.595625 
L 152.826082 252.068939 
L 153.932113 252.068939 
L 153.932113 251.542253 
L 154.8141 251.542253 
L 154.8141 251.015567 
L 155.386785 251.015567 
L 155.386785 250.488881 
L 155.928852 250.488881 
L 155.928852 249.962195 
L 157.174189 249.962195 
L 157.174189 249.435508 
L 158.9003 249.435508 
L 158.9003 248.908822 
L 159.066985 248.908822 
L 159.066985 248.382136 
L 159.698248 248.382136 
L 159.698248 247.85545 
L 160.268789 247.85545 
L 160.268789 247.328764 
L 161.081824 247.328764 
L 161.081824 246.802078 
L 165.682828 246.802078 
L 165.682828 246.275392 
L 168.010633 246.275392 
L 168.010633 245.748706 
L 170.660731 245.748706 
L 170.703344 244.695334 
L 176.931477 244.695334 
L 176.931477 244.168648 
L 177.696161 244.168648 
L 177.696161 243.641962 
L 178.740203 243.641962 
L 178.740203 243.115275 
L 180.222349 243.115275 
L 180.222349 242.588589 
L 184.060717 242.588589 
L 184.060717 242.061903 
L 184.490674 242.061903 
L 184.490674 241.535217 
L 185.297014 241.535217 
L 185.297014 241.008531 
L 185.877092 241.008531 
L 185.877092 240.481845 
L 186.788874 240.481845 
L 186.788874 239.955159 
L 188.270296 239.955159 
L 188.270296 239.428473 
L 188.528717 239.428473 
L 188.608933 238.375101 
L 188.681193 238.375101 
L 188.745593 237.321729 
L 189.108574 237.321729 
L 189.108574 236.795043 
L 189.498592 236.795043 
L 189.498592 236.268356 
L 189.67694 236.268356 
L 189.67694 235.74167 
L 190.033526 235.74167 
L 190.033526 235.214984 
L 190.393291 235.214984 
L 190.393291 234.688298 
L 192.110391 234.688298 
L 192.110391 234.161612 
L 192.354972 234.161612 
L 192.408691 232.054868 
L 192.508017 232.054868 
L 192.508017 231.528182 
L 192.786156 231.528182 
L 192.857991 229.948123 
L 193.121823 229.948123 
L 193.21279 228.894751 
L 193.34981 228.894751 
L 193.34981 228.368065 
L 193.50448 228.368065 
L 193.56195 227.314693 
L 193.682024 227.314693 
L 193.778625 226.261321 
L 193.828138 226.261321 
L 193.871876 225.207949 
L 194.019209 225.207949 
L 194.019209 224.681263 
L 194.330794 224.681263 
L 194.386977 223.627891 
L 195.792649 223.627891 
L 195.892076 222.574518 
L 196.793307 222.574518 
L 196.793307 222.047832 
L 197.092249 222.047832 
L 197.092249 221.521146 
L 197.255496 221.521146 
L 197.255496 220.99446 
L 197.643434 220.99446 
L 197.643434 220.467774 
L 199.31651 220.467774 
L 199.31651 219.941088 
L 199.438797 219.941088 
L 199.438797 219.414402 
L 203.899647 219.414402 
L 203.994538 218.36103 
L 205.256088 218.36103 
L 205.256088 217.834344 
L 205.963387 217.834344 
L 205.974654 216.780971 
L 208.628604 216.780971 
L 208.628604 216.254285 
L 208.813829 216.254285 
L 208.813829 215.727599 
L 209.364943 215.727599 
L 209.364943 215.200913 
L 209.601542 215.200913 
L 209.601542 214.674227 
L 209.903106 214.674227 
L 209.903106 214.147541 
L 211.717743 214.147541 
L 211.717743 213.620855 
L 213.099795 213.620855 
L 213.099795 213.094169 
L 213.900349 213.094169 
L 213.900349 212.567483 
L 214.033895 212.567483 
L 214.111769 210.987425 
L 216.160031 210.987425 
L 216.160031 210.460738 
L 218.252729 210.460738 
L 218.252729 209.934052 
L 219.13591 209.934052 
L 219.174591 208.353994 
L 219.252354 208.353994 
L 219.252354 207.827308 
L 226.174354 207.827308 
L 226.278604 203.087133 
L 226.286074 203.087133 
L 226.390969 197.820273 
L 226.427829 197.820273 
L 226.525379 194.660156 
L 226.539673 194.660156 
L 226.633372 188.866609 
L 226.661771 188.866609 
L 226.755674 183.073062 
L 227.251657 183.073062 
L 227.284876 182.01969 
L 232.169057 182.01969 
L 232.169057 181.493004 
L 232.286541 181.493004 
L 232.286541 180.966318 
L 232.486097 180.966318 
L 232.57178 178.332888 
L 232.622408 178.332888 
L 232.728692 171.485969 
L 232.746141 171.485969 
L 232.754025 169.379224 
L 234.704184 169.379224 
L 234.704184 168.852538 
L 236.384578 168.852538 
L 236.40168 167.27248 
L 239.05681 167.27248 
L 239.05681 166.745794 
L 239.197963 166.745794 
L 239.297199 161.478933 
L 239.32062 161.478933 
L 239.375768 156.212072 
L 239.454915 156.212072 
L 239.454915 155.685386 
L 240.382954 155.685386 
L 240.382954 155.1587 
L 242.812483 155.1587 
L 242.921301 137.251373 
L 242.926377 137.251373 
L 242.995521 129.351082 
L 243.713496 129.351082 
L 243.81251 118.817361 
L 243.864372 118.817361 
L 243.937488 115.657244 
L 244.008549 115.657244 
L 244.080747 107.756953 
L 245.162682 107.756953 
L 245.270838 100.383348 
L 245.274165 100.383348 
L 245.296997 96.169859 
L 245.761635 96.169859 
L 245.761635 95.643173 
L 247.09978 95.643173 
L 247.156953 91.95637 
L 249.624559 91.95637 
L 249.624559 91.429684 
L 251.099116 91.429684 
L 251.209469 81.949335 
L 252.713736 81.949335 
L 252.810088 79.842591 
L 252.863568 79.842591 
L 252.891394 77.735846 
L 254.11885 77.735846 
L 254.11885 77.20916 
L 255.19287 77.20916 
L 255.252218 72.468985 
L 256.733161 72.468985 
L 256.805562 66.148752 
L 257.133788 66.148752 
L 257.241068 57.721775 
L 257.27428 57.721775 
L 257.311433 53.508287 
L 257.818499 53.508287 
L 257.890199 48.241426 
L 258.778646 48.241426 
L 258.811303 46.661368 
L 260.945384 46.661368 
L 261.002905 44.027937 
L 261.954851 44.027937 
L 261.955135 42.974565 
L 263.4125 42.974565 
L 263.424516 41.921193 
L 264.371871 41.921193 
L 264.408017 39.287762 
L 264.656094 39.287762 
L 264.727777 38.23439 
L 265.099282 38.23439 
L 265.101227 37.181018 
L 265.733906 37.181018 
L 265.733906 36.654332 
L 267.919668 36.654332 
L 267.933829 35.60096 
L 268.465832 35.60096 
L 268.465832 35.074274 
L 268.958658 35.074274 
L 268.958658 34.547588 
L 269.689291 34.547588 
L 269.697111 32.967529 
L 269.862261 32.967529 
L 269.862261 32.440843 
L 271.8107 32.440843 
L 271.8107 31.914157 
L 273.906153 31.914157 
L 273.933962 30.860785 
L 279.907479 30.860785 
L 279.907479 30.334099 
L 338.688 30.334099 
L 338.688 30.334099 
" style="fill:none;stroke:#000080;stroke-linecap:square;stroke-width:1.5;"/>
   </g>
   <g id="line2d_36">
    <defs>
     <path d="M 0 6 
C 1.591219 6 3.117479 5.367802 4.242641 4.242641 
C 5.367802 3.117479 6 1.591219 6 0 
C 6 -1.591219 5.367802 -3.117479 4.242641 -4.242641 
C 3.117479 -5.367802 1.591219 -6 0 -6 
C -1.591219 -6 -3.117479 -5.367802 -4.242641 -4.242641 
C -5.367802 -3.117479 -6 -1.591219 -6 0 
C -6 1.591219 -5.367802 3.117479 -4.242641 4.242641 
C -3.117479 5.367802 -1.591219 6 0 6 
z
" id="m358a8915d7" style="stroke:#000080;stroke-width:1.5;"/>
    </defs>
    <g>
     <use style="fill-opacity:0;stroke:#000080;stroke-width:1.5;" x="88.846997" xlink:href="#m358a8915d7" y="262.075974"/>
     <use style="fill-opacity:0;stroke:#000080;stroke-width:1.5;" x="186.788874" xlink:href="#m358a8915d7" y="240.481845"/>
     <use style="fill-opacity:0;stroke:#000080;stroke-width:1.5;" x="245.233452" xlink:href="#m358a8915d7" y="104.596836"/>
     <use style="fill-opacity:0;stroke:#000080;stroke-width:1.5;" x="279.907479" xlink:href="#m358a8915d7" y="30.860785"/>
     <use style="fill-opacity:0;stroke:#000080;stroke-width:1.5;" x="279.907479" xlink:href="#m358a8915d7" y="30.334099"/>
     <use style="fill-opacity:0;stroke:#000080;stroke-width:1.5;" x="338.688" xlink:href="#m358a8915d7" y="30.334099"/>
    </g>
   </g>
   <g id="line2d_37">
    <path style="fill:none;stroke:#000080;stroke-linecap:square;stroke-width:1.5;"/>
    <g/>
   </g>
   <g id="line2d_38">
    <path clip-path="url(#p02d11e5cd5)" d="M 246.289433 95.643173 
" style="fill:none;stroke:#000080;stroke-linecap:square;stroke-width:1.5;"/>
    <defs>
     <path d="M -12 12 
L 12 -12 
M -12 -12 
L 12 12 
" id="m4695e981ed" style="stroke:#000080;"/>
    </defs>
    <g clip-path="url(#p02d11e5cd5)">
     <use style="fill:#000080;stroke:#000080;" x="246.289433" xlink:href="#m4695e981ed" y="95.643173"/>
    </g>
   </g>
   <g id="line2d_39">
    <defs>
     <path d="M 0 1.5 
C 0.397805 1.5 0.77937 1.341951 1.06066 1.06066 
C 1.341951 0.77937 1.5 0.397805 1.5 0 
C 1.5 -0.397805 1.341951 -0.77937 1.06066 -1.06066 
C 0.77937 -1.341951 0.397805 -1.5 0 -1.5 
C -0.397805 -1.5 -0.77937 -1.341951 -1.06066 -1.06066 
C -1.341951 -0.77937 -1.5 -0.397805 -1.5 0 
C -1.5 0.397805 -1.341951 0.77937 -1.06066 1.06066 
C -0.77937 1.341951 -0.397805 1.5 0 1.5 
z
" id="m4e15d9eb88" style="stroke:#ff00ff;"/>
    </defs>
    <g>
     <use style="fill:#ff00ff;stroke:#ff00ff;" x="318.69834" xlink:href="#m4e15d9eb88" y="183.073062"/>
     <use style="fill:#ff00ff;stroke:#ff00ff;" x="318.69834" xlink:href="#m4e15d9eb88" y="183.073062"/>
    </g>
   </g>
   <g id="line2d_40">
    <path d="M 29.53256 298.944 
L 29.53256 278.403243 
L 41.620548 278.403243 
L 41.620548 276.296499 
L 48.691568 276.296499 
L 48.691568 273.663068 
L 53.708537 273.663068 
L 53.708537 269.976266 
L 57.6 269.976266 
L 57.6 268.396207 
L 60.779557 268.396207 
L 60.779557 267.869521 
L 63.467834 267.869521 
L 63.467834 267.342835 
L 69.687988 267.342835 
L 69.687988 266.816149 
L 72.867545 266.816149 
L 72.867545 266.289463 
L 76.759008 266.289463 
L 76.759008 265.236091 
L 77.884514 265.236091 
L 77.884514 264.182719 
L 79.938565 264.182719 
L 79.938565 263.656033 
L 82.626842 263.656033 
L 82.626842 263.129347 
L 94.294587 263.129347 
L 94.294587 262.60266 
L 98.100772 262.60266 
L 98.100772 262.075974 
L 101.506816 262.075974 
L 101.506816 261.549288 
L 102.060491 261.549288 
L 102.060491 261.022602 
L 102.597126 261.022602 
L 102.597126 260.495916 
L 103.870632 260.495916 
L 103.870632 259.96923 
L 104.826449 259.96923 
L 104.826449 259.442544 
L 105.732589 259.442544 
L 105.732589 258.915858 
L 114.552496 258.915858 
L 114.552496 258.389172 
L 115.460322 258.389172 
L 115.460322 257.862486 
L 116.081002 257.862486 
L 116.081002 257.3358 
L 120.571812 257.3358 
L 120.571812 256.809114 
L 123.029641 256.809114 
L 123.029641 256.282427 
L 123.751369 256.282427 
L 123.751369 255.755741 
L 130.127931 255.755741 
L 130.127931 255.229055 
L 130.926816 255.229055 
L 130.926816 254.702369 
L 136.456742 254.702369 
L 136.456742 254.175683 
L 137.016339 254.175683 
L 137.016339 253.648997 
L 140.073083 253.648997 
L 140.073083 253.122311 
L 144.390658 253.122311 
L 144.390658 252.068939 
L 150.833094 252.068939 
L 150.833094 251.542253 
L 155.703987 251.542253 
L 155.703987 251.015567 
L 157.798506 251.015567 
L 157.798506 250.488881 
L 159.436301 250.488881 
L 159.436301 249.962195 
L 159.738201 249.962195 
L 159.738201 249.435508 
L 166.595075 249.435508 
L 166.595075 248.908822 
L 168.935546 248.908822 
L 168.935546 248.382136 
L 172.782205 248.382136 
L 172.782205 247.85545 
L 175.844889 247.85545 
L 175.844889 246.802078 
L 176.29077 246.802078 
L 176.29077 246.275392 
L 178.652737 246.275392 
L 178.652737 245.748706 
L 182.55027 245.748706 
L 182.55027 245.22202 
L 184.102712 245.22202 
L 184.102712 244.695334 
L 185.027676 244.695334 
L 185.130329 243.641962 
L 185.598525 243.641962 
L 185.598525 243.115275 
L 191.436571 243.115275 
L 191.436571 242.588589 
L 194.665208 242.588589 
L 194.665208 242.061903 
L 195.247807 242.061903 
L 195.247807 241.535217 
L 195.612495 241.535217 
L 195.612495 241.008531 
L 196.767068 241.008531 
L 196.767068 240.481845 
L 197.342325 240.481845 
L 197.342325 239.955159 
L 197.901448 239.955159 
L 197.901448 239.428473 
L 198.132538 239.428473 
L 198.144675 238.375101 
L 199.637349 238.375101 
L 199.637349 237.848415 
L 201.570276 237.848415 
L 201.570276 237.321729 
L 202.706879 237.321729 
L 202.706879 236.795043 
L 203.376486 236.795043 
L 203.376486 236.268356 
L 203.867902 236.268356 
L 203.867902 235.74167 
L 204.726557 235.74167 
L 204.726557 235.214984 
L 208.017673 235.214984 
L 208.017673 234.688298 
L 212.179033 234.688298 
L 212.179033 234.161612 
L 212.496715 234.161612 
L 212.496715 233.634926 
L 213.106811 233.634926 
L 213.106811 233.10824 
L 216.611465 233.10824 
L 216.611465 232.581554 
L 225.525328 232.581554 
L 225.525328 232.054868 
L 225.786533 232.054868 
L 225.798509 231.001496 
L 226.505219 231.001496 
L 226.57017 229.948123 
L 226.888161 229.948123 
L 226.888161 229.421437 
L 227.236688 229.421437 
L 227.236688 228.894751 
L 228.680125 228.894751 
L 228.680125 228.368065 
L 229.719266 228.368065 
L 229.719266 227.841379 
L 234.468096 227.841379 
L 234.468096 227.314693 
L 235.05057 227.314693 
L 235.135275 226.261321 
L 235.264652 226.261321 
L 235.264652 225.734635 
L 235.696234 225.734635 
L 235.696234 225.207949 
L 236.112392 225.207949 
L 236.209148 224.154577 
L 236.354146 224.154577 
L 236.354146 223.627891 
L 236.758808 223.627891 
L 236.758808 223.101204 
L 240.269639 223.101204 
L 240.269639 222.574518 
L 240.639738 222.574518 
L 240.639738 222.047832 
L 244.371493 222.047832 
L 244.371493 221.521146 
L 244.86239 221.521146 
L 244.86239 220.99446 
L 249.574999 220.99446 
L 249.574999 220.467774 
L 251.062122 220.467774 
L 251.062122 219.414402 
L 251.954468 219.414402 
L 251.954468 218.887716 
L 252.19223 218.887716 
L 252.19223 218.36103 
L 253.60607 218.36103 
L 253.677136 216.780971 
L 253.872904 216.780971 
L 253.872904 215.727599 
L 254.10776 215.727599 
L 254.10776 214.674227 
L 255.625825 214.674227 
L 255.625825 214.147541 
L 255.780206 214.147541 
L 255.780206 213.620855 
L 260.870328 213.620855 
L 260.870328 213.094169 
L 260.986516 213.094169 
L 260.986516 212.567483 
L 262.309798 212.567483 
L 262.32232 211.514111 
L 262.479582 211.514111 
L 262.479582 210.987425 
L 262.720992 210.987425 
L 262.720992 210.460738 
L 263.662991 210.460738 
L 263.760523 209.407366 
L 265.012266 209.407366 
L 265.012266 208.88068 
L 267.131577 208.88068 
L 267.131577 208.353994 
L 267.296258 208.353994 
L 267.296258 207.827308 
L 267.44692 207.827308 
L 267.44692 207.300622 
L 268.260346 207.300622 
L 268.287397 205.720564 
L 268.437842 205.720564 
L 268.437842 205.193878 
L 272.549044 205.193878 
L 272.625478 204.140506 
L 272.771956 204.140506 
L 272.822607 203.087133 
L 276.267382 203.087133 
L 276.267382 202.560447 
L 276.666398 202.560447 
L 276.666398 201.507075 
L 279.016188 201.507075 
L 279.016188 200.980389 
L 281.498224 200.980389 
L 281.498224 200.453703 
L 281.610301 200.453703 
L 281.610301 199.400331 
L 285.69445 199.400331 
L 285.69445 198.873645 
L 285.955215 198.873645 
L 285.955215 198.346959 
L 289.194685 198.346959 
L 289.194685 197.820273 
L 290.378446 197.820273 
L 290.420965 195.713528 
L 290.623985 195.713528 
L 290.623985 195.186842 
L 292.997615 195.186842 
L 292.997615 194.660156 
L 293.172889 194.660156 
L 293.172889 194.13347 
L 294.336866 194.13347 
L 294.336866 193.606784 
L 295.41216 193.606784 
L 295.41216 193.080098 
L 297.247271 193.080098 
L 297.247271 192.553412 
L 297.368051 192.553412 
L 297.368051 192.026726 
L 298.276169 192.026726 
L 298.276169 191.50004 
L 301.367538 191.50004 
L 301.367538 190.446667 
L 302.118417 190.446667 
L 302.118417 189.393295 
L 302.823309 189.393295 
L 302.823309 188.339923 
L 304.136189 188.339923 
L 304.227203 187.286551 
L 305.328466 187.286551 
L 305.328466 186.759865 
L 305.44199 186.759865 
L 305.44199 186.233179 
L 306.019057 186.233179 
L 306.019057 185.706493 
L 311.290156 185.706493 
L 311.290156 185.179807 
L 315.701857 185.179807 
L 315.701857 184.653121 
L 316.712195 184.653121 
L 316.712195 184.126434 
L 318.69834 184.126434 
L 318.69834 183.073062 
L 338.688 183.073062 
L 338.688 183.073062 
" style="fill:none;stroke:#ff00ff;stroke-linecap:square;stroke-width:1.5;"/>
   </g>
   <g id="line2d_41">
    <defs>
     <path d="M -0 8.485281 
L 5.091169 0 
L 0 -8.485281 
L -5.091169 -0 
z
" id="m3c5a3455c5" style="stroke:#ff00ff;stroke-linejoin:miter;stroke-width:1.5;"/>
    </defs>
    <g>
     <use style="fill-opacity:0;stroke:#ff00ff;stroke-linejoin:miter;stroke-width:1.5;" x="104.826449" xlink:href="#m3c5a3455c5" y="259.96923"/>
     <use style="fill-opacity:0;stroke:#ff00ff;stroke-linejoin:miter;stroke-width:1.5;" x="159.738201" xlink:href="#m3c5a3455c5" y="249.435508"/>
     <use style="fill-opacity:0;stroke:#ff00ff;stroke-linejoin:miter;stroke-width:1.5;" x="244.86239" xlink:href="#m3c5a3455c5" y="220.99446"/>
     <use style="fill-opacity:0;stroke:#ff00ff;stroke-linejoin:miter;stroke-width:1.5;" x="315.701857" xlink:href="#m3c5a3455c5" y="185.179807"/>
     <use style="fill-opacity:0;stroke:#ff00ff;stroke-linejoin:miter;stroke-width:1.5;" x="318.69834" xlink:href="#m3c5a3455c5" y="183.073062"/>
     <use style="fill-opacity:0;stroke:#ff00ff;stroke-linejoin:miter;stroke-width:1.5;" x="338.688" xlink:href="#m3c5a3455c5" y="183.073062"/>
    </g>
   </g>
   <g id="line2d_42">
    <path style="fill:none;stroke:#ff00ff;stroke-linecap:square;stroke-width:1.5;"/>
    <g/>
   </g>
   <g id="line2d_43">
    <path clip-path="url(#p02d11e5cd5)" d="M 246.289154 220.99446 
" style="fill:none;stroke:#ff00ff;stroke-linecap:square;stroke-width:1.5;"/>
    <defs>
     <path d="M -12 12 
L 12 -12 
M -12 -12 
L 12 12 
" id="mf3435c7c81" style="stroke:#ff00ff;"/>
    </defs>
    <g clip-path="url(#p02d11e5cd5)">
     <use style="fill:#ff00ff;stroke:#ff00ff;" x="246.289154" xlink:href="#mf3435c7c81" y="220.99446"/>
    </g>
   </g>
   <g id="line2d_44">
    <defs>
     <path d="M 0 1.5 
C 0.397805 1.5 0.77937 1.341951 1.06066 1.06066 
C 1.341951 0.77937 1.5 0.397805 1.5 0 
C 1.5 -0.397805 1.341951 -0.77937 1.06066 -1.06066 
C 0.77937 -1.341951 0.397805 -1.5 0 -1.5 
C -0.397805 -1.5 -0.77937 -1.341951 -1.06066 -1.06066 
C -1.341951 -0.77937 -1.5 -0.397805 -1.5 0 
C -1.5 0.397805 -1.341951 0.77937 -1.06066 1.06066 
C -0.77937 1.341951 -0.397805 1.5 0 1.5 
z
" id="m7b2f534a9c" style="stroke:#ff7500;"/>
    </defs>
    <g>
     <use style="fill:#ff7500;stroke:#ff7500;" x="322.664591" xlink:href="#m7b2f534a9c" y="77.735846"/>
     <use style="fill:#ff7500;stroke:#ff7500;" x="322.664591" xlink:href="#m7b2f534a9c" y="77.735846"/>
    </g>
   </g>
   <g id="line2d_45">
    <path d="M 29.53256 298.944 
L 29.53256 276.823185 
L 41.620548 276.823185 
L 41.620548 270.502952 
L 48.691568 270.502952 
L 48.691568 268.396207 
L 53.708537 268.396207 
L 53.708537 265.762777 
L 63.467834 265.762777 
L 63.467834 265.236091 
L 65.796525 265.236091 
L 65.796525 264.182719 
L 67.850577 264.182719 
L 67.850577 263.129347 
L 69.687988 263.129347 
L 69.687988 262.075974 
L 86.351421 262.075974 
L 86.351421 261.022602 
L 95.125186 261.022602 
L 95.125186 260.495916 
L 101.223245 260.495916 
L 101.223245 259.96923 
L 110.188761 259.96923 
L 110.188761 259.442544 
L 111.505558 259.442544 
L 111.505558 258.915858 
L 112.72987 258.915858 
L 112.72987 258.389172 
L 127.421479 258.389172 
L 127.421479 257.862486 
L 128.944197 257.862486 
L 128.944197 257.3358 
L 130.236587 257.3358 
L 130.236587 256.809114 
L 131.185181 256.809114 
L 131.185181 256.282427 
L 136.073445 256.282427 
L 136.073445 255.755741 
L 137.945701 255.755741 
L 137.945701 254.702369 
L 138.358484 254.702369 
L 138.358484 254.175683 
L 143.375453 254.175683 
L 143.375453 253.648997 
L 144.269971 253.648997 
L 144.269971 253.122311 
L 147.530079 253.122311 
L 147.530079 252.595625 
L 149.557321 252.595625 
L 149.557321 252.068939 
L 153.495227 252.068939 
L 153.495227 251.542253 
L 165.739495 251.542253 
L 165.838222 250.488881 
L 167.203791 250.488881 
L 167.203791 249.962195 
L 169.314106 249.962195 
L 169.314106 249.435508 
L 173.344436 249.435508 
L 173.344436 248.908822 
L 177.488292 248.908822 
L 177.488292 248.382136 
L 178.353401 248.382136 
L 178.353401 247.85545 
L 178.857257 247.85545 
L 178.857257 247.328764 
L 181.173027 247.328764 
L 181.173027 246.802078 
L 182.963384 246.802078 
L 182.963384 246.275392 
L 193.224494 246.275392 
L 193.224494 245.748706 
L 198.755881 245.748706 
L 198.755881 245.22202 
L 202.330109 245.22202 
L 202.330109 244.695334 
L 203.602161 244.695334 
L 203.602161 244.168648 
L 206.750503 244.168648 
L 206.750503 243.641962 
L 208.281773 243.641962 
L 208.379559 242.588589 
L 208.596532 242.588589 
L 208.596532 242.061903 
L 209.772804 242.061903 
L 209.772804 241.535217 
L 212.17558 241.535217 
L 212.17558 241.008531 
L 214.182263 241.008531 
L 214.182263 240.481845 
L 216.844767 240.481845 
L 216.844767 239.955159 
L 224.18421 239.955159 
L 224.18421 239.428473 
L 227.735743 239.428473 
L 227.735743 238.901787 
L 228.129459 238.901787 
L 228.129459 238.375101 
L 239.294803 238.375101 
L 239.339126 236.795043 
L 240.176096 236.795043 
L 240.176096 236.268356 
L 240.490383 236.268356 
L 240.538564 235.214984 
L 240.614837 235.214984 
L 240.614837 234.688298 
L 240.730065 234.688298 
L 240.730065 234.161612 
L 240.908567 234.161612 
L 241.007812 232.581554 
L 241.070025 232.581554 
L 241.104899 231.528182 
L 241.291428 231.528182 
L 241.291428 231.001496 
L 241.441936 231.001496 
L 241.460532 228.894751 
L 241.567762 228.894751 
L 241.669974 227.841379 
L 241.683878 227.841379 
L 241.702853 225.734635 
L 241.853285 225.734635 
L 241.960727 223.627891 
L 241.98985 223.627891 
L 242.07906 222.047832 
L 242.155176 222.047832 
L 242.229906 220.467774 
L 242.266316 220.467774 
L 242.361642 217.834344 
L 242.433666 217.834344 
L 242.433666 216.780971 
L 248.595658 216.780971 
L 248.595658 216.254285 
L 249.915942 216.254285 
L 249.915942 214.674227 
L 255.246083 214.674227 
L 255.246083 214.147541 
L 255.737813 214.147541 
L 255.818174 211.514111 
L 255.858801 211.514111 
L 255.962098 210.460738 
L 256.121404 210.460738 
L 256.23058 206.24725 
L 256.234327 206.24725 
L 256.338253 204.667192 
L 256.346875 204.667192 
L 256.432363 202.560447 
L 256.459248 202.560447 
L 256.555729 199.400331 
L 263.72098 199.400331 
L 263.784559 197.820273 
L 263.855221 197.820273 
L 263.885282 195.186842 
L 263.977207 195.186842 
L 264.069228 192.026726 
L 264.115647 192.026726 
L 264.214057 187.286551 
L 264.234685 187.286551 
L 264.248913 186.233179 
L 265.909405 186.233179 
L 265.909405 185.706493 
L 269.186044 185.706493 
L 269.284272 182.546376 
L 269.323882 182.546376 
L 269.426614 177.279515 
L 269.441286 177.279515 
L 269.544196 173.592713 
L 269.573513 173.592713 
L 269.573513 172.539341 
L 273.34094 172.539341 
L 273.405164 169.90591 
L 273.512683 169.90591 
L 273.623778 163.585677 
L 273.62708 163.585677 
L 273.650689 160.952247 
L 276.699985 160.952247 
L 276.73644 157.79213 
L 276.848196 157.79213 
L 276.949899 154.105328 
L 279.518376 154.105328 
L 279.609146 151.471897 
L 279.638583 151.471897 
L 279.723143 148.838467 
L 281.821465 148.838467 
L 281.821465 148.311781 
L 281.936903 148.311781 
L 282.03048 145.678351 
L 282.065307 145.678351 
L 282.108483 143.571606 
L 282.727518 143.571606 
L 282.727518 143.04492 
L 284.070079 143.04492 
L 284.178576 136.198001 
L 284.186534 136.198001 
L 284.216513 132.511199 
L 285.961835 132.511199 
L 286.072591 127.771024 
L 286.089785 127.771024 
L 286.095202 126.717652 
L 287.668523 126.717652 
L 287.778905 122.504163 
L 287.78448 122.504163 
L 287.787749 121.450791 
L 289.211067 121.450791 
L 289.319711 117.763988 
L 289.323704 117.763988 
L 289.328978 116.18393 
L 290.660209 116.18393 
L 290.751896 113.5505 
L 291.969047 113.5505 
L 292.063575 109.863697 
L 293.185931 109.863697 
L 293.283462 105.650209 
L 293.608832 105.650209 
L 293.608832 105.123522 
L 294.371734 105.123522 
L 294.394583 103.543464 
L 295.420276 103.543464 
L 295.49263 101.963406 
L 296.476199 101.963406 
L 296.494669 100.383348 
L 297.381827 100.383348 
L 297.455041 97.749917 
L 298.292925 97.749917 
L 298.357857 96.169859 
L 299.151776 96.169859 
L 299.151776 95.643173 
L 299.982991 95.643173 
L 300.03677 93.009743 
L 300.792584 93.009743 
L 300.81321 91.95637 
L 301.552 91.95637 
L 301.552 91.429684 
L 302.25407 91.429684 
L 302.276189 90.376312 
L 302.944619 90.376312 
L 302.974465 88.796254 
L 303.635613 88.796254 
L 303.635613 88.269568 
L 304.864267 88.269568 
L 304.864267 87.742882 
L 305.464833 87.742882 
L 305.485973 86.162824 
L 306.059738 86.162824 
L 306.061758 85.109451 
L 307.679183 85.109451 
L 307.682607 84.056079 
L 308.187776 84.056079 
L 308.187776 83.529393 
L 310.959711 83.529393 
L 310.966174 82.476021 
L 311.794575 82.476021 
L 311.794575 81.949335 
L 312.201322 81.949335 
L 312.201322 81.422649 
L 313.335517 81.422649 
L 313.359208 80.369277 
L 314.088966 80.369277 
L 314.088966 79.842591 
L 315.787888 79.842591 
L 315.787888 79.315904 
L 320.078724 79.315904 
L 320.078724 78.789218 
L 320.574465 78.789218 
L 320.574465 78.262532 
L 322.664591 78.262532 
L 322.664591 77.735846 
L 338.688 77.735846 
L 338.688 77.735846 
" style="fill:none;stroke:#ff7500;stroke-linecap:square;stroke-width:1.5;"/>
   </g>
   <g id="line2d_46">
    <defs>
     <path d="M 0 -6 
L -1.347084 -1.854102 
L -5.706339 -1.854102 
L -2.179628 0.708204 
L -3.526712 4.854102 
L -0 2.291796 
L 3.526712 4.854102 
L 2.179628 0.708204 
L 5.706339 -1.854102 
L 1.347084 -1.854102 
z
" id="mce5bbaa8f9" style="stroke:#ff7500;stroke-linejoin:bevel;stroke-width:1.5;"/>
    </defs>
    <g>
     <use style="fill-opacity:0;stroke:#ff7500;stroke-linejoin:bevel;stroke-width:1.5;" x="69.687988" xlink:href="#mce5bbaa8f9" y="263.129347"/>
     <use style="fill-opacity:0;stroke:#ff7500;stroke-linejoin:bevel;stroke-width:1.5;" x="153.495227" xlink:href="#mce5bbaa8f9" y="252.068939"/>
     <use style="fill-opacity:0;stroke:#ff7500;stroke-linejoin:bevel;stroke-width:1.5;" x="242.433666" xlink:href="#mce5bbaa8f9" y="216.780971"/>
     <use style="fill-opacity:0;stroke:#ff7500;stroke-linejoin:bevel;stroke-width:1.5;" x="286.072591" xlink:href="#mce5bbaa8f9" y="127.771024"/>
     <use style="fill-opacity:0;stroke:#ff7500;stroke-linejoin:bevel;stroke-width:1.5;" x="322.664591" xlink:href="#mce5bbaa8f9" y="77.735846"/>
     <use style="fill-opacity:0;stroke:#ff7500;stroke-linejoin:bevel;stroke-width:1.5;" x="338.688" xlink:href="#mce5bbaa8f9" y="77.735846"/>
    </g>
   </g>
   <g id="line2d_47">
    <path style="fill:none;stroke:#ff7500;stroke-linecap:square;stroke-width:1.5;"/>
    <g/>
   </g>
   <g id="line2d_48">
    <path clip-path="url(#p02d11e5cd5)" d="M 246.289154 216.780971 
" style="fill:none;stroke:#ff7500;stroke-linecap:square;stroke-width:1.5;"/>
    <defs>
     <path d="M -12 12 
L 12 -12 
M -12 -12 
L 12 12 
" id="m68f9afe293" style="stroke:#ff7500;"/>
    </defs>
    <g clip-path="url(#p02d11e5cd5)">
     <use style="fill:#ff7500;stroke:#ff7500;" x="246.289154" xlink:href="#m68f9afe293" y="216.780971"/>
    </g>
   </g>
   <g id="line2d_49">
    <path d="M 338.688 183.073062 
L 369.60768 293.571802 
" style="fill:none;stroke:#ff00ff;stroke-linecap:square;stroke-width:1.5;"/>
    <g>
     <use style="fill-opacity:0;stroke:#ff00ff;stroke-linejoin:miter;stroke-width:1.5;" x="338.688" xlink:href="#m3c5a3455c5" y="183.073062"/>
     <use style="fill-opacity:0;stroke:#ff00ff;stroke-linejoin:miter;stroke-width:1.5;" x="369.60768" xlink:href="#m3c5a3455c5" y="293.571802"/>
    </g>
   </g>
   <g id="line2d_50">
    <path d="M 338.688 77.735846 
L 369.60768 207.616634 
" style="fill:none;stroke:#ff7500;stroke-linecap:square;stroke-width:1.5;"/>
    <g>
     <use style="fill-opacity:0;stroke:#ff7500;stroke-linejoin:bevel;stroke-width:1.5;" x="338.688" xlink:href="#mce5bbaa8f9" y="77.735846"/>
     <use style="fill-opacity:0;stroke:#ff7500;stroke-linejoin:bevel;stroke-width:1.5;" x="369.60768" xlink:href="#mce5bbaa8f9" y="207.616634"/>
    </g>
   </g>
   <g id="line2d_51">
    <path d="M 338.688 30.334099 
L 369.60768 121.661465 
" style="fill:none;stroke:#000080;stroke-linecap:square;stroke-width:1.5;"/>
    <g>
     <use style="fill-opacity:0;stroke:#000080;stroke-width:1.5;" x="338.688" xlink:href="#m358a8915d7" y="30.334099"/>
     <use style="fill-opacity:0;stroke:#000080;stroke-width:1.5;" x="369.60768" xlink:href="#m358a8915d7" y="121.661465"/>
    </g>
   </g>
   <g id="line2d_52">
    <path d="M 338.688 298.944 
L 338.688 30.334099 
" style="fill:none;stroke:#000000;stroke-linecap:square;stroke-width:1.5;"/>
   </g>
   <g id="patch_3">
    <path d="M 57.6 298.944 
L 57.6 27.648 
" style="fill:none;stroke:#000000;stroke-linecap:square;stroke-linejoin:miter;stroke-width:0.8;"/>
   </g>
   <g id="patch_4">
    <path d="M 338.688 298.944 
L 338.688 27.648 
" style="fill:none;stroke:#000000;stroke-linecap:square;stroke-linejoin:miter;stroke-width:0.8;"/>
   </g>
   <g id="patch_5">
    <path d="M 57.6 298.944 
L 338.688 298.944 
" style="fill:none;stroke:#000000;stroke-linecap:square;stroke-linejoin:miter;stroke-width:0.8;"/>
   </g>
   <g id="patch_6">
    <path d="M 57.6 27.648 
L 338.688 27.648 
" style="fill:none;stroke:#000000;stroke-linecap:square;stroke-linejoin:miter;stroke-width:0.8;"/>
   </g>
   <g id="text_13">
    <!-- PSO -->
    <g transform="translate(375.22944 298.262739)scale(0.17 -0.17)">
     <defs>
      <path d="M 19.671875 64.796875 
L 19.671875 37.40625 
L 32.078125 37.40625 
Q 38.96875 37.40625 42.71875 40.96875 
Q 46.484375 44.53125 46.484375 51.125 
Q 46.484375 57.671875 42.71875 61.234375 
Q 38.96875 64.796875 32.078125 64.796875 
z
M 9.8125 72.90625 
L 32.078125 72.90625 
Q 44.34375 72.90625 50.609375 67.359375 
Q 56.890625 61.8125 56.890625 51.125 
Q 56.890625 40.328125 50.609375 34.8125 
Q 44.34375 29.296875 32.078125 29.296875 
L 19.671875 29.296875 
L 19.671875 0 
L 9.8125 0 
z
" id="DejaVuSans-80"/>
      <path d="M 53.515625 70.515625 
L 53.515625 60.890625 
Q 47.90625 63.578125 42.921875 64.890625 
Q 37.9375 66.21875 33.296875 66.21875 
Q 25.25 66.21875 20.875 63.09375 
Q 16.5 59.96875 16.5 54.203125 
Q 16.5 49.359375 19.40625 46.890625 
Q 22.3125 44.4375 30.421875 42.921875 
L 36.375 41.703125 
Q 47.40625 39.59375 52.65625 34.296875 
Q 57.90625 29 57.90625 20.125 
Q 57.90625 9.515625 50.796875 4.046875 
Q 43.703125 -1.421875 29.984375 -1.421875 
Q 24.8125 -1.421875 18.96875 -0.25 
Q 13.140625 0.921875 6.890625 3.21875 
L 6.890625 13.375 
Q 12.890625 10.015625 18.65625 8.296875 
Q 24.421875 6.59375 29.984375 6.59375 
Q 38.421875 6.59375 43.015625 9.90625 
Q 47.609375 13.234375 47.609375 19.390625 
Q 47.609375 24.75 44.3125 27.78125 
Q 41.015625 30.8125 33.5 32.328125 
L 27.484375 33.5 
Q 16.453125 35.6875 11.515625 40.375 
Q 6.59375 45.0625 6.59375 53.421875 
Q 6.59375 63.09375 13.40625 68.65625 
Q 20.21875 74.21875 32.171875 74.21875 
Q 37.3125 74.21875 42.625 73.28125 
Q 47.953125 72.359375 53.515625 70.515625 
z
" id="DejaVuSans-83"/>
      <path d="M 39.40625 66.21875 
Q 28.65625 66.21875 22.328125 58.203125 
Q 16.015625 50.203125 16.015625 36.375 
Q 16.015625 22.609375 22.328125 14.59375 
Q 28.65625 6.59375 39.40625 6.59375 
Q 50.140625 6.59375 56.421875 14.59375 
Q 62.703125 22.609375 62.703125 36.375 
Q 62.703125 50.203125 56.421875 58.203125 
Q 50.140625 66.21875 39.40625 66.21875 
z
M 39.40625 74.21875 
Q 54.734375 74.21875 63.90625 63.9375 
Q 73.09375 53.65625 73.09375 36.375 
Q 73.09375 19.140625 63.90625 8.859375 
Q 54.734375 -1.421875 39.40625 -1.421875 
Q 24.03125 -1.421875 14.8125 8.828125 
Q 5.609375 19.09375 5.609375 36.375 
Q 5.609375 53.65625 14.8125 63.9375 
Q 24.03125 74.21875 39.40625 74.21875 
z
" id="DejaVuSans-79"/>
     </defs>
     <use xlink:href="#DejaVuSans-80"/>
     <use x="60.302734" xlink:href="#DejaVuSans-83"/>
     <use x="123.779297" xlink:href="#DejaVuSans-79"/>
    </g>
   </g>
   <g id="text_14">
    <!-- DE -->
    <g transform="translate(375.22944 212.307571)scale(0.17 -0.17)">
     <defs>
      <path d="M 19.671875 64.796875 
L 19.671875 8.109375 
L 31.59375 8.109375 
Q 46.6875 8.109375 53.6875 14.9375 
Q 60.6875 21.78125 60.6875 36.53125 
Q 60.6875 51.171875 53.6875 57.984375 
Q 46.6875 64.796875 31.59375 64.796875 
z
M 9.8125 72.90625 
L 30.078125 72.90625 
Q 51.265625 72.90625 61.171875 64.09375 
Q 71.09375 55.28125 71.09375 36.53125 
Q 71.09375 17.671875 61.125 8.828125 
Q 51.171875 0 30.078125 0 
L 9.8125 0 
z
" id="DejaVuSans-68"/>
      <path d="M 9.8125 72.90625 
L 55.90625 72.90625 
L 55.90625 64.59375 
L 19.671875 64.59375 
L 19.671875 43.015625 
L 54.390625 43.015625 
L 54.390625 34.71875 
L 19.671875 34.71875 
L 19.671875 8.296875 
L 56.78125 8.296875 
L 56.78125 0 
L 9.8125 0 
z
" id="DejaVuSans-69"/>
     </defs>
     <use xlink:href="#DejaVuSans-68"/>
     <use x="77.001953" xlink:href="#DejaVuSans-69"/>
    </g>
   </g>
   <g id="text_15">
    <!-- BIPOP-CMA -->
    <g transform="translate(375.22944 126.352403)scale(0.17 -0.17)">
     <defs>
      <path d="M 19.671875 34.8125 
L 19.671875 8.109375 
L 35.5 8.109375 
Q 43.453125 8.109375 47.28125 11.40625 
Q 51.125 14.703125 51.125 21.484375 
Q 51.125 28.328125 47.28125 31.5625 
Q 43.453125 34.8125 35.5 34.8125 
z
M 19.671875 64.796875 
L 19.671875 42.828125 
L 34.28125 42.828125 
Q 41.5 42.828125 45.03125 45.53125 
Q 48.578125 48.25 48.578125 53.8125 
Q 48.578125 59.328125 45.03125 62.0625 
Q 41.5 64.796875 34.28125 64.796875 
z
M 9.8125 72.90625 
L 35.015625 72.90625 
Q 46.296875 72.90625 52.390625 68.21875 
Q 58.5 63.53125 58.5 54.890625 
Q 58.5 48.1875 55.375 44.234375 
Q 52.25 40.28125 46.1875 39.3125 
Q 53.46875 37.75 57.5 32.78125 
Q 61.53125 27.828125 61.53125 20.40625 
Q 61.53125 10.640625 54.890625 5.3125 
Q 48.25 0 35.984375 0 
L 9.8125 0 
z
" id="DejaVuSans-66"/>
      <path d="M 9.8125 72.90625 
L 19.671875 72.90625 
L 19.671875 0 
L 9.8125 0 
z
" id="DejaVuSans-73"/>
      <path d="M 64.40625 67.28125 
L 64.40625 56.890625 
Q 59.421875 61.53125 53.78125 63.8125 
Q 48.140625 66.109375 41.796875 66.109375 
Q 29.296875 66.109375 22.65625 58.46875 
Q 16.015625 50.828125 16.015625 36.375 
Q 16.015625 21.96875 22.65625 14.328125 
Q 29.296875 6.6875 41.796875 6.6875 
Q 48.140625 6.6875 53.78125 8.984375 
Q 59.421875 11.28125 64.40625 15.921875 
L 64.40625 5.609375 
Q 59.234375 2.09375 53.4375 0.328125 
Q 47.65625 -1.421875 41.21875 -1.421875 
Q 24.65625 -1.421875 15.125 8.703125 
Q 5.609375 18.84375 5.609375 36.375 
Q 5.609375 53.953125 15.125 64.078125 
Q 24.65625 74.21875 41.21875 74.21875 
Q 47.75 74.21875 53.53125 72.484375 
Q 59.328125 70.75 64.40625 67.28125 
z
" id="DejaVuSans-67"/>
      <path d="M 9.8125 72.90625 
L 24.515625 72.90625 
L 43.109375 23.296875 
L 61.8125 72.90625 
L 76.515625 72.90625 
L 76.515625 0 
L 66.890625 0 
L 66.890625 64.015625 
L 48.09375 14.015625 
L 38.1875 14.015625 
L 19.390625 64.015625 
L 19.390625 0 
L 9.8125 0 
z
" id="DejaVuSans-77"/>
      <path d="M 34.1875 63.1875 
L 20.796875 26.90625 
L 47.609375 26.90625 
z
M 28.609375 72.90625 
L 39.796875 72.90625 
L 67.578125 0 
L 57.328125 0 
L 50.6875 18.703125 
L 17.828125 18.703125 
L 11.1875 0 
L 0.78125 0 
z
" id="DejaVuSans-65"/>
     </defs>
     <use xlink:href="#DejaVuSans-66"/>
     <use x="68.603516" xlink:href="#DejaVuSans-73"/>
     <use x="98.095703" xlink:href="#DejaVuSans-80"/>
     <use x="158.398438" xlink:href="#DejaVuSans-79"/>
     <use x="237.109375" xlink:href="#DejaVuSans-80"/>
     <use x="295.162109" xlink:href="#DejaVuSans-45"/>
     <use x="331.246094" xlink:href="#DejaVuSans-67"/>
     <use x="401.070312" xlink:href="#DejaVuSans-77"/>
     <use x="487.349609" xlink:href="#DejaVuSans-65"/>
    </g>
   </g>
   <g id="text_16">
    <!-- best 2009 -->
    <g transform="translate(375.22944 40.397235)scale(0.17 -0.17)">
     <defs>
      <path d="M 48.6875 27.296875 
Q 48.6875 37.203125 44.609375 42.84375 
Q 40.53125 48.484375 33.40625 48.484375 
Q 26.265625 48.484375 22.1875 42.84375 
Q 18.109375 37.203125 18.109375 27.296875 
Q 18.109375 17.390625 22.1875 11.75 
Q 26.265625 6.109375 33.40625 6.109375 
Q 40.53125 6.109375 44.609375 11.75 
Q 48.6875 17.390625 48.6875 27.296875 
z
M 18.109375 46.390625 
Q 20.953125 51.265625 25.265625 53.625 
Q 29.59375 56 35.59375 56 
Q 45.5625 56 51.78125 48.09375 
Q 58.015625 40.1875 58.015625 27.296875 
Q 58.015625 14.40625 51.78125 6.484375 
Q 45.5625 -1.421875 35.59375 -1.421875 
Q 29.59375 -1.421875 25.265625 0.953125 
Q 20.953125 3.328125 18.109375 8.203125 
L 18.109375 0 
L 9.078125 0 
L 9.078125 75.984375 
L 18.109375 75.984375 
z
" id="DejaVuSans-98"/>
      <path d="M 10.984375 1.515625 
L 10.984375 10.5 
Q 14.703125 8.734375 18.5 7.8125 
Q 22.3125 6.890625 25.984375 6.890625 
Q 35.75 6.890625 40.890625 13.453125 
Q 46.046875 20.015625 46.78125 33.40625 
Q 43.953125 29.203125 39.59375 26.953125 
Q 35.25 24.703125 29.984375 24.703125 
Q 19.046875 24.703125 12.671875 31.3125 
Q 6.296875 37.9375 6.296875 49.421875 
Q 6.296875 60.640625 12.9375 67.421875 
Q 19.578125 74.21875 30.609375 74.21875 
Q 43.265625 74.21875 49.921875 64.515625 
Q 56.59375 54.828125 56.59375 36.375 
Q 56.59375 19.140625 48.40625 8.859375 
Q 40.234375 -1.421875 26.421875 -1.421875 
Q 22.703125 -1.421875 18.890625 -0.6875 
Q 15.09375 0.046875 10.984375 1.515625 
z
M 30.609375 32.421875 
Q 37.25 32.421875 41.125 36.953125 
Q 45.015625 41.5 45.015625 49.421875 
Q 45.015625 57.28125 41.125 61.84375 
Q 37.25 66.40625 30.609375 66.40625 
Q 23.96875 66.40625 20.09375 61.84375 
Q 16.21875 57.28125 16.21875 49.421875 
Q 16.21875 41.5 20.09375 36.953125 
Q 23.96875 32.421875 30.609375 32.421875 
z
" id="DejaVuSans-57"/>
     </defs>
     <use xlink:href="#DejaVuSans-98"/>
     <use x="63.476562" xlink:href="#DejaVuSans-101"/>
     <use x="125" xlink:href="#DejaVuSans-115"/>
     <use x="177.099609" xlink:href="#DejaVuSans-116"/>
     <use x="216.308594" xlink:href="#DejaVuSans-32"/>
     <use x="248.095703" xlink:href="#DejaVuSans-50"/>
     <use x="311.71875" xlink:href="#DejaVuSans-48"/>
     <use x="375.341797" xlink:href="#DejaVuSans-48"/>
     <use x="438.964844" xlink:href="#DejaVuSans-57"/>
    </g>
   </g>
   <g id="text_17">
    <!-- bbob f23, 5-D -->
    <g transform="translate(60.41088 38.111366)scale(0.102 -0.102)">
     <defs>
      <path d="M 40.578125 39.3125 
Q 47.65625 37.796875 51.625 33 
Q 55.609375 28.21875 55.609375 21.1875 
Q 55.609375 10.40625 48.1875 4.484375 
Q 40.765625 -1.421875 27.09375 -1.421875 
Q 22.515625 -1.421875 17.65625 -0.515625 
Q 12.796875 0.390625 7.625 2.203125 
L 7.625 11.71875 
Q 11.71875 9.328125 16.59375 8.109375 
Q 21.484375 6.890625 26.8125 6.890625 
Q 36.078125 6.890625 40.9375 10.546875 
Q 45.796875 14.203125 45.796875 21.1875 
Q 45.796875 27.640625 41.28125 31.265625 
Q 36.765625 34.90625 28.71875 34.90625 
L 20.21875 34.90625 
L 20.21875 43.015625 
L 29.109375 43.015625 
Q 36.375 43.015625 40.234375 45.921875 
Q 44.09375 48.828125 44.09375 54.296875 
Q 44.09375 59.90625 40.109375 62.90625 
Q 36.140625 65.921875 28.71875 65.921875 
Q 24.65625 65.921875 20.015625 65.03125 
Q 15.375 64.15625 9.8125 62.3125 
L 9.8125 71.09375 
Q 15.4375 72.65625 20.34375 73.4375 
Q 25.25 74.21875 29.59375 74.21875 
Q 40.828125 74.21875 47.359375 69.109375 
Q 53.90625 64.015625 53.90625 55.328125 
Q 53.90625 49.265625 50.4375 45.09375 
Q 46.96875 40.921875 40.578125 39.3125 
z
" id="DejaVuSans-51"/>
      <path d="M 10.796875 72.90625 
L 49.515625 72.90625 
L 49.515625 64.59375 
L 19.828125 64.59375 
L 19.828125 46.734375 
Q 21.96875 47.46875 24.109375 47.828125 
Q 26.265625 48.1875 28.421875 48.1875 
Q 40.625 48.1875 47.75 41.5 
Q 54.890625 34.8125 54.890625 23.390625 
Q 54.890625 11.625 47.5625 5.09375 
Q 40.234375 -1.421875 26.90625 -1.421875 
Q 22.3125 -1.421875 17.546875 -0.640625 
Q 12.796875 0.140625 7.71875 1.703125 
L 7.71875 11.625 
Q 12.109375 9.234375 16.796875 8.0625 
Q 21.484375 6.890625 26.703125 6.890625 
Q 35.15625 6.890625 40.078125 11.328125 
Q 45.015625 15.765625 45.015625 23.390625 
Q 45.015625 31 40.078125 35.4375 
Q 35.15625 39.890625 26.703125 39.890625 
Q 22.75 39.890625 18.8125 39.015625 
Q 14.890625 38.140625 10.796875 36.28125 
z
" id="DejaVuSans-53"/>
     </defs>
     <use xlink:href="#DejaVuSans-98"/>
     <use x="63.476562" xlink:href="#DejaVuSans-98"/>
     <use x="126.953125" xlink:href="#DejaVuSans-111"/>
     <use x="188.134766" xlink:href="#DejaVuSans-98"/>
     <use x="251.611328" xlink:href="#DejaVuSans-32"/>
     <use x="283.398438" xlink:href="#DejaVuSans-102"/>
     <use x="318.603516" xlink:href="#DejaVuSans-50"/>
     <use x="382.226562" xlink:href="#DejaVuSans-51"/>
     <use x="445.849609" xlink:href="#DejaVuSans-44"/>
     <use x="477.636719" xlink:href="#DejaVuSans-32"/>
     <use x="509.423828" xlink:href="#DejaVuSans-53"/>
     <use x="573.046875" xlink:href="#DejaVuSans-45"/>
     <use x="609.130859" xlink:href="#DejaVuSans-68"/>
    </g>
    <!-- 51 targets: 100..1e-08 -->
    <g transform="translate(60.41088 49.533135)scale(0.102 -0.102)">
     <defs>
      <path d="M 11.71875 12.40625 
L 22.015625 12.40625 
L 22.015625 0 
L 11.71875 0 
z
M 11.71875 51.703125 
L 22.015625 51.703125 
L 22.015625 39.3125 
L 11.71875 39.3125 
z
" id="DejaVuSans-58"/>
     </defs>
     <use xlink:href="#DejaVuSans-53"/>
     <use x="63.623047" xlink:href="#DejaVuSans-49"/>
     <use x="127.246094" xlink:href="#DejaVuSans-32"/>
     <use x="159.033203" xlink:href="#DejaVuSans-116"/>
     <use x="198.242188" xlink:href="#DejaVuSans-97"/>
     <use x="259.521484" xlink:href="#DejaVuSans-114"/>
     <use x="298.884766" xlink:href="#DejaVuSans-103"/>
     <use x="362.361328" xlink:href="#DejaVuSans-101"/>
     <use x="423.884766" xlink:href="#DejaVuSans-116"/>
     <use x="463.09375" xlink:href="#DejaVuSans-115"/>
     <use x="515.193359" xlink:href="#DejaVuSans-58"/>
     <use x="548.884766" xlink:href="#DejaVuSans-32"/>
     <use x="580.671875" xlink:href="#DejaVuSans-49"/>
     <use x="644.294922" xlink:href="#DejaVuSans-48"/>
     <use x="707.917969" xlink:href="#DejaVuSans-48"/>
     <use x="771.541016" xlink:href="#DejaVuSans-46"/>
     <use x="803.328125" xlink:href="#DejaVuSans-46"/>
     <use x="835.115234" xlink:href="#DejaVuSans-49"/>
     <use x="898.738281" xlink:href="#DejaVuSans-101"/>
     <use x="960.261719" xlink:href="#DejaVuSans-45"/>
     <use x="996.345703" xlink:href="#DejaVuSans-48"/>
     <use x="1059.96875" xlink:href="#DejaVuSans-56"/>
    </g>
    <!-- 15 instances -->
    <g transform="translate(60.41088 60.954904)scale(0.102 -0.102)">
     <use xlink:href="#DejaVuSans-49"/>
     <use x="63.623047" xlink:href="#DejaVuSans-53"/>
     <use x="127.246094" xlink:href="#DejaVuSans-32"/>
     <use x="159.033203" xlink:href="#DejaVuSans-105"/>
     <use x="186.816406" xlink:href="#DejaVuSans-110"/>
     <use x="250.195312" xlink:href="#DejaVuSans-115"/>
     <use x="302.294922" xlink:href="#DejaVuSans-116"/>
     <use x="341.503906" xlink:href="#DejaVuSans-97"/>
     <use x="402.783203" xlink:href="#DejaVuSans-110"/>
     <use x="466.162109" xlink:href="#DejaVuSans-99"/>
     <use x="521.142578" xlink:href="#DejaVuSans-101"/>
     <use x="582.666016" xlink:href="#DejaVuSans-115"/>
    </g>
   </g>
   <g id="text_18">
    <!-- v2.4 -->
    <g style="fill:#808080;" transform="translate(187.233062 294.151352)scale(0.1 -0.1)">
     <use xlink:href="#DejaVuSans-118"/>
     <use x="59.179688" xlink:href="#DejaVuSans-50"/>
     <use x="122.802734" xlink:href="#DejaVuSans-46"/>
     <use x="154.589844" xlink:href="#DejaVuSans-52"/>
    </g>
   </g>
   <g id="text_19">
    <!-- 23 Katsuuras -->
    <g transform="translate(132.476812 21.648)scale(0.2 -0.2)">
     <defs>
      <path d="M 9.8125 72.90625 
L 19.671875 72.90625 
L 19.671875 42.09375 
L 52.390625 72.90625 
L 65.09375 72.90625 
L 28.90625 38.921875 
L 67.671875 0 
L 54.6875 0 
L 19.671875 35.109375 
L 19.671875 0 
L 9.8125 0 
z
" id="DejaVuSans-75"/>
     </defs>
     <use xlink:href="#DejaVuSans-50"/>
     <use x="63.623047" xlink:href="#DejaVuSans-51"/>
     <use x="127.246094" xlink:href="#DejaVuSans-32"/>
     <use x="159.033203" xlink:href="#DejaVuSans-75"/>
     <use x="222.859375" xlink:href="#DejaVuSans-97"/>
     <use x="284.138672" xlink:href="#DejaVuSans-116"/>
     <use x="323.347656" xlink:href="#DejaVuSans-115"/>
     <use x="375.447266" xlink:href="#DejaVuSans-117"/>
     <use x="438.826172" xlink:href="#DejaVuSans-117"/>
     <use x="502.205078" xlink:href="#DejaVuSans-114"/>
     <use x="543.318359" xlink:href="#DejaVuSans-97"/>
     <use x="604.597656" xlink:href="#DejaVuSans-115"/>
    </g>
   </g>
  </g>
 </g>
 <defs>
  <clipPath id="p02d11e5cd5">
   <rect height="271.296" width="281.088" x="57.6" y="27.648"/>
  </clipPath>
 </defs>
</svg>
