<?xml version="1.0" encoding="utf-8" standalone="no"?>
<!DOCTYPE svg PUBLIC "-//W3C//DTD SVG 1.1//EN"
  "http://www.w3.org/Graphics/SVG/1.1/DTD/svg11.dtd">
<!-- Created with matplotlib (https://matplotlib.org/) -->
<svg height="345.6pt" version="1.1" viewBox="0 0 460.8 345.6" width="460.8pt" xmlns="http://www.w3.org/2000/svg" xmlns:xlink="http://www.w3.org/1999/xlink">
 <metadata>
  <rdf:RDF xmlns:cc="http://creativecommons.org/ns#" xmlns:dc="http://purl.org/dc/elements/1.1/" xmlns:rdf="http://www.w3.org/1999/02/22-rdf-syntax-ns#">
   <cc:Work>
    <dc:type rdf:resource="http://purl.org/dc/dcmitype/StillImage"/>
    <dc:date>2021-05-02T04:46:55.370382</dc:date>
    <dc:format>image/svg+xml</dc:format>
    <dc:creator>
     <cc:Agent>
      <dc:title>Matplotlib v3.3.2, https://matplotlib.org/</dc:title>
     </cc:Agent>
    </dc:creator>
   </cc:Work>
  </rdf:RDF>
 </metadata>
 <defs>
  <style type="text/css">*{stroke-linecap:butt;stroke-linejoin:round;}</style>
 </defs>
 <g id="figure_1">
  <g id="patch_1">
   <path d="M 0 345.6 
L 460.8 345.6 
L 460.8 0 
L 0 0 
z
" style="fill:#ffffff;"/>
  </g>
  <g id="axes_1">
   <g id="patch_2">
    <path d="M 57.6 298.944 
L 338.688 298.944 
L 338.688 3.456 
L 57.6 3.456 
z
" style="fill:#ffffff;"/>
   </g>
   <g id="line2d_1">
    <path d="M 70.329998 298.944 
L 70.329998 240.431525 
L 70.745238 240.431525 
L 70.745238 239.284221 
L 70.949209 239.284221 
L 70.949209 238.136918 
L 71.35013 238.136918 
L 71.35013 236.989614 
L 71.547186 236.989614 
L 71.547186 235.842311 
L 72.125336 235.842311 
L 72.125336 234.695008 
L 73.227131 234.695008 
L 73.227131 233.547704 
L 73.579452 233.547704 
L 73.579452 232.400401 
L 74.263433 232.400401 
L 74.263433 231.253097 
L 75.241593 231.253097 
L 75.241593 230.105794 
L 75.399415 230.105794 
L 75.399415 228.95849 
L 76.16779 228.95849 
L 76.16779 227.811187 
L 76.317484 227.811187 
L 76.317484 225.51658 
L 76.465904 225.51658 
L 76.465904 224.369277 
L 76.613072 224.369277 
L 76.613072 223.221973 
L 76.759008 223.221973 
L 76.759008 218.632759 
L 76.903734 218.632759 
L 76.903734 181.91905 
L 108.294265 181.91905 
L 108.294265 180.771746 
L 109.690152 180.771746 
L 109.799764 164.709498 
L 109.821604 164.709498 
L 109.930396 127.995788 
L 110.081574 127.995788 
L 110.081574 126.848485 
L 110.464402 126.848485 
L 110.464402 125.701181 
L 112.242812 125.701181 
L 112.242812 124.553878 
L 114.368483 124.553878 
L 114.368483 123.406574 
L 116.739166 123.406574 
L 116.739166 122.259271 
L 143.044063 122.259271 
L 143.044063 121.111967 
L 145.921099 121.111967 
L 145.921099 119.964664 
L 148.015498 119.964664 
L 148.015498 118.817361 
L 150.546047 118.817361 
L 150.546047 117.670057 
L 152.212989 117.670057 
L 152.212989 116.522754 
L 155.117428 116.522754 
L 155.117428 115.37545 
L 156.222706 115.37545 
L 156.222706 114.228147 
L 159.326836 114.228147 
L 159.326836 113.080843 
L 161.137157 113.080843 
L 161.137157 111.93354 
L 161.562388 111.93354 
L 161.673235 87.840168 
L 161.689969 87.840168 
L 161.793361 22.443872 
L 161.805549 22.443872 
L 161.812194 16.707355 
L 196.594642 16.707355 
L 196.595094 14.412748 
L 212.15102 14.412748 
L 212.151082 10.970838 
L 225.744553 10.970838 
L 225.746224 6.381624 
L 338.688 6.381624 
L 338.688 6.381624 
" style="fill:none;stroke:#f5deb3;stroke-linecap:square;stroke-width:4;"/>
   </g>
   <g id="line2d_2">
    <defs>
     <path d="M -0 7.778175 
L 7.778175 0 
L 0 -7.778175 
L -7.778175 -0 
z
" id="m4e3bf322e9" style="stroke:#f5deb3;stroke-linejoin:miter;stroke-width:1.5;"/>
    </defs>
    <g>
     <use style="fill:#f5deb3;stroke:#f5deb3;stroke-linejoin:miter;stroke-width:1.5;" x="108.294265" xlink:href="#m4e3bf322e9" y="181.91905"/>
     <use style="fill:#f5deb3;stroke:#f5deb3;stroke-linejoin:miter;stroke-width:1.5;" x="161.809979" xlink:href="#m4e3bf322e9" y="21.296568"/>
     <use style="fill:#f5deb3;stroke:#f5deb3;stroke-linejoin:miter;stroke-width:1.5;" x="225.746224" xlink:href="#m4e3bf322e9" y="6.381624"/>
     <use style="fill:#f5deb3;stroke:#f5deb3;stroke-linejoin:miter;stroke-width:1.5;" x="225.746224" xlink:href="#m4e3bf322e9" y="6.381624"/>
     <use style="fill:#f5deb3;stroke:#f5deb3;stroke-linejoin:miter;stroke-width:1.5;" x="338.688" xlink:href="#m4e3bf322e9" y="6.381624"/>
    </g>
   </g>
   <g id="line2d_3">
    <path style="fill:none;stroke:#f5deb3;stroke-linecap:square;stroke-width:4;"/>
    <g/>
   </g>
   <g id="line2d_4">
    <path d="M 338.688 6.381624 
L 369.60768 12.232871 
" style="fill:none;stroke:#f5deb3;stroke-linecap:square;stroke-width:4;"/>
    <g>
     <use style="fill:#f5deb3;stroke:#f5deb3;stroke-linejoin:miter;stroke-width:1.5;" x="338.688" xlink:href="#m4e3bf322e9" y="6.381624"/>
     <use style="fill:#f5deb3;stroke:#f5deb3;stroke-linejoin:miter;stroke-width:1.5;" x="369.60768" xlink:href="#m4e3bf322e9" y="12.232871"/>
    </g>
   </g>
   <g id="matplotlib.axis_1">
    <g id="xtick_1">
     <g id="line2d_5">
      <path clip-path="url(#p5d108aba19)" d="M 57.6 298.944 
L 57.6 3.456 
" style="fill:none;stroke:#b0b0b0;stroke-linecap:square;stroke-width:0.8;"/>
     </g>
     <g id="line2d_6">
      <defs>
       <path d="M 0 0 
L 0 3.5 
" id="mda1f82191a" style="stroke:#000000;stroke-width:0.8;"/>
      </defs>
      <g>
       <use style="stroke:#000000;stroke-width:0.8;" x="57.6" xlink:href="#mda1f82191a" y="298.944"/>
      </g>
     </g>
     <g id="text_1">
      <!-- 0 -->
      <g transform="translate(51.2375 321.140875)scale(0.2 -0.2)">
       <defs>
        <path d="M 31.78125 66.40625 
Q 24.171875 66.40625 20.328125 58.90625 
Q 16.5 51.421875 16.5 36.375 
Q 16.5 21.390625 20.328125 13.890625 
Q 24.171875 6.390625 31.78125 6.390625 
Q 39.453125 6.390625 43.28125 13.890625 
Q 47.125 21.390625 47.125 36.375 
Q 47.125 51.421875 43.28125 58.90625 
Q 39.453125 66.40625 31.78125 66.40625 
z
M 31.78125 74.21875 
Q 44.046875 74.21875 50.515625 64.515625 
Q 56.984375 54.828125 56.984375 36.375 
Q 56.984375 17.96875 50.515625 8.265625 
Q 44.046875 -1.421875 31.78125 -1.421875 
Q 19.53125 -1.421875 13.0625 8.265625 
Q 6.59375 17.96875 6.59375 36.375 
Q 6.59375 54.828125 13.0625 64.515625 
Q 19.53125 74.21875 31.78125 74.21875 
z
" id="DejaVuSans-48"/>
       </defs>
       <use xlink:href="#DejaVuSans-48"/>
      </g>
     </g>
    </g>
    <g id="xtick_2">
     <g id="line2d_7">
      <path clip-path="url(#p5d108aba19)" d="M 137.910857 298.944 
L 137.910857 3.456 
" style="fill:none;stroke:#b0b0b0;stroke-linecap:square;stroke-width:0.8;"/>
     </g>
     <g id="line2d_8">
      <g>
       <use style="stroke:#000000;stroke-width:0.8;" x="137.910857" xlink:href="#mda1f82191a" y="298.944"/>
      </g>
     </g>
     <g id="text_2">
      <!-- 2 -->
      <g transform="translate(131.548357 321.140875)scale(0.2 -0.2)">
       <defs>
        <path d="M 19.1875 8.296875 
L 53.609375 8.296875 
L 53.609375 0 
L 7.328125 0 
L 7.328125 8.296875 
Q 12.9375 14.109375 22.625 23.890625 
Q 32.328125 33.6875 34.8125 36.53125 
Q 39.546875 41.84375 41.421875 45.53125 
Q 43.3125 49.21875 43.3125 52.78125 
Q 43.3125 58.59375 39.234375 62.25 
Q 35.15625 65.921875 28.609375 65.921875 
Q 23.96875 65.921875 18.8125 64.3125 
Q 13.671875 62.703125 7.8125 59.421875 
L 7.8125 69.390625 
Q 13.765625 71.78125 18.9375 73 
Q 24.125 74.21875 28.421875 74.21875 
Q 39.75 74.21875 46.484375 68.546875 
Q 53.21875 62.890625 53.21875 53.421875 
Q 53.21875 48.921875 51.53125 44.890625 
Q 49.859375 40.875 45.40625 35.40625 
Q 44.1875 33.984375 37.640625 27.21875 
Q 31.109375 20.453125 19.1875 8.296875 
z
" id="DejaVuSans-50"/>
       </defs>
       <use xlink:href="#DejaVuSans-50"/>
      </g>
     </g>
    </g>
    <g id="xtick_3">
     <g id="line2d_9">
      <path clip-path="url(#p5d108aba19)" d="M 218.221714 298.944 
L 218.221714 3.456 
" style="fill:none;stroke:#b0b0b0;stroke-linecap:square;stroke-width:0.8;"/>
     </g>
     <g id="line2d_10">
      <g>
       <use style="stroke:#000000;stroke-width:0.8;" x="218.221714" xlink:href="#mda1f82191a" y="298.944"/>
      </g>
     </g>
     <g id="text_3">
      <!-- 4 -->
      <g transform="translate(211.859214 321.140875)scale(0.2 -0.2)">
       <defs>
        <path d="M 37.796875 64.3125 
L 12.890625 25.390625 
L 37.796875 25.390625 
z
M 35.203125 72.90625 
L 47.609375 72.90625 
L 47.609375 25.390625 
L 58.015625 25.390625 
L 58.015625 17.1875 
L 47.609375 17.1875 
L 47.609375 0 
L 37.796875 0 
L 37.796875 17.1875 
L 4.890625 17.1875 
L 4.890625 26.703125 
z
" id="DejaVuSans-52"/>
       </defs>
       <use xlink:href="#DejaVuSans-52"/>
      </g>
     </g>
    </g>
    <g id="xtick_4">
     <g id="line2d_11">
      <path clip-path="url(#p5d108aba19)" d="M 298.532571 298.944 
L 298.532571 3.456 
" style="fill:none;stroke:#b0b0b0;stroke-linecap:square;stroke-width:0.8;"/>
     </g>
     <g id="line2d_12">
      <g>
       <use style="stroke:#000000;stroke-width:0.8;" x="298.532571" xlink:href="#mda1f82191a" y="298.944"/>
      </g>
     </g>
     <g id="text_4">
      <!-- 6 -->
      <g transform="translate(292.170071 321.140875)scale(0.2 -0.2)">
       <defs>
        <path d="M 33.015625 40.375 
Q 26.375 40.375 22.484375 35.828125 
Q 18.609375 31.296875 18.609375 23.390625 
Q 18.609375 15.53125 22.484375 10.953125 
Q 26.375 6.390625 33.015625 6.390625 
Q 39.65625 6.390625 43.53125 10.953125 
Q 47.40625 15.53125 47.40625 23.390625 
Q 47.40625 31.296875 43.53125 35.828125 
Q 39.65625 40.375 33.015625 40.375 
z
M 52.59375 71.296875 
L 52.59375 62.3125 
Q 48.875 64.0625 45.09375 64.984375 
Q 41.3125 65.921875 37.59375 65.921875 
Q 27.828125 65.921875 22.671875 59.328125 
Q 17.53125 52.734375 16.796875 39.40625 
Q 19.671875 43.65625 24.015625 45.921875 
Q 28.375 48.1875 33.59375 48.1875 
Q 44.578125 48.1875 50.953125 41.515625 
Q 57.328125 34.859375 57.328125 23.390625 
Q 57.328125 12.15625 50.6875 5.359375 
Q 44.046875 -1.421875 33.015625 -1.421875 
Q 20.359375 -1.421875 13.671875 8.265625 
Q 6.984375 17.96875 6.984375 36.375 
Q 6.984375 53.65625 15.1875 63.9375 
Q 23.390625 74.21875 37.203125 74.21875 
Q 40.921875 74.21875 44.703125 73.484375 
Q 48.484375 72.75 52.59375 71.296875 
z
" id="DejaVuSans-54"/>
       </defs>
       <use xlink:href="#DejaVuSans-54"/>
      </g>
     </g>
    </g>
    <g id="xtick_5">
     <g id="line2d_13">
      <path clip-path="url(#p5d108aba19)" d="M 97.755429 298.944 
L 97.755429 3.456 
" style="fill:none;stroke:#b0b0b0;stroke-linecap:square;stroke-width:0.8;"/>
     </g>
     <g id="line2d_14">
      <defs>
       <path d="M 0 0 
L 0 2 
" id="mf7f1fd93c7" style="stroke:#000000;stroke-width:0.6;"/>
      </defs>
      <g>
       <use style="stroke:#000000;stroke-width:0.6;" x="97.755429" xlink:href="#mf7f1fd93c7" y="298.944"/>
      </g>
     </g>
    </g>
    <g id="xtick_6">
     <g id="line2d_15">
      <path clip-path="url(#p5d108aba19)" d="M 178.066286 298.944 
L 178.066286 3.456 
" style="fill:none;stroke:#b0b0b0;stroke-linecap:square;stroke-width:0.8;"/>
     </g>
     <g id="line2d_16">
      <g>
       <use style="stroke:#000000;stroke-width:0.6;" x="178.066286" xlink:href="#mf7f1fd93c7" y="298.944"/>
      </g>
     </g>
    </g>
    <g id="xtick_7">
     <g id="line2d_17">
      <path clip-path="url(#p5d108aba19)" d="M 258.377143 298.944 
L 258.377143 3.456 
" style="fill:none;stroke:#b0b0b0;stroke-linecap:square;stroke-width:0.8;"/>
     </g>
     <g id="line2d_18">
      <g>
       <use style="stroke:#000000;stroke-width:0.6;" x="258.377143" xlink:href="#mf7f1fd93c7" y="298.944"/>
      </g>
     </g>
    </g>
    <g id="xtick_8">
     <g id="line2d_19">
      <path clip-path="url(#p5d108aba19)" d="M 338.688 298.944 
L 338.688 3.456 
" style="fill:none;stroke:#b0b0b0;stroke-linecap:square;stroke-width:0.8;"/>
     </g>
     <g id="line2d_20">
      <g>
       <use style="stroke:#000000;stroke-width:0.6;" x="338.688" xlink:href="#mf7f1fd93c7" y="298.944"/>
      </g>
     </g>
    </g>
    <g id="text_5">
     <!-- log10(# f-evals / dimension) -->
     <g transform="translate(77.764078 342.217594)scale(0.17 -0.17)">
      <defs>
       <path d="M 9.421875 75.984375 
L 18.40625 75.984375 
L 18.40625 0 
L 9.421875 0 
z
" id="DejaVuSans-108"/>
       <path d="M 30.609375 48.390625 
Q 23.390625 48.390625 19.1875 42.75 
Q 14.984375 37.109375 14.984375 27.296875 
Q 14.984375 17.484375 19.15625 11.84375 
Q 23.34375 6.203125 30.609375 6.203125 
Q 37.796875 6.203125 41.984375 11.859375 
Q 46.1875 17.53125 46.1875 27.296875 
Q 46.1875 37.015625 41.984375 42.703125 
Q 37.796875 48.390625 30.609375 48.390625 
z
M 30.609375 56 
Q 42.328125 56 49.015625 48.375 
Q 55.71875 40.765625 55.71875 27.296875 
Q 55.71875 13.875 49.015625 6.21875 
Q 42.328125 -1.421875 30.609375 -1.421875 
Q 18.84375 -1.421875 12.171875 6.21875 
Q 5.515625 13.875 5.515625 27.296875 
Q 5.515625 40.765625 12.171875 48.375 
Q 18.84375 56 30.609375 56 
z
" id="DejaVuSans-111"/>
       <path d="M 45.40625 27.984375 
Q 45.40625 37.75 41.375 43.109375 
Q 37.359375 48.484375 30.078125 48.484375 
Q 22.859375 48.484375 18.828125 43.109375 
Q 14.796875 37.75 14.796875 27.984375 
Q 14.796875 18.265625 18.828125 12.890625 
Q 22.859375 7.515625 30.078125 7.515625 
Q 37.359375 7.515625 41.375 12.890625 
Q 45.40625 18.265625 45.40625 27.984375 
z
M 54.390625 6.78125 
Q 54.390625 -7.171875 48.1875 -13.984375 
Q 42 -20.796875 29.203125 -20.796875 
Q 24.46875 -20.796875 20.265625 -20.09375 
Q 16.0625 -19.390625 12.109375 -17.921875 
L 12.109375 -9.1875 
Q 16.0625 -11.328125 19.921875 -12.34375 
Q 23.78125 -13.375 27.78125 -13.375 
Q 36.625 -13.375 41.015625 -8.765625 
Q 45.40625 -4.15625 45.40625 5.171875 
L 45.40625 9.625 
Q 42.625 4.78125 38.28125 2.390625 
Q 33.9375 0 27.875 0 
Q 17.828125 0 11.671875 7.65625 
Q 5.515625 15.328125 5.515625 27.984375 
Q 5.515625 40.671875 11.671875 48.328125 
Q 17.828125 56 27.875 56 
Q 33.9375 56 38.28125 53.609375 
Q 42.625 51.21875 45.40625 46.390625 
L 45.40625 54.6875 
L 54.390625 54.6875 
z
" id="DejaVuSans-103"/>
       <path d="M 12.40625 8.296875 
L 28.515625 8.296875 
L 28.515625 63.921875 
L 10.984375 60.40625 
L 10.984375 69.390625 
L 28.421875 72.90625 
L 38.28125 72.90625 
L 38.28125 8.296875 
L 54.390625 8.296875 
L 54.390625 0 
L 12.40625 0 
z
" id="DejaVuSans-49"/>
       <path d="M 31 75.875 
Q 24.46875 64.65625 21.28125 53.65625 
Q 18.109375 42.671875 18.109375 31.390625 
Q 18.109375 20.125 21.3125 9.0625 
Q 24.515625 -2 31 -13.1875 
L 23.1875 -13.1875 
Q 15.875 -1.703125 12.234375 9.375 
Q 8.59375 20.453125 8.59375 31.390625 
Q 8.59375 42.28125 12.203125 53.3125 
Q 15.828125 64.359375 23.1875 75.875 
z
" id="DejaVuSans-40"/>
       <path d="M 51.125 44 
L 36.921875 44 
L 32.8125 27.6875 
L 47.125 27.6875 
z
M 43.796875 71.78125 
L 38.71875 51.515625 
L 52.984375 51.515625 
L 58.109375 71.78125 
L 65.921875 71.78125 
L 60.890625 51.515625 
L 76.125 51.515625 
L 76.125 44 
L 58.984375 44 
L 54.984375 27.6875 
L 70.515625 27.6875 
L 70.515625 20.21875 
L 53.078125 20.21875 
L 48 0 
L 40.1875 0 
L 45.21875 20.21875 
L 30.90625 20.21875 
L 25.875 0 
L 18.015625 0 
L 23.09375 20.21875 
L 7.71875 20.21875 
L 7.71875 27.6875 
L 24.90625 27.6875 
L 29 44 
L 13.28125 44 
L 13.28125 51.515625 
L 30.90625 51.515625 
L 35.890625 71.78125 
z
" id="DejaVuSans-35"/>
       <path id="DejaVuSans-32"/>
       <path d="M 37.109375 75.984375 
L 37.109375 68.5 
L 28.515625 68.5 
Q 23.6875 68.5 21.796875 66.546875 
Q 19.921875 64.59375 19.921875 59.515625 
L 19.921875 54.6875 
L 34.71875 54.6875 
L 34.71875 47.703125 
L 19.921875 47.703125 
L 19.921875 0 
L 10.890625 0 
L 10.890625 47.703125 
L 2.296875 47.703125 
L 2.296875 54.6875 
L 10.890625 54.6875 
L 10.890625 58.5 
Q 10.890625 67.625 15.140625 71.796875 
Q 19.390625 75.984375 28.609375 75.984375 
z
" id="DejaVuSans-102"/>
       <path d="M 4.890625 31.390625 
L 31.203125 31.390625 
L 31.203125 23.390625 
L 4.890625 23.390625 
z
" id="DejaVuSans-45"/>
       <path d="M 56.203125 29.59375 
L 56.203125 25.203125 
L 14.890625 25.203125 
Q 15.484375 15.921875 20.484375 11.0625 
Q 25.484375 6.203125 34.421875 6.203125 
Q 39.59375 6.203125 44.453125 7.46875 
Q 49.3125 8.734375 54.109375 11.28125 
L 54.109375 2.78125 
Q 49.265625 0.734375 44.1875 -0.34375 
Q 39.109375 -1.421875 33.890625 -1.421875 
Q 20.796875 -1.421875 13.15625 6.1875 
Q 5.515625 13.8125 5.515625 26.8125 
Q 5.515625 40.234375 12.765625 48.109375 
Q 20.015625 56 32.328125 56 
Q 43.359375 56 49.78125 48.890625 
Q 56.203125 41.796875 56.203125 29.59375 
z
M 47.21875 32.234375 
Q 47.125 39.59375 43.09375 43.984375 
Q 39.0625 48.390625 32.421875 48.390625 
Q 24.90625 48.390625 20.390625 44.140625 
Q 15.875 39.890625 15.1875 32.171875 
z
" id="DejaVuSans-101"/>
       <path d="M 2.984375 54.6875 
L 12.5 54.6875 
L 29.59375 8.796875 
L 46.6875 54.6875 
L 56.203125 54.6875 
L 35.6875 0 
L 23.484375 0 
z
" id="DejaVuSans-118"/>
       <path d="M 34.28125 27.484375 
Q 23.390625 27.484375 19.1875 25 
Q 14.984375 22.515625 14.984375 16.5 
Q 14.984375 11.71875 18.140625 8.90625 
Q 21.296875 6.109375 26.703125 6.109375 
Q 34.1875 6.109375 38.703125 11.40625 
Q 43.21875 16.703125 43.21875 25.484375 
L 43.21875 27.484375 
z
M 52.203125 31.203125 
L 52.203125 0 
L 43.21875 0 
L 43.21875 8.296875 
Q 40.140625 3.328125 35.546875 0.953125 
Q 30.953125 -1.421875 24.3125 -1.421875 
Q 15.921875 -1.421875 10.953125 3.296875 
Q 6 8.015625 6 15.921875 
Q 6 25.140625 12.171875 29.828125 
Q 18.359375 34.515625 30.609375 34.515625 
L 43.21875 34.515625 
L 43.21875 35.40625 
Q 43.21875 41.609375 39.140625 45 
Q 35.0625 48.390625 27.6875 48.390625 
Q 23 48.390625 18.546875 47.265625 
Q 14.109375 46.140625 10.015625 43.890625 
L 10.015625 52.203125 
Q 14.9375 54.109375 19.578125 55.046875 
Q 24.21875 56 28.609375 56 
Q 40.484375 56 46.34375 49.84375 
Q 52.203125 43.703125 52.203125 31.203125 
z
" id="DejaVuSans-97"/>
       <path d="M 44.28125 53.078125 
L 44.28125 44.578125 
Q 40.484375 46.53125 36.375 47.5 
Q 32.28125 48.484375 27.875 48.484375 
Q 21.1875 48.484375 17.84375 46.4375 
Q 14.5 44.390625 14.5 40.28125 
Q 14.5 37.15625 16.890625 35.375 
Q 19.28125 33.59375 26.515625 31.984375 
L 29.59375 31.296875 
Q 39.15625 29.25 43.1875 25.515625 
Q 47.21875 21.78125 47.21875 15.09375 
Q 47.21875 7.46875 41.1875 3.015625 
Q 35.15625 -1.421875 24.609375 -1.421875 
Q 20.21875 -1.421875 15.453125 -0.5625 
Q 10.6875 0.296875 5.421875 2 
L 5.421875 11.28125 
Q 10.40625 8.6875 15.234375 7.390625 
Q 20.0625 6.109375 24.8125 6.109375 
Q 31.15625 6.109375 34.5625 8.28125 
Q 37.984375 10.453125 37.984375 14.40625 
Q 37.984375 18.0625 35.515625 20.015625 
Q 33.0625 21.96875 24.703125 23.78125 
L 21.578125 24.515625 
Q 13.234375 26.265625 9.515625 29.90625 
Q 5.8125 33.546875 5.8125 39.890625 
Q 5.8125 47.609375 11.28125 51.796875 
Q 16.75 56 26.8125 56 
Q 31.78125 56 36.171875 55.265625 
Q 40.578125 54.546875 44.28125 53.078125 
z
" id="DejaVuSans-115"/>
       <path d="M 25.390625 72.90625 
L 33.6875 72.90625 
L 8.296875 -9.28125 
L 0 -9.28125 
z
" id="DejaVuSans-47"/>
       <path d="M 45.40625 46.390625 
L 45.40625 75.984375 
L 54.390625 75.984375 
L 54.390625 0 
L 45.40625 0 
L 45.40625 8.203125 
Q 42.578125 3.328125 38.25 0.953125 
Q 33.9375 -1.421875 27.875 -1.421875 
Q 17.96875 -1.421875 11.734375 6.484375 
Q 5.515625 14.40625 5.515625 27.296875 
Q 5.515625 40.1875 11.734375 48.09375 
Q 17.96875 56 27.875 56 
Q 33.9375 56 38.25 53.625 
Q 42.578125 51.265625 45.40625 46.390625 
z
M 14.796875 27.296875 
Q 14.796875 17.390625 18.875 11.75 
Q 22.953125 6.109375 30.078125 6.109375 
Q 37.203125 6.109375 41.296875 11.75 
Q 45.40625 17.390625 45.40625 27.296875 
Q 45.40625 37.203125 41.296875 42.84375 
Q 37.203125 48.484375 30.078125 48.484375 
Q 22.953125 48.484375 18.875 42.84375 
Q 14.796875 37.203125 14.796875 27.296875 
z
" id="DejaVuSans-100"/>
       <path d="M 9.421875 54.6875 
L 18.40625 54.6875 
L 18.40625 0 
L 9.421875 0 
z
M 9.421875 75.984375 
L 18.40625 75.984375 
L 18.40625 64.59375 
L 9.421875 64.59375 
z
" id="DejaVuSans-105"/>
       <path d="M 52 44.1875 
Q 55.375 50.25 60.0625 53.125 
Q 64.75 56 71.09375 56 
Q 79.640625 56 84.28125 50.015625 
Q 88.921875 44.046875 88.921875 33.015625 
L 88.921875 0 
L 79.890625 0 
L 79.890625 32.71875 
Q 79.890625 40.578125 77.09375 44.375 
Q 74.3125 48.1875 68.609375 48.1875 
Q 61.625 48.1875 57.5625 43.546875 
Q 53.515625 38.921875 53.515625 30.90625 
L 53.515625 0 
L 44.484375 0 
L 44.484375 32.71875 
Q 44.484375 40.625 41.703125 44.40625 
Q 38.921875 48.1875 33.109375 48.1875 
Q 26.21875 48.1875 22.15625 43.53125 
Q 18.109375 38.875 18.109375 30.90625 
L 18.109375 0 
L 9.078125 0 
L 9.078125 54.6875 
L 18.109375 54.6875 
L 18.109375 46.1875 
Q 21.1875 51.21875 25.484375 53.609375 
Q 29.78125 56 35.6875 56 
Q 41.65625 56 45.828125 52.96875 
Q 50 49.953125 52 44.1875 
z
" id="DejaVuSans-109"/>
       <path d="M 54.890625 33.015625 
L 54.890625 0 
L 45.90625 0 
L 45.90625 32.71875 
Q 45.90625 40.484375 42.875 44.328125 
Q 39.84375 48.1875 33.796875 48.1875 
Q 26.515625 48.1875 22.3125 43.546875 
Q 18.109375 38.921875 18.109375 30.90625 
L 18.109375 0 
L 9.078125 0 
L 9.078125 54.6875 
L 18.109375 54.6875 
L 18.109375 46.1875 
Q 21.34375 51.125 25.703125 53.5625 
Q 30.078125 56 35.796875 56 
Q 45.21875 56 50.046875 50.171875 
Q 54.890625 44.34375 54.890625 33.015625 
z
" id="DejaVuSans-110"/>
       <path d="M 8.015625 75.875 
L 15.828125 75.875 
Q 23.140625 64.359375 26.78125 53.3125 
Q 30.421875 42.28125 30.421875 31.390625 
Q 30.421875 20.453125 26.78125 9.375 
Q 23.140625 -1.703125 15.828125 -13.1875 
L 8.015625 -13.1875 
Q 14.5 -2 17.703125 9.0625 
Q 20.90625 20.125 20.90625 31.390625 
Q 20.90625 42.671875 17.703125 53.65625 
Q 14.5 64.65625 8.015625 75.875 
z
" id="DejaVuSans-41"/>
      </defs>
      <use xlink:href="#DejaVuSans-108"/>
      <use x="27.783203" xlink:href="#DejaVuSans-111"/>
      <use x="88.964844" xlink:href="#DejaVuSans-103"/>
      <use x="152.441406" xlink:href="#DejaVuSans-49"/>
      <use x="216.064453" xlink:href="#DejaVuSans-48"/>
      <use x="279.6875" xlink:href="#DejaVuSans-40"/>
      <use x="318.701172" xlink:href="#DejaVuSans-35"/>
      <use x="402.490234" xlink:href="#DejaVuSans-32"/>
      <use x="434.277344" xlink:href="#DejaVuSans-102"/>
      <use x="463.982422" xlink:href="#DejaVuSans-45"/>
      <use x="500.066406" xlink:href="#DejaVuSans-101"/>
      <use x="561.589844" xlink:href="#DejaVuSans-118"/>
      <use x="620.769531" xlink:href="#DejaVuSans-97"/>
      <use x="682.048828" xlink:href="#DejaVuSans-108"/>
      <use x="709.832031" xlink:href="#DejaVuSans-115"/>
      <use x="761.931641" xlink:href="#DejaVuSans-32"/>
      <use x="793.71875" xlink:href="#DejaVuSans-47"/>
      <use x="827.410156" xlink:href="#DejaVuSans-32"/>
      <use x="859.197266" xlink:href="#DejaVuSans-100"/>
      <use x="922.673828" xlink:href="#DejaVuSans-105"/>
      <use x="950.457031" xlink:href="#DejaVuSans-109"/>
      <use x="1047.869141" xlink:href="#DejaVuSans-101"/>
      <use x="1109.392578" xlink:href="#DejaVuSans-110"/>
      <use x="1172.771484" xlink:href="#DejaVuSans-115"/>
      <use x="1224.871094" xlink:href="#DejaVuSans-105"/>
      <use x="1252.654297" xlink:href="#DejaVuSans-111"/>
      <use x="1313.835938" xlink:href="#DejaVuSans-110"/>
      <use x="1377.214844" xlink:href="#DejaVuSans-41"/>
     </g>
    </g>
   </g>
   <g id="matplotlib.axis_2">
    <g id="ytick_1">
     <g id="line2d_21">
      <path clip-path="url(#p5d108aba19)" d="M 57.6 298.944 
L 338.688 298.944 
" style="fill:none;stroke:#b0b0b0;stroke-linecap:square;stroke-width:0.8;"/>
     </g>
     <g id="line2d_22">
      <defs>
       <path d="M 0 0 
L -3.5 0 
" id="mcadede2224" style="stroke:#000000;stroke-width:0.8;"/>
      </defs>
      <g>
       <use style="stroke:#000000;stroke-width:0.8;" x="57.6" xlink:href="#mcadede2224" y="298.944"/>
      </g>
     </g>
     <g id="text_6">
      <!-- 0.0 -->
      <g transform="translate(25.155 305.02275)scale(0.16 -0.16)">
       <defs>
        <path d="M 10.6875 12.40625 
L 21 12.40625 
L 21 0 
L 10.6875 0 
z
" id="DejaVuSans-46"/>
       </defs>
       <use xlink:href="#DejaVuSans-48"/>
       <use x="63.623047" xlink:href="#DejaVuSans-46"/>
       <use x="95.410156" xlink:href="#DejaVuSans-48"/>
      </g>
     </g>
    </g>
    <g id="ytick_2">
     <g id="line2d_23">
      <path clip-path="url(#p5d108aba19)" d="M 57.6 240.431525 
L 338.688 240.431525 
" style="fill:none;stroke:#b0b0b0;stroke-linecap:square;stroke-width:0.8;"/>
     </g>
     <g id="line2d_24">
      <g>
       <use style="stroke:#000000;stroke-width:0.8;" x="57.6" xlink:href="#mcadede2224" y="240.431525"/>
      </g>
     </g>
     <g id="text_7">
      <!-- 0.2 -->
      <g transform="translate(25.155 246.510275)scale(0.16 -0.16)">
       <use xlink:href="#DejaVuSans-48"/>
       <use x="63.623047" xlink:href="#DejaVuSans-46"/>
       <use x="95.410156" xlink:href="#DejaVuSans-50"/>
      </g>
     </g>
    </g>
    <g id="ytick_3">
     <g id="line2d_25">
      <path clip-path="url(#p5d108aba19)" d="M 57.6 181.91905 
L 338.688 181.91905 
" style="fill:none;stroke:#b0b0b0;stroke-linecap:square;stroke-width:0.8;"/>
     </g>
     <g id="line2d_26">
      <g>
       <use style="stroke:#000000;stroke-width:0.8;" x="57.6" xlink:href="#mcadede2224" y="181.91905"/>
      </g>
     </g>
     <g id="text_8">
      <!-- 0.4 -->
      <g transform="translate(25.155 187.9978)scale(0.16 -0.16)">
       <use xlink:href="#DejaVuSans-48"/>
       <use x="63.623047" xlink:href="#DejaVuSans-46"/>
       <use x="95.410156" xlink:href="#DejaVuSans-52"/>
      </g>
     </g>
    </g>
    <g id="ytick_4">
     <g id="line2d_27">
      <path clip-path="url(#p5d108aba19)" d="M 57.6 123.406574 
L 338.688 123.406574 
" style="fill:none;stroke:#b0b0b0;stroke-linecap:square;stroke-width:0.8;"/>
     </g>
     <g id="line2d_28">
      <g>
       <use style="stroke:#000000;stroke-width:0.8;" x="57.6" xlink:href="#mcadede2224" y="123.406574"/>
      </g>
     </g>
     <g id="text_9">
      <!-- 0.6 -->
      <g transform="translate(25.155 129.485324)scale(0.16 -0.16)">
       <use xlink:href="#DejaVuSans-48"/>
       <use x="63.623047" xlink:href="#DejaVuSans-46"/>
       <use x="95.410156" xlink:href="#DejaVuSans-54"/>
      </g>
     </g>
    </g>
    <g id="ytick_5">
     <g id="line2d_29">
      <path clip-path="url(#p5d108aba19)" d="M 57.6 64.894099 
L 338.688 64.894099 
" style="fill:none;stroke:#b0b0b0;stroke-linecap:square;stroke-width:0.8;"/>
     </g>
     <g id="line2d_30">
      <g>
       <use style="stroke:#000000;stroke-width:0.8;" x="57.6" xlink:href="#mcadede2224" y="64.894099"/>
      </g>
     </g>
     <g id="text_10">
      <!-- 0.8 -->
      <g transform="translate(25.155 70.972849)scale(0.16 -0.16)">
       <defs>
        <path d="M 31.78125 34.625 
Q 24.75 34.625 20.71875 30.859375 
Q 16.703125 27.09375 16.703125 20.515625 
Q 16.703125 13.921875 20.71875 10.15625 
Q 24.75 6.390625 31.78125 6.390625 
Q 38.8125 6.390625 42.859375 10.171875 
Q 46.921875 13.96875 46.921875 20.515625 
Q 46.921875 27.09375 42.890625 30.859375 
Q 38.875 34.625 31.78125 34.625 
z
M 21.921875 38.8125 
Q 15.578125 40.375 12.03125 44.71875 
Q 8.5 49.078125 8.5 55.328125 
Q 8.5 64.0625 14.71875 69.140625 
Q 20.953125 74.21875 31.78125 74.21875 
Q 42.671875 74.21875 48.875 69.140625 
Q 55.078125 64.0625 55.078125 55.328125 
Q 55.078125 49.078125 51.53125 44.71875 
Q 48 40.375 41.703125 38.8125 
Q 48.828125 37.15625 52.796875 32.3125 
Q 56.78125 27.484375 56.78125 20.515625 
Q 56.78125 9.90625 50.3125 4.234375 
Q 43.84375 -1.421875 31.78125 -1.421875 
Q 19.734375 -1.421875 13.25 4.234375 
Q 6.78125 9.90625 6.78125 20.515625 
Q 6.78125 27.484375 10.78125 32.3125 
Q 14.796875 37.15625 21.921875 38.8125 
z
M 18.3125 54.390625 
Q 18.3125 48.734375 21.84375 45.5625 
Q 25.390625 42.390625 31.78125 42.390625 
Q 38.140625 42.390625 41.71875 45.5625 
Q 45.3125 48.734375 45.3125 54.390625 
Q 45.3125 60.0625 41.71875 63.234375 
Q 38.140625 66.40625 31.78125 66.40625 
Q 25.390625 66.40625 21.84375 63.234375 
Q 18.3125 60.0625 18.3125 54.390625 
z
" id="DejaVuSans-56"/>
       </defs>
       <use xlink:href="#DejaVuSans-48"/>
       <use x="63.623047" xlink:href="#DejaVuSans-46"/>
       <use x="95.410156" xlink:href="#DejaVuSans-56"/>
      </g>
     </g>
    </g>
    <g id="ytick_6">
     <g id="line2d_31">
      <path clip-path="url(#p5d108aba19)" d="M 57.6 6.381624 
L 338.688 6.381624 
" style="fill:none;stroke:#b0b0b0;stroke-linecap:square;stroke-width:0.8;"/>
     </g>
     <g id="line2d_32">
      <g>
       <use style="stroke:#000000;stroke-width:0.8;" x="57.6" xlink:href="#mcadede2224" y="6.381624"/>
      </g>
     </g>
     <g id="text_11">
      <!-- 1.0 -->
      <g transform="translate(25.155 12.460374)scale(0.16 -0.16)">
       <use xlink:href="#DejaVuSans-49"/>
       <use x="63.623047" xlink:href="#DejaVuSans-46"/>
       <use x="95.410156" xlink:href="#DejaVuSans-48"/>
      </g>
     </g>
    </g>
    <g id="text_12">
     <!-- Fraction of function,target pairs -->
     <g transform="translate(17.619531 285.585)rotate(-90)scale(0.17 -0.17)">
      <defs>
       <path d="M 9.8125 72.90625 
L 51.703125 72.90625 
L 51.703125 64.59375 
L 19.671875 64.59375 
L 19.671875 43.109375 
L 48.578125 43.109375 
L 48.578125 34.8125 
L 19.671875 34.8125 
L 19.671875 0 
L 9.8125 0 
z
" id="DejaVuSans-70"/>
       <path d="M 41.109375 46.296875 
Q 39.59375 47.171875 37.8125 47.578125 
Q 36.03125 48 33.890625 48 
Q 26.265625 48 22.1875 43.046875 
Q 18.109375 38.09375 18.109375 28.8125 
L 18.109375 0 
L 9.078125 0 
L 9.078125 54.6875 
L 18.109375 54.6875 
L 18.109375 46.1875 
Q 20.953125 51.171875 25.484375 53.578125 
Q 30.03125 56 36.53125 56 
Q 37.453125 56 38.578125 55.875 
Q 39.703125 55.765625 41.0625 55.515625 
z
" id="DejaVuSans-114"/>
       <path d="M 48.78125 52.59375 
L 48.78125 44.1875 
Q 44.96875 46.296875 41.140625 47.34375 
Q 37.3125 48.390625 33.40625 48.390625 
Q 24.65625 48.390625 19.8125 42.84375 
Q 14.984375 37.3125 14.984375 27.296875 
Q 14.984375 17.28125 19.8125 11.734375 
Q 24.65625 6.203125 33.40625 6.203125 
Q 37.3125 6.203125 41.140625 7.25 
Q 44.96875 8.296875 48.78125 10.40625 
L 48.78125 2.09375 
Q 45.015625 0.34375 40.984375 -0.53125 
Q 36.96875 -1.421875 32.421875 -1.421875 
Q 20.0625 -1.421875 12.78125 6.34375 
Q 5.515625 14.109375 5.515625 27.296875 
Q 5.515625 40.671875 12.859375 48.328125 
Q 20.21875 56 33.015625 56 
Q 37.15625 56 41.109375 55.140625 
Q 45.0625 54.296875 48.78125 52.59375 
z
" id="DejaVuSans-99"/>
       <path d="M 18.3125 70.21875 
L 18.3125 54.6875 
L 36.8125 54.6875 
L 36.8125 47.703125 
L 18.3125 47.703125 
L 18.3125 18.015625 
Q 18.3125 11.328125 20.140625 9.421875 
Q 21.96875 7.515625 27.59375 7.515625 
L 36.8125 7.515625 
L 36.8125 0 
L 27.59375 0 
Q 17.1875 0 13.234375 3.875 
Q 9.28125 7.765625 9.28125 18.015625 
L 9.28125 47.703125 
L 2.6875 47.703125 
L 2.6875 54.6875 
L 9.28125 54.6875 
L 9.28125 70.21875 
z
" id="DejaVuSans-116"/>
       <path d="M 8.5 21.578125 
L 8.5 54.6875 
L 17.484375 54.6875 
L 17.484375 21.921875 
Q 17.484375 14.15625 20.5 10.265625 
Q 23.53125 6.390625 29.59375 6.390625 
Q 36.859375 6.390625 41.078125 11.03125 
Q 45.3125 15.671875 45.3125 23.6875 
L 45.3125 54.6875 
L 54.296875 54.6875 
L 54.296875 0 
L 45.3125 0 
L 45.3125 8.40625 
Q 42.046875 3.421875 37.71875 1 
Q 33.40625 -1.421875 27.6875 -1.421875 
Q 18.265625 -1.421875 13.375 4.4375 
Q 8.5 10.296875 8.5 21.578125 
z
M 31.109375 56 
z
" id="DejaVuSans-117"/>
       <path d="M 11.71875 12.40625 
L 22.015625 12.40625 
L 22.015625 4 
L 14.015625 -11.625 
L 7.71875 -11.625 
L 11.71875 4 
z
" id="DejaVuSans-44"/>
       <path d="M 18.109375 8.203125 
L 18.109375 -20.796875 
L 9.078125 -20.796875 
L 9.078125 54.6875 
L 18.109375 54.6875 
L 18.109375 46.390625 
Q 20.953125 51.265625 25.265625 53.625 
Q 29.59375 56 35.59375 56 
Q 45.5625 56 51.78125 48.09375 
Q 58.015625 40.1875 58.015625 27.296875 
Q 58.015625 14.40625 51.78125 6.484375 
Q 45.5625 -1.421875 35.59375 -1.421875 
Q 29.59375 -1.421875 25.265625 0.953125 
Q 20.953125 3.328125 18.109375 8.203125 
z
M 48.6875 27.296875 
Q 48.6875 37.203125 44.609375 42.84375 
Q 40.53125 48.484375 33.40625 48.484375 
Q 26.265625 48.484375 22.1875 42.84375 
Q 18.109375 37.203125 18.109375 27.296875 
Q 18.109375 17.390625 22.1875 11.75 
Q 26.265625 6.109375 33.40625 6.109375 
Q 40.53125 6.109375 44.609375 11.75 
Q 48.6875 17.390625 48.6875 27.296875 
z
" id="DejaVuSans-112"/>
      </defs>
      <use xlink:href="#DejaVuSans-70"/>
      <use x="50.269531" xlink:href="#DejaVuSans-114"/>
      <use x="91.382812" xlink:href="#DejaVuSans-97"/>
      <use x="152.662109" xlink:href="#DejaVuSans-99"/>
      <use x="207.642578" xlink:href="#DejaVuSans-116"/>
      <use x="246.851562" xlink:href="#DejaVuSans-105"/>
      <use x="274.634766" xlink:href="#DejaVuSans-111"/>
      <use x="335.816406" xlink:href="#DejaVuSans-110"/>
      <use x="399.195312" xlink:href="#DejaVuSans-32"/>
      <use x="430.982422" xlink:href="#DejaVuSans-111"/>
      <use x="492.164062" xlink:href="#DejaVuSans-102"/>
      <use x="527.369141" xlink:href="#DejaVuSans-32"/>
      <use x="559.15625" xlink:href="#DejaVuSans-102"/>
      <use x="594.361328" xlink:href="#DejaVuSans-117"/>
      <use x="657.740234" xlink:href="#DejaVuSans-110"/>
      <use x="721.119141" xlink:href="#DejaVuSans-99"/>
      <use x="776.099609" xlink:href="#DejaVuSans-116"/>
      <use x="815.308594" xlink:href="#DejaVuSans-105"/>
      <use x="843.091797" xlink:href="#DejaVuSans-111"/>
      <use x="904.273438" xlink:href="#DejaVuSans-110"/>
      <use x="967.652344" xlink:href="#DejaVuSans-44"/>
      <use x="999.439453" xlink:href="#DejaVuSans-116"/>
      <use x="1038.648438" xlink:href="#DejaVuSans-97"/>
      <use x="1099.927734" xlink:href="#DejaVuSans-114"/>
      <use x="1139.291016" xlink:href="#DejaVuSans-103"/>
      <use x="1202.767578" xlink:href="#DejaVuSans-101"/>
      <use x="1264.291016" xlink:href="#DejaVuSans-116"/>
      <use x="1303.5" xlink:href="#DejaVuSans-32"/>
      <use x="1335.287109" xlink:href="#DejaVuSans-112"/>
      <use x="1398.763672" xlink:href="#DejaVuSans-97"/>
      <use x="1460.042969" xlink:href="#DejaVuSans-105"/>
      <use x="1487.826172" xlink:href="#DejaVuSans-114"/>
      <use x="1528.939453" xlink:href="#DejaVuSans-115"/>
     </g>
    </g>
   </g>
   <g id="line2d_33">
    <defs>
     <path d="M 0 1.5 
C 0.397805 1.5 0.77937 1.341951 1.06066 1.06066 
C 1.341951 0.77937 1.5 0.397805 1.5 0 
C 1.5 -0.397805 1.341951 -0.77937 1.06066 -1.06066 
C 0.77937 -1.341951 0.397805 -1.5 0 -1.5 
C -0.397805 -1.5 -0.77937 -1.341951 -1.06066 -1.06066 
C -1.341951 -0.77937 -1.5 -0.397805 -1.5 0 
C -1.5 0.397805 -1.341951 0.77937 -1.06066 1.06066 
C -0.77937 1.341951 -0.397805 1.5 0 1.5 
z
" id="m9a7c5a888f" style="stroke:#f5deb3;"/>
    </defs>
    <g>
     <use style="fill:#f5deb3;stroke:#f5deb3;" x="225.746224" xlink:href="#m9a7c5a888f" y="6.381624"/>
     <use style="fill:#f5deb3;stroke:#f5deb3;" x="225.746224" xlink:href="#m9a7c5a888f" y="6.381624"/>
    </g>
   </g>
   <g id="line2d_34">
    <defs>
     <path d="M 0 1.5 
C 0.397805 1.5 0.77937 1.341951 1.06066 1.06066 
C 1.341951 0.77937 1.5 0.397805 1.5 0 
C 1.5 -0.397805 1.341951 -0.77937 1.06066 -1.06066 
C 0.77937 -1.341951 0.397805 -1.5 0 -1.5 
C -0.397805 -1.5 -0.77937 -1.341951 -1.06066 -1.06066 
C -1.341951 -0.77937 -1.5 -0.397805 -1.5 0 
C -1.5 0.397805 -1.341951 0.77937 -1.06066 1.06066 
C -0.77937 1.341951 -0.397805 1.5 0 1.5 
z
" id="m672e35fcde" style="stroke:#000080;"/>
    </defs>
    <g>
     <use style="fill:#000080;stroke:#000080;" x="268.914554" xlink:href="#m672e35fcde" y="117.670057"/>
     <use style="fill:#000080;stroke:#000080;" x="268.914554" xlink:href="#m672e35fcde" y="117.670057"/>
    </g>
   </g>
   <g id="line2d_35">
    <path d="M 86.683608 298.944 
L 86.683608 298.714539 
L 87.643811 298.714539 
L 87.643811 298.370348 
L 87.875822 298.370348 
L 87.875822 298.255618 
L 88.991722 298.255618 
L 88.991722 297.911427 
L 89.628521 297.911427 
L 89.628521 297.796697 
L 89.835723 297.796697 
L 89.835723 297.681966 
L 89.972502 297.681966 
L 89.972502 297.567236 
L 90.108217 297.567236 
L 90.175681 297.337775 
L 91.284345 297.337775 
L 91.284345 297.223045 
L 91.965895 297.223045 
L 92.026554 296.993584 
L 92.207273 296.993584 
L 92.207273 296.878854 
L 92.504372 296.878854 
L 92.504372 296.764123 
L 92.680232 296.764123 
L 92.73846 296.534663 
L 92.969447 296.534663 
L 92.969447 296.419932 
L 93.083804 296.419932 
L 93.083804 296.190472 
L 93.422441 296.190472 
L 93.422441 296.075741 
L 93.809382 296.075741 
L 93.863965 295.846281 
L 94.026697 295.846281 
L 94.134347 295.50209 
L 94.505975 295.50209 
L 94.505975 295.272629 
L 94.662851 295.272629 
L 94.766656 295.043168 
L 94.921215 295.043168 
L 94.972432 294.813708 
L 95.376839 294.813708 
L 95.376839 294.698977 
L 95.674107 294.698977 
L 95.772081 294.240056 
L 96.348638 294.240056 
L 96.395835 294.010595 
L 96.536665 294.010595 
L 96.536665 293.895865 
L 96.722686 293.895865 
L 96.768882 293.666404 
L 96.86091 293.666404 
L 96.86091 293.551674 
L 97.403108 293.551674 
L 97.447539 293.322213 
L 97.536064 293.322213 
L 97.624141 292.863292 
L 98.100772 292.863292 
L 98.100772 292.748561 
L 98.397438 292.748561 
L 98.43941 292.40437 
L 98.564722 292.40437 
L 98.647767 291.830719 
L 98.730417 291.830719 
L 98.812678 290.339224 
L 99.016649 290.339224 
L 99.097574 290.109764 
L 99.338119 290.109764 
L 99.37789 289.880303 
L 99.457159 289.880303 
L 99.457159 289.765573 
L 99.653771 289.765573 
L 99.653771 289.650842 
L 99.80948 289.650842 
L 99.80948 286.553123 
L 99.963811 286.553123 
L 100.002181 285.979471 
L 100.078669 285.979471 
L 100.116788 285.75001 
L 100.192776 285.75001 
L 100.268435 285.061628 
L 100.381311 285.061628 
L 100.381311 284.946898 
L 100.530685 284.946898 
L 100.530685 284.717437 
L 100.641881 284.717437 
L 100.752373 280.931336 
L 100.825648 280.931336 
L 100.825648 280.816606 
L 101.007498 280.816606 
L 101.079711 277.718886 
L 101.258944 277.718886 
L 101.294571 273.359133 
L 101.471621 273.359133 
L 101.576995 267.393156 
L 101.681735 267.393156 
L 101.681735 263.492324 
L 101.820418 263.492324 
L 101.889348 260.050414 
L 102.060491 260.050414 
L 102.094519 257.526346 
L 102.196206 257.526346 
L 102.297303 253.969705 
L 102.431195 253.969705 
L 102.431195 253.854975 
L 102.761494 253.854975 
L 102.859376 253.396054 
L 102.956712 253.396054 
L 103.021302 252.707672 
L 103.117741 252.707672 
L 103.117741 252.24875 
L 104.084239 252.24875 
L 104.17499 248.577379 
L 104.355088 248.577379 
L 104.355088 245.709121 
L 104.503761 245.709121 
L 104.503761 245.59439 
L 104.651178 245.59439 
L 104.651178 245.36493 
L 104.971174 245.36493 
L 104.971174 245.250199 
L 105.171792 245.250199 
L 105.22869 235.842311 
L 105.897371 235.842311 
L 105.897371 235.727581 
L 106.195485 235.727581 
L 106.249145 235.38339 
L 106.906317 235.38339 
L 106.906317 235.268659 
L 107.589306 235.268659 
L 107.589306 235.153929 
L 107.811151 235.153929 
L 107.90885 234.809738 
L 108.436627 234.809738 
L 108.436627 234.695008 
L 108.554381 234.695008 
L 108.554381 234.580277 
L 108.717912 234.580277 
L 108.717912 234.465547 
L 108.994731 234.465547 
L 108.994731 234.350817 
L 109.1995 234.350817 
L 109.1995 234.236086 
L 109.601963 234.236086 
L 109.601963 234.006626 
L 109.777897 234.006626 
L 109.865203 233.777165 
L 109.908692 233.777165 
L 109.908692 233.662434 
L 110.167376 233.662434 
L 110.231452 233.432974 
L 110.337724 233.432974 
L 110.337724 233.318243 
L 111.104637 233.318243 
L 111.165366 232.859322 
L 111.525364 232.859322 
L 111.525364 232.629861 
L 111.994085 232.629861 
L 111.994085 232.515131 
L 112.109323 232.515131 
L 112.109323 232.400401 
L 113.113568 232.400401 
L 113.167699 232.17094 
L 113.311233 232.17094 
L 113.311233 232.05621 
L 113.55961 232.05621 
L 113.55961 231.941479 
L 114.045996 231.941479 
L 114.114385 231.253097 
L 114.267288 231.253097 
L 114.267288 231.138367 
L 114.385292 231.138367 
L 114.385292 231.023637 
L 115.125401 231.023637 
L 115.221751 230.794176 
L 115.285689 230.794176 
L 115.301637 230.564715 
L 115.444518 230.564715 
L 115.444518 230.449985 
L 115.633223 230.449985 
L 115.633223 230.335255 
L 115.819907 230.335255 
L 115.881694 229.761603 
L 116.278058 229.761603 
L 116.278058 229.646872 
L 116.487812 229.646872 
L 116.487812 229.532142 
L 116.972471 229.532142 
L 117.001416 229.302681 
L 117.188396 229.302681 
L 117.274023 228.95849 
L 117.458117 228.95849 
L 117.458117 228.84376 
L 117.612386 228.84376 
L 117.612386 228.72903 
L 117.94431 228.72903 
L 118.039942 228.499569 
L 118.576578 228.499569 
L 118.642511 227.925917 
L 118.734401 227.925917 
L 118.81278 227.696457 
L 118.903779 227.696457 
L 119.007199 227.466996 
L 119.414856 227.466996 
L 119.414856 227.352266 
L 119.565304 227.352266 
L 119.640044 227.122805 
L 119.850084 227.122805 
L 119.850084 227.008075 
L 119.972465 227.008075 
L 119.984656 226.663884 
L 120.118198 226.663884 
L 120.118198 226.549153 
L 120.322591 226.549153 
L 120.406061 226.090232 
L 120.536427 226.090232 
L 120.536427 225.975501 
L 120.747672 225.975501 
L 120.747672 225.860771 
L 121.002434 225.860771 
L 121.002434 225.746041 
L 121.310093 225.746041 
L 121.310093 225.63131 
L 121.433896 225.63131 
L 121.501057 225.40185 
L 121.756135 225.40185 
L 121.767141 225.172389 
L 121.953191 225.172389 
L 122.061712 224.598737 
L 122.383281 224.598737 
L 122.489167 224.139816 
L 122.657258 224.139816 
L 122.709455 223.910355 
L 122.823744 223.910355 
L 122.875446 223.680895 
L 123.141856 223.680895 
L 123.141856 223.221973 
L 123.333999 223.221973 
L 123.42428 222.763052 
L 123.66277 222.763052 
L 123.66277 222.648321 
L 123.917505 222.648321 
L 124.004823 222.418861 
L 124.235556 222.418861 
L 124.340297 222.1894 
L 124.387699 222.1894 
L 124.482119 221.959939 
L 124.57603 221.959939 
L 124.622796 221.615748 
L 124.799375 221.615748 
L 124.863982 221.271557 
L 125.074593 221.271557 
L 125.156318 220.697906 
L 125.363449 220.697906 
L 125.434921 220.353715 
L 125.944518 220.353715 
L 126.013653 220.124254 
L 126.056724 220.124254 
L 126.056724 220.009524 
L 126.329885 220.009524 
L 126.414378 219.665333 
L 126.498463 219.665333 
L 126.607172 219.206411 
L 126.70692 219.206411 
L 126.70692 218.97695 
L 126.822577 218.97695 
L 126.822577 218.86222 
L 127.002787 218.86222 
L 127.019078 218.632759 
L 127.116504 218.632759 
L 127.221439 218.173838 
L 127.40556 218.173838 
L 127.508774 217.829647 
L 127.54041 217.829647 
L 127.54041 217.714917 
L 127.689902 217.714917 
L 127.775868 217.485456 
L 127.938816 217.485456 
L 127.938816 217.370726 
L 128.054283 217.370726 
L 128.161367 217.026535 
L 128.267797 217.026535 
L 128.373582 216.797074 
L 128.381113 216.797074 
L 128.381113 216.682344 
L 128.538529 216.682344 
L 128.538529 216.567613 
L 128.664928 216.567613 
L 128.664928 216.338153 
L 128.797771 216.338153 
L 128.834493 215.993962 
L 128.92961 215.993962 
L 129.002426 215.53504 
L 129.06046 215.53504 
L 129.06046 215.42031 
L 129.233413 215.42031 
L 129.29783 215.190849 
L 129.354892 215.190849 
L 129.354892 215.076119 
L 129.47553 215.076119 
L 129.510854 214.846658 
L 129.588315 214.846658 
L 129.693392 214.617197 
L 129.700375 214.617197 
L 129.763094 214.273006 
L 129.887858 214.273006 
L 129.929249 214.043546 
L 130.004878 214.043546 
L 130.059675 213.584624 
L 130.127931 213.584624 
L 130.127931 213.469894 
L 130.310898 213.469894 
L 130.418423 213.240433 
L 130.644738 213.240433 
L 130.644738 213.125703 
L 130.802739 213.125703 
L 130.89425 212.781512 
L 130.959322 212.781512 
L 131.06939 212.09313 
L 131.140242 212.09313 
L 131.172353 211.748939 
L 131.325666 211.748939 
L 131.325666 211.634209 
L 131.578231 211.634209 
L 131.684473 210.945826 
L 131.771483 210.945826 
L 131.771483 210.831096 
L 131.931931 210.831096 
L 131.931931 210.716366 
L 132.048254 210.716366 
L 132.048254 210.601635 
L 132.212233 210.601635 
L 132.28462 210.257444 
L 132.404602 210.257444 
L 132.505941 209.798523 
L 132.659801 209.798523 
L 132.659801 209.683793 
L 132.777237 209.683793 
L 132.882259 209.339602 
L 132.998212 209.339602 
L 133.084673 208.76595 
L 133.27908 208.76595 
L 133.381131 208.307029 
L 133.398082 208.307029 
L 133.488207 207.962838 
L 133.533096 207.962838 
L 133.59463 207.389186 
L 133.644815 207.389186 
L 133.755823 206.930264 
L 133.827601 206.930264 
L 133.827601 206.815534 
L 133.953874 206.815534 
L 133.953874 206.586073 
L 134.090098 206.586073 
L 134.138879 205.782961 
L 134.316585 205.782961 
L 134.402098 205.209309 
L 134.534878 205.209309 
L 134.582433 204.865118 
L 134.650895 204.865118 
L 134.740018 204.520927 
L 134.797444 204.520927 
L 134.797444 204.406197 
L 134.922085 204.406197 
L 135.025276 203.832545 
L 135.22476 203.832545 
L 135.290751 203.488354 
L 135.406895 203.488354 
L 135.517271 203.144163 
L 135.52727 203.144163 
L 135.52727 202.914702 
L 135.64682 202.914702 
L 135.750758 202.22632 
L 135.873692 202.22632 
L 135.898175 201.99686 
L 136.073445 201.99686 
L 136.179695 201.423208 
L 136.189322 201.423208 
L 136.261355 201.079017 
L 136.309213 201.079017 
L 136.375993 200.505365 
L 136.485152 200.505365 
L 136.565398 199.931713 
L 136.617126 199.931713 
L 136.649964 199.702253 
L 136.748108 199.702253 
L 136.827156 199.013871 
L 137.034686 199.013871 
L 137.075898 198.66968 
L 137.167132 198.66968 
L 137.26694 198.210758 
L 137.316631 198.210758 
L 137.424559 197.637107 
L 137.464861 197.637107 
L 137.48721 197.407646 
L 137.580766 197.407646 
L 137.580766 197.178185 
L 137.73999 197.178185 
L 137.832203 196.719264 
L 137.862833 196.719264 
L 137.954401 196.375073 
L 137.997836 196.375073 
L 137.997836 196.260342 
L 138.170504 196.260342 
L 138.27329 195.686691 
L 138.298892 195.686691 
L 138.405164 195.45723 
L 138.531843 195.45723 
L 138.582257 195.227769 
L 138.649251 195.227769 
L 138.711825 194.654118 
L 138.778323 194.654118 
L 138.782471 194.424657 
L 138.889968 194.424657 
L 138.959898 193.965736 
L 139.017278 193.965736 
L 139.094849 193.736275 
L 139.159906 193.736275 
L 139.257039 193.506814 
L 139.281238 193.506814 
L 139.389719 193.047893 
L 139.409734 193.047893 
L 139.437717 192.24478 
L 139.557137 192.24478 
L 139.576961 191.556398 
L 139.746525 191.556398 
L 139.824833 190.868016 
L 139.933878 190.868016 
L 140.042245 190.294365 
L 140.09233 190.294365 
L 140.180592 189.720713 
L 140.218827 189.720713 
L 140.218827 189.605983 
L 140.348205 189.605983 
L 140.370937 189.147061 
L 140.574203 189.147061 
L 140.61532 188.80287 
L 140.712123 188.80287 
L 140.786222 188.343949 
L 140.915143 188.343949 
L 140.918813 188.114488 
L 141.032186 188.114488 
L 141.119455 187.540836 
L 141.155689 187.540836 
L 141.245945 187.081915 
L 141.285511 187.081915 
L 141.382246 186.393533 
L 141.400102 186.393533 
L 141.496206 186.049342 
L 141.54229 186.049342 
L 141.616477 185.016769 
L 141.683328 185.016769 
L 141.788363 184.672578 
L 141.798832 184.672578 
L 141.896239 184.443117 
L 141.91011 184.443117 
L 142.006899 183.984196 
L 142.048216 183.984196 
L 142.133981 183.525274 
L 142.161336 183.525274 
L 142.256745 182.951623 
L 142.314418 182.951623 
L 142.412363 182.607432 
L 142.576617 182.607432 
L 142.599956 182.263241 
L 142.709564 182.263241 
L 142.792145 181.804319 
L 142.933275 181.804319 
L 143.011551 181.574858 
L 143.04731 181.574858 
L 143.066785 181.345398 
L 143.163832 181.345398 
L 143.179954 181.115937 
L 143.285988 181.115937 
L 143.349938 180.771746 
L 143.454946 180.771746 
L 143.530921 180.542285 
L 164.977905 180.542285 
L 164.977905 180.427555 
L 167.047853 180.427555 
L 167.047853 180.312825 
L 167.890711 180.312825 
L 167.890711 180.198094 
L 168.247266 180.198094 
L 168.247266 180.083364 
L 174.960689 180.083364 
L 174.960689 179.968634 
L 175.389849 179.968634 
L 175.389849 179.853903 
L 175.892858 179.853903 
L 176.003621 179.509712 
L 176.184736 179.509712 
L 176.275317 179.280252 
L 176.687829 179.280252 
L 176.763161 178.936061 
L 176.801643 178.936061 
L 176.801643 178.82133 
L 176.938455 178.82133 
L 177.013177 178.477139 
L 177.152941 178.477139 
L 177.152941 178.362409 
L 177.339386 178.362409 
L 177.339386 178.247679 
L 177.493249 178.247679 
L 177.4946 178.018218 
L 177.607761 178.018218 
L 177.607761 177.903487 
L 177.806698 177.903487 
L 177.838089 177.674027 
L 178.077182 177.674027 
L 178.077182 177.559296 
L 178.20784 177.559296 
L 178.31648 177.329836 
L 178.497758 177.329836 
L 178.578383 177.100375 
L 178.664958 177.100375 
L 178.771634 176.641454 
L 178.946607 176.641454 
L 178.946607 176.526723 
L 179.096432 176.526723 
L 179.148138 176.182532 
L 179.535131 176.182532 
L 179.627861 175.608881 
L 179.898029 175.608881 
L 179.898029 175.49415 
L 180.129636 175.49415 
L 180.208088 175.149959 
L 180.276205 175.149959 
L 180.311888 174.920499 
L 180.41317 174.920499 
L 180.445532 174.576308 
L 180.615492 174.576308 
L 180.700792 174.117386 
L 180.744595 174.117386 
L 180.800964 173.773195 
L 180.899823 173.773195 
L 180.983747 173.543734 
L 181.07791 173.543734 
L 181.156967 173.314274 
L 181.203647 173.314274 
L 181.264725 172.970083 
L 181.399573 172.970083 
L 181.495822 172.511161 
L 181.730612 172.511161 
L 181.771906 172.16697 
L 181.874189 172.16697 
L 181.93646 171.593319 
L 182.036397 171.593319 
L 182.125749 171.134397 
L 182.170944 171.134397 
L 182.247266 170.904937 
L 182.302408 170.904937 
L 182.333499 170.675476 
L 182.422705 170.675476 
L 182.514159 169.987094 
L 182.566781 169.987094 
L 182.604128 169.757633 
L 182.71569 169.757633 
L 182.809611 169.298712 
L 182.841137 169.298712 
L 182.92515 168.954521 
L 182.959762 168.954521 
L 182.959762 168.83979 
L 183.082491 168.83979 
L 183.09916 168.61033 
L 183.278566 168.61033 
L 183.370155 168.036678 
L 183.419299 168.036678 
L 183.48972 167.692487 
L 183.549356 167.692487 
L 183.646821 167.118835 
L 183.703398 167.118835 
L 183.754759 166.774644 
L 183.827602 166.774644 
L 183.893276 166.430453 
L 183.982012 166.430453 
L 184.002807 166.200992 
L 184.2486 166.200992 
L 184.260524 165.971532 
L 184.363222 165.971532 
L 184.420252 165.627341 
L 184.515692 165.627341 
L 184.615705 165.053689 
L 184.644431 165.053689 
L 184.725567 164.480037 
L 184.771634 164.480037 
L 184.845975 164.135846 
L 184.892904 164.135846 
L 184.978468 163.676925 
L 185.008361 163.676925 
L 185.108216 163.103273 
L 185.147476 163.103273 
L 185.245095 162.529621 
L 185.356816 162.529621 
L 185.46212 161.95597 
L 185.576999 161.95597 
L 185.681268 161.267588 
L 185.706324 161.267588 
L 185.810384 160.464475 
L 185.817933 160.464475 
L 185.926054 159.202441 
L 185.949929 159.202441 
L 186.056962 158.62879 
L 186.067436 158.62879 
L 186.151006 158.169868 
L 186.191546 158.169868 
L 186.293303 157.252026 
L 186.346808 157.252026 
L 186.457638 156.678374 
L 186.460333 156.678374 
L 186.546335 156.334183 
L 186.579279 156.334183 
L 186.655642 155.760531 
L 186.710969 155.760531 
L 186.813445 155.072149 
L 186.868802 155.072149 
L 186.978989 154.498497 
L 187.016608 154.498497 
L 187.106149 153.695385 
L 187.133648 153.695385 
L 187.24218 152.203891 
L 187.251966 152.203891 
L 187.361814 150.482935 
L 187.372812 150.482935 
L 187.472754 148.76198 
L 187.50298 148.76198 
L 187.611515 146.811564 
L 187.617315 146.811564 
L 187.72414 144.631688 
L 187.73366 144.631688 
L 187.83181 142.681272 
L 187.846 142.681272 
L 187.954653 139.813013 
L 187.961329 139.813013 
L 188.069759 136.485833 
L 188.077864 136.485833 
L 188.183134 133.847036 
L 188.190455 133.847036 
L 188.295777 130.519856 
L 188.30911 130.519856 
L 188.418537 127.307406 
L 188.422389 127.307406 
L 188.532545 125.127529 
L 188.537808 125.127529 
L 188.648903 123.177114 
L 188.655793 123.177114 
L 188.759531 121.456158 
L 188.782422 121.456158 
L 188.872512 120.653046 
L 188.909777 120.653046 
L 188.909777 120.538316 
L 191.606079 120.538316 
L 191.606079 120.423585 
L 191.729598 120.423585 
L 191.729598 120.308855 
L 193.970937 120.308855 
L 193.970937 120.194125 
L 197.240111 120.194125 
L 197.240111 120.079394 
L 199.450698 120.079394 
L 199.450698 119.964664 
L 214.345341 119.964664 
L 214.345341 119.849934 
L 220.531059 119.849934 
L 220.531059 119.735203 
L 235.752916 119.735203 
L 235.752916 119.620473 
L 235.901141 119.620473 
L 235.901141 119.505743 
L 236.400942 119.505743 
L 236.400942 119.391012 
L 238.639172 119.391012 
L 238.639172 119.276282 
L 239.084286 119.276282 
L 239.084286 119.161552 
L 239.693161 119.161552 
L 239.693161 119.046821 
L 242.281058 119.046821 
L 242.281058 118.932091 
L 245.028008 118.932091 
L 245.028008 118.817361 
L 248.53639 118.817361 
L 248.53639 118.70263 
L 249.875518 118.70263 
L 249.875547 118.473169 
L 254.124737 118.473169 
L 254.124737 118.358439 
L 254.560551 118.358439 
L 254.560573 118.128978 
L 262.590288 118.128978 
L 262.590288 118.014248 
L 263.360778 118.014248 
L 263.360778 117.899518 
L 266.229893 117.899518 
L 266.229893 117.784787 
L 268.914554 117.784787 
L 268.914554 117.670057 
L 338.688 117.670057 
L 338.688 117.670057 
" style="fill:none;stroke:#000080;stroke-linecap:square;stroke-width:1.5;"/>
   </g>
   <g id="line2d_36">
    <defs>
     <path d="M 0 6 
C 1.591219 6 3.117479 5.367802 4.242641 4.242641 
C 5.367802 3.117479 6 1.591219 6 0 
C 6 -1.591219 5.367802 -3.117479 4.242641 -4.242641 
C 3.117479 -5.367802 1.591219 -6 0 -6 
C -1.591219 -6 -3.117479 -5.367802 -4.242641 -4.242641 
C -5.367802 -3.117479 -6 -1.591219 -6 0 
C -6 1.591219 -5.367802 3.117479 -4.242641 4.242641 
C -3.117479 5.367802 -1.591219 6 0 6 
z
" id="mbf21d38c5a" style="stroke:#000080;stroke-width:1.5;"/>
    </defs>
    <g>
     <use style="fill-opacity:0;stroke:#000080;stroke-width:1.5;" x="131.634557" xlink:href="#mbf21d38c5a" y="211.175287"/>
     <use style="fill-opacity:0;stroke:#000080;stroke-width:1.5;" x="187.618323" xlink:href="#mbf21d38c5a" y="146.696834"/>
     <use style="fill-opacity:0;stroke:#000080;stroke-width:1.5;" x="268.914554" xlink:href="#mbf21d38c5a" y="117.784787"/>
     <use style="fill-opacity:0;stroke:#000080;stroke-width:1.5;" x="268.914554" xlink:href="#mbf21d38c5a" y="117.670057"/>
     <use style="fill-opacity:0;stroke:#000080;stroke-width:1.5;" x="338.688" xlink:href="#mbf21d38c5a" y="117.670057"/>
    </g>
   </g>
   <g id="line2d_37">
    <path style="fill:none;stroke:#000080;stroke-linecap:square;stroke-width:1.5;"/>
    <g/>
   </g>
   <g id="line2d_38">
    <path clip-path="url(#p5d108aba19)" d="M 246.289233 118.817361 
" style="fill:none;stroke:#000080;stroke-linecap:square;stroke-width:1.5;"/>
    <defs>
     <path d="M -12 12 
L 12 -12 
M -12 -12 
L 12 12 
" id="m9832d984b0" style="stroke:#000080;"/>
    </defs>
    <g clip-path="url(#p5d108aba19)">
     <use style="fill:#000080;stroke:#000080;" x="246.289233" xlink:href="#m9832d984b0" y="118.817361"/>
    </g>
   </g>
   <g id="line2d_39">
    <defs>
     <path d="M 0 1.5 
C 0.397805 1.5 0.77937 1.341951 1.06066 1.06066 
C 1.341951 0.77937 1.5 0.397805 1.5 0 
C 1.5 -0.397805 1.341951 -0.77937 1.06066 -1.06066 
C 0.77937 -1.341951 0.397805 -1.5 0 -1.5 
C -0.397805 -1.5 -0.77937 -1.341951 -1.06066 -1.06066 
C -1.341951 -0.77937 -1.5 -0.397805 -1.5 0 
C -1.5 0.397805 -1.341951 0.77937 -1.06066 1.06066 
C -0.77937 1.341951 -0.397805 1.5 0 1.5 
z
" id="m3d40ff0203" style="stroke:#ff00ff;"/>
    </defs>
    <g>
     <use style="fill:#ff00ff;stroke:#ff00ff;" x="319.08283" xlink:href="#m3d40ff0203" y="116.522754"/>
     <use style="fill:#ff00ff;stroke:#ff00ff;" x="319.08283" xlink:href="#m3d40ff0203" y="116.522754"/>
    </g>
   </g>
   <g id="line2d_40">
    <path d="M 124.014498 298.944 
L 124.082074 298.714539 
L 124.292765 298.714539 
L 124.292765 298.599809 
L 127.492935 298.599809 
L 127.508774 298.370348 
L 127.705564 298.370348 
L 127.736845 298.140888 
L 128.107907 298.140888 
L 128.107907 298.026157 
L 129.031467 298.026157 
L 129.031467 297.911427 
L 129.168756 297.911427 
L 129.168756 297.796697 
L 129.31925 297.796697 
L 129.31925 297.681966 
L 129.489668 297.681966 
L 129.489668 297.567236 
L 129.777 297.567236 
L 129.777 297.452506 
L 130.418423 297.452506 
L 130.445202 297.108315 
L 131.709377 297.108315 
L 131.709377 296.993584 
L 131.851892 296.993584 
L 131.851892 296.878854 
L 132.103085 296.878854 
L 132.103085 296.764123 
L 132.338714 296.764123 
L 132.338714 296.649393 
L 132.905511 296.649393 
L 132.905511 296.534663 
L 134.03029 296.534663 
L 134.111795 296.190472 
L 134.165921 296.190472 
L 134.165921 296.075741 
L 134.745246 296.075741 
L 134.787017 295.846281 
L 135.081772 295.846281 
L 135.184026 295.043168 
L 135.316065 295.043168 
L 135.341343 294.813708 
L 135.656746 294.813708 
L 135.656746 294.698977 
L 136.116989 294.698977 
L 136.198943 294.125326 
L 137.03927 294.125326 
L 137.107884 289.421381 
L 137.280507 289.421381 
L 137.280507 289.306651 
L 137.923932 289.306651 
L 137.967443 289.07719 
L 138.27329 289.07719 
L 138.27329 288.96246 
L 138.422108 288.96246 
L 138.443265 288.732999 
L 138.803195 288.732999 
L 138.840437 288.274078 
L 139.119274 288.274078 
L 139.212587 288.044617 
L 139.236847 288.044617 
L 139.236847 287.929887 
L 139.588845 287.929887 
L 139.667863 287.356235 
L 139.840453 287.356235 
L 139.914456 283.684864 
L 139.984275 283.684864 
L 140.073083 279.669302 
L 140.382292 279.669302 
L 140.480393 275.997931 
L 140.517978 275.997931 
L 140.619053 275.768471 
L 141.155689 275.768471 
L 141.209899 275.42428 
L 141.414373 275.42428 
L 141.414373 275.309549 
L 141.819751 275.309549 
L 141.913576 274.850628 
L 142.509761 274.850628 
L 142.509761 271.867639 
L 142.626591 271.867639 
L 142.639893 271.408718 
L 142.772361 271.408718 
L 142.772361 268.425729 
L 143.502469 268.425729 
L 143.502469 268.310998 
L 143.788031 268.310998 
L 143.840863 263.377593 
L 144.441699 263.377593 
L 144.522457 259.935683 
L 144.794859 259.935683 
L 144.853518 256.837964 
L 144.987689 256.837964 
L 144.987689 256.723234 
L 145.307262 256.723234 
L 145.307262 253.740245 
L 146.110107 253.740245 
L 146.164511 246.971154 
L 146.712583 246.971154 
L 146.717846 243.758705 
L 147.092675 243.758705 
L 147.185137 240.202064 
L 147.727361 240.202064 
L 147.727361 240.087334 
L 148.322966 240.087334 
L 148.349344 239.857873 
L 149.106622 239.857873 
L 149.214124 239.628412 
L 149.561792 239.628412 
L 149.572965 239.398952 
L 150.003205 239.398952 
L 150.003205 239.284221 
L 151.205229 239.284221 
L 151.205229 239.169491 
L 151.781456 239.169491 
L 151.781456 239.054761 
L 152.439984 239.054761 
L 152.439984 238.94003 
L 153.196559 238.94003 
L 153.196559 238.8253 
L 153.933853 238.8253 
L 153.961664 238.595839 
L 154.584348 238.595839 
L 154.584348 238.481109 
L 155.237298 238.481109 
L 155.237298 238.366379 
L 155.557205 238.366379 
L 155.557205 238.251648 
L 155.955208 238.251648 
L 155.955208 238.136918 
L 156.30945 238.136918 
L 156.30945 238.022188 
L 156.517691 238.022188 
L 156.565626 237.792727 
L 156.788581 237.792727 
L 156.847557 237.563266 
L 157.50474 237.563266 
L 157.50474 237.448536 
L 157.765022 237.448536 
L 157.765022 237.333805 
L 159.519846 237.333805 
L 159.519846 237.219075 
L 159.760634 237.219075 
L 159.785526 236.989614 
L 160.208198 236.989614 
L 160.208198 236.874884 
L 160.612567 236.874884 
L 160.612567 236.760154 
L 160.74373 236.760154 
L 160.830627 236.530693 
L 161.193463 236.530693 
L 161.210663 236.301232 
L 161.441786 236.301232 
L 161.441786 236.186502 
L 161.653133 236.186502 
L 161.653133 236.071772 
L 162.360435 236.071772 
L 162.360435 235.957041 
L 162.733045 235.957041 
L 162.736196 235.727581 
L 163.149212 235.727581 
L 163.153314 235.49812 
L 163.379457 235.49812 
L 163.379457 235.38339 
L 163.653591 235.38339 
L 163.653591 235.268659 
L 164.607388 235.268659 
L 164.607388 235.153929 
L 165.107627 235.153929 
L 165.107627 235.039199 
L 165.275472 235.039199 
L 165.295432 234.809738 
L 165.628646 234.809738 
L 165.628646 234.695008 
L 165.826791 234.695008 
L 165.835585 234.465547 
L 166.557159 234.465547 
L 166.557159 234.350817 
L 166.678201 234.350817 
L 166.678201 234.236086 
L 167.258164 234.236086 
L 167.258164 234.121356 
L 167.657869 234.121356 
L 167.691097 233.891895 
L 167.799832 233.891895 
L 167.799832 233.777165 
L 167.915698 233.777165 
L 167.966342 233.547704 
L 168.121256 233.547704 
L 168.121256 233.432974 
L 168.264866 233.432974 
L 168.264866 233.318243 
L 168.416403 233.318243 
L 168.416403 233.203513 
L 168.571145 233.203513 
L 168.577907 232.974052 
L 168.763962 232.974052 
L 168.763962 232.859322 
L 169.172381 232.859322 
L 169.172381 232.744592 
L 169.330661 232.744592 
L 169.330661 232.629861 
L 169.594855 232.629861 
L 169.594855 232.400401 
L 169.754982 232.400401 
L 169.773229 232.17094 
L 169.870458 232.17094 
L 169.870458 232.05621 
L 170.175393 232.05621 
L 170.175393 231.941479 
L 170.309227 231.941479 
L 170.33098 231.712019 
L 170.97127 231.712019 
L 170.973235 231.482558 
L 171.354709 231.482558 
L 171.379036 231.253097 
L 171.489361 231.253097 
L 171.489361 231.138367 
L 171.724254 231.138367 
L 171.724254 231.023637 
L 171.869783 231.023637 
L 171.869783 230.908906 
L 172.121725 230.908906 
L 172.121725 230.794176 
L 172.339833 230.794176 
L 172.390616 230.564715 
L 172.603619 230.564715 
L 172.603619 230.449985 
L 172.835249 230.449985 
L 172.835249 230.335255 
L 172.996921 230.335255 
L 172.996921 230.220524 
L 173.326137 230.220524 
L 173.326137 230.105794 
L 173.62621 230.105794 
L 173.64813 229.761603 
L 173.897968 229.761603 
L 173.95601 229.417412 
L 174.284021 229.417412 
L 174.284021 229.302681 
L 174.403838 229.302681 
L 174.501456 229.073221 
L 174.732584 229.073221 
L 174.817882 228.84376 
L 175.026726 228.84376 
L 175.026726 228.72903 
L 175.213598 228.72903 
L 175.213598 228.614299 
L 175.490708 228.614299 
L 175.538653 228.384839 
L 176.134155 228.384839 
L 176.230812 228.155378 
L 176.272901 228.155378 
L 176.30621 227.925917 
L 176.614066 227.925917 
L 176.614066 227.811187 
L 176.815232 227.811187 
L 176.815232 227.696457 
L 177.448587 227.696457 
L 177.540042 227.122805 
L 177.572813 227.122805 
L 177.572813 227.008075 
L 177.902021 227.008075 
L 177.924013 226.663884 
L 178.191832 226.663884 
L 178.191832 226.549153 
L 178.354259 226.549153 
L 178.355974 226.319692 
L 178.498183 226.319692 
L 178.498183 226.204962 
L 178.760325 226.204962 
L 178.760325 226.090232 
L 179.025188 226.090232 
L 179.025188 225.975501 
L 179.277143 225.975501 
L 179.277143 225.860771 
L 179.437472 225.860771 
L 179.515081 225.51658 
L 179.575561 225.51658 
L 179.575561 225.40185 
L 179.731993 225.40185 
L 179.731993 225.287119 
L 179.963455 225.287119 
L 179.968147 225.057659 
L 180.281581 225.057659 
L 180.36738 224.828198 
L 180.439445 224.828198 
L 180.439445 224.713468 
L 180.586463 224.713468 
L 180.689168 224.484007 
L 180.73487 224.484007 
L 180.824057 224.139816 
L 180.886477 224.139816 
L 180.886477 224.025086 
L 181.285762 224.025086 
L 181.392729 223.566164 
L 181.573724 223.566164 
L 181.679299 223.107243 
L 181.693824 223.107243 
L 181.693824 222.992513 
L 182.027714 222.992513 
L 182.056524 222.763052 
L 182.173355 222.763052 
L 182.173355 222.648321 
L 182.511118 222.648321 
L 182.582941 222.30413 
L 182.683266 222.30413 
L 182.709009 222.07467 
L 182.820568 222.07467 
L 182.92251 221.845209 
L 182.975562 221.845209 
L 182.988389 221.501018 
L 183.141578 221.501018 
L 183.247498 221.271557 
L 183.265304 221.271557 
L 183.367582 221.042097 
L 183.49515 221.042097 
L 183.556995 220.812636 
L 183.684454 220.812636 
L 183.76451 220.353715 
L 183.814438 220.353715 
L 183.883597 220.124254 
L 184.005599 220.124254 
L 184.005599 220.009524 
L 184.122132 220.009524 
L 184.122132 219.894793 
L 184.243399 219.894793 
L 184.328549 219.550602 
L 184.365045 219.550602 
L 184.365045 219.435872 
L 184.478303 219.435872 
L 184.552701 219.091681 
L 184.607617 219.091681 
L 184.607617 218.97695 
L 184.727947 218.97695 
L 184.74044 218.74749 
L 184.845975 218.74749 
L 184.906752 218.518029 
L 184.964384 218.518029 
L 184.964384 218.403299 
L 185.087241 218.403299 
L 185.17302 218.059108 
L 185.207792 218.059108 
L 185.305939 217.600186 
L 185.368867 217.600186 
L 185.426422 217.141265 
L 185.487208 217.141265 
L 185.550337 216.797074 
L 185.613804 216.797074 
L 185.713074 216.223422 
L 185.74005 216.223422 
L 185.74005 216.108692 
L 185.897974 216.108692 
L 185.933831 215.879231 
L 186.043998 215.879231 
L 186.117791 215.42031 
L 186.155667 215.42031 
L 186.266353 214.961388 
L 186.320755 214.961388 
L 186.426083 214.617197 
L 186.436877 214.617197 
L 186.531315 214.158276 
L 186.554108 214.158276 
L 186.647648 213.699355 
L 186.856428 213.699355 
L 186.957531 213.125703 
L 186.979774 213.125703 
L 187.067422 212.896242 
L 187.113936 212.896242 
L 187.218206 212.437321 
L 187.313648 212.437321 
L 187.377414 212.09313 
L 187.531634 212.09313 
L 187.626893 211.634209 
L 187.667667 211.634209 
L 187.735914 211.175287 
L 187.791418 211.175287 
L 187.791418 211.060557 
L 187.9252 211.060557 
L 188.029915 210.601635 
L 188.073689 210.601635 
L 188.171415 209.454332 
L 188.223848 209.454332 
L 188.270296 208.995411 
L 188.365479 208.995411 
L 188.439474 208.65122 
L 188.482474 208.65122 
L 188.513875 208.421759 
L 188.607266 208.421759 
L 188.653893 207.962838 
L 188.749138 207.962838 
L 188.852559 207.389186 
L 188.942522 207.389186 
L 189.029001 206.815534 
L 189.142335 206.815534 
L 189.142335 206.700804 
L 189.308564 206.700804 
L 189.308564 206.586073 
L 189.444639 206.586073 
L 189.534091 206.127152 
L 189.578534 206.127152 
L 189.685452 205.209309 
L 189.713197 205.209309 
L 189.713197 204.979849 
L 189.825072 204.979849 
L 189.935572 204.406197 
L 189.984287 204.406197 
L 190.033746 203.947275 
L 190.158416 203.947275 
L 190.263147 203.144163 
L 190.285446 203.144163 
L 190.34204 202.570511 
L 190.43753 202.570511 
L 190.542522 201.652669 
L 190.55467 201.652669 
L 190.663408 201.308478 
L 190.681606 201.308478 
L 190.759264 200.964287 
L 190.85711 200.964287 
L 190.963776 200.275904 
L 191.088193 200.275904 
L 191.173321 199.816983 
L 191.224445 199.816983 
L 191.300749 199.128601 
L 191.336026 199.128601 
L 191.426847 198.554949 
L 191.459443 198.554949 
L 191.537144 197.981298 
L 191.57677 197.981298 
L 191.670945 197.407646 
L 191.741543 197.407646 
L 191.825529 196.719264 
L 191.856796 196.719264 
L 191.946328 196.260342 
L 191.974631 196.260342 
L 192.057895 195.45723 
L 192.09226 195.45723 
L 192.170305 195.113039 
L 192.248197 195.113039 
L 192.328436 194.424657 
L 192.362849 194.424657 
L 192.40256 193.851005 
L 192.477897 193.851005 
L 192.570758 193.392084 
L 192.639136 193.392084 
L 192.714025 192.933162 
L 192.796088 192.933162 
L 192.895101 192.474241 
L 192.913162 192.474241 
L 193.004296 191.671129 
L 193.048854 191.671129 
L 193.153972 190.409095 
L 193.164064 190.409095 
L 193.164064 190.294365 
L 193.303832 190.294365 
L 193.379006 189.376522 
L 193.444293 189.376522 
L 193.515989 189.032331 
L 193.560515 189.032331 
L 193.65886 188.573409 
L 193.730747 188.573409 
L 193.841201 187.999758 
L 193.873461 187.999758 
L 193.947978 187.311376 
L 194.013969 187.311376 
L 194.115703 186.737724 
L 194.143298 186.737724 
L 194.223235 185.934612 
L 194.287162 185.934612 
L 194.392278 184.557847 
L 194.420976 184.557847 
L 194.510184 184.098926 
L 194.537162 184.098926 
L 194.637247 183.525274 
L 194.66302 183.525274 
L 194.766905 183.066353 
L 194.831541 183.066353 
L 194.906067 182.377971 
L 194.970852 182.377971 
L 195.066347 181.804319 
L 195.095107 181.804319 
L 195.196783 181.115937 
L 195.207065 181.115937 
L 195.30209 179.968634 
L 195.325442 179.968634 
L 195.39321 179.394982 
L 195.452836 179.394982 
L 195.48482 179.165521 
L 195.581223 179.165521 
L 195.678365 178.59187 
L 195.708354 178.59187 
L 195.819134 178.018218 
L 195.837555 178.018218 
L 195.933598 177.444566 
L 195.961745 177.444566 
L 196.057418 176.297263 
L 196.092657 176.297263 
L 196.147005 175.838341 
L 196.216589 175.838341 
L 196.27086 175.49415 
L 196.331388 175.49415 
L 196.439356 174.461577 
L 196.457894 174.461577 
L 196.544092 173.773195 
L 196.578965 173.773195 
L 196.668319 173.199543 
L 196.694557 173.199543 
L 196.755128 172.855352 
L 196.814597 172.855352 
L 196.903939 172.281701 
L 196.936919 172.281701 
L 197.021375 171.593319 
L 197.051051 171.593319 
L 197.139778 170.790206 
L 197.19635 170.790206 
L 197.295202 169.757633 
L 197.331495 169.757633 
L 197.432171 169.069251 
L 197.457142 169.069251 
L 197.547256 168.036678 
L 197.571065 168.036678 
L 197.661728 167.577757 
L 197.68524 167.577757 
L 197.775172 167.118835 
L 197.829021 167.118835 
L 197.938177 166.659914 
L 197.96536 166.659914 
L 198.050535 166.086262 
L 198.085845 166.086262 
L 198.194648 165.168419 
L 198.20729 165.168419 
L 198.2969 164.594768 
L 198.368638 164.594768 
L 198.476914 163.676925 
L 198.490975 163.676925 
L 198.598093 162.644352 
L 198.623328 162.644352 
L 198.712698 162.0707 
L 198.761604 162.0707 
L 198.861786 161.382318 
L 198.888624 161.382318 
L 198.970865 160.579206 
L 199.019709 160.579206 
L 199.127156 159.661363 
L 199.160874 159.661363 
L 199.23511 158.972981 
L 199.283091 158.972981 
L 199.390088 157.940408 
L 199.409203 157.940408 
L 199.515304 156.678374 
L 199.538738 156.678374 
L 199.646965 155.645801 
L 199.663906 155.645801 
L 199.71463 155.186879 
L 199.799846 155.186879 
L 199.893754 154.269037 
L 199.915066 154.269037 
L 200.014798 153.121733 
L 200.039426 153.121733 
L 200.136607 152.662812 
L 200.210119 152.662812 
L 200.319627 152.318621 
L 200.338723 152.318621 
L 200.43353 151.515508 
L 200.453589 151.515508 
L 200.5557 150.368205 
L 200.580776 150.368205 
L 200.676306 149.565093 
L 200.720605 149.565093 
L 200.82389 148.64725 
L 200.860031 148.64725 
L 200.95968 147.614677 
L 201.063078 147.614677 
L 201.17201 146.696834 
L 201.21137 146.696834 
L 201.31467 146.352643 
L 201.326391 146.352643 
L 201.419876 145.778991 
L 201.440887 145.778991 
L 201.5324 145.20534 
L 201.604565 145.20534 
L 201.683975 144.516957 
L 201.728821 144.516957 
L 201.833908 143.713845 
L 201.847404 143.713845 
L 201.958208 143.254924 
L 202.001914 143.254924 
L 202.089877 142.796002 
L 202.163937 142.796002 
L 202.225142 142.451811 
L 202.287002 142.451811 
L 202.397002 141.87816 
L 202.459548 141.87816 
L 202.551451 140.960317 
L 202.588141 140.960317 
L 202.673097 140.616126 
L 202.719079 140.616126 
L 202.740066 140.386665 
L 202.842304 140.386665 
L 202.951692 139.583553 
L 203.022293 139.583553 
L 203.119164 138.55098 
L 203.135015 138.55098 
L 203.238986 137.633137 
L 203.293049 137.633137 
L 203.362283 137.174215 
L 203.42269 137.174215 
L 203.527597 136.600564 
L 203.612139 136.600564 
L 203.648275 136.141642 
L 203.765327 136.141642 
L 203.848827 135.2238 
L 203.948639 135.2238 
L 204.042773 134.764878 
L 204.075085 134.764878 
L 204.180346 133.961766 
L 204.220093 133.961766 
L 204.288659 133.617575 
L 204.34382 133.617575 
L 204.413153 133.158653 
L 204.544121 133.158653 
L 204.624267 132.699732 
L 204.656849 132.699732 
L 204.717859 132.12608 
L 204.844126 132.12608 
L 204.906076 131.781889 
L 205.008034 131.781889 
L 205.093395 131.208238 
L 205.184786 131.208238 
L 205.246274 130.634586 
L 205.299498 130.634586 
L 205.38909 129.946204 
L 205.458386 129.946204 
L 205.5487 129.257822 
L 205.586351 129.257822 
L 205.674395 128.913631 
L 205.710972 128.913631 
L 205.817137 128.225249 
L 205.87927 128.225249 
L 205.979669 127.422136 
L 205.999627 127.422136 
L 206.08439 126.963215 
L 206.152637 126.963215 
L 206.238396 126.389563 
L 206.273031 126.389563 
L 206.342699 126.045372 
L 206.395864 126.045372 
L 206.462049 125.586451 
L 206.523722 125.586451 
L 206.585857 125.35699 
L 206.654966 125.35699 
L 206.671883 125.127529 
L 206.809404 125.127529 
L 206.854308 124.898069 
L 206.935276 124.898069 
L 207.001939 124.553878 
L 207.120667 124.553878 
L 207.203363 124.209687 
L 207.236709 124.209687 
L 207.236709 124.094956 
L 207.349952 124.094956 
L 207.411323 123.865496 
L 207.494511 123.865496 
L 207.594153 123.636035 
L 207.712913 123.636035 
L 207.712913 123.521305 
L 207.843838 123.521305 
L 207.843838 123.406574 
L 229.708055 123.406574 
L 229.708055 123.291844 
L 230.077662 123.291844 
L 230.077662 123.177114 
L 231.310049 123.177114 
L 231.310049 123.062383 
L 232.11098 123.062383 
L 232.11098 122.947653 
L 232.589673 122.947653 
L 232.589673 122.832923 
L 233.00694 122.832923 
L 233.00694 122.718192 
L 233.430011 122.718192 
L 233.430011 122.603462 
L 234.029788 122.603462 
L 234.029788 122.488732 
L 234.818751 122.488732 
L 234.818751 122.374001 
L 235.444386 122.374001 
L 235.54042 122.14454 
L 236.3584 122.14454 
L 236.3584 122.02981 
L 236.702331 122.02981 
L 236.702331 121.91508 
L 236.998748 121.91508 
L 236.998748 121.800349 
L 237.110644 121.800349 
L 237.110644 121.685619 
L 237.732192 121.685619 
L 237.732192 121.570889 
L 238.020126 121.570889 
L 238.020126 121.456158 
L 238.492885 121.456158 
L 238.495598 121.226698 
L 238.620313 121.226698 
L 238.627743 120.997237 
L 239.051502 120.997237 
L 239.051502 120.882507 
L 239.256359 120.882507 
L 239.256359 120.767776 
L 240.277444 120.767776 
L 240.277444 120.653046 
L 240.717791 120.653046 
L 240.717791 120.538316 
L 241.182504 120.538316 
L 241.182504 120.423585 
L 241.638615 120.423585 
L 241.638615 120.308855 
L 242.061046 120.308855 
L 242.061046 120.194125 
L 242.664284 120.194125 
L 242.664284 120.079394 
L 242.93587 120.079394 
L 242.93587 119.964664 
L 243.519255 119.964664 
L 243.519255 119.849934 
L 243.918628 119.849934 
L 243.956566 119.620473 
L 244.095645 119.620473 
L 244.095645 119.505743 
L 245.433556 119.505743 
L 245.433556 119.391012 
L 245.754731 119.391012 
L 245.754731 119.276282 
L 246.09327 119.276282 
L 246.09327 119.161552 
L 253.818116 119.161552 
L 253.818116 119.046821 
L 254.912154 119.046821 
L 254.912154 118.932091 
L 256.65872 118.932091 
L 256.65872 118.817361 
L 257.137823 118.817361 
L 257.242636 118.5879 
L 257.314853 118.5879 
L 257.314853 118.473169 
L 258.225808 118.473169 
L 258.225808 118.243709 
L 263.352602 118.243709 
L 263.352602 118.128978 
L 264.400444 118.128978 
L 264.400444 117.899518 
L 264.631811 117.899518 
L 264.631811 117.784787 
L 269.634034 117.784787 
L 269.634034 117.670057 
L 270.389628 117.670057 
L 270.389628 117.555327 
L 276.722622 117.555327 
L 276.820618 117.325866 
L 282.515409 117.325866 
L 282.515409 117.211136 
L 290.99683 117.211136 
L 290.99683 116.981675 
L 293.495501 116.981675 
L 293.495501 116.866945 
L 294.622263 116.866945 
L 294.622263 116.752214 
L 307.256598 116.752214 
L 307.256598 116.637484 
L 319.08283 116.637484 
L 319.08283 116.522754 
L 338.688 116.522754 
L 338.688 116.522754 
" style="fill:none;stroke:#ff00ff;stroke-linecap:square;stroke-width:1.5;"/>
   </g>
   <g id="line2d_41">
    <defs>
     <path d="M -0 8.485281 
L 5.091169 0 
L 0 -8.485281 
L -5.091169 -0 
z
" id="m522daabfe2" style="stroke:#ff00ff;stroke-linejoin:miter;stroke-width:1.5;"/>
    </defs>
    <g>
     <use style="fill-opacity:0;stroke:#ff00ff;stroke-linejoin:miter;stroke-width:1.5;" x="145.307262" xlink:href="#m522daabfe2" y="253.740245"/>
     <use style="fill-opacity:0;stroke:#ff00ff;stroke-linejoin:miter;stroke-width:1.5;" x="203.033129" xlink:href="#m522daabfe2" y="139.354092"/>
     <use style="fill-opacity:0;stroke:#ff00ff;stroke-linejoin:miter;stroke-width:1.5;" x="264.631811" xlink:href="#m522daabfe2" y="117.899518"/>
     <use style="fill-opacity:0;stroke:#ff00ff;stroke-linejoin:miter;stroke-width:1.5;" x="319.08283" xlink:href="#m522daabfe2" y="116.522754"/>
     <use style="fill-opacity:0;stroke:#ff00ff;stroke-linejoin:miter;stroke-width:1.5;" x="338.688" xlink:href="#m522daabfe2" y="116.522754"/>
    </g>
   </g>
   <g id="line2d_42">
    <path style="fill:none;stroke:#ff00ff;stroke-linecap:square;stroke-width:1.5;"/>
    <g/>
   </g>
   <g id="line2d_43">
    <path clip-path="url(#p5d108aba19)" d="M 246.289154 119.161552 
" style="fill:none;stroke:#ff00ff;stroke-linecap:square;stroke-width:1.5;"/>
    <defs>
     <path d="M -12 12 
L 12 -12 
M -12 -12 
L 12 12 
" id="m3804273837" style="stroke:#ff00ff;"/>
    </defs>
    <g clip-path="url(#p5d108aba19)">
     <use style="fill:#ff00ff;stroke:#ff00ff;" x="246.289154" xlink:href="#m3804273837" y="119.161552"/>
    </g>
   </g>
   <g id="line2d_44">
    <path d="M 338.688 117.670057 
L 369.60768 293.092752 
" style="fill:none;stroke:#000080;stroke-linecap:square;stroke-width:1.5;"/>
    <g>
     <use style="fill-opacity:0;stroke:#000080;stroke-width:1.5;" x="338.688" xlink:href="#mbf21d38c5a" y="117.670057"/>
     <use style="fill-opacity:0;stroke:#000080;stroke-width:1.5;" x="369.60768" xlink:href="#mbf21d38c5a" y="293.092752"/>
    </g>
   </g>
   <g id="line2d_45">
    <path d="M 338.688 116.522754 
L 369.60768 152.662812 
" style="fill:none;stroke:#ff00ff;stroke-linecap:square;stroke-width:1.5;"/>
    <g>
     <use style="fill-opacity:0;stroke:#ff00ff;stroke-linejoin:miter;stroke-width:1.5;" x="338.688" xlink:href="#m522daabfe2" y="116.522754"/>
     <use style="fill-opacity:0;stroke:#ff00ff;stroke-linejoin:miter;stroke-width:1.5;" x="369.60768" xlink:href="#m522daabfe2" y="152.662812"/>
    </g>
   </g>
   <g id="line2d_46">
    <path d="M 338.688 298.944 
L 338.688 6.381624 
" style="fill:none;stroke:#000000;stroke-linecap:square;stroke-width:1.5;"/>
   </g>
   <g id="patch_3">
    <path d="M 57.6 298.944 
L 57.6 3.456 
" style="fill:none;stroke:#000000;stroke-linecap:square;stroke-linejoin:miter;stroke-width:0.8;"/>
   </g>
   <g id="patch_4">
    <path d="M 338.688 298.944 
L 338.688 3.456 
" style="fill:none;stroke:#000000;stroke-linecap:square;stroke-linejoin:miter;stroke-width:0.8;"/>
   </g>
   <g id="patch_5">
    <path d="M 57.6 298.944 
L 338.688 298.944 
" style="fill:none;stroke:#000000;stroke-linecap:square;stroke-linejoin:miter;stroke-width:0.8;"/>
   </g>
   <g id="patch_6">
    <path d="M 57.6 3.456 
L 338.688 3.456 
" style="fill:none;stroke:#000000;stroke-linecap:square;stroke-linejoin:miter;stroke-width:0.8;"/>
   </g>
   <g id="text_13">
    <!-- BIPOP-CMA -->
    <g transform="translate(375.22944 297.78369)scale(0.17 -0.17)">
     <defs>
      <path d="M 19.671875 34.8125 
L 19.671875 8.109375 
L 35.5 8.109375 
Q 43.453125 8.109375 47.28125 11.40625 
Q 51.125 14.703125 51.125 21.484375 
Q 51.125 28.328125 47.28125 31.5625 
Q 43.453125 34.8125 35.5 34.8125 
z
M 19.671875 64.796875 
L 19.671875 42.828125 
L 34.28125 42.828125 
Q 41.5 42.828125 45.03125 45.53125 
Q 48.578125 48.25 48.578125 53.8125 
Q 48.578125 59.328125 45.03125 62.0625 
Q 41.5 64.796875 34.28125 64.796875 
z
M 9.8125 72.90625 
L 35.015625 72.90625 
Q 46.296875 72.90625 52.390625 68.21875 
Q 58.5 63.53125 58.5 54.890625 
Q 58.5 48.1875 55.375 44.234375 
Q 52.25 40.28125 46.1875 39.3125 
Q 53.46875 37.75 57.5 32.78125 
Q 61.53125 27.828125 61.53125 20.40625 
Q 61.53125 10.640625 54.890625 5.3125 
Q 48.25 0 35.984375 0 
L 9.8125 0 
z
" id="DejaVuSans-66"/>
      <path d="M 9.8125 72.90625 
L 19.671875 72.90625 
L 19.671875 0 
L 9.8125 0 
z
" id="DejaVuSans-73"/>
      <path d="M 19.671875 64.796875 
L 19.671875 37.40625 
L 32.078125 37.40625 
Q 38.96875 37.40625 42.71875 40.96875 
Q 46.484375 44.53125 46.484375 51.125 
Q 46.484375 57.671875 42.71875 61.234375 
Q 38.96875 64.796875 32.078125 64.796875 
z
M 9.8125 72.90625 
L 32.078125 72.90625 
Q 44.34375 72.90625 50.609375 67.359375 
Q 56.890625 61.8125 56.890625 51.125 
Q 56.890625 40.328125 50.609375 34.8125 
Q 44.34375 29.296875 32.078125 29.296875 
L 19.671875 29.296875 
L 19.671875 0 
L 9.8125 0 
z
" id="DejaVuSans-80"/>
      <path d="M 39.40625 66.21875 
Q 28.65625 66.21875 22.328125 58.203125 
Q 16.015625 50.203125 16.015625 36.375 
Q 16.015625 22.609375 22.328125 14.59375 
Q 28.65625 6.59375 39.40625 6.59375 
Q 50.140625 6.59375 56.421875 14.59375 
Q 62.703125 22.609375 62.703125 36.375 
Q 62.703125 50.203125 56.421875 58.203125 
Q 50.140625 66.21875 39.40625 66.21875 
z
M 39.40625 74.21875 
Q 54.734375 74.21875 63.90625 63.9375 
Q 73.09375 53.65625 73.09375 36.375 
Q 73.09375 19.140625 63.90625 8.859375 
Q 54.734375 -1.421875 39.40625 -1.421875 
Q 24.03125 -1.421875 14.8125 8.828125 
Q 5.609375 19.09375 5.609375 36.375 
Q 5.609375 53.65625 14.8125 63.9375 
Q 24.03125 74.21875 39.40625 74.21875 
z
" id="DejaVuSans-79"/>
      <path d="M 64.40625 67.28125 
L 64.40625 56.890625 
Q 59.421875 61.53125 53.78125 63.8125 
Q 48.140625 66.109375 41.796875 66.109375 
Q 29.296875 66.109375 22.65625 58.46875 
Q 16.015625 50.828125 16.015625 36.375 
Q 16.015625 21.96875 22.65625 14.328125 
Q 29.296875 6.6875 41.796875 6.6875 
Q 48.140625 6.6875 53.78125 8.984375 
Q 59.421875 11.28125 64.40625 15.921875 
L 64.40625 5.609375 
Q 59.234375 2.09375 53.4375 0.328125 
Q 47.65625 -1.421875 41.21875 -1.421875 
Q 24.65625 -1.421875 15.125 8.703125 
Q 5.609375 18.84375 5.609375 36.375 
Q 5.609375 53.953125 15.125 64.078125 
Q 24.65625 74.21875 41.21875 74.21875 
Q 47.75 74.21875 53.53125 72.484375 
Q 59.328125 70.75 64.40625 67.28125 
z
" id="DejaVuSans-67"/>
      <path d="M 9.8125 72.90625 
L 24.515625 72.90625 
L 43.109375 23.296875 
L 61.8125 72.90625 
L 76.515625 72.90625 
L 76.515625 0 
L 66.890625 0 
L 66.890625 64.015625 
L 48.09375 14.015625 
L 38.1875 14.015625 
L 19.390625 64.015625 
L 19.390625 0 
L 9.8125 0 
z
" id="DejaVuSans-77"/>
      <path d="M 34.1875 63.1875 
L 20.796875 26.90625 
L 47.609375 26.90625 
z
M 28.609375 72.90625 
L 39.796875 72.90625 
L 67.578125 0 
L 57.328125 0 
L 50.6875 18.703125 
L 17.828125 18.703125 
L 11.1875 0 
L 0.78125 0 
z
" id="DejaVuSans-65"/>
     </defs>
     <use xlink:href="#DejaVuSans-66"/>
     <use x="68.603516" xlink:href="#DejaVuSans-73"/>
     <use x="98.095703" xlink:href="#DejaVuSans-80"/>
     <use x="158.398438" xlink:href="#DejaVuSans-79"/>
     <use x="237.109375" xlink:href="#DejaVuSans-80"/>
     <use x="295.162109" xlink:href="#DejaVuSans-45"/>
     <use x="331.246094" xlink:href="#DejaVuSans-67"/>
     <use x="401.070312" xlink:href="#DejaVuSans-77"/>
     <use x="487.349609" xlink:href="#DejaVuSans-65"/>
    </g>
   </g>
   <g id="text_14">
    <!-- DE -->
    <g transform="translate(375.22944 157.353749)scale(0.17 -0.17)">
     <defs>
      <path d="M 19.671875 64.796875 
L 19.671875 8.109375 
L 31.59375 8.109375 
Q 46.6875 8.109375 53.6875 14.9375 
Q 60.6875 21.78125 60.6875 36.53125 
Q 60.6875 51.171875 53.6875 57.984375 
Q 46.6875 64.796875 31.59375 64.796875 
z
M 9.8125 72.90625 
L 30.078125 72.90625 
Q 51.265625 72.90625 61.171875 64.09375 
Q 71.09375 55.28125 71.09375 36.53125 
Q 71.09375 17.671875 61.125 8.828125 
Q 51.171875 0 30.078125 0 
L 9.8125 0 
z
" id="DejaVuSans-68"/>
      <path d="M 9.8125 72.90625 
L 55.90625 72.90625 
L 55.90625 64.59375 
L 19.671875 64.59375 
L 19.671875 43.015625 
L 54.390625 43.015625 
L 54.390625 34.71875 
L 19.671875 34.71875 
L 19.671875 8.296875 
L 56.78125 8.296875 
L 56.78125 0 
L 9.8125 0 
z
" id="DejaVuSans-69"/>
     </defs>
     <use xlink:href="#DejaVuSans-68"/>
     <use x="77.001953" xlink:href="#DejaVuSans-69"/>
    </g>
   </g>
   <g id="text_15">
    <!-- best 2009 -->
    <g transform="translate(375.22944 16.923809)scale(0.17 -0.17)">
     <defs>
      <path d="M 48.6875 27.296875 
Q 48.6875 37.203125 44.609375 42.84375 
Q 40.53125 48.484375 33.40625 48.484375 
Q 26.265625 48.484375 22.1875 42.84375 
Q 18.109375 37.203125 18.109375 27.296875 
Q 18.109375 17.390625 22.1875 11.75 
Q 26.265625 6.109375 33.40625 6.109375 
Q 40.53125 6.109375 44.609375 11.75 
Q 48.6875 17.390625 48.6875 27.296875 
z
M 18.109375 46.390625 
Q 20.953125 51.265625 25.265625 53.625 
Q 29.59375 56 35.59375 56 
Q 45.5625 56 51.78125 48.09375 
Q 58.015625 40.1875 58.015625 27.296875 
Q 58.015625 14.40625 51.78125 6.484375 
Q 45.5625 -1.421875 35.59375 -1.421875 
Q 29.59375 -1.421875 25.265625 0.953125 
Q 20.953125 3.328125 18.109375 8.203125 
L 18.109375 0 
L 9.078125 0 
L 9.078125 75.984375 
L 18.109375 75.984375 
z
" id="DejaVuSans-98"/>
      <path d="M 10.984375 1.515625 
L 10.984375 10.5 
Q 14.703125 8.734375 18.5 7.8125 
Q 22.3125 6.890625 25.984375 6.890625 
Q 35.75 6.890625 40.890625 13.453125 
Q 46.046875 20.015625 46.78125 33.40625 
Q 43.953125 29.203125 39.59375 26.953125 
Q 35.25 24.703125 29.984375 24.703125 
Q 19.046875 24.703125 12.671875 31.3125 
Q 6.296875 37.9375 6.296875 49.421875 
Q 6.296875 60.640625 12.9375 67.421875 
Q 19.578125 74.21875 30.609375 74.21875 
Q 43.265625 74.21875 49.921875 64.515625 
Q 56.59375 54.828125 56.59375 36.375 
Q 56.59375 19.140625 48.40625 8.859375 
Q 40.234375 -1.421875 26.421875 -1.421875 
Q 22.703125 -1.421875 18.890625 -0.6875 
Q 15.09375 0.046875 10.984375 1.515625 
z
M 30.609375 32.421875 
Q 37.25 32.421875 41.125 36.953125 
Q 45.015625 41.5 45.015625 49.421875 
Q 45.015625 57.28125 41.125 61.84375 
Q 37.25 66.40625 30.609375 66.40625 
Q 23.96875 66.40625 20.09375 61.84375 
Q 16.21875 57.28125 16.21875 49.421875 
Q 16.21875 41.5 20.09375 36.953125 
Q 23.96875 32.421875 30.609375 32.421875 
z
" id="DejaVuSans-57"/>
     </defs>
     <use xlink:href="#DejaVuSans-98"/>
     <use x="63.476562" xlink:href="#DejaVuSans-101"/>
     <use x="125" xlink:href="#DejaVuSans-115"/>
     <use x="177.099609" xlink:href="#DejaVuSans-116"/>
     <use x="216.308594" xlink:href="#DejaVuSans-32"/>
     <use x="248.095703" xlink:href="#DejaVuSans-50"/>
     <use x="311.71875" xlink:href="#DejaVuSans-48"/>
     <use x="375.341797" xlink:href="#DejaVuSans-48"/>
     <use x="438.964844" xlink:href="#DejaVuSans-57"/>
    </g>
   </g>
   <g id="text_16">
    <!-- bbob f1-f5, 40-D -->
    <g transform="translate(60.41088 14.161286)scale(0.102 -0.102)">
     <defs>
      <path d="M 10.796875 72.90625 
L 49.515625 72.90625 
L 49.515625 64.59375 
L 19.828125 64.59375 
L 19.828125 46.734375 
Q 21.96875 47.46875 24.109375 47.828125 
Q 26.265625 48.1875 28.421875 48.1875 
Q 40.625 48.1875 47.75 41.5 
Q 54.890625 34.8125 54.890625 23.390625 
Q 54.890625 11.625 47.5625 5.09375 
Q 40.234375 -1.421875 26.90625 -1.421875 
Q 22.3125 -1.421875 17.546875 -0.640625 
Q 12.796875 0.140625 7.71875 1.703125 
L 7.71875 11.625 
Q 12.109375 9.234375 16.796875 8.0625 
Q 21.484375 6.890625 26.703125 6.890625 
Q 35.15625 6.890625 40.078125 11.328125 
Q 45.015625 15.765625 45.015625 23.390625 
Q 45.015625 31 40.078125 35.4375 
Q 35.15625 39.890625 26.703125 39.890625 
Q 22.75 39.890625 18.8125 39.015625 
Q 14.890625 38.140625 10.796875 36.28125 
z
" id="DejaVuSans-53"/>
     </defs>
     <use xlink:href="#DejaVuSans-98"/>
     <use x="63.476562" xlink:href="#DejaVuSans-98"/>
     <use x="126.953125" xlink:href="#DejaVuSans-111"/>
     <use x="188.134766" xlink:href="#DejaVuSans-98"/>
     <use x="251.611328" xlink:href="#DejaVuSans-32"/>
     <use x="283.398438" xlink:href="#DejaVuSans-102"/>
     <use x="318.603516" xlink:href="#DejaVuSans-49"/>
     <use x="382.226562" xlink:href="#DejaVuSans-45"/>
     <use x="418.310547" xlink:href="#DejaVuSans-102"/>
     <use x="453.515625" xlink:href="#DejaVuSans-53"/>
     <use x="517.138672" xlink:href="#DejaVuSans-44"/>
     <use x="548.925781" xlink:href="#DejaVuSans-32"/>
     <use x="580.712891" xlink:href="#DejaVuSans-52"/>
     <use x="644.335938" xlink:href="#DejaVuSans-48"/>
     <use x="707.958984" xlink:href="#DejaVuSans-45"/>
     <use x="744.042969" xlink:href="#DejaVuSans-68"/>
    </g>
    <!-- 51 targets: 100..1e-08 -->
    <g transform="translate(60.41088 25.583055)scale(0.102 -0.102)">
     <defs>
      <path d="M 11.71875 12.40625 
L 22.015625 12.40625 
L 22.015625 0 
L 11.71875 0 
z
M 11.71875 51.703125 
L 22.015625 51.703125 
L 22.015625 39.3125 
L 11.71875 39.3125 
z
" id="DejaVuSans-58"/>
     </defs>
     <use xlink:href="#DejaVuSans-53"/>
     <use x="63.623047" xlink:href="#DejaVuSans-49"/>
     <use x="127.246094" xlink:href="#DejaVuSans-32"/>
     <use x="159.033203" xlink:href="#DejaVuSans-116"/>
     <use x="198.242188" xlink:href="#DejaVuSans-97"/>
     <use x="259.521484" xlink:href="#DejaVuSans-114"/>
     <use x="298.884766" xlink:href="#DejaVuSans-103"/>
     <use x="362.361328" xlink:href="#DejaVuSans-101"/>
     <use x="423.884766" xlink:href="#DejaVuSans-116"/>
     <use x="463.09375" xlink:href="#DejaVuSans-115"/>
     <use x="515.193359" xlink:href="#DejaVuSans-58"/>
     <use x="548.884766" xlink:href="#DejaVuSans-32"/>
     <use x="580.671875" xlink:href="#DejaVuSans-49"/>
     <use x="644.294922" xlink:href="#DejaVuSans-48"/>
     <use x="707.917969" xlink:href="#DejaVuSans-48"/>
     <use x="771.541016" xlink:href="#DejaVuSans-46"/>
     <use x="803.328125" xlink:href="#DejaVuSans-46"/>
     <use x="835.115234" xlink:href="#DejaVuSans-49"/>
     <use x="898.738281" xlink:href="#DejaVuSans-101"/>
     <use x="960.261719" xlink:href="#DejaVuSans-45"/>
     <use x="996.345703" xlink:href="#DejaVuSans-48"/>
     <use x="1059.96875" xlink:href="#DejaVuSans-56"/>
    </g>
    <!-- 15 instances -->
    <g transform="translate(60.41088 37.004824)scale(0.102 -0.102)">
     <use xlink:href="#DejaVuSans-49"/>
     <use x="63.623047" xlink:href="#DejaVuSans-53"/>
     <use x="127.246094" xlink:href="#DejaVuSans-32"/>
     <use x="159.033203" xlink:href="#DejaVuSans-105"/>
     <use x="186.816406" xlink:href="#DejaVuSans-110"/>
     <use x="250.195312" xlink:href="#DejaVuSans-115"/>
     <use x="302.294922" xlink:href="#DejaVuSans-116"/>
     <use x="341.503906" xlink:href="#DejaVuSans-97"/>
     <use x="402.783203" xlink:href="#DejaVuSans-110"/>
     <use x="466.162109" xlink:href="#DejaVuSans-99"/>
     <use x="521.142578" xlink:href="#DejaVuSans-101"/>
     <use x="582.666016" xlink:href="#DejaVuSans-115"/>
    </g>
   </g>
   <g id="text_17">
    <!-- v2.4 -->
    <g style="fill:#808080;" transform="translate(187.233062 293.909432)scale(0.1 -0.1)">
     <use xlink:href="#DejaVuSans-118"/>
     <use x="59.179688" xlink:href="#DejaVuSans-50"/>
     <use x="122.802734" xlink:href="#DejaVuSans-46"/>
     <use x="154.589844" xlink:href="#DejaVuSans-52"/>
    </g>
   </g>
  </g>
 </g>
 <defs>
  <clipPath id="p5d108aba19">
   <rect height="295.488" width="281.088" x="57.6" y="3.456"/>
  </clipPath>
 </defs>
</svg>
