<?xml version="1.0" encoding="utf-8" standalone="no"?>
<!DOCTYPE svg PUBLIC "-//W3C//DTD SVG 1.1//EN"
  "http://www.w3.org/Graphics/SVG/1.1/DTD/svg11.dtd">
<!-- Created with matplotlib (https://matplotlib.org/) -->
<svg height="345.6pt" version="1.1" viewBox="0 0 460.8 345.6" width="460.8pt" xmlns="http://www.w3.org/2000/svg" xmlns:xlink="http://www.w3.org/1999/xlink">
 <metadata>
  <rdf:RDF xmlns:cc="http://creativecommons.org/ns#" xmlns:dc="http://purl.org/dc/elements/1.1/" xmlns:rdf="http://www.w3.org/1999/02/22-rdf-syntax-ns#">
   <cc:Work>
    <dc:type rdf:resource="http://purl.org/dc/dcmitype/StillImage"/>
    <dc:date>2021-05-02T04:46:55.185179</dc:date>
    <dc:format>image/svg+xml</dc:format>
    <dc:creator>
     <cc:Agent>
      <dc:title>Matplotlib v3.3.2, https://matplotlib.org/</dc:title>
     </cc:Agent>
    </dc:creator>
   </cc:Work>
  </rdf:RDF>
 </metadata>
 <defs>
  <style type="text/css">*{stroke-linecap:butt;stroke-linejoin:round;}</style>
 </defs>
 <g id="figure_1">
  <g id="patch_1">
   <path d="M 0 345.6 
L 460.8 345.6 
L 460.8 0 
L 0 0 
z
" style="fill:#ffffff;"/>
  </g>
  <g id="axes_1">
   <g id="patch_2">
    <path d="M 57.6 298.944 
L 338.688 298.944 
L 338.688 3.456 
L 57.6 3.456 
z
" style="fill:#ffffff;"/>
   </g>
   <g id="line2d_1">
    <path d="M 36.60358 298.944 
L 36.60358 297.796697 
L 60.779557 297.796697 
L 60.779557 296.649393 
L 68.328395 296.649393 
L 68.328395 295.50209 
L 69.246464 295.50209 
L 69.246464 294.354786 
L 70.11861 294.354786 
L 70.11861 238.136918 
L 70.538854 238.136918 
L 70.538854 235.842311 
L 70.949209 235.842311 
L 70.949209 181.91905 
L 101.992235 181.91905 
L 101.992235 180.771746 
L 107.364602 180.771746 
L 107.364602 179.624443 
L 107.663568 179.624443 
L 107.663568 178.477139 
L 108.948899 178.477139 
L 109.040444 176.182532 
L 109.086037 176.182532 
L 109.176867 167.004105 
L 109.222105 167.004105 
L 109.31223 154.383767 
L 109.357119 154.383767 
L 109.446552 136.026912 
L 109.491096 136.026912 
L 109.535528 123.406574 
L 109.624052 123.406574 
L 109.624052 122.259271 
L 110.016944 122.259271 
L 110.016944 121.111967 
L 110.358901 121.111967 
L 110.358901 119.964664 
L 120.712642 119.964664 
L 120.712642 118.817361 
L 137.262416 118.817361 
L 137.262416 117.670057 
L 141.774395 117.670057 
L 141.774395 116.522754 
L 145.418169 116.522754 
L 145.418169 115.37545 
L 146.522046 115.37545 
L 146.522046 114.228147 
L 148.780082 114.228147 
L 148.780082 113.080843 
L 150.159417 113.080843 
L 150.159417 111.93354 
L 152.892686 111.93354 
L 152.892686 110.786236 
L 154.119001 110.786236 
L 154.119001 109.638933 
L 158.599388 109.638933 
L 158.599388 108.49163 
L 159.966168 108.49163 
L 159.966168 107.344326 
L 161.093366 107.344326 
L 161.093366 106.197023 
L 161.224411 106.197023 
L 161.320345 48.831851 
L 161.336283 48.831851 
L 161.420284 33.916906 
L 161.456484 33.916906 
L 161.56688 20.149265 
L 161.569126 20.149265 
L 161.571372 17.854658 
L 196.553307 17.854658 
L 196.554213 15.560051 
L 212.133226 15.560051 
L 212.133721 6.381624 
L 338.688 6.381624 
L 338.688 6.381624 
" style="fill:none;stroke:#f5deb3;stroke-linecap:square;stroke-width:4;"/>
   </g>
   <g id="line2d_2">
    <defs>
     <path d="M -0 7.778175 
L 7.778175 0 
L 0 -7.778175 
L -7.778175 -0 
z
" id="mdf43991895" style="stroke:#f5deb3;stroke-linejoin:miter;stroke-width:1.5;"/>
    </defs>
    <g>
     <use style="fill:#f5deb3;stroke:#f5deb3;stroke-linejoin:miter;stroke-width:1.5;" x="70.949209" xlink:href="#mdf43991895" y="235.842311"/>
     <use style="fill:#f5deb3;stroke:#f5deb3;stroke-linejoin:miter;stroke-width:1.5;" x="120.712642" xlink:href="#mdf43991895" y="118.817361"/>
     <use style="fill:#f5deb3;stroke:#f5deb3;stroke-linejoin:miter;stroke-width:1.5;" x="161.571372" xlink:href="#mdf43991895" y="17.854658"/>
     <use style="fill:#f5deb3;stroke:#f5deb3;stroke-linejoin:miter;stroke-width:1.5;" x="212.133721" xlink:href="#mdf43991895" y="6.381624"/>
     <use style="fill:#f5deb3;stroke:#f5deb3;stroke-linejoin:miter;stroke-width:1.5;" x="212.133721" xlink:href="#mdf43991895" y="6.381624"/>
     <use style="fill:#f5deb3;stroke:#f5deb3;stroke-linejoin:miter;stroke-width:1.5;" x="338.688" xlink:href="#mdf43991895" y="6.381624"/>
    </g>
   </g>
   <g id="line2d_3">
    <path style="fill:none;stroke:#f5deb3;stroke-linecap:square;stroke-width:4;"/>
    <g/>
   </g>
   <g id="line2d_4">
    <path d="M 338.688 6.381624 
L 369.60768 12.232871 
" style="fill:none;stroke:#f5deb3;stroke-linecap:square;stroke-width:4;"/>
    <g>
     <use style="fill:#f5deb3;stroke:#f5deb3;stroke-linejoin:miter;stroke-width:1.5;" x="338.688" xlink:href="#mdf43991895" y="6.381624"/>
     <use style="fill:#f5deb3;stroke:#f5deb3;stroke-linejoin:miter;stroke-width:1.5;" x="369.60768" xlink:href="#mdf43991895" y="12.232871"/>
    </g>
   </g>
   <g id="matplotlib.axis_1">
    <g id="xtick_1">
     <g id="line2d_5">
      <path clip-path="url(#pe991fe4a41)" d="M 57.6 298.944 
L 57.6 3.456 
" style="fill:none;stroke:#b0b0b0;stroke-linecap:square;stroke-width:0.8;"/>
     </g>
     <g id="line2d_6">
      <defs>
       <path d="M 0 0 
L 0 3.5 
" id="m8326587086" style="stroke:#000000;stroke-width:0.8;"/>
      </defs>
      <g>
       <use style="stroke:#000000;stroke-width:0.8;" x="57.6" xlink:href="#m8326587086" y="298.944"/>
      </g>
     </g>
     <g id="text_1">
      <!-- 0 -->
      <g transform="translate(51.2375 321.140875)scale(0.2 -0.2)">
       <defs>
        <path d="M 31.78125 66.40625 
Q 24.171875 66.40625 20.328125 58.90625 
Q 16.5 51.421875 16.5 36.375 
Q 16.5 21.390625 20.328125 13.890625 
Q 24.171875 6.390625 31.78125 6.390625 
Q 39.453125 6.390625 43.28125 13.890625 
Q 47.125 21.390625 47.125 36.375 
Q 47.125 51.421875 43.28125 58.90625 
Q 39.453125 66.40625 31.78125 66.40625 
z
M 31.78125 74.21875 
Q 44.046875 74.21875 50.515625 64.515625 
Q 56.984375 54.828125 56.984375 36.375 
Q 56.984375 17.96875 50.515625 8.265625 
Q 44.046875 -1.421875 31.78125 -1.421875 
Q 19.53125 -1.421875 13.0625 8.265625 
Q 6.59375 17.96875 6.59375 36.375 
Q 6.59375 54.828125 13.0625 64.515625 
Q 19.53125 74.21875 31.78125 74.21875 
z
" id="DejaVuSans-48"/>
       </defs>
       <use xlink:href="#DejaVuSans-48"/>
      </g>
     </g>
    </g>
    <g id="xtick_2">
     <g id="line2d_7">
      <path clip-path="url(#pe991fe4a41)" d="M 137.910857 298.944 
L 137.910857 3.456 
" style="fill:none;stroke:#b0b0b0;stroke-linecap:square;stroke-width:0.8;"/>
     </g>
     <g id="line2d_8">
      <g>
       <use style="stroke:#000000;stroke-width:0.8;" x="137.910857" xlink:href="#m8326587086" y="298.944"/>
      </g>
     </g>
     <g id="text_2">
      <!-- 2 -->
      <g transform="translate(131.548357 321.140875)scale(0.2 -0.2)">
       <defs>
        <path d="M 19.1875 8.296875 
L 53.609375 8.296875 
L 53.609375 0 
L 7.328125 0 
L 7.328125 8.296875 
Q 12.9375 14.109375 22.625 23.890625 
Q 32.328125 33.6875 34.8125 36.53125 
Q 39.546875 41.84375 41.421875 45.53125 
Q 43.3125 49.21875 43.3125 52.78125 
Q 43.3125 58.59375 39.234375 62.25 
Q 35.15625 65.921875 28.609375 65.921875 
Q 23.96875 65.921875 18.8125 64.3125 
Q 13.671875 62.703125 7.8125 59.421875 
L 7.8125 69.390625 
Q 13.765625 71.78125 18.9375 73 
Q 24.125 74.21875 28.421875 74.21875 
Q 39.75 74.21875 46.484375 68.546875 
Q 53.21875 62.890625 53.21875 53.421875 
Q 53.21875 48.921875 51.53125 44.890625 
Q 49.859375 40.875 45.40625 35.40625 
Q 44.1875 33.984375 37.640625 27.21875 
Q 31.109375 20.453125 19.1875 8.296875 
z
" id="DejaVuSans-50"/>
       </defs>
       <use xlink:href="#DejaVuSans-50"/>
      </g>
     </g>
    </g>
    <g id="xtick_3">
     <g id="line2d_9">
      <path clip-path="url(#pe991fe4a41)" d="M 218.221714 298.944 
L 218.221714 3.456 
" style="fill:none;stroke:#b0b0b0;stroke-linecap:square;stroke-width:0.8;"/>
     </g>
     <g id="line2d_10">
      <g>
       <use style="stroke:#000000;stroke-width:0.8;" x="218.221714" xlink:href="#m8326587086" y="298.944"/>
      </g>
     </g>
     <g id="text_3">
      <!-- 4 -->
      <g transform="translate(211.859214 321.140875)scale(0.2 -0.2)">
       <defs>
        <path d="M 37.796875 64.3125 
L 12.890625 25.390625 
L 37.796875 25.390625 
z
M 35.203125 72.90625 
L 47.609375 72.90625 
L 47.609375 25.390625 
L 58.015625 25.390625 
L 58.015625 17.1875 
L 47.609375 17.1875 
L 47.609375 0 
L 37.796875 0 
L 37.796875 17.1875 
L 4.890625 17.1875 
L 4.890625 26.703125 
z
" id="DejaVuSans-52"/>
       </defs>
       <use xlink:href="#DejaVuSans-52"/>
      </g>
     </g>
    </g>
    <g id="xtick_4">
     <g id="line2d_11">
      <path clip-path="url(#pe991fe4a41)" d="M 298.532571 298.944 
L 298.532571 3.456 
" style="fill:none;stroke:#b0b0b0;stroke-linecap:square;stroke-width:0.8;"/>
     </g>
     <g id="line2d_12">
      <g>
       <use style="stroke:#000000;stroke-width:0.8;" x="298.532571" xlink:href="#m8326587086" y="298.944"/>
      </g>
     </g>
     <g id="text_4">
      <!-- 6 -->
      <g transform="translate(292.170071 321.140875)scale(0.2 -0.2)">
       <defs>
        <path d="M 33.015625 40.375 
Q 26.375 40.375 22.484375 35.828125 
Q 18.609375 31.296875 18.609375 23.390625 
Q 18.609375 15.53125 22.484375 10.953125 
Q 26.375 6.390625 33.015625 6.390625 
Q 39.65625 6.390625 43.53125 10.953125 
Q 47.40625 15.53125 47.40625 23.390625 
Q 47.40625 31.296875 43.53125 35.828125 
Q 39.65625 40.375 33.015625 40.375 
z
M 52.59375 71.296875 
L 52.59375 62.3125 
Q 48.875 64.0625 45.09375 64.984375 
Q 41.3125 65.921875 37.59375 65.921875 
Q 27.828125 65.921875 22.671875 59.328125 
Q 17.53125 52.734375 16.796875 39.40625 
Q 19.671875 43.65625 24.015625 45.921875 
Q 28.375 48.1875 33.59375 48.1875 
Q 44.578125 48.1875 50.953125 41.515625 
Q 57.328125 34.859375 57.328125 23.390625 
Q 57.328125 12.15625 50.6875 5.359375 
Q 44.046875 -1.421875 33.015625 -1.421875 
Q 20.359375 -1.421875 13.671875 8.265625 
Q 6.984375 17.96875 6.984375 36.375 
Q 6.984375 53.65625 15.1875 63.9375 
Q 23.390625 74.21875 37.203125 74.21875 
Q 40.921875 74.21875 44.703125 73.484375 
Q 48.484375 72.75 52.59375 71.296875 
z
" id="DejaVuSans-54"/>
       </defs>
       <use xlink:href="#DejaVuSans-54"/>
      </g>
     </g>
    </g>
    <g id="xtick_5">
     <g id="line2d_13">
      <path clip-path="url(#pe991fe4a41)" d="M 97.755429 298.944 
L 97.755429 3.456 
" style="fill:none;stroke:#b0b0b0;stroke-linecap:square;stroke-width:0.8;"/>
     </g>
     <g id="line2d_14">
      <defs>
       <path d="M 0 0 
L 0 2 
" id="m782fdedc68" style="stroke:#000000;stroke-width:0.6;"/>
      </defs>
      <g>
       <use style="stroke:#000000;stroke-width:0.6;" x="97.755429" xlink:href="#m782fdedc68" y="298.944"/>
      </g>
     </g>
    </g>
    <g id="xtick_6">
     <g id="line2d_15">
      <path clip-path="url(#pe991fe4a41)" d="M 178.066286 298.944 
L 178.066286 3.456 
" style="fill:none;stroke:#b0b0b0;stroke-linecap:square;stroke-width:0.8;"/>
     </g>
     <g id="line2d_16">
      <g>
       <use style="stroke:#000000;stroke-width:0.6;" x="178.066286" xlink:href="#m782fdedc68" y="298.944"/>
      </g>
     </g>
    </g>
    <g id="xtick_7">
     <g id="line2d_17">
      <path clip-path="url(#pe991fe4a41)" d="M 258.377143 298.944 
L 258.377143 3.456 
" style="fill:none;stroke:#b0b0b0;stroke-linecap:square;stroke-width:0.8;"/>
     </g>
     <g id="line2d_18">
      <g>
       <use style="stroke:#000000;stroke-width:0.6;" x="258.377143" xlink:href="#m782fdedc68" y="298.944"/>
      </g>
     </g>
    </g>
    <g id="xtick_8">
     <g id="line2d_19">
      <path clip-path="url(#pe991fe4a41)" d="M 338.688 298.944 
L 338.688 3.456 
" style="fill:none;stroke:#b0b0b0;stroke-linecap:square;stroke-width:0.8;"/>
     </g>
     <g id="line2d_20">
      <g>
       <use style="stroke:#000000;stroke-width:0.6;" x="338.688" xlink:href="#m782fdedc68" y="298.944"/>
      </g>
     </g>
    </g>
    <g id="text_5">
     <!-- log10(# f-evals / dimension) -->
     <g transform="translate(77.764078 342.217594)scale(0.17 -0.17)">
      <defs>
       <path d="M 9.421875 75.984375 
L 18.40625 75.984375 
L 18.40625 0 
L 9.421875 0 
z
" id="DejaVuSans-108"/>
       <path d="M 30.609375 48.390625 
Q 23.390625 48.390625 19.1875 42.75 
Q 14.984375 37.109375 14.984375 27.296875 
Q 14.984375 17.484375 19.15625 11.84375 
Q 23.34375 6.203125 30.609375 6.203125 
Q 37.796875 6.203125 41.984375 11.859375 
Q 46.1875 17.53125 46.1875 27.296875 
Q 46.1875 37.015625 41.984375 42.703125 
Q 37.796875 48.390625 30.609375 48.390625 
z
M 30.609375 56 
Q 42.328125 56 49.015625 48.375 
Q 55.71875 40.765625 55.71875 27.296875 
Q 55.71875 13.875 49.015625 6.21875 
Q 42.328125 -1.421875 30.609375 -1.421875 
Q 18.84375 -1.421875 12.171875 6.21875 
Q 5.515625 13.875 5.515625 27.296875 
Q 5.515625 40.765625 12.171875 48.375 
Q 18.84375 56 30.609375 56 
z
" id="DejaVuSans-111"/>
       <path d="M 45.40625 27.984375 
Q 45.40625 37.75 41.375 43.109375 
Q 37.359375 48.484375 30.078125 48.484375 
Q 22.859375 48.484375 18.828125 43.109375 
Q 14.796875 37.75 14.796875 27.984375 
Q 14.796875 18.265625 18.828125 12.890625 
Q 22.859375 7.515625 30.078125 7.515625 
Q 37.359375 7.515625 41.375 12.890625 
Q 45.40625 18.265625 45.40625 27.984375 
z
M 54.390625 6.78125 
Q 54.390625 -7.171875 48.1875 -13.984375 
Q 42 -20.796875 29.203125 -20.796875 
Q 24.46875 -20.796875 20.265625 -20.09375 
Q 16.0625 -19.390625 12.109375 -17.921875 
L 12.109375 -9.1875 
Q 16.0625 -11.328125 19.921875 -12.34375 
Q 23.78125 -13.375 27.78125 -13.375 
Q 36.625 -13.375 41.015625 -8.765625 
Q 45.40625 -4.15625 45.40625 5.171875 
L 45.40625 9.625 
Q 42.625 4.78125 38.28125 2.390625 
Q 33.9375 0 27.875 0 
Q 17.828125 0 11.671875 7.65625 
Q 5.515625 15.328125 5.515625 27.984375 
Q 5.515625 40.671875 11.671875 48.328125 
Q 17.828125 56 27.875 56 
Q 33.9375 56 38.28125 53.609375 
Q 42.625 51.21875 45.40625 46.390625 
L 45.40625 54.6875 
L 54.390625 54.6875 
z
" id="DejaVuSans-103"/>
       <path d="M 12.40625 8.296875 
L 28.515625 8.296875 
L 28.515625 63.921875 
L 10.984375 60.40625 
L 10.984375 69.390625 
L 28.421875 72.90625 
L 38.28125 72.90625 
L 38.28125 8.296875 
L 54.390625 8.296875 
L 54.390625 0 
L 12.40625 0 
z
" id="DejaVuSans-49"/>
       <path d="M 31 75.875 
Q 24.46875 64.65625 21.28125 53.65625 
Q 18.109375 42.671875 18.109375 31.390625 
Q 18.109375 20.125 21.3125 9.0625 
Q 24.515625 -2 31 -13.1875 
L 23.1875 -13.1875 
Q 15.875 -1.703125 12.234375 9.375 
Q 8.59375 20.453125 8.59375 31.390625 
Q 8.59375 42.28125 12.203125 53.3125 
Q 15.828125 64.359375 23.1875 75.875 
z
" id="DejaVuSans-40"/>
       <path d="M 51.125 44 
L 36.921875 44 
L 32.8125 27.6875 
L 47.125 27.6875 
z
M 43.796875 71.78125 
L 38.71875 51.515625 
L 52.984375 51.515625 
L 58.109375 71.78125 
L 65.921875 71.78125 
L 60.890625 51.515625 
L 76.125 51.515625 
L 76.125 44 
L 58.984375 44 
L 54.984375 27.6875 
L 70.515625 27.6875 
L 70.515625 20.21875 
L 53.078125 20.21875 
L 48 0 
L 40.1875 0 
L 45.21875 20.21875 
L 30.90625 20.21875 
L 25.875 0 
L 18.015625 0 
L 23.09375 20.21875 
L 7.71875 20.21875 
L 7.71875 27.6875 
L 24.90625 27.6875 
L 29 44 
L 13.28125 44 
L 13.28125 51.515625 
L 30.90625 51.515625 
L 35.890625 71.78125 
z
" id="DejaVuSans-35"/>
       <path id="DejaVuSans-32"/>
       <path d="M 37.109375 75.984375 
L 37.109375 68.5 
L 28.515625 68.5 
Q 23.6875 68.5 21.796875 66.546875 
Q 19.921875 64.59375 19.921875 59.515625 
L 19.921875 54.6875 
L 34.71875 54.6875 
L 34.71875 47.703125 
L 19.921875 47.703125 
L 19.921875 0 
L 10.890625 0 
L 10.890625 47.703125 
L 2.296875 47.703125 
L 2.296875 54.6875 
L 10.890625 54.6875 
L 10.890625 58.5 
Q 10.890625 67.625 15.140625 71.796875 
Q 19.390625 75.984375 28.609375 75.984375 
z
" id="DejaVuSans-102"/>
       <path d="M 4.890625 31.390625 
L 31.203125 31.390625 
L 31.203125 23.390625 
L 4.890625 23.390625 
z
" id="DejaVuSans-45"/>
       <path d="M 56.203125 29.59375 
L 56.203125 25.203125 
L 14.890625 25.203125 
Q 15.484375 15.921875 20.484375 11.0625 
Q 25.484375 6.203125 34.421875 6.203125 
Q 39.59375 6.203125 44.453125 7.46875 
Q 49.3125 8.734375 54.109375 11.28125 
L 54.109375 2.78125 
Q 49.265625 0.734375 44.1875 -0.34375 
Q 39.109375 -1.421875 33.890625 -1.421875 
Q 20.796875 -1.421875 13.15625 6.1875 
Q 5.515625 13.8125 5.515625 26.8125 
Q 5.515625 40.234375 12.765625 48.109375 
Q 20.015625 56 32.328125 56 
Q 43.359375 56 49.78125 48.890625 
Q 56.203125 41.796875 56.203125 29.59375 
z
M 47.21875 32.234375 
Q 47.125 39.59375 43.09375 43.984375 
Q 39.0625 48.390625 32.421875 48.390625 
Q 24.90625 48.390625 20.390625 44.140625 
Q 15.875 39.890625 15.1875 32.171875 
z
" id="DejaVuSans-101"/>
       <path d="M 2.984375 54.6875 
L 12.5 54.6875 
L 29.59375 8.796875 
L 46.6875 54.6875 
L 56.203125 54.6875 
L 35.6875 0 
L 23.484375 0 
z
" id="DejaVuSans-118"/>
       <path d="M 34.28125 27.484375 
Q 23.390625 27.484375 19.1875 25 
Q 14.984375 22.515625 14.984375 16.5 
Q 14.984375 11.71875 18.140625 8.90625 
Q 21.296875 6.109375 26.703125 6.109375 
Q 34.1875 6.109375 38.703125 11.40625 
Q 43.21875 16.703125 43.21875 25.484375 
L 43.21875 27.484375 
z
M 52.203125 31.203125 
L 52.203125 0 
L 43.21875 0 
L 43.21875 8.296875 
Q 40.140625 3.328125 35.546875 0.953125 
Q 30.953125 -1.421875 24.3125 -1.421875 
Q 15.921875 -1.421875 10.953125 3.296875 
Q 6 8.015625 6 15.921875 
Q 6 25.140625 12.171875 29.828125 
Q 18.359375 34.515625 30.609375 34.515625 
L 43.21875 34.515625 
L 43.21875 35.40625 
Q 43.21875 41.609375 39.140625 45 
Q 35.0625 48.390625 27.6875 48.390625 
Q 23 48.390625 18.546875 47.265625 
Q 14.109375 46.140625 10.015625 43.890625 
L 10.015625 52.203125 
Q 14.9375 54.109375 19.578125 55.046875 
Q 24.21875 56 28.609375 56 
Q 40.484375 56 46.34375 49.84375 
Q 52.203125 43.703125 52.203125 31.203125 
z
" id="DejaVuSans-97"/>
       <path d="M 44.28125 53.078125 
L 44.28125 44.578125 
Q 40.484375 46.53125 36.375 47.5 
Q 32.28125 48.484375 27.875 48.484375 
Q 21.1875 48.484375 17.84375 46.4375 
Q 14.5 44.390625 14.5 40.28125 
Q 14.5 37.15625 16.890625 35.375 
Q 19.28125 33.59375 26.515625 31.984375 
L 29.59375 31.296875 
Q 39.15625 29.25 43.1875 25.515625 
Q 47.21875 21.78125 47.21875 15.09375 
Q 47.21875 7.46875 41.1875 3.015625 
Q 35.15625 -1.421875 24.609375 -1.421875 
Q 20.21875 -1.421875 15.453125 -0.5625 
Q 10.6875 0.296875 5.421875 2 
L 5.421875 11.28125 
Q 10.40625 8.6875 15.234375 7.390625 
Q 20.0625 6.109375 24.8125 6.109375 
Q 31.15625 6.109375 34.5625 8.28125 
Q 37.984375 10.453125 37.984375 14.40625 
Q 37.984375 18.0625 35.515625 20.015625 
Q 33.0625 21.96875 24.703125 23.78125 
L 21.578125 24.515625 
Q 13.234375 26.265625 9.515625 29.90625 
Q 5.8125 33.546875 5.8125 39.890625 
Q 5.8125 47.609375 11.28125 51.796875 
Q 16.75 56 26.8125 56 
Q 31.78125 56 36.171875 55.265625 
Q 40.578125 54.546875 44.28125 53.078125 
z
" id="DejaVuSans-115"/>
       <path d="M 25.390625 72.90625 
L 33.6875 72.90625 
L 8.296875 -9.28125 
L 0 -9.28125 
z
" id="DejaVuSans-47"/>
       <path d="M 45.40625 46.390625 
L 45.40625 75.984375 
L 54.390625 75.984375 
L 54.390625 0 
L 45.40625 0 
L 45.40625 8.203125 
Q 42.578125 3.328125 38.25 0.953125 
Q 33.9375 -1.421875 27.875 -1.421875 
Q 17.96875 -1.421875 11.734375 6.484375 
Q 5.515625 14.40625 5.515625 27.296875 
Q 5.515625 40.1875 11.734375 48.09375 
Q 17.96875 56 27.875 56 
Q 33.9375 56 38.25 53.625 
Q 42.578125 51.265625 45.40625 46.390625 
z
M 14.796875 27.296875 
Q 14.796875 17.390625 18.875 11.75 
Q 22.953125 6.109375 30.078125 6.109375 
Q 37.203125 6.109375 41.296875 11.75 
Q 45.40625 17.390625 45.40625 27.296875 
Q 45.40625 37.203125 41.296875 42.84375 
Q 37.203125 48.484375 30.078125 48.484375 
Q 22.953125 48.484375 18.875 42.84375 
Q 14.796875 37.203125 14.796875 27.296875 
z
" id="DejaVuSans-100"/>
       <path d="M 9.421875 54.6875 
L 18.40625 54.6875 
L 18.40625 0 
L 9.421875 0 
z
M 9.421875 75.984375 
L 18.40625 75.984375 
L 18.40625 64.59375 
L 9.421875 64.59375 
z
" id="DejaVuSans-105"/>
       <path d="M 52 44.1875 
Q 55.375 50.25 60.0625 53.125 
Q 64.75 56 71.09375 56 
Q 79.640625 56 84.28125 50.015625 
Q 88.921875 44.046875 88.921875 33.015625 
L 88.921875 0 
L 79.890625 0 
L 79.890625 32.71875 
Q 79.890625 40.578125 77.09375 44.375 
Q 74.3125 48.1875 68.609375 48.1875 
Q 61.625 48.1875 57.5625 43.546875 
Q 53.515625 38.921875 53.515625 30.90625 
L 53.515625 0 
L 44.484375 0 
L 44.484375 32.71875 
Q 44.484375 40.625 41.703125 44.40625 
Q 38.921875 48.1875 33.109375 48.1875 
Q 26.21875 48.1875 22.15625 43.53125 
Q 18.109375 38.875 18.109375 30.90625 
L 18.109375 0 
L 9.078125 0 
L 9.078125 54.6875 
L 18.109375 54.6875 
L 18.109375 46.1875 
Q 21.1875 51.21875 25.484375 53.609375 
Q 29.78125 56 35.6875 56 
Q 41.65625 56 45.828125 52.96875 
Q 50 49.953125 52 44.1875 
z
" id="DejaVuSans-109"/>
       <path d="M 54.890625 33.015625 
L 54.890625 0 
L 45.90625 0 
L 45.90625 32.71875 
Q 45.90625 40.484375 42.875 44.328125 
Q 39.84375 48.1875 33.796875 48.1875 
Q 26.515625 48.1875 22.3125 43.546875 
Q 18.109375 38.921875 18.109375 30.90625 
L 18.109375 0 
L 9.078125 0 
L 9.078125 54.6875 
L 18.109375 54.6875 
L 18.109375 46.1875 
Q 21.34375 51.125 25.703125 53.5625 
Q 30.078125 56 35.796875 56 
Q 45.21875 56 50.046875 50.171875 
Q 54.890625 44.34375 54.890625 33.015625 
z
" id="DejaVuSans-110"/>
       <path d="M 8.015625 75.875 
L 15.828125 75.875 
Q 23.140625 64.359375 26.78125 53.3125 
Q 30.421875 42.28125 30.421875 31.390625 
Q 30.421875 20.453125 26.78125 9.375 
Q 23.140625 -1.703125 15.828125 -13.1875 
L 8.015625 -13.1875 
Q 14.5 -2 17.703125 9.0625 
Q 20.90625 20.125 20.90625 31.390625 
Q 20.90625 42.671875 17.703125 53.65625 
Q 14.5 64.65625 8.015625 75.875 
z
" id="DejaVuSans-41"/>
      </defs>
      <use xlink:href="#DejaVuSans-108"/>
      <use x="27.783203" xlink:href="#DejaVuSans-111"/>
      <use x="88.964844" xlink:href="#DejaVuSans-103"/>
      <use x="152.441406" xlink:href="#DejaVuSans-49"/>
      <use x="216.064453" xlink:href="#DejaVuSans-48"/>
      <use x="279.6875" xlink:href="#DejaVuSans-40"/>
      <use x="318.701172" xlink:href="#DejaVuSans-35"/>
      <use x="402.490234" xlink:href="#DejaVuSans-32"/>
      <use x="434.277344" xlink:href="#DejaVuSans-102"/>
      <use x="463.982422" xlink:href="#DejaVuSans-45"/>
      <use x="500.066406" xlink:href="#DejaVuSans-101"/>
      <use x="561.589844" xlink:href="#DejaVuSans-118"/>
      <use x="620.769531" xlink:href="#DejaVuSans-97"/>
      <use x="682.048828" xlink:href="#DejaVuSans-108"/>
      <use x="709.832031" xlink:href="#DejaVuSans-115"/>
      <use x="761.931641" xlink:href="#DejaVuSans-32"/>
      <use x="793.71875" xlink:href="#DejaVuSans-47"/>
      <use x="827.410156" xlink:href="#DejaVuSans-32"/>
      <use x="859.197266" xlink:href="#DejaVuSans-100"/>
      <use x="922.673828" xlink:href="#DejaVuSans-105"/>
      <use x="950.457031" xlink:href="#DejaVuSans-109"/>
      <use x="1047.869141" xlink:href="#DejaVuSans-101"/>
      <use x="1109.392578" xlink:href="#DejaVuSans-110"/>
      <use x="1172.771484" xlink:href="#DejaVuSans-115"/>
      <use x="1224.871094" xlink:href="#DejaVuSans-105"/>
      <use x="1252.654297" xlink:href="#DejaVuSans-111"/>
      <use x="1313.835938" xlink:href="#DejaVuSans-110"/>
      <use x="1377.214844" xlink:href="#DejaVuSans-41"/>
     </g>
    </g>
   </g>
   <g id="matplotlib.axis_2">
    <g id="ytick_1">
     <g id="line2d_21">
      <path clip-path="url(#pe991fe4a41)" d="M 57.6 298.944 
L 338.688 298.944 
" style="fill:none;stroke:#b0b0b0;stroke-linecap:square;stroke-width:0.8;"/>
     </g>
     <g id="line2d_22">
      <defs>
       <path d="M 0 0 
L -3.5 0 
" id="mf251a431d0" style="stroke:#000000;stroke-width:0.8;"/>
      </defs>
      <g>
       <use style="stroke:#000000;stroke-width:0.8;" x="57.6" xlink:href="#mf251a431d0" y="298.944"/>
      </g>
     </g>
     <g id="text_6">
      <!-- 0.0 -->
      <g transform="translate(25.155 305.02275)scale(0.16 -0.16)">
       <defs>
        <path d="M 10.6875 12.40625 
L 21 12.40625 
L 21 0 
L 10.6875 0 
z
" id="DejaVuSans-46"/>
       </defs>
       <use xlink:href="#DejaVuSans-48"/>
       <use x="63.623047" xlink:href="#DejaVuSans-46"/>
       <use x="95.410156" xlink:href="#DejaVuSans-48"/>
      </g>
     </g>
    </g>
    <g id="ytick_2">
     <g id="line2d_23">
      <path clip-path="url(#pe991fe4a41)" d="M 57.6 240.431525 
L 338.688 240.431525 
" style="fill:none;stroke:#b0b0b0;stroke-linecap:square;stroke-width:0.8;"/>
     </g>
     <g id="line2d_24">
      <g>
       <use style="stroke:#000000;stroke-width:0.8;" x="57.6" xlink:href="#mf251a431d0" y="240.431525"/>
      </g>
     </g>
     <g id="text_7">
      <!-- 0.2 -->
      <g transform="translate(25.155 246.510275)scale(0.16 -0.16)">
       <use xlink:href="#DejaVuSans-48"/>
       <use x="63.623047" xlink:href="#DejaVuSans-46"/>
       <use x="95.410156" xlink:href="#DejaVuSans-50"/>
      </g>
     </g>
    </g>
    <g id="ytick_3">
     <g id="line2d_25">
      <path clip-path="url(#pe991fe4a41)" d="M 57.6 181.91905 
L 338.688 181.91905 
" style="fill:none;stroke:#b0b0b0;stroke-linecap:square;stroke-width:0.8;"/>
     </g>
     <g id="line2d_26">
      <g>
       <use style="stroke:#000000;stroke-width:0.8;" x="57.6" xlink:href="#mf251a431d0" y="181.91905"/>
      </g>
     </g>
     <g id="text_8">
      <!-- 0.4 -->
      <g transform="translate(25.155 187.9978)scale(0.16 -0.16)">
       <use xlink:href="#DejaVuSans-48"/>
       <use x="63.623047" xlink:href="#DejaVuSans-46"/>
       <use x="95.410156" xlink:href="#DejaVuSans-52"/>
      </g>
     </g>
    </g>
    <g id="ytick_4">
     <g id="line2d_27">
      <path clip-path="url(#pe991fe4a41)" d="M 57.6 123.406574 
L 338.688 123.406574 
" style="fill:none;stroke:#b0b0b0;stroke-linecap:square;stroke-width:0.8;"/>
     </g>
     <g id="line2d_28">
      <g>
       <use style="stroke:#000000;stroke-width:0.8;" x="57.6" xlink:href="#mf251a431d0" y="123.406574"/>
      </g>
     </g>
     <g id="text_9">
      <!-- 0.6 -->
      <g transform="translate(25.155 129.485324)scale(0.16 -0.16)">
       <use xlink:href="#DejaVuSans-48"/>
       <use x="63.623047" xlink:href="#DejaVuSans-46"/>
       <use x="95.410156" xlink:href="#DejaVuSans-54"/>
      </g>
     </g>
    </g>
    <g id="ytick_5">
     <g id="line2d_29">
      <path clip-path="url(#pe991fe4a41)" d="M 57.6 64.894099 
L 338.688 64.894099 
" style="fill:none;stroke:#b0b0b0;stroke-linecap:square;stroke-width:0.8;"/>
     </g>
     <g id="line2d_30">
      <g>
       <use style="stroke:#000000;stroke-width:0.8;" x="57.6" xlink:href="#mf251a431d0" y="64.894099"/>
      </g>
     </g>
     <g id="text_10">
      <!-- 0.8 -->
      <g transform="translate(25.155 70.972849)scale(0.16 -0.16)">
       <defs>
        <path d="M 31.78125 34.625 
Q 24.75 34.625 20.71875 30.859375 
Q 16.703125 27.09375 16.703125 20.515625 
Q 16.703125 13.921875 20.71875 10.15625 
Q 24.75 6.390625 31.78125 6.390625 
Q 38.8125 6.390625 42.859375 10.171875 
Q 46.921875 13.96875 46.921875 20.515625 
Q 46.921875 27.09375 42.890625 30.859375 
Q 38.875 34.625 31.78125 34.625 
z
M 21.921875 38.8125 
Q 15.578125 40.375 12.03125 44.71875 
Q 8.5 49.078125 8.5 55.328125 
Q 8.5 64.0625 14.71875 69.140625 
Q 20.953125 74.21875 31.78125 74.21875 
Q 42.671875 74.21875 48.875 69.140625 
Q 55.078125 64.0625 55.078125 55.328125 
Q 55.078125 49.078125 51.53125 44.71875 
Q 48 40.375 41.703125 38.8125 
Q 48.828125 37.15625 52.796875 32.3125 
Q 56.78125 27.484375 56.78125 20.515625 
Q 56.78125 9.90625 50.3125 4.234375 
Q 43.84375 -1.421875 31.78125 -1.421875 
Q 19.734375 -1.421875 13.25 4.234375 
Q 6.78125 9.90625 6.78125 20.515625 
Q 6.78125 27.484375 10.78125 32.3125 
Q 14.796875 37.15625 21.921875 38.8125 
z
M 18.3125 54.390625 
Q 18.3125 48.734375 21.84375 45.5625 
Q 25.390625 42.390625 31.78125 42.390625 
Q 38.140625 42.390625 41.71875 45.5625 
Q 45.3125 48.734375 45.3125 54.390625 
Q 45.3125 60.0625 41.71875 63.234375 
Q 38.140625 66.40625 31.78125 66.40625 
Q 25.390625 66.40625 21.84375 63.234375 
Q 18.3125 60.0625 18.3125 54.390625 
z
" id="DejaVuSans-56"/>
       </defs>
       <use xlink:href="#DejaVuSans-48"/>
       <use x="63.623047" xlink:href="#DejaVuSans-46"/>
       <use x="95.410156" xlink:href="#DejaVuSans-56"/>
      </g>
     </g>
    </g>
    <g id="ytick_6">
     <g id="line2d_31">
      <path clip-path="url(#pe991fe4a41)" d="M 57.6 6.381624 
L 338.688 6.381624 
" style="fill:none;stroke:#b0b0b0;stroke-linecap:square;stroke-width:0.8;"/>
     </g>
     <g id="line2d_32">
      <g>
       <use style="stroke:#000000;stroke-width:0.8;" x="57.6" xlink:href="#mf251a431d0" y="6.381624"/>
      </g>
     </g>
     <g id="text_11">
      <!-- 1.0 -->
      <g transform="translate(25.155 12.460374)scale(0.16 -0.16)">
       <use xlink:href="#DejaVuSans-49"/>
       <use x="63.623047" xlink:href="#DejaVuSans-46"/>
       <use x="95.410156" xlink:href="#DejaVuSans-48"/>
      </g>
     </g>
    </g>
    <g id="text_12">
     <!-- Fraction of function,target pairs -->
     <g transform="translate(17.619531 285.585)rotate(-90)scale(0.17 -0.17)">
      <defs>
       <path d="M 9.8125 72.90625 
L 51.703125 72.90625 
L 51.703125 64.59375 
L 19.671875 64.59375 
L 19.671875 43.109375 
L 48.578125 43.109375 
L 48.578125 34.8125 
L 19.671875 34.8125 
L 19.671875 0 
L 9.8125 0 
z
" id="DejaVuSans-70"/>
       <path d="M 41.109375 46.296875 
Q 39.59375 47.171875 37.8125 47.578125 
Q 36.03125 48 33.890625 48 
Q 26.265625 48 22.1875 43.046875 
Q 18.109375 38.09375 18.109375 28.8125 
L 18.109375 0 
L 9.078125 0 
L 9.078125 54.6875 
L 18.109375 54.6875 
L 18.109375 46.1875 
Q 20.953125 51.171875 25.484375 53.578125 
Q 30.03125 56 36.53125 56 
Q 37.453125 56 38.578125 55.875 
Q 39.703125 55.765625 41.0625 55.515625 
z
" id="DejaVuSans-114"/>
       <path d="M 48.78125 52.59375 
L 48.78125 44.1875 
Q 44.96875 46.296875 41.140625 47.34375 
Q 37.3125 48.390625 33.40625 48.390625 
Q 24.65625 48.390625 19.8125 42.84375 
Q 14.984375 37.3125 14.984375 27.296875 
Q 14.984375 17.28125 19.8125 11.734375 
Q 24.65625 6.203125 33.40625 6.203125 
Q 37.3125 6.203125 41.140625 7.25 
Q 44.96875 8.296875 48.78125 10.40625 
L 48.78125 2.09375 
Q 45.015625 0.34375 40.984375 -0.53125 
Q 36.96875 -1.421875 32.421875 -1.421875 
Q 20.0625 -1.421875 12.78125 6.34375 
Q 5.515625 14.109375 5.515625 27.296875 
Q 5.515625 40.671875 12.859375 48.328125 
Q 20.21875 56 33.015625 56 
Q 37.15625 56 41.109375 55.140625 
Q 45.0625 54.296875 48.78125 52.59375 
z
" id="DejaVuSans-99"/>
       <path d="M 18.3125 70.21875 
L 18.3125 54.6875 
L 36.8125 54.6875 
L 36.8125 47.703125 
L 18.3125 47.703125 
L 18.3125 18.015625 
Q 18.3125 11.328125 20.140625 9.421875 
Q 21.96875 7.515625 27.59375 7.515625 
L 36.8125 7.515625 
L 36.8125 0 
L 27.59375 0 
Q 17.1875 0 13.234375 3.875 
Q 9.28125 7.765625 9.28125 18.015625 
L 9.28125 47.703125 
L 2.6875 47.703125 
L 2.6875 54.6875 
L 9.28125 54.6875 
L 9.28125 70.21875 
z
" id="DejaVuSans-116"/>
       <path d="M 8.5 21.578125 
L 8.5 54.6875 
L 17.484375 54.6875 
L 17.484375 21.921875 
Q 17.484375 14.15625 20.5 10.265625 
Q 23.53125 6.390625 29.59375 6.390625 
Q 36.859375 6.390625 41.078125 11.03125 
Q 45.3125 15.671875 45.3125 23.6875 
L 45.3125 54.6875 
L 54.296875 54.6875 
L 54.296875 0 
L 45.3125 0 
L 45.3125 8.40625 
Q 42.046875 3.421875 37.71875 1 
Q 33.40625 -1.421875 27.6875 -1.421875 
Q 18.265625 -1.421875 13.375 4.4375 
Q 8.5 10.296875 8.5 21.578125 
z
M 31.109375 56 
z
" id="DejaVuSans-117"/>
       <path d="M 11.71875 12.40625 
L 22.015625 12.40625 
L 22.015625 4 
L 14.015625 -11.625 
L 7.71875 -11.625 
L 11.71875 4 
z
" id="DejaVuSans-44"/>
       <path d="M 18.109375 8.203125 
L 18.109375 -20.796875 
L 9.078125 -20.796875 
L 9.078125 54.6875 
L 18.109375 54.6875 
L 18.109375 46.390625 
Q 20.953125 51.265625 25.265625 53.625 
Q 29.59375 56 35.59375 56 
Q 45.5625 56 51.78125 48.09375 
Q 58.015625 40.1875 58.015625 27.296875 
Q 58.015625 14.40625 51.78125 6.484375 
Q 45.5625 -1.421875 35.59375 -1.421875 
Q 29.59375 -1.421875 25.265625 0.953125 
Q 20.953125 3.328125 18.109375 8.203125 
z
M 48.6875 27.296875 
Q 48.6875 37.203125 44.609375 42.84375 
Q 40.53125 48.484375 33.40625 48.484375 
Q 26.265625 48.484375 22.1875 42.84375 
Q 18.109375 37.203125 18.109375 27.296875 
Q 18.109375 17.390625 22.1875 11.75 
Q 26.265625 6.109375 33.40625 6.109375 
Q 40.53125 6.109375 44.609375 11.75 
Q 48.6875 17.390625 48.6875 27.296875 
z
" id="DejaVuSans-112"/>
      </defs>
      <use xlink:href="#DejaVuSans-70"/>
      <use x="50.269531" xlink:href="#DejaVuSans-114"/>
      <use x="91.382812" xlink:href="#DejaVuSans-97"/>
      <use x="152.662109" xlink:href="#DejaVuSans-99"/>
      <use x="207.642578" xlink:href="#DejaVuSans-116"/>
      <use x="246.851562" xlink:href="#DejaVuSans-105"/>
      <use x="274.634766" xlink:href="#DejaVuSans-111"/>
      <use x="335.816406" xlink:href="#DejaVuSans-110"/>
      <use x="399.195312" xlink:href="#DejaVuSans-32"/>
      <use x="430.982422" xlink:href="#DejaVuSans-111"/>
      <use x="492.164062" xlink:href="#DejaVuSans-102"/>
      <use x="527.369141" xlink:href="#DejaVuSans-32"/>
      <use x="559.15625" xlink:href="#DejaVuSans-102"/>
      <use x="594.361328" xlink:href="#DejaVuSans-117"/>
      <use x="657.740234" xlink:href="#DejaVuSans-110"/>
      <use x="721.119141" xlink:href="#DejaVuSans-99"/>
      <use x="776.099609" xlink:href="#DejaVuSans-116"/>
      <use x="815.308594" xlink:href="#DejaVuSans-105"/>
      <use x="843.091797" xlink:href="#DejaVuSans-111"/>
      <use x="904.273438" xlink:href="#DejaVuSans-110"/>
      <use x="967.652344" xlink:href="#DejaVuSans-44"/>
      <use x="999.439453" xlink:href="#DejaVuSans-116"/>
      <use x="1038.648438" xlink:href="#DejaVuSans-97"/>
      <use x="1099.927734" xlink:href="#DejaVuSans-114"/>
      <use x="1139.291016" xlink:href="#DejaVuSans-103"/>
      <use x="1202.767578" xlink:href="#DejaVuSans-101"/>
      <use x="1264.291016" xlink:href="#DejaVuSans-116"/>
      <use x="1303.5" xlink:href="#DejaVuSans-32"/>
      <use x="1335.287109" xlink:href="#DejaVuSans-112"/>
      <use x="1398.763672" xlink:href="#DejaVuSans-97"/>
      <use x="1460.042969" xlink:href="#DejaVuSans-105"/>
      <use x="1487.826172" xlink:href="#DejaVuSans-114"/>
      <use x="1528.939453" xlink:href="#DejaVuSans-115"/>
     </g>
    </g>
   </g>
   <g id="line2d_33">
    <defs>
     <path d="M 0 1.5 
C 0.397805 1.5 0.77937 1.341951 1.06066 1.06066 
C 1.341951 0.77937 1.5 0.397805 1.5 0 
C 1.5 -0.397805 1.341951 -0.77937 1.06066 -1.06066 
C 0.77937 -1.341951 0.397805 -1.5 0 -1.5 
C -0.397805 -1.5 -0.77937 -1.341951 -1.06066 -1.06066 
C -1.341951 -0.77937 -1.5 -0.397805 -1.5 0 
C -1.5 0.397805 -1.341951 0.77937 -1.06066 1.06066 
C -0.77937 1.341951 -0.397805 1.5 0 1.5 
z
" id="m5f8d905cf1" style="stroke:#f5deb3;"/>
    </defs>
    <g>
     <use style="fill:#f5deb3;stroke:#f5deb3;" x="212.133721" xlink:href="#m5f8d905cf1" y="6.381624"/>
     <use style="fill:#f5deb3;stroke:#f5deb3;" x="212.133721" xlink:href="#m5f8d905cf1" y="6.381624"/>
    </g>
   </g>
   <g id="line2d_34">
    <defs>
     <path d="M 0 1.5 
C 0.397805 1.5 0.77937 1.341951 1.06066 1.06066 
C 1.341951 0.77937 1.5 0.397805 1.5 0 
C 1.5 -0.397805 1.341951 -0.77937 1.06066 -1.06066 
C 0.77937 -1.341951 0.397805 -1.5 0 -1.5 
C -0.397805 -1.5 -0.77937 -1.341951 -1.06066 -1.06066 
C -1.341951 -0.77937 -1.5 -0.397805 -1.5 0 
C -1.5 0.397805 -1.341951 0.77937 -1.06066 1.06066 
C -0.77937 1.341951 -0.397805 1.5 0 1.5 
z
" id="me8bec1b972" style="stroke:#000080;"/>
    </defs>
    <g>
     <use style="fill:#000080;stroke:#000080;" x="290.543307" xlink:href="#me8bec1b972" y="110.786236"/>
     <use style="fill:#000080;stroke:#000080;" x="290.543307" xlink:href="#me8bec1b972" y="110.786236"/>
    </g>
   </g>
   <g id="line2d_35">
    <path d="M 58.450865 298.944 
L 58.450865 298.82927 
L 63.467834 298.82927 
L 63.467834 298.714539 
L 65.796525 298.714539 
L 65.796525 298.599809 
L 66.333161 298.599809 
L 66.333161 298.485079 
L 66.853775 298.485079 
L 66.853775 298.370348 
L 72.867545 298.370348 
L 72.867545 298.255618 
L 73.579452 298.255618 
L 73.579452 298.140888 
L 75.86449 298.140888 
L 75.86449 298.026157 
L 76.759008 298.026157 
L 76.759008 297.911427 
L 78.421149 297.911427 
L 78.421149 297.796697 
L 79.196356 297.796697 
L 79.196356 297.681966 
L 80.179111 297.681966 
L 80.179111 297.567236 
L 80.416384 297.567236 
L 80.416384 297.452506 
L 80.881459 297.452506 
L 80.881459 297.337775 
L 81.109427 297.337775 
L 81.109427 297.223045 
L 81.775977 297.223045 
L 81.775977 296.878854 
L 82.417986 296.878854 
L 82.417986 296.764123 
L 83.037197 296.764123 
L 83.037197 296.419932 
L 84.02273 296.419932 
L 84.02273 296.305202 
L 84.401859 296.305202 
L 84.401859 296.190472 
L 84.772922 296.190472 
L 84.772922 296.075741 
L 85.66744 296.075741 
L 85.66744 295.846281 
L 86.351421 295.846281 
L 86.351421 295.73155 
L 87.329581 295.73155 
L 87.329581 295.272629 
L 87.643811 295.272629 
L 87.643811 295.157899 
L 87.952479 295.157899 
L 87.952479 295.043168 
L 89.135256 295.043168 
L 89.135256 294.813708 
L 89.418828 294.813708 
L 89.418828 294.354786 
L 89.558903 294.354786 
L 89.558903 294.240056 
L 89.697862 294.240056 
L 89.697862 294.010595 
L 89.972502 294.010595 
L 89.972502 293.895865 
L 91.284345 293.895865 
L 91.284345 293.781135 
L 91.535274 293.781135 
L 91.535274 293.666404 
L 91.905025 293.666404 
L 91.905025 293.551674 
L 92.026554 293.551674 
L 92.026554 293.322213 
L 92.267099 293.322213 
L 92.267099 293.207483 
L 92.386139 293.207483 
L 92.386139 293.092752 
L 92.621809 293.092752 
L 92.621809 292.978022 
L 93.754628 292.978022 
L 93.754628 292.748561 
L 94.610715 292.748561 
L 94.610715 292.40437 
L 94.921215 292.40437 
L 95.023499 292.17491 
L 95.426737 292.17491 
L 95.426737 292.060179 
L 95.820862 292.060179 
L 95.918017 291.601258 
L 96.395835 291.601258 
L 96.395835 291.371797 
L 96.583356 291.371797 
L 96.583356 291.142337 
L 96.86091 291.142337 
L 96.952455 290.912876 
L 97.224242 290.912876 
L 97.313904 290.683415 
L 97.403108 290.683415 
L 97.403108 290.568685 
L 97.668013 290.568685 
L 97.755429 290.224494 
L 97.842408 290.224494 
L 97.842408 290.109764 
L 98.18605 290.109764 
L 98.270913 289.650842 
L 98.43941 289.650842 
L 98.43941 289.306651 
L 98.771596 289.306651 
L 98.771596 289.191921 
L 99.016649 289.191921 
L 99.016649 289.07719 
L 99.258306 289.07719 
L 99.338119 288.618269 
L 99.80948 288.618269 
L 99.80948 288.388808 
L 99.963811 288.388808 
L 100.040467 288.159348 
L 100.192776 288.159348 
L 100.268435 287.815157 
L 100.343767 287.815157 
L 100.343767 287.700426 
L 100.567829 287.700426 
L 100.641881 287.356235 
L 100.715621 287.356235 
L 100.789049 286.897314 
L 100.934985 286.897314 
L 100.934985 286.667853 
L 101.151625 286.667853 
L 101.151625 280.357684 
L 101.365607 280.357684 
L 101.436355 280.013493 
L 101.576995 280.013493 
L 101.576995 276.915774 
L 101.71651 276.915774 
L 101.71651 276.571583 
L 102.060491 276.571583 
L 102.12848 276.342122 
L 102.196206 276.342122 
L 102.263669 273.359133 
L 102.530943 273.359133 
L 102.597126 269.917223 
L 102.859376 269.917223 
L 102.859376 269.573032 
L 102.989037 269.573032 
L 103.053508 268.99938 
L 103.117741 268.99938 
L 103.117741 268.76992 
L 103.685435 268.76992 
L 103.747386 255.805391 
L 103.809118 255.805391 
L 103.809118 255.57593 
L 103.93193 255.57593 
L 103.93193 252.13402 
L 104.053884 252.13402 
L 104.053884 252.019289 
L 104.23523 252.019289 
L 104.23523 251.675098 
L 104.533344 251.675098 
L 104.592361 247.659536 
L 104.768221 247.659536 
L 104.826449 247.200615 
L 105.114708 247.200615 
L 105.171792 241.119907 
L 105.22869 241.119907 
L 105.22869 241.005176 
L 105.398279 241.005176 
L 105.398279 240.890446 
L 105.621863 240.890446 
L 105.621863 240.775716 
L 106.006367 240.775716 
L 106.006367 240.431525 
L 106.222336 240.431525 
L 106.329326 240.202064 
L 106.854645 240.202064 
L 106.906317 236.645423 
L 107.162405 236.645423 
L 107.162405 233.662434 
L 107.514726 233.662434 
L 107.514726 233.547704 
L 107.762095 233.547704 
L 107.762095 233.432974 
L 108.198707 233.432974 
L 108.198707 233.088783 
L 108.902946 233.088783 
L 108.902946 232.744592 
L 109.040444 232.744592 
L 109.040444 232.629861 
L 109.357119 232.629861 
L 109.357119 232.515131 
L 110.274038 232.515131 
L 110.274038 232.400401 
L 110.818406 232.400401 
L 110.818406 232.17094 
L 111.780817 232.17094 
L 111.819788 231.482558 
L 111.897469 231.482558 
L 111.897469 231.367828 
L 112.09017 231.367828 
L 112.09017 231.253097 
L 112.204777 231.253097 
L 112.204777 231.138367 
L 112.766778 231.138367 
L 112.766778 230.908906 
L 113.27546 230.908906 
L 113.382559 230.449985 
L 113.489005 230.449985 
L 113.489005 230.335255 
L 114.045996 230.335255 
L 114.045996 230.220524 
L 114.552496 230.220524 
L 114.552496 229.991063 
L 114.816733 229.991063 
L 114.816733 229.876333 
L 115.012316 229.876333 
L 115.012316 229.761603 
L 115.269727 229.761603 
L 115.269727 229.646872 
L 115.460322 229.646872 
L 115.523393 229.417412 
L 115.742365 229.417412 
L 115.742365 229.302681 
L 115.989297 229.302681 
L 115.989297 229.187951 
L 116.232781 229.187951 
L 116.232781 229.073221 
L 116.35326 229.073221 
L 116.443076 228.72903 
L 116.680349 228.72903 
L 116.680349 228.614299 
L 116.972471 228.614299 
L 116.972471 228.499569 
L 117.116718 228.499569 
L 117.145424 228.155378 
L 117.542433 228.155378 
L 117.542433 228.040648 
L 117.737599 228.040648 
L 117.84815 227.581726 
L 117.875678 227.581726 
L 117.985359 227.352266 
L 118.497128 227.352266 
L 118.497128 227.008075 
L 118.734401 227.008075 
L 118.734401 226.893344 
L 118.890808 226.893344 
L 118.890808 226.663884 
L 119.020084 226.663884 
L 119.071527 226.090232 
L 119.477701 226.090232 
L 119.527814 225.860771 
L 119.89914 225.860771 
L 119.89914 225.63131 
L 120.045484 225.63131 
L 120.142369 225.40185 
L 120.262724 225.40185 
L 120.33454 225.172389 
L 120.852343 225.172389 
L 120.944859 224.942928 
L 121.013926 224.942928 
L 121.059819 224.713468 
L 121.377731 224.713468 
L 121.377731 224.598737 
L 121.556827 224.598737 
L 121.667835 224.369277 
L 121.77814 224.369277 
L 121.887753 224.139816 
L 121.974949 224.139816 
L 122.083336 223.910355 
L 122.104932 223.910355 
L 122.104932 223.795625 
L 122.40451 223.795625 
L 122.40451 223.680895 
L 122.573415 223.680895 
L 122.573415 223.566164 
L 122.740699 223.566164 
L 122.823744 223.107243 
L 122.885768 223.107243 
L 122.885768 222.992513 
L 123.374182 222.992513 
L 123.434283 222.648321 
L 123.613353 222.648321 
L 123.613353 222.533591 
L 123.927229 222.533591 
L 123.94666 221.959939 
L 124.330801 221.959939 
L 124.406624 221.615748 
L 124.538526 221.615748 
L 124.613453 221.386288 
L 124.836322 221.386288 
L 124.854767 221.042097 
L 125.019895 221.042097 
L 125.019895 220.927366 
L 125.147256 220.927366 
L 125.219619 220.468445 
L 125.434921 220.468445 
L 125.470548 220.238984 
L 125.682793 220.238984 
L 125.787955 219.894793 
L 125.805421 219.894793 
L 125.805421 219.780063 
L 126.270496 219.780063 
L 126.270496 219.550602 
L 126.405947 219.550602 
L 126.439646 219.206411 
L 126.72349 219.206411 
L 126.756581 218.97695 
L 126.87191 218.97695 
L 126.937471 218.74749 
L 127.116504 218.74749 
L 127.148859 217.944377 
L 127.595635 217.944377 
L 127.595635 217.829647 
L 127.799239 217.829647 
L 127.845889 217.600186 
L 128.229861 217.600186 
L 128.335875 217.255995 
L 128.350967 217.255995 
L 128.366047 217.026535 
L 128.709321 217.026535 
L 128.783061 216.452883 
L 128.871138 216.452883 
L 128.973336 216.108692 
L 129.002426 216.108692 
L 129.002426 215.993962 
L 129.118302 215.993962 
L 129.118302 215.879231 
L 129.262072 215.879231 
L 129.347769 215.53504 
L 129.47553 215.53504 
L 129.47553 215.305579 
L 129.630422 215.305579 
L 129.686407 215.076119 
L 129.936138 215.076119 
L 130.004878 214.502467 
L 130.059675 214.502467 
L 130.08701 214.273006 
L 130.209487 214.273006 
L 130.209487 214.158276 
L 130.384893 214.158276 
L 130.491965 213.699355 
L 130.531948 213.699355 
L 130.624887 213.355164 
L 130.664567 213.355164 
L 130.677773 213.125703 
L 130.783067 213.125703 
L 130.861623 212.666782 
L 130.939826 212.666782 
L 131.01768 212.322591 
L 131.120948 212.322591 
L 131.223607 211.9784 
L 131.338382 211.9784 
L 131.338382 211.863669 
L 131.490249 211.863669 
L 131.490249 211.748939 
L 131.678241 211.748939 
L 131.752875 211.404748 
L 131.925787 211.404748 
L 131.962617 210.945826 
L 132.181982 210.945826 
L 132.206187 210.601635 
L 132.326708 210.601635 
L 132.410579 210.257444 
L 132.553427 210.257444 
L 132.648014 209.569062 
L 132.882259 209.569062 
L 132.882259 209.454332 
L 133.044378 209.454332 
L 133.078923 208.995411 
L 133.170708 208.995411 
L 133.205004 208.077568 
L 133.431933 208.077568 
L 133.46572 207.618646 
L 133.600213 207.618646 
L 133.622529 207.274455 
L 133.733678 207.274455 
L 133.766885 207.044995 
L 133.931979 207.044995 
L 134.03029 206.815534 
L 134.062938 206.815534 
L 134.138879 206.356613 
L 134.182126 206.356613 
L 134.289776 205.782961 
L 134.332651 205.782961 
L 134.332651 205.5535 
L 134.492498 205.5535 
L 134.534878 204.750388 
L 134.640379 204.750388 
L 134.640379 204.635658 
L 134.859876 204.635658 
L 134.891008 204.406197 
L 135.025276 204.406197 
L 135.127861 203.488354 
L 135.25017 203.488354 
L 135.351444 203.144163 
L 135.381712 203.144163 
L 135.381712 202.799972 
L 135.800036 202.799972 
L 135.868791 202.455781 
L 135.97629 202.455781 
L 136.044356 201.652669 
L 136.121821 201.652669 
L 136.218171 201.193747 
L 136.266147 201.193747 
L 136.352172 200.390635 
L 136.437776 200.390635 
L 136.437776 200.161174 
L 136.570107 200.161174 
L 136.635898 199.931713 
L 136.79465 199.931713 
L 136.896607 199.243331 
L 136.905847 199.243331 
L 136.905847 199.013871 
L 137.089613 199.013871 
L 137.189866 198.78441 
L 137.226179 198.78441 
L 137.334666 198.210758 
L 137.460387 198.210758 
L 137.48721 197.866567 
L 137.594091 197.866567 
L 137.691492 197.637107 
L 137.753193 197.637107 
L 137.849713 196.833994 
L 137.954401 196.833994 
L 138.00651 196.489803 
L 138.118883 196.489803 
L 138.213405 196.030882 
L 138.27329 196.030882 
L 138.383962 195.227769 
L 138.460171 195.227769 
L 138.569667 194.768848 
L 138.60322 194.768848 
L 138.628343 194.424657 
L 138.745106 194.424657 
L 138.836303 194.080466 
L 138.951686 194.080466 
L 139.041811 193.392084 
L 139.074469 193.392084 
L 139.172077 192.933162 
L 139.220677 192.933162 
L 139.220677 192.818432 
L 139.413734 192.818432 
L 139.477614 192.01532 
L 139.604677 192.01532 
L 139.636299 191.785859 
L 139.730821 191.785859 
L 139.840453 190.982747 
L 139.879441 190.982747 
L 139.988145 190.409095 
L 139.995884 190.409095 
L 140.080785 189.720713 
L 140.12692 189.720713 
L 140.234098 189.376522 
L 140.325443 189.376522 
L 140.340621 189.032331 
L 140.438956 189.032331 
L 140.514223 188.229218 
L 140.566717 188.229218 
L 140.604116 187.999758 
L 140.745506 187.999758 
L 140.841591 187.311376 
L 140.88576 187.311376 
L 140.973763 187.081915 
L 141.0103 187.081915 
L 141.119455 186.393533 
L 141.141205 186.393533 
L 141.19907 186.164072 
L 141.350061 186.164072 
L 141.435758 185.36096 
L 141.535208 185.36096 
L 141.62705 184.902038 
L 141.732423 184.902038 
L 141.830201 184.557847 
L 141.885829 184.557847 
L 141.982752 183.984196 
L 142.037896 183.984196 
L 142.147664 183.410544 
L 142.154501 183.410544 
L 142.154501 183.295814 
L 142.317805 183.295814 
L 142.42583 182.607432 
L 142.466167 182.607432 
L 142.553247 182.14851 
L 142.639893 182.14851 
L 142.719495 181.574858 
L 142.752555 181.574858 
L 142.851361 181.345398 
L 142.864493 181.345398 
L 142.949611 180.657016 
L 142.975718 180.657016 
L 143.079756 179.853903 
L 143.125078 179.853903 
L 143.176731 179.624443 
L 143.3627 179.624443 
L 143.388196 179.280252 
L 143.47714 179.280252 
L 143.47714 179.165521 
L 143.590833 179.165521 
L 143.647403 178.82133 
L 143.791143 178.82133 
L 143.896629 178.59187 
L 143.970708 178.59187 
L 144.062866 178.132948 
L 144.330419 178.132948 
L 144.360565 177.674027 
L 144.474645 177.674027 
L 144.498568 177.444566 
L 144.653267 177.444566 
L 144.724207 176.985645 
L 145.161158 176.985645 
L 145.161158 176.870914 
L 145.581813 176.870914 
L 145.581813 176.756184 
L 147.092675 176.756184 
L 147.092675 176.641454 
L 148.015498 176.641454 
L 148.015498 176.526723 
L 163.388564 176.526723 
L 163.48138 176.297263 
L 163.713267 176.297263 
L 163.713267 176.182532 
L 164.563944 176.182532 
L 164.563944 176.067802 
L 164.731458 176.067802 
L 164.785696 175.838341 
L 164.912217 175.838341 
L 164.912217 175.723611 
L 165.230021 175.723611 
L 165.230021 175.608881 
L 165.349755 175.608881 
L 165.385876 175.149959 
L 165.604609 175.149959 
L 165.638429 174.920499 
L 166.089553 174.920499 
L 166.158729 174.576308 
L 166.332187 174.576308 
L 166.332187 174.461577 
L 166.536059 174.461577 
L 166.536059 174.346847 
L 166.719198 174.346847 
L 166.719198 174.232116 
L 166.840785 174.232116 
L 166.842445 174.002656 
L 166.981298 174.002656 
L 167.055232 173.773195 
L 167.211917 173.773195 
L 167.211917 173.658465 
L 167.347872 173.658465 
L 167.399386 173.429004 
L 167.497166 173.429004 
L 167.497166 173.314274 
L 167.716371 173.314274 
L 167.793547 173.084813 
L 168.13436 173.084813 
L 168.13436 172.970083 
L 168.306117 172.970083 
L 168.32137 172.740622 
L 168.525997 172.740622 
L 168.525997 172.511161 
L 168.676039 172.511161 
L 168.77585 172.05224 
L 168.847006 172.05224 
L 168.950259 171.593319 
L 168.967898 171.593319 
L 168.967898 171.478588 
L 169.0792 171.478588 
L 169.141861 171.134397 
L 169.468969 171.134397 
L 169.548731 170.904937 
L 169.62813 170.904937 
L 169.62813 170.790206 
L 169.833449 170.790206 
L 169.833449 170.675476 
L 170.017022 170.675476 
L 170.081921 170.446015 
L 170.190466 170.446015 
L 170.238341 170.216554 
L 170.344562 170.216554 
L 170.440691 169.872363 
L 170.466326 169.872363 
L 170.466326 169.757633 
L 170.612667 169.757633 
L 170.61935 169.528172 
L 170.727268 169.528172 
L 170.825279 169.183981 
L 170.850355 169.183981 
L 170.850355 169.069251 
L 171.049679 169.069251 
L 171.123841 168.72506 
L 171.189931 168.72506 
L 171.300813 168.380869 
L 171.314944 168.380869 
L 171.357271 168.036678 
L 171.428864 168.036678 
L 171.428864 167.921948 
L 171.587618 167.921948 
L 171.682181 167.692487 
L 171.73366 167.692487 
L 171.76998 167.463026 
L 172.064001 167.463026 
L 172.091045 167.233566 
L 172.191475 167.233566 
L 172.195138 167.004105 
L 172.385786 167.004105 
L 172.484538 166.774644 
L 172.522924 166.774644 
L 172.630434 166.430453 
L 172.674441 166.430453 
L 172.770395 165.971532 
L 172.788107 165.971532 
L 172.898691 165.39788 
L 172.939687 165.39788 
L 173.044666 165.053689 
L 173.09692 165.053689 
L 173.195195 164.480037 
L 173.221693 164.480037 
L 173.297506 164.021116 
L 173.41175 164.021116 
L 173.436783 163.791655 
L 173.532037 163.791655 
L 173.616647 163.332734 
L 173.658237 163.332734 
L 173.756758 163.103273 
L 173.831397 163.103273 
L 173.839177 162.873812 
L 173.984132 162.873812 
L 174.088503 162.529621 
L 174.121333 162.529621 
L 174.207491 162.0707 
L 174.269392 162.0707 
L 174.308374 161.726509 
L 174.446278 161.726509 
L 174.555394 161.267588 
L 174.588422 161.267588 
L 174.691365 160.579206 
L 174.764225 160.579206 
L 174.869281 160.005554 
L 174.902766 160.005554 
L 175.013227 159.087711 
L 175.039177 159.087711 
L 175.139502 158.399329 
L 175.150842 158.399329 
L 175.258724 157.252026 
L 175.299647 157.252026 
L 175.403568 155.989992 
L 175.420828 155.989992 
L 175.521004 154.498497 
L 175.551248 154.498497 
L 175.652683 153.007003 
L 175.6767 153.007003 
L 175.784368 151.286048 
L 175.798277 151.286048 
L 175.885449 149.450362 
L 175.915067 149.450362 
L 176.018337 146.811564 
L 176.040877 146.811564 
L 176.137564 143.943306 
L 176.174534 143.943306 
L 176.266618 142.222351 
L 176.287874 142.222351 
L 176.392805 139.813013 
L 176.405278 139.813013 
L 176.492338 137.174215 
L 176.52285 137.174215 
L 176.629222 135.33853 
L 176.634902 135.33853 
L 176.737773 132.929193 
L 176.759402 132.929193 
L 176.868082 130.634586 
L 176.882086 130.634586 
L 176.98444 127.995788 
L 177.007619 127.995788 
L 177.102792 125.930642 
L 177.134095 125.930642 
L 177.241386 123.750765 
L 177.262399 123.750765 
L 177.373443 122.14454 
L 177.388861 122.14454 
L 177.485588 120.882507 
L 177.501807 120.882507 
L 177.588056 120.079394 
L 177.621184 120.079394 
L 177.731751 118.817361 
L 177.73264 118.817361 
L 177.830136 117.784787 
L 177.871627 117.784787 
L 177.973612 117.555327 
L 178.033993 117.555327 
L 178.139377 117.096405 
L 178.19313 117.096405 
L 178.290675 116.752214 
L 181.934714 116.752214 
L 181.934714 116.637484 
L 182.252411 116.637484 
L 182.252411 116.522754 
L 183.040913 116.522754 
L 183.040913 116.408023 
L 183.418978 116.408023 
L 183.418978 116.293293 
L 185.732748 116.293293 
L 185.732748 116.178563 
L 185.883777 116.178563 
L 185.883777 116.063832 
L 186.236087 116.063832 
L 186.236087 115.949102 
L 190.125912 115.949102 
L 190.125912 115.834372 
L 190.330822 115.834372 
L 190.330822 115.719641 
L 193.242764 115.719641 
L 193.242764 115.604911 
L 193.616729 115.604911 
L 193.616729 115.490181 
L 197.757702 115.490181 
L 197.757702 115.37545 
L 198.378843 115.37545 
L 198.378843 115.26072 
L 200.453226 115.26072 
L 200.453226 115.14599 
L 209.122739 115.14599 
L 209.171303 114.801798 
L 209.367261 114.801798 
L 209.367261 114.687068 
L 212.807286 114.687068 
L 212.807286 114.572338 
L 213.62368 114.572338 
L 213.62368 114.457607 
L 215.028061 114.457607 
L 215.028061 114.342877 
L 215.472847 114.342877 
L 215.472847 114.228147 
L 221.18117 114.228147 
L 221.18117 114.113416 
L 222.41312 114.113416 
L 222.41312 113.998686 
L 223.499962 113.998686 
L 223.499962 113.883956 
L 224.503634 113.883956 
L 224.503634 113.769225 
L 231.184261 113.769225 
L 231.184261 113.654495 
L 236.120798 113.654495 
L 236.120798 113.539765 
L 237.272672 113.539765 
L 237.272672 113.425034 
L 238.701971 113.425034 
L 238.75978 113.195574 
L 240.892891 113.195574 
L 240.892891 113.080843 
L 242.2016 113.080843 
L 242.2016 112.966113 
L 242.357535 112.966113 
L 242.357535 112.851383 
L 244.004037 112.851383 
L 244.004037 112.736652 
L 247.343909 112.736652 
L 247.343909 112.621922 
L 253.121243 112.621922 
L 253.121243 112.507192 
L 256.521973 112.507192 
L 256.521973 112.392461 
L 257.272004 112.392461 
L 257.272004 112.277731 
L 258.200516 112.277731 
L 258.200516 112.163001 
L 263.280713 112.163001 
L 263.280713 112.04827 
L 263.623735 112.04827 
L 263.623735 111.93354 
L 264.072443 111.93354 
L 264.072443 111.81881 
L 264.233563 111.81881 
L 264.2336 111.589349 
L 269.562231 111.589349 
L 269.562231 111.474619 
L 273.088715 111.474619 
L 273.088715 111.359888 
L 274.286193 111.359888 
L 274.286193 111.245158 
L 279.465812 111.245158 
L 279.465812 111.130427 
L 286.409474 111.130427 
L 286.409474 111.015697 
L 288.074816 111.015697 
L 288.074816 110.900967 
L 290.543307 110.900967 
L 290.543307 110.786236 
L 338.688 110.786236 
L 338.688 110.786236 
" style="fill:none;stroke:#000080;stroke-linecap:square;stroke-width:1.5;"/>
   </g>
   <g id="line2d_36">
    <defs>
     <path d="M 0 6 
C 1.591219 6 3.117479 5.367802 4.242641 4.242641 
C 5.367802 3.117479 6 1.591219 6 0 
C 6 -1.591219 5.367802 -3.117479 4.242641 -4.242641 
C 3.117479 -5.367802 1.591219 -6 0 -6 
C -1.591219 -6 -3.117479 -5.367802 -4.242641 -4.242641 
C -5.367802 -3.117479 -6 -1.591219 -6 0 
C -6 1.591219 -5.367802 3.117479 -4.242641 4.242641 
C -3.117479 5.367802 -1.591219 6 0 6 
z
" id="m0b8ec6e247" style="stroke:#000080;stroke-width:1.5;"/>
    </defs>
    <g>
     <use style="fill-opacity:0;stroke:#000080;stroke-width:1.5;" x="145.161158" xlink:href="#m0b8ec6e247" y="176.870914"/>
     <use style="fill-opacity:0;stroke:#000080;stroke-width:1.5;" x="198.378843" xlink:href="#m0b8ec6e247" y="115.37545"/>
     <use style="fill-opacity:0;stroke:#000080;stroke-width:1.5;" x="290.543307" xlink:href="#m0b8ec6e247" y="110.900967"/>
     <use style="fill-opacity:0;stroke:#000080;stroke-width:1.5;" x="290.543307" xlink:href="#m0b8ec6e247" y="110.786236"/>
     <use style="fill-opacity:0;stroke:#000080;stroke-width:1.5;" x="338.688" xlink:href="#m0b8ec6e247" y="110.786236"/>
    </g>
   </g>
   <g id="line2d_37">
    <path style="fill:none;stroke:#000080;stroke-linecap:square;stroke-width:1.5;"/>
    <g/>
   </g>
   <g id="line2d_38">
    <path clip-path="url(#pe991fe4a41)" d="M 246.289224 112.736652 
" style="fill:none;stroke:#000080;stroke-linecap:square;stroke-width:1.5;"/>
    <defs>
     <path d="M -12 12 
L 12 -12 
M -12 -12 
L 12 12 
" id="md2e52a834f" style="stroke:#000080;"/>
    </defs>
    <g clip-path="url(#pe991fe4a41)">
     <use style="fill:#000080;stroke:#000080;" x="246.289224" xlink:href="#md2e52a834f" y="112.736652"/>
    </g>
   </g>
   <g id="line2d_39">
    <defs>
     <path d="M 0 1.5 
C 0.397805 1.5 0.77937 1.341951 1.06066 1.06066 
C 1.341951 0.77937 1.5 0.397805 1.5 0 
C 1.5 -0.397805 1.341951 -0.77937 1.06066 -1.06066 
C 0.77937 -1.341951 0.397805 -1.5 0 -1.5 
C -0.397805 -1.5 -0.77937 -1.341951 -1.06066 -1.06066 
C -1.341951 -0.77937 -1.5 -0.397805 -1.5 0 
C -1.5 0.397805 -1.341951 0.77937 -1.06066 1.06066 
C -0.77937 1.341951 -0.397805 1.5 0 1.5 
z
" id="m8626909233" style="stroke:#ff00ff;"/>
    </defs>
    <g>
     <use style="fill:#ff00ff;stroke:#ff00ff;" x="291.659975" xlink:href="#m8626909233" y="55.715672"/>
     <use style="fill:#ff00ff;stroke:#ff00ff;" x="291.659975" xlink:href="#m8626909233" y="55.715672"/>
    </g>
   </g>
   <g id="line2d_40">
    <path d="M 64.67102 298.944 
L 64.67102 298.82927 
L 69.687988 298.82927 
L 69.687988 298.714539 
L 97.842408 298.714539 
L 97.928955 298.485079 
L 99.575392 298.485079 
L 99.575392 298.370348 
L 105.22869 298.370348 
L 105.22869 298.255618 
L 105.566235 298.255618 
L 105.566235 298.140888 
L 106.906317 298.140888 
L 106.906317 298.026157 
L 109.886961 298.026157 
L 109.886961 297.911427 
L 110.103064 297.911427 
L 110.188761 297.681966 
L 110.735755 297.681966 
L 110.818406 297.452506 
L 111.225884 297.452506 
L 111.225884 297.223045 
L 111.465878 297.223045 
L 111.465878 297.108315 
L 113.804498 297.108315 
L 113.873839 296.878854 
L 113.942906 296.878854 
L 113.942906 296.649393 
L 114.552496 296.649393 
L 114.552496 296.534663 
L 115.33349 296.534663 
L 115.33349 296.419932 
L 116.972471 296.419932 
L 117.001416 296.075741 
L 117.087964 296.075741 
L 117.145424 295.73155 
L 117.316679 295.73155 
L 117.345058 295.50209 
L 117.429921 295.50209 
L 117.458117 295.272629 
L 117.626343 295.272629 
L 117.626343 295.043168 
L 119.677294 295.043168 
L 119.776241 294.813708 
L 119.825504 294.813708 
L 119.874629 294.584247 
L 120.045484 294.584247 
L 120.045484 294.354786 
L 120.262724 294.354786 
L 120.262724 294.240056 
L 122.040062 294.240056 
L 122.148045 293.666404 
L 122.233953 293.666404 
L 122.340747 293.092752 
L 124.043491 293.092752 
L 124.120571 292.863292 
L 124.444412 292.863292 
L 124.538526 292.633831 
L 124.965026 292.633831 
L 124.965026 292.519101 
L 125.875108 292.519101 
L 125.97912 291.257067 
L 126.030894 291.257067 
L 126.048118 290.683415 
L 126.25349 290.683415 
L 126.25349 290.568685 
L 126.422805 290.568685 
L 126.439646 290.339224 
L 127.500856 290.339224 
L 127.611382 289.07719 
L 127.736845 289.07719 
L 127.799239 288.732999 
L 127.985095 288.732999 
L 128.046609 288.274078 
L 128.45625 288.274078 
L 128.45625 287.929887 
L 129.045969 287.929887 
L 129.118302 287.126775 
L 129.190335 287.126775 
L 129.290685 281.619718 
L 129.347769 281.619718 
L 129.404667 278.407268 
L 129.560187 278.407268 
L 129.560187 278.292538 
L 129.686407 278.292538 
L 129.686407 274.506437 
L 130.08701 274.506437 
L 130.08701 274.391706 
L 130.331109 274.391706 
L 130.425122 271.982369 
L 130.505303 271.982369 
L 130.505303 271.752909 
L 131.030622 271.752909 
L 131.095188 271.408718 
L 131.159516 271.408718 
L 131.159516 271.293987 
L 131.703155 271.293987 
L 131.777682 263.492324 
L 131.839545 263.492324 
L 131.876558 263.262863 
L 132.023829 263.262863 
L 132.023829 260.279874 
L 132.917126 260.279874 
L 133.02131 253.510784 
L 133.032848 253.510784 
L 133.032848 253.396054 
L 133.352844 253.396054 
L 133.352844 250.642525 
L 133.667073 250.642525 
L 133.667073 249.954143 
L 134.04118 249.954143 
L 134.095524 243.414514 
L 134.268299 243.414514 
L 134.268299 237.907457 
L 135.086899 237.907457 
L 135.138086 237.563266 
L 136.13148 237.563266 
L 136.13148 237.448536 
L 136.323544 237.448536 
L 136.323544 237.333805 
L 136.664018 237.333805 
L 136.664018 237.219075 
L 137.107884 237.219075 
L 137.107884 237.104345 
L 137.997836 237.104345 
L 138.01518 236.874884 
L 138.170504 236.874884 
L 138.170504 236.760154 
L 138.770025 236.760154 
L 138.803195 236.301232 
L 138.968107 236.301232 
L 138.968107 236.186502 
L 140.378508 236.186502 
L 140.378508 236.071772 
L 141.809295 236.071772 
L 141.809295 235.957041 
L 142.519806 235.957041 
L 142.519806 235.842311 
L 142.83822 235.842311 
L 142.83822 235.727581 
L 143.298796 235.727581 
L 143.298796 235.61285 
L 143.784918 235.61285 
L 143.784918 235.49812 
L 143.933708 235.49812 
L 143.933708 235.38339 
L 144.396671 235.38339 
L 144.396671 235.268659 
L 144.987689 235.268659 
L 144.987689 235.153929 
L 145.559333 235.153929 
L 145.559333 235.039199 
L 146.654584 235.039199 
L 146.702052 234.809738 
L 147.169761 234.809738 
L 147.169761 234.695008 
L 147.685096 234.695008 
L 147.729844 234.465547 
L 147.873256 234.465547 
L 147.873256 234.350817 
L 148.397201 234.350817 
L 148.478259 234.121356 
L 148.643965 234.121356 
L 148.643965 234.006626 
L 148.854728 234.006626 
L 148.854728 233.891895 
L 149.108916 233.891895 
L 149.108916 233.777165 
L 149.566262 233.777165 
L 149.60198 233.547704 
L 149.735275 233.547704 
L 149.735275 233.432974 
L 150.853863 233.432974 
L 150.853863 233.318243 
L 151.264121 233.318243 
L 151.336954 232.974052 
L 151.477707 232.974052 
L 151.477707 232.859322 
L 151.732184 232.859322 
L 151.755852 232.629861 
L 151.944047 232.629861 
L 151.944047 232.400401 
L 152.141804 232.400401 
L 152.234096 232.17094 
L 152.748054 232.17094 
L 152.829789 231.941479 
L 152.903762 231.941479 
L 152.903762 231.826749 
L 153.185667 231.826749 
L 153.185667 231.712019 
L 154.245908 231.712019 
L 154.245908 231.597288 
L 154.56087 231.597288 
L 154.56087 231.482558 
L 154.936065 231.482558 
L 154.936065 231.253097 
L 155.501643 231.253097 
L 155.501643 231.138367 
L 155.904009 231.138367 
L 155.922644 230.908906 
L 156.181465 230.908906 
L 156.181465 230.794176 
L 156.794487 230.794176 
L 156.885785 230.449985 
L 157.078583 230.449985 
L 157.078583 230.335255 
L 157.403807 230.335255 
L 157.403807 230.220524 
L 157.574059 230.220524 
L 157.666993 229.991063 
L 157.692253 229.991063 
L 157.73707 229.646872 
L 157.942862 229.646872 
L 157.942862 229.532142 
L 158.066829 229.532142 
L 158.066829 229.417412 
L 158.203544 229.417412 
L 158.203544 229.187951 
L 158.468436 229.187951 
L 158.535371 228.84376 
L 158.742573 228.84376 
L 158.761048 228.614299 
L 159.275687 228.614299 
L 159.275687 228.499569 
L 159.514794 228.499569 
L 159.542562 228.270108 
L 159.683242 228.270108 
L 159.785526 228.040648 
L 159.802929 228.040648 
L 159.802929 227.925917 
L 160.007969 227.925917 
L 160.007969 227.811187 
L 160.504296 227.811187 
L 160.504296 227.696457 
L 160.731954 227.696457 
L 160.73902 227.352266 
L 160.965979 227.352266 
L 160.965979 227.237535 
L 161.091058 227.237535 
L 161.091058 227.122805 
L 161.274728 227.122805 
L 161.274728 227.008075 
L 162.32284 227.008075 
L 162.33359 226.778614 
L 162.521708 226.778614 
L 162.523835 226.549153 
L 162.650928 226.549153 
L 162.735146 226.204962 
L 162.941851 226.204962 
L 163.014347 225.975501 
L 163.187116 225.975501 
L 163.187116 225.860771 
L 163.517565 225.860771 
L 163.569701 225.63131 
L 163.794496 225.63131 
L 163.794496 225.51658 
L 163.981266 225.51658 
L 163.981266 225.40185 
L 164.144761 225.40185 
L 164.183463 224.828198 
L 164.450097 224.828198 
L 164.558269 224.598737 
L 164.562052 224.598737 
L 164.562052 224.484007 
L 164.906654 224.484007 
L 164.934449 224.139816 
L 165.475853 224.139816 
L 165.475853 224.025086 
L 165.702328 224.025086 
L 165.702328 223.910355 
L 165.813593 223.910355 
L 165.813593 223.795625 
L 165.9905 223.795625 
L 165.9905 223.680895 
L 166.172531 223.680895 
L 166.172531 223.451434 
L 166.369743 223.451434 
L 166.40041 223.221973 
L 166.677363 223.221973 
L 166.729224 222.992513 
L 166.839125 222.992513 
L 166.903743 222.533591 
L 166.973064 222.533591 
L 167.024054 222.30413 
L 167.17939 222.30413 
L 167.17939 222.1894 
L 167.3269 222.1894 
L 167.43311 221.730479 
L 167.482774 221.730479 
L 167.485973 221.501018 
L 167.957782 221.501018 
L 167.971787 220.927366 
L 168.168232 220.927366 
L 168.274041 220.583175 
L 168.280155 220.583175 
L 168.284739 220.353715 
L 168.453515 220.353715 
L 168.453515 220.238984 
L 168.569642 220.238984 
L 168.578658 220.009524 
L 168.71782 220.009524 
L 168.77882 219.780063 
L 168.870661 219.780063 
L 168.926712 219.206411 
L 169.028031 219.206411 
L 169.054365 218.97695 
L 169.16076 218.97695 
L 169.16076 218.86222 
L 169.311225 218.86222 
L 169.352951 218.173838 
L 169.447543 218.173838 
L 169.498923 217.829647 
L 169.598397 217.829647 
L 169.598397 217.714917 
L 169.84463 217.714917 
L 169.926868 217.370726 
L 170.033615 217.370726 
L 170.059855 217.141265 
L 170.152072 217.141265 
L 170.160306 216.797074 
L 170.286084 216.797074 
L 170.377116 216.108692 
L 170.420426 216.108692 
L 170.420426 215.993962 
L 170.555083 215.993962 
L 170.561788 215.764501 
L 170.696693 215.764501 
L 170.711322 215.190849 
L 170.846398 215.190849 
L 170.955546 214.617197 
L 170.9621 214.617197 
L 170.9621 214.502467 
L 171.08745 214.502467 
L 171.129034 214.273006 
L 171.213197 214.273006 
L 171.290528 213.814085 
L 171.345738 213.814085 
L 171.350865 213.584624 
L 171.476006 213.584624 
L 171.519214 213.355164 
L 171.600256 213.355164 
L 171.619196 212.896242 
L 171.732406 212.896242 
L 171.819953 212.437321 
L 171.849868 212.437321 
L 171.880975 211.863669 
L 171.971491 211.863669 
L 172.023357 211.404748 
L 172.131531 211.404748 
L 172.217102 211.175287 
L 172.264595 211.175287 
L 172.344676 210.831096 
L 172.461706 210.831096 
L 172.50734 210.486905 
L 172.58751 210.486905 
L 172.698183 210.027984 
L 172.714783 210.027984 
L 172.824653 209.569062 
L 172.829364 209.569062 
L 172.858773 209.339602 
L 172.957228 209.339602 
L 173.06094 208.76595 
L 173.079519 208.76595 
L 173.182508 208.077568 
L 173.294067 208.077568 
L 173.39808 207.503916 
L 173.41175 207.503916 
L 173.511669 206.930264 
L 173.538821 206.930264 
L 173.630147 206.241882 
L 173.658237 206.241882 
L 173.746708 205.668231 
L 173.849174 205.668231 
L 173.957665 205.32404 
L 173.968698 205.32404 
L 174.074257 204.979849 
L 174.102737 204.979849 
L 174.193342 204.520927 
L 174.245526 204.520927 
L 174.325672 204.062006 
L 174.39792 204.062006 
L 174.500921 203.603084 
L 174.510546 203.603084 
L 174.518029 203.373624 
L 174.623512 203.373624 
L 174.73364 202.570511 
L 174.817882 202.570511 
L 174.924705 201.652669 
L 174.934099 201.652669 
L 174.945574 201.308478 
L 175.136407 201.308478 
L 175.245403 200.734826 
L 175.377137 200.734826 
L 175.485654 200.390635 
L 175.539157 200.390635 
L 175.646673 199.702253 
L 175.653684 199.702253 
L 175.761495 199.128601 
L 175.770449 199.128601 
L 175.843898 198.78441 
L 175.980051 198.78441 
L 176.046752 198.554949 
L 176.135616 198.554949 
L 176.235655 197.981298 
L 176.263718 197.981298 
L 176.360142 197.407646 
L 176.422533 197.407646 
L 176.521897 196.489803 
L 176.539038 196.489803 
L 176.539038 196.375073 
L 176.717059 196.375073 
L 176.820383 195.57196 
L 176.901672 195.57196 
L 176.998351 194.654118 
L 177.015956 194.654118 
L 177.109241 193.965736 
L 177.173603 193.965736 
L 177.2843 193.162623 
L 177.360736 193.162623 
L 177.371629 192.818432 
L 177.537796 192.818432 
L 177.632808 192.01532 
L 177.655142 192.01532 
L 177.718413 191.556398 
L 177.80891 191.556398 
L 177.91302 190.753286 
L 177.921815 190.753286 
L 177.963089 190.409095 
L 178.07326 190.409095 
L 178.161072 189.835443 
L 178.242402 189.835443 
L 178.346538 189.032331 
L 178.381683 189.032331 
L 178.42701 188.573409 
L 178.504562 188.573409 
L 178.608839 187.770297 
L 178.667907 187.770297 
L 178.751105 187.196645 
L 178.783772 187.196645 
L 178.848088 186.967185 
L 178.927944 186.967185 
L 179.006609 186.278803 
L 179.098076 186.278803 
L 179.175161 185.36096 
L 179.251093 185.36096 
L 179.34129 184.557847 
L 179.410046 184.557847 
L 179.518692 183.640005 
L 179.570763 183.640005 
L 179.605922 182.836892 
L 179.729219 182.836892 
L 179.823292 182.14851 
L 179.890962 182.14851 
L 179.966192 181.804319 
L 180.044992 181.804319 
L 180.136606 180.542285 
L 180.198445 180.542285 
L 180.302303 180.083364 
L 180.355148 180.083364 
L 180.433736 179.509712 
L 180.507424 179.509712 
L 180.588349 178.82133 
L 180.656127 178.82133 
L 180.761786 178.247679 
L 180.805809 178.247679 
L 180.908345 177.788757 
L 180.924636 177.788757 
L 181.033099 177.444566 
L 181.052213 177.444566 
L 181.125533 176.870914 
L 181.174486 176.870914 
L 181.263273 175.838341 
L 181.328483 175.838341 
L 181.414332 175.035229 
L 181.464635 175.035229 
L 181.544819 174.002656 
L 181.60614 174.002656 
L 181.70055 173.084813 
L 181.760621 173.084813 
L 181.845077 172.511161 
L 181.899754 172.511161 
L 181.959144 172.16697 
L 182.028756 172.16697 
L 182.11953 171.019667 
L 182.166464 171.019667 
L 182.27229 170.331285 
L 182.303776 170.331285 
L 182.409455 169.642903 
L 182.440016 169.642903 
L 182.519226 168.72506 
L 182.591352 168.72506 
L 182.660501 168.266139 
L 182.71068 168.266139 
L 182.801305 167.577757 
L 182.856382 167.577757 
L 182.930429 167.118835 
L 182.987073 167.118835 
L 183.086088 166.086262 
L 183.105693 166.086262 
L 183.190394 165.168419 
L 183.237777 165.168419 
L 183.310871 164.594768 
L 183.379159 164.594768 
L 183.481732 164.021116 
L 183.556995 164.021116 
L 183.637637 163.447464 
L 183.687613 163.447464 
L 183.789649 163.103273 
L 183.810988 163.103273 
L 183.87485 162.300161 
L 183.937233 162.300161 
L 184.027295 161.382318 
L 184.060098 161.382318 
L 184.133527 160.464475 
L 184.184559 160.464475 
L 184.264191 159.890824 
L 184.3057 159.890824 
L 184.38114 159.317172 
L 184.427216 159.317172 
L 184.50816 158.74352 
L 184.549695 158.74352 
L 184.649812 157.825677 
L 184.668334 157.825677 
L 184.765993 157.022565 
L 184.786764 157.022565 
L 184.845384 156.563644 
L 184.904396 156.563644 
L 184.973775 155.30161 
L 185.02124 155.30161 
L 185.072077 154.727958 
L 185.146023 154.727958 
L 185.236427 153.810115 
L 185.336713 153.810115 
L 185.446708 153.236464 
L 185.484929 153.236464 
L 185.568494 151.97443 
L 185.674787 151.97443 
L 185.77259 151.400778 
L 185.878764 151.400778 
L 185.885448 150.941857 
L 185.992046 150.941857 
L 186.102397 149.794553 
L 186.113394 149.794553 
L 186.220251 148.991441 
L 186.264446 148.991441 
L 186.374175 148.303059 
L 186.426623 148.303059 
L 186.534803 147.614677 
L 186.565894 147.614677 
L 186.650846 146.811564 
L 186.696091 146.811564 
L 186.769828 146.237913 
L 186.841673 146.237913 
L 186.950984 145.549531 
L 186.98814 145.549531 
L 187.083027 145.090609 
L 187.118866 145.090609 
L 187.226459 144.402227 
L 187.235223 144.402227 
L 187.344664 143.254924 
L 187.351321 143.254924 
L 187.441201 142.451811 
L 187.492572 142.451811 
L 187.579708 141.533969 
L 187.628657 141.533969 
L 187.736665 140.845586 
L 187.793665 140.845586 
L 187.886265 140.271935 
L 187.912066 140.271935 
L 187.983809 139.813013 
L 188.024251 139.813013 
L 188.027699 139.468822 
L 188.188015 139.468822 
L 188.290199 138.78044 
L 188.303293 138.78044 
L 188.372483 137.862598 
L 188.414925 137.862598 
L 188.48895 137.403676 
L 188.557886 137.403676 
L 188.66553 136.944755 
L 188.703002 136.944755 
L 188.803634 136.485833 
L 188.8901 136.485833 
L 188.984067 135.912182 
L 189.058971 135.912182 
L 189.076603 135.682721 
L 189.226222 135.682721 
L 189.321144 135.109069 
L 189.401902 135.109069 
L 189.504928 134.650148 
L 189.534317 134.650148 
L 189.579435 133.847036 
L 189.685452 133.847036 
L 189.78593 132.814462 
L 189.805512 132.814462 
L 189.894244 132.585002 
L 189.941531 132.585002 
L 190.024304 132.01135 
L 190.067297 132.01135 
L 190.158198 131.208238 
L 190.207383 131.208238 
L 190.301882 130.175665 
L 190.372206 130.175665 
L 190.422939 129.487282 
L 190.500045 129.487282 
L 190.598076 129.028361 
L 190.671452 129.028361 
L 190.757159 128.56944 
L 190.784093 128.56944 
L 190.882217 127.995788 
L 190.936076 127.995788 
L 190.995587 127.766327 
L 191.047441 127.766327 
L 191.097076 127.307406 
L 191.170853 127.307406 
L 191.263968 126.619024 
L 191.293807 126.619024 
L 191.339896 126.160103 
L 191.417522 126.160103 
L 191.525461 125.815911 
L 191.539561 125.815911 
L 191.589021 125.35699 
L 191.699897 125.35699 
L 191.79619 124.439147 
L 191.860354 124.439147 
L 191.937671 123.980226 
L 191.980521 123.980226 
L 192.059654 122.832923 
L 192.111171 122.832923 
L 192.211426 121.91508 
L 192.305713 121.91508 
L 192.341901 121.570889 
L 192.440078 121.570889 
L 192.528195 120.653046 
L 192.554809 120.653046 
L 192.658219 120.423585 
L 192.669923 120.423585 
L 192.763272 120.194125 
L 192.781657 120.194125 
L 192.880751 119.735203 
L 192.940682 119.735203 
L 192.978544 119.505743 
L 193.115938 119.505743 
L 193.188261 118.932091 
L 193.344001 118.932091 
L 193.344001 118.817361 
L 193.484681 118.817361 
L 193.484681 118.70263 
L 193.835906 118.70263 
L 193.906365 118.473169 
L 197.08434 118.473169 
L 197.090785 118.243709 
L 197.75178 118.243709 
L 197.75178 118.128978 
L 197.925756 118.128978 
L 197.925756 118.014248 
L 199.627222 118.014248 
L 199.627222 117.899518 
L 199.813883 117.899518 
L 199.813883 117.784787 
L 199.939213 117.784787 
L 199.939213 117.670057 
L 200.284786 117.670057 
L 200.284786 117.555327 
L 200.430265 117.555327 
L 200.480499 117.325866 
L 200.749482 117.325866 
L 200.749482 117.211136 
L 200.861447 117.211136 
L 200.861447 117.096405 
L 202.199484 117.096405 
L 202.245968 116.866945 
L 202.824709 116.866945 
L 202.824709 116.752214 
L 203.375668 116.752214 
L 203.375668 116.637484 
L 203.55269 116.637484 
L 203.55269 116.522754 
L 203.765327 116.522754 
L 203.765327 116.408023 
L 204.279254 116.408023 
L 204.363809 116.063832 
L 204.925806 116.063832 
L 204.925806 115.949102 
L 205.225434 115.949102 
L 205.240676 115.719641 
L 205.422909 115.719641 
L 205.478767 115.490181 
L 205.57429 115.490181 
L 205.57429 115.37545 
L 205.753801 115.37545 
L 205.753801 115.26072 
L 206.029828 115.26072 
L 206.029828 115.14599 
L 206.702294 115.14599 
L 206.702294 115.031259 
L 207.598322 115.031259 
L 207.598322 114.916529 
L 207.783655 114.916529 
L 207.783655 114.801798 
L 207.977868 114.801798 
L 208.02096 114.572338 
L 208.782396 114.572338 
L 208.876527 114.342877 
L 209.050449 114.342877 
L 209.050449 114.228147 
L 209.315608 114.228147 
L 209.333617 113.998686 
L 210.385845 113.998686 
L 210.385845 113.883956 
L 210.501212 113.883956 
L 210.501212 113.769225 
L 210.697764 113.769225 
L 210.700717 113.539765 
L 211.041488 113.539765 
L 211.041488 113.425034 
L 211.510522 113.425034 
L 211.599086 113.195574 
L 211.774625 113.195574 
L 211.774625 113.080843 
L 212.02745 113.080843 
L 212.02745 112.966113 
L 212.493082 112.966113 
L 212.542543 112.736652 
L 212.651611 112.736652 
L 212.651611 112.621922 
L 212.900524 112.621922 
L 212.900524 112.507192 
L 213.222873 112.507192 
L 213.328012 112.163001 
L 213.552483 112.163001 
L 213.607328 111.81881 
L 213.682715 111.81881 
L 213.682715 111.704079 
L 214.089018 111.704079 
L 214.156412 111.474619 
L 214.53623 111.474619 
L 214.53623 111.359888 
L 214.988536 111.359888 
L 215.032877 111.130427 
L 215.119764 111.130427 
L 215.119764 111.015697 
L 215.28544 111.015697 
L 215.389347 110.442045 
L 215.469478 110.442045 
L 215.571486 110.097854 
L 215.605863 110.097854 
L 215.704662 109.294742 
L 215.733347 109.294742 
L 215.823826 108.950551 
L 215.897507 108.950551 
L 215.953507 108.72109 
L 216.016157 108.72109 
L 216.123781 108.49163 
L 216.135086 108.49163 
L 216.219011 108.147439 
L 216.252917 108.147439 
L 216.338027 107.803248 
L 216.368115 107.803248 
L 216.456043 107.573787 
L 216.482172 107.573787 
L 216.500564 107.344326 
L 216.596253 107.344326 
L 216.643568 107.114865 
L 216.710829 107.114865 
L 216.758308 106.770674 
L 216.834101 106.770674 
L 216.936808 106.426483 
L 216.958477 106.426483 
L 217.059152 106.082292 
L 217.071451 106.082292 
L 217.084113 105.852832 
L 217.299731 105.852832 
L 217.350494 105.508641 
L 217.427322 105.508641 
L 217.528781 105.16445 
L 217.591816 105.16445 
L 217.66633 104.820259 
L 217.718013 104.820259 
L 217.718013 104.705528 
L 217.867436 104.705528 
L 217.867436 104.590798 
L 218.161445 104.590798 
L 218.231478 104.361337 
L 218.413793 104.361337 
L 218.413793 104.246607 
L 218.561329 104.246607 
L 218.609919 103.902416 
L 218.905779 103.902416 
L 218.905779 103.787685 
L 219.282246 103.787685 
L 219.282246 103.672955 
L 219.427528 103.672955 
L 219.513164 103.328764 
L 219.565555 103.328764 
L 219.630341 102.984573 
L 219.680056 102.984573 
L 219.757599 102.525652 
L 219.822552 102.525652 
L 219.928348 102.06673 
L 219.986681 102.06673 
L 220.09705 101.607809 
L 220.167462 101.607809 
L 220.269409 101.034157 
L 220.293506 101.034157 
L 220.338048 100.689966 
L 220.415186 100.689966 
L 220.492214 100.345775 
L 220.526629 100.345775 
L 220.526629 100.231045 
L 220.689516 100.231045 
L 220.707824 100.001584 
L 220.802609 100.001584 
L 220.833189 99.772123 
L 220.951547 99.772123 
L 221.026915 99.427932 
L 221.067848 99.427932 
L 221.067848 99.313202 
L 221.29961 99.313202 
L 221.366285 99.083741 
L 221.440248 99.083741 
L 221.468211 98.854281 
L 222.23268 98.854281 
L 222.23268 98.73955 
L 223.063941 98.73955 
L 223.063941 98.62482 
L 223.378485 98.62482 
L 223.468946 98.280629 
L 223.565166 98.280629 
L 223.590565 98.051168 
L 223.680509 98.051168 
L 223.749997 97.706977 
L 223.946208 97.706977 
L 223.946208 97.592247 
L 224.065428 97.592247 
L 224.160345 97.133326 
L 224.20068 97.133326 
L 224.306373 96.903865 
L 224.337102 96.903865 
L 224.411551 96.559674 
L 224.448991 96.559674 
L 224.448991 96.444944 
L 224.588335 96.444944 
L 224.676421 96.215483 
L 224.750157 96.215483 
L 224.835701 95.871292 
L 224.920887 95.871292 
L 224.982537 95.641831 
L 225.035241 95.641831 
L 225.12803 95.29764 
L 225.432904 95.29764 
L 225.432904 95.18291 
L 225.689636 95.18291 
L 225.689636 95.068179 
L 228.545383 95.068179 
L 228.545383 94.953449 
L 230.238405 94.953449 
L 230.238405 94.838719 
L 230.556587 94.838719 
L 230.556587 94.723988 
L 230.830604 94.723988 
L 230.830604 94.609258 
L 231.077242 94.609258 
L 231.165218 94.379797 
L 231.729425 94.379797 
L 231.837122 94.150337 
L 231.862347 94.150337 
L 231.93697 93.806146 
L 231.995648 93.806146 
L 232.055234 93.461955 
L 232.117014 93.461955 
L 232.208163 93.003033 
L 232.243357 93.003033 
L 232.308637 92.544112 
L 232.358871 92.544112 
L 232.46434 91.97046 
L 232.544186 91.97046 
L 232.652433 91.511539 
L 232.675859 91.511539 
L 232.769896 91.052617 
L 232.792636 91.052617 
L 232.792636 90.937887 
L 232.906646 90.937887 
L 232.973722 90.478966 
L 233.023199 90.478966 
L 233.096148 90.134775 
L 233.145723 90.134775 
L 233.244379 89.561123 
L 233.263308 89.561123 
L 233.361889 88.987471 
L 233.380068 88.987471 
L 233.474903 88.64328 
L 233.522109 88.64328 
L 233.614012 88.299089 
L 233.637768 88.299089 
L 233.728527 88.069628 
L 233.754346 88.069628 
L 233.834817 87.495977 
L 234.858364 87.495977 
L 234.858364 87.381246 
L 239.434826 87.381246 
L 239.513551 86.692864 
L 239.549059 86.692864 
L 239.63777 86.348673 
L 239.660789 86.348673 
L 239.767778 85.775022 
L 239.785386 85.775022 
L 239.890105 85.086639 
L 239.900849 85.086639 
L 240.00448 84.398257 
L 240.014379 84.398257 
L 240.057162 83.939336 
L 241.077198 83.939336 
L 241.077198 83.824606 
L 241.406139 83.824606 
L 241.406139 83.709875 
L 243.082804 83.709875 
L 243.082804 83.595145 
L 243.335763 83.595145 
L 243.335763 83.480415 
L 249.066612 83.480415 
L 249.173139 82.906763 
L 249.280503 82.906763 
L 249.3388 82.677302 
L 249.410162 82.677302 
L 249.458681 82.333111 
L 249.753454 82.333111 
L 249.834019 81.75946 
L 249.905031 81.75946 
L 249.976504 80.497426 
L 250.048093 80.497426 
L 250.075695 80.153235 
L 250.468899 80.153235 
L 250.468899 80.038504 
L 250.603901 80.038504 
L 250.704552 79.005931 
L 250.724293 79.005931 
L 250.816548 78.317549 
L 252.574553 78.317549 
L 252.673791 77.055515 
L 252.699083 77.055515 
L 252.800234 76.367133 
L 252.818401 76.367133 
L 252.929426 75.1051 
L 252.939255 75.1051 
L 253.047042 74.301987 
L 253.05529 74.301987 
L 253.148684 73.154684 
L 253.166645 73.154684 
L 253.225009 72.810493 
L 255.293964 72.810493 
L 255.390523 72.122111 
L 255.419527 72.122111 
L 255.445284 71.89265 
L 259.796745 71.89265 
L 259.796745 71.77792 
L 259.910209 71.77792 
L 259.989519 71.548459 
L 260.207324 71.548459 
L 260.318093 70.974807 
L 260.34265 70.974807 
L 260.360698 70.630616 
L 260.587146 70.630616 
L 260.670891 69.827504 
L 260.706725 69.827504 
L 260.7602 69.368582 
L 261.809945 69.368582 
L 261.871227 68.794931 
L 261.933325 68.794931 
L 261.974031 68.45074 
L 262.057384 68.45074 
L 262.14202 67.532897 
L 263.455049 67.532897 
L 263.549334 66.959245 
L 263.567312 66.959245 
L 263.567312 66.844515 
L 266.45692 66.844515 
L 266.53947 66.615054 
L 266.694246 66.615054 
L 266.786545 65.926672 
L 266.978984 65.926672 
L 267.085554 65.35302 
L 267.095395 65.35302 
L 267.095395 65.23829 
L 267.81006 65.23829 
L 267.909151 64.320447 
L 267.953135 64.320447 
L 268.05706 63.173144 
L 268.07864 63.173144 
L 268.07864 63.058414 
L 268.997476 63.058414 
L 269.089543 62.140571 
L 271.204595 62.140571 
L 271.257873 61.79638 
L 271.459524 61.79638 
L 271.483508 61.566919 
L 271.6161 61.566919 
L 271.714911 61.107998 
L 272.269428 61.107998 
L 272.357228 60.534346 
L 272.388184 60.534346 
L 272.474244 60.075425 
L 273.204297 60.075425 
L 273.270718 59.616503 
L 275.014427 59.616503 
L 275.014427 59.501773 
L 275.126904 59.501773 
L 275.167263 59.042851 
L 275.291114 59.042851 
L 275.291114 58.928121 
L 275.818613 58.928121 
L 275.919009 58.58393 
L 275.935529 58.58393 
L 275.936112 58.354469 
L 276.592014 58.354469 
L 276.615923 58.125009 
L 278.103836 58.125009 
L 278.103836 58.010278 
L 278.342678 58.010278 
L 278.342678 57.895548 
L 278.838973 57.895548 
L 278.898071 57.666087 
L 279.406939 57.666087 
L 279.441937 57.436627 
L 280.654014 57.436627 
L 280.762219 57.207166 
L 280.898698 57.207166 
L 280.898698 57.092436 
L 281.298819 57.092436 
L 281.396501 56.748245 
L 282.943075 56.748245 
L 282.982274 56.518784 
L 283.055668 56.518784 
L 283.055668 56.404054 
L 283.501707 56.404054 
L 283.518836 56.174593 
L 285.870019 56.174593 
L 285.896323 55.945132 
L 287.599284 55.945132 
L 287.599284 55.830402 
L 291.659975 55.830402 
L 291.659975 55.715672 
L 338.688 55.715672 
L 338.688 55.715672 
" style="fill:none;stroke:#ff00ff;stroke-linecap:square;stroke-width:1.5;"/>
   </g>
   <g id="line2d_41">
    <defs>
     <path d="M -0 8.485281 
L 5.091169 0 
L 0 -8.485281 
L -5.091169 -0 
z
" id="m7cf40b8cd8" style="stroke:#ff00ff;stroke-linejoin:miter;stroke-width:1.5;"/>
    </defs>
    <g>
     <use style="fill-opacity:0;stroke:#ff00ff;stroke-linejoin:miter;stroke-width:1.5;" x="124.120571" xlink:href="#m7cf40b8cd8" y="292.978022"/>
     <use style="fill-opacity:0;stroke:#ff00ff;stroke-linejoin:miter;stroke-width:1.5;" x="191.753282" xlink:href="#m7cf40b8cd8" y="125.012799"/>
     <use style="fill-opacity:0;stroke:#ff00ff;stroke-linejoin:miter;stroke-width:1.5;" x="272.445025" xlink:href="#m7cf40b8cd8" y="60.304885"/>
     <use style="fill-opacity:0;stroke:#ff00ff;stroke-linejoin:miter;stroke-width:1.5;" x="291.659975" xlink:href="#m7cf40b8cd8" y="55.715672"/>
     <use style="fill-opacity:0;stroke:#ff00ff;stroke-linejoin:miter;stroke-width:1.5;" x="338.688" xlink:href="#m7cf40b8cd8" y="55.715672"/>
    </g>
   </g>
   <g id="line2d_42">
    <path style="fill:none;stroke:#ff00ff;stroke-linecap:square;stroke-width:1.5;"/>
    <g/>
   </g>
   <g id="line2d_43">
    <path clip-path="url(#pe991fe4a41)" d="M 246.289154 83.480415 
" style="fill:none;stroke:#ff00ff;stroke-linecap:square;stroke-width:1.5;"/>
    <defs>
     <path d="M -12 12 
L 12 -12 
M -12 -12 
L 12 12 
" id="me241103fc1" style="stroke:#ff00ff;"/>
    </defs>
    <g clip-path="url(#pe991fe4a41)">
     <use style="fill:#ff00ff;stroke:#ff00ff;" x="246.289154" xlink:href="#me241103fc1" y="83.480415"/>
    </g>
   </g>
   <g id="line2d_44">
    <path d="M 338.688 110.786236 
L 369.60768 293.092752 
" style="fill:none;stroke:#000080;stroke-linecap:square;stroke-width:1.5;"/>
    <g>
     <use style="fill-opacity:0;stroke:#000080;stroke-width:1.5;" x="338.688" xlink:href="#m0b8ec6e247" y="110.786236"/>
     <use style="fill-opacity:0;stroke:#000080;stroke-width:1.5;" x="369.60768" xlink:href="#m0b8ec6e247" y="293.092752"/>
    </g>
   </g>
   <g id="line2d_45">
    <path d="M 338.688 55.715672 
L 369.60768 152.662812 
" style="fill:none;stroke:#ff00ff;stroke-linecap:square;stroke-width:1.5;"/>
    <g>
     <use style="fill-opacity:0;stroke:#ff00ff;stroke-linejoin:miter;stroke-width:1.5;" x="338.688" xlink:href="#m7cf40b8cd8" y="55.715672"/>
     <use style="fill-opacity:0;stroke:#ff00ff;stroke-linejoin:miter;stroke-width:1.5;" x="369.60768" xlink:href="#m7cf40b8cd8" y="152.662812"/>
    </g>
   </g>
   <g id="line2d_46">
    <path d="M 338.688 298.944 
L 338.688 6.381624 
" style="fill:none;stroke:#000000;stroke-linecap:square;stroke-width:1.5;"/>
   </g>
   <g id="patch_3">
    <path d="M 57.6 298.944 
L 57.6 3.456 
" style="fill:none;stroke:#000000;stroke-linecap:square;stroke-linejoin:miter;stroke-width:0.8;"/>
   </g>
   <g id="patch_4">
    <path d="M 338.688 298.944 
L 338.688 3.456 
" style="fill:none;stroke:#000000;stroke-linecap:square;stroke-linejoin:miter;stroke-width:0.8;"/>
   </g>
   <g id="patch_5">
    <path d="M 57.6 298.944 
L 338.688 298.944 
" style="fill:none;stroke:#000000;stroke-linecap:square;stroke-linejoin:miter;stroke-width:0.8;"/>
   </g>
   <g id="patch_6">
    <path d="M 57.6 3.456 
L 338.688 3.456 
" style="fill:none;stroke:#000000;stroke-linecap:square;stroke-linejoin:miter;stroke-width:0.8;"/>
   </g>
   <g id="text_13">
    <!-- BIPOP-CMA -->
    <g transform="translate(375.22944 297.78369)scale(0.17 -0.17)">
     <defs>
      <path d="M 19.671875 34.8125 
L 19.671875 8.109375 
L 35.5 8.109375 
Q 43.453125 8.109375 47.28125 11.40625 
Q 51.125 14.703125 51.125 21.484375 
Q 51.125 28.328125 47.28125 31.5625 
Q 43.453125 34.8125 35.5 34.8125 
z
M 19.671875 64.796875 
L 19.671875 42.828125 
L 34.28125 42.828125 
Q 41.5 42.828125 45.03125 45.53125 
Q 48.578125 48.25 48.578125 53.8125 
Q 48.578125 59.328125 45.03125 62.0625 
Q 41.5 64.796875 34.28125 64.796875 
z
M 9.8125 72.90625 
L 35.015625 72.90625 
Q 46.296875 72.90625 52.390625 68.21875 
Q 58.5 63.53125 58.5 54.890625 
Q 58.5 48.1875 55.375 44.234375 
Q 52.25 40.28125 46.1875 39.3125 
Q 53.46875 37.75 57.5 32.78125 
Q 61.53125 27.828125 61.53125 20.40625 
Q 61.53125 10.640625 54.890625 5.3125 
Q 48.25 0 35.984375 0 
L 9.8125 0 
z
" id="DejaVuSans-66"/>
      <path d="M 9.8125 72.90625 
L 19.671875 72.90625 
L 19.671875 0 
L 9.8125 0 
z
" id="DejaVuSans-73"/>
      <path d="M 19.671875 64.796875 
L 19.671875 37.40625 
L 32.078125 37.40625 
Q 38.96875 37.40625 42.71875 40.96875 
Q 46.484375 44.53125 46.484375 51.125 
Q 46.484375 57.671875 42.71875 61.234375 
Q 38.96875 64.796875 32.078125 64.796875 
z
M 9.8125 72.90625 
L 32.078125 72.90625 
Q 44.34375 72.90625 50.609375 67.359375 
Q 56.890625 61.8125 56.890625 51.125 
Q 56.890625 40.328125 50.609375 34.8125 
Q 44.34375 29.296875 32.078125 29.296875 
L 19.671875 29.296875 
L 19.671875 0 
L 9.8125 0 
z
" id="DejaVuSans-80"/>
      <path d="M 39.40625 66.21875 
Q 28.65625 66.21875 22.328125 58.203125 
Q 16.015625 50.203125 16.015625 36.375 
Q 16.015625 22.609375 22.328125 14.59375 
Q 28.65625 6.59375 39.40625 6.59375 
Q 50.140625 6.59375 56.421875 14.59375 
Q 62.703125 22.609375 62.703125 36.375 
Q 62.703125 50.203125 56.421875 58.203125 
Q 50.140625 66.21875 39.40625 66.21875 
z
M 39.40625 74.21875 
Q 54.734375 74.21875 63.90625 63.9375 
Q 73.09375 53.65625 73.09375 36.375 
Q 73.09375 19.140625 63.90625 8.859375 
Q 54.734375 -1.421875 39.40625 -1.421875 
Q 24.03125 -1.421875 14.8125 8.828125 
Q 5.609375 19.09375 5.609375 36.375 
Q 5.609375 53.65625 14.8125 63.9375 
Q 24.03125 74.21875 39.40625 74.21875 
z
" id="DejaVuSans-79"/>
      <path d="M 64.40625 67.28125 
L 64.40625 56.890625 
Q 59.421875 61.53125 53.78125 63.8125 
Q 48.140625 66.109375 41.796875 66.109375 
Q 29.296875 66.109375 22.65625 58.46875 
Q 16.015625 50.828125 16.015625 36.375 
Q 16.015625 21.96875 22.65625 14.328125 
Q 29.296875 6.6875 41.796875 6.6875 
Q 48.140625 6.6875 53.78125 8.984375 
Q 59.421875 11.28125 64.40625 15.921875 
L 64.40625 5.609375 
Q 59.234375 2.09375 53.4375 0.328125 
Q 47.65625 -1.421875 41.21875 -1.421875 
Q 24.65625 -1.421875 15.125 8.703125 
Q 5.609375 18.84375 5.609375 36.375 
Q 5.609375 53.953125 15.125 64.078125 
Q 24.65625 74.21875 41.21875 74.21875 
Q 47.75 74.21875 53.53125 72.484375 
Q 59.328125 70.75 64.40625 67.28125 
z
" id="DejaVuSans-67"/>
      <path d="M 9.8125 72.90625 
L 24.515625 72.90625 
L 43.109375 23.296875 
L 61.8125 72.90625 
L 76.515625 72.90625 
L 76.515625 0 
L 66.890625 0 
L 66.890625 64.015625 
L 48.09375 14.015625 
L 38.1875 14.015625 
L 19.390625 64.015625 
L 19.390625 0 
L 9.8125 0 
z
" id="DejaVuSans-77"/>
      <path d="M 34.1875 63.1875 
L 20.796875 26.90625 
L 47.609375 26.90625 
z
M 28.609375 72.90625 
L 39.796875 72.90625 
L 67.578125 0 
L 57.328125 0 
L 50.6875 18.703125 
L 17.828125 18.703125 
L 11.1875 0 
L 0.78125 0 
z
" id="DejaVuSans-65"/>
     </defs>
     <use xlink:href="#DejaVuSans-66"/>
     <use x="68.603516" xlink:href="#DejaVuSans-73"/>
     <use x="98.095703" xlink:href="#DejaVuSans-80"/>
     <use x="158.398438" xlink:href="#DejaVuSans-79"/>
     <use x="237.109375" xlink:href="#DejaVuSans-80"/>
     <use x="295.162109" xlink:href="#DejaVuSans-45"/>
     <use x="331.246094" xlink:href="#DejaVuSans-67"/>
     <use x="401.070312" xlink:href="#DejaVuSans-77"/>
     <use x="487.349609" xlink:href="#DejaVuSans-65"/>
    </g>
   </g>
   <g id="text_14">
    <!-- DE -->
    <g transform="translate(375.22944 157.353749)scale(0.17 -0.17)">
     <defs>
      <path d="M 19.671875 64.796875 
L 19.671875 8.109375 
L 31.59375 8.109375 
Q 46.6875 8.109375 53.6875 14.9375 
Q 60.6875 21.78125 60.6875 36.53125 
Q 60.6875 51.171875 53.6875 57.984375 
Q 46.6875 64.796875 31.59375 64.796875 
z
M 9.8125 72.90625 
L 30.078125 72.90625 
Q 51.265625 72.90625 61.171875 64.09375 
Q 71.09375 55.28125 71.09375 36.53125 
Q 71.09375 17.671875 61.125 8.828125 
Q 51.171875 0 30.078125 0 
L 9.8125 0 
z
" id="DejaVuSans-68"/>
      <path d="M 9.8125 72.90625 
L 55.90625 72.90625 
L 55.90625 64.59375 
L 19.671875 64.59375 
L 19.671875 43.015625 
L 54.390625 43.015625 
L 54.390625 34.71875 
L 19.671875 34.71875 
L 19.671875 8.296875 
L 56.78125 8.296875 
L 56.78125 0 
L 9.8125 0 
z
" id="DejaVuSans-69"/>
     </defs>
     <use xlink:href="#DejaVuSans-68"/>
     <use x="77.001953" xlink:href="#DejaVuSans-69"/>
    </g>
   </g>
   <g id="text_15">
    <!-- best 2009 -->
    <g transform="translate(375.22944 16.923809)scale(0.17 -0.17)">
     <defs>
      <path d="M 48.6875 27.296875 
Q 48.6875 37.203125 44.609375 42.84375 
Q 40.53125 48.484375 33.40625 48.484375 
Q 26.265625 48.484375 22.1875 42.84375 
Q 18.109375 37.203125 18.109375 27.296875 
Q 18.109375 17.390625 22.1875 11.75 
Q 26.265625 6.109375 33.40625 6.109375 
Q 40.53125 6.109375 44.609375 11.75 
Q 48.6875 17.390625 48.6875 27.296875 
z
M 18.109375 46.390625 
Q 20.953125 51.265625 25.265625 53.625 
Q 29.59375 56 35.59375 56 
Q 45.5625 56 51.78125 48.09375 
Q 58.015625 40.1875 58.015625 27.296875 
Q 58.015625 14.40625 51.78125 6.484375 
Q 45.5625 -1.421875 35.59375 -1.421875 
Q 29.59375 -1.421875 25.265625 0.953125 
Q 20.953125 3.328125 18.109375 8.203125 
L 18.109375 0 
L 9.078125 0 
L 9.078125 75.984375 
L 18.109375 75.984375 
z
" id="DejaVuSans-98"/>
      <path d="M 10.984375 1.515625 
L 10.984375 10.5 
Q 14.703125 8.734375 18.5 7.8125 
Q 22.3125 6.890625 25.984375 6.890625 
Q 35.75 6.890625 40.890625 13.453125 
Q 46.046875 20.015625 46.78125 33.40625 
Q 43.953125 29.203125 39.59375 26.953125 
Q 35.25 24.703125 29.984375 24.703125 
Q 19.046875 24.703125 12.671875 31.3125 
Q 6.296875 37.9375 6.296875 49.421875 
Q 6.296875 60.640625 12.9375 67.421875 
Q 19.578125 74.21875 30.609375 74.21875 
Q 43.265625 74.21875 49.921875 64.515625 
Q 56.59375 54.828125 56.59375 36.375 
Q 56.59375 19.140625 48.40625 8.859375 
Q 40.234375 -1.421875 26.421875 -1.421875 
Q 22.703125 -1.421875 18.890625 -0.6875 
Q 15.09375 0.046875 10.984375 1.515625 
z
M 30.609375 32.421875 
Q 37.25 32.421875 41.125 36.953125 
Q 45.015625 41.5 45.015625 49.421875 
Q 45.015625 57.28125 41.125 61.84375 
Q 37.25 66.40625 30.609375 66.40625 
Q 23.96875 66.40625 20.09375 61.84375 
Q 16.21875 57.28125 16.21875 49.421875 
Q 16.21875 41.5 20.09375 36.953125 
Q 23.96875 32.421875 30.609375 32.421875 
z
" id="DejaVuSans-57"/>
     </defs>
     <use xlink:href="#DejaVuSans-98"/>
     <use x="63.476562" xlink:href="#DejaVuSans-101"/>
     <use x="125" xlink:href="#DejaVuSans-115"/>
     <use x="177.099609" xlink:href="#DejaVuSans-116"/>
     <use x="216.308594" xlink:href="#DejaVuSans-32"/>
     <use x="248.095703" xlink:href="#DejaVuSans-50"/>
     <use x="311.71875" xlink:href="#DejaVuSans-48"/>
     <use x="375.341797" xlink:href="#DejaVuSans-48"/>
     <use x="438.964844" xlink:href="#DejaVuSans-57"/>
    </g>
   </g>
   <g id="text_16">
    <!-- bbob f1-f5, 20-D -->
    <g transform="translate(60.41088 14.161286)scale(0.102 -0.102)">
     <defs>
      <path d="M 10.796875 72.90625 
L 49.515625 72.90625 
L 49.515625 64.59375 
L 19.828125 64.59375 
L 19.828125 46.734375 
Q 21.96875 47.46875 24.109375 47.828125 
Q 26.265625 48.1875 28.421875 48.1875 
Q 40.625 48.1875 47.75 41.5 
Q 54.890625 34.8125 54.890625 23.390625 
Q 54.890625 11.625 47.5625 5.09375 
Q 40.234375 -1.421875 26.90625 -1.421875 
Q 22.3125 -1.421875 17.546875 -0.640625 
Q 12.796875 0.140625 7.71875 1.703125 
L 7.71875 11.625 
Q 12.109375 9.234375 16.796875 8.0625 
Q 21.484375 6.890625 26.703125 6.890625 
Q 35.15625 6.890625 40.078125 11.328125 
Q 45.015625 15.765625 45.015625 23.390625 
Q 45.015625 31 40.078125 35.4375 
Q 35.15625 39.890625 26.703125 39.890625 
Q 22.75 39.890625 18.8125 39.015625 
Q 14.890625 38.140625 10.796875 36.28125 
z
" id="DejaVuSans-53"/>
     </defs>
     <use xlink:href="#DejaVuSans-98"/>
     <use x="63.476562" xlink:href="#DejaVuSans-98"/>
     <use x="126.953125" xlink:href="#DejaVuSans-111"/>
     <use x="188.134766" xlink:href="#DejaVuSans-98"/>
     <use x="251.611328" xlink:href="#DejaVuSans-32"/>
     <use x="283.398438" xlink:href="#DejaVuSans-102"/>
     <use x="318.603516" xlink:href="#DejaVuSans-49"/>
     <use x="382.226562" xlink:href="#DejaVuSans-45"/>
     <use x="418.310547" xlink:href="#DejaVuSans-102"/>
     <use x="453.515625" xlink:href="#DejaVuSans-53"/>
     <use x="517.138672" xlink:href="#DejaVuSans-44"/>
     <use x="548.925781" xlink:href="#DejaVuSans-32"/>
     <use x="580.712891" xlink:href="#DejaVuSans-50"/>
     <use x="644.335938" xlink:href="#DejaVuSans-48"/>
     <use x="707.958984" xlink:href="#DejaVuSans-45"/>
     <use x="744.042969" xlink:href="#DejaVuSans-68"/>
    </g>
    <!-- 51 targets: 100..1e-08 -->
    <g transform="translate(60.41088 25.583055)scale(0.102 -0.102)">
     <defs>
      <path d="M 11.71875 12.40625 
L 22.015625 12.40625 
L 22.015625 0 
L 11.71875 0 
z
M 11.71875 51.703125 
L 22.015625 51.703125 
L 22.015625 39.3125 
L 11.71875 39.3125 
z
" id="DejaVuSans-58"/>
     </defs>
     <use xlink:href="#DejaVuSans-53"/>
     <use x="63.623047" xlink:href="#DejaVuSans-49"/>
     <use x="127.246094" xlink:href="#DejaVuSans-32"/>
     <use x="159.033203" xlink:href="#DejaVuSans-116"/>
     <use x="198.242188" xlink:href="#DejaVuSans-97"/>
     <use x="259.521484" xlink:href="#DejaVuSans-114"/>
     <use x="298.884766" xlink:href="#DejaVuSans-103"/>
     <use x="362.361328" xlink:href="#DejaVuSans-101"/>
     <use x="423.884766" xlink:href="#DejaVuSans-116"/>
     <use x="463.09375" xlink:href="#DejaVuSans-115"/>
     <use x="515.193359" xlink:href="#DejaVuSans-58"/>
     <use x="548.884766" xlink:href="#DejaVuSans-32"/>
     <use x="580.671875" xlink:href="#DejaVuSans-49"/>
     <use x="644.294922" xlink:href="#DejaVuSans-48"/>
     <use x="707.917969" xlink:href="#DejaVuSans-48"/>
     <use x="771.541016" xlink:href="#DejaVuSans-46"/>
     <use x="803.328125" xlink:href="#DejaVuSans-46"/>
     <use x="835.115234" xlink:href="#DejaVuSans-49"/>
     <use x="898.738281" xlink:href="#DejaVuSans-101"/>
     <use x="960.261719" xlink:href="#DejaVuSans-45"/>
     <use x="996.345703" xlink:href="#DejaVuSans-48"/>
     <use x="1059.96875" xlink:href="#DejaVuSans-56"/>
    </g>
    <!-- 15 instances -->
    <g transform="translate(60.41088 37.004824)scale(0.102 -0.102)">
     <use xlink:href="#DejaVuSans-49"/>
     <use x="63.623047" xlink:href="#DejaVuSans-53"/>
     <use x="127.246094" xlink:href="#DejaVuSans-32"/>
     <use x="159.033203" xlink:href="#DejaVuSans-105"/>
     <use x="186.816406" xlink:href="#DejaVuSans-110"/>
     <use x="250.195312" xlink:href="#DejaVuSans-115"/>
     <use x="302.294922" xlink:href="#DejaVuSans-116"/>
     <use x="341.503906" xlink:href="#DejaVuSans-97"/>
     <use x="402.783203" xlink:href="#DejaVuSans-110"/>
     <use x="466.162109" xlink:href="#DejaVuSans-99"/>
     <use x="521.142578" xlink:href="#DejaVuSans-101"/>
     <use x="582.666016" xlink:href="#DejaVuSans-115"/>
    </g>
   </g>
   <g id="text_17">
    <!-- v2.4 -->
    <g style="fill:#808080;" transform="translate(187.233062 293.909432)scale(0.1 -0.1)">
     <use xlink:href="#DejaVuSans-118"/>
     <use x="59.179688" xlink:href="#DejaVuSans-50"/>
     <use x="122.802734" xlink:href="#DejaVuSans-46"/>
     <use x="154.589844" xlink:href="#DejaVuSans-52"/>
    </g>
   </g>
  </g>
 </g>
 <defs>
  <clipPath id="pe991fe4a41">
   <rect height="295.488" width="281.088" x="57.6" y="3.456"/>
  </clipPath>
 </defs>
</svg>
