<?xml version="1.0" encoding="utf-8" standalone="no"?>
<!DOCTYPE svg PUBLIC "-//W3C//DTD SVG 1.1//EN"
  "http://www.w3.org/Graphics/SVG/1.1/DTD/svg11.dtd">
<!-- Created with matplotlib (https://matplotlib.org/) -->
<svg height="345.6pt" version="1.1" viewBox="0 0 460.8 345.6" width="460.8pt" xmlns="http://www.w3.org/2000/svg" xmlns:xlink="http://www.w3.org/1999/xlink">
 <metadata>
  <rdf:RDF xmlns:cc="http://creativecommons.org/ns#" xmlns:dc="http://purl.org/dc/elements/1.1/" xmlns:rdf="http://www.w3.org/1999/02/22-rdf-syntax-ns#">
   <cc:Work>
    <dc:type rdf:resource="http://purl.org/dc/dcmitype/StillImage"/>
    <dc:date>2021-05-02T04:46:52.106205</dc:date>
    <dc:format>image/svg+xml</dc:format>
    <dc:creator>
     <cc:Agent>
      <dc:title>Matplotlib v3.3.2, https://matplotlib.org/</dc:title>
     </cc:Agent>
    </dc:creator>
   </cc:Work>
  </rdf:RDF>
 </metadata>
 <defs>
  <style type="text/css">*{stroke-linecap:butt;stroke-linejoin:round;}</style>
 </defs>
 <g id="figure_1">
  <g id="patch_1">
   <path d="M 0 345.6 
L 460.8 345.6 
L 460.8 0 
L 0 0 
z
" style="fill:#ffffff;"/>
  </g>
  <g id="axes_1">
   <g id="patch_2">
    <path d="M 57.6 298.944 
L 338.688 298.944 
L 338.688 3.456 
L 57.6 3.456 
z
" style="fill:#ffffff;"/>
   </g>
   <g id="line2d_1">
    <path d="M 38.440992 298.944 
L 38.440992 291.773354 
L 57.6 291.773354 
L 57.6 290.339224 
L 62.616969 290.339224 
L 62.616969 288.905095 
L 66.508432 288.905095 
L 66.508432 287.470966 
L 74.704957 287.470966 
L 74.704957 281.734448 
L 80.258561 281.734448 
L 80.258561 280.300319 
L 83.171864 280.300319 
L 83.171864 278.86619 
L 85.66744 278.86619 
L 85.66744 277.432061 
L 86.792945 277.432061 
L 86.792945 275.997931 
L 87.850195 275.997931 
L 87.850195 274.563802 
L 88.846997 274.563802 
L 88.846997 273.129673 
L 89.78989 273.129673 
L 89.78989 271.695543 
L 90.684409 271.695543 
L 90.684409 270.261414 
L 91.535274 270.261414 
L 91.535274 268.827285 
L 93.863965 268.827285 
L 93.863965 267.393156 
L 94.575872 267.393156 
L 94.575872 263.090768 
L 95.918017 263.090768 
L 95.918017 261.656638 
L 98.32726 261.656638 
L 98.32726 257.35425 
L 98.880934 257.35425 
L 98.880934 255.920121 
L 99.938184 255.920121 
L 99.938184 254.485992 
L 101.877879 254.485992 
L 101.877879 253.051863 
L 102.330873 253.051863 
L 102.330873 251.617733 
L 102.772397 251.617733 
L 102.772397 248.749475 
L 104.826449 248.749475 
L 104.826449 247.315345 
L 105.209745 247.315345 
L 105.209745 245.881216 
L 105.951954 245.881216 
L 105.951954 244.447087 
L 106.311539 244.447087 
L 106.311539 243.012957 
L 107.347841 243.012957 
L 107.347841 241.578828 
L 108.640231 241.578828 
L 108.640231 240.144699 
L 109.252198 240.144699 
L 109.252198 238.71057 
L 110.131676 238.71057 
L 110.131676 237.27644 
L 111.239304 237.27644 
L 111.239304 234.408182 
L 111.505558 234.408182 
L 111.505558 232.974052 
L 112.779064 232.974052 
L 112.779064 231.539923 
L 113.500792 231.539923 
L 113.500792 230.105794 
L 114.418861 230.105794 
L 114.418861 228.671665 
L 114.641021 228.671665 
L 114.641021 227.237535 
L 116.719583 227.237535 
L 116.719583 225.803406 
L 116.914437 225.803406 
L 116.914437 224.369277 
L 118.576578 224.369277 
L 118.576578 222.935147 
L 119.267333 222.935147 
L 119.267333 221.501018 
L 119.43583 221.501018 
L 119.43583 220.066889 
L 119.931767 220.066889 
L 119.931767 218.632759 
L 120.728219 218.632759 
L 120.728219 217.19863 
L 121.036887 217.19863 
L 121.036887 215.764501 
L 121.340187 215.764501 
L 121.340187 214.330372 
L 121.489881 214.330372 
L 121.489881 212.896242 
L 122.643312 212.896242 
L 122.643312 211.462113 
L 122.920132 211.462113 
L 122.920132 210.027984 
L 123.056911 210.027984 
L 123.056911 208.593854 
L 123.327293 208.593854 
L 123.327293 207.159725 
L 123.593547 207.159725 
L 123.593547 205.725596 
L 124.114161 205.725596 
L 124.114161 204.291467 
L 124.368753 204.291467 
L 124.368753 202.857337 
L 124.494669 202.857337 
L 124.494669 201.423208 
L 124.989434 201.423208 
L 124.989434 198.554949 
L 125.23165 198.554949 
L 125.23165 197.12082 
L 125.351508 197.12082 
L 125.351508 195.686691 
L 125.706218 195.686691 
L 125.706218 192.818432 
L 126.053856 192.818432 
L 126.053856 189.950174 
L 126.281824 189.950174 
L 126.281824 188.516044 
L 126.3947 188.516044 
L 126.3947 187.081915 
L 126.729009 187.081915 
L 126.839037 181.345398 
L 126.948374 181.345398 
L 126.948374 179.911268 
L 127.165014 179.911268 
L 127.165014 177.04301 
L 127.378995 177.04301 
L 127.48501 171.306493 
L 127.590383 171.306493 
L 127.695124 167.004105 
L 127.799239 167.004105 
L 127.902737 164.135846 
L 128.005624 164.135846 
L 128.107907 161.267588 
L 128.209594 161.267588 
L 128.209594 158.399329 
L 128.411207 158.399329 
L 128.511146 149.794553 
L 128.610515 149.794553 
L 128.709321 144.058036 
L 128.807571 144.058036 
L 128.905271 138.321519 
L 129.002426 138.321519 
L 129.099042 134.019131 
L 129.195127 134.019131 
L 129.290685 131.150872 
L 129.385722 131.150872 
L 129.385722 129.716743 
L 129.574256 129.716743 
L 129.574256 126.848485 
L 129.760775 126.848485 
L 129.853291 123.980226 
L 129.945319 123.980226 
L 130.036864 121.111967 
L 130.127931 121.111967 
L 130.127931 119.677838 
L 130.30865 119.677838 
L 130.398313 115.37545 
L 130.487516 115.37545 
L 130.576266 109.638933 
L 130.664567 109.638933 
L 130.664567 106.770674 
L 130.926816 106.770674 
L 131.013364 101.034157 
L 131.099484 101.034157 
L 131.185181 98.165899 
L 131.270459 98.165899 
L 131.355321 95.29764 
L 131.523818 95.29764 
L 131.60746 86.692864 
L 131.690703 86.692864 
L 131.690703 83.824606 
L 132.101058 83.824606 
L 132.181982 80.956347 
L 132.581068 80.956347 
L 132.581068 79.522218 
L 132.971225 79.522218 
L 132.971225 78.088089 
L 133.352844 78.088089 
L 133.352844 76.653959 
L 133.72629 76.653959 
L 133.72629 75.21983 
L 134.019394 75.21983 
L 134.019394 73.785701 
L 134.236034 73.785701 
L 134.236034 72.351571 
L 134.520763 72.351571 
L 134.520763 70.917442 
L 134.661403 70.917442 
L 134.661403 69.483313 
L 134.939326 69.483313 
L 134.939326 68.049183 
L 135.415281 68.049183 
L 135.415281 66.615054 
L 135.747468 66.615054 
L 135.747468 65.180925 
L 136.137916 65.180925 
L 136.137916 63.746796 
L 136.519813 63.746796 
L 136.519813 62.312666 
L 136.955041 62.312666 
L 136.955041 60.878537 
L 137.37967 60.878537 
L 137.37967 59.444408 
L 137.558536 59.444408 
L 137.558536 58.010278 
L 140.195896 58.010278 
L 140.195896 56.576149 
L 140.944478 56.576149 
L 140.944478 55.14202 
L 141.33096 55.14202 
L 141.33096 53.707891 
L 141.755753 53.707891 
L 141.755753 52.273761 
L 142.215919 52.273761 
L 142.215919 50.839632 
L 145.516164 50.839632 
L 145.516164 49.405503 
L 145.740226 49.405503 
L 145.740226 47.971373 
L 146.107383 47.971373 
L 146.179895 19.288787 
L 146.538004 19.288787 
L 146.538004 17.854658 
L 147.164632 17.854658 
L 147.164632 16.420529 
L 147.50327 16.420529 
L 147.50327 14.9864 
L 147.999207 14.9864 
L 147.999207 13.55227 
L 148.639252 13.55227 
L 148.639252 12.118141 
L 149.043029 12.118141 
L 149.043029 10.684012 
L 149.616841 10.684012 
L 149.616841 9.249882 
L 150.05688 9.249882 
L 150.05688 7.815753 
L 150.401087 7.815753 
L 150.401087 6.381624 
L 338.688 6.381624 
L 338.688 6.381624 
" style="fill:none;stroke:#f5deb3;stroke-linecap:square;stroke-width:4;"/>
   </g>
   <g id="line2d_2">
    <defs>
     <path d="M -0 7.778175 
L 7.778175 0 
L 0 -7.778175 
L -7.778175 -0 
z
" id="mf3fc0cb448" style="stroke:#f5deb3;stroke-linejoin:miter;stroke-width:1.5;"/>
    </defs>
    <g>
     <use style="fill:#f5deb3;stroke:#f5deb3;stroke-linejoin:miter;stroke-width:1.5;" x="90.684409" xlink:href="#mf3fc0cb448" y="271.695543"/>
     <use style="fill:#f5deb3;stroke:#f5deb3;stroke-linejoin:miter;stroke-width:1.5;" x="128.411207" xlink:href="#mf3fc0cb448" y="158.399329"/>
     <use style="fill:#f5deb3;stroke:#f5deb3;stroke-linejoin:miter;stroke-width:1.5;" x="146.179895" xlink:href="#mf3fc0cb448" y="46.537244"/>
     <use style="fill:#f5deb3;stroke:#f5deb3;stroke-linejoin:miter;stroke-width:1.5;" x="150.401087" xlink:href="#mf3fc0cb448" y="6.381624"/>
     <use style="fill:#f5deb3;stroke:#f5deb3;stroke-linejoin:miter;stroke-width:1.5;" x="150.401087" xlink:href="#mf3fc0cb448" y="6.381624"/>
     <use style="fill:#f5deb3;stroke:#f5deb3;stroke-linejoin:miter;stroke-width:1.5;" x="338.688" xlink:href="#mf3fc0cb448" y="6.381624"/>
    </g>
   </g>
   <g id="line2d_3">
    <path style="fill:none;stroke:#f5deb3;stroke-linecap:square;stroke-width:4;"/>
    <g/>
   </g>
   <g id="line2d_4">
    <path d="M 338.688 6.381624 
L 369.60768 12.232871 
" style="fill:none;stroke:#f5deb3;stroke-linecap:square;stroke-width:4;"/>
    <g>
     <use style="fill:#f5deb3;stroke:#f5deb3;stroke-linejoin:miter;stroke-width:1.5;" x="338.688" xlink:href="#mf3fc0cb448" y="6.381624"/>
     <use style="fill:#f5deb3;stroke:#f5deb3;stroke-linejoin:miter;stroke-width:1.5;" x="369.60768" xlink:href="#mf3fc0cb448" y="12.232871"/>
    </g>
   </g>
   <g id="matplotlib.axis_1">
    <g id="xtick_1">
     <g id="line2d_5">
      <path clip-path="url(#p591e07b36a)" d="M 57.6 298.944 
L 57.6 3.456 
" style="fill:none;stroke:#b0b0b0;stroke-linecap:square;stroke-width:0.8;"/>
     </g>
     <g id="line2d_6">
      <defs>
       <path d="M 0 0 
L 0 3.5 
" id="m13df520fe9" style="stroke:#000000;stroke-width:0.8;"/>
      </defs>
      <g>
       <use style="stroke:#000000;stroke-width:0.8;" x="57.6" xlink:href="#m13df520fe9" y="298.944"/>
      </g>
     </g>
     <g id="text_1">
      <!-- 0 -->
      <g transform="translate(51.2375 321.140875)scale(0.2 -0.2)">
       <defs>
        <path d="M 31.78125 66.40625 
Q 24.171875 66.40625 20.328125 58.90625 
Q 16.5 51.421875 16.5 36.375 
Q 16.5 21.390625 20.328125 13.890625 
Q 24.171875 6.390625 31.78125 6.390625 
Q 39.453125 6.390625 43.28125 13.890625 
Q 47.125 21.390625 47.125 36.375 
Q 47.125 51.421875 43.28125 58.90625 
Q 39.453125 66.40625 31.78125 66.40625 
z
M 31.78125 74.21875 
Q 44.046875 74.21875 50.515625 64.515625 
Q 56.984375 54.828125 56.984375 36.375 
Q 56.984375 17.96875 50.515625 8.265625 
Q 44.046875 -1.421875 31.78125 -1.421875 
Q 19.53125 -1.421875 13.0625 8.265625 
Q 6.59375 17.96875 6.59375 36.375 
Q 6.59375 54.828125 13.0625 64.515625 
Q 19.53125 74.21875 31.78125 74.21875 
z
" id="DejaVuSans-48"/>
       </defs>
       <use xlink:href="#DejaVuSans-48"/>
      </g>
     </g>
    </g>
    <g id="xtick_2">
     <g id="line2d_7">
      <path clip-path="url(#p591e07b36a)" d="M 137.910857 298.944 
L 137.910857 3.456 
" style="fill:none;stroke:#b0b0b0;stroke-linecap:square;stroke-width:0.8;"/>
     </g>
     <g id="line2d_8">
      <g>
       <use style="stroke:#000000;stroke-width:0.8;" x="137.910857" xlink:href="#m13df520fe9" y="298.944"/>
      </g>
     </g>
     <g id="text_2">
      <!-- 2 -->
      <g transform="translate(131.548357 321.140875)scale(0.2 -0.2)">
       <defs>
        <path d="M 19.1875 8.296875 
L 53.609375 8.296875 
L 53.609375 0 
L 7.328125 0 
L 7.328125 8.296875 
Q 12.9375 14.109375 22.625 23.890625 
Q 32.328125 33.6875 34.8125 36.53125 
Q 39.546875 41.84375 41.421875 45.53125 
Q 43.3125 49.21875 43.3125 52.78125 
Q 43.3125 58.59375 39.234375 62.25 
Q 35.15625 65.921875 28.609375 65.921875 
Q 23.96875 65.921875 18.8125 64.3125 
Q 13.671875 62.703125 7.8125 59.421875 
L 7.8125 69.390625 
Q 13.765625 71.78125 18.9375 73 
Q 24.125 74.21875 28.421875 74.21875 
Q 39.75 74.21875 46.484375 68.546875 
Q 53.21875 62.890625 53.21875 53.421875 
Q 53.21875 48.921875 51.53125 44.890625 
Q 49.859375 40.875 45.40625 35.40625 
Q 44.1875 33.984375 37.640625 27.21875 
Q 31.109375 20.453125 19.1875 8.296875 
z
" id="DejaVuSans-50"/>
       </defs>
       <use xlink:href="#DejaVuSans-50"/>
      </g>
     </g>
    </g>
    <g id="xtick_3">
     <g id="line2d_9">
      <path clip-path="url(#p591e07b36a)" d="M 218.221714 298.944 
L 218.221714 3.456 
" style="fill:none;stroke:#b0b0b0;stroke-linecap:square;stroke-width:0.8;"/>
     </g>
     <g id="line2d_10">
      <g>
       <use style="stroke:#000000;stroke-width:0.8;" x="218.221714" xlink:href="#m13df520fe9" y="298.944"/>
      </g>
     </g>
     <g id="text_3">
      <!-- 4 -->
      <g transform="translate(211.859214 321.140875)scale(0.2 -0.2)">
       <defs>
        <path d="M 37.796875 64.3125 
L 12.890625 25.390625 
L 37.796875 25.390625 
z
M 35.203125 72.90625 
L 47.609375 72.90625 
L 47.609375 25.390625 
L 58.015625 25.390625 
L 58.015625 17.1875 
L 47.609375 17.1875 
L 47.609375 0 
L 37.796875 0 
L 37.796875 17.1875 
L 4.890625 17.1875 
L 4.890625 26.703125 
z
" id="DejaVuSans-52"/>
       </defs>
       <use xlink:href="#DejaVuSans-52"/>
      </g>
     </g>
    </g>
    <g id="xtick_4">
     <g id="line2d_11">
      <path clip-path="url(#p591e07b36a)" d="M 298.532571 298.944 
L 298.532571 3.456 
" style="fill:none;stroke:#b0b0b0;stroke-linecap:square;stroke-width:0.8;"/>
     </g>
     <g id="line2d_12">
      <g>
       <use style="stroke:#000000;stroke-width:0.8;" x="298.532571" xlink:href="#m13df520fe9" y="298.944"/>
      </g>
     </g>
     <g id="text_4">
      <!-- 6 -->
      <g transform="translate(292.170071 321.140875)scale(0.2 -0.2)">
       <defs>
        <path d="M 33.015625 40.375 
Q 26.375 40.375 22.484375 35.828125 
Q 18.609375 31.296875 18.609375 23.390625 
Q 18.609375 15.53125 22.484375 10.953125 
Q 26.375 6.390625 33.015625 6.390625 
Q 39.65625 6.390625 43.53125 10.953125 
Q 47.40625 15.53125 47.40625 23.390625 
Q 47.40625 31.296875 43.53125 35.828125 
Q 39.65625 40.375 33.015625 40.375 
z
M 52.59375 71.296875 
L 52.59375 62.3125 
Q 48.875 64.0625 45.09375 64.984375 
Q 41.3125 65.921875 37.59375 65.921875 
Q 27.828125 65.921875 22.671875 59.328125 
Q 17.53125 52.734375 16.796875 39.40625 
Q 19.671875 43.65625 24.015625 45.921875 
Q 28.375 48.1875 33.59375 48.1875 
Q 44.578125 48.1875 50.953125 41.515625 
Q 57.328125 34.859375 57.328125 23.390625 
Q 57.328125 12.15625 50.6875 5.359375 
Q 44.046875 -1.421875 33.015625 -1.421875 
Q 20.359375 -1.421875 13.671875 8.265625 
Q 6.984375 17.96875 6.984375 36.375 
Q 6.984375 53.65625 15.1875 63.9375 
Q 23.390625 74.21875 37.203125 74.21875 
Q 40.921875 74.21875 44.703125 73.484375 
Q 48.484375 72.75 52.59375 71.296875 
z
" id="DejaVuSans-54"/>
       </defs>
       <use xlink:href="#DejaVuSans-54"/>
      </g>
     </g>
    </g>
    <g id="xtick_5">
     <g id="line2d_13">
      <path clip-path="url(#p591e07b36a)" d="M 97.755429 298.944 
L 97.755429 3.456 
" style="fill:none;stroke:#b0b0b0;stroke-linecap:square;stroke-width:0.8;"/>
     </g>
     <g id="line2d_14">
      <defs>
       <path d="M 0 0 
L 0 2 
" id="m57f16fb754" style="stroke:#000000;stroke-width:0.6;"/>
      </defs>
      <g>
       <use style="stroke:#000000;stroke-width:0.6;" x="97.755429" xlink:href="#m57f16fb754" y="298.944"/>
      </g>
     </g>
    </g>
    <g id="xtick_6">
     <g id="line2d_15">
      <path clip-path="url(#p591e07b36a)" d="M 178.066286 298.944 
L 178.066286 3.456 
" style="fill:none;stroke:#b0b0b0;stroke-linecap:square;stroke-width:0.8;"/>
     </g>
     <g id="line2d_16">
      <g>
       <use style="stroke:#000000;stroke-width:0.6;" x="178.066286" xlink:href="#m57f16fb754" y="298.944"/>
      </g>
     </g>
    </g>
    <g id="xtick_7">
     <g id="line2d_17">
      <path clip-path="url(#p591e07b36a)" d="M 258.377143 298.944 
L 258.377143 3.456 
" style="fill:none;stroke:#b0b0b0;stroke-linecap:square;stroke-width:0.8;"/>
     </g>
     <g id="line2d_18">
      <g>
       <use style="stroke:#000000;stroke-width:0.6;" x="258.377143" xlink:href="#m57f16fb754" y="298.944"/>
      </g>
     </g>
    </g>
    <g id="xtick_8">
     <g id="line2d_19">
      <path clip-path="url(#p591e07b36a)" d="M 338.688 298.944 
L 338.688 3.456 
" style="fill:none;stroke:#b0b0b0;stroke-linecap:square;stroke-width:0.8;"/>
     </g>
     <g id="line2d_20">
      <g>
       <use style="stroke:#000000;stroke-width:0.6;" x="338.688" xlink:href="#m57f16fb754" y="298.944"/>
      </g>
     </g>
    </g>
    <g id="text_5">
     <!-- log10(# f-evals / dimension) -->
     <g transform="translate(77.764078 342.217594)scale(0.17 -0.17)">
      <defs>
       <path d="M 9.421875 75.984375 
L 18.40625 75.984375 
L 18.40625 0 
L 9.421875 0 
z
" id="DejaVuSans-108"/>
       <path d="M 30.609375 48.390625 
Q 23.390625 48.390625 19.1875 42.75 
Q 14.984375 37.109375 14.984375 27.296875 
Q 14.984375 17.484375 19.15625 11.84375 
Q 23.34375 6.203125 30.609375 6.203125 
Q 37.796875 6.203125 41.984375 11.859375 
Q 46.1875 17.53125 46.1875 27.296875 
Q 46.1875 37.015625 41.984375 42.703125 
Q 37.796875 48.390625 30.609375 48.390625 
z
M 30.609375 56 
Q 42.328125 56 49.015625 48.375 
Q 55.71875 40.765625 55.71875 27.296875 
Q 55.71875 13.875 49.015625 6.21875 
Q 42.328125 -1.421875 30.609375 -1.421875 
Q 18.84375 -1.421875 12.171875 6.21875 
Q 5.515625 13.875 5.515625 27.296875 
Q 5.515625 40.765625 12.171875 48.375 
Q 18.84375 56 30.609375 56 
z
" id="DejaVuSans-111"/>
       <path d="M 45.40625 27.984375 
Q 45.40625 37.75 41.375 43.109375 
Q 37.359375 48.484375 30.078125 48.484375 
Q 22.859375 48.484375 18.828125 43.109375 
Q 14.796875 37.75 14.796875 27.984375 
Q 14.796875 18.265625 18.828125 12.890625 
Q 22.859375 7.515625 30.078125 7.515625 
Q 37.359375 7.515625 41.375 12.890625 
Q 45.40625 18.265625 45.40625 27.984375 
z
M 54.390625 6.78125 
Q 54.390625 -7.171875 48.1875 -13.984375 
Q 42 -20.796875 29.203125 -20.796875 
Q 24.46875 -20.796875 20.265625 -20.09375 
Q 16.0625 -19.390625 12.109375 -17.921875 
L 12.109375 -9.1875 
Q 16.0625 -11.328125 19.921875 -12.34375 
Q 23.78125 -13.375 27.78125 -13.375 
Q 36.625 -13.375 41.015625 -8.765625 
Q 45.40625 -4.15625 45.40625 5.171875 
L 45.40625 9.625 
Q 42.625 4.78125 38.28125 2.390625 
Q 33.9375 0 27.875 0 
Q 17.828125 0 11.671875 7.65625 
Q 5.515625 15.328125 5.515625 27.984375 
Q 5.515625 40.671875 11.671875 48.328125 
Q 17.828125 56 27.875 56 
Q 33.9375 56 38.28125 53.609375 
Q 42.625 51.21875 45.40625 46.390625 
L 45.40625 54.6875 
L 54.390625 54.6875 
z
" id="DejaVuSans-103"/>
       <path d="M 12.40625 8.296875 
L 28.515625 8.296875 
L 28.515625 63.921875 
L 10.984375 60.40625 
L 10.984375 69.390625 
L 28.421875 72.90625 
L 38.28125 72.90625 
L 38.28125 8.296875 
L 54.390625 8.296875 
L 54.390625 0 
L 12.40625 0 
z
" id="DejaVuSans-49"/>
       <path d="M 31 75.875 
Q 24.46875 64.65625 21.28125 53.65625 
Q 18.109375 42.671875 18.109375 31.390625 
Q 18.109375 20.125 21.3125 9.0625 
Q 24.515625 -2 31 -13.1875 
L 23.1875 -13.1875 
Q 15.875 -1.703125 12.234375 9.375 
Q 8.59375 20.453125 8.59375 31.390625 
Q 8.59375 42.28125 12.203125 53.3125 
Q 15.828125 64.359375 23.1875 75.875 
z
" id="DejaVuSans-40"/>
       <path d="M 51.125 44 
L 36.921875 44 
L 32.8125 27.6875 
L 47.125 27.6875 
z
M 43.796875 71.78125 
L 38.71875 51.515625 
L 52.984375 51.515625 
L 58.109375 71.78125 
L 65.921875 71.78125 
L 60.890625 51.515625 
L 76.125 51.515625 
L 76.125 44 
L 58.984375 44 
L 54.984375 27.6875 
L 70.515625 27.6875 
L 70.515625 20.21875 
L 53.078125 20.21875 
L 48 0 
L 40.1875 0 
L 45.21875 20.21875 
L 30.90625 20.21875 
L 25.875 0 
L 18.015625 0 
L 23.09375 20.21875 
L 7.71875 20.21875 
L 7.71875 27.6875 
L 24.90625 27.6875 
L 29 44 
L 13.28125 44 
L 13.28125 51.515625 
L 30.90625 51.515625 
L 35.890625 71.78125 
z
" id="DejaVuSans-35"/>
       <path id="DejaVuSans-32"/>
       <path d="M 37.109375 75.984375 
L 37.109375 68.5 
L 28.515625 68.5 
Q 23.6875 68.5 21.796875 66.546875 
Q 19.921875 64.59375 19.921875 59.515625 
L 19.921875 54.6875 
L 34.71875 54.6875 
L 34.71875 47.703125 
L 19.921875 47.703125 
L 19.921875 0 
L 10.890625 0 
L 10.890625 47.703125 
L 2.296875 47.703125 
L 2.296875 54.6875 
L 10.890625 54.6875 
L 10.890625 58.5 
Q 10.890625 67.625 15.140625 71.796875 
Q 19.390625 75.984375 28.609375 75.984375 
z
" id="DejaVuSans-102"/>
       <path d="M 4.890625 31.390625 
L 31.203125 31.390625 
L 31.203125 23.390625 
L 4.890625 23.390625 
z
" id="DejaVuSans-45"/>
       <path d="M 56.203125 29.59375 
L 56.203125 25.203125 
L 14.890625 25.203125 
Q 15.484375 15.921875 20.484375 11.0625 
Q 25.484375 6.203125 34.421875 6.203125 
Q 39.59375 6.203125 44.453125 7.46875 
Q 49.3125 8.734375 54.109375 11.28125 
L 54.109375 2.78125 
Q 49.265625 0.734375 44.1875 -0.34375 
Q 39.109375 -1.421875 33.890625 -1.421875 
Q 20.796875 -1.421875 13.15625 6.1875 
Q 5.515625 13.8125 5.515625 26.8125 
Q 5.515625 40.234375 12.765625 48.109375 
Q 20.015625 56 32.328125 56 
Q 43.359375 56 49.78125 48.890625 
Q 56.203125 41.796875 56.203125 29.59375 
z
M 47.21875 32.234375 
Q 47.125 39.59375 43.09375 43.984375 
Q 39.0625 48.390625 32.421875 48.390625 
Q 24.90625 48.390625 20.390625 44.140625 
Q 15.875 39.890625 15.1875 32.171875 
z
" id="DejaVuSans-101"/>
       <path d="M 2.984375 54.6875 
L 12.5 54.6875 
L 29.59375 8.796875 
L 46.6875 54.6875 
L 56.203125 54.6875 
L 35.6875 0 
L 23.484375 0 
z
" id="DejaVuSans-118"/>
       <path d="M 34.28125 27.484375 
Q 23.390625 27.484375 19.1875 25 
Q 14.984375 22.515625 14.984375 16.5 
Q 14.984375 11.71875 18.140625 8.90625 
Q 21.296875 6.109375 26.703125 6.109375 
Q 34.1875 6.109375 38.703125 11.40625 
Q 43.21875 16.703125 43.21875 25.484375 
L 43.21875 27.484375 
z
M 52.203125 31.203125 
L 52.203125 0 
L 43.21875 0 
L 43.21875 8.296875 
Q 40.140625 3.328125 35.546875 0.953125 
Q 30.953125 -1.421875 24.3125 -1.421875 
Q 15.921875 -1.421875 10.953125 3.296875 
Q 6 8.015625 6 15.921875 
Q 6 25.140625 12.171875 29.828125 
Q 18.359375 34.515625 30.609375 34.515625 
L 43.21875 34.515625 
L 43.21875 35.40625 
Q 43.21875 41.609375 39.140625 45 
Q 35.0625 48.390625 27.6875 48.390625 
Q 23 48.390625 18.546875 47.265625 
Q 14.109375 46.140625 10.015625 43.890625 
L 10.015625 52.203125 
Q 14.9375 54.109375 19.578125 55.046875 
Q 24.21875 56 28.609375 56 
Q 40.484375 56 46.34375 49.84375 
Q 52.203125 43.703125 52.203125 31.203125 
z
" id="DejaVuSans-97"/>
       <path d="M 44.28125 53.078125 
L 44.28125 44.578125 
Q 40.484375 46.53125 36.375 47.5 
Q 32.28125 48.484375 27.875 48.484375 
Q 21.1875 48.484375 17.84375 46.4375 
Q 14.5 44.390625 14.5 40.28125 
Q 14.5 37.15625 16.890625 35.375 
Q 19.28125 33.59375 26.515625 31.984375 
L 29.59375 31.296875 
Q 39.15625 29.25 43.1875 25.515625 
Q 47.21875 21.78125 47.21875 15.09375 
Q 47.21875 7.46875 41.1875 3.015625 
Q 35.15625 -1.421875 24.609375 -1.421875 
Q 20.21875 -1.421875 15.453125 -0.5625 
Q 10.6875 0.296875 5.421875 2 
L 5.421875 11.28125 
Q 10.40625 8.6875 15.234375 7.390625 
Q 20.0625 6.109375 24.8125 6.109375 
Q 31.15625 6.109375 34.5625 8.28125 
Q 37.984375 10.453125 37.984375 14.40625 
Q 37.984375 18.0625 35.515625 20.015625 
Q 33.0625 21.96875 24.703125 23.78125 
L 21.578125 24.515625 
Q 13.234375 26.265625 9.515625 29.90625 
Q 5.8125 33.546875 5.8125 39.890625 
Q 5.8125 47.609375 11.28125 51.796875 
Q 16.75 56 26.8125 56 
Q 31.78125 56 36.171875 55.265625 
Q 40.578125 54.546875 44.28125 53.078125 
z
" id="DejaVuSans-115"/>
       <path d="M 25.390625 72.90625 
L 33.6875 72.90625 
L 8.296875 -9.28125 
L 0 -9.28125 
z
" id="DejaVuSans-47"/>
       <path d="M 45.40625 46.390625 
L 45.40625 75.984375 
L 54.390625 75.984375 
L 54.390625 0 
L 45.40625 0 
L 45.40625 8.203125 
Q 42.578125 3.328125 38.25 0.953125 
Q 33.9375 -1.421875 27.875 -1.421875 
Q 17.96875 -1.421875 11.734375 6.484375 
Q 5.515625 14.40625 5.515625 27.296875 
Q 5.515625 40.1875 11.734375 48.09375 
Q 17.96875 56 27.875 56 
Q 33.9375 56 38.25 53.625 
Q 42.578125 51.265625 45.40625 46.390625 
z
M 14.796875 27.296875 
Q 14.796875 17.390625 18.875 11.75 
Q 22.953125 6.109375 30.078125 6.109375 
Q 37.203125 6.109375 41.296875 11.75 
Q 45.40625 17.390625 45.40625 27.296875 
Q 45.40625 37.203125 41.296875 42.84375 
Q 37.203125 48.484375 30.078125 48.484375 
Q 22.953125 48.484375 18.875 42.84375 
Q 14.796875 37.203125 14.796875 27.296875 
z
" id="DejaVuSans-100"/>
       <path d="M 9.421875 54.6875 
L 18.40625 54.6875 
L 18.40625 0 
L 9.421875 0 
z
M 9.421875 75.984375 
L 18.40625 75.984375 
L 18.40625 64.59375 
L 9.421875 64.59375 
z
" id="DejaVuSans-105"/>
       <path d="M 52 44.1875 
Q 55.375 50.25 60.0625 53.125 
Q 64.75 56 71.09375 56 
Q 79.640625 56 84.28125 50.015625 
Q 88.921875 44.046875 88.921875 33.015625 
L 88.921875 0 
L 79.890625 0 
L 79.890625 32.71875 
Q 79.890625 40.578125 77.09375 44.375 
Q 74.3125 48.1875 68.609375 48.1875 
Q 61.625 48.1875 57.5625 43.546875 
Q 53.515625 38.921875 53.515625 30.90625 
L 53.515625 0 
L 44.484375 0 
L 44.484375 32.71875 
Q 44.484375 40.625 41.703125 44.40625 
Q 38.921875 48.1875 33.109375 48.1875 
Q 26.21875 48.1875 22.15625 43.53125 
Q 18.109375 38.875 18.109375 30.90625 
L 18.109375 0 
L 9.078125 0 
L 9.078125 54.6875 
L 18.109375 54.6875 
L 18.109375 46.1875 
Q 21.1875 51.21875 25.484375 53.609375 
Q 29.78125 56 35.6875 56 
Q 41.65625 56 45.828125 52.96875 
Q 50 49.953125 52 44.1875 
z
" id="DejaVuSans-109"/>
       <path d="M 54.890625 33.015625 
L 54.890625 0 
L 45.90625 0 
L 45.90625 32.71875 
Q 45.90625 40.484375 42.875 44.328125 
Q 39.84375 48.1875 33.796875 48.1875 
Q 26.515625 48.1875 22.3125 43.546875 
Q 18.109375 38.921875 18.109375 30.90625 
L 18.109375 0 
L 9.078125 0 
L 9.078125 54.6875 
L 18.109375 54.6875 
L 18.109375 46.1875 
Q 21.34375 51.125 25.703125 53.5625 
Q 30.078125 56 35.796875 56 
Q 45.21875 56 50.046875 50.171875 
Q 54.890625 44.34375 54.890625 33.015625 
z
" id="DejaVuSans-110"/>
       <path d="M 8.015625 75.875 
L 15.828125 75.875 
Q 23.140625 64.359375 26.78125 53.3125 
Q 30.421875 42.28125 30.421875 31.390625 
Q 30.421875 20.453125 26.78125 9.375 
Q 23.140625 -1.703125 15.828125 -13.1875 
L 8.015625 -13.1875 
Q 14.5 -2 17.703125 9.0625 
Q 20.90625 20.125 20.90625 31.390625 
Q 20.90625 42.671875 17.703125 53.65625 
Q 14.5 64.65625 8.015625 75.875 
z
" id="DejaVuSans-41"/>
      </defs>
      <use xlink:href="#DejaVuSans-108"/>
      <use x="27.783203" xlink:href="#DejaVuSans-111"/>
      <use x="88.964844" xlink:href="#DejaVuSans-103"/>
      <use x="152.441406" xlink:href="#DejaVuSans-49"/>
      <use x="216.064453" xlink:href="#DejaVuSans-48"/>
      <use x="279.6875" xlink:href="#DejaVuSans-40"/>
      <use x="318.701172" xlink:href="#DejaVuSans-35"/>
      <use x="402.490234" xlink:href="#DejaVuSans-32"/>
      <use x="434.277344" xlink:href="#DejaVuSans-102"/>
      <use x="463.982422" xlink:href="#DejaVuSans-45"/>
      <use x="500.066406" xlink:href="#DejaVuSans-101"/>
      <use x="561.589844" xlink:href="#DejaVuSans-118"/>
      <use x="620.769531" xlink:href="#DejaVuSans-97"/>
      <use x="682.048828" xlink:href="#DejaVuSans-108"/>
      <use x="709.832031" xlink:href="#DejaVuSans-115"/>
      <use x="761.931641" xlink:href="#DejaVuSans-32"/>
      <use x="793.71875" xlink:href="#DejaVuSans-47"/>
      <use x="827.410156" xlink:href="#DejaVuSans-32"/>
      <use x="859.197266" xlink:href="#DejaVuSans-100"/>
      <use x="922.673828" xlink:href="#DejaVuSans-105"/>
      <use x="950.457031" xlink:href="#DejaVuSans-109"/>
      <use x="1047.869141" xlink:href="#DejaVuSans-101"/>
      <use x="1109.392578" xlink:href="#DejaVuSans-110"/>
      <use x="1172.771484" xlink:href="#DejaVuSans-115"/>
      <use x="1224.871094" xlink:href="#DejaVuSans-105"/>
      <use x="1252.654297" xlink:href="#DejaVuSans-111"/>
      <use x="1313.835938" xlink:href="#DejaVuSans-110"/>
      <use x="1377.214844" xlink:href="#DejaVuSans-41"/>
     </g>
    </g>
   </g>
   <g id="matplotlib.axis_2">
    <g id="ytick_1">
     <g id="line2d_21">
      <path clip-path="url(#p591e07b36a)" d="M 57.6 298.944 
L 338.688 298.944 
" style="fill:none;stroke:#b0b0b0;stroke-linecap:square;stroke-width:0.8;"/>
     </g>
     <g id="line2d_22">
      <defs>
       <path d="M 0 0 
L -3.5 0 
" id="mf77ae8449c" style="stroke:#000000;stroke-width:0.8;"/>
      </defs>
      <g>
       <use style="stroke:#000000;stroke-width:0.8;" x="57.6" xlink:href="#mf77ae8449c" y="298.944"/>
      </g>
     </g>
     <g id="text_6">
      <!-- 0.0 -->
      <g transform="translate(25.155 305.02275)scale(0.16 -0.16)">
       <defs>
        <path d="M 10.6875 12.40625 
L 21 12.40625 
L 21 0 
L 10.6875 0 
z
" id="DejaVuSans-46"/>
       </defs>
       <use xlink:href="#DejaVuSans-48"/>
       <use x="63.623047" xlink:href="#DejaVuSans-46"/>
       <use x="95.410156" xlink:href="#DejaVuSans-48"/>
      </g>
     </g>
    </g>
    <g id="ytick_2">
     <g id="line2d_23">
      <path clip-path="url(#p591e07b36a)" d="M 57.6 240.431525 
L 338.688 240.431525 
" style="fill:none;stroke:#b0b0b0;stroke-linecap:square;stroke-width:0.8;"/>
     </g>
     <g id="line2d_24">
      <g>
       <use style="stroke:#000000;stroke-width:0.8;" x="57.6" xlink:href="#mf77ae8449c" y="240.431525"/>
      </g>
     </g>
     <g id="text_7">
      <!-- 0.2 -->
      <g transform="translate(25.155 246.510275)scale(0.16 -0.16)">
       <use xlink:href="#DejaVuSans-48"/>
       <use x="63.623047" xlink:href="#DejaVuSans-46"/>
       <use x="95.410156" xlink:href="#DejaVuSans-50"/>
      </g>
     </g>
    </g>
    <g id="ytick_3">
     <g id="line2d_25">
      <path clip-path="url(#p591e07b36a)" d="M 57.6 181.91905 
L 338.688 181.91905 
" style="fill:none;stroke:#b0b0b0;stroke-linecap:square;stroke-width:0.8;"/>
     </g>
     <g id="line2d_26">
      <g>
       <use style="stroke:#000000;stroke-width:0.8;" x="57.6" xlink:href="#mf77ae8449c" y="181.91905"/>
      </g>
     </g>
     <g id="text_8">
      <!-- 0.4 -->
      <g transform="translate(25.155 187.9978)scale(0.16 -0.16)">
       <use xlink:href="#DejaVuSans-48"/>
       <use x="63.623047" xlink:href="#DejaVuSans-46"/>
       <use x="95.410156" xlink:href="#DejaVuSans-52"/>
      </g>
     </g>
    </g>
    <g id="ytick_4">
     <g id="line2d_27">
      <path clip-path="url(#p591e07b36a)" d="M 57.6 123.406574 
L 338.688 123.406574 
" style="fill:none;stroke:#b0b0b0;stroke-linecap:square;stroke-width:0.8;"/>
     </g>
     <g id="line2d_28">
      <g>
       <use style="stroke:#000000;stroke-width:0.8;" x="57.6" xlink:href="#mf77ae8449c" y="123.406574"/>
      </g>
     </g>
     <g id="text_9">
      <!-- 0.6 -->
      <g transform="translate(25.155 129.485324)scale(0.16 -0.16)">
       <use xlink:href="#DejaVuSans-48"/>
       <use x="63.623047" xlink:href="#DejaVuSans-46"/>
       <use x="95.410156" xlink:href="#DejaVuSans-54"/>
      </g>
     </g>
    </g>
    <g id="ytick_5">
     <g id="line2d_29">
      <path clip-path="url(#p591e07b36a)" d="M 57.6 64.894099 
L 338.688 64.894099 
" style="fill:none;stroke:#b0b0b0;stroke-linecap:square;stroke-width:0.8;"/>
     </g>
     <g id="line2d_30">
      <g>
       <use style="stroke:#000000;stroke-width:0.8;" x="57.6" xlink:href="#mf77ae8449c" y="64.894099"/>
      </g>
     </g>
     <g id="text_10">
      <!-- 0.8 -->
      <g transform="translate(25.155 70.972849)scale(0.16 -0.16)">
       <defs>
        <path d="M 31.78125 34.625 
Q 24.75 34.625 20.71875 30.859375 
Q 16.703125 27.09375 16.703125 20.515625 
Q 16.703125 13.921875 20.71875 10.15625 
Q 24.75 6.390625 31.78125 6.390625 
Q 38.8125 6.390625 42.859375 10.171875 
Q 46.921875 13.96875 46.921875 20.515625 
Q 46.921875 27.09375 42.890625 30.859375 
Q 38.875 34.625 31.78125 34.625 
z
M 21.921875 38.8125 
Q 15.578125 40.375 12.03125 44.71875 
Q 8.5 49.078125 8.5 55.328125 
Q 8.5 64.0625 14.71875 69.140625 
Q 20.953125 74.21875 31.78125 74.21875 
Q 42.671875 74.21875 48.875 69.140625 
Q 55.078125 64.0625 55.078125 55.328125 
Q 55.078125 49.078125 51.53125 44.71875 
Q 48 40.375 41.703125 38.8125 
Q 48.828125 37.15625 52.796875 32.3125 
Q 56.78125 27.484375 56.78125 20.515625 
Q 56.78125 9.90625 50.3125 4.234375 
Q 43.84375 -1.421875 31.78125 -1.421875 
Q 19.734375 -1.421875 13.25 4.234375 
Q 6.78125 9.90625 6.78125 20.515625 
Q 6.78125 27.484375 10.78125 32.3125 
Q 14.796875 37.15625 21.921875 38.8125 
z
M 18.3125 54.390625 
Q 18.3125 48.734375 21.84375 45.5625 
Q 25.390625 42.390625 31.78125 42.390625 
Q 38.140625 42.390625 41.71875 45.5625 
Q 45.3125 48.734375 45.3125 54.390625 
Q 45.3125 60.0625 41.71875 63.234375 
Q 38.140625 66.40625 31.78125 66.40625 
Q 25.390625 66.40625 21.84375 63.234375 
Q 18.3125 60.0625 18.3125 54.390625 
z
" id="DejaVuSans-56"/>
       </defs>
       <use xlink:href="#DejaVuSans-48"/>
       <use x="63.623047" xlink:href="#DejaVuSans-46"/>
       <use x="95.410156" xlink:href="#DejaVuSans-56"/>
      </g>
     </g>
    </g>
    <g id="ytick_6">
     <g id="line2d_31">
      <path clip-path="url(#p591e07b36a)" d="M 57.6 6.381624 
L 338.688 6.381624 
" style="fill:none;stroke:#b0b0b0;stroke-linecap:square;stroke-width:0.8;"/>
     </g>
     <g id="line2d_32">
      <g>
       <use style="stroke:#000000;stroke-width:0.8;" x="57.6" xlink:href="#mf77ae8449c" y="6.381624"/>
      </g>
     </g>
     <g id="text_11">
      <!-- 1.0 -->
      <g transform="translate(25.155 12.460374)scale(0.16 -0.16)">
       <use xlink:href="#DejaVuSans-49"/>
       <use x="63.623047" xlink:href="#DejaVuSans-46"/>
       <use x="95.410156" xlink:href="#DejaVuSans-48"/>
      </g>
     </g>
    </g>
    <g id="text_12">
     <!-- Fraction of function,target pairs -->
     <g transform="translate(17.619531 285.585)rotate(-90)scale(0.17 -0.17)">
      <defs>
       <path d="M 9.8125 72.90625 
L 51.703125 72.90625 
L 51.703125 64.59375 
L 19.671875 64.59375 
L 19.671875 43.109375 
L 48.578125 43.109375 
L 48.578125 34.8125 
L 19.671875 34.8125 
L 19.671875 0 
L 9.8125 0 
z
" id="DejaVuSans-70"/>
       <path d="M 41.109375 46.296875 
Q 39.59375 47.171875 37.8125 47.578125 
Q 36.03125 48 33.890625 48 
Q 26.265625 48 22.1875 43.046875 
Q 18.109375 38.09375 18.109375 28.8125 
L 18.109375 0 
L 9.078125 0 
L 9.078125 54.6875 
L 18.109375 54.6875 
L 18.109375 46.1875 
Q 20.953125 51.171875 25.484375 53.578125 
Q 30.03125 56 36.53125 56 
Q 37.453125 56 38.578125 55.875 
Q 39.703125 55.765625 41.0625 55.515625 
z
" id="DejaVuSans-114"/>
       <path d="M 48.78125 52.59375 
L 48.78125 44.1875 
Q 44.96875 46.296875 41.140625 47.34375 
Q 37.3125 48.390625 33.40625 48.390625 
Q 24.65625 48.390625 19.8125 42.84375 
Q 14.984375 37.3125 14.984375 27.296875 
Q 14.984375 17.28125 19.8125 11.734375 
Q 24.65625 6.203125 33.40625 6.203125 
Q 37.3125 6.203125 41.140625 7.25 
Q 44.96875 8.296875 48.78125 10.40625 
L 48.78125 2.09375 
Q 45.015625 0.34375 40.984375 -0.53125 
Q 36.96875 -1.421875 32.421875 -1.421875 
Q 20.0625 -1.421875 12.78125 6.34375 
Q 5.515625 14.109375 5.515625 27.296875 
Q 5.515625 40.671875 12.859375 48.328125 
Q 20.21875 56 33.015625 56 
Q 37.15625 56 41.109375 55.140625 
Q 45.0625 54.296875 48.78125 52.59375 
z
" id="DejaVuSans-99"/>
       <path d="M 18.3125 70.21875 
L 18.3125 54.6875 
L 36.8125 54.6875 
L 36.8125 47.703125 
L 18.3125 47.703125 
L 18.3125 18.015625 
Q 18.3125 11.328125 20.140625 9.421875 
Q 21.96875 7.515625 27.59375 7.515625 
L 36.8125 7.515625 
L 36.8125 0 
L 27.59375 0 
Q 17.1875 0 13.234375 3.875 
Q 9.28125 7.765625 9.28125 18.015625 
L 9.28125 47.703125 
L 2.6875 47.703125 
L 2.6875 54.6875 
L 9.28125 54.6875 
L 9.28125 70.21875 
z
" id="DejaVuSans-116"/>
       <path d="M 8.5 21.578125 
L 8.5 54.6875 
L 17.484375 54.6875 
L 17.484375 21.921875 
Q 17.484375 14.15625 20.5 10.265625 
Q 23.53125 6.390625 29.59375 6.390625 
Q 36.859375 6.390625 41.078125 11.03125 
Q 45.3125 15.671875 45.3125 23.6875 
L 45.3125 54.6875 
L 54.296875 54.6875 
L 54.296875 0 
L 45.3125 0 
L 45.3125 8.40625 
Q 42.046875 3.421875 37.71875 1 
Q 33.40625 -1.421875 27.6875 -1.421875 
Q 18.265625 -1.421875 13.375 4.4375 
Q 8.5 10.296875 8.5 21.578125 
z
M 31.109375 56 
z
" id="DejaVuSans-117"/>
       <path d="M 11.71875 12.40625 
L 22.015625 12.40625 
L 22.015625 4 
L 14.015625 -11.625 
L 7.71875 -11.625 
L 11.71875 4 
z
" id="DejaVuSans-44"/>
       <path d="M 18.109375 8.203125 
L 18.109375 -20.796875 
L 9.078125 -20.796875 
L 9.078125 54.6875 
L 18.109375 54.6875 
L 18.109375 46.390625 
Q 20.953125 51.265625 25.265625 53.625 
Q 29.59375 56 35.59375 56 
Q 45.5625 56 51.78125 48.09375 
Q 58.015625 40.1875 58.015625 27.296875 
Q 58.015625 14.40625 51.78125 6.484375 
Q 45.5625 -1.421875 35.59375 -1.421875 
Q 29.59375 -1.421875 25.265625 0.953125 
Q 20.953125 3.328125 18.109375 8.203125 
z
M 48.6875 27.296875 
Q 48.6875 37.203125 44.609375 42.84375 
Q 40.53125 48.484375 33.40625 48.484375 
Q 26.265625 48.484375 22.1875 42.84375 
Q 18.109375 37.203125 18.109375 27.296875 
Q 18.109375 17.390625 22.1875 11.75 
Q 26.265625 6.109375 33.40625 6.109375 
Q 40.53125 6.109375 44.609375 11.75 
Q 48.6875 17.390625 48.6875 27.296875 
z
" id="DejaVuSans-112"/>
      </defs>
      <use xlink:href="#DejaVuSans-70"/>
      <use x="50.269531" xlink:href="#DejaVuSans-114"/>
      <use x="91.382812" xlink:href="#DejaVuSans-97"/>
      <use x="152.662109" xlink:href="#DejaVuSans-99"/>
      <use x="207.642578" xlink:href="#DejaVuSans-116"/>
      <use x="246.851562" xlink:href="#DejaVuSans-105"/>
      <use x="274.634766" xlink:href="#DejaVuSans-111"/>
      <use x="335.816406" xlink:href="#DejaVuSans-110"/>
      <use x="399.195312" xlink:href="#DejaVuSans-32"/>
      <use x="430.982422" xlink:href="#DejaVuSans-111"/>
      <use x="492.164062" xlink:href="#DejaVuSans-102"/>
      <use x="527.369141" xlink:href="#DejaVuSans-32"/>
      <use x="559.15625" xlink:href="#DejaVuSans-102"/>
      <use x="594.361328" xlink:href="#DejaVuSans-117"/>
      <use x="657.740234" xlink:href="#DejaVuSans-110"/>
      <use x="721.119141" xlink:href="#DejaVuSans-99"/>
      <use x="776.099609" xlink:href="#DejaVuSans-116"/>
      <use x="815.308594" xlink:href="#DejaVuSans-105"/>
      <use x="843.091797" xlink:href="#DejaVuSans-111"/>
      <use x="904.273438" xlink:href="#DejaVuSans-110"/>
      <use x="967.652344" xlink:href="#DejaVuSans-44"/>
      <use x="999.439453" xlink:href="#DejaVuSans-116"/>
      <use x="1038.648438" xlink:href="#DejaVuSans-97"/>
      <use x="1099.927734" xlink:href="#DejaVuSans-114"/>
      <use x="1139.291016" xlink:href="#DejaVuSans-103"/>
      <use x="1202.767578" xlink:href="#DejaVuSans-101"/>
      <use x="1264.291016" xlink:href="#DejaVuSans-116"/>
      <use x="1303.5" xlink:href="#DejaVuSans-32"/>
      <use x="1335.287109" xlink:href="#DejaVuSans-112"/>
      <use x="1398.763672" xlink:href="#DejaVuSans-97"/>
      <use x="1460.042969" xlink:href="#DejaVuSans-105"/>
      <use x="1487.826172" xlink:href="#DejaVuSans-114"/>
      <use x="1528.939453" xlink:href="#DejaVuSans-115"/>
     </g>
    </g>
   </g>
   <g id="line2d_33">
    <defs>
     <path d="M 0 1.5 
C 0.397805 1.5 0.77937 1.341951 1.06066 1.06066 
C 1.341951 0.77937 1.5 0.397805 1.5 0 
C 1.5 -0.397805 1.341951 -0.77937 1.06066 -1.06066 
C 0.77937 -1.341951 0.397805 -1.5 0 -1.5 
C -0.397805 -1.5 -0.77937 -1.341951 -1.06066 -1.06066 
C -1.341951 -0.77937 -1.5 -0.397805 -1.5 0 
C -1.5 0.397805 -1.341951 0.77937 -1.06066 1.06066 
C -0.77937 1.341951 -0.397805 1.5 0 1.5 
z
" id="m9a30fed9ed" style="stroke:#f5deb3;"/>
    </defs>
    <g>
     <use style="fill:#f5deb3;stroke:#f5deb3;" x="150.401087" xlink:href="#m9a30fed9ed" y="6.381624"/>
     <use style="fill:#f5deb3;stroke:#f5deb3;" x="150.401087" xlink:href="#m9a30fed9ed" y="6.381624"/>
    </g>
   </g>
   <g id="line2d_34">
    <defs>
     <path d="M 0 1.5 
C 0.397805 1.5 0.77937 1.341951 1.06066 1.06066 
C 1.341951 0.77937 1.5 0.397805 1.5 0 
C 1.5 -0.397805 1.341951 -0.77937 1.06066 -1.06066 
C 0.77937 -1.341951 0.397805 -1.5 0 -1.5 
C -0.397805 -1.5 -0.77937 -1.341951 -1.06066 -1.06066 
C -1.341951 -0.77937 -1.5 -0.397805 -1.5 0 
C -1.5 0.397805 -1.341951 0.77937 -1.06066 1.06066 
C -0.77937 1.341951 -0.397805 1.5 0 1.5 
z
" id="med31fcfbd2" style="stroke:#000080;"/>
    </defs>
    <g>
     <use style="fill:#000080;stroke:#000080;" x="176.656344" xlink:href="#med31fcfbd2" y="6.381624"/>
     <use style="fill:#000080;stroke:#000080;" x="176.656344" xlink:href="#med31fcfbd2" y="6.381624"/>
    </g>
   </g>
   <g id="line2d_35">
    <path d="M 38.440992 298.944 
L 38.440992 297.796697 
L 50.52898 297.796697 
L 50.52898 297.509871 
L 57.6 297.509871 
L 57.6 295.645503 
L 62.616969 295.645503 
L 62.616969 295.358677 
L 69.687988 295.358677 
L 69.687988 295.215264 
L 72.376266 295.215264 
L 72.376266 294.928438 
L 74.704957 294.928438 
L 74.704957 293.924547 
L 76.759008 293.924547 
L 76.759008 293.494309 
L 78.59642 293.494309 
L 78.59642 293.06407 
L 80.258561 293.06407 
L 80.258561 292.203592 
L 81.775977 292.203592 
L 81.775977 291.486528 
L 83.171864 291.486528 
L 83.171864 290.482637 
L 84.464254 290.482637 
L 84.464254 290.339224 
L 85.66744 290.339224 
L 85.66744 290.052398 
L 86.792945 290.052398 
L 86.792945 289.765573 
L 87.850195 289.765573 
L 87.850195 289.478747 
L 88.846997 289.478747 
L 88.846997 289.048508 
L 90.684409 289.048508 
L 90.684409 287.901204 
L 91.535274 287.901204 
L 91.535274 286.180249 
L 92.34655 286.180249 
L 92.34655 285.176359 
L 93.121756 285.176359 
L 93.121756 284.889533 
L 93.863965 284.889533 
L 93.863965 282.738339 
L 94.575872 282.738339 
L 94.575872 280.873971 
L 95.918017 280.873971 
L 95.918017 280.013493 
L 96.552242 280.013493 
L 96.552242 279.583255 
L 97.16421 279.583255 
L 97.16421 279.153016 
L 97.755429 279.153016 
L 97.755429 278.722777 
L 98.32726 278.722777 
L 98.32726 277.432061 
L 99.41757 277.432061 
L 99.41757 277.001822 
L 99.938184 277.001822 
L 99.938184 276.858409 
L 102.330873 276.858409 
L 102.330873 276.571583 
L 103.203018 276.571583 
L 103.203018 276.141344 
L 104.434538 276.141344 
L 104.434538 275.711105 
L 104.826449 275.711105 
L 104.826449 275.567692 
L 105.951954 275.567692 
L 105.951954 274.850628 
L 106.311539 274.850628 
L 106.311539 274.707215 
L 107.009204 274.707215 
L 107.009204 273.99015 
L 107.347841 273.99015 
L 107.347841 273.846737 
L 107.680028 273.846737 
L 107.680028 273.129673 
L 108.006005 273.129673 
L 108.006005 272.699434 
L 108.326001 272.699434 
L 108.326001 272.412608 
L 108.640231 272.412608 
L 108.640231 271.982369 
L 109.252198 271.982369 
L 109.252198 270.835066 
L 109.550313 270.835066 
L 109.550313 270.404827 
L 109.843417 270.404827 
L 109.843417 269.687762 
L 110.131676 269.687762 
L 110.131676 269.544349 
L 110.415248 269.544349 
L 110.415248 268.827285 
L 110.968922 268.827285 
L 110.968922 268.683872 
L 111.239304 268.683872 
L 111.239304 268.397046 
L 111.767808 268.397046 
L 111.767808 267.823394 
L 112.026172 267.823394 
L 112.026172 267.536568 
L 113.022974 267.536568 
L 113.022974 267.393156 
L 113.26352 267.393156 
L 113.26352 266.532678 
L 113.500792 266.532678 
L 113.500792 265.959026 
L 113.965867 265.959026 
L 113.965867 265.815613 
L 114.193835 265.815613 
L 114.193835 265.6722 
L 114.418861 265.6722 
L 114.418861 265.098549 
L 114.641021 265.098549 
L 114.641021 264.381484 
L 114.860386 264.381484 
L 114.860386 263.951245 
L 115.077025 263.951245 
L 115.077025 262.803942 
L 115.291007 262.803942 
L 115.291007 261.513225 
L 115.711251 261.513225 
L 115.711251 260.939574 
L 116.121606 260.939574 
L 116.121606 260.652748 
L 116.522527 260.652748 
L 116.522527 259.935683 
L 116.719583 259.935683 
L 116.719583 259.79227 
L 116.914437 259.79227 
L 116.914437 259.505444 
L 117.297733 259.505444 
L 117.297733 259.362031 
L 117.672786 259.362031 
L 117.672786 259.218619 
L 118.220662 259.218619 
L 118.220662 258.644967 
L 118.399528 258.644967 
L 118.399528 257.784489 
L 118.925375 257.784489 
L 118.925375 257.641076 
L 119.267333 257.641076 
L 119.267333 257.497663 
L 119.43583 257.497663 
L 119.43583 257.210838 
L 119.931767 257.210838 
L 119.931767 256.924012 
L 120.093994 256.924012 
L 120.093994 255.633295 
L 120.41399 255.633295 
L 120.41399 255.489882 
L 120.571812 255.489882 
L 120.571812 254.916231 
L 120.728219 254.916231 
L 120.728219 254.772818 
L 120.883236 254.772818 
L 120.883236 254.342579 
L 121.036887 254.342579 
L 121.036887 254.199166 
L 121.189196 254.199166 
L 121.189196 253.625514 
L 121.340187 253.625514 
L 121.340187 252.047972 
L 121.489881 252.047972 
L 121.489881 251.617733 
L 121.785469 251.617733 
L 121.785469 250.900669 
L 121.931406 250.900669 
L 121.931406 250.613843 
L 122.076131 250.613843 
L 122.076131 250.327017 
L 122.219665 250.327017 
L 122.219665 249.896778 
L 122.503236 249.896778 
L 122.503236 249.753365 
L 122.920132 249.753365 
L 122.920132 249.609952 
L 123.327293 249.609952 
L 123.327293 249.323126 
L 123.460928 249.323126 
L 123.460928 248.892888 
L 123.593547 248.892888 
L 123.593547 248.749475 
L 124.241922 248.749475 
L 124.241922 248.606062 
L 124.368753 248.606062 
L 124.368753 248.462649 
L 124.494669 248.462649 
L 124.494669 248.319236 
L 124.743806 248.319236 
L 124.743806 248.175823 
L 125.23165 248.175823 
L 125.23165 248.03241 
L 125.351508 248.03241 
L 125.351508 247.745584 
L 125.588781 247.745584 
L 125.588781 247.602171 
L 125.706218 247.602171 
L 125.706218 246.885107 
L 125.938745 246.885107 
L 125.938745 246.024629 
L 126.053856 246.024629 
L 126.053856 245.737803 
L 126.168212 245.737803 
L 126.168212 245.450977 
L 126.281824 245.450977 
L 126.281824 245.020738 
L 126.3947 245.020738 
L 126.3947 244.733913 
L 126.618283 244.733913 
L 126.729009 244.016848 
L 126.839037 244.016848 
L 126.839037 243.299783 
L 127.378995 243.299783 
L 127.378995 243.15637 
L 127.695124 243.15637 
L 127.695124 243.012957 
L 127.902737 243.012957 
L 128.005624 242.15248 
L 128.107907 242.15248 
L 128.107907 242.009067 
L 128.310692 242.009067 
L 128.310692 241.722241 
L 128.511146 241.722241 
L 128.511146 241.435415 
L 128.709321 241.435415 
L 128.709321 241.292002 
L 128.905271 241.292002 
L 129.002426 240.574938 
L 129.385722 240.574938 
L 129.385722 240.431525 
L 129.945319 240.431525 
L 130.036864 240.144699 
L 130.127931 240.144699 
L 130.218525 239.71446 
L 130.30865 239.71446 
L 130.398313 239.140808 
L 130.487516 239.140808 
L 130.487516 238.853983 
L 130.664567 238.853983 
L 130.664567 238.280331 
L 130.926816 238.280331 
L 131.013364 237.993505 
L 131.099484 237.993505 
L 131.099484 237.419853 
L 131.270459 237.419853 
L 131.355321 235.985724 
L 131.523818 235.985724 
L 131.523818 235.555485 
L 131.77355 235.555485 
L 131.77355 235.125246 
L 132.019755 235.125246 
L 132.019755 234.838421 
L 132.342714 234.838421 
L 132.422528 234.408182 
L 132.581068 234.408182 
L 132.581068 234.264769 
L 132.816208 234.264769 
L 132.816208 234.121356 
L 133.124876 234.121356 
L 133.201197 233.260878 
L 133.57787 233.260878 
L 133.652238 231.683336 
L 133.72629 231.683336 
L 133.800029 231.39651 
L 134.019394 231.39651 
L 134.019394 231.253097 
L 134.236034 231.253097 
L 134.307653 230.822858 
L 134.520763 230.822858 
L 134.520763 230.679446 
L 134.661403 230.679446 
L 134.7313 230.105794 
L 134.800918 230.105794 
L 134.870259 229.675555 
L 135.144899 229.675555 
L 135.212889 229.101903 
L 135.280614 229.101903 
L 135.348078 228.815077 
L 135.415281 228.815077 
L 135.415281 228.671665 
L 135.615352 228.671665 
L 135.615352 228.098013 
L 135.747468 228.098013 
L 135.813153 227.811187 
L 135.878591 227.811187 
L 135.943785 227.237535 
L 136.008736 227.237535 
L 136.008736 227.094122 
L 136.137916 227.094122 
L 136.137916 226.950709 
L 136.266147 226.950709 
L 136.266147 226.663884 
L 136.519813 226.663884 
L 136.582658 225.086341 
L 136.707671 225.086341 
L 136.707671 224.942928 
L 136.955041 224.942928 
L 136.955041 224.656103 
L 137.077422 224.656103 
L 137.138292 224.082451 
L 137.198951 224.082451 
L 137.259399 223.652212 
L 137.319638 223.652212 
L 137.37967 221.070779 
L 137.735587 221.070779 
L 137.735587 220.353715 
L 137.910857 220.353715 
L 137.968891 219.923476 
L 138.026733 219.923476 
L 138.084384 217.772282 
L 138.141844 217.772282 
L 138.199116 216.911804 
L 138.369812 216.911804 
L 138.426341 216.624978 
L 138.482688 216.624978 
L 138.538853 213.900133 
L 138.706272 213.900133 
L 138.816998 211.175287 
L 138.872098 211.175287 
L 138.981779 210.171397 
L 139.036363 210.171397 
L 139.090775 209.310919 
L 139.253002 209.310919 
L 139.360321 208.88068 
L 139.413734 208.88068 
L 139.520072 208.450441 
L 139.625765 208.450441 
L 139.678372 207.87679 
L 139.783113 207.87679 
L 139.835248 207.589964 
L 139.939053 207.589964 
L 139.939053 207.446551 
L 140.144829 207.446551 
L 140.195896 207.016312 
L 140.297583 207.016312 
L 140.39868 205.869009 
L 140.549236 205.869009 
L 140.549236 205.295357 
L 140.747977 205.295357 
L 140.846504 202.713924 
L 140.993259 202.713924 
L 141.090414 201.99686 
L 141.378673 201.99686 
L 141.47371 201.136382 
L 141.568232 201.136382 
L 141.615302 200.419317 
L 141.709062 200.419317 
L 141.755753 199.989079 
L 142.07914 199.989079 
L 142.170445 199.702253 
L 142.215919 199.702253 
L 142.306513 199.128601 
L 142.441528 199.128601 
L 142.441528 198.554949 
L 142.619936 198.554949 
L 142.708461 197.837885 
L 142.752555 197.837885 
L 142.840411 197.12082 
L 142.884173 197.12082 
L 142.971369 196.260342 
L 143.014805 196.260342 
L 143.014805 195.973517 
L 143.144465 195.973517 
L 143.230373 195.256452 
L 143.273169 195.256452 
L 143.31586 194.826213 
L 143.44331 194.826213 
L 143.44331 194.6828 
L 143.695448 194.6828 
L 143.695448 194.539387 
L 143.902815 194.539387 
L 143.985075 193.535497 
L 144.06695 193.535497 
L 144.148442 192.818432 
L 144.189046 192.818432 
L 144.189046 192.675019 
L 144.390658 192.675019 
L 144.470655 192.388193 
L 144.510517 192.388193 
L 144.550287 191.814542 
L 144.629556 191.814542 
L 144.708467 190.954064 
L 144.787023 190.954064 
L 144.787023 190.236999 
L 144.94308 190.236999 
L 145.020588 189.663348 
L 145.097753 189.663348 
L 145.174578 189.376522 
L 145.212864 189.376522 
L 145.212864 189.233109 
L 145.327221 189.233109 
L 145.403044 188.516044 
L 145.478539 188.516044 
L 145.516164 187.942393 
L 145.703082 187.942393 
L 145.777292 187.225328 
L 145.851187 187.225328 
L 145.924771 186.938502 
L 146.071013 186.938502 
L 146.179895 186.36485 
L 146.288102 186.36485 
L 146.288102 185.791199 
L 146.431341 185.791199 
L 146.466968 185.504373 
L 146.573414 185.504373 
L 146.679213 184.787308 
L 146.714338 184.787308 
L 146.819289 184.357069 
L 146.888907 184.357069 
L 146.992815 183.496592 
L 147.096109 183.496592 
L 147.130404 182.92294 
L 147.266916 182.92294 
L 147.334773 182.349288 
L 147.402367 182.349288 
L 147.4697 181.775637 
L 147.570215 181.775637 
L 147.670154 180.771746 
L 147.736463 180.771746 
L 147.835457 179.337617 
L 147.86833 179.337617 
L 147.86833 179.194204 
L 148.129109 179.194204 
L 148.129109 179.050791 
L 148.258051 179.050791 
L 148.354135 178.620552 
L 148.449693 178.620552 
L 148.449693 178.333726 
L 148.607802 178.333726 
L 148.670646 177.473249 
L 148.79566 177.473249 
L 148.888835 176.325945 
L 148.919783 176.325945 
L 149.012299 176.039119 
L 149.043029 176.039119 
L 149.043029 175.465468 
L 149.226281 175.465468 
L 149.31719 174.60499 
L 149.347388 174.60499 
L 149.437669 173.6011 
L 149.467659 173.6011 
L 149.557321 172.740622 
L 149.616841 172.740622 
L 149.676158 170.302602 
L 149.735275 170.302602 
L 149.823575 169.298712 
L 149.882194 169.298712 
L 149.969756 167.864582 
L 150.027887 167.864582 
L 150.114722 166.717279 
L 150.143571 166.717279 
L 150.229833 165.713388 
L 150.258492 165.713388 
L 150.31567 165.28315 
L 150.429467 165.28315 
L 150.457801 163.992433 
L 150.542526 163.992433 
L 150.598782 162.128065 
L 150.682827 162.128065 
L 150.766468 161.124175 
L 150.932558 161.124175 
L 151.042412 159.40322 
L 151.069768 159.40322 
L 151.124351 158.686155 
L 151.287083 158.686155 
L 151.367883 157.395439 
L 151.421542 157.395439 
L 151.528368 156.104722 
L 151.554972 156.104722 
L 151.554972 155.961309 
L 151.713753 155.961309 
L 151.792604 155.244245 
L 151.844975 155.244245 
L 151.949246 154.670593 
L 152.001148 154.670593 
L 152.104493 153.379877 
L 152.155936 153.379877 
L 152.25837 152.806225 
L 152.309362 152.806225 
L 152.385571 151.08527 
L 152.436193 151.08527 
L 152.536999 149.937966 
L 152.562109 149.937966 
L 152.662192 149.507727 
L 152.736878 149.507727 
L 152.835965 148.934076 
L 152.885298 148.934076 
L 152.983548 148.073598 
L 153.008024 148.073598 
L 153.105587 146.352643 
L 153.154164 146.352643 
L 153.250915 145.922404 
L 153.29909 145.922404 
L 153.29909 145.778991 
L 153.442821 145.778991 
L 153.537988 144.918514 
L 153.632638 144.918514 
L 153.726778 143.914623 
L 153.750233 143.914623 
L 153.843742 142.337081 
L 153.890309 142.337081 
L 153.983071 140.759539 
L 154.006185 140.759539 
L 154.098334 140.042474 
L 154.121296 140.042474 
L 154.19 138.608345 
L 154.258434 138.608345 
L 154.349264 135.596673 
L 154.371897 135.596673 
L 154.46214 134.019131 
L 154.484627 134.019131 
L 154.484627 133.875718 
L 154.618949 133.875718 
L 154.663493 132.871828 
L 154.796449 132.871828 
L 154.840544 131.724524 
L 154.928399 131.724524 
L 155.0376 128.856266 
L 155.102793 128.856266 
L 155.167744 127.995788 
L 155.232454 127.995788 
L 155.339773 126.991897 
L 155.361158 126.991897 
L 155.46769 124.697291 
L 155.510121 124.697291 
L 155.61575 123.119748 
L 155.6368 123.119748 
L 155.741666 122.402684 
L 155.783437 122.402684 
L 155.887428 120.825142 
L 155.949527 120.825142 
L 156.011405 119.247599 
L 156.093569 119.247599 
L 156.195732 117.81347 
L 156.277034 117.81347 
L 156.357959 116.235928 
L 156.398281 116.235928 
L 156.45859 114.945211 
L 156.558644 114.945211 
L 156.658127 113.941321 
L 156.677955 113.941321 
L 156.757045 112.93743 
L 156.796456 112.93743 
L 156.855406 112.076953 
L 156.914157 112.076953 
L 157.011638 110.212585 
L 157.031069 110.212585 
L 157.1279 109.638933 
L 157.185742 109.638933 
L 157.28172 108.061391 
L 157.319964 108.061391 
L 157.339055 106.05361 
L 157.434196 106.05361 
L 157.509937 104.61948 
L 157.58535 104.61948 
L 157.67916 103.041938 
L 157.753847 103.041938 
L 157.809652 100.030267 
L 157.920731 100.030267 
L 158.012759 97.448834 
L 158.067744 97.448834 
L 158.177196 95.871292 
L 158.213527 95.871292 
L 158.267884 94.150337 
L 158.340096 94.150337 
L 158.447857 91.138665 
L 158.465753 91.138665 
L 158.537152 89.847949 
L 158.590511 89.847949 
L 158.69674 87.696755 
L 158.714382 87.696755 
L 158.819862 86.836277 
L 158.83738 86.836277 
L 158.942121 82.820715 
L 159.0116 82.820715 
L 159.115303 79.235392 
L 159.132527 79.235392 
L 159.235515 75.936895 
L 159.26971 75.936895 
L 159.371893 74.215939 
L 159.388866 74.215939 
L 159.490356 72.638397 
L 159.507213 72.638397 
L 159.591258 70.774029 
L 159.641491 70.774029 
L 159.69158 69.483313 
L 159.791329 69.483313 
L 159.89051 68.766248 
L 159.93989 68.766248 
L 160.02188 67.905771 
L 160.054568 67.905771 
L 160.119762 66.90188 
L 160.184713 66.90188 
L 160.281688 65.611164 
L 160.297798 65.611164 
L 160.378126 64.033621 
L 160.442124 64.033621 
L 160.474035 62.599492 
L 160.553557 62.599492 
L 160.616915 58.297104 
L 160.821253 58.297104 
L 160.883648 57.149801 
L 161.069504 57.149801 
L 161.177012 54.138129 
L 161.192316 54.138129 
L 161.253399 52.990826 
L 161.344625 52.990826 
L 161.450455 50.696219 
L 161.480575 50.696219 
L 161.480575 50.552806 
L 161.600536 50.552806 
L 161.675095 49.26209 
L 161.719678 49.26209 
L 161.823263 48.114786 
L 161.852746 48.114786 
L 161.955547 46.967483 
L 161.984807 46.967483 
L 162.057744 44.959702 
L 162.144868 44.959702 
L 162.231559 43.812398 
L 162.303474 43.812398 
L 162.303474 42.665095 
L 162.417924 42.665095 
L 162.432178 41.517791 
L 162.574077 41.517791 
L 162.644595 40.370488 
L 162.79874 40.370488 
L 162.840544 39.366598 
L 162.9377 39.366598 
L 163.048075 36.641752 
L 163.061823 36.641752 
L 163.061823 35.494448 
L 163.19871 35.494448 
L 163.266752 34.347145 
L 163.428979 34.347145 
L 163.428979 34.060319 
L 163.603039 34.060319 
L 163.603039 33.916906 
L 163.722532 33.916906 
L 163.722532 32.482777 
L 163.841212 32.482777 
L 163.932963 31.335474 
L 163.998206 31.335474 
L 163.998206 31.048648 
L 164.153799 31.048648 
L 164.243924 30.474996 
L 164.269589 30.474996 
L 164.371873 29.757931 
L 164.524182 29.757931 
L 164.562052 28.897454 
L 164.687696 28.897454 
L 164.75018 28.610628 
L 164.812441 28.610628 
L 164.837283 28.180389 
L 164.948638 28.180389 
L 165.022481 27.463324 
L 165.205733 27.463324 
L 165.205733 27.176499 
L 165.338904 27.176499 
L 165.447111 26.74626 
L 165.471066 26.74626 
L 165.471066 26.602847 
L 165.732422 26.602847 
L 165.826498 25.742369 
L 165.943384 25.742369 
L 165.966667 25.31213 
L 166.174831 25.31213 
L 166.266556 22.730698 
L 166.425924 22.730698 
L 166.425924 22.300459 
L 166.639906 22.300459 
L 166.684622 21.87022 
L 166.751482 21.87022 
L 166.851294 20.722917 
L 166.939538 20.722917 
L 166.983494 20.005852 
L 167.071073 20.005852 
L 167.0929 16.850768 
L 167.212459 16.850768 
L 167.212459 16.277116 
L 167.363449 16.277116 
L 167.363449 15.99029 
L 167.629866 15.99029 
L 167.735303 14.412748 
L 167.892273 14.412748 
L 167.892273 14.125922 
L 168.283721 14.125922 
L 168.283721 13.982509 
L 168.476198 13.982509 
L 168.566635 11.11425 
L 168.963 11.11425 
L 168.992367 10.684012 
L 169.16754 10.684012 
L 169.27373 10.253773 
L 169.767149 10.253773 
L 169.767149 10.11036 
L 169.897641 10.11036 
L 169.897641 9.966947 
L 170.265184 9.966947 
L 170.265184 9.823534 
L 170.589478 9.823534 
L 170.589478 9.680121 
L 171.220515 9.680121 
L 171.297814 9.106469 
L 171.645677 9.106469 
L 171.645677 8.963056 
L 176.105719 8.963056 
L 176.215951 6.811863 
L 176.408795 6.811863 
L 176.408795 6.525037 
L 176.656344 6.525037 
L 176.656344 6.381624 
L 338.688 6.381624 
L 338.688 6.381624 
" style="fill:none;stroke:#000080;stroke-linecap:square;stroke-width:1.5;"/>
   </g>
   <g id="line2d_36">
    <defs>
     <path d="M 0 6 
C 1.591219 6 3.117479 5.367802 4.242641 4.242641 
C 5.367802 3.117479 6 1.591219 6 0 
C 6 -1.591219 5.367802 -3.117479 4.242641 -4.242641 
C 3.117479 -5.367802 1.591219 -6 0 -6 
C -1.591219 -6 -3.117479 -5.367802 -4.242641 -4.242641 
C -5.367802 -3.117479 -6 -1.591219 -6 0 
C -6 1.591219 -5.367802 3.117479 -4.242641 4.242641 
C -3.117479 5.367802 -1.591219 6 0 6 
z
" id="m4761ca1575" style="stroke:#000080;stroke-width:1.5;"/>
    </defs>
    <g>
     <use style="fill-opacity:0;stroke:#000080;stroke-width:1.5;" x="141.568232" xlink:href="#m4761ca1575" y="201.136382"/>
     <use style="fill-opacity:0;stroke:#000080;stroke-width:1.5;" x="158.608261" xlink:href="#m4761ca1575" y="88.987471"/>
     <use style="fill-opacity:0;stroke:#000080;stroke-width:1.5;" x="176.656344" xlink:href="#m4761ca1575" y="6.525037"/>
     <use style="fill-opacity:0;stroke:#000080;stroke-width:1.5;" x="176.656344" xlink:href="#m4761ca1575" y="6.381624"/>
     <use style="fill-opacity:0;stroke:#000080;stroke-width:1.5;" x="176.656344" xlink:href="#m4761ca1575" y="6.381624"/>
     <use style="fill-opacity:0;stroke:#000080;stroke-width:1.5;" x="338.688" xlink:href="#m4761ca1575" y="6.381624"/>
    </g>
   </g>
   <g id="line2d_37">
    <path style="fill:none;stroke:#000080;stroke-linecap:square;stroke-width:1.5;"/>
    <g/>
   </g>
   <g id="line2d_38">
    <defs>
     <path d="M 0 1.5 
C 0.397805 1.5 0.77937 1.341951 1.06066 1.06066 
C 1.341951 0.77937 1.5 0.397805 1.5 0 
C 1.5 -0.397805 1.341951 -0.77937 1.06066 -1.06066 
C 0.77937 -1.341951 0.397805 -1.5 0 -1.5 
C -0.397805 -1.5 -0.77937 -1.341951 -1.06066 -1.06066 
C -1.341951 -0.77937 -1.5 -0.397805 -1.5 0 
C -1.5 0.397805 -1.341951 0.77937 -1.06066 1.06066 
C -0.77937 1.341951 -0.397805 1.5 0 1.5 
z
" id="m9d6cc9c0d2" style="stroke:#ff00ff;"/>
    </defs>
    <g>
     <use style="fill:#ff00ff;stroke:#ff00ff;" x="258.425093" xlink:href="#m9d6cc9c0d2" y="6.381624"/>
     <use style="fill:#ff00ff;stroke:#ff00ff;" x="258.425093" xlink:href="#m9d6cc9c0d2" y="6.381624"/>
    </g>
   </g>
   <g id="line2d_39">
    <path d="M 38.440992 298.944 
L 38.440992 298.083522 
L 50.52898 298.083522 
L 50.52898 297.079632 
L 57.6 297.079632 
L 57.6 296.50598 
L 62.616969 296.50598 
L 62.616969 294.641612 
L 69.687988 294.641612 
L 69.687988 293.637722 
L 74.704957 293.637722 
L 74.704957 293.06407 
L 76.759008 293.06407 
L 76.759008 292.920657 
L 80.258561 292.920657 
L 80.258561 292.060179 
L 81.775977 292.060179 
L 81.775977 291.629941 
L 84.464254 291.629941 
L 84.464254 291.056289 
L 85.66744 291.056289 
L 85.66744 290.62605 
L 86.792945 290.62605 
L 86.792945 290.052398 
L 87.850195 290.052398 
L 87.850195 289.478747 
L 88.846997 289.478747 
L 88.846997 288.761682 
L 90.684409 288.761682 
L 90.684409 287.901204 
L 91.535274 287.901204 
L 91.535274 287.470966 
L 93.121756 287.470966 
L 93.121756 287.327553 
L 93.863965 287.327553 
L 93.863965 287.040727 
L 96.552242 287.040727 
L 96.552242 286.753901 
L 97.16421 286.753901 
L 97.16421 286.323662 
L 97.755429 286.323662 
L 97.755429 285.893423 
L 98.880934 285.893423 
L 98.880934 285.75001 
L 101.412804 285.75001 
L 101.412804 285.463185 
L 102.772397 285.463185 
L 102.772397 285.176359 
L 103.623262 285.176359 
L 103.623262 284.602707 
L 104.434538 284.602707 
L 104.434538 284.459294 
L 104.826449 284.459294 
L 104.826449 283.885642 
L 105.209745 283.885642 
L 105.209745 283.311991 
L 105.584798 283.311991 
L 105.584798 282.881752 
L 105.951954 282.881752 
L 105.951954 281.447623 
L 106.311539 281.447623 
L 106.311539 281.30421 
L 106.66386 281.30421 
L 106.66386 281.160797 
L 107.009204 281.160797 
L 107.009204 280.873971 
L 107.347841 280.873971 
L 107.347841 280.587145 
L 108.006005 280.587145 
L 108.006005 280.013493 
L 108.640231 280.013493 
L 108.640231 279.583255 
L 108.948899 279.583255 
L 108.948899 279.439842 
L 110.131676 279.439842 
L 110.131676 278.579364 
L 110.415248 278.579364 
L 110.415248 278.005712 
L 110.694282 278.005712 
L 110.694282 277.432061 
L 110.968922 277.432061 
L 110.968922 277.288648 
L 111.505558 277.288648 
L 111.505558 277.145235 
L 111.767808 277.145235 
L 111.767808 276.284757 
L 113.500792 276.284757 
L 113.500792 275.997931 
L 113.965867 275.997931 
L 113.965867 275.567692 
L 114.641021 275.567692 
L 114.641021 275.280867 
L 114.860386 275.280867 
L 114.860386 275.137454 
L 115.077025 275.137454 
L 115.077025 274.707215 
L 115.291007 274.707215 
L 115.291007 274.420389 
L 115.502395 274.420389 
L 115.502395 273.559911 
L 116.323218 273.559911 
L 116.323218 273.273086 
L 116.522527 273.273086 
L 116.522527 273.129673 
L 116.719583 273.129673 
L 116.719583 272.98626 
L 117.297733 272.98626 
L 117.297733 272.699434 
L 117.486268 272.699434 
L 117.486268 272.556021 
L 117.672786 272.556021 
L 117.672786 272.412608 
L 117.857331 272.412608 
L 117.857331 272.269195 
L 118.039942 272.269195 
L 118.039942 271.982369 
L 118.220662 271.982369 
L 118.220662 271.695543 
L 118.751849 271.695543 
L 118.751849 271.408718 
L 119.768017 271.408718 
L 119.768017 269.831175 
L 119.931767 269.831175 
L 119.931767 269.544349 
L 120.254726 269.544349 
L 120.254726 269.257524 
L 120.41399 269.257524 
L 120.41399 269.114111 
L 120.571812 269.114111 
L 120.571812 268.970698 
L 120.728219 268.970698 
L 120.728219 268.683872 
L 120.883236 268.683872 
L 120.883236 268.540459 
L 121.189196 268.540459 
L 121.189196 267.966807 
L 121.489881 267.966807 
L 121.489881 267.679981 
L 121.785469 267.679981 
L 121.785469 266.532678 
L 121.931406 266.532678 
L 121.931406 266.245852 
L 122.219665 266.245852 
L 122.219665 265.959026 
L 122.362027 265.959026 
L 122.362027 265.6722 
L 122.643312 265.6722 
L 122.643312 265.241962 
L 122.782271 265.241962 
L 122.782271 264.955136 
L 122.920132 264.955136 
L 122.920132 264.524897 
L 123.460928 264.524897 
L 123.460928 264.238071 
L 124.114161 264.238071 
L 124.114161 263.951245 
L 124.368753 263.951245 
L 124.368753 263.521006 
L 124.494669 263.521006 
L 124.494669 263.090768 
L 124.743806 263.090768 
L 124.743806 262.947355 
L 125.110962 262.947355 
L 125.110962 262.803942 
L 125.23165 262.803942 
L 125.23165 262.660529 
L 125.470548 262.660529 
L 125.470548 262.23029 
L 125.706218 262.23029 
L 125.706218 261.943464 
L 125.822869 261.943464 
L 125.822869 261.656638 
L 125.938745 261.656638 
L 125.938745 261.2264 
L 126.053856 261.2264 
L 126.053856 261.082987 
L 126.281824 261.082987 
L 126.281824 260.939574 
L 126.50685 260.939574 
L 126.50685 260.652748 
L 126.729009 260.652748 
L 126.839037 260.079096 
L 127.05703 260.079096 
L 127.165014 259.648857 
L 127.590383 259.648857 
L 127.590383 259.075206 
L 127.902737 259.075206 
L 128.005624 258.78838 
L 128.107907 258.78838 
L 128.107907 258.214728 
L 128.310692 258.214728 
L 128.310692 257.497663 
L 128.610515 257.497663 
L 128.610515 257.35425 
L 129.195127 257.35425 
L 129.195127 257.067425 
L 129.945319 257.067425 
L 129.945319 256.780599 
L 130.30865 256.780599 
L 130.30865 256.493773 
L 130.576266 256.493773 
L 130.664567 255.346469 
L 130.839837 255.346469 
L 130.926816 254.772818 
L 131.099484 254.772818 
L 131.099484 254.342579 
L 131.355321 254.342579 
L 131.439773 253.91234 
L 131.77355 253.91234 
L 131.77355 253.338688 
L 132.019755 253.338688 
L 132.019755 253.051863 
L 132.501978 253.051863 
L 132.581068 252.478211 
L 132.971225 252.478211 
L 132.971225 251.761146 
L 133.124876 251.761146 
L 133.124876 251.617733 
L 133.352844 251.617733 
L 133.428175 250.900669 
L 133.57787 250.900669 
L 133.652238 249.466539 
L 133.72629 249.466539 
L 133.72629 249.323126 
L 134.091907 249.323126 
L 134.091907 248.175823 
L 134.800918 248.175823 
L 134.800918 247.745584 
L 135.144899 247.745584 
L 135.212889 246.885107 
L 135.348078 246.885107 
L 135.348078 246.598281 
L 135.943785 246.598281 
L 135.943785 246.454868 
L 136.137916 246.454868 
L 136.137916 244.877326 
L 136.456742 244.877326 
L 136.519813 244.5905 
L 136.582658 244.5905 
L 136.645276 243.730022 
L 136.955041 243.730022 
L 136.955041 243.586609 
L 137.138292 243.586609 
L 137.198951 243.15637 
L 137.259399 243.15637 
L 137.259399 243.012957 
L 137.439497 243.012957 
L 137.439497 242.582719 
L 137.735587 242.582719 
L 137.735587 242.439306 
L 137.968891 242.439306 
L 137.968891 242.15248 
L 138.199116 242.15248 
L 138.199116 242.009067 
L 138.313099 242.009067 
L 138.313099 241.722241 
L 138.816998 241.722241 
L 138.927025 239.71446 
L 139.036363 239.71446 
L 139.090775 238.997395 
L 139.199094 238.997395 
L 139.306744 237.993505 
L 139.625765 237.993505 
L 139.678372 237.563266 
L 139.939053 237.563266 
L 139.939053 237.419853 
L 140.093612 237.419853 
L 140.093612 237.27644 
L 140.246813 237.27644 
L 140.246813 237.133027 
L 140.499195 237.133027 
L 140.549236 236.702789 
L 141.138789 236.702789 
L 141.138789 236.27255 
L 141.283115 236.27255 
L 141.283115 236.129137 
L 141.615302 236.129137 
L 141.615302 235.842311 
L 141.848763 235.842311 
L 141.895083 235.268659 
L 141.987354 235.268659 
L 142.07914 233.977943 
L 142.261275 233.977943 
L 142.261275 233.691117 
L 142.396639 233.691117 
L 142.396639 233.547704 
L 142.53096 233.547704 
L 142.619936 233.260878 
L 142.752555 233.260878 
L 142.752555 233.117465 
L 142.884173 233.117465 
L 142.971369 232.400401 
L 143.058132 232.400401 
L 143.058132 232.256988 
L 143.187472 232.256988 
L 143.230373 231.109684 
L 143.358447 231.109684 
L 143.358447 230.966271 
L 143.902815 230.966271 
L 143.902815 230.822858 
L 144.550287 230.822858 
L 144.629556 230.105794 
L 144.708467 230.105794 
L 144.708467 229.962381 
L 144.94308 229.962381 
L 145.020588 229.675555 
L 145.059213 229.675555 
L 145.136208 228.671665 
L 145.174578 228.671665 
L 145.174578 228.528252 
L 145.289185 228.528252 
L 145.289185 228.384839 
L 145.553708 228.384839 
L 145.628555 225.51658 
L 145.924771 225.51658 
L 146.034567 225.086341 
L 146.143677 225.086341 
L 146.252108 224.225864 
L 146.288102 224.225864 
L 146.324022 223.365386 
L 146.431341 223.365386 
L 146.502522 221.214192 
L 146.573414 221.214192 
L 146.679213 220.783953 
L 146.749392 220.783953 
L 146.749392 220.497128 
L 147.334773 220.497128 
L 147.402367 220.210302 
L 147.70334 220.210302 
L 147.736463 219.63665 
L 147.835457 219.63665 
L 147.835457 219.493237 
L 148.031773 219.493237 
L 148.031773 219.349824 
L 148.290138 219.349824 
L 148.322166 219.062998 
L 148.417899 219.062998 
L 148.417899 218.919585 
L 148.670646 218.919585 
L 148.701984 218.345934 
L 148.79566 218.345934 
L 148.888835 215.334262 
L 148.950676 215.334262 
L 149.043029 214.617197 
L 149.073705 214.617197 
L 149.073705 214.473785 
L 149.195872 214.473785 
L 149.286939 213.900133 
L 149.407627 213.900133 
L 149.407627 213.75672 
L 149.735275 213.75672 
L 149.823575 213.326481 
L 150.027887 213.326481 
L 150.085825 212.896242 
L 150.143571 212.896242 
L 150.229833 212.322591 
L 150.258492 212.322591 
L 150.258492 212.179178 
L 150.486088 212.179178 
L 150.486088 211.462113 
L 150.710752 211.462113 
L 150.710752 211.175287 
L 150.904986 211.175287 
L 150.932558 210.171397 
L 151.151579 210.171397 
L 151.178764 209.597745 
L 151.287083 209.597745 
L 151.367883 208.450441 
L 151.44831 208.450441 
L 151.554972 208.163616 
L 151.581536 208.163616 
L 151.581536 208.020203 
L 151.713753 208.020203 
L 151.740076 207.303138 
L 151.871101 207.303138 
L 151.975216 206.729486 
L 152.078714 206.729486 
L 152.181601 205.151944 
L 152.232818 205.151944 
L 152.232818 204.721705 
L 152.360205 204.721705 
L 152.461449 201.423208 
L 152.486669 201.423208 
L 152.536999 200.992969 
L 152.860649 200.992969 
L 152.860649 200.706143 
L 153.129893 200.706143 
L 153.226778 197.694472 
L 153.250915 197.694472 
L 153.323128 196.690581 
L 153.561699 196.690581 
L 153.656221 195.830104 
L 153.726778 195.830104 
L 153.773658 195.543278 
L 153.913546 195.543278 
L 153.959927 194.969626 
L 154.19 194.969626 
L 154.281186 194.252561 
L 154.439623 194.252561 
L 154.529516 193.965736 
L 154.663493 193.965736 
L 154.663493 193.67891 
L 154.862549 193.67891 
L 154.972161 193.248671 
L 155.059358 193.248671 
L 155.081089 192.961845 
L 155.253971 192.961845 
L 155.339773 192.388193 
L 155.382516 192.388193 
L 155.488919 191.814542 
L 155.55245 191.814542 
L 155.573575 188.946283 
L 155.678822 188.946283 
L 155.678822 186.36485 
L 155.825108 186.36485 
L 155.908152 185.791199 
L 155.949527 185.791199 
L 156.011405 185.504373 
L 156.154939 185.504373 
L 156.256744 185.217547 
L 156.297301 185.217547 
L 156.297301 184.500482 
L 156.478647 184.500482 
L 156.578586 183.209766 
L 156.796456 183.209766 
L 156.816128 182.779527 
L 157.011638 182.779527 
L 157.108577 182.062462 
L 157.1279 182.062462 
L 157.20498 181.632224 
L 157.358125 181.632224 
L 157.377174 181.345398 
L 157.528821 181.345398 
L 157.604152 180.915159 
L 157.67916 180.915159 
L 157.772468 179.911268 
L 157.79107 179.911268 
L 157.883783 179.050791 
L 157.920731 179.050791 
L 157.976006 177.903487 
L 158.159001 177.903487 
L 158.231665 174.318164 
L 158.358103 174.318164 
L 158.358103 174.174751 
L 158.48363 174.174751 
L 158.51933 173.6011 
L 158.749613 173.6011 
L 158.83738 171.593319 
L 159.0116 171.593319 
L 159.115303 171.306493 
L 159.132527 171.306493 
L 159.149734 171.019667 
L 159.26971 171.019667 
L 159.354904 170.302602 
L 159.388866 170.302602 
L 159.388866 170.159189 
L 159.574482 170.159189 
L 159.608019 169.872363 
L 159.69158 169.872363 
L 159.791329 169.011886 
L 159.807898 169.011886 
L 159.906985 168.581647 
L 159.972732 168.581647 
L 160.070889 168.294821 
L 160.087195 168.294821 
L 160.103486 167.577757 
L 160.200913 167.577757 
L 160.265562 166.860692 
L 160.505887 166.860692 
L 160.553557 166.430453 
L 160.648508 166.430453 
L 160.711523 166.143627 
L 160.789972 166.143627 
L 160.80562 165.139737 
L 160.992304 165.139737 
L 160.992304 164.852911 
L 161.207607 164.852911 
L 161.253399 162.701717 
L 161.329454 162.701717 
L 161.435376 161.984652 
L 161.495615 161.984652 
L 161.495615 161.697826 
L 161.660209 161.697826 
L 161.660209 161.554414 
L 161.838011 161.554414 
L 161.838011 161.411001 
L 161.970183 161.411001 
L 162.043181 159.690045 
L 162.086834 159.690045 
L 162.188268 156.391548 
L 162.274744 156.391548 
L 162.346481 152.949638 
L 162.389382 152.949638 
L 162.417924 150.655031 
L 162.531628 150.655031 
L 162.574077 149.65114 
L 162.71483 149.65114 
L 162.812686 149.220902 
L 162.868358 149.220902 
L 162.965359 147.786772 
L 162.992975 147.786772 
L 163.089286 147.069708 
L 163.21234 147.069708 
L 163.293895 146.782882 
L 163.33453 146.782882 
L 163.388564 145.635578 
L 163.536298 145.635578 
L 163.589711 145.061927 
L 163.788565 145.061927 
L 163.854349 142.623907 
L 163.919885 142.623907 
L 163.985177 141.763429 
L 164.153799 141.763429 
L 164.231078 140.902952 
L 164.346358 140.902952 
L 164.448194 140.616126 
L 164.498889 140.616126 
L 164.562052 139.755648 
L 164.624987 139.755648 
L 164.725213 139.325409 
L 164.737701 139.325409 
L 164.800007 138.895171 
L 164.86209 138.895171 
L 164.960967 138.034693 
L 164.997901 138.034693 
L 165.108238 137.461041 
L 165.144862 137.461041 
L 165.157053 137.174215 
L 165.278497 137.174215 
L 165.314766 136.457151 
L 165.411116 136.457151 
L 165.494988 134.736196 
L 165.542734 134.736196 
L 165.649687 134.162544 
L 165.685193 134.162544 
L 165.791279 133.588892 
L 165.814766 133.588892 
L 165.849938 132.728415 
L 165.93173 132.728415 
L 166.013141 132.441589 
L 166.094173 132.441589 
L 166.094173 132.154763 
L 166.209284 132.154763 
L 166.255117 131.581111 
L 166.437252 131.581111 
L 166.505065 131.294285 
L 166.561376 131.294285 
L 166.617505 130.146982 
L 166.673454 130.146982 
L 166.718084 129.286504 
L 166.818087 129.286504 
L 166.895472 128.139201 
L 167.00543 128.139201 
L 167.114699 127.565549 
L 167.136471 127.565549 
L 167.190782 126.705072 
L 167.331204 126.705072 
L 167.395635 125.844594 
L 167.502494 125.844594 
L 167.576907 124.267052 
L 167.651004 124.267052 
L 167.693205 123.6934 
L 167.798261 123.6934 
L 167.808732 122.976335 
L 167.954668 122.976335 
L 168.058166 121.25538 
L 168.078792 121.25538 
L 168.11997 119.821251 
L 168.222494 119.821251 
L 168.324419 118.673948 
L 168.365023 118.673948 
L 168.466121 117.670057 
L 168.476198 117.670057 
L 168.576655 117.096405 
L 168.636653 117.096405 
L 168.726264 115.949102 
L 168.8746 115.949102 
L 168.963 114.658386 
L 169.002145 114.658386 
L 169.050954 113.797908 
L 169.17722 113.797908 
L 169.27373 112.650605 
L 169.312185 112.650605 
L 169.3984 110.929649 
L 169.446113 110.929649 
L 169.446113 110.786236 
L 169.597925 110.786236 
L 169.701534 109.065281 
L 169.841835 109.065281 
L 169.888352 108.204804 
L 169.953269 108.204804 
L 170.017944 107.774565 
L 170.091567 107.774565 
L 170.18316 107.200913 
L 170.24699 107.200913 
L 170.346825 105.766784 
L 170.562682 105.766784 
L 170.634045 105.049719 
L 170.696249 105.049719 
L 170.740545 103.759003 
L 170.837602 103.759003 
L 170.942869 103.185351 
L 170.960352 103.185351 
L 170.960352 102.898525 
L 171.090919 102.898525 
L 171.177424 101.464396 
L 171.220515 101.464396 
L 171.306381 100.460506 
L 171.340609 100.460506 
L 171.442893 98.452725 
L 171.459882 98.452725 
L 171.56147 96.875182 
L 171.578344 96.875182 
L 171.679247 95.727879 
L 171.712752 95.727879 
L 171.787903 95.29764 
L 171.854434 95.29764 
L 171.920711 94.29375 
L 171.978498 94.29375 
L 172.052516 93.433272 
L 172.101686 93.433272 
L 172.158878 92.285969 
L 172.232135 92.285969 
L 172.329335 91.712317 
L 172.353551 91.712317 
L 172.417962 90.995252 
L 172.466115 90.995252 
L 172.498143 90.134775 
L 172.593876 90.134775 
L 172.696997 89.561123 
L 172.752272 89.561123 
L 172.815229 88.844058 
L 172.901427 88.844058 
L 172.971637 87.840168 
L 173.080293 87.840168 
L 173.188276 86.692864 
L 173.249682 86.692864 
L 173.356625 85.402148 
L 173.432614 85.402148 
L 173.51582 84.111432 
L 173.568564 84.111432 
L 173.658612 83.250954 
L 173.770522 83.250954 
L 173.874327 82.247063 
L 173.962814 82.247063 
L 174.036212 81.673412 
L 174.174823 81.673412 
L 174.25457 80.382695 
L 174.290699 80.382695 
L 174.377103 79.665631 
L 174.420145 79.665631 
L 174.470228 78.66174 
L 174.612532 78.66174 
L 174.676192 77.944676 
L 174.725545 77.944676 
L 174.781778 77.514437 
L 174.844824 77.514437 
L 174.844824 77.371024 
L 174.984116 77.371024 
L 175.067161 75.936895 
L 175.101646 75.936895 
L 175.184134 73.642288 
L 175.259407 73.642288 
L 175.368318 73.068636 
L 175.375102 73.068636 
L 175.483295 71.347681 
L 175.523695 71.347681 
L 175.604215 70.34379 
L 175.644336 70.34379 
L 175.750876 69.196487 
L 175.764148 69.196487 
L 175.843568 68.766248 
L 175.909476 68.766248 
L 175.981689 66.90188 
L 176.112223 66.90188 
L 176.215951 66.184815 
L 176.235332 66.184815 
L 176.34475 64.46386 
L 176.351165 64.46386 
L 176.459861 61.739015 
L 176.491702 61.739015 
L 176.567884 60.304885 
L 176.618488 60.304885 
L 176.712976 59.731234 
L 176.738086 59.731234 
L 176.813202 57.866865 
L 176.912855 57.866865 
L 177.011942 57.006388 
L 177.042792 57.006388 
L 177.153401 55.285433 
L 177.208443 55.285433 
L 177.263313 54.568368 
L 177.330141 54.568368 
L 177.330141 54.424955 
L 177.469052 54.424955 
L 177.553068 53.851303 
L 177.630722 53.851303 
L 177.719896 53.277652 
L 177.773182 53.277652 
L 177.814514 51.700109 
L 177.902755 51.700109 
L 178.002224 50.409393 
L 178.077908 50.409393 
L 178.182162 49.692328 
L 178.199477 49.692328 
L 178.308742 47.397722 
L 178.325932 47.397722 
L 178.417327 46.537244 
L 178.468527 46.537244 
L 178.55918 45.963592 
L 178.58177 45.963592 
L 178.683063 44.242637 
L 178.694282 44.242637 
L 178.77261 42.665095 
L 178.867253 42.665095 
L 178.972426 41.804617 
L 179.098898 41.804617 
L 179.175434 40.513901 
L 179.213577 40.513901 
L 179.316688 39.366598 
L 179.413813 39.366598 
L 179.494339 38.50612 
L 179.526446 38.50612 
L 179.590482 37.932468 
L 179.670199 37.932468 
L 179.76538 37.358817 
L 179.796992 37.358817 
L 179.802255 36.785165 
L 179.948981 36.785165 
L 180.032273 35.637861 
L 180.187382 35.637861 
L 180.295143 34.777384 
L 180.32581 34.777384 
L 180.427645 33.773493 
L 180.437796 33.773493 
L 180.518792 33.486667 
L 180.634567 33.486667 
L 180.634567 33.343255 
L 180.764525 33.343255 
L 180.853932 32.482777 
L 180.893522 32.482777 
L 180.972433 31.909125 
L 181.050988 31.909125 
L 181.148688 31.478886 
L 181.274884 31.478886 
L 181.347276 30.044757 
L 181.452911 30.044757 
L 181.452911 29.471105 
L 181.572179 29.471105 
L 181.681189 28.754041 
L 181.695358 28.754041 
L 181.803604 27.75015 
L 181.822361 27.75015 
L 181.845779 27.463324 
L 181.967047 27.463324 
L 182.05976 26.602847 
L 182.105933 26.602847 
L 182.21625 25.598956 
L 182.26658 25.598956 
L 182.375889 24.595066 
L 182.461942 24.595066 
L 182.556562 23.878001 
L 182.596956 23.878001 
L 182.668539 22.874111 
L 182.863889 22.874111 
L 182.863889 22.730698 
L 182.991457 22.730698 
L 183.074532 22.013633 
L 183.126798 22.013633 
L 183.235184 21.583394 
L 183.239506 21.583394 
L 183.295588 20.292678 
L 183.41577 20.292678 
L 183.475552 20.005852 
L 183.569083 20.005852 
L 183.590271 19.575613 
L 183.737866 19.575613 
L 183.834181 18.715136 
L 183.875892 18.715136 
L 183.950721 18.141484 
L 184.012834 18.141484 
L 184.078845 16.850768 
L 184.336361 16.850768 
L 184.336361 16.420529 
L 184.449604 16.420529 
L 184.530044 16.133703 
L 184.606119 16.133703 
L 184.622093 14.842987 
L 184.796844 14.842987 
L 184.852082 14.556161 
L 184.934612 14.556161 
L 185.028456 13.982509 
L 185.059625 13.982509 
L 185.110157 13.695683 
L 185.176017 13.695683 
L 185.257031 12.978619 
L 185.326174 12.978619 
L 185.429376 12.404967 
L 185.558472 12.404967 
L 185.6302 11.687902 
L 186.025041 11.687902 
L 186.025041 11.401076 
L 186.262811 11.401076 
L 186.262811 11.11425 
L 186.389511 11.11425 
L 186.389511 10.970838 
L 187.058226 10.970838 
L 187.120595 10.540599 
L 187.371278 10.540599 
L 187.371278 10.397186 
L 187.692203 10.397186 
L 187.692203 10.253773 
L 188.19696 10.253773 
L 188.19696 10.11036 
L 188.719104 10.11036 
L 188.719104 9.823534 
L 189.345213 9.823534 
L 189.345213 9.249882 
L 246.343133 9.249882 
L 246.45347 6.66845 
L 246.471427 6.66845 
L 246.471427 6.525037 
L 258.425093 6.525037 
L 258.425093 6.381624 
L 338.688 6.381624 
L 338.688 6.381624 
" style="fill:none;stroke:#ff00ff;stroke-linecap:square;stroke-width:1.5;"/>
   </g>
   <g id="line2d_40">
    <defs>
     <path d="M -0 8.485281 
L 5.091169 0 
L 0 -8.485281 
L -5.091169 -0 
z
" id="m0dc0cb778f" style="stroke:#ff00ff;stroke-linejoin:miter;stroke-width:1.5;"/>
    </defs>
    <g>
     <use style="fill-opacity:0;stroke:#ff00ff;stroke-linejoin:miter;stroke-width:1.5;" x="76.759008" xlink:href="#m0dc0cb778f" y="293.06407"/>
     <use style="fill-opacity:0;stroke:#ff00ff;stroke-linejoin:miter;stroke-width:1.5;" x="152.860649" xlink:href="#m0dc0cb778f" y="200.992969"/>
     <use style="fill-opacity:0;stroke:#ff00ff;stroke-linejoin:miter;stroke-width:1.5;" x="175.750876" xlink:href="#m0dc0cb778f" y="69.3399"/>
     <use style="fill-opacity:0;stroke:#ff00ff;stroke-linejoin:miter;stroke-width:1.5;" x="258.425093" xlink:href="#m0dc0cb778f" y="6.525037"/>
     <use style="fill-opacity:0;stroke:#ff00ff;stroke-linejoin:miter;stroke-width:1.5;" x="258.425093" xlink:href="#m0dc0cb778f" y="6.381624"/>
     <use style="fill-opacity:0;stroke:#ff00ff;stroke-linejoin:miter;stroke-width:1.5;" x="338.688" xlink:href="#m0dc0cb778f" y="6.381624"/>
    </g>
   </g>
   <g id="line2d_41">
    <path style="fill:none;stroke:#ff00ff;stroke-linecap:square;stroke-width:1.5;"/>
    <g/>
   </g>
   <g id="line2d_42">
    <path clip-path="url(#p591e07b36a)" d="M 246.289154 9.249882 
" style="fill:none;stroke:#ff00ff;stroke-linecap:square;stroke-width:1.5;"/>
    <defs>
     <path d="M -12 12 
L 12 -12 
M -12 -12 
L 12 12 
" id="m2f7c67e38d" style="stroke:#ff00ff;"/>
    </defs>
    <g clip-path="url(#p591e07b36a)">
     <use style="fill:#ff00ff;stroke:#ff00ff;" x="246.289154" xlink:href="#m2f7c67e38d" y="9.249882"/>
    </g>
   </g>
   <g id="line2d_43">
    <path d="M 338.688 6.381624 
L 369.60768 293.092752 
" style="fill:none;stroke:#ff00ff;stroke-linecap:square;stroke-width:1.5;"/>
    <g>
     <use style="fill-opacity:0;stroke:#ff00ff;stroke-linejoin:miter;stroke-width:1.5;" x="338.688" xlink:href="#m0dc0cb778f" y="6.381624"/>
     <use style="fill-opacity:0;stroke:#ff00ff;stroke-linejoin:miter;stroke-width:1.5;" x="369.60768" xlink:href="#m0dc0cb778f" y="293.092752"/>
    </g>
   </g>
   <g id="line2d_44">
    <path d="M 338.688 6.381624 
L 369.60768 152.662812 
" style="fill:none;stroke:#000080;stroke-linecap:square;stroke-width:1.5;"/>
    <g>
     <use style="fill-opacity:0;stroke:#000080;stroke-width:1.5;" x="338.688" xlink:href="#m4761ca1575" y="6.381624"/>
     <use style="fill-opacity:0;stroke:#000080;stroke-width:1.5;" x="369.60768" xlink:href="#m4761ca1575" y="152.662812"/>
    </g>
   </g>
   <g id="line2d_45">
    <path d="M 338.688 298.944 
L 338.688 6.381624 
" style="fill:none;stroke:#000000;stroke-linecap:square;stroke-width:1.5;"/>
   </g>
   <g id="patch_3">
    <path d="M 57.6 298.944 
L 57.6 3.456 
" style="fill:none;stroke:#000000;stroke-linecap:square;stroke-linejoin:miter;stroke-width:0.8;"/>
   </g>
   <g id="patch_4">
    <path d="M 338.688 298.944 
L 338.688 3.456 
" style="fill:none;stroke:#000000;stroke-linecap:square;stroke-linejoin:miter;stroke-width:0.8;"/>
   </g>
   <g id="patch_5">
    <path d="M 57.6 298.944 
L 338.688 298.944 
" style="fill:none;stroke:#000000;stroke-linecap:square;stroke-linejoin:miter;stroke-width:0.8;"/>
   </g>
   <g id="patch_6">
    <path d="M 57.6 3.456 
L 338.688 3.456 
" style="fill:none;stroke:#000000;stroke-linecap:square;stroke-linejoin:miter;stroke-width:0.8;"/>
   </g>
   <g id="text_13">
    <!-- DE -->
    <g transform="translate(375.22944 297.78369)scale(0.17 -0.17)">
     <defs>
      <path d="M 19.671875 64.796875 
L 19.671875 8.109375 
L 31.59375 8.109375 
Q 46.6875 8.109375 53.6875 14.9375 
Q 60.6875 21.78125 60.6875 36.53125 
Q 60.6875 51.171875 53.6875 57.984375 
Q 46.6875 64.796875 31.59375 64.796875 
z
M 9.8125 72.90625 
L 30.078125 72.90625 
Q 51.265625 72.90625 61.171875 64.09375 
Q 71.09375 55.28125 71.09375 36.53125 
Q 71.09375 17.671875 61.125 8.828125 
Q 51.171875 0 30.078125 0 
L 9.8125 0 
z
" id="DejaVuSans-68"/>
      <path d="M 9.8125 72.90625 
L 55.90625 72.90625 
L 55.90625 64.59375 
L 19.671875 64.59375 
L 19.671875 43.015625 
L 54.390625 43.015625 
L 54.390625 34.71875 
L 19.671875 34.71875 
L 19.671875 8.296875 
L 56.78125 8.296875 
L 56.78125 0 
L 9.8125 0 
z
" id="DejaVuSans-69"/>
     </defs>
     <use xlink:href="#DejaVuSans-68"/>
     <use x="77.001953" xlink:href="#DejaVuSans-69"/>
    </g>
   </g>
   <g id="text_14">
    <!-- BIPOP-CMA -->
    <g transform="translate(375.22944 157.353749)scale(0.17 -0.17)">
     <defs>
      <path d="M 19.671875 34.8125 
L 19.671875 8.109375 
L 35.5 8.109375 
Q 43.453125 8.109375 47.28125 11.40625 
Q 51.125 14.703125 51.125 21.484375 
Q 51.125 28.328125 47.28125 31.5625 
Q 43.453125 34.8125 35.5 34.8125 
z
M 19.671875 64.796875 
L 19.671875 42.828125 
L 34.28125 42.828125 
Q 41.5 42.828125 45.03125 45.53125 
Q 48.578125 48.25 48.578125 53.8125 
Q 48.578125 59.328125 45.03125 62.0625 
Q 41.5 64.796875 34.28125 64.796875 
z
M 9.8125 72.90625 
L 35.015625 72.90625 
Q 46.296875 72.90625 52.390625 68.21875 
Q 58.5 63.53125 58.5 54.890625 
Q 58.5 48.1875 55.375 44.234375 
Q 52.25 40.28125 46.1875 39.3125 
Q 53.46875 37.75 57.5 32.78125 
Q 61.53125 27.828125 61.53125 20.40625 
Q 61.53125 10.640625 54.890625 5.3125 
Q 48.25 0 35.984375 0 
L 9.8125 0 
z
" id="DejaVuSans-66"/>
      <path d="M 9.8125 72.90625 
L 19.671875 72.90625 
L 19.671875 0 
L 9.8125 0 
z
" id="DejaVuSans-73"/>
      <path d="M 19.671875 64.796875 
L 19.671875 37.40625 
L 32.078125 37.40625 
Q 38.96875 37.40625 42.71875 40.96875 
Q 46.484375 44.53125 46.484375 51.125 
Q 46.484375 57.671875 42.71875 61.234375 
Q 38.96875 64.796875 32.078125 64.796875 
z
M 9.8125 72.90625 
L 32.078125 72.90625 
Q 44.34375 72.90625 50.609375 67.359375 
Q 56.890625 61.8125 56.890625 51.125 
Q 56.890625 40.328125 50.609375 34.8125 
Q 44.34375 29.296875 32.078125 29.296875 
L 19.671875 29.296875 
L 19.671875 0 
L 9.8125 0 
z
" id="DejaVuSans-80"/>
      <path d="M 39.40625 66.21875 
Q 28.65625 66.21875 22.328125 58.203125 
Q 16.015625 50.203125 16.015625 36.375 
Q 16.015625 22.609375 22.328125 14.59375 
Q 28.65625 6.59375 39.40625 6.59375 
Q 50.140625 6.59375 56.421875 14.59375 
Q 62.703125 22.609375 62.703125 36.375 
Q 62.703125 50.203125 56.421875 58.203125 
Q 50.140625 66.21875 39.40625 66.21875 
z
M 39.40625 74.21875 
Q 54.734375 74.21875 63.90625 63.9375 
Q 73.09375 53.65625 73.09375 36.375 
Q 73.09375 19.140625 63.90625 8.859375 
Q 54.734375 -1.421875 39.40625 -1.421875 
Q 24.03125 -1.421875 14.8125 8.828125 
Q 5.609375 19.09375 5.609375 36.375 
Q 5.609375 53.65625 14.8125 63.9375 
Q 24.03125 74.21875 39.40625 74.21875 
z
" id="DejaVuSans-79"/>
      <path d="M 64.40625 67.28125 
L 64.40625 56.890625 
Q 59.421875 61.53125 53.78125 63.8125 
Q 48.140625 66.109375 41.796875 66.109375 
Q 29.296875 66.109375 22.65625 58.46875 
Q 16.015625 50.828125 16.015625 36.375 
Q 16.015625 21.96875 22.65625 14.328125 
Q 29.296875 6.6875 41.796875 6.6875 
Q 48.140625 6.6875 53.78125 8.984375 
Q 59.421875 11.28125 64.40625 15.921875 
L 64.40625 5.609375 
Q 59.234375 2.09375 53.4375 0.328125 
Q 47.65625 -1.421875 41.21875 -1.421875 
Q 24.65625 -1.421875 15.125 8.703125 
Q 5.609375 18.84375 5.609375 36.375 
Q 5.609375 53.953125 15.125 64.078125 
Q 24.65625 74.21875 41.21875 74.21875 
Q 47.75 74.21875 53.53125 72.484375 
Q 59.328125 70.75 64.40625 67.28125 
z
" id="DejaVuSans-67"/>
      <path d="M 9.8125 72.90625 
L 24.515625 72.90625 
L 43.109375 23.296875 
L 61.8125 72.90625 
L 76.515625 72.90625 
L 76.515625 0 
L 66.890625 0 
L 66.890625 64.015625 
L 48.09375 14.015625 
L 38.1875 14.015625 
L 19.390625 64.015625 
L 19.390625 0 
L 9.8125 0 
z
" id="DejaVuSans-77"/>
      <path d="M 34.1875 63.1875 
L 20.796875 26.90625 
L 47.609375 26.90625 
z
M 28.609375 72.90625 
L 39.796875 72.90625 
L 67.578125 0 
L 57.328125 0 
L 50.6875 18.703125 
L 17.828125 18.703125 
L 11.1875 0 
L 0.78125 0 
z
" id="DejaVuSans-65"/>
     </defs>
     <use xlink:href="#DejaVuSans-66"/>
     <use x="68.603516" xlink:href="#DejaVuSans-73"/>
     <use x="98.095703" xlink:href="#DejaVuSans-80"/>
     <use x="158.398438" xlink:href="#DejaVuSans-79"/>
     <use x="237.109375" xlink:href="#DejaVuSans-80"/>
     <use x="295.162109" xlink:href="#DejaVuSans-45"/>
     <use x="331.246094" xlink:href="#DejaVuSans-67"/>
     <use x="401.070312" xlink:href="#DejaVuSans-77"/>
     <use x="487.349609" xlink:href="#DejaVuSans-65"/>
    </g>
   </g>
   <g id="text_15">
    <!-- best 2009 -->
    <g transform="translate(375.22944 16.923809)scale(0.17 -0.17)">
     <defs>
      <path d="M 48.6875 27.296875 
Q 48.6875 37.203125 44.609375 42.84375 
Q 40.53125 48.484375 33.40625 48.484375 
Q 26.265625 48.484375 22.1875 42.84375 
Q 18.109375 37.203125 18.109375 27.296875 
Q 18.109375 17.390625 22.1875 11.75 
Q 26.265625 6.109375 33.40625 6.109375 
Q 40.53125 6.109375 44.609375 11.75 
Q 48.6875 17.390625 48.6875 27.296875 
z
M 18.109375 46.390625 
Q 20.953125 51.265625 25.265625 53.625 
Q 29.59375 56 35.59375 56 
Q 45.5625 56 51.78125 48.09375 
Q 58.015625 40.1875 58.015625 27.296875 
Q 58.015625 14.40625 51.78125 6.484375 
Q 45.5625 -1.421875 35.59375 -1.421875 
Q 29.59375 -1.421875 25.265625 0.953125 
Q 20.953125 3.328125 18.109375 8.203125 
L 18.109375 0 
L 9.078125 0 
L 9.078125 75.984375 
L 18.109375 75.984375 
z
" id="DejaVuSans-98"/>
      <path d="M 10.984375 1.515625 
L 10.984375 10.5 
Q 14.703125 8.734375 18.5 7.8125 
Q 22.3125 6.890625 25.984375 6.890625 
Q 35.75 6.890625 40.890625 13.453125 
Q 46.046875 20.015625 46.78125 33.40625 
Q 43.953125 29.203125 39.59375 26.953125 
Q 35.25 24.703125 29.984375 24.703125 
Q 19.046875 24.703125 12.671875 31.3125 
Q 6.296875 37.9375 6.296875 49.421875 
Q 6.296875 60.640625 12.9375 67.421875 
Q 19.578125 74.21875 30.609375 74.21875 
Q 43.265625 74.21875 49.921875 64.515625 
Q 56.59375 54.828125 56.59375 36.375 
Q 56.59375 19.140625 48.40625 8.859375 
Q 40.234375 -1.421875 26.421875 -1.421875 
Q 22.703125 -1.421875 18.890625 -0.6875 
Q 15.09375 0.046875 10.984375 1.515625 
z
M 30.609375 32.421875 
Q 37.25 32.421875 41.125 36.953125 
Q 45.015625 41.5 45.015625 49.421875 
Q 45.015625 57.28125 41.125 61.84375 
Q 37.25 66.40625 30.609375 66.40625 
Q 23.96875 66.40625 20.09375 61.84375 
Q 16.21875 57.28125 16.21875 49.421875 
Q 16.21875 41.5 20.09375 36.953125 
Q 23.96875 32.421875 30.609375 32.421875 
z
" id="DejaVuSans-57"/>
     </defs>
     <use xlink:href="#DejaVuSans-98"/>
     <use x="63.476562" xlink:href="#DejaVuSans-101"/>
     <use x="125" xlink:href="#DejaVuSans-115"/>
     <use x="177.099609" xlink:href="#DejaVuSans-116"/>
     <use x="216.308594" xlink:href="#DejaVuSans-32"/>
     <use x="248.095703" xlink:href="#DejaVuSans-50"/>
     <use x="311.71875" xlink:href="#DejaVuSans-48"/>
     <use x="375.341797" xlink:href="#DejaVuSans-48"/>
     <use x="438.964844" xlink:href="#DejaVuSans-57"/>
    </g>
   </g>
   <g id="text_16">
    <!-- bbob f6-f9, 3-D -->
    <g transform="translate(60.41088 14.161286)scale(0.102 -0.102)">
     <defs>
      <path d="M 40.578125 39.3125 
Q 47.65625 37.796875 51.625 33 
Q 55.609375 28.21875 55.609375 21.1875 
Q 55.609375 10.40625 48.1875 4.484375 
Q 40.765625 -1.421875 27.09375 -1.421875 
Q 22.515625 -1.421875 17.65625 -0.515625 
Q 12.796875 0.390625 7.625 2.203125 
L 7.625 11.71875 
Q 11.71875 9.328125 16.59375 8.109375 
Q 21.484375 6.890625 26.8125 6.890625 
Q 36.078125 6.890625 40.9375 10.546875 
Q 45.796875 14.203125 45.796875 21.1875 
Q 45.796875 27.640625 41.28125 31.265625 
Q 36.765625 34.90625 28.71875 34.90625 
L 20.21875 34.90625 
L 20.21875 43.015625 
L 29.109375 43.015625 
Q 36.375 43.015625 40.234375 45.921875 
Q 44.09375 48.828125 44.09375 54.296875 
Q 44.09375 59.90625 40.109375 62.90625 
Q 36.140625 65.921875 28.71875 65.921875 
Q 24.65625 65.921875 20.015625 65.03125 
Q 15.375 64.15625 9.8125 62.3125 
L 9.8125 71.09375 
Q 15.4375 72.65625 20.34375 73.4375 
Q 25.25 74.21875 29.59375 74.21875 
Q 40.828125 74.21875 47.359375 69.109375 
Q 53.90625 64.015625 53.90625 55.328125 
Q 53.90625 49.265625 50.4375 45.09375 
Q 46.96875 40.921875 40.578125 39.3125 
z
" id="DejaVuSans-51"/>
     </defs>
     <use xlink:href="#DejaVuSans-98"/>
     <use x="63.476562" xlink:href="#DejaVuSans-98"/>
     <use x="126.953125" xlink:href="#DejaVuSans-111"/>
     <use x="188.134766" xlink:href="#DejaVuSans-98"/>
     <use x="251.611328" xlink:href="#DejaVuSans-32"/>
     <use x="283.398438" xlink:href="#DejaVuSans-102"/>
     <use x="318.603516" xlink:href="#DejaVuSans-54"/>
     <use x="382.226562" xlink:href="#DejaVuSans-45"/>
     <use x="418.310547" xlink:href="#DejaVuSans-102"/>
     <use x="453.515625" xlink:href="#DejaVuSans-57"/>
     <use x="517.138672" xlink:href="#DejaVuSans-44"/>
     <use x="548.925781" xlink:href="#DejaVuSans-32"/>
     <use x="580.712891" xlink:href="#DejaVuSans-51"/>
     <use x="644.335938" xlink:href="#DejaVuSans-45"/>
     <use x="680.419922" xlink:href="#DejaVuSans-68"/>
    </g>
    <!-- 51 targets: 100..1e-08 -->
    <g transform="translate(60.41088 25.583055)scale(0.102 -0.102)">
     <defs>
      <path d="M 10.796875 72.90625 
L 49.515625 72.90625 
L 49.515625 64.59375 
L 19.828125 64.59375 
L 19.828125 46.734375 
Q 21.96875 47.46875 24.109375 47.828125 
Q 26.265625 48.1875 28.421875 48.1875 
Q 40.625 48.1875 47.75 41.5 
Q 54.890625 34.8125 54.890625 23.390625 
Q 54.890625 11.625 47.5625 5.09375 
Q 40.234375 -1.421875 26.90625 -1.421875 
Q 22.3125 -1.421875 17.546875 -0.640625 
Q 12.796875 0.140625 7.71875 1.703125 
L 7.71875 11.625 
Q 12.109375 9.234375 16.796875 8.0625 
Q 21.484375 6.890625 26.703125 6.890625 
Q 35.15625 6.890625 40.078125 11.328125 
Q 45.015625 15.765625 45.015625 23.390625 
Q 45.015625 31 40.078125 35.4375 
Q 35.15625 39.890625 26.703125 39.890625 
Q 22.75 39.890625 18.8125 39.015625 
Q 14.890625 38.140625 10.796875 36.28125 
z
" id="DejaVuSans-53"/>
      <path d="M 11.71875 12.40625 
L 22.015625 12.40625 
L 22.015625 0 
L 11.71875 0 
z
M 11.71875 51.703125 
L 22.015625 51.703125 
L 22.015625 39.3125 
L 11.71875 39.3125 
z
" id="DejaVuSans-58"/>
     </defs>
     <use xlink:href="#DejaVuSans-53"/>
     <use x="63.623047" xlink:href="#DejaVuSans-49"/>
     <use x="127.246094" xlink:href="#DejaVuSans-32"/>
     <use x="159.033203" xlink:href="#DejaVuSans-116"/>
     <use x="198.242188" xlink:href="#DejaVuSans-97"/>
     <use x="259.521484" xlink:href="#DejaVuSans-114"/>
     <use x="298.884766" xlink:href="#DejaVuSans-103"/>
     <use x="362.361328" xlink:href="#DejaVuSans-101"/>
     <use x="423.884766" xlink:href="#DejaVuSans-116"/>
     <use x="463.09375" xlink:href="#DejaVuSans-115"/>
     <use x="515.193359" xlink:href="#DejaVuSans-58"/>
     <use x="548.884766" xlink:href="#DejaVuSans-32"/>
     <use x="580.671875" xlink:href="#DejaVuSans-49"/>
     <use x="644.294922" xlink:href="#DejaVuSans-48"/>
     <use x="707.917969" xlink:href="#DejaVuSans-48"/>
     <use x="771.541016" xlink:href="#DejaVuSans-46"/>
     <use x="803.328125" xlink:href="#DejaVuSans-46"/>
     <use x="835.115234" xlink:href="#DejaVuSans-49"/>
     <use x="898.738281" xlink:href="#DejaVuSans-101"/>
     <use x="960.261719" xlink:href="#DejaVuSans-45"/>
     <use x="996.345703" xlink:href="#DejaVuSans-48"/>
     <use x="1059.96875" xlink:href="#DejaVuSans-56"/>
    </g>
    <!-- 15 instances -->
    <g transform="translate(60.41088 37.004824)scale(0.102 -0.102)">
     <use xlink:href="#DejaVuSans-49"/>
     <use x="63.623047" xlink:href="#DejaVuSans-53"/>
     <use x="127.246094" xlink:href="#DejaVuSans-32"/>
     <use x="159.033203" xlink:href="#DejaVuSans-105"/>
     <use x="186.816406" xlink:href="#DejaVuSans-110"/>
     <use x="250.195312" xlink:href="#DejaVuSans-115"/>
     <use x="302.294922" xlink:href="#DejaVuSans-116"/>
     <use x="341.503906" xlink:href="#DejaVuSans-97"/>
     <use x="402.783203" xlink:href="#DejaVuSans-110"/>
     <use x="466.162109" xlink:href="#DejaVuSans-99"/>
     <use x="521.142578" xlink:href="#DejaVuSans-101"/>
     <use x="582.666016" xlink:href="#DejaVuSans-115"/>
    </g>
   </g>
   <g id="text_17">
    <!-- v2.4 -->
    <g style="fill:#808080;" transform="translate(187.233062 293.909432)scale(0.1 -0.1)">
     <use xlink:href="#DejaVuSans-118"/>
     <use x="59.179688" xlink:href="#DejaVuSans-50"/>
     <use x="122.802734" xlink:href="#DejaVuSans-46"/>
     <use x="154.589844" xlink:href="#DejaVuSans-52"/>
    </g>
   </g>
  </g>
 </g>
 <defs>
  <clipPath id="p591e07b36a">
   <rect height="295.488" width="281.088" x="57.6" y="3.456"/>
  </clipPath>
 </defs>
</svg>
